<?xml version="1.0" encoding="UTF-8" standalone="no"?>
<!DOCTYPE svg PUBLIC "-//W3C//DTD SVG 1.1//EN"
 "http://www.w3.org/Graphics/SVG/1.1/DTD/svg11.dtd">
<!-- Generated by graphviz version 2.43.0 (0)
 -->
<!-- Title: Tree Pages: 1 -->
<svg width="1488pt" height="520pt"
 viewBox="0.00 0.00 1488.00 520.00" xmlns="http://www.w3.org/2000/svg" xmlns:xlink="http://www.w3.org/1999/xlink">
<g id="graph0" class="graph" transform="scale(1 1) rotate(0) translate(4 516)">
<title>Tree</title>
<polygon fill="white" stroke="transparent" points="-4,4 -4,-516 1484,-516 1484,4 -4,4"/>
<!-- 0 -->
<g id="node1" class="node">
<title>0</title>
<polygon fill="#ffffff" stroke="black" points="810,-512 625,-512 625,-429 810,-429 810,-512"/>
<text text-anchor="middle" x="717.5" y="-496.8" font-family="Times,serif" font-size="14.00">graphDepth &lt;= 3.5</text>
<text text-anchor="middle" x="717.5" y="-481.8" font-family="Times,serif" font-size="14.00">gini = 0.5</text>
<text text-anchor="middle" x="717.5" y="-466.8" font-family="Times,serif" font-size="14.00">samples = 104915</text>
<text text-anchor="middle" x="717.5" y="-451.8" font-family="Times,serif" font-size="14.00">value = [52396, 52519]</text>
<text text-anchor="middle" x="717.5" y="-436.8" font-family="Times,serif" font-size="14.00">class = True</text>
</g>
<!-- 1 -->
<g id="node2" class="node">
<title>1</title>
<polygon fill="#fdfeff" stroke="black" points="616,-393 449,-393 449,-310 616,-310 616,-393"/>
<text text-anchor="middle" x="532.5" y="-377.8" font-family="Times,serif" font-size="14.00">nbproc &lt;= 4.5</text>
<text text-anchor="middle" x="532.5" y="-362.8" font-family="Times,serif" font-size="14.00">gini = 0.5</text>
<text text-anchor="middle" x="532.5" y="-347.8" font-family="Times,serif" font-size="14.00">samples = 15260</text>
<text text-anchor="middle" x="532.5" y="-332.8" font-family="Times,serif" font-size="14.00">value = [7587, 7673]</text>
<text text-anchor="middle" x="532.5" y="-317.8" font-family="Times,serif" font-size="14.00">class = True</text>
</g>
<!-- 0&#45;&gt;1 -->
<g id="edge1" class="edge">
<title>0&#45;&gt;1</title>
<path fill="none" stroke="black" d="M653.32,-428.91C637.82,-419.11 621.15,-408.56 605.29,-398.53"/>
<polygon fill="black" stroke="black" points="606.89,-395.41 596.57,-393.02 603.15,-401.32 606.89,-395.41"/>
<text text-anchor="middle" x="602.06" y="-413.71" font-family="Times,serif" font-size="14.00">True</text>
</g>
<!-- 108 -->
<g id="node17" class="node">
<title>108</title>
<polygon fill="#ffffff" stroke="black" points="1008,-393 823,-393 823,-310 1008,-310 1008,-393"/>
<text text-anchor="middle" x="915.5" y="-377.8" font-family="Times,serif" font-size="14.00">sdComm &lt;= 6.5</text>
<text text-anchor="middle" x="915.5" y="-362.8" font-family="Times,serif" font-size="14.00">gini = 0.5</text>
<text text-anchor="middle" x="915.5" y="-347.8" font-family="Times,serif" font-size="14.00">samples = 89655</text>
<text text-anchor="middle" x="915.5" y="-332.8" font-family="Times,serif" font-size="14.00">value = [44809, 44846]</text>
<text text-anchor="middle" x="915.5" y="-317.8" font-family="Times,serif" font-size="14.00">class = True</text>
</g>
<!-- 0&#45;&gt;108 -->
<g id="edge16" class="edge">
<title>0&#45;&gt;108</title>
<path fill="none" stroke="black" d="M786.2,-428.91C802.94,-419.02 820.95,-408.37 838.07,-398.25"/>
<polygon fill="black" stroke="black" points="840.1,-401.12 846.93,-393.02 836.54,-395.09 840.1,-401.12"/>
<text text-anchor="middle" x="840.7" y="-413.53" font-family="Times,serif" font-size="14.00">False</text>
</g>
<!-- 2 -->
<g id="node3" class="node">
<title>2</title>
<polygon fill="#fbfdfe" stroke="black" points="343,-274 176,-274 176,-191 343,-191 343,-274"/>
<text text-anchor="middle" x="259.5" y="-258.8" font-family="Times,serif" font-size="14.00">sdComp &lt;= 6.5</text>
<text text-anchor="middle" x="259.5" y="-243.8" font-family="Times,serif" font-size="14.00">gini = 0.5</text>
<text text-anchor="middle" x="259.5" y="-228.8" font-family="Times,serif" font-size="14.00">samples = 6199</text>
<text text-anchor="middle" x="259.5" y="-213.8" font-family="Times,serif" font-size="14.00">value = [3068, 3131]</text>
<text text-anchor="middle" x="259.5" y="-198.8" font-family="Times,serif" font-size="14.00">class = True</text>
</g>
<!-- 1&#45;&gt;2 -->
<g id="edge2" class="edge">
<title>1&#45;&gt;2</title>
<path fill="none" stroke="black" d="M448.74,-314.6C418.34,-301.57 383.82,-286.78 352.66,-273.43"/>
<polygon fill="black" stroke="black" points="353.68,-270.05 343.11,-269.33 350.92,-276.49 353.68,-270.05"/>
</g>
<!-- 55 -->
<g id="node10" class="node">
<title>55</title>
<polygon fill="#feffff" stroke="black" points="616,-274 449,-274 449,-191 616,-191 616,-274"/>
<text text-anchor="middle" x="532.5" y="-258.8" font-family="Times,serif" font-size="14.00">CCR &lt;= 0.55</text>
<text text-anchor="middle" x="532.5" y="-243.8" font-family="Times,serif" font-size="14.00">gini = 0.5</text>
<text text-anchor="middle" x="532.5" y="-228.8" font-family="Times,serif" font-size="14.00">samples = 9061</text>
<text text-anchor="middle" x="532.5" y="-213.8" font-family="Times,serif" font-size="14.00">value = [4519, 4542]</text>
<text text-anchor="middle" x="532.5" y="-198.8" font-family="Times,serif" font-size="14.00">class = True</text>
</g>
<!-- 1&#45;&gt;55 -->
<g id="edge9" class="edge">
<title>1&#45;&gt;55</title>
<path fill="none" stroke="black" d="M532.5,-309.91C532.5,-301.65 532.5,-292.86 532.5,-284.3"/>
<polygon fill="black" stroke="black" points="536,-284.02 532.5,-274.02 529,-284.02 536,-284.02"/>
</g>
<!-- 3 -->
<g id="node4" class="node">
<title>3</title>
<polygon fill="#fcfdff" stroke="black" points="167,-155 0,-155 0,-72 167,-72 167,-155"/>
<text text-anchor="middle" x="83.5" y="-139.8" font-family="Times,serif" font-size="14.00">sdComm &lt;= 0.65</text>
<text text-anchor="middle" x="83.5" y="-124.8" font-family="Times,serif" font-size="14.00">gini = 0.5</text>
<text text-anchor="middle" x="83.5" y="-109.8" font-family="Times,serif" font-size="14.00">samples = 5765</text>
<text text-anchor="middle" x="83.5" y="-94.8" font-family="Times,serif" font-size="14.00">value = [2859, 2906]</text>
<text text-anchor="middle" x="83.5" y="-79.8" font-family="Times,serif" font-size="14.00">class = True</text>
</g>
<!-- 2&#45;&gt;3 -->
<g id="edge3" class="edge">
<title>2&#45;&gt;3</title>
<path fill="none" stroke="black" d="M198.44,-190.91C183.83,-181.2 168.13,-170.76 153.16,-160.81"/>
<polygon fill="black" stroke="black" points="154.72,-157.64 144.45,-155.02 150.84,-163.47 154.72,-157.64"/>
</g>
<!-- 50 -->
<g id="node7" class="node">
<title>50</title>
<polygon fill="#f1f8fd" stroke="black" points="334,-155 185,-155 185,-72 334,-72 334,-155"/>
<text text-anchor="middle" x="259.5" y="-139.8" font-family="Times,serif" font-size="14.00">sdComm &lt;= 2.0</text>
<text text-anchor="middle" x="259.5" y="-124.8" font-family="Times,serif" font-size="14.00">gini = 0.499</text>
<text text-anchor="middle" x="259.5" y="-109.8" font-family="Times,serif" font-size="14.00">samples = 434</text>
<text text-anchor="middle" x="259.5" y="-94.8" font-family="Times,serif" font-size="14.00">value = [209, 225]</text>
<text text-anchor="middle" x="259.5" y="-79.8" font-family="Times,serif" font-size="14.00">class = True</text>
</g>
<!-- 2&#45;&gt;50 -->
<g id="edge6" class="edge">
<title>2&#45;&gt;50</title>
<path fill="none" stroke="black" d="M259.5,-190.91C259.5,-182.65 259.5,-173.86 259.5,-165.3"/>
<polygon fill="black" stroke="black" points="263,-165.02 259.5,-155.02 256,-165.02 263,-165.02"/>
</g>
<!-- 4 -->
<g id="node5" class="node">
<title>4</title>
<polygon fill="#c0c0c0" stroke="black" points="74.5,-36 20.5,-36 20.5,0 74.5,0 74.5,-36"/>
<text text-anchor="middle" x="47.5" y="-14.3" font-family="Times,serif" font-size="14.00">(...)</text>
</g>
<!-- 3&#45;&gt;4 -->
<g id="edge4" class="edge">
<title>3&#45;&gt;4</title>
<path fill="none" stroke="black" d="M67.81,-71.76C64.46,-63.04 60.99,-54.04 57.89,-45.99"/>
<polygon fill="black" stroke="black" points="61.06,-44.48 54.2,-36.41 54.53,-46.99 61.06,-44.48"/>
</g>
<!-- 33 -->
<g id="node6" class="node">
<title>33</title>
<polygon fill="#c0c0c0" stroke="black" points="146.5,-36 92.5,-36 92.5,0 146.5,0 146.5,-36"/>
<text text-anchor="middle" x="119.5" y="-14.3" font-family="Times,serif" font-size="14.00">(...)</text>
</g>
<!-- 3&#45;&gt;33 -->
<g id="edge5" class="edge">
<title>3&#45;&gt;33</title>
<path fill="none" stroke="black" d="M99.19,-71.76C102.54,-63.04 106.01,-54.04 109.11,-45.99"/>
<polygon fill="black" stroke="black" points="112.47,-46.99 112.8,-36.41 105.94,-44.48 112.47,-46.99"/>
</g>
<!-- 51 -->
<g id="node8" class="node">
<title>51</title>
<polygon fill="#c0c0c0" stroke="black" points="252.5,-36 198.5,-36 198.5,0 252.5,0 252.5,-36"/>
<text text-anchor="middle" x="225.5" y="-14.3" font-family="Times,serif" font-size="14.00">(...)</text>
</g>
<!-- 50&#45;&gt;51 -->
<g id="edge7" class="edge">
<title>50&#45;&gt;51</title>
<path fill="none" stroke="black" d="M244.69,-71.76C241.52,-63.04 238.24,-54.04 235.32,-45.99"/>
<polygon fill="black" stroke="black" points="238.54,-44.61 231.83,-36.41 231.96,-47 238.54,-44.61"/>
</g>
<!-- 52 -->
<g id="node9" class="node">
<title>52</title>
<polygon fill="#c0c0c0" stroke="black" points="324.5,-36 270.5,-36 270.5,0 324.5,0 324.5,-36"/>
<text text-anchor="middle" x="297.5" y="-14.3" font-family="Times,serif" font-size="14.00">(...)</text>
</g>
<!-- 50&#45;&gt;52 -->
<g id="edge8" class="edge">
<title>50&#45;&gt;52</title>
<path fill="none" stroke="black" d="M276.06,-71.76C279.64,-62.94 283.34,-53.84 286.64,-45.72"/>
<polygon fill="black" stroke="black" points="289.9,-46.99 290.43,-36.41 283.42,-44.35 289.9,-46.99"/>
</g>
<!-- 56 -->
<g id="node11" class="node">
<title>56</title>
<polygon fill="#ffffff" stroke="black" points="519,-155 352,-155 352,-72 519,-72 519,-155"/>
<text text-anchor="middle" x="435.5" y="-139.8" font-family="Times,serif" font-size="14.00">sdComp &lt;= 0.02</text>
<text text-anchor="middle" x="435.5" y="-124.8" font-family="Times,serif" font-size="14.00">gini = 0.5</text>
<text text-anchor="middle" x="435.5" y="-109.8" font-family="Times,serif" font-size="14.00">samples = 4082</text>
<text text-anchor="middle" x="435.5" y="-94.8" font-family="Times,serif" font-size="14.00">value = [2041, 2041]</text>
<text text-anchor="middle" x="435.5" y="-79.8" font-family="Times,serif" font-size="14.00">class = False</text>
</g>
<!-- 55&#45;&gt;56 -->
<g id="edge10" class="edge">
<title>55&#45;&gt;56</title>
<path fill="none" stroke="black" d="M498.85,-190.91C491.32,-181.83 483.27,-172.12 475.52,-162.77"/>
<polygon fill="black" stroke="black" points="478.17,-160.49 469.09,-155.02 472.78,-164.95 478.17,-160.49"/>
</g>
<!-- 73 -->
<g id="node14" class="node">
<title>73</title>
<polygon fill="#fdfeff" stroke="black" points="704,-155 537,-155 537,-72 704,-72 704,-155"/>
<text text-anchor="middle" x="620.5" y="-139.8" font-family="Times,serif" font-size="14.00">sdComm &lt;= 0.2</text>
<text text-anchor="middle" x="620.5" y="-124.8" font-family="Times,serif" font-size="14.00">gini = 0.5</text>
<text text-anchor="middle" x="620.5" y="-109.8" font-family="Times,serif" font-size="14.00">samples = 4979</text>
<text text-anchor="middle" x="620.5" y="-94.8" font-family="Times,serif" font-size="14.00">value = [2478, 2501]</text>
<text text-anchor="middle" x="620.5" y="-79.8" font-family="Times,serif" font-size="14.00">class = True</text>
</g>
<!-- 55&#45;&gt;73 -->
<g id="edge13" class="edge">
<title>55&#45;&gt;73</title>
<path fill="none" stroke="black" d="M563.03,-190.91C569.79,-181.92 577.02,-172.32 583.98,-163.05"/>
<polygon fill="black" stroke="black" points="586.81,-165.12 590.02,-155.02 581.21,-160.91 586.81,-165.12"/>
</g>
<!-- 57 -->
<g id="node12" class="node">
<title>57</title>
<polygon fill="#c0c0c0" stroke="black" points="438.5,-36 384.5,-36 384.5,0 438.5,0 438.5,-36"/>
<text text-anchor="middle" x="411.5" y="-14.3" font-family="Times,serif" font-size="14.00">(...)</text>
</g>
<!-- 56&#45;&gt;57 -->
<g id="edge11" class="edge">
<title>56&#45;&gt;57</title>
<path fill="none" stroke="black" d="M425.04,-71.76C422.83,-63.14 420.55,-54.24 418.5,-46.26"/>
<polygon fill="black" stroke="black" points="421.84,-45.22 415.97,-36.41 415.06,-46.96 421.84,-45.22"/>
</g>
<!-- 62 -->
<g id="node13" class="node">
<title>62</title>
<polygon fill="#c0c0c0" stroke="black" points="510.5,-36 456.5,-36 456.5,0 510.5,0 510.5,-36"/>
<text text-anchor="middle" x="483.5" y="-14.3" font-family="Times,serif" font-size="14.00">(...)</text>
</g>
<!-- 56&#45;&gt;62 -->
<g id="edge12" class="edge">
<title>56&#45;&gt;62</title>
<path fill="none" stroke="black" d="M456.41,-71.76C460.99,-62.85 465.72,-53.64 469.92,-45.46"/>
<polygon fill="black" stroke="black" points="473.11,-46.9 474.56,-36.41 466.88,-43.7 473.11,-46.9"/>
</g>
<!-- 74 -->
<g id="node15" class="node">
<title>74</title>
<polygon fill="#c0c0c0" stroke="black" points="599.5,-36 545.5,-36 545.5,0 599.5,0 599.5,-36"/>
<text text-anchor="middle" x="572.5" y="-14.3" font-family="Times,serif" font-size="14.00">(...)</text>
</g>
<!-- 73&#45;&gt;74 -->
<g id="edge14" class="edge">
<title>73&#45;&gt;74</title>
<path fill="none" stroke="black" d="M599.59,-71.76C595.01,-62.85 590.28,-53.64 586.08,-45.46"/>
<polygon fill="black" stroke="black" points="589.12,-43.7 581.44,-36.41 582.89,-46.9 589.12,-43.7"/>
</g>
<!-- 79 -->
<g id="node16" class="node">
<title>79</title>
<polygon fill="#c0c0c0" stroke="black" points="671.5,-36 617.5,-36 617.5,0 671.5,0 671.5,-36"/>
<text text-anchor="middle" x="644.5" y="-14.3" font-family="Times,serif" font-size="14.00">(...)</text>
</g>
<!-- 73&#45;&gt;79 -->
<g id="edge15" class="edge">
<title>73&#45;&gt;79</title>
<path fill="none" stroke="black" d="M630.96,-71.76C633.17,-63.14 635.45,-54.24 637.5,-46.26"/>
<polygon fill="black" stroke="black" points="640.94,-46.96 640.03,-36.41 634.16,-45.22 640.94,-46.96"/>
</g>
<!-- 109 -->
<g id="node18" class="node">
<title>109</title>
<polygon fill="#ffffff" stroke="black" points="1008,-274 823,-274 823,-191 1008,-191 1008,-274"/>
<text text-anchor="middle" x="915.5" y="-258.8" font-family="Times,serif" font-size="14.00">nbproc &lt;= 4.5</text>
<text text-anchor="middle" x="915.5" y="-243.8" font-family="Times,serif" font-size="14.00">gini = 0.5</text>
<text text-anchor="middle" x="915.5" y="-228.8" font-family="Times,serif" font-size="14.00">samples = 75972</text>
<text text-anchor="middle" x="915.5" y="-213.8" font-family="Times,serif" font-size="14.00">value = [37986, 37986]</text>
<text text-anchor="middle" x="915.5" y="-198.8" font-family="Times,serif" font-size="14.00">class = False</text>
</g>
<!-- 108&#45;&gt;109 -->
<g id="edge17" class="edge">
<title>108&#45;&gt;109</title>
<path fill="none" stroke="black" d="M915.5,-309.91C915.5,-301.65 915.5,-292.86 915.5,-284.3"/>
<polygon fill="black" stroke="black" points="919,-284.02 915.5,-274.02 912,-284.02 919,-284.02"/>
</g>
<!-- 780 -->
<g id="node25" class="node">
<title>780</title>
<polygon fill="#fefeff" stroke="black" points="1295,-274 1128,-274 1128,-191 1295,-191 1295,-274"/>
<text text-anchor="middle" x="1211.5" y="-258.8" font-family="Times,serif" font-size="14.00">graphDepth &lt;= 9.0</text>
<text text-anchor="middle" x="1211.5" y="-243.8" font-family="Times,serif" font-size="14.00">gini = 0.5</text>
<text text-anchor="middle" x="1211.5" y="-228.8" font-family="Times,serif" font-size="14.00">samples = 13683</text>
<text text-anchor="middle" x="1211.5" y="-213.8" font-family="Times,serif" font-size="14.00">value = [6823, 6860]</text>
<text text-anchor="middle" x="1211.5" y="-198.8" font-family="Times,serif" font-size="14.00">class = True</text>
</g>
<!-- 108&#45;&gt;780 -->
<g id="edge24" class="edge">
<title>108&#45;&gt;780</title>
<path fill="none" stroke="black" d="M1008.34,-313.8C1043.21,-300.02 1082.85,-284.35 1117.8,-270.54"/>
<polygon fill="black" stroke="black" points="1119.51,-273.63 1127.52,-266.69 1116.93,-267.12 1119.51,-273.63"/>
</g>
<!-- 110 -->
<g id="node19" class="node">
<title>110</title>
<polygon fill="#ffffff" stroke="black" points="907,-155 722,-155 722,-72 907,-72 907,-155"/>
<text text-anchor="middle" x="814.5" y="-139.8" font-family="Times,serif" font-size="14.00">sdComp &lt;= 0.02</text>
<text text-anchor="middle" x="814.5" y="-124.8" font-family="Times,serif" font-size="14.00">gini = 0.5</text>
<text text-anchor="middle" x="814.5" y="-109.8" font-family="Times,serif" font-size="14.00">samples = 33102</text>
<text text-anchor="middle" x="814.5" y="-94.8" font-family="Times,serif" font-size="14.00">value = [16551, 16551]</text>
<text text-anchor="middle" x="814.5" y="-79.8" font-family="Times,serif" font-size="14.00">class = False</text>
</g>
<!-- 109&#45;&gt;110 -->
<g id="edge18" class="edge">
<title>109&#45;&gt;110</title>
<path fill="none" stroke="black" d="M880.46,-190.91C872.62,-181.83 864.24,-172.12 856.17,-162.77"/>
<polygon fill="black" stroke="black" points="858.66,-160.3 849.48,-155.02 853.36,-164.88 858.66,-160.3"/>
</g>
<!-- 445 -->
<g id="node22" class="node">
<title>445</title>
<polygon fill="#ffffff" stroke="black" points="1110,-155 925,-155 925,-72 1110,-72 1110,-155"/>
<text text-anchor="middle" x="1017.5" y="-139.8" font-family="Times,serif" font-size="14.00">graphDepth &lt;= 6.5</text>
<text text-anchor="middle" x="1017.5" y="-124.8" font-family="Times,serif" font-size="14.00">gini = 0.5</text>
<text text-anchor="middle" x="1017.5" y="-109.8" font-family="Times,serif" font-size="14.00">samples = 42870</text>
<text text-anchor="middle" x="1017.5" y="-94.8" font-family="Times,serif" font-size="14.00">value = [21435, 21435]</text>
<text text-anchor="middle" x="1017.5" y="-79.8" font-family="Times,serif" font-size="14.00">class = False</text>
</g>
<!-- 109&#45;&gt;445 -->
<g id="edge21" class="edge">
<title>109&#45;&gt;445</title>
<path fill="none" stroke="black" d="M950.89,-190.91C958.8,-181.83 967.27,-172.12 975.42,-162.77"/>
<polygon fill="black" stroke="black" points="978.24,-164.86 982.17,-155.02 972.96,-160.26 978.24,-164.86"/>
</g>
<!-- 111 -->
<g id="node20" class="node">
<title>111</title>
<polygon fill="#c0c0c0" stroke="black" points="798.5,-36 744.5,-36 744.5,0 798.5,0 798.5,-36"/>
<text text-anchor="middle" x="771.5" y="-14.3" font-family="Times,serif" font-size="14.00">(...)</text>
</g>
<!-- 110&#45;&gt;111 -->
<g id="edge19" class="edge">
<title>110&#45;&gt;111</title>
<path fill="none" stroke="black" d="M795.76,-71.76C791.71,-62.94 787.52,-53.84 783.79,-45.72"/>
<polygon fill="black" stroke="black" points="786.86,-44.03 779.5,-36.41 780.5,-46.95 786.86,-44.03"/>
</g>
<!-- 152 -->
<g id="node21" class="node">
<title>152</title>
<polygon fill="#c0c0c0" stroke="black" points="870.5,-36 816.5,-36 816.5,0 870.5,0 870.5,-36"/>
<text text-anchor="middle" x="843.5" y="-14.3" font-family="Times,serif" font-size="14.00">(...)</text>
</g>
<!-- 110&#45;&gt;152 -->
<g id="edge20" class="edge">
<title>110&#45;&gt;152</title>
<path fill="none" stroke="black" d="M827.14,-71.76C829.84,-63.04 832.63,-54.04 835.13,-45.99"/>
<polygon fill="black" stroke="black" points="838.48,-46.99 838.1,-36.41 831.8,-44.92 838.48,-46.99"/>
</g>
<!-- 446 -->
<g id="node23" class="node">
<title>446</title>
<polygon fill="#c0c0c0" stroke="black" points="997.5,-36 943.5,-36 943.5,0 997.5,0 997.5,-36"/>
<text text-anchor="middle" x="970.5" y="-14.3" font-family="Times,serif" font-size="14.00">(...)</text>
</g>
<!-- 445&#45;&gt;446 -->
<g id="edge22" class="edge">
<title>445&#45;&gt;446</title>
<path fill="none" stroke="black" d="M997.02,-71.76C992.54,-62.85 987.91,-53.64 983.8,-45.46"/>
<polygon fill="black" stroke="black" points="986.87,-43.77 979.25,-36.41 980.61,-46.91 986.87,-43.77"/>
</g>
<!-- 541 -->
<g id="node24" class="node">
<title>541</title>
<polygon fill="#c0c0c0" stroke="black" points="1069.5,-36 1015.5,-36 1015.5,0 1069.5,0 1069.5,-36"/>
<text text-anchor="middle" x="1042.5" y="-14.3" font-family="Times,serif" font-size="14.00">(...)</text>
</g>
<!-- 445&#45;&gt;541 -->
<g id="edge23" class="edge">
<title>445&#45;&gt;541</title>
<path fill="none" stroke="black" d="M1028.39,-71.76C1030.7,-63.14 1033.08,-54.24 1035.21,-46.26"/>
<polygon fill="black" stroke="black" points="1038.64,-46.97 1037.85,-36.41 1031.88,-45.16 1038.64,-46.97"/>
</g>
<!-- 781 -->
<g id="node26" class="node">
<title>781</title>
<polygon fill="#fcfeff" stroke="black" points="1295,-155 1128,-155 1128,-72 1295,-72 1295,-155"/>
<text text-anchor="middle" x="1211.5" y="-139.8" font-family="Times,serif" font-size="14.00">graphSize &lt;= 22.5</text>
<text text-anchor="middle" x="1211.5" y="-124.8" font-family="Times,serif" font-size="14.00">gini = 0.5</text>
<text text-anchor="middle" x="1211.5" y="-109.8" font-family="Times,serif" font-size="14.00">samples = 5537</text>
<text text-anchor="middle" x="1211.5" y="-94.8" font-family="Times,serif" font-size="14.00">value = [2750, 2787]</text>
<text text-anchor="middle" x="1211.5" y="-79.8" font-family="Times,serif" font-size="14.00">class = True</text>
</g>
<!-- 780&#45;&gt;781 -->
<g id="edge25" class="edge">
<title>780&#45;&gt;781</title>
<path fill="none" stroke="black" d="M1211.5,-190.91C1211.5,-182.65 1211.5,-173.86 1211.5,-165.3"/>
<polygon fill="black" stroke="black" points="1215,-165.02 1211.5,-155.02 1208,-165.02 1215,-165.02"/>
</g>
<!-- 816 -->
<g id="node29" class="node">
<title>816</title>
<polygon fill="#ffffff" stroke="black" points="1480,-155 1313,-155 1313,-72 1480,-72 1480,-155"/>
<text text-anchor="middle" x="1396.5" y="-139.8" font-family="Times,serif" font-size="14.00">graphSize &lt;= 40.0</text>
<text text-anchor="middle" x="1396.5" y="-124.8" font-family="Times,serif" font-size="14.00">gini = 0.5</text>
<text text-anchor="middle" x="1396.5" y="-109.8" font-family="Times,serif" font-size="14.00">samples = 8146</text>
<text text-anchor="middle" x="1396.5" y="-94.8" font-family="Times,serif" font-size="14.00">value = [4073, 4073]</text>
<text text-anchor="middle" x="1396.5" y="-79.8" font-family="Times,serif" font-size="14.00">class = False</text>
</g>
<!-- 780&#45;&gt;816 -->
<g id="edge28" class="edge">
<title>780&#45;&gt;816</title>
<path fill="none" stroke="black" d="M1275.68,-190.91C1291.18,-181.11 1307.85,-170.56 1323.71,-160.53"/>
<polygon fill="black" stroke="black" points="1325.85,-163.32 1332.43,-155.02 1322.11,-157.41 1325.85,-163.32"/>
</g>
<!-- 782 -->
<g id="node27" class="node">
<title>782</title>
<polygon fill="#c0c0c0" stroke="black" points="1202.5,-36 1148.5,-36 1148.5,0 1202.5,0 1202.5,-36"/>
<text text-anchor="middle" x="1175.5" y="-14.3" font-family="Times,serif" font-size="14.00">(...)</text>
</g>
<!-- 781&#45;&gt;782 -->
<g id="edge26" class="edge">
<title>781&#45;&gt;782</title>
<path fill="none" stroke="black" d="M1195.81,-71.76C1192.46,-63.04 1188.99,-54.04 1185.89,-45.99"/>
<polygon fill="black" stroke="black" points="1189.06,-44.48 1182.2,-36.41 1182.53,-46.99 1189.06,-44.48"/>
</g>
<!-- 793 -->
<g id="node28" class="node">
<title>793</title>
<polygon fill="#c0c0c0" stroke="black" points="1274.5,-36 1220.5,-36 1220.5,0 1274.5,0 1274.5,-36"/>
<text text-anchor="middle" x="1247.5" y="-14.3" font-family="Times,serif" font-size="14.00">(...)</text>
</g>
<!-- 781&#45;&gt;793 -->
<g id="edge27" class="edge">
<title>781&#45;&gt;793</title>
<path fill="none" stroke="black" d="M1227.19,-71.76C1230.54,-63.04 1234.01,-54.04 1237.11,-45.99"/>
<polygon fill="black" stroke="black" points="1240.47,-46.99 1240.8,-36.41 1233.94,-44.48 1240.47,-46.99"/>
</g>
<!-- 817 -->
<g id="node30" class="node">
<title>817</title>
<polygon fill="#c0c0c0" stroke="black" points="1387.5,-36 1333.5,-36 1333.5,0 1387.5,0 1387.5,-36"/>
<text text-anchor="middle" x="1360.5" y="-14.3" font-family="Times,serif" font-size="14.00">(...)</text>
</g>
<!-- 816&#45;&gt;817 -->
<g id="edge29" class="edge">
<title>816&#45;&gt;817</title>
<path fill="none" stroke="black" d="M1380.81,-71.76C1377.46,-63.04 1373.99,-54.04 1370.89,-45.99"/>
<polygon fill="black" stroke="black" points="1374.06,-44.48 1367.2,-36.41 1367.53,-46.99 1374.06,-44.48"/>
</g>
<!-- 828 -->
<g id="node31" class="node">
<title>828</title>
<polygon fill="#c0c0c0" stroke="black" points="1459.5,-36 1405.5,-36 1405.5,0 1459.5,0 1459.5,-36"/>
<text text-anchor="middle" x="1432.5" y="-14.3" font-family="Times,serif" font-size="14.00">(...)</text>
</g>
<!-- 816&#45;&gt;828 -->
<g id="edge30" class="edge">
<title>816&#45;&gt;828</title>
<path fill="none" stroke="black" d="M1412.19,-71.76C1415.54,-63.04 1419.01,-54.04 1422.11,-45.99"/>
<polygon fill="black" stroke="black" points="1425.47,-46.99 1425.8,-36.41 1418.94,-44.48 1425.47,-46.99"/>
</g>
</g>
</svg>
