<?xml version="1.0" encoding="UTF-8" standalone="no"?>
<!DOCTYPE svg PUBLIC "-//W3C//DTD SVG 1.1//EN"
 "http://www.w3.org/Graphics/SVG/1.1/DTD/svg11.dtd">
<!-- Generated by graphviz version 2.43.0 (0)
 -->
<!-- Title: Tree Pages: 1 -->
<svg width="2714pt" height="520pt"
 viewBox="0.00 0.00 2713.50 520.00" xmlns="http://www.w3.org/2000/svg" xmlns:xlink="http://www.w3.org/1999/xlink">
<g id="graph0" class="graph" transform="scale(1 1) rotate(0) translate(4 516)">
<title>Tree</title>
<polygon fill="white" stroke="transparent" points="-4,4 -4,-516 2709.5,-516 2709.5,4 -4,4"/>
<!-- 0 -->
<g id="node1" class="node">
<title>0</title>
<polygon fill="#fef9f6" stroke="black" points="1556,-512 1155,-512 1155,-429 1556,-429 1556,-512"/>
<text text-anchor="middle" x="1355.5" y="-496.8" font-family="Times,serif" font-size="14.00">graphSize &lt;= 40.0</text>
<text text-anchor="middle" x="1355.5" y="-481.8" font-family="Times,serif" font-size="14.00">gini = 0.832</text>
<text text-anchor="middle" x="1355.5" y="-466.8" font-family="Times,serif" font-size="14.00">samples = 104915</text>
<text text-anchor="middle" x="1355.5" y="-451.8" font-family="Times,serif" font-size="14.00">value = [21209, 16684, 17047, 16464, 16464, 17047]</text>
<text text-anchor="middle" x="1355.5" y="-436.8" font-family="Times,serif" font-size="14.00">class = mean</text>
</g>
<!-- 1 -->
<g id="node2" class="node">
<title>1</title>
<polygon fill="#fefbf9" stroke="black" points="1232,-393 831,-393 831,-310 1232,-310 1232,-393"/>
<text text-anchor="middle" x="1031.5" y="-377.8" font-family="Times,serif" font-size="14.00">graphSize &lt;= 22.5</text>
<text text-anchor="middle" x="1031.5" y="-362.8" font-family="Times,serif" font-size="14.00">gini = 0.833</text>
<text text-anchor="middle" x="1031.5" y="-347.8" font-family="Times,serif" font-size="14.00">samples = 75578</text>
<text text-anchor="middle" x="1031.5" y="-332.8" font-family="Times,serif" font-size="14.00">value = [14506, 12078, 12531, 11966, 11966, 12531]</text>
<text text-anchor="middle" x="1031.5" y="-317.8" font-family="Times,serif" font-size="14.00">class = mean</text>
</g>
<!-- 0&#45;&gt;1 -->
<g id="edge1" class="edge">
<title>0&#45;&gt;1</title>
<path fill="none" stroke="black" d="M1243.09,-428.91C1214.06,-418.43 1182.69,-407.1 1153.21,-396.45"/>
<polygon fill="black" stroke="black" points="1154.31,-393.13 1143.71,-393.02 1151.93,-399.71 1154.31,-393.13"/>
<text text-anchor="middle" x="1154.33" y="-411.95" font-family="Times,serif" font-size="14.00">True</text>
</g>
<!-- 432 -->
<g id="node17" class="node">
<title>432</title>
<polygon fill="#fdf4ee" stroke="black" points="1884,-393 1537,-393 1537,-310 1884,-310 1884,-393"/>
<text text-anchor="middle" x="1710.5" y="-377.8" font-family="Times,serif" font-size="14.00">sdComm &lt;= 0.2</text>
<text text-anchor="middle" x="1710.5" y="-362.8" font-family="Times,serif" font-size="14.00">gini = 0.829</text>
<text text-anchor="middle" x="1710.5" y="-347.8" font-family="Times,serif" font-size="14.00">samples = 29337</text>
<text text-anchor="middle" x="1710.5" y="-332.8" font-family="Times,serif" font-size="14.00">value = [6703, 4606, 4516, 4498, 4498, 4516]</text>
<text text-anchor="middle" x="1710.5" y="-317.8" font-family="Times,serif" font-size="14.00">class = mean</text>
</g>
<!-- 0&#45;&gt;432 -->
<g id="edge16" class="edge">
<title>0&#45;&gt;432</title>
<path fill="none" stroke="black" d="M1478.67,-428.91C1510.74,-418.33 1545.44,-406.9 1577.98,-396.17"/>
<polygon fill="black" stroke="black" points="1579.15,-399.48 1587.55,-393.02 1576.96,-392.83 1579.15,-399.48"/>
<text text-anchor="middle" x="1576.3" y="-411.64" font-family="Times,serif" font-size="14.00">False</text>
</g>
<!-- 2 -->
<g id="node3" class="node">
<title>2</title>
<polygon fill="#fefcfa" stroke="black" points="712,-274 365,-274 365,-191 712,-191 712,-274"/>
<text text-anchor="middle" x="538.5" y="-258.8" font-family="Times,serif" font-size="14.00">sdComm &lt;= 0.065</text>
<text text-anchor="middle" x="538.5" y="-243.8" font-family="Times,serif" font-size="14.00">gini = 0.833</text>
<text text-anchor="middle" x="538.5" y="-228.8" font-family="Times,serif" font-size="14.00">samples = 52284</text>
<text text-anchor="middle" x="538.5" y="-213.8" font-family="Times,serif" font-size="14.00">value = [9748, 8410, 8603, 8460, 8460, 8603]</text>
<text text-anchor="middle" x="538.5" y="-198.8" font-family="Times,serif" font-size="14.00">class = mean</text>
</g>
<!-- 1&#45;&gt;2 -->
<g id="edge2" class="edge">
<title>1&#45;&gt;2</title>
<path fill="none" stroke="black" d="M860.8,-309.99C815.09,-299.14 765.52,-287.38 719.28,-276.4"/>
<polygon fill="black" stroke="black" points="720.01,-272.98 709.47,-274.07 718.39,-279.79 720.01,-272.98"/>
</g>
<!-- 217 -->
<g id="node10" class="node">
<title>217</title>
<polygon fill="#fefaf7" stroke="black" points="1205,-274 858,-274 858,-191 1205,-191 1205,-274"/>
<text text-anchor="middle" x="1031.5" y="-258.8" font-family="Times,serif" font-size="14.00">sdComm &lt;= 0.02</text>
<text text-anchor="middle" x="1031.5" y="-243.8" font-family="Times,serif" font-size="14.00">gini = 0.831</text>
<text text-anchor="middle" x="1031.5" y="-228.8" font-family="Times,serif" font-size="14.00">samples = 23294</text>
<text text-anchor="middle" x="1031.5" y="-213.8" font-family="Times,serif" font-size="14.00">value = [4758, 3668, 3928, 3506, 3506, 3928]</text>
<text text-anchor="middle" x="1031.5" y="-198.8" font-family="Times,serif" font-size="14.00">class = mean</text>
</g>
<!-- 1&#45;&gt;217 -->
<g id="edge9" class="edge">
<title>1&#45;&gt;217</title>
<path fill="none" stroke="black" d="M1031.5,-309.91C1031.5,-301.65 1031.5,-292.86 1031.5,-284.3"/>
<polygon fill="black" stroke="black" points="1035,-284.02 1031.5,-274.02 1028,-284.02 1035,-284.02"/>
</g>
<!-- 3 -->
<g id="node4" class="node">
<title>3</title>
<polygon fill="#fffefd" stroke="black" points="347,-155 0,-155 0,-72 347,-72 347,-155"/>
<text text-anchor="middle" x="173.5" y="-139.8" font-family="Times,serif" font-size="14.00">graphDepth &lt;= 3.5</text>
<text text-anchor="middle" x="173.5" y="-124.8" font-family="Times,serif" font-size="14.00">gini = 0.833</text>
<text text-anchor="middle" x="173.5" y="-109.8" font-family="Times,serif" font-size="14.00">samples = 16646</text>
<text text-anchor="middle" x="173.5" y="-94.8" font-family="Times,serif" font-size="14.00">value = [2980, 2522, 2824, 2748, 2748, 2824]</text>
<text text-anchor="middle" x="173.5" y="-79.8" font-family="Times,serif" font-size="14.00">class = mean</text>
</g>
<!-- 2&#45;&gt;3 -->
<g id="edge3" class="edge">
<title>2&#45;&gt;3</title>
<path fill="none" stroke="black" d="M412.12,-190.99C379.13,-180.41 343.42,-168.97 309.93,-158.23"/>
<polygon fill="black" stroke="black" points="310.67,-154.79 300.08,-155.07 308.53,-161.46 310.67,-154.79"/>
</g>
<!-- 50 -->
<g id="node7" class="node">
<title>50</title>
<polygon fill="#fefbf9" stroke="black" points="712,-155 365,-155 365,-72 712,-72 712,-155"/>
<text text-anchor="middle" x="538.5" y="-139.8" font-family="Times,serif" font-size="14.00">sdComp &lt;= 6.5</text>
<text text-anchor="middle" x="538.5" y="-124.8" font-family="Times,serif" font-size="14.00">gini = 0.833</text>
<text text-anchor="middle" x="538.5" y="-109.8" font-family="Times,serif" font-size="14.00">samples = 35638</text>
<text text-anchor="middle" x="538.5" y="-94.8" font-family="Times,serif" font-size="14.00">value = [6768, 5888, 5779, 5712, 5712, 5779]</text>
<text text-anchor="middle" x="538.5" y="-79.8" font-family="Times,serif" font-size="14.00">class = mean</text>
</g>
<!-- 2&#45;&gt;50 -->
<g id="edge6" class="edge">
<title>2&#45;&gt;50</title>
<path fill="none" stroke="black" d="M538.5,-190.91C538.5,-182.65 538.5,-173.86 538.5,-165.3"/>
<polygon fill="black" stroke="black" points="542,-165.02 538.5,-155.02 535,-165.02 542,-165.02"/>
</g>
<!-- 4 -->
<g id="node5" class="node">
<title>4</title>
<polygon fill="#c0c0c0" stroke="black" points="164.5,-36 110.5,-36 110.5,0 164.5,0 164.5,-36"/>
<text text-anchor="middle" x="137.5" y="-14.3" font-family="Times,serif" font-size="14.00">(...)</text>
</g>
<!-- 3&#45;&gt;4 -->
<g id="edge4" class="edge">
<title>3&#45;&gt;4</title>
<path fill="none" stroke="black" d="M157.81,-71.76C154.46,-63.04 150.99,-54.04 147.89,-45.99"/>
<polygon fill="black" stroke="black" points="151.06,-44.48 144.2,-36.41 144.53,-46.99 151.06,-44.48"/>
</g>
<!-- 27 -->
<g id="node6" class="node">
<title>27</title>
<polygon fill="#c0c0c0" stroke="black" points="236.5,-36 182.5,-36 182.5,0 236.5,0 236.5,-36"/>
<text text-anchor="middle" x="209.5" y="-14.3" font-family="Times,serif" font-size="14.00">(...)</text>
</g>
<!-- 3&#45;&gt;27 -->
<g id="edge5" class="edge">
<title>3&#45;&gt;27</title>
<path fill="none" stroke="black" d="M189.19,-71.76C192.54,-63.04 196.01,-54.04 199.11,-45.99"/>
<polygon fill="black" stroke="black" points="202.47,-46.99 202.8,-36.41 195.94,-44.48 202.47,-46.99"/>
</g>
<!-- 51 -->
<g id="node8" class="node">
<title>51</title>
<polygon fill="#c0c0c0" stroke="black" points="529.5,-36 475.5,-36 475.5,0 529.5,0 529.5,-36"/>
<text text-anchor="middle" x="502.5" y="-14.3" font-family="Times,serif" font-size="14.00">(...)</text>
</g>
<!-- 50&#45;&gt;51 -->
<g id="edge7" class="edge">
<title>50&#45;&gt;51</title>
<path fill="none" stroke="black" d="M522.81,-71.76C519.46,-63.04 515.99,-54.04 512.89,-45.99"/>
<polygon fill="black" stroke="black" points="516.06,-44.48 509.2,-36.41 509.53,-46.99 516.06,-44.48"/>
</g>
<!-- 194 -->
<g id="node9" class="node">
<title>194</title>
<polygon fill="#c0c0c0" stroke="black" points="601.5,-36 547.5,-36 547.5,0 601.5,0 601.5,-36"/>
<text text-anchor="middle" x="574.5" y="-14.3" font-family="Times,serif" font-size="14.00">(...)</text>
</g>
<!-- 50&#45;&gt;194 -->
<g id="edge8" class="edge">
<title>50&#45;&gt;194</title>
<path fill="none" stroke="black" d="M554.19,-71.76C557.54,-63.04 561.01,-54.04 564.11,-45.99"/>
<polygon fill="black" stroke="black" points="567.47,-46.99 567.8,-36.41 560.94,-44.48 567.47,-46.99"/>
</g>
<!-- 218 -->
<g id="node11" class="node">
<title>218</title>
<polygon fill="#fdf7f3" stroke="black" points="1023,-155 730,-155 730,-72 1023,-72 1023,-155"/>
<text text-anchor="middle" x="876.5" y="-139.8" font-family="Times,serif" font-size="14.00">nbproc &lt;= 4.5</text>
<text text-anchor="middle" x="876.5" y="-124.8" font-family="Times,serif" font-size="14.00">gini = 0.824</text>
<text text-anchor="middle" x="876.5" y="-109.8" font-family="Times,serif" font-size="14.00">samples = 2668</text>
<text text-anchor="middle" x="876.5" y="-94.8" font-family="Times,serif" font-size="14.00">value = [622, 490, 460, 318, 318, 460]</text>
<text text-anchor="middle" x="876.5" y="-79.8" font-family="Times,serif" font-size="14.00">class = mean</text>
</g>
<!-- 217&#45;&gt;218 -->
<g id="edge10" class="edge">
<title>217&#45;&gt;218</title>
<path fill="none" stroke="black" d="M977.72,-190.91C964.98,-181.29 951.29,-170.95 938.22,-161.09"/>
<polygon fill="black" stroke="black" points="940.27,-158.25 930.18,-155.02 936.05,-163.84 940.27,-158.25"/>
</g>
<!-- 241 -->
<g id="node14" class="node">
<title>241</title>
<polygon fill="#fefaf7" stroke="black" points="1388,-155 1041,-155 1041,-72 1388,-72 1388,-155"/>
<text text-anchor="middle" x="1214.5" y="-139.8" font-family="Times,serif" font-size="14.00">sdComm &lt;= 0.65</text>
<text text-anchor="middle" x="1214.5" y="-124.8" font-family="Times,serif" font-size="14.00">gini = 0.832</text>
<text text-anchor="middle" x="1214.5" y="-109.8" font-family="Times,serif" font-size="14.00">samples = 20626</text>
<text text-anchor="middle" x="1214.5" y="-94.8" font-family="Times,serif" font-size="14.00">value = [4136, 3178, 3468, 3188, 3188, 3468]</text>
<text text-anchor="middle" x="1214.5" y="-79.8" font-family="Times,serif" font-size="14.00">class = mean</text>
</g>
<!-- 217&#45;&gt;241 -->
<g id="edge13" class="edge">
<title>217&#45;&gt;241</title>
<path fill="none" stroke="black" d="M1094.99,-190.91C1110.32,-181.11 1126.81,-170.56 1142.5,-160.53"/>
<polygon fill="black" stroke="black" points="1144.58,-163.36 1151.12,-155.02 1140.81,-157.46 1144.58,-163.36"/>
</g>
<!-- 219 -->
<g id="node12" class="node">
<title>219</title>
<polygon fill="#c0c0c0" stroke="black" points="867.5,-36 813.5,-36 813.5,0 867.5,0 867.5,-36"/>
<text text-anchor="middle" x="840.5" y="-14.3" font-family="Times,serif" font-size="14.00">(...)</text>
</g>
<!-- 218&#45;&gt;219 -->
<g id="edge11" class="edge">
<title>218&#45;&gt;219</title>
<path fill="none" stroke="black" d="M860.81,-71.76C857.46,-63.04 853.99,-54.04 850.89,-45.99"/>
<polygon fill="black" stroke="black" points="854.06,-44.48 847.2,-36.41 847.53,-46.99 854.06,-44.48"/>
</g>
<!-- 230 -->
<g id="node13" class="node">
<title>230</title>
<polygon fill="#c0c0c0" stroke="black" points="939.5,-36 885.5,-36 885.5,0 939.5,0 939.5,-36"/>
<text text-anchor="middle" x="912.5" y="-14.3" font-family="Times,serif" font-size="14.00">(...)</text>
</g>
<!-- 218&#45;&gt;230 -->
<g id="edge12" class="edge">
<title>218&#45;&gt;230</title>
<path fill="none" stroke="black" d="M892.19,-71.76C895.54,-63.04 899.01,-54.04 902.11,-45.99"/>
<polygon fill="black" stroke="black" points="905.47,-46.99 905.8,-36.41 898.94,-44.48 905.47,-46.99"/>
</g>
<!-- 242 -->
<g id="node15" class="node">
<title>242</title>
<polygon fill="#c0c0c0" stroke="black" points="1205.5,-36 1151.5,-36 1151.5,0 1205.5,0 1205.5,-36"/>
<text text-anchor="middle" x="1178.5" y="-14.3" font-family="Times,serif" font-size="14.00">(...)</text>
</g>
<!-- 241&#45;&gt;242 -->
<g id="edge14" class="edge">
<title>241&#45;&gt;242</title>
<path fill="none" stroke="black" d="M1198.81,-71.76C1195.46,-63.04 1191.99,-54.04 1188.89,-45.99"/>
<polygon fill="black" stroke="black" points="1192.06,-44.48 1185.2,-36.41 1185.53,-46.99 1192.06,-44.48"/>
</g>
<!-- 337 -->
<g id="node16" class="node">
<title>337</title>
<polygon fill="#c0c0c0" stroke="black" points="1277.5,-36 1223.5,-36 1223.5,0 1277.5,0 1277.5,-36"/>
<text text-anchor="middle" x="1250.5" y="-14.3" font-family="Times,serif" font-size="14.00">(...)</text>
</g>
<!-- 241&#45;&gt;337 -->
<g id="edge15" class="edge">
<title>241&#45;&gt;337</title>
<path fill="none" stroke="black" d="M1230.19,-71.76C1233.54,-63.04 1237.01,-54.04 1240.11,-45.99"/>
<polygon fill="black" stroke="black" points="1243.47,-46.99 1243.8,-36.41 1236.94,-44.48 1243.47,-46.99"/>
</g>
<!-- 433 -->
<g id="node18" class="node">
<title>433</title>
<polygon fill="#fcefe6" stroke="black" points="1861.5,-274 1559.5,-274 1559.5,-191 1861.5,-191 1861.5,-274"/>
<text text-anchor="middle" x="1710.5" y="-258.8" font-family="Times,serif" font-size="14.00">sdComp &lt;= 0.02</text>
<text text-anchor="middle" x="1710.5" y="-243.8" font-family="Times,serif" font-size="14.00">gini = 0.821</text>
<text text-anchor="middle" x="1710.5" y="-228.8" font-family="Times,serif" font-size="14.00">samples = 5554</text>
<text text-anchor="middle" x="1710.5" y="-213.8" font-family="Times,serif" font-size="14.00">value = [1468, 750, 788, 880, 880, 788]</text>
<text text-anchor="middle" x="1710.5" y="-198.8" font-family="Times,serif" font-size="14.00">class = mean</text>
</g>
<!-- 432&#45;&gt;433 -->
<g id="edge17" class="edge">
<title>432&#45;&gt;433</title>
<path fill="none" stroke="black" d="M1710.5,-309.91C1710.5,-301.65 1710.5,-292.86 1710.5,-284.3"/>
<polygon fill="black" stroke="black" points="1714,-284.02 1710.5,-274.02 1707,-284.02 1714,-284.02"/>
</g>
<!-- 624 -->
<g id="node25" class="node">
<title>624</title>
<polygon fill="#fdf6f1" stroke="black" points="2385,-274 2038,-274 2038,-191 2385,-191 2385,-274"/>
<text text-anchor="middle" x="2211.5" y="-258.8" font-family="Times,serif" font-size="14.00">sdComp &lt;= 6.5</text>
<text text-anchor="middle" x="2211.5" y="-243.8" font-family="Times,serif" font-size="14.00">gini = 0.83</text>
<text text-anchor="middle" x="2211.5" y="-228.8" font-family="Times,serif" font-size="14.00">samples = 23783</text>
<text text-anchor="middle" x="2211.5" y="-213.8" font-family="Times,serif" font-size="14.00">value = [5235, 3856, 3728, 3618, 3618, 3728]</text>
<text text-anchor="middle" x="2211.5" y="-198.8" font-family="Times,serif" font-size="14.00">class = mean</text>
</g>
<!-- 432&#45;&gt;624 -->
<g id="edge24" class="edge">
<title>432&#45;&gt;624</title>
<path fill="none" stroke="black" d="M1883.97,-309.99C1930.42,-299.14 1980.8,-287.38 2027.78,-276.4"/>
<polygon fill="black" stroke="black" points="2028.82,-279.76 2037.76,-274.07 2027.22,-272.94 2028.82,-279.76"/>
</g>
<!-- 434 -->
<g id="node19" class="node">
<title>434</title>
<polygon fill="#fdf7f2" stroke="black" points="1699,-155 1406,-155 1406,-72 1699,-72 1699,-155"/>
<text text-anchor="middle" x="1552.5" y="-139.8" font-family="Times,serif" font-size="14.00">graphDepth &lt;= 25.5</text>
<text text-anchor="middle" x="1552.5" y="-124.8" font-family="Times,serif" font-size="14.00">gini = 0.83</text>
<text text-anchor="middle" x="1552.5" y="-109.8" font-family="Times,serif" font-size="14.00">samples = 1416</text>
<text text-anchor="middle" x="1552.5" y="-94.8" font-family="Times,serif" font-size="14.00">value = [306, 190, 230, 230, 230, 230]</text>
<text text-anchor="middle" x="1552.5" y="-79.8" font-family="Times,serif" font-size="14.00">class = mean</text>
</g>
<!-- 433&#45;&gt;434 -->
<g id="edge18" class="edge">
<title>433&#45;&gt;434</title>
<path fill="none" stroke="black" d="M1655.68,-190.91C1642.69,-181.29 1628.74,-170.95 1615.42,-161.09"/>
<polygon fill="black" stroke="black" points="1617.34,-158.16 1607.22,-155.02 1613.17,-163.78 1617.34,-158.16"/>
</g>
<!-- 481 -->
<g id="node22" class="node">
<title>481</title>
<polygon fill="#fbede2" stroke="black" points="2019.5,-155 1717.5,-155 1717.5,-72 2019.5,-72 2019.5,-155"/>
<text text-anchor="middle" x="1868.5" y="-139.8" font-family="Times,serif" font-size="14.00">nbproc &lt;= 4.5</text>
<text text-anchor="middle" x="1868.5" y="-124.8" font-family="Times,serif" font-size="14.00">gini = 0.817</text>
<text text-anchor="middle" x="1868.5" y="-109.8" font-family="Times,serif" font-size="14.00">samples = 4138</text>
<text text-anchor="middle" x="1868.5" y="-94.8" font-family="Times,serif" font-size="14.00">value = [1162, 560, 558, 650, 650, 558]</text>
<text text-anchor="middle" x="1868.5" y="-79.8" font-family="Times,serif" font-size="14.00">class = mean</text>
</g>
<!-- 433&#45;&gt;481 -->
<g id="edge21" class="edge">
<title>433&#45;&gt;481</title>
<path fill="none" stroke="black" d="M1765.32,-190.91C1778.31,-181.29 1792.26,-170.95 1805.58,-161.09"/>
<polygon fill="black" stroke="black" points="1807.83,-163.78 1813.78,-155.02 1803.66,-158.16 1807.83,-163.78"/>
</g>
<!-- 435 -->
<g id="node20" class="node">
<title>435</title>
<polygon fill="#c0c0c0" stroke="black" points="1543.5,-36 1489.5,-36 1489.5,0 1543.5,0 1543.5,-36"/>
<text text-anchor="middle" x="1516.5" y="-14.3" font-family="Times,serif" font-size="14.00">(...)</text>
</g>
<!-- 434&#45;&gt;435 -->
<g id="edge19" class="edge">
<title>434&#45;&gt;435</title>
<path fill="none" stroke="black" d="M1536.81,-71.76C1533.46,-63.04 1529.99,-54.04 1526.89,-45.99"/>
<polygon fill="black" stroke="black" points="1530.06,-44.48 1523.2,-36.41 1523.53,-46.99 1530.06,-44.48"/>
</g>
<!-- 470 -->
<g id="node21" class="node">
<title>470</title>
<polygon fill="#c0c0c0" stroke="black" points="1615.5,-36 1561.5,-36 1561.5,0 1615.5,0 1615.5,-36"/>
<text text-anchor="middle" x="1588.5" y="-14.3" font-family="Times,serif" font-size="14.00">(...)</text>
</g>
<!-- 434&#45;&gt;470 -->
<g id="edge20" class="edge">
<title>434&#45;&gt;470</title>
<path fill="none" stroke="black" d="M1568.19,-71.76C1571.54,-63.04 1575.01,-54.04 1578.11,-45.99"/>
<polygon fill="black" stroke="black" points="1581.47,-46.99 1581.8,-36.41 1574.94,-44.48 1581.47,-46.99"/>
</g>
<!-- 482 -->
<g id="node23" class="node">
<title>482</title>
<polygon fill="#c0c0c0" stroke="black" points="1859.5,-36 1805.5,-36 1805.5,0 1859.5,0 1859.5,-36"/>
<text text-anchor="middle" x="1832.5" y="-14.3" font-family="Times,serif" font-size="14.00">(...)</text>
</g>
<!-- 481&#45;&gt;482 -->
<g id="edge22" class="edge">
<title>481&#45;&gt;482</title>
<path fill="none" stroke="black" d="M1852.81,-71.76C1849.46,-63.04 1845.99,-54.04 1842.89,-45.99"/>
<polygon fill="black" stroke="black" points="1846.06,-44.48 1839.2,-36.41 1839.53,-46.99 1846.06,-44.48"/>
</g>
<!-- 553 -->
<g id="node24" class="node">
<title>553</title>
<polygon fill="#c0c0c0" stroke="black" points="1931.5,-36 1877.5,-36 1877.5,0 1931.5,0 1931.5,-36"/>
<text text-anchor="middle" x="1904.5" y="-14.3" font-family="Times,serif" font-size="14.00">(...)</text>
</g>
<!-- 481&#45;&gt;553 -->
<g id="edge23" class="edge">
<title>481&#45;&gt;553</title>
<path fill="none" stroke="black" d="M1884.19,-71.76C1887.54,-63.04 1891.01,-54.04 1894.11,-45.99"/>
<polygon fill="black" stroke="black" points="1897.47,-46.99 1897.8,-36.41 1890.94,-44.48 1897.47,-46.99"/>
</g>
<!-- 625 -->
<g id="node26" class="node">
<title>625</title>
<polygon fill="#fef8f4" stroke="black" points="2385,-155 2038,-155 2038,-72 2385,-72 2385,-155"/>
<text text-anchor="middle" x="2211.5" y="-139.8" font-family="Times,serif" font-size="14.00">sdComm &lt;= 0.65</text>
<text text-anchor="middle" x="2211.5" y="-124.8" font-family="Times,serif" font-size="14.00">gini = 0.831</text>
<text text-anchor="middle" x="2211.5" y="-109.8" font-family="Times,serif" font-size="14.00">samples = 19076</text>
<text text-anchor="middle" x="2211.5" y="-94.8" font-family="Times,serif" font-size="14.00">value = [4028, 3120, 3026, 2938, 2938, 3026]</text>
<text text-anchor="middle" x="2211.5" y="-79.8" font-family="Times,serif" font-size="14.00">class = mean</text>
</g>
<!-- 624&#45;&gt;625 -->
<g id="edge25" class="edge">
<title>624&#45;&gt;625</title>
<path fill="none" stroke="black" d="M2211.5,-190.91C2211.5,-182.65 2211.5,-173.86 2211.5,-165.3"/>
<polygon fill="black" stroke="black" points="2215,-165.02 2211.5,-155.02 2208,-165.02 2215,-165.02"/>
</g>
<!-- 816 -->
<g id="node29" class="node">
<title>816</title>
<polygon fill="#fcf0e8" stroke="black" points="2705.5,-155 2403.5,-155 2403.5,-72 2705.5,-72 2705.5,-155"/>
<text text-anchor="middle" x="2554.5" y="-139.8" font-family="Times,serif" font-size="14.00">graphSize &lt;= 75.0</text>
<text text-anchor="middle" x="2554.5" y="-124.8" font-family="Times,serif" font-size="14.00">gini = 0.824</text>
<text text-anchor="middle" x="2554.5" y="-109.8" font-family="Times,serif" font-size="14.00">samples = 4707</text>
<text text-anchor="middle" x="2554.5" y="-94.8" font-family="Times,serif" font-size="14.00">value = [1207, 736, 702, 680, 680, 702]</text>
<text text-anchor="middle" x="2554.5" y="-79.8" font-family="Times,serif" font-size="14.00">class = mean</text>
</g>
<!-- 624&#45;&gt;816 -->
<g id="edge28" class="edge">
<title>624&#45;&gt;816</title>
<path fill="none" stroke="black" d="M2330.5,-190.91C2361.36,-180.38 2394.74,-169 2426.06,-158.31"/>
<polygon fill="black" stroke="black" points="2427.37,-161.56 2435.71,-155.02 2425.11,-154.94 2427.37,-161.56"/>
</g>
<!-- 626 -->
<g id="node27" class="node">
<title>626</title>
<polygon fill="#c0c0c0" stroke="black" points="2202.5,-36 2148.5,-36 2148.5,0 2202.5,0 2202.5,-36"/>
<text text-anchor="middle" x="2175.5" y="-14.3" font-family="Times,serif" font-size="14.00">(...)</text>
</g>
<!-- 625&#45;&gt;626 -->
<g id="edge26" class="edge">
<title>625&#45;&gt;626</title>
<path fill="none" stroke="black" d="M2195.81,-71.76C2192.46,-63.04 2188.99,-54.04 2185.89,-45.99"/>
<polygon fill="black" stroke="black" points="2189.06,-44.48 2182.2,-36.41 2182.53,-46.99 2189.06,-44.48"/>
</g>
<!-- 673 -->
<g id="node28" class="node">
<title>673</title>
<polygon fill="#c0c0c0" stroke="black" points="2274.5,-36 2220.5,-36 2220.5,0 2274.5,0 2274.5,-36"/>
<text text-anchor="middle" x="2247.5" y="-14.3" font-family="Times,serif" font-size="14.00">(...)</text>
</g>
<!-- 625&#45;&gt;673 -->
<g id="edge27" class="edge">
<title>625&#45;&gt;673</title>
<path fill="none" stroke="black" d="M2227.19,-71.76C2230.54,-63.04 2234.01,-54.04 2237.11,-45.99"/>
<polygon fill="black" stroke="black" points="2240.47,-46.99 2240.8,-36.41 2233.94,-44.48 2240.47,-46.99"/>
</g>
<!-- 817 -->
<g id="node30" class="node">
<title>817</title>
<polygon fill="#c0c0c0" stroke="black" points="2545.5,-36 2491.5,-36 2491.5,0 2545.5,0 2545.5,-36"/>
<text text-anchor="middle" x="2518.5" y="-14.3" font-family="Times,serif" font-size="14.00">(...)</text>
</g>
<!-- 816&#45;&gt;817 -->
<g id="edge29" class="edge">
<title>816&#45;&gt;817</title>
<path fill="none" stroke="black" d="M2538.81,-71.76C2535.46,-63.04 2531.99,-54.04 2528.89,-45.99"/>
<polygon fill="black" stroke="black" points="2532.06,-44.48 2525.2,-36.41 2525.53,-46.99 2532.06,-44.48"/>
</g>
<!-- 840 -->
<g id="node31" class="node">
<title>840</title>
<polygon fill="#c0c0c0" stroke="black" points="2617.5,-36 2563.5,-36 2563.5,0 2617.5,0 2617.5,-36"/>
<text text-anchor="middle" x="2590.5" y="-14.3" font-family="Times,serif" font-size="14.00">(...)</text>
</g>
<!-- 816&#45;&gt;840 -->
<g id="edge30" class="edge">
<title>816&#45;&gt;840</title>
<path fill="none" stroke="black" d="M2570.19,-71.76C2573.54,-63.04 2577.01,-54.04 2580.11,-45.99"/>
<polygon fill="black" stroke="black" points="2583.47,-46.99 2583.8,-36.41 2576.94,-44.48 2583.47,-46.99"/>
</g>
</g>
</svg>
