<?xml version="1.0" encoding="UTF-8" standalone="no"?>
<!DOCTYPE svg PUBLIC "-//W3C//DTD SVG 1.1//EN"
 "http://www.w3.org/Graphics/SVG/1.1/DTD/svg11.dtd">
<!-- Generated by graphviz version 2.43.0 (0)
 -->
<!-- Title: Tree Pages: 1 -->
<svg width="2651pt" height="520pt"
 viewBox="0.00 0.00 2650.50 520.00" xmlns="http://www.w3.org/2000/svg" xmlns:xlink="http://www.w3.org/1999/xlink">
<g id="graph0" class="graph" transform="scale(1 1) rotate(0) translate(4 516)">
<title>Tree</title>
<polygon fill="white" stroke="transparent" points="-4,4 -4,-516 2646.5,-516 2646.5,4 -4,4"/>
<!-- 0 -->
<g id="node1" class="node">
<title>0</title>
<polygon fill="#fdf0f8" stroke="black" points="1456.5,-512 1073.5,-512 1073.5,-429 1456.5,-429 1456.5,-512"/>
<text text-anchor="middle" x="1265" y="-496.8" font-family="Times,serif" font-size="14.00">CCR &lt;= 5.5</text>
<text text-anchor="middle" x="1265" y="-481.8" font-family="Times,serif" font-size="14.00">gini = 0.8</text>
<text text-anchor="middle" x="1265" y="-466.8" font-family="Times,serif" font-size="14.00">samples = 104915</text>
<text text-anchor="middle" x="1265" y="-451.8" font-family="Times,serif" font-size="14.00">value = [19942, 7527, 21880, 6402, 21140, 28024]</text>
<text text-anchor="middle" x="1265" y="-436.8" font-family="Times,serif" font-size="14.00">class = GDL</text>
</g>
<!-- 1 -->
<g id="node2" class="node">
<title>1</title>
<polygon fill="#f9d4ea" stroke="black" points="1138.5,-393 773.5,-393 773.5,-310 1138.5,-310 1138.5,-393"/>
<text text-anchor="middle" x="956" y="-377.8" font-family="Times,serif" font-size="14.00">CCR &lt;= 0.55</text>
<text text-anchor="middle" x="956" y="-362.8" font-family="Times,serif" font-size="14.00">gini = 0.697</text>
<text text-anchor="middle" x="956" y="-347.8" font-family="Times,serif" font-size="14.00">samples = 57888</text>
<text text-anchor="middle" x="956" y="-332.8" font-family="Times,serif" font-size="14.00">value = [13902, 2623, 392, 1764, 14911, 24296]</text>
<text text-anchor="middle" x="956" y="-317.8" font-family="Times,serif" font-size="14.00">class = GDL</text>
</g>
<!-- 0&#45;&gt;1 -->
<g id="edge1" class="edge">
<title>0&#45;&gt;1</title>
<path fill="none" stroke="black" d="M1157.79,-428.91C1130.23,-418.47 1100.45,-407.19 1072.44,-396.59"/>
<polygon fill="black" stroke="black" points="1073.61,-393.29 1063.02,-393.02 1071.13,-399.84 1073.61,-393.29"/>
<text text-anchor="middle" x="1073.29" y="-412.11" font-family="Times,serif" font-size="14.00">True</text>
</g>
<!-- 570 -->
<g id="node17" class="node">
<title>570</title>
<polygon fill="#b5f5d0" stroke="black" points="1789,-393 1433,-393 1433,-310 1789,-310 1789,-393"/>
<text text-anchor="middle" x="1611" y="-377.8" font-family="Times,serif" font-size="14.00">sdComp &lt;= 2.0</text>
<text text-anchor="middle" x="1611" y="-362.8" font-family="Times,serif" font-size="14.00">gini = 0.73</text>
<text text-anchor="middle" x="1611" y="-347.8" font-family="Times,serif" font-size="14.00">samples = 47027</text>
<text text-anchor="middle" x="1611" y="-332.8" font-family="Times,serif" font-size="14.00">value = [6040, 4904, 21488, 4638, 6229, 3728]</text>
<text text-anchor="middle" x="1611" y="-317.8" font-family="Times,serif" font-size="14.00">class = OLB</text>
</g>
<!-- 0&#45;&gt;570 -->
<g id="edge16" class="edge">
<title>0&#45;&gt;570</title>
<path fill="none" stroke="black" d="M1385.04,-428.91C1416.17,-418.38 1449.84,-407 1481.43,-396.31"/>
<polygon fill="black" stroke="black" points="1482.82,-399.54 1491.17,-393.02 1480.57,-392.91 1482.82,-399.54"/>
<text text-anchor="middle" x="1480.09" y="-411.73" font-family="Times,serif" font-size="14.00">False</text>
</g>
<!-- 2 -->
<g id="node3" class="node">
<title>2</title>
<polygon fill="#fbe0ef" stroke="black" points="649.5,-274 302.5,-274 302.5,-191 649.5,-191 649.5,-274"/>
<text text-anchor="middle" x="476" y="-258.8" font-family="Times,serif" font-size="14.00">sdComp &lt;= 0.065</text>
<text text-anchor="middle" x="476" y="-243.8" font-family="Times,serif" font-size="14.00">gini = 0.704</text>
<text text-anchor="middle" x="476" y="-228.8" font-family="Times,serif" font-size="14.00">samples = 36261</text>
<text text-anchor="middle" x="476" y="-213.8" font-family="Times,serif" font-size="14.00">value = [9950, 1315, 144, 1370, 9360, 14122]</text>
<text text-anchor="middle" x="476" y="-198.8" font-family="Times,serif" font-size="14.00">class = GDL</text>
</g>
<!-- 1&#45;&gt;2 -->
<g id="edge2" class="edge">
<title>1&#45;&gt;2</title>
<path fill="none" stroke="black" d="M789.8,-309.99C745.39,-299.16 697.24,-287.43 652.3,-276.47"/>
<polygon fill="black" stroke="black" points="653,-273.04 642.46,-274.07 651.35,-279.84 653,-273.04"/>
</g>
<!-- 285 -->
<g id="node10" class="node">
<title>285</title>
<polygon fill="#f8c6e3" stroke="black" points="1125,-274 787,-274 787,-191 1125,-191 1125,-274"/>
<text text-anchor="middle" x="956" y="-258.8" font-family="Times,serif" font-size="14.00">graphSize &lt;= 22.5</text>
<text text-anchor="middle" x="956" y="-243.8" font-family="Times,serif" font-size="14.00">gini = 0.675</text>
<text text-anchor="middle" x="956" y="-228.8" font-family="Times,serif" font-size="14.00">samples = 21627</text>
<text text-anchor="middle" x="956" y="-213.8" font-family="Times,serif" font-size="14.00">value = [3952, 1308, 248, 394, 5551, 10174]</text>
<text text-anchor="middle" x="956" y="-198.8" font-family="Times,serif" font-size="14.00">class = GDL</text>
</g>
<!-- 1&#45;&gt;285 -->
<g id="edge9" class="edge">
<title>1&#45;&gt;285</title>
<path fill="none" stroke="black" d="M956,-309.91C956,-301.65 956,-292.86 956,-284.3"/>
<polygon fill="black" stroke="black" points="959.5,-284.02 956,-274.02 952.5,-284.02 959.5,-284.02"/>
</g>
<!-- 3 -->
<g id="node4" class="node">
<title>3</title>
<polygon fill="#f8cce6" stroke="black" points="302,-155 0,-155 0,-72 302,-72 302,-155"/>
<text text-anchor="middle" x="151" y="-139.8" font-family="Times,serif" font-size="14.00">graphSize &lt;= 75.0</text>
<text text-anchor="middle" x="151" y="-124.8" font-family="Times,serif" font-size="14.00">gini = 0.675</text>
<text text-anchor="middle" x="151" y="-109.8" font-family="Times,serif" font-size="14.00">samples = 13258</text>
<text text-anchor="middle" x="151" y="-94.8" font-family="Times,serif" font-size="14.00">value = [3318, 578, 144, 2, 3326, 5890]</text>
<text text-anchor="middle" x="151" y="-79.8" font-family="Times,serif" font-size="14.00">class = GDL</text>
</g>
<!-- 2&#45;&gt;3 -->
<g id="edge3" class="edge">
<title>2&#45;&gt;3</title>
<path fill="none" stroke="black" d="M363.24,-190.91C334.13,-180.43 302.65,-169.1 273.09,-158.45"/>
<polygon fill="black" stroke="black" points="274.15,-155.11 263.56,-155.02 271.78,-161.7 274.15,-155.11"/>
</g>
<!-- 190 -->
<g id="node7" class="node">
<title>190</title>
<polygon fill="#fcecf5" stroke="black" points="631.5,-155 320.5,-155 320.5,-72 631.5,-72 631.5,-155"/>
<text text-anchor="middle" x="476" y="-139.8" font-family="Times,serif" font-size="14.00">graphSize &lt;= 22.5</text>
<text text-anchor="middle" x="476" y="-124.8" font-family="Times,serif" font-size="14.00">gini = 0.715</text>
<text text-anchor="middle" x="476" y="-109.8" font-family="Times,serif" font-size="14.00">samples = 23003</text>
<text text-anchor="middle" x="476" y="-94.8" font-family="Times,serif" font-size="14.00">value = [6632, 737, 0, 1368, 6034, 8232]</text>
<text text-anchor="middle" x="476" y="-79.8" font-family="Times,serif" font-size="14.00">class = GDL</text>
</g>
<!-- 2&#45;&gt;190 -->
<g id="edge6" class="edge">
<title>2&#45;&gt;190</title>
<path fill="none" stroke="black" d="M476,-190.91C476,-182.65 476,-173.86 476,-165.3"/>
<polygon fill="black" stroke="black" points="479.5,-165.02 476,-155.02 472.5,-165.02 479.5,-165.02"/>
</g>
<!-- 4 -->
<g id="node5" class="node">
<title>4</title>
<polygon fill="#c0c0c0" stroke="black" points="142,-36 88,-36 88,0 142,0 142,-36"/>
<text text-anchor="middle" x="115" y="-14.3" font-family="Times,serif" font-size="14.00">(...)</text>
</g>
<!-- 3&#45;&gt;4 -->
<g id="edge4" class="edge">
<title>3&#45;&gt;4</title>
<path fill="none" stroke="black" d="M135.31,-71.76C131.96,-63.04 128.49,-54.04 125.39,-45.99"/>
<polygon fill="black" stroke="black" points="128.56,-44.48 121.7,-36.41 122.03,-46.99 128.56,-44.48"/>
</g>
<!-- 147 -->
<g id="node6" class="node">
<title>147</title>
<polygon fill="#c0c0c0" stroke="black" points="214,-36 160,-36 160,0 214,0 214,-36"/>
<text text-anchor="middle" x="187" y="-14.3" font-family="Times,serif" font-size="14.00">(...)</text>
</g>
<!-- 3&#45;&gt;147 -->
<g id="edge5" class="edge">
<title>3&#45;&gt;147</title>
<path fill="none" stroke="black" d="M166.69,-71.76C170.04,-63.04 173.51,-54.04 176.61,-45.99"/>
<polygon fill="black" stroke="black" points="179.97,-46.99 180.3,-36.41 173.44,-44.48 179.97,-46.99"/>
</g>
<!-- 191 -->
<g id="node8" class="node">
<title>191</title>
<polygon fill="#c0c0c0" stroke="black" points="467,-36 413,-36 413,0 467,0 467,-36"/>
<text text-anchor="middle" x="440" y="-14.3" font-family="Times,serif" font-size="14.00">(...)</text>
</g>
<!-- 190&#45;&gt;191 -->
<g id="edge7" class="edge">
<title>190&#45;&gt;191</title>
<path fill="none" stroke="black" d="M460.31,-71.76C456.96,-63.04 453.49,-54.04 450.39,-45.99"/>
<polygon fill="black" stroke="black" points="453.56,-44.48 446.7,-36.41 447.03,-46.99 453.56,-44.48"/>
</g>
<!-- 214 -->
<g id="node9" class="node">
<title>214</title>
<polygon fill="#c0c0c0" stroke="black" points="539,-36 485,-36 485,0 539,0 539,-36"/>
<text text-anchor="middle" x="512" y="-14.3" font-family="Times,serif" font-size="14.00">(...)</text>
</g>
<!-- 190&#45;&gt;214 -->
<g id="edge8" class="edge">
<title>190&#45;&gt;214</title>
<path fill="none" stroke="black" d="M491.69,-71.76C495.04,-63.04 498.51,-54.04 501.61,-45.99"/>
<polygon fill="black" stroke="black" points="504.97,-46.99 505.3,-36.41 498.44,-44.48 504.97,-46.99"/>
</g>
<!-- 286 -->
<g id="node11" class="node">
<title>286</title>
<polygon fill="#fadbed" stroke="black" points="970,-155 650,-155 650,-72 970,-72 970,-155"/>
<text text-anchor="middle" x="810" y="-139.8" font-family="Times,serif" font-size="14.00">nbproc &lt;= 4.5</text>
<text text-anchor="middle" x="810" y="-124.8" font-family="Times,serif" font-size="14.00">gini = 0.707</text>
<text text-anchor="middle" x="810" y="-109.8" font-family="Times,serif" font-size="14.00">samples = 13009</text>
<text text-anchor="middle" x="810" y="-94.8" font-family="Times,serif" font-size="14.00">value = [2374, 928, 216, 394, 3697, 5400]</text>
<text text-anchor="middle" x="810" y="-79.8" font-family="Times,serif" font-size="14.00">class = GDL</text>
</g>
<!-- 285&#45;&gt;286 -->
<g id="edge10" class="edge">
<title>285&#45;&gt;286</title>
<path fill="none" stroke="black" d="M905.35,-190.91C893.46,-181.38 880.69,-171.15 868.49,-161.37"/>
<polygon fill="black" stroke="black" points="870.56,-158.54 860.56,-155.02 866.18,-164.01 870.56,-158.54"/>
</g>
<!-- 357 -->
<g id="node14" class="node">
<title>357</title>
<polygon fill="#f4aad5" stroke="black" points="1281.5,-155 988.5,-155 988.5,-72 1281.5,-72 1281.5,-155"/>
<text text-anchor="middle" x="1135" y="-139.8" font-family="Times,serif" font-size="14.00">sdComp &lt;= 0.65</text>
<text text-anchor="middle" x="1135" y="-124.8" font-family="Times,serif" font-size="14.00">gini = 0.611</text>
<text text-anchor="middle" x="1135" y="-109.8" font-family="Times,serif" font-size="14.00">samples = 8618</text>
<text text-anchor="middle" x="1135" y="-94.8" font-family="Times,serif" font-size="14.00">value = [1578, 380, 32, 0, 1854, 4774]</text>
<text text-anchor="middle" x="1135" y="-79.8" font-family="Times,serif" font-size="14.00">class = GDL</text>
</g>
<!-- 285&#45;&gt;357 -->
<g id="edge13" class="edge">
<title>285&#45;&gt;357</title>
<path fill="none" stroke="black" d="M1018.1,-190.91C1033.1,-181.11 1049.23,-170.56 1064.57,-160.53"/>
<polygon fill="black" stroke="black" points="1066.55,-163.42 1073.01,-155.02 1062.72,-157.56 1066.55,-163.42"/>
</g>
<!-- 287 -->
<g id="node12" class="node">
<title>287</title>
<polygon fill="#c0c0c0" stroke="black" points="801,-36 747,-36 747,0 801,0 801,-36"/>
<text text-anchor="middle" x="774" y="-14.3" font-family="Times,serif" font-size="14.00">(...)</text>
</g>
<!-- 286&#45;&gt;287 -->
<g id="edge11" class="edge">
<title>286&#45;&gt;287</title>
<path fill="none" stroke="black" d="M794.31,-71.76C790.96,-63.04 787.49,-54.04 784.39,-45.99"/>
<polygon fill="black" stroke="black" points="787.56,-44.48 780.7,-36.41 781.03,-46.99 787.56,-44.48"/>
</g>
<!-- 322 -->
<g id="node13" class="node">
<title>322</title>
<polygon fill="#c0c0c0" stroke="black" points="873,-36 819,-36 819,0 873,0 873,-36"/>
<text text-anchor="middle" x="846" y="-14.3" font-family="Times,serif" font-size="14.00">(...)</text>
</g>
<!-- 286&#45;&gt;322 -->
<g id="edge12" class="edge">
<title>286&#45;&gt;322</title>
<path fill="none" stroke="black" d="M825.69,-71.76C829.04,-63.04 832.51,-54.04 835.61,-45.99"/>
<polygon fill="black" stroke="black" points="838.97,-46.99 839.3,-36.41 832.44,-44.48 838.97,-46.99"/>
</g>
<!-- 358 -->
<g id="node15" class="node">
<title>358</title>
<polygon fill="#c0c0c0" stroke="black" points="1126,-36 1072,-36 1072,0 1126,0 1126,-36"/>
<text text-anchor="middle" x="1099" y="-14.3" font-family="Times,serif" font-size="14.00">(...)</text>
</g>
<!-- 357&#45;&gt;358 -->
<g id="edge14" class="edge">
<title>357&#45;&gt;358</title>
<path fill="none" stroke="black" d="M1119.31,-71.76C1115.96,-63.04 1112.49,-54.04 1109.39,-45.99"/>
<polygon fill="black" stroke="black" points="1112.56,-44.48 1105.7,-36.41 1106.03,-46.99 1112.56,-44.48"/>
</g>
<!-- 499 -->
<g id="node16" class="node">
<title>499</title>
<polygon fill="#c0c0c0" stroke="black" points="1198,-36 1144,-36 1144,0 1198,0 1198,-36"/>
<text text-anchor="middle" x="1171" y="-14.3" font-family="Times,serif" font-size="14.00">(...)</text>
</g>
<!-- 357&#45;&gt;499 -->
<g id="edge15" class="edge">
<title>357&#45;&gt;499</title>
<path fill="none" stroke="black" d="M1150.69,-71.76C1154.04,-63.04 1157.51,-54.04 1160.61,-45.99"/>
<polygon fill="black" stroke="black" points="1163.97,-46.99 1164.3,-36.41 1157.44,-44.48 1163.97,-46.99"/>
</g>
<!-- 571 -->
<g id="node18" class="node">
<title>571</title>
<polygon fill="#b6f5d0" stroke="black" points="1780,-274 1442,-274 1442,-191 1780,-191 1780,-274"/>
<text text-anchor="middle" x="1611" y="-258.8" font-family="Times,serif" font-size="14.00">nbproc &lt;= 4.5</text>
<text text-anchor="middle" x="1611" y="-243.8" font-family="Times,serif" font-size="14.00">gini = 0.68</text>
<text text-anchor="middle" x="1611" y="-228.8" font-family="Times,serif" font-size="14.00">samples = 17768</text>
<text text-anchor="middle" x="1611" y="-213.8" font-family="Times,serif" font-size="14.00">value = [1420, 1522, 8948, 3750, 1380, 748]</text>
<text text-anchor="middle" x="1611" y="-198.8" font-family="Times,serif" font-size="14.00">class = OLB</text>
</g>
<!-- 570&#45;&gt;571 -->
<g id="edge17" class="edge">
<title>570&#45;&gt;571</title>
<path fill="none" stroke="black" d="M1611,-309.91C1611,-301.65 1611,-292.86 1611,-284.3"/>
<polygon fill="black" stroke="black" points="1614.5,-284.02 1611,-274.02 1607.5,-284.02 1614.5,-284.02"/>
</g>
<!-- 666 -->
<g id="node25" class="node">
<title>666</title>
<polygon fill="#c1f7d7" stroke="black" points="2300.5,-274 1953.5,-274 1953.5,-191 2300.5,-191 2300.5,-274"/>
<text text-anchor="middle" x="2127" y="-258.8" font-family="Times,serif" font-size="14.00">sdComp &lt;= 6.5</text>
<text text-anchor="middle" x="2127" y="-243.8" font-family="Times,serif" font-size="14.00">gini = 0.739</text>
<text text-anchor="middle" x="2127" y="-228.8" font-family="Times,serif" font-size="14.00">samples = 29259</text>
<text text-anchor="middle" x="2127" y="-213.8" font-family="Times,serif" font-size="14.00">value = [4620, 3382, 12540, 888, 4849, 2980]</text>
<text text-anchor="middle" x="2127" y="-198.8" font-family="Times,serif" font-size="14.00">class = OLB</text>
</g>
<!-- 570&#45;&gt;666 -->
<g id="edge24" class="edge">
<title>570&#45;&gt;666</title>
<path fill="none" stroke="black" d="M1789.3,-310.07C1839.14,-298.77 1893.38,-286.47 1943.52,-275.1"/>
<polygon fill="black" stroke="black" points="1944.51,-278.47 1953.49,-272.84 1942.96,-271.64 1944.51,-278.47"/>
</g>
<!-- 572 -->
<g id="node19" class="node">
<title>572</title>
<polygon fill="#ccf8de" stroke="black" points="1610.5,-155 1299.5,-155 1299.5,-72 1610.5,-72 1610.5,-155"/>
<text text-anchor="middle" x="1455" y="-139.8" font-family="Times,serif" font-size="14.00">graphDepth &lt;= 3.5</text>
<text text-anchor="middle" x="1455" y="-124.8" font-family="Times,serif" font-size="14.00">gini = 0.733</text>
<text text-anchor="middle" x="1455" y="-109.8" font-family="Times,serif" font-size="14.00">samples = 9086</text>
<text text-anchor="middle" x="1455" y="-94.8" font-family="Times,serif" font-size="14.00">value = [882, 866, 3900, 2086, 852, 500]</text>
<text text-anchor="middle" x="1455" y="-79.8" font-family="Times,serif" font-size="14.00">class = OLB</text>
</g>
<!-- 571&#45;&gt;572 -->
<g id="edge18" class="edge">
<title>571&#45;&gt;572</title>
<path fill="none" stroke="black" d="M1556.88,-190.91C1544.05,-181.29 1530.27,-170.95 1517.12,-161.09"/>
<polygon fill="black" stroke="black" points="1519.13,-158.22 1509.03,-155.02 1514.93,-163.82 1519.13,-158.22"/>
</g>
<!-- 619 -->
<g id="node22" class="node">
<title>619</title>
<polygon fill="#a0f2c2" stroke="black" points="1939.5,-155 1628.5,-155 1628.5,-72 1939.5,-72 1939.5,-155"/>
<text text-anchor="middle" x="1784" y="-139.8" font-family="Times,serif" font-size="14.00">graphDepth &lt;= 25.5</text>
<text text-anchor="middle" x="1784" y="-124.8" font-family="Times,serif" font-size="14.00">gini = 0.611</text>
<text text-anchor="middle" x="1784" y="-109.8" font-family="Times,serif" font-size="14.00">samples = 8682</text>
<text text-anchor="middle" x="1784" y="-94.8" font-family="Times,serif" font-size="14.00">value = [538, 656, 5048, 1664, 528, 248]</text>
<text text-anchor="middle" x="1784" y="-79.8" font-family="Times,serif" font-size="14.00">class = OLB</text>
</g>
<!-- 571&#45;&gt;619 -->
<g id="edge21" class="edge">
<title>571&#45;&gt;619</title>
<path fill="none" stroke="black" d="M1671.02,-190.91C1685.38,-181.2 1700.81,-170.76 1715.52,-160.81"/>
<polygon fill="black" stroke="black" points="1717.76,-163.52 1724.08,-155.02 1713.84,-157.72 1717.76,-163.52"/>
</g>
<!-- 573 -->
<g id="node20" class="node">
<title>573</title>
<polygon fill="#c0c0c0" stroke="black" points="1446,-36 1392,-36 1392,0 1446,0 1446,-36"/>
<text text-anchor="middle" x="1419" y="-14.3" font-family="Times,serif" font-size="14.00">(...)</text>
</g>
<!-- 572&#45;&gt;573 -->
<g id="edge19" class="edge">
<title>572&#45;&gt;573</title>
<path fill="none" stroke="black" d="M1439.31,-71.76C1435.96,-63.04 1432.49,-54.04 1429.39,-45.99"/>
<polygon fill="black" stroke="black" points="1432.56,-44.48 1425.7,-36.41 1426.03,-46.99 1432.56,-44.48"/>
</g>
<!-- 578 -->
<g id="node21" class="node">
<title>578</title>
<polygon fill="#c0c0c0" stroke="black" points="1518,-36 1464,-36 1464,0 1518,0 1518,-36"/>
<text text-anchor="middle" x="1491" y="-14.3" font-family="Times,serif" font-size="14.00">(...)</text>
</g>
<!-- 572&#45;&gt;578 -->
<g id="edge20" class="edge">
<title>572&#45;&gt;578</title>
<path fill="none" stroke="black" d="M1470.69,-71.76C1474.04,-63.04 1477.51,-54.04 1480.61,-45.99"/>
<polygon fill="black" stroke="black" points="1483.97,-46.99 1484.3,-36.41 1477.44,-44.48 1483.97,-46.99"/>
</g>
<!-- 620 -->
<g id="node23" class="node">
<title>620</title>
<polygon fill="#c0c0c0" stroke="black" points="1775,-36 1721,-36 1721,0 1775,0 1775,-36"/>
<text text-anchor="middle" x="1748" y="-14.3" font-family="Times,serif" font-size="14.00">(...)</text>
</g>
<!-- 619&#45;&gt;620 -->
<g id="edge22" class="edge">
<title>619&#45;&gt;620</title>
<path fill="none" stroke="black" d="M1768.31,-71.76C1764.96,-63.04 1761.49,-54.04 1758.39,-45.99"/>
<polygon fill="black" stroke="black" points="1761.56,-44.48 1754.7,-36.41 1755.03,-46.99 1761.56,-44.48"/>
</g>
<!-- 661 -->
<g id="node24" class="node">
<title>661</title>
<polygon fill="#c0c0c0" stroke="black" points="1847,-36 1793,-36 1793,0 1847,0 1847,-36"/>
<text text-anchor="middle" x="1820" y="-14.3" font-family="Times,serif" font-size="14.00">(...)</text>
</g>
<!-- 619&#45;&gt;661 -->
<g id="edge23" class="edge">
<title>619&#45;&gt;661</title>
<path fill="none" stroke="black" d="M1799.69,-71.76C1803.04,-63.04 1806.51,-54.04 1809.61,-45.99"/>
<polygon fill="black" stroke="black" points="1812.97,-46.99 1813.3,-36.41 1806.44,-44.48 1812.97,-46.99"/>
</g>
<!-- 667 -->
<g id="node26" class="node">
<title>667</title>
<polygon fill="#b3f5ce" stroke="black" points="2296,-155 1958,-155 1958,-72 2296,-72 2296,-155"/>
<text text-anchor="middle" x="2127" y="-139.8" font-family="Times,serif" font-size="14.00">graphSize &lt;= 22.5</text>
<text text-anchor="middle" x="2127" y="-124.8" font-family="Times,serif" font-size="14.00">gini = 0.708</text>
<text text-anchor="middle" x="2127" y="-109.8" font-family="Times,serif" font-size="14.00">samples = 17352</text>
<text text-anchor="middle" x="2127" y="-94.8" font-family="Times,serif" font-size="14.00">value = [2666, 1704, 8336, 864, 2442, 1340]</text>
<text text-anchor="middle" x="2127" y="-79.8" font-family="Times,serif" font-size="14.00">class = OLB</text>
</g>
<!-- 666&#45;&gt;667 -->
<g id="edge25" class="edge">
<title>666&#45;&gt;667</title>
<path fill="none" stroke="black" d="M2127,-190.91C2127,-182.65 2127,-173.86 2127,-165.3"/>
<polygon fill="black" stroke="black" points="2130.5,-165.02 2127,-155.02 2123.5,-165.02 2130.5,-165.02"/>
</g>
<!-- 762 -->
<g id="node29" class="node">
<title>762</title>
<polygon fill="#dafae7" stroke="black" points="2642.5,-155 2313.5,-155 2313.5,-72 2642.5,-72 2642.5,-155"/>
<text text-anchor="middle" x="2478" y="-139.8" font-family="Times,serif" font-size="14.00">sdComm &lt;= 2.0</text>
<text text-anchor="middle" x="2478" y="-124.8" font-family="Times,serif" font-size="14.00">gini = 0.769</text>
<text text-anchor="middle" x="2478" y="-109.8" font-family="Times,serif" font-size="14.00">samples = 11907</text>
<text text-anchor="middle" x="2478" y="-94.8" font-family="Times,serif" font-size="14.00">value = [1954, 1678, 4204, 24, 2407, 1640]</text>
<text text-anchor="middle" x="2478" y="-79.8" font-family="Times,serif" font-size="14.00">class = OLB</text>
</g>
<!-- 666&#45;&gt;762 -->
<g id="edge28" class="edge">
<title>666&#45;&gt;762</title>
<path fill="none" stroke="black" d="M2248.78,-190.91C2280.36,-180.38 2314.51,-169 2346.56,-158.31"/>
<polygon fill="black" stroke="black" points="2348.06,-161.5 2356.44,-155.02 2345.84,-154.86 2348.06,-161.5"/>
</g>
<!-- 668 -->
<g id="node27" class="node">
<title>668</title>
<polygon fill="#c0c0c0" stroke="black" points="2118,-36 2064,-36 2064,0 2118,0 2118,-36"/>
<text text-anchor="middle" x="2091" y="-14.3" font-family="Times,serif" font-size="14.00">(...)</text>
</g>
<!-- 667&#45;&gt;668 -->
<g id="edge26" class="edge">
<title>667&#45;&gt;668</title>
<path fill="none" stroke="black" d="M2111.31,-71.76C2107.96,-63.04 2104.49,-54.04 2101.39,-45.99"/>
<polygon fill="black" stroke="black" points="2104.56,-44.48 2097.7,-36.41 2098.03,-46.99 2104.56,-44.48"/>
</g>
<!-- 691 -->
<g id="node28" class="node">
<title>691</title>
<polygon fill="#c0c0c0" stroke="black" points="2190,-36 2136,-36 2136,0 2190,0 2190,-36"/>
<text text-anchor="middle" x="2163" y="-14.3" font-family="Times,serif" font-size="14.00">(...)</text>
</g>
<!-- 667&#45;&gt;691 -->
<g id="edge27" class="edge">
<title>667&#45;&gt;691</title>
<path fill="none" stroke="black" d="M2142.69,-71.76C2146.04,-63.04 2149.51,-54.04 2152.61,-45.99"/>
<polygon fill="black" stroke="black" points="2155.97,-46.99 2156.3,-36.41 2149.44,-44.48 2155.97,-46.99"/>
</g>
<!-- 763 -->
<g id="node30" class="node">
<title>763</title>
<polygon fill="#c0c0c0" stroke="black" points="2469,-36 2415,-36 2415,0 2469,0 2469,-36"/>
<text text-anchor="middle" x="2442" y="-14.3" font-family="Times,serif" font-size="14.00">(...)</text>
</g>
<!-- 762&#45;&gt;763 -->
<g id="edge29" class="edge">
<title>762&#45;&gt;763</title>
<path fill="none" stroke="black" d="M2462.31,-71.76C2458.96,-63.04 2455.49,-54.04 2452.39,-45.99"/>
<polygon fill="black" stroke="black" points="2455.56,-44.48 2448.7,-36.41 2449.03,-46.99 2455.56,-44.48"/>
</g>
<!-- 794 -->
<g id="node31" class="node">
<title>794</title>
<polygon fill="#c0c0c0" stroke="black" points="2541,-36 2487,-36 2487,0 2541,0 2541,-36"/>
<text text-anchor="middle" x="2514" y="-14.3" font-family="Times,serif" font-size="14.00">(...)</text>
</g>
<!-- 762&#45;&gt;794 -->
<g id="edge30" class="edge">
<title>762&#45;&gt;794</title>
<path fill="none" stroke="black" d="M2493.69,-71.76C2497.04,-63.04 2500.51,-54.04 2503.61,-45.99"/>
<polygon fill="black" stroke="black" points="2506.97,-46.99 2507.3,-36.41 2500.44,-44.48 2506.97,-46.99"/>
</g>
</g>
</svg>
