<?xml version="1.0" encoding="UTF-8" standalone="no"?>
<!DOCTYPE svg PUBLIC "-//W3C//DTD SVG 1.1//EN"
 "http://www.w3.org/Graphics/SVG/1.1/DTD/svg11.dtd">
<!-- Generated by graphviz version 2.43.0 (0)
 -->
<!-- Title: Tree Pages: 1 -->
<svg width="3025pt" height="520pt"
 viewBox="0.00 0.00 3025.00 520.00" xmlns="http://www.w3.org/2000/svg" xmlns:xlink="http://www.w3.org/1999/xlink">
<g id="graph0" class="graph" transform="scale(1 1) rotate(0) translate(4 516)">
<title>Tree</title>
<polygon fill="white" stroke="transparent" points="-4,4 -4,-516 3021,-516 3021,4 -4,4"/>
<!-- 0 -->
<g id="node1" class="node">
<title>0</title>
<polygon fill="#fffdfc" stroke="black" points="1728.5,-512 1282.5,-512 1282.5,-429 1728.5,-429 1728.5,-512"/>
<text text-anchor="middle" x="1505.5" y="-496.8" font-family="Times,serif" font-size="14.00">CCR &lt;= 5.5</text>
<text text-anchor="middle" x="1505.5" y="-481.8" font-family="Times,serif" font-size="14.00">gini = 0.845</text>
<text text-anchor="middle" x="1505.5" y="-466.8" font-family="Times,serif" font-size="14.00">samples = 104915</text>
<text text-anchor="middle" x="1505.5" y="-451.8" font-family="Times,serif" font-size="14.00">value = [19743, 15864, 5510, 13794, 15032, 16403, 18569]</text>
<text text-anchor="middle" x="1505.5" y="-436.8" font-family="Times,serif" font-size="14.00">class = rku</text>
</g>
<!-- 1 -->
<g id="node2" class="node">
<title>1</title>
<polygon fill="#fefcfb" stroke="black" points="1342,-393 941,-393 941,-310 1342,-310 1342,-393"/>
<text text-anchor="middle" x="1141.5" y="-377.8" font-family="Times,serif" font-size="14.00">graphSize &lt;= 40.0</text>
<text text-anchor="middle" x="1141.5" y="-362.8" font-family="Times,serif" font-size="14.00">gini = 0.842</text>
<text text-anchor="middle" x="1141.5" y="-347.8" font-family="Times,serif" font-size="14.00">samples = 57888</text>
<text text-anchor="middle" x="1141.5" y="-332.8" font-family="Times,serif" font-size="14.00">value = [11023, 7248, 2379, 8428, 8934, 9887, 9989]</text>
<text text-anchor="middle" x="1141.5" y="-317.8" font-family="Times,serif" font-size="14.00">class = rku</text>
</g>
<!-- 0&#45;&gt;1 -->
<g id="edge1" class="edge">
<title>0&#45;&gt;1</title>
<path fill="none" stroke="black" d="M1379.47,-428.99C1346.56,-418.41 1310.95,-406.97 1277.55,-396.23"/>
<polygon fill="black" stroke="black" points="1278.32,-392.8 1267.73,-393.07 1276.18,-399.47 1278.32,-392.8"/>
<text text-anchor="middle" x="1279.15" y="-411.61" font-family="Times,serif" font-size="14.00">True</text>
</g>
<!-- 576 -->
<g id="node17" class="node">
<title>576</title>
<polygon fill="#fffffe" stroke="black" points="2100.5,-393 1708.5,-393 1708.5,-310 2100.5,-310 2100.5,-393"/>
<text text-anchor="middle" x="1904.5" y="-377.8" font-family="Times,serif" font-size="14.00">graphSize &lt;= 75.0</text>
<text text-anchor="middle" x="1904.5" y="-362.8" font-family="Times,serif" font-size="14.00">gini = 0.845</text>
<text text-anchor="middle" x="1904.5" y="-347.8" font-family="Times,serif" font-size="14.00">samples = 47027</text>
<text text-anchor="middle" x="1904.5" y="-332.8" font-family="Times,serif" font-size="14.00">value = [8720, 8616, 3131, 5366, 6098, 6516, 8580]</text>
<text text-anchor="middle" x="1904.5" y="-317.8" font-family="Times,serif" font-size="14.00">class = rku</text>
</g>
<!-- 0&#45;&gt;576 -->
<g id="edge16" class="edge">
<title>0&#45;&gt;576</title>
<path fill="none" stroke="black" d="M1643.65,-428.99C1680.03,-418.32 1719.42,-406.77 1756.31,-395.96"/>
<polygon fill="black" stroke="black" points="1757.52,-399.25 1766.13,-393.07 1755.55,-392.53 1757.52,-399.25"/>
<text text-anchor="middle" x="1754.14" y="-411.31" font-family="Times,serif" font-size="14.00">False</text>
</g>
<!-- 2 -->
<g id="node3" class="node">
<title>2</title>
<polygon fill="#fffefe" stroke="black" points="788.5,-274 396.5,-274 396.5,-191 788.5,-191 788.5,-274"/>
<text text-anchor="middle" x="592.5" y="-258.8" font-family="Times,serif" font-size="14.00">nbproc &lt;= 4.5</text>
<text text-anchor="middle" x="592.5" y="-243.8" font-family="Times,serif" font-size="14.00">gini = 0.841</text>
<text text-anchor="middle" x="592.5" y="-228.8" font-family="Times,serif" font-size="14.00">samples = 49602</text>
<text text-anchor="middle" x="592.5" y="-213.8" font-family="Times,serif" font-size="14.00">value = [8833, 6734, 1497, 7594, 8088, 8295, 8561]</text>
<text text-anchor="middle" x="592.5" y="-198.8" font-family="Times,serif" font-size="14.00">class = rku</text>
</g>
<!-- 1&#45;&gt;2 -->
<g id="edge2" class="edge">
<title>1&#45;&gt;2</title>
<path fill="none" stroke="black" d="M951.41,-309.99C900.19,-299.07 844.62,-287.23 792.85,-276.2"/>
<polygon fill="black" stroke="black" points="793.4,-272.74 782.89,-274.07 791.94,-279.58 793.4,-272.74"/>
</g>
<!-- 289 -->
<g id="node10" class="node">
<title>289</title>
<polygon fill="#fdf4ed" stroke="black" points="1319.5,-274 963.5,-274 963.5,-191 1319.5,-191 1319.5,-274"/>
<text text-anchor="middle" x="1141.5" y="-258.8" font-family="Times,serif" font-size="14.00">nbproc &lt;= 4.5</text>
<text text-anchor="middle" x="1141.5" y="-243.8" font-family="Times,serif" font-size="14.00">gini = 0.828</text>
<text text-anchor="middle" x="1141.5" y="-228.8" font-family="Times,serif" font-size="14.00">samples = 8286</text>
<text text-anchor="middle" x="1141.5" y="-213.8" font-family="Times,serif" font-size="14.00">value = [2190, 514, 882, 834, 846, 1592, 1428]</text>
<text text-anchor="middle" x="1141.5" y="-198.8" font-family="Times,serif" font-size="14.00">class = rku</text>
</g>
<!-- 1&#45;&gt;289 -->
<g id="edge9" class="edge">
<title>1&#45;&gt;289</title>
<path fill="none" stroke="black" d="M1141.5,-309.91C1141.5,-301.65 1141.5,-292.86 1141.5,-284.3"/>
<polygon fill="black" stroke="black" points="1145,-284.02 1141.5,-274.02 1138,-284.02 1145,-284.02"/>
</g>
<!-- 3 -->
<g id="node4" class="node">
<title>3</title>
<polygon fill="#fcfdff" stroke="black" points="383,-155 0,-155 0,-72 383,-72 383,-155"/>
<text text-anchor="middle" x="191.5" y="-139.8" font-family="Times,serif" font-size="14.00">CCR &lt;= 0.55</text>
<text text-anchor="middle" x="191.5" y="-124.8" font-family="Times,serif" font-size="14.00">gini = 0.84</text>
<text text-anchor="middle" x="191.5" y="-109.8" font-family="Times,serif" font-size="14.00">samples = 16883</text>
<text text-anchor="middle" x="191.5" y="-94.8" font-family="Times,serif" font-size="14.00">value = [2787, 1988, 596, 3074, 3266, 2565, 2607]</text>
<text text-anchor="middle" x="191.5" y="-79.8" font-family="Times,serif" font-size="14.00">class = cluHPS</text>
</g>
<!-- 2&#45;&gt;3 -->
<g id="edge3" class="edge">
<title>2&#45;&gt;3</title>
<path fill="none" stroke="black" d="M453.66,-190.99C417.1,-180.32 377.5,-168.77 340.44,-157.96"/>
<polygon fill="black" stroke="black" points="341.14,-154.52 330.56,-155.07 339.18,-161.24 341.14,-154.52"/>
</g>
<!-- 146 -->
<g id="node7" class="node">
<title>146</title>
<polygon fill="#fffffe" stroke="black" points="784,-155 401,-155 401,-72 784,-72 784,-155"/>
<text text-anchor="middle" x="592.5" y="-139.8" font-family="Times,serif" font-size="14.00">sdComm &lt;= 0.02</text>
<text text-anchor="middle" x="592.5" y="-124.8" font-family="Times,serif" font-size="14.00">gini = 0.839</text>
<text text-anchor="middle" x="592.5" y="-109.8" font-family="Times,serif" font-size="14.00">samples = 32719</text>
<text text-anchor="middle" x="592.5" y="-94.8" font-family="Times,serif" font-size="14.00">value = [6046, 4746, 901, 4520, 4822, 5730, 5954]</text>
<text text-anchor="middle" x="592.5" y="-79.8" font-family="Times,serif" font-size="14.00">class = rku</text>
</g>
<!-- 2&#45;&gt;146 -->
<g id="edge6" class="edge">
<title>2&#45;&gt;146</title>
<path fill="none" stroke="black" d="M592.5,-190.91C592.5,-182.65 592.5,-173.86 592.5,-165.3"/>
<polygon fill="black" stroke="black" points="596,-165.02 592.5,-155.02 589,-165.02 596,-165.02"/>
</g>
<!-- 4 -->
<g id="node5" class="node">
<title>4</title>
<polygon fill="#c0c0c0" stroke="black" points="182.5,-36 128.5,-36 128.5,0 182.5,0 182.5,-36"/>
<text text-anchor="middle" x="155.5" y="-14.3" font-family="Times,serif" font-size="14.00">(...)</text>
</g>
<!-- 3&#45;&gt;4 -->
<g id="edge4" class="edge">
<title>3&#45;&gt;4</title>
<path fill="none" stroke="black" d="M175.81,-71.76C172.46,-63.04 168.99,-54.04 165.89,-45.99"/>
<polygon fill="black" stroke="black" points="169.06,-44.48 162.2,-36.41 162.53,-46.99 169.06,-44.48"/>
</g>
<!-- 75 -->
<g id="node6" class="node">
<title>75</title>
<polygon fill="#c0c0c0" stroke="black" points="254.5,-36 200.5,-36 200.5,0 254.5,0 254.5,-36"/>
<text text-anchor="middle" x="227.5" y="-14.3" font-family="Times,serif" font-size="14.00">(...)</text>
</g>
<!-- 3&#45;&gt;75 -->
<g id="edge5" class="edge">
<title>3&#45;&gt;75</title>
<path fill="none" stroke="black" d="M207.19,-71.76C210.54,-63.04 214.01,-54.04 217.11,-45.99"/>
<polygon fill="black" stroke="black" points="220.47,-46.99 220.8,-36.41 213.94,-44.48 220.47,-46.99"/>
</g>
<!-- 147 -->
<g id="node8" class="node">
<title>147</title>
<polygon fill="#c0c0c0" stroke="black" points="583.5,-36 529.5,-36 529.5,0 583.5,0 583.5,-36"/>
<text text-anchor="middle" x="556.5" y="-14.3" font-family="Times,serif" font-size="14.00">(...)</text>
</g>
<!-- 146&#45;&gt;147 -->
<g id="edge7" class="edge">
<title>146&#45;&gt;147</title>
<path fill="none" stroke="black" d="M576.81,-71.76C573.46,-63.04 569.99,-54.04 566.89,-45.99"/>
<polygon fill="black" stroke="black" points="570.06,-44.48 563.2,-36.41 563.53,-46.99 570.06,-44.48"/>
</g>
<!-- 170 -->
<g id="node9" class="node">
<title>170</title>
<polygon fill="#c0c0c0" stroke="black" points="655.5,-36 601.5,-36 601.5,0 655.5,0 655.5,-36"/>
<text text-anchor="middle" x="628.5" y="-14.3" font-family="Times,serif" font-size="14.00">(...)</text>
</g>
<!-- 146&#45;&gt;170 -->
<g id="edge8" class="edge">
<title>146&#45;&gt;170</title>
<path fill="none" stroke="black" d="M608.19,-71.76C611.54,-63.04 615.01,-54.04 618.11,-45.99"/>
<polygon fill="black" stroke="black" points="621.47,-46.99 621.8,-36.41 614.94,-44.48 621.47,-46.99"/>
</g>
<!-- 290 -->
<g id="node11" class="node">
<title>290</title>
<polygon fill="#fdf4ee" stroke="black" points="1139.5,-155 801.5,-155 801.5,-72 1139.5,-72 1139.5,-155"/>
<text text-anchor="middle" x="970.5" y="-139.8" font-family="Times,serif" font-size="14.00">sdComm &lt;= 0.065</text>
<text text-anchor="middle" x="970.5" y="-124.8" font-family="Times,serif" font-size="14.00">gini = 0.801</text>
<text text-anchor="middle" x="970.5" y="-109.8" font-family="Times,serif" font-size="14.00">samples = 3760</text>
<text text-anchor="middle" x="970.5" y="-94.8" font-family="Times,serif" font-size="14.00">value = [1158, 162, 372, 272, 520, 912, 364]</text>
<text text-anchor="middle" x="970.5" y="-79.8" font-family="Times,serif" font-size="14.00">class = rku</text>
</g>
<!-- 289&#45;&gt;290 -->
<g id="edge10" class="edge">
<title>289&#45;&gt;290</title>
<path fill="none" stroke="black" d="M1082.17,-190.91C1067.98,-181.2 1052.72,-170.76 1038.19,-160.81"/>
<polygon fill="black" stroke="black" points="1039.95,-157.78 1029.72,-155.02 1036,-163.56 1039.95,-157.78"/>
</g>
<!-- 433 -->
<g id="node14" class="node">
<title>433</title>
<polygon fill="#fffdfe" stroke="black" points="1504,-155 1157,-155 1157,-72 1504,-72 1504,-155"/>
<text text-anchor="middle" x="1330.5" y="-139.8" font-family="Times,serif" font-size="14.00">CCR &lt;= 0.55</text>
<text text-anchor="middle" x="1330.5" y="-124.8" font-family="Times,serif" font-size="14.00">gini = 0.831</text>
<text text-anchor="middle" x="1330.5" y="-109.8" font-family="Times,serif" font-size="14.00">samples = 4526</text>
<text text-anchor="middle" x="1330.5" y="-94.8" font-family="Times,serif" font-size="14.00">value = [1032, 352, 510, 562, 326, 680, 1064]</text>
<text text-anchor="middle" x="1330.5" y="-79.8" font-family="Times,serif" font-size="14.00">class = rkuad</text>
</g>
<!-- 289&#45;&gt;433 -->
<g id="edge13" class="edge">
<title>289&#45;&gt;433</title>
<path fill="none" stroke="black" d="M1207.07,-190.91C1222.91,-181.11 1239.94,-170.56 1256.14,-160.53"/>
<polygon fill="black" stroke="black" points="1258.38,-163.26 1265.04,-155.02 1254.7,-157.31 1258.38,-163.26"/>
</g>
<!-- 291 -->
<g id="node12" class="node">
<title>291</title>
<polygon fill="#c0c0c0" stroke="black" points="961.5,-36 907.5,-36 907.5,0 961.5,0 961.5,-36"/>
<text text-anchor="middle" x="934.5" y="-14.3" font-family="Times,serif" font-size="14.00">(...)</text>
</g>
<!-- 290&#45;&gt;291 -->
<g id="edge11" class="edge">
<title>290&#45;&gt;291</title>
<path fill="none" stroke="black" d="M954.81,-71.76C951.46,-63.04 947.99,-54.04 944.89,-45.99"/>
<polygon fill="black" stroke="black" points="948.06,-44.48 941.2,-36.41 941.53,-46.99 948.06,-44.48"/>
</g>
<!-- 338 -->
<g id="node13" class="node">
<title>338</title>
<polygon fill="#c0c0c0" stroke="black" points="1033.5,-36 979.5,-36 979.5,0 1033.5,0 1033.5,-36"/>
<text text-anchor="middle" x="1006.5" y="-14.3" font-family="Times,serif" font-size="14.00">(...)</text>
</g>
<!-- 290&#45;&gt;338 -->
<g id="edge12" class="edge">
<title>290&#45;&gt;338</title>
<path fill="none" stroke="black" d="M986.19,-71.76C989.54,-63.04 993.01,-54.04 996.11,-45.99"/>
<polygon fill="black" stroke="black" points="999.47,-46.99 999.8,-36.41 992.94,-44.48 999.47,-46.99"/>
</g>
<!-- 434 -->
<g id="node15" class="node">
<title>434</title>
<polygon fill="#c0c0c0" stroke="black" points="1321.5,-36 1267.5,-36 1267.5,0 1321.5,0 1321.5,-36"/>
<text text-anchor="middle" x="1294.5" y="-14.3" font-family="Times,serif" font-size="14.00">(...)</text>
</g>
<!-- 433&#45;&gt;434 -->
<g id="edge14" class="edge">
<title>433&#45;&gt;434</title>
<path fill="none" stroke="black" d="M1314.81,-71.76C1311.46,-63.04 1307.99,-54.04 1304.89,-45.99"/>
<polygon fill="black" stroke="black" points="1308.06,-44.48 1301.2,-36.41 1301.53,-46.99 1308.06,-44.48"/>
</g>
<!-- 505 -->
<g id="node16" class="node">
<title>505</title>
<polygon fill="#c0c0c0" stroke="black" points="1393.5,-36 1339.5,-36 1339.5,0 1393.5,0 1393.5,-36"/>
<text text-anchor="middle" x="1366.5" y="-14.3" font-family="Times,serif" font-size="14.00">(...)</text>
</g>
<!-- 433&#45;&gt;505 -->
<g id="edge15" class="edge">
<title>433&#45;&gt;505</title>
<path fill="none" stroke="black" d="M1346.19,-71.76C1349.54,-63.04 1353.01,-54.04 1356.11,-45.99"/>
<polygon fill="black" stroke="black" points="1359.47,-46.99 1359.8,-36.41 1352.94,-44.48 1359.47,-46.99"/>
</g>
<!-- 577 -->
<g id="node18" class="node">
<title>577</title>
<polygon fill="#fffffe" stroke="black" points="2100.5,-274 1708.5,-274 1708.5,-191 2100.5,-191 2100.5,-274"/>
<text text-anchor="middle" x="1904.5" y="-258.8" font-family="Times,serif" font-size="14.00">sdComp &lt;= 2.0</text>
<text text-anchor="middle" x="1904.5" y="-243.8" font-family="Times,serif" font-size="14.00">gini = 0.843</text>
<text text-anchor="middle" x="1904.5" y="-228.8" font-family="Times,serif" font-size="14.00">samples = 37739</text>
<text text-anchor="middle" x="1904.5" y="-213.8" font-family="Times,serif" font-size="14.00">value = [7126, 7268, 2313, 4258, 4474, 5338, 6962]</text>
<text text-anchor="middle" x="1904.5" y="-198.8" font-family="Times,serif" font-size="14.00">class = random</text>
</g>
<!-- 576&#45;&gt;577 -->
<g id="edge17" class="edge">
<title>576&#45;&gt;577</title>
<path fill="none" stroke="black" d="M1904.5,-309.91C1904.5,-301.65 1904.5,-292.86 1904.5,-284.3"/>
<polygon fill="black" stroke="black" points="1908,-284.02 1904.5,-274.02 1901,-284.02 1908,-284.02"/>
</g>
<!-- 792 -->
<g id="node25" class="node">
<title>792</title>
<polygon fill="#ffffff" stroke="black" points="2693,-274 2310,-274 2310,-191 2693,-191 2693,-274"/>
<text text-anchor="middle" x="2501.5" y="-258.8" font-family="Times,serif" font-size="14.00">nbproc &lt;= 4.5</text>
<text text-anchor="middle" x="2501.5" y="-243.8" font-family="Times,serif" font-size="14.00">gini = 0.85</text>
<text text-anchor="middle" x="2501.5" y="-228.8" font-family="Times,serif" font-size="14.00">samples = 9288</text>
<text text-anchor="middle" x="2501.5" y="-213.8" font-family="Times,serif" font-size="14.00">value = [1594, 1348, 818, 1108, 1624, 1178, 1618]</text>
<text text-anchor="middle" x="2501.5" y="-198.8" font-family="Times,serif" font-size="14.00">class = cluHPS</text>
</g>
<!-- 576&#45;&gt;792 -->
<g id="edge24" class="edge">
<title>576&#45;&gt;792</title>
<path fill="none" stroke="black" d="M2100.81,-312.03C2164.73,-299.5 2235.77,-285.58 2300.06,-272.98"/>
<polygon fill="black" stroke="black" points="2300.76,-276.41 2309.9,-271.05 2299.42,-269.54 2300.76,-276.41"/>
</g>
<!-- 578 -->
<g id="node19" class="node">
<title>578</title>
<polygon fill="#fafdf2" stroke="black" points="1905,-155 1522,-155 1522,-72 1905,-72 1905,-155"/>
<text text-anchor="middle" x="1713.5" y="-139.8" font-family="Times,serif" font-size="14.00">nbproc &lt;= 4.5</text>
<text text-anchor="middle" x="1713.5" y="-124.8" font-family="Times,serif" font-size="14.00">gini = 0.836</text>
<text text-anchor="middle" x="1713.5" y="-109.8" font-family="Times,serif" font-size="14.00">samples = 13498</text>
<text text-anchor="middle" x="1713.5" y="-94.8" font-family="Times,serif" font-size="14.00">value = [2408, 3132, 716, 1588, 1388, 1836, 2430]</text>
<text text-anchor="middle" x="1713.5" y="-79.8" font-family="Times,serif" font-size="14.00">class = random</text>
</g>
<!-- 577&#45;&gt;578 -->
<g id="edge18" class="edge">
<title>577&#45;&gt;578</title>
<path fill="none" stroke="black" d="M1838.23,-190.91C1822.09,-181.02 1804.7,-170.37 1788.19,-160.25"/>
<polygon fill="black" stroke="black" points="1790,-157.26 1779.65,-155.02 1786.35,-163.23 1790,-157.26"/>
</g>
<!-- 649 -->
<g id="node22" class="node">
<title>649</title>
<polygon fill="#fffefd" stroke="black" points="2314.5,-155 1922.5,-155 1922.5,-72 2314.5,-72 2314.5,-155"/>
<text text-anchor="middle" x="2118.5" y="-139.8" font-family="Times,serif" font-size="14.00">nbproc &lt;= 4.5</text>
<text text-anchor="middle" x="2118.5" y="-124.8" font-family="Times,serif" font-size="14.00">gini = 0.845</text>
<text text-anchor="middle" x="2118.5" y="-109.8" font-family="Times,serif" font-size="14.00">samples = 24241</text>
<text text-anchor="middle" x="2118.5" y="-94.8" font-family="Times,serif" font-size="14.00">value = [4718, 4136, 1597, 2670, 3086, 3502, 4532]</text>
<text text-anchor="middle" x="2118.5" y="-79.8" font-family="Times,serif" font-size="14.00">class = rku</text>
</g>
<!-- 577&#45;&gt;649 -->
<g id="edge21" class="edge">
<title>577&#45;&gt;649</title>
<path fill="none" stroke="black" d="M1978.75,-190.91C1997.09,-180.88 2016.85,-170.07 2035.58,-159.84"/>
<polygon fill="black" stroke="black" points="2037.29,-162.89 2044.39,-155.02 2033.93,-156.75 2037.29,-162.89"/>
</g>
<!-- 579 -->
<g id="node20" class="node">
<title>579</title>
<polygon fill="#c0c0c0" stroke="black" points="1704.5,-36 1650.5,-36 1650.5,0 1704.5,0 1704.5,-36"/>
<text text-anchor="middle" x="1677.5" y="-14.3" font-family="Times,serif" font-size="14.00">(...)</text>
</g>
<!-- 578&#45;&gt;579 -->
<g id="edge19" class="edge">
<title>578&#45;&gt;579</title>
<path fill="none" stroke="black" d="M1697.81,-71.76C1694.46,-63.04 1690.99,-54.04 1687.89,-45.99"/>
<polygon fill="black" stroke="black" points="1691.06,-44.48 1684.2,-36.41 1684.53,-46.99 1691.06,-44.48"/>
</g>
<!-- 614 -->
<g id="node21" class="node">
<title>614</title>
<polygon fill="#c0c0c0" stroke="black" points="1776.5,-36 1722.5,-36 1722.5,0 1776.5,0 1776.5,-36"/>
<text text-anchor="middle" x="1749.5" y="-14.3" font-family="Times,serif" font-size="14.00">(...)</text>
</g>
<!-- 578&#45;&gt;614 -->
<g id="edge20" class="edge">
<title>578&#45;&gt;614</title>
<path fill="none" stroke="black" d="M1729.19,-71.76C1732.54,-63.04 1736.01,-54.04 1739.11,-45.99"/>
<polygon fill="black" stroke="black" points="1742.47,-46.99 1742.8,-36.41 1735.94,-44.48 1742.47,-46.99"/>
</g>
<!-- 650 -->
<g id="node23" class="node">
<title>650</title>
<polygon fill="#c0c0c0" stroke="black" points="2109.5,-36 2055.5,-36 2055.5,0 2109.5,0 2109.5,-36"/>
<text text-anchor="middle" x="2082.5" y="-14.3" font-family="Times,serif" font-size="14.00">(...)</text>
</g>
<!-- 649&#45;&gt;650 -->
<g id="edge22" class="edge">
<title>649&#45;&gt;650</title>
<path fill="none" stroke="black" d="M2102.81,-71.76C2099.46,-63.04 2095.99,-54.04 2092.89,-45.99"/>
<polygon fill="black" stroke="black" points="2096.06,-44.48 2089.2,-36.41 2089.53,-46.99 2096.06,-44.48"/>
</g>
<!-- 721 -->
<g id="node24" class="node">
<title>721</title>
<polygon fill="#c0c0c0" stroke="black" points="2181.5,-36 2127.5,-36 2127.5,0 2181.5,0 2181.5,-36"/>
<text text-anchor="middle" x="2154.5" y="-14.3" font-family="Times,serif" font-size="14.00">(...)</text>
</g>
<!-- 649&#45;&gt;721 -->
<g id="edge23" class="edge">
<title>649&#45;&gt;721</title>
<path fill="none" stroke="black" d="M2134.19,-71.76C2137.54,-63.04 2141.01,-54.04 2144.11,-45.99"/>
<polygon fill="black" stroke="black" points="2147.47,-46.99 2147.8,-36.41 2140.94,-44.48 2147.47,-46.99"/>
</g>
<!-- 793 -->
<g id="node26" class="node">
<title>793</title>
<polygon fill="#eff1fd" stroke="black" points="2670.5,-155 2332.5,-155 2332.5,-72 2670.5,-72 2670.5,-155"/>
<text text-anchor="middle" x="2501.5" y="-139.8" font-family="Times,serif" font-size="14.00">graphDepth &lt;= 25.5</text>
<text text-anchor="middle" x="2501.5" y="-124.8" font-family="Times,serif" font-size="14.00">gini = 0.843</text>
<text text-anchor="middle" x="2501.5" y="-109.8" font-family="Times,serif" font-size="14.00">samples = 4628</text>
<text text-anchor="middle" x="2501.5" y="-94.8" font-family="Times,serif" font-size="14.00">value = [680, 580, 436, 552, 1096, 500, 784]</text>
<text text-anchor="middle" x="2501.5" y="-79.8" font-family="Times,serif" font-size="14.00">class = cluHPS</text>
</g>
<!-- 792&#45;&gt;793 -->
<g id="edge25" class="edge">
<title>792&#45;&gt;793</title>
<path fill="none" stroke="black" d="M2501.5,-190.91C2501.5,-182.65 2501.5,-173.86 2501.5,-165.3"/>
<polygon fill="black" stroke="black" points="2505,-165.02 2501.5,-155.02 2498,-165.02 2505,-165.02"/>
</g>
<!-- 828 -->
<g id="node29" class="node">
<title>828</title>
<polygon fill="#fefcfb" stroke="black" points="3017,-155 2688,-155 2688,-72 3017,-72 3017,-155"/>
<text text-anchor="middle" x="2852.5" y="-139.8" font-family="Times,serif" font-size="14.00">graphDepth &lt;= 25.5</text>
<text text-anchor="middle" x="2852.5" y="-124.8" font-family="Times,serif" font-size="14.00">gini = 0.847</text>
<text text-anchor="middle" x="2852.5" y="-109.8" font-family="Times,serif" font-size="14.00">samples = 4660</text>
<text text-anchor="middle" x="2852.5" y="-94.8" font-family="Times,serif" font-size="14.00">value = [914, 768, 382, 556, 528, 678, 834]</text>
<text text-anchor="middle" x="2852.5" y="-79.8" font-family="Times,serif" font-size="14.00">class = rku</text>
</g>
<!-- 792&#45;&gt;828 -->
<g id="edge28" class="edge">
<title>792&#45;&gt;828</title>
<path fill="none" stroke="black" d="M2623.28,-190.91C2654.86,-180.38 2689.01,-169 2721.06,-158.31"/>
<polygon fill="black" stroke="black" points="2722.56,-161.5 2730.94,-155.02 2720.34,-154.86 2722.56,-161.5"/>
</g>
<!-- 794 -->
<g id="node27" class="node">
<title>794</title>
<polygon fill="#c0c0c0" stroke="black" points="2492.5,-36 2438.5,-36 2438.5,0 2492.5,0 2492.5,-36"/>
<text text-anchor="middle" x="2465.5" y="-14.3" font-family="Times,serif" font-size="14.00">(...)</text>
</g>
<!-- 793&#45;&gt;794 -->
<g id="edge26" class="edge">
<title>793&#45;&gt;794</title>
<path fill="none" stroke="black" d="M2485.81,-71.76C2482.46,-63.04 2478.99,-54.04 2475.89,-45.99"/>
<polygon fill="black" stroke="black" points="2479.06,-44.48 2472.2,-36.41 2472.53,-46.99 2479.06,-44.48"/>
</g>
<!-- 811 -->
<g id="node28" class="node">
<title>811</title>
<polygon fill="#c0c0c0" stroke="black" points="2564.5,-36 2510.5,-36 2510.5,0 2564.5,0 2564.5,-36"/>
<text text-anchor="middle" x="2537.5" y="-14.3" font-family="Times,serif" font-size="14.00">(...)</text>
</g>
<!-- 793&#45;&gt;811 -->
<g id="edge27" class="edge">
<title>793&#45;&gt;811</title>
<path fill="none" stroke="black" d="M2517.19,-71.76C2520.54,-63.04 2524.01,-54.04 2527.11,-45.99"/>
<polygon fill="black" stroke="black" points="2530.47,-46.99 2530.8,-36.41 2523.94,-44.48 2530.47,-46.99"/>
</g>
<!-- 829 -->
<g id="node30" class="node">
<title>829</title>
<polygon fill="#c0c0c0" stroke="black" points="2843.5,-36 2789.5,-36 2789.5,0 2843.5,0 2843.5,-36"/>
<text text-anchor="middle" x="2816.5" y="-14.3" font-family="Times,serif" font-size="14.00">(...)</text>
</g>
<!-- 828&#45;&gt;829 -->
<g id="edge29" class="edge">
<title>828&#45;&gt;829</title>
<path fill="none" stroke="black" d="M2836.81,-71.76C2833.46,-63.04 2829.99,-54.04 2826.89,-45.99"/>
<polygon fill="black" stroke="black" points="2830.06,-44.48 2823.2,-36.41 2823.53,-46.99 2830.06,-44.48"/>
</g>
<!-- 846 -->
<g id="node31" class="node">
<title>846</title>
<polygon fill="#c0c0c0" stroke="black" points="2915.5,-36 2861.5,-36 2861.5,0 2915.5,0 2915.5,-36"/>
<text text-anchor="middle" x="2888.5" y="-14.3" font-family="Times,serif" font-size="14.00">(...)</text>
</g>
<!-- 828&#45;&gt;846 -->
<g id="edge30" class="edge">
<title>828&#45;&gt;846</title>
<path fill="none" stroke="black" d="M2868.19,-71.76C2871.54,-63.04 2875.01,-54.04 2878.11,-45.99"/>
<polygon fill="black" stroke="black" points="2881.47,-46.99 2881.8,-36.41 2874.94,-44.48 2881.47,-46.99"/>
</g>
</g>
</svg>
