<?xml version="1.0" encoding="UTF-8" standalone="no"?>
<!DOCTYPE svg PUBLIC "-//W3C//DTD SVG 1.1//EN"
 "http://www.w3.org/Graphics/SVG/1.1/DTD/svg11.dtd">
<!-- Generated by graphviz version 2.43.0 (0)
 -->
<!-- Title: Tree Pages: 1 -->
<svg width="1460pt" height="520pt"
 viewBox="0.00 0.00 1460.00 520.00" xmlns="http://www.w3.org/2000/svg" xmlns:xlink="http://www.w3.org/1999/xlink">
<g id="graph0" class="graph" transform="scale(1 1) rotate(0) translate(4 516)">
<title>Tree</title>
<polygon fill="white" stroke="transparent" points="-4,4 -4,-516 1456,-516 1456,4 -4,4"/>
<!-- 0 -->
<g id="node1" class="node">
<title>0</title>
<polygon fill="#ffffff" stroke="black" points="795,-512 610,-512 610,-429 795,-429 795,-512"/>
<text text-anchor="middle" x="702.5" y="-496.8" font-family="Times,serif" font-size="14.00">CCR &lt;= 5.5</text>
<text text-anchor="middle" x="702.5" y="-481.8" font-family="Times,serif" font-size="14.00">gini = 0.5</text>
<text text-anchor="middle" x="702.5" y="-466.8" font-family="Times,serif" font-size="14.00">samples = 104915</text>
<text text-anchor="middle" x="702.5" y="-451.8" font-family="Times,serif" font-size="14.00">value = [52451, 52464]</text>
<text text-anchor="middle" x="702.5" y="-436.8" font-family="Times,serif" font-size="14.00">class = True</text>
</g>
<!-- 1 -->
<g id="node2" class="node">
<title>1</title>
<polygon fill="#dceefa" stroke="black" points="633,-393 448,-393 448,-310 633,-310 633,-393"/>
<text text-anchor="middle" x="540.5" y="-377.8" font-family="Times,serif" font-size="14.00">graphSize &lt;= 75.0</text>
<text text-anchor="middle" x="540.5" y="-362.8" font-family="Times,serif" font-size="14.00">gini = 0.495</text>
<text text-anchor="middle" x="540.5" y="-347.8" font-family="Times,serif" font-size="14.00">samples = 57888</text>
<text text-anchor="middle" x="540.5" y="-332.8" font-family="Times,serif" font-size="14.00">value = [26179, 31709]</text>
<text text-anchor="middle" x="540.5" y="-317.8" font-family="Times,serif" font-size="14.00">class = True</text>
</g>
<!-- 0&#45;&gt;1 -->
<g id="edge1" class="edge">
<title>0&#45;&gt;1</title>
<path fill="none" stroke="black" d="M646.29,-428.91C632.98,-419.29 618.67,-408.95 605.01,-399.09"/>
<polygon fill="black" stroke="black" points="606.76,-396.04 596.61,-393.02 602.66,-401.71 606.76,-396.04"/>
<text text-anchor="middle" x="600.59" y="-414" font-family="Times,serif" font-size="14.00">True</text>
</g>
<!-- 570 -->
<g id="node17" class="node">
<title>570</title>
<polygon fill="#fae5d5" stroke="black" points="985,-393 800,-393 800,-310 985,-310 985,-393"/>
<text text-anchor="middle" x="892.5" y="-377.8" font-family="Times,serif" font-size="14.00">graphDepth &lt;= 3.5</text>
<text text-anchor="middle" x="892.5" y="-362.8" font-family="Times,serif" font-size="14.00">gini = 0.493</text>
<text text-anchor="middle" x="892.5" y="-347.8" font-family="Times,serif" font-size="14.00">samples = 47027</text>
<text text-anchor="middle" x="892.5" y="-332.8" font-family="Times,serif" font-size="14.00">value = [26272, 20755]</text>
<text text-anchor="middle" x="892.5" y="-317.8" font-family="Times,serif" font-size="14.00">class = False</text>
</g>
<!-- 0&#45;&gt;570 -->
<g id="edge16" class="edge">
<title>0&#45;&gt;570</title>
<path fill="none" stroke="black" d="M768.42,-428.91C784.34,-419.11 801.46,-408.56 817.75,-398.53"/>
<polygon fill="black" stroke="black" points="820.02,-401.24 826.7,-393.02 816.35,-395.28 820.02,-401.24"/>
<text text-anchor="middle" x="820.91" y="-413.64" font-family="Times,serif" font-size="14.00">False</text>
</g>
<!-- 2 -->
<g id="node3" class="node">
<title>2</title>
<polygon fill="#e1f0fb" stroke="black" points="379,-274 194,-274 194,-191 379,-191 379,-274"/>
<text text-anchor="middle" x="286.5" y="-258.8" font-family="Times,serif" font-size="14.00">sdComm &lt;= 0.65</text>
<text text-anchor="middle" x="286.5" y="-243.8" font-family="Times,serif" font-size="14.00">gini = 0.497</text>
<text text-anchor="middle" x="286.5" y="-228.8" font-family="Times,serif" font-size="14.00">samples = 54396</text>
<text text-anchor="middle" x="286.5" y="-213.8" font-family="Times,serif" font-size="14.00">value = [24953, 29443]</text>
<text text-anchor="middle" x="286.5" y="-198.8" font-family="Times,serif" font-size="14.00">class = True</text>
</g>
<!-- 1&#45;&gt;2 -->
<g id="edge2" class="edge">
<title>1&#45;&gt;2</title>
<path fill="none" stroke="black" d="M452.38,-309.91C430.21,-299.7 406.3,-288.68 383.72,-278.28"/>
<polygon fill="black" stroke="black" points="385.02,-275.03 374.47,-274.02 382.09,-281.38 385.02,-275.03"/>
</g>
<!-- 433 -->
<g id="node10" class="node">
<title>433</title>
<polygon fill="#a4d2f3" stroke="black" points="624,-274 457,-274 457,-191 624,-191 624,-274"/>
<text text-anchor="middle" x="540.5" y="-258.8" font-family="Times,serif" font-size="14.00">graphDepth &lt;= 25.5</text>
<text text-anchor="middle" x="540.5" y="-243.8" font-family="Times,serif" font-size="14.00">gini = 0.456</text>
<text text-anchor="middle" x="540.5" y="-228.8" font-family="Times,serif" font-size="14.00">samples = 3492</text>
<text text-anchor="middle" x="540.5" y="-213.8" font-family="Times,serif" font-size="14.00">value = [1226, 2266]</text>
<text text-anchor="middle" x="540.5" y="-198.8" font-family="Times,serif" font-size="14.00">class = True</text>
</g>
<!-- 1&#45;&gt;433 -->
<g id="edge9" class="edge">
<title>1&#45;&gt;433</title>
<path fill="none" stroke="black" d="M540.5,-309.91C540.5,-301.65 540.5,-292.86 540.5,-284.3"/>
<polygon fill="black" stroke="black" points="544,-284.02 540.5,-274.02 537,-284.02 544,-284.02"/>
</g>
<!-- 3 -->
<g id="node4" class="node">
<title>3</title>
<polygon fill="#e4f2fb" stroke="black" points="185,-155 0,-155 0,-72 185,-72 185,-155"/>
<text text-anchor="middle" x="92.5" y="-139.8" font-family="Times,serif" font-size="14.00">graphSize &lt;= 22.5</text>
<text text-anchor="middle" x="92.5" y="-124.8" font-family="Times,serif" font-size="14.00">gini = 0.497</text>
<text text-anchor="middle" x="92.5" y="-109.8" font-family="Times,serif" font-size="14.00">samples = 47122</text>
<text text-anchor="middle" x="92.5" y="-94.8" font-family="Times,serif" font-size="14.00">value = [21823, 25299]</text>
<text text-anchor="middle" x="92.5" y="-79.8" font-family="Times,serif" font-size="14.00">class = True</text>
</g>
<!-- 2&#45;&gt;3 -->
<g id="edge3" class="edge">
<title>2&#45;&gt;3</title>
<path fill="none" stroke="black" d="M219.19,-190.91C202.79,-181.02 185.14,-170.37 168.37,-160.25"/>
<polygon fill="black" stroke="black" points="170.06,-157.19 159.69,-155.02 166.44,-163.18 170.06,-157.19"/>
</g>
<!-- 362 -->
<g id="node7" class="node">
<title>362</title>
<polygon fill="#cfe7f9" stroke="black" points="370,-155 203,-155 203,-72 370,-72 370,-155"/>
<text text-anchor="middle" x="286.5" y="-139.8" font-family="Times,serif" font-size="14.00">sdComp &lt;= 0.65</text>
<text text-anchor="middle" x="286.5" y="-124.8" font-family="Times,serif" font-size="14.00">gini = 0.49</text>
<text text-anchor="middle" x="286.5" y="-109.8" font-family="Times,serif" font-size="14.00">samples = 7274</text>
<text text-anchor="middle" x="286.5" y="-94.8" font-family="Times,serif" font-size="14.00">value = [3130, 4144]</text>
<text text-anchor="middle" x="286.5" y="-79.8" font-family="Times,serif" font-size="14.00">class = True</text>
</g>
<!-- 2&#45;&gt;362 -->
<g id="edge6" class="edge">
<title>2&#45;&gt;362</title>
<path fill="none" stroke="black" d="M286.5,-190.91C286.5,-182.65 286.5,-173.86 286.5,-165.3"/>
<polygon fill="black" stroke="black" points="290,-165.02 286.5,-155.02 283,-165.02 290,-165.02"/>
</g>
<!-- 4 -->
<g id="node5" class="node">
<title>4</title>
<polygon fill="#c0c0c0" stroke="black" points="83.5,-36 29.5,-36 29.5,0 83.5,0 83.5,-36"/>
<text text-anchor="middle" x="56.5" y="-14.3" font-family="Times,serif" font-size="14.00">(...)</text>
</g>
<!-- 3&#45;&gt;4 -->
<g id="edge4" class="edge">
<title>3&#45;&gt;4</title>
<path fill="none" stroke="black" d="M76.81,-71.76C73.46,-63.04 69.99,-54.04 66.89,-45.99"/>
<polygon fill="black" stroke="black" points="70.06,-44.48 63.2,-36.41 63.53,-46.99 70.06,-44.48"/>
</g>
<!-- 123 -->
<g id="node6" class="node">
<title>123</title>
<polygon fill="#c0c0c0" stroke="black" points="155.5,-36 101.5,-36 101.5,0 155.5,0 155.5,-36"/>
<text text-anchor="middle" x="128.5" y="-14.3" font-family="Times,serif" font-size="14.00">(...)</text>
</g>
<!-- 3&#45;&gt;123 -->
<g id="edge5" class="edge">
<title>3&#45;&gt;123</title>
<path fill="none" stroke="black" d="M108.19,-71.76C111.54,-63.04 115.01,-54.04 118.11,-45.99"/>
<polygon fill="black" stroke="black" points="121.47,-46.99 121.8,-36.41 114.94,-44.48 121.47,-46.99"/>
</g>
<!-- 363 -->
<g id="node8" class="node">
<title>363</title>
<polygon fill="#c0c0c0" stroke="black" points="272.5,-36 218.5,-36 218.5,0 272.5,0 272.5,-36"/>
<text text-anchor="middle" x="245.5" y="-14.3" font-family="Times,serif" font-size="14.00">(...)</text>
</g>
<!-- 362&#45;&gt;363 -->
<g id="edge7" class="edge">
<title>362&#45;&gt;363</title>
<path fill="none" stroke="black" d="M268.64,-71.76C264.77,-62.94 260.78,-53.84 257.22,-45.72"/>
<polygon fill="black" stroke="black" points="260.35,-44.16 253.13,-36.41 253.94,-46.97 260.35,-44.16"/>
</g>
<!-- 410 -->
<g id="node9" class="node">
<title>410</title>
<polygon fill="#c0c0c0" stroke="black" points="344.5,-36 290.5,-36 290.5,0 344.5,0 344.5,-36"/>
<text text-anchor="middle" x="317.5" y="-14.3" font-family="Times,serif" font-size="14.00">(...)</text>
</g>
<!-- 362&#45;&gt;410 -->
<g id="edge8" class="edge">
<title>362&#45;&gt;410</title>
<path fill="none" stroke="black" d="M300.01,-71.76C302.9,-63.04 305.88,-54.04 308.55,-45.99"/>
<polygon fill="black" stroke="black" points="311.9,-47 311.73,-36.41 305.26,-44.8 311.9,-47"/>
</g>
<!-- 434 -->
<g id="node11" class="node">
<title>434</title>
<polygon fill="#88c4ef" stroke="black" points="545.5,-155 387.5,-155 387.5,-72 545.5,-72 545.5,-155"/>
<text text-anchor="middle" x="466.5" y="-139.8" font-family="Times,serif" font-size="14.00">nbproc &lt;= 4.5</text>
<text text-anchor="middle" x="466.5" y="-124.8" font-family="Times,serif" font-size="14.00">gini = 0.408</text>
<text text-anchor="middle" x="466.5" y="-109.8" font-family="Times,serif" font-size="14.00">samples = 1790</text>
<text text-anchor="middle" x="466.5" y="-94.8" font-family="Times,serif" font-size="14.00">value = [512, 1278]</text>
<text text-anchor="middle" x="466.5" y="-79.8" font-family="Times,serif" font-size="14.00">class = True</text>
</g>
<!-- 433&#45;&gt;434 -->
<g id="edge10" class="edge">
<title>433&#45;&gt;434</title>
<path fill="none" stroke="black" d="M514.83,-190.91C509.26,-182.1 503.31,-172.7 497.56,-163.61"/>
<polygon fill="black" stroke="black" points="500.43,-161.6 492.13,-155.02 494.52,-165.34 500.43,-161.6"/>
</g>
<!-- 499 -->
<g id="node14" class="node">
<title>499</title>
<polygon fill="#c8e4f8" stroke="black" points="712,-155 563,-155 563,-72 712,-72 712,-155"/>
<text text-anchor="middle" x="637.5" y="-139.8" font-family="Times,serif" font-size="14.00">sdComp &lt;= 0.65</text>
<text text-anchor="middle" x="637.5" y="-124.8" font-family="Times,serif" font-size="14.00">gini = 0.487</text>
<text text-anchor="middle" x="637.5" y="-109.8" font-family="Times,serif" font-size="14.00">samples = 1702</text>
<text text-anchor="middle" x="637.5" y="-94.8" font-family="Times,serif" font-size="14.00">value = [714, 988]</text>
<text text-anchor="middle" x="637.5" y="-79.8" font-family="Times,serif" font-size="14.00">class = True</text>
</g>
<!-- 433&#45;&gt;499 -->
<g id="edge13" class="edge">
<title>433&#45;&gt;499</title>
<path fill="none" stroke="black" d="M574.15,-190.91C581.68,-181.83 589.73,-172.12 597.48,-162.77"/>
<polygon fill="black" stroke="black" points="600.22,-164.95 603.91,-155.02 594.83,-160.49 600.22,-164.95"/>
</g>
<!-- 435 -->
<g id="node12" class="node">
<title>435</title>
<polygon fill="#c0c0c0" stroke="black" points="434.5,-36 380.5,-36 380.5,0 434.5,0 434.5,-36"/>
<text text-anchor="middle" x="407.5" y="-14.3" font-family="Times,serif" font-size="14.00">(...)</text>
</g>
<!-- 434&#45;&gt;435 -->
<g id="edge11" class="edge">
<title>434&#45;&gt;435</title>
<path fill="none" stroke="black" d="M440.79,-71.76C435.05,-62.65 429.1,-53.24 423.86,-44.92"/>
<polygon fill="black" stroke="black" points="426.78,-42.99 418.48,-36.41 420.86,-46.73 426.78,-42.99"/>
</g>
<!-- 464 -->
<g id="node13" class="node">
<title>464</title>
<polygon fill="#c0c0c0" stroke="black" points="506.5,-36 452.5,-36 452.5,0 506.5,0 506.5,-36"/>
<text text-anchor="middle" x="479.5" y="-14.3" font-family="Times,serif" font-size="14.00">(...)</text>
</g>
<!-- 434&#45;&gt;464 -->
<g id="edge12" class="edge">
<title>434&#45;&gt;464</title>
<path fill="none" stroke="black" d="M472.16,-71.76C473.35,-63.24 474.57,-54.44 475.67,-46.53"/>
<polygon fill="black" stroke="black" points="479.17,-46.79 477.08,-36.41 472.24,-45.83 479.17,-46.79"/>
</g>
<!-- 500 -->
<g id="node15" class="node">
<title>500</title>
<polygon fill="#c0c0c0" stroke="black" points="603.5,-36 549.5,-36 549.5,0 603.5,0 603.5,-36"/>
<text text-anchor="middle" x="576.5" y="-14.3" font-family="Times,serif" font-size="14.00">(...)</text>
</g>
<!-- 499&#45;&gt;500 -->
<g id="edge14" class="edge">
<title>499&#45;&gt;500</title>
<path fill="none" stroke="black" d="M610.92,-71.76C604.98,-62.65 598.84,-53.24 593.41,-44.92"/>
<polygon fill="black" stroke="black" points="596.25,-42.87 587.86,-36.41 590.39,-46.69 596.25,-42.87"/>
</g>
<!-- 559 -->
<g id="node16" class="node">
<title>559</title>
<polygon fill="#c0c0c0" stroke="black" points="675.5,-36 621.5,-36 621.5,0 675.5,0 675.5,-36"/>
<text text-anchor="middle" x="648.5" y="-14.3" font-family="Times,serif" font-size="14.00">(...)</text>
</g>
<!-- 499&#45;&gt;559 -->
<g id="edge15" class="edge">
<title>499&#45;&gt;559</title>
<path fill="none" stroke="black" d="M642.29,-71.76C643.3,-63.24 644.33,-54.44 645.26,-46.53"/>
<polygon fill="black" stroke="black" points="648.76,-46.75 646.45,-36.41 641.81,-45.93 648.76,-46.75"/>
</g>
<!-- 571 -->
<g id="node18" class="node">
<title>571</title>
<polygon fill="#fef9f6" stroke="black" points="976,-274 809,-274 809,-191 976,-191 976,-274"/>
<text text-anchor="middle" x="892.5" y="-258.8" font-family="Times,serif" font-size="14.00">sdComm &lt;= 2.0</text>
<text text-anchor="middle" x="892.5" y="-243.8" font-family="Times,serif" font-size="14.00">gini = 0.5</text>
<text text-anchor="middle" x="892.5" y="-228.8" font-family="Times,serif" font-size="14.00">samples = 3826</text>
<text text-anchor="middle" x="892.5" y="-213.8" font-family="Times,serif" font-size="14.00">value = [1959, 1867]</text>
<text text-anchor="middle" x="892.5" y="-198.8" font-family="Times,serif" font-size="14.00">class = False</text>
</g>
<!-- 570&#45;&gt;571 -->
<g id="edge17" class="edge">
<title>570&#45;&gt;571</title>
<path fill="none" stroke="black" d="M892.5,-309.91C892.5,-301.65 892.5,-292.86 892.5,-284.3"/>
<polygon fill="black" stroke="black" points="896,-284.02 892.5,-274.02 889,-284.02 896,-284.02"/>
</g>
<!-- 606 -->
<g id="node25" class="node">
<title>606</title>
<polygon fill="#f9e3d3" stroke="black" points="1267,-274 1082,-274 1082,-191 1267,-191 1267,-274"/>
<text text-anchor="middle" x="1174.5" y="-258.8" font-family="Times,serif" font-size="14.00">graphDepth &lt;= 25.5</text>
<text text-anchor="middle" x="1174.5" y="-243.8" font-family="Times,serif" font-size="14.00">gini = 0.492</text>
<text text-anchor="middle" x="1174.5" y="-228.8" font-family="Times,serif" font-size="14.00">samples = 43201</text>
<text text-anchor="middle" x="1174.5" y="-213.8" font-family="Times,serif" font-size="14.00">value = [24313, 18888]</text>
<text text-anchor="middle" x="1174.5" y="-198.8" font-family="Times,serif" font-size="14.00">class = False</text>
</g>
<!-- 570&#45;&gt;606 -->
<g id="edge24" class="edge">
<title>570&#45;&gt;606</title>
<path fill="none" stroke="black" d="M985.23,-312.03C1013.06,-300.48 1043.75,-287.75 1072.17,-275.95"/>
<polygon fill="black" stroke="black" points="1073.82,-279.06 1081.72,-272 1071.14,-272.59 1073.82,-279.06"/>
</g>
<!-- 572 -->
<g id="node19" class="node">
<title>572</title>
<polygon fill="#eff7fd" stroke="black" points="879,-155 730,-155 730,-72 879,-72 879,-155"/>
<text text-anchor="middle" x="804.5" y="-139.8" font-family="Times,serif" font-size="14.00">nbproc &lt;= 4.5</text>
<text text-anchor="middle" x="804.5" y="-124.8" font-family="Times,serif" font-size="14.00">gini = 0.499</text>
<text text-anchor="middle" x="804.5" y="-109.8" font-family="Times,serif" font-size="14.00">samples = 1386</text>
<text text-anchor="middle" x="804.5" y="-94.8" font-family="Times,serif" font-size="14.00">value = [664, 722]</text>
<text text-anchor="middle" x="804.5" y="-79.8" font-family="Times,serif" font-size="14.00">class = True</text>
</g>
<!-- 571&#45;&gt;572 -->
<g id="edge18" class="edge">
<title>571&#45;&gt;572</title>
<path fill="none" stroke="black" d="M861.97,-190.91C855.21,-181.92 847.98,-172.32 841.02,-163.05"/>
<polygon fill="black" stroke="black" points="843.79,-160.91 834.98,-155.02 838.19,-165.12 843.79,-160.91"/>
</g>
<!-- 583 -->
<g id="node22" class="node">
<title>583</title>
<polygon fill="#fcf0e8" stroke="black" points="1064,-155 897,-155 897,-72 1064,-72 1064,-155"/>
<text text-anchor="middle" x="980.5" y="-139.8" font-family="Times,serif" font-size="14.00">sdComp &lt;= 6.5</text>
<text text-anchor="middle" x="980.5" y="-124.8" font-family="Times,serif" font-size="14.00">gini = 0.498</text>
<text text-anchor="middle" x="980.5" y="-109.8" font-family="Times,serif" font-size="14.00">samples = 2440</text>
<text text-anchor="middle" x="980.5" y="-94.8" font-family="Times,serif" font-size="14.00">value = [1295, 1145]</text>
<text text-anchor="middle" x="980.5" y="-79.8" font-family="Times,serif" font-size="14.00">class = False</text>
</g>
<!-- 571&#45;&gt;583 -->
<g id="edge21" class="edge">
<title>571&#45;&gt;583</title>
<path fill="none" stroke="black" d="M923.03,-190.91C929.79,-181.92 937.02,-172.32 943.98,-163.05"/>
<polygon fill="black" stroke="black" points="946.81,-165.12 950.02,-155.02 941.21,-160.91 946.81,-165.12"/>
</g>
<!-- 573 -->
<g id="node20" class="node">
<title>573</title>
<polygon fill="#c0c0c0" stroke="black" points="775.5,-36 721.5,-36 721.5,0 775.5,0 775.5,-36"/>
<text text-anchor="middle" x="748.5" y="-14.3" font-family="Times,serif" font-size="14.00">(...)</text>
</g>
<!-- 572&#45;&gt;573 -->
<g id="edge19" class="edge">
<title>572&#45;&gt;573</title>
<path fill="none" stroke="black" d="M780.1,-71.76C774.7,-62.75 769.13,-53.44 764.19,-45.19"/>
<polygon fill="black" stroke="black" points="767.07,-43.19 758.92,-36.41 761.06,-46.78 767.07,-43.19"/>
</g>
<!-- 578 -->
<g id="node21" class="node">
<title>578</title>
<polygon fill="#c0c0c0" stroke="black" points="847.5,-36 793.5,-36 793.5,0 847.5,0 847.5,-36"/>
<text text-anchor="middle" x="820.5" y="-14.3" font-family="Times,serif" font-size="14.00">(...)</text>
</g>
<!-- 572&#45;&gt;578 -->
<g id="edge20" class="edge">
<title>572&#45;&gt;578</title>
<path fill="none" stroke="black" d="M811.47,-71.76C812.93,-63.24 814.44,-54.44 815.79,-46.53"/>
<polygon fill="black" stroke="black" points="819.28,-46.85 817.52,-36.41 812.38,-45.67 819.28,-46.85"/>
</g>
<!-- 584 -->
<g id="node23" class="node">
<title>584</title>
<polygon fill="#c0c0c0" stroke="black" points="960.5,-36 906.5,-36 906.5,0 960.5,0 960.5,-36"/>
<text text-anchor="middle" x="933.5" y="-14.3" font-family="Times,serif" font-size="14.00">(...)</text>
</g>
<!-- 583&#45;&gt;584 -->
<g id="edge22" class="edge">
<title>583&#45;&gt;584</title>
<path fill="none" stroke="black" d="M960.02,-71.76C955.54,-62.85 950.91,-53.64 946.8,-45.46"/>
<polygon fill="black" stroke="black" points="949.87,-43.77 942.25,-36.41 943.61,-46.91 949.87,-43.77"/>
</g>
<!-- 599 -->
<g id="node24" class="node">
<title>599</title>
<polygon fill="#c0c0c0" stroke="black" points="1032.5,-36 978.5,-36 978.5,0 1032.5,0 1032.5,-36"/>
<text text-anchor="middle" x="1005.5" y="-14.3" font-family="Times,serif" font-size="14.00">(...)</text>
</g>
<!-- 583&#45;&gt;599 -->
<g id="edge23" class="edge">
<title>583&#45;&gt;599</title>
<path fill="none" stroke="black" d="M991.39,-71.76C993.7,-63.14 996.08,-54.24 998.21,-46.26"/>
<polygon fill="black" stroke="black" points="1001.64,-46.97 1000.85,-36.41 994.88,-45.16 1001.64,-46.97"/>
</g>
<!-- 607 -->
<g id="node26" class="node">
<title>607</title>
<polygon fill="#f9e4d5" stroke="black" points="1267,-155 1082,-155 1082,-72 1267,-72 1267,-155"/>
<text text-anchor="middle" x="1174.5" y="-139.8" font-family="Times,serif" font-size="14.00">sdComp &lt;= 2.0</text>
<text text-anchor="middle" x="1174.5" y="-124.8" font-family="Times,serif" font-size="14.00">gini = 0.493</text>
<text text-anchor="middle" x="1174.5" y="-109.8" font-family="Times,serif" font-size="14.00">samples = 37295</text>
<text text-anchor="middle" x="1174.5" y="-94.8" font-family="Times,serif" font-size="14.00">value = [20855, 16440]</text>
<text text-anchor="middle" x="1174.5" y="-79.8" font-family="Times,serif" font-size="14.00">class = False</text>
</g>
<!-- 606&#45;&gt;607 -->
<g id="edge25" class="edge">
<title>606&#45;&gt;607</title>
<path fill="none" stroke="black" d="M1174.5,-190.91C1174.5,-182.65 1174.5,-173.86 1174.5,-165.3"/>
<polygon fill="black" stroke="black" points="1178,-165.02 1174.5,-155.02 1171,-165.02 1178,-165.02"/>
</g>
<!-- 822 -->
<g id="node29" class="node">
<title>822</title>
<polygon fill="#f7dac5" stroke="black" points="1452,-155 1285,-155 1285,-72 1452,-72 1452,-155"/>
<text text-anchor="middle" x="1368.5" y="-139.8" font-family="Times,serif" font-size="14.00">sdComm &lt;= 6.5</text>
<text text-anchor="middle" x="1368.5" y="-124.8" font-family="Times,serif" font-size="14.00">gini = 0.485</text>
<text text-anchor="middle" x="1368.5" y="-109.8" font-family="Times,serif" font-size="14.00">samples = 5906</text>
<text text-anchor="middle" x="1368.5" y="-94.8" font-family="Times,serif" font-size="14.00">value = [3458, 2448]</text>
<text text-anchor="middle" x="1368.5" y="-79.8" font-family="Times,serif" font-size="14.00">class = False</text>
</g>
<!-- 606&#45;&gt;822 -->
<g id="edge28" class="edge">
<title>606&#45;&gt;822</title>
<path fill="none" stroke="black" d="M1241.81,-190.91C1258.21,-181.02 1275.86,-170.37 1292.63,-160.25"/>
<polygon fill="black" stroke="black" points="1294.56,-163.18 1301.31,-155.02 1290.94,-157.19 1294.56,-163.18"/>
</g>
<!-- 608 -->
<g id="node27" class="node">
<title>608</title>
<polygon fill="#c0c0c0" stroke="black" points="1165.5,-36 1111.5,-36 1111.5,0 1165.5,0 1165.5,-36"/>
<text text-anchor="middle" x="1138.5" y="-14.3" font-family="Times,serif" font-size="14.00">(...)</text>
</g>
<!-- 607&#45;&gt;608 -->
<g id="edge26" class="edge">
<title>607&#45;&gt;608</title>
<path fill="none" stroke="black" d="M1158.81,-71.76C1155.46,-63.04 1151.99,-54.04 1148.89,-45.99"/>
<polygon fill="black" stroke="black" points="1152.06,-44.48 1145.2,-36.41 1145.53,-46.99 1152.06,-44.48"/>
</g>
<!-- 679 -->
<g id="node28" class="node">
<title>679</title>
<polygon fill="#c0c0c0" stroke="black" points="1237.5,-36 1183.5,-36 1183.5,0 1237.5,0 1237.5,-36"/>
<text text-anchor="middle" x="1210.5" y="-14.3" font-family="Times,serif" font-size="14.00">(...)</text>
</g>
<!-- 607&#45;&gt;679 -->
<g id="edge27" class="edge">
<title>607&#45;&gt;679</title>
<path fill="none" stroke="black" d="M1190.19,-71.76C1193.54,-63.04 1197.01,-54.04 1200.11,-45.99"/>
<polygon fill="black" stroke="black" points="1203.47,-46.99 1203.8,-36.41 1196.94,-44.48 1203.47,-46.99"/>
</g>
<!-- 823 -->
<g id="node30" class="node">
<title>823</title>
<polygon fill="#c0c0c0" stroke="black" points="1359.5,-36 1305.5,-36 1305.5,0 1359.5,0 1359.5,-36"/>
<text text-anchor="middle" x="1332.5" y="-14.3" font-family="Times,serif" font-size="14.00">(...)</text>
</g>
<!-- 822&#45;&gt;823 -->
<g id="edge29" class="edge">
<title>822&#45;&gt;823</title>
<path fill="none" stroke="black" d="M1352.81,-71.76C1349.46,-63.04 1345.99,-54.04 1342.89,-45.99"/>
<polygon fill="black" stroke="black" points="1346.06,-44.48 1339.2,-36.41 1339.53,-46.99 1346.06,-44.48"/>
</g>
<!-- 846 -->
<g id="node31" class="node">
<title>846</title>
<polygon fill="#c0c0c0" stroke="black" points="1431.5,-36 1377.5,-36 1377.5,0 1431.5,0 1431.5,-36"/>
<text text-anchor="middle" x="1404.5" y="-14.3" font-family="Times,serif" font-size="14.00">(...)</text>
</g>
<!-- 822&#45;&gt;846 -->
<g id="edge30" class="edge">
<title>822&#45;&gt;846</title>
<path fill="none" stroke="black" d="M1384.19,-71.76C1387.54,-63.04 1391.01,-54.04 1394.11,-45.99"/>
<polygon fill="black" stroke="black" points="1397.47,-46.99 1397.8,-36.41 1390.94,-44.48 1397.47,-46.99"/>
</g>
</g>
</svg>
