<?xml version="1.0" encoding="UTF-8" standalone="no"?>
<!DOCTYPE svg PUBLIC "-//W3C//DTD SVG 1.1//EN"
 "http://www.w3.org/Graphics/SVG/1.1/DTD/svg11.dtd">
<!-- Generated by graphviz version 2.43.0 (0)
 -->
<!-- Title: Tree Pages: 1 -->
<svg width="1776pt" height="520pt"
 viewBox="0.00 0.00 1775.50 520.00" xmlns="http://www.w3.org/2000/svg" xmlns:xlink="http://www.w3.org/1999/xlink">
<g id="graph0" class="graph" transform="scale(1 1) rotate(0) translate(4 516)">
<title>Tree</title>
<polygon fill="white" stroke="transparent" points="-4,4 -4,-516 1771.5,-516 1771.5,4 -4,4"/>
<!-- 0 -->
<g id="node1" class="node">
<title>0</title>
<polygon fill="#e8dbfa" stroke="black" points="1009,-512 770,-512 770,-429 1009,-429 1009,-512"/>
<text text-anchor="middle" x="889.5" y="-496.8" font-family="Times,serif" font-size="14.00">CCR &lt;= 5.5</text>
<text text-anchor="middle" x="889.5" y="-481.8" font-family="Times,serif" font-size="14.00">gini = 0.628</text>
<text text-anchor="middle" x="889.5" y="-466.8" font-family="Times,serif" font-size="14.00">samples = 104915</text>
<text text-anchor="middle" x="889.5" y="-451.8" font-family="Times,serif" font-size="14.00">value = [19885, 36200, 48830]</text>
<text text-anchor="middle" x="889.5" y="-436.8" font-family="Times,serif" font-size="14.00">class = None</text>
</g>
<!-- 1 -->
<g id="node2" class="node">
<title>1</title>
<polygon fill="#b8f6d2" stroke="black" points="786.5,-393 556.5,-393 556.5,-310 786.5,-310 786.5,-393"/>
<text text-anchor="middle" x="671.5" y="-377.8" font-family="Times,serif" font-size="14.00">graphSize &lt;= 22.5</text>
<text text-anchor="middle" x="671.5" y="-362.8" font-family="Times,serif" font-size="14.00">gini = 0.586</text>
<text text-anchor="middle" x="671.5" y="-347.8" font-family="Times,serif" font-size="14.00">samples = 57888</text>
<text text-anchor="middle" x="671.5" y="-332.8" font-family="Times,serif" font-size="14.00">value = [17195, 31798, 8895]</text>
<text text-anchor="middle" x="671.5" y="-317.8" font-family="Times,serif" font-size="14.00">class = DCP</text>
</g>
<!-- 0&#45;&gt;1 -->
<g id="edge1" class="edge">
<title>0&#45;&gt;1</title>
<path fill="none" stroke="black" d="M813.87,-428.91C795.18,-418.88 775.05,-408.07 755.97,-397.84"/>
<polygon fill="black" stroke="black" points="757.47,-394.67 747,-393.02 754.16,-400.83 757.47,-394.67"/>
<text text-anchor="middle" x="754.22" y="-413.26" font-family="Times,serif" font-size="14.00">True</text>
</g>
<!-- 574 -->
<g id="node17" class="node">
<title>574</title>
<polygon fill="#965ae9" stroke="black" points="1228,-393 1007,-393 1007,-310 1228,-310 1228,-393"/>
<text text-anchor="middle" x="1117.5" y="-377.8" font-family="Times,serif" font-size="14.00">sdComp &lt;= 6.5</text>
<text text-anchor="middle" x="1117.5" y="-362.8" font-family="Times,serif" font-size="14.00">gini = 0.267</text>
<text text-anchor="middle" x="1117.5" y="-347.8" font-family="Times,serif" font-size="14.00">samples = 47027</text>
<text text-anchor="middle" x="1117.5" y="-332.8" font-family="Times,serif" font-size="14.00">value = [2690, 4402, 39935]</text>
<text text-anchor="middle" x="1117.5" y="-317.8" font-family="Times,serif" font-size="14.00">class = None</text>
</g>
<!-- 0&#45;&gt;574 -->
<g id="edge16" class="edge">
<title>0&#45;&gt;574</title>
<path fill="none" stroke="black" d="M968.6,-428.91C988.23,-418.83 1009.39,-407.98 1029.42,-397.7"/>
<polygon fill="black" stroke="black" points="1031.24,-400.7 1038.54,-393.02 1028.04,-394.47 1031.24,-400.7"/>
<text text-anchor="middle" x="1030.88" y="-413.12" font-family="Times,serif" font-size="14.00">False</text>
</g>
<!-- 2 -->
<g id="node3" class="node">
<title>2</title>
<polygon fill="#cbf8de" stroke="black" points="446.5,-274 216.5,-274 216.5,-191 446.5,-191 446.5,-274"/>
<text text-anchor="middle" x="331.5" y="-258.8" font-family="Times,serif" font-size="14.00">sdComm &lt;= 0.02</text>
<text text-anchor="middle" x="331.5" y="-243.8" font-family="Times,serif" font-size="14.00">gini = 0.598</text>
<text text-anchor="middle" x="331.5" y="-228.8" font-family="Times,serif" font-size="14.00">samples = 38420</text>
<text text-anchor="middle" x="331.5" y="-213.8" font-family="Times,serif" font-size="14.00">value = [13153, 19738, 5529]</text>
<text text-anchor="middle" x="331.5" y="-198.8" font-family="Times,serif" font-size="14.00">class = DCP</text>
</g>
<!-- 1&#45;&gt;2 -->
<g id="edge2" class="edge">
<title>1&#45;&gt;2</title>
<path fill="none" stroke="black" d="M556.39,-310.89C524.22,-299.82 489.1,-287.73 456.39,-276.48"/>
<polygon fill="black" stroke="black" points="457.37,-273.11 446.78,-273.17 455.1,-279.73 457.37,-273.11"/>
</g>
<!-- 145 -->
<g id="node10" class="node">
<title>145</title>
<polygon fill="#98f1be" stroke="black" points="782,-274 561,-274 561,-191 782,-191 782,-274"/>
<text text-anchor="middle" x="671.5" y="-258.8" font-family="Times,serif" font-size="14.00">sdComm &lt;= 0.65</text>
<text text-anchor="middle" x="671.5" y="-243.8" font-family="Times,serif" font-size="14.00">gini = 0.543</text>
<text text-anchor="middle" x="671.5" y="-228.8" font-family="Times,serif" font-size="14.00">samples = 19468</text>
<text text-anchor="middle" x="671.5" y="-213.8" font-family="Times,serif" font-size="14.00">value = [4042, 12060, 3366]</text>
<text text-anchor="middle" x="671.5" y="-198.8" font-family="Times,serif" font-size="14.00">class = DCP</text>
</g>
<!-- 1&#45;&gt;145 -->
<g id="edge9" class="edge">
<title>1&#45;&gt;145</title>
<path fill="none" stroke="black" d="M671.5,-309.91C671.5,-301.65 671.5,-292.86 671.5,-284.3"/>
<polygon fill="black" stroke="black" points="675,-284.02 671.5,-274.02 668,-284.02 675,-284.02"/>
</g>
<!-- 3 -->
<g id="node4" class="node">
<title>3</title>
<polygon fill="#fcfffd" stroke="black" points="203,-155 0,-155 0,-72 203,-72 203,-155"/>
<text text-anchor="middle" x="101.5" y="-139.8" font-family="Times,serif" font-size="14.00">sdComp &lt;= 0.02</text>
<text text-anchor="middle" x="101.5" y="-124.8" font-family="Times,serif" font-size="14.00">gini = 0.578</text>
<text text-anchor="middle" x="101.5" y="-109.8" font-family="Times,serif" font-size="14.00">samples = 8102</text>
<text text-anchor="middle" x="101.5" y="-94.8" font-family="Times,serif" font-size="14.00">value = [3656, 3714, 732]</text>
<text text-anchor="middle" x="101.5" y="-79.8" font-family="Times,serif" font-size="14.00">class = DCP</text>
</g>
<!-- 2&#45;&gt;3 -->
<g id="edge3" class="edge">
<title>2&#45;&gt;3</title>
<path fill="none" stroke="black" d="M251.7,-190.91C231.81,-180.79 210.36,-169.88 190.08,-159.56"/>
<polygon fill="black" stroke="black" points="191.66,-156.44 181.16,-155.02 188.48,-162.67 191.66,-156.44"/>
</g>
<!-- 26 -->
<g id="node7" class="node">
<title>26</title>
<polygon fill="#c1f7d8" stroke="black" points="442,-155 221,-155 221,-72 442,-72 442,-155"/>
<text text-anchor="middle" x="331.5" y="-139.8" font-family="Times,serif" font-size="14.00">graphDepth &lt;= 3.5</text>
<text text-anchor="middle" x="331.5" y="-124.8" font-family="Times,serif" font-size="14.00">gini = 0.597</text>
<text text-anchor="middle" x="331.5" y="-109.8" font-family="Times,serif" font-size="14.00">samples = 30318</text>
<text text-anchor="middle" x="331.5" y="-94.8" font-family="Times,serif" font-size="14.00">value = [9497, 16024, 4797]</text>
<text text-anchor="middle" x="331.5" y="-79.8" font-family="Times,serif" font-size="14.00">class = DCP</text>
</g>
<!-- 2&#45;&gt;26 -->
<g id="edge6" class="edge">
<title>2&#45;&gt;26</title>
<path fill="none" stroke="black" d="M331.5,-190.91C331.5,-182.65 331.5,-173.86 331.5,-165.3"/>
<polygon fill="black" stroke="black" points="335,-165.02 331.5,-155.02 328,-165.02 335,-165.02"/>
</g>
<!-- 4 -->
<g id="node5" class="node">
<title>4</title>
<polygon fill="#c0c0c0" stroke="black" points="92.5,-36 38.5,-36 38.5,0 92.5,0 92.5,-36"/>
<text text-anchor="middle" x="65.5" y="-14.3" font-family="Times,serif" font-size="14.00">(...)</text>
</g>
<!-- 3&#45;&gt;4 -->
<g id="edge4" class="edge">
<title>3&#45;&gt;4</title>
<path fill="none" stroke="black" d="M85.81,-71.76C82.46,-63.04 78.99,-54.04 75.89,-45.99"/>
<polygon fill="black" stroke="black" points="79.06,-44.48 72.2,-36.41 72.53,-46.99 79.06,-44.48"/>
</g>
<!-- 11 -->
<g id="node6" class="node">
<title>11</title>
<polygon fill="#c0c0c0" stroke="black" points="164.5,-36 110.5,-36 110.5,0 164.5,0 164.5,-36"/>
<text text-anchor="middle" x="137.5" y="-14.3" font-family="Times,serif" font-size="14.00">(...)</text>
</g>
<!-- 3&#45;&gt;11 -->
<g id="edge5" class="edge">
<title>3&#45;&gt;11</title>
<path fill="none" stroke="black" d="M117.19,-71.76C120.54,-63.04 124.01,-54.04 127.11,-45.99"/>
<polygon fill="black" stroke="black" points="130.47,-46.99 130.8,-36.41 123.94,-44.48 130.47,-46.99"/>
</g>
<!-- 27 -->
<g id="node8" class="node">
<title>27</title>
<polygon fill="#c0c0c0" stroke="black" points="322.5,-36 268.5,-36 268.5,0 322.5,0 322.5,-36"/>
<text text-anchor="middle" x="295.5" y="-14.3" font-family="Times,serif" font-size="14.00">(...)</text>
</g>
<!-- 26&#45;&gt;27 -->
<g id="edge7" class="edge">
<title>26&#45;&gt;27</title>
<path fill="none" stroke="black" d="M315.81,-71.76C312.46,-63.04 308.99,-54.04 305.89,-45.99"/>
<polygon fill="black" stroke="black" points="309.06,-44.48 302.2,-36.41 302.53,-46.99 309.06,-44.48"/>
</g>
<!-- 86 -->
<g id="node9" class="node">
<title>86</title>
<polygon fill="#c0c0c0" stroke="black" points="394.5,-36 340.5,-36 340.5,0 394.5,0 394.5,-36"/>
<text text-anchor="middle" x="367.5" y="-14.3" font-family="Times,serif" font-size="14.00">(...)</text>
</g>
<!-- 26&#45;&gt;86 -->
<g id="edge8" class="edge">
<title>26&#45;&gt;86</title>
<path fill="none" stroke="black" d="M347.19,-71.76C350.54,-63.04 354.01,-54.04 357.11,-45.99"/>
<polygon fill="black" stroke="black" points="360.47,-46.99 360.8,-36.41 353.94,-44.48 360.47,-46.99"/>
</g>
<!-- 146 -->
<g id="node11" class="node">
<title>146</title>
<polygon fill="#90f0b8" stroke="black" points="681,-155 460,-155 460,-72 681,-72 681,-155"/>
<text text-anchor="middle" x="570.5" y="-139.8" font-family="Times,serif" font-size="14.00">sdComp &lt;= 0.2</text>
<text text-anchor="middle" x="570.5" y="-124.8" font-family="Times,serif" font-size="14.00">gini = 0.522</text>
<text text-anchor="middle" x="570.5" y="-109.8" font-family="Times,serif" font-size="14.00">samples = 16620</text>
<text text-anchor="middle" x="570.5" y="-94.8" font-family="Times,serif" font-size="14.00">value = [3144, 10698, 2778]</text>
<text text-anchor="middle" x="570.5" y="-79.8" font-family="Times,serif" font-size="14.00">class = DCP</text>
</g>
<!-- 145&#45;&gt;146 -->
<g id="edge10" class="edge">
<title>145&#45;&gt;146</title>
<path fill="none" stroke="black" d="M636.46,-190.91C628.62,-181.83 620.24,-172.12 612.17,-162.77"/>
<polygon fill="black" stroke="black" points="614.66,-160.3 605.48,-155.02 609.36,-164.88 614.66,-160.3"/>
</g>
<!-- 503 -->
<g id="node14" class="node">
<title>503</title>
<polygon fill="#d0f9e1" stroke="black" points="893.5,-155 699.5,-155 699.5,-72 893.5,-72 893.5,-155"/>
<text text-anchor="middle" x="796.5" y="-139.8" font-family="Times,serif" font-size="14.00">sdComp &lt;= 0.2</text>
<text text-anchor="middle" x="796.5" y="-124.8" font-family="Times,serif" font-size="14.00">gini = 0.629</text>
<text text-anchor="middle" x="796.5" y="-109.8" font-family="Times,serif" font-size="14.00">samples = 2848</text>
<text text-anchor="middle" x="796.5" y="-94.8" font-family="Times,serif" font-size="14.00">value = [898, 1362, 588]</text>
<text text-anchor="middle" x="796.5" y="-79.8" font-family="Times,serif" font-size="14.00">class = DCP</text>
</g>
<!-- 145&#45;&gt;503 -->
<g id="edge13" class="edge">
<title>145&#45;&gt;503</title>
<path fill="none" stroke="black" d="M714.87,-190.91C724.85,-181.56 735.56,-171.54 745.83,-161.93"/>
<polygon fill="black" stroke="black" points="748.3,-164.41 753.21,-155.02 743.52,-159.3 748.3,-164.41"/>
</g>
<!-- 147 -->
<g id="node12" class="node">
<title>147</title>
<polygon fill="#c0c0c0" stroke="black" points="561.5,-36 507.5,-36 507.5,0 561.5,0 561.5,-36"/>
<text text-anchor="middle" x="534.5" y="-14.3" font-family="Times,serif" font-size="14.00">(...)</text>
</g>
<!-- 146&#45;&gt;147 -->
<g id="edge11" class="edge">
<title>146&#45;&gt;147</title>
<path fill="none" stroke="black" d="M554.81,-71.76C551.46,-63.04 547.99,-54.04 544.89,-45.99"/>
<polygon fill="black" stroke="black" points="548.06,-44.48 541.2,-36.41 541.53,-46.99 548.06,-44.48"/>
</g>
<!-- 410 -->
<g id="node13" class="node">
<title>410</title>
<polygon fill="#c0c0c0" stroke="black" points="633.5,-36 579.5,-36 579.5,0 633.5,0 633.5,-36"/>
<text text-anchor="middle" x="606.5" y="-14.3" font-family="Times,serif" font-size="14.00">(...)</text>
</g>
<!-- 146&#45;&gt;410 -->
<g id="edge12" class="edge">
<title>146&#45;&gt;410</title>
<path fill="none" stroke="black" d="M586.19,-71.76C589.54,-63.04 593.01,-54.04 596.11,-45.99"/>
<polygon fill="black" stroke="black" points="599.47,-46.99 599.8,-36.41 592.94,-44.48 599.47,-46.99"/>
</g>
<!-- 504 -->
<g id="node15" class="node">
<title>504</title>
<polygon fill="#c0c0c0" stroke="black" points="787.5,-36 733.5,-36 733.5,0 787.5,0 787.5,-36"/>
<text text-anchor="middle" x="760.5" y="-14.3" font-family="Times,serif" font-size="14.00">(...)</text>
</g>
<!-- 503&#45;&gt;504 -->
<g id="edge14" class="edge">
<title>503&#45;&gt;504</title>
<path fill="none" stroke="black" d="M780.81,-71.76C777.46,-63.04 773.99,-54.04 770.89,-45.99"/>
<polygon fill="black" stroke="black" points="774.06,-44.48 767.2,-36.41 767.53,-46.99 774.06,-44.48"/>
</g>
<!-- 527 -->
<g id="node16" class="node">
<title>527</title>
<polygon fill="#c0c0c0" stroke="black" points="859.5,-36 805.5,-36 805.5,0 859.5,0 859.5,-36"/>
<text text-anchor="middle" x="832.5" y="-14.3" font-family="Times,serif" font-size="14.00">(...)</text>
</g>
<!-- 503&#45;&gt;527 -->
<g id="edge15" class="edge">
<title>503&#45;&gt;527</title>
<path fill="none" stroke="black" d="M812.19,-71.76C815.54,-63.04 819.01,-54.04 822.11,-45.99"/>
<polygon fill="black" stroke="black" points="825.47,-46.99 825.8,-36.41 818.94,-44.48 825.47,-46.99"/>
</g>
<!-- 575 -->
<g id="node18" class="node">
<title>575</title>
<polygon fill="#9355e9" stroke="black" points="1228,-274 1007,-274 1007,-191 1228,-191 1228,-274"/>
<text text-anchor="middle" x="1117.5" y="-258.8" font-family="Times,serif" font-size="14.00">graphDepth &lt;= 9.0</text>
<text text-anchor="middle" x="1117.5" y="-243.8" font-family="Times,serif" font-size="14.00">gini = 0.231</text>
<text text-anchor="middle" x="1117.5" y="-228.8" font-family="Times,serif" font-size="14.00">samples = 35120</text>
<text text-anchor="middle" x="1117.5" y="-213.8" font-family="Times,serif" font-size="14.00">value = [1348, 3166, 30606]</text>
<text text-anchor="middle" x="1117.5" y="-198.8" font-family="Times,serif" font-size="14.00">class = None</text>
</g>
<!-- 574&#45;&gt;575 -->
<g id="edge17" class="edge">
<title>574&#45;&gt;575</title>
<path fill="none" stroke="black" d="M1117.5,-309.91C1117.5,-301.65 1117.5,-292.86 1117.5,-284.3"/>
<polygon fill="black" stroke="black" points="1121,-284.02 1117.5,-274.02 1114,-284.02 1121,-284.02"/>
</g>
<!-- 716 -->
<g id="node25" class="node">
<title>716</title>
<polygon fill="#a069eb" stroke="black" points="1564.5,-274 1352.5,-274 1352.5,-191 1564.5,-191 1564.5,-274"/>
<text text-anchor="middle" x="1458.5" y="-258.8" font-family="Times,serif" font-size="14.00">graphSize &lt;= 22.5</text>
<text text-anchor="middle" x="1458.5" y="-243.8" font-family="Times,serif" font-size="14.00">gini = 0.363</text>
<text text-anchor="middle" x="1458.5" y="-228.8" font-family="Times,serif" font-size="14.00">samples = 11907</text>
<text text-anchor="middle" x="1458.5" y="-213.8" font-family="Times,serif" font-size="14.00">value = [1342, 1236, 9329]</text>
<text text-anchor="middle" x="1458.5" y="-198.8" font-family="Times,serif" font-size="14.00">class = None</text>
</g>
<!-- 574&#45;&gt;716 -->
<g id="edge24" class="edge">
<title>574&#45;&gt;716</title>
<path fill="none" stroke="black" d="M1228.21,-312.51C1264.81,-299.96 1305.61,-285.96 1342.59,-273.27"/>
<polygon fill="black" stroke="black" points="1344.08,-276.46 1352.4,-269.9 1341.81,-269.84 1344.08,-276.46"/>
</g>
<!-- 576 -->
<g id="node19" class="node">
<title>576</title>
<polygon fill="#8d4ce7" stroke="black" points="1114,-155 911,-155 911,-72 1114,-72 1114,-155"/>
<text text-anchor="middle" x="1012.5" y="-139.8" font-family="Times,serif" font-size="14.00">graphSize &lt;= 22.5</text>
<text text-anchor="middle" x="1012.5" y="-124.8" font-family="Times,serif" font-size="14.00">gini = 0.166</text>
<text text-anchor="middle" x="1012.5" y="-109.8" font-family="Times,serif" font-size="14.00">samples = 15542</text>
<text text-anchor="middle" x="1012.5" y="-94.8" font-family="Times,serif" font-size="14.00">value = [514, 874, 14154]</text>
<text text-anchor="middle" x="1012.5" y="-79.8" font-family="Times,serif" font-size="14.00">class = None</text>
</g>
<!-- 575&#45;&gt;576 -->
<g id="edge18" class="edge">
<title>575&#45;&gt;576</title>
<path fill="none" stroke="black" d="M1081.07,-190.91C1072.85,-181.74 1064.04,-171.93 1055.57,-162.49"/>
<polygon fill="black" stroke="black" points="1058.15,-160.13 1048.86,-155.02 1052.94,-164.8 1058.15,-160.13"/>
</g>
<!-- 633 -->
<g id="node22" class="node">
<title>633</title>
<polygon fill="#985dea" stroke="black" points="1343.5,-155 1131.5,-155 1131.5,-72 1343.5,-72 1343.5,-155"/>
<text text-anchor="middle" x="1237.5" y="-139.8" font-family="Times,serif" font-size="14.00">sdComm &lt;= 2.0</text>
<text text-anchor="middle" x="1237.5" y="-124.8" font-family="Times,serif" font-size="14.00">gini = 0.278</text>
<text text-anchor="middle" x="1237.5" y="-109.8" font-family="Times,serif" font-size="14.00">samples = 19578</text>
<text text-anchor="middle" x="1237.5" y="-94.8" font-family="Times,serif" font-size="14.00">value = [834, 2292, 16452]</text>
<text text-anchor="middle" x="1237.5" y="-79.8" font-family="Times,serif" font-size="14.00">class = None</text>
</g>
<!-- 575&#45;&gt;633 -->
<g id="edge21" class="edge">
<title>575&#45;&gt;633</title>
<path fill="none" stroke="black" d="M1159.13,-190.91C1168.63,-181.65 1178.8,-171.73 1188.57,-162.21"/>
<polygon fill="black" stroke="black" points="1191.22,-164.51 1195.94,-155.02 1186.34,-159.5 1191.22,-164.51"/>
</g>
<!-- 577 -->
<g id="node20" class="node">
<title>577</title>
<polygon fill="#c0c0c0" stroke="black" points="1003.5,-36 949.5,-36 949.5,0 1003.5,0 1003.5,-36"/>
<text text-anchor="middle" x="976.5" y="-14.3" font-family="Times,serif" font-size="14.00">(...)</text>
</g>
<!-- 576&#45;&gt;577 -->
<g id="edge19" class="edge">
<title>576&#45;&gt;577</title>
<path fill="none" stroke="black" d="M996.81,-71.76C993.46,-63.04 989.99,-54.04 986.89,-45.99"/>
<polygon fill="black" stroke="black" points="990.06,-44.48 983.2,-36.41 983.53,-46.99 990.06,-44.48"/>
</g>
<!-- 620 -->
<g id="node21" class="node">
<title>620</title>
<polygon fill="#c0c0c0" stroke="black" points="1075.5,-36 1021.5,-36 1021.5,0 1075.5,0 1075.5,-36"/>
<text text-anchor="middle" x="1048.5" y="-14.3" font-family="Times,serif" font-size="14.00">(...)</text>
</g>
<!-- 576&#45;&gt;620 -->
<g id="edge20" class="edge">
<title>576&#45;&gt;620</title>
<path fill="none" stroke="black" d="M1028.19,-71.76C1031.54,-63.04 1035.01,-54.04 1038.11,-45.99"/>
<polygon fill="black" stroke="black" points="1041.47,-46.99 1041.8,-36.41 1034.94,-44.48 1041.47,-46.99"/>
</g>
<!-- 634 -->
<g id="node23" class="node">
<title>634</title>
<polygon fill="#c0c0c0" stroke="black" points="1228.5,-36 1174.5,-36 1174.5,0 1228.5,0 1228.5,-36"/>
<text text-anchor="middle" x="1201.5" y="-14.3" font-family="Times,serif" font-size="14.00">(...)</text>
</g>
<!-- 633&#45;&gt;634 -->
<g id="edge22" class="edge">
<title>633&#45;&gt;634</title>
<path fill="none" stroke="black" d="M1221.81,-71.76C1218.46,-63.04 1214.99,-54.04 1211.89,-45.99"/>
<polygon fill="black" stroke="black" points="1215.06,-44.48 1208.2,-36.41 1208.53,-46.99 1215.06,-44.48"/>
</g>
<!-- 659 -->
<g id="node24" class="node">
<title>659</title>
<polygon fill="#c0c0c0" stroke="black" points="1300.5,-36 1246.5,-36 1246.5,0 1300.5,0 1300.5,-36"/>
<text text-anchor="middle" x="1273.5" y="-14.3" font-family="Times,serif" font-size="14.00">(...)</text>
</g>
<!-- 633&#45;&gt;659 -->
<g id="edge23" class="edge">
<title>633&#45;&gt;659</title>
<path fill="none" stroke="black" d="M1253.19,-71.76C1256.54,-63.04 1260.01,-54.04 1263.11,-45.99"/>
<polygon fill="black" stroke="black" points="1266.47,-46.99 1266.8,-36.41 1259.94,-44.48 1266.47,-46.99"/>
</g>
<!-- 717 -->
<g id="node26" class="node">
<title>717</title>
<polygon fill="#b285ef" stroke="black" points="1555.5,-155 1361.5,-155 1361.5,-72 1555.5,-72 1555.5,-155"/>
<text text-anchor="middle" x="1458.5" y="-139.8" font-family="Times,serif" font-size="14.00">sdComm &lt;= 2.0</text>
<text text-anchor="middle" x="1458.5" y="-124.8" font-family="Times,serif" font-size="14.00">gini = 0.49</text>
<text text-anchor="middle" x="1458.5" y="-109.8" font-family="Times,serif" font-size="14.00">samples = 4492</text>
<text text-anchor="middle" x="1458.5" y="-94.8" font-family="Times,serif" font-size="14.00">value = [732, 720, 3040]</text>
<text text-anchor="middle" x="1458.5" y="-79.8" font-family="Times,serif" font-size="14.00">class = None</text>
</g>
<!-- 716&#45;&gt;717 -->
<g id="edge25" class="edge">
<title>716&#45;&gt;717</title>
<path fill="none" stroke="black" d="M1458.5,-190.91C1458.5,-182.65 1458.5,-173.86 1458.5,-165.3"/>
<polygon fill="black" stroke="black" points="1462,-165.02 1458.5,-155.02 1455,-165.02 1462,-165.02"/>
</g>
<!-- 740 -->
<g id="node29" class="node">
<title>740</title>
<polygon fill="#965ae9" stroke="black" points="1767.5,-155 1573.5,-155 1573.5,-72 1767.5,-72 1767.5,-155"/>
<text text-anchor="middle" x="1670.5" y="-139.8" font-family="Times,serif" font-size="14.00">nbproc &lt;= 4.5</text>
<text text-anchor="middle" x="1670.5" y="-124.8" font-family="Times,serif" font-size="14.00">gini = 0.269</text>
<text text-anchor="middle" x="1670.5" y="-109.8" font-family="Times,serif" font-size="14.00">samples = 7415</text>
<text text-anchor="middle" x="1670.5" y="-94.8" font-family="Times,serif" font-size="14.00">value = [610, 516, 6289]</text>
<text text-anchor="middle" x="1670.5" y="-79.8" font-family="Times,serif" font-size="14.00">class = None</text>
</g>
<!-- 716&#45;&gt;740 -->
<g id="edge28" class="edge">
<title>716&#45;&gt;740</title>
<path fill="none" stroke="black" d="M1532.05,-190.91C1550.14,-180.92 1569.62,-170.17 1588.1,-159.98"/>
<polygon fill="black" stroke="black" points="1590.01,-162.92 1597.08,-155.02 1586.63,-156.79 1590.01,-162.92"/>
</g>
<!-- 718 -->
<g id="node27" class="node">
<title>718</title>
<polygon fill="#c0c0c0" stroke="black" points="1449.5,-36 1395.5,-36 1395.5,0 1449.5,0 1449.5,-36"/>
<text text-anchor="middle" x="1422.5" y="-14.3" font-family="Times,serif" font-size="14.00">(...)</text>
</g>
<!-- 717&#45;&gt;718 -->
<g id="edge26" class="edge">
<title>717&#45;&gt;718</title>
<path fill="none" stroke="black" d="M1442.81,-71.76C1439.46,-63.04 1435.99,-54.04 1432.89,-45.99"/>
<polygon fill="black" stroke="black" points="1436.06,-44.48 1429.2,-36.41 1429.53,-46.99 1436.06,-44.48"/>
</g>
<!-- 725 -->
<g id="node28" class="node">
<title>725</title>
<polygon fill="#c0c0c0" stroke="black" points="1521.5,-36 1467.5,-36 1467.5,0 1521.5,0 1521.5,-36"/>
<text text-anchor="middle" x="1494.5" y="-14.3" font-family="Times,serif" font-size="14.00">(...)</text>
</g>
<!-- 717&#45;&gt;725 -->
<g id="edge27" class="edge">
<title>717&#45;&gt;725</title>
<path fill="none" stroke="black" d="M1474.19,-71.76C1477.54,-63.04 1481.01,-54.04 1484.11,-45.99"/>
<polygon fill="black" stroke="black" points="1487.47,-46.99 1487.8,-36.41 1480.94,-44.48 1487.47,-46.99"/>
</g>
<!-- 741 -->
<g id="node30" class="node">
<title>741</title>
<polygon fill="#c0c0c0" stroke="black" points="1661.5,-36 1607.5,-36 1607.5,0 1661.5,0 1661.5,-36"/>
<text text-anchor="middle" x="1634.5" y="-14.3" font-family="Times,serif" font-size="14.00">(...)</text>
</g>
<!-- 740&#45;&gt;741 -->
<g id="edge29" class="edge">
<title>740&#45;&gt;741</title>
<path fill="none" stroke="black" d="M1654.81,-71.76C1651.46,-63.04 1647.99,-54.04 1644.89,-45.99"/>
<polygon fill="black" stroke="black" points="1648.06,-44.48 1641.2,-36.41 1641.53,-46.99 1648.06,-44.48"/>
</g>
<!-- 776 -->
<g id="node31" class="node">
<title>776</title>
<polygon fill="#c0c0c0" stroke="black" points="1733.5,-36 1679.5,-36 1679.5,0 1733.5,0 1733.5,-36"/>
<text text-anchor="middle" x="1706.5" y="-14.3" font-family="Times,serif" font-size="14.00">(...)</text>
</g>
<!-- 740&#45;&gt;776 -->
<g id="edge30" class="edge">
<title>740&#45;&gt;776</title>
<path fill="none" stroke="black" d="M1686.19,-71.76C1689.54,-63.04 1693.01,-54.04 1696.11,-45.99"/>
<polygon fill="black" stroke="black" points="1699.47,-46.99 1699.8,-36.41 1692.94,-44.48 1699.47,-46.99"/>
</g>
</g>
</svg>
