<?xml version="1.0" encoding="UTF-8" standalone="no"?>
<!DOCTYPE svg PUBLIC "-//W3C//DTD SVG 1.1//EN"
 "http://www.w3.org/Graphics/SVG/1.1/DTD/svg11.dtd">
<!-- Generated by graphviz version 2.43.0 (0)
 -->
<!-- Title: Tree Pages: 1 -->
<svg width="1321pt" height="520pt"
 viewBox="0.00 0.00 1320.50 520.00" xmlns="http://www.w3.org/2000/svg" xmlns:xlink="http://www.w3.org/1999/xlink">
<g id="graph0" class="graph" transform="scale(1 1) rotate(0) translate(4 516)">
<title>Tree</title>
<polygon fill="white" stroke="transparent" points="-4,4 -4,-516 1316.5,-516 1316.5,4 -4,4"/>
<!-- 0 -->
<g id="node1" class="node">
<title>0</title>
<polygon fill="#8cc6f0" stroke="black" points="740.5,-512 573.5,-512 573.5,-429 740.5,-429 740.5,-512"/>
<text text-anchor="middle" x="657" y="-496.8" font-family="Times,serif" font-size="14.00">CCR &lt;= 5.5</text>
<text text-anchor="middle" x="657" y="-481.8" font-family="Times,serif" font-size="14.00">gini = 0.417</text>
<text text-anchor="middle" x="657" y="-466.8" font-family="Times,serif" font-size="14.00">samples = 4320</text>
<text text-anchor="middle" x="657" y="-451.8" font-family="Times,serif" font-size="14.00">value = [1278, 3042]</text>
<text text-anchor="middle" x="657" y="-436.8" font-family="Times,serif" font-size="14.00">class = True</text>
</g>
<!-- 1 -->
<g id="node2" class="node">
<title>1</title>
<polygon fill="#afd8f5" stroke="black" points="575.5,-393 408.5,-393 408.5,-310 575.5,-310 575.5,-393"/>
<text text-anchor="middle" x="492" y="-377.8" font-family="Times,serif" font-size="14.00">nbproc &lt;= 4.5</text>
<text text-anchor="middle" x="492" y="-362.8" font-family="Times,serif" font-size="14.00">gini = 0.468</text>
<text text-anchor="middle" x="492" y="-347.8" font-family="Times,serif" font-size="14.00">samples = 2880</text>
<text text-anchor="middle" x="492" y="-332.8" font-family="Times,serif" font-size="14.00">value = [1078, 1802]</text>
<text text-anchor="middle" x="492" y="-317.8" font-family="Times,serif" font-size="14.00">class = True</text>
</g>
<!-- 0&#45;&gt;1 -->
<g id="edge1" class="edge">
<title>0&#45;&gt;1</title>
<path fill="none" stroke="black" d="M599.75,-428.91C586.06,-419.2 571.34,-408.76 557.31,-398.81"/>
<polygon fill="black" stroke="black" points="559.33,-395.95 549.14,-393.02 555.28,-401.66 559.33,-395.95"/>
<text text-anchor="middle" x="553.34" y="-413.97" font-family="Times,serif" font-size="14.00">True</text>
</g>
<!-- 560 -->
<g id="node17" class="node">
<title>560</title>
<polygon fill="#59ade9" stroke="black" points="896,-393 738,-393 738,-310 896,-310 896,-393"/>
<text text-anchor="middle" x="817" y="-377.8" font-family="Times,serif" font-size="14.00">sdComp &lt;= 2.0</text>
<text text-anchor="middle" x="817" y="-362.8" font-family="Times,serif" font-size="14.00">gini = 0.239</text>
<text text-anchor="middle" x="817" y="-347.8" font-family="Times,serif" font-size="14.00">samples = 1440</text>
<text text-anchor="middle" x="817" y="-332.8" font-family="Times,serif" font-size="14.00">value = [200, 1240]</text>
<text text-anchor="middle" x="817" y="-317.8" font-family="Times,serif" font-size="14.00">class = True</text>
</g>
<!-- 0&#45;&gt;560 -->
<g id="edge16" class="edge">
<title>0&#45;&gt;560</title>
<path fill="none" stroke="black" d="M712.51,-428.91C725.67,-419.29 739.8,-408.95 753.29,-399.09"/>
<polygon fill="black" stroke="black" points="755.58,-401.75 761.59,-393.02 751.45,-396.1 755.58,-401.75"/>
<text text-anchor="middle" x="757.75" y="-414.02" font-family="Times,serif" font-size="14.00">False</text>
</g>
<!-- 2 -->
<g id="node3" class="node">
<title>2</title>
<polygon fill="#96cbf1" stroke="black" points="322,-274 164,-274 164,-191 322,-191 322,-274"/>
<text text-anchor="middle" x="243" y="-258.8" font-family="Times,serif" font-size="14.00">graphDepth &lt;= 3.5</text>
<text text-anchor="middle" x="243" y="-243.8" font-family="Times,serif" font-size="14.00">gini = 0.435</text>
<text text-anchor="middle" x="243" y="-228.8" font-family="Times,serif" font-size="14.00">samples = 1440</text>
<text text-anchor="middle" x="243" y="-213.8" font-family="Times,serif" font-size="14.00">value = [461, 979]</text>
<text text-anchor="middle" x="243" y="-198.8" font-family="Times,serif" font-size="14.00">class = True</text>
</g>
<!-- 1&#45;&gt;2 -->
<g id="edge2" class="edge">
<title>1&#45;&gt;2</title>
<path fill="none" stroke="black" d="M408.39,-311.22C383.61,-299.57 356.38,-286.78 331.31,-274.99"/>
<polygon fill="black" stroke="black" points="332.71,-271.79 322.17,-270.7 329.74,-278.12 332.71,-271.79"/>
</g>
<!-- 275 -->
<g id="node10" class="node">
<title>275</title>
<polygon fill="#cde6f8" stroke="black" points="568.5,-274 415.5,-274 415.5,-191 568.5,-191 568.5,-274"/>
<text text-anchor="middle" x="492" y="-258.8" font-family="Times,serif" font-size="14.00">graphSize &lt;= 40.0</text>
<text text-anchor="middle" x="492" y="-243.8" font-family="Times,serif" font-size="14.00">gini = 0.49</text>
<text text-anchor="middle" x="492" y="-228.8" font-family="Times,serif" font-size="14.00">samples = 1440</text>
<text text-anchor="middle" x="492" y="-213.8" font-family="Times,serif" font-size="14.00">value = [617, 823]</text>
<text text-anchor="middle" x="492" y="-198.8" font-family="Times,serif" font-size="14.00">class = True</text>
</g>
<!-- 1&#45;&gt;275 -->
<g id="edge9" class="edge">
<title>1&#45;&gt;275</title>
<path fill="none" stroke="black" d="M492,-309.91C492,-301.65 492,-292.86 492,-284.3"/>
<polygon fill="black" stroke="black" points="495.5,-284.02 492,-274.02 488.5,-284.02 495.5,-284.02"/>
</g>
<!-- 3 -->
<g id="node4" class="node">
<title>3</title>
<polygon fill="#4ba6e7" stroke="black" points="148,-155 0,-155 0,-72 148,-72 148,-155"/>
<text text-anchor="middle" x="74" y="-139.8" font-family="Times,serif" font-size="14.00">sdComp &lt;= 0.065</text>
<text text-anchor="middle" x="74" y="-124.8" font-family="Times,serif" font-size="14.00">gini = 0.153</text>
<text text-anchor="middle" x="74" y="-109.8" font-family="Times,serif" font-size="14.00">samples = 180</text>
<text text-anchor="middle" x="74" y="-94.8" font-family="Times,serif" font-size="14.00">value = [15, 165]</text>
<text text-anchor="middle" x="74" y="-79.8" font-family="Times,serif" font-size="14.00">class = True</text>
</g>
<!-- 2&#45;&gt;3 -->
<g id="edge3" class="edge">
<title>2&#45;&gt;3</title>
<path fill="none" stroke="black" d="M184.37,-190.91C170.34,-181.2 155.26,-170.76 140.89,-160.81"/>
<polygon fill="black" stroke="black" points="142.74,-157.84 132.53,-155.02 138.76,-163.59 142.74,-157.84"/>
</g>
<!-- 24 -->
<g id="node7" class="node">
<title>24</title>
<polygon fill="#a5d3f3" stroke="black" points="319.5,-155 166.5,-155 166.5,-72 319.5,-72 319.5,-155"/>
<text text-anchor="middle" x="243" y="-139.8" font-family="Times,serif" font-size="14.00">graphSize &lt;= 22.5</text>
<text text-anchor="middle" x="243" y="-124.8" font-family="Times,serif" font-size="14.00">gini = 0.457</text>
<text text-anchor="middle" x="243" y="-109.8" font-family="Times,serif" font-size="14.00">samples = 1260</text>
<text text-anchor="middle" x="243" y="-94.8" font-family="Times,serif" font-size="14.00">value = [446, 814]</text>
<text text-anchor="middle" x="243" y="-79.8" font-family="Times,serif" font-size="14.00">class = True</text>
</g>
<!-- 2&#45;&gt;24 -->
<g id="edge6" class="edge">
<title>2&#45;&gt;24</title>
<path fill="none" stroke="black" d="M243,-190.91C243,-182.65 243,-173.86 243,-165.3"/>
<polygon fill="black" stroke="black" points="246.5,-165.02 243,-155.02 239.5,-165.02 246.5,-165.02"/>
</g>
<!-- 4 -->
<g id="node5" class="node">
<title>4</title>
<polygon fill="#c0c0c0" stroke="black" points="65,-36 11,-36 11,0 65,0 65,-36"/>
<text text-anchor="middle" x="38" y="-14.3" font-family="Times,serif" font-size="14.00">(...)</text>
</g>
<!-- 3&#45;&gt;4 -->
<g id="edge4" class="edge">
<title>3&#45;&gt;4</title>
<path fill="none" stroke="black" d="M58.31,-71.76C54.96,-63.04 51.49,-54.04 48.39,-45.99"/>
<polygon fill="black" stroke="black" points="51.56,-44.48 44.7,-36.41 45.03,-46.99 51.56,-44.48"/>
</g>
<!-- 5 -->
<g id="node6" class="node">
<title>5</title>
<polygon fill="#c0c0c0" stroke="black" points="137,-36 83,-36 83,0 137,0 137,-36"/>
<text text-anchor="middle" x="110" y="-14.3" font-family="Times,serif" font-size="14.00">(...)</text>
</g>
<!-- 3&#45;&gt;5 -->
<g id="edge5" class="edge">
<title>3&#45;&gt;5</title>
<path fill="none" stroke="black" d="M89.69,-71.76C93.04,-63.04 96.51,-54.04 99.61,-45.99"/>
<polygon fill="black" stroke="black" points="102.97,-46.99 103.3,-36.41 96.44,-44.48 102.97,-46.99"/>
</g>
<!-- 25 -->
<g id="node8" class="node">
<title>25</title>
<polygon fill="#c0c0c0" stroke="black" points="231,-36 177,-36 177,0 231,0 231,-36"/>
<text text-anchor="middle" x="204" y="-14.3" font-family="Times,serif" font-size="14.00">(...)</text>
</g>
<!-- 24&#45;&gt;25 -->
<g id="edge7" class="edge">
<title>24&#45;&gt;25</title>
<path fill="none" stroke="black" d="M226.01,-71.76C222.33,-62.94 218.53,-53.84 215.15,-45.72"/>
<polygon fill="black" stroke="black" points="218.34,-44.29 211.26,-36.41 211.88,-46.98 218.34,-44.29"/>
</g>
<!-- 60 -->
<g id="node9" class="node">
<title>60</title>
<polygon fill="#c0c0c0" stroke="black" points="303,-36 249,-36 249,0 303,0 303,-36"/>
<text text-anchor="middle" x="276" y="-14.3" font-family="Times,serif" font-size="14.00">(...)</text>
</g>
<!-- 24&#45;&gt;60 -->
<g id="edge8" class="edge">
<title>24&#45;&gt;60</title>
<path fill="none" stroke="black" d="M257.38,-71.76C260.46,-63.04 263.63,-54.04 266.47,-45.99"/>
<polygon fill="black" stroke="black" points="269.83,-47 269.86,-36.41 263.23,-44.67 269.83,-47"/>
</g>
<!-- 276 -->
<g id="node11" class="node">
<title>276</title>
<polygon fill="#f9fcfe" stroke="black" points="486.5,-155 337.5,-155 337.5,-72 486.5,-72 486.5,-155"/>
<text text-anchor="middle" x="412" y="-139.8" font-family="Times,serif" font-size="14.00">sdComm &lt;= 0.65</text>
<text text-anchor="middle" x="412" y="-124.8" font-family="Times,serif" font-size="14.00">gini = 0.5</text>
<text text-anchor="middle" x="412" y="-109.8" font-family="Times,serif" font-size="14.00">samples = 720</text>
<text text-anchor="middle" x="412" y="-94.8" font-family="Times,serif" font-size="14.00">value = [354, 366]</text>
<text text-anchor="middle" x="412" y="-79.8" font-family="Times,serif" font-size="14.00">class = True</text>
</g>
<!-- 275&#45;&gt;276 -->
<g id="edge10" class="edge">
<title>275&#45;&gt;276</title>
<path fill="none" stroke="black" d="M464.24,-190.91C458.16,-182.01 451.66,-172.51 445.39,-163.33"/>
<polygon fill="black" stroke="black" points="448.24,-161.3 439.71,-155.02 442.46,-165.25 448.24,-161.3"/>
</g>
<!-- 419 -->
<g id="node14" class="node">
<title>419</title>
<polygon fill="#abd5f4" stroke="black" points="653.5,-155 504.5,-155 504.5,-72 653.5,-72 653.5,-155"/>
<text text-anchor="middle" x="579" y="-139.8" font-family="Times,serif" font-size="14.00">sdComp &lt;= 0.065</text>
<text text-anchor="middle" x="579" y="-124.8" font-family="Times,serif" font-size="14.00">gini = 0.464</text>
<text text-anchor="middle" x="579" y="-109.8" font-family="Times,serif" font-size="14.00">samples = 720</text>
<text text-anchor="middle" x="579" y="-94.8" font-family="Times,serif" font-size="14.00">value = [263, 457]</text>
<text text-anchor="middle" x="579" y="-79.8" font-family="Times,serif" font-size="14.00">class = True</text>
</g>
<!-- 275&#45;&gt;419 -->
<g id="edge13" class="edge">
<title>275&#45;&gt;419</title>
<path fill="none" stroke="black" d="M522.18,-190.91C528.86,-181.92 536.01,-172.32 542.9,-163.05"/>
<polygon fill="black" stroke="black" points="545.71,-165.13 548.87,-155.02 540.09,-160.96 545.71,-165.13"/>
</g>
<!-- 277 -->
<g id="node12" class="node">
<title>277</title>
<polygon fill="#c0c0c0" stroke="black" points="393,-36 339,-36 339,0 393,0 393,-36"/>
<text text-anchor="middle" x="366" y="-14.3" font-family="Times,serif" font-size="14.00">(...)</text>
</g>
<!-- 276&#45;&gt;277 -->
<g id="edge11" class="edge">
<title>276&#45;&gt;277</title>
<path fill="none" stroke="black" d="M391.96,-71.76C387.57,-62.85 383.04,-53.64 379.02,-45.46"/>
<polygon fill="black" stroke="black" points="382.12,-43.83 374.56,-36.41 375.84,-46.92 382.12,-43.83"/>
</g>
<!-- 396 -->
<g id="node13" class="node">
<title>396</title>
<polygon fill="#c0c0c0" stroke="black" points="465,-36 411,-36 411,0 465,0 465,-36"/>
<text text-anchor="middle" x="438" y="-14.3" font-family="Times,serif" font-size="14.00">(...)</text>
</g>
<!-- 276&#45;&gt;396 -->
<g id="edge12" class="edge">
<title>276&#45;&gt;396</title>
<path fill="none" stroke="black" d="M423.33,-71.76C425.73,-63.14 428.2,-54.24 430.42,-46.26"/>
<polygon fill="black" stroke="black" points="433.85,-46.98 433.16,-36.41 427.11,-45.1 433.85,-46.98"/>
</g>
<!-- 420 -->
<g id="node15" class="node">
<title>420</title>
<polygon fill="#c0c0c0" stroke="black" points="546,-36 492,-36 492,0 546,0 546,-36"/>
<text text-anchor="middle" x="519" y="-14.3" font-family="Times,serif" font-size="14.00">(...)</text>
</g>
<!-- 419&#45;&gt;420 -->
<g id="edge14" class="edge">
<title>419&#45;&gt;420</title>
<path fill="none" stroke="black" d="M552.86,-71.76C547.01,-62.65 540.97,-53.24 535.64,-44.92"/>
<polygon fill="black" stroke="black" points="538.52,-42.93 530.17,-36.41 532.62,-46.71 538.52,-42.93"/>
</g>
<!-- 467 -->
<g id="node16" class="node">
<title>467</title>
<polygon fill="#c0c0c0" stroke="black" points="618,-36 564,-36 564,0 618,0 618,-36"/>
<text text-anchor="middle" x="591" y="-14.3" font-family="Times,serif" font-size="14.00">(...)</text>
</g>
<!-- 419&#45;&gt;467 -->
<g id="edge15" class="edge">
<title>419&#45;&gt;467</title>
<path fill="none" stroke="black" d="M584.23,-71.76C585.32,-63.24 586.45,-54.44 587.47,-46.53"/>
<polygon fill="black" stroke="black" points="590.96,-46.77 588.77,-36.41 584.02,-45.88 590.96,-46.77"/>
</g>
<!-- 561 -->
<g id="node18" class="node">
<title>561</title>
<polygon fill="#48a4e7" stroke="black" points="900.5,-274 733.5,-274 733.5,-191 900.5,-191 900.5,-274"/>
<text text-anchor="middle" x="817" y="-258.8" font-family="Times,serif" font-size="14.00">graphDepth &lt;= 25.5</text>
<text text-anchor="middle" x="817" y="-243.8" font-family="Times,serif" font-size="14.00">gini = 0.128</text>
<text text-anchor="middle" x="817" y="-228.8" font-family="Times,serif" font-size="14.00">samples = 480</text>
<text text-anchor="middle" x="817" y="-213.8" font-family="Times,serif" font-size="14.00">value = [33, 447]</text>
<text text-anchor="middle" x="817" y="-198.8" font-family="Times,serif" font-size="14.00">class = True</text>
</g>
<!-- 560&#45;&gt;561 -->
<g id="edge17" class="edge">
<title>560&#45;&gt;561</title>
<path fill="none" stroke="black" d="M817,-309.91C817,-301.65 817,-292.86 817,-284.3"/>
<polygon fill="black" stroke="black" points="820.5,-284.02 817,-274.02 813.5,-284.02 820.5,-284.02"/>
</g>
<!-- 628 -->
<g id="node25" class="node">
<title>628</title>
<polygon fill="#63b2ea" stroke="black" points="1136.5,-274 987.5,-274 987.5,-191 1136.5,-191 1136.5,-274"/>
<text text-anchor="middle" x="1062" y="-258.8" font-family="Times,serif" font-size="14.00">nbproc &lt;= 4.5</text>
<text text-anchor="middle" x="1062" y="-243.8" font-family="Times,serif" font-size="14.00">gini = 0.287</text>
<text text-anchor="middle" x="1062" y="-228.8" font-family="Times,serif" font-size="14.00">samples = 960</text>
<text text-anchor="middle" x="1062" y="-213.8" font-family="Times,serif" font-size="14.00">value = [167, 793]</text>
<text text-anchor="middle" x="1062" y="-198.8" font-family="Times,serif" font-size="14.00">class = True</text>
</g>
<!-- 560&#45;&gt;628 -->
<g id="edge24" class="edge">
<title>560&#45;&gt;628</title>
<path fill="none" stroke="black" d="M896.21,-312.68C922.34,-300.19 951.5,-286.27 977.98,-273.62"/>
<polygon fill="black" stroke="black" points="979.71,-276.67 987.23,-269.21 976.7,-270.36 979.71,-276.67"/>
</g>
<!-- 562 -->
<g id="node19" class="node">
<title>562</title>
<polygon fill="#46a3e7" stroke="black" points="824.5,-155 671.5,-155 671.5,-72 824.5,-72 824.5,-155"/>
<text text-anchor="middle" x="748" y="-139.8" font-family="Times,serif" font-size="14.00">graphSize &lt;= 75.0</text>
<text text-anchor="middle" x="748" y="-124.8" font-family="Times,serif" font-size="14.00">gini = 0.112</text>
<text text-anchor="middle" x="748" y="-109.8" font-family="Times,serif" font-size="14.00">samples = 420</text>
<text text-anchor="middle" x="748" y="-94.8" font-family="Times,serif" font-size="14.00">value = [25, 395]</text>
<text text-anchor="middle" x="748" y="-79.8" font-family="Times,serif" font-size="14.00">class = True</text>
</g>
<!-- 561&#45;&gt;562 -->
<g id="edge18" class="edge">
<title>561&#45;&gt;562</title>
<path fill="none" stroke="black" d="M793.06,-190.91C787.92,-182.2 782.44,-172.9 777.13,-163.89"/>
<polygon fill="black" stroke="black" points="779.99,-161.86 771.9,-155.02 773.96,-165.41 779.99,-161.86"/>
</g>
<!-- 619 -->
<g id="node22" class="node">
<title>619</title>
<polygon fill="#57ace9" stroke="black" points="965,-155 843,-155 843,-72 965,-72 965,-155"/>
<text text-anchor="middle" x="904" y="-139.8" font-family="Times,serif" font-size="14.00">nbproc &lt;= 4.5</text>
<text text-anchor="middle" x="904" y="-124.8" font-family="Times,serif" font-size="14.00">gini = 0.231</text>
<text text-anchor="middle" x="904" y="-109.8" font-family="Times,serif" font-size="14.00">samples = 60</text>
<text text-anchor="middle" x="904" y="-94.8" font-family="Times,serif" font-size="14.00">value = [8, 52]</text>
<text text-anchor="middle" x="904" y="-79.8" font-family="Times,serif" font-size="14.00">class = True</text>
</g>
<!-- 561&#45;&gt;619 -->
<g id="edge21" class="edge">
<title>561&#45;&gt;619</title>
<path fill="none" stroke="black" d="M847.18,-190.91C853.86,-181.92 861.01,-172.32 867.9,-163.05"/>
<polygon fill="black" stroke="black" points="870.71,-165.13 873.87,-155.02 865.09,-160.96 870.71,-165.13"/>
</g>
<!-- 563 -->
<g id="node20" class="node">
<title>563</title>
<polygon fill="#c0c0c0" stroke="black" points="709,-36 655,-36 655,0 709,0 709,-36"/>
<text text-anchor="middle" x="682" y="-14.3" font-family="Times,serif" font-size="14.00">(...)</text>
</g>
<!-- 562&#45;&gt;563 -->
<g id="edge19" class="edge">
<title>562&#45;&gt;563</title>
<path fill="none" stroke="black" d="M719.24,-71.76C712.75,-62.56 706.03,-53.04 700.11,-44.66"/>
<polygon fill="black" stroke="black" points="702.91,-42.56 694.29,-36.41 697.19,-46.59 702.91,-42.56"/>
</g>
<!-- 618 -->
<g id="node21" class="node">
<title>618</title>
<polygon fill="#c0c0c0" stroke="black" points="781,-36 727,-36 727,0 781,0 781,-36"/>
<text text-anchor="middle" x="754" y="-14.3" font-family="Times,serif" font-size="14.00">(...)</text>
</g>
<!-- 562&#45;&gt;618 -->
<g id="edge20" class="edge">
<title>562&#45;&gt;618</title>
<path fill="none" stroke="black" d="M750.61,-71.76C751.16,-63.24 751.73,-54.44 752.23,-46.53"/>
<polygon fill="black" stroke="black" points="755.74,-46.61 752.88,-36.41 748.75,-46.16 755.74,-46.61"/>
</g>
<!-- 620 -->
<g id="node23" class="node">
<title>620</title>
<polygon fill="#c0c0c0" stroke="black" points="866,-36 812,-36 812,0 866,0 866,-36"/>
<text text-anchor="middle" x="839" y="-14.3" font-family="Times,serif" font-size="14.00">(...)</text>
</g>
<!-- 619&#45;&gt;620 -->
<g id="edge22" class="edge">
<title>619&#45;&gt;620</title>
<path fill="none" stroke="black" d="M875.68,-71.76C869.28,-62.56 862.66,-53.04 856.84,-44.66"/>
<polygon fill="black" stroke="black" points="859.68,-42.62 851.1,-36.41 853.93,-46.61 859.68,-42.62"/>
</g>
<!-- 623 -->
<g id="node24" class="node">
<title>623</title>
<polygon fill="#c0c0c0" stroke="black" points="938,-36 884,-36 884,0 938,0 938,-36"/>
<text text-anchor="middle" x="911" y="-14.3" font-family="Times,serif" font-size="14.00">(...)</text>
</g>
<!-- 619&#45;&gt;623 -->
<g id="edge23" class="edge">
<title>619&#45;&gt;623</title>
<path fill="none" stroke="black" d="M907.05,-71.76C907.69,-63.24 908.35,-54.44 908.94,-46.53"/>
<polygon fill="black" stroke="black" points="912.44,-46.64 909.7,-36.41 905.46,-46.12 912.44,-46.64"/>
</g>
<!-- 629 -->
<g id="node26" class="node">
<title>629</title>
<polygon fill="#59ade9" stroke="black" points="1141,-155 983,-155 983,-72 1141,-72 1141,-155"/>
<text text-anchor="middle" x="1062" y="-139.8" font-family="Times,serif" font-size="14.00">graphDepth &lt;= 3.5</text>
<text text-anchor="middle" x="1062" y="-124.8" font-family="Times,serif" font-size="14.00">gini = 0.24</text>
<text text-anchor="middle" x="1062" y="-109.8" font-family="Times,serif" font-size="14.00">samples = 480</text>
<text text-anchor="middle" x="1062" y="-94.8" font-family="Times,serif" font-size="14.00">value = [67, 413]</text>
<text text-anchor="middle" x="1062" y="-79.8" font-family="Times,serif" font-size="14.00">class = True</text>
</g>
<!-- 628&#45;&gt;629 -->
<g id="edge25" class="edge">
<title>628&#45;&gt;629</title>
<path fill="none" stroke="black" d="M1062,-190.91C1062,-182.65 1062,-173.86 1062,-165.3"/>
<polygon fill="black" stroke="black" points="1065.5,-165.02 1062,-155.02 1058.5,-165.02 1065.5,-165.02"/>
</g>
<!-- 718 -->
<g id="node29" class="node">
<title>718</title>
<polygon fill="#6db7ec" stroke="black" points="1312.5,-155 1159.5,-155 1159.5,-72 1312.5,-72 1312.5,-155"/>
<text text-anchor="middle" x="1236" y="-139.8" font-family="Times,serif" font-size="14.00">graphSize &lt;= 22.5</text>
<text text-anchor="middle" x="1236" y="-124.8" font-family="Times,serif" font-size="14.00">gini = 0.33</text>
<text text-anchor="middle" x="1236" y="-109.8" font-family="Times,serif" font-size="14.00">samples = 480</text>
<text text-anchor="middle" x="1236" y="-94.8" font-family="Times,serif" font-size="14.00">value = [100, 380]</text>
<text text-anchor="middle" x="1236" y="-79.8" font-family="Times,serif" font-size="14.00">class = True</text>
</g>
<!-- 628&#45;&gt;718 -->
<g id="edge28" class="edge">
<title>628&#45;&gt;718</title>
<path fill="none" stroke="black" d="M1122.37,-190.91C1136.81,-181.2 1152.33,-170.76 1167.13,-160.81"/>
<polygon fill="black" stroke="black" points="1169.39,-163.51 1175.74,-155.02 1165.49,-157.7 1169.39,-163.51"/>
</g>
<!-- 630 -->
<g id="node27" class="node">
<title>630</title>
<polygon fill="#c0c0c0" stroke="black" points="1050,-36 996,-36 996,0 1050,0 1050,-36"/>
<text text-anchor="middle" x="1023" y="-14.3" font-family="Times,serif" font-size="14.00">(...)</text>
</g>
<!-- 629&#45;&gt;630 -->
<g id="edge26" class="edge">
<title>629&#45;&gt;630</title>
<path fill="none" stroke="black" d="M1045.01,-71.76C1041.33,-62.94 1037.53,-53.84 1034.15,-45.72"/>
<polygon fill="black" stroke="black" points="1037.34,-44.29 1030.26,-36.41 1030.88,-46.98 1037.34,-44.29"/>
</g>
<!-- 639 -->
<g id="node28" class="node">
<title>639</title>
<polygon fill="#c0c0c0" stroke="black" points="1122,-36 1068,-36 1068,0 1122,0 1122,-36"/>
<text text-anchor="middle" x="1095" y="-14.3" font-family="Times,serif" font-size="14.00">(...)</text>
</g>
<!-- 629&#45;&gt;639 -->
<g id="edge27" class="edge">
<title>629&#45;&gt;639</title>
<path fill="none" stroke="black" d="M1076.38,-71.76C1079.46,-63.04 1082.63,-54.04 1085.47,-45.99"/>
<polygon fill="black" stroke="black" points="1088.83,-47 1088.86,-36.41 1082.23,-44.67 1088.83,-47"/>
</g>
<!-- 719 -->
<g id="node30" class="node">
<title>719</title>
<polygon fill="#c0c0c0" stroke="black" points="1227,-36 1173,-36 1173,0 1227,0 1227,-36"/>
<text text-anchor="middle" x="1200" y="-14.3" font-family="Times,serif" font-size="14.00">(...)</text>
</g>
<!-- 718&#45;&gt;719 -->
<g id="edge29" class="edge">
<title>718&#45;&gt;719</title>
<path fill="none" stroke="black" d="M1220.31,-71.76C1216.96,-63.04 1213.49,-54.04 1210.39,-45.99"/>
<polygon fill="black" stroke="black" points="1213.56,-44.48 1206.7,-36.41 1207.03,-46.99 1213.56,-44.48"/>
</g>
<!-- 742 -->
<g id="node31" class="node">
<title>742</title>
<polygon fill="#c0c0c0" stroke="black" points="1299,-36 1245,-36 1245,0 1299,0 1299,-36"/>
<text text-anchor="middle" x="1272" y="-14.3" font-family="Times,serif" font-size="14.00">(...)</text>
</g>
<!-- 718&#45;&gt;742 -->
<g id="edge30" class="edge">
<title>718&#45;&gt;742</title>
<path fill="none" stroke="black" d="M1251.69,-71.76C1255.04,-63.04 1258.51,-54.04 1261.61,-45.99"/>
<polygon fill="black" stroke="black" points="1264.97,-46.99 1265.3,-36.41 1258.44,-44.48 1264.97,-46.99"/>
</g>
</g>
</svg>
