<?xml version="1.0" encoding="UTF-8" standalone="no"?>
<!DOCTYPE svg PUBLIC "-//W3C//DTD SVG 1.1//EN"
 "http://www.w3.org/Graphics/SVG/1.1/DTD/svg11.dtd">
<!-- Generated by graphviz version 2.43.0 (0)
 -->
<!-- Title: Tree Pages: 1 -->
<svg width="1839pt" height="520pt"
 viewBox="0.00 0.00 1839.00 520.00" xmlns="http://www.w3.org/2000/svg" xmlns:xlink="http://www.w3.org/1999/xlink">
<g id="graph0" class="graph" transform="scale(1 1) rotate(0) translate(4 516)">
<title>Tree</title>
<polygon fill="white" stroke="transparent" points="-4,4 -4,-516 1835,-516 1835,4 -4,4"/>
<!-- 0 -->
<g id="node1" class="node">
<title>0</title>
<polygon fill="#f5f0fd" stroke="black" points="1038.5,-512 799.5,-512 799.5,-429 1038.5,-429 1038.5,-512"/>
<text text-anchor="middle" x="919" y="-496.8" font-family="Times,serif" font-size="14.00">CCR &lt;= 5.5</text>
<text text-anchor="middle" x="919" y="-481.8" font-family="Times,serif" font-size="14.00">gini = 0.641</text>
<text text-anchor="middle" x="919" y="-466.8" font-family="Times,serif" font-size="14.00">samples = 162489</text>
<text text-anchor="middle" x="919" y="-451.8" font-family="Times,serif" font-size="14.00">value = [33577, 60577, 68335]</text>
<text text-anchor="middle" x="919" y="-436.8" font-family="Times,serif" font-size="14.00">class = None</text>
</g>
<!-- 1 -->
<g id="node2" class="node">
<title>1</title>
<polygon fill="#b7f6d1" stroke="black" points="811.5,-393 572.5,-393 572.5,-310 811.5,-310 811.5,-393"/>
<text text-anchor="middle" x="692" y="-377.8" font-family="Times,serif" font-size="14.00">graphSize &lt;= 22.5</text>
<text text-anchor="middle" x="692" y="-362.8" font-family="Times,serif" font-size="14.00">gini = 0.585</text>
<text text-anchor="middle" x="692" y="-347.8" font-family="Times,serif" font-size="14.00">samples = 100129</text>
<text text-anchor="middle" x="692" y="-332.8" font-family="Times,serif" font-size="14.00">value = [29627, 55185, 15317]</text>
<text text-anchor="middle" x="692" y="-317.8" font-family="Times,serif" font-size="14.00">class = DCP</text>
</g>
<!-- 0&#45;&gt;1 -->
<g id="edge1" class="edge">
<title>0&#45;&gt;1</title>
<path fill="none" stroke="black" d="M840.24,-428.91C820.7,-418.83 799.63,-407.98 779.69,-397.7"/>
<polygon fill="black" stroke="black" points="781.11,-394.49 770.62,-393.02 777.9,-400.71 781.11,-394.49"/>
<text text-anchor="middle" x="778.23" y="-413.13" font-family="Times,serif" font-size="14.00">True</text>
</g>
<!-- 574 -->
<g id="node17" class="node">
<title>574</title>
<polygon fill="#9659e9" stroke="black" points="1269.5,-393 1048.5,-393 1048.5,-310 1269.5,-310 1269.5,-393"/>
<text text-anchor="middle" x="1159" y="-377.8" font-family="Times,serif" font-size="14.00">sdComp &lt;= 6.5</text>
<text text-anchor="middle" x="1159" y="-362.8" font-family="Times,serif" font-size="14.00">gini = 0.266</text>
<text text-anchor="middle" x="1159" y="-347.8" font-family="Times,serif" font-size="14.00">samples = 62360</text>
<text text-anchor="middle" x="1159" y="-332.8" font-family="Times,serif" font-size="14.00">value = [3950, 5392, 53018]</text>
<text text-anchor="middle" x="1159" y="-317.8" font-family="Times,serif" font-size="14.00">class = None</text>
</g>
<!-- 0&#45;&gt;574 -->
<g id="edge16" class="edge">
<title>0&#45;&gt;574</title>
<path fill="none" stroke="black" d="M1002.27,-428.91C1023.12,-418.74 1045.6,-407.78 1066.86,-397.42"/>
<polygon fill="black" stroke="black" points="1068.43,-400.55 1075.88,-393.02 1065.36,-394.26 1068.43,-400.55"/>
<text text-anchor="middle" x="1067.74" y="-412.96" font-family="Times,serif" font-size="14.00">False</text>
</g>
<!-- 2 -->
<g id="node3" class="node">
<title>2</title>
<polygon fill="#caf8de" stroke="black" points="460,-274 230,-274 230,-191 460,-191 460,-274"/>
<text text-anchor="middle" x="345" y="-258.8" font-family="Times,serif" font-size="14.00">sdComm &lt;= 0.02</text>
<text text-anchor="middle" x="345" y="-243.8" font-family="Times,serif" font-size="14.00">gini = 0.595</text>
<text text-anchor="middle" x="345" y="-228.8" font-family="Times,serif" font-size="14.00">samples = 67760</text>
<text text-anchor="middle" x="345" y="-213.8" font-family="Times,serif" font-size="14.00">value = [23277, 35096, 9387]</text>
<text text-anchor="middle" x="345" y="-198.8" font-family="Times,serif" font-size="14.00">class = DCP</text>
</g>
<!-- 1&#45;&gt;2 -->
<g id="edge2" class="edge">
<title>1&#45;&gt;2</title>
<path fill="none" stroke="black" d="M572.1,-310.07C539.11,-298.95 503.26,-286.86 470,-275.65"/>
<polygon fill="black" stroke="black" points="470.82,-272.23 460.23,-272.35 468.58,-278.86 470.82,-272.23"/>
</g>
<!-- 145 -->
<g id="node10" class="node">
<title>145</title>
<polygon fill="#96f1bc" stroke="black" points="802.5,-274 581.5,-274 581.5,-191 802.5,-191 802.5,-274"/>
<text text-anchor="middle" x="692" y="-258.8" font-family="Times,serif" font-size="14.00">sdComm &lt;= 0.65</text>
<text text-anchor="middle" x="692" y="-243.8" font-family="Times,serif" font-size="14.00">gini = 0.543</text>
<text text-anchor="middle" x="692" y="-228.8" font-family="Times,serif" font-size="14.00">samples = 32369</text>
<text text-anchor="middle" x="692" y="-213.8" font-family="Times,serif" font-size="14.00">value = [6350, 20089, 5930]</text>
<text text-anchor="middle" x="692" y="-198.8" font-family="Times,serif" font-size="14.00">class = DCP</text>
</g>
<!-- 1&#45;&gt;145 -->
<g id="edge9" class="edge">
<title>1&#45;&gt;145</title>
<path fill="none" stroke="black" d="M692,-309.91C692,-301.65 692,-292.86 692,-284.3"/>
<polygon fill="black" stroke="black" points="695.5,-284.02 692,-274.02 688.5,-284.02 695.5,-284.02"/>
</g>
<!-- 3 -->
<g id="node4" class="node">
<title>3</title>
<polygon fill="#fffefe" stroke="black" points="212,-155 0,-155 0,-72 212,-72 212,-155"/>
<text text-anchor="middle" x="106" y="-139.8" font-family="Times,serif" font-size="14.00">sdComp &lt;= 0.02</text>
<text text-anchor="middle" x="106" y="-124.8" font-family="Times,serif" font-size="14.00">gini = 0.577</text>
<text text-anchor="middle" x="106" y="-109.8" font-family="Times,serif" font-size="14.00">samples = 14856</text>
<text text-anchor="middle" x="106" y="-94.8" font-family="Times,serif" font-size="14.00">value = [6786, 6750, 1320]</text>
<text text-anchor="middle" x="106" y="-79.8" font-family="Times,serif" font-size="14.00">class = DLS/DC</text>
</g>
<!-- 2&#45;&gt;3 -->
<g id="edge3" class="edge">
<title>2&#45;&gt;3</title>
<path fill="none" stroke="black" d="M262.08,-190.91C241.32,-180.74 218.92,-169.78 197.76,-159.42"/>
<polygon fill="black" stroke="black" points="199.29,-156.27 188.77,-155.02 196.22,-162.56 199.29,-156.27"/>
</g>
<!-- 26 -->
<g id="node7" class="node">
<title>26</title>
<polygon fill="#bff7d6" stroke="black" points="460,-155 230,-155 230,-72 460,-72 460,-155"/>
<text text-anchor="middle" x="345" y="-139.8" font-family="Times,serif" font-size="14.00">graphDepth &lt;= 3.5</text>
<text text-anchor="middle" x="345" y="-124.8" font-family="Times,serif" font-size="14.00">gini = 0.592</text>
<text text-anchor="middle" x="345" y="-109.8" font-family="Times,serif" font-size="14.00">samples = 52904</text>
<text text-anchor="middle" x="345" y="-94.8" font-family="Times,serif" font-size="14.00">value = [16491, 28346, 8067]</text>
<text text-anchor="middle" x="345" y="-79.8" font-family="Times,serif" font-size="14.00">class = DCP</text>
</g>
<!-- 2&#45;&gt;26 -->
<g id="edge6" class="edge">
<title>2&#45;&gt;26</title>
<path fill="none" stroke="black" d="M345,-190.91C345,-182.65 345,-173.86 345,-165.3"/>
<polygon fill="black" stroke="black" points="348.5,-165.02 345,-155.02 341.5,-165.02 348.5,-165.02"/>
</g>
<!-- 4 -->
<g id="node5" class="node">
<title>4</title>
<polygon fill="#c0c0c0" stroke="black" points="97,-36 43,-36 43,0 97,0 97,-36"/>
<text text-anchor="middle" x="70" y="-14.3" font-family="Times,serif" font-size="14.00">(...)</text>
</g>
<!-- 3&#45;&gt;4 -->
<g id="edge4" class="edge">
<title>3&#45;&gt;4</title>
<path fill="none" stroke="black" d="M90.31,-71.76C86.96,-63.04 83.49,-54.04 80.39,-45.99"/>
<polygon fill="black" stroke="black" points="83.56,-44.48 76.7,-36.41 77.03,-46.99 83.56,-44.48"/>
</g>
<!-- 11 -->
<g id="node6" class="node">
<title>11</title>
<polygon fill="#c0c0c0" stroke="black" points="169,-36 115,-36 115,0 169,0 169,-36"/>
<text text-anchor="middle" x="142" y="-14.3" font-family="Times,serif" font-size="14.00">(...)</text>
</g>
<!-- 3&#45;&gt;11 -->
<g id="edge5" class="edge">
<title>3&#45;&gt;11</title>
<path fill="none" stroke="black" d="M121.69,-71.76C125.04,-63.04 128.51,-54.04 131.61,-45.99"/>
<polygon fill="black" stroke="black" points="134.97,-46.99 135.3,-36.41 128.44,-44.48 134.97,-46.99"/>
</g>
<!-- 27 -->
<g id="node8" class="node">
<title>27</title>
<polygon fill="#c0c0c0" stroke="black" points="336,-36 282,-36 282,0 336,0 336,-36"/>
<text text-anchor="middle" x="309" y="-14.3" font-family="Times,serif" font-size="14.00">(...)</text>
</g>
<!-- 26&#45;&gt;27 -->
<g id="edge7" class="edge">
<title>26&#45;&gt;27</title>
<path fill="none" stroke="black" d="M329.31,-71.76C325.96,-63.04 322.49,-54.04 319.39,-45.99"/>
<polygon fill="black" stroke="black" points="322.56,-44.48 315.7,-36.41 316.03,-46.99 322.56,-44.48"/>
</g>
<!-- 86 -->
<g id="node9" class="node">
<title>86</title>
<polygon fill="#c0c0c0" stroke="black" points="408,-36 354,-36 354,0 408,0 408,-36"/>
<text text-anchor="middle" x="381" y="-14.3" font-family="Times,serif" font-size="14.00">(...)</text>
</g>
<!-- 26&#45;&gt;86 -->
<g id="edge8" class="edge">
<title>26&#45;&gt;86</title>
<path fill="none" stroke="black" d="M360.69,-71.76C364.04,-63.04 367.51,-54.04 370.61,-45.99"/>
<polygon fill="black" stroke="black" points="373.97,-46.99 374.3,-36.41 367.44,-44.48 373.97,-46.99"/>
</g>
<!-- 146 -->
<g id="node11" class="node">
<title>146</title>
<polygon fill="#8ff0b8" stroke="black" points="699.5,-155 478.5,-155 478.5,-72 699.5,-72 699.5,-155"/>
<text text-anchor="middle" x="589" y="-139.8" font-family="Times,serif" font-size="14.00">sdComp &lt;= 0.2</text>
<text text-anchor="middle" x="589" y="-124.8" font-family="Times,serif" font-size="14.00">gini = 0.524</text>
<text text-anchor="middle" x="589" y="-109.8" font-family="Times,serif" font-size="14.00">samples = 27898</text>
<text text-anchor="middle" x="589" y="-94.8" font-family="Times,serif" font-size="14.00">value = [4998, 17914, 4986]</text>
<text text-anchor="middle" x="589" y="-79.8" font-family="Times,serif" font-size="14.00">class = DCP</text>
</g>
<!-- 145&#45;&gt;146 -->
<g id="edge10" class="edge">
<title>145&#45;&gt;146</title>
<path fill="none" stroke="black" d="M656.26,-190.91C648.28,-181.83 639.73,-172.12 631.49,-162.77"/>
<polygon fill="black" stroke="black" points="633.91,-160.21 624.67,-155.02 628.65,-164.84 633.91,-160.21"/>
</g>
<!-- 503 -->
<g id="node14" class="node">
<title>503</title>
<polygon fill="#cbf8de" stroke="black" points="920.5,-155 717.5,-155 717.5,-72 920.5,-72 920.5,-155"/>
<text text-anchor="middle" x="819" y="-139.8" font-family="Times,serif" font-size="14.00">sdComp &lt;= 0.2</text>
<text text-anchor="middle" x="819" y="-124.8" font-family="Times,serif" font-size="14.00">gini = 0.627</text>
<text text-anchor="middle" x="819" y="-109.8" font-family="Times,serif" font-size="14.00">samples = 4471</text>
<text text-anchor="middle" x="819" y="-94.8" font-family="Times,serif" font-size="14.00">value = [1352, 2175, 944]</text>
<text text-anchor="middle" x="819" y="-79.8" font-family="Times,serif" font-size="14.00">class = DCP</text>
</g>
<!-- 145&#45;&gt;503 -->
<g id="edge13" class="edge">
<title>145&#45;&gt;503</title>
<path fill="none" stroke="black" d="M736.06,-190.91C746.21,-181.56 757.09,-171.54 767.52,-161.93"/>
<polygon fill="black" stroke="black" points="770.03,-164.37 775.02,-155.02 765.29,-159.22 770.03,-164.37"/>
</g>
<!-- 147 -->
<g id="node12" class="node">
<title>147</title>
<polygon fill="#c0c0c0" stroke="black" points="580,-36 526,-36 526,0 580,0 580,-36"/>
<text text-anchor="middle" x="553" y="-14.3" font-family="Times,serif" font-size="14.00">(...)</text>
</g>
<!-- 146&#45;&gt;147 -->
<g id="edge11" class="edge">
<title>146&#45;&gt;147</title>
<path fill="none" stroke="black" d="M573.31,-71.76C569.96,-63.04 566.49,-54.04 563.39,-45.99"/>
<polygon fill="black" stroke="black" points="566.56,-44.48 559.7,-36.41 560.03,-46.99 566.56,-44.48"/>
</g>
<!-- 410 -->
<g id="node13" class="node">
<title>410</title>
<polygon fill="#c0c0c0" stroke="black" points="652,-36 598,-36 598,0 652,0 652,-36"/>
<text text-anchor="middle" x="625" y="-14.3" font-family="Times,serif" font-size="14.00">(...)</text>
</g>
<!-- 146&#45;&gt;410 -->
<g id="edge12" class="edge">
<title>146&#45;&gt;410</title>
<path fill="none" stroke="black" d="M604.69,-71.76C608.04,-63.04 611.51,-54.04 614.61,-45.99"/>
<polygon fill="black" stroke="black" points="617.97,-46.99 618.3,-36.41 611.44,-44.48 617.97,-46.99"/>
</g>
<!-- 504 -->
<g id="node15" class="node">
<title>504</title>
<polygon fill="#c0c0c0" stroke="black" points="810,-36 756,-36 756,0 810,0 810,-36"/>
<text text-anchor="middle" x="783" y="-14.3" font-family="Times,serif" font-size="14.00">(...)</text>
</g>
<!-- 503&#45;&gt;504 -->
<g id="edge14" class="edge">
<title>503&#45;&gt;504</title>
<path fill="none" stroke="black" d="M803.31,-71.76C799.96,-63.04 796.49,-54.04 793.39,-45.99"/>
<polygon fill="black" stroke="black" points="796.56,-44.48 789.7,-36.41 790.03,-46.99 796.56,-44.48"/>
</g>
<!-- 527 -->
<g id="node16" class="node">
<title>527</title>
<polygon fill="#c0c0c0" stroke="black" points="882,-36 828,-36 828,0 882,0 882,-36"/>
<text text-anchor="middle" x="855" y="-14.3" font-family="Times,serif" font-size="14.00">(...)</text>
</g>
<!-- 503&#45;&gt;527 -->
<g id="edge15" class="edge">
<title>503&#45;&gt;527</title>
<path fill="none" stroke="black" d="M834.69,-71.76C838.04,-63.04 841.51,-54.04 844.61,-45.99"/>
<polygon fill="black" stroke="black" points="847.97,-46.99 848.3,-36.41 841.44,-44.48 847.97,-46.99"/>
</g>
<!-- 575 -->
<g id="node18" class="node">
<title>575</title>
<polygon fill="#9152e8" stroke="black" points="1269.5,-274 1048.5,-274 1048.5,-191 1269.5,-191 1269.5,-274"/>
<text text-anchor="middle" x="1159" y="-258.8" font-family="Times,serif" font-size="14.00">sdComm &lt;= 2.0</text>
<text text-anchor="middle" x="1159" y="-243.8" font-family="Times,serif" font-size="14.00">gini = 0.213</text>
<text text-anchor="middle" x="1159" y="-228.8" font-family="Times,serif" font-size="14.00">samples = 44418</text>
<text text-anchor="middle" x="1159" y="-213.8" font-family="Times,serif" font-size="14.00">value = [1664, 3540, 39214]</text>
<text text-anchor="middle" x="1159" y="-198.8" font-family="Times,serif" font-size="14.00">class = None</text>
</g>
<!-- 574&#45;&gt;575 -->
<g id="edge17" class="edge">
<title>574&#45;&gt;575</title>
<path fill="none" stroke="black" d="M1159,-309.91C1159,-301.65 1159,-292.86 1159,-284.3"/>
<polygon fill="black" stroke="black" points="1162.5,-284.02 1159,-274.02 1155.5,-284.02 1162.5,-284.02"/>
</g>
<!-- 716 -->
<g id="node25" class="node">
<title>716</title>
<polygon fill="#a26dec" stroke="black" points="1623.5,-274 1402.5,-274 1402.5,-191 1623.5,-191 1623.5,-274"/>
<text text-anchor="middle" x="1513" y="-258.8" font-family="Times,serif" font-size="14.00">nbproc &lt;= 4.5</text>
<text text-anchor="middle" x="1513" y="-243.8" font-family="Times,serif" font-size="14.00">gini = 0.381</text>
<text text-anchor="middle" x="1513" y="-228.8" font-family="Times,serif" font-size="14.00">samples = 17942</text>
<text text-anchor="middle" x="1513" y="-213.8" font-family="Times,serif" font-size="14.00">value = [2286, 1852, 13804]</text>
<text text-anchor="middle" x="1513" y="-198.8" font-family="Times,serif" font-size="14.00">class = None</text>
</g>
<!-- 574&#45;&gt;716 -->
<g id="edge24" class="edge">
<title>574&#45;&gt;716</title>
<path fill="none" stroke="black" d="M1269.55,-313.96C1308.71,-301.02 1352.94,-286.4 1392.86,-273.21"/>
<polygon fill="black" stroke="black" points="1393.98,-276.52 1402.37,-270.06 1391.78,-269.88 1393.98,-276.52"/>
</g>
<!-- 576 -->
<g id="node19" class="node">
<title>576</title>
<polygon fill="#9b61ea" stroke="black" points="1150,-155 938,-155 938,-72 1150,-72 1150,-155"/>
<text text-anchor="middle" x="1044" y="-139.8" font-family="Times,serif" font-size="14.00">graphDepth &lt;= 9.0</text>
<text text-anchor="middle" x="1044" y="-124.8" font-family="Times,serif" font-size="14.00">gini = 0.303</text>
<text text-anchor="middle" x="1044" y="-109.8" font-family="Times,serif" font-size="14.00">samples = 13626</text>
<text text-anchor="middle" x="1044" y="-94.8" font-family="Times,serif" font-size="14.00">value = [660, 1748, 11218]</text>
<text text-anchor="middle" x="1044" y="-79.8" font-family="Times,serif" font-size="14.00">class = None</text>
</g>
<!-- 575&#45;&gt;576 -->
<g id="edge18" class="edge">
<title>575&#45;&gt;576</title>
<path fill="none" stroke="black" d="M1119.1,-190.91C1110,-181.65 1100.25,-171.73 1090.89,-162.21"/>
<polygon fill="black" stroke="black" points="1093.33,-159.7 1083.83,-155.02 1088.34,-164.61 1093.33,-159.7"/>
</g>
<!-- 619 -->
<g id="node22" class="node">
<title>619</title>
<polygon fill="#8d4ce8" stroke="black" points="1388.5,-155 1167.5,-155 1167.5,-72 1388.5,-72 1388.5,-155"/>
<text text-anchor="middle" x="1278" y="-139.8" font-family="Times,serif" font-size="14.00">sdComp &lt;= 2.0</text>
<text text-anchor="middle" x="1278" y="-124.8" font-family="Times,serif" font-size="14.00">gini = 0.169</text>
<text text-anchor="middle" x="1278" y="-109.8" font-family="Times,serif" font-size="14.00">samples = 30792</text>
<text text-anchor="middle" x="1278" y="-94.8" font-family="Times,serif" font-size="14.00">value = [1004, 1792, 27996]</text>
<text text-anchor="middle" x="1278" y="-79.8" font-family="Times,serif" font-size="14.00">class = None</text>
</g>
<!-- 575&#45;&gt;619 -->
<g id="edge21" class="edge">
<title>575&#45;&gt;619</title>
<path fill="none" stroke="black" d="M1200.29,-190.91C1209.7,-181.65 1219.79,-171.73 1229.48,-162.21"/>
<polygon fill="black" stroke="black" points="1232.11,-164.53 1236.79,-155.02 1227.2,-159.54 1232.11,-164.53"/>
</g>
<!-- 577 -->
<g id="node20" class="node">
<title>577</title>
<polygon fill="#c0c0c0" stroke="black" points="1035,-36 981,-36 981,0 1035,0 1035,-36"/>
<text text-anchor="middle" x="1008" y="-14.3" font-family="Times,serif" font-size="14.00">(...)</text>
</g>
<!-- 576&#45;&gt;577 -->
<g id="edge19" class="edge">
<title>576&#45;&gt;577</title>
<path fill="none" stroke="black" d="M1028.31,-71.76C1024.96,-63.04 1021.49,-54.04 1018.39,-45.99"/>
<polygon fill="black" stroke="black" points="1021.56,-44.48 1014.7,-36.41 1015.03,-46.99 1021.56,-44.48"/>
</g>
<!-- 594 -->
<g id="node21" class="node">
<title>594</title>
<polygon fill="#c0c0c0" stroke="black" points="1107,-36 1053,-36 1053,0 1107,0 1107,-36"/>
<text text-anchor="middle" x="1080" y="-14.3" font-family="Times,serif" font-size="14.00">(...)</text>
</g>
<!-- 576&#45;&gt;594 -->
<g id="edge20" class="edge">
<title>576&#45;&gt;594</title>
<path fill="none" stroke="black" d="M1059.69,-71.76C1063.04,-63.04 1066.51,-54.04 1069.61,-45.99"/>
<polygon fill="black" stroke="black" points="1072.97,-46.99 1073.3,-36.41 1066.44,-44.48 1072.97,-46.99"/>
</g>
<!-- 620 -->
<g id="node23" class="node">
<title>620</title>
<polygon fill="#c0c0c0" stroke="black" points="1269,-36 1215,-36 1215,0 1269,0 1269,-36"/>
<text text-anchor="middle" x="1242" y="-14.3" font-family="Times,serif" font-size="14.00">(...)</text>
</g>
<!-- 619&#45;&gt;620 -->
<g id="edge22" class="edge">
<title>619&#45;&gt;620</title>
<path fill="none" stroke="black" d="M1262.31,-71.76C1258.96,-63.04 1255.49,-54.04 1252.39,-45.99"/>
<polygon fill="black" stroke="black" points="1255.56,-44.48 1248.7,-36.41 1249.03,-46.99 1255.56,-44.48"/>
</g>
<!-- 671 -->
<g id="node24" class="node">
<title>671</title>
<polygon fill="#c0c0c0" stroke="black" points="1341,-36 1287,-36 1287,0 1341,0 1341,-36"/>
<text text-anchor="middle" x="1314" y="-14.3" font-family="Times,serif" font-size="14.00">(...)</text>
</g>
<!-- 619&#45;&gt;671 -->
<g id="edge23" class="edge">
<title>619&#45;&gt;671</title>
<path fill="none" stroke="black" d="M1293.69,-71.76C1297.04,-63.04 1300.51,-54.04 1303.61,-45.99"/>
<polygon fill="black" stroke="black" points="1306.97,-46.99 1307.3,-36.41 1300.44,-44.48 1306.97,-46.99"/>
</g>
<!-- 717 -->
<g id="node26" class="node">
<title>717</title>
<polygon fill="#ae80ee" stroke="black" points="1619,-155 1407,-155 1407,-72 1619,-72 1619,-155"/>
<text text-anchor="middle" x="1513" y="-139.8" font-family="Times,serif" font-size="14.00">graphSize &lt;= 75.0</text>
<text text-anchor="middle" x="1513" y="-124.8" font-family="Times,serif" font-size="14.00">gini = 0.455</text>
<text text-anchor="middle" x="1513" y="-109.8" font-family="Times,serif" font-size="14.00">samples = 11196</text>
<text text-anchor="middle" x="1513" y="-94.8" font-family="Times,serif" font-size="14.00">value = [2024, 1262, 7910]</text>
<text text-anchor="middle" x="1513" y="-79.8" font-family="Times,serif" font-size="14.00">class = None</text>
</g>
<!-- 716&#45;&gt;717 -->
<g id="edge25" class="edge">
<title>716&#45;&gt;717</title>
<path fill="none" stroke="black" d="M1513,-190.91C1513,-182.65 1513,-173.86 1513,-165.3"/>
<polygon fill="black" stroke="black" points="1516.5,-165.02 1513,-155.02 1509.5,-165.02 1516.5,-165.02"/>
</g>
<!-- 764 -->
<g id="node29" class="node">
<title>764</title>
<polygon fill="#9254e9" stroke="black" points="1831,-155 1637,-155 1637,-72 1831,-72 1831,-155"/>
<text text-anchor="middle" x="1734" y="-139.8" font-family="Times,serif" font-size="14.00">graphSize &lt;= 22.5</text>
<text text-anchor="middle" x="1734" y="-124.8" font-family="Times,serif" font-size="14.00">gini = 0.227</text>
<text text-anchor="middle" x="1734" y="-109.8" font-family="Times,serif" font-size="14.00">samples = 6746</text>
<text text-anchor="middle" x="1734" y="-94.8" font-family="Times,serif" font-size="14.00">value = [262, 590, 5894]</text>
<text text-anchor="middle" x="1734" y="-79.8" font-family="Times,serif" font-size="14.00">class = None</text>
</g>
<!-- 716&#45;&gt;764 -->
<g id="edge28" class="edge">
<title>716&#45;&gt;764</title>
<path fill="none" stroke="black" d="M1589.67,-190.91C1608.62,-180.88 1629.03,-170.07 1648.36,-159.84"/>
<polygon fill="black" stroke="black" points="1650.26,-162.79 1657.46,-155.02 1646.99,-156.61 1650.26,-162.79"/>
</g>
<!-- 718 -->
<g id="node27" class="node">
<title>718</title>
<polygon fill="#c0c0c0" stroke="black" points="1504,-36 1450,-36 1450,0 1504,0 1504,-36"/>
<text text-anchor="middle" x="1477" y="-14.3" font-family="Times,serif" font-size="14.00">(...)</text>
</g>
<!-- 717&#45;&gt;718 -->
<g id="edge26" class="edge">
<title>717&#45;&gt;718</title>
<path fill="none" stroke="black" d="M1497.31,-71.76C1493.96,-63.04 1490.49,-54.04 1487.39,-45.99"/>
<polygon fill="black" stroke="black" points="1490.56,-44.48 1483.7,-36.41 1484.03,-46.99 1490.56,-44.48"/>
</g>
<!-- 753 -->
<g id="node28" class="node">
<title>753</title>
<polygon fill="#c0c0c0" stroke="black" points="1576,-36 1522,-36 1522,0 1576,0 1576,-36"/>
<text text-anchor="middle" x="1549" y="-14.3" font-family="Times,serif" font-size="14.00">(...)</text>
</g>
<!-- 717&#45;&gt;753 -->
<g id="edge27" class="edge">
<title>717&#45;&gt;753</title>
<path fill="none" stroke="black" d="M1528.69,-71.76C1532.04,-63.04 1535.51,-54.04 1538.61,-45.99"/>
<polygon fill="black" stroke="black" points="1541.97,-46.99 1542.3,-36.41 1535.44,-44.48 1541.97,-46.99"/>
</g>
<!-- 765 -->
<g id="node30" class="node">
<title>765</title>
<polygon fill="#c0c0c0" stroke="black" points="1725,-36 1671,-36 1671,0 1725,0 1725,-36"/>
<text text-anchor="middle" x="1698" y="-14.3" font-family="Times,serif" font-size="14.00">(...)</text>
</g>
<!-- 764&#45;&gt;765 -->
<g id="edge29" class="edge">
<title>764&#45;&gt;765</title>
<path fill="none" stroke="black" d="M1718.31,-71.76C1714.96,-63.04 1711.49,-54.04 1708.39,-45.99"/>
<polygon fill="black" stroke="black" points="1711.56,-44.48 1704.7,-36.41 1705.03,-46.99 1711.56,-44.48"/>
</g>
<!-- 776 -->
<g id="node31" class="node">
<title>776</title>
<polygon fill="#c0c0c0" stroke="black" points="1797,-36 1743,-36 1743,0 1797,0 1797,-36"/>
<text text-anchor="middle" x="1770" y="-14.3" font-family="Times,serif" font-size="14.00">(...)</text>
</g>
<!-- 764&#45;&gt;776 -->
<g id="edge30" class="edge">
<title>764&#45;&gt;776</title>
<path fill="none" stroke="black" d="M1749.69,-71.76C1753.04,-63.04 1756.51,-54.04 1759.61,-45.99"/>
<polygon fill="black" stroke="black" points="1762.97,-46.99 1763.3,-36.41 1756.44,-44.48 1762.97,-46.99"/>
</g>
</g>
</svg>
