<?xml version="1.0" encoding="UTF-8" standalone="no"?>
<!DOCTYPE svg PUBLIC "-//W3C//DTD SVG 1.1//EN"
 "http://www.w3.org/Graphics/SVG/1.1/DTD/svg11.dtd">
<!-- Generated by graphviz version 2.43.0 (0)
 -->
<!-- Title: Tree Pages: 1 -->
<svg width="1316pt" height="520pt"
 viewBox="0.00 0.00 1315.50 520.00" xmlns="http://www.w3.org/2000/svg" xmlns:xlink="http://www.w3.org/1999/xlink">
<g id="graph0" class="graph" transform="scale(1 1) rotate(0) translate(4 516)">
<title>Tree</title>
<polygon fill="white" stroke="transparent" points="-4,4 -4,-516 1311.5,-516 1311.5,4 -4,4"/>
<!-- 0 -->
<g id="node1" class="node">
<title>0</title>
<polygon fill="#eca571" stroke="black" points="721,-512 563,-512 563,-429 721,-429 721,-512"/>
<text text-anchor="middle" x="642" y="-496.8" font-family="Times,serif" font-size="14.00">CCR &lt;= 5.5</text>
<text text-anchor="middle" x="642" y="-481.8" font-family="Times,serif" font-size="14.00">gini = 0.345</text>
<text text-anchor="middle" x="642" y="-466.8" font-family="Times,serif" font-size="14.00">samples = 4320</text>
<text text-anchor="middle" x="642" y="-451.8" font-family="Times,serif" font-size="14.00">value = [3363, 957]</text>
<text text-anchor="middle" x="642" y="-436.8" font-family="Times,serif" font-size="14.00">class = False</text>
</g>
<!-- 1 -->
<g id="node2" class="node">
<title>1</title>
<polygon fill="#efb084" stroke="black" points="558,-393 400,-393 400,-310 558,-310 558,-393"/>
<text text-anchor="middle" x="479" y="-377.8" font-family="Times,serif" font-size="14.00">graphSize &lt;= 22.5</text>
<text text-anchor="middle" x="479" y="-362.8" font-family="Times,serif" font-size="14.00">gini = 0.397</text>
<text text-anchor="middle" x="479" y="-347.8" font-family="Times,serif" font-size="14.00">samples = 2880</text>
<text text-anchor="middle" x="479" y="-332.8" font-family="Times,serif" font-size="14.00">value = [2092, 788]</text>
<text text-anchor="middle" x="479" y="-317.8" font-family="Times,serif" font-size="14.00">class = False</text>
</g>
<!-- 0&#45;&gt;1 -->
<g id="edge1" class="edge">
<title>0&#45;&gt;1</title>
<path fill="none" stroke="black" d="M585.45,-428.91C572.05,-419.29 557.65,-408.95 543.91,-399.09"/>
<polygon fill="black" stroke="black" points="545.62,-396.01 535.45,-393.02 541.53,-401.7 545.62,-396.01"/>
<text text-anchor="middle" x="539.5" y="-413.99" font-family="Times,serif" font-size="14.00">True</text>
</g>
<!-- 572 -->
<g id="node17" class="node">
<title>572</title>
<polygon fill="#e89253" stroke="black" points="895,-393 737,-393 737,-310 895,-310 895,-393"/>
<text text-anchor="middle" x="816" y="-377.8" font-family="Times,serif" font-size="14.00">sdComp &lt;= 6.5</text>
<text text-anchor="middle" x="816" y="-362.8" font-family="Times,serif" font-size="14.00">gini = 0.207</text>
<text text-anchor="middle" x="816" y="-347.8" font-family="Times,serif" font-size="14.00">samples = 1440</text>
<text text-anchor="middle" x="816" y="-332.8" font-family="Times,serif" font-size="14.00">value = [1271, 169]</text>
<text text-anchor="middle" x="816" y="-317.8" font-family="Times,serif" font-size="14.00">class = False</text>
</g>
<!-- 0&#45;&gt;572 -->
<g id="edge16" class="edge">
<title>0&#45;&gt;572</title>
<path fill="none" stroke="black" d="M702.37,-428.91C716.81,-419.2 732.33,-408.76 747.13,-398.81"/>
<polygon fill="black" stroke="black" points="749.39,-401.51 755.74,-393.02 745.49,-395.7 749.39,-401.51"/>
<text text-anchor="middle" x="750.93" y="-413.85" font-family="Times,serif" font-size="14.00">False</text>
</g>
<!-- 2 -->
<g id="node3" class="node">
<title>2</title>
<polygon fill="#eb9f68" stroke="black" points="307,-274 149,-274 149,-191 307,-191 307,-274"/>
<text text-anchor="middle" x="228" y="-258.8" font-family="Times,serif" font-size="14.00">graphDepth &lt;= 3.5</text>
<text text-anchor="middle" x="228" y="-243.8" font-family="Times,serif" font-size="14.00">gini = 0.308</text>
<text text-anchor="middle" x="228" y="-228.8" font-family="Times,serif" font-size="14.00">samples = 720</text>
<text text-anchor="middle" x="228" y="-213.8" font-family="Times,serif" font-size="14.00">value = [583, 137]</text>
<text text-anchor="middle" x="228" y="-198.8" font-family="Times,serif" font-size="14.00">class = False</text>
</g>
<!-- 1&#45;&gt;2 -->
<g id="edge2" class="edge">
<title>1&#45;&gt;2</title>
<path fill="none" stroke="black" d="M399.93,-313.64C373.33,-301.24 343.5,-287.34 316.24,-274.63"/>
<polygon fill="black" stroke="black" points="317.65,-271.43 307.11,-270.37 314.69,-277.77 317.65,-271.43"/>
</g>
<!-- 141 -->
<g id="node10" class="node">
<title>141</title>
<polygon fill="#f0b78e" stroke="black" points="558,-274 400,-274 400,-191 558,-191 558,-274"/>
<text text-anchor="middle" x="479" y="-258.8" font-family="Times,serif" font-size="14.00">nbproc &lt;= 4.5</text>
<text text-anchor="middle" x="479" y="-243.8" font-family="Times,serif" font-size="14.00">gini = 0.421</text>
<text text-anchor="middle" x="479" y="-228.8" font-family="Times,serif" font-size="14.00">samples = 2160</text>
<text text-anchor="middle" x="479" y="-213.8" font-family="Times,serif" font-size="14.00">value = [1509, 651]</text>
<text text-anchor="middle" x="479" y="-198.8" font-family="Times,serif" font-size="14.00">class = False</text>
</g>
<!-- 1&#45;&gt;141 -->
<g id="edge9" class="edge">
<title>1&#45;&gt;141</title>
<path fill="none" stroke="black" d="M479,-309.91C479,-301.65 479,-292.86 479,-284.3"/>
<polygon fill="black" stroke="black" points="482.5,-284.02 479,-274.02 475.5,-284.02 482.5,-284.02"/>
</g>
<!-- 3 -->
<g id="node4" class="node">
<title>3</title>
<polygon fill="#eda876" stroke="black" points="140,-155 0,-155 0,-72 140,-72 140,-155"/>
<text text-anchor="middle" x="70" y="-139.8" font-family="Times,serif" font-size="14.00">nbproc &lt;= 4.5</text>
<text text-anchor="middle" x="70" y="-124.8" font-family="Times,serif" font-size="14.00">gini = 0.361</text>
<text text-anchor="middle" x="70" y="-109.8" font-family="Times,serif" font-size="14.00">samples = 360</text>
<text text-anchor="middle" x="70" y="-94.8" font-family="Times,serif" font-size="14.00">value = [275, 85]</text>
<text text-anchor="middle" x="70" y="-79.8" font-family="Times,serif" font-size="14.00">class = False</text>
</g>
<!-- 2&#45;&gt;3 -->
<g id="edge3" class="edge">
<title>2&#45;&gt;3</title>
<path fill="none" stroke="black" d="M173.18,-190.91C160.19,-181.29 146.24,-170.95 132.92,-161.09"/>
<polygon fill="black" stroke="black" points="134.84,-158.16 124.72,-155.02 130.67,-163.78 134.84,-158.16"/>
</g>
<!-- 74 -->
<g id="node7" class="node">
<title>74</title>
<polygon fill="#e9965a" stroke="black" points="298,-155 158,-155 158,-72 298,-72 298,-155"/>
<text text-anchor="middle" x="228" y="-139.8" font-family="Times,serif" font-size="14.00">sdComp &lt;= 0.65</text>
<text text-anchor="middle" x="228" y="-124.8" font-family="Times,serif" font-size="14.00">gini = 0.247</text>
<text text-anchor="middle" x="228" y="-109.8" font-family="Times,serif" font-size="14.00">samples = 360</text>
<text text-anchor="middle" x="228" y="-94.8" font-family="Times,serif" font-size="14.00">value = [308, 52]</text>
<text text-anchor="middle" x="228" y="-79.8" font-family="Times,serif" font-size="14.00">class = False</text>
</g>
<!-- 2&#45;&gt;74 -->
<g id="edge6" class="edge">
<title>2&#45;&gt;74</title>
<path fill="none" stroke="black" d="M228,-190.91C228,-182.65 228,-173.86 228,-165.3"/>
<polygon fill="black" stroke="black" points="231.5,-165.02 228,-155.02 224.5,-165.02 231.5,-165.02"/>
</g>
<!-- 4 -->
<g id="node5" class="node">
<title>4</title>
<polygon fill="#c0c0c0" stroke="black" points="61,-36 7,-36 7,0 61,0 61,-36"/>
<text text-anchor="middle" x="34" y="-14.3" font-family="Times,serif" font-size="14.00">(...)</text>
</g>
<!-- 3&#45;&gt;4 -->
<g id="edge4" class="edge">
<title>3&#45;&gt;4</title>
<path fill="none" stroke="black" d="M54.31,-71.76C50.96,-63.04 47.49,-54.04 44.39,-45.99"/>
<polygon fill="black" stroke="black" points="47.56,-44.48 40.7,-36.41 41.03,-46.99 47.56,-44.48"/>
</g>
<!-- 39 -->
<g id="node6" class="node">
<title>39</title>
<polygon fill="#c0c0c0" stroke="black" points="133,-36 79,-36 79,0 133,0 133,-36"/>
<text text-anchor="middle" x="106" y="-14.3" font-family="Times,serif" font-size="14.00">(...)</text>
</g>
<!-- 3&#45;&gt;39 -->
<g id="edge5" class="edge">
<title>3&#45;&gt;39</title>
<path fill="none" stroke="black" d="M85.69,-71.76C89.04,-63.04 92.51,-54.04 95.61,-45.99"/>
<polygon fill="black" stroke="black" points="98.97,-46.99 99.3,-36.41 92.44,-44.48 98.97,-46.99"/>
</g>
<!-- 75 -->
<g id="node8" class="node">
<title>75</title>
<polygon fill="#c0c0c0" stroke="black" points="227,-36 173,-36 173,0 227,0 227,-36"/>
<text text-anchor="middle" x="200" y="-14.3" font-family="Times,serif" font-size="14.00">(...)</text>
</g>
<!-- 74&#45;&gt;75 -->
<g id="edge7" class="edge">
<title>74&#45;&gt;75</title>
<path fill="none" stroke="black" d="M215.8,-71.76C213.19,-63.04 210.49,-54.04 208.08,-45.99"/>
<polygon fill="black" stroke="black" points="211.43,-44.98 205.21,-36.41 204.73,-46.99 211.43,-44.98"/>
</g>
<!-- 130 -->
<g id="node9" class="node">
<title>130</title>
<polygon fill="#c0c0c0" stroke="black" points="299,-36 245,-36 245,0 299,0 299,-36"/>
<text text-anchor="middle" x="272" y="-14.3" font-family="Times,serif" font-size="14.00">(...)</text>
</g>
<!-- 74&#45;&gt;130 -->
<g id="edge8" class="edge">
<title>74&#45;&gt;130</title>
<path fill="none" stroke="black" d="M247.17,-71.76C251.37,-62.85 255.7,-53.64 259.55,-45.46"/>
<polygon fill="black" stroke="black" points="262.72,-46.94 263.81,-36.41 256.38,-43.96 262.72,-46.94"/>
</g>
<!-- 142 -->
<g id="node11" class="node">
<title>142</title>
<polygon fill="#efb286" stroke="black" points="469.5,-155 316.5,-155 316.5,-72 469.5,-72 469.5,-155"/>
<text text-anchor="middle" x="393" y="-139.8" font-family="Times,serif" font-size="14.00">graphSize &lt;= 40.0</text>
<text text-anchor="middle" x="393" y="-124.8" font-family="Times,serif" font-size="14.00">gini = 0.403</text>
<text text-anchor="middle" x="393" y="-109.8" font-family="Times,serif" font-size="14.00">samples = 1080</text>
<text text-anchor="middle" x="393" y="-94.8" font-family="Times,serif" font-size="14.00">value = [778, 302]</text>
<text text-anchor="middle" x="393" y="-79.8" font-family="Times,serif" font-size="14.00">class = False</text>
</g>
<!-- 141&#45;&gt;142 -->
<g id="edge10" class="edge">
<title>141&#45;&gt;142</title>
<path fill="none" stroke="black" d="M449.16,-190.91C442.63,-182.01 435.64,-172.51 428.89,-163.33"/>
<polygon fill="black" stroke="black" points="431.53,-161.01 422.78,-155.02 425.89,-165.15 431.53,-161.01"/>
</g>
<!-- 357 -->
<g id="node14" class="node">
<title>357</title>
<polygon fill="#f1bd98" stroke="black" points="636.5,-155 487.5,-155 487.5,-72 636.5,-72 636.5,-155"/>
<text text-anchor="middle" x="562" y="-139.8" font-family="Times,serif" font-size="14.00">sdComm &lt;= 0.2</text>
<text text-anchor="middle" x="562" y="-124.8" font-family="Times,serif" font-size="14.00">gini = 0.437</text>
<text text-anchor="middle" x="562" y="-109.8" font-family="Times,serif" font-size="14.00">samples = 1080</text>
<text text-anchor="middle" x="562" y="-94.8" font-family="Times,serif" font-size="14.00">value = [731, 349]</text>
<text text-anchor="middle" x="562" y="-79.8" font-family="Times,serif" font-size="14.00">class = False</text>
</g>
<!-- 141&#45;&gt;357 -->
<g id="edge13" class="edge">
<title>141&#45;&gt;357</title>
<path fill="none" stroke="black" d="M507.8,-190.91C514.11,-182.01 520.85,-172.51 527.36,-163.33"/>
<polygon fill="black" stroke="black" points="530.32,-165.2 533.25,-155.02 524.61,-161.15 530.32,-165.2"/>
</g>
<!-- 143 -->
<g id="node12" class="node">
<title>143</title>
<polygon fill="#c0c0c0" stroke="black" points="395,-36 341,-36 341,0 395,0 395,-36"/>
<text text-anchor="middle" x="368" y="-14.3" font-family="Times,serif" font-size="14.00">(...)</text>
</g>
<!-- 142&#45;&gt;143 -->
<g id="edge11" class="edge">
<title>142&#45;&gt;143</title>
<path fill="none" stroke="black" d="M382.11,-71.76C379.8,-63.14 377.42,-54.24 375.29,-46.26"/>
<polygon fill="black" stroke="black" points="378.62,-45.16 372.65,-36.41 371.86,-46.97 378.62,-45.16"/>
</g>
<!-- 214 -->
<g id="node13" class="node">
<title>214</title>
<polygon fill="#c0c0c0" stroke="black" points="467,-36 413,-36 413,0 467,0 467,-36"/>
<text text-anchor="middle" x="440" y="-14.3" font-family="Times,serif" font-size="14.00">(...)</text>
</g>
<!-- 142&#45;&gt;214 -->
<g id="edge12" class="edge">
<title>142&#45;&gt;214</title>
<path fill="none" stroke="black" d="M413.48,-71.76C417.96,-62.85 422.59,-53.64 426.7,-45.46"/>
<polygon fill="black" stroke="black" points="429.89,-46.91 431.25,-36.41 423.63,-43.77 429.89,-46.91"/>
</g>
<!-- 358 -->
<g id="node15" class="node">
<title>358</title>
<polygon fill="#c0c0c0" stroke="black" points="551,-36 497,-36 497,0 551,0 551,-36"/>
<text text-anchor="middle" x="524" y="-14.3" font-family="Times,serif" font-size="14.00">(...)</text>
</g>
<!-- 357&#45;&gt;358 -->
<g id="edge14" class="edge">
<title>357&#45;&gt;358</title>
<path fill="none" stroke="black" d="M545.44,-71.76C541.86,-62.94 538.16,-53.84 534.86,-45.72"/>
<polygon fill="black" stroke="black" points="538.08,-44.35 531.07,-36.41 531.6,-46.99 538.08,-44.35"/>
</g>
<!-- 501 -->
<g id="node16" class="node">
<title>501</title>
<polygon fill="#c0c0c0" stroke="black" points="623,-36 569,-36 569,0 623,0 623,-36"/>
<text text-anchor="middle" x="596" y="-14.3" font-family="Times,serif" font-size="14.00">(...)</text>
</g>
<!-- 357&#45;&gt;501 -->
<g id="edge15" class="edge">
<title>357&#45;&gt;501</title>
<path fill="none" stroke="black" d="M576.81,-71.76C579.98,-63.04 583.26,-54.04 586.18,-45.99"/>
<polygon fill="black" stroke="black" points="589.54,-47 589.67,-36.41 582.96,-44.61 589.54,-47"/>
</g>
<!-- 573 -->
<g id="node18" class="node">
<title>573</title>
<polygon fill="#e88f4f" stroke="black" points="886,-274 746,-274 746,-191 886,-191 886,-274"/>
<text text-anchor="middle" x="816" y="-258.8" font-family="Times,serif" font-size="14.00">sdComm &lt;= 2.0</text>
<text text-anchor="middle" x="816" y="-243.8" font-family="Times,serif" font-size="14.00">gini = 0.182</text>
<text text-anchor="middle" x="816" y="-228.8" font-family="Times,serif" font-size="14.00">samples = 960</text>
<text text-anchor="middle" x="816" y="-213.8" font-family="Times,serif" font-size="14.00">value = [863, 97]</text>
<text text-anchor="middle" x="816" y="-198.8" font-family="Times,serif" font-size="14.00">class = False</text>
</g>
<!-- 572&#45;&gt;573 -->
<g id="edge17" class="edge">
<title>572&#45;&gt;573</title>
<path fill="none" stroke="black" d="M816,-309.91C816,-301.65 816,-292.86 816,-284.3"/>
<polygon fill="black" stroke="black" points="819.5,-284.02 816,-274.02 812.5,-284.02 819.5,-284.02"/>
</g>
<!-- 746 -->
<g id="node25" class="node">
<title>746</title>
<polygon fill="#ea975c" stroke="black" points="1148,-274 990,-274 990,-191 1148,-191 1148,-274"/>
<text text-anchor="middle" x="1069" y="-258.8" font-family="Times,serif" font-size="14.00">graphDepth &lt;= 3.5</text>
<text text-anchor="middle" x="1069" y="-243.8" font-family="Times,serif" font-size="14.00">gini = 0.255</text>
<text text-anchor="middle" x="1069" y="-228.8" font-family="Times,serif" font-size="14.00">samples = 480</text>
<text text-anchor="middle" x="1069" y="-213.8" font-family="Times,serif" font-size="14.00">value = [408, 72]</text>
<text text-anchor="middle" x="1069" y="-198.8" font-family="Times,serif" font-size="14.00">class = False</text>
</g>
<!-- 572&#45;&gt;746 -->
<g id="edge24" class="edge">
<title>572&#45;&gt;746</title>
<path fill="none" stroke="black" d="M895.01,-313.96C922.1,-301.43 952.6,-287.33 980.4,-274.47"/>
<polygon fill="black" stroke="black" points="982.11,-277.54 989.72,-270.16 979.17,-271.18 982.11,-277.54"/>
</g>
<!-- 574 -->
<g id="node19" class="node">
<title>574</title>
<polygon fill="#e78a48" stroke="black" points="807.5,-155 654.5,-155 654.5,-72 807.5,-72 807.5,-155"/>
<text text-anchor="middle" x="731" y="-139.8" font-family="Times,serif" font-size="14.00">graphSize &lt;= 22.5</text>
<text text-anchor="middle" x="731" y="-124.8" font-family="Times,serif" font-size="14.00">gini = 0.128</text>
<text text-anchor="middle" x="731" y="-109.8" font-family="Times,serif" font-size="14.00">samples = 320</text>
<text text-anchor="middle" x="731" y="-94.8" font-family="Times,serif" font-size="14.00">value = [298, 22]</text>
<text text-anchor="middle" x="731" y="-79.8" font-family="Times,serif" font-size="14.00">class = False</text>
</g>
<!-- 573&#45;&gt;574 -->
<g id="edge18" class="edge">
<title>573&#45;&gt;574</title>
<path fill="none" stroke="black" d="M786.51,-190.91C780.05,-182.01 773.14,-172.51 766.48,-163.33"/>
<polygon fill="black" stroke="black" points="769.15,-161.05 760.44,-155.02 763.48,-165.17 769.15,-161.05"/>
</g>
<!-- 625 -->
<g id="node22" class="node">
<title>625</title>
<polygon fill="#e89253" stroke="black" points="984,-155 826,-155 826,-72 984,-72 984,-155"/>
<text text-anchor="middle" x="905" y="-139.8" font-family="Times,serif" font-size="14.00">graphDepth &lt;= 3.5</text>
<text text-anchor="middle" x="905" y="-124.8" font-family="Times,serif" font-size="14.00">gini = 0.207</text>
<text text-anchor="middle" x="905" y="-109.8" font-family="Times,serif" font-size="14.00">samples = 640</text>
<text text-anchor="middle" x="905" y="-94.8" font-family="Times,serif" font-size="14.00">value = [565, 75]</text>
<text text-anchor="middle" x="905" y="-79.8" font-family="Times,serif" font-size="14.00">class = False</text>
</g>
<!-- 573&#45;&gt;625 -->
<g id="edge21" class="edge">
<title>573&#45;&gt;625</title>
<path fill="none" stroke="black" d="M846.88,-190.91C853.71,-181.92 861.02,-172.32 868.07,-163.05"/>
<polygon fill="black" stroke="black" points="870.91,-165.1 874.18,-155.02 865.34,-160.86 870.91,-165.1"/>
</g>
<!-- 575 -->
<g id="node20" class="node">
<title>575</title>
<polygon fill="#c0c0c0" stroke="black" points="701,-36 647,-36 647,0 701,0 701,-36"/>
<text text-anchor="middle" x="674" y="-14.3" font-family="Times,serif" font-size="14.00">(...)</text>
</g>
<!-- 574&#45;&gt;575 -->
<g id="edge19" class="edge">
<title>574&#45;&gt;575</title>
<path fill="none" stroke="black" d="M706.16,-71.76C700.67,-62.75 694.99,-53.44 689.97,-45.19"/>
<polygon fill="black" stroke="black" points="692.8,-43.12 684.61,-36.41 686.83,-46.77 692.8,-43.12"/>
</g>
<!-- 582 -->
<g id="node21" class="node">
<title>582</title>
<polygon fill="#c0c0c0" stroke="black" points="773,-36 719,-36 719,0 773,0 773,-36"/>
<text text-anchor="middle" x="746" y="-14.3" font-family="Times,serif" font-size="14.00">(...)</text>
</g>
<!-- 574&#45;&gt;582 -->
<g id="edge20" class="edge">
<title>574&#45;&gt;582</title>
<path fill="none" stroke="black" d="M737.54,-71.76C738.9,-63.24 740.31,-54.44 741.58,-46.53"/>
<polygon fill="black" stroke="black" points="745.08,-46.83 743.21,-36.41 738.17,-45.72 745.08,-46.83"/>
</g>
<!-- 626 -->
<g id="node23" class="node">
<title>626</title>
<polygon fill="#c0c0c0" stroke="black" points="870,-36 816,-36 816,0 870,0 870,-36"/>
<text text-anchor="middle" x="843" y="-14.3" font-family="Times,serif" font-size="14.00">(...)</text>
</g>
<!-- 625&#45;&gt;626 -->
<g id="edge22" class="edge">
<title>625&#45;&gt;626</title>
<path fill="none" stroke="black" d="M877.99,-71.76C871.95,-62.65 865.7,-53.24 860.19,-44.92"/>
<polygon fill="black" stroke="black" points="862.98,-42.81 854.54,-36.41 857.15,-46.67 862.98,-42.81"/>
</g>
<!-- 641 -->
<g id="node24" class="node">
<title>641</title>
<polygon fill="#c0c0c0" stroke="black" points="942,-36 888,-36 888,0 942,0 942,-36"/>
<text text-anchor="middle" x="915" y="-14.3" font-family="Times,serif" font-size="14.00">(...)</text>
</g>
<!-- 625&#45;&gt;641 -->
<g id="edge23" class="edge">
<title>625&#45;&gt;641</title>
<path fill="none" stroke="black" d="M909.36,-71.76C910.27,-63.24 911.21,-54.44 912.06,-46.53"/>
<polygon fill="black" stroke="black" points="915.56,-46.72 913.14,-36.41 908.59,-45.98 915.56,-46.72"/>
</g>
<!-- 747 -->
<g id="node26" class="node">
<title>747</title>
<polygon fill="#eca470" stroke="black" points="1136,-155 1002,-155 1002,-72 1136,-72 1136,-155"/>
<text text-anchor="middle" x="1069" y="-139.8" font-family="Times,serif" font-size="14.00">sdComm &lt;= 6.5</text>
<text text-anchor="middle" x="1069" y="-124.8" font-family="Times,serif" font-size="14.00">gini = 0.339</text>
<text text-anchor="middle" x="1069" y="-109.8" font-family="Times,serif" font-size="14.00">samples = 60</text>
<text text-anchor="middle" x="1069" y="-94.8" font-family="Times,serif" font-size="14.00">value = [47, 13]</text>
<text text-anchor="middle" x="1069" y="-79.8" font-family="Times,serif" font-size="14.00">class = False</text>
</g>
<!-- 746&#45;&gt;747 -->
<g id="edge25" class="edge">
<title>746&#45;&gt;747</title>
<path fill="none" stroke="black" d="M1069,-190.91C1069,-182.65 1069,-173.86 1069,-165.3"/>
<polygon fill="black" stroke="black" points="1072.5,-165.02 1069,-155.02 1065.5,-165.02 1072.5,-165.02"/>
</g>
<!-- 758 -->
<g id="node29" class="node">
<title>758</title>
<polygon fill="#e99659" stroke="black" points="1307.5,-155 1154.5,-155 1154.5,-72 1307.5,-72 1307.5,-155"/>
<text text-anchor="middle" x="1231" y="-139.8" font-family="Times,serif" font-size="14.00">graphSize &lt;= 22.5</text>
<text text-anchor="middle" x="1231" y="-124.8" font-family="Times,serif" font-size="14.00">gini = 0.241</text>
<text text-anchor="middle" x="1231" y="-109.8" font-family="Times,serif" font-size="14.00">samples = 420</text>
<text text-anchor="middle" x="1231" y="-94.8" font-family="Times,serif" font-size="14.00">value = [361, 59]</text>
<text text-anchor="middle" x="1231" y="-79.8" font-family="Times,serif" font-size="14.00">class = False</text>
</g>
<!-- 746&#45;&gt;758 -->
<g id="edge28" class="edge">
<title>746&#45;&gt;758</title>
<path fill="none" stroke="black" d="M1125.21,-190.91C1138.52,-181.29 1152.83,-170.95 1166.49,-161.09"/>
<polygon fill="black" stroke="black" points="1168.84,-163.71 1174.89,-155.02 1164.74,-158.04 1168.84,-163.71"/>
</g>
<!-- 748 -->
<g id="node27" class="node">
<title>748</title>
<polygon fill="#c0c0c0" stroke="black" points="1051,-36 997,-36 997,0 1051,0 1051,-36"/>
<text text-anchor="middle" x="1024" y="-14.3" font-family="Times,serif" font-size="14.00">(...)</text>
</g>
<!-- 747&#45;&gt;748 -->
<g id="edge26" class="edge">
<title>747&#45;&gt;748</title>
<path fill="none" stroke="black" d="M1049.39,-71.76C1045.1,-62.85 1040.67,-53.64 1036.73,-45.46"/>
<polygon fill="black" stroke="black" points="1039.87,-43.9 1032.38,-36.41 1033.56,-46.93 1039.87,-43.9"/>
</g>
<!-- 755 -->
<g id="node28" class="node">
<title>755</title>
<polygon fill="#c0c0c0" stroke="black" points="1123,-36 1069,-36 1069,0 1123,0 1123,-36"/>
<text text-anchor="middle" x="1096" y="-14.3" font-family="Times,serif" font-size="14.00">(...)</text>
</g>
<!-- 747&#45;&gt;755 -->
<g id="edge27" class="edge">
<title>747&#45;&gt;755</title>
<path fill="none" stroke="black" d="M1080.76,-71.76C1083.25,-63.14 1085.82,-54.24 1088.13,-46.26"/>
<polygon fill="black" stroke="black" points="1091.56,-46.98 1090.97,-36.41 1084.84,-45.04 1091.56,-46.98"/>
</g>
<!-- 759 -->
<g id="node30" class="node">
<title>759</title>
<polygon fill="#c0c0c0" stroke="black" points="1222,-36 1168,-36 1168,0 1222,0 1222,-36"/>
<text text-anchor="middle" x="1195" y="-14.3" font-family="Times,serif" font-size="14.00">(...)</text>
</g>
<!-- 758&#45;&gt;759 -->
<g id="edge29" class="edge">
<title>758&#45;&gt;759</title>
<path fill="none" stroke="black" d="M1215.31,-71.76C1211.96,-63.04 1208.49,-54.04 1205.39,-45.99"/>
<polygon fill="black" stroke="black" points="1208.56,-44.48 1201.7,-36.41 1202.03,-46.99 1208.56,-44.48"/>
</g>
<!-- 770 -->
<g id="node31" class="node">
<title>770</title>
<polygon fill="#c0c0c0" stroke="black" points="1294,-36 1240,-36 1240,0 1294,0 1294,-36"/>
<text text-anchor="middle" x="1267" y="-14.3" font-family="Times,serif" font-size="14.00">(...)</text>
</g>
<!-- 758&#45;&gt;770 -->
<g id="edge30" class="edge">
<title>758&#45;&gt;770</title>
<path fill="none" stroke="black" d="M1246.69,-71.76C1250.04,-63.04 1253.51,-54.04 1256.61,-45.99"/>
<polygon fill="black" stroke="black" points="1259.97,-46.99 1260.3,-36.41 1253.44,-44.48 1259.97,-46.99"/>
</g>
</g>
</svg>
