<?xml version="1.0" encoding="UTF-8" standalone="no"?>
<!DOCTYPE svg PUBLIC "-//W3C//DTD SVG 1.1//EN"
 "http://www.w3.org/Graphics/SVG/1.1/DTD/svg11.dtd">
<!-- Generated by graphviz version 2.43.0 (0)
 -->
<!-- Title: Tree Pages: 1 -->
<svg width="3106pt" height="520pt"
 viewBox="0.00 0.00 3106.00 520.00" xmlns="http://www.w3.org/2000/svg" xmlns:xlink="http://www.w3.org/1999/xlink">
<g id="graph0" class="graph" transform="scale(1 1) rotate(0) translate(4 516)">
<title>Tree</title>
<polygon fill="white" stroke="transparent" points="-4,4 -4,-516 3102,-516 3102,4 -4,4"/>
<!-- 0 -->
<g id="node1" class="node">
<title>0</title>
<polygon fill="#fffdfc" stroke="black" points="1931,-512 1485,-512 1485,-429 1931,-429 1931,-512"/>
<text text-anchor="middle" x="1708" y="-496.8" font-family="Times,serif" font-size="14.00">CCR &lt;= 0.55</text>
<text text-anchor="middle" x="1708" y="-481.8" font-family="Times,serif" font-size="14.00">gini = 0.845</text>
<text text-anchor="middle" x="1708" y="-466.8" font-family="Times,serif" font-size="14.00">samples = 162489</text>
<text text-anchor="middle" x="1708" y="-451.8" font-family="Times,serif" font-size="14.00">value = [30577, 22896, 7849, 22504, 24032, 26338, 28293]</text>
<text text-anchor="middle" x="1708" y="-436.8" font-family="Times,serif" font-size="14.00">class = rku</text>
</g>
<!-- 1 -->
<g id="node2" class="node">
<title>1</title>
<polygon fill="#fefeff" stroke="black" points="1368.5,-393 949.5,-393 949.5,-310 1368.5,-310 1368.5,-393"/>
<text text-anchor="middle" x="1159" y="-377.8" font-family="Times,serif" font-size="14.00">nbproc &lt;= 4.5</text>
<text text-anchor="middle" x="1159" y="-362.8" font-family="Times,serif" font-size="14.00">gini = 0.843</text>
<text text-anchor="middle" x="1159" y="-347.8" font-family="Times,serif" font-size="14.00">samples = 64255</text>
<text text-anchor="middle" x="1159" y="-332.8" font-family="Times,serif" font-size="14.00">value = [11127, 7992, 2600, 9678, 11654, 11355, 9849]</text>
<text text-anchor="middle" x="1159" y="-317.8" font-family="Times,serif" font-size="14.00">class = cluHPS</text>
</g>
<!-- 0&#45;&gt;1 -->
<g id="edge1" class="edge">
<title>0&#45;&gt;1</title>
<path fill="none" stroke="black" d="M1517.91,-428.99C1466.69,-418.07 1411.12,-406.23 1359.35,-395.2"/>
<polygon fill="black" stroke="black" points="1359.9,-391.74 1349.39,-393.07 1358.44,-398.58 1359.9,-391.74"/>
<text text-anchor="middle" x="1362.99" y="-410.35" font-family="Times,serif" font-size="14.00">True</text>
</g>
<!-- 288 -->
<g id="node17" class="node">
<title>288</title>
<polygon fill="#fffdfd" stroke="black" points="2119,-393 1673,-393 1673,-310 2119,-310 2119,-393"/>
<text text-anchor="middle" x="1896" y="-377.8" font-family="Times,serif" font-size="14.00">sdComp &lt;= 0.65</text>
<text text-anchor="middle" x="1896" y="-362.8" font-family="Times,serif" font-size="14.00">gini = 0.843</text>
<text text-anchor="middle" x="1896" y="-347.8" font-family="Times,serif" font-size="14.00">samples = 98234</text>
<text text-anchor="middle" x="1896" y="-332.8" font-family="Times,serif" font-size="14.00">value = [19450, 14904, 5249, 12826, 12378, 14983, 18444]</text>
<text text-anchor="middle" x="1896" y="-317.8" font-family="Times,serif" font-size="14.00">class = rku</text>
</g>
<!-- 0&#45;&gt;288 -->
<g id="edge16" class="edge">
<title>0&#45;&gt;288</title>
<path fill="none" stroke="black" d="M1773.23,-428.91C1788.97,-419.11 1805.92,-408.56 1822.03,-398.53"/>
<polygon fill="black" stroke="black" points="1824.25,-401.28 1830.89,-393.02 1820.55,-395.33 1824.25,-401.28"/>
<text text-anchor="middle" x="1825.22" y="-413.67" font-family="Times,serif" font-size="14.00">False</text>
</g>
<!-- 2 -->
<g id="node3" class="node">
<title>2</title>
<polygon fill="#f3f5fd" stroke="black" points="756.5,-274 373.5,-274 373.5,-191 756.5,-191 756.5,-274"/>
<text text-anchor="middle" x="565" y="-258.8" font-family="Times,serif" font-size="14.00">sdComp &lt;= 0.065</text>
<text text-anchor="middle" x="565" y="-243.8" font-family="Times,serif" font-size="14.00">gini = 0.831</text>
<text text-anchor="middle" x="565" y="-228.8" font-family="Times,serif" font-size="14.00">samples = 20377</text>
<text text-anchor="middle" x="565" y="-213.8" font-family="Times,serif" font-size="14.00">value = [3373, 2028, 772, 3684, 4728, 3707, 2085]</text>
<text text-anchor="middle" x="565" y="-198.8" font-family="Times,serif" font-size="14.00">class = cluHPS</text>
</g>
<!-- 1&#45;&gt;2 -->
<g id="edge2" class="edge">
<title>1&#45;&gt;2</title>
<path fill="none" stroke="black" d="M953.33,-309.99C892.84,-298.07 826.75,-285.06 766.52,-273.19"/>
<polygon fill="black" stroke="black" points="767.01,-269.72 756.52,-271.22 765.66,-276.59 767.01,-269.72"/>
</g>
<!-- 145 -->
<g id="node10" class="node">
<title>145</title>
<polygon fill="#ffffff" stroke="black" points="1355,-274 963,-274 963,-191 1355,-191 1355,-274"/>
<text text-anchor="middle" x="1159" y="-258.8" font-family="Times,serif" font-size="14.00">graphSize &lt;= 40.0</text>
<text text-anchor="middle" x="1159" y="-243.8" font-family="Times,serif" font-size="14.00">gini = 0.843</text>
<text text-anchor="middle" x="1159" y="-228.8" font-family="Times,serif" font-size="14.00">samples = 43878</text>
<text text-anchor="middle" x="1159" y="-213.8" font-family="Times,serif" font-size="14.00">value = [7754, 5964, 1828, 5994, 6926, 7648, 7764]</text>
<text text-anchor="middle" x="1159" y="-198.8" font-family="Times,serif" font-size="14.00">class = rkuad</text>
</g>
<!-- 1&#45;&gt;145 -->
<g id="edge9" class="edge">
<title>1&#45;&gt;145</title>
<path fill="none" stroke="black" d="M1159,-309.91C1159,-301.65 1159,-292.86 1159,-284.3"/>
<polygon fill="black" stroke="black" points="1162.5,-284.02 1159,-274.02 1155.5,-284.02 1162.5,-284.02"/>
</g>
<!-- 3 -->
<g id="node4" class="node">
<title>3</title>
<polygon fill="#fffffe" stroke="black" points="356,-155 0,-155 0,-72 356,-72 356,-155"/>
<text text-anchor="middle" x="178" y="-139.8" font-family="Times,serif" font-size="14.00">graphSize &lt;= 40.0</text>
<text text-anchor="middle" x="178" y="-124.8" font-family="Times,serif" font-size="14.00">gini = 0.814</text>
<text text-anchor="middle" x="178" y="-109.8" font-family="Times,serif" font-size="14.00">samples = 7810</text>
<text text-anchor="middle" x="178" y="-94.8" font-family="Times,serif" font-size="14.00">value = [2004, 480, 330, 1132, 964, 1982, 918]</text>
<text text-anchor="middle" x="178" y="-79.8" font-family="Times,serif" font-size="14.00">class = rku</text>
</g>
<!-- 2&#45;&gt;3 -->
<g id="edge3" class="edge">
<title>2&#45;&gt;3</title>
<path fill="none" stroke="black" d="M431,-190.99C395.87,-180.37 357.84,-168.87 322.19,-158.09"/>
<polygon fill="black" stroke="black" points="322.79,-154.62 312.21,-155.07 320.77,-161.32 322.79,-154.62"/>
</g>
<!-- 98 -->
<g id="node7" class="node">
<title>98</title>
<polygon fill="#e7ebfc" stroke="black" points="756.5,-155 373.5,-155 373.5,-72 756.5,-72 756.5,-155"/>
<text text-anchor="middle" x="565" y="-139.8" font-family="Times,serif" font-size="14.00">graphDepth &lt;= 9.0</text>
<text text-anchor="middle" x="565" y="-124.8" font-family="Times,serif" font-size="14.00">gini = 0.813</text>
<text text-anchor="middle" x="565" y="-109.8" font-family="Times,serif" font-size="14.00">samples = 12567</text>
<text text-anchor="middle" x="565" y="-94.8" font-family="Times,serif" font-size="14.00">value = [1369, 1548, 442, 2552, 3764, 1725, 1167]</text>
<text text-anchor="middle" x="565" y="-79.8" font-family="Times,serif" font-size="14.00">class = cluHPS</text>
</g>
<!-- 2&#45;&gt;98 -->
<g id="edge6" class="edge">
<title>2&#45;&gt;98</title>
<path fill="none" stroke="black" d="M565,-190.91C565,-182.65 565,-173.86 565,-165.3"/>
<polygon fill="black" stroke="black" points="568.5,-165.02 565,-155.02 561.5,-165.02 568.5,-165.02"/>
</g>
<!-- 4 -->
<g id="node5" class="node">
<title>4</title>
<polygon fill="#c0c0c0" stroke="black" points="169,-36 115,-36 115,0 169,0 169,-36"/>
<text text-anchor="middle" x="142" y="-14.3" font-family="Times,serif" font-size="14.00">(...)</text>
</g>
<!-- 3&#45;&gt;4 -->
<g id="edge4" class="edge">
<title>3&#45;&gt;4</title>
<path fill="none" stroke="black" d="M162.31,-71.76C158.96,-63.04 155.49,-54.04 152.39,-45.99"/>
<polygon fill="black" stroke="black" points="155.56,-44.48 148.7,-36.41 149.03,-46.99 155.56,-44.48"/>
</g>
<!-- 51 -->
<g id="node6" class="node">
<title>51</title>
<polygon fill="#c0c0c0" stroke="black" points="241,-36 187,-36 187,0 241,0 241,-36"/>
<text text-anchor="middle" x="214" y="-14.3" font-family="Times,serif" font-size="14.00">(...)</text>
</g>
<!-- 3&#45;&gt;51 -->
<g id="edge5" class="edge">
<title>3&#45;&gt;51</title>
<path fill="none" stroke="black" d="M193.69,-71.76C197.04,-63.04 200.51,-54.04 203.61,-45.99"/>
<polygon fill="black" stroke="black" points="206.97,-46.99 207.3,-36.41 200.44,-44.48 206.97,-46.99"/>
</g>
<!-- 99 -->
<g id="node8" class="node">
<title>99</title>
<polygon fill="#c0c0c0" stroke="black" points="556,-36 502,-36 502,0 556,0 556,-36"/>
<text text-anchor="middle" x="529" y="-14.3" font-family="Times,serif" font-size="14.00">(...)</text>
</g>
<!-- 98&#45;&gt;99 -->
<g id="edge7" class="edge">
<title>98&#45;&gt;99</title>
<path fill="none" stroke="black" d="M549.31,-71.76C545.96,-63.04 542.49,-54.04 539.39,-45.99"/>
<polygon fill="black" stroke="black" points="542.56,-44.48 535.7,-36.41 536.03,-46.99 542.56,-44.48"/>
</g>
<!-- 122 -->
<g id="node9" class="node">
<title>122</title>
<polygon fill="#c0c0c0" stroke="black" points="628,-36 574,-36 574,0 628,0 628,-36"/>
<text text-anchor="middle" x="601" y="-14.3" font-family="Times,serif" font-size="14.00">(...)</text>
</g>
<!-- 98&#45;&gt;122 -->
<g id="edge8" class="edge">
<title>98&#45;&gt;122</title>
<path fill="none" stroke="black" d="M580.69,-71.76C584.04,-63.04 587.51,-54.04 590.61,-45.99"/>
<polygon fill="black" stroke="black" points="593.97,-46.99 594.3,-36.41 587.44,-44.48 593.97,-46.99"/>
</g>
<!-- 146 -->
<g id="node11" class="node">
<title>146</title>
<polygon fill="#fffefe" stroke="black" points="1166,-155 774,-155 774,-72 1166,-72 1166,-155"/>
<text text-anchor="middle" x="970" y="-139.8" font-family="Times,serif" font-size="14.00">sdComm &lt;= 0.02</text>
<text text-anchor="middle" x="970" y="-124.8" font-family="Times,serif" font-size="14.00">gini = 0.841</text>
<text text-anchor="middle" x="970" y="-109.8" font-family="Times,serif" font-size="14.00">samples = 39878</text>
<text text-anchor="middle" x="970" y="-94.8" font-family="Times,serif" font-size="14.00">value = [6936, 5640, 1226, 5572, 6558, 6858, 7088]</text>
<text text-anchor="middle" x="970" y="-79.8" font-family="Times,serif" font-size="14.00">class = rkuad</text>
</g>
<!-- 145&#45;&gt;146 -->
<g id="edge10" class="edge">
<title>145&#45;&gt;146</title>
<path fill="none" stroke="black" d="M1093.43,-190.91C1077.59,-181.11 1060.56,-170.56 1044.36,-160.53"/>
<polygon fill="black" stroke="black" points="1045.8,-157.31 1035.46,-155.02 1042.12,-163.26 1045.8,-157.31"/>
</g>
<!-- 217 -->
<g id="node14" class="node">
<title>217</title>
<polygon fill="#fffefd" stroke="black" points="1512.5,-155 1183.5,-155 1183.5,-72 1512.5,-72 1512.5,-155"/>
<text text-anchor="middle" x="1348" y="-139.8" font-family="Times,serif" font-size="14.00">sdComp &lt;= 0.065</text>
<text text-anchor="middle" x="1348" y="-124.8" font-family="Times,serif" font-size="14.00">gini = 0.842</text>
<text text-anchor="middle" x="1348" y="-109.8" font-family="Times,serif" font-size="14.00">samples = 4000</text>
<text text-anchor="middle" x="1348" y="-94.8" font-family="Times,serif" font-size="14.00">value = [818, 324, 602, 422, 368, 790, 676]</text>
<text text-anchor="middle" x="1348" y="-79.8" font-family="Times,serif" font-size="14.00">class = rku</text>
</g>
<!-- 145&#45;&gt;217 -->
<g id="edge13" class="edge">
<title>145&#45;&gt;217</title>
<path fill="none" stroke="black" d="M1224.57,-190.91C1240.41,-181.11 1257.44,-170.56 1273.64,-160.53"/>
<polygon fill="black" stroke="black" points="1275.88,-163.26 1282.54,-155.02 1272.2,-157.31 1275.88,-163.26"/>
</g>
<!-- 147 -->
<g id="node12" class="node">
<title>147</title>
<polygon fill="#c0c0c0" stroke="black" points="961,-36 907,-36 907,0 961,0 961,-36"/>
<text text-anchor="middle" x="934" y="-14.3" font-family="Times,serif" font-size="14.00">(...)</text>
</g>
<!-- 146&#45;&gt;147 -->
<g id="edge11" class="edge">
<title>146&#45;&gt;147</title>
<path fill="none" stroke="black" d="M954.31,-71.76C950.96,-63.04 947.49,-54.04 944.39,-45.99"/>
<polygon fill="black" stroke="black" points="947.56,-44.48 940.7,-36.41 941.03,-46.99 947.56,-44.48"/>
</g>
<!-- 170 -->
<g id="node13" class="node">
<title>170</title>
<polygon fill="#c0c0c0" stroke="black" points="1033,-36 979,-36 979,0 1033,0 1033,-36"/>
<text text-anchor="middle" x="1006" y="-14.3" font-family="Times,serif" font-size="14.00">(...)</text>
</g>
<!-- 146&#45;&gt;170 -->
<g id="edge12" class="edge">
<title>146&#45;&gt;170</title>
<path fill="none" stroke="black" d="M985.69,-71.76C989.04,-63.04 992.51,-54.04 995.61,-45.99"/>
<polygon fill="black" stroke="black" points="998.97,-46.99 999.3,-36.41 992.44,-44.48 998.97,-46.99"/>
</g>
<!-- 218 -->
<g id="node15" class="node">
<title>218</title>
<polygon fill="#c0c0c0" stroke="black" points="1339,-36 1285,-36 1285,0 1339,0 1339,-36"/>
<text text-anchor="middle" x="1312" y="-14.3" font-family="Times,serif" font-size="14.00">(...)</text>
</g>
<!-- 217&#45;&gt;218 -->
<g id="edge14" class="edge">
<title>217&#45;&gt;218</title>
<path fill="none" stroke="black" d="M1332.31,-71.76C1328.96,-63.04 1325.49,-54.04 1322.39,-45.99"/>
<polygon fill="black" stroke="black" points="1325.56,-44.48 1318.7,-36.41 1319.03,-46.99 1325.56,-44.48"/>
</g>
<!-- 265 -->
<g id="node16" class="node">
<title>265</title>
<polygon fill="#c0c0c0" stroke="black" points="1411,-36 1357,-36 1357,0 1411,0 1411,-36"/>
<text text-anchor="middle" x="1384" y="-14.3" font-family="Times,serif" font-size="14.00">(...)</text>
</g>
<!-- 217&#45;&gt;265 -->
<g id="edge15" class="edge">
<title>217&#45;&gt;265</title>
<path fill="none" stroke="black" d="M1363.69,-71.76C1367.04,-63.04 1370.51,-54.04 1373.61,-45.99"/>
<polygon fill="black" stroke="black" points="1376.97,-46.99 1377.3,-36.41 1370.44,-44.48 1376.97,-46.99"/>
</g>
<!-- 289 -->
<g id="node18" class="node">
<title>289</title>
<polygon fill="#fef9f6" stroke="black" points="2087.5,-274 1704.5,-274 1704.5,-191 2087.5,-191 2087.5,-274"/>
<text text-anchor="middle" x="1896" y="-258.8" font-family="Times,serif" font-size="14.00">graphSize &lt;= 40.0</text>
<text text-anchor="middle" x="1896" y="-243.8" font-family="Times,serif" font-size="14.00">gini = 0.828</text>
<text text-anchor="middle" x="1896" y="-228.8" font-family="Times,serif" font-size="14.00">samples = 23821</text>
<text text-anchor="middle" x="1896" y="-213.8" font-family="Times,serif" font-size="14.00">value = [5790, 2566, 705, 3282, 2690, 3870, 4918]</text>
<text text-anchor="middle" x="1896" y="-198.8" font-family="Times,serif" font-size="14.00">class = rku</text>
</g>
<!-- 288&#45;&gt;289 -->
<g id="edge17" class="edge">
<title>288&#45;&gt;289</title>
<path fill="none" stroke="black" d="M1896,-309.91C1896,-301.65 1896,-292.86 1896,-284.3"/>
<polygon fill="black" stroke="black" points="1899.5,-284.02 1896,-274.02 1892.5,-284.02 1899.5,-284.02"/>
</g>
<!-- 480 -->
<g id="node25" class="node">
<title>480</title>
<polygon fill="#ffffff" stroke="black" points="2706,-274 2278,-274 2278,-191 2706,-191 2706,-274"/>
<text text-anchor="middle" x="2492" y="-258.8" font-family="Times,serif" font-size="14.00">nbproc &lt;= 4.5</text>
<text text-anchor="middle" x="2492" y="-243.8" font-family="Times,serif" font-size="14.00">gini = 0.846</text>
<text text-anchor="middle" x="2492" y="-228.8" font-family="Times,serif" font-size="14.00">samples = 74413</text>
<text text-anchor="middle" x="2492" y="-213.8" font-family="Times,serif" font-size="14.00">value = [13660, 12338, 4544, 9544, 9688, 11113, 13526]</text>
<text text-anchor="middle" x="2492" y="-198.8" font-family="Times,serif" font-size="14.00">class = rku</text>
</g>
<!-- 288&#45;&gt;480 -->
<g id="edge24" class="edge">
<title>288&#45;&gt;480</title>
<path fill="none" stroke="black" d="M2102.36,-309.99C2158.28,-299.01 2218.98,-287.1 2275.44,-276.01"/>
<polygon fill="black" stroke="black" points="2276.43,-279.39 2285.56,-274.03 2275.08,-272.52 2276.43,-279.39"/>
</g>
<!-- 290 -->
<g id="node19" class="node">
<title>290</title>
<polygon fill="#fffefd" stroke="black" points="1913.5,-155 1530.5,-155 1530.5,-72 1913.5,-72 1913.5,-155"/>
<text text-anchor="middle" x="1722" y="-139.8" font-family="Times,serif" font-size="14.00">graphDepth &lt;= 3.5</text>
<text text-anchor="middle" x="1722" y="-124.8" font-family="Times,serif" font-size="14.00">gini = 0.836</text>
<text text-anchor="middle" x="1722" y="-109.8" font-family="Times,serif" font-size="14.00">samples = 19173</text>
<text text-anchor="middle" x="1722" y="-94.8" font-family="Times,serif" font-size="14.00">value = [3888, 2434, 463, 2950, 2560, 3128, 3750]</text>
<text text-anchor="middle" x="1722" y="-79.8" font-family="Times,serif" font-size="14.00">class = rku</text>
</g>
<!-- 289&#45;&gt;290 -->
<g id="edge18" class="edge">
<title>289&#45;&gt;290</title>
<path fill="none" stroke="black" d="M1835.63,-190.91C1821.19,-181.2 1805.67,-170.76 1790.87,-160.81"/>
<polygon fill="black" stroke="black" points="1792.51,-157.7 1782.26,-155.02 1788.61,-163.51 1792.51,-157.7"/>
</g>
<!-- 385 -->
<g id="node22" class="node">
<title>385</title>
<polygon fill="#fae4d5" stroke="black" points="2278.5,-155 1931.5,-155 1931.5,-72 2278.5,-72 2278.5,-155"/>
<text text-anchor="middle" x="2105" y="-139.8" font-family="Times,serif" font-size="14.00">nbproc &lt;= 4.5</text>
<text text-anchor="middle" x="2105" y="-124.8" font-family="Times,serif" font-size="14.00">gini = 0.735</text>
<text text-anchor="middle" x="2105" y="-109.8" font-family="Times,serif" font-size="14.00">samples = 4648</text>
<text text-anchor="middle" x="2105" y="-94.8" font-family="Times,serif" font-size="14.00">value = [1902, 132, 242, 332, 130, 742, 1168]</text>
<text text-anchor="middle" x="2105" y="-79.8" font-family="Times,serif" font-size="14.00">class = rku</text>
</g>
<!-- 289&#45;&gt;385 -->
<g id="edge21" class="edge">
<title>289&#45;&gt;385</title>
<path fill="none" stroke="black" d="M1968.51,-190.91C1986.34,-180.92 2005.55,-170.17 2023.77,-159.98"/>
<polygon fill="black" stroke="black" points="2025.6,-162.96 2032.62,-155.02 2022.18,-156.85 2025.6,-162.96"/>
</g>
<!-- 291 -->
<g id="node20" class="node">
<title>291</title>
<polygon fill="#c0c0c0" stroke="black" points="1713,-36 1659,-36 1659,0 1713,0 1713,-36"/>
<text text-anchor="middle" x="1686" y="-14.3" font-family="Times,serif" font-size="14.00">(...)</text>
</g>
<!-- 290&#45;&gt;291 -->
<g id="edge19" class="edge">
<title>290&#45;&gt;291</title>
<path fill="none" stroke="black" d="M1706.31,-71.76C1702.96,-63.04 1699.49,-54.04 1696.39,-45.99"/>
<polygon fill="black" stroke="black" points="1699.56,-44.48 1692.7,-36.41 1693.03,-46.99 1699.56,-44.48"/>
</g>
<!-- 314 -->
<g id="node21" class="node">
<title>314</title>
<polygon fill="#c0c0c0" stroke="black" points="1785,-36 1731,-36 1731,0 1785,0 1785,-36"/>
<text text-anchor="middle" x="1758" y="-14.3" font-family="Times,serif" font-size="14.00">(...)</text>
</g>
<!-- 290&#45;&gt;314 -->
<g id="edge20" class="edge">
<title>290&#45;&gt;314</title>
<path fill="none" stroke="black" d="M1737.69,-71.76C1741.04,-63.04 1744.51,-54.04 1747.61,-45.99"/>
<polygon fill="black" stroke="black" points="1750.97,-46.99 1751.3,-36.41 1744.44,-44.48 1750.97,-46.99"/>
</g>
<!-- 386 -->
<g id="node23" class="node">
<title>386</title>
<polygon fill="#c0c0c0" stroke="black" points="2096,-36 2042,-36 2042,0 2096,0 2096,-36"/>
<text text-anchor="middle" x="2069" y="-14.3" font-family="Times,serif" font-size="14.00">(...)</text>
</g>
<!-- 385&#45;&gt;386 -->
<g id="edge22" class="edge">
<title>385&#45;&gt;386</title>
<path fill="none" stroke="black" d="M2089.31,-71.76C2085.96,-63.04 2082.49,-54.04 2079.39,-45.99"/>
<polygon fill="black" stroke="black" points="2082.56,-44.48 2075.7,-36.41 2076.03,-46.99 2082.56,-44.48"/>
</g>
<!-- 433 -->
<g id="node24" class="node">
<title>433</title>
<polygon fill="#c0c0c0" stroke="black" points="2168,-36 2114,-36 2114,0 2168,0 2168,-36"/>
<text text-anchor="middle" x="2141" y="-14.3" font-family="Times,serif" font-size="14.00">(...)</text>
</g>
<!-- 385&#45;&gt;433 -->
<g id="edge23" class="edge">
<title>385&#45;&gt;433</title>
<path fill="none" stroke="black" d="M2120.69,-71.76C2124.04,-63.04 2127.51,-54.04 2130.61,-45.99"/>
<polygon fill="black" stroke="black" points="2133.97,-46.99 2134.3,-36.41 2127.44,-44.48 2133.97,-46.99"/>
</g>
<!-- 481 -->
<g id="node26" class="node">
<title>481</title>
<polygon fill="#fffeff" stroke="black" points="2688,-155 2296,-155 2296,-72 2688,-72 2688,-155"/>
<text text-anchor="middle" x="2492" y="-139.8" font-family="Times,serif" font-size="14.00">graphDepth &lt;= 9.0</text>
<text text-anchor="middle" x="2492" y="-124.8" font-family="Times,serif" font-size="14.00">gini = 0.848</text>
<text text-anchor="middle" x="2492" y="-109.8" font-family="Times,serif" font-size="14.00">samples = 38093</text>
<text text-anchor="middle" x="2492" y="-94.8" font-family="Times,serif" font-size="14.00">value = [6694, 6002, 2518, 4450, 6010, 5611, 6808]</text>
<text text-anchor="middle" x="2492" y="-79.8" font-family="Times,serif" font-size="14.00">class = rkuad</text>
</g>
<!-- 480&#45;&gt;481 -->
<g id="edge25" class="edge">
<title>480&#45;&gt;481</title>
<path fill="none" stroke="black" d="M2492,-190.91C2492,-182.65 2492,-173.86 2492,-165.3"/>
<polygon fill="black" stroke="black" points="2495.5,-165.02 2492,-155.02 2488.5,-165.02 2495.5,-165.02"/>
</g>
<!-- 672 -->
<g id="node29" class="node">
<title>672</title>
<polygon fill="#fffefd" stroke="black" points="3098,-155 2706,-155 2706,-72 3098,-72 3098,-155"/>
<text text-anchor="middle" x="2902" y="-139.8" font-family="Times,serif" font-size="14.00">sdComp &lt;= 6.5</text>
<text text-anchor="middle" x="2902" y="-124.8" font-family="Times,serif" font-size="14.00">gini = 0.843</text>
<text text-anchor="middle" x="2902" y="-109.8" font-family="Times,serif" font-size="14.00">samples = 36320</text>
<text text-anchor="middle" x="2902" y="-94.8" font-family="Times,serif" font-size="14.00">value = [6966, 6336, 2026, 5094, 3678, 5502, 6718]</text>
<text text-anchor="middle" x="2902" y="-79.8" font-family="Times,serif" font-size="14.00">class = rku</text>
</g>
<!-- 480&#45;&gt;672 -->
<g id="edge28" class="edge">
<title>480&#45;&gt;672</title>
<path fill="none" stroke="black" d="M2633.96,-190.99C2671.34,-180.32 2711.82,-168.77 2749.72,-157.96"/>
<polygon fill="black" stroke="black" points="2751.16,-161.18 2759.82,-155.07 2749.24,-154.45 2751.16,-161.18"/>
</g>
<!-- 482 -->
<g id="node27" class="node">
<title>482</title>
<polygon fill="#c0c0c0" stroke="black" points="2483,-36 2429,-36 2429,0 2483,0 2483,-36"/>
<text text-anchor="middle" x="2456" y="-14.3" font-family="Times,serif" font-size="14.00">(...)</text>
</g>
<!-- 481&#45;&gt;482 -->
<g id="edge26" class="edge">
<title>481&#45;&gt;482</title>
<path fill="none" stroke="black" d="M2476.31,-71.76C2472.96,-63.04 2469.49,-54.04 2466.39,-45.99"/>
<polygon fill="black" stroke="black" points="2469.56,-44.48 2462.7,-36.41 2463.03,-46.99 2469.56,-44.48"/>
</g>
<!-- 577 -->
<g id="node28" class="node">
<title>577</title>
<polygon fill="#c0c0c0" stroke="black" points="2555,-36 2501,-36 2501,0 2555,0 2555,-36"/>
<text text-anchor="middle" x="2528" y="-14.3" font-family="Times,serif" font-size="14.00">(...)</text>
</g>
<!-- 481&#45;&gt;577 -->
<g id="edge27" class="edge">
<title>481&#45;&gt;577</title>
<path fill="none" stroke="black" d="M2507.69,-71.76C2511.04,-63.04 2514.51,-54.04 2517.61,-45.99"/>
<polygon fill="black" stroke="black" points="2520.97,-46.99 2521.3,-36.41 2514.44,-44.48 2520.97,-46.99"/>
</g>
<!-- 673 -->
<g id="node30" class="node">
<title>673</title>
<polygon fill="#c0c0c0" stroke="black" points="2893,-36 2839,-36 2839,0 2893,0 2893,-36"/>
<text text-anchor="middle" x="2866" y="-14.3" font-family="Times,serif" font-size="14.00">(...)</text>
</g>
<!-- 672&#45;&gt;673 -->
<g id="edge29" class="edge">
<title>672&#45;&gt;673</title>
<path fill="none" stroke="black" d="M2886.31,-71.76C2882.96,-63.04 2879.49,-54.04 2876.39,-45.99"/>
<polygon fill="black" stroke="black" points="2879.56,-44.48 2872.7,-36.41 2873.03,-46.99 2879.56,-44.48"/>
</g>
<!-- 816 -->
<g id="node31" class="node">
<title>816</title>
<polygon fill="#c0c0c0" stroke="black" points="2965,-36 2911,-36 2911,0 2965,0 2965,-36"/>
<text text-anchor="middle" x="2938" y="-14.3" font-family="Times,serif" font-size="14.00">(...)</text>
</g>
<!-- 672&#45;&gt;816 -->
<g id="edge30" class="edge">
<title>672&#45;&gt;816</title>
<path fill="none" stroke="black" d="M2917.69,-71.76C2921.04,-63.04 2924.51,-54.04 2927.61,-45.99"/>
<polygon fill="black" stroke="black" points="2930.97,-46.99 2931.3,-36.41 2924.44,-44.48 2930.97,-46.99"/>
</g>
</g>
</svg>
