<?xml version="1.0" encoding="UTF-8" standalone="no"?>
<!DOCTYPE svg PUBLIC "-//W3C//DTD SVG 1.1//EN"
 "http://www.w3.org/Graphics/SVG/1.1/DTD/svg11.dtd">
<!-- Generated by graphviz version 2.43.0 (0)
 -->
<!-- Title: Tree Pages: 1 -->
<svg width="1450pt" height="520pt"
 viewBox="0.00 0.00 1450.00 520.00" xmlns="http://www.w3.org/2000/svg" xmlns:xlink="http://www.w3.org/1999/xlink">
<g id="graph0" class="graph" transform="scale(1 1) rotate(0) translate(4 516)">
<title>Tree</title>
<polygon fill="white" stroke="transparent" points="-4,4 -4,-516 1446,-516 1446,4 -4,4"/>
<!-- 0 -->
<g id="node1" class="node">
<title>0</title>
<polygon fill="#f2fdf7" stroke="black" points="936.5,-512 733.5,-512 733.5,-429 936.5,-429 936.5,-512"/>
<text text-anchor="middle" x="835" y="-496.8" font-family="Times,serif" font-size="14.00">CCR &lt;= 5.5</text>
<text text-anchor="middle" x="835" y="-481.8" font-family="Times,serif" font-size="14.00">gini = 0.623</text>
<text text-anchor="middle" x="835" y="-466.8" font-family="Times,serif" font-size="14.00">samples = 4320</text>
<text text-anchor="middle" x="835" y="-451.8" font-family="Times,serif" font-size="14.00">value = [712, 1889, 1719]</text>
<text text-anchor="middle" x="835" y="-436.8" font-family="Times,serif" font-size="14.00">class = DCP</text>
</g>
<!-- 1 -->
<g id="node2" class="node">
<title>1</title>
<polygon fill="#9df2c0" stroke="black" points="662,-393 468,-393 468,-310 662,-310 662,-393"/>
<text text-anchor="middle" x="565" y="-377.8" font-family="Times,serif" font-size="14.00">nbproc &lt;= 4.5</text>
<text text-anchor="middle" x="565" y="-362.8" font-family="Times,serif" font-size="14.00">gini = 0.545</text>
<text text-anchor="middle" x="565" y="-347.8" font-family="Times,serif" font-size="14.00">samples = 2880</text>
<text text-anchor="middle" x="565" y="-332.8" font-family="Times,serif" font-size="14.00">value = [675, 1769, 436]</text>
<text text-anchor="middle" x="565" y="-317.8" font-family="Times,serif" font-size="14.00">class = DCP</text>
</g>
<!-- 0&#45;&gt;1 -->
<g id="edge1" class="edge">
<title>0&#45;&gt;1</title>
<path fill="none" stroke="black" d="M741.32,-428.91C717.56,-418.61 691.89,-407.49 667.7,-397"/>
<polygon fill="black" stroke="black" points="669.08,-393.79 658.51,-393.02 666.29,-400.21 669.08,-393.79"/>
<text text-anchor="middle" x="667.7" y="-412.57" font-family="Times,serif" font-size="14.00">True</text>
</g>
<!-- 572 -->
<g id="node17" class="node">
<title>572</title>
<polygon fill="#9051e8" stroke="black" points="1020.5,-393 835.5,-393 835.5,-310 1020.5,-310 1020.5,-393"/>
<text text-anchor="middle" x="928" y="-377.8" font-family="Times,serif" font-size="14.00">graphDepth &lt;= 25.5</text>
<text text-anchor="middle" x="928" y="-362.8" font-family="Times,serif" font-size="14.00">gini = 0.199</text>
<text text-anchor="middle" x="928" y="-347.8" font-family="Times,serif" font-size="14.00">samples = 1440</text>
<text text-anchor="middle" x="928" y="-332.8" font-family="Times,serif" font-size="14.00">value = [37, 120, 1283]</text>
<text text-anchor="middle" x="928" y="-317.8" font-family="Times,serif" font-size="14.00">class = None</text>
</g>
<!-- 0&#45;&gt;572 -->
<g id="edge16" class="edge">
<title>0&#45;&gt;572</title>
<path fill="none" stroke="black" d="M867.27,-428.91C874.41,-419.92 882.04,-410.32 889.41,-401.05"/>
<polygon fill="black" stroke="black" points="892.31,-403.03 895.79,-393.02 886.83,-398.67 892.31,-403.03"/>
<text text-anchor="middle" x="898.63" y="-414.16" font-family="Times,serif" font-size="14.00">False</text>
</g>
<!-- 2 -->
<g id="node3" class="node">
<title>2</title>
<polygon fill="#b9f6d2" stroke="black" points="360.5,-274 175.5,-274 175.5,-191 360.5,-191 360.5,-274"/>
<text text-anchor="middle" x="268" y="-258.8" font-family="Times,serif" font-size="14.00">graphDepth &lt;= 3.5</text>
<text text-anchor="middle" x="268" y="-243.8" font-family="Times,serif" font-size="14.00">gini = 0.603</text>
<text text-anchor="middle" x="268" y="-228.8" font-family="Times,serif" font-size="14.00">samples = 1440</text>
<text text-anchor="middle" x="268" y="-213.8" font-family="Times,serif" font-size="14.00">value = [401, 768, 271]</text>
<text text-anchor="middle" x="268" y="-198.8" font-family="Times,serif" font-size="14.00">class = DCP</text>
</g>
<!-- 1&#45;&gt;2 -->
<g id="edge2" class="edge">
<title>1&#45;&gt;2</title>
<path fill="none" stroke="black" d="M467.75,-312.19C436.55,-299.9 401.91,-286.25 370.36,-273.82"/>
<polygon fill="black" stroke="black" points="371.26,-270.42 360.67,-270.01 368.69,-276.93 371.26,-270.42"/>
</g>
<!-- 289 -->
<g id="node10" class="node">
<title>289</title>
<polygon fill="#84efb0" stroke="black" points="662,-274 468,-274 468,-191 662,-191 662,-274"/>
<text text-anchor="middle" x="565" y="-258.8" font-family="Times,serif" font-size="14.00">graphDepth &lt;= 9.0</text>
<text text-anchor="middle" x="565" y="-243.8" font-family="Times,serif" font-size="14.00">gini = 0.467</text>
<text text-anchor="middle" x="565" y="-228.8" font-family="Times,serif" font-size="14.00">samples = 1440</text>
<text text-anchor="middle" x="565" y="-213.8" font-family="Times,serif" font-size="14.00">value = [274, 1001, 165]</text>
<text text-anchor="middle" x="565" y="-198.8" font-family="Times,serif" font-size="14.00">class = DCP</text>
</g>
<!-- 1&#45;&gt;289 -->
<g id="edge9" class="edge">
<title>1&#45;&gt;289</title>
<path fill="none" stroke="black" d="M565,-309.91C565,-301.65 565,-292.86 565,-284.3"/>
<polygon fill="black" stroke="black" points="568.5,-284.02 565,-274.02 561.5,-284.02 568.5,-284.02"/>
</g>
<!-- 3 -->
<g id="node4" class="node">
<title>3</title>
<polygon fill="#faf7fe" stroke="black" points="158,-155 0,-155 0,-72 158,-72 158,-155"/>
<text text-anchor="middle" x="79" y="-139.8" font-family="Times,serif" font-size="14.00">sdComp &lt;= 0.065</text>
<text text-anchor="middle" x="79" y="-124.8" font-family="Times,serif" font-size="14.00">gini = 0.665</text>
<text text-anchor="middle" x="79" y="-109.8" font-family="Times,serif" font-size="14.00">samples = 180</text>
<text text-anchor="middle" x="79" y="-94.8" font-family="Times,serif" font-size="14.00">value = [60, 55, 65]</text>
<text text-anchor="middle" x="79" y="-79.8" font-family="Times,serif" font-size="14.00">class = None</text>
</g>
<!-- 2&#45;&gt;3 -->
<g id="edge3" class="edge">
<title>2&#45;&gt;3</title>
<path fill="none" stroke="black" d="M202.43,-190.91C186.59,-181.11 169.56,-170.56 153.36,-160.53"/>
<polygon fill="black" stroke="black" points="154.8,-157.31 144.46,-155.02 151.12,-163.26 154.8,-157.31"/>
</g>
<!-- 38 -->
<g id="node7" class="node">
<title>38</title>
<polygon fill="#aff4cc" stroke="black" points="360.5,-155 175.5,-155 175.5,-72 360.5,-72 360.5,-155"/>
<text text-anchor="middle" x="268" y="-139.8" font-family="Times,serif" font-size="14.00">sdComp &lt;= 0.65</text>
<text text-anchor="middle" x="268" y="-124.8" font-family="Times,serif" font-size="14.00">gini = 0.58</text>
<text text-anchor="middle" x="268" y="-109.8" font-family="Times,serif" font-size="14.00">samples = 1260</text>
<text text-anchor="middle" x="268" y="-94.8" font-family="Times,serif" font-size="14.00">value = [341, 713, 206]</text>
<text text-anchor="middle" x="268" y="-79.8" font-family="Times,serif" font-size="14.00">class = DCP</text>
</g>
<!-- 2&#45;&gt;38 -->
<g id="edge6" class="edge">
<title>2&#45;&gt;38</title>
<path fill="none" stroke="black" d="M268,-190.91C268,-182.65 268,-173.86 268,-165.3"/>
<polygon fill="black" stroke="black" points="271.5,-165.02 268,-155.02 264.5,-165.02 271.5,-165.02"/>
</g>
<!-- 4 -->
<g id="node5" class="node">
<title>4</title>
<polygon fill="#c0c0c0" stroke="black" points="86,-36 32,-36 32,0 86,0 86,-36"/>
<text text-anchor="middle" x="59" y="-14.3" font-family="Times,serif" font-size="14.00">(...)</text>
</g>
<!-- 3&#45;&gt;4 -->
<g id="edge4" class="edge">
<title>3&#45;&gt;4</title>
<path fill="none" stroke="black" d="M70.29,-71.76C68.44,-63.14 66.54,-54.24 64.83,-46.26"/>
<polygon fill="black" stroke="black" points="68.24,-45.45 62.72,-36.41 61.39,-46.92 68.24,-45.45"/>
</g>
<!-- 15 -->
<g id="node6" class="node">
<title>15</title>
<polygon fill="#c0c0c0" stroke="black" points="158,-36 104,-36 104,0 158,0 158,-36"/>
<text text-anchor="middle" x="131" y="-14.3" font-family="Times,serif" font-size="14.00">(...)</text>
</g>
<!-- 3&#45;&gt;15 -->
<g id="edge5" class="edge">
<title>3&#45;&gt;15</title>
<path fill="none" stroke="black" d="M101.66,-71.76C106.67,-62.75 111.85,-53.44 116.43,-45.19"/>
<polygon fill="black" stroke="black" points="119.52,-46.85 121.32,-36.41 113.4,-43.44 119.52,-46.85"/>
</g>
<!-- 39 -->
<g id="node8" class="node">
<title>39</title>
<polygon fill="#c0c0c0" stroke="black" points="243,-36 189,-36 189,0 243,0 243,-36"/>
<text text-anchor="middle" x="216" y="-14.3" font-family="Times,serif" font-size="14.00">(...)</text>
</g>
<!-- 38&#45;&gt;39 -->
<g id="edge7" class="edge">
<title>38&#45;&gt;39</title>
<path fill="none" stroke="black" d="M245.34,-71.76C240.33,-62.75 235.15,-53.44 230.57,-45.19"/>
<polygon fill="black" stroke="black" points="233.6,-43.44 225.68,-36.41 227.48,-46.85 233.6,-43.44"/>
</g>
<!-- 248 -->
<g id="node9" class="node">
<title>248</title>
<polygon fill="#c0c0c0" stroke="black" points="315,-36 261,-36 261,0 315,0 315,-36"/>
<text text-anchor="middle" x="288" y="-14.3" font-family="Times,serif" font-size="14.00">(...)</text>
</g>
<!-- 38&#45;&gt;248 -->
<g id="edge8" class="edge">
<title>38&#45;&gt;248</title>
<path fill="none" stroke="black" d="M276.71,-71.76C278.56,-63.14 280.46,-54.24 282.17,-46.26"/>
<polygon fill="black" stroke="black" points="285.61,-46.92 284.28,-36.41 278.76,-45.45 285.61,-46.92"/>
</g>
<!-- 290 -->
<g id="node11" class="node">
<title>290</title>
<polygon fill="#9ef2c1" stroke="black" points="554,-155 378,-155 378,-72 554,-72 554,-155"/>
<text text-anchor="middle" x="466" y="-139.8" font-family="Times,serif" font-size="14.00">graphDepth &lt;= 3.5</text>
<text text-anchor="middle" x="466" y="-124.8" font-family="Times,serif" font-size="14.00">gini = 0.54</text>
<text text-anchor="middle" x="466" y="-109.8" font-family="Times,serif" font-size="14.00">samples = 720</text>
<text text-anchor="middle" x="466" y="-94.8" font-family="Times,serif" font-size="14.00">value = [179, 444, 97]</text>
<text text-anchor="middle" x="466" y="-79.8" font-family="Times,serif" font-size="14.00">class = DCP</text>
</g>
<!-- 289&#45;&gt;290 -->
<g id="edge10" class="edge">
<title>289&#45;&gt;290</title>
<path fill="none" stroke="black" d="M530.65,-190.91C522.97,-181.83 514.76,-172.12 506.84,-162.77"/>
<polygon fill="black" stroke="black" points="509.42,-160.39 500.29,-155.02 504.07,-164.92 509.42,-160.39"/>
</g>
<!-- 433 -->
<g id="node14" class="node">
<title>433</title>
<polygon fill="#6deca2" stroke="black" points="738.5,-155 571.5,-155 571.5,-72 738.5,-72 738.5,-155"/>
<text text-anchor="middle" x="655" y="-139.8" font-family="Times,serif" font-size="14.00">sdComm &lt;= 0.65</text>
<text text-anchor="middle" x="655" y="-124.8" font-family="Times,serif" font-size="14.00">gini = 0.375</text>
<text text-anchor="middle" x="655" y="-109.8" font-family="Times,serif" font-size="14.00">samples = 720</text>
<text text-anchor="middle" x="655" y="-94.8" font-family="Times,serif" font-size="14.00">value = [95, 557, 68]</text>
<text text-anchor="middle" x="655" y="-79.8" font-family="Times,serif" font-size="14.00">class = DCP</text>
</g>
<!-- 289&#45;&gt;433 -->
<g id="edge13" class="edge">
<title>289&#45;&gt;433</title>
<path fill="none" stroke="black" d="M596.23,-190.91C603.14,-181.92 610.53,-172.32 617.65,-163.05"/>
<polygon fill="black" stroke="black" points="620.51,-165.08 623.83,-155.02 614.96,-160.81 620.51,-165.08"/>
</g>
<!-- 291 -->
<g id="node12" class="node">
<title>291</title>
<polygon fill="#c0c0c0" stroke="black" points="443,-36 389,-36 389,0 443,0 443,-36"/>
<text text-anchor="middle" x="416" y="-14.3" font-family="Times,serif" font-size="14.00">(...)</text>
</g>
<!-- 290&#45;&gt;291 -->
<g id="edge11" class="edge">
<title>290&#45;&gt;291</title>
<path fill="none" stroke="black" d="M444.21,-71.76C439.45,-62.85 434.52,-53.64 430.15,-45.46"/>
<polygon fill="black" stroke="black" points="433.11,-43.57 425.31,-36.41 426.94,-46.87 433.11,-43.57"/>
</g>
<!-- 326 -->
<g id="node13" class="node">
<title>326</title>
<polygon fill="#c0c0c0" stroke="black" points="515,-36 461,-36 461,0 515,0 515,-36"/>
<text text-anchor="middle" x="488" y="-14.3" font-family="Times,serif" font-size="14.00">(...)</text>
</g>
<!-- 290&#45;&gt;326 -->
<g id="edge12" class="edge">
<title>290&#45;&gt;326</title>
<path fill="none" stroke="black" d="M475.59,-71.76C477.61,-63.14 479.71,-54.24 481.59,-46.26"/>
<polygon fill="black" stroke="black" points="485.02,-46.94 483.9,-36.41 478.21,-45.34 485.02,-46.94"/>
</g>
<!-- 434 -->
<g id="node15" class="node">
<title>434</title>
<polygon fill="#c0c0c0" stroke="black" points="630,-36 576,-36 576,0 630,0 630,-36"/>
<text text-anchor="middle" x="603" y="-14.3" font-family="Times,serif" font-size="14.00">(...)</text>
</g>
<!-- 433&#45;&gt;434 -->
<g id="edge14" class="edge">
<title>433&#45;&gt;434</title>
<path fill="none" stroke="black" d="M632.34,-71.76C627.33,-62.75 622.15,-53.44 617.57,-45.19"/>
<polygon fill="black" stroke="black" points="620.6,-43.44 612.68,-36.41 614.48,-46.85 620.6,-43.44"/>
</g>
<!-- 549 -->
<g id="node16" class="node">
<title>549</title>
<polygon fill="#c0c0c0" stroke="black" points="702,-36 648,-36 648,0 702,0 702,-36"/>
<text text-anchor="middle" x="675" y="-14.3" font-family="Times,serif" font-size="14.00">(...)</text>
</g>
<!-- 433&#45;&gt;549 -->
<g id="edge15" class="edge">
<title>433&#45;&gt;549</title>
<path fill="none" stroke="black" d="M663.71,-71.76C665.56,-63.14 667.46,-54.24 669.17,-46.26"/>
<polygon fill="black" stroke="black" points="672.61,-46.92 671.28,-36.41 665.76,-45.45 672.61,-46.92"/>
</g>
<!-- 573 -->
<g id="node18" class="node">
<title>573</title>
<polygon fill="#8e4de8" stroke="black" points="1016,-274 840,-274 840,-191 1016,-191 1016,-274"/>
<text text-anchor="middle" x="928" y="-258.8" font-family="Times,serif" font-size="14.00">graphDepth &lt;= 9.0</text>
<text text-anchor="middle" x="928" y="-243.8" font-family="Times,serif" font-size="14.00">gini = 0.174</text>
<text text-anchor="middle" x="928" y="-228.8" font-family="Times,serif" font-size="14.00">samples = 1260</text>
<text text-anchor="middle" x="928" y="-213.8" font-family="Times,serif" font-size="14.00">value = [25, 94, 1141]</text>
<text text-anchor="middle" x="928" y="-198.8" font-family="Times,serif" font-size="14.00">class = None</text>
</g>
<!-- 572&#45;&gt;573 -->
<g id="edge17" class="edge">
<title>572&#45;&gt;573</title>
<path fill="none" stroke="black" d="M928,-309.91C928,-301.65 928,-292.86 928,-284.3"/>
<polygon fill="black" stroke="black" points="931.5,-284.02 928,-274.02 924.5,-284.02 931.5,-284.02"/>
</g>
<!-- 756 -->
<g id="node25" class="node">
<title>756</title>
<polygon fill="#a06aeb" stroke="black" points="1288.5,-274 1121.5,-274 1121.5,-191 1288.5,-191 1288.5,-274"/>
<text text-anchor="middle" x="1205" y="-258.8" font-family="Times,serif" font-size="14.00">sdComm &lt;= 6.5</text>
<text text-anchor="middle" x="1205" y="-243.8" font-family="Times,serif" font-size="14.00">gini = 0.352</text>
<text text-anchor="middle" x="1205" y="-228.8" font-family="Times,serif" font-size="14.00">samples = 180</text>
<text text-anchor="middle" x="1205" y="-213.8" font-family="Times,serif" font-size="14.00">value = [12, 26, 142]</text>
<text text-anchor="middle" x="1205" y="-198.8" font-family="Times,serif" font-size="14.00">class = None</text>
</g>
<!-- 572&#45;&gt;756 -->
<g id="edge24" class="edge">
<title>572&#45;&gt;756</title>
<path fill="none" stroke="black" d="M1020.62,-311.38C1050,-298.97 1082.48,-285.25 1111.89,-272.83"/>
<polygon fill="black" stroke="black" points="1113.47,-275.96 1121.33,-268.84 1110.75,-269.51 1113.47,-275.96"/>
</g>
<!-- 574 -->
<g id="node19" class="node">
<title>574</title>
<polygon fill="#8b49e7" stroke="black" points="923.5,-155 756.5,-155 756.5,-72 923.5,-72 923.5,-155"/>
<text text-anchor="middle" x="840" y="-139.8" font-family="Times,serif" font-size="14.00">graphSize &lt;= 22.5</text>
<text text-anchor="middle" x="840" y="-124.8" font-family="Times,serif" font-size="14.00">gini = 0.138</text>
<text text-anchor="middle" x="840" y="-109.8" font-family="Times,serif" font-size="14.00">samples = 720</text>
<text text-anchor="middle" x="840" y="-94.8" font-family="Times,serif" font-size="14.00">value = [10, 43, 667]</text>
<text text-anchor="middle" x="840" y="-79.8" font-family="Times,serif" font-size="14.00">class = None</text>
</g>
<!-- 573&#45;&gt;574 -->
<g id="edge18" class="edge">
<title>573&#45;&gt;574</title>
<path fill="none" stroke="black" d="M897.47,-190.91C890.71,-181.92 883.48,-172.32 876.52,-163.05"/>
<polygon fill="black" stroke="black" points="879.29,-160.91 870.48,-155.02 873.69,-165.12 879.29,-160.91"/>
</g>
<!-- 673 -->
<g id="node22" class="node">
<title>673</title>
<polygon fill="#9254e9" stroke="black" points="1108.5,-155 941.5,-155 941.5,-72 1108.5,-72 1108.5,-155"/>
<text text-anchor="middle" x="1025" y="-139.8" font-family="Times,serif" font-size="14.00">graphSize &lt;= 75.0</text>
<text text-anchor="middle" x="1025" y="-124.8" font-family="Times,serif" font-size="14.00">gini = 0.22</text>
<text text-anchor="middle" x="1025" y="-109.8" font-family="Times,serif" font-size="14.00">samples = 540</text>
<text text-anchor="middle" x="1025" y="-94.8" font-family="Times,serif" font-size="14.00">value = [15, 51, 474]</text>
<text text-anchor="middle" x="1025" y="-79.8" font-family="Times,serif" font-size="14.00">class = None</text>
</g>
<!-- 573&#45;&gt;673 -->
<g id="edge21" class="edge">
<title>573&#45;&gt;673</title>
<path fill="none" stroke="black" d="M961.65,-190.91C969.18,-181.83 977.23,-172.12 984.98,-162.77"/>
<polygon fill="black" stroke="black" points="987.72,-164.95 991.41,-155.02 982.33,-160.49 987.72,-164.95"/>
</g>
<!-- 575 -->
<g id="node20" class="node">
<title>575</title>
<polygon fill="#c0c0c0" stroke="black" points="815,-36 761,-36 761,0 815,0 815,-36"/>
<text text-anchor="middle" x="788" y="-14.3" font-family="Times,serif" font-size="14.00">(...)</text>
</g>
<!-- 574&#45;&gt;575 -->
<g id="edge19" class="edge">
<title>574&#45;&gt;575</title>
<path fill="none" stroke="black" d="M817.34,-71.76C812.33,-62.75 807.15,-53.44 802.57,-45.19"/>
<polygon fill="black" stroke="black" points="805.6,-43.44 797.68,-36.41 799.48,-46.85 805.6,-43.44"/>
</g>
<!-- 642 -->
<g id="node21" class="node">
<title>642</title>
<polygon fill="#c0c0c0" stroke="black" points="887,-36 833,-36 833,0 887,0 887,-36"/>
<text text-anchor="middle" x="860" y="-14.3" font-family="Times,serif" font-size="14.00">(...)</text>
</g>
<!-- 574&#45;&gt;642 -->
<g id="edge20" class="edge">
<title>574&#45;&gt;642</title>
<path fill="none" stroke="black" d="M848.71,-71.76C850.56,-63.14 852.46,-54.24 854.17,-46.26"/>
<polygon fill="black" stroke="black" points="857.61,-46.92 856.28,-36.41 850.76,-45.45 857.61,-46.92"/>
</g>
<!-- 674 -->
<g id="node23" class="node">
<title>674</title>
<polygon fill="#c0c0c0" stroke="black" points="998,-36 944,-36 944,0 998,0 998,-36"/>
<text text-anchor="middle" x="971" y="-14.3" font-family="Times,serif" font-size="14.00">(...)</text>
</g>
<!-- 673&#45;&gt;674 -->
<g id="edge22" class="edge">
<title>673&#45;&gt;674</title>
<path fill="none" stroke="black" d="M1001.47,-71.76C996.27,-62.75 990.89,-53.44 986.13,-45.19"/>
<polygon fill="black" stroke="black" points="989.08,-43.31 981.05,-36.41 983.02,-46.82 989.08,-43.31"/>
</g>
<!-- 745 -->
<g id="node24" class="node">
<title>745</title>
<polygon fill="#c0c0c0" stroke="black" points="1070,-36 1016,-36 1016,0 1070,0 1070,-36"/>
<text text-anchor="middle" x="1043" y="-14.3" font-family="Times,serif" font-size="14.00">(...)</text>
</g>
<!-- 673&#45;&gt;745 -->
<g id="edge23" class="edge">
<title>673&#45;&gt;745</title>
<path fill="none" stroke="black" d="M1032.84,-71.76C1034.5,-63.14 1036.22,-54.24 1037.75,-46.26"/>
<polygon fill="black" stroke="black" points="1041.2,-46.89 1039.65,-36.41 1034.32,-45.56 1041.2,-46.89"/>
</g>
<!-- 757 -->
<g id="node26" class="node">
<title>757</title>
<polygon fill="#ae80ee" stroke="black" points="1284,-155 1126,-155 1126,-72 1284,-72 1284,-155"/>
<text text-anchor="middle" x="1205" y="-139.8" font-family="Times,serif" font-size="14.00">nbproc &lt;= 4.5</text>
<text text-anchor="middle" x="1205" y="-124.8" font-family="Times,serif" font-size="14.00">gini = 0.452</text>
<text text-anchor="middle" x="1205" y="-109.8" font-family="Times,serif" font-size="14.00">samples = 120</text>
<text text-anchor="middle" x="1205" y="-94.8" font-family="Times,serif" font-size="14.00">value = [12, 23, 85]</text>
<text text-anchor="middle" x="1205" y="-79.8" font-family="Times,serif" font-size="14.00">class = None</text>
</g>
<!-- 756&#45;&gt;757 -->
<g id="edge25" class="edge">
<title>756&#45;&gt;757</title>
<path fill="none" stroke="black" d="M1205,-190.91C1205,-182.65 1205,-173.86 1205,-165.3"/>
<polygon fill="black" stroke="black" points="1208.5,-165.02 1205,-155.02 1201.5,-165.02 1208.5,-165.02"/>
</g>
<!-- 780 -->
<g id="node29" class="node">
<title>780</title>
<polygon fill="#8843e6" stroke="black" points="1442,-155 1302,-155 1302,-72 1442,-72 1442,-155"/>
<text text-anchor="middle" x="1372" y="-139.8" font-family="Times,serif" font-size="14.00">nbproc &lt;= 4.5</text>
<text text-anchor="middle" x="1372" y="-124.8" font-family="Times,serif" font-size="14.00">gini = 0.095</text>
<text text-anchor="middle" x="1372" y="-109.8" font-family="Times,serif" font-size="14.00">samples = 60</text>
<text text-anchor="middle" x="1372" y="-94.8" font-family="Times,serif" font-size="14.00">value = [0, 3, 57]</text>
<text text-anchor="middle" x="1372" y="-79.8" font-family="Times,serif" font-size="14.00">class = None</text>
</g>
<!-- 756&#45;&gt;780 -->
<g id="edge28" class="edge">
<title>756&#45;&gt;780</title>
<path fill="none" stroke="black" d="M1262.94,-190.91C1276.8,-181.2 1291.7,-170.76 1305.9,-160.81"/>
<polygon fill="black" stroke="black" points="1307.98,-163.63 1314.16,-155.02 1303.96,-157.89 1307.98,-163.63"/>
</g>
<!-- 758 -->
<g id="node27" class="node">
<title>758</title>
<polygon fill="#c0c0c0" stroke="black" points="1189,-36 1135,-36 1135,0 1189,0 1189,-36"/>
<text text-anchor="middle" x="1162" y="-14.3" font-family="Times,serif" font-size="14.00">(...)</text>
</g>
<!-- 757&#45;&gt;758 -->
<g id="edge26" class="edge">
<title>757&#45;&gt;758</title>
<path fill="none" stroke="black" d="M1186.26,-71.76C1182.21,-62.94 1178.02,-53.84 1174.29,-45.72"/>
<polygon fill="black" stroke="black" points="1177.36,-44.03 1170,-36.41 1171,-46.95 1177.36,-44.03"/>
</g>
<!-- 769 -->
<g id="node28" class="node">
<title>769</title>
<polygon fill="#c0c0c0" stroke="black" points="1261,-36 1207,-36 1207,0 1261,0 1261,-36"/>
<text text-anchor="middle" x="1234" y="-14.3" font-family="Times,serif" font-size="14.00">(...)</text>
</g>
<!-- 757&#45;&gt;769 -->
<g id="edge27" class="edge">
<title>757&#45;&gt;769</title>
<path fill="none" stroke="black" d="M1217.64,-71.76C1220.34,-63.04 1223.13,-54.04 1225.63,-45.99"/>
<polygon fill="black" stroke="black" points="1228.98,-46.99 1228.6,-36.41 1222.3,-44.92 1228.98,-46.99"/>
</g>
<!-- 781 -->
<g id="node30" class="node">
<title>781</title>
<polygon fill="#c0c0c0" stroke="black" points="1363,-36 1309,-36 1309,0 1363,0 1363,-36"/>
<text text-anchor="middle" x="1336" y="-14.3" font-family="Times,serif" font-size="14.00">(...)</text>
</g>
<!-- 780&#45;&gt;781 -->
<g id="edge29" class="edge">
<title>780&#45;&gt;781</title>
<path fill="none" stroke="black" d="M1356.31,-71.76C1352.96,-63.04 1349.49,-54.04 1346.39,-45.99"/>
<polygon fill="black" stroke="black" points="1349.56,-44.48 1342.7,-36.41 1343.03,-46.99 1349.56,-44.48"/>
</g>
<!-- 782 -->
<g id="node31" class="node">
<title>782</title>
<polygon fill="#c0c0c0" stroke="black" points="1435,-36 1381,-36 1381,0 1435,0 1435,-36"/>
<text text-anchor="middle" x="1408" y="-14.3" font-family="Times,serif" font-size="14.00">(...)</text>
</g>
<!-- 780&#45;&gt;782 -->
<g id="edge30" class="edge">
<title>780&#45;&gt;782</title>
<path fill="none" stroke="black" d="M1387.69,-71.76C1391.04,-63.04 1394.51,-54.04 1397.61,-45.99"/>
<polygon fill="black" stroke="black" points="1400.97,-46.99 1401.3,-36.41 1394.44,-44.48 1400.97,-46.99"/>
</g>
</g>
</svg>
