<?xml version="1.0" encoding="UTF-8" standalone="no"?>
<!DOCTYPE svg PUBLIC "-//W3C//DTD SVG 1.1//EN"
 "http://www.w3.org/Graphics/SVG/1.1/DTD/svg11.dtd">
<!-- Generated by graphviz version 2.43.0 (0)
 -->
<!-- Title: Tree Pages: 1 -->
<svg width="2130pt" height="520pt"
 viewBox="0.00 0.00 2130.00 520.00" xmlns="http://www.w3.org/2000/svg" xmlns:xlink="http://www.w3.org/1999/xlink">
<g id="graph0" class="graph" transform="scale(1 1) rotate(0) translate(4 516)">
<title>Tree</title>
<polygon fill="white" stroke="transparent" points="-4,4 -4,-516 2126,-516 2126,4 -4,4"/>
<!-- 0 -->
<g id="node1" class="node">
<title>0</title>
<polygon fill="#fefbf9" stroke="black" points="1241,-512 939,-512 939,-429 1241,-429 1241,-512"/>
<text text-anchor="middle" x="1090" y="-496.8" font-family="Times,serif" font-size="14.00">CCR &lt;= 5.5</text>
<text text-anchor="middle" x="1090" y="-481.8" font-family="Times,serif" font-size="14.00">gini = 0.805</text>
<text text-anchor="middle" x="1090" y="-466.8" font-family="Times,serif" font-size="14.00">samples = 4320</text>
<text text-anchor="middle" x="1090" y="-451.8" font-family="Times,serif" font-size="14.00">value = [1010, 911, 560, 141, 784, 914]</text>
<text text-anchor="middle" x="1090" y="-436.8" font-family="Times,serif" font-size="14.00">class = eft</text>
</g>
<!-- 1 -->
<g id="node2" class="node">
<title>1</title>
<polygon fill="#fef6fb" stroke="black" points="958.5,-393 683.5,-393 683.5,-310 958.5,-310 958.5,-393"/>
<text text-anchor="middle" x="821" y="-377.8" font-family="Times,serif" font-size="14.00">graphSize &lt;= 40.0</text>
<text text-anchor="middle" x="821" y="-362.8" font-family="Times,serif" font-size="14.00">gini = 0.746</text>
<text text-anchor="middle" x="821" y="-347.8" font-family="Times,serif" font-size="14.00">samples = 2880</text>
<text text-anchor="middle" x="821" y="-332.8" font-family="Times,serif" font-size="14.00">value = [808, 497, 28, 17, 630, 900]</text>
<text text-anchor="middle" x="821" y="-317.8" font-family="Times,serif" font-size="14.00">class = GDL</text>
</g>
<!-- 0&#45;&gt;1 -->
<g id="edge1" class="edge">
<title>0&#45;&gt;1</title>
<path fill="none" stroke="black" d="M996.67,-428.91C973.09,-418.65 947.65,-407.59 923.64,-397.14"/>
<polygon fill="black" stroke="black" points="924.73,-393.8 914.16,-393.02 921.94,-400.22 924.73,-393.8"/>
<text text-anchor="middle" x="923.32" y="-412.58" font-family="Times,serif" font-size="14.00">True</text>
</g>
<!-- 570 -->
<g id="node17" class="node">
<title>570</title>
<polygon fill="#e8fcf1" stroke="black" points="1505,-393 1221,-393 1221,-310 1505,-310 1505,-393"/>
<text text-anchor="middle" x="1363" y="-377.8" font-family="Times,serif" font-size="14.00">sdComp &lt;= 6.5</text>
<text text-anchor="middle" x="1363" y="-362.8" font-family="Times,serif" font-size="14.00">gini = 0.742</text>
<text text-anchor="middle" x="1363" y="-347.8" font-family="Times,serif" font-size="14.00">samples = 1440</text>
<text text-anchor="middle" x="1363" y="-332.8" font-family="Times,serif" font-size="14.00">value = [202, 414, 532, 124, 154, 14]</text>
<text text-anchor="middle" x="1363" y="-317.8" font-family="Times,serif" font-size="14.00">class = OLB</text>
</g>
<!-- 0&#45;&gt;570 -->
<g id="edge16" class="edge">
<title>0&#45;&gt;570</title>
<path fill="none" stroke="black" d="M1184.72,-428.91C1208.75,-418.61 1234.7,-407.49 1259.16,-397"/>
<polygon fill="black" stroke="black" points="1260.64,-400.18 1268.45,-393.02 1257.88,-393.74 1260.64,-400.18"/>
<text text-anchor="middle" x="1259.17" y="-412.53" font-family="Times,serif" font-size="14.00">False</text>
</g>
<!-- 2 -->
<g id="node3" class="node">
<title>2</title>
<polygon fill="#fcf2eb" stroke="black" points="554.5,-274 279.5,-274 279.5,-191 554.5,-191 554.5,-274"/>
<text text-anchor="middle" x="417" y="-258.8" font-family="Times,serif" font-size="14.00">CCR &lt;= 0.55</text>
<text text-anchor="middle" x="417" y="-243.8" font-family="Times,serif" font-size="14.00">gini = 0.748</text>
<text text-anchor="middle" x="417" y="-228.8" font-family="Times,serif" font-size="14.00">samples = 1440</text>
<text text-anchor="middle" x="417" y="-213.8" font-family="Times,serif" font-size="14.00">value = [483, 232, 27, 17, 375, 306]</text>
<text text-anchor="middle" x="417" y="-198.8" font-family="Times,serif" font-size="14.00">class = eft</text>
</g>
<!-- 1&#45;&gt;2 -->
<g id="edge2" class="edge">
<title>1&#45;&gt;2</title>
<path fill="none" stroke="black" d="M683.38,-310.64C645.12,-299.56 603.42,-287.49 564.61,-276.25"/>
<polygon fill="black" stroke="black" points="565.39,-272.83 554.81,-273.41 563.44,-279.55 565.39,-272.83"/>
</g>
<!-- 289 -->
<g id="node10" class="node">
<title>289</title>
<polygon fill="#f9cfe7" stroke="black" points="949.5,-274 692.5,-274 692.5,-191 949.5,-191 949.5,-274"/>
<text text-anchor="middle" x="821" y="-258.8" font-family="Times,serif" font-size="14.00">CCR &lt;= 0.55</text>
<text text-anchor="middle" x="821" y="-243.8" font-family="Times,serif" font-size="14.00">gini = 0.714</text>
<text text-anchor="middle" x="821" y="-228.8" font-family="Times,serif" font-size="14.00">samples = 1440</text>
<text text-anchor="middle" x="821" y="-213.8" font-family="Times,serif" font-size="14.00">value = [325, 265, 1, 0, 255, 594]</text>
<text text-anchor="middle" x="821" y="-198.8" font-family="Times,serif" font-size="14.00">class = GDL</text>
</g>
<!-- 1&#45;&gt;289 -->
<g id="edge9" class="edge">
<title>1&#45;&gt;289</title>
<path fill="none" stroke="black" d="M821,-309.91C821,-301.65 821,-292.86 821,-284.3"/>
<polygon fill="black" stroke="black" points="824.5,-284.02 821,-274.02 817.5,-284.02 824.5,-284.02"/>
</g>
<!-- 3 -->
<g id="node4" class="node">
<title>3</title>
<polygon fill="#f9e0ce" stroke="black" points="266,-155 0,-155 0,-72 266,-72 266,-155"/>
<text text-anchor="middle" x="133" y="-139.8" font-family="Times,serif" font-size="14.00">sdComp &lt;= 0.065</text>
<text text-anchor="middle" x="133" y="-124.8" font-family="Times,serif" font-size="14.00">gini = 0.728</text>
<text text-anchor="middle" x="133" y="-109.8" font-family="Times,serif" font-size="14.00">samples = 720</text>
<text text-anchor="middle" x="133" y="-94.8" font-family="Times,serif" font-size="14.00">value = [292, 116, 9, 14, 151, 138]</text>
<text text-anchor="middle" x="133" y="-79.8" font-family="Times,serif" font-size="14.00">class = eft</text>
</g>
<!-- 2&#45;&gt;3 -->
<g id="edge3" class="edge">
<title>2&#45;&gt;3</title>
<path fill="none" stroke="black" d="M318.47,-190.91C293.36,-180.56 266.24,-169.39 240.69,-158.87"/>
<polygon fill="black" stroke="black" points="241.94,-155.59 231.36,-155.02 239.27,-162.07 241.94,-155.59"/>
</g>
<!-- 146 -->
<g id="node7" class="node">
<title>146</title>
<polygon fill="#f7f3fd" stroke="black" points="550,-155 284,-155 284,-72 550,-72 550,-155"/>
<text text-anchor="middle" x="417" y="-139.8" font-family="Times,serif" font-size="14.00">sdComp &lt;= 0.65</text>
<text text-anchor="middle" x="417" y="-124.8" font-family="Times,serif" font-size="14.00">gini = 0.752</text>
<text text-anchor="middle" x="417" y="-109.8" font-family="Times,serif" font-size="14.00">samples = 720</text>
<text text-anchor="middle" x="417" y="-94.8" font-family="Times,serif" font-size="14.00">value = [191, 116, 18, 3, 224, 168]</text>
<text text-anchor="middle" x="417" y="-79.8" font-family="Times,serif" font-size="14.00">class = DL</text>
</g>
<!-- 2&#45;&gt;146 -->
<g id="edge6" class="edge">
<title>2&#45;&gt;146</title>
<path fill="none" stroke="black" d="M417,-190.91C417,-182.65 417,-173.86 417,-165.3"/>
<polygon fill="black" stroke="black" points="420.5,-165.02 417,-155.02 413.5,-165.02 420.5,-165.02"/>
</g>
<!-- 4 -->
<g id="node5" class="node">
<title>4</title>
<polygon fill="#c0c0c0" stroke="black" points="124,-36 70,-36 70,0 124,0 124,-36"/>
<text text-anchor="middle" x="97" y="-14.3" font-family="Times,serif" font-size="14.00">(...)</text>
</g>
<!-- 3&#45;&gt;4 -->
<g id="edge4" class="edge">
<title>3&#45;&gt;4</title>
<path fill="none" stroke="black" d="M117.31,-71.76C113.96,-63.04 110.49,-54.04 107.39,-45.99"/>
<polygon fill="black" stroke="black" points="110.56,-44.48 103.7,-36.41 104.03,-46.99 110.56,-44.48"/>
</g>
<!-- 99 -->
<g id="node6" class="node">
<title>99</title>
<polygon fill="#c0c0c0" stroke="black" points="196,-36 142,-36 142,0 196,0 196,-36"/>
<text text-anchor="middle" x="169" y="-14.3" font-family="Times,serif" font-size="14.00">(...)</text>
</g>
<!-- 3&#45;&gt;99 -->
<g id="edge5" class="edge">
<title>3&#45;&gt;99</title>
<path fill="none" stroke="black" d="M148.69,-71.76C152.04,-63.04 155.51,-54.04 158.61,-45.99"/>
<polygon fill="black" stroke="black" points="161.97,-46.99 162.3,-36.41 155.44,-44.48 161.97,-46.99"/>
</g>
<!-- 147 -->
<g id="node8" class="node">
<title>147</title>
<polygon fill="#c0c0c0" stroke="black" points="408,-36 354,-36 354,0 408,0 408,-36"/>
<text text-anchor="middle" x="381" y="-14.3" font-family="Times,serif" font-size="14.00">(...)</text>
</g>
<!-- 146&#45;&gt;147 -->
<g id="edge7" class="edge">
<title>146&#45;&gt;147</title>
<path fill="none" stroke="black" d="M401.31,-71.76C397.96,-63.04 394.49,-54.04 391.39,-45.99"/>
<polygon fill="black" stroke="black" points="394.56,-44.48 387.7,-36.41 388.03,-46.99 394.56,-44.48"/>
</g>
<!-- 242 -->
<g id="node9" class="node">
<title>242</title>
<polygon fill="#c0c0c0" stroke="black" points="480,-36 426,-36 426,0 480,0 480,-36"/>
<text text-anchor="middle" x="453" y="-14.3" font-family="Times,serif" font-size="14.00">(...)</text>
</g>
<!-- 146&#45;&gt;242 -->
<g id="edge8" class="edge">
<title>146&#45;&gt;242</title>
<path fill="none" stroke="black" d="M432.69,-71.76C436.04,-63.04 439.51,-54.04 442.61,-45.99"/>
<polygon fill="black" stroke="black" points="445.97,-46.99 446.3,-36.41 439.44,-44.48 445.97,-46.99"/>
</g>
<!-- 290 -->
<g id="node11" class="node">
<title>290</title>
<polygon fill="#fdf0f8" stroke="black" points="825.5,-155 568.5,-155 568.5,-72 825.5,-72 825.5,-155"/>
<text text-anchor="middle" x="697" y="-139.8" font-family="Times,serif" font-size="14.00">sdComp &lt;= 0.065</text>
<text text-anchor="middle" x="697" y="-124.8" font-family="Times,serif" font-size="14.00">gini = 0.73</text>
<text text-anchor="middle" x="697" y="-109.8" font-family="Times,serif" font-size="14.00">samples = 720</text>
<text text-anchor="middle" x="697" y="-94.8" font-family="Times,serif" font-size="14.00">value = [204, 173, 1, 0, 100, 242]</text>
<text text-anchor="middle" x="697" y="-79.8" font-family="Times,serif" font-size="14.00">class = GDL</text>
</g>
<!-- 289&#45;&gt;290 -->
<g id="edge10" class="edge">
<title>289&#45;&gt;290</title>
<path fill="none" stroke="black" d="M777.98,-190.91C768.07,-181.56 757.45,-171.54 747.27,-161.93"/>
<polygon fill="black" stroke="black" points="749.62,-159.34 739.95,-155.02 744.82,-164.43 749.62,-159.34"/>
</g>
<!-- 429 -->
<g id="node14" class="node">
<title>429</title>
<polygon fill="#f6badd" stroke="black" points="1092,-155 844,-155 844,-72 1092,-72 1092,-155"/>
<text text-anchor="middle" x="968" y="-139.8" font-family="Times,serif" font-size="14.00">sdComp &lt;= 0.65</text>
<text text-anchor="middle" x="968" y="-124.8" font-family="Times,serif" font-size="14.00">gini = 0.67</text>
<text text-anchor="middle" x="968" y="-109.8" font-family="Times,serif" font-size="14.00">samples = 720</text>
<text text-anchor="middle" x="968" y="-94.8" font-family="Times,serif" font-size="14.00">value = [121, 92, 0, 0, 155, 352]</text>
<text text-anchor="middle" x="968" y="-79.8" font-family="Times,serif" font-size="14.00">class = GDL</text>
</g>
<!-- 289&#45;&gt;429 -->
<g id="edge13" class="edge">
<title>289&#45;&gt;429</title>
<path fill="none" stroke="black" d="M872,-190.91C883.97,-181.38 896.83,-171.15 909.11,-161.37"/>
<polygon fill="black" stroke="black" points="911.44,-163.99 917.09,-155.02 907.09,-158.51 911.44,-163.99"/>
</g>
<!-- 291 -->
<g id="node12" class="node">
<title>291</title>
<polygon fill="#c0c0c0" stroke="black" points="688,-36 634,-36 634,0 688,0 688,-36"/>
<text text-anchor="middle" x="661" y="-14.3" font-family="Times,serif" font-size="14.00">(...)</text>
</g>
<!-- 290&#45;&gt;291 -->
<g id="edge11" class="edge">
<title>290&#45;&gt;291</title>
<path fill="none" stroke="black" d="M681.31,-71.76C677.96,-63.04 674.49,-54.04 671.39,-45.99"/>
<polygon fill="black" stroke="black" points="674.56,-44.48 667.7,-36.41 668.03,-46.99 674.56,-44.48"/>
</g>
<!-- 382 -->
<g id="node13" class="node">
<title>382</title>
<polygon fill="#c0c0c0" stroke="black" points="760,-36 706,-36 706,0 760,0 760,-36"/>
<text text-anchor="middle" x="733" y="-14.3" font-family="Times,serif" font-size="14.00">(...)</text>
</g>
<!-- 290&#45;&gt;382 -->
<g id="edge12" class="edge">
<title>290&#45;&gt;382</title>
<path fill="none" stroke="black" d="M712.69,-71.76C716.04,-63.04 719.51,-54.04 722.61,-45.99"/>
<polygon fill="black" stroke="black" points="725.97,-46.99 726.3,-36.41 719.44,-44.48 725.97,-46.99"/>
</g>
<!-- 430 -->
<g id="node15" class="node">
<title>430</title>
<polygon fill="#c0c0c0" stroke="black" points="959,-36 905,-36 905,0 959,0 959,-36"/>
<text text-anchor="middle" x="932" y="-14.3" font-family="Times,serif" font-size="14.00">(...)</text>
</g>
<!-- 429&#45;&gt;430 -->
<g id="edge14" class="edge">
<title>429&#45;&gt;430</title>
<path fill="none" stroke="black" d="M952.31,-71.76C948.96,-63.04 945.49,-54.04 942.39,-45.99"/>
<polygon fill="black" stroke="black" points="945.56,-44.48 938.7,-36.41 939.03,-46.99 945.56,-44.48"/>
</g>
<!-- 523 -->
<g id="node16" class="node">
<title>523</title>
<polygon fill="#c0c0c0" stroke="black" points="1031,-36 977,-36 977,0 1031,0 1031,-36"/>
<text text-anchor="middle" x="1004" y="-14.3" font-family="Times,serif" font-size="14.00">(...)</text>
</g>
<!-- 429&#45;&gt;523 -->
<g id="edge15" class="edge">
<title>429&#45;&gt;523</title>
<path fill="none" stroke="black" d="M983.69,-71.76C987.04,-63.04 990.51,-54.04 993.61,-45.99"/>
<polygon fill="black" stroke="black" points="996.97,-46.99 997.3,-36.41 990.44,-44.48 996.97,-46.99"/>
</g>
<!-- 571 -->
<g id="node18" class="node">
<title>571</title>
<polygon fill="#cff9e0" stroke="black" points="1500.5,-274 1225.5,-274 1225.5,-191 1500.5,-191 1500.5,-274"/>
<text text-anchor="middle" x="1363" y="-258.8" font-family="Times,serif" font-size="14.00">sdComp &lt;= 2.0</text>
<text text-anchor="middle" x="1363" y="-243.8" font-family="Times,serif" font-size="14.00">gini = 0.729</text>
<text text-anchor="middle" x="1363" y="-228.8" font-family="Times,serif" font-size="14.00">samples = 960</text>
<text text-anchor="middle" x="1363" y="-213.8" font-family="Times,serif" font-size="14.00">value = [116, 226, 404, 123, 81, 10]</text>
<text text-anchor="middle" x="1363" y="-198.8" font-family="Times,serif" font-size="14.00">class = OLB</text>
</g>
<!-- 570&#45;&gt;571 -->
<g id="edge17" class="edge">
<title>570&#45;&gt;571</title>
<path fill="none" stroke="black" d="M1363,-309.91C1363,-301.65 1363,-292.86 1363,-284.3"/>
<polygon fill="black" stroke="black" points="1366.5,-284.02 1363,-274.02 1359.5,-284.02 1366.5,-284.02"/>
</g>
<!-- 762 -->
<g id="node25" class="node">
<title>762</title>
<polygon fill="#eefbdd" stroke="black" points="1882.5,-274 1643.5,-274 1643.5,-191 1882.5,-191 1882.5,-274"/>
<text text-anchor="middle" x="1763" y="-258.8" font-family="Times,serif" font-size="14.00">graphDepth &lt;= 6.5</text>
<text text-anchor="middle" x="1763" y="-243.8" font-family="Times,serif" font-size="14.00">gini = 0.72</text>
<text text-anchor="middle" x="1763" y="-228.8" font-family="Times,serif" font-size="14.00">samples = 480</text>
<text text-anchor="middle" x="1763" y="-213.8" font-family="Times,serif" font-size="14.00">value = [86, 188, 128, 1, 73, 4]</text>
<text text-anchor="middle" x="1763" y="-198.8" font-family="Times,serif" font-size="14.00">class = BIM*</text>
</g>
<!-- 570&#45;&gt;762 -->
<g id="edge24" class="edge">
<title>570&#45;&gt;762</title>
<path fill="none" stroke="black" d="M1501.5,-309.99C1544.32,-297.46 1591.32,-283.72 1633.51,-271.38"/>
<polygon fill="black" stroke="black" points="1634.66,-274.69 1643.28,-268.52 1632.7,-267.97 1634.66,-274.69"/>
</g>
<!-- 572 -->
<g id="node19" class="node">
<title>572</title>
<polygon fill="#cef8e0" stroke="black" points="1367.5,-155 1110.5,-155 1110.5,-72 1367.5,-72 1367.5,-155"/>
<text text-anchor="middle" x="1239" y="-139.8" font-family="Times,serif" font-size="14.00">nbproc &lt;= 4.5</text>
<text text-anchor="middle" x="1239" y="-124.8" font-family="Times,serif" font-size="14.00">gini = 0.728</text>
<text text-anchor="middle" x="1239" y="-109.8" font-family="Times,serif" font-size="14.00">samples = 480</text>
<text text-anchor="middle" x="1239" y="-94.8" font-family="Times,serif" font-size="14.00">value = [41, 104, 198, 100, 32, 5]</text>
<text text-anchor="middle" x="1239" y="-79.8" font-family="Times,serif" font-size="14.00">class = OLB</text>
</g>
<!-- 571&#45;&gt;572 -->
<g id="edge18" class="edge">
<title>571&#45;&gt;572</title>
<path fill="none" stroke="black" d="M1319.98,-190.91C1310.07,-181.56 1299.45,-171.54 1289.27,-161.93"/>
<polygon fill="black" stroke="black" points="1291.62,-159.34 1281.95,-155.02 1286.82,-164.43 1291.62,-159.34"/>
</g>
<!-- 667 -->
<g id="node22" class="node">
<title>667</title>
<polygon fill="#d1f9e1" stroke="black" points="1634,-155 1386,-155 1386,-72 1634,-72 1634,-155"/>
<text text-anchor="middle" x="1510" y="-139.8" font-family="Times,serif" font-size="14.00">graphDepth &lt;= 13.5</text>
<text text-anchor="middle" x="1510" y="-124.8" font-family="Times,serif" font-size="14.00">gini = 0.714</text>
<text text-anchor="middle" x="1510" y="-109.8" font-family="Times,serif" font-size="14.00">samples = 480</text>
<text text-anchor="middle" x="1510" y="-94.8" font-family="Times,serif" font-size="14.00">value = [75, 122, 206, 23, 49, 5]</text>
<text text-anchor="middle" x="1510" y="-79.8" font-family="Times,serif" font-size="14.00">class = OLB</text>
</g>
<!-- 571&#45;&gt;667 -->
<g id="edge21" class="edge">
<title>571&#45;&gt;667</title>
<path fill="none" stroke="black" d="M1414,-190.91C1425.97,-181.38 1438.83,-171.15 1451.11,-161.37"/>
<polygon fill="black" stroke="black" points="1453.44,-163.99 1459.09,-155.02 1449.09,-158.51 1453.44,-163.99"/>
</g>
<!-- 573 -->
<g id="node20" class="node">
<title>573</title>
<polygon fill="#c0c0c0" stroke="black" points="1230,-36 1176,-36 1176,0 1230,0 1230,-36"/>
<text text-anchor="middle" x="1203" y="-14.3" font-family="Times,serif" font-size="14.00">(...)</text>
</g>
<!-- 572&#45;&gt;573 -->
<g id="edge19" class="edge">
<title>572&#45;&gt;573</title>
<path fill="none" stroke="black" d="M1223.31,-71.76C1219.96,-63.04 1216.49,-54.04 1213.39,-45.99"/>
<polygon fill="black" stroke="black" points="1216.56,-44.48 1209.7,-36.41 1210.03,-46.99 1216.56,-44.48"/>
</g>
<!-- 620 -->
<g id="node21" class="node">
<title>620</title>
<polygon fill="#c0c0c0" stroke="black" points="1302,-36 1248,-36 1248,0 1302,0 1302,-36"/>
<text text-anchor="middle" x="1275" y="-14.3" font-family="Times,serif" font-size="14.00">(...)</text>
</g>
<!-- 572&#45;&gt;620 -->
<g id="edge20" class="edge">
<title>572&#45;&gt;620</title>
<path fill="none" stroke="black" d="M1254.69,-71.76C1258.04,-63.04 1261.51,-54.04 1264.61,-45.99"/>
<polygon fill="black" stroke="black" points="1267.97,-46.99 1268.3,-36.41 1261.44,-44.48 1267.97,-46.99"/>
</g>
<!-- 668 -->
<g id="node23" class="node">
<title>668</title>
<polygon fill="#c0c0c0" stroke="black" points="1501,-36 1447,-36 1447,0 1501,0 1501,-36"/>
<text text-anchor="middle" x="1474" y="-14.3" font-family="Times,serif" font-size="14.00">(...)</text>
</g>
<!-- 667&#45;&gt;668 -->
<g id="edge22" class="edge">
<title>667&#45;&gt;668</title>
<path fill="none" stroke="black" d="M1494.31,-71.76C1490.96,-63.04 1487.49,-54.04 1484.39,-45.99"/>
<polygon fill="black" stroke="black" points="1487.56,-44.48 1480.7,-36.41 1481.03,-46.99 1487.56,-44.48"/>
</g>
<!-- 727 -->
<g id="node24" class="node">
<title>727</title>
<polygon fill="#c0c0c0" stroke="black" points="1573,-36 1519,-36 1519,0 1573,0 1573,-36"/>
<text text-anchor="middle" x="1546" y="-14.3" font-family="Times,serif" font-size="14.00">(...)</text>
</g>
<!-- 667&#45;&gt;727 -->
<g id="edge23" class="edge">
<title>667&#45;&gt;727</title>
<path fill="none" stroke="black" d="M1525.69,-71.76C1529.04,-63.04 1532.51,-54.04 1535.61,-45.99"/>
<polygon fill="black" stroke="black" points="1538.97,-46.99 1539.3,-36.41 1532.44,-44.48 1538.97,-46.99"/>
</g>
<!-- 763 -->
<g id="node26" class="node">
<title>763</title>
<polygon fill="#fdfffe" stroke="black" points="1873.5,-155 1652.5,-155 1652.5,-72 1873.5,-72 1873.5,-155"/>
<text text-anchor="middle" x="1763" y="-139.8" font-family="Times,serif" font-size="14.00">nbproc &lt;= 4.5</text>
<text text-anchor="middle" x="1763" y="-124.8" font-family="Times,serif" font-size="14.00">gini = 0.754</text>
<text text-anchor="middle" x="1763" y="-109.8" font-family="Times,serif" font-size="14.00">samples = 180</text>
<text text-anchor="middle" x="1763" y="-94.8" font-family="Times,serif" font-size="14.00">value = [45, 49, 50, 1, 32, 3]</text>
<text text-anchor="middle" x="1763" y="-79.8" font-family="Times,serif" font-size="14.00">class = OLB</text>
</g>
<!-- 762&#45;&gt;763 -->
<g id="edge25" class="edge">
<title>762&#45;&gt;763</title>
<path fill="none" stroke="black" d="M1763,-190.91C1763,-182.65 1763,-173.86 1763,-165.3"/>
<polygon fill="black" stroke="black" points="1766.5,-165.02 1763,-155.02 1759.5,-165.02 1766.5,-165.02"/>
</g>
<!-- 798 -->
<g id="node29" class="node">
<title>798</title>
<polygon fill="#e4f8c9" stroke="black" points="2122,-155 1892,-155 1892,-72 2122,-72 2122,-155"/>
<text text-anchor="middle" x="2007" y="-139.8" font-family="Times,serif" font-size="14.00">graphDepth &lt;= 25.5</text>
<text text-anchor="middle" x="2007" y="-124.8" font-family="Times,serif" font-size="14.00">gini = 0.68</text>
<text text-anchor="middle" x="2007" y="-109.8" font-family="Times,serif" font-size="14.00">samples = 300</text>
<text text-anchor="middle" x="2007" y="-94.8" font-family="Times,serif" font-size="14.00">value = [41, 139, 78, 0, 41, 1]</text>
<text text-anchor="middle" x="2007" y="-79.8" font-family="Times,serif" font-size="14.00">class = BIM*</text>
</g>
<!-- 762&#45;&gt;798 -->
<g id="edge28" class="edge">
<title>762&#45;&gt;798</title>
<path fill="none" stroke="black" d="M1847.65,-190.91C1868.85,-180.74 1891.71,-169.78 1913.32,-159.42"/>
<polygon fill="black" stroke="black" points="1914.99,-162.5 1922.5,-155.02 1911.96,-156.19 1914.99,-162.5"/>
</g>
<!-- 764 -->
<g id="node27" class="node">
<title>764</title>
<polygon fill="#c0c0c0" stroke="black" points="1754,-36 1700,-36 1700,0 1754,0 1754,-36"/>
<text text-anchor="middle" x="1727" y="-14.3" font-family="Times,serif" font-size="14.00">(...)</text>
</g>
<!-- 763&#45;&gt;764 -->
<g id="edge26" class="edge">
<title>763&#45;&gt;764</title>
<path fill="none" stroke="black" d="M1747.31,-71.76C1743.96,-63.04 1740.49,-54.04 1737.39,-45.99"/>
<polygon fill="black" stroke="black" points="1740.56,-44.48 1733.7,-36.41 1734.03,-46.99 1740.56,-44.48"/>
</g>
<!-- 781 -->
<g id="node28" class="node">
<title>781</title>
<polygon fill="#c0c0c0" stroke="black" points="1826,-36 1772,-36 1772,0 1826,0 1826,-36"/>
<text text-anchor="middle" x="1799" y="-14.3" font-family="Times,serif" font-size="14.00">(...)</text>
</g>
<!-- 763&#45;&gt;781 -->
<g id="edge27" class="edge">
<title>763&#45;&gt;781</title>
<path fill="none" stroke="black" d="M1778.69,-71.76C1782.04,-63.04 1785.51,-54.04 1788.61,-45.99"/>
<polygon fill="black" stroke="black" points="1791.97,-46.99 1792.3,-36.41 1785.44,-44.48 1791.97,-46.99"/>
</g>
<!-- 799 -->
<g id="node30" class="node">
<title>799</title>
<polygon fill="#c0c0c0" stroke="black" points="1998,-36 1944,-36 1944,0 1998,0 1998,-36"/>
<text text-anchor="middle" x="1971" y="-14.3" font-family="Times,serif" font-size="14.00">(...)</text>
</g>
<!-- 798&#45;&gt;799 -->
<g id="edge29" class="edge">
<title>798&#45;&gt;799</title>
<path fill="none" stroke="black" d="M1991.31,-71.76C1987.96,-63.04 1984.49,-54.04 1981.39,-45.99"/>
<polygon fill="black" stroke="black" points="1984.56,-44.48 1977.7,-36.41 1978.03,-46.99 1984.56,-44.48"/>
</g>
<!-- 846 -->
<g id="node31" class="node">
<title>846</title>
<polygon fill="#c0c0c0" stroke="black" points="2070,-36 2016,-36 2016,0 2070,0 2070,-36"/>
<text text-anchor="middle" x="2043" y="-14.3" font-family="Times,serif" font-size="14.00">(...)</text>
</g>
<!-- 798&#45;&gt;846 -->
<g id="edge30" class="edge">
<title>798&#45;&gt;846</title>
<path fill="none" stroke="black" d="M2022.69,-71.76C2026.04,-63.04 2029.51,-54.04 2032.61,-45.99"/>
<polygon fill="black" stroke="black" points="2035.97,-46.99 2036.3,-36.41 2029.44,-44.48 2035.97,-46.99"/>
</g>
</g>
</svg>
