<?xml version="1.0" encoding="UTF-8" standalone="no"?>
<!DOCTYPE svg PUBLIC "-//W3C//DTD SVG 1.1//EN"
 "http://www.w3.org/Graphics/SVG/1.1/DTD/svg11.dtd">
<!-- Generated by graphviz version 2.43.0 (0)
 -->
<!-- Title: Tree Pages: 1 -->
<svg width="2812pt" height="520pt"
 viewBox="0.00 0.00 2812.00 520.00" xmlns="http://www.w3.org/2000/svg" xmlns:xlink="http://www.w3.org/1999/xlink">
<g id="graph0" class="graph" transform="scale(1 1) rotate(0) translate(4 516)">
<title>Tree</title>
<polygon fill="white" stroke="transparent" points="-4,4 -4,-516 2808,-516 2808,4 -4,4"/>
<!-- 0 -->
<g id="node1" class="node">
<title>0</title>
<polygon fill="#fef9f6" stroke="black" points="1611,-512 1210,-512 1210,-429 1611,-429 1611,-512"/>
<text text-anchor="middle" x="1410.5" y="-496.8" font-family="Times,serif" font-size="14.00">graphSize &lt;= 40.0</text>
<text text-anchor="middle" x="1410.5" y="-481.8" font-family="Times,serif" font-size="14.00">gini = 0.832</text>
<text text-anchor="middle" x="1410.5" y="-466.8" font-family="Times,serif" font-size="14.00">samples = 162489</text>
<text text-anchor="middle" x="1410.5" y="-451.8" font-family="Times,serif" font-size="14.00">value = [32332, 25925, 26325, 25791, 25791, 26325]</text>
<text text-anchor="middle" x="1410.5" y="-436.8" font-family="Times,serif" font-size="14.00">class = mean</text>
</g>
<!-- 1 -->
<g id="node2" class="node">
<title>1</title>
<polygon fill="#fefbf9" stroke="black" points="1246,-393 845,-393 845,-310 1246,-310 1246,-393"/>
<text text-anchor="middle" x="1045.5" y="-377.8" font-family="Times,serif" font-size="14.00">graphDepth &lt;= 3.5</text>
<text text-anchor="middle" x="1045.5" y="-362.8" font-family="Times,serif" font-size="14.00">gini = 0.833</text>
<text text-anchor="middle" x="1045.5" y="-347.8" font-family="Times,serif" font-size="14.00">samples = 121279</text>
<text text-anchor="middle" x="1045.5" y="-332.8" font-family="Times,serif" font-size="14.00">value = [23074, 19421, 20005, 19387, 19387, 20005]</text>
<text text-anchor="middle" x="1045.5" y="-317.8" font-family="Times,serif" font-size="14.00">class = mean</text>
</g>
<!-- 0&#45;&gt;1 -->
<g id="edge1" class="edge">
<title>0&#45;&gt;1</title>
<path fill="none" stroke="black" d="M1284.12,-428.99C1251.13,-418.41 1215.42,-406.97 1181.93,-396.23"/>
<polygon fill="black" stroke="black" points="1182.67,-392.79 1172.08,-393.07 1180.53,-399.46 1182.67,-392.79"/>
<text text-anchor="middle" x="1183.52" y="-411.6" font-family="Times,serif" font-size="14.00">True</text>
</g>
<!-- 432 -->
<g id="node17" class="node">
<title>432</title>
<polygon fill="#fdf5ef" stroke="black" points="1927,-393 1580,-393 1580,-310 1927,-310 1927,-393"/>
<text text-anchor="middle" x="1753.5" y="-377.8" font-family="Times,serif" font-size="14.00">sdComm &lt;= 0.2</text>
<text text-anchor="middle" x="1753.5" y="-362.8" font-family="Times,serif" font-size="14.00">gini = 0.829</text>
<text text-anchor="middle" x="1753.5" y="-347.8" font-family="Times,serif" font-size="14.00">samples = 41210</text>
<text text-anchor="middle" x="1753.5" y="-332.8" font-family="Times,serif" font-size="14.00">value = [9258, 6504, 6320, 6404, 6404, 6320]</text>
<text text-anchor="middle" x="1753.5" y="-317.8" font-family="Times,serif" font-size="14.00">class = mean</text>
</g>
<!-- 0&#45;&gt;432 -->
<g id="edge16" class="edge">
<title>0&#45;&gt;432</title>
<path fill="none" stroke="black" d="M1529.5,-428.91C1560.36,-418.38 1593.74,-407 1625.06,-396.31"/>
<polygon fill="black" stroke="black" points="1626.37,-399.56 1634.71,-393.02 1624.11,-392.94 1626.37,-399.56"/>
<text text-anchor="middle" x="1623.68" y="-411.76" font-family="Times,serif" font-size="14.00">False</text>
</g>
<!-- 2 -->
<g id="node3" class="node">
<title>2</title>
<polygon fill="#fffefe" stroke="black" points="658,-274 311,-274 311,-191 658,-191 658,-274"/>
<text text-anchor="middle" x="484.5" y="-258.8" font-family="Times,serif" font-size="14.00">sdComp &lt;= 0.065</text>
<text text-anchor="middle" x="484.5" y="-243.8" font-family="Times,serif" font-size="14.00">gini = 0.833</text>
<text text-anchor="middle" x="484.5" y="-228.8" font-family="Times,serif" font-size="14.00">samples = 22408</text>
<text text-anchor="middle" x="484.5" y="-213.8" font-family="Times,serif" font-size="14.00">value = [3932, 3524, 3647, 3829, 3829, 3647]</text>
<text text-anchor="middle" x="484.5" y="-198.8" font-family="Times,serif" font-size="14.00">class = mean</text>
</g>
<!-- 1&#45;&gt;2 -->
<g id="edge2" class="edge">
<title>1&#45;&gt;2</title>
<path fill="none" stroke="black" d="M851.26,-309.99C792,-297.63 727.06,-284.09 668.5,-271.87"/>
<polygon fill="black" stroke="black" points="668.91,-268.38 658.4,-269.77 667.48,-275.24 668.91,-268.38"/>
</g>
<!-- 109 -->
<g id="node10" class="node">
<title>109</title>
<polygon fill="#fefbf8" stroke="black" points="1246,-274 845,-274 845,-191 1246,-191 1246,-274"/>
<text text-anchor="middle" x="1045.5" y="-258.8" font-family="Times,serif" font-size="14.00">graphSize &lt;= 22.5</text>
<text text-anchor="middle" x="1045.5" y="-243.8" font-family="Times,serif" font-size="14.00">gini = 0.832</text>
<text text-anchor="middle" x="1045.5" y="-228.8" font-family="Times,serif" font-size="14.00">samples = 98871</text>
<text text-anchor="middle" x="1045.5" y="-213.8" font-family="Times,serif" font-size="14.00">value = [19142, 15897, 16358, 15558, 15558, 16358]</text>
<text text-anchor="middle" x="1045.5" y="-198.8" font-family="Times,serif" font-size="14.00">class = mean</text>
</g>
<!-- 1&#45;&gt;109 -->
<g id="edge9" class="edge">
<title>1&#45;&gt;109</title>
<path fill="none" stroke="black" d="M1045.5,-309.91C1045.5,-301.65 1045.5,-292.86 1045.5,-284.3"/>
<polygon fill="black" stroke="black" points="1049,-284.02 1045.5,-274.02 1042,-284.02 1049,-284.02"/>
</g>
<!-- 3 -->
<g id="node4" class="node">
<title>3</title>
<polygon fill="#ffffff" stroke="black" points="293,-155 0,-155 0,-72 293,-72 293,-155"/>
<text text-anchor="middle" x="146.5" y="-139.8" font-family="Times,serif" font-size="14.00">sdComp &lt;= 0.02</text>
<text text-anchor="middle" x="146.5" y="-124.8" font-family="Times,serif" font-size="14.00">gini = 0.826</text>
<text text-anchor="middle" x="146.5" y="-109.8" font-family="Times,serif" font-size="14.00">samples = 1830</text>
<text text-anchor="middle" x="146.5" y="-94.8" font-family="Times,serif" font-size="14.00">value = [228, 222, 308, 382, 382, 308]</text>
<text text-anchor="middle" x="146.5" y="-79.8" font-family="Times,serif" font-size="14.00">class = minmax</text>
</g>
<!-- 2&#45;&gt;3 -->
<g id="edge3" class="edge">
<title>2&#45;&gt;3</title>
<path fill="none" stroke="black" d="M367.23,-190.91C336.82,-180.38 303.94,-169 273.07,-158.31"/>
<polygon fill="black" stroke="black" points="274.15,-154.98 263.56,-155.02 271.87,-161.6 274.15,-154.98"/>
</g>
<!-- 26 -->
<g id="node7" class="node">
<title>26</title>
<polygon fill="#fffdfc" stroke="black" points="658,-155 311,-155 311,-72 658,-72 658,-155"/>
<text text-anchor="middle" x="484.5" y="-139.8" font-family="Times,serif" font-size="14.00">sdComm &lt;= 0.2</text>
<text text-anchor="middle" x="484.5" y="-124.8" font-family="Times,serif" font-size="14.00">gini = 0.833</text>
<text text-anchor="middle" x="484.5" y="-109.8" font-family="Times,serif" font-size="14.00">samples = 20578</text>
<text text-anchor="middle" x="484.5" y="-94.8" font-family="Times,serif" font-size="14.00">value = [3704, 3302, 3339, 3447, 3447, 3339]</text>
<text text-anchor="middle" x="484.5" y="-79.8" font-family="Times,serif" font-size="14.00">class = mean</text>
</g>
<!-- 2&#45;&gt;26 -->
<g id="edge6" class="edge">
<title>2&#45;&gt;26</title>
<path fill="none" stroke="black" d="M484.5,-190.91C484.5,-182.65 484.5,-173.86 484.5,-165.3"/>
<polygon fill="black" stroke="black" points="488,-165.02 484.5,-155.02 481,-165.02 488,-165.02"/>
</g>
<!-- 4 -->
<g id="node5" class="node">
<title>4</title>
<polygon fill="#c0c0c0" stroke="black" points="137.5,-36 83.5,-36 83.5,0 137.5,0 137.5,-36"/>
<text text-anchor="middle" x="110.5" y="-14.3" font-family="Times,serif" font-size="14.00">(...)</text>
</g>
<!-- 3&#45;&gt;4 -->
<g id="edge4" class="edge">
<title>3&#45;&gt;4</title>
<path fill="none" stroke="black" d="M130.81,-71.76C127.46,-63.04 123.99,-54.04 120.89,-45.99"/>
<polygon fill="black" stroke="black" points="124.06,-44.48 117.2,-36.41 117.53,-46.99 124.06,-44.48"/>
</g>
<!-- 15 -->
<g id="node6" class="node">
<title>15</title>
<polygon fill="#c0c0c0" stroke="black" points="209.5,-36 155.5,-36 155.5,0 209.5,0 209.5,-36"/>
<text text-anchor="middle" x="182.5" y="-14.3" font-family="Times,serif" font-size="14.00">(...)</text>
</g>
<!-- 3&#45;&gt;15 -->
<g id="edge5" class="edge">
<title>3&#45;&gt;15</title>
<path fill="none" stroke="black" d="M162.19,-71.76C165.54,-63.04 169.01,-54.04 172.11,-45.99"/>
<polygon fill="black" stroke="black" points="175.47,-46.99 175.8,-36.41 168.94,-44.48 175.47,-46.99"/>
</g>
<!-- 27 -->
<g id="node8" class="node">
<title>27</title>
<polygon fill="#c0c0c0" stroke="black" points="475.5,-36 421.5,-36 421.5,0 475.5,0 475.5,-36"/>
<text text-anchor="middle" x="448.5" y="-14.3" font-family="Times,serif" font-size="14.00">(...)</text>
</g>
<!-- 26&#45;&gt;27 -->
<g id="edge7" class="edge">
<title>26&#45;&gt;27</title>
<path fill="none" stroke="black" d="M468.81,-71.76C465.46,-63.04 461.99,-54.04 458.89,-45.99"/>
<polygon fill="black" stroke="black" points="462.06,-44.48 455.2,-36.41 455.53,-46.99 462.06,-44.48"/>
</g>
<!-- 50 -->
<g id="node9" class="node">
<title>50</title>
<polygon fill="#c0c0c0" stroke="black" points="547.5,-36 493.5,-36 493.5,0 547.5,0 547.5,-36"/>
<text text-anchor="middle" x="520.5" y="-14.3" font-family="Times,serif" font-size="14.00">(...)</text>
</g>
<!-- 26&#45;&gt;50 -->
<g id="edge8" class="edge">
<title>26&#45;&gt;50</title>
<path fill="none" stroke="black" d="M500.19,-71.76C503.54,-63.04 507.01,-54.04 510.11,-45.99"/>
<polygon fill="black" stroke="black" points="513.47,-46.99 513.8,-36.41 506.94,-44.48 513.47,-46.99"/>
</g>
<!-- 110 -->
<g id="node11" class="node">
<title>110</title>
<polygon fill="#fefbf9" stroke="black" points="1077,-155 676,-155 676,-72 1077,-72 1077,-155"/>
<text text-anchor="middle" x="876.5" y="-139.8" font-family="Times,serif" font-size="14.00">sdComm &lt;= 0.065</text>
<text text-anchor="middle" x="876.5" y="-124.8" font-family="Times,serif" font-size="14.00">gini = 0.833</text>
<text text-anchor="middle" x="876.5" y="-109.8" font-family="Times,serif" font-size="14.00">samples = 64724</text>
<text text-anchor="middle" x="876.5" y="-94.8" font-family="Times,serif" font-size="14.00">value = [12272, 10524, 10618, 10346, 10346, 10618]</text>
<text text-anchor="middle" x="876.5" y="-79.8" font-family="Times,serif" font-size="14.00">class = mean</text>
</g>
<!-- 109&#45;&gt;110 -->
<g id="edge10" class="edge">
<title>109&#45;&gt;110</title>
<path fill="none" stroke="black" d="M986.87,-190.91C972.84,-181.2 957.76,-170.76 943.39,-160.81"/>
<polygon fill="black" stroke="black" points="945.24,-157.84 935.03,-155.02 941.26,-163.59 945.24,-157.84"/>
</g>
<!-- 217 -->
<g id="node14" class="node">
<title>217</title>
<polygon fill="#fefaf7" stroke="black" points="1442,-155 1095,-155 1095,-72 1442,-72 1442,-155"/>
<text text-anchor="middle" x="1268.5" y="-139.8" font-family="Times,serif" font-size="14.00">sdComm &lt;= 0.02</text>
<text text-anchor="middle" x="1268.5" y="-124.8" font-family="Times,serif" font-size="14.00">gini = 0.832</text>
<text text-anchor="middle" x="1268.5" y="-109.8" font-family="Times,serif" font-size="14.00">samples = 34147</text>
<text text-anchor="middle" x="1268.5" y="-94.8" font-family="Times,serif" font-size="14.00">value = [6870, 5373, 5740, 5212, 5212, 5740]</text>
<text text-anchor="middle" x="1268.5" y="-79.8" font-family="Times,serif" font-size="14.00">class = mean</text>
</g>
<!-- 109&#45;&gt;217 -->
<g id="edge13" class="edge">
<title>109&#45;&gt;217</title>
<path fill="none" stroke="black" d="M1122.87,-190.91C1142.07,-180.83 1162.76,-169.98 1182.35,-159.7"/>
<polygon fill="black" stroke="black" points="1184.04,-162.77 1191.27,-155.02 1180.79,-156.57 1184.04,-162.77"/>
</g>
<!-- 111 -->
<g id="node12" class="node">
<title>111</title>
<polygon fill="#c0c0c0" stroke="black" points="867.5,-36 813.5,-36 813.5,0 867.5,0 867.5,-36"/>
<text text-anchor="middle" x="840.5" y="-14.3" font-family="Times,serif" font-size="14.00">(...)</text>
</g>
<!-- 110&#45;&gt;111 -->
<g id="edge11" class="edge">
<title>110&#45;&gt;111</title>
<path fill="none" stroke="black" d="M860.81,-71.76C857.46,-63.04 853.99,-54.04 850.89,-45.99"/>
<polygon fill="black" stroke="black" points="854.06,-44.48 847.2,-36.41 847.53,-46.99 854.06,-44.48"/>
</g>
<!-- 134 -->
<g id="node13" class="node">
<title>134</title>
<polygon fill="#c0c0c0" stroke="black" points="939.5,-36 885.5,-36 885.5,0 939.5,0 939.5,-36"/>
<text text-anchor="middle" x="912.5" y="-14.3" font-family="Times,serif" font-size="14.00">(...)</text>
</g>
<!-- 110&#45;&gt;134 -->
<g id="edge12" class="edge">
<title>110&#45;&gt;134</title>
<path fill="none" stroke="black" d="M892.19,-71.76C895.54,-63.04 899.01,-54.04 902.11,-45.99"/>
<polygon fill="black" stroke="black" points="905.47,-46.99 905.8,-36.41 898.94,-44.48 905.47,-46.99"/>
</g>
<!-- 218 -->
<g id="node15" class="node">
<title>218</title>
<polygon fill="#c0c0c0" stroke="black" points="1259.5,-36 1205.5,-36 1205.5,0 1259.5,0 1259.5,-36"/>
<text text-anchor="middle" x="1232.5" y="-14.3" font-family="Times,serif" font-size="14.00">(...)</text>
</g>
<!-- 217&#45;&gt;218 -->
<g id="edge14" class="edge">
<title>217&#45;&gt;218</title>
<path fill="none" stroke="black" d="M1252.81,-71.76C1249.46,-63.04 1245.99,-54.04 1242.89,-45.99"/>
<polygon fill="black" stroke="black" points="1246.06,-44.48 1239.2,-36.41 1239.53,-46.99 1246.06,-44.48"/>
</g>
<!-- 241 -->
<g id="node16" class="node">
<title>241</title>
<polygon fill="#c0c0c0" stroke="black" points="1331.5,-36 1277.5,-36 1277.5,0 1331.5,0 1331.5,-36"/>
<text text-anchor="middle" x="1304.5" y="-14.3" font-family="Times,serif" font-size="14.00">(...)</text>
</g>
<!-- 217&#45;&gt;241 -->
<g id="edge15" class="edge">
<title>217&#45;&gt;241</title>
<path fill="none" stroke="black" d="M1284.19,-71.76C1287.54,-63.04 1291.01,-54.04 1294.11,-45.99"/>
<polygon fill="black" stroke="black" points="1297.47,-46.99 1297.8,-36.41 1290.94,-44.48 1297.47,-46.99"/>
</g>
<!-- 433 -->
<g id="node18" class="node">
<title>433</title>
<polygon fill="#fcf1ea" stroke="black" points="1927,-274 1580,-274 1580,-191 1927,-191 1927,-274"/>
<text text-anchor="middle" x="1753.5" y="-258.8" font-family="Times,serif" font-size="14.00">nbproc &lt;= 4.5</text>
<text text-anchor="middle" x="1753.5" y="-243.8" font-family="Times,serif" font-size="14.00">gini = 0.824</text>
<text text-anchor="middle" x="1753.5" y="-228.8" font-family="Times,serif" font-size="14.00">samples = 9306</text>
<text text-anchor="middle" x="1753.5" y="-213.8" font-family="Times,serif" font-size="14.00">value = [2360, 1286, 1310, 1520, 1520, 1310]</text>
<text text-anchor="middle" x="1753.5" y="-198.8" font-family="Times,serif" font-size="14.00">class = mean</text>
</g>
<!-- 432&#45;&gt;433 -->
<g id="edge17" class="edge">
<title>432&#45;&gt;433</title>
<path fill="none" stroke="black" d="M1753.5,-309.91C1753.5,-301.65 1753.5,-292.86 1753.5,-284.3"/>
<polygon fill="black" stroke="black" points="1757,-284.02 1753.5,-274.02 1750,-284.02 1757,-284.02"/>
</g>
<!-- 624 -->
<g id="node25" class="node">
<title>624</title>
<polygon fill="#fdf7f3" stroke="black" points="2439,-274 2092,-274 2092,-191 2439,-191 2439,-274"/>
<text text-anchor="middle" x="2265.5" y="-258.8" font-family="Times,serif" font-size="14.00">sdComp &lt;= 6.5</text>
<text text-anchor="middle" x="2265.5" y="-243.8" font-family="Times,serif" font-size="14.00">gini = 0.83</text>
<text text-anchor="middle" x="2265.5" y="-228.8" font-family="Times,serif" font-size="14.00">samples = 31904</text>
<text text-anchor="middle" x="2265.5" y="-213.8" font-family="Times,serif" font-size="14.00">value = [6898, 5218, 5010, 4884, 4884, 5010]</text>
<text text-anchor="middle" x="2265.5" y="-198.8" font-family="Times,serif" font-size="14.00">class = mean</text>
</g>
<!-- 432&#45;&gt;624 -->
<g id="edge24" class="edge">
<title>432&#45;&gt;624</title>
<path fill="none" stroke="black" d="M1927.2,-310.81C1976.95,-299.44 2031.35,-287.01 2081.69,-275.5"/>
<polygon fill="black" stroke="black" points="2082.73,-278.86 2091.7,-273.22 2081.17,-272.03 2082.73,-278.86"/>
</g>
<!-- 434 -->
<g id="node19" class="node">
<title>434</title>
<polygon fill="#fdf7f2" stroke="black" points="1753,-155 1460,-155 1460,-72 1753,-72 1753,-155"/>
<text text-anchor="middle" x="1606.5" y="-139.8" font-family="Times,serif" font-size="14.00">sdComp &lt;= 0.02</text>
<text text-anchor="middle" x="1606.5" y="-124.8" font-family="Times,serif" font-size="14.00">gini = 0.826</text>
<text text-anchor="middle" x="1606.5" y="-109.8" font-family="Times,serif" font-size="14.00">samples = 4082</text>
<text text-anchor="middle" x="1606.5" y="-94.8" font-family="Times,serif" font-size="14.00">value = [950, 604, 530, 734, 734, 530]</text>
<text text-anchor="middle" x="1606.5" y="-79.8" font-family="Times,serif" font-size="14.00">class = mean</text>
</g>
<!-- 433&#45;&gt;434 -->
<g id="edge18" class="edge">
<title>433&#45;&gt;434</title>
<path fill="none" stroke="black" d="M1702.5,-190.91C1690.53,-181.38 1677.67,-171.15 1665.39,-161.37"/>
<polygon fill="black" stroke="black" points="1667.41,-158.51 1657.41,-155.02 1663.06,-163.99 1667.41,-158.51"/>
</g>
<!-- 529 -->
<g id="node22" class="node">
<title>529</title>
<polygon fill="#fbede3" stroke="black" points="2073.5,-155 1771.5,-155 1771.5,-72 2073.5,-72 2073.5,-155"/>
<text text-anchor="middle" x="1922.5" y="-139.8" font-family="Times,serif" font-size="14.00">CCR &lt;= 0.55</text>
<text text-anchor="middle" x="1922.5" y="-124.8" font-family="Times,serif" font-size="14.00">gini = 0.82</text>
<text text-anchor="middle" x="1922.5" y="-109.8" font-family="Times,serif" font-size="14.00">samples = 5224</text>
<text text-anchor="middle" x="1922.5" y="-94.8" font-family="Times,serif" font-size="14.00">value = [1410, 682, 780, 786, 786, 780]</text>
<text text-anchor="middle" x="1922.5" y="-79.8" font-family="Times,serif" font-size="14.00">class = mean</text>
</g>
<!-- 433&#45;&gt;529 -->
<g id="edge21" class="edge">
<title>433&#45;&gt;529</title>
<path fill="none" stroke="black" d="M1812.13,-190.91C1826.16,-181.2 1841.24,-170.76 1855.61,-160.81"/>
<polygon fill="black" stroke="black" points="1857.74,-163.59 1863.97,-155.02 1853.76,-157.84 1857.74,-163.59"/>
</g>
<!-- 435 -->
<g id="node20" class="node">
<title>435</title>
<polygon fill="#c0c0c0" stroke="black" points="1597.5,-36 1543.5,-36 1543.5,0 1597.5,0 1597.5,-36"/>
<text text-anchor="middle" x="1570.5" y="-14.3" font-family="Times,serif" font-size="14.00">(...)</text>
</g>
<!-- 434&#45;&gt;435 -->
<g id="edge19" class="edge">
<title>434&#45;&gt;435</title>
<path fill="none" stroke="black" d="M1590.81,-71.76C1587.46,-63.04 1583.99,-54.04 1580.89,-45.99"/>
<polygon fill="black" stroke="black" points="1584.06,-44.48 1577.2,-36.41 1577.53,-46.99 1584.06,-44.48"/>
</g>
<!-- 458 -->
<g id="node21" class="node">
<title>458</title>
<polygon fill="#c0c0c0" stroke="black" points="1669.5,-36 1615.5,-36 1615.5,0 1669.5,0 1669.5,-36"/>
<text text-anchor="middle" x="1642.5" y="-14.3" font-family="Times,serif" font-size="14.00">(...)</text>
</g>
<!-- 434&#45;&gt;458 -->
<g id="edge20" class="edge">
<title>434&#45;&gt;458</title>
<path fill="none" stroke="black" d="M1622.19,-71.76C1625.54,-63.04 1629.01,-54.04 1632.11,-45.99"/>
<polygon fill="black" stroke="black" points="1635.47,-46.99 1635.8,-36.41 1628.94,-44.48 1635.47,-46.99"/>
</g>
<!-- 530 -->
<g id="node23" class="node">
<title>530</title>
<polygon fill="#c0c0c0" stroke="black" points="1913.5,-36 1859.5,-36 1859.5,0 1913.5,0 1913.5,-36"/>
<text text-anchor="middle" x="1886.5" y="-14.3" font-family="Times,serif" font-size="14.00">(...)</text>
</g>
<!-- 529&#45;&gt;530 -->
<g id="edge22" class="edge">
<title>529&#45;&gt;530</title>
<path fill="none" stroke="black" d="M1906.81,-71.76C1903.46,-63.04 1899.99,-54.04 1896.89,-45.99"/>
<polygon fill="black" stroke="black" points="1900.06,-44.48 1893.2,-36.41 1893.53,-46.99 1900.06,-44.48"/>
</g>
<!-- 601 -->
<g id="node24" class="node">
<title>601</title>
<polygon fill="#c0c0c0" stroke="black" points="1985.5,-36 1931.5,-36 1931.5,0 1985.5,0 1985.5,-36"/>
<text text-anchor="middle" x="1958.5" y="-14.3" font-family="Times,serif" font-size="14.00">(...)</text>
</g>
<!-- 529&#45;&gt;601 -->
<g id="edge23" class="edge">
<title>529&#45;&gt;601</title>
<path fill="none" stroke="black" d="M1938.19,-71.76C1941.54,-63.04 1945.01,-54.04 1948.11,-45.99"/>
<polygon fill="black" stroke="black" points="1951.47,-46.99 1951.8,-36.41 1944.94,-44.48 1951.47,-46.99"/>
</g>
<!-- 625 -->
<g id="node26" class="node">
<title>625</title>
<polygon fill="#fef9f5" stroke="black" points="2439,-155 2092,-155 2092,-72 2439,-72 2439,-155"/>
<text text-anchor="middle" x="2265.5" y="-139.8" font-family="Times,serif" font-size="14.00">sdComp &lt;= 0.65</text>
<text text-anchor="middle" x="2265.5" y="-124.8" font-family="Times,serif" font-size="14.00">gini = 0.831</text>
<text text-anchor="middle" x="2265.5" y="-109.8" font-family="Times,serif" font-size="14.00">samples = 25034</text>
<text text-anchor="middle" x="2265.5" y="-94.8" font-family="Times,serif" font-size="14.00">value = [5202, 4136, 3980, 3868, 3868, 3980]</text>
<text text-anchor="middle" x="2265.5" y="-79.8" font-family="Times,serif" font-size="14.00">class = mean</text>
</g>
<!-- 624&#45;&gt;625 -->
<g id="edge25" class="edge">
<title>624&#45;&gt;625</title>
<path fill="none" stroke="black" d="M2265.5,-190.91C2265.5,-182.65 2265.5,-173.86 2265.5,-165.3"/>
<polygon fill="black" stroke="black" points="2269,-165.02 2265.5,-155.02 2262,-165.02 2269,-165.02"/>
</g>
<!-- 816 -->
<g id="node29" class="node">
<title>816</title>
<polygon fill="#fcf2ea" stroke="black" points="2804,-155 2457,-155 2457,-72 2804,-72 2804,-155"/>
<text text-anchor="middle" x="2630.5" y="-139.8" font-family="Times,serif" font-size="14.00">graphSize &lt;= 75.0</text>
<text text-anchor="middle" x="2630.5" y="-124.8" font-family="Times,serif" font-size="14.00">gini = 0.826</text>
<text text-anchor="middle" x="2630.5" y="-109.8" font-family="Times,serif" font-size="14.00">samples = 6870</text>
<text text-anchor="middle" x="2630.5" y="-94.8" font-family="Times,serif" font-size="14.00">value = [1696, 1082, 1030, 1016, 1016, 1030]</text>
<text text-anchor="middle" x="2630.5" y="-79.8" font-family="Times,serif" font-size="14.00">class = mean</text>
</g>
<!-- 624&#45;&gt;816 -->
<g id="edge28" class="edge">
<title>624&#45;&gt;816</title>
<path fill="none" stroke="black" d="M2391.88,-190.99C2424.87,-180.41 2460.58,-168.97 2494.07,-158.23"/>
<polygon fill="black" stroke="black" points="2495.47,-161.46 2503.92,-155.07 2493.33,-154.79 2495.47,-161.46"/>
</g>
<!-- 626 -->
<g id="node27" class="node">
<title>626</title>
<polygon fill="#c0c0c0" stroke="black" points="2256.5,-36 2202.5,-36 2202.5,0 2256.5,0 2256.5,-36"/>
<text text-anchor="middle" x="2229.5" y="-14.3" font-family="Times,serif" font-size="14.00">(...)</text>
</g>
<!-- 625&#45;&gt;626 -->
<g id="edge26" class="edge">
<title>625&#45;&gt;626</title>
<path fill="none" stroke="black" d="M2249.81,-71.76C2246.46,-63.04 2242.99,-54.04 2239.89,-45.99"/>
<polygon fill="black" stroke="black" points="2243.06,-44.48 2236.2,-36.41 2236.53,-46.99 2243.06,-44.48"/>
</g>
<!-- 689 -->
<g id="node28" class="node">
<title>689</title>
<polygon fill="#c0c0c0" stroke="black" points="2328.5,-36 2274.5,-36 2274.5,0 2328.5,0 2328.5,-36"/>
<text text-anchor="middle" x="2301.5" y="-14.3" font-family="Times,serif" font-size="14.00">(...)</text>
</g>
<!-- 625&#45;&gt;689 -->
<g id="edge27" class="edge">
<title>625&#45;&gt;689</title>
<path fill="none" stroke="black" d="M2281.19,-71.76C2284.54,-63.04 2288.01,-54.04 2291.11,-45.99"/>
<polygon fill="black" stroke="black" points="2294.47,-46.99 2294.8,-36.41 2287.94,-44.48 2294.47,-46.99"/>
</g>
<!-- 817 -->
<g id="node30" class="node">
<title>817</title>
<polygon fill="#c0c0c0" stroke="black" points="2621.5,-36 2567.5,-36 2567.5,0 2621.5,0 2621.5,-36"/>
<text text-anchor="middle" x="2594.5" y="-14.3" font-family="Times,serif" font-size="14.00">(...)</text>
</g>
<!-- 816&#45;&gt;817 -->
<g id="edge29" class="edge">
<title>816&#45;&gt;817</title>
<path fill="none" stroke="black" d="M2614.81,-71.76C2611.46,-63.04 2607.99,-54.04 2604.89,-45.99"/>
<polygon fill="black" stroke="black" points="2608.06,-44.48 2601.2,-36.41 2601.53,-46.99 2608.06,-44.48"/>
</g>
<!-- 840 -->
<g id="node31" class="node">
<title>840</title>
<polygon fill="#c0c0c0" stroke="black" points="2693.5,-36 2639.5,-36 2639.5,0 2693.5,0 2693.5,-36"/>
<text text-anchor="middle" x="2666.5" y="-14.3" font-family="Times,serif" font-size="14.00">(...)</text>
</g>
<!-- 816&#45;&gt;840 -->
<g id="edge30" class="edge">
<title>816&#45;&gt;840</title>
<path fill="none" stroke="black" d="M2646.19,-71.76C2649.54,-63.04 2653.01,-54.04 2656.11,-45.99"/>
<polygon fill="black" stroke="black" points="2659.47,-46.99 2659.8,-36.41 2652.94,-44.48 2659.47,-46.99"/>
</g>
</g>
</svg>
