<?xml version="1.0" encoding="UTF-8" standalone="no"?>
<!DOCTYPE svg PUBLIC "-//W3C//DTD SVG 1.1//EN"
 "http://www.w3.org/Graphics/SVG/1.1/DTD/svg11.dtd">
<!-- Generated by graphviz version 2.43.0 (0)
 -->
<!-- Title: Tree Pages: 1 -->
<svg width="2364pt" height="520pt"
 viewBox="0.00 0.00 2363.50 520.00" xmlns="http://www.w3.org/2000/svg" xmlns:xlink="http://www.w3.org/1999/xlink">
<g id="graph0" class="graph" transform="scale(1 1) rotate(0) translate(4 516)">
<title>Tree</title>
<polygon fill="white" stroke="transparent" points="-4,4 -4,-516 2359.5,-516 2359.5,4 -4,4"/>
<!-- 0 -->
<g id="node1" class="node">
<title>0</title>
<polygon fill="#edfdef" stroke="black" points="1320,-512 982,-512 982,-429 1320,-429 1320,-512"/>
<text text-anchor="middle" x="1151" y="-496.8" font-family="Times,serif" font-size="14.00">sdComp &lt;= 0.65</text>
<text text-anchor="middle" x="1151" y="-481.8" font-family="Times,serif" font-size="14.00">gini = 0.822</text>
<text text-anchor="middle" x="1151" y="-466.8" font-family="Times,serif" font-size="14.00">samples = 4320</text>
<text text-anchor="middle" x="1151" y="-451.8" font-family="Times,serif" font-size="14.00">value = [920, 391, 1233, 470, 335, 523, 448]</text>
<text text-anchor="middle" x="1151" y="-436.8" font-family="Times,serif" font-size="14.00">class = BIL</text>
</g>
<!-- 1 -->
<g id="node2" class="node">
<title>1</title>
<polygon fill="#fef9f5" stroke="black" points="1049.5,-393 720.5,-393 720.5,-310 1049.5,-310 1049.5,-393"/>
<text text-anchor="middle" x="885" y="-377.8" font-family="Times,serif" font-size="14.00">CCR &lt;= 0.55</text>
<text text-anchor="middle" x="885" y="-362.8" font-family="Times,serif" font-size="14.00">gini = 0.825</text>
<text text-anchor="middle" x="885" y="-347.8" font-family="Times,serif" font-size="14.00">samples = 2400</text>
<text text-anchor="middle" x="885" y="-332.8" font-family="Times,serif" font-size="14.00">value = [603, 104, 507, 288, 180, 390, 328]</text>
<text text-anchor="middle" x="885" y="-317.8" font-family="Times,serif" font-size="14.00">class = rku</text>
</g>
<!-- 0&#45;&gt;1 -->
<g id="edge1" class="edge">
<title>0&#45;&gt;1</title>
<path fill="none" stroke="black" d="M1058.71,-428.91C1035.4,-418.65 1010.24,-407.59 986.5,-397.14"/>
<polygon fill="black" stroke="black" points="987.69,-393.84 977.12,-393.02 984.87,-400.25 987.69,-393.84"/>
<text text-anchor="middle" x="986.19" y="-412.62" font-family="Times,serif" font-size="14.00">True</text>
</g>
<!-- 480 -->
<g id="node17" class="node">
<title>480</title>
<polygon fill="#ccf8d2" stroke="black" points="1629.5,-393 1300.5,-393 1300.5,-310 1629.5,-310 1629.5,-393"/>
<text text-anchor="middle" x="1465" y="-377.8" font-family="Times,serif" font-size="14.00">CCR &lt;= 5.5</text>
<text text-anchor="middle" x="1465" y="-362.8" font-family="Times,serif" font-size="14.00">gini = 0.783</text>
<text text-anchor="middle" x="1465" y="-347.8" font-family="Times,serif" font-size="14.00">samples = 1920</text>
<text text-anchor="middle" x="1465" y="-332.8" font-family="Times,serif" font-size="14.00">value = [317, 287, 726, 182, 155, 133, 120]</text>
<text text-anchor="middle" x="1465" y="-317.8" font-family="Times,serif" font-size="14.00">class = BIL</text>
</g>
<!-- 0&#45;&gt;480 -->
<g id="edge16" class="edge">
<title>0&#45;&gt;480</title>
<path fill="none" stroke="black" d="M1259.94,-428.91C1287.95,-418.47 1318.22,-407.19 1346.68,-396.59"/>
<polygon fill="black" stroke="black" points="1348.1,-399.79 1356.25,-393.02 1345.66,-393.23 1348.1,-399.79"/>
<text text-anchor="middle" x="1345.86" y="-412.06" font-family="Times,serif" font-size="14.00">False</text>
</g>
<!-- 2 -->
<g id="node3" class="node">
<title>2</title>
<polygon fill="#f3fdf4" stroke="black" points="618,-274 298,-274 298,-191 618,-191 618,-274"/>
<text text-anchor="middle" x="458" y="-258.8" font-family="Times,serif" font-size="14.00">sdComp &lt;= 0.065</text>
<text text-anchor="middle" x="458" y="-243.8" font-family="Times,serif" font-size="14.00">gini = 0.818</text>
<text text-anchor="middle" x="458" y="-228.8" font-family="Times,serif" font-size="14.00">samples = 1440</text>
<text text-anchor="middle" x="458" y="-213.8" font-family="Times,serif" font-size="14.00">value = [320, 63, 387, 172, 112, 245, 141]</text>
<text text-anchor="middle" x="458" y="-198.8" font-family="Times,serif" font-size="14.00">class = BIL</text>
</g>
<!-- 1&#45;&gt;2 -->
<g id="edge2" class="edge">
<title>1&#45;&gt;2</title>
<path fill="none" stroke="black" d="M737.15,-309.99C697.97,-299.25 655.53,-287.62 615.84,-276.75"/>
<polygon fill="black" stroke="black" points="616.65,-273.34 606.08,-274.07 614.8,-280.09 616.65,-273.34"/>
</g>
<!-- 289 -->
<g id="node10" class="node">
<title>289</title>
<polygon fill="#fcefe6" stroke="black" points="1040.5,-274 729.5,-274 729.5,-191 1040.5,-191 1040.5,-274"/>
<text text-anchor="middle" x="885" y="-258.8" font-family="Times,serif" font-size="14.00">graphSize &lt;= 40.0</text>
<text text-anchor="middle" x="885" y="-243.8" font-family="Times,serif" font-size="14.00">gini = 0.815</text>
<text text-anchor="middle" x="885" y="-228.8" font-family="Times,serif" font-size="14.00">samples = 960</text>
<text text-anchor="middle" x="885" y="-213.8" font-family="Times,serif" font-size="14.00">value = [283, 41, 120, 116, 68, 145, 187]</text>
<text text-anchor="middle" x="885" y="-198.8" font-family="Times,serif" font-size="14.00">class = rku</text>
</g>
<!-- 1&#45;&gt;289 -->
<g id="edge9" class="edge">
<title>1&#45;&gt;289</title>
<path fill="none" stroke="black" d="M885,-309.91C885,-301.65 885,-292.86 885,-284.3"/>
<polygon fill="black" stroke="black" points="888.5,-284.02 885,-274.02 881.5,-284.02 888.5,-284.02"/>
</g>
<!-- 3 -->
<g id="node4" class="node">
<title>3</title>
<polygon fill="#fef8f4" stroke="black" points="302,-155 0,-155 0,-72 302,-72 302,-155"/>
<text text-anchor="middle" x="151" y="-139.8" font-family="Times,serif" font-size="14.00">nbproc &lt;= 4.5</text>
<text text-anchor="middle" x="151" y="-124.8" font-family="Times,serif" font-size="14.00">gini = 0.815</text>
<text text-anchor="middle" x="151" y="-109.8" font-family="Times,serif" font-size="14.00">samples = 960</text>
<text text-anchor="middle" x="151" y="-94.8" font-family="Times,serif" font-size="14.00">value = [249, 36, 208, 91, 66, 194, 116]</text>
<text text-anchor="middle" x="151" y="-79.8" font-family="Times,serif" font-size="14.00">class = rku</text>
</g>
<!-- 2&#45;&gt;3 -->
<g id="edge3" class="edge">
<title>2&#45;&gt;3</title>
<path fill="none" stroke="black" d="M351.49,-190.91C324.1,-180.47 294.51,-169.19 266.69,-158.59"/>
<polygon fill="black" stroke="black" points="267.91,-155.31 257.32,-155.02 265.42,-161.85 267.91,-155.31"/>
</g>
<!-- 194 -->
<g id="node7" class="node">
<title>194</title>
<polygon fill="#cef9d3" stroke="black" points="595.5,-155 320.5,-155 320.5,-72 595.5,-72 595.5,-155"/>
<text text-anchor="middle" x="458" y="-139.8" font-family="Times,serif" font-size="14.00">graphDepth &lt;= 6.5</text>
<text text-anchor="middle" x="458" y="-124.8" font-family="Times,serif" font-size="14.00">gini = 0.784</text>
<text text-anchor="middle" x="458" y="-109.8" font-family="Times,serif" font-size="14.00">samples = 480</text>
<text text-anchor="middle" x="458" y="-94.8" font-family="Times,serif" font-size="14.00">value = [71, 27, 179, 81, 46, 51, 25]</text>
<text text-anchor="middle" x="458" y="-79.8" font-family="Times,serif" font-size="14.00">class = BIL</text>
</g>
<!-- 2&#45;&gt;194 -->
<g id="edge6" class="edge">
<title>2&#45;&gt;194</title>
<path fill="none" stroke="black" d="M458,-190.91C458,-182.65 458,-173.86 458,-165.3"/>
<polygon fill="black" stroke="black" points="461.5,-165.02 458,-155.02 454.5,-165.02 461.5,-165.02"/>
</g>
<!-- 4 -->
<g id="node5" class="node">
<title>4</title>
<polygon fill="#c0c0c0" stroke="black" points="142,-36 88,-36 88,0 142,0 142,-36"/>
<text text-anchor="middle" x="115" y="-14.3" font-family="Times,serif" font-size="14.00">(...)</text>
</g>
<!-- 3&#45;&gt;4 -->
<g id="edge4" class="edge">
<title>3&#45;&gt;4</title>
<path fill="none" stroke="black" d="M135.31,-71.76C131.96,-63.04 128.49,-54.04 125.39,-45.99"/>
<polygon fill="black" stroke="black" points="128.56,-44.48 121.7,-36.41 122.03,-46.99 128.56,-44.48"/>
</g>
<!-- 99 -->
<g id="node6" class="node">
<title>99</title>
<polygon fill="#c0c0c0" stroke="black" points="214,-36 160,-36 160,0 214,0 214,-36"/>
<text text-anchor="middle" x="187" y="-14.3" font-family="Times,serif" font-size="14.00">(...)</text>
</g>
<!-- 3&#45;&gt;99 -->
<g id="edge5" class="edge">
<title>3&#45;&gt;99</title>
<path fill="none" stroke="black" d="M166.69,-71.76C170.04,-63.04 173.51,-54.04 176.61,-45.99"/>
<polygon fill="black" stroke="black" points="179.97,-46.99 180.3,-36.41 173.44,-44.48 179.97,-46.99"/>
</g>
<!-- 195 -->
<g id="node8" class="node">
<title>195</title>
<polygon fill="#c0c0c0" stroke="black" points="449,-36 395,-36 395,0 449,0 449,-36"/>
<text text-anchor="middle" x="422" y="-14.3" font-family="Times,serif" font-size="14.00">(...)</text>
</g>
<!-- 194&#45;&gt;195 -->
<g id="edge7" class="edge">
<title>194&#45;&gt;195</title>
<path fill="none" stroke="black" d="M442.31,-71.76C438.96,-63.04 435.49,-54.04 432.39,-45.99"/>
<polygon fill="black" stroke="black" points="435.56,-44.48 428.7,-36.41 429.03,-46.99 435.56,-44.48"/>
</g>
<!-- 230 -->
<g id="node9" class="node">
<title>230</title>
<polygon fill="#c0c0c0" stroke="black" points="521,-36 467,-36 467,0 521,0 521,-36"/>
<text text-anchor="middle" x="494" y="-14.3" font-family="Times,serif" font-size="14.00">(...)</text>
</g>
<!-- 194&#45;&gt;230 -->
<g id="edge8" class="edge">
<title>194&#45;&gt;230</title>
<path fill="none" stroke="black" d="M473.69,-71.76C477.04,-63.04 480.51,-54.04 483.61,-45.99"/>
<polygon fill="black" stroke="black" points="486.97,-46.99 487.3,-36.41 480.44,-44.48 486.97,-46.99"/>
</g>
<!-- 290 -->
<g id="node11" class="node">
<title>290</title>
<polygon fill="#fefaf8" stroke="black" points="880,-155 614,-155 614,-72 880,-72 880,-155"/>
<text text-anchor="middle" x="747" y="-139.8" font-family="Times,serif" font-size="14.00">graphDepth &lt;= 3.5</text>
<text text-anchor="middle" x="747" y="-124.8" font-family="Times,serif" font-size="14.00">gini = 0.845</text>
<text text-anchor="middle" x="747" y="-109.8" font-family="Times,serif" font-size="14.00">samples = 480</text>
<text text-anchor="middle" x="747" y="-94.8" font-family="Times,serif" font-size="14.00">value = [99, 37, 64, 81, 49, 66, 84]</text>
<text text-anchor="middle" x="747" y="-79.8" font-family="Times,serif" font-size="14.00">class = rku</text>
</g>
<!-- 289&#45;&gt;290 -->
<g id="edge10" class="edge">
<title>289&#45;&gt;290</title>
<path fill="none" stroke="black" d="M837.12,-190.91C825.99,-181.47 814.05,-171.34 802.61,-161.65"/>
<polygon fill="black" stroke="black" points="804.68,-158.82 794.79,-155.02 800.16,-164.16 804.68,-158.82"/>
</g>
<!-- 385 -->
<g id="node14" class="node">
<title>385</title>
<polygon fill="#f9e4d4" stroke="black" points="1173.5,-155 898.5,-155 898.5,-72 1173.5,-72 1173.5,-155"/>
<text text-anchor="middle" x="1036" y="-139.8" font-family="Times,serif" font-size="14.00">nbproc &lt;= 4.5</text>
<text text-anchor="middle" x="1036" y="-124.8" font-family="Times,serif" font-size="14.00">gini = 0.759</text>
<text text-anchor="middle" x="1036" y="-109.8" font-family="Times,serif" font-size="14.00">samples = 480</text>
<text text-anchor="middle" x="1036" y="-94.8" font-family="Times,serif" font-size="14.00">value = [184, 4, 56, 35, 19, 79, 103]</text>
<text text-anchor="middle" x="1036" y="-79.8" font-family="Times,serif" font-size="14.00">class = rku</text>
</g>
<!-- 289&#45;&gt;385 -->
<g id="edge13" class="edge">
<title>289&#45;&gt;385</title>
<path fill="none" stroke="black" d="M937.39,-190.91C949.69,-181.38 962.89,-171.15 975.51,-161.37"/>
<polygon fill="black" stroke="black" points="977.94,-163.91 983.7,-155.02 973.66,-158.38 977.94,-163.91"/>
</g>
<!-- 291 -->
<g id="node12" class="node">
<title>291</title>
<polygon fill="#c0c0c0" stroke="black" points="738,-36 684,-36 684,0 738,0 738,-36"/>
<text text-anchor="middle" x="711" y="-14.3" font-family="Times,serif" font-size="14.00">(...)</text>
</g>
<!-- 290&#45;&gt;291 -->
<g id="edge11" class="edge">
<title>290&#45;&gt;291</title>
<path fill="none" stroke="black" d="M731.31,-71.76C727.96,-63.04 724.49,-54.04 721.39,-45.99"/>
<polygon fill="black" stroke="black" points="724.56,-44.48 717.7,-36.41 718.03,-46.99 724.56,-44.48"/>
</g>
<!-- 314 -->
<g id="node13" class="node">
<title>314</title>
<polygon fill="#c0c0c0" stroke="black" points="810,-36 756,-36 756,0 810,0 810,-36"/>
<text text-anchor="middle" x="783" y="-14.3" font-family="Times,serif" font-size="14.00">(...)</text>
</g>
<!-- 290&#45;&gt;314 -->
<g id="edge12" class="edge">
<title>290&#45;&gt;314</title>
<path fill="none" stroke="black" d="M762.69,-71.76C766.04,-63.04 769.51,-54.04 772.61,-45.99"/>
<polygon fill="black" stroke="black" points="775.97,-46.99 776.3,-36.41 769.44,-44.48 775.97,-46.99"/>
</g>
<!-- 386 -->
<g id="node15" class="node">
<title>386</title>
<polygon fill="#c0c0c0" stroke="black" points="1027,-36 973,-36 973,0 1027,0 1027,-36"/>
<text text-anchor="middle" x="1000" y="-14.3" font-family="Times,serif" font-size="14.00">(...)</text>
</g>
<!-- 385&#45;&gt;386 -->
<g id="edge14" class="edge">
<title>385&#45;&gt;386</title>
<path fill="none" stroke="black" d="M1020.31,-71.76C1016.96,-63.04 1013.49,-54.04 1010.39,-45.99"/>
<polygon fill="black" stroke="black" points="1013.56,-44.48 1006.7,-36.41 1007.03,-46.99 1013.56,-44.48"/>
</g>
<!-- 433 -->
<g id="node16" class="node">
<title>433</title>
<polygon fill="#c0c0c0" stroke="black" points="1099,-36 1045,-36 1045,0 1099,0 1099,-36"/>
<text text-anchor="middle" x="1072" y="-14.3" font-family="Times,serif" font-size="14.00">(...)</text>
</g>
<!-- 385&#45;&gt;433 -->
<g id="edge15" class="edge">
<title>385&#45;&gt;433</title>
<path fill="none" stroke="black" d="M1051.69,-71.76C1055.04,-63.04 1058.51,-54.04 1061.61,-45.99"/>
<polygon fill="black" stroke="black" points="1064.97,-46.99 1065.3,-36.41 1058.44,-44.48 1064.97,-46.99"/>
</g>
<!-- 481 -->
<g id="node18" class="node">
<title>481</title>
<polygon fill="#d1f9d6" stroke="black" points="1602.5,-274 1327.5,-274 1327.5,-191 1602.5,-191 1602.5,-274"/>
<text text-anchor="middle" x="1465" y="-258.8" font-family="Times,serif" font-size="14.00">graphDepth &lt;= 9.0</text>
<text text-anchor="middle" x="1465" y="-243.8" font-family="Times,serif" font-size="14.00">gini = 0.812</text>
<text text-anchor="middle" x="1465" y="-228.8" font-family="Times,serif" font-size="14.00">samples = 480</text>
<text text-anchor="middle" x="1465" y="-213.8" font-family="Times,serif" font-size="14.00">value = [63, 37, 160, 55, 43, 64, 58]</text>
<text text-anchor="middle" x="1465" y="-198.8" font-family="Times,serif" font-size="14.00">class = BIL</text>
</g>
<!-- 480&#45;&gt;481 -->
<g id="edge17" class="edge">
<title>480&#45;&gt;481</title>
<path fill="none" stroke="black" d="M1465,-309.91C1465,-301.65 1465,-292.86 1465,-284.3"/>
<polygon fill="black" stroke="black" points="1468.5,-284.02 1465,-274.02 1461.5,-284.02 1468.5,-284.02"/>
</g>
<!-- 576 -->
<g id="node25" class="node">
<title>576</title>
<polygon fill="#cbf8d0" stroke="black" points="2071.5,-274 1760.5,-274 1760.5,-191 2071.5,-191 2071.5,-274"/>
<text text-anchor="middle" x="1916" y="-258.8" font-family="Times,serif" font-size="14.00">sdComp &lt;= 6.5</text>
<text text-anchor="middle" x="1916" y="-243.8" font-family="Times,serif" font-size="14.00">gini = 0.766</text>
<text text-anchor="middle" x="1916" y="-228.8" font-family="Times,serif" font-size="14.00">samples = 1440</text>
<text text-anchor="middle" x="1916" y="-213.8" font-family="Times,serif" font-size="14.00">value = [254, 250, 566, 127, 112, 69, 62]</text>
<text text-anchor="middle" x="1916" y="-198.8" font-family="Times,serif" font-size="14.00">class = BIL</text>
</g>
<!-- 480&#45;&gt;576 -->
<g id="edge24" class="edge">
<title>480&#45;&gt;576</title>
<path fill="none" stroke="black" d="M1621.16,-309.99C1662.95,-299.15 1708.26,-287.39 1750.54,-276.42"/>
<polygon fill="black" stroke="black" points="1751.56,-279.78 1760.36,-273.88 1749.8,-273 1751.56,-279.78"/>
</g>
<!-- 482 -->
<g id="node19" class="node">
<title>482</title>
<polygon fill="#f9fefa" stroke="black" points="1458,-155 1192,-155 1192,-72 1458,-72 1458,-155"/>
<text text-anchor="middle" x="1325" y="-139.8" font-family="Times,serif" font-size="14.00">graphDepth &lt;= 6.5</text>
<text text-anchor="middle" x="1325" y="-124.8" font-family="Times,serif" font-size="14.00">gini = 0.851</text>
<text text-anchor="middle" x="1325" y="-109.8" font-family="Times,serif" font-size="14.00">samples = 240</text>
<text text-anchor="middle" x="1325" y="-94.8" font-family="Times,serif" font-size="14.00">value = [40, 23, 46, 31, 28, 39, 33]</text>
<text text-anchor="middle" x="1325" y="-79.8" font-family="Times,serif" font-size="14.00">class = BIL</text>
</g>
<!-- 481&#45;&gt;482 -->
<g id="edge18" class="edge">
<title>481&#45;&gt;482</title>
<path fill="none" stroke="black" d="M1416.43,-190.91C1405.13,-181.47 1393.02,-171.34 1381.42,-161.65"/>
<polygon fill="black" stroke="black" points="1383.4,-158.75 1373.49,-155.02 1378.92,-164.12 1383.4,-158.75"/>
</g>
<!-- 529 -->
<g id="node22" class="node">
<title>529</title>
<polygon fill="#adf4b5" stroke="black" points="1751.5,-155 1476.5,-155 1476.5,-72 1751.5,-72 1751.5,-155"/>
<text text-anchor="middle" x="1614" y="-139.8" font-family="Times,serif" font-size="14.00">graphDepth &lt;= 25.5</text>
<text text-anchor="middle" x="1614" y="-124.8" font-family="Times,serif" font-size="14.00">gini = 0.726</text>
<text text-anchor="middle" x="1614" y="-109.8" font-family="Times,serif" font-size="14.00">samples = 240</text>
<text text-anchor="middle" x="1614" y="-94.8" font-family="Times,serif" font-size="14.00">value = [23, 14, 114, 24, 15, 25, 25]</text>
<text text-anchor="middle" x="1614" y="-79.8" font-family="Times,serif" font-size="14.00">class = BIL</text>
</g>
<!-- 481&#45;&gt;529 -->
<g id="edge21" class="edge">
<title>481&#45;&gt;529</title>
<path fill="none" stroke="black" d="M1516.69,-190.91C1528.83,-181.38 1541.86,-171.15 1554.31,-161.37"/>
<polygon fill="black" stroke="black" points="1556.69,-163.95 1562.4,-155.02 1552.37,-158.44 1556.69,-163.95"/>
</g>
<!-- 483 -->
<g id="node20" class="node">
<title>483</title>
<polygon fill="#c0c0c0" stroke="black" points="1316,-36 1262,-36 1262,0 1316,0 1316,-36"/>
<text text-anchor="middle" x="1289" y="-14.3" font-family="Times,serif" font-size="14.00">(...)</text>
</g>
<!-- 482&#45;&gt;483 -->
<g id="edge19" class="edge">
<title>482&#45;&gt;483</title>
<path fill="none" stroke="black" d="M1309.31,-71.76C1305.96,-63.04 1302.49,-54.04 1299.39,-45.99"/>
<polygon fill="black" stroke="black" points="1302.56,-44.48 1295.7,-36.41 1296.03,-46.99 1302.56,-44.48"/>
</g>
<!-- 518 -->
<g id="node21" class="node">
<title>518</title>
<polygon fill="#c0c0c0" stroke="black" points="1388,-36 1334,-36 1334,0 1388,0 1388,-36"/>
<text text-anchor="middle" x="1361" y="-14.3" font-family="Times,serif" font-size="14.00">(...)</text>
</g>
<!-- 482&#45;&gt;518 -->
<g id="edge20" class="edge">
<title>482&#45;&gt;518</title>
<path fill="none" stroke="black" d="M1340.69,-71.76C1344.04,-63.04 1347.51,-54.04 1350.61,-45.99"/>
<polygon fill="black" stroke="black" points="1353.97,-46.99 1354.3,-36.41 1347.44,-44.48 1353.97,-46.99"/>
</g>
<!-- 530 -->
<g id="node23" class="node">
<title>530</title>
<polygon fill="#c0c0c0" stroke="black" points="1605,-36 1551,-36 1551,0 1605,0 1605,-36"/>
<text text-anchor="middle" x="1578" y="-14.3" font-family="Times,serif" font-size="14.00">(...)</text>
</g>
<!-- 529&#45;&gt;530 -->
<g id="edge22" class="edge">
<title>529&#45;&gt;530</title>
<path fill="none" stroke="black" d="M1598.31,-71.76C1594.96,-63.04 1591.49,-54.04 1588.39,-45.99"/>
<polygon fill="black" stroke="black" points="1591.56,-44.48 1584.7,-36.41 1585.03,-46.99 1591.56,-44.48"/>
</g>
<!-- 565 -->
<g id="node24" class="node">
<title>565</title>
<polygon fill="#c0c0c0" stroke="black" points="1677,-36 1623,-36 1623,0 1677,0 1677,-36"/>
<text text-anchor="middle" x="1650" y="-14.3" font-family="Times,serif" font-size="14.00">(...)</text>
</g>
<!-- 529&#45;&gt;565 -->
<g id="edge23" class="edge">
<title>529&#45;&gt;565</title>
<path fill="none" stroke="black" d="M1629.69,-71.76C1633.04,-63.04 1636.51,-54.04 1639.61,-45.99"/>
<polygon fill="black" stroke="black" points="1642.97,-46.99 1643.3,-36.41 1636.44,-44.48 1642.97,-46.99"/>
</g>
<!-- 577 -->
<g id="node26" class="node">
<title>577</title>
<polygon fill="#d8fadc" stroke="black" points="2062.5,-155 1769.5,-155 1769.5,-72 2062.5,-72 2062.5,-155"/>
<text text-anchor="middle" x="1916" y="-139.8" font-family="Times,serif" font-size="14.00">graphSize &lt;= 75.0</text>
<text text-anchor="middle" x="1916" y="-124.8" font-family="Times,serif" font-size="14.00">gini = 0.779</text>
<text text-anchor="middle" x="1916" y="-109.8" font-family="Times,serif" font-size="14.00">samples = 960</text>
<text text-anchor="middle" x="1916" y="-94.8" font-family="Times,serif" font-size="14.00">value = [176, 192, 344, 84, 84, 49, 31]</text>
<text text-anchor="middle" x="1916" y="-79.8" font-family="Times,serif" font-size="14.00">class = BIL</text>
</g>
<!-- 576&#45;&gt;577 -->
<g id="edge25" class="edge">
<title>576&#45;&gt;577</title>
<path fill="none" stroke="black" d="M1916,-190.91C1916,-182.65 1916,-173.86 1916,-165.3"/>
<polygon fill="black" stroke="black" points="1919.5,-165.02 1916,-155.02 1912.5,-165.02 1919.5,-165.02"/>
</g>
<!-- 768 -->
<g id="node29" class="node">
<title>768</title>
<polygon fill="#b8f6bf" stroke="black" points="2355.5,-155 2080.5,-155 2080.5,-72 2355.5,-72 2355.5,-155"/>
<text text-anchor="middle" x="2218" y="-139.8" font-family="Times,serif" font-size="14.00">graphSize &lt;= 22.5</text>
<text text-anchor="middle" x="2218" y="-124.8" font-family="Times,serif" font-size="14.00">gini = 0.728</text>
<text text-anchor="middle" x="2218" y="-109.8" font-family="Times,serif" font-size="14.00">samples = 480</text>
<text text-anchor="middle" x="2218" y="-94.8" font-family="Times,serif" font-size="14.00">value = [78, 58, 222, 43, 28, 20, 31]</text>
<text text-anchor="middle" x="2218" y="-79.8" font-family="Times,serif" font-size="14.00">class = BIL</text>
</g>
<!-- 576&#45;&gt;768 -->
<g id="edge28" class="edge">
<title>576&#45;&gt;768</title>
<path fill="none" stroke="black" d="M2020.78,-190.91C2047.6,-180.52 2076.57,-169.29 2103.84,-158.73"/>
<polygon fill="black" stroke="black" points="2105.35,-161.9 2113.41,-155.02 2102.82,-155.37 2105.35,-161.9"/>
</g>
<!-- 578 -->
<g id="node27" class="node">
<title>578</title>
<polygon fill="#c0c0c0" stroke="black" points="1907,-36 1853,-36 1853,0 1907,0 1907,-36"/>
<text text-anchor="middle" x="1880" y="-14.3" font-family="Times,serif" font-size="14.00">(...)</text>
</g>
<!-- 577&#45;&gt;578 -->
<g id="edge26" class="edge">
<title>577&#45;&gt;578</title>
<path fill="none" stroke="black" d="M1900.31,-71.76C1896.96,-63.04 1893.49,-54.04 1890.39,-45.99"/>
<polygon fill="black" stroke="black" points="1893.56,-44.48 1886.7,-36.41 1887.03,-46.99 1893.56,-44.48"/>
</g>
<!-- 721 -->
<g id="node28" class="node">
<title>721</title>
<polygon fill="#c0c0c0" stroke="black" points="1979,-36 1925,-36 1925,0 1979,0 1979,-36"/>
<text text-anchor="middle" x="1952" y="-14.3" font-family="Times,serif" font-size="14.00">(...)</text>
</g>
<!-- 577&#45;&gt;721 -->
<g id="edge27" class="edge">
<title>577&#45;&gt;721</title>
<path fill="none" stroke="black" d="M1931.69,-71.76C1935.04,-63.04 1938.51,-54.04 1941.61,-45.99"/>
<polygon fill="black" stroke="black" points="1944.97,-46.99 1945.3,-36.41 1938.44,-44.48 1944.97,-46.99"/>
</g>
<!-- 769 -->
<g id="node30" class="node">
<title>769</title>
<polygon fill="#c0c0c0" stroke="black" points="2209,-36 2155,-36 2155,0 2209,0 2209,-36"/>
<text text-anchor="middle" x="2182" y="-14.3" font-family="Times,serif" font-size="14.00">(...)</text>
</g>
<!-- 768&#45;&gt;769 -->
<g id="edge29" class="edge">
<title>768&#45;&gt;769</title>
<path fill="none" stroke="black" d="M2202.31,-71.76C2198.96,-63.04 2195.49,-54.04 2192.39,-45.99"/>
<polygon fill="black" stroke="black" points="2195.56,-44.48 2188.7,-36.41 2189.03,-46.99 2195.56,-44.48"/>
</g>
<!-- 792 -->
<g id="node31" class="node">
<title>792</title>
<polygon fill="#c0c0c0" stroke="black" points="2281,-36 2227,-36 2227,0 2281,0 2281,-36"/>
<text text-anchor="middle" x="2254" y="-14.3" font-family="Times,serif" font-size="14.00">(...)</text>
</g>
<!-- 768&#45;&gt;792 -->
<g id="edge30" class="edge">
<title>768&#45;&gt;792</title>
<path fill="none" stroke="black" d="M2233.69,-71.76C2237.04,-63.04 2240.51,-54.04 2243.61,-45.99"/>
<polygon fill="black" stroke="black" points="2246.97,-46.99 2247.3,-36.41 2240.44,-44.48 2246.97,-46.99"/>
</g>
</g>
</svg>
