<?xml version="1.0" encoding="UTF-8" standalone="no"?>
<!DOCTYPE svg PUBLIC "-//W3C//DTD SVG 1.1//EN"
 "http://www.w3.org/Graphics/SVG/1.1/DTD/svg11.dtd">
<!-- Generated by graphviz version 2.43.0 (0)
 -->
<!-- Title: Tree Pages: 1 -->
<svg width="2120pt" height="520pt"
 viewBox="0.00 0.00 2120.00 520.00" xmlns="http://www.w3.org/2000/svg" xmlns:xlink="http://www.w3.org/1999/xlink">
<g id="graph0" class="graph" transform="scale(1 1) rotate(0) translate(4 516)">
<title>Tree</title>
<polygon fill="white" stroke="transparent" points="-4,4 -4,-516 2116,-516 2116,4 -4,4"/>
<!-- 0 -->
<g id="node1" class="node">
<title>0</title>
<polygon fill="#f7dac4" stroke="black" points="1216.5,-512 914.5,-512 914.5,-429 1216.5,-429 1216.5,-512"/>
<text text-anchor="middle" x="1065.5" y="-496.8" font-family="Times,serif" font-size="14.00">sdComp &lt;= 0.65</text>
<text text-anchor="middle" x="1065.5" y="-481.8" font-family="Times,serif" font-size="14.00">gini = 0.763</text>
<text text-anchor="middle" x="1065.5" y="-466.8" font-family="Times,serif" font-size="14.00">samples = 4320</text>
<text text-anchor="middle" x="1065.5" y="-451.8" font-family="Times,serif" font-size="14.00">value = [1750, 667, 488, 494, 450, 471]</text>
<text text-anchor="middle" x="1065.5" y="-436.8" font-family="Times,serif" font-size="14.00">class = mean</text>
</g>
<!-- 1 -->
<g id="node2" class="node">
<title>1</title>
<polygon fill="#f9e4d5" stroke="black" points="961,-393 668,-393 668,-310 961,-310 961,-393"/>
<text text-anchor="middle" x="814.5" y="-377.8" font-family="Times,serif" font-size="14.00">CCR &lt;= 0.55</text>
<text text-anchor="middle" x="814.5" y="-362.8" font-family="Times,serif" font-size="14.00">gini = 0.787</text>
<text text-anchor="middle" x="814.5" y="-347.8" font-family="Times,serif" font-size="14.00">samples = 2400</text>
<text text-anchor="middle" x="814.5" y="-332.8" font-family="Times,serif" font-size="14.00">value = [855, 438, 273, 291, 267, 276]</text>
<text text-anchor="middle" x="814.5" y="-317.8" font-family="Times,serif" font-size="14.00">class = mean</text>
</g>
<!-- 0&#45;&gt;1 -->
<g id="edge1" class="edge">
<title>0&#45;&gt;1</title>
<path fill="none" stroke="black" d="M978.42,-428.91C956.51,-418.7 932.88,-407.68 910.57,-397.28"/>
<polygon fill="black" stroke="black" points="911.97,-394.07 901.43,-393.02 909.01,-400.42 911.97,-394.07"/>
<text text-anchor="middle" x="909.98" y="-412.81" font-family="Times,serif" font-size="14.00">True</text>
</g>
<!-- 480 -->
<g id="node17" class="node">
<title>480</title>
<polygon fill="#f5cdb1" stroke="black" points="1505,-393 1212,-393 1212,-310 1505,-310 1505,-393"/>
<text text-anchor="middle" x="1358.5" y="-377.8" font-family="Times,serif" font-size="14.00">graphDepth &lt;= 25.5</text>
<text text-anchor="middle" x="1358.5" y="-362.8" font-family="Times,serif" font-size="14.00">gini = 0.725</text>
<text text-anchor="middle" x="1358.5" y="-347.8" font-family="Times,serif" font-size="14.00">samples = 1920</text>
<text text-anchor="middle" x="1358.5" y="-332.8" font-family="Times,serif" font-size="14.00">value = [895, 229, 215, 203, 183, 195]</text>
<text text-anchor="middle" x="1358.5" y="-317.8" font-family="Times,serif" font-size="14.00">class = mean</text>
</g>
<!-- 0&#45;&gt;480 -->
<g id="edge16" class="edge">
<title>0&#45;&gt;480</title>
<path fill="none" stroke="black" d="M1167.15,-428.91C1193.06,-418.56 1221.04,-407.39 1247.4,-396.87"/>
<polygon fill="black" stroke="black" points="1249.04,-399.98 1257.02,-393.02 1246.44,-393.48 1249.04,-399.98"/>
<text text-anchor="middle" x="1247.16" y="-412.29" font-family="Times,serif" font-size="14.00">False</text>
</g>
<!-- 2 -->
<g id="node3" class="node">
<title>2</title>
<polygon fill="#f7dac6" stroke="black" points="555,-274 262,-274 262,-191 555,-191 555,-274"/>
<text text-anchor="middle" x="408.5" y="-258.8" font-family="Times,serif" font-size="14.00">graphDepth &lt;= 6.5</text>
<text text-anchor="middle" x="408.5" y="-243.8" font-family="Times,serif" font-size="14.00">gini = 0.759</text>
<text text-anchor="middle" x="408.5" y="-228.8" font-family="Times,serif" font-size="14.00">samples = 1440</text>
<text text-anchor="middle" x="408.5" y="-213.8" font-family="Times,serif" font-size="14.00">value = [590, 243, 144, 164, 143, 156]</text>
<text text-anchor="middle" x="408.5" y="-198.8" font-family="Times,serif" font-size="14.00">class = mean</text>
</g>
<!-- 1&#45;&gt;2 -->
<g id="edge2" class="edge">
<title>1&#45;&gt;2</title>
<path fill="none" stroke="black" d="M673.92,-309.99C636.91,-299.32 596.82,-287.77 559.29,-276.96"/>
<polygon fill="black" stroke="black" points="559.88,-273.48 549.3,-274.07 557.94,-280.21 559.88,-273.48"/>
</g>
<!-- 289 -->
<g id="node10" class="node">
<title>289</title>
<polygon fill="#fdf3ed" stroke="black" points="961,-274 668,-274 668,-191 961,-191 961,-274"/>
<text text-anchor="middle" x="814.5" y="-258.8" font-family="Times,serif" font-size="14.00">nbproc &lt;= 4.5</text>
<text text-anchor="middle" x="814.5" y="-243.8" font-family="Times,serif" font-size="14.00">gini = 0.815</text>
<text text-anchor="middle" x="814.5" y="-228.8" font-family="Times,serif" font-size="14.00">samples = 960</text>
<text text-anchor="middle" x="814.5" y="-213.8" font-family="Times,serif" font-size="14.00">value = [265, 195, 129, 127, 124, 120]</text>
<text text-anchor="middle" x="814.5" y="-198.8" font-family="Times,serif" font-size="14.00">class = mean</text>
</g>
<!-- 1&#45;&gt;289 -->
<g id="edge9" class="edge">
<title>1&#45;&gt;289</title>
<path fill="none" stroke="black" d="M814.5,-309.91C814.5,-301.65 814.5,-292.86 814.5,-284.3"/>
<polygon fill="black" stroke="black" points="818,-284.02 814.5,-274.02 811,-284.02 818,-284.02"/>
</g>
<!-- 3 -->
<g id="node4" class="node">
<title>3</title>
<polygon fill="#fcefe5" stroke="black" points="257,-155 0,-155 0,-72 257,-72 257,-155"/>
<text text-anchor="middle" x="128.5" y="-139.8" font-family="Times,serif" font-size="14.00">sdComp &lt;= 0.02</text>
<text text-anchor="middle" x="128.5" y="-124.8" font-family="Times,serif" font-size="14.00">gini = 0.8</text>
<text text-anchor="middle" x="128.5" y="-109.8" font-family="Times,serif" font-size="14.00">samples = 540</text>
<text text-anchor="middle" x="128.5" y="-94.8" font-family="Times,serif" font-size="14.00">value = [169, 114, 59, 63, 56, 79]</text>
<text text-anchor="middle" x="128.5" y="-79.8" font-family="Times,serif" font-size="14.00">class = mean</text>
</g>
<!-- 2&#45;&gt;3 -->
<g id="edge3" class="edge">
<title>2&#45;&gt;3</title>
<path fill="none" stroke="black" d="M311.36,-190.91C286.71,-180.61 260.09,-169.49 235.01,-159"/>
<polygon fill="black" stroke="black" points="236.05,-155.65 225.47,-155.02 233.35,-162.11 236.05,-155.65"/>
</g>
<!-- 110 -->
<g id="node7" class="node">
<title>110</title>
<polygon fill="#f5cfb4" stroke="black" points="541.5,-155 275.5,-155 275.5,-72 541.5,-72 541.5,-155"/>
<text text-anchor="middle" x="408.5" y="-139.8" font-family="Times,serif" font-size="14.00">sdComp &lt;= 0.065</text>
<text text-anchor="middle" x="408.5" y="-124.8" font-family="Times,serif" font-size="14.00">gini = 0.722</text>
<text text-anchor="middle" x="408.5" y="-109.8" font-family="Times,serif" font-size="14.00">samples = 900</text>
<text text-anchor="middle" x="408.5" y="-94.8" font-family="Times,serif" font-size="14.00">value = [421, 129, 85, 101, 87, 77]</text>
<text text-anchor="middle" x="408.5" y="-79.8" font-family="Times,serif" font-size="14.00">class = mean</text>
</g>
<!-- 2&#45;&gt;110 -->
<g id="edge6" class="edge">
<title>2&#45;&gt;110</title>
<path fill="none" stroke="black" d="M408.5,-190.91C408.5,-182.65 408.5,-173.86 408.5,-165.3"/>
<polygon fill="black" stroke="black" points="412,-165.02 408.5,-155.02 405,-165.02 412,-165.02"/>
</g>
<!-- 4 -->
<g id="node5" class="node">
<title>4</title>
<polygon fill="#c0c0c0" stroke="black" points="119.5,-36 65.5,-36 65.5,0 119.5,0 119.5,-36"/>
<text text-anchor="middle" x="92.5" y="-14.3" font-family="Times,serif" font-size="14.00">(...)</text>
</g>
<!-- 3&#45;&gt;4 -->
<g id="edge4" class="edge">
<title>3&#45;&gt;4</title>
<path fill="none" stroke="black" d="M112.81,-71.76C109.46,-63.04 105.99,-54.04 102.89,-45.99"/>
<polygon fill="black" stroke="black" points="106.06,-44.48 99.2,-36.41 99.53,-46.99 106.06,-44.48"/>
</g>
<!-- 39 -->
<g id="node6" class="node">
<title>39</title>
<polygon fill="#c0c0c0" stroke="black" points="191.5,-36 137.5,-36 137.5,0 191.5,0 191.5,-36"/>
<text text-anchor="middle" x="164.5" y="-14.3" font-family="Times,serif" font-size="14.00">(...)</text>
</g>
<!-- 3&#45;&gt;39 -->
<g id="edge5" class="edge">
<title>3&#45;&gt;39</title>
<path fill="none" stroke="black" d="M144.19,-71.76C147.54,-63.04 151.01,-54.04 154.11,-45.99"/>
<polygon fill="black" stroke="black" points="157.47,-46.99 157.8,-36.41 150.94,-44.48 157.47,-46.99"/>
</g>
<!-- 111 -->
<g id="node8" class="node">
<title>111</title>
<polygon fill="#c0c0c0" stroke="black" points="399.5,-36 345.5,-36 345.5,0 399.5,0 399.5,-36"/>
<text text-anchor="middle" x="372.5" y="-14.3" font-family="Times,serif" font-size="14.00">(...)</text>
</g>
<!-- 110&#45;&gt;111 -->
<g id="edge7" class="edge">
<title>110&#45;&gt;111</title>
<path fill="none" stroke="black" d="M392.81,-71.76C389.46,-63.04 385.99,-54.04 382.89,-45.99"/>
<polygon fill="black" stroke="black" points="386.06,-44.48 379.2,-36.41 379.53,-46.99 386.06,-44.48"/>
</g>
<!-- 230 -->
<g id="node9" class="node">
<title>230</title>
<polygon fill="#c0c0c0" stroke="black" points="471.5,-36 417.5,-36 417.5,0 471.5,0 471.5,-36"/>
<text text-anchor="middle" x="444.5" y="-14.3" font-family="Times,serif" font-size="14.00">(...)</text>
</g>
<!-- 110&#45;&gt;230 -->
<g id="edge8" class="edge">
<title>110&#45;&gt;230</title>
<path fill="none" stroke="black" d="M424.19,-71.76C427.54,-63.04 431.01,-54.04 434.11,-45.99"/>
<polygon fill="black" stroke="black" points="437.47,-46.99 437.8,-36.41 430.94,-44.48 437.47,-46.99"/>
</g>
<!-- 290 -->
<g id="node11" class="node">
<title>290</title>
<polygon fill="#fdf5f0" stroke="black" points="817,-155 560,-155 560,-72 817,-72 817,-155"/>
<text text-anchor="middle" x="688.5" y="-139.8" font-family="Times,serif" font-size="14.00">sdComm &lt;= 0.65</text>
<text text-anchor="middle" x="688.5" y="-124.8" font-family="Times,serif" font-size="14.00">gini = 0.8</text>
<text text-anchor="middle" x="688.5" y="-109.8" font-family="Times,serif" font-size="14.00">samples = 480</text>
<text text-anchor="middle" x="688.5" y="-94.8" font-family="Times,serif" font-size="14.00">value = [143, 115, 57, 61, 52, 52]</text>
<text text-anchor="middle" x="688.5" y="-79.8" font-family="Times,serif" font-size="14.00">class = mean</text>
</g>
<!-- 289&#45;&gt;290 -->
<g id="edge10" class="edge">
<title>289&#45;&gt;290</title>
<path fill="none" stroke="black" d="M770.78,-190.91C760.72,-181.56 749.93,-171.54 739.58,-161.93"/>
<polygon fill="black" stroke="black" points="741.85,-159.26 732.14,-155.02 737.08,-164.39 741.85,-159.26"/>
</g>
<!-- 385 -->
<g id="node14" class="node">
<title>385</title>
<polygon fill="#fcf2ea" stroke="black" points="1083.5,-155 835.5,-155 835.5,-72 1083.5,-72 1083.5,-155"/>
<text text-anchor="middle" x="959.5" y="-139.8" font-family="Times,serif" font-size="14.00">sdComm &lt;= 0.2</text>
<text text-anchor="middle" x="959.5" y="-124.8" font-family="Times,serif" font-size="14.00">gini = 0.824</text>
<text text-anchor="middle" x="959.5" y="-109.8" font-family="Times,serif" font-size="14.00">samples = 480</text>
<text text-anchor="middle" x="959.5" y="-94.8" font-family="Times,serif" font-size="14.00">value = [122, 80, 72, 66, 72, 68]</text>
<text text-anchor="middle" x="959.5" y="-79.8" font-family="Times,serif" font-size="14.00">class = mean</text>
</g>
<!-- 289&#45;&gt;385 -->
<g id="edge13" class="edge">
<title>289&#45;&gt;385</title>
<path fill="none" stroke="black" d="M864.81,-190.91C876.62,-181.38 889.29,-171.15 901.41,-161.37"/>
<polygon fill="black" stroke="black" points="903.7,-164.02 909.28,-155.02 899.3,-158.58 903.7,-164.02"/>
</g>
<!-- 291 -->
<g id="node12" class="node">
<title>291</title>
<polygon fill="#c0c0c0" stroke="black" points="679.5,-36 625.5,-36 625.5,0 679.5,0 679.5,-36"/>
<text text-anchor="middle" x="652.5" y="-14.3" font-family="Times,serif" font-size="14.00">(...)</text>
</g>
<!-- 290&#45;&gt;291 -->
<g id="edge11" class="edge">
<title>290&#45;&gt;291</title>
<path fill="none" stroke="black" d="M672.81,-71.76C669.46,-63.04 665.99,-54.04 662.89,-45.99"/>
<polygon fill="black" stroke="black" points="666.06,-44.48 659.2,-36.41 659.53,-46.99 666.06,-44.48"/>
</g>
<!-- 354 -->
<g id="node13" class="node">
<title>354</title>
<polygon fill="#c0c0c0" stroke="black" points="751.5,-36 697.5,-36 697.5,0 751.5,0 751.5,-36"/>
<text text-anchor="middle" x="724.5" y="-14.3" font-family="Times,serif" font-size="14.00">(...)</text>
</g>
<!-- 290&#45;&gt;354 -->
<g id="edge12" class="edge">
<title>290&#45;&gt;354</title>
<path fill="none" stroke="black" d="M704.19,-71.76C707.54,-63.04 711.01,-54.04 714.11,-45.99"/>
<polygon fill="black" stroke="black" points="717.47,-46.99 717.8,-36.41 710.94,-44.48 717.47,-46.99"/>
</g>
<!-- 386 -->
<g id="node15" class="node">
<title>386</title>
<polygon fill="#c0c0c0" stroke="black" points="950.5,-36 896.5,-36 896.5,0 950.5,0 950.5,-36"/>
<text text-anchor="middle" x="923.5" y="-14.3" font-family="Times,serif" font-size="14.00">(...)</text>
</g>
<!-- 385&#45;&gt;386 -->
<g id="edge14" class="edge">
<title>385&#45;&gt;386</title>
<path fill="none" stroke="black" d="M943.81,-71.76C940.46,-63.04 936.99,-54.04 933.89,-45.99"/>
<polygon fill="black" stroke="black" points="937.06,-44.48 930.2,-36.41 930.53,-46.99 937.06,-44.48"/>
</g>
<!-- 417 -->
<g id="node16" class="node">
<title>417</title>
<polygon fill="#c0c0c0" stroke="black" points="1022.5,-36 968.5,-36 968.5,0 1022.5,0 1022.5,-36"/>
<text text-anchor="middle" x="995.5" y="-14.3" font-family="Times,serif" font-size="14.00">(...)</text>
</g>
<!-- 385&#45;&gt;417 -->
<g id="edge15" class="edge">
<title>385&#45;&gt;417</title>
<path fill="none" stroke="black" d="M975.19,-71.76C978.54,-63.04 982.01,-54.04 985.11,-45.99"/>
<polygon fill="black" stroke="black" points="988.47,-46.99 988.8,-36.41 981.94,-44.48 988.47,-46.99"/>
</g>
<!-- 481 -->
<g id="node18" class="node">
<title>481</title>
<polygon fill="#f6d1b7" stroke="black" points="1505,-274 1212,-274 1212,-191 1505,-191 1505,-274"/>
<text text-anchor="middle" x="1358.5" y="-258.8" font-family="Times,serif" font-size="14.00">graphDepth &lt;= 3.5</text>
<text text-anchor="middle" x="1358.5" y="-243.8" font-family="Times,serif" font-size="14.00">gini = 0.744</text>
<text text-anchor="middle" x="1358.5" y="-228.8" font-family="Times,serif" font-size="14.00">samples = 1680</text>
<text text-anchor="middle" x="1358.5" y="-213.8" font-family="Times,serif" font-size="14.00">value = [738, 203, 202, 187, 174, 176]</text>
<text text-anchor="middle" x="1358.5" y="-198.8" font-family="Times,serif" font-size="14.00">class = mean</text>
</g>
<!-- 480&#45;&gt;481 -->
<g id="edge17" class="edge">
<title>480&#45;&gt;481</title>
<path fill="none" stroke="black" d="M1358.5,-309.91C1358.5,-301.65 1358.5,-292.86 1358.5,-284.3"/>
<polygon fill="black" stroke="black" points="1362,-284.02 1358.5,-274.02 1355,-284.02 1362,-284.02"/>
</g>
<!-- 816 -->
<g id="node25" class="node">
<title>816</title>
<polygon fill="#efb286" stroke="black" points="1900,-274 1661,-274 1661,-191 1900,-191 1900,-274"/>
<text text-anchor="middle" x="1780.5" y="-258.8" font-family="Times,serif" font-size="14.00">nbproc &lt;= 4.5</text>
<text text-anchor="middle" x="1780.5" y="-243.8" font-family="Times,serif" font-size="14.00">gini = 0.545</text>
<text text-anchor="middle" x="1780.5" y="-228.8" font-family="Times,serif" font-size="14.00">samples = 240</text>
<text text-anchor="middle" x="1780.5" y="-213.8" font-family="Times,serif" font-size="14.00">value = [157, 26, 13, 16, 9, 19]</text>
<text text-anchor="middle" x="1780.5" y="-198.8" font-family="Times,serif" font-size="14.00">class = mean</text>
</g>
<!-- 480&#45;&gt;816 -->
<g id="edge24" class="edge">
<title>480&#45;&gt;816</title>
<path fill="none" stroke="black" d="M1504.62,-309.99C1552.19,-296.8 1604.65,-282.25 1650.93,-269.42"/>
<polygon fill="black" stroke="black" points="1652.01,-272.76 1660.71,-266.71 1650.14,-266.01 1652.01,-272.76"/>
</g>
<!-- 482 -->
<g id="node19" class="node">
<title>482</title>
<polygon fill="#fae7d9" stroke="black" points="1341,-155 1102,-155 1102,-72 1341,-72 1341,-155"/>
<text text-anchor="middle" x="1221.5" y="-139.8" font-family="Times,serif" font-size="14.00">CCR &lt;= 5.5</text>
<text text-anchor="middle" x="1221.5" y="-124.8" font-family="Times,serif" font-size="14.00">gini = 0.797</text>
<text text-anchor="middle" x="1221.5" y="-109.8" font-family="Times,serif" font-size="14.00">samples = 240</text>
<text text-anchor="middle" x="1221.5" y="-94.8" font-family="Times,serif" font-size="14.00">value = [80, 42, 33, 26, 34, 25]</text>
<text text-anchor="middle" x="1221.5" y="-79.8" font-family="Times,serif" font-size="14.00">class = mean</text>
</g>
<!-- 481&#45;&gt;482 -->
<g id="edge18" class="edge">
<title>481&#45;&gt;482</title>
<path fill="none" stroke="black" d="M1310.97,-190.91C1299.92,-181.47 1288.06,-171.34 1276.71,-161.65"/>
<polygon fill="black" stroke="black" points="1278.82,-158.85 1268.95,-155.02 1274.28,-164.18 1278.82,-158.85"/>
</g>
<!-- 529 -->
<g id="node22" class="node">
<title>529</title>
<polygon fill="#f5cfb3" stroke="black" points="1652,-155 1359,-155 1359,-72 1652,-72 1652,-155"/>
<text text-anchor="middle" x="1505.5" y="-139.8" font-family="Times,serif" font-size="14.00">nbproc &lt;= 4.5</text>
<text text-anchor="middle" x="1505.5" y="-124.8" font-family="Times,serif" font-size="14.00">gini = 0.732</text>
<text text-anchor="middle" x="1505.5" y="-109.8" font-family="Times,serif" font-size="14.00">samples = 1440</text>
<text text-anchor="middle" x="1505.5" y="-94.8" font-family="Times,serif" font-size="14.00">value = [658, 161, 169, 161, 140, 151]</text>
<text text-anchor="middle" x="1505.5" y="-79.8" font-family="Times,serif" font-size="14.00">class = mean</text>
</g>
<!-- 481&#45;&gt;529 -->
<g id="edge21" class="edge">
<title>481&#45;&gt;529</title>
<path fill="none" stroke="black" d="M1409.5,-190.91C1421.47,-181.38 1434.33,-171.15 1446.61,-161.37"/>
<polygon fill="black" stroke="black" points="1448.94,-163.99 1454.59,-155.02 1444.59,-158.51 1448.94,-163.99"/>
</g>
<!-- 483 -->
<g id="node20" class="node">
<title>483</title>
<polygon fill="#c0c0c0" stroke="black" points="1212.5,-36 1158.5,-36 1158.5,0 1212.5,0 1212.5,-36"/>
<text text-anchor="middle" x="1185.5" y="-14.3" font-family="Times,serif" font-size="14.00">(...)</text>
</g>
<!-- 482&#45;&gt;483 -->
<g id="edge19" class="edge">
<title>482&#45;&gt;483</title>
<path fill="none" stroke="black" d="M1205.81,-71.76C1202.46,-63.04 1198.99,-54.04 1195.89,-45.99"/>
<polygon fill="black" stroke="black" points="1199.06,-44.48 1192.2,-36.41 1192.53,-46.99 1199.06,-44.48"/>
</g>
<!-- 494 -->
<g id="node21" class="node">
<title>494</title>
<polygon fill="#c0c0c0" stroke="black" points="1284.5,-36 1230.5,-36 1230.5,0 1284.5,0 1284.5,-36"/>
<text text-anchor="middle" x="1257.5" y="-14.3" font-family="Times,serif" font-size="14.00">(...)</text>
</g>
<!-- 482&#45;&gt;494 -->
<g id="edge20" class="edge">
<title>482&#45;&gt;494</title>
<path fill="none" stroke="black" d="M1237.19,-71.76C1240.54,-63.04 1244.01,-54.04 1247.11,-45.99"/>
<polygon fill="black" stroke="black" points="1250.47,-46.99 1250.8,-36.41 1243.94,-44.48 1250.47,-46.99"/>
</g>
<!-- 530 -->
<g id="node23" class="node">
<title>530</title>
<polygon fill="#c0c0c0" stroke="black" points="1496.5,-36 1442.5,-36 1442.5,0 1496.5,0 1496.5,-36"/>
<text text-anchor="middle" x="1469.5" y="-14.3" font-family="Times,serif" font-size="14.00">(...)</text>
</g>
<!-- 529&#45;&gt;530 -->
<g id="edge22" class="edge">
<title>529&#45;&gt;530</title>
<path fill="none" stroke="black" d="M1489.81,-71.76C1486.46,-63.04 1482.99,-54.04 1479.89,-45.99"/>
<polygon fill="black" stroke="black" points="1483.06,-44.48 1476.2,-36.41 1476.53,-46.99 1483.06,-44.48"/>
</g>
<!-- 673 -->
<g id="node24" class="node">
<title>673</title>
<polygon fill="#c0c0c0" stroke="black" points="1568.5,-36 1514.5,-36 1514.5,0 1568.5,0 1568.5,-36"/>
<text text-anchor="middle" x="1541.5" y="-14.3" font-family="Times,serif" font-size="14.00">(...)</text>
</g>
<!-- 529&#45;&gt;673 -->
<g id="edge23" class="edge">
<title>529&#45;&gt;673</title>
<path fill="none" stroke="black" d="M1521.19,-71.76C1524.54,-63.04 1528.01,-54.04 1531.11,-45.99"/>
<polygon fill="black" stroke="black" points="1534.47,-46.99 1534.8,-36.41 1527.94,-44.48 1534.47,-46.99"/>
</g>
<!-- 817 -->
<g id="node26" class="node">
<title>817</title>
<polygon fill="#f1bb94" stroke="black" points="1891,-155 1670,-155 1670,-72 1891,-72 1891,-155"/>
<text text-anchor="middle" x="1780.5" y="-139.8" font-family="Times,serif" font-size="14.00">sdComm &lt;= 0.65</text>
<text text-anchor="middle" x="1780.5" y="-124.8" font-family="Times,serif" font-size="14.00">gini = 0.613</text>
<text text-anchor="middle" x="1780.5" y="-109.8" font-family="Times,serif" font-size="14.00">samples = 120</text>
<text text-anchor="middle" x="1780.5" y="-94.8" font-family="Times,serif" font-size="14.00">value = [71, 13, 7, 11, 5, 13]</text>
<text text-anchor="middle" x="1780.5" y="-79.8" font-family="Times,serif" font-size="14.00">class = mean</text>
</g>
<!-- 816&#45;&gt;817 -->
<g id="edge25" class="edge">
<title>816&#45;&gt;817</title>
<path fill="none" stroke="black" d="M1780.5,-190.91C1780.5,-182.65 1780.5,-173.86 1780.5,-165.3"/>
<polygon fill="black" stroke="black" points="1784,-165.02 1780.5,-155.02 1777,-165.02 1784,-165.02"/>
</g>
<!-- 840 -->
<g id="node29" class="node">
<title>840</title>
<polygon fill="#eda978" stroke="black" points="2112,-155 1909,-155 1909,-72 2112,-72 2112,-155"/>
<text text-anchor="middle" x="2010.5" y="-139.8" font-family="Times,serif" font-size="14.00">sdComp &lt;= 6.5</text>
<text text-anchor="middle" x="2010.5" y="-124.8" font-family="Times,serif" font-size="14.00">gini = 0.467</text>
<text text-anchor="middle" x="2010.5" y="-109.8" font-family="Times,serif" font-size="14.00">samples = 120</text>
<text text-anchor="middle" x="2010.5" y="-94.8" font-family="Times,serif" font-size="14.00">value = [86, 13, 6, 5, 4, 6]</text>
<text text-anchor="middle" x="2010.5" y="-79.8" font-family="Times,serif" font-size="14.00">class = mean</text>
</g>
<!-- 816&#45;&gt;840 -->
<g id="edge28" class="edge">
<title>816&#45;&gt;840</title>
<path fill="none" stroke="black" d="M1860.3,-190.91C1880.19,-180.79 1901.64,-169.88 1921.92,-159.56"/>
<polygon fill="black" stroke="black" points="1923.52,-162.67 1930.84,-155.02 1920.34,-156.44 1923.52,-162.67"/>
</g>
<!-- 818 -->
<g id="node27" class="node">
<title>818</title>
<polygon fill="#c0c0c0" stroke="black" points="1771.5,-36 1717.5,-36 1717.5,0 1771.5,0 1771.5,-36"/>
<text text-anchor="middle" x="1744.5" y="-14.3" font-family="Times,serif" font-size="14.00">(...)</text>
</g>
<!-- 817&#45;&gt;818 -->
<g id="edge26" class="edge">
<title>817&#45;&gt;818</title>
<path fill="none" stroke="black" d="M1764.81,-71.76C1761.46,-63.04 1757.99,-54.04 1754.89,-45.99"/>
<polygon fill="black" stroke="black" points="1758.06,-44.48 1751.2,-36.41 1751.53,-46.99 1758.06,-44.48"/>
</g>
<!-- 821 -->
<g id="node28" class="node">
<title>821</title>
<polygon fill="#c0c0c0" stroke="black" points="1843.5,-36 1789.5,-36 1789.5,0 1843.5,0 1843.5,-36"/>
<text text-anchor="middle" x="1816.5" y="-14.3" font-family="Times,serif" font-size="14.00">(...)</text>
</g>
<!-- 817&#45;&gt;821 -->
<g id="edge27" class="edge">
<title>817&#45;&gt;821</title>
<path fill="none" stroke="black" d="M1796.19,-71.76C1799.54,-63.04 1803.01,-54.04 1806.11,-45.99"/>
<polygon fill="black" stroke="black" points="1809.47,-46.99 1809.8,-36.41 1802.94,-44.48 1809.47,-46.99"/>
</g>
<!-- 841 -->
<g id="node30" class="node">
<title>841</title>
<polygon fill="#c0c0c0" stroke="black" points="2001.5,-36 1947.5,-36 1947.5,0 2001.5,0 2001.5,-36"/>
<text text-anchor="middle" x="1974.5" y="-14.3" font-family="Times,serif" font-size="14.00">(...)</text>
</g>
<!-- 840&#45;&gt;841 -->
<g id="edge29" class="edge">
<title>840&#45;&gt;841</title>
<path fill="none" stroke="black" d="M1994.81,-71.76C1991.46,-63.04 1987.99,-54.04 1984.89,-45.99"/>
<polygon fill="black" stroke="black" points="1988.06,-44.48 1981.2,-36.41 1981.53,-46.99 1988.06,-44.48"/>
</g>
<!-- 858 -->
<g id="node31" class="node">
<title>858</title>
<polygon fill="#c0c0c0" stroke="black" points="2073.5,-36 2019.5,-36 2019.5,0 2073.5,0 2073.5,-36"/>
<text text-anchor="middle" x="2046.5" y="-14.3" font-family="Times,serif" font-size="14.00">(...)</text>
</g>
<!-- 840&#45;&gt;858 -->
<g id="edge30" class="edge">
<title>840&#45;&gt;858</title>
<path fill="none" stroke="black" d="M2026.19,-71.76C2029.54,-63.04 2033.01,-54.04 2036.11,-45.99"/>
<polygon fill="black" stroke="black" points="2039.47,-46.99 2039.8,-36.41 2032.94,-44.48 2039.47,-46.99"/>
</g>
</g>
</svg>
