<?xml version="1.0" encoding="UTF-8" standalone="no"?>
<!DOCTYPE svg PUBLIC "-//W3C//DTD SVG 1.1//EN"
 "http://www.w3.org/Graphics/SVG/1.1/DTD/svg11.dtd">
<!-- Generated by graphviz version 2.43.0 (0)
 -->
<!-- Title: Tree Pages: 1 -->
<svg width="2739pt" height="520pt"
 viewBox="0.00 0.00 2738.50 520.00" xmlns="http://www.w3.org/2000/svg" xmlns:xlink="http://www.w3.org/1999/xlink">
<g id="graph0" class="graph" transform="scale(1 1) rotate(0) translate(4 516)">
<title>Tree</title>
<polygon fill="white" stroke="transparent" points="-4,4 -4,-516 2734.5,-516 2734.5,4 -4,4"/>
<!-- 0 -->
<g id="node1" class="node">
<title>0</title>
<polygon fill="#fcebf5" stroke="black" points="1514,-512 1122,-512 1122,-429 1514,-429 1514,-512"/>
<text text-anchor="middle" x="1318" y="-496.8" font-family="Times,serif" font-size="14.00">CCR &lt;= 5.5</text>
<text text-anchor="middle" x="1318" y="-481.8" font-family="Times,serif" font-size="14.00">gini = 0.79</text>
<text text-anchor="middle" x="1318" y="-466.8" font-family="Times,serif" font-size="14.00">samples = 162489</text>
<text text-anchor="middle" x="1318" y="-451.8" font-family="Times,serif" font-size="14.00">value = [33378, 11670, 25680, 8416, 35106, 48239]</text>
<text text-anchor="middle" x="1318" y="-436.8" font-family="Times,serif" font-size="14.00">class = GDL</text>
</g>
<!-- 1 -->
<g id="node2" class="node">
<title>1</title>
<polygon fill="#f9d1e8" stroke="black" points="1180.5,-393 815.5,-393 815.5,-310 1180.5,-310 1180.5,-393"/>
<text text-anchor="middle" x="998" y="-377.8" font-family="Times,serif" font-size="14.00">CCR &lt;= 0.55</text>
<text text-anchor="middle" x="998" y="-362.8" font-family="Times,serif" font-size="14.00">gini = 0.693</text>
<text text-anchor="middle" x="998" y="-347.8" font-family="Times,serif" font-size="14.00">samples = 100129</text>
<text text-anchor="middle" x="998" y="-332.8" font-family="Times,serif" font-size="14.00">value = [23926, 4252, 632, 2990, 25544, 42785]</text>
<text text-anchor="middle" x="998" y="-317.8" font-family="Times,serif" font-size="14.00">class = GDL</text>
</g>
<!-- 0&#45;&gt;1 -->
<g id="edge1" class="edge">
<title>0&#45;&gt;1</title>
<path fill="none" stroke="black" d="M1206.98,-428.91C1178.43,-418.47 1147.59,-407.19 1118.59,-396.59"/>
<polygon fill="black" stroke="black" points="1119.42,-393.17 1108.83,-393.02 1117.02,-399.74 1119.42,-393.17"/>
<text text-anchor="middle" x="1119.36" y="-411.99" font-family="Times,serif" font-size="14.00">True</text>
</g>
<!-- 570 -->
<g id="node17" class="node">
<title>570</title>
<polygon fill="#c5f7da" stroke="black" points="1852,-393 1496,-393 1496,-310 1852,-310 1852,-393"/>
<text text-anchor="middle" x="1674" y="-377.8" font-family="Times,serif" font-size="14.00">sdComp &lt;= 2.0</text>
<text text-anchor="middle" x="1674" y="-362.8" font-family="Times,serif" font-size="14.00">gini = 0.763</text>
<text text-anchor="middle" x="1674" y="-347.8" font-family="Times,serif" font-size="14.00">samples = 62360</text>
<text text-anchor="middle" x="1674" y="-332.8" font-family="Times,serif" font-size="14.00">value = [9452, 7418, 25048, 5426, 9562, 5454]</text>
<text text-anchor="middle" x="1674" y="-317.8" font-family="Times,serif" font-size="14.00">class = OLB</text>
</g>
<!-- 0&#45;&gt;570 -->
<g id="edge16" class="edge">
<title>0&#45;&gt;570</title>
<path fill="none" stroke="black" d="M1441.51,-428.91C1473.68,-418.33 1508.48,-406.9 1541.11,-396.17"/>
<polygon fill="black" stroke="black" points="1542.3,-399.47 1550.71,-393.02 1540.11,-392.82 1542.3,-399.47"/>
<text text-anchor="middle" x="1539.43" y="-411.63" font-family="Times,serif" font-size="14.00">False</text>
</g>
<!-- 2 -->
<g id="node3" class="node">
<title>2</title>
<polygon fill="#fbdeef" stroke="black" points="680.5,-274 315.5,-274 315.5,-191 680.5,-191 680.5,-274"/>
<text text-anchor="middle" x="498" y="-258.8" font-family="Times,serif" font-size="14.00">sdComp &lt;= 0.02</text>
<text text-anchor="middle" x="498" y="-243.8" font-family="Times,serif" font-size="14.00">gini = 0.701</text>
<text text-anchor="middle" x="498" y="-228.8" font-family="Times,serif" font-size="14.00">samples = 64255</text>
<text text-anchor="middle" x="498" y="-213.8" font-family="Times,serif" font-size="14.00">value = [17578, 2219, 196, 2446, 16488, 25328]</text>
<text text-anchor="middle" x="498" y="-198.8" font-family="Times,serif" font-size="14.00">class = GDL</text>
</g>
<!-- 1&#45;&gt;2 -->
<g id="edge2" class="edge">
<title>1&#45;&gt;2</title>
<path fill="none" stroke="black" d="M824.88,-309.99C778.51,-299.14 728.24,-287.38 681.35,-276.4"/>
<polygon fill="black" stroke="black" points="681.93,-272.95 671.4,-274.07 680.34,-279.76 681.93,-272.95"/>
</g>
<!-- 285 -->
<g id="node10" class="node">
<title>285</title>
<polygon fill="#f7c1e0" stroke="black" points="1167,-274 829,-274 829,-191 1167,-191 1167,-274"/>
<text text-anchor="middle" x="998" y="-258.8" font-family="Times,serif" font-size="14.00">graphSize &lt;= 22.5</text>
<text text-anchor="middle" x="998" y="-243.8" font-family="Times,serif" font-size="14.00">gini = 0.665</text>
<text text-anchor="middle" x="998" y="-228.8" font-family="Times,serif" font-size="14.00">samples = 35874</text>
<text text-anchor="middle" x="998" y="-213.8" font-family="Times,serif" font-size="14.00">value = [6348, 2033, 436, 544, 9056, 17457]</text>
<text text-anchor="middle" x="998" y="-198.8" font-family="Times,serif" font-size="14.00">class = GDL</text>
</g>
<!-- 1&#45;&gt;285 -->
<g id="edge9" class="edge">
<title>1&#45;&gt;285</title>
<path fill="none" stroke="black" d="M998,-309.91C998,-301.65 998,-292.86 998,-284.3"/>
<polygon fill="black" stroke="black" points="1001.5,-284.02 998,-274.02 994.5,-284.02 1001.5,-284.02"/>
</g>
<!-- 3 -->
<g id="node4" class="node">
<title>3</title>
<polygon fill="#f7c1e0" stroke="black" points="302,-155 0,-155 0,-72 302,-72 302,-155"/>
<text text-anchor="middle" x="151" y="-139.8" font-family="Times,serif" font-size="14.00">graphSize &lt;= 75.0</text>
<text text-anchor="middle" x="151" y="-124.8" font-family="Times,serif" font-size="14.00">gini = 0.659</text>
<text text-anchor="middle" x="151" y="-109.8" font-family="Times,serif" font-size="14.00">samples = 10614</text>
<text text-anchor="middle" x="151" y="-94.8" font-family="Times,serif" font-size="14.00">value = [2054, 556, 156, 0, 2684, 5164]</text>
<text text-anchor="middle" x="151" y="-79.8" font-family="Times,serif" font-size="14.00">class = GDL</text>
</g>
<!-- 2&#45;&gt;3 -->
<g id="edge3" class="edge">
<title>2&#45;&gt;3</title>
<path fill="none" stroke="black" d="M377.61,-190.91C346.39,-180.38 312.63,-169 280.94,-158.31"/>
<polygon fill="black" stroke="black" points="281.77,-154.9 271.18,-155.02 279.53,-161.53 281.77,-154.9"/>
</g>
<!-- 94 -->
<g id="node7" class="node">
<title>94</title>
<polygon fill="#fce7f3" stroke="black" points="676,-155 320,-155 320,-72 676,-72 676,-155"/>
<text text-anchor="middle" x="498" y="-139.8" font-family="Times,serif" font-size="14.00">graphSize &lt;= 22.5</text>
<text text-anchor="middle" x="498" y="-124.8" font-family="Times,serif" font-size="14.00">gini = 0.706</text>
<text text-anchor="middle" x="498" y="-109.8" font-family="Times,serif" font-size="14.00">samples = 53641</text>
<text text-anchor="middle" x="498" y="-94.8" font-family="Times,serif" font-size="14.00">value = [15524, 1663, 40, 2446, 13804, 20164]</text>
<text text-anchor="middle" x="498" y="-79.8" font-family="Times,serif" font-size="14.00">class = GDL</text>
</g>
<!-- 2&#45;&gt;94 -->
<g id="edge6" class="edge">
<title>2&#45;&gt;94</title>
<path fill="none" stroke="black" d="M498,-190.91C498,-182.65 498,-173.86 498,-165.3"/>
<polygon fill="black" stroke="black" points="501.5,-165.02 498,-155.02 494.5,-165.02 501.5,-165.02"/>
</g>
<!-- 4 -->
<g id="node5" class="node">
<title>4</title>
<polygon fill="#c0c0c0" stroke="black" points="142,-36 88,-36 88,0 142,0 142,-36"/>
<text text-anchor="middle" x="115" y="-14.3" font-family="Times,serif" font-size="14.00">(...)</text>
</g>
<!-- 3&#45;&gt;4 -->
<g id="edge4" class="edge">
<title>3&#45;&gt;4</title>
<path fill="none" stroke="black" d="M135.31,-71.76C131.96,-63.04 128.49,-54.04 125.39,-45.99"/>
<polygon fill="black" stroke="black" points="128.56,-44.48 121.7,-36.41 122.03,-46.99 128.56,-44.48"/>
</g>
<!-- 75 -->
<g id="node6" class="node">
<title>75</title>
<polygon fill="#c0c0c0" stroke="black" points="214,-36 160,-36 160,0 214,0 214,-36"/>
<text text-anchor="middle" x="187" y="-14.3" font-family="Times,serif" font-size="14.00">(...)</text>
</g>
<!-- 3&#45;&gt;75 -->
<g id="edge5" class="edge">
<title>3&#45;&gt;75</title>
<path fill="none" stroke="black" d="M166.69,-71.76C170.04,-63.04 173.51,-54.04 176.61,-45.99"/>
<polygon fill="black" stroke="black" points="179.97,-46.99 180.3,-36.41 173.44,-44.48 179.97,-46.99"/>
</g>
<!-- 95 -->
<g id="node8" class="node">
<title>95</title>
<polygon fill="#c0c0c0" stroke="black" points="489,-36 435,-36 435,0 489,0 489,-36"/>
<text text-anchor="middle" x="462" y="-14.3" font-family="Times,serif" font-size="14.00">(...)</text>
</g>
<!-- 94&#45;&gt;95 -->
<g id="edge7" class="edge">
<title>94&#45;&gt;95</title>
<path fill="none" stroke="black" d="M482.31,-71.76C478.96,-63.04 475.49,-54.04 472.39,-45.99"/>
<polygon fill="black" stroke="black" points="475.56,-44.48 468.7,-36.41 469.03,-46.99 475.56,-44.48"/>
</g>
<!-- 142 -->
<g id="node9" class="node">
<title>142</title>
<polygon fill="#c0c0c0" stroke="black" points="561,-36 507,-36 507,0 561,0 561,-36"/>
<text text-anchor="middle" x="534" y="-14.3" font-family="Times,serif" font-size="14.00">(...)</text>
</g>
<!-- 94&#45;&gt;142 -->
<g id="edge8" class="edge">
<title>94&#45;&gt;142</title>
<path fill="none" stroke="black" d="M513.69,-71.76C517.04,-63.04 520.51,-54.04 523.61,-45.99"/>
<polygon fill="black" stroke="black" points="526.97,-46.99 527.3,-36.41 520.44,-44.48 526.97,-46.99"/>
</g>
<!-- 286 -->
<g id="node11" class="node">
<title>286</title>
<polygon fill="#fad8ec" stroke="black" points="1022.5,-155 693.5,-155 693.5,-72 1022.5,-72 1022.5,-155"/>
<text text-anchor="middle" x="858" y="-139.8" font-family="Times,serif" font-size="14.00">nbproc &lt;= 4.5</text>
<text text-anchor="middle" x="858" y="-124.8" font-family="Times,serif" font-size="14.00">gini = 0.701</text>
<text text-anchor="middle" x="858" y="-109.8" font-family="Times,serif" font-size="14.00">samples = 21739</text>
<text text-anchor="middle" x="858" y="-94.8" font-family="Times,serif" font-size="14.00">value = [3921, 1497, 388, 544, 6167, 9222]</text>
<text text-anchor="middle" x="858" y="-79.8" font-family="Times,serif" font-size="14.00">class = GDL</text>
</g>
<!-- 285&#45;&gt;286 -->
<g id="edge10" class="edge">
<title>285&#45;&gt;286</title>
<path fill="none" stroke="black" d="M949.43,-190.91C938.13,-181.47 926.02,-171.34 914.42,-161.65"/>
<polygon fill="black" stroke="black" points="916.4,-158.75 906.49,-155.02 911.92,-164.12 916.4,-158.75"/>
</g>
<!-- 357 -->
<g id="node14" class="node">
<title>357</title>
<polygon fill="#f3a1d0" stroke="black" points="1333.5,-155 1040.5,-155 1040.5,-72 1333.5,-72 1333.5,-155"/>
<text text-anchor="middle" x="1187" y="-139.8" font-family="Times,serif" font-size="14.00">sdComp &lt;= 0.65</text>
<text text-anchor="middle" x="1187" y="-124.8" font-family="Times,serif" font-size="14.00">gini = 0.588</text>
<text text-anchor="middle" x="1187" y="-109.8" font-family="Times,serif" font-size="14.00">samples = 14135</text>
<text text-anchor="middle" x="1187" y="-94.8" font-family="Times,serif" font-size="14.00">value = [2427, 536, 48, 0, 2889, 8235]</text>
<text text-anchor="middle" x="1187" y="-79.8" font-family="Times,serif" font-size="14.00">class = GDL</text>
</g>
<!-- 285&#45;&gt;357 -->
<g id="edge13" class="edge">
<title>285&#45;&gt;357</title>
<path fill="none" stroke="black" d="M1063.57,-190.91C1079.41,-181.11 1096.44,-170.56 1112.64,-160.53"/>
<polygon fill="black" stroke="black" points="1114.88,-163.26 1121.54,-155.02 1111.2,-157.31 1114.88,-163.26"/>
</g>
<!-- 287 -->
<g id="node12" class="node">
<title>287</title>
<polygon fill="#c0c0c0" stroke="black" points="849,-36 795,-36 795,0 849,0 849,-36"/>
<text text-anchor="middle" x="822" y="-14.3" font-family="Times,serif" font-size="14.00">(...)</text>
</g>
<!-- 286&#45;&gt;287 -->
<g id="edge11" class="edge">
<title>286&#45;&gt;287</title>
<path fill="none" stroke="black" d="M842.31,-71.76C838.96,-63.04 835.49,-54.04 832.39,-45.99"/>
<polygon fill="black" stroke="black" points="835.56,-44.48 828.7,-36.41 829.03,-46.99 835.56,-44.48"/>
</g>
<!-- 322 -->
<g id="node13" class="node">
<title>322</title>
<polygon fill="#c0c0c0" stroke="black" points="921,-36 867,-36 867,0 921,0 921,-36"/>
<text text-anchor="middle" x="894" y="-14.3" font-family="Times,serif" font-size="14.00">(...)</text>
</g>
<!-- 286&#45;&gt;322 -->
<g id="edge12" class="edge">
<title>286&#45;&gt;322</title>
<path fill="none" stroke="black" d="M873.69,-71.76C877.04,-63.04 880.51,-54.04 883.61,-45.99"/>
<polygon fill="black" stroke="black" points="886.97,-46.99 887.3,-36.41 880.44,-44.48 886.97,-46.99"/>
</g>
<!-- 358 -->
<g id="node15" class="node">
<title>358</title>
<polygon fill="#c0c0c0" stroke="black" points="1178,-36 1124,-36 1124,0 1178,0 1178,-36"/>
<text text-anchor="middle" x="1151" y="-14.3" font-family="Times,serif" font-size="14.00">(...)</text>
</g>
<!-- 357&#45;&gt;358 -->
<g id="edge14" class="edge">
<title>357&#45;&gt;358</title>
<path fill="none" stroke="black" d="M1171.31,-71.76C1167.96,-63.04 1164.49,-54.04 1161.39,-45.99"/>
<polygon fill="black" stroke="black" points="1164.56,-44.48 1157.7,-36.41 1158.03,-46.99 1164.56,-44.48"/>
</g>
<!-- 499 -->
<g id="node16" class="node">
<title>499</title>
<polygon fill="#c0c0c0" stroke="black" points="1250,-36 1196,-36 1196,0 1250,0 1250,-36"/>
<text text-anchor="middle" x="1223" y="-14.3" font-family="Times,serif" font-size="14.00">(...)</text>
</g>
<!-- 357&#45;&gt;499 -->
<g id="edge15" class="edge">
<title>357&#45;&gt;499</title>
<path fill="none" stroke="black" d="M1202.69,-71.76C1206.04,-63.04 1209.51,-54.04 1212.61,-45.99"/>
<polygon fill="black" stroke="black" points="1215.97,-46.99 1216.3,-36.41 1209.44,-44.48 1215.97,-46.99"/>
</g>
<!-- 571 -->
<g id="node18" class="node">
<title>571</title>
<polygon fill="#bcf6d4" stroke="black" points="1847.5,-274 1500.5,-274 1500.5,-191 1847.5,-191 1847.5,-274"/>
<text text-anchor="middle" x="1674" y="-258.8" font-family="Times,serif" font-size="14.00">graphSize &lt;= 22.5</text>
<text text-anchor="middle" x="1674" y="-243.8" font-family="Times,serif" font-size="14.00">gini = 0.707</text>
<text text-anchor="middle" x="1674" y="-228.8" font-family="Times,serif" font-size="14.00">samples = 21606</text>
<text text-anchor="middle" x="1674" y="-213.8" font-family="Times,serif" font-size="14.00">value = [2046, 2086, 10224, 4390, 1946, 914]</text>
<text text-anchor="middle" x="1674" y="-198.8" font-family="Times,serif" font-size="14.00">class = OLB</text>
</g>
<!-- 570&#45;&gt;571 -->
<g id="edge17" class="edge">
<title>570&#45;&gt;571</title>
<path fill="none" stroke="black" d="M1674,-309.91C1674,-301.65 1674,-292.86 1674,-284.3"/>
<polygon fill="black" stroke="black" points="1677.5,-284.02 1674,-274.02 1670.5,-284.02 1677.5,-284.02"/>
</g>
<!-- 666 -->
<g id="node25" class="node">
<title>666</title>
<polygon fill="#d4f9e4" stroke="black" points="2388,-274 2032,-274 2032,-191 2388,-191 2388,-274"/>
<text text-anchor="middle" x="2210" y="-258.8" font-family="Times,serif" font-size="14.00">sdComp &lt;= 6.5</text>
<text text-anchor="middle" x="2210" y="-243.8" font-family="Times,serif" font-size="14.00">gini = 0.77</text>
<text text-anchor="middle" x="2210" y="-228.8" font-family="Times,serif" font-size="14.00">samples = 40754</text>
<text text-anchor="middle" x="2210" y="-213.8" font-family="Times,serif" font-size="14.00">value = [7406, 5332, 14824, 1036, 7616, 4540]</text>
<text text-anchor="middle" x="2210" y="-198.8" font-family="Times,serif" font-size="14.00">class = OLB</text>
</g>
<!-- 570&#45;&gt;666 -->
<g id="edge24" class="edge">
<title>570&#45;&gt;666</title>
<path fill="none" stroke="black" d="M1852.11,-311.62C1906.57,-299.73 1966.63,-286.62 2021.74,-274.59"/>
<polygon fill="black" stroke="black" points="2022.58,-277.99 2031.61,-272.44 2021.09,-271.15 2022.58,-277.99"/>
</g>
<!-- 572 -->
<g id="node19" class="node">
<title>572</title>
<polygon fill="#d8fae6" stroke="black" points="1662.5,-155 1351.5,-155 1351.5,-72 1662.5,-72 1662.5,-155"/>
<text text-anchor="middle" x="1507" y="-139.8" font-family="Times,serif" font-size="14.00">sdComm &lt;= 2.0</text>
<text text-anchor="middle" x="1507" y="-124.8" font-family="Times,serif" font-size="14.00">gini = 0.787</text>
<text text-anchor="middle" x="1507" y="-109.8" font-family="Times,serif" font-size="14.00">samples = 5484</text>
<text text-anchor="middle" x="1507" y="-94.8" font-family="Times,serif" font-size="14.00">value = [704, 584, 1916, 1046, 780, 454]</text>
<text text-anchor="middle" x="1507" y="-79.8" font-family="Times,serif" font-size="14.00">class = OLB</text>
</g>
<!-- 571&#45;&gt;572 -->
<g id="edge18" class="edge">
<title>571&#45;&gt;572</title>
<path fill="none" stroke="black" d="M1616.06,-190.91C1602.2,-181.2 1587.3,-170.76 1573.1,-160.81"/>
<polygon fill="black" stroke="black" points="1575.04,-157.89 1564.84,-155.02 1571.02,-163.63 1575.04,-157.89"/>
</g>
<!-- 595 -->
<g id="node22" class="node">
<title>595</title>
<polygon fill="#b2f5ce" stroke="black" points="2019,-155 1681,-155 1681,-72 2019,-72 2019,-155"/>
<text text-anchor="middle" x="1850" y="-139.8" font-family="Times,serif" font-size="14.00">graphDepth &lt;= 25.5</text>
<text text-anchor="middle" x="1850" y="-124.8" font-family="Times,serif" font-size="14.00">gini = 0.67</text>
<text text-anchor="middle" x="1850" y="-109.8" font-family="Times,serif" font-size="14.00">samples = 16122</text>
<text text-anchor="middle" x="1850" y="-94.8" font-family="Times,serif" font-size="14.00">value = [1342, 1502, 8308, 3344, 1166, 460]</text>
<text text-anchor="middle" x="1850" y="-79.8" font-family="Times,serif" font-size="14.00">class = OLB</text>
</g>
<!-- 571&#45;&gt;595 -->
<g id="edge21" class="edge">
<title>571&#45;&gt;595</title>
<path fill="none" stroke="black" d="M1735.06,-190.91C1749.67,-181.2 1765.37,-170.76 1780.34,-160.81"/>
<polygon fill="black" stroke="black" points="1782.66,-163.47 1789.05,-155.02 1778.78,-157.64 1782.66,-163.47"/>
</g>
<!-- 573 -->
<g id="node20" class="node">
<title>573</title>
<polygon fill="#c0c0c0" stroke="black" points="1498,-36 1444,-36 1444,0 1498,0 1498,-36"/>
<text text-anchor="middle" x="1471" y="-14.3" font-family="Times,serif" font-size="14.00">(...)</text>
</g>
<!-- 572&#45;&gt;573 -->
<g id="edge19" class="edge">
<title>572&#45;&gt;573</title>
<path fill="none" stroke="black" d="M1491.31,-71.76C1487.96,-63.04 1484.49,-54.04 1481.39,-45.99"/>
<polygon fill="black" stroke="black" points="1484.56,-44.48 1477.7,-36.41 1478.03,-46.99 1484.56,-44.48"/>
</g>
<!-- 580 -->
<g id="node21" class="node">
<title>580</title>
<polygon fill="#c0c0c0" stroke="black" points="1570,-36 1516,-36 1516,0 1570,0 1570,-36"/>
<text text-anchor="middle" x="1543" y="-14.3" font-family="Times,serif" font-size="14.00">(...)</text>
</g>
<!-- 572&#45;&gt;580 -->
<g id="edge20" class="edge">
<title>572&#45;&gt;580</title>
<path fill="none" stroke="black" d="M1522.69,-71.76C1526.04,-63.04 1529.51,-54.04 1532.61,-45.99"/>
<polygon fill="black" stroke="black" points="1535.97,-46.99 1536.3,-36.41 1529.44,-44.48 1535.97,-46.99"/>
</g>
<!-- 596 -->
<g id="node23" class="node">
<title>596</title>
<polygon fill="#c0c0c0" stroke="black" points="1841,-36 1787,-36 1787,0 1841,0 1841,-36"/>
<text text-anchor="middle" x="1814" y="-14.3" font-family="Times,serif" font-size="14.00">(...)</text>
</g>
<!-- 595&#45;&gt;596 -->
<g id="edge22" class="edge">
<title>595&#45;&gt;596</title>
<path fill="none" stroke="black" d="M1834.31,-71.76C1830.96,-63.04 1827.49,-54.04 1824.39,-45.99"/>
<polygon fill="black" stroke="black" points="1827.56,-44.48 1820.7,-36.41 1821.03,-46.99 1827.56,-44.48"/>
</g>
<!-- 655 -->
<g id="node24" class="node">
<title>655</title>
<polygon fill="#c0c0c0" stroke="black" points="1913,-36 1859,-36 1859,0 1913,0 1913,-36"/>
<text text-anchor="middle" x="1886" y="-14.3" font-family="Times,serif" font-size="14.00">(...)</text>
</g>
<!-- 595&#45;&gt;655 -->
<g id="edge23" class="edge">
<title>595&#45;&gt;655</title>
<path fill="none" stroke="black" d="M1865.69,-71.76C1869.04,-63.04 1872.51,-54.04 1875.61,-45.99"/>
<polygon fill="black" stroke="black" points="1878.97,-46.99 1879.3,-36.41 1872.44,-44.48 1878.97,-46.99"/>
</g>
<!-- 667 -->
<g id="node26" class="node">
<title>667</title>
<polygon fill="#c5f7da" stroke="black" points="2383.5,-155 2036.5,-155 2036.5,-72 2383.5,-72 2383.5,-155"/>
<text text-anchor="middle" x="2210" y="-139.8" font-family="Times,serif" font-size="14.00">graphSize &lt;= 22.5</text>
<text text-anchor="middle" x="2210" y="-124.8" font-family="Times,serif" font-size="14.00">gini = 0.743</text>
<text text-anchor="middle" x="2210" y="-109.8" font-family="Times,serif" font-size="14.00">samples = 22812</text>
<text text-anchor="middle" x="2210" y="-94.8" font-family="Times,serif" font-size="14.00">value = [4116, 2588, 9616, 1012, 3662, 1818]</text>
<text text-anchor="middle" x="2210" y="-79.8" font-family="Times,serif" font-size="14.00">class = OLB</text>
</g>
<!-- 666&#45;&gt;667 -->
<g id="edge25" class="edge">
<title>666&#45;&gt;667</title>
<path fill="none" stroke="black" d="M2210,-190.91C2210,-182.65 2210,-173.86 2210,-165.3"/>
<polygon fill="black" stroke="black" points="2213.5,-165.02 2210,-155.02 2206.5,-165.02 2213.5,-165.02"/>
</g>
<!-- 762 -->
<g id="node29" class="node">
<title>762</title>
<polygon fill="#edfdf4" stroke="black" points="2730.5,-155 2401.5,-155 2401.5,-72 2730.5,-72 2730.5,-155"/>
<text text-anchor="middle" x="2566" y="-139.8" font-family="Times,serif" font-size="14.00">sdComm &lt;= 2.0</text>
<text text-anchor="middle" x="2566" y="-124.8" font-family="Times,serif" font-size="14.00">gini = 0.787</text>
<text text-anchor="middle" x="2566" y="-109.8" font-family="Times,serif" font-size="14.00">samples = 17942</text>
<text text-anchor="middle" x="2566" y="-94.8" font-family="Times,serif" font-size="14.00">value = [3290, 2744, 5208, 24, 3954, 2722]</text>
<text text-anchor="middle" x="2566" y="-79.8" font-family="Times,serif" font-size="14.00">class = OLB</text>
</g>
<!-- 666&#45;&gt;762 -->
<g id="edge28" class="edge">
<title>666&#45;&gt;762</title>
<path fill="none" stroke="black" d="M2333.51,-190.91C2365.68,-180.33 2400.48,-168.9 2433.11,-158.17"/>
<polygon fill="black" stroke="black" points="2434.3,-161.47 2442.71,-155.02 2432.11,-154.82 2434.3,-161.47"/>
</g>
<!-- 668 -->
<g id="node27" class="node">
<title>668</title>
<polygon fill="#c0c0c0" stroke="black" points="2201,-36 2147,-36 2147,0 2201,0 2201,-36"/>
<text text-anchor="middle" x="2174" y="-14.3" font-family="Times,serif" font-size="14.00">(...)</text>
</g>
<!-- 667&#45;&gt;668 -->
<g id="edge26" class="edge">
<title>667&#45;&gt;668</title>
<path fill="none" stroke="black" d="M2194.31,-71.76C2190.96,-63.04 2187.49,-54.04 2184.39,-45.99"/>
<polygon fill="black" stroke="black" points="2187.56,-44.48 2180.7,-36.41 2181.03,-46.99 2187.56,-44.48"/>
</g>
<!-- 691 -->
<g id="node28" class="node">
<title>691</title>
<polygon fill="#c0c0c0" stroke="black" points="2273,-36 2219,-36 2219,0 2273,0 2273,-36"/>
<text text-anchor="middle" x="2246" y="-14.3" font-family="Times,serif" font-size="14.00">(...)</text>
</g>
<!-- 667&#45;&gt;691 -->
<g id="edge27" class="edge">
<title>667&#45;&gt;691</title>
<path fill="none" stroke="black" d="M2225.69,-71.76C2229.04,-63.04 2232.51,-54.04 2235.61,-45.99"/>
<polygon fill="black" stroke="black" points="2238.97,-46.99 2239.3,-36.41 2232.44,-44.48 2238.97,-46.99"/>
</g>
<!-- 763 -->
<g id="node30" class="node">
<title>763</title>
<polygon fill="#c0c0c0" stroke="black" points="2557,-36 2503,-36 2503,0 2557,0 2557,-36"/>
<text text-anchor="middle" x="2530" y="-14.3" font-family="Times,serif" font-size="14.00">(...)</text>
</g>
<!-- 762&#45;&gt;763 -->
<g id="edge29" class="edge">
<title>762&#45;&gt;763</title>
<path fill="none" stroke="black" d="M2550.31,-71.76C2546.96,-63.04 2543.49,-54.04 2540.39,-45.99"/>
<polygon fill="black" stroke="black" points="2543.56,-44.48 2536.7,-36.41 2537.03,-46.99 2543.56,-44.48"/>
</g>
<!-- 794 -->
<g id="node31" class="node">
<title>794</title>
<polygon fill="#c0c0c0" stroke="black" points="2629,-36 2575,-36 2575,0 2629,0 2629,-36"/>
<text text-anchor="middle" x="2602" y="-14.3" font-family="Times,serif" font-size="14.00">(...)</text>
</g>
<!-- 762&#45;&gt;794 -->
<g id="edge30" class="edge">
<title>762&#45;&gt;794</title>
<path fill="none" stroke="black" d="M2581.69,-71.76C2585.04,-63.04 2588.51,-54.04 2591.61,-45.99"/>
<polygon fill="black" stroke="black" points="2594.97,-46.99 2595.3,-36.41 2588.44,-44.48 2594.97,-46.99"/>
</g>
</g>
</svg>
