<?xml version="1.0" encoding="UTF-8" standalone="no"?>
<!DOCTYPE svg PUBLIC "-//W3C//DTD SVG 1.1//EN"
 "http://www.w3.org/Graphics/SVG/1.1/DTD/svg11.dtd">
<!-- Generated by graphviz version 2.43.0 (0)
 -->
<!-- Title: Tree Pages: 1 -->
<svg width="1506pt" height="520pt"
 viewBox="0.00 0.00 1506.00 520.00" xmlns="http://www.w3.org/2000/svg" xmlns:xlink="http://www.w3.org/1999/xlink">
<g id="graph0" class="graph" transform="scale(1 1) rotate(0) translate(4 516)">
<title>Tree</title>
<polygon fill="white" stroke="transparent" points="-4,4 -4,-516 1502,-516 1502,4 -4,4"/>
<!-- 0 -->
<g id="node1" class="node">
<title>0</title>
<polygon fill="#fbfdfe" stroke="black" points="841,-512 656,-512 656,-429 841,-429 841,-512"/>
<text text-anchor="middle" x="748.5" y="-496.8" font-family="Times,serif" font-size="14.00">CCR &lt;= 5.5</text>
<text text-anchor="middle" x="748.5" y="-481.8" font-family="Times,serif" font-size="14.00">gini = 0.5</text>
<text text-anchor="middle" x="748.5" y="-466.8" font-family="Times,serif" font-size="14.00">samples = 162489</text>
<text text-anchor="middle" x="748.5" y="-451.8" font-family="Times,serif" font-size="14.00">value = [80334, 82155]</text>
<text text-anchor="middle" x="748.5" y="-436.8" font-family="Times,serif" font-size="14.00">class = True</text>
</g>
<!-- 1 -->
<g id="node2" class="node">
<title>1</title>
<polygon fill="#d9ecfa" stroke="black" points="661,-393 476,-393 476,-310 661,-310 661,-393"/>
<text text-anchor="middle" x="568.5" y="-377.8" font-family="Times,serif" font-size="14.00">graphSize &lt;= 75.0</text>
<text text-anchor="middle" x="568.5" y="-362.8" font-family="Times,serif" font-size="14.00">gini = 0.494</text>
<text text-anchor="middle" x="568.5" y="-347.8" font-family="Times,serif" font-size="14.00">samples = 100129</text>
<text text-anchor="middle" x="568.5" y="-332.8" font-family="Times,serif" font-size="14.00">value = [44747, 55382]</text>
<text text-anchor="middle" x="568.5" y="-317.8" font-family="Times,serif" font-size="14.00">class = True</text>
</g>
<!-- 0&#45;&gt;1 -->
<g id="edge1" class="edge">
<title>0&#45;&gt;1</title>
<path fill="none" stroke="black" d="M686.05,-428.91C670.97,-419.11 654.75,-408.56 639.32,-398.53"/>
<polygon fill="black" stroke="black" points="641.13,-395.54 630.84,-393.02 637.32,-401.41 641.13,-395.54"/>
<text text-anchor="middle" x="636.03" y="-413.78" font-family="Times,serif" font-size="14.00">True</text>
</g>
<!-- 570 -->
<g id="node17" class="node">
<title>570</title>
<polygon fill="#f9e0ce" stroke="black" points="1031,-393 846,-393 846,-310 1031,-310 1031,-393"/>
<text text-anchor="middle" x="938.5" y="-377.8" font-family="Times,serif" font-size="14.00">graphDepth &lt;= 3.5</text>
<text text-anchor="middle" x="938.5" y="-362.8" font-family="Times,serif" font-size="14.00">gini = 0.49</text>
<text text-anchor="middle" x="938.5" y="-347.8" font-family="Times,serif" font-size="14.00">samples = 62360</text>
<text text-anchor="middle" x="938.5" y="-332.8" font-family="Times,serif" font-size="14.00">value = [35587, 26773]</text>
<text text-anchor="middle" x="938.5" y="-317.8" font-family="Times,serif" font-size="14.00">class = False</text>
</g>
<!-- 0&#45;&gt;570 -->
<g id="edge16" class="edge">
<title>0&#45;&gt;570</title>
<path fill="none" stroke="black" d="M814.42,-428.91C830.34,-419.11 847.46,-408.56 863.75,-398.53"/>
<polygon fill="black" stroke="black" points="866.02,-401.24 872.7,-393.02 862.35,-395.28 866.02,-401.24"/>
<text text-anchor="middle" x="866.91" y="-413.64" font-family="Times,serif" font-size="14.00">False</text>
</g>
<!-- 2 -->
<g id="node3" class="node">
<title>2</title>
<polygon fill="#deeffb" stroke="black" points="388,-274 203,-274 203,-191 388,-191 388,-274"/>
<text text-anchor="middle" x="295.5" y="-258.8" font-family="Times,serif" font-size="14.00">graphSize &lt;= 22.5</text>
<text text-anchor="middle" x="295.5" y="-243.8" font-family="Times,serif" font-size="14.00">gini = 0.496</text>
<text text-anchor="middle" x="295.5" y="-228.8" font-family="Times,serif" font-size="14.00">samples = 94617</text>
<text text-anchor="middle" x="295.5" y="-213.8" font-family="Times,serif" font-size="14.00">value = [42963, 51654]</text>
<text text-anchor="middle" x="295.5" y="-198.8" font-family="Times,serif" font-size="14.00">class = True</text>
</g>
<!-- 1&#45;&gt;2 -->
<g id="edge2" class="edge">
<title>1&#45;&gt;2</title>
<path fill="none" stroke="black" d="M475.69,-310.73C450.5,-299.93 423.09,-288.18 397.42,-277.18"/>
<polygon fill="black" stroke="black" points="398.62,-273.89 388.05,-273.16 395.86,-280.32 398.62,-273.89"/>
</g>
<!-- 433 -->
<g id="node10" class="node">
<title>433</title>
<polygon fill="#98ccf1" stroke="black" points="652,-274 485,-274 485,-191 652,-191 652,-274"/>
<text text-anchor="middle" x="568.5" y="-258.8" font-family="Times,serif" font-size="14.00">nbproc &lt;= 4.5</text>
<text text-anchor="middle" x="568.5" y="-243.8" font-family="Times,serif" font-size="14.00">gini = 0.438</text>
<text text-anchor="middle" x="568.5" y="-228.8" font-family="Times,serif" font-size="14.00">samples = 5512</text>
<text text-anchor="middle" x="568.5" y="-213.8" font-family="Times,serif" font-size="14.00">value = [1784, 3728]</text>
<text text-anchor="middle" x="568.5" y="-198.8" font-family="Times,serif" font-size="14.00">class = True</text>
</g>
<!-- 1&#45;&gt;433 -->
<g id="edge9" class="edge">
<title>1&#45;&gt;433</title>
<path fill="none" stroke="black" d="M568.5,-309.91C568.5,-301.65 568.5,-292.86 568.5,-284.3"/>
<polygon fill="black" stroke="black" points="572,-284.02 568.5,-274.02 565,-284.02 572,-284.02"/>
</g>
<!-- 3 -->
<g id="node4" class="node">
<title>3</title>
<polygon fill="#e5f2fc" stroke="black" points="185,-155 0,-155 0,-72 185,-72 185,-155"/>
<text text-anchor="middle" x="92.5" y="-139.8" font-family="Times,serif" font-size="14.00">sdComm &lt;= 0.65</text>
<text text-anchor="middle" x="92.5" y="-124.8" font-family="Times,serif" font-size="14.00">gini = 0.497</text>
<text text-anchor="middle" x="92.5" y="-109.8" font-family="Times,serif" font-size="14.00">samples = 67760</text>
<text text-anchor="middle" x="92.5" y="-94.8" font-family="Times,serif" font-size="14.00">value = [31458, 36302]</text>
<text text-anchor="middle" x="92.5" y="-79.8" font-family="Times,serif" font-size="14.00">class = True</text>
</g>
<!-- 2&#45;&gt;3 -->
<g id="edge3" class="edge">
<title>2&#45;&gt;3</title>
<path fill="none" stroke="black" d="M225.07,-190.91C207.91,-181.02 189.43,-170.37 171.89,-160.25"/>
<polygon fill="black" stroke="black" points="173.22,-156.98 162.81,-155.02 169.72,-163.05 173.22,-156.98"/>
</g>
<!-- 146 -->
<g id="node7" class="node">
<title>146</title>
<polygon fill="#cde6f8" stroke="black" points="388,-155 203,-155 203,-72 388,-72 388,-155"/>
<text text-anchor="middle" x="295.5" y="-139.8" font-family="Times,serif" font-size="14.00">nbproc &lt;= 4.5</text>
<text text-anchor="middle" x="295.5" y="-124.8" font-family="Times,serif" font-size="14.00">gini = 0.49</text>
<text text-anchor="middle" x="295.5" y="-109.8" font-family="Times,serif" font-size="14.00">samples = 26857</text>
<text text-anchor="middle" x="295.5" y="-94.8" font-family="Times,serif" font-size="14.00">value = [11505, 15352]</text>
<text text-anchor="middle" x="295.5" y="-79.8" font-family="Times,serif" font-size="14.00">class = True</text>
</g>
<!-- 2&#45;&gt;146 -->
<g id="edge6" class="edge">
<title>2&#45;&gt;146</title>
<path fill="none" stroke="black" d="M295.5,-190.91C295.5,-182.65 295.5,-173.86 295.5,-165.3"/>
<polygon fill="black" stroke="black" points="299,-165.02 295.5,-155.02 292,-165.02 299,-165.02"/>
</g>
<!-- 4 -->
<g id="node5" class="node">
<title>4</title>
<polygon fill="#c0c0c0" stroke="black" points="83.5,-36 29.5,-36 29.5,0 83.5,0 83.5,-36"/>
<text text-anchor="middle" x="56.5" y="-14.3" font-family="Times,serif" font-size="14.00">(...)</text>
</g>
<!-- 3&#45;&gt;4 -->
<g id="edge4" class="edge">
<title>3&#45;&gt;4</title>
<path fill="none" stroke="black" d="M76.81,-71.76C73.46,-63.04 69.99,-54.04 66.89,-45.99"/>
<polygon fill="black" stroke="black" points="70.06,-44.48 63.2,-36.41 63.53,-46.99 70.06,-44.48"/>
</g>
<!-- 123 -->
<g id="node6" class="node">
<title>123</title>
<polygon fill="#c0c0c0" stroke="black" points="155.5,-36 101.5,-36 101.5,0 155.5,0 155.5,-36"/>
<text text-anchor="middle" x="128.5" y="-14.3" font-family="Times,serif" font-size="14.00">(...)</text>
</g>
<!-- 3&#45;&gt;123 -->
<g id="edge5" class="edge">
<title>3&#45;&gt;123</title>
<path fill="none" stroke="black" d="M108.19,-71.76C111.54,-63.04 115.01,-54.04 118.11,-45.99"/>
<polygon fill="black" stroke="black" points="121.47,-46.99 121.8,-36.41 114.94,-44.48 121.47,-46.99"/>
</g>
<!-- 147 -->
<g id="node8" class="node">
<title>147</title>
<polygon fill="#c0c0c0" stroke="black" points="295.5,-36 241.5,-36 241.5,0 295.5,0 295.5,-36"/>
<text text-anchor="middle" x="268.5" y="-14.3" font-family="Times,serif" font-size="14.00">(...)</text>
</g>
<!-- 146&#45;&gt;147 -->
<g id="edge7" class="edge">
<title>146&#45;&gt;147</title>
<path fill="none" stroke="black" d="M283.74,-71.76C281.25,-63.14 278.68,-54.24 276.37,-46.26"/>
<polygon fill="black" stroke="black" points="279.66,-45.04 273.53,-36.41 272.94,-46.98 279.66,-45.04"/>
</g>
<!-- 290 -->
<g id="node9" class="node">
<title>290</title>
<polygon fill="#c0c0c0" stroke="black" points="367.5,-36 313.5,-36 313.5,0 367.5,0 367.5,-36"/>
<text text-anchor="middle" x="340.5" y="-14.3" font-family="Times,serif" font-size="14.00">(...)</text>
</g>
<!-- 146&#45;&gt;290 -->
<g id="edge8" class="edge">
<title>146&#45;&gt;290</title>
<path fill="none" stroke="black" d="M315.11,-71.76C319.4,-62.85 323.83,-53.64 327.77,-45.46"/>
<polygon fill="black" stroke="black" points="330.94,-46.93 332.12,-36.41 324.63,-43.9 330.94,-46.93"/>
</g>
<!-- 434 -->
<g id="node11" class="node">
<title>434</title>
<polygon fill="#7fc0ee" stroke="black" points="573,-155 406,-155 406,-72 573,-72 573,-155"/>
<text text-anchor="middle" x="489.5" y="-139.8" font-family="Times,serif" font-size="14.00">graphDepth &lt;= 25.5</text>
<text text-anchor="middle" x="489.5" y="-124.8" font-family="Times,serif" font-size="14.00">gini = 0.386</text>
<text text-anchor="middle" x="489.5" y="-109.8" font-family="Times,serif" font-size="14.00">samples = 2792</text>
<text text-anchor="middle" x="489.5" y="-94.8" font-family="Times,serif" font-size="14.00">value = [730, 2062]</text>
<text text-anchor="middle" x="489.5" y="-79.8" font-family="Times,serif" font-size="14.00">class = True</text>
</g>
<!-- 433&#45;&gt;434 -->
<g id="edge10" class="edge">
<title>433&#45;&gt;434</title>
<path fill="none" stroke="black" d="M541.09,-190.91C535.09,-182.01 528.67,-172.51 522.47,-163.33"/>
<polygon fill="black" stroke="black" points="525.36,-161.35 516.86,-155.02 519.56,-165.27 525.36,-161.35"/>
</g>
<!-- 499 -->
<g id="node14" class="node">
<title>499</title>
<polygon fill="#b6dbf5" stroke="black" points="758,-155 591,-155 591,-72 758,-72 758,-155"/>
<text text-anchor="middle" x="674.5" y="-139.8" font-family="Times,serif" font-size="14.00">CCR &lt;= 0.55</text>
<text text-anchor="middle" x="674.5" y="-124.8" font-family="Times,serif" font-size="14.00">gini = 0.475</text>
<text text-anchor="middle" x="674.5" y="-109.8" font-family="Times,serif" font-size="14.00">samples = 2720</text>
<text text-anchor="middle" x="674.5" y="-94.8" font-family="Times,serif" font-size="14.00">value = [1054, 1666]</text>
<text text-anchor="middle" x="674.5" y="-79.8" font-family="Times,serif" font-size="14.00">class = True</text>
</g>
<!-- 433&#45;&gt;499 -->
<g id="edge13" class="edge">
<title>433&#45;&gt;499</title>
<path fill="none" stroke="black" d="M605.28,-190.91C613.58,-181.74 622.47,-171.93 631.02,-162.49"/>
<polygon fill="black" stroke="black" points="633.67,-164.78 637.79,-155.02 628.48,-160.08 633.67,-164.78"/>
</g>
<!-- 435 -->
<g id="node12" class="node">
<title>435</title>
<polygon fill="#c0c0c0" stroke="black" points="464.5,-36 410.5,-36 410.5,0 464.5,0 464.5,-36"/>
<text text-anchor="middle" x="437.5" y="-14.3" font-family="Times,serif" font-size="14.00">(...)</text>
</g>
<!-- 434&#45;&gt;435 -->
<g id="edge11" class="edge">
<title>434&#45;&gt;435</title>
<path fill="none" stroke="black" d="M466.84,-71.76C461.83,-62.75 456.65,-53.44 452.07,-45.19"/>
<polygon fill="black" stroke="black" points="455.1,-43.44 447.18,-36.41 448.98,-46.85 455.1,-43.44"/>
</g>
<!-- 464 -->
<g id="node13" class="node">
<title>464</title>
<polygon fill="#c0c0c0" stroke="black" points="536.5,-36 482.5,-36 482.5,0 536.5,0 536.5,-36"/>
<text text-anchor="middle" x="509.5" y="-14.3" font-family="Times,serif" font-size="14.00">(...)</text>
</g>
<!-- 434&#45;&gt;464 -->
<g id="edge12" class="edge">
<title>434&#45;&gt;464</title>
<path fill="none" stroke="black" d="M498.21,-71.76C500.06,-63.14 501.96,-54.24 503.67,-46.26"/>
<polygon fill="black" stroke="black" points="507.11,-46.92 505.78,-36.41 500.26,-45.45 507.11,-46.92"/>
</g>
<!-- 500 -->
<g id="node15" class="node">
<title>500</title>
<polygon fill="#c0c0c0" stroke="black" points="645.5,-36 591.5,-36 591.5,0 645.5,0 645.5,-36"/>
<text text-anchor="middle" x="618.5" y="-14.3" font-family="Times,serif" font-size="14.00">(...)</text>
</g>
<!-- 499&#45;&gt;500 -->
<g id="edge14" class="edge">
<title>499&#45;&gt;500</title>
<path fill="none" stroke="black" d="M650.1,-71.76C644.7,-62.75 639.13,-53.44 634.19,-45.19"/>
<polygon fill="black" stroke="black" points="637.07,-43.19 628.92,-36.41 631.06,-46.78 637.07,-43.19"/>
</g>
<!-- 535 -->
<g id="node16" class="node">
<title>535</title>
<polygon fill="#c0c0c0" stroke="black" points="717.5,-36 663.5,-36 663.5,0 717.5,0 717.5,-36"/>
<text text-anchor="middle" x="690.5" y="-14.3" font-family="Times,serif" font-size="14.00">(...)</text>
</g>
<!-- 499&#45;&gt;535 -->
<g id="edge15" class="edge">
<title>499&#45;&gt;535</title>
<path fill="none" stroke="black" d="M681.47,-71.76C682.93,-63.24 684.44,-54.44 685.79,-46.53"/>
<polygon fill="black" stroke="black" points="689.28,-46.85 687.52,-36.41 682.38,-45.67 689.28,-46.85"/>
</g>
<!-- 571 -->
<g id="node18" class="node">
<title>571</title>
<polygon fill="#fdf8f4" stroke="black" points="1022,-274 855,-274 855,-191 1022,-191 1022,-274"/>
<text text-anchor="middle" x="938.5" y="-258.8" font-family="Times,serif" font-size="14.00">sdComm &lt;= 2.0</text>
<text text-anchor="middle" x="938.5" y="-243.8" font-family="Times,serif" font-size="14.00">gini = 0.5</text>
<text text-anchor="middle" x="938.5" y="-228.8" font-family="Times,serif" font-size="14.00">samples = 4414</text>
<text text-anchor="middle" x="938.5" y="-213.8" font-family="Times,serif" font-size="14.00">value = [2273, 2141]</text>
<text text-anchor="middle" x="938.5" y="-198.8" font-family="Times,serif" font-size="14.00">class = False</text>
</g>
<!-- 570&#45;&gt;571 -->
<g id="edge17" class="edge">
<title>570&#45;&gt;571</title>
<path fill="none" stroke="black" d="M938.5,-309.91C938.5,-301.65 938.5,-292.86 938.5,-284.3"/>
<polygon fill="black" stroke="black" points="942,-284.02 938.5,-274.02 935,-284.02 942,-284.02"/>
</g>
<!-- 606 -->
<g id="node25" class="node">
<title>606</title>
<polygon fill="#f8decb" stroke="black" points="1313,-274 1128,-274 1128,-191 1313,-191 1313,-274"/>
<text text-anchor="middle" x="1220.5" y="-258.8" font-family="Times,serif" font-size="14.00">sdComp &lt;= 6.5</text>
<text text-anchor="middle" x="1220.5" y="-243.8" font-family="Times,serif" font-size="14.00">gini = 0.489</text>
<text text-anchor="middle" x="1220.5" y="-228.8" font-family="Times,serif" font-size="14.00">samples = 57946</text>
<text text-anchor="middle" x="1220.5" y="-213.8" font-family="Times,serif" font-size="14.00">value = [33314, 24632]</text>
<text text-anchor="middle" x="1220.5" y="-198.8" font-family="Times,serif" font-size="14.00">class = False</text>
</g>
<!-- 570&#45;&gt;606 -->
<g id="edge24" class="edge">
<title>570&#45;&gt;606</title>
<path fill="none" stroke="black" d="M1031.23,-312.03C1059.06,-300.48 1089.75,-287.75 1118.17,-275.95"/>
<polygon fill="black" stroke="black" points="1119.82,-279.06 1127.72,-272 1117.14,-272.59 1119.82,-279.06"/>
</g>
<!-- 572 -->
<g id="node19" class="node">
<title>572</title>
<polygon fill="#e9f4fc" stroke="black" points="925,-155 776,-155 776,-72 925,-72 925,-155"/>
<text text-anchor="middle" x="850.5" y="-139.8" font-family="Times,serif" font-size="14.00">nbproc &lt;= 4.5</text>
<text text-anchor="middle" x="850.5" y="-124.8" font-family="Times,serif" font-size="14.00">gini = 0.498</text>
<text text-anchor="middle" x="850.5" y="-109.8" font-family="Times,serif" font-size="14.00">samples = 1694</text>
<text text-anchor="middle" x="850.5" y="-94.8" font-family="Times,serif" font-size="14.00">value = [798, 896]</text>
<text text-anchor="middle" x="850.5" y="-79.8" font-family="Times,serif" font-size="14.00">class = True</text>
</g>
<!-- 571&#45;&gt;572 -->
<g id="edge18" class="edge">
<title>571&#45;&gt;572</title>
<path fill="none" stroke="black" d="M907.97,-190.91C901.21,-181.92 893.98,-172.32 887.02,-163.05"/>
<polygon fill="black" stroke="black" points="889.79,-160.91 880.98,-155.02 884.19,-165.12 889.79,-160.91"/>
</g>
<!-- 583 -->
<g id="node22" class="node">
<title>583</title>
<polygon fill="#fbebe0" stroke="black" points="1110,-155 943,-155 943,-72 1110,-72 1110,-155"/>
<text text-anchor="middle" x="1026.5" y="-139.8" font-family="Times,serif" font-size="14.00">sdComp &lt;= 6.5</text>
<text text-anchor="middle" x="1026.5" y="-124.8" font-family="Times,serif" font-size="14.00">gini = 0.496</text>
<text text-anchor="middle" x="1026.5" y="-109.8" font-family="Times,serif" font-size="14.00">samples = 2720</text>
<text text-anchor="middle" x="1026.5" y="-94.8" font-family="Times,serif" font-size="14.00">value = [1475, 1245]</text>
<text text-anchor="middle" x="1026.5" y="-79.8" font-family="Times,serif" font-size="14.00">class = False</text>
</g>
<!-- 571&#45;&gt;583 -->
<g id="edge21" class="edge">
<title>571&#45;&gt;583</title>
<path fill="none" stroke="black" d="M969.03,-190.91C975.79,-181.92 983.02,-172.32 989.98,-163.05"/>
<polygon fill="black" stroke="black" points="992.81,-165.12 996.02,-155.02 987.21,-160.91 992.81,-165.12"/>
</g>
<!-- 573 -->
<g id="node20" class="node">
<title>573</title>
<polygon fill="#c0c0c0" stroke="black" points="821.5,-36 767.5,-36 767.5,0 821.5,0 821.5,-36"/>
<text text-anchor="middle" x="794.5" y="-14.3" font-family="Times,serif" font-size="14.00">(...)</text>
</g>
<!-- 572&#45;&gt;573 -->
<g id="edge19" class="edge">
<title>572&#45;&gt;573</title>
<path fill="none" stroke="black" d="M826.1,-71.76C820.7,-62.75 815.13,-53.44 810.19,-45.19"/>
<polygon fill="black" stroke="black" points="813.07,-43.19 804.92,-36.41 807.06,-46.78 813.07,-43.19"/>
</g>
<!-- 578 -->
<g id="node21" class="node">
<title>578</title>
<polygon fill="#c0c0c0" stroke="black" points="893.5,-36 839.5,-36 839.5,0 893.5,0 893.5,-36"/>
<text text-anchor="middle" x="866.5" y="-14.3" font-family="Times,serif" font-size="14.00">(...)</text>
</g>
<!-- 572&#45;&gt;578 -->
<g id="edge20" class="edge">
<title>572&#45;&gt;578</title>
<path fill="none" stroke="black" d="M857.47,-71.76C858.93,-63.24 860.44,-54.44 861.79,-46.53"/>
<polygon fill="black" stroke="black" points="865.28,-46.85 863.52,-36.41 858.38,-45.67 865.28,-46.85"/>
</g>
<!-- 584 -->
<g id="node23" class="node">
<title>584</title>
<polygon fill="#c0c0c0" stroke="black" points="1006.5,-36 952.5,-36 952.5,0 1006.5,0 1006.5,-36"/>
<text text-anchor="middle" x="979.5" y="-14.3" font-family="Times,serif" font-size="14.00">(...)</text>
</g>
<!-- 583&#45;&gt;584 -->
<g id="edge22" class="edge">
<title>583&#45;&gt;584</title>
<path fill="none" stroke="black" d="M1006.02,-71.76C1001.54,-62.85 996.91,-53.64 992.8,-45.46"/>
<polygon fill="black" stroke="black" points="995.87,-43.77 988.25,-36.41 989.61,-46.91 995.87,-43.77"/>
</g>
<!-- 599 -->
<g id="node24" class="node">
<title>599</title>
<polygon fill="#c0c0c0" stroke="black" points="1078.5,-36 1024.5,-36 1024.5,0 1078.5,0 1078.5,-36"/>
<text text-anchor="middle" x="1051.5" y="-14.3" font-family="Times,serif" font-size="14.00">(...)</text>
</g>
<!-- 583&#45;&gt;599 -->
<g id="edge23" class="edge">
<title>583&#45;&gt;599</title>
<path fill="none" stroke="black" d="M1037.39,-71.76C1039.7,-63.14 1042.08,-54.24 1044.21,-46.26"/>
<polygon fill="black" stroke="black" points="1047.64,-46.97 1046.85,-36.41 1040.88,-45.16 1047.64,-46.97"/>
</g>
<!-- 607 -->
<g id="node26" class="node">
<title>607</title>
<polygon fill="#f8dbc6" stroke="black" points="1313,-155 1128,-155 1128,-72 1313,-72 1313,-155"/>
<text text-anchor="middle" x="1220.5" y="-139.8" font-family="Times,serif" font-size="14.00">graphDepth &lt;= 25.5</text>
<text text-anchor="middle" x="1220.5" y="-124.8" font-family="Times,serif" font-size="14.00">gini = 0.486</text>
<text text-anchor="middle" x="1220.5" y="-109.8" font-family="Times,serif" font-size="14.00">samples = 41404</text>
<text text-anchor="middle" x="1220.5" y="-94.8" font-family="Times,serif" font-size="14.00">value = [24186, 17218]</text>
<text text-anchor="middle" x="1220.5" y="-79.8" font-family="Times,serif" font-size="14.00">class = False</text>
</g>
<!-- 606&#45;&gt;607 -->
<g id="edge25" class="edge">
<title>606&#45;&gt;607</title>
<path fill="none" stroke="black" d="M1220.5,-190.91C1220.5,-182.65 1220.5,-173.86 1220.5,-165.3"/>
<polygon fill="black" stroke="black" points="1224,-165.02 1220.5,-155.02 1217,-165.02 1224,-165.02"/>
</g>
<!-- 774 -->
<g id="node29" class="node">
<title>774</title>
<polygon fill="#fae7da" stroke="black" points="1498,-155 1331,-155 1331,-72 1498,-72 1498,-155"/>
<text text-anchor="middle" x="1414.5" y="-139.8" font-family="Times,serif" font-size="14.00">sdComm &lt;= 2.0</text>
<text text-anchor="middle" x="1414.5" y="-124.8" font-family="Times,serif" font-size="14.00">gini = 0.495</text>
<text text-anchor="middle" x="1414.5" y="-109.8" font-family="Times,serif" font-size="14.00">samples = 16542</text>
<text text-anchor="middle" x="1414.5" y="-94.8" font-family="Times,serif" font-size="14.00">value = [9128, 7414]</text>
<text text-anchor="middle" x="1414.5" y="-79.8" font-family="Times,serif" font-size="14.00">class = False</text>
</g>
<!-- 606&#45;&gt;774 -->
<g id="edge28" class="edge">
<title>606&#45;&gt;774</title>
<path fill="none" stroke="black" d="M1287.81,-190.91C1304.21,-181.02 1321.86,-170.37 1338.63,-160.25"/>
<polygon fill="black" stroke="black" points="1340.56,-163.18 1347.31,-155.02 1336.94,-157.19 1340.56,-163.18"/>
</g>
<!-- 608 -->
<g id="node27" class="node">
<title>608</title>
<polygon fill="#c0c0c0" stroke="black" points="1211.5,-36 1157.5,-36 1157.5,0 1211.5,0 1211.5,-36"/>
<text text-anchor="middle" x="1184.5" y="-14.3" font-family="Times,serif" font-size="14.00">(...)</text>
</g>
<!-- 607&#45;&gt;608 -->
<g id="edge26" class="edge">
<title>607&#45;&gt;608</title>
<path fill="none" stroke="black" d="M1204.81,-71.76C1201.46,-63.04 1197.99,-54.04 1194.89,-45.99"/>
<polygon fill="black" stroke="black" points="1198.06,-44.48 1191.2,-36.41 1191.53,-46.99 1198.06,-44.48"/>
</g>
<!-- 751 -->
<g id="node28" class="node">
<title>751</title>
<polygon fill="#c0c0c0" stroke="black" points="1283.5,-36 1229.5,-36 1229.5,0 1283.5,0 1283.5,-36"/>
<text text-anchor="middle" x="1256.5" y="-14.3" font-family="Times,serif" font-size="14.00">(...)</text>
</g>
<!-- 607&#45;&gt;751 -->
<g id="edge27" class="edge">
<title>607&#45;&gt;751</title>
<path fill="none" stroke="black" d="M1236.19,-71.76C1239.54,-63.04 1243.01,-54.04 1246.11,-45.99"/>
<polygon fill="black" stroke="black" points="1249.47,-46.99 1249.8,-36.41 1242.94,-44.48 1249.47,-46.99"/>
</g>
<!-- 775 -->
<g id="node30" class="node">
<title>775</title>
<polygon fill="#c0c0c0" stroke="black" points="1405.5,-36 1351.5,-36 1351.5,0 1405.5,0 1405.5,-36"/>
<text text-anchor="middle" x="1378.5" y="-14.3" font-family="Times,serif" font-size="14.00">(...)</text>
</g>
<!-- 774&#45;&gt;775 -->
<g id="edge29" class="edge">
<title>774&#45;&gt;775</title>
<path fill="none" stroke="black" d="M1398.81,-71.76C1395.46,-63.04 1391.99,-54.04 1388.89,-45.99"/>
<polygon fill="black" stroke="black" points="1392.06,-44.48 1385.2,-36.41 1385.53,-46.99 1392.06,-44.48"/>
</g>
<!-- 802 -->
<g id="node31" class="node">
<title>802</title>
<polygon fill="#c0c0c0" stroke="black" points="1477.5,-36 1423.5,-36 1423.5,0 1477.5,0 1477.5,-36"/>
<text text-anchor="middle" x="1450.5" y="-14.3" font-family="Times,serif" font-size="14.00">(...)</text>
</g>
<!-- 774&#45;&gt;802 -->
<g id="edge30" class="edge">
<title>774&#45;&gt;802</title>
<path fill="none" stroke="black" d="M1430.19,-71.76C1433.54,-63.04 1437.01,-54.04 1440.11,-45.99"/>
<polygon fill="black" stroke="black" points="1443.47,-46.99 1443.8,-36.41 1436.94,-44.48 1443.47,-46.99"/>
</g>
</g>
</svg>
