<?xml version="1.0" encoding="UTF-8" standalone="no"?>
<!DOCTYPE svg PUBLIC "-//W3C//DTD SVG 1.1//EN"
 "http://www.w3.org/Graphics/SVG/1.1/DTD/svg11.dtd">
<!-- Generated by graphviz version 2.43.0 (0)
 -->
<!-- Title: Tree Pages: 1 -->
<svg width="1504pt" height="520pt"
 viewBox="0.00 0.00 1503.50 520.00" xmlns="http://www.w3.org/2000/svg" xmlns:xlink="http://www.w3.org/1999/xlink">
<g id="graph0" class="graph" transform="scale(1 1) rotate(0) translate(4 516)">
<title>Tree</title>
<polygon fill="white" stroke="transparent" points="-4,4 -4,-516 1499.5,-516 1499.5,4 -4,4"/>
<!-- 0 -->
<g id="node1" class="node">
<title>0</title>
<polygon fill="#a6d3f3" stroke="black" points="844,-512 650,-512 650,-429 844,-429 844,-512"/>
<text text-anchor="middle" x="747" y="-496.8" font-family="Times,serif" font-size="14.00">sdComp &lt;= 0.65</text>
<text text-anchor="middle" x="747" y="-481.8" font-family="Times,serif" font-size="14.00">gini = 0.458</text>
<text text-anchor="middle" x="747" y="-466.8" font-family="Times,serif" font-size="14.00">samples = 162489</text>
<text text-anchor="middle" x="747" y="-451.8" font-family="Times,serif" font-size="14.00">value = [57574, 104915]</text>
<text text-anchor="middle" x="747" y="-436.8" font-family="Times,serif" font-size="14.00">class = True</text>
</g>
<!-- 1 -->
<g id="node2" class="node">
<title>1</title>
<polygon fill="#d0e8f9" stroke="black" points="648.5,-393 463.5,-393 463.5,-310 648.5,-310 648.5,-393"/>
<text text-anchor="middle" x="556" y="-377.8" font-family="Times,serif" font-size="14.00">nbproc &lt;= 4.5</text>
<text text-anchor="middle" x="556" y="-362.8" font-family="Times,serif" font-size="14.00">gini = 0.491</text>
<text text-anchor="middle" x="556" y="-347.8" font-family="Times,serif" font-size="14.00">samples = 88076</text>
<text text-anchor="middle" x="556" y="-332.8" font-family="Times,serif" font-size="14.00">value = [38178, 49898]</text>
<text text-anchor="middle" x="556" y="-317.8" font-family="Times,serif" font-size="14.00">class = True</text>
</g>
<!-- 0&#45;&gt;1 -->
<g id="edge1" class="edge">
<title>0&#45;&gt;1</title>
<path fill="none" stroke="black" d="M680.73,-428.91C664.59,-419.02 647.2,-408.37 630.69,-398.25"/>
<polygon fill="black" stroke="black" points="632.5,-395.26 622.15,-393.02 628.85,-401.23 632.5,-395.26"/>
<text text-anchor="middle" x="627.99" y="-413.63" font-family="Times,serif" font-size="14.00">True</text>
</g>
<!-- 468 -->
<g id="node17" class="node">
<title>468</title>
<polygon fill="#7fc0ee" stroke="black" points="1031.5,-393 846.5,-393 846.5,-310 1031.5,-310 1031.5,-393"/>
<text text-anchor="middle" x="939" y="-377.8" font-family="Times,serif" font-size="14.00">sdComp &lt;= 6.5</text>
<text text-anchor="middle" x="939" y="-362.8" font-family="Times,serif" font-size="14.00">gini = 0.385</text>
<text text-anchor="middle" x="939" y="-347.8" font-family="Times,serif" font-size="14.00">samples = 74413</text>
<text text-anchor="middle" x="939" y="-332.8" font-family="Times,serif" font-size="14.00">value = [19396, 55017]</text>
<text text-anchor="middle" x="939" y="-317.8" font-family="Times,serif" font-size="14.00">class = True</text>
</g>
<!-- 0&#45;&gt;468 -->
<g id="edge16" class="edge">
<title>0&#45;&gt;468</title>
<path fill="none" stroke="black" d="M813.61,-428.91C829.85,-419.02 847.32,-408.37 863.92,-398.25"/>
<polygon fill="black" stroke="black" points="865.79,-401.21 872.5,-393.02 862.14,-395.24 865.79,-401.21"/>
<text text-anchor="middle" x="866.61" y="-413.62" font-family="Times,serif" font-size="14.00">False</text>
</g>
<!-- 2 -->
<g id="node3" class="node">
<title>2</title>
<polygon fill="#b4daf5" stroke="black" points="356.5,-274 171.5,-274 171.5,-191 356.5,-191 356.5,-274"/>
<text text-anchor="middle" x="264" y="-258.8" font-family="Times,serif" font-size="14.00">graphDepth &lt;= 3.5</text>
<text text-anchor="middle" x="264" y="-243.8" font-family="Times,serif" font-size="14.00">gini = 0.473</text>
<text text-anchor="middle" x="264" y="-228.8" font-family="Times,serif" font-size="14.00">samples = 28039</text>
<text text-anchor="middle" x="264" y="-213.8" font-family="Times,serif" font-size="14.00">value = [10756, 17283]</text>
<text text-anchor="middle" x="264" y="-198.8" font-family="Times,serif" font-size="14.00">class = True</text>
</g>
<!-- 1&#45;&gt;2 -->
<g id="edge2" class="edge">
<title>1&#45;&gt;2</title>
<path fill="none" stroke="black" d="M463.21,-313.32C432.33,-300.95 397.78,-287.11 366.24,-274.46"/>
<polygon fill="black" stroke="black" points="367.13,-271.05 356.55,-270.58 364.53,-277.55 367.13,-271.05"/>
</g>
<!-- 229 -->
<g id="node10" class="node">
<title>229</title>
<polygon fill="#dfeffb" stroke="black" points="648.5,-274 463.5,-274 463.5,-191 648.5,-191 648.5,-274"/>
<text text-anchor="middle" x="556" y="-258.8" font-family="Times,serif" font-size="14.00">graphSize &lt;= 22.5</text>
<text text-anchor="middle" x="556" y="-243.8" font-family="Times,serif" font-size="14.00">gini = 0.496</text>
<text text-anchor="middle" x="556" y="-228.8" font-family="Times,serif" font-size="14.00">samples = 60037</text>
<text text-anchor="middle" x="556" y="-213.8" font-family="Times,serif" font-size="14.00">value = [27422, 32615]</text>
<text text-anchor="middle" x="556" y="-198.8" font-family="Times,serif" font-size="14.00">class = True</text>
</g>
<!-- 1&#45;&gt;229 -->
<g id="edge9" class="edge">
<title>1&#45;&gt;229</title>
<path fill="none" stroke="black" d="M556,-309.91C556,-301.65 556,-292.86 556,-284.3"/>
<polygon fill="black" stroke="black" points="559.5,-284.02 556,-274.02 552.5,-284.02 559.5,-284.02"/>
</g>
<!-- 3 -->
<g id="node4" class="node">
<title>3</title>
<polygon fill="#6bb6ec" stroke="black" points="158,-155 0,-155 0,-72 158,-72 158,-155"/>
<text text-anchor="middle" x="79" y="-139.8" font-family="Times,serif" font-size="14.00">sdComm &lt;= 0.065</text>
<text text-anchor="middle" x="79" y="-124.8" font-family="Times,serif" font-size="14.00">gini = 0.322</text>
<text text-anchor="middle" x="79" y="-109.8" font-family="Times,serif" font-size="14.00">samples = 3785</text>
<text text-anchor="middle" x="79" y="-94.8" font-family="Times,serif" font-size="14.00">value = [762, 3023]</text>
<text text-anchor="middle" x="79" y="-79.8" font-family="Times,serif" font-size="14.00">class = True</text>
</g>
<!-- 2&#45;&gt;3 -->
<g id="edge3" class="edge">
<title>2&#45;&gt;3</title>
<path fill="none" stroke="black" d="M199.82,-190.91C184.32,-181.11 167.65,-170.56 151.79,-160.53"/>
<polygon fill="black" stroke="black" points="153.39,-157.41 143.07,-155.02 149.65,-163.32 153.39,-157.41"/>
</g>
<!-- 20 -->
<g id="node7" class="node">
<title>20</title>
<polygon fill="#c4e2f7" stroke="black" points="352,-155 176,-155 176,-72 352,-72 352,-155"/>
<text text-anchor="middle" x="264" y="-139.8" font-family="Times,serif" font-size="14.00">sdComp &lt;= 0.065</text>
<text text-anchor="middle" x="264" y="-124.8" font-family="Times,serif" font-size="14.00">gini = 0.485</text>
<text text-anchor="middle" x="264" y="-109.8" font-family="Times,serif" font-size="14.00">samples = 24254</text>
<text text-anchor="middle" x="264" y="-94.8" font-family="Times,serif" font-size="14.00">value = [9994, 14260]</text>
<text text-anchor="middle" x="264" y="-79.8" font-family="Times,serif" font-size="14.00">class = True</text>
</g>
<!-- 2&#45;&gt;20 -->
<g id="edge6" class="edge">
<title>2&#45;&gt;20</title>
<path fill="none" stroke="black" d="M264,-190.91C264,-182.65 264,-173.86 264,-165.3"/>
<polygon fill="black" stroke="black" points="267.5,-165.02 264,-155.02 260.5,-165.02 267.5,-165.02"/>
</g>
<!-- 4 -->
<g id="node5" class="node">
<title>4</title>
<polygon fill="#c0c0c0" stroke="black" points="70,-36 16,-36 16,0 70,0 70,-36"/>
<text text-anchor="middle" x="43" y="-14.3" font-family="Times,serif" font-size="14.00">(...)</text>
</g>
<!-- 3&#45;&gt;4 -->
<g id="edge4" class="edge">
<title>3&#45;&gt;4</title>
<path fill="none" stroke="black" d="M63.31,-71.76C59.96,-63.04 56.49,-54.04 53.39,-45.99"/>
<polygon fill="black" stroke="black" points="56.56,-44.48 49.7,-36.41 50.03,-46.99 56.56,-44.48"/>
</g>
<!-- 9 -->
<g id="node6" class="node">
<title>9</title>
<polygon fill="#c0c0c0" stroke="black" points="142,-36 88,-36 88,0 142,0 142,-36"/>
<text text-anchor="middle" x="115" y="-14.3" font-family="Times,serif" font-size="14.00">(...)</text>
</g>
<!-- 3&#45;&gt;9 -->
<g id="edge5" class="edge">
<title>3&#45;&gt;9</title>
<path fill="none" stroke="black" d="M94.69,-71.76C98.04,-63.04 101.51,-54.04 104.61,-45.99"/>
<polygon fill="black" stroke="black" points="107.97,-46.99 108.3,-36.41 101.44,-44.48 107.97,-46.99"/>
</g>
<!-- 21 -->
<g id="node8" class="node">
<title>21</title>
<polygon fill="#c0c0c0" stroke="black" points="268,-36 214,-36 214,0 268,0 268,-36"/>
<text text-anchor="middle" x="241" y="-14.3" font-family="Times,serif" font-size="14.00">(...)</text>
</g>
<!-- 20&#45;&gt;21 -->
<g id="edge7" class="edge">
<title>20&#45;&gt;21</title>
<path fill="none" stroke="black" d="M253.98,-71.76C251.86,-63.14 249.67,-54.24 247.71,-46.26"/>
<polygon fill="black" stroke="black" points="251.07,-45.28 245.28,-36.41 244.27,-46.95 251.07,-45.28"/>
</g>
<!-- 104 -->
<g id="node9" class="node">
<title>104</title>
<polygon fill="#c0c0c0" stroke="black" points="340,-36 286,-36 286,0 340,0 340,-36"/>
<text text-anchor="middle" x="313" y="-14.3" font-family="Times,serif" font-size="14.00">(...)</text>
</g>
<!-- 20&#45;&gt;104 -->
<g id="edge8" class="edge">
<title>20&#45;&gt;104</title>
<path fill="none" stroke="black" d="M285.35,-71.76C290.02,-62.85 294.85,-53.64 299.13,-45.46"/>
<polygon fill="black" stroke="black" points="302.34,-46.89 303.88,-36.41 296.14,-43.64 302.34,-46.89"/>
</g>
<!-- 230 -->
<g id="node11" class="node">
<title>230</title>
<polygon fill="#e9f4fc" stroke="black" points="554.5,-155 369.5,-155 369.5,-72 554.5,-72 554.5,-155"/>
<text text-anchor="middle" x="462" y="-139.8" font-family="Times,serif" font-size="14.00">graphDepth &lt;= 3.5</text>
<text text-anchor="middle" x="462" y="-124.8" font-family="Times,serif" font-size="14.00">gini = 0.498</text>
<text text-anchor="middle" x="462" y="-109.8" font-family="Times,serif" font-size="14.00">samples = 41083</text>
<text text-anchor="middle" x="462" y="-94.8" font-family="Times,serif" font-size="14.00">value = [19308, 21775]</text>
<text text-anchor="middle" x="462" y="-79.8" font-family="Times,serif" font-size="14.00">class = True</text>
</g>
<!-- 229&#45;&gt;230 -->
<g id="edge10" class="edge">
<title>229&#45;&gt;230</title>
<path fill="none" stroke="black" d="M523.39,-190.91C516.17,-181.92 508.45,-172.32 501.01,-163.05"/>
<polygon fill="black" stroke="black" points="503.55,-160.62 494.56,-155.02 498.09,-165.01 503.55,-160.62"/>
</g>
<!-- 289 -->
<g id="node14" class="node">
<title>289</title>
<polygon fill="#cde6f8" stroke="black" points="748,-155 572,-155 572,-72 748,-72 748,-155"/>
<text text-anchor="middle" x="660" y="-139.8" font-family="Times,serif" font-size="14.00">sdComp &lt;= 0.065</text>
<text text-anchor="middle" x="660" y="-124.8" font-family="Times,serif" font-size="14.00">gini = 0.49</text>
<text text-anchor="middle" x="660" y="-109.8" font-family="Times,serif" font-size="14.00">samples = 18954</text>
<text text-anchor="middle" x="660" y="-94.8" font-family="Times,serif" font-size="14.00">value = [8114, 10840]</text>
<text text-anchor="middle" x="660" y="-79.8" font-family="Times,serif" font-size="14.00">class = True</text>
</g>
<!-- 229&#45;&gt;289 -->
<g id="edge13" class="edge">
<title>229&#45;&gt;289</title>
<path fill="none" stroke="black" d="M592.08,-190.91C600.15,-181.83 608.78,-172.12 617.09,-162.77"/>
<polygon fill="black" stroke="black" points="619.95,-164.82 623.98,-155.02 614.72,-160.17 619.95,-164.82"/>
</g>
<!-- 231 -->
<g id="node12" class="node">
<title>231</title>
<polygon fill="#c0c0c0" stroke="black" points="439,-36 385,-36 385,0 439,0 439,-36"/>
<text text-anchor="middle" x="412" y="-14.3" font-family="Times,serif" font-size="14.00">(...)</text>
</g>
<!-- 230&#45;&gt;231 -->
<g id="edge11" class="edge">
<title>230&#45;&gt;231</title>
<path fill="none" stroke="black" d="M440.21,-71.76C435.45,-62.85 430.52,-53.64 426.15,-45.46"/>
<polygon fill="black" stroke="black" points="429.11,-43.57 421.31,-36.41 422.94,-46.87 429.11,-43.57"/>
</g>
<!-- 260 -->
<g id="node13" class="node">
<title>260</title>
<polygon fill="#c0c0c0" stroke="black" points="511,-36 457,-36 457,0 511,0 511,-36"/>
<text text-anchor="middle" x="484" y="-14.3" font-family="Times,serif" font-size="14.00">(...)</text>
</g>
<!-- 230&#45;&gt;260 -->
<g id="edge12" class="edge">
<title>230&#45;&gt;260</title>
<path fill="none" stroke="black" d="M471.59,-71.76C473.61,-63.14 475.71,-54.24 477.59,-46.26"/>
<polygon fill="black" stroke="black" points="481.02,-46.94 479.9,-36.41 474.21,-45.34 481.02,-46.94"/>
</g>
<!-- 290 -->
<g id="node15" class="node">
<title>290</title>
<polygon fill="#c0c0c0" stroke="black" points="637,-36 583,-36 583,0 637,0 637,-36"/>
<text text-anchor="middle" x="610" y="-14.3" font-family="Times,serif" font-size="14.00">(...)</text>
</g>
<!-- 289&#45;&gt;290 -->
<g id="edge14" class="edge">
<title>289&#45;&gt;290</title>
<path fill="none" stroke="black" d="M638.21,-71.76C633.45,-62.85 628.52,-53.64 624.15,-45.46"/>
<polygon fill="black" stroke="black" points="627.11,-43.57 619.31,-36.41 620.94,-46.87 627.11,-43.57"/>
</g>
<!-- 361 -->
<g id="node16" class="node">
<title>361</title>
<polygon fill="#c0c0c0" stroke="black" points="709,-36 655,-36 655,0 709,0 709,-36"/>
<text text-anchor="middle" x="682" y="-14.3" font-family="Times,serif" font-size="14.00">(...)</text>
</g>
<!-- 289&#45;&gt;361 -->
<g id="edge15" class="edge">
<title>289&#45;&gt;361</title>
<path fill="none" stroke="black" d="M669.59,-71.76C671.61,-63.14 673.71,-54.24 675.59,-46.26"/>
<polygon fill="black" stroke="black" points="679.02,-46.94 677.9,-36.41 672.21,-45.34 679.02,-46.94"/>
</g>
<!-- 469 -->
<g id="node18" class="node">
<title>469</title>
<polygon fill="#76bbed" stroke="black" points="1031.5,-274 846.5,-274 846.5,-191 1031.5,-191 1031.5,-274"/>
<text text-anchor="middle" x="939" y="-258.8" font-family="Times,serif" font-size="14.00">CCR &lt;= 5.5</text>
<text text-anchor="middle" x="939" y="-243.8" font-family="Times,serif" font-size="14.00">gini = 0.361</text>
<text text-anchor="middle" x="939" y="-228.8" font-family="Times,serif" font-size="14.00">samples = 56471</text>
<text text-anchor="middle" x="939" y="-213.8" font-family="Times,serif" font-size="14.00">value = [13361, 43110]</text>
<text text-anchor="middle" x="939" y="-198.8" font-family="Times,serif" font-size="14.00">class = True</text>
</g>
<!-- 468&#45;&gt;469 -->
<g id="edge17" class="edge">
<title>468&#45;&gt;469</title>
<path fill="none" stroke="black" d="M939,-309.91C939,-301.65 939,-292.86 939,-284.3"/>
<polygon fill="black" stroke="black" points="942.5,-284.02 939,-274.02 935.5,-284.02 942.5,-284.02"/>
</g>
<!-- 738 -->
<g id="node25" class="node">
<title>738</title>
<polygon fill="#9dcff2" stroke="black" points="1315,-274 1139,-274 1139,-191 1315,-191 1315,-274"/>
<text text-anchor="middle" x="1227" y="-258.8" font-family="Times,serif" font-size="14.00">sdComm &lt;= 2.0</text>
<text text-anchor="middle" x="1227" y="-243.8" font-family="Times,serif" font-size="14.00">gini = 0.446</text>
<text text-anchor="middle" x="1227" y="-228.8" font-family="Times,serif" font-size="14.00">samples = 17942</text>
<text text-anchor="middle" x="1227" y="-213.8" font-family="Times,serif" font-size="14.00">value = [6035, 11907]</text>
<text text-anchor="middle" x="1227" y="-198.8" font-family="Times,serif" font-size="14.00">class = True</text>
</g>
<!-- 468&#45;&gt;738 -->
<g id="edge24" class="edge">
<title>468&#45;&gt;738</title>
<path fill="none" stroke="black" d="M1031.71,-312.84C1062.86,-300.18 1097.68,-286.03 1129.21,-273.23"/>
<polygon fill="black" stroke="black" points="1130.93,-276.31 1138.88,-269.3 1128.29,-269.82 1130.93,-276.31"/>
</g>
<!-- 470 -->
<g id="node19" class="node">
<title>470</title>
<polygon fill="#9ecff2" stroke="black" points="932.5,-155 765.5,-155 765.5,-72 932.5,-72 932.5,-155"/>
<text text-anchor="middle" x="849" y="-139.8" font-family="Times,serif" font-size="14.00">nbproc &lt;= 4.5</text>
<text text-anchor="middle" x="849" y="-124.8" font-family="Times,serif" font-size="14.00">gini = 0.447</text>
<text text-anchor="middle" x="849" y="-109.8" font-family="Times,serif" font-size="14.00">samples = 12053</text>
<text text-anchor="middle" x="849" y="-94.8" font-family="Times,serif" font-size="14.00">value = [4063, 7990]</text>
<text text-anchor="middle" x="849" y="-79.8" font-family="Times,serif" font-size="14.00">class = True</text>
</g>
<!-- 469&#45;&gt;470 -->
<g id="edge18" class="edge">
<title>469&#45;&gt;470</title>
<path fill="none" stroke="black" d="M907.77,-190.91C900.86,-181.92 893.47,-172.32 886.35,-163.05"/>
<polygon fill="black" stroke="black" points="889.04,-160.81 880.17,-155.02 883.49,-165.08 889.04,-160.81"/>
</g>
<!-- 565 -->
<g id="node22" class="node">
<title>565</title>
<polygon fill="#6db7ec" stroke="black" points="1126,-155 950,-155 950,-72 1126,-72 1126,-155"/>
<text text-anchor="middle" x="1038" y="-139.8" font-family="Times,serif" font-size="14.00">graphDepth &lt;= 25.5</text>
<text text-anchor="middle" x="1038" y="-124.8" font-family="Times,serif" font-size="14.00">gini = 0.331</text>
<text text-anchor="middle" x="1038" y="-109.8" font-family="Times,serif" font-size="14.00">samples = 44418</text>
<text text-anchor="middle" x="1038" y="-94.8" font-family="Times,serif" font-size="14.00">value = [9298, 35120]</text>
<text text-anchor="middle" x="1038" y="-79.8" font-family="Times,serif" font-size="14.00">class = True</text>
</g>
<!-- 469&#45;&gt;565 -->
<g id="edge21" class="edge">
<title>469&#45;&gt;565</title>
<path fill="none" stroke="black" d="M973.35,-190.91C981.03,-181.83 989.24,-172.12 997.16,-162.77"/>
<polygon fill="black" stroke="black" points="999.93,-164.92 1003.71,-155.02 994.58,-160.39 999.93,-164.92"/>
</g>
<!-- 471 -->
<g id="node20" class="node">
<title>471</title>
<polygon fill="#c0c0c0" stroke="black" points="826,-36 772,-36 772,0 826,0 826,-36"/>
<text text-anchor="middle" x="799" y="-14.3" font-family="Times,serif" font-size="14.00">(...)</text>
</g>
<!-- 470&#45;&gt;471 -->
<g id="edge19" class="edge">
<title>470&#45;&gt;471</title>
<path fill="none" stroke="black" d="M827.21,-71.76C822.45,-62.85 817.52,-53.64 813.15,-45.46"/>
<polygon fill="black" stroke="black" points="816.11,-43.57 808.31,-36.41 809.94,-46.87 816.11,-43.57"/>
</g>
<!-- 518 -->
<g id="node21" class="node">
<title>518</title>
<polygon fill="#c0c0c0" stroke="black" points="898,-36 844,-36 844,0 898,0 898,-36"/>
<text text-anchor="middle" x="871" y="-14.3" font-family="Times,serif" font-size="14.00">(...)</text>
</g>
<!-- 470&#45;&gt;518 -->
<g id="edge20" class="edge">
<title>470&#45;&gt;518</title>
<path fill="none" stroke="black" d="M858.59,-71.76C860.61,-63.14 862.71,-54.24 864.59,-46.26"/>
<polygon fill="black" stroke="black" points="868.02,-46.94 866.9,-36.41 861.21,-45.34 868.02,-46.94"/>
</g>
<!-- 566 -->
<g id="node23" class="node">
<title>566</title>
<polygon fill="#c0c0c0" stroke="black" points="1015,-36 961,-36 961,0 1015,0 1015,-36"/>
<text text-anchor="middle" x="988" y="-14.3" font-family="Times,serif" font-size="14.00">(...)</text>
</g>
<!-- 565&#45;&gt;566 -->
<g id="edge22" class="edge">
<title>565&#45;&gt;566</title>
<path fill="none" stroke="black" d="M1016.21,-71.76C1011.45,-62.85 1006.52,-53.64 1002.15,-45.46"/>
<polygon fill="black" stroke="black" points="1005.11,-43.57 997.31,-36.41 998.94,-46.87 1005.11,-43.57"/>
</g>
<!-- 715 -->
<g id="node24" class="node">
<title>715</title>
<polygon fill="#c0c0c0" stroke="black" points="1087,-36 1033,-36 1033,0 1087,0 1087,-36"/>
<text text-anchor="middle" x="1060" y="-14.3" font-family="Times,serif" font-size="14.00">(...)</text>
</g>
<!-- 565&#45;&gt;715 -->
<g id="edge23" class="edge">
<title>565&#45;&gt;715</title>
<path fill="none" stroke="black" d="M1047.59,-71.76C1049.61,-63.14 1051.71,-54.24 1053.59,-46.26"/>
<polygon fill="black" stroke="black" points="1057.02,-46.94 1055.9,-36.41 1050.21,-45.34 1057.02,-46.94"/>
</g>
<!-- 739 -->
<g id="node26" class="node">
<title>739</title>
<polygon fill="#b4daf5" stroke="black" points="1310.5,-155 1143.5,-155 1143.5,-72 1310.5,-72 1310.5,-155"/>
<text text-anchor="middle" x="1227" y="-139.8" font-family="Times,serif" font-size="14.00">nbproc &lt;= 4.5</text>
<text text-anchor="middle" x="1227" y="-124.8" font-family="Times,serif" font-size="14.00">gini = 0.473</text>
<text text-anchor="middle" x="1227" y="-109.8" font-family="Times,serif" font-size="14.00">samples = 7172</text>
<text text-anchor="middle" x="1227" y="-94.8" font-family="Times,serif" font-size="14.00">value = [2746, 4426]</text>
<text text-anchor="middle" x="1227" y="-79.8" font-family="Times,serif" font-size="14.00">class = True</text>
</g>
<!-- 738&#45;&gt;739 -->
<g id="edge25" class="edge">
<title>738&#45;&gt;739</title>
<path fill="none" stroke="black" d="M1227,-190.91C1227,-182.65 1227,-173.86 1227,-165.3"/>
<polygon fill="black" stroke="black" points="1230.5,-165.02 1227,-155.02 1223.5,-165.02 1230.5,-165.02"/>
</g>
<!-- 770 -->
<g id="node29" class="node">
<title>770</title>
<polygon fill="#90c8f0" stroke="black" points="1495.5,-155 1328.5,-155 1328.5,-72 1495.5,-72 1495.5,-155"/>
<text text-anchor="middle" x="1412" y="-139.8" font-family="Times,serif" font-size="14.00">graphSize &lt;= 22.5</text>
<text text-anchor="middle" x="1412" y="-124.8" font-family="Times,serif" font-size="14.00">gini = 0.424</text>
<text text-anchor="middle" x="1412" y="-109.8" font-family="Times,serif" font-size="14.00">samples = 10770</text>
<text text-anchor="middle" x="1412" y="-94.8" font-family="Times,serif" font-size="14.00">value = [3289, 7481]</text>
<text text-anchor="middle" x="1412" y="-79.8" font-family="Times,serif" font-size="14.00">class = True</text>
</g>
<!-- 738&#45;&gt;770 -->
<g id="edge28" class="edge">
<title>738&#45;&gt;770</title>
<path fill="none" stroke="black" d="M1291.18,-190.91C1306.68,-181.11 1323.35,-170.56 1339.21,-160.53"/>
<polygon fill="black" stroke="black" points="1341.35,-163.32 1347.93,-155.02 1337.61,-157.41 1341.35,-163.32"/>
</g>
<!-- 740 -->
<g id="node27" class="node">
<title>740</title>
<polygon fill="#c0c0c0" stroke="black" points="1218,-36 1164,-36 1164,0 1218,0 1218,-36"/>
<text text-anchor="middle" x="1191" y="-14.3" font-family="Times,serif" font-size="14.00">(...)</text>
</g>
<!-- 739&#45;&gt;740 -->
<g id="edge26" class="edge">
<title>739&#45;&gt;740</title>
<path fill="none" stroke="black" d="M1211.31,-71.76C1207.96,-63.04 1204.49,-54.04 1201.39,-45.99"/>
<polygon fill="black" stroke="black" points="1204.56,-44.48 1197.7,-36.41 1198.03,-46.99 1204.56,-44.48"/>
</g>
<!-- 755 -->
<g id="node28" class="node">
<title>755</title>
<polygon fill="#c0c0c0" stroke="black" points="1290,-36 1236,-36 1236,0 1290,0 1290,-36"/>
<text text-anchor="middle" x="1263" y="-14.3" font-family="Times,serif" font-size="14.00">(...)</text>
</g>
<!-- 739&#45;&gt;755 -->
<g id="edge27" class="edge">
<title>739&#45;&gt;755</title>
<path fill="none" stroke="black" d="M1242.69,-71.76C1246.04,-63.04 1249.51,-54.04 1252.61,-45.99"/>
<polygon fill="black" stroke="black" points="1255.97,-46.99 1256.3,-36.41 1249.44,-44.48 1255.97,-46.99"/>
</g>
<!-- 771 -->
<g id="node30" class="node">
<title>771</title>
<polygon fill="#c0c0c0" stroke="black" points="1403,-36 1349,-36 1349,0 1403,0 1403,-36"/>
<text text-anchor="middle" x="1376" y="-14.3" font-family="Times,serif" font-size="14.00">(...)</text>
</g>
<!-- 770&#45;&gt;771 -->
<g id="edge29" class="edge">
<title>770&#45;&gt;771</title>
<path fill="none" stroke="black" d="M1396.31,-71.76C1392.96,-63.04 1389.49,-54.04 1386.39,-45.99"/>
<polygon fill="black" stroke="black" points="1389.56,-44.48 1382.7,-36.41 1383.03,-46.99 1389.56,-44.48"/>
</g>
<!-- 786 -->
<g id="node31" class="node">
<title>786</title>
<polygon fill="#c0c0c0" stroke="black" points="1475,-36 1421,-36 1421,0 1475,0 1475,-36"/>
<text text-anchor="middle" x="1448" y="-14.3" font-family="Times,serif" font-size="14.00">(...)</text>
</g>
<!-- 770&#45;&gt;786 -->
<g id="edge30" class="edge">
<title>770&#45;&gt;786</title>
<path fill="none" stroke="black" d="M1427.69,-71.76C1431.04,-63.04 1434.51,-54.04 1437.61,-45.99"/>
<polygon fill="black" stroke="black" points="1440.97,-46.99 1441.3,-36.41 1434.44,-44.48 1440.97,-46.99"/>
</g>
</g>
</svg>
