<?xml version="1.0" encoding="UTF-8" standalone="no"?>
<!DOCTYPE svg PUBLIC "-//W3C//DTD SVG 1.1//EN"
 "http://www.w3.org/Graphics/SVG/1.1/DTD/svg11.dtd">
<!-- Generated by graphviz version 2.43.0 (0)
 -->
<!-- Title: Tree Pages: 1 -->
<svg width="1325pt" height="520pt"
 viewBox="0.00 0.00 1324.50 520.00" xmlns="http://www.w3.org/2000/svg" xmlns:xlink="http://www.w3.org/1999/xlink">
<g id="graph0" class="graph" transform="scale(1 1) rotate(0) translate(4 516)">
<title>Tree</title>
<polygon fill="white" stroke="transparent" points="-4,4 -4,-516 1320.5,-516 1320.5,4 -4,4"/>
<!-- 0 -->
<g id="node1" class="node">
<title>0</title>
<polygon fill="#f5cfb4" stroke="black" points="733.5,-512 566.5,-512 566.5,-429 733.5,-429 733.5,-512"/>
<text text-anchor="middle" x="650" y="-496.8" font-family="Times,serif" font-size="14.00">nbproc &lt;= 4.5</text>
<text text-anchor="middle" x="650" y="-481.8" font-family="Times,serif" font-size="14.00">gini = 0.473</text>
<text text-anchor="middle" x="650" y="-466.8" font-family="Times,serif" font-size="14.00">samples = 4320</text>
<text text-anchor="middle" x="650" y="-451.8" font-family="Times,serif" font-size="14.00">value = [2666, 1654]</text>
<text text-anchor="middle" x="650" y="-436.8" font-family="Times,serif" font-size="14.00">class = False</text>
</g>
<!-- 1 -->
<g id="node2" class="node">
<title>1</title>
<polygon fill="#f9e2d2" stroke="black" points="572,-393 414,-393 414,-310 572,-310 572,-393"/>
<text text-anchor="middle" x="493" y="-377.8" font-family="Times,serif" font-size="14.00">sdComp &lt;= 0.65</text>
<text text-anchor="middle" x="493" y="-362.8" font-family="Times,serif" font-size="14.00">gini = 0.492</text>
<text text-anchor="middle" x="493" y="-347.8" font-family="Times,serif" font-size="14.00">samples = 2160</text>
<text text-anchor="middle" x="493" y="-332.8" font-family="Times,serif" font-size="14.00">value = [1219, 941]</text>
<text text-anchor="middle" x="493" y="-317.8" font-family="Times,serif" font-size="14.00">class = False</text>
</g>
<!-- 0&#45;&gt;1 -->
<g id="edge1" class="edge">
<title>0&#45;&gt;1</title>
<path fill="none" stroke="black" d="M595.53,-428.91C582.62,-419.29 568.75,-408.95 555.52,-399.09"/>
<polygon fill="black" stroke="black" points="557.48,-396.19 547.37,-393.02 553.3,-401.8 557.48,-396.19"/>
<text text-anchor="middle" x="550.99" y="-414.06" font-family="Times,serif" font-size="14.00">True</text>
</g>
<!-- 426 -->
<g id="node17" class="node">
<title>426</title>
<polygon fill="#f2bf9b" stroke="black" points="900,-393 742,-393 742,-310 900,-310 900,-393"/>
<text text-anchor="middle" x="821" y="-377.8" font-family="Times,serif" font-size="14.00">graphSize &lt;= 75.0</text>
<text text-anchor="middle" x="821" y="-362.8" font-family="Times,serif" font-size="14.00">gini = 0.442</text>
<text text-anchor="middle" x="821" y="-347.8" font-family="Times,serif" font-size="14.00">samples = 2160</text>
<text text-anchor="middle" x="821" y="-332.8" font-family="Times,serif" font-size="14.00">value = [1447, 713]</text>
<text text-anchor="middle" x="821" y="-317.8" font-family="Times,serif" font-size="14.00">class = False</text>
</g>
<!-- 0&#45;&gt;426 -->
<g id="edge16" class="edge">
<title>0&#45;&gt;426</title>
<path fill="none" stroke="black" d="M709.33,-428.91C723.52,-419.2 738.78,-408.76 753.31,-398.81"/>
<polygon fill="black" stroke="black" points="755.5,-401.56 761.78,-393.02 751.55,-395.78 755.5,-401.56"/>
<text text-anchor="middle" x="757.17" y="-413.89" font-family="Times,serif" font-size="14.00">False</text>
</g>
<!-- 2 -->
<g id="node3" class="node">
<title>2</title>
<polygon fill="#fbfdfe" stroke="black" points="326.5,-274 173.5,-274 173.5,-191 326.5,-191 326.5,-274"/>
<text text-anchor="middle" x="250" y="-258.8" font-family="Times,serif" font-size="14.00">graphSize &lt;= 22.5</text>
<text text-anchor="middle" x="250" y="-243.8" font-family="Times,serif" font-size="14.00">gini = 0.5</text>
<text text-anchor="middle" x="250" y="-228.8" font-family="Times,serif" font-size="14.00">samples = 1200</text>
<text text-anchor="middle" x="250" y="-213.8" font-family="Times,serif" font-size="14.00">value = [594, 606]</text>
<text text-anchor="middle" x="250" y="-198.8" font-family="Times,serif" font-size="14.00">class = True</text>
</g>
<!-- 1&#45;&gt;2 -->
<g id="edge2" class="edge">
<title>1&#45;&gt;2</title>
<path fill="none" stroke="black" d="M413.77,-312.35C388.85,-300.35 361.23,-287.05 335.87,-274.84"/>
<polygon fill="black" stroke="black" points="337.17,-271.59 326.64,-270.4 334.13,-277.89 337.17,-271.59"/>
</g>
<!-- 235 -->
<g id="node10" class="node">
<title>235</title>
<polygon fill="#f3c5a3" stroke="black" points="572,-274 414,-274 414,-191 572,-191 572,-274"/>
<text text-anchor="middle" x="493" y="-258.8" font-family="Times,serif" font-size="14.00">graphDepth &lt;= 3.5</text>
<text text-anchor="middle" x="493" y="-243.8" font-family="Times,serif" font-size="14.00">gini = 0.454</text>
<text text-anchor="middle" x="493" y="-228.8" font-family="Times,serif" font-size="14.00">samples = 960</text>
<text text-anchor="middle" x="493" y="-213.8" font-family="Times,serif" font-size="14.00">value = [625, 335]</text>
<text text-anchor="middle" x="493" y="-198.8" font-family="Times,serif" font-size="14.00">class = False</text>
</g>
<!-- 1&#45;&gt;235 -->
<g id="edge9" class="edge">
<title>1&#45;&gt;235</title>
<path fill="none" stroke="black" d="M493,-309.91C493,-301.65 493,-292.86 493,-284.3"/>
<polygon fill="black" stroke="black" points="496.5,-284.02 493,-274.02 489.5,-284.02 496.5,-284.02"/>
</g>
<!-- 3 -->
<g id="node4" class="node">
<title>3</title>
<polygon fill="#f3c4a2" stroke="black" points="158,-155 0,-155 0,-72 158,-72 158,-155"/>
<text text-anchor="middle" x="79" y="-139.8" font-family="Times,serif" font-size="14.00">graphDepth &lt;= 3.5</text>
<text text-anchor="middle" x="79" y="-124.8" font-family="Times,serif" font-size="14.00">gini = 0.453</text>
<text text-anchor="middle" x="79" y="-109.8" font-family="Times,serif" font-size="14.00">samples = 300</text>
<text text-anchor="middle" x="79" y="-94.8" font-family="Times,serif" font-size="14.00">value = [196, 104]</text>
<text text-anchor="middle" x="79" y="-79.8" font-family="Times,serif" font-size="14.00">class = False</text>
</g>
<!-- 2&#45;&gt;3 -->
<g id="edge3" class="edge">
<title>2&#45;&gt;3</title>
<path fill="none" stroke="black" d="M190.67,-190.91C176.48,-181.2 161.22,-170.76 146.69,-160.81"/>
<polygon fill="black" stroke="black" points="148.45,-157.78 138.22,-155.02 144.5,-163.56 148.45,-157.78"/>
</g>
<!-- 62 -->
<g id="node7" class="node">
<title>62</title>
<polygon fill="#d6ebfa" stroke="black" points="324.5,-155 175.5,-155 175.5,-72 324.5,-72 324.5,-155"/>
<text text-anchor="middle" x="250" y="-139.8" font-family="Times,serif" font-size="14.00">CCR &lt;= 0.55</text>
<text text-anchor="middle" x="250" y="-124.8" font-family="Times,serif" font-size="14.00">gini = 0.493</text>
<text text-anchor="middle" x="250" y="-109.8" font-family="Times,serif" font-size="14.00">samples = 900</text>
<text text-anchor="middle" x="250" y="-94.8" font-family="Times,serif" font-size="14.00">value = [398, 502]</text>
<text text-anchor="middle" x="250" y="-79.8" font-family="Times,serif" font-size="14.00">class = True</text>
</g>
<!-- 2&#45;&gt;62 -->
<g id="edge6" class="edge">
<title>2&#45;&gt;62</title>
<path fill="none" stroke="black" d="M250,-190.91C250,-182.65 250,-173.86 250,-165.3"/>
<polygon fill="black" stroke="black" points="253.5,-165.02 250,-155.02 246.5,-165.02 253.5,-165.02"/>
</g>
<!-- 4 -->
<g id="node5" class="node">
<title>4</title>
<polygon fill="#c0c0c0" stroke="black" points="70,-36 16,-36 16,0 70,0 70,-36"/>
<text text-anchor="middle" x="43" y="-14.3" font-family="Times,serif" font-size="14.00">(...)</text>
</g>
<!-- 3&#45;&gt;4 -->
<g id="edge4" class="edge">
<title>3&#45;&gt;4</title>
<path fill="none" stroke="black" d="M63.31,-71.76C59.96,-63.04 56.49,-54.04 53.39,-45.99"/>
<polygon fill="black" stroke="black" points="56.56,-44.48 49.7,-36.41 50.03,-46.99 56.56,-44.48"/>
</g>
<!-- 33 -->
<g id="node6" class="node">
<title>33</title>
<polygon fill="#c0c0c0" stroke="black" points="142,-36 88,-36 88,0 142,0 142,-36"/>
<text text-anchor="middle" x="115" y="-14.3" font-family="Times,serif" font-size="14.00">(...)</text>
</g>
<!-- 3&#45;&gt;33 -->
<g id="edge5" class="edge">
<title>3&#45;&gt;33</title>
<path fill="none" stroke="black" d="M94.69,-71.76C98.04,-63.04 101.51,-54.04 104.61,-45.99"/>
<polygon fill="black" stroke="black" points="107.97,-46.99 108.3,-36.41 101.44,-44.48 107.97,-46.99"/>
</g>
<!-- 63 -->
<g id="node8" class="node">
<title>63</title>
<polygon fill="#c0c0c0" stroke="black" points="232,-36 178,-36 178,0 232,0 232,-36"/>
<text text-anchor="middle" x="205" y="-14.3" font-family="Times,serif" font-size="14.00">(...)</text>
</g>
<!-- 62&#45;&gt;63 -->
<g id="edge7" class="edge">
<title>62&#45;&gt;63</title>
<path fill="none" stroke="black" d="M230.39,-71.76C226.1,-62.85 221.67,-53.64 217.73,-45.46"/>
<polygon fill="black" stroke="black" points="220.87,-43.9 213.38,-36.41 214.56,-46.93 220.87,-43.9"/>
</g>
<!-- 166 -->
<g id="node9" class="node">
<title>166</title>
<polygon fill="#c0c0c0" stroke="black" points="304,-36 250,-36 250,0 304,0 304,-36"/>
<text text-anchor="middle" x="277" y="-14.3" font-family="Times,serif" font-size="14.00">(...)</text>
</g>
<!-- 62&#45;&gt;166 -->
<g id="edge8" class="edge">
<title>62&#45;&gt;166</title>
<path fill="none" stroke="black" d="M261.76,-71.76C264.25,-63.14 266.82,-54.24 269.13,-46.26"/>
<polygon fill="black" stroke="black" points="272.56,-46.98 271.97,-36.41 265.84,-45.04 272.56,-46.98"/>
</g>
<!-- 236 -->
<g id="node11" class="node">
<title>236</title>
<polygon fill="#f7d8c2" stroke="black" points="473.5,-155 342.5,-155 342.5,-72 473.5,-72 473.5,-155"/>
<text text-anchor="middle" x="408" y="-139.8" font-family="Times,serif" font-size="14.00">sdComp &lt;= 2.0</text>
<text text-anchor="middle" x="408" y="-124.8" font-family="Times,serif" font-size="14.00">gini = 0.483</text>
<text text-anchor="middle" x="408" y="-109.8" font-family="Times,serif" font-size="14.00">samples = 120</text>
<text text-anchor="middle" x="408" y="-94.8" font-family="Times,serif" font-size="14.00">value = [71, 49]</text>
<text text-anchor="middle" x="408" y="-79.8" font-family="Times,serif" font-size="14.00">class = False</text>
</g>
<!-- 235&#45;&gt;236 -->
<g id="edge10" class="edge">
<title>235&#45;&gt;236</title>
<path fill="none" stroke="black" d="M463.51,-190.91C457.05,-182.01 450.14,-172.51 443.48,-163.33"/>
<polygon fill="black" stroke="black" points="446.15,-161.05 437.44,-155.02 440.48,-165.17 446.15,-161.05"/>
</g>
<!-- 259 -->
<g id="node14" class="node">
<title>259</title>
<polygon fill="#f2c29f" stroke="black" points="644.5,-155 491.5,-155 491.5,-72 644.5,-72 644.5,-155"/>
<text text-anchor="middle" x="568" y="-139.8" font-family="Times,serif" font-size="14.00">graphSize &lt;= 75.0</text>
<text text-anchor="middle" x="568" y="-124.8" font-family="Times,serif" font-size="14.00">gini = 0.449</text>
<text text-anchor="middle" x="568" y="-109.8" font-family="Times,serif" font-size="14.00">samples = 840</text>
<text text-anchor="middle" x="568" y="-94.8" font-family="Times,serif" font-size="14.00">value = [554, 286]</text>
<text text-anchor="middle" x="568" y="-79.8" font-family="Times,serif" font-size="14.00">class = False</text>
</g>
<!-- 235&#45;&gt;259 -->
<g id="edge13" class="edge">
<title>235&#45;&gt;259</title>
<path fill="none" stroke="black" d="M519.02,-190.91C524.66,-182.1 530.69,-172.7 536.52,-163.61"/>
<polygon fill="black" stroke="black" points="539.57,-165.33 542.03,-155.02 533.68,-161.55 539.57,-165.33"/>
</g>
<!-- 237 -->
<g id="node12" class="node">
<title>237</title>
<polygon fill="#c0c0c0" stroke="black" points="400,-36 346,-36 346,0 400,0 400,-36"/>
<text text-anchor="middle" x="373" y="-14.3" font-family="Times,serif" font-size="14.00">(...)</text>
</g>
<!-- 236&#45;&gt;237 -->
<g id="edge11" class="edge">
<title>236&#45;&gt;237</title>
<path fill="none" stroke="black" d="M392.75,-71.76C389.49,-63.04 386.12,-54.04 383.1,-45.99"/>
<polygon fill="black" stroke="black" points="386.3,-44.54 379.52,-36.41 379.74,-47 386.3,-44.54"/>
</g>
<!-- 248 -->
<g id="node13" class="node">
<title>248</title>
<polygon fill="#c0c0c0" stroke="black" points="472,-36 418,-36 418,0 472,0 472,-36"/>
<text text-anchor="middle" x="445" y="-14.3" font-family="Times,serif" font-size="14.00">(...)</text>
</g>
<!-- 236&#45;&gt;248 -->
<g id="edge12" class="edge">
<title>236&#45;&gt;248</title>
<path fill="none" stroke="black" d="M424.12,-71.76C427.61,-62.94 431.21,-53.84 434.42,-45.72"/>
<polygon fill="black" stroke="black" points="437.69,-46.99 438.11,-36.41 431.18,-44.42 437.69,-46.99"/>
</g>
<!-- 260 -->
<g id="node15" class="node">
<title>260</title>
<polygon fill="#c0c0c0" stroke="black" points="556,-36 502,-36 502,0 556,0 556,-36"/>
<text text-anchor="middle" x="529" y="-14.3" font-family="Times,serif" font-size="14.00">(...)</text>
</g>
<!-- 259&#45;&gt;260 -->
<g id="edge14" class="edge">
<title>259&#45;&gt;260</title>
<path fill="none" stroke="black" d="M551.01,-71.76C547.33,-62.94 543.53,-53.84 540.15,-45.72"/>
<polygon fill="black" stroke="black" points="543.34,-44.29 536.26,-36.41 536.88,-46.98 543.34,-44.29"/>
</g>
<!-- 379 -->
<g id="node16" class="node">
<title>379</title>
<polygon fill="#c0c0c0" stroke="black" points="628,-36 574,-36 574,0 628,0 628,-36"/>
<text text-anchor="middle" x="601" y="-14.3" font-family="Times,serif" font-size="14.00">(...)</text>
</g>
<!-- 259&#45;&gt;379 -->
<g id="edge15" class="edge">
<title>259&#45;&gt;379</title>
<path fill="none" stroke="black" d="M582.38,-71.76C585.46,-63.04 588.63,-54.04 591.47,-45.99"/>
<polygon fill="black" stroke="black" points="594.83,-47 594.86,-36.41 588.23,-44.67 594.83,-47"/>
</g>
<!-- 427 -->
<g id="node18" class="node">
<title>427</title>
<polygon fill="#f1bb93" stroke="black" points="900,-274 742,-274 742,-191 900,-191 900,-274"/>
<text text-anchor="middle" x="821" y="-258.8" font-family="Times,serif" font-size="14.00">graphDepth &lt;= 9.0</text>
<text text-anchor="middle" x="821" y="-243.8" font-family="Times,serif" font-size="14.00">gini = 0.43</text>
<text text-anchor="middle" x="821" y="-228.8" font-family="Times,serif" font-size="14.00">samples = 1620</text>
<text text-anchor="middle" x="821" y="-213.8" font-family="Times,serif" font-size="14.00">value = [1112, 508]</text>
<text text-anchor="middle" x="821" y="-198.8" font-family="Times,serif" font-size="14.00">class = False</text>
</g>
<!-- 426&#45;&gt;427 -->
<g id="edge17" class="edge">
<title>426&#45;&gt;427</title>
<path fill="none" stroke="black" d="M821,-309.91C821,-301.65 821,-292.86 821,-284.3"/>
<polygon fill="black" stroke="black" points="824.5,-284.02 821,-274.02 817.5,-284.02 824.5,-284.02"/>
</g>
<!-- 750 -->
<g id="node25" class="node">
<title>750</title>
<polygon fill="#f5ceb2" stroke="black" points="1149.5,-274 1000.5,-274 1000.5,-191 1149.5,-191 1149.5,-274"/>
<text text-anchor="middle" x="1075" y="-258.8" font-family="Times,serif" font-size="14.00">CCR &lt;= 0.55</text>
<text text-anchor="middle" x="1075" y="-243.8" font-family="Times,serif" font-size="14.00">gini = 0.471</text>
<text text-anchor="middle" x="1075" y="-228.8" font-family="Times,serif" font-size="14.00">samples = 540</text>
<text text-anchor="middle" x="1075" y="-213.8" font-family="Times,serif" font-size="14.00">value = [335, 205]</text>
<text text-anchor="middle" x="1075" y="-198.8" font-family="Times,serif" font-size="14.00">class = False</text>
</g>
<!-- 426&#45;&gt;750 -->
<g id="edge24" class="edge">
<title>426&#45;&gt;750</title>
<path fill="none" stroke="black" d="M900.32,-313.96C929.09,-300.71 961.67,-285.7 990.84,-272.27"/>
<polygon fill="black" stroke="black" points="992.56,-275.33 1000.18,-267.97 989.63,-268.97 992.56,-275.33"/>
</g>
<!-- 428 -->
<g id="node19" class="node">
<title>428</title>
<polygon fill="#f2c19d" stroke="black" points="815.5,-155 662.5,-155 662.5,-72 815.5,-72 815.5,-155"/>
<text text-anchor="middle" x="739" y="-139.8" font-family="Times,serif" font-size="14.00">graphSize &lt;= 22.5</text>
<text text-anchor="middle" x="739" y="-124.8" font-family="Times,serif" font-size="14.00">gini = 0.446</text>
<text text-anchor="middle" x="739" y="-109.8" font-family="Times,serif" font-size="14.00">samples = 1080</text>
<text text-anchor="middle" x="739" y="-94.8" font-family="Times,serif" font-size="14.00">value = [718, 362]</text>
<text text-anchor="middle" x="739" y="-79.8" font-family="Times,serif" font-size="14.00">class = False</text>
</g>
<!-- 427&#45;&gt;428 -->
<g id="edge18" class="edge">
<title>427&#45;&gt;428</title>
<path fill="none" stroke="black" d="M792.55,-190.91C786.32,-182.01 779.66,-172.51 773.22,-163.33"/>
<polygon fill="black" stroke="black" points="776,-161.2 767.4,-155.02 770.27,-165.22 776,-161.2"/>
</g>
<!-- 643 -->
<g id="node22" class="node">
<title>643</title>
<polygon fill="#efb082" stroke="black" points="982.5,-155 833.5,-155 833.5,-72 982.5,-72 982.5,-155"/>
<text text-anchor="middle" x="908" y="-139.8" font-family="Times,serif" font-size="14.00">sdComm &lt;= 0.65</text>
<text text-anchor="middle" x="908" y="-124.8" font-family="Times,serif" font-size="14.00">gini = 0.395</text>
<text text-anchor="middle" x="908" y="-109.8" font-family="Times,serif" font-size="14.00">samples = 540</text>
<text text-anchor="middle" x="908" y="-94.8" font-family="Times,serif" font-size="14.00">value = [394, 146]</text>
<text text-anchor="middle" x="908" y="-79.8" font-family="Times,serif" font-size="14.00">class = False</text>
</g>
<!-- 427&#45;&gt;643 -->
<g id="edge21" class="edge">
<title>427&#45;&gt;643</title>
<path fill="none" stroke="black" d="M851.18,-190.91C857.86,-181.92 865.01,-172.32 871.9,-163.05"/>
<polygon fill="black" stroke="black" points="874.71,-165.13 877.87,-155.02 869.09,-160.96 874.71,-165.13"/>
</g>
<!-- 429 -->
<g id="node20" class="node">
<title>429</title>
<polygon fill="#c0c0c0" stroke="black" points="706,-36 652,-36 652,0 706,0 706,-36"/>
<text text-anchor="middle" x="679" y="-14.3" font-family="Times,serif" font-size="14.00">(...)</text>
</g>
<!-- 428&#45;&gt;429 -->
<g id="edge19" class="edge">
<title>428&#45;&gt;429</title>
<path fill="none" stroke="black" d="M712.86,-71.76C707.01,-62.65 700.97,-53.24 695.64,-44.92"/>
<polygon fill="black" stroke="black" points="698.52,-42.93 690.17,-36.41 692.62,-46.71 698.52,-42.93"/>
</g>
<!-- 536 -->
<g id="node21" class="node">
<title>536</title>
<polygon fill="#c0c0c0" stroke="black" points="778,-36 724,-36 724,0 778,0 778,-36"/>
<text text-anchor="middle" x="751" y="-14.3" font-family="Times,serif" font-size="14.00">(...)</text>
</g>
<!-- 428&#45;&gt;536 -->
<g id="edge20" class="edge">
<title>428&#45;&gt;536</title>
<path fill="none" stroke="black" d="M744.23,-71.76C745.32,-63.24 746.45,-54.44 747.47,-46.53"/>
<polygon fill="black" stroke="black" points="750.96,-46.77 748.77,-36.41 744.02,-45.88 750.96,-46.77"/>
</g>
<!-- 644 -->
<g id="node23" class="node">
<title>644</title>
<polygon fill="#c0c0c0" stroke="black" points="874,-36 820,-36 820,0 874,0 874,-36"/>
<text text-anchor="middle" x="847" y="-14.3" font-family="Times,serif" font-size="14.00">(...)</text>
</g>
<!-- 643&#45;&gt;644 -->
<g id="edge22" class="edge">
<title>643&#45;&gt;644</title>
<path fill="none" stroke="black" d="M881.42,-71.76C875.48,-62.65 869.34,-53.24 863.91,-44.92"/>
<polygon fill="black" stroke="black" points="866.75,-42.87 858.36,-36.41 860.89,-46.69 866.75,-42.87"/>
</g>
<!-- 703 -->
<g id="node24" class="node">
<title>703</title>
<polygon fill="#c0c0c0" stroke="black" points="946,-36 892,-36 892,0 946,0 946,-36"/>
<text text-anchor="middle" x="919" y="-14.3" font-family="Times,serif" font-size="14.00">(...)</text>
</g>
<!-- 643&#45;&gt;703 -->
<g id="edge23" class="edge">
<title>643&#45;&gt;703</title>
<path fill="none" stroke="black" d="M912.79,-71.76C913.8,-63.24 914.83,-54.44 915.76,-46.53"/>
<polygon fill="black" stroke="black" points="919.26,-46.75 916.95,-36.41 912.31,-45.93 919.26,-46.75"/>
</g>
<!-- 751 -->
<g id="node26" class="node">
<title>751</title>
<polygon fill="#f0b68c" stroke="black" points="1149,-155 1001,-155 1001,-72 1149,-72 1149,-155"/>
<text text-anchor="middle" x="1075" y="-139.8" font-family="Times,serif" font-size="14.00">sdComp &lt;= 0.065</text>
<text text-anchor="middle" x="1075" y="-124.8" font-family="Times,serif" font-size="14.00">gini = 0.415</text>
<text text-anchor="middle" x="1075" y="-109.8" font-family="Times,serif" font-size="14.00">samples = 180</text>
<text text-anchor="middle" x="1075" y="-94.8" font-family="Times,serif" font-size="14.00">value = [127, 53]</text>
<text text-anchor="middle" x="1075" y="-79.8" font-family="Times,serif" font-size="14.00">class = False</text>
</g>
<!-- 750&#45;&gt;751 -->
<g id="edge25" class="edge">
<title>750&#45;&gt;751</title>
<path fill="none" stroke="black" d="M1075,-190.91C1075,-182.65 1075,-173.86 1075,-165.3"/>
<polygon fill="black" stroke="black" points="1078.5,-165.02 1075,-155.02 1071.5,-165.02 1078.5,-165.02"/>
</g>
<!-- 786 -->
<g id="node29" class="node">
<title>786</title>
<polygon fill="#f8ddca" stroke="black" points="1316.5,-155 1167.5,-155 1167.5,-72 1316.5,-72 1316.5,-155"/>
<text text-anchor="middle" x="1242" y="-139.8" font-family="Times,serif" font-size="14.00">sdComp &lt;= 0.65</text>
<text text-anchor="middle" x="1242" y="-124.8" font-family="Times,serif" font-size="14.00">gini = 0.488</text>
<text text-anchor="middle" x="1242" y="-109.8" font-family="Times,serif" font-size="14.00">samples = 360</text>
<text text-anchor="middle" x="1242" y="-94.8" font-family="Times,serif" font-size="14.00">value = [208, 152]</text>
<text text-anchor="middle" x="1242" y="-79.8" font-family="Times,serif" font-size="14.00">class = False</text>
</g>
<!-- 750&#45;&gt;786 -->
<g id="edge28" class="edge">
<title>750&#45;&gt;786</title>
<path fill="none" stroke="black" d="M1132.94,-190.91C1146.8,-181.2 1161.7,-170.76 1175.9,-160.81"/>
<polygon fill="black" stroke="black" points="1177.98,-163.63 1184.16,-155.02 1173.96,-157.89 1177.98,-163.63"/>
</g>
<!-- 752 -->
<g id="node27" class="node">
<title>752</title>
<polygon fill="#c0c0c0" stroke="black" points="1059,-36 1005,-36 1005,0 1059,0 1059,-36"/>
<text text-anchor="middle" x="1032" y="-14.3" font-family="Times,serif" font-size="14.00">(...)</text>
</g>
<!-- 751&#45;&gt;752 -->
<g id="edge26" class="edge">
<title>751&#45;&gt;752</title>
<path fill="none" stroke="black" d="M1056.26,-71.76C1052.21,-62.94 1048.02,-53.84 1044.29,-45.72"/>
<polygon fill="black" stroke="black" points="1047.36,-44.03 1040,-36.41 1041,-46.95 1047.36,-44.03"/>
</g>
<!-- 775 -->
<g id="node28" class="node">
<title>775</title>
<polygon fill="#c0c0c0" stroke="black" points="1131,-36 1077,-36 1077,0 1131,0 1131,-36"/>
<text text-anchor="middle" x="1104" y="-14.3" font-family="Times,serif" font-size="14.00">(...)</text>
</g>
<!-- 751&#45;&gt;775 -->
<g id="edge27" class="edge">
<title>751&#45;&gt;775</title>
<path fill="none" stroke="black" d="M1087.64,-71.76C1090.34,-63.04 1093.13,-54.04 1095.63,-45.99"/>
<polygon fill="black" stroke="black" points="1098.98,-46.99 1098.6,-36.41 1092.3,-44.92 1098.98,-46.99"/>
</g>
<!-- 787 -->
<g id="node30" class="node">
<title>787</title>
<polygon fill="#c0c0c0" stroke="black" points="1233,-36 1179,-36 1179,0 1233,0 1233,-36"/>
<text text-anchor="middle" x="1206" y="-14.3" font-family="Times,serif" font-size="14.00">(...)</text>
</g>
<!-- 786&#45;&gt;787 -->
<g id="edge29" class="edge">
<title>786&#45;&gt;787</title>
<path fill="none" stroke="black" d="M1226.31,-71.76C1222.96,-63.04 1219.49,-54.04 1216.39,-45.99"/>
<polygon fill="black" stroke="black" points="1219.56,-44.48 1212.7,-36.41 1213.03,-46.99 1219.56,-44.48"/>
</g>
<!-- 810 -->
<g id="node31" class="node">
<title>810</title>
<polygon fill="#c0c0c0" stroke="black" points="1305,-36 1251,-36 1251,0 1305,0 1305,-36"/>
<text text-anchor="middle" x="1278" y="-14.3" font-family="Times,serif" font-size="14.00">(...)</text>
</g>
<!-- 786&#45;&gt;810 -->
<g id="edge30" class="edge">
<title>786&#45;&gt;810</title>
<path fill="none" stroke="black" d="M1257.69,-71.76C1261.04,-63.04 1264.51,-54.04 1267.61,-45.99"/>
<polygon fill="black" stroke="black" points="1270.97,-46.99 1271.3,-36.41 1264.44,-44.48 1270.97,-46.99"/>
</g>
</g>
</svg>
