<?xml version="1.0" encoding="UTF-8" standalone="no"?>
<!DOCTYPE svg PUBLIC "-//W3C//DTD SVG 1.1//EN"
 "http://www.w3.org/Graphics/SVG/1.1/DTD/svg11.dtd">
<!-- Generated by graphviz version 2.43.0 (0)
 -->
<!-- Title: Tree Pages: 1 -->
<svg width="1739pt" height="520pt"
 viewBox="0.00 0.00 1738.50 520.00" xmlns="http://www.w3.org/2000/svg" xmlns:xlink="http://www.w3.org/1999/xlink">
<g id="graph0" class="graph" transform="scale(1 1) rotate(0) translate(4 516)">
<title>Tree</title>
<polygon fill="white" stroke="transparent" points="-4,4 -4,-516 1734.5,-516 1734.5,4 -4,4"/>
<!-- 0 -->
<g id="node1" class="node">
<title>0</title>
<polygon fill="#f9f6fe" stroke="black" points="978,-512 739,-512 739,-429 978,-429 978,-512"/>
<text text-anchor="middle" x="858.5" y="-496.8" font-family="Times,serif" font-size="14.00">CCR &lt;= 5.5</text>
<text text-anchor="middle" x="858.5" y="-481.8" font-family="Times,serif" font-size="14.00">gini = 0.64</text>
<text text-anchor="middle" x="858.5" y="-466.8" font-family="Times,serif" font-size="14.00">samples = 80334</text>
<text text-anchor="middle" x="858.5" y="-451.8" font-family="Times,serif" font-size="14.00">value = [16078, 30954, 33302]</text>
<text text-anchor="middle" x="858.5" y="-436.8" font-family="Times,serif" font-size="14.00">class = None</text>
</g>
<!-- 1 -->
<g id="node2" class="node">
<title>1</title>
<polygon fill="#a3f3c5" stroke="black" points="768.5,-393 538.5,-393 538.5,-310 768.5,-310 768.5,-393"/>
<text text-anchor="middle" x="653.5" y="-377.8" font-family="Times,serif" font-size="14.00">graphSize &lt;= 22.5</text>
<text text-anchor="middle" x="653.5" y="-362.8" font-family="Times,serif" font-size="14.00">gini = 0.494</text>
<text text-anchor="middle" x="653.5" y="-347.8" font-family="Times,serif" font-size="14.00">samples = 44747</text>
<text text-anchor="middle" x="653.5" y="-332.8" font-family="Times,serif" font-size="14.00">value = [14238, 28390, 2119]</text>
<text text-anchor="middle" x="653.5" y="-317.8" font-family="Times,serif" font-size="14.00">class = DCP</text>
</g>
<!-- 0&#45;&gt;1 -->
<g id="edge1" class="edge">
<title>0&#45;&gt;1</title>
<path fill="none" stroke="black" d="M787.38,-428.91C770.04,-419.02 751.39,-408.37 733.67,-398.25"/>
<polygon fill="black" stroke="black" points="734.92,-394.94 724.5,-393.02 731.45,-401.02 734.92,-394.94"/>
<text text-anchor="middle" x="731.09" y="-413.44" font-family="Times,serif" font-size="14.00">True</text>
</g>
<!-- 494 -->
<g id="node17" class="node">
<title>494</title>
<polygon fill="#9253e8" stroke="black" points="1197,-393 976,-393 976,-310 1197,-310 1197,-393"/>
<text text-anchor="middle" x="1086.5" y="-377.8" font-family="Times,serif" font-size="14.00">sdComp &lt;= 6.5</text>
<text text-anchor="middle" x="1086.5" y="-362.8" font-family="Times,serif" font-size="14.00">gini = 0.224</text>
<text text-anchor="middle" x="1086.5" y="-347.8" font-family="Times,serif" font-size="14.00">samples = 35587</text>
<text text-anchor="middle" x="1086.5" y="-332.8" font-family="Times,serif" font-size="14.00">value = [1840, 2564, 31183]</text>
<text text-anchor="middle" x="1086.5" y="-317.8" font-family="Times,serif" font-size="14.00">class = None</text>
</g>
<!-- 0&#45;&gt;494 -->
<g id="edge16" class="edge">
<title>0&#45;&gt;494</title>
<path fill="none" stroke="black" d="M937.6,-428.91C957.23,-418.83 978.39,-407.98 998.42,-397.7"/>
<polygon fill="black" stroke="black" points="1000.24,-400.7 1007.54,-393.02 997.04,-394.47 1000.24,-400.7"/>
<text text-anchor="middle" x="999.88" y="-413.12" font-family="Times,serif" font-size="14.00">False</text>
</g>
<!-- 2 -->
<g id="node3" class="node">
<title>2</title>
<polygon fill="#bdf6d5" stroke="black" points="446.5,-274 216.5,-274 216.5,-191 446.5,-191 446.5,-274"/>
<text text-anchor="middle" x="331.5" y="-258.8" font-family="Times,serif" font-size="14.00">sdComm &lt;= 0.02</text>
<text text-anchor="middle" x="331.5" y="-243.8" font-family="Times,serif" font-size="14.00">gini = 0.532</text>
<text text-anchor="middle" x="331.5" y="-228.8" font-family="Times,serif" font-size="14.00">samples = 31458</text>
<text text-anchor="middle" x="331.5" y="-213.8" font-family="Times,serif" font-size="14.00">value = [11470, 18099, 1889]</text>
<text text-anchor="middle" x="331.5" y="-198.8" font-family="Times,serif" font-size="14.00">class = DCP</text>
</g>
<!-- 1&#45;&gt;2 -->
<g id="edge2" class="edge">
<title>1&#45;&gt;2</title>
<path fill="none" stroke="black" d="M541.78,-309.91C512.94,-299.43 481.75,-288.1 452.46,-277.45"/>
<polygon fill="black" stroke="black" points="453.61,-274.15 443.02,-274.02 451.22,-280.73 453.61,-274.15"/>
</g>
<!-- 145 -->
<g id="node10" class="node">
<title>145</title>
<polygon fill="#71eca5" stroke="black" points="759.5,-274 547.5,-274 547.5,-191 759.5,-191 759.5,-274"/>
<text text-anchor="middle" x="653.5" y="-258.8" font-family="Times,serif" font-size="14.00">sdComp &lt;= 0.2</text>
<text text-anchor="middle" x="653.5" y="-243.8" font-family="Times,serif" font-size="14.00">gini = 0.357</text>
<text text-anchor="middle" x="653.5" y="-228.8" font-family="Times,serif" font-size="14.00">samples = 13289</text>
<text text-anchor="middle" x="653.5" y="-213.8" font-family="Times,serif" font-size="14.00">value = [2768, 10291, 230]</text>
<text text-anchor="middle" x="653.5" y="-198.8" font-family="Times,serif" font-size="14.00">class = DCP</text>
</g>
<!-- 1&#45;&gt;145 -->
<g id="edge9" class="edge">
<title>1&#45;&gt;145</title>
<path fill="none" stroke="black" d="M653.5,-309.91C653.5,-301.65 653.5,-292.86 653.5,-284.3"/>
<polygon fill="black" stroke="black" points="657,-284.02 653.5,-274.02 650,-284.02 657,-284.02"/>
</g>
<!-- 3 -->
<g id="node4" class="node">
<title>3</title>
<polygon fill="#fffdfc" stroke="black" points="203,-155 0,-155 0,-72 203,-72 203,-155"/>
<text text-anchor="middle" x="101.5" y="-139.8" font-family="Times,serif" font-size="14.00">sdComp &lt;= 0.02</text>
<text text-anchor="middle" x="101.5" y="-124.8" font-family="Times,serif" font-size="14.00">gini = 0.533</text>
<text text-anchor="middle" x="101.5" y="-109.8" font-family="Times,serif" font-size="14.00">samples = 6923</text>
<text text-anchor="middle" x="101.5" y="-94.8" font-family="Times,serif" font-size="14.00">value = [3363, 3316, 244]</text>
<text text-anchor="middle" x="101.5" y="-79.8" font-family="Times,serif" font-size="14.00">class = DLS/DC</text>
</g>
<!-- 2&#45;&gt;3 -->
<g id="edge3" class="edge">
<title>2&#45;&gt;3</title>
<path fill="none" stroke="black" d="M251.7,-190.91C231.81,-180.79 210.36,-169.88 190.08,-159.56"/>
<polygon fill="black" stroke="black" points="191.66,-156.44 181.16,-155.02 188.48,-162.67 191.66,-156.44"/>
</g>
<!-- 26 -->
<g id="node7" class="node">
<title>26</title>
<polygon fill="#aff4cc" stroke="black" points="442,-155 221,-155 221,-72 442,-72 442,-155"/>
<text text-anchor="middle" x="331.5" y="-139.8" font-family="Times,serif" font-size="14.00">graphDepth &lt;= 3.5</text>
<text text-anchor="middle" x="331.5" y="-124.8" font-family="Times,serif" font-size="14.00">gini = 0.523</text>
<text text-anchor="middle" x="331.5" y="-109.8" font-family="Times,serif" font-size="14.00">samples = 24535</text>
<text text-anchor="middle" x="331.5" y="-94.8" font-family="Times,serif" font-size="14.00">value = [8107, 14783, 1645]</text>
<text text-anchor="middle" x="331.5" y="-79.8" font-family="Times,serif" font-size="14.00">class = DCP</text>
</g>
<!-- 2&#45;&gt;26 -->
<g id="edge6" class="edge">
<title>2&#45;&gt;26</title>
<path fill="none" stroke="black" d="M331.5,-190.91C331.5,-182.65 331.5,-173.86 331.5,-165.3"/>
<polygon fill="black" stroke="black" points="335,-165.02 331.5,-155.02 328,-165.02 335,-165.02"/>
</g>
<!-- 4 -->
<g id="node5" class="node">
<title>4</title>
<polygon fill="#c0c0c0" stroke="black" points="92.5,-36 38.5,-36 38.5,0 92.5,0 92.5,-36"/>
<text text-anchor="middle" x="65.5" y="-14.3" font-family="Times,serif" font-size="14.00">(...)</text>
</g>
<!-- 3&#45;&gt;4 -->
<g id="edge4" class="edge">
<title>3&#45;&gt;4</title>
<path fill="none" stroke="black" d="M85.81,-71.76C82.46,-63.04 78.99,-54.04 75.89,-45.99"/>
<polygon fill="black" stroke="black" points="79.06,-44.48 72.2,-36.41 72.53,-46.99 79.06,-44.48"/>
</g>
<!-- 11 -->
<g id="node6" class="node">
<title>11</title>
<polygon fill="#c0c0c0" stroke="black" points="164.5,-36 110.5,-36 110.5,0 164.5,0 164.5,-36"/>
<text text-anchor="middle" x="137.5" y="-14.3" font-family="Times,serif" font-size="14.00">(...)</text>
</g>
<!-- 3&#45;&gt;11 -->
<g id="edge5" class="edge">
<title>3&#45;&gt;11</title>
<path fill="none" stroke="black" d="M117.19,-71.76C120.54,-63.04 124.01,-54.04 127.11,-45.99"/>
<polygon fill="black" stroke="black" points="130.47,-46.99 130.8,-36.41 123.94,-44.48 130.47,-46.99"/>
</g>
<!-- 27 -->
<g id="node8" class="node">
<title>27</title>
<polygon fill="#c0c0c0" stroke="black" points="322.5,-36 268.5,-36 268.5,0 322.5,0 322.5,-36"/>
<text text-anchor="middle" x="295.5" y="-14.3" font-family="Times,serif" font-size="14.00">(...)</text>
</g>
<!-- 26&#45;&gt;27 -->
<g id="edge7" class="edge">
<title>26&#45;&gt;27</title>
<path fill="none" stroke="black" d="M315.81,-71.76C312.46,-63.04 308.99,-54.04 305.89,-45.99"/>
<polygon fill="black" stroke="black" points="309.06,-44.48 302.2,-36.41 302.53,-46.99 309.06,-44.48"/>
</g>
<!-- 86 -->
<g id="node9" class="node">
<title>86</title>
<polygon fill="#c0c0c0" stroke="black" points="394.5,-36 340.5,-36 340.5,0 394.5,0 394.5,-36"/>
<text text-anchor="middle" x="367.5" y="-14.3" font-family="Times,serif" font-size="14.00">(...)</text>
</g>
<!-- 26&#45;&gt;86 -->
<g id="edge8" class="edge">
<title>26&#45;&gt;86</title>
<path fill="none" stroke="black" d="M347.19,-71.76C350.54,-63.04 354.01,-54.04 357.11,-45.99"/>
<polygon fill="black" stroke="black" points="360.47,-46.99 360.8,-36.41 353.94,-44.48 360.47,-46.99"/>
</g>
<!-- 146 -->
<g id="node11" class="node">
<title>146</title>
<polygon fill="#7ceeac" stroke="black" points="663,-155 460,-155 460,-72 663,-72 663,-155"/>
<text text-anchor="middle" x="561.5" y="-139.8" font-family="Times,serif" font-size="14.00">sdComp &lt;= 0.065</text>
<text text-anchor="middle" x="561.5" y="-124.8" font-family="Times,serif" font-size="14.00">gini = 0.39</text>
<text text-anchor="middle" x="561.5" y="-109.8" font-family="Times,serif" font-size="14.00">samples = 9884</text>
<text text-anchor="middle" x="561.5" y="-94.8" font-family="Times,serif" font-size="14.00">value = [2388, 7338, 158]</text>
<text text-anchor="middle" x="561.5" y="-79.8" font-family="Times,serif" font-size="14.00">class = DCP</text>
</g>
<!-- 145&#45;&gt;146 -->
<g id="edge10" class="edge">
<title>145&#45;&gt;146</title>
<path fill="none" stroke="black" d="M621.58,-190.91C614.52,-181.92 606.96,-172.32 599.68,-163.05"/>
<polygon fill="black" stroke="black" points="602.3,-160.72 593.36,-155.02 596.79,-165.05 602.3,-160.72"/>
</g>
<!-- 391 -->
<g id="node14" class="node">
<title>391</title>
<polygon fill="#57e994" stroke="black" points="866,-155 681,-155 681,-72 866,-72 866,-155"/>
<text text-anchor="middle" x="773.5" y="-139.8" font-family="Times,serif" font-size="14.00">sdComm &lt;= 0.65</text>
<text text-anchor="middle" x="773.5" y="-124.8" font-family="Times,serif" font-size="14.00">gini = 0.235</text>
<text text-anchor="middle" x="773.5" y="-109.8" font-family="Times,serif" font-size="14.00">samples = 3405</text>
<text text-anchor="middle" x="773.5" y="-94.8" font-family="Times,serif" font-size="14.00">value = [380, 2953, 72]</text>
<text text-anchor="middle" x="773.5" y="-79.8" font-family="Times,serif" font-size="14.00">class = DCP</text>
</g>
<!-- 145&#45;&gt;391 -->
<g id="edge13" class="edge">
<title>145&#45;&gt;391</title>
<path fill="none" stroke="black" d="M695.13,-190.91C704.63,-181.65 714.8,-171.73 724.57,-162.21"/>
<polygon fill="black" stroke="black" points="727.22,-164.51 731.94,-155.02 722.34,-159.5 727.22,-164.51"/>
</g>
<!-- 147 -->
<g id="node12" class="node">
<title>147</title>
<polygon fill="#c0c0c0" stroke="black" points="550.5,-36 496.5,-36 496.5,0 550.5,0 550.5,-36"/>
<text text-anchor="middle" x="523.5" y="-14.3" font-family="Times,serif" font-size="14.00">(...)</text>
</g>
<!-- 146&#45;&gt;147 -->
<g id="edge11" class="edge">
<title>146&#45;&gt;147</title>
<path fill="none" stroke="black" d="M544.94,-71.76C541.36,-62.94 537.66,-53.84 534.36,-45.72"/>
<polygon fill="black" stroke="black" points="537.58,-44.35 530.57,-36.41 531.1,-46.99 537.58,-44.35"/>
</g>
<!-- 262 -->
<g id="node13" class="node">
<title>262</title>
<polygon fill="#c0c0c0" stroke="black" points="622.5,-36 568.5,-36 568.5,0 622.5,0 622.5,-36"/>
<text text-anchor="middle" x="595.5" y="-14.3" font-family="Times,serif" font-size="14.00">(...)</text>
</g>
<!-- 146&#45;&gt;262 -->
<g id="edge12" class="edge">
<title>146&#45;&gt;262</title>
<path fill="none" stroke="black" d="M576.31,-71.76C579.48,-63.04 582.76,-54.04 585.68,-45.99"/>
<polygon fill="black" stroke="black" points="589.04,-47 589.17,-36.41 582.46,-44.61 589.04,-47"/>
</g>
<!-- 392 -->
<g id="node15" class="node">
<title>392</title>
<polygon fill="#c0c0c0" stroke="black" points="759.5,-36 705.5,-36 705.5,0 759.5,0 759.5,-36"/>
<text text-anchor="middle" x="732.5" y="-14.3" font-family="Times,serif" font-size="14.00">(...)</text>
</g>
<!-- 391&#45;&gt;392 -->
<g id="edge14" class="edge">
<title>391&#45;&gt;392</title>
<path fill="none" stroke="black" d="M755.64,-71.76C751.77,-62.94 747.78,-53.84 744.22,-45.72"/>
<polygon fill="black" stroke="black" points="747.35,-44.16 740.13,-36.41 740.94,-46.97 747.35,-44.16"/>
</g>
<!-- 451 -->
<g id="node16" class="node">
<title>451</title>
<polygon fill="#c0c0c0" stroke="black" points="831.5,-36 777.5,-36 777.5,0 831.5,0 831.5,-36"/>
<text text-anchor="middle" x="804.5" y="-14.3" font-family="Times,serif" font-size="14.00">(...)</text>
</g>
<!-- 391&#45;&gt;451 -->
<g id="edge15" class="edge">
<title>391&#45;&gt;451</title>
<path fill="none" stroke="black" d="M787.01,-71.76C789.9,-63.04 792.88,-54.04 795.55,-45.99"/>
<polygon fill="black" stroke="black" points="798.9,-47 798.73,-36.41 792.26,-44.8 798.9,-47"/>
</g>
<!-- 495 -->
<g id="node18" class="node">
<title>495</title>
<polygon fill="#8e4de8" stroke="black" points="1192.5,-274 980.5,-274 980.5,-191 1192.5,-191 1192.5,-274"/>
<text text-anchor="middle" x="1086.5" y="-258.8" font-family="Times,serif" font-size="14.00">sdComm &lt;= 2.0</text>
<text text-anchor="middle" x="1086.5" y="-243.8" font-family="Times,serif" font-size="14.00">gini = 0.174</text>
<text text-anchor="middle" x="1086.5" y="-228.8" font-family="Times,serif" font-size="14.00">samples = 25701</text>
<text text-anchor="middle" x="1086.5" y="-213.8" font-family="Times,serif" font-size="14.00">value = [694, 1724, 23283]</text>
<text text-anchor="middle" x="1086.5" y="-198.8" font-family="Times,serif" font-size="14.00">class = None</text>
</g>
<!-- 494&#45;&gt;495 -->
<g id="edge17" class="edge">
<title>494&#45;&gt;495</title>
<path fill="none" stroke="black" d="M1086.5,-309.91C1086.5,-301.65 1086.5,-292.86 1086.5,-284.3"/>
<polygon fill="black" stroke="black" points="1090,-284.02 1086.5,-274.02 1083,-284.02 1090,-284.02"/>
</g>
<!-- 632 -->
<g id="node25" class="node">
<title>632</title>
<polygon fill="#9e66eb" stroke="black" points="1519,-274 1316,-274 1316,-191 1519,-191 1519,-274"/>
<text text-anchor="middle" x="1417.5" y="-258.8" font-family="Times,serif" font-size="14.00">nbproc &lt;= 4.5</text>
<text text-anchor="middle" x="1417.5" y="-243.8" font-family="Times,serif" font-size="14.00">gini = 0.341</text>
<text text-anchor="middle" x="1417.5" y="-228.8" font-family="Times,serif" font-size="14.00">samples = 9886</text>
<text text-anchor="middle" x="1417.5" y="-213.8" font-family="Times,serif" font-size="14.00">value = [1146, 840, 7900]</text>
<text text-anchor="middle" x="1417.5" y="-198.8" font-family="Times,serif" font-size="14.00">class = None</text>
</g>
<!-- 494&#45;&gt;632 -->
<g id="edge24" class="edge">
<title>494&#45;&gt;632</title>
<path fill="none" stroke="black" d="M1197.18,-311.38C1232.22,-298.99 1270.96,-285.3 1306.06,-272.89"/>
<polygon fill="black" stroke="black" points="1307.6,-276.06 1315.86,-269.43 1305.26,-269.46 1307.6,-276.06"/>
</g>
<!-- 496 -->
<g id="node19" class="node">
<title>496</title>
<polygon fill="#9659e9" stroke="black" points="1077.5,-155 883.5,-155 883.5,-72 1077.5,-72 1077.5,-155"/>
<text text-anchor="middle" x="980.5" y="-139.8" font-family="Times,serif" font-size="14.00">graphDepth &lt;= 9.0</text>
<text text-anchor="middle" x="980.5" y="-124.8" font-family="Times,serif" font-size="14.00">gini = 0.257</text>
<text text-anchor="middle" x="980.5" y="-109.8" font-family="Times,serif" font-size="14.00">samples = 8088</text>
<text text-anchor="middle" x="980.5" y="-94.8" font-family="Times,serif" font-size="14.00">value = [302, 874, 6912]</text>
<text text-anchor="middle" x="980.5" y="-79.8" font-family="Times,serif" font-size="14.00">class = None</text>
</g>
<!-- 495&#45;&gt;496 -->
<g id="edge18" class="edge">
<title>495&#45;&gt;496</title>
<path fill="none" stroke="black" d="M1049.72,-190.91C1041.42,-181.74 1032.53,-171.93 1023.98,-162.49"/>
<polygon fill="black" stroke="black" points="1026.52,-160.08 1017.21,-155.02 1021.33,-164.78 1026.52,-160.08"/>
</g>
<!-- 539 -->
<g id="node22" class="node">
<title>539</title>
<polygon fill="#8a48e7" stroke="black" points="1298,-155 1095,-155 1095,-72 1298,-72 1298,-155"/>
<text text-anchor="middle" x="1196.5" y="-139.8" font-family="Times,serif" font-size="14.00">sdComp &lt;= 2.0</text>
<text text-anchor="middle" x="1196.5" y="-124.8" font-family="Times,serif" font-size="14.00">gini = 0.133</text>
<text text-anchor="middle" x="1196.5" y="-109.8" font-family="Times,serif" font-size="14.00">samples = 17613</text>
<text text-anchor="middle" x="1196.5" y="-94.8" font-family="Times,serif" font-size="14.00">value = [392, 850, 16371]</text>
<text text-anchor="middle" x="1196.5" y="-79.8" font-family="Times,serif" font-size="14.00">class = None</text>
</g>
<!-- 495&#45;&gt;539 -->
<g id="edge21" class="edge">
<title>495&#45;&gt;539</title>
<path fill="none" stroke="black" d="M1124.66,-190.91C1133.28,-181.74 1142.51,-171.93 1151.38,-162.49"/>
<polygon fill="black" stroke="black" points="1154.1,-164.7 1158.4,-155.02 1149,-159.91 1154.1,-164.7"/>
</g>
<!-- 497 -->
<g id="node20" class="node">
<title>497</title>
<polygon fill="#c0c0c0" stroke="black" points="971.5,-36 917.5,-36 917.5,0 971.5,0 971.5,-36"/>
<text text-anchor="middle" x="944.5" y="-14.3" font-family="Times,serif" font-size="14.00">(...)</text>
</g>
<!-- 496&#45;&gt;497 -->
<g id="edge19" class="edge">
<title>496&#45;&gt;497</title>
<path fill="none" stroke="black" d="M964.81,-71.76C961.46,-63.04 957.99,-54.04 954.89,-45.99"/>
<polygon fill="black" stroke="black" points="958.06,-44.48 951.2,-36.41 951.53,-46.99 958.06,-44.48"/>
</g>
<!-- 514 -->
<g id="node21" class="node">
<title>514</title>
<polygon fill="#c0c0c0" stroke="black" points="1043.5,-36 989.5,-36 989.5,0 1043.5,0 1043.5,-36"/>
<text text-anchor="middle" x="1016.5" y="-14.3" font-family="Times,serif" font-size="14.00">(...)</text>
</g>
<!-- 496&#45;&gt;514 -->
<g id="edge20" class="edge">
<title>496&#45;&gt;514</title>
<path fill="none" stroke="black" d="M996.19,-71.76C999.54,-63.04 1003.01,-54.04 1006.11,-45.99"/>
<polygon fill="black" stroke="black" points="1009.47,-46.99 1009.8,-36.41 1002.94,-44.48 1009.47,-46.99"/>
</g>
<!-- 540 -->
<g id="node23" class="node">
<title>540</title>
<polygon fill="#c0c0c0" stroke="black" points="1187.5,-36 1133.5,-36 1133.5,0 1187.5,0 1187.5,-36"/>
<text text-anchor="middle" x="1160.5" y="-14.3" font-family="Times,serif" font-size="14.00">(...)</text>
</g>
<!-- 539&#45;&gt;540 -->
<g id="edge22" class="edge">
<title>539&#45;&gt;540</title>
<path fill="none" stroke="black" d="M1180.81,-71.76C1177.46,-63.04 1173.99,-54.04 1170.89,-45.99"/>
<polygon fill="black" stroke="black" points="1174.06,-44.48 1167.2,-36.41 1167.53,-46.99 1174.06,-44.48"/>
</g>
<!-- 585 -->
<g id="node24" class="node">
<title>585</title>
<polygon fill="#c0c0c0" stroke="black" points="1259.5,-36 1205.5,-36 1205.5,0 1259.5,0 1259.5,-36"/>
<text text-anchor="middle" x="1232.5" y="-14.3" font-family="Times,serif" font-size="14.00">(...)</text>
</g>
<!-- 539&#45;&gt;585 -->
<g id="edge23" class="edge">
<title>539&#45;&gt;585</title>
<path fill="none" stroke="black" d="M1212.19,-71.76C1215.54,-63.04 1219.01,-54.04 1222.11,-45.99"/>
<polygon fill="black" stroke="black" points="1225.47,-46.99 1225.8,-36.41 1218.94,-44.48 1225.47,-46.99"/>
</g>
<!-- 633 -->
<g id="node26" class="node">
<title>633</title>
<polygon fill="#a978ed" stroke="black" points="1519,-155 1316,-155 1316,-72 1519,-72 1519,-155"/>
<text text-anchor="middle" x="1417.5" y="-139.8" font-family="Times,serif" font-size="14.00">graphSize &lt;= 22.5</text>
<text text-anchor="middle" x="1417.5" y="-124.8" font-family="Times,serif" font-size="14.00">gini = 0.422</text>
<text text-anchor="middle" x="1417.5" y="-109.8" font-family="Times,serif" font-size="14.00">samples = 6144</text>
<text text-anchor="middle" x="1417.5" y="-94.8" font-family="Times,serif" font-size="14.00">value = [1032, 596, 4516]</text>
<text text-anchor="middle" x="1417.5" y="-79.8" font-family="Times,serif" font-size="14.00">class = None</text>
</g>
<!-- 632&#45;&gt;633 -->
<g id="edge25" class="edge">
<title>632&#45;&gt;633</title>
<path fill="none" stroke="black" d="M1417.5,-190.91C1417.5,-182.65 1417.5,-173.86 1417.5,-165.3"/>
<polygon fill="black" stroke="black" points="1421,-165.02 1417.5,-155.02 1414,-165.02 1421,-165.02"/>
</g>
<!-- 676 -->
<g id="node29" class="node">
<title>676</title>
<polygon fill="#8e4de8" stroke="black" points="1730.5,-155 1536.5,-155 1536.5,-72 1730.5,-72 1730.5,-155"/>
<text text-anchor="middle" x="1633.5" y="-139.8" font-family="Times,serif" font-size="14.00">graphSize &lt;= 22.5</text>
<text text-anchor="middle" x="1633.5" y="-124.8" font-family="Times,serif" font-size="14.00">gini = 0.177</text>
<text text-anchor="middle" x="1633.5" y="-109.8" font-family="Times,serif" font-size="14.00">samples = 3742</text>
<text text-anchor="middle" x="1633.5" y="-94.8" font-family="Times,serif" font-size="14.00">value = [114, 244, 3384]</text>
<text text-anchor="middle" x="1633.5" y="-79.8" font-family="Times,serif" font-size="14.00">class = None</text>
</g>
<!-- 632&#45;&gt;676 -->
<g id="edge28" class="edge">
<title>632&#45;&gt;676</title>
<path fill="none" stroke="black" d="M1492.44,-190.91C1510.95,-180.88 1530.9,-170.07 1549.8,-159.84"/>
<polygon fill="black" stroke="black" points="1551.57,-162.86 1558.69,-155.02 1548.23,-156.71 1551.57,-162.86"/>
</g>
<!-- 634 -->
<g id="node27" class="node">
<title>634</title>
<polygon fill="#c0c0c0" stroke="black" points="1408.5,-36 1354.5,-36 1354.5,0 1408.5,0 1408.5,-36"/>
<text text-anchor="middle" x="1381.5" y="-14.3" font-family="Times,serif" font-size="14.00">(...)</text>
</g>
<!-- 633&#45;&gt;634 -->
<g id="edge26" class="edge">
<title>633&#45;&gt;634</title>
<path fill="none" stroke="black" d="M1401.81,-71.76C1398.46,-63.04 1394.99,-54.04 1391.89,-45.99"/>
<polygon fill="black" stroke="black" points="1395.06,-44.48 1388.2,-36.41 1388.53,-46.99 1395.06,-44.48"/>
</g>
<!-- 645 -->
<g id="node28" class="node">
<title>645</title>
<polygon fill="#c0c0c0" stroke="black" points="1480.5,-36 1426.5,-36 1426.5,0 1480.5,0 1480.5,-36"/>
<text text-anchor="middle" x="1453.5" y="-14.3" font-family="Times,serif" font-size="14.00">(...)</text>
</g>
<!-- 633&#45;&gt;645 -->
<g id="edge27" class="edge">
<title>633&#45;&gt;645</title>
<path fill="none" stroke="black" d="M1433.19,-71.76C1436.54,-63.04 1440.01,-54.04 1443.11,-45.99"/>
<polygon fill="black" stroke="black" points="1446.47,-46.99 1446.8,-36.41 1439.94,-44.48 1446.47,-46.99"/>
</g>
<!-- 677 -->
<g id="node30" class="node">
<title>677</title>
<polygon fill="#c0c0c0" stroke="black" points="1624.5,-36 1570.5,-36 1570.5,0 1624.5,0 1624.5,-36"/>
<text text-anchor="middle" x="1597.5" y="-14.3" font-family="Times,serif" font-size="14.00">(...)</text>
</g>
<!-- 676&#45;&gt;677 -->
<g id="edge29" class="edge">
<title>676&#45;&gt;677</title>
<path fill="none" stroke="black" d="M1617.81,-71.76C1614.46,-63.04 1610.99,-54.04 1607.89,-45.99"/>
<polygon fill="black" stroke="black" points="1611.06,-44.48 1604.2,-36.41 1604.53,-46.99 1611.06,-44.48"/>
</g>
<!-- 688 -->
<g id="node31" class="node">
<title>688</title>
<polygon fill="#c0c0c0" stroke="black" points="1696.5,-36 1642.5,-36 1642.5,0 1696.5,0 1696.5,-36"/>
<text text-anchor="middle" x="1669.5" y="-14.3" font-family="Times,serif" font-size="14.00">(...)</text>
</g>
<!-- 676&#45;&gt;688 -->
<g id="edge30" class="edge">
<title>676&#45;&gt;688</title>
<path fill="none" stroke="black" d="M1649.19,-71.76C1652.54,-63.04 1656.01,-54.04 1659.11,-45.99"/>
<polygon fill="black" stroke="black" points="1662.47,-46.99 1662.8,-36.41 1655.94,-44.48 1662.47,-46.99"/>
</g>
</g>
</svg>
