<?xml version="1.0" encoding="UTF-8" standalone="no"?>
<!DOCTYPE svg PUBLIC "-//W3C//DTD SVG 1.1//EN"
 "http://www.w3.org/Graphics/SVG/1.1/DTD/svg11.dtd">
<!-- Generated by graphviz version 2.43.0 (0)
 -->
<!-- Title: Tree Pages: 1 -->
<svg width="2640pt" height="520pt"
 viewBox="0.00 0.00 2640.00 520.00" xmlns="http://www.w3.org/2000/svg" xmlns:xlink="http://www.w3.org/1999/xlink">
<g id="graph0" class="graph" transform="scale(1 1) rotate(0) translate(4 516)">
<title>Tree</title>
<polygon fill="white" stroke="transparent" points="-4,4 -4,-516 2636,-516 2636,4 -4,4"/>
<!-- 0 -->
<g id="node1" class="node">
<title>0</title>
<polygon fill="#fffefd" stroke="black" points="1438,-512 1055,-512 1055,-429 1438,-429 1438,-512"/>
<text text-anchor="middle" x="1246.5" y="-496.8" font-family="Times,serif" font-size="14.00">CCR &lt;= 5.5</text>
<text text-anchor="middle" x="1246.5" y="-481.8" font-family="Times,serif" font-size="14.00">gini = 0.802</text>
<text text-anchor="middle" x="1246.5" y="-466.8" font-family="Times,serif" font-size="14.00">samples = 80334</text>
<text text-anchor="middle" x="1246.5" y="-451.8" font-family="Times,serif" font-size="14.00">value = [20123, 8057, 12840, 4208, 19509, 15597]</text>
<text text-anchor="middle" x="1246.5" y="-436.8" font-family="Times,serif" font-size="14.00">class = eft</text>
</g>
<!-- 1 -->
<g id="node2" class="node">
<title>1</title>
<polygon fill="#fffefe" stroke="black" points="1127,-393 762,-393 762,-310 1127,-310 1127,-393"/>
<text text-anchor="middle" x="944.5" y="-377.8" font-family="Times,serif" font-size="14.00">CCR &lt;= 0.55</text>
<text text-anchor="middle" x="944.5" y="-362.8" font-family="Times,serif" font-size="14.00">gini = 0.73</text>
<text text-anchor="middle" x="944.5" y="-347.8" font-family="Times,serif" font-size="14.00">samples = 44747</text>
<text text-anchor="middle" x="944.5" y="-332.8" font-family="Times,serif" font-size="14.00">value = [14061, 3331, 316, 1495, 13893, 11651]</text>
<text text-anchor="middle" x="944.5" y="-317.8" font-family="Times,serif" font-size="14.00">class = eft</text>
</g>
<!-- 0&#45;&gt;1 -->
<g id="edge1" class="edge">
<title>0&#45;&gt;1</title>
<path fill="none" stroke="black" d="M1141.72,-428.91C1114.9,-418.52 1085.93,-407.29 1058.66,-396.73"/>
<polygon fill="black" stroke="black" points="1059.68,-393.37 1049.09,-393.02 1057.15,-399.9 1059.68,-393.37"/>
<text text-anchor="middle" x="1059.19" y="-412.19" font-family="Times,serif" font-size="14.00">True</text>
</g>
<!-- 548 -->
<g id="node17" class="node">
<title>548</title>
<polygon fill="#d4f9e3" stroke="black" points="1776.5,-393 1420.5,-393 1420.5,-310 1776.5,-310 1776.5,-393"/>
<text text-anchor="middle" x="1598.5" y="-377.8" font-family="Times,serif" font-size="14.00">sdComp &lt;= 2.0</text>
<text text-anchor="middle" x="1598.5" y="-362.8" font-family="Times,serif" font-size="14.00">gini = 0.786</text>
<text text-anchor="middle" x="1598.5" y="-347.8" font-family="Times,serif" font-size="14.00">samples = 35587</text>
<text text-anchor="middle" x="1598.5" y="-332.8" font-family="Times,serif" font-size="14.00">value = [6062, 4726, 12524, 2713, 5616, 3946]</text>
<text text-anchor="middle" x="1598.5" y="-317.8" font-family="Times,serif" font-size="14.00">class = OLB</text>
</g>
<!-- 0&#45;&gt;548 -->
<g id="edge16" class="edge">
<title>0&#45;&gt;548</title>
<path fill="none" stroke="black" d="M1368.62,-428.91C1400.3,-418.38 1434.54,-407 1466.69,-396.31"/>
<polygon fill="black" stroke="black" points="1468.21,-399.5 1476.59,-393.02 1466,-392.85 1468.21,-399.5"/>
<text text-anchor="middle" x="1465.39" y="-411.67" font-family="Times,serif" font-size="14.00">False</text>
</g>
<!-- 2 -->
<g id="node3" class="node">
<title>2</title>
<polygon fill="#fef9f6" stroke="black" points="649,-274 320,-274 320,-191 649,-191 649,-274"/>
<text text-anchor="middle" x="484.5" y="-258.8" font-family="Times,serif" font-size="14.00">graphSize &lt;= 40.0</text>
<text text-anchor="middle" x="484.5" y="-243.8" font-family="Times,serif" font-size="14.00">gini = 0.725</text>
<text text-anchor="middle" x="484.5" y="-228.8" font-family="Times,serif" font-size="14.00">samples = 29459</text>
<text text-anchor="middle" x="484.5" y="-213.8" font-family="Times,serif" font-size="14.00">value = [9844, 1806, 98, 1223, 7562, 8926]</text>
<text text-anchor="middle" x="484.5" y="-198.8" font-family="Times,serif" font-size="14.00">class = eft</text>
</g>
<!-- 1&#45;&gt;2 -->
<g id="edge2" class="edge">
<title>1&#45;&gt;2</title>
<path fill="none" stroke="black" d="M785.23,-309.99C742.75,-299.19 696.71,-287.48 653.72,-276.54"/>
<polygon fill="black" stroke="black" points="654.58,-273.15 644.02,-274.07 652.85,-279.93 654.58,-273.15"/>
</g>
<!-- 279 -->
<g id="node10" class="node">
<title>279</title>
<polygon fill="#e7d9fa" stroke="black" points="1109,-274 780,-274 780,-191 1109,-191 1109,-274"/>
<text text-anchor="middle" x="944.5" y="-258.8" font-family="Times,serif" font-size="14.00">sdComp &lt;= 0.65</text>
<text text-anchor="middle" x="944.5" y="-243.8" font-family="Times,serif" font-size="14.00">gini = 0.71</text>
<text text-anchor="middle" x="944.5" y="-228.8" font-family="Times,serif" font-size="14.00">samples = 15288</text>
<text text-anchor="middle" x="944.5" y="-213.8" font-family="Times,serif" font-size="14.00">value = [4217, 1525, 218, 272, 6331, 2725]</text>
<text text-anchor="middle" x="944.5" y="-198.8" font-family="Times,serif" font-size="14.00">class = DL</text>
</g>
<!-- 1&#45;&gt;279 -->
<g id="edge9" class="edge">
<title>1&#45;&gt;279</title>
<path fill="none" stroke="black" d="M944.5,-309.91C944.5,-301.65 944.5,-292.86 944.5,-284.3"/>
<polygon fill="black" stroke="black" points="948,-284.02 944.5,-274.02 941,-284.02 948,-284.02"/>
</g>
<!-- 3 -->
<g id="node4" class="node">
<title>3</title>
<polygon fill="#fffefe" stroke="black" points="329,-155 0,-155 0,-72 329,-72 329,-155"/>
<text text-anchor="middle" x="164.5" y="-139.8" font-family="Times,serif" font-size="14.00">sdComp &lt;= 0.065</text>
<text text-anchor="middle" x="164.5" y="-124.8" font-family="Times,serif" font-size="14.00">gini = 0.72</text>
<text text-anchor="middle" x="164.5" y="-109.8" font-family="Times,serif" font-size="14.00">samples = 26355</text>
<text text-anchor="middle" x="164.5" y="-94.8" font-family="Times,serif" font-size="14.00">value = [8512, 1198, 82, 1223, 6920, 8420]</text>
<text text-anchor="middle" x="164.5" y="-79.8" font-family="Times,serif" font-size="14.00">class = eft</text>
</g>
<!-- 2&#45;&gt;3 -->
<g id="edge3" class="edge">
<title>2&#45;&gt;3</title>
<path fill="none" stroke="black" d="M373.48,-190.91C344.93,-180.47 314.09,-169.19 285.09,-158.59"/>
<polygon fill="black" stroke="black" points="285.92,-155.17 275.33,-155.02 283.52,-161.74 285.92,-155.17"/>
</g>
<!-- 146 -->
<g id="node7" class="node">
<title>146</title>
<polygon fill="#f8dcc8" stroke="black" points="622,-155 347,-155 347,-72 622,-72 622,-155"/>
<text text-anchor="middle" x="484.5" y="-139.8" font-family="Times,serif" font-size="14.00">sdComp &lt;= 0.065</text>
<text text-anchor="middle" x="484.5" y="-124.8" font-family="Times,serif" font-size="14.00">gini = 0.708</text>
<text text-anchor="middle" x="484.5" y="-109.8" font-family="Times,serif" font-size="14.00">samples = 3104</text>
<text text-anchor="middle" x="484.5" y="-94.8" font-family="Times,serif" font-size="14.00">value = [1332, 608, 16, 0, 642, 506]</text>
<text text-anchor="middle" x="484.5" y="-79.8" font-family="Times,serif" font-size="14.00">class = eft</text>
</g>
<!-- 2&#45;&gt;146 -->
<g id="edge6" class="edge">
<title>2&#45;&gt;146</title>
<path fill="none" stroke="black" d="M484.5,-190.91C484.5,-182.65 484.5,-173.86 484.5,-165.3"/>
<polygon fill="black" stroke="black" points="488,-165.02 484.5,-155.02 481,-165.02 488,-165.02"/>
</g>
<!-- 4 -->
<g id="node5" class="node">
<title>4</title>
<polygon fill="#c0c0c0" stroke="black" points="155.5,-36 101.5,-36 101.5,0 155.5,0 155.5,-36"/>
<text text-anchor="middle" x="128.5" y="-14.3" font-family="Times,serif" font-size="14.00">(...)</text>
</g>
<!-- 3&#45;&gt;4 -->
<g id="edge4" class="edge">
<title>3&#45;&gt;4</title>
<path fill="none" stroke="black" d="M148.81,-71.76C145.46,-63.04 141.99,-54.04 138.89,-45.99"/>
<polygon fill="black" stroke="black" points="142.06,-44.48 135.2,-36.41 135.53,-46.99 142.06,-44.48"/>
</g>
<!-- 99 -->
<g id="node6" class="node">
<title>99</title>
<polygon fill="#c0c0c0" stroke="black" points="227.5,-36 173.5,-36 173.5,0 227.5,0 227.5,-36"/>
<text text-anchor="middle" x="200.5" y="-14.3" font-family="Times,serif" font-size="14.00">(...)</text>
</g>
<!-- 3&#45;&gt;99 -->
<g id="edge5" class="edge">
<title>3&#45;&gt;99</title>
<path fill="none" stroke="black" d="M180.19,-71.76C183.54,-63.04 187.01,-54.04 190.11,-45.99"/>
<polygon fill="black" stroke="black" points="193.47,-46.99 193.8,-36.41 186.94,-44.48 193.47,-46.99"/>
</g>
<!-- 147 -->
<g id="node8" class="node">
<title>147</title>
<polygon fill="#c0c0c0" stroke="black" points="475.5,-36 421.5,-36 421.5,0 475.5,0 475.5,-36"/>
<text text-anchor="middle" x="448.5" y="-14.3" font-family="Times,serif" font-size="14.00">(...)</text>
</g>
<!-- 146&#45;&gt;147 -->
<g id="edge7" class="edge">
<title>146&#45;&gt;147</title>
<path fill="none" stroke="black" d="M468.81,-71.76C465.46,-63.04 461.99,-54.04 458.89,-45.99"/>
<polygon fill="black" stroke="black" points="462.06,-44.48 455.2,-36.41 455.53,-46.99 462.06,-44.48"/>
</g>
<!-- 232 -->
<g id="node9" class="node">
<title>232</title>
<polygon fill="#c0c0c0" stroke="black" points="547.5,-36 493.5,-36 493.5,0 547.5,0 547.5,-36"/>
<text text-anchor="middle" x="520.5" y="-14.3" font-family="Times,serif" font-size="14.00">(...)</text>
</g>
<!-- 146&#45;&gt;232 -->
<g id="edge8" class="edge">
<title>146&#45;&gt;232</title>
<path fill="none" stroke="black" d="M500.19,-71.76C503.54,-63.04 507.01,-54.04 510.11,-45.99"/>
<polygon fill="black" stroke="black" points="513.47,-46.99 513.8,-36.41 506.94,-44.48 513.47,-46.99"/>
</g>
<!-- 280 -->
<g id="node11" class="node">
<title>280</title>
<polygon fill="#decbf8" stroke="black" points="951,-155 640,-155 640,-72 951,-72 951,-155"/>
<text text-anchor="middle" x="795.5" y="-139.8" font-family="Times,serif" font-size="14.00">graphSize &lt;= 40.0</text>
<text text-anchor="middle" x="795.5" y="-124.8" font-family="Times,serif" font-size="14.00">gini = 0.685</text>
<text text-anchor="middle" x="795.5" y="-109.8" font-family="Times,serif" font-size="14.00">samples = 9735</text>
<text text-anchor="middle" x="795.5" y="-94.8" font-family="Times,serif" font-size="14.00">value = [2596, 1082, 218, 6, 4479, 1354]</text>
<text text-anchor="middle" x="795.5" y="-79.8" font-family="Times,serif" font-size="14.00">class = DL</text>
</g>
<!-- 279&#45;&gt;280 -->
<g id="edge10" class="edge">
<title>279&#45;&gt;280</title>
<path fill="none" stroke="black" d="M892.81,-190.91C880.67,-181.38 867.64,-171.15 855.19,-161.37"/>
<polygon fill="black" stroke="black" points="857.13,-158.44 847.1,-155.02 852.81,-163.95 857.13,-158.44"/>
</g>
<!-- 453 -->
<g id="node14" class="node">
<title>453</title>
<polygon fill="#f8f3fd" stroke="black" points="1271.5,-155 969.5,-155 969.5,-72 1271.5,-72 1271.5,-155"/>
<text text-anchor="middle" x="1120.5" y="-139.8" font-family="Times,serif" font-size="14.00">sdComm &lt;= 0.65</text>
<text text-anchor="middle" x="1120.5" y="-124.8" font-family="Times,serif" font-size="14.00">gini = 0.734</text>
<text text-anchor="middle" x="1120.5" y="-109.8" font-family="Times,serif" font-size="14.00">samples = 5553</text>
<text text-anchor="middle" x="1120.5" y="-94.8" font-family="Times,serif" font-size="14.00">value = [1621, 443, 0, 266, 1852, 1371]</text>
<text text-anchor="middle" x="1120.5" y="-79.8" font-family="Times,serif" font-size="14.00">class = DL</text>
</g>
<!-- 279&#45;&gt;453 -->
<g id="edge13" class="edge">
<title>279&#45;&gt;453</title>
<path fill="none" stroke="black" d="M1005.56,-190.91C1020.17,-181.2 1035.87,-170.76 1050.84,-160.81"/>
<polygon fill="black" stroke="black" points="1053.16,-163.47 1059.55,-155.02 1049.28,-157.64 1053.16,-163.47"/>
</g>
<!-- 281 -->
<g id="node12" class="node">
<title>281</title>
<polygon fill="#c0c0c0" stroke="black" points="786.5,-36 732.5,-36 732.5,0 786.5,0 786.5,-36"/>
<text text-anchor="middle" x="759.5" y="-14.3" font-family="Times,serif" font-size="14.00">(...)</text>
</g>
<!-- 280&#45;&gt;281 -->
<g id="edge11" class="edge">
<title>280&#45;&gt;281</title>
<path fill="none" stroke="black" d="M779.81,-71.76C776.46,-63.04 772.99,-54.04 769.89,-45.99"/>
<polygon fill="black" stroke="black" points="773.06,-44.48 766.2,-36.41 766.53,-46.99 773.06,-44.48"/>
</g>
<!-- 374 -->
<g id="node13" class="node">
<title>374</title>
<polygon fill="#c0c0c0" stroke="black" points="858.5,-36 804.5,-36 804.5,0 858.5,0 858.5,-36"/>
<text text-anchor="middle" x="831.5" y="-14.3" font-family="Times,serif" font-size="14.00">(...)</text>
</g>
<!-- 280&#45;&gt;374 -->
<g id="edge12" class="edge">
<title>280&#45;&gt;374</title>
<path fill="none" stroke="black" d="M811.19,-71.76C814.54,-63.04 818.01,-54.04 821.11,-45.99"/>
<polygon fill="black" stroke="black" points="824.47,-46.99 824.8,-36.41 817.94,-44.48 824.47,-46.99"/>
</g>
<!-- 454 -->
<g id="node15" class="node">
<title>454</title>
<polygon fill="#c0c0c0" stroke="black" points="1111.5,-36 1057.5,-36 1057.5,0 1111.5,0 1111.5,-36"/>
<text text-anchor="middle" x="1084.5" y="-14.3" font-family="Times,serif" font-size="14.00">(...)</text>
</g>
<!-- 453&#45;&gt;454 -->
<g id="edge14" class="edge">
<title>453&#45;&gt;454</title>
<path fill="none" stroke="black" d="M1104.81,-71.76C1101.46,-63.04 1097.99,-54.04 1094.89,-45.99"/>
<polygon fill="black" stroke="black" points="1098.06,-44.48 1091.2,-36.41 1091.53,-46.99 1098.06,-44.48"/>
</g>
<!-- 517 -->
<g id="node16" class="node">
<title>517</title>
<polygon fill="#c0c0c0" stroke="black" points="1183.5,-36 1129.5,-36 1129.5,0 1183.5,0 1183.5,-36"/>
<text text-anchor="middle" x="1156.5" y="-14.3" font-family="Times,serif" font-size="14.00">(...)</text>
</g>
<!-- 453&#45;&gt;517 -->
<g id="edge15" class="edge">
<title>453&#45;&gt;517</title>
<path fill="none" stroke="black" d="M1136.19,-71.76C1139.54,-63.04 1143.01,-54.04 1146.11,-45.99"/>
<polygon fill="black" stroke="black" points="1149.47,-46.99 1149.8,-36.41 1142.94,-44.48 1149.47,-46.99"/>
</g>
<!-- 549 -->
<g id="node18" class="node">
<title>549</title>
<polygon fill="#c5f7da" stroke="black" points="1767.5,-274 1429.5,-274 1429.5,-191 1767.5,-191 1767.5,-274"/>
<text text-anchor="middle" x="1598.5" y="-258.8" font-family="Times,serif" font-size="14.00">graphSize &lt;= 22.5</text>
<text text-anchor="middle" x="1598.5" y="-243.8" font-family="Times,serif" font-size="14.00">gini = 0.747</text>
<text text-anchor="middle" x="1598.5" y="-228.8" font-family="Times,serif" font-size="14.00">samples = 12161</text>
<text text-anchor="middle" x="1598.5" y="-213.8" font-family="Times,serif" font-size="14.00">value = [1494, 1414, 5112, 2195, 1408, 538]</text>
<text text-anchor="middle" x="1598.5" y="-198.8" font-family="Times,serif" font-size="14.00">class = OLB</text>
</g>
<!-- 548&#45;&gt;549 -->
<g id="edge17" class="edge">
<title>548&#45;&gt;549</title>
<path fill="none" stroke="black" d="M1598.5,-309.91C1598.5,-301.65 1598.5,-292.86 1598.5,-284.3"/>
<polygon fill="black" stroke="black" points="1602,-284.02 1598.5,-274.02 1595,-284.02 1602,-284.02"/>
</g>
<!-- 644 -->
<g id="node25" class="node">
<title>644</title>
<polygon fill="#e1fbec" stroke="black" points="2285.5,-274 1947.5,-274 1947.5,-191 2285.5,-191 2285.5,-274"/>
<text text-anchor="middle" x="2116.5" y="-258.8" font-family="Times,serif" font-size="14.00">sdComp &lt;= 6.5</text>
<text text-anchor="middle" x="2116.5" y="-243.8" font-family="Times,serif" font-size="14.00">gini = 0.788</text>
<text text-anchor="middle" x="2116.5" y="-228.8" font-family="Times,serif" font-size="14.00">samples = 23426</text>
<text text-anchor="middle" x="2116.5" y="-213.8" font-family="Times,serif" font-size="14.00">value = [4568, 3312, 7412, 518, 4208, 3408]</text>
<text text-anchor="middle" x="2116.5" y="-198.8" font-family="Times,serif" font-size="14.00">class = OLB</text>
</g>
<!-- 548&#45;&gt;644 -->
<g id="edge24" class="edge">
<title>548&#45;&gt;644</title>
<path fill="none" stroke="black" d="M1776.77,-310.24C1828.59,-298.53 1885.21,-285.74 1937.1,-274.02"/>
<polygon fill="black" stroke="black" points="1938.09,-277.39 1947.08,-271.77 1936.55,-270.56 1938.09,-277.39"/>
</g>
<!-- 550 -->
<g id="node19" class="node">
<title>550</title>
<polygon fill="#e1fbec" stroke="black" points="1583,-155 1290,-155 1290,-72 1583,-72 1583,-155"/>
<text text-anchor="middle" x="1436.5" y="-139.8" font-family="Times,serif" font-size="14.00">graphDepth &lt;= 3.5</text>
<text text-anchor="middle" x="1436.5" y="-124.8" font-family="Times,serif" font-size="14.00">gini = 0.802</text>
<text text-anchor="middle" x="1436.5" y="-109.8" font-family="Times,serif" font-size="14.00">samples = 3133</text>
<text text-anchor="middle" x="1436.5" y="-94.8" font-family="Times,serif" font-size="14.00">value = [462, 410, 958, 523, 566, 214]</text>
<text text-anchor="middle" x="1436.5" y="-79.8" font-family="Times,serif" font-size="14.00">class = OLB</text>
</g>
<!-- 549&#45;&gt;550 -->
<g id="edge18" class="edge">
<title>549&#45;&gt;550</title>
<path fill="none" stroke="black" d="M1542.29,-190.91C1528.98,-181.29 1514.67,-170.95 1501.01,-161.09"/>
<polygon fill="black" stroke="black" points="1502.76,-158.04 1492.61,-155.02 1498.66,-163.71 1502.76,-158.04"/>
</g>
<!-- 573 -->
<g id="node22" class="node">
<title>573</title>
<polygon fill="#bcf6d4" stroke="black" points="1930,-155 1601,-155 1601,-72 1930,-72 1930,-155"/>
<text text-anchor="middle" x="1765.5" y="-139.8" font-family="Times,serif" font-size="14.00">graphDepth &lt;= 25.5</text>
<text text-anchor="middle" x="1765.5" y="-124.8" font-family="Times,serif" font-size="14.00">gini = 0.719</text>
<text text-anchor="middle" x="1765.5" y="-109.8" font-family="Times,serif" font-size="14.00">samples = 9028</text>
<text text-anchor="middle" x="1765.5" y="-94.8" font-family="Times,serif" font-size="14.00">value = [1032, 1004, 4154, 1672, 842, 324]</text>
<text text-anchor="middle" x="1765.5" y="-79.8" font-family="Times,serif" font-size="14.00">class = OLB</text>
</g>
<!-- 549&#45;&gt;573 -->
<g id="edge21" class="edge">
<title>549&#45;&gt;573</title>
<path fill="none" stroke="black" d="M1656.44,-190.91C1670.3,-181.2 1685.2,-170.76 1699.4,-160.81"/>
<polygon fill="black" stroke="black" points="1701.48,-163.63 1707.66,-155.02 1697.46,-157.89 1701.48,-163.63"/>
</g>
<!-- 551 -->
<g id="node20" class="node">
<title>551</title>
<polygon fill="#c0c0c0" stroke="black" points="1427.5,-36 1373.5,-36 1373.5,0 1427.5,0 1427.5,-36"/>
<text text-anchor="middle" x="1400.5" y="-14.3" font-family="Times,serif" font-size="14.00">(...)</text>
</g>
<!-- 550&#45;&gt;551 -->
<g id="edge19" class="edge">
<title>550&#45;&gt;551</title>
<path fill="none" stroke="black" d="M1420.81,-71.76C1417.46,-63.04 1413.99,-54.04 1410.89,-45.99"/>
<polygon fill="black" stroke="black" points="1414.06,-44.48 1407.2,-36.41 1407.53,-46.99 1414.06,-44.48"/>
</g>
<!-- 562 -->
<g id="node21" class="node">
<title>562</title>
<polygon fill="#c0c0c0" stroke="black" points="1499.5,-36 1445.5,-36 1445.5,0 1499.5,0 1499.5,-36"/>
<text text-anchor="middle" x="1472.5" y="-14.3" font-family="Times,serif" font-size="14.00">(...)</text>
</g>
<!-- 550&#45;&gt;562 -->
<g id="edge20" class="edge">
<title>550&#45;&gt;562</title>
<path fill="none" stroke="black" d="M1452.19,-71.76C1455.54,-63.04 1459.01,-54.04 1462.11,-45.99"/>
<polygon fill="black" stroke="black" points="1465.47,-46.99 1465.8,-36.41 1458.94,-44.48 1465.47,-46.99"/>
</g>
<!-- 574 -->
<g id="node23" class="node">
<title>574</title>
<polygon fill="#c0c0c0" stroke="black" points="1756.5,-36 1702.5,-36 1702.5,0 1756.5,0 1756.5,-36"/>
<text text-anchor="middle" x="1729.5" y="-14.3" font-family="Times,serif" font-size="14.00">(...)</text>
</g>
<!-- 573&#45;&gt;574 -->
<g id="edge22" class="edge">
<title>573&#45;&gt;574</title>
<path fill="none" stroke="black" d="M1749.81,-71.76C1746.46,-63.04 1742.99,-54.04 1739.89,-45.99"/>
<polygon fill="black" stroke="black" points="1743.06,-44.48 1736.2,-36.41 1736.53,-46.99 1743.06,-44.48"/>
</g>
<!-- 633 -->
<g id="node24" class="node">
<title>633</title>
<polygon fill="#c0c0c0" stroke="black" points="1828.5,-36 1774.5,-36 1774.5,0 1828.5,0 1828.5,-36"/>
<text text-anchor="middle" x="1801.5" y="-14.3" font-family="Times,serif" font-size="14.00">(...)</text>
</g>
<!-- 573&#45;&gt;633 -->
<g id="edge23" class="edge">
<title>573&#45;&gt;633</title>
<path fill="none" stroke="black" d="M1781.19,-71.76C1784.54,-63.04 1788.01,-54.04 1791.11,-45.99"/>
<polygon fill="black" stroke="black" points="1794.47,-46.99 1794.8,-36.41 1787.94,-44.48 1794.47,-46.99"/>
</g>
<!-- 645 -->
<g id="node26" class="node">
<title>645</title>
<polygon fill="#d9fae7" stroke="black" points="2285.5,-155 1947.5,-155 1947.5,-72 2285.5,-72 2285.5,-155"/>
<text text-anchor="middle" x="2116.5" y="-139.8" font-family="Times,serif" font-size="14.00">graphDepth &lt;= 13.5</text>
<text text-anchor="middle" x="2116.5" y="-124.8" font-family="Times,serif" font-size="14.00">gini = 0.775</text>
<text text-anchor="middle" x="2116.5" y="-109.8" font-family="Times,serif" font-size="14.00">samples = 13540</text>
<text text-anchor="middle" x="2116.5" y="-94.8" font-family="Times,serif" font-size="14.00">value = [2758, 1806, 4808, 506, 2270, 1392]</text>
<text text-anchor="middle" x="2116.5" y="-79.8" font-family="Times,serif" font-size="14.00">class = OLB</text>
</g>
<!-- 644&#45;&gt;645 -->
<g id="edge25" class="edge">
<title>644&#45;&gt;645</title>
<path fill="none" stroke="black" d="M2116.5,-190.91C2116.5,-182.65 2116.5,-173.86 2116.5,-165.3"/>
<polygon fill="black" stroke="black" points="2120,-165.02 2116.5,-155.02 2113,-165.02 2120,-165.02"/>
</g>
<!-- 740 -->
<g id="node29" class="node">
<title>740</title>
<polygon fill="#f0fdf6" stroke="black" points="2632,-155 2303,-155 2303,-72 2632,-72 2632,-155"/>
<text text-anchor="middle" x="2467.5" y="-139.8" font-family="Times,serif" font-size="14.00">graphDepth &lt;= 9.0</text>
<text text-anchor="middle" x="2467.5" y="-124.8" font-family="Times,serif" font-size="14.00">gini = 0.794</text>
<text text-anchor="middle" x="2467.5" y="-109.8" font-family="Times,serif" font-size="14.00">samples = 9886</text>
<text text-anchor="middle" x="2467.5" y="-94.8" font-family="Times,serif" font-size="14.00">value = [1810, 1506, 2604, 12, 1938, 2016]</text>
<text text-anchor="middle" x="2467.5" y="-79.8" font-family="Times,serif" font-size="14.00">class = OLB</text>
</g>
<!-- 644&#45;&gt;740 -->
<g id="edge28" class="edge">
<title>644&#45;&gt;740</title>
<path fill="none" stroke="black" d="M2238.28,-190.91C2269.86,-180.38 2304.01,-169 2336.06,-158.31"/>
<polygon fill="black" stroke="black" points="2337.56,-161.5 2345.94,-155.02 2335.34,-154.86 2337.56,-161.5"/>
</g>
<!-- 646 -->
<g id="node27" class="node">
<title>646</title>
<polygon fill="#c0c0c0" stroke="black" points="2107.5,-36 2053.5,-36 2053.5,0 2107.5,0 2107.5,-36"/>
<text text-anchor="middle" x="2080.5" y="-14.3" font-family="Times,serif" font-size="14.00">(...)</text>
</g>
<!-- 645&#45;&gt;646 -->
<g id="edge26" class="edge">
<title>645&#45;&gt;646</title>
<path fill="none" stroke="black" d="M2100.81,-71.76C2097.46,-63.04 2093.99,-54.04 2090.89,-45.99"/>
<polygon fill="black" stroke="black" points="2094.06,-44.48 2087.2,-36.41 2087.53,-46.99 2094.06,-44.48"/>
</g>
<!-- 705 -->
<g id="node28" class="node">
<title>705</title>
<polygon fill="#c0c0c0" stroke="black" points="2179.5,-36 2125.5,-36 2125.5,0 2179.5,0 2179.5,-36"/>
<text text-anchor="middle" x="2152.5" y="-14.3" font-family="Times,serif" font-size="14.00">(...)</text>
</g>
<!-- 645&#45;&gt;705 -->
<g id="edge27" class="edge">
<title>645&#45;&gt;705</title>
<path fill="none" stroke="black" d="M2132.19,-71.76C2135.54,-63.04 2139.01,-54.04 2142.11,-45.99"/>
<polygon fill="black" stroke="black" points="2145.47,-46.99 2145.8,-36.41 2138.94,-44.48 2145.47,-46.99"/>
</g>
<!-- 741 -->
<g id="node30" class="node">
<title>741</title>
<polygon fill="#c0c0c0" stroke="black" points="2458.5,-36 2404.5,-36 2404.5,0 2458.5,0 2458.5,-36"/>
<text text-anchor="middle" x="2431.5" y="-14.3" font-family="Times,serif" font-size="14.00">(...)</text>
</g>
<!-- 740&#45;&gt;741 -->
<g id="edge29" class="edge">
<title>740&#45;&gt;741</title>
<path fill="none" stroke="black" d="M2451.81,-71.76C2448.46,-63.04 2444.99,-54.04 2441.89,-45.99"/>
<polygon fill="black" stroke="black" points="2445.06,-44.48 2438.2,-36.41 2438.53,-46.99 2445.06,-44.48"/>
</g>
<!-- 788 -->
<g id="node31" class="node">
<title>788</title>
<polygon fill="#c0c0c0" stroke="black" points="2530.5,-36 2476.5,-36 2476.5,0 2530.5,0 2530.5,-36"/>
<text text-anchor="middle" x="2503.5" y="-14.3" font-family="Times,serif" font-size="14.00">(...)</text>
</g>
<!-- 740&#45;&gt;788 -->
<g id="edge30" class="edge">
<title>740&#45;&gt;788</title>
<path fill="none" stroke="black" d="M2483.19,-71.76C2486.54,-63.04 2490.01,-54.04 2493.11,-45.99"/>
<polygon fill="black" stroke="black" points="2496.47,-46.99 2496.8,-36.41 2489.94,-44.48 2496.47,-46.99"/>
</g>
</g>
</svg>
