<?xml version="1.0" encoding="UTF-8" standalone="no"?>
<!DOCTYPE svg PUBLIC "-//W3C//DTD SVG 1.1//EN"
 "http://www.w3.org/Graphics/SVG/1.1/DTD/svg11.dtd">
<!-- Generated by graphviz version 2.43.0 (0)
 -->
<!-- Title: Tree Pages: 1 -->
<svg width="1488pt" height="520pt"
 viewBox="0.00 0.00 1488.00 520.00" xmlns="http://www.w3.org/2000/svg" xmlns:xlink="http://www.w3.org/1999/xlink">
<g id="graph0" class="graph" transform="scale(1 1) rotate(0) translate(4 516)">
<title>Tree</title>
<polygon fill="white" stroke="transparent" points="-4,4 -4,-516 1484,-516 1484,4 -4,4"/>
<!-- 0 -->
<g id="node1" class="node">
<title>0</title>
<polygon fill="#feffff" stroke="black" points="809,-512 624,-512 624,-429 809,-429 809,-512"/>
<text text-anchor="middle" x="716.5" y="-496.8" font-family="Times,serif" font-size="14.00">graphDepth &lt;= 3.5</text>
<text text-anchor="middle" x="716.5" y="-481.8" font-family="Times,serif" font-size="14.00">gini = 0.5</text>
<text text-anchor="middle" x="716.5" y="-466.8" font-family="Times,serif" font-size="14.00">samples = 80334</text>
<text text-anchor="middle" x="716.5" y="-451.8" font-family="Times,serif" font-size="14.00">value = [40116, 40218]</text>
<text text-anchor="middle" x="716.5" y="-436.8" font-family="Times,serif" font-size="14.00">class = True</text>
</g>
<!-- 1 -->
<g id="node2" class="node">
<title>1</title>
<polygon fill="#fcfeff" stroke="black" points="620,-393 453,-393 453,-310 620,-310 620,-393"/>
<text text-anchor="middle" x="536.5" y="-377.8" font-family="Times,serif" font-size="14.00">sdComp &lt;= 0.2</text>
<text text-anchor="middle" x="536.5" y="-362.8" font-family="Times,serif" font-size="14.00">gini = 0.5</text>
<text text-anchor="middle" x="536.5" y="-347.8" font-family="Times,serif" font-size="14.00">samples = 10299</text>
<text text-anchor="middle" x="536.5" y="-332.8" font-family="Times,serif" font-size="14.00">value = [5110, 5189]</text>
<text text-anchor="middle" x="536.5" y="-317.8" font-family="Times,serif" font-size="14.00">class = True</text>
</g>
<!-- 0&#45;&gt;1 -->
<g id="edge1" class="edge">
<title>0&#45;&gt;1</title>
<path fill="none" stroke="black" d="M654.05,-428.91C638.97,-419.11 622.75,-408.56 607.32,-398.53"/>
<polygon fill="black" stroke="black" points="609.13,-395.54 598.84,-393.02 605.32,-401.41 609.13,-395.54"/>
<text text-anchor="middle" x="604.03" y="-413.78" font-family="Times,serif" font-size="14.00">True</text>
</g>
<!-- 108 -->
<g id="node17" class="node">
<title>108</title>
<polygon fill="#ffffff" stroke="black" points="1008,-393 823,-393 823,-310 1008,-310 1008,-393"/>
<text text-anchor="middle" x="915.5" y="-377.8" font-family="Times,serif" font-size="14.00">sdComm &lt;= 6.5</text>
<text text-anchor="middle" x="915.5" y="-362.8" font-family="Times,serif" font-size="14.00">gini = 0.5</text>
<text text-anchor="middle" x="915.5" y="-347.8" font-family="Times,serif" font-size="14.00">samples = 70035</text>
<text text-anchor="middle" x="915.5" y="-332.8" font-family="Times,serif" font-size="14.00">value = [35006, 35029]</text>
<text text-anchor="middle" x="915.5" y="-317.8" font-family="Times,serif" font-size="14.00">class = True</text>
</g>
<!-- 0&#45;&gt;108 -->
<g id="edge16" class="edge">
<title>0&#45;&gt;108</title>
<path fill="none" stroke="black" d="M785.54,-428.91C802.37,-419.02 820.48,-408.37 837.68,-398.25"/>
<polygon fill="black" stroke="black" points="839.73,-401.11 846.58,-393.02 836.19,-395.07 839.73,-401.11"/>
<text text-anchor="middle" x="840.3" y="-413.52" font-family="Times,serif" font-size="14.00">False</text>
</g>
<!-- 2 -->
<g id="node3" class="node">
<title>2</title>
<polygon fill="#feffff" stroke="black" points="352,-274 185,-274 185,-191 352,-191 352,-274"/>
<text text-anchor="middle" x="268.5" y="-258.8" font-family="Times,serif" font-size="14.00">sdComm &lt;= 0.065</text>
<text text-anchor="middle" x="268.5" y="-243.8" font-family="Times,serif" font-size="14.00">gini = 0.5</text>
<text text-anchor="middle" x="268.5" y="-228.8" font-family="Times,serif" font-size="14.00">samples = 5302</text>
<text text-anchor="middle" x="268.5" y="-213.8" font-family="Times,serif" font-size="14.00">value = [2645, 2657]</text>
<text text-anchor="middle" x="268.5" y="-198.8" font-family="Times,serif" font-size="14.00">class = True</text>
</g>
<!-- 1&#45;&gt;2 -->
<g id="edge2" class="edge">
<title>1&#45;&gt;2</title>
<path fill="none" stroke="black" d="M452.81,-313.96C423.84,-301.32 391.21,-287.07 361.54,-274.12"/>
<polygon fill="black" stroke="black" points="362.59,-270.76 352.02,-269.96 359.78,-277.17 362.59,-270.76"/>
</g>
<!-- 49 -->
<g id="node10" class="node">
<title>49</title>
<polygon fill="#fafcfe" stroke="black" points="620,-274 453,-274 453,-191 620,-191 620,-274"/>
<text text-anchor="middle" x="536.5" y="-258.8" font-family="Times,serif" font-size="14.00">sdComm &lt;= 0.2</text>
<text text-anchor="middle" x="536.5" y="-243.8" font-family="Times,serif" font-size="14.00">gini = 0.5</text>
<text text-anchor="middle" x="536.5" y="-228.8" font-family="Times,serif" font-size="14.00">samples = 4997</text>
<text text-anchor="middle" x="536.5" y="-213.8" font-family="Times,serif" font-size="14.00">value = [2465, 2532]</text>
<text text-anchor="middle" x="536.5" y="-198.8" font-family="Times,serif" font-size="14.00">class = True</text>
</g>
<!-- 1&#45;&gt;49 -->
<g id="edge9" class="edge">
<title>1&#45;&gt;49</title>
<path fill="none" stroke="black" d="M536.5,-309.91C536.5,-301.65 536.5,-292.86 536.5,-284.3"/>
<polygon fill="black" stroke="black" points="540,-284.02 536.5,-274.02 533,-284.02 540,-284.02"/>
</g>
<!-- 3 -->
<g id="node4" class="node">
<title>3</title>
<polygon fill="#ffffff" stroke="black" points="167,-155 0,-155 0,-72 167,-72 167,-155"/>
<text text-anchor="middle" x="83.5" y="-139.8" font-family="Times,serif" font-size="14.00">sdComp &lt;= 0.065</text>
<text text-anchor="middle" x="83.5" y="-124.8" font-family="Times,serif" font-size="14.00">gini = 0.5</text>
<text text-anchor="middle" x="83.5" y="-109.8" font-family="Times,serif" font-size="14.00">samples = 3027</text>
<text text-anchor="middle" x="83.5" y="-94.8" font-family="Times,serif" font-size="14.00">value = [1513, 1514]</text>
<text text-anchor="middle" x="83.5" y="-79.8" font-family="Times,serif" font-size="14.00">class = True</text>
</g>
<!-- 2&#45;&gt;3 -->
<g id="edge3" class="edge">
<title>2&#45;&gt;3</title>
<path fill="none" stroke="black" d="M204.32,-190.91C188.82,-181.11 172.15,-170.56 156.29,-160.53"/>
<polygon fill="black" stroke="black" points="157.89,-157.41 147.57,-155.02 154.15,-163.32 157.89,-157.41"/>
</g>
<!-- 26 -->
<g id="node7" class="node">
<title>26</title>
<polygon fill="#fdfeff" stroke="black" points="352,-155 185,-155 185,-72 352,-72 352,-155"/>
<text text-anchor="middle" x="268.5" y="-139.8" font-family="Times,serif" font-size="14.00">nbproc &lt;= 4.5</text>
<text text-anchor="middle" x="268.5" y="-124.8" font-family="Times,serif" font-size="14.00">gini = 0.5</text>
<text text-anchor="middle" x="268.5" y="-109.8" font-family="Times,serif" font-size="14.00">samples = 2275</text>
<text text-anchor="middle" x="268.5" y="-94.8" font-family="Times,serif" font-size="14.00">value = [1132, 1143]</text>
<text text-anchor="middle" x="268.5" y="-79.8" font-family="Times,serif" font-size="14.00">class = True</text>
</g>
<!-- 2&#45;&gt;26 -->
<g id="edge6" class="edge">
<title>2&#45;&gt;26</title>
<path fill="none" stroke="black" d="M268.5,-190.91C268.5,-182.65 268.5,-173.86 268.5,-165.3"/>
<polygon fill="black" stroke="black" points="272,-165.02 268.5,-155.02 265,-165.02 272,-165.02"/>
</g>
<!-- 4 -->
<g id="node5" class="node">
<title>4</title>
<polygon fill="#c0c0c0" stroke="black" points="74.5,-36 20.5,-36 20.5,0 74.5,0 74.5,-36"/>
<text text-anchor="middle" x="47.5" y="-14.3" font-family="Times,serif" font-size="14.00">(...)</text>
</g>
<!-- 3&#45;&gt;4 -->
<g id="edge4" class="edge">
<title>3&#45;&gt;4</title>
<path fill="none" stroke="black" d="M67.81,-71.76C64.46,-63.04 60.99,-54.04 57.89,-45.99"/>
<polygon fill="black" stroke="black" points="61.06,-44.48 54.2,-36.41 54.53,-46.99 61.06,-44.48"/>
</g>
<!-- 19 -->
<g id="node6" class="node">
<title>19</title>
<polygon fill="#c0c0c0" stroke="black" points="146.5,-36 92.5,-36 92.5,0 146.5,0 146.5,-36"/>
<text text-anchor="middle" x="119.5" y="-14.3" font-family="Times,serif" font-size="14.00">(...)</text>
</g>
<!-- 3&#45;&gt;19 -->
<g id="edge5" class="edge">
<title>3&#45;&gt;19</title>
<path fill="none" stroke="black" d="M99.19,-71.76C102.54,-63.04 106.01,-54.04 109.11,-45.99"/>
<polygon fill="black" stroke="black" points="112.47,-46.99 112.8,-36.41 105.94,-44.48 112.47,-46.99"/>
</g>
<!-- 27 -->
<g id="node8" class="node">
<title>27</title>
<polygon fill="#c0c0c0" stroke="black" points="255.5,-36 201.5,-36 201.5,0 255.5,0 255.5,-36"/>
<text text-anchor="middle" x="228.5" y="-14.3" font-family="Times,serif" font-size="14.00">(...)</text>
</g>
<!-- 26&#45;&gt;27 -->
<g id="edge7" class="edge">
<title>26&#45;&gt;27</title>
<path fill="none" stroke="black" d="M251.07,-71.76C247.3,-62.94 243.4,-53.84 239.93,-45.72"/>
<polygon fill="black" stroke="black" points="243.1,-44.22 235.95,-36.41 236.66,-46.98 243.1,-44.22"/>
</g>
<!-- 38 -->
<g id="node9" class="node">
<title>38</title>
<polygon fill="#c0c0c0" stroke="black" points="327.5,-36 273.5,-36 273.5,0 327.5,0 327.5,-36"/>
<text text-anchor="middle" x="300.5" y="-14.3" font-family="Times,serif" font-size="14.00">(...)</text>
</g>
<!-- 26&#45;&gt;38 -->
<g id="edge8" class="edge">
<title>26&#45;&gt;38</title>
<path fill="none" stroke="black" d="M282.44,-71.76C285.43,-63.04 288.51,-54.04 291.26,-45.99"/>
<polygon fill="black" stroke="black" points="294.62,-47 294.54,-36.41 287.99,-44.73 294.62,-47"/>
</g>
<!-- 50 -->
<g id="node11" class="node">
<title>50</title>
<polygon fill="#eaf4fc" stroke="black" points="519,-155 370,-155 370,-72 519,-72 519,-155"/>
<text text-anchor="middle" x="444.5" y="-139.8" font-family="Times,serif" font-size="14.00">sdComp &lt;= 0.65</text>
<text text-anchor="middle" x="444.5" y="-124.8" font-family="Times,serif" font-size="14.00">gini = 0.498</text>
<text text-anchor="middle" x="444.5" y="-109.8" font-family="Times,serif" font-size="14.00">samples = 776</text>
<text text-anchor="middle" x="444.5" y="-94.8" font-family="Times,serif" font-size="14.00">value = [366, 410]</text>
<text text-anchor="middle" x="444.5" y="-79.8" font-family="Times,serif" font-size="14.00">class = True</text>
</g>
<!-- 49&#45;&gt;50 -->
<g id="edge10" class="edge">
<title>49&#45;&gt;50</title>
<path fill="none" stroke="black" d="M504.58,-190.91C497.52,-181.92 489.96,-172.32 482.68,-163.05"/>
<polygon fill="black" stroke="black" points="485.3,-160.72 476.36,-155.02 479.79,-165.05 485.3,-160.72"/>
</g>
<!-- 57 -->
<g id="node14" class="node">
<title>57</title>
<polygon fill="#fdfeff" stroke="black" points="704,-155 537,-155 537,-72 704,-72 704,-155"/>
<text text-anchor="middle" x="620.5" y="-139.8" font-family="Times,serif" font-size="14.00">nbproc &lt;= 4.5</text>
<text text-anchor="middle" x="620.5" y="-124.8" font-family="Times,serif" font-size="14.00">gini = 0.5</text>
<text text-anchor="middle" x="620.5" y="-109.8" font-family="Times,serif" font-size="14.00">samples = 4221</text>
<text text-anchor="middle" x="620.5" y="-94.8" font-family="Times,serif" font-size="14.00">value = [2099, 2122]</text>
<text text-anchor="middle" x="620.5" y="-79.8" font-family="Times,serif" font-size="14.00">class = True</text>
</g>
<!-- 49&#45;&gt;57 -->
<g id="edge13" class="edge">
<title>49&#45;&gt;57</title>
<path fill="none" stroke="black" d="M565.64,-190.91C572.03,-182.01 578.85,-172.51 585.44,-163.33"/>
<polygon fill="black" stroke="black" points="588.42,-165.19 591.41,-155.02 582.73,-161.1 588.42,-165.19"/>
</g>
<!-- 51 -->
<g id="node12" class="node">
<title>51</title>
<polygon fill="#c0c0c0" stroke="black" points="415.5,-36 361.5,-36 361.5,0 415.5,0 415.5,-36"/>
<text text-anchor="middle" x="388.5" y="-14.3" font-family="Times,serif" font-size="14.00">(...)</text>
</g>
<!-- 50&#45;&gt;51 -->
<g id="edge11" class="edge">
<title>50&#45;&gt;51</title>
<path fill="none" stroke="black" d="M420.1,-71.76C414.7,-62.75 409.13,-53.44 404.19,-45.19"/>
<polygon fill="black" stroke="black" points="407.07,-43.19 398.92,-36.41 401.06,-46.78 407.07,-43.19"/>
</g>
<!-- 54 -->
<g id="node13" class="node">
<title>54</title>
<polygon fill="#c0c0c0" stroke="black" points="487.5,-36 433.5,-36 433.5,0 487.5,0 487.5,-36"/>
<text text-anchor="middle" x="460.5" y="-14.3" font-family="Times,serif" font-size="14.00">(...)</text>
</g>
<!-- 50&#45;&gt;54 -->
<g id="edge12" class="edge">
<title>50&#45;&gt;54</title>
<path fill="none" stroke="black" d="M451.47,-71.76C452.93,-63.24 454.44,-54.44 455.79,-46.53"/>
<polygon fill="black" stroke="black" points="459.28,-46.85 457.52,-36.41 452.38,-45.67 459.28,-46.85"/>
</g>
<!-- 58 -->
<g id="node15" class="node">
<title>58</title>
<polygon fill="#c0c0c0" stroke="black" points="600.5,-36 546.5,-36 546.5,0 600.5,0 600.5,-36"/>
<text text-anchor="middle" x="573.5" y="-14.3" font-family="Times,serif" font-size="14.00">(...)</text>
</g>
<!-- 57&#45;&gt;58 -->
<g id="edge14" class="edge">
<title>57&#45;&gt;58</title>
<path fill="none" stroke="black" d="M600.02,-71.76C595.54,-62.85 590.91,-53.64 586.8,-45.46"/>
<polygon fill="black" stroke="black" points="589.87,-43.77 582.25,-36.41 583.61,-46.91 589.87,-43.77"/>
</g>
<!-- 83 -->
<g id="node16" class="node">
<title>83</title>
<polygon fill="#c0c0c0" stroke="black" points="672.5,-36 618.5,-36 618.5,0 672.5,0 672.5,-36"/>
<text text-anchor="middle" x="645.5" y="-14.3" font-family="Times,serif" font-size="14.00">(...)</text>
</g>
<!-- 57&#45;&gt;83 -->
<g id="edge15" class="edge">
<title>57&#45;&gt;83</title>
<path fill="none" stroke="black" d="M631.39,-71.76C633.7,-63.14 636.08,-54.24 638.21,-46.26"/>
<polygon fill="black" stroke="black" points="641.64,-46.97 640.85,-36.41 634.88,-45.16 641.64,-46.97"/>
</g>
<!-- 109 -->
<g id="node18" class="node">
<title>109</title>
<polygon fill="#ffffff" stroke="black" points="1008,-274 823,-274 823,-191 1008,-191 1008,-274"/>
<text text-anchor="middle" x="915.5" y="-258.8" font-family="Times,serif" font-size="14.00">nbproc &lt;= 4.5</text>
<text text-anchor="middle" x="915.5" y="-243.8" font-family="Times,serif" font-size="14.00">gini = 0.5</text>
<text text-anchor="middle" x="915.5" y="-228.8" font-family="Times,serif" font-size="14.00">samples = 59463</text>
<text text-anchor="middle" x="915.5" y="-213.8" font-family="Times,serif" font-size="14.00">value = [29730, 29733]</text>
<text text-anchor="middle" x="915.5" y="-198.8" font-family="Times,serif" font-size="14.00">class = True</text>
</g>
<!-- 108&#45;&gt;109 -->
<g id="edge17" class="edge">
<title>108&#45;&gt;109</title>
<path fill="none" stroke="black" d="M915.5,-309.91C915.5,-301.65 915.5,-292.86 915.5,-284.3"/>
<polygon fill="black" stroke="black" points="919,-284.02 915.5,-274.02 912,-284.02 919,-284.02"/>
</g>
<!-- 760 -->
<g id="node25" class="node">
<title>760</title>
<polygon fill="#feffff" stroke="black" points="1295,-274 1128,-274 1128,-191 1295,-191 1295,-274"/>
<text text-anchor="middle" x="1211.5" y="-258.8" font-family="Times,serif" font-size="14.00">graphDepth &lt;= 9.0</text>
<text text-anchor="middle" x="1211.5" y="-243.8" font-family="Times,serif" font-size="14.00">gini = 0.5</text>
<text text-anchor="middle" x="1211.5" y="-228.8" font-family="Times,serif" font-size="14.00">samples = 10572</text>
<text text-anchor="middle" x="1211.5" y="-213.8" font-family="Times,serif" font-size="14.00">value = [5276, 5296]</text>
<text text-anchor="middle" x="1211.5" y="-198.8" font-family="Times,serif" font-size="14.00">class = True</text>
</g>
<!-- 108&#45;&gt;760 -->
<g id="edge24" class="edge">
<title>108&#45;&gt;760</title>
<path fill="none" stroke="black" d="M1008.34,-313.8C1043.21,-300.02 1082.85,-284.35 1117.8,-270.54"/>
<polygon fill="black" stroke="black" points="1119.51,-273.63 1127.52,-266.69 1116.93,-267.12 1119.51,-273.63"/>
</g>
<!-- 110 -->
<g id="node19" class="node">
<title>110</title>
<polygon fill="#ffffff" stroke="black" points="907,-155 722,-155 722,-72 907,-72 907,-155"/>
<text text-anchor="middle" x="814.5" y="-139.8" font-family="Times,serif" font-size="14.00">CCR &lt;= 5.5</text>
<text text-anchor="middle" x="814.5" y="-124.8" font-family="Times,serif" font-size="14.00">gini = 0.5</text>
<text text-anchor="middle" x="814.5" y="-109.8" font-family="Times,serif" font-size="14.00">samples = 24009</text>
<text text-anchor="middle" x="814.5" y="-94.8" font-family="Times,serif" font-size="14.00">value = [12003, 12006]</text>
<text text-anchor="middle" x="814.5" y="-79.8" font-family="Times,serif" font-size="14.00">class = True</text>
</g>
<!-- 109&#45;&gt;110 -->
<g id="edge18" class="edge">
<title>109&#45;&gt;110</title>
<path fill="none" stroke="black" d="M880.46,-190.91C872.62,-181.83 864.24,-172.12 856.17,-162.77"/>
<polygon fill="black" stroke="black" points="858.66,-160.3 849.48,-155.02 853.36,-164.88 858.66,-160.3"/>
</g>
<!-- 427 -->
<g id="node22" class="node">
<title>427</title>
<polygon fill="#ffffff" stroke="black" points="1110,-155 925,-155 925,-72 1110,-72 1110,-155"/>
<text text-anchor="middle" x="1017.5" y="-139.8" font-family="Times,serif" font-size="14.00">sdComm &lt;= 0.02</text>
<text text-anchor="middle" x="1017.5" y="-124.8" font-family="Times,serif" font-size="14.00">gini = 0.5</text>
<text text-anchor="middle" x="1017.5" y="-109.8" font-family="Times,serif" font-size="14.00">samples = 35454</text>
<text text-anchor="middle" x="1017.5" y="-94.8" font-family="Times,serif" font-size="14.00">value = [17727, 17727]</text>
<text text-anchor="middle" x="1017.5" y="-79.8" font-family="Times,serif" font-size="14.00">class = False</text>
</g>
<!-- 109&#45;&gt;427 -->
<g id="edge21" class="edge">
<title>109&#45;&gt;427</title>
<path fill="none" stroke="black" d="M950.89,-190.91C958.8,-181.83 967.27,-172.12 975.42,-162.77"/>
<polygon fill="black" stroke="black" points="978.24,-164.86 982.17,-155.02 972.96,-160.26 978.24,-164.86"/>
</g>
<!-- 111 -->
<g id="node20" class="node">
<title>111</title>
<polygon fill="#c0c0c0" stroke="black" points="798.5,-36 744.5,-36 744.5,0 798.5,0 798.5,-36"/>
<text text-anchor="middle" x="771.5" y="-14.3" font-family="Times,serif" font-size="14.00">(...)</text>
</g>
<!-- 110&#45;&gt;111 -->
<g id="edge19" class="edge">
<title>110&#45;&gt;111</title>
<path fill="none" stroke="black" d="M795.76,-71.76C791.71,-62.94 787.52,-53.84 783.79,-45.72"/>
<polygon fill="black" stroke="black" points="786.86,-44.03 779.5,-36.41 780.5,-46.95 786.86,-44.03"/>
</g>
<!-- 344 -->
<g id="node21" class="node">
<title>344</title>
<polygon fill="#c0c0c0" stroke="black" points="870.5,-36 816.5,-36 816.5,0 870.5,0 870.5,-36"/>
<text text-anchor="middle" x="843.5" y="-14.3" font-family="Times,serif" font-size="14.00">(...)</text>
</g>
<!-- 110&#45;&gt;344 -->
<g id="edge20" class="edge">
<title>110&#45;&gt;344</title>
<path fill="none" stroke="black" d="M827.14,-71.76C829.84,-63.04 832.63,-54.04 835.13,-45.99"/>
<polygon fill="black" stroke="black" points="838.48,-46.99 838.1,-36.41 831.8,-44.92 838.48,-46.99"/>
</g>
<!-- 428 -->
<g id="node23" class="node">
<title>428</title>
<polygon fill="#c0c0c0" stroke="black" points="997.5,-36 943.5,-36 943.5,0 997.5,0 997.5,-36"/>
<text text-anchor="middle" x="970.5" y="-14.3" font-family="Times,serif" font-size="14.00">(...)</text>
</g>
<!-- 427&#45;&gt;428 -->
<g id="edge22" class="edge">
<title>427&#45;&gt;428</title>
<path fill="none" stroke="black" d="M997.02,-71.76C992.54,-62.85 987.91,-53.64 983.8,-45.46"/>
<polygon fill="black" stroke="black" points="986.87,-43.77 979.25,-36.41 980.61,-46.91 986.87,-43.77"/>
</g>
<!-- 469 -->
<g id="node24" class="node">
<title>469</title>
<polygon fill="#c0c0c0" stroke="black" points="1069.5,-36 1015.5,-36 1015.5,0 1069.5,0 1069.5,-36"/>
<text text-anchor="middle" x="1042.5" y="-14.3" font-family="Times,serif" font-size="14.00">(...)</text>
</g>
<!-- 427&#45;&gt;469 -->
<g id="edge23" class="edge">
<title>427&#45;&gt;469</title>
<path fill="none" stroke="black" d="M1028.39,-71.76C1030.7,-63.14 1033.08,-54.24 1035.21,-46.26"/>
<polygon fill="black" stroke="black" points="1038.64,-46.97 1037.85,-36.41 1031.88,-45.16 1038.64,-46.97"/>
</g>
<!-- 761 -->
<g id="node26" class="node">
<title>761</title>
<polygon fill="#fdfeff" stroke="black" points="1295,-155 1128,-155 1128,-72 1295,-72 1295,-155"/>
<text text-anchor="middle" x="1211.5" y="-139.8" font-family="Times,serif" font-size="14.00">graphSize &lt;= 22.5</text>
<text text-anchor="middle" x="1211.5" y="-124.8" font-family="Times,serif" font-size="14.00">gini = 0.5</text>
<text text-anchor="middle" x="1211.5" y="-109.8" font-family="Times,serif" font-size="14.00">samples = 4426</text>
<text text-anchor="middle" x="1211.5" y="-94.8" font-family="Times,serif" font-size="14.00">value = [2203, 2223]</text>
<text text-anchor="middle" x="1211.5" y="-79.8" font-family="Times,serif" font-size="14.00">class = True</text>
</g>
<!-- 760&#45;&gt;761 -->
<g id="edge25" class="edge">
<title>760&#45;&gt;761</title>
<path fill="none" stroke="black" d="M1211.5,-190.91C1211.5,-182.65 1211.5,-173.86 1211.5,-165.3"/>
<polygon fill="black" stroke="black" points="1215,-165.02 1211.5,-155.02 1208,-165.02 1215,-165.02"/>
</g>
<!-- 796 -->
<g id="node29" class="node">
<title>796</title>
<polygon fill="#ffffff" stroke="black" points="1480,-155 1313,-155 1313,-72 1480,-72 1480,-155"/>
<text text-anchor="middle" x="1396.5" y="-139.8" font-family="Times,serif" font-size="14.00">graphSize &lt;= 40.0</text>
<text text-anchor="middle" x="1396.5" y="-124.8" font-family="Times,serif" font-size="14.00">gini = 0.5</text>
<text text-anchor="middle" x="1396.5" y="-109.8" font-family="Times,serif" font-size="14.00">samples = 6146</text>
<text text-anchor="middle" x="1396.5" y="-94.8" font-family="Times,serif" font-size="14.00">value = [3073, 3073]</text>
<text text-anchor="middle" x="1396.5" y="-79.8" font-family="Times,serif" font-size="14.00">class = False</text>
</g>
<!-- 760&#45;&gt;796 -->
<g id="edge28" class="edge">
<title>760&#45;&gt;796</title>
<path fill="none" stroke="black" d="M1275.68,-190.91C1291.18,-181.11 1307.85,-170.56 1323.71,-160.53"/>
<polygon fill="black" stroke="black" points="1325.85,-163.32 1332.43,-155.02 1322.11,-157.41 1325.85,-163.32"/>
</g>
<!-- 762 -->
<g id="node27" class="node">
<title>762</title>
<polygon fill="#c0c0c0" stroke="black" points="1202.5,-36 1148.5,-36 1148.5,0 1202.5,0 1202.5,-36"/>
<text text-anchor="middle" x="1175.5" y="-14.3" font-family="Times,serif" font-size="14.00">(...)</text>
</g>
<!-- 761&#45;&gt;762 -->
<g id="edge26" class="edge">
<title>761&#45;&gt;762</title>
<path fill="none" stroke="black" d="M1195.81,-71.76C1192.46,-63.04 1188.99,-54.04 1185.89,-45.99"/>
<polygon fill="black" stroke="black" points="1189.06,-44.48 1182.2,-36.41 1182.53,-46.99 1189.06,-44.48"/>
</g>
<!-- 773 -->
<g id="node28" class="node">
<title>773</title>
<polygon fill="#c0c0c0" stroke="black" points="1274.5,-36 1220.5,-36 1220.5,0 1274.5,0 1274.5,-36"/>
<text text-anchor="middle" x="1247.5" y="-14.3" font-family="Times,serif" font-size="14.00">(...)</text>
</g>
<!-- 761&#45;&gt;773 -->
<g id="edge27" class="edge">
<title>761&#45;&gt;773</title>
<path fill="none" stroke="black" d="M1227.19,-71.76C1230.54,-63.04 1234.01,-54.04 1237.11,-45.99"/>
<polygon fill="black" stroke="black" points="1240.47,-46.99 1240.8,-36.41 1233.94,-44.48 1240.47,-46.99"/>
</g>
<!-- 797 -->
<g id="node30" class="node">
<title>797</title>
<polygon fill="#c0c0c0" stroke="black" points="1387.5,-36 1333.5,-36 1333.5,0 1387.5,0 1387.5,-36"/>
<text text-anchor="middle" x="1360.5" y="-14.3" font-family="Times,serif" font-size="14.00">(...)</text>
</g>
<!-- 796&#45;&gt;797 -->
<g id="edge29" class="edge">
<title>796&#45;&gt;797</title>
<path fill="none" stroke="black" d="M1380.81,-71.76C1377.46,-63.04 1373.99,-54.04 1370.89,-45.99"/>
<polygon fill="black" stroke="black" points="1374.06,-44.48 1367.2,-36.41 1367.53,-46.99 1374.06,-44.48"/>
</g>
<!-- 808 -->
<g id="node31" class="node">
<title>808</title>
<polygon fill="#c0c0c0" stroke="black" points="1459.5,-36 1405.5,-36 1405.5,0 1459.5,0 1459.5,-36"/>
<text text-anchor="middle" x="1432.5" y="-14.3" font-family="Times,serif" font-size="14.00">(...)</text>
</g>
<!-- 796&#45;&gt;808 -->
<g id="edge30" class="edge">
<title>796&#45;&gt;808</title>
<path fill="none" stroke="black" d="M1412.19,-71.76C1415.54,-63.04 1419.01,-54.04 1422.11,-45.99"/>
<polygon fill="black" stroke="black" points="1425.47,-46.99 1425.8,-36.41 1418.94,-44.48 1425.47,-46.99"/>
</g>
</g>
</svg>
