<?xml version="1.0" encoding="UTF-8" standalone="no"?>
<!DOCTYPE svg PUBLIC "-//W3C//DTD SVG 1.1//EN"
 "http://www.w3.org/Graphics/SVG/1.1/DTD/svg11.dtd">
<!-- Generated by graphviz version 2.43.0 (0)
 -->
<!-- Title: Tree Pages: 1 -->
<svg width="2713pt" height="520pt"
 viewBox="0.00 0.00 2713.00 520.00" xmlns="http://www.w3.org/2000/svg" xmlns:xlink="http://www.w3.org/1999/xlink">
<g id="graph0" class="graph" transform="scale(1 1) rotate(0) translate(4 516)">
<title>Tree</title>
<polygon fill="white" stroke="transparent" points="-4,4 -4,-516 2709,-516 2709,4 -4,4"/>
<!-- 0 -->
<g id="node1" class="node">
<title>0</title>
<polygon fill="#fdf6f1" stroke="black" points="1570,-512 1169,-512 1169,-429 1570,-429 1570,-512"/>
<text text-anchor="middle" x="1369.5" y="-496.8" font-family="Times,serif" font-size="14.00">graphDepth &lt;= 6.5</text>
<text text-anchor="middle" x="1369.5" y="-481.8" font-family="Times,serif" font-size="14.00">gini = 0.83</text>
<text text-anchor="middle" x="1369.5" y="-466.8" font-family="Times,serif" font-size="14.00">samples = 80334</text>
<text text-anchor="middle" x="1369.5" y="-451.8" font-family="Times,serif" font-size="14.00">value = [17473, 12493, 12833, 12351, 12351, 12833]</text>
<text text-anchor="middle" x="1369.5" y="-436.8" font-family="Times,serif" font-size="14.00">class = mean</text>
</g>
<!-- 1 -->
<g id="node2" class="node">
<title>1</title>
<polygon fill="#fef9f6" stroke="black" points="1205,-393 858,-393 858,-310 1205,-310 1205,-393"/>
<text text-anchor="middle" x="1031.5" y="-377.8" font-family="Times,serif" font-size="14.00">CCR &lt;= 0.55</text>
<text text-anchor="middle" x="1031.5" y="-362.8" font-family="Times,serif" font-size="14.00">gini = 0.832</text>
<text text-anchor="middle" x="1031.5" y="-347.8" font-family="Times,serif" font-size="14.00">samples = 47908</text>
<text text-anchor="middle" x="1031.5" y="-332.8" font-family="Times,serif" font-size="14.00">value = [9632, 7588, 7880, 7464, 7464, 7880]</text>
<text text-anchor="middle" x="1031.5" y="-317.8" font-family="Times,serif" font-size="14.00">class = mean</text>
</g>
<!-- 0&#45;&gt;1 -->
<g id="edge1" class="edge">
<title>0&#45;&gt;1</title>
<path fill="none" stroke="black" d="M1252.23,-428.91C1221.82,-418.38 1188.94,-407 1158.07,-396.31"/>
<polygon fill="black" stroke="black" points="1159.15,-392.98 1148.56,-393.02 1156.87,-399.6 1159.15,-392.98"/>
<text text-anchor="middle" x="1159.48" y="-411.81" font-family="Times,serif" font-size="14.00">True</text>
</g>
<!-- 322 -->
<g id="node17" class="node">
<title>322</title>
<polygon fill="#fcf2ea" stroke="black" points="1872,-393 1525,-393 1525,-310 1872,-310 1872,-393"/>
<text text-anchor="middle" x="1698.5" y="-377.8" font-family="Times,serif" font-size="14.00">CCR &lt;= 0.55</text>
<text text-anchor="middle" x="1698.5" y="-362.8" font-family="Times,serif" font-size="14.00">gini = 0.827</text>
<text text-anchor="middle" x="1698.5" y="-347.8" font-family="Times,serif" font-size="14.00">samples = 32426</text>
<text text-anchor="middle" x="1698.5" y="-332.8" font-family="Times,serif" font-size="14.00">value = [7841, 4905, 4953, 4887, 4887, 4953]</text>
<text text-anchor="middle" x="1698.5" y="-317.8" font-family="Times,serif" font-size="14.00">class = mean</text>
</g>
<!-- 0&#45;&gt;322 -->
<g id="edge16" class="edge">
<title>0&#45;&gt;322</title>
<path fill="none" stroke="black" d="M1483.64,-428.91C1513.12,-418.43 1544.98,-407.1 1574.91,-396.45"/>
<polygon fill="black" stroke="black" points="1576.31,-399.67 1584.56,-393.02 1573.96,-393.07 1576.31,-399.67"/>
<text text-anchor="middle" x="1573.82" y="-411.9" font-family="Times,serif" font-size="14.00">False</text>
</g>
<!-- 2 -->
<g id="node3" class="node">
<title>2</title>
<polygon fill="#fef9f6" stroke="black" points="685,-274 338,-274 338,-191 685,-191 685,-274"/>
<text text-anchor="middle" x="511.5" y="-258.8" font-family="Times,serif" font-size="14.00">graphSize &lt;= 22.5</text>
<text text-anchor="middle" x="511.5" y="-243.8" font-family="Times,serif" font-size="14.00">gini = 0.831</text>
<text text-anchor="middle" x="511.5" y="-228.8" font-family="Times,serif" font-size="14.00">samples = 23127</text>
<text text-anchor="middle" x="511.5" y="-213.8" font-family="Times,serif" font-size="14.00">value = [4806, 3561, 3951, 3429, 3429, 3951]</text>
<text text-anchor="middle" x="511.5" y="-198.8" font-family="Times,serif" font-size="14.00">class = mean</text>
</g>
<!-- 1&#45;&gt;2 -->
<g id="edge2" class="edge">
<title>1&#45;&gt;2</title>
<path fill="none" stroke="black" d="M857.99,-311.46C805.71,-299.7 748.18,-286.75 695.26,-274.85"/>
<polygon fill="black" stroke="black" points="695.96,-271.42 685.44,-272.64 694.43,-278.25 695.96,-271.42"/>
</g>
<!-- 109 -->
<g id="node10" class="node">
<title>109</title>
<polygon fill="#fefaf7" stroke="black" points="1205,-274 858,-274 858,-191 1205,-191 1205,-274"/>
<text text-anchor="middle" x="1031.5" y="-258.8" font-family="Times,serif" font-size="14.00">CCR &lt;= 5.5</text>
<text text-anchor="middle" x="1031.5" y="-243.8" font-family="Times,serif" font-size="14.00">gini = 0.832</text>
<text text-anchor="middle" x="1031.5" y="-228.8" font-family="Times,serif" font-size="14.00">samples = 24781</text>
<text text-anchor="middle" x="1031.5" y="-213.8" font-family="Times,serif" font-size="14.00">value = [4826, 4027, 3929, 4035, 4035, 3929]</text>
<text text-anchor="middle" x="1031.5" y="-198.8" font-family="Times,serif" font-size="14.00">class = mean</text>
</g>
<!-- 1&#45;&gt;109 -->
<g id="edge9" class="edge">
<title>1&#45;&gt;109</title>
<path fill="none" stroke="black" d="M1031.5,-309.91C1031.5,-301.65 1031.5,-292.86 1031.5,-284.3"/>
<polygon fill="black" stroke="black" points="1035,-284.02 1031.5,-274.02 1028,-284.02 1035,-284.02"/>
</g>
<!-- 3 -->
<g id="node4" class="node">
<title>3</title>
<polygon fill="#fefaf7" stroke="black" points="347,-155 0,-155 0,-72 347,-72 347,-155"/>
<text text-anchor="middle" x="173.5" y="-139.8" font-family="Times,serif" font-size="14.00">sdComm &lt;= 0.065</text>
<text text-anchor="middle" x="173.5" y="-124.8" font-family="Times,serif" font-size="14.00">gini = 0.831</text>
<text text-anchor="middle" x="173.5" y="-109.8" font-family="Times,serif" font-size="14.00">samples = 21349</text>
<text text-anchor="middle" x="173.5" y="-94.8" font-family="Times,serif" font-size="14.00">value = [4360, 3329, 3605, 3225, 3225, 3605]</text>
<text text-anchor="middle" x="173.5" y="-79.8" font-family="Times,serif" font-size="14.00">class = mean</text>
</g>
<!-- 2&#45;&gt;3 -->
<g id="edge3" class="edge">
<title>2&#45;&gt;3</title>
<path fill="none" stroke="black" d="M394.23,-190.91C363.82,-180.38 330.94,-169 300.07,-158.31"/>
<polygon fill="black" stroke="black" points="301.15,-154.98 290.56,-155.02 298.87,-161.6 301.15,-154.98"/>
</g>
<!-- 74 -->
<g id="node7" class="node">
<title>74</title>
<polygon fill="#fdf6f1" stroke="black" points="658,-155 365,-155 365,-72 658,-72 658,-155"/>
<text text-anchor="middle" x="511.5" y="-139.8" font-family="Times,serif" font-size="14.00">sdComp &lt;= 0.02</text>
<text text-anchor="middle" x="511.5" y="-124.8" font-family="Times,serif" font-size="14.00">gini = 0.818</text>
<text text-anchor="middle" x="511.5" y="-109.8" font-family="Times,serif" font-size="14.00">samples = 1778</text>
<text text-anchor="middle" x="511.5" y="-94.8" font-family="Times,serif" font-size="14.00">value = [446, 232, 346, 204, 204, 346]</text>
<text text-anchor="middle" x="511.5" y="-79.8" font-family="Times,serif" font-size="14.00">class = mean</text>
</g>
<!-- 2&#45;&gt;74 -->
<g id="edge6" class="edge">
<title>2&#45;&gt;74</title>
<path fill="none" stroke="black" d="M511.5,-190.91C511.5,-182.65 511.5,-173.86 511.5,-165.3"/>
<polygon fill="black" stroke="black" points="515,-165.02 511.5,-155.02 508,-165.02 515,-165.02"/>
</g>
<!-- 4 -->
<g id="node5" class="node">
<title>4</title>
<polygon fill="#c0c0c0" stroke="black" points="164.5,-36 110.5,-36 110.5,0 164.5,0 164.5,-36"/>
<text text-anchor="middle" x="137.5" y="-14.3" font-family="Times,serif" font-size="14.00">(...)</text>
</g>
<!-- 3&#45;&gt;4 -->
<g id="edge4" class="edge">
<title>3&#45;&gt;4</title>
<path fill="none" stroke="black" d="M157.81,-71.76C154.46,-63.04 150.99,-54.04 147.89,-45.99"/>
<polygon fill="black" stroke="black" points="151.06,-44.48 144.2,-36.41 144.53,-46.99 151.06,-44.48"/>
</g>
<!-- 51 -->
<g id="node6" class="node">
<title>51</title>
<polygon fill="#c0c0c0" stroke="black" points="236.5,-36 182.5,-36 182.5,0 236.5,0 236.5,-36"/>
<text text-anchor="middle" x="209.5" y="-14.3" font-family="Times,serif" font-size="14.00">(...)</text>
</g>
<!-- 3&#45;&gt;51 -->
<g id="edge5" class="edge">
<title>3&#45;&gt;51</title>
<path fill="none" stroke="black" d="M189.19,-71.76C192.54,-63.04 196.01,-54.04 199.11,-45.99"/>
<polygon fill="black" stroke="black" points="202.47,-46.99 202.8,-36.41 195.94,-44.48 202.47,-46.99"/>
</g>
<!-- 75 -->
<g id="node8" class="node">
<title>75</title>
<polygon fill="#c0c0c0" stroke="black" points="502.5,-36 448.5,-36 448.5,0 502.5,0 502.5,-36"/>
<text text-anchor="middle" x="475.5" y="-14.3" font-family="Times,serif" font-size="14.00">(...)</text>
</g>
<!-- 74&#45;&gt;75 -->
<g id="edge7" class="edge">
<title>74&#45;&gt;75</title>
<path fill="none" stroke="black" d="M495.81,-71.76C492.46,-63.04 488.99,-54.04 485.89,-45.99"/>
<polygon fill="black" stroke="black" points="489.06,-44.48 482.2,-36.41 482.53,-46.99 489.06,-44.48"/>
</g>
<!-- 86 -->
<g id="node9" class="node">
<title>86</title>
<polygon fill="#c0c0c0" stroke="black" points="574.5,-36 520.5,-36 520.5,0 574.5,0 574.5,-36"/>
<text text-anchor="middle" x="547.5" y="-14.3" font-family="Times,serif" font-size="14.00">(...)</text>
</g>
<!-- 74&#45;&gt;86 -->
<g id="edge8" class="edge">
<title>74&#45;&gt;86</title>
<path fill="none" stroke="black" d="M527.19,-71.76C530.54,-63.04 534.01,-54.04 537.11,-45.99"/>
<polygon fill="black" stroke="black" points="540.47,-46.99 540.8,-36.41 533.94,-44.48 540.47,-46.99"/>
</g>
<!-- 110 -->
<g id="node11" class="node">
<title>110</title>
<polygon fill="#fffdfb" stroke="black" points="1023,-155 676,-155 676,-72 1023,-72 1023,-155"/>
<text text-anchor="middle" x="849.5" y="-139.8" font-family="Times,serif" font-size="14.00">graphSize &lt;= 22.5</text>
<text text-anchor="middle" x="849.5" y="-124.8" font-family="Times,serif" font-size="14.00">gini = 0.832</text>
<text text-anchor="middle" x="849.5" y="-109.8" font-family="Times,serif" font-size="14.00">samples = 11332</text>
<text text-anchor="middle" x="849.5" y="-94.8" font-family="Times,serif" font-size="14.00">value = [2125, 1859, 1717, 1957, 1957, 1717]</text>
<text text-anchor="middle" x="849.5" y="-79.8" font-family="Times,serif" font-size="14.00">class = mean</text>
</g>
<!-- 109&#45;&gt;110 -->
<g id="edge10" class="edge">
<title>109&#45;&gt;110</title>
<path fill="none" stroke="black" d="M968.36,-190.91C953.11,-181.11 936.71,-170.56 921.11,-160.53"/>
<polygon fill="black" stroke="black" points="922.84,-157.48 912.53,-155.02 919.05,-163.37 922.84,-157.48"/>
</g>
<!-- 215 -->
<g id="node14" class="node">
<title>215</title>
<polygon fill="#fefaf6" stroke="black" points="1388,-155 1041,-155 1041,-72 1388,-72 1388,-155"/>
<text text-anchor="middle" x="1214.5" y="-139.8" font-family="Times,serif" font-size="14.00">graphSize &lt;= 22.5</text>
<text text-anchor="middle" x="1214.5" y="-124.8" font-family="Times,serif" font-size="14.00">gini = 0.832</text>
<text text-anchor="middle" x="1214.5" y="-109.8" font-family="Times,serif" font-size="14.00">samples = 13449</text>
<text text-anchor="middle" x="1214.5" y="-94.8" font-family="Times,serif" font-size="14.00">value = [2701, 2168, 2212, 2078, 2078, 2212]</text>
<text text-anchor="middle" x="1214.5" y="-79.8" font-family="Times,serif" font-size="14.00">class = mean</text>
</g>
<!-- 109&#45;&gt;215 -->
<g id="edge13" class="edge">
<title>109&#45;&gt;215</title>
<path fill="none" stroke="black" d="M1094.99,-190.91C1110.32,-181.11 1126.81,-170.56 1142.5,-160.53"/>
<polygon fill="black" stroke="black" points="1144.58,-163.36 1151.12,-155.02 1140.81,-157.46 1144.58,-163.36"/>
</g>
<!-- 111 -->
<g id="node12" class="node">
<title>111</title>
<polygon fill="#c0c0c0" stroke="black" points="840.5,-36 786.5,-36 786.5,0 840.5,0 840.5,-36"/>
<text text-anchor="middle" x="813.5" y="-14.3" font-family="Times,serif" font-size="14.00">(...)</text>
</g>
<!-- 110&#45;&gt;111 -->
<g id="edge11" class="edge">
<title>110&#45;&gt;111</title>
<path fill="none" stroke="black" d="M833.81,-71.76C830.46,-63.04 826.99,-54.04 823.89,-45.99"/>
<polygon fill="black" stroke="black" points="827.06,-44.48 820.2,-36.41 820.53,-46.99 827.06,-44.48"/>
</g>
<!-- 182 -->
<g id="node13" class="node">
<title>182</title>
<polygon fill="#c0c0c0" stroke="black" points="912.5,-36 858.5,-36 858.5,0 912.5,0 912.5,-36"/>
<text text-anchor="middle" x="885.5" y="-14.3" font-family="Times,serif" font-size="14.00">(...)</text>
</g>
<!-- 110&#45;&gt;182 -->
<g id="edge12" class="edge">
<title>110&#45;&gt;182</title>
<path fill="none" stroke="black" d="M865.19,-71.76C868.54,-63.04 872.01,-54.04 875.11,-45.99"/>
<polygon fill="black" stroke="black" points="878.47,-46.99 878.8,-36.41 871.94,-44.48 878.47,-46.99"/>
</g>
<!-- 216 -->
<g id="node15" class="node">
<title>216</title>
<polygon fill="#c0c0c0" stroke="black" points="1205.5,-36 1151.5,-36 1151.5,0 1205.5,0 1205.5,-36"/>
<text text-anchor="middle" x="1178.5" y="-14.3" font-family="Times,serif" font-size="14.00">(...)</text>
</g>
<!-- 215&#45;&gt;216 -->
<g id="edge14" class="edge">
<title>215&#45;&gt;216</title>
<path fill="none" stroke="black" d="M1198.81,-71.76C1195.46,-63.04 1191.99,-54.04 1188.89,-45.99"/>
<polygon fill="black" stroke="black" points="1192.06,-44.48 1185.2,-36.41 1185.53,-46.99 1192.06,-44.48"/>
</g>
<!-- 287 -->
<g id="node16" class="node">
<title>287</title>
<polygon fill="#c0c0c0" stroke="black" points="1277.5,-36 1223.5,-36 1223.5,0 1277.5,0 1277.5,-36"/>
<text text-anchor="middle" x="1250.5" y="-14.3" font-family="Times,serif" font-size="14.00">(...)</text>
</g>
<!-- 215&#45;&gt;287 -->
<g id="edge15" class="edge">
<title>215&#45;&gt;287</title>
<path fill="none" stroke="black" d="M1230.19,-71.76C1233.54,-63.04 1237.01,-54.04 1240.11,-45.99"/>
<polygon fill="black" stroke="black" points="1243.47,-46.99 1243.8,-36.41 1236.94,-44.48 1243.47,-46.99"/>
</g>
<!-- 323 -->
<g id="node18" class="node">
<title>323</title>
<polygon fill="#fae5d6" stroke="black" points="1849.5,-274 1547.5,-274 1547.5,-191 1849.5,-191 1849.5,-274"/>
<text text-anchor="middle" x="1698.5" y="-258.8" font-family="Times,serif" font-size="14.00">graphSize &lt;= 40.0</text>
<text text-anchor="middle" x="1698.5" y="-243.8" font-family="Times,serif" font-size="14.00">gini = 0.804</text>
<text text-anchor="middle" x="1698.5" y="-228.8" font-family="Times,serif" font-size="14.00">samples = 6332</text>
<text text-anchor="middle" x="1698.5" y="-213.8" font-family="Times,serif" font-size="14.00">value = [2038, 782, 848, 908, 908, 848]</text>
<text text-anchor="middle" x="1698.5" y="-198.8" font-family="Times,serif" font-size="14.00">class = mean</text>
</g>
<!-- 322&#45;&gt;323 -->
<g id="edge17" class="edge">
<title>322&#45;&gt;323</title>
<path fill="none" stroke="black" d="M1698.5,-309.91C1698.5,-301.65 1698.5,-292.86 1698.5,-284.3"/>
<polygon fill="black" stroke="black" points="1702,-284.02 1698.5,-274.02 1695,-284.02 1702,-284.02"/>
</g>
<!-- 492 -->
<g id="node25" class="node">
<title>492</title>
<polygon fill="#fdf5f0" stroke="black" points="2362,-274 2015,-274 2015,-191 2362,-191 2362,-274"/>
<text text-anchor="middle" x="2188.5" y="-258.8" font-family="Times,serif" font-size="14.00">CCR &lt;= 5.5</text>
<text text-anchor="middle" x="2188.5" y="-243.8" font-family="Times,serif" font-size="14.00">gini = 0.83</text>
<text text-anchor="middle" x="2188.5" y="-228.8" font-family="Times,serif" font-size="14.00">samples = 26094</text>
<text text-anchor="middle" x="2188.5" y="-213.8" font-family="Times,serif" font-size="14.00">value = [5803, 4123, 4105, 3979, 3979, 4105]</text>
<text text-anchor="middle" x="2188.5" y="-198.8" font-family="Times,serif" font-size="14.00">class = mean</text>
</g>
<!-- 322&#45;&gt;492 -->
<g id="edge24" class="edge">
<title>322&#45;&gt;492</title>
<path fill="none" stroke="black" d="M1868.16,-309.99C1913.6,-299.14 1962.86,-287.38 2008.82,-276.4"/>
<polygon fill="black" stroke="black" points="2009.66,-279.8 2018.57,-274.07 2008.03,-272.99 2009.66,-279.8"/>
</g>
<!-- 324 -->
<g id="node19" class="node">
<title>324</title>
<polygon fill="#fceee5" stroke="black" points="1699,-155 1406,-155 1406,-72 1699,-72 1699,-155"/>
<text text-anchor="middle" x="1552.5" y="-139.8" font-family="Times,serif" font-size="14.00">nbproc &lt;= 4.5</text>
<text text-anchor="middle" x="1552.5" y="-124.8" font-family="Times,serif" font-size="14.00">gini = 0.822</text>
<text text-anchor="middle" x="1552.5" y="-109.8" font-family="Times,serif" font-size="14.00">samples = 3228</text>
<text text-anchor="middle" x="1552.5" y="-94.8" font-family="Times,serif" font-size="14.00">value = [850, 486, 482, 464, 464, 482]</text>
<text text-anchor="middle" x="1552.5" y="-79.8" font-family="Times,serif" font-size="14.00">class = mean</text>
</g>
<!-- 323&#45;&gt;324 -->
<g id="edge18" class="edge">
<title>323&#45;&gt;324</title>
<path fill="none" stroke="black" d="M1647.85,-190.91C1635.96,-181.38 1623.19,-171.15 1610.99,-161.37"/>
<polygon fill="black" stroke="black" points="1613.06,-158.54 1603.06,-155.02 1608.68,-164.01 1613.06,-158.54"/>
</g>
<!-- 359 -->
<g id="node22" class="node">
<title>359</title>
<polygon fill="#f8dcc8" stroke="black" points="2019.5,-155 1717.5,-155 1717.5,-72 2019.5,-72 2019.5,-155"/>
<text text-anchor="middle" x="1868.5" y="-139.8" font-family="Times,serif" font-size="14.00">sdComp &lt;= 0.02</text>
<text text-anchor="middle" x="1868.5" y="-124.8" font-family="Times,serif" font-size="14.00">gini = 0.776</text>
<text text-anchor="middle" x="1868.5" y="-109.8" font-family="Times,serif" font-size="14.00">samples = 3104</text>
<text text-anchor="middle" x="1868.5" y="-94.8" font-family="Times,serif" font-size="14.00">value = [1188, 296, 366, 444, 444, 366]</text>
<text text-anchor="middle" x="1868.5" y="-79.8" font-family="Times,serif" font-size="14.00">class = mean</text>
</g>
<!-- 323&#45;&gt;359 -->
<g id="edge21" class="edge">
<title>323&#45;&gt;359</title>
<path fill="none" stroke="black" d="M1757.48,-190.91C1771.59,-181.2 1786.76,-170.76 1801.21,-160.81"/>
<polygon fill="black" stroke="black" points="1803.37,-163.57 1809.62,-155.02 1799.4,-157.81 1803.37,-163.57"/>
</g>
<!-- 325 -->
<g id="node20" class="node">
<title>325</title>
<polygon fill="#c0c0c0" stroke="black" points="1543.5,-36 1489.5,-36 1489.5,0 1543.5,0 1543.5,-36"/>
<text text-anchor="middle" x="1516.5" y="-14.3" font-family="Times,serif" font-size="14.00">(...)</text>
</g>
<!-- 324&#45;&gt;325 -->
<g id="edge19" class="edge">
<title>324&#45;&gt;325</title>
<path fill="none" stroke="black" d="M1536.81,-71.76C1533.46,-63.04 1529.99,-54.04 1526.89,-45.99"/>
<polygon fill="black" stroke="black" points="1530.06,-44.48 1523.2,-36.41 1523.53,-46.99 1530.06,-44.48"/>
</g>
<!-- 342 -->
<g id="node21" class="node">
<title>342</title>
<polygon fill="#c0c0c0" stroke="black" points="1615.5,-36 1561.5,-36 1561.5,0 1615.5,0 1615.5,-36"/>
<text text-anchor="middle" x="1588.5" y="-14.3" font-family="Times,serif" font-size="14.00">(...)</text>
</g>
<!-- 324&#45;&gt;342 -->
<g id="edge20" class="edge">
<title>324&#45;&gt;342</title>
<path fill="none" stroke="black" d="M1568.19,-71.76C1571.54,-63.04 1575.01,-54.04 1578.11,-45.99"/>
<polygon fill="black" stroke="black" points="1581.47,-46.99 1581.8,-36.41 1574.94,-44.48 1581.47,-46.99"/>
</g>
<!-- 360 -->
<g id="node23" class="node">
<title>360</title>
<polygon fill="#c0c0c0" stroke="black" points="1859.5,-36 1805.5,-36 1805.5,0 1859.5,0 1859.5,-36"/>
<text text-anchor="middle" x="1832.5" y="-14.3" font-family="Times,serif" font-size="14.00">(...)</text>
</g>
<!-- 359&#45;&gt;360 -->
<g id="edge22" class="edge">
<title>359&#45;&gt;360</title>
<path fill="none" stroke="black" d="M1852.81,-71.76C1849.46,-63.04 1845.99,-54.04 1842.89,-45.99"/>
<polygon fill="black" stroke="black" points="1846.06,-44.48 1839.2,-36.41 1839.53,-46.99 1846.06,-44.48"/>
</g>
<!-- 401 -->
<g id="node24" class="node">
<title>401</title>
<polygon fill="#c0c0c0" stroke="black" points="1931.5,-36 1877.5,-36 1877.5,0 1931.5,0 1931.5,-36"/>
<text text-anchor="middle" x="1904.5" y="-14.3" font-family="Times,serif" font-size="14.00">(...)</text>
</g>
<!-- 359&#45;&gt;401 -->
<g id="edge23" class="edge">
<title>359&#45;&gt;401</title>
<path fill="none" stroke="black" d="M1884.19,-71.76C1887.54,-63.04 1891.01,-54.04 1894.11,-45.99"/>
<polygon fill="black" stroke="black" points="1897.47,-46.99 1897.8,-36.41 1890.94,-44.48 1897.47,-46.99"/>
</g>
<!-- 493 -->
<g id="node26" class="node">
<title>493</title>
<polygon fill="#fcf0e8" stroke="black" points="2339.5,-155 2037.5,-155 2037.5,-72 2339.5,-72 2339.5,-155"/>
<text text-anchor="middle" x="2188.5" y="-139.8" font-family="Times,serif" font-size="14.00">sdComp &lt;= 0.65</text>
<text text-anchor="middle" x="2188.5" y="-124.8" font-family="Times,serif" font-size="14.00">gini = 0.824</text>
<text text-anchor="middle" x="2188.5" y="-109.8" font-family="Times,serif" font-size="14.00">samples = 3956</text>
<text text-anchor="middle" x="2188.5" y="-94.8" font-family="Times,serif" font-size="14.00">value = [1010, 586, 618, 562, 562, 618]</text>
<text text-anchor="middle" x="2188.5" y="-79.8" font-family="Times,serif" font-size="14.00">class = mean</text>
</g>
<!-- 492&#45;&gt;493 -->
<g id="edge25" class="edge">
<title>492&#45;&gt;493</title>
<path fill="none" stroke="black" d="M2188.5,-190.91C2188.5,-182.65 2188.5,-173.86 2188.5,-165.3"/>
<polygon fill="black" stroke="black" points="2192,-165.02 2188.5,-155.02 2185,-165.02 2192,-165.02"/>
</g>
<!-- 664 -->
<g id="node29" class="node">
<title>664</title>
<polygon fill="#fdf6f2" stroke="black" points="2705,-155 2358,-155 2358,-72 2705,-72 2705,-155"/>
<text text-anchor="middle" x="2531.5" y="-139.8" font-family="Times,serif" font-size="14.00">sdComp &lt;= 6.5</text>
<text text-anchor="middle" x="2531.5" y="-124.8" font-family="Times,serif" font-size="14.00">gini = 0.83</text>
<text text-anchor="middle" x="2531.5" y="-109.8" font-family="Times,serif" font-size="14.00">samples = 22138</text>
<text text-anchor="middle" x="2531.5" y="-94.8" font-family="Times,serif" font-size="14.00">value = [4793, 3537, 3487, 3417, 3417, 3487]</text>
<text text-anchor="middle" x="2531.5" y="-79.8" font-family="Times,serif" font-size="14.00">class = mean</text>
</g>
<!-- 492&#45;&gt;664 -->
<g id="edge28" class="edge">
<title>492&#45;&gt;664</title>
<path fill="none" stroke="black" d="M2307.5,-190.91C2338.36,-180.38 2371.74,-169 2403.06,-158.31"/>
<polygon fill="black" stroke="black" points="2404.37,-161.56 2412.71,-155.02 2402.11,-154.94 2404.37,-161.56"/>
</g>
<!-- 494 -->
<g id="node27" class="node">
<title>494</title>
<polygon fill="#c0c0c0" stroke="black" points="2179.5,-36 2125.5,-36 2125.5,0 2179.5,0 2179.5,-36"/>
<text text-anchor="middle" x="2152.5" y="-14.3" font-family="Times,serif" font-size="14.00">(...)</text>
</g>
<!-- 493&#45;&gt;494 -->
<g id="edge26" class="edge">
<title>493&#45;&gt;494</title>
<path fill="none" stroke="black" d="M2172.81,-71.76C2169.46,-63.04 2165.99,-54.04 2162.89,-45.99"/>
<polygon fill="black" stroke="black" points="2166.06,-44.48 2159.2,-36.41 2159.53,-46.99 2166.06,-44.48"/>
</g>
<!-- 605 -->
<g id="node28" class="node">
<title>605</title>
<polygon fill="#c0c0c0" stroke="black" points="2251.5,-36 2197.5,-36 2197.5,0 2251.5,0 2251.5,-36"/>
<text text-anchor="middle" x="2224.5" y="-14.3" font-family="Times,serif" font-size="14.00">(...)</text>
</g>
<!-- 493&#45;&gt;605 -->
<g id="edge27" class="edge">
<title>493&#45;&gt;605</title>
<path fill="none" stroke="black" d="M2204.19,-71.76C2207.54,-63.04 2211.01,-54.04 2214.11,-45.99"/>
<polygon fill="black" stroke="black" points="2217.47,-46.99 2217.8,-36.41 2210.94,-44.48 2217.47,-46.99"/>
</g>
<!-- 665 -->
<g id="node30" class="node">
<title>665</title>
<polygon fill="#c0c0c0" stroke="black" points="2522.5,-36 2468.5,-36 2468.5,0 2522.5,0 2522.5,-36"/>
<text text-anchor="middle" x="2495.5" y="-14.3" font-family="Times,serif" font-size="14.00">(...)</text>
</g>
<!-- 664&#45;&gt;665 -->
<g id="edge29" class="edge">
<title>664&#45;&gt;665</title>
<path fill="none" stroke="black" d="M2515.81,-71.76C2512.46,-63.04 2508.99,-54.04 2505.89,-45.99"/>
<polygon fill="black" stroke="black" points="2509.06,-44.48 2502.2,-36.41 2502.53,-46.99 2509.06,-44.48"/>
</g>
<!-- 784 -->
<g id="node31" class="node">
<title>784</title>
<polygon fill="#c0c0c0" stroke="black" points="2594.5,-36 2540.5,-36 2540.5,0 2594.5,0 2594.5,-36"/>
<text text-anchor="middle" x="2567.5" y="-14.3" font-family="Times,serif" font-size="14.00">(...)</text>
</g>
<!-- 664&#45;&gt;784 -->
<g id="edge30" class="edge">
<title>664&#45;&gt;784</title>
<path fill="none" stroke="black" d="M2547.19,-71.76C2550.54,-63.04 2554.01,-54.04 2557.11,-45.99"/>
<polygon fill="black" stroke="black" points="2560.47,-46.99 2560.8,-36.41 2553.94,-44.48 2560.47,-46.99"/>
</g>
</g>
</svg>
