<?xml version="1.0" encoding="UTF-8" standalone="no"?>
<!DOCTYPE svg PUBLIC "-//W3C//DTD SVG 1.1//EN"
 "http://www.w3.org/Graphics/SVG/1.1/DTD/svg11.dtd">
<!-- Generated by graphviz version 2.43.0 (0)
 -->
<!-- Title: Tree Pages: 1 -->
<svg width="2973pt" height="520pt"
 viewBox="0.00 0.00 2972.50 520.00" xmlns="http://www.w3.org/2000/svg" xmlns:xlink="http://www.w3.org/1999/xlink">
<g id="graph0" class="graph" transform="scale(1 1) rotate(0) translate(4 516)">
<title>Tree</title>
<polygon fill="white" stroke="transparent" points="-4,4 -4,-516 2968.5,-516 2968.5,4 -4,4"/>
<!-- 0 -->
<g id="node1" class="node">
<title>0</title>
<polygon fill="#fffefe" stroke="black" points="1624.5,-512 1178.5,-512 1178.5,-429 1624.5,-429 1624.5,-512"/>
<text text-anchor="middle" x="1401.5" y="-496.8" font-family="Times,serif" font-size="14.00">CCR &lt;= 0.55</text>
<text text-anchor="middle" x="1401.5" y="-481.8" font-family="Times,serif" font-size="14.00">gini = 0.848</text>
<text text-anchor="middle" x="1401.5" y="-466.8" font-family="Times,serif" font-size="14.00">samples = 80334</text>
<text text-anchor="middle" x="1401.5" y="-451.8" font-family="Times,serif" font-size="14.00">value = [14844, 11320, 5749, 10340, 10994, 12603, 14484]</text>
<text text-anchor="middle" x="1401.5" y="-436.8" font-family="Times,serif" font-size="14.00">class = rku</text>
</g>
<!-- 1 -->
<g id="node2" class="node">
<title>1</title>
<polygon fill="#fefeff" stroke="black" points="1272.5,-393 880.5,-393 880.5,-310 1272.5,-310 1272.5,-393"/>
<text text-anchor="middle" x="1076.5" y="-377.8" font-family="Times,serif" font-size="14.00">graphSize &lt;= 40.0</text>
<text text-anchor="middle" x="1076.5" y="-362.8" font-family="Times,serif" font-size="14.00">gini = 0.851</text>
<text text-anchor="middle" x="1076.5" y="-347.8" font-family="Times,serif" font-size="14.00">samples = 29459</text>
<text text-anchor="middle" x="1076.5" y="-332.8" font-family="Times,serif" font-size="14.00">value = [4902, 3348, 2427, 4300, 4990, 4876, 4616]</text>
<text text-anchor="middle" x="1076.5" y="-317.8" font-family="Times,serif" font-size="14.00">class = cluHPS</text>
</g>
<!-- 0&#45;&gt;1 -->
<g id="edge1" class="edge">
<title>0&#45;&gt;1</title>
<path fill="none" stroke="black" d="M1288.74,-428.91C1259.63,-418.43 1228.15,-407.1 1198.59,-396.45"/>
<polygon fill="black" stroke="black" points="1199.65,-393.11 1189.06,-393.02 1197.28,-399.7 1199.65,-393.11"/>
<text text-anchor="middle" x="1199.7" y="-411.94" font-family="Times,serif" font-size="14.00">True</text>
</g>
<!-- 278 -->
<g id="node17" class="node">
<title>278</title>
<polygon fill="#ffffff" stroke="black" points="1975.5,-393 1583.5,-393 1583.5,-310 1975.5,-310 1975.5,-393"/>
<text text-anchor="middle" x="1779.5" y="-377.8" font-family="Times,serif" font-size="14.00">sdComp &lt;= 0.65</text>
<text text-anchor="middle" x="1779.5" y="-362.8" font-family="Times,serif" font-size="14.00">gini = 0.844</text>
<text text-anchor="middle" x="1779.5" y="-347.8" font-family="Times,serif" font-size="14.00">samples = 50875</text>
<text text-anchor="middle" x="1779.5" y="-332.8" font-family="Times,serif" font-size="14.00">value = [9942, 7972, 3322, 6040, 6004, 7727, 9868]</text>
<text text-anchor="middle" x="1779.5" y="-317.8" font-family="Times,serif" font-size="14.00">class = rku</text>
</g>
<!-- 0&#45;&gt;278 -->
<g id="edge16" class="edge">
<title>0&#45;&gt;278</title>
<path fill="none" stroke="black" d="M1532.38,-428.99C1566.7,-418.37 1603.85,-406.87 1638.66,-396.09"/>
<polygon fill="black" stroke="black" points="1639.89,-399.38 1648.41,-393.07 1637.82,-392.69 1639.89,-399.38"/>
<text text-anchor="middle" x="1636.75" y="-411.49" font-family="Times,serif" font-size="14.00">False</text>
</g>
<!-- 2 -->
<g id="node3" class="node">
<title>2</title>
<polygon fill="#fdfdff" stroke="black" points="774.5,-274 382.5,-274 382.5,-191 774.5,-191 774.5,-274"/>
<text text-anchor="middle" x="578.5" y="-258.8" font-family="Times,serif" font-size="14.00">nbproc &lt;= 4.5</text>
<text text-anchor="middle" x="578.5" y="-243.8" font-family="Times,serif" font-size="14.00">gini = 0.847</text>
<text text-anchor="middle" x="578.5" y="-228.8" font-family="Times,serif" font-size="14.00">samples = 26355</text>
<text text-anchor="middle" x="578.5" y="-213.8" font-family="Times,serif" font-size="14.00">value = [4346, 3204, 1591, 4006, 4610, 4388, 4210]</text>
<text text-anchor="middle" x="578.5" y="-198.8" font-family="Times,serif" font-size="14.00">class = cluHPS</text>
</g>
<!-- 1&#45;&gt;2 -->
<g id="edge2" class="edge">
<title>1&#45;&gt;2</title>
<path fill="none" stroke="black" d="M904.07,-309.99C857.89,-299.14 807.82,-287.38 761.12,-276.4"/>
<polygon fill="black" stroke="black" points="761.74,-272.95 751.2,-274.07 760.14,-279.77 761.74,-272.95"/>
</g>
<!-- 145 -->
<g id="node10" class="node">
<title>145</title>
<polygon fill="#e9fceb" stroke="black" points="1241,-274 912,-274 912,-191 1241,-191 1241,-274"/>
<text text-anchor="middle" x="1076.5" y="-258.8" font-family="Times,serif" font-size="14.00">sdComp &lt;= 0.065</text>
<text text-anchor="middle" x="1076.5" y="-243.8" font-family="Times,serif" font-size="14.00">gini = 0.827</text>
<text text-anchor="middle" x="1076.5" y="-228.8" font-family="Times,serif" font-size="14.00">samples = 3104</text>
<text text-anchor="middle" x="1076.5" y="-213.8" font-family="Times,serif" font-size="14.00">value = [556, 144, 836, 294, 380, 488, 406]</text>
<text text-anchor="middle" x="1076.5" y="-198.8" font-family="Times,serif" font-size="14.00">class = BIL</text>
</g>
<!-- 1&#45;&gt;145 -->
<g id="edge9" class="edge">
<title>1&#45;&gt;145</title>
<path fill="none" stroke="black" d="M1076.5,-309.91C1076.5,-301.65 1076.5,-292.86 1076.5,-284.3"/>
<polygon fill="black" stroke="black" points="1080,-284.02 1076.5,-274.02 1073,-284.02 1080,-284.02"/>
</g>
<!-- 3 -->
<g id="node4" class="node">
<title>3</title>
<polygon fill="#f8f9fe" stroke="black" points="365,-155 0,-155 0,-72 365,-72 365,-155"/>
<text text-anchor="middle" x="182.5" y="-139.8" font-family="Times,serif" font-size="14.00">sdComp &lt;= 0.065</text>
<text text-anchor="middle" x="182.5" y="-124.8" font-family="Times,serif" font-size="14.00">gini = 0.841</text>
<text text-anchor="middle" x="182.5" y="-109.8" font-family="Times,serif" font-size="14.00">samples = 7987</text>
<text text-anchor="middle" x="182.5" y="-94.8" font-family="Times,serif" font-size="14.00">value = [1156, 878, 485, 1508, 1736, 1278, 946]</text>
<text text-anchor="middle" x="182.5" y="-79.8" font-family="Times,serif" font-size="14.00">class = cluHPS</text>
</g>
<!-- 2&#45;&gt;3 -->
<g id="edge3" class="edge">
<title>2&#45;&gt;3</title>
<path fill="none" stroke="black" d="M441.39,-190.99C405.28,-180.32 366.19,-168.77 329.58,-157.96"/>
<polygon fill="black" stroke="black" points="330.41,-154.55 319.83,-155.07 328.43,-161.26 330.41,-154.55"/>
</g>
<!-- 74 -->
<g id="node7" class="node">
<title>74</title>
<polygon fill="#fffefe" stroke="black" points="774.5,-155 382.5,-155 382.5,-72 774.5,-72 774.5,-155"/>
<text text-anchor="middle" x="578.5" y="-139.8" font-family="Times,serif" font-size="14.00">sdComm &lt;= 0.02</text>
<text text-anchor="middle" x="578.5" y="-124.8" font-family="Times,serif" font-size="14.00">gini = 0.847</text>
<text text-anchor="middle" x="578.5" y="-109.8" font-family="Times,serif" font-size="14.00">samples = 18368</text>
<text text-anchor="middle" x="578.5" y="-94.8" font-family="Times,serif" font-size="14.00">value = [3190, 2326, 1106, 2498, 2874, 3110, 3264]</text>
<text text-anchor="middle" x="578.5" y="-79.8" font-family="Times,serif" font-size="14.00">class = rkuad</text>
</g>
<!-- 2&#45;&gt;74 -->
<g id="edge6" class="edge">
<title>2&#45;&gt;74</title>
<path fill="none" stroke="black" d="M578.5,-190.91C578.5,-182.65 578.5,-173.86 578.5,-165.3"/>
<polygon fill="black" stroke="black" points="582,-165.02 578.5,-155.02 575,-165.02 582,-165.02"/>
</g>
<!-- 4 -->
<g id="node5" class="node">
<title>4</title>
<polygon fill="#c0c0c0" stroke="black" points="173.5,-36 119.5,-36 119.5,0 173.5,0 173.5,-36"/>
<text text-anchor="middle" x="146.5" y="-14.3" font-family="Times,serif" font-size="14.00">(...)</text>
</g>
<!-- 3&#45;&gt;4 -->
<g id="edge4" class="edge">
<title>3&#45;&gt;4</title>
<path fill="none" stroke="black" d="M166.81,-71.76C163.46,-63.04 159.99,-54.04 156.89,-45.99"/>
<polygon fill="black" stroke="black" points="160.06,-44.48 153.2,-36.41 153.53,-46.99 160.06,-44.48"/>
</g>
<!-- 51 -->
<g id="node6" class="node">
<title>51</title>
<polygon fill="#c0c0c0" stroke="black" points="245.5,-36 191.5,-36 191.5,0 245.5,0 245.5,-36"/>
<text text-anchor="middle" x="218.5" y="-14.3" font-family="Times,serif" font-size="14.00">(...)</text>
</g>
<!-- 3&#45;&gt;51 -->
<g id="edge5" class="edge">
<title>3&#45;&gt;51</title>
<path fill="none" stroke="black" d="M198.19,-71.76C201.54,-63.04 205.01,-54.04 208.11,-45.99"/>
<polygon fill="black" stroke="black" points="211.47,-46.99 211.8,-36.41 204.94,-44.48 211.47,-46.99"/>
</g>
<!-- 75 -->
<g id="node8" class="node">
<title>75</title>
<polygon fill="#c0c0c0" stroke="black" points="569.5,-36 515.5,-36 515.5,0 569.5,0 569.5,-36"/>
<text text-anchor="middle" x="542.5" y="-14.3" font-family="Times,serif" font-size="14.00">(...)</text>
</g>
<!-- 74&#45;&gt;75 -->
<g id="edge7" class="edge">
<title>74&#45;&gt;75</title>
<path fill="none" stroke="black" d="M562.81,-71.76C559.46,-63.04 555.99,-54.04 552.89,-45.99"/>
<polygon fill="black" stroke="black" points="556.06,-44.48 549.2,-36.41 549.53,-46.99 556.06,-44.48"/>
</g>
<!-- 98 -->
<g id="node9" class="node">
<title>98</title>
<polygon fill="#c0c0c0" stroke="black" points="641.5,-36 587.5,-36 587.5,0 641.5,0 641.5,-36"/>
<text text-anchor="middle" x="614.5" y="-14.3" font-family="Times,serif" font-size="14.00">(...)</text>
</g>
<!-- 74&#45;&gt;98 -->
<g id="edge8" class="edge">
<title>74&#45;&gt;98</title>
<path fill="none" stroke="black" d="M594.19,-71.76C597.54,-63.04 601.01,-54.04 604.11,-45.99"/>
<polygon fill="black" stroke="black" points="607.47,-46.99 607.8,-36.41 600.94,-44.48 607.47,-46.99"/>
</g>
<!-- 146 -->
<g id="node11" class="node">
<title>146</title>
<polygon fill="#fffefd" stroke="black" points="1104,-155 793,-155 793,-72 1104,-72 1104,-155"/>
<text text-anchor="middle" x="948.5" y="-139.8" font-family="Times,serif" font-size="14.00">graphDepth &lt;= 25.5</text>
<text text-anchor="middle" x="948.5" y="-124.8" font-family="Times,serif" font-size="14.00">gini = 0.807</text>
<text text-anchor="middle" x="948.5" y="-109.8" font-family="Times,serif" font-size="14.00">samples = 1880</text>
<text text-anchor="middle" x="948.5" y="-94.8" font-family="Times,serif" font-size="14.00">value = [464, 24, 448, 92, 180, 350, 322]</text>
<text text-anchor="middle" x="948.5" y="-79.8" font-family="Times,serif" font-size="14.00">class = rku</text>
</g>
<!-- 145&#45;&gt;146 -->
<g id="edge10" class="edge">
<title>145&#45;&gt;146</title>
<path fill="none" stroke="black" d="M1032.09,-190.91C1021.86,-181.56 1010.9,-171.54 1000.39,-161.93"/>
<polygon fill="black" stroke="black" points="1002.57,-159.18 992.83,-155.02 997.85,-164.35 1002.57,-159.18"/>
</g>
<!-- 231 -->
<g id="node14" class="node">
<title>231</title>
<polygon fill="#dbfadf" stroke="black" points="1433,-155 1122,-155 1122,-72 1433,-72 1433,-155"/>
<text text-anchor="middle" x="1277.5" y="-139.8" font-family="Times,serif" font-size="14.00">nbproc &lt;= 4.5</text>
<text text-anchor="middle" x="1277.5" y="-124.8" font-family="Times,serif" font-size="14.00">gini = 0.813</text>
<text text-anchor="middle" x="1277.5" y="-109.8" font-family="Times,serif" font-size="14.00">samples = 1224</text>
<text text-anchor="middle" x="1277.5" y="-94.8" font-family="Times,serif" font-size="14.00">value = [92, 120, 388, 202, 200, 138, 84]</text>
<text text-anchor="middle" x="1277.5" y="-79.8" font-family="Times,serif" font-size="14.00">class = BIL</text>
</g>
<!-- 145&#45;&gt;231 -->
<g id="edge13" class="edge">
<title>145&#45;&gt;231</title>
<path fill="none" stroke="black" d="M1146.24,-190.91C1163.23,-181.02 1181.52,-170.37 1198.9,-160.25"/>
<polygon fill="black" stroke="black" points="1201.01,-163.08 1207.89,-155.02 1197.48,-157.03 1201.01,-163.08"/>
</g>
<!-- 147 -->
<g id="node12" class="node">
<title>147</title>
<polygon fill="#c0c0c0" stroke="black" points="939.5,-36 885.5,-36 885.5,0 939.5,0 939.5,-36"/>
<text text-anchor="middle" x="912.5" y="-14.3" font-family="Times,serif" font-size="14.00">(...)</text>
</g>
<!-- 146&#45;&gt;147 -->
<g id="edge11" class="edge">
<title>146&#45;&gt;147</title>
<path fill="none" stroke="black" d="M932.81,-71.76C929.46,-63.04 925.99,-54.04 922.89,-45.99"/>
<polygon fill="black" stroke="black" points="926.06,-44.48 919.2,-36.41 919.53,-46.99 926.06,-44.48"/>
</g>
<!-- 208 -->
<g id="node13" class="node">
<title>208</title>
<polygon fill="#c0c0c0" stroke="black" points="1011.5,-36 957.5,-36 957.5,0 1011.5,0 1011.5,-36"/>
<text text-anchor="middle" x="984.5" y="-14.3" font-family="Times,serif" font-size="14.00">(...)</text>
</g>
<!-- 146&#45;&gt;208 -->
<g id="edge12" class="edge">
<title>146&#45;&gt;208</title>
<path fill="none" stroke="black" d="M964.19,-71.76C967.54,-63.04 971.01,-54.04 974.11,-45.99"/>
<polygon fill="black" stroke="black" points="977.47,-46.99 977.8,-36.41 970.94,-44.48 977.47,-46.99"/>
</g>
<!-- 232 -->
<g id="node15" class="node">
<title>232</title>
<polygon fill="#c0c0c0" stroke="black" points="1268.5,-36 1214.5,-36 1214.5,0 1268.5,0 1268.5,-36"/>
<text text-anchor="middle" x="1241.5" y="-14.3" font-family="Times,serif" font-size="14.00">(...)</text>
</g>
<!-- 231&#45;&gt;232 -->
<g id="edge14" class="edge">
<title>231&#45;&gt;232</title>
<path fill="none" stroke="black" d="M1261.81,-71.76C1258.46,-63.04 1254.99,-54.04 1251.89,-45.99"/>
<polygon fill="black" stroke="black" points="1255.06,-44.48 1248.2,-36.41 1248.53,-46.99 1255.06,-44.48"/>
</g>
<!-- 255 -->
<g id="node16" class="node">
<title>255</title>
<polygon fill="#c0c0c0" stroke="black" points="1340.5,-36 1286.5,-36 1286.5,0 1340.5,0 1340.5,-36"/>
<text text-anchor="middle" x="1313.5" y="-14.3" font-family="Times,serif" font-size="14.00">(...)</text>
</g>
<!-- 231&#45;&gt;255 -->
<g id="edge15" class="edge">
<title>231&#45;&gt;255</title>
<path fill="none" stroke="black" d="M1293.19,-71.76C1296.54,-63.04 1300.01,-54.04 1303.11,-45.99"/>
<polygon fill="black" stroke="black" points="1306.47,-46.99 1306.8,-36.41 1299.94,-44.48 1306.47,-46.99"/>
</g>
<!-- 279 -->
<g id="node18" class="node">
<title>279</title>
<polygon fill="#fefcfb" stroke="black" points="1971,-274 1588,-274 1588,-191 1971,-191 1971,-274"/>
<text text-anchor="middle" x="1779.5" y="-258.8" font-family="Times,serif" font-size="14.00">graphDepth &lt;= 3.5</text>
<text text-anchor="middle" x="1779.5" y="-243.8" font-family="Times,serif" font-size="14.00">gini = 0.831</text>
<text text-anchor="middle" x="1779.5" y="-228.8" font-family="Times,serif" font-size="14.00">samples = 9735</text>
<text text-anchor="middle" x="1779.5" y="-213.8" font-family="Times,serif" font-size="14.00">value = [2260, 1042, 427, 1270, 1080, 1550, 2106]</text>
<text text-anchor="middle" x="1779.5" y="-198.8" font-family="Times,serif" font-size="14.00">class = rku</text>
</g>
<!-- 278&#45;&gt;279 -->
<g id="edge17" class="edge">
<title>278&#45;&gt;279</title>
<path fill="none" stroke="black" d="M1779.5,-309.91C1779.5,-301.65 1779.5,-292.86 1779.5,-284.3"/>
<polygon fill="black" stroke="black" points="1783,-284.02 1779.5,-274.02 1776,-284.02 1783,-284.02"/>
</g>
<!-- 460 -->
<g id="node25" class="node">
<title>460</title>
<polygon fill="#ffffff" stroke="black" points="2554.5,-274 2162.5,-274 2162.5,-191 2554.5,-191 2554.5,-274"/>
<text text-anchor="middle" x="2358.5" y="-258.8" font-family="Times,serif" font-size="14.00">nbproc &lt;= 4.5</text>
<text text-anchor="middle" x="2358.5" y="-243.8" font-family="Times,serif" font-size="14.00">gini = 0.846</text>
<text text-anchor="middle" x="2358.5" y="-228.8" font-family="Times,serif" font-size="14.00">samples = 41140</text>
<text text-anchor="middle" x="2358.5" y="-213.8" font-family="Times,serif" font-size="14.00">value = [7682, 6930, 2895, 4770, 4924, 6177, 7762]</text>
<text text-anchor="middle" x="2358.5" y="-198.8" font-family="Times,serif" font-size="14.00">class = rkuad</text>
</g>
<!-- 278&#45;&gt;460 -->
<g id="edge24" class="edge">
<title>278&#45;&gt;460</title>
<path fill="none" stroke="black" d="M1975.52,-310.89C2032.43,-299.39 2094.74,-286.8 2152.25,-275.18"/>
<polygon fill="black" stroke="black" points="2153.08,-278.58 2162.19,-273.17 2151.69,-271.72 2153.08,-278.58"/>
</g>
<!-- 280 -->
<g id="node19" class="node">
<title>280</title>
<polygon fill="#f9fefe" stroke="black" points="1762,-155 1451,-155 1451,-72 1762,-72 1762,-155"/>
<text text-anchor="middle" x="1606.5" y="-139.8" font-family="Times,serif" font-size="14.00">sdComm &lt;= 0.2</text>
<text text-anchor="middle" x="1606.5" y="-124.8" font-family="Times,serif" font-size="14.00">gini = 0.834</text>
<text text-anchor="middle" x="1606.5" y="-109.8" font-family="Times,serif" font-size="14.00">samples = 1105</text>
<text text-anchor="middle" x="1606.5" y="-94.8" font-family="Times,serif" font-size="14.00">value = [178, 90, 69, 254, 226, 126, 162]</text>
<text text-anchor="middle" x="1606.5" y="-79.8" font-family="Times,serif" font-size="14.00">class = rkd</text>
</g>
<!-- 279&#45;&gt;280 -->
<g id="edge18" class="edge">
<title>279&#45;&gt;280</title>
<path fill="none" stroke="black" d="M1719.48,-190.91C1705.12,-181.2 1689.69,-170.76 1674.98,-160.81"/>
<polygon fill="black" stroke="black" points="1676.66,-157.72 1666.42,-155.02 1672.74,-163.52 1676.66,-157.72"/>
</g>
<!-- 303 -->
<g id="node22" class="node">
<title>303</title>
<polygon fill="#fefcfb" stroke="black" points="2145,-155 1780,-155 1780,-72 2145,-72 2145,-155"/>
<text text-anchor="middle" x="1962.5" y="-139.8" font-family="Times,serif" font-size="14.00">graphSize &lt;= 40.0</text>
<text text-anchor="middle" x="1962.5" y="-124.8" font-family="Times,serif" font-size="14.00">gini = 0.826</text>
<text text-anchor="middle" x="1962.5" y="-109.8" font-family="Times,serif" font-size="14.00">samples = 8630</text>
<text text-anchor="middle" x="1962.5" y="-94.8" font-family="Times,serif" font-size="14.00">value = [2082, 952, 358, 1016, 854, 1424, 1944]</text>
<text text-anchor="middle" x="1962.5" y="-79.8" font-family="Times,serif" font-size="14.00">class = rku</text>
</g>
<!-- 279&#45;&gt;303 -->
<g id="edge21" class="edge">
<title>279&#45;&gt;303</title>
<path fill="none" stroke="black" d="M1842.99,-190.91C1858.32,-181.11 1874.81,-170.56 1890.5,-160.53"/>
<polygon fill="black" stroke="black" points="1892.58,-163.36 1899.12,-155.02 1888.81,-157.46 1892.58,-163.36"/>
</g>
<!-- 281 -->
<g id="node20" class="node">
<title>281</title>
<polygon fill="#c0c0c0" stroke="black" points="1597.5,-36 1543.5,-36 1543.5,0 1597.5,0 1597.5,-36"/>
<text text-anchor="middle" x="1570.5" y="-14.3" font-family="Times,serif" font-size="14.00">(...)</text>
</g>
<!-- 280&#45;&gt;281 -->
<g id="edge19" class="edge">
<title>280&#45;&gt;281</title>
<path fill="none" stroke="black" d="M1590.81,-71.76C1587.46,-63.04 1583.99,-54.04 1580.89,-45.99"/>
<polygon fill="black" stroke="black" points="1584.06,-44.48 1577.2,-36.41 1577.53,-46.99 1584.06,-44.48"/>
</g>
<!-- 288 -->
<g id="node21" class="node">
<title>288</title>
<polygon fill="#c0c0c0" stroke="black" points="1669.5,-36 1615.5,-36 1615.5,0 1669.5,0 1669.5,-36"/>
<text text-anchor="middle" x="1642.5" y="-14.3" font-family="Times,serif" font-size="14.00">(...)</text>
</g>
<!-- 280&#45;&gt;288 -->
<g id="edge20" class="edge">
<title>280&#45;&gt;288</title>
<path fill="none" stroke="black" d="M1622.19,-71.76C1625.54,-63.04 1629.01,-54.04 1632.11,-45.99"/>
<polygon fill="black" stroke="black" points="1635.47,-46.99 1635.8,-36.41 1628.94,-44.48 1635.47,-46.99"/>
</g>
<!-- 304 -->
<g id="node23" class="node">
<title>304</title>
<polygon fill="#c0c0c0" stroke="black" points="1953.5,-36 1899.5,-36 1899.5,0 1953.5,0 1953.5,-36"/>
<text text-anchor="middle" x="1926.5" y="-14.3" font-family="Times,serif" font-size="14.00">(...)</text>
</g>
<!-- 303&#45;&gt;304 -->
<g id="edge22" class="edge">
<title>303&#45;&gt;304</title>
<path fill="none" stroke="black" d="M1946.81,-71.76C1943.46,-63.04 1939.99,-54.04 1936.89,-45.99"/>
<polygon fill="black" stroke="black" points="1940.06,-44.48 1933.2,-36.41 1933.53,-46.99 1940.06,-44.48"/>
</g>
<!-- 373 -->
<g id="node24" class="node">
<title>373</title>
<polygon fill="#c0c0c0" stroke="black" points="2025.5,-36 1971.5,-36 1971.5,0 2025.5,0 2025.5,-36"/>
<text text-anchor="middle" x="1998.5" y="-14.3" font-family="Times,serif" font-size="14.00">(...)</text>
</g>
<!-- 303&#45;&gt;373 -->
<g id="edge23" class="edge">
<title>303&#45;&gt;373</title>
<path fill="none" stroke="black" d="M1978.19,-71.76C1981.54,-63.04 1985.01,-54.04 1988.11,-45.99"/>
<polygon fill="black" stroke="black" points="1991.47,-46.99 1991.8,-36.41 1984.94,-44.48 1991.47,-46.99"/>
</g>
<!-- 461 -->
<g id="node26" class="node">
<title>461</title>
<polygon fill="#fffcfd" stroke="black" points="2554.5,-155 2162.5,-155 2162.5,-72 2554.5,-72 2554.5,-155"/>
<text text-anchor="middle" x="2358.5" y="-139.8" font-family="Times,serif" font-size="14.00">graphDepth &lt;= 9.0</text>
<text text-anchor="middle" x="2358.5" y="-124.8" font-family="Times,serif" font-size="14.00">gini = 0.848</text>
<text text-anchor="middle" x="2358.5" y="-109.8" font-family="Times,serif" font-size="14.00">samples = 20946</text>
<text text-anchor="middle" x="2358.5" y="-94.8" font-family="Times,serif" font-size="14.00">value = [3710, 3386, 1575, 2258, 3058, 3015, 3944]</text>
<text text-anchor="middle" x="2358.5" y="-79.8" font-family="Times,serif" font-size="14.00">class = rkuad</text>
</g>
<!-- 460&#45;&gt;461 -->
<g id="edge25" class="edge">
<title>460&#45;&gt;461</title>
<path fill="none" stroke="black" d="M2358.5,-190.91C2358.5,-182.65 2358.5,-173.86 2358.5,-165.3"/>
<polygon fill="black" stroke="black" points="2362,-165.02 2358.5,-155.02 2355,-165.02 2362,-165.02"/>
</g>
<!-- 652 -->
<g id="node29" class="node">
<title>652</title>
<polygon fill="#fffefd" stroke="black" points="2964.5,-155 2572.5,-155 2572.5,-72 2964.5,-72 2964.5,-155"/>
<text text-anchor="middle" x="2768.5" y="-139.8" font-family="Times,serif" font-size="14.00">sdComp &lt;= 6.5</text>
<text text-anchor="middle" x="2768.5" y="-124.8" font-family="Times,serif" font-size="14.00">gini = 0.842</text>
<text text-anchor="middle" x="2768.5" y="-109.8" font-family="Times,serif" font-size="14.00">samples = 20194</text>
<text text-anchor="middle" x="2768.5" y="-94.8" font-family="Times,serif" font-size="14.00">value = [3972, 3544, 1320, 2512, 1866, 3162, 3818]</text>
<text text-anchor="middle" x="2768.5" y="-79.8" font-family="Times,serif" font-size="14.00">class = rku</text>
</g>
<!-- 460&#45;&gt;652 -->
<g id="edge28" class="edge">
<title>460&#45;&gt;652</title>
<path fill="none" stroke="black" d="M2500.46,-190.99C2537.84,-180.32 2578.32,-168.77 2616.22,-157.96"/>
<polygon fill="black" stroke="black" points="2617.66,-161.18 2626.32,-155.07 2615.74,-154.45 2617.66,-161.18"/>
</g>
<!-- 462 -->
<g id="node27" class="node">
<title>462</title>
<polygon fill="#c0c0c0" stroke="black" points="2349.5,-36 2295.5,-36 2295.5,0 2349.5,0 2349.5,-36"/>
<text text-anchor="middle" x="2322.5" y="-14.3" font-family="Times,serif" font-size="14.00">(...)</text>
</g>
<!-- 461&#45;&gt;462 -->
<g id="edge26" class="edge">
<title>461&#45;&gt;462</title>
<path fill="none" stroke="black" d="M2342.81,-71.76C2339.46,-63.04 2335.99,-54.04 2332.89,-45.99"/>
<polygon fill="black" stroke="black" points="2336.06,-44.48 2329.2,-36.41 2329.53,-46.99 2336.06,-44.48"/>
</g>
<!-- 557 -->
<g id="node28" class="node">
<title>557</title>
<polygon fill="#c0c0c0" stroke="black" points="2421.5,-36 2367.5,-36 2367.5,0 2421.5,0 2421.5,-36"/>
<text text-anchor="middle" x="2394.5" y="-14.3" font-family="Times,serif" font-size="14.00">(...)</text>
</g>
<!-- 461&#45;&gt;557 -->
<g id="edge27" class="edge">
<title>461&#45;&gt;557</title>
<path fill="none" stroke="black" d="M2374.19,-71.76C2377.54,-63.04 2381.01,-54.04 2384.11,-45.99"/>
<polygon fill="black" stroke="black" points="2387.47,-46.99 2387.8,-36.41 2380.94,-44.48 2387.47,-46.99"/>
</g>
<!-- 653 -->
<g id="node30" class="node">
<title>653</title>
<polygon fill="#c0c0c0" stroke="black" points="2759.5,-36 2705.5,-36 2705.5,0 2759.5,0 2759.5,-36"/>
<text text-anchor="middle" x="2732.5" y="-14.3" font-family="Times,serif" font-size="14.00">(...)</text>
</g>
<!-- 652&#45;&gt;653 -->
<g id="edge29" class="edge">
<title>652&#45;&gt;653</title>
<path fill="none" stroke="black" d="M2752.81,-71.76C2749.46,-63.04 2745.99,-54.04 2742.89,-45.99"/>
<polygon fill="black" stroke="black" points="2746.06,-44.48 2739.2,-36.41 2739.53,-46.99 2746.06,-44.48"/>
</g>
<!-- 796 -->
<g id="node31" class="node">
<title>796</title>
<polygon fill="#c0c0c0" stroke="black" points="2831.5,-36 2777.5,-36 2777.5,0 2831.5,0 2831.5,-36"/>
<text text-anchor="middle" x="2804.5" y="-14.3" font-family="Times,serif" font-size="14.00">(...)</text>
</g>
<!-- 652&#45;&gt;796 -->
<g id="edge30" class="edge">
<title>652&#45;&gt;796</title>
<path fill="none" stroke="black" d="M2784.19,-71.76C2787.54,-63.04 2791.01,-54.04 2794.11,-45.99"/>
<polygon fill="black" stroke="black" points="2797.47,-46.99 2797.8,-36.41 2790.94,-44.48 2797.47,-46.99"/>
</g>
</g>
</svg>
