<?xml version="1.0" encoding="UTF-8" standalone="no"?>
<!DOCTYPE svg PUBLIC "-//W3C//DTD SVG 1.1//EN"
 "http://www.w3.org/Graphics/SVG/1.1/DTD/svg11.dtd">
<!-- Generated by graphviz version 2.43.0 (0)
 -->
<!-- Title: Tree Pages: 1 -->
<svg width="1478pt" height="520pt"
 viewBox="0.00 0.00 1477.50 520.00" xmlns="http://www.w3.org/2000/svg" xmlns:xlink="http://www.w3.org/1999/xlink">
<g id="graph0" class="graph" transform="scale(1 1) rotate(0) translate(4 516)">
<title>Tree</title>
<polygon fill="white" stroke="transparent" points="-4,4 -4,-516 1473.5,-516 1473.5,4 -4,4"/>
<!-- 0 -->
<g id="node1" class="node">
<title>0</title>
<polygon fill="#a2d1f3" stroke="black" points="808.5,-512 623.5,-512 623.5,-429 808.5,-429 808.5,-512"/>
<text text-anchor="middle" x="716" y="-496.8" font-family="Times,serif" font-size="14.00">sdComp &lt;= 0.65</text>
<text text-anchor="middle" x="716" y="-481.8" font-family="Times,serif" font-size="14.00">gini = 0.453</text>
<text text-anchor="middle" x="716" y="-466.8" font-family="Times,serif" font-size="14.00">samples = 80334</text>
<text text-anchor="middle" x="716" y="-451.8" font-family="Times,serif" font-size="14.00">value = [27883, 52451]</text>
<text text-anchor="middle" x="716" y="-436.8" font-family="Times,serif" font-size="14.00">class = True</text>
</g>
<!-- 1 -->
<g id="node2" class="node">
<title>1</title>
<polygon fill="#cde6f8" stroke="black" points="626.5,-393 441.5,-393 441.5,-310 626.5,-310 626.5,-393"/>
<text text-anchor="middle" x="534" y="-377.8" font-family="Times,serif" font-size="14.00">nbproc &lt;= 4.5</text>
<text text-anchor="middle" x="534" y="-362.8" font-family="Times,serif" font-size="14.00">gini = 0.49</text>
<text text-anchor="middle" x="534" y="-347.8" font-family="Times,serif" font-size="14.00">samples = 39194</text>
<text text-anchor="middle" x="534" y="-332.8" font-family="Times,serif" font-size="14.00">value = [16772, 22422]</text>
<text text-anchor="middle" x="534" y="-317.8" font-family="Times,serif" font-size="14.00">class = True</text>
</g>
<!-- 0&#45;&gt;1 -->
<g id="edge1" class="edge">
<title>0&#45;&gt;1</title>
<path fill="none" stroke="black" d="M652.86,-428.91C637.61,-419.11 621.21,-408.56 605.61,-398.53"/>
<polygon fill="black" stroke="black" points="607.34,-395.48 597.03,-393.02 603.55,-401.37 607.34,-395.48"/>
<text text-anchor="middle" x="602.34" y="-413.75" font-family="Times,serif" font-size="14.00">True</text>
</g>
<!-- 438 -->
<g id="node17" class="node">
<title>438</title>
<polygon fill="#82c1ef" stroke="black" points="1007.5,-393 822.5,-393 822.5,-310 1007.5,-310 1007.5,-393"/>
<text text-anchor="middle" x="915" y="-377.8" font-family="Times,serif" font-size="14.00">sdComp &lt;= 6.5</text>
<text text-anchor="middle" x="915" y="-362.8" font-family="Times,serif" font-size="14.00">gini = 0.394</text>
<text text-anchor="middle" x="915" y="-347.8" font-family="Times,serif" font-size="14.00">samples = 41140</text>
<text text-anchor="middle" x="915" y="-332.8" font-family="Times,serif" font-size="14.00">value = [11111, 30029]</text>
<text text-anchor="middle" x="915" y="-317.8" font-family="Times,serif" font-size="14.00">class = True</text>
</g>
<!-- 0&#45;&gt;438 -->
<g id="edge16" class="edge">
<title>0&#45;&gt;438</title>
<path fill="none" stroke="black" d="M785.04,-428.91C801.87,-419.02 819.98,-408.37 837.18,-398.25"/>
<polygon fill="black" stroke="black" points="839.23,-401.11 846.08,-393.02 835.69,-395.07 839.23,-401.11"/>
<text text-anchor="middle" x="839.8" y="-413.52" font-family="Times,serif" font-size="14.00">False</text>
</g>
<!-- 2 -->
<g id="node3" class="node">
<title>2</title>
<polygon fill="#acd6f4" stroke="black" points="342.5,-274 175.5,-274 175.5,-191 342.5,-191 342.5,-274"/>
<text text-anchor="middle" x="259" y="-258.8" font-family="Times,serif" font-size="14.00">graphDepth &lt;= 3.5</text>
<text text-anchor="middle" x="259" y="-243.8" font-family="Times,serif" font-size="14.00">gini = 0.465</text>
<text text-anchor="middle" x="259" y="-228.8" font-family="Times,serif" font-size="14.00">samples = 11951</text>
<text text-anchor="middle" x="259" y="-213.8" font-family="Times,serif" font-size="14.00">value = [4388, 7563]</text>
<text text-anchor="middle" x="259" y="-198.8" font-family="Times,serif" font-size="14.00">class = True</text>
</g>
<!-- 1&#45;&gt;2 -->
<g id="edge2" class="edge">
<title>1&#45;&gt;2</title>
<path fill="none" stroke="black" d="M441.28,-311.05C412.44,-298.78 380.64,-285.25 351.79,-272.98"/>
<polygon fill="black" stroke="black" points="353.11,-269.74 342.54,-269.04 350.37,-276.18 353.11,-269.74"/>
</g>
<!-- 205 -->
<g id="node10" class="node">
<title>205</title>
<polygon fill="#deeffb" stroke="black" points="626.5,-274 441.5,-274 441.5,-191 626.5,-191 626.5,-274"/>
<text text-anchor="middle" x="534" y="-258.8" font-family="Times,serif" font-size="14.00">graphSize &lt;= 22.5</text>
<text text-anchor="middle" x="534" y="-243.8" font-family="Times,serif" font-size="14.00">gini = 0.496</text>
<text text-anchor="middle" x="534" y="-228.8" font-family="Times,serif" font-size="14.00">samples = 27243</text>
<text text-anchor="middle" x="534" y="-213.8" font-family="Times,serif" font-size="14.00">value = [12384, 14859]</text>
<text text-anchor="middle" x="534" y="-198.8" font-family="Times,serif" font-size="14.00">class = True</text>
</g>
<!-- 1&#45;&gt;205 -->
<g id="edge9" class="edge">
<title>1&#45;&gt;205</title>
<path fill="none" stroke="black" d="M534,-309.91C534,-301.65 534,-292.86 534,-284.3"/>
<polygon fill="black" stroke="black" points="537.5,-284.02 534,-274.02 530.5,-284.02 537.5,-284.02"/>
</g>
<!-- 3 -->
<g id="node4" class="node">
<title>3</title>
<polygon fill="#66b3eb" stroke="black" points="158,-155 0,-155 0,-72 158,-72 158,-155"/>
<text text-anchor="middle" x="79" y="-139.8" font-family="Times,serif" font-size="14.00">sdComm &lt;= 0.065</text>
<text text-anchor="middle" x="79" y="-124.8" font-family="Times,serif" font-size="14.00">gini = 0.3</text>
<text text-anchor="middle" x="79" y="-109.8" font-family="Times,serif" font-size="14.00">samples = 1699</text>
<text text-anchor="middle" x="79" y="-94.8" font-family="Times,serif" font-size="14.00">value = [312, 1387]</text>
<text text-anchor="middle" x="79" y="-79.8" font-family="Times,serif" font-size="14.00">class = True</text>
</g>
<!-- 2&#45;&gt;3 -->
<g id="edge3" class="edge">
<title>2&#45;&gt;3</title>
<path fill="none" stroke="black" d="M196.55,-190.91C181.47,-181.11 165.25,-170.56 149.82,-160.53"/>
<polygon fill="black" stroke="black" points="151.63,-157.54 141.34,-155.02 147.82,-163.41 151.63,-157.54"/>
</g>
<!-- 18 -->
<g id="node7" class="node">
<title>18</title>
<polygon fill="#bcdef6" stroke="black" points="342.5,-155 175.5,-155 175.5,-72 342.5,-72 342.5,-155"/>
<text text-anchor="middle" x="259" y="-139.8" font-family="Times,serif" font-size="14.00">graphSize &lt;= 22.5</text>
<text text-anchor="middle" x="259" y="-124.8" font-family="Times,serif" font-size="14.00">gini = 0.479</text>
<text text-anchor="middle" x="259" y="-109.8" font-family="Times,serif" font-size="14.00">samples = 10252</text>
<text text-anchor="middle" x="259" y="-94.8" font-family="Times,serif" font-size="14.00">value = [4076, 6176]</text>
<text text-anchor="middle" x="259" y="-79.8" font-family="Times,serif" font-size="14.00">class = True</text>
</g>
<!-- 2&#45;&gt;18 -->
<g id="edge6" class="edge">
<title>2&#45;&gt;18</title>
<path fill="none" stroke="black" d="M259,-190.91C259,-182.65 259,-173.86 259,-165.3"/>
<polygon fill="black" stroke="black" points="262.5,-165.02 259,-155.02 255.5,-165.02 262.5,-165.02"/>
</g>
<!-- 4 -->
<g id="node5" class="node">
<title>4</title>
<polygon fill="#c0c0c0" stroke="black" points="70,-36 16,-36 16,0 70,0 70,-36"/>
<text text-anchor="middle" x="43" y="-14.3" font-family="Times,serif" font-size="14.00">(...)</text>
</g>
<!-- 3&#45;&gt;4 -->
<g id="edge4" class="edge">
<title>3&#45;&gt;4</title>
<path fill="none" stroke="black" d="M63.31,-71.76C59.96,-63.04 56.49,-54.04 53.39,-45.99"/>
<polygon fill="black" stroke="black" points="56.56,-44.48 49.7,-36.41 50.03,-46.99 56.56,-44.48"/>
</g>
<!-- 9 -->
<g id="node6" class="node">
<title>9</title>
<polygon fill="#c0c0c0" stroke="black" points="142,-36 88,-36 88,0 142,0 142,-36"/>
<text text-anchor="middle" x="115" y="-14.3" font-family="Times,serif" font-size="14.00">(...)</text>
</g>
<!-- 3&#45;&gt;9 -->
<g id="edge5" class="edge">
<title>3&#45;&gt;9</title>
<path fill="none" stroke="black" d="M94.69,-71.76C98.04,-63.04 101.51,-54.04 104.61,-45.99"/>
<polygon fill="black" stroke="black" points="107.97,-46.99 108.3,-36.41 101.44,-44.48 107.97,-46.99"/>
</g>
<!-- 19 -->
<g id="node8" class="node">
<title>19</title>
<polygon fill="#c0c0c0" stroke="black" points="255,-36 201,-36 201,0 255,0 255,-36"/>
<text text-anchor="middle" x="228" y="-14.3" font-family="Times,serif" font-size="14.00">(...)</text>
</g>
<!-- 18&#45;&gt;19 -->
<g id="edge7" class="edge">
<title>18&#45;&gt;19</title>
<path fill="none" stroke="black" d="M245.49,-71.76C242.6,-63.04 239.62,-54.04 236.95,-45.99"/>
<polygon fill="black" stroke="black" points="240.24,-44.8 233.77,-36.41 233.6,-47 240.24,-44.8"/>
</g>
<!-- 48 -->
<g id="node9" class="node">
<title>48</title>
<polygon fill="#c0c0c0" stroke="black" points="327,-36 273,-36 273,0 327,0 327,-36"/>
<text text-anchor="middle" x="300" y="-14.3" font-family="Times,serif" font-size="14.00">(...)</text>
</g>
<!-- 18&#45;&gt;48 -->
<g id="edge8" class="edge">
<title>18&#45;&gt;48</title>
<path fill="none" stroke="black" d="M276.86,-71.76C280.73,-62.94 284.72,-53.84 288.28,-45.72"/>
<polygon fill="black" stroke="black" points="291.56,-46.97 292.37,-36.41 285.15,-44.16 291.56,-46.97"/>
</g>
<!-- 206 -->
<g id="node11" class="node">
<title>206</title>
<polygon fill="#eaf4fc" stroke="black" points="527.5,-155 360.5,-155 360.5,-72 527.5,-72 527.5,-155"/>
<text text-anchor="middle" x="444" y="-139.8" font-family="Times,serif" font-size="14.00">graphDepth &lt;= 3.5</text>
<text text-anchor="middle" x="444" y="-124.8" font-family="Times,serif" font-size="14.00">gini = 0.498</text>
<text text-anchor="middle" x="444" y="-109.8" font-family="Times,serif" font-size="14.00">samples = 18797</text>
<text text-anchor="middle" x="444" y="-94.8" font-family="Times,serif" font-size="14.00">value = [8860, 9937]</text>
<text text-anchor="middle" x="444" y="-79.8" font-family="Times,serif" font-size="14.00">class = True</text>
</g>
<!-- 205&#45;&gt;206 -->
<g id="edge10" class="edge">
<title>205&#45;&gt;206</title>
<path fill="none" stroke="black" d="M502.77,-190.91C495.86,-181.92 488.47,-172.32 481.35,-163.05"/>
<polygon fill="black" stroke="black" points="484.04,-160.81 475.17,-155.02 478.49,-165.08 484.04,-160.81"/>
</g>
<!-- 265 -->
<g id="node14" class="node">
<title>265</title>
<polygon fill="#c7e3f8" stroke="black" points="712.5,-155 545.5,-155 545.5,-72 712.5,-72 712.5,-155"/>
<text text-anchor="middle" x="629" y="-139.8" font-family="Times,serif" font-size="14.00">sdComp &lt;= 0.065</text>
<text text-anchor="middle" x="629" y="-124.8" font-family="Times,serif" font-size="14.00">gini = 0.486</text>
<text text-anchor="middle" x="629" y="-109.8" font-family="Times,serif" font-size="14.00">samples = 8446</text>
<text text-anchor="middle" x="629" y="-94.8" font-family="Times,serif" font-size="14.00">value = [3524, 4922]</text>
<text text-anchor="middle" x="629" y="-79.8" font-family="Times,serif" font-size="14.00">class = True</text>
</g>
<!-- 205&#45;&gt;265 -->
<g id="edge13" class="edge">
<title>205&#45;&gt;265</title>
<path fill="none" stroke="black" d="M566.96,-190.91C574.25,-181.92 582.06,-172.32 589.58,-163.05"/>
<polygon fill="black" stroke="black" points="592.51,-164.99 596.1,-155.02 587.08,-160.58 592.51,-164.99"/>
</g>
<!-- 207 -->
<g id="node12" class="node">
<title>207</title>
<polygon fill="#c0c0c0" stroke="black" points="419,-36 365,-36 365,0 419,0 419,-36"/>
<text text-anchor="middle" x="392" y="-14.3" font-family="Times,serif" font-size="14.00">(...)</text>
</g>
<!-- 206&#45;&gt;207 -->
<g id="edge11" class="edge">
<title>206&#45;&gt;207</title>
<path fill="none" stroke="black" d="M421.34,-71.76C416.33,-62.75 411.15,-53.44 406.57,-45.19"/>
<polygon fill="black" stroke="black" points="409.6,-43.44 401.68,-36.41 403.48,-46.85 409.6,-43.44"/>
</g>
<!-- 236 -->
<g id="node13" class="node">
<title>236</title>
<polygon fill="#c0c0c0" stroke="black" points="491,-36 437,-36 437,0 491,0 491,-36"/>
<text text-anchor="middle" x="464" y="-14.3" font-family="Times,serif" font-size="14.00">(...)</text>
</g>
<!-- 206&#45;&gt;236 -->
<g id="edge12" class="edge">
<title>206&#45;&gt;236</title>
<path fill="none" stroke="black" d="M452.71,-71.76C454.56,-63.14 456.46,-54.24 458.17,-46.26"/>
<polygon fill="black" stroke="black" points="461.61,-46.92 460.28,-36.41 454.76,-45.45 461.61,-46.92"/>
</g>
<!-- 266 -->
<g id="node15" class="node">
<title>266</title>
<polygon fill="#c0c0c0" stroke="black" points="606,-36 552,-36 552,0 606,0 606,-36"/>
<text text-anchor="middle" x="579" y="-14.3" font-family="Times,serif" font-size="14.00">(...)</text>
</g>
<!-- 265&#45;&gt;266 -->
<g id="edge14" class="edge">
<title>265&#45;&gt;266</title>
<path fill="none" stroke="black" d="M607.21,-71.76C602.45,-62.85 597.52,-53.64 593.15,-45.46"/>
<polygon fill="black" stroke="black" points="596.11,-43.57 588.31,-36.41 589.94,-46.87 596.11,-43.57"/>
</g>
<!-- 337 -->
<g id="node16" class="node">
<title>337</title>
<polygon fill="#c0c0c0" stroke="black" points="678,-36 624,-36 624,0 678,0 678,-36"/>
<text text-anchor="middle" x="651" y="-14.3" font-family="Times,serif" font-size="14.00">(...)</text>
</g>
<!-- 265&#45;&gt;337 -->
<g id="edge15" class="edge">
<title>265&#45;&gt;337</title>
<path fill="none" stroke="black" d="M638.59,-71.76C640.61,-63.14 642.71,-54.24 644.59,-46.26"/>
<polygon fill="black" stroke="black" points="648.02,-46.94 646.9,-36.41 641.21,-45.34 648.02,-46.94"/>
</g>
<!-- 439 -->
<g id="node18" class="node">
<title>439</title>
<polygon fill="#7bbeee" stroke="black" points="1003,-274 827,-274 827,-191 1003,-191 1003,-274"/>
<text text-anchor="middle" x="915" y="-258.8" font-family="Times,serif" font-size="14.00">nbproc &lt;= 4.5</text>
<text text-anchor="middle" x="915" y="-243.8" font-family="Times,serif" font-size="14.00">gini = 0.374</text>
<text text-anchor="middle" x="915" y="-228.8" font-family="Times,serif" font-size="14.00">samples = 31254</text>
<text text-anchor="middle" x="915" y="-213.8" font-family="Times,serif" font-size="14.00">value = [7796, 23458]</text>
<text text-anchor="middle" x="915" y="-198.8" font-family="Times,serif" font-size="14.00">class = True</text>
</g>
<!-- 438&#45;&gt;439 -->
<g id="edge17" class="edge">
<title>438&#45;&gt;439</title>
<path fill="none" stroke="black" d="M915,-309.91C915,-301.65 915,-292.86 915,-284.3"/>
<polygon fill="black" stroke="black" points="918.5,-284.02 915,-274.02 911.5,-284.02 918.5,-284.02"/>
</g>
<!-- 706 -->
<g id="node25" class="node">
<title>706</title>
<polygon fill="#9dcef2" stroke="black" points="1284.5,-274 1117.5,-274 1117.5,-191 1284.5,-191 1284.5,-274"/>
<text text-anchor="middle" x="1201" y="-258.8" font-family="Times,serif" font-size="14.00">sdComm &lt;= 2.0</text>
<text text-anchor="middle" x="1201" y="-243.8" font-family="Times,serif" font-size="14.00">gini = 0.446</text>
<text text-anchor="middle" x="1201" y="-228.8" font-family="Times,serif" font-size="14.00">samples = 9886</text>
<text text-anchor="middle" x="1201" y="-213.8" font-family="Times,serif" font-size="14.00">value = [3315, 6571]</text>
<text text-anchor="middle" x="1201" y="-198.8" font-family="Times,serif" font-size="14.00">class = True</text>
</g>
<!-- 438&#45;&gt;706 -->
<g id="edge24" class="edge">
<title>438&#45;&gt;706</title>
<path fill="none" stroke="black" d="M1007.86,-312.51C1039.92,-299.4 1075.84,-284.7 1107.92,-271.58"/>
<polygon fill="black" stroke="black" points="1109.37,-274.77 1117.3,-267.74 1106.72,-268.29 1109.37,-274.77"/>
</g>
<!-- 440 -->
<g id="node19" class="node">
<title>440</title>
<polygon fill="#68b4eb" stroke="black" points="906,-155 730,-155 730,-72 906,-72 906,-155"/>
<text text-anchor="middle" x="818" y="-139.8" font-family="Times,serif" font-size="14.00">graphSize &lt;= 22.5</text>
<text text-anchor="middle" x="818" y="-124.8" font-family="Times,serif" font-size="14.00">gini = 0.312</text>
<text text-anchor="middle" x="818" y="-109.8" font-family="Times,serif" font-size="14.00">samples = 14802</text>
<text text-anchor="middle" x="818" y="-94.8" font-family="Times,serif" font-size="14.00">value = [2859, 11943]</text>
<text text-anchor="middle" x="818" y="-79.8" font-family="Times,serif" font-size="14.00">class = True</text>
</g>
<!-- 439&#45;&gt;440 -->
<g id="edge18" class="edge">
<title>439&#45;&gt;440</title>
<path fill="none" stroke="black" d="M881.35,-190.91C873.82,-181.83 865.77,-172.12 858.02,-162.77"/>
<polygon fill="black" stroke="black" points="860.67,-160.49 851.59,-155.02 855.28,-164.95 860.67,-160.49"/>
</g>
<!-- 573 -->
<g id="node22" class="node">
<title>573</title>
<polygon fill="#8ec7f0" stroke="black" points="1100,-155 924,-155 924,-72 1100,-72 1100,-155"/>
<text text-anchor="middle" x="1012" y="-139.8" font-family="Times,serif" font-size="14.00">graphDepth &lt;= 25.5</text>
<text text-anchor="middle" x="1012" y="-124.8" font-family="Times,serif" font-size="14.00">gini = 0.42</text>
<text text-anchor="middle" x="1012" y="-109.8" font-family="Times,serif" font-size="14.00">samples = 16452</text>
<text text-anchor="middle" x="1012" y="-94.8" font-family="Times,serif" font-size="14.00">value = [4937, 11515]</text>
<text text-anchor="middle" x="1012" y="-79.8" font-family="Times,serif" font-size="14.00">class = True</text>
</g>
<!-- 439&#45;&gt;573 -->
<g id="edge21" class="edge">
<title>439&#45;&gt;573</title>
<path fill="none" stroke="black" d="M948.65,-190.91C956.18,-181.83 964.23,-172.12 971.98,-162.77"/>
<polygon fill="black" stroke="black" points="974.72,-164.95 978.41,-155.02 969.33,-160.49 974.72,-164.95"/>
</g>
<!-- 441 -->
<g id="node20" class="node">
<title>441</title>
<polygon fill="#c0c0c0" stroke="black" points="798,-36 744,-36 744,0 798,0 798,-36"/>
<text text-anchor="middle" x="771" y="-14.3" font-family="Times,serif" font-size="14.00">(...)</text>
</g>
<!-- 440&#45;&gt;441 -->
<g id="edge19" class="edge">
<title>440&#45;&gt;441</title>
<path fill="none" stroke="black" d="M797.52,-71.76C793.04,-62.85 788.41,-53.64 784.3,-45.46"/>
<polygon fill="black" stroke="black" points="787.37,-43.77 779.75,-36.41 781.11,-46.91 787.37,-43.77"/>
</g>
<!-- 474 -->
<g id="node21" class="node">
<title>474</title>
<polygon fill="#c0c0c0" stroke="black" points="870,-36 816,-36 816,0 870,0 870,-36"/>
<text text-anchor="middle" x="843" y="-14.3" font-family="Times,serif" font-size="14.00">(...)</text>
</g>
<!-- 440&#45;&gt;474 -->
<g id="edge20" class="edge">
<title>440&#45;&gt;474</title>
<path fill="none" stroke="black" d="M828.89,-71.76C831.2,-63.14 833.58,-54.24 835.71,-46.26"/>
<polygon fill="black" stroke="black" points="839.14,-46.97 838.35,-36.41 832.38,-45.16 839.14,-46.97"/>
</g>
<!-- 574 -->
<g id="node23" class="node">
<title>574</title>
<polygon fill="#c0c0c0" stroke="black" points="989,-36 935,-36 935,0 989,0 989,-36"/>
<text text-anchor="middle" x="962" y="-14.3" font-family="Times,serif" font-size="14.00">(...)</text>
</g>
<!-- 573&#45;&gt;574 -->
<g id="edge22" class="edge">
<title>573&#45;&gt;574</title>
<path fill="none" stroke="black" d="M990.21,-71.76C985.45,-62.85 980.52,-53.64 976.15,-45.46"/>
<polygon fill="black" stroke="black" points="979.11,-43.57 971.31,-36.41 972.94,-46.87 979.11,-43.57"/>
</g>
<!-- 689 -->
<g id="node24" class="node">
<title>689</title>
<polygon fill="#c0c0c0" stroke="black" points="1061,-36 1007,-36 1007,0 1061,0 1061,-36"/>
<text text-anchor="middle" x="1034" y="-14.3" font-family="Times,serif" font-size="14.00">(...)</text>
</g>
<!-- 573&#45;&gt;689 -->
<g id="edge23" class="edge">
<title>573&#45;&gt;689</title>
<path fill="none" stroke="black" d="M1021.59,-71.76C1023.61,-63.14 1025.71,-54.24 1027.59,-46.26"/>
<polygon fill="black" stroke="black" points="1031.02,-46.94 1029.9,-36.41 1024.21,-45.34 1031.02,-46.94"/>
</g>
<!-- 707 -->
<g id="node26" class="node">
<title>707</title>
<polygon fill="#b3d9f5" stroke="black" points="1284.5,-155 1117.5,-155 1117.5,-72 1284.5,-72 1284.5,-155"/>
<text text-anchor="middle" x="1201" y="-139.8" font-family="Times,serif" font-size="14.00">nbproc &lt;= 4.5</text>
<text text-anchor="middle" x="1201" y="-124.8" font-family="Times,serif" font-size="14.00">gini = 0.471</text>
<text text-anchor="middle" x="1201" y="-109.8" font-family="Times,serif" font-size="14.00">samples = 3734</text>
<text text-anchor="middle" x="1201" y="-94.8" font-family="Times,serif" font-size="14.00">value = [1420, 2314]</text>
<text text-anchor="middle" x="1201" y="-79.8" font-family="Times,serif" font-size="14.00">class = True</text>
</g>
<!-- 706&#45;&gt;707 -->
<g id="edge25" class="edge">
<title>706&#45;&gt;707</title>
<path fill="none" stroke="black" d="M1201,-190.91C1201,-182.65 1201,-173.86 1201,-165.3"/>
<polygon fill="black" stroke="black" points="1204.5,-165.02 1201,-155.02 1197.5,-165.02 1204.5,-165.02"/>
</g>
<!-- 736 -->
<g id="node29" class="node">
<title>736</title>
<polygon fill="#91c9f1" stroke="black" points="1469.5,-155 1302.5,-155 1302.5,-72 1469.5,-72 1469.5,-155"/>
<text text-anchor="middle" x="1386" y="-139.8" font-family="Times,serif" font-size="14.00">graphSize &lt;= 22.5</text>
<text text-anchor="middle" x="1386" y="-124.8" font-family="Times,serif" font-size="14.00">gini = 0.426</text>
<text text-anchor="middle" x="1386" y="-109.8" font-family="Times,serif" font-size="14.00">samples = 6152</text>
<text text-anchor="middle" x="1386" y="-94.8" font-family="Times,serif" font-size="14.00">value = [1895, 4257]</text>
<text text-anchor="middle" x="1386" y="-79.8" font-family="Times,serif" font-size="14.00">class = True</text>
</g>
<!-- 706&#45;&gt;736 -->
<g id="edge28" class="edge">
<title>706&#45;&gt;736</title>
<path fill="none" stroke="black" d="M1265.18,-190.91C1280.68,-181.11 1297.35,-170.56 1313.21,-160.53"/>
<polygon fill="black" stroke="black" points="1315.35,-163.32 1321.93,-155.02 1311.61,-157.41 1315.35,-163.32"/>
</g>
<!-- 708 -->
<g id="node27" class="node">
<title>708</title>
<polygon fill="#c0c0c0" stroke="black" points="1192,-36 1138,-36 1138,0 1192,0 1192,-36"/>
<text text-anchor="middle" x="1165" y="-14.3" font-family="Times,serif" font-size="14.00">(...)</text>
</g>
<!-- 707&#45;&gt;708 -->
<g id="edge26" class="edge">
<title>707&#45;&gt;708</title>
<path fill="none" stroke="black" d="M1185.31,-71.76C1181.96,-63.04 1178.49,-54.04 1175.39,-45.99"/>
<polygon fill="black" stroke="black" points="1178.56,-44.48 1171.7,-36.41 1172.03,-46.99 1178.56,-44.48"/>
</g>
<!-- 721 -->
<g id="node28" class="node">
<title>721</title>
<polygon fill="#c0c0c0" stroke="black" points="1264,-36 1210,-36 1210,0 1264,0 1264,-36"/>
<text text-anchor="middle" x="1237" y="-14.3" font-family="Times,serif" font-size="14.00">(...)</text>
</g>
<!-- 707&#45;&gt;721 -->
<g id="edge27" class="edge">
<title>707&#45;&gt;721</title>
<path fill="none" stroke="black" d="M1216.69,-71.76C1220.04,-63.04 1223.51,-54.04 1226.61,-45.99"/>
<polygon fill="black" stroke="black" points="1229.97,-46.99 1230.3,-36.41 1223.44,-44.48 1229.97,-46.99"/>
</g>
<!-- 737 -->
<g id="node30" class="node">
<title>737</title>
<polygon fill="#c0c0c0" stroke="black" points="1377,-36 1323,-36 1323,0 1377,0 1377,-36"/>
<text text-anchor="middle" x="1350" y="-14.3" font-family="Times,serif" font-size="14.00">(...)</text>
</g>
<!-- 736&#45;&gt;737 -->
<g id="edge29" class="edge">
<title>736&#45;&gt;737</title>
<path fill="none" stroke="black" d="M1370.31,-71.76C1366.96,-63.04 1363.49,-54.04 1360.39,-45.99"/>
<polygon fill="black" stroke="black" points="1363.56,-44.48 1356.7,-36.41 1357.03,-46.99 1363.56,-44.48"/>
</g>
<!-- 752 -->
<g id="node31" class="node">
<title>752</title>
<polygon fill="#c0c0c0" stroke="black" points="1449,-36 1395,-36 1395,0 1449,0 1449,-36"/>
<text text-anchor="middle" x="1422" y="-14.3" font-family="Times,serif" font-size="14.00">(...)</text>
</g>
<!-- 736&#45;&gt;752 -->
<g id="edge30" class="edge">
<title>736&#45;&gt;752</title>
<path fill="none" stroke="black" d="M1401.69,-71.76C1405.04,-63.04 1408.51,-54.04 1411.61,-45.99"/>
<polygon fill="black" stroke="black" points="1414.97,-46.99 1415.3,-36.41 1408.44,-44.48 1414.97,-46.99"/>
</g>
</g>
</svg>
