<?xml version="1.0" encoding="UTF-8" standalone="no"?>
<!DOCTYPE svg PUBLIC "-//W3C//DTD SVG 1.1//EN"
 "http://www.w3.org/Graphics/SVG/1.1/DTD/svg11.dtd">
<!-- Generated by graphviz version 2.43.0 (0)
 -->
<!-- Title: Tree Pages: 1 -->
<svg width="1370pt" height="520pt"
 viewBox="0.00 0.00 1369.50 520.00" xmlns="http://www.w3.org/2000/svg" xmlns:xlink="http://www.w3.org/1999/xlink">
<g id="graph0" class="graph" transform="scale(1 1) rotate(0) translate(4 516)">
<title>Tree</title>
<polygon fill="white" stroke="transparent" points="-4,4 -4,-516 1365.5,-516 1365.5,4 -4,4"/>
<!-- 0 -->
<g id="node1" class="node">
<title>0</title>
<polygon fill="#ffffff" stroke="black" points="740.5,-512 555.5,-512 555.5,-429 740.5,-429 740.5,-512"/>
<text text-anchor="middle" x="648" y="-496.8" font-family="Times,serif" font-size="14.00">graphDepth &lt;= 3.5</text>
<text text-anchor="middle" x="648" y="-481.8" font-family="Times,serif" font-size="14.00">gini = 0.5</text>
<text text-anchor="middle" x="648" y="-466.8" font-family="Times,serif" font-size="14.00">samples = 25791</text>
<text text-anchor="middle" x="648" y="-451.8" font-family="Times,serif" font-size="14.00">value = [12881, 12910]</text>
<text text-anchor="middle" x="648" y="-436.8" font-family="Times,serif" font-size="14.00">class = True</text>
</g>
<!-- 1 -->
<g id="node2" class="node">
<title>1</title>
<polygon fill="#fdfeff" stroke="black" points="569.5,-393 402.5,-393 402.5,-310 569.5,-310 569.5,-393"/>
<text text-anchor="middle" x="486" y="-377.8" font-family="Times,serif" font-size="14.00">CCR &lt;= 0.55</text>
<text text-anchor="middle" x="486" y="-362.8" font-family="Times,serif" font-size="14.00">gini = 0.5</text>
<text text-anchor="middle" x="486" y="-347.8" font-family="Times,serif" font-size="14.00">samples = 3829</text>
<text text-anchor="middle" x="486" y="-332.8" font-family="Times,serif" font-size="14.00">value = [1903, 1926]</text>
<text text-anchor="middle" x="486" y="-317.8" font-family="Times,serif" font-size="14.00">class = True</text>
</g>
<!-- 0&#45;&gt;1 -->
<g id="edge1" class="edge">
<title>0&#45;&gt;1</title>
<path fill="none" stroke="black" d="M591.79,-428.91C578.48,-419.29 564.17,-408.95 550.51,-399.09"/>
<polygon fill="black" stroke="black" points="552.26,-396.04 542.11,-393.02 548.16,-401.71 552.26,-396.04"/>
<text text-anchor="middle" x="546.09" y="-414" font-family="Times,serif" font-size="14.00">True</text>
</g>
<!-- 108 -->
<g id="node17" class="node">
<title>108</title>
<polygon fill="#ffffff" stroke="black" points="922.5,-393 737.5,-393 737.5,-310 922.5,-310 922.5,-393"/>
<text text-anchor="middle" x="830" y="-377.8" font-family="Times,serif" font-size="14.00">sdComm &lt;= 6.5</text>
<text text-anchor="middle" x="830" y="-362.8" font-family="Times,serif" font-size="14.00">gini = 0.5</text>
<text text-anchor="middle" x="830" y="-347.8" font-family="Times,serif" font-size="14.00">samples = 21962</text>
<text text-anchor="middle" x="830" y="-332.8" font-family="Times,serif" font-size="14.00">value = [10978, 10984]</text>
<text text-anchor="middle" x="830" y="-317.8" font-family="Times,serif" font-size="14.00">class = True</text>
</g>
<!-- 0&#45;&gt;108 -->
<g id="edge16" class="edge">
<title>0&#45;&gt;108</title>
<path fill="none" stroke="black" d="M711.14,-428.91C726.39,-419.11 742.79,-408.56 758.39,-398.53"/>
<polygon fill="black" stroke="black" points="760.45,-401.37 766.97,-393.02 756.66,-395.48 760.45,-401.37"/>
<text text-anchor="middle" x="761.66" y="-413.75" font-family="Times,serif" font-size="14.00">False</text>
</g>
<!-- 2 -->
<g id="node3" class="node">
<title>2</title>
<polygon fill="#ffffff" stroke="black" points="319.5,-274 170.5,-274 170.5,-191 319.5,-191 319.5,-274"/>
<text text-anchor="middle" x="245" y="-258.8" font-family="Times,serif" font-size="14.00">nbproc &lt;= 4.5</text>
<text text-anchor="middle" x="245" y="-243.8" font-family="Times,serif" font-size="14.00">gini = 0.5</text>
<text text-anchor="middle" x="245" y="-228.8" font-family="Times,serif" font-size="14.00">samples = 1770</text>
<text text-anchor="middle" x="245" y="-213.8" font-family="Times,serif" font-size="14.00">value = [884, 886]</text>
<text text-anchor="middle" x="245" y="-198.8" font-family="Times,serif" font-size="14.00">class = True</text>
</g>
<!-- 1&#45;&gt;2 -->
<g id="edge2" class="edge">
<title>1&#45;&gt;2</title>
<path fill="none" stroke="black" d="M402.39,-309.91C378.52,-298.32 352.51,-285.69 328.64,-274.11"/>
<polygon fill="black" stroke="black" points="330.13,-270.94 319.61,-269.72 327.07,-277.24 330.13,-270.94"/>
</g>
<!-- 37 -->
<g id="node10" class="node">
<title>37</title>
<polygon fill="#fbfdfe" stroke="black" points="569.5,-274 402.5,-274 402.5,-191 569.5,-191 569.5,-274"/>
<text text-anchor="middle" x="486" y="-258.8" font-family="Times,serif" font-size="14.00">sdComm &lt;= 0.2</text>
<text text-anchor="middle" x="486" y="-243.8" font-family="Times,serif" font-size="14.00">gini = 0.5</text>
<text text-anchor="middle" x="486" y="-228.8" font-family="Times,serif" font-size="14.00">samples = 2059</text>
<text text-anchor="middle" x="486" y="-213.8" font-family="Times,serif" font-size="14.00">value = [1019, 1040]</text>
<text text-anchor="middle" x="486" y="-198.8" font-family="Times,serif" font-size="14.00">class = True</text>
</g>
<!-- 1&#45;&gt;37 -->
<g id="edge9" class="edge">
<title>1&#45;&gt;37</title>
<path fill="none" stroke="black" d="M486,-309.91C486,-301.65 486,-292.86 486,-284.3"/>
<polygon fill="black" stroke="black" points="489.5,-284.02 486,-274.02 482.5,-284.02 489.5,-284.02"/>
</g>
<!-- 3 -->
<g id="node4" class="node">
<title>3</title>
<polygon fill="#fdfeff" stroke="black" points="152,-155 0,-155 0,-72 152,-72 152,-155"/>
<text text-anchor="middle" x="76" y="-139.8" font-family="Times,serif" font-size="14.00">sdComm &lt;= 0.065</text>
<text text-anchor="middle" x="76" y="-124.8" font-family="Times,serif" font-size="14.00">gini = 0.5</text>
<text text-anchor="middle" x="76" y="-109.8" font-family="Times,serif" font-size="14.00">samples = 474</text>
<text text-anchor="middle" x="76" y="-94.8" font-family="Times,serif" font-size="14.00">value = [236, 238]</text>
<text text-anchor="middle" x="76" y="-79.8" font-family="Times,serif" font-size="14.00">class = True</text>
</g>
<!-- 2&#45;&gt;3 -->
<g id="edge3" class="edge">
<title>2&#45;&gt;3</title>
<path fill="none" stroke="black" d="M186.37,-190.91C172.34,-181.2 157.26,-170.76 142.89,-160.81"/>
<polygon fill="black" stroke="black" points="144.74,-157.84 134.53,-155.02 140.76,-163.59 144.74,-157.84"/>
</g>
<!-- 20 -->
<g id="node7" class="node">
<title>20</title>
<polygon fill="#ffffff" stroke="black" points="319.5,-155 170.5,-155 170.5,-72 319.5,-72 319.5,-155"/>
<text text-anchor="middle" x="245" y="-139.8" font-family="Times,serif" font-size="14.00">sdComm &lt;= 0.02</text>
<text text-anchor="middle" x="245" y="-124.8" font-family="Times,serif" font-size="14.00">gini = 0.5</text>
<text text-anchor="middle" x="245" y="-109.8" font-family="Times,serif" font-size="14.00">samples = 1296</text>
<text text-anchor="middle" x="245" y="-94.8" font-family="Times,serif" font-size="14.00">value = [648, 648]</text>
<text text-anchor="middle" x="245" y="-79.8" font-family="Times,serif" font-size="14.00">class = False</text>
</g>
<!-- 2&#45;&gt;20 -->
<g id="edge6" class="edge">
<title>2&#45;&gt;20</title>
<path fill="none" stroke="black" d="M245,-190.91C245,-182.65 245,-173.86 245,-165.3"/>
<polygon fill="black" stroke="black" points="248.5,-165.02 245,-155.02 241.5,-165.02 248.5,-165.02"/>
</g>
<!-- 4 -->
<g id="node5" class="node">
<title>4</title>
<polygon fill="#c0c0c0" stroke="black" points="67,-36 13,-36 13,0 67,0 67,-36"/>
<text text-anchor="middle" x="40" y="-14.3" font-family="Times,serif" font-size="14.00">(...)</text>
</g>
<!-- 3&#45;&gt;4 -->
<g id="edge4" class="edge">
<title>3&#45;&gt;4</title>
<path fill="none" stroke="black" d="M60.31,-71.76C56.96,-63.04 53.49,-54.04 50.39,-45.99"/>
<polygon fill="black" stroke="black" points="53.56,-44.48 46.7,-36.41 47.03,-46.99 53.56,-44.48"/>
</g>
<!-- 15 -->
<g id="node6" class="node">
<title>15</title>
<polygon fill="#c0c0c0" stroke="black" points="139,-36 85,-36 85,0 139,0 139,-36"/>
<text text-anchor="middle" x="112" y="-14.3" font-family="Times,serif" font-size="14.00">(...)</text>
</g>
<!-- 3&#45;&gt;15 -->
<g id="edge5" class="edge">
<title>3&#45;&gt;15</title>
<path fill="none" stroke="black" d="M91.69,-71.76C95.04,-63.04 98.51,-54.04 101.61,-45.99"/>
<polygon fill="black" stroke="black" points="104.97,-46.99 105.3,-36.41 98.44,-44.48 104.97,-46.99"/>
</g>
<!-- 21 -->
<g id="node8" class="node">
<title>21</title>
<polygon fill="#c0c0c0" stroke="black" points="235,-36 181,-36 181,0 235,0 235,-36"/>
<text text-anchor="middle" x="208" y="-14.3" font-family="Times,serif" font-size="14.00">(...)</text>
</g>
<!-- 20&#45;&gt;21 -->
<g id="edge7" class="edge">
<title>20&#45;&gt;21</title>
<path fill="none" stroke="black" d="M228.88,-71.76C225.39,-62.94 221.79,-53.84 218.58,-45.72"/>
<polygon fill="black" stroke="black" points="221.82,-44.42 214.89,-36.41 215.31,-46.99 221.82,-44.42"/>
</g>
<!-- 26 -->
<g id="node9" class="node">
<title>26</title>
<polygon fill="#c0c0c0" stroke="black" points="307,-36 253,-36 253,0 307,0 307,-36"/>
<text text-anchor="middle" x="280" y="-14.3" font-family="Times,serif" font-size="14.00">(...)</text>
</g>
<!-- 20&#45;&gt;26 -->
<g id="edge8" class="edge">
<title>20&#45;&gt;26</title>
<path fill="none" stroke="black" d="M260.25,-71.76C263.51,-63.04 266.88,-54.04 269.9,-45.99"/>
<polygon fill="black" stroke="black" points="273.26,-47 273.48,-36.41 266.7,-44.54 273.26,-47"/>
</g>
<!-- 38 -->
<g id="node11" class="node">
<title>38</title>
<polygon fill="#ebf5fc" stroke="black" points="486.5,-155 337.5,-155 337.5,-72 486.5,-72 486.5,-155"/>
<text text-anchor="middle" x="412" y="-139.8" font-family="Times,serif" font-size="14.00">sdComp &lt;= 0.65</text>
<text text-anchor="middle" x="412" y="-124.8" font-family="Times,serif" font-size="14.00">gini = 0.499</text>
<text text-anchor="middle" x="412" y="-109.8" font-family="Times,serif" font-size="14.00">samples = 319</text>
<text text-anchor="middle" x="412" y="-94.8" font-family="Times,serif" font-size="14.00">value = [151, 168]</text>
<text text-anchor="middle" x="412" y="-79.8" font-family="Times,serif" font-size="14.00">class = True</text>
</g>
<!-- 37&#45;&gt;38 -->
<g id="edge10" class="edge">
<title>37&#45;&gt;38</title>
<path fill="none" stroke="black" d="M460.33,-190.91C454.76,-182.1 448.81,-172.7 443.06,-163.61"/>
<polygon fill="black" stroke="black" points="445.93,-161.6 437.63,-155.02 440.02,-165.34 445.93,-161.6"/>
</g>
<!-- 49 -->
<g id="node14" class="node">
<title>49</title>
<polygon fill="#feffff" stroke="black" points="653.5,-155 504.5,-155 504.5,-72 653.5,-72 653.5,-155"/>
<text text-anchor="middle" x="579" y="-139.8" font-family="Times,serif" font-size="14.00">nbproc &lt;= 4.5</text>
<text text-anchor="middle" x="579" y="-124.8" font-family="Times,serif" font-size="14.00">gini = 0.5</text>
<text text-anchor="middle" x="579" y="-109.8" font-family="Times,serif" font-size="14.00">samples = 1740</text>
<text text-anchor="middle" x="579" y="-94.8" font-family="Times,serif" font-size="14.00">value = [868, 872]</text>
<text text-anchor="middle" x="579" y="-79.8" font-family="Times,serif" font-size="14.00">class = True</text>
</g>
<!-- 37&#45;&gt;49 -->
<g id="edge13" class="edge">
<title>37&#45;&gt;49</title>
<path fill="none" stroke="black" d="M518.27,-190.91C525.41,-181.92 533.04,-172.32 540.41,-163.05"/>
<polygon fill="black" stroke="black" points="543.31,-165.03 546.79,-155.02 537.83,-160.67 543.31,-165.03"/>
</g>
<!-- 39 -->
<g id="node12" class="node">
<title>39</title>
<polygon fill="#c0c0c0" stroke="black" points="408,-36 354,-36 354,0 408,0 408,-36"/>
<text text-anchor="middle" x="381" y="-14.3" font-family="Times,serif" font-size="14.00">(...)</text>
</g>
<!-- 38&#45;&gt;39 -->
<g id="edge11" class="edge">
<title>38&#45;&gt;39</title>
<path fill="none" stroke="black" d="M398.49,-71.76C395.6,-63.04 392.62,-54.04 389.95,-45.99"/>
<polygon fill="black" stroke="black" points="393.24,-44.8 386.77,-36.41 386.6,-47 393.24,-44.8"/>
</g>
<!-- 46 -->
<g id="node13" class="node">
<title>46</title>
<polygon fill="#c0c0c0" stroke="black" points="480,-36 426,-36 426,0 480,0 480,-36"/>
<text text-anchor="middle" x="453" y="-14.3" font-family="Times,serif" font-size="14.00">(...)</text>
</g>
<!-- 38&#45;&gt;46 -->
<g id="edge12" class="edge">
<title>38&#45;&gt;46</title>
<path fill="none" stroke="black" d="M429.86,-71.76C433.73,-62.94 437.72,-53.84 441.28,-45.72"/>
<polygon fill="black" stroke="black" points="444.56,-46.97 445.37,-36.41 438.15,-44.16 444.56,-46.97"/>
</g>
<!-- 50 -->
<g id="node15" class="node">
<title>50</title>
<polygon fill="#c0c0c0" stroke="black" points="566,-36 512,-36 512,0 566,0 566,-36"/>
<text text-anchor="middle" x="539" y="-14.3" font-family="Times,serif" font-size="14.00">(...)</text>
</g>
<!-- 49&#45;&gt;50 -->
<g id="edge14" class="edge">
<title>49&#45;&gt;50</title>
<path fill="none" stroke="black" d="M561.57,-71.76C557.8,-62.94 553.9,-53.84 550.43,-45.72"/>
<polygon fill="black" stroke="black" points="553.6,-44.22 546.45,-36.41 547.16,-46.98 553.6,-44.22"/>
</g>
<!-- 79 -->
<g id="node16" class="node">
<title>79</title>
<polygon fill="#c0c0c0" stroke="black" points="638,-36 584,-36 584,0 638,0 638,-36"/>
<text text-anchor="middle" x="611" y="-14.3" font-family="Times,serif" font-size="14.00">(...)</text>
</g>
<!-- 49&#45;&gt;79 -->
<g id="edge15" class="edge">
<title>49&#45;&gt;79</title>
<path fill="none" stroke="black" d="M592.94,-71.76C595.93,-63.04 599.01,-54.04 601.76,-45.99"/>
<polygon fill="black" stroke="black" points="605.12,-47 605.04,-36.41 598.49,-44.73 605.12,-47"/>
</g>
<!-- 109 -->
<g id="node18" class="node">
<title>109</title>
<polygon fill="#ffffff" stroke="black" points="913.5,-274 746.5,-274 746.5,-191 913.5,-191 913.5,-274"/>
<text text-anchor="middle" x="830" y="-258.8" font-family="Times,serif" font-size="14.00">sdComp &lt;= 0.02</text>
<text text-anchor="middle" x="830" y="-243.8" font-family="Times,serif" font-size="14.00">gini = 0.5</text>
<text text-anchor="middle" x="830" y="-228.8" font-family="Times,serif" font-size="14.00">samples = 19082</text>
<text text-anchor="middle" x="830" y="-213.8" font-family="Times,serif" font-size="14.00">value = [9541, 9541]</text>
<text text-anchor="middle" x="830" y="-198.8" font-family="Times,serif" font-size="14.00">class = False</text>
</g>
<!-- 108&#45;&gt;109 -->
<g id="edge17" class="edge">
<title>108&#45;&gt;109</title>
<path fill="none" stroke="black" d="M830,-309.91C830,-301.65 830,-292.86 830,-284.3"/>
<polygon fill="black" stroke="black" points="833.5,-284.02 830,-274.02 826.5,-284.02 833.5,-284.02"/>
</g>
<!-- 748 -->
<g id="node25" class="node">
<title>748</title>
<polygon fill="#feffff" stroke="black" points="1183.5,-274 1016.5,-274 1016.5,-191 1183.5,-191 1183.5,-274"/>
<text text-anchor="middle" x="1100" y="-258.8" font-family="Times,serif" font-size="14.00">graphDepth &lt;= 9.0</text>
<text text-anchor="middle" x="1100" y="-243.8" font-family="Times,serif" font-size="14.00">gini = 0.5</text>
<text text-anchor="middle" x="1100" y="-228.8" font-family="Times,serif" font-size="14.00">samples = 2880</text>
<text text-anchor="middle" x="1100" y="-213.8" font-family="Times,serif" font-size="14.00">value = [1437, 1443]</text>
<text text-anchor="middle" x="1100" y="-198.8" font-family="Times,serif" font-size="14.00">class = True</text>
</g>
<!-- 108&#45;&gt;748 -->
<g id="edge24" class="edge">
<title>108&#45;&gt;748</title>
<path fill="none" stroke="black" d="M922.54,-310.4C949.72,-298.62 979.45,-285.74 1006.67,-273.94"/>
<polygon fill="black" stroke="black" points="1008.4,-277.01 1016.19,-269.82 1005.62,-270.58 1008.4,-277.01"/>
</g>
<!-- 110 -->
<g id="node19" class="node">
<title>110</title>
<polygon fill="#ffffff" stroke="black" points="820.5,-155 671.5,-155 671.5,-72 820.5,-72 820.5,-155"/>
<text text-anchor="middle" x="746" y="-139.8" font-family="Times,serif" font-size="14.00">sdComm &lt;= 0.02</text>
<text text-anchor="middle" x="746" y="-124.8" font-family="Times,serif" font-size="14.00">gini = 0.5</text>
<text text-anchor="middle" x="746" y="-109.8" font-family="Times,serif" font-size="14.00">samples = 1560</text>
<text text-anchor="middle" x="746" y="-94.8" font-family="Times,serif" font-size="14.00">value = [780, 780]</text>
<text text-anchor="middle" x="746" y="-79.8" font-family="Times,serif" font-size="14.00">class = False</text>
</g>
<!-- 109&#45;&gt;110 -->
<g id="edge18" class="edge">
<title>109&#45;&gt;110</title>
<path fill="none" stroke="black" d="M800.86,-190.91C794.47,-182.01 787.65,-172.51 781.06,-163.33"/>
<polygon fill="black" stroke="black" points="783.77,-161.1 775.09,-155.02 778.08,-165.19 783.77,-161.1"/>
</g>
<!-- 189 -->
<g id="node22" class="node">
<title>189</title>
<polygon fill="#ffffff" stroke="black" points="1005.5,-155 838.5,-155 838.5,-72 1005.5,-72 1005.5,-155"/>
<text text-anchor="middle" x="922" y="-139.8" font-family="Times,serif" font-size="14.00">graphSize &lt;= 22.5</text>
<text text-anchor="middle" x="922" y="-124.8" font-family="Times,serif" font-size="14.00">gini = 0.5</text>
<text text-anchor="middle" x="922" y="-109.8" font-family="Times,serif" font-size="14.00">samples = 17522</text>
<text text-anchor="middle" x="922" y="-94.8" font-family="Times,serif" font-size="14.00">value = [8761, 8761]</text>
<text text-anchor="middle" x="922" y="-79.8" font-family="Times,serif" font-size="14.00">class = False</text>
</g>
<!-- 109&#45;&gt;189 -->
<g id="edge21" class="edge">
<title>109&#45;&gt;189</title>
<path fill="none" stroke="black" d="M861.92,-190.91C868.98,-181.92 876.54,-172.32 883.82,-163.05"/>
<polygon fill="black" stroke="black" points="886.71,-165.05 890.14,-155.02 881.2,-160.72 886.71,-165.05"/>
</g>
<!-- 111 -->
<g id="node20" class="node">
<title>111</title>
<polygon fill="#c0c0c0" stroke="black" points="717,-36 663,-36 663,0 717,0 717,-36"/>
<text text-anchor="middle" x="690" y="-14.3" font-family="Times,serif" font-size="14.00">(...)</text>
</g>
<!-- 110&#45;&gt;111 -->
<g id="edge19" class="edge">
<title>110&#45;&gt;111</title>
<path fill="none" stroke="black" d="M721.6,-71.76C716.2,-62.75 710.63,-53.44 705.69,-45.19"/>
<polygon fill="black" stroke="black" points="708.57,-43.19 700.42,-36.41 702.56,-46.78 708.57,-43.19"/>
</g>
<!-- 138 -->
<g id="node21" class="node">
<title>138</title>
<polygon fill="#c0c0c0" stroke="black" points="789,-36 735,-36 735,0 789,0 789,-36"/>
<text text-anchor="middle" x="762" y="-14.3" font-family="Times,serif" font-size="14.00">(...)</text>
</g>
<!-- 110&#45;&gt;138 -->
<g id="edge20" class="edge">
<title>110&#45;&gt;138</title>
<path fill="none" stroke="black" d="M752.97,-71.76C754.43,-63.24 755.94,-54.44 757.29,-46.53"/>
<polygon fill="black" stroke="black" points="760.78,-46.85 759.02,-36.41 753.88,-45.67 760.78,-46.85"/>
</g>
<!-- 190 -->
<g id="node23" class="node">
<title>190</title>
<polygon fill="#c0c0c0" stroke="black" points="894,-36 840,-36 840,0 894,0 894,-36"/>
<text text-anchor="middle" x="867" y="-14.3" font-family="Times,serif" font-size="14.00">(...)</text>
</g>
<!-- 189&#45;&gt;190 -->
<g id="edge22" class="edge">
<title>189&#45;&gt;190</title>
<path fill="none" stroke="black" d="M898.04,-71.76C892.74,-62.75 887.26,-53.44 882.41,-45.19"/>
<polygon fill="black" stroke="black" points="885.33,-43.25 877.24,-36.41 879.29,-46.8 885.33,-43.25"/>
</g>
<!-- 273 -->
<g id="node24" class="node">
<title>273</title>
<polygon fill="#c0c0c0" stroke="black" points="966,-36 912,-36 912,0 966,0 966,-36"/>
<text text-anchor="middle" x="939" y="-14.3" font-family="Times,serif" font-size="14.00">(...)</text>
</g>
<!-- 189&#45;&gt;273 -->
<g id="edge23" class="edge">
<title>189&#45;&gt;273</title>
<path fill="none" stroke="black" d="M929.41,-71.76C930.97,-63.14 932.59,-54.24 934.04,-46.26"/>
<polygon fill="black" stroke="black" points="937.49,-46.87 935.84,-36.41 930.6,-45.62 937.49,-46.87"/>
</g>
<!-- 749 -->
<g id="node26" class="node">
<title>749</title>
<polygon fill="#fdfeff" stroke="black" points="1176.5,-155 1023.5,-155 1023.5,-72 1176.5,-72 1176.5,-155"/>
<text text-anchor="middle" x="1100" y="-139.8" font-family="Times,serif" font-size="14.00">graphSize &lt;= 22.5</text>
<text text-anchor="middle" x="1100" y="-124.8" font-family="Times,serif" font-size="14.00">gini = 0.5</text>
<text text-anchor="middle" x="1100" y="-109.8" font-family="Times,serif" font-size="14.00">samples = 1180</text>
<text text-anchor="middle" x="1100" y="-94.8" font-family="Times,serif" font-size="14.00">value = [587, 593]</text>
<text text-anchor="middle" x="1100" y="-79.8" font-family="Times,serif" font-size="14.00">class = True</text>
</g>
<!-- 748&#45;&gt;749 -->
<g id="edge25" class="edge">
<title>748&#45;&gt;749</title>
<path fill="none" stroke="black" d="M1100,-190.91C1100,-182.65 1100,-173.86 1100,-165.3"/>
<polygon fill="black" stroke="black" points="1103.5,-165.02 1100,-155.02 1096.5,-165.02 1103.5,-165.02"/>
</g>
<!-- 784 -->
<g id="node29" class="node">
<title>784</title>
<polygon fill="#ffffff" stroke="black" points="1361.5,-155 1194.5,-155 1194.5,-72 1361.5,-72 1361.5,-155"/>
<text text-anchor="middle" x="1278" y="-139.8" font-family="Times,serif" font-size="14.00">graphDepth &lt;= 13.5</text>
<text text-anchor="middle" x="1278" y="-124.8" font-family="Times,serif" font-size="14.00">gini = 0.5</text>
<text text-anchor="middle" x="1278" y="-109.8" font-family="Times,serif" font-size="14.00">samples = 1700</text>
<text text-anchor="middle" x="1278" y="-94.8" font-family="Times,serif" font-size="14.00">value = [850, 850]</text>
<text text-anchor="middle" x="1278" y="-79.8" font-family="Times,serif" font-size="14.00">class = False</text>
</g>
<!-- 748&#45;&gt;784 -->
<g id="edge28" class="edge">
<title>748&#45;&gt;784</title>
<path fill="none" stroke="black" d="M1161.76,-190.91C1176.67,-181.11 1192.71,-170.56 1207.97,-160.53"/>
<polygon fill="black" stroke="black" points="1209.92,-163.44 1216.35,-155.02 1206.07,-157.59 1209.92,-163.44"/>
</g>
<!-- 750 -->
<g id="node27" class="node">
<title>750</title>
<polygon fill="#c0c0c0" stroke="black" points="1090,-36 1036,-36 1036,0 1090,0 1090,-36"/>
<text text-anchor="middle" x="1063" y="-14.3" font-family="Times,serif" font-size="14.00">(...)</text>
</g>
<!-- 749&#45;&gt;750 -->
<g id="edge26" class="edge">
<title>749&#45;&gt;750</title>
<path fill="none" stroke="black" d="M1083.88,-71.76C1080.39,-62.94 1076.79,-53.84 1073.58,-45.72"/>
<polygon fill="black" stroke="black" points="1076.82,-44.42 1069.89,-36.41 1070.31,-46.99 1076.82,-44.42"/>
</g>
<!-- 761 -->
<g id="node28" class="node">
<title>761</title>
<polygon fill="#c0c0c0" stroke="black" points="1162,-36 1108,-36 1108,0 1162,0 1162,-36"/>
<text text-anchor="middle" x="1135" y="-14.3" font-family="Times,serif" font-size="14.00">(...)</text>
</g>
<!-- 749&#45;&gt;761 -->
<g id="edge27" class="edge">
<title>749&#45;&gt;761</title>
<path fill="none" stroke="black" d="M1115.25,-71.76C1118.51,-63.04 1121.88,-54.04 1124.9,-45.99"/>
<polygon fill="black" stroke="black" points="1128.26,-47 1128.48,-36.41 1121.7,-44.54 1128.26,-47"/>
</g>
<!-- 785 -->
<g id="node30" class="node">
<title>785</title>
<polygon fill="#c0c0c0" stroke="black" points="1269,-36 1215,-36 1215,0 1269,0 1269,-36"/>
<text text-anchor="middle" x="1242" y="-14.3" font-family="Times,serif" font-size="14.00">(...)</text>
</g>
<!-- 784&#45;&gt;785 -->
<g id="edge29" class="edge">
<title>784&#45;&gt;785</title>
<path fill="none" stroke="black" d="M1262.31,-71.76C1258.96,-63.04 1255.49,-54.04 1252.39,-45.99"/>
<polygon fill="black" stroke="black" points="1255.56,-44.48 1248.7,-36.41 1249.03,-46.99 1255.56,-44.48"/>
</g>
<!-- 796 -->
<g id="node31" class="node">
<title>796</title>
<polygon fill="#c0c0c0" stroke="black" points="1341,-36 1287,-36 1287,0 1341,0 1341,-36"/>
<text text-anchor="middle" x="1314" y="-14.3" font-family="Times,serif" font-size="14.00">(...)</text>
</g>
<!-- 784&#45;&gt;796 -->
<g id="edge30" class="edge">
<title>784&#45;&gt;796</title>
<path fill="none" stroke="black" d="M1293.69,-71.76C1297.04,-63.04 1300.51,-54.04 1303.61,-45.99"/>
<polygon fill="black" stroke="black" points="1306.97,-46.99 1307.3,-36.41 1300.44,-44.48 1306.97,-46.99"/>
</g>
</g>
</svg>
