<?xml version="1.0" encoding="UTF-8" standalone="no"?>
<!DOCTYPE svg PUBLIC "-//W3C//DTD SVG 1.1//EN"
 "http://www.w3.org/Graphics/SVG/1.1/DTD/svg11.dtd">
<!-- Generated by graphviz version 2.43.0 (0)
 -->
<!-- Title: Tree Pages: 1 -->
<svg width="1665pt" height="520pt"
 viewBox="0.00 0.00 1665.00 520.00" xmlns="http://www.w3.org/2000/svg" xmlns:xlink="http://www.w3.org/1999/xlink">
<g id="graph0" class="graph" transform="scale(1 1) rotate(0) translate(4 516)">
<title>Tree</title>
<polygon fill="white" stroke="transparent" points="-4,4 -4,-516 1661,-516 1661,4 -4,4"/>
<!-- 0 -->
<g id="node1" class="node">
<title>0</title>
<polygon fill="#f5f0fd" stroke="black" points="956,-512 735,-512 735,-429 956,-429 956,-512"/>
<text text-anchor="middle" x="845.5" y="-496.8" font-family="Times,serif" font-size="14.00">CCR &lt;= 5.5</text>
<text text-anchor="middle" x="845.5" y="-481.8" font-family="Times,serif" font-size="14.00">gini = 0.643</text>
<text text-anchor="middle" x="845.5" y="-466.8" font-family="Times,serif" font-size="14.00">samples = 25791</text>
<text text-anchor="middle" x="845.5" y="-451.8" font-family="Times,serif" font-size="14.00">value = [5404, 9570, 10817]</text>
<text text-anchor="middle" x="845.5" y="-436.8" font-family="Times,serif" font-size="14.00">class = None</text>
</g>
<!-- 1 -->
<g id="node2" class="node">
<title>1</title>
<polygon fill="#baf6d3" stroke="black" points="747.5,-393 535.5,-393 535.5,-310 747.5,-310 747.5,-393"/>
<text text-anchor="middle" x="641.5" y="-377.8" font-family="Times,serif" font-size="14.00">graphSize &lt;= 22.5</text>
<text text-anchor="middle" x="641.5" y="-362.8" font-family="Times,serif" font-size="14.00">gini = 0.59</text>
<text text-anchor="middle" x="641.5" y="-347.8" font-family="Times,serif" font-size="14.00">samples = 16087</text>
<text text-anchor="middle" x="641.5" y="-332.8" font-family="Times,serif" font-size="14.00">value = [4810, 8742, 2535]</text>
<text text-anchor="middle" x="641.5" y="-317.8" font-family="Times,serif" font-size="14.00">class = DCP</text>
</g>
<!-- 0&#45;&gt;1 -->
<g id="edge1" class="edge">
<title>0&#45;&gt;1</title>
<path fill="none" stroke="black" d="M774.72,-428.91C757.48,-419.02 738.91,-408.37 721.28,-398.25"/>
<polygon fill="black" stroke="black" points="722.57,-394.96 712.15,-393.02 719.08,-401.03 722.57,-394.96"/>
<text text-anchor="middle" x="718.69" y="-413.45" font-family="Times,serif" font-size="14.00">True</text>
</g>
<!-- 546 -->
<g id="node17" class="node">
<title>546</title>
<polygon fill="#9559e9" stroke="black" points="1156.5,-393 962.5,-393 962.5,-310 1156.5,-310 1156.5,-393"/>
<text text-anchor="middle" x="1059.5" y="-377.8" font-family="Times,serif" font-size="14.00">sdComp &lt;= 6.5</text>
<text text-anchor="middle" x="1059.5" y="-362.8" font-family="Times,serif" font-size="14.00">gini = 0.261</text>
<text text-anchor="middle" x="1059.5" y="-347.8" font-family="Times,serif" font-size="14.00">samples = 9704</text>
<text text-anchor="middle" x="1059.5" y="-332.8" font-family="Times,serif" font-size="14.00">value = [594, 828, 8282]</text>
<text text-anchor="middle" x="1059.5" y="-317.8" font-family="Times,serif" font-size="14.00">class = None</text>
</g>
<!-- 0&#45;&gt;546 -->
<g id="edge16" class="edge">
<title>0&#45;&gt;546</title>
<path fill="none" stroke="black" d="M919.75,-428.91C938.09,-418.88 957.85,-408.07 976.58,-397.84"/>
<polygon fill="black" stroke="black" points="978.29,-400.89 985.39,-393.02 974.93,-394.75 978.29,-400.89"/>
<text text-anchor="middle" x="978.35" y="-413.31" font-family="Times,serif" font-size="14.00">False</text>
</g>
<!-- 2 -->
<g id="node3" class="node">
<title>2</title>
<polygon fill="#cef9e0" stroke="black" points="432.5,-274 220.5,-274 220.5,-191 432.5,-191 432.5,-274"/>
<text text-anchor="middle" x="326.5" y="-258.8" font-family="Times,serif" font-size="14.00">sdComm &lt;= 0.02</text>
<text text-anchor="middle" x="326.5" y="-243.8" font-family="Times,serif" font-size="14.00">gini = 0.598</text>
<text text-anchor="middle" x="326.5" y="-228.8" font-family="Times,serif" font-size="14.00">samples = 11109</text>
<text text-anchor="middle" x="326.5" y="-213.8" font-family="Times,serif" font-size="14.00">value = [3876, 5674, 1559]</text>
<text text-anchor="middle" x="326.5" y="-198.8" font-family="Times,serif" font-size="14.00">class = DCP</text>
</g>
<!-- 1&#45;&gt;2 -->
<g id="edge2" class="edge">
<title>1&#45;&gt;2</title>
<path fill="none" stroke="black" d="M535.29,-311.05C505.27,-299.9 472.45,-287.71 441.91,-276.37"/>
<polygon fill="black" stroke="black" points="443.11,-273.08 432.51,-272.88 440.67,-279.64 443.11,-273.08"/>
</g>
<!-- 145 -->
<g id="node10" class="node">
<title>145</title>
<polygon fill="#97f1bd" stroke="black" points="738.5,-274 544.5,-274 544.5,-191 738.5,-191 738.5,-274"/>
<text text-anchor="middle" x="641.5" y="-258.8" font-family="Times,serif" font-size="14.00">nbproc &lt;= 4.5</text>
<text text-anchor="middle" x="641.5" y="-243.8" font-family="Times,serif" font-size="14.00">gini = 0.547</text>
<text text-anchor="middle" x="641.5" y="-228.8" font-family="Times,serif" font-size="14.00">samples = 4978</text>
<text text-anchor="middle" x="641.5" y="-213.8" font-family="Times,serif" font-size="14.00">value = [934, 3068, 976]</text>
<text text-anchor="middle" x="641.5" y="-198.8" font-family="Times,serif" font-size="14.00">class = DCP</text>
</g>
<!-- 1&#45;&gt;145 -->
<g id="edge9" class="edge">
<title>1&#45;&gt;145</title>
<path fill="none" stroke="black" d="M641.5,-309.91C641.5,-301.65 641.5,-292.86 641.5,-284.3"/>
<polygon fill="black" stroke="black" points="645,-284.02 641.5,-274.02 638,-284.02 645,-284.02"/>
</g>
<!-- 3 -->
<g id="node4" class="node">
<title>3</title>
<polygon fill="#fefaf8" stroke="black" points="203,-155 0,-155 0,-72 203,-72 203,-155"/>
<text text-anchor="middle" x="101.5" y="-139.8" font-family="Times,serif" font-size="14.00">graphDepth &lt;= 3.5</text>
<text text-anchor="middle" x="101.5" y="-124.8" font-family="Times,serif" font-size="14.00">gini = 0.565</text>
<text text-anchor="middle" x="101.5" y="-109.8" font-family="Times,serif" font-size="14.00">samples = 2400</text>
<text text-anchor="middle" x="101.5" y="-94.8" font-family="Times,serif" font-size="14.00">value = [1136, 1088, 176]</text>
<text text-anchor="middle" x="101.5" y="-79.8" font-family="Times,serif" font-size="14.00">class = DLS/DC</text>
</g>
<!-- 2&#45;&gt;3 -->
<g id="edge3" class="edge">
<title>2&#45;&gt;3</title>
<path fill="none" stroke="black" d="M248.44,-190.91C229.07,-180.83 208.19,-169.98 188.42,-159.7"/>
<polygon fill="black" stroke="black" points="189.91,-156.53 179.42,-155.02 186.68,-162.74 189.91,-156.53"/>
</g>
<!-- 26 -->
<g id="node7" class="node">
<title>26</title>
<polygon fill="#c2f7d8" stroke="black" points="432.5,-155 220.5,-155 220.5,-72 432.5,-72 432.5,-155"/>
<text text-anchor="middle" x="326.5" y="-139.8" font-family="Times,serif" font-size="14.00">graphDepth &lt;= 3.5</text>
<text text-anchor="middle" x="326.5" y="-124.8" font-family="Times,serif" font-size="14.00">gini = 0.599</text>
<text text-anchor="middle" x="326.5" y="-109.8" font-family="Times,serif" font-size="14.00">samples = 8709</text>
<text text-anchor="middle" x="326.5" y="-94.8" font-family="Times,serif" font-size="14.00">value = [2740, 4586, 1383]</text>
<text text-anchor="middle" x="326.5" y="-79.8" font-family="Times,serif" font-size="14.00">class = DCP</text>
</g>
<!-- 2&#45;&gt;26 -->
<g id="edge6" class="edge">
<title>2&#45;&gt;26</title>
<path fill="none" stroke="black" d="M326.5,-190.91C326.5,-182.65 326.5,-173.86 326.5,-165.3"/>
<polygon fill="black" stroke="black" points="330,-165.02 326.5,-155.02 323,-165.02 330,-165.02"/>
</g>
<!-- 4 -->
<g id="node5" class="node">
<title>4</title>
<polygon fill="#c0c0c0" stroke="black" points="92.5,-36 38.5,-36 38.5,0 92.5,0 92.5,-36"/>
<text text-anchor="middle" x="65.5" y="-14.3" font-family="Times,serif" font-size="14.00">(...)</text>
</g>
<!-- 3&#45;&gt;4 -->
<g id="edge4" class="edge">
<title>3&#45;&gt;4</title>
<path fill="none" stroke="black" d="M85.81,-71.76C82.46,-63.04 78.99,-54.04 75.89,-45.99"/>
<polygon fill="black" stroke="black" points="79.06,-44.48 72.2,-36.41 72.53,-46.99 79.06,-44.48"/>
</g>
<!-- 15 -->
<g id="node6" class="node">
<title>15</title>
<polygon fill="#c0c0c0" stroke="black" points="164.5,-36 110.5,-36 110.5,0 164.5,0 164.5,-36"/>
<text text-anchor="middle" x="137.5" y="-14.3" font-family="Times,serif" font-size="14.00">(...)</text>
</g>
<!-- 3&#45;&gt;15 -->
<g id="edge5" class="edge">
<title>3&#45;&gt;15</title>
<path fill="none" stroke="black" d="M117.19,-71.76C120.54,-63.04 124.01,-54.04 127.11,-45.99"/>
<polygon fill="black" stroke="black" points="130.47,-46.99 130.8,-36.41 123.94,-44.48 130.47,-46.99"/>
</g>
<!-- 27 -->
<g id="node8" class="node">
<title>27</title>
<polygon fill="#c0c0c0" stroke="black" points="317.5,-36 263.5,-36 263.5,0 317.5,0 317.5,-36"/>
<text text-anchor="middle" x="290.5" y="-14.3" font-family="Times,serif" font-size="14.00">(...)</text>
</g>
<!-- 26&#45;&gt;27 -->
<g id="edge7" class="edge">
<title>26&#45;&gt;27</title>
<path fill="none" stroke="black" d="M310.81,-71.76C307.46,-63.04 303.99,-54.04 300.89,-45.99"/>
<polygon fill="black" stroke="black" points="304.06,-44.48 297.2,-36.41 297.53,-46.99 304.06,-44.48"/>
</g>
<!-- 86 -->
<g id="node9" class="node">
<title>86</title>
<polygon fill="#c0c0c0" stroke="black" points="389.5,-36 335.5,-36 335.5,0 389.5,0 389.5,-36"/>
<text text-anchor="middle" x="362.5" y="-14.3" font-family="Times,serif" font-size="14.00">(...)</text>
</g>
<!-- 26&#45;&gt;86 -->
<g id="edge8" class="edge">
<title>26&#45;&gt;86</title>
<path fill="none" stroke="black" d="M342.19,-71.76C345.54,-63.04 349.01,-54.04 352.11,-45.99"/>
<polygon fill="black" stroke="black" points="355.47,-46.99 355.8,-36.41 348.94,-44.48 355.47,-46.99"/>
</g>
<!-- 146 -->
<g id="node11" class="node">
<title>146</title>
<polygon fill="#aff5cc" stroke="black" points="635,-155 450,-155 450,-72 635,-72 635,-155"/>
<text text-anchor="middle" x="542.5" y="-139.8" font-family="Times,serif" font-size="14.00">sdComp &lt;= 0.02</text>
<text text-anchor="middle" x="542.5" y="-124.8" font-family="Times,serif" font-size="14.00">gini = 0.602</text>
<text text-anchor="middle" x="542.5" y="-109.8" font-family="Times,serif" font-size="14.00">samples = 1824</text>
<text text-anchor="middle" x="542.5" y="-94.8" font-family="Times,serif" font-size="14.00">value = [418, 986, 420]</text>
<text text-anchor="middle" x="542.5" y="-79.8" font-family="Times,serif" font-size="14.00">class = DCP</text>
</g>
<!-- 145&#45;&gt;146 -->
<g id="edge10" class="edge">
<title>145&#45;&gt;146</title>
<path fill="none" stroke="black" d="M607.15,-190.91C599.47,-181.83 591.26,-172.12 583.34,-162.77"/>
<polygon fill="black" stroke="black" points="585.92,-160.39 576.79,-155.02 580.57,-164.92 585.92,-160.39"/>
</g>
<!-- 351 -->
<g id="node14" class="node">
<title>351</title>
<polygon fill="#8bf0b5" stroke="black" points="846.5,-155 652.5,-155 652.5,-72 846.5,-72 846.5,-155"/>
<text text-anchor="middle" x="749.5" y="-139.8" font-family="Times,serif" font-size="14.00">sdComm &lt;= 0.2</text>
<text text-anchor="middle" x="749.5" y="-124.8" font-family="Times,serif" font-size="14.00">gini = 0.506</text>
<text text-anchor="middle" x="749.5" y="-109.8" font-family="Times,serif" font-size="14.00">samples = 3154</text>
<text text-anchor="middle" x="749.5" y="-94.8" font-family="Times,serif" font-size="14.00">value = [516, 2082, 556]</text>
<text text-anchor="middle" x="749.5" y="-79.8" font-family="Times,serif" font-size="14.00">class = DCP</text>
</g>
<!-- 145&#45;&gt;351 -->
<g id="edge13" class="edge">
<title>145&#45;&gt;351</title>
<path fill="none" stroke="black" d="M678.97,-190.91C687.43,-181.74 696.49,-171.93 705.2,-162.49"/>
<polygon fill="black" stroke="black" points="707.89,-164.74 712.1,-155.02 702.74,-159.99 707.89,-164.74"/>
</g>
<!-- 147 -->
<g id="node12" class="node">
<title>147</title>
<polygon fill="#c0c0c0" stroke="black" points="528.5,-36 474.5,-36 474.5,0 528.5,0 528.5,-36"/>
<text text-anchor="middle" x="501.5" y="-14.3" font-family="Times,serif" font-size="14.00">(...)</text>
</g>
<!-- 146&#45;&gt;147 -->
<g id="edge11" class="edge">
<title>146&#45;&gt;147</title>
<path fill="none" stroke="black" d="M524.64,-71.76C520.77,-62.94 516.78,-53.84 513.22,-45.72"/>
<polygon fill="black" stroke="black" points="516.35,-44.16 509.13,-36.41 509.94,-46.97 516.35,-44.16"/>
</g>
<!-- 182 -->
<g id="node13" class="node">
<title>182</title>
<polygon fill="#c0c0c0" stroke="black" points="600.5,-36 546.5,-36 546.5,0 600.5,0 600.5,-36"/>
<text text-anchor="middle" x="573.5" y="-14.3" font-family="Times,serif" font-size="14.00">(...)</text>
</g>
<!-- 146&#45;&gt;182 -->
<g id="edge12" class="edge">
<title>146&#45;&gt;182</title>
<path fill="none" stroke="black" d="M556.01,-71.76C558.9,-63.04 561.88,-54.04 564.55,-45.99"/>
<polygon fill="black" stroke="black" points="567.9,-47 567.73,-36.41 561.26,-44.8 567.9,-47"/>
</g>
<!-- 352 -->
<g id="node15" class="node">
<title>352</title>
<polygon fill="#c0c0c0" stroke="black" points="735.5,-36 681.5,-36 681.5,0 735.5,0 735.5,-36"/>
<text text-anchor="middle" x="708.5" y="-14.3" font-family="Times,serif" font-size="14.00">(...)</text>
</g>
<!-- 351&#45;&gt;352 -->
<g id="edge14" class="edge">
<title>351&#45;&gt;352</title>
<path fill="none" stroke="black" d="M731.64,-71.76C727.77,-62.94 723.78,-53.84 720.22,-45.72"/>
<polygon fill="black" stroke="black" points="723.35,-44.16 716.13,-36.41 716.94,-46.97 723.35,-44.16"/>
</g>
<!-- 483 -->
<g id="node16" class="node">
<title>483</title>
<polygon fill="#c0c0c0" stroke="black" points="807.5,-36 753.5,-36 753.5,0 807.5,0 807.5,-36"/>
<text text-anchor="middle" x="780.5" y="-14.3" font-family="Times,serif" font-size="14.00">(...)</text>
</g>
<!-- 351&#45;&gt;483 -->
<g id="edge15" class="edge">
<title>351&#45;&gt;483</title>
<path fill="none" stroke="black" d="M763.01,-71.76C765.9,-63.04 768.88,-54.04 771.55,-45.99"/>
<polygon fill="black" stroke="black" points="774.9,-47 774.73,-36.41 768.26,-44.8 774.9,-47"/>
</g>
<!-- 547 -->
<g id="node18" class="node">
<title>547</title>
<polygon fill="#9152e8" stroke="black" points="1156.5,-274 962.5,-274 962.5,-191 1156.5,-191 1156.5,-274"/>
<text text-anchor="middle" x="1059.5" y="-258.8" font-family="Times,serif" font-size="14.00">sdComm &lt;= 2.0</text>
<text text-anchor="middle" x="1059.5" y="-243.8" font-family="Times,serif" font-size="14.00">gini = 0.212</text>
<text text-anchor="middle" x="1059.5" y="-228.8" font-family="Times,serif" font-size="14.00">samples = 6930</text>
<text text-anchor="middle" x="1059.5" y="-213.8" font-family="Times,serif" font-size="14.00">value = [258, 550, 6122]</text>
<text text-anchor="middle" x="1059.5" y="-198.8" font-family="Times,serif" font-size="14.00">class = None</text>
</g>
<!-- 546&#45;&gt;547 -->
<g id="edge17" class="edge">
<title>546&#45;&gt;547</title>
<path fill="none" stroke="black" d="M1059.5,-309.91C1059.5,-301.65 1059.5,-292.86 1059.5,-284.3"/>
<polygon fill="black" stroke="black" points="1063,-284.02 1059.5,-274.02 1056,-284.02 1063,-284.02"/>
</g>
<!-- 678 -->
<g id="node25" class="node">
<title>678</title>
<polygon fill="#a16bec" stroke="black" points="1472.5,-274 1278.5,-274 1278.5,-191 1472.5,-191 1472.5,-274"/>
<text text-anchor="middle" x="1375.5" y="-258.8" font-family="Times,serif" font-size="14.00">nbproc &lt;= 4.5</text>
<text text-anchor="middle" x="1375.5" y="-243.8" font-family="Times,serif" font-size="14.00">gini = 0.369</text>
<text text-anchor="middle" x="1375.5" y="-228.8" font-family="Times,serif" font-size="14.00">samples = 2774</text>
<text text-anchor="middle" x="1375.5" y="-213.8" font-family="Times,serif" font-size="14.00">value = [336, 278, 2160]</text>
<text text-anchor="middle" x="1375.5" y="-198.8" font-family="Times,serif" font-size="14.00">class = None</text>
</g>
<!-- 546&#45;&gt;678 -->
<g id="edge24" class="edge">
<title>546&#45;&gt;678</title>
<path fill="none" stroke="black" d="M1156.89,-314.44C1192.35,-301.31 1232.6,-286.41 1268.83,-273"/>
<polygon fill="black" stroke="black" points="1270.27,-276.19 1278.43,-269.44 1267.84,-269.63 1270.27,-276.19"/>
</g>
<!-- 548 -->
<g id="node19" class="node">
<title>548</title>
<polygon fill="#9a61ea" stroke="black" points="1049,-155 864,-155 864,-72 1049,-72 1049,-155"/>
<text text-anchor="middle" x="956.5" y="-139.8" font-family="Times,serif" font-size="14.00">graphDepth &lt;= 9.0</text>
<text text-anchor="middle" x="956.5" y="-124.8" font-family="Times,serif" font-size="14.00">gini = 0.302</text>
<text text-anchor="middle" x="956.5" y="-109.8" font-family="Times,serif" font-size="14.00">samples = 2058</text>
<text text-anchor="middle" x="956.5" y="-94.8" font-family="Times,serif" font-size="14.00">value = [94, 268, 1696]</text>
<text text-anchor="middle" x="956.5" y="-79.8" font-family="Times,serif" font-size="14.00">class = None</text>
</g>
<!-- 547&#45;&gt;548 -->
<g id="edge18" class="edge">
<title>547&#45;&gt;548</title>
<path fill="none" stroke="black" d="M1023.76,-190.91C1015.78,-181.83 1007.23,-172.12 998.99,-162.77"/>
<polygon fill="black" stroke="black" points="1001.41,-160.21 992.17,-155.02 996.15,-164.84 1001.41,-160.21"/>
</g>
<!-- 591 -->
<g id="node22" class="node">
<title>591</title>
<polygon fill="#8d4ce8" stroke="black" points="1260.5,-155 1066.5,-155 1066.5,-72 1260.5,-72 1260.5,-155"/>
<text text-anchor="middle" x="1163.5" y="-139.8" font-family="Times,serif" font-size="14.00">sdComp &lt;= 2.0</text>
<text text-anchor="middle" x="1163.5" y="-124.8" font-family="Times,serif" font-size="14.00">gini = 0.17</text>
<text text-anchor="middle" x="1163.5" y="-109.8" font-family="Times,serif" font-size="14.00">samples = 4872</text>
<text text-anchor="middle" x="1163.5" y="-94.8" font-family="Times,serif" font-size="14.00">value = [164, 282, 4426]</text>
<text text-anchor="middle" x="1163.5" y="-79.8" font-family="Times,serif" font-size="14.00">class = None</text>
</g>
<!-- 547&#45;&gt;591 -->
<g id="edge21" class="edge">
<title>547&#45;&gt;591</title>
<path fill="none" stroke="black" d="M1095.58,-190.91C1103.65,-181.83 1112.28,-172.12 1120.59,-162.77"/>
<polygon fill="black" stroke="black" points="1123.45,-164.82 1127.48,-155.02 1118.22,-160.17 1123.45,-164.82"/>
</g>
<!-- 549 -->
<g id="node20" class="node">
<title>549</title>
<polygon fill="#c0c0c0" stroke="black" points="942.5,-36 888.5,-36 888.5,0 942.5,0 942.5,-36"/>
<text text-anchor="middle" x="915.5" y="-14.3" font-family="Times,serif" font-size="14.00">(...)</text>
</g>
<!-- 548&#45;&gt;549 -->
<g id="edge19" class="edge">
<title>548&#45;&gt;549</title>
<path fill="none" stroke="black" d="M938.64,-71.76C934.77,-62.94 930.78,-53.84 927.22,-45.72"/>
<polygon fill="black" stroke="black" points="930.35,-44.16 923.13,-36.41 923.94,-46.97 930.35,-44.16"/>
</g>
<!-- 566 -->
<g id="node21" class="node">
<title>566</title>
<polygon fill="#c0c0c0" stroke="black" points="1014.5,-36 960.5,-36 960.5,0 1014.5,0 1014.5,-36"/>
<text text-anchor="middle" x="987.5" y="-14.3" font-family="Times,serif" font-size="14.00">(...)</text>
</g>
<!-- 548&#45;&gt;566 -->
<g id="edge20" class="edge">
<title>548&#45;&gt;566</title>
<path fill="none" stroke="black" d="M970.01,-71.76C972.9,-63.04 975.88,-54.04 978.55,-45.99"/>
<polygon fill="black" stroke="black" points="981.9,-47 981.73,-36.41 975.26,-44.8 981.9,-47"/>
</g>
<!-- 592 -->
<g id="node23" class="node">
<title>592</title>
<polygon fill="#c0c0c0" stroke="black" points="1152.5,-36 1098.5,-36 1098.5,0 1152.5,0 1152.5,-36"/>
<text text-anchor="middle" x="1125.5" y="-14.3" font-family="Times,serif" font-size="14.00">(...)</text>
</g>
<!-- 591&#45;&gt;592 -->
<g id="edge22" class="edge">
<title>591&#45;&gt;592</title>
<path fill="none" stroke="black" d="M1146.94,-71.76C1143.36,-62.94 1139.66,-53.84 1136.36,-45.72"/>
<polygon fill="black" stroke="black" points="1139.58,-44.35 1132.57,-36.41 1133.1,-46.99 1139.58,-44.35"/>
</g>
<!-- 643 -->
<g id="node24" class="node">
<title>643</title>
<polygon fill="#c0c0c0" stroke="black" points="1224.5,-36 1170.5,-36 1170.5,0 1224.5,0 1224.5,-36"/>
<text text-anchor="middle" x="1197.5" y="-14.3" font-family="Times,serif" font-size="14.00">(...)</text>
</g>
<!-- 591&#45;&gt;643 -->
<g id="edge23" class="edge">
<title>591&#45;&gt;643</title>
<path fill="none" stroke="black" d="M1178.31,-71.76C1181.48,-63.04 1184.76,-54.04 1187.68,-45.99"/>
<polygon fill="black" stroke="black" points="1191.04,-47 1191.17,-36.41 1184.46,-44.61 1191.04,-47"/>
</g>
<!-- 679 -->
<g id="node26" class="node">
<title>679</title>
<polygon fill="#ac7dee" stroke="black" points="1472.5,-155 1278.5,-155 1278.5,-72 1472.5,-72 1472.5,-155"/>
<text text-anchor="middle" x="1375.5" y="-139.8" font-family="Times,serif" font-size="14.00">graphSize &lt;= 22.5</text>
<text text-anchor="middle" x="1375.5" y="-124.8" font-family="Times,serif" font-size="14.00">gini = 0.445</text>
<text text-anchor="middle" x="1375.5" y="-109.8" font-family="Times,serif" font-size="14.00">samples = 1726</text>
<text text-anchor="middle" x="1375.5" y="-94.8" font-family="Times,serif" font-size="14.00">value = [304, 186, 1236]</text>
<text text-anchor="middle" x="1375.5" y="-79.8" font-family="Times,serif" font-size="14.00">class = None</text>
</g>
<!-- 678&#45;&gt;679 -->
<g id="edge25" class="edge">
<title>678&#45;&gt;679</title>
<path fill="none" stroke="black" d="M1375.5,-190.91C1375.5,-182.65 1375.5,-173.86 1375.5,-165.3"/>
<polygon fill="black" stroke="black" points="1379,-165.02 1375.5,-155.02 1372,-165.02 1379,-165.02"/>
</g>
<!-- 720 -->
<g id="node29" class="node">
<title>720</title>
<polygon fill="#9153e8" stroke="black" points="1657,-155 1490,-155 1490,-72 1657,-72 1657,-155"/>
<text text-anchor="middle" x="1573.5" y="-139.8" font-family="Times,serif" font-size="14.00">graphSize &lt;= 40.0</text>
<text text-anchor="middle" x="1573.5" y="-124.8" font-family="Times,serif" font-size="14.00">gini = 0.214</text>
<text text-anchor="middle" x="1573.5" y="-109.8" font-family="Times,serif" font-size="14.00">samples = 1048</text>
<text text-anchor="middle" x="1573.5" y="-94.8" font-family="Times,serif" font-size="14.00">value = [32, 92, 924]</text>
<text text-anchor="middle" x="1573.5" y="-79.8" font-family="Times,serif" font-size="14.00">class = None</text>
</g>
<!-- 678&#45;&gt;720 -->
<g id="edge28" class="edge">
<title>678&#45;&gt;720</title>
<path fill="none" stroke="black" d="M1444.2,-190.91C1460.94,-181.02 1478.95,-170.37 1496.07,-160.25"/>
<polygon fill="black" stroke="black" points="1498.1,-163.12 1504.93,-155.02 1494.54,-157.09 1498.1,-163.12"/>
</g>
<!-- 680 -->
<g id="node27" class="node">
<title>680</title>
<polygon fill="#c0c0c0" stroke="black" points="1366.5,-36 1312.5,-36 1312.5,0 1366.5,0 1366.5,-36"/>
<text text-anchor="middle" x="1339.5" y="-14.3" font-family="Times,serif" font-size="14.00">(...)</text>
</g>
<!-- 679&#45;&gt;680 -->
<g id="edge26" class="edge">
<title>679&#45;&gt;680</title>
<path fill="none" stroke="black" d="M1359.81,-71.76C1356.46,-63.04 1352.99,-54.04 1349.89,-45.99"/>
<polygon fill="black" stroke="black" points="1353.06,-44.48 1346.2,-36.41 1346.53,-46.99 1353.06,-44.48"/>
</g>
<!-- 691 -->
<g id="node28" class="node">
<title>691</title>
<polygon fill="#c0c0c0" stroke="black" points="1438.5,-36 1384.5,-36 1384.5,0 1438.5,0 1438.5,-36"/>
<text text-anchor="middle" x="1411.5" y="-14.3" font-family="Times,serif" font-size="14.00">(...)</text>
</g>
<!-- 679&#45;&gt;691 -->
<g id="edge27" class="edge">
<title>679&#45;&gt;691</title>
<path fill="none" stroke="black" d="M1391.19,-71.76C1394.54,-63.04 1398.01,-54.04 1401.11,-45.99"/>
<polygon fill="black" stroke="black" points="1404.47,-46.99 1404.8,-36.41 1397.94,-44.48 1404.47,-46.99"/>
</g>
<!-- 721 -->
<g id="node30" class="node">
<title>721</title>
<polygon fill="#c0c0c0" stroke="black" points="1564.5,-36 1510.5,-36 1510.5,0 1564.5,0 1564.5,-36"/>
<text text-anchor="middle" x="1537.5" y="-14.3" font-family="Times,serif" font-size="14.00">(...)</text>
</g>
<!-- 720&#45;&gt;721 -->
<g id="edge29" class="edge">
<title>720&#45;&gt;721</title>
<path fill="none" stroke="black" d="M1557.81,-71.76C1554.46,-63.04 1550.99,-54.04 1547.89,-45.99"/>
<polygon fill="black" stroke="black" points="1551.06,-44.48 1544.2,-36.41 1544.53,-46.99 1551.06,-44.48"/>
</g>
<!-- 742 -->
<g id="node31" class="node">
<title>742</title>
<polygon fill="#c0c0c0" stroke="black" points="1636.5,-36 1582.5,-36 1582.5,0 1636.5,0 1636.5,-36"/>
<text text-anchor="middle" x="1609.5" y="-14.3" font-family="Times,serif" font-size="14.00">(...)</text>
</g>
<!-- 720&#45;&gt;742 -->
<g id="edge30" class="edge">
<title>720&#45;&gt;742</title>
<path fill="none" stroke="black" d="M1589.19,-71.76C1592.54,-63.04 1596.01,-54.04 1599.11,-45.99"/>
<polygon fill="black" stroke="black" points="1602.47,-46.99 1602.8,-36.41 1595.94,-44.48 1602.47,-46.99"/>
</g>
</g>
</svg>
