<?xml version="1.0" encoding="UTF-8" standalone="no"?>
<!DOCTYPE svg PUBLIC "-//W3C//DTD SVG 1.1//EN"
 "http://www.w3.org/Graphics/SVG/1.1/DTD/svg11.dtd">
<!-- Generated by graphviz version 2.43.0 (0)
 -->
<!-- Title: Tree Pages: 1 -->
<svg width="2318pt" height="520pt"
 viewBox="0.00 0.00 2317.50 520.00" xmlns="http://www.w3.org/2000/svg" xmlns:xlink="http://www.w3.org/1999/xlink">
<g id="graph0" class="graph" transform="scale(1 1) rotate(0) translate(4 516)">
<title>Tree</title>
<polygon fill="white" stroke="transparent" points="-4,4 -4,-516 2313.5,-516 2313.5,4 -4,4"/>
<!-- 0 -->
<g id="node1" class="node">
<title>0</title>
<polygon fill="#fce9f4" stroke="black" points="1287,-512 940,-512 940,-429 1287,-429 1287,-512"/>
<text text-anchor="middle" x="1113.5" y="-496.8" font-family="Times,serif" font-size="14.00">sdComm &lt;= 0.065</text>
<text text-anchor="middle" x="1113.5" y="-481.8" font-family="Times,serif" font-size="14.00">gini = 0.68</text>
<text text-anchor="middle" x="1113.5" y="-466.8" font-family="Times,serif" font-size="14.00">samples = 33577</text>
<text text-anchor="middle" x="1113.5" y="-451.8" font-family="Times,serif" font-size="14.00">value = [6650, 1333, 422, 194, 11268, 13710]</text>
<text text-anchor="middle" x="1113.5" y="-436.8" font-family="Times,serif" font-size="14.00">class = GDL</text>
</g>
<!-- 1 -->
<g id="node2" class="node">
<title>1</title>
<polygon fill="#fef6fa" stroke="black" points="969,-393 658,-393 658,-310 969,-310 969,-393"/>
<text text-anchor="middle" x="813.5" y="-377.8" font-family="Times,serif" font-size="14.00">sdComp &lt;= 0.02</text>
<text text-anchor="middle" x="813.5" y="-362.8" font-family="Times,serif" font-size="14.00">gini = 0.693</text>
<text text-anchor="middle" x="813.5" y="-347.8" font-family="Times,serif" font-size="14.00">samples = 14560</text>
<text text-anchor="middle" x="813.5" y="-332.8" font-family="Times,serif" font-size="14.00">value = [4526, 424, 48, 162, 4412, 4988]</text>
<text text-anchor="middle" x="813.5" y="-317.8" font-family="Times,serif" font-size="14.00">class = GDL</text>
</g>
<!-- 0&#45;&gt;1 -->
<g id="edge1" class="edge">
<title>0&#45;&gt;1</title>
<path fill="none" stroke="black" d="M1009.42,-428.91C982.77,-418.52 953.99,-407.29 926.9,-396.73"/>
<polygon fill="black" stroke="black" points="927.99,-393.39 917.4,-393.02 925.44,-399.92 927.99,-393.39"/>
<text text-anchor="middle" x="927.45" y="-412.21" font-family="Times,serif" font-size="14.00">True</text>
</g>
<!-- 168 -->
<g id="node17" class="node">
<title>168</title>
<polygon fill="#fbe1f0" stroke="black" points="1583,-393 1272,-393 1272,-310 1583,-310 1583,-393"/>
<text text-anchor="middle" x="1427.5" y="-377.8" font-family="Times,serif" font-size="14.00">sdComm &lt;= 2.0</text>
<text text-anchor="middle" x="1427.5" y="-362.8" font-family="Times,serif" font-size="14.00">gini = 0.645</text>
<text text-anchor="middle" x="1427.5" y="-347.8" font-family="Times,serif" font-size="14.00">samples = 19017</text>
<text text-anchor="middle" x="1427.5" y="-332.8" font-family="Times,serif" font-size="14.00">value = [2124, 909, 374, 32, 6856, 8722]</text>
<text text-anchor="middle" x="1427.5" y="-317.8" font-family="Times,serif" font-size="14.00">class = GDL</text>
</g>
<!-- 0&#45;&gt;168 -->
<g id="edge16" class="edge">
<title>0&#45;&gt;168</title>
<path fill="none" stroke="black" d="M1222.44,-428.91C1250.45,-418.47 1280.72,-407.19 1309.18,-396.59"/>
<polygon fill="black" stroke="black" points="1310.6,-399.79 1318.75,-393.02 1308.16,-393.23 1310.6,-399.79"/>
<text text-anchor="middle" x="1308.36" y="-412.06" font-family="Times,serif" font-size="14.00">False</text>
</g>
<!-- 2 -->
<g id="node3" class="node">
<title>2</title>
<polygon fill="#fad9ec" stroke="black" points="505,-274 248,-274 248,-191 505,-191 505,-274"/>
<text text-anchor="middle" x="376.5" y="-258.8" font-family="Times,serif" font-size="14.00">graphSize &lt;= 22.5</text>
<text text-anchor="middle" x="376.5" y="-243.8" font-family="Times,serif" font-size="14.00">gini = 0.628</text>
<text text-anchor="middle" x="376.5" y="-228.8" font-family="Times,serif" font-size="14.00">samples = 1252</text>
<text text-anchor="middle" x="376.5" y="-213.8" font-family="Times,serif" font-size="14.00">value = [124, 52, 24, 0, 450, 602]</text>
<text text-anchor="middle" x="376.5" y="-198.8" font-family="Times,serif" font-size="14.00">class = GDL</text>
</g>
<!-- 1&#45;&gt;2 -->
<g id="edge2" class="edge">
<title>1&#45;&gt;2</title>
<path fill="none" stroke="black" d="M662.19,-309.99C614.42,-297.2 561.9,-283.14 515.06,-270.6"/>
<polygon fill="black" stroke="black" points="515.72,-267.15 505.16,-267.95 513.91,-273.91 515.72,-267.15"/>
</g>
<!-- 51 -->
<g id="node10" class="node">
<title>51</title>
<polygon fill="#ffffff" stroke="black" points="969,-274 658,-274 658,-191 969,-191 969,-274"/>
<text text-anchor="middle" x="813.5" y="-258.8" font-family="Times,serif" font-size="14.00">sdComp &lt;= 0.065</text>
<text text-anchor="middle" x="813.5" y="-243.8" font-family="Times,serif" font-size="14.00">gini = 0.692</text>
<text text-anchor="middle" x="813.5" y="-228.8" font-family="Times,serif" font-size="14.00">samples = 13308</text>
<text text-anchor="middle" x="813.5" y="-213.8" font-family="Times,serif" font-size="14.00">value = [4402, 372, 24, 162, 3962, 4386]</text>
<text text-anchor="middle" x="813.5" y="-198.8" font-family="Times,serif" font-size="14.00">class = eft</text>
</g>
<!-- 1&#45;&gt;51 -->
<g id="edge9" class="edge">
<title>1&#45;&gt;51</title>
<path fill="none" stroke="black" d="M813.5,-309.91C813.5,-301.65 813.5,-292.86 813.5,-284.3"/>
<polygon fill="black" stroke="black" points="817,-284.02 813.5,-274.02 810,-284.02 817,-284.02"/>
</g>
<!-- 3 -->
<g id="node4" class="node">
<title>3</title>
<polygon fill="#f9f6fe" stroke="black" points="239,-155 0,-155 0,-72 239,-72 239,-155"/>
<text text-anchor="middle" x="119.5" y="-139.8" font-family="Times,serif" font-size="14.00">graphDepth &lt;= 3.5</text>
<text text-anchor="middle" x="119.5" y="-124.8" font-family="Times,serif" font-size="14.00">gini = 0.607</text>
<text text-anchor="middle" x="119.5" y="-109.8" font-family="Times,serif" font-size="14.00">samples = 872</text>
<text text-anchor="middle" x="119.5" y="-94.8" font-family="Times,serif" font-size="14.00">value = [68, 30, 8, 0, 394, 372]</text>
<text text-anchor="middle" x="119.5" y="-79.8" font-family="Times,serif" font-size="14.00">class = DL</text>
</g>
<!-- 2&#45;&gt;3 -->
<g id="edge3" class="edge">
<title>2&#45;&gt;3</title>
<path fill="none" stroke="black" d="M287.34,-190.91C264.91,-180.7 240.71,-169.68 217.87,-159.28"/>
<polygon fill="black" stroke="black" points="219.06,-155.98 208.51,-155.02 216.16,-162.35 219.06,-155.98"/>
</g>
<!-- 18 -->
<g id="node7" class="node">
<title>18</title>
<polygon fill="#f195ca" stroke="black" points="496,-155 257,-155 257,-72 496,-72 496,-155"/>
<text text-anchor="middle" x="376.5" y="-139.8" font-family="Times,serif" font-size="14.00">graphSize &lt;= 75.0</text>
<text text-anchor="middle" x="376.5" y="-124.8" font-family="Times,serif" font-size="14.00">gini = 0.585</text>
<text text-anchor="middle" x="376.5" y="-109.8" font-family="Times,serif" font-size="14.00">samples = 380</text>
<text text-anchor="middle" x="376.5" y="-94.8" font-family="Times,serif" font-size="14.00">value = [56, 22, 16, 0, 56, 230]</text>
<text text-anchor="middle" x="376.5" y="-79.8" font-family="Times,serif" font-size="14.00">class = GDL</text>
</g>
<!-- 2&#45;&gt;18 -->
<g id="edge6" class="edge">
<title>2&#45;&gt;18</title>
<path fill="none" stroke="black" d="M376.5,-190.91C376.5,-182.65 376.5,-173.86 376.5,-165.3"/>
<polygon fill="black" stroke="black" points="380,-165.02 376.5,-155.02 373,-165.02 380,-165.02"/>
</g>
<!-- 4 -->
<g id="node5" class="node">
<title>4</title>
<polygon fill="#c0c0c0" stroke="black" points="110.5,-36 56.5,-36 56.5,0 110.5,0 110.5,-36"/>
<text text-anchor="middle" x="83.5" y="-14.3" font-family="Times,serif" font-size="14.00">(...)</text>
</g>
<!-- 3&#45;&gt;4 -->
<g id="edge4" class="edge">
<title>3&#45;&gt;4</title>
<path fill="none" stroke="black" d="M103.81,-71.76C100.46,-63.04 96.99,-54.04 93.89,-45.99"/>
<polygon fill="black" stroke="black" points="97.06,-44.48 90.2,-36.41 90.53,-46.99 97.06,-44.48"/>
</g>
<!-- 11 -->
<g id="node6" class="node">
<title>11</title>
<polygon fill="#c0c0c0" stroke="black" points="182.5,-36 128.5,-36 128.5,0 182.5,0 182.5,-36"/>
<text text-anchor="middle" x="155.5" y="-14.3" font-family="Times,serif" font-size="14.00">(...)</text>
</g>
<!-- 3&#45;&gt;11 -->
<g id="edge5" class="edge">
<title>3&#45;&gt;11</title>
<path fill="none" stroke="black" d="M135.19,-71.76C138.54,-63.04 142.01,-54.04 145.11,-45.99"/>
<polygon fill="black" stroke="black" points="148.47,-46.99 148.8,-36.41 141.94,-44.48 148.47,-46.99"/>
</g>
<!-- 19 -->
<g id="node8" class="node">
<title>19</title>
<polygon fill="#c0c0c0" stroke="black" points="367.5,-36 313.5,-36 313.5,0 367.5,0 367.5,-36"/>
<text text-anchor="middle" x="340.5" y="-14.3" font-family="Times,serif" font-size="14.00">(...)</text>
</g>
<!-- 18&#45;&gt;19 -->
<g id="edge7" class="edge">
<title>18&#45;&gt;19</title>
<path fill="none" stroke="black" d="M360.81,-71.76C357.46,-63.04 353.99,-54.04 350.89,-45.99"/>
<polygon fill="black" stroke="black" points="354.06,-44.48 347.2,-36.41 347.53,-46.99 354.06,-44.48"/>
</g>
<!-- 46 -->
<g id="node9" class="node">
<title>46</title>
<polygon fill="#c0c0c0" stroke="black" points="439.5,-36 385.5,-36 385.5,0 439.5,0 439.5,-36"/>
<text text-anchor="middle" x="412.5" y="-14.3" font-family="Times,serif" font-size="14.00">(...)</text>
</g>
<!-- 18&#45;&gt;46 -->
<g id="edge8" class="edge">
<title>18&#45;&gt;46</title>
<path fill="none" stroke="black" d="M392.19,-71.76C395.54,-63.04 399.01,-54.04 402.11,-45.99"/>
<polygon fill="black" stroke="black" points="405.47,-46.99 405.8,-36.41 398.94,-44.48 405.47,-46.99"/>
</g>
<!-- 52 -->
<g id="node11" class="node">
<title>52</title>
<polygon fill="#fbebe0" stroke="black" points="789,-155 514,-155 514,-72 789,-72 789,-155"/>
<text text-anchor="middle" x="651.5" y="-139.8" font-family="Times,serif" font-size="14.00">sdComm &lt;= 0.02</text>
<text text-anchor="middle" x="651.5" y="-124.8" font-family="Times,serif" font-size="14.00">gini = 0.671</text>
<text text-anchor="middle" x="651.5" y="-109.8" font-family="Times,serif" font-size="14.00">samples = 3306</text>
<text text-anchor="middle" x="651.5" y="-94.8" font-family="Times,serif" font-size="14.00">value = [1390, 86, 24, 2, 776, 1028]</text>
<text text-anchor="middle" x="651.5" y="-79.8" font-family="Times,serif" font-size="14.00">class = eft</text>
</g>
<!-- 51&#45;&gt;52 -->
<g id="edge10" class="edge">
<title>51&#45;&gt;52</title>
<path fill="none" stroke="black" d="M757.29,-190.91C743.98,-181.29 729.67,-170.95 716.01,-161.09"/>
<polygon fill="black" stroke="black" points="717.76,-158.04 707.61,-155.02 713.66,-163.71 717.76,-158.04"/>
</g>
<!-- 107 -->
<g id="node14" class="node">
<title>107</title>
<polygon fill="#fefafd" stroke="black" points="1109.5,-155 807.5,-155 807.5,-72 1109.5,-72 1109.5,-155"/>
<text text-anchor="middle" x="958.5" y="-139.8" font-family="Times,serif" font-size="14.00">graphDepth &lt;= 3.5</text>
<text text-anchor="middle" x="958.5" y="-124.8" font-family="Times,serif" font-size="14.00">gini = 0.694</text>
<text text-anchor="middle" x="958.5" y="-109.8" font-family="Times,serif" font-size="14.00">samples = 10002</text>
<text text-anchor="middle" x="958.5" y="-94.8" font-family="Times,serif" font-size="14.00">value = [3012, 286, 0, 160, 3186, 3358]</text>
<text text-anchor="middle" x="958.5" y="-79.8" font-family="Times,serif" font-size="14.00">class = GDL</text>
</g>
<!-- 51&#45;&gt;107 -->
<g id="edge13" class="edge">
<title>51&#45;&gt;107</title>
<path fill="none" stroke="black" d="M863.81,-190.91C875.62,-181.38 888.29,-171.15 900.41,-161.37"/>
<polygon fill="black" stroke="black" points="902.7,-164.02 908.28,-155.02 898.3,-158.58 902.7,-164.02"/>
</g>
<!-- 53 -->
<g id="node12" class="node">
<title>53</title>
<polygon fill="#c0c0c0" stroke="black" points="642.5,-36 588.5,-36 588.5,0 642.5,0 642.5,-36"/>
<text text-anchor="middle" x="615.5" y="-14.3" font-family="Times,serif" font-size="14.00">(...)</text>
</g>
<!-- 52&#45;&gt;53 -->
<g id="edge11" class="edge">
<title>52&#45;&gt;53</title>
<path fill="none" stroke="black" d="M635.81,-71.76C632.46,-63.04 628.99,-54.04 625.89,-45.99"/>
<polygon fill="black" stroke="black" points="629.06,-44.48 622.2,-36.41 622.53,-46.99 629.06,-44.48"/>
</g>
<!-- 80 -->
<g id="node13" class="node">
<title>80</title>
<polygon fill="#c0c0c0" stroke="black" points="714.5,-36 660.5,-36 660.5,0 714.5,0 714.5,-36"/>
<text text-anchor="middle" x="687.5" y="-14.3" font-family="Times,serif" font-size="14.00">(...)</text>
</g>
<!-- 52&#45;&gt;80 -->
<g id="edge12" class="edge">
<title>52&#45;&gt;80</title>
<path fill="none" stroke="black" d="M667.19,-71.76C670.54,-63.04 674.01,-54.04 677.11,-45.99"/>
<polygon fill="black" stroke="black" points="680.47,-46.99 680.8,-36.41 673.94,-44.48 680.47,-46.99"/>
</g>
<!-- 108 -->
<g id="node15" class="node">
<title>108</title>
<polygon fill="#c0c0c0" stroke="black" points="949.5,-36 895.5,-36 895.5,0 949.5,0 949.5,-36"/>
<text text-anchor="middle" x="922.5" y="-14.3" font-family="Times,serif" font-size="14.00">(...)</text>
</g>
<!-- 107&#45;&gt;108 -->
<g id="edge14" class="edge">
<title>107&#45;&gt;108</title>
<path fill="none" stroke="black" d="M942.81,-71.76C939.46,-63.04 935.99,-54.04 932.89,-45.99"/>
<polygon fill="black" stroke="black" points="936.06,-44.48 929.2,-36.41 929.53,-46.99 936.06,-44.48"/>
</g>
<!-- 115 -->
<g id="node16" class="node">
<title>115</title>
<polygon fill="#c0c0c0" stroke="black" points="1021.5,-36 967.5,-36 967.5,0 1021.5,0 1021.5,-36"/>
<text text-anchor="middle" x="994.5" y="-14.3" font-family="Times,serif" font-size="14.00">(...)</text>
</g>
<!-- 107&#45;&gt;115 -->
<g id="edge15" class="edge">
<title>107&#45;&gt;115</title>
<path fill="none" stroke="black" d="M974.19,-71.76C977.54,-63.04 981.01,-54.04 984.11,-45.99"/>
<polygon fill="black" stroke="black" points="987.47,-46.99 987.8,-36.41 980.94,-44.48 987.47,-46.99"/>
</g>
<!-- 169 -->
<g id="node18" class="node">
<title>169</title>
<polygon fill="#fadbed" stroke="black" points="1583,-274 1272,-274 1272,-191 1583,-191 1583,-274"/>
<text text-anchor="middle" x="1427.5" y="-258.8" font-family="Times,serif" font-size="14.00">sdComp &lt;= 0.2</text>
<text text-anchor="middle" x="1427.5" y="-243.8" font-family="Times,serif" font-size="14.00">gini = 0.617</text>
<text text-anchor="middle" x="1427.5" y="-228.8" font-family="Times,serif" font-size="14.00">samples = 16335</text>
<text text-anchor="middle" x="1427.5" y="-213.8" font-family="Times,serif" font-size="14.00">value = [1676, 535, 134, 32, 6050, 7908]</text>
<text text-anchor="middle" x="1427.5" y="-198.8" font-family="Times,serif" font-size="14.00">class = GDL</text>
</g>
<!-- 168&#45;&gt;169 -->
<g id="edge17" class="edge">
<title>168&#45;&gt;169</title>
<path fill="none" stroke="black" d="M1427.5,-309.91C1427.5,-301.65 1427.5,-292.86 1427.5,-284.3"/>
<polygon fill="black" stroke="black" points="1431,-284.02 1427.5,-274.02 1424,-284.02 1431,-284.02"/>
</g>
<!-- 496 -->
<g id="node25" class="node">
<title>496</title>
<polygon fill="#fffeff" stroke="black" points="2025,-274 1750,-274 1750,-191 2025,-191 2025,-274"/>
<text text-anchor="middle" x="1887.5" y="-258.8" font-family="Times,serif" font-size="14.00">graphSize &lt;= 22.5</text>
<text text-anchor="middle" x="1887.5" y="-243.8" font-family="Times,serif" font-size="14.00">gini = 0.762</text>
<text text-anchor="middle" x="1887.5" y="-228.8" font-family="Times,serif" font-size="14.00">samples = 2682</text>
<text text-anchor="middle" x="1887.5" y="-213.8" font-family="Times,serif" font-size="14.00">value = [448, 374, 240, 0, 806, 814]</text>
<text text-anchor="middle" x="1887.5" y="-198.8" font-family="Times,serif" font-size="14.00">class = GDL</text>
</g>
<!-- 168&#45;&gt;496 -->
<g id="edge24" class="edge">
<title>168&#45;&gt;496</title>
<path fill="none" stroke="black" d="M1583.24,-310.89C1633.82,-298.02 1689.77,-283.79 1739.75,-271.08"/>
<polygon fill="black" stroke="black" points="1740.83,-274.42 1749.66,-268.56 1739.11,-267.63 1740.83,-274.42"/>
</g>
<!-- 170 -->
<g id="node19" class="node">
<title>170</title>
<polygon fill="#fadcee" stroke="black" points="1429.5,-155 1127.5,-155 1127.5,-72 1429.5,-72 1429.5,-155"/>
<text text-anchor="middle" x="1278.5" y="-139.8" font-family="Times,serif" font-size="14.00">graphSize &lt;= 75.0</text>
<text text-anchor="middle" x="1278.5" y="-124.8" font-family="Times,serif" font-size="14.00">gini = 0.65</text>
<text text-anchor="middle" x="1278.5" y="-109.8" font-family="Times,serif" font-size="14.00">samples = 10033</text>
<text text-anchor="middle" x="1278.5" y="-94.8" font-family="Times,serif" font-size="14.00">value = [1556, 351, 128, 0, 3408, 4590]</text>
<text text-anchor="middle" x="1278.5" y="-79.8" font-family="Times,serif" font-size="14.00">class = GDL</text>
</g>
<!-- 169&#45;&gt;170 -->
<g id="edge18" class="edge">
<title>169&#45;&gt;170</title>
<path fill="none" stroke="black" d="M1375.81,-190.91C1363.67,-181.38 1350.64,-171.15 1338.19,-161.37"/>
<polygon fill="black" stroke="black" points="1340.13,-158.44 1330.1,-155.02 1335.81,-163.95 1340.13,-158.44"/>
</g>
<!-- 331 -->
<g id="node22" class="node">
<title>331</title>
<polygon fill="#fadaed" stroke="black" points="1731.5,-155 1447.5,-155 1447.5,-72 1731.5,-72 1731.5,-155"/>
<text text-anchor="middle" x="1589.5" y="-139.8" font-family="Times,serif" font-size="14.00">CCR &lt;= 5.5</text>
<text text-anchor="middle" x="1589.5" y="-124.8" font-family="Times,serif" font-size="14.00">gini = 0.546</text>
<text text-anchor="middle" x="1589.5" y="-109.8" font-family="Times,serif" font-size="14.00">samples = 6302</text>
<text text-anchor="middle" x="1589.5" y="-94.8" font-family="Times,serif" font-size="14.00">value = [120, 184, 6, 32, 2642, 3318]</text>
<text text-anchor="middle" x="1589.5" y="-79.8" font-family="Times,serif" font-size="14.00">class = GDL</text>
</g>
<!-- 169&#45;&gt;331 -->
<g id="edge21" class="edge">
<title>169&#45;&gt;331</title>
<path fill="none" stroke="black" d="M1483.71,-190.91C1497.02,-181.29 1511.33,-170.95 1524.99,-161.09"/>
<polygon fill="black" stroke="black" points="1527.34,-163.71 1533.39,-155.02 1523.24,-158.04 1527.34,-163.71"/>
</g>
<!-- 171 -->
<g id="node20" class="node">
<title>171</title>
<polygon fill="#c0c0c0" stroke="black" points="1269.5,-36 1215.5,-36 1215.5,0 1269.5,0 1269.5,-36"/>
<text text-anchor="middle" x="1242.5" y="-14.3" font-family="Times,serif" font-size="14.00">(...)</text>
</g>
<!-- 170&#45;&gt;171 -->
<g id="edge19" class="edge">
<title>170&#45;&gt;171</title>
<path fill="none" stroke="black" d="M1262.81,-71.76C1259.46,-63.04 1255.99,-54.04 1252.89,-45.99"/>
<polygon fill="black" stroke="black" points="1256.06,-44.48 1249.2,-36.41 1249.53,-46.99 1256.06,-44.48"/>
</g>
<!-- 304 -->
<g id="node21" class="node">
<title>304</title>
<polygon fill="#c0c0c0" stroke="black" points="1341.5,-36 1287.5,-36 1287.5,0 1341.5,0 1341.5,-36"/>
<text text-anchor="middle" x="1314.5" y="-14.3" font-family="Times,serif" font-size="14.00">(...)</text>
</g>
<!-- 170&#45;&gt;304 -->
<g id="edge20" class="edge">
<title>170&#45;&gt;304</title>
<path fill="none" stroke="black" d="M1294.19,-71.76C1297.54,-63.04 1301.01,-54.04 1304.11,-45.99"/>
<polygon fill="black" stroke="black" points="1307.47,-46.99 1307.8,-36.41 1300.94,-44.48 1307.47,-46.99"/>
</g>
<!-- 332 -->
<g id="node23" class="node">
<title>332</title>
<polygon fill="#c0c0c0" stroke="black" points="1580.5,-36 1526.5,-36 1526.5,0 1580.5,0 1580.5,-36"/>
<text text-anchor="middle" x="1553.5" y="-14.3" font-family="Times,serif" font-size="14.00">(...)</text>
</g>
<!-- 331&#45;&gt;332 -->
<g id="edge22" class="edge">
<title>331&#45;&gt;332</title>
<path fill="none" stroke="black" d="M1573.81,-71.76C1570.46,-63.04 1566.99,-54.04 1563.89,-45.99"/>
<polygon fill="black" stroke="black" points="1567.06,-44.48 1560.2,-36.41 1560.53,-46.99 1567.06,-44.48"/>
</g>
<!-- 457 -->
<g id="node24" class="node">
<title>457</title>
<polygon fill="#c0c0c0" stroke="black" points="1652.5,-36 1598.5,-36 1598.5,0 1652.5,0 1652.5,-36"/>
<text text-anchor="middle" x="1625.5" y="-14.3" font-family="Times,serif" font-size="14.00">(...)</text>
</g>
<!-- 331&#45;&gt;457 -->
<g id="edge23" class="edge">
<title>331&#45;&gt;457</title>
<path fill="none" stroke="black" d="M1605.19,-71.76C1608.54,-63.04 1612.01,-54.04 1615.11,-45.99"/>
<polygon fill="black" stroke="black" points="1618.47,-46.99 1618.8,-36.41 1611.94,-44.48 1618.47,-46.99"/>
</g>
<!-- 497 -->
<g id="node26" class="node">
<title>497</title>
<polygon fill="#fcf0e7" stroke="black" points="2025,-155 1750,-155 1750,-72 2025,-72 2025,-155"/>
<text text-anchor="middle" x="1887.5" y="-139.8" font-family="Times,serif" font-size="14.00">sdComp &lt;= 6.5</text>
<text text-anchor="middle" x="1887.5" y="-124.8" font-family="Times,serif" font-size="14.00">gini = 0.782</text>
<text text-anchor="middle" x="1887.5" y="-109.8" font-family="Times,serif" font-size="14.00">samples = 1130</text>
<text text-anchor="middle" x="1887.5" y="-94.8" font-family="Times,serif" font-size="14.00">value = [348, 242, 216, 0, 156, 168]</text>
<text text-anchor="middle" x="1887.5" y="-79.8" font-family="Times,serif" font-size="14.00">class = eft</text>
</g>
<!-- 496&#45;&gt;497 -->
<g id="edge25" class="edge">
<title>496&#45;&gt;497</title>
<path fill="none" stroke="black" d="M1887.5,-190.91C1887.5,-182.65 1887.5,-173.86 1887.5,-165.3"/>
<polygon fill="black" stroke="black" points="1891,-165.02 1887.5,-155.02 1884,-165.02 1891,-165.02"/>
</g>
<!-- 516 -->
<g id="node29" class="node">
<title>516</title>
<polygon fill="#fefeff" stroke="black" points="2309.5,-155 2043.5,-155 2043.5,-72 2309.5,-72 2309.5,-155"/>
<text text-anchor="middle" x="2176.5" y="-139.8" font-family="Times,serif" font-size="14.00">graphSize &lt;= 75.0</text>
<text text-anchor="middle" x="2176.5" y="-124.8" font-family="Times,serif" font-size="14.00">gini = 0.64</text>
<text text-anchor="middle" x="2176.5" y="-109.8" font-family="Times,serif" font-size="14.00">samples = 1552</text>
<text text-anchor="middle" x="2176.5" y="-94.8" font-family="Times,serif" font-size="14.00">value = [100, 132, 24, 0, 650, 646]</text>
<text text-anchor="middle" x="2176.5" y="-79.8" font-family="Times,serif" font-size="14.00">class = DL</text>
</g>
<!-- 496&#45;&gt;516 -->
<g id="edge28" class="edge">
<title>496&#45;&gt;516</title>
<path fill="none" stroke="black" d="M1987.77,-190.91C2013.32,-180.56 2040.92,-169.39 2066.91,-158.87"/>
<polygon fill="black" stroke="black" points="2068.45,-162.02 2076.41,-155.02 2065.83,-155.53 2068.45,-162.02"/>
</g>
<!-- 498 -->
<g id="node27" class="node">
<title>498</title>
<polygon fill="#c0c0c0" stroke="black" points="1878.5,-36 1824.5,-36 1824.5,0 1878.5,0 1878.5,-36"/>
<text text-anchor="middle" x="1851.5" y="-14.3" font-family="Times,serif" font-size="14.00">(...)</text>
</g>
<!-- 497&#45;&gt;498 -->
<g id="edge26" class="edge">
<title>497&#45;&gt;498</title>
<path fill="none" stroke="black" d="M1871.81,-71.76C1868.46,-63.04 1864.99,-54.04 1861.89,-45.99"/>
<polygon fill="black" stroke="black" points="1865.06,-44.48 1858.2,-36.41 1858.53,-46.99 1865.06,-44.48"/>
</g>
<!-- 507 -->
<g id="node28" class="node">
<title>507</title>
<polygon fill="#c0c0c0" stroke="black" points="1950.5,-36 1896.5,-36 1896.5,0 1950.5,0 1950.5,-36"/>
<text text-anchor="middle" x="1923.5" y="-14.3" font-family="Times,serif" font-size="14.00">(...)</text>
</g>
<!-- 497&#45;&gt;507 -->
<g id="edge27" class="edge">
<title>497&#45;&gt;507</title>
<path fill="none" stroke="black" d="M1903.19,-71.76C1906.54,-63.04 1910.01,-54.04 1913.11,-45.99"/>
<polygon fill="black" stroke="black" points="1916.47,-46.99 1916.8,-36.41 1909.94,-44.48 1916.47,-46.99"/>
</g>
<!-- 517 -->
<g id="node30" class="node">
<title>517</title>
<polygon fill="#c0c0c0" stroke="black" points="2167.5,-36 2113.5,-36 2113.5,0 2167.5,0 2167.5,-36"/>
<text text-anchor="middle" x="2140.5" y="-14.3" font-family="Times,serif" font-size="14.00">(...)</text>
</g>
<!-- 516&#45;&gt;517 -->
<g id="edge29" class="edge">
<title>516&#45;&gt;517</title>
<path fill="none" stroke="black" d="M2160.81,-71.76C2157.46,-63.04 2153.99,-54.04 2150.89,-45.99"/>
<polygon fill="black" stroke="black" points="2154.06,-44.48 2147.2,-36.41 2147.53,-46.99 2154.06,-44.48"/>
</g>
<!-- 546 -->
<g id="node31" class="node">
<title>546</title>
<polygon fill="#c0c0c0" stroke="black" points="2239.5,-36 2185.5,-36 2185.5,0 2239.5,0 2239.5,-36"/>
<text text-anchor="middle" x="2212.5" y="-14.3" font-family="Times,serif" font-size="14.00">(...)</text>
</g>
<!-- 516&#45;&gt;546 -->
<g id="edge30" class="edge">
<title>516&#45;&gt;546</title>
<path fill="none" stroke="black" d="M2192.19,-71.76C2195.54,-63.04 2199.01,-54.04 2202.11,-45.99"/>
<polygon fill="black" stroke="black" points="2205.47,-46.99 2205.8,-36.41 2198.94,-44.48 2205.47,-46.99"/>
</g>
</g>
</svg>
