<?xml version="1.0" encoding="UTF-8" standalone="no"?>
<!DOCTYPE svg PUBLIC "-//W3C//DTD SVG 1.1//EN"
 "http://www.w3.org/Graphics/SVG/1.1/DTD/svg11.dtd">
<!-- Generated by graphviz version 2.43.0 (0)
 -->
<!-- Title: Tree Pages: 1 -->
<svg width="1394pt" height="520pt"
 viewBox="0.00 0.00 1394.00 520.00" xmlns="http://www.w3.org/2000/svg" xmlns:xlink="http://www.w3.org/1999/xlink">
<g id="graph0" class="graph" transform="scale(1 1) rotate(0) translate(4 516)">
<title>Tree</title>
<polygon fill="white" stroke="transparent" points="-4,4 -4,-516 1390,-516 1390,4 -4,4"/>
<!-- 0 -->
<g id="node1" class="node">
<title>0</title>
<polygon fill="#c1e0f7" stroke="black" points="803.5,-512 618.5,-512 618.5,-429 803.5,-429 803.5,-512"/>
<text text-anchor="middle" x="711" y="-496.8" font-family="Times,serif" font-size="14.00">sdComp &lt;= 0.2</text>
<text text-anchor="middle" x="711" y="-481.8" font-family="Times,serif" font-size="14.00">gini = 0.483</text>
<text text-anchor="middle" x="711" y="-466.8" font-family="Times,serif" font-size="14.00">samples = 33577</text>
<text text-anchor="middle" x="711" y="-451.8" font-family="Times,serif" font-size="14.00">value = [13692, 19885]</text>
<text text-anchor="middle" x="711" y="-436.8" font-family="Times,serif" font-size="14.00">class = True</text>
</g>
<!-- 1 -->
<g id="node2" class="node">
<title>1</title>
<polygon fill="#cfe7f9" stroke="black" points="621.5,-393 436.5,-393 436.5,-310 621.5,-310 621.5,-393"/>
<text text-anchor="middle" x="529" y="-377.8" font-family="Times,serif" font-size="14.00">nbproc &lt;= 4.5</text>
<text text-anchor="middle" x="529" y="-362.8" font-family="Times,serif" font-size="14.00">gini = 0.49</text>
<text text-anchor="middle" x="529" y="-347.8" font-family="Times,serif" font-size="14.00">samples = 24593</text>
<text text-anchor="middle" x="529" y="-332.8" font-family="Times,serif" font-size="14.00">value = [10596, 13997]</text>
<text text-anchor="middle" x="529" y="-317.8" font-family="Times,serif" font-size="14.00">class = True</text>
</g>
<!-- 0&#45;&gt;1 -->
<g id="edge1" class="edge">
<title>0&#45;&gt;1</title>
<path fill="none" stroke="black" d="M647.86,-428.91C632.61,-419.11 616.21,-408.56 600.61,-398.53"/>
<polygon fill="black" stroke="black" points="602.34,-395.48 592.03,-393.02 598.55,-401.37 602.34,-395.48"/>
<text text-anchor="middle" x="597.34" y="-413.75" font-family="Times,serif" font-size="14.00">True</text>
</g>
<!-- 318 -->
<g id="node17" class="node">
<title>318</title>
<polygon fill="#a1d1f3" stroke="black" points="982.5,-393 815.5,-393 815.5,-310 982.5,-310 982.5,-393"/>
<text text-anchor="middle" x="899" y="-377.8" font-family="Times,serif" font-size="14.00">graphSize &lt;= 75.0</text>
<text text-anchor="middle" x="899" y="-362.8" font-family="Times,serif" font-size="14.00">gini = 0.452</text>
<text text-anchor="middle" x="899" y="-347.8" font-family="Times,serif" font-size="14.00">samples = 8984</text>
<text text-anchor="middle" x="899" y="-332.8" font-family="Times,serif" font-size="14.00">value = [3096, 5888]</text>
<text text-anchor="middle" x="899" y="-317.8" font-family="Times,serif" font-size="14.00">class = True</text>
</g>
<!-- 0&#45;&gt;318 -->
<g id="edge16" class="edge">
<title>0&#45;&gt;318</title>
<path fill="none" stroke="black" d="M776.23,-428.91C791.97,-419.11 808.92,-408.56 825.03,-398.53"/>
<polygon fill="black" stroke="black" points="827.25,-401.28 833.89,-393.02 823.55,-395.33 827.25,-401.28"/>
<text text-anchor="middle" x="828.22" y="-413.67" font-family="Times,serif" font-size="14.00">False</text>
</g>
<!-- 2 -->
<g id="node3" class="node">
<title>2</title>
<polygon fill="#b2d9f5" stroke="black" points="342.5,-274 175.5,-274 175.5,-191 342.5,-191 342.5,-274"/>
<text text-anchor="middle" x="259" y="-258.8" font-family="Times,serif" font-size="14.00">graphDepth &lt;= 3.5</text>
<text text-anchor="middle" x="259" y="-243.8" font-family="Times,serif" font-size="14.00">gini = 0.471</text>
<text text-anchor="middle" x="259" y="-228.8" font-family="Times,serif" font-size="14.00">samples = 8237</text>
<text text-anchor="middle" x="259" y="-213.8" font-family="Times,serif" font-size="14.00">value = [3126, 5111]</text>
<text text-anchor="middle" x="259" y="-198.8" font-family="Times,serif" font-size="14.00">class = True</text>
</g>
<!-- 1&#45;&gt;2 -->
<g id="edge2" class="edge">
<title>1&#45;&gt;2</title>
<path fill="none" stroke="black" d="M436.46,-310.4C409.28,-298.62 379.55,-285.74 352.33,-273.94"/>
<polygon fill="black" stroke="black" points="353.38,-270.58 342.81,-269.82 350.6,-277.01 353.38,-270.58"/>
</g>
<!-- 161 -->
<g id="node10" class="node">
<title>161</title>
<polygon fill="#dfeffb" stroke="black" points="612.5,-274 445.5,-274 445.5,-191 612.5,-191 612.5,-274"/>
<text text-anchor="middle" x="529" y="-258.8" font-family="Times,serif" font-size="14.00">graphSize &lt;= 22.5</text>
<text text-anchor="middle" x="529" y="-243.8" font-family="Times,serif" font-size="14.00">gini = 0.496</text>
<text text-anchor="middle" x="529" y="-228.8" font-family="Times,serif" font-size="14.00">samples = 16356</text>
<text text-anchor="middle" x="529" y="-213.8" font-family="Times,serif" font-size="14.00">value = [7470, 8886]</text>
<text text-anchor="middle" x="529" y="-198.8" font-family="Times,serif" font-size="14.00">class = True</text>
</g>
<!-- 1&#45;&gt;161 -->
<g id="edge9" class="edge">
<title>1&#45;&gt;161</title>
<path fill="none" stroke="black" d="M529,-309.91C529,-301.65 529,-292.86 529,-284.3"/>
<polygon fill="black" stroke="black" points="532.5,-284.02 529,-274.02 525.5,-284.02 532.5,-284.02"/>
</g>
<!-- 3 -->
<g id="node4" class="node">
<title>3</title>
<polygon fill="#76bbed" stroke="black" points="158,-155 0,-155 0,-72 158,-72 158,-155"/>
<text text-anchor="middle" x="79" y="-139.8" font-family="Times,serif" font-size="14.00">sdComp &lt;= 0.065</text>
<text text-anchor="middle" x="79" y="-124.8" font-family="Times,serif" font-size="14.00">gini = 0.36</text>
<text text-anchor="middle" x="79" y="-109.8" font-family="Times,serif" font-size="14.00">samples = 1367</text>
<text text-anchor="middle" x="79" y="-94.8" font-family="Times,serif" font-size="14.00">value = [322, 1045]</text>
<text text-anchor="middle" x="79" y="-79.8" font-family="Times,serif" font-size="14.00">class = True</text>
</g>
<!-- 2&#45;&gt;3 -->
<g id="edge3" class="edge">
<title>2&#45;&gt;3</title>
<path fill="none" stroke="black" d="M196.55,-190.91C181.47,-181.11 165.25,-170.56 149.82,-160.53"/>
<polygon fill="black" stroke="black" points="151.63,-157.54 141.34,-155.02 147.82,-163.41 151.63,-157.54"/>
</g>
<!-- 12 -->
<g id="node7" class="node">
<title>12</title>
<polygon fill="#c2e1f7" stroke="black" points="342.5,-155 175.5,-155 175.5,-72 342.5,-72 342.5,-155"/>
<text text-anchor="middle" x="259" y="-139.8" font-family="Times,serif" font-size="14.00">graphSize &lt;= 22.5</text>
<text text-anchor="middle" x="259" y="-124.8" font-family="Times,serif" font-size="14.00">gini = 0.483</text>
<text text-anchor="middle" x="259" y="-109.8" font-family="Times,serif" font-size="14.00">samples = 6870</text>
<text text-anchor="middle" x="259" y="-94.8" font-family="Times,serif" font-size="14.00">value = [2804, 4066]</text>
<text text-anchor="middle" x="259" y="-79.8" font-family="Times,serif" font-size="14.00">class = True</text>
</g>
<!-- 2&#45;&gt;12 -->
<g id="edge6" class="edge">
<title>2&#45;&gt;12</title>
<path fill="none" stroke="black" d="M259,-190.91C259,-182.65 259,-173.86 259,-165.3"/>
<polygon fill="black" stroke="black" points="262.5,-165.02 259,-155.02 255.5,-165.02 262.5,-165.02"/>
</g>
<!-- 4 -->
<g id="node5" class="node">
<title>4</title>
<polygon fill="#c0c0c0" stroke="black" points="70,-36 16,-36 16,0 70,0 70,-36"/>
<text text-anchor="middle" x="43" y="-14.3" font-family="Times,serif" font-size="14.00">(...)</text>
</g>
<!-- 3&#45;&gt;4 -->
<g id="edge4" class="edge">
<title>3&#45;&gt;4</title>
<path fill="none" stroke="black" d="M63.31,-71.76C59.96,-63.04 56.49,-54.04 53.39,-45.99"/>
<polygon fill="black" stroke="black" points="56.56,-44.48 49.7,-36.41 50.03,-46.99 56.56,-44.48"/>
</g>
<!-- 5 -->
<g id="node6" class="node">
<title>5</title>
<polygon fill="#c0c0c0" stroke="black" points="142,-36 88,-36 88,0 142,0 142,-36"/>
<text text-anchor="middle" x="115" y="-14.3" font-family="Times,serif" font-size="14.00">(...)</text>
</g>
<!-- 3&#45;&gt;5 -->
<g id="edge5" class="edge">
<title>3&#45;&gt;5</title>
<path fill="none" stroke="black" d="M94.69,-71.76C98.04,-63.04 101.51,-54.04 104.61,-45.99"/>
<polygon fill="black" stroke="black" points="107.97,-46.99 108.3,-36.41 101.44,-44.48 107.97,-46.99"/>
</g>
<!-- 13 -->
<g id="node8" class="node">
<title>13</title>
<polygon fill="#c0c0c0" stroke="black" points="255,-36 201,-36 201,0 255,0 255,-36"/>
<text text-anchor="middle" x="228" y="-14.3" font-family="Times,serif" font-size="14.00">(...)</text>
</g>
<!-- 12&#45;&gt;13 -->
<g id="edge7" class="edge">
<title>12&#45;&gt;13</title>
<path fill="none" stroke="black" d="M245.49,-71.76C242.6,-63.04 239.62,-54.04 236.95,-45.99"/>
<polygon fill="black" stroke="black" points="240.24,-44.8 233.77,-36.41 233.6,-47 240.24,-44.8"/>
</g>
<!-- 36 -->
<g id="node9" class="node">
<title>36</title>
<polygon fill="#c0c0c0" stroke="black" points="327,-36 273,-36 273,0 327,0 327,-36"/>
<text text-anchor="middle" x="300" y="-14.3" font-family="Times,serif" font-size="14.00">(...)</text>
</g>
<!-- 12&#45;&gt;36 -->
<g id="edge8" class="edge">
<title>12&#45;&gt;36</title>
<path fill="none" stroke="black" d="M276.86,-71.76C280.73,-62.94 284.72,-53.84 288.28,-45.72"/>
<polygon fill="black" stroke="black" points="291.56,-46.97 292.37,-36.41 285.15,-44.16 291.56,-46.97"/>
</g>
<!-- 162 -->
<g id="node11" class="node">
<title>162</title>
<polygon fill="#eaf4fc" stroke="black" points="527.5,-155 360.5,-155 360.5,-72 527.5,-72 527.5,-155"/>
<text text-anchor="middle" x="444" y="-139.8" font-family="Times,serif" font-size="14.00">graphDepth &lt;= 3.5</text>
<text text-anchor="middle" x="444" y="-124.8" font-family="Times,serif" font-size="14.00">gini = 0.498</text>
<text text-anchor="middle" x="444" y="-109.8" font-family="Times,serif" font-size="14.00">samples = 13024</text>
<text text-anchor="middle" x="444" y="-94.8" font-family="Times,serif" font-size="14.00">value = [6140, 6884]</text>
<text text-anchor="middle" x="444" y="-79.8" font-family="Times,serif" font-size="14.00">class = True</text>
</g>
<!-- 161&#45;&gt;162 -->
<g id="edge10" class="edge">
<title>161&#45;&gt;162</title>
<path fill="none" stroke="black" d="M499.51,-190.91C493.05,-182.01 486.14,-172.51 479.48,-163.33"/>
<polygon fill="black" stroke="black" points="482.15,-161.05 473.44,-155.02 476.48,-165.17 482.15,-161.05"/>
</g>
<!-- 209 -->
<g id="node14" class="node">
<title>209</title>
<polygon fill="#bddef6" stroke="black" points="712.5,-155 545.5,-155 545.5,-72 712.5,-72 712.5,-155"/>
<text text-anchor="middle" x="629" y="-139.8" font-family="Times,serif" font-size="14.00">sdComm &lt;= 0.065</text>
<text text-anchor="middle" x="629" y="-124.8" font-family="Times,serif" font-size="14.00">gini = 0.48</text>
<text text-anchor="middle" x="629" y="-109.8" font-family="Times,serif" font-size="14.00">samples = 3332</text>
<text text-anchor="middle" x="629" y="-94.8" font-family="Times,serif" font-size="14.00">value = [1330, 2002]</text>
<text text-anchor="middle" x="629" y="-79.8" font-family="Times,serif" font-size="14.00">class = True</text>
</g>
<!-- 161&#45;&gt;209 -->
<g id="edge13" class="edge">
<title>161&#45;&gt;209</title>
<path fill="none" stroke="black" d="M563.69,-190.91C571.45,-181.83 579.75,-172.12 587.74,-162.77"/>
<polygon fill="black" stroke="black" points="590.53,-164.9 594.37,-155.02 585.21,-160.35 590.53,-164.9"/>
</g>
<!-- 163 -->
<g id="node12" class="node">
<title>163</title>
<polygon fill="#c0c0c0" stroke="black" points="419,-36 365,-36 365,0 419,0 419,-36"/>
<text text-anchor="middle" x="392" y="-14.3" font-family="Times,serif" font-size="14.00">(...)</text>
</g>
<!-- 162&#45;&gt;163 -->
<g id="edge11" class="edge">
<title>162&#45;&gt;163</title>
<path fill="none" stroke="black" d="M421.34,-71.76C416.33,-62.75 411.15,-53.44 406.57,-45.19"/>
<polygon fill="black" stroke="black" points="409.6,-43.44 401.68,-36.41 403.48,-46.85 409.6,-43.44"/>
</g>
<!-- 186 -->
<g id="node13" class="node">
<title>186</title>
<polygon fill="#c0c0c0" stroke="black" points="491,-36 437,-36 437,0 491,0 491,-36"/>
<text text-anchor="middle" x="464" y="-14.3" font-family="Times,serif" font-size="14.00">(...)</text>
</g>
<!-- 162&#45;&gt;186 -->
<g id="edge12" class="edge">
<title>162&#45;&gt;186</title>
<path fill="none" stroke="black" d="M452.71,-71.76C454.56,-63.14 456.46,-54.24 458.17,-46.26"/>
<polygon fill="black" stroke="black" points="461.61,-46.92 460.28,-36.41 454.76,-45.45 461.61,-46.92"/>
</g>
<!-- 210 -->
<g id="node15" class="node">
<title>210</title>
<polygon fill="#c0c0c0" stroke="black" points="602,-36 548,-36 548,0 602,0 602,-36"/>
<text text-anchor="middle" x="575" y="-14.3" font-family="Times,serif" font-size="14.00">(...)</text>
</g>
<!-- 209&#45;&gt;210 -->
<g id="edge14" class="edge">
<title>209&#45;&gt;210</title>
<path fill="none" stroke="black" d="M605.47,-71.76C600.27,-62.75 594.89,-53.44 590.13,-45.19"/>
<polygon fill="black" stroke="black" points="593.08,-43.31 585.05,-36.41 587.02,-46.82 593.08,-43.31"/>
</g>
<!-- 261 -->
<g id="node16" class="node">
<title>261</title>
<polygon fill="#c0c0c0" stroke="black" points="674,-36 620,-36 620,0 674,0 674,-36"/>
<text text-anchor="middle" x="647" y="-14.3" font-family="Times,serif" font-size="14.00">(...)</text>
</g>
<!-- 209&#45;&gt;261 -->
<g id="edge15" class="edge">
<title>209&#45;&gt;261</title>
<path fill="none" stroke="black" d="M636.84,-71.76C638.5,-63.14 640.22,-54.24 641.75,-46.26"/>
<polygon fill="black" stroke="black" points="645.2,-46.89 643.65,-36.41 638.32,-45.56 645.2,-46.89"/>
</g>
<!-- 319 -->
<g id="node18" class="node">
<title>319</title>
<polygon fill="#a6d3f3" stroke="black" points="982.5,-274 815.5,-274 815.5,-191 982.5,-191 982.5,-274"/>
<text text-anchor="middle" x="899" y="-258.8" font-family="Times,serif" font-size="14.00">graphDepth &lt;= 3.5</text>
<text text-anchor="middle" x="899" y="-243.8" font-family="Times,serif" font-size="14.00">gini = 0.458</text>
<text text-anchor="middle" x="899" y="-228.8" font-family="Times,serif" font-size="14.00">samples = 8516</text>
<text text-anchor="middle" x="899" y="-213.8" font-family="Times,serif" font-size="14.00">value = [3020, 5496]</text>
<text text-anchor="middle" x="899" y="-198.8" font-family="Times,serif" font-size="14.00">class = True</text>
</g>
<!-- 318&#45;&gt;319 -->
<g id="edge17" class="edge">
<title>318&#45;&gt;319</title>
<path fill="none" stroke="black" d="M899,-309.91C899,-301.65 899,-292.86 899,-284.3"/>
<polygon fill="black" stroke="black" points="902.5,-284.02 899,-274.02 895.5,-284.02 902.5,-284.02"/>
</g>
<!-- 496 -->
<g id="node25" class="node">
<title>496</title>
<polygon fill="#5fb0ea" stroke="black" points="1232,-274 1092,-274 1092,-191 1232,-191 1232,-274"/>
<text text-anchor="middle" x="1162" y="-258.8" font-family="Times,serif" font-size="14.00">sdComp &lt;= 6.5</text>
<text text-anchor="middle" x="1162" y="-243.8" font-family="Times,serif" font-size="14.00">gini = 0.272</text>
<text text-anchor="middle" x="1162" y="-228.8" font-family="Times,serif" font-size="14.00">samples = 468</text>
<text text-anchor="middle" x="1162" y="-213.8" font-family="Times,serif" font-size="14.00">value = [76, 392]</text>
<text text-anchor="middle" x="1162" y="-198.8" font-family="Times,serif" font-size="14.00">class = True</text>
</g>
<!-- 318&#45;&gt;496 -->
<g id="edge24" class="edge">
<title>318&#45;&gt;496</title>
<path fill="none" stroke="black" d="M982.58,-313.32C1014.61,-299.07 1051.04,-282.86 1082.66,-268.79"/>
<polygon fill="black" stroke="black" points="1084.17,-271.96 1091.88,-264.69 1081.32,-265.56 1084.17,-271.96"/>
</g>
<!-- 320 -->
<g id="node19" class="node">
<title>320</title>
<polygon fill="#89c4ef" stroke="black" points="888,-155 730,-155 730,-72 888,-72 888,-155"/>
<text text-anchor="middle" x="809" y="-139.8" font-family="Times,serif" font-size="14.00">nbproc &lt;= 4.5</text>
<text text-anchor="middle" x="809" y="-124.8" font-family="Times,serif" font-size="14.00">gini = 0.409</text>
<text text-anchor="middle" x="809" y="-109.8" font-family="Times,serif" font-size="14.00">samples = 2106</text>
<text text-anchor="middle" x="809" y="-94.8" font-family="Times,serif" font-size="14.00">value = [604, 1502]</text>
<text text-anchor="middle" x="809" y="-79.8" font-family="Times,serif" font-size="14.00">class = True</text>
</g>
<!-- 319&#45;&gt;320 -->
<g id="edge18" class="edge">
<title>319&#45;&gt;320</title>
<path fill="none" stroke="black" d="M867.77,-190.91C860.86,-181.92 853.47,-172.32 846.35,-163.05"/>
<polygon fill="black" stroke="black" points="849.04,-160.81 840.17,-155.02 843.49,-165.08 849.04,-160.81"/>
</g>
<!-- 351 -->
<g id="node22" class="node">
<title>351</title>
<polygon fill="#b1d8f5" stroke="black" points="1072.5,-155 905.5,-155 905.5,-72 1072.5,-72 1072.5,-155"/>
<text text-anchor="middle" x="989" y="-139.8" font-family="Times,serif" font-size="14.00">sdComp &lt;= 6.5</text>
<text text-anchor="middle" x="989" y="-124.8" font-family="Times,serif" font-size="14.00">gini = 0.47</text>
<text text-anchor="middle" x="989" y="-109.8" font-family="Times,serif" font-size="14.00">samples = 6410</text>
<text text-anchor="middle" x="989" y="-94.8" font-family="Times,serif" font-size="14.00">value = [2416, 3994]</text>
<text text-anchor="middle" x="989" y="-79.8" font-family="Times,serif" font-size="14.00">class = True</text>
</g>
<!-- 319&#45;&gt;351 -->
<g id="edge21" class="edge">
<title>319&#45;&gt;351</title>
<path fill="none" stroke="black" d="M930.23,-190.91C937.14,-181.92 944.53,-172.32 951.65,-163.05"/>
<polygon fill="black" stroke="black" points="954.51,-165.08 957.83,-155.02 948.96,-160.81 954.51,-165.08"/>
</g>
<!-- 321 -->
<g id="node20" class="node">
<title>321</title>
<polygon fill="#c0c0c0" stroke="black" points="782,-36 728,-36 728,0 782,0 782,-36"/>
<text text-anchor="middle" x="755" y="-14.3" font-family="Times,serif" font-size="14.00">(...)</text>
</g>
<!-- 320&#45;&gt;321 -->
<g id="edge19" class="edge">
<title>320&#45;&gt;321</title>
<path fill="none" stroke="black" d="M785.47,-71.76C780.27,-62.75 774.89,-53.44 770.13,-45.19"/>
<polygon fill="black" stroke="black" points="773.08,-43.31 765.05,-36.41 767.02,-46.82 773.08,-43.31"/>
</g>
<!-- 332 -->
<g id="node21" class="node">
<title>332</title>
<polygon fill="#c0c0c0" stroke="black" points="854,-36 800,-36 800,0 854,0 854,-36"/>
<text text-anchor="middle" x="827" y="-14.3" font-family="Times,serif" font-size="14.00">(...)</text>
</g>
<!-- 320&#45;&gt;332 -->
<g id="edge20" class="edge">
<title>320&#45;&gt;332</title>
<path fill="none" stroke="black" d="M816.84,-71.76C818.5,-63.14 820.22,-54.24 821.75,-46.26"/>
<polygon fill="black" stroke="black" points="825.2,-46.89 823.65,-36.41 818.32,-45.56 825.2,-46.89"/>
</g>
<!-- 352 -->
<g id="node23" class="node">
<title>352</title>
<polygon fill="#c0c0c0" stroke="black" points="958,-36 904,-36 904,0 958,0 958,-36"/>
<text text-anchor="middle" x="931" y="-14.3" font-family="Times,serif" font-size="14.00">(...)</text>
</g>
<!-- 351&#45;&gt;352 -->
<g id="edge22" class="edge">
<title>351&#45;&gt;352</title>
<path fill="none" stroke="black" d="M963.73,-71.76C958.08,-62.65 952.24,-53.24 947.08,-44.92"/>
<polygon fill="black" stroke="black" points="950.04,-43.06 941.8,-36.41 944.09,-46.75 950.04,-43.06"/>
</g>
<!-- 467 -->
<g id="node24" class="node">
<title>467</title>
<polygon fill="#c0c0c0" stroke="black" points="1030,-36 976,-36 976,0 1030,0 1030,-36"/>
<text text-anchor="middle" x="1003" y="-14.3" font-family="Times,serif" font-size="14.00">(...)</text>
</g>
<!-- 351&#45;&gt;467 -->
<g id="edge23" class="edge">
<title>351&#45;&gt;467</title>
<path fill="none" stroke="black" d="M995.1,-71.76C996.38,-63.24 997.69,-54.44 998.88,-46.53"/>
<polygon fill="black" stroke="black" points="1002.37,-46.81 1000.39,-36.41 995.45,-45.78 1002.37,-46.81"/>
</g>
<!-- 497 -->
<g id="node26" class="node">
<title>497</title>
<polygon fill="#57ace9" stroke="black" points="1233.5,-155 1090.5,-155 1090.5,-72 1233.5,-72 1233.5,-155"/>
<text text-anchor="middle" x="1162" y="-139.8" font-family="Times,serif" font-size="14.00">sdComm &lt;= 0.65</text>
<text text-anchor="middle" x="1162" y="-124.8" font-family="Times,serif" font-size="14.00">gini = 0.227</text>
<text text-anchor="middle" x="1162" y="-109.8" font-family="Times,serif" font-size="14.00">samples = 398</text>
<text text-anchor="middle" x="1162" y="-94.8" font-family="Times,serif" font-size="14.00">value = [52, 346]</text>
<text text-anchor="middle" x="1162" y="-79.8" font-family="Times,serif" font-size="14.00">class = True</text>
</g>
<!-- 496&#45;&gt;497 -->
<g id="edge25" class="edge">
<title>496&#45;&gt;497</title>
<path fill="none" stroke="black" d="M1162,-190.91C1162,-182.65 1162,-173.86 1162,-165.3"/>
<polygon fill="black" stroke="black" points="1165.5,-165.02 1162,-155.02 1158.5,-165.02 1165.5,-165.02"/>
</g>
<!-- 518 -->
<g id="node29" class="node">
<title>518</title>
<polygon fill="#a0d0f3" stroke="black" points="1386,-155 1252,-155 1252,-72 1386,-72 1386,-155"/>
<text text-anchor="middle" x="1319" y="-139.8" font-family="Times,serif" font-size="14.00">sdComm &lt;= 2.0</text>
<text text-anchor="middle" x="1319" y="-124.8" font-family="Times,serif" font-size="14.00">gini = 0.451</text>
<text text-anchor="middle" x="1319" y="-109.8" font-family="Times,serif" font-size="14.00">samples = 70</text>
<text text-anchor="middle" x="1319" y="-94.8" font-family="Times,serif" font-size="14.00">value = [24, 46]</text>
<text text-anchor="middle" x="1319" y="-79.8" font-family="Times,serif" font-size="14.00">class = True</text>
</g>
<!-- 496&#45;&gt;518 -->
<g id="edge28" class="edge">
<title>496&#45;&gt;518</title>
<path fill="none" stroke="black" d="M1216.47,-190.91C1229.38,-181.29 1243.25,-170.95 1256.48,-161.09"/>
<polygon fill="black" stroke="black" points="1258.7,-163.8 1264.63,-155.02 1254.52,-158.19 1258.7,-163.8"/>
</g>
<!-- 498 -->
<g id="node27" class="node">
<title>498</title>
<polygon fill="#c0c0c0" stroke="black" points="1141,-36 1087,-36 1087,0 1141,0 1141,-36"/>
<text text-anchor="middle" x="1114" y="-14.3" font-family="Times,serif" font-size="14.00">(...)</text>
</g>
<!-- 497&#45;&gt;498 -->
<g id="edge26" class="edge">
<title>497&#45;&gt;498</title>
<path fill="none" stroke="black" d="M1141.09,-71.76C1136.51,-62.85 1131.78,-53.64 1127.58,-45.46"/>
<polygon fill="black" stroke="black" points="1130.62,-43.7 1122.94,-36.41 1124.39,-46.9 1130.62,-43.7"/>
</g>
<!-- 505 -->
<g id="node28" class="node">
<title>505</title>
<polygon fill="#c0c0c0" stroke="black" points="1213,-36 1159,-36 1159,0 1213,0 1213,-36"/>
<text text-anchor="middle" x="1186" y="-14.3" font-family="Times,serif" font-size="14.00">(...)</text>
</g>
<!-- 497&#45;&gt;505 -->
<g id="edge27" class="edge">
<title>497&#45;&gt;505</title>
<path fill="none" stroke="black" d="M1172.46,-71.76C1174.67,-63.14 1176.95,-54.24 1179,-46.26"/>
<polygon fill="black" stroke="black" points="1182.44,-46.96 1181.53,-36.41 1175.66,-45.22 1182.44,-46.96"/>
</g>
<!-- 519 -->
<g id="node30" class="node">
<title>519</title>
<polygon fill="#c0c0c0" stroke="black" points="1310,-36 1256,-36 1256,0 1310,0 1310,-36"/>
<text text-anchor="middle" x="1283" y="-14.3" font-family="Times,serif" font-size="14.00">(...)</text>
</g>
<!-- 518&#45;&gt;519 -->
<g id="edge29" class="edge">
<title>518&#45;&gt;519</title>
<path fill="none" stroke="black" d="M1303.31,-71.76C1299.96,-63.04 1296.49,-54.04 1293.39,-45.99"/>
<polygon fill="black" stroke="black" points="1296.56,-44.48 1289.7,-36.41 1290.03,-46.99 1296.56,-44.48"/>
</g>
<!-- 524 -->
<g id="node31" class="node">
<title>524</title>
<polygon fill="#c0c0c0" stroke="black" points="1382,-36 1328,-36 1328,0 1382,0 1382,-36"/>
<text text-anchor="middle" x="1355" y="-14.3" font-family="Times,serif" font-size="14.00">(...)</text>
</g>
<!-- 518&#45;&gt;524 -->
<g id="edge30" class="edge">
<title>518&#45;&gt;524</title>
<path fill="none" stroke="black" d="M1334.69,-71.76C1338.04,-63.04 1341.51,-54.04 1344.61,-45.99"/>
<polygon fill="black" stroke="black" points="1347.97,-46.99 1348.3,-36.41 1341.44,-44.48 1347.97,-46.99"/>
</g>
</g>
</svg>
