<?xml version="1.0" encoding="UTF-8" standalone="no"?>
<!DOCTYPE svg PUBLIC "-//W3C//DTD SVG 1.1//EN"
 "http://www.w3.org/Graphics/SVG/1.1/DTD/svg11.dtd">
<!-- Generated by graphviz version 2.43.0 (0)
 -->
<!-- Title: Tree Pages: 1 -->
<svg width="2596pt" height="520pt"
 viewBox="0.00 0.00 2596.00 520.00" xmlns="http://www.w3.org/2000/svg" xmlns:xlink="http://www.w3.org/1999/xlink">
<g id="graph0" class="graph" transform="scale(1 1) rotate(0) translate(4 516)">
<title>Tree</title>
<polygon fill="white" stroke="transparent" points="-4,4 -4,-516 2592,-516 2592,4 -4,4"/>
<!-- 0 -->
<g id="node1" class="node">
<title>0</title>
<polygon fill="#fefbf9" stroke="black" points="1499,-512 1152,-512 1152,-429 1499,-429 1499,-512"/>
<text text-anchor="middle" x="1325.5" y="-496.8" font-family="Times,serif" font-size="14.00">graphSize &lt;= 22.5</text>
<text text-anchor="middle" x="1325.5" y="-481.8" font-family="Times,serif" font-size="14.00">gini = 0.833</text>
<text text-anchor="middle" x="1325.5" y="-466.8" font-family="Times,serif" font-size="14.00">samples = 33577</text>
<text text-anchor="middle" x="1325.5" y="-451.8" font-family="Times,serif" font-size="14.00">value = [6425, 5332, 5506, 5404, 5404, 5506]</text>
<text text-anchor="middle" x="1325.5" y="-436.8" font-family="Times,serif" font-size="14.00">class = mean</text>
</g>
<!-- 1 -->
<g id="node2" class="node">
<title>1</title>
<polygon fill="#fefcfb" stroke="black" points="1183,-393 836,-393 836,-310 1183,-310 1183,-393"/>
<text text-anchor="middle" x="1009.5" y="-377.8" font-family="Times,serif" font-size="14.00">sdComm &lt;= 0.065</text>
<text text-anchor="middle" x="1009.5" y="-362.8" font-family="Times,serif" font-size="14.00">gini = 0.833</text>
<text text-anchor="middle" x="1009.5" y="-347.8" font-family="Times,serif" font-size="14.00">samples = 25125</text>
<text text-anchor="middle" x="1009.5" y="-332.8" font-family="Times,serif" font-size="14.00">value = [4587, 4030, 4094, 4160, 4160, 4094]</text>
<text text-anchor="middle" x="1009.5" y="-317.8" font-family="Times,serif" font-size="14.00">class = mean</text>
</g>
<!-- 0&#45;&gt;1 -->
<g id="edge1" class="edge">
<title>0&#45;&gt;1</title>
<path fill="none" stroke="black" d="M1215.87,-428.91C1187.68,-418.47 1157.22,-407.19 1128.58,-396.59"/>
<polygon fill="black" stroke="black" points="1129.53,-393.21 1118.94,-393.02 1127.1,-399.78 1129.53,-393.21"/>
<text text-anchor="middle" x="1129.38" y="-412.04" font-family="Times,serif" font-size="14.00">True</text>
</g>
<!-- 176 -->
<g id="node17" class="node">
<title>176</title>
<polygon fill="#fdf7f3" stroke="black" points="1837,-393 1490,-393 1490,-310 1837,-310 1837,-393"/>
<text text-anchor="middle" x="1663.5" y="-377.8" font-family="Times,serif" font-size="14.00">CCR &lt;= 0.55</text>
<text text-anchor="middle" x="1663.5" y="-362.8" font-family="Times,serif" font-size="14.00">gini = 0.83</text>
<text text-anchor="middle" x="1663.5" y="-347.8" font-family="Times,serif" font-size="14.00">samples = 8452</text>
<text text-anchor="middle" x="1663.5" y="-332.8" font-family="Times,serif" font-size="14.00">value = [1838, 1302, 1412, 1244, 1244, 1412]</text>
<text text-anchor="middle" x="1663.5" y="-317.8" font-family="Times,serif" font-size="14.00">class = mean</text>
</g>
<!-- 0&#45;&gt;176 -->
<g id="edge16" class="edge">
<title>0&#45;&gt;176</title>
<path fill="none" stroke="black" d="M1442.77,-428.91C1473.18,-418.38 1506.06,-407 1536.93,-396.31"/>
<polygon fill="black" stroke="black" points="1538.13,-399.6 1546.44,-393.02 1535.85,-392.98 1538.13,-399.6"/>
<text text-anchor="middle" x="1535.52" y="-411.81" font-family="Times,serif" font-size="14.00">False</text>
</g>
<!-- 2 -->
<g id="node3" class="node">
<title>2</title>
<polygon fill="#fffefd" stroke="black" points="685,-274 338,-274 338,-191 685,-191 685,-274"/>
<text text-anchor="middle" x="511.5" y="-258.8" font-family="Times,serif" font-size="14.00">sdComm &lt;= 0.02</text>
<text text-anchor="middle" x="511.5" y="-243.8" font-family="Times,serif" font-size="14.00">gini = 0.833</text>
<text text-anchor="middle" x="511.5" y="-228.8" font-family="Times,serif" font-size="14.00">samples = 11572</text>
<text text-anchor="middle" x="511.5" y="-213.8" font-family="Times,serif" font-size="14.00">value = [2082, 1738, 1900, 1976, 1976, 1900]</text>
<text text-anchor="middle" x="511.5" y="-198.8" font-family="Times,serif" font-size="14.00">class = mean</text>
</g>
<!-- 1&#45;&gt;2 -->
<g id="edge2" class="edge">
<title>1&#45;&gt;2</title>
<path fill="none" stroke="black" d="M837.07,-309.99C790.89,-299.14 740.82,-287.38 694.12,-276.4"/>
<polygon fill="black" stroke="black" points="694.74,-272.95 684.2,-274.07 693.14,-279.77 694.74,-272.95"/>
</g>
<!-- 49 -->
<g id="node10" class="node">
<title>49</title>
<polygon fill="#fffdfb" stroke="black" points="1183,-274 836,-274 836,-191 1183,-191 1183,-274"/>
<text text-anchor="middle" x="1009.5" y="-258.8" font-family="Times,serif" font-size="14.00">sdComp &lt;= 0.2</text>
<text text-anchor="middle" x="1009.5" y="-243.8" font-family="Times,serif" font-size="14.00">gini = 0.833</text>
<text text-anchor="middle" x="1009.5" y="-228.8" font-family="Times,serif" font-size="14.00">samples = 13553</text>
<text text-anchor="middle" x="1009.5" y="-213.8" font-family="Times,serif" font-size="14.00">value = [2505, 2292, 2194, 2184, 2184, 2194]</text>
<text text-anchor="middle" x="1009.5" y="-198.8" font-family="Times,serif" font-size="14.00">class = mean</text>
</g>
<!-- 1&#45;&gt;49 -->
<g id="edge9" class="edge">
<title>1&#45;&gt;49</title>
<path fill="none" stroke="black" d="M1009.5,-309.91C1009.5,-301.65 1009.5,-292.86 1009.5,-284.3"/>
<polygon fill="black" stroke="black" points="1013,-284.02 1009.5,-274.02 1006,-284.02 1013,-284.02"/>
</g>
<!-- 3 -->
<g id="node4" class="node">
<title>3</title>
<polygon fill="#fefcfa" stroke="black" points="347,-155 0,-155 0,-72 347,-72 347,-155"/>
<text text-anchor="middle" x="173.5" y="-139.8" font-family="Times,serif" font-size="14.00">sdComp &lt;= 0.02</text>
<text text-anchor="middle" x="173.5" y="-124.8" font-family="Times,serif" font-size="14.00">gini = 0.833</text>
<text text-anchor="middle" x="173.5" y="-109.8" font-family="Times,serif" font-size="14.00">samples = 6786</text>
<text text-anchor="middle" x="173.5" y="-94.8" font-family="Times,serif" font-size="14.00">value = [1290, 1028, 1098, 1136, 1136, 1098]</text>
<text text-anchor="middle" x="173.5" y="-79.8" font-family="Times,serif" font-size="14.00">class = mean</text>
</g>
<!-- 2&#45;&gt;3 -->
<g id="edge3" class="edge">
<title>2&#45;&gt;3</title>
<path fill="none" stroke="black" d="M394.23,-190.91C363.82,-180.38 330.94,-169 300.07,-158.31"/>
<polygon fill="black" stroke="black" points="301.15,-154.98 290.56,-155.02 298.87,-161.6 301.15,-154.98"/>
</g>
<!-- 26 -->
<g id="node7" class="node">
<title>26</title>
<polygon fill="#ffffff" stroke="black" points="658,-155 365,-155 365,-72 658,-72 658,-155"/>
<text text-anchor="middle" x="511.5" y="-139.8" font-family="Times,serif" font-size="14.00">nbproc &lt;= 4.5</text>
<text text-anchor="middle" x="511.5" y="-124.8" font-family="Times,serif" font-size="14.00">gini = 0.833</text>
<text text-anchor="middle" x="511.5" y="-109.8" font-family="Times,serif" font-size="14.00">samples = 4786</text>
<text text-anchor="middle" x="511.5" y="-94.8" font-family="Times,serif" font-size="14.00">value = [792, 710, 802, 840, 840, 802]</text>
<text text-anchor="middle" x="511.5" y="-79.8" font-family="Times,serif" font-size="14.00">class = minmax</text>
</g>
<!-- 2&#45;&gt;26 -->
<g id="edge6" class="edge">
<title>2&#45;&gt;26</title>
<path fill="none" stroke="black" d="M511.5,-190.91C511.5,-182.65 511.5,-173.86 511.5,-165.3"/>
<polygon fill="black" stroke="black" points="515,-165.02 511.5,-155.02 508,-165.02 515,-165.02"/>
</g>
<!-- 4 -->
<g id="node5" class="node">
<title>4</title>
<polygon fill="#c0c0c0" stroke="black" points="164.5,-36 110.5,-36 110.5,0 164.5,0 164.5,-36"/>
<text text-anchor="middle" x="137.5" y="-14.3" font-family="Times,serif" font-size="14.00">(...)</text>
</g>
<!-- 3&#45;&gt;4 -->
<g id="edge4" class="edge">
<title>3&#45;&gt;4</title>
<path fill="none" stroke="black" d="M157.81,-71.76C154.46,-63.04 150.99,-54.04 147.89,-45.99"/>
<polygon fill="black" stroke="black" points="151.06,-44.48 144.2,-36.41 144.53,-46.99 151.06,-44.48"/>
</g>
<!-- 11 -->
<g id="node6" class="node">
<title>11</title>
<polygon fill="#c0c0c0" stroke="black" points="236.5,-36 182.5,-36 182.5,0 236.5,0 236.5,-36"/>
<text text-anchor="middle" x="209.5" y="-14.3" font-family="Times,serif" font-size="14.00">(...)</text>
</g>
<!-- 3&#45;&gt;11 -->
<g id="edge5" class="edge">
<title>3&#45;&gt;11</title>
<path fill="none" stroke="black" d="M189.19,-71.76C192.54,-63.04 196.01,-54.04 199.11,-45.99"/>
<polygon fill="black" stroke="black" points="202.47,-46.99 202.8,-36.41 195.94,-44.48 202.47,-46.99"/>
</g>
<!-- 27 -->
<g id="node8" class="node">
<title>27</title>
<polygon fill="#c0c0c0" stroke="black" points="502.5,-36 448.5,-36 448.5,0 502.5,0 502.5,-36"/>
<text text-anchor="middle" x="475.5" y="-14.3" font-family="Times,serif" font-size="14.00">(...)</text>
</g>
<!-- 26&#45;&gt;27 -->
<g id="edge7" class="edge">
<title>26&#45;&gt;27</title>
<path fill="none" stroke="black" d="M495.81,-71.76C492.46,-63.04 488.99,-54.04 485.89,-45.99"/>
<polygon fill="black" stroke="black" points="489.06,-44.48 482.2,-36.41 482.53,-46.99 489.06,-44.48"/>
</g>
<!-- 38 -->
<g id="node9" class="node">
<title>38</title>
<polygon fill="#c0c0c0" stroke="black" points="574.5,-36 520.5,-36 520.5,0 574.5,0 574.5,-36"/>
<text text-anchor="middle" x="547.5" y="-14.3" font-family="Times,serif" font-size="14.00">(...)</text>
</g>
<!-- 26&#45;&gt;38 -->
<g id="edge8" class="edge">
<title>26&#45;&gt;38</title>
<path fill="none" stroke="black" d="M527.19,-71.76C530.54,-63.04 534.01,-54.04 537.11,-45.99"/>
<polygon fill="black" stroke="black" points="540.47,-46.99 540.8,-36.41 533.94,-44.48 540.47,-46.99"/>
</g>
<!-- 50 -->
<g id="node11" class="node">
<title>50</title>
<polygon fill="#fffdfc" stroke="black" points="1023,-155 676,-155 676,-72 1023,-72 1023,-155"/>
<text text-anchor="middle" x="849.5" y="-139.8" font-family="Times,serif" font-size="14.00">CCR &lt;= 0.55</text>
<text text-anchor="middle" x="849.5" y="-124.8" font-family="Times,serif" font-size="14.00">gini = 0.833</text>
<text text-anchor="middle" x="849.5" y="-109.8" font-family="Times,serif" font-size="14.00">samples = 7671</text>
<text text-anchor="middle" x="849.5" y="-94.8" font-family="Times,serif" font-size="14.00">value = [1429, 1342, 1202, 1248, 1248, 1202]</text>
<text text-anchor="middle" x="849.5" y="-79.8" font-family="Times,serif" font-size="14.00">class = mean</text>
</g>
<!-- 49&#45;&gt;50 -->
<g id="edge10" class="edge">
<title>49&#45;&gt;50</title>
<path fill="none" stroke="black" d="M953.99,-190.91C940.83,-181.29 926.7,-170.95 913.21,-161.09"/>
<polygon fill="black" stroke="black" points="915.05,-158.1 904.91,-155.02 910.92,-163.75 915.05,-158.1"/>
</g>
<!-- 97 -->
<g id="node14" class="node">
<title>97</title>
<polygon fill="#fffdfc" stroke="black" points="1343.5,-155 1041.5,-155 1041.5,-72 1343.5,-72 1343.5,-155"/>
<text text-anchor="middle" x="1192.5" y="-139.8" font-family="Times,serif" font-size="14.00">sdComm &lt;= 0.2</text>
<text text-anchor="middle" x="1192.5" y="-124.8" font-family="Times,serif" font-size="14.00">gini = 0.833</text>
<text text-anchor="middle" x="1192.5" y="-109.8" font-family="Times,serif" font-size="14.00">samples = 5882</text>
<text text-anchor="middle" x="1192.5" y="-94.8" font-family="Times,serif" font-size="14.00">value = [1076, 950, 992, 936, 936, 992]</text>
<text text-anchor="middle" x="1192.5" y="-79.8" font-family="Times,serif" font-size="14.00">class = mean</text>
</g>
<!-- 49&#45;&gt;97 -->
<g id="edge13" class="edge">
<title>49&#45;&gt;97</title>
<path fill="none" stroke="black" d="M1072.99,-190.91C1088.32,-181.11 1104.81,-170.56 1120.5,-160.53"/>
<polygon fill="black" stroke="black" points="1122.58,-163.36 1129.12,-155.02 1118.81,-157.46 1122.58,-163.36"/>
</g>
<!-- 51 -->
<g id="node12" class="node">
<title>51</title>
<polygon fill="#c0c0c0" stroke="black" points="840.5,-36 786.5,-36 786.5,0 840.5,0 840.5,-36"/>
<text text-anchor="middle" x="813.5" y="-14.3" font-family="Times,serif" font-size="14.00">(...)</text>
</g>
<!-- 50&#45;&gt;51 -->
<g id="edge11" class="edge">
<title>50&#45;&gt;51</title>
<path fill="none" stroke="black" d="M833.81,-71.76C830.46,-63.04 826.99,-54.04 823.89,-45.99"/>
<polygon fill="black" stroke="black" points="827.06,-44.48 820.2,-36.41 820.53,-46.99 827.06,-44.48"/>
</g>
<!-- 74 -->
<g id="node13" class="node">
<title>74</title>
<polygon fill="#c0c0c0" stroke="black" points="912.5,-36 858.5,-36 858.5,0 912.5,0 912.5,-36"/>
<text text-anchor="middle" x="885.5" y="-14.3" font-family="Times,serif" font-size="14.00">(...)</text>
</g>
<!-- 50&#45;&gt;74 -->
<g id="edge12" class="edge">
<title>50&#45;&gt;74</title>
<path fill="none" stroke="black" d="M865.19,-71.76C868.54,-63.04 872.01,-54.04 875.11,-45.99"/>
<polygon fill="black" stroke="black" points="878.47,-46.99 878.8,-36.41 871.94,-44.48 878.47,-46.99"/>
</g>
<!-- 98 -->
<g id="node15" class="node">
<title>98</title>
<polygon fill="#c0c0c0" stroke="black" points="1183.5,-36 1129.5,-36 1129.5,0 1183.5,0 1183.5,-36"/>
<text text-anchor="middle" x="1156.5" y="-14.3" font-family="Times,serif" font-size="14.00">(...)</text>
</g>
<!-- 97&#45;&gt;98 -->
<g id="edge14" class="edge">
<title>97&#45;&gt;98</title>
<path fill="none" stroke="black" d="M1176.81,-71.76C1173.46,-63.04 1169.99,-54.04 1166.89,-45.99"/>
<polygon fill="black" stroke="black" points="1170.06,-44.48 1163.2,-36.41 1163.53,-46.99 1170.06,-44.48"/>
</g>
<!-- 113 -->
<g id="node16" class="node">
<title>113</title>
<polygon fill="#c0c0c0" stroke="black" points="1255.5,-36 1201.5,-36 1201.5,0 1255.5,0 1255.5,-36"/>
<text text-anchor="middle" x="1228.5" y="-14.3" font-family="Times,serif" font-size="14.00">(...)</text>
</g>
<!-- 97&#45;&gt;113 -->
<g id="edge15" class="edge">
<title>97&#45;&gt;113</title>
<path fill="none" stroke="black" d="M1208.19,-71.76C1211.54,-63.04 1215.01,-54.04 1218.11,-45.99"/>
<polygon fill="black" stroke="black" points="1221.47,-46.99 1221.8,-36.41 1214.94,-44.48 1221.47,-46.99"/>
</g>
<!-- 177 -->
<g id="node18" class="node">
<title>177</title>
<polygon fill="#fdf4ee" stroke="black" points="1810,-274 1517,-274 1517,-191 1810,-191 1810,-274"/>
<text text-anchor="middle" x="1663.5" y="-258.8" font-family="Times,serif" font-size="14.00">graphDepth &lt;= 9.0</text>
<text text-anchor="middle" x="1663.5" y="-243.8" font-family="Times,serif" font-size="14.00">gini = 0.823</text>
<text text-anchor="middle" x="1663.5" y="-228.8" font-family="Times,serif" font-size="14.00">samples = 3708</text>
<text text-anchor="middle" x="1663.5" y="-213.8" font-family="Times,serif" font-size="14.00">value = [912, 564, 656, 460, 460, 656]</text>
<text text-anchor="middle" x="1663.5" y="-198.8" font-family="Times,serif" font-size="14.00">class = mean</text>
</g>
<!-- 176&#45;&gt;177 -->
<g id="edge17" class="edge">
<title>176&#45;&gt;177</title>
<path fill="none" stroke="black" d="M1663.5,-309.91C1663.5,-301.65 1663.5,-292.86 1663.5,-284.3"/>
<polygon fill="black" stroke="black" points="1667,-284.02 1663.5,-274.02 1660,-284.02 1667,-284.02"/>
</g>
<!-- 356 -->
<g id="node25" class="node">
<title>356</title>
<polygon fill="#fefaf8" stroke="black" points="2277,-274 1984,-274 1984,-191 2277,-191 2277,-274"/>
<text text-anchor="middle" x="2130.5" y="-258.8" font-family="Times,serif" font-size="14.00">sdComp &lt;= 0.65</text>
<text text-anchor="middle" x="2130.5" y="-243.8" font-family="Times,serif" font-size="14.00">gini = 0.832</text>
<text text-anchor="middle" x="2130.5" y="-228.8" font-family="Times,serif" font-size="14.00">samples = 4744</text>
<text text-anchor="middle" x="2130.5" y="-213.8" font-family="Times,serif" font-size="14.00">value = [926, 738, 756, 784, 784, 756]</text>
<text text-anchor="middle" x="2130.5" y="-198.8" font-family="Times,serif" font-size="14.00">class = mean</text>
</g>
<!-- 176&#45;&gt;356 -->
<g id="edge24" class="edge">
<title>176&#45;&gt;356</title>
<path fill="none" stroke="black" d="M1825.2,-309.99C1873.4,-297.91 1926.12,-284.7 1973.99,-272.71"/>
<polygon fill="black" stroke="black" points="1974.96,-276.08 1983.81,-270.25 1973.25,-269.29 1974.96,-276.08"/>
</g>
<!-- 178 -->
<g id="node19" class="node">
<title>178</title>
<polygon fill="#fdf7f3" stroke="black" points="1655,-155 1362,-155 1362,-72 1655,-72 1655,-155"/>
<text text-anchor="middle" x="1508.5" y="-139.8" font-family="Times,serif" font-size="14.00">sdComm &lt;= 0.02</text>
<text text-anchor="middle" x="1508.5" y="-124.8" font-family="Times,serif" font-size="14.00">gini = 0.814</text>
<text text-anchor="middle" x="1508.5" y="-109.8" font-family="Times,serif" font-size="14.00">samples = 1596</text>
<text text-anchor="middle" x="1508.5" y="-94.8" font-family="Times,serif" font-size="14.00">value = [402, 222, 326, 160, 160, 326]</text>
<text text-anchor="middle" x="1508.5" y="-79.8" font-family="Times,serif" font-size="14.00">class = mean</text>
</g>
<!-- 177&#45;&gt;178 -->
<g id="edge18" class="edge">
<title>177&#45;&gt;178</title>
<path fill="none" stroke="black" d="M1609.72,-190.91C1596.98,-181.29 1583.29,-170.95 1570.22,-161.09"/>
<polygon fill="black" stroke="black" points="1572.27,-158.25 1562.18,-155.02 1568.05,-163.84 1572.27,-158.25"/>
</g>
<!-- 243 -->
<g id="node22" class="node">
<title>243</title>
<polygon fill="#fdf3ec" stroke="black" points="1966,-155 1673,-155 1673,-72 1966,-72 1966,-155"/>
<text text-anchor="middle" x="1819.5" y="-139.8" font-family="Times,serif" font-size="14.00">sdComp &lt;= 0.02</text>
<text text-anchor="middle" x="1819.5" y="-124.8" font-family="Times,serif" font-size="14.00">gini = 0.826</text>
<text text-anchor="middle" x="1819.5" y="-109.8" font-family="Times,serif" font-size="14.00">samples = 2112</text>
<text text-anchor="middle" x="1819.5" y="-94.8" font-family="Times,serif" font-size="14.00">value = [510, 342, 330, 300, 300, 330]</text>
<text text-anchor="middle" x="1819.5" y="-79.8" font-family="Times,serif" font-size="14.00">class = mean</text>
</g>
<!-- 177&#45;&gt;243 -->
<g id="edge21" class="edge">
<title>177&#45;&gt;243</title>
<path fill="none" stroke="black" d="M1717.62,-190.91C1730.45,-181.29 1744.23,-170.95 1757.38,-161.09"/>
<polygon fill="black" stroke="black" points="1759.57,-163.82 1765.47,-155.02 1755.37,-158.22 1759.57,-163.82"/>
</g>
<!-- 179 -->
<g id="node20" class="node">
<title>179</title>
<polygon fill="#c0c0c0" stroke="black" points="1499.5,-36 1445.5,-36 1445.5,0 1499.5,0 1499.5,-36"/>
<text text-anchor="middle" x="1472.5" y="-14.3" font-family="Times,serif" font-size="14.00">(...)</text>
</g>
<!-- 178&#45;&gt;179 -->
<g id="edge19" class="edge">
<title>178&#45;&gt;179</title>
<path fill="none" stroke="black" d="M1492.81,-71.76C1489.46,-63.04 1485.99,-54.04 1482.89,-45.99"/>
<polygon fill="black" stroke="black" points="1486.06,-44.48 1479.2,-36.41 1479.53,-46.99 1486.06,-44.48"/>
</g>
<!-- 200 -->
<g id="node21" class="node">
<title>200</title>
<polygon fill="#c0c0c0" stroke="black" points="1571.5,-36 1517.5,-36 1517.5,0 1571.5,0 1571.5,-36"/>
<text text-anchor="middle" x="1544.5" y="-14.3" font-family="Times,serif" font-size="14.00">(...)</text>
</g>
<!-- 178&#45;&gt;200 -->
<g id="edge20" class="edge">
<title>178&#45;&gt;200</title>
<path fill="none" stroke="black" d="M1524.19,-71.76C1527.54,-63.04 1531.01,-54.04 1534.11,-45.99"/>
<polygon fill="black" stroke="black" points="1537.47,-46.99 1537.8,-36.41 1530.94,-44.48 1537.47,-46.99"/>
</g>
<!-- 244 -->
<g id="node23" class="node">
<title>244</title>
<polygon fill="#c0c0c0" stroke="black" points="1810.5,-36 1756.5,-36 1756.5,0 1810.5,0 1810.5,-36"/>
<text text-anchor="middle" x="1783.5" y="-14.3" font-family="Times,serif" font-size="14.00">(...)</text>
</g>
<!-- 243&#45;&gt;244 -->
<g id="edge22" class="edge">
<title>243&#45;&gt;244</title>
<path fill="none" stroke="black" d="M1803.81,-71.76C1800.46,-63.04 1796.99,-54.04 1793.89,-45.99"/>
<polygon fill="black" stroke="black" points="1797.06,-44.48 1790.2,-36.41 1790.53,-46.99 1797.06,-44.48"/>
</g>
<!-- 277 -->
<g id="node24" class="node">
<title>277</title>
<polygon fill="#c0c0c0" stroke="black" points="1882.5,-36 1828.5,-36 1828.5,0 1882.5,0 1882.5,-36"/>
<text text-anchor="middle" x="1855.5" y="-14.3" font-family="Times,serif" font-size="14.00">(...)</text>
</g>
<!-- 243&#45;&gt;277 -->
<g id="edge23" class="edge">
<title>243&#45;&gt;277</title>
<path fill="none" stroke="black" d="M1835.19,-71.76C1838.54,-63.04 1842.01,-54.04 1845.11,-45.99"/>
<polygon fill="black" stroke="black" points="1848.47,-46.99 1848.8,-36.41 1841.94,-44.48 1848.47,-46.99"/>
</g>
<!-- 357 -->
<g id="node26" class="node">
<title>357</title>
<polygon fill="#ffffff" stroke="black" points="2277,-155 1984,-155 1984,-72 2277,-72 2277,-155"/>
<text text-anchor="middle" x="2130.5" y="-139.8" font-family="Times,serif" font-size="14.00">graphDepth &lt;= 6.5</text>
<text text-anchor="middle" x="2130.5" y="-124.8" font-family="Times,serif" font-size="14.00">gini = 0.832</text>
<text text-anchor="middle" x="2130.5" y="-109.8" font-family="Times,serif" font-size="14.00">samples = 2260</text>
<text text-anchor="middle" x="2130.5" y="-94.8" font-family="Times,serif" font-size="14.00">value = [370, 378, 340, 416, 416, 340]</text>
<text text-anchor="middle" x="2130.5" y="-79.8" font-family="Times,serif" font-size="14.00">class = minmax</text>
</g>
<!-- 356&#45;&gt;357 -->
<g id="edge25" class="edge">
<title>356&#45;&gt;357</title>
<path fill="none" stroke="black" d="M2130.5,-190.91C2130.5,-182.65 2130.5,-173.86 2130.5,-165.3"/>
<polygon fill="black" stroke="black" points="2134,-165.02 2130.5,-155.02 2127,-165.02 2134,-165.02"/>
</g>
<!-- 478 -->
<g id="node29" class="node">
<title>478</title>
<polygon fill="#fdf6f2" stroke="black" points="2588,-155 2295,-155 2295,-72 2588,-72 2588,-155"/>
<text text-anchor="middle" x="2441.5" y="-139.8" font-family="Times,serif" font-size="14.00">graphDepth &lt;= 9.0</text>
<text text-anchor="middle" x="2441.5" y="-124.8" font-family="Times,serif" font-size="14.00">gini = 0.829</text>
<text text-anchor="middle" x="2441.5" y="-109.8" font-family="Times,serif" font-size="14.00">samples = 2484</text>
<text text-anchor="middle" x="2441.5" y="-94.8" font-family="Times,serif" font-size="14.00">value = [556, 360, 416, 368, 368, 416]</text>
<text text-anchor="middle" x="2441.5" y="-79.8" font-family="Times,serif" font-size="14.00">class = mean</text>
</g>
<!-- 356&#45;&gt;478 -->
<g id="edge28" class="edge">
<title>356&#45;&gt;478</title>
<path fill="none" stroke="black" d="M2238.4,-190.91C2266.14,-180.47 2296.12,-169.19 2324.31,-158.59"/>
<polygon fill="black" stroke="black" points="2325.66,-161.82 2333.79,-155.02 2323.2,-155.27 2325.66,-161.82"/>
</g>
<!-- 358 -->
<g id="node27" class="node">
<title>358</title>
<polygon fill="#c0c0c0" stroke="black" points="2121.5,-36 2067.5,-36 2067.5,0 2121.5,0 2121.5,-36"/>
<text text-anchor="middle" x="2094.5" y="-14.3" font-family="Times,serif" font-size="14.00">(...)</text>
</g>
<!-- 357&#45;&gt;358 -->
<g id="edge26" class="edge">
<title>357&#45;&gt;358</title>
<path fill="none" stroke="black" d="M2114.81,-71.76C2111.46,-63.04 2107.99,-54.04 2104.89,-45.99"/>
<polygon fill="black" stroke="black" points="2108.06,-44.48 2101.2,-36.41 2101.53,-46.99 2108.06,-44.48"/>
</g>
<!-- 381 -->
<g id="node28" class="node">
<title>381</title>
<polygon fill="#c0c0c0" stroke="black" points="2193.5,-36 2139.5,-36 2139.5,0 2193.5,0 2193.5,-36"/>
<text text-anchor="middle" x="2166.5" y="-14.3" font-family="Times,serif" font-size="14.00">(...)</text>
</g>
<!-- 357&#45;&gt;381 -->
<g id="edge27" class="edge">
<title>357&#45;&gt;381</title>
<path fill="none" stroke="black" d="M2146.19,-71.76C2149.54,-63.04 2153.01,-54.04 2156.11,-45.99"/>
<polygon fill="black" stroke="black" points="2159.47,-46.99 2159.8,-36.41 2152.94,-44.48 2159.47,-46.99"/>
</g>
<!-- 479 -->
<g id="node30" class="node">
<title>479</title>
<polygon fill="#c0c0c0" stroke="black" points="2432.5,-36 2378.5,-36 2378.5,0 2432.5,0 2432.5,-36"/>
<text text-anchor="middle" x="2405.5" y="-14.3" font-family="Times,serif" font-size="14.00">(...)</text>
</g>
<!-- 478&#45;&gt;479 -->
<g id="edge29" class="edge">
<title>478&#45;&gt;479</title>
<path fill="none" stroke="black" d="M2425.81,-71.76C2422.46,-63.04 2418.99,-54.04 2415.89,-45.99"/>
<polygon fill="black" stroke="black" points="2419.06,-44.48 2412.2,-36.41 2412.53,-46.99 2419.06,-44.48"/>
</g>
<!-- 494 -->
<g id="node31" class="node">
<title>494</title>
<polygon fill="#c0c0c0" stroke="black" points="2504.5,-36 2450.5,-36 2450.5,0 2504.5,0 2504.5,-36"/>
<text text-anchor="middle" x="2477.5" y="-14.3" font-family="Times,serif" font-size="14.00">(...)</text>
</g>
<!-- 478&#45;&gt;494 -->
<g id="edge30" class="edge">
<title>478&#45;&gt;494</title>
<path fill="none" stroke="black" d="M2457.19,-71.76C2460.54,-63.04 2464.01,-54.04 2467.11,-45.99"/>
<polygon fill="black" stroke="black" points="2470.47,-46.99 2470.8,-36.41 2463.94,-44.48 2470.47,-46.99"/>
</g>
</g>
</svg>
