<?xml version="1.0" encoding="UTF-8" standalone="no"?>
<!DOCTYPE svg PUBLIC "-//W3C//DTD SVG 1.1//EN"
 "http://www.w3.org/Graphics/SVG/1.1/DTD/svg11.dtd">
<!-- Generated by graphviz version 2.43.0 (0)
 -->
<!-- Title: Tree Pages: 1 -->
<svg width="1396pt" height="520pt"
 viewBox="0.00 0.00 1396.00 520.00" xmlns="http://www.w3.org/2000/svg" xmlns:xlink="http://www.w3.org/1999/xlink">
<g id="graph0" class="graph" transform="scale(1 1) rotate(0) translate(4 516)">
<title>Tree</title>
<polygon fill="white" stroke="transparent" points="-4,4 -4,-516 1392,-516 1392,4 -4,4"/>
<!-- 0 -->
<g id="node1" class="node">
<title>0</title>
<polygon fill="#ffffff" stroke="black" points="763,-512 578,-512 578,-429 763,-429 763,-512"/>
<text text-anchor="middle" x="670.5" y="-496.8" font-family="Times,serif" font-size="14.00">graphDepth &lt;= 3.5</text>
<text text-anchor="middle" x="670.5" y="-481.8" font-family="Times,serif" font-size="14.00">gini = 0.5</text>
<text text-anchor="middle" x="670.5" y="-466.8" font-family="Times,serif" font-size="14.00">samples = 33577</text>
<text text-anchor="middle" x="670.5" y="-451.8" font-family="Times,serif" font-size="14.00">value = [16785, 16792]</text>
<text text-anchor="middle" x="670.5" y="-436.8" font-family="Times,serif" font-size="14.00">class = True</text>
</g>
<!-- 1 -->
<g id="node2" class="node">
<title>1</title>
<polygon fill="#ffffff" stroke="black" points="578,-393 411,-393 411,-310 578,-310 578,-393"/>
<text text-anchor="middle" x="494.5" y="-377.8" font-family="Times,serif" font-size="14.00">nbproc &lt;= 4.5</text>
<text text-anchor="middle" x="494.5" y="-362.8" font-family="Times,serif" font-size="14.00">gini = 0.5</text>
<text text-anchor="middle" x="494.5" y="-347.8" font-family="Times,serif" font-size="14.00">samples = 6479</text>
<text text-anchor="middle" x="494.5" y="-332.8" font-family="Times,serif" font-size="14.00">value = [3237, 3242]</text>
<text text-anchor="middle" x="494.5" y="-317.8" font-family="Times,serif" font-size="14.00">class = True</text>
</g>
<!-- 0&#45;&gt;1 -->
<g id="edge1" class="edge">
<title>0&#45;&gt;1</title>
<path fill="none" stroke="black" d="M609.44,-428.91C594.83,-419.2 579.13,-408.76 564.16,-398.81"/>
<polygon fill="black" stroke="black" points="565.72,-395.64 555.45,-393.02 561.84,-401.47 565.72,-395.64"/>
<text text-anchor="middle" x="560.39" y="-413.83" font-family="Times,serif" font-size="14.00">True</text>
</g>
<!-- 88 -->
<g id="node17" class="node">
<title>88</title>
<polygon fill="#ffffff" stroke="black" points="943,-393 758,-393 758,-310 943,-310 943,-393"/>
<text text-anchor="middle" x="850.5" y="-377.8" font-family="Times,serif" font-size="14.00">sdComp &lt;= 0.2</text>
<text text-anchor="middle" x="850.5" y="-362.8" font-family="Times,serif" font-size="14.00">gini = 0.5</text>
<text text-anchor="middle" x="850.5" y="-347.8" font-family="Times,serif" font-size="14.00">samples = 27098</text>
<text text-anchor="middle" x="850.5" y="-332.8" font-family="Times,serif" font-size="14.00">value = [13548, 13550]</text>
<text text-anchor="middle" x="850.5" y="-317.8" font-family="Times,serif" font-size="14.00">class = True</text>
</g>
<!-- 0&#45;&gt;88 -->
<g id="edge16" class="edge">
<title>0&#45;&gt;88</title>
<path fill="none" stroke="black" d="M732.95,-428.91C748.03,-419.11 764.25,-408.56 779.68,-398.53"/>
<polygon fill="black" stroke="black" points="781.68,-401.41 788.16,-393.02 777.87,-395.54 781.68,-401.41"/>
<text text-anchor="middle" x="782.97" y="-413.78" font-family="Times,serif" font-size="14.00">False</text>
</g>
<!-- 2 -->
<g id="node3" class="node">
<title>2</title>
<polygon fill="#feffff" stroke="black" points="312,-274 163,-274 163,-191 312,-191 312,-274"/>
<text text-anchor="middle" x="237.5" y="-258.8" font-family="Times,serif" font-size="14.00">sdComp &lt;= 0.065</text>
<text text-anchor="middle" x="237.5" y="-243.8" font-family="Times,serif" font-size="14.00">gini = 0.5</text>
<text text-anchor="middle" x="237.5" y="-228.8" font-family="Times,serif" font-size="14.00">samples = 1957</text>
<text text-anchor="middle" x="237.5" y="-213.8" font-family="Times,serif" font-size="14.00">value = [976, 981]</text>
<text text-anchor="middle" x="237.5" y="-198.8" font-family="Times,serif" font-size="14.00">class = True</text>
</g>
<!-- 1&#45;&gt;2 -->
<g id="edge2" class="edge">
<title>1&#45;&gt;2</title>
<path fill="none" stroke="black" d="M410.7,-312.35C382.02,-299.29 349.95,-284.69 321.27,-271.63"/>
<polygon fill="black" stroke="black" points="322.63,-268.41 312.08,-267.45 319.73,-274.78 322.63,-268.41"/>
</g>
<!-- 45 -->
<g id="node10" class="node">
<title>45</title>
<polygon fill="#ffffff" stroke="black" points="578,-274 411,-274 411,-191 578,-191 578,-274"/>
<text text-anchor="middle" x="494.5" y="-258.8" font-family="Times,serif" font-size="14.00">CCR &lt;= 0.55</text>
<text text-anchor="middle" x="494.5" y="-243.8" font-family="Times,serif" font-size="14.00">gini = 0.5</text>
<text text-anchor="middle" x="494.5" y="-228.8" font-family="Times,serif" font-size="14.00">samples = 4522</text>
<text text-anchor="middle" x="494.5" y="-213.8" font-family="Times,serif" font-size="14.00">value = [2261, 2261]</text>
<text text-anchor="middle" x="494.5" y="-198.8" font-family="Times,serif" font-size="14.00">class = False</text>
</g>
<!-- 1&#45;&gt;45 -->
<g id="edge9" class="edge">
<title>1&#45;&gt;45</title>
<path fill="none" stroke="black" d="M494.5,-309.91C494.5,-301.65 494.5,-292.86 494.5,-284.3"/>
<polygon fill="black" stroke="black" points="498,-284.02 494.5,-274.02 491,-284.02 498,-284.02"/>
</g>
<!-- 3 -->
<g id="node4" class="node">
<title>3</title>
<polygon fill="#fbfdfe" stroke="black" points="143,-155 0,-155 0,-72 143,-72 143,-155"/>
<text text-anchor="middle" x="71.5" y="-139.8" font-family="Times,serif" font-size="14.00">sdComm &lt;= 0.02</text>
<text text-anchor="middle" x="71.5" y="-124.8" font-family="Times,serif" font-size="14.00">gini = 0.5</text>
<text text-anchor="middle" x="71.5" y="-109.8" font-family="Times,serif" font-size="14.00">samples = 196</text>
<text text-anchor="middle" x="71.5" y="-94.8" font-family="Times,serif" font-size="14.00">value = [97, 99]</text>
<text text-anchor="middle" x="71.5" y="-79.8" font-family="Times,serif" font-size="14.00">class = True</text>
</g>
<!-- 2&#45;&gt;3 -->
<g id="edge3" class="edge">
<title>2&#45;&gt;3</title>
<path fill="none" stroke="black" d="M179.91,-190.91C166.13,-181.2 151.32,-170.76 137.21,-160.81"/>
<polygon fill="black" stroke="black" points="139.18,-157.92 128.99,-155.02 135.15,-163.64 139.18,-157.92"/>
</g>
<!-- 14 -->
<g id="node7" class="node">
<title>14</title>
<polygon fill="#feffff" stroke="black" points="313.5,-155 161.5,-155 161.5,-72 313.5,-72 313.5,-155"/>
<text text-anchor="middle" x="237.5" y="-139.8" font-family="Times,serif" font-size="14.00">sdComm &lt;= 0.065</text>
<text text-anchor="middle" x="237.5" y="-124.8" font-family="Times,serif" font-size="14.00">gini = 0.5</text>
<text text-anchor="middle" x="237.5" y="-109.8" font-family="Times,serif" font-size="14.00">samples = 1761</text>
<text text-anchor="middle" x="237.5" y="-94.8" font-family="Times,serif" font-size="14.00">value = [879, 882]</text>
<text text-anchor="middle" x="237.5" y="-79.8" font-family="Times,serif" font-size="14.00">class = True</text>
</g>
<!-- 2&#45;&gt;14 -->
<g id="edge6" class="edge">
<title>2&#45;&gt;14</title>
<path fill="none" stroke="black" d="M237.5,-190.91C237.5,-182.65 237.5,-173.86 237.5,-165.3"/>
<polygon fill="black" stroke="black" points="241,-165.02 237.5,-155.02 234,-165.02 241,-165.02"/>
</g>
<!-- 4 -->
<g id="node5" class="node">
<title>4</title>
<polygon fill="#c0c0c0" stroke="black" points="62.5,-36 8.5,-36 8.5,0 62.5,0 62.5,-36"/>
<text text-anchor="middle" x="35.5" y="-14.3" font-family="Times,serif" font-size="14.00">(...)</text>
</g>
<!-- 3&#45;&gt;4 -->
<g id="edge4" class="edge">
<title>3&#45;&gt;4</title>
<path fill="none" stroke="black" d="M55.81,-71.76C52.46,-63.04 48.99,-54.04 45.89,-45.99"/>
<polygon fill="black" stroke="black" points="49.06,-44.48 42.2,-36.41 42.53,-46.99 49.06,-44.48"/>
</g>
<!-- 7 -->
<g id="node6" class="node">
<title>7</title>
<polygon fill="#c0c0c0" stroke="black" points="134.5,-36 80.5,-36 80.5,0 134.5,0 134.5,-36"/>
<text text-anchor="middle" x="107.5" y="-14.3" font-family="Times,serif" font-size="14.00">(...)</text>
</g>
<!-- 3&#45;&gt;7 -->
<g id="edge5" class="edge">
<title>3&#45;&gt;7</title>
<path fill="none" stroke="black" d="M87.19,-71.76C90.54,-63.04 94.01,-54.04 97.11,-45.99"/>
<polygon fill="black" stroke="black" points="100.47,-46.99 100.8,-36.41 93.94,-44.48 100.47,-46.99"/>
</g>
<!-- 15 -->
<g id="node8" class="node">
<title>15</title>
<polygon fill="#c0c0c0" stroke="black" points="235.5,-36 181.5,-36 181.5,0 235.5,0 235.5,-36"/>
<text text-anchor="middle" x="208.5" y="-14.3" font-family="Times,serif" font-size="14.00">(...)</text>
</g>
<!-- 14&#45;&gt;15 -->
<g id="edge7" class="edge">
<title>14&#45;&gt;15</title>
<path fill="none" stroke="black" d="M224.86,-71.76C222.16,-63.04 219.37,-54.04 216.87,-45.99"/>
<polygon fill="black" stroke="black" points="220.2,-44.92 213.9,-36.41 213.52,-46.99 220.2,-44.92"/>
</g>
<!-- 18 -->
<g id="node9" class="node">
<title>18</title>
<polygon fill="#c0c0c0" stroke="black" points="307.5,-36 253.5,-36 253.5,0 307.5,0 307.5,-36"/>
<text text-anchor="middle" x="280.5" y="-14.3" font-family="Times,serif" font-size="14.00">(...)</text>
</g>
<!-- 14&#45;&gt;18 -->
<g id="edge8" class="edge">
<title>14&#45;&gt;18</title>
<path fill="none" stroke="black" d="M256.24,-71.76C260.29,-62.94 264.48,-53.84 268.21,-45.72"/>
<polygon fill="black" stroke="black" points="271.5,-46.95 272.5,-36.41 265.14,-44.03 271.5,-46.95"/>
</g>
<!-- 46 -->
<g id="node11" class="node">
<title>46</title>
<polygon fill="#ffffff" stroke="black" points="499,-155 332,-155 332,-72 499,-72 499,-155"/>
<text text-anchor="middle" x="415.5" y="-139.8" font-family="Times,serif" font-size="14.00">sdComm &lt;= 0.02</text>
<text text-anchor="middle" x="415.5" y="-124.8" font-family="Times,serif" font-size="14.00">gini = 0.5</text>
<text text-anchor="middle" x="415.5" y="-109.8" font-family="Times,serif" font-size="14.00">samples = 2726</text>
<text text-anchor="middle" x="415.5" y="-94.8" font-family="Times,serif" font-size="14.00">value = [1363, 1363]</text>
<text text-anchor="middle" x="415.5" y="-79.8" font-family="Times,serif" font-size="14.00">class = False</text>
</g>
<!-- 45&#45;&gt;46 -->
<g id="edge10" class="edge">
<title>45&#45;&gt;46</title>
<path fill="none" stroke="black" d="M467.09,-190.91C461.09,-182.01 454.67,-172.51 448.47,-163.33"/>
<polygon fill="black" stroke="black" points="451.36,-161.35 442.86,-155.02 445.56,-165.27 451.36,-161.35"/>
</g>
<!-- 63 -->
<g id="node14" class="node">
<title>63</title>
<polygon fill="#ffffff" stroke="black" points="666,-155 517,-155 517,-72 666,-72 666,-155"/>
<text text-anchor="middle" x="591.5" y="-139.8" font-family="Times,serif" font-size="14.00">sdComp &lt;= 0.2</text>
<text text-anchor="middle" x="591.5" y="-124.8" font-family="Times,serif" font-size="14.00">gini = 0.5</text>
<text text-anchor="middle" x="591.5" y="-109.8" font-family="Times,serif" font-size="14.00">samples = 1796</text>
<text text-anchor="middle" x="591.5" y="-94.8" font-family="Times,serif" font-size="14.00">value = [898, 898]</text>
<text text-anchor="middle" x="591.5" y="-79.8" font-family="Times,serif" font-size="14.00">class = False</text>
</g>
<!-- 45&#45;&gt;63 -->
<g id="edge13" class="edge">
<title>45&#45;&gt;63</title>
<path fill="none" stroke="black" d="M528.15,-190.91C535.68,-181.83 543.73,-172.12 551.48,-162.77"/>
<polygon fill="black" stroke="black" points="554.22,-164.95 557.91,-155.02 548.83,-160.49 554.22,-164.95"/>
</g>
<!-- 47 -->
<g id="node12" class="node">
<title>47</title>
<polygon fill="#c0c0c0" stroke="black" points="405.5,-36 351.5,-36 351.5,0 405.5,0 405.5,-36"/>
<text text-anchor="middle" x="378.5" y="-14.3" font-family="Times,serif" font-size="14.00">(...)</text>
</g>
<!-- 46&#45;&gt;47 -->
<g id="edge11" class="edge">
<title>46&#45;&gt;47</title>
<path fill="none" stroke="black" d="M399.38,-71.76C395.89,-62.94 392.29,-53.84 389.08,-45.72"/>
<polygon fill="black" stroke="black" points="392.32,-44.42 385.39,-36.41 385.81,-46.99 392.32,-44.42"/>
</g>
<!-- 52 -->
<g id="node13" class="node">
<title>52</title>
<polygon fill="#c0c0c0" stroke="black" points="477.5,-36 423.5,-36 423.5,0 477.5,0 477.5,-36"/>
<text text-anchor="middle" x="450.5" y="-14.3" font-family="Times,serif" font-size="14.00">(...)</text>
</g>
<!-- 46&#45;&gt;52 -->
<g id="edge12" class="edge">
<title>46&#45;&gt;52</title>
<path fill="none" stroke="black" d="M430.75,-71.76C434.01,-63.04 437.38,-54.04 440.4,-45.99"/>
<polygon fill="black" stroke="black" points="443.76,-47 443.98,-36.41 437.2,-44.54 443.76,-47"/>
</g>
<!-- 64 -->
<g id="node15" class="node">
<title>64</title>
<polygon fill="#c0c0c0" stroke="black" points="562.5,-36 508.5,-36 508.5,0 562.5,0 562.5,-36"/>
<text text-anchor="middle" x="535.5" y="-14.3" font-family="Times,serif" font-size="14.00">(...)</text>
</g>
<!-- 63&#45;&gt;64 -->
<g id="edge14" class="edge">
<title>63&#45;&gt;64</title>
<path fill="none" stroke="black" d="M567.1,-71.76C561.7,-62.75 556.13,-53.44 551.19,-45.19"/>
<polygon fill="black" stroke="black" points="554.07,-43.19 545.92,-36.41 548.06,-46.78 554.07,-43.19"/>
</g>
<!-- 69 -->
<g id="node16" class="node">
<title>69</title>
<polygon fill="#c0c0c0" stroke="black" points="634.5,-36 580.5,-36 580.5,0 634.5,0 634.5,-36"/>
<text text-anchor="middle" x="607.5" y="-14.3" font-family="Times,serif" font-size="14.00">(...)</text>
</g>
<!-- 63&#45;&gt;69 -->
<g id="edge15" class="edge">
<title>63&#45;&gt;69</title>
<path fill="none" stroke="black" d="M598.47,-71.76C599.93,-63.24 601.44,-54.44 602.79,-46.53"/>
<polygon fill="black" stroke="black" points="606.28,-46.85 604.52,-36.41 599.38,-45.67 606.28,-46.85"/>
</g>
<!-- 89 -->
<g id="node18" class="node">
<title>89</title>
<polygon fill="#ffffff" stroke="black" points="943,-274 758,-274 758,-191 943,-191 943,-274"/>
<text text-anchor="middle" x="850.5" y="-258.8" font-family="Times,serif" font-size="14.00">sdComm &lt;= 0.02</text>
<text text-anchor="middle" x="850.5" y="-243.8" font-family="Times,serif" font-size="14.00">gini = 0.5</text>
<text text-anchor="middle" x="850.5" y="-228.8" font-family="Times,serif" font-size="14.00">samples = 20220</text>
<text text-anchor="middle" x="850.5" y="-213.8" font-family="Times,serif" font-size="14.00">value = [10110, 10110]</text>
<text text-anchor="middle" x="850.5" y="-198.8" font-family="Times,serif" font-size="14.00">class = False</text>
</g>
<!-- 88&#45;&gt;89 -->
<g id="edge17" class="edge">
<title>88&#45;&gt;89</title>
<path fill="none" stroke="black" d="M850.5,-309.91C850.5,-301.65 850.5,-292.86 850.5,-284.3"/>
<polygon fill="black" stroke="black" points="854,-284.02 850.5,-274.02 847,-284.02 854,-284.02"/>
</g>
<!-- 386 -->
<g id="node25" class="node">
<title>386</title>
<polygon fill="#ffffff" stroke="black" points="1212,-274 1045,-274 1045,-191 1212,-191 1212,-274"/>
<text text-anchor="middle" x="1128.5" y="-258.8" font-family="Times,serif" font-size="14.00">sdComm &lt;= 0.65</text>
<text text-anchor="middle" x="1128.5" y="-243.8" font-family="Times,serif" font-size="14.00">gini = 0.5</text>
<text text-anchor="middle" x="1128.5" y="-228.8" font-family="Times,serif" font-size="14.00">samples = 6878</text>
<text text-anchor="middle" x="1128.5" y="-213.8" font-family="Times,serif" font-size="14.00">value = [3438, 3440]</text>
<text text-anchor="middle" x="1128.5" y="-198.8" font-family="Times,serif" font-size="14.00">class = True</text>
</g>
<!-- 88&#45;&gt;386 -->
<g id="edge24" class="edge">
<title>88&#45;&gt;386</title>
<path fill="none" stroke="black" d="M943.07,-311.54C972.72,-299.06 1005.54,-285.25 1035.24,-272.75"/>
<polygon fill="black" stroke="black" points="1036.9,-275.85 1044.76,-268.74 1034.19,-269.4 1036.9,-275.85"/>
</g>
<!-- 90 -->
<g id="node19" class="node">
<title>90</title>
<polygon fill="#ffffff" stroke="black" points="851,-155 684,-155 684,-72 851,-72 851,-155"/>
<text text-anchor="middle" x="767.5" y="-139.8" font-family="Times,serif" font-size="14.00">nbproc &lt;= 4.5</text>
<text text-anchor="middle" x="767.5" y="-124.8" font-family="Times,serif" font-size="14.00">gini = 0.5</text>
<text text-anchor="middle" x="767.5" y="-109.8" font-family="Times,serif" font-size="14.00">samples = 6768</text>
<text text-anchor="middle" x="767.5" y="-94.8" font-family="Times,serif" font-size="14.00">value = [3384, 3384]</text>
<text text-anchor="middle" x="767.5" y="-79.8" font-family="Times,serif" font-size="14.00">class = False</text>
</g>
<!-- 89&#45;&gt;90 -->
<g id="edge18" class="edge">
<title>89&#45;&gt;90</title>
<path fill="none" stroke="black" d="M821.7,-190.91C815.39,-182.01 808.65,-172.51 802.14,-163.33"/>
<polygon fill="black" stroke="black" points="804.89,-161.15 796.25,-155.02 799.18,-165.2 804.89,-161.15"/>
</g>
<!-- 163 -->
<g id="node22" class="node">
<title>163</title>
<polygon fill="#ffffff" stroke="black" points="1036,-155 869,-155 869,-72 1036,-72 1036,-155"/>
<text text-anchor="middle" x="952.5" y="-139.8" font-family="Times,serif" font-size="14.00">sdComp &lt;= 0.02</text>
<text text-anchor="middle" x="952.5" y="-124.8" font-family="Times,serif" font-size="14.00">gini = 0.5</text>
<text text-anchor="middle" x="952.5" y="-109.8" font-family="Times,serif" font-size="14.00">samples = 13452</text>
<text text-anchor="middle" x="952.5" y="-94.8" font-family="Times,serif" font-size="14.00">value = [6726, 6726]</text>
<text text-anchor="middle" x="952.5" y="-79.8" font-family="Times,serif" font-size="14.00">class = False</text>
</g>
<!-- 89&#45;&gt;163 -->
<g id="edge21" class="edge">
<title>89&#45;&gt;163</title>
<path fill="none" stroke="black" d="M885.89,-190.91C893.8,-181.83 902.27,-172.12 910.42,-162.77"/>
<polygon fill="black" stroke="black" points="913.24,-164.86 917.17,-155.02 907.96,-160.26 913.24,-164.86"/>
</g>
<!-- 91 -->
<g id="node20" class="node">
<title>91</title>
<polygon fill="#c0c0c0" stroke="black" points="742.5,-36 688.5,-36 688.5,0 742.5,0 742.5,-36"/>
<text text-anchor="middle" x="715.5" y="-14.3" font-family="Times,serif" font-size="14.00">(...)</text>
</g>
<!-- 90&#45;&gt;91 -->
<g id="edge19" class="edge">
<title>90&#45;&gt;91</title>
<path fill="none" stroke="black" d="M744.84,-71.76C739.83,-62.75 734.65,-53.44 730.07,-45.19"/>
<polygon fill="black" stroke="black" points="733.1,-43.44 725.18,-36.41 726.98,-46.85 733.1,-43.44"/>
</g>
<!-- 132 -->
<g id="node21" class="node">
<title>132</title>
<polygon fill="#c0c0c0" stroke="black" points="814.5,-36 760.5,-36 760.5,0 814.5,0 814.5,-36"/>
<text text-anchor="middle" x="787.5" y="-14.3" font-family="Times,serif" font-size="14.00">(...)</text>
</g>
<!-- 90&#45;&gt;132 -->
<g id="edge20" class="edge">
<title>90&#45;&gt;132</title>
<path fill="none" stroke="black" d="M776.21,-71.76C778.06,-63.14 779.96,-54.24 781.67,-46.26"/>
<polygon fill="black" stroke="black" points="785.11,-46.92 783.78,-36.41 778.26,-45.45 785.11,-46.92"/>
</g>
<!-- 164 -->
<g id="node23" class="node">
<title>164</title>
<polygon fill="#c0c0c0" stroke="black" points="923.5,-36 869.5,-36 869.5,0 923.5,0 923.5,-36"/>
<text text-anchor="middle" x="896.5" y="-14.3" font-family="Times,serif" font-size="14.00">(...)</text>
</g>
<!-- 163&#45;&gt;164 -->
<g id="edge22" class="edge">
<title>163&#45;&gt;164</title>
<path fill="none" stroke="black" d="M928.1,-71.76C922.7,-62.75 917.13,-53.44 912.19,-45.19"/>
<polygon fill="black" stroke="black" points="915.07,-43.19 906.92,-36.41 909.06,-46.78 915.07,-43.19"/>
</g>
<!-- 211 -->
<g id="node24" class="node">
<title>211</title>
<polygon fill="#c0c0c0" stroke="black" points="995.5,-36 941.5,-36 941.5,0 995.5,0 995.5,-36"/>
<text text-anchor="middle" x="968.5" y="-14.3" font-family="Times,serif" font-size="14.00">(...)</text>
</g>
<!-- 163&#45;&gt;211 -->
<g id="edge23" class="edge">
<title>163&#45;&gt;211</title>
<path fill="none" stroke="black" d="M959.47,-71.76C960.93,-63.24 962.44,-54.44 963.79,-46.53"/>
<polygon fill="black" stroke="black" points="967.28,-46.85 965.52,-36.41 960.38,-45.67 967.28,-46.85"/>
</g>
<!-- 387 -->
<g id="node26" class="node">
<title>387</title>
<polygon fill="#ffffff" stroke="black" points="1203,-155 1054,-155 1054,-72 1203,-72 1203,-155"/>
<text text-anchor="middle" x="1128.5" y="-139.8" font-family="Times,serif" font-size="14.00">nbproc &lt;= 4.5</text>
<text text-anchor="middle" x="1128.5" y="-124.8" font-family="Times,serif" font-size="14.00">gini = 0.5</text>
<text text-anchor="middle" x="1128.5" y="-109.8" font-family="Times,serif" font-size="14.00">samples = 1590</text>
<text text-anchor="middle" x="1128.5" y="-94.8" font-family="Times,serif" font-size="14.00">value = [794, 796]</text>
<text text-anchor="middle" x="1128.5" y="-79.8" font-family="Times,serif" font-size="14.00">class = True</text>
</g>
<!-- 386&#45;&gt;387 -->
<g id="edge25" class="edge">
<title>386&#45;&gt;387</title>
<path fill="none" stroke="black" d="M1128.5,-190.91C1128.5,-182.65 1128.5,-173.86 1128.5,-165.3"/>
<polygon fill="black" stroke="black" points="1132,-165.02 1128.5,-155.02 1125,-165.02 1132,-165.02"/>
</g>
<!-- 446 -->
<g id="node29" class="node">
<title>446</title>
<polygon fill="#ffffff" stroke="black" points="1388,-155 1221,-155 1221,-72 1388,-72 1388,-155"/>
<text text-anchor="middle" x="1304.5" y="-139.8" font-family="Times,serif" font-size="14.00">graphSize &lt;= 22.5</text>
<text text-anchor="middle" x="1304.5" y="-124.8" font-family="Times,serif" font-size="14.00">gini = 0.5</text>
<text text-anchor="middle" x="1304.5" y="-109.8" font-family="Times,serif" font-size="14.00">samples = 5288</text>
<text text-anchor="middle" x="1304.5" y="-94.8" font-family="Times,serif" font-size="14.00">value = [2644, 2644]</text>
<text text-anchor="middle" x="1304.5" y="-79.8" font-family="Times,serif" font-size="14.00">class = False</text>
</g>
<!-- 386&#45;&gt;446 -->
<g id="edge28" class="edge">
<title>386&#45;&gt;446</title>
<path fill="none" stroke="black" d="M1189.56,-190.91C1204.17,-181.2 1219.87,-170.76 1234.84,-160.81"/>
<polygon fill="black" stroke="black" points="1237.16,-163.47 1243.55,-155.02 1233.28,-157.64 1237.16,-163.47"/>
</g>
<!-- 388 -->
<g id="node27" class="node">
<title>388</title>
<polygon fill="#c0c0c0" stroke="black" points="1117.5,-36 1063.5,-36 1063.5,0 1117.5,0 1117.5,-36"/>
<text text-anchor="middle" x="1090.5" y="-14.3" font-family="Times,serif" font-size="14.00">(...)</text>
</g>
<!-- 387&#45;&gt;388 -->
<g id="edge26" class="edge">
<title>387&#45;&gt;388</title>
<path fill="none" stroke="black" d="M1111.94,-71.76C1108.36,-62.94 1104.66,-53.84 1101.36,-45.72"/>
<polygon fill="black" stroke="black" points="1104.58,-44.35 1097.57,-36.41 1098.1,-46.99 1104.58,-44.35"/>
</g>
<!-- 427 -->
<g id="node28" class="node">
<title>427</title>
<polygon fill="#c0c0c0" stroke="black" points="1189.5,-36 1135.5,-36 1135.5,0 1189.5,0 1189.5,-36"/>
<text text-anchor="middle" x="1162.5" y="-14.3" font-family="Times,serif" font-size="14.00">(...)</text>
</g>
<!-- 387&#45;&gt;427 -->
<g id="edge27" class="edge">
<title>387&#45;&gt;427</title>
<path fill="none" stroke="black" d="M1143.31,-71.76C1146.48,-63.04 1149.76,-54.04 1152.68,-45.99"/>
<polygon fill="black" stroke="black" points="1156.04,-47 1156.17,-36.41 1149.46,-44.61 1156.04,-47"/>
</g>
<!-- 447 -->
<g id="node30" class="node">
<title>447</title>
<polygon fill="#c0c0c0" stroke="black" points="1295.5,-36 1241.5,-36 1241.5,0 1295.5,0 1295.5,-36"/>
<text text-anchor="middle" x="1268.5" y="-14.3" font-family="Times,serif" font-size="14.00">(...)</text>
</g>
<!-- 446&#45;&gt;447 -->
<g id="edge29" class="edge">
<title>446&#45;&gt;447</title>
<path fill="none" stroke="black" d="M1288.81,-71.76C1285.46,-63.04 1281.99,-54.04 1278.89,-45.99"/>
<polygon fill="black" stroke="black" points="1282.06,-44.48 1275.2,-36.41 1275.53,-46.99 1282.06,-44.48"/>
</g>
<!-- 470 -->
<g id="node31" class="node">
<title>470</title>
<polygon fill="#c0c0c0" stroke="black" points="1367.5,-36 1313.5,-36 1313.5,0 1367.5,0 1367.5,-36"/>
<text text-anchor="middle" x="1340.5" y="-14.3" font-family="Times,serif" font-size="14.00">(...)</text>
</g>
<!-- 446&#45;&gt;470 -->
<g id="edge30" class="edge">
<title>446&#45;&gt;470</title>
<path fill="none" stroke="black" d="M1320.19,-71.76C1323.54,-63.04 1327.01,-54.04 1330.11,-45.99"/>
<polygon fill="black" stroke="black" points="1333.47,-46.99 1333.8,-36.41 1326.94,-44.48 1333.47,-46.99"/>
</g>
</g>
</svg>
