<?xml version="1.0" encoding="UTF-8" standalone="no"?>
<!DOCTYPE svg PUBLIC "-//W3C//DTD SVG 1.1//EN"
 "http://www.w3.org/Graphics/SVG/1.1/DTD/svg11.dtd">
<!-- Generated by graphviz version 2.43.0 (0)
 -->
<!-- Title: Tree Pages: 1 -->
<svg width="1375pt" height="520pt"
 viewBox="0.00 0.00 1375.00 520.00" xmlns="http://www.w3.org/2000/svg" xmlns:xlink="http://www.w3.org/1999/xlink">
<g id="graph0" class="graph" transform="scale(1 1) rotate(0) translate(4 516)">
<title>Tree</title>
<polygon fill="white" stroke="transparent" points="-4,4 -4,-516 1371,-516 1371,4 -4,4"/>
<!-- 0 -->
<g id="node1" class="node">
<title>0</title>
<polygon fill="#eff7fd" stroke="black" points="806,-512 621,-512 621,-429 806,-429 806,-512"/>
<text text-anchor="middle" x="713.5" y="-496.8" font-family="Times,serif" font-size="14.00">graphSize &lt;= 75.0</text>
<text text-anchor="middle" x="713.5" y="-481.8" font-family="Times,serif" font-size="14.00">gini = 0.499</text>
<text text-anchor="middle" x="713.5" y="-466.8" font-family="Times,serif" font-size="14.00">samples = 33577</text>
<text text-anchor="middle" x="713.5" y="-451.8" font-family="Times,serif" font-size="14.00">value = [16078, 17499]</text>
<text text-anchor="middle" x="713.5" y="-436.8" font-family="Times,serif" font-size="14.00">class = True</text>
</g>
<!-- 1 -->
<g id="node2" class="node">
<title>1</title>
<polygon fill="#f4f9fe" stroke="black" points="632,-393 447,-393 447,-310 632,-310 632,-393"/>
<text text-anchor="middle" x="539.5" y="-377.8" font-family="Times,serif" font-size="14.00">CCR &lt;= 0.55</text>
<text text-anchor="middle" x="539.5" y="-362.8" font-family="Times,serif" font-size="14.00">gini = 0.5</text>
<text text-anchor="middle" x="539.5" y="-347.8" font-family="Times,serif" font-size="14.00">samples = 32479</text>
<text text-anchor="middle" x="539.5" y="-332.8" font-family="Times,serif" font-size="14.00">value = [15764, 16715]</text>
<text text-anchor="middle" x="539.5" y="-317.8" font-family="Times,serif" font-size="14.00">class = True</text>
</g>
<!-- 0&#45;&gt;1 -->
<g id="edge1" class="edge">
<title>0&#45;&gt;1</title>
<path fill="none" stroke="black" d="M653.13,-428.91C638.69,-419.2 623.17,-408.76 608.37,-398.81"/>
<polygon fill="black" stroke="black" points="610.01,-395.7 599.76,-393.02 606.11,-401.51 610.01,-395.7"/>
<text text-anchor="middle" x="604.57" y="-413.85" font-family="Times,serif" font-size="14.00">True</text>
</g>
<!-- 452 -->
<g id="node17" class="node">
<title>452</title>
<polygon fill="#88c4ef" stroke="black" points="971,-393 804,-393 804,-310 971,-310 971,-393"/>
<text text-anchor="middle" x="887.5" y="-377.8" font-family="Times,serif" font-size="14.00">graphDepth &lt;= 25.5</text>
<text text-anchor="middle" x="887.5" y="-362.8" font-family="Times,serif" font-size="14.00">gini = 0.408</text>
<text text-anchor="middle" x="887.5" y="-347.8" font-family="Times,serif" font-size="14.00">samples = 1098</text>
<text text-anchor="middle" x="887.5" y="-332.8" font-family="Times,serif" font-size="14.00">value = [314, 784]</text>
<text text-anchor="middle" x="887.5" y="-317.8" font-family="Times,serif" font-size="14.00">class = True</text>
</g>
<!-- 0&#45;&gt;452 -->
<g id="edge16" class="edge">
<title>0&#45;&gt;452</title>
<path fill="none" stroke="black" d="M773.87,-428.91C788.31,-419.2 803.83,-408.76 818.63,-398.81"/>
<polygon fill="black" stroke="black" points="820.89,-401.51 827.24,-393.02 816.99,-395.7 820.89,-401.51"/>
<text text-anchor="middle" x="822.43" y="-413.85" font-family="Times,serif" font-size="14.00">False</text>
</g>
<!-- 2 -->
<g id="node3" class="node">
<title>2</title>
<polygon fill="#feffff" stroke="black" points="361,-274 176,-274 176,-191 361,-191 361,-274"/>
<text text-anchor="middle" x="268.5" y="-258.8" font-family="Times,serif" font-size="14.00">graphDepth &lt;= 3.5</text>
<text text-anchor="middle" x="268.5" y="-243.8" font-family="Times,serif" font-size="14.00">gini = 0.5</text>
<text text-anchor="middle" x="268.5" y="-228.8" font-family="Times,serif" font-size="14.00">samples = 20631</text>
<text text-anchor="middle" x="268.5" y="-213.8" font-family="Times,serif" font-size="14.00">value = [10297, 10334]</text>
<text text-anchor="middle" x="268.5" y="-198.8" font-family="Times,serif" font-size="14.00">class = True</text>
</g>
<!-- 1&#45;&gt;2 -->
<g id="edge2" class="edge">
<title>1&#45;&gt;2</title>
<path fill="none" stroke="black" d="M447,-310.56C422.28,-299.89 395.43,-288.3 370.24,-277.43"/>
<polygon fill="black" stroke="black" points="371.62,-274.21 361.05,-273.46 368.84,-280.63 371.62,-274.21"/>
</g>
<!-- 193 -->
<g id="node10" class="node">
<title>193</title>
<polygon fill="#e3f1fb" stroke="black" points="623,-274 456,-274 456,-191 623,-191 623,-274"/>
<text text-anchor="middle" x="539.5" y="-258.8" font-family="Times,serif" font-size="14.00">sdComp &lt;= 6.5</text>
<text text-anchor="middle" x="539.5" y="-243.8" font-family="Times,serif" font-size="14.00">gini = 0.497</text>
<text text-anchor="middle" x="539.5" y="-228.8" font-family="Times,serif" font-size="14.00">samples = 11848</text>
<text text-anchor="middle" x="539.5" y="-213.8" font-family="Times,serif" font-size="14.00">value = [5467, 6381]</text>
<text text-anchor="middle" x="539.5" y="-198.8" font-family="Times,serif" font-size="14.00">class = True</text>
</g>
<!-- 1&#45;&gt;193 -->
<g id="edge9" class="edge">
<title>1&#45;&gt;193</title>
<path fill="none" stroke="black" d="M539.5,-309.91C539.5,-301.65 539.5,-292.86 539.5,-284.3"/>
<polygon fill="black" stroke="black" points="543,-284.02 539.5,-274.02 536,-284.02 543,-284.02"/>
</g>
<!-- 3 -->
<g id="node4" class="node">
<title>3</title>
<polygon fill="#e6f3fc" stroke="black" points="167,-155 0,-155 0,-72 167,-72 167,-155"/>
<text text-anchor="middle" x="83.5" y="-139.8" font-family="Times,serif" font-size="14.00">sdComp &lt;= 0.065</text>
<text text-anchor="middle" x="83.5" y="-124.8" font-family="Times,serif" font-size="14.00">gini = 0.498</text>
<text text-anchor="middle" x="83.5" y="-109.8" font-family="Times,serif" font-size="14.00">samples = 3959</text>
<text text-anchor="middle" x="83.5" y="-94.8" font-family="Times,serif" font-size="14.00">value = [1847, 2112]</text>
<text text-anchor="middle" x="83.5" y="-79.8" font-family="Times,serif" font-size="14.00">class = True</text>
</g>
<!-- 2&#45;&gt;3 -->
<g id="edge3" class="edge">
<title>2&#45;&gt;3</title>
<path fill="none" stroke="black" d="M204.32,-190.91C188.82,-181.11 172.15,-170.56 156.29,-160.53"/>
<polygon fill="black" stroke="black" points="157.89,-157.41 147.57,-155.02 154.15,-163.32 157.89,-157.41"/>
</g>
<!-- 38 -->
<g id="node7" class="node">
<title>38</title>
<polygon fill="#fefcfa" stroke="black" points="352,-155 185,-155 185,-72 352,-72 352,-155"/>
<text text-anchor="middle" x="268.5" y="-139.8" font-family="Times,serif" font-size="14.00">sdComp &lt;= 0.02</text>
<text text-anchor="middle" x="268.5" y="-124.8" font-family="Times,serif" font-size="14.00">gini = 0.5</text>
<text text-anchor="middle" x="268.5" y="-109.8" font-family="Times,serif" font-size="14.00">samples = 16672</text>
<text text-anchor="middle" x="268.5" y="-94.8" font-family="Times,serif" font-size="14.00">value = [8450, 8222]</text>
<text text-anchor="middle" x="268.5" y="-79.8" font-family="Times,serif" font-size="14.00">class = False</text>
</g>
<!-- 2&#45;&gt;38 -->
<g id="edge6" class="edge">
<title>2&#45;&gt;38</title>
<path fill="none" stroke="black" d="M268.5,-190.91C268.5,-182.65 268.5,-173.86 268.5,-165.3"/>
<polygon fill="black" stroke="black" points="272,-165.02 268.5,-155.02 265,-165.02 272,-165.02"/>
</g>
<!-- 4 -->
<g id="node5" class="node">
<title>4</title>
<polygon fill="#c0c0c0" stroke="black" points="74.5,-36 20.5,-36 20.5,0 74.5,0 74.5,-36"/>
<text text-anchor="middle" x="47.5" y="-14.3" font-family="Times,serif" font-size="14.00">(...)</text>
</g>
<!-- 3&#45;&gt;4 -->
<g id="edge4" class="edge">
<title>3&#45;&gt;4</title>
<path fill="none" stroke="black" d="M67.81,-71.76C64.46,-63.04 60.99,-54.04 57.89,-45.99"/>
<polygon fill="black" stroke="black" points="61.06,-44.48 54.2,-36.41 54.53,-46.99 61.06,-44.48"/>
</g>
<!-- 27 -->
<g id="node6" class="node">
<title>27</title>
<polygon fill="#c0c0c0" stroke="black" points="146.5,-36 92.5,-36 92.5,0 146.5,0 146.5,-36"/>
<text text-anchor="middle" x="119.5" y="-14.3" font-family="Times,serif" font-size="14.00">(...)</text>
</g>
<!-- 3&#45;&gt;27 -->
<g id="edge5" class="edge">
<title>3&#45;&gt;27</title>
<path fill="none" stroke="black" d="M99.19,-71.76C102.54,-63.04 106.01,-54.04 109.11,-45.99"/>
<polygon fill="black" stroke="black" points="112.47,-46.99 112.8,-36.41 105.94,-44.48 112.47,-46.99"/>
</g>
<!-- 39 -->
<g id="node8" class="node">
<title>39</title>
<polygon fill="#c0c0c0" stroke="black" points="264.5,-36 210.5,-36 210.5,0 264.5,0 264.5,-36"/>
<text text-anchor="middle" x="237.5" y="-14.3" font-family="Times,serif" font-size="14.00">(...)</text>
</g>
<!-- 38&#45;&gt;39 -->
<g id="edge7" class="edge">
<title>38&#45;&gt;39</title>
<path fill="none" stroke="black" d="M254.99,-71.76C252.1,-63.04 249.12,-54.04 246.45,-45.99"/>
<polygon fill="black" stroke="black" points="249.74,-44.8 243.27,-36.41 243.1,-47 249.74,-44.8"/>
</g>
<!-- 86 -->
<g id="node9" class="node">
<title>86</title>
<polygon fill="#c0c0c0" stroke="black" points="336.5,-36 282.5,-36 282.5,0 336.5,0 336.5,-36"/>
<text text-anchor="middle" x="309.5" y="-14.3" font-family="Times,serif" font-size="14.00">(...)</text>
</g>
<!-- 38&#45;&gt;86 -->
<g id="edge8" class="edge">
<title>38&#45;&gt;86</title>
<path fill="none" stroke="black" d="M286.36,-71.76C290.23,-62.94 294.22,-53.84 297.78,-45.72"/>
<polygon fill="black" stroke="black" points="301.06,-46.97 301.87,-36.41 294.65,-44.16 301.06,-46.97"/>
</g>
<!-- 194 -->
<g id="node11" class="node">
<title>194</title>
<polygon fill="#dceefa" stroke="black" points="537,-155 370,-155 370,-72 537,-72 537,-155"/>
<text text-anchor="middle" x="453.5" y="-139.8" font-family="Times,serif" font-size="14.00">graphSize &lt;= 22.5</text>
<text text-anchor="middle" x="453.5" y="-124.8" font-family="Times,serif" font-size="14.00">gini = 0.495</text>
<text text-anchor="middle" x="453.5" y="-109.8" font-family="Times,serif" font-size="14.00">samples = 9632</text>
<text text-anchor="middle" x="453.5" y="-94.8" font-family="Times,serif" font-size="14.00">value = [4351, 5281]</text>
<text text-anchor="middle" x="453.5" y="-79.8" font-family="Times,serif" font-size="14.00">class = True</text>
</g>
<!-- 193&#45;&gt;194 -->
<g id="edge10" class="edge">
<title>193&#45;&gt;194</title>
<path fill="none" stroke="black" d="M509.66,-190.91C503.13,-182.01 496.14,-172.51 489.39,-163.33"/>
<polygon fill="black" stroke="black" points="492.03,-161.01 483.28,-155.02 486.39,-165.15 492.03,-161.01"/>
</g>
<!-- 417 -->
<g id="node14" class="node">
<title>417</title>
<polygon fill="#fffdfc" stroke="black" points="722,-155 555,-155 555,-72 722,-72 722,-155"/>
<text text-anchor="middle" x="638.5" y="-139.8" font-family="Times,serif" font-size="14.00">nbproc &lt;= 4.5</text>
<text text-anchor="middle" x="638.5" y="-124.8" font-family="Times,serif" font-size="14.00">gini = 0.5</text>
<text text-anchor="middle" x="638.5" y="-109.8" font-family="Times,serif" font-size="14.00">samples = 2216</text>
<text text-anchor="middle" x="638.5" y="-94.8" font-family="Times,serif" font-size="14.00">value = [1116, 1100]</text>
<text text-anchor="middle" x="638.5" y="-79.8" font-family="Times,serif" font-size="14.00">class = False</text>
</g>
<!-- 193&#45;&gt;417 -->
<g id="edge13" class="edge">
<title>193&#45;&gt;417</title>
<path fill="none" stroke="black" d="M573.85,-190.91C581.53,-181.83 589.74,-172.12 597.66,-162.77"/>
<polygon fill="black" stroke="black" points="600.43,-164.92 604.21,-155.02 595.08,-160.39 600.43,-164.92"/>
</g>
<!-- 195 -->
<g id="node12" class="node">
<title>195</title>
<polygon fill="#c0c0c0" stroke="black" points="428.5,-36 374.5,-36 374.5,0 428.5,0 428.5,-36"/>
<text text-anchor="middle" x="401.5" y="-14.3" font-family="Times,serif" font-size="14.00">(...)</text>
</g>
<!-- 194&#45;&gt;195 -->
<g id="edge11" class="edge">
<title>194&#45;&gt;195</title>
<path fill="none" stroke="black" d="M430.84,-71.76C425.83,-62.75 420.65,-53.44 416.07,-45.19"/>
<polygon fill="black" stroke="black" points="419.1,-43.44 411.18,-36.41 412.98,-46.85 419.1,-43.44"/>
</g>
<!-- 282 -->
<g id="node13" class="node">
<title>282</title>
<polygon fill="#c0c0c0" stroke="black" points="500.5,-36 446.5,-36 446.5,0 500.5,0 500.5,-36"/>
<text text-anchor="middle" x="473.5" y="-14.3" font-family="Times,serif" font-size="14.00">(...)</text>
</g>
<!-- 194&#45;&gt;282 -->
<g id="edge12" class="edge">
<title>194&#45;&gt;282</title>
<path fill="none" stroke="black" d="M462.21,-71.76C464.06,-63.14 465.96,-54.24 467.67,-46.26"/>
<polygon fill="black" stroke="black" points="471.11,-46.92 469.78,-36.41 464.26,-45.45 471.11,-46.92"/>
</g>
<!-- 418 -->
<g id="node15" class="node">
<title>418</title>
<polygon fill="#c0c0c0" stroke="black" points="607.5,-36 553.5,-36 553.5,0 607.5,0 607.5,-36"/>
<text text-anchor="middle" x="580.5" y="-14.3" font-family="Times,serif" font-size="14.00">(...)</text>
</g>
<!-- 417&#45;&gt;418 -->
<g id="edge14" class="edge">
<title>417&#45;&gt;418</title>
<path fill="none" stroke="black" d="M613.23,-71.76C607.58,-62.65 601.74,-53.24 596.58,-44.92"/>
<polygon fill="black" stroke="black" points="599.54,-43.06 591.3,-36.41 593.59,-46.75 599.54,-43.06"/>
</g>
<!-- 439 -->
<g id="node16" class="node">
<title>439</title>
<polygon fill="#c0c0c0" stroke="black" points="679.5,-36 625.5,-36 625.5,0 679.5,0 679.5,-36"/>
<text text-anchor="middle" x="652.5" y="-14.3" font-family="Times,serif" font-size="14.00">(...)</text>
</g>
<!-- 417&#45;&gt;439 -->
<g id="edge15" class="edge">
<title>417&#45;&gt;439</title>
<path fill="none" stroke="black" d="M644.6,-71.76C645.88,-63.24 647.19,-54.44 648.38,-46.53"/>
<polygon fill="black" stroke="black" points="651.87,-46.81 649.89,-36.41 644.95,-45.78 651.87,-46.81"/>
</g>
<!-- 453 -->
<g id="node18" class="node">
<title>453</title>
<polygon fill="#5aade9" stroke="black" points="957.5,-274 817.5,-274 817.5,-191 957.5,-191 957.5,-274"/>
<text text-anchor="middle" x="887.5" y="-258.8" font-family="Times,serif" font-size="14.00">CCR &lt;= 0.55</text>
<text text-anchor="middle" x="887.5" y="-243.8" font-family="Times,serif" font-size="14.00">gini = 0.243</text>
<text text-anchor="middle" x="887.5" y="-228.8" font-family="Times,serif" font-size="14.00">samples = 382</text>
<text text-anchor="middle" x="887.5" y="-213.8" font-family="Times,serif" font-size="14.00">value = [54, 328]</text>
<text text-anchor="middle" x="887.5" y="-198.8" font-family="Times,serif" font-size="14.00">class = True</text>
</g>
<!-- 452&#45;&gt;453 -->
<g id="edge17" class="edge">
<title>452&#45;&gt;453</title>
<path fill="none" stroke="black" d="M887.5,-309.91C887.5,-301.65 887.5,-292.86 887.5,-284.3"/>
<polygon fill="black" stroke="black" points="891,-284.02 887.5,-274.02 884,-284.02 891,-284.02"/>
</g>
<!-- 492 -->
<g id="node25" class="node">
<title>492</title>
<polygon fill="#aad5f4" stroke="black" points="1204.5,-274 1052.5,-274 1052.5,-191 1204.5,-191 1204.5,-274"/>
<text text-anchor="middle" x="1128.5" y="-258.8" font-family="Times,serif" font-size="14.00">sdComm &lt;= 0.065</text>
<text text-anchor="middle" x="1128.5" y="-243.8" font-family="Times,serif" font-size="14.00">gini = 0.463</text>
<text text-anchor="middle" x="1128.5" y="-228.8" font-family="Times,serif" font-size="14.00">samples = 716</text>
<text text-anchor="middle" x="1128.5" y="-213.8" font-family="Times,serif" font-size="14.00">value = [260, 456]</text>
<text text-anchor="middle" x="1128.5" y="-198.8" font-family="Times,serif" font-size="14.00">class = True</text>
</g>
<!-- 452&#45;&gt;492 -->
<g id="edge24" class="edge">
<title>452&#45;&gt;492</title>
<path fill="none" stroke="black" d="M971.11,-309.91C994.4,-298.6 1019.71,-286.31 1043.1,-274.96"/>
<polygon fill="black" stroke="black" points="1044.83,-278.01 1052.3,-270.49 1041.78,-271.71 1044.83,-278.01"/>
</g>
<!-- 454 -->
<g id="node19" class="node">
<title>454</title>
<polygon fill="#6ab5eb" stroke="black" points="880.5,-155 740.5,-155 740.5,-72 880.5,-72 880.5,-155"/>
<text text-anchor="middle" x="810.5" y="-139.8" font-family="Times,serif" font-size="14.00">nbproc &lt;= 4.5</text>
<text text-anchor="middle" x="810.5" y="-124.8" font-family="Times,serif" font-size="14.00">gini = 0.318</text>
<text text-anchor="middle" x="810.5" y="-109.8" font-family="Times,serif" font-size="14.00">samples = 202</text>
<text text-anchor="middle" x="810.5" y="-94.8" font-family="Times,serif" font-size="14.00">value = [40, 162]</text>
<text text-anchor="middle" x="810.5" y="-79.8" font-family="Times,serif" font-size="14.00">class = True</text>
</g>
<!-- 453&#45;&gt;454 -->
<g id="edge18" class="edge">
<title>453&#45;&gt;454</title>
<path fill="none" stroke="black" d="M860.79,-190.91C854.99,-182.1 848.8,-172.7 842.82,-163.61"/>
<polygon fill="black" stroke="black" points="845.59,-161.45 837.17,-155.02 839.74,-165.3 845.59,-161.45"/>
</g>
<!-- 475 -->
<g id="node22" class="node">
<title>475</title>
<polygon fill="#4aa5e7" stroke="black" points="1038.5,-155 898.5,-155 898.5,-72 1038.5,-72 1038.5,-155"/>
<text text-anchor="middle" x="968.5" y="-139.8" font-family="Times,serif" font-size="14.00">sdComp &lt;= 0.65</text>
<text text-anchor="middle" x="968.5" y="-124.8" font-family="Times,serif" font-size="14.00">gini = 0.143</text>
<text text-anchor="middle" x="968.5" y="-109.8" font-family="Times,serif" font-size="14.00">samples = 180</text>
<text text-anchor="middle" x="968.5" y="-94.8" font-family="Times,serif" font-size="14.00">value = [14, 166]</text>
<text text-anchor="middle" x="968.5" y="-79.8" font-family="Times,serif" font-size="14.00">class = True</text>
</g>
<!-- 453&#45;&gt;475 -->
<g id="edge21" class="edge">
<title>453&#45;&gt;475</title>
<path fill="none" stroke="black" d="M915.6,-190.91C921.76,-182.01 928.34,-172.51 934.69,-163.33"/>
<polygon fill="black" stroke="black" points="937.63,-165.24 940.45,-155.02 931.88,-161.25 937.63,-165.24"/>
</g>
<!-- 455 -->
<g id="node20" class="node">
<title>455</title>
<polygon fill="#c0c0c0" stroke="black" points="772.5,-36 718.5,-36 718.5,0 772.5,0 772.5,-36"/>
<text text-anchor="middle" x="745.5" y="-14.3" font-family="Times,serif" font-size="14.00">(...)</text>
</g>
<!-- 454&#45;&gt;455 -->
<g id="edge19" class="edge">
<title>454&#45;&gt;455</title>
<path fill="none" stroke="black" d="M782.18,-71.76C775.78,-62.56 769.16,-53.04 763.34,-44.66"/>
<polygon fill="black" stroke="black" points="766.18,-42.62 757.6,-36.41 760.43,-46.61 766.18,-42.62"/>
</g>
<!-- 462 -->
<g id="node21" class="node">
<title>462</title>
<polygon fill="#c0c0c0" stroke="black" points="844.5,-36 790.5,-36 790.5,0 844.5,0 844.5,-36"/>
<text text-anchor="middle" x="817.5" y="-14.3" font-family="Times,serif" font-size="14.00">(...)</text>
</g>
<!-- 454&#45;&gt;462 -->
<g id="edge20" class="edge">
<title>454&#45;&gt;462</title>
<path fill="none" stroke="black" d="M813.55,-71.76C814.19,-63.24 814.85,-54.44 815.44,-46.53"/>
<polygon fill="black" stroke="black" points="818.94,-46.64 816.2,-36.41 811.96,-46.12 818.94,-46.64"/>
</g>
<!-- 476 -->
<g id="node23" class="node">
<title>476</title>
<polygon fill="#c0c0c0" stroke="black" points="931.5,-36 877.5,-36 877.5,0 931.5,0 931.5,-36"/>
<text text-anchor="middle" x="904.5" y="-14.3" font-family="Times,serif" font-size="14.00">(...)</text>
</g>
<!-- 475&#45;&gt;476 -->
<g id="edge22" class="edge">
<title>475&#45;&gt;476</title>
<path fill="none" stroke="black" d="M940.61,-71.76C934.31,-62.56 927.8,-53.04 922.06,-44.66"/>
<polygon fill="black" stroke="black" points="924.95,-42.68 916.41,-36.41 919.17,-46.63 924.95,-42.68"/>
</g>
<!-- 485 -->
<g id="node24" class="node">
<title>485</title>
<polygon fill="#c0c0c0" stroke="black" points="1003.5,-36 949.5,-36 949.5,0 1003.5,0 1003.5,-36"/>
<text text-anchor="middle" x="976.5" y="-14.3" font-family="Times,serif" font-size="14.00">(...)</text>
</g>
<!-- 475&#45;&gt;485 -->
<g id="edge23" class="edge">
<title>475&#45;&gt;485</title>
<path fill="none" stroke="black" d="M971.99,-71.76C972.72,-63.24 973.47,-54.44 974.14,-46.53"/>
<polygon fill="black" stroke="black" points="977.65,-46.67 975.01,-36.41 970.67,-46.07 977.65,-46.67"/>
</g>
<!-- 493 -->
<g id="node26" class="node">
<title>493</title>
<polygon fill="#fef9f5" stroke="black" points="1200,-155 1057,-155 1057,-72 1200,-72 1200,-155"/>
<text text-anchor="middle" x="1128.5" y="-139.8" font-family="Times,serif" font-size="14.00">sdComm &lt;= 0.02</text>
<text text-anchor="middle" x="1128.5" y="-124.8" font-family="Times,serif" font-size="14.00">gini = 0.5</text>
<text text-anchor="middle" x="1128.5" y="-109.8" font-family="Times,serif" font-size="14.00">samples = 152</text>
<text text-anchor="middle" x="1128.5" y="-94.8" font-family="Times,serif" font-size="14.00">value = [78, 74]</text>
<text text-anchor="middle" x="1128.5" y="-79.8" font-family="Times,serif" font-size="14.00">class = False</text>
</g>
<!-- 492&#45;&gt;493 -->
<g id="edge25" class="edge">
<title>492&#45;&gt;493</title>
<path fill="none" stroke="black" d="M1128.5,-190.91C1128.5,-182.65 1128.5,-173.86 1128.5,-165.3"/>
<polygon fill="black" stroke="black" points="1132,-165.02 1128.5,-155.02 1125,-165.02 1132,-165.02"/>
</g>
<!-- 508 -->
<g id="node29" class="node">
<title>508</title>
<polygon fill="#97ccf1" stroke="black" points="1367,-155 1218,-155 1218,-72 1367,-72 1367,-155"/>
<text text-anchor="middle" x="1292.5" y="-139.8" font-family="Times,serif" font-size="14.00">sdComp &lt;= 0.65</text>
<text text-anchor="middle" x="1292.5" y="-124.8" font-family="Times,serif" font-size="14.00">gini = 0.437</text>
<text text-anchor="middle" x="1292.5" y="-109.8" font-family="Times,serif" font-size="14.00">samples = 564</text>
<text text-anchor="middle" x="1292.5" y="-94.8" font-family="Times,serif" font-size="14.00">value = [182, 382]</text>
<text text-anchor="middle" x="1292.5" y="-79.8" font-family="Times,serif" font-size="14.00">class = True</text>
</g>
<!-- 492&#45;&gt;508 -->
<g id="edge28" class="edge">
<title>492&#45;&gt;508</title>
<path fill="none" stroke="black" d="M1185.4,-190.91C1198.88,-181.29 1213.37,-170.95 1227.19,-161.09"/>
<polygon fill="black" stroke="black" points="1229.59,-163.68 1235.7,-155.02 1225.53,-157.98 1229.59,-163.68"/>
</g>
<!-- 494 -->
<g id="node27" class="node">
<title>494</title>
<polygon fill="#c0c0c0" stroke="black" points="1111.5,-36 1057.5,-36 1057.5,0 1111.5,0 1111.5,-36"/>
<text text-anchor="middle" x="1084.5" y="-14.3" font-family="Times,serif" font-size="14.00">(...)</text>
</g>
<!-- 493&#45;&gt;494 -->
<g id="edge26" class="edge">
<title>493&#45;&gt;494</title>
<path fill="none" stroke="black" d="M1109.33,-71.76C1105.13,-62.85 1100.8,-53.64 1096.95,-45.46"/>
<polygon fill="black" stroke="black" points="1100.12,-43.96 1092.69,-36.41 1093.78,-46.94 1100.12,-43.96"/>
</g>
<!-- 501 -->
<g id="node28" class="node">
<title>501</title>
<polygon fill="#c0c0c0" stroke="black" points="1183.5,-36 1129.5,-36 1129.5,0 1183.5,0 1183.5,-36"/>
<text text-anchor="middle" x="1156.5" y="-14.3" font-family="Times,serif" font-size="14.00">(...)</text>
</g>
<!-- 493&#45;&gt;501 -->
<g id="edge27" class="edge">
<title>493&#45;&gt;501</title>
<path fill="none" stroke="black" d="M1140.7,-71.76C1143.31,-63.04 1146.01,-54.04 1148.42,-45.99"/>
<polygon fill="black" stroke="black" points="1151.77,-46.99 1151.29,-36.41 1145.07,-44.98 1151.77,-46.99"/>
</g>
<!-- 509 -->
<g id="node30" class="node">
<title>509</title>
<polygon fill="#c0c0c0" stroke="black" points="1283.5,-36 1229.5,-36 1229.5,0 1283.5,0 1283.5,-36"/>
<text text-anchor="middle" x="1256.5" y="-14.3" font-family="Times,serif" font-size="14.00">(...)</text>
</g>
<!-- 508&#45;&gt;509 -->
<g id="edge29" class="edge">
<title>508&#45;&gt;509</title>
<path fill="none" stroke="black" d="M1276.81,-71.76C1273.46,-63.04 1269.99,-54.04 1266.89,-45.99"/>
<polygon fill="black" stroke="black" points="1270.06,-44.48 1263.2,-36.41 1263.53,-46.99 1270.06,-44.48"/>
</g>
<!-- 526 -->
<g id="node31" class="node">
<title>526</title>
<polygon fill="#c0c0c0" stroke="black" points="1355.5,-36 1301.5,-36 1301.5,0 1355.5,0 1355.5,-36"/>
<text text-anchor="middle" x="1328.5" y="-14.3" font-family="Times,serif" font-size="14.00">(...)</text>
</g>
<!-- 508&#45;&gt;526 -->
<g id="edge30" class="edge">
<title>508&#45;&gt;526</title>
<path fill="none" stroke="black" d="M1308.19,-71.76C1311.54,-63.04 1315.01,-54.04 1318.11,-45.99"/>
<polygon fill="black" stroke="black" points="1321.47,-46.99 1321.8,-36.41 1314.94,-44.48 1321.47,-46.99"/>
</g>
</g>
</svg>
