<?xml version="1.0" encoding="UTF-8" standalone="no"?>
<!DOCTYPE svg PUBLIC "-//W3C//DTD SVG 1.1//EN"
 "http://www.w3.org/Graphics/SVG/1.1/DTD/svg11.dtd">
<!-- Generated by graphviz version 2.43.0 (0)
 -->
<!-- Title: Tree Pages: 1 -->
<svg width="2731pt" height="520pt"
 viewBox="0.00 0.00 2730.50 520.00" xmlns="http://www.w3.org/2000/svg" xmlns:xlink="http://www.w3.org/1999/xlink">
<g id="graph0" class="graph" transform="scale(1 1) rotate(0) translate(4 516)">
<title>Tree</title>
<polygon fill="white" stroke="transparent" points="-4,4 -4,-516 2726.5,-516 2726.5,4 -4,4"/>
<!-- 0 -->
<g id="node1" class="node">
<title>0</title>
<polygon fill="#fffefd" stroke="black" points="1597,-512 1205,-512 1205,-429 1597,-429 1597,-512"/>
<text text-anchor="middle" x="1401" y="-496.8" font-family="Times,serif" font-size="14.00">CCR &lt;= 0.55</text>
<text text-anchor="middle" x="1401" y="-481.8" font-family="Times,serif" font-size="14.00">gini = 0.844</text>
<text text-anchor="middle" x="1401" y="-466.8" font-family="Times,serif" font-size="14.00">samples = 33577</text>
<text text-anchor="middle" x="1401" y="-451.8" font-family="Times,serif" font-size="14.00">value = [5801, 4578, 1358, 5530, 5404, 5327, 5579]</text>
<text text-anchor="middle" x="1401" y="-436.8" font-family="Times,serif" font-size="14.00">class = rku</text>
</g>
<!-- 1 -->
<g id="node2" class="node">
<title>1</title>
<polygon fill="#f9fafe" stroke="black" points="1238.5,-393 855.5,-393 855.5,-310 1238.5,-310 1238.5,-393"/>
<text text-anchor="middle" x="1047" y="-377.8" font-family="Times,serif" font-size="14.00">nbproc &lt;= 4.5</text>
<text text-anchor="middle" x="1047" y="-362.8" font-family="Times,serif" font-size="14.00">gini = 0.842</text>
<text text-anchor="middle" x="1047" y="-347.8" font-family="Times,serif" font-size="14.00">samples = 21003</text>
<text text-anchor="middle" x="1047" y="-332.8" font-family="Times,serif" font-size="14.00">value = [3383, 2934, 688, 3444, 3966, 3443, 3145]</text>
<text text-anchor="middle" x="1047" y="-317.8" font-family="Times,serif" font-size="14.00">class = cluHPS</text>
</g>
<!-- 0&#45;&gt;1 -->
<g id="edge1" class="edge">
<title>0&#45;&gt;1</title>
<path fill="none" stroke="black" d="M1278.18,-428.91C1246.19,-418.33 1211.59,-406.9 1179.14,-396.17"/>
<polygon fill="black" stroke="black" points="1180.19,-392.84 1169.6,-393.02 1178,-399.48 1180.19,-392.84"/>
<text text-anchor="middle" x="1180.84" y="-411.65" font-family="Times,serif" font-size="14.00">True</text>
</g>
<!-- 250 -->
<g id="node17" class="node">
<title>250</title>
<polygon fill="#ffffff" stroke="black" points="1966.5,-393 1583.5,-393 1583.5,-310 1966.5,-310 1966.5,-393"/>
<text text-anchor="middle" x="1775" y="-377.8" font-family="Times,serif" font-size="14.00">graphSize &lt;= 75.0</text>
<text text-anchor="middle" x="1775" y="-362.8" font-family="Times,serif" font-size="14.00">gini = 0.843</text>
<text text-anchor="middle" x="1775" y="-347.8" font-family="Times,serif" font-size="14.00">samples = 12574</text>
<text text-anchor="middle" x="1775" y="-332.8" font-family="Times,serif" font-size="14.00">value = [2418, 1644, 670, 2086, 1438, 1884, 2434]</text>
<text text-anchor="middle" x="1775" y="-317.8" font-family="Times,serif" font-size="14.00">class = rkuad</text>
</g>
<!-- 0&#45;&gt;250 -->
<g id="edge16" class="edge">
<title>0&#45;&gt;250</title>
<path fill="none" stroke="black" d="M1530.5,-428.99C1564.45,-418.37 1601.21,-406.87 1635.65,-396.09"/>
<polygon fill="black" stroke="black" points="1636.8,-399.4 1645.3,-393.07 1634.71,-392.72 1636.8,-399.4"/>
<text text-anchor="middle" x="1633.71" y="-411.52" font-family="Times,serif" font-size="14.00">False</text>
</g>
<!-- 2 -->
<g id="node3" class="node">
<title>2</title>
<polygon fill="#f8f9fe" stroke="black" points="685,-274 329,-274 329,-191 685,-191 685,-274"/>
<text text-anchor="middle" x="507" y="-258.8" font-family="Times,serif" font-size="14.00">sdComp &lt;= 0.065</text>
<text text-anchor="middle" x="507" y="-243.8" font-family="Times,serif" font-size="14.00">gini = 0.831</text>
<text text-anchor="middle" x="507" y="-228.8" font-family="Times,serif" font-size="14.00">samples = 6643</text>
<text text-anchor="middle" x="507" y="-213.8" font-family="Times,serif" font-size="14.00">value = [939, 820, 240, 1374, 1564, 1049, 657]</text>
<text text-anchor="middle" x="507" y="-198.8" font-family="Times,serif" font-size="14.00">class = cluHPS</text>
</g>
<!-- 1&#45;&gt;2 -->
<g id="edge2" class="edge">
<title>1&#45;&gt;2</title>
<path fill="none" stroke="black" d="M860.03,-309.99C806.67,-298.43 748.52,-285.83 695.09,-274.25"/>
<polygon fill="black" stroke="black" points="695.69,-270.8 685.17,-272.1 694.2,-277.64 695.69,-270.8"/>
</g>
<!-- 137 -->
<g id="node10" class="node">
<title>137</title>
<polygon fill="#fffeff" stroke="black" points="1238.5,-274 855.5,-274 855.5,-191 1238.5,-191 1238.5,-274"/>
<text text-anchor="middle" x="1047" y="-258.8" font-family="Times,serif" font-size="14.00">graphDepth &lt;= 6.5</text>
<text text-anchor="middle" x="1047" y="-243.8" font-family="Times,serif" font-size="14.00">gini = 0.842</text>
<text text-anchor="middle" x="1047" y="-228.8" font-family="Times,serif" font-size="14.00">samples = 14360</text>
<text text-anchor="middle" x="1047" y="-213.8" font-family="Times,serif" font-size="14.00">value = [2444, 2114, 448, 2070, 2402, 2394, 2488]</text>
<text text-anchor="middle" x="1047" y="-198.8" font-family="Times,serif" font-size="14.00">class = rkuad</text>
</g>
<!-- 1&#45;&gt;137 -->
<g id="edge9" class="edge">
<title>1&#45;&gt;137</title>
<path fill="none" stroke="black" d="M1047,-309.91C1047,-301.65 1047,-292.86 1047,-284.3"/>
<polygon fill="black" stroke="black" points="1050.5,-284.02 1047,-274.02 1043.5,-284.02 1050.5,-284.02"/>
</g>
<!-- 3 -->
<g id="node4" class="node">
<title>3</title>
<polygon fill="#ffffff" stroke="black" points="320,-155 0,-155 0,-72 320,-72 320,-155"/>
<text text-anchor="middle" x="160" y="-139.8" font-family="Times,serif" font-size="14.00">graphDepth &lt;= 3.5</text>
<text text-anchor="middle" x="160" y="-124.8" font-family="Times,serif" font-size="14.00">gini = 0.82</text>
<text text-anchor="middle" x="160" y="-109.8" font-family="Times,serif" font-size="14.00">samples = 2274</text>
<text text-anchor="middle" x="160" y="-94.8" font-family="Times,serif" font-size="14.00">value = [486, 188, 86, 516, 216, 516, 266]</text>
<text text-anchor="middle" x="160" y="-79.8" font-family="Times,serif" font-size="14.00">class = rkd</text>
</g>
<!-- 2&#45;&gt;3 -->
<g id="edge3" class="edge">
<title>2&#45;&gt;3</title>
<path fill="none" stroke="black" d="M386.61,-190.91C355.39,-180.38 321.63,-169 289.94,-158.31"/>
<polygon fill="black" stroke="black" points="290.77,-154.9 280.18,-155.02 288.53,-161.53 290.77,-154.9"/>
</g>
<!-- 92 -->
<g id="node7" class="node">
<title>92</title>
<polygon fill="#e3e7fb" stroke="black" points="676,-155 338,-155 338,-72 676,-72 676,-155"/>
<text text-anchor="middle" x="507" y="-139.8" font-family="Times,serif" font-size="14.00">graphSize &lt;= 75.0</text>
<text text-anchor="middle" x="507" y="-124.8" font-family="Times,serif" font-size="14.00">gini = 0.81</text>
<text text-anchor="middle" x="507" y="-109.8" font-family="Times,serif" font-size="14.00">samples = 4369</text>
<text text-anchor="middle" x="507" y="-94.8" font-family="Times,serif" font-size="14.00">value = [453, 632, 154, 858, 1348, 533, 391]</text>
<text text-anchor="middle" x="507" y="-79.8" font-family="Times,serif" font-size="14.00">class = cluHPS</text>
</g>
<!-- 2&#45;&gt;92 -->
<g id="edge6" class="edge">
<title>2&#45;&gt;92</title>
<path fill="none" stroke="black" d="M507,-190.91C507,-182.65 507,-173.86 507,-165.3"/>
<polygon fill="black" stroke="black" points="510.5,-165.02 507,-155.02 503.5,-165.02 510.5,-165.02"/>
</g>
<!-- 4 -->
<g id="node5" class="node">
<title>4</title>
<polygon fill="#c0c0c0" stroke="black" points="151,-36 97,-36 97,0 151,0 151,-36"/>
<text text-anchor="middle" x="124" y="-14.3" font-family="Times,serif" font-size="14.00">(...)</text>
</g>
<!-- 3&#45;&gt;4 -->
<g id="edge4" class="edge">
<title>3&#45;&gt;4</title>
<path fill="none" stroke="black" d="M144.31,-71.76C140.96,-63.04 137.49,-54.04 134.39,-45.99"/>
<polygon fill="black" stroke="black" points="137.56,-44.48 130.7,-36.41 131.03,-46.99 137.56,-44.48"/>
</g>
<!-- 15 -->
<g id="node6" class="node">
<title>15</title>
<polygon fill="#c0c0c0" stroke="black" points="223,-36 169,-36 169,0 223,0 223,-36"/>
<text text-anchor="middle" x="196" y="-14.3" font-family="Times,serif" font-size="14.00">(...)</text>
</g>
<!-- 3&#45;&gt;15 -->
<g id="edge5" class="edge">
<title>3&#45;&gt;15</title>
<path fill="none" stroke="black" d="M175.69,-71.76C179.04,-63.04 182.51,-54.04 185.61,-45.99"/>
<polygon fill="black" stroke="black" points="188.97,-46.99 189.3,-36.41 182.44,-44.48 188.97,-46.99"/>
</g>
<!-- 93 -->
<g id="node8" class="node">
<title>93</title>
<polygon fill="#c0c0c0" stroke="black" points="498,-36 444,-36 444,0 498,0 498,-36"/>
<text text-anchor="middle" x="471" y="-14.3" font-family="Times,serif" font-size="14.00">(...)</text>
</g>
<!-- 92&#45;&gt;93 -->
<g id="edge7" class="edge">
<title>92&#45;&gt;93</title>
<path fill="none" stroke="black" d="M491.31,-71.76C487.96,-63.04 484.49,-54.04 481.39,-45.99"/>
<polygon fill="black" stroke="black" points="484.56,-44.48 477.7,-36.41 478.03,-46.99 484.56,-44.48"/>
</g>
<!-- 126 -->
<g id="node9" class="node">
<title>126</title>
<polygon fill="#c0c0c0" stroke="black" points="570,-36 516,-36 516,0 570,0 570,-36"/>
<text text-anchor="middle" x="543" y="-14.3" font-family="Times,serif" font-size="14.00">(...)</text>
</g>
<!-- 92&#45;&gt;126 -->
<g id="edge8" class="edge">
<title>92&#45;&gt;126</title>
<path fill="none" stroke="black" d="M522.69,-71.76C526.04,-63.04 529.51,-54.04 532.61,-45.99"/>
<polygon fill="black" stroke="black" points="535.97,-46.99 536.3,-36.41 529.44,-44.48 535.97,-46.99"/>
</g>
<!-- 138 -->
<g id="node11" class="node">
<title>138</title>
<polygon fill="#fffefe" stroke="black" points="1076.5,-155 693.5,-155 693.5,-72 1076.5,-72 1076.5,-155"/>
<text text-anchor="middle" x="885" y="-139.8" font-family="Times,serif" font-size="14.00">sdComm &lt;= 0.02</text>
<text text-anchor="middle" x="885" y="-124.8" font-family="Times,serif" font-size="14.00">gini = 0.84</text>
<text text-anchor="middle" x="885" y="-109.8" font-family="Times,serif" font-size="14.00">samples = 12912</text>
<text text-anchor="middle" x="885" y="-94.8" font-family="Times,serif" font-size="14.00">value = [2244, 1806, 320, 1900, 2118, 2212, 2312]</text>
<text text-anchor="middle" x="885" y="-79.8" font-family="Times,serif" font-size="14.00">class = rkuad</text>
</g>
<!-- 137&#45;&gt;138 -->
<g id="edge10" class="edge">
<title>137&#45;&gt;138</title>
<path fill="none" stroke="black" d="M990.79,-190.91C977.48,-181.29 963.17,-170.95 949.51,-161.09"/>
<polygon fill="black" stroke="black" points="951.26,-158.04 941.11,-155.02 947.16,-163.71 951.26,-158.04"/>
</g>
<!-- 191 -->
<g id="node14" class="node">
<title>191</title>
<polygon fill="#fefefb" stroke="black" points="1423.5,-155 1094.5,-155 1094.5,-72 1423.5,-72 1423.5,-155"/>
<text text-anchor="middle" x="1259" y="-139.8" font-family="Times,serif" font-size="14.00">sdComm &lt;= 0.065</text>
<text text-anchor="middle" x="1259" y="-124.8" font-family="Times,serif" font-size="14.00">gini = 0.845</text>
<text text-anchor="middle" x="1259" y="-109.8" font-family="Times,serif" font-size="14.00">samples = 1448</text>
<text text-anchor="middle" x="1259" y="-94.8" font-family="Times,serif" font-size="14.00">value = [200, 308, 128, 170, 284, 182, 176]</text>
<text text-anchor="middle" x="1259" y="-79.8" font-family="Times,serif" font-size="14.00">class = random</text>
</g>
<!-- 137&#45;&gt;191 -->
<g id="edge13" class="edge">
<title>137&#45;&gt;191</title>
<path fill="none" stroke="black" d="M1120.55,-190.91C1138.64,-180.92 1158.12,-170.17 1176.6,-159.98"/>
<polygon fill="black" stroke="black" points="1178.51,-162.92 1185.58,-155.02 1175.13,-156.79 1178.51,-162.92"/>
</g>
<!-- 139 -->
<g id="node12" class="node">
<title>139</title>
<polygon fill="#c0c0c0" stroke="black" points="876,-36 822,-36 822,0 876,0 876,-36"/>
<text text-anchor="middle" x="849" y="-14.3" font-family="Times,serif" font-size="14.00">(...)</text>
</g>
<!-- 138&#45;&gt;139 -->
<g id="edge11" class="edge">
<title>138&#45;&gt;139</title>
<path fill="none" stroke="black" d="M869.31,-71.76C865.96,-63.04 862.49,-54.04 859.39,-45.99"/>
<polygon fill="black" stroke="black" points="862.56,-44.48 855.7,-36.41 856.03,-46.99 862.56,-44.48"/>
</g>
<!-- 156 -->
<g id="node13" class="node">
<title>156</title>
<polygon fill="#c0c0c0" stroke="black" points="948,-36 894,-36 894,0 948,0 948,-36"/>
<text text-anchor="middle" x="921" y="-14.3" font-family="Times,serif" font-size="14.00">(...)</text>
</g>
<!-- 138&#45;&gt;156 -->
<g id="edge12" class="edge">
<title>138&#45;&gt;156</title>
<path fill="none" stroke="black" d="M900.69,-71.76C904.04,-63.04 907.51,-54.04 910.61,-45.99"/>
<polygon fill="black" stroke="black" points="913.97,-46.99 914.3,-36.41 907.44,-44.48 913.97,-46.99"/>
</g>
<!-- 192 -->
<g id="node15" class="node">
<title>192</title>
<polygon fill="#c0c0c0" stroke="black" points="1250,-36 1196,-36 1196,0 1250,0 1250,-36"/>
<text text-anchor="middle" x="1223" y="-14.3" font-family="Times,serif" font-size="14.00">(...)</text>
</g>
<!-- 191&#45;&gt;192 -->
<g id="edge14" class="edge">
<title>191&#45;&gt;192</title>
<path fill="none" stroke="black" d="M1243.31,-71.76C1239.96,-63.04 1236.49,-54.04 1233.39,-45.99"/>
<polygon fill="black" stroke="black" points="1236.56,-44.48 1229.7,-36.41 1230.03,-46.99 1236.56,-44.48"/>
</g>
<!-- 233 -->
<g id="node16" class="node">
<title>233</title>
<polygon fill="#c0c0c0" stroke="black" points="1322,-36 1268,-36 1268,0 1322,0 1322,-36"/>
<text text-anchor="middle" x="1295" y="-14.3" font-family="Times,serif" font-size="14.00">(...)</text>
</g>
<!-- 191&#45;&gt;233 -->
<g id="edge15" class="edge">
<title>191&#45;&gt;233</title>
<path fill="none" stroke="black" d="M1274.69,-71.76C1278.04,-63.04 1281.51,-54.04 1284.61,-45.99"/>
<polygon fill="black" stroke="black" points="1287.97,-46.99 1288.3,-36.41 1281.44,-44.48 1287.97,-46.99"/>
</g>
<!-- 251 -->
<g id="node18" class="node">
<title>251</title>
<polygon fill="#fffeff" stroke="black" points="1966.5,-274 1583.5,-274 1583.5,-191 1966.5,-191 1966.5,-274"/>
<text text-anchor="middle" x="1775" y="-258.8" font-family="Times,serif" font-size="14.00">graphDepth &lt;= 3.5</text>
<text text-anchor="middle" x="1775" y="-243.8" font-family="Times,serif" font-size="14.00">gini = 0.84</text>
<text text-anchor="middle" x="1775" y="-228.8" font-family="Times,serif" font-size="14.00">samples = 11848</text>
<text text-anchor="middle" x="1775" y="-213.8" font-family="Times,serif" font-size="14.00">value = [2246, 1596, 496, 2060, 1374, 1794, 2282]</text>
<text text-anchor="middle" x="1775" y="-198.8" font-family="Times,serif" font-size="14.00">class = rkuad</text>
</g>
<!-- 250&#45;&gt;251 -->
<g id="edge17" class="edge">
<title>250&#45;&gt;251</title>
<path fill="none" stroke="black" d="M1775,-309.91C1775,-301.65 1775,-292.86 1775,-284.3"/>
<polygon fill="black" stroke="black" points="1778.5,-284.02 1775,-274.02 1771.5,-284.02 1778.5,-284.02"/>
</g>
<!-- 508 -->
<g id="node25" class="node">
<title>508</title>
<polygon fill="#fefffe" stroke="black" points="2451.5,-274 2158.5,-274 2158.5,-191 2451.5,-191 2451.5,-274"/>
<text text-anchor="middle" x="2305" y="-258.8" font-family="Times,serif" font-size="14.00">sdComp &lt;= 0.65</text>
<text text-anchor="middle" x="2305" y="-243.8" font-family="Times,serif" font-size="14.00">gini = 0.814</text>
<text text-anchor="middle" x="2305" y="-228.8" font-family="Times,serif" font-size="14.00">samples = 726</text>
<text text-anchor="middle" x="2305" y="-213.8" font-family="Times,serif" font-size="14.00">value = [172, 48, 174, 26, 64, 90, 152]</text>
<text text-anchor="middle" x="2305" y="-198.8" font-family="Times,serif" font-size="14.00">class = BIL</text>
</g>
<!-- 250&#45;&gt;508 -->
<g id="edge24" class="edge">
<title>250&#45;&gt;508</title>
<path fill="none" stroke="black" d="M1958.51,-309.99C2020.41,-296.32 2088.89,-281.21 2148.51,-268.05"/>
<polygon fill="black" stroke="black" points="2149.38,-271.44 2158.39,-265.87 2147.87,-264.6 2149.38,-271.44"/>
</g>
<!-- 252 -->
<g id="node19" class="node">
<title>252</title>
<polygon fill="#e8fcfc" stroke="black" points="1762,-155 1442,-155 1442,-72 1762,-72 1762,-155"/>
<text text-anchor="middle" x="1602" y="-139.8" font-family="Times,serif" font-size="14.00">sdComm &lt;= 6.5</text>
<text text-anchor="middle" x="1602" y="-124.8" font-family="Times,serif" font-size="14.00">gini = 0.828</text>
<text text-anchor="middle" x="1602" y="-109.8" font-family="Times,serif" font-size="14.00">samples = 2520</text>
<text text-anchor="middle" x="1602" y="-94.8" font-family="Times,serif" font-size="14.00">value = [390, 368, 54, 656, 306, 336, 410]</text>
<text text-anchor="middle" x="1602" y="-79.8" font-family="Times,serif" font-size="14.00">class = rkd</text>
</g>
<!-- 251&#45;&gt;252 -->
<g id="edge18" class="edge">
<title>251&#45;&gt;252</title>
<path fill="none" stroke="black" d="M1714.98,-190.91C1700.62,-181.2 1685.19,-170.76 1670.48,-160.81"/>
<polygon fill="black" stroke="black" points="1672.16,-157.72 1661.92,-155.02 1668.24,-163.52 1672.16,-157.72"/>
</g>
<!-- 303 -->
<g id="node22" class="node">
<title>303</title>
<polygon fill="#ffffff" stroke="black" points="2163.5,-155 1780.5,-155 1780.5,-72 2163.5,-72 2163.5,-155"/>
<text text-anchor="middle" x="1972" y="-139.8" font-family="Times,serif" font-size="14.00">sdComp &lt;= 0.2</text>
<text text-anchor="middle" x="1972" y="-124.8" font-family="Times,serif" font-size="14.00">gini = 0.84</text>
<text text-anchor="middle" x="1972" y="-109.8" font-family="Times,serif" font-size="14.00">samples = 9328</text>
<text text-anchor="middle" x="1972" y="-94.8" font-family="Times,serif" font-size="14.00">value = [1856, 1228, 442, 1404, 1068, 1458, 1872]</text>
<text text-anchor="middle" x="1972" y="-79.8" font-family="Times,serif" font-size="14.00">class = rkuad</text>
</g>
<!-- 251&#45;&gt;303 -->
<g id="edge21" class="edge">
<title>251&#45;&gt;303</title>
<path fill="none" stroke="black" d="M1843.35,-190.91C1860,-181.02 1877.93,-170.37 1894.96,-160.25"/>
<polygon fill="black" stroke="black" points="1896.96,-163.14 1903.77,-155.02 1893.39,-157.12 1896.96,-163.14"/>
</g>
<!-- 253 -->
<g id="node20" class="node">
<title>253</title>
<polygon fill="#c0c0c0" stroke="black" points="1593,-36 1539,-36 1539,0 1593,0 1593,-36"/>
<text text-anchor="middle" x="1566" y="-14.3" font-family="Times,serif" font-size="14.00">(...)</text>
</g>
<!-- 252&#45;&gt;253 -->
<g id="edge19" class="edge">
<title>252&#45;&gt;253</title>
<path fill="none" stroke="black" d="M1586.31,-71.76C1582.96,-63.04 1579.49,-54.04 1576.39,-45.99"/>
<polygon fill="black" stroke="black" points="1579.56,-44.48 1572.7,-36.41 1573.03,-46.99 1579.56,-44.48"/>
</g>
<!-- 296 -->
<g id="node21" class="node">
<title>296</title>
<polygon fill="#c0c0c0" stroke="black" points="1665,-36 1611,-36 1611,0 1665,0 1665,-36"/>
<text text-anchor="middle" x="1638" y="-14.3" font-family="Times,serif" font-size="14.00">(...)</text>
</g>
<!-- 252&#45;&gt;296 -->
<g id="edge20" class="edge">
<title>252&#45;&gt;296</title>
<path fill="none" stroke="black" d="M1617.69,-71.76C1621.04,-63.04 1624.51,-54.04 1627.61,-45.99"/>
<polygon fill="black" stroke="black" points="1630.97,-46.99 1631.3,-36.41 1624.44,-44.48 1630.97,-46.99"/>
</g>
<!-- 304 -->
<g id="node23" class="node">
<title>304</title>
<polygon fill="#c0c0c0" stroke="black" points="1963,-36 1909,-36 1909,0 1963,0 1963,-36"/>
<text text-anchor="middle" x="1936" y="-14.3" font-family="Times,serif" font-size="14.00">(...)</text>
</g>
<!-- 303&#45;&gt;304 -->
<g id="edge22" class="edge">
<title>303&#45;&gt;304</title>
<path fill="none" stroke="black" d="M1956.31,-71.76C1952.96,-63.04 1949.49,-54.04 1946.39,-45.99"/>
<polygon fill="black" stroke="black" points="1949.56,-44.48 1942.7,-36.41 1943.03,-46.99 1949.56,-44.48"/>
</g>
<!-- 363 -->
<g id="node24" class="node">
<title>363</title>
<polygon fill="#c0c0c0" stroke="black" points="2035,-36 1981,-36 1981,0 2035,0 2035,-36"/>
<text text-anchor="middle" x="2008" y="-14.3" font-family="Times,serif" font-size="14.00">(...)</text>
</g>
<!-- 303&#45;&gt;363 -->
<g id="edge23" class="edge">
<title>303&#45;&gt;363</title>
<path fill="none" stroke="black" d="M1987.69,-71.76C1991.04,-63.04 1994.51,-54.04 1997.61,-45.99"/>
<polygon fill="black" stroke="black" points="2000.97,-46.99 2001.3,-36.41 1994.44,-44.48 2000.97,-46.99"/>
</g>
<!-- 509 -->
<g id="node26" class="node">
<title>509</title>
<polygon fill="#fae8da" stroke="black" points="2429,-155 2181,-155 2181,-72 2429,-72 2429,-155"/>
<text text-anchor="middle" x="2305" y="-139.8" font-family="Times,serif" font-size="14.00">nbproc &lt;= 4.5</text>
<text text-anchor="middle" x="2305" y="-124.8" font-family="Times,serif" font-size="14.00">gini = 0.721</text>
<text text-anchor="middle" x="2305" y="-109.8" font-family="Times,serif" font-size="14.00">samples = 326</text>
<text text-anchor="middle" x="2305" y="-94.8" font-family="Times,serif" font-size="14.00">value = [132, 0, 44, 8, 4, 50, 88]</text>
<text text-anchor="middle" x="2305" y="-79.8" font-family="Times,serif" font-size="14.00">class = rku</text>
</g>
<!-- 508&#45;&gt;509 -->
<g id="edge25" class="edge">
<title>508&#45;&gt;509</title>
<path fill="none" stroke="black" d="M2305,-190.91C2305,-182.65 2305,-173.86 2305,-165.3"/>
<polygon fill="black" stroke="black" points="2308.5,-165.02 2305,-155.02 2301.5,-165.02 2308.5,-165.02"/>
</g>
<!-- 542 -->
<g id="node29" class="node">
<title>542</title>
<polygon fill="#d8fadc" stroke="black" points="2722.5,-155 2447.5,-155 2447.5,-72 2722.5,-72 2722.5,-155"/>
<text text-anchor="middle" x="2585" y="-139.8" font-family="Times,serif" font-size="14.00">sdComp &lt;= 2.0</text>
<text text-anchor="middle" x="2585" y="-124.8" font-family="Times,serif" font-size="14.00">gini = 0.81</text>
<text text-anchor="middle" x="2585" y="-109.8" font-family="Times,serif" font-size="14.00">samples = 400</text>
<text text-anchor="middle" x="2585" y="-94.8" font-family="Times,serif" font-size="14.00">value = [40, 48, 130, 18, 60, 40, 64]</text>
<text text-anchor="middle" x="2585" y="-79.8" font-family="Times,serif" font-size="14.00">class = BIL</text>
</g>
<!-- 508&#45;&gt;542 -->
<g id="edge28" class="edge">
<title>508&#45;&gt;542</title>
<path fill="none" stroke="black" d="M2402.14,-190.91C2426.79,-180.61 2453.41,-169.49 2478.49,-159"/>
<polygon fill="black" stroke="black" points="2480.15,-162.11 2488.03,-155.02 2477.45,-155.65 2480.15,-162.11"/>
</g>
<!-- 510 -->
<g id="node27" class="node">
<title>510</title>
<polygon fill="#c0c0c0" stroke="black" points="2296,-36 2242,-36 2242,0 2296,0 2296,-36"/>
<text text-anchor="middle" x="2269" y="-14.3" font-family="Times,serif" font-size="14.00">(...)</text>
</g>
<!-- 509&#45;&gt;510 -->
<g id="edge26" class="edge">
<title>509&#45;&gt;510</title>
<path fill="none" stroke="black" d="M2289.31,-71.76C2285.96,-63.04 2282.49,-54.04 2279.39,-45.99"/>
<polygon fill="black" stroke="black" points="2282.56,-44.48 2275.7,-36.41 2276.03,-46.99 2282.56,-44.48"/>
</g>
<!-- 529 -->
<g id="node28" class="node">
<title>529</title>
<polygon fill="#c0c0c0" stroke="black" points="2368,-36 2314,-36 2314,0 2368,0 2368,-36"/>
<text text-anchor="middle" x="2341" y="-14.3" font-family="Times,serif" font-size="14.00">(...)</text>
</g>
<!-- 509&#45;&gt;529 -->
<g id="edge27" class="edge">
<title>509&#45;&gt;529</title>
<path fill="none" stroke="black" d="M2320.69,-71.76C2324.04,-63.04 2327.51,-54.04 2330.61,-45.99"/>
<polygon fill="black" stroke="black" points="2333.97,-46.99 2334.3,-36.41 2327.44,-44.48 2333.97,-46.99"/>
</g>
<!-- 543 -->
<g id="node30" class="node">
<title>543</title>
<polygon fill="#c0c0c0" stroke="black" points="2576,-36 2522,-36 2522,0 2576,0 2576,-36"/>
<text text-anchor="middle" x="2549" y="-14.3" font-family="Times,serif" font-size="14.00">(...)</text>
</g>
<!-- 542&#45;&gt;543 -->
<g id="edge29" class="edge">
<title>542&#45;&gt;543</title>
<path fill="none" stroke="black" d="M2569.31,-71.76C2565.96,-63.04 2562.49,-54.04 2559.39,-45.99"/>
<polygon fill="black" stroke="black" points="2562.56,-44.48 2555.7,-36.41 2556.03,-46.99 2562.56,-44.48"/>
</g>
<!-- 552 -->
<g id="node31" class="node">
<title>552</title>
<polygon fill="#c0c0c0" stroke="black" points="2648,-36 2594,-36 2594,0 2648,0 2648,-36"/>
<text text-anchor="middle" x="2621" y="-14.3" font-family="Times,serif" font-size="14.00">(...)</text>
</g>
<!-- 542&#45;&gt;552 -->
<g id="edge30" class="edge">
<title>542&#45;&gt;552</title>
<path fill="none" stroke="black" d="M2600.69,-71.76C2604.04,-63.04 2607.51,-54.04 2610.61,-45.99"/>
<polygon fill="black" stroke="black" points="2613.97,-46.99 2614.3,-36.41 2607.44,-44.48 2613.97,-46.99"/>
</g>
</g>
</svg>
