<?xml version="1.0" encoding="UTF-8" standalone="no"?>
<!DOCTYPE svg PUBLIC "-//W3C//DTD SVG 1.1//EN"
 "http://www.w3.org/Graphics/SVG/1.1/DTD/svg11.dtd">
<!-- Generated by graphviz version 2.43.0 (0)
 -->
<!-- Title: Tree Pages: 1 -->
<svg width="1667pt" height="520pt"
 viewBox="0.00 0.00 1666.50 520.00" xmlns="http://www.w3.org/2000/svg" xmlns:xlink="http://www.w3.org/1999/xlink">
<g id="graph0" class="graph" transform="scale(1 1) rotate(0) translate(4 516)">
<title>Tree</title>
<polygon fill="white" stroke="transparent" points="-4,4 -4,-516 1662.5,-516 1662.5,4 -4,4"/>
<!-- 0 -->
<g id="node1" class="node">
<title>0</title>
<polygon fill="#fcfafe" stroke="black" points="928.5,-512 716.5,-512 716.5,-429 928.5,-429 928.5,-512"/>
<text text-anchor="middle" x="822.5" y="-496.8" font-family="Times,serif" font-size="14.00">CCR &lt;= 5.5</text>
<text text-anchor="middle" x="822.5" y="-481.8" font-family="Times,serif" font-size="14.00">gini = 0.64</text>
<text text-anchor="middle" x="822.5" y="-466.8" font-family="Times,serif" font-size="14.00">samples = 22896</text>
<text text-anchor="middle" x="822.5" y="-451.8" font-family="Times,serif" font-size="14.00">value = [4578, 8992, 9326]</text>
<text text-anchor="middle" x="822.5" y="-436.8" font-family="Times,serif" font-size="14.00">class = None</text>
</g>
<!-- 1 -->
<g id="node2" class="node">
<title>1</title>
<polygon fill="#b8f6d2" stroke="black" points="730.5,-393 518.5,-393 518.5,-310 730.5,-310 730.5,-393"/>
<text text-anchor="middle" x="624.5" y="-377.8" font-family="Times,serif" font-size="14.00">graphDepth &lt;= 9.0</text>
<text text-anchor="middle" x="624.5" y="-362.8" font-family="Times,serif" font-size="14.00">gini = 0.56</text>
<text text-anchor="middle" x="624.5" y="-347.8" font-family="Times,serif" font-size="14.00">samples = 12244</text>
<text text-anchor="middle" x="624.5" y="-332.8" font-family="Times,serif" font-size="14.00">value = [3988, 6956, 1300]</text>
<text text-anchor="middle" x="624.5" y="-317.8" font-family="Times,serif" font-size="14.00">class = DCP</text>
</g>
<!-- 0&#45;&gt;1 -->
<g id="edge1" class="edge">
<title>0&#45;&gt;1</title>
<path fill="none" stroke="black" d="M753.8,-428.91C737.06,-419.02 719.05,-408.37 701.93,-398.25"/>
<polygon fill="black" stroke="black" points="703.46,-395.09 693.07,-393.02 699.9,-401.12 703.46,-395.09"/>
<text text-anchor="middle" x="699.3" y="-413.53" font-family="Times,serif" font-size="14.00">True</text>
</g>
<!-- 220 -->
<g id="node17" class="node">
<title>220</title>
<polygon fill="#a775ed" stroke="black" points="1136,-393 933,-393 933,-310 1136,-310 1136,-393"/>
<text text-anchor="middle" x="1034.5" y="-377.8" font-family="Times,serif" font-size="14.00">sdComm &lt;= 2.0</text>
<text text-anchor="middle" x="1034.5" y="-362.8" font-family="Times,serif" font-size="14.00">gini = 0.393</text>
<text text-anchor="middle" x="1034.5" y="-347.8" font-family="Times,serif" font-size="14.00">samples = 10652</text>
<text text-anchor="middle" x="1034.5" y="-332.8" font-family="Times,serif" font-size="14.00">value = [590, 2036, 8026]</text>
<text text-anchor="middle" x="1034.5" y="-317.8" font-family="Times,serif" font-size="14.00">class = None</text>
</g>
<!-- 0&#45;&gt;220 -->
<g id="edge16" class="edge">
<title>0&#45;&gt;220</title>
<path fill="none" stroke="black" d="M896.05,-428.91C914.14,-418.92 933.62,-408.17 952.1,-397.98"/>
<polygon fill="black" stroke="black" points="954.01,-400.92 961.08,-393.02 950.63,-394.79 954.01,-400.92"/>
<text text-anchor="middle" x="954.14" y="-413.34" font-family="Times,serif" font-size="14.00">False</text>
</g>
<!-- 2 -->
<g id="node3" class="node">
<title>2</title>
<polygon fill="#cbf8de" stroke="black" points="423.5,-274 211.5,-274 211.5,-191 423.5,-191 423.5,-274"/>
<text text-anchor="middle" x="317.5" y="-258.8" font-family="Times,serif" font-size="14.00">CCR &lt;= 0.55</text>
<text text-anchor="middle" x="317.5" y="-243.8" font-family="Times,serif" font-size="14.00">gini = 0.576</text>
<text text-anchor="middle" x="317.5" y="-228.8" font-family="Times,serif" font-size="14.00">samples = 9904</text>
<text text-anchor="middle" x="317.5" y="-213.8" font-family="Times,serif" font-size="14.00">value = [3584, 5254, 1066]</text>
<text text-anchor="middle" x="317.5" y="-198.8" font-family="Times,serif" font-size="14.00">class = DCP</text>
</g>
<!-- 1&#45;&gt;2 -->
<g id="edge2" class="edge">
<title>1&#45;&gt;2</title>
<path fill="none" stroke="black" d="M518.42,-310.07C490.86,-299.57 461.03,-288.2 433.01,-277.52"/>
<polygon fill="black" stroke="black" points="434.18,-274.22 423.59,-273.93 431.68,-280.76 434.18,-274.22"/>
</g>
<!-- 147 -->
<g id="node10" class="node">
<title>147</title>
<polygon fill="#7aeeab" stroke="black" points="721.5,-274 527.5,-274 527.5,-191 721.5,-191 721.5,-274"/>
<text text-anchor="middle" x="624.5" y="-258.8" font-family="Times,serif" font-size="14.00">sdComm &lt;= 0.065</text>
<text text-anchor="middle" x="624.5" y="-243.8" font-family="Times,serif" font-size="14.00">gini = 0.431</text>
<text text-anchor="middle" x="624.5" y="-228.8" font-family="Times,serif" font-size="14.00">samples = 2340</text>
<text text-anchor="middle" x="624.5" y="-213.8" font-family="Times,serif" font-size="14.00">value = [404, 1702, 234]</text>
<text text-anchor="middle" x="624.5" y="-198.8" font-family="Times,serif" font-size="14.00">class = DCP</text>
</g>
<!-- 1&#45;&gt;147 -->
<g id="edge9" class="edge">
<title>1&#45;&gt;147</title>
<path fill="none" stroke="black" d="M624.5,-309.91C624.5,-301.65 624.5,-292.86 624.5,-284.3"/>
<polygon fill="black" stroke="black" points="628,-284.02 624.5,-274.02 621,-284.02 628,-284.02"/>
</g>
<!-- 3 -->
<g id="node4" class="node">
<title>3</title>
<polygon fill="#d0f9e1" stroke="black" points="203,-155 0,-155 0,-72 203,-72 203,-155"/>
<text text-anchor="middle" x="101.5" y="-139.8" font-family="Times,serif" font-size="14.00">sdComm &lt;= 0.02</text>
<text text-anchor="middle" x="101.5" y="-124.8" font-family="Times,serif" font-size="14.00">gini = 0.546</text>
<text text-anchor="middle" x="101.5" y="-109.8" font-family="Times,serif" font-size="14.00">samples = 6630</text>
<text text-anchor="middle" x="101.5" y="-94.8" font-family="Times,serif" font-size="14.00">value = [2638, 3584, 408]</text>
<text text-anchor="middle" x="101.5" y="-79.8" font-family="Times,serif" font-size="14.00">class = DCP</text>
</g>
<!-- 2&#45;&gt;3 -->
<g id="edge3" class="edge">
<title>2&#45;&gt;3</title>
<path fill="none" stroke="black" d="M242.56,-190.91C224.05,-180.88 204.1,-170.07 185.2,-159.84"/>
<polygon fill="black" stroke="black" points="186.77,-156.71 176.31,-155.02 183.43,-162.86 186.77,-156.71"/>
</g>
<!-- 72 -->
<g id="node7" class="node">
<title>72</title>
<polygon fill="#c1f7d8" stroke="black" points="414.5,-155 220.5,-155 220.5,-72 414.5,-72 414.5,-155"/>
<text text-anchor="middle" x="317.5" y="-139.8" font-family="Times,serif" font-size="14.00">nbproc &lt;= 4.5</text>
<text text-anchor="middle" x="317.5" y="-124.8" font-family="Times,serif" font-size="14.00">gini = 0.616</text>
<text text-anchor="middle" x="317.5" y="-109.8" font-family="Times,serif" font-size="14.00">samples = 3274</text>
<text text-anchor="middle" x="317.5" y="-94.8" font-family="Times,serif" font-size="14.00">value = [946, 1670, 658]</text>
<text text-anchor="middle" x="317.5" y="-79.8" font-family="Times,serif" font-size="14.00">class = DCP</text>
</g>
<!-- 2&#45;&gt;72 -->
<g id="edge6" class="edge">
<title>2&#45;&gt;72</title>
<path fill="none" stroke="black" d="M317.5,-190.91C317.5,-182.65 317.5,-173.86 317.5,-165.3"/>
<polygon fill="black" stroke="black" points="321,-165.02 317.5,-155.02 314,-165.02 321,-165.02"/>
</g>
<!-- 4 -->
<g id="node5" class="node">
<title>4</title>
<polygon fill="#c0c0c0" stroke="black" points="92.5,-36 38.5,-36 38.5,0 92.5,0 92.5,-36"/>
<text text-anchor="middle" x="65.5" y="-14.3" font-family="Times,serif" font-size="14.00">(...)</text>
</g>
<!-- 3&#45;&gt;4 -->
<g id="edge4" class="edge">
<title>3&#45;&gt;4</title>
<path fill="none" stroke="black" d="M85.81,-71.76C82.46,-63.04 78.99,-54.04 75.89,-45.99"/>
<polygon fill="black" stroke="black" points="79.06,-44.48 72.2,-36.41 72.53,-46.99 79.06,-44.48"/>
</g>
<!-- 23 -->
<g id="node6" class="node">
<title>23</title>
<polygon fill="#c0c0c0" stroke="black" points="164.5,-36 110.5,-36 110.5,0 164.5,0 164.5,-36"/>
<text text-anchor="middle" x="137.5" y="-14.3" font-family="Times,serif" font-size="14.00">(...)</text>
</g>
<!-- 3&#45;&gt;23 -->
<g id="edge5" class="edge">
<title>3&#45;&gt;23</title>
<path fill="none" stroke="black" d="M117.19,-71.76C120.54,-63.04 124.01,-54.04 127.11,-45.99"/>
<polygon fill="black" stroke="black" points="130.47,-46.99 130.8,-36.41 123.94,-44.48 130.47,-46.99"/>
</g>
<!-- 73 -->
<g id="node8" class="node">
<title>73</title>
<polygon fill="#c0c0c0" stroke="black" points="301.5,-36 247.5,-36 247.5,0 301.5,0 301.5,-36"/>
<text text-anchor="middle" x="274.5" y="-14.3" font-family="Times,serif" font-size="14.00">(...)</text>
</g>
<!-- 72&#45;&gt;73 -->
<g id="edge7" class="edge">
<title>72&#45;&gt;73</title>
<path fill="none" stroke="black" d="M298.76,-71.76C294.71,-62.94 290.52,-53.84 286.79,-45.72"/>
<polygon fill="black" stroke="black" points="289.86,-44.03 282.5,-36.41 283.5,-46.95 289.86,-44.03"/>
</g>
<!-- 102 -->
<g id="node9" class="node">
<title>102</title>
<polygon fill="#c0c0c0" stroke="black" points="373.5,-36 319.5,-36 319.5,0 373.5,0 373.5,-36"/>
<text text-anchor="middle" x="346.5" y="-14.3" font-family="Times,serif" font-size="14.00">(...)</text>
</g>
<!-- 72&#45;&gt;102 -->
<g id="edge8" class="edge">
<title>72&#45;&gt;102</title>
<path fill="none" stroke="black" d="M330.14,-71.76C332.84,-63.04 335.63,-54.04 338.13,-45.99"/>
<polygon fill="black" stroke="black" points="341.48,-46.99 341.1,-36.41 334.8,-44.92 341.48,-46.99"/>
</g>
<!-- 148 -->
<g id="node11" class="node">
<title>148</title>
<polygon fill="#a7f3c7" stroke="black" points="608.5,-155 432.5,-155 432.5,-72 608.5,-72 608.5,-155"/>
<text text-anchor="middle" x="520.5" y="-139.8" font-family="Times,serif" font-size="14.00">sdComp &lt;= 0.02</text>
<text text-anchor="middle" x="520.5" y="-124.8" font-family="Times,serif" font-size="14.00">gini = 0.52</text>
<text text-anchor="middle" x="520.5" y="-109.8" font-family="Times,serif" font-size="14.00">samples = 958</text>
<text text-anchor="middle" x="520.5" y="-94.8" font-family="Times,serif" font-size="14.00">value = [296, 590, 72]</text>
<text text-anchor="middle" x="520.5" y="-79.8" font-family="Times,serif" font-size="14.00">class = DCP</text>
</g>
<!-- 147&#45;&gt;148 -->
<g id="edge10" class="edge">
<title>147&#45;&gt;148</title>
<path fill="none" stroke="black" d="M588.42,-190.91C580.35,-181.83 571.72,-172.12 563.41,-162.77"/>
<polygon fill="black" stroke="black" points="565.78,-160.17 556.52,-155.02 560.55,-164.82 565.78,-160.17"/>
</g>
<!-- 167 -->
<g id="node14" class="node">
<title>167</title>
<polygon fill="#65eb9d" stroke="black" points="820.5,-155 626.5,-155 626.5,-72 820.5,-72 820.5,-155"/>
<text text-anchor="middle" x="723.5" y="-139.8" font-family="Times,serif" font-size="14.00">sdComm &lt;= 0.65</text>
<text text-anchor="middle" x="723.5" y="-124.8" font-family="Times,serif" font-size="14.00">gini = 0.333</text>
<text text-anchor="middle" x="723.5" y="-109.8" font-family="Times,serif" font-size="14.00">samples = 1382</text>
<text text-anchor="middle" x="723.5" y="-94.8" font-family="Times,serif" font-size="14.00">value = [108, 1112, 162]</text>
<text text-anchor="middle" x="723.5" y="-79.8" font-family="Times,serif" font-size="14.00">class = DCP</text>
</g>
<!-- 147&#45;&gt;167 -->
<g id="edge13" class="edge">
<title>147&#45;&gt;167</title>
<path fill="none" stroke="black" d="M658.85,-190.91C666.53,-181.83 674.74,-172.12 682.66,-162.77"/>
<polygon fill="black" stroke="black" points="685.43,-164.92 689.21,-155.02 680.08,-160.39 685.43,-164.92"/>
</g>
<!-- 149 -->
<g id="node12" class="node">
<title>149</title>
<polygon fill="#c0c0c0" stroke="black" points="504.5,-36 450.5,-36 450.5,0 504.5,0 504.5,-36"/>
<text text-anchor="middle" x="477.5" y="-14.3" font-family="Times,serif" font-size="14.00">(...)</text>
</g>
<!-- 148&#45;&gt;149 -->
<g id="edge11" class="edge">
<title>148&#45;&gt;149</title>
<path fill="none" stroke="black" d="M501.76,-71.76C497.71,-62.94 493.52,-53.84 489.79,-45.72"/>
<polygon fill="black" stroke="black" points="492.86,-44.03 485.5,-36.41 486.5,-46.95 492.86,-44.03"/>
</g>
<!-- 150 -->
<g id="node13" class="node">
<title>150</title>
<polygon fill="#c0c0c0" stroke="black" points="576.5,-36 522.5,-36 522.5,0 576.5,0 576.5,-36"/>
<text text-anchor="middle" x="549.5" y="-14.3" font-family="Times,serif" font-size="14.00">(...)</text>
</g>
<!-- 148&#45;&gt;150 -->
<g id="edge12" class="edge">
<title>148&#45;&gt;150</title>
<path fill="none" stroke="black" d="M533.14,-71.76C535.84,-63.04 538.63,-54.04 541.13,-45.99"/>
<polygon fill="black" stroke="black" points="544.48,-46.99 544.1,-36.41 537.8,-44.92 544.48,-46.99"/>
</g>
<!-- 168 -->
<g id="node15" class="node">
<title>168</title>
<polygon fill="#c0c0c0" stroke="black" points="712.5,-36 658.5,-36 658.5,0 712.5,0 712.5,-36"/>
<text text-anchor="middle" x="685.5" y="-14.3" font-family="Times,serif" font-size="14.00">(...)</text>
</g>
<!-- 167&#45;&gt;168 -->
<g id="edge14" class="edge">
<title>167&#45;&gt;168</title>
<path fill="none" stroke="black" d="M706.94,-71.76C703.36,-62.94 699.66,-53.84 696.36,-45.72"/>
<polygon fill="black" stroke="black" points="699.58,-44.35 692.57,-36.41 693.1,-46.99 699.58,-44.35"/>
</g>
<!-- 203 -->
<g id="node16" class="node">
<title>203</title>
<polygon fill="#c0c0c0" stroke="black" points="784.5,-36 730.5,-36 730.5,0 784.5,0 784.5,-36"/>
<text text-anchor="middle" x="757.5" y="-14.3" font-family="Times,serif" font-size="14.00">(...)</text>
</g>
<!-- 167&#45;&gt;203 -->
<g id="edge15" class="edge">
<title>167&#45;&gt;203</title>
<path fill="none" stroke="black" d="M738.31,-71.76C741.48,-63.04 744.76,-54.04 747.68,-45.99"/>
<polygon fill="black" stroke="black" points="751.04,-47 751.17,-36.41 744.46,-44.61 751.04,-47"/>
</g>
<!-- 221 -->
<g id="node18" class="node">
<title>221</title>
<polygon fill="#b78df0" stroke="black" points="1131.5,-274 937.5,-274 937.5,-191 1131.5,-191 1131.5,-274"/>
<text text-anchor="middle" x="1034.5" y="-258.8" font-family="Times,serif" font-size="14.00">graphSize &lt;= 40.0</text>
<text text-anchor="middle" x="1034.5" y="-243.8" font-family="Times,serif" font-size="14.00">gini = 0.457</text>
<text text-anchor="middle" x="1034.5" y="-228.8" font-family="Times,serif" font-size="14.00">samples = 3664</text>
<text text-anchor="middle" x="1034.5" y="-213.8" font-family="Times,serif" font-size="14.00">value = [182, 968, 2514]</text>
<text text-anchor="middle" x="1034.5" y="-198.8" font-family="Times,serif" font-size="14.00">class = None</text>
</g>
<!-- 220&#45;&gt;221 -->
<g id="edge17" class="edge">
<title>220&#45;&gt;221</title>
<path fill="none" stroke="black" d="M1034.5,-309.91C1034.5,-301.65 1034.5,-292.86 1034.5,-284.3"/>
<polygon fill="black" stroke="black" points="1038,-284.02 1034.5,-274.02 1031,-284.02 1038,-284.02"/>
</g>
<!-- 274 -->
<g id="node25" class="node">
<title>274</title>
<polygon fill="#a06aeb" stroke="black" points="1451,-274 1248,-274 1248,-191 1451,-191 1451,-274"/>
<text text-anchor="middle" x="1349.5" y="-258.8" font-family="Times,serif" font-size="14.00">sdComp &lt;= 2.0</text>
<text text-anchor="middle" x="1349.5" y="-243.8" font-family="Times,serif" font-size="14.00">gini = 0.351</text>
<text text-anchor="middle" x="1349.5" y="-228.8" font-family="Times,serif" font-size="14.00">samples = 6988</text>
<text text-anchor="middle" x="1349.5" y="-213.8" font-family="Times,serif" font-size="14.00">value = [408, 1068, 5512]</text>
<text text-anchor="middle" x="1349.5" y="-198.8" font-family="Times,serif" font-size="14.00">class = None</text>
</g>
<!-- 220&#45;&gt;274 -->
<g id="edge24" class="edge">
<title>220&#45;&gt;274</title>
<path fill="none" stroke="black" d="M1136.34,-312.68C1168.81,-300.61 1204.91,-287.21 1238.03,-274.9"/>
<polygon fill="black" stroke="black" points="1239.59,-278.06 1247.74,-271.29 1237.15,-271.5 1239.59,-278.06"/>
</g>
<!-- 222 -->
<g id="node19" class="node">
<title>222</title>
<polygon fill="#c3a1f3" stroke="black" points="1032.5,-155 838.5,-155 838.5,-72 1032.5,-72 1032.5,-155"/>
<text text-anchor="middle" x="935.5" y="-139.8" font-family="Times,serif" font-size="14.00">sdComp &lt;= 6.5</text>
<text text-anchor="middle" x="935.5" y="-124.8" font-family="Times,serif" font-size="14.00">gini = 0.498</text>
<text text-anchor="middle" x="935.5" y="-109.8" font-family="Times,serif" font-size="14.00">samples = 2334</text>
<text text-anchor="middle" x="935.5" y="-94.8" font-family="Times,serif" font-size="14.00">value = [134, 716, 1484]</text>
<text text-anchor="middle" x="935.5" y="-79.8" font-family="Times,serif" font-size="14.00">class = None</text>
</g>
<!-- 221&#45;&gt;222 -->
<g id="edge18" class="edge">
<title>221&#45;&gt;222</title>
<path fill="none" stroke="black" d="M1000.15,-190.91C992.47,-181.83 984.26,-172.12 976.34,-162.77"/>
<polygon fill="black" stroke="black" points="978.92,-160.39 969.79,-155.02 973.57,-164.92 978.92,-160.39"/>
</g>
<!-- 253 -->
<g id="node22" class="node">
<title>253</title>
<polygon fill="#a470ec" stroke="black" points="1235,-155 1050,-155 1050,-72 1235,-72 1235,-155"/>
<text text-anchor="middle" x="1142.5" y="-139.8" font-family="Times,serif" font-size="14.00">graphDepth &lt;= 12.5</text>
<text text-anchor="middle" x="1142.5" y="-124.8" font-family="Times,serif" font-size="14.00">gini = 0.363</text>
<text text-anchor="middle" x="1142.5" y="-109.8" font-family="Times,serif" font-size="14.00">samples = 1330</text>
<text text-anchor="middle" x="1142.5" y="-94.8" font-family="Times,serif" font-size="14.00">value = [48, 252, 1030]</text>
<text text-anchor="middle" x="1142.5" y="-79.8" font-family="Times,serif" font-size="14.00">class = None</text>
</g>
<!-- 221&#45;&gt;253 -->
<g id="edge21" class="edge">
<title>221&#45;&gt;253</title>
<path fill="none" stroke="black" d="M1071.97,-190.91C1080.43,-181.74 1089.49,-171.93 1098.2,-162.49"/>
<polygon fill="black" stroke="black" points="1100.89,-164.74 1105.1,-155.02 1095.74,-159.99 1100.89,-164.74"/>
</g>
<!-- 223 -->
<g id="node20" class="node">
<title>223</title>
<polygon fill="#c0c0c0" stroke="black" points="921.5,-36 867.5,-36 867.5,0 921.5,0 921.5,-36"/>
<text text-anchor="middle" x="894.5" y="-14.3" font-family="Times,serif" font-size="14.00">(...)</text>
</g>
<!-- 222&#45;&gt;223 -->
<g id="edge19" class="edge">
<title>222&#45;&gt;223</title>
<path fill="none" stroke="black" d="M917.64,-71.76C913.77,-62.94 909.78,-53.84 906.22,-45.72"/>
<polygon fill="black" stroke="black" points="909.35,-44.16 902.13,-36.41 902.94,-46.97 909.35,-44.16"/>
</g>
<!-- 244 -->
<g id="node21" class="node">
<title>244</title>
<polygon fill="#c0c0c0" stroke="black" points="993.5,-36 939.5,-36 939.5,0 993.5,0 993.5,-36"/>
<text text-anchor="middle" x="966.5" y="-14.3" font-family="Times,serif" font-size="14.00">(...)</text>
</g>
<!-- 222&#45;&gt;244 -->
<g id="edge20" class="edge">
<title>222&#45;&gt;244</title>
<path fill="none" stroke="black" d="M949.01,-71.76C951.9,-63.04 954.88,-54.04 957.55,-45.99"/>
<polygon fill="black" stroke="black" points="960.9,-47 960.73,-36.41 954.26,-44.8 960.9,-47"/>
</g>
<!-- 254 -->
<g id="node23" class="node">
<title>254</title>
<polygon fill="#c0c0c0" stroke="black" points="1128.5,-36 1074.5,-36 1074.5,0 1128.5,0 1128.5,-36"/>
<text text-anchor="middle" x="1101.5" y="-14.3" font-family="Times,serif" font-size="14.00">(...)</text>
</g>
<!-- 253&#45;&gt;254 -->
<g id="edge22" class="edge">
<title>253&#45;&gt;254</title>
<path fill="none" stroke="black" d="M1124.64,-71.76C1120.77,-62.94 1116.78,-53.84 1113.22,-45.72"/>
<polygon fill="black" stroke="black" points="1116.35,-44.16 1109.13,-36.41 1109.94,-46.97 1116.35,-44.16"/>
</g>
<!-- 255 -->
<g id="node24" class="node">
<title>255</title>
<polygon fill="#c0c0c0" stroke="black" points="1200.5,-36 1146.5,-36 1146.5,0 1200.5,0 1200.5,-36"/>
<text text-anchor="middle" x="1173.5" y="-14.3" font-family="Times,serif" font-size="14.00">(...)</text>
</g>
<!-- 253&#45;&gt;255 -->
<g id="edge23" class="edge">
<title>253&#45;&gt;255</title>
<path fill="none" stroke="black" d="M1156.01,-71.76C1158.9,-63.04 1161.88,-54.04 1164.55,-45.99"/>
<polygon fill="black" stroke="black" points="1167.9,-47 1167.73,-36.41 1161.26,-44.8 1167.9,-47"/>
</g>
<!-- 275 -->
<g id="node26" class="node">
<title>275</title>
<polygon fill="#aa7aed" stroke="black" points="1446.5,-155 1252.5,-155 1252.5,-72 1446.5,-72 1446.5,-155"/>
<text text-anchor="middle" x="1349.5" y="-139.8" font-family="Times,serif" font-size="14.00">graphDepth &lt;= 25.5</text>
<text text-anchor="middle" x="1349.5" y="-124.8" font-family="Times,serif" font-size="14.00">gini = 0.401</text>
<text text-anchor="middle" x="1349.5" y="-109.8" font-family="Times,serif" font-size="14.00">samples = 2940</text>
<text text-anchor="middle" x="1349.5" y="-94.8" font-family="Times,serif" font-size="14.00">value = [132, 624, 2184]</text>
<text text-anchor="middle" x="1349.5" y="-79.8" font-family="Times,serif" font-size="14.00">class = None</text>
</g>
<!-- 274&#45;&gt;275 -->
<g id="edge25" class="edge">
<title>274&#45;&gt;275</title>
<path fill="none" stroke="black" d="M1349.5,-190.91C1349.5,-182.65 1349.5,-173.86 1349.5,-165.3"/>
<polygon fill="black" stroke="black" points="1353,-165.02 1349.5,-155.02 1346,-165.02 1353,-165.02"/>
</g>
<!-- 318 -->
<g id="node29" class="node">
<title>318</title>
<polygon fill="#9a61ea" stroke="black" points="1658.5,-155 1464.5,-155 1464.5,-72 1658.5,-72 1658.5,-155"/>
<text text-anchor="middle" x="1561.5" y="-139.8" font-family="Times,serif" font-size="14.00">sdComp &lt;= 6.5</text>
<text text-anchor="middle" x="1561.5" y="-124.8" font-family="Times,serif" font-size="14.00">gini = 0.307</text>
<text text-anchor="middle" x="1561.5" y="-109.8" font-family="Times,serif" font-size="14.00">samples = 4048</text>
<text text-anchor="middle" x="1561.5" y="-94.8" font-family="Times,serif" font-size="14.00">value = [276, 444, 3328]</text>
<text text-anchor="middle" x="1561.5" y="-79.8" font-family="Times,serif" font-size="14.00">class = None</text>
</g>
<!-- 274&#45;&gt;318 -->
<g id="edge28" class="edge">
<title>274&#45;&gt;318</title>
<path fill="none" stroke="black" d="M1423.05,-190.91C1441.14,-180.92 1460.62,-170.17 1479.1,-159.98"/>
<polygon fill="black" stroke="black" points="1481.01,-162.92 1488.08,-155.02 1477.63,-156.79 1481.01,-162.92"/>
</g>
<!-- 276 -->
<g id="node27" class="node">
<title>276</title>
<polygon fill="#c0c0c0" stroke="black" points="1340.5,-36 1286.5,-36 1286.5,0 1340.5,0 1340.5,-36"/>
<text text-anchor="middle" x="1313.5" y="-14.3" font-family="Times,serif" font-size="14.00">(...)</text>
</g>
<!-- 275&#45;&gt;276 -->
<g id="edge26" class="edge">
<title>275&#45;&gt;276</title>
<path fill="none" stroke="black" d="M1333.81,-71.76C1330.46,-63.04 1326.99,-54.04 1323.89,-45.99"/>
<polygon fill="black" stroke="black" points="1327.06,-44.48 1320.2,-36.41 1320.53,-46.99 1327.06,-44.48"/>
</g>
<!-- 311 -->
<g id="node28" class="node">
<title>311</title>
<polygon fill="#c0c0c0" stroke="black" points="1412.5,-36 1358.5,-36 1358.5,0 1412.5,0 1412.5,-36"/>
<text text-anchor="middle" x="1385.5" y="-14.3" font-family="Times,serif" font-size="14.00">(...)</text>
</g>
<!-- 275&#45;&gt;311 -->
<g id="edge27" class="edge">
<title>275&#45;&gt;311</title>
<path fill="none" stroke="black" d="M1365.19,-71.76C1368.54,-63.04 1372.01,-54.04 1375.11,-45.99"/>
<polygon fill="black" stroke="black" points="1378.47,-46.99 1378.8,-36.41 1371.94,-44.48 1378.47,-46.99"/>
</g>
<!-- 319 -->
<g id="node30" class="node">
<title>319</title>
<polygon fill="#c0c0c0" stroke="black" points="1552.5,-36 1498.5,-36 1498.5,0 1552.5,0 1552.5,-36"/>
<text text-anchor="middle" x="1525.5" y="-14.3" font-family="Times,serif" font-size="14.00">(...)</text>
</g>
<!-- 318&#45;&gt;319 -->
<g id="edge29" class="edge">
<title>318&#45;&gt;319</title>
<path fill="none" stroke="black" d="M1545.81,-71.76C1542.46,-63.04 1538.99,-54.04 1535.89,-45.99"/>
<polygon fill="black" stroke="black" points="1539.06,-44.48 1532.2,-36.41 1532.53,-46.99 1539.06,-44.48"/>
</g>
<!-- 346 -->
<g id="node31" class="node">
<title>346</title>
<polygon fill="#c0c0c0" stroke="black" points="1624.5,-36 1570.5,-36 1570.5,0 1624.5,0 1624.5,-36"/>
<text text-anchor="middle" x="1597.5" y="-14.3" font-family="Times,serif" font-size="14.00">(...)</text>
</g>
<!-- 318&#45;&gt;346 -->
<g id="edge30" class="edge">
<title>318&#45;&gt;346</title>
<path fill="none" stroke="black" d="M1577.19,-71.76C1580.54,-63.04 1584.01,-54.04 1587.11,-45.99"/>
<polygon fill="black" stroke="black" points="1590.47,-46.99 1590.8,-36.41 1583.94,-44.48 1590.47,-46.99"/>
</g>
</g>
</svg>
