<?xml version="1.0" encoding="UTF-8" standalone="no"?>
<!DOCTYPE svg PUBLIC "-//W3C//DTD SVG 1.1//EN"
 "http://www.w3.org/Graphics/SVG/1.1/DTD/svg11.dtd">
<!-- Generated by graphviz version 2.43.0 (0)
 -->
<!-- Title: Tree Pages: 1 -->
<svg width="1390pt" height="520pt"
 viewBox="0.00 0.00 1390.00 520.00" xmlns="http://www.w3.org/2000/svg" xmlns:xlink="http://www.w3.org/1999/xlink">
<g id="graph0" class="graph" transform="scale(1 1) rotate(0) translate(4 516)">
<title>Tree</title>
<polygon fill="white" stroke="transparent" points="-4,4 -4,-516 1386,-516 1386,4 -4,4"/>
<!-- 0 -->
<g id="node1" class="node">
<title>0</title>
<polygon fill="#91c8f1" stroke="black" points="761.5,-512 585.5,-512 585.5,-429 761.5,-429 761.5,-512"/>
<text text-anchor="middle" x="673.5" y="-496.8" font-family="Times,serif" font-size="14.00">CCR &lt;= 5.5</text>
<text text-anchor="middle" x="673.5" y="-481.8" font-family="Times,serif" font-size="14.00">gini = 0.426</text>
<text text-anchor="middle" x="673.5" y="-466.8" font-family="Times,serif" font-size="14.00">samples = 22896</text>
<text text-anchor="middle" x="673.5" y="-451.8" font-family="Times,serif" font-size="14.00">value = [7032, 15864]</text>
<text text-anchor="middle" x="673.5" y="-436.8" font-family="Times,serif" font-size="14.00">class = True</text>
</g>
<!-- 1 -->
<g id="node2" class="node">
<title>1</title>
<polygon fill="#c1e1f7" stroke="black" points="582,-393 415,-393 415,-310 582,-310 582,-393"/>
<text text-anchor="middle" x="498.5" y="-377.8" font-family="Times,serif" font-size="14.00">graphDepth &lt;= 3.5</text>
<text text-anchor="middle" x="498.5" y="-362.8" font-family="Times,serif" font-size="14.00">gini = 0.483</text>
<text text-anchor="middle" x="498.5" y="-347.8" font-family="Times,serif" font-size="14.00">samples = 12244</text>
<text text-anchor="middle" x="498.5" y="-332.8" font-family="Times,serif" font-size="14.00">value = [4996, 7248]</text>
<text text-anchor="middle" x="498.5" y="-317.8" font-family="Times,serif" font-size="14.00">class = True</text>
</g>
<!-- 0&#45;&gt;1 -->
<g id="edge1" class="edge">
<title>0&#45;&gt;1</title>
<path fill="none" stroke="black" d="M612.78,-428.91C598.26,-419.2 582.65,-408.76 567.77,-398.81"/>
<polygon fill="black" stroke="black" points="569.37,-395.67 559.11,-393.02 565.48,-401.49 569.37,-395.67"/>
<text text-anchor="middle" x="563.98" y="-413.84" font-family="Times,serif" font-size="14.00">True</text>
</g>
<!-- 188 -->
<g id="node17" class="node">
<title>188</title>
<polygon fill="#68b4eb" stroke="black" points="936,-393 769,-393 769,-310 936,-310 936,-393"/>
<text text-anchor="middle" x="852.5" y="-377.8" font-family="Times,serif" font-size="14.00">sdComp &lt;= 2.0</text>
<text text-anchor="middle" x="852.5" y="-362.8" font-family="Times,serif" font-size="14.00">gini = 0.309</text>
<text text-anchor="middle" x="852.5" y="-347.8" font-family="Times,serif" font-size="14.00">samples = 10652</text>
<text text-anchor="middle" x="852.5" y="-332.8" font-family="Times,serif" font-size="14.00">value = [2036, 8616]</text>
<text text-anchor="middle" x="852.5" y="-317.8" font-family="Times,serif" font-size="14.00">class = True</text>
</g>
<!-- 0&#45;&gt;188 -->
<g id="edge16" class="edge">
<title>0&#45;&gt;188</title>
<path fill="none" stroke="black" d="M735.6,-428.91C750.6,-419.11 766.73,-408.56 782.07,-398.53"/>
<polygon fill="black" stroke="black" points="784.05,-401.42 790.51,-393.02 780.22,-395.56 784.05,-401.42"/>
<text text-anchor="middle" x="785.38" y="-413.79" font-family="Times,serif" font-size="14.00">False</text>
</g>
<!-- 2 -->
<g id="node3" class="node">
<title>2</title>
<polygon fill="#7cbeee" stroke="black" points="314.5,-274 156.5,-274 156.5,-191 314.5,-191 314.5,-274"/>
<text text-anchor="middle" x="235.5" y="-258.8" font-family="Times,serif" font-size="14.00">nbproc &lt;= 4.5</text>
<text text-anchor="middle" x="235.5" y="-243.8" font-family="Times,serif" font-size="14.00">gini = 0.378</text>
<text text-anchor="middle" x="235.5" y="-228.8" font-family="Times,serif" font-size="14.00">samples = 1992</text>
<text text-anchor="middle" x="235.5" y="-213.8" font-family="Times,serif" font-size="14.00">value = [504, 1488]</text>
<text text-anchor="middle" x="235.5" y="-198.8" font-family="Times,serif" font-size="14.00">class = True</text>
</g>
<!-- 1&#45;&gt;2 -->
<g id="edge2" class="edge">
<title>1&#45;&gt;2</title>
<path fill="none" stroke="black" d="M414.92,-313.32C386.01,-300.46 353.53,-286.01 324.22,-272.97"/>
<polygon fill="black" stroke="black" points="325.38,-269.66 314.82,-268.79 322.54,-276.05 325.38,-269.66"/>
</g>
<!-- 27 -->
<g id="node10" class="node">
<title>27</title>
<polygon fill="#d3e9f9" stroke="black" points="582,-274 415,-274 415,-191 582,-191 582,-274"/>
<text text-anchor="middle" x="498.5" y="-258.8" font-family="Times,serif" font-size="14.00">nbproc &lt;= 4.5</text>
<text text-anchor="middle" x="498.5" y="-243.8" font-family="Times,serif" font-size="14.00">gini = 0.492</text>
<text text-anchor="middle" x="498.5" y="-228.8" font-family="Times,serif" font-size="14.00">samples = 10252</text>
<text text-anchor="middle" x="498.5" y="-213.8" font-family="Times,serif" font-size="14.00">value = [4492, 5760]</text>
<text text-anchor="middle" x="498.5" y="-198.8" font-family="Times,serif" font-size="14.00">class = True</text>
</g>
<!-- 1&#45;&gt;27 -->
<g id="edge9" class="edge">
<title>1&#45;&gt;27</title>
<path fill="none" stroke="black" d="M498.5,-309.91C498.5,-301.65 498.5,-292.86 498.5,-284.3"/>
<polygon fill="black" stroke="black" points="502,-284.02 498.5,-274.02 495,-284.02 502,-284.02"/>
</g>
<!-- 3 -->
<g id="node4" class="node">
<title>3</title>
<polygon fill="#50a9e8" stroke="black" points="143,-155 0,-155 0,-72 143,-72 143,-155"/>
<text text-anchor="middle" x="71.5" y="-139.8" font-family="Times,serif" font-size="14.00">sdComm &lt;= 0.65</text>
<text text-anchor="middle" x="71.5" y="-124.8" font-family="Times,serif" font-size="14.00">gini = 0.188</text>
<text text-anchor="middle" x="71.5" y="-109.8" font-family="Times,serif" font-size="14.00">samples = 646</text>
<text text-anchor="middle" x="71.5" y="-94.8" font-family="Times,serif" font-size="14.00">value = [68, 578]</text>
<text text-anchor="middle" x="71.5" y="-79.8" font-family="Times,serif" font-size="14.00">class = True</text>
</g>
<!-- 2&#45;&gt;3 -->
<g id="edge3" class="edge">
<title>2&#45;&gt;3</title>
<path fill="none" stroke="black" d="M178.6,-190.91C165.12,-181.29 150.63,-170.95 136.81,-161.09"/>
<polygon fill="black" stroke="black" points="138.47,-157.98 128.3,-155.02 134.41,-163.68 138.47,-157.98"/>
</g>
<!-- 10 -->
<g id="node7" class="node">
<title>10</title>
<polygon fill="#98ccf1" stroke="black" points="310,-155 161,-155 161,-72 310,-72 310,-155"/>
<text text-anchor="middle" x="235.5" y="-139.8" font-family="Times,serif" font-size="14.00">CCR &lt;= 0.55</text>
<text text-anchor="middle" x="235.5" y="-124.8" font-family="Times,serif" font-size="14.00">gini = 0.438</text>
<text text-anchor="middle" x="235.5" y="-109.8" font-family="Times,serif" font-size="14.00">samples = 1346</text>
<text text-anchor="middle" x="235.5" y="-94.8" font-family="Times,serif" font-size="14.00">value = [436, 910]</text>
<text text-anchor="middle" x="235.5" y="-79.8" font-family="Times,serif" font-size="14.00">class = True</text>
</g>
<!-- 2&#45;&gt;10 -->
<g id="edge6" class="edge">
<title>2&#45;&gt;10</title>
<path fill="none" stroke="black" d="M235.5,-190.91C235.5,-182.65 235.5,-173.86 235.5,-165.3"/>
<polygon fill="black" stroke="black" points="239,-165.02 235.5,-155.02 232,-165.02 239,-165.02"/>
</g>
<!-- 4 -->
<g id="node5" class="node">
<title>4</title>
<polygon fill="#c0c0c0" stroke="black" points="62.5,-36 8.5,-36 8.5,0 62.5,0 62.5,-36"/>
<text text-anchor="middle" x="35.5" y="-14.3" font-family="Times,serif" font-size="14.00">(...)</text>
</g>
<!-- 3&#45;&gt;4 -->
<g id="edge4" class="edge">
<title>3&#45;&gt;4</title>
<path fill="none" stroke="black" d="M55.81,-71.76C52.46,-63.04 48.99,-54.04 45.89,-45.99"/>
<polygon fill="black" stroke="black" points="49.06,-44.48 42.2,-36.41 42.53,-46.99 49.06,-44.48"/>
</g>
<!-- 9 -->
<g id="node6" class="node">
<title>9</title>
<polygon fill="#c0c0c0" stroke="black" points="134.5,-36 80.5,-36 80.5,0 134.5,0 134.5,-36"/>
<text text-anchor="middle" x="107.5" y="-14.3" font-family="Times,serif" font-size="14.00">(...)</text>
</g>
<!-- 3&#45;&gt;9 -->
<g id="edge5" class="edge">
<title>3&#45;&gt;9</title>
<path fill="none" stroke="black" d="M87.19,-71.76C90.54,-63.04 94.01,-54.04 97.11,-45.99"/>
<polygon fill="black" stroke="black" points="100.47,-46.99 100.8,-36.41 93.94,-44.48 100.47,-46.99"/>
</g>
<!-- 11 -->
<g id="node8" class="node">
<title>11</title>
<polygon fill="#c0c0c0" stroke="black" points="236.5,-36 182.5,-36 182.5,0 236.5,0 236.5,-36"/>
<text text-anchor="middle" x="209.5" y="-14.3" font-family="Times,serif" font-size="14.00">(...)</text>
</g>
<!-- 10&#45;&gt;11 -->
<g id="edge7" class="edge">
<title>10&#45;&gt;11</title>
<path fill="none" stroke="black" d="M224.17,-71.76C221.77,-63.14 219.3,-54.24 217.08,-46.26"/>
<polygon fill="black" stroke="black" points="220.39,-45.1 214.34,-36.41 213.65,-46.98 220.39,-45.1"/>
</g>
<!-- 18 -->
<g id="node9" class="node">
<title>18</title>
<polygon fill="#c0c0c0" stroke="black" points="308.5,-36 254.5,-36 254.5,0 308.5,0 308.5,-36"/>
<text text-anchor="middle" x="281.5" y="-14.3" font-family="Times,serif" font-size="14.00">(...)</text>
</g>
<!-- 10&#45;&gt;18 -->
<g id="edge8" class="edge">
<title>10&#45;&gt;18</title>
<path fill="none" stroke="black" d="M255.54,-71.76C259.93,-62.85 264.46,-53.64 268.48,-45.46"/>
<polygon fill="black" stroke="black" points="271.66,-46.92 272.94,-36.41 265.38,-43.83 271.66,-46.92"/>
</g>
<!-- 28 -->
<g id="node11" class="node">
<title>28</title>
<polygon fill="#a5d2f3" stroke="black" points="485.5,-155 327.5,-155 327.5,-72 485.5,-72 485.5,-155"/>
<text text-anchor="middle" x="406.5" y="-139.8" font-family="Times,serif" font-size="14.00">sdComm &lt;= 0.2</text>
<text text-anchor="middle" x="406.5" y="-124.8" font-family="Times,serif" font-size="14.00">gini = 0.456</text>
<text text-anchor="middle" x="406.5" y="-109.8" font-family="Times,serif" font-size="14.00">samples = 2426</text>
<text text-anchor="middle" x="406.5" y="-94.8" font-family="Times,serif" font-size="14.00">value = [854, 1572]</text>
<text text-anchor="middle" x="406.5" y="-79.8" font-family="Times,serif" font-size="14.00">class = True</text>
</g>
<!-- 27&#45;&gt;28 -->
<g id="edge10" class="edge">
<title>27&#45;&gt;28</title>
<path fill="none" stroke="black" d="M466.58,-190.91C459.52,-181.92 451.96,-172.32 444.68,-163.05"/>
<polygon fill="black" stroke="black" points="447.3,-160.72 438.36,-155.02 441.79,-165.05 447.3,-160.72"/>
</g>
<!-- 85 -->
<g id="node14" class="node">
<title>85</title>
<polygon fill="#e5f2fc" stroke="black" points="670,-155 503,-155 503,-72 670,-72 670,-155"/>
<text text-anchor="middle" x="586.5" y="-139.8" font-family="Times,serif" font-size="14.00">graphSize &lt;= 40.0</text>
<text text-anchor="middle" x="586.5" y="-124.8" font-family="Times,serif" font-size="14.00">gini = 0.498</text>
<text text-anchor="middle" x="586.5" y="-109.8" font-family="Times,serif" font-size="14.00">samples = 7826</text>
<text text-anchor="middle" x="586.5" y="-94.8" font-family="Times,serif" font-size="14.00">value = [3638, 4188]</text>
<text text-anchor="middle" x="586.5" y="-79.8" font-family="Times,serif" font-size="14.00">class = True</text>
</g>
<!-- 27&#45;&gt;85 -->
<g id="edge13" class="edge">
<title>27&#45;&gt;85</title>
<path fill="none" stroke="black" d="M529.03,-190.91C535.79,-181.92 543.02,-172.32 549.98,-163.05"/>
<polygon fill="black" stroke="black" points="552.81,-165.12 556.02,-155.02 547.21,-160.91 552.81,-165.12"/>
</g>
<!-- 29 -->
<g id="node12" class="node">
<title>29</title>
<polygon fill="#c0c0c0" stroke="black" points="403.5,-36 349.5,-36 349.5,0 403.5,0 403.5,-36"/>
<text text-anchor="middle" x="376.5" y="-14.3" font-family="Times,serif" font-size="14.00">(...)</text>
</g>
<!-- 28&#45;&gt;29 -->
<g id="edge11" class="edge">
<title>28&#45;&gt;29</title>
<path fill="none" stroke="black" d="M393.43,-71.76C390.63,-63.04 387.74,-54.04 385.16,-45.99"/>
<polygon fill="black" stroke="black" points="388.47,-44.86 382.08,-36.41 381.81,-47 388.47,-44.86"/>
</g>
<!-- 70 -->
<g id="node13" class="node">
<title>70</title>
<polygon fill="#c0c0c0" stroke="black" points="475.5,-36 421.5,-36 421.5,0 475.5,0 475.5,-36"/>
<text text-anchor="middle" x="448.5" y="-14.3" font-family="Times,serif" font-size="14.00">(...)</text>
</g>
<!-- 28&#45;&gt;70 -->
<g id="edge12" class="edge">
<title>28&#45;&gt;70</title>
<path fill="none" stroke="black" d="M424.8,-71.76C428.76,-62.94 432.85,-53.84 436.5,-45.72"/>
<polygon fill="black" stroke="black" points="439.78,-46.96 440.68,-36.41 433.39,-44.09 439.78,-46.96"/>
</g>
<!-- 86 -->
<g id="node15" class="node">
<title>86</title>
<polygon fill="#c0c0c0" stroke="black" points="559.5,-36 505.5,-36 505.5,0 559.5,0 559.5,-36"/>
<text text-anchor="middle" x="532.5" y="-14.3" font-family="Times,serif" font-size="14.00">(...)</text>
</g>
<!-- 85&#45;&gt;86 -->
<g id="edge14" class="edge">
<title>85&#45;&gt;86</title>
<path fill="none" stroke="black" d="M562.97,-71.76C557.77,-62.75 552.39,-53.44 547.63,-45.19"/>
<polygon fill="black" stroke="black" points="550.58,-43.31 542.55,-36.41 544.52,-46.82 550.58,-43.31"/>
</g>
<!-- 171 -->
<g id="node16" class="node">
<title>171</title>
<polygon fill="#c0c0c0" stroke="black" points="631.5,-36 577.5,-36 577.5,0 631.5,0 631.5,-36"/>
<text text-anchor="middle" x="604.5" y="-14.3" font-family="Times,serif" font-size="14.00">(...)</text>
</g>
<!-- 85&#45;&gt;171 -->
<g id="edge15" class="edge">
<title>85&#45;&gt;171</title>
<path fill="none" stroke="black" d="M594.34,-71.76C596,-63.14 597.72,-54.24 599.25,-46.26"/>
<polygon fill="black" stroke="black" points="602.7,-46.89 601.15,-36.41 595.82,-45.56 602.7,-46.89"/>
</g>
<!-- 189 -->
<g id="node18" class="node">
<title>189</title>
<polygon fill="#50a8e8" stroke="black" points="931.5,-274 773.5,-274 773.5,-191 931.5,-191 931.5,-274"/>
<text text-anchor="middle" x="852.5" y="-258.8" font-family="Times,serif" font-size="14.00">sdComm &lt;= 6.5</text>
<text text-anchor="middle" x="852.5" y="-243.8" font-family="Times,serif" font-size="14.00">gini = 0.187</text>
<text text-anchor="middle" x="852.5" y="-228.8" font-family="Times,serif" font-size="14.00">samples = 4356</text>
<text text-anchor="middle" x="852.5" y="-213.8" font-family="Times,serif" font-size="14.00">value = [456, 3900]</text>
<text text-anchor="middle" x="852.5" y="-198.8" font-family="Times,serif" font-size="14.00">class = True</text>
</g>
<!-- 188&#45;&gt;189 -->
<g id="edge17" class="edge">
<title>188&#45;&gt;189</title>
<path fill="none" stroke="black" d="M852.5,-309.91C852.5,-301.65 852.5,-292.86 852.5,-284.3"/>
<polygon fill="black" stroke="black" points="856,-284.02 852.5,-274.02 849,-284.02 856,-284.02"/>
</g>
<!-- 238 -->
<g id="node25" class="node">
<title>238</title>
<polygon fill="#7bbeee" stroke="black" points="1202,-274 1035,-274 1035,-191 1202,-191 1202,-274"/>
<text text-anchor="middle" x="1118.5" y="-258.8" font-family="Times,serif" font-size="14.00">sdComm &lt;= 2.0</text>
<text text-anchor="middle" x="1118.5" y="-243.8" font-family="Times,serif" font-size="14.00">gini = 0.376</text>
<text text-anchor="middle" x="1118.5" y="-228.8" font-family="Times,serif" font-size="14.00">samples = 6296</text>
<text text-anchor="middle" x="1118.5" y="-213.8" font-family="Times,serif" font-size="14.00">value = [1580, 4716]</text>
<text text-anchor="middle" x="1118.5" y="-198.8" font-family="Times,serif" font-size="14.00">class = True</text>
</g>
<!-- 188&#45;&gt;238 -->
<g id="edge24" class="edge">
<title>188&#45;&gt;238</title>
<path fill="none" stroke="black" d="M936.3,-313.64C964.61,-301.19 996.37,-287.22 1025.36,-274.47"/>
<polygon fill="black" stroke="black" points="1026.92,-277.6 1034.67,-270.37 1024.1,-271.2 1026.92,-277.6"/>
</g>
<!-- 190 -->
<g id="node19" class="node">
<title>190</title>
<polygon fill="#4aa5e7" stroke="black" points="845.5,-155 687.5,-155 687.5,-72 845.5,-72 845.5,-155"/>
<text text-anchor="middle" x="766.5" y="-139.8" font-family="Times,serif" font-size="14.00">nbproc &lt;= 4.5</text>
<text text-anchor="middle" x="766.5" y="-124.8" font-family="Times,serif" font-size="14.00">gini = 0.143</text>
<text text-anchor="middle" x="766.5" y="-109.8" font-family="Times,serif" font-size="14.00">samples = 3024</text>
<text text-anchor="middle" x="766.5" y="-94.8" font-family="Times,serif" font-size="14.00">value = [234, 2790]</text>
<text text-anchor="middle" x="766.5" y="-79.8" font-family="Times,serif" font-size="14.00">class = True</text>
</g>
<!-- 189&#45;&gt;190 -->
<g id="edge18" class="edge">
<title>189&#45;&gt;190</title>
<path fill="none" stroke="black" d="M822.66,-190.91C816.13,-182.01 809.14,-172.51 802.39,-163.33"/>
<polygon fill="black" stroke="black" points="805.03,-161.01 796.28,-155.02 799.39,-165.15 805.03,-161.01"/>
</g>
<!-- 219 -->
<g id="node22" class="node">
<title>219</title>
<polygon fill="#61b1ea" stroke="black" points="1021.5,-155 863.5,-155 863.5,-72 1021.5,-72 1021.5,-155"/>
<text text-anchor="middle" x="942.5" y="-139.8" font-family="Times,serif" font-size="14.00">graphSize &lt;= 22.5</text>
<text text-anchor="middle" x="942.5" y="-124.8" font-family="Times,serif" font-size="14.00">gini = 0.278</text>
<text text-anchor="middle" x="942.5" y="-109.8" font-family="Times,serif" font-size="14.00">samples = 1332</text>
<text text-anchor="middle" x="942.5" y="-94.8" font-family="Times,serif" font-size="14.00">value = [222, 1110]</text>
<text text-anchor="middle" x="942.5" y="-79.8" font-family="Times,serif" font-size="14.00">class = True</text>
</g>
<!-- 189&#45;&gt;219 -->
<g id="edge21" class="edge">
<title>189&#45;&gt;219</title>
<path fill="none" stroke="black" d="M883.73,-190.91C890.64,-181.92 898.03,-172.32 905.15,-163.05"/>
<polygon fill="black" stroke="black" points="908.01,-165.08 911.33,-155.02 902.46,-160.81 908.01,-165.08"/>
</g>
<!-- 191 -->
<g id="node20" class="node">
<title>191</title>
<polygon fill="#c0c0c0" stroke="black" points="737.5,-36 683.5,-36 683.5,0 737.5,0 737.5,-36"/>
<text text-anchor="middle" x="710.5" y="-14.3" font-family="Times,serif" font-size="14.00">(...)</text>
</g>
<!-- 190&#45;&gt;191 -->
<g id="edge19" class="edge">
<title>190&#45;&gt;191</title>
<path fill="none" stroke="black" d="M742.1,-71.76C736.7,-62.75 731.13,-53.44 726.19,-45.19"/>
<polygon fill="black" stroke="black" points="729.07,-43.19 720.92,-36.41 723.06,-46.78 729.07,-43.19"/>
</g>
<!-- 204 -->
<g id="node21" class="node">
<title>204</title>
<polygon fill="#c0c0c0" stroke="black" points="809.5,-36 755.5,-36 755.5,0 809.5,0 809.5,-36"/>
<text text-anchor="middle" x="782.5" y="-14.3" font-family="Times,serif" font-size="14.00">(...)</text>
</g>
<!-- 190&#45;&gt;204 -->
<g id="edge20" class="edge">
<title>190&#45;&gt;204</title>
<path fill="none" stroke="black" d="M773.47,-71.76C774.93,-63.24 776.44,-54.44 777.79,-46.53"/>
<polygon fill="black" stroke="black" points="781.28,-46.85 779.52,-36.41 774.38,-45.67 781.28,-46.85"/>
</g>
<!-- 220 -->
<g id="node23" class="node">
<title>220</title>
<polygon fill="#c0c0c0" stroke="black" points="913.5,-36 859.5,-36 859.5,0 913.5,0 913.5,-36"/>
<text text-anchor="middle" x="886.5" y="-14.3" font-family="Times,serif" font-size="14.00">(...)</text>
</g>
<!-- 219&#45;&gt;220 -->
<g id="edge22" class="edge">
<title>219&#45;&gt;220</title>
<path fill="none" stroke="black" d="M918.1,-71.76C912.7,-62.75 907.13,-53.44 902.19,-45.19"/>
<polygon fill="black" stroke="black" points="905.07,-43.19 896.92,-36.41 899.06,-46.78 905.07,-43.19"/>
</g>
<!-- 227 -->
<g id="node24" class="node">
<title>227</title>
<polygon fill="#c0c0c0" stroke="black" points="985.5,-36 931.5,-36 931.5,0 985.5,0 985.5,-36"/>
<text text-anchor="middle" x="958.5" y="-14.3" font-family="Times,serif" font-size="14.00">(...)</text>
</g>
<!-- 219&#45;&gt;227 -->
<g id="edge23" class="edge">
<title>219&#45;&gt;227</title>
<path fill="none" stroke="black" d="M949.47,-71.76C950.93,-63.24 952.44,-54.44 953.79,-46.53"/>
<polygon fill="black" stroke="black" points="957.28,-46.85 955.52,-36.41 950.38,-45.67 957.28,-46.85"/>
</g>
<!-- 239 -->
<g id="node26" class="node">
<title>239</title>
<polygon fill="#68b4eb" stroke="black" points="1197.5,-155 1039.5,-155 1039.5,-72 1197.5,-72 1197.5,-155"/>
<text text-anchor="middle" x="1118.5" y="-139.8" font-family="Times,serif" font-size="14.00">sdComp &lt;= 6.5</text>
<text text-anchor="middle" x="1118.5" y="-124.8" font-family="Times,serif" font-size="14.00">gini = 0.312</text>
<text text-anchor="middle" x="1118.5" y="-109.8" font-family="Times,serif" font-size="14.00">samples = 2248</text>
<text text-anchor="middle" x="1118.5" y="-94.8" font-family="Times,serif" font-size="14.00">value = [434, 1814]</text>
<text text-anchor="middle" x="1118.5" y="-79.8" font-family="Times,serif" font-size="14.00">class = True</text>
</g>
<!-- 238&#45;&gt;239 -->
<g id="edge25" class="edge">
<title>238&#45;&gt;239</title>
<path fill="none" stroke="black" d="M1118.5,-190.91C1118.5,-182.65 1118.5,-173.86 1118.5,-165.3"/>
<polygon fill="black" stroke="black" points="1122,-165.02 1118.5,-155.02 1115,-165.02 1122,-165.02"/>
</g>
<!-- 282 -->
<g id="node29" class="node">
<title>282</title>
<polygon fill="#87c4ef" stroke="black" points="1382,-155 1215,-155 1215,-72 1382,-72 1382,-155"/>
<text text-anchor="middle" x="1298.5" y="-139.8" font-family="Times,serif" font-size="14.00">graphDepth &lt;= 25.5</text>
<text text-anchor="middle" x="1298.5" y="-124.8" font-family="Times,serif" font-size="14.00">gini = 0.406</text>
<text text-anchor="middle" x="1298.5" y="-109.8" font-family="Times,serif" font-size="14.00">samples = 4048</text>
<text text-anchor="middle" x="1298.5" y="-94.8" font-family="Times,serif" font-size="14.00">value = [1146, 2902]</text>
<text text-anchor="middle" x="1298.5" y="-79.8" font-family="Times,serif" font-size="14.00">class = True</text>
</g>
<!-- 238&#45;&gt;282 -->
<g id="edge28" class="edge">
<title>238&#45;&gt;282</title>
<path fill="none" stroke="black" d="M1180.95,-190.91C1196.03,-181.11 1212.25,-170.56 1227.68,-160.53"/>
<polygon fill="black" stroke="black" points="1229.68,-163.41 1236.16,-155.02 1225.87,-157.54 1229.68,-163.41"/>
</g>
<!-- 240 -->
<g id="node27" class="node">
<title>240</title>
<polygon fill="#c0c0c0" stroke="black" points="1109.5,-36 1055.5,-36 1055.5,0 1109.5,0 1109.5,-36"/>
<text text-anchor="middle" x="1082.5" y="-14.3" font-family="Times,serif" font-size="14.00">(...)</text>
</g>
<!-- 239&#45;&gt;240 -->
<g id="edge26" class="edge">
<title>239&#45;&gt;240</title>
<path fill="none" stroke="black" d="M1102.81,-71.76C1099.46,-63.04 1095.99,-54.04 1092.89,-45.99"/>
<polygon fill="black" stroke="black" points="1096.06,-44.48 1089.2,-36.41 1089.53,-46.99 1096.06,-44.48"/>
</g>
<!-- 261 -->
<g id="node28" class="node">
<title>261</title>
<polygon fill="#c0c0c0" stroke="black" points="1181.5,-36 1127.5,-36 1127.5,0 1181.5,0 1181.5,-36"/>
<text text-anchor="middle" x="1154.5" y="-14.3" font-family="Times,serif" font-size="14.00">(...)</text>
</g>
<!-- 239&#45;&gt;261 -->
<g id="edge27" class="edge">
<title>239&#45;&gt;261</title>
<path fill="none" stroke="black" d="M1134.19,-71.76C1137.54,-63.04 1141.01,-54.04 1144.11,-45.99"/>
<polygon fill="black" stroke="black" points="1147.47,-46.99 1147.8,-36.41 1140.94,-44.48 1147.47,-46.99"/>
</g>
<!-- 283 -->
<g id="node30" class="node">
<title>283</title>
<polygon fill="#c0c0c0" stroke="black" points="1289.5,-36 1235.5,-36 1235.5,0 1289.5,0 1289.5,-36"/>
<text text-anchor="middle" x="1262.5" y="-14.3" font-family="Times,serif" font-size="14.00">(...)</text>
</g>
<!-- 282&#45;&gt;283 -->
<g id="edge29" class="edge">
<title>282&#45;&gt;283</title>
<path fill="none" stroke="black" d="M1282.81,-71.76C1279.46,-63.04 1275.99,-54.04 1272.89,-45.99"/>
<polygon fill="black" stroke="black" points="1276.06,-44.48 1269.2,-36.41 1269.53,-46.99 1276.06,-44.48"/>
</g>
<!-- 356 -->
<g id="node31" class="node">
<title>356</title>
<polygon fill="#c0c0c0" stroke="black" points="1361.5,-36 1307.5,-36 1307.5,0 1361.5,0 1361.5,-36"/>
<text text-anchor="middle" x="1334.5" y="-14.3" font-family="Times,serif" font-size="14.00">(...)</text>
</g>
<!-- 282&#45;&gt;356 -->
<g id="edge30" class="edge">
<title>282&#45;&gt;356</title>
<path fill="none" stroke="black" d="M1314.19,-71.76C1317.54,-63.04 1321.01,-54.04 1324.11,-45.99"/>
<polygon fill="black" stroke="black" points="1327.47,-46.99 1327.8,-36.41 1320.94,-44.48 1327.47,-46.99"/>
</g>
</g>
</svg>
