<?xml version="1.0" encoding="UTF-8" standalone="no"?>
<!DOCTYPE svg PUBLIC "-//W3C//DTD SVG 1.1//EN"
 "http://www.w3.org/Graphics/SVG/1.1/DTD/svg11.dtd">
<!-- Generated by graphviz version 2.43.0 (0)
 -->
<!-- Title: Tree Pages: 1 -->
<svg width="2424pt" height="520pt"
 viewBox="0.00 0.00 2424.00 520.00" xmlns="http://www.w3.org/2000/svg" xmlns:xlink="http://www.w3.org/1999/xlink">
<g id="graph0" class="graph" transform="scale(1 1) rotate(0) translate(4 516)">
<title>Tree</title>
<polygon fill="white" stroke="transparent" points="-4,4 -4,-516 2420,-516 2420,4 -4,4"/>
<!-- 0 -->
<g id="node1" class="node">
<title>0</title>
<polygon fill="#ffffff" stroke="black" points="1300,-512 953,-512 953,-429 1300,-429 1300,-512"/>
<text text-anchor="middle" x="1126.5" y="-496.8" font-family="Times,serif" font-size="14.00">sdComm &lt;= 0.65</text>
<text text-anchor="middle" x="1126.5" y="-481.8" font-family="Times,serif" font-size="14.00">gini = 0.833</text>
<text text-anchor="middle" x="1126.5" y="-466.8" font-family="Times,serif" font-size="14.00">samples = 22896</text>
<text text-anchor="middle" x="1126.5" y="-451.8" font-family="Times,serif" font-size="14.00">value = [3831, 3849, 3817, 3791, 3791, 3817]</text>
<text text-anchor="middle" x="1126.5" y="-436.8" font-family="Times,serif" font-size="14.00">class = median</text>
</g>
<!-- 1 -->
<g id="node2" class="node">
<title>1</title>
<polygon fill="#ffffff" stroke="black" points="1057,-393 710,-393 710,-310 1057,-310 1057,-393"/>
<text text-anchor="middle" x="883.5" y="-377.8" font-family="Times,serif" font-size="14.00">sdComm &lt;= 0.2</text>
<text text-anchor="middle" x="883.5" y="-362.8" font-family="Times,serif" font-size="14.00">gini = 0.833</text>
<text text-anchor="middle" x="883.5" y="-347.8" font-family="Times,serif" font-size="14.00">samples = 10584</text>
<text text-anchor="middle" x="883.5" y="-332.8" font-family="Times,serif" font-size="14.00">value = [1763, 1773, 1799, 1725, 1725, 1799]</text>
<text text-anchor="middle" x="883.5" y="-317.8" font-family="Times,serif" font-size="14.00">class = maxmax</text>
</g>
<!-- 0&#45;&gt;1 -->
<g id="edge1" class="edge">
<title>0&#45;&gt;1</title>
<path fill="none" stroke="black" d="M1042.19,-428.91C1021.08,-418.74 998.31,-407.78 976.8,-397.42"/>
<polygon fill="black" stroke="black" points="978.19,-394.21 967.66,-393.02 975.15,-400.51 978.19,-394.21"/>
<text text-anchor="middle" x="975.92" y="-412.92" font-family="Times,serif" font-size="14.00">True</text>
</g>
<!-- 188 -->
<g id="node15" class="node">
<title>188</title>
<polygon fill="#ffffff" stroke="black" points="1611,-393 1264,-393 1264,-310 1611,-310 1611,-393"/>
<text text-anchor="middle" x="1437.5" y="-377.8" font-family="Times,serif" font-size="14.00">graphDepth &lt;= 3.5</text>
<text text-anchor="middle" x="1437.5" y="-362.8" font-family="Times,serif" font-size="14.00">gini = 0.833</text>
<text text-anchor="middle" x="1437.5" y="-347.8" font-family="Times,serif" font-size="14.00">samples = 12312</text>
<text text-anchor="middle" x="1437.5" y="-332.8" font-family="Times,serif" font-size="14.00">value = [2068, 2076, 2018, 2066, 2066, 2018]</text>
<text text-anchor="middle" x="1437.5" y="-317.8" font-family="Times,serif" font-size="14.00">class = median</text>
</g>
<!-- 0&#45;&gt;188 -->
<g id="edge14" class="edge">
<title>0&#45;&gt;188</title>
<path fill="none" stroke="black" d="M1234.4,-428.91C1262.14,-418.47 1292.12,-407.19 1320.31,-396.59"/>
<polygon fill="black" stroke="black" points="1321.66,-399.82 1329.79,-393.02 1319.2,-393.27 1321.66,-399.82"/>
<text text-anchor="middle" x="1319.47" y="-412.09" font-family="Times,serif" font-size="14.00">False</text>
</g>
<!-- 2 -->
<g id="node3" class="node">
<title>2</title>
<polygon fill="#ffffff" stroke="black" points="658,-274 311,-274 311,-191 658,-191 658,-274"/>
<text text-anchor="middle" x="484.5" y="-258.8" font-family="Times,serif" font-size="14.00">graphDepth &lt;= 3.5</text>
<text text-anchor="middle" x="484.5" y="-243.8" font-family="Times,serif" font-size="14.00">gini = 0.833</text>
<text text-anchor="middle" x="484.5" y="-228.8" font-family="Times,serif" font-size="14.00">samples = 9360</text>
<text text-anchor="middle" x="484.5" y="-213.8" font-family="Times,serif" font-size="14.00">value = [1565, 1567, 1579, 1535, 1535, 1579]</text>
<text text-anchor="middle" x="484.5" y="-198.8" font-family="Times,serif" font-size="14.00">class = maxmax</text>
</g>
<!-- 1&#45;&gt;2 -->
<g id="edge2" class="edge">
<title>1&#45;&gt;2</title>
<path fill="none" stroke="black" d="M745.35,-309.99C708.97,-299.32 669.58,-287.77 632.69,-276.96"/>
<polygon fill="black" stroke="black" points="633.45,-273.53 622.87,-274.07 631.48,-280.25 633.45,-273.53"/>
</g>
<!-- 155 -->
<g id="node10" class="node">
<title>155</title>
<polygon fill="#ffffff" stroke="black" points="1030,-274 737,-274 737,-191 1030,-191 1030,-274"/>
<text text-anchor="middle" x="883.5" y="-258.8" font-family="Times,serif" font-size="14.00">graphDepth &lt;= 25.5</text>
<text text-anchor="middle" x="883.5" y="-243.8" font-family="Times,serif" font-size="14.00">gini = 0.833</text>
<text text-anchor="middle" x="883.5" y="-228.8" font-family="Times,serif" font-size="14.00">samples = 1224</text>
<text text-anchor="middle" x="883.5" y="-213.8" font-family="Times,serif" font-size="14.00">value = [198, 206, 220, 190, 190, 220]</text>
<text text-anchor="middle" x="883.5" y="-198.8" font-family="Times,serif" font-size="14.00">class = maxmax</text>
</g>
<!-- 1&#45;&gt;155 -->
<g id="edge9" class="edge">
<title>1&#45;&gt;155</title>
<path fill="none" stroke="black" d="M883.5,-309.91C883.5,-301.65 883.5,-292.86 883.5,-284.3"/>
<polygon fill="black" stroke="black" points="887,-284.02 883.5,-274.02 880,-284.02 887,-284.02"/>
</g>
<!-- 3 -->
<g id="node4" class="node">
<title>3</title>
<polygon fill="#ffffff" stroke="black" points="293,-155 0,-155 0,-72 293,-72 293,-155"/>
<text text-anchor="middle" x="146.5" y="-139.8" font-family="Times,serif" font-size="14.00">sdComm &lt;= 0.02</text>
<text text-anchor="middle" x="146.5" y="-124.8" font-family="Times,serif" font-size="14.00">gini = 0.833</text>
<text text-anchor="middle" x="146.5" y="-109.8" font-family="Times,serif" font-size="14.00">samples = 1342</text>
<text text-anchor="middle" x="146.5" y="-94.8" font-family="Times,serif" font-size="14.00">value = [215, 215, 241, 215, 215, 241]</text>
<text text-anchor="middle" x="146.5" y="-79.8" font-family="Times,serif" font-size="14.00">class = maxmax</text>
</g>
<!-- 2&#45;&gt;3 -->
<g id="edge3" class="edge">
<title>2&#45;&gt;3</title>
<path fill="none" stroke="black" d="M367.23,-190.91C336.82,-180.38 303.94,-169 273.07,-158.31"/>
<polygon fill="black" stroke="black" points="274.15,-154.98 263.56,-155.02 271.87,-161.6 274.15,-154.98"/>
</g>
<!-- 28 -->
<g id="node7" class="node">
<title>28</title>
<polygon fill="#ffffff" stroke="black" points="658,-155 311,-155 311,-72 658,-72 658,-155"/>
<text text-anchor="middle" x="484.5" y="-139.8" font-family="Times,serif" font-size="14.00">sdComm &lt;= 0.02</text>
<text text-anchor="middle" x="484.5" y="-124.8" font-family="Times,serif" font-size="14.00">gini = 0.833</text>
<text text-anchor="middle" x="484.5" y="-109.8" font-family="Times,serif" font-size="14.00">samples = 8018</text>
<text text-anchor="middle" x="484.5" y="-94.8" font-family="Times,serif" font-size="14.00">value = [1350, 1352, 1338, 1320, 1320, 1338]</text>
<text text-anchor="middle" x="484.5" y="-79.8" font-family="Times,serif" font-size="14.00">class = median</text>
</g>
<!-- 2&#45;&gt;28 -->
<g id="edge6" class="edge">
<title>2&#45;&gt;28</title>
<path fill="none" stroke="black" d="M484.5,-190.91C484.5,-182.65 484.5,-173.86 484.5,-165.3"/>
<polygon fill="black" stroke="black" points="488,-165.02 484.5,-155.02 481,-165.02 488,-165.02"/>
</g>
<!-- 4 -->
<g id="node5" class="node">
<title>4</title>
<polygon fill="#c0c0c0" stroke="black" points="137.5,-36 83.5,-36 83.5,0 137.5,0 137.5,-36"/>
<text text-anchor="middle" x="110.5" y="-14.3" font-family="Times,serif" font-size="14.00">(...)</text>
</g>
<!-- 3&#45;&gt;4 -->
<g id="edge4" class="edge">
<title>3&#45;&gt;4</title>
<path fill="none" stroke="black" d="M130.81,-71.76C127.46,-63.04 123.99,-54.04 120.89,-45.99"/>
<polygon fill="black" stroke="black" points="124.06,-44.48 117.2,-36.41 117.53,-46.99 124.06,-44.48"/>
</g>
<!-- 7 -->
<g id="node6" class="node">
<title>7</title>
<polygon fill="#c0c0c0" stroke="black" points="209.5,-36 155.5,-36 155.5,0 209.5,0 209.5,-36"/>
<text text-anchor="middle" x="182.5" y="-14.3" font-family="Times,serif" font-size="14.00">(...)</text>
</g>
<!-- 3&#45;&gt;7 -->
<g id="edge5" class="edge">
<title>3&#45;&gt;7</title>
<path fill="none" stroke="black" d="M162.19,-71.76C165.54,-63.04 169.01,-54.04 172.11,-45.99"/>
<polygon fill="black" stroke="black" points="175.47,-46.99 175.8,-36.41 168.94,-44.48 175.47,-46.99"/>
</g>
<!-- 29 -->
<g id="node8" class="node">
<title>29</title>
<polygon fill="#c0c0c0" stroke="black" points="475.5,-36 421.5,-36 421.5,0 475.5,0 475.5,-36"/>
<text text-anchor="middle" x="448.5" y="-14.3" font-family="Times,serif" font-size="14.00">(...)</text>
</g>
<!-- 28&#45;&gt;29 -->
<g id="edge7" class="edge">
<title>28&#45;&gt;29</title>
<path fill="none" stroke="black" d="M468.81,-71.76C465.46,-63.04 461.99,-54.04 458.89,-45.99"/>
<polygon fill="black" stroke="black" points="462.06,-44.48 455.2,-36.41 455.53,-46.99 462.06,-44.48"/>
</g>
<!-- 58 -->
<g id="node9" class="node">
<title>58</title>
<polygon fill="#c0c0c0" stroke="black" points="547.5,-36 493.5,-36 493.5,0 547.5,0 547.5,-36"/>
<text text-anchor="middle" x="520.5" y="-14.3" font-family="Times,serif" font-size="14.00">(...)</text>
</g>
<!-- 28&#45;&gt;58 -->
<g id="edge8" class="edge">
<title>28&#45;&gt;58</title>
<path fill="none" stroke="black" d="M500.19,-71.76C503.54,-63.04 507.01,-54.04 510.11,-45.99"/>
<polygon fill="black" stroke="black" points="513.47,-46.99 513.8,-36.41 506.94,-44.48 513.47,-46.99"/>
</g>
<!-- 156 -->
<g id="node11" class="node">
<title>156</title>
<polygon fill="#ffffff" stroke="black" points="969,-155 676,-155 676,-72 969,-72 969,-155"/>
<text text-anchor="middle" x="822.5" y="-139.8" font-family="Times,serif" font-size="14.00">graphDepth &lt;= 3.5</text>
<text text-anchor="middle" x="822.5" y="-124.8" font-family="Times,serif" font-size="14.00">gini = 0.833</text>
<text text-anchor="middle" x="822.5" y="-109.8" font-family="Times,serif" font-size="14.00">samples = 1220</text>
<text text-anchor="middle" x="822.5" y="-94.8" font-family="Times,serif" font-size="14.00">value = [198, 206, 218, 190, 190, 218]</text>
<text text-anchor="middle" x="822.5" y="-79.8" font-family="Times,serif" font-size="14.00">class = maxmax</text>
</g>
<!-- 155&#45;&gt;156 -->
<g id="edge10" class="edge">
<title>155&#45;&gt;156</title>
<path fill="none" stroke="black" d="M862.34,-190.91C857.79,-182.2 852.95,-172.9 848.25,-163.89"/>
<polygon fill="black" stroke="black" points="851.35,-162.27 843.63,-155.02 845.15,-165.51 851.35,-162.27"/>
</g>
<!-- 187 -->
<g id="node14" class="node">
<title>187</title>
<polygon fill="#ffffff" stroke="black" points="1172,-147.5 987,-147.5 987,-79.5 1172,-79.5 1172,-147.5"/>
<text text-anchor="middle" x="1079.5" y="-132.3" font-family="Times,serif" font-size="14.00">gini = 0.5</text>
<text text-anchor="middle" x="1079.5" y="-117.3" font-family="Times,serif" font-size="14.00">samples = 4</text>
<text text-anchor="middle" x="1079.5" y="-102.3" font-family="Times,serif" font-size="14.00">value = [0, 0, 2, 0, 0, 2]</text>
<text text-anchor="middle" x="1079.5" y="-87.3" font-family="Times,serif" font-size="14.00">class = maxmax</text>
</g>
<!-- 155&#45;&gt;187 -->
<g id="edge13" class="edge">
<title>155&#45;&gt;187</title>
<path fill="none" stroke="black" d="M951.5,-190.91C972.2,-178.55 994.88,-165.01 1015.33,-152.81"/>
<polygon fill="black" stroke="black" points="1017.15,-155.8 1023.94,-147.67 1013.56,-149.79 1017.15,-155.8"/>
</g>
<!-- 157 -->
<g id="node12" class="node">
<title>157</title>
<polygon fill="#c0c0c0" stroke="black" points="813.5,-36 759.5,-36 759.5,0 813.5,0 813.5,-36"/>
<text text-anchor="middle" x="786.5" y="-14.3" font-family="Times,serif" font-size="14.00">(...)</text>
</g>
<!-- 156&#45;&gt;157 -->
<g id="edge11" class="edge">
<title>156&#45;&gt;157</title>
<path fill="none" stroke="black" d="M806.81,-71.76C803.46,-63.04 799.99,-54.04 796.89,-45.99"/>
<polygon fill="black" stroke="black" points="800.06,-44.48 793.2,-36.41 793.53,-46.99 800.06,-44.48"/>
</g>
<!-- 164 -->
<g id="node13" class="node">
<title>164</title>
<polygon fill="#c0c0c0" stroke="black" points="885.5,-36 831.5,-36 831.5,0 885.5,0 885.5,-36"/>
<text text-anchor="middle" x="858.5" y="-14.3" font-family="Times,serif" font-size="14.00">(...)</text>
</g>
<!-- 156&#45;&gt;164 -->
<g id="edge12" class="edge">
<title>156&#45;&gt;164</title>
<path fill="none" stroke="black" d="M838.19,-71.76C841.54,-63.04 845.01,-54.04 848.11,-45.99"/>
<polygon fill="black" stroke="black" points="851.47,-46.99 851.8,-36.41 844.94,-44.48 851.47,-46.99"/>
</g>
<!-- 189 -->
<g id="node16" class="node">
<title>189</title>
<polygon fill="#ffffff" stroke="black" points="1584,-274 1291,-274 1291,-191 1584,-191 1584,-274"/>
<text text-anchor="middle" x="1437.5" y="-258.8" font-family="Times,serif" font-size="14.00">CCR &lt;= 5.5</text>
<text text-anchor="middle" x="1437.5" y="-243.8" font-family="Times,serif" font-size="14.00">gini = 0.832</text>
<text text-anchor="middle" x="1437.5" y="-228.8" font-family="Times,serif" font-size="14.00">samples = 1180</text>
<text text-anchor="middle" x="1437.5" y="-213.8" font-family="Times,serif" font-size="14.00">value = [200, 204, 172, 216, 216, 172]</text>
<text text-anchor="middle" x="1437.5" y="-198.8" font-family="Times,serif" font-size="14.00">class = minmax</text>
</g>
<!-- 188&#45;&gt;189 -->
<g id="edge15" class="edge">
<title>188&#45;&gt;189</title>
<path fill="none" stroke="black" d="M1437.5,-309.91C1437.5,-301.65 1437.5,-292.86 1437.5,-284.3"/>
<polygon fill="black" stroke="black" points="1441,-284.02 1437.5,-274.02 1434,-284.02 1441,-284.02"/>
</g>
<!-- 226 -->
<g id="node23" class="node">
<title>226</title>
<polygon fill="#ffffff" stroke="black" points="2078,-274 1731,-274 1731,-191 2078,-191 2078,-274"/>
<text text-anchor="middle" x="1904.5" y="-258.8" font-family="Times,serif" font-size="14.00">CCR &lt;= 5.5</text>
<text text-anchor="middle" x="1904.5" y="-243.8" font-family="Times,serif" font-size="14.00">gini = 0.833</text>
<text text-anchor="middle" x="1904.5" y="-228.8" font-family="Times,serif" font-size="14.00">samples = 11132</text>
<text text-anchor="middle" x="1904.5" y="-213.8" font-family="Times,serif" font-size="14.00">value = [1868, 1872, 1846, 1850, 1850, 1846]</text>
<text text-anchor="middle" x="1904.5" y="-198.8" font-family="Times,serif" font-size="14.00">class = median</text>
</g>
<!-- 188&#45;&gt;226 -->
<g id="edge22" class="edge">
<title>188&#45;&gt;226</title>
<path fill="none" stroke="black" d="M1599.2,-309.99C1642.32,-299.19 1689.06,-287.48 1732.7,-276.54"/>
<polygon fill="black" stroke="black" points="1733.7,-279.9 1742.55,-274.07 1732,-273.11 1733.7,-279.9"/>
</g>
<!-- 190 -->
<g id="node17" class="node">
<title>190</title>
<polygon fill="#ffffff" stroke="black" points="1429,-155 1190,-155 1190,-72 1429,-72 1429,-155"/>
<text text-anchor="middle" x="1309.5" y="-139.8" font-family="Times,serif" font-size="14.00">sdComp &lt;= 0.65</text>
<text text-anchor="middle" x="1309.5" y="-124.8" font-family="Times,serif" font-size="14.00">gini = 0.83</text>
<text text-anchor="middle" x="1309.5" y="-109.8" font-family="Times,serif" font-size="14.00">samples = 380</text>
<text text-anchor="middle" x="1309.5" y="-94.8" font-family="Times,serif" font-size="14.00">value = [70, 70, 50, 70, 70, 50]</text>
<text text-anchor="middle" x="1309.5" y="-79.8" font-family="Times,serif" font-size="14.00">class = mean</text>
</g>
<!-- 189&#45;&gt;190 -->
<g id="edge16" class="edge">
<title>189&#45;&gt;190</title>
<path fill="none" stroke="black" d="M1393.09,-190.91C1382.86,-181.56 1371.9,-171.54 1361.39,-161.93"/>
<polygon fill="black" stroke="black" points="1363.57,-159.18 1353.83,-155.02 1358.85,-164.35 1363.57,-159.18"/>
</g>
<!-- 197 -->
<g id="node20" class="node">
<title>197</title>
<polygon fill="#ffffff" stroke="black" points="1740,-155 1447,-155 1447,-72 1740,-72 1740,-155"/>
<text text-anchor="middle" x="1593.5" y="-139.8" font-family="Times,serif" font-size="14.00">sdComp &lt;= 6.5</text>
<text text-anchor="middle" x="1593.5" y="-124.8" font-family="Times,serif" font-size="14.00">gini = 0.832</text>
<text text-anchor="middle" x="1593.5" y="-109.8" font-family="Times,serif" font-size="14.00">samples = 800</text>
<text text-anchor="middle" x="1593.5" y="-94.8" font-family="Times,serif" font-size="14.00">value = [130, 134, 122, 146, 146, 122]</text>
<text text-anchor="middle" x="1593.5" y="-79.8" font-family="Times,serif" font-size="14.00">class = minmax</text>
</g>
<!-- 189&#45;&gt;197 -->
<g id="edge19" class="edge">
<title>189&#45;&gt;197</title>
<path fill="none" stroke="black" d="M1491.62,-190.91C1504.45,-181.29 1518.23,-170.95 1531.38,-161.09"/>
<polygon fill="black" stroke="black" points="1533.57,-163.82 1539.47,-155.02 1529.37,-158.22 1533.57,-163.82"/>
</g>
<!-- 191 -->
<g id="node18" class="node">
<title>191</title>
<polygon fill="#c0c0c0" stroke="black" points="1300.5,-36 1246.5,-36 1246.5,0 1300.5,0 1300.5,-36"/>
<text text-anchor="middle" x="1273.5" y="-14.3" font-family="Times,serif" font-size="14.00">(...)</text>
</g>
<!-- 190&#45;&gt;191 -->
<g id="edge17" class="edge">
<title>190&#45;&gt;191</title>
<path fill="none" stroke="black" d="M1293.81,-71.76C1290.46,-63.04 1286.99,-54.04 1283.89,-45.99"/>
<polygon fill="black" stroke="black" points="1287.06,-44.48 1280.2,-36.41 1280.53,-46.99 1287.06,-44.48"/>
</g>
<!-- 194 -->
<g id="node19" class="node">
<title>194</title>
<polygon fill="#c0c0c0" stroke="black" points="1372.5,-36 1318.5,-36 1318.5,0 1372.5,0 1372.5,-36"/>
<text text-anchor="middle" x="1345.5" y="-14.3" font-family="Times,serif" font-size="14.00">(...)</text>
</g>
<!-- 190&#45;&gt;194 -->
<g id="edge18" class="edge">
<title>190&#45;&gt;194</title>
<path fill="none" stroke="black" d="M1325.19,-71.76C1328.54,-63.04 1332.01,-54.04 1335.11,-45.99"/>
<polygon fill="black" stroke="black" points="1338.47,-46.99 1338.8,-36.41 1331.94,-44.48 1338.47,-46.99"/>
</g>
<!-- 198 -->
<g id="node21" class="node">
<title>198</title>
<polygon fill="#c0c0c0" stroke="black" points="1584.5,-36 1530.5,-36 1530.5,0 1584.5,0 1584.5,-36"/>
<text text-anchor="middle" x="1557.5" y="-14.3" font-family="Times,serif" font-size="14.00">(...)</text>
</g>
<!-- 197&#45;&gt;198 -->
<g id="edge20" class="edge">
<title>197&#45;&gt;198</title>
<path fill="none" stroke="black" d="M1577.81,-71.76C1574.46,-63.04 1570.99,-54.04 1567.89,-45.99"/>
<polygon fill="black" stroke="black" points="1571.06,-44.48 1564.2,-36.41 1564.53,-46.99 1571.06,-44.48"/>
</g>
<!-- 215 -->
<g id="node22" class="node">
<title>215</title>
<polygon fill="#c0c0c0" stroke="black" points="1656.5,-36 1602.5,-36 1602.5,0 1656.5,0 1656.5,-36"/>
<text text-anchor="middle" x="1629.5" y="-14.3" font-family="Times,serif" font-size="14.00">(...)</text>
</g>
<!-- 197&#45;&gt;215 -->
<g id="edge21" class="edge">
<title>197&#45;&gt;215</title>
<path fill="none" stroke="black" d="M1609.19,-71.76C1612.54,-63.04 1616.01,-54.04 1619.11,-45.99"/>
<polygon fill="black" stroke="black" points="1622.47,-46.99 1622.8,-36.41 1615.94,-44.48 1622.47,-46.99"/>
</g>
<!-- 227 -->
<g id="node24" class="node">
<title>227</title>
<polygon fill="#fffffe" stroke="black" points="2051,-155 1758,-155 1758,-72 2051,-72 2051,-155"/>
<text text-anchor="middle" x="1904.5" y="-139.8" font-family="Times,serif" font-size="14.00">graphDepth &lt;= 25.5</text>
<text text-anchor="middle" x="1904.5" y="-124.8" font-family="Times,serif" font-size="14.00">gini = 0.833</text>
<text text-anchor="middle" x="1904.5" y="-109.8" font-family="Times,serif" font-size="14.00">samples = 1280</text>
<text text-anchor="middle" x="1904.5" y="-94.8" font-family="Times,serif" font-size="14.00">value = [220, 224, 210, 208, 208, 210]</text>
<text text-anchor="middle" x="1904.5" y="-79.8" font-family="Times,serif" font-size="14.00">class = median</text>
</g>
<!-- 226&#45;&gt;227 -->
<g id="edge23" class="edge">
<title>226&#45;&gt;227</title>
<path fill="none" stroke="black" d="M1904.5,-190.91C1904.5,-182.65 1904.5,-173.86 1904.5,-165.3"/>
<polygon fill="black" stroke="black" points="1908,-165.02 1904.5,-155.02 1901,-165.02 1908,-165.02"/>
</g>
<!-- 266 -->
<g id="node27" class="node">
<title>266</title>
<polygon fill="#ffffff" stroke="black" points="2416,-155 2069,-155 2069,-72 2416,-72 2416,-155"/>
<text text-anchor="middle" x="2242.5" y="-139.8" font-family="Times,serif" font-size="14.00">sdComm &lt;= 2.0</text>
<text text-anchor="middle" x="2242.5" y="-124.8" font-family="Times,serif" font-size="14.00">gini = 0.833</text>
<text text-anchor="middle" x="2242.5" y="-109.8" font-family="Times,serif" font-size="14.00">samples = 9852</text>
<text text-anchor="middle" x="2242.5" y="-94.8" font-family="Times,serif" font-size="14.00">value = [1648, 1648, 1636, 1642, 1642, 1636]</text>
<text text-anchor="middle" x="2242.5" y="-79.8" font-family="Times,serif" font-size="14.00">class = mean</text>
</g>
<!-- 226&#45;&gt;266 -->
<g id="edge26" class="edge">
<title>226&#45;&gt;266</title>
<path fill="none" stroke="black" d="M2021.77,-190.91C2052.18,-180.38 2085.06,-169 2115.93,-158.31"/>
<polygon fill="black" stroke="black" points="2117.13,-161.6 2125.44,-155.02 2114.85,-154.98 2117.13,-161.6"/>
</g>
<!-- 228 -->
<g id="node25" class="node">
<title>228</title>
<polygon fill="#c0c0c0" stroke="black" points="1895.5,-36 1841.5,-36 1841.5,0 1895.5,0 1895.5,-36"/>
<text text-anchor="middle" x="1868.5" y="-14.3" font-family="Times,serif" font-size="14.00">(...)</text>
</g>
<!-- 227&#45;&gt;228 -->
<g id="edge24" class="edge">
<title>227&#45;&gt;228</title>
<path fill="none" stroke="black" d="M1888.81,-71.76C1885.46,-63.04 1881.99,-54.04 1878.89,-45.99"/>
<polygon fill="black" stroke="black" points="1882.06,-44.48 1875.2,-36.41 1875.53,-46.99 1882.06,-44.48"/>
</g>
<!-- 265 -->
<g id="node26" class="node">
<title>265</title>
<polygon fill="#c0c0c0" stroke="black" points="1967.5,-36 1913.5,-36 1913.5,0 1967.5,0 1967.5,-36"/>
<text text-anchor="middle" x="1940.5" y="-14.3" font-family="Times,serif" font-size="14.00">(...)</text>
</g>
<!-- 227&#45;&gt;265 -->
<g id="edge25" class="edge">
<title>227&#45;&gt;265</title>
<path fill="none" stroke="black" d="M1920.19,-71.76C1923.54,-63.04 1927.01,-54.04 1930.11,-45.99"/>
<polygon fill="black" stroke="black" points="1933.47,-46.99 1933.8,-36.41 1926.94,-44.48 1933.47,-46.99"/>
</g>
<!-- 267 -->
<g id="node28" class="node">
<title>267</title>
<polygon fill="#c0c0c0" stroke="black" points="2233.5,-36 2179.5,-36 2179.5,0 2233.5,0 2233.5,-36"/>
<text text-anchor="middle" x="2206.5" y="-14.3" font-family="Times,serif" font-size="14.00">(...)</text>
</g>
<!-- 266&#45;&gt;267 -->
<g id="edge27" class="edge">
<title>266&#45;&gt;267</title>
<path fill="none" stroke="black" d="M2226.81,-71.76C2223.46,-63.04 2219.99,-54.04 2216.89,-45.99"/>
<polygon fill="black" stroke="black" points="2220.06,-44.48 2213.2,-36.41 2213.53,-46.99 2220.06,-44.48"/>
</g>
<!-- 332 -->
<g id="node29" class="node">
<title>332</title>
<polygon fill="#c0c0c0" stroke="black" points="2305.5,-36 2251.5,-36 2251.5,0 2305.5,0 2305.5,-36"/>
<text text-anchor="middle" x="2278.5" y="-14.3" font-family="Times,serif" font-size="14.00">(...)</text>
</g>
<!-- 266&#45;&gt;332 -->
<g id="edge28" class="edge">
<title>266&#45;&gt;332</title>
<path fill="none" stroke="black" d="M2258.19,-71.76C2261.54,-63.04 2265.01,-54.04 2268.11,-45.99"/>
<polygon fill="black" stroke="black" points="2271.47,-46.99 2271.8,-36.41 2264.94,-44.48 2271.47,-46.99"/>
</g>
</g>
</svg>
