<?xml version="1.0" encoding="UTF-8" standalone="no"?>
<!DOCTYPE svg PUBLIC "-//W3C//DTD SVG 1.1//EN"
 "http://www.w3.org/Graphics/SVG/1.1/DTD/svg11.dtd">
<!-- Generated by graphviz version 2.43.0 (0)
 -->
<!-- Title: Tree Pages: 1 -->
<svg width="1414pt" height="520pt"
 viewBox="0.00 0.00 1414.00 520.00" xmlns="http://www.w3.org/2000/svg" xmlns:xlink="http://www.w3.org/1999/xlink">
<g id="graph0" class="graph" transform="scale(1 1) rotate(0) translate(4 516)">
<title>Tree</title>
<polygon fill="white" stroke="transparent" points="-4,4 -4,-516 1410,-516 1410,4 -4,4"/>
<!-- 0 -->
<g id="node1" class="node">
<title>0</title>
<polygon fill="#fbfdfe" stroke="black" points="786,-512 601,-512 601,-429 786,-429 786,-512"/>
<text text-anchor="middle" x="693.5" y="-496.8" font-family="Times,serif" font-size="14.00">CCR &lt;= 5.5</text>
<text text-anchor="middle" x="693.5" y="-481.8" font-family="Times,serif" font-size="14.00">gini = 0.5</text>
<text text-anchor="middle" x="693.5" y="-466.8" font-family="Times,serif" font-size="14.00">samples = 22896</text>
<text text-anchor="middle" x="693.5" y="-451.8" font-family="Times,serif" font-size="14.00">value = [11320, 11576]</text>
<text text-anchor="middle" x="693.5" y="-436.8" font-family="Times,serif" font-size="14.00">class = True</text>
</g>
<!-- 1 -->
<g id="node2" class="node">
<title>1</title>
<polygon fill="#c7e3f8" stroke="black" points="611,-393 444,-393 444,-310 611,-310 611,-393"/>
<text text-anchor="middle" x="527.5" y="-377.8" font-family="Times,serif" font-size="14.00">graphSize &lt;= 22.5</text>
<text text-anchor="middle" x="527.5" y="-362.8" font-family="Times,serif" font-size="14.00">gini = 0.486</text>
<text text-anchor="middle" x="527.5" y="-347.8" font-family="Times,serif" font-size="14.00">samples = 12244</text>
<text text-anchor="middle" x="527.5" y="-332.8" font-family="Times,serif" font-size="14.00">value = [5112, 7132]</text>
<text text-anchor="middle" x="527.5" y="-317.8" font-family="Times,serif" font-size="14.00">class = True</text>
</g>
<!-- 0&#45;&gt;1 -->
<g id="edge1" class="edge">
<title>0&#45;&gt;1</title>
<path fill="none" stroke="black" d="M635.91,-428.91C622.13,-419.2 607.32,-408.76 593.21,-398.81"/>
<polygon fill="black" stroke="black" points="595.18,-395.92 584.99,-393.02 591.15,-401.64 595.18,-395.92"/>
<text text-anchor="middle" x="589.26" y="-413.95" font-family="Times,serif" font-size="14.00">True</text>
</g>
<!-- 226 -->
<g id="node17" class="node">
<title>226</title>
<polygon fill="#f8dbc7" stroke="black" points="955,-393 788,-393 788,-310 955,-310 955,-393"/>
<text text-anchor="middle" x="871.5" y="-377.8" font-family="Times,serif" font-size="14.00">sdComp &lt;= 2.0</text>
<text text-anchor="middle" x="871.5" y="-362.8" font-family="Times,serif" font-size="14.00">gini = 0.486</text>
<text text-anchor="middle" x="871.5" y="-347.8" font-family="Times,serif" font-size="14.00">samples = 10652</text>
<text text-anchor="middle" x="871.5" y="-332.8" font-family="Times,serif" font-size="14.00">value = [6208, 4444]</text>
<text text-anchor="middle" x="871.5" y="-317.8" font-family="Times,serif" font-size="14.00">class = False</text>
</g>
<!-- 0&#45;&gt;226 -->
<g id="edge16" class="edge">
<title>0&#45;&gt;226</title>
<path fill="none" stroke="black" d="M755.26,-428.91C770.17,-419.11 786.21,-408.56 801.47,-398.53"/>
<polygon fill="black" stroke="black" points="803.42,-401.44 809.85,-393.02 799.57,-395.59 803.42,-401.44"/>
<text text-anchor="middle" x="804.79" y="-413.8" font-family="Times,serif" font-size="14.00">False</text>
</g>
<!-- 2 -->
<g id="node3" class="node">
<title>2</title>
<polygon fill="#d2e9f9" stroke="black" points="352,-274 185,-274 185,-191 352,-191 352,-274"/>
<text text-anchor="middle" x="268.5" y="-258.8" font-family="Times,serif" font-size="14.00">nbproc &lt;= 4.5</text>
<text text-anchor="middle" x="268.5" y="-243.8" font-family="Times,serif" font-size="14.00">gini = 0.492</text>
<text text-anchor="middle" x="268.5" y="-228.8" font-family="Times,serif" font-size="14.00">samples = 9182</text>
<text text-anchor="middle" x="268.5" y="-213.8" font-family="Times,serif" font-size="14.00">value = [3996, 5186]</text>
<text text-anchor="middle" x="268.5" y="-198.8" font-family="Times,serif" font-size="14.00">class = True</text>
</g>
<!-- 1&#45;&gt;2 -->
<g id="edge2" class="edge">
<title>1&#45;&gt;2</title>
<path fill="none" stroke="black" d="M443.77,-312.68C417.59,-300.85 388.55,-287.73 361.76,-275.63"/>
<polygon fill="black" stroke="black" points="362.94,-272.32 352.39,-271.4 360.06,-278.7 362.94,-272.32"/>
</g>
<!-- 107 -->
<g id="node10" class="node">
<title>107</title>
<polygon fill="#abd5f4" stroke="black" points="611,-274 444,-274 444,-191 611,-191 611,-274"/>
<text text-anchor="middle" x="527.5" y="-258.8" font-family="Times,serif" font-size="14.00">sdComm &lt;= 0.065</text>
<text text-anchor="middle" x="527.5" y="-243.8" font-family="Times,serif" font-size="14.00">gini = 0.463</text>
<text text-anchor="middle" x="527.5" y="-228.8" font-family="Times,serif" font-size="14.00">samples = 3062</text>
<text text-anchor="middle" x="527.5" y="-213.8" font-family="Times,serif" font-size="14.00">value = [1116, 1946]</text>
<text text-anchor="middle" x="527.5" y="-198.8" font-family="Times,serif" font-size="14.00">class = True</text>
</g>
<!-- 1&#45;&gt;107 -->
<g id="edge9" class="edge">
<title>1&#45;&gt;107</title>
<path fill="none" stroke="black" d="M527.5,-309.91C527.5,-301.65 527.5,-292.86 527.5,-284.3"/>
<polygon fill="black" stroke="black" points="531,-284.02 527.5,-274.02 524,-284.02 531,-284.02"/>
</g>
<!-- 3 -->
<g id="node4" class="node">
<title>3</title>
<polygon fill="#e6f3fc" stroke="black" points="167,-155 0,-155 0,-72 167,-72 167,-155"/>
<text text-anchor="middle" x="83.5" y="-139.8" font-family="Times,serif" font-size="14.00">sdComp &lt;= 0.065</text>
<text text-anchor="middle" x="83.5" y="-124.8" font-family="Times,serif" font-size="14.00">gini = 0.498</text>
<text text-anchor="middle" x="83.5" y="-109.8" font-family="Times,serif" font-size="14.00">samples = 2454</text>
<text text-anchor="middle" x="83.5" y="-94.8" font-family="Times,serif" font-size="14.00">value = [1146, 1308]</text>
<text text-anchor="middle" x="83.5" y="-79.8" font-family="Times,serif" font-size="14.00">class = True</text>
</g>
<!-- 2&#45;&gt;3 -->
<g id="edge3" class="edge">
<title>2&#45;&gt;3</title>
<path fill="none" stroke="black" d="M204.32,-190.91C188.82,-181.11 172.15,-170.56 156.29,-160.53"/>
<polygon fill="black" stroke="black" points="157.89,-157.41 147.57,-155.02 154.15,-163.32 157.89,-157.41"/>
</g>
<!-- 48 -->
<g id="node7" class="node">
<title>48</title>
<polygon fill="#cbe5f8" stroke="black" points="352,-155 185,-155 185,-72 352,-72 352,-155"/>
<text text-anchor="middle" x="268.5" y="-139.8" font-family="Times,serif" font-size="14.00">sdComm &lt;= 0.065</text>
<text text-anchor="middle" x="268.5" y="-124.8" font-family="Times,serif" font-size="14.00">gini = 0.488</text>
<text text-anchor="middle" x="268.5" y="-109.8" font-family="Times,serif" font-size="14.00">samples = 6728</text>
<text text-anchor="middle" x="268.5" y="-94.8" font-family="Times,serif" font-size="14.00">value = [2850, 3878]</text>
<text text-anchor="middle" x="268.5" y="-79.8" font-family="Times,serif" font-size="14.00">class = True</text>
</g>
<!-- 2&#45;&gt;48 -->
<g id="edge6" class="edge">
<title>2&#45;&gt;48</title>
<path fill="none" stroke="black" d="M268.5,-190.91C268.5,-182.65 268.5,-173.86 268.5,-165.3"/>
<polygon fill="black" stroke="black" points="272,-165.02 268.5,-155.02 265,-165.02 272,-165.02"/>
</g>
<!-- 4 -->
<g id="node5" class="node">
<title>4</title>
<polygon fill="#c0c0c0" stroke="black" points="74.5,-36 20.5,-36 20.5,0 74.5,0 74.5,-36"/>
<text text-anchor="middle" x="47.5" y="-14.3" font-family="Times,serif" font-size="14.00">(...)</text>
</g>
<!-- 3&#45;&gt;4 -->
<g id="edge4" class="edge">
<title>3&#45;&gt;4</title>
<path fill="none" stroke="black" d="M67.81,-71.76C64.46,-63.04 60.99,-54.04 57.89,-45.99"/>
<polygon fill="black" stroke="black" points="61.06,-44.48 54.2,-36.41 54.53,-46.99 61.06,-44.48"/>
</g>
<!-- 15 -->
<g id="node6" class="node">
<title>15</title>
<polygon fill="#c0c0c0" stroke="black" points="146.5,-36 92.5,-36 92.5,0 146.5,0 146.5,-36"/>
<text text-anchor="middle" x="119.5" y="-14.3" font-family="Times,serif" font-size="14.00">(...)</text>
</g>
<!-- 3&#45;&gt;15 -->
<g id="edge5" class="edge">
<title>3&#45;&gt;15</title>
<path fill="none" stroke="black" d="M99.19,-71.76C102.54,-63.04 106.01,-54.04 109.11,-45.99"/>
<polygon fill="black" stroke="black" points="112.47,-46.99 112.8,-36.41 105.94,-44.48 112.47,-46.99"/>
</g>
<!-- 49 -->
<g id="node8" class="node">
<title>49</title>
<polygon fill="#c0c0c0" stroke="black" points="252.5,-36 198.5,-36 198.5,0 252.5,0 252.5,-36"/>
<text text-anchor="middle" x="225.5" y="-14.3" font-family="Times,serif" font-size="14.00">(...)</text>
</g>
<!-- 48&#45;&gt;49 -->
<g id="edge7" class="edge">
<title>48&#45;&gt;49</title>
<path fill="none" stroke="black" d="M249.76,-71.76C245.71,-62.94 241.52,-53.84 237.79,-45.72"/>
<polygon fill="black" stroke="black" points="240.86,-44.03 233.5,-36.41 234.5,-46.95 240.86,-44.03"/>
</g>
<!-- 66 -->
<g id="node9" class="node">
<title>66</title>
<polygon fill="#c0c0c0" stroke="black" points="324.5,-36 270.5,-36 270.5,0 324.5,0 324.5,-36"/>
<text text-anchor="middle" x="297.5" y="-14.3" font-family="Times,serif" font-size="14.00">(...)</text>
</g>
<!-- 48&#45;&gt;66 -->
<g id="edge8" class="edge">
<title>48&#45;&gt;66</title>
<path fill="none" stroke="black" d="M281.14,-71.76C283.84,-63.04 286.63,-54.04 289.13,-45.99"/>
<polygon fill="black" stroke="black" points="292.48,-46.99 292.1,-36.41 285.8,-44.92 292.48,-46.99"/>
</g>
<!-- 108 -->
<g id="node11" class="node">
<title>108</title>
<polygon fill="#baddf6" stroke="black" points="519,-155 370,-155 370,-72 519,-72 519,-155"/>
<text text-anchor="middle" x="444.5" y="-139.8" font-family="Times,serif" font-size="14.00">sdComm &lt;= 0.02</text>
<text text-anchor="middle" x="444.5" y="-124.8" font-family="Times,serif" font-size="14.00">gini = 0.478</text>
<text text-anchor="middle" x="444.5" y="-109.8" font-family="Times,serif" font-size="14.00">samples = 1282</text>
<text text-anchor="middle" x="444.5" y="-94.8" font-family="Times,serif" font-size="14.00">value = [506, 776]</text>
<text text-anchor="middle" x="444.5" y="-79.8" font-family="Times,serif" font-size="14.00">class = True</text>
</g>
<!-- 107&#45;&gt;108 -->
<g id="edge10" class="edge">
<title>107&#45;&gt;108</title>
<path fill="none" stroke="black" d="M498.7,-190.91C492.39,-182.01 485.65,-172.51 479.14,-163.33"/>
<polygon fill="black" stroke="black" points="481.89,-161.15 473.25,-155.02 476.18,-165.2 481.89,-161.15"/>
</g>
<!-- 145 -->
<g id="node14" class="node">
<title>145</title>
<polygon fill="#a0d0f3" stroke="black" points="694.5,-155 536.5,-155 536.5,-72 694.5,-72 694.5,-155"/>
<text text-anchor="middle" x="615.5" y="-139.8" font-family="Times,serif" font-size="14.00">sdComp &lt;= 0.65</text>
<text text-anchor="middle" x="615.5" y="-124.8" font-family="Times,serif" font-size="14.00">gini = 0.451</text>
<text text-anchor="middle" x="615.5" y="-109.8" font-family="Times,serif" font-size="14.00">samples = 1780</text>
<text text-anchor="middle" x="615.5" y="-94.8" font-family="Times,serif" font-size="14.00">value = [610, 1170]</text>
<text text-anchor="middle" x="615.5" y="-79.8" font-family="Times,serif" font-size="14.00">class = True</text>
</g>
<!-- 107&#45;&gt;145 -->
<g id="edge13" class="edge">
<title>107&#45;&gt;145</title>
<path fill="none" stroke="black" d="M558.03,-190.91C564.79,-181.92 572.02,-172.32 578.98,-163.05"/>
<polygon fill="black" stroke="black" points="581.81,-165.12 585.02,-155.02 576.21,-160.91 581.81,-165.12"/>
</g>
<!-- 109 -->
<g id="node12" class="node">
<title>109</title>
<polygon fill="#c0c0c0" stroke="black" points="412.5,-36 358.5,-36 358.5,0 412.5,0 412.5,-36"/>
<text text-anchor="middle" x="385.5" y="-14.3" font-family="Times,serif" font-size="14.00">(...)</text>
</g>
<!-- 108&#45;&gt;109 -->
<g id="edge11" class="edge">
<title>108&#45;&gt;109</title>
<path fill="none" stroke="black" d="M418.79,-71.76C413.05,-62.65 407.1,-53.24 401.86,-44.92"/>
<polygon fill="black" stroke="black" points="404.78,-42.99 396.48,-36.41 398.86,-46.73 404.78,-42.99"/>
</g>
<!-- 126 -->
<g id="node13" class="node">
<title>126</title>
<polygon fill="#c0c0c0" stroke="black" points="484.5,-36 430.5,-36 430.5,0 484.5,0 484.5,-36"/>
<text text-anchor="middle" x="457.5" y="-14.3" font-family="Times,serif" font-size="14.00">(...)</text>
</g>
<!-- 108&#45;&gt;126 -->
<g id="edge12" class="edge">
<title>108&#45;&gt;126</title>
<path fill="none" stroke="black" d="M450.16,-71.76C451.35,-63.24 452.57,-54.44 453.67,-46.53"/>
<polygon fill="black" stroke="black" points="457.17,-46.79 455.08,-36.41 450.24,-45.83 457.17,-46.79"/>
</g>
<!-- 146 -->
<g id="node15" class="node">
<title>146</title>
<polygon fill="#c0c0c0" stroke="black" points="583.5,-36 529.5,-36 529.5,0 583.5,0 583.5,-36"/>
<text text-anchor="middle" x="556.5" y="-14.3" font-family="Times,serif" font-size="14.00">(...)</text>
</g>
<!-- 145&#45;&gt;146 -->
<g id="edge14" class="edge">
<title>145&#45;&gt;146</title>
<path fill="none" stroke="black" d="M589.79,-71.76C584.05,-62.65 578.1,-53.24 572.86,-44.92"/>
<polygon fill="black" stroke="black" points="575.78,-42.99 567.48,-36.41 569.86,-46.73 575.78,-42.99"/>
</g>
<!-- 189 -->
<g id="node16" class="node">
<title>189</title>
<polygon fill="#c0c0c0" stroke="black" points="655.5,-36 601.5,-36 601.5,0 655.5,0 655.5,-36"/>
<text text-anchor="middle" x="628.5" y="-14.3" font-family="Times,serif" font-size="14.00">(...)</text>
</g>
<!-- 145&#45;&gt;189 -->
<g id="edge15" class="edge">
<title>145&#45;&gt;189</title>
<path fill="none" stroke="black" d="M621.16,-71.76C622.35,-63.24 623.57,-54.44 624.67,-46.53"/>
<polygon fill="black" stroke="black" points="628.17,-46.79 626.08,-36.41 621.24,-45.83 628.17,-46.79"/>
</g>
<!-- 227 -->
<g id="node18" class="node">
<title>227</title>
<polygon fill="#f9e2d2" stroke="black" points="955,-274 788,-274 788,-191 955,-191 955,-274"/>
<text text-anchor="middle" x="871.5" y="-258.8" font-family="Times,serif" font-size="14.00">graphDepth &lt;= 3.5</text>
<text text-anchor="middle" x="871.5" y="-243.8" font-family="Times,serif" font-size="14.00">gini = 0.492</text>
<text text-anchor="middle" x="871.5" y="-228.8" font-family="Times,serif" font-size="14.00">samples = 4356</text>
<text text-anchor="middle" x="871.5" y="-213.8" font-family="Times,serif" font-size="14.00">value = [2460, 1896]</text>
<text text-anchor="middle" x="871.5" y="-198.8" font-family="Times,serif" font-size="14.00">class = False</text>
</g>
<!-- 226&#45;&gt;227 -->
<g id="edge17" class="edge">
<title>226&#45;&gt;227</title>
<path fill="none" stroke="black" d="M871.5,-309.91C871.5,-301.65 871.5,-292.86 871.5,-284.3"/>
<polygon fill="black" stroke="black" points="875,-284.02 871.5,-274.02 868,-284.02 875,-284.02"/>
</g>
<!-- 312 -->
<g id="node25" class="node">
<title>312</title>
<polygon fill="#f7d7c0" stroke="black" points="1226,-274 1059,-274 1059,-191 1226,-191 1226,-274"/>
<text text-anchor="middle" x="1142.5" y="-258.8" font-family="Times,serif" font-size="14.00">sdComm &lt;= 2.0</text>
<text text-anchor="middle" x="1142.5" y="-243.8" font-family="Times,serif" font-size="14.00">gini = 0.482</text>
<text text-anchor="middle" x="1142.5" y="-228.8" font-family="Times,serif" font-size="14.00">samples = 6296</text>
<text text-anchor="middle" x="1142.5" y="-213.8" font-family="Times,serif" font-size="14.00">value = [3748, 2548]</text>
<text text-anchor="middle" x="1142.5" y="-198.8" font-family="Times,serif" font-size="14.00">class = False</text>
</g>
<!-- 226&#45;&gt;312 -->
<g id="edge24" class="edge">
<title>226&#45;&gt;312</title>
<path fill="none" stroke="black" d="M955.02,-314.44C984.9,-301.54 1018.75,-286.93 1049.39,-273.7"/>
<polygon fill="black" stroke="black" points="1051,-276.82 1058.79,-269.64 1048.22,-270.39 1051,-276.82"/>
</g>
<!-- 228 -->
<g id="node19" class="node">
<title>228</title>
<polygon fill="#f2f8fd" stroke="black" points="861,-155 712,-155 712,-72 861,-72 861,-155"/>
<text text-anchor="middle" x="786.5" y="-139.8" font-family="Times,serif" font-size="14.00">nbproc &lt;= 4.5</text>
<text text-anchor="middle" x="786.5" y="-124.8" font-family="Times,serif" font-size="14.00">gini = 0.499</text>
<text text-anchor="middle" x="786.5" y="-109.8" font-family="Times,serif" font-size="14.00">samples = 348</text>
<text text-anchor="middle" x="786.5" y="-94.8" font-family="Times,serif" font-size="14.00">value = [168, 180]</text>
<text text-anchor="middle" x="786.5" y="-79.8" font-family="Times,serif" font-size="14.00">class = True</text>
</g>
<!-- 227&#45;&gt;228 -->
<g id="edge18" class="edge">
<title>227&#45;&gt;228</title>
<path fill="none" stroke="black" d="M842.01,-190.91C835.55,-182.01 828.64,-172.51 821.98,-163.33"/>
<polygon fill="black" stroke="black" points="824.65,-161.05 815.94,-155.02 818.98,-165.17 824.65,-161.05"/>
</g>
<!-- 239 -->
<g id="node22" class="node">
<title>239</title>
<polygon fill="#f8dfcd" stroke="black" points="1046,-155 879,-155 879,-72 1046,-72 1046,-155"/>
<text text-anchor="middle" x="962.5" y="-139.8" font-family="Times,serif" font-size="14.00">graphSize &lt;= 22.5</text>
<text text-anchor="middle" x="962.5" y="-124.8" font-family="Times,serif" font-size="14.00">gini = 0.49</text>
<text text-anchor="middle" x="962.5" y="-109.8" font-family="Times,serif" font-size="14.00">samples = 4008</text>
<text text-anchor="middle" x="962.5" y="-94.8" font-family="Times,serif" font-size="14.00">value = [2292, 1716]</text>
<text text-anchor="middle" x="962.5" y="-79.8" font-family="Times,serif" font-size="14.00">class = False</text>
</g>
<!-- 227&#45;&gt;239 -->
<g id="edge21" class="edge">
<title>227&#45;&gt;239</title>
<path fill="none" stroke="black" d="M903.07,-190.91C910.06,-181.92 917.53,-172.32 924.74,-163.05"/>
<polygon fill="black" stroke="black" points="927.61,-165.06 930.98,-155.02 922.08,-160.77 927.61,-165.06"/>
</g>
<!-- 229 -->
<g id="node20" class="node">
<title>229</title>
<polygon fill="#c0c0c0" stroke="black" points="757.5,-36 703.5,-36 703.5,0 757.5,0 757.5,-36"/>
<text text-anchor="middle" x="730.5" y="-14.3" font-family="Times,serif" font-size="14.00">(...)</text>
</g>
<!-- 228&#45;&gt;229 -->
<g id="edge19" class="edge">
<title>228&#45;&gt;229</title>
<path fill="none" stroke="black" d="M762.1,-71.76C756.7,-62.75 751.13,-53.44 746.19,-45.19"/>
<polygon fill="black" stroke="black" points="749.07,-43.19 740.92,-36.41 743.06,-46.78 749.07,-43.19"/>
</g>
<!-- 234 -->
<g id="node21" class="node">
<title>234</title>
<polygon fill="#c0c0c0" stroke="black" points="829.5,-36 775.5,-36 775.5,0 829.5,0 829.5,-36"/>
<text text-anchor="middle" x="802.5" y="-14.3" font-family="Times,serif" font-size="14.00">(...)</text>
</g>
<!-- 228&#45;&gt;234 -->
<g id="edge20" class="edge">
<title>228&#45;&gt;234</title>
<path fill="none" stroke="black" d="M793.47,-71.76C794.93,-63.24 796.44,-54.44 797.79,-46.53"/>
<polygon fill="black" stroke="black" points="801.28,-46.85 799.52,-36.41 794.38,-45.67 801.28,-46.85"/>
</g>
<!-- 240 -->
<g id="node23" class="node">
<title>240</title>
<polygon fill="#c0c0c0" stroke="black" points="935.5,-36 881.5,-36 881.5,0 935.5,0 935.5,-36"/>
<text text-anchor="middle" x="908.5" y="-14.3" font-family="Times,serif" font-size="14.00">(...)</text>
</g>
<!-- 239&#45;&gt;240 -->
<g id="edge22" class="edge">
<title>239&#45;&gt;240</title>
<path fill="none" stroke="black" d="M938.97,-71.76C933.77,-62.75 928.39,-53.44 923.63,-45.19"/>
<polygon fill="black" stroke="black" points="926.58,-43.31 918.55,-36.41 920.52,-46.82 926.58,-43.31"/>
</g>
<!-- 251 -->
<g id="node24" class="node">
<title>251</title>
<polygon fill="#c0c0c0" stroke="black" points="1007.5,-36 953.5,-36 953.5,0 1007.5,0 1007.5,-36"/>
<text text-anchor="middle" x="980.5" y="-14.3" font-family="Times,serif" font-size="14.00">(...)</text>
</g>
<!-- 239&#45;&gt;251 -->
<g id="edge23" class="edge">
<title>239&#45;&gt;251</title>
<path fill="none" stroke="black" d="M970.34,-71.76C972,-63.14 973.72,-54.24 975.25,-46.26"/>
<polygon fill="black" stroke="black" points="978.7,-46.89 977.15,-36.41 971.82,-45.56 978.7,-46.89"/>
</g>
<!-- 313 -->
<g id="node26" class="node">
<title>313</title>
<polygon fill="#f9e4d4" stroke="black" points="1221.5,-155 1063.5,-155 1063.5,-72 1221.5,-72 1221.5,-155"/>
<text text-anchor="middle" x="1142.5" y="-139.8" font-family="Times,serif" font-size="14.00">sdComp &lt;= 6.5</text>
<text text-anchor="middle" x="1142.5" y="-124.8" font-family="Times,serif" font-size="14.00">gini = 0.493</text>
<text text-anchor="middle" x="1142.5" y="-109.8" font-family="Times,serif" font-size="14.00">samples = 2248</text>
<text text-anchor="middle" x="1142.5" y="-94.8" font-family="Times,serif" font-size="14.00">value = [1260, 988]</text>
<text text-anchor="middle" x="1142.5" y="-79.8" font-family="Times,serif" font-size="14.00">class = False</text>
</g>
<!-- 312&#45;&gt;313 -->
<g id="edge25" class="edge">
<title>312&#45;&gt;313</title>
<path fill="none" stroke="black" d="M1142.5,-190.91C1142.5,-182.65 1142.5,-173.86 1142.5,-165.3"/>
<polygon fill="black" stroke="black" points="1146,-165.02 1142.5,-155.02 1139,-165.02 1146,-165.02"/>
</g>
<!-- 356 -->
<g id="node29" class="node">
<title>356</title>
<polygon fill="#f5d0b5" stroke="black" points="1406,-155 1239,-155 1239,-72 1406,-72 1406,-155"/>
<text text-anchor="middle" x="1322.5" y="-139.8" font-family="Times,serif" font-size="14.00">graphDepth &lt;= 3.5</text>
<text text-anchor="middle" x="1322.5" y="-124.8" font-family="Times,serif" font-size="14.00">gini = 0.474</text>
<text text-anchor="middle" x="1322.5" y="-109.8" font-family="Times,serif" font-size="14.00">samples = 4048</text>
<text text-anchor="middle" x="1322.5" y="-94.8" font-family="Times,serif" font-size="14.00">value = [2488, 1560]</text>
<text text-anchor="middle" x="1322.5" y="-79.8" font-family="Times,serif" font-size="14.00">class = False</text>
</g>
<!-- 312&#45;&gt;356 -->
<g id="edge28" class="edge">
<title>312&#45;&gt;356</title>
<path fill="none" stroke="black" d="M1204.95,-190.91C1220.03,-181.11 1236.25,-170.56 1251.68,-160.53"/>
<polygon fill="black" stroke="black" points="1253.68,-163.41 1260.16,-155.02 1249.87,-157.54 1253.68,-163.41"/>
</g>
<!-- 314 -->
<g id="node27" class="node">
<title>314</title>
<polygon fill="#c0c0c0" stroke="black" points="1133.5,-36 1079.5,-36 1079.5,0 1133.5,0 1133.5,-36"/>
<text text-anchor="middle" x="1106.5" y="-14.3" font-family="Times,serif" font-size="14.00">(...)</text>
</g>
<!-- 313&#45;&gt;314 -->
<g id="edge26" class="edge">
<title>313&#45;&gt;314</title>
<path fill="none" stroke="black" d="M1126.81,-71.76C1123.46,-63.04 1119.99,-54.04 1116.89,-45.99"/>
<polygon fill="black" stroke="black" points="1120.06,-44.48 1113.2,-36.41 1113.53,-46.99 1120.06,-44.48"/>
</g>
<!-- 335 -->
<g id="node28" class="node">
<title>335</title>
<polygon fill="#c0c0c0" stroke="black" points="1205.5,-36 1151.5,-36 1151.5,0 1205.5,0 1205.5,-36"/>
<text text-anchor="middle" x="1178.5" y="-14.3" font-family="Times,serif" font-size="14.00">(...)</text>
</g>
<!-- 313&#45;&gt;335 -->
<g id="edge27" class="edge">
<title>313&#45;&gt;335</title>
<path fill="none" stroke="black" d="M1158.19,-71.76C1161.54,-63.04 1165.01,-54.04 1168.11,-45.99"/>
<polygon fill="black" stroke="black" points="1171.47,-46.99 1171.8,-36.41 1164.94,-44.48 1171.47,-46.99"/>
</g>
<!-- 357 -->
<g id="node30" class="node">
<title>357</title>
<polygon fill="#c0c0c0" stroke="black" points="1313.5,-36 1259.5,-36 1259.5,0 1313.5,0 1313.5,-36"/>
<text text-anchor="middle" x="1286.5" y="-14.3" font-family="Times,serif" font-size="14.00">(...)</text>
</g>
<!-- 356&#45;&gt;357 -->
<g id="edge29" class="edge">
<title>356&#45;&gt;357</title>
<path fill="none" stroke="black" d="M1306.81,-71.76C1303.46,-63.04 1299.99,-54.04 1296.89,-45.99"/>
<polygon fill="black" stroke="black" points="1300.06,-44.48 1293.2,-36.41 1293.53,-46.99 1300.06,-44.48"/>
</g>
<!-- 368 -->
<g id="node31" class="node">
<title>368</title>
<polygon fill="#c0c0c0" stroke="black" points="1385.5,-36 1331.5,-36 1331.5,0 1385.5,0 1385.5,-36"/>
<text text-anchor="middle" x="1358.5" y="-14.3" font-family="Times,serif" font-size="14.00">(...)</text>
</g>
<!-- 356&#45;&gt;368 -->
<g id="edge30" class="edge">
<title>356&#45;&gt;368</title>
<path fill="none" stroke="black" d="M1338.19,-71.76C1341.54,-63.04 1345.01,-54.04 1348.11,-45.99"/>
<polygon fill="black" stroke="black" points="1351.47,-46.99 1351.8,-36.41 1344.94,-44.48 1351.47,-46.99"/>
</g>
</g>
</svg>
