<?xml version="1.0" encoding="UTF-8" standalone="no"?>
<!DOCTYPE svg PUBLIC "-//W3C//DTD SVG 1.1//EN"
 "http://www.w3.org/Graphics/SVG/1.1/DTD/svg11.dtd">
<!-- Generated by graphviz version 2.43.0 (0)
 -->
<!-- Title: Tree Pages: 1 -->
<svg width="1348pt" height="520pt"
 viewBox="0.00 0.00 1348.00 520.00" xmlns="http://www.w3.org/2000/svg" xmlns:xlink="http://www.w3.org/1999/xlink">
<g id="graph0" class="graph" transform="scale(1 1) rotate(0) translate(4 516)">
<title>Tree</title>
<polygon fill="white" stroke="transparent" points="-4,4 -4,-516 1344,-516 1344,4 -4,4"/>
<!-- 0 -->
<g id="node1" class="node">
<title>0</title>
<polygon fill="#ffffff" stroke="black" points="703,-512 518,-512 518,-429 703,-429 703,-512"/>
<text text-anchor="middle" x="610.5" y="-496.8" font-family="Times,serif" font-size="14.00">graphDepth &lt;= 3.5</text>
<text text-anchor="middle" x="610.5" y="-481.8" font-family="Times,serif" font-size="14.00">gini = 0.5</text>
<text text-anchor="middle" x="610.5" y="-466.8" font-family="Times,serif" font-size="14.00">samples = 22896</text>
<text text-anchor="middle" x="610.5" y="-451.8" font-family="Times,serif" font-size="14.00">value = [11445, 11451]</text>
<text text-anchor="middle" x="610.5" y="-436.8" font-family="Times,serif" font-size="14.00">class = True</text>
</g>
<!-- 1 -->
<g id="node2" class="node">
<title>1</title>
<polygon fill="#feffff" stroke="black" points="540,-393 373,-393 373,-310 540,-310 540,-393"/>
<text text-anchor="middle" x="456.5" y="-377.8" font-family="Times,serif" font-size="14.00">sdComm &lt;= 0.2</text>
<text text-anchor="middle" x="456.5" y="-362.8" font-family="Times,serif" font-size="14.00">gini = 0.5</text>
<text text-anchor="middle" x="456.5" y="-347.8" font-family="Times,serif" font-size="14.00">samples = 2792</text>
<text text-anchor="middle" x="456.5" y="-332.8" font-family="Times,serif" font-size="14.00">value = [1393, 1399]</text>
<text text-anchor="middle" x="456.5" y="-317.8" font-family="Times,serif" font-size="14.00">class = True</text>
</g>
<!-- 0&#45;&gt;1 -->
<g id="edge1" class="edge">
<title>0&#45;&gt;1</title>
<path fill="none" stroke="black" d="M557.07,-428.91C544.41,-419.29 530.81,-408.95 517.82,-399.09"/>
<polygon fill="black" stroke="black" points="519.92,-396.28 509.84,-393.02 515.68,-401.86 519.92,-396.28"/>
<text text-anchor="middle" x="513.22" y="-414.09" font-family="Times,serif" font-size="14.00">True</text>
</g>
<!-- 72 -->
<g id="node17" class="node">
<title>72</title>
<polygon fill="#ffffff" stroke="black" points="890,-393 705,-393 705,-310 890,-310 890,-393"/>
<text text-anchor="middle" x="797.5" y="-377.8" font-family="Times,serif" font-size="14.00">graphDepth &lt;= 6.5</text>
<text text-anchor="middle" x="797.5" y="-362.8" font-family="Times,serif" font-size="14.00">gini = 0.5</text>
<text text-anchor="middle" x="797.5" y="-347.8" font-family="Times,serif" font-size="14.00">samples = 20104</text>
<text text-anchor="middle" x="797.5" y="-332.8" font-family="Times,serif" font-size="14.00">value = [10052, 10052]</text>
<text text-anchor="middle" x="797.5" y="-317.8" font-family="Times,serif" font-size="14.00">class = False</text>
</g>
<!-- 0&#45;&gt;72 -->
<g id="edge16" class="edge">
<title>0&#45;&gt;72</title>
<path fill="none" stroke="black" d="M675.38,-428.91C691.04,-419.11 707.9,-408.56 723.93,-398.53"/>
<polygon fill="black" stroke="black" points="726.11,-401.29 732.74,-393.02 722.4,-395.36 726.11,-401.29"/>
<text text-anchor="middle" x="727.13" y="-413.68" font-family="Times,serif" font-size="14.00">False</text>
</g>
<!-- 2 -->
<g id="node3" class="node">
<title>2</title>
<polygon fill="#fdfeff" stroke="black" points="307,-274 158,-274 158,-191 307,-191 307,-274"/>
<text text-anchor="middle" x="232.5" y="-258.8" font-family="Times,serif" font-size="14.00">sdComp &lt;= 0.65</text>
<text text-anchor="middle" x="232.5" y="-243.8" font-family="Times,serif" font-size="14.00">gini = 0.5</text>
<text text-anchor="middle" x="232.5" y="-228.8" font-family="Times,serif" font-size="14.00">samples = 1342</text>
<text text-anchor="middle" x="232.5" y="-213.8" font-family="Times,serif" font-size="14.00">value = [668, 674]</text>
<text text-anchor="middle" x="232.5" y="-198.8" font-family="Times,serif" font-size="14.00">class = True</text>
</g>
<!-- 1&#45;&gt;2 -->
<g id="edge2" class="edge">
<title>1&#45;&gt;2</title>
<path fill="none" stroke="black" d="M378.78,-309.91C358.53,-299.33 336.62,-287.89 316.08,-277.16"/>
<polygon fill="black" stroke="black" points="317.54,-273.97 307.06,-272.44 314.3,-280.18 317.54,-273.97"/>
</g>
<!-- 27 -->
<g id="node10" class="node">
<title>27</title>
<polygon fill="#ffffff" stroke="black" points="531,-274 382,-274 382,-191 531,-191 531,-274"/>
<text text-anchor="middle" x="456.5" y="-258.8" font-family="Times,serif" font-size="14.00">sdComp &lt;= 0.2</text>
<text text-anchor="middle" x="456.5" y="-243.8" font-family="Times,serif" font-size="14.00">gini = 0.5</text>
<text text-anchor="middle" x="456.5" y="-228.8" font-family="Times,serif" font-size="14.00">samples = 1450</text>
<text text-anchor="middle" x="456.5" y="-213.8" font-family="Times,serif" font-size="14.00">value = [725, 725]</text>
<text text-anchor="middle" x="456.5" y="-198.8" font-family="Times,serif" font-size="14.00">class = False</text>
</g>
<!-- 1&#45;&gt;27 -->
<g id="edge9" class="edge">
<title>1&#45;&gt;27</title>
<path fill="none" stroke="black" d="M456.5,-309.91C456.5,-301.65 456.5,-292.86 456.5,-284.3"/>
<polygon fill="black" stroke="black" points="460,-284.02 456.5,-274.02 453,-284.02 460,-284.02"/>
</g>
<!-- 3 -->
<g id="node4" class="node">
<title>3</title>
<polygon fill="#ffffff" stroke="black" points="149,-155 0,-155 0,-72 149,-72 149,-155"/>
<text text-anchor="middle" x="74.5" y="-139.8" font-family="Times,serif" font-size="14.00">CCR &lt;= 0.55</text>
<text text-anchor="middle" x="74.5" y="-124.8" font-family="Times,serif" font-size="14.00">gini = 0.5</text>
<text text-anchor="middle" x="74.5" y="-109.8" font-family="Times,serif" font-size="14.00">samples = 1216</text>
<text text-anchor="middle" x="74.5" y="-94.8" font-family="Times,serif" font-size="14.00">value = [608, 608]</text>
<text text-anchor="middle" x="74.5" y="-79.8" font-family="Times,serif" font-size="14.00">class = False</text>
</g>
<!-- 2&#45;&gt;3 -->
<g id="edge3" class="edge">
<title>2&#45;&gt;3</title>
<path fill="none" stroke="black" d="M177.68,-190.91C164.69,-181.29 150.74,-170.95 137.42,-161.09"/>
<polygon fill="black" stroke="black" points="139.34,-158.16 129.22,-155.02 135.17,-163.78 139.34,-158.16"/>
</g>
<!-- 24 -->
<g id="node7" class="node">
<title>24</title>
<polygon fill="#edf6fd" stroke="black" points="298,-155 167,-155 167,-72 298,-72 298,-155"/>
<text text-anchor="middle" x="232.5" y="-139.8" font-family="Times,serif" font-size="14.00">nbproc &lt;= 4.5</text>
<text text-anchor="middle" x="232.5" y="-124.8" font-family="Times,serif" font-size="14.00">gini = 0.499</text>
<text text-anchor="middle" x="232.5" y="-109.8" font-family="Times,serif" font-size="14.00">samples = 126</text>
<text text-anchor="middle" x="232.5" y="-94.8" font-family="Times,serif" font-size="14.00">value = [60, 66]</text>
<text text-anchor="middle" x="232.5" y="-79.8" font-family="Times,serif" font-size="14.00">class = True</text>
</g>
<!-- 2&#45;&gt;24 -->
<g id="edge6" class="edge">
<title>2&#45;&gt;24</title>
<path fill="none" stroke="black" d="M232.5,-190.91C232.5,-182.65 232.5,-173.86 232.5,-165.3"/>
<polygon fill="black" stroke="black" points="236,-165.02 232.5,-155.02 229,-165.02 236,-165.02"/>
</g>
<!-- 4 -->
<g id="node5" class="node">
<title>4</title>
<polygon fill="#c0c0c0" stroke="black" points="65.5,-36 11.5,-36 11.5,0 65.5,0 65.5,-36"/>
<text text-anchor="middle" x="38.5" y="-14.3" font-family="Times,serif" font-size="14.00">(...)</text>
</g>
<!-- 3&#45;&gt;4 -->
<g id="edge4" class="edge">
<title>3&#45;&gt;4</title>
<path fill="none" stroke="black" d="M58.81,-71.76C55.46,-63.04 51.99,-54.04 48.89,-45.99"/>
<polygon fill="black" stroke="black" points="52.06,-44.48 45.2,-36.41 45.53,-46.99 52.06,-44.48"/>
</g>
<!-- 21 -->
<g id="node6" class="node">
<title>21</title>
<polygon fill="#c0c0c0" stroke="black" points="137.5,-36 83.5,-36 83.5,0 137.5,0 137.5,-36"/>
<text text-anchor="middle" x="110.5" y="-14.3" font-family="Times,serif" font-size="14.00">(...)</text>
</g>
<!-- 3&#45;&gt;21 -->
<g id="edge5" class="edge">
<title>3&#45;&gt;21</title>
<path fill="none" stroke="black" d="M90.19,-71.76C93.54,-63.04 97.01,-54.04 100.11,-45.99"/>
<polygon fill="black" stroke="black" points="103.47,-46.99 103.8,-36.41 96.94,-44.48 103.47,-46.99"/>
</g>
<!-- 25 -->
<g id="node8" class="node">
<title>25</title>
<polygon fill="#c0c0c0" stroke="black" points="234.5,-36 180.5,-36 180.5,0 234.5,0 234.5,-36"/>
<text text-anchor="middle" x="207.5" y="-14.3" font-family="Times,serif" font-size="14.00">(...)</text>
</g>
<!-- 24&#45;&gt;25 -->
<g id="edge7" class="edge">
<title>24&#45;&gt;25</title>
<path fill="none" stroke="black" d="M221.61,-71.76C219.3,-63.14 216.92,-54.24 214.79,-46.26"/>
<polygon fill="black" stroke="black" points="218.12,-45.16 212.15,-36.41 211.36,-46.97 218.12,-45.16"/>
</g>
<!-- 26 -->
<g id="node9" class="node">
<title>26</title>
<polygon fill="#c0c0c0" stroke="black" points="306.5,-36 252.5,-36 252.5,0 306.5,0 306.5,-36"/>
<text text-anchor="middle" x="279.5" y="-14.3" font-family="Times,serif" font-size="14.00">(...)</text>
</g>
<!-- 24&#45;&gt;26 -->
<g id="edge8" class="edge">
<title>24&#45;&gt;26</title>
<path fill="none" stroke="black" d="M252.98,-71.76C257.46,-62.85 262.09,-53.64 266.2,-45.46"/>
<polygon fill="black" stroke="black" points="269.39,-46.91 270.75,-36.41 263.13,-43.77 269.39,-46.91"/>
</g>
<!-- 28 -->
<g id="node11" class="node">
<title>28</title>
<polygon fill="#ffffff" stroke="black" points="447,-155 316,-155 316,-72 447,-72 447,-155"/>
<text text-anchor="middle" x="381.5" y="-139.8" font-family="Times,serif" font-size="14.00">nbproc &lt;= 4.5</text>
<text text-anchor="middle" x="381.5" y="-124.8" font-family="Times,serif" font-size="14.00">gini = 0.5</text>
<text text-anchor="middle" x="381.5" y="-109.8" font-family="Times,serif" font-size="14.00">samples = 108</text>
<text text-anchor="middle" x="381.5" y="-94.8" font-family="Times,serif" font-size="14.00">value = [54, 54]</text>
<text text-anchor="middle" x="381.5" y="-79.8" font-family="Times,serif" font-size="14.00">class = False</text>
</g>
<!-- 27&#45;&gt;28 -->
<g id="edge10" class="edge">
<title>27&#45;&gt;28</title>
<path fill="none" stroke="black" d="M430.48,-190.91C424.84,-182.1 418.81,-172.7 412.98,-163.61"/>
<polygon fill="black" stroke="black" points="415.82,-161.55 407.47,-155.02 409.93,-165.33 415.82,-161.55"/>
</g>
<!-- 31 -->
<g id="node14" class="node">
<title>31</title>
<polygon fill="#ffffff" stroke="black" points="614,-155 465,-155 465,-72 614,-72 614,-155"/>
<text text-anchor="middle" x="539.5" y="-139.8" font-family="Times,serif" font-size="14.00">sdComp &lt;= 0.65</text>
<text text-anchor="middle" x="539.5" y="-124.8" font-family="Times,serif" font-size="14.00">gini = 0.5</text>
<text text-anchor="middle" x="539.5" y="-109.8" font-family="Times,serif" font-size="14.00">samples = 1342</text>
<text text-anchor="middle" x="539.5" y="-94.8" font-family="Times,serif" font-size="14.00">value = [671, 671]</text>
<text text-anchor="middle" x="539.5" y="-79.8" font-family="Times,serif" font-size="14.00">class = False</text>
</g>
<!-- 27&#45;&gt;31 -->
<g id="edge13" class="edge">
<title>27&#45;&gt;31</title>
<path fill="none" stroke="black" d="M485.3,-190.91C491.61,-182.01 498.35,-172.51 504.86,-163.33"/>
<polygon fill="black" stroke="black" points="507.82,-165.2 510.75,-155.02 502.11,-161.15 507.82,-165.2"/>
</g>
<!-- 29 -->
<g id="node12" class="node">
<title>29</title>
<polygon fill="#c0c0c0" stroke="black" points="393.5,-36 339.5,-36 339.5,0 393.5,0 393.5,-36"/>
<text text-anchor="middle" x="366.5" y="-14.3" font-family="Times,serif" font-size="14.00">(...)</text>
</g>
<!-- 28&#45;&gt;29 -->
<g id="edge11" class="edge">
<title>28&#45;&gt;29</title>
<path fill="none" stroke="black" d="M374.96,-71.76C373.6,-63.24 372.19,-54.44 370.92,-46.53"/>
<polygon fill="black" stroke="black" points="374.33,-45.72 369.29,-36.41 367.42,-46.83 374.33,-45.72"/>
</g>
<!-- 30 -->
<g id="node13" class="node">
<title>30</title>
<polygon fill="#c0c0c0" stroke="black" points="465.5,-36 411.5,-36 411.5,0 465.5,0 465.5,-36"/>
<text text-anchor="middle" x="438.5" y="-14.3" font-family="Times,serif" font-size="14.00">(...)</text>
</g>
<!-- 28&#45;&gt;30 -->
<g id="edge12" class="edge">
<title>28&#45;&gt;30</title>
<path fill="none" stroke="black" d="M406.34,-71.76C411.83,-62.75 417.51,-53.44 422.53,-45.19"/>
<polygon fill="black" stroke="black" points="425.67,-46.77 427.89,-36.41 419.7,-43.12 425.67,-46.77"/>
</g>
<!-- 32 -->
<g id="node15" class="node">
<title>32</title>
<polygon fill="#c0c0c0" stroke="black" points="553.5,-36 499.5,-36 499.5,0 553.5,0 553.5,-36"/>
<text text-anchor="middle" x="526.5" y="-14.3" font-family="Times,serif" font-size="14.00">(...)</text>
</g>
<!-- 31&#45;&gt;32 -->
<g id="edge14" class="edge">
<title>31&#45;&gt;32</title>
<path fill="none" stroke="black" d="M533.84,-71.76C532.65,-63.24 531.43,-54.44 530.33,-46.53"/>
<polygon fill="black" stroke="black" points="533.76,-45.83 528.92,-36.41 526.83,-46.79 533.76,-45.83"/>
</g>
<!-- 35 -->
<g id="node16" class="node">
<title>35</title>
<polygon fill="#c0c0c0" stroke="black" points="625.5,-36 571.5,-36 571.5,0 625.5,0 625.5,-36"/>
<text text-anchor="middle" x="598.5" y="-14.3" font-family="Times,serif" font-size="14.00">(...)</text>
</g>
<!-- 31&#45;&gt;35 -->
<g id="edge15" class="edge">
<title>31&#45;&gt;35</title>
<path fill="none" stroke="black" d="M565.21,-71.76C570.95,-62.65 576.9,-53.24 582.14,-44.92"/>
<polygon fill="black" stroke="black" points="585.14,-46.73 587.52,-36.41 579.22,-42.99 585.14,-46.73"/>
</g>
<!-- 73 -->
<g id="node18" class="node">
<title>73</title>
<polygon fill="#ffffff" stroke="black" points="881,-274 714,-274 714,-191 881,-191 881,-274"/>
<text text-anchor="middle" x="797.5" y="-258.8" font-family="Times,serif" font-size="14.00">sdComp &lt;= 0.02</text>
<text text-anchor="middle" x="797.5" y="-243.8" font-family="Times,serif" font-size="14.00">gini = 0.5</text>
<text text-anchor="middle" x="797.5" y="-228.8" font-family="Times,serif" font-size="14.00">samples = 11210</text>
<text text-anchor="middle" x="797.5" y="-213.8" font-family="Times,serif" font-size="14.00">value = [5605, 5605]</text>
<text text-anchor="middle" x="797.5" y="-198.8" font-family="Times,serif" font-size="14.00">class = False</text>
</g>
<!-- 72&#45;&gt;73 -->
<g id="edge17" class="edge">
<title>72&#45;&gt;73</title>
<path fill="none" stroke="black" d="M797.5,-309.91C797.5,-301.65 797.5,-292.86 797.5,-284.3"/>
<polygon fill="black" stroke="black" points="801,-284.02 797.5,-274.02 794,-284.02 801,-284.02"/>
</g>
<!-- 230 -->
<g id="node25" class="node">
<title>230</title>
<polygon fill="#ffffff" stroke="black" points="1155,-274 988,-274 988,-191 1155,-191 1155,-274"/>
<text text-anchor="middle" x="1071.5" y="-258.8" font-family="Times,serif" font-size="14.00">graphSize &lt;= 40.0</text>
<text text-anchor="middle" x="1071.5" y="-243.8" font-family="Times,serif" font-size="14.00">gini = 0.5</text>
<text text-anchor="middle" x="1071.5" y="-228.8" font-family="Times,serif" font-size="14.00">samples = 8894</text>
<text text-anchor="middle" x="1071.5" y="-213.8" font-family="Times,serif" font-size="14.00">value = [4447, 4447]</text>
<text text-anchor="middle" x="1071.5" y="-198.8" font-family="Times,serif" font-size="14.00">class = False</text>
</g>
<!-- 72&#45;&gt;230 -->
<g id="edge24" class="edge">
<title>72&#45;&gt;230</title>
<path fill="none" stroke="black" d="M890.26,-310.89C918.58,-298.8 949.72,-285.5 978.08,-273.39"/>
<polygon fill="black" stroke="black" points="979.76,-276.48 987.58,-269.33 977.01,-270.04 979.76,-276.48"/>
</g>
<!-- 74 -->
<g id="node19" class="node">
<title>74</title>
<polygon fill="#ffffff" stroke="black" points="785,-155 632,-155 632,-72 785,-72 785,-155"/>
<text text-anchor="middle" x="708.5" y="-139.8" font-family="Times,serif" font-size="14.00">graphSize &lt;= 22.5</text>
<text text-anchor="middle" x="708.5" y="-124.8" font-family="Times,serif" font-size="14.00">gini = 0.5</text>
<text text-anchor="middle" x="708.5" y="-109.8" font-family="Times,serif" font-size="14.00">samples = 976</text>
<text text-anchor="middle" x="708.5" y="-94.8" font-family="Times,serif" font-size="14.00">value = [488, 488]</text>
<text text-anchor="middle" x="708.5" y="-79.8" font-family="Times,serif" font-size="14.00">class = False</text>
</g>
<!-- 73&#45;&gt;74 -->
<g id="edge18" class="edge">
<title>73&#45;&gt;74</title>
<path fill="none" stroke="black" d="M766.62,-190.91C759.79,-181.92 752.48,-172.32 745.43,-163.05"/>
<polygon fill="black" stroke="black" points="748.16,-160.86 739.32,-155.02 742.59,-165.1 748.16,-160.86"/>
</g>
<!-- 89 -->
<g id="node22" class="node">
<title>89</title>
<polygon fill="#ffffff" stroke="black" points="970,-155 803,-155 803,-72 970,-72 970,-155"/>
<text text-anchor="middle" x="886.5" y="-139.8" font-family="Times,serif" font-size="14.00">sdComm &lt;= 0.02</text>
<text text-anchor="middle" x="886.5" y="-124.8" font-family="Times,serif" font-size="14.00">gini = 0.5</text>
<text text-anchor="middle" x="886.5" y="-109.8" font-family="Times,serif" font-size="14.00">samples = 10234</text>
<text text-anchor="middle" x="886.5" y="-94.8" font-family="Times,serif" font-size="14.00">value = [5117, 5117]</text>
<text text-anchor="middle" x="886.5" y="-79.8" font-family="Times,serif" font-size="14.00">class = False</text>
</g>
<!-- 73&#45;&gt;89 -->
<g id="edge21" class="edge">
<title>73&#45;&gt;89</title>
<path fill="none" stroke="black" d="M828.38,-190.91C835.21,-181.92 842.52,-172.32 849.57,-163.05"/>
<polygon fill="black" stroke="black" points="852.41,-165.1 855.68,-155.02 846.84,-160.86 852.41,-165.1"/>
</g>
<!-- 75 -->
<g id="node20" class="node">
<title>75</title>
<polygon fill="#c0c0c0" stroke="black" points="705.5,-36 651.5,-36 651.5,0 705.5,0 705.5,-36"/>
<text text-anchor="middle" x="678.5" y="-14.3" font-family="Times,serif" font-size="14.00">(...)</text>
</g>
<!-- 74&#45;&gt;75 -->
<g id="edge19" class="edge">
<title>74&#45;&gt;75</title>
<path fill="none" stroke="black" d="M695.43,-71.76C692.63,-63.04 689.74,-54.04 687.16,-45.99"/>
<polygon fill="black" stroke="black" points="690.47,-44.86 684.08,-36.41 683.81,-47 690.47,-44.86"/>
</g>
<!-- 84 -->
<g id="node21" class="node">
<title>84</title>
<polygon fill="#c0c0c0" stroke="black" points="777.5,-36 723.5,-36 723.5,0 777.5,0 777.5,-36"/>
<text text-anchor="middle" x="750.5" y="-14.3" font-family="Times,serif" font-size="14.00">(...)</text>
</g>
<!-- 74&#45;&gt;84 -->
<g id="edge20" class="edge">
<title>74&#45;&gt;84</title>
<path fill="none" stroke="black" d="M726.8,-71.76C730.76,-62.94 734.85,-53.84 738.5,-45.72"/>
<polygon fill="black" stroke="black" points="741.78,-46.96 742.68,-36.41 735.39,-44.09 741.78,-46.96"/>
</g>
<!-- 90 -->
<g id="node23" class="node">
<title>90</title>
<polygon fill="#c0c0c0" stroke="black" points="853.5,-36 799.5,-36 799.5,0 853.5,0 853.5,-36"/>
<text text-anchor="middle" x="826.5" y="-14.3" font-family="Times,serif" font-size="14.00">(...)</text>
</g>
<!-- 89&#45;&gt;90 -->
<g id="edge22" class="edge">
<title>89&#45;&gt;90</title>
<path fill="none" stroke="black" d="M860.36,-71.76C854.51,-62.65 848.47,-53.24 843.14,-44.92"/>
<polygon fill="black" stroke="black" points="846.02,-42.93 837.67,-36.41 840.12,-46.71 846.02,-42.93"/>
</g>
<!-- 99 -->
<g id="node24" class="node">
<title>99</title>
<polygon fill="#c0c0c0" stroke="black" points="925.5,-36 871.5,-36 871.5,0 925.5,0 925.5,-36"/>
<text text-anchor="middle" x="898.5" y="-14.3" font-family="Times,serif" font-size="14.00">(...)</text>
</g>
<!-- 89&#45;&gt;99 -->
<g id="edge23" class="edge">
<title>89&#45;&gt;99</title>
<path fill="none" stroke="black" d="M891.73,-71.76C892.82,-63.24 893.95,-54.44 894.97,-46.53"/>
<polygon fill="black" stroke="black" points="898.46,-46.77 896.27,-36.41 891.52,-45.88 898.46,-46.77"/>
</g>
<!-- 231 -->
<g id="node26" class="node">
<title>231</title>
<polygon fill="#ffffff" stroke="black" points="1155,-155 988,-155 988,-72 1155,-72 1155,-155"/>
<text text-anchor="middle" x="1071.5" y="-139.8" font-family="Times,serif" font-size="14.00">sdComp &lt;= 0.02</text>
<text text-anchor="middle" x="1071.5" y="-124.8" font-family="Times,serif" font-size="14.00">gini = 0.5</text>
<text text-anchor="middle" x="1071.5" y="-109.8" font-family="Times,serif" font-size="14.00">samples = 3742</text>
<text text-anchor="middle" x="1071.5" y="-94.8" font-family="Times,serif" font-size="14.00">value = [1871, 1871]</text>
<text text-anchor="middle" x="1071.5" y="-79.8" font-family="Times,serif" font-size="14.00">class = False</text>
</g>
<!-- 230&#45;&gt;231 -->
<g id="edge25" class="edge">
<title>230&#45;&gt;231</title>
<path fill="none" stroke="black" d="M1071.5,-190.91C1071.5,-182.65 1071.5,-173.86 1071.5,-165.3"/>
<polygon fill="black" stroke="black" points="1075,-165.02 1071.5,-155.02 1068,-165.02 1075,-165.02"/>
</g>
<!-- 316 -->
<g id="node29" class="node">
<title>316</title>
<polygon fill="#ffffff" stroke="black" points="1340,-155 1173,-155 1173,-72 1340,-72 1340,-155"/>
<text text-anchor="middle" x="1256.5" y="-139.8" font-family="Times,serif" font-size="14.00">nbproc &lt;= 4.5</text>
<text text-anchor="middle" x="1256.5" y="-124.8" font-family="Times,serif" font-size="14.00">gini = 0.5</text>
<text text-anchor="middle" x="1256.5" y="-109.8" font-family="Times,serif" font-size="14.00">samples = 5152</text>
<text text-anchor="middle" x="1256.5" y="-94.8" font-family="Times,serif" font-size="14.00">value = [2576, 2576]</text>
<text text-anchor="middle" x="1256.5" y="-79.8" font-family="Times,serif" font-size="14.00">class = False</text>
</g>
<!-- 230&#45;&gt;316 -->
<g id="edge28" class="edge">
<title>230&#45;&gt;316</title>
<path fill="none" stroke="black" d="M1135.68,-190.91C1151.18,-181.11 1167.85,-170.56 1183.71,-160.53"/>
<polygon fill="black" stroke="black" points="1185.85,-163.32 1192.43,-155.02 1182.11,-157.41 1185.85,-163.32"/>
</g>
<!-- 232 -->
<g id="node27" class="node">
<title>232</title>
<polygon fill="#c0c0c0" stroke="black" points="1062.5,-36 1008.5,-36 1008.5,0 1062.5,0 1062.5,-36"/>
<text text-anchor="middle" x="1035.5" y="-14.3" font-family="Times,serif" font-size="14.00">(...)</text>
</g>
<!-- 231&#45;&gt;232 -->
<g id="edge26" class="edge">
<title>231&#45;&gt;232</title>
<path fill="none" stroke="black" d="M1055.81,-71.76C1052.46,-63.04 1048.99,-54.04 1045.89,-45.99"/>
<polygon fill="black" stroke="black" points="1049.06,-44.48 1042.2,-36.41 1042.53,-46.99 1049.06,-44.48"/>
</g>
<!-- 235 -->
<g id="node28" class="node">
<title>235</title>
<polygon fill="#c0c0c0" stroke="black" points="1134.5,-36 1080.5,-36 1080.5,0 1134.5,0 1134.5,-36"/>
<text text-anchor="middle" x="1107.5" y="-14.3" font-family="Times,serif" font-size="14.00">(...)</text>
</g>
<!-- 231&#45;&gt;235 -->
<g id="edge27" class="edge">
<title>231&#45;&gt;235</title>
<path fill="none" stroke="black" d="M1087.19,-71.76C1090.54,-63.04 1094.01,-54.04 1097.11,-45.99"/>
<polygon fill="black" stroke="black" points="1100.47,-46.99 1100.8,-36.41 1093.94,-44.48 1100.47,-46.99"/>
</g>
<!-- 317 -->
<g id="node30" class="node">
<title>317</title>
<polygon fill="#c0c0c0" stroke="black" points="1247.5,-36 1193.5,-36 1193.5,0 1247.5,0 1247.5,-36"/>
<text text-anchor="middle" x="1220.5" y="-14.3" font-family="Times,serif" font-size="14.00">(...)</text>
</g>
<!-- 316&#45;&gt;317 -->
<g id="edge29" class="edge">
<title>316&#45;&gt;317</title>
<path fill="none" stroke="black" d="M1240.81,-71.76C1237.46,-63.04 1233.99,-54.04 1230.89,-45.99"/>
<polygon fill="black" stroke="black" points="1234.06,-44.48 1227.2,-36.41 1227.53,-46.99 1234.06,-44.48"/>
</g>
<!-- 390 -->
<g id="node31" class="node">
<title>390</title>
<polygon fill="#c0c0c0" stroke="black" points="1319.5,-36 1265.5,-36 1265.5,0 1319.5,0 1319.5,-36"/>
<text text-anchor="middle" x="1292.5" y="-14.3" font-family="Times,serif" font-size="14.00">(...)</text>
</g>
<!-- 316&#45;&gt;390 -->
<g id="edge30" class="edge">
<title>316&#45;&gt;390</title>
<path fill="none" stroke="black" d="M1272.19,-71.76C1275.54,-63.04 1279.01,-54.04 1282.11,-45.99"/>
<polygon fill="black" stroke="black" points="1285.47,-46.99 1285.8,-36.41 1278.94,-44.48 1285.47,-46.99"/>
</g>
</g>
</svg>
