<?xml version="1.0" encoding="UTF-8" standalone="no"?>
<!DOCTYPE svg PUBLIC "-//W3C//DTD SVG 1.1//EN"
 "http://www.w3.org/Graphics/SVG/1.1/DTD/svg11.dtd">
<!-- Generated by graphviz version 2.43.0 (0)
 -->
<!-- Title: Tree Pages: 1 -->
<svg width="2382pt" height="520pt"
 viewBox="0.00 0.00 2381.50 520.00" xmlns="http://www.w3.org/2000/svg" xmlns:xlink="http://www.w3.org/1999/xlink">
<g id="graph0" class="graph" transform="scale(1 1) rotate(0) translate(4 516)">
<title>Tree</title>
<polygon fill="white" stroke="transparent" points="-4,4 -4,-516 2377.5,-516 2377.5,4 -4,4"/>
<!-- 0 -->
<g id="node1" class="node">
<title>0</title>
<polygon fill="#fffdfe" stroke="black" points="1334.5,-512 987.5,-512 987.5,-429 1334.5,-429 1334.5,-512"/>
<text text-anchor="middle" x="1161" y="-496.8" font-family="Times,serif" font-size="14.00">CCR &lt;= 5.5</text>
<text text-anchor="middle" x="1161" y="-481.8" font-family="Times,serif" font-size="14.00">gini = 0.799</text>
<text text-anchor="middle" x="1161" y="-466.8" font-family="Times,serif" font-size="14.00">samples = 22896</text>
<text text-anchor="middle" x="1161" y="-451.8" font-family="Times,serif" font-size="14.00">value = [4338, 1392, 5328, 1464, 4894, 5480]</text>
<text text-anchor="middle" x="1161" y="-436.8" font-family="Times,serif" font-size="14.00">class = GDL</text>
</g>
<!-- 1 -->
<g id="node2" class="node">
<title>1</title>
<polygon fill="#fce6f3" stroke="black" points="1039.5,-393 728.5,-393 728.5,-310 1039.5,-310 1039.5,-393"/>
<text text-anchor="middle" x="884" y="-377.8" font-family="Times,serif" font-size="14.00">CCR &lt;= 0.55</text>
<text text-anchor="middle" x="884" y="-362.8" font-family="Times,serif" font-size="14.00">gini = 0.689</text>
<text text-anchor="middle" x="884" y="-347.8" font-family="Times,serif" font-size="14.00">samples = 12244</text>
<text text-anchor="middle" x="884" y="-332.8" font-family="Times,serif" font-size="14.00">value = [2970, 336, 72, 264, 3774, 4828]</text>
<text text-anchor="middle" x="884" y="-317.8" font-family="Times,serif" font-size="14.00">class = GDL</text>
</g>
<!-- 0&#45;&gt;1 -->
<g id="edge1" class="edge">
<title>0&#45;&gt;1</title>
<path fill="none" stroke="black" d="M1064.9,-428.91C1040.51,-418.61 1014.18,-407.49 989.36,-397"/>
<polygon fill="black" stroke="black" points="990.51,-393.69 979.93,-393.02 987.78,-400.14 990.51,-393.69"/>
<text text-anchor="middle" x="989.34" y="-412.48" font-family="Times,serif" font-size="14.00">True</text>
</g>
<!-- 226 -->
<g id="node17" class="node">
<title>226</title>
<polygon fill="#acf4ca" stroke="black" points="1635,-393 1297,-393 1297,-310 1635,-310 1635,-393"/>
<text text-anchor="middle" x="1466" y="-377.8" font-family="Times,serif" font-size="14.00">sdComp &lt;= 2.0</text>
<text text-anchor="middle" x="1466" y="-362.8" font-family="Times,serif" font-size="14.00">gini = 0.703</text>
<text text-anchor="middle" x="1466" y="-347.8" font-family="Times,serif" font-size="14.00">samples = 10652</text>
<text text-anchor="middle" x="1466" y="-332.8" font-family="Times,serif" font-size="14.00">value = [1368, 1056, 5256, 1200, 1120, 652]</text>
<text text-anchor="middle" x="1466" y="-317.8" font-family="Times,serif" font-size="14.00">class = OLB</text>
</g>
<!-- 0&#45;&gt;226 -->
<g id="edge16" class="edge">
<title>0&#45;&gt;226</title>
<path fill="none" stroke="black" d="M1266.82,-428.91C1293.91,-418.52 1323.17,-407.29 1350.71,-396.73"/>
<polygon fill="black" stroke="black" points="1352.29,-399.87 1360.37,-393.02 1349.78,-393.33 1352.29,-399.87"/>
<text text-anchor="middle" x="1350.2" y="-412.16" font-family="Times,serif" font-size="14.00">False</text>
</g>
<!-- 2 -->
<g id="node3" class="node">
<title>2</title>
<polygon fill="#fdf3f9" stroke="black" points="613,-274 311,-274 311,-191 613,-191 613,-274"/>
<text text-anchor="middle" x="462" y="-258.8" font-family="Times,serif" font-size="14.00">sdComm &lt;= 0.065</text>
<text text-anchor="middle" x="462" y="-243.8" font-family="Times,serif" font-size="14.00">gini = 0.69</text>
<text text-anchor="middle" x="462" y="-228.8" font-family="Times,serif" font-size="14.00">samples = 7992</text>
<text text-anchor="middle" x="462" y="-213.8" font-family="Times,serif" font-size="14.00">value = [2160, 84, 48, 216, 2580, 2904]</text>
<text text-anchor="middle" x="462" y="-198.8" font-family="Times,serif" font-size="14.00">class = GDL</text>
</g>
<!-- 1&#45;&gt;2 -->
<g id="edge2" class="edge">
<title>1&#45;&gt;2</title>
<path fill="none" stroke="black" d="M737.88,-309.99C699.25,-299.28 657.39,-287.67 618.24,-276.82"/>
<polygon fill="black" stroke="black" points="618.92,-273.37 608.35,-274.07 617.05,-280.12 618.92,-273.37"/>
</g>
<!-- 107 -->
<g id="node10" class="node">
<title>107</title>
<polygon fill="#f9d0e8" stroke="black" points="1030.5,-274 737.5,-274 737.5,-191 1030.5,-191 1030.5,-274"/>
<text text-anchor="middle" x="884" y="-258.8" font-family="Times,serif" font-size="14.00">graphDepth &lt;= 13.5</text>
<text text-anchor="middle" x="884" y="-243.8" font-family="Times,serif" font-size="14.00">gini = 0.676</text>
<text text-anchor="middle" x="884" y="-228.8" font-family="Times,serif" font-size="14.00">samples = 4252</text>
<text text-anchor="middle" x="884" y="-213.8" font-family="Times,serif" font-size="14.00">value = [810, 252, 24, 48, 1194, 1924]</text>
<text text-anchor="middle" x="884" y="-198.8" font-family="Times,serif" font-size="14.00">class = GDL</text>
</g>
<!-- 1&#45;&gt;107 -->
<g id="edge9" class="edge">
<title>1&#45;&gt;107</title>
<path fill="none" stroke="black" d="M884,-309.91C884,-301.65 884,-292.86 884,-284.3"/>
<polygon fill="black" stroke="black" points="887.5,-284.02 884,-274.02 880.5,-284.02 887.5,-284.02"/>
</g>
<!-- 3 -->
<g id="node4" class="node">
<title>3</title>
<polygon fill="#fdf3f9" stroke="black" points="302,-155 0,-155 0,-72 302,-72 302,-155"/>
<text text-anchor="middle" x="151" y="-139.8" font-family="Times,serif" font-size="14.00">graphDepth &lt;= 13.5</text>
<text text-anchor="middle" x="151" y="-124.8" font-family="Times,serif" font-size="14.00">gini = 0.689</text>
<text text-anchor="middle" x="151" y="-109.8" font-family="Times,serif" font-size="14.00">samples = 4788</text>
<text text-anchor="middle" x="151" y="-94.8" font-family="Times,serif" font-size="14.00">value = [1428, 36, 24, 120, 1488, 1692]</text>
<text text-anchor="middle" x="151" y="-79.8" font-family="Times,serif" font-size="14.00">class = GDL</text>
</g>
<!-- 2&#45;&gt;3 -->
<g id="edge3" class="edge">
<title>2&#45;&gt;3</title>
<path fill="none" stroke="black" d="M354.1,-190.91C326.36,-180.47 296.38,-169.19 268.19,-158.59"/>
<polygon fill="black" stroke="black" points="269.3,-155.27 258.71,-155.02 266.84,-161.82 269.3,-155.27"/>
</g>
<!-- 72 -->
<g id="node7" class="node">
<title>72</title>
<polygon fill="#fef4f9" stroke="black" points="604,-155 320,-155 320,-72 604,-72 604,-155"/>
<text text-anchor="middle" x="462" y="-139.8" font-family="Times,serif" font-size="14.00">nbproc &lt;= 4.5</text>
<text text-anchor="middle" x="462" y="-124.8" font-family="Times,serif" font-size="14.00">gini = 0.687</text>
<text text-anchor="middle" x="462" y="-109.8" font-family="Times,serif" font-size="14.00">samples = 3204</text>
<text text-anchor="middle" x="462" y="-94.8" font-family="Times,serif" font-size="14.00">value = [732, 48, 24, 96, 1092, 1212]</text>
<text text-anchor="middle" x="462" y="-79.8" font-family="Times,serif" font-size="14.00">class = GDL</text>
</g>
<!-- 2&#45;&gt;72 -->
<g id="edge6" class="edge">
<title>2&#45;&gt;72</title>
<path fill="none" stroke="black" d="M462,-190.91C462,-182.65 462,-173.86 462,-165.3"/>
<polygon fill="black" stroke="black" points="465.5,-165.02 462,-155.02 458.5,-165.02 465.5,-165.02"/>
</g>
<!-- 4 -->
<g id="node5" class="node">
<title>4</title>
<polygon fill="#c0c0c0" stroke="black" points="142,-36 88,-36 88,0 142,0 142,-36"/>
<text text-anchor="middle" x="115" y="-14.3" font-family="Times,serif" font-size="14.00">(...)</text>
</g>
<!-- 3&#45;&gt;4 -->
<g id="edge4" class="edge">
<title>3&#45;&gt;4</title>
<path fill="none" stroke="black" d="M135.31,-71.76C131.96,-63.04 128.49,-54.04 125.39,-45.99"/>
<polygon fill="black" stroke="black" points="128.56,-44.48 121.7,-36.41 122.03,-46.99 128.56,-44.48"/>
</g>
<!-- 67 -->
<g id="node6" class="node">
<title>67</title>
<polygon fill="#c0c0c0" stroke="black" points="214,-36 160,-36 160,0 214,0 214,-36"/>
<text text-anchor="middle" x="187" y="-14.3" font-family="Times,serif" font-size="14.00">(...)</text>
</g>
<!-- 3&#45;&gt;67 -->
<g id="edge5" class="edge">
<title>3&#45;&gt;67</title>
<path fill="none" stroke="black" d="M166.69,-71.76C170.04,-63.04 173.51,-54.04 176.61,-45.99"/>
<polygon fill="black" stroke="black" points="179.97,-46.99 180.3,-36.41 173.44,-44.48 179.97,-46.99"/>
</g>
<!-- 73 -->
<g id="node8" class="node">
<title>73</title>
<polygon fill="#c0c0c0" stroke="black" points="453,-36 399,-36 399,0 453,0 453,-36"/>
<text text-anchor="middle" x="426" y="-14.3" font-family="Times,serif" font-size="14.00">(...)</text>
</g>
<!-- 72&#45;&gt;73 -->
<g id="edge7" class="edge">
<title>72&#45;&gt;73</title>
<path fill="none" stroke="black" d="M446.31,-71.76C442.96,-63.04 439.49,-54.04 436.39,-45.99"/>
<polygon fill="black" stroke="black" points="439.56,-44.48 432.7,-36.41 433.03,-46.99 439.56,-44.48"/>
</g>
<!-- 88 -->
<g id="node9" class="node">
<title>88</title>
<polygon fill="#c0c0c0" stroke="black" points="525,-36 471,-36 471,0 525,0 525,-36"/>
<text text-anchor="middle" x="498" y="-14.3" font-family="Times,serif" font-size="14.00">(...)</text>
</g>
<!-- 72&#45;&gt;88 -->
<g id="edge8" class="edge">
<title>72&#45;&gt;88</title>
<path fill="none" stroke="black" d="M477.69,-71.76C481.04,-63.04 484.51,-54.04 487.61,-45.99"/>
<polygon fill="black" stroke="black" points="490.97,-46.99 491.3,-36.41 484.44,-44.48 490.97,-46.99"/>
</g>
<!-- 108 -->
<g id="node11" class="node">
<title>108</title>
<polygon fill="#f8cde6" stroke="black" points="915.5,-155 622.5,-155 622.5,-72 915.5,-72 915.5,-155"/>
<text text-anchor="middle" x="769" y="-139.8" font-family="Times,serif" font-size="14.00">sdComp &lt;= 0.65</text>
<text text-anchor="middle" x="769" y="-124.8" font-family="Times,serif" font-size="14.00">gini = 0.673</text>
<text text-anchor="middle" x="769" y="-109.8" font-family="Times,serif" font-size="14.00">samples = 3938</text>
<text text-anchor="middle" x="769" y="-94.8" font-family="Times,serif" font-size="14.00">value = [690, 252, 24, 48, 1108, 1816]</text>
<text text-anchor="middle" x="769" y="-79.8" font-family="Times,serif" font-size="14.00">class = GDL</text>
</g>
<!-- 107&#45;&gt;108 -->
<g id="edge10" class="edge">
<title>107&#45;&gt;108</title>
<path fill="none" stroke="black" d="M844.1,-190.91C835,-181.65 825.25,-171.73 815.89,-162.21"/>
<polygon fill="black" stroke="black" points="818.33,-159.7 808.83,-155.02 813.34,-164.61 818.33,-159.7"/>
</g>
<!-- 207 -->
<g id="node14" class="node">
<title>207</title>
<polygon fill="#fdf8f3" stroke="black" points="1164,-155 934,-155 934,-72 1164,-72 1164,-155"/>
<text text-anchor="middle" x="1049" y="-139.8" font-family="Times,serif" font-size="14.00">sdComm &lt;= 0.2</text>
<text text-anchor="middle" x="1049" y="-124.8" font-family="Times,serif" font-size="14.00">gini = 0.661</text>
<text text-anchor="middle" x="1049" y="-109.8" font-family="Times,serif" font-size="14.00">samples = 314</text>
<text text-anchor="middle" x="1049" y="-94.8" font-family="Times,serif" font-size="14.00">value = [120, 0, 0, 0, 86, 108]</text>
<text text-anchor="middle" x="1049" y="-79.8" font-family="Times,serif" font-size="14.00">class = eft</text>
</g>
<!-- 107&#45;&gt;207 -->
<g id="edge13" class="edge">
<title>107&#45;&gt;207</title>
<path fill="none" stroke="black" d="M941.25,-190.91C954.94,-181.2 969.66,-170.76 983.69,-160.81"/>
<polygon fill="black" stroke="black" points="985.72,-163.66 991.86,-155.02 981.67,-157.95 985.72,-163.66"/>
</g>
<!-- 109 -->
<g id="node12" class="node">
<title>109</title>
<polygon fill="#c0c0c0" stroke="black" points="760,-36 706,-36 706,0 760,0 760,-36"/>
<text text-anchor="middle" x="733" y="-14.3" font-family="Times,serif" font-size="14.00">(...)</text>
</g>
<!-- 108&#45;&gt;109 -->
<g id="edge11" class="edge">
<title>108&#45;&gt;109</title>
<path fill="none" stroke="black" d="M753.31,-71.76C749.96,-63.04 746.49,-54.04 743.39,-45.99"/>
<polygon fill="black" stroke="black" points="746.56,-44.48 739.7,-36.41 740.03,-46.99 746.56,-44.48"/>
</g>
<!-- 160 -->
<g id="node13" class="node">
<title>160</title>
<polygon fill="#c0c0c0" stroke="black" points="832,-36 778,-36 778,0 832,0 832,-36"/>
<text text-anchor="middle" x="805" y="-14.3" font-family="Times,serif" font-size="14.00">(...)</text>
</g>
<!-- 108&#45;&gt;160 -->
<g id="edge12" class="edge">
<title>108&#45;&gt;160</title>
<path fill="none" stroke="black" d="M784.69,-71.76C788.04,-63.04 791.51,-54.04 794.61,-45.99"/>
<polygon fill="black" stroke="black" points="797.97,-46.99 798.3,-36.41 791.44,-44.48 797.97,-46.99"/>
</g>
<!-- 208 -->
<g id="node15" class="node">
<title>208</title>
<polygon fill="#c0c0c0" stroke="black" points="1040,-36 986,-36 986,0 1040,0 1040,-36"/>
<text text-anchor="middle" x="1013" y="-14.3" font-family="Times,serif" font-size="14.00">(...)</text>
</g>
<!-- 207&#45;&gt;208 -->
<g id="edge14" class="edge">
<title>207&#45;&gt;208</title>
<path fill="none" stroke="black" d="M1033.31,-71.76C1029.96,-63.04 1026.49,-54.04 1023.39,-45.99"/>
<polygon fill="black" stroke="black" points="1026.56,-44.48 1019.7,-36.41 1020.03,-46.99 1026.56,-44.48"/>
</g>
<!-- 213 -->
<g id="node16" class="node">
<title>213</title>
<polygon fill="#c0c0c0" stroke="black" points="1112,-36 1058,-36 1058,0 1112,0 1112,-36"/>
<text text-anchor="middle" x="1085" y="-14.3" font-family="Times,serif" font-size="14.00">(...)</text>
</g>
<!-- 207&#45;&gt;213 -->
<g id="edge15" class="edge">
<title>207&#45;&gt;213</title>
<path fill="none" stroke="black" d="M1064.69,-71.76C1068.04,-63.04 1071.51,-54.04 1074.61,-45.99"/>
<polygon fill="black" stroke="black" points="1077.97,-46.99 1078.3,-36.41 1071.44,-44.48 1077.97,-46.99"/>
</g>
<!-- 227 -->
<g id="node18" class="node">
<title>227</title>
<polygon fill="#a9f4c8" stroke="black" points="1621.5,-274 1310.5,-274 1310.5,-191 1621.5,-191 1621.5,-274"/>
<text text-anchor="middle" x="1466" y="-258.8" font-family="Times,serif" font-size="14.00">nbproc &lt;= 4.5</text>
<text text-anchor="middle" x="1466" y="-243.8" font-family="Times,serif" font-size="14.00">gini = 0.611</text>
<text text-anchor="middle" x="1466" y="-228.8" font-family="Times,serif" font-size="14.00">samples = 4356</text>
<text text-anchor="middle" x="1466" y="-213.8" font-family="Times,serif" font-size="14.00">value = [276, 264, 2472, 1032, 204, 108]</text>
<text text-anchor="middle" x="1466" y="-198.8" font-family="Times,serif" font-size="14.00">class = OLB</text>
</g>
<!-- 226&#45;&gt;227 -->
<g id="edge17" class="edge">
<title>226&#45;&gt;227</title>
<path fill="none" stroke="black" d="M1466,-309.91C1466,-301.65 1466,-292.86 1466,-284.3"/>
<polygon fill="black" stroke="black" points="1469.5,-284.02 1466,-274.02 1462.5,-284.02 1469.5,-284.02"/>
</g>
<!-- 308 -->
<g id="node25" class="node">
<title>308</title>
<polygon fill="#bff7d6" stroke="black" points="2084.5,-274 1773.5,-274 1773.5,-191 2084.5,-191 2084.5,-274"/>
<text text-anchor="middle" x="1929" y="-258.8" font-family="Times,serif" font-size="14.00">sdComp &lt;= 6.5</text>
<text text-anchor="middle" x="1929" y="-243.8" font-family="Times,serif" font-size="14.00">gini = 0.729</text>
<text text-anchor="middle" x="1929" y="-228.8" font-family="Times,serif" font-size="14.00">samples = 6296</text>
<text text-anchor="middle" x="1929" y="-213.8" font-family="Times,serif" font-size="14.00">value = [1092, 792, 2784, 168, 916, 544]</text>
<text text-anchor="middle" x="1929" y="-198.8" font-family="Times,serif" font-size="14.00">class = OLB</text>
</g>
<!-- 226&#45;&gt;308 -->
<g id="edge24" class="edge">
<title>226&#45;&gt;308</title>
<path fill="none" stroke="black" d="M1626.31,-309.99C1670.61,-298.79 1718.77,-286.63 1763.37,-275.36"/>
<polygon fill="black" stroke="black" points="1764.29,-278.73 1773.13,-272.89 1762.57,-271.95 1764.29,-278.73"/>
</g>
<!-- 228 -->
<g id="node19" class="node">
<title>228</title>
<polygon fill="#c8f8dc" stroke="black" points="1484,-155 1182,-155 1182,-72 1484,-72 1484,-155"/>
<text text-anchor="middle" x="1333" y="-139.8" font-family="Times,serif" font-size="14.00">graphDepth &lt;= 9.0</text>
<text text-anchor="middle" x="1333" y="-124.8" font-family="Times,serif" font-size="14.00">gini = 0.683</text>
<text text-anchor="middle" x="1333" y="-109.8" font-family="Times,serif" font-size="14.00">samples = 2472</text>
<text text-anchor="middle" x="1333" y="-94.8" font-family="Times,serif" font-size="14.00">value = [192, 180, 1176, 672, 144, 108]</text>
<text text-anchor="middle" x="1333" y="-79.8" font-family="Times,serif" font-size="14.00">class = OLB</text>
</g>
<!-- 227&#45;&gt;228 -->
<g id="edge18" class="edge">
<title>227&#45;&gt;228</title>
<path fill="none" stroke="black" d="M1419.86,-190.91C1409.13,-181.47 1397.62,-171.34 1386.6,-161.65"/>
<polygon fill="black" stroke="black" points="1388.88,-159 1379.06,-155.02 1384.26,-164.25 1388.88,-159"/>
</g>
<!-- 271 -->
<g id="node22" class="node">
<title>271</title>
<polygon fill="#85efb2" stroke="black" points="1759.5,-155 1502.5,-155 1502.5,-72 1759.5,-72 1759.5,-155"/>
<text text-anchor="middle" x="1631" y="-139.8" font-family="Times,serif" font-size="14.00">sdComm &lt;= 6.5</text>
<text text-anchor="middle" x="1631" y="-124.8" font-family="Times,serif" font-size="14.00">gini = 0.485</text>
<text text-anchor="middle" x="1631" y="-109.8" font-family="Times,serif" font-size="14.00">samples = 1884</text>
<text text-anchor="middle" x="1631" y="-94.8" font-family="Times,serif" font-size="14.00">value = [84, 84, 1296, 360, 60, 0]</text>
<text text-anchor="middle" x="1631" y="-79.8" font-family="Times,serif" font-size="14.00">class = OLB</text>
</g>
<!-- 227&#45;&gt;271 -->
<g id="edge21" class="edge">
<title>227&#45;&gt;271</title>
<path fill="none" stroke="black" d="M1523.25,-190.91C1536.94,-181.2 1551.66,-170.76 1565.69,-160.81"/>
<polygon fill="black" stroke="black" points="1567.72,-163.66 1573.86,-155.02 1563.67,-157.95 1567.72,-163.66"/>
</g>
<!-- 229 -->
<g id="node20" class="node">
<title>229</title>
<polygon fill="#c0c0c0" stroke="black" points="1324,-36 1270,-36 1270,0 1324,0 1324,-36"/>
<text text-anchor="middle" x="1297" y="-14.3" font-family="Times,serif" font-size="14.00">(...)</text>
</g>
<!-- 228&#45;&gt;229 -->
<g id="edge19" class="edge">
<title>228&#45;&gt;229</title>
<path fill="none" stroke="black" d="M1317.31,-71.76C1313.96,-63.04 1310.49,-54.04 1307.39,-45.99"/>
<polygon fill="black" stroke="black" points="1310.56,-44.48 1303.7,-36.41 1304.03,-46.99 1310.56,-44.48"/>
</g>
<!-- 250 -->
<g id="node21" class="node">
<title>250</title>
<polygon fill="#c0c0c0" stroke="black" points="1396,-36 1342,-36 1342,0 1396,0 1396,-36"/>
<text text-anchor="middle" x="1369" y="-14.3" font-family="Times,serif" font-size="14.00">(...)</text>
</g>
<!-- 228&#45;&gt;250 -->
<g id="edge20" class="edge">
<title>228&#45;&gt;250</title>
<path fill="none" stroke="black" d="M1348.69,-71.76C1352.04,-63.04 1355.51,-54.04 1358.61,-45.99"/>
<polygon fill="black" stroke="black" points="1361.97,-46.99 1362.3,-36.41 1355.44,-44.48 1361.97,-46.99"/>
</g>
<!-- 272 -->
<g id="node23" class="node">
<title>272</title>
<polygon fill="#c0c0c0" stroke="black" points="1622,-36 1568,-36 1568,0 1622,0 1622,-36"/>
<text text-anchor="middle" x="1595" y="-14.3" font-family="Times,serif" font-size="14.00">(...)</text>
</g>
<!-- 271&#45;&gt;272 -->
<g id="edge22" class="edge">
<title>271&#45;&gt;272</title>
<path fill="none" stroke="black" d="M1615.31,-71.76C1611.96,-63.04 1608.49,-54.04 1605.39,-45.99"/>
<polygon fill="black" stroke="black" points="1608.56,-44.48 1601.7,-36.41 1602.03,-46.99 1608.56,-44.48"/>
</g>
<!-- 295 -->
<g id="node24" class="node">
<title>295</title>
<polygon fill="#c0c0c0" stroke="black" points="1694,-36 1640,-36 1640,0 1694,0 1694,-36"/>
<text text-anchor="middle" x="1667" y="-14.3" font-family="Times,serif" font-size="14.00">(...)</text>
</g>
<!-- 271&#45;&gt;295 -->
<g id="edge23" class="edge">
<title>271&#45;&gt;295</title>
<path fill="none" stroke="black" d="M1646.69,-71.76C1650.04,-63.04 1653.51,-54.04 1656.61,-45.99"/>
<polygon fill="black" stroke="black" points="1659.97,-46.99 1660.3,-36.41 1653.44,-44.48 1659.97,-46.99"/>
</g>
<!-- 309 -->
<g id="node26" class="node">
<title>309</title>
<polygon fill="#b3f5cf" stroke="black" points="2080,-155 1778,-155 1778,-72 2080,-72 2080,-155"/>
<text text-anchor="middle" x="1929" y="-139.8" font-family="Times,serif" font-size="14.00">nbproc &lt;= 4.5</text>
<text text-anchor="middle" x="1929" y="-124.8" font-family="Times,serif" font-size="14.00">gini = 0.689</text>
<text text-anchor="middle" x="1929" y="-109.8" font-family="Times,serif" font-size="14.00">samples = 3608</text>
<text text-anchor="middle" x="1929" y="-94.8" font-family="Times,serif" font-size="14.00">value = [672, 384, 1800, 168, 356, 228]</text>
<text text-anchor="middle" x="1929" y="-79.8" font-family="Times,serif" font-size="14.00">class = OLB</text>
</g>
<!-- 308&#45;&gt;309 -->
<g id="edge25" class="edge">
<title>308&#45;&gt;309</title>
<path fill="none" stroke="black" d="M1929,-190.91C1929,-182.65 1929,-173.86 1929,-165.3"/>
<polygon fill="black" stroke="black" points="1932.5,-165.02 1929,-155.02 1925.5,-165.02 1932.5,-165.02"/>
</g>
<!-- 376 -->
<g id="node29" class="node">
<title>376</title>
<polygon fill="#d8fae6" stroke="black" points="2373.5,-155 2098.5,-155 2098.5,-72 2373.5,-72 2373.5,-155"/>
<text text-anchor="middle" x="2236" y="-139.8" font-family="Times,serif" font-size="14.00">graphDepth &lt;= 25.5</text>
<text text-anchor="middle" x="2236" y="-124.8" font-family="Times,serif" font-size="14.00">gini = 0.761</text>
<text text-anchor="middle" x="2236" y="-109.8" font-family="Times,serif" font-size="14.00">samples = 2688</text>
<text text-anchor="middle" x="2236" y="-94.8" font-family="Times,serif" font-size="14.00">value = [420, 408, 984, 0, 560, 316]</text>
<text text-anchor="middle" x="2236" y="-79.8" font-family="Times,serif" font-size="14.00">class = OLB</text>
</g>
<!-- 308&#45;&gt;376 -->
<g id="edge28" class="edge">
<title>308&#45;&gt;376</title>
<path fill="none" stroke="black" d="M2035.51,-190.91C2062.9,-180.47 2092.49,-169.19 2120.31,-158.59"/>
<polygon fill="black" stroke="black" points="2121.58,-161.85 2129.68,-155.02 2119.09,-155.31 2121.58,-161.85"/>
</g>
<!-- 310 -->
<g id="node27" class="node">
<title>310</title>
<polygon fill="#c0c0c0" stroke="black" points="1920,-36 1866,-36 1866,0 1920,0 1920,-36"/>
<text text-anchor="middle" x="1893" y="-14.3" font-family="Times,serif" font-size="14.00">(...)</text>
</g>
<!-- 309&#45;&gt;310 -->
<g id="edge26" class="edge">
<title>309&#45;&gt;310</title>
<path fill="none" stroke="black" d="M1913.31,-71.76C1909.96,-63.04 1906.49,-54.04 1903.39,-45.99"/>
<polygon fill="black" stroke="black" points="1906.56,-44.48 1899.7,-36.41 1900.03,-46.99 1906.56,-44.48"/>
</g>
<!-- 345 -->
<g id="node28" class="node">
<title>345</title>
<polygon fill="#c0c0c0" stroke="black" points="1992,-36 1938,-36 1938,0 1992,0 1992,-36"/>
<text text-anchor="middle" x="1965" y="-14.3" font-family="Times,serif" font-size="14.00">(...)</text>
</g>
<!-- 309&#45;&gt;345 -->
<g id="edge27" class="edge">
<title>309&#45;&gt;345</title>
<path fill="none" stroke="black" d="M1944.69,-71.76C1948.04,-63.04 1951.51,-54.04 1954.61,-45.99"/>
<polygon fill="black" stroke="black" points="1957.97,-46.99 1958.3,-36.41 1951.44,-44.48 1957.97,-46.99"/>
</g>
<!-- 377 -->
<g id="node30" class="node">
<title>377</title>
<polygon fill="#c0c0c0" stroke="black" points="2227,-36 2173,-36 2173,0 2227,0 2227,-36"/>
<text text-anchor="middle" x="2200" y="-14.3" font-family="Times,serif" font-size="14.00">(...)</text>
</g>
<!-- 376&#45;&gt;377 -->
<g id="edge29" class="edge">
<title>376&#45;&gt;377</title>
<path fill="none" stroke="black" d="M2220.31,-71.76C2216.96,-63.04 2213.49,-54.04 2210.39,-45.99"/>
<polygon fill="black" stroke="black" points="2213.56,-44.48 2206.7,-36.41 2207.03,-46.99 2213.56,-44.48"/>
</g>
<!-- 440 -->
<g id="node31" class="node">
<title>440</title>
<polygon fill="#c0c0c0" stroke="black" points="2299,-36 2245,-36 2245,0 2299,0 2299,-36"/>
<text text-anchor="middle" x="2272" y="-14.3" font-family="Times,serif" font-size="14.00">(...)</text>
</g>
<!-- 376&#45;&gt;440 -->
<g id="edge30" class="edge">
<title>376&#45;&gt;440</title>
<path fill="none" stroke="black" d="M2251.69,-71.76C2255.04,-63.04 2258.51,-54.04 2261.61,-45.99"/>
<polygon fill="black" stroke="black" points="2264.97,-46.99 2265.3,-36.41 2258.44,-44.48 2264.97,-46.99"/>
</g>
</g>
</svg>
