<?xml version="1.0" encoding="UTF-8" standalone="no"?>
<!DOCTYPE svg PUBLIC "-//W3C//DTD SVG 1.1//EN"
 "http://www.w3.org/Graphics/SVG/1.1/DTD/svg11.dtd">
<!-- Generated by graphviz version 2.43.0 (0)
 -->
<!-- Title: Tree Pages: 1 -->
<svg width="555pt" height="520pt"
 viewBox="0.00 0.00 555.00 520.00" xmlns="http://www.w3.org/2000/svg" xmlns:xlink="http://www.w3.org/1999/xlink">
<g id="graph0" class="graph" transform="scale(1 1) rotate(0) translate(4 516)">
<title>Tree</title>
<polygon fill="white" stroke="transparent" points="-4,4 -4,-516 551,-516 551,4 -4,4"/>
<!-- 0 -->
<g id="node1" class="node">
<title>0</title>
<polygon fill="#c29ff2" stroke="black" points="474.5,-512 271.5,-512 271.5,-429 474.5,-429 474.5,-512"/>
<text text-anchor="middle" x="373" y="-496.8" font-family="Times,serif" font-size="14.00">CCR &lt;= 5.5</text>
<text text-anchor="middle" x="373" y="-481.8" font-family="Times,serif" font-size="14.00">gini = 0.468</text>
<text text-anchor="middle" x="373" y="-466.8" font-family="Times,serif" font-size="14.00">samples = 8416</text>
<text text-anchor="middle" x="373" y="-451.8" font-family="Times,serif" font-size="14.00">value = [194, 2724, 5498]</text>
<text text-anchor="middle" x="373" y="-436.8" font-family="Times,serif" font-size="14.00">class = None</text>
</g>
<!-- 1 -->
<g id="node2" class="node">
<title>1</title>
<polygon fill="#4ce78d" stroke="black" points="371.5,-393 186.5,-393 186.5,-310 371.5,-310 371.5,-393"/>
<text text-anchor="middle" x="279" y="-377.8" font-family="Times,serif" font-size="14.00">sdComm &lt;= 0.65</text>
<text text-anchor="middle" x="279" y="-362.8" font-family="Times,serif" font-size="14.00">gini = 0.165</text>
<text text-anchor="middle" x="279" y="-347.8" font-family="Times,serif" font-size="14.00">samples = 2990</text>
<text text-anchor="middle" x="279" y="-332.8" font-family="Times,serif" font-size="14.00">value = [194, 2724, 72]</text>
<text text-anchor="middle" x="279" y="-317.8" font-family="Times,serif" font-size="14.00">class = DCP</text>
</g>
<!-- 0&#45;&gt;1 -->
<g id="edge1" class="edge">
<title>0&#45;&gt;1</title>
<path fill="none" stroke="black" d="M340.39,-428.91C333.17,-419.92 325.45,-410.32 318.01,-401.05"/>
<polygon fill="black" stroke="black" points="320.55,-398.62 311.56,-393.02 315.09,-403.01 320.55,-398.62"/>
<text text-anchor="middle" x="308.85" y="-414.17" font-family="Times,serif" font-size="14.00">True</text>
</g>
<!-- 22 -->
<g id="node11" class="node">
<title>22</title>
<polygon fill="#8139e5" stroke="black" points="547,-385.5 389,-385.5 389,-317.5 547,-317.5 547,-385.5"/>
<text text-anchor="middle" x="468" y="-370.3" font-family="Times,serif" font-size="14.00">gini = 0.0</text>
<text text-anchor="middle" x="468" y="-355.3" font-family="Times,serif" font-size="14.00">samples = 5426</text>
<text text-anchor="middle" x="468" y="-340.3" font-family="Times,serif" font-size="14.00">value = [0, 0, 5426]</text>
<text text-anchor="middle" x="468" y="-325.3" font-family="Times,serif" font-size="14.00">class = None</text>
</g>
<!-- 0&#45;&gt;22 -->
<g id="edge10" class="edge">
<title>0&#45;&gt;22</title>
<path fill="none" stroke="black" d="M405.96,-428.91C415.28,-417.43 425.42,-404.94 434.76,-393.44"/>
<polygon fill="black" stroke="black" points="437.48,-395.64 441.07,-385.67 432.05,-391.22 437.48,-395.64"/>
<text text-anchor="middle" x="443.65" y="-406.83" font-family="Times,serif" font-size="14.00">False</text>
</g>
<!-- 2 -->
<g id="node3" class="node">
<title>2</title>
<polygon fill="#47e78a" stroke="black" points="274.5,-274 89.5,-274 89.5,-191 274.5,-191 274.5,-274"/>
<text text-anchor="middle" x="182" y="-258.8" font-family="Times,serif" font-size="14.00">sdComm &lt;= 0.065</text>
<text text-anchor="middle" x="182" y="-243.8" font-family="Times,serif" font-size="14.00">gini = 0.126</text>
<text text-anchor="middle" x="182" y="-228.8" font-family="Times,serif" font-size="14.00">samples = 2766</text>
<text text-anchor="middle" x="182" y="-213.8" font-family="Times,serif" font-size="14.00">value = [162, 2580, 24]</text>
<text text-anchor="middle" x="182" y="-198.8" font-family="Times,serif" font-size="14.00">class = DCP</text>
</g>
<!-- 1&#45;&gt;2 -->
<g id="edge2" class="edge">
<title>1&#45;&gt;2</title>
<path fill="none" stroke="black" d="M245.35,-309.91C237.82,-300.83 229.77,-291.12 222.02,-281.77"/>
<polygon fill="black" stroke="black" points="224.67,-279.49 215.59,-274.02 219.28,-283.95 224.67,-279.49"/>
</g>
<!-- 21 -->
<g id="node10" class="node">
<title>21</title>
<polygon fill="#93f1ba" stroke="black" points="459.5,-266.5 292.5,-266.5 292.5,-198.5 459.5,-198.5 459.5,-266.5"/>
<text text-anchor="middle" x="376" y="-251.3" font-family="Times,serif" font-size="14.00">gini = 0.52</text>
<text text-anchor="middle" x="376" y="-236.3" font-family="Times,serif" font-size="14.00">samples = 224</text>
<text text-anchor="middle" x="376" y="-221.3" font-family="Times,serif" font-size="14.00">value = [32, 144, 48]</text>
<text text-anchor="middle" x="376" y="-206.3" font-family="Times,serif" font-size="14.00">class = DCP</text>
</g>
<!-- 1&#45;&gt;21 -->
<g id="edge9" class="edge">
<title>1&#45;&gt;21</title>
<path fill="none" stroke="black" d="M312.65,-309.91C322.17,-298.43 332.53,-285.94 342.06,-274.44"/>
<polygon fill="black" stroke="black" points="344.81,-276.6 348.5,-266.67 339.43,-272.13 344.81,-276.6"/>
</g>
<!-- 3 -->
<g id="node4" class="node">
<title>3</title>
<polygon fill="#53e891" stroke="black" points="176,-155 0,-155 0,-72 176,-72 176,-155"/>
<text text-anchor="middle" x="88" y="-139.8" font-family="Times,serif" font-size="14.00">nbproc &lt;= 4.5</text>
<text text-anchor="middle" x="88" y="-124.8" font-family="Times,serif" font-size="14.00">gini = 0.202</text>
<text text-anchor="middle" x="88" y="-109.8" font-family="Times,serif" font-size="14.00">samples = 1418</text>
<text text-anchor="middle" x="88" y="-94.8" font-family="Times,serif" font-size="14.00">value = [162, 1256, 0]</text>
<text text-anchor="middle" x="88" y="-79.8" font-family="Times,serif" font-size="14.00">class = DCP</text>
</g>
<!-- 2&#45;&gt;3 -->
<g id="edge3" class="edge">
<title>2&#45;&gt;3</title>
<path fill="none" stroke="black" d="M149.39,-190.91C142.17,-181.92 134.45,-172.32 127.01,-163.05"/>
<polygon fill="black" stroke="black" points="129.55,-160.62 120.56,-155.02 124.09,-165.01 129.55,-160.62"/>
</g>
<!-- 16 -->
<g id="node7" class="node">
<title>16</title>
<polygon fill="#3de583" stroke="black" points="360.5,-155 193.5,-155 193.5,-72 360.5,-72 360.5,-155"/>
<text text-anchor="middle" x="277" y="-139.8" font-family="Times,serif" font-size="14.00">nbproc &lt;= 4.5</text>
<text text-anchor="middle" x="277" y="-124.8" font-family="Times,serif" font-size="14.00">gini = 0.035</text>
<text text-anchor="middle" x="277" y="-109.8" font-family="Times,serif" font-size="14.00">samples = 1348</text>
<text text-anchor="middle" x="277" y="-94.8" font-family="Times,serif" font-size="14.00">value = [0, 1324, 24]</text>
<text text-anchor="middle" x="277" y="-79.8" font-family="Times,serif" font-size="14.00">class = DCP</text>
</g>
<!-- 2&#45;&gt;16 -->
<g id="edge6" class="edge">
<title>2&#45;&gt;16</title>
<path fill="none" stroke="black" d="M214.96,-190.91C222.25,-181.92 230.06,-172.32 237.58,-163.05"/>
<polygon fill="black" stroke="black" points="240.51,-164.99 244.1,-155.02 235.08,-160.58 240.51,-164.99"/>
</g>
<!-- 4 -->
<g id="node5" class="node">
<title>4</title>
<polygon fill="#c0c0c0" stroke="black" points="102,-36 48,-36 48,0 102,0 102,-36"/>
<text text-anchor="middle" x="75" y="-14.3" font-family="Times,serif" font-size="14.00">(...)</text>
</g>
<!-- 3&#45;&gt;4 -->
<g id="edge4" class="edge">
<title>3&#45;&gt;4</title>
<path fill="none" stroke="black" d="M82.34,-71.76C81.15,-63.24 79.93,-54.44 78.83,-46.53"/>
<polygon fill="black" stroke="black" points="82.26,-45.83 77.42,-36.41 75.33,-46.79 82.26,-45.83"/>
</g>
<!-- 9 -->
<g id="node6" class="node">
<title>9</title>
<polygon fill="#c0c0c0" stroke="black" points="174,-36 120,-36 120,0 174,0 174,-36"/>
<text text-anchor="middle" x="147" y="-14.3" font-family="Times,serif" font-size="14.00">(...)</text>
</g>
<!-- 3&#45;&gt;9 -->
<g id="edge5" class="edge">
<title>3&#45;&gt;9</title>
<path fill="none" stroke="black" d="M113.71,-71.76C119.45,-62.65 125.4,-53.24 130.64,-44.92"/>
<polygon fill="black" stroke="black" points="133.64,-46.73 136.02,-36.41 127.72,-42.99 133.64,-46.73"/>
</g>
<!-- 17 -->
<g id="node8" class="node">
<title>17</title>
<polygon fill="#c0c0c0" stroke="black" points="275,-36 221,-36 221,0 275,0 275,-36"/>
<text text-anchor="middle" x="248" y="-14.3" font-family="Times,serif" font-size="14.00">(...)</text>
</g>
<!-- 16&#45;&gt;17 -->
<g id="edge7" class="edge">
<title>16&#45;&gt;17</title>
<path fill="none" stroke="black" d="M264.36,-71.76C261.66,-63.04 258.87,-54.04 256.37,-45.99"/>
<polygon fill="black" stroke="black" points="259.7,-44.92 253.4,-36.41 253.02,-46.99 259.7,-44.92"/>
</g>
<!-- 20 -->
<g id="node9" class="node">
<title>20</title>
<polygon fill="#c0c0c0" stroke="black" points="347,-36 293,-36 293,0 347,0 347,-36"/>
<text text-anchor="middle" x="320" y="-14.3" font-family="Times,serif" font-size="14.00">(...)</text>
</g>
<!-- 16&#45;&gt;20 -->
<g id="edge8" class="edge">
<title>16&#45;&gt;20</title>
<path fill="none" stroke="black" d="M295.74,-71.76C299.79,-62.94 303.98,-53.84 307.71,-45.72"/>
<polygon fill="black" stroke="black" points="311,-46.95 312,-36.41 304.64,-44.03 311,-46.95"/>
</g>
</g>
</svg>
