<?xml version="1.0" encoding="UTF-8" standalone="no"?>
<!DOCTYPE svg PUBLIC "-//W3C//DTD SVG 1.1//EN"
 "http://www.w3.org/Graphics/SVG/1.1/DTD/svg11.dtd">
<!-- Generated by graphviz version 2.43.0 (0)
 -->
<!-- Title: Tree Pages: 1 -->
<svg width="1012pt" height="520pt"
 viewBox="0.00 0.00 1012.00 520.00" xmlns="http://www.w3.org/2000/svg" xmlns:xlink="http://www.w3.org/1999/xlink">
<g id="graph0" class="graph" transform="scale(1 1) rotate(0) translate(4 516)">
<title>Tree</title>
<polygon fill="white" stroke="transparent" points="-4,4 -4,-516 1008,-516 1008,4 -4,4"/>
<!-- 0 -->
<g id="node1" class="node">
<title>0</title>
<polygon fill="#77bced" stroke="black" points="575.5,-512 408.5,-512 408.5,-429 575.5,-429 575.5,-512"/>
<text text-anchor="middle" x="492" y="-496.8" font-family="Times,serif" font-size="14.00">sdComm &lt;= 0.65</text>
<text text-anchor="middle" x="492" y="-481.8" font-family="Times,serif" font-size="14.00">gini = 0.364</text>
<text text-anchor="middle" x="492" y="-466.8" font-family="Times,serif" font-size="14.00">samples = 8416</text>
<text text-anchor="middle" x="492" y="-451.8" font-family="Times,serif" font-size="14.00">value = [2014, 6402]</text>
<text text-anchor="middle" x="492" y="-436.8" font-family="Times,serif" font-size="14.00">class = True</text>
</g>
<!-- 1 -->
<g id="node2" class="node">
<title>1</title>
<polygon fill="#d1e8f9" stroke="black" points="485.5,-393 318.5,-393 318.5,-310 485.5,-310 485.5,-393"/>
<text text-anchor="middle" x="402" y="-377.8" font-family="Times,serif" font-size="14.00">graphDepth &lt;= 7.5</text>
<text text-anchor="middle" x="402" y="-362.8" font-family="Times,serif" font-size="14.00">gini = 0.491</text>
<text text-anchor="middle" x="402" y="-347.8" font-family="Times,serif" font-size="14.00">samples = 2766</text>
<text text-anchor="middle" x="402" y="-332.8" font-family="Times,serif" font-size="14.00">value = [1202, 1564]</text>
<text text-anchor="middle" x="402" y="-317.8" font-family="Times,serif" font-size="14.00">class = True</text>
</g>
<!-- 0&#45;&gt;1 -->
<g id="edge1" class="edge">
<title>0&#45;&gt;1</title>
<path fill="none" stroke="black" d="M460.77,-428.91C453.86,-419.92 446.47,-410.32 439.35,-401.05"/>
<polygon fill="black" stroke="black" points="442.04,-398.81 433.17,-393.02 436.49,-403.08 442.04,-398.81"/>
<text text-anchor="middle" x="429.94" y="-414.11" font-family="Times,serif" font-size="14.00">True</text>
</g>
<!-- 30 -->
<g id="node11" class="node">
<title>30</title>
<polygon fill="#5aade9" stroke="black" points="661,-393 503,-393 503,-310 661,-310 661,-393"/>
<text text-anchor="middle" x="582" y="-377.8" font-family="Times,serif" font-size="14.00">sdComm &lt;= 2.0</text>
<text text-anchor="middle" x="582" y="-362.8" font-family="Times,serif" font-size="14.00">gini = 0.246</text>
<text text-anchor="middle" x="582" y="-347.8" font-family="Times,serif" font-size="14.00">samples = 5650</text>
<text text-anchor="middle" x="582" y="-332.8" font-family="Times,serif" font-size="14.00">value = [812, 4838]</text>
<text text-anchor="middle" x="582" y="-317.8" font-family="Times,serif" font-size="14.00">class = True</text>
</g>
<!-- 0&#45;&gt;30 -->
<g id="edge10" class="edge">
<title>0&#45;&gt;30</title>
<path fill="none" stroke="black" d="M523.23,-428.91C530.14,-419.92 537.53,-410.32 544.65,-401.05"/>
<polygon fill="black" stroke="black" points="547.51,-403.08 550.83,-393.02 541.96,-398.81 547.51,-403.08"/>
<text text-anchor="middle" x="554.06" y="-414.11" font-family="Times,serif" font-size="14.00">False</text>
</g>
<!-- 2 -->
<g id="node3" class="node">
<title>2</title>
<polygon fill="#d4e9f9" stroke="black" points="323.5,-274 156.5,-274 156.5,-191 323.5,-191 323.5,-274"/>
<text text-anchor="middle" x="240" y="-258.8" font-family="Times,serif" font-size="14.00">sdComm &lt;= 0.02</text>
<text text-anchor="middle" x="240" y="-243.8" font-family="Times,serif" font-size="14.00">gini = 0.492</text>
<text text-anchor="middle" x="240" y="-228.8" font-family="Times,serif" font-size="14.00">samples = 2742</text>
<text text-anchor="middle" x="240" y="-213.8" font-family="Times,serif" font-size="14.00">value = [1202, 1540]</text>
<text text-anchor="middle" x="240" y="-198.8" font-family="Times,serif" font-size="14.00">class = True</text>
</g>
<!-- 1&#45;&gt;2 -->
<g id="edge2" class="edge">
<title>1&#45;&gt;2</title>
<path fill="none" stroke="black" d="M345.79,-309.91C332.48,-300.29 318.17,-289.95 304.51,-280.09"/>
<polygon fill="black" stroke="black" points="306.26,-277.04 296.11,-274.02 302.16,-282.71 306.26,-277.04"/>
</g>
<!-- 29 -->
<g id="node10" class="node">
<title>29</title>
<polygon fill="#399de5" stroke="black" points="464,-266.5 342,-266.5 342,-198.5 464,-198.5 464,-266.5"/>
<text text-anchor="middle" x="403" y="-251.3" font-family="Times,serif" font-size="14.00">gini = 0.0</text>
<text text-anchor="middle" x="403" y="-236.3" font-family="Times,serif" font-size="14.00">samples = 24</text>
<text text-anchor="middle" x="403" y="-221.3" font-family="Times,serif" font-size="14.00">value = [0, 24]</text>
<text text-anchor="middle" x="403" y="-206.3" font-family="Times,serif" font-size="14.00">class = True</text>
</g>
<!-- 1&#45;&gt;29 -->
<g id="edge9" class="edge">
<title>1&#45;&gt;29</title>
<path fill="none" stroke="black" d="M402.35,-309.91C402.44,-299.2 402.54,-287.62 402.63,-276.78"/>
<polygon fill="black" stroke="black" points="406.13,-276.7 402.72,-266.67 399.13,-276.64 406.13,-276.7"/>
</g>
<!-- 3 -->
<g id="node4" class="node">
<title>3</title>
<polygon fill="#96cbf1" stroke="black" points="140,-155 0,-155 0,-72 140,-72 140,-155"/>
<text text-anchor="middle" x="70" y="-139.8" font-family="Times,serif" font-size="14.00">nbproc &lt;= 4.5</text>
<text text-anchor="middle" x="70" y="-124.8" font-family="Times,serif" font-size="14.00">gini = 0.435</text>
<text text-anchor="middle" x="70" y="-109.8" font-family="Times,serif" font-size="14.00">samples = 238</text>
<text text-anchor="middle" x="70" y="-94.8" font-family="Times,serif" font-size="14.00">value = [76, 162]</text>
<text text-anchor="middle" x="70" y="-79.8" font-family="Times,serif" font-size="14.00">class = True</text>
</g>
<!-- 2&#45;&gt;3 -->
<g id="edge3" class="edge">
<title>2&#45;&gt;3</title>
<path fill="none" stroke="black" d="M181.02,-190.91C166.91,-181.2 151.74,-170.76 137.29,-160.81"/>
<polygon fill="black" stroke="black" points="139.1,-157.81 128.88,-155.02 135.13,-163.57 139.1,-157.81"/>
</g>
<!-- 8 -->
<g id="node7" class="node">
<title>8</title>
<polygon fill="#dbedfa" stroke="black" points="325.5,-155 158.5,-155 158.5,-72 325.5,-72 325.5,-155"/>
<text text-anchor="middle" x="242" y="-139.8" font-family="Times,serif" font-size="14.00">graphDepth &lt;= 3.5</text>
<text text-anchor="middle" x="242" y="-124.8" font-family="Times,serif" font-size="14.00">gini = 0.495</text>
<text text-anchor="middle" x="242" y="-109.8" font-family="Times,serif" font-size="14.00">samples = 2504</text>
<text text-anchor="middle" x="242" y="-94.8" font-family="Times,serif" font-size="14.00">value = [1126, 1378]</text>
<text text-anchor="middle" x="242" y="-79.8" font-family="Times,serif" font-size="14.00">class = True</text>
</g>
<!-- 2&#45;&gt;8 -->
<g id="edge6" class="edge">
<title>2&#45;&gt;8</title>
<path fill="none" stroke="black" d="M240.69,-190.91C240.84,-182.56 240.99,-173.67 241.14,-165.02"/>
<polygon fill="black" stroke="black" points="244.64,-165.08 241.31,-155.02 237.64,-164.96 244.64,-165.08"/>
</g>
<!-- 4 -->
<g id="node5" class="node">
<title>4</title>
<polygon fill="#c0c0c0" stroke="black" points="61,-36 7,-36 7,0 61,0 61,-36"/>
<text text-anchor="middle" x="34" y="-14.3" font-family="Times,serif" font-size="14.00">(...)</text>
</g>
<!-- 3&#45;&gt;4 -->
<g id="edge4" class="edge">
<title>3&#45;&gt;4</title>
<path fill="none" stroke="black" d="M54.31,-71.76C50.96,-63.04 47.49,-54.04 44.39,-45.99"/>
<polygon fill="black" stroke="black" points="47.56,-44.48 40.7,-36.41 41.03,-46.99 47.56,-44.48"/>
</g>
<!-- 7 -->
<g id="node6" class="node">
<title>7</title>
<polygon fill="#c0c0c0" stroke="black" points="133,-36 79,-36 79,0 133,0 133,-36"/>
<text text-anchor="middle" x="106" y="-14.3" font-family="Times,serif" font-size="14.00">(...)</text>
</g>
<!-- 3&#45;&gt;7 -->
<g id="edge5" class="edge">
<title>3&#45;&gt;7</title>
<path fill="none" stroke="black" d="M85.69,-71.76C89.04,-63.04 92.51,-54.04 95.61,-45.99"/>
<polygon fill="black" stroke="black" points="98.97,-46.99 99.3,-36.41 92.44,-44.48 98.97,-46.99"/>
</g>
<!-- 9 -->
<g id="node8" class="node">
<title>9</title>
<polygon fill="#c0c0c0" stroke="black" points="237,-36 183,-36 183,0 237,0 237,-36"/>
<text text-anchor="middle" x="210" y="-14.3" font-family="Times,serif" font-size="14.00">(...)</text>
</g>
<!-- 8&#45;&gt;9 -->
<g id="edge7" class="edge">
<title>8&#45;&gt;9</title>
<path fill="none" stroke="black" d="M228.06,-71.76C225.07,-63.04 221.99,-54.04 219.24,-45.99"/>
<polygon fill="black" stroke="black" points="222.51,-44.73 215.96,-36.41 215.88,-47 222.51,-44.73"/>
</g>
<!-- 20 -->
<g id="node9" class="node">
<title>20</title>
<polygon fill="#c0c0c0" stroke="black" points="309,-36 255,-36 255,0 309,0 309,-36"/>
<text text-anchor="middle" x="282" y="-14.3" font-family="Times,serif" font-size="14.00">(...)</text>
</g>
<!-- 8&#45;&gt;20 -->
<g id="edge8" class="edge">
<title>8&#45;&gt;20</title>
<path fill="none" stroke="black" d="M259.43,-71.76C263.2,-62.94 267.1,-53.84 270.57,-45.72"/>
<polygon fill="black" stroke="black" points="273.84,-46.98 274.55,-36.41 267.4,-44.22 273.84,-46.98"/>
</g>
<!-- 31 -->
<g id="node12" class="node">
<title>31</title>
<polygon fill="#3c9ee5" stroke="black" points="653.5,-274 504.5,-274 504.5,-191 653.5,-191 653.5,-274"/>
<text text-anchor="middle" x="579" y="-258.8" font-family="Times,serif" font-size="14.00">CCR &lt;= 5.5</text>
<text text-anchor="middle" x="579" y="-243.8" font-family="Times,serif" font-size="14.00">gini = 0.029</text>
<text text-anchor="middle" x="579" y="-228.8" font-family="Times,serif" font-size="14.00">samples = 1628</text>
<text text-anchor="middle" x="579" y="-213.8" font-family="Times,serif" font-size="14.00">value = [24, 1604]</text>
<text text-anchor="middle" x="579" y="-198.8" font-family="Times,serif" font-size="14.00">class = True</text>
</g>
<!-- 30&#45;&gt;31 -->
<g id="edge11" class="edge">
<title>30&#45;&gt;31</title>
<path fill="none" stroke="black" d="M580.96,-309.91C580.75,-301.56 580.52,-292.67 580.3,-284.02"/>
<polygon fill="black" stroke="black" points="583.79,-283.93 580.04,-274.02 576.8,-284.11 583.79,-283.93"/>
</g>
<!-- 34 -->
<g id="node15" class="node">
<title>34</title>
<polygon fill="#69b5eb" stroke="black" points="829,-274 671,-274 671,-191 829,-191 829,-274"/>
<text text-anchor="middle" x="750" y="-258.8" font-family="Times,serif" font-size="14.00">graphDepth &lt;= 9.0</text>
<text text-anchor="middle" x="750" y="-243.8" font-family="Times,serif" font-size="14.00">gini = 0.315</text>
<text text-anchor="middle" x="750" y="-228.8" font-family="Times,serif" font-size="14.00">samples = 4022</text>
<text text-anchor="middle" x="750" y="-213.8" font-family="Times,serif" font-size="14.00">value = [788, 3234]</text>
<text text-anchor="middle" x="750" y="-198.8" font-family="Times,serif" font-size="14.00">class = True</text>
</g>
<!-- 30&#45;&gt;34 -->
<g id="edge14" class="edge">
<title>30&#45;&gt;34</title>
<path fill="none" stroke="black" d="M640.29,-309.91C654.23,-300.2 669.22,-289.76 683.5,-279.81"/>
<polygon fill="black" stroke="black" points="685.61,-282.61 691.82,-274.02 681.61,-276.86 685.61,-282.61"/>
</g>
<!-- 32 -->
<g id="node13" class="node">
<title>32</title>
<polygon fill="#51a9e8" stroke="black" points="492,-147.5 352,-147.5 352,-79.5 492,-79.5 492,-147.5"/>
<text text-anchor="middle" x="422" y="-132.3" font-family="Times,serif" font-size="14.00">gini = 0.191</text>
<text text-anchor="middle" x="422" y="-117.3" font-family="Times,serif" font-size="14.00">samples = 224</text>
<text text-anchor="middle" x="422" y="-102.3" font-family="Times,serif" font-size="14.00">value = [24, 200]</text>
<text text-anchor="middle" x="422" y="-87.3" font-family="Times,serif" font-size="14.00">class = True</text>
</g>
<!-- 31&#45;&gt;32 -->
<g id="edge12" class="edge">
<title>31&#45;&gt;32</title>
<path fill="none" stroke="black" d="M524.53,-190.91C508.39,-178.88 490.75,-165.73 474.72,-153.79"/>
<polygon fill="black" stroke="black" points="476.62,-150.84 466.51,-147.67 472.43,-156.45 476.62,-150.84"/>
</g>
<!-- 33 -->
<g id="node14" class="node">
<title>33</title>
<polygon fill="#399de5" stroke="black" points="650,-147.5 510,-147.5 510,-79.5 650,-79.5 650,-147.5"/>
<text text-anchor="middle" x="580" y="-132.3" font-family="Times,serif" font-size="14.00">gini = 0.0</text>
<text text-anchor="middle" x="580" y="-117.3" font-family="Times,serif" font-size="14.00">samples = 1404</text>
<text text-anchor="middle" x="580" y="-102.3" font-family="Times,serif" font-size="14.00">value = [0, 1404]</text>
<text text-anchor="middle" x="580" y="-87.3" font-family="Times,serif" font-size="14.00">class = True</text>
</g>
<!-- 31&#45;&gt;33 -->
<g id="edge13" class="edge">
<title>31&#45;&gt;33</title>
<path fill="none" stroke="black" d="M579.35,-190.91C579.44,-180.2 579.54,-168.62 579.63,-157.78"/>
<polygon fill="black" stroke="black" points="583.13,-157.7 579.72,-147.67 576.13,-157.64 583.13,-157.7"/>
</g>
<!-- 35 -->
<g id="node16" class="node">
<title>35</title>
<polygon fill="#4ca7e8" stroke="black" points="828,-155 670,-155 670,-72 828,-72 828,-155"/>
<text text-anchor="middle" x="749" y="-139.8" font-family="Times,serif" font-size="14.00">sdComm &lt;= 6.5</text>
<text text-anchor="middle" x="749" y="-124.8" font-family="Times,serif" font-size="14.00">gini = 0.163</text>
<text text-anchor="middle" x="749" y="-109.8" font-family="Times,serif" font-size="14.00">samples = 1654</text>
<text text-anchor="middle" x="749" y="-94.8" font-family="Times,serif" font-size="14.00">value = [148, 1506]</text>
<text text-anchor="middle" x="749" y="-79.8" font-family="Times,serif" font-size="14.00">class = True</text>
</g>
<!-- 34&#45;&gt;35 -->
<g id="edge15" class="edge">
<title>34&#45;&gt;35</title>
<path fill="none" stroke="black" d="M749.65,-190.91C749.58,-182.65 749.51,-173.86 749.43,-165.3"/>
<polygon fill="black" stroke="black" points="752.93,-164.99 749.35,-155.02 745.93,-165.05 752.93,-164.99"/>
</g>
<!-- 46 -->
<g id="node19" class="node">
<title>46</title>
<polygon fill="#82c1ef" stroke="black" points="1004,-155 846,-155 846,-72 1004,-72 1004,-155"/>
<text text-anchor="middle" x="925" y="-139.8" font-family="Times,serif" font-size="14.00">graphSize &lt;= 40.0</text>
<text text-anchor="middle" x="925" y="-124.8" font-family="Times,serif" font-size="14.00">gini = 0.394</text>
<text text-anchor="middle" x="925" y="-109.8" font-family="Times,serif" font-size="14.00">samples = 2368</text>
<text text-anchor="middle" x="925" y="-94.8" font-family="Times,serif" font-size="14.00">value = [640, 1728]</text>
<text text-anchor="middle" x="925" y="-79.8" font-family="Times,serif" font-size="14.00">class = True</text>
</g>
<!-- 34&#45;&gt;46 -->
<g id="edge18" class="edge">
<title>34&#45;&gt;46</title>
<path fill="none" stroke="black" d="M810.72,-190.91C825.24,-181.2 840.85,-170.76 855.73,-160.81"/>
<polygon fill="black" stroke="black" points="858.02,-163.49 864.39,-155.02 854.13,-157.67 858.02,-163.49"/>
</g>
<!-- 36 -->
<g id="node17" class="node">
<title>36</title>
<polygon fill="#c0c0c0" stroke="black" points="738,-36 684,-36 684,0 738,0 738,-36"/>
<text text-anchor="middle" x="711" y="-14.3" font-family="Times,serif" font-size="14.00">(...)</text>
</g>
<!-- 35&#45;&gt;36 -->
<g id="edge16" class="edge">
<title>35&#45;&gt;36</title>
<path fill="none" stroke="black" d="M732.44,-71.76C728.86,-62.94 725.16,-53.84 721.86,-45.72"/>
<polygon fill="black" stroke="black" points="725.08,-44.35 718.07,-36.41 718.6,-46.99 725.08,-44.35"/>
</g>
<!-- 37 -->
<g id="node18" class="node">
<title>37</title>
<polygon fill="#c0c0c0" stroke="black" points="810,-36 756,-36 756,0 810,0 810,-36"/>
<text text-anchor="middle" x="783" y="-14.3" font-family="Times,serif" font-size="14.00">(...)</text>
</g>
<!-- 35&#45;&gt;37 -->
<g id="edge17" class="edge">
<title>35&#45;&gt;37</title>
<path fill="none" stroke="black" d="M763.81,-71.76C766.98,-63.04 770.26,-54.04 773.18,-45.99"/>
<polygon fill="black" stroke="black" points="776.54,-47 776.67,-36.41 769.96,-44.61 776.54,-47"/>
</g>
<!-- 47 -->
<g id="node20" class="node">
<title>47</title>
<polygon fill="#c0c0c0" stroke="black" points="916,-36 862,-36 862,0 916,0 916,-36"/>
<text text-anchor="middle" x="889" y="-14.3" font-family="Times,serif" font-size="14.00">(...)</text>
</g>
<!-- 46&#45;&gt;47 -->
<g id="edge19" class="edge">
<title>46&#45;&gt;47</title>
<path fill="none" stroke="black" d="M909.31,-71.76C905.96,-63.04 902.49,-54.04 899.39,-45.99"/>
<polygon fill="black" stroke="black" points="902.56,-44.48 895.7,-36.41 896.03,-46.99 902.56,-44.48"/>
</g>
<!-- 58 -->
<g id="node21" class="node">
<title>58</title>
<polygon fill="#c0c0c0" stroke="black" points="988,-36 934,-36 934,0 988,0 988,-36"/>
<text text-anchor="middle" x="961" y="-14.3" font-family="Times,serif" font-size="14.00">(...)</text>
</g>
<!-- 46&#45;&gt;58 -->
<g id="edge20" class="edge">
<title>46&#45;&gt;58</title>
<path fill="none" stroke="black" d="M940.69,-71.76C944.04,-63.04 947.51,-54.04 950.61,-45.99"/>
<polygon fill="black" stroke="black" points="953.97,-46.99 954.3,-36.41 947.44,-44.48 953.97,-46.99"/>
</g>
</g>
</svg>
