<?xml version="1.0" encoding="UTF-8" standalone="no"?>
<!DOCTYPE svg PUBLIC "-//W3C//DTD SVG 1.1//EN"
 "http://www.w3.org/Graphics/SVG/1.1/DTD/svg11.dtd">
<!-- Generated by graphviz version 2.43.0 (0)
 -->
<!-- Title: Tree Pages: 1 -->
<svg width="1110pt" height="909pt"
 viewBox="0.00 0.00 1109.50 909.00" xmlns="http://www.w3.org/2000/svg" xmlns:xlink="http://www.w3.org/1999/xlink">
<g id="graph0" class="graph" transform="scale(1 1) rotate(0) translate(4 905)">
<title>Tree</title>
<polygon fill="white" stroke="transparent" points="-4,4 -4,-905 1105.5,-905 1105.5,4 -4,4"/>
<!-- 0 -->
<g id="node1" class="node">
<title>0</title>
<polygon fill="#c29ff2" stroke="black" points="1029,-901 826,-901 826,-818 1029,-818 1029,-901"/>
<text text-anchor="middle" x="927.5" y="-885.8" font-family="Times,serif" font-size="14.00">CCR &lt;= 5.5</text>
<text text-anchor="middle" x="927.5" y="-870.8" font-family="Times,serif" font-size="14.00">gini = 0.468</text>
<text text-anchor="middle" x="927.5" y="-855.8" font-family="Times,serif" font-size="14.00">samples = 8416</text>
<text text-anchor="middle" x="927.5" y="-840.8" font-family="Times,serif" font-size="14.00">value = [194, 2724, 5498]</text>
<text text-anchor="middle" x="927.5" y="-825.8" font-family="Times,serif" font-size="14.00">class = None</text>
</g>
<!-- 1 -->
<g id="node2" class="node">
<title>1</title>
<polygon fill="#4ce78d" stroke="black" points="926,-782 741,-782 741,-699 926,-699 926,-782"/>
<text text-anchor="middle" x="833.5" y="-766.8" font-family="Times,serif" font-size="14.00">sdComm &lt;= 0.65</text>
<text text-anchor="middle" x="833.5" y="-751.8" font-family="Times,serif" font-size="14.00">gini = 0.165</text>
<text text-anchor="middle" x="833.5" y="-736.8" font-family="Times,serif" font-size="14.00">samples = 2990</text>
<text text-anchor="middle" x="833.5" y="-721.8" font-family="Times,serif" font-size="14.00">value = [194, 2724, 72]</text>
<text text-anchor="middle" x="833.5" y="-706.8" font-family="Times,serif" font-size="14.00">class = DCP</text>
</g>
<!-- 0&#45;&gt;1 -->
<g id="edge1" class="edge">
<title>0&#45;&gt;1</title>
<path fill="none" stroke="black" d="M894.89,-817.91C887.67,-808.92 879.95,-799.32 872.51,-790.05"/>
<polygon fill="black" stroke="black" points="875.05,-787.62 866.06,-782.02 869.59,-792.01 875.05,-787.62"/>
<text text-anchor="middle" x="863.35" y="-803.17" font-family="Times,serif" font-size="14.00">True</text>
</g>
<!-- 22 -->
<g id="node23" class="node">
<title>22</title>
<polygon fill="#8139e5" stroke="black" points="1101.5,-774.5 943.5,-774.5 943.5,-706.5 1101.5,-706.5 1101.5,-774.5"/>
<text text-anchor="middle" x="1022.5" y="-759.3" font-family="Times,serif" font-size="14.00">gini = 0.0</text>
<text text-anchor="middle" x="1022.5" y="-744.3" font-family="Times,serif" font-size="14.00">samples = 5426</text>
<text text-anchor="middle" x="1022.5" y="-729.3" font-family="Times,serif" font-size="14.00">value = [0, 0, 5426]</text>
<text text-anchor="middle" x="1022.5" y="-714.3" font-family="Times,serif" font-size="14.00">class = None</text>
</g>
<!-- 0&#45;&gt;22 -->
<g id="edge22" class="edge">
<title>0&#45;&gt;22</title>
<path fill="none" stroke="black" d="M960.46,-817.91C969.78,-806.43 979.92,-793.94 989.26,-782.44"/>
<polygon fill="black" stroke="black" points="991.98,-784.64 995.57,-774.67 986.55,-780.22 991.98,-784.64"/>
<text text-anchor="middle" x="998.15" y="-795.83" font-family="Times,serif" font-size="14.00">False</text>
</g>
<!-- 2 -->
<g id="node3" class="node">
<title>2</title>
<polygon fill="#47e78a" stroke="black" points="829,-663 644,-663 644,-580 829,-580 829,-663"/>
<text text-anchor="middle" x="736.5" y="-647.8" font-family="Times,serif" font-size="14.00">sdComm &lt;= 0.065</text>
<text text-anchor="middle" x="736.5" y="-632.8" font-family="Times,serif" font-size="14.00">gini = 0.126</text>
<text text-anchor="middle" x="736.5" y="-617.8" font-family="Times,serif" font-size="14.00">samples = 2766</text>
<text text-anchor="middle" x="736.5" y="-602.8" font-family="Times,serif" font-size="14.00">value = [162, 2580, 24]</text>
<text text-anchor="middle" x="736.5" y="-587.8" font-family="Times,serif" font-size="14.00">class = DCP</text>
</g>
<!-- 1&#45;&gt;2 -->
<g id="edge2" class="edge">
<title>1&#45;&gt;2</title>
<path fill="none" stroke="black" d="M799.85,-698.91C792.32,-689.83 784.27,-680.12 776.52,-670.77"/>
<polygon fill="black" stroke="black" points="779.17,-668.49 770.09,-663.02 773.78,-672.95 779.17,-668.49"/>
</g>
<!-- 21 -->
<g id="node22" class="node">
<title>21</title>
<polygon fill="#93f1ba" stroke="black" points="1014,-655.5 847,-655.5 847,-587.5 1014,-587.5 1014,-655.5"/>
<text text-anchor="middle" x="930.5" y="-640.3" font-family="Times,serif" font-size="14.00">gini = 0.52</text>
<text text-anchor="middle" x="930.5" y="-625.3" font-family="Times,serif" font-size="14.00">samples = 224</text>
<text text-anchor="middle" x="930.5" y="-610.3" font-family="Times,serif" font-size="14.00">value = [32, 144, 48]</text>
<text text-anchor="middle" x="930.5" y="-595.3" font-family="Times,serif" font-size="14.00">class = DCP</text>
</g>
<!-- 1&#45;&gt;21 -->
<g id="edge21" class="edge">
<title>1&#45;&gt;21</title>
<path fill="none" stroke="black" d="M867.15,-698.91C876.67,-687.43 887.03,-674.94 896.56,-663.44"/>
<polygon fill="black" stroke="black" points="899.31,-665.6 903,-655.67 893.93,-661.13 899.31,-665.6"/>
</g>
<!-- 3 -->
<g id="node4" class="node">
<title>3</title>
<polygon fill="#53e891" stroke="black" points="657.5,-544 481.5,-544 481.5,-461 657.5,-461 657.5,-544"/>
<text text-anchor="middle" x="569.5" y="-528.8" font-family="Times,serif" font-size="14.00">nbproc &lt;= 4.5</text>
<text text-anchor="middle" x="569.5" y="-513.8" font-family="Times,serif" font-size="14.00">gini = 0.202</text>
<text text-anchor="middle" x="569.5" y="-498.8" font-family="Times,serif" font-size="14.00">samples = 1418</text>
<text text-anchor="middle" x="569.5" y="-483.8" font-family="Times,serif" font-size="14.00">value = [162, 1256, 0]</text>
<text text-anchor="middle" x="569.5" y="-468.8" font-family="Times,serif" font-size="14.00">class = DCP</text>
</g>
<!-- 2&#45;&gt;3 -->
<g id="edge3" class="edge">
<title>2&#45;&gt;3</title>
<path fill="none" stroke="black" d="M678.56,-579.91C664.7,-570.2 649.8,-559.76 635.6,-549.81"/>
<polygon fill="black" stroke="black" points="637.54,-546.89 627.34,-544.02 633.52,-552.63 637.54,-546.89"/>
</g>
<!-- 16 -->
<g id="node17" class="node">
<title>16</title>
<polygon fill="#3de583" stroke="black" points="915,-544 748,-544 748,-461 915,-461 915,-544"/>
<text text-anchor="middle" x="831.5" y="-528.8" font-family="Times,serif" font-size="14.00">nbproc &lt;= 4.5</text>
<text text-anchor="middle" x="831.5" y="-513.8" font-family="Times,serif" font-size="14.00">gini = 0.035</text>
<text text-anchor="middle" x="831.5" y="-498.8" font-family="Times,serif" font-size="14.00">samples = 1348</text>
<text text-anchor="middle" x="831.5" y="-483.8" font-family="Times,serif" font-size="14.00">value = [0, 1324, 24]</text>
<text text-anchor="middle" x="831.5" y="-468.8" font-family="Times,serif" font-size="14.00">class = DCP</text>
</g>
<!-- 2&#45;&gt;16 -->
<g id="edge16" class="edge">
<title>2&#45;&gt;16</title>
<path fill="none" stroke="black" d="M769.46,-579.91C776.75,-570.92 784.56,-561.32 792.08,-552.05"/>
<polygon fill="black" stroke="black" points="795.01,-553.99 798.6,-544.02 789.58,-549.58 795.01,-553.99"/>
</g>
<!-- 4 -->
<g id="node5" class="node">
<title>4</title>
<polygon fill="#44e688" stroke="black" points="396.5,-425 238.5,-425 238.5,-342 396.5,-342 396.5,-425"/>
<text text-anchor="middle" x="317.5" y="-409.8" font-family="Times,serif" font-size="14.00">sdComm &lt;= 0.02</text>
<text text-anchor="middle" x="317.5" y="-394.8" font-family="Times,serif" font-size="14.00">gini = 0.097</text>
<text text-anchor="middle" x="317.5" y="-379.8" font-family="Times,serif" font-size="14.00">samples = 666</text>
<text text-anchor="middle" x="317.5" y="-364.8" font-family="Times,serif" font-size="14.00">value = [34, 632, 0]</text>
<text text-anchor="middle" x="317.5" y="-349.8" font-family="Times,serif" font-size="14.00">class = DCP</text>
</g>
<!-- 3&#45;&gt;4 -->
<g id="edge4" class="edge">
<title>3&#45;&gt;4</title>
<path fill="none" stroke="black" d="M482.07,-460.91C457.49,-449.5 430.74,-437.08 406.09,-425.63"/>
<polygon fill="black" stroke="black" points="407.3,-422.34 396.76,-421.3 404.36,-428.69 407.3,-422.34"/>
</g>
<!-- 9 -->
<g id="node10" class="node">
<title>9</title>
<polygon fill="#62ea9b" stroke="black" points="653,-425 486,-425 486,-342 653,-342 653,-425"/>
<text text-anchor="middle" x="569.5" y="-409.8" font-family="Times,serif" font-size="14.00">graphDepth &lt;= 3.5</text>
<text text-anchor="middle" x="569.5" y="-394.8" font-family="Times,serif" font-size="14.00">gini = 0.282</text>
<text text-anchor="middle" x="569.5" y="-379.8" font-family="Times,serif" font-size="14.00">samples = 752</text>
<text text-anchor="middle" x="569.5" y="-364.8" font-family="Times,serif" font-size="14.00">value = [128, 624, 0]</text>
<text text-anchor="middle" x="569.5" y="-349.8" font-family="Times,serif" font-size="14.00">class = DCP</text>
</g>
<!-- 3&#45;&gt;9 -->
<g id="edge9" class="edge">
<title>3&#45;&gt;9</title>
<path fill="none" stroke="black" d="M569.5,-460.91C569.5,-452.65 569.5,-443.86 569.5,-435.3"/>
<polygon fill="black" stroke="black" points="573,-435.02 569.5,-425.02 566,-435.02 573,-435.02"/>
</g>
<!-- 5 -->
<g id="node6" class="node">
<title>5</title>
<polygon fill="#5eea99" stroke="black" points="225.5,-306 67.5,-306 67.5,-223 225.5,-223 225.5,-306"/>
<text text-anchor="middle" x="146.5" y="-290.8" font-family="Times,serif" font-size="14.00">graphDepth &lt;= 3.5</text>
<text text-anchor="middle" x="146.5" y="-275.8" font-family="Times,serif" font-size="14.00">gini = 0.267</text>
<text text-anchor="middle" x="146.5" y="-260.8" font-family="Times,serif" font-size="14.00">samples = 214</text>
<text text-anchor="middle" x="146.5" y="-245.8" font-family="Times,serif" font-size="14.00">value = [34, 180, 0]</text>
<text text-anchor="middle" x="146.5" y="-230.8" font-family="Times,serif" font-size="14.00">class = DCP</text>
</g>
<!-- 4&#45;&gt;5 -->
<g id="edge5" class="edge">
<title>4&#45;&gt;5</title>
<path fill="none" stroke="black" d="M258.17,-341.91C243.98,-332.2 228.72,-321.76 214.19,-311.81"/>
<polygon fill="black" stroke="black" points="215.95,-308.78 205.72,-306.02 212,-314.56 215.95,-308.78"/>
</g>
<!-- 8 -->
<g id="node9" class="node">
<title>8</title>
<polygon fill="#39e581" stroke="black" points="392,-298.5 243,-298.5 243,-230.5 392,-230.5 392,-298.5"/>
<text text-anchor="middle" x="317.5" y="-283.3" font-family="Times,serif" font-size="14.00">gini = 0.0</text>
<text text-anchor="middle" x="317.5" y="-268.3" font-family="Times,serif" font-size="14.00">samples = 452</text>
<text text-anchor="middle" x="317.5" y="-253.3" font-family="Times,serif" font-size="14.00">value = [0, 452, 0]</text>
<text text-anchor="middle" x="317.5" y="-238.3" font-family="Times,serif" font-size="14.00">class = DCP</text>
</g>
<!-- 4&#45;&gt;8 -->
<g id="edge8" class="edge">
<title>4&#45;&gt;8</title>
<path fill="none" stroke="black" d="M317.5,-341.91C317.5,-331.2 317.5,-319.62 317.5,-308.78"/>
<polygon fill="black" stroke="black" points="321,-308.67 317.5,-298.67 314,-308.67 321,-308.67"/>
</g>
<!-- 6 -->
<g id="node7" class="node">
<title>6</title>
<polygon fill="#e58139" stroke="black" points="131,-179.5 0,-179.5 0,-111.5 131,-111.5 131,-179.5"/>
<text text-anchor="middle" x="65.5" y="-164.3" font-family="Times,serif" font-size="14.00">gini = 0.0</text>
<text text-anchor="middle" x="65.5" y="-149.3" font-family="Times,serif" font-size="14.00">samples = 2</text>
<text text-anchor="middle" x="65.5" y="-134.3" font-family="Times,serif" font-size="14.00">value = [2, 0, 0]</text>
<text text-anchor="middle" x="65.5" y="-119.3" font-family="Times,serif" font-size="14.00">class = DLS/DC</text>
</g>
<!-- 5&#45;&gt;6 -->
<g id="edge6" class="edge">
<title>5&#45;&gt;6</title>
<path fill="none" stroke="black" d="M118.4,-222.91C110.61,-211.65 102.14,-199.42 94.3,-188.11"/>
<polygon fill="black" stroke="black" points="97.03,-185.9 88.46,-179.67 91.28,-189.88 97.03,-185.9"/>
</g>
<!-- 7 -->
<g id="node8" class="node">
<title>7</title>
<polygon fill="#5cea97" stroke="black" points="307.5,-179.5 149.5,-179.5 149.5,-111.5 307.5,-111.5 307.5,-179.5"/>
<text text-anchor="middle" x="228.5" y="-164.3" font-family="Times,serif" font-size="14.00">gini = 0.256</text>
<text text-anchor="middle" x="228.5" y="-149.3" font-family="Times,serif" font-size="14.00">samples = 212</text>
<text text-anchor="middle" x="228.5" y="-134.3" font-family="Times,serif" font-size="14.00">value = [32, 180, 0]</text>
<text text-anchor="middle" x="228.5" y="-119.3" font-family="Times,serif" font-size="14.00">class = DCP</text>
</g>
<!-- 5&#45;&gt;7 -->
<g id="edge7" class="edge">
<title>5&#45;&gt;7</title>
<path fill="none" stroke="black" d="M174.95,-222.91C182.84,-211.65 191.41,-199.42 199.34,-188.11"/>
<polygon fill="black" stroke="black" points="202.38,-189.86 205.25,-179.67 196.65,-185.85 202.38,-189.86"/>
</g>
<!-- 10 -->
<g id="node11" class="node">
<title>10</title>
<polygon fill="#88efb3" stroke="black" points="567.5,-298.5 409.5,-298.5 409.5,-230.5 567.5,-230.5 567.5,-298.5"/>
<text text-anchor="middle" x="488.5" y="-283.3" font-family="Times,serif" font-size="14.00">gini = 0.408</text>
<text text-anchor="middle" x="488.5" y="-268.3" font-family="Times,serif" font-size="14.00">samples = 168</text>
<text text-anchor="middle" x="488.5" y="-253.3" font-family="Times,serif" font-size="14.00">value = [48, 120, 0]</text>
<text text-anchor="middle" x="488.5" y="-238.3" font-family="Times,serif" font-size="14.00">class = DCP</text>
</g>
<!-- 9&#45;&gt;10 -->
<g id="edge10" class="edge">
<title>9&#45;&gt;10</title>
<path fill="none" stroke="black" d="M541.4,-341.91C533.61,-330.65 525.14,-318.42 517.3,-307.11"/>
<polygon fill="black" stroke="black" points="520.03,-304.9 511.46,-298.67 514.28,-308.88 520.03,-304.9"/>
</g>
<!-- 11 -->
<g id="node12" class="node">
<title>11</title>
<polygon fill="#58e995" stroke="black" points="743.5,-306 585.5,-306 585.5,-223 743.5,-223 743.5,-306"/>
<text text-anchor="middle" x="664.5" y="-290.8" font-family="Times,serif" font-size="14.00">graphSize &lt;= 22.5</text>
<text text-anchor="middle" x="664.5" y="-275.8" font-family="Times,serif" font-size="14.00">gini = 0.236</text>
<text text-anchor="middle" x="664.5" y="-260.8" font-family="Times,serif" font-size="14.00">samples = 584</text>
<text text-anchor="middle" x="664.5" y="-245.8" font-family="Times,serif" font-size="14.00">value = [80, 504, 0]</text>
<text text-anchor="middle" x="664.5" y="-230.8" font-family="Times,serif" font-size="14.00">class = DCP</text>
</g>
<!-- 9&#45;&gt;11 -->
<g id="edge11" class="edge">
<title>9&#45;&gt;11</title>
<path fill="none" stroke="black" d="M602.46,-341.91C609.75,-332.92 617.56,-323.32 625.08,-314.05"/>
<polygon fill="black" stroke="black" points="628.01,-315.99 631.6,-306.02 622.58,-311.58 628.01,-315.99"/>
</g>
<!-- 12 -->
<g id="node13" class="node">
<title>12</title>
<polygon fill="#5ae996" stroke="black" points="659.5,-187 501.5,-187 501.5,-104 659.5,-104 659.5,-187"/>
<text text-anchor="middle" x="580.5" y="-171.8" font-family="Times,serif" font-size="14.00">sdComm &lt;= 0.02</text>
<text text-anchor="middle" x="580.5" y="-156.8" font-family="Times,serif" font-size="14.00">gini = 0.245</text>
<text text-anchor="middle" x="580.5" y="-141.8" font-family="Times,serif" font-size="14.00">samples = 560</text>
<text text-anchor="middle" x="580.5" y="-126.8" font-family="Times,serif" font-size="14.00">value = [80, 480, 0]</text>
<text text-anchor="middle" x="580.5" y="-111.8" font-family="Times,serif" font-size="14.00">class = DCP</text>
</g>
<!-- 11&#45;&gt;12 -->
<g id="edge12" class="edge">
<title>11&#45;&gt;12</title>
<path fill="none" stroke="black" d="M635.36,-222.91C628.97,-214.01 622.15,-204.51 615.56,-195.33"/>
<polygon fill="black" stroke="black" points="618.27,-193.1 609.59,-187.02 612.58,-197.19 618.27,-193.1"/>
</g>
<!-- 15 -->
<g id="node16" class="node">
<title>15</title>
<polygon fill="#39e581" stroke="black" points="817.5,-179.5 677.5,-179.5 677.5,-111.5 817.5,-111.5 817.5,-179.5"/>
<text text-anchor="middle" x="747.5" y="-164.3" font-family="Times,serif" font-size="14.00">gini = 0.0</text>
<text text-anchor="middle" x="747.5" y="-149.3" font-family="Times,serif" font-size="14.00">samples = 24</text>
<text text-anchor="middle" x="747.5" y="-134.3" font-family="Times,serif" font-size="14.00">value = [0, 24, 0]</text>
<text text-anchor="middle" x="747.5" y="-119.3" font-family="Times,serif" font-size="14.00">class = DCP</text>
</g>
<!-- 11&#45;&gt;15 -->
<g id="edge15" class="edge">
<title>11&#45;&gt;15</title>
<path fill="none" stroke="black" d="M693.3,-222.91C701.28,-211.65 709.96,-199.42 717.98,-188.11"/>
<polygon fill="black" stroke="black" points="721.04,-189.85 723.97,-179.67 715.33,-185.8 721.04,-189.85"/>
</g>
<!-- 13 -->
<g id="node14" class="node">
<title>13</title>
<polygon fill="#39e581" stroke="black" points="567.5,-68 427.5,-68 427.5,0 567.5,0 567.5,-68"/>
<text text-anchor="middle" x="497.5" y="-52.8" font-family="Times,serif" font-size="14.00">gini = 0.0</text>
<text text-anchor="middle" x="497.5" y="-37.8" font-family="Times,serif" font-size="14.00">samples = 24</text>
<text text-anchor="middle" x="497.5" y="-22.8" font-family="Times,serif" font-size="14.00">value = [0, 24, 0]</text>
<text text-anchor="middle" x="497.5" y="-7.8" font-family="Times,serif" font-size="14.00">class = DCP</text>
</g>
<!-- 12&#45;&gt;13 -->
<g id="edge13" class="edge">
<title>12&#45;&gt;13</title>
<path fill="none" stroke="black" d="M549.59,-103.73C542.82,-94.79 535.64,-85.32 528.85,-76.36"/>
<polygon fill="black" stroke="black" points="531.57,-74.15 522.74,-68.3 525.99,-78.38 531.57,-74.15"/>
</g>
<!-- 14 -->
<g id="node15" class="node">
<title>14</title>
<polygon fill="#5cea97" stroke="black" points="743.5,-68 585.5,-68 585.5,0 743.5,0 743.5,-68"/>
<text text-anchor="middle" x="664.5" y="-52.8" font-family="Times,serif" font-size="14.00">gini = 0.254</text>
<text text-anchor="middle" x="664.5" y="-37.8" font-family="Times,serif" font-size="14.00">samples = 536</text>
<text text-anchor="middle" x="664.5" y="-22.8" font-family="Times,serif" font-size="14.00">value = [80, 456, 0]</text>
<text text-anchor="middle" x="664.5" y="-7.8" font-family="Times,serif" font-size="14.00">class = DCP</text>
</g>
<!-- 12&#45;&gt;14 -->
<g id="edge14" class="edge">
<title>12&#45;&gt;14</title>
<path fill="none" stroke="black" d="M611.78,-103.73C618.64,-94.79 625.9,-85.32 632.78,-76.36"/>
<polygon fill="black" stroke="black" points="635.65,-78.36 638.96,-68.3 630.09,-74.1 635.65,-78.36"/>
</g>
<!-- 17 -->
<g id="node18" class="node">
<title>17</title>
<polygon fill="#52e891" stroke="black" points="910.5,-425 752.5,-425 752.5,-342 910.5,-342 910.5,-425"/>
<text text-anchor="middle" x="831.5" y="-409.8" font-family="Times,serif" font-size="14.00">graphDepth &lt;= 3.5</text>
<text text-anchor="middle" x="831.5" y="-394.8" font-family="Times,serif" font-size="14.00">gini = 0.201</text>
<text text-anchor="middle" x="831.5" y="-379.8" font-family="Times,serif" font-size="14.00">samples = 212</text>
<text text-anchor="middle" x="831.5" y="-364.8" font-family="Times,serif" font-size="14.00">value = [0, 188, 24]</text>
<text text-anchor="middle" x="831.5" y="-349.8" font-family="Times,serif" font-size="14.00">class = DCP</text>
</g>
<!-- 16&#45;&gt;17 -->
<g id="edge17" class="edge">
<title>16&#45;&gt;17</title>
<path fill="none" stroke="black" d="M831.5,-460.91C831.5,-452.65 831.5,-443.86 831.5,-435.3"/>
<polygon fill="black" stroke="black" points="835,-435.02 831.5,-425.02 828,-435.02 835,-435.02"/>
</g>
<!-- 20 -->
<g id="node21" class="node">
<title>20</title>
<polygon fill="#39e581" stroke="black" points="1086.5,-417.5 928.5,-417.5 928.5,-349.5 1086.5,-349.5 1086.5,-417.5"/>
<text text-anchor="middle" x="1007.5" y="-402.3" font-family="Times,serif" font-size="14.00">gini = 0.0</text>
<text text-anchor="middle" x="1007.5" y="-387.3" font-family="Times,serif" font-size="14.00">samples = 1136</text>
<text text-anchor="middle" x="1007.5" y="-372.3" font-family="Times,serif" font-size="14.00">value = [0, 1136, 0]</text>
<text text-anchor="middle" x="1007.5" y="-357.3" font-family="Times,serif" font-size="14.00">class = DCP</text>
</g>
<!-- 16&#45;&gt;20 -->
<g id="edge20" class="edge">
<title>16&#45;&gt;20</title>
<path fill="none" stroke="black" d="M892.56,-460.91C910.82,-448.77 930.79,-435.49 948.89,-423.46"/>
<polygon fill="black" stroke="black" points="951.22,-426.12 957.61,-417.67 947.34,-420.29 951.22,-426.12"/>
</g>
<!-- 18 -->
<g id="node19" class="node">
<title>18</title>
<polygon fill="#8139e5" stroke="black" points="901.5,-298.5 761.5,-298.5 761.5,-230.5 901.5,-230.5 901.5,-298.5"/>
<text text-anchor="middle" x="831.5" y="-283.3" font-family="Times,serif" font-size="14.00">gini = 0.0</text>
<text text-anchor="middle" x="831.5" y="-268.3" font-family="Times,serif" font-size="14.00">samples = 24</text>
<text text-anchor="middle" x="831.5" y="-253.3" font-family="Times,serif" font-size="14.00">value = [0, 0, 24]</text>
<text text-anchor="middle" x="831.5" y="-238.3" font-family="Times,serif" font-size="14.00">class = None</text>
</g>
<!-- 17&#45;&gt;18 -->
<g id="edge18" class="edge">
<title>17&#45;&gt;18</title>
<path fill="none" stroke="black" d="M831.5,-341.91C831.5,-331.2 831.5,-319.62 831.5,-308.78"/>
<polygon fill="black" stroke="black" points="835,-308.67 831.5,-298.67 828,-308.67 835,-308.67"/>
</g>
<!-- 19 -->
<g id="node20" class="node">
<title>19</title>
<polygon fill="#39e581" stroke="black" points="1069,-298.5 920,-298.5 920,-230.5 1069,-230.5 1069,-298.5"/>
<text text-anchor="middle" x="994.5" y="-283.3" font-family="Times,serif" font-size="14.00">gini = 0.0</text>
<text text-anchor="middle" x="994.5" y="-268.3" font-family="Times,serif" font-size="14.00">samples = 188</text>
<text text-anchor="middle" x="994.5" y="-253.3" font-family="Times,serif" font-size="14.00">value = [0, 188, 0]</text>
<text text-anchor="middle" x="994.5" y="-238.3" font-family="Times,serif" font-size="14.00">class = DCP</text>
</g>
<!-- 17&#45;&gt;19 -->
<g id="edge19" class="edge">
<title>17&#45;&gt;19</title>
<path fill="none" stroke="black" d="M888.05,-341.91C904.81,-329.88 923.12,-316.73 939.76,-304.79"/>
<polygon fill="black" stroke="black" points="942.21,-307.34 948.29,-298.67 938.13,-301.65 942.21,-307.34"/>
</g>
</g>
</svg>
