<?xml version="1.0" encoding="UTF-8" standalone="no"?>
<!DOCTYPE svg PUBLIC "-//W3C//DTD SVG 1.1//EN"
 "http://www.w3.org/Graphics/SVG/1.1/DTD/svg11.dtd">
<!-- Generated by graphviz version 2.43.0 (0)
 -->
<!-- Title: Tree Pages: 1 -->
<svg width="1370pt" height="520pt"
 viewBox="0.00 0.00 1369.50 520.00" xmlns="http://www.w3.org/2000/svg" xmlns:xlink="http://www.w3.org/1999/xlink">
<g id="graph0" class="graph" transform="scale(1 1) rotate(0) translate(4 516)">
<title>Tree</title>
<polygon fill="white" stroke="transparent" points="-4,4 -4,-516 1365.5,-516 1365.5,4 -4,4"/>
<!-- 0 -->
<g id="node1" class="node">
<title>0</title>
<polygon fill="#fafcfe" stroke="black" points="749.5,-512 582.5,-512 582.5,-429 749.5,-429 749.5,-512"/>
<text text-anchor="middle" x="666" y="-496.8" font-family="Times,serif" font-size="14.00">graphDepth &lt;= 3.5</text>
<text text-anchor="middle" x="666" y="-481.8" font-family="Times,serif" font-size="14.00">gini = 0.5</text>
<text text-anchor="middle" x="666" y="-466.8" font-family="Times,serif" font-size="14.00">samples = 8416</text>
<text text-anchor="middle" x="666" y="-451.8" font-family="Times,serif" font-size="14.00">value = [4152, 4264]</text>
<text text-anchor="middle" x="666" y="-436.8" font-family="Times,serif" font-size="14.00">class = True</text>
</g>
<!-- 1 -->
<g id="node2" class="node">
<title>1</title>
<polygon fill="#ebf5fc" stroke="black" points="569.5,-393 420.5,-393 420.5,-310 569.5,-310 569.5,-393"/>
<text text-anchor="middle" x="495" y="-377.8" font-family="Times,serif" font-size="14.00">sdComm &lt;= 0.65</text>
<text text-anchor="middle" x="495" y="-362.8" font-family="Times,serif" font-size="14.00">gini = 0.499</text>
<text text-anchor="middle" x="495" y="-347.8" font-family="Times,serif" font-size="14.00">samples = 1428</text>
<text text-anchor="middle" x="495" y="-332.8" font-family="Times,serif" font-size="14.00">value = [676, 752]</text>
<text text-anchor="middle" x="495" y="-317.8" font-family="Times,serif" font-size="14.00">class = True</text>
</g>
<!-- 0&#45;&gt;1 -->
<g id="edge1" class="edge">
<title>0&#45;&gt;1</title>
<path fill="none" stroke="black" d="M606.67,-428.91C592.48,-419.2 577.22,-408.76 562.69,-398.81"/>
<polygon fill="black" stroke="black" points="564.45,-395.78 554.22,-393.02 560.5,-401.56 564.45,-395.78"/>
<text text-anchor="middle" x="558.83" y="-413.89" font-family="Times,serif" font-size="14.00">True</text>
</g>
<!-- 30 -->
<g id="node17" class="node">
<title>30</title>
<polygon fill="#fdfeff" stroke="black" points="927.5,-393 760.5,-393 760.5,-310 927.5,-310 927.5,-393"/>
<text text-anchor="middle" x="844" y="-377.8" font-family="Times,serif" font-size="14.00">sdComm &lt;= 6.5</text>
<text text-anchor="middle" x="844" y="-362.8" font-family="Times,serif" font-size="14.00">gini = 0.5</text>
<text text-anchor="middle" x="844" y="-347.8" font-family="Times,serif" font-size="14.00">samples = 6988</text>
<text text-anchor="middle" x="844" y="-332.8" font-family="Times,serif" font-size="14.00">value = [3476, 3512]</text>
<text text-anchor="middle" x="844" y="-317.8" font-family="Times,serif" font-size="14.00">class = True</text>
</g>
<!-- 0&#45;&gt;30 -->
<g id="edge16" class="edge">
<title>0&#45;&gt;30</title>
<path fill="none" stroke="black" d="M727.76,-428.91C742.67,-419.11 758.71,-408.56 773.97,-398.53"/>
<polygon fill="black" stroke="black" points="775.92,-401.44 782.35,-393.02 772.07,-395.59 775.92,-401.44"/>
<text text-anchor="middle" x="777.29" y="-413.8" font-family="Times,serif" font-size="14.00">False</text>
</g>
<!-- 2 -->
<g id="node3" class="node">
<title>2</title>
<polygon fill="#d7ebfa" stroke="black" points="319.5,-274 170.5,-274 170.5,-191 319.5,-191 319.5,-274"/>
<text text-anchor="middle" x="245" y="-258.8" font-family="Times,serif" font-size="14.00">nbproc &lt;= 4.5</text>
<text text-anchor="middle" x="245" y="-243.8" font-family="Times,serif" font-size="14.00">gini = 0.494</text>
<text text-anchor="middle" x="245" y="-228.8" font-family="Times,serif" font-size="14.00">samples = 650</text>
<text text-anchor="middle" x="245" y="-213.8" font-family="Times,serif" font-size="14.00">value = [288, 362]</text>
<text text-anchor="middle" x="245" y="-198.8" font-family="Times,serif" font-size="14.00">class = True</text>
</g>
<!-- 1&#45;&gt;2 -->
<g id="edge2" class="edge">
<title>1&#45;&gt;2</title>
<path fill="none" stroke="black" d="M420.33,-315.55C391.51,-302.07 358.41,-286.58 328.79,-272.71"/>
<polygon fill="black" stroke="black" points="330.26,-269.54 319.72,-268.47 327.29,-275.88 330.26,-269.54"/>
</g>
<!-- 15 -->
<g id="node10" class="node">
<title>15</title>
<polygon fill="#fefeff" stroke="black" points="569.5,-274 420.5,-274 420.5,-191 569.5,-191 569.5,-274"/>
<text text-anchor="middle" x="495" y="-258.8" font-family="Times,serif" font-size="14.00">sdComm &lt;= 2.0</text>
<text text-anchor="middle" x="495" y="-243.8" font-family="Times,serif" font-size="14.00">gini = 0.5</text>
<text text-anchor="middle" x="495" y="-228.8" font-family="Times,serif" font-size="14.00">samples = 778</text>
<text text-anchor="middle" x="495" y="-213.8" font-family="Times,serif" font-size="14.00">value = [388, 390]</text>
<text text-anchor="middle" x="495" y="-198.8" font-family="Times,serif" font-size="14.00">class = True</text>
</g>
<!-- 1&#45;&gt;15 -->
<g id="edge9" class="edge">
<title>1&#45;&gt;15</title>
<path fill="none" stroke="black" d="M495,-309.91C495,-301.65 495,-292.86 495,-284.3"/>
<polygon fill="black" stroke="black" points="498.5,-284.02 495,-274.02 491.5,-284.02 498.5,-284.02"/>
</g>
<!-- 3 -->
<g id="node4" class="node">
<title>3</title>
<polygon fill="#9ccef2" stroke="black" points="152,-155 0,-155 0,-72 152,-72 152,-155"/>
<text text-anchor="middle" x="76" y="-139.8" font-family="Times,serif" font-size="14.00">sdComm &lt;= 0.065</text>
<text text-anchor="middle" x="76" y="-124.8" font-family="Times,serif" font-size="14.00">gini = 0.444</text>
<text text-anchor="middle" x="76" y="-109.8" font-family="Times,serif" font-size="14.00">samples = 78</text>
<text text-anchor="middle" x="76" y="-94.8" font-family="Times,serif" font-size="14.00">value = [26, 52]</text>
<text text-anchor="middle" x="76" y="-79.8" font-family="Times,serif" font-size="14.00">class = True</text>
</g>
<!-- 2&#45;&gt;3 -->
<g id="edge3" class="edge">
<title>2&#45;&gt;3</title>
<path fill="none" stroke="black" d="M186.37,-190.91C172.34,-181.2 157.26,-170.76 142.89,-160.81"/>
<polygon fill="black" stroke="black" points="144.74,-157.84 134.53,-155.02 140.76,-163.59 144.74,-157.84"/>
</g>
<!-- 8 -->
<g id="node7" class="node">
<title>8</title>
<polygon fill="#e0f0fb" stroke="black" points="319.5,-155 170.5,-155 170.5,-72 319.5,-72 319.5,-155"/>
<text text-anchor="middle" x="245" y="-139.8" font-family="Times,serif" font-size="14.00">sdComp &lt;= 0.55</text>
<text text-anchor="middle" x="245" y="-124.8" font-family="Times,serif" font-size="14.00">gini = 0.496</text>
<text text-anchor="middle" x="245" y="-109.8" font-family="Times,serif" font-size="14.00">samples = 572</text>
<text text-anchor="middle" x="245" y="-94.8" font-family="Times,serif" font-size="14.00">value = [262, 310]</text>
<text text-anchor="middle" x="245" y="-79.8" font-family="Times,serif" font-size="14.00">class = True</text>
</g>
<!-- 2&#45;&gt;8 -->
<g id="edge6" class="edge">
<title>2&#45;&gt;8</title>
<path fill="none" stroke="black" d="M245,-190.91C245,-182.65 245,-173.86 245,-165.3"/>
<polygon fill="black" stroke="black" points="248.5,-165.02 245,-155.02 241.5,-165.02 248.5,-165.02"/>
</g>
<!-- 4 -->
<g id="node5" class="node">
<title>4</title>
<polygon fill="#c0c0c0" stroke="black" points="67,-36 13,-36 13,0 67,0 67,-36"/>
<text text-anchor="middle" x="40" y="-14.3" font-family="Times,serif" font-size="14.00">(...)</text>
</g>
<!-- 3&#45;&gt;4 -->
<g id="edge4" class="edge">
<title>3&#45;&gt;4</title>
<path fill="none" stroke="black" d="M60.31,-71.76C56.96,-63.04 53.49,-54.04 50.39,-45.99"/>
<polygon fill="black" stroke="black" points="53.56,-44.48 46.7,-36.41 47.03,-46.99 53.56,-44.48"/>
</g>
<!-- 7 -->
<g id="node6" class="node">
<title>7</title>
<polygon fill="#c0c0c0" stroke="black" points="139,-36 85,-36 85,0 139,0 139,-36"/>
<text text-anchor="middle" x="112" y="-14.3" font-family="Times,serif" font-size="14.00">(...)</text>
</g>
<!-- 3&#45;&gt;7 -->
<g id="edge5" class="edge">
<title>3&#45;&gt;7</title>
<path fill="none" stroke="black" d="M91.69,-71.76C95.04,-63.04 98.51,-54.04 101.61,-45.99"/>
<polygon fill="black" stroke="black" points="104.97,-46.99 105.3,-36.41 98.44,-44.48 104.97,-46.99"/>
</g>
<!-- 9 -->
<g id="node8" class="node">
<title>9</title>
<polygon fill="#c0c0c0" stroke="black" points="242,-36 188,-36 188,0 242,0 242,-36"/>
<text text-anchor="middle" x="215" y="-14.3" font-family="Times,serif" font-size="14.00">(...)</text>
</g>
<!-- 8&#45;&gt;9 -->
<g id="edge7" class="edge">
<title>8&#45;&gt;9</title>
<path fill="none" stroke="black" d="M231.93,-71.76C229.13,-63.04 226.24,-54.04 223.66,-45.99"/>
<polygon fill="black" stroke="black" points="226.97,-44.86 220.58,-36.41 220.31,-47 226.97,-44.86"/>
</g>
<!-- 12 -->
<g id="node9" class="node">
<title>12</title>
<polygon fill="#c0c0c0" stroke="black" points="314,-36 260,-36 260,0 314,0 314,-36"/>
<text text-anchor="middle" x="287" y="-14.3" font-family="Times,serif" font-size="14.00">(...)</text>
</g>
<!-- 8&#45;&gt;12 -->
<g id="edge8" class="edge">
<title>8&#45;&gt;12</title>
<path fill="none" stroke="black" d="M263.3,-71.76C267.26,-62.94 271.35,-53.84 275,-45.72"/>
<polygon fill="black" stroke="black" points="278.28,-46.96 279.18,-36.41 271.89,-44.09 278.28,-46.96"/>
</g>
<!-- 16 -->
<g id="node11" class="node">
<title>16</title>
<polygon fill="#ffffff" stroke="black" points="486.5,-155 337.5,-155 337.5,-72 486.5,-72 486.5,-155"/>
<text text-anchor="middle" x="412" y="-139.8" font-family="Times,serif" font-size="14.00">CCR &lt;= 5.5</text>
<text text-anchor="middle" x="412" y="-124.8" font-family="Times,serif" font-size="14.00">gini = 0.5</text>
<text text-anchor="middle" x="412" y="-109.8" font-family="Times,serif" font-size="14.00">samples = 400</text>
<text text-anchor="middle" x="412" y="-94.8" font-family="Times,serif" font-size="14.00">value = [200, 200]</text>
<text text-anchor="middle" x="412" y="-79.8" font-family="Times,serif" font-size="14.00">class = False</text>
</g>
<!-- 15&#45;&gt;16 -->
<g id="edge10" class="edge">
<title>15&#45;&gt;16</title>
<path fill="none" stroke="black" d="M466.2,-190.91C459.89,-182.01 453.15,-172.51 446.64,-163.33"/>
<polygon fill="black" stroke="black" points="449.39,-161.15 440.75,-155.02 443.68,-165.2 449.39,-161.15"/>
</g>
<!-- 21 -->
<g id="node14" class="node">
<title>21</title>
<polygon fill="#fdfeff" stroke="black" points="653.5,-155 504.5,-155 504.5,-72 653.5,-72 653.5,-155"/>
<text text-anchor="middle" x="579" y="-139.8" font-family="Times,serif" font-size="14.00">sdComm &lt;= 6.5</text>
<text text-anchor="middle" x="579" y="-124.8" font-family="Times,serif" font-size="14.00">gini = 0.5</text>
<text text-anchor="middle" x="579" y="-109.8" font-family="Times,serif" font-size="14.00">samples = 378</text>
<text text-anchor="middle" x="579" y="-94.8" font-family="Times,serif" font-size="14.00">value = [188, 190]</text>
<text text-anchor="middle" x="579" y="-79.8" font-family="Times,serif" font-size="14.00">class = True</text>
</g>
<!-- 15&#45;&gt;21 -->
<g id="edge13" class="edge">
<title>15&#45;&gt;21</title>
<path fill="none" stroke="black" d="M524.14,-190.91C530.53,-182.01 537.35,-172.51 543.94,-163.33"/>
<polygon fill="black" stroke="black" points="546.92,-165.19 549.91,-155.02 541.23,-161.1 546.92,-165.19"/>
</g>
<!-- 17 -->
<g id="node12" class="node">
<title>17</title>
<polygon fill="#c0c0c0" stroke="black" points="415,-36 361,-36 361,0 415,0 415,-36"/>
<text text-anchor="middle" x="388" y="-14.3" font-family="Times,serif" font-size="14.00">(...)</text>
</g>
<!-- 16&#45;&gt;17 -->
<g id="edge11" class="edge">
<title>16&#45;&gt;17</title>
<path fill="none" stroke="black" d="M401.54,-71.76C399.33,-63.14 397.05,-54.24 395,-46.26"/>
<polygon fill="black" stroke="black" points="398.34,-45.22 392.47,-36.41 391.56,-46.96 398.34,-45.22"/>
</g>
<!-- 18 -->
<g id="node13" class="node">
<title>18</title>
<polygon fill="#c0c0c0" stroke="black" points="487,-36 433,-36 433,0 487,0 487,-36"/>
<text text-anchor="middle" x="460" y="-14.3" font-family="Times,serif" font-size="14.00">(...)</text>
</g>
<!-- 16&#45;&gt;18 -->
<g id="edge12" class="edge">
<title>16&#45;&gt;18</title>
<path fill="none" stroke="black" d="M432.91,-71.76C437.49,-62.85 442.22,-53.64 446.42,-45.46"/>
<polygon fill="black" stroke="black" points="449.61,-46.9 451.06,-36.41 443.38,-43.7 449.61,-46.9"/>
</g>
<!-- 22 -->
<g id="node15" class="node">
<title>22</title>
<polygon fill="#c0c0c0" stroke="black" points="577,-36 523,-36 523,0 577,0 577,-36"/>
<text text-anchor="middle" x="550" y="-14.3" font-family="Times,serif" font-size="14.00">(...)</text>
</g>
<!-- 21&#45;&gt;22 -->
<g id="edge14" class="edge">
<title>21&#45;&gt;22</title>
<path fill="none" stroke="black" d="M566.36,-71.76C563.66,-63.04 560.87,-54.04 558.37,-45.99"/>
<polygon fill="black" stroke="black" points="561.7,-44.92 555.4,-36.41 555.02,-46.99 561.7,-44.92"/>
</g>
<!-- 23 -->
<g id="node16" class="node">
<title>23</title>
<polygon fill="#c0c0c0" stroke="black" points="649,-36 595,-36 595,0 649,0 649,-36"/>
<text text-anchor="middle" x="622" y="-14.3" font-family="Times,serif" font-size="14.00">(...)</text>
</g>
<!-- 21&#45;&gt;23 -->
<g id="edge15" class="edge">
<title>21&#45;&gt;23</title>
<path fill="none" stroke="black" d="M597.74,-71.76C601.79,-62.94 605.98,-53.84 609.71,-45.72"/>
<polygon fill="black" stroke="black" points="613,-46.95 614,-36.41 606.64,-44.03 613,-46.95"/>
</g>
<!-- 31 -->
<g id="node18" class="node">
<title>31</title>
<polygon fill="#ffffff" stroke="black" points="927.5,-274 760.5,-274 760.5,-191 927.5,-191 927.5,-274"/>
<text text-anchor="middle" x="844" y="-258.8" font-family="Times,serif" font-size="14.00">nbproc &lt;= 4.5</text>
<text text-anchor="middle" x="844" y="-243.8" font-family="Times,serif" font-size="14.00">gini = 0.5</text>
<text text-anchor="middle" x="844" y="-228.8" font-family="Times,serif" font-size="14.00">samples = 4884</text>
<text text-anchor="middle" x="844" y="-213.8" font-family="Times,serif" font-size="14.00">value = [2442, 2442]</text>
<text text-anchor="middle" x="844" y="-198.8" font-family="Times,serif" font-size="14.00">class = False</text>
</g>
<!-- 30&#45;&gt;31 -->
<g id="edge17" class="edge">
<title>30&#45;&gt;31</title>
<path fill="none" stroke="black" d="M844,-309.91C844,-301.65 844,-292.86 844,-284.3"/>
<polygon fill="black" stroke="black" points="847.5,-284.02 844,-274.02 840.5,-284.02 847.5,-284.02"/>
</g>
<!-- 122 -->
<g id="node25" class="node">
<title>122</title>
<polygon fill="#f8fcfe" stroke="black" points="1201.5,-274 1034.5,-274 1034.5,-191 1201.5,-191 1201.5,-274"/>
<text text-anchor="middle" x="1118" y="-258.8" font-family="Times,serif" font-size="14.00">graphDepth &lt;= 9.0</text>
<text text-anchor="middle" x="1118" y="-243.8" font-family="Times,serif" font-size="14.00">gini = 0.5</text>
<text text-anchor="middle" x="1118" y="-228.8" font-family="Times,serif" font-size="14.00">samples = 2104</text>
<text text-anchor="middle" x="1118" y="-213.8" font-family="Times,serif" font-size="14.00">value = [1034, 1070]</text>
<text text-anchor="middle" x="1118" y="-198.8" font-family="Times,serif" font-size="14.00">class = True</text>
</g>
<!-- 30&#45;&gt;122 -->
<g id="edge24" class="edge">
<title>30&#45;&gt;122</title>
<path fill="none" stroke="black" d="M927.7,-314.76C958.49,-301.61 993.55,-286.64 1025.11,-273.17"/>
<polygon fill="black" stroke="black" points="1026.52,-276.37 1034.34,-269.22 1023.77,-269.93 1026.52,-276.37"/>
</g>
<!-- 32 -->
<g id="node19" class="node">
<title>32</title>
<polygon fill="#ffffff" stroke="black" points="838.5,-155 671.5,-155 671.5,-72 838.5,-72 838.5,-155"/>
<text text-anchor="middle" x="755" y="-139.8" font-family="Times,serif" font-size="14.00">graphSize &lt;= 22.5</text>
<text text-anchor="middle" x="755" y="-124.8" font-family="Times,serif" font-size="14.00">gini = 0.5</text>
<text text-anchor="middle" x="755" y="-109.8" font-family="Times,serif" font-size="14.00">samples = 2464</text>
<text text-anchor="middle" x="755" y="-94.8" font-family="Times,serif" font-size="14.00">value = [1232, 1232]</text>
<text text-anchor="middle" x="755" y="-79.8" font-family="Times,serif" font-size="14.00">class = False</text>
</g>
<!-- 31&#45;&gt;32 -->
<g id="edge18" class="edge">
<title>31&#45;&gt;32</title>
<path fill="none" stroke="black" d="M813.12,-190.91C806.29,-181.92 798.98,-172.32 791.93,-163.05"/>
<polygon fill="black" stroke="black" points="794.66,-160.86 785.82,-155.02 789.09,-165.1 794.66,-160.86"/>
</g>
<!-- 85 -->
<g id="node22" class="node">
<title>85</title>
<polygon fill="#ffffff" stroke="black" points="1023.5,-155 856.5,-155 856.5,-72 1023.5,-72 1023.5,-155"/>
<text text-anchor="middle" x="940" y="-139.8" font-family="Times,serif" font-size="14.00">graphSize &lt;= 22.5</text>
<text text-anchor="middle" x="940" y="-124.8" font-family="Times,serif" font-size="14.00">gini = 0.5</text>
<text text-anchor="middle" x="940" y="-109.8" font-family="Times,serif" font-size="14.00">samples = 2420</text>
<text text-anchor="middle" x="940" y="-94.8" font-family="Times,serif" font-size="14.00">value = [1210, 1210]</text>
<text text-anchor="middle" x="940" y="-79.8" font-family="Times,serif" font-size="14.00">class = False</text>
</g>
<!-- 31&#45;&gt;85 -->
<g id="edge21" class="edge">
<title>31&#45;&gt;85</title>
<path fill="none" stroke="black" d="M877.31,-190.91C884.75,-181.83 892.72,-172.12 900.39,-162.77"/>
<polygon fill="black" stroke="black" points="903.11,-164.97 906.75,-155.02 897.7,-160.53 903.11,-164.97"/>
</g>
<!-- 33 -->
<g id="node20" class="node">
<title>33</title>
<polygon fill="#c0c0c0" stroke="black" points="730,-36 676,-36 676,0 730,0 730,-36"/>
<text text-anchor="middle" x="703" y="-14.3" font-family="Times,serif" font-size="14.00">(...)</text>
</g>
<!-- 32&#45;&gt;33 -->
<g id="edge19" class="edge">
<title>32&#45;&gt;33</title>
<path fill="none" stroke="black" d="M732.34,-71.76C727.33,-62.75 722.15,-53.44 717.57,-45.19"/>
<polygon fill="black" stroke="black" points="720.6,-43.44 712.68,-36.41 714.48,-46.85 720.6,-43.44"/>
</g>
<!-- 46 -->
<g id="node21" class="node">
<title>46</title>
<polygon fill="#c0c0c0" stroke="black" points="802,-36 748,-36 748,0 802,0 802,-36"/>
<text text-anchor="middle" x="775" y="-14.3" font-family="Times,serif" font-size="14.00">(...)</text>
</g>
<!-- 32&#45;&gt;46 -->
<g id="edge20" class="edge">
<title>32&#45;&gt;46</title>
<path fill="none" stroke="black" d="M763.71,-71.76C765.56,-63.14 767.46,-54.24 769.17,-46.26"/>
<polygon fill="black" stroke="black" points="772.61,-46.92 771.28,-36.41 765.76,-45.45 772.61,-46.92"/>
</g>
<!-- 86 -->
<g id="node23" class="node">
<title>86</title>
<polygon fill="#c0c0c0" stroke="black" points="912,-36 858,-36 858,0 912,0 912,-36"/>
<text text-anchor="middle" x="885" y="-14.3" font-family="Times,serif" font-size="14.00">(...)</text>
</g>
<!-- 85&#45;&gt;86 -->
<g id="edge22" class="edge">
<title>85&#45;&gt;86</title>
<path fill="none" stroke="black" d="M916.04,-71.76C910.74,-62.75 905.26,-53.44 900.41,-45.19"/>
<polygon fill="black" stroke="black" points="903.33,-43.25 895.24,-36.41 897.29,-46.8 903.33,-43.25"/>
</g>
<!-- 95 -->
<g id="node24" class="node">
<title>95</title>
<polygon fill="#c0c0c0" stroke="black" points="984,-36 930,-36 930,0 984,0 984,-36"/>
<text text-anchor="middle" x="957" y="-14.3" font-family="Times,serif" font-size="14.00">(...)</text>
</g>
<!-- 85&#45;&gt;95 -->
<g id="edge23" class="edge">
<title>85&#45;&gt;95</title>
<path fill="none" stroke="black" d="M947.41,-71.76C948.97,-63.14 950.59,-54.24 952.04,-46.26"/>
<polygon fill="black" stroke="black" points="955.49,-46.87 953.84,-36.41 948.6,-45.62 955.49,-46.87"/>
</g>
<!-- 123 -->
<g id="node26" class="node">
<title>123</title>
<polygon fill="#eef6fd" stroke="black" points="1194.5,-155 1041.5,-155 1041.5,-72 1194.5,-72 1194.5,-155"/>
<text text-anchor="middle" x="1118" y="-139.8" font-family="Times,serif" font-size="14.00">graphSize &lt;= 22.5</text>
<text text-anchor="middle" x="1118" y="-124.8" font-family="Times,serif" font-size="14.00">gini = 0.499</text>
<text text-anchor="middle" x="1118" y="-109.8" font-family="Times,serif" font-size="14.00">samples = 788</text>
<text text-anchor="middle" x="1118" y="-94.8" font-family="Times,serif" font-size="14.00">value = [376, 412]</text>
<text text-anchor="middle" x="1118" y="-79.8" font-family="Times,serif" font-size="14.00">class = True</text>
</g>
<!-- 122&#45;&gt;123 -->
<g id="edge25" class="edge">
<title>122&#45;&gt;123</title>
<path fill="none" stroke="black" d="M1118,-190.91C1118,-182.65 1118,-173.86 1118,-165.3"/>
<polygon fill="black" stroke="black" points="1121.5,-165.02 1118,-155.02 1114.5,-165.02 1121.5,-165.02"/>
</g>
<!-- 140 -->
<g id="node29" class="node">
<title>140</title>
<polygon fill="#ffffff" stroke="black" points="1361.5,-155 1212.5,-155 1212.5,-72 1361.5,-72 1361.5,-155"/>
<text text-anchor="middle" x="1287" y="-139.8" font-family="Times,serif" font-size="14.00">sdComp &lt;= 2.0</text>
<text text-anchor="middle" x="1287" y="-124.8" font-family="Times,serif" font-size="14.00">gini = 0.5</text>
<text text-anchor="middle" x="1287" y="-109.8" font-family="Times,serif" font-size="14.00">samples = 1316</text>
<text text-anchor="middle" x="1287" y="-94.8" font-family="Times,serif" font-size="14.00">value = [658, 658]</text>
<text text-anchor="middle" x="1287" y="-79.8" font-family="Times,serif" font-size="14.00">class = False</text>
</g>
<!-- 122&#45;&gt;140 -->
<g id="edge28" class="edge">
<title>122&#45;&gt;140</title>
<path fill="none" stroke="black" d="M1176.63,-190.91C1190.66,-181.2 1205.74,-170.76 1220.11,-160.81"/>
<polygon fill="black" stroke="black" points="1222.24,-163.59 1228.47,-155.02 1218.26,-157.84 1222.24,-163.59"/>
</g>
<!-- 124 -->
<g id="node27" class="node">
<title>124</title>
<polygon fill="#c0c0c0" stroke="black" points="1103,-36 1049,-36 1049,0 1103,0 1103,-36"/>
<text text-anchor="middle" x="1076" y="-14.3" font-family="Times,serif" font-size="14.00">(...)</text>
</g>
<!-- 123&#45;&gt;124 -->
<g id="edge26" class="edge">
<title>123&#45;&gt;124</title>
<path fill="none" stroke="black" d="M1099.7,-71.76C1095.74,-62.94 1091.65,-53.84 1088,-45.72"/>
<polygon fill="black" stroke="black" points="1091.11,-44.09 1083.82,-36.41 1084.72,-46.96 1091.11,-44.09"/>
</g>
<!-- 131 -->
<g id="node28" class="node">
<title>131</title>
<polygon fill="#c0c0c0" stroke="black" points="1175,-36 1121,-36 1121,0 1175,0 1175,-36"/>
<text text-anchor="middle" x="1148" y="-14.3" font-family="Times,serif" font-size="14.00">(...)</text>
</g>
<!-- 123&#45;&gt;131 -->
<g id="edge27" class="edge">
<title>123&#45;&gt;131</title>
<path fill="none" stroke="black" d="M1131.07,-71.76C1133.87,-63.04 1136.76,-54.04 1139.34,-45.99"/>
<polygon fill="black" stroke="black" points="1142.69,-47 1142.42,-36.41 1136.03,-44.86 1142.69,-47"/>
</g>
<!-- 141 -->
<g id="node30" class="node">
<title>141</title>
<polygon fill="#c0c0c0" stroke="black" points="1278,-36 1224,-36 1224,0 1278,0 1278,-36"/>
<text text-anchor="middle" x="1251" y="-14.3" font-family="Times,serif" font-size="14.00">(...)</text>
</g>
<!-- 140&#45;&gt;141 -->
<g id="edge29" class="edge">
<title>140&#45;&gt;141</title>
<path fill="none" stroke="black" d="M1271.31,-71.76C1267.96,-63.04 1264.49,-54.04 1261.39,-45.99"/>
<polygon fill="black" stroke="black" points="1264.56,-44.48 1257.7,-36.41 1258.03,-46.99 1264.56,-44.48"/>
</g>
<!-- 156 -->
<g id="node31" class="node">
<title>156</title>
<polygon fill="#c0c0c0" stroke="black" points="1350,-36 1296,-36 1296,0 1350,0 1350,-36"/>
<text text-anchor="middle" x="1323" y="-14.3" font-family="Times,serif" font-size="14.00">(...)</text>
</g>
<!-- 140&#45;&gt;156 -->
<g id="edge30" class="edge">
<title>140&#45;&gt;156</title>
<path fill="none" stroke="black" d="M1302.69,-71.76C1306.04,-63.04 1309.51,-54.04 1312.61,-45.99"/>
<polygon fill="black" stroke="black" points="1315.97,-46.99 1316.3,-36.41 1309.44,-44.48 1315.97,-46.99"/>
</g>
</g>
</svg>
