<?xml version="1.0" encoding="UTF-8" standalone="no"?>
<!DOCTYPE svg PUBLIC "-//W3C//DTD SVG 1.1//EN"
 "http://www.w3.org/Graphics/SVG/1.1/DTD/svg11.dtd">
<!-- Generated by graphviz version 2.43.0 (0)
 -->
<!-- Title: Tree Pages: 1 -->
<svg width="701pt" height="520pt"
 viewBox="0.00 0.00 700.50 520.00" xmlns="http://www.w3.org/2000/svg" xmlns:xlink="http://www.w3.org/1999/xlink">
<g id="graph0" class="graph" transform="scale(1 1) rotate(0) translate(4 516)">
<title>Tree</title>
<polygon fill="white" stroke="transparent" points="-4,4 -4,-516 696.5,-516 696.5,4 -4,4"/>
<!-- 0 -->
<g id="node1" class="node">
<title>0</title>
<polygon fill="#ffffff" stroke="black" points="339.5,-512 172.5,-512 172.5,-429 339.5,-429 339.5,-512"/>
<text text-anchor="middle" x="256" y="-496.8" font-family="Times,serif" font-size="14.00">sdComp &lt;= 0.065</text>
<text text-anchor="middle" x="256" y="-481.8" font-family="Times,serif" font-size="14.00">gini = 0.5</text>
<text text-anchor="middle" x="256" y="-466.8" font-family="Times,serif" font-size="14.00">samples = 8416</text>
<text text-anchor="middle" x="256" y="-451.8" font-family="Times,serif" font-size="14.00">value = [4208, 4208]</text>
<text text-anchor="middle" x="256" y="-436.8" font-family="Times,serif" font-size="14.00">class = False</text>
</g>
<!-- 1 -->
<g id="node2" class="node">
<title>1</title>
<polygon fill="#ffffff" stroke="black" points="233.5,-385.5 120.5,-385.5 120.5,-317.5 233.5,-317.5 233.5,-385.5"/>
<text text-anchor="middle" x="177" y="-370.3" font-family="Times,serif" font-size="14.00">gini = 0.5</text>
<text text-anchor="middle" x="177" y="-355.3" font-family="Times,serif" font-size="14.00">samples = 2</text>
<text text-anchor="middle" x="177" y="-340.3" font-family="Times,serif" font-size="14.00">value = [1, 1]</text>
<text text-anchor="middle" x="177" y="-325.3" font-family="Times,serif" font-size="14.00">class = False</text>
</g>
<!-- 0&#45;&gt;1 -->
<g id="edge1" class="edge">
<title>0&#45;&gt;1</title>
<path fill="none" stroke="black" d="M228.59,-428.91C220.99,-417.65 212.73,-405.42 205.09,-394.11"/>
<polygon fill="black" stroke="black" points="207.89,-392 199.39,-385.67 202.09,-395.91 207.89,-392"/>
<text text-anchor="middle" x="194.64" y="-406.51" font-family="Times,serif" font-size="14.00">True</text>
</g>
<!-- 2 -->
<g id="node3" class="node">
<title>2</title>
<polygon fill="#ffffff" stroke="black" points="418.5,-393 251.5,-393 251.5,-310 418.5,-310 418.5,-393"/>
<text text-anchor="middle" x="335" y="-377.8" font-family="Times,serif" font-size="14.00">graphDepth &lt;= 3.5</text>
<text text-anchor="middle" x="335" y="-362.8" font-family="Times,serif" font-size="14.00">gini = 0.5</text>
<text text-anchor="middle" x="335" y="-347.8" font-family="Times,serif" font-size="14.00">samples = 8414</text>
<text text-anchor="middle" x="335" y="-332.8" font-family="Times,serif" font-size="14.00">value = [4207, 4207]</text>
<text text-anchor="middle" x="335" y="-317.8" font-family="Times,serif" font-size="14.00">class = False</text>
</g>
<!-- 0&#45;&gt;2 -->
<g id="edge2" class="edge">
<title>0&#45;&gt;2</title>
<path fill="none" stroke="black" d="M283.41,-428.91C289.41,-420.01 295.83,-410.51 302.03,-401.33"/>
<polygon fill="black" stroke="black" points="304.94,-403.27 307.64,-393.02 299.14,-399.35 304.94,-403.27"/>
<text text-anchor="middle" x="312.4" y="-413.86" font-family="Times,serif" font-size="14.00">False</text>
</g>
<!-- 3 -->
<g id="node4" class="node">
<title>3</title>
<polygon fill="#ffffff" stroke="black" points="320.5,-274 171.5,-274 171.5,-191 320.5,-191 320.5,-274"/>
<text text-anchor="middle" x="246" y="-258.8" font-family="Times,serif" font-size="14.00">nbproc &lt;= 4.5</text>
<text text-anchor="middle" x="246" y="-243.8" font-family="Times,serif" font-size="14.00">gini = 0.5</text>
<text text-anchor="middle" x="246" y="-228.8" font-family="Times,serif" font-size="14.00">samples = 1426</text>
<text text-anchor="middle" x="246" y="-213.8" font-family="Times,serif" font-size="14.00">value = [713, 713]</text>
<text text-anchor="middle" x="246" y="-198.8" font-family="Times,serif" font-size="14.00">class = False</text>
</g>
<!-- 2&#45;&gt;3 -->
<g id="edge3" class="edge">
<title>2&#45;&gt;3</title>
<path fill="none" stroke="black" d="M304.12,-309.91C297.29,-300.92 289.98,-291.32 282.93,-282.05"/>
<polygon fill="black" stroke="black" points="285.66,-279.86 276.82,-274.02 280.09,-284.1 285.66,-279.86"/>
</g>
<!-- 32 -->
<g id="node11" class="node">
<title>32</title>
<polygon fill="#ffffff" stroke="black" points="507.5,-274 340.5,-274 340.5,-191 507.5,-191 507.5,-274"/>
<text text-anchor="middle" x="424" y="-258.8" font-family="Times,serif" font-size="14.00">nbproc &lt;= 4.5</text>
<text text-anchor="middle" x="424" y="-243.8" font-family="Times,serif" font-size="14.00">gini = 0.5</text>
<text text-anchor="middle" x="424" y="-228.8" font-family="Times,serif" font-size="14.00">samples = 6988</text>
<text text-anchor="middle" x="424" y="-213.8" font-family="Times,serif" font-size="14.00">value = [3494, 3494]</text>
<text text-anchor="middle" x="424" y="-198.8" font-family="Times,serif" font-size="14.00">class = False</text>
</g>
<!-- 2&#45;&gt;32 -->
<g id="edge10" class="edge">
<title>2&#45;&gt;32</title>
<path fill="none" stroke="black" d="M365.88,-309.91C372.71,-300.92 380.02,-291.32 387.07,-282.05"/>
<polygon fill="black" stroke="black" points="389.91,-284.1 393.18,-274.02 384.34,-279.86 389.91,-284.1"/>
</g>
<!-- 4 -->
<g id="node5" class="node">
<title>4</title>
<polygon fill="#ffffff" stroke="black" points="152,-155 0,-155 0,-72 152,-72 152,-155"/>
<text text-anchor="middle" x="76" y="-139.8" font-family="Times,serif" font-size="14.00">sdComm &lt;= 0.065</text>
<text text-anchor="middle" x="76" y="-124.8" font-family="Times,serif" font-size="14.00">gini = 0.5</text>
<text text-anchor="middle" x="76" y="-109.8" font-family="Times,serif" font-size="14.00">samples = 830</text>
<text text-anchor="middle" x="76" y="-94.8" font-family="Times,serif" font-size="14.00">value = [415, 415]</text>
<text text-anchor="middle" x="76" y="-79.8" font-family="Times,serif" font-size="14.00">class = False</text>
</g>
<!-- 3&#45;&gt;4 -->
<g id="edge4" class="edge">
<title>3&#45;&gt;4</title>
<path fill="none" stroke="black" d="M187.02,-190.91C172.91,-181.2 157.74,-170.76 143.29,-160.81"/>
<polygon fill="black" stroke="black" points="145.1,-157.81 134.88,-155.02 141.13,-163.57 145.1,-157.81"/>
</g>
<!-- 23 -->
<g id="node8" class="node">
<title>23</title>
<polygon fill="#ffffff" stroke="black" points="322,-155 170,-155 170,-72 322,-72 322,-155"/>
<text text-anchor="middle" x="246" y="-139.8" font-family="Times,serif" font-size="14.00">sdComm &lt;= 0.065</text>
<text text-anchor="middle" x="246" y="-124.8" font-family="Times,serif" font-size="14.00">gini = 0.5</text>
<text text-anchor="middle" x="246" y="-109.8" font-family="Times,serif" font-size="14.00">samples = 596</text>
<text text-anchor="middle" x="246" y="-94.8" font-family="Times,serif" font-size="14.00">value = [298, 298]</text>
<text text-anchor="middle" x="246" y="-79.8" font-family="Times,serif" font-size="14.00">class = False</text>
</g>
<!-- 3&#45;&gt;23 -->
<g id="edge7" class="edge">
<title>3&#45;&gt;23</title>
<path fill="none" stroke="black" d="M246,-190.91C246,-182.65 246,-173.86 246,-165.3"/>
<polygon fill="black" stroke="black" points="249.5,-165.02 246,-155.02 242.5,-165.02 249.5,-165.02"/>
</g>
<!-- 5 -->
<g id="node6" class="node">
<title>5</title>
<polygon fill="#c0c0c0" stroke="black" points="67,-36 13,-36 13,0 67,0 67,-36"/>
<text text-anchor="middle" x="40" y="-14.3" font-family="Times,serif" font-size="14.00">(...)</text>
</g>
<!-- 4&#45;&gt;5 -->
<g id="edge5" class="edge">
<title>4&#45;&gt;5</title>
<path fill="none" stroke="black" d="M60.31,-71.76C56.96,-63.04 53.49,-54.04 50.39,-45.99"/>
<polygon fill="black" stroke="black" points="53.56,-44.48 46.7,-36.41 47.03,-46.99 53.56,-44.48"/>
</g>
<!-- 6 -->
<g id="node7" class="node">
<title>6</title>
<polygon fill="#c0c0c0" stroke="black" points="139,-36 85,-36 85,0 139,0 139,-36"/>
<text text-anchor="middle" x="112" y="-14.3" font-family="Times,serif" font-size="14.00">(...)</text>
</g>
<!-- 4&#45;&gt;6 -->
<g id="edge6" class="edge">
<title>4&#45;&gt;6</title>
<path fill="none" stroke="black" d="M91.69,-71.76C95.04,-63.04 98.51,-54.04 101.61,-45.99"/>
<polygon fill="black" stroke="black" points="104.97,-46.99 105.3,-36.41 98.44,-44.48 104.97,-46.99"/>
</g>
<!-- 24 -->
<g id="node9" class="node">
<title>24</title>
<polygon fill="#c0c0c0" stroke="black" points="242,-36 188,-36 188,0 242,0 242,-36"/>
<text text-anchor="middle" x="215" y="-14.3" font-family="Times,serif" font-size="14.00">(...)</text>
</g>
<!-- 23&#45;&gt;24 -->
<g id="edge8" class="edge">
<title>23&#45;&gt;24</title>
<path fill="none" stroke="black" d="M232.49,-71.76C229.6,-63.04 226.62,-54.04 223.95,-45.99"/>
<polygon fill="black" stroke="black" points="227.24,-44.8 220.77,-36.41 220.6,-47 227.24,-44.8"/>
</g>
<!-- 25 -->
<g id="node10" class="node">
<title>25</title>
<polygon fill="#c0c0c0" stroke="black" points="314,-36 260,-36 260,0 314,0 314,-36"/>
<text text-anchor="middle" x="287" y="-14.3" font-family="Times,serif" font-size="14.00">(...)</text>
</g>
<!-- 23&#45;&gt;25 -->
<g id="edge9" class="edge">
<title>23&#45;&gt;25</title>
<path fill="none" stroke="black" d="M263.86,-71.76C267.73,-62.94 271.72,-53.84 275.28,-45.72"/>
<polygon fill="black" stroke="black" points="278.56,-46.97 279.37,-36.41 272.15,-44.16 278.56,-46.97"/>
</g>
<!-- 33 -->
<g id="node12" class="node">
<title>33</title>
<polygon fill="#ffffff" stroke="black" points="507.5,-155 340.5,-155 340.5,-72 507.5,-72 507.5,-155"/>
<text text-anchor="middle" x="424" y="-139.8" font-family="Times,serif" font-size="14.00">CCR &lt;= 5.05</text>
<text text-anchor="middle" x="424" y="-124.8" font-family="Times,serif" font-size="14.00">gini = 0.5</text>
<text text-anchor="middle" x="424" y="-109.8" font-family="Times,serif" font-size="14.00">samples = 3572</text>
<text text-anchor="middle" x="424" y="-94.8" font-family="Times,serif" font-size="14.00">value = [1786, 1786]</text>
<text text-anchor="middle" x="424" y="-79.8" font-family="Times,serif" font-size="14.00">class = False</text>
</g>
<!-- 32&#45;&gt;33 -->
<g id="edge11" class="edge">
<title>32&#45;&gt;33</title>
<path fill="none" stroke="black" d="M424,-190.91C424,-182.65 424,-173.86 424,-165.3"/>
<polygon fill="black" stroke="black" points="427.5,-165.02 424,-155.02 420.5,-165.02 427.5,-165.02"/>
</g>
<!-- 102 -->
<g id="node15" class="node">
<title>102</title>
<polygon fill="#ffffff" stroke="black" points="692.5,-155 525.5,-155 525.5,-72 692.5,-72 692.5,-155"/>
<text text-anchor="middle" x="609" y="-139.8" font-family="Times,serif" font-size="14.00">graphDepth &lt;= 6.5</text>
<text text-anchor="middle" x="609" y="-124.8" font-family="Times,serif" font-size="14.00">gini = 0.5</text>
<text text-anchor="middle" x="609" y="-109.8" font-family="Times,serif" font-size="14.00">samples = 3416</text>
<text text-anchor="middle" x="609" y="-94.8" font-family="Times,serif" font-size="14.00">value = [1708, 1708]</text>
<text text-anchor="middle" x="609" y="-79.8" font-family="Times,serif" font-size="14.00">class = False</text>
</g>
<!-- 32&#45;&gt;102 -->
<g id="edge14" class="edge">
<title>32&#45;&gt;102</title>
<path fill="none" stroke="black" d="M488.18,-190.91C503.68,-181.11 520.35,-170.56 536.21,-160.53"/>
<polygon fill="black" stroke="black" points="538.35,-163.32 544.93,-155.02 534.61,-157.41 538.35,-163.32"/>
</g>
<!-- 34 -->
<g id="node13" class="node">
<title>34</title>
<polygon fill="#c0c0c0" stroke="black" points="427,-36 373,-36 373,0 427,0 427,-36"/>
<text text-anchor="middle" x="400" y="-14.3" font-family="Times,serif" font-size="14.00">(...)</text>
</g>
<!-- 33&#45;&gt;34 -->
<g id="edge12" class="edge">
<title>33&#45;&gt;34</title>
<path fill="none" stroke="black" d="M413.54,-71.76C411.33,-63.14 409.05,-54.24 407,-46.26"/>
<polygon fill="black" stroke="black" points="410.34,-45.22 404.47,-36.41 403.56,-46.96 410.34,-45.22"/>
</g>
<!-- 39 -->
<g id="node14" class="node">
<title>39</title>
<polygon fill="#c0c0c0" stroke="black" points="499,-36 445,-36 445,0 499,0 499,-36"/>
<text text-anchor="middle" x="472" y="-14.3" font-family="Times,serif" font-size="14.00">(...)</text>
</g>
<!-- 33&#45;&gt;39 -->
<g id="edge13" class="edge">
<title>33&#45;&gt;39</title>
<path fill="none" stroke="black" d="M444.91,-71.76C449.49,-62.85 454.22,-53.64 458.42,-45.46"/>
<polygon fill="black" stroke="black" points="461.61,-46.9 463.06,-36.41 455.38,-43.7 461.61,-46.9"/>
</g>
<!-- 103 -->
<g id="node16" class="node">
<title>103</title>
<polygon fill="#c0c0c0" stroke="black" points="588,-36 534,-36 534,0 588,0 588,-36"/>
<text text-anchor="middle" x="561" y="-14.3" font-family="Times,serif" font-size="14.00">(...)</text>
</g>
<!-- 102&#45;&gt;103 -->
<g id="edge15" class="edge">
<title>102&#45;&gt;103</title>
<path fill="none" stroke="black" d="M588.09,-71.76C583.51,-62.85 578.78,-53.64 574.58,-45.46"/>
<polygon fill="black" stroke="black" points="577.62,-43.7 569.94,-36.41 571.39,-46.9 577.62,-43.7"/>
</g>
<!-- 124 -->
<g id="node17" class="node">
<title>124</title>
<polygon fill="#c0c0c0" stroke="black" points="660,-36 606,-36 606,0 660,0 660,-36"/>
<text text-anchor="middle" x="633" y="-14.3" font-family="Times,serif" font-size="14.00">(...)</text>
</g>
<!-- 102&#45;&gt;124 -->
<g id="edge16" class="edge">
<title>102&#45;&gt;124</title>
<path fill="none" stroke="black" d="M619.46,-71.76C621.67,-63.14 623.95,-54.24 626,-46.26"/>
<polygon fill="black" stroke="black" points="629.44,-46.96 628.53,-36.41 622.66,-45.22 629.44,-46.96"/>
</g>
</g>
</svg>
