<?xml version="1.0" encoding="UTF-8" standalone="no"?>
<!DOCTYPE svg PUBLIC "-//W3C//DTD SVG 1.1//EN"
 "http://www.w3.org/Graphics/SVG/1.1/DTD/svg11.dtd">
<!-- Generated by graphviz version 2.43.0 (0)
 -->
<!-- Title: Tree Pages: 1 -->
<svg width="2110pt" height="520pt"
 viewBox="0.00 0.00 2109.50 520.00" xmlns="http://www.w3.org/2000/svg" xmlns:xlink="http://www.w3.org/1999/xlink">
<g id="graph0" class="graph" transform="scale(1 1) rotate(0) translate(4 516)">
<title>Tree</title>
<polygon fill="white" stroke="transparent" points="-4,4 -4,-516 2105.5,-516 2105.5,4 -4,4"/>
<!-- 0 -->
<g id="node1" class="node">
<title>0</title>
<polygon fill="#fefbf9" stroke="black" points="1161,-512 814,-512 814,-429 1161,-429 1161,-512"/>
<text text-anchor="middle" x="987.5" y="-496.8" font-family="Times,serif" font-size="14.00">sdComm &lt;= 0.065</text>
<text text-anchor="middle" x="987.5" y="-481.8" font-family="Times,serif" font-size="14.00">gini = 0.832</text>
<text text-anchor="middle" x="987.5" y="-466.8" font-family="Times,serif" font-size="14.00">samples = 8416</text>
<text text-anchor="middle" x="987.5" y="-451.8" font-family="Times,serif" font-size="14.00">value = [1624, 1400, 1376, 1320, 1320, 1376]</text>
<text text-anchor="middle" x="987.5" y="-436.8" font-family="Times,serif" font-size="14.00">class = mean</text>
</g>
<!-- 1 -->
<g id="node2" class="node">
<title>1</title>
<polygon fill="#fefffd" stroke="black" points="868,-393 575,-393 575,-310 868,-310 868,-393"/>
<text text-anchor="middle" x="721.5" y="-377.8" font-family="Times,serif" font-size="14.00">graphDepth &lt;= 3.5</text>
<text text-anchor="middle" x="721.5" y="-362.8" font-family="Times,serif" font-size="14.00">gini = 0.832</text>
<text text-anchor="middle" x="721.5" y="-347.8" font-family="Times,serif" font-size="14.00">samples = 1418</text>
<text text-anchor="middle" x="721.5" y="-332.8" font-family="Times,serif" font-size="14.00">value = [230, 260, 216, 248, 248, 216]</text>
<text text-anchor="middle" x="721.5" y="-317.8" font-family="Times,serif" font-size="14.00">class = median</text>
</g>
<!-- 0&#45;&gt;1 -->
<g id="edge1" class="edge">
<title>0&#45;&gt;1</title>
<path fill="none" stroke="black" d="M895.21,-428.91C871.9,-418.65 846.74,-407.59 823,-397.14"/>
<polygon fill="black" stroke="black" points="824.19,-393.84 813.62,-393.02 821.37,-400.25 824.19,-393.84"/>
<text text-anchor="middle" x="822.69" y="-412.62" font-family="Times,serif" font-size="14.00">True</text>
</g>
<!-- 16 -->
<g id="node13" class="node">
<title>16</title>
<polygon fill="#fefaf7" stroke="black" points="1424,-393 1077,-393 1077,-310 1424,-310 1424,-393"/>
<text text-anchor="middle" x="1250.5" y="-377.8" font-family="Times,serif" font-size="14.00">CCR &lt;= 0.55</text>
<text text-anchor="middle" x="1250.5" y="-362.8" font-family="Times,serif" font-size="14.00">gini = 0.832</text>
<text text-anchor="middle" x="1250.5" y="-347.8" font-family="Times,serif" font-size="14.00">samples = 6998</text>
<text text-anchor="middle" x="1250.5" y="-332.8" font-family="Times,serif" font-size="14.00">value = [1394, 1140, 1160, 1072, 1072, 1160]</text>
<text text-anchor="middle" x="1250.5" y="-317.8" font-family="Times,serif" font-size="14.00">class = mean</text>
</g>
<!-- 0&#45;&gt;16 -->
<g id="edge12" class="edge">
<title>0&#45;&gt;16</title>
<path fill="none" stroke="black" d="M1078.75,-428.91C1101.8,-418.65 1126.68,-407.59 1150.15,-397.14"/>
<polygon fill="black" stroke="black" points="1151.7,-400.28 1159.41,-393.02 1148.86,-393.89 1151.7,-400.28"/>
<text text-anchor="middle" x="1150.45" y="-412.66" font-family="Times,serif" font-size="14.00">False</text>
</g>
<!-- 2 -->
<g id="node3" class="node">
<title>2</title>
<polygon fill="#e4f8c9" stroke="black" points="460,-274 221,-274 221,-191 460,-191 460,-274"/>
<text text-anchor="middle" x="340.5" y="-258.8" font-family="Times,serif" font-size="14.00">nbproc &lt;= 4.5</text>
<text text-anchor="middle" x="340.5" y="-243.8" font-family="Times,serif" font-size="14.00">gini = 0.778</text>
<text text-anchor="middle" x="340.5" y="-228.8" font-family="Times,serif" font-size="14.00">samples = 222</text>
<text text-anchor="middle" x="340.5" y="-213.8" font-family="Times,serif" font-size="14.00">value = [26, 84, 24, 32, 32, 24]</text>
<text text-anchor="middle" x="340.5" y="-198.8" font-family="Times,serif" font-size="14.00">class = median</text>
</g>
<!-- 1&#45;&gt;2 -->
<g id="edge2" class="edge">
<title>1&#45;&gt;2</title>
<path fill="none" stroke="black" d="M589.58,-309.99C550.83,-298.09 508.5,-285.09 469.91,-273.24"/>
<polygon fill="black" stroke="black" points="470.77,-269.84 460.18,-270.25 468.71,-276.53 470.77,-269.84"/>
</g>
<!-- 7 -->
<g id="node8" class="node">
<title>7</title>
<polygon fill="#ffffff" stroke="black" points="868,-274 575,-274 575,-191 868,-191 868,-274"/>
<text text-anchor="middle" x="721.5" y="-258.8" font-family="Times,serif" font-size="14.00">graphSize &lt;= 22.5</text>
<text text-anchor="middle" x="721.5" y="-243.8" font-family="Times,serif" font-size="14.00">gini = 0.832</text>
<text text-anchor="middle" x="721.5" y="-228.8" font-family="Times,serif" font-size="14.00">samples = 1196</text>
<text text-anchor="middle" x="721.5" y="-213.8" font-family="Times,serif" font-size="14.00">value = [204, 176, 192, 216, 216, 192]</text>
<text text-anchor="middle" x="721.5" y="-198.8" font-family="Times,serif" font-size="14.00">class = minmax</text>
</g>
<!-- 1&#45;&gt;7 -->
<g id="edge7" class="edge">
<title>1&#45;&gt;7</title>
<path fill="none" stroke="black" d="M721.5,-309.91C721.5,-301.65 721.5,-292.86 721.5,-284.3"/>
<polygon fill="black" stroke="black" points="725,-284.02 721.5,-274.02 718,-284.02 725,-284.02"/>
</g>
<!-- 3 -->
<g id="node4" class="node">
<title>3</title>
<polygon fill="#fbfef6" stroke="black" points="203,-155 0,-155 0,-72 203,-72 203,-155"/>
<text text-anchor="middle" x="101.5" y="-139.8" font-family="Times,serif" font-size="14.00">sdComm &lt;= 0.02</text>
<text text-anchor="middle" x="101.5" y="-124.8" font-family="Times,serif" font-size="14.00">gini = 0.829</text>
<text text-anchor="middle" x="101.5" y="-109.8" font-family="Times,serif" font-size="14.00">samples = 54</text>
<text text-anchor="middle" x="101.5" y="-94.8" font-family="Times,serif" font-size="14.00">value = [10, 12, 8, 8, 8, 8]</text>
<text text-anchor="middle" x="101.5" y="-79.8" font-family="Times,serif" font-size="14.00">class = median</text>
</g>
<!-- 2&#45;&gt;3 -->
<g id="edge3" class="edge">
<title>2&#45;&gt;3</title>
<path fill="none" stroke="black" d="M257.58,-190.91C236.82,-180.74 214.42,-169.78 193.26,-159.42"/>
<polygon fill="black" stroke="black" points="194.79,-156.27 184.27,-155.02 191.72,-162.56 194.79,-156.27"/>
</g>
<!-- 6 -->
<g id="node7" class="node">
<title>6</title>
<polygon fill="#def6bd" stroke="black" points="460,-147.5 221,-147.5 221,-79.5 460,-79.5 460,-147.5"/>
<text text-anchor="middle" x="340.5" y="-132.3" font-family="Times,serif" font-size="14.00">gini = 0.748</text>
<text text-anchor="middle" x="340.5" y="-117.3" font-family="Times,serif" font-size="14.00">samples = 168</text>
<text text-anchor="middle" x="340.5" y="-102.3" font-family="Times,serif" font-size="14.00">value = [16, 72, 16, 24, 24, 16]</text>
<text text-anchor="middle" x="340.5" y="-87.3" font-family="Times,serif" font-size="14.00">class = median</text>
</g>
<!-- 2&#45;&gt;6 -->
<g id="edge6" class="edge">
<title>2&#45;&gt;6</title>
<path fill="none" stroke="black" d="M340.5,-190.91C340.5,-180.2 340.5,-168.62 340.5,-157.78"/>
<polygon fill="black" stroke="black" points="344,-157.67 340.5,-147.67 337,-157.67 344,-157.67"/>
</g>
<!-- 4 -->
<g id="node5" class="node">
<title>4</title>
<polygon fill="#c0c0c0" stroke="black" points="92.5,-36 38.5,-36 38.5,0 92.5,0 92.5,-36"/>
<text text-anchor="middle" x="65.5" y="-14.3" font-family="Times,serif" font-size="14.00">(...)</text>
</g>
<!-- 3&#45;&gt;4 -->
<g id="edge4" class="edge">
<title>3&#45;&gt;4</title>
<path fill="none" stroke="black" d="M85.81,-71.76C82.46,-63.04 78.99,-54.04 75.89,-45.99"/>
<polygon fill="black" stroke="black" points="79.06,-44.48 72.2,-36.41 72.53,-46.99 79.06,-44.48"/>
</g>
<!-- 5 -->
<g id="node6" class="node">
<title>5</title>
<polygon fill="#c0c0c0" stroke="black" points="164.5,-36 110.5,-36 110.5,0 164.5,0 164.5,-36"/>
<text text-anchor="middle" x="137.5" y="-14.3" font-family="Times,serif" font-size="14.00">(...)</text>
</g>
<!-- 3&#45;&gt;5 -->
<g id="edge5" class="edge">
<title>3&#45;&gt;5</title>
<path fill="none" stroke="black" d="M117.19,-71.76C120.54,-63.04 124.01,-54.04 127.11,-45.99"/>
<polygon fill="black" stroke="black" points="130.47,-46.99 130.8,-36.41 123.94,-44.48 130.47,-46.99"/>
</g>
<!-- 8 -->
<g id="node9" class="node">
<title>8</title>
<polygon fill="#ffffff" stroke="black" points="771,-155 478,-155 478,-72 771,-72 771,-155"/>
<text text-anchor="middle" x="624.5" y="-139.8" font-family="Times,serif" font-size="14.00">sdComm &lt;= 0.02</text>
<text text-anchor="middle" x="624.5" y="-124.8" font-family="Times,serif" font-size="14.00">gini = 0.833</text>
<text text-anchor="middle" x="624.5" y="-109.8" font-family="Times,serif" font-size="14.00">samples = 1172</text>
<text text-anchor="middle" x="624.5" y="-94.8" font-family="Times,serif" font-size="14.00">value = [204, 176, 192, 204, 204, 192]</text>
<text text-anchor="middle" x="624.5" y="-79.8" font-family="Times,serif" font-size="14.00">class = mean</text>
</g>
<!-- 7&#45;&gt;8 -->
<g id="edge8" class="edge">
<title>7&#45;&gt;8</title>
<path fill="none" stroke="black" d="M687.85,-190.91C680.32,-181.83 672.27,-172.12 664.52,-162.77"/>
<polygon fill="black" stroke="black" points="667.17,-160.49 658.09,-155.02 661.78,-164.95 667.17,-160.49"/>
</g>
<!-- 15 -->
<g id="node12" class="node">
<title>15</title>
<polygon fill="#ffffff" stroke="black" points="992,-147.5 789,-147.5 789,-79.5 992,-79.5 992,-147.5"/>
<text text-anchor="middle" x="890.5" y="-132.3" font-family="Times,serif" font-size="14.00">gini = 0.5</text>
<text text-anchor="middle" x="890.5" y="-117.3" font-family="Times,serif" font-size="14.00">samples = 24</text>
<text text-anchor="middle" x="890.5" y="-102.3" font-family="Times,serif" font-size="14.00">value = [0, 0, 0, 12, 12, 0]</text>
<text text-anchor="middle" x="890.5" y="-87.3" font-family="Times,serif" font-size="14.00">class = minmax</text>
</g>
<!-- 7&#45;&gt;15 -->
<g id="edge11" class="edge">
<title>7&#45;&gt;15</title>
<path fill="none" stroke="black" d="M780.13,-190.91C797.67,-178.77 816.84,-165.49 834.22,-153.46"/>
<polygon fill="black" stroke="black" points="836.36,-156.24 842.59,-147.67 832.38,-150.48 836.36,-156.24"/>
</g>
<!-- 9 -->
<g id="node10" class="node">
<title>9</title>
<polygon fill="#c0c0c0" stroke="black" points="615.5,-36 561.5,-36 561.5,0 615.5,0 615.5,-36"/>
<text text-anchor="middle" x="588.5" y="-14.3" font-family="Times,serif" font-size="14.00">(...)</text>
</g>
<!-- 8&#45;&gt;9 -->
<g id="edge9" class="edge">
<title>8&#45;&gt;9</title>
<path fill="none" stroke="black" d="M608.81,-71.76C605.46,-63.04 601.99,-54.04 598.89,-45.99"/>
<polygon fill="black" stroke="black" points="602.06,-44.48 595.2,-36.41 595.53,-46.99 602.06,-44.48"/>
</g>
<!-- 12 -->
<g id="node11" class="node">
<title>12</title>
<polygon fill="#c0c0c0" stroke="black" points="687.5,-36 633.5,-36 633.5,0 687.5,0 687.5,-36"/>
<text text-anchor="middle" x="660.5" y="-14.3" font-family="Times,serif" font-size="14.00">(...)</text>
</g>
<!-- 8&#45;&gt;12 -->
<g id="edge10" class="edge">
<title>8&#45;&gt;12</title>
<path fill="none" stroke="black" d="M640.19,-71.76C643.54,-63.04 647.01,-54.04 650.11,-45.99"/>
<polygon fill="black" stroke="black" points="653.47,-46.99 653.8,-36.41 646.94,-44.48 653.47,-46.99"/>
</g>
<!-- 17 -->
<g id="node14" class="node">
<title>17</title>
<polygon fill="#ffffff" stroke="black" points="1397,-274 1104,-274 1104,-191 1397,-191 1397,-274"/>
<text text-anchor="middle" x="1250.5" y="-258.8" font-family="Times,serif" font-size="14.00">graphSize &lt;= 22.5</text>
<text text-anchor="middle" x="1250.5" y="-243.8" font-family="Times,serif" font-size="14.00">gini = 0.826</text>
<text text-anchor="middle" x="1250.5" y="-228.8" font-family="Times,serif" font-size="14.00">samples = 1028</text>
<text text-anchor="middle" x="1250.5" y="-213.8" font-family="Times,serif" font-size="14.00">value = [202, 178, 202, 122, 122, 202]</text>
<text text-anchor="middle" x="1250.5" y="-198.8" font-family="Times,serif" font-size="14.00">class = mean</text>
</g>
<!-- 16&#45;&gt;17 -->
<g id="edge13" class="edge">
<title>16&#45;&gt;17</title>
<path fill="none" stroke="black" d="M1250.5,-309.91C1250.5,-301.65 1250.5,-292.86 1250.5,-284.3"/>
<polygon fill="black" stroke="black" points="1254,-284.02 1250.5,-274.02 1247,-284.02 1254,-284.02"/>
</g>
<!-- 26 -->
<g id="node19" class="node">
<title>26</title>
<polygon fill="#fef9f6" stroke="black" points="1812.5,-274 1510.5,-274 1510.5,-191 1812.5,-191 1812.5,-274"/>
<text text-anchor="middle" x="1661.5" y="-258.8" font-family="Times,serif" font-size="14.00">sdComm &lt;= 0.65</text>
<text text-anchor="middle" x="1661.5" y="-243.8" font-family="Times,serif" font-size="14.00">gini = 0.832</text>
<text text-anchor="middle" x="1661.5" y="-228.8" font-family="Times,serif" font-size="14.00">samples = 5970</text>
<text text-anchor="middle" x="1661.5" y="-213.8" font-family="Times,serif" font-size="14.00">value = [1192, 962, 958, 950, 950, 958]</text>
<text text-anchor="middle" x="1661.5" y="-198.8" font-family="Times,serif" font-size="14.00">class = mean</text>
</g>
<!-- 16&#45;&gt;26 -->
<g id="edge18" class="edge">
<title>16&#45;&gt;26</title>
<path fill="none" stroke="black" d="M1392.81,-309.99C1430.44,-299.28 1471.2,-287.67 1509.33,-276.82"/>
<polygon fill="black" stroke="black" points="1510.31,-280.18 1518.97,-274.07 1508.39,-273.45 1510.31,-280.18"/>
</g>
<!-- 18 -->
<g id="node15" class="node">
<title>18</title>
<polygon fill="#fefcfa" stroke="black" points="1303,-155 1010,-155 1010,-72 1303,-72 1303,-155"/>
<text text-anchor="middle" x="1156.5" y="-139.8" font-family="Times,serif" font-size="14.00">graphDepth &lt;= 3.5</text>
<text text-anchor="middle" x="1156.5" y="-124.8" font-family="Times,serif" font-size="14.00">gini = 0.828</text>
<text text-anchor="middle" x="1156.5" y="-109.8" font-family="Times,serif" font-size="14.00">samples = 968</text>
<text text-anchor="middle" x="1156.5" y="-94.8" font-family="Times,serif" font-size="14.00">value = [198, 170, 178, 122, 122, 178]</text>
<text text-anchor="middle" x="1156.5" y="-79.8" font-family="Times,serif" font-size="14.00">class = mean</text>
</g>
<!-- 17&#45;&gt;18 -->
<g id="edge14" class="edge">
<title>17&#45;&gt;18</title>
<path fill="none" stroke="black" d="M1217.89,-190.91C1210.67,-181.92 1202.95,-172.32 1195.51,-163.05"/>
<polygon fill="black" stroke="black" points="1198.05,-160.62 1189.06,-155.02 1192.59,-165.01 1198.05,-160.62"/>
</g>
<!-- 25 -->
<g id="node18" class="node">
<title>25</title>
<polygon fill="#ffffff" stroke="black" points="1524,-147.5 1321,-147.5 1321,-79.5 1524,-79.5 1524,-147.5"/>
<text text-anchor="middle" x="1422.5" y="-132.3" font-family="Times,serif" font-size="14.00">gini = 0.658</text>
<text text-anchor="middle" x="1422.5" y="-117.3" font-family="Times,serif" font-size="14.00">samples = 60</text>
<text text-anchor="middle" x="1422.5" y="-102.3" font-family="Times,serif" font-size="14.00">value = [4, 8, 24, 0, 0, 24]</text>
<text text-anchor="middle" x="1422.5" y="-87.3" font-family="Times,serif" font-size="14.00">class = maxmax</text>
</g>
<!-- 17&#45;&gt;25 -->
<g id="edge17" class="edge">
<title>17&#45;&gt;25</title>
<path fill="none" stroke="black" d="M1310.17,-190.91C1328.02,-178.77 1347.54,-165.49 1365.22,-153.46"/>
<polygon fill="black" stroke="black" points="1367.44,-156.19 1373.74,-147.67 1363.5,-150.4 1367.44,-156.19"/>
</g>
<!-- 19 -->
<g id="node16" class="node">
<title>19</title>
<polygon fill="#c0c0c0" stroke="black" points="1147.5,-36 1093.5,-36 1093.5,0 1147.5,0 1147.5,-36"/>
<text text-anchor="middle" x="1120.5" y="-14.3" font-family="Times,serif" font-size="14.00">(...)</text>
</g>
<!-- 18&#45;&gt;19 -->
<g id="edge15" class="edge">
<title>18&#45;&gt;19</title>
<path fill="none" stroke="black" d="M1140.81,-71.76C1137.46,-63.04 1133.99,-54.04 1130.89,-45.99"/>
<polygon fill="black" stroke="black" points="1134.06,-44.48 1127.2,-36.41 1127.53,-46.99 1134.06,-44.48"/>
</g>
<!-- 22 -->
<g id="node17" class="node">
<title>22</title>
<polygon fill="#c0c0c0" stroke="black" points="1219.5,-36 1165.5,-36 1165.5,0 1219.5,0 1219.5,-36"/>
<text text-anchor="middle" x="1192.5" y="-14.3" font-family="Times,serif" font-size="14.00">(...)</text>
</g>
<!-- 18&#45;&gt;22 -->
<g id="edge16" class="edge">
<title>18&#45;&gt;22</title>
<path fill="none" stroke="black" d="M1172.19,-71.76C1175.54,-63.04 1179.01,-54.04 1182.11,-45.99"/>
<polygon fill="black" stroke="black" points="1185.47,-46.99 1185.8,-36.41 1178.94,-44.48 1185.47,-46.99"/>
</g>
<!-- 27 -->
<g id="node20" class="node">
<title>27</title>
<polygon fill="#fdf5f0" stroke="black" points="1781,-155 1542,-155 1542,-72 1781,-72 1781,-155"/>
<text text-anchor="middle" x="1661.5" y="-139.8" font-family="Times,serif" font-size="14.00">sdComm &lt;= 0.2</text>
<text text-anchor="middle" x="1661.5" y="-124.8" font-family="Times,serif" font-size="14.00">gini = 0.817</text>
<text text-anchor="middle" x="1661.5" y="-109.8" font-family="Times,serif" font-size="14.00">samples = 320</text>
<text text-anchor="middle" x="1661.5" y="-94.8" font-family="Times,serif" font-size="14.00">value = [80, 56, 32, 60, 60, 32]</text>
<text text-anchor="middle" x="1661.5" y="-79.8" font-family="Times,serif" font-size="14.00">class = mean</text>
</g>
<!-- 26&#45;&gt;27 -->
<g id="edge19" class="edge">
<title>26&#45;&gt;27</title>
<path fill="none" stroke="black" d="M1661.5,-190.91C1661.5,-182.65 1661.5,-173.86 1661.5,-165.3"/>
<polygon fill="black" stroke="black" points="1665,-165.02 1661.5,-155.02 1658,-165.02 1665,-165.02"/>
</g>
<!-- 32 -->
<g id="node23" class="node">
<title>32</title>
<polygon fill="#fefaf7" stroke="black" points="2101.5,-155 1799.5,-155 1799.5,-72 2101.5,-72 2101.5,-155"/>
<text text-anchor="middle" x="1950.5" y="-139.8" font-family="Times,serif" font-size="14.00">graphDepth &lt;= 3.5</text>
<text text-anchor="middle" x="1950.5" y="-124.8" font-family="Times,serif" font-size="14.00">gini = 0.832</text>
<text text-anchor="middle" x="1950.5" y="-109.8" font-family="Times,serif" font-size="14.00">samples = 5650</text>
<text text-anchor="middle" x="1950.5" y="-94.8" font-family="Times,serif" font-size="14.00">value = [1112, 906, 926, 890, 890, 926]</text>
<text text-anchor="middle" x="1950.5" y="-79.8" font-family="Times,serif" font-size="14.00">class = mean</text>
</g>
<!-- 26&#45;&gt;32 -->
<g id="edge22" class="edge">
<title>26&#45;&gt;32</title>
<path fill="none" stroke="black" d="M1761.77,-190.91C1787.32,-180.56 1814.92,-169.39 1840.91,-158.87"/>
<polygon fill="black" stroke="black" points="1842.45,-162.02 1850.41,-155.02 1839.83,-155.53 1842.45,-162.02"/>
</g>
<!-- 28 -->
<g id="node21" class="node">
<title>28</title>
<polygon fill="#c0c0c0" stroke="black" points="1652.5,-36 1598.5,-36 1598.5,0 1652.5,0 1652.5,-36"/>
<text text-anchor="middle" x="1625.5" y="-14.3" font-family="Times,serif" font-size="14.00">(...)</text>
</g>
<!-- 27&#45;&gt;28 -->
<g id="edge20" class="edge">
<title>27&#45;&gt;28</title>
<path fill="none" stroke="black" d="M1645.81,-71.76C1642.46,-63.04 1638.99,-54.04 1635.89,-45.99"/>
<polygon fill="black" stroke="black" points="1639.06,-44.48 1632.2,-36.41 1632.53,-46.99 1639.06,-44.48"/>
</g>
<!-- 29 -->
<g id="node22" class="node">
<title>29</title>
<polygon fill="#c0c0c0" stroke="black" points="1724.5,-36 1670.5,-36 1670.5,0 1724.5,0 1724.5,-36"/>
<text text-anchor="middle" x="1697.5" y="-14.3" font-family="Times,serif" font-size="14.00">(...)</text>
</g>
<!-- 27&#45;&gt;29 -->
<g id="edge21" class="edge">
<title>27&#45;&gt;29</title>
<path fill="none" stroke="black" d="M1677.19,-71.76C1680.54,-63.04 1684.01,-54.04 1687.11,-45.99"/>
<polygon fill="black" stroke="black" points="1690.47,-46.99 1690.8,-36.41 1683.94,-44.48 1690.47,-46.99"/>
</g>
<!-- 33 -->
<g id="node24" class="node">
<title>33</title>
<polygon fill="#c0c0c0" stroke="black" points="1941.5,-36 1887.5,-36 1887.5,0 1941.5,0 1941.5,-36"/>
<text text-anchor="middle" x="1914.5" y="-14.3" font-family="Times,serif" font-size="14.00">(...)</text>
</g>
<!-- 32&#45;&gt;33 -->
<g id="edge23" class="edge">
<title>32&#45;&gt;33</title>
<path fill="none" stroke="black" d="M1934.81,-71.76C1931.46,-63.04 1927.99,-54.04 1924.89,-45.99"/>
<polygon fill="black" stroke="black" points="1928.06,-44.48 1921.2,-36.41 1921.53,-46.99 1928.06,-44.48"/>
</g>
<!-- 48 -->
<g id="node25" class="node">
<title>48</title>
<polygon fill="#c0c0c0" stroke="black" points="2013.5,-36 1959.5,-36 1959.5,0 2013.5,0 2013.5,-36"/>
<text text-anchor="middle" x="1986.5" y="-14.3" font-family="Times,serif" font-size="14.00">(...)</text>
</g>
<!-- 32&#45;&gt;48 -->
<g id="edge24" class="edge">
<title>32&#45;&gt;48</title>
<path fill="none" stroke="black" d="M1966.19,-71.76C1969.54,-63.04 1973.01,-54.04 1976.11,-45.99"/>
<polygon fill="black" stroke="black" points="1979.47,-46.99 1979.8,-36.41 1972.94,-44.48 1979.47,-46.99"/>
</g>
</g>
</svg>
