<?xml version="1.0" encoding="UTF-8" standalone="no"?>
<!DOCTYPE svg PUBLIC "-//W3C//DTD SVG 1.1//EN"
 "http://www.w3.org/Graphics/SVG/1.1/DTD/svg11.dtd">
<!-- Generated by graphviz version 2.43.0 (0)
 -->
<!-- Title: Tree Pages: 1 -->
<svg width="2632pt" height="520pt"
 viewBox="0.00 0.00 2632.00 520.00" xmlns="http://www.w3.org/2000/svg" xmlns:xlink="http://www.w3.org/1999/xlink">
<g id="graph0" class="graph" transform="scale(1 1) rotate(0) translate(4 516)">
<title>Tree</title>
<polygon fill="white" stroke="transparent" points="-4,4 -4,-516 2628,-516 2628,4 -4,4"/>
<!-- 0 -->
<g id="node1" class="node">
<title>0</title>
<polygon fill="#fcebf5" stroke="black" points="1457,-512 1074,-512 1074,-429 1457,-429 1457,-512"/>
<text text-anchor="middle" x="1265.5" y="-496.8" font-family="Times,serif" font-size="14.00">CCR &lt;= 5.5</text>
<text text-anchor="middle" x="1265.5" y="-481.8" font-family="Times,serif" font-size="14.00">gini = 0.79</text>
<text text-anchor="middle" x="1265.5" y="-466.8" font-family="Times,serif" font-size="14.00">samples = 81337</text>
<text text-anchor="middle" x="1265.5" y="-451.8" font-family="Times,serif" font-size="14.00">value = [16693, 5853, 12850, 4264, 17557, 24120]</text>
<text text-anchor="middle" x="1265.5" y="-436.8" font-family="Times,serif" font-size="14.00">class = GDL</text>
</g>
<!-- 1 -->
<g id="node2" class="node">
<title>1</title>
<polygon fill="#f9d1e8" stroke="black" points="1134,-393 769,-393 769,-310 1134,-310 1134,-393"/>
<text text-anchor="middle" x="951.5" y="-377.8" font-family="Times,serif" font-size="14.00">CCR &lt;= 0.55</text>
<text text-anchor="middle" x="951.5" y="-362.8" font-family="Times,serif" font-size="14.00">gini = 0.693</text>
<text text-anchor="middle" x="951.5" y="-347.8" font-family="Times,serif" font-size="14.00">samples = 50129</text>
<text text-anchor="middle" x="951.5" y="-332.8" font-family="Times,serif" font-size="14.00">value = [11967, 2144, 318, 1532, 12775, 21393]</text>
<text text-anchor="middle" x="951.5" y="-317.8" font-family="Times,serif" font-size="14.00">class = GDL</text>
</g>
<!-- 0&#45;&gt;1 -->
<g id="edge1" class="edge">
<title>0&#45;&gt;1</title>
<path fill="none" stroke="black" d="M1156.56,-428.91C1128.55,-418.47 1098.28,-407.19 1069.82,-396.59"/>
<polygon fill="black" stroke="black" points="1070.84,-393.23 1060.25,-393.02 1068.4,-399.79 1070.84,-393.23"/>
<text text-anchor="middle" x="1070.64" y="-412.06" font-family="Times,serif" font-size="14.00">True</text>
</g>
<!-- 570 -->
<g id="node17" class="node">
<title>570</title>
<polygon fill="#c5f7da" stroke="black" points="1785.5,-393 1429.5,-393 1429.5,-310 1785.5,-310 1785.5,-393"/>
<text text-anchor="middle" x="1607.5" y="-377.8" font-family="Times,serif" font-size="14.00">sdComp &lt;= 2.0</text>
<text text-anchor="middle" x="1607.5" y="-362.8" font-family="Times,serif" font-size="14.00">gini = 0.763</text>
<text text-anchor="middle" x="1607.5" y="-347.8" font-family="Times,serif" font-size="14.00">samples = 31208</text>
<text text-anchor="middle" x="1607.5" y="-332.8" font-family="Times,serif" font-size="14.00">value = [4726, 3709, 12532, 2732, 4782, 2727]</text>
<text text-anchor="middle" x="1607.5" y="-317.8" font-family="Times,serif" font-size="14.00">class = OLB</text>
</g>
<!-- 0&#45;&gt;570 -->
<g id="edge16" class="edge">
<title>0&#45;&gt;570</title>
<path fill="none" stroke="black" d="M1384.16,-428.91C1414.93,-418.38 1448.2,-407 1479.43,-396.31"/>
<polygon fill="black" stroke="black" points="1480.73,-399.57 1489.05,-393.02 1478.46,-392.95 1480.73,-399.57"/>
<text text-anchor="middle" x="1478.05" y="-411.77" font-family="Times,serif" font-size="14.00">False</text>
</g>
<!-- 2 -->
<g id="node3" class="node">
<title>2</title>
<polygon fill="#fbdeef" stroke="black" points="644.5,-274 306.5,-274 306.5,-191 644.5,-191 644.5,-274"/>
<text text-anchor="middle" x="475.5" y="-258.8" font-family="Times,serif" font-size="14.00">sdComp &lt;= 0.02</text>
<text text-anchor="middle" x="475.5" y="-243.8" font-family="Times,serif" font-size="14.00">gini = 0.701</text>
<text text-anchor="middle" x="475.5" y="-228.8" font-family="Times,serif" font-size="14.00">samples = 32136</text>
<text text-anchor="middle" x="475.5" y="-213.8" font-family="Times,serif" font-size="14.00">value = [8789, 1111, 98, 1230, 8244, 12664]</text>
<text text-anchor="middle" x="475.5" y="-198.8" font-family="Times,serif" font-size="14.00">class = GDL</text>
</g>
<!-- 1&#45;&gt;2 -->
<g id="edge2" class="edge">
<title>1&#45;&gt;2</title>
<path fill="none" stroke="black" d="M786.69,-309.99C742.64,-299.16 694.89,-287.43 650.33,-276.47"/>
<polygon fill="black" stroke="black" points="651.12,-273.06 640.57,-274.07 649.45,-279.86 651.12,-273.06"/>
</g>
<!-- 285 -->
<g id="node10" class="node">
<title>285</title>
<polygon fill="#f7c1e0" stroke="black" points="1116,-274 787,-274 787,-191 1116,-191 1116,-274"/>
<text text-anchor="middle" x="951.5" y="-258.8" font-family="Times,serif" font-size="14.00">graphSize &lt;= 22.5</text>
<text text-anchor="middle" x="951.5" y="-243.8" font-family="Times,serif" font-size="14.00">gini = 0.666</text>
<text text-anchor="middle" x="951.5" y="-228.8" font-family="Times,serif" font-size="14.00">samples = 17993</text>
<text text-anchor="middle" x="951.5" y="-213.8" font-family="Times,serif" font-size="14.00">value = [3178, 1033, 220, 302, 4531, 8729]</text>
<text text-anchor="middle" x="951.5" y="-198.8" font-family="Times,serif" font-size="14.00">class = GDL</text>
</g>
<!-- 1&#45;&gt;285 -->
<g id="edge9" class="edge">
<title>1&#45;&gt;285</title>
<path fill="none" stroke="black" d="M951.5,-309.91C951.5,-301.65 951.5,-292.86 951.5,-284.3"/>
<polygon fill="black" stroke="black" points="955,-284.02 951.5,-274.02 948,-284.02 955,-284.02"/>
</g>
<!-- 3 -->
<g id="node4" class="node">
<title>3</title>
<polygon fill="#f7c1e0" stroke="black" points="293,-155 0,-155 0,-72 293,-72 293,-155"/>
<text text-anchor="middle" x="146.5" y="-139.8" font-family="Times,serif" font-size="14.00">graphSize &lt;= 75.0</text>
<text text-anchor="middle" x="146.5" y="-124.8" font-family="Times,serif" font-size="14.00">gini = 0.659</text>
<text text-anchor="middle" x="146.5" y="-109.8" font-family="Times,serif" font-size="14.00">samples = 5307</text>
<text text-anchor="middle" x="146.5" y="-94.8" font-family="Times,serif" font-size="14.00">value = [1027, 278, 78, 0, 1342, 2582]</text>
<text text-anchor="middle" x="146.5" y="-79.8" font-family="Times,serif" font-size="14.00">class = GDL</text>
</g>
<!-- 2&#45;&gt;3 -->
<g id="edge3" class="edge">
<title>2&#45;&gt;3</title>
<path fill="none" stroke="black" d="M361.36,-190.91C331.88,-180.43 300.02,-169.1 270.09,-158.45"/>
<polygon fill="black" stroke="black" points="271.04,-155.07 260.44,-155.02 268.69,-161.67 271.04,-155.07"/>
</g>
<!-- 94 -->
<g id="node7" class="node">
<title>94</title>
<polygon fill="#fce7f3" stroke="black" points="640,-155 311,-155 311,-72 640,-72 640,-155"/>
<text text-anchor="middle" x="475.5" y="-139.8" font-family="Times,serif" font-size="14.00">graphSize &lt;= 22.5</text>
<text text-anchor="middle" x="475.5" y="-124.8" font-family="Times,serif" font-size="14.00">gini = 0.706</text>
<text text-anchor="middle" x="475.5" y="-109.8" font-family="Times,serif" font-size="14.00">samples = 26829</text>
<text text-anchor="middle" x="475.5" y="-94.8" font-family="Times,serif" font-size="14.00">value = [7762, 833, 20, 1230, 6902, 10082]</text>
<text text-anchor="middle" x="475.5" y="-79.8" font-family="Times,serif" font-size="14.00">class = GDL</text>
</g>
<!-- 2&#45;&gt;94 -->
<g id="edge6" class="edge">
<title>2&#45;&gt;94</title>
<path fill="none" stroke="black" d="M475.5,-190.91C475.5,-182.65 475.5,-173.86 475.5,-165.3"/>
<polygon fill="black" stroke="black" points="479,-165.02 475.5,-155.02 472,-165.02 479,-165.02"/>
</g>
<!-- 4 -->
<g id="node5" class="node">
<title>4</title>
<polygon fill="#c0c0c0" stroke="black" points="137.5,-36 83.5,-36 83.5,0 137.5,0 137.5,-36"/>
<text text-anchor="middle" x="110.5" y="-14.3" font-family="Times,serif" font-size="14.00">(...)</text>
</g>
<!-- 3&#45;&gt;4 -->
<g id="edge4" class="edge">
<title>3&#45;&gt;4</title>
<path fill="none" stroke="black" d="M130.81,-71.76C127.46,-63.04 123.99,-54.04 120.89,-45.99"/>
<polygon fill="black" stroke="black" points="124.06,-44.48 117.2,-36.41 117.53,-46.99 124.06,-44.48"/>
</g>
<!-- 75 -->
<g id="node6" class="node">
<title>75</title>
<polygon fill="#c0c0c0" stroke="black" points="209.5,-36 155.5,-36 155.5,0 209.5,0 209.5,-36"/>
<text text-anchor="middle" x="182.5" y="-14.3" font-family="Times,serif" font-size="14.00">(...)</text>
</g>
<!-- 3&#45;&gt;75 -->
<g id="edge5" class="edge">
<title>3&#45;&gt;75</title>
<path fill="none" stroke="black" d="M162.19,-71.76C165.54,-63.04 169.01,-54.04 172.11,-45.99"/>
<polygon fill="black" stroke="black" points="175.47,-46.99 175.8,-36.41 168.94,-44.48 175.47,-46.99"/>
</g>
<!-- 95 -->
<g id="node8" class="node">
<title>95</title>
<polygon fill="#c0c0c0" stroke="black" points="466.5,-36 412.5,-36 412.5,0 466.5,0 466.5,-36"/>
<text text-anchor="middle" x="439.5" y="-14.3" font-family="Times,serif" font-size="14.00">(...)</text>
</g>
<!-- 94&#45;&gt;95 -->
<g id="edge7" class="edge">
<title>94&#45;&gt;95</title>
<path fill="none" stroke="black" d="M459.81,-71.76C456.46,-63.04 452.99,-54.04 449.89,-45.99"/>
<polygon fill="black" stroke="black" points="453.06,-44.48 446.2,-36.41 446.53,-46.99 453.06,-44.48"/>
</g>
<!-- 142 -->
<g id="node9" class="node">
<title>142</title>
<polygon fill="#c0c0c0" stroke="black" points="538.5,-36 484.5,-36 484.5,0 538.5,0 538.5,-36"/>
<text text-anchor="middle" x="511.5" y="-14.3" font-family="Times,serif" font-size="14.00">(...)</text>
</g>
<!-- 94&#45;&gt;142 -->
<g id="edge8" class="edge">
<title>94&#45;&gt;142</title>
<path fill="none" stroke="black" d="M491.19,-71.76C494.54,-63.04 498.01,-54.04 501.11,-45.99"/>
<polygon fill="black" stroke="black" points="504.47,-46.99 504.8,-36.41 497.94,-44.48 504.47,-46.99"/>
</g>
<!-- 286 -->
<g id="node11" class="node">
<title>286</title>
<polygon fill="#fad8ec" stroke="black" points="978.5,-155 658.5,-155 658.5,-72 978.5,-72 978.5,-155"/>
<text text-anchor="middle" x="818.5" y="-139.8" font-family="Times,serif" font-size="14.00">nbproc &lt;= 4.5</text>
<text text-anchor="middle" x="818.5" y="-124.8" font-family="Times,serif" font-size="14.00">gini = 0.704</text>
<text text-anchor="middle" x="818.5" y="-109.8" font-family="Times,serif" font-size="14.00">samples = 10924</text>
<text text-anchor="middle" x="818.5" y="-94.8" font-family="Times,serif" font-size="14.00">value = [1964, 765, 196, 302, 3086, 4611]</text>
<text text-anchor="middle" x="818.5" y="-79.8" font-family="Times,serif" font-size="14.00">class = GDL</text>
</g>
<!-- 285&#45;&gt;286 -->
<g id="edge10" class="edge">
<title>285&#45;&gt;286</title>
<path fill="none" stroke="black" d="M905.36,-190.91C894.63,-181.47 883.12,-171.34 872.1,-161.65"/>
<polygon fill="black" stroke="black" points="874.38,-159 864.56,-155.02 869.76,-164.25 874.38,-159"/>
</g>
<!-- 357 -->
<g id="node14" class="node">
<title>357</title>
<polygon fill="#f3a1d0" stroke="black" points="1290,-155 997,-155 997,-72 1290,-72 1290,-155"/>
<text text-anchor="middle" x="1143.5" y="-139.8" font-family="Times,serif" font-size="14.00">sdComp &lt;= 0.65</text>
<text text-anchor="middle" x="1143.5" y="-124.8" font-family="Times,serif" font-size="14.00">gini = 0.588</text>
<text text-anchor="middle" x="1143.5" y="-109.8" font-family="Times,serif" font-size="14.00">samples = 7069</text>
<text text-anchor="middle" x="1143.5" y="-94.8" font-family="Times,serif" font-size="14.00">value = [1214, 268, 24, 0, 1445, 4118]</text>
<text text-anchor="middle" x="1143.5" y="-79.8" font-family="Times,serif" font-size="14.00">class = GDL</text>
</g>
<!-- 285&#45;&gt;357 -->
<g id="edge13" class="edge">
<title>285&#45;&gt;357</title>
<path fill="none" stroke="black" d="M1018.11,-190.91C1034.35,-181.02 1051.82,-170.37 1068.42,-160.25"/>
<polygon fill="black" stroke="black" points="1070.29,-163.21 1077,-155.02 1066.64,-157.24 1070.29,-163.21"/>
</g>
<!-- 287 -->
<g id="node12" class="node">
<title>287</title>
<polygon fill="#c0c0c0" stroke="black" points="809.5,-36 755.5,-36 755.5,0 809.5,0 809.5,-36"/>
<text text-anchor="middle" x="782.5" y="-14.3" font-family="Times,serif" font-size="14.00">(...)</text>
</g>
<!-- 286&#45;&gt;287 -->
<g id="edge11" class="edge">
<title>286&#45;&gt;287</title>
<path fill="none" stroke="black" d="M802.81,-71.76C799.46,-63.04 795.99,-54.04 792.89,-45.99"/>
<polygon fill="black" stroke="black" points="796.06,-44.48 789.2,-36.41 789.53,-46.99 796.06,-44.48"/>
</g>
<!-- 322 -->
<g id="node13" class="node">
<title>322</title>
<polygon fill="#c0c0c0" stroke="black" points="881.5,-36 827.5,-36 827.5,0 881.5,0 881.5,-36"/>
<text text-anchor="middle" x="854.5" y="-14.3" font-family="Times,serif" font-size="14.00">(...)</text>
</g>
<!-- 286&#45;&gt;322 -->
<g id="edge12" class="edge">
<title>286&#45;&gt;322</title>
<path fill="none" stroke="black" d="M834.19,-71.76C837.54,-63.04 841.01,-54.04 844.11,-45.99"/>
<polygon fill="black" stroke="black" points="847.47,-46.99 847.8,-36.41 840.94,-44.48 847.47,-46.99"/>
</g>
<!-- 358 -->
<g id="node15" class="node">
<title>358</title>
<polygon fill="#c0c0c0" stroke="black" points="1134.5,-36 1080.5,-36 1080.5,0 1134.5,0 1134.5,-36"/>
<text text-anchor="middle" x="1107.5" y="-14.3" font-family="Times,serif" font-size="14.00">(...)</text>
</g>
<!-- 357&#45;&gt;358 -->
<g id="edge14" class="edge">
<title>357&#45;&gt;358</title>
<path fill="none" stroke="black" d="M1127.81,-71.76C1124.46,-63.04 1120.99,-54.04 1117.89,-45.99"/>
<polygon fill="black" stroke="black" points="1121.06,-44.48 1114.2,-36.41 1114.53,-46.99 1121.06,-44.48"/>
</g>
<!-- 499 -->
<g id="node16" class="node">
<title>499</title>
<polygon fill="#c0c0c0" stroke="black" points="1206.5,-36 1152.5,-36 1152.5,0 1206.5,0 1206.5,-36"/>
<text text-anchor="middle" x="1179.5" y="-14.3" font-family="Times,serif" font-size="14.00">(...)</text>
</g>
<!-- 357&#45;&gt;499 -->
<g id="edge15" class="edge">
<title>357&#45;&gt;499</title>
<path fill="none" stroke="black" d="M1159.19,-71.76C1162.54,-63.04 1166.01,-54.04 1169.11,-45.99"/>
<polygon fill="black" stroke="black" points="1172.47,-46.99 1172.8,-36.41 1165.94,-44.48 1172.47,-46.99"/>
</g>
<!-- 571 -->
<g id="node18" class="node">
<title>571</title>
<polygon fill="#bcf6d4" stroke="black" points="1772,-274 1443,-274 1443,-191 1772,-191 1772,-274"/>
<text text-anchor="middle" x="1607.5" y="-258.8" font-family="Times,serif" font-size="14.00">graphSize &lt;= 22.5</text>
<text text-anchor="middle" x="1607.5" y="-243.8" font-family="Times,serif" font-size="14.00">gini = 0.707</text>
<text text-anchor="middle" x="1607.5" y="-228.8" font-family="Times,serif" font-size="14.00">samples = 10816</text>
<text text-anchor="middle" x="1607.5" y="-213.8" font-family="Times,serif" font-size="14.00">value = [1023, 1043, 5112, 2208, 973, 457]</text>
<text text-anchor="middle" x="1607.5" y="-198.8" font-family="Times,serif" font-size="14.00">class = OLB</text>
</g>
<!-- 570&#45;&gt;571 -->
<g id="edge17" class="edge">
<title>570&#45;&gt;571</title>
<path fill="none" stroke="black" d="M1607.5,-309.91C1607.5,-301.65 1607.5,-292.86 1607.5,-284.3"/>
<polygon fill="black" stroke="black" points="1611,-284.02 1607.5,-274.02 1604,-284.02 1611,-284.02"/>
</g>
<!-- 666 -->
<g id="node25" class="node">
<title>666</title>
<polygon fill="#d4f9e4" stroke="black" points="2281.5,-274 1943.5,-274 1943.5,-191 2281.5,-191 2281.5,-274"/>
<text text-anchor="middle" x="2112.5" y="-258.8" font-family="Times,serif" font-size="14.00">sdComp &lt;= 6.5</text>
<text text-anchor="middle" x="2112.5" y="-243.8" font-family="Times,serif" font-size="14.00">gini = 0.77</text>
<text text-anchor="middle" x="2112.5" y="-228.8" font-family="Times,serif" font-size="14.00">samples = 20392</text>
<text text-anchor="middle" x="2112.5" y="-213.8" font-family="Times,serif" font-size="14.00">value = [3703, 2666, 7420, 524, 3809, 2270]</text>
<text text-anchor="middle" x="2112.5" y="-198.8" font-family="Times,serif" font-size="14.00">class = OLB</text>
</g>
<!-- 570&#45;&gt;666 -->
<g id="edge24" class="edge">
<title>570&#45;&gt;666</title>
<path fill="none" stroke="black" d="M1782.35,-309.99C1831.25,-298.66 1884.44,-286.34 1933.57,-274.96"/>
<polygon fill="black" stroke="black" points="1934.38,-278.36 1943.33,-272.69 1932.8,-271.54 1934.38,-278.36"/>
</g>
<!-- 572 -->
<g id="node19" class="node">
<title>572</title>
<polygon fill="#d8fae6" stroke="black" points="1601,-155 1308,-155 1308,-72 1601,-72 1601,-155"/>
<text text-anchor="middle" x="1454.5" y="-139.8" font-family="Times,serif" font-size="14.00">sdComm &lt;= 2.0</text>
<text text-anchor="middle" x="1454.5" y="-124.8" font-family="Times,serif" font-size="14.00">gini = 0.787</text>
<text text-anchor="middle" x="1454.5" y="-109.8" font-family="Times,serif" font-size="14.00">samples = 2743</text>
<text text-anchor="middle" x="1454.5" y="-94.8" font-family="Times,serif" font-size="14.00">value = [352, 292, 958, 524, 390, 227]</text>
<text text-anchor="middle" x="1454.5" y="-79.8" font-family="Times,serif" font-size="14.00">class = OLB</text>
</g>
<!-- 571&#45;&gt;572 -->
<g id="edge18" class="edge">
<title>571&#45;&gt;572</title>
<path fill="none" stroke="black" d="M1554.42,-190.91C1541.96,-181.38 1528.58,-171.15 1515.79,-161.37"/>
<polygon fill="black" stroke="black" points="1517.56,-158.32 1507.49,-155.02 1513.31,-163.88 1517.56,-158.32"/>
</g>
<!-- 595 -->
<g id="node22" class="node">
<title>595</title>
<polygon fill="#b2f5ce" stroke="black" points="1930,-155 1619,-155 1619,-72 1930,-72 1930,-155"/>
<text text-anchor="middle" x="1774.5" y="-139.8" font-family="Times,serif" font-size="14.00">graphDepth &lt;= 25.5</text>
<text text-anchor="middle" x="1774.5" y="-124.8" font-family="Times,serif" font-size="14.00">gini = 0.67</text>
<text text-anchor="middle" x="1774.5" y="-109.8" font-family="Times,serif" font-size="14.00">samples = 8073</text>
<text text-anchor="middle" x="1774.5" y="-94.8" font-family="Times,serif" font-size="14.00">value = [671, 751, 4154, 1684, 583, 230]</text>
<text text-anchor="middle" x="1774.5" y="-79.8" font-family="Times,serif" font-size="14.00">class = OLB</text>
</g>
<!-- 571&#45;&gt;595 -->
<g id="edge21" class="edge">
<title>571&#45;&gt;595</title>
<path fill="none" stroke="black" d="M1665.44,-190.91C1679.3,-181.2 1694.2,-170.76 1708.4,-160.81"/>
<polygon fill="black" stroke="black" points="1710.48,-163.63 1716.66,-155.02 1706.46,-157.89 1710.48,-163.63"/>
</g>
<!-- 573 -->
<g id="node20" class="node">
<title>573</title>
<polygon fill="#c0c0c0" stroke="black" points="1445.5,-36 1391.5,-36 1391.5,0 1445.5,0 1445.5,-36"/>
<text text-anchor="middle" x="1418.5" y="-14.3" font-family="Times,serif" font-size="14.00">(...)</text>
</g>
<!-- 572&#45;&gt;573 -->
<g id="edge19" class="edge">
<title>572&#45;&gt;573</title>
<path fill="none" stroke="black" d="M1438.81,-71.76C1435.46,-63.04 1431.99,-54.04 1428.89,-45.99"/>
<polygon fill="black" stroke="black" points="1432.06,-44.48 1425.2,-36.41 1425.53,-46.99 1432.06,-44.48"/>
</g>
<!-- 580 -->
<g id="node21" class="node">
<title>580</title>
<polygon fill="#c0c0c0" stroke="black" points="1517.5,-36 1463.5,-36 1463.5,0 1517.5,0 1517.5,-36"/>
<text text-anchor="middle" x="1490.5" y="-14.3" font-family="Times,serif" font-size="14.00">(...)</text>
</g>
<!-- 572&#45;&gt;580 -->
<g id="edge20" class="edge">
<title>572&#45;&gt;580</title>
<path fill="none" stroke="black" d="M1470.19,-71.76C1473.54,-63.04 1477.01,-54.04 1480.11,-45.99"/>
<polygon fill="black" stroke="black" points="1483.47,-46.99 1483.8,-36.41 1476.94,-44.48 1483.47,-46.99"/>
</g>
<!-- 596 -->
<g id="node23" class="node">
<title>596</title>
<polygon fill="#c0c0c0" stroke="black" points="1765.5,-36 1711.5,-36 1711.5,0 1765.5,0 1765.5,-36"/>
<text text-anchor="middle" x="1738.5" y="-14.3" font-family="Times,serif" font-size="14.00">(...)</text>
</g>
<!-- 595&#45;&gt;596 -->
<g id="edge22" class="edge">
<title>595&#45;&gt;596</title>
<path fill="none" stroke="black" d="M1758.81,-71.76C1755.46,-63.04 1751.99,-54.04 1748.89,-45.99"/>
<polygon fill="black" stroke="black" points="1752.06,-44.48 1745.2,-36.41 1745.53,-46.99 1752.06,-44.48"/>
</g>
<!-- 655 -->
<g id="node24" class="node">
<title>655</title>
<polygon fill="#c0c0c0" stroke="black" points="1837.5,-36 1783.5,-36 1783.5,0 1837.5,0 1837.5,-36"/>
<text text-anchor="middle" x="1810.5" y="-14.3" font-family="Times,serif" font-size="14.00">(...)</text>
</g>
<!-- 595&#45;&gt;655 -->
<g id="edge23" class="edge">
<title>595&#45;&gt;655</title>
<path fill="none" stroke="black" d="M1790.19,-71.76C1793.54,-63.04 1797.01,-54.04 1800.11,-45.99"/>
<polygon fill="black" stroke="black" points="1803.47,-46.99 1803.8,-36.41 1796.94,-44.48 1803.47,-46.99"/>
</g>
<!-- 667 -->
<g id="node26" class="node">
<title>667</title>
<polygon fill="#c5f7da" stroke="black" points="2277,-155 1948,-155 1948,-72 2277,-72 2277,-155"/>
<text text-anchor="middle" x="2112.5" y="-139.8" font-family="Times,serif" font-size="14.00">graphSize &lt;= 22.5</text>
<text text-anchor="middle" x="2112.5" y="-124.8" font-family="Times,serif" font-size="14.00">gini = 0.743</text>
<text text-anchor="middle" x="2112.5" y="-109.8" font-family="Times,serif" font-size="14.00">samples = 11412</text>
<text text-anchor="middle" x="2112.5" y="-94.8" font-family="Times,serif" font-size="14.00">value = [2058, 1294, 4808, 512, 1831, 909]</text>
<text text-anchor="middle" x="2112.5" y="-79.8" font-family="Times,serif" font-size="14.00">class = OLB</text>
</g>
<!-- 666&#45;&gt;667 -->
<g id="edge25" class="edge">
<title>666&#45;&gt;667</title>
<path fill="none" stroke="black" d="M2112.5,-190.91C2112.5,-182.65 2112.5,-173.86 2112.5,-165.3"/>
<polygon fill="black" stroke="black" points="2116,-165.02 2112.5,-155.02 2109,-165.02 2116,-165.02"/>
</g>
<!-- 762 -->
<g id="node29" class="node">
<title>762</title>
<polygon fill="#edfdf4" stroke="black" points="2624,-155 2295,-155 2295,-72 2624,-72 2624,-155"/>
<text text-anchor="middle" x="2459.5" y="-139.8" font-family="Times,serif" font-size="14.00">sdComm &lt;= 2.0</text>
<text text-anchor="middle" x="2459.5" y="-124.8" font-family="Times,serif" font-size="14.00">gini = 0.787</text>
<text text-anchor="middle" x="2459.5" y="-109.8" font-family="Times,serif" font-size="14.00">samples = 8980</text>
<text text-anchor="middle" x="2459.5" y="-94.8" font-family="Times,serif" font-size="14.00">value = [1645, 1372, 2612, 12, 1978, 1361]</text>
<text text-anchor="middle" x="2459.5" y="-79.8" font-family="Times,serif" font-size="14.00">class = OLB</text>
</g>
<!-- 666&#45;&gt;762 -->
<g id="edge28" class="edge">
<title>666&#45;&gt;762</title>
<path fill="none" stroke="black" d="M2232.89,-190.91C2264.11,-180.38 2297.87,-169 2329.56,-158.31"/>
<polygon fill="black" stroke="black" points="2330.97,-161.53 2339.32,-155.02 2328.73,-154.9 2330.97,-161.53"/>
</g>
<!-- 668 -->
<g id="node27" class="node">
<title>668</title>
<polygon fill="#c0c0c0" stroke="black" points="2103.5,-36 2049.5,-36 2049.5,0 2103.5,0 2103.5,-36"/>
<text text-anchor="middle" x="2076.5" y="-14.3" font-family="Times,serif" font-size="14.00">(...)</text>
</g>
<!-- 667&#45;&gt;668 -->
<g id="edge26" class="edge">
<title>667&#45;&gt;668</title>
<path fill="none" stroke="black" d="M2096.81,-71.76C2093.46,-63.04 2089.99,-54.04 2086.89,-45.99"/>
<polygon fill="black" stroke="black" points="2090.06,-44.48 2083.2,-36.41 2083.53,-46.99 2090.06,-44.48"/>
</g>
<!-- 691 -->
<g id="node28" class="node">
<title>691</title>
<polygon fill="#c0c0c0" stroke="black" points="2175.5,-36 2121.5,-36 2121.5,0 2175.5,0 2175.5,-36"/>
<text text-anchor="middle" x="2148.5" y="-14.3" font-family="Times,serif" font-size="14.00">(...)</text>
</g>
<!-- 667&#45;&gt;691 -->
<g id="edge27" class="edge">
<title>667&#45;&gt;691</title>
<path fill="none" stroke="black" d="M2128.19,-71.76C2131.54,-63.04 2135.01,-54.04 2138.11,-45.99"/>
<polygon fill="black" stroke="black" points="2141.47,-46.99 2141.8,-36.41 2134.94,-44.48 2141.47,-46.99"/>
</g>
<!-- 763 -->
<g id="node30" class="node">
<title>763</title>
<polygon fill="#c0c0c0" stroke="black" points="2450.5,-36 2396.5,-36 2396.5,0 2450.5,0 2450.5,-36"/>
<text text-anchor="middle" x="2423.5" y="-14.3" font-family="Times,serif" font-size="14.00">(...)</text>
</g>
<!-- 762&#45;&gt;763 -->
<g id="edge29" class="edge">
<title>762&#45;&gt;763</title>
<path fill="none" stroke="black" d="M2443.81,-71.76C2440.46,-63.04 2436.99,-54.04 2433.89,-45.99"/>
<polygon fill="black" stroke="black" points="2437.06,-44.48 2430.2,-36.41 2430.53,-46.99 2437.06,-44.48"/>
</g>
<!-- 794 -->
<g id="node31" class="node">
<title>794</title>
<polygon fill="#c0c0c0" stroke="black" points="2522.5,-36 2468.5,-36 2468.5,0 2522.5,0 2522.5,-36"/>
<text text-anchor="middle" x="2495.5" y="-14.3" font-family="Times,serif" font-size="14.00">(...)</text>
</g>
<!-- 762&#45;&gt;794 -->
<g id="edge30" class="edge">
<title>762&#45;&gt;794</title>
<path fill="none" stroke="black" d="M2475.19,-71.76C2478.54,-63.04 2482.01,-54.04 2485.11,-45.99"/>
<polygon fill="black" stroke="black" points="2488.47,-46.99 2488.8,-36.41 2481.94,-44.48 2488.47,-46.99"/>
</g>
</g>
</svg>
