<?xml version="1.0" encoding="UTF-8" standalone="no"?>
<!DOCTYPE svg PUBLIC "-//W3C//DTD SVG 1.1//EN"
 "http://www.w3.org/Graphics/SVG/1.1/DTD/svg11.dtd">
<!-- Generated by graphviz version 2.43.0 (0)
 -->
<!-- Title: Tree Pages: 1 -->
<svg width="3009pt" height="520pt"
 viewBox="0.00 0.00 3009.00 520.00" xmlns="http://www.w3.org/2000/svg" xmlns:xlink="http://www.w3.org/1999/xlink">
<g id="graph0" class="graph" transform="scale(1 1) rotate(0) translate(4 516)">
<title>Tree</title>
<polygon fill="white" stroke="transparent" points="-4,4 -4,-516 3005,-516 3005,4 -4,4"/>
<!-- 0 -->
<g id="node1" class="node">
<title>0</title>
<polygon fill="#fffdfc" stroke="black" points="1678,-512 1232,-512 1232,-429 1678,-429 1678,-512"/>
<text text-anchor="middle" x="1455" y="-496.8" font-family="Times,serif" font-size="14.00">CCR &lt;= 0.55</text>
<text text-anchor="middle" x="1455" y="-481.8" font-family="Times,serif" font-size="14.00">gini = 0.845</text>
<text text-anchor="middle" x="1455" y="-466.8" font-family="Times,serif" font-size="14.00">samples = 81337</text>
<text text-anchor="middle" x="1455" y="-451.8" font-family="Times,serif" font-size="14.00">value = [15305, 11451, 3931, 11254, 12058, 13177, 14161]</text>
<text text-anchor="middle" x="1455" y="-436.8" font-family="Times,serif" font-size="14.00">class = rku</text>
</g>
<!-- 1 -->
<g id="node2" class="node">
<title>1</title>
<polygon fill="#fefeff" stroke="black" points="1286,-393 894,-393 894,-310 1286,-310 1286,-393"/>
<text text-anchor="middle" x="1090" y="-377.8" font-family="Times,serif" font-size="14.00">nbproc &lt;= 4.5</text>
<text text-anchor="middle" x="1090" y="-362.8" font-family="Times,serif" font-size="14.00">gini = 0.843</text>
<text text-anchor="middle" x="1090" y="-347.8" font-family="Times,serif" font-size="14.00">samples = 32136</text>
<text text-anchor="middle" x="1090" y="-332.8" font-family="Times,serif" font-size="14.00">value = [5564, 3996, 1301, 4839, 5833, 5678, 4925]</text>
<text text-anchor="middle" x="1090" y="-317.8" font-family="Times,serif" font-size="14.00">class = cluHPS</text>
</g>
<!-- 0&#45;&gt;1 -->
<g id="edge1" class="edge">
<title>0&#45;&gt;1</title>
<path fill="none" stroke="black" d="M1328.62,-428.99C1295.63,-418.41 1259.92,-406.97 1226.43,-396.23"/>
<polygon fill="black" stroke="black" points="1227.17,-392.79 1216.58,-393.07 1225.03,-399.46 1227.17,-392.79"/>
<text text-anchor="middle" x="1228.02" y="-411.6" font-family="Times,serif" font-size="14.00">True</text>
</g>
<!-- 288 -->
<g id="node17" class="node">
<title>288</title>
<polygon fill="#fffdfc" stroke="black" points="2021,-393 1629,-393 1629,-310 2021,-310 2021,-393"/>
<text text-anchor="middle" x="1825" y="-377.8" font-family="Times,serif" font-size="14.00">sdComp &lt;= 0.65</text>
<text text-anchor="middle" x="1825" y="-362.8" font-family="Times,serif" font-size="14.00">gini = 0.844</text>
<text text-anchor="middle" x="1825" y="-347.8" font-family="Times,serif" font-size="14.00">samples = 49201</text>
<text text-anchor="middle" x="1825" y="-332.8" font-family="Times,serif" font-size="14.00">value = [9741, 7455, 2630, 6415, 6225, 7499, 9236]</text>
<text text-anchor="middle" x="1825" y="-317.8" font-family="Times,serif" font-size="14.00">class = rku</text>
</g>
<!-- 0&#45;&gt;288 -->
<g id="edge16" class="edge">
<title>0&#45;&gt;288</title>
<path fill="none" stroke="black" d="M1583.11,-428.99C1616.7,-418.37 1653.06,-406.87 1687.14,-396.09"/>
<polygon fill="black" stroke="black" points="1688.21,-399.43 1696.69,-393.07 1686.1,-392.75 1688.21,-399.43"/>
<text text-anchor="middle" x="1685.16" y="-411.56" font-family="Times,serif" font-size="14.00">False</text>
</g>
<!-- 2 -->
<g id="node3" class="node">
<title>2</title>
<polygon fill="#f3f5fd" stroke="black" points="720.5,-274 337.5,-274 337.5,-191 720.5,-191 720.5,-274"/>
<text text-anchor="middle" x="529" y="-258.8" font-family="Times,serif" font-size="14.00">sdComp &lt;= 0.065</text>
<text text-anchor="middle" x="529" y="-243.8" font-family="Times,serif" font-size="14.00">gini = 0.831</text>
<text text-anchor="middle" x="529" y="-228.8" font-family="Times,serif" font-size="14.00">samples = 10197</text>
<text text-anchor="middle" x="529" y="-213.8" font-family="Times,serif" font-size="14.00">value = [1687, 1014, 387, 1842, 2370, 1854, 1043]</text>
<text text-anchor="middle" x="529" y="-198.8" font-family="Times,serif" font-size="14.00">class = cluHPS</text>
</g>
<!-- 1&#45;&gt;2 -->
<g id="edge2" class="edge">
<title>1&#45;&gt;2</title>
<path fill="none" stroke="black" d="M895.76,-309.99C842.41,-298.86 784.45,-286.78 730.69,-275.56"/>
<polygon fill="black" stroke="black" points="731.21,-272.1 720.7,-273.48 729.78,-278.95 731.21,-272.1"/>
</g>
<!-- 145 -->
<g id="node10" class="node">
<title>145</title>
<polygon fill="#ffffff" stroke="black" points="1281.5,-274 898.5,-274 898.5,-191 1281.5,-191 1281.5,-274"/>
<text text-anchor="middle" x="1090" y="-258.8" font-family="Times,serif" font-size="14.00">graphSize &lt;= 40.0</text>
<text text-anchor="middle" x="1090" y="-243.8" font-family="Times,serif" font-size="14.00">gini = 0.843</text>
<text text-anchor="middle" x="1090" y="-228.8" font-family="Times,serif" font-size="14.00">samples = 21939</text>
<text text-anchor="middle" x="1090" y="-213.8" font-family="Times,serif" font-size="14.00">value = [3877, 2982, 914, 2997, 3463, 3824, 3882]</text>
<text text-anchor="middle" x="1090" y="-198.8" font-family="Times,serif" font-size="14.00">class = rkuad</text>
</g>
<!-- 1&#45;&gt;145 -->
<g id="edge9" class="edge">
<title>1&#45;&gt;145</title>
<path fill="none" stroke="black" d="M1090,-309.91C1090,-301.65 1090,-292.86 1090,-284.3"/>
<polygon fill="black" stroke="black" points="1093.5,-284.02 1090,-274.02 1086.5,-284.02 1093.5,-284.02"/>
</g>
<!-- 3 -->
<g id="node4" class="node">
<title>3</title>
<polygon fill="#fffffe" stroke="black" points="338,-155 0,-155 0,-72 338,-72 338,-155"/>
<text text-anchor="middle" x="169" y="-139.8" font-family="Times,serif" font-size="14.00">graphSize &lt;= 40.0</text>
<text text-anchor="middle" x="169" y="-124.8" font-family="Times,serif" font-size="14.00">gini = 0.814</text>
<text text-anchor="middle" x="169" y="-109.8" font-family="Times,serif" font-size="14.00">samples = 3906</text>
<text text-anchor="middle" x="169" y="-94.8" font-family="Times,serif" font-size="14.00">value = [1002, 240, 166, 566, 482, 991, 459]</text>
<text text-anchor="middle" x="169" y="-79.8" font-family="Times,serif" font-size="14.00">class = rku</text>
</g>
<!-- 2&#45;&gt;3 -->
<g id="edge3" class="edge">
<title>2&#45;&gt;3</title>
<path fill="none" stroke="black" d="M404.35,-190.99C371.81,-180.41 336.59,-168.97 303.56,-158.23"/>
<polygon fill="black" stroke="black" points="304.44,-154.84 293.84,-155.07 302.27,-161.49 304.44,-154.84"/>
</g>
<!-- 98 -->
<g id="node7" class="node">
<title>98</title>
<polygon fill="#e7eafc" stroke="black" points="702.5,-155 355.5,-155 355.5,-72 702.5,-72 702.5,-155"/>
<text text-anchor="middle" x="529" y="-139.8" font-family="Times,serif" font-size="14.00">graphDepth &lt;= 9.0</text>
<text text-anchor="middle" x="529" y="-124.8" font-family="Times,serif" font-size="14.00">gini = 0.813</text>
<text text-anchor="middle" x="529" y="-109.8" font-family="Times,serif" font-size="14.00">samples = 6291</text>
<text text-anchor="middle" x="529" y="-94.8" font-family="Times,serif" font-size="14.00">value = [685, 774, 221, 1276, 1888, 863, 584]</text>
<text text-anchor="middle" x="529" y="-79.8" font-family="Times,serif" font-size="14.00">class = cluHPS</text>
</g>
<!-- 2&#45;&gt;98 -->
<g id="edge6" class="edge">
<title>2&#45;&gt;98</title>
<path fill="none" stroke="black" d="M529,-190.91C529,-182.65 529,-173.86 529,-165.3"/>
<polygon fill="black" stroke="black" points="532.5,-165.02 529,-155.02 525.5,-165.02 532.5,-165.02"/>
</g>
<!-- 4 -->
<g id="node5" class="node">
<title>4</title>
<polygon fill="#c0c0c0" stroke="black" points="160,-36 106,-36 106,0 160,0 160,-36"/>
<text text-anchor="middle" x="133" y="-14.3" font-family="Times,serif" font-size="14.00">(...)</text>
</g>
<!-- 3&#45;&gt;4 -->
<g id="edge4" class="edge">
<title>3&#45;&gt;4</title>
<path fill="none" stroke="black" d="M153.31,-71.76C149.96,-63.04 146.49,-54.04 143.39,-45.99"/>
<polygon fill="black" stroke="black" points="146.56,-44.48 139.7,-36.41 140.03,-46.99 146.56,-44.48"/>
</g>
<!-- 51 -->
<g id="node6" class="node">
<title>51</title>
<polygon fill="#c0c0c0" stroke="black" points="232,-36 178,-36 178,0 232,0 232,-36"/>
<text text-anchor="middle" x="205" y="-14.3" font-family="Times,serif" font-size="14.00">(...)</text>
</g>
<!-- 3&#45;&gt;51 -->
<g id="edge5" class="edge">
<title>3&#45;&gt;51</title>
<path fill="none" stroke="black" d="M184.69,-71.76C188.04,-63.04 191.51,-54.04 194.61,-45.99"/>
<polygon fill="black" stroke="black" points="197.97,-46.99 198.3,-36.41 191.44,-44.48 197.97,-46.99"/>
</g>
<!-- 99 -->
<g id="node8" class="node">
<title>99</title>
<polygon fill="#c0c0c0" stroke="black" points="520,-36 466,-36 466,0 520,0 520,-36"/>
<text text-anchor="middle" x="493" y="-14.3" font-family="Times,serif" font-size="14.00">(...)</text>
</g>
<!-- 98&#45;&gt;99 -->
<g id="edge7" class="edge">
<title>98&#45;&gt;99</title>
<path fill="none" stroke="black" d="M513.31,-71.76C509.96,-63.04 506.49,-54.04 503.39,-45.99"/>
<polygon fill="black" stroke="black" points="506.56,-44.48 499.7,-36.41 500.03,-46.99 506.56,-44.48"/>
</g>
<!-- 122 -->
<g id="node9" class="node">
<title>122</title>
<polygon fill="#c0c0c0" stroke="black" points="592,-36 538,-36 538,0 592,0 592,-36"/>
<text text-anchor="middle" x="565" y="-14.3" font-family="Times,serif" font-size="14.00">(...)</text>
</g>
<!-- 98&#45;&gt;122 -->
<g id="edge8" class="edge">
<title>98&#45;&gt;122</title>
<path fill="none" stroke="black" d="M544.69,-71.76C548.04,-63.04 551.51,-54.04 554.61,-45.99"/>
<polygon fill="black" stroke="black" points="557.97,-46.99 558.3,-36.41 551.44,-44.48 557.97,-46.99"/>
</g>
<!-- 146 -->
<g id="node11" class="node">
<title>146</title>
<polygon fill="#fffefe" stroke="black" points="1103.5,-155 720.5,-155 720.5,-72 1103.5,-72 1103.5,-155"/>
<text text-anchor="middle" x="912" y="-139.8" font-family="Times,serif" font-size="14.00">sdComm &lt;= 0.02</text>
<text text-anchor="middle" x="912" y="-124.8" font-family="Times,serif" font-size="14.00">gini = 0.841</text>
<text text-anchor="middle" x="912" y="-109.8" font-family="Times,serif" font-size="14.00">samples = 19939</text>
<text text-anchor="middle" x="912" y="-94.8" font-family="Times,serif" font-size="14.00">value = [3468, 2820, 613, 2786, 3279, 3429, 3544]</text>
<text text-anchor="middle" x="912" y="-79.8" font-family="Times,serif" font-size="14.00">class = rkuad</text>
</g>
<!-- 145&#45;&gt;146 -->
<g id="edge10" class="edge">
<title>145&#45;&gt;146</title>
<path fill="none" stroke="black" d="M1028.24,-190.91C1013.33,-181.11 997.29,-170.56 982.03,-160.53"/>
<polygon fill="black" stroke="black" points="983.93,-157.59 973.65,-155.02 980.08,-163.44 983.93,-157.59"/>
</g>
<!-- 217 -->
<g id="node14" class="node">
<title>217</title>
<polygon fill="#fffefd" stroke="black" points="1450.5,-155 1121.5,-155 1121.5,-72 1450.5,-72 1450.5,-155"/>
<text text-anchor="middle" x="1286" y="-139.8" font-family="Times,serif" font-size="14.00">sdComp &lt;= 0.065</text>
<text text-anchor="middle" x="1286" y="-124.8" font-family="Times,serif" font-size="14.00">gini = 0.842</text>
<text text-anchor="middle" x="1286" y="-109.8" font-family="Times,serif" font-size="14.00">samples = 2000</text>
<text text-anchor="middle" x="1286" y="-94.8" font-family="Times,serif" font-size="14.00">value = [409, 162, 301, 211, 184, 395, 338]</text>
<text text-anchor="middle" x="1286" y="-79.8" font-family="Times,serif" font-size="14.00">class = rku</text>
</g>
<!-- 145&#45;&gt;217 -->
<g id="edge13" class="edge">
<title>145&#45;&gt;217</title>
<path fill="none" stroke="black" d="M1158,-190.91C1174.57,-181.02 1192.41,-170.37 1209.35,-160.25"/>
<polygon fill="black" stroke="black" points="1211.33,-163.15 1218.12,-155.02 1207.74,-157.14 1211.33,-163.15"/>
</g>
<!-- 147 -->
<g id="node12" class="node">
<title>147</title>
<polygon fill="#c0c0c0" stroke="black" points="903,-36 849,-36 849,0 903,0 903,-36"/>
<text text-anchor="middle" x="876" y="-14.3" font-family="Times,serif" font-size="14.00">(...)</text>
</g>
<!-- 146&#45;&gt;147 -->
<g id="edge11" class="edge">
<title>146&#45;&gt;147</title>
<path fill="none" stroke="black" d="M896.31,-71.76C892.96,-63.04 889.49,-54.04 886.39,-45.99"/>
<polygon fill="black" stroke="black" points="889.56,-44.48 882.7,-36.41 883.03,-46.99 889.56,-44.48"/>
</g>
<!-- 170 -->
<g id="node13" class="node">
<title>170</title>
<polygon fill="#c0c0c0" stroke="black" points="975,-36 921,-36 921,0 975,0 975,-36"/>
<text text-anchor="middle" x="948" y="-14.3" font-family="Times,serif" font-size="14.00">(...)</text>
</g>
<!-- 146&#45;&gt;170 -->
<g id="edge12" class="edge">
<title>146&#45;&gt;170</title>
<path fill="none" stroke="black" d="M927.69,-71.76C931.04,-63.04 934.51,-54.04 937.61,-45.99"/>
<polygon fill="black" stroke="black" points="940.97,-46.99 941.3,-36.41 934.44,-44.48 940.97,-46.99"/>
</g>
<!-- 218 -->
<g id="node15" class="node">
<title>218</title>
<polygon fill="#c0c0c0" stroke="black" points="1277,-36 1223,-36 1223,0 1277,0 1277,-36"/>
<text text-anchor="middle" x="1250" y="-14.3" font-family="Times,serif" font-size="14.00">(...)</text>
</g>
<!-- 217&#45;&gt;218 -->
<g id="edge14" class="edge">
<title>217&#45;&gt;218</title>
<path fill="none" stroke="black" d="M1270.31,-71.76C1266.96,-63.04 1263.49,-54.04 1260.39,-45.99"/>
<polygon fill="black" stroke="black" points="1263.56,-44.48 1256.7,-36.41 1257.03,-46.99 1263.56,-44.48"/>
</g>
<!-- 265 -->
<g id="node16" class="node">
<title>265</title>
<polygon fill="#c0c0c0" stroke="black" points="1349,-36 1295,-36 1295,0 1349,0 1349,-36"/>
<text text-anchor="middle" x="1322" y="-14.3" font-family="Times,serif" font-size="14.00">(...)</text>
</g>
<!-- 217&#45;&gt;265 -->
<g id="edge15" class="edge">
<title>217&#45;&gt;265</title>
<path fill="none" stroke="black" d="M1301.69,-71.76C1305.04,-63.04 1308.51,-54.04 1311.61,-45.99"/>
<polygon fill="black" stroke="black" points="1314.97,-46.99 1315.3,-36.41 1308.44,-44.48 1314.97,-46.99"/>
</g>
<!-- 289 -->
<g id="node18" class="node">
<title>289</title>
<polygon fill="#fef9f6" stroke="black" points="2016.5,-274 1633.5,-274 1633.5,-191 2016.5,-191 2016.5,-274"/>
<text text-anchor="middle" x="1825" y="-258.8" font-family="Times,serif" font-size="14.00">graphSize &lt;= 40.0</text>
<text text-anchor="middle" x="1825" y="-243.8" font-family="Times,serif" font-size="14.00">gini = 0.828</text>
<text text-anchor="middle" x="1825" y="-228.8" font-family="Times,serif" font-size="14.00">samples = 11921</text>
<text text-anchor="middle" x="1825" y="-213.8" font-family="Times,serif" font-size="14.00">value = [2897, 1283, 355, 1641, 1351, 1935, 2459]</text>
<text text-anchor="middle" x="1825" y="-198.8" font-family="Times,serif" font-size="14.00">class = rku</text>
</g>
<!-- 288&#45;&gt;289 -->
<g id="edge17" class="edge">
<title>288&#45;&gt;289</title>
<path fill="none" stroke="black" d="M1825,-309.91C1825,-301.65 1825,-292.86 1825,-284.3"/>
<polygon fill="black" stroke="black" points="1828.5,-284.02 1825,-274.02 1821.5,-284.02 1828.5,-284.02"/>
</g>
<!-- 480 -->
<g id="node25" class="node">
<title>480</title>
<polygon fill="#ffffff" stroke="black" points="2591,-274 2199,-274 2199,-191 2591,-191 2591,-274"/>
<text text-anchor="middle" x="2395" y="-258.8" font-family="Times,serif" font-size="14.00">nbproc &lt;= 4.5</text>
<text text-anchor="middle" x="2395" y="-243.8" font-family="Times,serif" font-size="14.00">gini = 0.846</text>
<text text-anchor="middle" x="2395" y="-228.8" font-family="Times,serif" font-size="14.00">samples = 37280</text>
<text text-anchor="middle" x="2395" y="-213.8" font-family="Times,serif" font-size="14.00">value = [6844, 6172, 2275, 4774, 4874, 5564, 6777]</text>
<text text-anchor="middle" x="2395" y="-198.8" font-family="Times,serif" font-size="14.00">class = rku</text>
</g>
<!-- 288&#45;&gt;480 -->
<g id="edge24" class="edge">
<title>288&#45;&gt;480</title>
<path fill="none" stroke="black" d="M2021.16,-310.24C2075.39,-299.1 2134.38,-287 2189.14,-275.75"/>
<polygon fill="black" stroke="black" points="2189.87,-279.18 2198.96,-273.74 2188.46,-272.32 2189.87,-279.18"/>
</g>
<!-- 290 -->
<g id="node19" class="node">
<title>290</title>
<polygon fill="#fffefd" stroke="black" points="1851.5,-155 1468.5,-155 1468.5,-72 1851.5,-72 1851.5,-155"/>
<text text-anchor="middle" x="1660" y="-139.8" font-family="Times,serif" font-size="14.00">graphDepth &lt;= 3.5</text>
<text text-anchor="middle" x="1660" y="-124.8" font-family="Times,serif" font-size="14.00">gini = 0.836</text>
<text text-anchor="middle" x="1660" y="-109.8" font-family="Times,serif" font-size="14.00">samples = 9597</text>
<text text-anchor="middle" x="1660" y="-94.8" font-family="Times,serif" font-size="14.00">value = [1946, 1217, 234, 1475, 1286, 1564, 1875]</text>
<text text-anchor="middle" x="1660" y="-79.8" font-family="Times,serif" font-size="14.00">class = rku</text>
</g>
<!-- 289&#45;&gt;290 -->
<g id="edge18" class="edge">
<title>289&#45;&gt;290</title>
<path fill="none" stroke="black" d="M1767.75,-190.91C1754.06,-181.2 1739.34,-170.76 1725.31,-160.81"/>
<polygon fill="black" stroke="black" points="1727.33,-157.95 1717.14,-155.02 1723.28,-163.66 1727.33,-157.95"/>
</g>
<!-- 385 -->
<g id="node22" class="node">
<title>385</title>
<polygon fill="#fae4d5" stroke="black" points="2180.5,-155 1869.5,-155 1869.5,-72 2180.5,-72 2180.5,-155"/>
<text text-anchor="middle" x="2025" y="-139.8" font-family="Times,serif" font-size="14.00">nbproc &lt;= 4.5</text>
<text text-anchor="middle" x="2025" y="-124.8" font-family="Times,serif" font-size="14.00">gini = 0.735</text>
<text text-anchor="middle" x="2025" y="-109.8" font-family="Times,serif" font-size="14.00">samples = 2324</text>
<text text-anchor="middle" x="2025" y="-94.8" font-family="Times,serif" font-size="14.00">value = [951, 66, 121, 166, 65, 371, 584]</text>
<text text-anchor="middle" x="2025" y="-79.8" font-family="Times,serif" font-size="14.00">class = rku</text>
</g>
<!-- 289&#45;&gt;385 -->
<g id="edge21" class="edge">
<title>289&#45;&gt;385</title>
<path fill="none" stroke="black" d="M1894.39,-190.91C1911.3,-181.02 1929.5,-170.37 1946.79,-160.25"/>
<polygon fill="black" stroke="black" points="1948.87,-163.09 1955.73,-155.02 1945.33,-157.05 1948.87,-163.09"/>
</g>
<!-- 291 -->
<g id="node20" class="node">
<title>291</title>
<polygon fill="#c0c0c0" stroke="black" points="1651,-36 1597,-36 1597,0 1651,0 1651,-36"/>
<text text-anchor="middle" x="1624" y="-14.3" font-family="Times,serif" font-size="14.00">(...)</text>
</g>
<!-- 290&#45;&gt;291 -->
<g id="edge19" class="edge">
<title>290&#45;&gt;291</title>
<path fill="none" stroke="black" d="M1644.31,-71.76C1640.96,-63.04 1637.49,-54.04 1634.39,-45.99"/>
<polygon fill="black" stroke="black" points="1637.56,-44.48 1630.7,-36.41 1631.03,-46.99 1637.56,-44.48"/>
</g>
<!-- 314 -->
<g id="node21" class="node">
<title>314</title>
<polygon fill="#c0c0c0" stroke="black" points="1723,-36 1669,-36 1669,0 1723,0 1723,-36"/>
<text text-anchor="middle" x="1696" y="-14.3" font-family="Times,serif" font-size="14.00">(...)</text>
</g>
<!-- 290&#45;&gt;314 -->
<g id="edge20" class="edge">
<title>290&#45;&gt;314</title>
<path fill="none" stroke="black" d="M1675.69,-71.76C1679.04,-63.04 1682.51,-54.04 1685.61,-45.99"/>
<polygon fill="black" stroke="black" points="1688.97,-46.99 1689.3,-36.41 1682.44,-44.48 1688.97,-46.99"/>
</g>
<!-- 386 -->
<g id="node23" class="node">
<title>386</title>
<polygon fill="#c0c0c0" stroke="black" points="2016,-36 1962,-36 1962,0 2016,0 2016,-36"/>
<text text-anchor="middle" x="1989" y="-14.3" font-family="Times,serif" font-size="14.00">(...)</text>
</g>
<!-- 385&#45;&gt;386 -->
<g id="edge22" class="edge">
<title>385&#45;&gt;386</title>
<path fill="none" stroke="black" d="M2009.31,-71.76C2005.96,-63.04 2002.49,-54.04 1999.39,-45.99"/>
<polygon fill="black" stroke="black" points="2002.56,-44.48 1995.7,-36.41 1996.03,-46.99 2002.56,-44.48"/>
</g>
<!-- 433 -->
<g id="node24" class="node">
<title>433</title>
<polygon fill="#c0c0c0" stroke="black" points="2088,-36 2034,-36 2034,0 2088,0 2088,-36"/>
<text text-anchor="middle" x="2061" y="-14.3" font-family="Times,serif" font-size="14.00">(...)</text>
</g>
<!-- 385&#45;&gt;433 -->
<g id="edge23" class="edge">
<title>385&#45;&gt;433</title>
<path fill="none" stroke="black" d="M2040.69,-71.76C2044.04,-63.04 2047.51,-54.04 2050.61,-45.99"/>
<polygon fill="black" stroke="black" points="2053.97,-46.99 2054.3,-36.41 2047.44,-44.48 2053.97,-46.99"/>
</g>
<!-- 481 -->
<g id="node26" class="node">
<title>481</title>
<polygon fill="#fffeff" stroke="black" points="2591,-155 2199,-155 2199,-72 2591,-72 2591,-155"/>
<text text-anchor="middle" x="2395" y="-139.8" font-family="Times,serif" font-size="14.00">graphDepth &lt;= 9.0</text>
<text text-anchor="middle" x="2395" y="-124.8" font-family="Times,serif" font-size="14.00">gini = 0.848</text>
<text text-anchor="middle" x="2395" y="-109.8" font-family="Times,serif" font-size="14.00">samples = 19086</text>
<text text-anchor="middle" x="2395" y="-94.8" font-family="Times,serif" font-size="14.00">value = [3359, 3001, 1261, 2225, 3017, 2807, 3416]</text>
<text text-anchor="middle" x="2395" y="-79.8" font-family="Times,serif" font-size="14.00">class = rkuad</text>
</g>
<!-- 480&#45;&gt;481 -->
<g id="edge25" class="edge">
<title>480&#45;&gt;481</title>
<path fill="none" stroke="black" d="M2395,-190.91C2395,-182.65 2395,-173.86 2395,-165.3"/>
<polygon fill="black" stroke="black" points="2398.5,-165.02 2395,-155.02 2391.5,-165.02 2398.5,-165.02"/>
</g>
<!-- 672 -->
<g id="node29" class="node">
<title>672</title>
<polygon fill="#fffefd" stroke="black" points="3001,-155 2609,-155 2609,-72 3001,-72 3001,-155"/>
<text text-anchor="middle" x="2805" y="-139.8" font-family="Times,serif" font-size="14.00">sdComp &lt;= 6.5</text>
<text text-anchor="middle" x="2805" y="-124.8" font-family="Times,serif" font-size="14.00">gini = 0.843</text>
<text text-anchor="middle" x="2805" y="-109.8" font-family="Times,serif" font-size="14.00">samples = 18194</text>
<text text-anchor="middle" x="2805" y="-94.8" font-family="Times,serif" font-size="14.00">value = [3485, 3171, 1014, 2549, 1857, 2757, 3361]</text>
<text text-anchor="middle" x="2805" y="-79.8" font-family="Times,serif" font-size="14.00">class = rku</text>
</g>
<!-- 480&#45;&gt;672 -->
<g id="edge28" class="edge">
<title>480&#45;&gt;672</title>
<path fill="none" stroke="black" d="M2536.96,-190.99C2574.34,-180.32 2614.82,-168.77 2652.72,-157.96"/>
<polygon fill="black" stroke="black" points="2654.16,-161.18 2662.82,-155.07 2652.24,-154.45 2654.16,-161.18"/>
</g>
<!-- 482 -->
<g id="node27" class="node">
<title>482</title>
<polygon fill="#c0c0c0" stroke="black" points="2386,-36 2332,-36 2332,0 2386,0 2386,-36"/>
<text text-anchor="middle" x="2359" y="-14.3" font-family="Times,serif" font-size="14.00">(...)</text>
</g>
<!-- 481&#45;&gt;482 -->
<g id="edge26" class="edge">
<title>481&#45;&gt;482</title>
<path fill="none" stroke="black" d="M2379.31,-71.76C2375.96,-63.04 2372.49,-54.04 2369.39,-45.99"/>
<polygon fill="black" stroke="black" points="2372.56,-44.48 2365.7,-36.41 2366.03,-46.99 2372.56,-44.48"/>
</g>
<!-- 577 -->
<g id="node28" class="node">
<title>577</title>
<polygon fill="#c0c0c0" stroke="black" points="2458,-36 2404,-36 2404,0 2458,0 2458,-36"/>
<text text-anchor="middle" x="2431" y="-14.3" font-family="Times,serif" font-size="14.00">(...)</text>
</g>
<!-- 481&#45;&gt;577 -->
<g id="edge27" class="edge">
<title>481&#45;&gt;577</title>
<path fill="none" stroke="black" d="M2410.69,-71.76C2414.04,-63.04 2417.51,-54.04 2420.61,-45.99"/>
<polygon fill="black" stroke="black" points="2423.97,-46.99 2424.3,-36.41 2417.44,-44.48 2423.97,-46.99"/>
</g>
<!-- 673 -->
<g id="node30" class="node">
<title>673</title>
<polygon fill="#c0c0c0" stroke="black" points="2796,-36 2742,-36 2742,0 2796,0 2796,-36"/>
<text text-anchor="middle" x="2769" y="-14.3" font-family="Times,serif" font-size="14.00">(...)</text>
</g>
<!-- 672&#45;&gt;673 -->
<g id="edge29" class="edge">
<title>672&#45;&gt;673</title>
<path fill="none" stroke="black" d="M2789.31,-71.76C2785.96,-63.04 2782.49,-54.04 2779.39,-45.99"/>
<polygon fill="black" stroke="black" points="2782.56,-44.48 2775.7,-36.41 2776.03,-46.99 2782.56,-44.48"/>
</g>
<!-- 816 -->
<g id="node31" class="node">
<title>816</title>
<polygon fill="#c0c0c0" stroke="black" points="2868,-36 2814,-36 2814,0 2868,0 2868,-36"/>
<text text-anchor="middle" x="2841" y="-14.3" font-family="Times,serif" font-size="14.00">(...)</text>
</g>
<!-- 672&#45;&gt;816 -->
<g id="edge30" class="edge">
<title>672&#45;&gt;816</title>
<path fill="none" stroke="black" d="M2820.69,-71.76C2824.04,-63.04 2827.51,-54.04 2830.61,-45.99"/>
<polygon fill="black" stroke="black" points="2833.97,-46.99 2834.3,-36.41 2827.44,-44.48 2833.97,-46.99"/>
</g>
</g>
</svg>
