<?xml version="1.0" encoding="UTF-8" standalone="no"?>
<!DOCTYPE svg PUBLIC "-//W3C//DTD SVG 1.1//EN"
 "http://www.w3.org/Graphics/SVG/1.1/DTD/svg11.dtd">
<!-- Generated by graphviz version 2.43.0 (0)
 -->
<!-- Title: Tree Pages: 1 -->
<svg width="1758pt" height="520pt"
 viewBox="0.00 0.00 1757.50 520.00" xmlns="http://www.w3.org/2000/svg" xmlns:xlink="http://www.w3.org/1999/xlink">
<g id="graph0" class="graph" transform="scale(1 1) rotate(0) translate(4 516)">
<title>Tree</title>
<polygon fill="white" stroke="transparent" points="-4,4 -4,-516 1753.5,-516 1753.5,4 -4,4"/>
<!-- 0 -->
<g id="node1" class="node">
<title>0</title>
<polygon fill="#f5f0fd" stroke="black" points="997,-512 758,-512 758,-429 997,-429 997,-512"/>
<text text-anchor="middle" x="877.5" y="-496.8" font-family="Times,serif" font-size="14.00">CCR &lt;= 5.5</text>
<text text-anchor="middle" x="877.5" y="-481.8" font-family="Times,serif" font-size="14.00">gini = 0.641</text>
<text text-anchor="middle" x="877.5" y="-466.8" font-family="Times,serif" font-size="14.00">samples = 81337</text>
<text text-anchor="middle" x="877.5" y="-451.8" font-family="Times,serif" font-size="14.00">value = [16792, 30318, 34227]</text>
<text text-anchor="middle" x="877.5" y="-436.8" font-family="Times,serif" font-size="14.00">class = None</text>
</g>
<!-- 1 -->
<g id="node2" class="node">
<title>1</title>
<polygon fill="#b7f6d1" stroke="black" points="780.5,-393 550.5,-393 550.5,-310 780.5,-310 780.5,-393"/>
<text text-anchor="middle" x="665.5" y="-377.8" font-family="Times,serif" font-size="14.00">graphSize &lt;= 22.5</text>
<text text-anchor="middle" x="665.5" y="-362.8" font-family="Times,serif" font-size="14.00">gini = 0.585</text>
<text text-anchor="middle" x="665.5" y="-347.8" font-family="Times,serif" font-size="14.00">samples = 50129</text>
<text text-anchor="middle" x="665.5" y="-332.8" font-family="Times,serif" font-size="14.00">value = [14817, 27622, 7690]</text>
<text text-anchor="middle" x="665.5" y="-317.8" font-family="Times,serif" font-size="14.00">class = DCP</text>
</g>
<!-- 0&#45;&gt;1 -->
<g id="edge1" class="edge">
<title>0&#45;&gt;1</title>
<path fill="none" stroke="black" d="M803.95,-428.91C785.86,-418.92 766.38,-408.17 747.9,-397.98"/>
<polygon fill="black" stroke="black" points="749.37,-394.79 738.92,-393.02 745.99,-400.92 749.37,-394.79"/>
<text text-anchor="middle" x="745.86" y="-413.34" font-family="Times,serif" font-size="14.00">True</text>
</g>
<!-- 574 -->
<g id="node17" class="node">
<title>574</title>
<polygon fill="#9659e9" stroke="black" points="1216,-393 995,-393 995,-310 1216,-310 1216,-393"/>
<text text-anchor="middle" x="1105.5" y="-377.8" font-family="Times,serif" font-size="14.00">sdComp &lt;= 6.5</text>
<text text-anchor="middle" x="1105.5" y="-362.8" font-family="Times,serif" font-size="14.00">gini = 0.265</text>
<text text-anchor="middle" x="1105.5" y="-347.8" font-family="Times,serif" font-size="14.00">samples = 31208</text>
<text text-anchor="middle" x="1105.5" y="-332.8" font-family="Times,serif" font-size="14.00">value = [1975, 2696, 26537]</text>
<text text-anchor="middle" x="1105.5" y="-317.8" font-family="Times,serif" font-size="14.00">class = None</text>
</g>
<!-- 0&#45;&gt;574 -->
<g id="edge16" class="edge">
<title>0&#45;&gt;574</title>
<path fill="none" stroke="black" d="M956.6,-428.91C976.23,-418.83 997.39,-407.98 1017.42,-397.7"/>
<polygon fill="black" stroke="black" points="1019.24,-400.7 1026.54,-393.02 1016.04,-394.47 1019.24,-400.7"/>
<text text-anchor="middle" x="1018.88" y="-413.12" font-family="Times,serif" font-size="14.00">False</text>
</g>
<!-- 2 -->
<g id="node3" class="node">
<title>2</title>
<polygon fill="#caf8dd" stroke="black" points="446.5,-274 216.5,-274 216.5,-191 446.5,-191 446.5,-274"/>
<text text-anchor="middle" x="331.5" y="-258.8" font-family="Times,serif" font-size="14.00">sdComm &lt;= 0.02</text>
<text text-anchor="middle" x="331.5" y="-243.8" font-family="Times,serif" font-size="14.00">gini = 0.595</text>
<text text-anchor="middle" x="331.5" y="-228.8" font-family="Times,serif" font-size="14.00">samples = 33943</text>
<text text-anchor="middle" x="331.5" y="-213.8" font-family="Times,serif" font-size="14.00">value = [11642, 17576, 4725]</text>
<text text-anchor="middle" x="331.5" y="-198.8" font-family="Times,serif" font-size="14.00">class = DCP</text>
</g>
<!-- 1&#45;&gt;2 -->
<g id="edge2" class="edge">
<title>1&#45;&gt;2</title>
<path fill="none" stroke="black" d="M550.09,-310.07C519.76,-299.45 486.91,-287.94 456.12,-277.15"/>
<polygon fill="black" stroke="black" points="457.23,-273.83 446.63,-273.83 454.91,-280.44 457.23,-273.83"/>
</g>
<!-- 145 -->
<g id="node10" class="node">
<title>145</title>
<polygon fill="#96f1bc" stroke="black" points="776,-274 555,-274 555,-191 776,-191 776,-274"/>
<text text-anchor="middle" x="665.5" y="-258.8" font-family="Times,serif" font-size="14.00">sdComm &lt;= 0.65</text>
<text text-anchor="middle" x="665.5" y="-243.8" font-family="Times,serif" font-size="14.00">gini = 0.543</text>
<text text-anchor="middle" x="665.5" y="-228.8" font-family="Times,serif" font-size="14.00">samples = 16186</text>
<text text-anchor="middle" x="665.5" y="-213.8" font-family="Times,serif" font-size="14.00">value = [3175, 10046, 2965]</text>
<text text-anchor="middle" x="665.5" y="-198.8" font-family="Times,serif" font-size="14.00">class = DCP</text>
</g>
<!-- 1&#45;&gt;145 -->
<g id="edge9" class="edge">
<title>1&#45;&gt;145</title>
<path fill="none" stroke="black" d="M665.5,-309.91C665.5,-301.65 665.5,-292.86 665.5,-284.3"/>
<polygon fill="black" stroke="black" points="669,-284.02 665.5,-274.02 662,-284.02 669,-284.02"/>
</g>
<!-- 3 -->
<g id="node4" class="node">
<title>3</title>
<polygon fill="#fffefe" stroke="black" points="203,-155 0,-155 0,-72 203,-72 203,-155"/>
<text text-anchor="middle" x="101.5" y="-139.8" font-family="Times,serif" font-size="14.00">sdComp &lt;= 0.02</text>
<text text-anchor="middle" x="101.5" y="-124.8" font-family="Times,serif" font-size="14.00">gini = 0.577</text>
<text text-anchor="middle" x="101.5" y="-109.8" font-family="Times,serif" font-size="14.00">samples = 7429</text>
<text text-anchor="middle" x="101.5" y="-94.8" font-family="Times,serif" font-size="14.00">value = [3394, 3375, 660]</text>
<text text-anchor="middle" x="101.5" y="-79.8" font-family="Times,serif" font-size="14.00">class = DLS/DC</text>
</g>
<!-- 2&#45;&gt;3 -->
<g id="edge3" class="edge">
<title>2&#45;&gt;3</title>
<path fill="none" stroke="black" d="M251.7,-190.91C231.81,-180.79 210.36,-169.88 190.08,-159.56"/>
<polygon fill="black" stroke="black" points="191.66,-156.44 181.16,-155.02 188.48,-162.67 191.66,-156.44"/>
</g>
<!-- 26 -->
<g id="node7" class="node">
<title>26</title>
<polygon fill="#bef7d6" stroke="black" points="442,-155 221,-155 221,-72 442,-72 442,-155"/>
<text text-anchor="middle" x="331.5" y="-139.8" font-family="Times,serif" font-size="14.00">graphDepth &lt;= 3.5</text>
<text text-anchor="middle" x="331.5" y="-124.8" font-family="Times,serif" font-size="14.00">gini = 0.593</text>
<text text-anchor="middle" x="331.5" y="-109.8" font-family="Times,serif" font-size="14.00">samples = 26514</text>
<text text-anchor="middle" x="331.5" y="-94.8" font-family="Times,serif" font-size="14.00">value = [8248, 14201, 4065]</text>
<text text-anchor="middle" x="331.5" y="-79.8" font-family="Times,serif" font-size="14.00">class = DCP</text>
</g>
<!-- 2&#45;&gt;26 -->
<g id="edge6" class="edge">
<title>2&#45;&gt;26</title>
<path fill="none" stroke="black" d="M331.5,-190.91C331.5,-182.65 331.5,-173.86 331.5,-165.3"/>
<polygon fill="black" stroke="black" points="335,-165.02 331.5,-155.02 328,-165.02 335,-165.02"/>
</g>
<!-- 4 -->
<g id="node5" class="node">
<title>4</title>
<polygon fill="#c0c0c0" stroke="black" points="92.5,-36 38.5,-36 38.5,0 92.5,0 92.5,-36"/>
<text text-anchor="middle" x="65.5" y="-14.3" font-family="Times,serif" font-size="14.00">(...)</text>
</g>
<!-- 3&#45;&gt;4 -->
<g id="edge4" class="edge">
<title>3&#45;&gt;4</title>
<path fill="none" stroke="black" d="M85.81,-71.76C82.46,-63.04 78.99,-54.04 75.89,-45.99"/>
<polygon fill="black" stroke="black" points="79.06,-44.48 72.2,-36.41 72.53,-46.99 79.06,-44.48"/>
</g>
<!-- 11 -->
<g id="node6" class="node">
<title>11</title>
<polygon fill="#c0c0c0" stroke="black" points="164.5,-36 110.5,-36 110.5,0 164.5,0 164.5,-36"/>
<text text-anchor="middle" x="137.5" y="-14.3" font-family="Times,serif" font-size="14.00">(...)</text>
</g>
<!-- 3&#45;&gt;11 -->
<g id="edge5" class="edge">
<title>3&#45;&gt;11</title>
<path fill="none" stroke="black" d="M117.19,-71.76C120.54,-63.04 124.01,-54.04 127.11,-45.99"/>
<polygon fill="black" stroke="black" points="130.47,-46.99 130.8,-36.41 123.94,-44.48 130.47,-46.99"/>
</g>
<!-- 27 -->
<g id="node8" class="node">
<title>27</title>
<polygon fill="#c0c0c0" stroke="black" points="322.5,-36 268.5,-36 268.5,0 322.5,0 322.5,-36"/>
<text text-anchor="middle" x="295.5" y="-14.3" font-family="Times,serif" font-size="14.00">(...)</text>
</g>
<!-- 26&#45;&gt;27 -->
<g id="edge7" class="edge">
<title>26&#45;&gt;27</title>
<path fill="none" stroke="black" d="M315.81,-71.76C312.46,-63.04 308.99,-54.04 305.89,-45.99"/>
<polygon fill="black" stroke="black" points="309.06,-44.48 302.2,-36.41 302.53,-46.99 309.06,-44.48"/>
</g>
<!-- 86 -->
<g id="node9" class="node">
<title>86</title>
<polygon fill="#c0c0c0" stroke="black" points="394.5,-36 340.5,-36 340.5,0 394.5,0 394.5,-36"/>
<text text-anchor="middle" x="367.5" y="-14.3" font-family="Times,serif" font-size="14.00">(...)</text>
</g>
<!-- 26&#45;&gt;86 -->
<g id="edge8" class="edge">
<title>26&#45;&gt;86</title>
<path fill="none" stroke="black" d="M347.19,-71.76C350.54,-63.04 354.01,-54.04 357.11,-45.99"/>
<polygon fill="black" stroke="black" points="360.47,-46.99 360.8,-36.41 353.94,-44.48 360.47,-46.99"/>
</g>
<!-- 146 -->
<g id="node11" class="node">
<title>146</title>
<polygon fill="#8ff0b8" stroke="black" points="672.5,-155 460.5,-155 460.5,-72 672.5,-72 672.5,-155"/>
<text text-anchor="middle" x="566.5" y="-139.8" font-family="Times,serif" font-size="14.00">sdComp &lt;= 0.2</text>
<text text-anchor="middle" x="566.5" y="-124.8" font-family="Times,serif" font-size="14.00">gini = 0.524</text>
<text text-anchor="middle" x="566.5" y="-109.8" font-family="Times,serif" font-size="14.00">samples = 13949</text>
<text text-anchor="middle" x="566.5" y="-94.8" font-family="Times,serif" font-size="14.00">value = [2499, 8957, 2493]</text>
<text text-anchor="middle" x="566.5" y="-79.8" font-family="Times,serif" font-size="14.00">class = DCP</text>
</g>
<!-- 145&#45;&gt;146 -->
<g id="edge10" class="edge">
<title>145&#45;&gt;146</title>
<path fill="none" stroke="black" d="M631.15,-190.91C623.47,-181.83 615.26,-172.12 607.34,-162.77"/>
<polygon fill="black" stroke="black" points="609.92,-160.39 600.79,-155.02 604.57,-164.92 609.92,-160.39"/>
</g>
<!-- 503 -->
<g id="node14" class="node">
<title>503</title>
<polygon fill="#cbf8de" stroke="black" points="884.5,-155 690.5,-155 690.5,-72 884.5,-72 884.5,-155"/>
<text text-anchor="middle" x="787.5" y="-139.8" font-family="Times,serif" font-size="14.00">sdComp &lt;= 0.2</text>
<text text-anchor="middle" x="787.5" y="-124.8" font-family="Times,serif" font-size="14.00">gini = 0.627</text>
<text text-anchor="middle" x="787.5" y="-109.8" font-family="Times,serif" font-size="14.00">samples = 2237</text>
<text text-anchor="middle" x="787.5" y="-94.8" font-family="Times,serif" font-size="14.00">value = [676, 1089, 472]</text>
<text text-anchor="middle" x="787.5" y="-79.8" font-family="Times,serif" font-size="14.00">class = DCP</text>
</g>
<!-- 145&#45;&gt;503 -->
<g id="edge13" class="edge">
<title>145&#45;&gt;503</title>
<path fill="none" stroke="black" d="M707.83,-190.91C717.48,-181.65 727.82,-171.73 737.75,-162.21"/>
<polygon fill="black" stroke="black" points="740.45,-164.47 745.25,-155.02 735.61,-159.42 740.45,-164.47"/>
</g>
<!-- 147 -->
<g id="node12" class="node">
<title>147</title>
<polygon fill="#c0c0c0" stroke="black" points="557.5,-36 503.5,-36 503.5,0 557.5,0 557.5,-36"/>
<text text-anchor="middle" x="530.5" y="-14.3" font-family="Times,serif" font-size="14.00">(...)</text>
</g>
<!-- 146&#45;&gt;147 -->
<g id="edge11" class="edge">
<title>146&#45;&gt;147</title>
<path fill="none" stroke="black" d="M550.81,-71.76C547.46,-63.04 543.99,-54.04 540.89,-45.99"/>
<polygon fill="black" stroke="black" points="544.06,-44.48 537.2,-36.41 537.53,-46.99 544.06,-44.48"/>
</g>
<!-- 410 -->
<g id="node13" class="node">
<title>410</title>
<polygon fill="#c0c0c0" stroke="black" points="629.5,-36 575.5,-36 575.5,0 629.5,0 629.5,-36"/>
<text text-anchor="middle" x="602.5" y="-14.3" font-family="Times,serif" font-size="14.00">(...)</text>
</g>
<!-- 146&#45;&gt;410 -->
<g id="edge12" class="edge">
<title>146&#45;&gt;410</title>
<path fill="none" stroke="black" d="M582.19,-71.76C585.54,-63.04 589.01,-54.04 592.11,-45.99"/>
<polygon fill="black" stroke="black" points="595.47,-46.99 595.8,-36.41 588.94,-44.48 595.47,-46.99"/>
</g>
<!-- 504 -->
<g id="node15" class="node">
<title>504</title>
<polygon fill="#c0c0c0" stroke="black" points="776.5,-36 722.5,-36 722.5,0 776.5,0 776.5,-36"/>
<text text-anchor="middle" x="749.5" y="-14.3" font-family="Times,serif" font-size="14.00">(...)</text>
</g>
<!-- 503&#45;&gt;504 -->
<g id="edge14" class="edge">
<title>503&#45;&gt;504</title>
<path fill="none" stroke="black" d="M770.94,-71.76C767.36,-62.94 763.66,-53.84 760.36,-45.72"/>
<polygon fill="black" stroke="black" points="763.58,-44.35 756.57,-36.41 757.1,-46.99 763.58,-44.35"/>
</g>
<!-- 527 -->
<g id="node16" class="node">
<title>527</title>
<polygon fill="#c0c0c0" stroke="black" points="848.5,-36 794.5,-36 794.5,0 848.5,0 848.5,-36"/>
<text text-anchor="middle" x="821.5" y="-14.3" font-family="Times,serif" font-size="14.00">(...)</text>
</g>
<!-- 503&#45;&gt;527 -->
<g id="edge15" class="edge">
<title>503&#45;&gt;527</title>
<path fill="none" stroke="black" d="M802.31,-71.76C805.48,-63.04 808.76,-54.04 811.68,-45.99"/>
<polygon fill="black" stroke="black" points="815.04,-47 815.17,-36.41 808.46,-44.61 815.04,-47"/>
</g>
<!-- 575 -->
<g id="node18" class="node">
<title>575</title>
<polygon fill="#9152e8" stroke="black" points="1211.5,-274 999.5,-274 999.5,-191 1211.5,-191 1211.5,-274"/>
<text text-anchor="middle" x="1105.5" y="-258.8" font-family="Times,serif" font-size="14.00">sdComm &lt;= 2.0</text>
<text text-anchor="middle" x="1105.5" y="-243.8" font-family="Times,serif" font-size="14.00">gini = 0.213</text>
<text text-anchor="middle" x="1105.5" y="-228.8" font-family="Times,serif" font-size="14.00">samples = 22228</text>
<text text-anchor="middle" x="1105.5" y="-213.8" font-family="Times,serif" font-size="14.00">value = [832, 1770, 19626]</text>
<text text-anchor="middle" x="1105.5" y="-198.8" font-family="Times,serif" font-size="14.00">class = None</text>
</g>
<!-- 574&#45;&gt;575 -->
<g id="edge17" class="edge">
<title>574&#45;&gt;575</title>
<path fill="none" stroke="black" d="M1105.5,-309.91C1105.5,-301.65 1105.5,-292.86 1105.5,-284.3"/>
<polygon fill="black" stroke="black" points="1109,-284.02 1105.5,-274.02 1102,-284.02 1109,-284.02"/>
</g>
<!-- 716 -->
<g id="node25" class="node">
<title>716</title>
<polygon fill="#a26dec" stroke="black" points="1538,-274 1335,-274 1335,-191 1538,-191 1538,-274"/>
<text text-anchor="middle" x="1436.5" y="-258.8" font-family="Times,serif" font-size="14.00">nbproc &lt;= 4.5</text>
<text text-anchor="middle" x="1436.5" y="-243.8" font-family="Times,serif" font-size="14.00">gini = 0.381</text>
<text text-anchor="middle" x="1436.5" y="-228.8" font-family="Times,serif" font-size="14.00">samples = 8980</text>
<text text-anchor="middle" x="1436.5" y="-213.8" font-family="Times,serif" font-size="14.00">value = [1143, 926, 6911]</text>
<text text-anchor="middle" x="1436.5" y="-198.8" font-family="Times,serif" font-size="14.00">class = None</text>
</g>
<!-- 574&#45;&gt;716 -->
<g id="edge24" class="edge">
<title>574&#45;&gt;716</title>
<path fill="none" stroke="black" d="M1216.18,-311.38C1251.22,-298.99 1289.96,-285.3 1325.06,-272.89"/>
<polygon fill="black" stroke="black" points="1326.6,-276.06 1334.86,-269.43 1324.26,-269.46 1326.6,-276.06"/>
</g>
<!-- 576 -->
<g id="node19" class="node">
<title>576</title>
<polygon fill="#9b61ea" stroke="black" points="1096.5,-155 902.5,-155 902.5,-72 1096.5,-72 1096.5,-155"/>
<text text-anchor="middle" x="999.5" y="-139.8" font-family="Times,serif" font-size="14.00">graphDepth &lt;= 9.0</text>
<text text-anchor="middle" x="999.5" y="-124.8" font-family="Times,serif" font-size="14.00">gini = 0.303</text>
<text text-anchor="middle" x="999.5" y="-109.8" font-family="Times,serif" font-size="14.00">samples = 6813</text>
<text text-anchor="middle" x="999.5" y="-94.8" font-family="Times,serif" font-size="14.00">value = [330, 874, 5609]</text>
<text text-anchor="middle" x="999.5" y="-79.8" font-family="Times,serif" font-size="14.00">class = None</text>
</g>
<!-- 575&#45;&gt;576 -->
<g id="edge18" class="edge">
<title>575&#45;&gt;576</title>
<path fill="none" stroke="black" d="M1068.72,-190.91C1060.42,-181.74 1051.53,-171.93 1042.98,-162.49"/>
<polygon fill="black" stroke="black" points="1045.52,-160.08 1036.21,-155.02 1040.33,-164.78 1045.52,-160.08"/>
</g>
<!-- 619 -->
<g id="node22" class="node">
<title>619</title>
<polygon fill="#8d4ce8" stroke="black" points="1317,-155 1114,-155 1114,-72 1317,-72 1317,-155"/>
<text text-anchor="middle" x="1215.5" y="-139.8" font-family="Times,serif" font-size="14.00">sdComp &lt;= 2.0</text>
<text text-anchor="middle" x="1215.5" y="-124.8" font-family="Times,serif" font-size="14.00">gini = 0.169</text>
<text text-anchor="middle" x="1215.5" y="-109.8" font-family="Times,serif" font-size="14.00">samples = 15415</text>
<text text-anchor="middle" x="1215.5" y="-94.8" font-family="Times,serif" font-size="14.00">value = [502, 896, 14017]</text>
<text text-anchor="middle" x="1215.5" y="-79.8" font-family="Times,serif" font-size="14.00">class = None</text>
</g>
<!-- 575&#45;&gt;619 -->
<g id="edge21" class="edge">
<title>575&#45;&gt;619</title>
<path fill="none" stroke="black" d="M1143.66,-190.91C1152.28,-181.74 1161.51,-171.93 1170.38,-162.49"/>
<polygon fill="black" stroke="black" points="1173.1,-164.7 1177.4,-155.02 1168,-159.91 1173.1,-164.7"/>
</g>
<!-- 577 -->
<g id="node20" class="node">
<title>577</title>
<polygon fill="#c0c0c0" stroke="black" points="990.5,-36 936.5,-36 936.5,0 990.5,0 990.5,-36"/>
<text text-anchor="middle" x="963.5" y="-14.3" font-family="Times,serif" font-size="14.00">(...)</text>
</g>
<!-- 576&#45;&gt;577 -->
<g id="edge19" class="edge">
<title>576&#45;&gt;577</title>
<path fill="none" stroke="black" d="M983.81,-71.76C980.46,-63.04 976.99,-54.04 973.89,-45.99"/>
<polygon fill="black" stroke="black" points="977.06,-44.48 970.2,-36.41 970.53,-46.99 977.06,-44.48"/>
</g>
<!-- 594 -->
<g id="node21" class="node">
<title>594</title>
<polygon fill="#c0c0c0" stroke="black" points="1062.5,-36 1008.5,-36 1008.5,0 1062.5,0 1062.5,-36"/>
<text text-anchor="middle" x="1035.5" y="-14.3" font-family="Times,serif" font-size="14.00">(...)</text>
</g>
<!-- 576&#45;&gt;594 -->
<g id="edge20" class="edge">
<title>576&#45;&gt;594</title>
<path fill="none" stroke="black" d="M1015.19,-71.76C1018.54,-63.04 1022.01,-54.04 1025.11,-45.99"/>
<polygon fill="black" stroke="black" points="1028.47,-46.99 1028.8,-36.41 1021.94,-44.48 1028.47,-46.99"/>
</g>
<!-- 620 -->
<g id="node23" class="node">
<title>620</title>
<polygon fill="#c0c0c0" stroke="black" points="1206.5,-36 1152.5,-36 1152.5,0 1206.5,0 1206.5,-36"/>
<text text-anchor="middle" x="1179.5" y="-14.3" font-family="Times,serif" font-size="14.00">(...)</text>
</g>
<!-- 619&#45;&gt;620 -->
<g id="edge22" class="edge">
<title>619&#45;&gt;620</title>
<path fill="none" stroke="black" d="M1199.81,-71.76C1196.46,-63.04 1192.99,-54.04 1189.89,-45.99"/>
<polygon fill="black" stroke="black" points="1193.06,-44.48 1186.2,-36.41 1186.53,-46.99 1193.06,-44.48"/>
</g>
<!-- 671 -->
<g id="node24" class="node">
<title>671</title>
<polygon fill="#c0c0c0" stroke="black" points="1278.5,-36 1224.5,-36 1224.5,0 1278.5,0 1278.5,-36"/>
<text text-anchor="middle" x="1251.5" y="-14.3" font-family="Times,serif" font-size="14.00">(...)</text>
</g>
<!-- 619&#45;&gt;671 -->
<g id="edge23" class="edge">
<title>619&#45;&gt;671</title>
<path fill="none" stroke="black" d="M1231.19,-71.76C1234.54,-63.04 1238.01,-54.04 1241.11,-45.99"/>
<polygon fill="black" stroke="black" points="1244.47,-46.99 1244.8,-36.41 1237.94,-44.48 1244.47,-46.99"/>
</g>
<!-- 717 -->
<g id="node26" class="node">
<title>717</title>
<polygon fill="#ae80ee" stroke="black" points="1538,-155 1335,-155 1335,-72 1538,-72 1538,-155"/>
<text text-anchor="middle" x="1436.5" y="-139.8" font-family="Times,serif" font-size="14.00">graphSize &lt;= 75.0</text>
<text text-anchor="middle" x="1436.5" y="-124.8" font-family="Times,serif" font-size="14.00">gini = 0.455</text>
<text text-anchor="middle" x="1436.5" y="-109.8" font-family="Times,serif" font-size="14.00">samples = 5606</text>
<text text-anchor="middle" x="1436.5" y="-94.8" font-family="Times,serif" font-size="14.00">value = [1012, 631, 3963]</text>
<text text-anchor="middle" x="1436.5" y="-79.8" font-family="Times,serif" font-size="14.00">class = None</text>
</g>
<!-- 716&#45;&gt;717 -->
<g id="edge25" class="edge">
<title>716&#45;&gt;717</title>
<path fill="none" stroke="black" d="M1436.5,-190.91C1436.5,-182.65 1436.5,-173.86 1436.5,-165.3"/>
<polygon fill="black" stroke="black" points="1440,-165.02 1436.5,-155.02 1433,-165.02 1440,-165.02"/>
</g>
<!-- 764 -->
<g id="node29" class="node">
<title>764</title>
<polygon fill="#9254e9" stroke="black" points="1749.5,-155 1555.5,-155 1555.5,-72 1749.5,-72 1749.5,-155"/>
<text text-anchor="middle" x="1652.5" y="-139.8" font-family="Times,serif" font-size="14.00">graphSize &lt;= 22.5</text>
<text text-anchor="middle" x="1652.5" y="-124.8" font-family="Times,serif" font-size="14.00">gini = 0.227</text>
<text text-anchor="middle" x="1652.5" y="-109.8" font-family="Times,serif" font-size="14.00">samples = 3374</text>
<text text-anchor="middle" x="1652.5" y="-94.8" font-family="Times,serif" font-size="14.00">value = [131, 295, 2948]</text>
<text text-anchor="middle" x="1652.5" y="-79.8" font-family="Times,serif" font-size="14.00">class = None</text>
</g>
<!-- 716&#45;&gt;764 -->
<g id="edge28" class="edge">
<title>716&#45;&gt;764</title>
<path fill="none" stroke="black" d="M1511.44,-190.91C1529.95,-180.88 1549.9,-170.07 1568.8,-159.84"/>
<polygon fill="black" stroke="black" points="1570.57,-162.86 1577.69,-155.02 1567.23,-156.71 1570.57,-162.86"/>
</g>
<!-- 718 -->
<g id="node27" class="node">
<title>718</title>
<polygon fill="#c0c0c0" stroke="black" points="1427.5,-36 1373.5,-36 1373.5,0 1427.5,0 1427.5,-36"/>
<text text-anchor="middle" x="1400.5" y="-14.3" font-family="Times,serif" font-size="14.00">(...)</text>
</g>
<!-- 717&#45;&gt;718 -->
<g id="edge26" class="edge">
<title>717&#45;&gt;718</title>
<path fill="none" stroke="black" d="M1420.81,-71.76C1417.46,-63.04 1413.99,-54.04 1410.89,-45.99"/>
<polygon fill="black" stroke="black" points="1414.06,-44.48 1407.2,-36.41 1407.53,-46.99 1414.06,-44.48"/>
</g>
<!-- 753 -->
<g id="node28" class="node">
<title>753</title>
<polygon fill="#c0c0c0" stroke="black" points="1499.5,-36 1445.5,-36 1445.5,0 1499.5,0 1499.5,-36"/>
<text text-anchor="middle" x="1472.5" y="-14.3" font-family="Times,serif" font-size="14.00">(...)</text>
</g>
<!-- 717&#45;&gt;753 -->
<g id="edge27" class="edge">
<title>717&#45;&gt;753</title>
<path fill="none" stroke="black" d="M1452.19,-71.76C1455.54,-63.04 1459.01,-54.04 1462.11,-45.99"/>
<polygon fill="black" stroke="black" points="1465.47,-46.99 1465.8,-36.41 1458.94,-44.48 1465.47,-46.99"/>
</g>
<!-- 765 -->
<g id="node30" class="node">
<title>765</title>
<polygon fill="#c0c0c0" stroke="black" points="1643.5,-36 1589.5,-36 1589.5,0 1643.5,0 1643.5,-36"/>
<text text-anchor="middle" x="1616.5" y="-14.3" font-family="Times,serif" font-size="14.00">(...)</text>
</g>
<!-- 764&#45;&gt;765 -->
<g id="edge29" class="edge">
<title>764&#45;&gt;765</title>
<path fill="none" stroke="black" d="M1636.81,-71.76C1633.46,-63.04 1629.99,-54.04 1626.89,-45.99"/>
<polygon fill="black" stroke="black" points="1630.06,-44.48 1623.2,-36.41 1623.53,-46.99 1630.06,-44.48"/>
</g>
<!-- 776 -->
<g id="node31" class="node">
<title>776</title>
<polygon fill="#c0c0c0" stroke="black" points="1715.5,-36 1661.5,-36 1661.5,0 1715.5,0 1715.5,-36"/>
<text text-anchor="middle" x="1688.5" y="-14.3" font-family="Times,serif" font-size="14.00">(...)</text>
</g>
<!-- 764&#45;&gt;776 -->
<g id="edge30" class="edge">
<title>764&#45;&gt;776</title>
<path fill="none" stroke="black" d="M1668.19,-71.76C1671.54,-63.04 1675.01,-54.04 1678.11,-45.99"/>
<polygon fill="black" stroke="black" points="1681.47,-46.99 1681.8,-36.41 1674.94,-44.48 1681.47,-46.99"/>
</g>
</g>
</svg>
