<?xml version="1.0" encoding="UTF-8" standalone="no"?>
<!DOCTYPE svg PUBLIC "-//W3C//DTD SVG 1.1//EN"
 "http://www.w3.org/Graphics/SVG/1.1/DTD/svg11.dtd">
<!-- Generated by graphviz version 2.43.0 (0)
 -->
<!-- Title: Tree Pages: 1 -->
<svg width="1354pt" height="520pt"
 viewBox="0.00 0.00 1354.00 520.00" xmlns="http://www.w3.org/2000/svg" xmlns:xlink="http://www.w3.org/1999/xlink">
<g id="graph0" class="graph" transform="scale(1 1) rotate(0) translate(4 516)">
<title>Tree</title>
<polygon fill="white" stroke="transparent" points="-4,4 -4,-516 1350,-516 1350,4 -4,4"/>
<!-- 0 -->
<g id="node1" class="node">
<title>0</title>
<polygon fill="#f1ba92" stroke="black" points="736,-512 569,-512 569,-429 736,-429 736,-512"/>
<text text-anchor="middle" x="652.5" y="-496.8" font-family="Times,serif" font-size="14.00">sdComm &lt;= 0.65</text>
<text text-anchor="middle" x="652.5" y="-481.8" font-family="Times,serif" font-size="14.00">gini = 0.427</text>
<text text-anchor="middle" x="652.5" y="-466.8" font-family="Times,serif" font-size="14.00">samples = 11670</text>
<text text-anchor="middle" x="652.5" y="-451.8" font-family="Times,serif" font-size="14.00">value = [8057, 3613]</text>
<text text-anchor="middle" x="652.5" y="-436.8" font-family="Times,serif" font-size="14.00">class = False</text>
</g>
<!-- 1 -->
<g id="node2" class="node">
<title>1</title>
<polygon fill="#eb9e67" stroke="black" points="564.5,-393 406.5,-393 406.5,-310 564.5,-310 564.5,-393"/>
<text text-anchor="middle" x="485.5" y="-377.8" font-family="Times,serif" font-size="14.00">graphDepth &lt;= 3.5</text>
<text text-anchor="middle" x="485.5" y="-362.8" font-family="Times,serif" font-size="14.00">gini = 0.306</text>
<text text-anchor="middle" x="485.5" y="-347.8" font-family="Times,serif" font-size="14.00">samples = 3554</text>
<text text-anchor="middle" x="485.5" y="-332.8" font-family="Times,serif" font-size="14.00">value = [2883, 671]</text>
<text text-anchor="middle" x="485.5" y="-317.8" font-family="Times,serif" font-size="14.00">class = False</text>
</g>
<!-- 0&#45;&gt;1 -->
<g id="edge1" class="edge">
<title>0&#45;&gt;1</title>
<path fill="none" stroke="black" d="M594.56,-428.91C580.7,-419.2 565.8,-408.76 551.6,-398.81"/>
<polygon fill="black" stroke="black" points="553.54,-395.89 543.34,-393.02 549.52,-401.63 553.54,-395.89"/>
<text text-anchor="middle" x="547.67" y="-413.94" font-family="Times,serif" font-size="14.00">True</text>
</g>
<!-- 160 -->
<g id="node17" class="node">
<title>160</title>
<polygon fill="#f4c9aa" stroke="black" points="907,-393 740,-393 740,-310 907,-310 907,-393"/>
<text text-anchor="middle" x="823.5" y="-377.8" font-family="Times,serif" font-size="14.00">sdComp &lt;= 6.5</text>
<text text-anchor="middle" x="823.5" y="-362.8" font-family="Times,serif" font-size="14.00">gini = 0.462</text>
<text text-anchor="middle" x="823.5" y="-347.8" font-family="Times,serif" font-size="14.00">samples = 8116</text>
<text text-anchor="middle" x="823.5" y="-332.8" font-family="Times,serif" font-size="14.00">value = [5174, 2942]</text>
<text text-anchor="middle" x="823.5" y="-317.8" font-family="Times,serif" font-size="14.00">class = False</text>
</g>
<!-- 0&#45;&gt;160 -->
<g id="edge16" class="edge">
<title>0&#45;&gt;160</title>
<path fill="none" stroke="black" d="M711.83,-428.91C726.02,-419.2 741.28,-408.76 755.81,-398.81"/>
<polygon fill="black" stroke="black" points="758,-401.56 764.28,-393.02 754.05,-395.78 758,-401.56"/>
<text text-anchor="middle" x="759.67" y="-413.89" font-family="Times,serif" font-size="14.00">False</text>
</g>
<!-- 2 -->
<g id="node3" class="node">
<title>2</title>
<polygon fill="#f5cfb3" stroke="black" points="312,-274 163,-274 163,-191 312,-191 312,-274"/>
<text text-anchor="middle" x="237.5" y="-258.8" font-family="Times,serif" font-size="14.00">nbproc &lt;= 4.5</text>
<text text-anchor="middle" x="237.5" y="-243.8" font-family="Times,serif" font-size="14.00">gini = 0.472</text>
<text text-anchor="middle" x="237.5" y="-228.8" font-family="Times,serif" font-size="14.00">samples = 720</text>
<text text-anchor="middle" x="237.5" y="-213.8" font-family="Times,serif" font-size="14.00">value = [445, 275]</text>
<text text-anchor="middle" x="237.5" y="-198.8" font-family="Times,serif" font-size="14.00">class = False</text>
</g>
<!-- 1&#45;&gt;2 -->
<g id="edge2" class="edge">
<title>1&#45;&gt;2</title>
<path fill="none" stroke="black" d="M406.35,-313.16C379.22,-300.36 348.78,-286 321.3,-273.04"/>
<polygon fill="black" stroke="black" points="322.64,-269.8 312.1,-268.7 319.65,-276.13 322.64,-269.8"/>
</g>
<!-- 41 -->
<g id="node10" class="node">
<title>41</title>
<polygon fill="#e99559" stroke="black" points="564.5,-274 406.5,-274 406.5,-191 564.5,-191 564.5,-274"/>
<text text-anchor="middle" x="485.5" y="-258.8" font-family="Times,serif" font-size="14.00">sdComp &lt;= 0.02</text>
<text text-anchor="middle" x="485.5" y="-243.8" font-family="Times,serif" font-size="14.00">gini = 0.24</text>
<text text-anchor="middle" x="485.5" y="-228.8" font-family="Times,serif" font-size="14.00">samples = 2834</text>
<text text-anchor="middle" x="485.5" y="-213.8" font-family="Times,serif" font-size="14.00">value = [2438, 396]</text>
<text text-anchor="middle" x="485.5" y="-198.8" font-family="Times,serif" font-size="14.00">class = False</text>
</g>
<!-- 1&#45;&gt;41 -->
<g id="edge9" class="edge">
<title>1&#45;&gt;41</title>
<path fill="none" stroke="black" d="M485.5,-309.91C485.5,-301.65 485.5,-292.86 485.5,-284.3"/>
<polygon fill="black" stroke="black" points="489,-284.02 485.5,-274.02 482,-284.02 489,-284.02"/>
</g>
<!-- 3 -->
<g id="node4" class="node">
<title>3</title>
<polygon fill="#fcf1e9" stroke="black" points="149,-155 0,-155 0,-72 149,-72 149,-155"/>
<text text-anchor="middle" x="74.5" y="-139.8" font-family="Times,serif" font-size="14.00">sdComp &lt;= 0.065</text>
<text text-anchor="middle" x="74.5" y="-124.8" font-family="Times,serif" font-size="14.00">gini = 0.498</text>
<text text-anchor="middle" x="74.5" y="-109.8" font-family="Times,serif" font-size="14.00">samples = 500</text>
<text text-anchor="middle" x="74.5" y="-94.8" font-family="Times,serif" font-size="14.00">value = [265, 235]</text>
<text text-anchor="middle" x="74.5" y="-79.8" font-family="Times,serif" font-size="14.00">class = False</text>
</g>
<!-- 2&#45;&gt;3 -->
<g id="edge3" class="edge">
<title>2&#45;&gt;3</title>
<path fill="none" stroke="black" d="M180.95,-190.91C167.55,-181.29 153.15,-170.95 139.41,-161.09"/>
<polygon fill="black" stroke="black" points="141.12,-158.01 130.95,-155.02 137.03,-163.7 141.12,-158.01"/>
</g>
<!-- 26 -->
<g id="node7" class="node">
<title>26</title>
<polygon fill="#eb9d65" stroke="black" points="307.5,-155 167.5,-155 167.5,-72 307.5,-72 307.5,-155"/>
<text text-anchor="middle" x="237.5" y="-139.8" font-family="Times,serif" font-size="14.00">sdComp &lt;= 0.2</text>
<text text-anchor="middle" x="237.5" y="-124.8" font-family="Times,serif" font-size="14.00">gini = 0.298</text>
<text text-anchor="middle" x="237.5" y="-109.8" font-family="Times,serif" font-size="14.00">samples = 220</text>
<text text-anchor="middle" x="237.5" y="-94.8" font-family="Times,serif" font-size="14.00">value = [180, 40]</text>
<text text-anchor="middle" x="237.5" y="-79.8" font-family="Times,serif" font-size="14.00">class = False</text>
</g>
<!-- 2&#45;&gt;26 -->
<g id="edge6" class="edge">
<title>2&#45;&gt;26</title>
<path fill="none" stroke="black" d="M237.5,-190.91C237.5,-182.65 237.5,-173.86 237.5,-165.3"/>
<polygon fill="black" stroke="black" points="241,-165.02 237.5,-155.02 234,-165.02 241,-165.02"/>
</g>
<!-- 4 -->
<g id="node5" class="node">
<title>4</title>
<polygon fill="#c0c0c0" stroke="black" points="65.5,-36 11.5,-36 11.5,0 65.5,0 65.5,-36"/>
<text text-anchor="middle" x="38.5" y="-14.3" font-family="Times,serif" font-size="14.00">(...)</text>
</g>
<!-- 3&#45;&gt;4 -->
<g id="edge4" class="edge">
<title>3&#45;&gt;4</title>
<path fill="none" stroke="black" d="M58.81,-71.76C55.46,-63.04 51.99,-54.04 48.89,-45.99"/>
<polygon fill="black" stroke="black" points="52.06,-44.48 45.2,-36.41 45.53,-46.99 52.06,-44.48"/>
</g>
<!-- 11 -->
<g id="node6" class="node">
<title>11</title>
<polygon fill="#c0c0c0" stroke="black" points="137.5,-36 83.5,-36 83.5,0 137.5,0 137.5,-36"/>
<text text-anchor="middle" x="110.5" y="-14.3" font-family="Times,serif" font-size="14.00">(...)</text>
</g>
<!-- 3&#45;&gt;11 -->
<g id="edge5" class="edge">
<title>3&#45;&gt;11</title>
<path fill="none" stroke="black" d="M90.19,-71.76C93.54,-63.04 97.01,-54.04 100.11,-45.99"/>
<polygon fill="black" stroke="black" points="103.47,-46.99 103.8,-36.41 96.94,-44.48 103.47,-46.99"/>
</g>
<!-- 27 -->
<g id="node8" class="node">
<title>27</title>
<polygon fill="#c0c0c0" stroke="black" points="237.5,-36 183.5,-36 183.5,0 237.5,0 237.5,-36"/>
<text text-anchor="middle" x="210.5" y="-14.3" font-family="Times,serif" font-size="14.00">(...)</text>
</g>
<!-- 26&#45;&gt;27 -->
<g id="edge7" class="edge">
<title>26&#45;&gt;27</title>
<path fill="none" stroke="black" d="M225.74,-71.76C223.25,-63.14 220.68,-54.24 218.37,-46.26"/>
<polygon fill="black" stroke="black" points="221.66,-45.04 215.53,-36.41 214.94,-46.98 221.66,-45.04"/>
</g>
<!-- 36 -->
<g id="node9" class="node">
<title>36</title>
<polygon fill="#c0c0c0" stroke="black" points="309.5,-36 255.5,-36 255.5,0 309.5,0 309.5,-36"/>
<text text-anchor="middle" x="282.5" y="-14.3" font-family="Times,serif" font-size="14.00">(...)</text>
</g>
<!-- 26&#45;&gt;36 -->
<g id="edge8" class="edge">
<title>26&#45;&gt;36</title>
<path fill="none" stroke="black" d="M257.11,-71.76C261.4,-62.85 265.83,-53.64 269.77,-45.46"/>
<polygon fill="black" stroke="black" points="272.94,-46.93 274.12,-36.41 266.63,-43.9 272.94,-46.93"/>
</g>
<!-- 42 -->
<g id="node11" class="node">
<title>42</title>
<polygon fill="#efb285" stroke="black" points="475,-155 326,-155 326,-72 475,-72 475,-155"/>
<text text-anchor="middle" x="400.5" y="-139.8" font-family="Times,serif" font-size="14.00">nbproc &lt;= 4.5</text>
<text text-anchor="middle" x="400.5" y="-124.8" font-family="Times,serif" font-size="14.00">gini = 0.402</text>
<text text-anchor="middle" x="400.5" y="-109.8" font-family="Times,serif" font-size="14.00">samples = 496</text>
<text text-anchor="middle" x="400.5" y="-94.8" font-family="Times,serif" font-size="14.00">value = [358, 138]</text>
<text text-anchor="middle" x="400.5" y="-79.8" font-family="Times,serif" font-size="14.00">class = False</text>
</g>
<!-- 41&#45;&gt;42 -->
<g id="edge10" class="edge">
<title>41&#45;&gt;42</title>
<path fill="none" stroke="black" d="M456.01,-190.91C449.55,-182.01 442.64,-172.51 435.98,-163.33"/>
<polygon fill="black" stroke="black" points="438.65,-161.05 429.94,-155.02 432.98,-165.17 438.65,-161.05"/>
</g>
<!-- 77 -->
<g id="node14" class="node">
<title>77</title>
<polygon fill="#e89152" stroke="black" points="650.5,-155 492.5,-155 492.5,-72 650.5,-72 650.5,-155"/>
<text text-anchor="middle" x="571.5" y="-139.8" font-family="Times,serif" font-size="14.00">graphSize &lt;= 22.5</text>
<text text-anchor="middle" x="571.5" y="-124.8" font-family="Times,serif" font-size="14.00">gini = 0.196</text>
<text text-anchor="middle" x="571.5" y="-109.8" font-family="Times,serif" font-size="14.00">samples = 2338</text>
<text text-anchor="middle" x="571.5" y="-94.8" font-family="Times,serif" font-size="14.00">value = [2080, 258]</text>
<text text-anchor="middle" x="571.5" y="-79.8" font-family="Times,serif" font-size="14.00">class = False</text>
</g>
<!-- 41&#45;&gt;77 -->
<g id="edge13" class="edge">
<title>41&#45;&gt;77</title>
<path fill="none" stroke="black" d="M515.34,-190.91C521.87,-182.01 528.86,-172.51 535.61,-163.33"/>
<polygon fill="black" stroke="black" points="538.61,-165.15 541.72,-155.02 532.97,-161.01 538.61,-165.15"/>
</g>
<!-- 43 -->
<g id="node12" class="node">
<title>43</title>
<polygon fill="#c0c0c0" stroke="black" points="404.5,-36 350.5,-36 350.5,0 404.5,0 404.5,-36"/>
<text text-anchor="middle" x="377.5" y="-14.3" font-family="Times,serif" font-size="14.00">(...)</text>
</g>
<!-- 42&#45;&gt;43 -->
<g id="edge11" class="edge">
<title>42&#45;&gt;43</title>
<path fill="none" stroke="black" d="M390.48,-71.76C388.36,-63.14 386.17,-54.24 384.21,-46.26"/>
<polygon fill="black" stroke="black" points="387.57,-45.28 381.78,-36.41 380.77,-46.95 387.57,-45.28"/>
</g>
<!-- 60 -->
<g id="node13" class="node">
<title>60</title>
<polygon fill="#c0c0c0" stroke="black" points="476.5,-36 422.5,-36 422.5,0 476.5,0 476.5,-36"/>
<text text-anchor="middle" x="449.5" y="-14.3" font-family="Times,serif" font-size="14.00">(...)</text>
</g>
<!-- 42&#45;&gt;60 -->
<g id="edge12" class="edge">
<title>42&#45;&gt;60</title>
<path fill="none" stroke="black" d="M421.85,-71.76C426.52,-62.85 431.35,-53.64 435.63,-45.46"/>
<polygon fill="black" stroke="black" points="438.84,-46.89 440.38,-36.41 432.64,-43.64 438.84,-46.89"/>
</g>
<!-- 78 -->
<g id="node15" class="node">
<title>78</title>
<polygon fill="#c0c0c0" stroke="black" points="562.5,-36 508.5,-36 508.5,0 562.5,0 562.5,-36"/>
<text text-anchor="middle" x="535.5" y="-14.3" font-family="Times,serif" font-size="14.00">(...)</text>
</g>
<!-- 77&#45;&gt;78 -->
<g id="edge14" class="edge">
<title>77&#45;&gt;78</title>
<path fill="none" stroke="black" d="M555.81,-71.76C552.46,-63.04 548.99,-54.04 545.89,-45.99"/>
<polygon fill="black" stroke="black" points="549.06,-44.48 542.2,-36.41 542.53,-46.99 549.06,-44.48"/>
</g>
<!-- 119 -->
<g id="node16" class="node">
<title>119</title>
<polygon fill="#c0c0c0" stroke="black" points="634.5,-36 580.5,-36 580.5,0 634.5,0 634.5,-36"/>
<text text-anchor="middle" x="607.5" y="-14.3" font-family="Times,serif" font-size="14.00">(...)</text>
</g>
<!-- 77&#45;&gt;119 -->
<g id="edge15" class="edge">
<title>77&#45;&gt;119</title>
<path fill="none" stroke="black" d="M587.19,-71.76C590.54,-63.04 594.01,-54.04 597.11,-45.99"/>
<polygon fill="black" stroke="black" points="600.47,-46.99 600.8,-36.41 593.94,-44.48 600.47,-46.99"/>
</g>
<!-- 161 -->
<g id="node18" class="node">
<title>161</title>
<polygon fill="#f1bc95" stroke="black" points="907,-274 740,-274 740,-191 907,-191 907,-274"/>
<text text-anchor="middle" x="823.5" y="-258.8" font-family="Times,serif" font-size="14.00">graphDepth &lt;= 3.5</text>
<text text-anchor="middle" x="823.5" y="-243.8" font-family="Times,serif" font-size="14.00">gini = 0.433</text>
<text text-anchor="middle" x="823.5" y="-228.8" font-family="Times,serif" font-size="14.00">samples = 5372</text>
<text text-anchor="middle" x="823.5" y="-213.8" font-family="Times,serif" font-size="14.00">value = [3668, 1704]</text>
<text text-anchor="middle" x="823.5" y="-198.8" font-family="Times,serif" font-size="14.00">class = False</text>
</g>
<!-- 160&#45;&gt;161 -->
<g id="edge17" class="edge">
<title>160&#45;&gt;161</title>
<path fill="none" stroke="black" d="M823.5,-309.91C823.5,-301.65 823.5,-292.86 823.5,-284.3"/>
<polygon fill="black" stroke="black" points="827,-284.02 823.5,-274.02 820,-284.02 827,-284.02"/>
</g>
<!-- 364 -->
<g id="node25" class="node">
<title>364</title>
<polygon fill="#fae9dc" stroke="black" points="1174,-274 1007,-274 1007,-191 1174,-191 1174,-274"/>
<text text-anchor="middle" x="1090.5" y="-258.8" font-family="Times,serif" font-size="14.00">graphDepth &lt;= 3.5</text>
<text text-anchor="middle" x="1090.5" y="-243.8" font-family="Times,serif" font-size="14.00">gini = 0.495</text>
<text text-anchor="middle" x="1090.5" y="-228.8" font-family="Times,serif" font-size="14.00">samples = 2744</text>
<text text-anchor="middle" x="1090.5" y="-213.8" font-family="Times,serif" font-size="14.00">value = [1506, 1238]</text>
<text text-anchor="middle" x="1090.5" y="-198.8" font-family="Times,serif" font-size="14.00">class = False</text>
</g>
<!-- 160&#45;&gt;364 -->
<g id="edge24" class="edge">
<title>160&#45;&gt;364</title>
<path fill="none" stroke="black" d="M907.25,-313.8C935.81,-301.28 967.93,-287.21 997.2,-274.39"/>
<polygon fill="black" stroke="black" points="998.84,-277.49 1006.59,-270.27 996.03,-271.08 998.84,-277.49"/>
</g>
<!-- 162 -->
<g id="node19" class="node">
<title>162</title>
<polygon fill="#fdf4ee" stroke="black" points="817,-155 668,-155 668,-72 817,-72 817,-155"/>
<text text-anchor="middle" x="742.5" y="-139.8" font-family="Times,serif" font-size="14.00">sdComm &lt;= 2.0</text>
<text text-anchor="middle" x="742.5" y="-124.8" font-family="Times,serif" font-size="14.00">gini = 0.499</text>
<text text-anchor="middle" x="742.5" y="-109.8" font-family="Times,serif" font-size="14.00">samples = 352</text>
<text text-anchor="middle" x="742.5" y="-94.8" font-family="Times,serif" font-size="14.00">value = [184, 168]</text>
<text text-anchor="middle" x="742.5" y="-79.8" font-family="Times,serif" font-size="14.00">class = False</text>
</g>
<!-- 161&#45;&gt;162 -->
<g id="edge18" class="edge">
<title>161&#45;&gt;162</title>
<path fill="none" stroke="black" d="M795.4,-190.91C789.24,-182.01 782.66,-172.51 776.31,-163.33"/>
<polygon fill="black" stroke="black" points="779.12,-161.25 770.55,-155.02 773.37,-165.24 779.12,-161.25"/>
</g>
<!-- 187 -->
<g id="node22" class="node">
<title>187</title>
<polygon fill="#f0b990" stroke="black" points="1002,-155 835,-155 835,-72 1002,-72 1002,-155"/>
<text text-anchor="middle" x="918.5" y="-139.8" font-family="Times,serif" font-size="14.00">nbproc &lt;= 4.5</text>
<text text-anchor="middle" x="918.5" y="-124.8" font-family="Times,serif" font-size="14.00">gini = 0.425</text>
<text text-anchor="middle" x="918.5" y="-109.8" font-family="Times,serif" font-size="14.00">samples = 5020</text>
<text text-anchor="middle" x="918.5" y="-94.8" font-family="Times,serif" font-size="14.00">value = [3484, 1536]</text>
<text text-anchor="middle" x="918.5" y="-79.8" font-family="Times,serif" font-size="14.00">class = False</text>
</g>
<!-- 161&#45;&gt;187 -->
<g id="edge21" class="edge">
<title>161&#45;&gt;187</title>
<path fill="none" stroke="black" d="M856.46,-190.91C863.75,-181.92 871.56,-172.32 879.08,-163.05"/>
<polygon fill="black" stroke="black" points="882.01,-164.99 885.6,-155.02 876.58,-160.58 882.01,-164.99"/>
</g>
<!-- 163 -->
<g id="node20" class="node">
<title>163</title>
<polygon fill="#c0c0c0" stroke="black" points="713.5,-36 659.5,-36 659.5,0 713.5,0 713.5,-36"/>
<text text-anchor="middle" x="686.5" y="-14.3" font-family="Times,serif" font-size="14.00">(...)</text>
</g>
<!-- 162&#45;&gt;163 -->
<g id="edge19" class="edge">
<title>162&#45;&gt;163</title>
<path fill="none" stroke="black" d="M718.1,-71.76C712.7,-62.75 707.13,-53.44 702.19,-45.19"/>
<polygon fill="black" stroke="black" points="705.07,-43.19 696.92,-36.41 699.06,-46.78 705.07,-43.19"/>
</g>
<!-- 178 -->
<g id="node21" class="node">
<title>178</title>
<polygon fill="#c0c0c0" stroke="black" points="785.5,-36 731.5,-36 731.5,0 785.5,0 785.5,-36"/>
<text text-anchor="middle" x="758.5" y="-14.3" font-family="Times,serif" font-size="14.00">(...)</text>
</g>
<!-- 162&#45;&gt;178 -->
<g id="edge20" class="edge">
<title>162&#45;&gt;178</title>
<path fill="none" stroke="black" d="M749.47,-71.76C750.93,-63.24 752.44,-54.44 753.79,-46.53"/>
<polygon fill="black" stroke="black" points="757.28,-46.85 755.52,-36.41 750.38,-45.67 757.28,-46.85"/>
</g>
<!-- 188 -->
<g id="node23" class="node">
<title>188</title>
<polygon fill="#c0c0c0" stroke="black" points="887.5,-36 833.5,-36 833.5,0 887.5,0 887.5,-36"/>
<text text-anchor="middle" x="860.5" y="-14.3" font-family="Times,serif" font-size="14.00">(...)</text>
</g>
<!-- 187&#45;&gt;188 -->
<g id="edge22" class="edge">
<title>187&#45;&gt;188</title>
<path fill="none" stroke="black" d="M893.23,-71.76C887.58,-62.65 881.74,-53.24 876.58,-44.92"/>
<polygon fill="black" stroke="black" points="879.54,-43.06 871.3,-36.41 873.59,-46.75 879.54,-43.06"/>
</g>
<!-- 275 -->
<g id="node24" class="node">
<title>275</title>
<polygon fill="#c0c0c0" stroke="black" points="959.5,-36 905.5,-36 905.5,0 959.5,0 959.5,-36"/>
<text text-anchor="middle" x="932.5" y="-14.3" font-family="Times,serif" font-size="14.00">(...)</text>
</g>
<!-- 187&#45;&gt;275 -->
<g id="edge23" class="edge">
<title>187&#45;&gt;275</title>
<path fill="none" stroke="black" d="M924.6,-71.76C925.88,-63.24 927.19,-54.44 928.38,-46.53"/>
<polygon fill="black" stroke="black" points="931.87,-46.81 929.89,-36.41 924.95,-45.78 931.87,-46.81"/>
</g>
<!-- 365 -->
<g id="node26" class="node">
<title>365</title>
<polygon fill="#eda673" stroke="black" points="1160.5,-155 1020.5,-155 1020.5,-72 1160.5,-72 1160.5,-155"/>
<text text-anchor="middle" x="1090.5" y="-139.8" font-family="Times,serif" font-size="14.00">sdComm &lt;= 6.5</text>
<text text-anchor="middle" x="1090.5" y="-124.8" font-family="Times,serif" font-size="14.00">gini = 0.351</text>
<text text-anchor="middle" x="1090.5" y="-109.8" font-family="Times,serif" font-size="14.00">samples = 132</text>
<text text-anchor="middle" x="1090.5" y="-94.8" font-family="Times,serif" font-size="14.00">value = [102, 30]</text>
<text text-anchor="middle" x="1090.5" y="-79.8" font-family="Times,serif" font-size="14.00">class = False</text>
</g>
<!-- 364&#45;&gt;365 -->
<g id="edge25" class="edge">
<title>364&#45;&gt;365</title>
<path fill="none" stroke="black" d="M1090.5,-190.91C1090.5,-182.65 1090.5,-173.86 1090.5,-165.3"/>
<polygon fill="black" stroke="black" points="1094,-165.02 1090.5,-155.02 1087,-165.02 1094,-165.02"/>
</g>
<!-- 374 -->
<g id="node29" class="node">
<title>374</title>
<polygon fill="#fbede3" stroke="black" points="1346,-155 1179,-155 1179,-72 1346,-72 1346,-155"/>
<text text-anchor="middle" x="1262.5" y="-139.8" font-family="Times,serif" font-size="14.00">graphDepth &lt;= 6.5</text>
<text text-anchor="middle" x="1262.5" y="-124.8" font-family="Times,serif" font-size="14.00">gini = 0.497</text>
<text text-anchor="middle" x="1262.5" y="-109.8" font-family="Times,serif" font-size="14.00">samples = 2612</text>
<text text-anchor="middle" x="1262.5" y="-94.8" font-family="Times,serif" font-size="14.00">value = [1404, 1208]</text>
<text text-anchor="middle" x="1262.5" y="-79.8" font-family="Times,serif" font-size="14.00">class = False</text>
</g>
<!-- 364&#45;&gt;374 -->
<g id="edge28" class="edge">
<title>364&#45;&gt;374</title>
<path fill="none" stroke="black" d="M1150.17,-190.91C1164.45,-181.2 1179.8,-170.76 1194.42,-160.81"/>
<polygon fill="black" stroke="black" points="1196.63,-163.54 1202.93,-155.02 1192.69,-157.75 1196.63,-163.54"/>
</g>
<!-- 366 -->
<g id="node27" class="node">
<title>366</title>
<polygon fill="#c0c0c0" stroke="black" points="1077.5,-36 1023.5,-36 1023.5,0 1077.5,0 1077.5,-36"/>
<text text-anchor="middle" x="1050.5" y="-14.3" font-family="Times,serif" font-size="14.00">(...)</text>
</g>
<!-- 365&#45;&gt;366 -->
<g id="edge26" class="edge">
<title>365&#45;&gt;366</title>
<path fill="none" stroke="black" d="M1073.07,-71.76C1069.3,-62.94 1065.4,-53.84 1061.93,-45.72"/>
<polygon fill="black" stroke="black" points="1065.1,-44.22 1057.95,-36.41 1058.66,-46.98 1065.1,-44.22"/>
</g>
<!-- 371 -->
<g id="node28" class="node">
<title>371</title>
<polygon fill="#c0c0c0" stroke="black" points="1149.5,-36 1095.5,-36 1095.5,0 1149.5,0 1149.5,-36"/>
<text text-anchor="middle" x="1122.5" y="-14.3" font-family="Times,serif" font-size="14.00">(...)</text>
</g>
<!-- 365&#45;&gt;371 -->
<g id="edge27" class="edge">
<title>365&#45;&gt;371</title>
<path fill="none" stroke="black" d="M1104.44,-71.76C1107.43,-63.04 1110.51,-54.04 1113.26,-45.99"/>
<polygon fill="black" stroke="black" points="1116.62,-47 1116.54,-36.41 1109.99,-44.73 1116.62,-47"/>
</g>
<!-- 375 -->
<g id="node30" class="node">
<title>375</title>
<polygon fill="#c0c0c0" stroke="black" points="1253.5,-36 1199.5,-36 1199.5,0 1253.5,0 1253.5,-36"/>
<text text-anchor="middle" x="1226.5" y="-14.3" font-family="Times,serif" font-size="14.00">(...)</text>
</g>
<!-- 374&#45;&gt;375 -->
<g id="edge29" class="edge">
<title>374&#45;&gt;375</title>
<path fill="none" stroke="black" d="M1246.81,-71.76C1243.46,-63.04 1239.99,-54.04 1236.89,-45.99"/>
<polygon fill="black" stroke="black" points="1240.06,-44.48 1233.2,-36.41 1233.53,-46.99 1240.06,-44.48"/>
</g>
<!-- 398 -->
<g id="node31" class="node">
<title>398</title>
<polygon fill="#c0c0c0" stroke="black" points="1325.5,-36 1271.5,-36 1271.5,0 1325.5,0 1325.5,-36"/>
<text text-anchor="middle" x="1298.5" y="-14.3" font-family="Times,serif" font-size="14.00">(...)</text>
</g>
<!-- 374&#45;&gt;398 -->
<g id="edge30" class="edge">
<title>374&#45;&gt;398</title>
<path fill="none" stroke="black" d="M1278.19,-71.76C1281.54,-63.04 1285.01,-54.04 1288.11,-45.99"/>
<polygon fill="black" stroke="black" points="1291.47,-46.99 1291.8,-36.41 1284.94,-44.48 1291.47,-46.99"/>
</g>
</g>
</svg>
