<?xml version="1.0" encoding="UTF-8" standalone="no"?>
<!DOCTYPE svg PUBLIC "-//W3C//DTD SVG 1.1//EN"
 "http://www.w3.org/Graphics/SVG/1.1/DTD/svg11.dtd">
<!-- Generated by graphviz version 2.43.0 (0)
 -->
<!-- Title: Tree Pages: 1 -->
<svg width="2165pt" height="520pt"
 viewBox="0.00 0.00 2165.00 520.00" xmlns="http://www.w3.org/2000/svg" xmlns:xlink="http://www.w3.org/1999/xlink">
<g id="graph0" class="graph" transform="scale(1 1) rotate(0) translate(4 516)">
<title>Tree</title>
<polygon fill="white" stroke="transparent" points="-4,4 -4,-516 2161,-516 2161,4 -4,4"/>
<!-- 0 -->
<g id="node1" class="node">
<title>0</title>
<polygon fill="#f5d0b6" stroke="black" points="1161.5,-512 814.5,-512 814.5,-429 1161.5,-429 1161.5,-512"/>
<text text-anchor="middle" x="988" y="-496.8" font-family="Times,serif" font-size="14.00">CCR &lt;= 0.55</text>
<text text-anchor="middle" x="988" y="-481.8" font-family="Times,serif" font-size="14.00">gini = 0.743</text>
<text text-anchor="middle" x="988" y="-466.8" font-family="Times,serif" font-size="14.00">samples = 11670</text>
<text text-anchor="middle" x="988" y="-451.8" font-family="Times,serif" font-size="14.00">value = [5152, 1334, 1316, 1276, 1276, 1316]</text>
<text text-anchor="middle" x="988" y="-436.8" font-family="Times,serif" font-size="14.00">class = mean</text>
</g>
<!-- 1 -->
<g id="node2" class="node">
<title>1</title>
<polygon fill="#eb9f69" stroke="black" points="879.5,-393 604.5,-393 604.5,-310 879.5,-310 879.5,-393"/>
<text text-anchor="middle" x="742" y="-377.8" font-family="Times,serif" font-size="14.00">nbproc &lt;= 4.5</text>
<text text-anchor="middle" x="742" y="-362.8" font-family="Times,serif" font-size="14.00">gini = 0.395</text>
<text text-anchor="middle" x="742" y="-347.8" font-family="Times,serif" font-size="14.00">samples = 2219</text>
<text text-anchor="middle" x="742" y="-332.8" font-family="Times,serif" font-size="14.00">value = [1711, 92, 120, 88, 88, 120]</text>
<text text-anchor="middle" x="742" y="-317.8" font-family="Times,serif" font-size="14.00">class = mean</text>
</g>
<!-- 0&#45;&gt;1 -->
<g id="edge1" class="edge">
<title>0&#45;&gt;1</title>
<path fill="none" stroke="black" d="M902.65,-428.91C881.28,-418.74 858.23,-407.78 836.45,-397.42"/>
<polygon fill="black" stroke="black" points="837.73,-394.16 827.2,-393.02 834.72,-400.48 837.73,-394.16"/>
<text text-anchor="middle" x="835.57" y="-412.88" font-family="Times,serif" font-size="14.00">True</text>
</g>
<!-- 66 -->
<g id="node15" class="node">
<title>66</title>
<polygon fill="#f8ddca" stroke="black" points="1457.5,-393 1110.5,-393 1110.5,-310 1457.5,-310 1457.5,-393"/>
<text text-anchor="middle" x="1284" y="-377.8" font-family="Times,serif" font-size="14.00">graphSize &lt;= 40.0</text>
<text text-anchor="middle" x="1284" y="-362.8" font-family="Times,serif" font-size="14.00">gini = 0.787</text>
<text text-anchor="middle" x="1284" y="-347.8" font-family="Times,serif" font-size="14.00">samples = 9451</text>
<text text-anchor="middle" x="1284" y="-332.8" font-family="Times,serif" font-size="14.00">value = [3441, 1242, 1196, 1188, 1188, 1196]</text>
<text text-anchor="middle" x="1284" y="-317.8" font-family="Times,serif" font-size="14.00">class = mean</text>
</g>
<!-- 0&#45;&gt;66 -->
<g id="edge14" class="edge">
<title>0&#45;&gt;66</title>
<path fill="none" stroke="black" d="M1090.7,-428.91C1116.98,-418.52 1145.38,-407.29 1172.11,-396.73"/>
<polygon fill="black" stroke="black" points="1173.47,-399.95 1181.49,-393.02 1170.9,-393.44 1173.47,-399.95"/>
<text text-anchor="middle" x="1171.54" y="-412.26" font-family="Times,serif" font-size="14.00">False</text>
</g>
<!-- 2 -->
<g id="node3" class="node">
<title>2</title>
<polygon fill="#f3c4a2" stroke="black" points="523,-274 257,-274 257,-191 523,-191 523,-274"/>
<text text-anchor="middle" x="390" y="-258.8" font-family="Times,serif" font-size="14.00">graphDepth &lt;= 3.5</text>
<text text-anchor="middle" x="390" y="-243.8" font-family="Times,serif" font-size="14.00">gini = 0.669</text>
<text text-anchor="middle" x="390" y="-228.8" font-family="Times,serif" font-size="14.00">samples = 971</text>
<text text-anchor="middle" x="390" y="-213.8" font-family="Times,serif" font-size="14.00">value = [519, 76, 116, 72, 72, 116]</text>
<text text-anchor="middle" x="390" y="-198.8" font-family="Times,serif" font-size="14.00">class = mean</text>
</g>
<!-- 1&#45;&gt;2 -->
<g id="edge2" class="edge">
<title>1&#45;&gt;2</title>
<path fill="none" stroke="black" d="M619.88,-309.91C588.2,-299.38 553.96,-288 521.81,-277.31"/>
<polygon fill="black" stroke="black" points="522.5,-273.85 511.91,-274.02 520.29,-280.5 522.5,-273.85"/>
</g>
<!-- 51 -->
<g id="node10" class="node">
<title>51</title>
<polygon fill="#e68742" stroke="black" points="861.5,-274 622.5,-274 622.5,-191 861.5,-191 861.5,-274"/>
<text text-anchor="middle" x="742" y="-258.8" font-family="Times,serif" font-size="14.00">sdComp &lt;= 0.02</text>
<text text-anchor="middle" x="742" y="-243.8" font-family="Times,serif" font-size="14.00">gini = 0.087</text>
<text text-anchor="middle" x="742" y="-228.8" font-family="Times,serif" font-size="14.00">samples = 1248</text>
<text text-anchor="middle" x="742" y="-213.8" font-family="Times,serif" font-size="14.00">value = [1192, 16, 4, 16, 16, 4]</text>
<text text-anchor="middle" x="742" y="-198.8" font-family="Times,serif" font-size="14.00">class = mean</text>
</g>
<!-- 1&#45;&gt;51 -->
<g id="edge9" class="edge">
<title>1&#45;&gt;51</title>
<path fill="none" stroke="black" d="M742,-309.91C742,-301.65 742,-292.86 742,-284.3"/>
<polygon fill="black" stroke="black" points="745.5,-284.02 742,-274.02 738.5,-284.02 745.5,-284.02"/>
</g>
<!-- 3 -->
<g id="node4" class="node">
<title>3</title>
<polygon fill="#fdf3ec" stroke="black" points="248,-155 0,-155 0,-72 248,-72 248,-155"/>
<text text-anchor="middle" x="124" y="-139.8" font-family="Times,serif" font-size="14.00">sdComp &lt;= 0.02</text>
<text text-anchor="middle" x="124" y="-124.8" font-family="Times,serif" font-size="14.00">gini = 0.805</text>
<text text-anchor="middle" x="124" y="-109.8" font-family="Times,serif" font-size="14.00">samples = 389</text>
<text text-anchor="middle" x="124" y="-94.8" font-family="Times,serif" font-size="14.00">value = [109, 44, 80, 38, 38, 80]</text>
<text text-anchor="middle" x="124" y="-79.8" font-family="Times,serif" font-size="14.00">class = mean</text>
</g>
<!-- 2&#45;&gt;3 -->
<g id="edge3" class="edge">
<title>2&#45;&gt;3</title>
<path fill="none" stroke="black" d="M297.71,-190.91C274.4,-180.65 249.24,-169.59 225.5,-159.14"/>
<polygon fill="black" stroke="black" points="226.69,-155.84 216.12,-155.02 223.87,-162.25 226.69,-155.84"/>
</g>
<!-- 16 -->
<g id="node7" class="node">
<title>16</title>
<polygon fill="#eda977" stroke="black" points="514,-155 266,-155 266,-72 514,-72 514,-155"/>
<text text-anchor="middle" x="390" y="-139.8" font-family="Times,serif" font-size="14.00">sdComp &lt;= 0.065</text>
<text text-anchor="middle" x="390" y="-124.8" font-family="Times,serif" font-size="14.00">gini = 0.486</text>
<text text-anchor="middle" x="390" y="-109.8" font-family="Times,serif" font-size="14.00">samples = 582</text>
<text text-anchor="middle" x="390" y="-94.8" font-family="Times,serif" font-size="14.00">value = [410, 32, 36, 34, 34, 36]</text>
<text text-anchor="middle" x="390" y="-79.8" font-family="Times,serif" font-size="14.00">class = mean</text>
</g>
<!-- 2&#45;&gt;16 -->
<g id="edge6" class="edge">
<title>2&#45;&gt;16</title>
<path fill="none" stroke="black" d="M390,-190.91C390,-182.65 390,-173.86 390,-165.3"/>
<polygon fill="black" stroke="black" points="393.5,-165.02 390,-155.02 386.5,-165.02 393.5,-165.02"/>
</g>
<!-- 4 -->
<g id="node5" class="node">
<title>4</title>
<polygon fill="#c0c0c0" stroke="black" points="115,-36 61,-36 61,0 115,0 115,-36"/>
<text text-anchor="middle" x="88" y="-14.3" font-family="Times,serif" font-size="14.00">(...)</text>
</g>
<!-- 3&#45;&gt;4 -->
<g id="edge4" class="edge">
<title>3&#45;&gt;4</title>
<path fill="none" stroke="black" d="M108.31,-71.76C104.96,-63.04 101.49,-54.04 98.39,-45.99"/>
<polygon fill="black" stroke="black" points="101.56,-44.48 94.7,-36.41 95.03,-46.99 101.56,-44.48"/>
</g>
<!-- 9 -->
<g id="node6" class="node">
<title>9</title>
<polygon fill="#c0c0c0" stroke="black" points="187,-36 133,-36 133,0 187,0 187,-36"/>
<text text-anchor="middle" x="160" y="-14.3" font-family="Times,serif" font-size="14.00">(...)</text>
</g>
<!-- 3&#45;&gt;9 -->
<g id="edge5" class="edge">
<title>3&#45;&gt;9</title>
<path fill="none" stroke="black" d="M139.69,-71.76C143.04,-63.04 146.51,-54.04 149.61,-45.99"/>
<polygon fill="black" stroke="black" points="152.97,-46.99 153.3,-36.41 146.44,-44.48 152.97,-46.99"/>
</g>
<!-- 17 -->
<g id="node8" class="node">
<title>17</title>
<polygon fill="#c0c0c0" stroke="black" points="381,-36 327,-36 327,0 381,0 381,-36"/>
<text text-anchor="middle" x="354" y="-14.3" font-family="Times,serif" font-size="14.00">(...)</text>
</g>
<!-- 16&#45;&gt;17 -->
<g id="edge7" class="edge">
<title>16&#45;&gt;17</title>
<path fill="none" stroke="black" d="M374.31,-71.76C370.96,-63.04 367.49,-54.04 364.39,-45.99"/>
<polygon fill="black" stroke="black" points="367.56,-44.48 360.7,-36.41 361.03,-46.99 367.56,-44.48"/>
</g>
<!-- 40 -->
<g id="node9" class="node">
<title>40</title>
<polygon fill="#c0c0c0" stroke="black" points="453,-36 399,-36 399,0 453,0 453,-36"/>
<text text-anchor="middle" x="426" y="-14.3" font-family="Times,serif" font-size="14.00">(...)</text>
</g>
<!-- 16&#45;&gt;40 -->
<g id="edge8" class="edge">
<title>16&#45;&gt;40</title>
<path fill="none" stroke="black" d="M405.69,-71.76C409.04,-63.04 412.51,-54.04 415.61,-45.99"/>
<polygon fill="black" stroke="black" points="418.97,-46.99 419.3,-36.41 412.44,-44.48 418.97,-46.99"/>
</g>
<!-- 52 -->
<g id="node11" class="node">
<title>52</title>
<polygon fill="#ea985d" stroke="black" points="762,-155 532,-155 532,-72 762,-72 762,-155"/>
<text text-anchor="middle" x="647" y="-139.8" font-family="Times,serif" font-size="14.00">graphDepth &lt;= 6.5</text>
<text text-anchor="middle" x="647" y="-124.8" font-family="Times,serif" font-size="14.00">gini = 0.312</text>
<text text-anchor="middle" x="647" y="-109.8" font-family="Times,serif" font-size="14.00">samples = 320</text>
<text text-anchor="middle" x="647" y="-94.8" font-family="Times,serif" font-size="14.00">value = [264, 16, 4, 16, 16, 4]</text>
<text text-anchor="middle" x="647" y="-79.8" font-family="Times,serif" font-size="14.00">class = mean</text>
</g>
<!-- 51&#45;&gt;52 -->
<g id="edge10" class="edge">
<title>51&#45;&gt;52</title>
<path fill="none" stroke="black" d="M709.04,-190.91C701.75,-181.92 693.94,-172.32 686.42,-163.05"/>
<polygon fill="black" stroke="black" points="688.92,-160.58 679.9,-155.02 683.49,-164.99 688.92,-160.58"/>
</g>
<!-- 65 -->
<g id="node14" class="node">
<title>65</title>
<polygon fill="#e58139" stroke="black" points="983.5,-147.5 780.5,-147.5 780.5,-79.5 983.5,-79.5 983.5,-147.5"/>
<text text-anchor="middle" x="882" y="-132.3" font-family="Times,serif" font-size="14.00">gini = 0.0</text>
<text text-anchor="middle" x="882" y="-117.3" font-family="Times,serif" font-size="14.00">samples = 928</text>
<text text-anchor="middle" x="882" y="-102.3" font-family="Times,serif" font-size="14.00">value = [928, 0, 0, 0, 0, 0]</text>
<text text-anchor="middle" x="882" y="-87.3" font-family="Times,serif" font-size="14.00">class = mean</text>
</g>
<!-- 51&#45;&gt;65 -->
<g id="edge13" class="edge">
<title>51&#45;&gt;65</title>
<path fill="none" stroke="black" d="M790.57,-190.91C804.83,-178.99 820.41,-165.98 834.59,-154.12"/>
<polygon fill="black" stroke="black" points="836.88,-156.77 842.31,-147.67 832.4,-151.39 836.88,-156.77"/>
</g>
<!-- 53 -->
<g id="node12" class="node">
<title>53</title>
<polygon fill="#c0c0c0" stroke="black" points="638,-36 584,-36 584,0 638,0 638,-36"/>
<text text-anchor="middle" x="611" y="-14.3" font-family="Times,serif" font-size="14.00">(...)</text>
</g>
<!-- 52&#45;&gt;53 -->
<g id="edge11" class="edge">
<title>52&#45;&gt;53</title>
<path fill="none" stroke="black" d="M631.31,-71.76C627.96,-63.04 624.49,-54.04 621.39,-45.99"/>
<polygon fill="black" stroke="black" points="624.56,-44.48 617.7,-36.41 618.03,-46.99 624.56,-44.48"/>
</g>
<!-- 60 -->
<g id="node13" class="node">
<title>60</title>
<polygon fill="#c0c0c0" stroke="black" points="710,-36 656,-36 656,0 710,0 710,-36"/>
<text text-anchor="middle" x="683" y="-14.3" font-family="Times,serif" font-size="14.00">(...)</text>
</g>
<!-- 52&#45;&gt;60 -->
<g id="edge12" class="edge">
<title>52&#45;&gt;60</title>
<path fill="none" stroke="black" d="M662.69,-71.76C666.04,-63.04 669.51,-54.04 672.61,-45.99"/>
<polygon fill="black" stroke="black" points="675.97,-46.99 676.3,-36.41 669.44,-44.48 675.97,-46.99"/>
</g>
<!-- 67 -->
<g id="node16" class="node">
<title>67</title>
<polygon fill="#fae8da" stroke="black" points="1435,-274 1133,-274 1133,-191 1435,-191 1435,-274"/>
<text text-anchor="middle" x="1284" y="-258.8" font-family="Times,serif" font-size="14.00">graphSize &lt;= 22.5</text>
<text text-anchor="middle" x="1284" y="-243.8" font-family="Times,serif" font-size="14.00">gini = 0.811</text>
<text text-anchor="middle" x="1284" y="-228.8" font-family="Times,serif" font-size="14.00">samples = 6105</text>
<text text-anchor="middle" x="1284" y="-213.8" font-family="Times,serif" font-size="14.00">value = [1851, 878, 838, 850, 850, 838]</text>
<text text-anchor="middle" x="1284" y="-198.8" font-family="Times,serif" font-size="14.00">class = mean</text>
</g>
<!-- 66&#45;&gt;67 -->
<g id="edge15" class="edge">
<title>66&#45;&gt;67</title>
<path fill="none" stroke="black" d="M1284,-309.91C1284,-301.65 1284,-292.86 1284,-284.3"/>
<polygon fill="black" stroke="black" points="1287.5,-284.02 1284,-274.02 1280.5,-284.02 1287.5,-284.02"/>
</g>
<!-- 282 -->
<g id="node23" class="node">
<title>282</title>
<polygon fill="#f4cbae" stroke="black" points="1886,-274 1584,-274 1584,-191 1886,-191 1886,-274"/>
<text text-anchor="middle" x="1735" y="-258.8" font-family="Times,serif" font-size="14.00">CCR &lt;= 5.5</text>
<text text-anchor="middle" x="1735" y="-243.8" font-family="Times,serif" font-size="14.00">gini = 0.719</text>
<text text-anchor="middle" x="1735" y="-228.8" font-family="Times,serif" font-size="14.00">samples = 3346</text>
<text text-anchor="middle" x="1735" y="-213.8" font-family="Times,serif" font-size="14.00">value = [1590, 364, 358, 338, 338, 358]</text>
<text text-anchor="middle" x="1735" y="-198.8" font-family="Times,serif" font-size="14.00">class = mean</text>
</g>
<!-- 66&#45;&gt;282 -->
<g id="edge22" class="edge">
<title>66&#45;&gt;282</title>
<path fill="none" stroke="black" d="M1440.16,-309.99C1483.46,-298.76 1530.54,-286.54 1574.1,-275.24"/>
<polygon fill="black" stroke="black" points="1575.12,-278.59 1583.92,-272.69 1573.37,-271.82 1575.12,-278.59"/>
</g>
<!-- 68 -->
<g id="node17" class="node">
<title>68</title>
<polygon fill="#fbeee4" stroke="black" points="1304,-155 1002,-155 1002,-72 1304,-72 1304,-155"/>
<text text-anchor="middle" x="1153" y="-139.8" font-family="Times,serif" font-size="14.00">sdComp &lt;= 0.65</text>
<text text-anchor="middle" x="1153" y="-124.8" font-family="Times,serif" font-size="14.00">gini = 0.82</text>
<text text-anchor="middle" x="1153" y="-109.8" font-family="Times,serif" font-size="14.00">samples = 4033</text>
<text text-anchor="middle" x="1153" y="-94.8" font-family="Times,serif" font-size="14.00">value = [1089, 616, 578, 586, 586, 578]</text>
<text text-anchor="middle" x="1153" y="-79.8" font-family="Times,serif" font-size="14.00">class = mean</text>
</g>
<!-- 67&#45;&gt;68 -->
<g id="edge16" class="edge">
<title>67&#45;&gt;68</title>
<path fill="none" stroke="black" d="M1238.55,-190.91C1228.08,-181.56 1216.86,-171.54 1206.1,-161.93"/>
<polygon fill="black" stroke="black" points="1208.16,-159.07 1198.37,-155.02 1203.5,-164.29 1208.16,-159.07"/>
</g>
<!-- 193 -->
<g id="node20" class="node">
<title>193</title>
<polygon fill="#f8dcc8" stroke="black" points="1615.5,-155 1322.5,-155 1322.5,-72 1615.5,-72 1615.5,-155"/>
<text text-anchor="middle" x="1469" y="-139.8" font-family="Times,serif" font-size="14.00">CCR &lt;= 5.5</text>
<text text-anchor="middle" x="1469" y="-124.8" font-family="Times,serif" font-size="14.00">gini = 0.785</text>
<text text-anchor="middle" x="1469" y="-109.8" font-family="Times,serif" font-size="14.00">samples = 2072</text>
<text text-anchor="middle" x="1469" y="-94.8" font-family="Times,serif" font-size="14.00">value = [762, 262, 260, 264, 264, 260]</text>
<text text-anchor="middle" x="1469" y="-79.8" font-family="Times,serif" font-size="14.00">class = mean</text>
</g>
<!-- 67&#45;&gt;193 -->
<g id="edge19" class="edge">
<title>67&#45;&gt;193</title>
<path fill="none" stroke="black" d="M1348.18,-190.91C1363.68,-181.11 1380.35,-170.56 1396.21,-160.53"/>
<polygon fill="black" stroke="black" points="1398.35,-163.32 1404.93,-155.02 1394.61,-157.41 1398.35,-163.32"/>
</g>
<!-- 69 -->
<g id="node18" class="node">
<title>69</title>
<polygon fill="#c0c0c0" stroke="black" points="1144,-36 1090,-36 1090,0 1144,0 1144,-36"/>
<text text-anchor="middle" x="1117" y="-14.3" font-family="Times,serif" font-size="14.00">(...)</text>
</g>
<!-- 68&#45;&gt;69 -->
<g id="edge17" class="edge">
<title>68&#45;&gt;69</title>
<path fill="none" stroke="black" d="M1137.31,-71.76C1133.96,-63.04 1130.49,-54.04 1127.39,-45.99"/>
<polygon fill="black" stroke="black" points="1130.56,-44.48 1123.7,-36.41 1124.03,-46.99 1130.56,-44.48"/>
</g>
<!-- 112 -->
<g id="node19" class="node">
<title>112</title>
<polygon fill="#c0c0c0" stroke="black" points="1216,-36 1162,-36 1162,0 1216,0 1216,-36"/>
<text text-anchor="middle" x="1189" y="-14.3" font-family="Times,serif" font-size="14.00">(...)</text>
</g>
<!-- 68&#45;&gt;112 -->
<g id="edge18" class="edge">
<title>68&#45;&gt;112</title>
<path fill="none" stroke="black" d="M1168.69,-71.76C1172.04,-63.04 1175.51,-54.04 1178.61,-45.99"/>
<polygon fill="black" stroke="black" points="1181.97,-46.99 1182.3,-36.41 1175.44,-44.48 1181.97,-46.99"/>
</g>
<!-- 194 -->
<g id="node21" class="node">
<title>194</title>
<polygon fill="#c0c0c0" stroke="black" points="1460,-36 1406,-36 1406,0 1460,0 1460,-36"/>
<text text-anchor="middle" x="1433" y="-14.3" font-family="Times,serif" font-size="14.00">(...)</text>
</g>
<!-- 193&#45;&gt;194 -->
<g id="edge20" class="edge">
<title>193&#45;&gt;194</title>
<path fill="none" stroke="black" d="M1453.31,-71.76C1449.96,-63.04 1446.49,-54.04 1443.39,-45.99"/>
<polygon fill="black" stroke="black" points="1446.56,-44.48 1439.7,-36.41 1440.03,-46.99 1446.56,-44.48"/>
</g>
<!-- 215 -->
<g id="node22" class="node">
<title>215</title>
<polygon fill="#c0c0c0" stroke="black" points="1532,-36 1478,-36 1478,0 1532,0 1532,-36"/>
<text text-anchor="middle" x="1505" y="-14.3" font-family="Times,serif" font-size="14.00">(...)</text>
</g>
<!-- 193&#45;&gt;215 -->
<g id="edge21" class="edge">
<title>193&#45;&gt;215</title>
<path fill="none" stroke="black" d="M1484.69,-71.76C1488.04,-63.04 1491.51,-54.04 1494.61,-45.99"/>
<polygon fill="black" stroke="black" points="1497.97,-46.99 1498.3,-36.41 1491.44,-44.48 1497.97,-46.99"/>
</g>
<!-- 283 -->
<g id="node24" class="node">
<title>283</title>
<polygon fill="#e78946" stroke="black" points="1836.5,-155 1633.5,-155 1633.5,-72 1836.5,-72 1836.5,-155"/>
<text text-anchor="middle" x="1735" y="-139.8" font-family="Times,serif" font-size="14.00">graphDepth &lt;= 12.5</text>
<text text-anchor="middle" x="1735" y="-124.8" font-family="Times,serif" font-size="14.00">gini = 0.127</text>
<text text-anchor="middle" x="1735" y="-109.8" font-family="Times,serif" font-size="14.00">samples = 212</text>
<text text-anchor="middle" x="1735" y="-94.8" font-family="Times,serif" font-size="14.00">value = [198, 2, 4, 2, 2, 4]</text>
<text text-anchor="middle" x="1735" y="-79.8" font-family="Times,serif" font-size="14.00">class = mean</text>
</g>
<!-- 282&#45;&gt;283 -->
<g id="edge23" class="edge">
<title>282&#45;&gt;283</title>
<path fill="none" stroke="black" d="M1735,-190.91C1735,-182.65 1735,-173.86 1735,-165.3"/>
<polygon fill="black" stroke="black" points="1738.5,-165.02 1735,-155.02 1731.5,-165.02 1738.5,-165.02"/>
</g>
<!-- 300 -->
<g id="node27" class="node">
<title>300</title>
<polygon fill="#f5d0b5" stroke="black" points="2157,-155 1855,-155 1855,-72 2157,-72 2157,-155"/>
<text text-anchor="middle" x="2006" y="-139.8" font-family="Times,serif" font-size="14.00">sdComp &lt;= 2.0</text>
<text text-anchor="middle" x="2006" y="-124.8" font-family="Times,serif" font-size="14.00">gini = 0.741</text>
<text text-anchor="middle" x="2006" y="-109.8" font-family="Times,serif" font-size="14.00">samples = 3134</text>
<text text-anchor="middle" x="2006" y="-94.8" font-family="Times,serif" font-size="14.00">value = [1392, 362, 354, 336, 336, 354]</text>
<text text-anchor="middle" x="2006" y="-79.8" font-family="Times,serif" font-size="14.00">class = mean</text>
</g>
<!-- 282&#45;&gt;300 -->
<g id="edge26" class="edge">
<title>282&#45;&gt;300</title>
<path fill="none" stroke="black" d="M1829.02,-190.91C1852.88,-180.61 1878.64,-169.49 1902.92,-159"/>
<polygon fill="black" stroke="black" points="1904.35,-162.2 1912.14,-155.02 1901.58,-155.77 1904.35,-162.2"/>
</g>
<!-- 284 -->
<g id="node25" class="node">
<title>284</title>
<polygon fill="#c0c0c0" stroke="black" points="1726,-36 1672,-36 1672,0 1726,0 1726,-36"/>
<text text-anchor="middle" x="1699" y="-14.3" font-family="Times,serif" font-size="14.00">(...)</text>
</g>
<!-- 283&#45;&gt;284 -->
<g id="edge24" class="edge">
<title>283&#45;&gt;284</title>
<path fill="none" stroke="black" d="M1719.31,-71.76C1715.96,-63.04 1712.49,-54.04 1709.39,-45.99"/>
<polygon fill="black" stroke="black" points="1712.56,-44.48 1705.7,-36.41 1706.03,-46.99 1712.56,-44.48"/>
</g>
<!-- 293 -->
<g id="node26" class="node">
<title>293</title>
<polygon fill="#c0c0c0" stroke="black" points="1798,-36 1744,-36 1744,0 1798,0 1798,-36"/>
<text text-anchor="middle" x="1771" y="-14.3" font-family="Times,serif" font-size="14.00">(...)</text>
</g>
<!-- 283&#45;&gt;293 -->
<g id="edge25" class="edge">
<title>283&#45;&gt;293</title>
<path fill="none" stroke="black" d="M1750.69,-71.76C1754.04,-63.04 1757.51,-54.04 1760.61,-45.99"/>
<polygon fill="black" stroke="black" points="1763.97,-46.99 1764.3,-36.41 1757.44,-44.48 1763.97,-46.99"/>
</g>
<!-- 301 -->
<g id="node28" class="node">
<title>301</title>
<polygon fill="#c0c0c0" stroke="black" points="1997,-36 1943,-36 1943,0 1997,0 1997,-36"/>
<text text-anchor="middle" x="1970" y="-14.3" font-family="Times,serif" font-size="14.00">(...)</text>
</g>
<!-- 300&#45;&gt;301 -->
<g id="edge27" class="edge">
<title>300&#45;&gt;301</title>
<path fill="none" stroke="black" d="M1990.31,-71.76C1986.96,-63.04 1983.49,-54.04 1980.39,-45.99"/>
<polygon fill="black" stroke="black" points="1983.56,-44.48 1976.7,-36.41 1977.03,-46.99 1983.56,-44.48"/>
</g>
<!-- 336 -->
<g id="node29" class="node">
<title>336</title>
<polygon fill="#c0c0c0" stroke="black" points="2069,-36 2015,-36 2015,0 2069,0 2069,-36"/>
<text text-anchor="middle" x="2042" y="-14.3" font-family="Times,serif" font-size="14.00">(...)</text>
</g>
<!-- 300&#45;&gt;336 -->
<g id="edge28" class="edge">
<title>300&#45;&gt;336</title>
<path fill="none" stroke="black" d="M2021.69,-71.76C2025.04,-63.04 2028.51,-54.04 2031.61,-45.99"/>
<polygon fill="black" stroke="black" points="2034.97,-46.99 2035.3,-36.41 2028.44,-44.48 2034.97,-46.99"/>
</g>
</g>
</svg>
