<?xml version="1.0" encoding="UTF-8" standalone="no"?>
<!DOCTYPE svg PUBLIC "-//W3C//DTD SVG 1.1//EN"
 "http://www.w3.org/Graphics/SVG/1.1/DTD/svg11.dtd">
<!-- Generated by graphviz version 2.43.0 (0)
 -->
<!-- Title: Tree Pages: 1 -->
<svg width="1340pt" height="520pt"
 viewBox="0.00 0.00 1340.00 520.00" xmlns="http://www.w3.org/2000/svg" xmlns:xlink="http://www.w3.org/1999/xlink">
<g id="graph0" class="graph" transform="scale(1 1) rotate(0) translate(4 516)">
<title>Tree</title>
<polygon fill="white" stroke="transparent" points="-4,4 -4,-516 1336,-516 1336,4 -4,4"/>
<!-- 0 -->
<g id="node1" class="node">
<title>0</title>
<polygon fill="#fefeff" stroke="black" points="712,-512 545,-512 545,-429 712,-429 712,-512"/>
<text text-anchor="middle" x="628.5" y="-496.8" font-family="Times,serif" font-size="14.00">graphDepth &lt;= 3.5</text>
<text text-anchor="middle" x="628.5" y="-481.8" font-family="Times,serif" font-size="14.00">gini = 0.5</text>
<text text-anchor="middle" x="628.5" y="-466.8" font-family="Times,serif" font-size="14.00">samples = 11670</text>
<text text-anchor="middle" x="628.5" y="-451.8" font-family="Times,serif" font-size="14.00">value = [5817, 5853]</text>
<text text-anchor="middle" x="628.5" y="-436.8" font-family="Times,serif" font-size="14.00">class = True</text>
</g>
<!-- 1 -->
<g id="node2" class="node">
<title>1</title>
<polygon fill="#f4f9fd" stroke="black" points="550,-393 401,-393 401,-310 550,-310 550,-393"/>
<text text-anchor="middle" x="475.5" y="-377.8" font-family="Times,serif" font-size="14.00">sdComp &lt;= 0.65</text>
<text text-anchor="middle" x="475.5" y="-362.8" font-family="Times,serif" font-size="14.00">gini = 0.5</text>
<text text-anchor="middle" x="475.5" y="-347.8" font-family="Times,serif" font-size="14.00">samples = 1204</text>
<text text-anchor="middle" x="475.5" y="-332.8" font-family="Times,serif" font-size="14.00">value = [584, 620]</text>
<text text-anchor="middle" x="475.5" y="-317.8" font-family="Times,serif" font-size="14.00">class = True</text>
</g>
<!-- 0&#45;&gt;1 -->
<g id="edge1" class="edge">
<title>0&#45;&gt;1</title>
<path fill="none" stroke="black" d="M575.42,-428.91C562.96,-419.38 549.58,-409.15 536.79,-399.37"/>
<polygon fill="black" stroke="black" points="538.56,-396.32 528.49,-393.02 534.31,-401.88 538.56,-396.32"/>
<text text-anchor="middle" x="531.79" y="-414.1" font-family="Times,serif" font-size="14.00">True</text>
</g>
<!-- 90 -->
<g id="node15" class="node">
<title>90</title>
<polygon fill="#ffffff" stroke="black" points="884,-393 717,-393 717,-310 884,-310 884,-393"/>
<text text-anchor="middle" x="800.5" y="-377.8" font-family="Times,serif" font-size="14.00">CCR &lt;= 0.55</text>
<text text-anchor="middle" x="800.5" y="-362.8" font-family="Times,serif" font-size="14.00">gini = 0.5</text>
<text text-anchor="middle" x="800.5" y="-347.8" font-family="Times,serif" font-size="14.00">samples = 10466</text>
<text text-anchor="middle" x="800.5" y="-332.8" font-family="Times,serif" font-size="14.00">value = [5233, 5233]</text>
<text text-anchor="middle" x="800.5" y="-317.8" font-family="Times,serif" font-size="14.00">class = False</text>
</g>
<!-- 0&#45;&gt;90 -->
<g id="edge14" class="edge">
<title>0&#45;&gt;90</title>
<path fill="none" stroke="black" d="M688.17,-428.91C702.45,-419.2 717.8,-408.76 732.42,-398.81"/>
<polygon fill="black" stroke="black" points="734.63,-401.54 740.93,-393.02 730.69,-395.75 734.63,-401.54"/>
<text text-anchor="middle" x="736.26" y="-413.88" font-family="Times,serif" font-size="14.00">False</text>
</g>
<!-- 2 -->
<g id="node3" class="node">
<title>2</title>
<polygon fill="#fdfeff" stroke="black" points="317.5,-274 165.5,-274 165.5,-191 317.5,-191 317.5,-274"/>
<text text-anchor="middle" x="241.5" y="-258.8" font-family="Times,serif" font-size="14.00">sdComm &lt;= 0.065</text>
<text text-anchor="middle" x="241.5" y="-243.8" font-family="Times,serif" font-size="14.00">gini = 0.5</text>
<text text-anchor="middle" x="241.5" y="-228.8" font-family="Times,serif" font-size="14.00">samples = 741</text>
<text text-anchor="middle" x="241.5" y="-213.8" font-family="Times,serif" font-size="14.00">value = [369, 372]</text>
<text text-anchor="middle" x="241.5" y="-198.8" font-family="Times,serif" font-size="14.00">class = True</text>
</g>
<!-- 1&#45;&gt;2 -->
<g id="edge2" class="edge">
<title>1&#45;&gt;2</title>
<path fill="none" stroke="black" d="M400.82,-313.16C377.33,-301.42 351.22,-288.36 327.05,-276.27"/>
<polygon fill="black" stroke="black" points="328.39,-273.03 317.89,-271.69 325.26,-279.3 328.39,-273.03"/>
</g>
<!-- 51 -->
<g id="node10" class="node">
<title>51</title>
<polygon fill="#e5f2fc" stroke="black" points="550,-274 401,-274 401,-191 550,-191 550,-274"/>
<text text-anchor="middle" x="475.5" y="-258.8" font-family="Times,serif" font-size="14.00">sdComm &lt;= 0.2</text>
<text text-anchor="middle" x="475.5" y="-243.8" font-family="Times,serif" font-size="14.00">gini = 0.497</text>
<text text-anchor="middle" x="475.5" y="-228.8" font-family="Times,serif" font-size="14.00">samples = 463</text>
<text text-anchor="middle" x="475.5" y="-213.8" font-family="Times,serif" font-size="14.00">value = [215, 248]</text>
<text text-anchor="middle" x="475.5" y="-198.8" font-family="Times,serif" font-size="14.00">class = True</text>
</g>
<!-- 1&#45;&gt;51 -->
<g id="edge9" class="edge">
<title>1&#45;&gt;51</title>
<path fill="none" stroke="black" d="M475.5,-309.91C475.5,-301.65 475.5,-292.86 475.5,-284.3"/>
<polygon fill="black" stroke="black" points="479,-284.02 475.5,-274.02 472,-284.02 479,-284.02"/>
</g>
<!-- 3 -->
<g id="node4" class="node">
<title>3</title>
<polygon fill="#ffffff" stroke="black" points="149,-155 0,-155 0,-72 149,-72 149,-155"/>
<text text-anchor="middle" x="74.5" y="-139.8" font-family="Times,serif" font-size="14.00">nbproc &lt;= 4.5</text>
<text text-anchor="middle" x="74.5" y="-124.8" font-family="Times,serif" font-size="14.00">gini = 0.5</text>
<text text-anchor="middle" x="74.5" y="-109.8" font-family="Times,serif" font-size="14.00">samples = 414</text>
<text text-anchor="middle" x="74.5" y="-94.8" font-family="Times,serif" font-size="14.00">value = [207, 207]</text>
<text text-anchor="middle" x="74.5" y="-79.8" font-family="Times,serif" font-size="14.00">class = False</text>
</g>
<!-- 2&#45;&gt;3 -->
<g id="edge3" class="edge">
<title>2&#45;&gt;3</title>
<path fill="none" stroke="black" d="M183.56,-190.91C169.7,-181.2 154.8,-170.76 140.6,-160.81"/>
<polygon fill="black" stroke="black" points="142.54,-157.89 132.34,-155.02 138.52,-163.63 142.54,-157.89"/>
</g>
<!-- 18 -->
<g id="node7" class="node">
<title>18</title>
<polygon fill="#fbfdff" stroke="black" points="316,-155 167,-155 167,-72 316,-72 316,-155"/>
<text text-anchor="middle" x="241.5" y="-139.8" font-family="Times,serif" font-size="14.00">CCR &lt;= 0.55</text>
<text text-anchor="middle" x="241.5" y="-124.8" font-family="Times,serif" font-size="14.00">gini = 0.5</text>
<text text-anchor="middle" x="241.5" y="-109.8" font-family="Times,serif" font-size="14.00">samples = 327</text>
<text text-anchor="middle" x="241.5" y="-94.8" font-family="Times,serif" font-size="14.00">value = [162, 165]</text>
<text text-anchor="middle" x="241.5" y="-79.8" font-family="Times,serif" font-size="14.00">class = True</text>
</g>
<!-- 2&#45;&gt;18 -->
<g id="edge6" class="edge">
<title>2&#45;&gt;18</title>
<path fill="none" stroke="black" d="M241.5,-190.91C241.5,-182.65 241.5,-173.86 241.5,-165.3"/>
<polygon fill="black" stroke="black" points="245,-165.02 241.5,-155.02 238,-165.02 245,-165.02"/>
</g>
<!-- 4 -->
<g id="node5" class="node">
<title>4</title>
<polygon fill="#c0c0c0" stroke="black" points="65.5,-36 11.5,-36 11.5,0 65.5,0 65.5,-36"/>
<text text-anchor="middle" x="38.5" y="-14.3" font-family="Times,serif" font-size="14.00">(...)</text>
</g>
<!-- 3&#45;&gt;4 -->
<g id="edge4" class="edge">
<title>3&#45;&gt;4</title>
<path fill="none" stroke="black" d="M58.81,-71.76C55.46,-63.04 51.99,-54.04 48.89,-45.99"/>
<polygon fill="black" stroke="black" points="52.06,-44.48 45.2,-36.41 45.53,-46.99 52.06,-44.48"/>
</g>
<!-- 13 -->
<g id="node6" class="node">
<title>13</title>
<polygon fill="#c0c0c0" stroke="black" points="137.5,-36 83.5,-36 83.5,0 137.5,0 137.5,-36"/>
<text text-anchor="middle" x="110.5" y="-14.3" font-family="Times,serif" font-size="14.00">(...)</text>
</g>
<!-- 3&#45;&gt;13 -->
<g id="edge5" class="edge">
<title>3&#45;&gt;13</title>
<path fill="none" stroke="black" d="M90.19,-71.76C93.54,-63.04 97.01,-54.04 100.11,-45.99"/>
<polygon fill="black" stroke="black" points="103.47,-46.99 103.8,-36.41 96.94,-44.48 103.47,-46.99"/>
</g>
<!-- 19 -->
<g id="node8" class="node">
<title>19</title>
<polygon fill="#c0c0c0" stroke="black" points="239.5,-36 185.5,-36 185.5,0 239.5,0 239.5,-36"/>
<text text-anchor="middle" x="212.5" y="-14.3" font-family="Times,serif" font-size="14.00">(...)</text>
</g>
<!-- 18&#45;&gt;19 -->
<g id="edge7" class="edge">
<title>18&#45;&gt;19</title>
<path fill="none" stroke="black" d="M228.86,-71.76C226.16,-63.04 223.37,-54.04 220.87,-45.99"/>
<polygon fill="black" stroke="black" points="224.2,-44.92 217.9,-36.41 217.52,-46.99 224.2,-44.92"/>
</g>
<!-- 30 -->
<g id="node9" class="node">
<title>30</title>
<polygon fill="#c0c0c0" stroke="black" points="311.5,-36 257.5,-36 257.5,0 311.5,0 311.5,-36"/>
<text text-anchor="middle" x="284.5" y="-14.3" font-family="Times,serif" font-size="14.00">(...)</text>
</g>
<!-- 18&#45;&gt;30 -->
<g id="edge8" class="edge">
<title>18&#45;&gt;30</title>
<path fill="none" stroke="black" d="M260.24,-71.76C264.29,-62.94 268.48,-53.84 272.21,-45.72"/>
<polygon fill="black" stroke="black" points="275.5,-46.95 276.5,-36.41 269.14,-44.03 275.5,-46.95"/>
</g>
<!-- 52 -->
<g id="node11" class="node">
<title>52</title>
<polygon fill="#48a4e7" stroke="black" points="456.5,-147.5 334.5,-147.5 334.5,-79.5 456.5,-79.5 456.5,-147.5"/>
<text text-anchor="middle" x="395.5" y="-132.3" font-family="Times,serif" font-size="14.00">gini = 0.128</text>
<text text-anchor="middle" x="395.5" y="-117.3" font-family="Times,serif" font-size="14.00">samples = 29</text>
<text text-anchor="middle" x="395.5" y="-102.3" font-family="Times,serif" font-size="14.00">value = [2, 27]</text>
<text text-anchor="middle" x="395.5" y="-87.3" font-family="Times,serif" font-size="14.00">class = True</text>
</g>
<!-- 51&#45;&gt;52 -->
<g id="edge10" class="edge">
<title>51&#45;&gt;52</title>
<path fill="none" stroke="black" d="M447.74,-190.91C440.05,-179.65 431.68,-167.42 423.95,-156.11"/>
<polygon fill="black" stroke="black" points="426.71,-153.95 418.18,-147.67 420.93,-157.9 426.71,-153.95"/>
</g>
<!-- 53 -->
<g id="node12" class="node">
<title>53</title>
<polygon fill="#f8fbfe" stroke="black" points="624,-155 475,-155 475,-72 624,-72 624,-155"/>
<text text-anchor="middle" x="549.5" y="-139.8" font-family="Times,serif" font-size="14.00">CCR &lt;= 5.5</text>
<text text-anchor="middle" x="549.5" y="-124.8" font-family="Times,serif" font-size="14.00">gini = 0.5</text>
<text text-anchor="middle" x="549.5" y="-109.8" font-family="Times,serif" font-size="14.00">samples = 434</text>
<text text-anchor="middle" x="549.5" y="-94.8" font-family="Times,serif" font-size="14.00">value = [213, 221]</text>
<text text-anchor="middle" x="549.5" y="-79.8" font-family="Times,serif" font-size="14.00">class = True</text>
</g>
<!-- 51&#45;&gt;53 -->
<g id="edge11" class="edge">
<title>51&#45;&gt;53</title>
<path fill="none" stroke="black" d="M501.17,-190.91C506.74,-182.1 512.69,-172.7 518.44,-163.61"/>
<polygon fill="black" stroke="black" points="521.48,-165.34 523.87,-155.02 515.57,-161.6 521.48,-165.34"/>
</g>
<!-- 54 -->
<g id="node13" class="node">
<title>54</title>
<polygon fill="#c0c0c0" stroke="black" points="515.5,-36 461.5,-36 461.5,0 515.5,0 515.5,-36"/>
<text text-anchor="middle" x="488.5" y="-14.3" font-family="Times,serif" font-size="14.00">(...)</text>
</g>
<!-- 53&#45;&gt;54 -->
<g id="edge12" class="edge">
<title>53&#45;&gt;54</title>
<path fill="none" stroke="black" d="M522.92,-71.76C516.98,-62.65 510.84,-53.24 505.41,-44.92"/>
<polygon fill="black" stroke="black" points="508.25,-42.87 499.86,-36.41 502.39,-46.69 508.25,-42.87"/>
</g>
<!-- 61 -->
<g id="node14" class="node">
<title>61</title>
<polygon fill="#c0c0c0" stroke="black" points="587.5,-36 533.5,-36 533.5,0 587.5,0 587.5,-36"/>
<text text-anchor="middle" x="560.5" y="-14.3" font-family="Times,serif" font-size="14.00">(...)</text>
</g>
<!-- 53&#45;&gt;61 -->
<g id="edge13" class="edge">
<title>53&#45;&gt;61</title>
<path fill="none" stroke="black" d="M554.29,-71.76C555.3,-63.24 556.33,-54.44 557.26,-46.53"/>
<polygon fill="black" stroke="black" points="560.76,-46.75 558.45,-36.41 553.81,-45.93 560.76,-46.75"/>
</g>
<!-- 91 -->
<g id="node16" class="node">
<title>91</title>
<polygon fill="#ffffff" stroke="black" points="875,-274 726,-274 726,-191 875,-191 875,-274"/>
<text text-anchor="middle" x="800.5" y="-258.8" font-family="Times,serif" font-size="14.00">sdComm &lt;= 0.02</text>
<text text-anchor="middle" x="800.5" y="-243.8" font-family="Times,serif" font-size="14.00">gini = 0.5</text>
<text text-anchor="middle" x="800.5" y="-228.8" font-family="Times,serif" font-size="14.00">samples = 1696</text>
<text text-anchor="middle" x="800.5" y="-213.8" font-family="Times,serif" font-size="14.00">value = [848, 848]</text>
<text text-anchor="middle" x="800.5" y="-198.8" font-family="Times,serif" font-size="14.00">class = False</text>
</g>
<!-- 90&#45;&gt;91 -->
<g id="edge15" class="edge">
<title>90&#45;&gt;91</title>
<path fill="none" stroke="black" d="M800.5,-309.91C800.5,-301.65 800.5,-292.86 800.5,-284.3"/>
<polygon fill="black" stroke="black" points="804,-284.02 800.5,-274.02 797,-284.02 804,-284.02"/>
</g>
<!-- 306 -->
<g id="node23" class="node">
<title>306</title>
<polygon fill="#ffffff" stroke="black" points="1147,-274 980,-274 980,-191 1147,-191 1147,-274"/>
<text text-anchor="middle" x="1063.5" y="-258.8" font-family="Times,serif" font-size="14.00">graphSize &lt;= 22.5</text>
<text text-anchor="middle" x="1063.5" y="-243.8" font-family="Times,serif" font-size="14.00">gini = 0.5</text>
<text text-anchor="middle" x="1063.5" y="-228.8" font-family="Times,serif" font-size="14.00">samples = 8770</text>
<text text-anchor="middle" x="1063.5" y="-213.8" font-family="Times,serif" font-size="14.00">value = [4385, 4385]</text>
<text text-anchor="middle" x="1063.5" y="-198.8" font-family="Times,serif" font-size="14.00">class = False</text>
</g>
<!-- 90&#45;&gt;306 -->
<g id="edge22" class="edge">
<title>90&#45;&gt;306</title>
<path fill="none" stroke="black" d="M884.08,-313.32C911.51,-301.12 942.16,-287.48 970.27,-274.98"/>
<polygon fill="black" stroke="black" points="971.98,-278.05 979.69,-270.78 969.13,-271.65 971.98,-278.05"/>
</g>
<!-- 92 -->
<g id="node17" class="node">
<title>92</title>
<polygon fill="#ffffff" stroke="black" points="791,-155 642,-155 642,-72 791,-72 791,-155"/>
<text text-anchor="middle" x="716.5" y="-139.8" font-family="Times,serif" font-size="14.00">sdComp &lt;= 0.02</text>
<text text-anchor="middle" x="716.5" y="-124.8" font-family="Times,serif" font-size="14.00">gini = 0.5</text>
<text text-anchor="middle" x="716.5" y="-109.8" font-family="Times,serif" font-size="14.00">samples = 544</text>
<text text-anchor="middle" x="716.5" y="-94.8" font-family="Times,serif" font-size="14.00">value = [272, 272]</text>
<text text-anchor="middle" x="716.5" y="-79.8" font-family="Times,serif" font-size="14.00">class = False</text>
</g>
<!-- 91&#45;&gt;92 -->
<g id="edge16" class="edge">
<title>91&#45;&gt;92</title>
<path fill="none" stroke="black" d="M771.36,-190.91C764.97,-182.01 758.15,-172.51 751.56,-163.33"/>
<polygon fill="black" stroke="black" points="754.27,-161.1 745.59,-155.02 748.58,-165.19 754.27,-161.1"/>
</g>
<!-- 163 -->
<g id="node20" class="node">
<title>163</title>
<polygon fill="#ffffff" stroke="black" points="961.5,-155 809.5,-155 809.5,-72 961.5,-72 961.5,-155"/>
<text text-anchor="middle" x="885.5" y="-139.8" font-family="Times,serif" font-size="14.00">sdComm &lt;= 0.065</text>
<text text-anchor="middle" x="885.5" y="-124.8" font-family="Times,serif" font-size="14.00">gini = 0.5</text>
<text text-anchor="middle" x="885.5" y="-109.8" font-family="Times,serif" font-size="14.00">samples = 1152</text>
<text text-anchor="middle" x="885.5" y="-94.8" font-family="Times,serif" font-size="14.00">value = [576, 576]</text>
<text text-anchor="middle" x="885.5" y="-79.8" font-family="Times,serif" font-size="14.00">class = False</text>
</g>
<!-- 91&#45;&gt;163 -->
<g id="edge19" class="edge">
<title>91&#45;&gt;163</title>
<path fill="none" stroke="black" d="M829.99,-190.91C836.45,-182.01 843.36,-172.51 850.02,-163.33"/>
<polygon fill="black" stroke="black" points="853.02,-165.17 856.06,-155.02 847.35,-161.05 853.02,-165.17"/>
</g>
<!-- 93 -->
<g id="node18" class="node">
<title>93</title>
<polygon fill="#c0c0c0" stroke="black" points="683.5,-36 629.5,-36 629.5,0 683.5,0 683.5,-36"/>
<text text-anchor="middle" x="656.5" y="-14.3" font-family="Times,serif" font-size="14.00">(...)</text>
</g>
<!-- 92&#45;&gt;93 -->
<g id="edge17" class="edge">
<title>92&#45;&gt;93</title>
<path fill="none" stroke="black" d="M690.36,-71.76C684.51,-62.65 678.47,-53.24 673.14,-44.92"/>
<polygon fill="black" stroke="black" points="676.02,-42.93 667.67,-36.41 670.12,-46.71 676.02,-42.93"/>
</g>
<!-- 116 -->
<g id="node19" class="node">
<title>116</title>
<polygon fill="#c0c0c0" stroke="black" points="755.5,-36 701.5,-36 701.5,0 755.5,0 755.5,-36"/>
<text text-anchor="middle" x="728.5" y="-14.3" font-family="Times,serif" font-size="14.00">(...)</text>
</g>
<!-- 92&#45;&gt;116 -->
<g id="edge18" class="edge">
<title>92&#45;&gt;116</title>
<path fill="none" stroke="black" d="M721.73,-71.76C722.82,-63.24 723.95,-54.44 724.97,-46.53"/>
<polygon fill="black" stroke="black" points="728.46,-46.77 726.27,-36.41 721.52,-45.88 728.46,-46.77"/>
</g>
<!-- 164 -->
<g id="node21" class="node">
<title>164</title>
<polygon fill="#c0c0c0" stroke="black" points="857.5,-36 803.5,-36 803.5,0 857.5,0 857.5,-36"/>
<text text-anchor="middle" x="830.5" y="-14.3" font-family="Times,serif" font-size="14.00">(...)</text>
</g>
<!-- 163&#45;&gt;164 -->
<g id="edge20" class="edge">
<title>163&#45;&gt;164</title>
<path fill="none" stroke="black" d="M861.54,-71.76C856.24,-62.75 850.76,-53.44 845.91,-45.19"/>
<polygon fill="black" stroke="black" points="848.83,-43.25 840.74,-36.41 842.79,-46.8 848.83,-43.25"/>
</g>
<!-- 237 -->
<g id="node22" class="node">
<title>237</title>
<polygon fill="#c0c0c0" stroke="black" points="929.5,-36 875.5,-36 875.5,0 929.5,0 929.5,-36"/>
<text text-anchor="middle" x="902.5" y="-14.3" font-family="Times,serif" font-size="14.00">(...)</text>
</g>
<!-- 163&#45;&gt;237 -->
<g id="edge21" class="edge">
<title>163&#45;&gt;237</title>
<path fill="none" stroke="black" d="M892.91,-71.76C894.47,-63.14 896.09,-54.24 897.54,-46.26"/>
<polygon fill="black" stroke="black" points="900.99,-46.87 899.34,-36.41 894.1,-45.62 900.99,-46.87"/>
</g>
<!-- 307 -->
<g id="node24" class="node">
<title>307</title>
<polygon fill="#ffffff" stroke="black" points="1147,-155 980,-155 980,-72 1147,-72 1147,-155"/>
<text text-anchor="middle" x="1063.5" y="-139.8" font-family="Times,serif" font-size="14.00">CCR &lt;= 5.5</text>
<text text-anchor="middle" x="1063.5" y="-124.8" font-family="Times,serif" font-size="14.00">gini = 0.5</text>
<text text-anchor="middle" x="1063.5" y="-109.8" font-family="Times,serif" font-size="14.00">samples = 3352</text>
<text text-anchor="middle" x="1063.5" y="-94.8" font-family="Times,serif" font-size="14.00">value = [1676, 1676]</text>
<text text-anchor="middle" x="1063.5" y="-79.8" font-family="Times,serif" font-size="14.00">class = False</text>
</g>
<!-- 306&#45;&gt;307 -->
<g id="edge23" class="edge">
<title>306&#45;&gt;307</title>
<path fill="none" stroke="black" d="M1063.5,-190.91C1063.5,-182.65 1063.5,-173.86 1063.5,-165.3"/>
<polygon fill="black" stroke="black" points="1067,-165.02 1063.5,-155.02 1060,-165.02 1067,-165.02"/>
</g>
<!-- 376 -->
<g id="node27" class="node">
<title>376</title>
<polygon fill="#ffffff" stroke="black" points="1332,-155 1165,-155 1165,-72 1332,-72 1332,-155"/>
<text text-anchor="middle" x="1248.5" y="-139.8" font-family="Times,serif" font-size="14.00">graphDepth &lt;= 6.5</text>
<text text-anchor="middle" x="1248.5" y="-124.8" font-family="Times,serif" font-size="14.00">gini = 0.5</text>
<text text-anchor="middle" x="1248.5" y="-109.8" font-family="Times,serif" font-size="14.00">samples = 5418</text>
<text text-anchor="middle" x="1248.5" y="-94.8" font-family="Times,serif" font-size="14.00">value = [2709, 2709]</text>
<text text-anchor="middle" x="1248.5" y="-79.8" font-family="Times,serif" font-size="14.00">class = False</text>
</g>
<!-- 306&#45;&gt;376 -->
<g id="edge26" class="edge">
<title>306&#45;&gt;376</title>
<path fill="none" stroke="black" d="M1127.68,-190.91C1143.18,-181.11 1159.85,-170.56 1175.71,-160.53"/>
<polygon fill="black" stroke="black" points="1177.85,-163.32 1184.43,-155.02 1174.11,-157.41 1177.85,-163.32"/>
</g>
<!-- 308 -->
<g id="node25" class="node">
<title>308</title>
<polygon fill="#c0c0c0" stroke="black" points="1054.5,-36 1000.5,-36 1000.5,0 1054.5,0 1054.5,-36"/>
<text text-anchor="middle" x="1027.5" y="-14.3" font-family="Times,serif" font-size="14.00">(...)</text>
</g>
<!-- 307&#45;&gt;308 -->
<g id="edge24" class="edge">
<title>307&#45;&gt;308</title>
<path fill="none" stroke="black" d="M1047.81,-71.76C1044.46,-63.04 1040.99,-54.04 1037.89,-45.99"/>
<polygon fill="black" stroke="black" points="1041.06,-44.48 1034.2,-36.41 1034.53,-46.99 1041.06,-44.48"/>
</g>
<!-- 341 -->
<g id="node26" class="node">
<title>341</title>
<polygon fill="#c0c0c0" stroke="black" points="1126.5,-36 1072.5,-36 1072.5,0 1126.5,0 1126.5,-36"/>
<text text-anchor="middle" x="1099.5" y="-14.3" font-family="Times,serif" font-size="14.00">(...)</text>
</g>
<!-- 307&#45;&gt;341 -->
<g id="edge25" class="edge">
<title>307&#45;&gt;341</title>
<path fill="none" stroke="black" d="M1079.19,-71.76C1082.54,-63.04 1086.01,-54.04 1089.11,-45.99"/>
<polygon fill="black" stroke="black" points="1092.47,-46.99 1092.8,-36.41 1085.94,-44.48 1092.47,-46.99"/>
</g>
<!-- 377 -->
<g id="node28" class="node">
<title>377</title>
<polygon fill="#c0c0c0" stroke="black" points="1239.5,-36 1185.5,-36 1185.5,0 1239.5,0 1239.5,-36"/>
<text text-anchor="middle" x="1212.5" y="-14.3" font-family="Times,serif" font-size="14.00">(...)</text>
</g>
<!-- 376&#45;&gt;377 -->
<g id="edge27" class="edge">
<title>376&#45;&gt;377</title>
<path fill="none" stroke="black" d="M1232.81,-71.76C1229.46,-63.04 1225.99,-54.04 1222.89,-45.99"/>
<polygon fill="black" stroke="black" points="1226.06,-44.48 1219.2,-36.41 1219.53,-46.99 1226.06,-44.48"/>
</g>
<!-- 430 -->
<g id="node29" class="node">
<title>430</title>
<polygon fill="#c0c0c0" stroke="black" points="1311.5,-36 1257.5,-36 1257.5,0 1311.5,0 1311.5,-36"/>
<text text-anchor="middle" x="1284.5" y="-14.3" font-family="Times,serif" font-size="14.00">(...)</text>
</g>
<!-- 376&#45;&gt;430 -->
<g id="edge28" class="edge">
<title>376&#45;&gt;430</title>
<path fill="none" stroke="black" d="M1264.19,-71.76C1267.54,-63.04 1271.01,-54.04 1274.11,-45.99"/>
<polygon fill="black" stroke="black" points="1277.47,-46.99 1277.8,-36.41 1270.94,-44.48 1277.47,-46.99"/>
</g>
</g>
</svg>
