<?xml version="1.0" encoding="UTF-8" standalone="no"?>
<!DOCTYPE svg PUBLIC "-//W3C//DTD SVG 1.1//EN"
 "http://www.w3.org/Graphics/SVG/1.1/DTD/svg11.dtd">
<!-- Generated by graphviz version 2.43.0 (0)
 -->
<!-- Title: Tree Pages: 1 -->
<svg width="1604pt" height="520pt"
 viewBox="0.00 0.00 1604.00 520.00" xmlns="http://www.w3.org/2000/svg" xmlns:xlink="http://www.w3.org/1999/xlink">
<g id="graph0" class="graph" transform="scale(1 1) rotate(0) translate(4 516)">
<title>Tree</title>
<polygon fill="white" stroke="transparent" points="-4,4 -4,-516 1600,-516 1600,4 -4,4"/>
<!-- 0 -->
<g id="node1" class="node">
<title>0</title>
<polygon fill="#ccaff5" stroke="black" points="889.5,-512 677.5,-512 677.5,-429 889.5,-429 889.5,-512"/>
<text text-anchor="middle" x="783.5" y="-496.8" font-family="Times,serif" font-size="14.00">CCR &lt;= 5.5</text>
<text text-anchor="middle" x="783.5" y="-481.8" font-family="Times,serif" font-size="14.00">gini = 0.555</text>
<text text-anchor="middle" x="783.5" y="-466.8" font-family="Times,serif" font-size="14.00">samples = 11670</text>
<text text-anchor="middle" x="783.5" y="-451.8" font-family="Times,serif" font-size="14.00">value = [1333, 3534, 6803]</text>
<text text-anchor="middle" x="783.5" y="-436.8" font-family="Times,serif" font-size="14.00">class = None</text>
</g>
<!-- 1 -->
<g id="node2" class="node">
<title>1</title>
<polygon fill="#85efb1" stroke="black" points="689.5,-393 495.5,-393 495.5,-310 689.5,-310 689.5,-393"/>
<text text-anchor="middle" x="592.5" y="-377.8" font-family="Times,serif" font-size="14.00">nbproc &lt;= 4.5</text>
<text text-anchor="middle" x="592.5" y="-362.8" font-family="Times,serif" font-size="14.00">gini = 0.47</text>
<text text-anchor="middle" x="592.5" y="-347.8" font-family="Times,serif" font-size="14.00">samples = 4252</text>
<text text-anchor="middle" x="592.5" y="-332.8" font-family="Times,serif" font-size="14.00">value = [825, 2944, 483]</text>
<text text-anchor="middle" x="592.5" y="-317.8" font-family="Times,serif" font-size="14.00">class = DCP</text>
</g>
<!-- 0&#45;&gt;1 -->
<g id="edge1" class="edge">
<title>0&#45;&gt;1</title>
<path fill="none" stroke="black" d="M717.23,-428.91C701.09,-419.02 683.7,-408.37 667.19,-398.25"/>
<polygon fill="black" stroke="black" points="669,-395.26 658.65,-393.02 665.35,-401.23 669,-395.26"/>
<text text-anchor="middle" x="664.49" y="-413.63" font-family="Times,serif" font-size="14.00">True</text>
</g>
<!-- 308 -->
<g id="node17" class="node">
<title>308</title>
<polygon fill="#9559e9" stroke="black" points="1091.5,-393 897.5,-393 897.5,-310 1091.5,-310 1091.5,-393"/>
<text text-anchor="middle" x="994.5" y="-377.8" font-family="Times,serif" font-size="14.00">nbproc &lt;= 4.5</text>
<text text-anchor="middle" x="994.5" y="-362.8" font-family="Times,serif" font-size="14.00">gini = 0.263</text>
<text text-anchor="middle" x="994.5" y="-347.8" font-family="Times,serif" font-size="14.00">samples = 7418</text>
<text text-anchor="middle" x="994.5" y="-332.8" font-family="Times,serif" font-size="14.00">value = [508, 590, 6320]</text>
<text text-anchor="middle" x="994.5" y="-317.8" font-family="Times,serif" font-size="14.00">class = None</text>
</g>
<!-- 0&#45;&gt;308 -->
<g id="edge16" class="edge">
<title>0&#45;&gt;308</title>
<path fill="none" stroke="black" d="M856.71,-428.91C874.71,-418.92 894.1,-408.17 912.49,-397.98"/>
<polygon fill="black" stroke="black" points="914.38,-400.93 921.42,-393.02 910.98,-394.81 914.38,-400.93"/>
<text text-anchor="middle" x="914.54" y="-413.35" font-family="Times,serif" font-size="14.00">False</text>
</g>
<!-- 2 -->
<g id="node3" class="node">
<title>2</title>
<polygon fill="#b7f6d1" stroke="black" points="392.5,-274 198.5,-274 198.5,-191 392.5,-191 392.5,-274"/>
<text text-anchor="middle" x="295.5" y="-258.8" font-family="Times,serif" font-size="14.00">graphDepth &lt;= 3.5</text>
<text text-anchor="middle" x="295.5" y="-243.8" font-family="Times,serif" font-size="14.00">gini = 0.599</text>
<text text-anchor="middle" x="295.5" y="-228.8" font-family="Times,serif" font-size="14.00">samples = 1866</text>
<text text-anchor="middle" x="295.5" y="-213.8" font-family="Times,serif" font-size="14.00">value = [513, 1006, 347]</text>
<text text-anchor="middle" x="295.5" y="-198.8" font-family="Times,serif" font-size="14.00">class = DCP</text>
</g>
<!-- 1&#45;&gt;2 -->
<g id="edge2" class="edge">
<title>1&#45;&gt;2</title>
<path fill="none" stroke="black" d="M495.25,-312.19C465.43,-300.44 432.47,-287.46 402.06,-275.48"/>
<polygon fill="black" stroke="black" points="403.3,-272.21 392.71,-271.8 400.73,-278.72 403.3,-272.21"/>
</g>
<!-- 165 -->
<g id="node10" class="node">
<title>165</title>
<polygon fill="#64eb9c" stroke="black" points="689.5,-274 495.5,-274 495.5,-191 689.5,-191 689.5,-274"/>
<text text-anchor="middle" x="592.5" y="-258.8" font-family="Times,serif" font-size="14.00">CCR &lt;= 0.55</text>
<text text-anchor="middle" x="592.5" y="-243.8" font-family="Times,serif" font-size="14.00">gini = 0.32</text>
<text text-anchor="middle" x="592.5" y="-228.8" font-family="Times,serif" font-size="14.00">samples = 2386</text>
<text text-anchor="middle" x="592.5" y="-213.8" font-family="Times,serif" font-size="14.00">value = [312, 1938, 136]</text>
<text text-anchor="middle" x="592.5" y="-198.8" font-family="Times,serif" font-size="14.00">class = DCP</text>
</g>
<!-- 1&#45;&gt;165 -->
<g id="edge9" class="edge">
<title>1&#45;&gt;165</title>
<path fill="none" stroke="black" d="M592.5,-309.91C592.5,-301.65 592.5,-292.86 592.5,-284.3"/>
<polygon fill="black" stroke="black" points="596,-284.02 592.5,-274.02 589,-284.02 596,-284.02"/>
</g>
<!-- 3 -->
<g id="node4" class="node">
<title>3</title>
<polygon fill="#fbfffd" stroke="black" points="185,-155 0,-155 0,-72 185,-72 185,-155"/>
<text text-anchor="middle" x="92.5" y="-139.8" font-family="Times,serif" font-size="14.00">CCR &lt;= 0.55</text>
<text text-anchor="middle" x="92.5" y="-124.8" font-family="Times,serif" font-size="14.00">gini = 0.659</text>
<text text-anchor="middle" x="92.5" y="-109.8" font-family="Times,serif" font-size="14.00">samples = 602</text>
<text text-anchor="middle" x="92.5" y="-94.8" font-family="Times,serif" font-size="14.00">value = [157, 226, 219]</text>
<text text-anchor="middle" x="92.5" y="-79.8" font-family="Times,serif" font-size="14.00">class = DCP</text>
</g>
<!-- 2&#45;&gt;3 -->
<g id="edge3" class="edge">
<title>2&#45;&gt;3</title>
<path fill="none" stroke="black" d="M225.07,-190.91C207.91,-181.02 189.43,-170.37 171.89,-160.25"/>
<polygon fill="black" stroke="black" points="173.22,-156.98 162.81,-155.02 169.72,-163.05 173.22,-156.98"/>
</g>
<!-- 36 -->
<g id="node7" class="node">
<title>36</title>
<polygon fill="#a3f3c4" stroke="black" points="388,-155 203,-155 203,-72 388,-72 388,-155"/>
<text text-anchor="middle" x="295.5" y="-139.8" font-family="Times,serif" font-size="14.00">sdComp &lt;= 0.2</text>
<text text-anchor="middle" x="295.5" y="-124.8" font-family="Times,serif" font-size="14.00">gini = 0.53</text>
<text text-anchor="middle" x="295.5" y="-109.8" font-family="Times,serif" font-size="14.00">samples = 1264</text>
<text text-anchor="middle" x="295.5" y="-94.8" font-family="Times,serif" font-size="14.00">value = [356, 780, 128]</text>
<text text-anchor="middle" x="295.5" y="-79.8" font-family="Times,serif" font-size="14.00">class = DCP</text>
</g>
<!-- 2&#45;&gt;36 -->
<g id="edge6" class="edge">
<title>2&#45;&gt;36</title>
<path fill="none" stroke="black" d="M295.5,-190.91C295.5,-182.65 295.5,-173.86 295.5,-165.3"/>
<polygon fill="black" stroke="black" points="299,-165.02 295.5,-155.02 292,-165.02 299,-165.02"/>
</g>
<!-- 4 -->
<g id="node5" class="node">
<title>4</title>
<polygon fill="#c0c0c0" stroke="black" points="83.5,-36 29.5,-36 29.5,0 83.5,0 83.5,-36"/>
<text text-anchor="middle" x="56.5" y="-14.3" font-family="Times,serif" font-size="14.00">(...)</text>
</g>
<!-- 3&#45;&gt;4 -->
<g id="edge4" class="edge">
<title>3&#45;&gt;4</title>
<path fill="none" stroke="black" d="M76.81,-71.76C73.46,-63.04 69.99,-54.04 66.89,-45.99"/>
<polygon fill="black" stroke="black" points="70.06,-44.48 63.2,-36.41 63.53,-46.99 70.06,-44.48"/>
</g>
<!-- 19 -->
<g id="node6" class="node">
<title>19</title>
<polygon fill="#c0c0c0" stroke="black" points="155.5,-36 101.5,-36 101.5,0 155.5,0 155.5,-36"/>
<text text-anchor="middle" x="128.5" y="-14.3" font-family="Times,serif" font-size="14.00">(...)</text>
</g>
<!-- 3&#45;&gt;19 -->
<g id="edge5" class="edge">
<title>3&#45;&gt;19</title>
<path fill="none" stroke="black" d="M108.19,-71.76C111.54,-63.04 115.01,-54.04 118.11,-45.99"/>
<polygon fill="black" stroke="black" points="121.47,-46.99 121.8,-36.41 114.94,-44.48 121.47,-46.99"/>
</g>
<!-- 37 -->
<g id="node8" class="node">
<title>37</title>
<polygon fill="#c0c0c0" stroke="black" points="299.5,-36 245.5,-36 245.5,0 299.5,0 299.5,-36"/>
<text text-anchor="middle" x="272.5" y="-14.3" font-family="Times,serif" font-size="14.00">(...)</text>
</g>
<!-- 36&#45;&gt;37 -->
<g id="edge7" class="edge">
<title>36&#45;&gt;37</title>
<path fill="none" stroke="black" d="M285.48,-71.76C283.36,-63.14 281.17,-54.24 279.21,-46.26"/>
<polygon fill="black" stroke="black" points="282.57,-45.28 276.78,-36.41 275.77,-46.95 282.57,-45.28"/>
</g>
<!-- 136 -->
<g id="node9" class="node">
<title>136</title>
<polygon fill="#c0c0c0" stroke="black" points="371.5,-36 317.5,-36 317.5,0 371.5,0 371.5,-36"/>
<text text-anchor="middle" x="344.5" y="-14.3" font-family="Times,serif" font-size="14.00">(...)</text>
</g>
<!-- 36&#45;&gt;136 -->
<g id="edge8" class="edge">
<title>36&#45;&gt;136</title>
<path fill="none" stroke="black" d="M316.85,-71.76C321.52,-62.85 326.35,-53.64 330.63,-45.46"/>
<polygon fill="black" stroke="black" points="333.84,-46.89 335.38,-36.41 327.64,-43.64 333.84,-46.89"/>
</g>
<!-- 166 -->
<g id="node11" class="node">
<title>166</title>
<polygon fill="#7aedaa" stroke="black" points="581.5,-155 405.5,-155 405.5,-72 581.5,-72 581.5,-155"/>
<text text-anchor="middle" x="493.5" y="-139.8" font-family="Times,serif" font-size="14.00">graphDepth &lt;= 13.5</text>
<text text-anchor="middle" x="493.5" y="-124.8" font-family="Times,serif" font-size="14.00">gini = 0.395</text>
<text text-anchor="middle" x="493.5" y="-109.8" font-family="Times,serif" font-size="14.00">samples = 1248</text>
<text text-anchor="middle" x="493.5" y="-94.8" font-family="Times,serif" font-size="14.00">value = [274, 930, 44]</text>
<text text-anchor="middle" x="493.5" y="-79.8" font-family="Times,serif" font-size="14.00">class = DCP</text>
</g>
<!-- 165&#45;&gt;166 -->
<g id="edge10" class="edge">
<title>165&#45;&gt;166</title>
<path fill="none" stroke="black" d="M558.15,-190.91C550.47,-181.83 542.26,-172.12 534.34,-162.77"/>
<polygon fill="black" stroke="black" points="536.92,-160.39 527.79,-155.02 531.57,-164.92 536.92,-160.39"/>
</g>
<!-- 259 -->
<g id="node14" class="node">
<title>259</title>
<polygon fill="#52e891" stroke="black" points="775.5,-155 599.5,-155 599.5,-72 775.5,-72 775.5,-155"/>
<text text-anchor="middle" x="687.5" y="-139.8" font-family="Times,serif" font-size="14.00">graphDepth &lt;= 3.5</text>
<text text-anchor="middle" x="687.5" y="-124.8" font-family="Times,serif" font-size="14.00">gini = 0.208</text>
<text text-anchor="middle" x="687.5" y="-109.8" font-family="Times,serif" font-size="14.00">samples = 1138</text>
<text text-anchor="middle" x="687.5" y="-94.8" font-family="Times,serif" font-size="14.00">value = [38, 1008, 92]</text>
<text text-anchor="middle" x="687.5" y="-79.8" font-family="Times,serif" font-size="14.00">class = DCP</text>
</g>
<!-- 165&#45;&gt;259 -->
<g id="edge13" class="edge">
<title>165&#45;&gt;259</title>
<path fill="none" stroke="black" d="M625.46,-190.91C632.75,-181.92 640.56,-172.32 648.08,-163.05"/>
<polygon fill="black" stroke="black" points="651.01,-164.99 654.6,-155.02 645.58,-160.58 651.01,-164.99"/>
</g>
<!-- 167 -->
<g id="node12" class="node">
<title>167</title>
<polygon fill="#c0c0c0" stroke="black" points="470.5,-36 416.5,-36 416.5,0 470.5,0 470.5,-36"/>
<text text-anchor="middle" x="443.5" y="-14.3" font-family="Times,serif" font-size="14.00">(...)</text>
</g>
<!-- 166&#45;&gt;167 -->
<g id="edge11" class="edge">
<title>166&#45;&gt;167</title>
<path fill="none" stroke="black" d="M471.71,-71.76C466.95,-62.85 462.02,-53.64 457.65,-45.46"/>
<polygon fill="black" stroke="black" points="460.61,-43.57 452.81,-36.41 454.44,-46.87 460.61,-43.57"/>
</g>
<!-- 236 -->
<g id="node13" class="node">
<title>236</title>
<polygon fill="#c0c0c0" stroke="black" points="542.5,-36 488.5,-36 488.5,0 542.5,0 542.5,-36"/>
<text text-anchor="middle" x="515.5" y="-14.3" font-family="Times,serif" font-size="14.00">(...)</text>
</g>
<!-- 166&#45;&gt;236 -->
<g id="edge12" class="edge">
<title>166&#45;&gt;236</title>
<path fill="none" stroke="black" d="M503.09,-71.76C505.11,-63.14 507.21,-54.24 509.09,-46.26"/>
<polygon fill="black" stroke="black" points="512.52,-46.94 511.4,-36.41 505.71,-45.34 512.52,-46.94"/>
</g>
<!-- 260 -->
<g id="node15" class="node">
<title>260</title>
<polygon fill="#c0c0c0" stroke="black" points="671.5,-36 617.5,-36 617.5,0 671.5,0 671.5,-36"/>
<text text-anchor="middle" x="644.5" y="-14.3" font-family="Times,serif" font-size="14.00">(...)</text>
</g>
<!-- 259&#45;&gt;260 -->
<g id="edge14" class="edge">
<title>259&#45;&gt;260</title>
<path fill="none" stroke="black" d="M668.76,-71.76C664.71,-62.94 660.52,-53.84 656.79,-45.72"/>
<polygon fill="black" stroke="black" points="659.86,-44.03 652.5,-36.41 653.5,-46.95 659.86,-44.03"/>
</g>
<!-- 271 -->
<g id="node16" class="node">
<title>271</title>
<polygon fill="#c0c0c0" stroke="black" points="743.5,-36 689.5,-36 689.5,0 743.5,0 743.5,-36"/>
<text text-anchor="middle" x="716.5" y="-14.3" font-family="Times,serif" font-size="14.00">(...)</text>
</g>
<!-- 259&#45;&gt;271 -->
<g id="edge15" class="edge">
<title>259&#45;&gt;271</title>
<path fill="none" stroke="black" d="M700.14,-71.76C702.84,-63.04 705.63,-54.04 708.13,-45.99"/>
<polygon fill="black" stroke="black" points="711.48,-46.99 711.1,-36.41 704.8,-44.92 711.48,-46.99"/>
</g>
<!-- 309 -->
<g id="node18" class="node">
<title>309</title>
<polygon fill="#9c64eb" stroke="black" points="1091.5,-274 897.5,-274 897.5,-191 1091.5,-191 1091.5,-274"/>
<text text-anchor="middle" x="994.5" y="-258.8" font-family="Times,serif" font-size="14.00">graphSize &lt;= 22.5</text>
<text text-anchor="middle" x="994.5" y="-243.8" font-family="Times,serif" font-size="14.00">gini = 0.33</text>
<text text-anchor="middle" x="994.5" y="-228.8" font-family="Times,serif" font-size="14.00">samples = 3992</text>
<text text-anchor="middle" x="994.5" y="-213.8" font-family="Times,serif" font-size="14.00">value = [440, 332, 3220]</text>
<text text-anchor="middle" x="994.5" y="-198.8" font-family="Times,serif" font-size="14.00">class = None</text>
</g>
<!-- 308&#45;&gt;309 -->
<g id="edge17" class="edge">
<title>308&#45;&gt;309</title>
<path fill="none" stroke="black" d="M994.5,-309.91C994.5,-301.65 994.5,-292.86 994.5,-284.3"/>
<polygon fill="black" stroke="black" points="998,-284.02 994.5,-274.02 991,-284.02 998,-284.02"/>
</g>
<!-- 406 -->
<g id="node25" class="node">
<title>406</title>
<polygon fill="#8e4de8" stroke="black" points="1398,-274 1213,-274 1213,-191 1398,-191 1398,-274"/>
<text text-anchor="middle" x="1305.5" y="-258.8" font-family="Times,serif" font-size="14.00">graphDepth &lt;= 13.5</text>
<text text-anchor="middle" x="1305.5" y="-243.8" font-family="Times,serif" font-size="14.00">gini = 0.175</text>
<text text-anchor="middle" x="1305.5" y="-228.8" font-family="Times,serif" font-size="14.00">samples = 3426</text>
<text text-anchor="middle" x="1305.5" y="-213.8" font-family="Times,serif" font-size="14.00">value = [68, 258, 3100]</text>
<text text-anchor="middle" x="1305.5" y="-198.8" font-family="Times,serif" font-size="14.00">class = None</text>
</g>
<!-- 308&#45;&gt;406 -->
<g id="edge24" class="edge">
<title>308&#45;&gt;406</title>
<path fill="none" stroke="black" d="M1091.62,-313.96C1127.13,-300.61 1167.38,-285.46 1203.31,-271.95"/>
<polygon fill="black" stroke="black" points="1204.7,-275.16 1212.83,-268.36 1202.24,-268.61 1204.7,-275.16"/>
</g>
<!-- 310 -->
<g id="node19" class="node">
<title>310</title>
<polygon fill="#aa7aee" stroke="black" points="987.5,-155 793.5,-155 793.5,-72 987.5,-72 987.5,-155"/>
<text text-anchor="middle" x="890.5" y="-139.8" font-family="Times,serif" font-size="14.00">sdComm &lt;= 2.0</text>
<text text-anchor="middle" x="890.5" y="-124.8" font-family="Times,serif" font-size="14.00">gini = 0.42</text>
<text text-anchor="middle" x="890.5" y="-109.8" font-family="Times,serif" font-size="14.00">samples = 1384</text>
<text text-anchor="middle" x="890.5" y="-94.8" font-family="Times,serif" font-size="14.00">value = [260, 108, 1016]</text>
<text text-anchor="middle" x="890.5" y="-79.8" font-family="Times,serif" font-size="14.00">class = None</text>
</g>
<!-- 309&#45;&gt;310 -->
<g id="edge18" class="edge">
<title>309&#45;&gt;310</title>
<path fill="none" stroke="black" d="M958.42,-190.91C950.35,-181.83 941.72,-172.12 933.41,-162.77"/>
<polygon fill="black" stroke="black" points="935.78,-160.17 926.52,-155.02 930.55,-164.82 935.78,-160.17"/>
</g>
<!-- 339 -->
<g id="node22" class="node">
<title>339</title>
<polygon fill="#965be9" stroke="black" points="1199.5,-155 1005.5,-155 1005.5,-72 1199.5,-72 1199.5,-155"/>
<text text-anchor="middle" x="1102.5" y="-139.8" font-family="Times,serif" font-size="14.00">graphDepth &lt;= 9.0</text>
<text text-anchor="middle" x="1102.5" y="-124.8" font-family="Times,serif" font-size="14.00">gini = 0.274</text>
<text text-anchor="middle" x="1102.5" y="-109.8" font-family="Times,serif" font-size="14.00">samples = 2608</text>
<text text-anchor="middle" x="1102.5" y="-94.8" font-family="Times,serif" font-size="14.00">value = [180, 224, 2204]</text>
<text text-anchor="middle" x="1102.5" y="-79.8" font-family="Times,serif" font-size="14.00">class = None</text>
</g>
<!-- 309&#45;&gt;339 -->
<g id="edge21" class="edge">
<title>309&#45;&gt;339</title>
<path fill="none" stroke="black" d="M1031.97,-190.91C1040.43,-181.74 1049.49,-171.93 1058.2,-162.49"/>
<polygon fill="black" stroke="black" points="1060.89,-164.74 1065.1,-155.02 1055.74,-159.99 1060.89,-164.74"/>
</g>
<!-- 311 -->
<g id="node20" class="node">
<title>311</title>
<polygon fill="#c0c0c0" stroke="black" points="879.5,-36 825.5,-36 825.5,0 879.5,0 879.5,-36"/>
<text text-anchor="middle" x="852.5" y="-14.3" font-family="Times,serif" font-size="14.00">(...)</text>
</g>
<!-- 310&#45;&gt;311 -->
<g id="edge19" class="edge">
<title>310&#45;&gt;311</title>
<path fill="none" stroke="black" d="M873.94,-71.76C870.36,-62.94 866.66,-53.84 863.36,-45.72"/>
<polygon fill="black" stroke="black" points="866.58,-44.35 859.57,-36.41 860.1,-46.99 866.58,-44.35"/>
</g>
<!-- 320 -->
<g id="node21" class="node">
<title>320</title>
<polygon fill="#c0c0c0" stroke="black" points="951.5,-36 897.5,-36 897.5,0 951.5,0 951.5,-36"/>
<text text-anchor="middle" x="924.5" y="-14.3" font-family="Times,serif" font-size="14.00">(...)</text>
</g>
<!-- 310&#45;&gt;320 -->
<g id="edge20" class="edge">
<title>310&#45;&gt;320</title>
<path fill="none" stroke="black" d="M905.31,-71.76C908.48,-63.04 911.76,-54.04 914.68,-45.99"/>
<polygon fill="black" stroke="black" points="918.04,-47 918.17,-36.41 911.46,-44.61 918.04,-47"/>
</g>
<!-- 340 -->
<g id="node23" class="node">
<title>340</title>
<polygon fill="#c0c0c0" stroke="black" points="1086.5,-36 1032.5,-36 1032.5,0 1086.5,0 1086.5,-36"/>
<text text-anchor="middle" x="1059.5" y="-14.3" font-family="Times,serif" font-size="14.00">(...)</text>
</g>
<!-- 339&#45;&gt;340 -->
<g id="edge22" class="edge">
<title>339&#45;&gt;340</title>
<path fill="none" stroke="black" d="M1083.76,-71.76C1079.71,-62.94 1075.52,-53.84 1071.79,-45.72"/>
<polygon fill="black" stroke="black" points="1074.86,-44.03 1067.5,-36.41 1068.5,-46.95 1074.86,-44.03"/>
</g>
<!-- 349 -->
<g id="node24" class="node">
<title>349</title>
<polygon fill="#c0c0c0" stroke="black" points="1158.5,-36 1104.5,-36 1104.5,0 1158.5,0 1158.5,-36"/>
<text text-anchor="middle" x="1131.5" y="-14.3" font-family="Times,serif" font-size="14.00">(...)</text>
</g>
<!-- 339&#45;&gt;349 -->
<g id="edge23" class="edge">
<title>339&#45;&gt;349</title>
<path fill="none" stroke="black" d="M1115.14,-71.76C1117.84,-63.04 1120.63,-54.04 1123.13,-45.99"/>
<polygon fill="black" stroke="black" points="1126.48,-46.99 1126.1,-36.41 1119.8,-44.92 1126.48,-46.99"/>
</g>
<!-- 407 -->
<g id="node26" class="node">
<title>407</title>
<polygon fill="#8946e7" stroke="black" points="1393.5,-155 1217.5,-155 1217.5,-72 1393.5,-72 1393.5,-155"/>
<text text-anchor="middle" x="1305.5" y="-139.8" font-family="Times,serif" font-size="14.00">sdComm &lt;= 6.5</text>
<text text-anchor="middle" x="1305.5" y="-124.8" font-family="Times,serif" font-size="14.00">gini = 0.114</text>
<text text-anchor="middle" x="1305.5" y="-109.8" font-family="Times,serif" font-size="14.00">samples = 2182</text>
<text text-anchor="middle" x="1305.5" y="-94.8" font-family="Times,serif" font-size="14.00">value = [4, 128, 2050]</text>
<text text-anchor="middle" x="1305.5" y="-79.8" font-family="Times,serif" font-size="14.00">class = None</text>
</g>
<!-- 406&#45;&gt;407 -->
<g id="edge25" class="edge">
<title>406&#45;&gt;407</title>
<path fill="none" stroke="black" d="M1305.5,-190.91C1305.5,-182.65 1305.5,-173.86 1305.5,-165.3"/>
<polygon fill="black" stroke="black" points="1309,-165.02 1305.5,-155.02 1302,-165.02 1309,-165.02"/>
</g>
<!-- 440 -->
<g id="node29" class="node">
<title>440</title>
<polygon fill="#975bea" stroke="black" points="1596,-155 1411,-155 1411,-72 1596,-72 1596,-155"/>
<text text-anchor="middle" x="1503.5" y="-139.8" font-family="Times,serif" font-size="14.00">graphSize &lt;= 75.0</text>
<text text-anchor="middle" x="1503.5" y="-124.8" font-family="Times,serif" font-size="14.00">gini = 0.274</text>
<text text-anchor="middle" x="1503.5" y="-109.8" font-family="Times,serif" font-size="14.00">samples = 1244</text>
<text text-anchor="middle" x="1503.5" y="-94.8" font-family="Times,serif" font-size="14.00">value = [64, 130, 1050]</text>
<text text-anchor="middle" x="1503.5" y="-79.8" font-family="Times,serif" font-size="14.00">class = None</text>
</g>
<!-- 406&#45;&gt;440 -->
<g id="edge28" class="edge">
<title>406&#45;&gt;440</title>
<path fill="none" stroke="black" d="M1374.2,-190.91C1390.94,-181.02 1408.95,-170.37 1426.07,-160.25"/>
<polygon fill="black" stroke="black" points="1428.1,-163.12 1434.93,-155.02 1424.54,-157.09 1428.1,-163.12"/>
</g>
<!-- 408 -->
<g id="node27" class="node">
<title>408</title>
<polygon fill="#c0c0c0" stroke="black" points="1296.5,-36 1242.5,-36 1242.5,0 1296.5,0 1296.5,-36"/>
<text text-anchor="middle" x="1269.5" y="-14.3" font-family="Times,serif" font-size="14.00">(...)</text>
</g>
<!-- 407&#45;&gt;408 -->
<g id="edge26" class="edge">
<title>407&#45;&gt;408</title>
<path fill="none" stroke="black" d="M1289.81,-71.76C1286.46,-63.04 1282.99,-54.04 1279.89,-45.99"/>
<polygon fill="black" stroke="black" points="1283.06,-44.48 1276.2,-36.41 1276.53,-46.99 1283.06,-44.48"/>
</g>
<!-- 427 -->
<g id="node28" class="node">
<title>427</title>
<polygon fill="#c0c0c0" stroke="black" points="1368.5,-36 1314.5,-36 1314.5,0 1368.5,0 1368.5,-36"/>
<text text-anchor="middle" x="1341.5" y="-14.3" font-family="Times,serif" font-size="14.00">(...)</text>
</g>
<!-- 407&#45;&gt;427 -->
<g id="edge27" class="edge">
<title>407&#45;&gt;427</title>
<path fill="none" stroke="black" d="M1321.19,-71.76C1324.54,-63.04 1328.01,-54.04 1331.11,-45.99"/>
<polygon fill="black" stroke="black" points="1334.47,-46.99 1334.8,-36.41 1327.94,-44.48 1334.47,-46.99"/>
</g>
<!-- 441 -->
<g id="node30" class="node">
<title>441</title>
<polygon fill="#c0c0c0" stroke="black" points="1494.5,-36 1440.5,-36 1440.5,0 1494.5,0 1494.5,-36"/>
<text text-anchor="middle" x="1467.5" y="-14.3" font-family="Times,serif" font-size="14.00">(...)</text>
</g>
<!-- 440&#45;&gt;441 -->
<g id="edge29" class="edge">
<title>440&#45;&gt;441</title>
<path fill="none" stroke="black" d="M1487.81,-71.76C1484.46,-63.04 1480.99,-54.04 1477.89,-45.99"/>
<polygon fill="black" stroke="black" points="1481.06,-44.48 1474.2,-36.41 1474.53,-46.99 1481.06,-44.48"/>
</g>
<!-- 454 -->
<g id="node31" class="node">
<title>454</title>
<polygon fill="#c0c0c0" stroke="black" points="1566.5,-36 1512.5,-36 1512.5,0 1566.5,0 1566.5,-36"/>
<text text-anchor="middle" x="1539.5" y="-14.3" font-family="Times,serif" font-size="14.00">(...)</text>
</g>
<!-- 440&#45;&gt;454 -->
<g id="edge30" class="edge">
<title>440&#45;&gt;454</title>
<path fill="none" stroke="black" d="M1519.19,-71.76C1522.54,-63.04 1526.01,-54.04 1529.11,-45.99"/>
<polygon fill="black" stroke="black" points="1532.47,-46.99 1532.8,-36.41 1525.94,-44.48 1532.47,-46.99"/>
</g>
</g>
</svg>
