<?xml version="1.0" encoding="UTF-8" standalone="no"?>
<!DOCTYPE svg PUBLIC "-//W3C//DTD SVG 1.1//EN"
 "http://www.w3.org/Graphics/SVG/1.1/DTD/svg11.dtd">
<!-- Generated by graphviz version 2.43.0 (0)
 -->
<!-- Title: Tree Pages: 1 -->
<svg width="1393pt" height="520pt"
 viewBox="0.00 0.00 1393.00 520.00" xmlns="http://www.w3.org/2000/svg" xmlns:xlink="http://www.w3.org/1999/xlink">
<g id="graph0" class="graph" transform="scale(1 1) rotate(0) translate(4 516)">
<title>Tree</title>
<polygon fill="white" stroke="transparent" points="-4,4 -4,-516 1389,-516 1389,4 -4,4"/>
<!-- 0 -->
<g id="node1" class="node">
<title>0</title>
<polygon fill="#a6d3f3" stroke="black" points="769,-512 602,-512 602,-429 769,-429 769,-512"/>
<text text-anchor="middle" x="685.5" y="-496.8" font-family="Times,serif" font-size="14.00">nbproc &lt;= 4.5</text>
<text text-anchor="middle" x="685.5" y="-481.8" font-family="Times,serif" font-size="14.00">gini = 0.458</text>
<text text-anchor="middle" x="685.5" y="-466.8" font-family="Times,serif" font-size="14.00">samples = 11670</text>
<text text-anchor="middle" x="685.5" y="-451.8" font-family="Times,serif" font-size="14.00">value = [4143, 7527]</text>
<text text-anchor="middle" x="685.5" y="-436.8" font-family="Times,serif" font-size="14.00">class = True</text>
</g>
<!-- 1 -->
<g id="node2" class="node">
<title>1</title>
<polygon fill="#91c9f1" stroke="black" points="593,-393 426,-393 426,-310 593,-310 593,-393"/>
<text text-anchor="middle" x="509.5" y="-377.8" font-family="Times,serif" font-size="14.00">sdComp &lt;= 6.5</text>
<text text-anchor="middle" x="509.5" y="-362.8" font-family="Times,serif" font-size="14.00">gini = 0.426</text>
<text text-anchor="middle" x="509.5" y="-347.8" font-family="Times,serif" font-size="14.00">samples = 5858</text>
<text text-anchor="middle" x="509.5" y="-332.8" font-family="Times,serif" font-size="14.00">value = [1805, 4053]</text>
<text text-anchor="middle" x="509.5" y="-317.8" font-family="Times,serif" font-size="14.00">class = True</text>
</g>
<!-- 0&#45;&gt;1 -->
<g id="edge1" class="edge">
<title>0&#45;&gt;1</title>
<path fill="none" stroke="black" d="M624.44,-428.91C609.83,-419.2 594.13,-408.76 579.16,-398.81"/>
<polygon fill="black" stroke="black" points="580.72,-395.64 570.45,-393.02 576.84,-401.47 580.72,-395.64"/>
<text text-anchor="middle" x="575.39" y="-413.83" font-family="Times,serif" font-size="14.00">True</text>
</g>
<!-- 276 -->
<g id="node17" class="node">
<title>276</title>
<polygon fill="#bedff6" stroke="black" points="944,-393 777,-393 777,-310 944,-310 944,-393"/>
<text text-anchor="middle" x="860.5" y="-377.8" font-family="Times,serif" font-size="14.00">graphSize &lt;= 40.0</text>
<text text-anchor="middle" x="860.5" y="-362.8" font-family="Times,serif" font-size="14.00">gini = 0.481</text>
<text text-anchor="middle" x="860.5" y="-347.8" font-family="Times,serif" font-size="14.00">samples = 5812</text>
<text text-anchor="middle" x="860.5" y="-332.8" font-family="Times,serif" font-size="14.00">value = [2338, 3474]</text>
<text text-anchor="middle" x="860.5" y="-317.8" font-family="Times,serif" font-size="14.00">class = True</text>
</g>
<!-- 0&#45;&gt;276 -->
<g id="edge16" class="edge">
<title>0&#45;&gt;276</title>
<path fill="none" stroke="black" d="M746.22,-428.91C760.74,-419.2 776.35,-408.76 791.23,-398.81"/>
<polygon fill="black" stroke="black" points="793.52,-401.49 799.89,-393.02 789.63,-395.67 793.52,-401.49"/>
<text text-anchor="middle" x="795.02" y="-413.84" font-family="Times,serif" font-size="14.00">False</text>
</g>
<!-- 2 -->
<g id="node3" class="node">
<title>2</title>
<polygon fill="#86c3ef" stroke="black" points="334,-274 167,-274 167,-191 334,-191 334,-274"/>
<text text-anchor="middle" x="250.5" y="-258.8" font-family="Times,serif" font-size="14.00">sdComm &lt;= 0.2</text>
<text text-anchor="middle" x="250.5" y="-243.8" font-family="Times,serif" font-size="14.00">gini = 0.403</text>
<text text-anchor="middle" x="250.5" y="-228.8" font-family="Times,serif" font-size="14.00">samples = 4252</text>
<text text-anchor="middle" x="250.5" y="-213.8" font-family="Times,serif" font-size="14.00">value = [1191, 3061]</text>
<text text-anchor="middle" x="250.5" y="-198.8" font-family="Times,serif" font-size="14.00">class = True</text>
</g>
<!-- 1&#45;&gt;2 -->
<g id="edge2" class="edge">
<title>1&#45;&gt;2</title>
<path fill="none" stroke="black" d="M425.77,-312.68C399.59,-300.85 370.55,-287.73 343.76,-275.63"/>
<polygon fill="black" stroke="black" points="344.94,-272.32 334.39,-271.4 342.06,-278.7 344.94,-272.32"/>
</g>
<!-- 229 -->
<g id="node10" class="node">
<title>229</title>
<polygon fill="#b4daf5" stroke="black" points="584,-274 435,-274 435,-191 584,-191 584,-274"/>
<text text-anchor="middle" x="509.5" y="-258.8" font-family="Times,serif" font-size="14.00">sdComm &lt;= 6.5</text>
<text text-anchor="middle" x="509.5" y="-243.8" font-family="Times,serif" font-size="14.00">gini = 0.472</text>
<text text-anchor="middle" x="509.5" y="-228.8" font-family="Times,serif" font-size="14.00">samples = 1606</text>
<text text-anchor="middle" x="509.5" y="-213.8" font-family="Times,serif" font-size="14.00">value = [614, 992]</text>
<text text-anchor="middle" x="509.5" y="-198.8" font-family="Times,serif" font-size="14.00">class = True</text>
</g>
<!-- 1&#45;&gt;229 -->
<g id="edge9" class="edge">
<title>1&#45;&gt;229</title>
<path fill="none" stroke="black" d="M509.5,-309.91C509.5,-301.65 509.5,-292.86 509.5,-284.3"/>
<polygon fill="black" stroke="black" points="513,-284.02 509.5,-274.02 506,-284.02 513,-284.02"/>
</g>
<!-- 3 -->
<g id="node4" class="node">
<title>3</title>
<polygon fill="#abd5f4" stroke="black" points="153,-155 0,-155 0,-72 153,-72 153,-155"/>
<text text-anchor="middle" x="76.5" y="-139.8" font-family="Times,serif" font-size="14.00">graphSize &lt;= 75.0</text>
<text text-anchor="middle" x="76.5" y="-124.8" font-family="Times,serif" font-size="14.00">gini = 0.463</text>
<text text-anchor="middle" x="76.5" y="-109.8" font-family="Times,serif" font-size="14.00">samples = 1374</text>
<text text-anchor="middle" x="76.5" y="-94.8" font-family="Times,serif" font-size="14.00">value = [501, 873]</text>
<text text-anchor="middle" x="76.5" y="-79.8" font-family="Times,serif" font-size="14.00">class = True</text>
</g>
<!-- 2&#45;&gt;3 -->
<g id="edge3" class="edge">
<title>2&#45;&gt;3</title>
<path fill="none" stroke="black" d="M190.13,-190.91C175.69,-181.2 160.17,-170.76 145.37,-160.81"/>
<polygon fill="black" stroke="black" points="147.01,-157.7 136.76,-155.02 143.11,-163.51 147.01,-157.7"/>
</g>
<!-- 106 -->
<g id="node7" class="node">
<title>106</title>
<polygon fill="#77bced" stroke="black" points="329.5,-155 171.5,-155 171.5,-72 329.5,-72 329.5,-155"/>
<text text-anchor="middle" x="250.5" y="-139.8" font-family="Times,serif" font-size="14.00">sdComp &lt;= 2.0</text>
<text text-anchor="middle" x="250.5" y="-124.8" font-family="Times,serif" font-size="14.00">gini = 0.365</text>
<text text-anchor="middle" x="250.5" y="-109.8" font-family="Times,serif" font-size="14.00">samples = 2878</text>
<text text-anchor="middle" x="250.5" y="-94.8" font-family="Times,serif" font-size="14.00">value = [690, 2188]</text>
<text text-anchor="middle" x="250.5" y="-79.8" font-family="Times,serif" font-size="14.00">class = True</text>
</g>
<!-- 2&#45;&gt;106 -->
<g id="edge6" class="edge">
<title>2&#45;&gt;106</title>
<path fill="none" stroke="black" d="M250.5,-190.91C250.5,-182.65 250.5,-173.86 250.5,-165.3"/>
<polygon fill="black" stroke="black" points="254,-165.02 250.5,-155.02 247,-165.02 254,-165.02"/>
</g>
<!-- 4 -->
<g id="node5" class="node">
<title>4</title>
<polygon fill="#c0c0c0" stroke="black" points="67.5,-36 13.5,-36 13.5,0 67.5,0 67.5,-36"/>
<text text-anchor="middle" x="40.5" y="-14.3" font-family="Times,serif" font-size="14.00">(...)</text>
</g>
<!-- 3&#45;&gt;4 -->
<g id="edge4" class="edge">
<title>3&#45;&gt;4</title>
<path fill="none" stroke="black" d="M60.81,-71.76C57.46,-63.04 53.99,-54.04 50.89,-45.99"/>
<polygon fill="black" stroke="black" points="54.06,-44.48 47.2,-36.41 47.53,-46.99 54.06,-44.48"/>
</g>
<!-- 89 -->
<g id="node6" class="node">
<title>89</title>
<polygon fill="#c0c0c0" stroke="black" points="139.5,-36 85.5,-36 85.5,0 139.5,0 139.5,-36"/>
<text text-anchor="middle" x="112.5" y="-14.3" font-family="Times,serif" font-size="14.00">(...)</text>
</g>
<!-- 3&#45;&gt;89 -->
<g id="edge5" class="edge">
<title>3&#45;&gt;89</title>
<path fill="none" stroke="black" d="M92.19,-71.76C95.54,-63.04 99.01,-54.04 102.11,-45.99"/>
<polygon fill="black" stroke="black" points="105.47,-46.99 105.8,-36.41 98.94,-44.48 105.47,-46.99"/>
</g>
<!-- 107 -->
<g id="node8" class="node">
<title>107</title>
<polygon fill="#c0c0c0" stroke="black" points="242.5,-36 188.5,-36 188.5,0 242.5,0 242.5,-36"/>
<text text-anchor="middle" x="215.5" y="-14.3" font-family="Times,serif" font-size="14.00">(...)</text>
</g>
<!-- 106&#45;&gt;107 -->
<g id="edge7" class="edge">
<title>106&#45;&gt;107</title>
<path fill="none" stroke="black" d="M235.25,-71.76C231.99,-63.04 228.62,-54.04 225.6,-45.99"/>
<polygon fill="black" stroke="black" points="228.8,-44.54 222.02,-36.41 222.24,-47 228.8,-44.54"/>
</g>
<!-- 184 -->
<g id="node9" class="node">
<title>184</title>
<polygon fill="#c0c0c0" stroke="black" points="314.5,-36 260.5,-36 260.5,0 314.5,0 314.5,-36"/>
<text text-anchor="middle" x="287.5" y="-14.3" font-family="Times,serif" font-size="14.00">(...)</text>
</g>
<!-- 106&#45;&gt;184 -->
<g id="edge8" class="edge">
<title>106&#45;&gt;184</title>
<path fill="none" stroke="black" d="M266.62,-71.76C270.11,-62.94 273.71,-53.84 276.92,-45.72"/>
<polygon fill="black" stroke="black" points="280.19,-46.99 280.61,-36.41 273.68,-44.42 280.19,-46.99"/>
</g>
<!-- 230 -->
<g id="node11" class="node">
<title>230</title>
<polygon fill="#c5e2f7" stroke="black" points="505.5,-155 347.5,-155 347.5,-72 505.5,-72 505.5,-155"/>
<text text-anchor="middle" x="426.5" y="-139.8" font-family="Times,serif" font-size="14.00">graphDepth &lt;= 3.5</text>
<text text-anchor="middle" x="426.5" y="-124.8" font-family="Times,serif" font-size="14.00">gini = 0.485</text>
<text text-anchor="middle" x="426.5" y="-109.8" font-family="Times,serif" font-size="14.00">samples = 1258</text>
<text text-anchor="middle" x="426.5" y="-94.8" font-family="Times,serif" font-size="14.00">value = [520, 738]</text>
<text text-anchor="middle" x="426.5" y="-79.8" font-family="Times,serif" font-size="14.00">class = True</text>
</g>
<!-- 229&#45;&gt;230 -->
<g id="edge10" class="edge">
<title>229&#45;&gt;230</title>
<path fill="none" stroke="black" d="M480.7,-190.91C474.39,-182.01 467.65,-172.51 461.14,-163.33"/>
<polygon fill="black" stroke="black" points="463.89,-161.15 455.25,-155.02 458.18,-165.2 463.89,-161.15"/>
</g>
<!-- 261 -->
<g id="node14" class="node">
<title>261</title>
<polygon fill="#82c1ef" stroke="black" points="677,-155 524,-155 524,-72 677,-72 677,-155"/>
<text text-anchor="middle" x="600.5" y="-139.8" font-family="Times,serif" font-size="14.00">graphSize &lt;= 40.0</text>
<text text-anchor="middle" x="600.5" y="-124.8" font-family="Times,serif" font-size="14.00">gini = 0.394</text>
<text text-anchor="middle" x="600.5" y="-109.8" font-family="Times,serif" font-size="14.00">samples = 348</text>
<text text-anchor="middle" x="600.5" y="-94.8" font-family="Times,serif" font-size="14.00">value = [94, 254]</text>
<text text-anchor="middle" x="600.5" y="-79.8" font-family="Times,serif" font-size="14.00">class = True</text>
</g>
<!-- 229&#45;&gt;261 -->
<g id="edge13" class="edge">
<title>229&#45;&gt;261</title>
<path fill="none" stroke="black" d="M541.07,-190.91C548.06,-181.92 555.53,-172.32 562.74,-163.05"/>
<polygon fill="black" stroke="black" points="565.61,-165.06 568.98,-155.02 560.08,-160.77 565.61,-165.06"/>
</g>
<!-- 231 -->
<g id="node12" class="node">
<title>231</title>
<polygon fill="#c0c0c0" stroke="black" points="414.5,-36 360.5,-36 360.5,0 414.5,0 414.5,-36"/>
<text text-anchor="middle" x="387.5" y="-14.3" font-family="Times,serif" font-size="14.00">(...)</text>
</g>
<!-- 230&#45;&gt;231 -->
<g id="edge11" class="edge">
<title>230&#45;&gt;231</title>
<path fill="none" stroke="black" d="M409.51,-71.76C405.83,-62.94 402.03,-53.84 398.65,-45.72"/>
<polygon fill="black" stroke="black" points="401.84,-44.29 394.76,-36.41 395.38,-46.98 401.84,-44.29"/>
</g>
<!-- 234 -->
<g id="node13" class="node">
<title>234</title>
<polygon fill="#c0c0c0" stroke="black" points="486.5,-36 432.5,-36 432.5,0 486.5,0 486.5,-36"/>
<text text-anchor="middle" x="459.5" y="-14.3" font-family="Times,serif" font-size="14.00">(...)</text>
</g>
<!-- 230&#45;&gt;234 -->
<g id="edge12" class="edge">
<title>230&#45;&gt;234</title>
<path fill="none" stroke="black" d="M440.88,-71.76C443.96,-63.04 447.13,-54.04 449.97,-45.99"/>
<polygon fill="black" stroke="black" points="453.33,-47 453.36,-36.41 446.73,-44.67 453.33,-47"/>
</g>
<!-- 262 -->
<g id="node15" class="node">
<title>262</title>
<polygon fill="#c0c0c0" stroke="black" points="572.5,-36 518.5,-36 518.5,0 572.5,0 572.5,-36"/>
<text text-anchor="middle" x="545.5" y="-14.3" font-family="Times,serif" font-size="14.00">(...)</text>
</g>
<!-- 261&#45;&gt;262 -->
<g id="edge14" class="edge">
<title>261&#45;&gt;262</title>
<path fill="none" stroke="black" d="M576.54,-71.76C571.24,-62.75 565.76,-53.44 560.91,-45.19"/>
<polygon fill="black" stroke="black" points="563.83,-43.25 555.74,-36.41 557.79,-46.8 563.83,-43.25"/>
</g>
<!-- 269 -->
<g id="node16" class="node">
<title>269</title>
<polygon fill="#c0c0c0" stroke="black" points="644.5,-36 590.5,-36 590.5,0 644.5,0 644.5,-36"/>
<text text-anchor="middle" x="617.5" y="-14.3" font-family="Times,serif" font-size="14.00">(...)</text>
</g>
<!-- 261&#45;&gt;269 -->
<g id="edge15" class="edge">
<title>261&#45;&gt;269</title>
<path fill="none" stroke="black" d="M607.91,-71.76C609.47,-63.14 611.09,-54.24 612.54,-46.26"/>
<polygon fill="black" stroke="black" points="615.99,-46.87 614.34,-36.41 609.1,-45.62 615.99,-46.87"/>
</g>
<!-- 277 -->
<g id="node18" class="node">
<title>277</title>
<polygon fill="#d1e8f9" stroke="black" points="944,-274 777,-274 777,-191 944,-191 944,-274"/>
<text text-anchor="middle" x="860.5" y="-258.8" font-family="Times,serif" font-size="14.00">graphSize &lt;= 22.5</text>
<text text-anchor="middle" x="860.5" y="-243.8" font-family="Times,serif" font-size="14.00">gini = 0.492</text>
<text text-anchor="middle" x="860.5" y="-228.8" font-family="Times,serif" font-size="14.00">samples = 3914</text>
<text text-anchor="middle" x="860.5" y="-213.8" font-family="Times,serif" font-size="14.00">value = [1702, 2212]</text>
<text text-anchor="middle" x="860.5" y="-198.8" font-family="Times,serif" font-size="14.00">class = True</text>
</g>
<!-- 276&#45;&gt;277 -->
<g id="edge17" class="edge">
<title>276&#45;&gt;277</title>
<path fill="none" stroke="black" d="M860.5,-309.91C860.5,-301.65 860.5,-292.86 860.5,-284.3"/>
<polygon fill="black" stroke="black" points="864,-284.02 860.5,-274.02 857,-284.02 864,-284.02"/>
</g>
<!-- 458 -->
<g id="node25" class="node">
<title>458</title>
<polygon fill="#9dcef2" stroke="black" points="1202.5,-274 1044.5,-274 1044.5,-191 1202.5,-191 1202.5,-274"/>
<text text-anchor="middle" x="1123.5" y="-258.8" font-family="Times,serif" font-size="14.00">sdComp &lt;= 0.065</text>
<text text-anchor="middle" x="1123.5" y="-243.8" font-family="Times,serif" font-size="14.00">gini = 0.446</text>
<text text-anchor="middle" x="1123.5" y="-228.8" font-family="Times,serif" font-size="14.00">samples = 1898</text>
<text text-anchor="middle" x="1123.5" y="-213.8" font-family="Times,serif" font-size="14.00">value = [636, 1262]</text>
<text text-anchor="middle" x="1123.5" y="-198.8" font-family="Times,serif" font-size="14.00">class = True</text>
</g>
<!-- 276&#45;&gt;458 -->
<g id="edge24" class="edge">
<title>276&#45;&gt;458</title>
<path fill="none" stroke="black" d="M944.08,-313.32C972.99,-300.46 1005.47,-286.01 1034.78,-272.97"/>
<polygon fill="black" stroke="black" points="1036.46,-276.05 1044.18,-268.79 1033.62,-269.66 1036.46,-276.05"/>
</g>
<!-- 278 -->
<g id="node19" class="node">
<title>278</title>
<polygon fill="#e0f0fb" stroke="black" points="862,-155 695,-155 695,-72 862,-72 862,-155"/>
<text text-anchor="middle" x="778.5" y="-139.8" font-family="Times,serif" font-size="14.00">CCR &lt;= 0.55</text>
<text text-anchor="middle" x="778.5" y="-124.8" font-family="Times,serif" font-size="14.00">gini = 0.496</text>
<text text-anchor="middle" x="778.5" y="-109.8" font-family="Times,serif" font-size="14.00">samples = 2386</text>
<text text-anchor="middle" x="778.5" y="-94.8" font-family="Times,serif" font-size="14.00">value = [1092, 1294]</text>
<text text-anchor="middle" x="778.5" y="-79.8" font-family="Times,serif" font-size="14.00">class = True</text>
</g>
<!-- 277&#45;&gt;278 -->
<g id="edge18" class="edge">
<title>277&#45;&gt;278</title>
<path fill="none" stroke="black" d="M832.05,-190.91C825.82,-182.01 819.16,-172.51 812.72,-163.33"/>
<polygon fill="black" stroke="black" points="815.5,-161.2 806.9,-155.02 809.77,-165.22 815.5,-161.2"/>
</g>
<!-- 367 -->
<g id="node22" class="node">
<title>367</title>
<polygon fill="#bddef6" stroke="black" points="1029,-155 880,-155 880,-72 1029,-72 1029,-155"/>
<text text-anchor="middle" x="954.5" y="-139.8" font-family="Times,serif" font-size="14.00">sdComm &lt;= 6.5</text>
<text text-anchor="middle" x="954.5" y="-124.8" font-family="Times,serif" font-size="14.00">gini = 0.48</text>
<text text-anchor="middle" x="954.5" y="-109.8" font-family="Times,serif" font-size="14.00">samples = 1528</text>
<text text-anchor="middle" x="954.5" y="-94.8" font-family="Times,serif" font-size="14.00">value = [610, 918]</text>
<text text-anchor="middle" x="954.5" y="-79.8" font-family="Times,serif" font-size="14.00">class = True</text>
</g>
<!-- 277&#45;&gt;367 -->
<g id="edge21" class="edge">
<title>277&#45;&gt;367</title>
<path fill="none" stroke="black" d="M893.11,-190.91C900.33,-181.92 908.05,-172.32 915.49,-163.05"/>
<polygon fill="black" stroke="black" points="918.41,-165.01 921.94,-155.02 912.95,-160.62 918.41,-165.01"/>
</g>
<!-- 279 -->
<g id="node20" class="node">
<title>279</title>
<polygon fill="#c0c0c0" stroke="black" points="749.5,-36 695.5,-36 695.5,0 749.5,0 749.5,-36"/>
<text text-anchor="middle" x="722.5" y="-14.3" font-family="Times,serif" font-size="14.00">(...)</text>
</g>
<!-- 278&#45;&gt;279 -->
<g id="edge19" class="edge">
<title>278&#45;&gt;279</title>
<path fill="none" stroke="black" d="M754.1,-71.76C748.7,-62.75 743.13,-53.44 738.19,-45.19"/>
<polygon fill="black" stroke="black" points="741.07,-43.19 732.92,-36.41 735.06,-46.78 741.07,-43.19"/>
</g>
<!-- 308 -->
<g id="node21" class="node">
<title>308</title>
<polygon fill="#c0c0c0" stroke="black" points="821.5,-36 767.5,-36 767.5,0 821.5,0 821.5,-36"/>
<text text-anchor="middle" x="794.5" y="-14.3" font-family="Times,serif" font-size="14.00">(...)</text>
</g>
<!-- 278&#45;&gt;308 -->
<g id="edge20" class="edge">
<title>278&#45;&gt;308</title>
<path fill="none" stroke="black" d="M785.47,-71.76C786.93,-63.24 788.44,-54.44 789.79,-46.53"/>
<polygon fill="black" stroke="black" points="793.28,-46.85 791.52,-36.41 786.38,-45.67 793.28,-46.85"/>
</g>
<!-- 368 -->
<g id="node23" class="node">
<title>368</title>
<polygon fill="#c0c0c0" stroke="black" points="921.5,-36 867.5,-36 867.5,0 921.5,0 921.5,-36"/>
<text text-anchor="middle" x="894.5" y="-14.3" font-family="Times,serif" font-size="14.00">(...)</text>
</g>
<!-- 367&#45;&gt;368 -->
<g id="edge22" class="edge">
<title>367&#45;&gt;368</title>
<path fill="none" stroke="black" d="M928.36,-71.76C922.51,-62.65 916.47,-53.24 911.14,-44.92"/>
<polygon fill="black" stroke="black" points="914.02,-42.93 905.67,-36.41 908.12,-46.71 914.02,-42.93"/>
</g>
<!-- 447 -->
<g id="node24" class="node">
<title>447</title>
<polygon fill="#c0c0c0" stroke="black" points="993.5,-36 939.5,-36 939.5,0 993.5,0 993.5,-36"/>
<text text-anchor="middle" x="966.5" y="-14.3" font-family="Times,serif" font-size="14.00">(...)</text>
</g>
<!-- 367&#45;&gt;447 -->
<g id="edge23" class="edge">
<title>367&#45;&gt;447</title>
<path fill="none" stroke="black" d="M959.73,-71.76C960.82,-63.24 961.95,-54.44 962.97,-46.53"/>
<polygon fill="black" stroke="black" points="966.46,-46.77 964.27,-36.41 959.52,-45.88 966.46,-46.77"/>
</g>
<!-- 459 -->
<g id="node26" class="node">
<title>459</title>
<polygon fill="#f3f9fd" stroke="black" points="1199.5,-155 1047.5,-155 1047.5,-72 1199.5,-72 1199.5,-155"/>
<text text-anchor="middle" x="1123.5" y="-139.8" font-family="Times,serif" font-size="14.00">sdComm &lt;= 0.065</text>
<text text-anchor="middle" x="1123.5" y="-124.8" font-family="Times,serif" font-size="14.00">gini = 0.5</text>
<text text-anchor="middle" x="1123.5" y="-109.8" font-family="Times,serif" font-size="14.00">samples = 260</text>
<text text-anchor="middle" x="1123.5" y="-94.8" font-family="Times,serif" font-size="14.00">value = [126, 134]</text>
<text text-anchor="middle" x="1123.5" y="-79.8" font-family="Times,serif" font-size="14.00">class = True</text>
</g>
<!-- 458&#45;&gt;459 -->
<g id="edge25" class="edge">
<title>458&#45;&gt;459</title>
<path fill="none" stroke="black" d="M1123.5,-190.91C1123.5,-182.65 1123.5,-173.86 1123.5,-165.3"/>
<polygon fill="black" stroke="black" points="1127,-165.02 1123.5,-155.02 1120,-165.02 1127,-165.02"/>
</g>
<!-- 502 -->
<g id="node29" class="node">
<title>502</title>
<polygon fill="#93c9f1" stroke="black" points="1385,-155 1218,-155 1218,-72 1385,-72 1385,-155"/>
<text text-anchor="middle" x="1301.5" y="-139.8" font-family="Times,serif" font-size="14.00">graphDepth &lt;= 25.5</text>
<text text-anchor="middle" x="1301.5" y="-124.8" font-family="Times,serif" font-size="14.00">gini = 0.429</text>
<text text-anchor="middle" x="1301.5" y="-109.8" font-family="Times,serif" font-size="14.00">samples = 1638</text>
<text text-anchor="middle" x="1301.5" y="-94.8" font-family="Times,serif" font-size="14.00">value = [510, 1128]</text>
<text text-anchor="middle" x="1301.5" y="-79.8" font-family="Times,serif" font-size="14.00">class = True</text>
</g>
<!-- 458&#45;&gt;502 -->
<g id="edge28" class="edge">
<title>458&#45;&gt;502</title>
<path fill="none" stroke="black" d="M1185.26,-190.91C1200.17,-181.11 1216.21,-170.56 1231.47,-160.53"/>
<polygon fill="black" stroke="black" points="1233.42,-163.44 1239.85,-155.02 1229.57,-157.59 1233.42,-163.44"/>
</g>
<!-- 460 -->
<g id="node27" class="node">
<title>460</title>
<polygon fill="#c0c0c0" stroke="black" points="1113.5,-36 1059.5,-36 1059.5,0 1113.5,0 1113.5,-36"/>
<text text-anchor="middle" x="1086.5" y="-14.3" font-family="Times,serif" font-size="14.00">(...)</text>
</g>
<!-- 459&#45;&gt;460 -->
<g id="edge26" class="edge">
<title>459&#45;&gt;460</title>
<path fill="none" stroke="black" d="M1107.38,-71.76C1103.89,-62.94 1100.29,-53.84 1097.08,-45.72"/>
<polygon fill="black" stroke="black" points="1100.32,-44.42 1093.39,-36.41 1093.81,-46.99 1100.32,-44.42"/>
</g>
<!-- 489 -->
<g id="node28" class="node">
<title>489</title>
<polygon fill="#c0c0c0" stroke="black" points="1185.5,-36 1131.5,-36 1131.5,0 1185.5,0 1185.5,-36"/>
<text text-anchor="middle" x="1158.5" y="-14.3" font-family="Times,serif" font-size="14.00">(...)</text>
</g>
<!-- 459&#45;&gt;489 -->
<g id="edge27" class="edge">
<title>459&#45;&gt;489</title>
<path fill="none" stroke="black" d="M1138.75,-71.76C1142.01,-63.04 1145.38,-54.04 1148.4,-45.99"/>
<polygon fill="black" stroke="black" points="1151.76,-47 1151.98,-36.41 1145.2,-44.54 1151.76,-47"/>
</g>
<!-- 503 -->
<g id="node30" class="node">
<title>503</title>
<polygon fill="#c0c0c0" stroke="black" points="1292.5,-36 1238.5,-36 1238.5,0 1292.5,0 1292.5,-36"/>
<text text-anchor="middle" x="1265.5" y="-14.3" font-family="Times,serif" font-size="14.00">(...)</text>
</g>
<!-- 502&#45;&gt;503 -->
<g id="edge29" class="edge">
<title>502&#45;&gt;503</title>
<path fill="none" stroke="black" d="M1285.81,-71.76C1282.46,-63.04 1278.99,-54.04 1275.89,-45.99"/>
<polygon fill="black" stroke="black" points="1279.06,-44.48 1272.2,-36.41 1272.53,-46.99 1279.06,-44.48"/>
</g>
<!-- 568 -->
<g id="node31" class="node">
<title>568</title>
<polygon fill="#c0c0c0" stroke="black" points="1364.5,-36 1310.5,-36 1310.5,0 1364.5,0 1364.5,-36"/>
<text text-anchor="middle" x="1337.5" y="-14.3" font-family="Times,serif" font-size="14.00">(...)</text>
</g>
<!-- 502&#45;&gt;568 -->
<g id="edge30" class="edge">
<title>502&#45;&gt;568</title>
<path fill="none" stroke="black" d="M1317.19,-71.76C1320.54,-63.04 1324.01,-54.04 1327.11,-45.99"/>
<polygon fill="black" stroke="black" points="1330.47,-46.99 1330.8,-36.41 1323.94,-44.48 1330.47,-46.99"/>
</g>
</g>
</svg>
