<?xml version="1.0" encoding="UTF-8" standalone="no"?>
<!DOCTYPE svg PUBLIC "-//W3C//DTD SVG 1.1//EN"
 "http://www.w3.org/Graphics/SVG/1.1/DTD/svg11.dtd">
<!-- Generated by graphviz version 2.43.0 (0)
 -->
<!-- Title: Tree Pages: 1 -->
<svg width="2319pt" height="520pt"
 viewBox="0.00 0.00 2318.50 520.00" xmlns="http://www.w3.org/2000/svg" xmlns:xlink="http://www.w3.org/1999/xlink">
<g id="graph0" class="graph" transform="scale(1 1) rotate(0) translate(4 516)">
<title>Tree</title>
<polygon fill="white" stroke="transparent" points="-4,4 -4,-516 2314.5,-516 2314.5,4 -4,4"/>
<!-- 0 -->
<g id="node1" class="node">
<title>0</title>
<polygon fill="#d1f9d6" stroke="black" points="1240.5,-512 848.5,-512 848.5,-429 1240.5,-429 1240.5,-512"/>
<text text-anchor="middle" x="1044.5" y="-496.8" font-family="Times,serif" font-size="14.00">CCR &lt;= 0.55</text>
<text text-anchor="middle" x="1044.5" y="-481.8" font-family="Times,serif" font-size="14.00">gini = 0.816</text>
<text text-anchor="middle" x="1044.5" y="-466.8" font-family="Times,serif" font-size="14.00">samples = 11670</text>
<text text-anchor="middle" x="1044.5" y="-451.8" font-family="Times,serif" font-size="14.00">value = [1451, 1392, 3833, 1204, 1140, 1279, 1371]</text>
<text text-anchor="middle" x="1044.5" y="-436.8" font-family="Times,serif" font-size="14.00">class = BIL</text>
</g>
<!-- 1 -->
<g id="node2" class="node">
<title>1</title>
<polygon fill="#78ed86" stroke="black" points="942.5,-393 640.5,-393 640.5,-310 942.5,-310 942.5,-393"/>
<text text-anchor="middle" x="791.5" y="-377.8" font-family="Times,serif" font-size="14.00">nbproc &lt;= 4.5</text>
<text text-anchor="middle" x="791.5" y="-362.8" font-family="Times,serif" font-size="14.00">gini = 0.478</text>
<text text-anchor="middle" x="791.5" y="-347.8" font-family="Times,serif" font-size="14.00">samples = 2219</text>
<text text-anchor="middle" x="791.5" y="-332.8" font-family="Times,serif" font-size="14.00">value = [53, 84, 1574, 172, 204, 95, 37]</text>
<text text-anchor="middle" x="791.5" y="-317.8" font-family="Times,serif" font-size="14.00">class = BIL</text>
</g>
<!-- 0&#45;&gt;1 -->
<g id="edge1" class="edge">
<title>0&#45;&gt;1</title>
<path fill="none" stroke="black" d="M956.72,-428.91C934.65,-418.7 910.83,-407.68 888.34,-397.28"/>
<polygon fill="black" stroke="black" points="889.67,-394.04 879.12,-393.02 886.73,-400.4 889.67,-394.04"/>
<text text-anchor="middle" x="887.75" y="-412.79" font-family="Times,serif" font-size="14.00">True</text>
</g>
<!-- 76 -->
<g id="node15" class="node">
<title>76</title>
<polygon fill="#eafcec" stroke="black" points="1541,-393 1158,-393 1158,-310 1541,-310 1541,-393"/>
<text text-anchor="middle" x="1349.5" y="-377.8" font-family="Times,serif" font-size="14.00">graphSize &lt;= 40.0</text>
<text text-anchor="middle" x="1349.5" y="-362.8" font-family="Times,serif" font-size="14.00">gini = 0.844</text>
<text text-anchor="middle" x="1349.5" y="-347.8" font-family="Times,serif" font-size="14.00">samples = 9451</text>
<text text-anchor="middle" x="1349.5" y="-332.8" font-family="Times,serif" font-size="14.00">value = [1398, 1308, 2259, 1032, 936, 1184, 1334]</text>
<text text-anchor="middle" x="1349.5" y="-317.8" font-family="Times,serif" font-size="14.00">class = BIL</text>
</g>
<!-- 0&#45;&gt;76 -->
<g id="edge14" class="edge">
<title>0&#45;&gt;76</title>
<path fill="none" stroke="black" d="M1150.32,-428.91C1177.41,-418.52 1206.67,-407.29 1234.21,-396.73"/>
<polygon fill="black" stroke="black" points="1235.79,-399.87 1243.87,-393.02 1233.28,-393.33 1235.79,-399.87"/>
<text text-anchor="middle" x="1233.7" y="-412.16" font-family="Times,serif" font-size="14.00">False</text>
</g>
<!-- 2 -->
<g id="node3" class="node">
<title>2</title>
<polygon fill="#cdf8d2" stroke="black" points="573,-274 280,-274 280,-191 573,-191 573,-274"/>
<text text-anchor="middle" x="426.5" y="-258.8" font-family="Times,serif" font-size="14.00">graphDepth &lt;= 3.5</text>
<text text-anchor="middle" x="426.5" y="-243.8" font-family="Times,serif" font-size="14.00">gini = 0.746</text>
<text text-anchor="middle" x="426.5" y="-228.8" font-family="Times,serif" font-size="14.00">samples = 971</text>
<text text-anchor="middle" x="426.5" y="-213.8" font-family="Times,serif" font-size="14.00">value = [37, 60, 396, 172, 204, 73, 29]</text>
<text text-anchor="middle" x="426.5" y="-198.8" font-family="Times,serif" font-size="14.00">class = BIL</text>
</g>
<!-- 1&#45;&gt;2 -->
<g id="edge2" class="edge">
<title>1&#45;&gt;2</title>
<path fill="none" stroke="black" d="M665.12,-309.99C632.13,-299.41 596.42,-287.97 562.93,-277.23"/>
<polygon fill="black" stroke="black" points="563.67,-273.79 553.08,-274.07 561.53,-280.46 563.67,-273.79"/>
</g>
<!-- 55 -->
<g id="node10" class="node">
<title>55</title>
<polygon fill="#44e657" stroke="black" points="920,-274 663,-274 663,-191 920,-191 920,-274"/>
<text text-anchor="middle" x="791.5" y="-258.8" font-family="Times,serif" font-size="14.00">sdComp &lt;= 0.02</text>
<text text-anchor="middle" x="791.5" y="-243.8" font-family="Times,serif" font-size="14.00">gini = 0.108</text>
<text text-anchor="middle" x="791.5" y="-228.8" font-family="Times,serif" font-size="14.00">samples = 1248</text>
<text text-anchor="middle" x="791.5" y="-213.8" font-family="Times,serif" font-size="14.00">value = [16, 24, 1178, 0, 0, 22, 8]</text>
<text text-anchor="middle" x="791.5" y="-198.8" font-family="Times,serif" font-size="14.00">class = BIL</text>
</g>
<!-- 1&#45;&gt;55 -->
<g id="edge9" class="edge">
<title>1&#45;&gt;55</title>
<path fill="none" stroke="black" d="M791.5,-309.91C791.5,-301.65 791.5,-292.86 791.5,-284.3"/>
<polygon fill="black" stroke="black" points="795,-284.02 791.5,-274.02 788,-284.02 795,-284.02"/>
</g>
<!-- 3 -->
<g id="node4" class="node">
<title>3</title>
<polygon fill="#d2f9f8" stroke="black" points="275,-155 0,-155 0,-72 275,-72 275,-155"/>
<text text-anchor="middle" x="137.5" y="-139.8" font-family="Times,serif" font-size="14.00">sdComp &lt;= 0.065</text>
<text text-anchor="middle" x="137.5" y="-124.8" font-family="Times,serif" font-size="14.00">gini = 0.708</text>
<text text-anchor="middle" x="137.5" y="-109.8" font-family="Times,serif" font-size="14.00">samples = 389</text>
<text text-anchor="middle" x="137.5" y="-94.8" font-family="Times,serif" font-size="14.00">value = [13, 36, 30, 172, 108, 21, 9]</text>
<text text-anchor="middle" x="137.5" y="-79.8" font-family="Times,serif" font-size="14.00">class = rkd</text>
</g>
<!-- 2&#45;&gt;3 -->
<g id="edge3" class="edge">
<title>2&#45;&gt;3</title>
<path fill="none" stroke="black" d="M326.23,-190.91C300.68,-180.56 273.08,-169.39 247.09,-158.87"/>
<polygon fill="black" stroke="black" points="248.17,-155.53 237.59,-155.02 245.55,-162.02 248.17,-155.53"/>
</g>
<!-- 16 -->
<g id="node7" class="node">
<title>16</title>
<polygon fill="#91f19c" stroke="black" points="559.5,-155 293.5,-155 293.5,-72 559.5,-72 559.5,-155"/>
<text text-anchor="middle" x="426.5" y="-139.8" font-family="Times,serif" font-size="14.00">sdComp &lt;= 0.065</text>
<text text-anchor="middle" x="426.5" y="-124.8" font-family="Times,serif" font-size="14.00">gini = 0.565</text>
<text text-anchor="middle" x="426.5" y="-109.8" font-family="Times,serif" font-size="14.00">samples = 582</text>
<text text-anchor="middle" x="426.5" y="-94.8" font-family="Times,serif" font-size="14.00">value = [24, 24, 366, 0, 96, 52, 20]</text>
<text text-anchor="middle" x="426.5" y="-79.8" font-family="Times,serif" font-size="14.00">class = BIL</text>
</g>
<!-- 2&#45;&gt;16 -->
<g id="edge6" class="edge">
<title>2&#45;&gt;16</title>
<path fill="none" stroke="black" d="M426.5,-190.91C426.5,-182.65 426.5,-173.86 426.5,-165.3"/>
<polygon fill="black" stroke="black" points="430,-165.02 426.5,-155.02 423,-165.02 430,-165.02"/>
</g>
<!-- 4 -->
<g id="node5" class="node">
<title>4</title>
<polygon fill="#c0c0c0" stroke="black" points="128.5,-36 74.5,-36 74.5,0 128.5,0 128.5,-36"/>
<text text-anchor="middle" x="101.5" y="-14.3" font-family="Times,serif" font-size="14.00">(...)</text>
</g>
<!-- 3&#45;&gt;4 -->
<g id="edge4" class="edge">
<title>3&#45;&gt;4</title>
<path fill="none" stroke="black" d="M121.81,-71.76C118.46,-63.04 114.99,-54.04 111.89,-45.99"/>
<polygon fill="black" stroke="black" points="115.06,-44.48 108.2,-36.41 108.53,-46.99 115.06,-44.48"/>
</g>
<!-- 11 -->
<g id="node6" class="node">
<title>11</title>
<polygon fill="#c0c0c0" stroke="black" points="200.5,-36 146.5,-36 146.5,0 200.5,0 200.5,-36"/>
<text text-anchor="middle" x="173.5" y="-14.3" font-family="Times,serif" font-size="14.00">(...)</text>
</g>
<!-- 3&#45;&gt;11 -->
<g id="edge5" class="edge">
<title>3&#45;&gt;11</title>
<path fill="none" stroke="black" d="M153.19,-71.76C156.54,-63.04 160.01,-54.04 163.11,-45.99"/>
<polygon fill="black" stroke="black" points="166.47,-46.99 166.8,-36.41 159.94,-44.48 166.47,-46.99"/>
</g>
<!-- 17 -->
<g id="node8" class="node">
<title>17</title>
<polygon fill="#c0c0c0" stroke="black" points="417.5,-36 363.5,-36 363.5,0 417.5,0 417.5,-36"/>
<text text-anchor="middle" x="390.5" y="-14.3" font-family="Times,serif" font-size="14.00">(...)</text>
</g>
<!-- 16&#45;&gt;17 -->
<g id="edge7" class="edge">
<title>16&#45;&gt;17</title>
<path fill="none" stroke="black" d="M410.81,-71.76C407.46,-63.04 403.99,-54.04 400.89,-45.99"/>
<polygon fill="black" stroke="black" points="404.06,-44.48 397.2,-36.41 397.53,-46.99 404.06,-44.48"/>
</g>
<!-- 44 -->
<g id="node9" class="node">
<title>44</title>
<polygon fill="#c0c0c0" stroke="black" points="489.5,-36 435.5,-36 435.5,0 489.5,0 489.5,-36"/>
<text text-anchor="middle" x="462.5" y="-14.3" font-family="Times,serif" font-size="14.00">(...)</text>
</g>
<!-- 16&#45;&gt;44 -->
<g id="edge8" class="edge">
<title>16&#45;&gt;44</title>
<path fill="none" stroke="black" d="M442.19,-71.76C445.54,-63.04 449.01,-54.04 452.11,-45.99"/>
<polygon fill="black" stroke="black" points="455.47,-46.99 455.8,-36.41 448.94,-44.48 455.47,-46.99"/>
</g>
<!-- 56 -->
<g id="node11" class="node">
<title>56</title>
<polygon fill="#68eb77" stroke="black" points="825.5,-155 577.5,-155 577.5,-72 825.5,-72 825.5,-155"/>
<text text-anchor="middle" x="701.5" y="-139.8" font-family="Times,serif" font-size="14.00">graphDepth &lt;= 6.5</text>
<text text-anchor="middle" x="701.5" y="-124.8" font-family="Times,serif" font-size="14.00">gini = 0.376</text>
<text text-anchor="middle" x="701.5" y="-109.8" font-family="Times,serif" font-size="14.00">samples = 320</text>
<text text-anchor="middle" x="701.5" y="-94.8" font-family="Times,serif" font-size="14.00">value = [16, 24, 250, 0, 0, 22, 8]</text>
<text text-anchor="middle" x="701.5" y="-79.8" font-family="Times,serif" font-size="14.00">class = BIL</text>
</g>
<!-- 55&#45;&gt;56 -->
<g id="edge10" class="edge">
<title>55&#45;&gt;56</title>
<path fill="none" stroke="black" d="M760.27,-190.91C753.36,-181.92 745.97,-172.32 738.85,-163.05"/>
<polygon fill="black" stroke="black" points="741.54,-160.81 732.67,-155.02 735.99,-165.08 741.54,-160.81"/>
</g>
<!-- 75 -->
<g id="node14" class="node">
<title>75</title>
<polygon fill="#39e54d" stroke="black" points="1065,-147.5 844,-147.5 844,-79.5 1065,-79.5 1065,-147.5"/>
<text text-anchor="middle" x="954.5" y="-132.3" font-family="Times,serif" font-size="14.00">gini = 0.0</text>
<text text-anchor="middle" x="954.5" y="-117.3" font-family="Times,serif" font-size="14.00">samples = 928</text>
<text text-anchor="middle" x="954.5" y="-102.3" font-family="Times,serif" font-size="14.00">value = [0, 0, 928, 0, 0, 0, 0]</text>
<text text-anchor="middle" x="954.5" y="-87.3" font-family="Times,serif" font-size="14.00">class = BIL</text>
</g>
<!-- 55&#45;&gt;75 -->
<g id="edge13" class="edge">
<title>55&#45;&gt;75</title>
<path fill="none" stroke="black" d="M848.05,-190.91C864.81,-178.88 883.12,-165.73 899.76,-153.79"/>
<polygon fill="black" stroke="black" points="902.21,-156.34 908.29,-147.67 898.13,-150.65 902.21,-156.34"/>
</g>
<!-- 57 -->
<g id="node12" class="node">
<title>57</title>
<polygon fill="#c0c0c0" stroke="black" points="692.5,-36 638.5,-36 638.5,0 692.5,0 692.5,-36"/>
<text text-anchor="middle" x="665.5" y="-14.3" font-family="Times,serif" font-size="14.00">(...)</text>
</g>
<!-- 56&#45;&gt;57 -->
<g id="edge11" class="edge">
<title>56&#45;&gt;57</title>
<path fill="none" stroke="black" d="M685.81,-71.76C682.46,-63.04 678.99,-54.04 675.89,-45.99"/>
<polygon fill="black" stroke="black" points="679.06,-44.48 672.2,-36.41 672.53,-46.99 679.06,-44.48"/>
</g>
<!-- 64 -->
<g id="node13" class="node">
<title>64</title>
<polygon fill="#c0c0c0" stroke="black" points="764.5,-36 710.5,-36 710.5,0 764.5,0 764.5,-36"/>
<text text-anchor="middle" x="737.5" y="-14.3" font-family="Times,serif" font-size="14.00">(...)</text>
</g>
<!-- 56&#45;&gt;64 -->
<g id="edge12" class="edge">
<title>56&#45;&gt;64</title>
<path fill="none" stroke="black" d="M717.19,-71.76C720.54,-63.04 724.01,-54.04 727.11,-45.99"/>
<polygon fill="black" stroke="black" points="730.47,-46.99 730.8,-36.41 723.94,-44.48 730.47,-46.99"/>
</g>
<!-- 77 -->
<g id="node16" class="node">
<title>77</title>
<polygon fill="#fffffe" stroke="black" points="1532,-274 1167,-274 1167,-191 1532,-191 1532,-274"/>
<text text-anchor="middle" x="1349.5" y="-258.8" font-family="Times,serif" font-size="14.00">graphDepth &lt;= 3.5</text>
<text text-anchor="middle" x="1349.5" y="-243.8" font-family="Times,serif" font-size="14.00">gini = 0.85</text>
<text text-anchor="middle" x="1349.5" y="-228.8" font-family="Times,serif" font-size="14.00">samples = 6105</text>
<text text-anchor="middle" x="1349.5" y="-213.8" font-family="Times,serif" font-size="14.00">value = [1042, 1020, 1025, 612, 540, 860, 1006]</text>
<text text-anchor="middle" x="1349.5" y="-198.8" font-family="Times,serif" font-size="14.00">class = rku</text>
</g>
<!-- 76&#45;&gt;77 -->
<g id="edge15" class="edge">
<title>76&#45;&gt;77</title>
<path fill="none" stroke="black" d="M1349.5,-309.91C1349.5,-301.65 1349.5,-292.86 1349.5,-284.3"/>
<polygon fill="black" stroke="black" points="1353,-284.02 1349.5,-274.02 1346,-284.02 1353,-284.02"/>
</g>
<!-- 296 -->
<g id="node23" class="node">
<title>296</title>
<polygon fill="#c8f8cd" stroke="black" points="2012.5,-274 1674.5,-274 1674.5,-191 2012.5,-191 2012.5,-274"/>
<text text-anchor="middle" x="1843.5" y="-258.8" font-family="Times,serif" font-size="14.00">CCR &lt;= 5.5</text>
<text text-anchor="middle" x="1843.5" y="-243.8" font-family="Times,serif" font-size="14.00">gini = 0.797</text>
<text text-anchor="middle" x="1843.5" y="-228.8" font-family="Times,serif" font-size="14.00">samples = 3346</text>
<text text-anchor="middle" x="1843.5" y="-213.8" font-family="Times,serif" font-size="14.00">value = [356, 288, 1234, 420, 396, 324, 328]</text>
<text text-anchor="middle" x="1843.5" y="-198.8" font-family="Times,serif" font-size="14.00">class = BIL</text>
</g>
<!-- 76&#45;&gt;296 -->
<g id="edge22" class="edge">
<title>76&#45;&gt;296</title>
<path fill="none" stroke="black" d="M1520.54,-309.99C1567,-298.99 1617.43,-287.04 1664.32,-275.94"/>
<polygon fill="black" stroke="black" points="1665.35,-279.29 1674.27,-273.58 1663.74,-272.48 1665.35,-279.29"/>
</g>
<!-- 78 -->
<g id="node17" class="node">
<title>78</title>
<polygon fill="#d8faf9" stroke="black" points="1367.5,-155 1083.5,-155 1083.5,-72 1367.5,-72 1367.5,-155"/>
<text text-anchor="middle" x="1225.5" y="-139.8" font-family="Times,serif" font-size="14.00">sdComp &lt;= 6.5</text>
<text text-anchor="middle" x="1225.5" y="-124.8" font-family="Times,serif" font-size="14.00">gini = 0.809</text>
<text text-anchor="middle" x="1225.5" y="-109.8" font-family="Times,serif" font-size="14.00">samples = 681</text>
<text text-anchor="middle" x="1225.5" y="-94.8" font-family="Times,serif" font-size="14.00">value = [98, 108, 89, 220, 36, 40, 90]</text>
<text text-anchor="middle" x="1225.5" y="-79.8" font-family="Times,serif" font-size="14.00">class = rkd</text>
</g>
<!-- 77&#45;&gt;78 -->
<g id="edge16" class="edge">
<title>77&#45;&gt;78</title>
<path fill="none" stroke="black" d="M1306.48,-190.91C1296.57,-181.56 1285.95,-171.54 1275.77,-161.93"/>
<polygon fill="black" stroke="black" points="1278.12,-159.34 1268.45,-155.02 1273.32,-164.43 1278.12,-159.34"/>
</g>
<!-- 137 -->
<g id="node20" class="node">
<title>137</title>
<polygon fill="#ffffff" stroke="black" points="1715,-155 1386,-155 1386,-72 1715,-72 1715,-155"/>
<text text-anchor="middle" x="1550.5" y="-139.8" font-family="Times,serif" font-size="14.00">sdComm &lt;= 2.0</text>
<text text-anchor="middle" x="1550.5" y="-124.8" font-family="Times,serif" font-size="14.00">gini = 0.846</text>
<text text-anchor="middle" x="1550.5" y="-109.8" font-family="Times,serif" font-size="14.00">samples = 5424</text>
<text text-anchor="middle" x="1550.5" y="-94.8" font-family="Times,serif" font-size="14.00">value = [944, 912, 936, 392, 504, 820, 916]</text>
<text text-anchor="middle" x="1550.5" y="-79.8" font-family="Times,serif" font-size="14.00">class = rku</text>
</g>
<!-- 77&#45;&gt;137 -->
<g id="edge19" class="edge">
<title>77&#45;&gt;137</title>
<path fill="none" stroke="black" d="M1419.24,-190.91C1436.23,-181.02 1454.52,-170.37 1471.9,-160.25"/>
<polygon fill="black" stroke="black" points="1474.01,-163.08 1480.89,-155.02 1470.48,-157.03 1474.01,-163.08"/>
</g>
<!-- 79 -->
<g id="node18" class="node">
<title>79</title>
<polygon fill="#c0c0c0" stroke="black" points="1216.5,-36 1162.5,-36 1162.5,0 1216.5,0 1216.5,-36"/>
<text text-anchor="middle" x="1189.5" y="-14.3" font-family="Times,serif" font-size="14.00">(...)</text>
</g>
<!-- 78&#45;&gt;79 -->
<g id="edge17" class="edge">
<title>78&#45;&gt;79</title>
<path fill="none" stroke="black" d="M1209.81,-71.76C1206.46,-63.04 1202.99,-54.04 1199.89,-45.99"/>
<polygon fill="black" stroke="black" points="1203.06,-44.48 1196.2,-36.41 1196.53,-46.99 1203.06,-44.48"/>
</g>
<!-- 126 -->
<g id="node19" class="node">
<title>126</title>
<polygon fill="#c0c0c0" stroke="black" points="1288.5,-36 1234.5,-36 1234.5,0 1288.5,0 1288.5,-36"/>
<text text-anchor="middle" x="1261.5" y="-14.3" font-family="Times,serif" font-size="14.00">(...)</text>
</g>
<!-- 78&#45;&gt;126 -->
<g id="edge18" class="edge">
<title>78&#45;&gt;126</title>
<path fill="none" stroke="black" d="M1241.19,-71.76C1244.54,-63.04 1248.01,-54.04 1251.11,-45.99"/>
<polygon fill="black" stroke="black" points="1254.47,-46.99 1254.8,-36.41 1247.94,-44.48 1254.47,-46.99"/>
</g>
<!-- 138 -->
<g id="node21" class="node">
<title>138</title>
<polygon fill="#c0c0c0" stroke="black" points="1541.5,-36 1487.5,-36 1487.5,0 1541.5,0 1541.5,-36"/>
<text text-anchor="middle" x="1514.5" y="-14.3" font-family="Times,serif" font-size="14.00">(...)</text>
</g>
<!-- 137&#45;&gt;138 -->
<g id="edge20" class="edge">
<title>137&#45;&gt;138</title>
<path fill="none" stroke="black" d="M1534.81,-71.76C1531.46,-63.04 1527.99,-54.04 1524.89,-45.99"/>
<polygon fill="black" stroke="black" points="1528.06,-44.48 1521.2,-36.41 1521.53,-46.99 1528.06,-44.48"/>
</g>
<!-- 229 -->
<g id="node22" class="node">
<title>229</title>
<polygon fill="#c0c0c0" stroke="black" points="1613.5,-36 1559.5,-36 1559.5,0 1613.5,0 1613.5,-36"/>
<text text-anchor="middle" x="1586.5" y="-14.3" font-family="Times,serif" font-size="14.00">(...)</text>
</g>
<!-- 137&#45;&gt;229 -->
<g id="edge21" class="edge">
<title>137&#45;&gt;229</title>
<path fill="none" stroke="black" d="M1566.19,-71.76C1569.54,-63.04 1573.01,-54.04 1576.11,-45.99"/>
<polygon fill="black" stroke="black" points="1579.47,-46.99 1579.8,-36.41 1572.94,-44.48 1579.47,-46.99"/>
</g>
<!-- 297 -->
<g id="node24" class="node">
<title>297</title>
<polygon fill="#49e75b" stroke="black" points="1954,-155 1733,-155 1733,-72 1954,-72 1954,-155"/>
<text text-anchor="middle" x="1843.5" y="-139.8" font-family="Times,serif" font-size="14.00">graphDepth &lt;= 12.5</text>
<text text-anchor="middle" x="1843.5" y="-124.8" font-family="Times,serif" font-size="14.00">gini = 0.143</text>
<text text-anchor="middle" x="1843.5" y="-109.8" font-family="Times,serif" font-size="14.00">samples = 212</text>
<text text-anchor="middle" x="1843.5" y="-94.8" font-family="Times,serif" font-size="14.00">value = [4, 0, 196, 0, 0, 8, 4]</text>
<text text-anchor="middle" x="1843.5" y="-79.8" font-family="Times,serif" font-size="14.00">class = BIL</text>
</g>
<!-- 296&#45;&gt;297 -->
<g id="edge23" class="edge">
<title>296&#45;&gt;297</title>
<path fill="none" stroke="black" d="M1843.5,-190.91C1843.5,-182.65 1843.5,-173.86 1843.5,-165.3"/>
<polygon fill="black" stroke="black" points="1847,-165.02 1843.5,-155.02 1840,-165.02 1847,-165.02"/>
</g>
<!-- 312 -->
<g id="node27" class="node">
<title>312</title>
<polygon fill="#d2f9d6" stroke="black" points="2310.5,-155 1972.5,-155 1972.5,-72 2310.5,-72 2310.5,-155"/>
<text text-anchor="middle" x="2141.5" y="-139.8" font-family="Times,serif" font-size="14.00">sdComp &lt;= 2.0</text>
<text text-anchor="middle" x="2141.5" y="-124.8" font-family="Times,serif" font-size="14.00">gini = 0.814</text>
<text text-anchor="middle" x="2141.5" y="-109.8" font-family="Times,serif" font-size="14.00">samples = 3134</text>
<text text-anchor="middle" x="2141.5" y="-94.8" font-family="Times,serif" font-size="14.00">value = [352, 288, 1038, 420, 396, 316, 324]</text>
<text text-anchor="middle" x="2141.5" y="-79.8" font-family="Times,serif" font-size="14.00">class = BIL</text>
</g>
<!-- 296&#45;&gt;312 -->
<g id="edge26" class="edge">
<title>296&#45;&gt;312</title>
<path fill="none" stroke="black" d="M1946.89,-190.91C1973.36,-180.52 2001.95,-169.29 2028.85,-158.73"/>
<polygon fill="black" stroke="black" points="2030.26,-161.93 2038.29,-155.02 2027.71,-155.42 2030.26,-161.93"/>
</g>
<!-- 298 -->
<g id="node25" class="node">
<title>298</title>
<polygon fill="#c0c0c0" stroke="black" points="1834.5,-36 1780.5,-36 1780.5,0 1834.5,0 1834.5,-36"/>
<text text-anchor="middle" x="1807.5" y="-14.3" font-family="Times,serif" font-size="14.00">(...)</text>
</g>
<!-- 297&#45;&gt;298 -->
<g id="edge24" class="edge">
<title>297&#45;&gt;298</title>
<path fill="none" stroke="black" d="M1827.81,-71.76C1824.46,-63.04 1820.99,-54.04 1817.89,-45.99"/>
<polygon fill="black" stroke="black" points="1821.06,-44.48 1814.2,-36.41 1814.53,-46.99 1821.06,-44.48"/>
</g>
<!-- 305 -->
<g id="node26" class="node">
<title>305</title>
<polygon fill="#c0c0c0" stroke="black" points="1906.5,-36 1852.5,-36 1852.5,0 1906.5,0 1906.5,-36"/>
<text text-anchor="middle" x="1879.5" y="-14.3" font-family="Times,serif" font-size="14.00">(...)</text>
</g>
<!-- 297&#45;&gt;305 -->
<g id="edge25" class="edge">
<title>297&#45;&gt;305</title>
<path fill="none" stroke="black" d="M1859.19,-71.76C1862.54,-63.04 1866.01,-54.04 1869.11,-45.99"/>
<polygon fill="black" stroke="black" points="1872.47,-46.99 1872.8,-36.41 1865.94,-44.48 1872.47,-46.99"/>
</g>
<!-- 313 -->
<g id="node28" class="node">
<title>313</title>
<polygon fill="#c0c0c0" stroke="black" points="2132.5,-36 2078.5,-36 2078.5,0 2132.5,0 2132.5,-36"/>
<text text-anchor="middle" x="2105.5" y="-14.3" font-family="Times,serif" font-size="14.00">(...)</text>
</g>
<!-- 312&#45;&gt;313 -->
<g id="edge27" class="edge">
<title>312&#45;&gt;313</title>
<path fill="none" stroke="black" d="M2125.81,-71.76C2122.46,-63.04 2118.99,-54.04 2115.89,-45.99"/>
<polygon fill="black" stroke="black" points="2119.06,-44.48 2112.2,-36.41 2112.53,-46.99 2119.06,-44.48"/>
</g>
<!-- 348 -->
<g id="node29" class="node">
<title>348</title>
<polygon fill="#c0c0c0" stroke="black" points="2204.5,-36 2150.5,-36 2150.5,0 2204.5,0 2204.5,-36"/>
<text text-anchor="middle" x="2177.5" y="-14.3" font-family="Times,serif" font-size="14.00">(...)</text>
</g>
<!-- 312&#45;&gt;348 -->
<g id="edge28" class="edge">
<title>312&#45;&gt;348</title>
<path fill="none" stroke="black" d="M2157.19,-71.76C2160.54,-63.04 2164.01,-54.04 2167.11,-45.99"/>
<polygon fill="black" stroke="black" points="2170.47,-46.99 2170.8,-36.41 2163.94,-44.48 2170.47,-46.99"/>
</g>
</g>
</svg>
