<?xml version="1.0" encoding="UTF-8" standalone="no"?>
<!DOCTYPE svg PUBLIC "-//W3C//DTD SVG 1.1//EN"
 "http://www.w3.org/Graphics/SVG/1.1/DTD/svg11.dtd">
<!-- Generated by graphviz version 2.43.0 (0)
 -->
<!-- Title: Tree Pages: 1 -->
<svg width="2478pt" height="520pt"
 viewBox="0.00 0.00 2478.00 520.00" xmlns="http://www.w3.org/2000/svg" xmlns:xlink="http://www.w3.org/1999/xlink">
<g id="graph0" class="graph" transform="scale(1 1) rotate(0) translate(4 516)">
<title>Tree</title>
<polygon fill="white" stroke="transparent" points="-4,4 -4,-516 2474,-516 2474,4 -4,4"/>
<!-- 0 -->
<g id="node1" class="node">
<title>0</title>
<polygon fill="#ffffff" stroke="black" points="1455,-512 1108,-512 1108,-429 1455,-429 1455,-512"/>
<text text-anchor="middle" x="1281.5" y="-496.8" font-family="Times,serif" font-size="14.00">graphDepth &lt;= 3.5</text>
<text text-anchor="middle" x="1281.5" y="-481.8" font-family="Times,serif" font-size="14.00">gini = 0.833</text>
<text text-anchor="middle" x="1281.5" y="-466.8" font-family="Times,serif" font-size="14.00">samples = 24032</text>
<text text-anchor="middle" x="1281.5" y="-451.8" font-family="Times,serif" font-size="14.00">value = [4028, 4028, 4044, 3944, 3944, 4044]</text>
<text text-anchor="middle" x="1281.5" y="-436.8" font-family="Times,serif" font-size="14.00">class = maxmax</text>
</g>
<!-- 1 -->
<g id="node2" class="node">
<title>1</title>
<polygon fill="#ffffff" stroke="black" points="962,-393 669,-393 669,-310 962,-310 962,-393"/>
<text text-anchor="middle" x="815.5" y="-377.8" font-family="Times,serif" font-size="14.00">sdComm &lt;= 0.02</text>
<text text-anchor="middle" x="815.5" y="-362.8" font-family="Times,serif" font-size="14.00">gini = 0.833</text>
<text text-anchor="middle" x="815.5" y="-347.8" font-family="Times,serif" font-size="14.00">samples = 4054</text>
<text text-anchor="middle" x="815.5" y="-332.8" font-family="Times,serif" font-size="14.00">value = [662, 692, 632, 718, 718, 632]</text>
<text text-anchor="middle" x="815.5" y="-317.8" font-family="Times,serif" font-size="14.00">class = minmax</text>
</g>
<!-- 0&#45;&gt;1 -->
<g id="edge1" class="edge">
<title>0&#45;&gt;1</title>
<path fill="none" stroke="black" d="M1120.15,-428.99C1072.18,-416.94 1019.71,-403.77 972.05,-391.8"/>
<polygon fill="black" stroke="black" points="972.82,-388.39 962.27,-389.35 971.11,-395.18 972.82,-388.39"/>
<text text-anchor="middle" x="975.11" y="-407.1" font-family="Times,serif" font-size="14.00">True</text>
</g>
<!-- 86 -->
<g id="node17" class="node">
<title>86</title>
<polygon fill="#ffffff" stroke="black" points="1625,-393 1278,-393 1278,-310 1625,-310 1625,-393"/>
<text text-anchor="middle" x="1451.5" y="-377.8" font-family="Times,serif" font-size="14.00">sdComm &lt;= 0.2</text>
<text text-anchor="middle" x="1451.5" y="-362.8" font-family="Times,serif" font-size="14.00">gini = 0.833</text>
<text text-anchor="middle" x="1451.5" y="-347.8" font-family="Times,serif" font-size="14.00">samples = 19978</text>
<text text-anchor="middle" x="1451.5" y="-332.8" font-family="Times,serif" font-size="14.00">value = [3366, 3336, 3412, 3226, 3226, 3412]</text>
<text text-anchor="middle" x="1451.5" y="-317.8" font-family="Times,serif" font-size="14.00">class = maxmax</text>
</g>
<!-- 0&#45;&gt;86 -->
<g id="edge16" class="edge">
<title>0&#45;&gt;86</title>
<path fill="none" stroke="black" d="M1340.48,-428.91C1354.59,-419.2 1369.76,-408.76 1384.21,-398.81"/>
<polygon fill="black" stroke="black" points="1386.37,-401.57 1392.62,-393.02 1382.4,-395.81 1386.37,-401.57"/>
<text text-anchor="middle" x="1388.08" y="-413.91" font-family="Times,serif" font-size="14.00">False</text>
</g>
<!-- 2 -->
<g id="node3" class="node">
<title>2</title>
<polygon fill="#ffffff" stroke="black" points="496,-274 203,-274 203,-191 496,-191 496,-274"/>
<text text-anchor="middle" x="349.5" y="-258.8" font-family="Times,serif" font-size="14.00">sdComp &lt;= 0.055</text>
<text text-anchor="middle" x="349.5" y="-243.8" font-family="Times,serif" font-size="14.00">gini = 0.833</text>
<text text-anchor="middle" x="349.5" y="-228.8" font-family="Times,serif" font-size="14.00">samples = 1146</text>
<text text-anchor="middle" x="349.5" y="-213.8" font-family="Times,serif" font-size="14.00">value = [184, 190, 202, 184, 184, 202]</text>
<text text-anchor="middle" x="349.5" y="-198.8" font-family="Times,serif" font-size="14.00">class = maxmax</text>
</g>
<!-- 1&#45;&gt;2 -->
<g id="edge2" class="edge">
<title>1&#45;&gt;2</title>
<path fill="none" stroke="black" d="M668.69,-313.64C616.96,-300.65 558.62,-286 506.1,-272.82"/>
<polygon fill="black" stroke="black" points="506.92,-269.42 496.37,-270.37 505.21,-276.2 506.92,-269.42"/>
</g>
<!-- 9 -->
<g id="node10" class="node">
<title>9</title>
<polygon fill="#ffffff" stroke="black" points="962,-274 669,-274 669,-191 962,-191 962,-274"/>
<text text-anchor="middle" x="815.5" y="-258.8" font-family="Times,serif" font-size="14.00">sdComm &lt;= 0.65</text>
<text text-anchor="middle" x="815.5" y="-243.8" font-family="Times,serif" font-size="14.00">gini = 0.832</text>
<text text-anchor="middle" x="815.5" y="-228.8" font-family="Times,serif" font-size="14.00">samples = 2908</text>
<text text-anchor="middle" x="815.5" y="-213.8" font-family="Times,serif" font-size="14.00">value = [478, 502, 430, 534, 534, 430]</text>
<text text-anchor="middle" x="815.5" y="-198.8" font-family="Times,serif" font-size="14.00">class = minmax</text>
</g>
<!-- 1&#45;&gt;9 -->
<g id="edge9" class="edge">
<title>1&#45;&gt;9</title>
<path fill="none" stroke="black" d="M815.5,-309.91C815.5,-301.65 815.5,-292.86 815.5,-284.3"/>
<polygon fill="black" stroke="black" points="819,-284.02 815.5,-274.02 812,-284.02 819,-284.02"/>
</g>
<!-- 3 -->
<g id="node4" class="node">
<title>3</title>
<polygon fill="#ffffff" stroke="black" points="185,-155 0,-155 0,-72 185,-72 185,-155"/>
<text text-anchor="middle" x="92.5" y="-139.8" font-family="Times,serif" font-size="14.00">nbproc &lt;= 4.5</text>
<text text-anchor="middle" x="92.5" y="-124.8" font-family="Times,serif" font-size="14.00">gini = 0.593</text>
<text text-anchor="middle" x="92.5" y="-109.8" font-family="Times,serif" font-size="14.00">samples = 18</text>
<text text-anchor="middle" x="92.5" y="-94.8" font-family="Times,serif" font-size="14.00">value = [0, 2, 8, 0, 0, 8]</text>
<text text-anchor="middle" x="92.5" y="-79.8" font-family="Times,serif" font-size="14.00">class = maxmax</text>
</g>
<!-- 2&#45;&gt;3 -->
<g id="edge3" class="edge">
<title>2&#45;&gt;3</title>
<path fill="none" stroke="black" d="M260.34,-190.91C237.91,-180.7 213.71,-169.68 190.87,-159.28"/>
<polygon fill="black" stroke="black" points="192.06,-155.98 181.51,-155.02 189.16,-162.35 192.06,-155.98"/>
</g>
<!-- 6 -->
<g id="node7" class="node">
<title>6</title>
<polygon fill="#ffffff" stroke="black" points="496,-155 203,-155 203,-72 496,-72 496,-155"/>
<text text-anchor="middle" x="349.5" y="-139.8" font-family="Times,serif" font-size="14.00">nbproc &lt;= 4.5</text>
<text text-anchor="middle" x="349.5" y="-124.8" font-family="Times,serif" font-size="14.00">gini = 0.833</text>
<text text-anchor="middle" x="349.5" y="-109.8" font-family="Times,serif" font-size="14.00">samples = 1128</text>
<text text-anchor="middle" x="349.5" y="-94.8" font-family="Times,serif" font-size="14.00">value = [184, 188, 194, 184, 184, 194]</text>
<text text-anchor="middle" x="349.5" y="-79.8" font-family="Times,serif" font-size="14.00">class = maxmax</text>
</g>
<!-- 2&#45;&gt;6 -->
<g id="edge6" class="edge">
<title>2&#45;&gt;6</title>
<path fill="none" stroke="black" d="M349.5,-190.91C349.5,-182.65 349.5,-173.86 349.5,-165.3"/>
<polygon fill="black" stroke="black" points="353,-165.02 349.5,-155.02 346,-165.02 353,-165.02"/>
</g>
<!-- 4 -->
<g id="node5" class="node">
<title>4</title>
<polygon fill="#c0c0c0" stroke="black" points="83.5,-36 29.5,-36 29.5,0 83.5,0 83.5,-36"/>
<text text-anchor="middle" x="56.5" y="-14.3" font-family="Times,serif" font-size="14.00">(...)</text>
</g>
<!-- 3&#45;&gt;4 -->
<g id="edge4" class="edge">
<title>3&#45;&gt;4</title>
<path fill="none" stroke="black" d="M76.81,-71.76C73.46,-63.04 69.99,-54.04 66.89,-45.99"/>
<polygon fill="black" stroke="black" points="70.06,-44.48 63.2,-36.41 63.53,-46.99 70.06,-44.48"/>
</g>
<!-- 5 -->
<g id="node6" class="node">
<title>5</title>
<polygon fill="#c0c0c0" stroke="black" points="155.5,-36 101.5,-36 101.5,0 155.5,0 155.5,-36"/>
<text text-anchor="middle" x="128.5" y="-14.3" font-family="Times,serif" font-size="14.00">(...)</text>
</g>
<!-- 3&#45;&gt;5 -->
<g id="edge5" class="edge">
<title>3&#45;&gt;5</title>
<path fill="none" stroke="black" d="M108.19,-71.76C111.54,-63.04 115.01,-54.04 118.11,-45.99"/>
<polygon fill="black" stroke="black" points="121.47,-46.99 121.8,-36.41 114.94,-44.48 121.47,-46.99"/>
</g>
<!-- 7 -->
<g id="node8" class="node">
<title>7</title>
<polygon fill="#c0c0c0" stroke="black" points="340.5,-36 286.5,-36 286.5,0 340.5,0 340.5,-36"/>
<text text-anchor="middle" x="313.5" y="-14.3" font-family="Times,serif" font-size="14.00">(...)</text>
</g>
<!-- 6&#45;&gt;7 -->
<g id="edge7" class="edge">
<title>6&#45;&gt;7</title>
<path fill="none" stroke="black" d="M333.81,-71.76C330.46,-63.04 326.99,-54.04 323.89,-45.99"/>
<polygon fill="black" stroke="black" points="327.06,-44.48 320.2,-36.41 320.53,-46.99 327.06,-44.48"/>
</g>
<!-- 8 -->
<g id="node9" class="node">
<title>8</title>
<polygon fill="#c0c0c0" stroke="black" points="412.5,-36 358.5,-36 358.5,0 412.5,0 412.5,-36"/>
<text text-anchor="middle" x="385.5" y="-14.3" font-family="Times,serif" font-size="14.00">(...)</text>
</g>
<!-- 6&#45;&gt;8 -->
<g id="edge8" class="edge">
<title>6&#45;&gt;8</title>
<path fill="none" stroke="black" d="M365.19,-71.76C368.54,-63.04 372.01,-54.04 375.11,-45.99"/>
<polygon fill="black" stroke="black" points="378.47,-46.99 378.8,-36.41 371.94,-44.48 378.47,-46.99"/>
</g>
<!-- 10 -->
<g id="node11" class="node">
<title>10</title>
<polygon fill="#ffffff" stroke="black" points="807,-155 514,-155 514,-72 807,-72 807,-155"/>
<text text-anchor="middle" x="660.5" y="-139.8" font-family="Times,serif" font-size="14.00">sdComm &lt;= 0.2</text>
<text text-anchor="middle" x="660.5" y="-124.8" font-family="Times,serif" font-size="14.00">gini = 0.829</text>
<text text-anchor="middle" x="660.5" y="-109.8" font-family="Times,serif" font-size="14.00">samples = 1902</text>
<text text-anchor="middle" x="660.5" y="-94.8" font-family="Times,serif" font-size="14.00">value = [308, 338, 256, 372, 372, 256]</text>
<text text-anchor="middle" x="660.5" y="-79.8" font-family="Times,serif" font-size="14.00">class = minmax</text>
</g>
<!-- 9&#45;&gt;10 -->
<g id="edge10" class="edge">
<title>9&#45;&gt;10</title>
<path fill="none" stroke="black" d="M761.72,-190.91C748.98,-181.29 735.29,-170.95 722.22,-161.09"/>
<polygon fill="black" stroke="black" points="724.27,-158.25 714.18,-155.02 720.05,-163.84 724.27,-158.25"/>
</g>
<!-- 53 -->
<g id="node14" class="node">
<title>53</title>
<polygon fill="#ffffff" stroke="black" points="1118,-155 825,-155 825,-72 1118,-72 1118,-155"/>
<text text-anchor="middle" x="971.5" y="-139.8" font-family="Times,serif" font-size="14.00">sdComp &lt;= 6.5</text>
<text text-anchor="middle" x="971.5" y="-124.8" font-family="Times,serif" font-size="14.00">gini = 0.833</text>
<text text-anchor="middle" x="971.5" y="-109.8" font-family="Times,serif" font-size="14.00">samples = 1006</text>
<text text-anchor="middle" x="971.5" y="-94.8" font-family="Times,serif" font-size="14.00">value = [170, 164, 174, 162, 162, 174]</text>
<text text-anchor="middle" x="971.5" y="-79.8" font-family="Times,serif" font-size="14.00">class = maxmax</text>
</g>
<!-- 9&#45;&gt;53 -->
<g id="edge13" class="edge">
<title>9&#45;&gt;53</title>
<path fill="none" stroke="black" d="M869.62,-190.91C882.45,-181.29 896.23,-170.95 909.38,-161.09"/>
<polygon fill="black" stroke="black" points="911.57,-163.82 917.47,-155.02 907.37,-158.22 911.57,-163.82"/>
</g>
<!-- 11 -->
<g id="node12" class="node">
<title>11</title>
<polygon fill="#c0c0c0" stroke="black" points="651.5,-36 597.5,-36 597.5,0 651.5,0 651.5,-36"/>
<text text-anchor="middle" x="624.5" y="-14.3" font-family="Times,serif" font-size="14.00">(...)</text>
</g>
<!-- 10&#45;&gt;11 -->
<g id="edge11" class="edge">
<title>10&#45;&gt;11</title>
<path fill="none" stroke="black" d="M644.81,-71.76C641.46,-63.04 637.99,-54.04 634.89,-45.99"/>
<polygon fill="black" stroke="black" points="638.06,-44.48 631.2,-36.41 631.53,-46.99 638.06,-44.48"/>
</g>
<!-- 42 -->
<g id="node13" class="node">
<title>42</title>
<polygon fill="#c0c0c0" stroke="black" points="723.5,-36 669.5,-36 669.5,0 723.5,0 723.5,-36"/>
<text text-anchor="middle" x="696.5" y="-14.3" font-family="Times,serif" font-size="14.00">(...)</text>
</g>
<!-- 10&#45;&gt;42 -->
<g id="edge12" class="edge">
<title>10&#45;&gt;42</title>
<path fill="none" stroke="black" d="M676.19,-71.76C679.54,-63.04 683.01,-54.04 686.11,-45.99"/>
<polygon fill="black" stroke="black" points="689.47,-46.99 689.8,-36.41 682.94,-44.48 689.47,-46.99"/>
</g>
<!-- 54 -->
<g id="node15" class="node">
<title>54</title>
<polygon fill="#c0c0c0" stroke="black" points="962.5,-36 908.5,-36 908.5,0 962.5,0 962.5,-36"/>
<text text-anchor="middle" x="935.5" y="-14.3" font-family="Times,serif" font-size="14.00">(...)</text>
</g>
<!-- 53&#45;&gt;54 -->
<g id="edge14" class="edge">
<title>53&#45;&gt;54</title>
<path fill="none" stroke="black" d="M955.81,-71.76C952.46,-63.04 948.99,-54.04 945.89,-45.99"/>
<polygon fill="black" stroke="black" points="949.06,-44.48 942.2,-36.41 942.53,-46.99 949.06,-44.48"/>
</g>
<!-- 83 -->
<g id="node16" class="node">
<title>83</title>
<polygon fill="#c0c0c0" stroke="black" points="1034.5,-36 980.5,-36 980.5,0 1034.5,0 1034.5,-36"/>
<text text-anchor="middle" x="1007.5" y="-14.3" font-family="Times,serif" font-size="14.00">(...)</text>
</g>
<!-- 53&#45;&gt;83 -->
<g id="edge15" class="edge">
<title>53&#45;&gt;83</title>
<path fill="none" stroke="black" d="M987.19,-71.76C990.54,-63.04 994.01,-54.04 997.11,-45.99"/>
<polygon fill="black" stroke="black" points="1000.47,-46.99 1000.8,-36.41 993.94,-44.48 1000.47,-46.99"/>
</g>
<!-- 87 -->
<g id="node18" class="node">
<title>87</title>
<polygon fill="#ffffff" stroke="black" points="1625,-274 1278,-274 1278,-191 1625,-191 1625,-274"/>
<text text-anchor="middle" x="1451.5" y="-258.8" font-family="Times,serif" font-size="14.00">graphDepth &lt;= 9.0</text>
<text text-anchor="middle" x="1451.5" y="-243.8" font-family="Times,serif" font-size="14.00">gini = 0.833</text>
<text text-anchor="middle" x="1451.5" y="-228.8" font-family="Times,serif" font-size="14.00">samples = 10078</text>
<text text-anchor="middle" x="1451.5" y="-213.8" font-family="Times,serif" font-size="14.00">value = [1724, 1714, 1746, 1574, 1574, 1746]</text>
<text text-anchor="middle" x="1451.5" y="-198.8" font-family="Times,serif" font-size="14.00">class = maxmax</text>
</g>
<!-- 86&#45;&gt;87 -->
<g id="edge17" class="edge">
<title>86&#45;&gt;87</title>
<path fill="none" stroke="black" d="M1451.5,-309.91C1451.5,-301.65 1451.5,-292.86 1451.5,-284.3"/>
<polygon fill="black" stroke="black" points="1455,-284.02 1451.5,-274.02 1448,-284.02 1455,-284.02"/>
</g>
<!-- 276 -->
<g id="node25" class="node">
<title>276</title>
<polygon fill="#ffffff" stroke="black" points="2132,-274 1785,-274 1785,-191 2132,-191 2132,-274"/>
<text text-anchor="middle" x="1958.5" y="-258.8" font-family="Times,serif" font-size="14.00">sdComm &lt;= 0.65</text>
<text text-anchor="middle" x="1958.5" y="-243.8" font-family="Times,serif" font-size="14.00">gini = 0.833</text>
<text text-anchor="middle" x="1958.5" y="-228.8" font-family="Times,serif" font-size="14.00">samples = 9900</text>
<text text-anchor="middle" x="1958.5" y="-213.8" font-family="Times,serif" font-size="14.00">value = [1642, 1622, 1666, 1652, 1652, 1666]</text>
<text text-anchor="middle" x="1958.5" y="-198.8" font-family="Times,serif" font-size="14.00">class = maxmax</text>
</g>
<!-- 86&#45;&gt;276 -->
<g id="edge24" class="edge">
<title>86&#45;&gt;276</title>
<path fill="none" stroke="black" d="M1625.27,-310.4C1673.54,-299.26 1726.11,-287.13 1774.92,-275.86"/>
<polygon fill="black" stroke="black" points="1776,-279.21 1784.96,-273.55 1774.42,-272.39 1776,-279.21"/>
</g>
<!-- 88 -->
<g id="node19" class="node">
<title>88</title>
<polygon fill="#fffefe" stroke="black" points="1483,-155 1136,-155 1136,-72 1483,-72 1483,-155"/>
<text text-anchor="middle" x="1309.5" y="-139.8" font-family="Times,serif" font-size="14.00">sdComp &lt;= 0.65</text>
<text text-anchor="middle" x="1309.5" y="-124.8" font-family="Times,serif" font-size="14.00">gini = 0.833</text>
<text text-anchor="middle" x="1309.5" y="-109.8" font-family="Times,serif" font-size="14.00">samples = 7464</text>
<text text-anchor="middle" x="1309.5" y="-94.8" font-family="Times,serif" font-size="14.00">value = [1322, 1286, 1268, 1160, 1160, 1268]</text>
<text text-anchor="middle" x="1309.5" y="-79.8" font-family="Times,serif" font-size="14.00">class = mean</text>
</g>
<!-- 87&#45;&gt;88 -->
<g id="edge18" class="edge">
<title>87&#45;&gt;88</title>
<path fill="none" stroke="black" d="M1402.23,-190.91C1390.78,-181.47 1378.49,-171.34 1366.72,-161.65"/>
<polygon fill="black" stroke="black" points="1368.62,-158.68 1358.68,-155.02 1364.17,-164.08 1368.62,-158.68"/>
</g>
<!-- 191 -->
<g id="node22" class="node">
<title>191</title>
<polygon fill="#ffffff" stroke="black" points="1794,-155 1501,-155 1501,-72 1794,-72 1794,-155"/>
<text text-anchor="middle" x="1647.5" y="-139.8" font-family="Times,serif" font-size="14.00">sdComp &lt;= 0.065</text>
<text text-anchor="middle" x="1647.5" y="-124.8" font-family="Times,serif" font-size="14.00">gini = 0.832</text>
<text text-anchor="middle" x="1647.5" y="-109.8" font-family="Times,serif" font-size="14.00">samples = 2614</text>
<text text-anchor="middle" x="1647.5" y="-94.8" font-family="Times,serif" font-size="14.00">value = [402, 428, 478, 414, 414, 478]</text>
<text text-anchor="middle" x="1647.5" y="-79.8" font-family="Times,serif" font-size="14.00">class = maxmax</text>
</g>
<!-- 87&#45;&gt;191 -->
<g id="edge21" class="edge">
<title>87&#45;&gt;191</title>
<path fill="none" stroke="black" d="M1519.5,-190.91C1536.07,-181.02 1553.91,-170.37 1570.85,-160.25"/>
<polygon fill="black" stroke="black" points="1572.83,-163.15 1579.62,-155.02 1569.24,-157.14 1572.83,-163.15"/>
</g>
<!-- 89 -->
<g id="node20" class="node">
<title>89</title>
<polygon fill="#c0c0c0" stroke="black" points="1300.5,-36 1246.5,-36 1246.5,0 1300.5,0 1300.5,-36"/>
<text text-anchor="middle" x="1273.5" y="-14.3" font-family="Times,serif" font-size="14.00">(...)</text>
</g>
<!-- 88&#45;&gt;89 -->
<g id="edge19" class="edge">
<title>88&#45;&gt;89</title>
<path fill="none" stroke="black" d="M1293.81,-71.76C1290.46,-63.04 1286.99,-54.04 1283.89,-45.99"/>
<polygon fill="black" stroke="black" points="1287.06,-44.48 1280.2,-36.41 1280.53,-46.99 1287.06,-44.48"/>
</g>
<!-- 182 -->
<g id="node21" class="node">
<title>182</title>
<polygon fill="#c0c0c0" stroke="black" points="1372.5,-36 1318.5,-36 1318.5,0 1372.5,0 1372.5,-36"/>
<text text-anchor="middle" x="1345.5" y="-14.3" font-family="Times,serif" font-size="14.00">(...)</text>
</g>
<!-- 88&#45;&gt;182 -->
<g id="edge20" class="edge">
<title>88&#45;&gt;182</title>
<path fill="none" stroke="black" d="M1325.19,-71.76C1328.54,-63.04 1332.01,-54.04 1335.11,-45.99"/>
<polygon fill="black" stroke="black" points="1338.47,-46.99 1338.8,-36.41 1331.94,-44.48 1338.47,-46.99"/>
</g>
<!-- 192 -->
<g id="node23" class="node">
<title>192</title>
<polygon fill="#c0c0c0" stroke="black" points="1638.5,-36 1584.5,-36 1584.5,0 1638.5,0 1638.5,-36"/>
<text text-anchor="middle" x="1611.5" y="-14.3" font-family="Times,serif" font-size="14.00">(...)</text>
</g>
<!-- 191&#45;&gt;192 -->
<g id="edge22" class="edge">
<title>191&#45;&gt;192</title>
<path fill="none" stroke="black" d="M1631.81,-71.76C1628.46,-63.04 1624.99,-54.04 1621.89,-45.99"/>
<polygon fill="black" stroke="black" points="1625.06,-44.48 1618.2,-36.41 1618.53,-46.99 1625.06,-44.48"/>
</g>
<!-- 235 -->
<g id="node24" class="node">
<title>235</title>
<polygon fill="#c0c0c0" stroke="black" points="1710.5,-36 1656.5,-36 1656.5,0 1710.5,0 1710.5,-36"/>
<text text-anchor="middle" x="1683.5" y="-14.3" font-family="Times,serif" font-size="14.00">(...)</text>
</g>
<!-- 191&#45;&gt;235 -->
<g id="edge23" class="edge">
<title>191&#45;&gt;235</title>
<path fill="none" stroke="black" d="M1663.19,-71.76C1666.54,-63.04 1670.01,-54.04 1673.11,-45.99"/>
<polygon fill="black" stroke="black" points="1676.47,-46.99 1676.8,-36.41 1669.94,-44.48 1676.47,-46.99"/>
</g>
<!-- 277 -->
<g id="node26" class="node">
<title>277</title>
<polygon fill="#ffffff" stroke="black" points="2105,-155 1812,-155 1812,-72 2105,-72 2105,-155"/>
<text text-anchor="middle" x="1958.5" y="-139.8" font-family="Times,serif" font-size="14.00">graphDepth &lt;= 25.5</text>
<text text-anchor="middle" x="1958.5" y="-124.8" font-family="Times,serif" font-size="14.00">gini = 0.832</text>
<text text-anchor="middle" x="1958.5" y="-109.8" font-family="Times,serif" font-size="14.00">samples = 1032</text>
<text text-anchor="middle" x="1958.5" y="-94.8" font-family="Times,serif" font-size="14.00">value = [164, 152, 164, 194, 194, 164]</text>
<text text-anchor="middle" x="1958.5" y="-79.8" font-family="Times,serif" font-size="14.00">class = minmax</text>
</g>
<!-- 276&#45;&gt;277 -->
<g id="edge25" class="edge">
<title>276&#45;&gt;277</title>
<path fill="none" stroke="black" d="M1958.5,-190.91C1958.5,-182.65 1958.5,-173.86 1958.5,-165.3"/>
<polygon fill="black" stroke="black" points="1962,-165.02 1958.5,-155.02 1955,-165.02 1962,-165.02"/>
</g>
<!-- 334 -->
<g id="node29" class="node">
<title>334</title>
<polygon fill="#ffffff" stroke="black" points="2470,-155 2123,-155 2123,-72 2470,-72 2470,-155"/>
<text text-anchor="middle" x="2296.5" y="-139.8" font-family="Times,serif" font-size="14.00">CCR &lt;= 5.5</text>
<text text-anchor="middle" x="2296.5" y="-124.8" font-family="Times,serif" font-size="14.00">gini = 0.833</text>
<text text-anchor="middle" x="2296.5" y="-109.8" font-family="Times,serif" font-size="14.00">samples = 8868</text>
<text text-anchor="middle" x="2296.5" y="-94.8" font-family="Times,serif" font-size="14.00">value = [1478, 1470, 1502, 1458, 1458, 1502]</text>
<text text-anchor="middle" x="2296.5" y="-79.8" font-family="Times,serif" font-size="14.00">class = maxmax</text>
</g>
<!-- 276&#45;&gt;334 -->
<g id="edge28" class="edge">
<title>276&#45;&gt;334</title>
<path fill="none" stroke="black" d="M2075.77,-190.91C2106.18,-180.38 2139.06,-169 2169.93,-158.31"/>
<polygon fill="black" stroke="black" points="2171.13,-161.6 2179.44,-155.02 2168.85,-154.98 2171.13,-161.6"/>
</g>
<!-- 278 -->
<g id="node27" class="node">
<title>278</title>
<polygon fill="#c0c0c0" stroke="black" points="1949.5,-36 1895.5,-36 1895.5,0 1949.5,0 1949.5,-36"/>
<text text-anchor="middle" x="1922.5" y="-14.3" font-family="Times,serif" font-size="14.00">(...)</text>
</g>
<!-- 277&#45;&gt;278 -->
<g id="edge26" class="edge">
<title>277&#45;&gt;278</title>
<path fill="none" stroke="black" d="M1942.81,-71.76C1939.46,-63.04 1935.99,-54.04 1932.89,-45.99"/>
<polygon fill="black" stroke="black" points="1936.06,-44.48 1929.2,-36.41 1929.53,-46.99 1936.06,-44.48"/>
</g>
<!-- 327 -->
<g id="node28" class="node">
<title>327</title>
<polygon fill="#c0c0c0" stroke="black" points="2021.5,-36 1967.5,-36 1967.5,0 2021.5,0 2021.5,-36"/>
<text text-anchor="middle" x="1994.5" y="-14.3" font-family="Times,serif" font-size="14.00">(...)</text>
</g>
<!-- 277&#45;&gt;327 -->
<g id="edge27" class="edge">
<title>277&#45;&gt;327</title>
<path fill="none" stroke="black" d="M1974.19,-71.76C1977.54,-63.04 1981.01,-54.04 1984.11,-45.99"/>
<polygon fill="black" stroke="black" points="1987.47,-46.99 1987.8,-36.41 1980.94,-44.48 1987.47,-46.99"/>
</g>
<!-- 335 -->
<g id="node30" class="node">
<title>335</title>
<polygon fill="#c0c0c0" stroke="black" points="2287.5,-36 2233.5,-36 2233.5,0 2287.5,0 2287.5,-36"/>
<text text-anchor="middle" x="2260.5" y="-14.3" font-family="Times,serif" font-size="14.00">(...)</text>
</g>
<!-- 334&#45;&gt;335 -->
<g id="edge29" class="edge">
<title>334&#45;&gt;335</title>
<path fill="none" stroke="black" d="M2280.81,-71.76C2277.46,-63.04 2273.99,-54.04 2270.89,-45.99"/>
<polygon fill="black" stroke="black" points="2274.06,-44.48 2267.2,-36.41 2267.53,-46.99 2274.06,-44.48"/>
</g>
<!-- 374 -->
<g id="node31" class="node">
<title>374</title>
<polygon fill="#c0c0c0" stroke="black" points="2359.5,-36 2305.5,-36 2305.5,0 2359.5,0 2359.5,-36"/>
<text text-anchor="middle" x="2332.5" y="-14.3" font-family="Times,serif" font-size="14.00">(...)</text>
</g>
<!-- 334&#45;&gt;374 -->
<g id="edge30" class="edge">
<title>334&#45;&gt;374</title>
<path fill="none" stroke="black" d="M2312.19,-71.76C2315.54,-63.04 2319.01,-54.04 2322.11,-45.99"/>
<polygon fill="black" stroke="black" points="2325.47,-46.99 2325.8,-36.41 2318.94,-44.48 2325.47,-46.99"/>
</g>
</g>
</svg>
