<?xml version="1.0" encoding="UTF-8" standalone="no"?>
<!DOCTYPE svg PUBLIC "-//W3C//DTD SVG 1.1//EN"
 "http://www.w3.org/Graphics/SVG/1.1/DTD/svg11.dtd">
<!-- Generated by graphviz version 2.43.0 (0)
 -->
<!-- Title: Tree Pages: 1 -->
<svg width="1423pt" height="520pt"
 viewBox="0.00 0.00 1422.50 520.00" xmlns="http://www.w3.org/2000/svg" xmlns:xlink="http://www.w3.org/1999/xlink">
<g id="graph0" class="graph" transform="scale(1 1) rotate(0) translate(4 516)">
<title>Tree</title>
<polygon fill="white" stroke="transparent" points="-4,4 -4,-516 1418.5,-516 1418.5,4 -4,4"/>
<!-- 0 -->
<g id="node1" class="node">
<title>0</title>
<polygon fill="#b0d8f5" stroke="black" points="803.5,-512 627.5,-512 627.5,-429 803.5,-429 803.5,-512"/>
<text text-anchor="middle" x="715.5" y="-496.8" font-family="Times,serif" font-size="14.00">sdComp &lt;= 0.65</text>
<text text-anchor="middle" x="715.5" y="-481.8" font-family="Times,serif" font-size="14.00">gini = 0.468</text>
<text text-anchor="middle" x="715.5" y="-466.8" font-family="Times,serif" font-size="14.00">samples = 24032</text>
<text text-anchor="middle" x="715.5" y="-451.8" font-family="Times,serif" font-size="14.00">value = [9000, 15032]</text>
<text text-anchor="middle" x="715.5" y="-436.8" font-family="Times,serif" font-size="14.00">class = True</text>
</g>
<!-- 1 -->
<g id="node2" class="node">
<title>1</title>
<polygon fill="#dceefa" stroke="black" points="619,-393 452,-393 452,-310 619,-310 619,-393"/>
<text text-anchor="middle" x="535.5" y="-377.8" font-family="Times,serif" font-size="14.00">nbproc &lt;= 4.5</text>
<text text-anchor="middle" x="535.5" y="-362.8" font-family="Times,serif" font-size="14.00">gini = 0.495</text>
<text text-anchor="middle" x="535.5" y="-347.8" font-family="Times,serif" font-size="14.00">samples = 14344</text>
<text text-anchor="middle" x="535.5" y="-332.8" font-family="Times,serif" font-size="14.00">value = [6478, 7866]</text>
<text text-anchor="middle" x="535.5" y="-317.8" font-family="Times,serif" font-size="14.00">class = True</text>
</g>
<!-- 0&#45;&gt;1 -->
<g id="edge1" class="edge">
<title>0&#45;&gt;1</title>
<path fill="none" stroke="black" d="M653.05,-428.91C637.97,-419.11 621.75,-408.56 606.32,-398.53"/>
<polygon fill="black" stroke="black" points="608.13,-395.54 597.84,-393.02 604.32,-401.41 608.13,-395.54"/>
<text text-anchor="middle" x="603.03" y="-413.78" font-family="Times,serif" font-size="14.00">True</text>
</g>
<!-- 262 -->
<g id="node17" class="node">
<title>262</title>
<polygon fill="#7fbfee" stroke="black" points="980,-393 813,-393 813,-310 980,-310 980,-393"/>
<text text-anchor="middle" x="896.5" y="-377.8" font-family="Times,serif" font-size="14.00">sdComp &lt;= 6.5</text>
<text text-anchor="middle" x="896.5" y="-362.8" font-family="Times,serif" font-size="14.00">gini = 0.385</text>
<text text-anchor="middle" x="896.5" y="-347.8" font-family="Times,serif" font-size="14.00">samples = 9688</text>
<text text-anchor="middle" x="896.5" y="-332.8" font-family="Times,serif" font-size="14.00">value = [2522, 7166]</text>
<text text-anchor="middle" x="896.5" y="-317.8" font-family="Times,serif" font-size="14.00">class = True</text>
</g>
<!-- 0&#45;&gt;262 -->
<g id="edge16" class="edge">
<title>0&#45;&gt;262</title>
<path fill="none" stroke="black" d="M778.3,-428.91C793.46,-419.11 809.77,-408.56 825.29,-398.53"/>
<polygon fill="black" stroke="black" points="827.32,-401.39 833.81,-393.02 823.52,-395.51 827.32,-401.39"/>
<text text-anchor="middle" x="828.56" y="-413.76" font-family="Times,serif" font-size="14.00">False</text>
</g>
<!-- 2 -->
<g id="node3" class="node">
<title>2</title>
<polygon fill="#c8e4f8" stroke="black" points="347,-274 180,-274 180,-191 347,-191 347,-274"/>
<text text-anchor="middle" x="263.5" y="-258.8" font-family="Times,serif" font-size="14.00">sdComp &lt;= 0.2</text>
<text text-anchor="middle" x="263.5" y="-243.8" font-family="Times,serif" font-size="14.00">gini = 0.487</text>
<text text-anchor="middle" x="263.5" y="-228.8" font-family="Times,serif" font-size="14.00">samples = 5426</text>
<text text-anchor="middle" x="263.5" y="-213.8" font-family="Times,serif" font-size="14.00">value = [2276, 3150]</text>
<text text-anchor="middle" x="263.5" y="-198.8" font-family="Times,serif" font-size="14.00">class = True</text>
</g>
<!-- 1&#45;&gt;2 -->
<g id="edge2" class="edge">
<title>1&#45;&gt;2</title>
<path fill="none" stroke="black" d="M451.67,-314.44C421.54,-301.48 387.38,-286.79 356.52,-273.51"/>
<polygon fill="black" stroke="black" points="357.62,-270.18 347.05,-269.44 354.85,-276.61 357.62,-270.18"/>
</g>
<!-- 107 -->
<g id="node10" class="node">
<title>107</title>
<polygon fill="#e9f4fc" stroke="black" points="619,-274 452,-274 452,-191 619,-191 619,-274"/>
<text text-anchor="middle" x="535.5" y="-258.8" font-family="Times,serif" font-size="14.00">graphSize &lt;= 22.5</text>
<text text-anchor="middle" x="535.5" y="-243.8" font-family="Times,serif" font-size="14.00">gini = 0.498</text>
<text text-anchor="middle" x="535.5" y="-228.8" font-family="Times,serif" font-size="14.00">samples = 8918</text>
<text text-anchor="middle" x="535.5" y="-213.8" font-family="Times,serif" font-size="14.00">value = [4202, 4716]</text>
<text text-anchor="middle" x="535.5" y="-198.8" font-family="Times,serif" font-size="14.00">class = True</text>
</g>
<!-- 1&#45;&gt;107 -->
<g id="edge9" class="edge">
<title>1&#45;&gt;107</title>
<path fill="none" stroke="black" d="M535.5,-309.91C535.5,-301.65 535.5,-292.86 535.5,-284.3"/>
<polygon fill="black" stroke="black" points="539,-284.02 535.5,-274.02 532,-284.02 539,-284.02"/>
</g>
<!-- 3 -->
<g id="node4" class="node">
<title>3</title>
<polygon fill="#d0e8f9" stroke="black" points="167,-155 0,-155 0,-72 167,-72 167,-155"/>
<text text-anchor="middle" x="83.5" y="-139.8" font-family="Times,serif" font-size="14.00">graphSize &lt;= 75.0</text>
<text text-anchor="middle" x="83.5" y="-124.8" font-family="Times,serif" font-size="14.00">gini = 0.491</text>
<text text-anchor="middle" x="83.5" y="-109.8" font-family="Times,serif" font-size="14.00">samples = 5080</text>
<text text-anchor="middle" x="83.5" y="-94.8" font-family="Times,serif" font-size="14.00">value = [2202, 2878]</text>
<text text-anchor="middle" x="83.5" y="-79.8" font-family="Times,serif" font-size="14.00">class = True</text>
</g>
<!-- 2&#45;&gt;3 -->
<g id="edge3" class="edge">
<title>2&#45;&gt;3</title>
<path fill="none" stroke="black" d="M201.05,-190.91C185.97,-181.11 169.75,-170.56 154.32,-160.53"/>
<polygon fill="black" stroke="black" points="156.13,-157.54 145.84,-155.02 152.32,-163.41 156.13,-157.54"/>
</g>
<!-- 88 -->
<g id="node7" class="node">
<title>88</title>
<polygon fill="#6fb8ec" stroke="black" points="342.5,-155 184.5,-155 184.5,-72 342.5,-72 342.5,-155"/>
<text text-anchor="middle" x="263.5" y="-139.8" font-family="Times,serif" font-size="14.00">graphDepth &lt;= 7.5</text>
<text text-anchor="middle" x="263.5" y="-124.8" font-family="Times,serif" font-size="14.00">gini = 0.336</text>
<text text-anchor="middle" x="263.5" y="-109.8" font-family="Times,serif" font-size="14.00">samples = 346</text>
<text text-anchor="middle" x="263.5" y="-94.8" font-family="Times,serif" font-size="14.00">value = [74, 272]</text>
<text text-anchor="middle" x="263.5" y="-79.8" font-family="Times,serif" font-size="14.00">class = True</text>
</g>
<!-- 2&#45;&gt;88 -->
<g id="edge6" class="edge">
<title>2&#45;&gt;88</title>
<path fill="none" stroke="black" d="M263.5,-190.91C263.5,-182.65 263.5,-173.86 263.5,-165.3"/>
<polygon fill="black" stroke="black" points="267,-165.02 263.5,-155.02 260,-165.02 267,-165.02"/>
</g>
<!-- 4 -->
<g id="node5" class="node">
<title>4</title>
<polygon fill="#c0c0c0" stroke="black" points="74.5,-36 20.5,-36 20.5,0 74.5,0 74.5,-36"/>
<text text-anchor="middle" x="47.5" y="-14.3" font-family="Times,serif" font-size="14.00">(...)</text>
</g>
<!-- 3&#45;&gt;4 -->
<g id="edge4" class="edge">
<title>3&#45;&gt;4</title>
<path fill="none" stroke="black" d="M67.81,-71.76C64.46,-63.04 60.99,-54.04 57.89,-45.99"/>
<polygon fill="black" stroke="black" points="61.06,-44.48 54.2,-36.41 54.53,-46.99 61.06,-44.48"/>
</g>
<!-- 77 -->
<g id="node6" class="node">
<title>77</title>
<polygon fill="#c0c0c0" stroke="black" points="146.5,-36 92.5,-36 92.5,0 146.5,0 146.5,-36"/>
<text text-anchor="middle" x="119.5" y="-14.3" font-family="Times,serif" font-size="14.00">(...)</text>
</g>
<!-- 3&#45;&gt;77 -->
<g id="edge5" class="edge">
<title>3&#45;&gt;77</title>
<path fill="none" stroke="black" d="M99.19,-71.76C102.54,-63.04 106.01,-54.04 109.11,-45.99"/>
<polygon fill="black" stroke="black" points="112.47,-46.99 112.8,-36.41 105.94,-44.48 112.47,-46.99"/>
</g>
<!-- 89 -->
<g id="node8" class="node">
<title>89</title>
<polygon fill="#c0c0c0" stroke="black" points="254.5,-36 200.5,-36 200.5,0 254.5,0 254.5,-36"/>
<text text-anchor="middle" x="227.5" y="-14.3" font-family="Times,serif" font-size="14.00">(...)</text>
</g>
<!-- 88&#45;&gt;89 -->
<g id="edge7" class="edge">
<title>88&#45;&gt;89</title>
<path fill="none" stroke="black" d="M247.81,-71.76C244.46,-63.04 240.99,-54.04 237.89,-45.99"/>
<polygon fill="black" stroke="black" points="241.06,-44.48 234.2,-36.41 234.53,-46.99 241.06,-44.48"/>
</g>
<!-- 98 -->
<g id="node9" class="node">
<title>98</title>
<polygon fill="#c0c0c0" stroke="black" points="326.5,-36 272.5,-36 272.5,0 326.5,0 326.5,-36"/>
<text text-anchor="middle" x="299.5" y="-14.3" font-family="Times,serif" font-size="14.00">(...)</text>
</g>
<!-- 88&#45;&gt;98 -->
<g id="edge8" class="edge">
<title>88&#45;&gt;98</title>
<path fill="none" stroke="black" d="M279.19,-71.76C282.54,-63.04 286.01,-54.04 289.11,-45.99"/>
<polygon fill="black" stroke="black" points="292.47,-46.99 292.8,-36.41 285.94,-44.48 292.47,-46.99"/>
</g>
<!-- 108 -->
<g id="node11" class="node">
<title>108</title>
<polygon fill="#f0f8fd" stroke="black" points="527,-155 360,-155 360,-72 527,-72 527,-155"/>
<text text-anchor="middle" x="443.5" y="-139.8" font-family="Times,serif" font-size="14.00">sdComm &lt;= 0.02</text>
<text text-anchor="middle" x="443.5" y="-124.8" font-family="Times,serif" font-size="14.00">gini = 0.499</text>
<text text-anchor="middle" x="443.5" y="-109.8" font-family="Times,serif" font-size="14.00">samples = 6466</text>
<text text-anchor="middle" x="443.5" y="-94.8" font-family="Times,serif" font-size="14.00">value = [3106, 3360]</text>
<text text-anchor="middle" x="443.5" y="-79.8" font-family="Times,serif" font-size="14.00">class = True</text>
</g>
<!-- 107&#45;&gt;108 -->
<g id="edge10" class="edge">
<title>107&#45;&gt;108</title>
<path fill="none" stroke="black" d="M503.58,-190.91C496.52,-181.92 488.96,-172.32 481.68,-163.05"/>
<polygon fill="black" stroke="black" points="484.3,-160.72 475.36,-155.02 478.79,-165.05 484.3,-160.72"/>
</g>
<!-- 163 -->
<g id="node14" class="node">
<title>163</title>
<polygon fill="#d9ecfa" stroke="black" points="712,-155 545,-155 545,-72 712,-72 712,-155"/>
<text text-anchor="middle" x="628.5" y="-139.8" font-family="Times,serif" font-size="14.00">sdComm &lt;= 0.65</text>
<text text-anchor="middle" x="628.5" y="-124.8" font-family="Times,serif" font-size="14.00">gini = 0.494</text>
<text text-anchor="middle" x="628.5" y="-109.8" font-family="Times,serif" font-size="14.00">samples = 2452</text>
<text text-anchor="middle" x="628.5" y="-94.8" font-family="Times,serif" font-size="14.00">value = [1096, 1356]</text>
<text text-anchor="middle" x="628.5" y="-79.8" font-family="Times,serif" font-size="14.00">class = True</text>
</g>
<!-- 107&#45;&gt;163 -->
<g id="edge13" class="edge">
<title>107&#45;&gt;163</title>
<path fill="none" stroke="black" d="M567.77,-190.91C574.91,-181.92 582.54,-172.32 589.91,-163.05"/>
<polygon fill="black" stroke="black" points="592.81,-165.03 596.29,-155.02 587.33,-160.67 592.81,-165.03"/>
</g>
<!-- 109 -->
<g id="node12" class="node">
<title>109</title>
<polygon fill="#c0c0c0" stroke="black" points="437.5,-36 383.5,-36 383.5,0 437.5,0 437.5,-36"/>
<text text-anchor="middle" x="410.5" y="-14.3" font-family="Times,serif" font-size="14.00">(...)</text>
</g>
<!-- 108&#45;&gt;109 -->
<g id="edge11" class="edge">
<title>108&#45;&gt;109</title>
<path fill="none" stroke="black" d="M429.12,-71.76C426.04,-63.04 422.87,-54.04 420.03,-45.99"/>
<polygon fill="black" stroke="black" points="423.27,-44.67 416.64,-36.41 416.67,-47 423.27,-44.67"/>
</g>
<!-- 118 -->
<g id="node13" class="node">
<title>118</title>
<polygon fill="#c0c0c0" stroke="black" points="509.5,-36 455.5,-36 455.5,0 509.5,0 509.5,-36"/>
<text text-anchor="middle" x="482.5" y="-14.3" font-family="Times,serif" font-size="14.00">(...)</text>
</g>
<!-- 108&#45;&gt;118 -->
<g id="edge12" class="edge">
<title>108&#45;&gt;118</title>
<path fill="none" stroke="black" d="M460.49,-71.76C464.17,-62.94 467.97,-53.84 471.35,-45.72"/>
<polygon fill="black" stroke="black" points="474.62,-46.98 475.24,-36.41 468.16,-44.29 474.62,-46.98"/>
</g>
<!-- 164 -->
<g id="node15" class="node">
<title>164</title>
<polygon fill="#c0c0c0" stroke="black" points="601.5,-36 547.5,-36 547.5,0 601.5,0 601.5,-36"/>
<text text-anchor="middle" x="574.5" y="-14.3" font-family="Times,serif" font-size="14.00">(...)</text>
</g>
<!-- 163&#45;&gt;164 -->
<g id="edge14" class="edge">
<title>163&#45;&gt;164</title>
<path fill="none" stroke="black" d="M604.97,-71.76C599.77,-62.75 594.39,-53.44 589.63,-45.19"/>
<polygon fill="black" stroke="black" points="592.58,-43.31 584.55,-36.41 586.52,-46.82 592.58,-43.31"/>
</g>
<!-- 249 -->
<g id="node16" class="node">
<title>249</title>
<polygon fill="#c0c0c0" stroke="black" points="673.5,-36 619.5,-36 619.5,0 673.5,0 673.5,-36"/>
<text text-anchor="middle" x="646.5" y="-14.3" font-family="Times,serif" font-size="14.00">(...)</text>
</g>
<!-- 163&#45;&gt;249 -->
<g id="edge15" class="edge">
<title>163&#45;&gt;249</title>
<path fill="none" stroke="black" d="M636.34,-71.76C638,-63.14 639.72,-54.24 641.25,-46.26"/>
<polygon fill="black" stroke="black" points="644.7,-46.89 643.15,-36.41 637.82,-45.56 644.7,-46.89"/>
</g>
<!-- 263 -->
<g id="node18" class="node">
<title>263</title>
<polygon fill="#70b8ec" stroke="black" points="980,-274 813,-274 813,-191 980,-191 980,-274"/>
<text text-anchor="middle" x="896.5" y="-258.8" font-family="Times,serif" font-size="14.00">nbproc &lt;= 4.5</text>
<text text-anchor="middle" x="896.5" y="-243.8" font-family="Times,serif" font-size="14.00">gini = 0.34</text>
<text text-anchor="middle" x="896.5" y="-228.8" font-family="Times,serif" font-size="14.00">samples = 7080</text>
<text text-anchor="middle" x="896.5" y="-213.8" font-family="Times,serif" font-size="14.00">value = [1538, 5542]</text>
<text text-anchor="middle" x="896.5" y="-198.8" font-family="Times,serif" font-size="14.00">class = True</text>
</g>
<!-- 262&#45;&gt;263 -->
<g id="edge17" class="edge">
<title>262&#45;&gt;263</title>
<path fill="none" stroke="black" d="M896.5,-309.91C896.5,-301.65 896.5,-292.86 896.5,-284.3"/>
<polygon fill="black" stroke="black" points="900,-284.02 896.5,-274.02 893,-284.02 900,-284.02"/>
</g>
<!-- 406 -->
<g id="node25" class="node">
<title>406</title>
<polygon fill="#b1d8f5" stroke="black" points="1243.5,-274 1085.5,-274 1085.5,-191 1243.5,-191 1243.5,-274"/>
<text text-anchor="middle" x="1164.5" y="-258.8" font-family="Times,serif" font-size="14.00">graphSize &lt;= 22.5</text>
<text text-anchor="middle" x="1164.5" y="-243.8" font-family="Times,serif" font-size="14.00">gini = 0.47</text>
<text text-anchor="middle" x="1164.5" y="-228.8" font-family="Times,serif" font-size="14.00">samples = 2608</text>
<text text-anchor="middle" x="1164.5" y="-213.8" font-family="Times,serif" font-size="14.00">value = [984, 1624]</text>
<text text-anchor="middle" x="1164.5" y="-198.8" font-family="Times,serif" font-size="14.00">class = True</text>
</g>
<!-- 262&#45;&gt;406 -->
<g id="edge24" class="edge">
<title>262&#45;&gt;406</title>
<path fill="none" stroke="black" d="M980.19,-313.96C1010.54,-300.72 1044.9,-285.71 1075.67,-272.28"/>
<polygon fill="black" stroke="black" points="1077.33,-275.37 1085.1,-268.16 1074.53,-268.96 1077.33,-275.37"/>
</g>
<!-- 264 -->
<g id="node19" class="node">
<title>264</title>
<polygon fill="#66b3eb" stroke="black" points="887.5,-155 729.5,-155 729.5,-72 887.5,-72 887.5,-155"/>
<text text-anchor="middle" x="808.5" y="-139.8" font-family="Times,serif" font-size="14.00">graphSize &lt;= 75.0</text>
<text text-anchor="middle" x="808.5" y="-124.8" font-family="Times,serif" font-size="14.00">gini = 0.303</text>
<text text-anchor="middle" x="808.5" y="-109.8" font-family="Times,serif" font-size="14.00">samples = 4280</text>
<text text-anchor="middle" x="808.5" y="-94.8" font-family="Times,serif" font-size="14.00">value = [798, 3482]</text>
<text text-anchor="middle" x="808.5" y="-79.8" font-family="Times,serif" font-size="14.00">class = True</text>
</g>
<!-- 263&#45;&gt;264 -->
<g id="edge18" class="edge">
<title>263&#45;&gt;264</title>
<path fill="none" stroke="black" d="M865.97,-190.91C859.21,-181.92 851.98,-172.32 845.02,-163.05"/>
<polygon fill="black" stroke="black" points="847.79,-160.91 838.98,-155.02 842.19,-165.12 847.79,-160.91"/>
</g>
<!-- 331 -->
<g id="node22" class="node">
<title>331</title>
<polygon fill="#80c0ee" stroke="black" points="1072,-155 905,-155 905,-72 1072,-72 1072,-155"/>
<text text-anchor="middle" x="988.5" y="-139.8" font-family="Times,serif" font-size="14.00">graphDepth &lt;= 25.5</text>
<text text-anchor="middle" x="988.5" y="-124.8" font-family="Times,serif" font-size="14.00">gini = 0.389</text>
<text text-anchor="middle" x="988.5" y="-109.8" font-family="Times,serif" font-size="14.00">samples = 2800</text>
<text text-anchor="middle" x="988.5" y="-94.8" font-family="Times,serif" font-size="14.00">value = [740, 2060]</text>
<text text-anchor="middle" x="988.5" y="-79.8" font-family="Times,serif" font-size="14.00">class = True</text>
</g>
<!-- 263&#45;&gt;331 -->
<g id="edge21" class="edge">
<title>263&#45;&gt;331</title>
<path fill="none" stroke="black" d="M928.42,-190.91C935.48,-181.92 943.04,-172.32 950.32,-163.05"/>
<polygon fill="black" stroke="black" points="953.21,-165.05 956.64,-155.02 947.7,-160.72 953.21,-165.05"/>
</g>
<!-- 265 -->
<g id="node20" class="node">
<title>265</title>
<polygon fill="#c0c0c0" stroke="black" points="781.5,-36 727.5,-36 727.5,0 781.5,0 781.5,-36"/>
<text text-anchor="middle" x="754.5" y="-14.3" font-family="Times,serif" font-size="14.00">(...)</text>
</g>
<!-- 264&#45;&gt;265 -->
<g id="edge19" class="edge">
<title>264&#45;&gt;265</title>
<path fill="none" stroke="black" d="M784.97,-71.76C779.77,-62.75 774.39,-53.44 769.63,-45.19"/>
<polygon fill="black" stroke="black" points="772.58,-43.31 764.55,-36.41 766.52,-46.82 772.58,-43.31"/>
</g>
<!-- 320 -->
<g id="node21" class="node">
<title>320</title>
<polygon fill="#c0c0c0" stroke="black" points="853.5,-36 799.5,-36 799.5,0 853.5,0 853.5,-36"/>
<text text-anchor="middle" x="826.5" y="-14.3" font-family="Times,serif" font-size="14.00">(...)</text>
</g>
<!-- 264&#45;&gt;320 -->
<g id="edge20" class="edge">
<title>264&#45;&gt;320</title>
<path fill="none" stroke="black" d="M816.34,-71.76C818,-63.14 819.72,-54.24 821.25,-46.26"/>
<polygon fill="black" stroke="black" points="824.7,-46.89 823.15,-36.41 817.82,-45.56 824.7,-46.89"/>
</g>
<!-- 332 -->
<g id="node23" class="node">
<title>332</title>
<polygon fill="#c0c0c0" stroke="black" points="959.5,-36 905.5,-36 905.5,0 959.5,0 959.5,-36"/>
<text text-anchor="middle" x="932.5" y="-14.3" font-family="Times,serif" font-size="14.00">(...)</text>
</g>
<!-- 331&#45;&gt;332 -->
<g id="edge22" class="edge">
<title>331&#45;&gt;332</title>
<path fill="none" stroke="black" d="M964.1,-71.76C958.7,-62.75 953.13,-53.44 948.19,-45.19"/>
<polygon fill="black" stroke="black" points="951.07,-43.19 942.92,-36.41 945.06,-46.78 951.07,-43.19"/>
</g>
<!-- 397 -->
<g id="node24" class="node">
<title>397</title>
<polygon fill="#c0c0c0" stroke="black" points="1031.5,-36 977.5,-36 977.5,0 1031.5,0 1031.5,-36"/>
<text text-anchor="middle" x="1004.5" y="-14.3" font-family="Times,serif" font-size="14.00">(...)</text>
</g>
<!-- 331&#45;&gt;397 -->
<g id="edge23" class="edge">
<title>331&#45;&gt;397</title>
<path fill="none" stroke="black" d="M995.47,-71.76C996.93,-63.24 998.44,-54.44 999.79,-46.53"/>
<polygon fill="black" stroke="black" points="1003.28,-46.85 1001.52,-36.41 996.38,-45.67 1003.28,-46.85"/>
</g>
<!-- 407 -->
<g id="node26" class="node">
<title>407</title>
<polygon fill="#d2e9f9" stroke="black" points="1239,-155 1090,-155 1090,-72 1239,-72 1239,-155"/>
<text text-anchor="middle" x="1164.5" y="-139.8" font-family="Times,serif" font-size="14.00">sdComm &lt;= 2.0</text>
<text text-anchor="middle" x="1164.5" y="-124.8" font-family="Times,serif" font-size="14.00">gini = 0.492</text>
<text text-anchor="middle" x="1164.5" y="-109.8" font-family="Times,serif" font-size="14.00">samples = 954</text>
<text text-anchor="middle" x="1164.5" y="-94.8" font-family="Times,serif" font-size="14.00">value = [416, 538]</text>
<text text-anchor="middle" x="1164.5" y="-79.8" font-family="Times,serif" font-size="14.00">class = True</text>
</g>
<!-- 406&#45;&gt;407 -->
<g id="edge25" class="edge">
<title>406&#45;&gt;407</title>
<path fill="none" stroke="black" d="M1164.5,-190.91C1164.5,-182.65 1164.5,-173.86 1164.5,-165.3"/>
<polygon fill="black" stroke="black" points="1168,-165.02 1164.5,-155.02 1161,-165.02 1168,-165.02"/>
</g>
<!-- 422 -->
<g id="node29" class="node">
<title>422</title>
<polygon fill="#a1d0f3" stroke="black" points="1414.5,-155 1256.5,-155 1256.5,-72 1414.5,-72 1414.5,-155"/>
<text text-anchor="middle" x="1335.5" y="-139.8" font-family="Times,serif" font-size="14.00">graphDepth &lt;= 9.0</text>
<text text-anchor="middle" x="1335.5" y="-124.8" font-family="Times,serif" font-size="14.00">gini = 0.451</text>
<text text-anchor="middle" x="1335.5" y="-109.8" font-family="Times,serif" font-size="14.00">samples = 1654</text>
<text text-anchor="middle" x="1335.5" y="-94.8" font-family="Times,serif" font-size="14.00">value = [568, 1086]</text>
<text text-anchor="middle" x="1335.5" y="-79.8" font-family="Times,serif" font-size="14.00">class = True</text>
</g>
<!-- 406&#45;&gt;422 -->
<g id="edge28" class="edge">
<title>406&#45;&gt;422</title>
<path fill="none" stroke="black" d="M1223.83,-190.91C1238.02,-181.2 1253.28,-170.76 1267.81,-160.81"/>
<polygon fill="black" stroke="black" points="1270,-163.56 1276.28,-155.02 1266.05,-157.78 1270,-163.56"/>
</g>
<!-- 408 -->
<g id="node27" class="node">
<title>408</title>
<polygon fill="#c0c0c0" stroke="black" points="1150.5,-36 1096.5,-36 1096.5,0 1150.5,0 1150.5,-36"/>
<text text-anchor="middle" x="1123.5" y="-14.3" font-family="Times,serif" font-size="14.00">(...)</text>
</g>
<!-- 407&#45;&gt;408 -->
<g id="edge26" class="edge">
<title>407&#45;&gt;408</title>
<path fill="none" stroke="black" d="M1146.64,-71.76C1142.77,-62.94 1138.78,-53.84 1135.22,-45.72"/>
<polygon fill="black" stroke="black" points="1138.35,-44.16 1131.13,-36.41 1131.94,-46.97 1138.35,-44.16"/>
</g>
<!-- 413 -->
<g id="node28" class="node">
<title>413</title>
<polygon fill="#c0c0c0" stroke="black" points="1222.5,-36 1168.5,-36 1168.5,0 1222.5,0 1222.5,-36"/>
<text text-anchor="middle" x="1195.5" y="-14.3" font-family="Times,serif" font-size="14.00">(...)</text>
</g>
<!-- 407&#45;&gt;413 -->
<g id="edge27" class="edge">
<title>407&#45;&gt;413</title>
<path fill="none" stroke="black" d="M1178.01,-71.76C1180.9,-63.04 1183.88,-54.04 1186.55,-45.99"/>
<polygon fill="black" stroke="black" points="1189.9,-47 1189.73,-36.41 1183.26,-44.8 1189.9,-47"/>
</g>
<!-- 423 -->
<g id="node30" class="node">
<title>423</title>
<polygon fill="#c0c0c0" stroke="black" points="1326.5,-36 1272.5,-36 1272.5,0 1326.5,0 1326.5,-36"/>
<text text-anchor="middle" x="1299.5" y="-14.3" font-family="Times,serif" font-size="14.00">(...)</text>
</g>
<!-- 422&#45;&gt;423 -->
<g id="edge29" class="edge">
<title>422&#45;&gt;423</title>
<path fill="none" stroke="black" d="M1319.81,-71.76C1316.46,-63.04 1312.99,-54.04 1309.89,-45.99"/>
<polygon fill="black" stroke="black" points="1313.06,-44.48 1306.2,-36.41 1306.53,-46.99 1313.06,-44.48"/>
</g>
<!-- 428 -->
<g id="node31" class="node">
<title>428</title>
<polygon fill="#c0c0c0" stroke="black" points="1398.5,-36 1344.5,-36 1344.5,0 1398.5,0 1398.5,-36"/>
<text text-anchor="middle" x="1371.5" y="-14.3" font-family="Times,serif" font-size="14.00">(...)</text>
</g>
<!-- 422&#45;&gt;428 -->
<g id="edge30" class="edge">
<title>422&#45;&gt;428</title>
<path fill="none" stroke="black" d="M1351.19,-71.76C1354.54,-63.04 1358.01,-54.04 1361.11,-45.99"/>
<polygon fill="black" stroke="black" points="1364.47,-46.99 1364.8,-36.41 1357.94,-44.48 1364.47,-46.99"/>
</g>
</g>
</svg>
