<?xml version="1.0" encoding="UTF-8" standalone="no"?>
<!DOCTYPE svg PUBLIC "-//W3C//DTD SVG 1.1//EN"
 "http://www.w3.org/Graphics/SVG/1.1/DTD/svg11.dtd">
<!-- Generated by graphviz version 2.43.0 (0)
 -->
<!-- Title: Tree Pages: 1 -->
<svg width="2389pt" height="520pt"
 viewBox="0.00 0.00 2389.00 520.00" xmlns="http://www.w3.org/2000/svg" xmlns:xlink="http://www.w3.org/1999/xlink">
<g id="graph0" class="graph" transform="scale(1 1) rotate(0) translate(4 516)">
<title>Tree</title>
<polygon fill="white" stroke="transparent" points="-4,4 -4,-516 2385,-516 2385,4 -4,4"/>
<!-- 0 -->
<g id="node1" class="node">
<title>0</title>
<polygon fill="#fceaf5" stroke="black" points="1326.5,-512 979.5,-512 979.5,-429 1326.5,-429 1326.5,-512"/>
<text text-anchor="middle" x="1153" y="-496.8" font-family="Times,serif" font-size="14.00">CCR &lt;= 5.5</text>
<text text-anchor="middle" x="1153" y="-481.8" font-family="Times,serif" font-size="14.00">gini = 0.773</text>
<text text-anchor="middle" x="1153" y="-466.8" font-family="Times,serif" font-size="14.00">samples = 24032</text>
<text text-anchor="middle" x="1153" y="-451.8" font-family="Times,serif" font-size="14.00">value = [5628, 1140, 2736, 1332, 5636, 7560]</text>
<text text-anchor="middle" x="1153" y="-436.8" font-family="Times,serif" font-size="14.00">class = GDL</text>
</g>
<!-- 1 -->
<g id="node2" class="node">
<title>1</title>
<polygon fill="#fadaed" stroke="black" points="1018.5,-393 707.5,-393 707.5,-310 1018.5,-310 1018.5,-393"/>
<text text-anchor="middle" x="863" y="-377.8" font-family="Times,serif" font-size="14.00">sdComm &lt;= 0.065</text>
<text text-anchor="middle" x="863" y="-362.8" font-family="Times,serif" font-size="14.00">gini = 0.688</text>
<text text-anchor="middle" x="863" y="-347.8" font-family="Times,serif" font-size="14.00">samples = 15842</text>
<text text-anchor="middle" x="863" y="-332.8" font-family="Times,serif" font-size="14.00">value = [4164, 312, 72, 504, 4316, 6474]</text>
<text text-anchor="middle" x="863" y="-317.8" font-family="Times,serif" font-size="14.00">class = GDL</text>
</g>
<!-- 0&#45;&gt;1 -->
<g id="edge1" class="edge">
<title>0&#45;&gt;1</title>
<path fill="none" stroke="black" d="M1052.39,-428.91C1026.74,-418.56 999.05,-407.39 972.97,-396.87"/>
<polygon fill="black" stroke="black" points="974.02,-393.52 963.44,-393.02 971.4,-400.01 974.02,-393.52"/>
<text text-anchor="middle" x="973.22" y="-412.33" font-family="Times,serif" font-size="14.00">True</text>
</g>
<!-- 332 -->
<g id="node17" class="node">
<title>332</title>
<polygon fill="#dcfae9" stroke="black" points="1627.5,-393 1298.5,-393 1298.5,-310 1627.5,-310 1627.5,-393"/>
<text text-anchor="middle" x="1463" y="-377.8" font-family="Times,serif" font-size="14.00">sdComp &lt;= 2.0</text>
<text text-anchor="middle" x="1463" y="-362.8" font-family="Times,serif" font-size="14.00">gini = 0.798</text>
<text text-anchor="middle" x="1463" y="-347.8" font-family="Times,serif" font-size="14.00">samples = 8190</text>
<text text-anchor="middle" x="1463" y="-332.8" font-family="Times,serif" font-size="14.00">value = [1464, 828, 2664, 828, 1320, 1086]</text>
<text text-anchor="middle" x="1463" y="-317.8" font-family="Times,serif" font-size="14.00">class = OLB</text>
</g>
<!-- 0&#45;&gt;332 -->
<g id="edge16" class="edge">
<title>0&#45;&gt;332</title>
<path fill="none" stroke="black" d="M1260.55,-428.91C1288.2,-418.47 1318.09,-407.19 1346.18,-396.59"/>
<polygon fill="black" stroke="black" points="1347.52,-399.83 1355.64,-393.02 1345.05,-393.28 1347.52,-399.83"/>
<text text-anchor="middle" x="1345.34" y="-412.1" font-family="Times,serif" font-size="14.00">False</text>
</g>
<!-- 2 -->
<g id="node3" class="node">
<title>2</title>
<polygon fill="#fdeff7" stroke="black" points="568,-274 266,-274 266,-191 568,-191 568,-274"/>
<text text-anchor="middle" x="417" y="-258.8" font-family="Times,serif" font-size="14.00">sdComp &lt;= 0.02</text>
<text text-anchor="middle" x="417" y="-243.8" font-family="Times,serif" font-size="14.00">gini = 0.692</text>
<text text-anchor="middle" x="417" y="-228.8" font-family="Times,serif" font-size="14.00">samples = 8350</text>
<text text-anchor="middle" x="417" y="-213.8" font-family="Times,serif" font-size="14.00">value = [2640, 156, 0, 264, 2196, 3094]</text>
<text text-anchor="middle" x="417" y="-198.8" font-family="Times,serif" font-size="14.00">class = GDL</text>
</g>
<!-- 1&#45;&gt;2 -->
<g id="edge2" class="edge">
<title>1&#45;&gt;2</title>
<path fill="none" stroke="black" d="M708.58,-309.99C666.43,-298.93 620.66,-286.93 578.15,-275.77"/>
<polygon fill="black" stroke="black" points="578.84,-272.34 568.28,-273.19 577.06,-279.11 578.84,-272.34"/>
</g>
<!-- 123 -->
<g id="node10" class="node">
<title>123</title>
<polygon fill="#f9d1e8" stroke="black" points="1018.5,-274 707.5,-274 707.5,-191 1018.5,-191 1018.5,-274"/>
<text text-anchor="middle" x="863" y="-258.8" font-family="Times,serif" font-size="14.00">nbproc &lt;= 4.5</text>
<text text-anchor="middle" x="863" y="-243.8" font-family="Times,serif" font-size="14.00">gini = 0.673</text>
<text text-anchor="middle" x="863" y="-228.8" font-family="Times,serif" font-size="14.00">samples = 7492</text>
<text text-anchor="middle" x="863" y="-213.8" font-family="Times,serif" font-size="14.00">value = [1524, 156, 72, 240, 2120, 3380]</text>
<text text-anchor="middle" x="863" y="-198.8" font-family="Times,serif" font-size="14.00">class = GDL</text>
</g>
<!-- 1&#45;&gt;123 -->
<g id="edge9" class="edge">
<title>1&#45;&gt;123</title>
<path fill="none" stroke="black" d="M863,-309.91C863,-301.65 863,-292.86 863,-284.3"/>
<polygon fill="black" stroke="black" points="866.5,-284.02 863,-274.02 859.5,-284.02 866.5,-284.02"/>
</g>
<!-- 3 -->
<g id="node4" class="node">
<title>3</title>
<polygon fill="#f6bcde" stroke="black" points="248,-155 0,-155 0,-72 248,-72 248,-155"/>
<text text-anchor="middle" x="124" y="-139.8" font-family="Times,serif" font-size="14.00">graphDepth &lt;= 9.0</text>
<text text-anchor="middle" x="124" y="-124.8" font-family="Times,serif" font-size="14.00">gini = 0.643</text>
<text text-anchor="middle" x="124" y="-109.8" font-family="Times,serif" font-size="14.00">samples = 1124</text>
<text text-anchor="middle" x="124" y="-94.8" font-family="Times,serif" font-size="14.00">value = [240, 48, 0, 0, 274, 562]</text>
<text text-anchor="middle" x="124" y="-79.8" font-family="Times,serif" font-size="14.00">class = GDL</text>
</g>
<!-- 2&#45;&gt;3 -->
<g id="edge3" class="edge">
<title>2&#45;&gt;3</title>
<path fill="none" stroke="black" d="M315.35,-190.91C289.44,-180.56 261.46,-169.39 235.1,-158.87"/>
<polygon fill="black" stroke="black" points="236.06,-155.48 225.48,-155.02 233.46,-161.98 236.06,-155.48"/>
</g>
<!-- 44 -->
<g id="node7" class="node">
<title>44</title>
<polygon fill="#fefafc" stroke="black" points="568,-155 266,-155 266,-72 568,-72 568,-155"/>
<text text-anchor="middle" x="417" y="-139.8" font-family="Times,serif" font-size="14.00">graphDepth &lt;= 3.5</text>
<text text-anchor="middle" x="417" y="-124.8" font-family="Times,serif" font-size="14.00">gini = 0.695</text>
<text text-anchor="middle" x="417" y="-109.8" font-family="Times,serif" font-size="14.00">samples = 7226</text>
<text text-anchor="middle" x="417" y="-94.8" font-family="Times,serif" font-size="14.00">value = [2400, 108, 0, 264, 1922, 2532]</text>
<text text-anchor="middle" x="417" y="-79.8" font-family="Times,serif" font-size="14.00">class = GDL</text>
</g>
<!-- 2&#45;&gt;44 -->
<g id="edge6" class="edge">
<title>2&#45;&gt;44</title>
<path fill="none" stroke="black" d="M417,-190.91C417,-182.65 417,-173.86 417,-165.3"/>
<polygon fill="black" stroke="black" points="420.5,-165.02 417,-155.02 413.5,-165.02 420.5,-165.02"/>
</g>
<!-- 4 -->
<g id="node5" class="node">
<title>4</title>
<polygon fill="#c0c0c0" stroke="black" points="115,-36 61,-36 61,0 115,0 115,-36"/>
<text text-anchor="middle" x="88" y="-14.3" font-family="Times,serif" font-size="14.00">(...)</text>
</g>
<!-- 3&#45;&gt;4 -->
<g id="edge4" class="edge">
<title>3&#45;&gt;4</title>
<path fill="none" stroke="black" d="M108.31,-71.76C104.96,-63.04 101.49,-54.04 98.39,-45.99"/>
<polygon fill="black" stroke="black" points="101.56,-44.48 94.7,-36.41 95.03,-46.99 101.56,-44.48"/>
</g>
<!-- 31 -->
<g id="node6" class="node">
<title>31</title>
<polygon fill="#c0c0c0" stroke="black" points="187,-36 133,-36 133,0 187,0 187,-36"/>
<text text-anchor="middle" x="160" y="-14.3" font-family="Times,serif" font-size="14.00">(...)</text>
</g>
<!-- 3&#45;&gt;31 -->
<g id="edge5" class="edge">
<title>3&#45;&gt;31</title>
<path fill="none" stroke="black" d="M139.69,-71.76C143.04,-63.04 146.51,-54.04 149.61,-45.99"/>
<polygon fill="black" stroke="black" points="152.97,-46.99 153.3,-36.41 146.44,-44.48 152.97,-46.99"/>
</g>
<!-- 45 -->
<g id="node8" class="node">
<title>45</title>
<polygon fill="#c0c0c0" stroke="black" points="408,-36 354,-36 354,0 408,0 408,-36"/>
<text text-anchor="middle" x="381" y="-14.3" font-family="Times,serif" font-size="14.00">(...)</text>
</g>
<!-- 44&#45;&gt;45 -->
<g id="edge7" class="edge">
<title>44&#45;&gt;45</title>
<path fill="none" stroke="black" d="M401.31,-71.76C397.96,-63.04 394.49,-54.04 391.39,-45.99"/>
<polygon fill="black" stroke="black" points="394.56,-44.48 387.7,-36.41 388.03,-46.99 394.56,-44.48"/>
</g>
<!-- 54 -->
<g id="node9" class="node">
<title>54</title>
<polygon fill="#c0c0c0" stroke="black" points="480,-36 426,-36 426,0 480,0 480,-36"/>
<text text-anchor="middle" x="453" y="-14.3" font-family="Times,serif" font-size="14.00">(...)</text>
</g>
<!-- 44&#45;&gt;54 -->
<g id="edge8" class="edge">
<title>44&#45;&gt;54</title>
<path fill="none" stroke="black" d="M432.69,-71.76C436.04,-63.04 439.51,-54.04 442.61,-45.99"/>
<polygon fill="black" stroke="black" points="445.97,-46.99 446.3,-36.41 439.44,-44.48 445.97,-46.99"/>
</g>
<!-- 124 -->
<g id="node11" class="node">
<title>124</title>
<polygon fill="#fce5f2" stroke="black" points="870,-155 586,-155 586,-72 870,-72 870,-155"/>
<text text-anchor="middle" x="728" y="-139.8" font-family="Times,serif" font-size="14.00">graphDepth &lt;= 25.5</text>
<text text-anchor="middle" x="728" y="-124.8" font-family="Times,serif" font-size="14.00">gini = 0.729</text>
<text text-anchor="middle" x="728" y="-109.8" font-family="Times,serif" font-size="14.00">samples = 2508</text>
<text text-anchor="middle" x="728" y="-94.8" font-family="Times,serif" font-size="14.00">value = [672, 108, 72, 120, 622, 914]</text>
<text text-anchor="middle" x="728" y="-79.8" font-family="Times,serif" font-size="14.00">class = GDL</text>
</g>
<!-- 123&#45;&gt;124 -->
<g id="edge10" class="edge">
<title>123&#45;&gt;124</title>
<path fill="none" stroke="black" d="M816.16,-190.91C805.27,-181.47 793.59,-171.34 782.4,-161.65"/>
<polygon fill="black" stroke="black" points="784.6,-158.93 774.75,-155.02 780.02,-164.22 784.6,-158.93"/>
</g>
<!-- 213 -->
<g id="node14" class="node">
<title>213</title>
<polygon fill="#f8c8e4" stroke="black" points="1172,-155 888,-155 888,-72 1172,-72 1172,-155"/>
<text text-anchor="middle" x="1030" y="-139.8" font-family="Times,serif" font-size="14.00">graphSize &lt;= 40.0</text>
<text text-anchor="middle" x="1030" y="-124.8" font-family="Times,serif" font-size="14.00">gini = 0.635</text>
<text text-anchor="middle" x="1030" y="-109.8" font-family="Times,serif" font-size="14.00">samples = 4984</text>
<text text-anchor="middle" x="1030" y="-94.8" font-family="Times,serif" font-size="14.00">value = [852, 48, 0, 120, 1498, 2466]</text>
<text text-anchor="middle" x="1030" y="-79.8" font-family="Times,serif" font-size="14.00">class = GDL</text>
</g>
<!-- 123&#45;&gt;213 -->
<g id="edge13" class="edge">
<title>123&#45;&gt;213</title>
<path fill="none" stroke="black" d="M920.94,-190.91C934.8,-181.2 949.7,-170.76 963.9,-160.81"/>
<polygon fill="black" stroke="black" points="965.98,-163.63 972.16,-155.02 961.96,-157.89 965.98,-163.63"/>
</g>
<!-- 125 -->
<g id="node12" class="node">
<title>125</title>
<polygon fill="#c0c0c0" stroke="black" points="719,-36 665,-36 665,0 719,0 719,-36"/>
<text text-anchor="middle" x="692" y="-14.3" font-family="Times,serif" font-size="14.00">(...)</text>
</g>
<!-- 124&#45;&gt;125 -->
<g id="edge11" class="edge">
<title>124&#45;&gt;125</title>
<path fill="none" stroke="black" d="M712.31,-71.76C708.96,-63.04 705.49,-54.04 702.39,-45.99"/>
<polygon fill="black" stroke="black" points="705.56,-44.48 698.7,-36.41 699.03,-46.99 705.56,-44.48"/>
</g>
<!-- 206 -->
<g id="node13" class="node">
<title>206</title>
<polygon fill="#c0c0c0" stroke="black" points="791,-36 737,-36 737,0 791,0 791,-36"/>
<text text-anchor="middle" x="764" y="-14.3" font-family="Times,serif" font-size="14.00">(...)</text>
</g>
<!-- 124&#45;&gt;206 -->
<g id="edge12" class="edge">
<title>124&#45;&gt;206</title>
<path fill="none" stroke="black" d="M743.69,-71.76C747.04,-63.04 750.51,-54.04 753.61,-45.99"/>
<polygon fill="black" stroke="black" points="756.97,-46.99 757.3,-36.41 750.44,-44.48 756.97,-46.99"/>
</g>
<!-- 214 -->
<g id="node15" class="node">
<title>214</title>
<polygon fill="#c0c0c0" stroke="black" points="1021,-36 967,-36 967,0 1021,0 1021,-36"/>
<text text-anchor="middle" x="994" y="-14.3" font-family="Times,serif" font-size="14.00">(...)</text>
</g>
<!-- 213&#45;&gt;214 -->
<g id="edge14" class="edge">
<title>213&#45;&gt;214</title>
<path fill="none" stroke="black" d="M1014.31,-71.76C1010.96,-63.04 1007.49,-54.04 1004.39,-45.99"/>
<polygon fill="black" stroke="black" points="1007.56,-44.48 1000.7,-36.41 1001.03,-46.99 1007.56,-44.48"/>
</g>
<!-- 297 -->
<g id="node16" class="node">
<title>297</title>
<polygon fill="#c0c0c0" stroke="black" points="1093,-36 1039,-36 1039,0 1093,0 1093,-36"/>
<text text-anchor="middle" x="1066" y="-14.3" font-family="Times,serif" font-size="14.00">(...)</text>
</g>
<!-- 213&#45;&gt;297 -->
<g id="edge15" class="edge">
<title>213&#45;&gt;297</title>
<path fill="none" stroke="black" d="M1045.69,-71.76C1049.04,-63.04 1052.51,-54.04 1055.61,-45.99"/>
<polygon fill="black" stroke="black" points="1058.97,-46.99 1059.3,-36.41 1052.44,-44.48 1058.97,-46.99"/>
</g>
<!-- 333 -->
<g id="node18" class="node">
<title>333</title>
<polygon fill="#d0f9e1" stroke="black" points="1614,-274 1312,-274 1312,-191 1614,-191 1614,-274"/>
<text text-anchor="middle" x="1463" y="-258.8" font-family="Times,serif" font-size="14.00">sdComm &lt;= 2.0</text>
<text text-anchor="middle" x="1463" y="-243.8" font-family="Times,serif" font-size="14.00">gini = 0.747</text>
<text text-anchor="middle" x="1463" y="-228.8" font-family="Times,serif" font-size="14.00">samples = 2640</text>
<text text-anchor="middle" x="1463" y="-213.8" font-family="Times,serif" font-size="14.00">value = [264, 264, 1080, 600, 264, 168]</text>
<text text-anchor="middle" x="1463" y="-198.8" font-family="Times,serif" font-size="14.00">class = OLB</text>
</g>
<!-- 332&#45;&gt;333 -->
<g id="edge17" class="edge">
<title>332&#45;&gt;333</title>
<path fill="none" stroke="black" d="M1463,-309.91C1463,-301.65 1463,-292.86 1463,-284.3"/>
<polygon fill="black" stroke="black" points="1466.5,-284.02 1463,-274.02 1459.5,-284.02 1466.5,-284.02"/>
</g>
<!-- 398 -->
<g id="node25" class="node">
<title>398</title>
<polygon fill="#eefdf4" stroke="black" points="2092,-274 1772,-274 1772,-191 2092,-191 2092,-274"/>
<text text-anchor="middle" x="1932" y="-258.8" font-family="Times,serif" font-size="14.00">sdComm &lt;= 6.5</text>
<text text-anchor="middle" x="1932" y="-243.8" font-family="Times,serif" font-size="14.00">gini = 0.796</text>
<text text-anchor="middle" x="1932" y="-228.8" font-family="Times,serif" font-size="14.00">samples = 5550</text>
<text text-anchor="middle" x="1932" y="-213.8" font-family="Times,serif" font-size="14.00">value = [1200, 564, 1584, 228, 1056, 918]</text>
<text text-anchor="middle" x="1932" y="-198.8" font-family="Times,serif" font-size="14.00">class = OLB</text>
</g>
<!-- 332&#45;&gt;398 -->
<g id="edge24" class="edge">
<title>332&#45;&gt;398</title>
<path fill="none" stroke="black" d="M1625.39,-309.99C1669.53,-298.98 1717.44,-287.03 1761.99,-275.91"/>
<polygon fill="black" stroke="black" points="1762.88,-279.3 1771.73,-273.48 1761.18,-272.51 1762.88,-279.3"/>
</g>
<!-- 334 -->
<g id="node19" class="node">
<title>334</title>
<polygon fill="#a5f3c5" stroke="black" points="1456,-155 1190,-155 1190,-72 1456,-72 1456,-155"/>
<text text-anchor="middle" x="1323" y="-139.8" font-family="Times,serif" font-size="14.00">graphDepth &lt;= 25.5</text>
<text text-anchor="middle" x="1323" y="-124.8" font-family="Times,serif" font-size="14.00">gini = 0.655</text>
<text text-anchor="middle" x="1323" y="-109.8" font-family="Times,serif" font-size="14.00">samples = 932</text>
<text text-anchor="middle" x="1323" y="-94.8" font-family="Times,serif" font-size="14.00">value = [120, 24, 504, 144, 80, 60]</text>
<text text-anchor="middle" x="1323" y="-79.8" font-family="Times,serif" font-size="14.00">class = OLB</text>
</g>
<!-- 333&#45;&gt;334 -->
<g id="edge18" class="edge">
<title>333&#45;&gt;334</title>
<path fill="none" stroke="black" d="M1414.43,-190.91C1403.13,-181.47 1391.02,-171.34 1379.42,-161.65"/>
<polygon fill="black" stroke="black" points="1381.4,-158.75 1371.49,-155.02 1376.92,-164.12 1381.4,-158.75"/>
</g>
<!-- 357 -->
<g id="node22" class="node">
<title>357</title>
<polygon fill="#ecfdf3" stroke="black" points="1767.5,-155 1474.5,-155 1474.5,-72 1767.5,-72 1767.5,-155"/>
<text text-anchor="middle" x="1621" y="-139.8" font-family="Times,serif" font-size="14.00">graphSize &lt;= 22.5</text>
<text text-anchor="middle" x="1621" y="-124.8" font-family="Times,serif" font-size="14.00">gini = 0.773</text>
<text text-anchor="middle" x="1621" y="-109.8" font-family="Times,serif" font-size="14.00">samples = 1708</text>
<text text-anchor="middle" x="1621" y="-94.8" font-family="Times,serif" font-size="14.00">value = [144, 240, 576, 456, 184, 108]</text>
<text text-anchor="middle" x="1621" y="-79.8" font-family="Times,serif" font-size="14.00">class = OLB</text>
</g>
<!-- 333&#45;&gt;357 -->
<g id="edge21" class="edge">
<title>333&#45;&gt;357</title>
<path fill="none" stroke="black" d="M1517.82,-190.91C1530.81,-181.29 1544.76,-170.95 1558.08,-161.09"/>
<polygon fill="black" stroke="black" points="1560.33,-163.78 1566.28,-155.02 1556.16,-158.16 1560.33,-163.78"/>
</g>
<!-- 335 -->
<g id="node20" class="node">
<title>335</title>
<polygon fill="#c0c0c0" stroke="black" points="1314,-36 1260,-36 1260,0 1314,0 1314,-36"/>
<text text-anchor="middle" x="1287" y="-14.3" font-family="Times,serif" font-size="14.00">(...)</text>
</g>
<!-- 334&#45;&gt;335 -->
<g id="edge19" class="edge">
<title>334&#45;&gt;335</title>
<path fill="none" stroke="black" d="M1307.31,-71.76C1303.96,-63.04 1300.49,-54.04 1297.39,-45.99"/>
<polygon fill="black" stroke="black" points="1300.56,-44.48 1293.7,-36.41 1294.03,-46.99 1300.56,-44.48"/>
</g>
<!-- 356 -->
<g id="node21" class="node">
<title>356</title>
<polygon fill="#c0c0c0" stroke="black" points="1386,-36 1332,-36 1332,0 1386,0 1386,-36"/>
<text text-anchor="middle" x="1359" y="-14.3" font-family="Times,serif" font-size="14.00">(...)</text>
</g>
<!-- 334&#45;&gt;356 -->
<g id="edge20" class="edge">
<title>334&#45;&gt;356</title>
<path fill="none" stroke="black" d="M1338.69,-71.76C1342.04,-63.04 1345.51,-54.04 1348.61,-45.99"/>
<polygon fill="black" stroke="black" points="1351.97,-46.99 1352.3,-36.41 1345.44,-44.48 1351.97,-46.99"/>
</g>
<!-- 358 -->
<g id="node23" class="node">
<title>358</title>
<polygon fill="#c0c0c0" stroke="black" points="1612,-36 1558,-36 1558,0 1612,0 1612,-36"/>
<text text-anchor="middle" x="1585" y="-14.3" font-family="Times,serif" font-size="14.00">(...)</text>
</g>
<!-- 357&#45;&gt;358 -->
<g id="edge22" class="edge">
<title>357&#45;&gt;358</title>
<path fill="none" stroke="black" d="M1605.31,-71.76C1601.96,-63.04 1598.49,-54.04 1595.39,-45.99"/>
<polygon fill="black" stroke="black" points="1598.56,-44.48 1591.7,-36.41 1592.03,-46.99 1598.56,-44.48"/>
</g>
<!-- 367 -->
<g id="node24" class="node">
<title>367</title>
<polygon fill="#c0c0c0" stroke="black" points="1684,-36 1630,-36 1630,0 1684,0 1684,-36"/>
<text text-anchor="middle" x="1657" y="-14.3" font-family="Times,serif" font-size="14.00">(...)</text>
</g>
<!-- 357&#45;&gt;367 -->
<g id="edge23" class="edge">
<title>357&#45;&gt;367</title>
<path fill="none" stroke="black" d="M1636.69,-71.76C1640.04,-63.04 1643.51,-54.04 1646.61,-45.99"/>
<polygon fill="black" stroke="black" points="1649.97,-46.99 1650.3,-36.41 1643.44,-44.48 1649.97,-46.99"/>
</g>
<!-- 399 -->
<g id="node26" class="node">
<title>399</title>
<polygon fill="#fdfffe" stroke="black" points="2078.5,-155 1785.5,-155 1785.5,-72 2078.5,-72 2078.5,-155"/>
<text text-anchor="middle" x="1932" y="-139.8" font-family="Times,serif" font-size="14.00">sdComp &lt;= 6.5</text>
<text text-anchor="middle" x="1932" y="-124.8" font-family="Times,serif" font-size="14.00">gini = 0.799</text>
<text text-anchor="middle" x="1932" y="-109.8" font-family="Times,serif" font-size="14.00">samples = 3966</text>
<text text-anchor="middle" x="1932" y="-94.8" font-family="Times,serif" font-size="14.00">value = [924, 384, 960, 144, 828, 726]</text>
<text text-anchor="middle" x="1932" y="-79.8" font-family="Times,serif" font-size="14.00">class = OLB</text>
</g>
<!-- 398&#45;&gt;399 -->
<g id="edge25" class="edge">
<title>398&#45;&gt;399</title>
<path fill="none" stroke="black" d="M1932,-190.91C1932,-182.65 1932,-173.86 1932,-165.3"/>
<polygon fill="black" stroke="black" points="1935.5,-165.02 1932,-155.02 1928.5,-165.02 1935.5,-165.02"/>
</g>
<!-- 484 -->
<g id="node29" class="node">
<title>484</title>
<polygon fill="#caf8dd" stroke="black" points="2381,-155 2097,-155 2097,-72 2381,-72 2381,-155"/>
<text text-anchor="middle" x="2239" y="-139.8" font-family="Times,serif" font-size="14.00">graphDepth &lt;= 13.5</text>
<text text-anchor="middle" x="2239" y="-124.8" font-family="Times,serif" font-size="14.00">gini = 0.763</text>
<text text-anchor="middle" x="2239" y="-109.8" font-family="Times,serif" font-size="14.00">samples = 1584</text>
<text text-anchor="middle" x="2239" y="-94.8" font-family="Times,serif" font-size="14.00">value = [276, 180, 624, 84, 228, 192]</text>
<text text-anchor="middle" x="2239" y="-79.8" font-family="Times,serif" font-size="14.00">class = OLB</text>
</g>
<!-- 398&#45;&gt;484 -->
<g id="edge28" class="edge">
<title>398&#45;&gt;484</title>
<path fill="none" stroke="black" d="M2038.51,-190.91C2065.9,-180.47 2095.49,-169.19 2123.31,-158.59"/>
<polygon fill="black" stroke="black" points="2124.58,-161.85 2132.68,-155.02 2122.09,-155.31 2124.58,-161.85"/>
</g>
<!-- 400 -->
<g id="node27" class="node">
<title>400</title>
<polygon fill="#c0c0c0" stroke="black" points="1923,-36 1869,-36 1869,0 1923,0 1923,-36"/>
<text text-anchor="middle" x="1896" y="-14.3" font-family="Times,serif" font-size="14.00">(...)</text>
</g>
<!-- 399&#45;&gt;400 -->
<g id="edge26" class="edge">
<title>399&#45;&gt;400</title>
<path fill="none" stroke="black" d="M1916.31,-71.76C1912.96,-63.04 1909.49,-54.04 1906.39,-45.99"/>
<polygon fill="black" stroke="black" points="1909.56,-44.48 1902.7,-36.41 1903.03,-46.99 1909.56,-44.48"/>
</g>
<!-- 449 -->
<g id="node28" class="node">
<title>449</title>
<polygon fill="#c0c0c0" stroke="black" points="1995,-36 1941,-36 1941,0 1995,0 1995,-36"/>
<text text-anchor="middle" x="1968" y="-14.3" font-family="Times,serif" font-size="14.00">(...)</text>
</g>
<!-- 399&#45;&gt;449 -->
<g id="edge27" class="edge">
<title>399&#45;&gt;449</title>
<path fill="none" stroke="black" d="M1947.69,-71.76C1951.04,-63.04 1954.51,-54.04 1957.61,-45.99"/>
<polygon fill="black" stroke="black" points="1960.97,-46.99 1961.3,-36.41 1954.44,-44.48 1960.97,-46.99"/>
</g>
<!-- 485 -->
<g id="node30" class="node">
<title>485</title>
<polygon fill="#c0c0c0" stroke="black" points="2230,-36 2176,-36 2176,0 2230,0 2230,-36"/>
<text text-anchor="middle" x="2203" y="-14.3" font-family="Times,serif" font-size="14.00">(...)</text>
</g>
<!-- 484&#45;&gt;485 -->
<g id="edge29" class="edge">
<title>484&#45;&gt;485</title>
<path fill="none" stroke="black" d="M2223.31,-71.76C2219.96,-63.04 2216.49,-54.04 2213.39,-45.99"/>
<polygon fill="black" stroke="black" points="2216.56,-44.48 2209.7,-36.41 2210.03,-46.99 2216.56,-44.48"/>
</g>
<!-- 508 -->
<g id="node31" class="node">
<title>508</title>
<polygon fill="#c0c0c0" stroke="black" points="2302,-36 2248,-36 2248,0 2302,0 2302,-36"/>
<text text-anchor="middle" x="2275" y="-14.3" font-family="Times,serif" font-size="14.00">(...)</text>
</g>
<!-- 484&#45;&gt;508 -->
<g id="edge30" class="edge">
<title>484&#45;&gt;508</title>
<path fill="none" stroke="black" d="M2254.69,-71.76C2258.04,-63.04 2261.51,-54.04 2264.61,-45.99"/>
<polygon fill="black" stroke="black" points="2267.97,-46.99 2268.3,-36.41 2261.44,-44.48 2267.97,-46.99"/>
</g>
</g>
</svg>
