<?xml version="1.0" encoding="UTF-8" standalone="no"?>
<!DOCTYPE svg PUBLIC "-//W3C//DTD SVG 1.1//EN"
 "http://www.w3.org/Graphics/SVG/1.1/DTD/svg11.dtd">
<!-- Generated by graphviz version 2.43.0 (0)
 -->
<!-- Title: Tree Pages: 1 -->
<svg width="1376pt" height="520pt"
 viewBox="0.00 0.00 1376.00 520.00" xmlns="http://www.w3.org/2000/svg" xmlns:xlink="http://www.w3.org/1999/xlink">
<g id="graph0" class="graph" transform="scale(1 1) rotate(0) translate(4 516)">
<title>Tree</title>
<polygon fill="white" stroke="transparent" points="-4,4 -4,-516 1372,-516 1372,4 -4,4"/>
<!-- 0 -->
<g id="node1" class="node">
<title>0</title>
<polygon fill="#e0f0fb" stroke="black" points="756,-512 571,-512 571,-429 756,-429 756,-512"/>
<text text-anchor="middle" x="663.5" y="-496.8" font-family="Times,serif" font-size="14.00">sdComp &lt;= 0.65</text>
<text text-anchor="middle" x="663.5" y="-481.8" font-family="Times,serif" font-size="14.00">gini = 0.496</text>
<text text-anchor="middle" x="663.5" y="-466.8" font-family="Times,serif" font-size="14.00">samples = 24032</text>
<text text-anchor="middle" x="663.5" y="-451.8" font-family="Times,serif" font-size="14.00">value = [10994, 13038]</text>
<text text-anchor="middle" x="663.5" y="-436.8" font-family="Times,serif" font-size="14.00">class = True</text>
</g>
<!-- 1 -->
<g id="node2" class="node">
<title>1</title>
<polygon fill="#cae5f8" stroke="black" points="574,-393 407,-393 407,-310 574,-310 574,-393"/>
<text text-anchor="middle" x="490.5" y="-377.8" font-family="Times,serif" font-size="14.00">sdComp &lt;= 0.02</text>
<text text-anchor="middle" x="490.5" y="-362.8" font-family="Times,serif" font-size="14.00">gini = 0.488</text>
<text text-anchor="middle" x="490.5" y="-347.8" font-family="Times,serif" font-size="14.00">samples = 14344</text>
<text text-anchor="middle" x="490.5" y="-332.8" font-family="Times,serif" font-size="14.00">value = [6070, 8274]</text>
<text text-anchor="middle" x="490.5" y="-317.8" font-family="Times,serif" font-size="14.00">class = True</text>
</g>
<!-- 0&#45;&gt;1 -->
<g id="edge1" class="edge">
<title>0&#45;&gt;1</title>
<path fill="none" stroke="black" d="M603.48,-428.91C589.12,-419.2 573.69,-408.76 558.98,-398.81"/>
<polygon fill="black" stroke="black" points="560.66,-395.72 550.42,-393.02 556.74,-401.52 560.66,-395.72"/>
<text text-anchor="middle" x="555.16" y="-413.87" font-family="Times,serif" font-size="14.00">True</text>
</g>
<!-- 266 -->
<g id="node15" class="node">
<title>266</title>
<polygon fill="#fefbf9" stroke="black" points="923,-393 756,-393 756,-310 923,-310 923,-393"/>
<text text-anchor="middle" x="839.5" y="-377.8" font-family="Times,serif" font-size="14.00">graphDepth &lt;= 3.5</text>
<text text-anchor="middle" x="839.5" y="-362.8" font-family="Times,serif" font-size="14.00">gini = 0.5</text>
<text text-anchor="middle" x="839.5" y="-347.8" font-family="Times,serif" font-size="14.00">samples = 9688</text>
<text text-anchor="middle" x="839.5" y="-332.8" font-family="Times,serif" font-size="14.00">value = [4924, 4764]</text>
<text text-anchor="middle" x="839.5" y="-317.8" font-family="Times,serif" font-size="14.00">class = False</text>
</g>
<!-- 0&#45;&gt;266 -->
<g id="edge14" class="edge">
<title>0&#45;&gt;266</title>
<path fill="none" stroke="black" d="M724.56,-428.91C739.17,-419.2 754.87,-408.76 769.84,-398.81"/>
<polygon fill="black" stroke="black" points="772.16,-401.47 778.55,-393.02 768.28,-395.64 772.16,-401.47"/>
<text text-anchor="middle" x="773.61" y="-413.83" font-family="Times,serif" font-size="14.00">False</text>
</g>
<!-- 2 -->
<g id="node3" class="node">
<title>2</title>
<polygon fill="#9ecff2" stroke="black" points="309,-274 156,-274 156,-191 309,-191 309,-274"/>
<text text-anchor="middle" x="232.5" y="-258.8" font-family="Times,serif" font-size="14.00">graphSize &lt;= 75.0</text>
<text text-anchor="middle" x="232.5" y="-243.8" font-family="Times,serif" font-size="14.00">gini = 0.447</text>
<text text-anchor="middle" x="232.5" y="-228.8" font-family="Times,serif" font-size="14.00">samples = 1504</text>
<text text-anchor="middle" x="232.5" y="-213.8" font-family="Times,serif" font-size="14.00">value = [508, 996]</text>
<text text-anchor="middle" x="232.5" y="-198.8" font-family="Times,serif" font-size="14.00">class = True</text>
</g>
<!-- 1&#45;&gt;2 -->
<g id="edge2" class="edge">
<title>1&#45;&gt;2</title>
<path fill="none" stroke="black" d="M406.73,-312.51C378.46,-299.69 346.85,-285.36 318.41,-272.46"/>
<polygon fill="black" stroke="black" points="319.85,-269.27 309.3,-268.33 316.96,-275.64 319.85,-269.27"/>
</g>
<!-- 51 -->
<g id="node8" class="node">
<title>51</title>
<polygon fill="#d0e8f9" stroke="black" points="574,-274 407,-274 407,-191 574,-191 574,-274"/>
<text text-anchor="middle" x="490.5" y="-258.8" font-family="Times,serif" font-size="14.00">sdComm &lt;= 0.02</text>
<text text-anchor="middle" x="490.5" y="-243.8" font-family="Times,serif" font-size="14.00">gini = 0.491</text>
<text text-anchor="middle" x="490.5" y="-228.8" font-family="Times,serif" font-size="14.00">samples = 12840</text>
<text text-anchor="middle" x="490.5" y="-213.8" font-family="Times,serif" font-size="14.00">value = [5562, 7278]</text>
<text text-anchor="middle" x="490.5" y="-198.8" font-family="Times,serif" font-size="14.00">class = True</text>
</g>
<!-- 1&#45;&gt;51 -->
<g id="edge7" class="edge">
<title>1&#45;&gt;51</title>
<path fill="none" stroke="black" d="M490.5,-309.91C490.5,-301.65 490.5,-292.86 490.5,-284.3"/>
<polygon fill="black" stroke="black" points="494,-284.02 490.5,-274.02 487,-284.02 494,-284.02"/>
</g>
<!-- 3 -->
<g id="node4" class="node">
<title>3</title>
<polygon fill="#a0d0f3" stroke="black" points="153,-155 0,-155 0,-72 153,-72 153,-155"/>
<text text-anchor="middle" x="76.5" y="-139.8" font-family="Times,serif" font-size="14.00">graphSize &lt;= 22.5</text>
<text text-anchor="middle" x="76.5" y="-124.8" font-family="Times,serif" font-size="14.00">gini = 0.451</text>
<text text-anchor="middle" x="76.5" y="-109.8" font-family="Times,serif" font-size="14.00">samples = 1480</text>
<text text-anchor="middle" x="76.5" y="-94.8" font-family="Times,serif" font-size="14.00">value = [508, 972]</text>
<text text-anchor="middle" x="76.5" y="-79.8" font-family="Times,serif" font-size="14.00">class = True</text>
</g>
<!-- 2&#45;&gt;3 -->
<g id="edge3" class="edge">
<title>2&#45;&gt;3</title>
<path fill="none" stroke="black" d="M178.38,-190.91C165.55,-181.29 151.77,-170.95 138.62,-161.09"/>
<polygon fill="black" stroke="black" points="140.63,-158.22 130.53,-155.02 136.43,-163.82 140.63,-158.22"/>
</g>
<!-- 50 -->
<g id="node7" class="node">
<title>50</title>
<polygon fill="#399de5" stroke="black" points="293.5,-147.5 171.5,-147.5 171.5,-79.5 293.5,-79.5 293.5,-147.5"/>
<text text-anchor="middle" x="232.5" y="-132.3" font-family="Times,serif" font-size="14.00">gini = 0.0</text>
<text text-anchor="middle" x="232.5" y="-117.3" font-family="Times,serif" font-size="14.00">samples = 24</text>
<text text-anchor="middle" x="232.5" y="-102.3" font-family="Times,serif" font-size="14.00">value = [0, 24]</text>
<text text-anchor="middle" x="232.5" y="-87.3" font-family="Times,serif" font-size="14.00">class = True</text>
</g>
<!-- 2&#45;&gt;50 -->
<g id="edge6" class="edge">
<title>2&#45;&gt;50</title>
<path fill="none" stroke="black" d="M232.5,-190.91C232.5,-180.2 232.5,-168.62 232.5,-157.78"/>
<polygon fill="black" stroke="black" points="236,-157.67 232.5,-147.67 229,-157.67 236,-157.67"/>
</g>
<!-- 4 -->
<g id="node5" class="node">
<title>4</title>
<polygon fill="#c0c0c0" stroke="black" points="67.5,-36 13.5,-36 13.5,0 67.5,0 67.5,-36"/>
<text text-anchor="middle" x="40.5" y="-14.3" font-family="Times,serif" font-size="14.00">(...)</text>
</g>
<!-- 3&#45;&gt;4 -->
<g id="edge4" class="edge">
<title>3&#45;&gt;4</title>
<path fill="none" stroke="black" d="M60.81,-71.76C57.46,-63.04 53.99,-54.04 50.89,-45.99"/>
<polygon fill="black" stroke="black" points="54.06,-44.48 47.2,-36.41 47.53,-46.99 54.06,-44.48"/>
</g>
<!-- 25 -->
<g id="node6" class="node">
<title>25</title>
<polygon fill="#c0c0c0" stroke="black" points="139.5,-36 85.5,-36 85.5,0 139.5,0 139.5,-36"/>
<text text-anchor="middle" x="112.5" y="-14.3" font-family="Times,serif" font-size="14.00">(...)</text>
</g>
<!-- 3&#45;&gt;25 -->
<g id="edge5" class="edge">
<title>3&#45;&gt;25</title>
<path fill="none" stroke="black" d="M92.19,-71.76C95.54,-63.04 99.01,-54.04 102.11,-45.99"/>
<polygon fill="black" stroke="black" points="105.47,-46.99 105.8,-36.41 98.94,-44.48 105.47,-46.99"/>
</g>
<!-- 52 -->
<g id="node9" class="node">
<title>52</title>
<polygon fill="#ebf5fc" stroke="black" points="479,-155 312,-155 312,-72 479,-72 479,-155"/>
<text text-anchor="middle" x="395.5" y="-139.8" font-family="Times,serif" font-size="14.00">graphDepth &lt;= 13.5</text>
<text text-anchor="middle" x="395.5" y="-124.8" font-family="Times,serif" font-size="14.00">gini = 0.499</text>
<text text-anchor="middle" x="395.5" y="-109.8" font-family="Times,serif" font-size="14.00">samples = 3994</text>
<text text-anchor="middle" x="395.5" y="-94.8" font-family="Times,serif" font-size="14.00">value = [1890, 2104]</text>
<text text-anchor="middle" x="395.5" y="-79.8" font-family="Times,serif" font-size="14.00">class = True</text>
</g>
<!-- 51&#45;&gt;52 -->
<g id="edge8" class="edge">
<title>51&#45;&gt;52</title>
<path fill="none" stroke="black" d="M457.54,-190.91C450.25,-181.92 442.44,-172.32 434.92,-163.05"/>
<polygon fill="black" stroke="black" points="437.42,-160.58 428.4,-155.02 431.99,-164.99 437.42,-160.58"/>
</g>
<!-- 89 -->
<g id="node12" class="node">
<title>89</title>
<polygon fill="#c6e3f7" stroke="black" points="664,-155 497,-155 497,-72 664,-72 664,-155"/>
<text text-anchor="middle" x="580.5" y="-139.8" font-family="Times,serif" font-size="14.00">graphDepth &lt;= 13.5</text>
<text text-anchor="middle" x="580.5" y="-124.8" font-family="Times,serif" font-size="14.00">gini = 0.486</text>
<text text-anchor="middle" x="580.5" y="-109.8" font-family="Times,serif" font-size="14.00">samples = 8846</text>
<text text-anchor="middle" x="580.5" y="-94.8" font-family="Times,serif" font-size="14.00">value = [3672, 5174]</text>
<text text-anchor="middle" x="580.5" y="-79.8" font-family="Times,serif" font-size="14.00">class = True</text>
</g>
<!-- 51&#45;&gt;89 -->
<g id="edge11" class="edge">
<title>51&#45;&gt;89</title>
<path fill="none" stroke="black" d="M521.73,-190.91C528.64,-181.92 536.03,-172.32 543.15,-163.05"/>
<polygon fill="black" stroke="black" points="546.01,-165.08 549.33,-155.02 540.46,-160.81 546.01,-165.08"/>
</g>
<!-- 53 -->
<g id="node10" class="node">
<title>53</title>
<polygon fill="#c0c0c0" stroke="black" points="370.5,-36 316.5,-36 316.5,0 370.5,0 370.5,-36"/>
<text text-anchor="middle" x="343.5" y="-14.3" font-family="Times,serif" font-size="14.00">(...)</text>
</g>
<!-- 52&#45;&gt;53 -->
<g id="edge9" class="edge">
<title>52&#45;&gt;53</title>
<path fill="none" stroke="black" d="M372.84,-71.76C367.83,-62.75 362.65,-53.44 358.07,-45.19"/>
<polygon fill="black" stroke="black" points="361.1,-43.44 353.18,-36.41 354.98,-46.85 361.1,-43.44"/>
</g>
<!-- 80 -->
<g id="node11" class="node">
<title>80</title>
<polygon fill="#c0c0c0" stroke="black" points="442.5,-36 388.5,-36 388.5,0 442.5,0 442.5,-36"/>
<text text-anchor="middle" x="415.5" y="-14.3" font-family="Times,serif" font-size="14.00">(...)</text>
</g>
<!-- 52&#45;&gt;80 -->
<g id="edge10" class="edge">
<title>52&#45;&gt;80</title>
<path fill="none" stroke="black" d="M404.21,-71.76C406.06,-63.14 407.96,-54.24 409.67,-46.26"/>
<polygon fill="black" stroke="black" points="413.11,-46.92 411.78,-36.41 406.26,-45.45 413.11,-46.92"/>
</g>
<!-- 90 -->
<g id="node13" class="node">
<title>90</title>
<polygon fill="#c0c0c0" stroke="black" points="551.5,-36 497.5,-36 497.5,0 551.5,0 551.5,-36"/>
<text text-anchor="middle" x="524.5" y="-14.3" font-family="Times,serif" font-size="14.00">(...)</text>
</g>
<!-- 89&#45;&gt;90 -->
<g id="edge12" class="edge">
<title>89&#45;&gt;90</title>
<path fill="none" stroke="black" d="M556.1,-71.76C550.7,-62.75 545.13,-53.44 540.19,-45.19"/>
<polygon fill="black" stroke="black" points="543.07,-43.19 534.92,-36.41 537.06,-46.78 543.07,-43.19"/>
</g>
<!-- 233 -->
<g id="node14" class="node">
<title>233</title>
<polygon fill="#c0c0c0" stroke="black" points="623.5,-36 569.5,-36 569.5,0 623.5,0 623.5,-36"/>
<text text-anchor="middle" x="596.5" y="-14.3" font-family="Times,serif" font-size="14.00">(...)</text>
</g>
<!-- 89&#45;&gt;233 -->
<g id="edge13" class="edge">
<title>89&#45;&gt;233</title>
<path fill="none" stroke="black" d="M587.47,-71.76C588.93,-63.24 590.44,-54.44 591.79,-46.53"/>
<polygon fill="black" stroke="black" points="595.28,-46.85 593.52,-36.41 588.38,-45.67 595.28,-46.85"/>
</g>
<!-- 267 -->
<g id="node16" class="node">
<title>267</title>
<polygon fill="#d9ecfa" stroke="black" points="914,-274 765,-274 765,-191 914,-191 914,-274"/>
<text text-anchor="middle" x="839.5" y="-258.8" font-family="Times,serif" font-size="14.00">nbproc &lt;= 4.5</text>
<text text-anchor="middle" x="839.5" y="-243.8" font-family="Times,serif" font-size="14.00">gini = 0.494</text>
<text text-anchor="middle" x="839.5" y="-228.8" font-family="Times,serif" font-size="14.00">samples = 1236</text>
<text text-anchor="middle" x="839.5" y="-213.8" font-family="Times,serif" font-size="14.00">value = [552, 684]</text>
<text text-anchor="middle" x="839.5" y="-198.8" font-family="Times,serif" font-size="14.00">class = True</text>
</g>
<!-- 266&#45;&gt;267 -->
<g id="edge15" class="edge">
<title>266&#45;&gt;267</title>
<path fill="none" stroke="black" d="M839.5,-309.91C839.5,-301.65 839.5,-292.86 839.5,-284.3"/>
<polygon fill="black" stroke="black" points="843,-284.02 839.5,-274.02 836,-284.02 843,-284.02"/>
</g>
<!-- 300 -->
<g id="node23" class="node">
<title>300</title>
<polygon fill="#fdf7f2" stroke="black" points="1183,-274 1016,-274 1016,-191 1183,-191 1183,-274"/>
<text text-anchor="middle" x="1099.5" y="-258.8" font-family="Times,serif" font-size="14.00">sdComm &lt;= 0.2</text>
<text text-anchor="middle" x="1099.5" y="-243.8" font-family="Times,serif" font-size="14.00">gini = 0.499</text>
<text text-anchor="middle" x="1099.5" y="-228.8" font-family="Times,serif" font-size="14.00">samples = 8452</text>
<text text-anchor="middle" x="1099.5" y="-213.8" font-family="Times,serif" font-size="14.00">value = [4372, 4080]</text>
<text text-anchor="middle" x="1099.5" y="-198.8" font-family="Times,serif" font-size="14.00">class = False</text>
</g>
<!-- 266&#45;&gt;300 -->
<g id="edge22" class="edge">
<title>266&#45;&gt;300</title>
<path fill="none" stroke="black" d="M923.2,-312.84C949.87,-300.83 979.54,-287.48 1006.81,-275.21"/>
<polygon fill="black" stroke="black" points="1008.28,-278.39 1015.96,-271.09 1005.4,-272 1008.28,-278.39"/>
</g>
<!-- 268 -->
<g id="node17" class="node">
<title>268</title>
<polygon fill="#f5fafe" stroke="black" points="831,-155 682,-155 682,-72 831,-72 831,-155"/>
<text text-anchor="middle" x="756.5" y="-139.8" font-family="Times,serif" font-size="14.00">sdComp &lt;= 6.5</text>
<text text-anchor="middle" x="756.5" y="-124.8" font-family="Times,serif" font-size="14.00">gini = 0.5</text>
<text text-anchor="middle" x="756.5" y="-109.8" font-family="Times,serif" font-size="14.00">samples = 710</text>
<text text-anchor="middle" x="756.5" y="-94.8" font-family="Times,serif" font-size="14.00">value = [346, 364]</text>
<text text-anchor="middle" x="756.5" y="-79.8" font-family="Times,serif" font-size="14.00">class = True</text>
</g>
<!-- 267&#45;&gt;268 -->
<g id="edge16" class="edge">
<title>267&#45;&gt;268</title>
<path fill="none" stroke="black" d="M810.7,-190.91C804.39,-182.01 797.65,-172.51 791.14,-163.33"/>
<polygon fill="black" stroke="black" points="793.89,-161.15 785.25,-155.02 788.18,-165.2 793.89,-161.15"/>
</g>
<!-- 285 -->
<g id="node20" class="node">
<title>285</title>
<polygon fill="#b8dcf6" stroke="black" points="998,-155 849,-155 849,-72 998,-72 998,-155"/>
<text text-anchor="middle" x="923.5" y="-139.8" font-family="Times,serif" font-size="14.00">sdComm &lt;= 0.65</text>
<text text-anchor="middle" x="923.5" y="-124.8" font-family="Times,serif" font-size="14.00">gini = 0.477</text>
<text text-anchor="middle" x="923.5" y="-109.8" font-family="Times,serif" font-size="14.00">samples = 526</text>
<text text-anchor="middle" x="923.5" y="-94.8" font-family="Times,serif" font-size="14.00">value = [206, 320]</text>
<text text-anchor="middle" x="923.5" y="-79.8" font-family="Times,serif" font-size="14.00">class = True</text>
</g>
<!-- 267&#45;&gt;285 -->
<g id="edge19" class="edge">
<title>267&#45;&gt;285</title>
<path fill="none" stroke="black" d="M868.64,-190.91C875.03,-182.01 881.85,-172.51 888.44,-163.33"/>
<polygon fill="black" stroke="black" points="891.42,-165.19 894.41,-155.02 885.73,-161.1 891.42,-165.19"/>
</g>
<!-- 269 -->
<g id="node18" class="node">
<title>269</title>
<polygon fill="#c0c0c0" stroke="black" points="722.5,-36 668.5,-36 668.5,0 722.5,0 722.5,-36"/>
<text text-anchor="middle" x="695.5" y="-14.3" font-family="Times,serif" font-size="14.00">(...)</text>
</g>
<!-- 268&#45;&gt;269 -->
<g id="edge17" class="edge">
<title>268&#45;&gt;269</title>
<path fill="none" stroke="black" d="M729.92,-71.76C723.98,-62.65 717.84,-53.24 712.41,-44.92"/>
<polygon fill="black" stroke="black" points="715.25,-42.87 706.86,-36.41 709.39,-46.69 715.25,-42.87"/>
</g>
<!-- 284 -->
<g id="node19" class="node">
<title>284</title>
<polygon fill="#c0c0c0" stroke="black" points="794.5,-36 740.5,-36 740.5,0 794.5,0 794.5,-36"/>
<text text-anchor="middle" x="767.5" y="-14.3" font-family="Times,serif" font-size="14.00">(...)</text>
</g>
<!-- 268&#45;&gt;284 -->
<g id="edge18" class="edge">
<title>268&#45;&gt;284</title>
<path fill="none" stroke="black" d="M761.29,-71.76C762.3,-63.24 763.33,-54.44 764.26,-46.53"/>
<polygon fill="black" stroke="black" points="767.76,-46.75 765.45,-36.41 760.81,-45.93 767.76,-46.75"/>
</g>
<!-- 286 -->
<g id="node21" class="node">
<title>286</title>
<polygon fill="#c0c0c0" stroke="black" points="894.5,-36 840.5,-36 840.5,0 894.5,0 894.5,-36"/>
<text text-anchor="middle" x="867.5" y="-14.3" font-family="Times,serif" font-size="14.00">(...)</text>
</g>
<!-- 285&#45;&gt;286 -->
<g id="edge20" class="edge">
<title>285&#45;&gt;286</title>
<path fill="none" stroke="black" d="M899.1,-71.76C893.7,-62.75 888.13,-53.44 883.19,-45.19"/>
<polygon fill="black" stroke="black" points="886.07,-43.19 877.92,-36.41 880.06,-46.78 886.07,-43.19"/>
</g>
<!-- 289 -->
<g id="node22" class="node">
<title>289</title>
<polygon fill="#c0c0c0" stroke="black" points="966.5,-36 912.5,-36 912.5,0 966.5,0 966.5,-36"/>
<text text-anchor="middle" x="939.5" y="-14.3" font-family="Times,serif" font-size="14.00">(...)</text>
</g>
<!-- 285&#45;&gt;289 -->
<g id="edge21" class="edge">
<title>285&#45;&gt;289</title>
<path fill="none" stroke="black" d="M930.47,-71.76C931.93,-63.24 933.44,-54.44 934.79,-46.53"/>
<polygon fill="black" stroke="black" points="938.28,-46.85 936.52,-36.41 931.38,-45.67 938.28,-46.85"/>
</g>
<!-- 301 -->
<g id="node24" class="node">
<title>301</title>
<polygon fill="#f5d1b6" stroke="black" points="1183,-155 1016,-155 1016,-72 1183,-72 1183,-155"/>
<text text-anchor="middle" x="1099.5" y="-139.8" font-family="Times,serif" font-size="14.00">graphDepth &lt;= 25.5</text>
<text text-anchor="middle" x="1099.5" y="-124.8" font-family="Times,serif" font-size="14.00">gini = 0.475</text>
<text text-anchor="middle" x="1099.5" y="-109.8" font-family="Times,serif" font-size="14.00">samples = 196</text>
<text text-anchor="middle" x="1099.5" y="-94.8" font-family="Times,serif" font-size="14.00">value = [120, 76]</text>
<text text-anchor="middle" x="1099.5" y="-79.8" font-family="Times,serif" font-size="14.00">class = False</text>
</g>
<!-- 300&#45;&gt;301 -->
<g id="edge23" class="edge">
<title>300&#45;&gt;301</title>
<path fill="none" stroke="black" d="M1099.5,-190.91C1099.5,-182.65 1099.5,-173.86 1099.5,-165.3"/>
<polygon fill="black" stroke="black" points="1103,-165.02 1099.5,-155.02 1096,-165.02 1103,-165.02"/>
</g>
<!-- 318 -->
<g id="node27" class="node">
<title>318</title>
<polygon fill="#fdf8f3" stroke="black" points="1368,-155 1201,-155 1201,-72 1368,-72 1368,-155"/>
<text text-anchor="middle" x="1284.5" y="-139.8" font-family="Times,serif" font-size="14.00">graphDepth &lt;= 6.5</text>
<text text-anchor="middle" x="1284.5" y="-124.8" font-family="Times,serif" font-size="14.00">gini = 0.5</text>
<text text-anchor="middle" x="1284.5" y="-109.8" font-family="Times,serif" font-size="14.00">samples = 8256</text>
<text text-anchor="middle" x="1284.5" y="-94.8" font-family="Times,serif" font-size="14.00">value = [4252, 4004]</text>
<text text-anchor="middle" x="1284.5" y="-79.8" font-family="Times,serif" font-size="14.00">class = False</text>
</g>
<!-- 300&#45;&gt;318 -->
<g id="edge26" class="edge">
<title>300&#45;&gt;318</title>
<path fill="none" stroke="black" d="M1163.68,-190.91C1179.18,-181.11 1195.85,-170.56 1211.71,-160.53"/>
<polygon fill="black" stroke="black" points="1213.85,-163.32 1220.43,-155.02 1210.11,-157.41 1213.85,-163.32"/>
</g>
<!-- 302 -->
<g id="node25" class="node">
<title>302</title>
<polygon fill="#c0c0c0" stroke="black" points="1090.5,-36 1036.5,-36 1036.5,0 1090.5,0 1090.5,-36"/>
<text text-anchor="middle" x="1063.5" y="-14.3" font-family="Times,serif" font-size="14.00">(...)</text>
</g>
<!-- 301&#45;&gt;302 -->
<g id="edge24" class="edge">
<title>301&#45;&gt;302</title>
<path fill="none" stroke="black" d="M1083.81,-71.76C1080.46,-63.04 1076.99,-54.04 1073.89,-45.99"/>
<polygon fill="black" stroke="black" points="1077.06,-44.48 1070.2,-36.41 1070.53,-46.99 1077.06,-44.48"/>
</g>
<!-- 317 -->
<g id="node26" class="node">
<title>317</title>
<polygon fill="#c0c0c0" stroke="black" points="1162.5,-36 1108.5,-36 1108.5,0 1162.5,0 1162.5,-36"/>
<text text-anchor="middle" x="1135.5" y="-14.3" font-family="Times,serif" font-size="14.00">(...)</text>
</g>
<!-- 301&#45;&gt;317 -->
<g id="edge25" class="edge">
<title>301&#45;&gt;317</title>
<path fill="none" stroke="black" d="M1115.19,-71.76C1118.54,-63.04 1122.01,-54.04 1125.11,-45.99"/>
<polygon fill="black" stroke="black" points="1128.47,-46.99 1128.8,-36.41 1121.94,-44.48 1128.47,-46.99"/>
</g>
<!-- 319 -->
<g id="node28" class="node">
<title>319</title>
<polygon fill="#c0c0c0" stroke="black" points="1275.5,-36 1221.5,-36 1221.5,0 1275.5,0 1275.5,-36"/>
<text text-anchor="middle" x="1248.5" y="-14.3" font-family="Times,serif" font-size="14.00">(...)</text>
</g>
<!-- 318&#45;&gt;319 -->
<g id="edge27" class="edge">
<title>318&#45;&gt;319</title>
<path fill="none" stroke="black" d="M1268.81,-71.76C1265.46,-63.04 1261.99,-54.04 1258.89,-45.99"/>
<polygon fill="black" stroke="black" points="1262.06,-44.48 1255.2,-36.41 1255.53,-46.99 1262.06,-44.48"/>
</g>
<!-- 380 -->
<g id="node29" class="node">
<title>380</title>
<polygon fill="#c0c0c0" stroke="black" points="1347.5,-36 1293.5,-36 1293.5,0 1347.5,0 1347.5,-36"/>
<text text-anchor="middle" x="1320.5" y="-14.3" font-family="Times,serif" font-size="14.00">(...)</text>
</g>
<!-- 318&#45;&gt;380 -->
<g id="edge28" class="edge">
<title>318&#45;&gt;380</title>
<path fill="none" stroke="black" d="M1300.19,-71.76C1303.54,-63.04 1307.01,-54.04 1310.11,-45.99"/>
<polygon fill="black" stroke="black" points="1313.47,-46.99 1313.8,-36.41 1306.94,-44.48 1313.47,-46.99"/>
</g>
</g>
</svg>
