<?xml version="1.0" encoding="UTF-8" standalone="no"?>
<!DOCTYPE svg PUBLIC "-//W3C//DTD SVG 1.1//EN"
 "http://www.w3.org/Graphics/SVG/1.1/DTD/svg11.dtd">
<!-- Generated by graphviz version 2.43.0 (0)
 -->
<!-- Title: Tree Pages: 1 -->
<svg width="1366pt" height="520pt"
 viewBox="0.00 0.00 1366.00 520.00" xmlns="http://www.w3.org/2000/svg" xmlns:xlink="http://www.w3.org/1999/xlink">
<g id="graph0" class="graph" transform="scale(1 1) rotate(0) translate(4 516)">
<title>Tree</title>
<polygon fill="white" stroke="transparent" points="-4,4 -4,-516 1362,-516 1362,4 -4,4"/>
<!-- 0 -->
<g id="node1" class="node">
<title>0</title>
<polygon fill="#fefeff" stroke="black" points="742,-512 557,-512 557,-429 742,-429 742,-512"/>
<text text-anchor="middle" x="649.5" y="-496.8" font-family="Times,serif" font-size="14.00">graphDepth &lt;= 3.5</text>
<text text-anchor="middle" x="649.5" y="-481.8" font-family="Times,serif" font-size="14.00">gini = 0.5</text>
<text text-anchor="middle" x="649.5" y="-466.8" font-family="Times,serif" font-size="14.00">samples = 24032</text>
<text text-anchor="middle" x="649.5" y="-451.8" font-family="Times,serif" font-size="14.00">value = [11974, 12058]</text>
<text text-anchor="middle" x="649.5" y="-436.8" font-family="Times,serif" font-size="14.00">class = True</text>
</g>
<!-- 1 -->
<g id="node2" class="node">
<title>1</title>
<polygon fill="#f8fcfe" stroke="black" points="571,-393 404,-393 404,-310 571,-310 571,-393"/>
<text text-anchor="middle" x="487.5" y="-377.8" font-family="Times,serif" font-size="14.00">sdComp &lt;= 0.2</text>
<text text-anchor="middle" x="487.5" y="-362.8" font-family="Times,serif" font-size="14.00">gini = 0.5</text>
<text text-anchor="middle" x="487.5" y="-347.8" font-family="Times,serif" font-size="14.00">samples = 4054</text>
<text text-anchor="middle" x="487.5" y="-332.8" font-family="Times,serif" font-size="14.00">value = [1991, 2063]</text>
<text text-anchor="middle" x="487.5" y="-317.8" font-family="Times,serif" font-size="14.00">class = True</text>
</g>
<!-- 0&#45;&gt;1 -->
<g id="edge1" class="edge">
<title>0&#45;&gt;1</title>
<path fill="none" stroke="black" d="M593.29,-428.91C579.98,-419.29 565.67,-408.95 552.01,-399.09"/>
<polygon fill="black" stroke="black" points="553.76,-396.04 543.61,-393.02 549.66,-401.71 553.76,-396.04"/>
<text text-anchor="middle" x="547.59" y="-414" font-family="Times,serif" font-size="14.00">True</text>
</g>
<!-- 86 -->
<g id="node17" class="node">
<title>86</title>
<polygon fill="#ffffff" stroke="black" points="910,-393 743,-393 743,-310 910,-310 910,-393"/>
<text text-anchor="middle" x="826.5" y="-377.8" font-family="Times,serif" font-size="14.00">sdComm &lt;= 6.5</text>
<text text-anchor="middle" x="826.5" y="-362.8" font-family="Times,serif" font-size="14.00">gini = 0.5</text>
<text text-anchor="middle" x="826.5" y="-347.8" font-family="Times,serif" font-size="14.00">samples = 19978</text>
<text text-anchor="middle" x="826.5" y="-332.8" font-family="Times,serif" font-size="14.00">value = [9983, 9995]</text>
<text text-anchor="middle" x="826.5" y="-317.8" font-family="Times,serif" font-size="14.00">class = True</text>
</g>
<!-- 0&#45;&gt;86 -->
<g id="edge16" class="edge">
<title>0&#45;&gt;86</title>
<path fill="none" stroke="black" d="M710.91,-428.91C725.6,-419.2 741.39,-408.76 756.44,-398.81"/>
<polygon fill="black" stroke="black" points="758.79,-401.45 765.2,-393.02 754.93,-395.62 758.79,-401.45"/>
<text text-anchor="middle" x="760.2" y="-413.82" font-family="Times,serif" font-size="14.00">False</text>
</g>
<!-- 2 -->
<g id="node3" class="node">
<title>2</title>
<polygon fill="#fdfeff" stroke="black" points="325,-274 158,-274 158,-191 325,-191 325,-274"/>
<text text-anchor="middle" x="241.5" y="-258.8" font-family="Times,serif" font-size="14.00">sdComm &lt;= 0.065</text>
<text text-anchor="middle" x="241.5" y="-243.8" font-family="Times,serif" font-size="14.00">gini = 0.5</text>
<text text-anchor="middle" x="241.5" y="-228.8" font-family="Times,serif" font-size="14.00">samples = 2618</text>
<text text-anchor="middle" x="241.5" y="-213.8" font-family="Times,serif" font-size="14.00">value = [1303, 1315]</text>
<text text-anchor="middle" x="241.5" y="-198.8" font-family="Times,serif" font-size="14.00">class = True</text>
</g>
<!-- 1&#45;&gt;2 -->
<g id="edge2" class="edge">
<title>1&#45;&gt;2</title>
<path fill="none" stroke="black" d="M403.87,-310.73C381.59,-300.13 357.38,-288.62 334.63,-277.79"/>
<polygon fill="black" stroke="black" points="335.85,-274.5 325.31,-273.36 332.84,-280.82 335.85,-274.5"/>
</g>
<!-- 41 -->
<g id="node10" class="node">
<title>41</title>
<polygon fill="#eff7fd" stroke="black" points="562,-274 413,-274 413,-191 562,-191 562,-274"/>
<text text-anchor="middle" x="487.5" y="-258.8" font-family="Times,serif" font-size="14.00">sdComm &lt;= 0.65</text>
<text text-anchor="middle" x="487.5" y="-243.8" font-family="Times,serif" font-size="14.00">gini = 0.499</text>
<text text-anchor="middle" x="487.5" y="-228.8" font-family="Times,serif" font-size="14.00">samples = 1436</text>
<text text-anchor="middle" x="487.5" y="-213.8" font-family="Times,serif" font-size="14.00">value = [688, 748]</text>
<text text-anchor="middle" x="487.5" y="-198.8" font-family="Times,serif" font-size="14.00">class = True</text>
</g>
<!-- 1&#45;&gt;41 -->
<g id="edge9" class="edge">
<title>1&#45;&gt;41</title>
<path fill="none" stroke="black" d="M487.5,-309.91C487.5,-301.65 487.5,-292.86 487.5,-284.3"/>
<polygon fill="black" stroke="black" points="491,-284.02 487.5,-274.02 484,-284.02 491,-284.02"/>
</g>
<!-- 3 -->
<g id="node4" class="node">
<title>3</title>
<polygon fill="#ffffff" stroke="black" points="149,-155 0,-155 0,-72 149,-72 149,-155"/>
<text text-anchor="middle" x="74.5" y="-139.8" font-family="Times,serif" font-size="14.00">sdComp &lt;= 0.02</text>
<text text-anchor="middle" x="74.5" y="-124.8" font-family="Times,serif" font-size="14.00">gini = 0.5</text>
<text text-anchor="middle" x="74.5" y="-109.8" font-family="Times,serif" font-size="14.00">samples = 1788</text>
<text text-anchor="middle" x="74.5" y="-94.8" font-family="Times,serif" font-size="14.00">value = [894, 894]</text>
<text text-anchor="middle" x="74.5" y="-79.8" font-family="Times,serif" font-size="14.00">class = False</text>
</g>
<!-- 2&#45;&gt;3 -->
<g id="edge3" class="edge">
<title>2&#45;&gt;3</title>
<path fill="none" stroke="black" d="M183.56,-190.91C169.7,-181.2 154.8,-170.76 140.6,-160.81"/>
<polygon fill="black" stroke="black" points="142.54,-157.89 132.34,-155.02 138.52,-163.63 142.54,-157.89"/>
</g>
<!-- 20 -->
<g id="node7" class="node">
<title>20</title>
<polygon fill="#f9fcfe" stroke="black" points="316,-155 167,-155 167,-72 316,-72 316,-155"/>
<text text-anchor="middle" x="241.5" y="-139.8" font-family="Times,serif" font-size="14.00">nbproc &lt;= 4.5</text>
<text text-anchor="middle" x="241.5" y="-124.8" font-family="Times,serif" font-size="14.00">gini = 0.5</text>
<text text-anchor="middle" x="241.5" y="-109.8" font-family="Times,serif" font-size="14.00">samples = 830</text>
<text text-anchor="middle" x="241.5" y="-94.8" font-family="Times,serif" font-size="14.00">value = [409, 421]</text>
<text text-anchor="middle" x="241.5" y="-79.8" font-family="Times,serif" font-size="14.00">class = True</text>
</g>
<!-- 2&#45;&gt;20 -->
<g id="edge6" class="edge">
<title>2&#45;&gt;20</title>
<path fill="none" stroke="black" d="M241.5,-190.91C241.5,-182.65 241.5,-173.86 241.5,-165.3"/>
<polygon fill="black" stroke="black" points="245,-165.02 241.5,-155.02 238,-165.02 245,-165.02"/>
</g>
<!-- 4 -->
<g id="node5" class="node">
<title>4</title>
<polygon fill="#c0c0c0" stroke="black" points="65.5,-36 11.5,-36 11.5,0 65.5,0 65.5,-36"/>
<text text-anchor="middle" x="38.5" y="-14.3" font-family="Times,serif" font-size="14.00">(...)</text>
</g>
<!-- 3&#45;&gt;4 -->
<g id="edge4" class="edge">
<title>3&#45;&gt;4</title>
<path fill="none" stroke="black" d="M58.81,-71.76C55.46,-63.04 51.99,-54.04 48.89,-45.99"/>
<polygon fill="black" stroke="black" points="52.06,-44.48 45.2,-36.41 45.53,-46.99 52.06,-44.48"/>
</g>
<!-- 11 -->
<g id="node6" class="node">
<title>11</title>
<polygon fill="#c0c0c0" stroke="black" points="137.5,-36 83.5,-36 83.5,0 137.5,0 137.5,-36"/>
<text text-anchor="middle" x="110.5" y="-14.3" font-family="Times,serif" font-size="14.00">(...)</text>
</g>
<!-- 3&#45;&gt;11 -->
<g id="edge5" class="edge">
<title>3&#45;&gt;11</title>
<path fill="none" stroke="black" d="M90.19,-71.76C93.54,-63.04 97.01,-54.04 100.11,-45.99"/>
<polygon fill="black" stroke="black" points="103.47,-46.99 103.8,-36.41 96.94,-44.48 103.47,-46.99"/>
</g>
<!-- 21 -->
<g id="node8" class="node">
<title>21</title>
<polygon fill="#c0c0c0" stroke="black" points="232.5,-36 178.5,-36 178.5,0 232.5,0 232.5,-36"/>
<text text-anchor="middle" x="205.5" y="-14.3" font-family="Times,serif" font-size="14.00">(...)</text>
</g>
<!-- 20&#45;&gt;21 -->
<g id="edge7" class="edge">
<title>20&#45;&gt;21</title>
<path fill="none" stroke="black" d="M225.81,-71.76C222.46,-63.04 218.99,-54.04 215.89,-45.99"/>
<polygon fill="black" stroke="black" points="219.06,-44.48 212.2,-36.41 212.53,-46.99 219.06,-44.48"/>
</g>
<!-- 30 -->
<g id="node9" class="node">
<title>30</title>
<polygon fill="#c0c0c0" stroke="black" points="304.5,-36 250.5,-36 250.5,0 304.5,0 304.5,-36"/>
<text text-anchor="middle" x="277.5" y="-14.3" font-family="Times,serif" font-size="14.00">(...)</text>
</g>
<!-- 20&#45;&gt;30 -->
<g id="edge8" class="edge">
<title>20&#45;&gt;30</title>
<path fill="none" stroke="black" d="M257.19,-71.76C260.54,-63.04 264.01,-54.04 267.11,-45.99"/>
<polygon fill="black" stroke="black" points="270.47,-46.99 270.8,-36.41 263.94,-44.48 270.47,-46.99"/>
</g>
<!-- 42 -->
<g id="node11" class="node">
<title>42</title>
<polygon fill="#d9ecfa" stroke="black" points="483,-155 334,-155 334,-72 483,-72 483,-155"/>
<text text-anchor="middle" x="408.5" y="-139.8" font-family="Times,serif" font-size="14.00">sdComp &lt;= 0.65</text>
<text text-anchor="middle" x="408.5" y="-124.8" font-family="Times,serif" font-size="14.00">gini = 0.494</text>
<text text-anchor="middle" x="408.5" y="-109.8" font-family="Times,serif" font-size="14.00">samples = 562</text>
<text text-anchor="middle" x="408.5" y="-94.8" font-family="Times,serif" font-size="14.00">value = [251, 311]</text>
<text text-anchor="middle" x="408.5" y="-79.8" font-family="Times,serif" font-size="14.00">class = True</text>
</g>
<!-- 41&#45;&gt;42 -->
<g id="edge10" class="edge">
<title>41&#45;&gt;42</title>
<path fill="none" stroke="black" d="M460.09,-190.91C454.09,-182.01 447.67,-172.51 441.47,-163.33"/>
<polygon fill="black" stroke="black" points="444.36,-161.35 435.86,-155.02 438.56,-165.27 444.36,-161.35"/>
</g>
<!-- 57 -->
<g id="node14" class="node">
<title>57</title>
<polygon fill="#ffffff" stroke="black" points="650,-155 501,-155 501,-72 650,-72 650,-155"/>
<text text-anchor="middle" x="575.5" y="-139.8" font-family="Times,serif" font-size="14.00">sdComm &lt;= 2.0</text>
<text text-anchor="middle" x="575.5" y="-124.8" font-family="Times,serif" font-size="14.00">gini = 0.5</text>
<text text-anchor="middle" x="575.5" y="-109.8" font-family="Times,serif" font-size="14.00">samples = 874</text>
<text text-anchor="middle" x="575.5" y="-94.8" font-family="Times,serif" font-size="14.00">value = [437, 437]</text>
<text text-anchor="middle" x="575.5" y="-79.8" font-family="Times,serif" font-size="14.00">class = False</text>
</g>
<!-- 41&#45;&gt;57 -->
<g id="edge13" class="edge">
<title>41&#45;&gt;57</title>
<path fill="none" stroke="black" d="M518.03,-190.91C524.79,-181.92 532.02,-172.32 538.98,-163.05"/>
<polygon fill="black" stroke="black" points="541.81,-165.12 545.02,-155.02 536.21,-160.91 541.81,-165.12"/>
</g>
<!-- 43 -->
<g id="node12" class="node">
<title>43</title>
<polygon fill="#c0c0c0" stroke="black" points="404.5,-36 350.5,-36 350.5,0 404.5,0 404.5,-36"/>
<text text-anchor="middle" x="377.5" y="-14.3" font-family="Times,serif" font-size="14.00">(...)</text>
</g>
<!-- 42&#45;&gt;43 -->
<g id="edge11" class="edge">
<title>42&#45;&gt;43</title>
<path fill="none" stroke="black" d="M394.99,-71.76C392.1,-63.04 389.12,-54.04 386.45,-45.99"/>
<polygon fill="black" stroke="black" points="389.74,-44.8 383.27,-36.41 383.1,-47 389.74,-44.8"/>
</g>
<!-- 50 -->
<g id="node13" class="node">
<title>50</title>
<polygon fill="#c0c0c0" stroke="black" points="476.5,-36 422.5,-36 422.5,0 476.5,0 476.5,-36"/>
<text text-anchor="middle" x="449.5" y="-14.3" font-family="Times,serif" font-size="14.00">(...)</text>
</g>
<!-- 42&#45;&gt;50 -->
<g id="edge12" class="edge">
<title>42&#45;&gt;50</title>
<path fill="none" stroke="black" d="M426.36,-71.76C430.23,-62.94 434.22,-53.84 437.78,-45.72"/>
<polygon fill="black" stroke="black" points="441.06,-46.97 441.87,-36.41 434.65,-44.16 441.06,-46.97"/>
</g>
<!-- 58 -->
<g id="node15" class="node">
<title>58</title>
<polygon fill="#c0c0c0" stroke="black" points="562.5,-36 508.5,-36 508.5,0 562.5,0 562.5,-36"/>
<text text-anchor="middle" x="535.5" y="-14.3" font-family="Times,serif" font-size="14.00">(...)</text>
</g>
<!-- 57&#45;&gt;58 -->
<g id="edge14" class="edge">
<title>57&#45;&gt;58</title>
<path fill="none" stroke="black" d="M558.07,-71.76C554.3,-62.94 550.4,-53.84 546.93,-45.72"/>
<polygon fill="black" stroke="black" points="550.1,-44.22 542.95,-36.41 543.66,-46.98 550.1,-44.22"/>
</g>
<!-- 75 -->
<g id="node16" class="node">
<title>75</title>
<polygon fill="#c0c0c0" stroke="black" points="634.5,-36 580.5,-36 580.5,0 634.5,0 634.5,-36"/>
<text text-anchor="middle" x="607.5" y="-14.3" font-family="Times,serif" font-size="14.00">(...)</text>
</g>
<!-- 57&#45;&gt;75 -->
<g id="edge15" class="edge">
<title>57&#45;&gt;75</title>
<path fill="none" stroke="black" d="M589.44,-71.76C592.43,-63.04 595.51,-54.04 598.26,-45.99"/>
<polygon fill="black" stroke="black" points="601.62,-47 601.54,-36.41 594.99,-44.73 601.62,-47"/>
</g>
<!-- 87 -->
<g id="node18" class="node">
<title>87</title>
<polygon fill="#ffffff" stroke="black" points="910,-274 743,-274 743,-191 910,-191 910,-274"/>
<text text-anchor="middle" x="826.5" y="-258.8" font-family="Times,serif" font-size="14.00">sdComp &lt;= 0.02</text>
<text text-anchor="middle" x="826.5" y="-243.8" font-family="Times,serif" font-size="14.00">gini = 0.5</text>
<text text-anchor="middle" x="826.5" y="-228.8" font-family="Times,serif" font-size="14.00">samples = 17622</text>
<text text-anchor="middle" x="826.5" y="-213.8" font-family="Times,serif" font-size="14.00">value = [8811, 8811]</text>
<text text-anchor="middle" x="826.5" y="-198.8" font-family="Times,serif" font-size="14.00">class = False</text>
</g>
<!-- 86&#45;&gt;87 -->
<g id="edge17" class="edge">
<title>86&#45;&gt;87</title>
<path fill="none" stroke="black" d="M826.5,-309.91C826.5,-301.65 826.5,-292.86 826.5,-284.3"/>
<polygon fill="black" stroke="black" points="830,-284.02 826.5,-274.02 823,-284.02 830,-284.02"/>
</g>
<!-- 496 -->
<g id="node25" class="node">
<title>496</title>
<polygon fill="#fdfeff" stroke="black" points="1180,-274 1013,-274 1013,-191 1180,-191 1180,-274"/>
<text text-anchor="middle" x="1096.5" y="-258.8" font-family="Times,serif" font-size="14.00">graphDepth &lt;= 9.0</text>
<text text-anchor="middle" x="1096.5" y="-243.8" font-family="Times,serif" font-size="14.00">gini = 0.5</text>
<text text-anchor="middle" x="1096.5" y="-228.8" font-family="Times,serif" font-size="14.00">samples = 2356</text>
<text text-anchor="middle" x="1096.5" y="-213.8" font-family="Times,serif" font-size="14.00">value = [1172, 1184]</text>
<text text-anchor="middle" x="1096.5" y="-198.8" font-family="Times,serif" font-size="14.00">class = True</text>
</g>
<!-- 86&#45;&gt;496 -->
<g id="edge24" class="edge">
<title>86&#45;&gt;496</title>
<path fill="none" stroke="black" d="M910.08,-314.28C939.7,-301.45 973.19,-286.93 1003.54,-273.78"/>
<polygon fill="black" stroke="black" points="1005.07,-276.94 1012.85,-269.75 1002.28,-270.51 1005.07,-276.94"/>
</g>
<!-- 88 -->
<g id="node19" class="node">
<title>88</title>
<polygon fill="#ffffff" stroke="black" points="817,-155 668,-155 668,-72 817,-72 817,-155"/>
<text text-anchor="middle" x="742.5" y="-139.8" font-family="Times,serif" font-size="14.00">sdComm &lt;= 0.02</text>
<text text-anchor="middle" x="742.5" y="-124.8" font-family="Times,serif" font-size="14.00">gini = 0.5</text>
<text text-anchor="middle" x="742.5" y="-109.8" font-family="Times,serif" font-size="14.00">samples = 1406</text>
<text text-anchor="middle" x="742.5" y="-94.8" font-family="Times,serif" font-size="14.00">value = [703, 703]</text>
<text text-anchor="middle" x="742.5" y="-79.8" font-family="Times,serif" font-size="14.00">class = False</text>
</g>
<!-- 87&#45;&gt;88 -->
<g id="edge18" class="edge">
<title>87&#45;&gt;88</title>
<path fill="none" stroke="black" d="M797.36,-190.91C790.97,-182.01 784.15,-172.51 777.56,-163.33"/>
<polygon fill="black" stroke="black" points="780.27,-161.1 771.59,-155.02 774.58,-165.19 780.27,-161.1"/>
</g>
<!-- 135 -->
<g id="node22" class="node">
<title>135</title>
<polygon fill="#ffffff" stroke="black" points="1002,-155 835,-155 835,-72 1002,-72 1002,-155"/>
<text text-anchor="middle" x="918.5" y="-139.8" font-family="Times,serif" font-size="14.00">sdComm &lt;= 0.02</text>
<text text-anchor="middle" x="918.5" y="-124.8" font-family="Times,serif" font-size="14.00">gini = 0.5</text>
<text text-anchor="middle" x="918.5" y="-109.8" font-family="Times,serif" font-size="14.00">samples = 16216</text>
<text text-anchor="middle" x="918.5" y="-94.8" font-family="Times,serif" font-size="14.00">value = [8108, 8108]</text>
<text text-anchor="middle" x="918.5" y="-79.8" font-family="Times,serif" font-size="14.00">class = False</text>
</g>
<!-- 87&#45;&gt;135 -->
<g id="edge21" class="edge">
<title>87&#45;&gt;135</title>
<path fill="none" stroke="black" d="M858.42,-190.91C865.48,-181.92 873.04,-172.32 880.32,-163.05"/>
<polygon fill="black" stroke="black" points="883.21,-165.05 886.64,-155.02 877.7,-160.72 883.21,-165.05"/>
</g>
<!-- 89 -->
<g id="node20" class="node">
<title>89</title>
<polygon fill="#c0c0c0" stroke="black" points="713.5,-36 659.5,-36 659.5,0 713.5,0 713.5,-36"/>
<text text-anchor="middle" x="686.5" y="-14.3" font-family="Times,serif" font-size="14.00">(...)</text>
</g>
<!-- 88&#45;&gt;89 -->
<g id="edge19" class="edge">
<title>88&#45;&gt;89</title>
<path fill="none" stroke="black" d="M718.1,-71.76C712.7,-62.75 707.13,-53.44 702.19,-45.19"/>
<polygon fill="black" stroke="black" points="705.07,-43.19 696.92,-36.41 699.06,-46.78 705.07,-43.19"/>
</g>
<!-- 104 -->
<g id="node21" class="node">
<title>104</title>
<polygon fill="#c0c0c0" stroke="black" points="785.5,-36 731.5,-36 731.5,0 785.5,0 785.5,-36"/>
<text text-anchor="middle" x="758.5" y="-14.3" font-family="Times,serif" font-size="14.00">(...)</text>
</g>
<!-- 88&#45;&gt;104 -->
<g id="edge20" class="edge">
<title>88&#45;&gt;104</title>
<path fill="none" stroke="black" d="M749.47,-71.76C750.93,-63.24 752.44,-54.44 753.79,-46.53"/>
<polygon fill="black" stroke="black" points="757.28,-46.85 755.52,-36.41 750.38,-45.67 757.28,-46.85"/>
</g>
<!-- 136 -->
<g id="node23" class="node">
<title>136</title>
<polygon fill="#c0c0c0" stroke="black" points="890.5,-36 836.5,-36 836.5,0 890.5,0 890.5,-36"/>
<text text-anchor="middle" x="863.5" y="-14.3" font-family="Times,serif" font-size="14.00">(...)</text>
</g>
<!-- 135&#45;&gt;136 -->
<g id="edge22" class="edge">
<title>135&#45;&gt;136</title>
<path fill="none" stroke="black" d="M894.54,-71.76C889.24,-62.75 883.76,-53.44 878.91,-45.19"/>
<polygon fill="black" stroke="black" points="881.83,-43.25 873.74,-36.41 875.79,-46.8 881.83,-43.25"/>
</g>
<!-- 169 -->
<g id="node24" class="node">
<title>169</title>
<polygon fill="#c0c0c0" stroke="black" points="962.5,-36 908.5,-36 908.5,0 962.5,0 962.5,-36"/>
<text text-anchor="middle" x="935.5" y="-14.3" font-family="Times,serif" font-size="14.00">(...)</text>
</g>
<!-- 135&#45;&gt;169 -->
<g id="edge23" class="edge">
<title>135&#45;&gt;169</title>
<path fill="none" stroke="black" d="M925.91,-71.76C927.47,-63.14 929.09,-54.24 930.54,-46.26"/>
<polygon fill="black" stroke="black" points="933.99,-46.87 932.34,-36.41 927.1,-45.62 933.99,-46.87"/>
</g>
<!-- 497 -->
<g id="node26" class="node">
<title>497</title>
<polygon fill="#f9fcfe" stroke="black" points="1173,-155 1020,-155 1020,-72 1173,-72 1173,-155"/>
<text text-anchor="middle" x="1096.5" y="-139.8" font-family="Times,serif" font-size="14.00">graphSize &lt;= 40.0</text>
<text text-anchor="middle" x="1096.5" y="-124.8" font-family="Times,serif" font-size="14.00">gini = 0.5</text>
<text text-anchor="middle" x="1096.5" y="-109.8" font-family="Times,serif" font-size="14.00">samples = 828</text>
<text text-anchor="middle" x="1096.5" y="-94.8" font-family="Times,serif" font-size="14.00">value = [408, 420]</text>
<text text-anchor="middle" x="1096.5" y="-79.8" font-family="Times,serif" font-size="14.00">class = True</text>
</g>
<!-- 496&#45;&gt;497 -->
<g id="edge25" class="edge">
<title>496&#45;&gt;497</title>
<path fill="none" stroke="black" d="M1096.5,-190.91C1096.5,-182.65 1096.5,-173.86 1096.5,-165.3"/>
<polygon fill="black" stroke="black" points="1100,-165.02 1096.5,-155.02 1093,-165.02 1100,-165.02"/>
</g>
<!-- 516 -->
<g id="node29" class="node">
<title>516</title>
<polygon fill="#ffffff" stroke="black" points="1358,-155 1191,-155 1191,-72 1358,-72 1358,-155"/>
<text text-anchor="middle" x="1274.5" y="-139.8" font-family="Times,serif" font-size="14.00">graphDepth &lt;= 13.5</text>
<text text-anchor="middle" x="1274.5" y="-124.8" font-family="Times,serif" font-size="14.00">gini = 0.5</text>
<text text-anchor="middle" x="1274.5" y="-109.8" font-family="Times,serif" font-size="14.00">samples = 1528</text>
<text text-anchor="middle" x="1274.5" y="-94.8" font-family="Times,serif" font-size="14.00">value = [764, 764]</text>
<text text-anchor="middle" x="1274.5" y="-79.8" font-family="Times,serif" font-size="14.00">class = False</text>
</g>
<!-- 496&#45;&gt;516 -->
<g id="edge28" class="edge">
<title>496&#45;&gt;516</title>
<path fill="none" stroke="black" d="M1158.26,-190.91C1173.17,-181.11 1189.21,-170.56 1204.47,-160.53"/>
<polygon fill="black" stroke="black" points="1206.42,-163.44 1212.85,-155.02 1202.57,-157.59 1206.42,-163.44"/>
</g>
<!-- 498 -->
<g id="node27" class="node">
<title>498</title>
<polygon fill="#c0c0c0" stroke="black" points="1086.5,-36 1032.5,-36 1032.5,0 1086.5,0 1086.5,-36"/>
<text text-anchor="middle" x="1059.5" y="-14.3" font-family="Times,serif" font-size="14.00">(...)</text>
</g>
<!-- 497&#45;&gt;498 -->
<g id="edge26" class="edge">
<title>497&#45;&gt;498</title>
<path fill="none" stroke="black" d="M1080.38,-71.76C1076.89,-62.94 1073.29,-53.84 1070.08,-45.72"/>
<polygon fill="black" stroke="black" points="1073.32,-44.42 1066.39,-36.41 1066.81,-46.99 1073.32,-44.42"/>
</g>
<!-- 511 -->
<g id="node28" class="node">
<title>511</title>
<polygon fill="#c0c0c0" stroke="black" points="1158.5,-36 1104.5,-36 1104.5,0 1158.5,0 1158.5,-36"/>
<text text-anchor="middle" x="1131.5" y="-14.3" font-family="Times,serif" font-size="14.00">(...)</text>
</g>
<!-- 497&#45;&gt;511 -->
<g id="edge27" class="edge">
<title>497&#45;&gt;511</title>
<path fill="none" stroke="black" d="M1111.75,-71.76C1115.01,-63.04 1118.38,-54.04 1121.4,-45.99"/>
<polygon fill="black" stroke="black" points="1124.76,-47 1124.98,-36.41 1118.2,-44.54 1124.76,-47"/>
</g>
<!-- 517 -->
<g id="node30" class="node">
<title>517</title>
<polygon fill="#c0c0c0" stroke="black" points="1265.5,-36 1211.5,-36 1211.5,0 1265.5,0 1265.5,-36"/>
<text text-anchor="middle" x="1238.5" y="-14.3" font-family="Times,serif" font-size="14.00">(...)</text>
</g>
<!-- 516&#45;&gt;517 -->
<g id="edge29" class="edge">
<title>516&#45;&gt;517</title>
<path fill="none" stroke="black" d="M1258.81,-71.76C1255.46,-63.04 1251.99,-54.04 1248.89,-45.99"/>
<polygon fill="black" stroke="black" points="1252.06,-44.48 1245.2,-36.41 1245.53,-46.99 1252.06,-44.48"/>
</g>
<!-- 528 -->
<g id="node31" class="node">
<title>528</title>
<polygon fill="#c0c0c0" stroke="black" points="1337.5,-36 1283.5,-36 1283.5,0 1337.5,0 1337.5,-36"/>
<text text-anchor="middle" x="1310.5" y="-14.3" font-family="Times,serif" font-size="14.00">(...)</text>
</g>
<!-- 516&#45;&gt;528 -->
<g id="edge30" class="edge">
<title>516&#45;&gt;528</title>
<path fill="none" stroke="black" d="M1290.19,-71.76C1293.54,-63.04 1297.01,-54.04 1300.11,-45.99"/>
<polygon fill="black" stroke="black" points="1303.47,-46.99 1303.8,-36.41 1296.94,-44.48 1303.47,-46.99"/>
</g>
</g>
</svg>
