<?xml version="1.0" encoding="UTF-8" standalone="no"?>
<!DOCTYPE svg PUBLIC "-//W3C//DTD SVG 1.1//EN"
 "http://www.w3.org/Graphics/SVG/1.1/DTD/svg11.dtd">
<!-- Generated by graphviz version 2.43.0 (0)
 -->
<!-- Title: Tree Pages: 1 -->
<svg width="1631pt" height="520pt"
 viewBox="0.00 0.00 1630.50 520.00" xmlns="http://www.w3.org/2000/svg" xmlns:xlink="http://www.w3.org/1999/xlink">
<g id="graph0" class="graph" transform="scale(1 1) rotate(0) translate(4 516)">
<title>Tree</title>
<polygon fill="white" stroke="transparent" points="-4,4 -4,-516 1626.5,-516 1626.5,4 -4,4"/>
<!-- 0 -->
<g id="node1" class="node">
<title>0</title>
<polygon fill="#f9f6fe" stroke="black" points="916,-512 704,-512 704,-429 916,-429 916,-512"/>
<text text-anchor="middle" x="810" y="-496.8" font-family="Times,serif" font-size="14.00">CCR &lt;= 5.5</text>
<text text-anchor="middle" x="810" y="-481.8" font-family="Times,serif" font-size="14.00">gini = 0.649</text>
<text text-anchor="middle" x="810" y="-466.8" font-family="Times,serif" font-size="14.00">samples = 24032</text>
<text text-anchor="middle" x="810" y="-451.8" font-family="Times,serif" font-size="14.00">value = [5404, 8958, 9670]</text>
<text text-anchor="middle" x="810" y="-436.8" font-family="Times,serif" font-size="14.00">class = None</text>
</g>
<!-- 1 -->
<g id="node2" class="node">
<title>1</title>
<polygon fill="#bcf6d5" stroke="black" points="707,-393 495,-393 495,-310 707,-310 707,-393"/>
<text text-anchor="middle" x="601" y="-377.8" font-family="Times,serif" font-size="14.00">sdComp &lt;= 0.02</text>
<text text-anchor="middle" x="601" y="-362.8" font-family="Times,serif" font-size="14.00">gini = 0.588</text>
<text text-anchor="middle" x="601" y="-347.8" font-family="Times,serif" font-size="14.00">samples = 15842</text>
<text text-anchor="middle" x="601" y="-332.8" font-family="Times,serif" font-size="14.00">value = [4908, 8590, 2344]</text>
<text text-anchor="middle" x="601" y="-317.8" font-family="Times,serif" font-size="14.00">class = DCP</text>
</g>
<!-- 0&#45;&gt;1 -->
<g id="edge1" class="edge">
<title>0&#45;&gt;1</title>
<path fill="none" stroke="black" d="M737.49,-428.91C719.66,-418.92 700.45,-408.17 682.23,-397.98"/>
<polygon fill="black" stroke="black" points="683.82,-394.85 673.38,-393.02 680.4,-400.96 683.82,-394.85"/>
<text text-anchor="middle" x="680.17" y="-413.38" font-family="Times,serif" font-size="14.00">True</text>
</g>
<!-- 332 -->
<g id="node17" class="node">
<title>332</title>
<polygon fill="#8f4fe8" stroke="black" points="1115,-393 921,-393 921,-310 1115,-310 1115,-393"/>
<text text-anchor="middle" x="1018" y="-377.8" font-family="Times,serif" font-size="14.00">sdComp &lt;= 6.5</text>
<text text-anchor="middle" x="1018" y="-362.8" font-family="Times,serif" font-size="14.00">gini = 0.194</text>
<text text-anchor="middle" x="1018" y="-347.8" font-family="Times,serif" font-size="14.00">samples = 8190</text>
<text text-anchor="middle" x="1018" y="-332.8" font-family="Times,serif" font-size="14.00">value = [496, 368, 7326]</text>
<text text-anchor="middle" x="1018" y="-317.8" font-family="Times,serif" font-size="14.00">class = None</text>
</g>
<!-- 0&#45;&gt;332 -->
<g id="edge16" class="edge">
<title>0&#45;&gt;332</title>
<path fill="none" stroke="black" d="M882.16,-428.91C899.91,-418.92 919.03,-408.17 937.15,-397.98"/>
<polygon fill="black" stroke="black" points="938.96,-400.97 945.96,-393.02 935.53,-394.87 938.96,-400.97"/>
<text text-anchor="middle" x="939.22" y="-413.39" font-family="Times,serif" font-size="14.00">False</text>
</g>
<!-- 2 -->
<g id="node3" class="node">
<title>2</title>
<polygon fill="#c9f8dd" stroke="black" points="378.5,-274 193.5,-274 193.5,-191 378.5,-191 378.5,-274"/>
<text text-anchor="middle" x="286" y="-258.8" font-family="Times,serif" font-size="14.00">nbproc &lt;= 4.5</text>
<text text-anchor="middle" x="286" y="-243.8" font-family="Times,serif" font-size="14.00">gini = 0.575</text>
<text text-anchor="middle" x="286" y="-228.8" font-family="Times,serif" font-size="14.00">samples = 1504</text>
<text text-anchor="middle" x="286" y="-213.8" font-family="Times,serif" font-size="14.00">value = [162, 802, 540]</text>
<text text-anchor="middle" x="286" y="-198.8" font-family="Times,serif" font-size="14.00">class = DCP</text>
</g>
<!-- 1&#45;&gt;2 -->
<g id="edge2" class="edge">
<title>1&#45;&gt;2</title>
<path fill="none" stroke="black" d="M494.79,-311.05C460.35,-298.26 422.22,-284.1 388.08,-271.42"/>
<polygon fill="black" stroke="black" points="389.16,-268.08 378.57,-267.88 386.72,-274.64 389.16,-268.08"/>
</g>
<!-- 59 -->
<g id="node10" class="node">
<title>59</title>
<polygon fill="#c0f7d7" stroke="black" points="707,-274 495,-274 495,-191 707,-191 707,-274"/>
<text text-anchor="middle" x="601" y="-258.8" font-family="Times,serif" font-size="14.00">CCR &lt;= 0.55</text>
<text text-anchor="middle" x="601" y="-243.8" font-family="Times,serif" font-size="14.00">gini = 0.58</text>
<text text-anchor="middle" x="601" y="-228.8" font-family="Times,serif" font-size="14.00">samples = 14338</text>
<text text-anchor="middle" x="601" y="-213.8" font-family="Times,serif" font-size="14.00">value = [4746, 7788, 1804]</text>
<text text-anchor="middle" x="601" y="-198.8" font-family="Times,serif" font-size="14.00">class = DCP</text>
</g>
<!-- 1&#45;&gt;59 -->
<g id="edge9" class="edge">
<title>1&#45;&gt;59</title>
<path fill="none" stroke="black" d="M601,-309.91C601,-301.65 601,-292.86 601,-284.3"/>
<polygon fill="black" stroke="black" points="604.5,-284.02 601,-274.02 597.5,-284.02 604.5,-284.02"/>
</g>
<!-- 3 -->
<g id="node4" class="node">
<title>3</title>
<polygon fill="#b68cf0" stroke="black" points="176,-155 0,-155 0,-72 176,-72 176,-155"/>
<text text-anchor="middle" x="88" y="-139.8" font-family="Times,serif" font-size="14.00">sdComm &lt;= 0.02</text>
<text text-anchor="middle" x="88" y="-124.8" font-family="Times,serif" font-size="14.00">gini = 0.449</text>
<text text-anchor="middle" x="88" y="-109.8" font-family="Times,serif" font-size="14.00">samples = 468</text>
<text text-anchor="middle" x="88" y="-94.8" font-family="Times,serif" font-size="14.00">value = [20, 124, 324]</text>
<text text-anchor="middle" x="88" y="-79.8" font-family="Times,serif" font-size="14.00">class = None</text>
</g>
<!-- 2&#45;&gt;3 -->
<g id="edge3" class="edge">
<title>2&#45;&gt;3</title>
<path fill="none" stroke="black" d="M217.3,-190.91C200.56,-181.02 182.55,-170.37 165.43,-160.25"/>
<polygon fill="black" stroke="black" points="166.96,-157.09 156.57,-155.02 163.4,-163.12 166.96,-157.09"/>
</g>
<!-- 26 -->
<g id="node7" class="node">
<title>26</title>
<polygon fill="#8ff0b8" stroke="black" points="378.5,-155 193.5,-155 193.5,-72 378.5,-72 378.5,-155"/>
<text text-anchor="middle" x="286" y="-139.8" font-family="Times,serif" font-size="14.00">sdComm &lt;= 0.065</text>
<text text-anchor="middle" x="286" y="-124.8" font-family="Times,serif" font-size="14.00">gini = 0.509</text>
<text text-anchor="middle" x="286" y="-109.8" font-family="Times,serif" font-size="14.00">samples = 1036</text>
<text text-anchor="middle" x="286" y="-94.8" font-family="Times,serif" font-size="14.00">value = [142, 678, 216]</text>
<text text-anchor="middle" x="286" y="-79.8" font-family="Times,serif" font-size="14.00">class = DCP</text>
</g>
<!-- 2&#45;&gt;26 -->
<g id="edge6" class="edge">
<title>2&#45;&gt;26</title>
<path fill="none" stroke="black" d="M286,-190.91C286,-182.65 286,-173.86 286,-165.3"/>
<polygon fill="black" stroke="black" points="289.5,-165.02 286,-155.02 282.5,-165.02 289.5,-165.02"/>
</g>
<!-- 4 -->
<g id="node5" class="node">
<title>4</title>
<polygon fill="#c0c0c0" stroke="black" points="79,-36 25,-36 25,0 79,0 79,-36"/>
<text text-anchor="middle" x="52" y="-14.3" font-family="Times,serif" font-size="14.00">(...)</text>
</g>
<!-- 3&#45;&gt;4 -->
<g id="edge4" class="edge">
<title>3&#45;&gt;4</title>
<path fill="none" stroke="black" d="M72.31,-71.76C68.96,-63.04 65.49,-54.04 62.39,-45.99"/>
<polygon fill="black" stroke="black" points="65.56,-44.48 58.7,-36.41 59.03,-46.99 65.56,-44.48"/>
</g>
<!-- 11 -->
<g id="node6" class="node">
<title>11</title>
<polygon fill="#c0c0c0" stroke="black" points="151,-36 97,-36 97,0 151,0 151,-36"/>
<text text-anchor="middle" x="124" y="-14.3" font-family="Times,serif" font-size="14.00">(...)</text>
</g>
<!-- 3&#45;&gt;11 -->
<g id="edge5" class="edge">
<title>3&#45;&gt;11</title>
<path fill="none" stroke="black" d="M103.69,-71.76C107.04,-63.04 110.51,-54.04 113.61,-45.99"/>
<polygon fill="black" stroke="black" points="116.97,-46.99 117.3,-36.41 110.44,-44.48 116.97,-46.99"/>
</g>
<!-- 27 -->
<g id="node8" class="node">
<title>27</title>
<polygon fill="#c0c0c0" stroke="black" points="294,-36 240,-36 240,0 294,0 294,-36"/>
<text text-anchor="middle" x="267" y="-14.3" font-family="Times,serif" font-size="14.00">(...)</text>
</g>
<!-- 26&#45;&gt;27 -->
<g id="edge7" class="edge">
<title>26&#45;&gt;27</title>
<path fill="none" stroke="black" d="M277.72,-71.76C275.97,-63.14 274.16,-54.24 272.54,-46.26"/>
<polygon fill="black" stroke="black" points="275.96,-45.51 270.54,-36.41 269.1,-46.9 275.96,-45.51"/>
</g>
<!-- 50 -->
<g id="node9" class="node">
<title>50</title>
<polygon fill="#c0c0c0" stroke="black" points="366,-36 312,-36 312,0 366,0 366,-36"/>
<text text-anchor="middle" x="339" y="-14.3" font-family="Times,serif" font-size="14.00">(...)</text>
</g>
<!-- 26&#45;&gt;50 -->
<g id="edge8" class="edge">
<title>26&#45;&gt;50</title>
<path fill="none" stroke="black" d="M309.09,-71.76C314.2,-62.75 319.48,-53.44 324.15,-45.19"/>
<polygon fill="black" stroke="black" points="327.25,-46.83 329.13,-36.41 321.16,-43.38 327.25,-46.83"/>
</g>
<!-- 60 -->
<g id="node11" class="node">
<title>60</title>
<polygon fill="#ccf8de" stroke="black" points="599.5,-155 396.5,-155 396.5,-72 599.5,-72 599.5,-155"/>
<text text-anchor="middle" x="498" y="-139.8" font-family="Times,serif" font-size="14.00">sdComm &lt;= 0.065</text>
<text text-anchor="middle" x="498" y="-124.8" font-family="Times,serif" font-size="14.00">gini = 0.563</text>
<text text-anchor="middle" x="498" y="-109.8" font-family="Times,serif" font-size="14.00">samples = 10150</text>
<text text-anchor="middle" x="498" y="-94.8" font-family="Times,serif" font-size="14.00">value = [3804, 5450, 896]</text>
<text text-anchor="middle" x="498" y="-79.8" font-family="Times,serif" font-size="14.00">class = DCP</text>
</g>
<!-- 59&#45;&gt;60 -->
<g id="edge10" class="edge">
<title>59&#45;&gt;60</title>
<path fill="none" stroke="black" d="M565.26,-190.91C557.28,-181.83 548.73,-172.12 540.49,-162.77"/>
<polygon fill="black" stroke="black" points="542.91,-160.21 533.67,-155.02 537.65,-164.84 542.91,-160.21"/>
</g>
<!-- 175 -->
<g id="node14" class="node">
<title>175</title>
<polygon fill="#aaf4c9" stroke="black" points="811,-155 617,-155 617,-72 811,-72 811,-155"/>
<text text-anchor="middle" x="714" y="-139.8" font-family="Times,serif" font-size="14.00">sdComm &lt;= 0.65</text>
<text text-anchor="middle" x="714" y="-124.8" font-family="Times,serif" font-size="14.00">gini = 0.591</text>
<text text-anchor="middle" x="714" y="-109.8" font-family="Times,serif" font-size="14.00">samples = 4188</text>
<text text-anchor="middle" x="714" y="-94.8" font-family="Times,serif" font-size="14.00">value = [942, 2338, 908]</text>
<text text-anchor="middle" x="714" y="-79.8" font-family="Times,serif" font-size="14.00">class = DCP</text>
</g>
<!-- 59&#45;&gt;175 -->
<g id="edge13" class="edge">
<title>59&#45;&gt;175</title>
<path fill="none" stroke="black" d="M640.2,-190.91C649.06,-181.74 658.54,-171.93 667.65,-162.49"/>
<polygon fill="black" stroke="black" points="670.43,-164.65 674.86,-155.02 665.4,-159.78 670.43,-164.65"/>
</g>
<!-- 61 -->
<g id="node12" class="node">
<title>61</title>
<polygon fill="#c0c0c0" stroke="black" points="472,-36 418,-36 418,0 472,0 472,-36"/>
<text text-anchor="middle" x="445" y="-14.3" font-family="Times,serif" font-size="14.00">(...)</text>
</g>
<!-- 60&#45;&gt;61 -->
<g id="edge11" class="edge">
<title>60&#45;&gt;61</title>
<path fill="none" stroke="black" d="M474.91,-71.76C469.8,-62.75 464.52,-53.44 459.85,-45.19"/>
<polygon fill="black" stroke="black" points="462.84,-43.38 454.87,-36.41 456.75,-46.83 462.84,-43.38"/>
</g>
<!-- 142 -->
<g id="node13" class="node">
<title>142</title>
<polygon fill="#c0c0c0" stroke="black" points="544,-36 490,-36 490,0 544,0 544,-36"/>
<text text-anchor="middle" x="517" y="-14.3" font-family="Times,serif" font-size="14.00">(...)</text>
</g>
<!-- 60&#45;&gt;142 -->
<g id="edge12" class="edge">
<title>60&#45;&gt;142</title>
<path fill="none" stroke="black" d="M506.28,-71.76C508.03,-63.14 509.84,-54.24 511.46,-46.26"/>
<polygon fill="black" stroke="black" points="514.9,-46.9 513.46,-36.41 508.04,-45.51 514.9,-46.9"/>
</g>
<!-- 176 -->
<g id="node15" class="node">
<title>176</title>
<polygon fill="#c0c0c0" stroke="black" points="700,-36 646,-36 646,0 700,0 700,-36"/>
<text text-anchor="middle" x="673" y="-14.3" font-family="Times,serif" font-size="14.00">(...)</text>
</g>
<!-- 175&#45;&gt;176 -->
<g id="edge14" class="edge">
<title>175&#45;&gt;176</title>
<path fill="none" stroke="black" d="M696.14,-71.76C692.27,-62.94 688.28,-53.84 684.72,-45.72"/>
<polygon fill="black" stroke="black" points="687.85,-44.16 680.63,-36.41 681.44,-46.97 687.85,-44.16"/>
</g>
<!-- 285 -->
<g id="node16" class="node">
<title>285</title>
<polygon fill="#c0c0c0" stroke="black" points="772,-36 718,-36 718,0 772,0 772,-36"/>
<text text-anchor="middle" x="745" y="-14.3" font-family="Times,serif" font-size="14.00">(...)</text>
</g>
<!-- 175&#45;&gt;285 -->
<g id="edge15" class="edge">
<title>175&#45;&gt;285</title>
<path fill="none" stroke="black" d="M727.51,-71.76C730.4,-63.04 733.38,-54.04 736.05,-45.99"/>
<polygon fill="black" stroke="black" points="739.4,-47 739.23,-36.41 732.76,-44.8 739.4,-47"/>
</g>
<!-- 333 -->
<g id="node18" class="node">
<title>333</title>
<polygon fill="#8a47e7" stroke="black" points="1115,-274 921,-274 921,-191 1115,-191 1115,-274"/>
<text text-anchor="middle" x="1018" y="-258.8" font-family="Times,serif" font-size="14.00">sdComm &lt;= 2.0</text>
<text text-anchor="middle" x="1018" y="-243.8" font-family="Times,serif" font-size="14.00">gini = 0.127</text>
<text text-anchor="middle" x="1018" y="-228.8" font-family="Times,serif" font-size="14.00">samples = 5582</text>
<text text-anchor="middle" x="1018" y="-213.8" font-family="Times,serif" font-size="14.00">value = [214, 160, 5208]</text>
<text text-anchor="middle" x="1018" y="-198.8" font-family="Times,serif" font-size="14.00">class = None</text>
</g>
<!-- 332&#45;&gt;333 -->
<g id="edge17" class="edge">
<title>332&#45;&gt;333</title>
<path fill="none" stroke="black" d="M1018,-309.91C1018,-301.65 1018,-292.86 1018,-284.3"/>
<polygon fill="black" stroke="black" points="1021.5,-284.02 1018,-274.02 1014.5,-284.02 1021.5,-284.02"/>
</g>
<!-- 388 -->
<g id="node25" class="node">
<title>388</title>
<polygon fill="#9c63ea" stroke="black" points="1424,-274 1230,-274 1230,-191 1424,-191 1424,-274"/>
<text text-anchor="middle" x="1327" y="-258.8" font-family="Times,serif" font-size="14.00">graphSize &lt;= 22.5</text>
<text text-anchor="middle" x="1327" y="-243.8" font-family="Times,serif" font-size="14.00">gini = 0.322</text>
<text text-anchor="middle" x="1327" y="-228.8" font-family="Times,serif" font-size="14.00">samples = 2608</text>
<text text-anchor="middle" x="1327" y="-213.8" font-family="Times,serif" font-size="14.00">value = [282, 208, 2118]</text>
<text text-anchor="middle" x="1327" y="-198.8" font-family="Times,serif" font-size="14.00">class = None</text>
</g>
<!-- 332&#45;&gt;388 -->
<g id="edge24" class="edge">
<title>332&#45;&gt;388</title>
<path fill="none" stroke="black" d="M1115.35,-313.64C1148.74,-301 1186.27,-286.78 1220.36,-273.88"/>
<polygon fill="black" stroke="black" points="1221.77,-277.09 1229.88,-270.27 1219.29,-270.54 1221.77,-277.09"/>
</g>
<!-- 334 -->
<g id="node19" class="node">
<title>334</title>
<polygon fill="#8f4fe8" stroke="black" points="1013.5,-155 828.5,-155 828.5,-72 1013.5,-72 1013.5,-155"/>
<text text-anchor="middle" x="921" y="-139.8" font-family="Times,serif" font-size="14.00">graphDepth &lt;= 9.0</text>
<text text-anchor="middle" x="921" y="-124.8" font-family="Times,serif" font-size="14.00">gini = 0.194</text>
<text text-anchor="middle" x="921" y="-109.8" font-family="Times,serif" font-size="14.00">samples = 1726</text>
<text text-anchor="middle" x="921" y="-94.8" font-family="Times,serif" font-size="14.00">value = [70, 112, 1544]</text>
<text text-anchor="middle" x="921" y="-79.8" font-family="Times,serif" font-size="14.00">class = None</text>
</g>
<!-- 333&#45;&gt;334 -->
<g id="edge18" class="edge">
<title>333&#45;&gt;334</title>
<path fill="none" stroke="black" d="M984.35,-190.91C976.82,-181.83 968.77,-172.12 961.02,-162.77"/>
<polygon fill="black" stroke="black" points="963.67,-160.49 954.59,-155.02 958.28,-164.95 963.67,-160.49"/>
</g>
<!-- 363 -->
<g id="node22" class="node">
<title>363</title>
<polygon fill="#8843e6" stroke="black" points="1216.5,-155 1031.5,-155 1031.5,-72 1216.5,-72 1216.5,-155"/>
<text text-anchor="middle" x="1124" y="-139.8" font-family="Times,serif" font-size="14.00">graphSize &lt;= 75.0</text>
<text text-anchor="middle" x="1124" y="-124.8" font-family="Times,serif" font-size="14.00">gini = 0.096</text>
<text text-anchor="middle" x="1124" y="-109.8" font-family="Times,serif" font-size="14.00">samples = 3856</text>
<text text-anchor="middle" x="1124" y="-94.8" font-family="Times,serif" font-size="14.00">value = [144, 48, 3664]</text>
<text text-anchor="middle" x="1124" y="-79.8" font-family="Times,serif" font-size="14.00">class = None</text>
</g>
<!-- 333&#45;&gt;363 -->
<g id="edge21" class="edge">
<title>333&#45;&gt;363</title>
<path fill="none" stroke="black" d="M1054.78,-190.91C1063.08,-181.74 1071.97,-171.93 1080.52,-162.49"/>
<polygon fill="black" stroke="black" points="1083.17,-164.78 1087.29,-155.02 1077.98,-160.08 1083.17,-164.78"/>
</g>
<!-- 335 -->
<g id="node20" class="node">
<title>335</title>
<polygon fill="#c0c0c0" stroke="black" points="905,-36 851,-36 851,0 905,0 905,-36"/>
<text text-anchor="middle" x="878" y="-14.3" font-family="Times,serif" font-size="14.00">(...)</text>
</g>
<!-- 334&#45;&gt;335 -->
<g id="edge19" class="edge">
<title>334&#45;&gt;335</title>
<path fill="none" stroke="black" d="M902.26,-71.76C898.21,-62.94 894.02,-53.84 890.29,-45.72"/>
<polygon fill="black" stroke="black" points="893.36,-44.03 886,-36.41 887,-46.95 893.36,-44.03"/>
</g>
<!-- 344 -->
<g id="node21" class="node">
<title>344</title>
<polygon fill="#c0c0c0" stroke="black" points="977,-36 923,-36 923,0 977,0 977,-36"/>
<text text-anchor="middle" x="950" y="-14.3" font-family="Times,serif" font-size="14.00">(...)</text>
</g>
<!-- 334&#45;&gt;344 -->
<g id="edge20" class="edge">
<title>334&#45;&gt;344</title>
<path fill="none" stroke="black" d="M933.64,-71.76C936.34,-63.04 939.13,-54.04 941.63,-45.99"/>
<polygon fill="black" stroke="black" points="944.98,-46.99 944.6,-36.41 938.3,-44.92 944.98,-46.99"/>
</g>
<!-- 364 -->
<g id="node23" class="node">
<title>364</title>
<polygon fill="#c0c0c0" stroke="black" points="1108,-36 1054,-36 1054,0 1108,0 1108,-36"/>
<text text-anchor="middle" x="1081" y="-14.3" font-family="Times,serif" font-size="14.00">(...)</text>
</g>
<!-- 363&#45;&gt;364 -->
<g id="edge22" class="edge">
<title>363&#45;&gt;364</title>
<path fill="none" stroke="black" d="M1105.26,-71.76C1101.21,-62.94 1097.02,-53.84 1093.29,-45.72"/>
<polygon fill="black" stroke="black" points="1096.36,-44.03 1089,-36.41 1090,-46.95 1096.36,-44.03"/>
</g>
<!-- 387 -->
<g id="node24" class="node">
<title>387</title>
<polygon fill="#c0c0c0" stroke="black" points="1180,-36 1126,-36 1126,0 1180,0 1180,-36"/>
<text text-anchor="middle" x="1153" y="-14.3" font-family="Times,serif" font-size="14.00">(...)</text>
</g>
<!-- 363&#45;&gt;387 -->
<g id="edge23" class="edge">
<title>363&#45;&gt;387</title>
<path fill="none" stroke="black" d="M1136.64,-71.76C1139.34,-63.04 1142.13,-54.04 1144.63,-45.99"/>
<polygon fill="black" stroke="black" points="1147.98,-46.99 1147.6,-36.41 1141.3,-44.92 1147.98,-46.99"/>
</g>
<!-- 389 -->
<g id="node26" class="node">
<title>389</title>
<polygon fill="#ae80ee" stroke="black" points="1419.5,-155 1234.5,-155 1234.5,-72 1419.5,-72 1419.5,-155"/>
<text text-anchor="middle" x="1327" y="-139.8" font-family="Times,serif" font-size="14.00">nbproc &lt;= 4.5</text>
<text text-anchor="middle" x="1327" y="-124.8" font-family="Times,serif" font-size="14.00">gini = 0.452</text>
<text text-anchor="middle" x="1327" y="-109.8" font-family="Times,serif" font-size="14.00">samples = 954</text>
<text text-anchor="middle" x="1327" y="-94.8" font-family="Times,serif" font-size="14.00">value = [102, 176, 676]</text>
<text text-anchor="middle" x="1327" y="-79.8" font-family="Times,serif" font-size="14.00">class = None</text>
</g>
<!-- 388&#45;&gt;389 -->
<g id="edge25" class="edge">
<title>388&#45;&gt;389</title>
<path fill="none" stroke="black" d="M1327,-190.91C1327,-182.65 1327,-173.86 1327,-165.3"/>
<polygon fill="black" stroke="black" points="1330.5,-165.02 1327,-155.02 1323.5,-165.02 1330.5,-165.02"/>
</g>
<!-- 402 -->
<g id="node29" class="node">
<title>402</title>
<polygon fill="#9355e9" stroke="black" points="1622.5,-155 1437.5,-155 1437.5,-72 1622.5,-72 1622.5,-155"/>
<text text-anchor="middle" x="1530" y="-139.8" font-family="Times,serif" font-size="14.00">sdComm &lt;= 2.0</text>
<text text-anchor="middle" x="1530" y="-124.8" font-family="Times,serif" font-size="14.00">gini = 0.228</text>
<text text-anchor="middle" x="1530" y="-109.8" font-family="Times,serif" font-size="14.00">samples = 1654</text>
<text text-anchor="middle" x="1530" y="-94.8" font-family="Times,serif" font-size="14.00">value = [180, 32, 1442]</text>
<text text-anchor="middle" x="1530" y="-79.8" font-family="Times,serif" font-size="14.00">class = None</text>
</g>
<!-- 388&#45;&gt;402 -->
<g id="edge28" class="edge">
<title>388&#45;&gt;402</title>
<path fill="none" stroke="black" d="M1397.43,-190.91C1414.59,-181.02 1433.07,-170.37 1450.61,-160.25"/>
<polygon fill="black" stroke="black" points="1452.78,-163.05 1459.69,-155.02 1449.28,-156.98 1452.78,-163.05"/>
</g>
<!-- 390 -->
<g id="node27" class="node">
<title>390</title>
<polygon fill="#c0c0c0" stroke="black" points="1318,-36 1264,-36 1264,0 1318,0 1318,-36"/>
<text text-anchor="middle" x="1291" y="-14.3" font-family="Times,serif" font-size="14.00">(...)</text>
</g>
<!-- 389&#45;&gt;390 -->
<g id="edge26" class="edge">
<title>389&#45;&gt;390</title>
<path fill="none" stroke="black" d="M1311.31,-71.76C1307.96,-63.04 1304.49,-54.04 1301.39,-45.99"/>
<polygon fill="black" stroke="black" points="1304.56,-44.48 1297.7,-36.41 1298.03,-46.99 1304.56,-44.48"/>
</g>
<!-- 397 -->
<g id="node28" class="node">
<title>397</title>
<polygon fill="#c0c0c0" stroke="black" points="1390,-36 1336,-36 1336,0 1390,0 1390,-36"/>
<text text-anchor="middle" x="1363" y="-14.3" font-family="Times,serif" font-size="14.00">(...)</text>
</g>
<!-- 389&#45;&gt;397 -->
<g id="edge27" class="edge">
<title>389&#45;&gt;397</title>
<path fill="none" stroke="black" d="M1342.69,-71.76C1346.04,-63.04 1349.51,-54.04 1352.61,-45.99"/>
<polygon fill="black" stroke="black" points="1355.97,-46.99 1356.3,-36.41 1349.44,-44.48 1355.97,-46.99"/>
</g>
<!-- 403 -->
<g id="node30" class="node">
<title>403</title>
<polygon fill="#c0c0c0" stroke="black" points="1521,-36 1467,-36 1467,0 1521,0 1521,-36"/>
<text text-anchor="middle" x="1494" y="-14.3" font-family="Times,serif" font-size="14.00">(...)</text>
</g>
<!-- 402&#45;&gt;403 -->
<g id="edge29" class="edge">
<title>402&#45;&gt;403</title>
<path fill="none" stroke="black" d="M1514.31,-71.76C1510.96,-63.04 1507.49,-54.04 1504.39,-45.99"/>
<polygon fill="black" stroke="black" points="1507.56,-44.48 1500.7,-36.41 1501.03,-46.99 1507.56,-44.48"/>
</g>
<!-- 410 -->
<g id="node31" class="node">
<title>410</title>
<polygon fill="#c0c0c0" stroke="black" points="1593,-36 1539,-36 1539,0 1593,0 1593,-36"/>
<text text-anchor="middle" x="1566" y="-14.3" font-family="Times,serif" font-size="14.00">(...)</text>
</g>
<!-- 402&#45;&gt;410 -->
<g id="edge30" class="edge">
<title>402&#45;&gt;410</title>
<path fill="none" stroke="black" d="M1545.69,-71.76C1549.04,-63.04 1552.51,-54.04 1555.61,-45.99"/>
<polygon fill="black" stroke="black" points="1558.97,-46.99 1559.3,-36.41 1552.44,-44.48 1558.97,-46.99"/>
</g>
</g>
</svg>
