<?xml version="1.0" encoding="UTF-8" standalone="no"?>
<!DOCTYPE svg PUBLIC "-//W3C//DTD SVG 1.1//EN"
 "http://www.w3.org/Graphics/SVG/1.1/DTD/svg11.dtd">
<!-- Generated by graphviz version 2.43.0 (0)
 -->
<!-- Title: Tree Pages: 1 -->
<svg width="2813pt" height="520pt"
 viewBox="0.00 0.00 2812.50 520.00" xmlns="http://www.w3.org/2000/svg" xmlns:xlink="http://www.w3.org/1999/xlink">
<g id="graph0" class="graph" transform="scale(1 1) rotate(0) translate(4 516)">
<title>Tree</title>
<polygon fill="white" stroke="transparent" points="-4,4 -4,-516 2808.5,-516 2808.5,4 -4,4"/>
<!-- 0 -->
<g id="node1" class="node">
<title>0</title>
<polygon fill="#fffdfd" stroke="black" points="1542.5,-512 1159.5,-512 1159.5,-429 1542.5,-429 1542.5,-512"/>
<text text-anchor="middle" x="1351" y="-496.8" font-family="Times,serif" font-size="14.00">CCR &lt;= 0.55</text>
<text text-anchor="middle" x="1351" y="-481.8" font-family="Times,serif" font-size="14.00">gini = 0.839</text>
<text text-anchor="middle" x="1351" y="-466.8" font-family="Times,serif" font-size="14.00">samples = 35106</text>
<text text-anchor="middle" x="1351" y="-451.8" font-family="Times,serif" font-size="14.00">value = [6578, 4894, 789, 5072, 5636, 5919, 6218]</text>
<text text-anchor="middle" x="1351" y="-436.8" font-family="Times,serif" font-size="14.00">class = rku</text>
</g>
<!-- 1 -->
<g id="node2" class="node">
<title>1</title>
<polygon fill="#fcfcff" stroke="black" points="1197,-393 823,-393 823,-310 1197,-310 1197,-393"/>
<text text-anchor="middle" x="1010" y="-377.8" font-family="Times,serif" font-size="14.00">nbproc &lt;= 4.5</text>
<text text-anchor="middle" x="1010" y="-362.8" font-family="Times,serif" font-size="14.00">gini = 0.834</text>
<text text-anchor="middle" x="1010" y="-347.8" font-family="Times,serif" font-size="14.00">samples = 16488</text>
<text text-anchor="middle" x="1010" y="-332.8" font-family="Times,serif" font-size="14.00">value = [2860, 2580, 74, 2526, 3088, 2786, 2574]</text>
<text text-anchor="middle" x="1010" y="-317.8" font-family="Times,serif" font-size="14.00">class = cluHPS</text>
</g>
<!-- 0&#45;&gt;1 -->
<g id="edge1" class="edge">
<title>0&#45;&gt;1</title>
<path fill="none" stroke="black" d="M1232.69,-428.91C1202.01,-418.38 1168.83,-407 1137.69,-396.31"/>
<polygon fill="black" stroke="black" points="1138.69,-392.96 1128.1,-393.02 1136.42,-399.58 1138.69,-392.96"/>
<text text-anchor="middle" x="1139.08" y="-411.78" font-family="Times,serif" font-size="14.00">True</text>
</g>
<!-- 258 -->
<g id="node17" class="node">
<title>258</title>
<polygon fill="#fffefe" stroke="black" points="1918.5,-393 1535.5,-393 1535.5,-310 1918.5,-310 1918.5,-393"/>
<text text-anchor="middle" x="1727" y="-377.8" font-family="Times,serif" font-size="14.00">sdComm &lt;= 2.0</text>
<text text-anchor="middle" x="1727" y="-362.8" font-family="Times,serif" font-size="14.00">gini = 0.839</text>
<text text-anchor="middle" x="1727" y="-347.8" font-family="Times,serif" font-size="14.00">samples = 18618</text>
<text text-anchor="middle" x="1727" y="-332.8" font-family="Times,serif" font-size="14.00">value = [3718, 2314, 715, 2546, 2548, 3133, 3644]</text>
<text text-anchor="middle" x="1727" y="-317.8" font-family="Times,serif" font-size="14.00">class = rku</text>
</g>
<!-- 0&#45;&gt;258 -->
<g id="edge16" class="edge">
<title>0&#45;&gt;258</title>
<path fill="none" stroke="black" d="M1481.19,-428.99C1515.32,-418.37 1552.28,-406.87 1586.91,-396.09"/>
<polygon fill="black" stroke="black" points="1588.1,-399.39 1596.61,-393.07 1586.02,-392.7 1588.1,-399.39"/>
<text text-anchor="middle" x="1584.98" y="-411.51" font-family="Times,serif" font-size="14.00">False</text>
</g>
<!-- 2 -->
<g id="node3" class="node">
<title>2</title>
<polygon fill="#eceffd" stroke="black" points="662.5,-274 333.5,-274 333.5,-191 662.5,-191 662.5,-274"/>
<text text-anchor="middle" x="498" y="-258.8" font-family="Times,serif" font-size="14.00">sdComp &lt;= 0.065</text>
<text text-anchor="middle" x="498" y="-243.8" font-family="Times,serif" font-size="14.00">gini = 0.82</text>
<text text-anchor="middle" x="498" y="-228.8" font-family="Times,serif" font-size="14.00">samples = 4632</text>
<text text-anchor="middle" x="498" y="-213.8" font-family="Times,serif" font-size="14.00">value = [742, 626, 62, 870, 1228, 702, 402]</text>
<text text-anchor="middle" x="498" y="-198.8" font-family="Times,serif" font-size="14.00">class = cluHPS</text>
</g>
<!-- 1&#45;&gt;2 -->
<g id="edge2" class="edge">
<title>1&#45;&gt;2</title>
<path fill="none" stroke="black" d="M832.72,-309.99C780.88,-298.14 724.26,-285.2 672.58,-273.4"/>
<polygon fill="black" stroke="black" points="673.18,-269.94 662.66,-271.13 671.63,-276.77 673.18,-269.94"/>
</g>
<!-- 125 -->
<g id="node10" class="node">
<title>125</title>
<polygon fill="#fffefe" stroke="black" points="1197,-274 823,-274 823,-191 1197,-191 1197,-274"/>
<text text-anchor="middle" x="1010" y="-258.8" font-family="Times,serif" font-size="14.00">sdComm &lt;= 0.02</text>
<text text-anchor="middle" x="1010" y="-243.8" font-family="Times,serif" font-size="14.00">gini = 0.832</text>
<text text-anchor="middle" x="1010" y="-228.8" font-family="Times,serif" font-size="14.00">samples = 11856</text>
<text text-anchor="middle" x="1010" y="-213.8" font-family="Times,serif" font-size="14.00">value = [2118, 1954, 12, 1656, 1860, 2084, 2172]</text>
<text text-anchor="middle" x="1010" y="-198.8" font-family="Times,serif" font-size="14.00">class = rkuad</text>
</g>
<!-- 1&#45;&gt;125 -->
<g id="edge9" class="edge">
<title>1&#45;&gt;125</title>
<path fill="none" stroke="black" d="M1010,-309.91C1010,-301.65 1010,-292.86 1010,-284.3"/>
<polygon fill="black" stroke="black" points="1013.5,-284.02 1010,-274.02 1006.5,-284.02 1013.5,-284.02"/>
</g>
<!-- 3 -->
<g id="node4" class="node">
<title>3</title>
<polygon fill="#fdf7f2" stroke="black" points="320,-155 0,-155 0,-72 320,-72 320,-155"/>
<text text-anchor="middle" x="160" y="-139.8" font-family="Times,serif" font-size="14.00">graphSize &lt;= 40.0</text>
<text text-anchor="middle" x="160" y="-124.8" font-family="Times,serif" font-size="14.00">gini = 0.819</text>
<text text-anchor="middle" x="160" y="-109.8" font-family="Times,serif" font-size="14.00">samples = 1634</text>
<text text-anchor="middle" x="160" y="-94.8" font-family="Times,serif" font-size="14.00">value = [436, 156, 62, 268, 214, 354, 144]</text>
<text text-anchor="middle" x="160" y="-79.8" font-family="Times,serif" font-size="14.00">class = rku</text>
</g>
<!-- 2&#45;&gt;3 -->
<g id="edge3" class="edge">
<title>2&#45;&gt;3</title>
<path fill="none" stroke="black" d="M380.73,-190.91C350.32,-180.38 317.44,-169 286.57,-158.31"/>
<polygon fill="black" stroke="black" points="287.65,-154.98 277.06,-155.02 285.37,-161.6 287.65,-154.98"/>
</g>
<!-- 80 -->
<g id="node7" class="node">
<title>80</title>
<polygon fill="#dde2fb" stroke="black" points="658,-155 338,-155 338,-72 658,-72 658,-155"/>
<text text-anchor="middle" x="498" y="-139.8" font-family="Times,serif" font-size="14.00">graphDepth &lt;= 9.0</text>
<text text-anchor="middle" x="498" y="-124.8" font-family="Times,serif" font-size="14.00">gini = 0.789</text>
<text text-anchor="middle" x="498" y="-109.8" font-family="Times,serif" font-size="14.00">samples = 2998</text>
<text text-anchor="middle" x="498" y="-94.8" font-family="Times,serif" font-size="14.00">value = [306, 470, 0, 602, 1014, 348, 258]</text>
<text text-anchor="middle" x="498" y="-79.8" font-family="Times,serif" font-size="14.00">class = cluHPS</text>
</g>
<!-- 2&#45;&gt;80 -->
<g id="edge6" class="edge">
<title>2&#45;&gt;80</title>
<path fill="none" stroke="black" d="M498,-190.91C498,-182.65 498,-173.86 498,-165.3"/>
<polygon fill="black" stroke="black" points="501.5,-165.02 498,-155.02 494.5,-165.02 501.5,-165.02"/>
</g>
<!-- 4 -->
<g id="node5" class="node">
<title>4</title>
<polygon fill="#c0c0c0" stroke="black" points="151,-36 97,-36 97,0 151,0 151,-36"/>
<text text-anchor="middle" x="124" y="-14.3" font-family="Times,serif" font-size="14.00">(...)</text>
</g>
<!-- 3&#45;&gt;4 -->
<g id="edge4" class="edge">
<title>3&#45;&gt;4</title>
<path fill="none" stroke="black" d="M144.31,-71.76C140.96,-63.04 137.49,-54.04 134.39,-45.99"/>
<polygon fill="black" stroke="black" points="137.56,-44.48 130.7,-36.41 131.03,-46.99 137.56,-44.48"/>
</g>
<!-- 49 -->
<g id="node6" class="node">
<title>49</title>
<polygon fill="#c0c0c0" stroke="black" points="223,-36 169,-36 169,0 223,0 223,-36"/>
<text text-anchor="middle" x="196" y="-14.3" font-family="Times,serif" font-size="14.00">(...)</text>
</g>
<!-- 3&#45;&gt;49 -->
<g id="edge5" class="edge">
<title>3&#45;&gt;49</title>
<path fill="none" stroke="black" d="M175.69,-71.76C179.04,-63.04 182.51,-54.04 185.61,-45.99"/>
<polygon fill="black" stroke="black" points="188.97,-46.99 189.3,-36.41 182.44,-44.48 188.97,-46.99"/>
</g>
<!-- 81 -->
<g id="node8" class="node">
<title>81</title>
<polygon fill="#c0c0c0" stroke="black" points="489,-36 435,-36 435,0 489,0 489,-36"/>
<text text-anchor="middle" x="462" y="-14.3" font-family="Times,serif" font-size="14.00">(...)</text>
</g>
<!-- 80&#45;&gt;81 -->
<g id="edge7" class="edge">
<title>80&#45;&gt;81</title>
<path fill="none" stroke="black" d="M482.31,-71.76C478.96,-63.04 475.49,-54.04 472.39,-45.99"/>
<polygon fill="black" stroke="black" points="475.56,-44.48 468.7,-36.41 469.03,-46.99 475.56,-44.48"/>
</g>
<!-- 104 -->
<g id="node9" class="node">
<title>104</title>
<polygon fill="#c0c0c0" stroke="black" points="561,-36 507,-36 507,0 561,0 561,-36"/>
<text text-anchor="middle" x="534" y="-14.3" font-family="Times,serif" font-size="14.00">(...)</text>
</g>
<!-- 80&#45;&gt;104 -->
<g id="edge8" class="edge">
<title>80&#45;&gt;104</title>
<path fill="none" stroke="black" d="M513.69,-71.76C517.04,-63.04 520.51,-54.04 523.61,-45.99"/>
<polygon fill="black" stroke="black" points="526.97,-46.99 527.3,-36.41 520.44,-44.48 526.97,-46.99"/>
</g>
<!-- 126 -->
<g id="node11" class="node">
<title>126</title>
<polygon fill="#fffdfe" stroke="black" points="987.5,-155 676.5,-155 676.5,-72 987.5,-72 987.5,-155"/>
<text text-anchor="middle" x="832" y="-139.8" font-family="Times,serif" font-size="14.00">graphDepth &lt;= 6.5</text>
<text text-anchor="middle" x="832" y="-124.8" font-family="Times,serif" font-size="14.00">gini = 0.828</text>
<text text-anchor="middle" x="832" y="-109.8" font-family="Times,serif" font-size="14.00">samples = 4328</text>
<text text-anchor="middle" x="832" y="-94.8" font-family="Times,serif" font-size="14.00">value = [812, 502, 8, 570, 774, 808, 854]</text>
<text text-anchor="middle" x="832" y="-79.8" font-family="Times,serif" font-size="14.00">class = rkuad</text>
</g>
<!-- 125&#45;&gt;126 -->
<g id="edge10" class="edge">
<title>125&#45;&gt;126</title>
<path fill="none" stroke="black" d="M948.24,-190.91C933.33,-181.11 917.29,-170.56 902.03,-160.53"/>
<polygon fill="black" stroke="black" points="903.93,-157.59 893.65,-155.02 900.08,-163.44 903.93,-157.59"/>
</g>
<!-- 171 -->
<g id="node14" class="node">
<title>171</title>
<polygon fill="#fdfefb" stroke="black" points="1370.5,-155 1005.5,-155 1005.5,-72 1370.5,-72 1370.5,-155"/>
<text text-anchor="middle" x="1188" y="-139.8" font-family="Times,serif" font-size="14.00">graphDepth &lt;= 3.5</text>
<text text-anchor="middle" x="1188" y="-124.8" font-family="Times,serif" font-size="14.00">gini = 0.832</text>
<text text-anchor="middle" x="1188" y="-109.8" font-family="Times,serif" font-size="14.00">samples = 7528</text>
<text text-anchor="middle" x="1188" y="-94.8" font-family="Times,serif" font-size="14.00">value = [1306, 1452, 4, 1086, 1086, 1276, 1318]</text>
<text text-anchor="middle" x="1188" y="-79.8" font-family="Times,serif" font-size="14.00">class = random</text>
</g>
<!-- 125&#45;&gt;171 -->
<g id="edge13" class="edge">
<title>125&#45;&gt;171</title>
<path fill="none" stroke="black" d="M1071.76,-190.91C1086.67,-181.11 1102.71,-170.56 1117.97,-160.53"/>
<polygon fill="black" stroke="black" points="1119.92,-163.44 1126.35,-155.02 1116.07,-157.59 1119.92,-163.44"/>
</g>
<!-- 127 -->
<g id="node12" class="node">
<title>127</title>
<polygon fill="#c0c0c0" stroke="black" points="823,-36 769,-36 769,0 823,0 823,-36"/>
<text text-anchor="middle" x="796" y="-14.3" font-family="Times,serif" font-size="14.00">(...)</text>
</g>
<!-- 126&#45;&gt;127 -->
<g id="edge11" class="edge">
<title>126&#45;&gt;127</title>
<path fill="none" stroke="black" d="M816.31,-71.76C812.96,-63.04 809.49,-54.04 806.39,-45.99"/>
<polygon fill="black" stroke="black" points="809.56,-44.48 802.7,-36.41 803.03,-46.99 809.56,-44.48"/>
</g>
<!-- 144 -->
<g id="node13" class="node">
<title>144</title>
<polygon fill="#c0c0c0" stroke="black" points="895,-36 841,-36 841,0 895,0 895,-36"/>
<text text-anchor="middle" x="868" y="-14.3" font-family="Times,serif" font-size="14.00">(...)</text>
</g>
<!-- 126&#45;&gt;144 -->
<g id="edge12" class="edge">
<title>126&#45;&gt;144</title>
<path fill="none" stroke="black" d="M847.69,-71.76C851.04,-63.04 854.51,-54.04 857.61,-45.99"/>
<polygon fill="black" stroke="black" points="860.97,-46.99 861.3,-36.41 854.44,-44.48 860.97,-46.99"/>
</g>
<!-- 172 -->
<g id="node15" class="node">
<title>172</title>
<polygon fill="#c0c0c0" stroke="black" points="1179,-36 1125,-36 1125,0 1179,0 1179,-36"/>
<text text-anchor="middle" x="1152" y="-14.3" font-family="Times,serif" font-size="14.00">(...)</text>
</g>
<!-- 171&#45;&gt;172 -->
<g id="edge14" class="edge">
<title>171&#45;&gt;172</title>
<path fill="none" stroke="black" d="M1172.31,-71.76C1168.96,-63.04 1165.49,-54.04 1162.39,-45.99"/>
<polygon fill="black" stroke="black" points="1165.56,-44.48 1158.7,-36.41 1159.03,-46.99 1165.56,-44.48"/>
</g>
<!-- 183 -->
<g id="node16" class="node">
<title>183</title>
<polygon fill="#c0c0c0" stroke="black" points="1251,-36 1197,-36 1197,0 1251,0 1251,-36"/>
<text text-anchor="middle" x="1224" y="-14.3" font-family="Times,serif" font-size="14.00">(...)</text>
</g>
<!-- 171&#45;&gt;183 -->
<g id="edge15" class="edge">
<title>171&#45;&gt;183</title>
<path fill="none" stroke="black" d="M1203.69,-71.76C1207.04,-63.04 1210.51,-54.04 1213.61,-45.99"/>
<polygon fill="black" stroke="black" points="1216.97,-46.99 1217.3,-36.41 1210.44,-44.48 1216.97,-46.99"/>
</g>
<!-- 259 -->
<g id="node18" class="node">
<title>259</title>
<polygon fill="#fffefd" stroke="black" points="1918.5,-274 1535.5,-274 1535.5,-191 1918.5,-191 1918.5,-274"/>
<text text-anchor="middle" x="1727" y="-258.8" font-family="Times,serif" font-size="14.00">graphDepth &lt;= 3.5</text>
<text text-anchor="middle" x="1727" y="-243.8" font-family="Times,serif" font-size="14.00">gini = 0.834</text>
<text text-anchor="middle" x="1727" y="-228.8" font-family="Times,serif" font-size="14.00">samples = 12312</text>
<text text-anchor="middle" x="1727" y="-213.8" font-family="Times,serif" font-size="14.00">value = [2474, 1590, 177, 1912, 1692, 2077, 2390]</text>
<text text-anchor="middle" x="1727" y="-198.8" font-family="Times,serif" font-size="14.00">class = rku</text>
</g>
<!-- 258&#45;&gt;259 -->
<g id="edge17" class="edge">
<title>258&#45;&gt;259</title>
<path fill="none" stroke="black" d="M1727,-309.91C1727,-301.65 1727,-292.86 1727,-284.3"/>
<polygon fill="black" stroke="black" points="1730.5,-284.02 1727,-274.02 1723.5,-284.02 1730.5,-284.02"/>
</g>
<!-- 614 -->
<g id="node25" class="node">
<title>614</title>
<polygon fill="#ffffff" stroke="black" points="2471,-274 2115,-274 2115,-191 2471,-191 2471,-274"/>
<text text-anchor="middle" x="2293" y="-258.8" font-family="Times,serif" font-size="14.00">sdComm &lt;= 6.5</text>
<text text-anchor="middle" x="2293" y="-243.8" font-family="Times,serif" font-size="14.00">gini = 0.845</text>
<text text-anchor="middle" x="2293" y="-228.8" font-family="Times,serif" font-size="14.00">samples = 6306</text>
<text text-anchor="middle" x="2293" y="-213.8" font-family="Times,serif" font-size="14.00">value = [1244, 724, 538, 634, 856, 1056, 1254]</text>
<text text-anchor="middle" x="2293" y="-198.8" font-family="Times,serif" font-size="14.00">class = rkuad</text>
</g>
<!-- 258&#45;&gt;614 -->
<g id="edge24" class="edge">
<title>258&#45;&gt;614</title>
<path fill="none" stroke="black" d="M1918.62,-310.89C1978.77,-298.46 2045.09,-284.75 2104.99,-272.36"/>
<polygon fill="black" stroke="black" points="2105.85,-275.76 2114.93,-270.31 2104.43,-268.91 2105.85,-275.76"/>
</g>
<!-- 260 -->
<g id="node19" class="node">
<title>260</title>
<polygon fill="#f5fefe" stroke="black" points="1709,-155 1389,-155 1389,-72 1709,-72 1709,-155"/>
<text text-anchor="middle" x="1549" y="-139.8" font-family="Times,serif" font-size="14.00">sdComp &lt;= 0.65</text>
<text text-anchor="middle" x="1549" y="-124.8" font-family="Times,serif" font-size="14.00">gini = 0.838</text>
<text text-anchor="middle" x="1549" y="-109.8" font-family="Times,serif" font-size="14.00">samples = 2255</text>
<text text-anchor="middle" x="1549" y="-94.8" font-family="Times,serif" font-size="14.00">value = [346, 310, 65, 472, 382, 366, 314]</text>
<text text-anchor="middle" x="1549" y="-79.8" font-family="Times,serif" font-size="14.00">class = rkd</text>
</g>
<!-- 259&#45;&gt;260 -->
<g id="edge18" class="edge">
<title>259&#45;&gt;260</title>
<path fill="none" stroke="black" d="M1665.24,-190.91C1650.33,-181.11 1634.29,-170.56 1619.03,-160.53"/>
<polygon fill="black" stroke="black" points="1620.93,-157.59 1610.65,-155.02 1617.08,-163.44 1620.93,-157.59"/>
</g>
<!-- 307 -->
<g id="node22" class="node">
<title>307</title>
<polygon fill="#fffefe" stroke="black" points="2110.5,-155 1727.5,-155 1727.5,-72 2110.5,-72 2110.5,-155"/>
<text text-anchor="middle" x="1919" y="-139.8" font-family="Times,serif" font-size="14.00">sdComp &lt;= 6.5</text>
<text text-anchor="middle" x="1919" y="-124.8" font-family="Times,serif" font-size="14.00">gini = 0.83</text>
<text text-anchor="middle" x="1919" y="-109.8" font-family="Times,serif" font-size="14.00">samples = 10057</text>
<text text-anchor="middle" x="1919" y="-94.8" font-family="Times,serif" font-size="14.00">value = [2128, 1280, 112, 1440, 1310, 1711, 2076]</text>
<text text-anchor="middle" x="1919" y="-79.8" font-family="Times,serif" font-size="14.00">class = rku</text>
</g>
<!-- 259&#45;&gt;307 -->
<g id="edge21" class="edge">
<title>259&#45;&gt;307</title>
<path fill="none" stroke="black" d="M1793.61,-190.91C1809.85,-181.02 1827.32,-170.37 1843.92,-160.25"/>
<polygon fill="black" stroke="black" points="1845.79,-163.21 1852.5,-155.02 1842.14,-157.24 1845.79,-163.21"/>
</g>
<!-- 261 -->
<g id="node20" class="node">
<title>261</title>
<polygon fill="#c0c0c0" stroke="black" points="1540,-36 1486,-36 1486,0 1540,0 1540,-36"/>
<text text-anchor="middle" x="1513" y="-14.3" font-family="Times,serif" font-size="14.00">(...)</text>
</g>
<!-- 260&#45;&gt;261 -->
<g id="edge19" class="edge">
<title>260&#45;&gt;261</title>
<path fill="none" stroke="black" d="M1533.31,-71.76C1529.96,-63.04 1526.49,-54.04 1523.39,-45.99"/>
<polygon fill="black" stroke="black" points="1526.56,-44.48 1519.7,-36.41 1520.03,-46.99 1526.56,-44.48"/>
</g>
<!-- 284 -->
<g id="node21" class="node">
<title>284</title>
<polygon fill="#c0c0c0" stroke="black" points="1612,-36 1558,-36 1558,0 1612,0 1612,-36"/>
<text text-anchor="middle" x="1585" y="-14.3" font-family="Times,serif" font-size="14.00">(...)</text>
</g>
<!-- 260&#45;&gt;284 -->
<g id="edge20" class="edge">
<title>260&#45;&gt;284</title>
<path fill="none" stroke="black" d="M1564.69,-71.76C1568.04,-63.04 1571.51,-54.04 1574.61,-45.99"/>
<polygon fill="black" stroke="black" points="1577.97,-46.99 1578.3,-36.41 1571.44,-44.48 1577.97,-46.99"/>
</g>
<!-- 308 -->
<g id="node23" class="node">
<title>308</title>
<polygon fill="#c0c0c0" stroke="black" points="1910,-36 1856,-36 1856,0 1910,0 1910,-36"/>
<text text-anchor="middle" x="1883" y="-14.3" font-family="Times,serif" font-size="14.00">(...)</text>
</g>
<!-- 307&#45;&gt;308 -->
<g id="edge22" class="edge">
<title>307&#45;&gt;308</title>
<path fill="none" stroke="black" d="M1903.31,-71.76C1899.96,-63.04 1896.49,-54.04 1893.39,-45.99"/>
<polygon fill="black" stroke="black" points="1896.56,-44.48 1889.7,-36.41 1890.03,-46.99 1896.56,-44.48"/>
</g>
<!-- 587 -->
<g id="node24" class="node">
<title>587</title>
<polygon fill="#c0c0c0" stroke="black" points="1982,-36 1928,-36 1928,0 1982,0 1982,-36"/>
<text text-anchor="middle" x="1955" y="-14.3" font-family="Times,serif" font-size="14.00">(...)</text>
</g>
<!-- 307&#45;&gt;587 -->
<g id="edge23" class="edge">
<title>307&#45;&gt;587</title>
<path fill="none" stroke="black" d="M1934.69,-71.76C1938.04,-63.04 1941.51,-54.04 1944.61,-45.99"/>
<polygon fill="black" stroke="black" points="1947.97,-46.99 1948.3,-36.41 1941.44,-44.48 1947.97,-46.99"/>
</g>
<!-- 615 -->
<g id="node26" class="node">
<title>615</title>
<polygon fill="#fef7fa" stroke="black" points="2457.5,-155 2128.5,-155 2128.5,-72 2457.5,-72 2457.5,-155"/>
<text text-anchor="middle" x="2293" y="-139.8" font-family="Times,serif" font-size="14.00">nbproc &lt;= 4.5</text>
<text text-anchor="middle" x="2293" y="-124.8" font-family="Times,serif" font-size="14.00">gini = 0.846</text>
<text text-anchor="middle" x="2293" y="-109.8" font-family="Times,serif" font-size="14.00">samples = 3242</text>
<text text-anchor="middle" x="2293" y="-94.8" font-family="Times,serif" font-size="14.00">value = [552, 380, 250, 382, 528, 484, 666]</text>
<text text-anchor="middle" x="2293" y="-79.8" font-family="Times,serif" font-size="14.00">class = rkuad</text>
</g>
<!-- 614&#45;&gt;615 -->
<g id="edge25" class="edge">
<title>614&#45;&gt;615</title>
<path fill="none" stroke="black" d="M2293,-190.91C2293,-182.65 2293,-173.86 2293,-165.3"/>
<polygon fill="black" stroke="black" points="2296.5,-165.02 2293,-155.02 2289.5,-165.02 2296.5,-165.02"/>
</g>
<!-- 702 -->
<g id="node29" class="node">
<title>702</title>
<polygon fill="#fefaf7" stroke="black" points="2804.5,-155 2475.5,-155 2475.5,-72 2804.5,-72 2804.5,-155"/>
<text text-anchor="middle" x="2640" y="-139.8" font-family="Times,serif" font-size="14.00">sdComp &lt;= 6.5</text>
<text text-anchor="middle" x="2640" y="-124.8" font-family="Times,serif" font-size="14.00">gini = 0.838</text>
<text text-anchor="middle" x="2640" y="-109.8" font-family="Times,serif" font-size="14.00">samples = 3064</text>
<text text-anchor="middle" x="2640" y="-94.8" font-family="Times,serif" font-size="14.00">value = [692, 344, 288, 252, 328, 572, 588]</text>
<text text-anchor="middle" x="2640" y="-79.8" font-family="Times,serif" font-size="14.00">class = rku</text>
</g>
<!-- 614&#45;&gt;702 -->
<g id="edge28" class="edge">
<title>614&#45;&gt;702</title>
<path fill="none" stroke="black" d="M2413.39,-190.91C2444.61,-180.38 2478.37,-169 2510.06,-158.31"/>
<polygon fill="black" stroke="black" points="2511.47,-161.53 2519.82,-155.02 2509.23,-154.9 2511.47,-161.53"/>
</g>
<!-- 616 -->
<g id="node27" class="node">
<title>616</title>
<polygon fill="#c0c0c0" stroke="black" points="2284,-36 2230,-36 2230,0 2284,0 2284,-36"/>
<text text-anchor="middle" x="2257" y="-14.3" font-family="Times,serif" font-size="14.00">(...)</text>
</g>
<!-- 615&#45;&gt;616 -->
<g id="edge26" class="edge">
<title>615&#45;&gt;616</title>
<path fill="none" stroke="black" d="M2277.31,-71.76C2273.96,-63.04 2270.49,-54.04 2267.39,-45.99"/>
<polygon fill="black" stroke="black" points="2270.56,-44.48 2263.7,-36.41 2264.03,-46.99 2270.56,-44.48"/>
</g>
<!-- 659 -->
<g id="node28" class="node">
<title>659</title>
<polygon fill="#c0c0c0" stroke="black" points="2356,-36 2302,-36 2302,0 2356,0 2356,-36"/>
<text text-anchor="middle" x="2329" y="-14.3" font-family="Times,serif" font-size="14.00">(...)</text>
</g>
<!-- 615&#45;&gt;659 -->
<g id="edge27" class="edge">
<title>615&#45;&gt;659</title>
<path fill="none" stroke="black" d="M2308.69,-71.76C2312.04,-63.04 2315.51,-54.04 2318.61,-45.99"/>
<polygon fill="black" stroke="black" points="2321.97,-46.99 2322.3,-36.41 2315.44,-44.48 2321.97,-46.99"/>
</g>
<!-- 703 -->
<g id="node30" class="node">
<title>703</title>
<polygon fill="#c0c0c0" stroke="black" points="2631,-36 2577,-36 2577,0 2631,0 2631,-36"/>
<text text-anchor="middle" x="2604" y="-14.3" font-family="Times,serif" font-size="14.00">(...)</text>
</g>
<!-- 702&#45;&gt;703 -->
<g id="edge29" class="edge">
<title>702&#45;&gt;703</title>
<path fill="none" stroke="black" d="M2624.31,-71.76C2620.96,-63.04 2617.49,-54.04 2614.39,-45.99"/>
<polygon fill="black" stroke="black" points="2617.56,-44.48 2610.7,-36.41 2611.03,-46.99 2617.56,-44.48"/>
</g>
<!-- 760 -->
<g id="node31" class="node">
<title>760</title>
<polygon fill="#c0c0c0" stroke="black" points="2703,-36 2649,-36 2649,0 2703,0 2703,-36"/>
<text text-anchor="middle" x="2676" y="-14.3" font-family="Times,serif" font-size="14.00">(...)</text>
</g>
<!-- 702&#45;&gt;760 -->
<g id="edge30" class="edge">
<title>702&#45;&gt;760</title>
<path fill="none" stroke="black" d="M2655.69,-71.76C2659.04,-63.04 2662.51,-54.04 2665.61,-45.99"/>
<polygon fill="black" stroke="black" points="2668.97,-46.99 2669.3,-36.41 2662.44,-44.48 2668.97,-46.99"/>
</g>
</g>
</svg>
