<?xml version="1.0" encoding="UTF-8" standalone="no"?>
<!DOCTYPE svg PUBLIC "-//W3C//DTD SVG 1.1//EN"
 "http://www.w3.org/Graphics/SVG/1.1/DTD/svg11.dtd">
<!-- Generated by graphviz version 2.43.0 (0)
 -->
<!-- Title: Tree Pages: 1 -->
<svg width="1685pt" height="520pt"
 viewBox="0.00 0.00 1685.00 520.00" xmlns="http://www.w3.org/2000/svg" xmlns:xlink="http://www.w3.org/1999/xlink">
<g id="graph0" class="graph" transform="scale(1 1) rotate(0) translate(4 516)">
<title>Tree</title>
<polygon fill="white" stroke="transparent" points="-4,4 -4,-516 1681,-516 1681,4 -4,4"/>
<!-- 0 -->
<g id="node1" class="node">
<title>0</title>
<polygon fill="#dffbea" stroke="black" points="953.5,-512 723.5,-512 723.5,-429 953.5,-429 953.5,-512"/>
<text text-anchor="middle" x="838.5" y="-496.8" font-family="Times,serif" font-size="14.00">CCR &lt;= 5.5</text>
<text text-anchor="middle" x="838.5" y="-481.8" font-family="Times,serif" font-size="14.00">gini = 0.649</text>
<text text-anchor="middle" x="838.5" y="-466.8" font-family="Times,serif" font-size="14.00">samples = 35106</text>
<text text-anchor="middle" x="838.5" y="-451.8" font-family="Times,serif" font-size="14.00">value = [11268, 15159, 8679]</text>
<text text-anchor="middle" x="838.5" y="-436.8" font-family="Times,serif" font-size="14.00">class = DCP</text>
</g>
<!-- 1 -->
<g id="node2" class="node">
<title>1</title>
<polygon fill="#c7f8db" stroke="black" points="746,-393 525,-393 525,-310 746,-310 746,-393"/>
<text text-anchor="middle" x="635.5" y="-377.8" font-family="Times,serif" font-size="14.00">graphSize &lt;= 22.5</text>
<text text-anchor="middle" x="635.5" y="-362.8" font-family="Times,serif" font-size="14.00">gini = 0.531</text>
<text text-anchor="middle" x="635.5" y="-347.8" font-family="Times,serif" font-size="14.00">samples = 25544</text>
<text text-anchor="middle" x="635.5" y="-332.8" font-family="Times,serif" font-size="14.00">value = [9942, 14341, 1261]</text>
<text text-anchor="middle" x="635.5" y="-317.8" font-family="Times,serif" font-size="14.00">class = DCP</text>
</g>
<!-- 0&#45;&gt;1 -->
<g id="edge1" class="edge">
<title>0&#45;&gt;1</title>
<path fill="none" stroke="black" d="M768.07,-428.91C750.91,-419.02 732.43,-408.37 714.89,-398.25"/>
<polygon fill="black" stroke="black" points="716.22,-394.98 705.81,-393.02 712.72,-401.05 716.22,-394.98"/>
<text text-anchor="middle" x="712.29" y="-413.46" font-family="Times,serif" font-size="14.00">True</text>
</g>
<!-- 442 -->
<g id="node17" class="node">
<title>442</title>
<polygon fill="#a26dec" stroke="black" points="1161,-393 958,-393 958,-310 1161,-310 1161,-393"/>
<text text-anchor="middle" x="1059.5" y="-377.8" font-family="Times,serif" font-size="14.00">sdComp &lt;= 6.5</text>
<text text-anchor="middle" x="1059.5" y="-362.8" font-family="Times,serif" font-size="14.00">gini = 0.372</text>
<text text-anchor="middle" x="1059.5" y="-347.8" font-family="Times,serif" font-size="14.00">samples = 9562</text>
<text text-anchor="middle" x="1059.5" y="-332.8" font-family="Times,serif" font-size="14.00">value = [1326, 818, 7418]</text>
<text text-anchor="middle" x="1059.5" y="-317.8" font-family="Times,serif" font-size="14.00">class = None</text>
</g>
<!-- 0&#45;&gt;442 -->
<g id="edge16" class="edge">
<title>0&#45;&gt;442</title>
<path fill="none" stroke="black" d="M915.17,-428.91C934.12,-418.88 954.53,-408.07 973.86,-397.84"/>
<polygon fill="black" stroke="black" points="975.76,-400.79 982.96,-393.02 972.49,-394.61 975.76,-400.79"/>
<text text-anchor="middle" x="975.61" y="-413.22" font-family="Times,serif" font-size="14.00">False</text>
</g>
<!-- 2 -->
<g id="node3" class="node">
<title>2</title>
<polygon fill="#e9fcf1" stroke="black" points="428.5,-274 216.5,-274 216.5,-191 428.5,-191 428.5,-274"/>
<text text-anchor="middle" x="322.5" y="-258.8" font-family="Times,serif" font-size="14.00">sdComm &lt;= 0.02</text>
<text text-anchor="middle" x="322.5" y="-243.8" font-family="Times,serif" font-size="14.00">gini = 0.552</text>
<text text-anchor="middle" x="322.5" y="-228.8" font-family="Times,serif" font-size="14.00">samples = 18895</text>
<text text-anchor="middle" x="322.5" y="-213.8" font-family="Times,serif" font-size="14.00">value = [8286, 9480, 1129]</text>
<text text-anchor="middle" x="322.5" y="-198.8" font-family="Times,serif" font-size="14.00">class = DCP</text>
</g>
<!-- 1&#45;&gt;2 -->
<g id="edge2" class="edge">
<title>1&#45;&gt;2</title>
<path fill="none" stroke="black" d="M526.91,-309.91C498.15,-299.16 467,-287.52 437.9,-276.64"/>
<polygon fill="black" stroke="black" points="439.12,-273.36 428.52,-273.13 436.67,-279.91 439.12,-273.36"/>
</g>
<!-- 145 -->
<g id="node10" class="node">
<title>145</title>
<polygon fill="#80eeae" stroke="black" points="737,-274 534,-274 534,-191 737,-191 737,-274"/>
<text text-anchor="middle" x="635.5" y="-258.8" font-family="Times,serif" font-size="14.00">sdComp &lt;= 0.065</text>
<text text-anchor="middle" x="635.5" y="-243.8" font-family="Times,serif" font-size="14.00">gini = 0.403</text>
<text text-anchor="middle" x="635.5" y="-228.8" font-family="Times,serif" font-size="14.00">samples = 6649</text>
<text text-anchor="middle" x="635.5" y="-213.8" font-family="Times,serif" font-size="14.00">value = [1656, 4861, 132]</text>
<text text-anchor="middle" x="635.5" y="-198.8" font-family="Times,serif" font-size="14.00">class = DCP</text>
</g>
<!-- 1&#45;&gt;145 -->
<g id="edge9" class="edge">
<title>1&#45;&gt;145</title>
<path fill="none" stroke="black" d="M635.5,-309.91C635.5,-301.65 635.5,-292.86 635.5,-284.3"/>
<polygon fill="black" stroke="black" points="639,-284.02 635.5,-274.02 632,-284.02 639,-284.02"/>
</g>
<!-- 3 -->
<g id="node4" class="node">
<title>3</title>
<polygon fill="#fceee5" stroke="black" points="203,-155 0,-155 0,-72 203,-72 203,-155"/>
<text text-anchor="middle" x="101.5" y="-139.8" font-family="Times,serif" font-size="14.00">graphDepth &lt;= 3.5</text>
<text text-anchor="middle" x="101.5" y="-124.8" font-family="Times,serif" font-size="14.00">gini = 0.531</text>
<text text-anchor="middle" x="101.5" y="-109.8" font-family="Times,serif" font-size="14.00">samples = 4434</text>
<text text-anchor="middle" x="101.5" y="-94.8" font-family="Times,serif" font-size="14.00">value = [2302, 1976, 156]</text>
<text text-anchor="middle" x="101.5" y="-79.8" font-family="Times,serif" font-size="14.00">class = DLS/DC</text>
</g>
<!-- 2&#45;&gt;3 -->
<g id="edge3" class="edge">
<title>2&#45;&gt;3</title>
<path fill="none" stroke="black" d="M245.83,-190.91C226.88,-180.88 206.47,-170.07 187.14,-159.84"/>
<polygon fill="black" stroke="black" points="188.51,-156.61 178.04,-155.02 185.24,-162.79 188.51,-156.61"/>
</g>
<!-- 26 -->
<g id="node7" class="node">
<title>26</title>
<polygon fill="#dbfae8" stroke="black" points="424,-155 221,-155 221,-72 424,-72 424,-155"/>
<text text-anchor="middle" x="322.5" y="-139.8" font-family="Times,serif" font-size="14.00">graphDepth &lt;= 3.5</text>
<text text-anchor="middle" x="322.5" y="-124.8" font-family="Times,serif" font-size="14.00">gini = 0.555</text>
<text text-anchor="middle" x="322.5" y="-109.8" font-family="Times,serif" font-size="14.00">samples = 14461</text>
<text text-anchor="middle" x="322.5" y="-94.8" font-family="Times,serif" font-size="14.00">value = [5984, 7504, 973]</text>
<text text-anchor="middle" x="322.5" y="-79.8" font-family="Times,serif" font-size="14.00">class = DCP</text>
</g>
<!-- 2&#45;&gt;26 -->
<g id="edge6" class="edge">
<title>2&#45;&gt;26</title>
<path fill="none" stroke="black" d="M322.5,-190.91C322.5,-182.65 322.5,-173.86 322.5,-165.3"/>
<polygon fill="black" stroke="black" points="326,-165.02 322.5,-155.02 319,-165.02 326,-165.02"/>
</g>
<!-- 4 -->
<g id="node5" class="node">
<title>4</title>
<polygon fill="#c0c0c0" stroke="black" points="92.5,-36 38.5,-36 38.5,0 92.5,0 92.5,-36"/>
<text text-anchor="middle" x="65.5" y="-14.3" font-family="Times,serif" font-size="14.00">(...)</text>
</g>
<!-- 3&#45;&gt;4 -->
<g id="edge4" class="edge">
<title>3&#45;&gt;4</title>
<path fill="none" stroke="black" d="M85.81,-71.76C82.46,-63.04 78.99,-54.04 75.89,-45.99"/>
<polygon fill="black" stroke="black" points="79.06,-44.48 72.2,-36.41 72.53,-46.99 79.06,-44.48"/>
</g>
<!-- 15 -->
<g id="node6" class="node">
<title>15</title>
<polygon fill="#c0c0c0" stroke="black" points="164.5,-36 110.5,-36 110.5,0 164.5,0 164.5,-36"/>
<text text-anchor="middle" x="137.5" y="-14.3" font-family="Times,serif" font-size="14.00">(...)</text>
</g>
<!-- 3&#45;&gt;15 -->
<g id="edge5" class="edge">
<title>3&#45;&gt;15</title>
<path fill="none" stroke="black" d="M117.19,-71.76C120.54,-63.04 124.01,-54.04 127.11,-45.99"/>
<polygon fill="black" stroke="black" points="130.47,-46.99 130.8,-36.41 123.94,-44.48 130.47,-46.99"/>
</g>
<!-- 27 -->
<g id="node8" class="node">
<title>27</title>
<polygon fill="#c0c0c0" stroke="black" points="311.5,-36 257.5,-36 257.5,0 311.5,0 311.5,-36"/>
<text text-anchor="middle" x="284.5" y="-14.3" font-family="Times,serif" font-size="14.00">(...)</text>
</g>
<!-- 26&#45;&gt;27 -->
<g id="edge7" class="edge">
<title>26&#45;&gt;27</title>
<path fill="none" stroke="black" d="M305.94,-71.76C302.36,-62.94 298.66,-53.84 295.36,-45.72"/>
<polygon fill="black" stroke="black" points="298.58,-44.35 291.57,-36.41 292.1,-46.99 298.58,-44.35"/>
</g>
<!-- 86 -->
<g id="node9" class="node">
<title>86</title>
<polygon fill="#c0c0c0" stroke="black" points="383.5,-36 329.5,-36 329.5,0 383.5,0 383.5,-36"/>
<text text-anchor="middle" x="356.5" y="-14.3" font-family="Times,serif" font-size="14.00">(...)</text>
</g>
<!-- 26&#45;&gt;86 -->
<g id="edge8" class="edge">
<title>26&#45;&gt;86</title>
<path fill="none" stroke="black" d="M337.31,-71.76C340.48,-63.04 343.76,-54.04 346.68,-45.99"/>
<polygon fill="black" stroke="black" points="350.04,-47 350.17,-36.41 343.46,-44.61 350.04,-47"/>
</g>
<!-- 146 -->
<g id="node11" class="node">
<title>146</title>
<polygon fill="#5eea98" stroke="black" points="627,-155 442,-155 442,-72 627,-72 627,-155"/>
<text text-anchor="middle" x="534.5" y="-139.8" font-family="Times,serif" font-size="14.00">nbproc &lt;= 4.5</text>
<text text-anchor="middle" x="534.5" y="-124.8" font-family="Times,serif" font-size="14.00">gini = 0.283</text>
<text text-anchor="middle" x="534.5" y="-109.8" font-family="Times,serif" font-size="14.00">samples = 1742</text>
<text text-anchor="middle" x="534.5" y="-94.8" font-family="Times,serif" font-size="14.00">value = [214, 1458, 70]</text>
<text text-anchor="middle" x="534.5" y="-79.8" font-family="Times,serif" font-size="14.00">class = DCP</text>
</g>
<!-- 145&#45;&gt;146 -->
<g id="edge10" class="edge">
<title>145&#45;&gt;146</title>
<path fill="none" stroke="black" d="M600.46,-190.91C592.62,-181.83 584.24,-172.12 576.17,-162.77"/>
<polygon fill="black" stroke="black" points="578.66,-160.3 569.48,-155.02 573.36,-164.88 578.66,-160.3"/>
</g>
<!-- 229 -->
<g id="node14" class="node">
<title>229</title>
<polygon fill="#8ff0b8" stroke="black" points="838.5,-155 644.5,-155 644.5,-72 838.5,-72 838.5,-155"/>
<text text-anchor="middle" x="741.5" y="-139.8" font-family="Times,serif" font-size="14.00">sdComp &lt;= 0.2</text>
<text text-anchor="middle" x="741.5" y="-124.8" font-family="Times,serif" font-size="14.00">gini = 0.433</text>
<text text-anchor="middle" x="741.5" y="-109.8" font-family="Times,serif" font-size="14.00">samples = 4907</text>
<text text-anchor="middle" x="741.5" y="-94.8" font-family="Times,serif" font-size="14.00">value = [1442, 3403, 62]</text>
<text text-anchor="middle" x="741.5" y="-79.8" font-family="Times,serif" font-size="14.00">class = DCP</text>
</g>
<!-- 145&#45;&gt;229 -->
<g id="edge13" class="edge">
<title>145&#45;&gt;229</title>
<path fill="none" stroke="black" d="M672.28,-190.91C680.58,-181.74 689.47,-171.93 698.02,-162.49"/>
<polygon fill="black" stroke="black" points="700.67,-164.78 704.79,-155.02 695.48,-160.08 700.67,-164.78"/>
</g>
<!-- 147 -->
<g id="node12" class="node">
<title>147</title>
<polygon fill="#c0c0c0" stroke="black" points="520.5,-36 466.5,-36 466.5,0 520.5,0 520.5,-36"/>
<text text-anchor="middle" x="493.5" y="-14.3" font-family="Times,serif" font-size="14.00">(...)</text>
</g>
<!-- 146&#45;&gt;147 -->
<g id="edge11" class="edge">
<title>146&#45;&gt;147</title>
<path fill="none" stroke="black" d="M516.64,-71.76C512.77,-62.94 508.78,-53.84 505.22,-45.72"/>
<polygon fill="black" stroke="black" points="508.35,-44.16 501.13,-36.41 501.94,-46.97 508.35,-44.16"/>
</g>
<!-- 194 -->
<g id="node13" class="node">
<title>194</title>
<polygon fill="#c0c0c0" stroke="black" points="592.5,-36 538.5,-36 538.5,0 592.5,0 592.5,-36"/>
<text text-anchor="middle" x="565.5" y="-14.3" font-family="Times,serif" font-size="14.00">(...)</text>
</g>
<!-- 146&#45;&gt;194 -->
<g id="edge12" class="edge">
<title>146&#45;&gt;194</title>
<path fill="none" stroke="black" d="M548.01,-71.76C550.9,-63.04 553.88,-54.04 556.55,-45.99"/>
<polygon fill="black" stroke="black" points="559.9,-47 559.73,-36.41 553.26,-44.8 559.9,-47"/>
</g>
<!-- 230 -->
<g id="node15" class="node">
<title>230</title>
<polygon fill="#c0c0c0" stroke="black" points="730.5,-36 676.5,-36 676.5,0 730.5,0 730.5,-36"/>
<text text-anchor="middle" x="703.5" y="-14.3" font-family="Times,serif" font-size="14.00">(...)</text>
</g>
<!-- 229&#45;&gt;230 -->
<g id="edge14" class="edge">
<title>229&#45;&gt;230</title>
<path fill="none" stroke="black" d="M724.94,-71.76C721.36,-62.94 717.66,-53.84 714.36,-45.72"/>
<polygon fill="black" stroke="black" points="717.58,-44.35 710.57,-36.41 711.1,-46.99 717.58,-44.35"/>
</g>
<!-- 351 -->
<g id="node16" class="node">
<title>351</title>
<polygon fill="#c0c0c0" stroke="black" points="802.5,-36 748.5,-36 748.5,0 802.5,0 802.5,-36"/>
<text text-anchor="middle" x="775.5" y="-14.3" font-family="Times,serif" font-size="14.00">(...)</text>
</g>
<!-- 229&#45;&gt;351 -->
<g id="edge15" class="edge">
<title>229&#45;&gt;351</title>
<path fill="none" stroke="black" d="M756.31,-71.76C759.48,-63.04 762.76,-54.04 765.68,-45.99"/>
<polygon fill="black" stroke="black" points="769.04,-47 769.17,-36.41 762.46,-44.61 769.04,-47"/>
</g>
<!-- 443 -->
<g id="node18" class="node">
<title>443</title>
<polygon fill="#975cea" stroke="black" points="1156.5,-274 962.5,-274 962.5,-191 1156.5,-191 1156.5,-274"/>
<text text-anchor="middle" x="1059.5" y="-258.8" font-family="Times,serif" font-size="14.00">sdComm &lt;= 2.0</text>
<text text-anchor="middle" x="1059.5" y="-243.8" font-family="Times,serif" font-size="14.00">gini = 0.28</text>
<text text-anchor="middle" x="1059.5" y="-228.8" font-family="Times,serif" font-size="14.00">samples = 5608</text>
<text text-anchor="middle" x="1059.5" y="-213.8" font-family="Times,serif" font-size="14.00">value = [522, 370, 4716]</text>
<text text-anchor="middle" x="1059.5" y="-198.8" font-family="Times,serif" font-size="14.00">class = None</text>
</g>
<!-- 442&#45;&gt;443 -->
<g id="edge17" class="edge">
<title>442&#45;&gt;443</title>
<path fill="none" stroke="black" d="M1059.5,-309.91C1059.5,-301.65 1059.5,-292.86 1059.5,-284.3"/>
<polygon fill="black" stroke="black" points="1063,-284.02 1059.5,-274.02 1056,-284.02 1063,-284.02"/>
</g>
<!-- 534 -->
<g id="node25" class="node">
<title>534</title>
<polygon fill="#b388ef" stroke="black" points="1474.5,-274 1280.5,-274 1280.5,-191 1474.5,-191 1474.5,-274"/>
<text text-anchor="middle" x="1377.5" y="-258.8" font-family="Times,serif" font-size="14.00">nbproc &lt;= 4.5</text>
<text text-anchor="middle" x="1377.5" y="-243.8" font-family="Times,serif" font-size="14.00">gini = 0.479</text>
<text text-anchor="middle" x="1377.5" y="-228.8" font-family="Times,serif" font-size="14.00">samples = 3954</text>
<text text-anchor="middle" x="1377.5" y="-213.8" font-family="Times,serif" font-size="14.00">value = [804, 448, 2702]</text>
<text text-anchor="middle" x="1377.5" y="-198.8" font-family="Times,serif" font-size="14.00">class = None</text>
</g>
<!-- 442&#45;&gt;534 -->
<g id="edge24" class="edge">
<title>442&#45;&gt;534</title>
<path fill="none" stroke="black" d="M1161.43,-313C1196.3,-300.17 1235.4,-285.78 1270.64,-272.81"/>
<polygon fill="black" stroke="black" points="1272.3,-275.93 1280.48,-269.2 1269.88,-269.36 1272.3,-275.93"/>
</g>
<!-- 444 -->
<g id="node19" class="node">
<title>444</title>
<polygon fill="#a470ec" stroke="black" points="1050.5,-155 856.5,-155 856.5,-72 1050.5,-72 1050.5,-155"/>
<text text-anchor="middle" x="953.5" y="-139.8" font-family="Times,serif" font-size="14.00">graphDepth &lt;= 3.5</text>
<text text-anchor="middle" x="953.5" y="-124.8" font-family="Times,serif" font-size="14.00">gini = 0.382</text>
<text text-anchor="middle" x="953.5" y="-109.8" font-family="Times,serif" font-size="14.00">samples = 1686</text>
<text text-anchor="middle" x="953.5" y="-94.8" font-family="Times,serif" font-size="14.00">value = [264, 130, 1292]</text>
<text text-anchor="middle" x="953.5" y="-79.8" font-family="Times,serif" font-size="14.00">class = None</text>
</g>
<!-- 443&#45;&gt;444 -->
<g id="edge18" class="edge">
<title>443&#45;&gt;444</title>
<path fill="none" stroke="black" d="M1022.72,-190.91C1014.42,-181.74 1005.53,-171.93 996.98,-162.49"/>
<polygon fill="black" stroke="black" points="999.52,-160.08 990.21,-155.02 994.33,-164.78 999.52,-160.08"/>
</g>
<!-- 479 -->
<g id="node22" class="node">
<title>479</title>
<polygon fill="#9254e9" stroke="black" points="1262.5,-155 1068.5,-155 1068.5,-72 1262.5,-72 1262.5,-155"/>
<text text-anchor="middle" x="1165.5" y="-139.8" font-family="Times,serif" font-size="14.00">sdComp &lt;= 2.0</text>
<text text-anchor="middle" x="1165.5" y="-124.8" font-family="Times,serif" font-size="14.00">gini = 0.23</text>
<text text-anchor="middle" x="1165.5" y="-109.8" font-family="Times,serif" font-size="14.00">samples = 3922</text>
<text text-anchor="middle" x="1165.5" y="-94.8" font-family="Times,serif" font-size="14.00">value = [258, 240, 3424]</text>
<text text-anchor="middle" x="1165.5" y="-79.8" font-family="Times,serif" font-size="14.00">class = None</text>
</g>
<!-- 443&#45;&gt;479 -->
<g id="edge21" class="edge">
<title>443&#45;&gt;479</title>
<path fill="none" stroke="black" d="M1096.28,-190.91C1104.58,-181.74 1113.47,-171.93 1122.02,-162.49"/>
<polygon fill="black" stroke="black" points="1124.67,-164.78 1128.79,-155.02 1119.48,-160.08 1124.67,-164.78"/>
</g>
<!-- 445 -->
<g id="node20" class="node">
<title>445</title>
<polygon fill="#c0c0c0" stroke="black" points="942.5,-36 888.5,-36 888.5,0 942.5,0 942.5,-36"/>
<text text-anchor="middle" x="915.5" y="-14.3" font-family="Times,serif" font-size="14.00">(...)</text>
</g>
<!-- 444&#45;&gt;445 -->
<g id="edge19" class="edge">
<title>444&#45;&gt;445</title>
<path fill="none" stroke="black" d="M936.94,-71.76C933.36,-62.94 929.66,-53.84 926.36,-45.72"/>
<polygon fill="black" stroke="black" points="929.58,-44.35 922.57,-36.41 923.1,-46.99 929.58,-44.35"/>
</g>
<!-- 452 -->
<g id="node21" class="node">
<title>452</title>
<polygon fill="#c0c0c0" stroke="black" points="1014.5,-36 960.5,-36 960.5,0 1014.5,0 1014.5,-36"/>
<text text-anchor="middle" x="987.5" y="-14.3" font-family="Times,serif" font-size="14.00">(...)</text>
</g>
<!-- 444&#45;&gt;452 -->
<g id="edge20" class="edge">
<title>444&#45;&gt;452</title>
<path fill="none" stroke="black" d="M968.31,-71.76C971.48,-63.04 974.76,-54.04 977.68,-45.99"/>
<polygon fill="black" stroke="black" points="981.04,-47 981.17,-36.41 974.46,-44.61 981.04,-47"/>
</g>
<!-- 480 -->
<g id="node23" class="node">
<title>480</title>
<polygon fill="#c0c0c0" stroke="black" points="1154.5,-36 1100.5,-36 1100.5,0 1154.5,0 1154.5,-36"/>
<text text-anchor="middle" x="1127.5" y="-14.3" font-family="Times,serif" font-size="14.00">(...)</text>
</g>
<!-- 479&#45;&gt;480 -->
<g id="edge22" class="edge">
<title>479&#45;&gt;480</title>
<path fill="none" stroke="black" d="M1148.94,-71.76C1145.36,-62.94 1141.66,-53.84 1138.36,-45.72"/>
<polygon fill="black" stroke="black" points="1141.58,-44.35 1134.57,-36.41 1135.1,-46.99 1141.58,-44.35"/>
</g>
<!-- 505 -->
<g id="node24" class="node">
<title>505</title>
<polygon fill="#c0c0c0" stroke="black" points="1226.5,-36 1172.5,-36 1172.5,0 1226.5,0 1226.5,-36"/>
<text text-anchor="middle" x="1199.5" y="-14.3" font-family="Times,serif" font-size="14.00">(...)</text>
</g>
<!-- 479&#45;&gt;505 -->
<g id="edge23" class="edge">
<title>479&#45;&gt;505</title>
<path fill="none" stroke="black" d="M1180.31,-71.76C1183.48,-63.04 1186.76,-54.04 1189.68,-45.99"/>
<polygon fill="black" stroke="black" points="1193.04,-47 1193.17,-36.41 1186.46,-44.61 1193.04,-47"/>
</g>
<!-- 535 -->
<g id="node26" class="node">
<title>535</title>
<polygon fill="#caacf4" stroke="black" points="1474.5,-155 1280.5,-155 1280.5,-72 1474.5,-72 1474.5,-155"/>
<text text-anchor="middle" x="1377.5" y="-139.8" font-family="Times,serif" font-size="14.00">graphSize &lt;= 75.0</text>
<text text-anchor="middle" x="1377.5" y="-124.8" font-family="Times,serif" font-size="14.00">gini = 0.563</text>
<text text-anchor="middle" x="1377.5" y="-109.8" font-family="Times,serif" font-size="14.00">samples = 2522</text>
<text text-anchor="middle" x="1377.5" y="-94.8" font-family="Times,serif" font-size="14.00">value = [710, 344, 1468]</text>
<text text-anchor="middle" x="1377.5" y="-79.8" font-family="Times,serif" font-size="14.00">class = None</text>
</g>
<!-- 534&#45;&gt;535 -->
<g id="edge25" class="edge">
<title>534&#45;&gt;535</title>
<path fill="none" stroke="black" d="M1377.5,-190.91C1377.5,-182.65 1377.5,-173.86 1377.5,-165.3"/>
<polygon fill="black" stroke="black" points="1381,-165.02 1377.5,-155.02 1374,-165.02 1381,-165.02"/>
</g>
<!-- 572 -->
<g id="node29" class="node">
<title>572</title>
<polygon fill="#9457e9" stroke="black" points="1677,-155 1492,-155 1492,-72 1677,-72 1677,-155"/>
<text text-anchor="middle" x="1584.5" y="-139.8" font-family="Times,serif" font-size="14.00">graphSize &lt;= 40.0</text>
<text text-anchor="middle" x="1584.5" y="-124.8" font-family="Times,serif" font-size="14.00">gini = 0.248</text>
<text text-anchor="middle" x="1584.5" y="-109.8" font-family="Times,serif" font-size="14.00">samples = 1432</text>
<text text-anchor="middle" x="1584.5" y="-94.8" font-family="Times,serif" font-size="14.00">value = [94, 104, 1234]</text>
<text text-anchor="middle" x="1584.5" y="-79.8" font-family="Times,serif" font-size="14.00">class = None</text>
</g>
<!-- 534&#45;&gt;572 -->
<g id="edge28" class="edge">
<title>534&#45;&gt;572</title>
<path fill="none" stroke="black" d="M1449.32,-190.91C1466.98,-180.92 1486,-170.17 1504.04,-159.98"/>
<polygon fill="black" stroke="black" points="1505.83,-162.99 1512.81,-155.02 1502.38,-156.89 1505.83,-162.99"/>
</g>
<!-- 536 -->
<g id="node27" class="node">
<title>536</title>
<polygon fill="#c0c0c0" stroke="black" points="1368.5,-36 1314.5,-36 1314.5,0 1368.5,0 1368.5,-36"/>
<text text-anchor="middle" x="1341.5" y="-14.3" font-family="Times,serif" font-size="14.00">(...)</text>
</g>
<!-- 535&#45;&gt;536 -->
<g id="edge26" class="edge">
<title>535&#45;&gt;536</title>
<path fill="none" stroke="black" d="M1361.81,-71.76C1358.46,-63.04 1354.99,-54.04 1351.89,-45.99"/>
<polygon fill="black" stroke="black" points="1355.06,-44.48 1348.2,-36.41 1348.53,-46.99 1355.06,-44.48"/>
</g>
<!-- 563 -->
<g id="node28" class="node">
<title>563</title>
<polygon fill="#c0c0c0" stroke="black" points="1440.5,-36 1386.5,-36 1386.5,0 1440.5,0 1440.5,-36"/>
<text text-anchor="middle" x="1413.5" y="-14.3" font-family="Times,serif" font-size="14.00">(...)</text>
</g>
<!-- 535&#45;&gt;563 -->
<g id="edge27" class="edge">
<title>535&#45;&gt;563</title>
<path fill="none" stroke="black" d="M1393.19,-71.76C1396.54,-63.04 1400.01,-54.04 1403.11,-45.99"/>
<polygon fill="black" stroke="black" points="1406.47,-46.99 1406.8,-36.41 1399.94,-44.48 1406.47,-46.99"/>
</g>
<!-- 573 -->
<g id="node30" class="node">
<title>573</title>
<polygon fill="#c0c0c0" stroke="black" points="1575.5,-36 1521.5,-36 1521.5,0 1575.5,0 1575.5,-36"/>
<text text-anchor="middle" x="1548.5" y="-14.3" font-family="Times,serif" font-size="14.00">(...)</text>
</g>
<!-- 572&#45;&gt;573 -->
<g id="edge29" class="edge">
<title>572&#45;&gt;573</title>
<path fill="none" stroke="black" d="M1568.81,-71.76C1565.46,-63.04 1561.99,-54.04 1558.89,-45.99"/>
<polygon fill="black" stroke="black" points="1562.06,-44.48 1555.2,-36.41 1555.53,-46.99 1562.06,-44.48"/>
</g>
<!-- 592 -->
<g id="node31" class="node">
<title>592</title>
<polygon fill="#c0c0c0" stroke="black" points="1647.5,-36 1593.5,-36 1593.5,0 1647.5,0 1647.5,-36"/>
<text text-anchor="middle" x="1620.5" y="-14.3" font-family="Times,serif" font-size="14.00">(...)</text>
</g>
<!-- 572&#45;&gt;592 -->
<g id="edge30" class="edge">
<title>572&#45;&gt;592</title>
<path fill="none" stroke="black" d="M1600.19,-71.76C1603.54,-63.04 1607.01,-54.04 1610.11,-45.99"/>
<polygon fill="black" stroke="black" points="1613.47,-46.99 1613.8,-36.41 1606.94,-44.48 1613.47,-46.99"/>
</g>
</g>
</svg>
