<?xml version="1.0" encoding="UTF-8" standalone="no"?>
<!DOCTYPE svg PUBLIC "-//W3C//DTD SVG 1.1//EN"
 "http://www.w3.org/Graphics/SVG/1.1/DTD/svg11.dtd">
<!-- Generated by graphviz version 2.43.0 (0)
 -->
<!-- Title: Tree Pages: 1 -->
<svg width="1407pt" height="520pt"
 viewBox="0.00 0.00 1407.00 520.00" xmlns="http://www.w3.org/2000/svg" xmlns:xlink="http://www.w3.org/1999/xlink">
<g id="graph0" class="graph" transform="scale(1 1) rotate(0) translate(4 516)">
<title>Tree</title>
<polygon fill="white" stroke="transparent" points="-4,4 -4,-516 1403,-516 1403,4 -4,4"/>
<!-- 0 -->
<g id="node1" class="node">
<title>0</title>
<polygon fill="#bcdef6" stroke="black" points="776,-512 591,-512 591,-429 776,-429 776,-512"/>
<text text-anchor="middle" x="683.5" y="-496.8" font-family="Times,serif" font-size="14.00">nbproc &lt;= 4.5</text>
<text text-anchor="middle" x="683.5" y="-481.8" font-family="Times,serif" font-size="14.00">gini = 0.479</text>
<text text-anchor="middle" x="683.5" y="-466.8" font-family="Times,serif" font-size="14.00">samples = 35106</text>
<text text-anchor="middle" x="683.5" y="-451.8" font-family="Times,serif" font-size="14.00">value = [13966, 21140]</text>
<text text-anchor="middle" x="683.5" y="-436.8" font-family="Times,serif" font-size="14.00">class = True</text>
</g>
<!-- 1 -->
<g id="node2" class="node">
<title>1</title>
<polygon fill="#9dcef2" stroke="black" points="582,-393 415,-393 415,-310 582,-310 582,-393"/>
<text text-anchor="middle" x="498.5" y="-377.8" font-family="Times,serif" font-size="14.00">graphDepth &lt;= 3.5</text>
<text text-anchor="middle" x="498.5" y="-362.8" font-family="Times,serif" font-size="14.00">gini = 0.446</text>
<text text-anchor="middle" x="498.5" y="-347.8" font-family="Times,serif" font-size="14.00">samples = 12833</text>
<text text-anchor="middle" x="498.5" y="-332.8" font-family="Times,serif" font-size="14.00">value = [4303, 8530]</text>
<text text-anchor="middle" x="498.5" y="-317.8" font-family="Times,serif" font-size="14.00">class = True</text>
</g>
<!-- 0&#45;&gt;1 -->
<g id="edge1" class="edge">
<title>0&#45;&gt;1</title>
<path fill="none" stroke="black" d="M619.32,-428.91C603.82,-419.11 587.15,-408.56 571.29,-398.53"/>
<polygon fill="black" stroke="black" points="572.89,-395.41 562.57,-393.02 569.15,-401.32 572.89,-395.41"/>
<text text-anchor="middle" x="568.06" y="-413.71" font-family="Times,serif" font-size="14.00">True</text>
</g>
<!-- 348 -->
<g id="node15" class="node">
<title>348</title>
<polygon fill="#d1e8f9" stroke="black" points="958.5,-393 782.5,-393 782.5,-310 958.5,-310 958.5,-393"/>
<text text-anchor="middle" x="870.5" y="-377.8" font-family="Times,serif" font-size="14.00">sdComp &lt;= 0.65</text>
<text text-anchor="middle" x="870.5" y="-362.8" font-family="Times,serif" font-size="14.00">gini = 0.491</text>
<text text-anchor="middle" x="870.5" y="-347.8" font-family="Times,serif" font-size="14.00">samples = 22273</text>
<text text-anchor="middle" x="870.5" y="-332.8" font-family="Times,serif" font-size="14.00">value = [9663, 12610]</text>
<text text-anchor="middle" x="870.5" y="-317.8" font-family="Times,serif" font-size="14.00">class = True</text>
</g>
<!-- 0&#45;&gt;348 -->
<g id="edge14" class="edge">
<title>0&#45;&gt;348</title>
<path fill="none" stroke="black" d="M748.38,-428.91C764.04,-419.11 780.9,-408.56 796.93,-398.53"/>
<polygon fill="black" stroke="black" points="799.11,-401.29 805.74,-393.02 795.4,-395.36 799.11,-401.29"/>
<text text-anchor="middle" x="800.13" y="-413.68" font-family="Times,serif" font-size="14.00">False</text>
</g>
<!-- 2 -->
<g id="node3" class="node">
<title>2</title>
<polygon fill="#6ab5eb" stroke="black" points="307.5,-274 149.5,-274 149.5,-191 307.5,-191 307.5,-274"/>
<text text-anchor="middle" x="228.5" y="-258.8" font-family="Times,serif" font-size="14.00">sdComp &lt;= 0.065</text>
<text text-anchor="middle" x="228.5" y="-243.8" font-family="Times,serif" font-size="14.00">gini = 0.319</text>
<text text-anchor="middle" x="228.5" y="-228.8" font-family="Times,serif" font-size="14.00">samples = 1516</text>
<text text-anchor="middle" x="228.5" y="-213.8" font-family="Times,serif" font-size="14.00">value = [302, 1214]</text>
<text text-anchor="middle" x="228.5" y="-198.8" font-family="Times,serif" font-size="14.00">class = True</text>
</g>
<!-- 1&#45;&gt;2 -->
<g id="edge2" class="edge">
<title>1&#45;&gt;2</title>
<path fill="none" stroke="black" d="M414.92,-314.28C383.77,-300.78 348.32,-285.42 316.76,-271.75"/>
<polygon fill="black" stroke="black" points="318.1,-268.51 307.54,-267.75 315.32,-274.94 318.1,-268.51"/>
</g>
<!-- 35 -->
<g id="node8" class="node">
<title>35</title>
<polygon fill="#a5d3f3" stroke="black" points="582,-274 415,-274 415,-191 582,-191 582,-274"/>
<text text-anchor="middle" x="498.5" y="-258.8" font-family="Times,serif" font-size="14.00">graphSize &lt;= 22.5</text>
<text text-anchor="middle" x="498.5" y="-243.8" font-family="Times,serif" font-size="14.00">gini = 0.457</text>
<text text-anchor="middle" x="498.5" y="-228.8" font-family="Times,serif" font-size="14.00">samples = 11317</text>
<text text-anchor="middle" x="498.5" y="-213.8" font-family="Times,serif" font-size="14.00">value = [4001, 7316]</text>
<text text-anchor="middle" x="498.5" y="-198.8" font-family="Times,serif" font-size="14.00">class = True</text>
</g>
<!-- 1&#45;&gt;35 -->
<g id="edge7" class="edge">
<title>1&#45;&gt;35</title>
<path fill="none" stroke="black" d="M498.5,-309.91C498.5,-301.65 498.5,-292.86 498.5,-284.3"/>
<polygon fill="black" stroke="black" points="502,-284.02 498.5,-274.02 495,-284.02 502,-284.02"/>
</g>
<!-- 3 -->
<g id="node4" class="node">
<title>3</title>
<polygon fill="#399de5" stroke="black" points="131,-147.5 0,-147.5 0,-79.5 131,-79.5 131,-147.5"/>
<text text-anchor="middle" x="65.5" y="-132.3" font-family="Times,serif" font-size="14.00">gini = 0.0</text>
<text text-anchor="middle" x="65.5" y="-117.3" font-family="Times,serif" font-size="14.00">samples = 158</text>
<text text-anchor="middle" x="65.5" y="-102.3" font-family="Times,serif" font-size="14.00">value = [0, 158]</text>
<text text-anchor="middle" x="65.5" y="-87.3" font-family="Times,serif" font-size="14.00">class = True</text>
</g>
<!-- 2&#45;&gt;3 -->
<g id="edge3" class="edge">
<title>2&#45;&gt;3</title>
<path fill="none" stroke="black" d="M171.95,-190.91C155.19,-178.88 136.88,-165.73 120.24,-153.79"/>
<polygon fill="black" stroke="black" points="121.87,-150.65 111.71,-147.67 117.79,-156.34 121.87,-150.65"/>
</g>
<!-- 4 -->
<g id="node5" class="node">
<title>4</title>
<polygon fill="#72b9ec" stroke="black" points="307.5,-155 149.5,-155 149.5,-72 307.5,-72 307.5,-155"/>
<text text-anchor="middle" x="228.5" y="-139.8" font-family="Times,serif" font-size="14.00">sdComm &lt;= 0.065</text>
<text text-anchor="middle" x="228.5" y="-124.8" font-family="Times,serif" font-size="14.00">gini = 0.346</text>
<text text-anchor="middle" x="228.5" y="-109.8" font-family="Times,serif" font-size="14.00">samples = 1358</text>
<text text-anchor="middle" x="228.5" y="-94.8" font-family="Times,serif" font-size="14.00">value = [302, 1056]</text>
<text text-anchor="middle" x="228.5" y="-79.8" font-family="Times,serif" font-size="14.00">class = True</text>
</g>
<!-- 2&#45;&gt;4 -->
<g id="edge4" class="edge">
<title>2&#45;&gt;4</title>
<path fill="none" stroke="black" d="M228.5,-190.91C228.5,-182.65 228.5,-173.86 228.5,-165.3"/>
<polygon fill="black" stroke="black" points="232,-165.02 228.5,-155.02 225,-165.02 232,-165.02"/>
</g>
<!-- 5 -->
<g id="node6" class="node">
<title>5</title>
<polygon fill="#c0c0c0" stroke="black" points="219.5,-36 165.5,-36 165.5,0 219.5,0 219.5,-36"/>
<text text-anchor="middle" x="192.5" y="-14.3" font-family="Times,serif" font-size="14.00">(...)</text>
</g>
<!-- 4&#45;&gt;5 -->
<g id="edge5" class="edge">
<title>4&#45;&gt;5</title>
<path fill="none" stroke="black" d="M212.81,-71.76C209.46,-63.04 205.99,-54.04 202.89,-45.99"/>
<polygon fill="black" stroke="black" points="206.06,-44.48 199.2,-36.41 199.53,-46.99 206.06,-44.48"/>
</g>
<!-- 8 -->
<g id="node7" class="node">
<title>8</title>
<polygon fill="#c0c0c0" stroke="black" points="291.5,-36 237.5,-36 237.5,0 291.5,0 291.5,-36"/>
<text text-anchor="middle" x="264.5" y="-14.3" font-family="Times,serif" font-size="14.00">(...)</text>
</g>
<!-- 4&#45;&gt;8 -->
<g id="edge6" class="edge">
<title>4&#45;&gt;8</title>
<path fill="none" stroke="black" d="M244.19,-71.76C247.54,-63.04 251.01,-54.04 254.11,-45.99"/>
<polygon fill="black" stroke="black" points="257.47,-46.99 257.8,-36.41 250.94,-44.48 257.47,-46.99"/>
</g>
<!-- 36 -->
<g id="node9" class="node">
<title>36</title>
<polygon fill="#baddf6" stroke="black" points="492,-155 325,-155 325,-72 492,-72 492,-155"/>
<text text-anchor="middle" x="408.5" y="-139.8" font-family="Times,serif" font-size="14.00">sdComm &lt;= 0.2</text>
<text text-anchor="middle" x="408.5" y="-124.8" font-family="Times,serif" font-size="14.00">gini = 0.478</text>
<text text-anchor="middle" x="408.5" y="-109.8" font-family="Times,serif" font-size="14.00">samples = 6206</text>
<text text-anchor="middle" x="408.5" y="-94.8" font-family="Times,serif" font-size="14.00">value = [2446, 3760]</text>
<text text-anchor="middle" x="408.5" y="-79.8" font-family="Times,serif" font-size="14.00">class = True</text>
</g>
<!-- 35&#45;&gt;36 -->
<g id="edge8" class="edge">
<title>35&#45;&gt;36</title>
<path fill="none" stroke="black" d="M467.27,-190.91C460.36,-181.92 452.97,-172.32 445.85,-163.05"/>
<polygon fill="black" stroke="black" points="448.54,-160.81 439.67,-155.02 442.99,-165.08 448.54,-160.81"/>
</g>
<!-- 89 -->
<g id="node12" class="node">
<title>89</title>
<polygon fill="#90c8f0" stroke="black" points="677,-155 510,-155 510,-72 677,-72 677,-155"/>
<text text-anchor="middle" x="593.5" y="-139.8" font-family="Times,serif" font-size="14.00">graphDepth &lt;= 9.0</text>
<text text-anchor="middle" x="593.5" y="-124.8" font-family="Times,serif" font-size="14.00">gini = 0.423</text>
<text text-anchor="middle" x="593.5" y="-109.8" font-family="Times,serif" font-size="14.00">samples = 5111</text>
<text text-anchor="middle" x="593.5" y="-94.8" font-family="Times,serif" font-size="14.00">value = [1555, 3556]</text>
<text text-anchor="middle" x="593.5" y="-79.8" font-family="Times,serif" font-size="14.00">class = True</text>
</g>
<!-- 35&#45;&gt;89 -->
<g id="edge11" class="edge">
<title>35&#45;&gt;89</title>
<path fill="none" stroke="black" d="M531.46,-190.91C538.75,-181.92 546.56,-172.32 554.08,-163.05"/>
<polygon fill="black" stroke="black" points="557.01,-164.99 560.6,-155.02 551.58,-160.58 557.01,-164.99"/>
</g>
<!-- 37 -->
<g id="node10" class="node">
<title>37</title>
<polygon fill="#c0c0c0" stroke="black" points="418.5,-36 364.5,-36 364.5,0 418.5,0 418.5,-36"/>
<text text-anchor="middle" x="391.5" y="-14.3" font-family="Times,serif" font-size="14.00">(...)</text>
</g>
<!-- 36&#45;&gt;37 -->
<g id="edge9" class="edge">
<title>36&#45;&gt;37</title>
<path fill="none" stroke="black" d="M401.09,-71.76C399.53,-63.14 397.91,-54.24 396.46,-46.26"/>
<polygon fill="black" stroke="black" points="399.9,-45.62 394.66,-36.41 393.01,-46.87 399.9,-45.62"/>
</g>
<!-- 60 -->
<g id="node11" class="node">
<title>60</title>
<polygon fill="#c0c0c0" stroke="black" points="490.5,-36 436.5,-36 436.5,0 490.5,0 490.5,-36"/>
<text text-anchor="middle" x="463.5" y="-14.3" font-family="Times,serif" font-size="14.00">(...)</text>
</g>
<!-- 36&#45;&gt;60 -->
<g id="edge10" class="edge">
<title>36&#45;&gt;60</title>
<path fill="none" stroke="black" d="M432.46,-71.76C437.76,-62.75 443.24,-53.44 448.09,-45.19"/>
<polygon fill="black" stroke="black" points="451.21,-46.8 453.26,-36.41 445.17,-43.25 451.21,-46.8"/>
</g>
<!-- 90 -->
<g id="node13" class="node">
<title>90</title>
<polygon fill="#c0c0c0" stroke="black" points="564.5,-36 510.5,-36 510.5,0 564.5,0 564.5,-36"/>
<text text-anchor="middle" x="537.5" y="-14.3" font-family="Times,serif" font-size="14.00">(...)</text>
</g>
<!-- 89&#45;&gt;90 -->
<g id="edge12" class="edge">
<title>89&#45;&gt;90</title>
<path fill="none" stroke="black" d="M569.1,-71.76C563.7,-62.75 558.13,-53.44 553.19,-45.19"/>
<polygon fill="black" stroke="black" points="556.07,-43.19 547.92,-36.41 550.06,-46.78 556.07,-43.19"/>
</g>
<!-- 175 -->
<g id="node14" class="node">
<title>175</title>
<polygon fill="#c0c0c0" stroke="black" points="636.5,-36 582.5,-36 582.5,0 636.5,0 636.5,-36"/>
<text text-anchor="middle" x="609.5" y="-14.3" font-family="Times,serif" font-size="14.00">(...)</text>
</g>
<!-- 89&#45;&gt;175 -->
<g id="edge13" class="edge">
<title>89&#45;&gt;175</title>
<path fill="none" stroke="black" d="M600.47,-71.76C601.93,-63.24 603.44,-54.44 604.79,-46.53"/>
<polygon fill="black" stroke="black" points="608.28,-46.85 606.52,-36.41 601.38,-45.67 608.28,-46.85"/>
</g>
<!-- 349 -->
<g id="node16" class="node">
<title>349</title>
<polygon fill="#dceefa" stroke="black" points="954,-274 787,-274 787,-191 954,-191 954,-274"/>
<text text-anchor="middle" x="870.5" y="-258.8" font-family="Times,serif" font-size="14.00">graphSize &lt;= 22.5</text>
<text text-anchor="middle" x="870.5" y="-243.8" font-family="Times,serif" font-size="14.00">gini = 0.495</text>
<text text-anchor="middle" x="870.5" y="-228.8" font-family="Times,serif" font-size="14.00">samples = 16117</text>
<text text-anchor="middle" x="870.5" y="-213.8" font-family="Times,serif" font-size="14.00">value = [7284, 8833]</text>
<text text-anchor="middle" x="870.5" y="-198.8" font-family="Times,serif" font-size="14.00">class = True</text>
</g>
<!-- 348&#45;&gt;349 -->
<g id="edge15" class="edge">
<title>348&#45;&gt;349</title>
<path fill="none" stroke="black" d="M870.5,-309.91C870.5,-301.65 870.5,-292.86 870.5,-284.3"/>
<polygon fill="black" stroke="black" points="874,-284.02 870.5,-274.02 867,-284.02 874,-284.02"/>
</g>
<!-- 564 -->
<g id="node23" class="node">
<title>564</title>
<polygon fill="#b6dbf5" stroke="black" points="1232,-274 1065,-274 1065,-191 1232,-191 1232,-274"/>
<text text-anchor="middle" x="1148.5" y="-258.8" font-family="Times,serif" font-size="14.00">graphDepth &lt;= 25.5</text>
<text text-anchor="middle" x="1148.5" y="-243.8" font-family="Times,serif" font-size="14.00">gini = 0.474</text>
<text text-anchor="middle" x="1148.5" y="-228.8" font-family="Times,serif" font-size="14.00">samples = 6156</text>
<text text-anchor="middle" x="1148.5" y="-213.8" font-family="Times,serif" font-size="14.00">value = [2379, 3777]</text>
<text text-anchor="middle" x="1148.5" y="-198.8" font-family="Times,serif" font-size="14.00">class = True</text>
</g>
<!-- 348&#45;&gt;564 -->
<g id="edge22" class="edge">
<title>348&#45;&gt;564</title>
<path fill="none" stroke="black" d="M958.84,-313.32C989.53,-300.4 1024.04,-285.88 1055.12,-272.8"/>
<polygon fill="black" stroke="black" points="1056.79,-275.89 1064.65,-268.79 1054.08,-269.44 1056.79,-275.89"/>
</g>
<!-- 350 -->
<g id="node17" class="node">
<title>350</title>
<polygon fill="#e7f3fc" stroke="black" points="862,-155 695,-155 695,-72 862,-72 862,-155"/>
<text text-anchor="middle" x="778.5" y="-139.8" font-family="Times,serif" font-size="14.00">graphDepth &lt;= 3.5</text>
<text text-anchor="middle" x="778.5" y="-124.8" font-family="Times,serif" font-size="14.00">gini = 0.498</text>
<text text-anchor="middle" x="778.5" y="-109.8" font-family="Times,serif" font-size="14.00">samples = 11927</text>
<text text-anchor="middle" x="778.5" y="-94.8" font-family="Times,serif" font-size="14.00">value = [5574, 6353]</text>
<text text-anchor="middle" x="778.5" y="-79.8" font-family="Times,serif" font-size="14.00">class = True</text>
</g>
<!-- 349&#45;&gt;350 -->
<g id="edge16" class="edge">
<title>349&#45;&gt;350</title>
<path fill="none" stroke="black" d="M838.58,-190.91C831.52,-181.92 823.96,-172.32 816.68,-163.05"/>
<polygon fill="black" stroke="black" points="819.3,-160.72 810.36,-155.02 813.79,-165.05 819.3,-160.72"/>
</g>
<!-- 409 -->
<g id="node20" class="node">
<title>409</title>
<polygon fill="#c2e1f7" stroke="black" points="1047,-155 880,-155 880,-72 1047,-72 1047,-155"/>
<text text-anchor="middle" x="963.5" y="-139.8" font-family="Times,serif" font-size="14.00">graphDepth &lt;= 9.0</text>
<text text-anchor="middle" x="963.5" y="-124.8" font-family="Times,serif" font-size="14.00">gini = 0.483</text>
<text text-anchor="middle" x="963.5" y="-109.8" font-family="Times,serif" font-size="14.00">samples = 4190</text>
<text text-anchor="middle" x="963.5" y="-94.8" font-family="Times,serif" font-size="14.00">value = [1710, 2480]</text>
<text text-anchor="middle" x="963.5" y="-79.8" font-family="Times,serif" font-size="14.00">class = True</text>
</g>
<!-- 349&#45;&gt;409 -->
<g id="edge19" class="edge">
<title>349&#45;&gt;409</title>
<path fill="none" stroke="black" d="M902.77,-190.91C909.91,-181.92 917.54,-172.32 924.91,-163.05"/>
<polygon fill="black" stroke="black" points="927.81,-165.03 931.29,-155.02 922.33,-160.67 927.81,-165.03"/>
</g>
<!-- 351 -->
<g id="node18" class="node">
<title>351</title>
<polygon fill="#c0c0c0" stroke="black" points="753.5,-36 699.5,-36 699.5,0 753.5,0 753.5,-36"/>
<text text-anchor="middle" x="726.5" y="-14.3" font-family="Times,serif" font-size="14.00">(...)</text>
</g>
<!-- 350&#45;&gt;351 -->
<g id="edge17" class="edge">
<title>350&#45;&gt;351</title>
<path fill="none" stroke="black" d="M755.84,-71.76C750.83,-62.75 745.65,-53.44 741.07,-45.19"/>
<polygon fill="black" stroke="black" points="744.1,-43.44 736.18,-36.41 737.98,-46.85 744.1,-43.44"/>
</g>
<!-- 380 -->
<g id="node19" class="node">
<title>380</title>
<polygon fill="#c0c0c0" stroke="black" points="825.5,-36 771.5,-36 771.5,0 825.5,0 825.5,-36"/>
<text text-anchor="middle" x="798.5" y="-14.3" font-family="Times,serif" font-size="14.00">(...)</text>
</g>
<!-- 350&#45;&gt;380 -->
<g id="edge18" class="edge">
<title>350&#45;&gt;380</title>
<path fill="none" stroke="black" d="M787.21,-71.76C789.06,-63.14 790.96,-54.24 792.67,-46.26"/>
<polygon fill="black" stroke="black" points="796.11,-46.92 794.78,-36.41 789.26,-45.45 796.11,-46.92"/>
</g>
<!-- 410 -->
<g id="node21" class="node">
<title>410</title>
<polygon fill="#c0c0c0" stroke="black" points="938.5,-36 884.5,-36 884.5,0 938.5,0 938.5,-36"/>
<text text-anchor="middle" x="911.5" y="-14.3" font-family="Times,serif" font-size="14.00">(...)</text>
</g>
<!-- 409&#45;&gt;410 -->
<g id="edge20" class="edge">
<title>409&#45;&gt;410</title>
<path fill="none" stroke="black" d="M940.84,-71.76C935.83,-62.75 930.65,-53.44 926.07,-45.19"/>
<polygon fill="black" stroke="black" points="929.1,-43.44 921.18,-36.41 922.98,-46.85 929.1,-43.44"/>
</g>
<!-- 467 -->
<g id="node22" class="node">
<title>467</title>
<polygon fill="#c0c0c0" stroke="black" points="1010.5,-36 956.5,-36 956.5,0 1010.5,0 1010.5,-36"/>
<text text-anchor="middle" x="983.5" y="-14.3" font-family="Times,serif" font-size="14.00">(...)</text>
</g>
<!-- 409&#45;&gt;467 -->
<g id="edge21" class="edge">
<title>409&#45;&gt;467</title>
<path fill="none" stroke="black" d="M972.21,-71.76C974.06,-63.14 975.96,-54.24 977.67,-46.26"/>
<polygon fill="black" stroke="black" points="981.11,-46.92 979.78,-36.41 974.26,-45.45 981.11,-46.92"/>
</g>
<!-- 565 -->
<g id="node24" class="node">
<title>565</title>
<polygon fill="#b2d9f5" stroke="black" points="1232,-155 1065,-155 1065,-72 1232,-72 1232,-155"/>
<text text-anchor="middle" x="1148.5" y="-139.8" font-family="Times,serif" font-size="14.00">graphSize &lt;= 22.5</text>
<text text-anchor="middle" x="1148.5" y="-124.8" font-family="Times,serif" font-size="14.00">gini = 0.471</text>
<text text-anchor="middle" x="1148.5" y="-109.8" font-family="Times,serif" font-size="14.00">samples = 5478</text>
<text text-anchor="middle" x="1148.5" y="-94.8" font-family="Times,serif" font-size="14.00">value = [2083, 3395]</text>
<text text-anchor="middle" x="1148.5" y="-79.8" font-family="Times,serif" font-size="14.00">class = True</text>
</g>
<!-- 564&#45;&gt;565 -->
<g id="edge23" class="edge">
<title>564&#45;&gt;565</title>
<path fill="none" stroke="black" d="M1148.5,-190.91C1148.5,-182.65 1148.5,-173.86 1148.5,-165.3"/>
<polygon fill="black" stroke="black" points="1152,-165.02 1148.5,-155.02 1145,-165.02 1152,-165.02"/>
</g>
<!-- 704 -->
<g id="node27" class="node">
<title>704</title>
<polygon fill="#d2e9f9" stroke="black" points="1399,-155 1250,-155 1250,-72 1399,-72 1399,-155"/>
<text text-anchor="middle" x="1324.5" y="-139.8" font-family="Times,serif" font-size="14.00">sdComm &lt;= 0.65</text>
<text text-anchor="middle" x="1324.5" y="-124.8" font-family="Times,serif" font-size="14.00">gini = 0.492</text>
<text text-anchor="middle" x="1324.5" y="-109.8" font-family="Times,serif" font-size="14.00">samples = 678</text>
<text text-anchor="middle" x="1324.5" y="-94.8" font-family="Times,serif" font-size="14.00">value = [296, 382]</text>
<text text-anchor="middle" x="1324.5" y="-79.8" font-family="Times,serif" font-size="14.00">class = True</text>
</g>
<!-- 564&#45;&gt;704 -->
<g id="edge26" class="edge">
<title>564&#45;&gt;704</title>
<path fill="none" stroke="black" d="M1209.56,-190.91C1224.17,-181.2 1239.87,-170.76 1254.84,-160.81"/>
<polygon fill="black" stroke="black" points="1257.16,-163.47 1263.55,-155.02 1253.28,-157.64 1257.16,-163.47"/>
</g>
<!-- 566 -->
<g id="node25" class="node">
<title>566</title>
<polygon fill="#c0c0c0" stroke="black" points="1137.5,-36 1083.5,-36 1083.5,0 1137.5,0 1137.5,-36"/>
<text text-anchor="middle" x="1110.5" y="-14.3" font-family="Times,serif" font-size="14.00">(...)</text>
</g>
<!-- 565&#45;&gt;566 -->
<g id="edge24" class="edge">
<title>565&#45;&gt;566</title>
<path fill="none" stroke="black" d="M1131.94,-71.76C1128.36,-62.94 1124.66,-53.84 1121.36,-45.72"/>
<polygon fill="black" stroke="black" points="1124.58,-44.35 1117.57,-36.41 1118.1,-46.99 1124.58,-44.35"/>
</g>
<!-- 611 -->
<g id="node26" class="node">
<title>611</title>
<polygon fill="#c0c0c0" stroke="black" points="1209.5,-36 1155.5,-36 1155.5,0 1209.5,0 1209.5,-36"/>
<text text-anchor="middle" x="1182.5" y="-14.3" font-family="Times,serif" font-size="14.00">(...)</text>
</g>
<!-- 565&#45;&gt;611 -->
<g id="edge25" class="edge">
<title>565&#45;&gt;611</title>
<path fill="none" stroke="black" d="M1163.31,-71.76C1166.48,-63.04 1169.76,-54.04 1172.68,-45.99"/>
<polygon fill="black" stroke="black" points="1176.04,-47 1176.17,-36.41 1169.46,-44.61 1176.04,-47"/>
</g>
<!-- 705 -->
<g id="node28" class="node">
<title>705</title>
<polygon fill="#c0c0c0" stroke="black" points="1315.5,-36 1261.5,-36 1261.5,0 1315.5,0 1315.5,-36"/>
<text text-anchor="middle" x="1288.5" y="-14.3" font-family="Times,serif" font-size="14.00">(...)</text>
</g>
<!-- 704&#45;&gt;705 -->
<g id="edge27" class="edge">
<title>704&#45;&gt;705</title>
<path fill="none" stroke="black" d="M1308.81,-71.76C1305.46,-63.04 1301.99,-54.04 1298.89,-45.99"/>
<polygon fill="black" stroke="black" points="1302.06,-44.48 1295.2,-36.41 1295.53,-46.99 1302.06,-44.48"/>
</g>
<!-- 706 -->
<g id="node29" class="node">
<title>706</title>
<polygon fill="#c0c0c0" stroke="black" points="1387.5,-36 1333.5,-36 1333.5,0 1387.5,0 1387.5,-36"/>
<text text-anchor="middle" x="1360.5" y="-14.3" font-family="Times,serif" font-size="14.00">(...)</text>
</g>
<!-- 704&#45;&gt;706 -->
<g id="edge28" class="edge">
<title>704&#45;&gt;706</title>
<path fill="none" stroke="black" d="M1340.19,-71.76C1343.54,-63.04 1347.01,-54.04 1350.11,-45.99"/>
<polygon fill="black" stroke="black" points="1353.47,-46.99 1353.8,-36.41 1346.94,-44.48 1353.47,-46.99"/>
</g>
</g>
</svg>
