<?xml version="1.0" encoding="UTF-8" standalone="no"?>
<!DOCTYPE svg PUBLIC "-//W3C//DTD SVG 1.1//EN"
 "http://www.w3.org/Graphics/SVG/1.1/DTD/svg11.dtd">
<!-- Generated by graphviz version 2.43.0 (0)
 -->
<!-- Title: Tree Pages: 1 -->
<svg width="2498pt" height="520pt"
 viewBox="0.00 0.00 2497.50 520.00" xmlns="http://www.w3.org/2000/svg" xmlns:xlink="http://www.w3.org/1999/xlink">
<g id="graph0" class="graph" transform="scale(1 1) rotate(0) translate(4 516)">
<title>Tree</title>
<polygon fill="white" stroke="transparent" points="-4,4 -4,-516 2493.5,-516 2493.5,4 -4,4"/>
<!-- 0 -->
<g id="node1" class="node">
<title>0</title>
<polygon fill="#ffffff" stroke="black" points="1251.5,-512 904.5,-512 904.5,-429 1251.5,-429 1251.5,-512"/>
<text text-anchor="middle" x="1078" y="-496.8" font-family="Times,serif" font-size="14.00">sdComp &lt;= 0.02</text>
<text text-anchor="middle" x="1078" y="-481.8" font-family="Times,serif" font-size="14.00">gini = 0.833</text>
<text text-anchor="middle" x="1078" y="-466.8" font-family="Times,serif" font-size="14.00">samples = 35106</text>
<text text-anchor="middle" x="1078" y="-451.8" font-family="Times,serif" font-size="14.00">value = [5816, 5734, 5992, 5786, 5786, 5992]</text>
<text text-anchor="middle" x="1078" y="-436.8" font-family="Times,serif" font-size="14.00">class = maxmax</text>
</g>
<!-- 1 -->
<g id="node2" class="node">
<title>1</title>
<polygon fill="#ffffff" stroke="black" points="958.5,-393 665.5,-393 665.5,-310 958.5,-310 958.5,-393"/>
<text text-anchor="middle" x="812" y="-377.8" font-family="Times,serif" font-size="14.00">graphDepth &lt;= 13.5</text>
<text text-anchor="middle" x="812" y="-362.8" font-family="Times,serif" font-size="14.00">gini = 0.832</text>
<text text-anchor="middle" x="812" y="-347.8" font-family="Times,serif" font-size="14.00">samples = 2684</text>
<text text-anchor="middle" x="812" y="-332.8" font-family="Times,serif" font-size="14.00">value = [380, 424, 450, 490, 490, 450]</text>
<text text-anchor="middle" x="812" y="-317.8" font-family="Times,serif" font-size="14.00">class = minmax</text>
</g>
<!-- 0&#45;&gt;1 -->
<g id="edge1" class="edge">
<title>0&#45;&gt;1</title>
<path fill="none" stroke="black" d="M985.71,-428.91C962.4,-418.65 937.24,-407.59 913.5,-397.14"/>
<polygon fill="black" stroke="black" points="914.69,-393.84 904.12,-393.02 911.87,-400.25 914.69,-393.84"/>
<text text-anchor="middle" x="913.19" y="-412.62" font-family="Times,serif" font-size="14.00">True</text>
</g>
<!-- 84 -->
<g id="node17" class="node">
<title>84</title>
<polygon fill="#ffffff" stroke="black" points="1590.5,-393 1243.5,-393 1243.5,-310 1590.5,-310 1590.5,-393"/>
<text text-anchor="middle" x="1417" y="-377.8" font-family="Times,serif" font-size="14.00">CCR &lt;= 0.55</text>
<text text-anchor="middle" x="1417" y="-362.8" font-family="Times,serif" font-size="14.00">gini = 0.833</text>
<text text-anchor="middle" x="1417" y="-347.8" font-family="Times,serif" font-size="14.00">samples = 32422</text>
<text text-anchor="middle" x="1417" y="-332.8" font-family="Times,serif" font-size="14.00">value = [5436, 5310, 5542, 5296, 5296, 5542]</text>
<text text-anchor="middle" x="1417" y="-317.8" font-family="Times,serif" font-size="14.00">class = maxmax</text>
</g>
<!-- 0&#45;&gt;84 -->
<g id="edge16" class="edge">
<title>0&#45;&gt;84</title>
<path fill="none" stroke="black" d="M1195.61,-428.91C1226.12,-418.38 1259.1,-407 1290.06,-396.31"/>
<polygon fill="black" stroke="black" points="1291.28,-399.59 1299.59,-393.02 1289,-392.97 1291.28,-399.59"/>
<text text-anchor="middle" x="1288.65" y="-411.8" font-family="Times,serif" font-size="14.00">False</text>
</g>
<!-- 2 -->
<g id="node3" class="node">
<title>2</title>
<polygon fill="#ffffff" stroke="black" points="577.5,-274 284.5,-274 284.5,-191 577.5,-191 577.5,-274"/>
<text text-anchor="middle" x="431" y="-258.8" font-family="Times,serif" font-size="14.00">sdComm &lt;= 0.02</text>
<text text-anchor="middle" x="431" y="-243.8" font-family="Times,serif" font-size="14.00">gini = 0.833</text>
<text text-anchor="middle" x="431" y="-228.8" font-family="Times,serif" font-size="14.00">samples = 2380</text>
<text text-anchor="middle" x="431" y="-213.8" font-family="Times,serif" font-size="14.00">value = [348, 404, 398, 416, 416, 398]</text>
<text text-anchor="middle" x="431" y="-198.8" font-family="Times,serif" font-size="14.00">class = minmax</text>
</g>
<!-- 1&#45;&gt;2 -->
<g id="edge2" class="edge">
<title>1&#45;&gt;2</title>
<path fill="none" stroke="black" d="M680.08,-309.99C645.49,-299.37 608.05,-287.87 572.96,-277.09"/>
<polygon fill="black" stroke="black" points="573.71,-273.66 563.13,-274.07 571.66,-280.36 573.71,-273.66"/>
</g>
<!-- 61 -->
<g id="node10" class="node">
<title>61</title>
<polygon fill="#ffffff" stroke="black" points="931.5,-274 692.5,-274 692.5,-191 931.5,-191 931.5,-274"/>
<text text-anchor="middle" x="812" y="-258.8" font-family="Times,serif" font-size="14.00">sdComm &lt;= 0.02</text>
<text text-anchor="middle" x="812" y="-243.8" font-family="Times,serif" font-size="14.00">gini = 0.808</text>
<text text-anchor="middle" x="812" y="-228.8" font-family="Times,serif" font-size="14.00">samples = 304</text>
<text text-anchor="middle" x="812" y="-213.8" font-family="Times,serif" font-size="14.00">value = [32, 20, 52, 74, 74, 52]</text>
<text text-anchor="middle" x="812" y="-198.8" font-family="Times,serif" font-size="14.00">class = minmax</text>
</g>
<!-- 1&#45;&gt;61 -->
<g id="edge9" class="edge">
<title>1&#45;&gt;61</title>
<path fill="none" stroke="black" d="M812,-309.91C812,-301.65 812,-292.86 812,-284.3"/>
<polygon fill="black" stroke="black" points="815.5,-284.02 812,-274.02 808.5,-284.02 815.5,-284.02"/>
</g>
<!-- 3 -->
<g id="node4" class="node">
<title>3</title>
<polygon fill="#ffffff" stroke="black" points="266,-155 0,-155 0,-72 266,-72 266,-155"/>
<text text-anchor="middle" x="133" y="-139.8" font-family="Times,serif" font-size="14.00">graphDepth &lt;= 3.5</text>
<text text-anchor="middle" x="133" y="-124.8" font-family="Times,serif" font-size="14.00">gini = 0.823</text>
<text text-anchor="middle" x="133" y="-109.8" font-family="Times,serif" font-size="14.00">samples = 594</text>
<text text-anchor="middle" x="133" y="-94.8" font-family="Times,serif" font-size="14.00">value = [76, 118, 74, 126, 126, 74]</text>
<text text-anchor="middle" x="133" y="-79.8" font-family="Times,serif" font-size="14.00">class = minmax</text>
</g>
<!-- 2&#45;&gt;3 -->
<g id="edge3" class="edge">
<title>2&#45;&gt;3</title>
<path fill="none" stroke="black" d="M327.61,-190.91C301.14,-180.52 272.55,-169.29 245.65,-158.73"/>
<polygon fill="black" stroke="black" points="246.79,-155.42 236.21,-155.02 244.24,-161.93 246.79,-155.42"/>
</g>
<!-- 22 -->
<g id="node7" class="node">
<title>22</title>
<polygon fill="#ffffff" stroke="black" points="577.5,-155 284.5,-155 284.5,-72 577.5,-72 577.5,-155"/>
<text text-anchor="middle" x="431" y="-139.8" font-family="Times,serif" font-size="14.00">graphSize &lt;= 40.0</text>
<text text-anchor="middle" x="431" y="-124.8" font-family="Times,serif" font-size="14.00">gini = 0.833</text>
<text text-anchor="middle" x="431" y="-109.8" font-family="Times,serif" font-size="14.00">samples = 1786</text>
<text text-anchor="middle" x="431" y="-94.8" font-family="Times,serif" font-size="14.00">value = [272, 286, 324, 290, 290, 324]</text>
<text text-anchor="middle" x="431" y="-79.8" font-family="Times,serif" font-size="14.00">class = maxmax</text>
</g>
<!-- 2&#45;&gt;22 -->
<g id="edge6" class="edge">
<title>2&#45;&gt;22</title>
<path fill="none" stroke="black" d="M431,-190.91C431,-182.65 431,-173.86 431,-165.3"/>
<polygon fill="black" stroke="black" points="434.5,-165.02 431,-155.02 427.5,-165.02 434.5,-165.02"/>
</g>
<!-- 4 -->
<g id="node5" class="node">
<title>4</title>
<polygon fill="#c0c0c0" stroke="black" points="124,-36 70,-36 70,0 124,0 124,-36"/>
<text text-anchor="middle" x="97" y="-14.3" font-family="Times,serif" font-size="14.00">(...)</text>
</g>
<!-- 3&#45;&gt;4 -->
<g id="edge4" class="edge">
<title>3&#45;&gt;4</title>
<path fill="none" stroke="black" d="M117.31,-71.76C113.96,-63.04 110.49,-54.04 107.39,-45.99"/>
<polygon fill="black" stroke="black" points="110.56,-44.48 103.7,-36.41 104.03,-46.99 110.56,-44.48"/>
</g>
<!-- 7 -->
<g id="node6" class="node">
<title>7</title>
<polygon fill="#c0c0c0" stroke="black" points="196,-36 142,-36 142,0 196,0 196,-36"/>
<text text-anchor="middle" x="169" y="-14.3" font-family="Times,serif" font-size="14.00">(...)</text>
</g>
<!-- 3&#45;&gt;7 -->
<g id="edge5" class="edge">
<title>3&#45;&gt;7</title>
<path fill="none" stroke="black" d="M148.69,-71.76C152.04,-63.04 155.51,-54.04 158.61,-45.99"/>
<polygon fill="black" stroke="black" points="161.97,-46.99 162.3,-36.41 155.44,-44.48 161.97,-46.99"/>
</g>
<!-- 23 -->
<g id="node8" class="node">
<title>23</title>
<polygon fill="#c0c0c0" stroke="black" points="422,-36 368,-36 368,0 422,0 422,-36"/>
<text text-anchor="middle" x="395" y="-14.3" font-family="Times,serif" font-size="14.00">(...)</text>
</g>
<!-- 22&#45;&gt;23 -->
<g id="edge7" class="edge">
<title>22&#45;&gt;23</title>
<path fill="none" stroke="black" d="M415.31,-71.76C411.96,-63.04 408.49,-54.04 405.39,-45.99"/>
<polygon fill="black" stroke="black" points="408.56,-44.48 401.7,-36.41 402.03,-46.99 408.56,-44.48"/>
</g>
<!-- 54 -->
<g id="node9" class="node">
<title>54</title>
<polygon fill="#c0c0c0" stroke="black" points="494,-36 440,-36 440,0 494,0 494,-36"/>
<text text-anchor="middle" x="467" y="-14.3" font-family="Times,serif" font-size="14.00">(...)</text>
</g>
<!-- 22&#45;&gt;54 -->
<g id="edge8" class="edge">
<title>22&#45;&gt;54</title>
<path fill="none" stroke="black" d="M446.69,-71.76C450.04,-63.04 453.51,-54.04 456.61,-45.99"/>
<polygon fill="black" stroke="black" points="459.97,-46.99 460.3,-36.41 453.44,-44.48 459.97,-46.99"/>
</g>
<!-- 62 -->
<g id="node11" class="node">
<title>62</title>
<polygon fill="#ffffff" stroke="black" points="826,-155 596,-155 596,-72 826,-72 826,-155"/>
<text text-anchor="middle" x="711" y="-139.8" font-family="Times,serif" font-size="14.00">nbproc &lt;= 4.5</text>
<text text-anchor="middle" x="711" y="-124.8" font-family="Times,serif" font-size="14.00">gini = 0.803</text>
<text text-anchor="middle" x="711" y="-109.8" font-family="Times,serif" font-size="14.00">samples = 128</text>
<text text-anchor="middle" x="711" y="-94.8" font-family="Times,serif" font-size="14.00">value = [12, 8, 32, 22, 22, 32]</text>
<text text-anchor="middle" x="711" y="-79.8" font-family="Times,serif" font-size="14.00">class = maxmax</text>
</g>
<!-- 61&#45;&gt;62 -->
<g id="edge10" class="edge">
<title>61&#45;&gt;62</title>
<path fill="none" stroke="black" d="M776.96,-190.91C769.12,-181.83 760.74,-172.12 752.67,-162.77"/>
<polygon fill="black" stroke="black" points="755.16,-160.3 745.98,-155.02 749.86,-164.88 755.16,-160.3"/>
</g>
<!-- 69 -->
<g id="node14" class="node">
<title>69</title>
<polygon fill="#ffffff" stroke="black" points="1083.5,-155 844.5,-155 844.5,-72 1083.5,-72 1083.5,-155"/>
<text text-anchor="middle" x="964" y="-139.8" font-family="Times,serif" font-size="14.00">sdComm &lt;= 0.065</text>
<text text-anchor="middle" x="964" y="-124.8" font-family="Times,serif" font-size="14.00">gini = 0.782</text>
<text text-anchor="middle" x="964" y="-109.8" font-family="Times,serif" font-size="14.00">samples = 176</text>
<text text-anchor="middle" x="964" y="-94.8" font-family="Times,serif" font-size="14.00">value = [20, 12, 20, 52, 52, 20]</text>
<text text-anchor="middle" x="964" y="-79.8" font-family="Times,serif" font-size="14.00">class = minmax</text>
</g>
<!-- 61&#45;&gt;69 -->
<g id="edge13" class="edge">
<title>61&#45;&gt;69</title>
<path fill="none" stroke="black" d="M864.74,-190.91C877.12,-181.38 890.41,-171.15 903.11,-161.37"/>
<polygon fill="black" stroke="black" points="905.57,-163.89 911.36,-155.02 901.3,-158.35 905.57,-163.89"/>
</g>
<!-- 63 -->
<g id="node12" class="node">
<title>63</title>
<polygon fill="#c0c0c0" stroke="black" points="702,-36 648,-36 648,0 702,0 702,-36"/>
<text text-anchor="middle" x="675" y="-14.3" font-family="Times,serif" font-size="14.00">(...)</text>
</g>
<!-- 62&#45;&gt;63 -->
<g id="edge11" class="edge">
<title>62&#45;&gt;63</title>
<path fill="none" stroke="black" d="M695.31,-71.76C691.96,-63.04 688.49,-54.04 685.39,-45.99"/>
<polygon fill="black" stroke="black" points="688.56,-44.48 681.7,-36.41 682.03,-46.99 688.56,-44.48"/>
</g>
<!-- 66 -->
<g id="node13" class="node">
<title>66</title>
<polygon fill="#c0c0c0" stroke="black" points="774,-36 720,-36 720,0 774,0 774,-36"/>
<text text-anchor="middle" x="747" y="-14.3" font-family="Times,serif" font-size="14.00">(...)</text>
</g>
<!-- 62&#45;&gt;66 -->
<g id="edge12" class="edge">
<title>62&#45;&gt;66</title>
<path fill="none" stroke="black" d="M726.69,-71.76C730.04,-63.04 733.51,-54.04 736.61,-45.99"/>
<polygon fill="black" stroke="black" points="739.97,-46.99 740.3,-36.41 733.44,-44.48 739.97,-46.99"/>
</g>
<!-- 70 -->
<g id="node15" class="node">
<title>70</title>
<polygon fill="#c0c0c0" stroke="black" points="955,-36 901,-36 901,0 955,0 955,-36"/>
<text text-anchor="middle" x="928" y="-14.3" font-family="Times,serif" font-size="14.00">(...)</text>
</g>
<!-- 69&#45;&gt;70 -->
<g id="edge14" class="edge">
<title>69&#45;&gt;70</title>
<path fill="none" stroke="black" d="M948.31,-71.76C944.96,-63.04 941.49,-54.04 938.39,-45.99"/>
<polygon fill="black" stroke="black" points="941.56,-44.48 934.7,-36.41 935.03,-46.99 941.56,-44.48"/>
</g>
<!-- 77 -->
<g id="node16" class="node">
<title>77</title>
<polygon fill="#c0c0c0" stroke="black" points="1027,-36 973,-36 973,0 1027,0 1027,-36"/>
<text text-anchor="middle" x="1000" y="-14.3" font-family="Times,serif" font-size="14.00">(...)</text>
</g>
<!-- 69&#45;&gt;77 -->
<g id="edge15" class="edge">
<title>69&#45;&gt;77</title>
<path fill="none" stroke="black" d="M979.69,-71.76C983.04,-63.04 986.51,-54.04 989.61,-45.99"/>
<polygon fill="black" stroke="black" points="992.97,-46.99 993.3,-36.41 986.44,-44.48 992.97,-46.99"/>
</g>
<!-- 85 -->
<g id="node18" class="node">
<title>85</title>
<polygon fill="#ffffff" stroke="black" points="1590.5,-274 1243.5,-274 1243.5,-191 1590.5,-191 1590.5,-274"/>
<text text-anchor="middle" x="1417" y="-258.8" font-family="Times,serif" font-size="14.00">graphDepth &lt;= 3.5</text>
<text text-anchor="middle" x="1417" y="-243.8" font-family="Times,serif" font-size="14.00">gini = 0.833</text>
<text text-anchor="middle" x="1417" y="-228.8" font-family="Times,serif" font-size="14.00">samples = 13804</text>
<text text-anchor="middle" x="1417" y="-213.8" font-family="Times,serif" font-size="14.00">value = [2356, 2228, 2416, 2194, 2194, 2416]</text>
<text text-anchor="middle" x="1417" y="-198.8" font-family="Times,serif" font-size="14.00">class = maxmax</text>
</g>
<!-- 84&#45;&gt;85 -->
<g id="edge17" class="edge">
<title>84&#45;&gt;85</title>
<path fill="none" stroke="black" d="M1417,-309.91C1417,-301.65 1417,-292.86 1417,-284.3"/>
<polygon fill="black" stroke="black" points="1420.5,-284.02 1417,-274.02 1413.5,-284.02 1420.5,-284.02"/>
</g>
<!-- 262 -->
<g id="node25" class="node">
<title>262</title>
<polygon fill="#ffffff" stroke="black" points="2124.5,-274 1777.5,-274 1777.5,-191 2124.5,-191 2124.5,-274"/>
<text text-anchor="middle" x="1951" y="-258.8" font-family="Times,serif" font-size="14.00">graphDepth &lt;= 9.0</text>
<text text-anchor="middle" x="1951" y="-243.8" font-family="Times,serif" font-size="14.00">gini = 0.833</text>
<text text-anchor="middle" x="1951" y="-228.8" font-family="Times,serif" font-size="14.00">samples = 18618</text>
<text text-anchor="middle" x="1951" y="-213.8" font-family="Times,serif" font-size="14.00">value = [3080, 3082, 3126, 3102, 3102, 3126]</text>
<text text-anchor="middle" x="1951" y="-198.8" font-family="Times,serif" font-size="14.00">class = maxmax</text>
</g>
<!-- 84&#45;&gt;262 -->
<g id="edge24" class="edge">
<title>84&#45;&gt;262</title>
<path fill="none" stroke="black" d="M1590.74,-312.43C1647.3,-300.04 1710.23,-286.25 1767.48,-273.71"/>
<polygon fill="black" stroke="black" points="1768.33,-277.11 1777.35,-271.55 1766.84,-270.27 1768.33,-277.11"/>
</g>
<!-- 86 -->
<g id="node19" class="node">
<title>86</title>
<polygon fill="#ffffff" stroke="black" points="1394.5,-155 1101.5,-155 1101.5,-72 1394.5,-72 1394.5,-155"/>
<text text-anchor="middle" x="1248" y="-139.8" font-family="Times,serif" font-size="14.00">sdComm &lt;= 0.065</text>
<text text-anchor="middle" x="1248" y="-124.8" font-family="Times,serif" font-size="14.00">gini = 0.831</text>
<text text-anchor="middle" x="1248" y="-109.8" font-family="Times,serif" font-size="14.00">samples = 2438</text>
<text text-anchor="middle" x="1248" y="-94.8" font-family="Times,serif" font-size="14.00">value = [356, 322, 464, 416, 416, 464]</text>
<text text-anchor="middle" x="1248" y="-79.8" font-family="Times,serif" font-size="14.00">class = maxmax</text>
</g>
<!-- 85&#45;&gt;86 -->
<g id="edge18" class="edge">
<title>85&#45;&gt;86</title>
<path fill="none" stroke="black" d="M1358.37,-190.91C1344.34,-181.2 1329.26,-170.76 1314.89,-160.81"/>
<polygon fill="black" stroke="black" points="1316.74,-157.84 1306.53,-155.02 1312.76,-163.59 1316.74,-157.84"/>
</g>
<!-- 109 -->
<g id="node22" class="node">
<title>109</title>
<polygon fill="#fffefe" stroke="black" points="1759.5,-155 1412.5,-155 1412.5,-72 1759.5,-72 1759.5,-155"/>
<text text-anchor="middle" x="1586" y="-139.8" font-family="Times,serif" font-size="14.00">sdComm &lt;= 0.065</text>
<text text-anchor="middle" x="1586" y="-124.8" font-family="Times,serif" font-size="14.00">gini = 0.833</text>
<text text-anchor="middle" x="1586" y="-109.8" font-family="Times,serif" font-size="14.00">samples = 11366</text>
<text text-anchor="middle" x="1586" y="-94.8" font-family="Times,serif" font-size="14.00">value = [2000, 1906, 1952, 1778, 1778, 1952]</text>
<text text-anchor="middle" x="1586" y="-79.8" font-family="Times,serif" font-size="14.00">class = mean</text>
</g>
<!-- 85&#45;&gt;109 -->
<g id="edge21" class="edge">
<title>85&#45;&gt;109</title>
<path fill="none" stroke="black" d="M1475.63,-190.91C1489.66,-181.2 1504.74,-170.76 1519.11,-160.81"/>
<polygon fill="black" stroke="black" points="1521.24,-163.59 1527.47,-155.02 1517.26,-157.84 1521.24,-163.59"/>
</g>
<!-- 87 -->
<g id="node20" class="node">
<title>87</title>
<polygon fill="#c0c0c0" stroke="black" points="1239,-36 1185,-36 1185,0 1239,0 1239,-36"/>
<text text-anchor="middle" x="1212" y="-14.3" font-family="Times,serif" font-size="14.00">(...)</text>
</g>
<!-- 86&#45;&gt;87 -->
<g id="edge19" class="edge">
<title>86&#45;&gt;87</title>
<path fill="none" stroke="black" d="M1232.31,-71.76C1228.96,-63.04 1225.49,-54.04 1222.39,-45.99"/>
<polygon fill="black" stroke="black" points="1225.56,-44.48 1218.7,-36.41 1219.03,-46.99 1225.56,-44.48"/>
</g>
<!-- 102 -->
<g id="node21" class="node">
<title>102</title>
<polygon fill="#c0c0c0" stroke="black" points="1311,-36 1257,-36 1257,0 1311,0 1311,-36"/>
<text text-anchor="middle" x="1284" y="-14.3" font-family="Times,serif" font-size="14.00">(...)</text>
</g>
<!-- 86&#45;&gt;102 -->
<g id="edge20" class="edge">
<title>86&#45;&gt;102</title>
<path fill="none" stroke="black" d="M1263.69,-71.76C1267.04,-63.04 1270.51,-54.04 1273.61,-45.99"/>
<polygon fill="black" stroke="black" points="1276.97,-46.99 1277.3,-36.41 1270.44,-44.48 1276.97,-46.99"/>
</g>
<!-- 110 -->
<g id="node23" class="node">
<title>110</title>
<polygon fill="#c0c0c0" stroke="black" points="1577,-36 1523,-36 1523,0 1577,0 1577,-36"/>
<text text-anchor="middle" x="1550" y="-14.3" font-family="Times,serif" font-size="14.00">(...)</text>
</g>
<!-- 109&#45;&gt;110 -->
<g id="edge22" class="edge">
<title>109&#45;&gt;110</title>
<path fill="none" stroke="black" d="M1570.31,-71.76C1566.96,-63.04 1563.49,-54.04 1560.39,-45.99"/>
<polygon fill="black" stroke="black" points="1563.56,-44.48 1556.7,-36.41 1557.03,-46.99 1563.56,-44.48"/>
</g>
<!-- 213 -->
<g id="node24" class="node">
<title>213</title>
<polygon fill="#c0c0c0" stroke="black" points="1649,-36 1595,-36 1595,0 1649,0 1649,-36"/>
<text text-anchor="middle" x="1622" y="-14.3" font-family="Times,serif" font-size="14.00">(...)</text>
</g>
<!-- 109&#45;&gt;213 -->
<g id="edge23" class="edge">
<title>109&#45;&gt;213</title>
<path fill="none" stroke="black" d="M1601.69,-71.76C1605.04,-63.04 1608.51,-54.04 1611.61,-45.99"/>
<polygon fill="black" stroke="black" points="1614.97,-46.99 1615.3,-36.41 1608.44,-44.48 1614.97,-46.99"/>
</g>
<!-- 263 -->
<g id="node26" class="node">
<title>263</title>
<polygon fill="#ffffff" stroke="black" points="2124.5,-155 1777.5,-155 1777.5,-72 2124.5,-72 2124.5,-155"/>
<text text-anchor="middle" x="1951" y="-139.8" font-family="Times,serif" font-size="14.00">sdComp &lt;= 0.2</text>
<text text-anchor="middle" x="1951" y="-124.8" font-family="Times,serif" font-size="14.00">gini = 0.833</text>
<text text-anchor="middle" x="1951" y="-109.8" font-family="Times,serif" font-size="14.00">samples = 11644</text>
<text text-anchor="middle" x="1951" y="-94.8" font-family="Times,serif" font-size="14.00">value = [1902, 1906, 1938, 1980, 1980, 1938]</text>
<text text-anchor="middle" x="1951" y="-79.8" font-family="Times,serif" font-size="14.00">class = minmax</text>
</g>
<!-- 262&#45;&gt;263 -->
<g id="edge25" class="edge">
<title>262&#45;&gt;263</title>
<path fill="none" stroke="black" d="M1951,-190.91C1951,-182.65 1951,-173.86 1951,-165.3"/>
<polygon fill="black" stroke="black" points="1954.5,-165.02 1951,-155.02 1947.5,-165.02 1954.5,-165.02"/>
</g>
<!-- 530 -->
<g id="node29" class="node">
<title>530</title>
<polygon fill="#ffffff" stroke="black" points="2489.5,-155 2142.5,-155 2142.5,-72 2489.5,-72 2489.5,-155"/>
<text text-anchor="middle" x="2316" y="-139.8" font-family="Times,serif" font-size="14.00">sdComp &lt;= 0.2</text>
<text text-anchor="middle" x="2316" y="-124.8" font-family="Times,serif" font-size="14.00">gini = 0.833</text>
<text text-anchor="middle" x="2316" y="-109.8" font-family="Times,serif" font-size="14.00">samples = 6974</text>
<text text-anchor="middle" x="2316" y="-94.8" font-family="Times,serif" font-size="14.00">value = [1178, 1176, 1188, 1122, 1122, 1188]</text>
<text text-anchor="middle" x="2316" y="-79.8" font-family="Times,serif" font-size="14.00">class = maxmax</text>
</g>
<!-- 262&#45;&gt;530 -->
<g id="edge28" class="edge">
<title>262&#45;&gt;530</title>
<path fill="none" stroke="black" d="M2077.38,-190.99C2110.37,-180.41 2146.08,-168.97 2179.57,-158.23"/>
<polygon fill="black" stroke="black" points="2180.97,-161.46 2189.42,-155.07 2178.83,-154.79 2180.97,-161.46"/>
</g>
<!-- 264 -->
<g id="node27" class="node">
<title>264</title>
<polygon fill="#c0c0c0" stroke="black" points="1942,-36 1888,-36 1888,0 1942,0 1942,-36"/>
<text text-anchor="middle" x="1915" y="-14.3" font-family="Times,serif" font-size="14.00">(...)</text>
</g>
<!-- 263&#45;&gt;264 -->
<g id="edge26" class="edge">
<title>263&#45;&gt;264</title>
<path fill="none" stroke="black" d="M1935.31,-71.76C1931.96,-63.04 1928.49,-54.04 1925.39,-45.99"/>
<polygon fill="black" stroke="black" points="1928.56,-44.48 1921.7,-36.41 1922.03,-46.99 1928.56,-44.48"/>
</g>
<!-- 307 -->
<g id="node28" class="node">
<title>307</title>
<polygon fill="#c0c0c0" stroke="black" points="2014,-36 1960,-36 1960,0 2014,0 2014,-36"/>
<text text-anchor="middle" x="1987" y="-14.3" font-family="Times,serif" font-size="14.00">(...)</text>
</g>
<!-- 263&#45;&gt;307 -->
<g id="edge27" class="edge">
<title>263&#45;&gt;307</title>
<path fill="none" stroke="black" d="M1966.69,-71.76C1970.04,-63.04 1973.51,-54.04 1976.61,-45.99"/>
<polygon fill="black" stroke="black" points="1979.97,-46.99 1980.3,-36.41 1973.44,-44.48 1979.97,-46.99"/>
</g>
<!-- 531 -->
<g id="node30" class="node">
<title>531</title>
<polygon fill="#c0c0c0" stroke="black" points="2307,-36 2253,-36 2253,0 2307,0 2307,-36"/>
<text text-anchor="middle" x="2280" y="-14.3" font-family="Times,serif" font-size="14.00">(...)</text>
</g>
<!-- 530&#45;&gt;531 -->
<g id="edge29" class="edge">
<title>530&#45;&gt;531</title>
<path fill="none" stroke="black" d="M2300.31,-71.76C2296.96,-63.04 2293.49,-54.04 2290.39,-45.99"/>
<polygon fill="black" stroke="black" points="2293.56,-44.48 2286.7,-36.41 2287.03,-46.99 2293.56,-44.48"/>
</g>
<!-- 574 -->
<g id="node31" class="node">
<title>574</title>
<polygon fill="#c0c0c0" stroke="black" points="2379,-36 2325,-36 2325,0 2379,0 2379,-36"/>
<text text-anchor="middle" x="2352" y="-14.3" font-family="Times,serif" font-size="14.00">(...)</text>
</g>
<!-- 530&#45;&gt;574 -->
<g id="edge30" class="edge">
<title>530&#45;&gt;574</title>
<path fill="none" stroke="black" d="M2331.69,-71.76C2335.04,-63.04 2338.51,-54.04 2341.61,-45.99"/>
<polygon fill="black" stroke="black" points="2344.97,-46.99 2345.3,-36.41 2338.44,-44.48 2344.97,-46.99"/>
</g>
</g>
</svg>
