<?xml version="1.0" encoding="UTF-8" standalone="no"?>
<!DOCTYPE svg PUBLIC "-//W3C//DTD SVG 1.1//EN"
 "http://www.w3.org/Graphics/SVG/1.1/DTD/svg11.dtd">
<!-- Generated by graphviz version 2.43.0 (0)
 -->
<!-- Title: Tree Pages: 1 -->
<svg width="1398pt" height="520pt"
 viewBox="0.00 0.00 1398.00 520.00" xmlns="http://www.w3.org/2000/svg" xmlns:xlink="http://www.w3.org/1999/xlink">
<g id="graph0" class="graph" transform="scale(1 1) rotate(0) translate(4 516)">
<title>Tree</title>
<polygon fill="white" stroke="transparent" points="-4,4 -4,-516 1394,-516 1394,4 -4,4"/>
<!-- 0 -->
<g id="node1" class="node">
<title>0</title>
<polygon fill="#ffffff" stroke="black" points="764,-512 579,-512 579,-429 764,-429 764,-512"/>
<text text-anchor="middle" x="671.5" y="-496.8" font-family="Times,serif" font-size="14.00">graphDepth &lt;= 3.5</text>
<text text-anchor="middle" x="671.5" y="-481.8" font-family="Times,serif" font-size="14.00">gini = 0.5</text>
<text text-anchor="middle" x="671.5" y="-466.8" font-family="Times,serif" font-size="14.00">samples = 35106</text>
<text text-anchor="middle" x="671.5" y="-451.8" font-family="Times,serif" font-size="14.00">value = [17549, 17557]</text>
<text text-anchor="middle" x="671.5" y="-436.8" font-family="Times,serif" font-size="14.00">class = True</text>
</g>
<!-- 1 -->
<g id="node2" class="node">
<title>1</title>
<polygon fill="#ffffff" stroke="black" points="584,-393 417,-393 417,-310 584,-310 584,-393"/>
<text text-anchor="middle" x="500.5" y="-377.8" font-family="Times,serif" font-size="14.00">CCR &lt;= 0.55</text>
<text text-anchor="middle" x="500.5" y="-362.8" font-family="Times,serif" font-size="14.00">gini = 0.5</text>
<text text-anchor="middle" x="500.5" y="-347.8" font-family="Times,serif" font-size="14.00">samples = 5395</text>
<text text-anchor="middle" x="500.5" y="-332.8" font-family="Times,serif" font-size="14.00">value = [2695, 2700]</text>
<text text-anchor="middle" x="500.5" y="-317.8" font-family="Times,serif" font-size="14.00">class = True</text>
</g>
<!-- 0&#45;&gt;1 -->
<g id="edge1" class="edge">
<title>0&#45;&gt;1</title>
<path fill="none" stroke="black" d="M612.17,-428.91C597.98,-419.2 582.72,-408.76 568.19,-398.81"/>
<polygon fill="black" stroke="black" points="569.95,-395.78 559.72,-393.02 566,-401.56 569.95,-395.78"/>
<text text-anchor="middle" x="564.33" y="-413.89" font-family="Times,serif" font-size="14.00">True</text>
</g>
<!-- 106 -->
<g id="node17" class="node">
<title>106</title>
<polygon fill="#ffffff" stroke="black" points="945,-393 760,-393 760,-310 945,-310 945,-393"/>
<text text-anchor="middle" x="852.5" y="-377.8" font-family="Times,serif" font-size="14.00">sdComm &lt;= 6.5</text>
<text text-anchor="middle" x="852.5" y="-362.8" font-family="Times,serif" font-size="14.00">gini = 0.5</text>
<text text-anchor="middle" x="852.5" y="-347.8" font-family="Times,serif" font-size="14.00">samples = 29711</text>
<text text-anchor="middle" x="852.5" y="-332.8" font-family="Times,serif" font-size="14.00">value = [14854, 14857]</text>
<text text-anchor="middle" x="852.5" y="-317.8" font-family="Times,serif" font-size="14.00">class = True</text>
</g>
<!-- 0&#45;&gt;106 -->
<g id="edge16" class="edge">
<title>0&#45;&gt;106</title>
<path fill="none" stroke="black" d="M734.3,-428.91C749.46,-419.11 765.77,-408.56 781.29,-398.53"/>
<polygon fill="black" stroke="black" points="783.32,-401.39 789.81,-393.02 779.52,-395.51 783.32,-401.39"/>
<text text-anchor="middle" x="784.56" y="-413.76" font-family="Times,serif" font-size="14.00">False</text>
</g>
<!-- 2 -->
<g id="node3" class="node">
<title>2</title>
<polygon fill="#ffffff" stroke="black" points="325,-274 158,-274 158,-191 325,-191 325,-274"/>
<text text-anchor="middle" x="241.5" y="-258.8" font-family="Times,serif" font-size="14.00">nbproc &lt;= 4.5</text>
<text text-anchor="middle" x="241.5" y="-243.8" font-family="Times,serif" font-size="14.00">gini = 0.5</text>
<text text-anchor="middle" x="241.5" y="-228.8" font-family="Times,serif" font-size="14.00">samples = 2720</text>
<text text-anchor="middle" x="241.5" y="-213.8" font-family="Times,serif" font-size="14.00">value = [1360, 1360]</text>
<text text-anchor="middle" x="241.5" y="-198.8" font-family="Times,serif" font-size="14.00">class = False</text>
</g>
<!-- 1&#45;&gt;2 -->
<g id="edge2" class="edge">
<title>1&#45;&gt;2</title>
<path fill="none" stroke="black" d="M416.77,-312.68C390.59,-300.85 361.55,-287.73 334.76,-275.63"/>
<polygon fill="black" stroke="black" points="335.94,-272.32 325.39,-271.4 333.06,-278.7 335.94,-272.32"/>
</g>
<!-- 37 -->
<g id="node10" class="node">
<title>37</title>
<polygon fill="#feffff" stroke="black" points="584,-274 417,-274 417,-191 584,-191 584,-274"/>
<text text-anchor="middle" x="500.5" y="-258.8" font-family="Times,serif" font-size="14.00">sdComp &lt;= 0.2</text>
<text text-anchor="middle" x="500.5" y="-243.8" font-family="Times,serif" font-size="14.00">gini = 0.5</text>
<text text-anchor="middle" x="500.5" y="-228.8" font-family="Times,serif" font-size="14.00">samples = 2675</text>
<text text-anchor="middle" x="500.5" y="-213.8" font-family="Times,serif" font-size="14.00">value = [1335, 1340]</text>
<text text-anchor="middle" x="500.5" y="-198.8" font-family="Times,serif" font-size="14.00">class = True</text>
</g>
<!-- 1&#45;&gt;37 -->
<g id="edge9" class="edge">
<title>1&#45;&gt;37</title>
<path fill="none" stroke="black" d="M500.5,-309.91C500.5,-301.65 500.5,-292.86 500.5,-284.3"/>
<polygon fill="black" stroke="black" points="504,-284.02 500.5,-274.02 497,-284.02 504,-284.02"/>
</g>
<!-- 3 -->
<g id="node4" class="node">
<title>3</title>
<polygon fill="#ffffff" stroke="black" points="149,-155 0,-155 0,-72 149,-72 149,-155"/>
<text text-anchor="middle" x="74.5" y="-139.8" font-family="Times,serif" font-size="14.00">sdComm &lt;= 0.02</text>
<text text-anchor="middle" x="74.5" y="-124.8" font-family="Times,serif" font-size="14.00">gini = 0.5</text>
<text text-anchor="middle" x="74.5" y="-109.8" font-family="Times,serif" font-size="14.00">samples = 730</text>
<text text-anchor="middle" x="74.5" y="-94.8" font-family="Times,serif" font-size="14.00">value = [365, 365]</text>
<text text-anchor="middle" x="74.5" y="-79.8" font-family="Times,serif" font-size="14.00">class = False</text>
</g>
<!-- 2&#45;&gt;3 -->
<g id="edge3" class="edge">
<title>2&#45;&gt;3</title>
<path fill="none" stroke="black" d="M183.56,-190.91C169.7,-181.2 154.8,-170.76 140.6,-160.81"/>
<polygon fill="black" stroke="black" points="142.54,-157.89 132.34,-155.02 138.52,-163.63 142.54,-157.89"/>
</g>
<!-- 20 -->
<g id="node7" class="node">
<title>20</title>
<polygon fill="#ffffff" stroke="black" points="316,-155 167,-155 167,-72 316,-72 316,-155"/>
<text text-anchor="middle" x="241.5" y="-139.8" font-family="Times,serif" font-size="14.00">sdComp &lt;= 0.02</text>
<text text-anchor="middle" x="241.5" y="-124.8" font-family="Times,serif" font-size="14.00">gini = 0.5</text>
<text text-anchor="middle" x="241.5" y="-109.8" font-family="Times,serif" font-size="14.00">samples = 1990</text>
<text text-anchor="middle" x="241.5" y="-94.8" font-family="Times,serif" font-size="14.00">value = [995, 995]</text>
<text text-anchor="middle" x="241.5" y="-79.8" font-family="Times,serif" font-size="14.00">class = False</text>
</g>
<!-- 2&#45;&gt;20 -->
<g id="edge6" class="edge">
<title>2&#45;&gt;20</title>
<path fill="none" stroke="black" d="M241.5,-190.91C241.5,-182.65 241.5,-173.86 241.5,-165.3"/>
<polygon fill="black" stroke="black" points="245,-165.02 241.5,-155.02 238,-165.02 245,-165.02"/>
</g>
<!-- 4 -->
<g id="node5" class="node">
<title>4</title>
<polygon fill="#c0c0c0" stroke="black" points="65.5,-36 11.5,-36 11.5,0 65.5,0 65.5,-36"/>
<text text-anchor="middle" x="38.5" y="-14.3" font-family="Times,serif" font-size="14.00">(...)</text>
</g>
<!-- 3&#45;&gt;4 -->
<g id="edge4" class="edge">
<title>3&#45;&gt;4</title>
<path fill="none" stroke="black" d="M58.81,-71.76C55.46,-63.04 51.99,-54.04 48.89,-45.99"/>
<polygon fill="black" stroke="black" points="52.06,-44.48 45.2,-36.41 45.53,-46.99 52.06,-44.48"/>
</g>
<!-- 9 -->
<g id="node6" class="node">
<title>9</title>
<polygon fill="#c0c0c0" stroke="black" points="137.5,-36 83.5,-36 83.5,0 137.5,0 137.5,-36"/>
<text text-anchor="middle" x="110.5" y="-14.3" font-family="Times,serif" font-size="14.00">(...)</text>
</g>
<!-- 3&#45;&gt;9 -->
<g id="edge5" class="edge">
<title>3&#45;&gt;9</title>
<path fill="none" stroke="black" d="M90.19,-71.76C93.54,-63.04 97.01,-54.04 100.11,-45.99"/>
<polygon fill="black" stroke="black" points="103.47,-46.99 103.8,-36.41 96.94,-44.48 103.47,-46.99"/>
</g>
<!-- 21 -->
<g id="node8" class="node">
<title>21</title>
<polygon fill="#c0c0c0" stroke="black" points="240.5,-36 186.5,-36 186.5,0 240.5,0 240.5,-36"/>
<text text-anchor="middle" x="213.5" y="-14.3" font-family="Times,serif" font-size="14.00">(...)</text>
</g>
<!-- 20&#45;&gt;21 -->
<g id="edge7" class="edge">
<title>20&#45;&gt;21</title>
<path fill="none" stroke="black" d="M229.3,-71.76C226.69,-63.04 223.99,-54.04 221.58,-45.99"/>
<polygon fill="black" stroke="black" points="224.93,-44.98 218.71,-36.41 218.23,-46.99 224.93,-44.98"/>
</g>
<!-- 26 -->
<g id="node9" class="node">
<title>26</title>
<polygon fill="#c0c0c0" stroke="black" points="312.5,-36 258.5,-36 258.5,0 312.5,0 312.5,-36"/>
<text text-anchor="middle" x="285.5" y="-14.3" font-family="Times,serif" font-size="14.00">(...)</text>
</g>
<!-- 20&#45;&gt;26 -->
<g id="edge8" class="edge">
<title>20&#45;&gt;26</title>
<path fill="none" stroke="black" d="M260.67,-71.76C264.87,-62.85 269.2,-53.64 273.05,-45.46"/>
<polygon fill="black" stroke="black" points="276.22,-46.94 277.31,-36.41 269.88,-43.96 276.22,-46.94"/>
</g>
<!-- 38 -->
<g id="node11" class="node">
<title>38</title>
<polygon fill="#fafdfe" stroke="black" points="483,-155 334,-155 334,-72 483,-72 483,-155"/>
<text text-anchor="middle" x="408.5" y="-139.8" font-family="Times,serif" font-size="14.00">sdComm &lt;= 0.2</text>
<text text-anchor="middle" x="408.5" y="-124.8" font-family="Times,serif" font-size="14.00">gini = 0.5</text>
<text text-anchor="middle" x="408.5" y="-109.8" font-family="Times,serif" font-size="14.00">samples = 415</text>
<text text-anchor="middle" x="408.5" y="-94.8" font-family="Times,serif" font-size="14.00">value = [205, 210]</text>
<text text-anchor="middle" x="408.5" y="-79.8" font-family="Times,serif" font-size="14.00">class = True</text>
</g>
<!-- 37&#45;&gt;38 -->
<g id="edge10" class="edge">
<title>37&#45;&gt;38</title>
<path fill="none" stroke="black" d="M468.58,-190.91C461.52,-181.92 453.96,-172.32 446.68,-163.05"/>
<polygon fill="black" stroke="black" points="449.3,-160.72 440.36,-155.02 443.79,-165.05 449.3,-160.72"/>
</g>
<!-- 49 -->
<g id="node14" class="node">
<title>49</title>
<polygon fill="#ffffff" stroke="black" points="668,-155 501,-155 501,-72 668,-72 668,-155"/>
<text text-anchor="middle" x="584.5" y="-139.8" font-family="Times,serif" font-size="14.00">sdComm &lt;= 0.2</text>
<text text-anchor="middle" x="584.5" y="-124.8" font-family="Times,serif" font-size="14.00">gini = 0.5</text>
<text text-anchor="middle" x="584.5" y="-109.8" font-family="Times,serif" font-size="14.00">samples = 2260</text>
<text text-anchor="middle" x="584.5" y="-94.8" font-family="Times,serif" font-size="14.00">value = [1130, 1130]</text>
<text text-anchor="middle" x="584.5" y="-79.8" font-family="Times,serif" font-size="14.00">class = False</text>
</g>
<!-- 37&#45;&gt;49 -->
<g id="edge13" class="edge">
<title>37&#45;&gt;49</title>
<path fill="none" stroke="black" d="M529.64,-190.91C536.03,-182.01 542.85,-172.51 549.44,-163.33"/>
<polygon fill="black" stroke="black" points="552.42,-165.19 555.41,-155.02 546.73,-161.1 552.42,-165.19"/>
</g>
<!-- 39 -->
<g id="node12" class="node">
<title>39</title>
<polygon fill="#c0c0c0" stroke="black" points="405.5,-36 351.5,-36 351.5,0 405.5,0 405.5,-36"/>
<text text-anchor="middle" x="378.5" y="-14.3" font-family="Times,serif" font-size="14.00">(...)</text>
</g>
<!-- 38&#45;&gt;39 -->
<g id="edge11" class="edge">
<title>38&#45;&gt;39</title>
<path fill="none" stroke="black" d="M395.43,-71.76C392.63,-63.04 389.74,-54.04 387.16,-45.99"/>
<polygon fill="black" stroke="black" points="390.47,-44.86 384.08,-36.41 383.81,-47 390.47,-44.86"/>
</g>
<!-- 42 -->
<g id="node13" class="node">
<title>42</title>
<polygon fill="#c0c0c0" stroke="black" points="477.5,-36 423.5,-36 423.5,0 477.5,0 477.5,-36"/>
<text text-anchor="middle" x="450.5" y="-14.3" font-family="Times,serif" font-size="14.00">(...)</text>
</g>
<!-- 38&#45;&gt;42 -->
<g id="edge12" class="edge">
<title>38&#45;&gt;42</title>
<path fill="none" stroke="black" d="M426.8,-71.76C430.76,-62.94 434.85,-53.84 438.5,-45.72"/>
<polygon fill="black" stroke="black" points="441.78,-46.96 442.68,-36.41 435.39,-44.09 441.78,-46.96"/>
</g>
<!-- 50 -->
<g id="node15" class="node">
<title>50</title>
<polygon fill="#c0c0c0" stroke="black" points="559.5,-36 505.5,-36 505.5,0 559.5,0 559.5,-36"/>
<text text-anchor="middle" x="532.5" y="-14.3" font-family="Times,serif" font-size="14.00">(...)</text>
</g>
<!-- 49&#45;&gt;50 -->
<g id="edge14" class="edge">
<title>49&#45;&gt;50</title>
<path fill="none" stroke="black" d="M561.84,-71.76C556.83,-62.75 551.65,-53.44 547.07,-45.19"/>
<polygon fill="black" stroke="black" points="550.1,-43.44 542.18,-36.41 543.98,-46.85 550.1,-43.44"/>
</g>
<!-- 57 -->
<g id="node16" class="node">
<title>57</title>
<polygon fill="#c0c0c0" stroke="black" points="631.5,-36 577.5,-36 577.5,0 631.5,0 631.5,-36"/>
<text text-anchor="middle" x="604.5" y="-14.3" font-family="Times,serif" font-size="14.00">(...)</text>
</g>
<!-- 49&#45;&gt;57 -->
<g id="edge15" class="edge">
<title>49&#45;&gt;57</title>
<path fill="none" stroke="black" d="M593.21,-71.76C595.06,-63.14 596.96,-54.24 598.67,-46.26"/>
<polygon fill="black" stroke="black" points="602.11,-46.92 600.78,-36.41 595.26,-45.45 602.11,-46.92"/>
</g>
<!-- 107 -->
<g id="node18" class="node">
<title>107</title>
<polygon fill="#ffffff" stroke="black" points="945,-274 760,-274 760,-191 945,-191 945,-274"/>
<text text-anchor="middle" x="852.5" y="-258.8" font-family="Times,serif" font-size="14.00">sdComp &lt;= 0.65</text>
<text text-anchor="middle" x="852.5" y="-243.8" font-family="Times,serif" font-size="14.00">gini = 0.5</text>
<text text-anchor="middle" x="852.5" y="-228.8" font-family="Times,serif" font-size="14.00">samples = 26887</text>
<text text-anchor="middle" x="852.5" y="-213.8" font-family="Times,serif" font-size="14.00">value = [13443, 13444]</text>
<text text-anchor="middle" x="852.5" y="-198.8" font-family="Times,serif" font-size="14.00">class = True</text>
</g>
<!-- 106&#45;&gt;107 -->
<g id="edge17" class="edge">
<title>106&#45;&gt;107</title>
<path fill="none" stroke="black" d="M852.5,-309.91C852.5,-301.65 852.5,-292.86 852.5,-284.3"/>
<polygon fill="black" stroke="black" points="856,-284.02 852.5,-274.02 849,-284.02 856,-284.02"/>
</g>
<!-- 720 -->
<g id="node25" class="node">
<title>720</title>
<polygon fill="#ffffff" stroke="black" points="1214,-274 1047,-274 1047,-191 1214,-191 1214,-274"/>
<text text-anchor="middle" x="1130.5" y="-258.8" font-family="Times,serif" font-size="14.00">graphSize &lt;= 40.0</text>
<text text-anchor="middle" x="1130.5" y="-243.8" font-family="Times,serif" font-size="14.00">gini = 0.5</text>
<text text-anchor="middle" x="1130.5" y="-228.8" font-family="Times,serif" font-size="14.00">samples = 2824</text>
<text text-anchor="middle" x="1130.5" y="-213.8" font-family="Times,serif" font-size="14.00">value = [1411, 1413]</text>
<text text-anchor="middle" x="1130.5" y="-198.8" font-family="Times,serif" font-size="14.00">class = True</text>
</g>
<!-- 106&#45;&gt;720 -->
<g id="edge24" class="edge">
<title>106&#45;&gt;720</title>
<path fill="none" stroke="black" d="M945.07,-311.54C974.72,-299.06 1007.54,-285.25 1037.24,-272.75"/>
<polygon fill="black" stroke="black" points="1038.9,-275.85 1046.76,-268.74 1036.19,-269.4 1038.9,-275.85"/>
</g>
<!-- 108 -->
<g id="node19" class="node">
<title>108</title>
<polygon fill="#ffffff" stroke="black" points="853,-155 686,-155 686,-72 853,-72 853,-155"/>
<text text-anchor="middle" x="769.5" y="-139.8" font-family="Times,serif" font-size="14.00">graphDepth &lt;= 6.5</text>
<text text-anchor="middle" x="769.5" y="-124.8" font-family="Times,serif" font-size="14.00">gini = 0.5</text>
<text text-anchor="middle" x="769.5" y="-109.8" font-family="Times,serif" font-size="14.00">samples = 18880</text>
<text text-anchor="middle" x="769.5" y="-94.8" font-family="Times,serif" font-size="14.00">value = [9440, 9440]</text>
<text text-anchor="middle" x="769.5" y="-79.8" font-family="Times,serif" font-size="14.00">class = False</text>
</g>
<!-- 107&#45;&gt;108 -->
<g id="edge18" class="edge">
<title>107&#45;&gt;108</title>
<path fill="none" stroke="black" d="M823.7,-190.91C817.39,-182.01 810.65,-172.51 804.14,-163.33"/>
<polygon fill="black" stroke="black" points="806.89,-161.15 798.25,-155.02 801.18,-165.2 806.89,-161.15"/>
</g>
<!-- 489 -->
<g id="node22" class="node">
<title>489</title>
<polygon fill="#ffffff" stroke="black" points="1038,-155 871,-155 871,-72 1038,-72 1038,-155"/>
<text text-anchor="middle" x="954.5" y="-139.8" font-family="Times,serif" font-size="14.00">CCR &lt;= 5.5</text>
<text text-anchor="middle" x="954.5" y="-124.8" font-family="Times,serif" font-size="14.00">gini = 0.5</text>
<text text-anchor="middle" x="954.5" y="-109.8" font-family="Times,serif" font-size="14.00">samples = 8007</text>
<text text-anchor="middle" x="954.5" y="-94.8" font-family="Times,serif" font-size="14.00">value = [4003, 4004]</text>
<text text-anchor="middle" x="954.5" y="-79.8" font-family="Times,serif" font-size="14.00">class = True</text>
</g>
<!-- 107&#45;&gt;489 -->
<g id="edge21" class="edge">
<title>107&#45;&gt;489</title>
<path fill="none" stroke="black" d="M887.89,-190.91C895.8,-181.83 904.27,-172.12 912.42,-162.77"/>
<polygon fill="black" stroke="black" points="915.24,-164.86 919.17,-155.02 909.96,-160.26 915.24,-164.86"/>
</g>
<!-- 109 -->
<g id="node20" class="node">
<title>109</title>
<polygon fill="#c0c0c0" stroke="black" points="744.5,-36 690.5,-36 690.5,0 744.5,0 744.5,-36"/>
<text text-anchor="middle" x="717.5" y="-14.3" font-family="Times,serif" font-size="14.00">(...)</text>
</g>
<!-- 108&#45;&gt;109 -->
<g id="edge19" class="edge">
<title>108&#45;&gt;109</title>
<path fill="none" stroke="black" d="M746.84,-71.76C741.83,-62.75 736.65,-53.44 732.07,-45.19"/>
<polygon fill="black" stroke="black" points="735.1,-43.44 727.18,-36.41 728.98,-46.85 735.1,-43.44"/>
</g>
<!-- 222 -->
<g id="node21" class="node">
<title>222</title>
<polygon fill="#c0c0c0" stroke="black" points="816.5,-36 762.5,-36 762.5,0 816.5,0 816.5,-36"/>
<text text-anchor="middle" x="789.5" y="-14.3" font-family="Times,serif" font-size="14.00">(...)</text>
</g>
<!-- 108&#45;&gt;222 -->
<g id="edge20" class="edge">
<title>108&#45;&gt;222</title>
<path fill="none" stroke="black" d="M778.21,-71.76C780.06,-63.14 781.96,-54.24 783.67,-46.26"/>
<polygon fill="black" stroke="black" points="787.11,-46.92 785.78,-36.41 780.26,-45.45 787.11,-46.92"/>
</g>
<!-- 490 -->
<g id="node23" class="node">
<title>490</title>
<polygon fill="#c0c0c0" stroke="black" points="925.5,-36 871.5,-36 871.5,0 925.5,0 925.5,-36"/>
<text text-anchor="middle" x="898.5" y="-14.3" font-family="Times,serif" font-size="14.00">(...)</text>
</g>
<!-- 489&#45;&gt;490 -->
<g id="edge22" class="edge">
<title>489&#45;&gt;490</title>
<path fill="none" stroke="black" d="M930.1,-71.76C924.7,-62.75 919.13,-53.44 914.19,-45.19"/>
<polygon fill="black" stroke="black" points="917.07,-43.19 908.92,-36.41 911.06,-46.78 917.07,-43.19"/>
</g>
<!-- 569 -->
<g id="node24" class="node">
<title>569</title>
<polygon fill="#c0c0c0" stroke="black" points="997.5,-36 943.5,-36 943.5,0 997.5,0 997.5,-36"/>
<text text-anchor="middle" x="970.5" y="-14.3" font-family="Times,serif" font-size="14.00">(...)</text>
</g>
<!-- 489&#45;&gt;569 -->
<g id="edge23" class="edge">
<title>489&#45;&gt;569</title>
<path fill="none" stroke="black" d="M961.47,-71.76C962.93,-63.24 964.44,-54.44 965.79,-46.53"/>
<polygon fill="black" stroke="black" points="969.28,-46.85 967.52,-36.41 962.38,-45.67 969.28,-46.85"/>
</g>
<!-- 721 -->
<g id="node26" class="node">
<title>721</title>
<polygon fill="#ffffff" stroke="black" points="1205,-155 1056,-155 1056,-72 1205,-72 1205,-155"/>
<text text-anchor="middle" x="1130.5" y="-139.8" font-family="Times,serif" font-size="14.00">nbproc &lt;= 4.5</text>
<text text-anchor="middle" x="1130.5" y="-124.8" font-family="Times,serif" font-size="14.00">gini = 0.5</text>
<text text-anchor="middle" x="1130.5" y="-109.8" font-family="Times,serif" font-size="14.00">samples = 1688</text>
<text text-anchor="middle" x="1130.5" y="-94.8" font-family="Times,serif" font-size="14.00">value = [844, 844]</text>
<text text-anchor="middle" x="1130.5" y="-79.8" font-family="Times,serif" font-size="14.00">class = False</text>
</g>
<!-- 720&#45;&gt;721 -->
<g id="edge25" class="edge">
<title>720&#45;&gt;721</title>
<path fill="none" stroke="black" d="M1130.5,-190.91C1130.5,-182.65 1130.5,-173.86 1130.5,-165.3"/>
<polygon fill="black" stroke="black" points="1134,-165.02 1130.5,-155.02 1127,-165.02 1134,-165.02"/>
</g>
<!-- 756 -->
<g id="node29" class="node">
<title>756</title>
<polygon fill="#feffff" stroke="black" points="1390,-155 1223,-155 1223,-72 1390,-72 1390,-155"/>
<text text-anchor="middle" x="1306.5" y="-139.8" font-family="Times,serif" font-size="14.00">graphDepth &lt;= 12.5</text>
<text text-anchor="middle" x="1306.5" y="-124.8" font-family="Times,serif" font-size="14.00">gini = 0.5</text>
<text text-anchor="middle" x="1306.5" y="-109.8" font-family="Times,serif" font-size="14.00">samples = 1136</text>
<text text-anchor="middle" x="1306.5" y="-94.8" font-family="Times,serif" font-size="14.00">value = [567, 569]</text>
<text text-anchor="middle" x="1306.5" y="-79.8" font-family="Times,serif" font-size="14.00">class = True</text>
</g>
<!-- 720&#45;&gt;756 -->
<g id="edge28" class="edge">
<title>720&#45;&gt;756</title>
<path fill="none" stroke="black" d="M1191.56,-190.91C1206.17,-181.2 1221.87,-170.76 1236.84,-160.81"/>
<polygon fill="black" stroke="black" points="1239.16,-163.47 1245.55,-155.02 1235.28,-157.64 1239.16,-163.47"/>
</g>
<!-- 722 -->
<g id="node27" class="node">
<title>722</title>
<polygon fill="#c0c0c0" stroke="black" points="1119.5,-36 1065.5,-36 1065.5,0 1119.5,0 1119.5,-36"/>
<text text-anchor="middle" x="1092.5" y="-14.3" font-family="Times,serif" font-size="14.00">(...)</text>
</g>
<!-- 721&#45;&gt;722 -->
<g id="edge26" class="edge">
<title>721&#45;&gt;722</title>
<path fill="none" stroke="black" d="M1113.94,-71.76C1110.36,-62.94 1106.66,-53.84 1103.36,-45.72"/>
<polygon fill="black" stroke="black" points="1106.58,-44.35 1099.57,-36.41 1100.1,-46.99 1106.58,-44.35"/>
</g>
<!-- 739 -->
<g id="node28" class="node">
<title>739</title>
<polygon fill="#c0c0c0" stroke="black" points="1191.5,-36 1137.5,-36 1137.5,0 1191.5,0 1191.5,-36"/>
<text text-anchor="middle" x="1164.5" y="-14.3" font-family="Times,serif" font-size="14.00">(...)</text>
</g>
<!-- 721&#45;&gt;739 -->
<g id="edge27" class="edge">
<title>721&#45;&gt;739</title>
<path fill="none" stroke="black" d="M1145.31,-71.76C1148.48,-63.04 1151.76,-54.04 1154.68,-45.99"/>
<polygon fill="black" stroke="black" points="1158.04,-47 1158.17,-36.41 1151.46,-44.61 1158.04,-47"/>
</g>
<!-- 757 -->
<g id="node30" class="node">
<title>757</title>
<polygon fill="#c0c0c0" stroke="black" points="1297.5,-36 1243.5,-36 1243.5,0 1297.5,0 1297.5,-36"/>
<text text-anchor="middle" x="1270.5" y="-14.3" font-family="Times,serif" font-size="14.00">(...)</text>
</g>
<!-- 756&#45;&gt;757 -->
<g id="edge29" class="edge">
<title>756&#45;&gt;757</title>
<path fill="none" stroke="black" d="M1290.81,-71.76C1287.46,-63.04 1283.99,-54.04 1280.89,-45.99"/>
<polygon fill="black" stroke="black" points="1284.06,-44.48 1277.2,-36.41 1277.53,-46.99 1284.06,-44.48"/>
</g>
<!-- 766 -->
<g id="node31" class="node">
<title>766</title>
<polygon fill="#c0c0c0" stroke="black" points="1369.5,-36 1315.5,-36 1315.5,0 1369.5,0 1369.5,-36"/>
<text text-anchor="middle" x="1342.5" y="-14.3" font-family="Times,serif" font-size="14.00">(...)</text>
</g>
<!-- 756&#45;&gt;766 -->
<g id="edge30" class="edge">
<title>756&#45;&gt;766</title>
<path fill="none" stroke="black" d="M1322.19,-71.76C1325.54,-63.04 1329.01,-54.04 1332.11,-45.99"/>
<polygon fill="black" stroke="black" points="1335.47,-46.99 1335.8,-36.41 1328.94,-44.48 1335.47,-46.99"/>
</g>
</g>
</svg>
