<?xml version="1.0" encoding="UTF-8" standalone="no"?>
<!DOCTYPE svg PUBLIC "-//W3C//DTD SVG 1.1//EN"
 "http://www.w3.org/Graphics/SVG/1.1/DTD/svg11.dtd">
<!-- Generated by graphviz version 2.43.0 (0)
 -->
<!-- Title: Tree Pages: 1 -->
<svg width="1425pt" height="520pt"
 viewBox="0.00 0.00 1424.50 520.00" xmlns="http://www.w3.org/2000/svg" xmlns:xlink="http://www.w3.org/1999/xlink">
<g id="graph0" class="graph" transform="scale(1 1) rotate(0) translate(4 516)">
<title>Tree</title>
<polygon fill="white" stroke="transparent" points="-4,4 -4,-516 1420.5,-516 1420.5,4 -4,4"/>
<!-- 0 -->
<g id="node1" class="node">
<title>0</title>
<polygon fill="#fae6d7" stroke="black" points="801.5,-512 616.5,-512 616.5,-429 801.5,-429 801.5,-512"/>
<text text-anchor="middle" x="709" y="-496.8" font-family="Times,serif" font-size="14.00">CCR &lt;= 0.55</text>
<text text-anchor="middle" x="709" y="-481.8" font-family="Times,serif" font-size="14.00">gini = 0.494</text>
<text text-anchor="middle" x="709" y="-466.8" font-family="Times,serif" font-size="14.00">samples = 35106</text>
<text text-anchor="middle" x="709" y="-451.8" font-family="Times,serif" font-size="14.00">value = [19509, 15597]</text>
<text text-anchor="middle" x="709" y="-436.8" font-family="Times,serif" font-size="14.00">class = False</text>
</g>
<!-- 1 -->
<g id="node2" class="node">
<title>1</title>
<polygon fill="#e1f0fb" stroke="black" points="612.5,-393 445.5,-393 445.5,-310 612.5,-310 612.5,-393"/>
<text text-anchor="middle" x="529" y="-377.8" font-family="Times,serif" font-size="14.00">sdComp &lt;= 0.065</text>
<text text-anchor="middle" x="529" y="-362.8" font-family="Times,serif" font-size="14.00">gini = 0.497</text>
<text text-anchor="middle" x="529" y="-347.8" font-family="Times,serif" font-size="14.00">samples = 16488</text>
<text text-anchor="middle" x="529" y="-332.8" font-family="Times,serif" font-size="14.00">value = [7562, 8926]</text>
<text text-anchor="middle" x="529" y="-317.8" font-family="Times,serif" font-size="14.00">class = True</text>
</g>
<!-- 0&#45;&gt;1 -->
<g id="edge1" class="edge">
<title>0&#45;&gt;1</title>
<path fill="none" stroke="black" d="M646.55,-428.91C631.47,-419.11 615.25,-408.56 599.82,-398.53"/>
<polygon fill="black" stroke="black" points="601.63,-395.54 591.34,-393.02 597.82,-401.41 601.63,-395.54"/>
<text text-anchor="middle" x="596.53" y="-413.78" font-family="Times,serif" font-size="14.00">True</text>
</g>
<!-- 238 -->
<g id="node17" class="node">
<title>238</title>
<polygon fill="#f4c7a8" stroke="black" points="971,-393 795,-393 795,-310 971,-310 971,-393"/>
<text text-anchor="middle" x="883" y="-377.8" font-family="Times,serif" font-size="14.00">sdComp &lt;= 0.65</text>
<text text-anchor="middle" x="883" y="-362.8" font-family="Times,serif" font-size="14.00">gini = 0.46</text>
<text text-anchor="middle" x="883" y="-347.8" font-family="Times,serif" font-size="14.00">samples = 18618</text>
<text text-anchor="middle" x="883" y="-332.8" font-family="Times,serif" font-size="14.00">value = [11947, 6671]</text>
<text text-anchor="middle" x="883" y="-317.8" font-family="Times,serif" font-size="14.00">class = False</text>
</g>
<!-- 0&#45;&gt;238 -->
<g id="edge16" class="edge">
<title>0&#45;&gt;238</title>
<path fill="none" stroke="black" d="M769.37,-428.91C783.81,-419.2 799.33,-408.76 814.13,-398.81"/>
<polygon fill="black" stroke="black" points="816.39,-401.51 822.74,-393.02 812.49,-395.7 816.39,-401.51"/>
<text text-anchor="middle" x="817.93" y="-413.85" font-family="Times,serif" font-size="14.00">False</text>
</g>
<!-- 2 -->
<g id="node3" class="node">
<title>2</title>
<polygon fill="#f9e2d2" stroke="black" points="342.5,-274 175.5,-274 175.5,-191 342.5,-191 342.5,-274"/>
<text text-anchor="middle" x="259" y="-258.8" font-family="Times,serif" font-size="14.00">nbproc &lt;= 4.5</text>
<text text-anchor="middle" x="259" y="-243.8" font-family="Times,serif" font-size="14.00">gini = 0.492</text>
<text text-anchor="middle" x="259" y="-228.8" font-family="Times,serif" font-size="14.00">samples = 6042</text>
<text text-anchor="middle" x="259" y="-213.8" font-family="Times,serif" font-size="14.00">value = [3408, 2634]</text>
<text text-anchor="middle" x="259" y="-198.8" font-family="Times,serif" font-size="14.00">class = False</text>
</g>
<!-- 1&#45;&gt;2 -->
<g id="edge2" class="edge">
<title>1&#45;&gt;2</title>
<path fill="none" stroke="black" d="M445.42,-314.28C415.8,-301.45 382.31,-286.93 351.96,-273.78"/>
<polygon fill="black" stroke="black" points="353.22,-270.51 342.65,-269.75 350.43,-276.94 353.22,-270.51"/>
</g>
<!-- 149 -->
<g id="node10" class="node">
<title>149</title>
<polygon fill="#bcdef6" stroke="black" points="612.5,-274 445.5,-274 445.5,-191 612.5,-191 612.5,-274"/>
<text text-anchor="middle" x="529" y="-258.8" font-family="Times,serif" font-size="14.00">graphDepth &lt;= 3.5</text>
<text text-anchor="middle" x="529" y="-243.8" font-family="Times,serif" font-size="14.00">gini = 0.479</text>
<text text-anchor="middle" x="529" y="-228.8" font-family="Times,serif" font-size="14.00">samples = 10446</text>
<text text-anchor="middle" x="529" y="-213.8" font-family="Times,serif" font-size="14.00">value = [4154, 6292]</text>
<text text-anchor="middle" x="529" y="-198.8" font-family="Times,serif" font-size="14.00">class = True</text>
</g>
<!-- 1&#45;&gt;149 -->
<g id="edge9" class="edge">
<title>1&#45;&gt;149</title>
<path fill="none" stroke="black" d="M529,-309.91C529,-301.65 529,-292.86 529,-284.3"/>
<polygon fill="black" stroke="black" points="532.5,-284.02 529,-274.02 525.5,-284.02 532.5,-284.02"/>
</g>
<!-- 3 -->
<g id="node4" class="node">
<title>3</title>
<polygon fill="#f0b58b" stroke="black" points="158,-155 0,-155 0,-72 158,-72 158,-155"/>
<text text-anchor="middle" x="79" y="-139.8" font-family="Times,serif" font-size="14.00">graphDepth &lt;= 3.5</text>
<text text-anchor="middle" x="79" y="-124.8" font-family="Times,serif" font-size="14.00">gini = 0.414</text>
<text text-anchor="middle" x="79" y="-109.8" font-family="Times,serif" font-size="14.00">samples = 1634</text>
<text text-anchor="middle" x="79" y="-94.8" font-family="Times,serif" font-size="14.00">value = [1156, 478]</text>
<text text-anchor="middle" x="79" y="-79.8" font-family="Times,serif" font-size="14.00">class = False</text>
</g>
<!-- 2&#45;&gt;3 -->
<g id="edge3" class="edge">
<title>2&#45;&gt;3</title>
<path fill="none" stroke="black" d="M196.55,-190.91C181.47,-181.11 165.25,-170.56 149.82,-160.53"/>
<polygon fill="black" stroke="black" points="151.63,-157.54 141.34,-155.02 147.82,-163.41 151.63,-157.54"/>
</g>
<!-- 68 -->
<g id="node7" class="node">
<title>68</title>
<polygon fill="#fefaf7" stroke="black" points="342.5,-155 175.5,-155 175.5,-72 342.5,-72 342.5,-155"/>
<text text-anchor="middle" x="259" y="-139.8" font-family="Times,serif" font-size="14.00">graphSize &lt;= 40.0</text>
<text text-anchor="middle" x="259" y="-124.8" font-family="Times,serif" font-size="14.00">gini = 0.5</text>
<text text-anchor="middle" x="259" y="-109.8" font-family="Times,serif" font-size="14.00">samples = 4408</text>
<text text-anchor="middle" x="259" y="-94.8" font-family="Times,serif" font-size="14.00">value = [2252, 2156]</text>
<text text-anchor="middle" x="259" y="-79.8" font-family="Times,serif" font-size="14.00">class = False</text>
</g>
<!-- 2&#45;&gt;68 -->
<g id="edge6" class="edge">
<title>2&#45;&gt;68</title>
<path fill="none" stroke="black" d="M259,-190.91C259,-182.65 259,-173.86 259,-165.3"/>
<polygon fill="black" stroke="black" points="262.5,-165.02 259,-155.02 255.5,-165.02 262.5,-165.02"/>
</g>
<!-- 4 -->
<g id="node5" class="node">
<title>4</title>
<polygon fill="#c0c0c0" stroke="black" points="70,-36 16,-36 16,0 70,0 70,-36"/>
<text text-anchor="middle" x="43" y="-14.3" font-family="Times,serif" font-size="14.00">(...)</text>
</g>
<!-- 3&#45;&gt;4 -->
<g id="edge4" class="edge">
<title>3&#45;&gt;4</title>
<path fill="none" stroke="black" d="M63.31,-71.76C59.96,-63.04 56.49,-54.04 53.39,-45.99"/>
<polygon fill="black" stroke="black" points="56.56,-44.48 49.7,-36.41 50.03,-46.99 56.56,-44.48"/>
</g>
<!-- 15 -->
<g id="node6" class="node">
<title>15</title>
<polygon fill="#c0c0c0" stroke="black" points="142,-36 88,-36 88,0 142,0 142,-36"/>
<text text-anchor="middle" x="115" y="-14.3" font-family="Times,serif" font-size="14.00">(...)</text>
</g>
<!-- 3&#45;&gt;15 -->
<g id="edge5" class="edge">
<title>3&#45;&gt;15</title>
<path fill="none" stroke="black" d="M94.69,-71.76C98.04,-63.04 101.51,-54.04 104.61,-45.99"/>
<polygon fill="black" stroke="black" points="107.97,-46.99 108.3,-36.41 101.44,-44.48 107.97,-46.99"/>
</g>
<!-- 69 -->
<g id="node8" class="node">
<title>69</title>
<polygon fill="#c0c0c0" stroke="black" points="250,-36 196,-36 196,0 250,0 250,-36"/>
<text text-anchor="middle" x="223" y="-14.3" font-family="Times,serif" font-size="14.00">(...)</text>
</g>
<!-- 68&#45;&gt;69 -->
<g id="edge7" class="edge">
<title>68&#45;&gt;69</title>
<path fill="none" stroke="black" d="M243.31,-71.76C239.96,-63.04 236.49,-54.04 233.39,-45.99"/>
<polygon fill="black" stroke="black" points="236.56,-44.48 229.7,-36.41 230.03,-46.99 236.56,-44.48"/>
</g>
<!-- 116 -->
<g id="node9" class="node">
<title>116</title>
<polygon fill="#c0c0c0" stroke="black" points="322,-36 268,-36 268,0 322,0 322,-36"/>
<text text-anchor="middle" x="295" y="-14.3" font-family="Times,serif" font-size="14.00">(...)</text>
</g>
<!-- 68&#45;&gt;116 -->
<g id="edge8" class="edge">
<title>68&#45;&gt;116</title>
<path fill="none" stroke="black" d="M274.69,-71.76C278.04,-63.04 281.51,-54.04 284.61,-45.99"/>
<polygon fill="black" stroke="black" points="287.97,-46.99 288.3,-36.41 281.44,-44.48 287.97,-46.99"/>
</g>
<!-- 150 -->
<g id="node11" class="node">
<title>150</title>
<polygon fill="#78bced" stroke="black" points="518,-155 360,-155 360,-72 518,-72 518,-155"/>
<text text-anchor="middle" x="439" y="-139.8" font-family="Times,serif" font-size="14.00">sdComm &lt;= 0.02</text>
<text text-anchor="middle" x="439" y="-124.8" font-family="Times,serif" font-size="14.00">gini = 0.366</text>
<text text-anchor="middle" x="439" y="-109.8" font-family="Times,serif" font-size="14.00">samples = 2136</text>
<text text-anchor="middle" x="439" y="-94.8" font-family="Times,serif" font-size="14.00">value = [516, 1620]</text>
<text text-anchor="middle" x="439" y="-79.8" font-family="Times,serif" font-size="14.00">class = True</text>
</g>
<!-- 149&#45;&gt;150 -->
<g id="edge10" class="edge">
<title>149&#45;&gt;150</title>
<path fill="none" stroke="black" d="M497.77,-190.91C490.86,-181.92 483.47,-172.32 476.35,-163.05"/>
<polygon fill="black" stroke="black" points="479.04,-160.81 470.17,-155.02 473.49,-165.08 479.04,-160.81"/>
</g>
<!-- 161 -->
<g id="node14" class="node">
<title>161</title>
<polygon fill="#d3e9f9" stroke="black" points="702.5,-155 535.5,-155 535.5,-72 702.5,-72 702.5,-155"/>
<text text-anchor="middle" x="619" y="-139.8" font-family="Times,serif" font-size="14.00">graphSize &lt;= 22.5</text>
<text text-anchor="middle" x="619" y="-124.8" font-family="Times,serif" font-size="14.00">gini = 0.492</text>
<text text-anchor="middle" x="619" y="-109.8" font-family="Times,serif" font-size="14.00">samples = 8310</text>
<text text-anchor="middle" x="619" y="-94.8" font-family="Times,serif" font-size="14.00">value = [3638, 4672]</text>
<text text-anchor="middle" x="619" y="-79.8" font-family="Times,serif" font-size="14.00">class = True</text>
</g>
<!-- 149&#45;&gt;161 -->
<g id="edge13" class="edge">
<title>149&#45;&gt;161</title>
<path fill="none" stroke="black" d="M560.23,-190.91C567.14,-181.92 574.53,-172.32 581.65,-163.05"/>
<polygon fill="black" stroke="black" points="584.51,-165.08 587.83,-155.02 578.96,-160.81 584.51,-165.08"/>
</g>
<!-- 151 -->
<g id="node12" class="node">
<title>151</title>
<polygon fill="#c0c0c0" stroke="black" points="432,-36 378,-36 378,0 432,0 432,-36"/>
<text text-anchor="middle" x="405" y="-14.3" font-family="Times,serif" font-size="14.00">(...)</text>
</g>
<!-- 150&#45;&gt;151 -->
<g id="edge11" class="edge">
<title>150&#45;&gt;151</title>
<path fill="none" stroke="black" d="M424.19,-71.76C421.02,-63.04 417.74,-54.04 414.82,-45.99"/>
<polygon fill="black" stroke="black" points="418.04,-44.61 411.33,-36.41 411.46,-47 418.04,-44.61"/>
</g>
<!-- 154 -->
<g id="node13" class="node">
<title>154</title>
<polygon fill="#c0c0c0" stroke="black" points="504,-36 450,-36 450,0 504,0 504,-36"/>
<text text-anchor="middle" x="477" y="-14.3" font-family="Times,serif" font-size="14.00">(...)</text>
</g>
<!-- 150&#45;&gt;154 -->
<g id="edge12" class="edge">
<title>150&#45;&gt;154</title>
<path fill="none" stroke="black" d="M455.56,-71.76C459.14,-62.94 462.84,-53.84 466.14,-45.72"/>
<polygon fill="black" stroke="black" points="469.4,-46.99 469.93,-36.41 462.92,-44.35 469.4,-46.99"/>
</g>
<!-- 162 -->
<g id="node15" class="node">
<title>162</title>
<polygon fill="#c0c0c0" stroke="black" points="594,-36 540,-36 540,0 594,0 594,-36"/>
<text text-anchor="middle" x="567" y="-14.3" font-family="Times,serif" font-size="14.00">(...)</text>
</g>
<!-- 161&#45;&gt;162 -->
<g id="edge14" class="edge">
<title>161&#45;&gt;162</title>
<path fill="none" stroke="black" d="M596.34,-71.76C591.33,-62.75 586.15,-53.44 581.57,-45.19"/>
<polygon fill="black" stroke="black" points="584.6,-43.44 576.68,-36.41 578.48,-46.85 584.6,-43.44"/>
</g>
<!-- 173 -->
<g id="node16" class="node">
<title>173</title>
<polygon fill="#c0c0c0" stroke="black" points="666,-36 612,-36 612,0 666,0 666,-36"/>
<text text-anchor="middle" x="639" y="-14.3" font-family="Times,serif" font-size="14.00">(...)</text>
</g>
<!-- 161&#45;&gt;173 -->
<g id="edge15" class="edge">
<title>161&#45;&gt;173</title>
<path fill="none" stroke="black" d="M627.71,-71.76C629.56,-63.14 631.46,-54.24 633.17,-46.26"/>
<polygon fill="black" stroke="black" points="636.61,-46.92 635.28,-36.41 629.76,-45.45 636.61,-46.92"/>
</g>
<!-- 239 -->
<g id="node18" class="node">
<title>239</title>
<polygon fill="#eda775" stroke="black" points="966.5,-274 799.5,-274 799.5,-191 966.5,-191 966.5,-274"/>
<text text-anchor="middle" x="883" y="-258.8" font-family="Times,serif" font-size="14.00">graphDepth &lt;= 13.5</text>
<text text-anchor="middle" x="883" y="-243.8" font-family="Times,serif" font-size="14.00">gini = 0.356</text>
<text text-anchor="middle" x="883" y="-228.8" font-family="Times,serif" font-size="14.00">samples = 5833</text>
<text text-anchor="middle" x="883" y="-213.8" font-family="Times,serif" font-size="14.00">value = [4479, 1354]</text>
<text text-anchor="middle" x="883" y="-198.8" font-family="Times,serif" font-size="14.00">class = False</text>
</g>
<!-- 238&#45;&gt;239 -->
<g id="edge17" class="edge">
<title>238&#45;&gt;239</title>
<path fill="none" stroke="black" d="M883,-309.91C883,-301.65 883,-292.86 883,-284.3"/>
<polygon fill="black" stroke="black" points="886.5,-284.02 883,-274.02 879.5,-284.02 886.5,-284.02"/>
</g>
<!-- 358 -->
<g id="node25" class="node">
<title>358</title>
<polygon fill="#f8dbc6" stroke="black" points="1231.5,-274 1064.5,-274 1064.5,-191 1231.5,-191 1231.5,-274"/>
<text text-anchor="middle" x="1148" y="-258.8" font-family="Times,serif" font-size="14.00">sdComp &lt;= 6.5</text>
<text text-anchor="middle" x="1148" y="-243.8" font-family="Times,serif" font-size="14.00">gini = 0.486</text>
<text text-anchor="middle" x="1148" y="-228.8" font-family="Times,serif" font-size="14.00">samples = 12785</text>
<text text-anchor="middle" x="1148" y="-213.8" font-family="Times,serif" font-size="14.00">value = [7468, 5317]</text>
<text text-anchor="middle" x="1148" y="-198.8" font-family="Times,serif" font-size="14.00">class = False</text>
</g>
<!-- 238&#45;&gt;358 -->
<g id="edge24" class="edge">
<title>238&#45;&gt;358</title>
<path fill="none" stroke="black" d="M971.24,-311.54C998.04,-299.71 1027.58,-286.67 1054.7,-274.69"/>
<polygon fill="black" stroke="black" points="1056.45,-277.75 1064.18,-270.51 1053.62,-271.34 1056.45,-277.75"/>
</g>
<!-- 240 -->
<g id="node19" class="node">
<title>240</title>
<polygon fill="#eeac7d" stroke="black" points="887.5,-155 720.5,-155 720.5,-72 887.5,-72 887.5,-155"/>
<text text-anchor="middle" x="804" y="-139.8" font-family="Times,serif" font-size="14.00">sdComp &lt;= 0.2</text>
<text text-anchor="middle" x="804" y="-124.8" font-family="Times,serif" font-size="14.00">gini = 0.38</text>
<text text-anchor="middle" x="804" y="-109.8" font-family="Times,serif" font-size="14.00">samples = 5243</text>
<text text-anchor="middle" x="804" y="-94.8" font-family="Times,serif" font-size="14.00">value = [3905, 1338]</text>
<text text-anchor="middle" x="804" y="-79.8" font-family="Times,serif" font-size="14.00">class = False</text>
</g>
<!-- 239&#45;&gt;240 -->
<g id="edge18" class="edge">
<title>239&#45;&gt;240</title>
<path fill="none" stroke="black" d="M855.59,-190.91C849.59,-182.01 843.17,-172.51 836.97,-163.33"/>
<polygon fill="black" stroke="black" points="839.86,-161.35 831.36,-155.02 834.06,-165.27 839.86,-161.35"/>
</g>
<!-- 341 -->
<g id="node22" class="node">
<title>341</title>
<polygon fill="#e6853f" stroke="black" points="1046,-155 906,-155 906,-72 1046,-72 1046,-155"/>
<text text-anchor="middle" x="976" y="-139.8" font-family="Times,serif" font-size="14.00">sdComp &lt;= 0.2</text>
<text text-anchor="middle" x="976" y="-124.8" font-family="Times,serif" font-size="14.00">gini = 0.053</text>
<text text-anchor="middle" x="976" y="-109.8" font-family="Times,serif" font-size="14.00">samples = 590</text>
<text text-anchor="middle" x="976" y="-94.8" font-family="Times,serif" font-size="14.00">value = [574, 16]</text>
<text text-anchor="middle" x="976" y="-79.8" font-family="Times,serif" font-size="14.00">class = False</text>
</g>
<!-- 239&#45;&gt;341 -->
<g id="edge21" class="edge">
<title>239&#45;&gt;341</title>
<path fill="none" stroke="black" d="M915.27,-190.91C922.41,-181.92 930.04,-172.32 937.41,-163.05"/>
<polygon fill="black" stroke="black" points="940.31,-165.03 943.79,-155.02 934.83,-160.67 940.31,-165.03"/>
</g>
<!-- 241 -->
<g id="node20" class="node">
<title>241</title>
<polygon fill="#c0c0c0" stroke="black" points="773,-36 719,-36 719,0 773,0 773,-36"/>
<text text-anchor="middle" x="746" y="-14.3" font-family="Times,serif" font-size="14.00">(...)</text>
</g>
<!-- 240&#45;&gt;241 -->
<g id="edge19" class="edge">
<title>240&#45;&gt;241</title>
<path fill="none" stroke="black" d="M778.73,-71.76C773.08,-62.65 767.24,-53.24 762.08,-44.92"/>
<polygon fill="black" stroke="black" points="765.04,-43.06 756.8,-36.41 759.09,-46.75 765.04,-43.06"/>
</g>
<!-- 288 -->
<g id="node21" class="node">
<title>288</title>
<polygon fill="#c0c0c0" stroke="black" points="845,-36 791,-36 791,0 845,0 845,-36"/>
<text text-anchor="middle" x="818" y="-14.3" font-family="Times,serif" font-size="14.00">(...)</text>
</g>
<!-- 240&#45;&gt;288 -->
<g id="edge20" class="edge">
<title>240&#45;&gt;288</title>
<path fill="none" stroke="black" d="M810.1,-71.76C811.38,-63.24 812.69,-54.44 813.88,-46.53"/>
<polygon fill="black" stroke="black" points="817.37,-46.81 815.39,-36.41 810.45,-45.78 817.37,-46.81"/>
</g>
<!-- 342 -->
<g id="node23" class="node">
<title>342</title>
<polygon fill="#c0c0c0" stroke="black" points="945,-36 891,-36 891,0 945,0 945,-36"/>
<text text-anchor="middle" x="918" y="-14.3" font-family="Times,serif" font-size="14.00">(...)</text>
</g>
<!-- 341&#45;&gt;342 -->
<g id="edge22" class="edge">
<title>341&#45;&gt;342</title>
<path fill="none" stroke="black" d="M950.73,-71.76C945.08,-62.65 939.24,-53.24 934.08,-44.92"/>
<polygon fill="black" stroke="black" points="937.04,-43.06 928.8,-36.41 931.09,-46.75 937.04,-43.06"/>
</g>
<!-- 343 -->
<g id="node24" class="node">
<title>343</title>
<polygon fill="#c0c0c0" stroke="black" points="1017,-36 963,-36 963,0 1017,0 1017,-36"/>
<text text-anchor="middle" x="990" y="-14.3" font-family="Times,serif" font-size="14.00">(...)</text>
</g>
<!-- 341&#45;&gt;343 -->
<g id="edge23" class="edge">
<title>341&#45;&gt;343</title>
<path fill="none" stroke="black" d="M982.1,-71.76C983.38,-63.24 984.69,-54.44 985.88,-46.53"/>
<polygon fill="black" stroke="black" points="989.37,-46.81 987.39,-36.41 982.45,-45.78 989.37,-46.81"/>
</g>
<!-- 359 -->
<g id="node26" class="node">
<title>359</title>
<polygon fill="#f5ccaf" stroke="black" points="1231.5,-155 1064.5,-155 1064.5,-72 1231.5,-72 1231.5,-155"/>
<text text-anchor="middle" x="1148" y="-139.8" font-family="Times,serif" font-size="14.00">sdComm &lt;= 0.65</text>
<text text-anchor="middle" x="1148" y="-124.8" font-family="Times,serif" font-size="14.00">gini = 0.468</text>
<text text-anchor="middle" x="1148" y="-109.8" font-family="Times,serif" font-size="14.00">samples = 8831</text>
<text text-anchor="middle" x="1148" y="-94.8" font-family="Times,serif" font-size="14.00">value = [5530, 3301]</text>
<text text-anchor="middle" x="1148" y="-79.8" font-family="Times,serif" font-size="14.00">class = False</text>
</g>
<!-- 358&#45;&gt;359 -->
<g id="edge25" class="edge">
<title>358&#45;&gt;359</title>
<path fill="none" stroke="black" d="M1148,-190.91C1148,-182.65 1148,-173.86 1148,-165.3"/>
<polygon fill="black" stroke="black" points="1151.5,-165.02 1148,-155.02 1144.5,-165.02 1151.5,-165.02"/>
</g>
<!-- 584 -->
<g id="node29" class="node">
<title>584</title>
<polygon fill="#f7fbfe" stroke="black" points="1416.5,-155 1249.5,-155 1249.5,-72 1416.5,-72 1416.5,-155"/>
<text text-anchor="middle" x="1333" y="-139.8" font-family="Times,serif" font-size="14.00">graphDepth &lt;= 9.0</text>
<text text-anchor="middle" x="1333" y="-124.8" font-family="Times,serif" font-size="14.00">gini = 0.5</text>
<text text-anchor="middle" x="1333" y="-109.8" font-family="Times,serif" font-size="14.00">samples = 3954</text>
<text text-anchor="middle" x="1333" y="-94.8" font-family="Times,serif" font-size="14.00">value = [1938, 2016]</text>
<text text-anchor="middle" x="1333" y="-79.8" font-family="Times,serif" font-size="14.00">class = True</text>
</g>
<!-- 358&#45;&gt;584 -->
<g id="edge28" class="edge">
<title>358&#45;&gt;584</title>
<path fill="none" stroke="black" d="M1212.18,-190.91C1227.68,-181.11 1244.35,-170.56 1260.21,-160.53"/>
<polygon fill="black" stroke="black" points="1262.35,-163.32 1268.93,-155.02 1258.61,-157.41 1262.35,-163.32"/>
</g>
<!-- 360 -->
<g id="node27" class="node">
<title>360</title>
<polygon fill="#c0c0c0" stroke="black" points="1139,-36 1085,-36 1085,0 1139,0 1139,-36"/>
<text text-anchor="middle" x="1112" y="-14.3" font-family="Times,serif" font-size="14.00">(...)</text>
</g>
<!-- 359&#45;&gt;360 -->
<g id="edge26" class="edge">
<title>359&#45;&gt;360</title>
<path fill="none" stroke="black" d="M1132.31,-71.76C1128.96,-63.04 1125.49,-54.04 1122.39,-45.99"/>
<polygon fill="black" stroke="black" points="1125.56,-44.48 1118.7,-36.41 1119.03,-46.99 1125.56,-44.48"/>
</g>
<!-- 419 -->
<g id="node28" class="node">
<title>419</title>
<polygon fill="#c0c0c0" stroke="black" points="1211,-36 1157,-36 1157,0 1211,0 1211,-36"/>
<text text-anchor="middle" x="1184" y="-14.3" font-family="Times,serif" font-size="14.00">(...)</text>
</g>
<!-- 359&#45;&gt;419 -->
<g id="edge27" class="edge">
<title>359&#45;&gt;419</title>
<path fill="none" stroke="black" d="M1163.69,-71.76C1167.04,-63.04 1170.51,-54.04 1173.61,-45.99"/>
<polygon fill="black" stroke="black" points="1176.97,-46.99 1177.3,-36.41 1170.44,-44.48 1176.97,-46.99"/>
</g>
<!-- 585 -->
<g id="node30" class="node">
<title>585</title>
<polygon fill="#c0c0c0" stroke="black" points="1324,-36 1270,-36 1270,0 1324,0 1324,-36"/>
<text text-anchor="middle" x="1297" y="-14.3" font-family="Times,serif" font-size="14.00">(...)</text>
</g>
<!-- 584&#45;&gt;585 -->
<g id="edge29" class="edge">
<title>584&#45;&gt;585</title>
<path fill="none" stroke="black" d="M1317.31,-71.76C1313.96,-63.04 1310.49,-54.04 1307.39,-45.99"/>
<polygon fill="black" stroke="black" points="1310.56,-44.48 1303.7,-36.41 1304.03,-46.99 1310.56,-44.48"/>
</g>
<!-- 628 -->
<g id="node31" class="node">
<title>628</title>
<polygon fill="#c0c0c0" stroke="black" points="1396,-36 1342,-36 1342,0 1396,0 1396,-36"/>
<text text-anchor="middle" x="1369" y="-14.3" font-family="Times,serif" font-size="14.00">(...)</text>
</g>
<!-- 584&#45;&gt;628 -->
<g id="edge30" class="edge">
<title>584&#45;&gt;628</title>
<path fill="none" stroke="black" d="M1348.69,-71.76C1352.04,-63.04 1355.51,-54.04 1358.61,-45.99"/>
<polygon fill="black" stroke="black" points="1361.97,-46.99 1362.3,-36.41 1355.44,-44.48 1361.97,-46.99"/>
</g>
</g>
</svg>
