<?xml version="1.0" encoding="UTF-8" standalone="no"?>
<!DOCTYPE svg PUBLIC "-//W3C//DTD SVG 1.1//EN"
 "http://www.w3.org/Graphics/SVG/1.1/DTD/svg11.dtd">
<!-- Generated by graphviz version 2.43.0 (0)
 -->
<!-- Title: Tree Pages: 1 -->
<svg width="1305pt" height="520pt"
 viewBox="0.00 0.00 1304.50 520.00" xmlns="http://www.w3.org/2000/svg" xmlns:xlink="http://www.w3.org/1999/xlink">
<g id="graph0" class="graph" transform="scale(1 1) rotate(0) translate(4 516)">
<title>Tree</title>
<polygon fill="white" stroke="transparent" points="-4,4 -4,-516 1300.5,-516 1300.5,4 -4,4"/>
<!-- 0 -->
<g id="node1" class="node">
<title>0</title>
<polygon fill="#5baeea" stroke="black" points="729,-512 553,-512 553,-429 729,-429 729,-512"/>
<text text-anchor="middle" x="641" y="-496.8" font-family="Times,serif" font-size="14.00">graphDepth &lt;= 25.5</text>
<text text-anchor="middle" x="641" y="-481.8" font-family="Times,serif" font-size="14.00">gini = 0.252</text>
<text text-anchor="middle" x="641" y="-466.8" font-family="Times,serif" font-size="14.00">samples = 25680</text>
<text text-anchor="middle" x="641" y="-451.8" font-family="Times,serif" font-size="14.00">value = [3800, 21880]</text>
<text text-anchor="middle" x="641" y="-436.8" font-family="Times,serif" font-size="14.00">class = True</text>
</g>
<!-- 1 -->
<g id="node2" class="node">
<title>1</title>
<polygon fill="#56abe9" stroke="black" points="563,-393 387,-393 387,-310 563,-310 563,-393"/>
<text text-anchor="middle" x="475" y="-377.8" font-family="Times,serif" font-size="14.00">sdComm &lt;= 0.65</text>
<text text-anchor="middle" x="475" y="-362.8" font-family="Times,serif" font-size="14.00">gini = 0.224</text>
<text text-anchor="middle" x="475" y="-347.8" font-family="Times,serif" font-size="14.00">samples = 22296</text>
<text text-anchor="middle" x="475" y="-332.8" font-family="Times,serif" font-size="14.00">value = [2868, 19428]</text>
<text text-anchor="middle" x="475" y="-317.8" font-family="Times,serif" font-size="14.00">class = True</text>
</g>
<!-- 0&#45;&gt;1 -->
<g id="edge1" class="edge">
<title>0&#45;&gt;1</title>
<path fill="none" stroke="black" d="M583.41,-428.91C569.63,-419.2 554.82,-408.76 540.71,-398.81"/>
<polygon fill="black" stroke="black" points="542.68,-395.92 532.49,-393.02 538.65,-401.64 542.68,-395.92"/>
<text text-anchor="middle" x="536.76" y="-413.95" font-family="Times,serif" font-size="14.00">True</text>
</g>
<!-- 150 -->
<g id="node13" class="node">
<title>150</title>
<polygon fill="#84c2ef" stroke="black" points="894,-393 736,-393 736,-310 894,-310 894,-393"/>
<text text-anchor="middle" x="815" y="-377.8" font-family="Times,serif" font-size="14.00">nbproc &lt;= 4.5</text>
<text text-anchor="middle" x="815" y="-362.8" font-family="Times,serif" font-size="14.00">gini = 0.399</text>
<text text-anchor="middle" x="815" y="-347.8" font-family="Times,serif" font-size="14.00">samples = 3384</text>
<text text-anchor="middle" x="815" y="-332.8" font-family="Times,serif" font-size="14.00">value = [932, 2452]</text>
<text text-anchor="middle" x="815" y="-317.8" font-family="Times,serif" font-size="14.00">class = True</text>
</g>
<!-- 0&#45;&gt;150 -->
<g id="edge12" class="edge">
<title>0&#45;&gt;150</title>
<path fill="none" stroke="black" d="M701.37,-428.91C715.81,-419.2 731.33,-408.76 746.13,-398.81"/>
<polygon fill="black" stroke="black" points="748.39,-401.51 754.74,-393.02 744.49,-395.7 748.39,-401.51"/>
<text text-anchor="middle" x="749.93" y="-413.85" font-family="Times,serif" font-size="14.00">False</text>
</g>
<!-- 2 -->
<g id="node3" class="node">
<title>2</title>
<polygon fill="#c0e0f7" stroke="black" points="296,-274 138,-274 138,-191 296,-191 296,-274"/>
<text text-anchor="middle" x="217" y="-258.8" font-family="Times,serif" font-size="14.00">graphDepth &lt;= 3.5</text>
<text text-anchor="middle" x="217" y="-243.8" font-family="Times,serif" font-size="14.00">gini = 0.482</text>
<text text-anchor="middle" x="217" y="-228.8" font-family="Times,serif" font-size="14.00">samples = 572</text>
<text text-anchor="middle" x="217" y="-213.8" font-family="Times,serif" font-size="14.00">value = [232, 340]</text>
<text text-anchor="middle" x="217" y="-198.8" font-family="Times,serif" font-size="14.00">class = True</text>
</g>
<!-- 1&#45;&gt;2 -->
<g id="edge2" class="edge">
<title>1&#45;&gt;2</title>
<path fill="none" stroke="black" d="M386.93,-310.56C360.56,-298.6 331.63,-285.48 305.24,-273.52"/>
<polygon fill="black" stroke="black" points="306.57,-270.28 296.02,-269.34 303.68,-276.65 306.57,-270.28"/>
</g>
<!-- 31 -->
<g id="node8" class="node">
<title>31</title>
<polygon fill="#54abe9" stroke="black" points="563,-274 387,-274 387,-191 563,-191 563,-274"/>
<text text-anchor="middle" x="475" y="-258.8" font-family="Times,serif" font-size="14.00">graphDepth &lt;= 3.5</text>
<text text-anchor="middle" x="475" y="-243.8" font-family="Times,serif" font-size="14.00">gini = 0.213</text>
<text text-anchor="middle" x="475" y="-228.8" font-family="Times,serif" font-size="14.00">samples = 21724</text>
<text text-anchor="middle" x="475" y="-213.8" font-family="Times,serif" font-size="14.00">value = [2636, 19088]</text>
<text text-anchor="middle" x="475" y="-198.8" font-family="Times,serif" font-size="14.00">class = True</text>
</g>
<!-- 1&#45;&gt;31 -->
<g id="edge7" class="edge">
<title>1&#45;&gt;31</title>
<path fill="none" stroke="black" d="M475,-309.91C475,-301.65 475,-292.86 475,-284.3"/>
<polygon fill="black" stroke="black" points="478.5,-284.02 475,-274.02 471.5,-284.02 478.5,-284.02"/>
</g>
<!-- 3 -->
<g id="node4" class="node">
<title>3</title>
<polygon fill="#399de5" stroke="black" points="122,-147.5 0,-147.5 0,-79.5 122,-79.5 122,-147.5"/>
<text text-anchor="middle" x="61" y="-132.3" font-family="Times,serif" font-size="14.00">gini = 0.0</text>
<text text-anchor="middle" x="61" y="-117.3" font-family="Times,serif" font-size="14.00">samples = 60</text>
<text text-anchor="middle" x="61" y="-102.3" font-family="Times,serif" font-size="14.00">value = [0, 60]</text>
<text text-anchor="middle" x="61" y="-87.3" font-family="Times,serif" font-size="14.00">class = True</text>
</g>
<!-- 2&#45;&gt;3 -->
<g id="edge3" class="edge">
<title>2&#45;&gt;3</title>
<path fill="none" stroke="black" d="M162.88,-190.91C146.84,-178.88 129.31,-165.73 113.39,-153.79"/>
<polygon fill="black" stroke="black" points="115.32,-150.87 105.22,-147.67 111.12,-156.47 115.32,-150.87"/>
</g>
<!-- 4 -->
<g id="node5" class="node">
<title>4</title>
<polygon fill="#ddeefb" stroke="black" points="293.5,-155 140.5,-155 140.5,-72 293.5,-72 293.5,-155"/>
<text text-anchor="middle" x="217" y="-139.8" font-family="Times,serif" font-size="14.00">graphSize &lt;= 22.5</text>
<text text-anchor="middle" x="217" y="-124.8" font-family="Times,serif" font-size="14.00">gini = 0.496</text>
<text text-anchor="middle" x="217" y="-109.8" font-family="Times,serif" font-size="14.00">samples = 512</text>
<text text-anchor="middle" x="217" y="-94.8" font-family="Times,serif" font-size="14.00">value = [232, 280]</text>
<text text-anchor="middle" x="217" y="-79.8" font-family="Times,serif" font-size="14.00">class = True</text>
</g>
<!-- 2&#45;&gt;4 -->
<g id="edge4" class="edge">
<title>2&#45;&gt;4</title>
<path fill="none" stroke="black" d="M217,-190.91C217,-182.65 217,-173.86 217,-165.3"/>
<polygon fill="black" stroke="black" points="220.5,-165.02 217,-155.02 213.5,-165.02 220.5,-165.02"/>
</g>
<!-- 5 -->
<g id="node6" class="node">
<title>5</title>
<polygon fill="#c0c0c0" stroke="black" points="208,-36 154,-36 154,0 208,0 208,-36"/>
<text text-anchor="middle" x="181" y="-14.3" font-family="Times,serif" font-size="14.00">(...)</text>
</g>
<!-- 4&#45;&gt;5 -->
<g id="edge5" class="edge">
<title>4&#45;&gt;5</title>
<path fill="none" stroke="black" d="M201.31,-71.76C197.96,-63.04 194.49,-54.04 191.39,-45.99"/>
<polygon fill="black" stroke="black" points="194.56,-44.48 187.7,-36.41 188.03,-46.99 194.56,-44.48"/>
</g>
<!-- 20 -->
<g id="node7" class="node">
<title>20</title>
<polygon fill="#c0c0c0" stroke="black" points="280,-36 226,-36 226,0 280,0 280,-36"/>
<text text-anchor="middle" x="253" y="-14.3" font-family="Times,serif" font-size="14.00">(...)</text>
</g>
<!-- 4&#45;&gt;20 -->
<g id="edge6" class="edge">
<title>4&#45;&gt;20</title>
<path fill="none" stroke="black" d="M232.69,-71.76C236.04,-63.04 239.51,-54.04 242.61,-45.99"/>
<polygon fill="black" stroke="black" points="245.97,-46.99 246.3,-36.41 239.44,-44.48 245.97,-46.99"/>
</g>
<!-- 32 -->
<g id="node9" class="node">
<title>32</title>
<polygon fill="#399de5" stroke="black" points="452,-147.5 312,-147.5 312,-79.5 452,-79.5 452,-147.5"/>
<text text-anchor="middle" x="382" y="-132.3" font-family="Times,serif" font-size="14.00">gini = 0.0</text>
<text text-anchor="middle" x="382" y="-117.3" font-family="Times,serif" font-size="14.00">samples = 1880</text>
<text text-anchor="middle" x="382" y="-102.3" font-family="Times,serif" font-size="14.00">value = [0, 1880]</text>
<text text-anchor="middle" x="382" y="-87.3" font-family="Times,serif" font-size="14.00">class = True</text>
</g>
<!-- 31&#45;&gt;32 -->
<g id="edge8" class="edge">
<title>31&#45;&gt;32</title>
<path fill="none" stroke="black" d="M442.73,-190.91C433.7,-179.54 423.87,-167.18 414.81,-155.77"/>
<polygon fill="black" stroke="black" points="417.33,-153.32 408.36,-147.67 411.85,-157.67 417.33,-153.32"/>
</g>
<!-- 33 -->
<g id="node10" class="node">
<title>33</title>
<polygon fill="#57ace9" stroke="black" points="646,-155 470,-155 470,-72 646,-72 646,-155"/>
<text text-anchor="middle" x="558" y="-139.8" font-family="Times,serif" font-size="14.00">sdComp &lt;= 6.5</text>
<text text-anchor="middle" x="558" y="-124.8" font-family="Times,serif" font-size="14.00">gini = 0.23</text>
<text text-anchor="middle" x="558" y="-109.8" font-family="Times,serif" font-size="14.00">samples = 19844</text>
<text text-anchor="middle" x="558" y="-94.8" font-family="Times,serif" font-size="14.00">value = [2636, 17208]</text>
<text text-anchor="middle" x="558" y="-79.8" font-family="Times,serif" font-size="14.00">class = True</text>
</g>
<!-- 31&#45;&gt;33 -->
<g id="edge9" class="edge">
<title>31&#45;&gt;33</title>
<path fill="none" stroke="black" d="M503.8,-190.91C510.11,-182.01 516.85,-172.51 523.36,-163.33"/>
<polygon fill="black" stroke="black" points="526.32,-165.2 529.25,-155.02 520.61,-161.15 526.32,-165.2"/>
</g>
<!-- 34 -->
<g id="node11" class="node">
<title>34</title>
<polygon fill="#c0c0c0" stroke="black" points="529,-36 475,-36 475,0 529,0 529,-36"/>
<text text-anchor="middle" x="502" y="-14.3" font-family="Times,serif" font-size="14.00">(...)</text>
</g>
<!-- 33&#45;&gt;34 -->
<g id="edge10" class="edge">
<title>33&#45;&gt;34</title>
<path fill="none" stroke="black" d="M533.6,-71.76C528.2,-62.75 522.63,-53.44 517.69,-45.19"/>
<polygon fill="black" stroke="black" points="520.57,-43.19 512.42,-36.41 514.56,-46.78 520.57,-43.19"/>
</g>
<!-- 113 -->
<g id="node12" class="node">
<title>113</title>
<polygon fill="#c0c0c0" stroke="black" points="601,-36 547,-36 547,0 601,0 601,-36"/>
<text text-anchor="middle" x="574" y="-14.3" font-family="Times,serif" font-size="14.00">(...)</text>
</g>
<!-- 33&#45;&gt;113 -->
<g id="edge11" class="edge">
<title>33&#45;&gt;113</title>
<path fill="none" stroke="black" d="M564.97,-71.76C566.43,-63.24 567.94,-54.44 569.29,-46.53"/>
<polygon fill="black" stroke="black" points="572.78,-46.85 571.02,-36.41 565.88,-45.67 572.78,-46.85"/>
</g>
<!-- 151 -->
<g id="node14" class="node">
<title>151</title>
<polygon fill="#5baee9" stroke="black" points="889.5,-274 740.5,-274 740.5,-191 889.5,-191 889.5,-274"/>
<text text-anchor="middle" x="815" y="-258.8" font-family="Times,serif" font-size="14.00">sdComp &lt;= 6.5</text>
<text text-anchor="middle" x="815" y="-243.8" font-family="Times,serif" font-size="14.00">gini = 0.249</text>
<text text-anchor="middle" x="815" y="-228.8" font-family="Times,serif" font-size="14.00">samples = 1128</text>
<text text-anchor="middle" x="815" y="-213.8" font-family="Times,serif" font-size="14.00">value = [164, 964]</text>
<text text-anchor="middle" x="815" y="-198.8" font-family="Times,serif" font-size="14.00">class = True</text>
</g>
<!-- 150&#45;&gt;151 -->
<g id="edge13" class="edge">
<title>150&#45;&gt;151</title>
<path fill="none" stroke="black" d="M815,-309.91C815,-301.65 815,-292.86 815,-284.3"/>
<polygon fill="black" stroke="black" points="818.5,-284.02 815,-274.02 811.5,-284.02 818.5,-284.02"/>
</g>
<!-- 162 -->
<g id="node21" class="node">
<title>162</title>
<polygon fill="#9fd0f2" stroke="black" points="1147,-274 989,-274 989,-191 1147,-191 1147,-274"/>
<text text-anchor="middle" x="1068" y="-258.8" font-family="Times,serif" font-size="14.00">sdComp &lt;= 6.5</text>
<text text-anchor="middle" x="1068" y="-243.8" font-family="Times,serif" font-size="14.00">gini = 0.449</text>
<text text-anchor="middle" x="1068" y="-228.8" font-family="Times,serif" font-size="14.00">samples = 2256</text>
<text text-anchor="middle" x="1068" y="-213.8" font-family="Times,serif" font-size="14.00">value = [768, 1488]</text>
<text text-anchor="middle" x="1068" y="-198.8" font-family="Times,serif" font-size="14.00">class = True</text>
</g>
<!-- 150&#45;&gt;162 -->
<g id="edge20" class="edge">
<title>150&#45;&gt;162</title>
<path fill="none" stroke="black" d="M894.01,-313.96C921.1,-301.43 951.6,-287.33 979.4,-274.47"/>
<polygon fill="black" stroke="black" points="981.11,-277.54 988.72,-270.16 978.17,-271.18 981.11,-277.54"/>
</g>
<!-- 152 -->
<g id="node15" class="node">
<title>152</title>
<polygon fill="#3fa0e6" stroke="black" points="804,-155 664,-155 664,-72 804,-72 804,-155"/>
<text text-anchor="middle" x="734" y="-139.8" font-family="Times,serif" font-size="14.00">sdComm &lt;= 6.5</text>
<text text-anchor="middle" x="734" y="-124.8" font-family="Times,serif" font-size="14.00">gini = 0.061</text>
<text text-anchor="middle" x="734" y="-109.8" font-family="Times,serif" font-size="14.00">samples = 756</text>
<text text-anchor="middle" x="734" y="-94.8" font-family="Times,serif" font-size="14.00">value = [24, 732]</text>
<text text-anchor="middle" x="734" y="-79.8" font-family="Times,serif" font-size="14.00">class = True</text>
</g>
<!-- 151&#45;&gt;152 -->
<g id="edge14" class="edge">
<title>151&#45;&gt;152</title>
<path fill="none" stroke="black" d="M786.9,-190.91C780.74,-182.01 774.16,-172.51 767.81,-163.33"/>
<polygon fill="black" stroke="black" points="770.62,-161.25 762.05,-155.02 764.87,-165.24 770.62,-161.25"/>
</g>
<!-- 157 -->
<g id="node18" class="node">
<title>157</title>
<polygon fill="#b0d8f5" stroke="black" points="971.5,-155 822.5,-155 822.5,-72 971.5,-72 971.5,-155"/>
<text text-anchor="middle" x="897" y="-139.8" font-family="Times,serif" font-size="14.00">sdComm &lt;= 6.5</text>
<text text-anchor="middle" x="897" y="-124.8" font-family="Times,serif" font-size="14.00">gini = 0.469</text>
<text text-anchor="middle" x="897" y="-109.8" font-family="Times,serif" font-size="14.00">samples = 372</text>
<text text-anchor="middle" x="897" y="-94.8" font-family="Times,serif" font-size="14.00">value = [140, 232]</text>
<text text-anchor="middle" x="897" y="-79.8" font-family="Times,serif" font-size="14.00">class = True</text>
</g>
<!-- 151&#45;&gt;157 -->
<g id="edge17" class="edge">
<title>151&#45;&gt;157</title>
<path fill="none" stroke="black" d="M843.45,-190.91C849.68,-182.01 856.34,-172.51 862.78,-163.33"/>
<polygon fill="black" stroke="black" points="865.73,-165.22 868.6,-155.02 860,-161.2 865.73,-165.22"/>
</g>
<!-- 153 -->
<g id="node16" class="node">
<title>153</title>
<polygon fill="#c0c0c0" stroke="black" points="698,-36 644,-36 644,0 698,0 698,-36"/>
<text text-anchor="middle" x="671" y="-14.3" font-family="Times,serif" font-size="14.00">(...)</text>
</g>
<!-- 152&#45;&gt;153 -->
<g id="edge15" class="edge">
<title>152&#45;&gt;153</title>
<path fill="none" stroke="black" d="M706.55,-71.76C700.41,-62.65 694.07,-53.24 688.47,-44.92"/>
<polygon fill="black" stroke="black" points="691.22,-42.74 682.73,-36.41 685.41,-46.65 691.22,-42.74"/>
</g>
<!-- 154 -->
<g id="node17" class="node">
<title>154</title>
<polygon fill="#c0c0c0" stroke="black" points="770,-36 716,-36 716,0 770,0 770,-36"/>
<text text-anchor="middle" x="743" y="-14.3" font-family="Times,serif" font-size="14.00">(...)</text>
</g>
<!-- 152&#45;&gt;154 -->
<g id="edge16" class="edge">
<title>152&#45;&gt;154</title>
<path fill="none" stroke="black" d="M737.92,-71.76C738.74,-63.24 739.59,-54.44 740.35,-46.53"/>
<polygon fill="black" stroke="black" points="743.85,-46.69 741.32,-36.41 736.88,-46.02 743.85,-46.69"/>
</g>
<!-- 158 -->
<g id="node19" class="node">
<title>158</title>
<polygon fill="#c0c0c0" stroke="black" points="883,-36 829,-36 829,0 883,0 883,-36"/>
<text text-anchor="middle" x="856" y="-14.3" font-family="Times,serif" font-size="14.00">(...)</text>
</g>
<!-- 157&#45;&gt;158 -->
<g id="edge18" class="edge">
<title>157&#45;&gt;158</title>
<path fill="none" stroke="black" d="M879.14,-71.76C875.27,-62.94 871.28,-53.84 867.72,-45.72"/>
<polygon fill="black" stroke="black" points="870.85,-44.16 863.63,-36.41 864.44,-46.97 870.85,-44.16"/>
</g>
<!-- 161 -->
<g id="node20" class="node">
<title>161</title>
<polygon fill="#c0c0c0" stroke="black" points="955,-36 901,-36 901,0 955,0 955,-36"/>
<text text-anchor="middle" x="928" y="-14.3" font-family="Times,serif" font-size="14.00">(...)</text>
</g>
<!-- 157&#45;&gt;161 -->
<g id="edge19" class="edge">
<title>157&#45;&gt;161</title>
<path fill="none" stroke="black" d="M910.51,-71.76C913.4,-63.04 916.38,-54.04 919.05,-45.99"/>
<polygon fill="black" stroke="black" points="922.4,-47 922.23,-36.41 915.76,-44.8 922.4,-47"/>
</g>
<!-- 163 -->
<g id="node22" class="node">
<title>163</title>
<polygon fill="#b4daf5" stroke="black" points="1147,-155 989,-155 989,-72 1147,-72 1147,-155"/>
<text text-anchor="middle" x="1068" y="-139.8" font-family="Times,serif" font-size="14.00">sdComp &lt;= 2.0</text>
<text text-anchor="middle" x="1068" y="-124.8" font-family="Times,serif" font-size="14.00">gini = 0.473</text>
<text text-anchor="middle" x="1068" y="-109.8" font-family="Times,serif" font-size="14.00">samples = 2004</text>
<text text-anchor="middle" x="1068" y="-94.8" font-family="Times,serif" font-size="14.00">value = [768, 1236]</text>
<text text-anchor="middle" x="1068" y="-79.8" font-family="Times,serif" font-size="14.00">class = True</text>
</g>
<!-- 162&#45;&gt;163 -->
<g id="edge21" class="edge">
<title>162&#45;&gt;163</title>
<path fill="none" stroke="black" d="M1068,-190.91C1068,-182.65 1068,-173.86 1068,-165.3"/>
<polygon fill="black" stroke="black" points="1071.5,-165.02 1068,-155.02 1064.5,-165.02 1071.5,-165.02"/>
</g>
<!-- 174 -->
<g id="node25" class="node">
<title>174</title>
<polygon fill="#399de5" stroke="black" points="1296.5,-147.5 1165.5,-147.5 1165.5,-79.5 1296.5,-79.5 1296.5,-147.5"/>
<text text-anchor="middle" x="1231" y="-132.3" font-family="Times,serif" font-size="14.00">gini = 0.0</text>
<text text-anchor="middle" x="1231" y="-117.3" font-family="Times,serif" font-size="14.00">samples = 252</text>
<text text-anchor="middle" x="1231" y="-102.3" font-family="Times,serif" font-size="14.00">value = [0, 252]</text>
<text text-anchor="middle" x="1231" y="-87.3" font-family="Times,serif" font-size="14.00">class = True</text>
</g>
<!-- 162&#45;&gt;174 -->
<g id="edge24" class="edge">
<title>162&#45;&gt;174</title>
<path fill="none" stroke="black" d="M1124.55,-190.91C1141.31,-178.88 1159.62,-165.73 1176.26,-153.79"/>
<polygon fill="black" stroke="black" points="1178.71,-156.34 1184.79,-147.67 1174.63,-150.65 1178.71,-156.34"/>
</g>
<!-- 164 -->
<g id="node23" class="node">
<title>164</title>
<polygon fill="#c0c0c0" stroke="black" points="1059,-36 1005,-36 1005,0 1059,0 1059,-36"/>
<text text-anchor="middle" x="1032" y="-14.3" font-family="Times,serif" font-size="14.00">(...)</text>
</g>
<!-- 163&#45;&gt;164 -->
<g id="edge22" class="edge">
<title>163&#45;&gt;164</title>
<path fill="none" stroke="black" d="M1052.31,-71.76C1048.96,-63.04 1045.49,-54.04 1042.39,-45.99"/>
<polygon fill="black" stroke="black" points="1045.56,-44.48 1038.7,-36.41 1039.03,-46.99 1045.56,-44.48"/>
</g>
<!-- 169 -->
<g id="node24" class="node">
<title>169</title>
<polygon fill="#c0c0c0" stroke="black" points="1131,-36 1077,-36 1077,0 1131,0 1131,-36"/>
<text text-anchor="middle" x="1104" y="-14.3" font-family="Times,serif" font-size="14.00">(...)</text>
</g>
<!-- 163&#45;&gt;169 -->
<g id="edge23" class="edge">
<title>163&#45;&gt;169</title>
<path fill="none" stroke="black" d="M1083.69,-71.76C1087.04,-63.04 1090.51,-54.04 1093.61,-45.99"/>
<polygon fill="black" stroke="black" points="1096.97,-46.99 1097.3,-36.41 1090.44,-44.48 1096.97,-46.99"/>
</g>
</g>
</svg>
