<?xml version="1.0" encoding="UTF-8" standalone="no"?>
<!DOCTYPE svg PUBLIC "-//W3C//DTD SVG 1.1//EN"
 "http://www.w3.org/Graphics/SVG/1.1/DTD/svg11.dtd">
<!-- Generated by graphviz version 2.43.0 (0)
 -->
<!-- Title: Tree Pages: 1 -->
<svg width="1184pt" height="520pt"
 viewBox="0.00 0.00 1184.00 520.00" xmlns="http://www.w3.org/2000/svg" xmlns:xlink="http://www.w3.org/1999/xlink">
<g id="graph0" class="graph" transform="scale(1 1) rotate(0) translate(4 516)">
<title>Tree</title>
<polygon fill="white" stroke="transparent" points="-4,4 -4,-516 1180,-516 1180,4 -4,4"/>
<!-- 0 -->
<g id="node1" class="node">
<title>0</title>
<polygon fill="#9355e9" stroke="black" points="471.5,-512 259.5,-512 259.5,-429 471.5,-429 471.5,-512"/>
<text text-anchor="middle" x="365.5" y="-496.8" font-family="Times,serif" font-size="14.00">sdComm &lt;= 0.65</text>
<text text-anchor="middle" x="365.5" y="-481.8" font-family="Times,serif" font-size="14.00">gini = 0.225</text>
<text text-anchor="middle" x="365.5" y="-466.8" font-family="Times,serif" font-size="14.00">samples = 25680</text>
<text text-anchor="middle" x="365.5" y="-451.8" font-family="Times,serif" font-size="14.00">value = [422, 2830, 22428]</text>
<text text-anchor="middle" x="365.5" y="-436.8" font-family="Times,serif" font-size="14.00">class = None</text>
</g>
<!-- 1 -->
<g id="node2" class="node">
<title>1</title>
<polygon fill="#aaf4c9" stroke="black" points="347.5,-393 171.5,-393 171.5,-310 347.5,-310 347.5,-393"/>
<text text-anchor="middle" x="259.5" y="-377.8" font-family="Times,serif" font-size="14.00">sdComm &lt;= 0.065</text>
<text text-anchor="middle" x="259.5" y="-362.8" font-family="Times,serif" font-size="14.00">gini = 0.555</text>
<text text-anchor="middle" x="259.5" y="-347.8" font-family="Times,serif" font-size="14.00">samples = 572</text>
<text text-anchor="middle" x="259.5" y="-332.8" font-family="Times,serif" font-size="14.00">value = [162, 338, 72]</text>
<text text-anchor="middle" x="259.5" y="-317.8" font-family="Times,serif" font-size="14.00">class = DCP</text>
</g>
<!-- 0&#45;&gt;1 -->
<g id="edge1" class="edge">
<title>0&#45;&gt;1</title>
<path fill="none" stroke="black" d="M328.72,-428.91C320.42,-419.74 311.53,-409.93 302.98,-400.49"/>
<polygon fill="black" stroke="black" points="305.52,-398.08 296.21,-393.02 300.33,-402.78 305.52,-398.08"/>
<text text-anchor="middle" x="294.98" y="-414.29" font-family="Times,serif" font-size="14.00">True</text>
</g>
<!-- 28 -->
<g id="node11" class="node">
<title>28</title>
<polygon fill="#9051e8" stroke="black" points="671.5,-393 459.5,-393 459.5,-310 671.5,-310 671.5,-393"/>
<text text-anchor="middle" x="565.5" y="-377.8" font-family="Times,serif" font-size="14.00">sdComp &lt;= 2.0</text>
<text text-anchor="middle" x="565.5" y="-362.8" font-family="Times,serif" font-size="14.00">gini = 0.197</text>
<text text-anchor="middle" x="565.5" y="-347.8" font-family="Times,serif" font-size="14.00">samples = 25108</text>
<text text-anchor="middle" x="565.5" y="-332.8" font-family="Times,serif" font-size="14.00">value = [260, 2492, 22356]</text>
<text text-anchor="middle" x="565.5" y="-317.8" font-family="Times,serif" font-size="14.00">class = None</text>
</g>
<!-- 0&#45;&gt;28 -->
<g id="edge10" class="edge">
<title>0&#45;&gt;28</title>
<path fill="none" stroke="black" d="M434.89,-428.91C451.8,-419.02 470,-408.37 487.29,-398.25"/>
<polygon fill="black" stroke="black" points="489.37,-401.09 496.23,-393.02 485.83,-395.05 489.37,-401.09"/>
<text text-anchor="middle" x="489.9" y="-413.51" font-family="Times,serif" font-size="14.00">False</text>
</g>
<!-- 2 -->
<g id="node3" class="node">
<title>2</title>
<polygon fill="#e58139" stroke="black" points="153.5,-266.5 13.5,-266.5 13.5,-198.5 153.5,-198.5 153.5,-266.5"/>
<text text-anchor="middle" x="83.5" y="-251.3" font-family="Times,serif" font-size="14.00">gini = 0.0</text>
<text text-anchor="middle" x="83.5" y="-236.3" font-family="Times,serif" font-size="14.00">samples = 48</text>
<text text-anchor="middle" x="83.5" y="-221.3" font-family="Times,serif" font-size="14.00">value = [48, 0, 0]</text>
<text text-anchor="middle" x="83.5" y="-206.3" font-family="Times,serif" font-size="14.00">class = DLS/DC</text>
</g>
<!-- 1&#45;&gt;2 -->
<g id="edge2" class="edge">
<title>1&#45;&gt;2</title>
<path fill="none" stroke="black" d="M198.44,-309.91C180.18,-297.77 160.21,-284.49 142.11,-272.46"/>
<polygon fill="black" stroke="black" points="143.66,-269.29 133.39,-266.67 139.78,-275.12 143.66,-269.29"/>
</g>
<!-- 3 -->
<g id="node4" class="node">
<title>3</title>
<polygon fill="#93f1ba" stroke="black" points="347.5,-274 171.5,-274 171.5,-191 347.5,-191 347.5,-274"/>
<text text-anchor="middle" x="259.5" y="-258.8" font-family="Times,serif" font-size="14.00">sdComp &lt;= 0.02</text>
<text text-anchor="middle" x="259.5" y="-243.8" font-family="Times,serif" font-size="14.00">gini = 0.518</text>
<text text-anchor="middle" x="259.5" y="-228.8" font-family="Times,serif" font-size="14.00">samples = 524</text>
<text text-anchor="middle" x="259.5" y="-213.8" font-family="Times,serif" font-size="14.00">value = [114, 338, 72]</text>
<text text-anchor="middle" x="259.5" y="-198.8" font-family="Times,serif" font-size="14.00">class = DCP</text>
</g>
<!-- 1&#45;&gt;3 -->
<g id="edge3" class="edge">
<title>1&#45;&gt;3</title>
<path fill="none" stroke="black" d="M259.5,-309.91C259.5,-301.65 259.5,-292.86 259.5,-284.3"/>
<polygon fill="black" stroke="black" points="263,-284.02 259.5,-274.02 256,-284.02 263,-284.02"/>
</g>
<!-- 4 -->
<g id="node5" class="node">
<title>4</title>
<polygon fill="#b4f5cf" stroke="black" points="153,-155 0,-155 0,-72 153,-72 153,-155"/>
<text text-anchor="middle" x="76.5" y="-139.8" font-family="Times,serif" font-size="14.00">graphSize &lt;= 22.5</text>
<text text-anchor="middle" x="76.5" y="-124.8" font-family="Times,serif" font-size="14.00">gini = 0.5</text>
<text text-anchor="middle" x="76.5" y="-109.8" font-family="Times,serif" font-size="14.00">samples = 132</text>
<text text-anchor="middle" x="76.5" y="-94.8" font-family="Times,serif" font-size="14.00">value = [4, 80, 48]</text>
<text text-anchor="middle" x="76.5" y="-79.8" font-family="Times,serif" font-size="14.00">class = DCP</text>
</g>
<!-- 3&#45;&gt;4 -->
<g id="edge4" class="edge">
<title>3&#45;&gt;4</title>
<path fill="none" stroke="black" d="M196.01,-190.91C180.68,-181.11 164.19,-170.56 148.5,-160.53"/>
<polygon fill="black" stroke="black" points="150.19,-157.46 139.88,-155.02 146.42,-163.36 150.19,-157.46"/>
</g>
<!-- 11 -->
<g id="node8" class="node">
<title>11</title>
<polygon fill="#97f1bd" stroke="black" points="347.5,-155 171.5,-155 171.5,-72 347.5,-72 347.5,-155"/>
<text text-anchor="middle" x="259.5" y="-139.8" font-family="Times,serif" font-size="14.00">nbproc &lt;= 4.5</text>
<text text-anchor="middle" x="259.5" y="-124.8" font-family="Times,serif" font-size="14.00">gini = 0.484</text>
<text text-anchor="middle" x="259.5" y="-109.8" font-family="Times,serif" font-size="14.00">samples = 392</text>
<text text-anchor="middle" x="259.5" y="-94.8" font-family="Times,serif" font-size="14.00">value = [110, 258, 24]</text>
<text text-anchor="middle" x="259.5" y="-79.8" font-family="Times,serif" font-size="14.00">class = DCP</text>
</g>
<!-- 3&#45;&gt;11 -->
<g id="edge7" class="edge">
<title>3&#45;&gt;11</title>
<path fill="none" stroke="black" d="M259.5,-190.91C259.5,-182.65 259.5,-173.86 259.5,-165.3"/>
<polygon fill="black" stroke="black" points="263,-165.02 259.5,-155.02 256,-165.02 263,-165.02"/>
</g>
<!-- 5 -->
<g id="node6" class="node">
<title>5</title>
<polygon fill="#c0c0c0" stroke="black" points="67.5,-36 13.5,-36 13.5,0 67.5,0 67.5,-36"/>
<text text-anchor="middle" x="40.5" y="-14.3" font-family="Times,serif" font-size="14.00">(...)</text>
</g>
<!-- 4&#45;&gt;5 -->
<g id="edge5" class="edge">
<title>4&#45;&gt;5</title>
<path fill="none" stroke="black" d="M60.81,-71.76C57.46,-63.04 53.99,-54.04 50.89,-45.99"/>
<polygon fill="black" stroke="black" points="54.06,-44.48 47.2,-36.41 47.53,-46.99 54.06,-44.48"/>
</g>
<!-- 8 -->
<g id="node7" class="node">
<title>8</title>
<polygon fill="#c0c0c0" stroke="black" points="139.5,-36 85.5,-36 85.5,0 139.5,0 139.5,-36"/>
<text text-anchor="middle" x="112.5" y="-14.3" font-family="Times,serif" font-size="14.00">(...)</text>
</g>
<!-- 4&#45;&gt;8 -->
<g id="edge6" class="edge">
<title>4&#45;&gt;8</title>
<path fill="none" stroke="black" d="M92.19,-71.76C95.54,-63.04 99.01,-54.04 102.11,-45.99"/>
<polygon fill="black" stroke="black" points="105.47,-46.99 105.8,-36.41 98.94,-44.48 105.47,-46.99"/>
</g>
<!-- 12 -->
<g id="node9" class="node">
<title>12</title>
<polygon fill="#c0c0c0" stroke="black" points="263.5,-36 209.5,-36 209.5,0 263.5,0 263.5,-36"/>
<text text-anchor="middle" x="236.5" y="-14.3" font-family="Times,serif" font-size="14.00">(...)</text>
</g>
<!-- 11&#45;&gt;12 -->
<g id="edge8" class="edge">
<title>11&#45;&gt;12</title>
<path fill="none" stroke="black" d="M249.48,-71.76C247.36,-63.14 245.17,-54.24 243.21,-46.26"/>
<polygon fill="black" stroke="black" points="246.57,-45.28 240.78,-36.41 239.77,-46.95 246.57,-45.28"/>
</g>
<!-- 23 -->
<g id="node10" class="node">
<title>23</title>
<polygon fill="#c0c0c0" stroke="black" points="335.5,-36 281.5,-36 281.5,0 335.5,0 335.5,-36"/>
<text text-anchor="middle" x="308.5" y="-14.3" font-family="Times,serif" font-size="14.00">(...)</text>
</g>
<!-- 11&#45;&gt;23 -->
<g id="edge9" class="edge">
<title>11&#45;&gt;23</title>
<path fill="none" stroke="black" d="M280.85,-71.76C285.52,-62.85 290.35,-53.64 294.63,-45.46"/>
<polygon fill="black" stroke="black" points="297.84,-46.89 299.38,-36.41 291.64,-43.64 297.84,-46.89"/>
</g>
<!-- 29 -->
<g id="node12" class="node">
<title>29</title>
<polygon fill="#985dea" stroke="black" points="662.5,-274 468.5,-274 468.5,-191 662.5,-191 662.5,-274"/>
<text text-anchor="middle" x="565.5" y="-258.8" font-family="Times,serif" font-size="14.00">graphDepth &lt;= 9.0</text>
<text text-anchor="middle" x="565.5" y="-243.8" font-family="Times,serif" font-size="14.00">gini = 0.263</text>
<text text-anchor="middle" x="565.5" y="-228.8" font-family="Times,serif" font-size="14.00">samples = 10284</text>
<text text-anchor="middle" x="565.5" y="-213.8" font-family="Times,serif" font-size="14.00">value = [68, 1516, 8700]</text>
<text text-anchor="middle" x="565.5" y="-198.8" font-family="Times,serif" font-size="14.00">class = None</text>
</g>
<!-- 28&#45;&gt;29 -->
<g id="edge11" class="edge">
<title>28&#45;&gt;29</title>
<path fill="none" stroke="black" d="M565.5,-309.91C565.5,-301.65 565.5,-292.86 565.5,-284.3"/>
<polygon fill="black" stroke="black" points="569,-284.02 565.5,-274.02 562,-284.02 569,-284.02"/>
</g>
<!-- 102 -->
<g id="node19" class="node">
<title>102</title>
<polygon fill="#8c4ae7" stroke="black" points="978,-274 775,-274 775,-191 978,-191 978,-274"/>
<text text-anchor="middle" x="876.5" y="-258.8" font-family="Times,serif" font-size="14.00">graphSize &lt;= 22.5</text>
<text text-anchor="middle" x="876.5" y="-243.8" font-family="Times,serif" font-size="14.00">gini = 0.147</text>
<text text-anchor="middle" x="876.5" y="-228.8" font-family="Times,serif" font-size="14.00">samples = 14824</text>
<text text-anchor="middle" x="876.5" y="-213.8" font-family="Times,serif" font-size="14.00">value = [192, 976, 13656]</text>
<text text-anchor="middle" x="876.5" y="-198.8" font-family="Times,serif" font-size="14.00">class = None</text>
</g>
<!-- 28&#45;&gt;102 -->
<g id="edge18" class="edge">
<title>28&#45;&gt;102</title>
<path fill="none" stroke="black" d="M671.66,-310.56C701.88,-299.19 734.87,-286.78 765.38,-275.31"/>
<polygon fill="black" stroke="black" points="766.63,-278.57 774.76,-271.78 764.17,-272.02 766.63,-278.57"/>
</g>
<!-- 30 -->
<g id="node13" class="node">
<title>30</title>
<polygon fill="#8844e6" stroke="black" points="550,-155 365,-155 365,-72 550,-72 550,-155"/>
<text text-anchor="middle" x="457.5" y="-139.8" font-family="Times,serif" font-size="14.00">sdComp &lt;= 0.2</text>
<text text-anchor="middle" x="457.5" y="-124.8" font-family="Times,serif" font-size="14.00">gini = 0.103</text>
<text text-anchor="middle" x="457.5" y="-109.8" font-family="Times,serif" font-size="14.00">samples = 3644</text>
<text text-anchor="middle" x="457.5" y="-94.8" font-family="Times,serif" font-size="14.00">value = [44, 152, 3448]</text>
<text text-anchor="middle" x="457.5" y="-79.8" font-family="Times,serif" font-size="14.00">class = None</text>
</g>
<!-- 29&#45;&gt;30 -->
<g id="edge12" class="edge">
<title>29&#45;&gt;30</title>
<path fill="none" stroke="black" d="M528.03,-190.91C519.57,-181.74 510.51,-171.93 501.8,-162.49"/>
<polygon fill="black" stroke="black" points="504.26,-159.99 494.9,-155.02 499.11,-164.74 504.26,-159.99"/>
</g>
<!-- 65 -->
<g id="node16" class="node">
<title>65</title>
<polygon fill="#a26dec" stroke="black" points="761.5,-155 567.5,-155 567.5,-72 761.5,-72 761.5,-155"/>
<text text-anchor="middle" x="664.5" y="-139.8" font-family="Times,serif" font-size="14.00">sdComm &lt;= 2.0</text>
<text text-anchor="middle" x="664.5" y="-124.8" font-family="Times,serif" font-size="14.00">gini = 0.332</text>
<text text-anchor="middle" x="664.5" y="-109.8" font-family="Times,serif" font-size="14.00">samples = 6640</text>
<text text-anchor="middle" x="664.5" y="-94.8" font-family="Times,serif" font-size="14.00">value = [24, 1364, 5252]</text>
<text text-anchor="middle" x="664.5" y="-79.8" font-family="Times,serif" font-size="14.00">class = None</text>
</g>
<!-- 29&#45;&gt;65 -->
<g id="edge15" class="edge">
<title>29&#45;&gt;65</title>
<path fill="none" stroke="black" d="M599.85,-190.91C607.53,-181.83 615.74,-172.12 623.66,-162.77"/>
<polygon fill="black" stroke="black" points="626.43,-164.92 630.21,-155.02 621.08,-160.39 626.43,-164.92"/>
</g>
<!-- 31 -->
<g id="node14" class="node">
<title>31</title>
<polygon fill="#c0c0c0" stroke="black" points="434.5,-36 380.5,-36 380.5,0 434.5,0 434.5,-36"/>
<text text-anchor="middle" x="407.5" y="-14.3" font-family="Times,serif" font-size="14.00">(...)</text>
</g>
<!-- 30&#45;&gt;31 -->
<g id="edge13" class="edge">
<title>30&#45;&gt;31</title>
<path fill="none" stroke="black" d="M435.71,-71.76C430.95,-62.85 426.02,-53.64 421.65,-45.46"/>
<polygon fill="black" stroke="black" points="424.61,-43.57 416.81,-36.41 418.44,-46.87 424.61,-43.57"/>
</g>
<!-- 36 -->
<g id="node15" class="node">
<title>36</title>
<polygon fill="#c0c0c0" stroke="black" points="506.5,-36 452.5,-36 452.5,0 506.5,0 506.5,-36"/>
<text text-anchor="middle" x="479.5" y="-14.3" font-family="Times,serif" font-size="14.00">(...)</text>
</g>
<!-- 30&#45;&gt;36 -->
<g id="edge14" class="edge">
<title>30&#45;&gt;36</title>
<path fill="none" stroke="black" d="M467.09,-71.76C469.11,-63.14 471.21,-54.24 473.09,-46.26"/>
<polygon fill="black" stroke="black" points="476.52,-46.94 475.4,-36.41 469.71,-45.34 476.52,-46.94"/>
</g>
<!-- 66 -->
<g id="node17" class="node">
<title>66</title>
<polygon fill="#c0c0c0" stroke="black" points="653.5,-36 599.5,-36 599.5,0 653.5,0 653.5,-36"/>
<text text-anchor="middle" x="626.5" y="-14.3" font-family="Times,serif" font-size="14.00">(...)</text>
</g>
<!-- 65&#45;&gt;66 -->
<g id="edge16" class="edge">
<title>65&#45;&gt;66</title>
<path fill="none" stroke="black" d="M647.94,-71.76C644.36,-62.94 640.66,-53.84 637.36,-45.72"/>
<polygon fill="black" stroke="black" points="640.58,-44.35 633.57,-36.41 634.1,-46.99 640.58,-44.35"/>
</g>
<!-- 79 -->
<g id="node18" class="node">
<title>79</title>
<polygon fill="#c0c0c0" stroke="black" points="725.5,-36 671.5,-36 671.5,0 725.5,0 725.5,-36"/>
<text text-anchor="middle" x="698.5" y="-14.3" font-family="Times,serif" font-size="14.00">(...)</text>
</g>
<!-- 65&#45;&gt;79 -->
<g id="edge17" class="edge">
<title>65&#45;&gt;79</title>
<path fill="none" stroke="black" d="M679.31,-71.76C682.48,-63.04 685.76,-54.04 688.68,-45.99"/>
<polygon fill="black" stroke="black" points="692.04,-47 692.17,-36.41 685.46,-44.61 692.04,-47"/>
</g>
<!-- 103 -->
<g id="node20" class="node">
<title>103</title>
<polygon fill="#9558e9" stroke="black" points="973.5,-155 779.5,-155 779.5,-72 973.5,-72 973.5,-155"/>
<text text-anchor="middle" x="876.5" y="-139.8" font-family="Times,serif" font-size="14.00">graphDepth &lt;= 3.5</text>
<text text-anchor="middle" x="876.5" y="-124.8" font-family="Times,serif" font-size="14.00">gini = 0.251</text>
<text text-anchor="middle" x="876.5" y="-109.8" font-family="Times,serif" font-size="14.00">samples = 3996</text>
<text text-anchor="middle" x="876.5" y="-94.8" font-family="Times,serif" font-size="14.00">value = [192, 372, 3432]</text>
<text text-anchor="middle" x="876.5" y="-79.8" font-family="Times,serif" font-size="14.00">class = None</text>
</g>
<!-- 102&#45;&gt;103 -->
<g id="edge19" class="edge">
<title>102&#45;&gt;103</title>
<path fill="none" stroke="black" d="M876.5,-190.91C876.5,-182.65 876.5,-173.86 876.5,-165.3"/>
<polygon fill="black" stroke="black" points="880,-165.02 876.5,-155.02 873,-165.02 880,-165.02"/>
</g>
<!-- 132 -->
<g id="node23" class="node">
<title>132</title>
<polygon fill="#8845e7" stroke="black" points="1176,-155 991,-155 991,-72 1176,-72 1176,-155"/>
<text text-anchor="middle" x="1083.5" y="-139.8" font-family="Times,serif" font-size="14.00">graphSize &lt;= 40.0</text>
<text text-anchor="middle" x="1083.5" y="-124.8" font-family="Times,serif" font-size="14.00">gini = 0.105</text>
<text text-anchor="middle" x="1083.5" y="-109.8" font-family="Times,serif" font-size="14.00">samples = 10828</text>
<text text-anchor="middle" x="1083.5" y="-94.8" font-family="Times,serif" font-size="14.00">value = [0, 604, 10224]</text>
<text text-anchor="middle" x="1083.5" y="-79.8" font-family="Times,serif" font-size="14.00">class = None</text>
</g>
<!-- 102&#45;&gt;132 -->
<g id="edge22" class="edge">
<title>102&#45;&gt;132</title>
<path fill="none" stroke="black" d="M948.32,-190.91C965.98,-180.92 985,-170.17 1003.04,-159.98"/>
<polygon fill="black" stroke="black" points="1004.83,-162.99 1011.81,-155.02 1001.38,-156.89 1004.83,-162.99"/>
</g>
<!-- 104 -->
<g id="node21" class="node">
<title>104</title>
<polygon fill="#c0c0c0" stroke="black" points="867.5,-36 813.5,-36 813.5,0 867.5,0 867.5,-36"/>
<text text-anchor="middle" x="840.5" y="-14.3" font-family="Times,serif" font-size="14.00">(...)</text>
</g>
<!-- 103&#45;&gt;104 -->
<g id="edge20" class="edge">
<title>103&#45;&gt;104</title>
<path fill="none" stroke="black" d="M860.81,-71.76C857.46,-63.04 853.99,-54.04 850.89,-45.99"/>
<polygon fill="black" stroke="black" points="854.06,-44.48 847.2,-36.41 847.53,-46.99 854.06,-44.48"/>
</g>
<!-- 111 -->
<g id="node22" class="node">
<title>111</title>
<polygon fill="#c0c0c0" stroke="black" points="939.5,-36 885.5,-36 885.5,0 939.5,0 939.5,-36"/>
<text text-anchor="middle" x="912.5" y="-14.3" font-family="Times,serif" font-size="14.00">(...)</text>
</g>
<!-- 103&#45;&gt;111 -->
<g id="edge21" class="edge">
<title>103&#45;&gt;111</title>
<path fill="none" stroke="black" d="M892.19,-71.76C895.54,-63.04 899.01,-54.04 902.11,-45.99"/>
<polygon fill="black" stroke="black" points="905.47,-46.99 905.8,-36.41 898.94,-44.48 905.47,-46.99"/>
</g>
<!-- 133 -->
<g id="node24" class="node">
<title>133</title>
<polygon fill="#c0c0c0" stroke="black" points="1074.5,-36 1020.5,-36 1020.5,0 1074.5,0 1074.5,-36"/>
<text text-anchor="middle" x="1047.5" y="-14.3" font-family="Times,serif" font-size="14.00">(...)</text>
</g>
<!-- 132&#45;&gt;133 -->
<g id="edge23" class="edge">
<title>132&#45;&gt;133</title>
<path fill="none" stroke="black" d="M1067.81,-71.76C1064.46,-63.04 1060.99,-54.04 1057.89,-45.99"/>
<polygon fill="black" stroke="black" points="1061.06,-44.48 1054.2,-36.41 1054.53,-46.99 1061.06,-44.48"/>
</g>
<!-- 170 -->
<g id="node25" class="node">
<title>170</title>
<polygon fill="#c0c0c0" stroke="black" points="1146.5,-36 1092.5,-36 1092.5,0 1146.5,0 1146.5,-36"/>
<text text-anchor="middle" x="1119.5" y="-14.3" font-family="Times,serif" font-size="14.00">(...)</text>
</g>
<!-- 132&#45;&gt;170 -->
<g id="edge24" class="edge">
<title>132&#45;&gt;170</title>
<path fill="none" stroke="black" d="M1099.19,-71.76C1102.54,-63.04 1106.01,-54.04 1109.11,-45.99"/>
<polygon fill="black" stroke="black" points="1112.47,-46.99 1112.8,-36.41 1105.94,-44.48 1112.47,-46.99"/>
</g>
</g>
</svg>
