<?xml version="1.0" encoding="UTF-8" standalone="no"?>
<!DOCTYPE svg PUBLIC "-//W3C//DTD SVG 1.1//EN"
 "http://www.w3.org/Graphics/SVG/1.1/DTD/svg11.dtd">
<!-- Generated by graphviz version 2.43.0 (0)
 -->
<!-- Title: Tree Pages: 1 -->
<svg width="823pt" height="520pt"
 viewBox="0.00 0.00 823.00 520.00" xmlns="http://www.w3.org/2000/svg" xmlns:xlink="http://www.w3.org/1999/xlink">
<g id="graph0" class="graph" transform="scale(1 1) rotate(0) translate(4 516)">
<title>Tree</title>
<polygon fill="white" stroke="transparent" points="-4,4 -4,-516 819,-516 819,4 -4,4"/>
<!-- 0 -->
<g id="node1" class="node">
<title>0</title>
<polygon fill="#ffffff" stroke="black" points="367,-512 182,-512 182,-429 367,-429 367,-512"/>
<text text-anchor="middle" x="274.5" y="-496.8" font-family="Times,serif" font-size="14.00">sdComm &lt;= 0.02</text>
<text text-anchor="middle" x="274.5" y="-481.8" font-family="Times,serif" font-size="14.00">gini = 0.5</text>
<text text-anchor="middle" x="274.5" y="-466.8" font-family="Times,serif" font-size="14.00">samples = 25680</text>
<text text-anchor="middle" x="274.5" y="-451.8" font-family="Times,serif" font-size="14.00">value = [12840, 12840]</text>
<text text-anchor="middle" x="274.5" y="-436.8" font-family="Times,serif" font-size="14.00">class = False</text>
</g>
<!-- 1 -->
<g id="node2" class="node">
<title>1</title>
<polygon fill="#ffffff" stroke="black" points="258,-393 105,-393 105,-310 258,-310 258,-393"/>
<text text-anchor="middle" x="181.5" y="-377.8" font-family="Times,serif" font-size="14.00">graphSize &lt;= 22.5</text>
<text text-anchor="middle" x="181.5" y="-362.8" font-family="Times,serif" font-size="14.00">gini = 0.5</text>
<text text-anchor="middle" x="181.5" y="-347.8" font-family="Times,serif" font-size="14.00">samples = 24</text>
<text text-anchor="middle" x="181.5" y="-332.8" font-family="Times,serif" font-size="14.00">value = [12, 12]</text>
<text text-anchor="middle" x="181.5" y="-317.8" font-family="Times,serif" font-size="14.00">class = False</text>
</g>
<!-- 0&#45;&gt;1 -->
<g id="edge1" class="edge">
<title>0&#45;&gt;1</title>
<path fill="none" stroke="black" d="M242.23,-428.91C235.09,-419.92 227.46,-410.32 220.09,-401.05"/>
<polygon fill="black" stroke="black" points="222.67,-398.67 213.71,-393.02 217.19,-403.03 222.67,-398.67"/>
<text text-anchor="middle" x="210.87" y="-414.16" font-family="Times,serif" font-size="14.00">True</text>
</g>
<!-- 4 -->
<g id="node5" class="node">
<title>4</title>
<polygon fill="#ffffff" stroke="black" points="461,-393 276,-393 276,-310 461,-310 461,-393"/>
<text text-anchor="middle" x="368.5" y="-377.8" font-family="Times,serif" font-size="14.00">graphSize &lt;= 22.5</text>
<text text-anchor="middle" x="368.5" y="-362.8" font-family="Times,serif" font-size="14.00">gini = 0.5</text>
<text text-anchor="middle" x="368.5" y="-347.8" font-family="Times,serif" font-size="14.00">samples = 25656</text>
<text text-anchor="middle" x="368.5" y="-332.8" font-family="Times,serif" font-size="14.00">value = [12828, 12828]</text>
<text text-anchor="middle" x="368.5" y="-317.8" font-family="Times,serif" font-size="14.00">class = False</text>
</g>
<!-- 0&#45;&gt;4 -->
<g id="edge4" class="edge">
<title>0&#45;&gt;4</title>
<path fill="none" stroke="black" d="M307.11,-428.91C314.33,-419.92 322.05,-410.32 329.49,-401.05"/>
<polygon fill="black" stroke="black" points="332.41,-403.01 335.94,-393.02 326.95,-398.62 332.41,-403.01"/>
<text text-anchor="middle" x="338.65" y="-414.17" font-family="Times,serif" font-size="14.00">False</text>
</g>
<!-- 2 -->
<g id="node3" class="node">
<title>2</title>
<polygon fill="#ffffff" stroke="black" points="113,-266.5 0,-266.5 0,-198.5 113,-198.5 113,-266.5"/>
<text text-anchor="middle" x="56.5" y="-251.3" font-family="Times,serif" font-size="14.00">gini = 0.5</text>
<text text-anchor="middle" x="56.5" y="-236.3" font-family="Times,serif" font-size="14.00">samples = 8</text>
<text text-anchor="middle" x="56.5" y="-221.3" font-family="Times,serif" font-size="14.00">value = [4, 4]</text>
<text text-anchor="middle" x="56.5" y="-206.3" font-family="Times,serif" font-size="14.00">class = False</text>
</g>
<!-- 1&#45;&gt;2 -->
<g id="edge2" class="edge">
<title>1&#45;&gt;2</title>
<path fill="none" stroke="black" d="M138.13,-309.91C125.64,-298.21 112.01,-285.46 99.53,-273.78"/>
<polygon fill="black" stroke="black" points="101.63,-270.95 91.93,-266.67 96.84,-276.06 101.63,-270.95"/>
</g>
<!-- 3 -->
<g id="node4" class="node">
<title>3</title>
<polygon fill="#ffffff" stroke="black" points="245.5,-266.5 131.5,-266.5 131.5,-198.5 245.5,-198.5 245.5,-266.5"/>
<text text-anchor="middle" x="188.5" y="-251.3" font-family="Times,serif" font-size="14.00">gini = 0.5</text>
<text text-anchor="middle" x="188.5" y="-236.3" font-family="Times,serif" font-size="14.00">samples = 16</text>
<text text-anchor="middle" x="188.5" y="-221.3" font-family="Times,serif" font-size="14.00">value = [8, 8]</text>
<text text-anchor="middle" x="188.5" y="-206.3" font-family="Times,serif" font-size="14.00">class = False</text>
</g>
<!-- 1&#45;&gt;3 -->
<g id="edge3" class="edge">
<title>1&#45;&gt;3</title>
<path fill="none" stroke="black" d="M183.93,-309.91C184.57,-299.2 185.26,-287.62 185.91,-276.78"/>
<polygon fill="black" stroke="black" points="189.41,-276.86 186.52,-266.67 182.42,-276.44 189.41,-276.86"/>
</g>
<!-- 5 -->
<g id="node6" class="node">
<title>5</title>
<polygon fill="#ffffff" stroke="black" points="445,-274 278,-274 278,-191 445,-191 445,-274"/>
<text text-anchor="middle" x="361.5" y="-258.8" font-family="Times,serif" font-size="14.00">sdComp &lt;= 0.02</text>
<text text-anchor="middle" x="361.5" y="-243.8" font-family="Times,serif" font-size="14.00">gini = 0.5</text>
<text text-anchor="middle" x="361.5" y="-228.8" font-family="Times,serif" font-size="14.00">samples = 6412</text>
<text text-anchor="middle" x="361.5" y="-213.8" font-family="Times,serif" font-size="14.00">value = [3206, 3206]</text>
<text text-anchor="middle" x="361.5" y="-198.8" font-family="Times,serif" font-size="14.00">class = False</text>
</g>
<!-- 4&#45;&gt;5 -->
<g id="edge5" class="edge">
<title>4&#45;&gt;5</title>
<path fill="none" stroke="black" d="M366.07,-309.91C365.57,-301.56 365.04,-292.67 364.52,-284.02"/>
<polygon fill="black" stroke="black" points="368.02,-283.79 363.92,-274.02 361.03,-284.21 368.02,-283.79"/>
</g>
<!-- 106 -->
<g id="node13" class="node">
<title>106</title>
<polygon fill="#ffffff" stroke="black" points="630,-274 463,-274 463,-191 630,-191 630,-274"/>
<text text-anchor="middle" x="546.5" y="-258.8" font-family="Times,serif" font-size="14.00">nbproc &lt;= 4.5</text>
<text text-anchor="middle" x="546.5" y="-243.8" font-family="Times,serif" font-size="14.00">gini = 0.5</text>
<text text-anchor="middle" x="546.5" y="-228.8" font-family="Times,serif" font-size="14.00">samples = 19244</text>
<text text-anchor="middle" x="546.5" y="-213.8" font-family="Times,serif" font-size="14.00">value = [9622, 9622]</text>
<text text-anchor="middle" x="546.5" y="-198.8" font-family="Times,serif" font-size="14.00">class = False</text>
</g>
<!-- 4&#45;&gt;106 -->
<g id="edge12" class="edge">
<title>4&#45;&gt;106</title>
<path fill="none" stroke="black" d="M430.26,-309.91C445.17,-300.11 461.21,-289.56 476.47,-279.53"/>
<polygon fill="black" stroke="black" points="478.42,-282.44 484.85,-274.02 474.57,-276.59 478.42,-282.44"/>
</g>
<!-- 6 -->
<g id="node7" class="node">
<title>6</title>
<polygon fill="#ffffff" stroke="black" points="260.5,-155 102.5,-155 102.5,-72 260.5,-72 260.5,-155"/>
<text text-anchor="middle" x="181.5" y="-139.8" font-family="Times,serif" font-size="14.00">graphDepth &lt;= 3.5</text>
<text text-anchor="middle" x="181.5" y="-124.8" font-family="Times,serif" font-size="14.00">gini = 0.5</text>
<text text-anchor="middle" x="181.5" y="-109.8" font-family="Times,serif" font-size="14.00">samples = 72</text>
<text text-anchor="middle" x="181.5" y="-94.8" font-family="Times,serif" font-size="14.00">value = [36, 36]</text>
<text text-anchor="middle" x="181.5" y="-79.8" font-family="Times,serif" font-size="14.00">class = False</text>
</g>
<!-- 5&#45;&gt;6 -->
<g id="edge6" class="edge">
<title>5&#45;&gt;6</title>
<path fill="none" stroke="black" d="M299.05,-190.91C283.97,-181.11 267.75,-170.56 252.32,-160.53"/>
<polygon fill="black" stroke="black" points="254.13,-157.54 243.84,-155.02 250.32,-163.41 254.13,-157.54"/>
</g>
<!-- 9 -->
<g id="node10" class="node">
<title>9</title>
<polygon fill="#ffffff" stroke="black" points="445,-155 278,-155 278,-72 445,-72 445,-155"/>
<text text-anchor="middle" x="361.5" y="-139.8" font-family="Times,serif" font-size="14.00">CCR &lt;= 0.55</text>
<text text-anchor="middle" x="361.5" y="-124.8" font-family="Times,serif" font-size="14.00">gini = 0.5</text>
<text text-anchor="middle" x="361.5" y="-109.8" font-family="Times,serif" font-size="14.00">samples = 6340</text>
<text text-anchor="middle" x="361.5" y="-94.8" font-family="Times,serif" font-size="14.00">value = [3170, 3170]</text>
<text text-anchor="middle" x="361.5" y="-79.8" font-family="Times,serif" font-size="14.00">class = False</text>
</g>
<!-- 5&#45;&gt;9 -->
<g id="edge9" class="edge">
<title>5&#45;&gt;9</title>
<path fill="none" stroke="black" d="M361.5,-190.91C361.5,-182.65 361.5,-173.86 361.5,-165.3"/>
<polygon fill="black" stroke="black" points="365,-165.02 361.5,-155.02 358,-165.02 365,-165.02"/>
</g>
<!-- 7 -->
<g id="node8" class="node">
<title>7</title>
<polygon fill="#c0c0c0" stroke="black" points="172.5,-36 118.5,-36 118.5,0 172.5,0 172.5,-36"/>
<text text-anchor="middle" x="145.5" y="-14.3" font-family="Times,serif" font-size="14.00">(...)</text>
</g>
<!-- 6&#45;&gt;7 -->
<g id="edge7" class="edge">
<title>6&#45;&gt;7</title>
<path fill="none" stroke="black" d="M165.81,-71.76C162.46,-63.04 158.99,-54.04 155.89,-45.99"/>
<polygon fill="black" stroke="black" points="159.06,-44.48 152.2,-36.41 152.53,-46.99 159.06,-44.48"/>
</g>
<!-- 8 -->
<g id="node9" class="node">
<title>8</title>
<polygon fill="#c0c0c0" stroke="black" points="244.5,-36 190.5,-36 190.5,0 244.5,0 244.5,-36"/>
<text text-anchor="middle" x="217.5" y="-14.3" font-family="Times,serif" font-size="14.00">(...)</text>
</g>
<!-- 6&#45;&gt;8 -->
<g id="edge8" class="edge">
<title>6&#45;&gt;8</title>
<path fill="none" stroke="black" d="M197.19,-71.76C200.54,-63.04 204.01,-54.04 207.11,-45.99"/>
<polygon fill="black" stroke="black" points="210.47,-46.99 210.8,-36.41 203.94,-44.48 210.47,-46.99"/>
</g>
<!-- 10 -->
<g id="node11" class="node">
<title>10</title>
<polygon fill="#c0c0c0" stroke="black" points="362.5,-36 308.5,-36 308.5,0 362.5,0 362.5,-36"/>
<text text-anchor="middle" x="335.5" y="-14.3" font-family="Times,serif" font-size="14.00">(...)</text>
</g>
<!-- 9&#45;&gt;10 -->
<g id="edge10" class="edge">
<title>9&#45;&gt;10</title>
<path fill="none" stroke="black" d="M350.17,-71.76C347.77,-63.14 345.3,-54.24 343.08,-46.26"/>
<polygon fill="black" stroke="black" points="346.39,-45.1 340.34,-36.41 339.65,-46.98 346.39,-45.1"/>
</g>
<!-- 13 -->
<g id="node12" class="node">
<title>13</title>
<polygon fill="#c0c0c0" stroke="black" points="434.5,-36 380.5,-36 380.5,0 434.5,0 434.5,-36"/>
<text text-anchor="middle" x="407.5" y="-14.3" font-family="Times,serif" font-size="14.00">(...)</text>
</g>
<!-- 9&#45;&gt;13 -->
<g id="edge11" class="edge">
<title>9&#45;&gt;13</title>
<path fill="none" stroke="black" d="M381.54,-71.76C385.93,-62.85 390.46,-53.64 394.48,-45.46"/>
<polygon fill="black" stroke="black" points="397.66,-46.92 398.94,-36.41 391.38,-43.83 397.66,-46.92"/>
</g>
<!-- 107 -->
<g id="node14" class="node">
<title>107</title>
<polygon fill="#ffffff" stroke="black" points="630,-155 463,-155 463,-72 630,-72 630,-155"/>
<text text-anchor="middle" x="546.5" y="-139.8" font-family="Times,serif" font-size="14.00">graphSize &lt;= 40.0</text>
<text text-anchor="middle" x="546.5" y="-124.8" font-family="Times,serif" font-size="14.00">gini = 0.5</text>
<text text-anchor="middle" x="546.5" y="-109.8" font-family="Times,serif" font-size="14.00">samples = 8780</text>
<text text-anchor="middle" x="546.5" y="-94.8" font-family="Times,serif" font-size="14.00">value = [4390, 4390]</text>
<text text-anchor="middle" x="546.5" y="-79.8" font-family="Times,serif" font-size="14.00">class = False</text>
</g>
<!-- 106&#45;&gt;107 -->
<g id="edge13" class="edge">
<title>106&#45;&gt;107</title>
<path fill="none" stroke="black" d="M546.5,-190.91C546.5,-182.65 546.5,-173.86 546.5,-165.3"/>
<polygon fill="black" stroke="black" points="550,-165.02 546.5,-155.02 543,-165.02 550,-165.02"/>
</g>
<!-- 222 -->
<g id="node17" class="node">
<title>222</title>
<polygon fill="#ffffff" stroke="black" points="815,-155 648,-155 648,-72 815,-72 815,-155"/>
<text text-anchor="middle" x="731.5" y="-139.8" font-family="Times,serif" font-size="14.00">CCR &lt;= 5.5</text>
<text text-anchor="middle" x="731.5" y="-124.8" font-family="Times,serif" font-size="14.00">gini = 0.5</text>
<text text-anchor="middle" x="731.5" y="-109.8" font-family="Times,serif" font-size="14.00">samples = 10464</text>
<text text-anchor="middle" x="731.5" y="-94.8" font-family="Times,serif" font-size="14.00">value = [5232, 5232]</text>
<text text-anchor="middle" x="731.5" y="-79.8" font-family="Times,serif" font-size="14.00">class = False</text>
</g>
<!-- 106&#45;&gt;222 -->
<g id="edge16" class="edge">
<title>106&#45;&gt;222</title>
<path fill="none" stroke="black" d="M610.68,-190.91C626.18,-181.11 642.85,-170.56 658.71,-160.53"/>
<polygon fill="black" stroke="black" points="660.85,-163.32 667.43,-155.02 657.11,-157.41 660.85,-163.32"/>
</g>
<!-- 108 -->
<g id="node15" class="node">
<title>108</title>
<polygon fill="#c0c0c0" stroke="black" points="526.5,-36 472.5,-36 472.5,0 526.5,0 526.5,-36"/>
<text text-anchor="middle" x="499.5" y="-14.3" font-family="Times,serif" font-size="14.00">(...)</text>
</g>
<!-- 107&#45;&gt;108 -->
<g id="edge14" class="edge">
<title>107&#45;&gt;108</title>
<path fill="none" stroke="black" d="M526.02,-71.76C521.54,-62.85 516.91,-53.64 512.8,-45.46"/>
<polygon fill="black" stroke="black" points="515.87,-43.77 508.25,-36.41 509.61,-46.91 515.87,-43.77"/>
</g>
<!-- 151 -->
<g id="node16" class="node">
<title>151</title>
<polygon fill="#c0c0c0" stroke="black" points="598.5,-36 544.5,-36 544.5,0 598.5,0 598.5,-36"/>
<text text-anchor="middle" x="571.5" y="-14.3" font-family="Times,serif" font-size="14.00">(...)</text>
</g>
<!-- 107&#45;&gt;151 -->
<g id="edge15" class="edge">
<title>107&#45;&gt;151</title>
<path fill="none" stroke="black" d="M557.39,-71.76C559.7,-63.14 562.08,-54.24 564.21,-46.26"/>
<polygon fill="black" stroke="black" points="567.64,-46.97 566.85,-36.41 560.88,-45.16 567.64,-46.97"/>
</g>
<!-- 223 -->
<g id="node18" class="node">
<title>223</title>
<polygon fill="#c0c0c0" stroke="black" points="722.5,-36 668.5,-36 668.5,0 722.5,0 722.5,-36"/>
<text text-anchor="middle" x="695.5" y="-14.3" font-family="Times,serif" font-size="14.00">(...)</text>
</g>
<!-- 222&#45;&gt;223 -->
<g id="edge17" class="edge">
<title>222&#45;&gt;223</title>
<path fill="none" stroke="black" d="M715.81,-71.76C712.46,-63.04 708.99,-54.04 705.89,-45.99"/>
<polygon fill="black" stroke="black" points="709.06,-44.48 702.2,-36.41 702.53,-46.99 709.06,-44.48"/>
</g>
<!-- 224 -->
<g id="node19" class="node">
<title>224</title>
<polygon fill="#c0c0c0" stroke="black" points="794.5,-36 740.5,-36 740.5,0 794.5,0 794.5,-36"/>
<text text-anchor="middle" x="767.5" y="-14.3" font-family="Times,serif" font-size="14.00">(...)</text>
</g>
<!-- 222&#45;&gt;224 -->
<g id="edge18" class="edge">
<title>222&#45;&gt;224</title>
<path fill="none" stroke="black" d="M747.19,-71.76C750.54,-63.04 754.01,-54.04 757.11,-45.99"/>
<polygon fill="black" stroke="black" points="760.47,-46.99 760.8,-36.41 753.94,-44.48 760.47,-46.99"/>
</g>
</g>
</svg>
