<?xml version="1.0" encoding="UTF-8" standalone="no"?>
<!DOCTYPE svg PUBLIC "-//W3C//DTD SVG 1.1//EN"
 "http://www.w3.org/Graphics/SVG/1.1/DTD/svg11.dtd">
<!-- Generated by graphviz version 2.43.0 (0)
 -->
<!-- Title: Tree Pages: 1 -->
<svg width="1342pt" height="520pt"
 viewBox="0.00 0.00 1341.50 520.00" xmlns="http://www.w3.org/2000/svg" xmlns:xlink="http://www.w3.org/1999/xlink">
<g id="graph0" class="graph" transform="scale(1 1) rotate(0) translate(4 516)">
<title>Tree</title>
<polygon fill="white" stroke="transparent" points="-4,4 -4,-516 1337.5,-516 1337.5,4 -4,4"/>
<!-- 0 -->
<g id="node1" class="node">
<title>0</title>
<polygon fill="#ffffff" stroke="black" points="731.5,-512 546.5,-512 546.5,-429 731.5,-429 731.5,-512"/>
<text text-anchor="middle" x="639" y="-496.8" font-family="Times,serif" font-size="14.00">graphDepth &lt;= 3.5</text>
<text text-anchor="middle" x="639" y="-481.8" font-family="Times,serif" font-size="14.00">gini = 0.5</text>
<text text-anchor="middle" x="639" y="-466.8" font-family="Times,serif" font-size="14.00">samples = 25680</text>
<text text-anchor="middle" x="639" y="-451.8" font-family="Times,serif" font-size="14.00">value = [12830, 12850]</text>
<text text-anchor="middle" x="639" y="-436.8" font-family="Times,serif" font-size="14.00">class = True</text>
</g>
<!-- 1 -->
<g id="node2" class="node">
<title>1</title>
<polygon fill="#fcfdff" stroke="black" points="553.5,-393 404.5,-393 404.5,-310 553.5,-310 553.5,-393"/>
<text text-anchor="middle" x="479" y="-377.8" font-family="Times,serif" font-size="14.00">sdComp &lt;= 6.5</text>
<text text-anchor="middle" x="479" y="-362.8" font-family="Times,serif" font-size="14.00">gini = 0.5</text>
<text text-anchor="middle" x="479" y="-347.8" font-family="Times,serif" font-size="14.00">samples = 1940</text>
<text text-anchor="middle" x="479" y="-332.8" font-family="Times,serif" font-size="14.00">value = [962, 978]</text>
<text text-anchor="middle" x="479" y="-317.8" font-family="Times,serif" font-size="14.00">class = True</text>
</g>
<!-- 0&#45;&gt;1 -->
<g id="edge1" class="edge">
<title>0&#45;&gt;1</title>
<path fill="none" stroke="black" d="M583.49,-428.91C570.33,-419.29 556.2,-408.95 542.71,-399.09"/>
<polygon fill="black" stroke="black" points="544.55,-396.1 534.41,-393.02 540.42,-401.75 544.55,-396.1"/>
<text text-anchor="middle" x="538.25" y="-414.02" font-family="Times,serif" font-size="14.00">True</text>
</g>
<!-- 48 -->
<g id="node17" class="node">
<title>48</title>
<polygon fill="#ffffff" stroke="black" points="898.5,-393 713.5,-393 713.5,-310 898.5,-310 898.5,-393"/>
<text text-anchor="middle" x="806" y="-377.8" font-family="Times,serif" font-size="14.00">sdComm &lt;= 0.65</text>
<text text-anchor="middle" x="806" y="-362.8" font-family="Times,serif" font-size="14.00">gini = 0.5</text>
<text text-anchor="middle" x="806" y="-347.8" font-family="Times,serif" font-size="14.00">samples = 23740</text>
<text text-anchor="middle" x="806" y="-332.8" font-family="Times,serif" font-size="14.00">value = [11868, 11872]</text>
<text text-anchor="middle" x="806" y="-317.8" font-family="Times,serif" font-size="14.00">class = True</text>
</g>
<!-- 0&#45;&gt;48 -->
<g id="edge16" class="edge">
<title>0&#45;&gt;48</title>
<path fill="none" stroke="black" d="M696.94,-428.91C710.8,-419.2 725.7,-408.76 739.9,-398.81"/>
<polygon fill="black" stroke="black" points="741.98,-401.63 748.16,-393.02 737.96,-395.89 741.98,-401.63"/>
<text text-anchor="middle" x="743.83" y="-413.94" font-family="Times,serif" font-size="14.00">False</text>
</g>
<!-- 2 -->
<g id="node3" class="node">
<title>2</title>
<polygon fill="#ffffff" stroke="black" points="319.5,-274 170.5,-274 170.5,-191 319.5,-191 319.5,-274"/>
<text text-anchor="middle" x="245" y="-258.8" font-family="Times,serif" font-size="14.00">sdComp &lt;= 0.02</text>
<text text-anchor="middle" x="245" y="-243.8" font-family="Times,serif" font-size="14.00">gini = 0.5</text>
<text text-anchor="middle" x="245" y="-228.8" font-family="Times,serif" font-size="14.00">samples = 1664</text>
<text text-anchor="middle" x="245" y="-213.8" font-family="Times,serif" font-size="14.00">value = [832, 832]</text>
<text text-anchor="middle" x="245" y="-198.8" font-family="Times,serif" font-size="14.00">class = False</text>
</g>
<!-- 1&#45;&gt;2 -->
<g id="edge2" class="edge">
<title>1&#45;&gt;2</title>
<path fill="none" stroke="black" d="M404.32,-313.16C380.25,-301.13 353.43,-287.72 328.76,-275.38"/>
<polygon fill="black" stroke="black" points="330.29,-272.23 319.78,-270.89 327.15,-278.49 330.29,-272.23"/>
</g>
<!-- 37 -->
<g id="node10" class="node">
<title>37</title>
<polygon fill="#e9f4fc" stroke="black" points="553.5,-274 404.5,-274 404.5,-191 553.5,-191 553.5,-274"/>
<text text-anchor="middle" x="479" y="-258.8" font-family="Times,serif" font-size="14.00">sdComm &lt;= 2.0</text>
<text text-anchor="middle" x="479" y="-243.8" font-family="Times,serif" font-size="14.00">gini = 0.498</text>
<text text-anchor="middle" x="479" y="-228.8" font-family="Times,serif" font-size="14.00">samples = 276</text>
<text text-anchor="middle" x="479" y="-213.8" font-family="Times,serif" font-size="14.00">value = [130, 146]</text>
<text text-anchor="middle" x="479" y="-198.8" font-family="Times,serif" font-size="14.00">class = True</text>
</g>
<!-- 1&#45;&gt;37 -->
<g id="edge9" class="edge">
<title>1&#45;&gt;37</title>
<path fill="none" stroke="black" d="M479,-309.91C479,-301.65 479,-292.86 479,-284.3"/>
<polygon fill="black" stroke="black" points="482.5,-284.02 479,-274.02 475.5,-284.02 482.5,-284.02"/>
</g>
<!-- 3 -->
<g id="node4" class="node">
<title>3</title>
<polygon fill="#ffffff" stroke="black" points="152,-155 0,-155 0,-72 152,-72 152,-155"/>
<text text-anchor="middle" x="76" y="-139.8" font-family="Times,serif" font-size="14.00">sdComm &lt;= 0.055</text>
<text text-anchor="middle" x="76" y="-124.8" font-family="Times,serif" font-size="14.00">gini = 0.5</text>
<text text-anchor="middle" x="76" y="-109.8" font-family="Times,serif" font-size="14.00">samples = 32</text>
<text text-anchor="middle" x="76" y="-94.8" font-family="Times,serif" font-size="14.00">value = [16, 16]</text>
<text text-anchor="middle" x="76" y="-79.8" font-family="Times,serif" font-size="14.00">class = False</text>
</g>
<!-- 2&#45;&gt;3 -->
<g id="edge3" class="edge">
<title>2&#45;&gt;3</title>
<path fill="none" stroke="black" d="M186.37,-190.91C172.34,-181.2 157.26,-170.76 142.89,-160.81"/>
<polygon fill="black" stroke="black" points="144.74,-157.84 134.53,-155.02 140.76,-163.59 144.74,-157.84"/>
</g>
<!-- 6 -->
<g id="node7" class="node">
<title>6</title>
<polygon fill="#ffffff" stroke="black" points="319.5,-155 170.5,-155 170.5,-72 319.5,-72 319.5,-155"/>
<text text-anchor="middle" x="245" y="-139.8" font-family="Times,serif" font-size="14.00">CCR &lt;= 0.55</text>
<text text-anchor="middle" x="245" y="-124.8" font-family="Times,serif" font-size="14.00">gini = 0.5</text>
<text text-anchor="middle" x="245" y="-109.8" font-family="Times,serif" font-size="14.00">samples = 1632</text>
<text text-anchor="middle" x="245" y="-94.8" font-family="Times,serif" font-size="14.00">value = [816, 816]</text>
<text text-anchor="middle" x="245" y="-79.8" font-family="Times,serif" font-size="14.00">class = False</text>
</g>
<!-- 2&#45;&gt;6 -->
<g id="edge6" class="edge">
<title>2&#45;&gt;6</title>
<path fill="none" stroke="black" d="M245,-190.91C245,-182.65 245,-173.86 245,-165.3"/>
<polygon fill="black" stroke="black" points="248.5,-165.02 245,-155.02 241.5,-165.02 248.5,-165.02"/>
</g>
<!-- 4 -->
<g id="node5" class="node">
<title>4</title>
<polygon fill="#c0c0c0" stroke="black" points="67,-36 13,-36 13,0 67,0 67,-36"/>
<text text-anchor="middle" x="40" y="-14.3" font-family="Times,serif" font-size="14.00">(...)</text>
</g>
<!-- 3&#45;&gt;4 -->
<g id="edge4" class="edge">
<title>3&#45;&gt;4</title>
<path fill="none" stroke="black" d="M60.31,-71.76C56.96,-63.04 53.49,-54.04 50.39,-45.99"/>
<polygon fill="black" stroke="black" points="53.56,-44.48 46.7,-36.41 47.03,-46.99 53.56,-44.48"/>
</g>
<!-- 5 -->
<g id="node6" class="node">
<title>5</title>
<polygon fill="#c0c0c0" stroke="black" points="139,-36 85,-36 85,0 139,0 139,-36"/>
<text text-anchor="middle" x="112" y="-14.3" font-family="Times,serif" font-size="14.00">(...)</text>
</g>
<!-- 3&#45;&gt;5 -->
<g id="edge5" class="edge">
<title>3&#45;&gt;5</title>
<path fill="none" stroke="black" d="M91.69,-71.76C95.04,-63.04 98.51,-54.04 101.61,-45.99"/>
<polygon fill="black" stroke="black" points="104.97,-46.99 105.3,-36.41 98.44,-44.48 104.97,-46.99"/>
</g>
<!-- 7 -->
<g id="node8" class="node">
<title>7</title>
<polygon fill="#c0c0c0" stroke="black" points="227,-36 173,-36 173,0 227,0 227,-36"/>
<text text-anchor="middle" x="200" y="-14.3" font-family="Times,serif" font-size="14.00">(...)</text>
</g>
<!-- 6&#45;&gt;7 -->
<g id="edge7" class="edge">
<title>6&#45;&gt;7</title>
<path fill="none" stroke="black" d="M225.39,-71.76C221.1,-62.85 216.67,-53.64 212.73,-45.46"/>
<polygon fill="black" stroke="black" points="215.87,-43.9 208.38,-36.41 209.56,-46.93 215.87,-43.9"/>
</g>
<!-- 8 -->
<g id="node9" class="node">
<title>8</title>
<polygon fill="#c0c0c0" stroke="black" points="299,-36 245,-36 245,0 299,0 299,-36"/>
<text text-anchor="middle" x="272" y="-14.3" font-family="Times,serif" font-size="14.00">(...)</text>
</g>
<!-- 6&#45;&gt;8 -->
<g id="edge8" class="edge">
<title>6&#45;&gt;8</title>
<path fill="none" stroke="black" d="M256.76,-71.76C259.25,-63.14 261.82,-54.24 264.13,-46.26"/>
<polygon fill="black" stroke="black" points="267.56,-46.98 266.97,-36.41 260.84,-45.04 267.56,-46.98"/>
</g>
<!-- 38 -->
<g id="node11" class="node">
<title>38</title>
<polygon fill="#baddf6" stroke="black" points="468.5,-155 337.5,-155 337.5,-72 468.5,-72 468.5,-155"/>
<text text-anchor="middle" x="403" y="-139.8" font-family="Times,serif" font-size="14.00">nbproc &lt;= 4.5</text>
<text text-anchor="middle" x="403" y="-124.8" font-family="Times,serif" font-size="14.00">gini = 0.478</text>
<text text-anchor="middle" x="403" y="-109.8" font-family="Times,serif" font-size="14.00">samples = 76</text>
<text text-anchor="middle" x="403" y="-94.8" font-family="Times,serif" font-size="14.00">value = [30, 46]</text>
<text text-anchor="middle" x="403" y="-79.8" font-family="Times,serif" font-size="14.00">class = True</text>
</g>
<!-- 37&#45;&gt;38 -->
<g id="edge10" class="edge">
<title>37&#45;&gt;38</title>
<path fill="none" stroke="black" d="M452.63,-190.91C446.91,-182.1 440.81,-172.7 434.9,-163.61"/>
<polygon fill="black" stroke="black" points="437.7,-161.5 429.32,-155.02 431.83,-165.31 437.7,-161.5"/>
</g>
<!-- 41 -->
<g id="node14" class="node">
<title>41</title>
<polygon fill="#ffffff" stroke="black" points="635.5,-155 486.5,-155 486.5,-72 635.5,-72 635.5,-155"/>
<text text-anchor="middle" x="561" y="-139.8" font-family="Times,serif" font-size="14.00">nbproc &lt;= 4.5</text>
<text text-anchor="middle" x="561" y="-124.8" font-family="Times,serif" font-size="14.00">gini = 0.5</text>
<text text-anchor="middle" x="561" y="-109.8" font-family="Times,serif" font-size="14.00">samples = 200</text>
<text text-anchor="middle" x="561" y="-94.8" font-family="Times,serif" font-size="14.00">value = [100, 100]</text>
<text text-anchor="middle" x="561" y="-79.8" font-family="Times,serif" font-size="14.00">class = False</text>
</g>
<!-- 37&#45;&gt;41 -->
<g id="edge13" class="edge">
<title>37&#45;&gt;41</title>
<path fill="none" stroke="black" d="M507.45,-190.91C513.68,-182.01 520.34,-172.51 526.78,-163.33"/>
<polygon fill="black" stroke="black" points="529.73,-165.22 532.6,-155.02 524,-161.2 529.73,-165.22"/>
</g>
<!-- 39 -->
<g id="node12" class="node">
<title>39</title>
<polygon fill="#c0c0c0" stroke="black" points="393,-36 339,-36 339,0 393,0 393,-36"/>
<text text-anchor="middle" x="366" y="-14.3" font-family="Times,serif" font-size="14.00">(...)</text>
</g>
<!-- 38&#45;&gt;39 -->
<g id="edge11" class="edge">
<title>38&#45;&gt;39</title>
<path fill="none" stroke="black" d="M386.88,-71.76C383.39,-62.94 379.79,-53.84 376.58,-45.72"/>
<polygon fill="black" stroke="black" points="379.82,-44.42 372.89,-36.41 373.31,-46.99 379.82,-44.42"/>
</g>
<!-- 40 -->
<g id="node13" class="node">
<title>40</title>
<polygon fill="#c0c0c0" stroke="black" points="465,-36 411,-36 411,0 465,0 465,-36"/>
<text text-anchor="middle" x="438" y="-14.3" font-family="Times,serif" font-size="14.00">(...)</text>
</g>
<!-- 38&#45;&gt;40 -->
<g id="edge12" class="edge">
<title>38&#45;&gt;40</title>
<path fill="none" stroke="black" d="M418.25,-71.76C421.51,-63.04 424.88,-54.04 427.9,-45.99"/>
<polygon fill="black" stroke="black" points="431.26,-47 431.48,-36.41 424.7,-44.54 431.26,-47"/>
</g>
<!-- 42 -->
<g id="node15" class="node">
<title>42</title>
<polygon fill="#c0c0c0" stroke="black" points="548,-36 494,-36 494,0 548,0 548,-36"/>
<text text-anchor="middle" x="521" y="-14.3" font-family="Times,serif" font-size="14.00">(...)</text>
</g>
<!-- 41&#45;&gt;42 -->
<g id="edge14" class="edge">
<title>41&#45;&gt;42</title>
<path fill="none" stroke="black" d="M543.57,-71.76C539.8,-62.94 535.9,-53.84 532.43,-45.72"/>
<polygon fill="black" stroke="black" points="535.6,-44.22 528.45,-36.41 529.16,-46.98 535.6,-44.22"/>
</g>
<!-- 45 -->
<g id="node16" class="node">
<title>45</title>
<polygon fill="#c0c0c0" stroke="black" points="620,-36 566,-36 566,0 620,0 620,-36"/>
<text text-anchor="middle" x="593" y="-14.3" font-family="Times,serif" font-size="14.00">(...)</text>
</g>
<!-- 41&#45;&gt;45 -->
<g id="edge15" class="edge">
<title>41&#45;&gt;45</title>
<path fill="none" stroke="black" d="M574.94,-71.76C577.93,-63.04 581.01,-54.04 583.76,-45.99"/>
<polygon fill="black" stroke="black" points="587.12,-47 587.04,-36.41 580.49,-44.73 587.12,-47"/>
</g>
<!-- 49 -->
<g id="node18" class="node">
<title>49</title>
<polygon fill="#fcfdff" stroke="black" points="880.5,-274 731.5,-274 731.5,-191 880.5,-191 880.5,-274"/>
<text text-anchor="middle" x="806" y="-258.8" font-family="Times,serif" font-size="14.00">sdComp &lt;= 0.2</text>
<text text-anchor="middle" x="806" y="-243.8" font-family="Times,serif" font-size="14.00">gini = 0.5</text>
<text text-anchor="middle" x="806" y="-228.8" font-family="Times,serif" font-size="14.00">samples = 512</text>
<text text-anchor="middle" x="806" y="-213.8" font-family="Times,serif" font-size="14.00">value = [254, 258]</text>
<text text-anchor="middle" x="806" y="-198.8" font-family="Times,serif" font-size="14.00">class = True</text>
</g>
<!-- 48&#45;&gt;49 -->
<g id="edge17" class="edge">
<title>48&#45;&gt;49</title>
<path fill="none" stroke="black" d="M806,-309.91C806,-301.65 806,-292.86 806,-284.3"/>
<polygon fill="black" stroke="black" points="809.5,-284.02 806,-274.02 802.5,-284.02 809.5,-284.02"/>
</g>
<!-- 78 -->
<g id="node25" class="node">
<title>78</title>
<polygon fill="#ffffff" stroke="black" points="1157.5,-274 972.5,-274 972.5,-191 1157.5,-191 1157.5,-274"/>
<text text-anchor="middle" x="1065" y="-258.8" font-family="Times,serif" font-size="14.00">nbproc &lt;= 4.5</text>
<text text-anchor="middle" x="1065" y="-243.8" font-family="Times,serif" font-size="14.00">gini = 0.5</text>
<text text-anchor="middle" x="1065" y="-228.8" font-family="Times,serif" font-size="14.00">samples = 23228</text>
<text text-anchor="middle" x="1065" y="-213.8" font-family="Times,serif" font-size="14.00">value = [11614, 11614]</text>
<text text-anchor="middle" x="1065" y="-198.8" font-family="Times,serif" font-size="14.00">class = False</text>
</g>
<!-- 48&#45;&gt;78 -->
<g id="edge24" class="edge">
<title>48&#45;&gt;78</title>
<path fill="none" stroke="black" d="M895.86,-309.91C918.56,-299.65 943.06,-288.59 966.18,-278.14"/>
<polygon fill="black" stroke="black" points="967.63,-281.33 975.3,-274.02 964.75,-274.95 967.63,-281.33"/>
</g>
<!-- 50 -->
<g id="node19" class="node">
<title>50</title>
<polygon fill="#ffffff" stroke="black" points="811,-155 653,-155 653,-72 811,-72 811,-155"/>
<text text-anchor="middle" x="732" y="-139.8" font-family="Times,serif" font-size="14.00">graphDepth &lt;= 7.5</text>
<text text-anchor="middle" x="732" y="-124.8" font-family="Times,serif" font-size="14.00">gini = 0.5</text>
<text text-anchor="middle" x="732" y="-109.8" font-family="Times,serif" font-size="14.00">samples = 460</text>
<text text-anchor="middle" x="732" y="-94.8" font-family="Times,serif" font-size="14.00">value = [230, 230]</text>
<text text-anchor="middle" x="732" y="-79.8" font-family="Times,serif" font-size="14.00">class = False</text>
</g>
<!-- 49&#45;&gt;50 -->
<g id="edge18" class="edge">
<title>49&#45;&gt;50</title>
<path fill="none" stroke="black" d="M780.33,-190.91C774.76,-182.1 768.81,-172.7 763.06,-163.61"/>
<polygon fill="black" stroke="black" points="765.93,-161.6 757.63,-155.02 760.02,-165.34 765.93,-161.6"/>
</g>
<!-- 73 -->
<g id="node22" class="node">
<title>73</title>
<polygon fill="#e3f1fb" stroke="black" points="963,-155 829,-155 829,-72 963,-72 963,-155"/>
<text text-anchor="middle" x="896" y="-139.8" font-family="Times,serif" font-size="14.00">sdComm &lt;= 0.2</text>
<text text-anchor="middle" x="896" y="-124.8" font-family="Times,serif" font-size="14.00">gini = 0.497</text>
<text text-anchor="middle" x="896" y="-109.8" font-family="Times,serif" font-size="14.00">samples = 52</text>
<text text-anchor="middle" x="896" y="-94.8" font-family="Times,serif" font-size="14.00">value = [24, 28]</text>
<text text-anchor="middle" x="896" y="-79.8" font-family="Times,serif" font-size="14.00">class = True</text>
</g>
<!-- 49&#45;&gt;73 -->
<g id="edge21" class="edge">
<title>49&#45;&gt;73</title>
<path fill="none" stroke="black" d="M837.23,-190.91C844.14,-181.92 851.53,-172.32 858.65,-163.05"/>
<polygon fill="black" stroke="black" points="861.51,-165.08 864.83,-155.02 855.96,-160.81 861.51,-165.08"/>
</g>
<!-- 51 -->
<g id="node20" class="node">
<title>51</title>
<polygon fill="#c0c0c0" stroke="black" points="697,-36 643,-36 643,0 697,0 697,-36"/>
<text text-anchor="middle" x="670" y="-14.3" font-family="Times,serif" font-size="14.00">(...)</text>
</g>
<!-- 50&#45;&gt;51 -->
<g id="edge19" class="edge">
<title>50&#45;&gt;51</title>
<path fill="none" stroke="black" d="M704.99,-71.76C698.95,-62.65 692.7,-53.24 687.19,-44.92"/>
<polygon fill="black" stroke="black" points="689.98,-42.81 681.54,-36.41 684.15,-46.67 689.98,-42.81"/>
</g>
<!-- 66 -->
<g id="node21" class="node">
<title>66</title>
<polygon fill="#c0c0c0" stroke="black" points="769,-36 715,-36 715,0 769,0 769,-36"/>
<text text-anchor="middle" x="742" y="-14.3" font-family="Times,serif" font-size="14.00">(...)</text>
</g>
<!-- 50&#45;&gt;66 -->
<g id="edge20" class="edge">
<title>50&#45;&gt;66</title>
<path fill="none" stroke="black" d="M736.36,-71.76C737.27,-63.24 738.21,-54.44 739.06,-46.53"/>
<polygon fill="black" stroke="black" points="742.56,-46.72 740.14,-36.41 735.59,-45.98 742.56,-46.72"/>
</g>
<!-- 74 -->
<g id="node23" class="node">
<title>74</title>
<polygon fill="#c0c0c0" stroke="black" points="863,-36 809,-36 809,0 863,0 863,-36"/>
<text text-anchor="middle" x="836" y="-14.3" font-family="Times,serif" font-size="14.00">(...)</text>
</g>
<!-- 73&#45;&gt;74 -->
<g id="edge22" class="edge">
<title>73&#45;&gt;74</title>
<path fill="none" stroke="black" d="M869.86,-71.76C864.01,-62.65 857.97,-53.24 852.64,-44.92"/>
<polygon fill="black" stroke="black" points="855.52,-42.93 847.17,-36.41 849.62,-46.71 855.52,-42.93"/>
</g>
<!-- 77 -->
<g id="node24" class="node">
<title>77</title>
<polygon fill="#c0c0c0" stroke="black" points="935,-36 881,-36 881,0 935,0 935,-36"/>
<text text-anchor="middle" x="908" y="-14.3" font-family="Times,serif" font-size="14.00">(...)</text>
</g>
<!-- 73&#45;&gt;77 -->
<g id="edge23" class="edge">
<title>73&#45;&gt;77</title>
<path fill="none" stroke="black" d="M901.23,-71.76C902.32,-63.24 903.45,-54.44 904.47,-46.53"/>
<polygon fill="black" stroke="black" points="907.96,-46.77 905.77,-36.41 901.02,-45.88 907.96,-46.77"/>
</g>
<!-- 79 -->
<g id="node26" class="node">
<title>79</title>
<polygon fill="#ffffff" stroke="black" points="1148.5,-155 981.5,-155 981.5,-72 1148.5,-72 1148.5,-155"/>
<text text-anchor="middle" x="1065" y="-139.8" font-family="Times,serif" font-size="14.00">sdComp &lt;= 0.55</text>
<text text-anchor="middle" x="1065" y="-124.8" font-family="Times,serif" font-size="14.00">gini = 0.5</text>
<text text-anchor="middle" x="1065" y="-109.8" font-family="Times,serif" font-size="14.00">samples = 11260</text>
<text text-anchor="middle" x="1065" y="-94.8" font-family="Times,serif" font-size="14.00">value = [5630, 5630]</text>
<text text-anchor="middle" x="1065" y="-79.8" font-family="Times,serif" font-size="14.00">class = False</text>
</g>
<!-- 78&#45;&gt;79 -->
<g id="edge25" class="edge">
<title>78&#45;&gt;79</title>
<path fill="none" stroke="black" d="M1065,-190.91C1065,-182.65 1065,-173.86 1065,-165.3"/>
<polygon fill="black" stroke="black" points="1068.5,-165.02 1065,-155.02 1061.5,-165.02 1068.5,-165.02"/>
</g>
<!-- 204 -->
<g id="node29" class="node">
<title>204</title>
<polygon fill="#ffffff" stroke="black" points="1333.5,-155 1166.5,-155 1166.5,-72 1333.5,-72 1333.5,-155"/>
<text text-anchor="middle" x="1250" y="-139.8" font-family="Times,serif" font-size="14.00">graphSize &lt;= 22.5</text>
<text text-anchor="middle" x="1250" y="-124.8" font-family="Times,serif" font-size="14.00">gini = 0.5</text>
<text text-anchor="middle" x="1250" y="-109.8" font-family="Times,serif" font-size="14.00">samples = 11968</text>
<text text-anchor="middle" x="1250" y="-94.8" font-family="Times,serif" font-size="14.00">value = [5984, 5984]</text>
<text text-anchor="middle" x="1250" y="-79.8" font-family="Times,serif" font-size="14.00">class = False</text>
</g>
<!-- 78&#45;&gt;204 -->
<g id="edge28" class="edge">
<title>78&#45;&gt;204</title>
<path fill="none" stroke="black" d="M1129.18,-190.91C1144.68,-181.11 1161.35,-170.56 1177.21,-160.53"/>
<polygon fill="black" stroke="black" points="1179.35,-163.32 1185.93,-155.02 1175.61,-157.41 1179.35,-163.32"/>
</g>
<!-- 80 -->
<g id="node27" class="node">
<title>80</title>
<polygon fill="#c0c0c0" stroke="black" points="1056,-36 1002,-36 1002,0 1056,0 1056,-36"/>
<text text-anchor="middle" x="1029" y="-14.3" font-family="Times,serif" font-size="14.00">(...)</text>
</g>
<!-- 79&#45;&gt;80 -->
<g id="edge26" class="edge">
<title>79&#45;&gt;80</title>
<path fill="none" stroke="black" d="M1049.31,-71.76C1045.96,-63.04 1042.49,-54.04 1039.39,-45.99"/>
<polygon fill="black" stroke="black" points="1042.56,-44.48 1035.7,-36.41 1036.03,-46.99 1042.56,-44.48"/>
</g>
<!-- 81 -->
<g id="node28" class="node">
<title>81</title>
<polygon fill="#c0c0c0" stroke="black" points="1128,-36 1074,-36 1074,0 1128,0 1128,-36"/>
<text text-anchor="middle" x="1101" y="-14.3" font-family="Times,serif" font-size="14.00">(...)</text>
</g>
<!-- 79&#45;&gt;81 -->
<g id="edge27" class="edge">
<title>79&#45;&gt;81</title>
<path fill="none" stroke="black" d="M1080.69,-71.76C1084.04,-63.04 1087.51,-54.04 1090.61,-45.99"/>
<polygon fill="black" stroke="black" points="1093.97,-46.99 1094.3,-36.41 1087.44,-44.48 1093.97,-46.99"/>
</g>
<!-- 205 -->
<g id="node30" class="node">
<title>205</title>
<polygon fill="#c0c0c0" stroke="black" points="1241,-36 1187,-36 1187,0 1241,0 1241,-36"/>
<text text-anchor="middle" x="1214" y="-14.3" font-family="Times,serif" font-size="14.00">(...)</text>
</g>
<!-- 204&#45;&gt;205 -->
<g id="edge29" class="edge">
<title>204&#45;&gt;205</title>
<path fill="none" stroke="black" d="M1234.31,-71.76C1230.96,-63.04 1227.49,-54.04 1224.39,-45.99"/>
<polygon fill="black" stroke="black" points="1227.56,-44.48 1220.7,-36.41 1221.03,-46.99 1227.56,-44.48"/>
</g>
<!-- 224 -->
<g id="node31" class="node">
<title>224</title>
<polygon fill="#c0c0c0" stroke="black" points="1313,-36 1259,-36 1259,0 1313,0 1313,-36"/>
<text text-anchor="middle" x="1286" y="-14.3" font-family="Times,serif" font-size="14.00">(...)</text>
</g>
<!-- 204&#45;&gt;224 -->
<g id="edge30" class="edge">
<title>204&#45;&gt;224</title>
<path fill="none" stroke="black" d="M1265.69,-71.76C1269.04,-63.04 1272.51,-54.04 1275.61,-45.99"/>
<polygon fill="black" stroke="black" points="1278.97,-46.99 1279.3,-36.41 1272.44,-44.48 1278.97,-46.99"/>
</g>
</g>
</svg>
