<?xml version="1.0" encoding="UTF-8" standalone="no"?>
<!DOCTYPE svg PUBLIC "-//W3C//DTD SVG 1.1//EN"
 "http://www.w3.org/Graphics/SVG/1.1/DTD/svg11.dtd">
<!-- Generated by graphviz version 2.43.0 (0)
 -->
<!-- Title: Tree Pages: 1 -->
<svg width="1927pt" height="520pt"
 viewBox="0.00 0.00 1927.00 520.00" xmlns="http://www.w3.org/2000/svg" xmlns:xlink="http://www.w3.org/1999/xlink">
<g id="graph0" class="graph" transform="scale(1 1) rotate(0) translate(4 516)">
<title>Tree</title>
<polygon fill="white" stroke="transparent" points="-4,4 -4,-516 1923,-516 1923,4 -4,4"/>
<!-- 0 -->
<g id="node1" class="node">
<title>0</title>
<polygon fill="#fefaf7" stroke="black" points="1060,-512 713,-512 713,-429 1060,-429 1060,-512"/>
<text text-anchor="middle" x="886.5" y="-496.8" font-family="Times,serif" font-size="14.00">sdComp &lt;= 0.2</text>
<text text-anchor="middle" x="886.5" y="-481.8" font-family="Times,serif" font-size="14.00">gini = 0.832</text>
<text text-anchor="middle" x="886.5" y="-466.8" font-family="Times,serif" font-size="14.00">samples = 25680</text>
<text text-anchor="middle" x="886.5" y="-451.8" font-family="Times,serif" font-size="14.00">value = [5080, 4216, 4176, 4016, 4016, 4176]</text>
<text text-anchor="middle" x="886.5" y="-436.8" font-family="Times,serif" font-size="14.00">class = mean</text>
</g>
<!-- 1 -->
<g id="node2" class="node">
<title>1</title>
<polygon fill="#f8fdf1" stroke="black" points="802,-393 545,-393 545,-310 802,-310 802,-393"/>
<text text-anchor="middle" x="673.5" y="-377.8" font-family="Times,serif" font-size="14.00">CCR &lt;= 0.55</text>
<text text-anchor="middle" x="673.5" y="-362.8" font-family="Times,serif" font-size="14.00">gini = 0.816</text>
<text text-anchor="middle" x="673.5" y="-347.8" font-family="Times,serif" font-size="14.00">samples = 568</text>
<text text-anchor="middle" x="673.5" y="-332.8" font-family="Times,serif" font-size="14.00">value = [120, 152, 72, 76, 76, 72]</text>
<text text-anchor="middle" x="673.5" y="-317.8" font-family="Times,serif" font-size="14.00">class = median</text>
</g>
<!-- 0&#45;&gt;1 -->
<g id="edge1" class="edge">
<title>0&#45;&gt;1</title>
<path fill="none" stroke="black" d="M812.6,-428.91C794.34,-418.88 774.67,-408.07 756.04,-397.84"/>
<polygon fill="black" stroke="black" points="757.72,-394.77 747.27,-393.02 754.35,-400.9 757.72,-394.77"/>
<text text-anchor="middle" x="754.25" y="-413.33" font-family="Times,serif" font-size="14.00">True</text>
</g>
<!-- 38 -->
<g id="node15" class="node">
<title>38</title>
<polygon fill="#fefaf7" stroke="black" points="1284,-393 937,-393 937,-310 1284,-310 1284,-393"/>
<text text-anchor="middle" x="1110.5" y="-377.8" font-family="Times,serif" font-size="14.00">sdComm &lt;= 0.65</text>
<text text-anchor="middle" x="1110.5" y="-362.8" font-family="Times,serif" font-size="14.00">gini = 0.832</text>
<text text-anchor="middle" x="1110.5" y="-347.8" font-family="Times,serif" font-size="14.00">samples = 25112</text>
<text text-anchor="middle" x="1110.5" y="-332.8" font-family="Times,serif" font-size="14.00">value = [4960, 4064, 4104, 3940, 3940, 4104]</text>
<text text-anchor="middle" x="1110.5" y="-317.8" font-family="Times,serif" font-size="14.00">class = mean</text>
</g>
<!-- 0&#45;&gt;38 -->
<g id="edge14" class="edge">
<title>0&#45;&gt;38</title>
<path fill="none" stroke="black" d="M964.22,-428.91C983.5,-418.83 1004.29,-407.98 1023.97,-397.7"/>
<polygon fill="black" stroke="black" points="1025.68,-400.75 1032.92,-393.02 1022.44,-394.55 1025.68,-400.75"/>
<text text-anchor="middle" x="1025.44" y="-413.17" font-family="Times,serif" font-size="14.00">False</text>
</g>
<!-- 2 -->
<g id="node3" class="node">
<title>2</title>
<polygon fill="#ffffff" stroke="black" points="478,-274 239,-274 239,-191 478,-191 478,-274"/>
<text text-anchor="middle" x="358.5" y="-258.8" font-family="Times,serif" font-size="14.00">graphDepth &lt;= 13.5</text>
<text text-anchor="middle" x="358.5" y="-243.8" font-family="Times,serif" font-size="14.00">gini = 0.82</text>
<text text-anchor="middle" x="358.5" y="-228.8" font-family="Times,serif" font-size="14.00">samples = 196</text>
<text text-anchor="middle" x="358.5" y="-213.8" font-family="Times,serif" font-size="14.00">value = [24, 20, 32, 44, 44, 32]</text>
<text text-anchor="middle" x="358.5" y="-198.8" font-family="Times,serif" font-size="14.00">class = minmax</text>
</g>
<!-- 1&#45;&gt;2 -->
<g id="edge2" class="edge">
<title>1&#45;&gt;2</title>
<path fill="none" stroke="black" d="M564.21,-309.91C536.11,-299.47 505.75,-288.19 477.2,-277.59"/>
<polygon fill="black" stroke="black" points="478.19,-274.22 467.59,-274.02 475.75,-280.78 478.19,-274.22"/>
</g>
<!-- 19 -->
<g id="node8" class="node">
<title>19</title>
<polygon fill="#f2fce5" stroke="black" points="797.5,-274 549.5,-274 549.5,-191 797.5,-191 797.5,-274"/>
<text text-anchor="middle" x="673.5" y="-258.8" font-family="Times,serif" font-size="14.00">graphDepth &lt;= 7.5</text>
<text text-anchor="middle" x="673.5" y="-243.8" font-family="Times,serif" font-size="14.00">gini = 0.77</text>
<text text-anchor="middle" x="673.5" y="-228.8" font-family="Times,serif" font-size="14.00">samples = 372</text>
<text text-anchor="middle" x="673.5" y="-213.8" font-family="Times,serif" font-size="14.00">value = [96, 132, 40, 32, 32, 40]</text>
<text text-anchor="middle" x="673.5" y="-198.8" font-family="Times,serif" font-size="14.00">class = median</text>
</g>
<!-- 1&#45;&gt;19 -->
<g id="edge7" class="edge">
<title>1&#45;&gt;19</title>
<path fill="none" stroke="black" d="M673.5,-309.91C673.5,-301.65 673.5,-292.86 673.5,-284.3"/>
<polygon fill="black" stroke="black" points="677,-284.02 673.5,-274.02 670,-284.02 677,-284.02"/>
</g>
<!-- 3 -->
<g id="node4" class="node">
<title>3</title>
<polygon fill="#ffffff" stroke="black" points="239,-155 0,-155 0,-72 239,-72 239,-155"/>
<text text-anchor="middle" x="119.5" y="-139.8" font-family="Times,serif" font-size="14.00">graphDepth &lt;= 7.5</text>
<text text-anchor="middle" x="119.5" y="-124.8" font-family="Times,serif" font-size="14.00">gini = 0.829</text>
<text text-anchor="middle" x="119.5" y="-109.8" font-family="Times,serif" font-size="14.00">samples = 164</text>
<text text-anchor="middle" x="119.5" y="-94.8" font-family="Times,serif" font-size="14.00">value = [24, 20, 32, 28, 28, 32]</text>
<text text-anchor="middle" x="119.5" y="-79.8" font-family="Times,serif" font-size="14.00">class = maxmax</text>
</g>
<!-- 2&#45;&gt;3 -->
<g id="edge3" class="edge">
<title>2&#45;&gt;3</title>
<path fill="none" stroke="black" d="M275.58,-190.91C254.82,-180.74 232.42,-169.78 211.26,-159.42"/>
<polygon fill="black" stroke="black" points="212.79,-156.27 202.27,-155.02 209.72,-162.56 212.79,-156.27"/>
</g>
<!-- 18 -->
<g id="node7" class="node">
<title>18</title>
<polygon fill="#ffffff" stroke="black" points="460,-147.5 257,-147.5 257,-79.5 460,-79.5 460,-147.5"/>
<text text-anchor="middle" x="358.5" y="-132.3" font-family="Times,serif" font-size="14.00">gini = 0.5</text>
<text text-anchor="middle" x="358.5" y="-117.3" font-family="Times,serif" font-size="14.00">samples = 32</text>
<text text-anchor="middle" x="358.5" y="-102.3" font-family="Times,serif" font-size="14.00">value = [0, 0, 0, 16, 16, 0]</text>
<text text-anchor="middle" x="358.5" y="-87.3" font-family="Times,serif" font-size="14.00">class = minmax</text>
</g>
<!-- 2&#45;&gt;18 -->
<g id="edge6" class="edge">
<title>2&#45;&gt;18</title>
<path fill="none" stroke="black" d="M358.5,-190.91C358.5,-180.2 358.5,-168.62 358.5,-157.78"/>
<polygon fill="black" stroke="black" points="362,-157.67 358.5,-147.67 355,-157.67 362,-157.67"/>
</g>
<!-- 4 -->
<g id="node5" class="node">
<title>4</title>
<polygon fill="#c0c0c0" stroke="black" points="110.5,-36 56.5,-36 56.5,0 110.5,0 110.5,-36"/>
<text text-anchor="middle" x="83.5" y="-14.3" font-family="Times,serif" font-size="14.00">(...)</text>
</g>
<!-- 3&#45;&gt;4 -->
<g id="edge4" class="edge">
<title>3&#45;&gt;4</title>
<path fill="none" stroke="black" d="M103.81,-71.76C100.46,-63.04 96.99,-54.04 93.89,-45.99"/>
<polygon fill="black" stroke="black" points="97.06,-44.48 90.2,-36.41 90.53,-46.99 97.06,-44.48"/>
</g>
<!-- 17 -->
<g id="node6" class="node">
<title>17</title>
<polygon fill="#c0c0c0" stroke="black" points="182.5,-36 128.5,-36 128.5,0 182.5,0 182.5,-36"/>
<text text-anchor="middle" x="155.5" y="-14.3" font-family="Times,serif" font-size="14.00">(...)</text>
</g>
<!-- 3&#45;&gt;17 -->
<g id="edge5" class="edge">
<title>3&#45;&gt;17</title>
<path fill="none" stroke="black" d="M135.19,-71.76C138.54,-63.04 142.01,-54.04 145.11,-45.99"/>
<polygon fill="black" stroke="black" points="148.47,-46.99 148.8,-36.41 141.94,-44.48 148.47,-46.99"/>
</g>
<!-- 20 -->
<g id="node9" class="node">
<title>20</title>
<polygon fill="#f7fdef" stroke="black" points="725.5,-155 477.5,-155 477.5,-72 725.5,-72 725.5,-155"/>
<text text-anchor="middle" x="601.5" y="-139.8" font-family="Times,serif" font-size="14.00">sdComm &lt;= 0.2</text>
<text text-anchor="middle" x="601.5" y="-124.8" font-family="Times,serif" font-size="14.00">gini = 0.768</text>
<text text-anchor="middle" x="601.5" y="-109.8" font-family="Times,serif" font-size="14.00">samples = 340</text>
<text text-anchor="middle" x="601.5" y="-94.8" font-family="Times,serif" font-size="14.00">value = [96, 116, 32, 32, 32, 32]</text>
<text text-anchor="middle" x="601.5" y="-79.8" font-family="Times,serif" font-size="14.00">class = median</text>
</g>
<!-- 19&#45;&gt;20 -->
<g id="edge8" class="edge">
<title>19&#45;&gt;20</title>
<path fill="none" stroke="black" d="M648.52,-190.91C643.1,-182.1 637.32,-172.7 631.72,-163.61"/>
<polygon fill="black" stroke="black" points="634.66,-161.7 626.44,-155.02 628.7,-165.37 634.66,-161.7"/>
</g>
<!-- 35 -->
<g id="node12" class="node">
<title>35</title>
<polygon fill="#def6bd" stroke="black" points="937.5,-155 743.5,-155 743.5,-72 937.5,-72 937.5,-155"/>
<text text-anchor="middle" x="840.5" y="-139.8" font-family="Times,serif" font-size="14.00">nbproc &lt;= 4.5</text>
<text text-anchor="middle" x="840.5" y="-124.8" font-family="Times,serif" font-size="14.00">gini = 0.625</text>
<text text-anchor="middle" x="840.5" y="-109.8" font-family="Times,serif" font-size="14.00">samples = 32</text>
<text text-anchor="middle" x="840.5" y="-94.8" font-family="Times,serif" font-size="14.00">value = [0, 16, 8, 0, 0, 8]</text>
<text text-anchor="middle" x="840.5" y="-79.8" font-family="Times,serif" font-size="14.00">class = median</text>
</g>
<!-- 19&#45;&gt;35 -->
<g id="edge11" class="edge">
<title>19&#45;&gt;35</title>
<path fill="none" stroke="black" d="M731.44,-190.91C745.3,-181.2 760.2,-170.76 774.4,-160.81"/>
<polygon fill="black" stroke="black" points="776.48,-163.63 782.66,-155.02 772.46,-157.89 776.48,-163.63"/>
</g>
<!-- 21 -->
<g id="node10" class="node">
<title>21</title>
<polygon fill="#c0c0c0" stroke="black" points="592.5,-36 538.5,-36 538.5,0 592.5,0 592.5,-36"/>
<text text-anchor="middle" x="565.5" y="-14.3" font-family="Times,serif" font-size="14.00">(...)</text>
</g>
<!-- 20&#45;&gt;21 -->
<g id="edge9" class="edge">
<title>20&#45;&gt;21</title>
<path fill="none" stroke="black" d="M585.81,-71.76C582.46,-63.04 578.99,-54.04 575.89,-45.99"/>
<polygon fill="black" stroke="black" points="579.06,-44.48 572.2,-36.41 572.53,-46.99 579.06,-44.48"/>
</g>
<!-- 26 -->
<g id="node11" class="node">
<title>26</title>
<polygon fill="#c0c0c0" stroke="black" points="664.5,-36 610.5,-36 610.5,0 664.5,0 664.5,-36"/>
<text text-anchor="middle" x="637.5" y="-14.3" font-family="Times,serif" font-size="14.00">(...)</text>
</g>
<!-- 20&#45;&gt;26 -->
<g id="edge10" class="edge">
<title>20&#45;&gt;26</title>
<path fill="none" stroke="black" d="M617.19,-71.76C620.54,-63.04 624.01,-54.04 627.11,-45.99"/>
<polygon fill="black" stroke="black" points="630.47,-46.99 630.8,-36.41 623.94,-44.48 630.47,-46.99"/>
</g>
<!-- 36 -->
<g id="node13" class="node">
<title>36</title>
<polygon fill="#c0c0c0" stroke="black" points="826.5,-36 772.5,-36 772.5,0 826.5,0 826.5,-36"/>
<text text-anchor="middle" x="799.5" y="-14.3" font-family="Times,serif" font-size="14.00">(...)</text>
</g>
<!-- 35&#45;&gt;36 -->
<g id="edge12" class="edge">
<title>35&#45;&gt;36</title>
<path fill="none" stroke="black" d="M822.64,-71.76C818.77,-62.94 814.78,-53.84 811.22,-45.72"/>
<polygon fill="black" stroke="black" points="814.35,-44.16 807.13,-36.41 807.94,-46.97 814.35,-44.16"/>
</g>
<!-- 37 -->
<g id="node14" class="node">
<title>37</title>
<polygon fill="#c0c0c0" stroke="black" points="898.5,-36 844.5,-36 844.5,0 898.5,0 898.5,-36"/>
<text text-anchor="middle" x="871.5" y="-14.3" font-family="Times,serif" font-size="14.00">(...)</text>
</g>
<!-- 35&#45;&gt;37 -->
<g id="edge13" class="edge">
<title>35&#45;&gt;37</title>
<path fill="none" stroke="black" d="M854.01,-71.76C856.9,-63.04 859.88,-54.04 862.55,-45.99"/>
<polygon fill="black" stroke="black" points="865.9,-47 865.73,-36.41 859.26,-44.8 865.9,-47"/>
</g>
<!-- 39 -->
<g id="node16" class="node">
<title>39</title>
<polygon fill="#f8ddc9" stroke="black" points="1207.5,-274 1013.5,-274 1013.5,-191 1207.5,-191 1207.5,-274"/>
<text text-anchor="middle" x="1110.5" y="-258.8" font-family="Times,serif" font-size="14.00">sdComm &lt;= 0.2</text>
<text text-anchor="middle" x="1110.5" y="-243.8" font-family="Times,serif" font-size="14.00">gini = 0.757</text>
<text text-anchor="middle" x="1110.5" y="-228.8" font-family="Times,serif" font-size="14.00">samples = 52</text>
<text text-anchor="middle" x="1110.5" y="-213.8" font-family="Times,serif" font-size="14.00">value = [20, 0, 8, 8, 8, 8]</text>
<text text-anchor="middle" x="1110.5" y="-198.8" font-family="Times,serif" font-size="14.00">class = mean</text>
</g>
<!-- 38&#45;&gt;39 -->
<g id="edge15" class="edge">
<title>38&#45;&gt;39</title>
<path fill="none" stroke="black" d="M1110.5,-309.91C1110.5,-301.65 1110.5,-292.86 1110.5,-284.3"/>
<polygon fill="black" stroke="black" points="1114,-284.02 1110.5,-274.02 1107,-284.02 1114,-284.02"/>
</g>
<!-- 44 -->
<g id="node21" class="node">
<title>44</title>
<polygon fill="#fefaf7" stroke="black" points="1635,-274 1288,-274 1288,-191 1635,-191 1635,-274"/>
<text text-anchor="middle" x="1461.5" y="-258.8" font-family="Times,serif" font-size="14.00">CCR &lt;= 5.5</text>
<text text-anchor="middle" x="1461.5" y="-243.8" font-family="Times,serif" font-size="14.00">gini = 0.832</text>
<text text-anchor="middle" x="1461.5" y="-228.8" font-family="Times,serif" font-size="14.00">samples = 25060</text>
<text text-anchor="middle" x="1461.5" y="-213.8" font-family="Times,serif" font-size="14.00">value = [4940, 4064, 4096, 3932, 3932, 4096]</text>
<text text-anchor="middle" x="1461.5" y="-198.8" font-family="Times,serif" font-size="14.00">class = mean</text>
</g>
<!-- 38&#45;&gt;44 -->
<g id="edge20" class="edge">
<title>38&#45;&gt;44</title>
<path fill="none" stroke="black" d="M1232.28,-309.91C1263.86,-299.38 1298.01,-288 1330.06,-277.31"/>
<polygon fill="black" stroke="black" points="1331.56,-280.5 1339.94,-274.02 1329.34,-273.86 1331.56,-280.5"/>
</g>
<!-- 40 -->
<g id="node17" class="node">
<title>40</title>
<polygon fill="#ffffff" stroke="black" points="1140,-155 955,-155 955,-72 1140,-72 1140,-155"/>
<text text-anchor="middle" x="1047.5" y="-139.8" font-family="Times,serif" font-size="14.00">graphSize &lt;= 22.5</text>
<text text-anchor="middle" x="1047.5" y="-124.8" font-family="Times,serif" font-size="14.00">gini = 0.75</text>
<text text-anchor="middle" x="1047.5" y="-109.8" font-family="Times,serif" font-size="14.00">samples = 32</text>
<text text-anchor="middle" x="1047.5" y="-94.8" font-family="Times,serif" font-size="14.00">value = [0, 0, 8, 8, 8, 8]</text>
<text text-anchor="middle" x="1047.5" y="-79.8" font-family="Times,serif" font-size="14.00">class = maxmax</text>
</g>
<!-- 39&#45;&gt;40 -->
<g id="edge16" class="edge">
<title>39&#45;&gt;40</title>
<path fill="none" stroke="black" d="M1088.64,-190.91C1083.95,-182.2 1078.94,-172.9 1074.1,-163.89"/>
<polygon fill="black" stroke="black" points="1077.14,-162.17 1069.32,-155.02 1070.98,-165.48 1077.14,-162.17"/>
</g>
<!-- 43 -->
<g id="node20" class="node">
<title>43</title>
<polygon fill="#e58139" stroke="black" points="1351.5,-147.5 1157.5,-147.5 1157.5,-79.5 1351.5,-79.5 1351.5,-147.5"/>
<text text-anchor="middle" x="1254.5" y="-132.3" font-family="Times,serif" font-size="14.00">gini = 0.0</text>
<text text-anchor="middle" x="1254.5" y="-117.3" font-family="Times,serif" font-size="14.00">samples = 20</text>
<text text-anchor="middle" x="1254.5" y="-102.3" font-family="Times,serif" font-size="14.00">value = [20, 0, 0, 0, 0, 0]</text>
<text text-anchor="middle" x="1254.5" y="-87.3" font-family="Times,serif" font-size="14.00">class = mean</text>
</g>
<!-- 39&#45;&gt;43 -->
<g id="edge19" class="edge">
<title>39&#45;&gt;43</title>
<path fill="none" stroke="black" d="M1160.46,-190.91C1175.13,-178.99 1191.15,-165.98 1205.74,-154.12"/>
<polygon fill="black" stroke="black" points="1208.13,-156.69 1213.68,-147.67 1203.71,-151.26 1208.13,-156.69"/>
</g>
<!-- 41 -->
<g id="node18" class="node">
<title>41</title>
<polygon fill="#c0c0c0" stroke="black" points="1038.5,-36 984.5,-36 984.5,0 1038.5,0 1038.5,-36"/>
<text text-anchor="middle" x="1011.5" y="-14.3" font-family="Times,serif" font-size="14.00">(...)</text>
</g>
<!-- 40&#45;&gt;41 -->
<g id="edge17" class="edge">
<title>40&#45;&gt;41</title>
<path fill="none" stroke="black" d="M1031.81,-71.76C1028.46,-63.04 1024.99,-54.04 1021.89,-45.99"/>
<polygon fill="black" stroke="black" points="1025.06,-44.48 1018.2,-36.41 1018.53,-46.99 1025.06,-44.48"/>
</g>
<!-- 42 -->
<g id="node19" class="node">
<title>42</title>
<polygon fill="#c0c0c0" stroke="black" points="1110.5,-36 1056.5,-36 1056.5,0 1110.5,0 1110.5,-36"/>
<text text-anchor="middle" x="1083.5" y="-14.3" font-family="Times,serif" font-size="14.00">(...)</text>
</g>
<!-- 40&#45;&gt;42 -->
<g id="edge18" class="edge">
<title>40&#45;&gt;42</title>
<path fill="none" stroke="black" d="M1063.19,-71.76C1066.54,-63.04 1070.01,-54.04 1073.11,-45.99"/>
<polygon fill="black" stroke="black" points="1076.47,-46.99 1076.8,-36.41 1069.94,-44.48 1076.47,-46.99"/>
</g>
<!-- 45 -->
<g id="node22" class="node">
<title>45</title>
<polygon fill="#ffffff" stroke="black" points="1554,-147.5 1369,-147.5 1369,-79.5 1554,-79.5 1554,-147.5"/>
<text text-anchor="middle" x="1461.5" y="-132.3" font-family="Times,serif" font-size="14.00">gini = 0.667</text>
<text text-anchor="middle" x="1461.5" y="-117.3" font-family="Times,serif" font-size="14.00">samples = 12</text>
<text text-anchor="middle" x="1461.5" y="-102.3" font-family="Times,serif" font-size="14.00">value = [0, 4, 0, 4, 4, 0]</text>
<text text-anchor="middle" x="1461.5" y="-87.3" font-family="Times,serif" font-size="14.00">class = median</text>
</g>
<!-- 44&#45;&gt;45 -->
<g id="edge21" class="edge">
<title>44&#45;&gt;45</title>
<path fill="none" stroke="black" d="M1461.5,-190.91C1461.5,-180.2 1461.5,-168.62 1461.5,-157.78"/>
<polygon fill="black" stroke="black" points="1465,-157.67 1461.5,-147.67 1458,-157.67 1465,-157.67"/>
</g>
<!-- 46 -->
<g id="node23" class="node">
<title>46</title>
<polygon fill="#fefaf7" stroke="black" points="1919,-155 1572,-155 1572,-72 1919,-72 1919,-155"/>
<text text-anchor="middle" x="1745.5" y="-139.8" font-family="Times,serif" font-size="14.00">graphDepth &lt;= 9.0</text>
<text text-anchor="middle" x="1745.5" y="-124.8" font-family="Times,serif" font-size="14.00">gini = 0.832</text>
<text text-anchor="middle" x="1745.5" y="-109.8" font-family="Times,serif" font-size="14.00">samples = 25048</text>
<text text-anchor="middle" x="1745.5" y="-94.8" font-family="Times,serif" font-size="14.00">value = [4940, 4060, 4096, 3928, 3928, 4096]</text>
<text text-anchor="middle" x="1745.5" y="-79.8" font-family="Times,serif" font-size="14.00">class = mean</text>
</g>
<!-- 44&#45;&gt;46 -->
<g id="edge22" class="edge">
<title>44&#45;&gt;46</title>
<path fill="none" stroke="black" d="M1560.03,-190.91C1585.14,-180.56 1612.26,-169.39 1637.81,-158.87"/>
<polygon fill="black" stroke="black" points="1639.23,-162.07 1647.14,-155.02 1636.56,-155.59 1639.23,-162.07"/>
</g>
<!-- 47 -->
<g id="node24" class="node">
<title>47</title>
<polygon fill="#c0c0c0" stroke="black" points="1736.5,-36 1682.5,-36 1682.5,0 1736.5,0 1736.5,-36"/>
<text text-anchor="middle" x="1709.5" y="-14.3" font-family="Times,serif" font-size="14.00">(...)</text>
</g>
<!-- 46&#45;&gt;47 -->
<g id="edge23" class="edge">
<title>46&#45;&gt;47</title>
<path fill="none" stroke="black" d="M1729.81,-71.76C1726.46,-63.04 1722.99,-54.04 1719.89,-45.99"/>
<polygon fill="black" stroke="black" points="1723.06,-44.48 1716.2,-36.41 1716.53,-46.99 1723.06,-44.48"/>
</g>
<!-- 188 -->
<g id="node25" class="node">
<title>188</title>
<polygon fill="#c0c0c0" stroke="black" points="1808.5,-36 1754.5,-36 1754.5,0 1808.5,0 1808.5,-36"/>
<text text-anchor="middle" x="1781.5" y="-14.3" font-family="Times,serif" font-size="14.00">(...)</text>
</g>
<!-- 46&#45;&gt;188 -->
<g id="edge24" class="edge">
<title>46&#45;&gt;188</title>
<path fill="none" stroke="black" d="M1761.19,-71.76C1764.54,-63.04 1768.01,-54.04 1771.11,-45.99"/>
<polygon fill="black" stroke="black" points="1774.47,-46.99 1774.8,-36.41 1767.94,-44.48 1774.47,-46.99"/>
</g>
</g>
</svg>
