<?xml version="1.0" encoding="UTF-8" standalone="no"?>
<!DOCTYPE svg PUBLIC "-//W3C//DTD SVG 1.1//EN"
 "http://www.w3.org/Graphics/SVG/1.1/DTD/svg11.dtd">
<!-- Generated by graphviz version 2.43.0 (0)
 -->
<!-- Title: Tree Pages: 1 -->
<svg width="2776pt" height="520pt"
 viewBox="0.00 0.00 2776.00 520.00" xmlns="http://www.w3.org/2000/svg" xmlns:xlink="http://www.w3.org/1999/xlink">
<g id="graph0" class="graph" transform="scale(1 1) rotate(0) translate(4 516)">
<title>Tree</title>
<polygon fill="white" stroke="transparent" points="-4,4 -4,-516 2772,-516 2772,4 -4,4"/>
<!-- 0 -->
<g id="node1" class="node">
<title>0</title>
<polygon fill="#fefffd" stroke="black" points="1506,-512 1123,-512 1123,-429 1506,-429 1506,-512"/>
<text text-anchor="middle" x="1314.5" y="-496.8" font-family="Times,serif" font-size="14.00">graphSize &lt;= 22.5</text>
<text text-anchor="middle" x="1314.5" y="-481.8" font-family="Times,serif" font-size="14.00">gini = 0.833</text>
<text text-anchor="middle" x="1314.5" y="-466.8" font-family="Times,serif" font-size="14.00">samples = 25680</text>
<text text-anchor="middle" x="1314.5" y="-451.8" font-family="Times,serif" font-size="14.00">value = [5088, 5328, 964, 2804, 2736, 3672, 5088]</text>
<text text-anchor="middle" x="1314.5" y="-436.8" font-family="Times,serif" font-size="14.00">class = random</text>
</g>
<!-- 1 -->
<g id="node2" class="node">
<title>1</title>
<polygon fill="#f9fdee" stroke="black" points="1156.5,-393 800.5,-393 800.5,-310 1156.5,-310 1156.5,-393"/>
<text text-anchor="middle" x="978.5" y="-377.8" font-family="Times,serif" font-size="14.00">nbproc &lt;= 4.5</text>
<text text-anchor="middle" x="978.5" y="-362.8" font-family="Times,serif" font-size="14.00">gini = 0.829</text>
<text text-anchor="middle" x="978.5" y="-347.8" font-family="Times,serif" font-size="14.00">samples = 6420</text>
<text text-anchor="middle" x="978.5" y="-332.8" font-family="Times,serif" font-size="14.00">value = [1148, 1608, 240, 880, 624, 772, 1148]</text>
<text text-anchor="middle" x="978.5" y="-317.8" font-family="Times,serif" font-size="14.00">class = random</text>
</g>
<!-- 0&#45;&gt;1 -->
<g id="edge1" class="edge">
<title>0&#45;&gt;1</title>
<path fill="none" stroke="black" d="M1197.93,-428.91C1167.69,-418.38 1135,-407 1104.32,-396.31"/>
<polygon fill="black" stroke="black" points="1105.46,-393 1094.87,-393.02 1103.16,-399.61 1105.46,-393"/>
<text text-anchor="middle" x="1105.75" y="-411.83" font-family="Times,serif" font-size="14.00">True</text>
</g>
<!-- 102 -->
<g id="node17" class="node">
<title>102</title>
<polygon fill="#ffffff" stroke="black" points="1864,-393 1481,-393 1481,-310 1864,-310 1864,-393"/>
<text text-anchor="middle" x="1672.5" y="-377.8" font-family="Times,serif" font-size="14.00">graphDepth &lt;= 9.0</text>
<text text-anchor="middle" x="1672.5" y="-362.8" font-family="Times,serif" font-size="14.00">gini = 0.833</text>
<text text-anchor="middle" x="1672.5" y="-347.8" font-family="Times,serif" font-size="14.00">samples = 19260</text>
<text text-anchor="middle" x="1672.5" y="-332.8" font-family="Times,serif" font-size="14.00">value = [3940, 3720, 724, 1924, 2112, 2900, 3940]</text>
<text text-anchor="middle" x="1672.5" y="-317.8" font-family="Times,serif" font-size="14.00">class = rku</text>
</g>
<!-- 0&#45;&gt;102 -->
<g id="edge16" class="edge">
<title>0&#45;&gt;102</title>
<path fill="none" stroke="black" d="M1438.46,-428.99C1470.82,-418.41 1505.84,-406.97 1538.69,-396.23"/>
<polygon fill="black" stroke="black" points="1539.93,-399.51 1548.35,-393.07 1537.76,-392.85 1539.93,-399.51"/>
<text text-anchor="middle" x="1537.04" y="-411.67" font-family="Times,serif" font-size="14.00">False</text>
</g>
<!-- 2 -->
<g id="node3" class="node">
<title>2</title>
<polygon fill="#ffffff" stroke="black" points="658,-274 329,-274 329,-191 658,-191 658,-274"/>
<text text-anchor="middle" x="493.5" y="-258.8" font-family="Times,serif" font-size="14.00">graphDepth &lt;= 3.5</text>
<text text-anchor="middle" x="493.5" y="-243.8" font-family="Times,serif" font-size="14.00">gini = 0.838</text>
<text text-anchor="middle" x="493.5" y="-228.8" font-family="Times,serif" font-size="14.00">samples = 3800</text>
<text text-anchor="middle" x="493.5" y="-213.8" font-family="Times,serif" font-size="14.00">value = [740, 696, 152, 560, 384, 528, 740]</text>
<text text-anchor="middle" x="493.5" y="-198.8" font-family="Times,serif" font-size="14.00">class = rku</text>
</g>
<!-- 1&#45;&gt;2 -->
<g id="edge2" class="edge">
<title>1&#45;&gt;2</title>
<path fill="none" stroke="black" d="M810.57,-309.99C764.45,-298.86 714.34,-286.78 667.87,-275.56"/>
<polygon fill="black" stroke="black" points="668.55,-272.13 658.01,-273.19 666.91,-278.93 668.55,-272.13"/>
</g>
<!-- 59 -->
<g id="node10" class="node">
<title>59</title>
<polygon fill="#eff9d2" stroke="black" points="1138.5,-274 818.5,-274 818.5,-191 1138.5,-191 1138.5,-274"/>
<text text-anchor="middle" x="978.5" y="-258.8" font-family="Times,serif" font-size="14.00">graphDepth &lt;= 3.5</text>
<text text-anchor="middle" x="978.5" y="-243.8" font-family="Times,serif" font-size="14.00">gini = 0.797</text>
<text text-anchor="middle" x="978.5" y="-228.8" font-family="Times,serif" font-size="14.00">samples = 2620</text>
<text text-anchor="middle" x="978.5" y="-213.8" font-family="Times,serif" font-size="14.00">value = [408, 912, 88, 320, 240, 244, 408]</text>
<text text-anchor="middle" x="978.5" y="-198.8" font-family="Times,serif" font-size="14.00">class = random</text>
</g>
<!-- 1&#45;&gt;59 -->
<g id="edge9" class="edge">
<title>1&#45;&gt;59</title>
<path fill="none" stroke="black" d="M978.5,-309.91C978.5,-301.65 978.5,-292.86 978.5,-284.3"/>
<polygon fill="black" stroke="black" points="982,-284.02 978.5,-274.02 975,-284.02 982,-284.02"/>
</g>
<!-- 3 -->
<g id="node4" class="node">
<title>3</title>
<polygon fill="#f1fada" stroke="black" points="311,-155 0,-155 0,-72 311,-72 311,-155"/>
<text text-anchor="middle" x="155.5" y="-139.8" font-family="Times,serif" font-size="14.00">CCR &lt;= 0.55</text>
<text text-anchor="middle" x="155.5" y="-124.8" font-family="Times,serif" font-size="14.00">gini = 0.797</text>
<text text-anchor="middle" x="155.5" y="-109.8" font-family="Times,serif" font-size="14.00">samples = 888</text>
<text text-anchor="middle" x="155.5" y="-94.8" font-family="Times,serif" font-size="14.00">value = [148, 288, 44, 104, 144, 12, 148]</text>
<text text-anchor="middle" x="155.5" y="-79.8" font-family="Times,serif" font-size="14.00">class = random</text>
</g>
<!-- 2&#45;&gt;3 -->
<g id="edge3" class="edge">
<title>2&#45;&gt;3</title>
<path fill="none" stroke="black" d="M376.23,-190.91C345.82,-180.38 312.94,-169 282.07,-158.31"/>
<polygon fill="black" stroke="black" points="283.15,-154.98 272.56,-155.02 280.87,-161.6 283.15,-154.98"/>
</g>
<!-- 28 -->
<g id="node7" class="node">
<title>28</title>
<polygon fill="#ffffff" stroke="black" points="658,-155 329,-155 329,-72 658,-72 658,-155"/>
<text text-anchor="middle" x="493.5" y="-139.8" font-family="Times,serif" font-size="14.00">sdComp &lt;= 0.2</text>
<text text-anchor="middle" x="493.5" y="-124.8" font-family="Times,serif" font-size="14.00">gini = 0.834</text>
<text text-anchor="middle" x="493.5" y="-109.8" font-family="Times,serif" font-size="14.00">samples = 2912</text>
<text text-anchor="middle" x="493.5" y="-94.8" font-family="Times,serif" font-size="14.00">value = [592, 408, 108, 456, 240, 516, 592]</text>
<text text-anchor="middle" x="493.5" y="-79.8" font-family="Times,serif" font-size="14.00">class = rku</text>
</g>
<!-- 2&#45;&gt;28 -->
<g id="edge6" class="edge">
<title>2&#45;&gt;28</title>
<path fill="none" stroke="black" d="M493.5,-190.91C493.5,-182.65 493.5,-173.86 493.5,-165.3"/>
<polygon fill="black" stroke="black" points="497,-165.02 493.5,-155.02 490,-165.02 497,-165.02"/>
</g>
<!-- 4 -->
<g id="node5" class="node">
<title>4</title>
<polygon fill="#c0c0c0" stroke="black" points="146.5,-36 92.5,-36 92.5,0 146.5,0 146.5,-36"/>
<text text-anchor="middle" x="119.5" y="-14.3" font-family="Times,serif" font-size="14.00">(...)</text>
</g>
<!-- 3&#45;&gt;4 -->
<g id="edge4" class="edge">
<title>3&#45;&gt;4</title>
<path fill="none" stroke="black" d="M139.81,-71.76C136.46,-63.04 132.99,-54.04 129.89,-45.99"/>
<polygon fill="black" stroke="black" points="133.06,-44.48 126.2,-36.41 126.53,-46.99 133.06,-44.48"/>
</g>
<!-- 7 -->
<g id="node6" class="node">
<title>7</title>
<polygon fill="#c0c0c0" stroke="black" points="218.5,-36 164.5,-36 164.5,0 218.5,0 218.5,-36"/>
<text text-anchor="middle" x="191.5" y="-14.3" font-family="Times,serif" font-size="14.00">(...)</text>
</g>
<!-- 3&#45;&gt;7 -->
<g id="edge5" class="edge">
<title>3&#45;&gt;7</title>
<path fill="none" stroke="black" d="M171.19,-71.76C174.54,-63.04 178.01,-54.04 181.11,-45.99"/>
<polygon fill="black" stroke="black" points="184.47,-46.99 184.8,-36.41 177.94,-44.48 184.47,-46.99"/>
</g>
<!-- 29 -->
<g id="node8" class="node">
<title>29</title>
<polygon fill="#c0c0c0" stroke="black" points="484.5,-36 430.5,-36 430.5,0 484.5,0 484.5,-36"/>
<text text-anchor="middle" x="457.5" y="-14.3" font-family="Times,serif" font-size="14.00">(...)</text>
</g>
<!-- 28&#45;&gt;29 -->
<g id="edge7" class="edge">
<title>28&#45;&gt;29</title>
<path fill="none" stroke="black" d="M477.81,-71.76C474.46,-63.04 470.99,-54.04 467.89,-45.99"/>
<polygon fill="black" stroke="black" points="471.06,-44.48 464.2,-36.41 464.53,-46.99 471.06,-44.48"/>
</g>
<!-- 38 -->
<g id="node9" class="node">
<title>38</title>
<polygon fill="#c0c0c0" stroke="black" points="556.5,-36 502.5,-36 502.5,0 556.5,0 556.5,-36"/>
<text text-anchor="middle" x="529.5" y="-14.3" font-family="Times,serif" font-size="14.00">(...)</text>
</g>
<!-- 28&#45;&gt;38 -->
<g id="edge8" class="edge">
<title>28&#45;&gt;38</title>
<path fill="none" stroke="black" d="M509.19,-71.76C512.54,-63.04 516.01,-54.04 519.11,-45.99"/>
<polygon fill="black" stroke="black" points="522.47,-46.99 522.8,-36.41 515.94,-44.48 522.47,-46.99"/>
</g>
<!-- 60 -->
<g id="node11" class="node">
<title>60</title>
<polygon fill="#ffffff" stroke="black" points="996.5,-155 676.5,-155 676.5,-72 996.5,-72 996.5,-155"/>
<text text-anchor="middle" x="836.5" y="-139.8" font-family="Times,serif" font-size="14.00">sdComm &lt;= 2.0</text>
<text text-anchor="middle" x="836.5" y="-124.8" font-family="Times,serif" font-size="14.00">gini = 0.834</text>
<text text-anchor="middle" x="836.5" y="-109.8" font-family="Times,serif" font-size="14.00">samples = 1052</text>
<text text-anchor="middle" x="836.5" y="-94.8" font-family="Times,serif" font-size="14.00">value = [224, 120, 40, 160, 168, 116, 224]</text>
<text text-anchor="middle" x="836.5" y="-79.8" font-family="Times,serif" font-size="14.00">class = rku</text>
</g>
<!-- 59&#45;&gt;60 -->
<g id="edge10" class="edge">
<title>59&#45;&gt;60</title>
<path fill="none" stroke="black" d="M929.23,-190.91C917.78,-181.47 905.49,-171.34 893.72,-161.65"/>
<polygon fill="black" stroke="black" points="895.62,-158.68 885.68,-155.02 891.17,-164.08 895.62,-158.68"/>
</g>
<!-- 79 -->
<g id="node14" class="node">
<title>79</title>
<polygon fill="#dff4a8" stroke="black" points="1326,-155 1015,-155 1015,-72 1326,-72 1326,-155"/>
<text text-anchor="middle" x="1170.5" y="-139.8" font-family="Times,serif" font-size="14.00">sdComp &lt;= 6.5</text>
<text text-anchor="middle" x="1170.5" y="-124.8" font-family="Times,serif" font-size="14.00">gini = 0.697</text>
<text text-anchor="middle" x="1170.5" y="-109.8" font-family="Times,serif" font-size="14.00">samples = 1568</text>
<text text-anchor="middle" x="1170.5" y="-94.8" font-family="Times,serif" font-size="14.00">value = [184, 792, 48, 160, 72, 128, 184]</text>
<text text-anchor="middle" x="1170.5" y="-79.8" font-family="Times,serif" font-size="14.00">class = random</text>
</g>
<!-- 59&#45;&gt;79 -->
<g id="edge13" class="edge">
<title>59&#45;&gt;79</title>
<path fill="none" stroke="black" d="M1045.11,-190.91C1061.35,-181.02 1078.82,-170.37 1095.42,-160.25"/>
<polygon fill="black" stroke="black" points="1097.29,-163.21 1104,-155.02 1093.64,-157.24 1097.29,-163.21"/>
</g>
<!-- 61 -->
<g id="node12" class="node">
<title>61</title>
<polygon fill="#c0c0c0" stroke="black" points="827.5,-36 773.5,-36 773.5,0 827.5,0 827.5,-36"/>
<text text-anchor="middle" x="800.5" y="-14.3" font-family="Times,serif" font-size="14.00">(...)</text>
</g>
<!-- 60&#45;&gt;61 -->
<g id="edge11" class="edge">
<title>60&#45;&gt;61</title>
<path fill="none" stroke="black" d="M820.81,-71.76C817.46,-63.04 813.99,-54.04 810.89,-45.99"/>
<polygon fill="black" stroke="black" points="814.06,-44.48 807.2,-36.41 807.53,-46.99 814.06,-44.48"/>
</g>
<!-- 68 -->
<g id="node13" class="node">
<title>68</title>
<polygon fill="#c0c0c0" stroke="black" points="899.5,-36 845.5,-36 845.5,0 899.5,0 899.5,-36"/>
<text text-anchor="middle" x="872.5" y="-14.3" font-family="Times,serif" font-size="14.00">(...)</text>
</g>
<!-- 60&#45;&gt;68 -->
<g id="edge12" class="edge">
<title>60&#45;&gt;68</title>
<path fill="none" stroke="black" d="M852.19,-71.76C855.54,-63.04 859.01,-54.04 862.11,-45.99"/>
<polygon fill="black" stroke="black" points="865.47,-46.99 865.8,-36.41 858.94,-44.48 865.47,-46.99"/>
</g>
<!-- 80 -->
<g id="node15" class="node">
<title>80</title>
<polygon fill="#c0c0c0" stroke="black" points="1161.5,-36 1107.5,-36 1107.5,0 1161.5,0 1161.5,-36"/>
<text text-anchor="middle" x="1134.5" y="-14.3" font-family="Times,serif" font-size="14.00">(...)</text>
</g>
<!-- 79&#45;&gt;80 -->
<g id="edge14" class="edge">
<title>79&#45;&gt;80</title>
<path fill="none" stroke="black" d="M1154.81,-71.76C1151.46,-63.04 1147.99,-54.04 1144.89,-45.99"/>
<polygon fill="black" stroke="black" points="1148.06,-44.48 1141.2,-36.41 1141.53,-46.99 1148.06,-44.48"/>
</g>
<!-- 97 -->
<g id="node16" class="node">
<title>97</title>
<polygon fill="#c0c0c0" stroke="black" points="1233.5,-36 1179.5,-36 1179.5,0 1233.5,0 1233.5,-36"/>
<text text-anchor="middle" x="1206.5" y="-14.3" font-family="Times,serif" font-size="14.00">(...)</text>
</g>
<!-- 79&#45;&gt;97 -->
<g id="edge15" class="edge">
<title>79&#45;&gt;97</title>
<path fill="none" stroke="black" d="M1186.19,-71.76C1189.54,-63.04 1193.01,-54.04 1196.11,-45.99"/>
<polygon fill="black" stroke="black" points="1199.47,-46.99 1199.8,-36.41 1192.94,-44.48 1199.47,-46.99"/>
</g>
<!-- 103 -->
<g id="node18" class="node">
<title>103</title>
<polygon fill="#ffffff" stroke="black" points="1846,-274 1499,-274 1499,-191 1846,-191 1846,-274"/>
<text text-anchor="middle" x="1672.5" y="-258.8" font-family="Times,serif" font-size="14.00">nbproc &lt;= 4.5</text>
<text text-anchor="middle" x="1672.5" y="-243.8" font-family="Times,serif" font-size="14.00">gini = 0.829</text>
<text text-anchor="middle" x="1672.5" y="-228.8" font-family="Times,serif" font-size="14.00">samples = 4424</text>
<text text-anchor="middle" x="1672.5" y="-213.8" font-family="Times,serif" font-size="14.00">value = [1008, 600, 236, 400, 432, 740, 1008]</text>
<text text-anchor="middle" x="1672.5" y="-198.8" font-family="Times,serif" font-size="14.00">class = rku</text>
</g>
<!-- 102&#45;&gt;103 -->
<g id="edge17" class="edge">
<title>102&#45;&gt;103</title>
<path fill="none" stroke="black" d="M1672.5,-309.91C1672.5,-301.65 1672.5,-292.86 1672.5,-284.3"/>
<polygon fill="black" stroke="black" points="1676,-284.02 1672.5,-274.02 1669,-284.02 1676,-284.02"/>
</g>
<!-- 176 -->
<g id="node25" class="node">
<title>176</title>
<polygon fill="#fefffc" stroke="black" points="2412,-274 2029,-274 2029,-191 2412,-191 2412,-274"/>
<text text-anchor="middle" x="2220.5" y="-258.8" font-family="Times,serif" font-size="14.00">graphSize &lt;= 75.0</text>
<text text-anchor="middle" x="2220.5" y="-243.8" font-family="Times,serif" font-size="14.00">gini = 0.832</text>
<text text-anchor="middle" x="2220.5" y="-228.8" font-family="Times,serif" font-size="14.00">samples = 14836</text>
<text text-anchor="middle" x="2220.5" y="-213.8" font-family="Times,serif" font-size="14.00">value = [2932, 3120, 488, 1524, 1680, 2160, 2932]</text>
<text text-anchor="middle" x="2220.5" y="-198.8" font-family="Times,serif" font-size="14.00">class = random</text>
</g>
<!-- 102&#45;&gt;176 -->
<g id="edge24" class="edge">
<title>102&#45;&gt;176</title>
<path fill="none" stroke="black" d="M1862.24,-309.99C1913.37,-299.07 1968.84,-287.23 2020.52,-276.2"/>
<polygon fill="black" stroke="black" points="2021.41,-279.59 2030.46,-274.07 2019.95,-272.74 2021.41,-279.59"/>
</g>
<!-- 104 -->
<g id="node19" class="node">
<title>104</title>
<polygon fill="#ffffff" stroke="black" points="1673,-155 1344,-155 1344,-72 1673,-72 1673,-155"/>
<text text-anchor="middle" x="1508.5" y="-139.8" font-family="Times,serif" font-size="14.00">sdComp &lt;= 2.0</text>
<text text-anchor="middle" x="1508.5" y="-124.8" font-family="Times,serif" font-size="14.00">gini = 0.823</text>
<text text-anchor="middle" x="1508.5" y="-109.8" font-family="Times,serif" font-size="14.00">samples = 2152</text>
<text text-anchor="middle" x="1508.5" y="-94.8" font-family="Times,serif" font-size="14.00">value = [508, 168, 124, 168, 288, 388, 508]</text>
<text text-anchor="middle" x="1508.5" y="-79.8" font-family="Times,serif" font-size="14.00">class = rku</text>
</g>
<!-- 103&#45;&gt;104 -->
<g id="edge18" class="edge">
<title>103&#45;&gt;104</title>
<path fill="none" stroke="black" d="M1615.6,-190.91C1602.12,-181.29 1587.63,-170.95 1573.81,-161.09"/>
<polygon fill="black" stroke="black" points="1575.47,-157.98 1565.3,-155.02 1571.41,-163.68 1575.47,-157.98"/>
</g>
<!-- 143 -->
<g id="node22" class="node">
<title>143</title>
<polygon fill="#ffffff" stroke="black" points="2020,-155 1691,-155 1691,-72 2020,-72 2020,-155"/>
<text text-anchor="middle" x="1855.5" y="-139.8" font-family="Times,serif" font-size="14.00">graphSize &lt;= 40.0</text>
<text text-anchor="middle" x="1855.5" y="-124.8" font-family="Times,serif" font-size="14.00">gini = 0.826</text>
<text text-anchor="middle" x="1855.5" y="-109.8" font-family="Times,serif" font-size="14.00">samples = 2272</text>
<text text-anchor="middle" x="1855.5" y="-94.8" font-family="Times,serif" font-size="14.00">value = [500, 432, 112, 232, 144, 352, 500]</text>
<text text-anchor="middle" x="1855.5" y="-79.8" font-family="Times,serif" font-size="14.00">class = rku</text>
</g>
<!-- 103&#45;&gt;143 -->
<g id="edge21" class="edge">
<title>103&#45;&gt;143</title>
<path fill="none" stroke="black" d="M1735.99,-190.91C1751.32,-181.11 1767.81,-170.56 1783.5,-160.53"/>
<polygon fill="black" stroke="black" points="1785.58,-163.36 1792.12,-155.02 1781.81,-157.46 1785.58,-163.36"/>
</g>
<!-- 105 -->
<g id="node20" class="node">
<title>105</title>
<polygon fill="#c0c0c0" stroke="black" points="1499.5,-36 1445.5,-36 1445.5,0 1499.5,0 1499.5,-36"/>
<text text-anchor="middle" x="1472.5" y="-14.3" font-family="Times,serif" font-size="14.00">(...)</text>
</g>
<!-- 104&#45;&gt;105 -->
<g id="edge19" class="edge">
<title>104&#45;&gt;105</title>
<path fill="none" stroke="black" d="M1492.81,-71.76C1489.46,-63.04 1485.99,-54.04 1482.89,-45.99"/>
<polygon fill="black" stroke="black" points="1486.06,-44.48 1479.2,-36.41 1479.53,-46.99 1486.06,-44.48"/>
</g>
<!-- 120 -->
<g id="node21" class="node">
<title>120</title>
<polygon fill="#c0c0c0" stroke="black" points="1571.5,-36 1517.5,-36 1517.5,0 1571.5,0 1571.5,-36"/>
<text text-anchor="middle" x="1544.5" y="-14.3" font-family="Times,serif" font-size="14.00">(...)</text>
</g>
<!-- 104&#45;&gt;120 -->
<g id="edge20" class="edge">
<title>104&#45;&gt;120</title>
<path fill="none" stroke="black" d="M1524.19,-71.76C1527.54,-63.04 1531.01,-54.04 1534.11,-45.99"/>
<polygon fill="black" stroke="black" points="1537.47,-46.99 1537.8,-36.41 1530.94,-44.48 1537.47,-46.99"/>
</g>
<!-- 144 -->
<g id="node23" class="node">
<title>144</title>
<polygon fill="#c0c0c0" stroke="black" points="1846.5,-36 1792.5,-36 1792.5,0 1846.5,0 1846.5,-36"/>
<text text-anchor="middle" x="1819.5" y="-14.3" font-family="Times,serif" font-size="14.00">(...)</text>
</g>
<!-- 143&#45;&gt;144 -->
<g id="edge22" class="edge">
<title>143&#45;&gt;144</title>
<path fill="none" stroke="black" d="M1839.81,-71.76C1836.46,-63.04 1832.99,-54.04 1829.89,-45.99"/>
<polygon fill="black" stroke="black" points="1833.06,-44.48 1826.2,-36.41 1826.53,-46.99 1833.06,-44.48"/>
</g>
<!-- 161 -->
<g id="node24" class="node">
<title>161</title>
<polygon fill="#c0c0c0" stroke="black" points="1918.5,-36 1864.5,-36 1864.5,0 1918.5,0 1918.5,-36"/>
<text text-anchor="middle" x="1891.5" y="-14.3" font-family="Times,serif" font-size="14.00">(...)</text>
</g>
<!-- 143&#45;&gt;161 -->
<g id="edge23" class="edge">
<title>143&#45;&gt;161</title>
<path fill="none" stroke="black" d="M1871.19,-71.76C1874.54,-63.04 1878.01,-54.04 1881.11,-45.99"/>
<polygon fill="black" stroke="black" points="1884.47,-46.99 1884.8,-36.41 1877.94,-44.48 1884.47,-46.99"/>
</g>
<!-- 177 -->
<g id="node26" class="node">
<title>177</title>
<polygon fill="#fcfef7" stroke="black" points="2403,-155 2038,-155 2038,-72 2403,-72 2403,-155"/>
<text text-anchor="middle" x="2220.5" y="-139.8" font-family="Times,serif" font-size="14.00">sdComm &lt;= 6.5</text>
<text text-anchor="middle" x="2220.5" y="-124.8" font-family="Times,serif" font-size="14.00">gini = 0.825</text>
<text text-anchor="middle" x="2220.5" y="-109.8" font-family="Times,serif" font-size="14.00">samples = 9576</text>
<text text-anchor="middle" x="2220.5" y="-94.8" font-family="Times,serif" font-size="14.00">value = [1904, 2232, 284, 956, 864, 1432, 1904]</text>
<text text-anchor="middle" x="2220.5" y="-79.8" font-family="Times,serif" font-size="14.00">class = random</text>
</g>
<!-- 176&#45;&gt;177 -->
<g id="edge25" class="edge">
<title>176&#45;&gt;177</title>
<path fill="none" stroke="black" d="M2220.5,-190.91C2220.5,-182.65 2220.5,-173.86 2220.5,-165.3"/>
<polygon fill="black" stroke="black" points="2224,-165.02 2220.5,-155.02 2217,-165.02 2224,-165.02"/>
</g>
<!-- 258 -->
<g id="node29" class="node">
<title>258</title>
<polygon fill="#ffffff" stroke="black" points="2768,-155 2421,-155 2421,-72 2768,-72 2768,-155"/>
<text text-anchor="middle" x="2594.5" y="-139.8" font-family="Times,serif" font-size="14.00">graphDepth &lt;= 25.5</text>
<text text-anchor="middle" x="2594.5" y="-124.8" font-family="Times,serif" font-size="14.00">gini = 0.839</text>
<text text-anchor="middle" x="2594.5" y="-109.8" font-family="Times,serif" font-size="14.00">samples = 5260</text>
<text text-anchor="middle" x="2594.5" y="-94.8" font-family="Times,serif" font-size="14.00">value = [1028, 888, 204, 568, 816, 728, 1028]</text>
<text text-anchor="middle" x="2594.5" y="-79.8" font-family="Times,serif" font-size="14.00">class = rku</text>
</g>
<!-- 176&#45;&gt;258 -->
<g id="edge28" class="edge">
<title>176&#45;&gt;258</title>
<path fill="none" stroke="black" d="M2350,-190.99C2383.95,-180.37 2420.71,-168.87 2455.15,-158.09"/>
<polygon fill="black" stroke="black" points="2456.3,-161.4 2464.8,-155.07 2454.21,-154.72 2456.3,-161.4"/>
</g>
<!-- 178 -->
<g id="node27" class="node">
<title>178</title>
<polygon fill="#c0c0c0" stroke="black" points="2211.5,-36 2157.5,-36 2157.5,0 2211.5,0 2211.5,-36"/>
<text text-anchor="middle" x="2184.5" y="-14.3" font-family="Times,serif" font-size="14.00">(...)</text>
</g>
<!-- 177&#45;&gt;178 -->
<g id="edge26" class="edge">
<title>177&#45;&gt;178</title>
<path fill="none" stroke="black" d="M2204.81,-71.76C2201.46,-63.04 2197.99,-54.04 2194.89,-45.99"/>
<polygon fill="black" stroke="black" points="2198.06,-44.48 2191.2,-36.41 2191.53,-46.99 2198.06,-44.48"/>
</g>
<!-- 235 -->
<g id="node28" class="node">
<title>235</title>
<polygon fill="#c0c0c0" stroke="black" points="2283.5,-36 2229.5,-36 2229.5,0 2283.5,0 2283.5,-36"/>
<text text-anchor="middle" x="2256.5" y="-14.3" font-family="Times,serif" font-size="14.00">(...)</text>
</g>
<!-- 177&#45;&gt;235 -->
<g id="edge27" class="edge">
<title>177&#45;&gt;235</title>
<path fill="none" stroke="black" d="M2236.19,-71.76C2239.54,-63.04 2243.01,-54.04 2246.11,-45.99"/>
<polygon fill="black" stroke="black" points="2249.47,-46.99 2249.8,-36.41 2242.94,-44.48 2249.47,-46.99"/>
</g>
<!-- 259 -->
<g id="node30" class="node">
<title>259</title>
<polygon fill="#c0c0c0" stroke="black" points="2585.5,-36 2531.5,-36 2531.5,0 2585.5,0 2585.5,-36"/>
<text text-anchor="middle" x="2558.5" y="-14.3" font-family="Times,serif" font-size="14.00">(...)</text>
</g>
<!-- 258&#45;&gt;259 -->
<g id="edge29" class="edge">
<title>258&#45;&gt;259</title>
<path fill="none" stroke="black" d="M2578.81,-71.76C2575.46,-63.04 2571.99,-54.04 2568.89,-45.99"/>
<polygon fill="black" stroke="black" points="2572.06,-44.48 2565.2,-36.41 2565.53,-46.99 2572.06,-44.48"/>
</g>
<!-- 292 -->
<g id="node31" class="node">
<title>292</title>
<polygon fill="#c0c0c0" stroke="black" points="2657.5,-36 2603.5,-36 2603.5,0 2657.5,0 2657.5,-36"/>
<text text-anchor="middle" x="2630.5" y="-14.3" font-family="Times,serif" font-size="14.00">(...)</text>
</g>
<!-- 258&#45;&gt;292 -->
<g id="edge30" class="edge">
<title>258&#45;&gt;292</title>
<path fill="none" stroke="black" d="M2610.19,-71.76C2613.54,-63.04 2617.01,-54.04 2620.11,-45.99"/>
<polygon fill="black" stroke="black" points="2623.47,-46.99 2623.8,-36.41 2616.94,-44.48 2623.47,-46.99"/>
</g>
</g>
</svg>
