<?xml version="1.0" encoding="UTF-8" standalone="no"?>
<!DOCTYPE svg PUBLIC "-//W3C//DTD SVG 1.1//EN"
 "http://www.w3.org/Graphics/SVG/1.1/DTD/svg11.dtd">
<!-- Generated by graphviz version 2.43.0 (0)
 -->
<!-- Title: Tree Pages: 1 -->
<svg width="1397pt" height="520pt"
 viewBox="0.00 0.00 1397.00 520.00" xmlns="http://www.w3.org/2000/svg" xmlns:xlink="http://www.w3.org/1999/xlink">
<g id="graph0" class="graph" transform="scale(1 1) rotate(0) translate(4 516)">
<title>Tree</title>
<polygon fill="white" stroke="transparent" points="-4,4 -4,-516 1393,-516 1393,4 -4,4"/>
<!-- 0 -->
<g id="node1" class="node">
<title>0</title>
<polygon fill="#f4f9fe" stroke="black" points="793,-512 608,-512 608,-429 793,-429 793,-512"/>
<text text-anchor="middle" x="700.5" y="-496.8" font-family="Times,serif" font-size="14.00">CCR &lt;= 5.5</text>
<text text-anchor="middle" x="700.5" y="-481.8" font-family="Times,serif" font-size="14.00">gini = 0.5</text>
<text text-anchor="middle" x="700.5" y="-466.8" font-family="Times,serif" font-size="14.00">samples = 30577</text>
<text text-anchor="middle" x="700.5" y="-451.8" font-family="Times,serif" font-size="14.00">value = [14844, 15733]</text>
<text text-anchor="middle" x="700.5" y="-436.8" font-family="Times,serif" font-size="14.00">class = True</text>
</g>
<!-- 1 -->
<g id="node2" class="node">
<title>1</title>
<polygon fill="#cbe5f8" stroke="black" points="617.5,-393 441.5,-393 441.5,-310 617.5,-310 617.5,-393"/>
<text text-anchor="middle" x="529.5" y="-377.8" font-family="Times,serif" font-size="14.00">graphSize &lt;= 40.0</text>
<text text-anchor="middle" x="529.5" y="-362.8" font-family="Times,serif" font-size="14.00">gini = 0.489</text>
<text text-anchor="middle" x="529.5" y="-347.8" font-family="Times,serif" font-size="14.00">samples = 19063</text>
<text text-anchor="middle" x="529.5" y="-332.8" font-family="Times,serif" font-size="14.00">value = [8092, 10971]</text>
<text text-anchor="middle" x="529.5" y="-317.8" font-family="Times,serif" font-size="14.00">class = True</text>
</g>
<!-- 0&#45;&gt;1 -->
<g id="edge1" class="edge">
<title>0&#45;&gt;1</title>
<path fill="none" stroke="black" d="M641.17,-428.91C626.98,-419.2 611.72,-408.76 597.19,-398.81"/>
<polygon fill="black" stroke="black" points="598.95,-395.78 588.72,-393.02 595,-401.56 598.95,-395.78"/>
<text text-anchor="middle" x="593.33" y="-413.89" font-family="Times,serif" font-size="14.00">True</text>
</g>
<!-- 514 -->
<g id="node17" class="node">
<title>514</title>
<polygon fill="#f7dac5" stroke="black" points="965,-393 798,-393 798,-310 965,-310 965,-393"/>
<text text-anchor="middle" x="881.5" y="-377.8" font-family="Times,serif" font-size="14.00">graphSize &lt;= 75.0</text>
<text text-anchor="middle" x="881.5" y="-362.8" font-family="Times,serif" font-size="14.00">gini = 0.485</text>
<text text-anchor="middle" x="881.5" y="-347.8" font-family="Times,serif" font-size="14.00">samples = 11514</text>
<text text-anchor="middle" x="881.5" y="-332.8" font-family="Times,serif" font-size="14.00">value = [6752, 4762]</text>
<text text-anchor="middle" x="881.5" y="-317.8" font-family="Times,serif" font-size="14.00">class = False</text>
</g>
<!-- 0&#45;&gt;514 -->
<g id="edge16" class="edge">
<title>0&#45;&gt;514</title>
<path fill="none" stroke="black" d="M763.3,-428.91C778.46,-419.11 794.77,-408.56 810.29,-398.53"/>
<polygon fill="black" stroke="black" points="812.32,-401.39 818.81,-393.02 808.52,-395.51 812.32,-401.39"/>
<text text-anchor="middle" x="813.56" y="-413.76" font-family="Times,serif" font-size="14.00">False</text>
</g>
<!-- 2 -->
<g id="node3" class="node">
<title>2</title>
<polygon fill="#e4f2fb" stroke="black" points="352,-274 185,-274 185,-191 352,-191 352,-274"/>
<text text-anchor="middle" x="268.5" y="-258.8" font-family="Times,serif" font-size="14.00">graphSize &lt;= 22.5</text>
<text text-anchor="middle" x="268.5" y="-243.8" font-family="Times,serif" font-size="14.00">gini = 0.497</text>
<text text-anchor="middle" x="268.5" y="-228.8" font-family="Times,serif" font-size="14.00">samples = 15225</text>
<text text-anchor="middle" x="268.5" y="-213.8" font-family="Times,serif" font-size="14.00">value = [7056, 8169]</text>
<text text-anchor="middle" x="268.5" y="-198.8" font-family="Times,serif" font-size="14.00">class = True</text>
</g>
<!-- 1&#45;&gt;2 -->
<g id="edge2" class="edge">
<title>1&#45;&gt;2</title>
<path fill="none" stroke="black" d="M441.14,-310.89C415.59,-299.43 387.62,-286.9 361.78,-275.31"/>
<polygon fill="black" stroke="black" points="362.92,-271.99 352.36,-271.09 360.05,-278.38 362.92,-271.99"/>
</g>
<!-- 273 -->
<g id="node10" class="node">
<title>273</title>
<polygon fill="#82c1ef" stroke="black" points="613,-274 446,-274 446,-191 613,-191 613,-274"/>
<text text-anchor="middle" x="529.5" y="-258.8" font-family="Times,serif" font-size="14.00">nbproc &lt;= 4.5</text>
<text text-anchor="middle" x="529.5" y="-243.8" font-family="Times,serif" font-size="14.00">gini = 0.394</text>
<text text-anchor="middle" x="529.5" y="-228.8" font-family="Times,serif" font-size="14.00">samples = 3838</text>
<text text-anchor="middle" x="529.5" y="-213.8" font-family="Times,serif" font-size="14.00">value = [1036, 2802]</text>
<text text-anchor="middle" x="529.5" y="-198.8" font-family="Times,serif" font-size="14.00">class = True</text>
</g>
<!-- 1&#45;&gt;273 -->
<g id="edge9" class="edge">
<title>1&#45;&gt;273</title>
<path fill="none" stroke="black" d="M529.5,-309.91C529.5,-301.65 529.5,-292.86 529.5,-284.3"/>
<polygon fill="black" stroke="black" points="533,-284.02 529.5,-274.02 526,-284.02 533,-284.02"/>
</g>
<!-- 3 -->
<g id="node4" class="node">
<title>3</title>
<polygon fill="#ebf5fc" stroke="black" points="167,-155 0,-155 0,-72 167,-72 167,-155"/>
<text text-anchor="middle" x="83.5" y="-139.8" font-family="Times,serif" font-size="14.00">graphDepth &lt;= 3.5</text>
<text text-anchor="middle" x="83.5" y="-124.8" font-family="Times,serif" font-size="14.00">gini = 0.499</text>
<text text-anchor="middle" x="83.5" y="-109.8" font-family="Times,serif" font-size="14.00">samples = 11893</text>
<text text-anchor="middle" x="83.5" y="-94.8" font-family="Times,serif" font-size="14.00">value = [5634, 6259]</text>
<text text-anchor="middle" x="83.5" y="-79.8" font-family="Times,serif" font-size="14.00">class = True</text>
</g>
<!-- 2&#45;&gt;3 -->
<g id="edge3" class="edge">
<title>2&#45;&gt;3</title>
<path fill="none" stroke="black" d="M204.32,-190.91C188.82,-181.11 172.15,-170.56 156.29,-160.53"/>
<polygon fill="black" stroke="black" points="157.89,-157.41 147.57,-155.02 154.15,-163.32 157.89,-157.41"/>
</g>
<!-- 142 -->
<g id="node7" class="node">
<title>142</title>
<polygon fill="#cce6f8" stroke="black" points="352,-155 185,-155 185,-72 352,-72 352,-155"/>
<text text-anchor="middle" x="268.5" y="-139.8" font-family="Times,serif" font-size="14.00">nbproc &lt;= 4.5</text>
<text text-anchor="middle" x="268.5" y="-124.8" font-family="Times,serif" font-size="14.00">gini = 0.489</text>
<text text-anchor="middle" x="268.5" y="-109.8" font-family="Times,serif" font-size="14.00">samples = 3332</text>
<text text-anchor="middle" x="268.5" y="-94.8" font-family="Times,serif" font-size="14.00">value = [1422, 1910]</text>
<text text-anchor="middle" x="268.5" y="-79.8" font-family="Times,serif" font-size="14.00">class = True</text>
</g>
<!-- 2&#45;&gt;142 -->
<g id="edge6" class="edge">
<title>2&#45;&gt;142</title>
<path fill="none" stroke="black" d="M268.5,-190.91C268.5,-182.65 268.5,-173.86 268.5,-165.3"/>
<polygon fill="black" stroke="black" points="272,-165.02 268.5,-155.02 265,-165.02 272,-165.02"/>
</g>
<!-- 4 -->
<g id="node5" class="node">
<title>4</title>
<polygon fill="#c0c0c0" stroke="black" points="74.5,-36 20.5,-36 20.5,0 74.5,0 74.5,-36"/>
<text text-anchor="middle" x="47.5" y="-14.3" font-family="Times,serif" font-size="14.00">(...)</text>
</g>
<!-- 3&#45;&gt;4 -->
<g id="edge4" class="edge">
<title>3&#45;&gt;4</title>
<path fill="none" stroke="black" d="M67.81,-71.76C64.46,-63.04 60.99,-54.04 57.89,-45.99"/>
<polygon fill="black" stroke="black" points="61.06,-44.48 54.2,-36.41 54.53,-46.99 61.06,-44.48"/>
</g>
<!-- 71 -->
<g id="node6" class="node">
<title>71</title>
<polygon fill="#c0c0c0" stroke="black" points="146.5,-36 92.5,-36 92.5,0 146.5,0 146.5,-36"/>
<text text-anchor="middle" x="119.5" y="-14.3" font-family="Times,serif" font-size="14.00">(...)</text>
</g>
<!-- 3&#45;&gt;71 -->
<g id="edge5" class="edge">
<title>3&#45;&gt;71</title>
<path fill="none" stroke="black" d="M99.19,-71.76C102.54,-63.04 106.01,-54.04 109.11,-45.99"/>
<polygon fill="black" stroke="black" points="112.47,-46.99 112.8,-36.41 105.94,-44.48 112.47,-46.99"/>
</g>
<!-- 143 -->
<g id="node8" class="node">
<title>143</title>
<polygon fill="#c0c0c0" stroke="black" points="257.5,-36 203.5,-36 203.5,0 257.5,0 257.5,-36"/>
<text text-anchor="middle" x="230.5" y="-14.3" font-family="Times,serif" font-size="14.00">(...)</text>
</g>
<!-- 142&#45;&gt;143 -->
<g id="edge7" class="edge">
<title>142&#45;&gt;143</title>
<path fill="none" stroke="black" d="M251.94,-71.76C248.36,-62.94 244.66,-53.84 241.36,-45.72"/>
<polygon fill="black" stroke="black" points="244.58,-44.35 237.57,-36.41 238.1,-46.99 244.58,-44.35"/>
</g>
<!-- 208 -->
<g id="node9" class="node">
<title>208</title>
<polygon fill="#c0c0c0" stroke="black" points="329.5,-36 275.5,-36 275.5,0 329.5,0 329.5,-36"/>
<text text-anchor="middle" x="302.5" y="-14.3" font-family="Times,serif" font-size="14.00">(...)</text>
</g>
<!-- 142&#45;&gt;208 -->
<g id="edge8" class="edge">
<title>142&#45;&gt;208</title>
<path fill="none" stroke="black" d="M283.31,-71.76C286.48,-63.04 289.76,-54.04 292.68,-45.99"/>
<polygon fill="black" stroke="black" points="296.04,-47 296.17,-36.41 289.46,-44.61 296.04,-47"/>
</g>
<!-- 274 -->
<g id="node11" class="node">
<title>274</title>
<polygon fill="#67b4eb" stroke="black" points="527.5,-155 369.5,-155 369.5,-72 527.5,-72 527.5,-155"/>
<text text-anchor="middle" x="448.5" y="-139.8" font-family="Times,serif" font-size="14.00">graphSize &lt;= 75.0</text>
<text text-anchor="middle" x="448.5" y="-124.8" font-family="Times,serif" font-size="14.00">gini = 0.304</text>
<text text-anchor="middle" x="448.5" y="-109.8" font-family="Times,serif" font-size="14.00">samples = 2010</text>
<text text-anchor="middle" x="448.5" y="-94.8" font-family="Times,serif" font-size="14.00">value = [376, 1634]</text>
<text text-anchor="middle" x="448.5" y="-79.8" font-family="Times,serif" font-size="14.00">class = True</text>
</g>
<!-- 273&#45;&gt;274 -->
<g id="edge10" class="edge">
<title>273&#45;&gt;274</title>
<path fill="none" stroke="black" d="M501.4,-190.91C495.24,-182.01 488.66,-172.51 482.31,-163.33"/>
<polygon fill="black" stroke="black" points="485.12,-161.25 476.55,-155.02 479.37,-165.24 485.12,-161.25"/>
</g>
<!-- 391 -->
<g id="node14" class="node">
<title>391</title>
<polygon fill="#a9d4f4" stroke="black" points="703.5,-155 545.5,-155 545.5,-72 703.5,-72 703.5,-155"/>
<text text-anchor="middle" x="624.5" y="-139.8" font-family="Times,serif" font-size="14.00">graphSize &lt;= 75.0</text>
<text text-anchor="middle" x="624.5" y="-124.8" font-family="Times,serif" font-size="14.00">gini = 0.461</text>
<text text-anchor="middle" x="624.5" y="-109.8" font-family="Times,serif" font-size="14.00">samples = 1828</text>
<text text-anchor="middle" x="624.5" y="-94.8" font-family="Times,serif" font-size="14.00">value = [660, 1168]</text>
<text text-anchor="middle" x="624.5" y="-79.8" font-family="Times,serif" font-size="14.00">class = True</text>
</g>
<!-- 273&#45;&gt;391 -->
<g id="edge13" class="edge">
<title>273&#45;&gt;391</title>
<path fill="none" stroke="black" d="M562.46,-190.91C569.75,-181.92 577.56,-172.32 585.08,-163.05"/>
<polygon fill="black" stroke="black" points="588.01,-164.99 591.6,-155.02 582.58,-160.58 588.01,-164.99"/>
</g>
<!-- 275 -->
<g id="node12" class="node">
<title>275</title>
<polygon fill="#c0c0c0" stroke="black" points="419.5,-36 365.5,-36 365.5,0 419.5,0 419.5,-36"/>
<text text-anchor="middle" x="392.5" y="-14.3" font-family="Times,serif" font-size="14.00">(...)</text>
</g>
<!-- 274&#45;&gt;275 -->
<g id="edge11" class="edge">
<title>274&#45;&gt;275</title>
<path fill="none" stroke="black" d="M424.1,-71.76C418.7,-62.75 413.13,-53.44 408.19,-45.19"/>
<polygon fill="black" stroke="black" points="411.07,-43.19 402.92,-36.41 405.06,-46.78 411.07,-43.19"/>
</g>
<!-- 338 -->
<g id="node13" class="node">
<title>338</title>
<polygon fill="#c0c0c0" stroke="black" points="491.5,-36 437.5,-36 437.5,0 491.5,0 491.5,-36"/>
<text text-anchor="middle" x="464.5" y="-14.3" font-family="Times,serif" font-size="14.00">(...)</text>
</g>
<!-- 274&#45;&gt;338 -->
<g id="edge12" class="edge">
<title>274&#45;&gt;338</title>
<path fill="none" stroke="black" d="M455.47,-71.76C456.93,-63.24 458.44,-54.44 459.79,-46.53"/>
<polygon fill="black" stroke="black" points="463.28,-46.85 461.52,-36.41 456.38,-45.67 463.28,-46.85"/>
</g>
<!-- 392 -->
<g id="node15" class="node">
<title>392</title>
<polygon fill="#c0c0c0" stroke="black" points="592.5,-36 538.5,-36 538.5,0 592.5,0 592.5,-36"/>
<text text-anchor="middle" x="565.5" y="-14.3" font-family="Times,serif" font-size="14.00">(...)</text>
</g>
<!-- 391&#45;&gt;392 -->
<g id="edge14" class="edge">
<title>391&#45;&gt;392</title>
<path fill="none" stroke="black" d="M598.79,-71.76C593.05,-62.65 587.1,-53.24 581.86,-44.92"/>
<polygon fill="black" stroke="black" points="584.78,-42.99 576.48,-36.41 578.86,-46.73 584.78,-42.99"/>
</g>
<!-- 455 -->
<g id="node16" class="node">
<title>455</title>
<polygon fill="#c0c0c0" stroke="black" points="664.5,-36 610.5,-36 610.5,0 664.5,0 664.5,-36"/>
<text text-anchor="middle" x="637.5" y="-14.3" font-family="Times,serif" font-size="14.00">(...)</text>
</g>
<!-- 391&#45;&gt;455 -->
<g id="edge15" class="edge">
<title>391&#45;&gt;455</title>
<path fill="none" stroke="black" d="M630.16,-71.76C631.35,-63.24 632.57,-54.44 633.67,-46.53"/>
<polygon fill="black" stroke="black" points="637.17,-46.79 635.08,-36.41 630.24,-45.83 637.17,-46.79"/>
</g>
<!-- 515 -->
<g id="node18" class="node">
<title>515</title>
<polygon fill="#f9e0ce" stroke="black" points="965,-274 798,-274 798,-191 965,-191 965,-274"/>
<text text-anchor="middle" x="881.5" y="-258.8" font-family="Times,serif" font-size="14.00">graphDepth &lt;= 3.5</text>
<text text-anchor="middle" x="881.5" y="-243.8" font-family="Times,serif" font-size="14.00">gini = 0.49</text>
<text text-anchor="middle" x="881.5" y="-228.8" font-family="Times,serif" font-size="14.00">samples = 9274</text>
<text text-anchor="middle" x="881.5" y="-213.8" font-family="Times,serif" font-size="14.00">value = [5298, 3976]</text>
<text text-anchor="middle" x="881.5" y="-198.8" font-family="Times,serif" font-size="14.00">class = False</text>
</g>
<!-- 514&#45;&gt;515 -->
<g id="edge17" class="edge">
<title>514&#45;&gt;515</title>
<path fill="none" stroke="black" d="M881.5,-309.91C881.5,-301.65 881.5,-292.86 881.5,-284.3"/>
<polygon fill="black" stroke="black" points="885,-284.02 881.5,-274.02 878,-284.02 885,-284.02"/>
</g>
<!-- 724 -->
<g id="node25" class="node">
<title>724</title>
<polygon fill="#f3c5a4" stroke="black" points="1226.5,-274 1068.5,-274 1068.5,-191 1226.5,-191 1226.5,-274"/>
<text text-anchor="middle" x="1147.5" y="-258.8" font-family="Times,serif" font-size="14.00">sdComm &lt;= 6.5</text>
<text text-anchor="middle" x="1147.5" y="-243.8" font-family="Times,serif" font-size="14.00">gini = 0.456</text>
<text text-anchor="middle" x="1147.5" y="-228.8" font-family="Times,serif" font-size="14.00">samples = 2240</text>
<text text-anchor="middle" x="1147.5" y="-213.8" font-family="Times,serif" font-size="14.00">value = [1454, 786]</text>
<text text-anchor="middle" x="1147.5" y="-198.8" font-family="Times,serif" font-size="14.00">class = False</text>
</g>
<!-- 514&#45;&gt;724 -->
<g id="edge24" class="edge">
<title>514&#45;&gt;724</title>
<path fill="none" stroke="black" d="M965.3,-313.64C995.11,-300.53 1028.76,-285.73 1058.95,-272.45"/>
<polygon fill="black" stroke="black" points="1060.46,-275.61 1068.2,-268.38 1057.64,-269.2 1060.46,-275.61"/>
</g>
<!-- 516 -->
<g id="node19" class="node">
<title>516</title>
<polygon fill="#fefbf8" stroke="black" points="870,-155 721,-155 721,-72 870,-72 870,-155"/>
<text text-anchor="middle" x="795.5" y="-139.8" font-family="Times,serif" font-size="14.00">nbproc &lt;= 4.5</text>
<text text-anchor="middle" x="795.5" y="-124.8" font-family="Times,serif" font-size="14.00">gini = 0.5</text>
<text text-anchor="middle" x="795.5" y="-109.8" font-family="Times,serif" font-size="14.00">samples = 818</text>
<text text-anchor="middle" x="795.5" y="-94.8" font-family="Times,serif" font-size="14.00">value = [416, 402]</text>
<text text-anchor="middle" x="795.5" y="-79.8" font-family="Times,serif" font-size="14.00">class = False</text>
</g>
<!-- 515&#45;&gt;516 -->
<g id="edge18" class="edge">
<title>515&#45;&gt;516</title>
<path fill="none" stroke="black" d="M851.66,-190.91C845.13,-182.01 838.14,-172.51 831.39,-163.33"/>
<polygon fill="black" stroke="black" points="834.03,-161.01 825.28,-155.02 828.39,-165.15 834.03,-161.01"/>
</g>
<!-- 549 -->
<g id="node22" class="node">
<title>549</title>
<polygon fill="#f8ddca" stroke="black" points="1055,-155 888,-155 888,-72 1055,-72 1055,-155"/>
<text text-anchor="middle" x="971.5" y="-139.8" font-family="Times,serif" font-size="14.00">sdComp &lt;= 6.5</text>
<text text-anchor="middle" x="971.5" y="-124.8" font-family="Times,serif" font-size="14.00">gini = 0.488</text>
<text text-anchor="middle" x="971.5" y="-109.8" font-family="Times,serif" font-size="14.00">samples = 8456</text>
<text text-anchor="middle" x="971.5" y="-94.8" font-family="Times,serif" font-size="14.00">value = [4882, 3574]</text>
<text text-anchor="middle" x="971.5" y="-79.8" font-family="Times,serif" font-size="14.00">class = False</text>
</g>
<!-- 515&#45;&gt;549 -->
<g id="edge21" class="edge">
<title>515&#45;&gt;549</title>
<path fill="none" stroke="black" d="M912.73,-190.91C919.64,-181.92 927.03,-172.32 934.15,-163.05"/>
<polygon fill="black" stroke="black" points="937.01,-165.08 940.33,-155.02 931.46,-160.81 937.01,-165.08"/>
</g>
<!-- 517 -->
<g id="node20" class="node">
<title>517</title>
<polygon fill="#c0c0c0" stroke="black" points="766.5,-36 712.5,-36 712.5,0 766.5,0 766.5,-36"/>
<text text-anchor="middle" x="739.5" y="-14.3" font-family="Times,serif" font-size="14.00">(...)</text>
</g>
<!-- 516&#45;&gt;517 -->
<g id="edge19" class="edge">
<title>516&#45;&gt;517</title>
<path fill="none" stroke="black" d="M771.1,-71.76C765.7,-62.75 760.13,-53.44 755.19,-45.19"/>
<polygon fill="black" stroke="black" points="758.07,-43.19 749.92,-36.41 752.06,-46.78 758.07,-43.19"/>
</g>
<!-- 532 -->
<g id="node21" class="node">
<title>532</title>
<polygon fill="#c0c0c0" stroke="black" points="838.5,-36 784.5,-36 784.5,0 838.5,0 838.5,-36"/>
<text text-anchor="middle" x="811.5" y="-14.3" font-family="Times,serif" font-size="14.00">(...)</text>
</g>
<!-- 516&#45;&gt;532 -->
<g id="edge20" class="edge">
<title>516&#45;&gt;532</title>
<path fill="none" stroke="black" d="M802.47,-71.76C803.93,-63.24 805.44,-54.44 806.79,-46.53"/>
<polygon fill="black" stroke="black" points="810.28,-46.85 808.52,-36.41 803.38,-45.67 810.28,-46.85"/>
</g>
<!-- 550 -->
<g id="node23" class="node">
<title>550</title>
<polygon fill="#c0c0c0" stroke="black" points="942.5,-36 888.5,-36 888.5,0 942.5,0 942.5,-36"/>
<text text-anchor="middle" x="915.5" y="-14.3" font-family="Times,serif" font-size="14.00">(...)</text>
</g>
<!-- 549&#45;&gt;550 -->
<g id="edge22" class="edge">
<title>549&#45;&gt;550</title>
<path fill="none" stroke="black" d="M947.1,-71.76C941.7,-62.75 936.13,-53.44 931.19,-45.19"/>
<polygon fill="black" stroke="black" points="934.07,-43.19 925.92,-36.41 928.06,-46.78 934.07,-43.19"/>
</g>
<!-- 665 -->
<g id="node24" class="node">
<title>665</title>
<polygon fill="#c0c0c0" stroke="black" points="1014.5,-36 960.5,-36 960.5,0 1014.5,0 1014.5,-36"/>
<text text-anchor="middle" x="987.5" y="-14.3" font-family="Times,serif" font-size="14.00">(...)</text>
</g>
<!-- 549&#45;&gt;665 -->
<g id="edge23" class="edge">
<title>549&#45;&gt;665</title>
<path fill="none" stroke="black" d="M978.47,-71.76C979.93,-63.24 981.44,-54.44 982.79,-46.53"/>
<polygon fill="black" stroke="black" points="986.28,-46.85 984.52,-36.41 979.38,-45.67 986.28,-46.85"/>
</g>
<!-- 725 -->
<g id="node26" class="node">
<title>725</title>
<polygon fill="#f5d1b7" stroke="black" points="1222,-155 1073,-155 1073,-72 1222,-72 1222,-155"/>
<text text-anchor="middle" x="1147.5" y="-139.8" font-family="Times,serif" font-size="14.00">sdComm &lt;= 2.0</text>
<text text-anchor="middle" x="1147.5" y="-124.8" font-family="Times,serif" font-size="14.00">gini = 0.475</text>
<text text-anchor="middle" x="1147.5" y="-109.8" font-family="Times,serif" font-size="14.00">samples = 1448</text>
<text text-anchor="middle" x="1147.5" y="-94.8" font-family="Times,serif" font-size="14.00">value = [886, 562]</text>
<text text-anchor="middle" x="1147.5" y="-79.8" font-family="Times,serif" font-size="14.00">class = False</text>
</g>
<!-- 724&#45;&gt;725 -->
<g id="edge25" class="edge">
<title>724&#45;&gt;725</title>
<path fill="none" stroke="black" d="M1147.5,-190.91C1147.5,-182.65 1147.5,-173.86 1147.5,-165.3"/>
<polygon fill="black" stroke="black" points="1151,-165.02 1147.5,-155.02 1144,-165.02 1151,-165.02"/>
</g>
<!-- 770 -->
<g id="node29" class="node">
<title>770</title>
<polygon fill="#efb387" stroke="black" points="1389,-155 1240,-155 1240,-72 1389,-72 1389,-155"/>
<text text-anchor="middle" x="1314.5" y="-139.8" font-family="Times,serif" font-size="14.00">nbproc &lt;= 4.5</text>
<text text-anchor="middle" x="1314.5" y="-124.8" font-family="Times,serif" font-size="14.00">gini = 0.406</text>
<text text-anchor="middle" x="1314.5" y="-109.8" font-family="Times,serif" font-size="14.00">samples = 792</text>
<text text-anchor="middle" x="1314.5" y="-94.8" font-family="Times,serif" font-size="14.00">value = [568, 224]</text>
<text text-anchor="middle" x="1314.5" y="-79.8" font-family="Times,serif" font-size="14.00">class = False</text>
</g>
<!-- 724&#45;&gt;770 -->
<g id="edge28" class="edge">
<title>724&#45;&gt;770</title>
<path fill="none" stroke="black" d="M1205.44,-190.91C1219.3,-181.2 1234.2,-170.76 1248.4,-160.81"/>
<polygon fill="black" stroke="black" points="1250.48,-163.63 1256.66,-155.02 1246.46,-157.89 1250.48,-163.63"/>
</g>
<!-- 726 -->
<g id="node27" class="node">
<title>726</title>
<polygon fill="#c0c0c0" stroke="black" points="1131.5,-36 1077.5,-36 1077.5,0 1131.5,0 1131.5,-36"/>
<text text-anchor="middle" x="1104.5" y="-14.3" font-family="Times,serif" font-size="14.00">(...)</text>
</g>
<!-- 725&#45;&gt;726 -->
<g id="edge26" class="edge">
<title>725&#45;&gt;726</title>
<path fill="none" stroke="black" d="M1128.76,-71.76C1124.71,-62.94 1120.52,-53.84 1116.79,-45.72"/>
<polygon fill="black" stroke="black" points="1119.86,-44.03 1112.5,-36.41 1113.5,-46.95 1119.86,-44.03"/>
</g>
<!-- 747 -->
<g id="node28" class="node">
<title>747</title>
<polygon fill="#c0c0c0" stroke="black" points="1203.5,-36 1149.5,-36 1149.5,0 1203.5,0 1203.5,-36"/>
<text text-anchor="middle" x="1176.5" y="-14.3" font-family="Times,serif" font-size="14.00">(...)</text>
</g>
<!-- 725&#45;&gt;747 -->
<g id="edge27" class="edge">
<title>725&#45;&gt;747</title>
<path fill="none" stroke="black" d="M1160.14,-71.76C1162.84,-63.04 1165.63,-54.04 1168.13,-45.99"/>
<polygon fill="black" stroke="black" points="1171.48,-46.99 1171.1,-36.41 1164.8,-44.92 1171.48,-46.99"/>
</g>
<!-- 771 -->
<g id="node30" class="node">
<title>771</title>
<polygon fill="#c0c0c0" stroke="black" points="1305.5,-36 1251.5,-36 1251.5,0 1305.5,0 1305.5,-36"/>
<text text-anchor="middle" x="1278.5" y="-14.3" font-family="Times,serif" font-size="14.00">(...)</text>
</g>
<!-- 770&#45;&gt;771 -->
<g id="edge29" class="edge">
<title>770&#45;&gt;771</title>
<path fill="none" stroke="black" d="M1298.81,-71.76C1295.46,-63.04 1291.99,-54.04 1288.89,-45.99"/>
<polygon fill="black" stroke="black" points="1292.06,-44.48 1285.2,-36.41 1285.53,-46.99 1292.06,-44.48"/>
</g>
<!-- 782 -->
<g id="node31" class="node">
<title>782</title>
<polygon fill="#c0c0c0" stroke="black" points="1377.5,-36 1323.5,-36 1323.5,0 1377.5,0 1377.5,-36"/>
<text text-anchor="middle" x="1350.5" y="-14.3" font-family="Times,serif" font-size="14.00">(...)</text>
</g>
<!-- 770&#45;&gt;782 -->
<g id="edge30" class="edge">
<title>770&#45;&gt;782</title>
<path fill="none" stroke="black" d="M1330.19,-71.76C1333.54,-63.04 1337.01,-54.04 1340.11,-45.99"/>
<polygon fill="black" stroke="black" points="1343.47,-46.99 1343.8,-36.41 1336.94,-44.48 1343.47,-46.99"/>
</g>
</g>
</svg>
