<?xml version="1.0" encoding="UTF-8" standalone="no"?>
<!DOCTYPE svg PUBLIC "-//W3C//DTD SVG 1.1//EN"
 "http://www.w3.org/Graphics/SVG/1.1/DTD/svg11.dtd">
<!-- Generated by graphviz version 2.43.0 (0)
 -->
<!-- Title: Tree Pages: 1 -->
<svg width="2399pt" height="520pt"
 viewBox="0.00 0.00 2399.00 520.00" xmlns="http://www.w3.org/2000/svg" xmlns:xlink="http://www.w3.org/1999/xlink">
<g id="graph0" class="graph" transform="scale(1 1) rotate(0) translate(4 516)">
<title>Tree</title>
<polygon fill="white" stroke="transparent" points="-4,4 -4,-516 2395,-516 2395,4 -4,4"/>
<!-- 0 -->
<g id="node1" class="node">
<title>0</title>
<polygon fill="#fbe1f0" stroke="black" points="1347,-512 991,-512 991,-429 1347,-429 1347,-512"/>
<text text-anchor="middle" x="1169" y="-496.8" font-family="Times,serif" font-size="14.00">CCR &lt;= 5.5</text>
<text text-anchor="middle" x="1169" y="-481.8" font-family="Times,serif" font-size="14.00">gini = 0.772</text>
<text text-anchor="middle" x="1169" y="-466.8" font-family="Times,serif" font-size="14.00">samples = 30577</text>
<text text-anchor="middle" x="1169" y="-451.8" font-family="Times,serif" font-size="14.00">value = [5864, 1451, 5088, 1324, 6578, 10272]</text>
<text text-anchor="middle" x="1169" y="-436.8" font-family="Times,serif" font-size="14.00">class = GDL</text>
</g>
<!-- 1 -->
<g id="node2" class="node">
<title>1</title>
<polygon fill="#f7bfdf" stroke="black" points="1044.5,-393 733.5,-393 733.5,-310 1044.5,-310 1044.5,-393"/>
<text text-anchor="middle" x="889" y="-377.8" font-family="Times,serif" font-size="14.00">graphSize &lt;= 40.0</text>
<text text-anchor="middle" x="889" y="-362.8" font-family="Times,serif" font-size="14.00">gini = 0.652</text>
<text text-anchor="middle" x="889" y="-347.8" font-family="Times,serif" font-size="14.00">samples = 19063</text>
<text text-anchor="middle" x="889" y="-332.8" font-family="Times,serif" font-size="14.00">value = [4010, 371, 84, 488, 4754, 9356]</text>
<text text-anchor="middle" x="889" y="-317.8" font-family="Times,serif" font-size="14.00">class = GDL</text>
</g>
<!-- 0&#45;&gt;1 -->
<g id="edge1" class="edge">
<title>0&#45;&gt;1</title>
<path fill="none" stroke="black" d="M1071.86,-428.91C1047.21,-418.61 1020.59,-407.49 995.51,-397"/>
<polygon fill="black" stroke="black" points="996.55,-393.65 985.97,-393.02 993.85,-400.11 996.55,-393.65"/>
<text text-anchor="middle" x="995.47" y="-412.45" font-family="Times,serif" font-size="14.00">True</text>
</g>
<!-- 518 -->
<g id="node17" class="node">
<title>518</title>
<polygon fill="#bef7d6" stroke="black" points="1635.5,-393 1306.5,-393 1306.5,-310 1635.5,-310 1635.5,-393"/>
<text text-anchor="middle" x="1471" y="-377.8" font-family="Times,serif" font-size="14.00">sdComp &lt;= 2.0</text>
<text text-anchor="middle" x="1471" y="-362.8" font-family="Times,serif" font-size="14.00">gini = 0.74</text>
<text text-anchor="middle" x="1471" y="-347.8" font-family="Times,serif" font-size="14.00">samples = 11514</text>
<text text-anchor="middle" x="1471" y="-332.8" font-family="Times,serif" font-size="14.00">value = [1854, 1080, 5004, 836, 1824, 916]</text>
<text text-anchor="middle" x="1471" y="-317.8" font-family="Times,serif" font-size="14.00">class = OLB</text>
</g>
<!-- 0&#45;&gt;518 -->
<g id="edge16" class="edge">
<title>0&#45;&gt;518</title>
<path fill="none" stroke="black" d="M1273.78,-428.91C1300.6,-418.52 1329.57,-407.29 1356.84,-396.73"/>
<polygon fill="black" stroke="black" points="1358.35,-399.9 1366.41,-393.02 1355.82,-393.37 1358.35,-399.9"/>
<text text-anchor="middle" x="1356.31" y="-412.19" font-family="Times,serif" font-size="14.00">False</text>
</g>
<!-- 2 -->
<g id="node3" class="node">
<title>2</title>
<polygon fill="#f9d4ea" stroke="black" points="631.5,-274 320.5,-274 320.5,-191 631.5,-191 631.5,-274"/>
<text text-anchor="middle" x="476" y="-258.8" font-family="Times,serif" font-size="14.00">CCR &lt;= 0.55</text>
<text text-anchor="middle" x="476" y="-243.8" font-family="Times,serif" font-size="14.00">gini = 0.682</text>
<text text-anchor="middle" x="476" y="-228.8" font-family="Times,serif" font-size="14.00">samples = 15225</text>
<text text-anchor="middle" x="476" y="-213.8" font-family="Times,serif" font-size="14.00">value = [3528, 365, 68, 488, 4180, 6596]</text>
<text text-anchor="middle" x="476" y="-198.8" font-family="Times,serif" font-size="14.00">class = GDL</text>
</g>
<!-- 1&#45;&gt;2 -->
<g id="edge2" class="edge">
<title>1&#45;&gt;2</title>
<path fill="none" stroke="black" d="M746,-309.99C708.19,-299.28 667.22,-287.67 628.91,-276.82"/>
<polygon fill="black" stroke="black" points="629.8,-273.43 619.22,-274.07 627.89,-280.17 629.8,-273.43"/>
</g>
<!-- 275 -->
<g id="node10" class="node">
<title>275</title>
<polygon fill="#ee7abd" stroke="black" points="1017.5,-274 760.5,-274 760.5,-191 1017.5,-191 1017.5,-274"/>
<text text-anchor="middle" x="889" y="-258.8" font-family="Times,serif" font-size="14.00">nbproc &lt;= 4.5</text>
<text text-anchor="middle" x="889" y="-243.8" font-family="Times,serif" font-size="14.00">gini = 0.445</text>
<text text-anchor="middle" x="889" y="-228.8" font-family="Times,serif" font-size="14.00">samples = 3838</text>
<text text-anchor="middle" x="889" y="-213.8" font-family="Times,serif" font-size="14.00">value = [482, 6, 16, 0, 574, 2760]</text>
<text text-anchor="middle" x="889" y="-198.8" font-family="Times,serif" font-size="14.00">class = GDL</text>
</g>
<!-- 1&#45;&gt;275 -->
<g id="edge9" class="edge">
<title>1&#45;&gt;275</title>
<path fill="none" stroke="black" d="M889,-309.91C889,-301.65 889,-292.86 889,-284.3"/>
<polygon fill="black" stroke="black" points="892.5,-284.02 889,-274.02 885.5,-284.02 892.5,-284.02"/>
</g>
<!-- 3 -->
<g id="node4" class="node">
<title>3</title>
<polygon fill="#fad8ec" stroke="black" points="302,-155 0,-155 0,-72 302,-72 302,-155"/>
<text text-anchor="middle" x="151" y="-139.8" font-family="Times,serif" font-size="14.00">sdComp &lt;= 0.065</text>
<text text-anchor="middle" x="151" y="-124.8" font-family="Times,serif" font-size="14.00">gini = 0.681</text>
<text text-anchor="middle" x="151" y="-109.8" font-family="Times,serif" font-size="14.00">samples = 9419</text>
<text text-anchor="middle" x="151" y="-94.8" font-family="Times,serif" font-size="14.00">value = [2462, 51, 16, 384, 2580, 3926]</text>
<text text-anchor="middle" x="151" y="-79.8" font-family="Times,serif" font-size="14.00">class = GDL</text>
</g>
<!-- 2&#45;&gt;3 -->
<g id="edge3" class="edge">
<title>2&#45;&gt;3</title>
<path fill="none" stroke="black" d="M363.24,-190.91C334.13,-180.43 302.65,-169.1 273.09,-158.45"/>
<polygon fill="black" stroke="black" points="274.15,-155.11 263.56,-155.02 271.78,-161.7 274.15,-155.11"/>
</g>
<!-- 138 -->
<g id="node7" class="node">
<title>138</title>
<polygon fill="#f8cde6" stroke="black" points="631.5,-155 320.5,-155 320.5,-72 631.5,-72 631.5,-155"/>
<text text-anchor="middle" x="476" y="-139.8" font-family="Times,serif" font-size="14.00">graphSize &lt;= 22.5</text>
<text text-anchor="middle" x="476" y="-124.8" font-family="Times,serif" font-size="14.00">gini = 0.676</text>
<text text-anchor="middle" x="476" y="-109.8" font-family="Times,serif" font-size="14.00">samples = 5806</text>
<text text-anchor="middle" x="476" y="-94.8" font-family="Times,serif" font-size="14.00">value = [1066, 314, 52, 104, 1600, 2670]</text>
<text text-anchor="middle" x="476" y="-79.8" font-family="Times,serif" font-size="14.00">class = GDL</text>
</g>
<!-- 2&#45;&gt;138 -->
<g id="edge6" class="edge">
<title>2&#45;&gt;138</title>
<path fill="none" stroke="black" d="M476,-190.91C476,-182.65 476,-173.86 476,-165.3"/>
<polygon fill="black" stroke="black" points="479.5,-165.02 476,-155.02 472.5,-165.02 479.5,-165.02"/>
</g>
<!-- 4 -->
<g id="node5" class="node">
<title>4</title>
<polygon fill="#c0c0c0" stroke="black" points="142,-36 88,-36 88,0 142,0 142,-36"/>
<text text-anchor="middle" x="115" y="-14.3" font-family="Times,serif" font-size="14.00">(...)</text>
</g>
<!-- 3&#45;&gt;4 -->
<g id="edge4" class="edge">
<title>3&#45;&gt;4</title>
<path fill="none" stroke="black" d="M135.31,-71.76C131.96,-63.04 128.49,-54.04 125.39,-45.99"/>
<polygon fill="black" stroke="black" points="128.56,-44.48 121.7,-36.41 122.03,-46.99 128.56,-44.48"/>
</g>
<!-- 93 -->
<g id="node6" class="node">
<title>93</title>
<polygon fill="#c0c0c0" stroke="black" points="214,-36 160,-36 160,0 214,0 214,-36"/>
<text text-anchor="middle" x="187" y="-14.3" font-family="Times,serif" font-size="14.00">(...)</text>
</g>
<!-- 3&#45;&gt;93 -->
<g id="edge5" class="edge">
<title>3&#45;&gt;93</title>
<path fill="none" stroke="black" d="M166.69,-71.76C170.04,-63.04 173.51,-54.04 176.61,-45.99"/>
<polygon fill="black" stroke="black" points="179.97,-46.99 180.3,-36.41 173.44,-44.48 179.97,-46.99"/>
</g>
<!-- 139 -->
<g id="node8" class="node">
<title>139</title>
<polygon fill="#c0c0c0" stroke="black" points="467,-36 413,-36 413,0 467,0 467,-36"/>
<text text-anchor="middle" x="440" y="-14.3" font-family="Times,serif" font-size="14.00">(...)</text>
</g>
<!-- 138&#45;&gt;139 -->
<g id="edge7" class="edge">
<title>138&#45;&gt;139</title>
<path fill="none" stroke="black" d="M460.31,-71.76C456.96,-63.04 453.49,-54.04 450.39,-45.99"/>
<polygon fill="black" stroke="black" points="453.56,-44.48 446.7,-36.41 447.03,-46.99 453.56,-44.48"/>
</g>
<!-- 210 -->
<g id="node9" class="node">
<title>210</title>
<polygon fill="#c0c0c0" stroke="black" points="539,-36 485,-36 485,0 539,0 539,-36"/>
<text text-anchor="middle" x="512" y="-14.3" font-family="Times,serif" font-size="14.00">(...)</text>
</g>
<!-- 138&#45;&gt;210 -->
<g id="edge8" class="edge">
<title>138&#45;&gt;210</title>
<path fill="none" stroke="black" d="M491.69,-71.76C495.04,-63.04 498.51,-54.04 501.61,-45.99"/>
<polygon fill="black" stroke="black" points="504.97,-46.99 505.3,-36.41 498.44,-44.48 504.97,-46.99"/>
</g>
<!-- 276 -->
<g id="node11" class="node">
<title>276</title>
<polygon fill="#eb65b3" stroke="black" points="906.5,-155 649.5,-155 649.5,-72 906.5,-72 906.5,-155"/>
<text text-anchor="middle" x="778" y="-139.8" font-family="Times,serif" font-size="14.00">graphSize &lt;= 75.0</text>
<text text-anchor="middle" x="778" y="-124.8" font-family="Times,serif" font-size="14.00">gini = 0.332</text>
<text text-anchor="middle" x="778" y="-109.8" font-family="Times,serif" font-size="14.00">samples = 2010</text>
<text text-anchor="middle" x="778" y="-94.8" font-family="Times,serif" font-size="14.00">value = [114, 2, 16, 0, 260, 1618]</text>
<text text-anchor="middle" x="778" y="-79.8" font-family="Times,serif" font-size="14.00">class = GDL</text>
</g>
<!-- 275&#45;&gt;276 -->
<g id="edge10" class="edge">
<title>275&#45;&gt;276</title>
<path fill="none" stroke="black" d="M850.49,-190.91C841.79,-181.74 832.48,-171.93 823.53,-162.49"/>
<polygon fill="black" stroke="black" points="825.86,-159.87 816.44,-155.02 820.79,-164.68 825.86,-159.87"/>
</g>
<!-- 395 -->
<g id="node14" class="node">
<title>395</title>
<polygon fill="#f196cb" stroke="black" points="1173,-155 925,-155 925,-72 1173,-72 1173,-155"/>
<text text-anchor="middle" x="1049" y="-139.8" font-family="Times,serif" font-size="14.00">CCR &lt;= 0.55</text>
<text text-anchor="middle" x="1049" y="-124.8" font-family="Times,serif" font-size="14.00">gini = 0.54</text>
<text text-anchor="middle" x="1049" y="-109.8" font-family="Times,serif" font-size="14.00">samples = 1828</text>
<text text-anchor="middle" x="1049" y="-94.8" font-family="Times,serif" font-size="14.00">value = [368, 4, 0, 0, 314, 1142]</text>
<text text-anchor="middle" x="1049" y="-79.8" font-family="Times,serif" font-size="14.00">class = GDL</text>
</g>
<!-- 275&#45;&gt;395 -->
<g id="edge13" class="edge">
<title>275&#45;&gt;395</title>
<path fill="none" stroke="black" d="M944.51,-190.91C957.67,-181.29 971.8,-170.95 985.29,-161.09"/>
<polygon fill="black" stroke="black" points="987.58,-163.75 993.59,-155.02 983.45,-158.1 987.58,-163.75"/>
</g>
<!-- 277 -->
<g id="node12" class="node">
<title>277</title>
<polygon fill="#c0c0c0" stroke="black" points="769,-36 715,-36 715,0 769,0 769,-36"/>
<text text-anchor="middle" x="742" y="-14.3" font-family="Times,serif" font-size="14.00">(...)</text>
</g>
<!-- 276&#45;&gt;277 -->
<g id="edge11" class="edge">
<title>276&#45;&gt;277</title>
<path fill="none" stroke="black" d="M762.31,-71.76C758.96,-63.04 755.49,-54.04 752.39,-45.99"/>
<polygon fill="black" stroke="black" points="755.56,-44.48 748.7,-36.41 749.03,-46.99 755.56,-44.48"/>
</g>
<!-- 342 -->
<g id="node13" class="node">
<title>342</title>
<polygon fill="#c0c0c0" stroke="black" points="841,-36 787,-36 787,0 841,0 841,-36"/>
<text text-anchor="middle" x="814" y="-14.3" font-family="Times,serif" font-size="14.00">(...)</text>
</g>
<!-- 276&#45;&gt;342 -->
<g id="edge12" class="edge">
<title>276&#45;&gt;342</title>
<path fill="none" stroke="black" d="M793.69,-71.76C797.04,-63.04 800.51,-54.04 803.61,-45.99"/>
<polygon fill="black" stroke="black" points="806.97,-46.99 807.3,-36.41 800.44,-44.48 806.97,-46.99"/>
</g>
<!-- 396 -->
<g id="node15" class="node">
<title>396</title>
<polygon fill="#c0c0c0" stroke="black" points="1040,-36 986,-36 986,0 1040,0 1040,-36"/>
<text text-anchor="middle" x="1013" y="-14.3" font-family="Times,serif" font-size="14.00">(...)</text>
</g>
<!-- 395&#45;&gt;396 -->
<g id="edge14" class="edge">
<title>395&#45;&gt;396</title>
<path fill="none" stroke="black" d="M1033.31,-71.76C1029.96,-63.04 1026.49,-54.04 1023.39,-45.99"/>
<polygon fill="black" stroke="black" points="1026.56,-44.48 1019.7,-36.41 1020.03,-46.99 1026.56,-44.48"/>
</g>
<!-- 461 -->
<g id="node16" class="node">
<title>461</title>
<polygon fill="#c0c0c0" stroke="black" points="1112,-36 1058,-36 1058,0 1112,0 1112,-36"/>
<text text-anchor="middle" x="1085" y="-14.3" font-family="Times,serif" font-size="14.00">(...)</text>
</g>
<!-- 395&#45;&gt;461 -->
<g id="edge15" class="edge">
<title>395&#45;&gt;461</title>
<path fill="none" stroke="black" d="M1064.69,-71.76C1068.04,-63.04 1071.51,-54.04 1074.61,-45.99"/>
<polygon fill="black" stroke="black" points="1077.97,-46.99 1078.3,-36.41 1071.44,-44.48 1077.97,-46.99"/>
</g>
<!-- 519 -->
<g id="node18" class="node">
<title>519</title>
<polygon fill="#b1f5cd" stroke="black" points="1622,-274 1320,-274 1320,-191 1622,-191 1622,-274"/>
<text text-anchor="middle" x="1471" y="-258.8" font-family="Times,serif" font-size="14.00">sdComm &lt;= 6.5</text>
<text text-anchor="middle" x="1471" y="-243.8" font-family="Times,serif" font-size="14.00">gini = 0.688</text>
<text text-anchor="middle" x="1471" y="-228.8" font-family="Times,serif" font-size="14.00">samples = 3862</text>
<text text-anchor="middle" x="1471" y="-213.8" font-family="Times,serif" font-size="14.00">value = [444, 310, 1936, 684, 342, 146]</text>
<text text-anchor="middle" x="1471" y="-198.8" font-family="Times,serif" font-size="14.00">class = OLB</text>
</g>
<!-- 518&#45;&gt;519 -->
<g id="edge17" class="edge">
<title>518&#45;&gt;519</title>
<path fill="none" stroke="black" d="M1471,-309.91C1471,-301.65 1471,-292.86 1471,-284.3"/>
<polygon fill="black" stroke="black" points="1474.5,-284.02 1471,-274.02 1467.5,-284.02 1474.5,-284.02"/>
</g>
<!-- 612 -->
<g id="node25" class="node">
<title>612</title>
<polygon fill="#ccf8df" stroke="black" points="2093,-274 1773,-274 1773,-191 2093,-191 2093,-274"/>
<text text-anchor="middle" x="1933" y="-258.8" font-family="Times,serif" font-size="14.00">graphSize &lt;= 22.5</text>
<text text-anchor="middle" x="1933" y="-243.8" font-family="Times,serif" font-size="14.00">gini = 0.747</text>
<text text-anchor="middle" x="1933" y="-228.8" font-family="Times,serif" font-size="14.00">samples = 7652</text>
<text text-anchor="middle" x="1933" y="-213.8" font-family="Times,serif" font-size="14.00">value = [1410, 770, 3068, 152, 1482, 770]</text>
<text text-anchor="middle" x="1933" y="-198.8" font-family="Times,serif" font-size="14.00">class = OLB</text>
</g>
<!-- 518&#45;&gt;612 -->
<g id="edge24" class="edge">
<title>518&#45;&gt;612</title>
<path fill="none" stroke="black" d="M1630.96,-309.99C1673.62,-299.19 1719.87,-287.48 1763.04,-276.54"/>
<polygon fill="black" stroke="black" points="1763.95,-279.92 1772.78,-274.07 1762.23,-273.14 1763.95,-279.92"/>
</g>
<!-- 520 -->
<g id="node19" class="node">
<title>520</title>
<polygon fill="#9ef2c1" stroke="black" points="1484.5,-155 1191.5,-155 1191.5,-72 1484.5,-72 1484.5,-155"/>
<text text-anchor="middle" x="1338" y="-139.8" font-family="Times,serif" font-size="14.00">nbproc &lt;= 4.5</text>
<text text-anchor="middle" x="1338" y="-124.8" font-family="Times,serif" font-size="14.00">gini = 0.64</text>
<text text-anchor="middle" x="1338" y="-109.8" font-family="Times,serif" font-size="14.00">samples = 2544</text>
<text text-anchor="middle" x="1338" y="-94.8" font-family="Times,serif" font-size="14.00">value = [264, 216, 1428, 360, 202, 74]</text>
<text text-anchor="middle" x="1338" y="-79.8" font-family="Times,serif" font-size="14.00">class = OLB</text>
</g>
<!-- 519&#45;&gt;520 -->
<g id="edge18" class="edge">
<title>519&#45;&gt;520</title>
<path fill="none" stroke="black" d="M1424.86,-190.91C1414.13,-181.47 1402.62,-171.34 1391.6,-161.65"/>
<polygon fill="black" stroke="black" points="1393.88,-159 1384.06,-155.02 1389.26,-164.25 1393.88,-159"/>
</g>
<!-- 581 -->
<g id="node22" class="node">
<title>581</title>
<polygon fill="#dafae8" stroke="black" points="1777.5,-155 1502.5,-155 1502.5,-72 1777.5,-72 1777.5,-155"/>
<text text-anchor="middle" x="1640" y="-139.8" font-family="Times,serif" font-size="14.00">graphSize &lt;= 22.5</text>
<text text-anchor="middle" x="1640" y="-124.8" font-family="Times,serif" font-size="14.00">gini = 0.753</text>
<text text-anchor="middle" x="1640" y="-109.8" font-family="Times,serif" font-size="14.00">samples = 1318</text>
<text text-anchor="middle" x="1640" y="-94.8" font-family="Times,serif" font-size="14.00">value = [180, 94, 508, 324, 140, 72]</text>
<text text-anchor="middle" x="1640" y="-79.8" font-family="Times,serif" font-size="14.00">class = OLB</text>
</g>
<!-- 519&#45;&gt;581 -->
<g id="edge21" class="edge">
<title>519&#45;&gt;581</title>
<path fill="none" stroke="black" d="M1529.63,-190.91C1543.66,-181.2 1558.74,-170.76 1573.11,-160.81"/>
<polygon fill="black" stroke="black" points="1575.24,-163.59 1581.47,-155.02 1571.26,-157.84 1575.24,-163.59"/>
</g>
<!-- 521 -->
<g id="node20" class="node">
<title>521</title>
<polygon fill="#c0c0c0" stroke="black" points="1329,-36 1275,-36 1275,0 1329,0 1329,-36"/>
<text text-anchor="middle" x="1302" y="-14.3" font-family="Times,serif" font-size="14.00">(...)</text>
</g>
<!-- 520&#45;&gt;521 -->
<g id="edge19" class="edge">
<title>520&#45;&gt;521</title>
<path fill="none" stroke="black" d="M1322.31,-71.76C1318.96,-63.04 1315.49,-54.04 1312.39,-45.99"/>
<polygon fill="black" stroke="black" points="1315.56,-44.48 1308.7,-36.41 1309.03,-46.99 1315.56,-44.48"/>
</g>
<!-- 552 -->
<g id="node21" class="node">
<title>552</title>
<polygon fill="#c0c0c0" stroke="black" points="1401,-36 1347,-36 1347,0 1401,0 1401,-36"/>
<text text-anchor="middle" x="1374" y="-14.3" font-family="Times,serif" font-size="14.00">(...)</text>
</g>
<!-- 520&#45;&gt;552 -->
<g id="edge20" class="edge">
<title>520&#45;&gt;552</title>
<path fill="none" stroke="black" d="M1353.69,-71.76C1357.04,-63.04 1360.51,-54.04 1363.61,-45.99"/>
<polygon fill="black" stroke="black" points="1366.97,-46.99 1367.3,-36.41 1360.44,-44.48 1366.97,-46.99"/>
</g>
<!-- 582 -->
<g id="node23" class="node">
<title>582</title>
<polygon fill="#c0c0c0" stroke="black" points="1631,-36 1577,-36 1577,0 1631,0 1631,-36"/>
<text text-anchor="middle" x="1604" y="-14.3" font-family="Times,serif" font-size="14.00">(...)</text>
</g>
<!-- 581&#45;&gt;582 -->
<g id="edge22" class="edge">
<title>581&#45;&gt;582</title>
<path fill="none" stroke="black" d="M1624.31,-71.76C1620.96,-63.04 1617.49,-54.04 1614.39,-45.99"/>
<polygon fill="black" stroke="black" points="1617.56,-44.48 1610.7,-36.41 1611.03,-46.99 1617.56,-44.48"/>
</g>
<!-- 589 -->
<g id="node24" class="node">
<title>589</title>
<polygon fill="#c0c0c0" stroke="black" points="1703,-36 1649,-36 1649,0 1703,0 1703,-36"/>
<text text-anchor="middle" x="1676" y="-14.3" font-family="Times,serif" font-size="14.00">(...)</text>
</g>
<!-- 581&#45;&gt;589 -->
<g id="edge23" class="edge">
<title>581&#45;&gt;589</title>
<path fill="none" stroke="black" d="M1655.69,-71.76C1659.04,-63.04 1662.51,-54.04 1665.61,-45.99"/>
<polygon fill="black" stroke="black" points="1668.97,-46.99 1669.3,-36.41 1662.44,-44.48 1668.97,-46.99"/>
</g>
<!-- 613 -->
<g id="node26" class="node">
<title>613</title>
<polygon fill="#edfdf3" stroke="black" points="2070.5,-155 1795.5,-155 1795.5,-72 2070.5,-72 2070.5,-155"/>
<text text-anchor="middle" x="1933" y="-139.8" font-family="Times,serif" font-size="14.00">graphDepth &lt;= 3.5</text>
<text text-anchor="middle" x="1933" y="-124.8" font-family="Times,serif" font-size="14.00">gini = 0.786</text>
<text text-anchor="middle" x="1933" y="-109.8" font-family="Times,serif" font-size="14.00">samples = 2724</text>
<text text-anchor="middle" x="1933" y="-94.8" font-family="Times,serif" font-size="14.00">value = [552, 336, 788, 8, 592, 448]</text>
<text text-anchor="middle" x="1933" y="-79.8" font-family="Times,serif" font-size="14.00">class = OLB</text>
</g>
<!-- 612&#45;&gt;613 -->
<g id="edge25" class="edge">
<title>612&#45;&gt;613</title>
<path fill="none" stroke="black" d="M1933,-190.91C1933,-182.65 1933,-173.86 1933,-165.3"/>
<polygon fill="black" stroke="black" points="1936.5,-165.02 1933,-155.02 1929.5,-165.02 1936.5,-165.02"/>
</g>
<!-- 658 -->
<g id="node29" class="node">
<title>658</title>
<polygon fill="#bbf6d4" stroke="black" points="2391,-155 2089,-155 2089,-72 2391,-72 2391,-155"/>
<text text-anchor="middle" x="2240" y="-139.8" font-family="Times,serif" font-size="14.00">sdComp &lt;= 6.5</text>
<text text-anchor="middle" x="2240" y="-124.8" font-family="Times,serif" font-size="14.00">gini = 0.71</text>
<text text-anchor="middle" x="2240" y="-109.8" font-family="Times,serif" font-size="14.00">samples = 4928</text>
<text text-anchor="middle" x="2240" y="-94.8" font-family="Times,serif" font-size="14.00">value = [858, 434, 2280, 144, 890, 322]</text>
<text text-anchor="middle" x="2240" y="-79.8" font-family="Times,serif" font-size="14.00">class = OLB</text>
</g>
<!-- 612&#45;&gt;658 -->
<g id="edge28" class="edge">
<title>612&#45;&gt;658</title>
<path fill="none" stroke="black" d="M2039.51,-190.91C2066.9,-180.47 2096.49,-169.19 2124.31,-158.59"/>
<polygon fill="black" stroke="black" points="2125.58,-161.85 2133.68,-155.02 2123.09,-155.31 2125.58,-161.85"/>
</g>
<!-- 614 -->
<g id="node27" class="node">
<title>614</title>
<polygon fill="#c0c0c0" stroke="black" points="1924,-36 1870,-36 1870,0 1924,0 1924,-36"/>
<text text-anchor="middle" x="1897" y="-14.3" font-family="Times,serif" font-size="14.00">(...)</text>
</g>
<!-- 613&#45;&gt;614 -->
<g id="edge26" class="edge">
<title>613&#45;&gt;614</title>
<path fill="none" stroke="black" d="M1917.31,-71.76C1913.96,-63.04 1910.49,-54.04 1907.39,-45.99"/>
<polygon fill="black" stroke="black" points="1910.56,-44.48 1903.7,-36.41 1904.03,-46.99 1910.56,-44.48"/>
</g>
<!-- 635 -->
<g id="node28" class="node">
<title>635</title>
<polygon fill="#c0c0c0" stroke="black" points="1996,-36 1942,-36 1942,0 1996,0 1996,-36"/>
<text text-anchor="middle" x="1969" y="-14.3" font-family="Times,serif" font-size="14.00">(...)</text>
</g>
<!-- 613&#45;&gt;635 -->
<g id="edge27" class="edge">
<title>613&#45;&gt;635</title>
<path fill="none" stroke="black" d="M1948.69,-71.76C1952.04,-63.04 1955.51,-54.04 1958.61,-45.99"/>
<polygon fill="black" stroke="black" points="1961.97,-46.99 1962.3,-36.41 1955.44,-44.48 1961.97,-46.99"/>
</g>
<!-- 659 -->
<g id="node30" class="node">
<title>659</title>
<polygon fill="#c0c0c0" stroke="black" points="2231,-36 2177,-36 2177,0 2231,0 2231,-36"/>
<text text-anchor="middle" x="2204" y="-14.3" font-family="Times,serif" font-size="14.00">(...)</text>
</g>
<!-- 658&#45;&gt;659 -->
<g id="edge29" class="edge">
<title>658&#45;&gt;659</title>
<path fill="none" stroke="black" d="M2224.31,-71.76C2220.96,-63.04 2217.49,-54.04 2214.39,-45.99"/>
<polygon fill="black" stroke="black" points="2217.56,-44.48 2210.7,-36.41 2211.03,-46.99 2217.56,-44.48"/>
</g>
<!-- 720 -->
<g id="node31" class="node">
<title>720</title>
<polygon fill="#c0c0c0" stroke="black" points="2303,-36 2249,-36 2249,0 2303,0 2303,-36"/>
<text text-anchor="middle" x="2276" y="-14.3" font-family="Times,serif" font-size="14.00">(...)</text>
</g>
<!-- 658&#45;&gt;720 -->
<g id="edge30" class="edge">
<title>658&#45;&gt;720</title>
<path fill="none" stroke="black" d="M2255.69,-71.76C2259.04,-63.04 2262.51,-54.04 2265.61,-45.99"/>
<polygon fill="black" stroke="black" points="2268.97,-46.99 2269.3,-36.41 2262.44,-44.48 2268.97,-46.99"/>
</g>
</g>
</svg>
