<?xml version="1.0" encoding="UTF-8" standalone="no"?>
<!DOCTYPE svg PUBLIC "-//W3C//DTD SVG 1.1//EN"
 "http://www.w3.org/Graphics/SVG/1.1/DTD/svg11.dtd">
<!-- Generated by graphviz version 2.43.0 (0)
 -->
<!-- Title: Tree Pages: 1 -->
<svg width="1377pt" height="520pt"
 viewBox="0.00 0.00 1377.00 520.00" xmlns="http://www.w3.org/2000/svg" xmlns:xlink="http://www.w3.org/1999/xlink">
<g id="graph0" class="graph" transform="scale(1 1) rotate(0) translate(4 516)">
<title>Tree</title>
<polygon fill="white" stroke="transparent" points="-4,4 -4,-516 1373,-516 1373,4 -4,4"/>
<!-- 0 -->
<g id="node1" class="node">
<title>0</title>
<polygon fill="#ffffff" stroke="black" points="717,-512 532,-512 532,-429 717,-429 717,-512"/>
<text text-anchor="middle" x="624.5" y="-496.8" font-family="Times,serif" font-size="14.00">graphDepth &lt;= 3.5</text>
<text text-anchor="middle" x="624.5" y="-481.8" font-family="Times,serif" font-size="14.00">gini = 0.5</text>
<text text-anchor="middle" x="624.5" y="-466.8" font-family="Times,serif" font-size="14.00">samples = 30577</text>
<text text-anchor="middle" x="624.5" y="-451.8" font-family="Times,serif" font-size="14.00">value = [15272, 15305]</text>
<text text-anchor="middle" x="624.5" y="-436.8" font-family="Times,serif" font-size="14.00">class = True</text>
</g>
<!-- 1 -->
<g id="node2" class="node">
<title>1</title>
<polygon fill="#fdfeff" stroke="black" points="556,-393 389,-393 389,-310 556,-310 556,-393"/>
<text text-anchor="middle" x="472.5" y="-377.8" font-family="Times,serif" font-size="14.00">sdComp &lt;= 6.5</text>
<text text-anchor="middle" x="472.5" y="-362.8" font-family="Times,serif" font-size="14.00">gini = 0.5</text>
<text text-anchor="middle" x="472.5" y="-347.8" font-family="Times,serif" font-size="14.00">samples = 3679</text>
<text text-anchor="middle" x="472.5" y="-332.8" font-family="Times,serif" font-size="14.00">value = [1829, 1850]</text>
<text text-anchor="middle" x="472.5" y="-317.8" font-family="Times,serif" font-size="14.00">class = True</text>
</g>
<!-- 0&#45;&gt;1 -->
<g id="edge1" class="edge">
<title>0&#45;&gt;1</title>
<path fill="none" stroke="black" d="M571.76,-428.91C559.38,-419.38 546.09,-409.15 533.39,-399.37"/>
<polygon fill="black" stroke="black" points="535.2,-396.35 525.14,-393.02 530.93,-401.89 535.2,-396.35"/>
<text text-anchor="middle" x="528.37" y="-414.11" font-family="Times,serif" font-size="14.00">True</text>
</g>
<!-- 102 -->
<g id="node17" class="node">
<title>102</title>
<polygon fill="#ffffff" stroke="black" points="909,-393 724,-393 724,-310 909,-310 909,-393"/>
<text text-anchor="middle" x="816.5" y="-377.8" font-family="Times,serif" font-size="14.00">sdComm &lt;= 6.5</text>
<text text-anchor="middle" x="816.5" y="-362.8" font-family="Times,serif" font-size="14.00">gini = 0.5</text>
<text text-anchor="middle" x="816.5" y="-347.8" font-family="Times,serif" font-size="14.00">samples = 26898</text>
<text text-anchor="middle" x="816.5" y="-332.8" font-family="Times,serif" font-size="14.00">value = [13443, 13455]</text>
<text text-anchor="middle" x="816.5" y="-317.8" font-family="Times,serif" font-size="14.00">class = True</text>
</g>
<!-- 0&#45;&gt;102 -->
<g id="edge16" class="edge">
<title>0&#45;&gt;102</title>
<path fill="none" stroke="black" d="M691.11,-428.91C707.35,-419.02 724.82,-408.37 741.42,-398.25"/>
<polygon fill="black" stroke="black" points="743.29,-401.21 750,-393.02 739.64,-395.24 743.29,-401.21"/>
<text text-anchor="middle" x="744.11" y="-413.62" font-family="Times,serif" font-size="14.00">False</text>
</g>
<!-- 2 -->
<g id="node3" class="node">
<title>2</title>
<polygon fill="#fefeff" stroke="black" points="325,-274 158,-274 158,-191 325,-191 325,-274"/>
<text text-anchor="middle" x="241.5" y="-258.8" font-family="Times,serif" font-size="14.00">CCR &lt;= 0.55</text>
<text text-anchor="middle" x="241.5" y="-243.8" font-family="Times,serif" font-size="14.00">gini = 0.5</text>
<text text-anchor="middle" x="241.5" y="-228.8" font-family="Times,serif" font-size="14.00">samples = 3439</text>
<text text-anchor="middle" x="241.5" y="-213.8" font-family="Times,serif" font-size="14.00">value = [1713, 1726]</text>
<text text-anchor="middle" x="241.5" y="-198.8" font-family="Times,serif" font-size="14.00">class = True</text>
</g>
<!-- 1&#45;&gt;2 -->
<g id="edge2" class="edge">
<title>1&#45;&gt;2</title>
<path fill="none" stroke="black" d="M392.36,-309.91C372.38,-299.79 350.84,-288.88 330.46,-278.56"/>
<polygon fill="black" stroke="black" points="332.01,-275.42 321.5,-274.02 328.84,-281.66 332.01,-275.42"/>
</g>
<!-- 91 -->
<g id="node10" class="node">
<title>91</title>
<polygon fill="#f2f9fd" stroke="black" points="547,-274 398,-274 398,-191 547,-191 547,-274"/>
<text text-anchor="middle" x="472.5" y="-258.8" font-family="Times,serif" font-size="14.00">nbproc &lt;= 4.5</text>
<text text-anchor="middle" x="472.5" y="-243.8" font-family="Times,serif" font-size="14.00">gini = 0.499</text>
<text text-anchor="middle" x="472.5" y="-228.8" font-family="Times,serif" font-size="14.00">samples = 240</text>
<text text-anchor="middle" x="472.5" y="-213.8" font-family="Times,serif" font-size="14.00">value = [116, 124]</text>
<text text-anchor="middle" x="472.5" y="-198.8" font-family="Times,serif" font-size="14.00">class = True</text>
</g>
<!-- 1&#45;&gt;91 -->
<g id="edge9" class="edge">
<title>1&#45;&gt;91</title>
<path fill="none" stroke="black" d="M472.5,-309.91C472.5,-301.65 472.5,-292.86 472.5,-284.3"/>
<polygon fill="black" stroke="black" points="476,-284.02 472.5,-274.02 469,-284.02 476,-284.02"/>
</g>
<!-- 3 -->
<g id="node4" class="node">
<title>3</title>
<polygon fill="#ffffff" stroke="black" points="149,-155 0,-155 0,-72 149,-72 149,-155"/>
<text text-anchor="middle" x="74.5" y="-139.8" font-family="Times,serif" font-size="14.00">nbproc &lt;= 4.5</text>
<text text-anchor="middle" x="74.5" y="-124.8" font-family="Times,serif" font-size="14.00">gini = 0.5</text>
<text text-anchor="middle" x="74.5" y="-109.8" font-family="Times,serif" font-size="14.00">samples = 1595</text>
<text text-anchor="middle" x="74.5" y="-94.8" font-family="Times,serif" font-size="14.00">value = [797, 798]</text>
<text text-anchor="middle" x="74.5" y="-79.8" font-family="Times,serif" font-size="14.00">class = True</text>
</g>
<!-- 2&#45;&gt;3 -->
<g id="edge3" class="edge">
<title>2&#45;&gt;3</title>
<path fill="none" stroke="black" d="M183.56,-190.91C169.7,-181.2 154.8,-170.76 140.6,-160.81"/>
<polygon fill="black" stroke="black" points="142.54,-157.89 132.34,-155.02 138.52,-163.63 142.54,-157.89"/>
</g>
<!-- 34 -->
<g id="node7" class="node">
<title>34</title>
<polygon fill="#fcfeff" stroke="black" points="316,-155 167,-155 167,-72 316,-72 316,-155"/>
<text text-anchor="middle" x="241.5" y="-139.8" font-family="Times,serif" font-size="14.00">sdComm &lt;= 0.2</text>
<text text-anchor="middle" x="241.5" y="-124.8" font-family="Times,serif" font-size="14.00">gini = 0.5</text>
<text text-anchor="middle" x="241.5" y="-109.8" font-family="Times,serif" font-size="14.00">samples = 1844</text>
<text text-anchor="middle" x="241.5" y="-94.8" font-family="Times,serif" font-size="14.00">value = [916, 928]</text>
<text text-anchor="middle" x="241.5" y="-79.8" font-family="Times,serif" font-size="14.00">class = True</text>
</g>
<!-- 2&#45;&gt;34 -->
<g id="edge6" class="edge">
<title>2&#45;&gt;34</title>
<path fill="none" stroke="black" d="M241.5,-190.91C241.5,-182.65 241.5,-173.86 241.5,-165.3"/>
<polygon fill="black" stroke="black" points="245,-165.02 241.5,-155.02 238,-165.02 245,-165.02"/>
</g>
<!-- 4 -->
<g id="node5" class="node">
<title>4</title>
<polygon fill="#c0c0c0" stroke="black" points="65.5,-36 11.5,-36 11.5,0 65.5,0 65.5,-36"/>
<text text-anchor="middle" x="38.5" y="-14.3" font-family="Times,serif" font-size="14.00">(...)</text>
</g>
<!-- 3&#45;&gt;4 -->
<g id="edge4" class="edge">
<title>3&#45;&gt;4</title>
<path fill="none" stroke="black" d="M58.81,-71.76C55.46,-63.04 51.99,-54.04 48.89,-45.99"/>
<polygon fill="black" stroke="black" points="52.06,-44.48 45.2,-36.41 45.53,-46.99 52.06,-44.48"/>
</g>
<!-- 19 -->
<g id="node6" class="node">
<title>19</title>
<polygon fill="#c0c0c0" stroke="black" points="137.5,-36 83.5,-36 83.5,0 137.5,0 137.5,-36"/>
<text text-anchor="middle" x="110.5" y="-14.3" font-family="Times,serif" font-size="14.00">(...)</text>
</g>
<!-- 3&#45;&gt;19 -->
<g id="edge5" class="edge">
<title>3&#45;&gt;19</title>
<path fill="none" stroke="black" d="M90.19,-71.76C93.54,-63.04 97.01,-54.04 100.11,-45.99"/>
<polygon fill="black" stroke="black" points="103.47,-46.99 103.8,-36.41 96.94,-44.48 103.47,-46.99"/>
</g>
<!-- 35 -->
<g id="node8" class="node">
<title>35</title>
<polygon fill="#c0c0c0" stroke="black" points="239.5,-36 185.5,-36 185.5,0 239.5,0 239.5,-36"/>
<text text-anchor="middle" x="212.5" y="-14.3" font-family="Times,serif" font-size="14.00">(...)</text>
</g>
<!-- 34&#45;&gt;35 -->
<g id="edge7" class="edge">
<title>34&#45;&gt;35</title>
<path fill="none" stroke="black" d="M228.86,-71.76C226.16,-63.04 223.37,-54.04 220.87,-45.99"/>
<polygon fill="black" stroke="black" points="224.2,-44.92 217.9,-36.41 217.52,-46.99 224.2,-44.92"/>
</g>
<!-- 46 -->
<g id="node9" class="node">
<title>46</title>
<polygon fill="#c0c0c0" stroke="black" points="311.5,-36 257.5,-36 257.5,0 311.5,0 311.5,-36"/>
<text text-anchor="middle" x="284.5" y="-14.3" font-family="Times,serif" font-size="14.00">(...)</text>
</g>
<!-- 34&#45;&gt;46 -->
<g id="edge8" class="edge">
<title>34&#45;&gt;46</title>
<path fill="none" stroke="black" d="M260.24,-71.76C264.29,-62.94 268.48,-53.84 272.21,-45.72"/>
<polygon fill="black" stroke="black" points="275.5,-46.95 276.5,-36.41 269.14,-44.03 275.5,-46.95"/>
</g>
<!-- 92 -->
<g id="node11" class="node">
<title>92</title>
<polygon fill="#d6ebfa" stroke="black" points="468.5,-155 334.5,-155 334.5,-72 468.5,-72 468.5,-155"/>
<text text-anchor="middle" x="401.5" y="-139.8" font-family="Times,serif" font-size="14.00">sdComm &lt;= 2.0</text>
<text text-anchor="middle" x="401.5" y="-124.8" font-family="Times,serif" font-size="14.00">gini = 0.493</text>
<text text-anchor="middle" x="401.5" y="-109.8" font-family="Times,serif" font-size="14.00">samples = 70</text>
<text text-anchor="middle" x="401.5" y="-94.8" font-family="Times,serif" font-size="14.00">value = [31, 39]</text>
<text text-anchor="middle" x="401.5" y="-79.8" font-family="Times,serif" font-size="14.00">class = True</text>
</g>
<!-- 91&#45;&gt;92 -->
<g id="edge10" class="edge">
<title>91&#45;&gt;92</title>
<path fill="none" stroke="black" d="M447.87,-190.91C442.53,-182.1 436.82,-172.7 431.3,-163.61"/>
<polygon fill="black" stroke="black" points="434.27,-161.75 426.09,-155.02 428.29,-165.39 434.27,-161.75"/>
</g>
<!-- 97 -->
<g id="node14" class="node">
<title>97</title>
<polygon fill="#ffffff" stroke="black" points="620.5,-155 486.5,-155 486.5,-72 620.5,-72 620.5,-155"/>
<text text-anchor="middle" x="553.5" y="-139.8" font-family="Times,serif" font-size="14.00">sdComm &lt;= 2.0</text>
<text text-anchor="middle" x="553.5" y="-124.8" font-family="Times,serif" font-size="14.00">gini = 0.5</text>
<text text-anchor="middle" x="553.5" y="-109.8" font-family="Times,serif" font-size="14.00">samples = 170</text>
<text text-anchor="middle" x="553.5" y="-94.8" font-family="Times,serif" font-size="14.00">value = [85, 85]</text>
<text text-anchor="middle" x="553.5" y="-79.8" font-family="Times,serif" font-size="14.00">class = False</text>
</g>
<!-- 91&#45;&gt;97 -->
<g id="edge13" class="edge">
<title>91&#45;&gt;97</title>
<path fill="none" stroke="black" d="M500.6,-190.91C506.76,-182.01 513.34,-172.51 519.69,-163.33"/>
<polygon fill="black" stroke="black" points="522.63,-165.24 525.45,-155.02 516.88,-161.25 522.63,-165.24"/>
</g>
<!-- 93 -->
<g id="node12" class="node">
<title>93</title>
<polygon fill="#c0c0c0" stroke="black" points="406.5,-36 352.5,-36 352.5,0 406.5,0 406.5,-36"/>
<text text-anchor="middle" x="379.5" y="-14.3" font-family="Times,serif" font-size="14.00">(...)</text>
</g>
<!-- 92&#45;&gt;93 -->
<g id="edge11" class="edge">
<title>92&#45;&gt;93</title>
<path fill="none" stroke="black" d="M391.91,-71.76C389.89,-63.14 387.79,-54.24 385.91,-46.26"/>
<polygon fill="black" stroke="black" points="389.29,-45.34 383.6,-36.41 382.48,-46.94 389.29,-45.34"/>
</g>
<!-- 94 -->
<g id="node13" class="node">
<title>94</title>
<polygon fill="#c0c0c0" stroke="black" points="478.5,-36 424.5,-36 424.5,0 478.5,0 478.5,-36"/>
<text text-anchor="middle" x="451.5" y="-14.3" font-family="Times,serif" font-size="14.00">(...)</text>
</g>
<!-- 92&#45;&gt;94 -->
<g id="edge12" class="edge">
<title>92&#45;&gt;94</title>
<path fill="none" stroke="black" d="M423.29,-71.76C428.05,-62.85 432.98,-53.64 437.35,-45.46"/>
<polygon fill="black" stroke="black" points="440.56,-46.87 442.19,-36.41 434.39,-43.57 440.56,-46.87"/>
</g>
<!-- 98 -->
<g id="node15" class="node">
<title>98</title>
<polygon fill="#c0c0c0" stroke="black" points="565.5,-36 511.5,-36 511.5,0 565.5,0 565.5,-36"/>
<text text-anchor="middle" x="538.5" y="-14.3" font-family="Times,serif" font-size="14.00">(...)</text>
</g>
<!-- 97&#45;&gt;98 -->
<g id="edge14" class="edge">
<title>97&#45;&gt;98</title>
<path fill="none" stroke="black" d="M546.96,-71.76C545.6,-63.24 544.19,-54.44 542.92,-46.53"/>
<polygon fill="black" stroke="black" points="546.33,-45.72 541.29,-36.41 539.42,-46.83 546.33,-45.72"/>
</g>
<!-- 99 -->
<g id="node16" class="node">
<title>99</title>
<polygon fill="#c0c0c0" stroke="black" points="637.5,-36 583.5,-36 583.5,0 637.5,0 637.5,-36"/>
<text text-anchor="middle" x="610.5" y="-14.3" font-family="Times,serif" font-size="14.00">(...)</text>
</g>
<!-- 97&#45;&gt;99 -->
<g id="edge15" class="edge">
<title>97&#45;&gt;99</title>
<path fill="none" stroke="black" d="M578.34,-71.76C583.83,-62.75 589.51,-53.44 594.53,-45.19"/>
<polygon fill="black" stroke="black" points="597.67,-46.77 599.89,-36.41 591.7,-43.12 597.67,-46.77"/>
</g>
<!-- 103 -->
<g id="node18" class="node">
<title>103</title>
<polygon fill="#ffffff" stroke="black" points="909,-274 724,-274 724,-191 909,-191 909,-274"/>
<text text-anchor="middle" x="816.5" y="-258.8" font-family="Times,serif" font-size="14.00">sdComp &lt;= 0.02</text>
<text text-anchor="middle" x="816.5" y="-243.8" font-family="Times,serif" font-size="14.00">gini = 0.5</text>
<text text-anchor="middle" x="816.5" y="-228.8" font-family="Times,serif" font-size="14.00">samples = 23224</text>
<text text-anchor="middle" x="816.5" y="-213.8" font-family="Times,serif" font-size="14.00">value = [11612, 11612]</text>
<text text-anchor="middle" x="816.5" y="-198.8" font-family="Times,serif" font-size="14.00">class = False</text>
</g>
<!-- 102&#45;&gt;103 -->
<g id="edge17" class="edge">
<title>102&#45;&gt;103</title>
<path fill="none" stroke="black" d="M816.5,-309.91C816.5,-301.65 816.5,-292.86 816.5,-284.3"/>
<polygon fill="black" stroke="black" points="820,-284.02 816.5,-274.02 813,-284.02 820,-284.02"/>
</g>
<!-- 732 -->
<g id="node25" class="node">
<title>732</title>
<polygon fill="#fefeff" stroke="black" points="1189,-274 1022,-274 1022,-191 1189,-191 1189,-274"/>
<text text-anchor="middle" x="1105.5" y="-258.8" font-family="Times,serif" font-size="14.00">sdComp &lt;= 2.0</text>
<text text-anchor="middle" x="1105.5" y="-243.8" font-family="Times,serif" font-size="14.00">gini = 0.5</text>
<text text-anchor="middle" x="1105.5" y="-228.8" font-family="Times,serif" font-size="14.00">samples = 3674</text>
<text text-anchor="middle" x="1105.5" y="-213.8" font-family="Times,serif" font-size="14.00">value = [1831, 1843]</text>
<text text-anchor="middle" x="1105.5" y="-198.8" font-family="Times,serif" font-size="14.00">class = True</text>
</g>
<!-- 102&#45;&gt;732 -->
<g id="edge24" class="edge">
<title>102&#45;&gt;732</title>
<path fill="none" stroke="black" d="M909.13,-313C942.04,-299.67 979.09,-284.68 1012.06,-271.33"/>
<polygon fill="black" stroke="black" points="1013.75,-274.42 1021.7,-267.43 1011.12,-267.93 1013.75,-274.42"/>
</g>
<!-- 104 -->
<g id="node19" class="node">
<title>104</title>
<polygon fill="#ffffff" stroke="black" points="806,-155 639,-155 639,-72 806,-72 806,-155"/>
<text text-anchor="middle" x="722.5" y="-139.8" font-family="Times,serif" font-size="14.00">nbproc &lt;= 4.5</text>
<text text-anchor="middle" x="722.5" y="-124.8" font-family="Times,serif" font-size="14.00">gini = 0.5</text>
<text text-anchor="middle" x="722.5" y="-109.8" font-family="Times,serif" font-size="14.00">samples = 2124</text>
<text text-anchor="middle" x="722.5" y="-94.8" font-family="Times,serif" font-size="14.00">value = [1062, 1062]</text>
<text text-anchor="middle" x="722.5" y="-79.8" font-family="Times,serif" font-size="14.00">class = False</text>
</g>
<!-- 103&#45;&gt;104 -->
<g id="edge18" class="edge">
<title>103&#45;&gt;104</title>
<path fill="none" stroke="black" d="M783.89,-190.91C776.67,-181.92 768.95,-172.32 761.51,-163.05"/>
<polygon fill="black" stroke="black" points="764.05,-160.62 755.06,-155.02 758.59,-165.01 764.05,-160.62"/>
</g>
<!-- 185 -->
<g id="node22" class="node">
<title>185</title>
<polygon fill="#ffffff" stroke="black" points="1009,-155 824,-155 824,-72 1009,-72 1009,-155"/>
<text text-anchor="middle" x="916.5" y="-139.8" font-family="Times,serif" font-size="14.00">CCR &lt;= 0.55</text>
<text text-anchor="middle" x="916.5" y="-124.8" font-family="Times,serif" font-size="14.00">gini = 0.5</text>
<text text-anchor="middle" x="916.5" y="-109.8" font-family="Times,serif" font-size="14.00">samples = 21100</text>
<text text-anchor="middle" x="916.5" y="-94.8" font-family="Times,serif" font-size="14.00">value = [10550, 10550]</text>
<text text-anchor="middle" x="916.5" y="-79.8" font-family="Times,serif" font-size="14.00">class = False</text>
</g>
<!-- 103&#45;&gt;185 -->
<g id="edge21" class="edge">
<title>103&#45;&gt;185</title>
<path fill="none" stroke="black" d="M851.19,-190.91C858.95,-181.83 867.25,-172.12 875.24,-162.77"/>
<polygon fill="black" stroke="black" points="878.03,-164.9 881.87,-155.02 872.71,-160.35 878.03,-164.9"/>
</g>
<!-- 105 -->
<g id="node20" class="node">
<title>105</title>
<polygon fill="#c0c0c0" stroke="black" points="733.5,-36 679.5,-36 679.5,0 733.5,0 733.5,-36"/>
<text text-anchor="middle" x="706.5" y="-14.3" font-family="Times,serif" font-size="14.00">(...)</text>
</g>
<!-- 104&#45;&gt;105 -->
<g id="edge19" class="edge">
<title>104&#45;&gt;105</title>
<path fill="none" stroke="black" d="M715.53,-71.76C714.07,-63.24 712.56,-54.44 711.21,-46.53"/>
<polygon fill="black" stroke="black" points="714.62,-45.67 709.48,-36.41 707.72,-46.85 714.62,-45.67"/>
</g>
<!-- 146 -->
<g id="node21" class="node">
<title>146</title>
<polygon fill="#c0c0c0" stroke="black" points="805.5,-36 751.5,-36 751.5,0 805.5,0 805.5,-36"/>
<text text-anchor="middle" x="778.5" y="-14.3" font-family="Times,serif" font-size="14.00">(...)</text>
</g>
<!-- 104&#45;&gt;146 -->
<g id="edge20" class="edge">
<title>104&#45;&gt;146</title>
<path fill="none" stroke="black" d="M746.9,-71.76C752.3,-62.75 757.87,-53.44 762.81,-45.19"/>
<polygon fill="black" stroke="black" points="765.94,-46.78 768.08,-36.41 759.93,-43.19 765.94,-46.78"/>
</g>
<!-- 186 -->
<g id="node23" class="node">
<title>186</title>
<polygon fill="#c0c0c0" stroke="black" points="886.5,-36 832.5,-36 832.5,0 886.5,0 886.5,-36"/>
<text text-anchor="middle" x="859.5" y="-14.3" font-family="Times,serif" font-size="14.00">(...)</text>
</g>
<!-- 185&#45;&gt;186 -->
<g id="edge22" class="edge">
<title>185&#45;&gt;186</title>
<path fill="none" stroke="black" d="M891.66,-71.76C886.17,-62.75 880.49,-53.44 875.47,-45.19"/>
<polygon fill="black" stroke="black" points="878.3,-43.12 870.11,-36.41 872.33,-46.77 878.3,-43.12"/>
</g>
<!-- 339 -->
<g id="node24" class="node">
<title>339</title>
<polygon fill="#c0c0c0" stroke="black" points="958.5,-36 904.5,-36 904.5,0 958.5,0 958.5,-36"/>
<text text-anchor="middle" x="931.5" y="-14.3" font-family="Times,serif" font-size="14.00">(...)</text>
</g>
<!-- 185&#45;&gt;339 -->
<g id="edge23" class="edge">
<title>185&#45;&gt;339</title>
<path fill="none" stroke="black" d="M923.04,-71.76C924.4,-63.24 925.81,-54.44 927.08,-46.53"/>
<polygon fill="black" stroke="black" points="930.58,-46.83 928.71,-36.41 923.67,-45.72 930.58,-46.83"/>
</g>
<!-- 733 -->
<g id="node26" class="node">
<title>733</title>
<polygon fill="#fbfdfe" stroke="black" points="1184.5,-155 1026.5,-155 1026.5,-72 1184.5,-72 1184.5,-155"/>
<text text-anchor="middle" x="1105.5" y="-139.8" font-family="Times,serif" font-size="14.00">graphDepth &lt;= 6.5</text>
<text text-anchor="middle" x="1105.5" y="-124.8" font-family="Times,serif" font-size="14.00">gini = 0.5</text>
<text text-anchor="middle" x="1105.5" y="-109.8" font-family="Times,serif" font-size="14.00">samples = 1232</text>
<text text-anchor="middle" x="1105.5" y="-94.8" font-family="Times,serif" font-size="14.00">value = [610, 622]</text>
<text text-anchor="middle" x="1105.5" y="-79.8" font-family="Times,serif" font-size="14.00">class = True</text>
</g>
<!-- 732&#45;&gt;733 -->
<g id="edge25" class="edge">
<title>732&#45;&gt;733</title>
<path fill="none" stroke="black" d="M1105.5,-190.91C1105.5,-182.65 1105.5,-173.86 1105.5,-165.3"/>
<polygon fill="black" stroke="black" points="1109,-165.02 1105.5,-155.02 1102,-165.02 1109,-165.02"/>
</g>
<!-- 760 -->
<g id="node29" class="node">
<title>760</title>
<polygon fill="#ffffff" stroke="black" points="1369,-155 1202,-155 1202,-72 1369,-72 1369,-155"/>
<text text-anchor="middle" x="1285.5" y="-139.8" font-family="Times,serif" font-size="14.00">graphDepth &lt;= 6.5</text>
<text text-anchor="middle" x="1285.5" y="-124.8" font-family="Times,serif" font-size="14.00">gini = 0.5</text>
<text text-anchor="middle" x="1285.5" y="-109.8" font-family="Times,serif" font-size="14.00">samples = 2442</text>
<text text-anchor="middle" x="1285.5" y="-94.8" font-family="Times,serif" font-size="14.00">value = [1221, 1221]</text>
<text text-anchor="middle" x="1285.5" y="-79.8" font-family="Times,serif" font-size="14.00">class = False</text>
</g>
<!-- 732&#45;&gt;760 -->
<g id="edge28" class="edge">
<title>732&#45;&gt;760</title>
<path fill="none" stroke="black" d="M1167.95,-190.91C1183.03,-181.11 1199.25,-170.56 1214.68,-160.53"/>
<polygon fill="black" stroke="black" points="1216.68,-163.41 1223.16,-155.02 1212.87,-157.54 1216.68,-163.41"/>
</g>
<!-- 734 -->
<g id="node27" class="node">
<title>734</title>
<polygon fill="#c0c0c0" stroke="black" points="1096.5,-36 1042.5,-36 1042.5,0 1096.5,0 1096.5,-36"/>
<text text-anchor="middle" x="1069.5" y="-14.3" font-family="Times,serif" font-size="14.00">(...)</text>
</g>
<!-- 733&#45;&gt;734 -->
<g id="edge26" class="edge">
<title>733&#45;&gt;734</title>
<path fill="none" stroke="black" d="M1089.81,-71.76C1086.46,-63.04 1082.99,-54.04 1079.89,-45.99"/>
<polygon fill="black" stroke="black" points="1083.06,-44.48 1076.2,-36.41 1076.53,-46.99 1083.06,-44.48"/>
</g>
<!-- 741 -->
<g id="node28" class="node">
<title>741</title>
<polygon fill="#c0c0c0" stroke="black" points="1168.5,-36 1114.5,-36 1114.5,0 1168.5,0 1168.5,-36"/>
<text text-anchor="middle" x="1141.5" y="-14.3" font-family="Times,serif" font-size="14.00">(...)</text>
</g>
<!-- 733&#45;&gt;741 -->
<g id="edge27" class="edge">
<title>733&#45;&gt;741</title>
<path fill="none" stroke="black" d="M1121.19,-71.76C1124.54,-63.04 1128.01,-54.04 1131.11,-45.99"/>
<polygon fill="black" stroke="black" points="1134.47,-46.99 1134.8,-36.41 1127.94,-44.48 1134.47,-46.99"/>
</g>
<!-- 761 -->
<g id="node30" class="node">
<title>761</title>
<polygon fill="#c0c0c0" stroke="black" points="1276.5,-36 1222.5,-36 1222.5,0 1276.5,0 1276.5,-36"/>
<text text-anchor="middle" x="1249.5" y="-14.3" font-family="Times,serif" font-size="14.00">(...)</text>
</g>
<!-- 760&#45;&gt;761 -->
<g id="edge29" class="edge">
<title>760&#45;&gt;761</title>
<path fill="none" stroke="black" d="M1269.81,-71.76C1266.46,-63.04 1262.99,-54.04 1259.89,-45.99"/>
<polygon fill="black" stroke="black" points="1263.06,-44.48 1256.2,-36.41 1256.53,-46.99 1263.06,-44.48"/>
</g>
<!-- 776 -->
<g id="node31" class="node">
<title>776</title>
<polygon fill="#c0c0c0" stroke="black" points="1348.5,-36 1294.5,-36 1294.5,0 1348.5,0 1348.5,-36"/>
<text text-anchor="middle" x="1321.5" y="-14.3" font-family="Times,serif" font-size="14.00">(...)</text>
</g>
<!-- 760&#45;&gt;776 -->
<g id="edge30" class="edge">
<title>760&#45;&gt;776</title>
<path fill="none" stroke="black" d="M1301.19,-71.76C1304.54,-63.04 1308.01,-54.04 1311.11,-45.99"/>
<polygon fill="black" stroke="black" points="1314.47,-46.99 1314.8,-36.41 1307.94,-44.48 1314.47,-46.99"/>
</g>
</g>
</svg>
