<?xml version="1.0" encoding="UTF-8" standalone="no"?>
<!DOCTYPE svg PUBLIC "-//W3C//DTD SVG 1.1//EN"
 "http://www.w3.org/Graphics/SVG/1.1/DTD/svg11.dtd">
<!-- Generated by graphviz version 2.43.0 (0)
 -->
<!-- Title: Tree Pages: 1 -->
<svg width="1675pt" height="520pt"
 viewBox="0.00 0.00 1675.00 520.00" xmlns="http://www.w3.org/2000/svg" xmlns:xlink="http://www.w3.org/1999/xlink">
<g id="graph0" class="graph" transform="scale(1 1) rotate(0) translate(4 516)">
<title>Tree</title>
<polygon fill="white" stroke="transparent" points="-4,4 -4,-516 1671,-516 1671,4 -4,4"/>
<!-- 0 -->
<g id="node1" class="node">
<title>0</title>
<polygon fill="#ede3fb" stroke="black" points="966.5,-512 736.5,-512 736.5,-429 966.5,-429 966.5,-512"/>
<text text-anchor="middle" x="851.5" y="-496.8" font-family="Times,serif" font-size="14.00">CCR &lt;= 5.5</text>
<text text-anchor="middle" x="851.5" y="-481.8" font-family="Times,serif" font-size="14.00">gini = 0.632</text>
<text text-anchor="middle" x="851.5" y="-466.8" font-family="Times,serif" font-size="14.00">samples = 30577</text>
<text text-anchor="middle" x="851.5" y="-451.8" font-family="Times,serif" font-size="14.00">value = [5801, 10993, 13783]</text>
<text text-anchor="middle" x="851.5" y="-436.8" font-family="Times,serif" font-size="14.00">class = None</text>
</g>
<!-- 1 -->
<g id="node2" class="node">
<title>1</title>
<polygon fill="#b8f6d2" stroke="black" points="757,-393 536,-393 536,-310 757,-310 757,-393"/>
<text text-anchor="middle" x="646.5" y="-377.8" font-family="Times,serif" font-size="14.00">graphSize &lt;= 22.5</text>
<text text-anchor="middle" x="646.5" y="-362.8" font-family="Times,serif" font-size="14.00">gini = 0.603</text>
<text text-anchor="middle" x="646.5" y="-347.8" font-family="Times,serif" font-size="14.00">samples = 19063</text>
<text text-anchor="middle" x="646.5" y="-332.8" font-family="Times,serif" font-size="14.00">value = [5227, 10171, 3665]</text>
<text text-anchor="middle" x="646.5" y="-317.8" font-family="Times,serif" font-size="14.00">class = DCP</text>
</g>
<!-- 0&#45;&gt;1 -->
<g id="edge1" class="edge">
<title>0&#45;&gt;1</title>
<path fill="none" stroke="black" d="M780.38,-428.91C763.04,-419.02 744.39,-408.37 726.67,-398.25"/>
<polygon fill="black" stroke="black" points="727.92,-394.94 717.5,-393.02 724.45,-401.02 727.92,-394.94"/>
<text text-anchor="middle" x="724.09" y="-413.44" font-family="Times,serif" font-size="14.00">True</text>
</g>
<!-- 522 -->
<g id="node17" class="node">
<title>522</title>
<polygon fill="#9153e8" stroke="black" points="1171,-393 968,-393 968,-310 1171,-310 1171,-393"/>
<text text-anchor="middle" x="1069.5" y="-377.8" font-family="Times,serif" font-size="14.00">sdComp &lt;= 6.5</text>
<text text-anchor="middle" x="1069.5" y="-362.8" font-family="Times,serif" font-size="14.00">gini = 0.22</text>
<text text-anchor="middle" x="1069.5" y="-347.8" font-family="Times,serif" font-size="14.00">samples = 11514</text>
<text text-anchor="middle" x="1069.5" y="-332.8" font-family="Times,serif" font-size="14.00">value = [574, 822, 10118]</text>
<text text-anchor="middle" x="1069.5" y="-317.8" font-family="Times,serif" font-size="14.00">class = None</text>
</g>
<!-- 0&#45;&gt;522 -->
<g id="edge16" class="edge">
<title>0&#45;&gt;522</title>
<path fill="none" stroke="black" d="M927.13,-428.91C945.82,-418.88 965.95,-408.07 985.03,-397.84"/>
<polygon fill="black" stroke="black" points="986.84,-400.83 994,-393.02 983.53,-394.67 986.84,-400.83"/>
<text text-anchor="middle" x="986.78" y="-413.26" font-family="Times,serif" font-size="14.00">False</text>
</g>
<!-- 2 -->
<g id="node3" class="node">
<title>2</title>
<polygon fill="#c7f8dc" stroke="black" points="432.5,-274 220.5,-274 220.5,-191 432.5,-191 432.5,-274"/>
<text text-anchor="middle" x="326.5" y="-258.8" font-family="Times,serif" font-size="14.00">sdComm &lt;= 0.02</text>
<text text-anchor="middle" x="326.5" y="-243.8" font-family="Times,serif" font-size="14.00">gini = 0.602</text>
<text text-anchor="middle" x="326.5" y="-228.8" font-family="Times,serif" font-size="14.00">samples = 11893</text>
<text text-anchor="middle" x="326.5" y="-213.8" font-family="Times,serif" font-size="14.00">value = [3889, 6139, 1865]</text>
<text text-anchor="middle" x="326.5" y="-198.8" font-family="Times,serif" font-size="14.00">class = DCP</text>
</g>
<!-- 1&#45;&gt;2 -->
<g id="edge2" class="edge">
<title>1&#45;&gt;2</title>
<path fill="none" stroke="black" d="M535.93,-310.07C505.64,-299 472.73,-286.97 442.17,-275.79"/>
<polygon fill="black" stroke="black" points="443.35,-272.5 432.76,-272.35 440.95,-279.07 443.35,-272.5"/>
</g>
<!-- 141 -->
<g id="node10" class="node">
<title>141</title>
<polygon fill="#adf4cb" stroke="black" points="752.5,-274 540.5,-274 540.5,-191 752.5,-191 752.5,-274"/>
<text text-anchor="middle" x="646.5" y="-258.8" font-family="Times,serif" font-size="14.00">nbproc &lt;= 4.5</text>
<text text-anchor="middle" x="646.5" y="-243.8" font-family="Times,serif" font-size="14.00">gini = 0.586</text>
<text text-anchor="middle" x="646.5" y="-228.8" font-family="Times,serif" font-size="14.00">samples = 7170</text>
<text text-anchor="middle" x="646.5" y="-213.8" font-family="Times,serif" font-size="14.00">value = [1338, 4032, 1800]</text>
<text text-anchor="middle" x="646.5" y="-198.8" font-family="Times,serif" font-size="14.00">class = DCP</text>
</g>
<!-- 1&#45;&gt;141 -->
<g id="edge9" class="edge">
<title>1&#45;&gt;141</title>
<path fill="none" stroke="black" d="M646.5,-309.91C646.5,-301.65 646.5,-292.86 646.5,-284.3"/>
<polygon fill="black" stroke="black" points="650,-284.02 646.5,-274.02 643,-284.02 650,-284.02"/>
</g>
<!-- 3 -->
<g id="node4" class="node">
<title>3</title>
<polygon fill="#fdf6f1" stroke="black" points="203,-155 0,-155 0,-72 203,-72 203,-155"/>
<text text-anchor="middle" x="101.5" y="-139.8" font-family="Times,serif" font-size="14.00">graphDepth &lt;= 3.5</text>
<text text-anchor="middle" x="101.5" y="-124.8" font-family="Times,serif" font-size="14.00">gini = 0.576</text>
<text text-anchor="middle" x="101.5" y="-109.8" font-family="Times,serif" font-size="14.00">samples = 2422</text>
<text text-anchor="middle" x="101.5" y="-94.8" font-family="Times,serif" font-size="14.00">value = [1150, 1056, 216]</text>
<text text-anchor="middle" x="101.5" y="-79.8" font-family="Times,serif" font-size="14.00">class = DLS/DC</text>
</g>
<!-- 2&#45;&gt;3 -->
<g id="edge3" class="edge">
<title>2&#45;&gt;3</title>
<path fill="none" stroke="black" d="M248.44,-190.91C229.07,-180.83 208.19,-169.98 188.42,-159.7"/>
<polygon fill="black" stroke="black" points="189.91,-156.53 179.42,-155.02 186.68,-162.74 189.91,-156.53"/>
</g>
<!-- 26 -->
<g id="node7" class="node">
<title>26</title>
<polygon fill="#baf6d3" stroke="black" points="432.5,-155 220.5,-155 220.5,-72 432.5,-72 432.5,-155"/>
<text text-anchor="middle" x="326.5" y="-139.8" font-family="Times,serif" font-size="14.00">graphDepth &lt;= 3.5</text>
<text text-anchor="middle" x="326.5" y="-124.8" font-family="Times,serif" font-size="14.00">gini = 0.598</text>
<text text-anchor="middle" x="326.5" y="-109.8" font-family="Times,serif" font-size="14.00">samples = 9471</text>
<text text-anchor="middle" x="326.5" y="-94.8" font-family="Times,serif" font-size="14.00">value = [2739, 5083, 1649]</text>
<text text-anchor="middle" x="326.5" y="-79.8" font-family="Times,serif" font-size="14.00">class = DCP</text>
</g>
<!-- 2&#45;&gt;26 -->
<g id="edge6" class="edge">
<title>2&#45;&gt;26</title>
<path fill="none" stroke="black" d="M326.5,-190.91C326.5,-182.65 326.5,-173.86 326.5,-165.3"/>
<polygon fill="black" stroke="black" points="330,-165.02 326.5,-155.02 323,-165.02 330,-165.02"/>
</g>
<!-- 4 -->
<g id="node5" class="node">
<title>4</title>
<polygon fill="#c0c0c0" stroke="black" points="92.5,-36 38.5,-36 38.5,0 92.5,0 92.5,-36"/>
<text text-anchor="middle" x="65.5" y="-14.3" font-family="Times,serif" font-size="14.00">(...)</text>
</g>
<!-- 3&#45;&gt;4 -->
<g id="edge4" class="edge">
<title>3&#45;&gt;4</title>
<path fill="none" stroke="black" d="M85.81,-71.76C82.46,-63.04 78.99,-54.04 75.89,-45.99"/>
<polygon fill="black" stroke="black" points="79.06,-44.48 72.2,-36.41 72.53,-46.99 79.06,-44.48"/>
</g>
<!-- 15 -->
<g id="node6" class="node">
<title>15</title>
<polygon fill="#c0c0c0" stroke="black" points="164.5,-36 110.5,-36 110.5,0 164.5,0 164.5,-36"/>
<text text-anchor="middle" x="137.5" y="-14.3" font-family="Times,serif" font-size="14.00">(...)</text>
</g>
<!-- 3&#45;&gt;15 -->
<g id="edge5" class="edge">
<title>3&#45;&gt;15</title>
<path fill="none" stroke="black" d="M117.19,-71.76C120.54,-63.04 124.01,-54.04 127.11,-45.99"/>
<polygon fill="black" stroke="black" points="130.47,-46.99 130.8,-36.41 123.94,-44.48 130.47,-46.99"/>
</g>
<!-- 27 -->
<g id="node8" class="node">
<title>27</title>
<polygon fill="#c0c0c0" stroke="black" points="317.5,-36 263.5,-36 263.5,0 317.5,0 317.5,-36"/>
<text text-anchor="middle" x="290.5" y="-14.3" font-family="Times,serif" font-size="14.00">(...)</text>
</g>
<!-- 26&#45;&gt;27 -->
<g id="edge7" class="edge">
<title>26&#45;&gt;27</title>
<path fill="none" stroke="black" d="M310.81,-71.76C307.46,-63.04 303.99,-54.04 300.89,-45.99"/>
<polygon fill="black" stroke="black" points="304.06,-44.48 297.2,-36.41 297.53,-46.99 304.06,-44.48"/>
</g>
<!-- 82 -->
<g id="node9" class="node">
<title>82</title>
<polygon fill="#c0c0c0" stroke="black" points="389.5,-36 335.5,-36 335.5,0 389.5,0 389.5,-36"/>
<text text-anchor="middle" x="362.5" y="-14.3" font-family="Times,serif" font-size="14.00">(...)</text>
</g>
<!-- 26&#45;&gt;82 -->
<g id="edge8" class="edge">
<title>26&#45;&gt;82</title>
<path fill="none" stroke="black" d="M342.19,-71.76C345.54,-63.04 349.01,-54.04 352.11,-45.99"/>
<polygon fill="black" stroke="black" points="355.47,-46.99 355.8,-36.41 348.94,-44.48 355.47,-46.99"/>
</g>
<!-- 142 -->
<g id="node11" class="node">
<title>142</title>
<polygon fill="#ccf8df" stroke="black" points="644.5,-155 450.5,-155 450.5,-72 644.5,-72 644.5,-155"/>
<text text-anchor="middle" x="547.5" y="-139.8" font-family="Times,serif" font-size="14.00">graphSize &lt;= 75.0</text>
<text text-anchor="middle" x="547.5" y="-124.8" font-family="Times,serif" font-size="14.00">gini = 0.621</text>
<text text-anchor="middle" x="547.5" y="-109.8" font-family="Times,serif" font-size="14.00">samples = 2972</text>
<text text-anchor="middle" x="547.5" y="-94.8" font-family="Times,serif" font-size="14.00">value = [566, 1464, 942]</text>
<text text-anchor="middle" x="547.5" y="-79.8" font-family="Times,serif" font-size="14.00">class = DCP</text>
</g>
<!-- 141&#45;&gt;142 -->
<g id="edge10" class="edge">
<title>141&#45;&gt;142</title>
<path fill="none" stroke="black" d="M612.15,-190.91C604.47,-181.83 596.26,-172.12 588.34,-162.77"/>
<polygon fill="black" stroke="black" points="590.92,-160.39 581.79,-155.02 585.57,-164.92 590.92,-160.39"/>
</g>
<!-- 333 -->
<g id="node14" class="node">
<title>333</title>
<polygon fill="#9af2be" stroke="black" points="856.5,-155 662.5,-155 662.5,-72 856.5,-72 856.5,-155"/>
<text text-anchor="middle" x="759.5" y="-139.8" font-family="Times,serif" font-size="14.00">sdComm &lt;= 0.65</text>
<text text-anchor="middle" x="759.5" y="-124.8" font-family="Times,serif" font-size="14.00">gini = 0.55</text>
<text text-anchor="middle" x="759.5" y="-109.8" font-family="Times,serif" font-size="14.00">samples = 4198</text>
<text text-anchor="middle" x="759.5" y="-94.8" font-family="Times,serif" font-size="14.00">value = [772, 2568, 858]</text>
<text text-anchor="middle" x="759.5" y="-79.8" font-family="Times,serif" font-size="14.00">class = DCP</text>
</g>
<!-- 141&#45;&gt;333 -->
<g id="edge13" class="edge">
<title>141&#45;&gt;333</title>
<path fill="none" stroke="black" d="M685.7,-190.91C694.56,-181.74 704.04,-171.93 713.15,-162.49"/>
<polygon fill="black" stroke="black" points="715.93,-164.65 720.36,-155.02 710.9,-159.78 715.93,-164.65"/>
</g>
<!-- 143 -->
<g id="node12" class="node">
<title>143</title>
<polygon fill="#c0c0c0" stroke="black" points="536.5,-36 482.5,-36 482.5,0 536.5,0 536.5,-36"/>
<text text-anchor="middle" x="509.5" y="-14.3" font-family="Times,serif" font-size="14.00">(...)</text>
</g>
<!-- 142&#45;&gt;143 -->
<g id="edge11" class="edge">
<title>142&#45;&gt;143</title>
<path fill="none" stroke="black" d="M530.94,-71.76C527.36,-62.94 523.66,-53.84 520.36,-45.72"/>
<polygon fill="black" stroke="black" points="523.58,-44.35 516.57,-36.41 517.1,-46.99 523.58,-44.35"/>
</g>
<!-- 270 -->
<g id="node13" class="node">
<title>270</title>
<polygon fill="#c0c0c0" stroke="black" points="608.5,-36 554.5,-36 554.5,0 608.5,0 608.5,-36"/>
<text text-anchor="middle" x="581.5" y="-14.3" font-family="Times,serif" font-size="14.00">(...)</text>
</g>
<!-- 142&#45;&gt;270 -->
<g id="edge12" class="edge">
<title>142&#45;&gt;270</title>
<path fill="none" stroke="black" d="M562.31,-71.76C565.48,-63.04 568.76,-54.04 571.68,-45.99"/>
<polygon fill="black" stroke="black" points="575.04,-47 575.17,-36.41 568.46,-44.61 575.04,-47"/>
</g>
<!-- 334 -->
<g id="node15" class="node">
<title>334</title>
<polygon fill="#c0c0c0" stroke="black" points="745.5,-36 691.5,-36 691.5,0 745.5,0 745.5,-36"/>
<text text-anchor="middle" x="718.5" y="-14.3" font-family="Times,serif" font-size="14.00">(...)</text>
</g>
<!-- 333&#45;&gt;334 -->
<g id="edge14" class="edge">
<title>333&#45;&gt;334</title>
<path fill="none" stroke="black" d="M741.64,-71.76C737.77,-62.94 733.78,-53.84 730.22,-45.72"/>
<polygon fill="black" stroke="black" points="733.35,-44.16 726.13,-36.41 726.94,-46.97 733.35,-44.16"/>
</g>
<!-- 489 -->
<g id="node16" class="node">
<title>489</title>
<polygon fill="#c0c0c0" stroke="black" points="817.5,-36 763.5,-36 763.5,0 817.5,0 817.5,-36"/>
<text text-anchor="middle" x="790.5" y="-14.3" font-family="Times,serif" font-size="14.00">(...)</text>
</g>
<!-- 333&#45;&gt;489 -->
<g id="edge15" class="edge">
<title>333&#45;&gt;489</title>
<path fill="none" stroke="black" d="M773.01,-71.76C775.9,-63.04 778.88,-54.04 781.55,-45.99"/>
<polygon fill="black" stroke="black" points="784.9,-47 784.73,-36.41 778.26,-44.8 784.9,-47"/>
</g>
<!-- 523 -->
<g id="node18" class="node">
<title>523</title>
<polygon fill="#8d4be7" stroke="black" points="1166.5,-274 972.5,-274 972.5,-191 1166.5,-191 1166.5,-274"/>
<text text-anchor="middle" x="1069.5" y="-258.8" font-family="Times,serif" font-size="14.00">graphDepth &lt;= 9.0</text>
<text text-anchor="middle" x="1069.5" y="-243.8" font-family="Times,serif" font-size="14.00">gini = 0.162</text>
<text text-anchor="middle" x="1069.5" y="-228.8" font-family="Times,serif" font-size="14.00">samples = 8398</text>
<text text-anchor="middle" x="1069.5" y="-213.8" font-family="Times,serif" font-size="14.00">value = [184, 548, 7666]</text>
<text text-anchor="middle" x="1069.5" y="-198.8" font-family="Times,serif" font-size="14.00">class = None</text>
</g>
<!-- 522&#45;&gt;523 -->
<g id="edge17" class="edge">
<title>522&#45;&gt;523</title>
<path fill="none" stroke="black" d="M1069.5,-309.91C1069.5,-301.65 1069.5,-292.86 1069.5,-284.3"/>
<polygon fill="black" stroke="black" points="1073,-284.02 1069.5,-274.02 1066,-284.02 1073,-284.02"/>
</g>
<!-- 622 -->
<g id="node25" class="node">
<title>622</title>
<polygon fill="#a069eb" stroke="black" points="1482.5,-274 1288.5,-274 1288.5,-191 1482.5,-191 1482.5,-274"/>
<text text-anchor="middle" x="1385.5" y="-258.8" font-family="Times,serif" font-size="14.00">nbproc &lt;= 4.5</text>
<text text-anchor="middle" x="1385.5" y="-243.8" font-family="Times,serif" font-size="14.00">gini = 0.357</text>
<text text-anchor="middle" x="1385.5" y="-228.8" font-family="Times,serif" font-size="14.00">samples = 3116</text>
<text text-anchor="middle" x="1385.5" y="-213.8" font-family="Times,serif" font-size="14.00">value = [390, 274, 2452]</text>
<text text-anchor="middle" x="1385.5" y="-198.8" font-family="Times,serif" font-size="14.00">class = None</text>
</g>
<!-- 522&#45;&gt;622 -->
<g id="edge24" class="edge">
<title>522&#45;&gt;622</title>
<path fill="none" stroke="black" d="M1171.22,-312.84C1205.53,-300.14 1243.9,-285.93 1278.59,-273.08"/>
<polygon fill="black" stroke="black" points="1280.11,-276.25 1288.27,-269.5 1277.68,-269.69 1280.11,-276.25"/>
</g>
<!-- 524 -->
<g id="node19" class="node">
<title>524</title>
<polygon fill="#8742e6" stroke="black" points="1059,-155 874,-155 874,-72 1059,-72 1059,-155"/>
<text text-anchor="middle" x="966.5" y="-139.8" font-family="Times,serif" font-size="14.00">graphSize &lt;= 22.5</text>
<text text-anchor="middle" x="966.5" y="-124.8" font-family="Times,serif" font-size="14.00">gini = 0.086</text>
<text text-anchor="middle" x="966.5" y="-109.8" font-family="Times,serif" font-size="14.00">samples = 3784</text>
<text text-anchor="middle" x="966.5" y="-94.8" font-family="Times,serif" font-size="14.00">value = [60, 108, 3616]</text>
<text text-anchor="middle" x="966.5" y="-79.8" font-family="Times,serif" font-size="14.00">class = None</text>
</g>
<!-- 523&#45;&gt;524 -->
<g id="edge18" class="edge">
<title>523&#45;&gt;524</title>
<path fill="none" stroke="black" d="M1033.76,-190.91C1025.78,-181.83 1017.23,-172.12 1008.99,-162.77"/>
<polygon fill="black" stroke="black" points="1011.41,-160.21 1002.17,-155.02 1006.15,-164.84 1011.41,-160.21"/>
</g>
<!-- 557 -->
<g id="node22" class="node">
<title>557</title>
<polygon fill="#9254e9" stroke="black" points="1270.5,-155 1076.5,-155 1076.5,-72 1270.5,-72 1270.5,-155"/>
<text text-anchor="middle" x="1173.5" y="-139.8" font-family="Times,serif" font-size="14.00">sdComm &lt;= 2.0</text>
<text text-anchor="middle" x="1173.5" y="-124.8" font-family="Times,serif" font-size="14.00">gini = 0.22</text>
<text text-anchor="middle" x="1173.5" y="-109.8" font-family="Times,serif" font-size="14.00">samples = 4614</text>
<text text-anchor="middle" x="1173.5" y="-94.8" font-family="Times,serif" font-size="14.00">value = [124, 440, 4050]</text>
<text text-anchor="middle" x="1173.5" y="-79.8" font-family="Times,serif" font-size="14.00">class = None</text>
</g>
<!-- 523&#45;&gt;557 -->
<g id="edge21" class="edge">
<title>523&#45;&gt;557</title>
<path fill="none" stroke="black" d="M1105.58,-190.91C1113.65,-181.83 1122.28,-172.12 1130.59,-162.77"/>
<polygon fill="black" stroke="black" points="1133.45,-164.82 1137.48,-155.02 1128.22,-160.17 1133.45,-164.82"/>
</g>
<!-- 525 -->
<g id="node20" class="node">
<title>525</title>
<polygon fill="#c0c0c0" stroke="black" points="952.5,-36 898.5,-36 898.5,0 952.5,0 952.5,-36"/>
<text text-anchor="middle" x="925.5" y="-14.3" font-family="Times,serif" font-size="14.00">(...)</text>
</g>
<!-- 524&#45;&gt;525 -->
<g id="edge19" class="edge">
<title>524&#45;&gt;525</title>
<path fill="none" stroke="black" d="M948.64,-71.76C944.77,-62.94 940.78,-53.84 937.22,-45.72"/>
<polygon fill="black" stroke="black" points="940.35,-44.16 933.13,-36.41 933.94,-46.97 940.35,-44.16"/>
</g>
<!-- 556 -->
<g id="node21" class="node">
<title>556</title>
<polygon fill="#c0c0c0" stroke="black" points="1024.5,-36 970.5,-36 970.5,0 1024.5,0 1024.5,-36"/>
<text text-anchor="middle" x="997.5" y="-14.3" font-family="Times,serif" font-size="14.00">(...)</text>
</g>
<!-- 524&#45;&gt;556 -->
<g id="edge20" class="edge">
<title>524&#45;&gt;556</title>
<path fill="none" stroke="black" d="M980.01,-71.76C982.9,-63.04 985.88,-54.04 988.55,-45.99"/>
<polygon fill="black" stroke="black" points="991.9,-47 991.73,-36.41 985.26,-44.8 991.9,-47"/>
</g>
<!-- 558 -->
<g id="node23" class="node">
<title>558</title>
<polygon fill="#c0c0c0" stroke="black" points="1162.5,-36 1108.5,-36 1108.5,0 1162.5,0 1162.5,-36"/>
<text text-anchor="middle" x="1135.5" y="-14.3" font-family="Times,serif" font-size="14.00">(...)</text>
</g>
<!-- 557&#45;&gt;558 -->
<g id="edge22" class="edge">
<title>557&#45;&gt;558</title>
<path fill="none" stroke="black" d="M1156.94,-71.76C1153.36,-62.94 1149.66,-53.84 1146.36,-45.72"/>
<polygon fill="black" stroke="black" points="1149.58,-44.35 1142.57,-36.41 1143.1,-46.99 1149.58,-44.35"/>
</g>
<!-- 581 -->
<g id="node24" class="node">
<title>581</title>
<polygon fill="#c0c0c0" stroke="black" points="1234.5,-36 1180.5,-36 1180.5,0 1234.5,0 1234.5,-36"/>
<text text-anchor="middle" x="1207.5" y="-14.3" font-family="Times,serif" font-size="14.00">(...)</text>
</g>
<!-- 557&#45;&gt;581 -->
<g id="edge23" class="edge">
<title>557&#45;&gt;581</title>
<path fill="none" stroke="black" d="M1188.31,-71.76C1191.48,-63.04 1194.76,-54.04 1197.68,-45.99"/>
<polygon fill="black" stroke="black" points="1201.04,-47 1201.17,-36.41 1194.46,-44.61 1201.04,-47"/>
</g>
<!-- 623 -->
<g id="node26" class="node">
<title>623</title>
<polygon fill="#b286ef" stroke="black" points="1482.5,-155 1288.5,-155 1288.5,-72 1482.5,-72 1482.5,-155"/>
<text text-anchor="middle" x="1385.5" y="-139.8" font-family="Times,serif" font-size="14.00">graphSize &lt;= 75.0</text>
<text text-anchor="middle" x="1385.5" y="-124.8" font-family="Times,serif" font-size="14.00">gini = 0.48</text>
<text text-anchor="middle" x="1385.5" y="-109.8" font-family="Times,serif" font-size="14.00">samples = 2040</text>
<text text-anchor="middle" x="1385.5" y="-94.8" font-family="Times,serif" font-size="14.00">value = [378, 266, 1396]</text>
<text text-anchor="middle" x="1385.5" y="-79.8" font-family="Times,serif" font-size="14.00">class = None</text>
</g>
<!-- 622&#45;&gt;623 -->
<g id="edge25" class="edge">
<title>622&#45;&gt;623</title>
<path fill="none" stroke="black" d="M1385.5,-190.91C1385.5,-182.65 1385.5,-173.86 1385.5,-165.3"/>
<polygon fill="black" stroke="black" points="1389,-165.02 1385.5,-155.02 1382,-165.02 1389,-165.02"/>
</g>
<!-- 656 -->
<g id="node29" class="node">
<title>656</title>
<polygon fill="#833de5" stroke="black" points="1667,-155 1500,-155 1500,-72 1667,-72 1667,-155"/>
<text text-anchor="middle" x="1583.5" y="-139.8" font-family="Times,serif" font-size="14.00">graphSize &lt;= 22.5</text>
<text text-anchor="middle" x="1583.5" y="-124.8" font-family="Times,serif" font-size="14.00">gini = 0.037</text>
<text text-anchor="middle" x="1583.5" y="-109.8" font-family="Times,serif" font-size="14.00">samples = 1076</text>
<text text-anchor="middle" x="1583.5" y="-94.8" font-family="Times,serif" font-size="14.00">value = [12, 8, 1056]</text>
<text text-anchor="middle" x="1583.5" y="-79.8" font-family="Times,serif" font-size="14.00">class = None</text>
</g>
<!-- 622&#45;&gt;656 -->
<g id="edge28" class="edge">
<title>622&#45;&gt;656</title>
<path fill="none" stroke="black" d="M1454.2,-190.91C1470.94,-181.02 1488.95,-170.37 1506.07,-160.25"/>
<polygon fill="black" stroke="black" points="1508.1,-163.12 1514.93,-155.02 1504.54,-157.09 1508.1,-163.12"/>
</g>
<!-- 624 -->
<g id="node27" class="node">
<title>624</title>
<polygon fill="#c0c0c0" stroke="black" points="1376.5,-36 1322.5,-36 1322.5,0 1376.5,0 1376.5,-36"/>
<text text-anchor="middle" x="1349.5" y="-14.3" font-family="Times,serif" font-size="14.00">(...)</text>
</g>
<!-- 623&#45;&gt;624 -->
<g id="edge26" class="edge">
<title>623&#45;&gt;624</title>
<path fill="none" stroke="black" d="M1369.81,-71.76C1366.46,-63.04 1362.99,-54.04 1359.89,-45.99"/>
<polygon fill="black" stroke="black" points="1363.06,-44.48 1356.2,-36.41 1356.53,-46.99 1363.06,-44.48"/>
</g>
<!-- 651 -->
<g id="node28" class="node">
<title>651</title>
<polygon fill="#c0c0c0" stroke="black" points="1448.5,-36 1394.5,-36 1394.5,0 1448.5,0 1448.5,-36"/>
<text text-anchor="middle" x="1421.5" y="-14.3" font-family="Times,serif" font-size="14.00">(...)</text>
</g>
<!-- 623&#45;&gt;651 -->
<g id="edge27" class="edge">
<title>623&#45;&gt;651</title>
<path fill="none" stroke="black" d="M1401.19,-71.76C1404.54,-63.04 1408.01,-54.04 1411.11,-45.99"/>
<polygon fill="black" stroke="black" points="1414.47,-46.99 1414.8,-36.41 1407.94,-44.48 1414.47,-46.99"/>
</g>
<!-- 657 -->
<g id="node30" class="node">
<title>657</title>
<polygon fill="#c0c0c0" stroke="black" points="1574.5,-36 1520.5,-36 1520.5,0 1574.5,0 1574.5,-36"/>
<text text-anchor="middle" x="1547.5" y="-14.3" font-family="Times,serif" font-size="14.00">(...)</text>
</g>
<!-- 656&#45;&gt;657 -->
<g id="edge29" class="edge">
<title>656&#45;&gt;657</title>
<path fill="none" stroke="black" d="M1567.81,-71.76C1564.46,-63.04 1560.99,-54.04 1557.89,-45.99"/>
<polygon fill="black" stroke="black" points="1561.06,-44.48 1554.2,-36.41 1554.53,-46.99 1561.06,-44.48"/>
</g>
<!-- 662 -->
<g id="node31" class="node">
<title>662</title>
<polygon fill="#c0c0c0" stroke="black" points="1646.5,-36 1592.5,-36 1592.5,0 1646.5,0 1646.5,-36"/>
<text text-anchor="middle" x="1619.5" y="-14.3" font-family="Times,serif" font-size="14.00">(...)</text>
</g>
<!-- 656&#45;&gt;662 -->
<g id="edge30" class="edge">
<title>656&#45;&gt;662</title>
<path fill="none" stroke="black" d="M1599.19,-71.76C1602.54,-63.04 1606.01,-54.04 1609.11,-45.99"/>
<polygon fill="black" stroke="black" points="1612.47,-46.99 1612.8,-36.41 1605.94,-44.48 1612.47,-46.99"/>
</g>
</g>
</svg>
