<?xml version="1.0" encoding="UTF-8" standalone="no"?>
<!DOCTYPE svg PUBLIC "-//W3C//DTD SVG 1.1//EN"
 "http://www.w3.org/Graphics/SVG/1.1/DTD/svg11.dtd">
<!-- Generated by graphviz version 2.43.0 (0)
 -->
<!-- Title: Tree Pages: 1 -->
<svg width="1416pt" height="520pt"
 viewBox="0.00 0.00 1415.50 520.00" xmlns="http://www.w3.org/2000/svg" xmlns:xlink="http://www.w3.org/1999/xlink">
<g id="graph0" class="graph" transform="scale(1 1) rotate(0) translate(4 516)">
<title>Tree</title>
<polygon fill="white" stroke="transparent" points="-4,4 -4,-516 1411.5,-516 1411.5,4 -4,4"/>
<!-- 0 -->
<g id="node1" class="node">
<title>0</title>
<polygon fill="#a6d3f3" stroke="black" points="803,-512 618,-512 618,-429 803,-429 803,-512"/>
<text text-anchor="middle" x="710.5" y="-496.8" font-family="Times,serif" font-size="14.00">CCR &lt;= 5.5</text>
<text text-anchor="middle" x="710.5" y="-481.8" font-family="Times,serif" font-size="14.00">gini = 0.458</text>
<text text-anchor="middle" x="710.5" y="-466.8" font-family="Times,serif" font-size="14.00">samples = 30577</text>
<text text-anchor="middle" x="710.5" y="-451.8" font-family="Times,serif" font-size="14.00">value = [10834, 19743]</text>
<text text-anchor="middle" x="710.5" y="-436.8" font-family="Times,serif" font-size="14.00">class = True</text>
</g>
<!-- 1 -->
<g id="node2" class="node">
<title>1</title>
<polygon fill="#c9e4f8" stroke="black" points="613.5,-393 437.5,-393 437.5,-310 613.5,-310 613.5,-393"/>
<text text-anchor="middle" x="525.5" y="-377.8" font-family="Times,serif" font-size="14.00">nbproc &lt;= 4.5</text>
<text text-anchor="middle" x="525.5" y="-362.8" font-family="Times,serif" font-size="14.00">gini = 0.488</text>
<text text-anchor="middle" x="525.5" y="-347.8" font-family="Times,serif" font-size="14.00">samples = 19063</text>
<text text-anchor="middle" x="525.5" y="-332.8" font-family="Times,serif" font-size="14.00">value = [8040, 11023]</text>
<text text-anchor="middle" x="525.5" y="-317.8" font-family="Times,serif" font-size="14.00">class = True</text>
</g>
<!-- 0&#45;&gt;1 -->
<g id="edge1" class="edge">
<title>0&#45;&gt;1</title>
<path fill="none" stroke="black" d="M646.32,-428.91C630.82,-419.11 614.15,-408.56 598.29,-398.53"/>
<polygon fill="black" stroke="black" points="599.89,-395.41 589.57,-393.02 596.15,-401.32 599.89,-395.41"/>
<text text-anchor="middle" x="595.06" y="-413.71" font-family="Times,serif" font-size="14.00">True</text>
</g>
<!-- 490 -->
<g id="node17" class="node">
<title>490</title>
<polygon fill="#78bced" stroke="black" points="970,-393 803,-393 803,-310 970,-310 970,-393"/>
<text text-anchor="middle" x="886.5" y="-377.8" font-family="Times,serif" font-size="14.00">sdComp &lt;= 6.5</text>
<text text-anchor="middle" x="886.5" y="-362.8" font-family="Times,serif" font-size="14.00">gini = 0.368</text>
<text text-anchor="middle" x="886.5" y="-347.8" font-family="Times,serif" font-size="14.00">samples = 11514</text>
<text text-anchor="middle" x="886.5" y="-332.8" font-family="Times,serif" font-size="14.00">value = [2794, 8720]</text>
<text text-anchor="middle" x="886.5" y="-317.8" font-family="Times,serif" font-size="14.00">class = True</text>
</g>
<!-- 0&#45;&gt;490 -->
<g id="edge16" class="edge">
<title>0&#45;&gt;490</title>
<path fill="none" stroke="black" d="M771.56,-428.91C786.17,-419.2 801.87,-408.76 816.84,-398.81"/>
<polygon fill="black" stroke="black" points="819.16,-401.47 825.55,-393.02 815.28,-395.64 819.16,-401.47"/>
<text text-anchor="middle" x="820.61" y="-413.83" font-family="Times,serif" font-size="14.00">False</text>
</g>
<!-- 2 -->
<g id="node3" class="node">
<title>2</title>
<polygon fill="#afd8f5" stroke="black" points="334,-274 167,-274 167,-191 334,-191 334,-274"/>
<text text-anchor="middle" x="250.5" y="-258.8" font-family="Times,serif" font-size="14.00">graphDepth &lt;= 3.5</text>
<text text-anchor="middle" x="250.5" y="-243.8" font-family="Times,serif" font-size="14.00">gini = 0.468</text>
<text text-anchor="middle" x="250.5" y="-228.8" font-family="Times,serif" font-size="14.00">samples = 6305</text>
<text text-anchor="middle" x="250.5" y="-213.8" font-family="Times,serif" font-size="14.00">value = [2360, 3945]</text>
<text text-anchor="middle" x="250.5" y="-198.8" font-family="Times,serif" font-size="14.00">class = True</text>
</g>
<!-- 1&#45;&gt;2 -->
<g id="edge2" class="edge">
<title>1&#45;&gt;2</title>
<path fill="none" stroke="black" d="M437.35,-313C407.46,-300.28 373.97,-286.03 343.69,-273.15"/>
<polygon fill="black" stroke="black" points="344.97,-269.89 334.4,-269.2 342.23,-276.33 344.97,-269.89"/>
</g>
<!-- 229 -->
<g id="node10" class="node">
<title>229</title>
<polygon fill="#d8ecfa" stroke="black" points="609,-274 442,-274 442,-191 609,-191 609,-274"/>
<text text-anchor="middle" x="525.5" y="-258.8" font-family="Times,serif" font-size="14.00">sdComp &lt;= 0.65</text>
<text text-anchor="middle" x="525.5" y="-243.8" font-family="Times,serif" font-size="14.00">gini = 0.494</text>
<text text-anchor="middle" x="525.5" y="-228.8" font-family="Times,serif" font-size="14.00">samples = 12758</text>
<text text-anchor="middle" x="525.5" y="-213.8" font-family="Times,serif" font-size="14.00">value = [5680, 7078]</text>
<text text-anchor="middle" x="525.5" y="-198.8" font-family="Times,serif" font-size="14.00">class = True</text>
</g>
<!-- 1&#45;&gt;229 -->
<g id="edge9" class="edge">
<title>1&#45;&gt;229</title>
<path fill="none" stroke="black" d="M525.5,-309.91C525.5,-301.65 525.5,-292.86 525.5,-284.3"/>
<polygon fill="black" stroke="black" points="529,-284.02 525.5,-274.02 522,-284.02 529,-284.02"/>
</g>
<!-- 3 -->
<g id="node4" class="node">
<title>3</title>
<polygon fill="#5dafea" stroke="black" points="149,-155 0,-155 0,-72 149,-72 149,-155"/>
<text text-anchor="middle" x="74.5" y="-139.8" font-family="Times,serif" font-size="14.00">sdComp &lt;= 0.65</text>
<text text-anchor="middle" x="74.5" y="-124.8" font-family="Times,serif" font-size="14.00">gini = 0.259</text>
<text text-anchor="middle" x="74.5" y="-109.8" font-family="Times,serif" font-size="14.00">samples = 679</text>
<text text-anchor="middle" x="74.5" y="-94.8" font-family="Times,serif" font-size="14.00">value = [104, 575]</text>
<text text-anchor="middle" x="74.5" y="-79.8" font-family="Times,serif" font-size="14.00">class = True</text>
</g>
<!-- 2&#45;&gt;3 -->
<g id="edge3" class="edge">
<title>2&#45;&gt;3</title>
<path fill="none" stroke="black" d="M189.44,-190.91C174.83,-181.2 159.13,-170.76 144.16,-160.81"/>
<polygon fill="black" stroke="black" points="145.72,-157.64 135.45,-155.02 141.84,-163.47 145.72,-157.64"/>
</g>
<!-- 24 -->
<g id="node7" class="node">
<title>24</title>
<polygon fill="#bedff6" stroke="black" points="334,-155 167,-155 167,-72 334,-72 334,-155"/>
<text text-anchor="middle" x="250.5" y="-139.8" font-family="Times,serif" font-size="14.00">sdComp &lt;= 0.65</text>
<text text-anchor="middle" x="250.5" y="-124.8" font-family="Times,serif" font-size="14.00">gini = 0.48</text>
<text text-anchor="middle" x="250.5" y="-109.8" font-family="Times,serif" font-size="14.00">samples = 5626</text>
<text text-anchor="middle" x="250.5" y="-94.8" font-family="Times,serif" font-size="14.00">value = [2256, 3370]</text>
<text text-anchor="middle" x="250.5" y="-79.8" font-family="Times,serif" font-size="14.00">class = True</text>
</g>
<!-- 2&#45;&gt;24 -->
<g id="edge6" class="edge">
<title>2&#45;&gt;24</title>
<path fill="none" stroke="black" d="M250.5,-190.91C250.5,-182.65 250.5,-173.86 250.5,-165.3"/>
<polygon fill="black" stroke="black" points="254,-165.02 250.5,-155.02 247,-165.02 254,-165.02"/>
</g>
<!-- 4 -->
<g id="node5" class="node">
<title>4</title>
<polygon fill="#c0c0c0" stroke="black" points="65.5,-36 11.5,-36 11.5,0 65.5,0 65.5,-36"/>
<text text-anchor="middle" x="38.5" y="-14.3" font-family="Times,serif" font-size="14.00">(...)</text>
</g>
<!-- 3&#45;&gt;4 -->
<g id="edge4" class="edge">
<title>3&#45;&gt;4</title>
<path fill="none" stroke="black" d="M58.81,-71.76C55.46,-63.04 51.99,-54.04 48.89,-45.99"/>
<polygon fill="black" stroke="black" points="52.06,-44.48 45.2,-36.41 45.53,-46.99 52.06,-44.48"/>
</g>
<!-- 19 -->
<g id="node6" class="node">
<title>19</title>
<polygon fill="#c0c0c0" stroke="black" points="137.5,-36 83.5,-36 83.5,0 137.5,0 137.5,-36"/>
<text text-anchor="middle" x="110.5" y="-14.3" font-family="Times,serif" font-size="14.00">(...)</text>
</g>
<!-- 3&#45;&gt;19 -->
<g id="edge5" class="edge">
<title>3&#45;&gt;19</title>
<path fill="none" stroke="black" d="M90.19,-71.76C93.54,-63.04 97.01,-54.04 100.11,-45.99"/>
<polygon fill="black" stroke="black" points="103.47,-46.99 103.8,-36.41 96.94,-44.48 103.47,-46.99"/>
</g>
<!-- 25 -->
<g id="node8" class="node">
<title>25</title>
<polygon fill="#c0c0c0" stroke="black" points="248.5,-36 194.5,-36 194.5,0 248.5,0 248.5,-36"/>
<text text-anchor="middle" x="221.5" y="-14.3" font-family="Times,serif" font-size="14.00">(...)</text>
</g>
<!-- 24&#45;&gt;25 -->
<g id="edge7" class="edge">
<title>24&#45;&gt;25</title>
<path fill="none" stroke="black" d="M237.86,-71.76C235.16,-63.04 232.37,-54.04 229.87,-45.99"/>
<polygon fill="black" stroke="black" points="233.2,-44.92 226.9,-36.41 226.52,-46.99 233.2,-44.92"/>
</g>
<!-- 208 -->
<g id="node9" class="node">
<title>208</title>
<polygon fill="#c0c0c0" stroke="black" points="320.5,-36 266.5,-36 266.5,0 320.5,0 320.5,-36"/>
<text text-anchor="middle" x="293.5" y="-14.3" font-family="Times,serif" font-size="14.00">(...)</text>
</g>
<!-- 24&#45;&gt;208 -->
<g id="edge8" class="edge">
<title>24&#45;&gt;208</title>
<path fill="none" stroke="black" d="M269.24,-71.76C273.29,-62.94 277.48,-53.84 281.21,-45.72"/>
<polygon fill="black" stroke="black" points="284.5,-46.95 285.5,-36.41 278.14,-44.03 284.5,-46.95"/>
</g>
<!-- 230 -->
<g id="node11" class="node">
<title>230</title>
<polygon fill="#dceefa" stroke="black" points="519,-155 352,-155 352,-72 519,-72 519,-155"/>
<text text-anchor="middle" x="435.5" y="-139.8" font-family="Times,serif" font-size="14.00">graphSize &lt;= 22.5</text>
<text text-anchor="middle" x="435.5" y="-124.8" font-family="Times,serif" font-size="14.00">gini = 0.495</text>
<text text-anchor="middle" x="435.5" y="-109.8" font-family="Times,serif" font-size="14.00">samples = 11334</text>
<text text-anchor="middle" x="435.5" y="-94.8" font-family="Times,serif" font-size="14.00">value = [5116, 6218]</text>
<text text-anchor="middle" x="435.5" y="-79.8" font-family="Times,serif" font-size="14.00">class = True</text>
</g>
<!-- 229&#45;&gt;230 -->
<g id="edge10" class="edge">
<title>229&#45;&gt;230</title>
<path fill="none" stroke="black" d="M494.27,-190.91C487.36,-181.92 479.97,-172.32 472.85,-163.05"/>
<polygon fill="black" stroke="black" points="475.54,-160.81 466.67,-155.02 469.99,-165.08 475.54,-160.81"/>
</g>
<!-- 459 -->
<g id="node14" class="node">
<title>459</title>
<polygon fill="#bbddf6" stroke="black" points="704,-155 537,-155 537,-72 704,-72 704,-155"/>
<text text-anchor="middle" x="620.5" y="-139.8" font-family="Times,serif" font-size="14.00">graphDepth &lt;= 25.5</text>
<text text-anchor="middle" x="620.5" y="-124.8" font-family="Times,serif" font-size="14.00">gini = 0.478</text>
<text text-anchor="middle" x="620.5" y="-109.8" font-family="Times,serif" font-size="14.00">samples = 1424</text>
<text text-anchor="middle" x="620.5" y="-94.8" font-family="Times,serif" font-size="14.00">value = [564, 860]</text>
<text text-anchor="middle" x="620.5" y="-79.8" font-family="Times,serif" font-size="14.00">class = True</text>
</g>
<!-- 229&#45;&gt;459 -->
<g id="edge13" class="edge">
<title>229&#45;&gt;459</title>
<path fill="none" stroke="black" d="M558.46,-190.91C565.75,-181.92 573.56,-172.32 581.08,-163.05"/>
<polygon fill="black" stroke="black" points="584.01,-164.99 587.6,-155.02 578.58,-160.58 584.01,-164.99"/>
</g>
<!-- 231 -->
<g id="node12" class="node">
<title>231</title>
<polygon fill="#c0c0c0" stroke="black" points="410.5,-36 356.5,-36 356.5,0 410.5,0 410.5,-36"/>
<text text-anchor="middle" x="383.5" y="-14.3" font-family="Times,serif" font-size="14.00">(...)</text>
</g>
<!-- 230&#45;&gt;231 -->
<g id="edge11" class="edge">
<title>230&#45;&gt;231</title>
<path fill="none" stroke="black" d="M412.84,-71.76C407.83,-62.75 402.65,-53.44 398.07,-45.19"/>
<polygon fill="black" stroke="black" points="401.1,-43.44 393.18,-36.41 394.98,-46.85 401.1,-43.44"/>
</g>
<!-- 288 -->
<g id="node13" class="node">
<title>288</title>
<polygon fill="#c0c0c0" stroke="black" points="482.5,-36 428.5,-36 428.5,0 482.5,0 482.5,-36"/>
<text text-anchor="middle" x="455.5" y="-14.3" font-family="Times,serif" font-size="14.00">(...)</text>
</g>
<!-- 230&#45;&gt;288 -->
<g id="edge12" class="edge">
<title>230&#45;&gt;288</title>
<path fill="none" stroke="black" d="M444.21,-71.76C446.06,-63.14 447.96,-54.24 449.67,-46.26"/>
<polygon fill="black" stroke="black" points="453.11,-46.92 451.78,-36.41 446.26,-45.45 453.11,-46.92"/>
</g>
<!-- 460 -->
<g id="node15" class="node">
<title>460</title>
<polygon fill="#c0c0c0" stroke="black" points="595.5,-36 541.5,-36 541.5,0 595.5,0 595.5,-36"/>
<text text-anchor="middle" x="568.5" y="-14.3" font-family="Times,serif" font-size="14.00">(...)</text>
</g>
<!-- 459&#45;&gt;460 -->
<g id="edge14" class="edge">
<title>459&#45;&gt;460</title>
<path fill="none" stroke="black" d="M597.84,-71.76C592.83,-62.75 587.65,-53.44 583.07,-45.19"/>
<polygon fill="black" stroke="black" points="586.1,-43.44 578.18,-36.41 579.98,-46.85 586.1,-43.44"/>
</g>
<!-- 489 -->
<g id="node16" class="node">
<title>489</title>
<polygon fill="#c0c0c0" stroke="black" points="667.5,-36 613.5,-36 613.5,0 667.5,0 667.5,-36"/>
<text text-anchor="middle" x="640.5" y="-14.3" font-family="Times,serif" font-size="14.00">(...)</text>
</g>
<!-- 459&#45;&gt;489 -->
<g id="edge15" class="edge">
<title>459&#45;&gt;489</title>
<path fill="none" stroke="black" d="M629.21,-71.76C631.06,-63.14 632.96,-54.24 634.67,-46.26"/>
<polygon fill="black" stroke="black" points="638.11,-46.92 636.78,-36.41 631.26,-45.45 638.11,-46.92"/>
</g>
<!-- 491 -->
<g id="node18" class="node">
<title>491</title>
<polygon fill="#6eb7ec" stroke="black" points="970,-274 803,-274 803,-191 970,-191 970,-274"/>
<text text-anchor="middle" x="886.5" y="-258.8" font-family="Times,serif" font-size="14.00">graphDepth &lt;= 25.5</text>
<text text-anchor="middle" x="886.5" y="-243.8" font-family="Times,serif" font-size="14.00">gini = 0.335</text>
<text text-anchor="middle" x="886.5" y="-228.8" font-family="Times,serif" font-size="14.00">samples = 8398</text>
<text text-anchor="middle" x="886.5" y="-213.8" font-family="Times,serif" font-size="14.00">value = [1786, 6612]</text>
<text text-anchor="middle" x="886.5" y="-198.8" font-family="Times,serif" font-size="14.00">class = True</text>
</g>
<!-- 490&#45;&gt;491 -->
<g id="edge17" class="edge">
<title>490&#45;&gt;491</title>
<path fill="none" stroke="black" d="M886.5,-309.91C886.5,-301.65 886.5,-292.86 886.5,-284.3"/>
<polygon fill="black" stroke="black" points="890,-284.02 886.5,-274.02 883,-284.02 890,-284.02"/>
</g>
<!-- 630 -->
<g id="node25" class="node">
<title>630</title>
<polygon fill="#98ccf1" stroke="black" points="1236,-274 1069,-274 1069,-191 1236,-191 1236,-274"/>
<text text-anchor="middle" x="1152.5" y="-258.8" font-family="Times,serif" font-size="14.00">graphSize &lt;= 22.5</text>
<text text-anchor="middle" x="1152.5" y="-243.8" font-family="Times,serif" font-size="14.00">gini = 0.438</text>
<text text-anchor="middle" x="1152.5" y="-228.8" font-family="Times,serif" font-size="14.00">samples = 3116</text>
<text text-anchor="middle" x="1152.5" y="-213.8" font-family="Times,serif" font-size="14.00">value = [1008, 2108]</text>
<text text-anchor="middle" x="1152.5" y="-198.8" font-family="Times,serif" font-size="14.00">class = True</text>
</g>
<!-- 490&#45;&gt;630 -->
<g id="edge24" class="edge">
<title>490&#45;&gt;630</title>
<path fill="none" stroke="black" d="M970.3,-313.64C998.61,-301.19 1030.37,-287.22 1059.36,-274.47"/>
<polygon fill="black" stroke="black" points="1060.92,-277.6 1068.67,-270.37 1058.1,-271.2 1060.92,-277.6"/>
</g>
<!-- 492 -->
<g id="node19" class="node">
<title>492</title>
<polygon fill="#67b4eb" stroke="black" points="889,-155 722,-155 722,-72 889,-72 889,-155"/>
<text text-anchor="middle" x="805.5" y="-139.8" font-family="Times,serif" font-size="14.00">graphDepth &lt;= 3.5</text>
<text text-anchor="middle" x="805.5" y="-124.8" font-family="Times,serif" font-size="14.00">gini = 0.305</text>
<text text-anchor="middle" x="805.5" y="-109.8" font-family="Times,serif" font-size="14.00">samples = 7114</text>
<text text-anchor="middle" x="805.5" y="-94.8" font-family="Times,serif" font-size="14.00">value = [1338, 5776]</text>
<text text-anchor="middle" x="805.5" y="-79.8" font-family="Times,serif" font-size="14.00">class = True</text>
</g>
<!-- 491&#45;&gt;492 -->
<g id="edge18" class="edge">
<title>491&#45;&gt;492</title>
<path fill="none" stroke="black" d="M858.4,-190.91C852.24,-182.01 845.66,-172.51 839.31,-163.33"/>
<polygon fill="black" stroke="black" points="842.12,-161.25 833.55,-155.02 836.37,-165.24 842.12,-161.25"/>
</g>
<!-- 609 -->
<g id="node22" class="node">
<title>609</title>
<polygon fill="#a3d2f3" stroke="black" points="1056,-155 907,-155 907,-72 1056,-72 1056,-155"/>
<text text-anchor="middle" x="981.5" y="-139.8" font-family="Times,serif" font-size="14.00">nbproc &lt;= 4.5</text>
<text text-anchor="middle" x="981.5" y="-124.8" font-family="Times,serif" font-size="14.00">gini = 0.454</text>
<text text-anchor="middle" x="981.5" y="-109.8" font-family="Times,serif" font-size="14.00">samples = 1284</text>
<text text-anchor="middle" x="981.5" y="-94.8" font-family="Times,serif" font-size="14.00">value = [448, 836]</text>
<text text-anchor="middle" x="981.5" y="-79.8" font-family="Times,serif" font-size="14.00">class = True</text>
</g>
<!-- 491&#45;&gt;609 -->
<g id="edge21" class="edge">
<title>491&#45;&gt;609</title>
<path fill="none" stroke="black" d="M919.46,-190.91C926.75,-181.92 934.56,-172.32 942.08,-163.05"/>
<polygon fill="black" stroke="black" points="945.01,-164.99 948.6,-155.02 939.58,-160.58 945.01,-164.99"/>
</g>
<!-- 493 -->
<g id="node20" class="node">
<title>493</title>
<polygon fill="#c0c0c0" stroke="black" points="776.5,-36 722.5,-36 722.5,0 776.5,0 776.5,-36"/>
<text text-anchor="middle" x="749.5" y="-14.3" font-family="Times,serif" font-size="14.00">(...)</text>
</g>
<!-- 492&#45;&gt;493 -->
<g id="edge19" class="edge">
<title>492&#45;&gt;493</title>
<path fill="none" stroke="black" d="M781.1,-71.76C775.7,-62.75 770.13,-53.44 765.19,-45.19"/>
<polygon fill="black" stroke="black" points="768.07,-43.19 759.92,-36.41 762.06,-46.78 768.07,-43.19"/>
</g>
<!-- 506 -->
<g id="node21" class="node">
<title>506</title>
<polygon fill="#c0c0c0" stroke="black" points="848.5,-36 794.5,-36 794.5,0 848.5,0 848.5,-36"/>
<text text-anchor="middle" x="821.5" y="-14.3" font-family="Times,serif" font-size="14.00">(...)</text>
</g>
<!-- 492&#45;&gt;506 -->
<g id="edge20" class="edge">
<title>492&#45;&gt;506</title>
<path fill="none" stroke="black" d="M812.47,-71.76C813.93,-63.24 815.44,-54.44 816.79,-46.53"/>
<polygon fill="black" stroke="black" points="820.28,-46.85 818.52,-36.41 813.38,-45.67 820.28,-46.85"/>
</g>
<!-- 610 -->
<g id="node23" class="node">
<title>610</title>
<polygon fill="#c0c0c0" stroke="black" points="949.5,-36 895.5,-36 895.5,0 949.5,0 949.5,-36"/>
<text text-anchor="middle" x="922.5" y="-14.3" font-family="Times,serif" font-size="14.00">(...)</text>
</g>
<!-- 609&#45;&gt;610 -->
<g id="edge22" class="edge">
<title>609&#45;&gt;610</title>
<path fill="none" stroke="black" d="M955.79,-71.76C950.05,-62.65 944.1,-53.24 938.86,-44.92"/>
<polygon fill="black" stroke="black" points="941.78,-42.99 933.48,-36.41 935.86,-46.73 941.78,-42.99"/>
</g>
<!-- 619 -->
<g id="node24" class="node">
<title>619</title>
<polygon fill="#c0c0c0" stroke="black" points="1021.5,-36 967.5,-36 967.5,0 1021.5,0 1021.5,-36"/>
<text text-anchor="middle" x="994.5" y="-14.3" font-family="Times,serif" font-size="14.00">(...)</text>
</g>
<!-- 609&#45;&gt;619 -->
<g id="edge23" class="edge">
<title>609&#45;&gt;619</title>
<path fill="none" stroke="black" d="M987.16,-71.76C988.35,-63.24 989.57,-54.44 990.67,-46.53"/>
<polygon fill="black" stroke="black" points="994.17,-46.79 992.08,-36.41 987.24,-45.83 994.17,-46.79"/>
</g>
<!-- 631 -->
<g id="node26" class="node">
<title>631</title>
<polygon fill="#bbddf6" stroke="black" points="1231.5,-155 1073.5,-155 1073.5,-72 1231.5,-72 1231.5,-155"/>
<text text-anchor="middle" x="1152.5" y="-139.8" font-family="Times,serif" font-size="14.00">graphDepth &lt;= 3.5</text>
<text text-anchor="middle" x="1152.5" y="-124.8" font-family="Times,serif" font-size="14.00">gini = 0.479</text>
<text text-anchor="middle" x="1152.5" y="-109.8" font-family="Times,serif" font-size="14.00">samples = 1256</text>
<text text-anchor="middle" x="1152.5" y="-94.8" font-family="Times,serif" font-size="14.00">value = [498, 758]</text>
<text text-anchor="middle" x="1152.5" y="-79.8" font-family="Times,serif" font-size="14.00">class = True</text>
</g>
<!-- 630&#45;&gt;631 -->
<g id="edge25" class="edge">
<title>630&#45;&gt;631</title>
<path fill="none" stroke="black" d="M1152.5,-190.91C1152.5,-182.65 1152.5,-173.86 1152.5,-165.3"/>
<polygon fill="black" stroke="black" points="1156,-165.02 1152.5,-155.02 1149,-165.02 1156,-165.02"/>
</g>
<!-- 650 -->
<g id="node29" class="node">
<title>650</title>
<polygon fill="#84c2ef" stroke="black" points="1407.5,-155 1249.5,-155 1249.5,-72 1407.5,-72 1407.5,-155"/>
<text text-anchor="middle" x="1328.5" y="-139.8" font-family="Times,serif" font-size="14.00">sdComm &lt;= 2.0</text>
<text text-anchor="middle" x="1328.5" y="-124.8" font-family="Times,serif" font-size="14.00">gini = 0.398</text>
<text text-anchor="middle" x="1328.5" y="-109.8" font-family="Times,serif" font-size="14.00">samples = 1860</text>
<text text-anchor="middle" x="1328.5" y="-94.8" font-family="Times,serif" font-size="14.00">value = [510, 1350]</text>
<text text-anchor="middle" x="1328.5" y="-79.8" font-family="Times,serif" font-size="14.00">class = True</text>
</g>
<!-- 630&#45;&gt;650 -->
<g id="edge28" class="edge">
<title>630&#45;&gt;650</title>
<path fill="none" stroke="black" d="M1213.56,-190.91C1228.17,-181.2 1243.87,-170.76 1258.84,-160.81"/>
<polygon fill="black" stroke="black" points="1261.16,-163.47 1267.55,-155.02 1257.28,-157.64 1261.16,-163.47"/>
</g>
<!-- 632 -->
<g id="node27" class="node">
<title>632</title>
<polygon fill="#c0c0c0" stroke="black" points="1141.5,-36 1087.5,-36 1087.5,0 1141.5,0 1141.5,-36"/>
<text text-anchor="middle" x="1114.5" y="-14.3" font-family="Times,serif" font-size="14.00">(...)</text>
</g>
<!-- 631&#45;&gt;632 -->
<g id="edge26" class="edge">
<title>631&#45;&gt;632</title>
<path fill="none" stroke="black" d="M1135.94,-71.76C1132.36,-62.94 1128.66,-53.84 1125.36,-45.72"/>
<polygon fill="black" stroke="black" points="1128.58,-44.35 1121.57,-36.41 1122.1,-46.99 1128.58,-44.35"/>
</g>
<!-- 639 -->
<g id="node28" class="node">
<title>639</title>
<polygon fill="#c0c0c0" stroke="black" points="1213.5,-36 1159.5,-36 1159.5,0 1213.5,0 1213.5,-36"/>
<text text-anchor="middle" x="1186.5" y="-14.3" font-family="Times,serif" font-size="14.00">(...)</text>
</g>
<!-- 631&#45;&gt;639 -->
<g id="edge27" class="edge">
<title>631&#45;&gt;639</title>
<path fill="none" stroke="black" d="M1167.31,-71.76C1170.48,-63.04 1173.76,-54.04 1176.68,-45.99"/>
<polygon fill="black" stroke="black" points="1180.04,-47 1180.17,-36.41 1173.46,-44.61 1180.04,-47"/>
</g>
<!-- 651 -->
<g id="node30" class="node">
<title>651</title>
<polygon fill="#c0c0c0" stroke="black" points="1319.5,-36 1265.5,-36 1265.5,0 1319.5,0 1319.5,-36"/>
<text text-anchor="middle" x="1292.5" y="-14.3" font-family="Times,serif" font-size="14.00">(...)</text>
</g>
<!-- 650&#45;&gt;651 -->
<g id="edge29" class="edge">
<title>650&#45;&gt;651</title>
<path fill="none" stroke="black" d="M1312.81,-71.76C1309.46,-63.04 1305.99,-54.04 1302.89,-45.99"/>
<polygon fill="black" stroke="black" points="1306.06,-44.48 1299.2,-36.41 1299.53,-46.99 1306.06,-44.48"/>
</g>
<!-- 672 -->
<g id="node31" class="node">
<title>672</title>
<polygon fill="#c0c0c0" stroke="black" points="1391.5,-36 1337.5,-36 1337.5,0 1391.5,0 1391.5,-36"/>
<text text-anchor="middle" x="1364.5" y="-14.3" font-family="Times,serif" font-size="14.00">(...)</text>
</g>
<!-- 650&#45;&gt;672 -->
<g id="edge30" class="edge">
<title>650&#45;&gt;672</title>
<path fill="none" stroke="black" d="M1344.19,-71.76C1347.54,-63.04 1351.01,-54.04 1354.11,-45.99"/>
<polygon fill="black" stroke="black" points="1357.47,-46.99 1357.8,-36.41 1350.94,-44.48 1357.47,-46.99"/>
</g>
</g>
</svg>
