<?xml version="1.0" encoding="UTF-8" standalone="no"?>
<!DOCTYPE svg PUBLIC "-//W3C//DTD SVG 1.1//EN"
 "http://www.w3.org/Graphics/SVG/1.1/DTD/svg11.dtd">
<!-- Generated by graphviz version 2.43.0 (0)
 -->
<!-- Title: Tree Pages: 1 -->
<svg width="2426pt" height="520pt"
 viewBox="0.00 0.00 2426.00 520.00" xmlns="http://www.w3.org/2000/svg" xmlns:xlink="http://www.w3.org/1999/xlink">
<g id="graph0" class="graph" transform="scale(1 1) rotate(0) translate(4 516)">
<title>Tree</title>
<polygon fill="white" stroke="transparent" points="-4,4 -4,-516 2422,-516 2422,4 -4,4"/>
<!-- 0 -->
<g id="node1" class="node">
<title>0</title>
<polygon fill="#ffffff" stroke="black" points="1265,-512 918,-512 918,-429 1265,-429 1265,-512"/>
<text text-anchor="middle" x="1091.5" y="-496.8" font-family="Times,serif" font-size="14.00">sdComm &lt;= 0.065</text>
<text text-anchor="middle" x="1091.5" y="-481.8" font-family="Times,serif" font-size="14.00">gini = 0.833</text>
<text text-anchor="middle" x="1091.5" y="-466.8" font-family="Times,serif" font-size="14.00">samples = 30577</text>
<text text-anchor="middle" x="1091.5" y="-451.8" font-family="Times,serif" font-size="14.00">value = [5145, 5098, 5212, 4955, 4955, 5212]</text>
<text text-anchor="middle" x="1091.5" y="-436.8" font-family="Times,serif" font-size="14.00">class = maxmax</text>
</g>
<!-- 1 -->
<g id="node2" class="node">
<title>1</title>
<polygon fill="#ffffff" stroke="black" points="983,-393 636,-393 636,-310 983,-310 983,-393"/>
<text text-anchor="middle" x="809.5" y="-377.8" font-family="Times,serif" font-size="14.00">graphDepth &lt;= 3.5</text>
<text text-anchor="middle" x="809.5" y="-362.8" font-family="Times,serif" font-size="14.00">gini = 0.833</text>
<text text-anchor="middle" x="809.5" y="-347.8" font-family="Times,serif" font-size="14.00">samples = 7482</text>
<text text-anchor="middle" x="809.5" y="-332.8" font-family="Times,serif" font-size="14.00">value = [1186, 1104, 1344, 1252, 1252, 1344]</text>
<text text-anchor="middle" x="809.5" y="-317.8" font-family="Times,serif" font-size="14.00">class = maxmax</text>
</g>
<!-- 0&#45;&gt;1 -->
<g id="edge1" class="edge">
<title>0&#45;&gt;1</title>
<path fill="none" stroke="black" d="M993.66,-428.91C968.73,-418.56 941.8,-407.39 916.43,-396.87"/>
<polygon fill="black" stroke="black" points="917.74,-393.62 907.17,-393.02 915.06,-400.09 917.74,-393.62"/>
<text text-anchor="middle" x="916.72" y="-412.42" font-family="Times,serif" font-size="14.00">True</text>
</g>
<!-- 180 -->
<g id="node17" class="node">
<title>180</title>
<polygon fill="#ffffff" stroke="black" points="1581,-393 1234,-393 1234,-310 1581,-310 1581,-393"/>
<text text-anchor="middle" x="1407.5" y="-377.8" font-family="Times,serif" font-size="14.00">CCR &lt;= 0.55</text>
<text text-anchor="middle" x="1407.5" y="-362.8" font-family="Times,serif" font-size="14.00">gini = 0.833</text>
<text text-anchor="middle" x="1407.5" y="-347.8" font-family="Times,serif" font-size="14.00">samples = 23095</text>
<text text-anchor="middle" x="1407.5" y="-332.8" font-family="Times,serif" font-size="14.00">value = [3959, 3994, 3868, 3703, 3703, 3868]</text>
<text text-anchor="middle" x="1407.5" y="-317.8" font-family="Times,serif" font-size="14.00">class = median</text>
</g>
<!-- 0&#45;&gt;180 -->
<g id="edge16" class="edge">
<title>0&#45;&gt;180</title>
<path fill="none" stroke="black" d="M1201.13,-428.91C1229.32,-418.47 1259.78,-407.19 1288.42,-396.59"/>
<polygon fill="black" stroke="black" points="1289.9,-399.78 1298.06,-393.02 1287.47,-393.21 1289.9,-399.78"/>
<text text-anchor="middle" x="1287.62" y="-412.04" font-family="Times,serif" font-size="14.00">False</text>
</g>
<!-- 2 -->
<g id="node3" class="node">
<title>2</title>
<polygon fill="#ffffff" stroke="black" points="523,-274 230,-274 230,-191 523,-191 523,-274"/>
<text text-anchor="middle" x="376.5" y="-258.8" font-family="Times,serif" font-size="14.00">sdComm &lt;= 0.02</text>
<text text-anchor="middle" x="376.5" y="-243.8" font-family="Times,serif" font-size="14.00">gini = 0.828</text>
<text text-anchor="middle" x="376.5" y="-228.8" font-family="Times,serif" font-size="14.00">samples = 960</text>
<text text-anchor="middle" x="376.5" y="-213.8" font-family="Times,serif" font-size="14.00">value = [106, 142, 166, 190, 190, 166]</text>
<text text-anchor="middle" x="376.5" y="-198.8" font-family="Times,serif" font-size="14.00">class = minmax</text>
</g>
<!-- 1&#45;&gt;2 -->
<g id="edge2" class="edge">
<title>1&#45;&gt;2</title>
<path fill="none" stroke="black" d="M659.58,-309.99C618.63,-298.93 574.17,-286.91 532.87,-275.75"/>
<polygon fill="black" stroke="black" points="533.57,-272.32 523,-273.09 531.74,-279.07 533.57,-272.32"/>
</g>
<!-- 23 -->
<g id="node10" class="node">
<title>23</title>
<polygon fill="#ffffff" stroke="black" points="978.5,-274 640.5,-274 640.5,-191 978.5,-191 978.5,-274"/>
<text text-anchor="middle" x="809.5" y="-258.8" font-family="Times,serif" font-size="14.00">graphSize &lt;= 75.0</text>
<text text-anchor="middle" x="809.5" y="-243.8" font-family="Times,serif" font-size="14.00">gini = 0.833</text>
<text text-anchor="middle" x="809.5" y="-228.8" font-family="Times,serif" font-size="14.00">samples = 6522</text>
<text text-anchor="middle" x="809.5" y="-213.8" font-family="Times,serif" font-size="14.00">value = [1080, 962, 1178, 1062, 1062, 1178]</text>
<text text-anchor="middle" x="809.5" y="-198.8" font-family="Times,serif" font-size="14.00">class = maxmax</text>
</g>
<!-- 1&#45;&gt;23 -->
<g id="edge9" class="edge">
<title>1&#45;&gt;23</title>
<path fill="none" stroke="black" d="M809.5,-309.91C809.5,-301.65 809.5,-292.86 809.5,-284.3"/>
<polygon fill="black" stroke="black" points="813,-284.02 809.5,-274.02 806,-284.02 813,-284.02"/>
</g>
<!-- 3 -->
<g id="node4" class="node">
<title>3</title>
<polygon fill="#ffffff" stroke="black" points="239,-155 0,-155 0,-72 239,-72 239,-155"/>
<text text-anchor="middle" x="119.5" y="-139.8" font-family="Times,serif" font-size="14.00">nbproc &lt;= 4.5</text>
<text text-anchor="middle" x="119.5" y="-124.8" font-family="Times,serif" font-size="14.00">gini = 0.832</text>
<text text-anchor="middle" x="119.5" y="-109.8" font-family="Times,serif" font-size="14.00">samples = 542</text>
<text text-anchor="middle" x="119.5" y="-94.8" font-family="Times,serif" font-size="14.00">value = [86, 72, 98, 94, 94, 98]</text>
<text text-anchor="middle" x="119.5" y="-79.8" font-family="Times,serif" font-size="14.00">class = maxmax</text>
</g>
<!-- 2&#45;&gt;3 -->
<g id="edge3" class="edge">
<title>2&#45;&gt;3</title>
<path fill="none" stroke="black" d="M287.34,-190.91C264.91,-180.7 240.71,-169.68 217.87,-159.28"/>
<polygon fill="black" stroke="black" points="219.06,-155.98 208.51,-155.02 216.16,-162.35 219.06,-155.98"/>
</g>
<!-- 14 -->
<g id="node7" class="node">
<title>14</title>
<polygon fill="#ffffff" stroke="black" points="496,-155 257,-155 257,-72 496,-72 496,-155"/>
<text text-anchor="middle" x="376.5" y="-139.8" font-family="Times,serif" font-size="14.00">sdComp &lt;= 0.065</text>
<text text-anchor="middle" x="376.5" y="-124.8" font-family="Times,serif" font-size="14.00">gini = 0.811</text>
<text text-anchor="middle" x="376.5" y="-109.8" font-family="Times,serif" font-size="14.00">samples = 418</text>
<text text-anchor="middle" x="376.5" y="-94.8" font-family="Times,serif" font-size="14.00">value = [20, 70, 68, 96, 96, 68]</text>
<text text-anchor="middle" x="376.5" y="-79.8" font-family="Times,serif" font-size="14.00">class = minmax</text>
</g>
<!-- 2&#45;&gt;14 -->
<g id="edge6" class="edge">
<title>2&#45;&gt;14</title>
<path fill="none" stroke="black" d="M376.5,-190.91C376.5,-182.65 376.5,-173.86 376.5,-165.3"/>
<polygon fill="black" stroke="black" points="380,-165.02 376.5,-155.02 373,-165.02 380,-165.02"/>
</g>
<!-- 4 -->
<g id="node5" class="node">
<title>4</title>
<polygon fill="#c0c0c0" stroke="black" points="110.5,-36 56.5,-36 56.5,0 110.5,0 110.5,-36"/>
<text text-anchor="middle" x="83.5" y="-14.3" font-family="Times,serif" font-size="14.00">(...)</text>
</g>
<!-- 3&#45;&gt;4 -->
<g id="edge4" class="edge">
<title>3&#45;&gt;4</title>
<path fill="none" stroke="black" d="M103.81,-71.76C100.46,-63.04 96.99,-54.04 93.89,-45.99"/>
<polygon fill="black" stroke="black" points="97.06,-44.48 90.2,-36.41 90.53,-46.99 97.06,-44.48"/>
</g>
<!-- 9 -->
<g id="node6" class="node">
<title>9</title>
<polygon fill="#c0c0c0" stroke="black" points="182.5,-36 128.5,-36 128.5,0 182.5,0 182.5,-36"/>
<text text-anchor="middle" x="155.5" y="-14.3" font-family="Times,serif" font-size="14.00">(...)</text>
</g>
<!-- 3&#45;&gt;9 -->
<g id="edge5" class="edge">
<title>3&#45;&gt;9</title>
<path fill="none" stroke="black" d="M135.19,-71.76C138.54,-63.04 142.01,-54.04 145.11,-45.99"/>
<polygon fill="black" stroke="black" points="148.47,-46.99 148.8,-36.41 141.94,-44.48 148.47,-46.99"/>
</g>
<!-- 15 -->
<g id="node8" class="node">
<title>15</title>
<polygon fill="#c0c0c0" stroke="black" points="367.5,-36 313.5,-36 313.5,0 367.5,0 367.5,-36"/>
<text text-anchor="middle" x="340.5" y="-14.3" font-family="Times,serif" font-size="14.00">(...)</text>
</g>
<!-- 14&#45;&gt;15 -->
<g id="edge7" class="edge">
<title>14&#45;&gt;15</title>
<path fill="none" stroke="black" d="M360.81,-71.76C357.46,-63.04 353.99,-54.04 350.89,-45.99"/>
<polygon fill="black" stroke="black" points="354.06,-44.48 347.2,-36.41 347.53,-46.99 354.06,-44.48"/>
</g>
<!-- 20 -->
<g id="node9" class="node">
<title>20</title>
<polygon fill="#c0c0c0" stroke="black" points="439.5,-36 385.5,-36 385.5,0 439.5,0 439.5,-36"/>
<text text-anchor="middle" x="412.5" y="-14.3" font-family="Times,serif" font-size="14.00">(...)</text>
</g>
<!-- 14&#45;&gt;20 -->
<g id="edge8" class="edge">
<title>14&#45;&gt;20</title>
<path fill="none" stroke="black" d="M392.19,-71.76C395.54,-63.04 399.01,-54.04 402.11,-45.99"/>
<polygon fill="black" stroke="black" points="405.47,-46.99 405.8,-36.41 398.94,-44.48 405.47,-46.99"/>
</g>
<!-- 24 -->
<g id="node11" class="node">
<title>24</title>
<polygon fill="#ffffff" stroke="black" points="825,-155 514,-155 514,-72 825,-72 825,-155"/>
<text text-anchor="middle" x="669.5" y="-139.8" font-family="Times,serif" font-size="14.00">graphSize &lt;= 22.5</text>
<text text-anchor="middle" x="669.5" y="-124.8" font-family="Times,serif" font-size="14.00">gini = 0.832</text>
<text text-anchor="middle" x="669.5" y="-109.8" font-family="Times,serif" font-size="14.00">samples = 5884</text>
<text text-anchor="middle" x="669.5" y="-94.8" font-family="Times,serif" font-size="14.00">value = [990, 862, 1084, 932, 932, 1084]</text>
<text text-anchor="middle" x="669.5" y="-79.8" font-family="Times,serif" font-size="14.00">class = maxmax</text>
</g>
<!-- 23&#45;&gt;24 -->
<g id="edge10" class="edge">
<title>23&#45;&gt;24</title>
<path fill="none" stroke="black" d="M760.93,-190.91C749.63,-181.47 737.52,-171.34 725.92,-161.65"/>
<polygon fill="black" stroke="black" points="727.9,-158.75 717.99,-155.02 723.42,-164.12 727.9,-158.75"/>
</g>
<!-- 139 -->
<g id="node14" class="node">
<title>139</title>
<polygon fill="#ffffff" stroke="black" points="1109.5,-155 843.5,-155 843.5,-72 1109.5,-72 1109.5,-155"/>
<text text-anchor="middle" x="976.5" y="-139.8" font-family="Times,serif" font-size="14.00">sdComp &lt;= 0.065</text>
<text text-anchor="middle" x="976.5" y="-124.8" font-family="Times,serif" font-size="14.00">gini = 0.829</text>
<text text-anchor="middle" x="976.5" y="-109.8" font-family="Times,serif" font-size="14.00">samples = 638</text>
<text text-anchor="middle" x="976.5" y="-94.8" font-family="Times,serif" font-size="14.00">value = [90, 100, 94, 130, 130, 94]</text>
<text text-anchor="middle" x="976.5" y="-79.8" font-family="Times,serif" font-size="14.00">class = minmax</text>
</g>
<!-- 23&#45;&gt;139 -->
<g id="edge13" class="edge">
<title>23&#45;&gt;139</title>
<path fill="none" stroke="black" d="M867.44,-190.91C881.3,-181.2 896.2,-170.76 910.4,-160.81"/>
<polygon fill="black" stroke="black" points="912.48,-163.63 918.66,-155.02 908.46,-157.89 912.48,-163.63"/>
</g>
<!-- 25 -->
<g id="node12" class="node">
<title>25</title>
<polygon fill="#c0c0c0" stroke="black" points="660.5,-36 606.5,-36 606.5,0 660.5,0 660.5,-36"/>
<text text-anchor="middle" x="633.5" y="-14.3" font-family="Times,serif" font-size="14.00">(...)</text>
</g>
<!-- 24&#45;&gt;25 -->
<g id="edge11" class="edge">
<title>24&#45;&gt;25</title>
<path fill="none" stroke="black" d="M653.81,-71.76C650.46,-63.04 646.99,-54.04 643.89,-45.99"/>
<polygon fill="black" stroke="black" points="647.06,-44.48 640.2,-36.41 640.53,-46.99 647.06,-44.48"/>
</g>
<!-- 48 -->
<g id="node13" class="node">
<title>48</title>
<polygon fill="#c0c0c0" stroke="black" points="732.5,-36 678.5,-36 678.5,0 732.5,0 732.5,-36"/>
<text text-anchor="middle" x="705.5" y="-14.3" font-family="Times,serif" font-size="14.00">(...)</text>
</g>
<!-- 24&#45;&gt;48 -->
<g id="edge12" class="edge">
<title>24&#45;&gt;48</title>
<path fill="none" stroke="black" d="M685.19,-71.76C688.54,-63.04 692.01,-54.04 695.11,-45.99"/>
<polygon fill="black" stroke="black" points="698.47,-46.99 698.8,-36.41 691.94,-44.48 698.47,-46.99"/>
</g>
<!-- 140 -->
<g id="node15" class="node">
<title>140</title>
<polygon fill="#c0c0c0" stroke="black" points="967.5,-36 913.5,-36 913.5,0 967.5,0 967.5,-36"/>
<text text-anchor="middle" x="940.5" y="-14.3" font-family="Times,serif" font-size="14.00">(...)</text>
</g>
<!-- 139&#45;&gt;140 -->
<g id="edge14" class="edge">
<title>139&#45;&gt;140</title>
<path fill="none" stroke="black" d="M960.81,-71.76C957.46,-63.04 953.99,-54.04 950.89,-45.99"/>
<polygon fill="black" stroke="black" points="954.06,-44.48 947.2,-36.41 947.53,-46.99 954.06,-44.48"/>
</g>
<!-- 171 -->
<g id="node16" class="node">
<title>171</title>
<polygon fill="#c0c0c0" stroke="black" points="1039.5,-36 985.5,-36 985.5,0 1039.5,0 1039.5,-36"/>
<text text-anchor="middle" x="1012.5" y="-14.3" font-family="Times,serif" font-size="14.00">(...)</text>
</g>
<!-- 139&#45;&gt;171 -->
<g id="edge15" class="edge">
<title>139&#45;&gt;171</title>
<path fill="none" stroke="black" d="M992.19,-71.76C995.54,-63.04 999.01,-54.04 1002.11,-45.99"/>
<polygon fill="black" stroke="black" points="1005.47,-46.99 1005.8,-36.41 998.94,-44.48 1005.47,-46.99"/>
</g>
<!-- 181 -->
<g id="node18" class="node">
<title>181</title>
<polygon fill="#fefbf9" stroke="black" points="1554,-274 1261,-274 1261,-191 1554,-191 1554,-274"/>
<text text-anchor="middle" x="1407.5" y="-258.8" font-family="Times,serif" font-size="14.00">graphSize &lt;= 40.0</text>
<text text-anchor="middle" x="1407.5" y="-243.8" font-family="Times,serif" font-size="14.00">gini = 0.829</text>
<text text-anchor="middle" x="1407.5" y="-228.8" font-family="Times,serif" font-size="14.00">samples = 3645</text>
<text text-anchor="middle" x="1407.5" y="-213.8" font-family="Times,serif" font-size="14.00">value = [739, 642, 648, 484, 484, 648]</text>
<text text-anchor="middle" x="1407.5" y="-198.8" font-family="Times,serif" font-size="14.00">class = mean</text>
</g>
<!-- 180&#45;&gt;181 -->
<g id="edge17" class="edge">
<title>180&#45;&gt;181</title>
<path fill="none" stroke="black" d="M1407.5,-309.91C1407.5,-301.65 1407.5,-292.86 1407.5,-284.3"/>
<polygon fill="black" stroke="black" points="1411,-284.02 1407.5,-274.02 1404,-284.02 1411,-284.02"/>
</g>
<!-- 268 -->
<g id="node25" class="node">
<title>268</title>
<polygon fill="#fefffd" stroke="black" points="2053,-274 1706,-274 1706,-191 2053,-191 2053,-274"/>
<text text-anchor="middle" x="1879.5" y="-258.8" font-family="Times,serif" font-size="14.00">graphDepth &lt;= 6.5</text>
<text text-anchor="middle" x="1879.5" y="-243.8" font-family="Times,serif" font-size="14.00">gini = 0.833</text>
<text text-anchor="middle" x="1879.5" y="-228.8" font-family="Times,serif" font-size="14.00">samples = 19450</text>
<text text-anchor="middle" x="1879.5" y="-213.8" font-family="Times,serif" font-size="14.00">value = [3220, 3352, 3220, 3219, 3219, 3220]</text>
<text text-anchor="middle" x="1879.5" y="-198.8" font-family="Times,serif" font-size="14.00">class = median</text>
</g>
<!-- 180&#45;&gt;268 -->
<g id="edge24" class="edge">
<title>180&#45;&gt;268</title>
<path fill="none" stroke="black" d="M1570.93,-309.99C1614.51,-299.19 1661.75,-287.48 1705.86,-276.54"/>
<polygon fill="black" stroke="black" points="1706.95,-279.88 1715.81,-274.07 1705.27,-273.08 1706.95,-279.88"/>
</g>
<!-- 182 -->
<g id="node19" class="node">
<title>182</title>
<polygon fill="#ffffff" stroke="black" points="1421,-155 1128,-155 1128,-72 1421,-72 1421,-155"/>
<text text-anchor="middle" x="1274.5" y="-139.8" font-family="Times,serif" font-size="14.00">graphDepth &lt;= 3.5</text>
<text text-anchor="middle" x="1274.5" y="-124.8" font-family="Times,serif" font-size="14.00">gini = 0.828</text>
<text text-anchor="middle" x="1274.5" y="-109.8" font-family="Times,serif" font-size="14.00">samples = 3151</text>
<text text-anchor="middle" x="1274.5" y="-94.8" font-family="Times,serif" font-size="14.00">value = [607, 544, 604, 396, 396, 604]</text>
<text text-anchor="middle" x="1274.5" y="-79.8" font-family="Times,serif" font-size="14.00">class = mean</text>
</g>
<!-- 181&#45;&gt;182 -->
<g id="edge18" class="edge">
<title>181&#45;&gt;182</title>
<path fill="none" stroke="black" d="M1361.36,-190.91C1350.63,-181.47 1339.12,-171.34 1328.1,-161.65"/>
<polygon fill="black" stroke="black" points="1330.38,-159 1320.56,-155.02 1325.76,-164.25 1330.38,-159"/>
</g>
<!-- 227 -->
<g id="node22" class="node">
<title>227</title>
<polygon fill="#fdf4ee" stroke="black" points="1687.5,-155 1439.5,-155 1439.5,-72 1687.5,-72 1687.5,-155"/>
<text text-anchor="middle" x="1563.5" y="-139.8" font-family="Times,serif" font-size="14.00">graphDepth &lt;= 25.5</text>
<text text-anchor="middle" x="1563.5" y="-124.8" font-family="Times,serif" font-size="14.00">gini = 0.81</text>
<text text-anchor="middle" x="1563.5" y="-109.8" font-family="Times,serif" font-size="14.00">samples = 494</text>
<text text-anchor="middle" x="1563.5" y="-94.8" font-family="Times,serif" font-size="14.00">value = [132, 98, 44, 88, 88, 44]</text>
<text text-anchor="middle" x="1563.5" y="-79.8" font-family="Times,serif" font-size="14.00">class = mean</text>
</g>
<!-- 181&#45;&gt;227 -->
<g id="edge21" class="edge">
<title>181&#45;&gt;227</title>
<path fill="none" stroke="black" d="M1461.62,-190.91C1474.45,-181.29 1488.23,-170.95 1501.38,-161.09"/>
<polygon fill="black" stroke="black" points="1503.57,-163.82 1509.47,-155.02 1499.37,-158.22 1503.57,-163.82"/>
</g>
<!-- 183 -->
<g id="node20" class="node">
<title>183</title>
<polygon fill="#c0c0c0" stroke="black" points="1265.5,-36 1211.5,-36 1211.5,0 1265.5,0 1265.5,-36"/>
<text text-anchor="middle" x="1238.5" y="-14.3" font-family="Times,serif" font-size="14.00">(...)</text>
</g>
<!-- 182&#45;&gt;183 -->
<g id="edge19" class="edge">
<title>182&#45;&gt;183</title>
<path fill="none" stroke="black" d="M1258.81,-71.76C1255.46,-63.04 1251.99,-54.04 1248.89,-45.99"/>
<polygon fill="black" stroke="black" points="1252.06,-44.48 1245.2,-36.41 1245.53,-46.99 1252.06,-44.48"/>
</g>
<!-- 192 -->
<g id="node21" class="node">
<title>192</title>
<polygon fill="#c0c0c0" stroke="black" points="1337.5,-36 1283.5,-36 1283.5,0 1337.5,0 1337.5,-36"/>
<text text-anchor="middle" x="1310.5" y="-14.3" font-family="Times,serif" font-size="14.00">(...)</text>
</g>
<!-- 182&#45;&gt;192 -->
<g id="edge20" class="edge">
<title>182&#45;&gt;192</title>
<path fill="none" stroke="black" d="M1290.19,-71.76C1293.54,-63.04 1297.01,-54.04 1300.11,-45.99"/>
<polygon fill="black" stroke="black" points="1303.47,-46.99 1303.8,-36.41 1296.94,-44.48 1303.47,-46.99"/>
</g>
<!-- 228 -->
<g id="node23" class="node">
<title>228</title>
<polygon fill="#c0c0c0" stroke="black" points="1554.5,-36 1500.5,-36 1500.5,0 1554.5,0 1554.5,-36"/>
<text text-anchor="middle" x="1527.5" y="-14.3" font-family="Times,serif" font-size="14.00">(...)</text>
</g>
<!-- 227&#45;&gt;228 -->
<g id="edge22" class="edge">
<title>227&#45;&gt;228</title>
<path fill="none" stroke="black" d="M1547.81,-71.76C1544.46,-63.04 1540.99,-54.04 1537.89,-45.99"/>
<polygon fill="black" stroke="black" points="1541.06,-44.48 1534.2,-36.41 1534.53,-46.99 1541.06,-44.48"/>
</g>
<!-- 257 -->
<g id="node24" class="node">
<title>257</title>
<polygon fill="#c0c0c0" stroke="black" points="1626.5,-36 1572.5,-36 1572.5,0 1626.5,0 1626.5,-36"/>
<text text-anchor="middle" x="1599.5" y="-14.3" font-family="Times,serif" font-size="14.00">(...)</text>
</g>
<!-- 227&#45;&gt;257 -->
<g id="edge23" class="edge">
<title>227&#45;&gt;257</title>
<path fill="none" stroke="black" d="M1579.19,-71.76C1582.54,-63.04 1586.01,-54.04 1589.11,-45.99"/>
<polygon fill="black" stroke="black" points="1592.47,-46.99 1592.8,-36.41 1585.94,-44.48 1592.47,-46.99"/>
</g>
<!-- 269 -->
<g id="node26" class="node">
<title>269</title>
<polygon fill="#ffffff" stroke="black" points="2053,-155 1706,-155 1706,-72 2053,-72 2053,-155"/>
<text text-anchor="middle" x="1879.5" y="-139.8" font-family="Times,serif" font-size="14.00">CCR &lt;= 5.5</text>
<text text-anchor="middle" x="1879.5" y="-124.8" font-family="Times,serif" font-size="14.00">gini = 0.833</text>
<text text-anchor="middle" x="1879.5" y="-109.8" font-family="Times,serif" font-size="14.00">samples = 9712</text>
<text text-anchor="middle" x="1879.5" y="-94.8" font-family="Times,serif" font-size="14.00">value = [1536, 1614, 1594, 1687, 1687, 1594]</text>
<text text-anchor="middle" x="1879.5" y="-79.8" font-family="Times,serif" font-size="14.00">class = minmax</text>
</g>
<!-- 268&#45;&gt;269 -->
<g id="edge25" class="edge">
<title>268&#45;&gt;269</title>
<path fill="none" stroke="black" d="M1879.5,-190.91C1879.5,-182.65 1879.5,-173.86 1879.5,-165.3"/>
<polygon fill="black" stroke="black" points="1883,-165.02 1879.5,-155.02 1876,-165.02 1883,-165.02"/>
</g>
<!-- 478 -->
<g id="node29" class="node">
<title>478</title>
<polygon fill="#fefffe" stroke="black" points="2418,-155 2071,-155 2071,-72 2418,-72 2418,-155"/>
<text text-anchor="middle" x="2244.5" y="-139.8" font-family="Times,serif" font-size="14.00">sdComp &lt;= 0.2</text>
<text text-anchor="middle" x="2244.5" y="-124.8" font-family="Times,serif" font-size="14.00">gini = 0.833</text>
<text text-anchor="middle" x="2244.5" y="-109.8" font-family="Times,serif" font-size="14.00">samples = 9738</text>
<text text-anchor="middle" x="2244.5" y="-94.8" font-family="Times,serif" font-size="14.00">value = [1684, 1738, 1626, 1532, 1532, 1626]</text>
<text text-anchor="middle" x="2244.5" y="-79.8" font-family="Times,serif" font-size="14.00">class = median</text>
</g>
<!-- 268&#45;&gt;478 -->
<g id="edge28" class="edge">
<title>268&#45;&gt;478</title>
<path fill="none" stroke="black" d="M2005.88,-190.99C2038.87,-180.41 2074.58,-168.97 2108.07,-158.23"/>
<polygon fill="black" stroke="black" points="2109.47,-161.46 2117.92,-155.07 2107.33,-154.79 2109.47,-161.46"/>
</g>
<!-- 270 -->
<g id="node27" class="node">
<title>270</title>
<polygon fill="#c0c0c0" stroke="black" points="1870.5,-36 1816.5,-36 1816.5,0 1870.5,0 1870.5,-36"/>
<text text-anchor="middle" x="1843.5" y="-14.3" font-family="Times,serif" font-size="14.00">(...)</text>
</g>
<!-- 269&#45;&gt;270 -->
<g id="edge26" class="edge">
<title>269&#45;&gt;270</title>
<path fill="none" stroke="black" d="M1863.81,-71.76C1860.46,-63.04 1856.99,-54.04 1853.89,-45.99"/>
<polygon fill="black" stroke="black" points="1857.06,-44.48 1850.2,-36.41 1850.53,-46.99 1857.06,-44.48"/>
</g>
<!-- 377 -->
<g id="node28" class="node">
<title>377</title>
<polygon fill="#c0c0c0" stroke="black" points="1942.5,-36 1888.5,-36 1888.5,0 1942.5,0 1942.5,-36"/>
<text text-anchor="middle" x="1915.5" y="-14.3" font-family="Times,serif" font-size="14.00">(...)</text>
</g>
<!-- 269&#45;&gt;377 -->
<g id="edge27" class="edge">
<title>269&#45;&gt;377</title>
<path fill="none" stroke="black" d="M1895.19,-71.76C1898.54,-63.04 1902.01,-54.04 1905.11,-45.99"/>
<polygon fill="black" stroke="black" points="1908.47,-46.99 1908.8,-36.41 1901.94,-44.48 1908.47,-46.99"/>
</g>
<!-- 479 -->
<g id="node30" class="node">
<title>479</title>
<polygon fill="#c0c0c0" stroke="black" points="2235.5,-36 2181.5,-36 2181.5,0 2235.5,0 2235.5,-36"/>
<text text-anchor="middle" x="2208.5" y="-14.3" font-family="Times,serif" font-size="14.00">(...)</text>
</g>
<!-- 478&#45;&gt;479 -->
<g id="edge29" class="edge">
<title>478&#45;&gt;479</title>
<path fill="none" stroke="black" d="M2228.81,-71.76C2225.46,-63.04 2221.99,-54.04 2218.89,-45.99"/>
<polygon fill="black" stroke="black" points="2222.06,-44.48 2215.2,-36.41 2215.53,-46.99 2222.06,-44.48"/>
</g>
<!-- 536 -->
<g id="node31" class="node">
<title>536</title>
<polygon fill="#c0c0c0" stroke="black" points="2307.5,-36 2253.5,-36 2253.5,0 2307.5,0 2307.5,-36"/>
<text text-anchor="middle" x="2280.5" y="-14.3" font-family="Times,serif" font-size="14.00">(...)</text>
</g>
<!-- 478&#45;&gt;536 -->
<g id="edge30" class="edge">
<title>478&#45;&gt;536</title>
<path fill="none" stroke="black" d="M2260.19,-71.76C2263.54,-63.04 2267.01,-54.04 2270.11,-45.99"/>
<polygon fill="black" stroke="black" points="2273.47,-46.99 2273.8,-36.41 2266.94,-44.48 2273.47,-46.99"/>
</g>
</g>
</svg>
