<?xml version="1.0" encoding="UTF-8" standalone="no"?>
<!DOCTYPE svg PUBLIC "-//W3C//DTD SVG 1.1//EN"
 "http://www.w3.org/Graphics/SVG/1.1/DTD/svg11.dtd">
<!-- Generated by graphviz version 2.43.0 (0)
 -->
<!-- Title: Tree Pages: 1 -->
<svg width="2514pt" height="520pt"
 viewBox="0.00 0.00 2514.00 520.00" xmlns="http://www.w3.org/2000/svg" xmlns:xlink="http://www.w3.org/1999/xlink">
<g id="graph0" class="graph" transform="scale(1 1) rotate(0) translate(4 516)">
<title>Tree</title>
<polygon fill="white" stroke="transparent" points="-4,4 -4,-516 2510,-516 2510,4 -4,4"/>
<!-- 0 -->
<g id="node1" class="node">
<title>0</title>
<polygon fill="#fefaf8" stroke="black" points="1286.5,-512 930.5,-512 930.5,-429 1286.5,-429 1286.5,-512"/>
<text text-anchor="middle" x="1108.5" y="-496.8" font-family="Times,serif" font-size="14.00">graphDepth &lt;= 3.5</text>
<text text-anchor="middle" x="1108.5" y="-481.8" font-family="Times,serif" font-size="14.00">gini = 0.832</text>
<text text-anchor="middle" x="1108.5" y="-466.8" font-family="Times,serif" font-size="14.00">samples = 57574</text>
<text text-anchor="middle" x="1108.5" y="-451.8" font-family="Times,serif" font-size="14.00">value = [11123, 9241, 9278, 9327, 9327, 9278]</text>
<text text-anchor="middle" x="1108.5" y="-436.8" font-family="Times,serif" font-size="14.00">class = mean</text>
</g>
<!-- 1 -->
<g id="node2" class="node">
<title>1</title>
<polygon fill="#ffffff" stroke="black" points="994,-393 647,-393 647,-310 994,-310 994,-393"/>
<text text-anchor="middle" x="820.5" y="-377.8" font-family="Times,serif" font-size="14.00">CCR &lt;= 0.55</text>
<text text-anchor="middle" x="820.5" y="-362.8" font-family="Times,serif" font-size="14.00">gini = 0.833</text>
<text text-anchor="middle" x="820.5" y="-347.8" font-family="Times,serif" font-size="14.00">samples = 7148</text>
<text text-anchor="middle" x="820.5" y="-332.8" font-family="Times,serif" font-size="14.00">value = [1232, 1114, 1108, 1293, 1293, 1108]</text>
<text text-anchor="middle" x="820.5" y="-317.8" font-family="Times,serif" font-size="14.00">class = minmax</text>
</g>
<!-- 0&#45;&gt;1 -->
<g id="edge1" class="edge">
<title>0&#45;&gt;1</title>
<path fill="none" stroke="black" d="M1008.58,-428.91C983.11,-418.56 955.61,-407.39 929.71,-396.87"/>
<polygon fill="black" stroke="black" points="930.83,-393.54 920.24,-393.02 928.19,-400.03 930.83,-393.54"/>
<text text-anchor="middle" x="929.97" y="-412.35" font-family="Times,serif" font-size="14.00">True</text>
</g>
<!-- 76 -->
<g id="node17" class="node">
<title>76</title>
<polygon fill="#fefaf7" stroke="black" points="1634,-393 1287,-393 1287,-310 1634,-310 1634,-393"/>
<text text-anchor="middle" x="1460.5" y="-377.8" font-family="Times,serif" font-size="14.00">graphSize &lt;= 40.0</text>
<text text-anchor="middle" x="1460.5" y="-362.8" font-family="Times,serif" font-size="14.00">gini = 0.832</text>
<text text-anchor="middle" x="1460.5" y="-347.8" font-family="Times,serif" font-size="14.00">samples = 50426</text>
<text text-anchor="middle" x="1460.5" y="-332.8" font-family="Times,serif" font-size="14.00">value = [9891, 8127, 8170, 8034, 8034, 8170]</text>
<text text-anchor="middle" x="1460.5" y="-317.8" font-family="Times,serif" font-size="14.00">class = mean</text>
</g>
<!-- 0&#45;&gt;76 -->
<g id="edge16" class="edge">
<title>0&#45;&gt;76</title>
<path fill="none" stroke="black" d="M1230.62,-428.91C1262.3,-418.38 1296.54,-407 1328.69,-396.31"/>
<polygon fill="black" stroke="black" points="1330.21,-399.5 1338.59,-393.02 1328,-392.85 1330.21,-399.5"/>
<text text-anchor="middle" x="1327.39" y="-411.67" font-family="Times,serif" font-size="14.00">False</text>
</g>
<!-- 2 -->
<g id="node3" class="node">
<title>2</title>
<polygon fill="#ffffff" stroke="black" points="550,-274 257,-274 257,-191 550,-191 550,-274"/>
<text text-anchor="middle" x="403.5" y="-258.8" font-family="Times,serif" font-size="14.00">sdComp &lt;= 0.065</text>
<text text-anchor="middle" x="403.5" y="-243.8" font-family="Times,serif" font-size="14.00">gini = 0.833</text>
<text text-anchor="middle" x="403.5" y="-228.8" font-family="Times,serif" font-size="14.00">samples = 4100</text>
<text text-anchor="middle" x="403.5" y="-213.8" font-family="Times,serif" font-size="14.00">value = [692, 596, 712, 694, 694, 712]</text>
<text text-anchor="middle" x="403.5" y="-198.8" font-family="Times,serif" font-size="14.00">class = maxmax</text>
</g>
<!-- 1&#45;&gt;2 -->
<g id="edge2" class="edge">
<title>1&#45;&gt;2</title>
<path fill="none" stroke="black" d="M676.12,-309.99C637.93,-299.28 596.58,-287.67 557.89,-276.82"/>
<polygon fill="black" stroke="black" points="558.69,-273.41 548.11,-274.07 556.79,-280.15 558.69,-273.41"/>
</g>
<!-- 25 -->
<g id="node10" class="node">
<title>25</title>
<polygon fill="#ffffff" stroke="black" points="967,-274 674,-274 674,-191 967,-191 967,-274"/>
<text text-anchor="middle" x="820.5" y="-258.8" font-family="Times,serif" font-size="14.00">sdComm &lt;= 6.5</text>
<text text-anchor="middle" x="820.5" y="-243.8" font-family="Times,serif" font-size="14.00">gini = 0.829</text>
<text text-anchor="middle" x="820.5" y="-228.8" font-family="Times,serif" font-size="14.00">samples = 3048</text>
<text text-anchor="middle" x="820.5" y="-213.8" font-family="Times,serif" font-size="14.00">value = [540, 518, 396, 599, 599, 396]</text>
<text text-anchor="middle" x="820.5" y="-198.8" font-family="Times,serif" font-size="14.00">class = minmax</text>
</g>
<!-- 1&#45;&gt;25 -->
<g id="edge9" class="edge">
<title>1&#45;&gt;25</title>
<path fill="none" stroke="black" d="M820.5,-309.91C820.5,-301.65 820.5,-292.86 820.5,-284.3"/>
<polygon fill="black" stroke="black" points="824,-284.02 820.5,-274.02 817,-284.02 824,-284.02"/>
</g>
<!-- 3 -->
<g id="node4" class="node">
<title>3</title>
<polygon fill="#ffffff" stroke="black" points="239,-155 0,-155 0,-72 239,-72 239,-155"/>
<text text-anchor="middle" x="119.5" y="-139.8" font-family="Times,serif" font-size="14.00">sdComm &lt;= 0.02</text>
<text text-anchor="middle" x="119.5" y="-124.8" font-family="Times,serif" font-size="14.00">gini = 0.802</text>
<text text-anchor="middle" x="119.5" y="-109.8" font-family="Times,serif" font-size="14.00">samples = 364</text>
<text text-anchor="middle" x="119.5" y="-94.8" font-family="Times,serif" font-size="14.00">value = [34, 26, 58, 94, 94, 58]</text>
<text text-anchor="middle" x="119.5" y="-79.8" font-family="Times,serif" font-size="14.00">class = minmax</text>
</g>
<!-- 2&#45;&gt;3 -->
<g id="edge3" class="edge">
<title>2&#45;&gt;3</title>
<path fill="none" stroke="black" d="M304.97,-190.91C279.86,-180.56 252.74,-169.39 227.19,-158.87"/>
<polygon fill="black" stroke="black" points="228.44,-155.59 217.86,-155.02 225.77,-162.07 228.44,-155.59"/>
</g>
<!-- 14 -->
<g id="node7" class="node">
<title>14</title>
<polygon fill="#ffffff" stroke="black" points="550,-155 257,-155 257,-72 550,-72 550,-155"/>
<text text-anchor="middle" x="403.5" y="-139.8" font-family="Times,serif" font-size="14.00">sdComm &lt;= 0.02</text>
<text text-anchor="middle" x="403.5" y="-124.8" font-family="Times,serif" font-size="14.00">gini = 0.833</text>
<text text-anchor="middle" x="403.5" y="-109.8" font-family="Times,serif" font-size="14.00">samples = 3736</text>
<text text-anchor="middle" x="403.5" y="-94.8" font-family="Times,serif" font-size="14.00">value = [658, 570, 654, 600, 600, 654]</text>
<text text-anchor="middle" x="403.5" y="-79.8" font-family="Times,serif" font-size="14.00">class = mean</text>
</g>
<!-- 2&#45;&gt;14 -->
<g id="edge6" class="edge">
<title>2&#45;&gt;14</title>
<path fill="none" stroke="black" d="M403.5,-190.91C403.5,-182.65 403.5,-173.86 403.5,-165.3"/>
<polygon fill="black" stroke="black" points="407,-165.02 403.5,-155.02 400,-165.02 407,-165.02"/>
</g>
<!-- 4 -->
<g id="node5" class="node">
<title>4</title>
<polygon fill="#c0c0c0" stroke="black" points="110.5,-36 56.5,-36 56.5,0 110.5,0 110.5,-36"/>
<text text-anchor="middle" x="83.5" y="-14.3" font-family="Times,serif" font-size="14.00">(...)</text>
</g>
<!-- 3&#45;&gt;4 -->
<g id="edge4" class="edge">
<title>3&#45;&gt;4</title>
<path fill="none" stroke="black" d="M103.81,-71.76C100.46,-63.04 96.99,-54.04 93.89,-45.99"/>
<polygon fill="black" stroke="black" points="97.06,-44.48 90.2,-36.41 90.53,-46.99 97.06,-44.48"/>
</g>
<!-- 7 -->
<g id="node6" class="node">
<title>7</title>
<polygon fill="#c0c0c0" stroke="black" points="182.5,-36 128.5,-36 128.5,0 182.5,0 182.5,-36"/>
<text text-anchor="middle" x="155.5" y="-14.3" font-family="Times,serif" font-size="14.00">(...)</text>
</g>
<!-- 3&#45;&gt;7 -->
<g id="edge5" class="edge">
<title>3&#45;&gt;7</title>
<path fill="none" stroke="black" d="M135.19,-71.76C138.54,-63.04 142.01,-54.04 145.11,-45.99"/>
<polygon fill="black" stroke="black" points="148.47,-46.99 148.8,-36.41 141.94,-44.48 148.47,-46.99"/>
</g>
<!-- 15 -->
<g id="node8" class="node">
<title>15</title>
<polygon fill="#c0c0c0" stroke="black" points="394.5,-36 340.5,-36 340.5,0 394.5,0 394.5,-36"/>
<text text-anchor="middle" x="367.5" y="-14.3" font-family="Times,serif" font-size="14.00">(...)</text>
</g>
<!-- 14&#45;&gt;15 -->
<g id="edge7" class="edge">
<title>14&#45;&gt;15</title>
<path fill="none" stroke="black" d="M387.81,-71.76C384.46,-63.04 380.99,-54.04 377.89,-45.99"/>
<polygon fill="black" stroke="black" points="381.06,-44.48 374.2,-36.41 374.53,-46.99 381.06,-44.48"/>
</g>
<!-- 18 -->
<g id="node9" class="node">
<title>18</title>
<polygon fill="#c0c0c0" stroke="black" points="466.5,-36 412.5,-36 412.5,0 466.5,0 466.5,-36"/>
<text text-anchor="middle" x="439.5" y="-14.3" font-family="Times,serif" font-size="14.00">(...)</text>
</g>
<!-- 14&#45;&gt;18 -->
<g id="edge8" class="edge">
<title>14&#45;&gt;18</title>
<path fill="none" stroke="black" d="M419.19,-71.76C422.54,-63.04 426.01,-54.04 429.11,-45.99"/>
<polygon fill="black" stroke="black" points="432.47,-46.99 432.8,-36.41 425.94,-44.48 432.47,-46.99"/>
</g>
<!-- 26 -->
<g id="node11" class="node">
<title>26</title>
<polygon fill="#ffffff" stroke="black" points="861,-155 568,-155 568,-72 861,-72 861,-155"/>
<text text-anchor="middle" x="714.5" y="-139.8" font-family="Times,serif" font-size="14.00">nbproc &lt;= 4.5</text>
<text text-anchor="middle" x="714.5" y="-124.8" font-family="Times,serif" font-size="14.00">gini = 0.828</text>
<text text-anchor="middle" x="714.5" y="-109.8" font-family="Times,serif" font-size="14.00">samples = 2954</text>
<text text-anchor="middle" x="714.5" y="-94.8" font-family="Times,serif" font-size="14.00">value = [528, 500, 372, 591, 591, 372]</text>
<text text-anchor="middle" x="714.5" y="-79.8" font-family="Times,serif" font-size="14.00">class = minmax</text>
</g>
<!-- 25&#45;&gt;26 -->
<g id="edge10" class="edge">
<title>25&#45;&gt;26</title>
<path fill="none" stroke="black" d="M783.72,-190.91C775.42,-181.74 766.53,-171.93 757.98,-162.49"/>
<polygon fill="black" stroke="black" points="760.52,-160.08 751.21,-155.02 755.33,-164.78 760.52,-160.08"/>
</g>
<!-- 69 -->
<g id="node14" class="node">
<title>69</title>
<polygon fill="#ffffff" stroke="black" points="1100,-155 879,-155 879,-72 1100,-72 1100,-155"/>
<text text-anchor="middle" x="989.5" y="-139.8" font-family="Times,serif" font-size="14.00">nbproc &lt;= 4.5</text>
<text text-anchor="middle" x="989.5" y="-124.8" font-family="Times,serif" font-size="14.00">gini = 0.802</text>
<text text-anchor="middle" x="989.5" y="-109.8" font-family="Times,serif" font-size="14.00">samples = 94</text>
<text text-anchor="middle" x="989.5" y="-94.8" font-family="Times,serif" font-size="14.00">value = [12, 18, 24, 8, 8, 24]</text>
<text text-anchor="middle" x="989.5" y="-79.8" font-family="Times,serif" font-size="14.00">class = maxmax</text>
</g>
<!-- 25&#45;&gt;69 -->
<g id="edge13" class="edge">
<title>25&#45;&gt;69</title>
<path fill="none" stroke="black" d="M879.13,-190.91C893.16,-181.2 908.24,-170.76 922.61,-160.81"/>
<polygon fill="black" stroke="black" points="924.74,-163.59 930.97,-155.02 920.76,-157.84 924.74,-163.59"/>
</g>
<!-- 27 -->
<g id="node12" class="node">
<title>27</title>
<polygon fill="#c0c0c0" stroke="black" points="705.5,-36 651.5,-36 651.5,0 705.5,0 705.5,-36"/>
<text text-anchor="middle" x="678.5" y="-14.3" font-family="Times,serif" font-size="14.00">(...)</text>
</g>
<!-- 26&#45;&gt;27 -->
<g id="edge11" class="edge">
<title>26&#45;&gt;27</title>
<path fill="none" stroke="black" d="M698.81,-71.76C695.46,-63.04 691.99,-54.04 688.89,-45.99"/>
<polygon fill="black" stroke="black" points="692.06,-44.48 685.2,-36.41 685.53,-46.99 692.06,-44.48"/>
</g>
<!-- 40 -->
<g id="node13" class="node">
<title>40</title>
<polygon fill="#c0c0c0" stroke="black" points="777.5,-36 723.5,-36 723.5,0 777.5,0 777.5,-36"/>
<text text-anchor="middle" x="750.5" y="-14.3" font-family="Times,serif" font-size="14.00">(...)</text>
</g>
<!-- 26&#45;&gt;40 -->
<g id="edge12" class="edge">
<title>26&#45;&gt;40</title>
<path fill="none" stroke="black" d="M730.19,-71.76C733.54,-63.04 737.01,-54.04 740.11,-45.99"/>
<polygon fill="black" stroke="black" points="743.47,-46.99 743.8,-36.41 736.94,-44.48 743.47,-46.99"/>
</g>
<!-- 70 -->
<g id="node15" class="node">
<title>70</title>
<polygon fill="#c0c0c0" stroke="black" points="980.5,-36 926.5,-36 926.5,0 980.5,0 980.5,-36"/>
<text text-anchor="middle" x="953.5" y="-14.3" font-family="Times,serif" font-size="14.00">(...)</text>
</g>
<!-- 69&#45;&gt;70 -->
<g id="edge14" class="edge">
<title>69&#45;&gt;70</title>
<path fill="none" stroke="black" d="M973.81,-71.76C970.46,-63.04 966.99,-54.04 963.89,-45.99"/>
<polygon fill="black" stroke="black" points="967.06,-44.48 960.2,-36.41 960.53,-46.99 967.06,-44.48"/>
</g>
<!-- 73 -->
<g id="node16" class="node">
<title>73</title>
<polygon fill="#c0c0c0" stroke="black" points="1052.5,-36 998.5,-36 998.5,0 1052.5,0 1052.5,-36"/>
<text text-anchor="middle" x="1025.5" y="-14.3" font-family="Times,serif" font-size="14.00">(...)</text>
</g>
<!-- 69&#45;&gt;73 -->
<g id="edge15" class="edge">
<title>69&#45;&gt;73</title>
<path fill="none" stroke="black" d="M1005.19,-71.76C1008.54,-63.04 1012.01,-54.04 1015.11,-45.99"/>
<polygon fill="black" stroke="black" points="1018.47,-46.99 1018.8,-36.41 1011.94,-44.48 1018.47,-46.99"/>
</g>
<!-- 77 -->
<g id="node18" class="node">
<title>77</title>
<polygon fill="#fefbf9" stroke="black" points="1634,-274 1287,-274 1287,-191 1634,-191 1634,-274"/>
<text text-anchor="middle" x="1460.5" y="-258.8" font-family="Times,serif" font-size="14.00">CCR &lt;= 0.55</text>
<text text-anchor="middle" x="1460.5" y="-243.8" font-family="Times,serif" font-size="14.00">gini = 0.833</text>
<text text-anchor="middle" x="1460.5" y="-228.8" font-family="Times,serif" font-size="14.00">samples = 38553</text>
<text text-anchor="middle" x="1460.5" y="-213.8" font-family="Times,serif" font-size="14.00">value = [7336, 6229, 6366, 6128, 6128, 6366]</text>
<text text-anchor="middle" x="1460.5" y="-198.8" font-family="Times,serif" font-size="14.00">class = mean</text>
</g>
<!-- 76&#45;&gt;77 -->
<g id="edge17" class="edge">
<title>76&#45;&gt;77</title>
<path fill="none" stroke="black" d="M1460.5,-309.91C1460.5,-301.65 1460.5,-292.86 1460.5,-284.3"/>
<polygon fill="black" stroke="black" points="1464,-284.02 1460.5,-274.02 1457,-284.02 1464,-284.02"/>
</g>
<!-- 374 -->
<g id="node25" class="node">
<title>374</title>
<polygon fill="#fdf7f2" stroke="black" points="2168,-274 1821,-274 1821,-191 2168,-191 2168,-274"/>
<text text-anchor="middle" x="1994.5" y="-258.8" font-family="Times,serif" font-size="14.00">CCR &lt;= 0.55</text>
<text text-anchor="middle" x="1994.5" y="-243.8" font-family="Times,serif" font-size="14.00">gini = 0.83</text>
<text text-anchor="middle" x="1994.5" y="-228.8" font-family="Times,serif" font-size="14.00">samples = 11873</text>
<text text-anchor="middle" x="1994.5" y="-213.8" font-family="Times,serif" font-size="14.00">value = [2555, 1898, 1804, 1906, 1906, 1804]</text>
<text text-anchor="middle" x="1994.5" y="-198.8" font-family="Times,serif" font-size="14.00">class = mean</text>
</g>
<!-- 76&#45;&gt;374 -->
<g id="edge24" class="edge">
<title>76&#45;&gt;374</title>
<path fill="none" stroke="black" d="M1634.24,-312.43C1690.8,-300.04 1753.73,-286.25 1810.98,-273.71"/>
<polygon fill="black" stroke="black" points="1811.83,-277.11 1820.85,-271.55 1810.34,-270.27 1811.83,-277.11"/>
</g>
<!-- 78 -->
<g id="node19" class="node">
<title>78</title>
<polygon fill="#fefbf9" stroke="black" points="1465,-155 1118,-155 1118,-72 1465,-72 1465,-155"/>
<text text-anchor="middle" x="1291.5" y="-139.8" font-family="Times,serif" font-size="14.00">sdComm &lt;= 0.065</text>
<text text-anchor="middle" x="1291.5" y="-124.8" font-family="Times,serif" font-size="14.00">gini = 0.832</text>
<text text-anchor="middle" x="1291.5" y="-109.8" font-family="Times,serif" font-size="14.00">samples = 21044</text>
<text text-anchor="middle" x="1291.5" y="-94.8" font-family="Times,serif" font-size="14.00">value = [4066, 3430, 3516, 3258, 3258, 3516]</text>
<text text-anchor="middle" x="1291.5" y="-79.8" font-family="Times,serif" font-size="14.00">class = mean</text>
</g>
<!-- 77&#45;&gt;78 -->
<g id="edge18" class="edge">
<title>77&#45;&gt;78</title>
<path fill="none" stroke="black" d="M1401.87,-190.91C1387.84,-181.2 1372.76,-170.76 1358.39,-160.81"/>
<polygon fill="black" stroke="black" points="1360.24,-157.84 1350.03,-155.02 1356.26,-163.59 1360.24,-157.84"/>
</g>
<!-- 185 -->
<g id="node22" class="node">
<title>185</title>
<polygon fill="#fefcfa" stroke="black" points="1830,-155 1483,-155 1483,-72 1830,-72 1830,-155"/>
<text text-anchor="middle" x="1656.5" y="-139.8" font-family="Times,serif" font-size="14.00">sdComp &lt;= 0.65</text>
<text text-anchor="middle" x="1656.5" y="-124.8" font-family="Times,serif" font-size="14.00">gini = 0.833</text>
<text text-anchor="middle" x="1656.5" y="-109.8" font-family="Times,serif" font-size="14.00">samples = 17509</text>
<text text-anchor="middle" x="1656.5" y="-94.8" font-family="Times,serif" font-size="14.00">value = [3270, 2799, 2850, 2870, 2870, 2850]</text>
<text text-anchor="middle" x="1656.5" y="-79.8" font-family="Times,serif" font-size="14.00">class = mean</text>
</g>
<!-- 77&#45;&gt;185 -->
<g id="edge21" class="edge">
<title>77&#45;&gt;185</title>
<path fill="none" stroke="black" d="M1528.5,-190.91C1545.07,-181.02 1562.91,-170.37 1579.85,-160.25"/>
<polygon fill="black" stroke="black" points="1581.83,-163.15 1588.62,-155.02 1578.24,-157.14 1581.83,-163.15"/>
</g>
<!-- 79 -->
<g id="node20" class="node">
<title>79</title>
<polygon fill="#c0c0c0" stroke="black" points="1282.5,-36 1228.5,-36 1228.5,0 1282.5,0 1282.5,-36"/>
<text text-anchor="middle" x="1255.5" y="-14.3" font-family="Times,serif" font-size="14.00">(...)</text>
</g>
<!-- 78&#45;&gt;79 -->
<g id="edge19" class="edge">
<title>78&#45;&gt;79</title>
<path fill="none" stroke="black" d="M1275.81,-71.76C1272.46,-63.04 1268.99,-54.04 1265.89,-45.99"/>
<polygon fill="black" stroke="black" points="1269.06,-44.48 1262.2,-36.41 1262.53,-46.99 1269.06,-44.48"/>
</g>
<!-- 150 -->
<g id="node21" class="node">
<title>150</title>
<polygon fill="#c0c0c0" stroke="black" points="1354.5,-36 1300.5,-36 1300.5,0 1354.5,0 1354.5,-36"/>
<text text-anchor="middle" x="1327.5" y="-14.3" font-family="Times,serif" font-size="14.00">(...)</text>
</g>
<!-- 78&#45;&gt;150 -->
<g id="edge20" class="edge">
<title>78&#45;&gt;150</title>
<path fill="none" stroke="black" d="M1307.19,-71.76C1310.54,-63.04 1314.01,-54.04 1317.11,-45.99"/>
<polygon fill="black" stroke="black" points="1320.47,-46.99 1320.8,-36.41 1313.94,-44.48 1320.47,-46.99"/>
</g>
<!-- 186 -->
<g id="node23" class="node">
<title>186</title>
<polygon fill="#c0c0c0" stroke="black" points="1647.5,-36 1593.5,-36 1593.5,0 1647.5,0 1647.5,-36"/>
<text text-anchor="middle" x="1620.5" y="-14.3" font-family="Times,serif" font-size="14.00">(...)</text>
</g>
<!-- 185&#45;&gt;186 -->
<g id="edge22" class="edge">
<title>185&#45;&gt;186</title>
<path fill="none" stroke="black" d="M1640.81,-71.76C1637.46,-63.04 1633.99,-54.04 1630.89,-45.99"/>
<polygon fill="black" stroke="black" points="1634.06,-44.48 1627.2,-36.41 1627.53,-46.99 1634.06,-44.48"/>
</g>
<!-- 257 -->
<g id="node24" class="node">
<title>257</title>
<polygon fill="#c0c0c0" stroke="black" points="1719.5,-36 1665.5,-36 1665.5,0 1719.5,0 1719.5,-36"/>
<text text-anchor="middle" x="1692.5" y="-14.3" font-family="Times,serif" font-size="14.00">(...)</text>
</g>
<!-- 185&#45;&gt;257 -->
<g id="edge23" class="edge">
<title>185&#45;&gt;257</title>
<path fill="none" stroke="black" d="M1672.19,-71.76C1675.54,-63.04 1679.01,-54.04 1682.11,-45.99"/>
<polygon fill="black" stroke="black" points="1685.47,-46.99 1685.8,-36.41 1678.94,-44.48 1685.47,-46.99"/>
</g>
<!-- 375 -->
<g id="node26" class="node">
<title>375</title>
<polygon fill="#fcf3eb" stroke="black" points="2141,-155 1848,-155 1848,-72 2141,-72 2141,-155"/>
<text text-anchor="middle" x="1994.5" y="-139.8" font-family="Times,serif" font-size="14.00">graphDepth &lt;= 12.5</text>
<text text-anchor="middle" x="1994.5" y="-124.8" font-family="Times,serif" font-size="14.00">gini = 0.824</text>
<text text-anchor="middle" x="1994.5" y="-109.8" font-family="Times,serif" font-size="14.00">samples = 2850</text>
<text text-anchor="middle" x="1994.5" y="-94.8" font-family="Times,serif" font-size="14.00">value = [710, 400, 394, 476, 476, 394]</text>
<text text-anchor="middle" x="1994.5" y="-79.8" font-family="Times,serif" font-size="14.00">class = mean</text>
</g>
<!-- 374&#45;&gt;375 -->
<g id="edge25" class="edge">
<title>374&#45;&gt;375</title>
<path fill="none" stroke="black" d="M1994.5,-190.91C1994.5,-182.65 1994.5,-173.86 1994.5,-165.3"/>
<polygon fill="black" stroke="black" points="1998,-165.02 1994.5,-155.02 1991,-165.02 1998,-165.02"/>
</g>
<!-- 516 -->
<g id="node29" class="node">
<title>516</title>
<polygon fill="#fef9f6" stroke="black" points="2506,-155 2159,-155 2159,-72 2506,-72 2506,-155"/>
<text text-anchor="middle" x="2332.5" y="-139.8" font-family="Times,serif" font-size="14.00">sdComp &lt;= 0.2</text>
<text text-anchor="middle" x="2332.5" y="-124.8" font-family="Times,serif" font-size="14.00">gini = 0.832</text>
<text text-anchor="middle" x="2332.5" y="-109.8" font-family="Times,serif" font-size="14.00">samples = 9023</text>
<text text-anchor="middle" x="2332.5" y="-94.8" font-family="Times,serif" font-size="14.00">value = [1845, 1498, 1410, 1430, 1430, 1410]</text>
<text text-anchor="middle" x="2332.5" y="-79.8" font-family="Times,serif" font-size="14.00">class = mean</text>
</g>
<!-- 374&#45;&gt;516 -->
<g id="edge28" class="edge">
<title>374&#45;&gt;516</title>
<path fill="none" stroke="black" d="M2111.77,-190.91C2142.18,-180.38 2175.06,-169 2205.93,-158.31"/>
<polygon fill="black" stroke="black" points="2207.13,-161.6 2215.44,-155.02 2204.85,-154.98 2207.13,-161.6"/>
</g>
<!-- 376 -->
<g id="node27" class="node">
<title>376</title>
<polygon fill="#c0c0c0" stroke="black" points="1985.5,-36 1931.5,-36 1931.5,0 1985.5,0 1985.5,-36"/>
<text text-anchor="middle" x="1958.5" y="-14.3" font-family="Times,serif" font-size="14.00">(...)</text>
</g>
<!-- 375&#45;&gt;376 -->
<g id="edge26" class="edge">
<title>375&#45;&gt;376</title>
<path fill="none" stroke="black" d="M1978.81,-71.76C1975.46,-63.04 1971.99,-54.04 1968.89,-45.99"/>
<polygon fill="black" stroke="black" points="1972.06,-44.48 1965.2,-36.41 1965.53,-46.99 1972.06,-44.48"/>
</g>
<!-- 411 -->
<g id="node28" class="node">
<title>411</title>
<polygon fill="#c0c0c0" stroke="black" points="2057.5,-36 2003.5,-36 2003.5,0 2057.5,0 2057.5,-36"/>
<text text-anchor="middle" x="2030.5" y="-14.3" font-family="Times,serif" font-size="14.00">(...)</text>
</g>
<!-- 375&#45;&gt;411 -->
<g id="edge27" class="edge">
<title>375&#45;&gt;411</title>
<path fill="none" stroke="black" d="M2010.19,-71.76C2013.54,-63.04 2017.01,-54.04 2020.11,-45.99"/>
<polygon fill="black" stroke="black" points="2023.47,-46.99 2023.8,-36.41 2016.94,-44.48 2023.47,-46.99"/>
</g>
<!-- 517 -->
<g id="node30" class="node">
<title>517</title>
<polygon fill="#c0c0c0" stroke="black" points="2323.5,-36 2269.5,-36 2269.5,0 2323.5,0 2323.5,-36"/>
<text text-anchor="middle" x="2296.5" y="-14.3" font-family="Times,serif" font-size="14.00">(...)</text>
</g>
<!-- 516&#45;&gt;517 -->
<g id="edge29" class="edge">
<title>516&#45;&gt;517</title>
<path fill="none" stroke="black" d="M2316.81,-71.76C2313.46,-63.04 2309.99,-54.04 2306.89,-45.99"/>
<polygon fill="black" stroke="black" points="2310.06,-44.48 2303.2,-36.41 2303.53,-46.99 2310.06,-44.48"/>
</g>
<!-- 564 -->
<g id="node31" class="node">
<title>564</title>
<polygon fill="#c0c0c0" stroke="black" points="2395.5,-36 2341.5,-36 2341.5,0 2395.5,0 2395.5,-36"/>
<text text-anchor="middle" x="2368.5" y="-14.3" font-family="Times,serif" font-size="14.00">(...)</text>
</g>
<!-- 516&#45;&gt;564 -->
<g id="edge30" class="edge">
<title>516&#45;&gt;564</title>
<path fill="none" stroke="black" d="M2348.19,-71.76C2351.54,-63.04 2355.01,-54.04 2358.11,-45.99"/>
<polygon fill="black" stroke="black" points="2361.47,-46.99 2361.8,-36.41 2354.94,-44.48 2361.47,-46.99"/>
</g>
</g>
</svg>
