<?xml version="1.0" encoding="UTF-8" standalone="no"?>
<!DOCTYPE svg PUBLIC "-//W3C//DTD SVG 1.1//EN"
 "http://www.w3.org/Graphics/SVG/1.1/DTD/svg11.dtd">
<!-- Generated by graphviz version 2.43.0 (0)
 -->
<!-- Title: Tree Pages: 1 -->
<svg width="2964pt" height="520pt"
 viewBox="0.00 0.00 2964.00 520.00" xmlns="http://www.w3.org/2000/svg" xmlns:xlink="http://www.w3.org/1999/xlink">
<g id="graph0" class="graph" transform="scale(1 1) rotate(0) translate(4 516)">
<title>Tree</title>
<polygon fill="white" stroke="transparent" points="-4,4 -4,-516 2960,-516 2960,4 -4,4"/>
<!-- 0 -->
<g id="node1" class="node">
<title>0</title>
<polygon fill="#fffdfb" stroke="black" points="1646,-512 1245,-512 1245,-429 1646,-429 1646,-512"/>
<text text-anchor="middle" x="1445.5" y="-496.8" font-family="Times,serif" font-size="14.00">CCR &lt;= 0.55</text>
<text text-anchor="middle" x="1445.5" y="-481.8" font-family="Times,serif" font-size="14.00">gini = 0.842</text>
<text text-anchor="middle" x="1445.5" y="-466.8" font-family="Times,serif" font-size="14.00">samples = 57574</text>
<text text-anchor="middle" x="1445.5" y="-451.8" font-family="Times,serif" font-size="14.00">value = [10834, 7032, 2339, 8710, 9000, 9935, 9724]</text>
<text text-anchor="middle" x="1445.5" y="-436.8" font-family="Times,serif" font-size="14.00">class = rku</text>
</g>
<!-- 1 -->
<g id="node2" class="node">
<title>1</title>
<polygon fill="#fcfcff" stroke="black" points="1272.5,-393 880.5,-393 880.5,-310 1272.5,-310 1272.5,-393"/>
<text text-anchor="middle" x="1076.5" y="-377.8" font-family="Times,serif" font-size="14.00">nbproc &lt;= 4.5</text>
<text text-anchor="middle" x="1076.5" y="-362.8" font-family="Times,serif" font-size="14.00">gini = 0.841</text>
<text text-anchor="middle" x="1076.5" y="-347.8" font-family="Times,serif" font-size="14.00">samples = 27994</text>
<text text-anchor="middle" x="1076.5" y="-332.8" font-family="Times,serif" font-size="14.00">value = [4732, 3370, 1072, 4324, 5364, 5004, 4128]</text>
<text text-anchor="middle" x="1076.5" y="-317.8" font-family="Times,serif" font-size="14.00">class = cluHPS</text>
</g>
<!-- 0&#45;&gt;1 -->
<g id="edge1" class="edge">
<title>0&#45;&gt;1</title>
<path fill="none" stroke="black" d="M1317.74,-428.99C1284.38,-418.41 1248.28,-406.97 1214.42,-396.23"/>
<polygon fill="black" stroke="black" points="1215.06,-392.76 1204.47,-393.07 1212.94,-399.43 1215.06,-392.76"/>
<text text-anchor="middle" x="1215.97" y="-411.57" font-family="Times,serif" font-size="14.00">True</text>
</g>
<!-- 272 -->
<g id="node17" class="node">
<title>272</title>
<polygon fill="#fefcfb" stroke="black" points="2003.5,-393 1611.5,-393 1611.5,-310 2003.5,-310 2003.5,-393"/>
<text text-anchor="middle" x="1807.5" y="-377.8" font-family="Times,serif" font-size="14.00">sdComp &lt;= 0.65</text>
<text text-anchor="middle" x="1807.5" y="-362.8" font-family="Times,serif" font-size="14.00">gini = 0.84</text>
<text text-anchor="middle" x="1807.5" y="-347.8" font-family="Times,serif" font-size="14.00">samples = 29580</text>
<text text-anchor="middle" x="1807.5" y="-332.8" font-family="Times,serif" font-size="14.00">value = [6102, 3662, 1267, 4386, 3636, 4931, 5596]</text>
<text text-anchor="middle" x="1807.5" y="-317.8" font-family="Times,serif" font-size="14.00">class = rku</text>
</g>
<!-- 0&#45;&gt;272 -->
<g id="edge16" class="edge">
<title>0&#45;&gt;272</title>
<path fill="none" stroke="black" d="M1570.84,-428.99C1603.56,-418.41 1638.98,-406.97 1672.19,-396.23"/>
<polygon fill="black" stroke="black" points="1673.52,-399.48 1681.96,-393.07 1671.37,-392.82 1673.52,-399.48"/>
<text text-anchor="middle" x="1670.58" y="-411.63" font-family="Times,serif" font-size="14.00">False</text>
</g>
<!-- 2 -->
<g id="node3" class="node">
<title>2</title>
<polygon fill="#eef1fd" stroke="black" points="703,-274 338,-274 338,-191 703,-191 703,-274"/>
<text text-anchor="middle" x="520.5" y="-258.8" font-family="Times,serif" font-size="14.00">sdComp &lt;= 0.065</text>
<text text-anchor="middle" x="520.5" y="-243.8" font-family="Times,serif" font-size="14.00">gini = 0.818</text>
<text text-anchor="middle" x="520.5" y="-228.8" font-family="Times,serif" font-size="14.00">samples = 7896</text>
<text text-anchor="middle" x="520.5" y="-213.8" font-family="Times,serif" font-size="14.00">value = [1244, 644, 240, 1534, 2074, 1490, 670]</text>
<text text-anchor="middle" x="520.5" y="-198.8" font-family="Times,serif" font-size="14.00">class = cluHPS</text>
</g>
<!-- 1&#45;&gt;2 -->
<g id="edge2" class="edge">
<title>1&#45;&gt;2</title>
<path fill="none" stroke="black" d="M883.99,-309.99C828.64,-298.34 768.28,-285.64 712.93,-273.99"/>
<polygon fill="black" stroke="black" points="713.53,-270.54 703.02,-271.91 712.08,-277.39 713.53,-270.54"/>
</g>
<!-- 131 -->
<g id="node10" class="node">
<title>131</title>
<polygon fill="#ffffff" stroke="black" points="1268,-274 885,-274 885,-191 1268,-191 1268,-274"/>
<text text-anchor="middle" x="1076.5" y="-258.8" font-family="Times,serif" font-size="14.00">graphSize &lt;= 40.0</text>
<text text-anchor="middle" x="1076.5" y="-243.8" font-family="Times,serif" font-size="14.00">gini = 0.844</text>
<text text-anchor="middle" x="1076.5" y="-228.8" font-family="Times,serif" font-size="14.00">samples = 20098</text>
<text text-anchor="middle" x="1076.5" y="-213.8" font-family="Times,serif" font-size="14.00">value = [3488, 2726, 832, 2790, 3290, 3514, 3458]</text>
<text text-anchor="middle" x="1076.5" y="-198.8" font-family="Times,serif" font-size="14.00">class = rkusd</text>
</g>
<!-- 1&#45;&gt;131 -->
<g id="edge9" class="edge">
<title>1&#45;&gt;131</title>
<path fill="none" stroke="black" d="M1076.5,-309.91C1076.5,-301.65 1076.5,-292.86 1076.5,-284.3"/>
<polygon fill="black" stroke="black" points="1080,-284.02 1076.5,-274.02 1073,-284.02 1080,-284.02"/>
</g>
<!-- 3 -->
<g id="node4" class="node">
<title>3</title>
<polygon fill="#fefdff" stroke="black" points="329,-155 0,-155 0,-72 329,-72 329,-155"/>
<text text-anchor="middle" x="164.5" y="-139.8" font-family="Times,serif" font-size="14.00">graphSize &lt;= 75.0</text>
<text text-anchor="middle" x="164.5" y="-124.8" font-family="Times,serif" font-size="14.00">gini = 0.805</text>
<text text-anchor="middle" x="164.5" y="-109.8" font-family="Times,serif" font-size="14.00">samples = 3234</text>
<text text-anchor="middle" x="164.5" y="-94.8" font-family="Times,serif" font-size="14.00">value = [838, 120, 120, 492, 452, 858, 354]</text>
<text text-anchor="middle" x="164.5" y="-79.8" font-family="Times,serif" font-size="14.00">class = rkusd</text>
</g>
<!-- 2&#45;&gt;3 -->
<g id="edge3" class="edge">
<title>2&#45;&gt;3</title>
<path fill="none" stroke="black" d="M396.99,-190.91C364.82,-180.33 330.02,-168.9 297.39,-158.17"/>
<polygon fill="black" stroke="black" points="298.39,-154.82 287.79,-155.02 296.2,-161.47 298.39,-154.82"/>
</g>
<!-- 86 -->
<g id="node7" class="node">
<title>86</title>
<polygon fill="#dfe4fb" stroke="black" points="694,-155 347,-155 347,-72 694,-72 694,-155"/>
<text text-anchor="middle" x="520.5" y="-139.8" font-family="Times,serif" font-size="14.00">graphDepth &lt;= 6.5</text>
<text text-anchor="middle" x="520.5" y="-124.8" font-family="Times,serif" font-size="14.00">gini = 0.785</text>
<text text-anchor="middle" x="520.5" y="-109.8" font-family="Times,serif" font-size="14.00">samples = 4662</text>
<text text-anchor="middle" x="520.5" y="-94.8" font-family="Times,serif" font-size="14.00">value = [406, 524, 120, 1042, 1622, 632, 316]</text>
<text text-anchor="middle" x="520.5" y="-79.8" font-family="Times,serif" font-size="14.00">class = cluHPS</text>
</g>
<!-- 2&#45;&gt;86 -->
<g id="edge6" class="edge">
<title>2&#45;&gt;86</title>
<path fill="none" stroke="black" d="M520.5,-190.91C520.5,-182.65 520.5,-173.86 520.5,-165.3"/>
<polygon fill="black" stroke="black" points="524,-165.02 520.5,-155.02 517,-165.02 524,-165.02"/>
</g>
<!-- 4 -->
<g id="node5" class="node">
<title>4</title>
<polygon fill="#c0c0c0" stroke="black" points="155.5,-36 101.5,-36 101.5,0 155.5,0 155.5,-36"/>
<text text-anchor="middle" x="128.5" y="-14.3" font-family="Times,serif" font-size="14.00">(...)</text>
</g>
<!-- 3&#45;&gt;4 -->
<g id="edge4" class="edge">
<title>3&#45;&gt;4</title>
<path fill="none" stroke="black" d="M148.81,-71.76C145.46,-63.04 141.99,-54.04 138.89,-45.99"/>
<polygon fill="black" stroke="black" points="142.06,-44.48 135.2,-36.41 135.53,-46.99 142.06,-44.48"/>
</g>
<!-- 63 -->
<g id="node6" class="node">
<title>63</title>
<polygon fill="#c0c0c0" stroke="black" points="227.5,-36 173.5,-36 173.5,0 227.5,0 227.5,-36"/>
<text text-anchor="middle" x="200.5" y="-14.3" font-family="Times,serif" font-size="14.00">(...)</text>
</g>
<!-- 3&#45;&gt;63 -->
<g id="edge5" class="edge">
<title>3&#45;&gt;63</title>
<path fill="none" stroke="black" d="M180.19,-71.76C183.54,-63.04 187.01,-54.04 190.11,-45.99"/>
<polygon fill="black" stroke="black" points="193.47,-46.99 193.8,-36.41 186.94,-44.48 193.47,-46.99"/>
</g>
<!-- 87 -->
<g id="node8" class="node">
<title>87</title>
<polygon fill="#c0c0c0" stroke="black" points="511.5,-36 457.5,-36 457.5,0 511.5,0 511.5,-36"/>
<text text-anchor="middle" x="484.5" y="-14.3" font-family="Times,serif" font-size="14.00">(...)</text>
</g>
<!-- 86&#45;&gt;87 -->
<g id="edge7" class="edge">
<title>86&#45;&gt;87</title>
<path fill="none" stroke="black" d="M504.81,-71.76C501.46,-63.04 497.99,-54.04 494.89,-45.99"/>
<polygon fill="black" stroke="black" points="498.06,-44.48 491.2,-36.41 491.53,-46.99 498.06,-44.48"/>
</g>
<!-- 104 -->
<g id="node9" class="node">
<title>104</title>
<polygon fill="#c0c0c0" stroke="black" points="583.5,-36 529.5,-36 529.5,0 583.5,0 583.5,-36"/>
<text text-anchor="middle" x="556.5" y="-14.3" font-family="Times,serif" font-size="14.00">(...)</text>
</g>
<!-- 86&#45;&gt;104 -->
<g id="edge8" class="edge">
<title>86&#45;&gt;104</title>
<path fill="none" stroke="black" d="M536.19,-71.76C539.54,-63.04 543.01,-54.04 546.11,-45.99"/>
<polygon fill="black" stroke="black" points="549.47,-46.99 549.8,-36.41 542.94,-44.48 549.47,-46.99"/>
</g>
<!-- 132 -->
<g id="node11" class="node">
<title>132</title>
<polygon fill="#fffeff" stroke="black" points="1095,-155 712,-155 712,-72 1095,-72 1095,-155"/>
<text text-anchor="middle" x="903.5" y="-139.8" font-family="Times,serif" font-size="14.00">sdComm &lt;= 0.02</text>
<text text-anchor="middle" x="903.5" y="-124.8" font-family="Times,serif" font-size="14.00">gini = 0.842</text>
<text text-anchor="middle" x="903.5" y="-109.8" font-family="Times,serif" font-size="14.00">samples = 18390</text>
<text text-anchor="middle" x="903.5" y="-94.8" font-family="Times,serif" font-size="14.00">value = [3116, 2598, 588, 2618, 3122, 3144, 3204]</text>
<text text-anchor="middle" x="903.5" y="-79.8" font-family="Times,serif" font-size="14.00">class = rkuad</text>
</g>
<!-- 131&#45;&gt;132 -->
<g id="edge10" class="edge">
<title>131&#45;&gt;132</title>
<path fill="none" stroke="black" d="M1016.48,-190.91C1002.12,-181.2 986.69,-170.76 971.98,-160.81"/>
<polygon fill="black" stroke="black" points="973.66,-157.72 963.42,-155.02 969.74,-163.52 973.66,-157.72"/>
</g>
<!-- 203 -->
<g id="node14" class="node">
<title>203</title>
<polygon fill="#ffffff" stroke="black" points="1442,-155 1113,-155 1113,-72 1442,-72 1442,-155"/>
<text text-anchor="middle" x="1277.5" y="-139.8" font-family="Times,serif" font-size="14.00">sdComp &lt;= 0.065</text>
<text text-anchor="middle" x="1277.5" y="-124.8" font-family="Times,serif" font-size="14.00">gini = 0.838</text>
<text text-anchor="middle" x="1277.5" y="-109.8" font-family="Times,serif" font-size="14.00">samples = 1708</text>
<text text-anchor="middle" x="1277.5" y="-94.8" font-family="Times,serif" font-size="14.00">value = [372, 128, 244, 172, 168, 370, 254]</text>
<text text-anchor="middle" x="1277.5" y="-79.8" font-family="Times,serif" font-size="14.00">class = rku</text>
</g>
<!-- 131&#45;&gt;203 -->
<g id="edge13" class="edge">
<title>131&#45;&gt;203</title>
<path fill="none" stroke="black" d="M1146.24,-190.91C1163.23,-181.02 1181.52,-170.37 1198.9,-160.25"/>
<polygon fill="black" stroke="black" points="1201.01,-163.08 1207.89,-155.02 1197.48,-157.03 1201.01,-163.08"/>
</g>
<!-- 133 -->
<g id="node12" class="node">
<title>133</title>
<polygon fill="#c0c0c0" stroke="black" points="894.5,-36 840.5,-36 840.5,0 894.5,0 894.5,-36"/>
<text text-anchor="middle" x="867.5" y="-14.3" font-family="Times,serif" font-size="14.00">(...)</text>
</g>
<!-- 132&#45;&gt;133 -->
<g id="edge11" class="edge">
<title>132&#45;&gt;133</title>
<path fill="none" stroke="black" d="M887.81,-71.76C884.46,-63.04 880.99,-54.04 877.89,-45.99"/>
<polygon fill="black" stroke="black" points="881.06,-44.48 874.2,-36.41 874.53,-46.99 881.06,-44.48"/>
</g>
<!-- 156 -->
<g id="node13" class="node">
<title>156</title>
<polygon fill="#c0c0c0" stroke="black" points="966.5,-36 912.5,-36 912.5,0 966.5,0 966.5,-36"/>
<text text-anchor="middle" x="939.5" y="-14.3" font-family="Times,serif" font-size="14.00">(...)</text>
</g>
<!-- 132&#45;&gt;156 -->
<g id="edge12" class="edge">
<title>132&#45;&gt;156</title>
<path fill="none" stroke="black" d="M919.19,-71.76C922.54,-63.04 926.01,-54.04 929.11,-45.99"/>
<polygon fill="black" stroke="black" points="932.47,-46.99 932.8,-36.41 925.94,-44.48 932.47,-46.99"/>
</g>
<!-- 204 -->
<g id="node15" class="node">
<title>204</title>
<polygon fill="#c0c0c0" stroke="black" points="1268.5,-36 1214.5,-36 1214.5,0 1268.5,0 1268.5,-36"/>
<text text-anchor="middle" x="1241.5" y="-14.3" font-family="Times,serif" font-size="14.00">(...)</text>
</g>
<!-- 203&#45;&gt;204 -->
<g id="edge14" class="edge">
<title>203&#45;&gt;204</title>
<path fill="none" stroke="black" d="M1261.81,-71.76C1258.46,-63.04 1254.99,-54.04 1251.89,-45.99"/>
<polygon fill="black" stroke="black" points="1255.06,-44.48 1248.2,-36.41 1248.53,-46.99 1255.06,-44.48"/>
</g>
<!-- 251 -->
<g id="node16" class="node">
<title>251</title>
<polygon fill="#c0c0c0" stroke="black" points="1340.5,-36 1286.5,-36 1286.5,0 1340.5,0 1340.5,-36"/>
<text text-anchor="middle" x="1313.5" y="-14.3" font-family="Times,serif" font-size="14.00">(...)</text>
</g>
<!-- 203&#45;&gt;251 -->
<g id="edge15" class="edge">
<title>203&#45;&gt;251</title>
<path fill="none" stroke="black" d="M1293.19,-71.76C1296.54,-63.04 1300.01,-54.04 1303.11,-45.99"/>
<polygon fill="black" stroke="black" points="1306.47,-46.99 1306.8,-36.41 1299.94,-44.48 1306.47,-46.99"/>
</g>
<!-- 273 -->
<g id="node18" class="node">
<title>273</title>
<polygon fill="#fef8f4" stroke="black" points="1999,-274 1616,-274 1616,-191 1999,-191 1999,-274"/>
<text text-anchor="middle" x="1807.5" y="-258.8" font-family="Times,serif" font-size="14.00">graphSize &lt;= 40.0</text>
<text text-anchor="middle" x="1807.5" y="-243.8" font-family="Times,serif" font-size="14.00">gini = 0.824</text>
<text text-anchor="middle" x="1807.5" y="-228.8" font-family="Times,serif" font-size="14.00">samples = 10184</text>
<text text-anchor="middle" x="1807.5" y="-213.8" font-family="Times,serif" font-size="14.00">value = [2552, 1036, 264, 1376, 1114, 1752, 2090]</text>
<text text-anchor="middle" x="1807.5" y="-198.8" font-family="Times,serif" font-size="14.00">class = rku</text>
</g>
<!-- 272&#45;&gt;273 -->
<g id="edge17" class="edge">
<title>272&#45;&gt;273</title>
<path fill="none" stroke="black" d="M1807.5,-309.91C1807.5,-301.65 1807.5,-292.86 1807.5,-284.3"/>
<polygon fill="black" stroke="black" points="1811,-284.02 1807.5,-274.02 1804,-284.02 1811,-284.02"/>
</g>
<!-- 454 -->
<g id="node25" class="node">
<title>454</title>
<polygon fill="#fffffe" stroke="black" points="2564.5,-274 2172.5,-274 2172.5,-191 2564.5,-191 2564.5,-274"/>
<text text-anchor="middle" x="2368.5" y="-258.8" font-family="Times,serif" font-size="14.00">graphDepth &lt;= 6.5</text>
<text text-anchor="middle" x="2368.5" y="-243.8" font-family="Times,serif" font-size="14.00">gini = 0.845</text>
<text text-anchor="middle" x="2368.5" y="-228.8" font-family="Times,serif" font-size="14.00">samples = 19396</text>
<text text-anchor="middle" x="2368.5" y="-213.8" font-family="Times,serif" font-size="14.00">value = [3550, 2626, 1003, 3010, 2522, 3179, 3506]</text>
<text text-anchor="middle" x="2368.5" y="-198.8" font-family="Times,serif" font-size="14.00">class = rku</text>
</g>
<!-- 272&#45;&gt;454 -->
<g id="edge24" class="edge">
<title>272&#45;&gt;454</title>
<path fill="none" stroke="black" d="M2001.74,-309.99C2054.2,-299.05 2111.11,-287.18 2164.1,-276.13"/>
<polygon fill="black" stroke="black" points="2164.88,-279.54 2173.95,-274.07 2163.45,-272.69 2164.88,-279.54"/>
</g>
<!-- 274 -->
<g id="node19" class="node">
<title>274</title>
<polygon fill="#fffefd" stroke="black" points="1843,-155 1460,-155 1460,-72 1843,-72 1843,-155"/>
<text text-anchor="middle" x="1651.5" y="-139.8" font-family="Times,serif" font-size="14.00">graphDepth &lt;= 7.5</text>
<text text-anchor="middle" x="1651.5" y="-124.8" font-family="Times,serif" font-size="14.00">gini = 0.834</text>
<text text-anchor="middle" x="1651.5" y="-109.8" font-family="Times,serif" font-size="14.00">samples = 8238</text>
<text text-anchor="middle" x="1651.5" y="-94.8" font-family="Times,serif" font-size="14.00">value = [1706, 1000, 178, 1246, 1056, 1402, 1650]</text>
<text text-anchor="middle" x="1651.5" y="-79.8" font-family="Times,serif" font-size="14.00">class = rku</text>
</g>
<!-- 273&#45;&gt;274 -->
<g id="edge18" class="edge">
<title>273&#45;&gt;274</title>
<path fill="none" stroke="black" d="M1753.38,-190.91C1740.55,-181.29 1726.77,-170.95 1713.62,-161.09"/>
<polygon fill="black" stroke="black" points="1715.63,-158.22 1705.53,-155.02 1711.43,-163.82 1715.63,-158.22"/>
</g>
<!-- 361 -->
<g id="node22" class="node">
<title>361</title>
<polygon fill="#f8ddca" stroke="black" points="2163.5,-155 1861.5,-155 1861.5,-72 2163.5,-72 2163.5,-155"/>
<text text-anchor="middle" x="2012.5" y="-139.8" font-family="Times,serif" font-size="14.00">nbproc &lt;= 4.5</text>
<text text-anchor="middle" x="2012.5" y="-124.8" font-family="Times,serif" font-size="14.00">gini = 0.72</text>
<text text-anchor="middle" x="2012.5" y="-109.8" font-family="Times,serif" font-size="14.00">samples = 1946</text>
<text text-anchor="middle" x="2012.5" y="-94.8" font-family="Times,serif" font-size="14.00">value = [846, 36, 86, 130, 58, 350, 440]</text>
<text text-anchor="middle" x="2012.5" y="-79.8" font-family="Times,serif" font-size="14.00">class = rku</text>
</g>
<!-- 273&#45;&gt;361 -->
<g id="edge21" class="edge">
<title>273&#45;&gt;361</title>
<path fill="none" stroke="black" d="M1878.62,-190.91C1895.96,-181.02 1914.61,-170.37 1932.33,-160.25"/>
<polygon fill="black" stroke="black" points="1934.55,-163.02 1941.5,-155.02 1931.08,-156.94 1934.55,-163.02"/>
</g>
<!-- 275 -->
<g id="node20" class="node">
<title>275</title>
<polygon fill="#c0c0c0" stroke="black" points="1642.5,-36 1588.5,-36 1588.5,0 1642.5,0 1642.5,-36"/>
<text text-anchor="middle" x="1615.5" y="-14.3" font-family="Times,serif" font-size="14.00">(...)</text>
</g>
<!-- 274&#45;&gt;275 -->
<g id="edge19" class="edge">
<title>274&#45;&gt;275</title>
<path fill="none" stroke="black" d="M1635.81,-71.76C1632.46,-63.04 1628.99,-54.04 1625.89,-45.99"/>
<polygon fill="black" stroke="black" points="1629.06,-44.48 1622.2,-36.41 1622.53,-46.99 1629.06,-44.48"/>
</g>
<!-- 338 -->
<g id="node21" class="node">
<title>338</title>
<polygon fill="#c0c0c0" stroke="black" points="1714.5,-36 1660.5,-36 1660.5,0 1714.5,0 1714.5,-36"/>
<text text-anchor="middle" x="1687.5" y="-14.3" font-family="Times,serif" font-size="14.00">(...)</text>
</g>
<!-- 274&#45;&gt;338 -->
<g id="edge20" class="edge">
<title>274&#45;&gt;338</title>
<path fill="none" stroke="black" d="M1667.19,-71.76C1670.54,-63.04 1674.01,-54.04 1677.11,-45.99"/>
<polygon fill="black" stroke="black" points="1680.47,-46.99 1680.8,-36.41 1673.94,-44.48 1680.47,-46.99"/>
</g>
<!-- 362 -->
<g id="node23" class="node">
<title>362</title>
<polygon fill="#c0c0c0" stroke="black" points="2003.5,-36 1949.5,-36 1949.5,0 2003.5,0 2003.5,-36"/>
<text text-anchor="middle" x="1976.5" y="-14.3" font-family="Times,serif" font-size="14.00">(...)</text>
</g>
<!-- 361&#45;&gt;362 -->
<g id="edge22" class="edge">
<title>361&#45;&gt;362</title>
<path fill="none" stroke="black" d="M1996.81,-71.76C1993.46,-63.04 1989.99,-54.04 1986.89,-45.99"/>
<polygon fill="black" stroke="black" points="1990.06,-44.48 1983.2,-36.41 1983.53,-46.99 1990.06,-44.48"/>
</g>
<!-- 409 -->
<g id="node24" class="node">
<title>409</title>
<polygon fill="#c0c0c0" stroke="black" points="2075.5,-36 2021.5,-36 2021.5,0 2075.5,0 2075.5,-36"/>
<text text-anchor="middle" x="2048.5" y="-14.3" font-family="Times,serif" font-size="14.00">(...)</text>
</g>
<!-- 361&#45;&gt;409 -->
<g id="edge23" class="edge">
<title>361&#45;&gt;409</title>
<path fill="none" stroke="black" d="M2028.19,-71.76C2031.54,-63.04 2035.01,-54.04 2038.11,-45.99"/>
<polygon fill="black" stroke="black" points="2041.47,-46.99 2041.8,-36.41 2034.94,-44.48 2041.47,-46.99"/>
</g>
<!-- 455 -->
<g id="node26" class="node">
<title>455</title>
<polygon fill="#fffdfb" stroke="black" points="2555.5,-155 2181.5,-155 2181.5,-72 2555.5,-72 2555.5,-155"/>
<text text-anchor="middle" x="2368.5" y="-139.8" font-family="Times,serif" font-size="14.00">sdComm &lt;= 6.5</text>
<text text-anchor="middle" x="2368.5" y="-124.8" font-family="Times,serif" font-size="14.00">gini = 0.839</text>
<text text-anchor="middle" x="2368.5" y="-109.8" font-family="Times,serif" font-size="14.00">samples = 9143</text>
<text text-anchor="middle" x="2368.5" y="-94.8" font-family="Times,serif" font-size="14.00">value = [1828, 1318, 382, 1248, 996, 1677, 1694]</text>
<text text-anchor="middle" x="2368.5" y="-79.8" font-family="Times,serif" font-size="14.00">class = rku</text>
</g>
<!-- 454&#45;&gt;455 -->
<g id="edge25" class="edge">
<title>454&#45;&gt;455</title>
<path fill="none" stroke="black" d="M2368.5,-190.91C2368.5,-182.65 2368.5,-173.86 2368.5,-165.3"/>
<polygon fill="black" stroke="black" points="2372,-165.02 2368.5,-155.02 2365,-165.02 2372,-165.02"/>
</g>
<!-- 568 -->
<g id="node29" class="node">
<title>568</title>
<polygon fill="#fffefe" stroke="black" points="2956,-155 2573,-155 2573,-72 2956,-72 2956,-155"/>
<text text-anchor="middle" x="2764.5" y="-139.8" font-family="Times,serif" font-size="14.00">nbproc &lt;= 4.5</text>
<text text-anchor="middle" x="2764.5" y="-124.8" font-family="Times,serif" font-size="14.00">gini = 0.847</text>
<text text-anchor="middle" x="2764.5" y="-109.8" font-family="Times,serif" font-size="14.00">samples = 10253</text>
<text text-anchor="middle" x="2764.5" y="-94.8" font-family="Times,serif" font-size="14.00">value = [1722, 1308, 621, 1762, 1526, 1502, 1812]</text>
<text text-anchor="middle" x="2764.5" y="-79.8" font-family="Times,serif" font-size="14.00">class = rkuad</text>
</g>
<!-- 454&#45;&gt;568 -->
<g id="edge28" class="edge">
<title>454&#45;&gt;568</title>
<path fill="none" stroke="black" d="M2505.61,-190.99C2541.72,-180.32 2580.81,-168.77 2617.42,-157.96"/>
<polygon fill="black" stroke="black" points="2618.57,-161.26 2627.17,-155.07 2616.59,-154.55 2618.57,-161.26"/>
</g>
<!-- 456 -->
<g id="node27" class="node">
<title>456</title>
<polygon fill="#c0c0c0" stroke="black" points="2359.5,-36 2305.5,-36 2305.5,0 2359.5,0 2359.5,-36"/>
<text text-anchor="middle" x="2332.5" y="-14.3" font-family="Times,serif" font-size="14.00">(...)</text>
</g>
<!-- 455&#45;&gt;456 -->
<g id="edge26" class="edge">
<title>455&#45;&gt;456</title>
<path fill="none" stroke="black" d="M2352.81,-71.76C2349.46,-63.04 2345.99,-54.04 2342.89,-45.99"/>
<polygon fill="black" stroke="black" points="2346.06,-44.48 2339.2,-36.41 2339.53,-46.99 2346.06,-44.48"/>
</g>
<!-- 541 -->
<g id="node28" class="node">
<title>541</title>
<polygon fill="#c0c0c0" stroke="black" points="2431.5,-36 2377.5,-36 2377.5,0 2431.5,0 2431.5,-36"/>
<text text-anchor="middle" x="2404.5" y="-14.3" font-family="Times,serif" font-size="14.00">(...)</text>
</g>
<!-- 455&#45;&gt;541 -->
<g id="edge27" class="edge">
<title>455&#45;&gt;541</title>
<path fill="none" stroke="black" d="M2384.19,-71.76C2387.54,-63.04 2391.01,-54.04 2394.11,-45.99"/>
<polygon fill="black" stroke="black" points="2397.47,-46.99 2397.8,-36.41 2390.94,-44.48 2397.47,-46.99"/>
</g>
<!-- 569 -->
<g id="node30" class="node">
<title>569</title>
<polygon fill="#c0c0c0" stroke="black" points="2755.5,-36 2701.5,-36 2701.5,0 2755.5,0 2755.5,-36"/>
<text text-anchor="middle" x="2728.5" y="-14.3" font-family="Times,serif" font-size="14.00">(...)</text>
</g>
<!-- 568&#45;&gt;569 -->
<g id="edge29" class="edge">
<title>568&#45;&gt;569</title>
<path fill="none" stroke="black" d="M2748.81,-71.76C2745.46,-63.04 2741.99,-54.04 2738.89,-45.99"/>
<polygon fill="black" stroke="black" points="2742.06,-44.48 2735.2,-36.41 2735.53,-46.99 2742.06,-44.48"/>
</g>
<!-- 664 -->
<g id="node31" class="node">
<title>664</title>
<polygon fill="#c0c0c0" stroke="black" points="2827.5,-36 2773.5,-36 2773.5,0 2827.5,0 2827.5,-36"/>
<text text-anchor="middle" x="2800.5" y="-14.3" font-family="Times,serif" font-size="14.00">(...)</text>
</g>
<!-- 568&#45;&gt;664 -->
<g id="edge30" class="edge">
<title>568&#45;&gt;664</title>
<path fill="none" stroke="black" d="M2780.19,-71.76C2783.54,-63.04 2787.01,-54.04 2790.11,-45.99"/>
<polygon fill="black" stroke="black" points="2793.47,-46.99 2793.8,-36.41 2786.94,-44.48 2793.47,-46.99"/>
</g>
</g>
</svg>
