<?xml version="1.0" encoding="UTF-8" standalone="no"?>
<!DOCTYPE svg PUBLIC "-//W3C//DTD SVG 1.1//EN"
 "http://www.w3.org/Graphics/SVG/1.1/DTD/svg11.dtd">
<!-- Generated by graphviz version 2.43.0 (0)
 -->
<!-- Title: Tree Pages: 1 -->
<svg width="1729pt" height="520pt"
 viewBox="0.00 0.00 1729.00 520.00" xmlns="http://www.w3.org/2000/svg" xmlns:xlink="http://www.w3.org/1999/xlink">
<g id="graph0" class="graph" transform="scale(1 1) rotate(0) translate(4 516)">
<title>Tree</title>
<polygon fill="white" stroke="transparent" points="-4,4 -4,-516 1725,-516 1725,4 -4,4"/>
<!-- 0 -->
<g id="node1" class="node">
<title>0</title>
<polygon fill="#e6fcef" stroke="black" points="1007,-512 768,-512 768,-429 1007,-429 1007,-512"/>
<text text-anchor="middle" x="887.5" y="-496.8" font-family="Times,serif" font-size="14.00">CCR &lt;= 5.5</text>
<text text-anchor="middle" x="887.5" y="-481.8" font-family="Times,serif" font-size="14.00">gini = 0.649</text>
<text text-anchor="middle" x="887.5" y="-466.8" font-family="Times,serif" font-size="14.00">samples = 57574</text>
<text text-anchor="middle" x="887.5" y="-451.8" font-family="Times,serif" font-size="14.00">value = [13692, 24377, 19505]</text>
<text text-anchor="middle" x="887.5" y="-436.8" font-family="Times,serif" font-size="14.00">class = DCP</text>
</g>
<!-- 1 -->
<g id="node2" class="node">
<title>1</title>
<polygon fill="#b6f5d1" stroke="black" points="784.5,-393 554.5,-393 554.5,-310 784.5,-310 784.5,-393"/>
<text text-anchor="middle" x="669.5" y="-377.8" font-family="Times,serif" font-size="14.00">graphSize &lt;= 22.5</text>
<text text-anchor="middle" x="669.5" y="-362.8" font-family="Times,serif" font-size="14.00">gini = 0.584</text>
<text text-anchor="middle" x="669.5" y="-347.8" font-family="Times,serif" font-size="14.00">samples = 42241</text>
<text text-anchor="middle" x="669.5" y="-332.8" font-family="Times,serif" font-size="14.00">value = [12432, 23387, 6422]</text>
<text text-anchor="middle" x="669.5" y="-317.8" font-family="Times,serif" font-size="14.00">class = DCP</text>
</g>
<!-- 0&#45;&gt;1 -->
<g id="edge1" class="edge">
<title>0&#45;&gt;1</title>
<path fill="none" stroke="black" d="M811.87,-428.91C793.18,-418.88 773.05,-408.07 753.97,-397.84"/>
<polygon fill="black" stroke="black" points="755.47,-394.67 745,-393.02 752.16,-400.83 755.47,-394.67"/>
<text text-anchor="middle" x="752.22" y="-413.26" font-family="Times,serif" font-size="14.00">True</text>
</g>
<!-- 540 -->
<g id="node17" class="node">
<title>540</title>
<polygon fill="#9559e9" stroke="black" points="1214.5,-393 1002.5,-393 1002.5,-310 1214.5,-310 1214.5,-393"/>
<text text-anchor="middle" x="1108.5" y="-377.8" font-family="Times,serif" font-size="14.00">sdComp &lt;= 6.5</text>
<text text-anchor="middle" x="1108.5" y="-362.8" font-family="Times,serif" font-size="14.00">gini = 0.261</text>
<text text-anchor="middle" x="1108.5" y="-347.8" font-family="Times,serif" font-size="14.00">samples = 15333</text>
<text text-anchor="middle" x="1108.5" y="-332.8" font-family="Times,serif" font-size="14.00">value = [1260, 990, 13083]</text>
<text text-anchor="middle" x="1108.5" y="-317.8" font-family="Times,serif" font-size="14.00">class = None</text>
</g>
<!-- 0&#45;&gt;540 -->
<g id="edge16" class="edge">
<title>0&#45;&gt;540</title>
<path fill="none" stroke="black" d="M964.17,-428.91C983.12,-418.88 1003.53,-408.07 1022.86,-397.84"/>
<polygon fill="black" stroke="black" points="1024.76,-400.79 1031.96,-393.02 1021.49,-394.61 1024.76,-400.79"/>
<text text-anchor="middle" x="1024.61" y="-413.22" font-family="Times,serif" font-size="14.00">False</text>
</g>
<!-- 2 -->
<g id="node3" class="node">
<title>2</title>
<polygon fill="#c9f8dd" stroke="black" points="446.5,-274 216.5,-274 216.5,-191 446.5,-191 446.5,-274"/>
<text text-anchor="middle" x="331.5" y="-258.8" font-family="Times,serif" font-size="14.00">sdComm &lt;= 0.02</text>
<text text-anchor="middle" x="331.5" y="-243.8" font-family="Times,serif" font-size="14.00">gini = 0.59</text>
<text text-anchor="middle" x="331.5" y="-228.8" font-family="Times,serif" font-size="14.00">samples = 29340</text>
<text text-anchor="middle" x="331.5" y="-213.8" font-family="Times,serif" font-size="14.00">value = [10124, 15358, 3858]</text>
<text text-anchor="middle" x="331.5" y="-198.8" font-family="Times,serif" font-size="14.00">class = DCP</text>
</g>
<!-- 1&#45;&gt;2 -->
<g id="edge2" class="edge">
<title>1&#45;&gt;2</title>
<path fill="none" stroke="black" d="M554.12,-310.56C522.67,-299.67 488.45,-287.83 456.48,-276.76"/>
<polygon fill="black" stroke="black" points="457.24,-273.32 446.64,-273.36 454.95,-279.94 457.24,-273.32"/>
</g>
<!-- 125 -->
<g id="node10" class="node">
<title>125</title>
<polygon fill="#96f1bc" stroke="black" points="775.5,-274 563.5,-274 563.5,-191 775.5,-191 775.5,-274"/>
<text text-anchor="middle" x="669.5" y="-258.8" font-family="Times,serif" font-size="14.00">nbproc &lt;= 4.5</text>
<text text-anchor="middle" x="669.5" y="-243.8" font-family="Times,serif" font-size="14.00">gini = 0.541</text>
<text text-anchor="middle" x="669.5" y="-228.8" font-family="Times,serif" font-size="14.00">samples = 12901</text>
<text text-anchor="middle" x="669.5" y="-213.8" font-family="Times,serif" font-size="14.00">value = [2308, 8029, 2564]</text>
<text text-anchor="middle" x="669.5" y="-198.8" font-family="Times,serif" font-size="14.00">class = DCP</text>
</g>
<!-- 1&#45;&gt;125 -->
<g id="edge9" class="edge">
<title>1&#45;&gt;125</title>
<path fill="none" stroke="black" d="M669.5,-309.91C669.5,-301.65 669.5,-292.86 669.5,-284.3"/>
<polygon fill="black" stroke="black" points="673,-284.02 669.5,-274.02 666,-284.02 673,-284.02"/>
</g>
<!-- 3 -->
<g id="node4" class="node">
<title>3</title>
<polygon fill="#fefcfa" stroke="black" points="203,-155 0,-155 0,-72 203,-72 203,-155"/>
<text text-anchor="middle" x="101.5" y="-139.8" font-family="Times,serif" font-size="14.00">sdComp &lt;= 0.02</text>
<text text-anchor="middle" x="101.5" y="-124.8" font-family="Times,serif" font-size="14.00">gini = 0.576</text>
<text text-anchor="middle" x="101.5" y="-109.8" font-family="Times,serif" font-size="14.00">samples = 6754</text>
<text text-anchor="middle" x="101.5" y="-94.8" font-family="Times,serif" font-size="14.00">value = [3130, 3036, 588]</text>
<text text-anchor="middle" x="101.5" y="-79.8" font-family="Times,serif" font-size="14.00">class = DLS/DC</text>
</g>
<!-- 2&#45;&gt;3 -->
<g id="edge3" class="edge">
<title>2&#45;&gt;3</title>
<path fill="none" stroke="black" d="M251.7,-190.91C231.81,-180.79 210.36,-169.88 190.08,-159.56"/>
<polygon fill="black" stroke="black" points="191.66,-156.44 181.16,-155.02 188.48,-162.67 191.66,-156.44"/>
</g>
<!-- 22 -->
<g id="node7" class="node">
<title>22</title>
<polygon fill="#bbf6d4" stroke="black" points="442,-155 221,-155 221,-72 442,-72 442,-155"/>
<text text-anchor="middle" x="331.5" y="-139.8" font-family="Times,serif" font-size="14.00">sdComm &lt;= 0.2</text>
<text text-anchor="middle" x="331.5" y="-124.8" font-family="Times,serif" font-size="14.00">gini = 0.586</text>
<text text-anchor="middle" x="331.5" y="-109.8" font-family="Times,serif" font-size="14.00">samples = 22586</text>
<text text-anchor="middle" x="331.5" y="-94.8" font-family="Times,serif" font-size="14.00">value = [6994, 12322, 3270]</text>
<text text-anchor="middle" x="331.5" y="-79.8" font-family="Times,serif" font-size="14.00">class = DCP</text>
</g>
<!-- 2&#45;&gt;22 -->
<g id="edge6" class="edge">
<title>2&#45;&gt;22</title>
<path fill="none" stroke="black" d="M331.5,-190.91C331.5,-182.65 331.5,-173.86 331.5,-165.3"/>
<polygon fill="black" stroke="black" points="335,-165.02 331.5,-155.02 328,-165.02 335,-165.02"/>
</g>
<!-- 4 -->
<g id="node5" class="node">
<title>4</title>
<polygon fill="#c0c0c0" stroke="black" points="92.5,-36 38.5,-36 38.5,0 92.5,0 92.5,-36"/>
<text text-anchor="middle" x="65.5" y="-14.3" font-family="Times,serif" font-size="14.00">(...)</text>
</g>
<!-- 3&#45;&gt;4 -->
<g id="edge4" class="edge">
<title>3&#45;&gt;4</title>
<path fill="none" stroke="black" d="M85.81,-71.76C82.46,-63.04 78.99,-54.04 75.89,-45.99"/>
<polygon fill="black" stroke="black" points="79.06,-44.48 72.2,-36.41 72.53,-46.99 79.06,-44.48"/>
</g>
<!-- 9 -->
<g id="node6" class="node">
<title>9</title>
<polygon fill="#c0c0c0" stroke="black" points="164.5,-36 110.5,-36 110.5,0 164.5,0 164.5,-36"/>
<text text-anchor="middle" x="137.5" y="-14.3" font-family="Times,serif" font-size="14.00">(...)</text>
</g>
<!-- 3&#45;&gt;9 -->
<g id="edge5" class="edge">
<title>3&#45;&gt;9</title>
<path fill="none" stroke="black" d="M117.19,-71.76C120.54,-63.04 124.01,-54.04 127.11,-45.99"/>
<polygon fill="black" stroke="black" points="130.47,-46.99 130.8,-36.41 123.94,-44.48 130.47,-46.99"/>
</g>
<!-- 23 -->
<g id="node8" class="node">
<title>23</title>
<polygon fill="#c0c0c0" stroke="black" points="322.5,-36 268.5,-36 268.5,0 322.5,0 322.5,-36"/>
<text text-anchor="middle" x="295.5" y="-14.3" font-family="Times,serif" font-size="14.00">(...)</text>
</g>
<!-- 22&#45;&gt;23 -->
<g id="edge7" class="edge">
<title>22&#45;&gt;23</title>
<path fill="none" stroke="black" d="M315.81,-71.76C312.46,-63.04 308.99,-54.04 305.89,-45.99"/>
<polygon fill="black" stroke="black" points="309.06,-44.48 302.2,-36.41 302.53,-46.99 309.06,-44.48"/>
</g>
<!-- 84 -->
<g id="node9" class="node">
<title>84</title>
<polygon fill="#c0c0c0" stroke="black" points="394.5,-36 340.5,-36 340.5,0 394.5,0 394.5,-36"/>
<text text-anchor="middle" x="367.5" y="-14.3" font-family="Times,serif" font-size="14.00">(...)</text>
</g>
<!-- 22&#45;&gt;84 -->
<g id="edge8" class="edge">
<title>22&#45;&gt;84</title>
<path fill="none" stroke="black" d="M347.19,-71.76C350.54,-63.04 354.01,-54.04 357.11,-45.99"/>
<polygon fill="black" stroke="black" points="360.47,-46.99 360.8,-36.41 353.94,-44.48 360.47,-46.99"/>
</g>
<!-- 126 -->
<g id="node11" class="node">
<title>126</title>
<polygon fill="#b4f5cf" stroke="black" points="663,-155 460,-155 460,-72 663,-72 663,-155"/>
<text text-anchor="middle" x="561.5" y="-139.8" font-family="Times,serif" font-size="14.00">sdComp &lt;= 0.02</text>
<text text-anchor="middle" x="561.5" y="-124.8" font-family="Times,serif" font-size="14.00">gini = 0.602</text>
<text text-anchor="middle" x="561.5" y="-109.8" font-family="Times,serif" font-size="14.00">samples = 3989</text>
<text text-anchor="middle" x="561.5" y="-94.8" font-family="Times,serif" font-size="14.00">value = [816, 2151, 1022]</text>
<text text-anchor="middle" x="561.5" y="-79.8" font-family="Times,serif" font-size="14.00">class = DCP</text>
</g>
<!-- 125&#45;&gt;126 -->
<g id="edge10" class="edge">
<title>125&#45;&gt;126</title>
<path fill="none" stroke="black" d="M632.03,-190.91C623.57,-181.74 614.51,-171.93 605.8,-162.49"/>
<polygon fill="black" stroke="black" points="608.26,-159.99 598.9,-155.02 603.11,-164.74 608.26,-159.99"/>
</g>
<!-- 327 -->
<g id="node14" class="node">
<title>327</title>
<polygon fill="#8bf0b5" stroke="black" points="892.5,-155 680.5,-155 680.5,-72 892.5,-72 892.5,-155"/>
<text text-anchor="middle" x="786.5" y="-139.8" font-family="Times,serif" font-size="14.00">sdComm &lt;= 0.65</text>
<text text-anchor="middle" x="786.5" y="-124.8" font-family="Times,serif" font-size="14.00">gini = 0.507</text>
<text text-anchor="middle" x="786.5" y="-109.8" font-family="Times,serif" font-size="14.00">samples = 8912</text>
<text text-anchor="middle" x="786.5" y="-94.8" font-family="Times,serif" font-size="14.00">value = [1492, 5878, 1542]</text>
<text text-anchor="middle" x="786.5" y="-79.8" font-family="Times,serif" font-size="14.00">class = DCP</text>
</g>
<!-- 125&#45;&gt;327 -->
<g id="edge13" class="edge">
<title>125&#45;&gt;327</title>
<path fill="none" stroke="black" d="M710.09,-190.91C719.35,-181.65 729.27,-171.73 738.79,-162.21"/>
<polygon fill="black" stroke="black" points="741.38,-164.57 745.98,-155.02 736.43,-159.62 741.38,-164.57"/>
</g>
<!-- 127 -->
<g id="node12" class="node">
<title>127</title>
<polygon fill="#c0c0c0" stroke="black" points="552.5,-36 498.5,-36 498.5,0 552.5,0 552.5,-36"/>
<text text-anchor="middle" x="525.5" y="-14.3" font-family="Times,serif" font-size="14.00">(...)</text>
</g>
<!-- 126&#45;&gt;127 -->
<g id="edge11" class="edge">
<title>126&#45;&gt;127</title>
<path fill="none" stroke="black" d="M545.81,-71.76C542.46,-63.04 538.99,-54.04 535.89,-45.99"/>
<polygon fill="black" stroke="black" points="539.06,-44.48 532.2,-36.41 532.53,-46.99 539.06,-44.48"/>
</g>
<!-- 162 -->
<g id="node13" class="node">
<title>162</title>
<polygon fill="#c0c0c0" stroke="black" points="624.5,-36 570.5,-36 570.5,0 624.5,0 624.5,-36"/>
<text text-anchor="middle" x="597.5" y="-14.3" font-family="Times,serif" font-size="14.00">(...)</text>
</g>
<!-- 126&#45;&gt;162 -->
<g id="edge12" class="edge">
<title>126&#45;&gt;162</title>
<path fill="none" stroke="black" d="M577.19,-71.76C580.54,-63.04 584.01,-54.04 587.11,-45.99"/>
<polygon fill="black" stroke="black" points="590.47,-46.99 590.8,-36.41 583.94,-44.48 590.47,-46.99"/>
</g>
<!-- 328 -->
<g id="node15" class="node">
<title>328</title>
<polygon fill="#c0c0c0" stroke="black" points="777.5,-36 723.5,-36 723.5,0 777.5,0 777.5,-36"/>
<text text-anchor="middle" x="750.5" y="-14.3" font-family="Times,serif" font-size="14.00">(...)</text>
</g>
<!-- 327&#45;&gt;328 -->
<g id="edge14" class="edge">
<title>327&#45;&gt;328</title>
<path fill="none" stroke="black" d="M770.81,-71.76C767.46,-63.04 763.99,-54.04 760.89,-45.99"/>
<polygon fill="black" stroke="black" points="764.06,-44.48 757.2,-36.41 757.53,-46.99 764.06,-44.48"/>
</g>
<!-- 505 -->
<g id="node16" class="node">
<title>505</title>
<polygon fill="#c0c0c0" stroke="black" points="849.5,-36 795.5,-36 795.5,0 849.5,0 849.5,-36"/>
<text text-anchor="middle" x="822.5" y="-14.3" font-family="Times,serif" font-size="14.00">(...)</text>
</g>
<!-- 327&#45;&gt;505 -->
<g id="edge15" class="edge">
<title>327&#45;&gt;505</title>
<path fill="none" stroke="black" d="M802.19,-71.76C805.54,-63.04 809.01,-54.04 812.11,-45.99"/>
<polygon fill="black" stroke="black" points="815.47,-46.99 815.8,-36.41 808.94,-44.48 815.47,-46.99"/>
</g>
<!-- 541 -->
<g id="node18" class="node">
<title>541</title>
<polygon fill="#8b48e7" stroke="black" points="1205.5,-274 1011.5,-274 1011.5,-191 1205.5,-191 1205.5,-274"/>
<text text-anchor="middle" x="1108.5" y="-258.8" font-family="Times,serif" font-size="14.00">sdComm &lt;= 2.0</text>
<text text-anchor="middle" x="1108.5" y="-243.8" font-family="Times,serif" font-size="14.00">gini = 0.14</text>
<text text-anchor="middle" x="1108.5" y="-228.8" font-family="Times,serif" font-size="14.00">samples = 9298</text>
<text text-anchor="middle" x="1108.5" y="-213.8" font-family="Times,serif" font-size="14.00">value = [316, 374, 8608]</text>
<text text-anchor="middle" x="1108.5" y="-198.8" font-family="Times,serif" font-size="14.00">class = None</text>
</g>
<!-- 540&#45;&gt;541 -->
<g id="edge17" class="edge">
<title>540&#45;&gt;541</title>
<path fill="none" stroke="black" d="M1108.5,-309.91C1108.5,-301.65 1108.5,-292.86 1108.5,-284.3"/>
<polygon fill="black" stroke="black" points="1112,-284.02 1108.5,-274.02 1105,-284.02 1112,-284.02"/>
</g>
<!-- 628 -->
<g id="node25" class="node">
<title>628</title>
<polygon fill="#a876ed" stroke="black" points="1518.5,-274 1324.5,-274 1324.5,-191 1518.5,-191 1518.5,-274"/>
<text text-anchor="middle" x="1421.5" y="-258.8" font-family="Times,serif" font-size="14.00">nbproc &lt;= 4.5</text>
<text text-anchor="middle" x="1421.5" y="-243.8" font-family="Times,serif" font-size="14.00">gini = 0.415</text>
<text text-anchor="middle" x="1421.5" y="-228.8" font-family="Times,serif" font-size="14.00">samples = 6035</text>
<text text-anchor="middle" x="1421.5" y="-213.8" font-family="Times,serif" font-size="14.00">value = [944, 616, 4475]</text>
<text text-anchor="middle" x="1421.5" y="-198.8" font-family="Times,serif" font-size="14.00">class = None</text>
</g>
<!-- 540&#45;&gt;628 -->
<g id="edge24" class="edge">
<title>540&#45;&gt;628</title>
<path fill="none" stroke="black" d="M1214.9,-310.73C1247.16,-298.67 1282.6,-285.42 1314.88,-273.36"/>
<polygon fill="black" stroke="black" points="1316.19,-276.6 1324.33,-269.82 1313.74,-270.04 1316.19,-276.6"/>
</g>
<!-- 542 -->
<g id="node19" class="node">
<title>542</title>
<polygon fill="#9f68eb" stroke="black" points="1104.5,-155 910.5,-155 910.5,-72 1104.5,-72 1104.5,-155"/>
<text text-anchor="middle" x="1007.5" y="-139.8" font-family="Times,serif" font-size="14.00">sdComp &lt;= 2.0</text>
<text text-anchor="middle" x="1007.5" y="-124.8" font-family="Times,serif" font-size="14.00">gini = 0.345</text>
<text text-anchor="middle" x="1007.5" y="-109.8" font-family="Times,serif" font-size="14.00">samples = 2416</text>
<text text-anchor="middle" x="1007.5" y="-94.8" font-family="Times,serif" font-size="14.00">value = [158, 338, 1920]</text>
<text text-anchor="middle" x="1007.5" y="-79.8" font-family="Times,serif" font-size="14.00">class = None</text>
</g>
<!-- 541&#45;&gt;542 -->
<g id="edge18" class="edge">
<title>541&#45;&gt;542</title>
<path fill="none" stroke="black" d="M1073.46,-190.91C1065.62,-181.83 1057.24,-172.12 1049.17,-162.77"/>
<polygon fill="black" stroke="black" points="1051.66,-160.3 1042.48,-155.02 1046.36,-164.88 1051.66,-160.3"/>
</g>
<!-- 575 -->
<g id="node22" class="node">
<title>575</title>
<polygon fill="#853fe6" stroke="black" points="1307,-155 1122,-155 1122,-72 1307,-72 1307,-155"/>
<text text-anchor="middle" x="1214.5" y="-139.8" font-family="Times,serif" font-size="14.00">nbproc &lt;= 4.5</text>
<text text-anchor="middle" x="1214.5" y="-124.8" font-family="Times,serif" font-size="14.00">gini = 0.055</text>
<text text-anchor="middle" x="1214.5" y="-109.8" font-family="Times,serif" font-size="14.00">samples = 6882</text>
<text text-anchor="middle" x="1214.5" y="-94.8" font-family="Times,serif" font-size="14.00">value = [158, 36, 6688]</text>
<text text-anchor="middle" x="1214.5" y="-79.8" font-family="Times,serif" font-size="14.00">class = None</text>
</g>
<!-- 541&#45;&gt;575 -->
<g id="edge21" class="edge">
<title>541&#45;&gt;575</title>
<path fill="none" stroke="black" d="M1145.28,-190.91C1153.58,-181.74 1162.47,-171.93 1171.02,-162.49"/>
<polygon fill="black" stroke="black" points="1173.67,-164.78 1177.79,-155.02 1168.48,-160.08 1173.67,-164.78"/>
</g>
<!-- 543 -->
<g id="node20" class="node">
<title>543</title>
<polygon fill="#c0c0c0" stroke="black" points="993.5,-36 939.5,-36 939.5,0 993.5,0 993.5,-36"/>
<text text-anchor="middle" x="966.5" y="-14.3" font-family="Times,serif" font-size="14.00">(...)</text>
</g>
<!-- 542&#45;&gt;543 -->
<g id="edge19" class="edge">
<title>542&#45;&gt;543</title>
<path fill="none" stroke="black" d="M989.64,-71.76C985.77,-62.94 981.78,-53.84 978.22,-45.72"/>
<polygon fill="black" stroke="black" points="981.35,-44.16 974.13,-36.41 974.94,-46.97 981.35,-44.16"/>
</g>
<!-- 556 -->
<g id="node21" class="node">
<title>556</title>
<polygon fill="#c0c0c0" stroke="black" points="1065.5,-36 1011.5,-36 1011.5,0 1065.5,0 1065.5,-36"/>
<text text-anchor="middle" x="1038.5" y="-14.3" font-family="Times,serif" font-size="14.00">(...)</text>
</g>
<!-- 542&#45;&gt;556 -->
<g id="edge20" class="edge">
<title>542&#45;&gt;556</title>
<path fill="none" stroke="black" d="M1021.01,-71.76C1023.9,-63.04 1026.88,-54.04 1029.55,-45.99"/>
<polygon fill="black" stroke="black" points="1032.9,-47 1032.73,-36.41 1026.26,-44.8 1032.9,-47"/>
</g>
<!-- 576 -->
<g id="node23" class="node">
<title>576</title>
<polygon fill="#c0c0c0" stroke="black" points="1200.5,-36 1146.5,-36 1146.5,0 1200.5,0 1200.5,-36"/>
<text text-anchor="middle" x="1173.5" y="-14.3" font-family="Times,serif" font-size="14.00">(...)</text>
</g>
<!-- 575&#45;&gt;576 -->
<g id="edge22" class="edge">
<title>575&#45;&gt;576</title>
<path fill="none" stroke="black" d="M1196.64,-71.76C1192.77,-62.94 1188.78,-53.84 1185.22,-45.72"/>
<polygon fill="black" stroke="black" points="1188.35,-44.16 1181.13,-36.41 1181.94,-46.97 1188.35,-44.16"/>
</g>
<!-- 597 -->
<g id="node24" class="node">
<title>597</title>
<polygon fill="#c0c0c0" stroke="black" points="1272.5,-36 1218.5,-36 1218.5,0 1272.5,0 1272.5,-36"/>
<text text-anchor="middle" x="1245.5" y="-14.3" font-family="Times,serif" font-size="14.00">(...)</text>
</g>
<!-- 575&#45;&gt;597 -->
<g id="edge23" class="edge">
<title>575&#45;&gt;597</title>
<path fill="none" stroke="black" d="M1228.01,-71.76C1230.9,-63.04 1233.88,-54.04 1236.55,-45.99"/>
<polygon fill="black" stroke="black" points="1239.9,-47 1239.73,-36.41 1233.26,-44.8 1239.9,-47"/>
</g>
<!-- 629 -->
<g id="node26" class="node">
<title>629</title>
<polygon fill="#ba92f1" stroke="black" points="1518.5,-155 1324.5,-155 1324.5,-72 1518.5,-72 1518.5,-155"/>
<text text-anchor="middle" x="1421.5" y="-139.8" font-family="Times,serif" font-size="14.00">sdComm &lt;= 2.0</text>
<text text-anchor="middle" x="1421.5" y="-124.8" font-family="Times,serif" font-size="14.00">gini = 0.502</text>
<text text-anchor="middle" x="1421.5" y="-109.8" font-family="Times,serif" font-size="14.00">samples = 3892</text>
<text text-anchor="middle" x="1421.5" y="-94.8" font-family="Times,serif" font-size="14.00">value = [912, 426, 2554]</text>
<text text-anchor="middle" x="1421.5" y="-79.8" font-family="Times,serif" font-size="14.00">class = None</text>
</g>
<!-- 628&#45;&gt;629 -->
<g id="edge25" class="edge">
<title>628&#45;&gt;629</title>
<path fill="none" stroke="black" d="M1421.5,-190.91C1421.5,-182.65 1421.5,-173.86 1421.5,-165.3"/>
<polygon fill="black" stroke="black" points="1425,-165.02 1421.5,-155.02 1418,-165.02 1425,-165.02"/>
</g>
<!-- 662 -->
<g id="node29" class="node">
<title>662</title>
<polygon fill="#8f50e8" stroke="black" points="1721,-155 1536,-155 1536,-72 1721,-72 1721,-155"/>
<text text-anchor="middle" x="1628.5" y="-139.8" font-family="Times,serif" font-size="14.00">graphDepth &lt;= 3.5</text>
<text text-anchor="middle" x="1628.5" y="-124.8" font-family="Times,serif" font-size="14.00">gini = 0.188</text>
<text text-anchor="middle" x="1628.5" y="-109.8" font-family="Times,serif" font-size="14.00">samples = 2143</text>
<text text-anchor="middle" x="1628.5" y="-94.8" font-family="Times,serif" font-size="14.00">value = [32, 190, 1921]</text>
<text text-anchor="middle" x="1628.5" y="-79.8" font-family="Times,serif" font-size="14.00">class = None</text>
</g>
<!-- 628&#45;&gt;662 -->
<g id="edge28" class="edge">
<title>628&#45;&gt;662</title>
<path fill="none" stroke="black" d="M1493.32,-190.91C1510.98,-180.92 1530,-170.17 1548.04,-159.98"/>
<polygon fill="black" stroke="black" points="1549.83,-162.99 1556.81,-155.02 1546.38,-156.89 1549.83,-162.99"/>
</g>
<!-- 630 -->
<g id="node27" class="node">
<title>630</title>
<polygon fill="#c0c0c0" stroke="black" points="1412.5,-36 1358.5,-36 1358.5,0 1412.5,0 1412.5,-36"/>
<text text-anchor="middle" x="1385.5" y="-14.3" font-family="Times,serif" font-size="14.00">(...)</text>
</g>
<!-- 629&#45;&gt;630 -->
<g id="edge26" class="edge">
<title>629&#45;&gt;630</title>
<path fill="none" stroke="black" d="M1405.81,-71.76C1402.46,-63.04 1398.99,-54.04 1395.89,-45.99"/>
<polygon fill="black" stroke="black" points="1399.06,-44.48 1392.2,-36.41 1392.53,-46.99 1399.06,-44.48"/>
</g>
<!-- 641 -->
<g id="node28" class="node">
<title>641</title>
<polygon fill="#c0c0c0" stroke="black" points="1484.5,-36 1430.5,-36 1430.5,0 1484.5,0 1484.5,-36"/>
<text text-anchor="middle" x="1457.5" y="-14.3" font-family="Times,serif" font-size="14.00">(...)</text>
</g>
<!-- 629&#45;&gt;641 -->
<g id="edge27" class="edge">
<title>629&#45;&gt;641</title>
<path fill="none" stroke="black" d="M1437.19,-71.76C1440.54,-63.04 1444.01,-54.04 1447.11,-45.99"/>
<polygon fill="black" stroke="black" points="1450.47,-46.99 1450.8,-36.41 1443.94,-44.48 1450.47,-46.99"/>
</g>
<!-- 663 -->
<g id="node30" class="node">
<title>663</title>
<polygon fill="#c0c0c0" stroke="black" points="1619.5,-36 1565.5,-36 1565.5,0 1619.5,0 1619.5,-36"/>
<text text-anchor="middle" x="1592.5" y="-14.3" font-family="Times,serif" font-size="14.00">(...)</text>
</g>
<!-- 662&#45;&gt;663 -->
<g id="edge29" class="edge">
<title>662&#45;&gt;663</title>
<path fill="none" stroke="black" d="M1612.81,-71.76C1609.46,-63.04 1605.99,-54.04 1602.89,-45.99"/>
<polygon fill="black" stroke="black" points="1606.06,-44.48 1599.2,-36.41 1599.53,-46.99 1606.06,-44.48"/>
</g>
<!-- 666 -->
<g id="node31" class="node">
<title>666</title>
<polygon fill="#c0c0c0" stroke="black" points="1691.5,-36 1637.5,-36 1637.5,0 1691.5,0 1691.5,-36"/>
<text text-anchor="middle" x="1664.5" y="-14.3" font-family="Times,serif" font-size="14.00">(...)</text>
</g>
<!-- 662&#45;&gt;666 -->
<g id="edge30" class="edge">
<title>662&#45;&gt;666</title>
<path fill="none" stroke="black" d="M1644.19,-71.76C1647.54,-63.04 1651.01,-54.04 1654.11,-45.99"/>
<polygon fill="black" stroke="black" points="1657.47,-46.99 1657.8,-36.41 1650.94,-44.48 1657.47,-46.99"/>
</g>
</g>
</svg>
