<?xml version="1.0" encoding="UTF-8" standalone="no"?>
<!DOCTYPE svg PUBLIC "-//W3C//DTD SVG 1.1//EN"
 "http://www.w3.org/Graphics/SVG/1.1/DTD/svg11.dtd">
<!-- Generated by graphviz version 2.43.0 (0)
 -->
<!-- Title: Tree Pages: 1 -->
<svg width="2543pt" height="520pt"
 viewBox="0.00 0.00 2543.00 520.00" xmlns="http://www.w3.org/2000/svg" xmlns:xlink="http://www.w3.org/1999/xlink">
<g id="graph0" class="graph" transform="scale(1 1) rotate(0) translate(4 516)">
<title>Tree</title>
<polygon fill="white" stroke="transparent" points="-4,4 -4,-516 2539,-516 2539,4 -4,4"/>
<!-- 0 -->
<g id="node1" class="node">
<title>0</title>
<polygon fill="#fbe3f1" stroke="black" points="1412,-512 1038,-512 1038,-429 1412,-429 1412,-512"/>
<text text-anchor="middle" x="1225" y="-496.8" font-family="Times,serif" font-size="14.00">CCR &lt;= 5.5</text>
<text text-anchor="middle" x="1225" y="-481.8" font-family="Times,serif" font-size="14.00">gini = 0.753</text>
<text text-anchor="middle" x="1225" y="-466.8" font-family="Times,serif" font-size="14.00">samples = 57574</text>
<text text-anchor="middle" x="1225" y="-451.8" font-family="Times,serif" font-size="14.00">value = [13436, 4143, 3800, 2014, 13966, 20215]</text>
<text text-anchor="middle" x="1225" y="-436.8" font-family="Times,serif" font-size="14.00">class = GDL</text>
</g>
<!-- 1 -->
<g id="node2" class="node">
<title>1</title>
<polygon fill="#f9cee7" stroke="black" points="1103.5,-393 738.5,-393 738.5,-310 1103.5,-310 1103.5,-393"/>
<text text-anchor="middle" x="921" y="-377.8" font-family="Times,serif" font-size="14.00">CCR &lt;= 0.55</text>
<text text-anchor="middle" x="921" y="-362.8" font-family="Times,serif" font-size="14.00">gini = 0.686</text>
<text text-anchor="middle" x="921" y="-347.8" font-family="Times,serif" font-size="14.00">samples = 42241</text>
<text text-anchor="middle" x="921" y="-332.8" font-family="Times,serif" font-size="14.00">value = [10024, 1629, 240, 1226, 10633, 18489]</text>
<text text-anchor="middle" x="921" y="-317.8" font-family="Times,serif" font-size="14.00">class = GDL</text>
</g>
<!-- 0&#45;&gt;1 -->
<g id="edge1" class="edge">
<title>0&#45;&gt;1</title>
<path fill="none" stroke="black" d="M1119.53,-428.91C1092.53,-418.52 1063.36,-407.29 1035.92,-396.73"/>
<polygon fill="black" stroke="black" points="1036.87,-393.35 1026.28,-393.02 1034.36,-399.88 1036.87,-393.35"/>
<text text-anchor="middle" x="1036.43" y="-412.17" font-family="Times,serif" font-size="14.00">True</text>
</g>
<!-- 532 -->
<g id="node17" class="node">
<title>532</title>
<polygon fill="#fdfffd" stroke="black" points="1723,-393 1385,-393 1385,-310 1723,-310 1723,-393"/>
<text text-anchor="middle" x="1554" y="-377.8" font-family="Times,serif" font-size="14.00">sdComp &lt;= 2.0</text>
<text text-anchor="middle" x="1554" y="-362.8" font-family="Times,serif" font-size="14.00">gini = 0.807</text>
<text text-anchor="middle" x="1554" y="-347.8" font-family="Times,serif" font-size="14.00">samples = 15333</text>
<text text-anchor="middle" x="1554" y="-332.8" font-family="Times,serif" font-size="14.00">value = [3412, 2514, 3560, 788, 3333, 1726]</text>
<text text-anchor="middle" x="1554" y="-317.8" font-family="Times,serif" font-size="14.00">class = OLB</text>
</g>
<!-- 0&#45;&gt;532 -->
<g id="edge16" class="edge">
<title>0&#45;&gt;532</title>
<path fill="none" stroke="black" d="M1339.14,-428.91C1368.62,-418.43 1400.48,-407.1 1430.41,-396.45"/>
<polygon fill="black" stroke="black" points="1431.81,-399.67 1440.06,-393.02 1429.46,-393.07 1431.81,-399.67"/>
<text text-anchor="middle" x="1429.32" y="-411.9" font-family="Times,serif" font-size="14.00">False</text>
</g>
<!-- 2 -->
<g id="node3" class="node">
<title>2</title>
<polygon fill="#fadcee" stroke="black" points="622.5,-274 293.5,-274 293.5,-191 622.5,-191 622.5,-274"/>
<text text-anchor="middle" x="458" y="-258.8" font-family="Times,serif" font-size="14.00">sdComp &lt;= 0.02</text>
<text text-anchor="middle" x="458" y="-243.8" font-family="Times,serif" font-size="14.00">gini = 0.698</text>
<text text-anchor="middle" x="458" y="-228.8" font-family="Times,serif" font-size="14.00">samples = 27994</text>
<text text-anchor="middle" x="458" y="-213.8" font-family="Times,serif" font-size="14.00">value = [7628, 904, 52, 1076, 7128, 11206]</text>
<text text-anchor="middle" x="458" y="-198.8" font-family="Times,serif" font-size="14.00">class = GDL</text>
</g>
<!-- 1&#45;&gt;2 -->
<g id="edge2" class="edge">
<title>1&#45;&gt;2</title>
<path fill="none" stroke="black" d="M760.69,-309.99C717.94,-299.19 671.6,-287.48 628.33,-276.54"/>
<polygon fill="black" stroke="black" points="629.12,-273.13 618.56,-274.07 627.4,-279.92 629.12,-273.13"/>
</g>
<!-- 271 -->
<g id="node10" class="node">
<title>271</title>
<polygon fill="#f6b9dd" stroke="black" points="1081,-274 761,-274 761,-191 1081,-191 1081,-274"/>
<text text-anchor="middle" x="921" y="-258.8" font-family="Times,serif" font-size="14.00">graphSize &lt;= 22.5</text>
<text text-anchor="middle" x="921" y="-243.8" font-family="Times,serif" font-size="14.00">gini = 0.647</text>
<text text-anchor="middle" x="921" y="-228.8" font-family="Times,serif" font-size="14.00">samples = 14247</text>
<text text-anchor="middle" x="921" y="-213.8" font-family="Times,serif" font-size="14.00">value = [2396, 725, 188, 150, 3505, 7283]</text>
<text text-anchor="middle" x="921" y="-198.8" font-family="Times,serif" font-size="14.00">class = GDL</text>
</g>
<!-- 1&#45;&gt;271 -->
<g id="edge9" class="edge">
<title>1&#45;&gt;271</title>
<path fill="none" stroke="black" d="M921,-309.91C921,-301.65 921,-292.86 921,-284.3"/>
<polygon fill="black" stroke="black" points="924.5,-284.02 921,-274.02 917.5,-284.02 924.5,-284.02"/>
</g>
<!-- 3 -->
<g id="node4" class="node">
<title>3</title>
<polygon fill="#f6badd" stroke="black" points="284,-155 0,-155 0,-72 284,-72 284,-155"/>
<text text-anchor="middle" x="142" y="-139.8" font-family="Times,serif" font-size="14.00">graphSize &lt;= 75.0</text>
<text text-anchor="middle" x="142" y="-124.8" font-family="Times,serif" font-size="14.00">gini = 0.645</text>
<text text-anchor="middle" x="142" y="-109.8" font-family="Times,serif" font-size="14.00">samples = 4684</text>
<text text-anchor="middle" x="142" y="-94.8" font-family="Times,serif" font-size="14.00">value = [886, 236, 44, 0, 1146, 2372]</text>
<text text-anchor="middle" x="142" y="-79.8" font-family="Times,serif" font-size="14.00">class = GDL</text>
</g>
<!-- 2&#45;&gt;3 -->
<g id="edge3" class="edge">
<title>2&#45;&gt;3</title>
<path fill="none" stroke="black" d="M348.37,-190.91C320.18,-180.47 289.72,-169.19 261.08,-158.59"/>
<polygon fill="black" stroke="black" points="262.03,-155.21 251.44,-155.02 259.6,-161.78 262.03,-155.21"/>
</g>
<!-- 88 -->
<g id="node7" class="node">
<title>88</title>
<polygon fill="#fce6f3" stroke="black" points="613.5,-155 302.5,-155 302.5,-72 613.5,-72 613.5,-155"/>
<text text-anchor="middle" x="458" y="-139.8" font-family="Times,serif" font-size="14.00">sdComm &lt;= 0.065</text>
<text text-anchor="middle" x="458" y="-124.8" font-family="Times,serif" font-size="14.00">gini = 0.704</text>
<text text-anchor="middle" x="458" y="-109.8" font-family="Times,serif" font-size="14.00">samples = 23310</text>
<text text-anchor="middle" x="458" y="-94.8" font-family="Times,serif" font-size="14.00">value = [6742, 668, 8, 1076, 5982, 8834]</text>
<text text-anchor="middle" x="458" y="-79.8" font-family="Times,serif" font-size="14.00">class = GDL</text>
</g>
<!-- 2&#45;&gt;88 -->
<g id="edge6" class="edge">
<title>2&#45;&gt;88</title>
<path fill="none" stroke="black" d="M458,-190.91C458,-182.65 458,-173.86 458,-165.3"/>
<polygon fill="black" stroke="black" points="461.5,-165.02 458,-155.02 454.5,-165.02 461.5,-165.02"/>
</g>
<!-- 4 -->
<g id="node5" class="node">
<title>4</title>
<polygon fill="#c0c0c0" stroke="black" points="133,-36 79,-36 79,0 133,0 133,-36"/>
<text text-anchor="middle" x="106" y="-14.3" font-family="Times,serif" font-size="14.00">(...)</text>
</g>
<!-- 3&#45;&gt;4 -->
<g id="edge4" class="edge">
<title>3&#45;&gt;4</title>
<path fill="none" stroke="black" d="M126.31,-71.76C122.96,-63.04 119.49,-54.04 116.39,-45.99"/>
<polygon fill="black" stroke="black" points="119.56,-44.48 112.7,-36.41 113.03,-46.99 119.56,-44.48"/>
</g>
<!-- 69 -->
<g id="node6" class="node">
<title>69</title>
<polygon fill="#c0c0c0" stroke="black" points="205,-36 151,-36 151,0 205,0 205,-36"/>
<text text-anchor="middle" x="178" y="-14.3" font-family="Times,serif" font-size="14.00">(...)</text>
</g>
<!-- 3&#45;&gt;69 -->
<g id="edge5" class="edge">
<title>3&#45;&gt;69</title>
<path fill="none" stroke="black" d="M157.69,-71.76C161.04,-63.04 164.51,-54.04 167.61,-45.99"/>
<polygon fill="black" stroke="black" points="170.97,-46.99 171.3,-36.41 164.44,-44.48 170.97,-46.99"/>
</g>
<!-- 89 -->
<g id="node8" class="node">
<title>89</title>
<polygon fill="#c0c0c0" stroke="black" points="449,-36 395,-36 395,0 449,0 449,-36"/>
<text text-anchor="middle" x="422" y="-14.3" font-family="Times,serif" font-size="14.00">(...)</text>
</g>
<!-- 88&#45;&gt;89 -->
<g id="edge7" class="edge">
<title>88&#45;&gt;89</title>
<path fill="none" stroke="black" d="M442.31,-71.76C438.96,-63.04 435.49,-54.04 432.39,-45.99"/>
<polygon fill="black" stroke="black" points="435.56,-44.48 428.7,-36.41 429.03,-46.99 435.56,-44.48"/>
</g>
<!-- 210 -->
<g id="node9" class="node">
<title>210</title>
<polygon fill="#c0c0c0" stroke="black" points="521,-36 467,-36 467,0 521,0 521,-36"/>
<text text-anchor="middle" x="494" y="-14.3" font-family="Times,serif" font-size="14.00">(...)</text>
</g>
<!-- 88&#45;&gt;210 -->
<g id="edge8" class="edge">
<title>88&#45;&gt;210</title>
<path fill="none" stroke="black" d="M473.69,-71.76C477.04,-63.04 480.51,-54.04 483.61,-45.99"/>
<polygon fill="black" stroke="black" points="486.97,-46.99 487.3,-36.41 480.44,-44.48 486.97,-46.99"/>
</g>
<!-- 272 -->
<g id="node11" class="node">
<title>272</title>
<polygon fill="#f9d4ea" stroke="black" points="952,-155 632,-155 632,-72 952,-72 952,-155"/>
<text text-anchor="middle" x="792" y="-139.8" font-family="Times,serif" font-size="14.00">sdComm &lt;= 0.65</text>
<text text-anchor="middle" x="792" y="-124.8" font-family="Times,serif" font-size="14.00">gini = 0.692</text>
<text text-anchor="middle" x="792" y="-109.8" font-family="Times,serif" font-size="14.00">samples = 8730</text>
<text text-anchor="middle" x="792" y="-94.8" font-family="Times,serif" font-size="14.00">value = [1547, 569, 172, 150, 2470, 3822]</text>
<text text-anchor="middle" x="792" y="-79.8" font-family="Times,serif" font-size="14.00">class = GDL</text>
</g>
<!-- 271&#45;&gt;272 -->
<g id="edge10" class="edge">
<title>271&#45;&gt;272</title>
<path fill="none" stroke="black" d="M876.24,-190.91C865.94,-181.56 854.89,-171.54 844.29,-161.93"/>
<polygon fill="black" stroke="black" points="846.44,-159.15 836.68,-155.02 841.73,-164.33 846.44,-159.15"/>
</g>
<!-- 335 -->
<g id="node14" class="node">
<title>335</title>
<polygon fill="#f194ca" stroke="black" points="1254,-155 970,-155 970,-72 1254,-72 1254,-155"/>
<text text-anchor="middle" x="1112" y="-139.8" font-family="Times,serif" font-size="14.00">nbproc &lt;= 4.5</text>
<text text-anchor="middle" x="1112" y="-124.8" font-family="Times,serif" font-size="14.00">gini = 0.547</text>
<text text-anchor="middle" x="1112" y="-109.8" font-family="Times,serif" font-size="14.00">samples = 5517</text>
<text text-anchor="middle" x="1112" y="-94.8" font-family="Times,serif" font-size="14.00">value = [849, 156, 16, 0, 1035, 3461]</text>
<text text-anchor="middle" x="1112" y="-79.8" font-family="Times,serif" font-size="14.00">class = GDL</text>
</g>
<!-- 271&#45;&gt;335 -->
<g id="edge13" class="edge">
<title>271&#45;&gt;335</title>
<path fill="none" stroke="black" d="M987.27,-190.91C1003.41,-181.02 1020.8,-170.37 1037.31,-160.25"/>
<polygon fill="black" stroke="black" points="1039.15,-163.23 1045.85,-155.02 1035.5,-157.26 1039.15,-163.23"/>
</g>
<!-- 273 -->
<g id="node12" class="node">
<title>273</title>
<polygon fill="#c0c0c0" stroke="black" points="783,-36 729,-36 729,0 783,0 783,-36"/>
<text text-anchor="middle" x="756" y="-14.3" font-family="Times,serif" font-size="14.00">(...)</text>
</g>
<!-- 272&#45;&gt;273 -->
<g id="edge11" class="edge">
<title>272&#45;&gt;273</title>
<path fill="none" stroke="black" d="M776.31,-71.76C772.96,-63.04 769.49,-54.04 766.39,-45.99"/>
<polygon fill="black" stroke="black" points="769.56,-44.48 762.7,-36.41 763.03,-46.99 769.56,-44.48"/>
</g>
<!-- 316 -->
<g id="node13" class="node">
<title>316</title>
<polygon fill="#c0c0c0" stroke="black" points="855,-36 801,-36 801,0 855,0 855,-36"/>
<text text-anchor="middle" x="828" y="-14.3" font-family="Times,serif" font-size="14.00">(...)</text>
</g>
<!-- 272&#45;&gt;316 -->
<g id="edge12" class="edge">
<title>272&#45;&gt;316</title>
<path fill="none" stroke="black" d="M807.69,-71.76C811.04,-63.04 814.51,-54.04 817.61,-45.99"/>
<polygon fill="black" stroke="black" points="820.97,-46.99 821.3,-36.41 814.44,-44.48 820.97,-46.99"/>
</g>
<!-- 336 -->
<g id="node15" class="node">
<title>336</title>
<polygon fill="#c0c0c0" stroke="black" points="1103,-36 1049,-36 1049,0 1103,0 1103,-36"/>
<text text-anchor="middle" x="1076" y="-14.3" font-family="Times,serif" font-size="14.00">(...)</text>
</g>
<!-- 335&#45;&gt;336 -->
<g id="edge14" class="edge">
<title>335&#45;&gt;336</title>
<path fill="none" stroke="black" d="M1096.31,-71.76C1092.96,-63.04 1089.49,-54.04 1086.39,-45.99"/>
<polygon fill="black" stroke="black" points="1089.56,-44.48 1082.7,-36.41 1083.03,-46.99 1089.56,-44.48"/>
</g>
<!-- 433 -->
<g id="node16" class="node">
<title>433</title>
<polygon fill="#c0c0c0" stroke="black" points="1175,-36 1121,-36 1121,0 1175,0 1175,-36"/>
<text text-anchor="middle" x="1148" y="-14.3" font-family="Times,serif" font-size="14.00">(...)</text>
</g>
<!-- 335&#45;&gt;433 -->
<g id="edge15" class="edge">
<title>335&#45;&gt;433</title>
<path fill="none" stroke="black" d="M1127.69,-71.76C1131.04,-63.04 1134.51,-54.04 1137.61,-45.99"/>
<polygon fill="black" stroke="black" points="1140.97,-46.99 1141.3,-36.41 1134.44,-44.48 1140.97,-46.99"/>
</g>
<!-- 533 -->
<g id="node18" class="node">
<title>533</title>
<polygon fill="#d8fae6" stroke="black" points="1705,-274 1403,-274 1403,-191 1705,-191 1705,-274"/>
<text text-anchor="middle" x="1554" y="-258.8" font-family="Times,serif" font-size="14.00">graphDepth &lt;= 9.0</text>
<text text-anchor="middle" x="1554" y="-243.8" font-family="Times,serif" font-size="14.00">gini = 0.79</text>
<text text-anchor="middle" x="1554" y="-228.8" font-family="Times,serif" font-size="14.00">samples = 3838</text>
<text text-anchor="middle" x="1554" y="-213.8" font-family="Times,serif" font-size="14.00">value = [626, 564, 1276, 640, 566, 166]</text>
<text text-anchor="middle" x="1554" y="-198.8" font-family="Times,serif" font-size="14.00">class = OLB</text>
</g>
<!-- 532&#45;&gt;533 -->
<g id="edge17" class="edge">
<title>532&#45;&gt;533</title>
<path fill="none" stroke="black" d="M1554,-309.91C1554,-301.65 1554,-292.86 1554,-284.3"/>
<polygon fill="black" stroke="black" points="1557.5,-284.02 1554,-274.02 1550.5,-284.02 1557.5,-284.02"/>
</g>
<!-- 594 -->
<g id="node25" class="node">
<title>594</title>
<polygon fill="#ffffff" stroke="black" points="2206,-274 1868,-274 1868,-191 2206,-191 2206,-274"/>
<text text-anchor="middle" x="2037" y="-258.8" font-family="Times,serif" font-size="14.00">sdComp &lt;= 6.5</text>
<text text-anchor="middle" x="2037" y="-243.8" font-family="Times,serif" font-size="14.00">gini = 0.796</text>
<text text-anchor="middle" x="2037" y="-228.8" font-family="Times,serif" font-size="14.00">samples = 11495</text>
<text text-anchor="middle" x="2037" y="-213.8" font-family="Times,serif" font-size="14.00">value = [2786, 1950, 2284, 148, 2767, 1560]</text>
<text text-anchor="middle" x="2037" y="-198.8" font-family="Times,serif" font-size="14.00">class = eft</text>
</g>
<!-- 532&#45;&gt;594 -->
<g id="edge24" class="edge">
<title>532&#45;&gt;594</title>
<path fill="none" stroke="black" d="M1721.24,-309.99C1765.93,-299.16 1814.38,-287.43 1859.6,-276.47"/>
<polygon fill="black" stroke="black" points="1860.6,-279.83 1869.5,-274.07 1858.96,-273.03 1860.6,-279.83"/>
</g>
<!-- 534 -->
<g id="node19" class="node">
<title>534</title>
<polygon fill="#fcfafe" stroke="black" points="1547.5,-155 1272.5,-155 1272.5,-72 1547.5,-72 1547.5,-155"/>
<text text-anchor="middle" x="1410" y="-139.8" font-family="Times,serif" font-size="14.00">nbproc &lt;= 4.5</text>
<text text-anchor="middle" x="1410" y="-124.8" font-family="Times,serif" font-size="14.00">gini = 0.806</text>
<text text-anchor="middle" x="1410" y="-109.8" font-family="Times,serif" font-size="14.00">samples = 1046</text>
<text text-anchor="middle" x="1410" y="-94.8" font-family="Times,serif" font-size="14.00">value = [246, 208, 96, 148, 266, 82]</text>
<text text-anchor="middle" x="1410" y="-79.8" font-family="Times,serif" font-size="14.00">class = DL</text>
</g>
<!-- 533&#45;&gt;534 -->
<g id="edge18" class="edge">
<title>533&#45;&gt;534</title>
<path fill="none" stroke="black" d="M1504.04,-190.91C1492.31,-181.38 1479.72,-171.15 1467.69,-161.37"/>
<polygon fill="black" stroke="black" points="1469.84,-158.61 1459.87,-155.02 1465.43,-164.04 1469.84,-158.61"/>
</g>
<!-- 563 -->
<g id="node22" class="node">
<title>563</title>
<polygon fill="#c4f7d9" stroke="black" points="1858.5,-155 1565.5,-155 1565.5,-72 1858.5,-72 1858.5,-155"/>
<text text-anchor="middle" x="1712" y="-139.8" font-family="Times,serif" font-size="14.00">graphSize &lt;= 75.0</text>
<text text-anchor="middle" x="1712" y="-124.8" font-family="Times,serif" font-size="14.00">gini = 0.743</text>
<text text-anchor="middle" x="1712" y="-109.8" font-family="Times,serif" font-size="14.00">samples = 2792</text>
<text text-anchor="middle" x="1712" y="-94.8" font-family="Times,serif" font-size="14.00">value = [380, 356, 1180, 492, 300, 84]</text>
<text text-anchor="middle" x="1712" y="-79.8" font-family="Times,serif" font-size="14.00">class = OLB</text>
</g>
<!-- 533&#45;&gt;563 -->
<g id="edge21" class="edge">
<title>533&#45;&gt;563</title>
<path fill="none" stroke="black" d="M1608.82,-190.91C1621.81,-181.29 1635.76,-170.95 1649.08,-161.09"/>
<polygon fill="black" stroke="black" points="1651.33,-163.78 1657.28,-155.02 1647.16,-158.16 1651.33,-163.78"/>
</g>
<!-- 535 -->
<g id="node20" class="node">
<title>535</title>
<polygon fill="#c0c0c0" stroke="black" points="1401,-36 1347,-36 1347,0 1401,0 1401,-36"/>
<text text-anchor="middle" x="1374" y="-14.3" font-family="Times,serif" font-size="14.00">(...)</text>
</g>
<!-- 534&#45;&gt;535 -->
<g id="edge19" class="edge">
<title>534&#45;&gt;535</title>
<path fill="none" stroke="black" d="M1394.31,-71.76C1390.96,-63.04 1387.49,-54.04 1384.39,-45.99"/>
<polygon fill="black" stroke="black" points="1387.56,-44.48 1380.7,-36.41 1381.03,-46.99 1387.56,-44.48"/>
</g>
<!-- 548 -->
<g id="node21" class="node">
<title>548</title>
<polygon fill="#c0c0c0" stroke="black" points="1473,-36 1419,-36 1419,0 1473,0 1473,-36"/>
<text text-anchor="middle" x="1446" y="-14.3" font-family="Times,serif" font-size="14.00">(...)</text>
</g>
<!-- 534&#45;&gt;548 -->
<g id="edge20" class="edge">
<title>534&#45;&gt;548</title>
<path fill="none" stroke="black" d="M1425.69,-71.76C1429.04,-63.04 1432.51,-54.04 1435.61,-45.99"/>
<polygon fill="black" stroke="black" points="1438.97,-46.99 1439.3,-36.41 1432.44,-44.48 1438.97,-46.99"/>
</g>
<!-- 564 -->
<g id="node23" class="node">
<title>564</title>
<polygon fill="#c0c0c0" stroke="black" points="1703,-36 1649,-36 1649,0 1703,0 1703,-36"/>
<text text-anchor="middle" x="1676" y="-14.3" font-family="Times,serif" font-size="14.00">(...)</text>
</g>
<!-- 563&#45;&gt;564 -->
<g id="edge22" class="edge">
<title>563&#45;&gt;564</title>
<path fill="none" stroke="black" d="M1696.31,-71.76C1692.96,-63.04 1689.49,-54.04 1686.39,-45.99"/>
<polygon fill="black" stroke="black" points="1689.56,-44.48 1682.7,-36.41 1683.03,-46.99 1689.56,-44.48"/>
</g>
<!-- 581 -->
<g id="node24" class="node">
<title>581</title>
<polygon fill="#c0c0c0" stroke="black" points="1775,-36 1721,-36 1721,0 1775,0 1775,-36"/>
<text text-anchor="middle" x="1748" y="-14.3" font-family="Times,serif" font-size="14.00">(...)</text>
</g>
<!-- 563&#45;&gt;581 -->
<g id="edge23" class="edge">
<title>563&#45;&gt;581</title>
<path fill="none" stroke="black" d="M1727.69,-71.76C1731.04,-63.04 1734.51,-54.04 1737.61,-45.99"/>
<polygon fill="black" stroke="black" points="1740.97,-46.99 1741.3,-36.41 1734.44,-44.48 1740.97,-46.99"/>
</g>
<!-- 595 -->
<g id="node26" class="node">
<title>595</title>
<polygon fill="#fefaf7" stroke="black" points="2197,-155 1877,-155 1877,-72 2197,-72 2197,-155"/>
<text text-anchor="middle" x="2037" y="-139.8" font-family="Times,serif" font-size="14.00">graphDepth &lt;= 6.5</text>
<text text-anchor="middle" x="2037" y="-124.8" font-family="Times,serif" font-size="14.00">gini = 0.79</text>
<text text-anchor="middle" x="2037" y="-109.8" font-family="Times,serif" font-size="14.00">samples = 5460</text>
<text text-anchor="middle" x="2037" y="-94.8" font-family="Times,serif" font-size="14.00">value = [1450, 884, 1280, 148, 1220, 478]</text>
<text text-anchor="middle" x="2037" y="-79.8" font-family="Times,serif" font-size="14.00">class = eft</text>
</g>
<!-- 594&#45;&gt;595 -->
<g id="edge25" class="edge">
<title>594&#45;&gt;595</title>
<path fill="none" stroke="black" d="M2037,-190.91C2037,-182.65 2037,-173.86 2037,-165.3"/>
<polygon fill="black" stroke="black" points="2040.5,-165.02 2037,-155.02 2033.5,-165.02 2040.5,-165.02"/>
</g>
<!-- 674 -->
<g id="node29" class="node">
<title>674</title>
<polygon fill="#f9f6fe" stroke="black" points="2535,-155 2215,-155 2215,-72 2535,-72 2535,-155"/>
<text text-anchor="middle" x="2375" y="-139.8" font-family="Times,serif" font-size="14.00">nbproc &lt;= 4.5</text>
<text text-anchor="middle" x="2375" y="-124.8" font-family="Times,serif" font-size="14.00">gini = 0.794</text>
<text text-anchor="middle" x="2375" y="-109.8" font-family="Times,serif" font-size="14.00">samples = 6035</text>
<text text-anchor="middle" x="2375" y="-94.8" font-family="Times,serif" font-size="14.00">value = [1336, 1066, 1004, 0, 1547, 1082]</text>
<text text-anchor="middle" x="2375" y="-79.8" font-family="Times,serif" font-size="14.00">class = DL</text>
</g>
<!-- 594&#45;&gt;674 -->
<g id="edge28" class="edge">
<title>594&#45;&gt;674</title>
<path fill="none" stroke="black" d="M2154.27,-190.91C2184.68,-180.38 2217.56,-169 2248.43,-158.31"/>
<polygon fill="black" stroke="black" points="2249.63,-161.6 2257.94,-155.02 2247.35,-154.98 2249.63,-161.6"/>
</g>
<!-- 596 -->
<g id="node27" class="node">
<title>596</title>
<polygon fill="#c0c0c0" stroke="black" points="2028,-36 1974,-36 1974,0 2028,0 2028,-36"/>
<text text-anchor="middle" x="2001" y="-14.3" font-family="Times,serif" font-size="14.00">(...)</text>
</g>
<!-- 595&#45;&gt;596 -->
<g id="edge26" class="edge">
<title>595&#45;&gt;596</title>
<path fill="none" stroke="black" d="M2021.31,-71.76C2017.96,-63.04 2014.49,-54.04 2011.39,-45.99"/>
<polygon fill="black" stroke="black" points="2014.56,-44.48 2007.7,-36.41 2008.03,-46.99 2014.56,-44.48"/>
</g>
<!-- 621 -->
<g id="node28" class="node">
<title>621</title>
<polygon fill="#c0c0c0" stroke="black" points="2100,-36 2046,-36 2046,0 2100,0 2100,-36"/>
<text text-anchor="middle" x="2073" y="-14.3" font-family="Times,serif" font-size="14.00">(...)</text>
</g>
<!-- 595&#45;&gt;621 -->
<g id="edge27" class="edge">
<title>595&#45;&gt;621</title>
<path fill="none" stroke="black" d="M2052.69,-71.76C2056.04,-63.04 2059.51,-54.04 2062.61,-45.99"/>
<polygon fill="black" stroke="black" points="2065.97,-46.99 2066.3,-36.41 2059.44,-44.48 2065.97,-46.99"/>
</g>
<!-- 675 -->
<g id="node30" class="node">
<title>675</title>
<polygon fill="#c0c0c0" stroke="black" points="2366,-36 2312,-36 2312,0 2366,0 2366,-36"/>
<text text-anchor="middle" x="2339" y="-14.3" font-family="Times,serif" font-size="14.00">(...)</text>
</g>
<!-- 674&#45;&gt;675 -->
<g id="edge29" class="edge">
<title>674&#45;&gt;675</title>
<path fill="none" stroke="black" d="M2359.31,-71.76C2355.96,-63.04 2352.49,-54.04 2349.39,-45.99"/>
<polygon fill="black" stroke="black" points="2352.56,-44.48 2345.7,-36.41 2346.03,-46.99 2352.56,-44.48"/>
</g>
<!-- 716 -->
<g id="node31" class="node">
<title>716</title>
<polygon fill="#c0c0c0" stroke="black" points="2438,-36 2384,-36 2384,0 2438,0 2438,-36"/>
<text text-anchor="middle" x="2411" y="-14.3" font-family="Times,serif" font-size="14.00">(...)</text>
</g>
<!-- 674&#45;&gt;716 -->
<g id="edge30" class="edge">
<title>674&#45;&gt;716</title>
<path fill="none" stroke="black" d="M2390.69,-71.76C2394.04,-63.04 2397.51,-54.04 2400.61,-45.99"/>
<polygon fill="black" stroke="black" points="2403.97,-46.99 2404.3,-36.41 2397.44,-44.48 2403.97,-46.99"/>
</g>
</g>
</svg>
