<?xml version="1.0" encoding="UTF-8" standalone="no"?>
<!DOCTYPE svg PUBLIC "-//W3C//DTD SVG 1.1//EN"
 "http://www.w3.org/Graphics/SVG/1.1/DTD/svg11.dtd">
<!-- Generated by graphviz version 2.43.0 (0)
 -->
<!-- Title: Tree Pages: 1 -->
<svg width="1434pt" height="520pt"
 viewBox="0.00 0.00 1434.00 520.00" xmlns="http://www.w3.org/2000/svg" xmlns:xlink="http://www.w3.org/1999/xlink">
<g id="graph0" class="graph" transform="scale(1 1) rotate(0) translate(4 516)">
<title>Tree</title>
<polygon fill="white" stroke="transparent" points="-4,4 -4,-516 1430,-516 1430,4 -4,4"/>
<!-- 0 -->
<g id="node1" class="node">
<title>0</title>
<polygon fill="#ffffff" stroke="black" points="774,-512 589,-512 589,-429 774,-429 774,-512"/>
<text text-anchor="middle" x="681.5" y="-496.8" font-family="Times,serif" font-size="14.00">graphDepth &lt;= 3.5</text>
<text text-anchor="middle" x="681.5" y="-481.8" font-family="Times,serif" font-size="14.00">gini = 0.5</text>
<text text-anchor="middle" x="681.5" y="-466.8" font-family="Times,serif" font-size="14.00">samples = 57574</text>
<text text-anchor="middle" x="681.5" y="-451.8" font-family="Times,serif" font-size="14.00">value = [28756, 28818]</text>
<text text-anchor="middle" x="681.5" y="-436.8" font-family="Times,serif" font-size="14.00">class = True</text>
</g>
<!-- 1 -->
<g id="node2" class="node">
<title>1</title>
<polygon fill="#fcfeff" stroke="black" points="598,-393 431,-393 431,-310 598,-310 598,-393"/>
<text text-anchor="middle" x="514.5" y="-377.8" font-family="Times,serif" font-size="14.00">sdComp &lt;= 0.65</text>
<text text-anchor="middle" x="514.5" y="-362.8" font-family="Times,serif" font-size="14.00">gini = 0.5</text>
<text text-anchor="middle" x="514.5" y="-347.8" font-family="Times,serif" font-size="14.00">samples = 7148</text>
<text text-anchor="middle" x="514.5" y="-332.8" font-family="Times,serif" font-size="14.00">value = [3547, 3601]</text>
<text text-anchor="middle" x="514.5" y="-317.8" font-family="Times,serif" font-size="14.00">class = True</text>
</g>
<!-- 0&#45;&gt;1 -->
<g id="edge1" class="edge">
<title>0&#45;&gt;1</title>
<path fill="none" stroke="black" d="M623.56,-428.91C609.7,-419.2 594.8,-408.76 580.6,-398.81"/>
<polygon fill="black" stroke="black" points="582.54,-395.89 572.34,-393.02 578.52,-401.63 582.54,-395.89"/>
<text text-anchor="middle" x="576.67" y="-413.94" font-family="Times,serif" font-size="14.00">True</text>
</g>
<!-- 76 -->
<g id="node17" class="node">
<title>76</title>
<polygon fill="#ffffff" stroke="black" points="959,-393 774,-393 774,-310 959,-310 959,-393"/>
<text text-anchor="middle" x="866.5" y="-377.8" font-family="Times,serif" font-size="14.00">sdComp &lt;= 0.2</text>
<text text-anchor="middle" x="866.5" y="-362.8" font-family="Times,serif" font-size="14.00">gini = 0.5</text>
<text text-anchor="middle" x="866.5" y="-347.8" font-family="Times,serif" font-size="14.00">samples = 50426</text>
<text text-anchor="middle" x="866.5" y="-332.8" font-family="Times,serif" font-size="14.00">value = [25209, 25217]</text>
<text text-anchor="middle" x="866.5" y="-317.8" font-family="Times,serif" font-size="14.00">class = True</text>
</g>
<!-- 0&#45;&gt;76 -->
<g id="edge16" class="edge">
<title>0&#45;&gt;76</title>
<path fill="none" stroke="black" d="M745.68,-428.91C761.18,-419.11 777.85,-408.56 793.71,-398.53"/>
<polygon fill="black" stroke="black" points="795.85,-401.32 802.43,-393.02 792.11,-395.41 795.85,-401.32"/>
<text text-anchor="middle" x="796.94" y="-413.71" font-family="Times,serif" font-size="14.00">False</text>
</g>
<!-- 2 -->
<g id="node3" class="node">
<title>2</title>
<polygon fill="#ffffff" stroke="black" points="343,-274 176,-274 176,-191 343,-191 343,-274"/>
<text text-anchor="middle" x="259.5" y="-258.8" font-family="Times,serif" font-size="14.00">CCR &lt;= 0.55</text>
<text text-anchor="middle" x="259.5" y="-243.8" font-family="Times,serif" font-size="14.00">gini = 0.5</text>
<text text-anchor="middle" x="259.5" y="-228.8" font-family="Times,serif" font-size="14.00">samples = 4736</text>
<text text-anchor="middle" x="259.5" y="-213.8" font-family="Times,serif" font-size="14.00">value = [2367, 2369]</text>
<text text-anchor="middle" x="259.5" y="-198.8" font-family="Times,serif" font-size="14.00">class = True</text>
</g>
<!-- 1&#45;&gt;2 -->
<g id="edge2" class="edge">
<title>1&#45;&gt;2</title>
<path fill="none" stroke="black" d="M430.65,-312.03C405.7,-300.58 378.21,-287.97 352.7,-276.26"/>
<polygon fill="black" stroke="black" points="353.95,-272.98 343.4,-272 351.03,-279.35 353.95,-272.98"/>
</g>
<!-- 41 -->
<g id="node10" class="node">
<title>41</title>
<polygon fill="#f7fbfe" stroke="black" points="598,-274 431,-274 431,-191 598,-191 598,-274"/>
<text text-anchor="middle" x="514.5" y="-258.8" font-family="Times,serif" font-size="14.00">sdComm &lt;= 0.2</text>
<text text-anchor="middle" x="514.5" y="-243.8" font-family="Times,serif" font-size="14.00">gini = 0.5</text>
<text text-anchor="middle" x="514.5" y="-228.8" font-family="Times,serif" font-size="14.00">samples = 2412</text>
<text text-anchor="middle" x="514.5" y="-213.8" font-family="Times,serif" font-size="14.00">value = [1180, 1232]</text>
<text text-anchor="middle" x="514.5" y="-198.8" font-family="Times,serif" font-size="14.00">class = True</text>
</g>
<!-- 1&#45;&gt;41 -->
<g id="edge9" class="edge">
<title>1&#45;&gt;41</title>
<path fill="none" stroke="black" d="M514.5,-309.91C514.5,-301.65 514.5,-292.86 514.5,-284.3"/>
<polygon fill="black" stroke="black" points="518,-284.02 514.5,-274.02 511,-284.02 518,-284.02"/>
</g>
<!-- 3 -->
<g id="node4" class="node">
<title>3</title>
<polygon fill="#ffffff" stroke="black" points="167,-155 0,-155 0,-72 167,-72 167,-155"/>
<text text-anchor="middle" x="83.5" y="-139.8" font-family="Times,serif" font-size="14.00">sdComp &lt;= 0.02</text>
<text text-anchor="middle" x="83.5" y="-124.8" font-family="Times,serif" font-size="14.00">gini = 0.5</text>
<text text-anchor="middle" x="83.5" y="-109.8" font-family="Times,serif" font-size="14.00">samples = 4100</text>
<text text-anchor="middle" x="83.5" y="-94.8" font-family="Times,serif" font-size="14.00">value = [2050, 2050]</text>
<text text-anchor="middle" x="83.5" y="-79.8" font-family="Times,serif" font-size="14.00">class = False</text>
</g>
<!-- 2&#45;&gt;3 -->
<g id="edge3" class="edge">
<title>2&#45;&gt;3</title>
<path fill="none" stroke="black" d="M198.44,-190.91C183.83,-181.2 168.13,-170.76 153.16,-160.81"/>
<polygon fill="black" stroke="black" points="154.72,-157.64 144.45,-155.02 150.84,-163.47 154.72,-157.64"/>
</g>
<!-- 26 -->
<g id="node7" class="node">
<title>26</title>
<polygon fill="#fefeff" stroke="black" points="334,-155 185,-155 185,-72 334,-72 334,-155"/>
<text text-anchor="middle" x="259.5" y="-139.8" font-family="Times,serif" font-size="14.00">sdComm &lt;= 0.2</text>
<text text-anchor="middle" x="259.5" y="-124.8" font-family="Times,serif" font-size="14.00">gini = 0.5</text>
<text text-anchor="middle" x="259.5" y="-109.8" font-family="Times,serif" font-size="14.00">samples = 636</text>
<text text-anchor="middle" x="259.5" y="-94.8" font-family="Times,serif" font-size="14.00">value = [317, 319]</text>
<text text-anchor="middle" x="259.5" y="-79.8" font-family="Times,serif" font-size="14.00">class = True</text>
</g>
<!-- 2&#45;&gt;26 -->
<g id="edge6" class="edge">
<title>2&#45;&gt;26</title>
<path fill="none" stroke="black" d="M259.5,-190.91C259.5,-182.65 259.5,-173.86 259.5,-165.3"/>
<polygon fill="black" stroke="black" points="263,-165.02 259.5,-155.02 256,-165.02 263,-165.02"/>
</g>
<!-- 4 -->
<g id="node5" class="node">
<title>4</title>
<polygon fill="#c0c0c0" stroke="black" points="74.5,-36 20.5,-36 20.5,0 74.5,0 74.5,-36"/>
<text text-anchor="middle" x="47.5" y="-14.3" font-family="Times,serif" font-size="14.00">(...)</text>
</g>
<!-- 3&#45;&gt;4 -->
<g id="edge4" class="edge">
<title>3&#45;&gt;4</title>
<path fill="none" stroke="black" d="M67.81,-71.76C64.46,-63.04 60.99,-54.04 57.89,-45.99"/>
<polygon fill="black" stroke="black" points="61.06,-44.48 54.2,-36.41 54.53,-46.99 61.06,-44.48"/>
</g>
<!-- 9 -->
<g id="node6" class="node">
<title>9</title>
<polygon fill="#c0c0c0" stroke="black" points="146.5,-36 92.5,-36 92.5,0 146.5,0 146.5,-36"/>
<text text-anchor="middle" x="119.5" y="-14.3" font-family="Times,serif" font-size="14.00">(...)</text>
</g>
<!-- 3&#45;&gt;9 -->
<g id="edge5" class="edge">
<title>3&#45;&gt;9</title>
<path fill="none" stroke="black" d="M99.19,-71.76C102.54,-63.04 106.01,-54.04 109.11,-45.99"/>
<polygon fill="black" stroke="black" points="112.47,-46.99 112.8,-36.41 105.94,-44.48 112.47,-46.99"/>
</g>
<!-- 27 -->
<g id="node8" class="node">
<title>27</title>
<polygon fill="#c0c0c0" stroke="black" points="249.5,-36 195.5,-36 195.5,0 249.5,0 249.5,-36"/>
<text text-anchor="middle" x="222.5" y="-14.3" font-family="Times,serif" font-size="14.00">(...)</text>
</g>
<!-- 26&#45;&gt;27 -->
<g id="edge7" class="edge">
<title>26&#45;&gt;27</title>
<path fill="none" stroke="black" d="M243.38,-71.76C239.89,-62.94 236.29,-53.84 233.08,-45.72"/>
<polygon fill="black" stroke="black" points="236.32,-44.42 229.39,-36.41 229.81,-46.99 236.32,-44.42"/>
</g>
<!-- 32 -->
<g id="node9" class="node">
<title>32</title>
<polygon fill="#c0c0c0" stroke="black" points="321.5,-36 267.5,-36 267.5,0 321.5,0 321.5,-36"/>
<text text-anchor="middle" x="294.5" y="-14.3" font-family="Times,serif" font-size="14.00">(...)</text>
</g>
<!-- 26&#45;&gt;32 -->
<g id="edge8" class="edge">
<title>26&#45;&gt;32</title>
<path fill="none" stroke="black" d="M274.75,-71.76C278.01,-63.04 281.38,-54.04 284.4,-45.99"/>
<polygon fill="black" stroke="black" points="287.76,-47 287.98,-36.41 281.2,-44.54 287.76,-47"/>
</g>
<!-- 42 -->
<g id="node11" class="node">
<title>42</title>
<polygon fill="#daedfa" stroke="black" points="501,-155 352,-155 352,-72 501,-72 501,-155"/>
<text text-anchor="middle" x="426.5" y="-139.8" font-family="Times,serif" font-size="14.00">nbproc &lt;= 4.5</text>
<text text-anchor="middle" x="426.5" y="-124.8" font-family="Times,serif" font-size="14.00">gini = 0.495</text>
<text text-anchor="middle" x="426.5" y="-109.8" font-family="Times,serif" font-size="14.00">samples = 464</text>
<text text-anchor="middle" x="426.5" y="-94.8" font-family="Times,serif" font-size="14.00">value = [208, 256]</text>
<text text-anchor="middle" x="426.5" y="-79.8" font-family="Times,serif" font-size="14.00">class = True</text>
</g>
<!-- 41&#45;&gt;42 -->
<g id="edge10" class="edge">
<title>41&#45;&gt;42</title>
<path fill="none" stroke="black" d="M483.97,-190.91C477.21,-181.92 469.98,-172.32 463.02,-163.05"/>
<polygon fill="black" stroke="black" points="465.79,-160.91 456.98,-155.02 460.19,-165.12 465.79,-160.91"/>
</g>
<!-- 45 -->
<g id="node14" class="node">
<title>45</title>
<polygon fill="#feffff" stroke="black" points="668,-155 519,-155 519,-72 668,-72 668,-155"/>
<text text-anchor="middle" x="593.5" y="-139.8" font-family="Times,serif" font-size="14.00">nbproc &lt;= 4.5</text>
<text text-anchor="middle" x="593.5" y="-124.8" font-family="Times,serif" font-size="14.00">gini = 0.5</text>
<text text-anchor="middle" x="593.5" y="-109.8" font-family="Times,serif" font-size="14.00">samples = 1948</text>
<text text-anchor="middle" x="593.5" y="-94.8" font-family="Times,serif" font-size="14.00">value = [972, 976]</text>
<text text-anchor="middle" x="593.5" y="-79.8" font-family="Times,serif" font-size="14.00">class = True</text>
</g>
<!-- 41&#45;&gt;45 -->
<g id="edge13" class="edge">
<title>41&#45;&gt;45</title>
<path fill="none" stroke="black" d="M541.91,-190.91C547.91,-182.01 554.33,-172.51 560.53,-163.33"/>
<polygon fill="black" stroke="black" points="563.44,-165.27 566.14,-155.02 557.64,-161.35 563.44,-165.27"/>
</g>
<!-- 43 -->
<g id="node12" class="node">
<title>43</title>
<polygon fill="#c0c0c0" stroke="black" points="414.5,-36 360.5,-36 360.5,0 414.5,0 414.5,-36"/>
<text text-anchor="middle" x="387.5" y="-14.3" font-family="Times,serif" font-size="14.00">(...)</text>
</g>
<!-- 42&#45;&gt;43 -->
<g id="edge11" class="edge">
<title>42&#45;&gt;43</title>
<path fill="none" stroke="black" d="M409.51,-71.76C405.83,-62.94 402.03,-53.84 398.65,-45.72"/>
<polygon fill="black" stroke="black" points="401.84,-44.29 394.76,-36.41 395.38,-46.98 401.84,-44.29"/>
</g>
<!-- 44 -->
<g id="node13" class="node">
<title>44</title>
<polygon fill="#c0c0c0" stroke="black" points="486.5,-36 432.5,-36 432.5,0 486.5,0 486.5,-36"/>
<text text-anchor="middle" x="459.5" y="-14.3" font-family="Times,serif" font-size="14.00">(...)</text>
</g>
<!-- 42&#45;&gt;44 -->
<g id="edge12" class="edge">
<title>42&#45;&gt;44</title>
<path fill="none" stroke="black" d="M440.88,-71.76C443.96,-63.04 447.13,-54.04 449.97,-45.99"/>
<polygon fill="black" stroke="black" points="453.33,-47 453.36,-36.41 446.73,-44.67 453.33,-47"/>
</g>
<!-- 46 -->
<g id="node15" class="node">
<title>46</title>
<polygon fill="#c0c0c0" stroke="black" points="568.5,-36 514.5,-36 514.5,0 568.5,0 568.5,-36"/>
<text text-anchor="middle" x="541.5" y="-14.3" font-family="Times,serif" font-size="14.00">(...)</text>
</g>
<!-- 45&#45;&gt;46 -->
<g id="edge14" class="edge">
<title>45&#45;&gt;46</title>
<path fill="none" stroke="black" d="M570.84,-71.76C565.83,-62.75 560.65,-53.44 556.07,-45.19"/>
<polygon fill="black" stroke="black" points="559.1,-43.44 551.18,-36.41 552.98,-46.85 559.1,-43.44"/>
</g>
<!-- 57 -->
<g id="node16" class="node">
<title>57</title>
<polygon fill="#c0c0c0" stroke="black" points="640.5,-36 586.5,-36 586.5,0 640.5,0 640.5,-36"/>
<text text-anchor="middle" x="613.5" y="-14.3" font-family="Times,serif" font-size="14.00">(...)</text>
</g>
<!-- 45&#45;&gt;57 -->
<g id="edge15" class="edge">
<title>45&#45;&gt;57</title>
<path fill="none" stroke="black" d="M602.21,-71.76C604.06,-63.14 605.96,-54.24 607.67,-46.26"/>
<polygon fill="black" stroke="black" points="611.11,-46.92 609.78,-36.41 604.26,-45.45 611.11,-46.92"/>
</g>
<!-- 77 -->
<g id="node18" class="node">
<title>77</title>
<polygon fill="#ffffff" stroke="black" points="959,-274 774,-274 774,-191 959,-191 959,-274"/>
<text text-anchor="middle" x="866.5" y="-258.8" font-family="Times,serif" font-size="14.00">graphDepth &lt;= 6.5</text>
<text text-anchor="middle" x="866.5" y="-243.8" font-family="Times,serif" font-size="14.00">gini = 0.5</text>
<text text-anchor="middle" x="866.5" y="-228.8" font-family="Times,serif" font-size="14.00">samples = 28788</text>
<text text-anchor="middle" x="866.5" y="-213.8" font-family="Times,serif" font-size="14.00">value = [14394, 14394]</text>
<text text-anchor="middle" x="866.5" y="-198.8" font-family="Times,serif" font-size="14.00">class = False</text>
</g>
<!-- 76&#45;&gt;77 -->
<g id="edge17" class="edge">
<title>76&#45;&gt;77</title>
<path fill="none" stroke="black" d="M866.5,-309.91C866.5,-301.65 866.5,-292.86 866.5,-284.3"/>
<polygon fill="black" stroke="black" points="870,-284.02 866.5,-274.02 863,-284.02 870,-284.02"/>
</g>
<!-- 410 -->
<g id="node25" class="node">
<title>410</title>
<polygon fill="#ffffff" stroke="black" points="1250,-274 1065,-274 1065,-191 1250,-191 1250,-274"/>
<text text-anchor="middle" x="1157.5" y="-258.8" font-family="Times,serif" font-size="14.00">CCR &lt;= 5.5</text>
<text text-anchor="middle" x="1157.5" y="-243.8" font-family="Times,serif" font-size="14.00">gini = 0.5</text>
<text text-anchor="middle" x="1157.5" y="-228.8" font-family="Times,serif" font-size="14.00">samples = 21638</text>
<text text-anchor="middle" x="1157.5" y="-213.8" font-family="Times,serif" font-size="14.00">value = [10815, 10823]</text>
<text text-anchor="middle" x="1157.5" y="-198.8" font-family="Times,serif" font-size="14.00">class = True</text>
</g>
<!-- 76&#45;&gt;410 -->
<g id="edge24" class="edge">
<title>76&#45;&gt;410</title>
<path fill="none" stroke="black" d="M959.37,-313.16C989.82,-300.92 1023.83,-287.24 1054.95,-274.73"/>
<polygon fill="black" stroke="black" points="1056.54,-277.87 1064.51,-270.89 1053.93,-271.37 1056.54,-277.87"/>
</g>
<!-- 78 -->
<g id="node19" class="node">
<title>78</title>
<polygon fill="#ffffff" stroke="black" points="871,-155 686,-155 686,-72 871,-72 871,-155"/>
<text text-anchor="middle" x="778.5" y="-139.8" font-family="Times,serif" font-size="14.00">sdComm &lt;= 0.02</text>
<text text-anchor="middle" x="778.5" y="-124.8" font-family="Times,serif" font-size="14.00">gini = 0.5</text>
<text text-anchor="middle" x="778.5" y="-109.8" font-family="Times,serif" font-size="14.00">samples = 20920</text>
<text text-anchor="middle" x="778.5" y="-94.8" font-family="Times,serif" font-size="14.00">value = [10460, 10460]</text>
<text text-anchor="middle" x="778.5" y="-79.8" font-family="Times,serif" font-size="14.00">class = False</text>
</g>
<!-- 77&#45;&gt;78 -->
<g id="edge18" class="edge">
<title>77&#45;&gt;78</title>
<path fill="none" stroke="black" d="M835.97,-190.91C829.21,-181.92 821.98,-172.32 815.02,-163.05"/>
<polygon fill="black" stroke="black" points="817.79,-160.91 808.98,-155.02 812.19,-165.12 817.79,-160.91"/>
</g>
<!-- 173 -->
<g id="node22" class="node">
<title>173</title>
<polygon fill="#ffffff" stroke="black" points="1056,-155 889,-155 889,-72 1056,-72 1056,-155"/>
<text text-anchor="middle" x="972.5" y="-139.8" font-family="Times,serif" font-size="14.00">sdComp &lt;= 0.02</text>
<text text-anchor="middle" x="972.5" y="-124.8" font-family="Times,serif" font-size="14.00">gini = 0.5</text>
<text text-anchor="middle" x="972.5" y="-109.8" font-family="Times,serif" font-size="14.00">samples = 7868</text>
<text text-anchor="middle" x="972.5" y="-94.8" font-family="Times,serif" font-size="14.00">value = [3934, 3934]</text>
<text text-anchor="middle" x="972.5" y="-79.8" font-family="Times,serif" font-size="14.00">class = False</text>
</g>
<!-- 77&#45;&gt;173 -->
<g id="edge21" class="edge">
<title>77&#45;&gt;173</title>
<path fill="none" stroke="black" d="M903.28,-190.91C911.58,-181.74 920.47,-171.93 929.02,-162.49"/>
<polygon fill="black" stroke="black" points="931.67,-164.78 935.79,-155.02 926.48,-160.08 931.67,-164.78"/>
</g>
<!-- 79 -->
<g id="node20" class="node">
<title>79</title>
<polygon fill="#c0c0c0" stroke="black" points="758.5,-36 704.5,-36 704.5,0 758.5,0 758.5,-36"/>
<text text-anchor="middle" x="731.5" y="-14.3" font-family="Times,serif" font-size="14.00">(...)</text>
</g>
<!-- 78&#45;&gt;79 -->
<g id="edge19" class="edge">
<title>78&#45;&gt;79</title>
<path fill="none" stroke="black" d="M758.02,-71.76C753.54,-62.85 748.91,-53.64 744.8,-45.46"/>
<polygon fill="black" stroke="black" points="747.87,-43.77 740.25,-36.41 741.61,-46.91 747.87,-43.77"/>
</g>
<!-- 102 -->
<g id="node21" class="node">
<title>102</title>
<polygon fill="#c0c0c0" stroke="black" points="830.5,-36 776.5,-36 776.5,0 830.5,0 830.5,-36"/>
<text text-anchor="middle" x="803.5" y="-14.3" font-family="Times,serif" font-size="14.00">(...)</text>
</g>
<!-- 78&#45;&gt;102 -->
<g id="edge20" class="edge">
<title>78&#45;&gt;102</title>
<path fill="none" stroke="black" d="M789.39,-71.76C791.7,-63.14 794.08,-54.24 796.21,-46.26"/>
<polygon fill="black" stroke="black" points="799.64,-46.97 798.85,-36.41 792.88,-45.16 799.64,-46.97"/>
</g>
<!-- 174 -->
<g id="node23" class="node">
<title>174</title>
<polygon fill="#c0c0c0" stroke="black" points="947.5,-36 893.5,-36 893.5,0 947.5,0 947.5,-36"/>
<text text-anchor="middle" x="920.5" y="-14.3" font-family="Times,serif" font-size="14.00">(...)</text>
</g>
<!-- 173&#45;&gt;174 -->
<g id="edge22" class="edge">
<title>173&#45;&gt;174</title>
<path fill="none" stroke="black" d="M949.84,-71.76C944.83,-62.75 939.65,-53.44 935.07,-45.19"/>
<polygon fill="black" stroke="black" points="938.1,-43.44 930.18,-36.41 931.98,-46.85 938.1,-43.44"/>
</g>
<!-- 233 -->
<g id="node24" class="node">
<title>233</title>
<polygon fill="#c0c0c0" stroke="black" points="1019.5,-36 965.5,-36 965.5,0 1019.5,0 1019.5,-36"/>
<text text-anchor="middle" x="992.5" y="-14.3" font-family="Times,serif" font-size="14.00">(...)</text>
</g>
<!-- 173&#45;&gt;233 -->
<g id="edge23" class="edge">
<title>173&#45;&gt;233</title>
<path fill="none" stroke="black" d="M981.21,-71.76C983.06,-63.14 984.96,-54.24 986.67,-46.26"/>
<polygon fill="black" stroke="black" points="990.11,-46.92 988.78,-36.41 983.26,-45.45 990.11,-46.92"/>
</g>
<!-- 411 -->
<g id="node26" class="node">
<title>411</title>
<polygon fill="#ffffff" stroke="black" points="1241,-155 1074,-155 1074,-72 1241,-72 1241,-155"/>
<text text-anchor="middle" x="1157.5" y="-139.8" font-family="Times,serif" font-size="14.00">nbproc &lt;= 4.5</text>
<text text-anchor="middle" x="1157.5" y="-124.8" font-family="Times,serif" font-size="14.00">gini = 0.5</text>
<text text-anchor="middle" x="1157.5" y="-109.8" font-family="Times,serif" font-size="14.00">samples = 6893</text>
<text text-anchor="middle" x="1157.5" y="-94.8" font-family="Times,serif" font-size="14.00">value = [3443, 3450]</text>
<text text-anchor="middle" x="1157.5" y="-79.8" font-family="Times,serif" font-size="14.00">class = True</text>
</g>
<!-- 410&#45;&gt;411 -->
<g id="edge25" class="edge">
<title>410&#45;&gt;411</title>
<path fill="none" stroke="black" d="M1157.5,-190.91C1157.5,-182.65 1157.5,-173.86 1157.5,-165.3"/>
<polygon fill="black" stroke="black" points="1161,-165.02 1157.5,-155.02 1154,-165.02 1161,-165.02"/>
</g>
<!-- 574 -->
<g id="node29" class="node">
<title>574</title>
<polygon fill="#ffffff" stroke="black" points="1426,-155 1259,-155 1259,-72 1426,-72 1426,-155"/>
<text text-anchor="middle" x="1342.5" y="-139.8" font-family="Times,serif" font-size="14.00">sdComm &lt;= 6.5</text>
<text text-anchor="middle" x="1342.5" y="-124.8" font-family="Times,serif" font-size="14.00">gini = 0.5</text>
<text text-anchor="middle" x="1342.5" y="-109.8" font-family="Times,serif" font-size="14.00">samples = 14745</text>
<text text-anchor="middle" x="1342.5" y="-94.8" font-family="Times,serif" font-size="14.00">value = [7372, 7373]</text>
<text text-anchor="middle" x="1342.5" y="-79.8" font-family="Times,serif" font-size="14.00">class = True</text>
</g>
<!-- 410&#45;&gt;574 -->
<g id="edge28" class="edge">
<title>410&#45;&gt;574</title>
<path fill="none" stroke="black" d="M1221.68,-190.91C1237.18,-181.11 1253.85,-170.56 1269.71,-160.53"/>
<polygon fill="black" stroke="black" points="1271.85,-163.32 1278.43,-155.02 1268.11,-157.41 1271.85,-163.32"/>
</g>
<!-- 412 -->
<g id="node27" class="node">
<title>412</title>
<polygon fill="#c0c0c0" stroke="black" points="1148.5,-36 1094.5,-36 1094.5,0 1148.5,0 1148.5,-36"/>
<text text-anchor="middle" x="1121.5" y="-14.3" font-family="Times,serif" font-size="14.00">(...)</text>
</g>
<!-- 411&#45;&gt;412 -->
<g id="edge26" class="edge">
<title>411&#45;&gt;412</title>
<path fill="none" stroke="black" d="M1141.81,-71.76C1138.46,-63.04 1134.99,-54.04 1131.89,-45.99"/>
<polygon fill="black" stroke="black" points="1135.06,-44.48 1128.2,-36.41 1128.53,-46.99 1135.06,-44.48"/>
</g>
<!-- 491 -->
<g id="node28" class="node">
<title>491</title>
<polygon fill="#c0c0c0" stroke="black" points="1220.5,-36 1166.5,-36 1166.5,0 1220.5,0 1220.5,-36"/>
<text text-anchor="middle" x="1193.5" y="-14.3" font-family="Times,serif" font-size="14.00">(...)</text>
</g>
<!-- 411&#45;&gt;491 -->
<g id="edge27" class="edge">
<title>411&#45;&gt;491</title>
<path fill="none" stroke="black" d="M1173.19,-71.76C1176.54,-63.04 1180.01,-54.04 1183.11,-45.99"/>
<polygon fill="black" stroke="black" points="1186.47,-46.99 1186.8,-36.41 1179.94,-44.48 1186.47,-46.99"/>
</g>
<!-- 575 -->
<g id="node30" class="node">
<title>575</title>
<polygon fill="#c0c0c0" stroke="black" points="1333.5,-36 1279.5,-36 1279.5,0 1333.5,0 1333.5,-36"/>
<text text-anchor="middle" x="1306.5" y="-14.3" font-family="Times,serif" font-size="14.00">(...)</text>
</g>
<!-- 574&#45;&gt;575 -->
<g id="edge29" class="edge">
<title>574&#45;&gt;575</title>
<path fill="none" stroke="black" d="M1326.81,-71.76C1323.46,-63.04 1319.99,-54.04 1316.89,-45.99"/>
<polygon fill="black" stroke="black" points="1320.06,-44.48 1313.2,-36.41 1313.53,-46.99 1320.06,-44.48"/>
</g>
<!-- 712 -->
<g id="node31" class="node">
<title>712</title>
<polygon fill="#c0c0c0" stroke="black" points="1405.5,-36 1351.5,-36 1351.5,0 1405.5,0 1405.5,-36"/>
<text text-anchor="middle" x="1378.5" y="-14.3" font-family="Times,serif" font-size="14.00">(...)</text>
</g>
<!-- 574&#45;&gt;712 -->
<g id="edge30" class="edge">
<title>574&#45;&gt;712</title>
<path fill="none" stroke="black" d="M1358.19,-71.76C1361.54,-63.04 1365.01,-54.04 1368.11,-45.99"/>
<polygon fill="black" stroke="black" points="1371.47,-46.99 1371.8,-36.41 1364.94,-44.48 1371.47,-46.99"/>
</g>
</g>
</svg>
