<?xml version="1.0" encoding="UTF-8" standalone="no"?>
<!DOCTYPE svg PUBLIC "-//W3C//DTD SVG 1.1//EN"
 "http://www.w3.org/Graphics/SVG/1.1/DTD/svg11.dtd">
<!-- Generated by graphviz version 2.43.0 (0)
 -->
<!-- Title: Tree Pages: 1 -->
<svg width="1438pt" height="520pt"
 viewBox="0.00 0.00 1438.00 520.00" xmlns="http://www.w3.org/2000/svg" xmlns:xlink="http://www.w3.org/1999/xlink">
<g id="graph0" class="graph" transform="scale(1 1) rotate(0) translate(4 516)">
<title>Tree</title>
<polygon fill="white" stroke="transparent" points="-4,4 -4,-516 1434,-516 1434,4 -4,4"/>
<!-- 0 -->
<g id="node1" class="node">
<title>0</title>
<polygon fill="#f3f9fd" stroke="black" points="803,-512 618,-512 618,-429 803,-429 803,-512"/>
<text text-anchor="middle" x="710.5" y="-496.8" font-family="Times,serif" font-size="14.00">CCR &lt;= 5.5</text>
<text text-anchor="middle" x="710.5" y="-481.8" font-family="Times,serif" font-size="14.00">gini = 0.5</text>
<text text-anchor="middle" x="710.5" y="-466.8" font-family="Times,serif" font-size="14.00">samples = 57574</text>
<text text-anchor="middle" x="710.5" y="-451.8" font-family="Times,serif" font-size="14.00">value = [27883, 29691]</text>
<text text-anchor="middle" x="710.5" y="-436.8" font-family="Times,serif" font-size="14.00">class = True</text>
</g>
<!-- 1 -->
<g id="node2" class="node">
<title>1</title>
<polygon fill="#d4eaf9" stroke="black" points="637,-393 452,-393 452,-310 637,-310 637,-393"/>
<text text-anchor="middle" x="544.5" y="-377.8" font-family="Times,serif" font-size="14.00">graphSize &lt;= 75.0</text>
<text text-anchor="middle" x="544.5" y="-362.8" font-family="Times,serif" font-size="14.00">gini = 0.493</text>
<text text-anchor="middle" x="544.5" y="-347.8" font-family="Times,serif" font-size="14.00">samples = 42241</text>
<text text-anchor="middle" x="544.5" y="-332.8" font-family="Times,serif" font-size="14.00">value = [18568, 23673]</text>
<text text-anchor="middle" x="544.5" y="-317.8" font-family="Times,serif" font-size="14.00">class = True</text>
</g>
<!-- 0&#45;&gt;1 -->
<g id="edge1" class="edge">
<title>0&#45;&gt;1</title>
<path fill="none" stroke="black" d="M652.91,-428.91C639.13,-419.2 624.32,-408.76 610.21,-398.81"/>
<polygon fill="black" stroke="black" points="612.18,-395.92 601.99,-393.02 608.15,-401.64 612.18,-395.92"/>
<text text-anchor="middle" x="606.26" y="-413.95" font-family="Times,serif" font-size="14.00">True</text>
</g>
<!-- 526 -->
<g id="node17" class="node">
<title>526</title>
<polygon fill="#f6d2b9" stroke="black" points="975,-393 808,-393 808,-310 975,-310 975,-393"/>
<text text-anchor="middle" x="891.5" y="-377.8" font-family="Times,serif" font-size="14.00">sdComp &lt;= 6.5</text>
<text text-anchor="middle" x="891.5" y="-362.8" font-family="Times,serif" font-size="14.00">gini = 0.477</text>
<text text-anchor="middle" x="891.5" y="-347.8" font-family="Times,serif" font-size="14.00">samples = 15333</text>
<text text-anchor="middle" x="891.5" y="-332.8" font-family="Times,serif" font-size="14.00">value = [9315, 6018]</text>
<text text-anchor="middle" x="891.5" y="-317.8" font-family="Times,serif" font-size="14.00">class = False</text>
</g>
<!-- 0&#45;&gt;526 -->
<g id="edge16" class="edge">
<title>0&#45;&gt;526</title>
<path fill="none" stroke="black" d="M773.3,-428.91C788.46,-419.11 804.77,-408.56 820.29,-398.53"/>
<polygon fill="black" stroke="black" points="822.32,-401.39 828.81,-393.02 818.52,-395.51 822.32,-401.39"/>
<text text-anchor="middle" x="823.56" y="-413.76" font-family="Times,serif" font-size="14.00">False</text>
</g>
<!-- 2 -->
<g id="node3" class="node">
<title>2</title>
<polygon fill="#daecfa" stroke="black" points="379,-274 194,-274 194,-191 379,-191 379,-274"/>
<text text-anchor="middle" x="286.5" y="-258.8" font-family="Times,serif" font-size="14.00">graphSize &lt;= 22.5</text>
<text text-anchor="middle" x="286.5" y="-243.8" font-family="Times,serif" font-size="14.00">gini = 0.495</text>
<text text-anchor="middle" x="286.5" y="-228.8" font-family="Times,serif" font-size="14.00">samples = 40221</text>
<text text-anchor="middle" x="286.5" y="-213.8" font-family="Times,serif" font-size="14.00">value = [18010, 22211]</text>
<text text-anchor="middle" x="286.5" y="-198.8" font-family="Times,serif" font-size="14.00">class = True</text>
</g>
<!-- 1&#45;&gt;2 -->
<g id="edge2" class="edge">
<title>1&#45;&gt;2</title>
<path fill="none" stroke="black" d="M454.99,-309.91C432.47,-299.7 408.19,-288.68 385.25,-278.28"/>
<polygon fill="black" stroke="black" points="386.41,-274.96 375.85,-274.02 383.52,-281.34 386.41,-274.96"/>
</g>
<!-- 399 -->
<g id="node10" class="node">
<title>399</title>
<polygon fill="#85c2ef" stroke="black" points="623.5,-274 465.5,-274 465.5,-191 623.5,-191 623.5,-274"/>
<text text-anchor="middle" x="544.5" y="-258.8" font-family="Times,serif" font-size="14.00">nbproc &lt;= 4.5</text>
<text text-anchor="middle" x="544.5" y="-243.8" font-family="Times,serif" font-size="14.00">gini = 0.4</text>
<text text-anchor="middle" x="544.5" y="-228.8" font-family="Times,serif" font-size="14.00">samples = 2020</text>
<text text-anchor="middle" x="544.5" y="-213.8" font-family="Times,serif" font-size="14.00">value = [558, 1462]</text>
<text text-anchor="middle" x="544.5" y="-198.8" font-family="Times,serif" font-size="14.00">class = True</text>
</g>
<!-- 1&#45;&gt;399 -->
<g id="edge9" class="edge">
<title>1&#45;&gt;399</title>
<path fill="none" stroke="black" d="M544.5,-309.91C544.5,-301.65 544.5,-292.86 544.5,-284.3"/>
<polygon fill="black" stroke="black" points="548,-284.02 544.5,-274.02 541,-284.02 548,-284.02"/>
</g>
<!-- 3 -->
<g id="node4" class="node">
<title>3</title>
<polygon fill="#e3f1fb" stroke="black" points="185,-155 0,-155 0,-72 185,-72 185,-155"/>
<text text-anchor="middle" x="92.5" y="-139.8" font-family="Times,serif" font-size="14.00">sdComm &lt;= 0.65</text>
<text text-anchor="middle" x="92.5" y="-124.8" font-family="Times,serif" font-size="14.00">gini = 0.497</text>
<text text-anchor="middle" x="92.5" y="-109.8" font-family="Times,serif" font-size="14.00">samples = 29340</text>
<text text-anchor="middle" x="92.5" y="-94.8" font-family="Times,serif" font-size="14.00">value = [13575, 15765]</text>
<text text-anchor="middle" x="92.5" y="-79.8" font-family="Times,serif" font-size="14.00">class = True</text>
</g>
<!-- 2&#45;&gt;3 -->
<g id="edge3" class="edge">
<title>2&#45;&gt;3</title>
<path fill="none" stroke="black" d="M219.19,-190.91C202.79,-181.02 185.14,-170.37 168.37,-160.25"/>
<polygon fill="black" stroke="black" points="170.06,-157.19 159.69,-155.02 166.44,-163.18 170.06,-157.19"/>
</g>
<!-- 126 -->
<g id="node7" class="node">
<title>126</title>
<polygon fill="#c1e0f7" stroke="black" points="370,-155 203,-155 203,-72 370,-72 370,-155"/>
<text text-anchor="middle" x="286.5" y="-139.8" font-family="Times,serif" font-size="14.00">nbproc &lt;= 4.5</text>
<text text-anchor="middle" x="286.5" y="-124.8" font-family="Times,serif" font-size="14.00">gini = 0.483</text>
<text text-anchor="middle" x="286.5" y="-109.8" font-family="Times,serif" font-size="14.00">samples = 10881</text>
<text text-anchor="middle" x="286.5" y="-94.8" font-family="Times,serif" font-size="14.00">value = [4435, 6446]</text>
<text text-anchor="middle" x="286.5" y="-79.8" font-family="Times,serif" font-size="14.00">class = True</text>
</g>
<!-- 2&#45;&gt;126 -->
<g id="edge6" class="edge">
<title>2&#45;&gt;126</title>
<path fill="none" stroke="black" d="M286.5,-190.91C286.5,-182.65 286.5,-173.86 286.5,-165.3"/>
<polygon fill="black" stroke="black" points="290,-165.02 286.5,-155.02 283,-165.02 290,-165.02"/>
</g>
<!-- 4 -->
<g id="node5" class="node">
<title>4</title>
<polygon fill="#c0c0c0" stroke="black" points="83.5,-36 29.5,-36 29.5,0 83.5,0 83.5,-36"/>
<text text-anchor="middle" x="56.5" y="-14.3" font-family="Times,serif" font-size="14.00">(...)</text>
</g>
<!-- 3&#45;&gt;4 -->
<g id="edge4" class="edge">
<title>3&#45;&gt;4</title>
<path fill="none" stroke="black" d="M76.81,-71.76C73.46,-63.04 69.99,-54.04 66.89,-45.99"/>
<polygon fill="black" stroke="black" points="70.06,-44.48 63.2,-36.41 63.53,-46.99 70.06,-44.48"/>
</g>
<!-- 107 -->
<g id="node6" class="node">
<title>107</title>
<polygon fill="#c0c0c0" stroke="black" points="155.5,-36 101.5,-36 101.5,0 155.5,0 155.5,-36"/>
<text text-anchor="middle" x="128.5" y="-14.3" font-family="Times,serif" font-size="14.00">(...)</text>
</g>
<!-- 3&#45;&gt;107 -->
<g id="edge5" class="edge">
<title>3&#45;&gt;107</title>
<path fill="none" stroke="black" d="M108.19,-71.76C111.54,-63.04 115.01,-54.04 118.11,-45.99"/>
<polygon fill="black" stroke="black" points="121.47,-46.99 121.8,-36.41 114.94,-44.48 121.47,-46.99"/>
</g>
<!-- 127 -->
<g id="node8" class="node">
<title>127</title>
<polygon fill="#c0c0c0" stroke="black" points="278.5,-36 224.5,-36 224.5,0 278.5,0 278.5,-36"/>
<text text-anchor="middle" x="251.5" y="-14.3" font-family="Times,serif" font-size="14.00">(...)</text>
</g>
<!-- 126&#45;&gt;127 -->
<g id="edge7" class="edge">
<title>126&#45;&gt;127</title>
<path fill="none" stroke="black" d="M271.25,-71.76C267.99,-63.04 264.62,-54.04 261.6,-45.99"/>
<polygon fill="black" stroke="black" points="264.8,-44.54 258.02,-36.41 258.24,-47 264.8,-44.54"/>
</g>
<!-- 258 -->
<g id="node9" class="node">
<title>258</title>
<polygon fill="#c0c0c0" stroke="black" points="350.5,-36 296.5,-36 296.5,0 350.5,0 350.5,-36"/>
<text text-anchor="middle" x="323.5" y="-14.3" font-family="Times,serif" font-size="14.00">(...)</text>
</g>
<!-- 126&#45;&gt;258 -->
<g id="edge8" class="edge">
<title>126&#45;&gt;258</title>
<path fill="none" stroke="black" d="M302.62,-71.76C306.11,-62.94 309.71,-53.84 312.92,-45.72"/>
<polygon fill="black" stroke="black" points="316.19,-46.99 316.61,-36.41 309.68,-44.42 316.19,-46.99"/>
</g>
<!-- 400 -->
<g id="node11" class="node">
<title>400</title>
<polygon fill="#69b5eb" stroke="black" points="555,-155 388,-155 388,-72 555,-72 555,-155"/>
<text text-anchor="middle" x="471.5" y="-139.8" font-family="Times,serif" font-size="14.00">graphDepth &lt;= 25.5</text>
<text text-anchor="middle" x="471.5" y="-124.8" font-family="Times,serif" font-size="14.00">gini = 0.313</text>
<text text-anchor="middle" x="471.5" y="-109.8" font-family="Times,serif" font-size="14.00">samples = 988</text>
<text text-anchor="middle" x="471.5" y="-94.8" font-family="Times,serif" font-size="14.00">value = [192, 796]</text>
<text text-anchor="middle" x="471.5" y="-79.8" font-family="Times,serif" font-size="14.00">class = True</text>
</g>
<!-- 399&#45;&gt;400 -->
<g id="edge10" class="edge">
<title>399&#45;&gt;400</title>
<path fill="none" stroke="black" d="M519.17,-190.91C513.68,-182.1 507.81,-172.7 502.14,-163.61"/>
<polygon fill="black" stroke="black" points="505.05,-161.65 496.78,-155.02 499.11,-165.36 505.05,-161.65"/>
</g>
<!-- 461 -->
<g id="node14" class="node">
<title>461</title>
<polygon fill="#a6d3f3" stroke="black" points="722,-155 573,-155 573,-72 722,-72 722,-155"/>
<text text-anchor="middle" x="647.5" y="-139.8" font-family="Times,serif" font-size="14.00">CCR &lt;= 0.55</text>
<text text-anchor="middle" x="647.5" y="-124.8" font-family="Times,serif" font-size="14.00">gini = 0.458</text>
<text text-anchor="middle" x="647.5" y="-109.8" font-family="Times,serif" font-size="14.00">samples = 1032</text>
<text text-anchor="middle" x="647.5" y="-94.8" font-family="Times,serif" font-size="14.00">value = [366, 666]</text>
<text text-anchor="middle" x="647.5" y="-79.8" font-family="Times,serif" font-size="14.00">class = True</text>
</g>
<!-- 399&#45;&gt;461 -->
<g id="edge13" class="edge">
<title>399&#45;&gt;461</title>
<path fill="none" stroke="black" d="M580.24,-190.91C588.22,-181.83 596.77,-172.12 605.01,-162.77"/>
<polygon fill="black" stroke="black" points="607.85,-164.84 611.83,-155.02 602.59,-160.21 607.85,-164.84"/>
</g>
<!-- 401 -->
<g id="node12" class="node">
<title>401</title>
<polygon fill="#c0c0c0" stroke="black" points="442.5,-36 388.5,-36 388.5,0 442.5,0 442.5,-36"/>
<text text-anchor="middle" x="415.5" y="-14.3" font-family="Times,serif" font-size="14.00">(...)</text>
</g>
<!-- 400&#45;&gt;401 -->
<g id="edge11" class="edge">
<title>400&#45;&gt;401</title>
<path fill="none" stroke="black" d="M447.1,-71.76C441.7,-62.75 436.13,-53.44 431.19,-45.19"/>
<polygon fill="black" stroke="black" points="434.07,-43.19 425.92,-36.41 428.06,-46.78 434.07,-43.19"/>
</g>
<!-- 426 -->
<g id="node13" class="node">
<title>426</title>
<polygon fill="#c0c0c0" stroke="black" points="514.5,-36 460.5,-36 460.5,0 514.5,0 514.5,-36"/>
<text text-anchor="middle" x="487.5" y="-14.3" font-family="Times,serif" font-size="14.00">(...)</text>
</g>
<!-- 400&#45;&gt;426 -->
<g id="edge12" class="edge">
<title>400&#45;&gt;426</title>
<path fill="none" stroke="black" d="M478.47,-71.76C479.93,-63.24 481.44,-54.44 482.79,-46.53"/>
<polygon fill="black" stroke="black" points="486.28,-46.85 484.52,-36.41 479.38,-45.67 486.28,-46.85"/>
</g>
<!-- 462 -->
<g id="node15" class="node">
<title>462</title>
<polygon fill="#c0c0c0" stroke="black" points="610.5,-36 556.5,-36 556.5,0 610.5,0 610.5,-36"/>
<text text-anchor="middle" x="583.5" y="-14.3" font-family="Times,serif" font-size="14.00">(...)</text>
</g>
<!-- 461&#45;&gt;462 -->
<g id="edge14" class="edge">
<title>461&#45;&gt;462</title>
<path fill="none" stroke="black" d="M619.61,-71.76C613.31,-62.56 606.8,-53.04 601.06,-44.66"/>
<polygon fill="black" stroke="black" points="603.95,-42.68 595.41,-36.41 598.17,-46.63 603.95,-42.68"/>
</g>
<!-- 497 -->
<g id="node16" class="node">
<title>497</title>
<polygon fill="#c0c0c0" stroke="black" points="682.5,-36 628.5,-36 628.5,0 682.5,0 682.5,-36"/>
<text text-anchor="middle" x="655.5" y="-14.3" font-family="Times,serif" font-size="14.00">(...)</text>
</g>
<!-- 461&#45;&gt;497 -->
<g id="edge15" class="edge">
<title>461&#45;&gt;497</title>
<path fill="none" stroke="black" d="M650.99,-71.76C651.72,-63.24 652.47,-54.44 653.14,-46.53"/>
<polygon fill="black" stroke="black" points="656.65,-46.67 654.01,-36.41 649.67,-46.07 656.65,-46.67"/>
</g>
<!-- 527 -->
<g id="node18" class="node">
<title>527</title>
<polygon fill="#f3c6a6" stroke="black" points="975,-274 808,-274 808,-191 975,-191 975,-274"/>
<text text-anchor="middle" x="891.5" y="-258.8" font-family="Times,serif" font-size="14.00">graphDepth &lt;= 3.5</text>
<text text-anchor="middle" x="891.5" y="-243.8" font-family="Times,serif" font-size="14.00">gini = 0.458</text>
<text text-anchor="middle" x="891.5" y="-228.8" font-family="Times,serif" font-size="14.00">samples = 9298</text>
<text text-anchor="middle" x="891.5" y="-213.8" font-family="Times,serif" font-size="14.00">value = [6000, 3298]</text>
<text text-anchor="middle" x="891.5" y="-198.8" font-family="Times,serif" font-size="14.00">class = False</text>
</g>
<!-- 526&#45;&gt;527 -->
<g id="edge17" class="edge">
<title>526&#45;&gt;527</title>
<path fill="none" stroke="black" d="M891.5,-309.91C891.5,-301.65 891.5,-292.86 891.5,-284.3"/>
<polygon fill="black" stroke="black" points="895,-284.02 891.5,-274.02 888,-284.02 895,-284.02"/>
</g>
<!-- 656 -->
<g id="node25" class="node">
<title>656</title>
<polygon fill="#fae8db" stroke="black" points="1245,-274 1078,-274 1078,-191 1245,-191 1245,-274"/>
<text text-anchor="middle" x="1161.5" y="-258.8" font-family="Times,serif" font-size="14.00">sdComm &lt;= 2.0</text>
<text text-anchor="middle" x="1161.5" y="-243.8" font-family="Times,serif" font-size="14.00">gini = 0.495</text>
<text text-anchor="middle" x="1161.5" y="-228.8" font-family="Times,serif" font-size="14.00">samples = 6035</text>
<text text-anchor="middle" x="1161.5" y="-213.8" font-family="Times,serif" font-size="14.00">value = [3315, 2720]</text>
<text text-anchor="middle" x="1161.5" y="-198.8" font-family="Times,serif" font-size="14.00">class = False</text>
</g>
<!-- 526&#45;&gt;656 -->
<g id="edge24" class="edge">
<title>526&#45;&gt;656</title>
<path fill="none" stroke="black" d="M975.08,-314.28C1004.7,-301.45 1038.19,-286.93 1068.54,-273.78"/>
<polygon fill="black" stroke="black" points="1070.07,-276.94 1077.85,-269.75 1067.28,-270.51 1070.07,-276.94"/>
</g>
<!-- 528 -->
<g id="node19" class="node">
<title>528</title>
<polygon fill="#f3f9fd" stroke="black" points="874.5,-155 740.5,-155 740.5,-72 874.5,-72 874.5,-155"/>
<text text-anchor="middle" x="807.5" y="-139.8" font-family="Times,serif" font-size="14.00">sdComm &lt;= 6.5</text>
<text text-anchor="middle" x="807.5" y="-124.8" font-family="Times,serif" font-size="14.00">gini = 0.5</text>
<text text-anchor="middle" x="807.5" y="-109.8" font-family="Times,serif" font-size="14.00">samples = 190</text>
<text text-anchor="middle" x="807.5" y="-94.8" font-family="Times,serif" font-size="14.00">value = [92, 98]</text>
<text text-anchor="middle" x="807.5" y="-79.8" font-family="Times,serif" font-size="14.00">class = True</text>
</g>
<!-- 527&#45;&gt;528 -->
<g id="edge18" class="edge">
<title>527&#45;&gt;528</title>
<path fill="none" stroke="black" d="M862.36,-190.91C855.97,-182.01 849.15,-172.51 842.56,-163.33"/>
<polygon fill="black" stroke="black" points="845.27,-161.1 836.59,-155.02 839.58,-165.19 845.27,-161.1"/>
</g>
<!-- 543 -->
<g id="node22" class="node">
<title>543</title>
<polygon fill="#f3c5a4" stroke="black" points="1060,-155 893,-155 893,-72 1060,-72 1060,-155"/>
<text text-anchor="middle" x="976.5" y="-139.8" font-family="Times,serif" font-size="14.00">nbproc &lt;= 4.5</text>
<text text-anchor="middle" x="976.5" y="-124.8" font-family="Times,serif" font-size="14.00">gini = 0.456</text>
<text text-anchor="middle" x="976.5" y="-109.8" font-family="Times,serif" font-size="14.00">samples = 9108</text>
<text text-anchor="middle" x="976.5" y="-94.8" font-family="Times,serif" font-size="14.00">value = [5908, 3200]</text>
<text text-anchor="middle" x="976.5" y="-79.8" font-family="Times,serif" font-size="14.00">class = False</text>
</g>
<!-- 527&#45;&gt;543 -->
<g id="edge21" class="edge">
<title>527&#45;&gt;543</title>
<path fill="none" stroke="black" d="M920.99,-190.91C927.45,-182.01 934.36,-172.51 941.02,-163.33"/>
<polygon fill="black" stroke="black" points="944.02,-165.17 947.06,-155.02 938.35,-161.05 944.02,-165.17"/>
</g>
<!-- 529 -->
<g id="node20" class="node">
<title>529</title>
<polygon fill="#c0c0c0" stroke="black" points="774.5,-36 720.5,-36 720.5,0 774.5,0 774.5,-36"/>
<text text-anchor="middle" x="747.5" y="-14.3" font-family="Times,serif" font-size="14.00">(...)</text>
</g>
<!-- 528&#45;&gt;529 -->
<g id="edge19" class="edge">
<title>528&#45;&gt;529</title>
<path fill="none" stroke="black" d="M781.36,-71.76C775.51,-62.65 769.47,-53.24 764.14,-44.92"/>
<polygon fill="black" stroke="black" points="767.02,-42.93 758.67,-36.41 761.12,-46.71 767.02,-42.93"/>
</g>
<!-- 538 -->
<g id="node21" class="node">
<title>538</title>
<polygon fill="#c0c0c0" stroke="black" points="846.5,-36 792.5,-36 792.5,0 846.5,0 846.5,-36"/>
<text text-anchor="middle" x="819.5" y="-14.3" font-family="Times,serif" font-size="14.00">(...)</text>
</g>
<!-- 528&#45;&gt;538 -->
<g id="edge20" class="edge">
<title>528&#45;&gt;538</title>
<path fill="none" stroke="black" d="M812.73,-71.76C813.82,-63.24 814.95,-54.44 815.97,-46.53"/>
<polygon fill="black" stroke="black" points="819.46,-46.77 817.27,-36.41 812.52,-45.88 819.46,-46.77"/>
</g>
<!-- 544 -->
<g id="node23" class="node">
<title>544</title>
<polygon fill="#c0c0c0" stroke="black" points="951.5,-36 897.5,-36 897.5,0 951.5,0 951.5,-36"/>
<text text-anchor="middle" x="924.5" y="-14.3" font-family="Times,serif" font-size="14.00">(...)</text>
</g>
<!-- 543&#45;&gt;544 -->
<g id="edge22" class="edge">
<title>543&#45;&gt;544</title>
<path fill="none" stroke="black" d="M953.84,-71.76C948.83,-62.75 943.65,-53.44 939.07,-45.19"/>
<polygon fill="black" stroke="black" points="942.1,-43.44 934.18,-36.41 935.98,-46.85 942.1,-43.44"/>
</g>
<!-- 599 -->
<g id="node24" class="node">
<title>599</title>
<polygon fill="#c0c0c0" stroke="black" points="1023.5,-36 969.5,-36 969.5,0 1023.5,0 1023.5,-36"/>
<text text-anchor="middle" x="996.5" y="-14.3" font-family="Times,serif" font-size="14.00">(...)</text>
</g>
<!-- 543&#45;&gt;599 -->
<g id="edge23" class="edge">
<title>543&#45;&gt;599</title>
<path fill="none" stroke="black" d="M985.21,-71.76C987.06,-63.14 988.96,-54.24 990.67,-46.26"/>
<polygon fill="black" stroke="black" points="994.11,-46.92 992.78,-36.41 987.26,-45.45 994.11,-46.92"/>
</g>
<!-- 657 -->
<g id="node26" class="node">
<title>657</title>
<polygon fill="#fdf7f2" stroke="black" points="1245,-155 1078,-155 1078,-72 1245,-72 1245,-155"/>
<text text-anchor="middle" x="1161.5" y="-139.8" font-family="Times,serif" font-size="14.00">graphDepth &lt;= 25.5</text>
<text text-anchor="middle" x="1161.5" y="-124.8" font-family="Times,serif" font-size="14.00">gini = 0.499</text>
<text text-anchor="middle" x="1161.5" y="-109.8" font-family="Times,serif" font-size="14.00">samples = 2746</text>
<text text-anchor="middle" x="1161.5" y="-94.8" font-family="Times,serif" font-size="14.00">value = [1420, 1326]</text>
<text text-anchor="middle" x="1161.5" y="-79.8" font-family="Times,serif" font-size="14.00">class = False</text>
</g>
<!-- 656&#45;&gt;657 -->
<g id="edge25" class="edge">
<title>656&#45;&gt;657</title>
<path fill="none" stroke="black" d="M1161.5,-190.91C1161.5,-182.65 1161.5,-173.86 1161.5,-165.3"/>
<polygon fill="black" stroke="black" points="1165,-165.02 1161.5,-155.02 1158,-165.02 1165,-165.02"/>
</g>
<!-- 682 -->
<g id="node29" class="node">
<title>682</title>
<polygon fill="#f8decb" stroke="black" points="1430,-155 1263,-155 1263,-72 1430,-72 1430,-155"/>
<text text-anchor="middle" x="1346.5" y="-139.8" font-family="Times,serif" font-size="14.00">graphDepth &lt;= 6.5</text>
<text text-anchor="middle" x="1346.5" y="-124.8" font-family="Times,serif" font-size="14.00">gini = 0.488</text>
<text text-anchor="middle" x="1346.5" y="-109.8" font-family="Times,serif" font-size="14.00">samples = 3289</text>
<text text-anchor="middle" x="1346.5" y="-94.8" font-family="Times,serif" font-size="14.00">value = [1895, 1394]</text>
<text text-anchor="middle" x="1346.5" y="-79.8" font-family="Times,serif" font-size="14.00">class = False</text>
</g>
<!-- 656&#45;&gt;682 -->
<g id="edge28" class="edge">
<title>656&#45;&gt;682</title>
<path fill="none" stroke="black" d="M1225.68,-190.91C1241.18,-181.11 1257.85,-170.56 1273.71,-160.53"/>
<polygon fill="black" stroke="black" points="1275.85,-163.32 1282.43,-155.02 1272.11,-157.41 1275.85,-163.32"/>
</g>
<!-- 658 -->
<g id="node27" class="node">
<title>658</title>
<polygon fill="#c0c0c0" stroke="black" points="1152.5,-36 1098.5,-36 1098.5,0 1152.5,0 1152.5,-36"/>
<text text-anchor="middle" x="1125.5" y="-14.3" font-family="Times,serif" font-size="14.00">(...)</text>
</g>
<!-- 657&#45;&gt;658 -->
<g id="edge26" class="edge">
<title>657&#45;&gt;658</title>
<path fill="none" stroke="black" d="M1145.81,-71.76C1142.46,-63.04 1138.99,-54.04 1135.89,-45.99"/>
<polygon fill="black" stroke="black" points="1139.06,-44.48 1132.2,-36.41 1132.53,-46.99 1139.06,-44.48"/>
</g>
<!-- 679 -->
<g id="node28" class="node">
<title>679</title>
<polygon fill="#c0c0c0" stroke="black" points="1224.5,-36 1170.5,-36 1170.5,0 1224.5,0 1224.5,-36"/>
<text text-anchor="middle" x="1197.5" y="-14.3" font-family="Times,serif" font-size="14.00">(...)</text>
</g>
<!-- 657&#45;&gt;679 -->
<g id="edge27" class="edge">
<title>657&#45;&gt;679</title>
<path fill="none" stroke="black" d="M1177.19,-71.76C1180.54,-63.04 1184.01,-54.04 1187.11,-45.99"/>
<polygon fill="black" stroke="black" points="1190.47,-46.99 1190.8,-36.41 1183.94,-44.48 1190.47,-46.99"/>
</g>
<!-- 683 -->
<g id="node30" class="node">
<title>683</title>
<polygon fill="#c0c0c0" stroke="black" points="1337.5,-36 1283.5,-36 1283.5,0 1337.5,0 1337.5,-36"/>
<text text-anchor="middle" x="1310.5" y="-14.3" font-family="Times,serif" font-size="14.00">(...)</text>
</g>
<!-- 682&#45;&gt;683 -->
<g id="edge29" class="edge">
<title>682&#45;&gt;683</title>
<path fill="none" stroke="black" d="M1330.81,-71.76C1327.46,-63.04 1323.99,-54.04 1320.89,-45.99"/>
<polygon fill="black" stroke="black" points="1324.06,-44.48 1317.2,-36.41 1317.53,-46.99 1324.06,-44.48"/>
</g>
<!-- 704 -->
<g id="node31" class="node">
<title>704</title>
<polygon fill="#c0c0c0" stroke="black" points="1409.5,-36 1355.5,-36 1355.5,0 1409.5,0 1409.5,-36"/>
<text text-anchor="middle" x="1382.5" y="-14.3" font-family="Times,serif" font-size="14.00">(...)</text>
</g>
<!-- 682&#45;&gt;704 -->
<g id="edge30" class="edge">
<title>682&#45;&gt;704</title>
<path fill="none" stroke="black" d="M1362.19,-71.76C1365.54,-63.04 1369.01,-54.04 1372.11,-45.99"/>
<polygon fill="black" stroke="black" points="1375.47,-46.99 1375.8,-36.41 1368.94,-44.48 1375.47,-46.99"/>
</g>
</g>
</svg>
