<?xml version="1.0" encoding="UTF-8" standalone="no"?>
<!DOCTYPE svg PUBLIC "-//W3C//DTD SVG 1.1//EN"
 "http://www.w3.org/Graphics/SVG/1.1/DTD/svg11.dtd">
<!-- Generated by graphviz version 2.43.0 (0)
 -->
<!-- Title: Tree Pages: 1 -->
<svg width="1366pt" height="520pt"
 viewBox="0.00 0.00 1366.00 520.00" xmlns="http://www.w3.org/2000/svg" xmlns:xlink="http://www.w3.org/1999/xlink">
<g id="graph0" class="graph" transform="scale(1 1) rotate(0) translate(4 516)">
<title>Tree</title>
<polygon fill="white" stroke="transparent" points="-4,4 -4,-516 1362,-516 1362,4 -4,4"/>
<!-- 0 -->
<g id="node1" class="node">
<title>0</title>
<polygon fill="#ffffff" stroke="black" points="726,-512 541,-512 541,-429 726,-429 726,-512"/>
<text text-anchor="middle" x="633.5" y="-496.8" font-family="Times,serif" font-size="14.00">graphDepth &lt;= 3.5</text>
<text text-anchor="middle" x="633.5" y="-481.8" font-family="Times,serif" font-size="14.00">gini = 0.5</text>
<text text-anchor="middle" x="633.5" y="-466.8" font-family="Times,serif" font-size="14.00">samples = 22504</text>
<text text-anchor="middle" x="633.5" y="-451.8" font-family="Times,serif" font-size="14.00">value = [11250, 11254]</text>
<text text-anchor="middle" x="633.5" y="-436.8" font-family="Times,serif" font-size="14.00">class = True</text>
</g>
<!-- 1 -->
<g id="node2" class="node">
<title>1</title>
<polygon fill="#ffffff" stroke="black" points="563,-393 396,-393 396,-310 563,-310 563,-393"/>
<text text-anchor="middle" x="479.5" y="-377.8" font-family="Times,serif" font-size="14.00">sdComp &lt;= 0.65</text>
<text text-anchor="middle" x="479.5" y="-362.8" font-family="Times,serif" font-size="14.00">gini = 0.5</text>
<text text-anchor="middle" x="479.5" y="-347.8" font-family="Times,serif" font-size="14.00">samples = 4138</text>
<text text-anchor="middle" x="479.5" y="-332.8" font-family="Times,serif" font-size="14.00">value = [2067, 2071]</text>
<text text-anchor="middle" x="479.5" y="-317.8" font-family="Times,serif" font-size="14.00">class = True</text>
</g>
<!-- 0&#45;&gt;1 -->
<g id="edge1" class="edge">
<title>0&#45;&gt;1</title>
<path fill="none" stroke="black" d="M580.07,-428.91C567.41,-419.29 553.81,-408.95 540.82,-399.09"/>
<polygon fill="black" stroke="black" points="542.92,-396.28 532.84,-393.02 538.68,-401.86 542.92,-396.28"/>
<text text-anchor="middle" x="536.22" y="-414.09" font-family="Times,serif" font-size="14.00">True</text>
</g>
<!-- 98 -->
<g id="node17" class="node">
<title>98</title>
<polygon fill="#ffffff" stroke="black" points="899,-393 732,-393 732,-310 899,-310 899,-393"/>
<text text-anchor="middle" x="815.5" y="-377.8" font-family="Times,serif" font-size="14.00">CCR &lt;= 0.55</text>
<text text-anchor="middle" x="815.5" y="-362.8" font-family="Times,serif" font-size="14.00">gini = 0.5</text>
<text text-anchor="middle" x="815.5" y="-347.8" font-family="Times,serif" font-size="14.00">samples = 18366</text>
<text text-anchor="middle" x="815.5" y="-332.8" font-family="Times,serif" font-size="14.00">value = [9183, 9183]</text>
<text text-anchor="middle" x="815.5" y="-317.8" font-family="Times,serif" font-size="14.00">class = False</text>
</g>
<!-- 0&#45;&gt;98 -->
<g id="edge16" class="edge">
<title>0&#45;&gt;98</title>
<path fill="none" stroke="black" d="M696.64,-428.91C711.89,-419.11 728.29,-408.56 743.89,-398.53"/>
<polygon fill="black" stroke="black" points="745.95,-401.37 752.47,-393.02 742.16,-395.48 745.95,-401.37"/>
<text text-anchor="middle" x="747.16" y="-413.75" font-family="Times,serif" font-size="14.00">False</text>
</g>
<!-- 2 -->
<g id="node3" class="node">
<title>2</title>
<polygon fill="#ffffff" stroke="black" points="325,-274 158,-274 158,-191 325,-191 325,-274"/>
<text text-anchor="middle" x="241.5" y="-258.8" font-family="Times,serif" font-size="14.00">nbproc &lt;= 4.5</text>
<text text-anchor="middle" x="241.5" y="-243.8" font-family="Times,serif" font-size="14.00">gini = 0.5</text>
<text text-anchor="middle" x="241.5" y="-228.8" font-family="Times,serif" font-size="14.00">samples = 2524</text>
<text text-anchor="middle" x="241.5" y="-213.8" font-family="Times,serif" font-size="14.00">value = [1262, 1262]</text>
<text text-anchor="middle" x="241.5" y="-198.8" font-family="Times,serif" font-size="14.00">class = False</text>
</g>
<!-- 1&#45;&gt;2 -->
<g id="edge2" class="edge">
<title>1&#45;&gt;2</title>
<path fill="none" stroke="black" d="M396.93,-309.91C376.34,-299.79 354.15,-288.88 333.16,-278.56"/>
<polygon fill="black" stroke="black" points="334.45,-275.29 323.93,-274.02 331.36,-281.57 334.45,-275.29"/>
</g>
<!-- 59 -->
<g id="node10" class="node">
<title>59</title>
<polygon fill="#feffff" stroke="black" points="554,-274 405,-274 405,-191 554,-191 554,-274"/>
<text text-anchor="middle" x="479.5" y="-258.8" font-family="Times,serif" font-size="14.00">sdComm &lt;= 0.2</text>
<text text-anchor="middle" x="479.5" y="-243.8" font-family="Times,serif" font-size="14.00">gini = 0.5</text>
<text text-anchor="middle" x="479.5" y="-228.8" font-family="Times,serif" font-size="14.00">samples = 1614</text>
<text text-anchor="middle" x="479.5" y="-213.8" font-family="Times,serif" font-size="14.00">value = [805, 809]</text>
<text text-anchor="middle" x="479.5" y="-198.8" font-family="Times,serif" font-size="14.00">class = True</text>
</g>
<!-- 1&#45;&gt;59 -->
<g id="edge9" class="edge">
<title>1&#45;&gt;59</title>
<path fill="none" stroke="black" d="M479.5,-309.91C479.5,-301.65 479.5,-292.86 479.5,-284.3"/>
<polygon fill="black" stroke="black" points="483,-284.02 479.5,-274.02 476,-284.02 483,-284.02"/>
</g>
<!-- 3 -->
<g id="node4" class="node">
<title>3</title>
<polygon fill="#ffffff" stroke="black" points="149,-155 0,-155 0,-72 149,-72 149,-155"/>
<text text-anchor="middle" x="74.5" y="-139.8" font-family="Times,serif" font-size="14.00">sdComm &lt;= 0.02</text>
<text text-anchor="middle" x="74.5" y="-124.8" font-family="Times,serif" font-size="14.00">gini = 0.5</text>
<text text-anchor="middle" x="74.5" y="-109.8" font-family="Times,serif" font-size="14.00">samples = 986</text>
<text text-anchor="middle" x="74.5" y="-94.8" font-family="Times,serif" font-size="14.00">value = [493, 493]</text>
<text text-anchor="middle" x="74.5" y="-79.8" font-family="Times,serif" font-size="14.00">class = False</text>
</g>
<!-- 2&#45;&gt;3 -->
<g id="edge3" class="edge">
<title>2&#45;&gt;3</title>
<path fill="none" stroke="black" d="M183.56,-190.91C169.7,-181.2 154.8,-170.76 140.6,-160.81"/>
<polygon fill="black" stroke="black" points="142.54,-157.89 132.34,-155.02 138.52,-163.63 142.54,-157.89"/>
</g>
<!-- 30 -->
<g id="node7" class="node">
<title>30</title>
<polygon fill="#ffffff" stroke="black" points="316,-155 167,-155 167,-72 316,-72 316,-155"/>
<text text-anchor="middle" x="241.5" y="-139.8" font-family="Times,serif" font-size="14.00">CCR &lt;= 0.55</text>
<text text-anchor="middle" x="241.5" y="-124.8" font-family="Times,serif" font-size="14.00">gini = 0.5</text>
<text text-anchor="middle" x="241.5" y="-109.8" font-family="Times,serif" font-size="14.00">samples = 1538</text>
<text text-anchor="middle" x="241.5" y="-94.8" font-family="Times,serif" font-size="14.00">value = [769, 769]</text>
<text text-anchor="middle" x="241.5" y="-79.8" font-family="Times,serif" font-size="14.00">class = False</text>
</g>
<!-- 2&#45;&gt;30 -->
<g id="edge6" class="edge">
<title>2&#45;&gt;30</title>
<path fill="none" stroke="black" d="M241.5,-190.91C241.5,-182.65 241.5,-173.86 241.5,-165.3"/>
<polygon fill="black" stroke="black" points="245,-165.02 241.5,-155.02 238,-165.02 245,-165.02"/>
</g>
<!-- 4 -->
<g id="node5" class="node">
<title>4</title>
<polygon fill="#c0c0c0" stroke="black" points="65.5,-36 11.5,-36 11.5,0 65.5,0 65.5,-36"/>
<text text-anchor="middle" x="38.5" y="-14.3" font-family="Times,serif" font-size="14.00">(...)</text>
</g>
<!-- 3&#45;&gt;4 -->
<g id="edge4" class="edge">
<title>3&#45;&gt;4</title>
<path fill="none" stroke="black" d="M58.81,-71.76C55.46,-63.04 51.99,-54.04 48.89,-45.99"/>
<polygon fill="black" stroke="black" points="52.06,-44.48 45.2,-36.41 45.53,-46.99 52.06,-44.48"/>
</g>
<!-- 9 -->
<g id="node6" class="node">
<title>9</title>
<polygon fill="#c0c0c0" stroke="black" points="137.5,-36 83.5,-36 83.5,0 137.5,0 137.5,-36"/>
<text text-anchor="middle" x="110.5" y="-14.3" font-family="Times,serif" font-size="14.00">(...)</text>
</g>
<!-- 3&#45;&gt;9 -->
<g id="edge5" class="edge">
<title>3&#45;&gt;9</title>
<path fill="none" stroke="black" d="M90.19,-71.76C93.54,-63.04 97.01,-54.04 100.11,-45.99"/>
<polygon fill="black" stroke="black" points="103.47,-46.99 103.8,-36.41 96.94,-44.48 103.47,-46.99"/>
</g>
<!-- 31 -->
<g id="node8" class="node">
<title>31</title>
<polygon fill="#c0c0c0" stroke="black" points="231.5,-36 177.5,-36 177.5,0 231.5,0 231.5,-36"/>
<text text-anchor="middle" x="204.5" y="-14.3" font-family="Times,serif" font-size="14.00">(...)</text>
</g>
<!-- 30&#45;&gt;31 -->
<g id="edge7" class="edge">
<title>30&#45;&gt;31</title>
<path fill="none" stroke="black" d="M225.38,-71.76C221.89,-62.94 218.29,-53.84 215.08,-45.72"/>
<polygon fill="black" stroke="black" points="218.32,-44.42 211.39,-36.41 211.81,-46.99 218.32,-44.42"/>
</g>
<!-- 48 -->
<g id="node9" class="node">
<title>48</title>
<polygon fill="#c0c0c0" stroke="black" points="303.5,-36 249.5,-36 249.5,0 303.5,0 303.5,-36"/>
<text text-anchor="middle" x="276.5" y="-14.3" font-family="Times,serif" font-size="14.00">(...)</text>
</g>
<!-- 30&#45;&gt;48 -->
<g id="edge8" class="edge">
<title>30&#45;&gt;48</title>
<path fill="none" stroke="black" d="M256.75,-71.76C260.01,-63.04 263.38,-54.04 266.4,-45.99"/>
<polygon fill="black" stroke="black" points="269.76,-47 269.98,-36.41 263.2,-44.54 269.76,-47"/>
</g>
<!-- 60 -->
<g id="node11" class="node">
<title>60</title>
<polygon fill="#eef6fd" stroke="black" points="465,-155 334,-155 334,-72 465,-72 465,-155"/>
<text text-anchor="middle" x="399.5" y="-139.8" font-family="Times,serif" font-size="14.00">nbproc &lt;= 4.5</text>
<text text-anchor="middle" x="399.5" y="-124.8" font-family="Times,serif" font-size="14.00">gini = 0.499</text>
<text text-anchor="middle" x="399.5" y="-109.8" font-family="Times,serif" font-size="14.00">samples = 88</text>
<text text-anchor="middle" x="399.5" y="-94.8" font-family="Times,serif" font-size="14.00">value = [42, 46]</text>
<text text-anchor="middle" x="399.5" y="-79.8" font-family="Times,serif" font-size="14.00">class = True</text>
</g>
<!-- 59&#45;&gt;60 -->
<g id="edge10" class="edge">
<title>59&#45;&gt;60</title>
<path fill="none" stroke="black" d="M451.74,-190.91C445.66,-182.01 439.16,-172.51 432.89,-163.33"/>
<polygon fill="black" stroke="black" points="435.74,-161.3 427.21,-155.02 429.96,-165.25 435.74,-161.3"/>
</g>
<!-- 63 -->
<g id="node14" class="node">
<title>63</title>
<polygon fill="#ffffff" stroke="black" points="632,-155 483,-155 483,-72 632,-72 632,-155"/>
<text text-anchor="middle" x="557.5" y="-139.8" font-family="Times,serif" font-size="14.00">sdComp &lt;= 2.0</text>
<text text-anchor="middle" x="557.5" y="-124.8" font-family="Times,serif" font-size="14.00">gini = 0.5</text>
<text text-anchor="middle" x="557.5" y="-109.8" font-family="Times,serif" font-size="14.00">samples = 1526</text>
<text text-anchor="middle" x="557.5" y="-94.8" font-family="Times,serif" font-size="14.00">value = [763, 763]</text>
<text text-anchor="middle" x="557.5" y="-79.8" font-family="Times,serif" font-size="14.00">class = False</text>
</g>
<!-- 59&#45;&gt;63 -->
<g id="edge13" class="edge">
<title>59&#45;&gt;63</title>
<path fill="none" stroke="black" d="M506.56,-190.91C512.43,-182.1 518.7,-172.7 524.76,-163.61"/>
<polygon fill="black" stroke="black" points="527.85,-165.28 530.49,-155.02 522.03,-161.4 527.85,-165.28"/>
</g>
<!-- 61 -->
<g id="node12" class="node">
<title>61</title>
<polygon fill="#c0c0c0" stroke="black" points="395.5,-36 341.5,-36 341.5,0 395.5,0 395.5,-36"/>
<text text-anchor="middle" x="368.5" y="-14.3" font-family="Times,serif" font-size="14.00">(...)</text>
</g>
<!-- 60&#45;&gt;61 -->
<g id="edge11" class="edge">
<title>60&#45;&gt;61</title>
<path fill="none" stroke="black" d="M385.99,-71.76C383.1,-63.04 380.12,-54.04 377.45,-45.99"/>
<polygon fill="black" stroke="black" points="380.74,-44.8 374.27,-36.41 374.1,-47 380.74,-44.8"/>
</g>
<!-- 62 -->
<g id="node13" class="node">
<title>62</title>
<polygon fill="#c0c0c0" stroke="black" points="467.5,-36 413.5,-36 413.5,0 467.5,0 467.5,-36"/>
<text text-anchor="middle" x="440.5" y="-14.3" font-family="Times,serif" font-size="14.00">(...)</text>
</g>
<!-- 60&#45;&gt;62 -->
<g id="edge12" class="edge">
<title>60&#45;&gt;62</title>
<path fill="none" stroke="black" d="M417.36,-71.76C421.23,-62.94 425.22,-53.84 428.78,-45.72"/>
<polygon fill="black" stroke="black" points="432.06,-46.97 432.87,-36.41 425.65,-44.16 432.06,-46.97"/>
</g>
<!-- 64 -->
<g id="node15" class="node">
<title>64</title>
<polygon fill="#c0c0c0" stroke="black" points="549.5,-36 495.5,-36 495.5,0 549.5,0 549.5,-36"/>
<text text-anchor="middle" x="522.5" y="-14.3" font-family="Times,serif" font-size="14.00">(...)</text>
</g>
<!-- 63&#45;&gt;64 -->
<g id="edge14" class="edge">
<title>63&#45;&gt;64</title>
<path fill="none" stroke="black" d="M542.25,-71.76C538.99,-63.04 535.62,-54.04 532.6,-45.99"/>
<polygon fill="black" stroke="black" points="535.8,-44.54 529.02,-36.41 529.24,-47 535.8,-44.54"/>
</g>
<!-- 83 -->
<g id="node16" class="node">
<title>83</title>
<polygon fill="#c0c0c0" stroke="black" points="621.5,-36 567.5,-36 567.5,0 621.5,0 621.5,-36"/>
<text text-anchor="middle" x="594.5" y="-14.3" font-family="Times,serif" font-size="14.00">(...)</text>
</g>
<!-- 63&#45;&gt;83 -->
<g id="edge15" class="edge">
<title>63&#45;&gt;83</title>
<path fill="none" stroke="black" d="M573.62,-71.76C577.11,-62.94 580.71,-53.84 583.92,-45.72"/>
<polygon fill="black" stroke="black" points="587.19,-46.99 587.61,-36.41 580.68,-44.42 587.19,-46.99"/>
</g>
<!-- 99 -->
<g id="node18" class="node">
<title>99</title>
<polygon fill="#ffffff" stroke="black" points="899,-274 732,-274 732,-191 899,-191 899,-274"/>
<text text-anchor="middle" x="815.5" y="-258.8" font-family="Times,serif" font-size="14.00">sdComp &lt;= 0.02</text>
<text text-anchor="middle" x="815.5" y="-243.8" font-family="Times,serif" font-size="14.00">gini = 0.5</text>
<text text-anchor="middle" x="815.5" y="-228.8" font-family="Times,serif" font-size="14.00">samples = 7748</text>
<text text-anchor="middle" x="815.5" y="-213.8" font-family="Times,serif" font-size="14.00">value = [3874, 3874]</text>
<text text-anchor="middle" x="815.5" y="-198.8" font-family="Times,serif" font-size="14.00">class = False</text>
</g>
<!-- 98&#45;&gt;99 -->
<g id="edge17" class="edge">
<title>98&#45;&gt;99</title>
<path fill="none" stroke="black" d="M815.5,-309.91C815.5,-301.65 815.5,-292.86 815.5,-284.3"/>
<polygon fill="black" stroke="black" points="819,-284.02 815.5,-274.02 812,-284.02 819,-284.02"/>
</g>
<!-- 256 -->
<g id="node25" class="node">
<title>256</title>
<polygon fill="#ffffff" stroke="black" points="1173,-274 1006,-274 1006,-191 1173,-191 1173,-274"/>
<text text-anchor="middle" x="1089.5" y="-258.8" font-family="Times,serif" font-size="14.00">CCR &lt;= 5.5</text>
<text text-anchor="middle" x="1089.5" y="-243.8" font-family="Times,serif" font-size="14.00">gini = 0.5</text>
<text text-anchor="middle" x="1089.5" y="-228.8" font-family="Times,serif" font-size="14.00">samples = 10618</text>
<text text-anchor="middle" x="1089.5" y="-213.8" font-family="Times,serif" font-size="14.00">value = [5309, 5309]</text>
<text text-anchor="middle" x="1089.5" y="-198.8" font-family="Times,serif" font-size="14.00">class = False</text>
</g>
<!-- 98&#45;&gt;256 -->
<g id="edge24" class="edge">
<title>98&#45;&gt;256</title>
<path fill="none" stroke="black" d="M899.2,-314.76C929.99,-301.61 965.05,-286.64 996.61,-273.17"/>
<polygon fill="black" stroke="black" points="998.02,-276.37 1005.84,-269.22 995.27,-269.93 998.02,-276.37"/>
</g>
<!-- 100 -->
<g id="node19" class="node">
<title>100</title>
<polygon fill="#ffffff" stroke="black" points="803,-155 650,-155 650,-72 803,-72 803,-155"/>
<text text-anchor="middle" x="726.5" y="-139.8" font-family="Times,serif" font-size="14.00">graphSize &lt;= 22.5</text>
<text text-anchor="middle" x="726.5" y="-124.8" font-family="Times,serif" font-size="14.00">gini = 0.5</text>
<text text-anchor="middle" x="726.5" y="-109.8" font-family="Times,serif" font-size="14.00">samples = 862</text>
<text text-anchor="middle" x="726.5" y="-94.8" font-family="Times,serif" font-size="14.00">value = [431, 431]</text>
<text text-anchor="middle" x="726.5" y="-79.8" font-family="Times,serif" font-size="14.00">class = False</text>
</g>
<!-- 99&#45;&gt;100 -->
<g id="edge18" class="edge">
<title>99&#45;&gt;100</title>
<path fill="none" stroke="black" d="M784.62,-190.91C777.79,-181.92 770.48,-172.32 763.43,-163.05"/>
<polygon fill="black" stroke="black" points="766.16,-160.86 757.32,-155.02 760.59,-165.1 766.16,-160.86"/>
</g>
<!-- 141 -->
<g id="node22" class="node">
<title>141</title>
<polygon fill="#ffffff" stroke="black" points="988,-155 821,-155 821,-72 988,-72 988,-155"/>
<text text-anchor="middle" x="904.5" y="-139.8" font-family="Times,serif" font-size="14.00">nbproc &lt;= 4.5</text>
<text text-anchor="middle" x="904.5" y="-124.8" font-family="Times,serif" font-size="14.00">gini = 0.5</text>
<text text-anchor="middle" x="904.5" y="-109.8" font-family="Times,serif" font-size="14.00">samples = 6886</text>
<text text-anchor="middle" x="904.5" y="-94.8" font-family="Times,serif" font-size="14.00">value = [3443, 3443]</text>
<text text-anchor="middle" x="904.5" y="-79.8" font-family="Times,serif" font-size="14.00">class = False</text>
</g>
<!-- 99&#45;&gt;141 -->
<g id="edge21" class="edge">
<title>99&#45;&gt;141</title>
<path fill="none" stroke="black" d="M846.38,-190.91C853.21,-181.92 860.52,-172.32 867.57,-163.05"/>
<polygon fill="black" stroke="black" points="870.41,-165.1 873.68,-155.02 864.84,-160.86 870.41,-165.1"/>
</g>
<!-- 101 -->
<g id="node20" class="node">
<title>101</title>
<polygon fill="#c0c0c0" stroke="black" points="698.5,-36 644.5,-36 644.5,0 698.5,0 698.5,-36"/>
<text text-anchor="middle" x="671.5" y="-14.3" font-family="Times,serif" font-size="14.00">(...)</text>
</g>
<!-- 100&#45;&gt;101 -->
<g id="edge19" class="edge">
<title>100&#45;&gt;101</title>
<path fill="none" stroke="black" d="M702.54,-71.76C697.24,-62.75 691.76,-53.44 686.91,-45.19"/>
<polygon fill="black" stroke="black" points="689.83,-43.25 681.74,-36.41 683.79,-46.8 689.83,-43.25"/>
</g>
<!-- 112 -->
<g id="node21" class="node">
<title>112</title>
<polygon fill="#c0c0c0" stroke="black" points="770.5,-36 716.5,-36 716.5,0 770.5,0 770.5,-36"/>
<text text-anchor="middle" x="743.5" y="-14.3" font-family="Times,serif" font-size="14.00">(...)</text>
</g>
<!-- 100&#45;&gt;112 -->
<g id="edge20" class="edge">
<title>100&#45;&gt;112</title>
<path fill="none" stroke="black" d="M733.91,-71.76C735.47,-63.14 737.09,-54.24 738.54,-46.26"/>
<polygon fill="black" stroke="black" points="741.99,-46.87 740.34,-36.41 735.1,-45.62 741.99,-46.87"/>
</g>
<!-- 142 -->
<g id="node23" class="node">
<title>142</title>
<polygon fill="#c0c0c0" stroke="black" points="879.5,-36 825.5,-36 825.5,0 879.5,0 879.5,-36"/>
<text text-anchor="middle" x="852.5" y="-14.3" font-family="Times,serif" font-size="14.00">(...)</text>
</g>
<!-- 141&#45;&gt;142 -->
<g id="edge22" class="edge">
<title>141&#45;&gt;142</title>
<path fill="none" stroke="black" d="M881.84,-71.76C876.83,-62.75 871.65,-53.44 867.07,-45.19"/>
<polygon fill="black" stroke="black" points="870.1,-43.44 862.18,-36.41 863.98,-46.85 870.1,-43.44"/>
</g>
<!-- 191 -->
<g id="node24" class="node">
<title>191</title>
<polygon fill="#c0c0c0" stroke="black" points="951.5,-36 897.5,-36 897.5,0 951.5,0 951.5,-36"/>
<text text-anchor="middle" x="924.5" y="-14.3" font-family="Times,serif" font-size="14.00">(...)</text>
</g>
<!-- 141&#45;&gt;191 -->
<g id="edge23" class="edge">
<title>141&#45;&gt;191</title>
<path fill="none" stroke="black" d="M913.21,-71.76C915.06,-63.14 916.96,-54.24 918.67,-46.26"/>
<polygon fill="black" stroke="black" points="922.11,-46.92 920.78,-36.41 915.26,-45.45 922.11,-46.92"/>
</g>
<!-- 257 -->
<g id="node26" class="node">
<title>257</title>
<polygon fill="#ffffff" stroke="black" points="1173,-155 1006,-155 1006,-72 1173,-72 1173,-155"/>
<text text-anchor="middle" x="1089.5" y="-139.8" font-family="Times,serif" font-size="14.00">graphDepth &lt;= 6.5</text>
<text text-anchor="middle" x="1089.5" y="-124.8" font-family="Times,serif" font-size="14.00">gini = 0.5</text>
<text text-anchor="middle" x="1089.5" y="-109.8" font-family="Times,serif" font-size="14.00">samples = 3590</text>
<text text-anchor="middle" x="1089.5" y="-94.8" font-family="Times,serif" font-size="14.00">value = [1795, 1795]</text>
<text text-anchor="middle" x="1089.5" y="-79.8" font-family="Times,serif" font-size="14.00">class = False</text>
</g>
<!-- 256&#45;&gt;257 -->
<g id="edge25" class="edge">
<title>256&#45;&gt;257</title>
<path fill="none" stroke="black" d="M1089.5,-190.91C1089.5,-182.65 1089.5,-173.86 1089.5,-165.3"/>
<polygon fill="black" stroke="black" points="1093,-165.02 1089.5,-155.02 1086,-165.02 1093,-165.02"/>
</g>
<!-- 410 -->
<g id="node29" class="node">
<title>410</title>
<polygon fill="#ffffff" stroke="black" points="1358,-155 1191,-155 1191,-72 1358,-72 1358,-155"/>
<text text-anchor="middle" x="1274.5" y="-139.8" font-family="Times,serif" font-size="14.00">nbproc &lt;= 4.5</text>
<text text-anchor="middle" x="1274.5" y="-124.8" font-family="Times,serif" font-size="14.00">gini = 0.5</text>
<text text-anchor="middle" x="1274.5" y="-109.8" font-family="Times,serif" font-size="14.00">samples = 7028</text>
<text text-anchor="middle" x="1274.5" y="-94.8" font-family="Times,serif" font-size="14.00">value = [3514, 3514]</text>
<text text-anchor="middle" x="1274.5" y="-79.8" font-family="Times,serif" font-size="14.00">class = False</text>
</g>
<!-- 256&#45;&gt;410 -->
<g id="edge28" class="edge">
<title>256&#45;&gt;410</title>
<path fill="none" stroke="black" d="M1153.68,-190.91C1169.18,-181.11 1185.85,-170.56 1201.71,-160.53"/>
<polygon fill="black" stroke="black" points="1203.85,-163.32 1210.43,-155.02 1200.11,-157.41 1203.85,-163.32"/>
</g>
<!-- 258 -->
<g id="node27" class="node">
<title>258</title>
<polygon fill="#c0c0c0" stroke="black" points="1080.5,-36 1026.5,-36 1026.5,0 1080.5,0 1080.5,-36"/>
<text text-anchor="middle" x="1053.5" y="-14.3" font-family="Times,serif" font-size="14.00">(...)</text>
</g>
<!-- 257&#45;&gt;258 -->
<g id="edge26" class="edge">
<title>257&#45;&gt;258</title>
<path fill="none" stroke="black" d="M1073.81,-71.76C1070.46,-63.04 1066.99,-54.04 1063.89,-45.99"/>
<polygon fill="black" stroke="black" points="1067.06,-44.48 1060.2,-36.41 1060.53,-46.99 1067.06,-44.48"/>
</g>
<!-- 317 -->
<g id="node28" class="node">
<title>317</title>
<polygon fill="#c0c0c0" stroke="black" points="1152.5,-36 1098.5,-36 1098.5,0 1152.5,0 1152.5,-36"/>
<text text-anchor="middle" x="1125.5" y="-14.3" font-family="Times,serif" font-size="14.00">(...)</text>
</g>
<!-- 257&#45;&gt;317 -->
<g id="edge27" class="edge">
<title>257&#45;&gt;317</title>
<path fill="none" stroke="black" d="M1105.19,-71.76C1108.54,-63.04 1112.01,-54.04 1115.11,-45.99"/>
<polygon fill="black" stroke="black" points="1118.47,-46.99 1118.8,-36.41 1111.94,-44.48 1118.47,-46.99"/>
</g>
<!-- 411 -->
<g id="node30" class="node">
<title>411</title>
<polygon fill="#c0c0c0" stroke="black" points="1265.5,-36 1211.5,-36 1211.5,0 1265.5,0 1265.5,-36"/>
<text text-anchor="middle" x="1238.5" y="-14.3" font-family="Times,serif" font-size="14.00">(...)</text>
</g>
<!-- 410&#45;&gt;411 -->
<g id="edge29" class="edge">
<title>410&#45;&gt;411</title>
<path fill="none" stroke="black" d="M1258.81,-71.76C1255.46,-63.04 1251.99,-54.04 1248.89,-45.99"/>
<polygon fill="black" stroke="black" points="1252.06,-44.48 1245.2,-36.41 1245.53,-46.99 1252.06,-44.48"/>
</g>
<!-- 496 -->
<g id="node31" class="node">
<title>496</title>
<polygon fill="#c0c0c0" stroke="black" points="1337.5,-36 1283.5,-36 1283.5,0 1337.5,0 1337.5,-36"/>
<text text-anchor="middle" x="1310.5" y="-14.3" font-family="Times,serif" font-size="14.00">(...)</text>
</g>
<!-- 410&#45;&gt;496 -->
<g id="edge30" class="edge">
<title>410&#45;&gt;496</title>
<path fill="none" stroke="black" d="M1290.19,-71.76C1293.54,-63.04 1297.01,-54.04 1300.11,-45.99"/>
<polygon fill="black" stroke="black" points="1303.47,-46.99 1303.8,-36.41 1296.94,-44.48 1303.47,-46.99"/>
</g>
</g>
</svg>
