<?xml version="1.0" encoding="UTF-8" standalone="no"?>
<!DOCTYPE svg PUBLIC "-//W3C//DTD SVG 1.1//EN"
 "http://www.w3.org/Graphics/SVG/1.1/DTD/svg11.dtd">
<!-- Generated by graphviz version 2.43.0 (0)
 -->
<!-- Title: Tree Pages: 1 -->
<svg width="1640pt" height="520pt"
 viewBox="0.00 0.00 1639.50 520.00" xmlns="http://www.w3.org/2000/svg" xmlns:xlink="http://www.w3.org/1999/xlink">
<g id="graph0" class="graph" transform="scale(1 1) rotate(0) translate(4 516)">
<title>Tree</title>
<polygon fill="white" stroke="transparent" points="-4,4 -4,-516 1635.5,-516 1635.5,4 -4,4"/>
<!-- 0 -->
<g id="node1" class="node">
<title>0</title>
<polygon fill="#fefdff" stroke="black" points="934.5,-512 722.5,-512 722.5,-429 934.5,-429 934.5,-512"/>
<text text-anchor="middle" x="828.5" y="-496.8" font-family="Times,serif" font-size="14.00">CCR &lt;= 5.5</text>
<text text-anchor="middle" x="828.5" y="-481.8" font-family="Times,serif" font-size="14.00">gini = 0.655</text>
<text text-anchor="middle" x="828.5" y="-466.8" font-family="Times,serif" font-size="14.00">samples = 22504</text>
<text text-anchor="middle" x="828.5" y="-451.8" font-family="Times,serif" font-size="14.00">value = [5530, 8410, 8564]</text>
<text text-anchor="middle" x="828.5" y="-436.8" font-family="Times,serif" font-size="14.00">class = None</text>
</g>
<!-- 1 -->
<g id="node2" class="node">
<title>1</title>
<polygon fill="#bdf6d5" stroke="black" points="734.5,-393 522.5,-393 522.5,-310 734.5,-310 734.5,-393"/>
<text text-anchor="middle" x="628.5" y="-377.8" font-family="Times,serif" font-size="14.00">graphSize &lt;= 22.5</text>
<text text-anchor="middle" x="628.5" y="-362.8" font-family="Times,serif" font-size="14.00">gini = 0.577</text>
<text text-anchor="middle" x="628.5" y="-347.8" font-family="Times,serif" font-size="14.00">samples = 14766</text>
<text text-anchor="middle" x="628.5" y="-332.8" font-family="Times,serif" font-size="14.00">value = [4810, 8104, 1852]</text>
<text text-anchor="middle" x="628.5" y="-317.8" font-family="Times,serif" font-size="14.00">class = DCP</text>
</g>
<!-- 0&#45;&gt;1 -->
<g id="edge1" class="edge">
<title>0&#45;&gt;1</title>
<path fill="none" stroke="black" d="M759.11,-428.91C742.2,-419.02 724,-408.37 706.71,-398.25"/>
<polygon fill="black" stroke="black" points="708.17,-395.05 697.77,-393.02 704.63,-401.09 708.17,-395.05"/>
<text text-anchor="middle" x="704.1" y="-413.51" font-family="Times,serif" font-size="14.00">True</text>
</g>
<!-- 356 -->
<g id="node17" class="node">
<title>356</title>
<polygon fill="#9356e9" stroke="black" points="1133.5,-393 939.5,-393 939.5,-310 1133.5,-310 1133.5,-393"/>
<text text-anchor="middle" x="1036.5" y="-377.8" font-family="Times,serif" font-size="14.00">graphSize &lt;= 22.5</text>
<text text-anchor="middle" x="1036.5" y="-362.8" font-family="Times,serif" font-size="14.00">gini = 0.237</text>
<text text-anchor="middle" x="1036.5" y="-347.8" font-family="Times,serif" font-size="14.00">samples = 7738</text>
<text text-anchor="middle" x="1036.5" y="-332.8" font-family="Times,serif" font-size="14.00">value = [720, 306, 6712]</text>
<text text-anchor="middle" x="1036.5" y="-317.8" font-family="Times,serif" font-size="14.00">class = None</text>
</g>
<!-- 0&#45;&gt;356 -->
<g id="edge16" class="edge">
<title>0&#45;&gt;356</title>
<path fill="none" stroke="black" d="M900.66,-428.91C918.41,-418.92 937.53,-408.17 955.65,-397.98"/>
<polygon fill="black" stroke="black" points="957.46,-400.97 964.46,-393.02 954.03,-394.87 957.46,-400.97"/>
<text text-anchor="middle" x="957.72" y="-413.39" font-family="Times,serif" font-size="14.00">False</text>
</g>
<!-- 2 -->
<g id="node3" class="node">
<title>2</title>
<polygon fill="#d2f9e3" stroke="black" points="423.5,-274 211.5,-274 211.5,-191 423.5,-191 423.5,-274"/>
<text text-anchor="middle" x="317.5" y="-258.8" font-family="Times,serif" font-size="14.00">sdComm &lt;= 0.2</text>
<text text-anchor="middle" x="317.5" y="-243.8" font-family="Times,serif" font-size="14.00">gini = 0.59</text>
<text text-anchor="middle" x="317.5" y="-228.8" font-family="Times,serif" font-size="14.00">samples = 11022</text>
<text text-anchor="middle" x="317.5" y="-213.8" font-family="Times,serif" font-size="14.00">value = [4046, 5620, 1356]</text>
<text text-anchor="middle" x="317.5" y="-198.8" font-family="Times,serif" font-size="14.00">class = DCP</text>
</g>
<!-- 1&#45;&gt;2 -->
<g id="edge2" class="edge">
<title>1&#45;&gt;2</title>
<path fill="none" stroke="black" d="M522.34,-310.56C493.6,-299.75 462.35,-287.99 433.12,-277"/>
<polygon fill="black" stroke="black" points="434.3,-273.7 423.71,-273.46 431.84,-280.25 434.3,-273.7"/>
</g>
<!-- 139 -->
<g id="node10" class="node">
<title>139</title>
<polygon fill="#8df0b6" stroke="black" points="725.5,-274 531.5,-274 531.5,-191 725.5,-191 725.5,-274"/>
<text text-anchor="middle" x="628.5" y="-258.8" font-family="Times,serif" font-size="14.00">sdComm &lt;= 0.65</text>
<text text-anchor="middle" x="628.5" y="-243.8" font-family="Times,serif" font-size="14.00">gini = 0.501</text>
<text text-anchor="middle" x="628.5" y="-228.8" font-family="Times,serif" font-size="14.00">samples = 3744</text>
<text text-anchor="middle" x="628.5" y="-213.8" font-family="Times,serif" font-size="14.00">value = [764, 2484, 496]</text>
<text text-anchor="middle" x="628.5" y="-198.8" font-family="Times,serif" font-size="14.00">class = DCP</text>
</g>
<!-- 1&#45;&gt;139 -->
<g id="edge9" class="edge">
<title>1&#45;&gt;139</title>
<path fill="none" stroke="black" d="M628.5,-309.91C628.5,-301.65 628.5,-292.86 628.5,-284.3"/>
<polygon fill="black" stroke="black" points="632,-284.02 628.5,-274.02 625,-284.02 632,-284.02"/>
</g>
<!-- 3 -->
<g id="node4" class="node">
<title>3</title>
<polygon fill="#dafae8" stroke="black" points="203,-155 0,-155 0,-72 203,-72 203,-155"/>
<text text-anchor="middle" x="101.5" y="-139.8" font-family="Times,serif" font-size="14.00">graphDepth &lt;= 3.5</text>
<text text-anchor="middle" x="101.5" y="-124.8" font-family="Times,serif" font-size="14.00">gini = 0.58</text>
<text text-anchor="middle" x="101.5" y="-109.8" font-family="Times,serif" font-size="14.00">samples = 8530</text>
<text text-anchor="middle" x="101.5" y="-94.8" font-family="Times,serif" font-size="14.00">value = [3354, 4312, 864]</text>
<text text-anchor="middle" x="101.5" y="-79.8" font-family="Times,serif" font-size="14.00">class = DCP</text>
</g>
<!-- 2&#45;&gt;3 -->
<g id="edge3" class="edge">
<title>2&#45;&gt;3</title>
<path fill="none" stroke="black" d="M242.56,-190.91C224.05,-180.88 204.1,-170.07 185.2,-159.84"/>
<polygon fill="black" stroke="black" points="186.77,-156.71 176.31,-155.02 183.43,-162.86 186.77,-156.71"/>
</g>
<!-- 94 -->
<g id="node7" class="node">
<title>94</title>
<polygon fill="#bbf6d4" stroke="black" points="414.5,-155 220.5,-155 220.5,-72 414.5,-72 414.5,-155"/>
<text text-anchor="middle" x="317.5" y="-139.8" font-family="Times,serif" font-size="14.00">sdComm &lt;= 0.65</text>
<text text-anchor="middle" x="317.5" y="-124.8" font-family="Times,serif" font-size="14.00">gini = 0.608</text>
<text text-anchor="middle" x="317.5" y="-109.8" font-family="Times,serif" font-size="14.00">samples = 2492</text>
<text text-anchor="middle" x="317.5" y="-94.8" font-family="Times,serif" font-size="14.00">value = [692, 1308, 492]</text>
<text text-anchor="middle" x="317.5" y="-79.8" font-family="Times,serif" font-size="14.00">class = DCP</text>
</g>
<!-- 2&#45;&gt;94 -->
<g id="edge6" class="edge">
<title>2&#45;&gt;94</title>
<path fill="none" stroke="black" d="M317.5,-190.91C317.5,-182.65 317.5,-173.86 317.5,-165.3"/>
<polygon fill="black" stroke="black" points="321,-165.02 317.5,-155.02 314,-165.02 321,-165.02"/>
</g>
<!-- 4 -->
<g id="node5" class="node">
<title>4</title>
<polygon fill="#c0c0c0" stroke="black" points="92.5,-36 38.5,-36 38.5,0 92.5,0 92.5,-36"/>
<text text-anchor="middle" x="65.5" y="-14.3" font-family="Times,serif" font-size="14.00">(...)</text>
</g>
<!-- 3&#45;&gt;4 -->
<g id="edge4" class="edge">
<title>3&#45;&gt;4</title>
<path fill="none" stroke="black" d="M85.81,-71.76C82.46,-63.04 78.99,-54.04 75.89,-45.99"/>
<polygon fill="black" stroke="black" points="79.06,-44.48 72.2,-36.41 72.53,-46.99 79.06,-44.48"/>
</g>
<!-- 49 -->
<g id="node6" class="node">
<title>49</title>
<polygon fill="#c0c0c0" stroke="black" points="164.5,-36 110.5,-36 110.5,0 164.5,0 164.5,-36"/>
<text text-anchor="middle" x="137.5" y="-14.3" font-family="Times,serif" font-size="14.00">(...)</text>
</g>
<!-- 3&#45;&gt;49 -->
<g id="edge5" class="edge">
<title>3&#45;&gt;49</title>
<path fill="none" stroke="black" d="M117.19,-71.76C120.54,-63.04 124.01,-54.04 127.11,-45.99"/>
<polygon fill="black" stroke="black" points="130.47,-46.99 130.8,-36.41 123.94,-44.48 130.47,-46.99"/>
</g>
<!-- 95 -->
<g id="node8" class="node">
<title>95</title>
<polygon fill="#c0c0c0" stroke="black" points="306.5,-36 252.5,-36 252.5,0 306.5,0 306.5,-36"/>
<text text-anchor="middle" x="279.5" y="-14.3" font-family="Times,serif" font-size="14.00">(...)</text>
</g>
<!-- 94&#45;&gt;95 -->
<g id="edge7" class="edge">
<title>94&#45;&gt;95</title>
<path fill="none" stroke="black" d="M300.94,-71.76C297.36,-62.94 293.66,-53.84 290.36,-45.72"/>
<polygon fill="black" stroke="black" points="293.58,-44.35 286.57,-36.41 287.1,-46.99 293.58,-44.35"/>
</g>
<!-- 116 -->
<g id="node9" class="node">
<title>116</title>
<polygon fill="#c0c0c0" stroke="black" points="378.5,-36 324.5,-36 324.5,0 378.5,0 378.5,-36"/>
<text text-anchor="middle" x="351.5" y="-14.3" font-family="Times,serif" font-size="14.00">(...)</text>
</g>
<!-- 94&#45;&gt;116 -->
<g id="edge8" class="edge">
<title>94&#45;&gt;116</title>
<path fill="none" stroke="black" d="M332.31,-71.76C335.48,-63.04 338.76,-54.04 341.68,-45.99"/>
<polygon fill="black" stroke="black" points="345.04,-47 345.17,-36.41 338.46,-44.61 345.04,-47"/>
</g>
<!-- 140 -->
<g id="node11" class="node">
<title>140</title>
<polygon fill="#82efaf" stroke="black" points="626.5,-155 432.5,-155 432.5,-72 626.5,-72 626.5,-155"/>
<text text-anchor="middle" x="529.5" y="-139.8" font-family="Times,serif" font-size="14.00">sdComp &lt;= 0.2</text>
<text text-anchor="middle" x="529.5" y="-124.8" font-family="Times,serif" font-size="14.00">gini = 0.462</text>
<text text-anchor="middle" x="529.5" y="-109.8" font-family="Times,serif" font-size="14.00">samples = 3210</text>
<text text-anchor="middle" x="529.5" y="-94.8" font-family="Times,serif" font-size="14.00">value = [588, 2248, 374]</text>
<text text-anchor="middle" x="529.5" y="-79.8" font-family="Times,serif" font-size="14.00">class = DCP</text>
</g>
<!-- 139&#45;&gt;140 -->
<g id="edge10" class="edge">
<title>139&#45;&gt;140</title>
<path fill="none" stroke="black" d="M594.15,-190.91C586.47,-181.83 578.26,-172.12 570.34,-162.77"/>
<polygon fill="black" stroke="black" points="572.92,-160.39 563.79,-155.02 567.57,-164.92 572.92,-160.39"/>
</g>
<!-- 311 -->
<g id="node14" class="node">
<title>311</title>
<polygon fill="#defbea" stroke="black" points="829,-155 644,-155 644,-72 829,-72 829,-155"/>
<text text-anchor="middle" x="736.5" y="-139.8" font-family="Times,serif" font-size="14.00">graphDepth &lt;= 9.0</text>
<text text-anchor="middle" x="736.5" y="-124.8" font-family="Times,serif" font-size="14.00">gini = 0.644</text>
<text text-anchor="middle" x="736.5" y="-109.8" font-family="Times,serif" font-size="14.00">samples = 534</text>
<text text-anchor="middle" x="736.5" y="-94.8" font-family="Times,serif" font-size="14.00">value = [176, 236, 122]</text>
<text text-anchor="middle" x="736.5" y="-79.8" font-family="Times,serif" font-size="14.00">class = DCP</text>
</g>
<!-- 139&#45;&gt;311 -->
<g id="edge13" class="edge">
<title>139&#45;&gt;311</title>
<path fill="none" stroke="black" d="M665.97,-190.91C674.43,-181.74 683.49,-171.93 692.2,-162.49"/>
<polygon fill="black" stroke="black" points="694.89,-164.74 699.1,-155.02 689.74,-159.99 694.89,-164.74"/>
</g>
<!-- 141 -->
<g id="node12" class="node">
<title>141</title>
<polygon fill="#c0c0c0" stroke="black" points="515.5,-36 461.5,-36 461.5,0 515.5,0 515.5,-36"/>
<text text-anchor="middle" x="488.5" y="-14.3" font-family="Times,serif" font-size="14.00">(...)</text>
</g>
<!-- 140&#45;&gt;141 -->
<g id="edge11" class="edge">
<title>140&#45;&gt;141</title>
<path fill="none" stroke="black" d="M511.64,-71.76C507.77,-62.94 503.78,-53.84 500.22,-45.72"/>
<polygon fill="black" stroke="black" points="503.35,-44.16 496.13,-36.41 496.94,-46.97 503.35,-44.16"/>
</g>
<!-- 270 -->
<g id="node13" class="node">
<title>270</title>
<polygon fill="#c0c0c0" stroke="black" points="587.5,-36 533.5,-36 533.5,0 587.5,0 587.5,-36"/>
<text text-anchor="middle" x="560.5" y="-14.3" font-family="Times,serif" font-size="14.00">(...)</text>
</g>
<!-- 140&#45;&gt;270 -->
<g id="edge12" class="edge">
<title>140&#45;&gt;270</title>
<path fill="none" stroke="black" d="M543.01,-71.76C545.9,-63.04 548.88,-54.04 551.55,-45.99"/>
<polygon fill="black" stroke="black" points="554.9,-47 554.73,-36.41 548.26,-44.8 554.9,-47"/>
</g>
<!-- 312 -->
<g id="node15" class="node">
<title>312</title>
<polygon fill="#c0c0c0" stroke="black" points="720.5,-36 666.5,-36 666.5,0 720.5,0 720.5,-36"/>
<text text-anchor="middle" x="693.5" y="-14.3" font-family="Times,serif" font-size="14.00">(...)</text>
</g>
<!-- 311&#45;&gt;312 -->
<g id="edge14" class="edge">
<title>311&#45;&gt;312</title>
<path fill="none" stroke="black" d="M717.76,-71.76C713.71,-62.94 709.52,-53.84 705.79,-45.72"/>
<polygon fill="black" stroke="black" points="708.86,-44.03 701.5,-36.41 702.5,-46.95 708.86,-44.03"/>
</g>
<!-- 325 -->
<g id="node16" class="node">
<title>325</title>
<polygon fill="#c0c0c0" stroke="black" points="792.5,-36 738.5,-36 738.5,0 792.5,0 792.5,-36"/>
<text text-anchor="middle" x="765.5" y="-14.3" font-family="Times,serif" font-size="14.00">(...)</text>
</g>
<!-- 311&#45;&gt;325 -->
<g id="edge15" class="edge">
<title>311&#45;&gt;325</title>
<path fill="none" stroke="black" d="M749.14,-71.76C751.84,-63.04 754.63,-54.04 757.13,-45.99"/>
<polygon fill="black" stroke="black" points="760.48,-46.99 760.1,-36.41 753.8,-44.92 760.48,-46.99"/>
</g>
<!-- 357 -->
<g id="node18" class="node">
<title>357</title>
<polygon fill="#ae7fee" stroke="black" points="1133.5,-274 939.5,-274 939.5,-191 1133.5,-191 1133.5,-274"/>
<text text-anchor="middle" x="1036.5" y="-258.8" font-family="Times,serif" font-size="14.00">sdComp &lt;= 6.5</text>
<text text-anchor="middle" x="1036.5" y="-243.8" font-family="Times,serif" font-size="14.00">gini = 0.439</text>
<text text-anchor="middle" x="1036.5" y="-228.8" font-family="Times,serif" font-size="14.00">samples = 2262</text>
<text text-anchor="middle" x="1036.5" y="-213.8" font-family="Times,serif" font-size="14.00">value = [454, 186, 1622]</text>
<text text-anchor="middle" x="1036.5" y="-198.8" font-family="Times,serif" font-size="14.00">class = None</text>
</g>
<!-- 356&#45;&gt;357 -->
<g id="edge17" class="edge">
<title>356&#45;&gt;357</title>
<path fill="none" stroke="black" d="M1036.5,-309.91C1036.5,-301.65 1036.5,-292.86 1036.5,-284.3"/>
<polygon fill="black" stroke="black" points="1040,-284.02 1036.5,-274.02 1033,-284.02 1040,-284.02"/>
</g>
<!-- 406 -->
<g id="node25" class="node">
<title>406</title>
<polygon fill="#8a48e7" stroke="black" points="1442.5,-274 1248.5,-274 1248.5,-191 1442.5,-191 1442.5,-274"/>
<text text-anchor="middle" x="1345.5" y="-258.8" font-family="Times,serif" font-size="14.00">nbproc &lt;= 4.5</text>
<text text-anchor="middle" x="1345.5" y="-243.8" font-family="Times,serif" font-size="14.00">gini = 0.133</text>
<text text-anchor="middle" x="1345.5" y="-228.8" font-family="Times,serif" font-size="14.00">samples = 5476</text>
<text text-anchor="middle" x="1345.5" y="-213.8" font-family="Times,serif" font-size="14.00">value = [266, 120, 5090]</text>
<text text-anchor="middle" x="1345.5" y="-198.8" font-family="Times,serif" font-size="14.00">class = None</text>
</g>
<!-- 356&#45;&gt;406 -->
<g id="edge24" class="edge">
<title>356&#45;&gt;406</title>
<path fill="none" stroke="black" d="M1133.85,-313.64C1167.24,-301 1204.77,-286.78 1238.86,-273.88"/>
<polygon fill="black" stroke="black" points="1240.27,-277.09 1248.38,-270.27 1237.79,-270.54 1240.27,-277.09"/>
</g>
<!-- 358 -->
<g id="node19" class="node">
<title>358</title>
<polygon fill="#9d65eb" stroke="black" points="1032,-155 847,-155 847,-72 1032,-72 1032,-155"/>
<text text-anchor="middle" x="939.5" y="-139.8" font-family="Times,serif" font-size="14.00">graphDepth &lt;= 3.5</text>
<text text-anchor="middle" x="939.5" y="-124.8" font-family="Times,serif" font-size="14.00">gini = 0.317</text>
<text text-anchor="middle" x="939.5" y="-109.8" font-family="Times,serif" font-size="14.00">samples = 1302</text>
<text text-anchor="middle" x="939.5" y="-94.8" font-family="Times,serif" font-size="14.00">value = [200, 46, 1056]</text>
<text text-anchor="middle" x="939.5" y="-79.8" font-family="Times,serif" font-size="14.00">class = None</text>
</g>
<!-- 357&#45;&gt;358 -->
<g id="edge18" class="edge">
<title>357&#45;&gt;358</title>
<path fill="none" stroke="black" d="M1002.85,-190.91C995.32,-181.83 987.27,-172.12 979.52,-162.77"/>
<polygon fill="black" stroke="black" points="982.17,-160.49 973.09,-155.02 976.78,-164.95 982.17,-160.49"/>
</g>
<!-- 387 -->
<g id="node22" class="node">
<title>387</title>
<polygon fill="#c7a7f4" stroke="black" points="1235,-155 1050,-155 1050,-72 1235,-72 1235,-155"/>
<text text-anchor="middle" x="1142.5" y="-139.8" font-family="Times,serif" font-size="14.00">sdComm &lt;= 2.0</text>
<text text-anchor="middle" x="1142.5" y="-124.8" font-family="Times,serif" font-size="14.00">gini = 0.561</text>
<text text-anchor="middle" x="1142.5" y="-109.8" font-family="Times,serif" font-size="14.00">samples = 960</text>
<text text-anchor="middle" x="1142.5" y="-94.8" font-family="Times,serif" font-size="14.00">value = [254, 140, 566]</text>
<text text-anchor="middle" x="1142.5" y="-79.8" font-family="Times,serif" font-size="14.00">class = None</text>
</g>
<!-- 357&#45;&gt;387 -->
<g id="edge21" class="edge">
<title>357&#45;&gt;387</title>
<path fill="none" stroke="black" d="M1073.28,-190.91C1081.58,-181.74 1090.47,-171.93 1099.02,-162.49"/>
<polygon fill="black" stroke="black" points="1101.67,-164.78 1105.79,-155.02 1096.48,-160.08 1101.67,-164.78"/>
</g>
<!-- 359 -->
<g id="node20" class="node">
<title>359</title>
<polygon fill="#c0c0c0" stroke="black" points="923.5,-36 869.5,-36 869.5,0 923.5,0 923.5,-36"/>
<text text-anchor="middle" x="896.5" y="-14.3" font-family="Times,serif" font-size="14.00">(...)</text>
</g>
<!-- 358&#45;&gt;359 -->
<g id="edge19" class="edge">
<title>358&#45;&gt;359</title>
<path fill="none" stroke="black" d="M920.76,-71.76C916.71,-62.94 912.52,-53.84 908.79,-45.72"/>
<polygon fill="black" stroke="black" points="911.86,-44.03 904.5,-36.41 905.5,-46.95 911.86,-44.03"/>
</g>
<!-- 374 -->
<g id="node21" class="node">
<title>374</title>
<polygon fill="#c0c0c0" stroke="black" points="995.5,-36 941.5,-36 941.5,0 995.5,0 995.5,-36"/>
<text text-anchor="middle" x="968.5" y="-14.3" font-family="Times,serif" font-size="14.00">(...)</text>
</g>
<!-- 358&#45;&gt;374 -->
<g id="edge20" class="edge">
<title>358&#45;&gt;374</title>
<path fill="none" stroke="black" d="M952.14,-71.76C954.84,-63.04 957.63,-54.04 960.13,-45.99"/>
<polygon fill="black" stroke="black" points="963.48,-46.99 963.1,-36.41 956.8,-44.92 963.48,-46.99"/>
</g>
<!-- 388 -->
<g id="node23" class="node">
<title>388</title>
<polygon fill="#c0c0c0" stroke="black" points="1126.5,-36 1072.5,-36 1072.5,0 1126.5,0 1126.5,-36"/>
<text text-anchor="middle" x="1099.5" y="-14.3" font-family="Times,serif" font-size="14.00">(...)</text>
</g>
<!-- 387&#45;&gt;388 -->
<g id="edge22" class="edge">
<title>387&#45;&gt;388</title>
<path fill="none" stroke="black" d="M1123.76,-71.76C1119.71,-62.94 1115.52,-53.84 1111.79,-45.72"/>
<polygon fill="black" stroke="black" points="1114.86,-44.03 1107.5,-36.41 1108.5,-46.95 1114.86,-44.03"/>
</g>
<!-- 395 -->
<g id="node24" class="node">
<title>395</title>
<polygon fill="#c0c0c0" stroke="black" points="1198.5,-36 1144.5,-36 1144.5,0 1198.5,0 1198.5,-36"/>
<text text-anchor="middle" x="1171.5" y="-14.3" font-family="Times,serif" font-size="14.00">(...)</text>
</g>
<!-- 387&#45;&gt;395 -->
<g id="edge23" class="edge">
<title>387&#45;&gt;395</title>
<path fill="none" stroke="black" d="M1155.14,-71.76C1157.84,-63.04 1160.63,-54.04 1163.13,-45.99"/>
<polygon fill="black" stroke="black" points="1166.48,-46.99 1166.1,-36.41 1159.8,-44.92 1166.48,-46.99"/>
</g>
<!-- 407 -->
<g id="node26" class="node">
<title>407</title>
<polygon fill="#9152e8" stroke="black" points="1438,-155 1253,-155 1253,-72 1438,-72 1438,-155"/>
<text text-anchor="middle" x="1345.5" y="-139.8" font-family="Times,serif" font-size="14.00">graphDepth &lt;= 13.5</text>
<text text-anchor="middle" x="1345.5" y="-124.8" font-family="Times,serif" font-size="14.00">gini = 0.205</text>
<text text-anchor="middle" x="1345.5" y="-109.8" font-family="Times,serif" font-size="14.00">samples = 2566</text>
<text text-anchor="middle" x="1345.5" y="-94.8" font-family="Times,serif" font-size="14.00">value = [230, 60, 2276]</text>
<text text-anchor="middle" x="1345.5" y="-79.8" font-family="Times,serif" font-size="14.00">class = None</text>
</g>
<!-- 406&#45;&gt;407 -->
<g id="edge25" class="edge">
<title>406&#45;&gt;407</title>
<path fill="none" stroke="black" d="M1345.5,-190.91C1345.5,-182.65 1345.5,-173.86 1345.5,-165.3"/>
<polygon fill="black" stroke="black" points="1349,-165.02 1345.5,-155.02 1342,-165.02 1349,-165.02"/>
</g>
<!-- 438 -->
<g id="node29" class="node">
<title>438</title>
<polygon fill="#8540e6" stroke="black" points="1631.5,-155 1455.5,-155 1455.5,-72 1631.5,-72 1631.5,-155"/>
<text text-anchor="middle" x="1543.5" y="-139.8" font-family="Times,serif" font-size="14.00">graphSize &lt;= 40.0</text>
<text text-anchor="middle" x="1543.5" y="-124.8" font-family="Times,serif" font-size="14.00">gini = 0.064</text>
<text text-anchor="middle" x="1543.5" y="-109.8" font-family="Times,serif" font-size="14.00">samples = 2910</text>
<text text-anchor="middle" x="1543.5" y="-94.8" font-family="Times,serif" font-size="14.00">value = [36, 60, 2814]</text>
<text text-anchor="middle" x="1543.5" y="-79.8" font-family="Times,serif" font-size="14.00">class = None</text>
</g>
<!-- 406&#45;&gt;438 -->
<g id="edge28" class="edge">
<title>406&#45;&gt;438</title>
<path fill="none" stroke="black" d="M1414.2,-190.91C1430.94,-181.02 1448.95,-170.37 1466.07,-160.25"/>
<polygon fill="black" stroke="black" points="1468.1,-163.12 1474.93,-155.02 1464.54,-157.09 1468.1,-163.12"/>
</g>
<!-- 408 -->
<g id="node27" class="node">
<title>408</title>
<polygon fill="#c0c0c0" stroke="black" points="1336.5,-36 1282.5,-36 1282.5,0 1336.5,0 1336.5,-36"/>
<text text-anchor="middle" x="1309.5" y="-14.3" font-family="Times,serif" font-size="14.00">(...)</text>
</g>
<!-- 407&#45;&gt;408 -->
<g id="edge26" class="edge">
<title>407&#45;&gt;408</title>
<path fill="none" stroke="black" d="M1329.81,-71.76C1326.46,-63.04 1322.99,-54.04 1319.89,-45.99"/>
<polygon fill="black" stroke="black" points="1323.06,-44.48 1316.2,-36.41 1316.53,-46.99 1323.06,-44.48"/>
</g>
<!-- 415 -->
<g id="node28" class="node">
<title>415</title>
<polygon fill="#c0c0c0" stroke="black" points="1408.5,-36 1354.5,-36 1354.5,0 1408.5,0 1408.5,-36"/>
<text text-anchor="middle" x="1381.5" y="-14.3" font-family="Times,serif" font-size="14.00">(...)</text>
</g>
<!-- 407&#45;&gt;415 -->
<g id="edge27" class="edge">
<title>407&#45;&gt;415</title>
<path fill="none" stroke="black" d="M1361.19,-71.76C1364.54,-63.04 1368.01,-54.04 1371.11,-45.99"/>
<polygon fill="black" stroke="black" points="1374.47,-46.99 1374.8,-36.41 1367.94,-44.48 1374.47,-46.99"/>
</g>
<!-- 439 -->
<g id="node30" class="node">
<title>439</title>
<polygon fill="#c0c0c0" stroke="black" points="1534.5,-36 1480.5,-36 1480.5,0 1534.5,0 1534.5,-36"/>
<text text-anchor="middle" x="1507.5" y="-14.3" font-family="Times,serif" font-size="14.00">(...)</text>
</g>
<!-- 438&#45;&gt;439 -->
<g id="edge29" class="edge">
<title>438&#45;&gt;439</title>
<path fill="none" stroke="black" d="M1527.81,-71.76C1524.46,-63.04 1520.99,-54.04 1517.89,-45.99"/>
<polygon fill="black" stroke="black" points="1521.06,-44.48 1514.2,-36.41 1514.53,-46.99 1521.06,-44.48"/>
</g>
<!-- 456 -->
<g id="node31" class="node">
<title>456</title>
<polygon fill="#c0c0c0" stroke="black" points="1606.5,-36 1552.5,-36 1552.5,0 1606.5,0 1606.5,-36"/>
<text text-anchor="middle" x="1579.5" y="-14.3" font-family="Times,serif" font-size="14.00">(...)</text>
</g>
<!-- 438&#45;&gt;456 -->
<g id="edge30" class="edge">
<title>438&#45;&gt;456</title>
<path fill="none" stroke="black" d="M1559.19,-71.76C1562.54,-63.04 1566.01,-54.04 1569.11,-45.99"/>
<polygon fill="black" stroke="black" points="1572.47,-46.99 1572.8,-36.41 1565.94,-44.48 1572.47,-46.99"/>
</g>
</g>
</svg>
