<?xml version="1.0" encoding="UTF-8" standalone="no"?>
<!DOCTYPE svg PUBLIC "-//W3C//DTD SVG 1.1//EN"
 "http://www.w3.org/Graphics/SVG/1.1/DTD/svg11.dtd">
<!-- Generated by graphviz version 2.43.0 (0)
 -->
<!-- Title: Tree Pages: 1 -->
<svg width="1407pt" height="520pt"
 viewBox="0.00 0.00 1407.00 520.00" xmlns="http://www.w3.org/2000/svg" xmlns:xlink="http://www.w3.org/1999/xlink">
<g id="graph0" class="graph" transform="scale(1 1) rotate(0) translate(4 516)">
<title>Tree</title>
<polygon fill="white" stroke="transparent" points="-4,4 -4,-516 1403,-516 1403,4 -4,4"/>
<!-- 0 -->
<g id="node1" class="node">
<title>0</title>
<polygon fill="#b6dbf5" stroke="black" points="782.5,-512 606.5,-512 606.5,-429 782.5,-429 782.5,-512"/>
<text text-anchor="middle" x="694.5" y="-496.8" font-family="Times,serif" font-size="14.00">sdComm &lt;= 0.65</text>
<text text-anchor="middle" x="694.5" y="-481.8" font-family="Times,serif" font-size="14.00">gini = 0.474</text>
<text text-anchor="middle" x="694.5" y="-466.8" font-family="Times,serif" font-size="14.00">samples = 22504</text>
<text text-anchor="middle" x="694.5" y="-451.8" font-family="Times,serif" font-size="14.00">value = [8710, 13794]</text>
<text text-anchor="middle" x="694.5" y="-436.8" font-family="Times,serif" font-size="14.00">class = True</text>
</g>
<!-- 1 -->
<g id="node2" class="node">
<title>1</title>
<polygon fill="#d5eaf9" stroke="black" points="607,-393 440,-393 440,-310 607,-310 607,-393"/>
<text text-anchor="middle" x="523.5" y="-377.8" font-family="Times,serif" font-size="14.00">graphDepth &lt;= 13.5</text>
<text text-anchor="middle" x="523.5" y="-362.8" font-family="Times,serif" font-size="14.00">gini = 0.493</text>
<text text-anchor="middle" x="523.5" y="-347.8" font-family="Times,serif" font-size="14.00">samples = 12832</text>
<text text-anchor="middle" x="523.5" y="-332.8" font-family="Times,serif" font-size="14.00">value = [5654, 7178]</text>
<text text-anchor="middle" x="523.5" y="-317.8" font-family="Times,serif" font-size="14.00">class = True</text>
</g>
<!-- 0&#45;&gt;1 -->
<g id="edge1" class="edge">
<title>0&#45;&gt;1</title>
<path fill="none" stroke="black" d="M635.17,-428.91C620.98,-419.2 605.72,-408.76 591.19,-398.81"/>
<polygon fill="black" stroke="black" points="592.95,-395.78 582.72,-393.02 589,-401.56 592.95,-395.78"/>
<text text-anchor="middle" x="587.33" y="-413.89" font-family="Times,serif" font-size="14.00">True</text>
</g>
<!-- 278 -->
<g id="node17" class="node">
<title>278</title>
<polygon fill="#94caf1" stroke="black" points="953,-393 786,-393 786,-310 953,-310 953,-393"/>
<text text-anchor="middle" x="869.5" y="-377.8" font-family="Times,serif" font-size="14.00">nbproc &lt;= 4.5</text>
<text text-anchor="middle" x="869.5" y="-362.8" font-family="Times,serif" font-size="14.00">gini = 0.432</text>
<text text-anchor="middle" x="869.5" y="-347.8" font-family="Times,serif" font-size="14.00">samples = 9672</text>
<text text-anchor="middle" x="869.5" y="-332.8" font-family="Times,serif" font-size="14.00">value = [3056, 6616]</text>
<text text-anchor="middle" x="869.5" y="-317.8" font-family="Times,serif" font-size="14.00">class = True</text>
</g>
<!-- 0&#45;&gt;278 -->
<g id="edge16" class="edge">
<title>0&#45;&gt;278</title>
<path fill="none" stroke="black" d="M755.22,-428.91C769.74,-419.2 785.35,-408.76 800.23,-398.81"/>
<polygon fill="black" stroke="black" points="802.52,-401.49 808.89,-393.02 798.63,-395.67 802.52,-401.49"/>
<text text-anchor="middle" x="804.02" y="-413.84" font-family="Times,serif" font-size="14.00">False</text>
</g>
<!-- 2 -->
<g id="node3" class="node">
<title>2</title>
<polygon fill="#daedfa" stroke="black" points="352,-274 185,-274 185,-191 352,-191 352,-274"/>
<text text-anchor="middle" x="268.5" y="-258.8" font-family="Times,serif" font-size="14.00">graphDepth &lt;= 3.5</text>
<text text-anchor="middle" x="268.5" y="-243.8" font-family="Times,serif" font-size="14.00">gini = 0.495</text>
<text text-anchor="middle" x="268.5" y="-228.8" font-family="Times,serif" font-size="14.00">samples = 12174</text>
<text text-anchor="middle" x="268.5" y="-213.8" font-family="Times,serif" font-size="14.00">value = [5456, 6718]</text>
<text text-anchor="middle" x="268.5" y="-198.8" font-family="Times,serif" font-size="14.00">class = True</text>
</g>
<!-- 1&#45;&gt;2 -->
<g id="edge2" class="edge">
<title>1&#45;&gt;2</title>
<path fill="none" stroke="black" d="M439.65,-312.03C414.7,-300.58 387.21,-287.97 361.7,-276.26"/>
<polygon fill="black" stroke="black" points="362.95,-272.98 352.4,-272 360.03,-279.35 362.95,-272.98"/>
</g>
<!-- 213 -->
<g id="node10" class="node">
<title>213</title>
<polygon fill="#8ec7f0" stroke="black" points="598,-274 449,-274 449,-191 598,-191 598,-274"/>
<text text-anchor="middle" x="523.5" y="-258.8" font-family="Times,serif" font-size="14.00">sdComp &lt;= 0.65</text>
<text text-anchor="middle" x="523.5" y="-243.8" font-family="Times,serif" font-size="14.00">gini = 0.421</text>
<text text-anchor="middle" x="523.5" y="-228.8" font-family="Times,serif" font-size="14.00">samples = 658</text>
<text text-anchor="middle" x="523.5" y="-213.8" font-family="Times,serif" font-size="14.00">value = [198, 460]</text>
<text text-anchor="middle" x="523.5" y="-198.8" font-family="Times,serif" font-size="14.00">class = True</text>
</g>
<!-- 1&#45;&gt;213 -->
<g id="edge9" class="edge">
<title>1&#45;&gt;213</title>
<path fill="none" stroke="black" d="M523.5,-309.91C523.5,-301.65 523.5,-292.86 523.5,-284.3"/>
<polygon fill="black" stroke="black" points="527,-284.02 523.5,-274.02 520,-284.02 527,-284.02"/>
</g>
<!-- 3 -->
<g id="node4" class="node">
<title>3</title>
<polygon fill="#b8dcf6" stroke="black" points="167,-155 0,-155 0,-72 167,-72 167,-155"/>
<text text-anchor="middle" x="83.5" y="-139.8" font-family="Times,serif" font-size="14.00">nbproc &lt;= 4.5</text>
<text text-anchor="middle" x="83.5" y="-124.8" font-family="Times,serif" font-size="14.00">gini = 0.476</text>
<text text-anchor="middle" x="83.5" y="-109.8" font-family="Times,serif" font-size="14.00">samples = 2738</text>
<text text-anchor="middle" x="83.5" y="-94.8" font-family="Times,serif" font-size="14.00">value = [1068, 1670]</text>
<text text-anchor="middle" x="83.5" y="-79.8" font-family="Times,serif" font-size="14.00">class = True</text>
</g>
<!-- 2&#45;&gt;3 -->
<g id="edge3" class="edge">
<title>2&#45;&gt;3</title>
<path fill="none" stroke="black" d="M204.32,-190.91C188.82,-181.11 172.15,-170.56 156.29,-160.53"/>
<polygon fill="black" stroke="black" points="157.89,-157.41 147.57,-155.02 154.15,-163.32 157.89,-157.41"/>
</g>
<!-- 44 -->
<g id="node7" class="node">
<title>44</title>
<polygon fill="#e5f2fc" stroke="black" points="352,-155 185,-155 185,-72 352,-72 352,-155"/>
<text text-anchor="middle" x="268.5" y="-139.8" font-family="Times,serif" font-size="14.00">sdComp &lt;= 0.065</text>
<text text-anchor="middle" x="268.5" y="-124.8" font-family="Times,serif" font-size="14.00">gini = 0.498</text>
<text text-anchor="middle" x="268.5" y="-109.8" font-family="Times,serif" font-size="14.00">samples = 9436</text>
<text text-anchor="middle" x="268.5" y="-94.8" font-family="Times,serif" font-size="14.00">value = [4388, 5048]</text>
<text text-anchor="middle" x="268.5" y="-79.8" font-family="Times,serif" font-size="14.00">class = True</text>
</g>
<!-- 2&#45;&gt;44 -->
<g id="edge6" class="edge">
<title>2&#45;&gt;44</title>
<path fill="none" stroke="black" d="M268.5,-190.91C268.5,-182.65 268.5,-173.86 268.5,-165.3"/>
<polygon fill="black" stroke="black" points="272,-165.02 268.5,-155.02 265,-165.02 272,-165.02"/>
</g>
<!-- 4 -->
<g id="node5" class="node">
<title>4</title>
<polygon fill="#c0c0c0" stroke="black" points="74.5,-36 20.5,-36 20.5,0 74.5,0 74.5,-36"/>
<text text-anchor="middle" x="47.5" y="-14.3" font-family="Times,serif" font-size="14.00">(...)</text>
</g>
<!-- 3&#45;&gt;4 -->
<g id="edge4" class="edge">
<title>3&#45;&gt;4</title>
<path fill="none" stroke="black" d="M67.81,-71.76C64.46,-63.04 60.99,-54.04 57.89,-45.99"/>
<polygon fill="black" stroke="black" points="61.06,-44.48 54.2,-36.41 54.53,-46.99 61.06,-44.48"/>
</g>
<!-- 17 -->
<g id="node6" class="node">
<title>17</title>
<polygon fill="#c0c0c0" stroke="black" points="146.5,-36 92.5,-36 92.5,0 146.5,0 146.5,-36"/>
<text text-anchor="middle" x="119.5" y="-14.3" font-family="Times,serif" font-size="14.00">(...)</text>
</g>
<!-- 3&#45;&gt;17 -->
<g id="edge5" class="edge">
<title>3&#45;&gt;17</title>
<path fill="none" stroke="black" d="M99.19,-71.76C102.54,-63.04 106.01,-54.04 109.11,-45.99"/>
<polygon fill="black" stroke="black" points="112.47,-46.99 112.8,-36.41 105.94,-44.48 112.47,-46.99"/>
</g>
<!-- 45 -->
<g id="node8" class="node">
<title>45</title>
<polygon fill="#c0c0c0" stroke="black" points="251.5,-36 197.5,-36 197.5,0 251.5,0 251.5,-36"/>
<text text-anchor="middle" x="224.5" y="-14.3" font-family="Times,serif" font-size="14.00">(...)</text>
</g>
<!-- 44&#45;&gt;45 -->
<g id="edge7" class="edge">
<title>44&#45;&gt;45</title>
<path fill="none" stroke="black" d="M249.33,-71.76C245.13,-62.85 240.8,-53.64 236.95,-45.46"/>
<polygon fill="black" stroke="black" points="240.12,-43.96 232.69,-36.41 233.78,-46.94 240.12,-43.96"/>
</g>
<!-- 104 -->
<g id="node9" class="node">
<title>104</title>
<polygon fill="#c0c0c0" stroke="black" points="323.5,-36 269.5,-36 269.5,0 323.5,0 323.5,-36"/>
<text text-anchor="middle" x="296.5" y="-14.3" font-family="Times,serif" font-size="14.00">(...)</text>
</g>
<!-- 44&#45;&gt;104 -->
<g id="edge8" class="edge">
<title>44&#45;&gt;104</title>
<path fill="none" stroke="black" d="M280.7,-71.76C283.31,-63.04 286.01,-54.04 288.42,-45.99"/>
<polygon fill="black" stroke="black" points="291.77,-46.99 291.29,-36.41 285.07,-44.98 291.77,-46.99"/>
</g>
<!-- 214 -->
<g id="node11" class="node">
<title>214</title>
<polygon fill="#aad5f4" stroke="black" points="519,-155 370,-155 370,-72 519,-72 519,-155"/>
<text text-anchor="middle" x="444.5" y="-139.8" font-family="Times,serif" font-size="14.00">nbproc &lt;= 4.5</text>
<text text-anchor="middle" x="444.5" y="-124.8" font-family="Times,serif" font-size="14.00">gini = 0.462</text>
<text text-anchor="middle" x="444.5" y="-109.8" font-family="Times,serif" font-size="14.00">samples = 518</text>
<text text-anchor="middle" x="444.5" y="-94.8" font-family="Times,serif" font-size="14.00">value = [188, 330]</text>
<text text-anchor="middle" x="444.5" y="-79.8" font-family="Times,serif" font-size="14.00">class = True</text>
</g>
<!-- 213&#45;&gt;214 -->
<g id="edge10" class="edge">
<title>213&#45;&gt;214</title>
<path fill="none" stroke="black" d="M496.09,-190.91C490.09,-182.01 483.67,-172.51 477.47,-163.33"/>
<polygon fill="black" stroke="black" points="480.36,-161.35 471.86,-155.02 474.56,-165.27 480.36,-161.35"/>
</g>
<!-- 269 -->
<g id="node14" class="node">
<title>269</title>
<polygon fill="#48a5e7" stroke="black" points="690,-155 537,-155 537,-72 690,-72 690,-155"/>
<text text-anchor="middle" x="613.5" y="-139.8" font-family="Times,serif" font-size="14.00">graphSize &lt;= 75.0</text>
<text text-anchor="middle" x="613.5" y="-124.8" font-family="Times,serif" font-size="14.00">gini = 0.133</text>
<text text-anchor="middle" x="613.5" y="-109.8" font-family="Times,serif" font-size="14.00">samples = 140</text>
<text text-anchor="middle" x="613.5" y="-94.8" font-family="Times,serif" font-size="14.00">value = [10, 130]</text>
<text text-anchor="middle" x="613.5" y="-79.8" font-family="Times,serif" font-size="14.00">class = True</text>
</g>
<!-- 213&#45;&gt;269 -->
<g id="edge13" class="edge">
<title>213&#45;&gt;269</title>
<path fill="none" stroke="black" d="M554.73,-190.91C561.64,-181.92 569.03,-172.32 576.15,-163.05"/>
<polygon fill="black" stroke="black" points="579.01,-165.08 582.33,-155.02 573.46,-160.81 579.01,-165.08"/>
</g>
<!-- 215 -->
<g id="node12" class="node">
<title>215</title>
<polygon fill="#c0c0c0" stroke="black" points="411.5,-36 357.5,-36 357.5,0 411.5,0 411.5,-36"/>
<text text-anchor="middle" x="384.5" y="-14.3" font-family="Times,serif" font-size="14.00">(...)</text>
</g>
<!-- 214&#45;&gt;215 -->
<g id="edge11" class="edge">
<title>214&#45;&gt;215</title>
<path fill="none" stroke="black" d="M418.36,-71.76C412.51,-62.65 406.47,-53.24 401.14,-44.92"/>
<polygon fill="black" stroke="black" points="404.02,-42.93 395.67,-36.41 398.12,-46.71 404.02,-42.93"/>
</g>
<!-- 232 -->
<g id="node13" class="node">
<title>232</title>
<polygon fill="#c0c0c0" stroke="black" points="483.5,-36 429.5,-36 429.5,0 483.5,0 483.5,-36"/>
<text text-anchor="middle" x="456.5" y="-14.3" font-family="Times,serif" font-size="14.00">(...)</text>
</g>
<!-- 214&#45;&gt;232 -->
<g id="edge12" class="edge">
<title>214&#45;&gt;232</title>
<path fill="none" stroke="black" d="M449.73,-71.76C450.82,-63.24 451.95,-54.44 452.97,-46.53"/>
<polygon fill="black" stroke="black" points="456.46,-46.77 454.27,-36.41 449.52,-45.88 456.46,-46.77"/>
</g>
<!-- 270 -->
<g id="node15" class="node">
<title>270</title>
<polygon fill="#c0c0c0" stroke="black" points="583.5,-36 529.5,-36 529.5,0 583.5,0 583.5,-36"/>
<text text-anchor="middle" x="556.5" y="-14.3" font-family="Times,serif" font-size="14.00">(...)</text>
</g>
<!-- 269&#45;&gt;270 -->
<g id="edge14" class="edge">
<title>269&#45;&gt;270</title>
<path fill="none" stroke="black" d="M588.66,-71.76C583.17,-62.75 577.49,-53.44 572.47,-45.19"/>
<polygon fill="black" stroke="black" points="575.3,-43.12 567.11,-36.41 569.33,-46.77 575.3,-43.12"/>
</g>
<!-- 273 -->
<g id="node16" class="node">
<title>273</title>
<polygon fill="#c0c0c0" stroke="black" points="655.5,-36 601.5,-36 601.5,0 655.5,0 655.5,-36"/>
<text text-anchor="middle" x="628.5" y="-14.3" font-family="Times,serif" font-size="14.00">(...)</text>
</g>
<!-- 269&#45;&gt;273 -->
<g id="edge15" class="edge">
<title>269&#45;&gt;273</title>
<path fill="none" stroke="black" d="M620.04,-71.76C621.4,-63.24 622.81,-54.44 624.08,-46.53"/>
<polygon fill="black" stroke="black" points="627.58,-46.83 625.71,-36.41 620.67,-45.72 627.58,-46.83"/>
</g>
<!-- 279 -->
<g id="node18" class="node">
<title>279</title>
<polygon fill="#80c0ee" stroke="black" points="953,-274 786,-274 786,-191 953,-191 953,-274"/>
<text text-anchor="middle" x="869.5" y="-258.8" font-family="Times,serif" font-size="14.00">sdComp &lt;= 6.5</text>
<text text-anchor="middle" x="869.5" y="-243.8" font-family="Times,serif" font-size="14.00">gini = 0.388</text>
<text text-anchor="middle" x="869.5" y="-228.8" font-family="Times,serif" font-size="14.00">samples = 4480</text>
<text text-anchor="middle" x="869.5" y="-213.8" font-family="Times,serif" font-size="14.00">value = [1182, 3298]</text>
<text text-anchor="middle" x="869.5" y="-198.8" font-family="Times,serif" font-size="14.00">class = True</text>
</g>
<!-- 278&#45;&gt;279 -->
<g id="edge17" class="edge">
<title>278&#45;&gt;279</title>
<path fill="none" stroke="black" d="M869.5,-309.91C869.5,-301.65 869.5,-292.86 869.5,-284.3"/>
<polygon fill="black" stroke="black" points="873,-284.02 869.5,-274.02 866,-284.02 873,-284.02"/>
</g>
<!-- 374 -->
<g id="node25" class="node">
<title>374</title>
<polygon fill="#a9d4f4" stroke="black" points="1221,-274 1054,-274 1054,-191 1221,-191 1221,-274"/>
<text text-anchor="middle" x="1137.5" y="-258.8" font-family="Times,serif" font-size="14.00">sdComp &lt;= 0.2</text>
<text text-anchor="middle" x="1137.5" y="-243.8" font-family="Times,serif" font-size="14.00">gini = 0.461</text>
<text text-anchor="middle" x="1137.5" y="-228.8" font-family="Times,serif" font-size="14.00">samples = 5192</text>
<text text-anchor="middle" x="1137.5" y="-213.8" font-family="Times,serif" font-size="14.00">value = [1874, 3318]</text>
<text text-anchor="middle" x="1137.5" y="-198.8" font-family="Times,serif" font-size="14.00">class = True</text>
</g>
<!-- 278&#45;&gt;374 -->
<g id="edge24" class="edge">
<title>278&#45;&gt;374</title>
<path fill="none" stroke="black" d="M953.19,-313.96C982.16,-301.32 1014.79,-287.07 1044.46,-274.12"/>
<polygon fill="black" stroke="black" points="1046.22,-277.17 1053.98,-269.96 1043.41,-270.76 1046.22,-277.17"/>
</g>
<!-- 280 -->
<g id="node19" class="node">
<title>280</title>
<polygon fill="#6ab5eb" stroke="black" points="866.5,-155 708.5,-155 708.5,-72 866.5,-72 866.5,-155"/>
<text text-anchor="middle" x="787.5" y="-139.8" font-family="Times,serif" font-size="14.00">graphDepth &lt;= 3.5</text>
<text text-anchor="middle" x="787.5" y="-124.8" font-family="Times,serif" font-size="14.00">gini = 0.317</text>
<text text-anchor="middle" x="787.5" y="-109.8" font-family="Times,serif" font-size="14.00">samples = 2910</text>
<text text-anchor="middle" x="787.5" y="-94.8" font-family="Times,serif" font-size="14.00">value = [574, 2336]</text>
<text text-anchor="middle" x="787.5" y="-79.8" font-family="Times,serif" font-size="14.00">class = True</text>
</g>
<!-- 279&#45;&gt;280 -->
<g id="edge18" class="edge">
<title>279&#45;&gt;280</title>
<path fill="none" stroke="black" d="M841.05,-190.91C834.82,-182.01 828.16,-172.51 821.72,-163.33"/>
<polygon fill="black" stroke="black" points="824.5,-161.2 815.9,-155.02 818.77,-165.22 824.5,-161.2"/>
</g>
<!-- 345 -->
<g id="node22" class="node">
<title>345</title>
<polygon fill="#b6dbf5" stroke="black" points="1042.5,-155 884.5,-155 884.5,-72 1042.5,-72 1042.5,-155"/>
<text text-anchor="middle" x="963.5" y="-139.8" font-family="Times,serif" font-size="14.00">graphDepth &lt;= 3.5</text>
<text text-anchor="middle" x="963.5" y="-124.8" font-family="Times,serif" font-size="14.00">gini = 0.475</text>
<text text-anchor="middle" x="963.5" y="-109.8" font-family="Times,serif" font-size="14.00">samples = 1570</text>
<text text-anchor="middle" x="963.5" y="-94.8" font-family="Times,serif" font-size="14.00">value = [608, 962]</text>
<text text-anchor="middle" x="963.5" y="-79.8" font-family="Times,serif" font-size="14.00">class = True</text>
</g>
<!-- 279&#45;&gt;345 -->
<g id="edge21" class="edge">
<title>279&#45;&gt;345</title>
<path fill="none" stroke="black" d="M902.11,-190.91C909.33,-181.92 917.05,-172.32 924.49,-163.05"/>
<polygon fill="black" stroke="black" points="927.41,-165.01 930.94,-155.02 921.95,-160.62 927.41,-165.01"/>
</g>
<!-- 281 -->
<g id="node20" class="node">
<title>281</title>
<polygon fill="#c0c0c0" stroke="black" points="758.5,-36 704.5,-36 704.5,0 758.5,0 758.5,-36"/>
<text text-anchor="middle" x="731.5" y="-14.3" font-family="Times,serif" font-size="14.00">(...)</text>
</g>
<!-- 280&#45;&gt;281 -->
<g id="edge19" class="edge">
<title>280&#45;&gt;281</title>
<path fill="none" stroke="black" d="M763.1,-71.76C757.7,-62.75 752.13,-53.44 747.19,-45.19"/>
<polygon fill="black" stroke="black" points="750.07,-43.19 741.92,-36.41 744.06,-46.78 750.07,-43.19"/>
</g>
<!-- 286 -->
<g id="node21" class="node">
<title>286</title>
<polygon fill="#c0c0c0" stroke="black" points="830.5,-36 776.5,-36 776.5,0 830.5,0 830.5,-36"/>
<text text-anchor="middle" x="803.5" y="-14.3" font-family="Times,serif" font-size="14.00">(...)</text>
</g>
<!-- 280&#45;&gt;286 -->
<g id="edge20" class="edge">
<title>280&#45;&gt;286</title>
<path fill="none" stroke="black" d="M794.47,-71.76C795.93,-63.24 797.44,-54.44 798.79,-46.53"/>
<polygon fill="black" stroke="black" points="802.28,-46.85 800.52,-36.41 795.38,-45.67 802.28,-46.85"/>
</g>
<!-- 346 -->
<g id="node23" class="node">
<title>346</title>
<polygon fill="#c0c0c0" stroke="black" points="933.5,-36 879.5,-36 879.5,0 933.5,0 933.5,-36"/>
<text text-anchor="middle" x="906.5" y="-14.3" font-family="Times,serif" font-size="14.00">(...)</text>
</g>
<!-- 345&#45;&gt;346 -->
<g id="edge22" class="edge">
<title>345&#45;&gt;346</title>
<path fill="none" stroke="black" d="M938.66,-71.76C933.17,-62.75 927.49,-53.44 922.47,-45.19"/>
<polygon fill="black" stroke="black" points="925.3,-43.12 917.11,-36.41 919.33,-46.77 925.3,-43.12"/>
</g>
<!-- 347 -->
<g id="node24" class="node">
<title>347</title>
<polygon fill="#c0c0c0" stroke="black" points="1005.5,-36 951.5,-36 951.5,0 1005.5,0 1005.5,-36"/>
<text text-anchor="middle" x="978.5" y="-14.3" font-family="Times,serif" font-size="14.00">(...)</text>
</g>
<!-- 345&#45;&gt;347 -->
<g id="edge23" class="edge">
<title>345&#45;&gt;347</title>
<path fill="none" stroke="black" d="M970.04,-71.76C971.4,-63.24 972.81,-54.44 974.08,-46.53"/>
<polygon fill="black" stroke="black" points="977.58,-46.83 975.71,-36.41 970.67,-45.72 977.58,-46.83"/>
</g>
<!-- 375 -->
<g id="node26" class="node">
<title>375</title>
<polygon fill="#fdfeff" stroke="black" points="1214,-155 1061,-155 1061,-72 1214,-72 1214,-155"/>
<text text-anchor="middle" x="1137.5" y="-139.8" font-family="Times,serif" font-size="14.00">graphSize &lt;= 75.0</text>
<text text-anchor="middle" x="1137.5" y="-124.8" font-family="Times,serif" font-size="14.00">gini = 0.5</text>
<text text-anchor="middle" x="1137.5" y="-109.8" font-family="Times,serif" font-size="14.00">samples = 446</text>
<text text-anchor="middle" x="1137.5" y="-94.8" font-family="Times,serif" font-size="14.00">value = [222, 224]</text>
<text text-anchor="middle" x="1137.5" y="-79.8" font-family="Times,serif" font-size="14.00">class = True</text>
</g>
<!-- 374&#45;&gt;375 -->
<g id="edge25" class="edge">
<title>374&#45;&gt;375</title>
<path fill="none" stroke="black" d="M1137.5,-190.91C1137.5,-182.65 1137.5,-173.86 1137.5,-165.3"/>
<polygon fill="black" stroke="black" points="1141,-165.02 1137.5,-155.02 1134,-165.02 1141,-165.02"/>
</g>
<!-- 386 -->
<g id="node29" class="node">
<title>386</title>
<polygon fill="#a3d1f3" stroke="black" points="1399,-155 1232,-155 1232,-72 1399,-72 1399,-155"/>
<text text-anchor="middle" x="1315.5" y="-139.8" font-family="Times,serif" font-size="14.00">graphDepth &lt;= 25.5</text>
<text text-anchor="middle" x="1315.5" y="-124.8" font-family="Times,serif" font-size="14.00">gini = 0.454</text>
<text text-anchor="middle" x="1315.5" y="-109.8" font-family="Times,serif" font-size="14.00">samples = 4746</text>
<text text-anchor="middle" x="1315.5" y="-94.8" font-family="Times,serif" font-size="14.00">value = [1652, 3094]</text>
<text text-anchor="middle" x="1315.5" y="-79.8" font-family="Times,serif" font-size="14.00">class = True</text>
</g>
<!-- 374&#45;&gt;386 -->
<g id="edge28" class="edge">
<title>374&#45;&gt;386</title>
<path fill="none" stroke="black" d="M1199.26,-190.91C1214.17,-181.11 1230.21,-170.56 1245.47,-160.53"/>
<polygon fill="black" stroke="black" points="1247.42,-163.44 1253.85,-155.02 1243.57,-157.59 1247.42,-163.44"/>
</g>
<!-- 376 -->
<g id="node27" class="node">
<title>376</title>
<polygon fill="#c0c0c0" stroke="black" points="1127.5,-36 1073.5,-36 1073.5,0 1127.5,0 1127.5,-36"/>
<text text-anchor="middle" x="1100.5" y="-14.3" font-family="Times,serif" font-size="14.00">(...)</text>
</g>
<!-- 375&#45;&gt;376 -->
<g id="edge26" class="edge">
<title>375&#45;&gt;376</title>
<path fill="none" stroke="black" d="M1121.38,-71.76C1117.89,-62.94 1114.29,-53.84 1111.08,-45.72"/>
<polygon fill="black" stroke="black" points="1114.32,-44.42 1107.39,-36.41 1107.81,-46.99 1114.32,-44.42"/>
</g>
<!-- 385 -->
<g id="node28" class="node">
<title>385</title>
<polygon fill="#c0c0c0" stroke="black" points="1199.5,-36 1145.5,-36 1145.5,0 1199.5,0 1199.5,-36"/>
<text text-anchor="middle" x="1172.5" y="-14.3" font-family="Times,serif" font-size="14.00">(...)</text>
</g>
<!-- 375&#45;&gt;385 -->
<g id="edge27" class="edge">
<title>375&#45;&gt;385</title>
<path fill="none" stroke="black" d="M1152.75,-71.76C1156.01,-63.04 1159.38,-54.04 1162.4,-45.99"/>
<polygon fill="black" stroke="black" points="1165.76,-47 1165.98,-36.41 1159.2,-44.54 1165.76,-47"/>
</g>
<!-- 387 -->
<g id="node30" class="node">
<title>387</title>
<polygon fill="#c0c0c0" stroke="black" points="1306.5,-36 1252.5,-36 1252.5,0 1306.5,0 1306.5,-36"/>
<text text-anchor="middle" x="1279.5" y="-14.3" font-family="Times,serif" font-size="14.00">(...)</text>
</g>
<!-- 386&#45;&gt;387 -->
<g id="edge29" class="edge">
<title>386&#45;&gt;387</title>
<path fill="none" stroke="black" d="M1299.81,-71.76C1296.46,-63.04 1292.99,-54.04 1289.89,-45.99"/>
<polygon fill="black" stroke="black" points="1293.06,-44.48 1286.2,-36.41 1286.53,-46.99 1293.06,-44.48"/>
</g>
<!-- 478 -->
<g id="node31" class="node">
<title>478</title>
<polygon fill="#c0c0c0" stroke="black" points="1378.5,-36 1324.5,-36 1324.5,0 1378.5,0 1378.5,-36"/>
<text text-anchor="middle" x="1351.5" y="-14.3" font-family="Times,serif" font-size="14.00">(...)</text>
</g>
<!-- 386&#45;&gt;478 -->
<g id="edge30" class="edge">
<title>386&#45;&gt;478</title>
<path fill="none" stroke="black" d="M1331.19,-71.76C1334.54,-63.04 1338.01,-54.04 1341.11,-45.99"/>
<polygon fill="black" stroke="black" points="1344.47,-46.99 1344.8,-36.41 1337.94,-44.48 1344.47,-46.99"/>
</g>
</g>
</svg>
