<?xml version="1.0" encoding="UTF-8" standalone="no"?>
<!DOCTYPE svg PUBLIC "-//W3C//DTD SVG 1.1//EN"
 "http://www.w3.org/Graphics/SVG/1.1/DTD/svg11.dtd">
<!-- Generated by graphviz version 2.43.0 (0)
 -->
<!-- Title: Tree Pages: 1 -->
<svg width="2469pt" height="520pt"
 viewBox="0.00 0.00 2469.00 520.00" xmlns="http://www.w3.org/2000/svg" xmlns:xlink="http://www.w3.org/1999/xlink">
<g id="graph0" class="graph" transform="scale(1 1) rotate(0) translate(4 516)">
<title>Tree</title>
<polygon fill="white" stroke="transparent" points="-4,4 -4,-516 2465,-516 2465,4 -4,4"/>
<!-- 0 -->
<g id="node1" class="node">
<title>0</title>
<polygon fill="#ffffff" stroke="black" points="1305,-512 958,-512 958,-429 1305,-429 1305,-512"/>
<text text-anchor="middle" x="1131.5" y="-496.8" font-family="Times,serif" font-size="14.00">sdComm &lt;= 0.02</text>
<text text-anchor="middle" x="1131.5" y="-481.8" font-family="Times,serif" font-size="14.00">gini = 0.833</text>
<text text-anchor="middle" x="1131.5" y="-466.8" font-family="Times,serif" font-size="14.00">samples = 22504</text>
<text text-anchor="middle" x="1131.5" y="-451.8" font-family="Times,serif" font-size="14.00">value = [3734, 3590, 3740, 3850, 3850, 3740]</text>
<text text-anchor="middle" x="1131.5" y="-436.8" font-family="Times,serif" font-size="14.00">class = minmax</text>
</g>
<!-- 1 -->
<g id="node2" class="node">
<title>1</title>
<polygon fill="#ffffff" stroke="black" points="1003,-393 710,-393 710,-310 1003,-310 1003,-393"/>
<text text-anchor="middle" x="856.5" y="-377.8" font-family="Times,serif" font-size="14.00">graphDepth &lt;= 9.0</text>
<text text-anchor="middle" x="856.5" y="-362.8" font-family="Times,serif" font-size="14.00">gini = 0.832</text>
<text text-anchor="middle" x="856.5" y="-347.8" font-family="Times,serif" font-size="14.00">samples = 3480</text>
<text text-anchor="middle" x="856.5" y="-332.8" font-family="Times,serif" font-size="14.00">value = [576, 516, 638, 556, 556, 638]</text>
<text text-anchor="middle" x="856.5" y="-317.8" font-family="Times,serif" font-size="14.00">class = maxmax</text>
</g>
<!-- 0&#45;&gt;1 -->
<g id="edge1" class="edge">
<title>0&#45;&gt;1</title>
<path fill="none" stroke="black" d="M1036.09,-428.91C1011.88,-418.61 985.74,-407.49 961.1,-397"/>
<polygon fill="black" stroke="black" points="962.31,-393.72 951.74,-393.02 959.57,-400.16 962.31,-393.72"/>
<text text-anchor="middle" x="961.09" y="-412.51" font-family="Times,serif" font-size="14.00">True</text>
</g>
<!-- 64 -->
<g id="node17" class="node">
<title>64</title>
<polygon fill="#ffffff" stroke="black" points="1618,-393 1271,-393 1271,-310 1618,-310 1618,-393"/>
<text text-anchor="middle" x="1444.5" y="-377.8" font-family="Times,serif" font-size="14.00">sdComp &lt;= 0.065</text>
<text text-anchor="middle" x="1444.5" y="-362.8" font-family="Times,serif" font-size="14.00">gini = 0.833</text>
<text text-anchor="middle" x="1444.5" y="-347.8" font-family="Times,serif" font-size="14.00">samples = 19024</text>
<text text-anchor="middle" x="1444.5" y="-332.8" font-family="Times,serif" font-size="14.00">value = [3158, 3074, 3102, 3294, 3294, 3102]</text>
<text text-anchor="middle" x="1444.5" y="-317.8" font-family="Times,serif" font-size="14.00">class = minmax</text>
</g>
<!-- 0&#45;&gt;64 -->
<g id="edge16" class="edge">
<title>0&#45;&gt;64</title>
<path fill="none" stroke="black" d="M1240.09,-428.91C1268.01,-418.47 1298.18,-407.19 1326.55,-396.59"/>
<polygon fill="black" stroke="black" points="1327.96,-399.8 1336.1,-393.02 1325.51,-393.24 1327.96,-399.8"/>
<text text-anchor="middle" x="1325.73" y="-412.07" font-family="Times,serif" font-size="14.00">False</text>
</g>
<!-- 2 -->
<g id="node3" class="node">
<title>2</title>
<polygon fill="#ffffff" stroke="black" points="604,-274 311,-274 311,-191 604,-191 604,-274"/>
<text text-anchor="middle" x="457.5" y="-258.8" font-family="Times,serif" font-size="14.00">nbproc &lt;= 4.5</text>
<text text-anchor="middle" x="457.5" y="-243.8" font-family="Times,serif" font-size="14.00">gini = 0.832</text>
<text text-anchor="middle" x="457.5" y="-228.8" font-family="Times,serif" font-size="14.00">samples = 2874</text>
<text text-anchor="middle" x="457.5" y="-213.8" font-family="Times,serif" font-size="14.00">value = [502, 436, 540, 428, 428, 540]</text>
<text text-anchor="middle" x="457.5" y="-198.8" font-family="Times,serif" font-size="14.00">class = maxmax</text>
</g>
<!-- 1&#45;&gt;2 -->
<g id="edge2" class="edge">
<title>1&#45;&gt;2</title>
<path fill="none" stroke="black" d="M718.35,-309.99C681.97,-299.32 642.58,-287.77 605.69,-276.96"/>
<polygon fill="black" stroke="black" points="606.45,-273.53 595.87,-274.07 604.48,-280.25 606.45,-273.53"/>
</g>
<!-- 41 -->
<g id="node10" class="node">
<title>41</title>
<polygon fill="#ffffff" stroke="black" points="985,-274 728,-274 728,-191 985,-191 985,-274"/>
<text text-anchor="middle" x="856.5" y="-258.8" font-family="Times,serif" font-size="14.00">sdComp &lt;= 0.065</text>
<text text-anchor="middle" x="856.5" y="-243.8" font-family="Times,serif" font-size="14.00">gini = 0.826</text>
<text text-anchor="middle" x="856.5" y="-228.8" font-family="Times,serif" font-size="14.00">samples = 606</text>
<text text-anchor="middle" x="856.5" y="-213.8" font-family="Times,serif" font-size="14.00">value = [74, 80, 98, 128, 128, 98]</text>
<text text-anchor="middle" x="856.5" y="-198.8" font-family="Times,serif" font-size="14.00">class = minmax</text>
</g>
<!-- 1&#45;&gt;41 -->
<g id="edge9" class="edge">
<title>1&#45;&gt;41</title>
<path fill="none" stroke="black" d="M856.5,-309.91C856.5,-301.65 856.5,-292.86 856.5,-284.3"/>
<polygon fill="black" stroke="black" points="860,-284.02 856.5,-274.02 853,-284.02 860,-284.02"/>
</g>
<!-- 3 -->
<g id="node4" class="node">
<title>3</title>
<polygon fill="#fefcfa" stroke="black" points="293,-155 0,-155 0,-72 293,-72 293,-155"/>
<text text-anchor="middle" x="146.5" y="-139.8" font-family="Times,serif" font-size="14.00">graphSize &lt;= 22.5</text>
<text text-anchor="middle" x="146.5" y="-124.8" font-family="Times,serif" font-size="14.00">gini = 0.833</text>
<text text-anchor="middle" x="146.5" y="-109.8" font-family="Times,serif" font-size="14.00">samples = 1378</text>
<text text-anchor="middle" x="146.5" y="-94.8" font-family="Times,serif" font-size="14.00">value = [260, 218, 230, 220, 220, 230]</text>
<text text-anchor="middle" x="146.5" y="-79.8" font-family="Times,serif" font-size="14.00">class = mean</text>
</g>
<!-- 2&#45;&gt;3 -->
<g id="edge3" class="edge">
<title>2&#45;&gt;3</title>
<path fill="none" stroke="black" d="M349.6,-190.91C321.86,-180.47 291.88,-169.19 263.69,-158.59"/>
<polygon fill="black" stroke="black" points="264.8,-155.27 254.21,-155.02 262.34,-161.82 264.8,-155.27"/>
</g>
<!-- 22 -->
<g id="node7" class="node">
<title>22</title>
<polygon fill="#ffffff" stroke="black" points="604,-155 311,-155 311,-72 604,-72 604,-155"/>
<text text-anchor="middle" x="457.5" y="-139.8" font-family="Times,serif" font-size="14.00">graphSize &lt;= 22.5</text>
<text text-anchor="middle" x="457.5" y="-124.8" font-family="Times,serif" font-size="14.00">gini = 0.828</text>
<text text-anchor="middle" x="457.5" y="-109.8" font-family="Times,serif" font-size="14.00">samples = 1496</text>
<text text-anchor="middle" x="457.5" y="-94.8" font-family="Times,serif" font-size="14.00">value = [242, 218, 310, 208, 208, 310]</text>
<text text-anchor="middle" x="457.5" y="-79.8" font-family="Times,serif" font-size="14.00">class = maxmax</text>
</g>
<!-- 2&#45;&gt;22 -->
<g id="edge6" class="edge">
<title>2&#45;&gt;22</title>
<path fill="none" stroke="black" d="M457.5,-190.91C457.5,-182.65 457.5,-173.86 457.5,-165.3"/>
<polygon fill="black" stroke="black" points="461,-165.02 457.5,-155.02 454,-165.02 461,-165.02"/>
</g>
<!-- 4 -->
<g id="node5" class="node">
<title>4</title>
<polygon fill="#c0c0c0" stroke="black" points="137.5,-36 83.5,-36 83.5,0 137.5,0 137.5,-36"/>
<text text-anchor="middle" x="110.5" y="-14.3" font-family="Times,serif" font-size="14.00">(...)</text>
</g>
<!-- 3&#45;&gt;4 -->
<g id="edge4" class="edge">
<title>3&#45;&gt;4</title>
<path fill="none" stroke="black" d="M130.81,-71.76C127.46,-63.04 123.99,-54.04 120.89,-45.99"/>
<polygon fill="black" stroke="black" points="124.06,-44.48 117.2,-36.41 117.53,-46.99 124.06,-44.48"/>
</g>
<!-- 15 -->
<g id="node6" class="node">
<title>15</title>
<polygon fill="#c0c0c0" stroke="black" points="209.5,-36 155.5,-36 155.5,0 209.5,0 209.5,-36"/>
<text text-anchor="middle" x="182.5" y="-14.3" font-family="Times,serif" font-size="14.00">(...)</text>
</g>
<!-- 3&#45;&gt;15 -->
<g id="edge5" class="edge">
<title>3&#45;&gt;15</title>
<path fill="none" stroke="black" d="M162.19,-71.76C165.54,-63.04 169.01,-54.04 172.11,-45.99"/>
<polygon fill="black" stroke="black" points="175.47,-46.99 175.8,-36.41 168.94,-44.48 175.47,-46.99"/>
</g>
<!-- 23 -->
<g id="node8" class="node">
<title>23</title>
<polygon fill="#c0c0c0" stroke="black" points="448.5,-36 394.5,-36 394.5,0 448.5,0 448.5,-36"/>
<text text-anchor="middle" x="421.5" y="-14.3" font-family="Times,serif" font-size="14.00">(...)</text>
</g>
<!-- 22&#45;&gt;23 -->
<g id="edge7" class="edge">
<title>22&#45;&gt;23</title>
<path fill="none" stroke="black" d="M441.81,-71.76C438.46,-63.04 434.99,-54.04 431.89,-45.99"/>
<polygon fill="black" stroke="black" points="435.06,-44.48 428.2,-36.41 428.53,-46.99 435.06,-44.48"/>
</g>
<!-- 34 -->
<g id="node9" class="node">
<title>34</title>
<polygon fill="#c0c0c0" stroke="black" points="520.5,-36 466.5,-36 466.5,0 520.5,0 520.5,-36"/>
<text text-anchor="middle" x="493.5" y="-14.3" font-family="Times,serif" font-size="14.00">(...)</text>
</g>
<!-- 22&#45;&gt;34 -->
<g id="edge8" class="edge">
<title>22&#45;&gt;34</title>
<path fill="none" stroke="black" d="M473.19,-71.76C476.54,-63.04 480.01,-54.04 483.11,-45.99"/>
<polygon fill="black" stroke="black" points="486.47,-46.99 486.8,-36.41 479.94,-44.48 486.47,-46.99"/>
</g>
<!-- 42 -->
<g id="node11" class="node">
<title>42</title>
<polygon fill="#ffffff" stroke="black" points="861,-155 622,-155 622,-72 861,-72 861,-155"/>
<text text-anchor="middle" x="741.5" y="-139.8" font-family="Times,serif" font-size="14.00">graphSize &lt;= 40.0</text>
<text text-anchor="middle" x="741.5" y="-124.8" font-family="Times,serif" font-size="14.00">gini = 0.79</text>
<text text-anchor="middle" x="741.5" y="-109.8" font-family="Times,serif" font-size="14.00">samples = 176</text>
<text text-anchor="middle" x="741.5" y="-94.8" font-family="Times,serif" font-size="14.00">value = [24, 12, 50, 20, 20, 50]</text>
<text text-anchor="middle" x="741.5" y="-79.8" font-family="Times,serif" font-size="14.00">class = maxmax</text>
</g>
<!-- 41&#45;&gt;42 -->
<g id="edge10" class="edge">
<title>41&#45;&gt;42</title>
<path fill="none" stroke="black" d="M816.6,-190.91C807.5,-181.65 797.75,-171.73 788.39,-162.21"/>
<polygon fill="black" stroke="black" points="790.83,-159.7 781.33,-155.02 785.84,-164.61 790.83,-159.7"/>
</g>
<!-- 53 -->
<g id="node14" class="node">
<title>53</title>
<polygon fill="#ffffff" stroke="black" points="1136,-155 879,-155 879,-72 1136,-72 1136,-155"/>
<text text-anchor="middle" x="1007.5" y="-139.8" font-family="Times,serif" font-size="14.00">graphDepth &lt;= 13.5</text>
<text text-anchor="middle" x="1007.5" y="-124.8" font-family="Times,serif" font-size="14.00">gini = 0.81</text>
<text text-anchor="middle" x="1007.5" y="-109.8" font-family="Times,serif" font-size="14.00">samples = 430</text>
<text text-anchor="middle" x="1007.5" y="-94.8" font-family="Times,serif" font-size="14.00">value = [50, 68, 48, 108, 108, 48]</text>
<text text-anchor="middle" x="1007.5" y="-79.8" font-family="Times,serif" font-size="14.00">class = minmax</text>
</g>
<!-- 41&#45;&gt;53 -->
<g id="edge13" class="edge">
<title>41&#45;&gt;53</title>
<path fill="none" stroke="black" d="M908.89,-190.91C921.19,-181.38 934.39,-171.15 947.01,-161.37"/>
<polygon fill="black" stroke="black" points="949.44,-163.91 955.2,-155.02 945.16,-158.38 949.44,-163.91"/>
</g>
<!-- 43 -->
<g id="node12" class="node">
<title>43</title>
<polygon fill="#c0c0c0" stroke="black" points="732.5,-36 678.5,-36 678.5,0 732.5,0 732.5,-36"/>
<text text-anchor="middle" x="705.5" y="-14.3" font-family="Times,serif" font-size="14.00">(...)</text>
</g>
<!-- 42&#45;&gt;43 -->
<g id="edge11" class="edge">
<title>42&#45;&gt;43</title>
<path fill="none" stroke="black" d="M725.81,-71.76C722.46,-63.04 718.99,-54.04 715.89,-45.99"/>
<polygon fill="black" stroke="black" points="719.06,-44.48 712.2,-36.41 712.53,-46.99 719.06,-44.48"/>
</g>
<!-- 48 -->
<g id="node13" class="node">
<title>48</title>
<polygon fill="#c0c0c0" stroke="black" points="804.5,-36 750.5,-36 750.5,0 804.5,0 804.5,-36"/>
<text text-anchor="middle" x="777.5" y="-14.3" font-family="Times,serif" font-size="14.00">(...)</text>
</g>
<!-- 42&#45;&gt;48 -->
<g id="edge12" class="edge">
<title>42&#45;&gt;48</title>
<path fill="none" stroke="black" d="M757.19,-71.76C760.54,-63.04 764.01,-54.04 767.11,-45.99"/>
<polygon fill="black" stroke="black" points="770.47,-46.99 770.8,-36.41 763.94,-44.48 770.47,-46.99"/>
</g>
<!-- 54 -->
<g id="node15" class="node">
<title>54</title>
<polygon fill="#c0c0c0" stroke="black" points="998.5,-36 944.5,-36 944.5,0 998.5,0 998.5,-36"/>
<text text-anchor="middle" x="971.5" y="-14.3" font-family="Times,serif" font-size="14.00">(...)</text>
</g>
<!-- 53&#45;&gt;54 -->
<g id="edge14" class="edge">
<title>53&#45;&gt;54</title>
<path fill="none" stroke="black" d="M991.81,-71.76C988.46,-63.04 984.99,-54.04 981.89,-45.99"/>
<polygon fill="black" stroke="black" points="985.06,-44.48 978.2,-36.41 978.53,-46.99 985.06,-44.48"/>
</g>
<!-- 57 -->
<g id="node16" class="node">
<title>57</title>
<polygon fill="#c0c0c0" stroke="black" points="1070.5,-36 1016.5,-36 1016.5,0 1070.5,0 1070.5,-36"/>
<text text-anchor="middle" x="1043.5" y="-14.3" font-family="Times,serif" font-size="14.00">(...)</text>
</g>
<!-- 53&#45;&gt;57 -->
<g id="edge15" class="edge">
<title>53&#45;&gt;57</title>
<path fill="none" stroke="black" d="M1023.19,-71.76C1026.54,-63.04 1030.01,-54.04 1033.11,-45.99"/>
<polygon fill="black" stroke="black" points="1036.47,-46.99 1036.8,-36.41 1029.94,-44.48 1036.47,-46.99"/>
</g>
<!-- 65 -->
<g id="node18" class="node">
<title>65</title>
<polygon fill="#ffffff" stroke="black" points="1591,-274 1298,-274 1298,-191 1591,-191 1591,-274"/>
<text text-anchor="middle" x="1444.5" y="-258.8" font-family="Times,serif" font-size="14.00">sdComm &lt;= 0.065</text>
<text text-anchor="middle" x="1444.5" y="-243.8" font-family="Times,serif" font-size="14.00">gini = 0.83</text>
<text text-anchor="middle" x="1444.5" y="-228.8" font-family="Times,serif" font-size="14.00">samples = 1798</text>
<text text-anchor="middle" x="1444.5" y="-213.8" font-family="Times,serif" font-size="14.00">value = [302, 328, 244, 340, 340, 244]</text>
<text text-anchor="middle" x="1444.5" y="-198.8" font-family="Times,serif" font-size="14.00">class = minmax</text>
</g>
<!-- 64&#45;&gt;65 -->
<g id="edge17" class="edge">
<title>64&#45;&gt;65</title>
<path fill="none" stroke="black" d="M1444.5,-309.91C1444.5,-301.65 1444.5,-292.86 1444.5,-284.3"/>
<polygon fill="black" stroke="black" points="1448,-284.02 1444.5,-274.02 1441,-284.02 1448,-284.02"/>
</g>
<!-- 134 -->
<g id="node25" class="node">
<title>134</title>
<polygon fill="#ffffff" stroke="black" points="2101,-274 1754,-274 1754,-191 2101,-191 2101,-274"/>
<text text-anchor="middle" x="1927.5" y="-258.8" font-family="Times,serif" font-size="14.00">sdComp &lt;= 0.2</text>
<text text-anchor="middle" x="1927.5" y="-243.8" font-family="Times,serif" font-size="14.00">gini = 0.833</text>
<text text-anchor="middle" x="1927.5" y="-228.8" font-family="Times,serif" font-size="14.00">samples = 17226</text>
<text text-anchor="middle" x="1927.5" y="-213.8" font-family="Times,serif" font-size="14.00">value = [2856, 2746, 2858, 2954, 2954, 2858]</text>
<text text-anchor="middle" x="1927.5" y="-198.8" font-family="Times,serif" font-size="14.00">class = minmax</text>
</g>
<!-- 64&#45;&gt;134 -->
<g id="edge24" class="edge">
<title>64&#45;&gt;134</title>
<path fill="none" stroke="black" d="M1611.74,-309.99C1656.43,-299.16 1704.88,-287.43 1750.1,-276.47"/>
<polygon fill="black" stroke="black" points="1751.1,-279.83 1760,-274.07 1749.46,-273.03 1751.1,-279.83"/>
</g>
<!-- 66 -->
<g id="node19" class="node">
<title>66</title>
<polygon fill="#ffffff" stroke="black" points="1447,-155 1154,-155 1154,-72 1447,-72 1447,-155"/>
<text text-anchor="middle" x="1300.5" y="-139.8" font-family="Times,serif" font-size="14.00">graphDepth &lt;= 6.5</text>
<text text-anchor="middle" x="1300.5" y="-124.8" font-family="Times,serif" font-size="14.00">gini = 0.828</text>
<text text-anchor="middle" x="1300.5" y="-109.8" font-family="Times,serif" font-size="14.00">samples = 1066</text>
<text text-anchor="middle" x="1300.5" y="-94.8" font-family="Times,serif" font-size="14.00">value = [150, 160, 154, 224, 224, 154]</text>
<text text-anchor="middle" x="1300.5" y="-79.8" font-family="Times,serif" font-size="14.00">class = minmax</text>
</g>
<!-- 65&#45;&gt;66 -->
<g id="edge18" class="edge">
<title>65&#45;&gt;66</title>
<path fill="none" stroke="black" d="M1394.54,-190.91C1382.81,-181.38 1370.22,-171.15 1358.19,-161.37"/>
<polygon fill="black" stroke="black" points="1360.34,-158.61 1350.37,-155.02 1355.93,-164.04 1360.34,-158.61"/>
</g>
<!-- 103 -->
<g id="node22" class="node">
<title>103</title>
<polygon fill="#fcfefa" stroke="black" points="1740,-155 1465,-155 1465,-72 1740,-72 1740,-155"/>
<text text-anchor="middle" x="1602.5" y="-139.8" font-family="Times,serif" font-size="14.00">graphSize &lt;= 75.0</text>
<text text-anchor="middle" x="1602.5" y="-124.8" font-family="Times,serif" font-size="14.00">gini = 0.824</text>
<text text-anchor="middle" x="1602.5" y="-109.8" font-family="Times,serif" font-size="14.00">samples = 732</text>
<text text-anchor="middle" x="1602.5" y="-94.8" font-family="Times,serif" font-size="14.00">value = [152, 168, 90, 116, 116, 90]</text>
<text text-anchor="middle" x="1602.5" y="-79.8" font-family="Times,serif" font-size="14.00">class = median</text>
</g>
<!-- 65&#45;&gt;103 -->
<g id="edge21" class="edge">
<title>65&#45;&gt;103</title>
<path fill="none" stroke="black" d="M1499.32,-190.91C1512.31,-181.29 1526.26,-170.95 1539.58,-161.09"/>
<polygon fill="black" stroke="black" points="1541.83,-163.78 1547.78,-155.02 1537.66,-158.16 1541.83,-163.78"/>
</g>
<!-- 67 -->
<g id="node20" class="node">
<title>67</title>
<polygon fill="#c0c0c0" stroke="black" points="1291.5,-36 1237.5,-36 1237.5,0 1291.5,0 1291.5,-36"/>
<text text-anchor="middle" x="1264.5" y="-14.3" font-family="Times,serif" font-size="14.00">(...)</text>
</g>
<!-- 66&#45;&gt;67 -->
<g id="edge19" class="edge">
<title>66&#45;&gt;67</title>
<path fill="none" stroke="black" d="M1284.81,-71.76C1281.46,-63.04 1277.99,-54.04 1274.89,-45.99"/>
<polygon fill="black" stroke="black" points="1278.06,-44.48 1271.2,-36.41 1271.53,-46.99 1278.06,-44.48"/>
</g>
<!-- 86 -->
<g id="node21" class="node">
<title>86</title>
<polygon fill="#c0c0c0" stroke="black" points="1363.5,-36 1309.5,-36 1309.5,0 1363.5,0 1363.5,-36"/>
<text text-anchor="middle" x="1336.5" y="-14.3" font-family="Times,serif" font-size="14.00">(...)</text>
</g>
<!-- 66&#45;&gt;86 -->
<g id="edge20" class="edge">
<title>66&#45;&gt;86</title>
<path fill="none" stroke="black" d="M1316.19,-71.76C1319.54,-63.04 1323.01,-54.04 1326.11,-45.99"/>
<polygon fill="black" stroke="black" points="1329.47,-46.99 1329.8,-36.41 1322.94,-44.48 1329.47,-46.99"/>
</g>
<!-- 104 -->
<g id="node23" class="node">
<title>104</title>
<polygon fill="#c0c0c0" stroke="black" points="1593.5,-36 1539.5,-36 1539.5,0 1593.5,0 1593.5,-36"/>
<text text-anchor="middle" x="1566.5" y="-14.3" font-family="Times,serif" font-size="14.00">(...)</text>
</g>
<!-- 103&#45;&gt;104 -->
<g id="edge22" class="edge">
<title>103&#45;&gt;104</title>
<path fill="none" stroke="black" d="M1586.81,-71.76C1583.46,-63.04 1579.99,-54.04 1576.89,-45.99"/>
<polygon fill="black" stroke="black" points="1580.06,-44.48 1573.2,-36.41 1573.53,-46.99 1580.06,-44.48"/>
</g>
<!-- 131 -->
<g id="node24" class="node">
<title>131</title>
<polygon fill="#c0c0c0" stroke="black" points="1665.5,-36 1611.5,-36 1611.5,0 1665.5,0 1665.5,-36"/>
<text text-anchor="middle" x="1638.5" y="-14.3" font-family="Times,serif" font-size="14.00">(...)</text>
</g>
<!-- 103&#45;&gt;131 -->
<g id="edge23" class="edge">
<title>103&#45;&gt;131</title>
<path fill="none" stroke="black" d="M1618.19,-71.76C1621.54,-63.04 1625.01,-54.04 1628.11,-45.99"/>
<polygon fill="black" stroke="black" points="1631.47,-46.99 1631.8,-36.41 1624.94,-44.48 1631.47,-46.99"/>
</g>
<!-- 135 -->
<g id="node26" class="node">
<title>135</title>
<polygon fill="#ffffff" stroke="black" points="2096.5,-155 1758.5,-155 1758.5,-72 2096.5,-72 2096.5,-155"/>
<text text-anchor="middle" x="1927.5" y="-139.8" font-family="Times,serif" font-size="14.00">graphDepth &lt;= 13.5</text>
<text text-anchor="middle" x="1927.5" y="-124.8" font-family="Times,serif" font-size="14.00">gini = 0.833</text>
<text text-anchor="middle" x="1927.5" y="-109.8" font-family="Times,serif" font-size="14.00">samples = 6306</text>
<text text-anchor="middle" x="1927.5" y="-94.8" font-family="Times,serif" font-size="14.00">value = [1046, 936, 1028, 1134, 1134, 1028]</text>
<text text-anchor="middle" x="1927.5" y="-79.8" font-family="Times,serif" font-size="14.00">class = minmax</text>
</g>
<!-- 134&#45;&gt;135 -->
<g id="edge25" class="edge">
<title>134&#45;&gt;135</title>
<path fill="none" stroke="black" d="M1927.5,-190.91C1927.5,-182.65 1927.5,-173.86 1927.5,-165.3"/>
<polygon fill="black" stroke="black" points="1931,-165.02 1927.5,-155.02 1924,-165.02 1931,-165.02"/>
</g>
<!-- 254 -->
<g id="node29" class="node">
<title>254</title>
<polygon fill="#ffffff" stroke="black" points="2461,-155 2114,-155 2114,-72 2461,-72 2461,-155"/>
<text text-anchor="middle" x="2287.5" y="-139.8" font-family="Times,serif" font-size="14.00">sdComm &lt;= 0.65</text>
<text text-anchor="middle" x="2287.5" y="-124.8" font-family="Times,serif" font-size="14.00">gini = 0.833</text>
<text text-anchor="middle" x="2287.5" y="-109.8" font-family="Times,serif" font-size="14.00">samples = 10920</text>
<text text-anchor="middle" x="2287.5" y="-94.8" font-family="Times,serif" font-size="14.00">value = [1810, 1810, 1830, 1820, 1820, 1830]</text>
<text text-anchor="middle" x="2287.5" y="-79.8" font-family="Times,serif" font-size="14.00">class = maxmax</text>
</g>
<!-- 134&#45;&gt;254 -->
<g id="edge28" class="edge">
<title>134&#45;&gt;254</title>
<path fill="none" stroke="black" d="M2052.15,-190.99C2084.69,-180.41 2119.91,-168.97 2152.94,-158.23"/>
<polygon fill="black" stroke="black" points="2154.23,-161.49 2162.66,-155.07 2152.06,-154.84 2154.23,-161.49"/>
</g>
<!-- 136 -->
<g id="node27" class="node">
<title>136</title>
<polygon fill="#c0c0c0" stroke="black" points="1918.5,-36 1864.5,-36 1864.5,0 1918.5,0 1918.5,-36"/>
<text text-anchor="middle" x="1891.5" y="-14.3" font-family="Times,serif" font-size="14.00">(...)</text>
</g>
<!-- 135&#45;&gt;136 -->
<g id="edge26" class="edge">
<title>135&#45;&gt;136</title>
<path fill="none" stroke="black" d="M1911.81,-71.76C1908.46,-63.04 1904.99,-54.04 1901.89,-45.99"/>
<polygon fill="black" stroke="black" points="1905.06,-44.48 1898.2,-36.41 1898.53,-46.99 1905.06,-44.48"/>
</g>
<!-- 223 -->
<g id="node28" class="node">
<title>223</title>
<polygon fill="#c0c0c0" stroke="black" points="1990.5,-36 1936.5,-36 1936.5,0 1990.5,0 1990.5,-36"/>
<text text-anchor="middle" x="1963.5" y="-14.3" font-family="Times,serif" font-size="14.00">(...)</text>
</g>
<!-- 135&#45;&gt;223 -->
<g id="edge27" class="edge">
<title>135&#45;&gt;223</title>
<path fill="none" stroke="black" d="M1943.19,-71.76C1946.54,-63.04 1950.01,-54.04 1953.11,-45.99"/>
<polygon fill="black" stroke="black" points="1956.47,-46.99 1956.8,-36.41 1949.94,-44.48 1956.47,-46.99"/>
</g>
<!-- 255 -->
<g id="node30" class="node">
<title>255</title>
<polygon fill="#c0c0c0" stroke="black" points="2278.5,-36 2224.5,-36 2224.5,0 2278.5,0 2278.5,-36"/>
<text text-anchor="middle" x="2251.5" y="-14.3" font-family="Times,serif" font-size="14.00">(...)</text>
</g>
<!-- 254&#45;&gt;255 -->
<g id="edge29" class="edge">
<title>254&#45;&gt;255</title>
<path fill="none" stroke="black" d="M2271.81,-71.76C2268.46,-63.04 2264.99,-54.04 2261.89,-45.99"/>
<polygon fill="black" stroke="black" points="2265.06,-44.48 2258.2,-36.41 2258.53,-46.99 2265.06,-44.48"/>
</g>
<!-- 332 -->
<g id="node31" class="node">
<title>332</title>
<polygon fill="#c0c0c0" stroke="black" points="2350.5,-36 2296.5,-36 2296.5,0 2350.5,0 2350.5,-36"/>
<text text-anchor="middle" x="2323.5" y="-14.3" font-family="Times,serif" font-size="14.00">(...)</text>
</g>
<!-- 254&#45;&gt;332 -->
<g id="edge30" class="edge">
<title>254&#45;&gt;332</title>
<path fill="none" stroke="black" d="M2303.19,-71.76C2306.54,-63.04 2310.01,-54.04 2313.11,-45.99"/>
<polygon fill="black" stroke="black" points="2316.47,-46.99 2316.8,-36.41 2309.94,-44.48 2316.47,-46.99"/>
</g>
</g>
</svg>
