<?xml version="1.0" encoding="UTF-8" standalone="no"?>
<!DOCTYPE svg PUBLIC "-//W3C//DTD SVG 1.1//EN"
 "http://www.w3.org/Graphics/SVG/1.1/DTD/svg11.dtd">
<!-- Generated by graphviz version 2.43.0 (0)
 -->
<!-- Title: Tree Pages: 1 -->
<svg width="1388pt" height="520pt"
 viewBox="0.00 0.00 1388.00 520.00" xmlns="http://www.w3.org/2000/svg" xmlns:xlink="http://www.w3.org/1999/xlink">
<g id="graph0" class="graph" transform="scale(1 1) rotate(0) translate(4 516)">
<title>Tree</title>
<polygon fill="white" stroke="transparent" points="-4,4 -4,-516 1384,-516 1384,4 -4,4"/>
<!-- 0 -->
<g id="node1" class="node">
<title>0</title>
<polygon fill="#e1f0fb" stroke="black" points="786,-512 601,-512 601,-429 786,-429 786,-512"/>
<text text-anchor="middle" x="693.5" y="-496.8" font-family="Times,serif" font-size="14.00">CCR &lt;= 5.5</text>
<text text-anchor="middle" x="693.5" y="-481.8" font-family="Times,serif" font-size="14.00">gini = 0.497</text>
<text text-anchor="middle" x="693.5" y="-466.8" font-family="Times,serif" font-size="14.00">samples = 22504</text>
<text text-anchor="middle" x="693.5" y="-451.8" font-family="Times,serif" font-size="14.00">value = [10340, 12164]</text>
<text text-anchor="middle" x="693.5" y="-436.8" font-family="Times,serif" font-size="14.00">class = True</text>
</g>
<!-- 1 -->
<g id="node2" class="node">
<title>1</title>
<polygon fill="#cee7f9" stroke="black" points="611,-393 444,-393 444,-310 611,-310 611,-393"/>
<text text-anchor="middle" x="527.5" y="-377.8" font-family="Times,serif" font-size="14.00">sdComm &lt;= 0.2</text>
<text text-anchor="middle" x="527.5" y="-362.8" font-family="Times,serif" font-size="14.00">gini = 0.49</text>
<text text-anchor="middle" x="527.5" y="-347.8" font-family="Times,serif" font-size="14.00">samples = 14766</text>
<text text-anchor="middle" x="527.5" y="-332.8" font-family="Times,serif" font-size="14.00">value = [6350, 8416]</text>
<text text-anchor="middle" x="527.5" y="-317.8" font-family="Times,serif" font-size="14.00">class = True</text>
</g>
<!-- 0&#45;&gt;1 -->
<g id="edge1" class="edge">
<title>0&#45;&gt;1</title>
<path fill="none" stroke="black" d="M635.91,-428.91C622.13,-419.2 607.32,-408.76 593.21,-398.81"/>
<polygon fill="black" stroke="black" points="595.18,-395.92 584.99,-393.02 591.15,-401.64 595.18,-395.92"/>
<text text-anchor="middle" x="589.26" y="-413.95" font-family="Times,serif" font-size="14.00">True</text>
</g>
<!-- 362 -->
<g id="node17" class="node">
<title>362</title>
<polygon fill="#fdf7f3" stroke="black" points="949,-393 782,-393 782,-310 949,-310 949,-393"/>
<text text-anchor="middle" x="865.5" y="-377.8" font-family="Times,serif" font-size="14.00">graphDepth &lt;= 3.5</text>
<text text-anchor="middle" x="865.5" y="-362.8" font-family="Times,serif" font-size="14.00">gini = 0.5</text>
<text text-anchor="middle" x="865.5" y="-347.8" font-family="Times,serif" font-size="14.00">samples = 7738</text>
<text text-anchor="middle" x="865.5" y="-332.8" font-family="Times,serif" font-size="14.00">value = [3990, 3748]</text>
<text text-anchor="middle" x="865.5" y="-317.8" font-family="Times,serif" font-size="14.00">class = False</text>
</g>
<!-- 0&#45;&gt;362 -->
<g id="edge16" class="edge">
<title>0&#45;&gt;362</title>
<path fill="none" stroke="black" d="M753.17,-428.91C767.45,-419.2 782.8,-408.76 797.42,-398.81"/>
<polygon fill="black" stroke="black" points="799.63,-401.54 805.93,-393.02 795.69,-395.75 799.63,-401.54"/>
<text text-anchor="middle" x="801.26" y="-413.88" font-family="Times,serif" font-size="14.00">False</text>
</g>
<!-- 2 -->
<g id="node3" class="node">
<title>2</title>
<polygon fill="#d7ebfa" stroke="black" points="352,-274 185,-274 185,-191 352,-191 352,-274"/>
<text text-anchor="middle" x="268.5" y="-258.8" font-family="Times,serif" font-size="14.00">sdComp &lt;= 0.2</text>
<text text-anchor="middle" x="268.5" y="-243.8" font-family="Times,serif" font-size="14.00">gini = 0.494</text>
<text text-anchor="middle" x="268.5" y="-228.8" font-family="Times,serif" font-size="14.00">samples = 11254</text>
<text text-anchor="middle" x="268.5" y="-213.8" font-family="Times,serif" font-size="14.00">value = [4996, 6258]</text>
<text text-anchor="middle" x="268.5" y="-198.8" font-family="Times,serif" font-size="14.00">class = True</text>
</g>
<!-- 1&#45;&gt;2 -->
<g id="edge2" class="edge">
<title>1&#45;&gt;2</title>
<path fill="none" stroke="black" d="M443.77,-312.68C417.59,-300.85 388.55,-287.73 361.76,-275.63"/>
<polygon fill="black" stroke="black" points="362.94,-272.32 352.39,-271.4 360.06,-278.7 362.94,-272.32"/>
</g>
<!-- 237 -->
<g id="node10" class="node">
<title>237</title>
<polygon fill="#b5daf5" stroke="black" points="611,-274 444,-274 444,-191 611,-191 611,-274"/>
<text text-anchor="middle" x="527.5" y="-258.8" font-family="Times,serif" font-size="14.00">sdComp &lt;= 0.65</text>
<text text-anchor="middle" x="527.5" y="-243.8" font-family="Times,serif" font-size="14.00">gini = 0.474</text>
<text text-anchor="middle" x="527.5" y="-228.8" font-family="Times,serif" font-size="14.00">samples = 3512</text>
<text text-anchor="middle" x="527.5" y="-213.8" font-family="Times,serif" font-size="14.00">value = [1354, 2158]</text>
<text text-anchor="middle" x="527.5" y="-198.8" font-family="Times,serif" font-size="14.00">class = True</text>
</g>
<!-- 1&#45;&gt;237 -->
<g id="edge9" class="edge">
<title>1&#45;&gt;237</title>
<path fill="none" stroke="black" d="M527.5,-309.91C527.5,-301.65 527.5,-292.86 527.5,-284.3"/>
<polygon fill="black" stroke="black" points="531,-284.02 527.5,-274.02 524,-284.02 531,-284.02"/>
</g>
<!-- 3 -->
<g id="node4" class="node">
<title>3</title>
<polygon fill="#daedfa" stroke="black" points="167,-155 0,-155 0,-72 167,-72 167,-155"/>
<text text-anchor="middle" x="83.5" y="-139.8" font-family="Times,serif" font-size="14.00">CCR &lt;= 0.55</text>
<text text-anchor="middle" x="83.5" y="-124.8" font-family="Times,serif" font-size="14.00">gini = 0.495</text>
<text text-anchor="middle" x="83.5" y="-109.8" font-family="Times,serif" font-size="14.00">samples = 10392</text>
<text text-anchor="middle" x="83.5" y="-94.8" font-family="Times,serif" font-size="14.00">value = [4668, 5724]</text>
<text text-anchor="middle" x="83.5" y="-79.8" font-family="Times,serif" font-size="14.00">class = True</text>
</g>
<!-- 2&#45;&gt;3 -->
<g id="edge3" class="edge">
<title>2&#45;&gt;3</title>
<path fill="none" stroke="black" d="M204.32,-190.91C188.82,-181.11 172.15,-170.56 156.29,-160.53"/>
<polygon fill="black" stroke="black" points="157.89,-157.41 147.57,-155.02 154.15,-163.32 157.89,-157.41"/>
</g>
<!-- 200 -->
<g id="node7" class="node">
<title>200</title>
<polygon fill="#b3d9f5" stroke="black" points="352,-155 185,-155 185,-72 352,-72 352,-155"/>
<text text-anchor="middle" x="268.5" y="-139.8" font-family="Times,serif" font-size="14.00">graphDepth &lt;= 13.5</text>
<text text-anchor="middle" x="268.5" y="-124.8" font-family="Times,serif" font-size="14.00">gini = 0.471</text>
<text text-anchor="middle" x="268.5" y="-109.8" font-family="Times,serif" font-size="14.00">samples = 862</text>
<text text-anchor="middle" x="268.5" y="-94.8" font-family="Times,serif" font-size="14.00">value = [328, 534]</text>
<text text-anchor="middle" x="268.5" y="-79.8" font-family="Times,serif" font-size="14.00">class = True</text>
</g>
<!-- 2&#45;&gt;200 -->
<g id="edge6" class="edge">
<title>2&#45;&gt;200</title>
<path fill="none" stroke="black" d="M268.5,-190.91C268.5,-182.65 268.5,-173.86 268.5,-165.3"/>
<polygon fill="black" stroke="black" points="272,-165.02 268.5,-155.02 265,-165.02 272,-165.02"/>
</g>
<!-- 4 -->
<g id="node5" class="node">
<title>4</title>
<polygon fill="#c0c0c0" stroke="black" points="74.5,-36 20.5,-36 20.5,0 74.5,0 74.5,-36"/>
<text text-anchor="middle" x="47.5" y="-14.3" font-family="Times,serif" font-size="14.00">(...)</text>
</g>
<!-- 3&#45;&gt;4 -->
<g id="edge4" class="edge">
<title>3&#45;&gt;4</title>
<path fill="none" stroke="black" d="M67.81,-71.76C64.46,-63.04 60.99,-54.04 57.89,-45.99"/>
<polygon fill="black" stroke="black" points="61.06,-44.48 54.2,-36.41 54.53,-46.99 61.06,-44.48"/>
</g>
<!-- 185 -->
<g id="node6" class="node">
<title>185</title>
<polygon fill="#c0c0c0" stroke="black" points="146.5,-36 92.5,-36 92.5,0 146.5,0 146.5,-36"/>
<text text-anchor="middle" x="119.5" y="-14.3" font-family="Times,serif" font-size="14.00">(...)</text>
</g>
<!-- 3&#45;&gt;185 -->
<g id="edge5" class="edge">
<title>3&#45;&gt;185</title>
<path fill="none" stroke="black" d="M99.19,-71.76C102.54,-63.04 106.01,-54.04 109.11,-45.99"/>
<polygon fill="black" stroke="black" points="112.47,-46.99 112.8,-36.41 105.94,-44.48 112.47,-46.99"/>
</g>
<!-- 201 -->
<g id="node8" class="node">
<title>201</title>
<polygon fill="#c0c0c0" stroke="black" points="254.5,-36 200.5,-36 200.5,0 254.5,0 254.5,-36"/>
<text text-anchor="middle" x="227.5" y="-14.3" font-family="Times,serif" font-size="14.00">(...)</text>
</g>
<!-- 200&#45;&gt;201 -->
<g id="edge7" class="edge">
<title>200&#45;&gt;201</title>
<path fill="none" stroke="black" d="M250.64,-71.76C246.77,-62.94 242.78,-53.84 239.22,-45.72"/>
<polygon fill="black" stroke="black" points="242.35,-44.16 235.13,-36.41 235.94,-46.97 242.35,-44.16"/>
</g>
<!-- 234 -->
<g id="node9" class="node">
<title>234</title>
<polygon fill="#c0c0c0" stroke="black" points="326.5,-36 272.5,-36 272.5,0 326.5,0 326.5,-36"/>
<text text-anchor="middle" x="299.5" y="-14.3" font-family="Times,serif" font-size="14.00">(...)</text>
</g>
<!-- 200&#45;&gt;234 -->
<g id="edge8" class="edge">
<title>200&#45;&gt;234</title>
<path fill="none" stroke="black" d="M282.01,-71.76C284.9,-63.04 287.88,-54.04 290.55,-45.99"/>
<polygon fill="black" stroke="black" points="293.9,-47 293.73,-36.41 287.26,-44.8 293.9,-47"/>
</g>
<!-- 238 -->
<g id="node11" class="node">
<title>238</title>
<polygon fill="#9fd0f2" stroke="black" points="527.5,-155 369.5,-155 369.5,-72 527.5,-72 527.5,-155"/>
<text text-anchor="middle" x="448.5" y="-139.8" font-family="Times,serif" font-size="14.00">graphSize &lt;= 75.0</text>
<text text-anchor="middle" x="448.5" y="-124.8" font-family="Times,serif" font-size="14.00">gini = 0.449</text>
<text text-anchor="middle" x="448.5" y="-109.8" font-family="Times,serif" font-size="14.00">samples = 2012</text>
<text text-anchor="middle" x="448.5" y="-94.8" font-family="Times,serif" font-size="14.00">value = [686, 1326]</text>
<text text-anchor="middle" x="448.5" y="-79.8" font-family="Times,serif" font-size="14.00">class = True</text>
</g>
<!-- 237&#45;&gt;238 -->
<g id="edge10" class="edge">
<title>237&#45;&gt;238</title>
<path fill="none" stroke="black" d="M500.09,-190.91C494.09,-182.01 487.67,-172.51 481.47,-163.33"/>
<polygon fill="black" stroke="black" points="484.36,-161.35 475.86,-155.02 478.56,-165.27 484.36,-161.35"/>
</g>
<!-- 317 -->
<g id="node14" class="node">
<title>317</title>
<polygon fill="#d8ecfa" stroke="black" points="694,-155 545,-155 545,-72 694,-72 694,-155"/>
<text text-anchor="middle" x="619.5" y="-139.8" font-family="Times,serif" font-size="14.00">nbproc &lt;= 4.5</text>
<text text-anchor="middle" x="619.5" y="-124.8" font-family="Times,serif" font-size="14.00">gini = 0.494</text>
<text text-anchor="middle" x="619.5" y="-109.8" font-family="Times,serif" font-size="14.00">samples = 1500</text>
<text text-anchor="middle" x="619.5" y="-94.8" font-family="Times,serif" font-size="14.00">value = [668, 832]</text>
<text text-anchor="middle" x="619.5" y="-79.8" font-family="Times,serif" font-size="14.00">class = True</text>
</g>
<!-- 237&#45;&gt;317 -->
<g id="edge13" class="edge">
<title>237&#45;&gt;317</title>
<path fill="none" stroke="black" d="M559.42,-190.91C566.48,-181.92 574.04,-172.32 581.32,-163.05"/>
<polygon fill="black" stroke="black" points="584.21,-165.05 587.64,-155.02 578.7,-160.72 584.21,-165.05"/>
</g>
<!-- 239 -->
<g id="node12" class="node">
<title>239</title>
<polygon fill="#c0c0c0" stroke="black" points="416.5,-36 362.5,-36 362.5,0 416.5,0 416.5,-36"/>
<text text-anchor="middle" x="389.5" y="-14.3" font-family="Times,serif" font-size="14.00">(...)</text>
</g>
<!-- 238&#45;&gt;239 -->
<g id="edge11" class="edge">
<title>238&#45;&gt;239</title>
<path fill="none" stroke="black" d="M422.79,-71.76C417.05,-62.65 411.1,-53.24 405.86,-44.92"/>
<polygon fill="black" stroke="black" points="408.78,-42.99 400.48,-36.41 402.86,-46.73 408.78,-42.99"/>
</g>
<!-- 308 -->
<g id="node13" class="node">
<title>308</title>
<polygon fill="#c0c0c0" stroke="black" points="488.5,-36 434.5,-36 434.5,0 488.5,0 488.5,-36"/>
<text text-anchor="middle" x="461.5" y="-14.3" font-family="Times,serif" font-size="14.00">(...)</text>
</g>
<!-- 238&#45;&gt;308 -->
<g id="edge12" class="edge">
<title>238&#45;&gt;308</title>
<path fill="none" stroke="black" d="M454.16,-71.76C455.35,-63.24 456.57,-54.44 457.67,-46.53"/>
<polygon fill="black" stroke="black" points="461.17,-46.79 459.08,-36.41 454.24,-45.83 461.17,-46.79"/>
</g>
<!-- 318 -->
<g id="node15" class="node">
<title>318</title>
<polygon fill="#c0c0c0" stroke="black" points="585.5,-36 531.5,-36 531.5,0 585.5,0 585.5,-36"/>
<text text-anchor="middle" x="558.5" y="-14.3" font-family="Times,serif" font-size="14.00">(...)</text>
</g>
<!-- 317&#45;&gt;318 -->
<g id="edge14" class="edge">
<title>317&#45;&gt;318</title>
<path fill="none" stroke="black" d="M592.92,-71.76C586.98,-62.65 580.84,-53.24 575.41,-44.92"/>
<polygon fill="black" stroke="black" points="578.25,-42.87 569.86,-36.41 572.39,-46.69 578.25,-42.87"/>
</g>
<!-- 339 -->
<g id="node16" class="node">
<title>339</title>
<polygon fill="#c0c0c0" stroke="black" points="657.5,-36 603.5,-36 603.5,0 657.5,0 657.5,-36"/>
<text text-anchor="middle" x="630.5" y="-14.3" font-family="Times,serif" font-size="14.00">(...)</text>
</g>
<!-- 317&#45;&gt;339 -->
<g id="edge15" class="edge">
<title>317&#45;&gt;339</title>
<path fill="none" stroke="black" d="M624.29,-71.76C625.3,-63.24 626.33,-54.44 627.26,-46.53"/>
<polygon fill="black" stroke="black" points="630.76,-46.75 628.45,-36.41 623.81,-45.93 630.76,-46.75"/>
</g>
<!-- 363 -->
<g id="node18" class="node">
<title>363</title>
<polygon fill="#e9f4fc" stroke="black" points="940,-274 791,-274 791,-191 940,-191 940,-274"/>
<text text-anchor="middle" x="865.5" y="-258.8" font-family="Times,serif" font-size="14.00">sdComp &lt;= 6.5</text>
<text text-anchor="middle" x="865.5" y="-243.8" font-family="Times,serif" font-size="14.00">gini = 0.498</text>
<text text-anchor="middle" x="865.5" y="-228.8" font-family="Times,serif" font-size="14.00">samples = 710</text>
<text text-anchor="middle" x="865.5" y="-213.8" font-family="Times,serif" font-size="14.00">value = [334, 376]</text>
<text text-anchor="middle" x="865.5" y="-198.8" font-family="Times,serif" font-size="14.00">class = True</text>
</g>
<!-- 362&#45;&gt;363 -->
<g id="edge17" class="edge">
<title>362&#45;&gt;363</title>
<path fill="none" stroke="black" d="M865.5,-309.91C865.5,-301.65 865.5,-292.86 865.5,-284.3"/>
<polygon fill="black" stroke="black" points="869,-284.02 865.5,-274.02 862,-284.02 869,-284.02"/>
</g>
<!-- 390 -->
<g id="node25" class="node">
<title>390</title>
<polygon fill="#fdf5f0" stroke="black" points="1204,-274 1037,-274 1037,-191 1204,-191 1204,-274"/>
<text text-anchor="middle" x="1120.5" y="-258.8" font-family="Times,serif" font-size="14.00">graphSize &lt;= 22.5</text>
<text text-anchor="middle" x="1120.5" y="-243.8" font-family="Times,serif" font-size="14.00">gini = 0.499</text>
<text text-anchor="middle" x="1120.5" y="-228.8" font-family="Times,serif" font-size="14.00">samples = 7028</text>
<text text-anchor="middle" x="1120.5" y="-213.8" font-family="Times,serif" font-size="14.00">value = [3656, 3372]</text>
<text text-anchor="middle" x="1120.5" y="-198.8" font-family="Times,serif" font-size="14.00">class = False</text>
</g>
<!-- 362&#45;&gt;390 -->
<g id="edge24" class="edge">
<title>362&#45;&gt;390</title>
<path fill="none" stroke="black" d="M949.35,-312.03C974.3,-300.58 1001.79,-287.97 1027.3,-276.26"/>
<polygon fill="black" stroke="black" points="1028.97,-279.35 1036.6,-272 1026.05,-272.98 1028.97,-279.35"/>
</g>
<!-- 364 -->
<g id="node19" class="node">
<title>364</title>
<polygon fill="#eff7fd" stroke="black" points="861,-155 712,-155 712,-72 861,-72 861,-155"/>
<text text-anchor="middle" x="786.5" y="-139.8" font-family="Times,serif" font-size="14.00">sdComp &lt;= 2.0</text>
<text text-anchor="middle" x="786.5" y="-124.8" font-family="Times,serif" font-size="14.00">gini = 0.499</text>
<text text-anchor="middle" x="786.5" y="-109.8" font-family="Times,serif" font-size="14.00">samples = 476</text>
<text text-anchor="middle" x="786.5" y="-94.8" font-family="Times,serif" font-size="14.00">value = [228, 248]</text>
<text text-anchor="middle" x="786.5" y="-79.8" font-family="Times,serif" font-size="14.00">class = True</text>
</g>
<!-- 363&#45;&gt;364 -->
<g id="edge18" class="edge">
<title>363&#45;&gt;364</title>
<path fill="none" stroke="black" d="M838.09,-190.91C832.09,-182.01 825.67,-172.51 819.47,-163.33"/>
<polygon fill="black" stroke="black" points="822.36,-161.35 813.86,-155.02 816.56,-165.27 822.36,-161.35"/>
</g>
<!-- 381 -->
<g id="node22" class="node">
<title>381</title>
<polygon fill="#ddeefb" stroke="black" points="1028,-155 879,-155 879,-72 1028,-72 1028,-155"/>
<text text-anchor="middle" x="953.5" y="-139.8" font-family="Times,serif" font-size="14.00">sdComm &lt;= 6.5</text>
<text text-anchor="middle" x="953.5" y="-124.8" font-family="Times,serif" font-size="14.00">gini = 0.496</text>
<text text-anchor="middle" x="953.5" y="-109.8" font-family="Times,serif" font-size="14.00">samples = 234</text>
<text text-anchor="middle" x="953.5" y="-94.8" font-family="Times,serif" font-size="14.00">value = [106, 128]</text>
<text text-anchor="middle" x="953.5" y="-79.8" font-family="Times,serif" font-size="14.00">class = True</text>
</g>
<!-- 363&#45;&gt;381 -->
<g id="edge21" class="edge">
<title>363&#45;&gt;381</title>
<path fill="none" stroke="black" d="M896.03,-190.91C902.79,-181.92 910.02,-172.32 916.98,-163.05"/>
<polygon fill="black" stroke="black" points="919.81,-165.12 923.02,-155.02 914.21,-160.91 919.81,-165.12"/>
</g>
<!-- 365 -->
<g id="node20" class="node">
<title>365</title>
<polygon fill="#c0c0c0" stroke="black" points="752.5,-36 698.5,-36 698.5,0 752.5,0 752.5,-36"/>
<text text-anchor="middle" x="725.5" y="-14.3" font-family="Times,serif" font-size="14.00">(...)</text>
</g>
<!-- 364&#45;&gt;365 -->
<g id="edge19" class="edge">
<title>364&#45;&gt;365</title>
<path fill="none" stroke="black" d="M759.92,-71.76C753.98,-62.65 747.84,-53.24 742.41,-44.92"/>
<polygon fill="black" stroke="black" points="745.25,-42.87 736.86,-36.41 739.39,-46.69 745.25,-42.87"/>
</g>
<!-- 376 -->
<g id="node21" class="node">
<title>376</title>
<polygon fill="#c0c0c0" stroke="black" points="824.5,-36 770.5,-36 770.5,0 824.5,0 824.5,-36"/>
<text text-anchor="middle" x="797.5" y="-14.3" font-family="Times,serif" font-size="14.00">(...)</text>
</g>
<!-- 364&#45;&gt;376 -->
<g id="edge20" class="edge">
<title>364&#45;&gt;376</title>
<path fill="none" stroke="black" d="M791.29,-71.76C792.3,-63.24 793.33,-54.44 794.26,-46.53"/>
<polygon fill="black" stroke="black" points="797.76,-46.75 795.45,-36.41 790.81,-45.93 797.76,-46.75"/>
</g>
<!-- 382 -->
<g id="node23" class="node">
<title>382</title>
<polygon fill="#c0c0c0" stroke="black" points="919.5,-36 865.5,-36 865.5,0 919.5,0 919.5,-36"/>
<text text-anchor="middle" x="892.5" y="-14.3" font-family="Times,serif" font-size="14.00">(...)</text>
</g>
<!-- 381&#45;&gt;382 -->
<g id="edge22" class="edge">
<title>381&#45;&gt;382</title>
<path fill="none" stroke="black" d="M926.92,-71.76C920.98,-62.65 914.84,-53.24 909.41,-44.92"/>
<polygon fill="black" stroke="black" points="912.25,-42.87 903.86,-36.41 906.39,-46.69 912.25,-42.87"/>
</g>
<!-- 387 -->
<g id="node24" class="node">
<title>387</title>
<polygon fill="#c0c0c0" stroke="black" points="991.5,-36 937.5,-36 937.5,0 991.5,0 991.5,-36"/>
<text text-anchor="middle" x="964.5" y="-14.3" font-family="Times,serif" font-size="14.00">(...)</text>
</g>
<!-- 381&#45;&gt;387 -->
<g id="edge23" class="edge">
<title>381&#45;&gt;387</title>
<path fill="none" stroke="black" d="M958.29,-71.76C959.3,-63.24 960.33,-54.44 961.26,-46.53"/>
<polygon fill="black" stroke="black" points="964.76,-46.75 962.45,-36.41 957.81,-45.93 964.76,-46.75"/>
</g>
<!-- 391 -->
<g id="node26" class="node">
<title>391</title>
<polygon fill="#fcefe6" stroke="black" points="1195,-155 1046,-155 1046,-72 1195,-72 1195,-155"/>
<text text-anchor="middle" x="1120.5" y="-139.8" font-family="Times,serif" font-size="14.00">sdComp &lt;= 2.0</text>
<text text-anchor="middle" x="1120.5" y="-124.8" font-family="Times,serif" font-size="14.00">gini = 0.498</text>
<text text-anchor="middle" x="1120.5" y="-109.8" font-family="Times,serif" font-size="14.00">samples = 1552</text>
<text text-anchor="middle" x="1120.5" y="-94.8" font-family="Times,serif" font-size="14.00">value = [828, 724]</text>
<text text-anchor="middle" x="1120.5" y="-79.8" font-family="Times,serif" font-size="14.00">class = False</text>
</g>
<!-- 390&#45;&gt;391 -->
<g id="edge25" class="edge">
<title>390&#45;&gt;391</title>
<path fill="none" stroke="black" d="M1120.5,-190.91C1120.5,-182.65 1120.5,-173.86 1120.5,-165.3"/>
<polygon fill="black" stroke="black" points="1124,-165.02 1120.5,-155.02 1117,-165.02 1124,-165.02"/>
</g>
<!-- 420 -->
<g id="node29" class="node">
<title>420</title>
<polygon fill="#fdf7f2" stroke="black" points="1380,-155 1213,-155 1213,-72 1380,-72 1380,-155"/>
<text text-anchor="middle" x="1296.5" y="-139.8" font-family="Times,serif" font-size="14.00">sdComm &lt;= 6.5</text>
<text text-anchor="middle" x="1296.5" y="-124.8" font-family="Times,serif" font-size="14.00">gini = 0.499</text>
<text text-anchor="middle" x="1296.5" y="-109.8" font-family="Times,serif" font-size="14.00">samples = 5476</text>
<text text-anchor="middle" x="1296.5" y="-94.8" font-family="Times,serif" font-size="14.00">value = [2828, 2648]</text>
<text text-anchor="middle" x="1296.5" y="-79.8" font-family="Times,serif" font-size="14.00">class = False</text>
</g>
<!-- 390&#45;&gt;420 -->
<g id="edge28" class="edge">
<title>390&#45;&gt;420</title>
<path fill="none" stroke="black" d="M1181.56,-190.91C1196.17,-181.2 1211.87,-170.76 1226.84,-160.81"/>
<polygon fill="black" stroke="black" points="1229.16,-163.47 1235.55,-155.02 1225.28,-157.64 1229.16,-163.47"/>
</g>
<!-- 392 -->
<g id="node27" class="node">
<title>392</title>
<polygon fill="#c0c0c0" stroke="black" points="1109.5,-36 1055.5,-36 1055.5,0 1109.5,0 1109.5,-36"/>
<text text-anchor="middle" x="1082.5" y="-14.3" font-family="Times,serif" font-size="14.00">(...)</text>
</g>
<!-- 391&#45;&gt;392 -->
<g id="edge26" class="edge">
<title>391&#45;&gt;392</title>
<path fill="none" stroke="black" d="M1103.94,-71.76C1100.36,-62.94 1096.66,-53.84 1093.36,-45.72"/>
<polygon fill="black" stroke="black" points="1096.58,-44.35 1089.57,-36.41 1090.1,-46.99 1096.58,-44.35"/>
</g>
<!-- 401 -->
<g id="node28" class="node">
<title>401</title>
<polygon fill="#c0c0c0" stroke="black" points="1181.5,-36 1127.5,-36 1127.5,0 1181.5,0 1181.5,-36"/>
<text text-anchor="middle" x="1154.5" y="-14.3" font-family="Times,serif" font-size="14.00">(...)</text>
</g>
<!-- 391&#45;&gt;401 -->
<g id="edge27" class="edge">
<title>391&#45;&gt;401</title>
<path fill="none" stroke="black" d="M1135.31,-71.76C1138.48,-63.04 1141.76,-54.04 1144.68,-45.99"/>
<polygon fill="black" stroke="black" points="1148.04,-47 1148.17,-36.41 1141.46,-44.61 1148.04,-47"/>
</g>
<!-- 421 -->
<g id="node30" class="node">
<title>421</title>
<polygon fill="#c0c0c0" stroke="black" points="1287.5,-36 1233.5,-36 1233.5,0 1287.5,0 1287.5,-36"/>
<text text-anchor="middle" x="1260.5" y="-14.3" font-family="Times,serif" font-size="14.00">(...)</text>
</g>
<!-- 420&#45;&gt;421 -->
<g id="edge29" class="edge">
<title>420&#45;&gt;421</title>
<path fill="none" stroke="black" d="M1280.81,-71.76C1277.46,-63.04 1273.99,-54.04 1270.89,-45.99"/>
<polygon fill="black" stroke="black" points="1274.06,-44.48 1267.2,-36.41 1267.53,-46.99 1274.06,-44.48"/>
</g>
<!-- 524 -->
<g id="node31" class="node">
<title>524</title>
<polygon fill="#c0c0c0" stroke="black" points="1359.5,-36 1305.5,-36 1305.5,0 1359.5,0 1359.5,-36"/>
<text text-anchor="middle" x="1332.5" y="-14.3" font-family="Times,serif" font-size="14.00">(...)</text>
</g>
<!-- 420&#45;&gt;524 -->
<g id="edge30" class="edge">
<title>420&#45;&gt;524</title>
<path fill="none" stroke="black" d="M1312.19,-71.76C1315.54,-63.04 1319.01,-54.04 1322.11,-45.99"/>
<polygon fill="black" stroke="black" points="1325.47,-46.99 1325.8,-36.41 1318.94,-44.48 1325.47,-46.99"/>
</g>
</g>
</svg>
