<?xml version="1.0" encoding="UTF-8" standalone="no"?>
<!DOCTYPE svg PUBLIC "-//W3C//DTD SVG 1.1//EN"
 "http://www.w3.org/Graphics/SVG/1.1/DTD/svg11.dtd">
<!-- Generated by graphviz version 2.43.0 (0)
 -->
<!-- Title: Tree Pages: 1 -->
<svg width="2336pt" height="520pt"
 viewBox="0.00 0.00 2335.50 520.00" xmlns="http://www.w3.org/2000/svg" xmlns:xlink="http://www.w3.org/1999/xlink">
<g id="graph0" class="graph" transform="scale(1 1) rotate(0) translate(4 516)">
<title>Tree</title>
<polygon fill="white" stroke="transparent" points="-4,4 -4,-516 2331.5,-516 2331.5,4 -4,4"/>
<!-- 0 -->
<g id="node1" class="node">
<title>0</title>
<polygon fill="#fceaf5" stroke="black" points="1292,-512 945,-512 945,-429 1292,-429 1292,-512"/>
<text text-anchor="middle" x="1118.5" y="-496.8" font-family="Times,serif" font-size="14.00">CCR &lt;= 5.5</text>
<text text-anchor="middle" x="1118.5" y="-481.8" font-family="Times,serif" font-size="14.00">gini = 0.78</text>
<text text-anchor="middle" x="1118.5" y="-466.8" font-family="Times,serif" font-size="14.00">samples = 22504</text>
<text text-anchor="middle" x="1118.5" y="-451.8" font-family="Times,serif" font-size="14.00">value = [5146, 1204, 2804, 1328, 5072, 6950]</text>
<text text-anchor="middle" x="1118.5" y="-436.8" font-family="Times,serif" font-size="14.00">class = GDL</text>
</g>
<!-- 1 -->
<g id="node2" class="node">
<title>1</title>
<polygon fill="#fad9ec" stroke="black" points="1003.5,-393 683.5,-393 683.5,-310 1003.5,-310 1003.5,-393"/>
<text text-anchor="middle" x="843.5" y="-377.8" font-family="Times,serif" font-size="14.00">sdComm &lt;= 0.2</text>
<text text-anchor="middle" x="843.5" y="-362.8" font-family="Times,serif" font-size="14.00">gini = 0.698</text>
<text text-anchor="middle" x="843.5" y="-347.8" font-family="Times,serif" font-size="14.00">samples = 14766</text>
<text text-anchor="middle" x="843.5" y="-332.8" font-family="Times,serif" font-size="14.00">value = [3748, 380, 172, 544, 3912, 6010]</text>
<text text-anchor="middle" x="843.5" y="-317.8" font-family="Times,serif" font-size="14.00">class = GDL</text>
</g>
<!-- 0&#45;&gt;1 -->
<g id="edge1" class="edge">
<title>0&#45;&gt;1</title>
<path fill="none" stroke="black" d="M1023.09,-428.91C998.88,-418.61 972.74,-407.49 948.1,-397"/>
<polygon fill="black" stroke="black" points="949.31,-393.72 938.74,-393.02 946.57,-400.16 949.31,-393.72"/>
<text text-anchor="middle" x="948.09" y="-412.51" font-family="Times,serif" font-size="14.00">True</text>
</g>
<!-- 362 -->
<g id="node17" class="node">
<title>362</title>
<polygon fill="#d8fae6" stroke="black" points="1578.5,-393 1258.5,-393 1258.5,-310 1578.5,-310 1578.5,-393"/>
<text text-anchor="middle" x="1418.5" y="-377.8" font-family="Times,serif" font-size="14.00">sdComp &lt;= 2.0</text>
<text text-anchor="middle" x="1418.5" y="-362.8" font-family="Times,serif" font-size="14.00">gini = 0.793</text>
<text text-anchor="middle" x="1418.5" y="-347.8" font-family="Times,serif" font-size="14.00">samples = 7738</text>
<text text-anchor="middle" x="1418.5" y="-332.8" font-family="Times,serif" font-size="14.00">value = [1398, 824, 2632, 784, 1160, 940]</text>
<text text-anchor="middle" x="1418.5" y="-317.8" font-family="Times,serif" font-size="14.00">class = OLB</text>
</g>
<!-- 0&#45;&gt;362 -->
<g id="edge16" class="edge">
<title>0&#45;&gt;362</title>
<path fill="none" stroke="black" d="M1222.58,-428.91C1249.23,-418.52 1278.01,-407.29 1305.1,-396.73"/>
<polygon fill="black" stroke="black" points="1306.56,-399.92 1314.6,-393.02 1304.01,-393.39 1306.56,-399.92"/>
<text text-anchor="middle" x="1304.55" y="-412.21" font-family="Times,serif" font-size="14.00">False</text>
</g>
<!-- 2 -->
<g id="node3" class="node">
<title>2</title>
<polygon fill="#fce8f4" stroke="black" points="577.5,-274 257.5,-274 257.5,-191 577.5,-191 577.5,-274"/>
<text text-anchor="middle" x="417.5" y="-258.8" font-family="Times,serif" font-size="14.00">sdComp &lt;= 0.02</text>
<text text-anchor="middle" x="417.5" y="-243.8" font-family="Times,serif" font-size="14.00">gini = 0.708</text>
<text text-anchor="middle" x="417.5" y="-228.8" font-family="Times,serif" font-size="14.00">samples = 11254</text>
<text text-anchor="middle" x="417.5" y="-213.8" font-family="Times,serif" font-size="14.00">value = [3248, 252, 120, 512, 2944, 4178]</text>
<text text-anchor="middle" x="417.5" y="-198.8" font-family="Times,serif" font-size="14.00">class = GDL</text>
</g>
<!-- 1&#45;&gt;2 -->
<g id="edge2" class="edge">
<title>1&#45;&gt;2</title>
<path fill="none" stroke="black" d="M696,-309.99C656.91,-299.25 614.56,-287.62 574.97,-276.75"/>
<polygon fill="black" stroke="black" points="575.8,-273.35 565.23,-274.07 573.95,-280.1 575.8,-273.35"/>
</g>
<!-- 237 -->
<g id="node10" class="node">
<title>237</title>
<polygon fill="#f6bcde" stroke="black" points="985.5,-274 701.5,-274 701.5,-191 985.5,-191 985.5,-274"/>
<text text-anchor="middle" x="843.5" y="-258.8" font-family="Times,serif" font-size="14.00">sdComp &lt;= 0.65</text>
<text text-anchor="middle" x="843.5" y="-243.8" font-family="Times,serif" font-size="14.00">gini = 0.63</text>
<text text-anchor="middle" x="843.5" y="-228.8" font-family="Times,serif" font-size="14.00">samples = 3512</text>
<text text-anchor="middle" x="843.5" y="-213.8" font-family="Times,serif" font-size="14.00">value = [500, 128, 52, 32, 968, 1832]</text>
<text text-anchor="middle" x="843.5" y="-198.8" font-family="Times,serif" font-size="14.00">class = GDL</text>
</g>
<!-- 1&#45;&gt;237 -->
<g id="edge9" class="edge">
<title>1&#45;&gt;237</title>
<path fill="none" stroke="black" d="M843.5,-309.91C843.5,-301.65 843.5,-292.86 843.5,-284.3"/>
<polygon fill="black" stroke="black" points="847,-284.02 843.5,-274.02 840,-284.02 847,-284.02"/>
</g>
<!-- 3 -->
<g id="node4" class="node">
<title>3</title>
<polygon fill="#f7bedf" stroke="black" points="239,-155 0,-155 0,-72 239,-72 239,-155"/>
<text text-anchor="middle" x="119.5" y="-139.8" font-family="Times,serif" font-size="14.00">sdComm &lt;= 0.065</text>
<text text-anchor="middle" x="119.5" y="-124.8" font-family="Times,serif" font-size="14.00">gini = 0.612</text>
<text text-anchor="middle" x="119.5" y="-109.8" font-family="Times,serif" font-size="14.00">samples = 922</text>
<text text-anchor="middle" x="119.5" y="-94.8" font-family="Times,serif" font-size="14.00">value = [168, 0, 8, 0, 266, 480]</text>
<text text-anchor="middle" x="119.5" y="-79.8" font-family="Times,serif" font-size="14.00">class = GDL</text>
</g>
<!-- 2&#45;&gt;3 -->
<g id="edge3" class="edge">
<title>2&#45;&gt;3</title>
<path fill="none" stroke="black" d="M314.11,-190.91C287.64,-180.52 259.05,-169.29 232.15,-158.73"/>
<polygon fill="black" stroke="black" points="233.29,-155.42 222.71,-155.02 230.74,-161.93 233.29,-155.42"/>
</g>
<!-- 50 -->
<g id="node7" class="node">
<title>50</title>
<polygon fill="#fdeef7" stroke="black" points="577.5,-155 257.5,-155 257.5,-72 577.5,-72 577.5,-155"/>
<text text-anchor="middle" x="417.5" y="-139.8" font-family="Times,serif" font-size="14.00">graphSize &lt;= 22.5</text>
<text text-anchor="middle" x="417.5" y="-124.8" font-family="Times,serif" font-size="14.00">gini = 0.713</text>
<text text-anchor="middle" x="417.5" y="-109.8" font-family="Times,serif" font-size="14.00">samples = 10332</text>
<text text-anchor="middle" x="417.5" y="-94.8" font-family="Times,serif" font-size="14.00">value = [3080, 252, 112, 512, 2678, 3698]</text>
<text text-anchor="middle" x="417.5" y="-79.8" font-family="Times,serif" font-size="14.00">class = GDL</text>
</g>
<!-- 2&#45;&gt;50 -->
<g id="edge6" class="edge">
<title>2&#45;&gt;50</title>
<path fill="none" stroke="black" d="M417.5,-190.91C417.5,-182.65 417.5,-173.86 417.5,-165.3"/>
<polygon fill="black" stroke="black" points="421,-165.02 417.5,-155.02 414,-165.02 421,-165.02"/>
</g>
<!-- 4 -->
<g id="node5" class="node">
<title>4</title>
<polygon fill="#c0c0c0" stroke="black" points="110.5,-36 56.5,-36 56.5,0 110.5,0 110.5,-36"/>
<text text-anchor="middle" x="83.5" y="-14.3" font-family="Times,serif" font-size="14.00">(...)</text>
</g>
<!-- 3&#45;&gt;4 -->
<g id="edge4" class="edge">
<title>3&#45;&gt;4</title>
<path fill="none" stroke="black" d="M103.81,-71.76C100.46,-63.04 96.99,-54.04 93.89,-45.99"/>
<polygon fill="black" stroke="black" points="97.06,-44.48 90.2,-36.41 90.53,-46.99 97.06,-44.48"/>
</g>
<!-- 39 -->
<g id="node6" class="node">
<title>39</title>
<polygon fill="#c0c0c0" stroke="black" points="182.5,-36 128.5,-36 128.5,0 182.5,0 182.5,-36"/>
<text text-anchor="middle" x="155.5" y="-14.3" font-family="Times,serif" font-size="14.00">(...)</text>
</g>
<!-- 3&#45;&gt;39 -->
<g id="edge5" class="edge">
<title>3&#45;&gt;39</title>
<path fill="none" stroke="black" d="M135.19,-71.76C138.54,-63.04 142.01,-54.04 145.11,-45.99"/>
<polygon fill="black" stroke="black" points="148.47,-46.99 148.8,-36.41 141.94,-44.48 148.47,-46.99"/>
</g>
<!-- 51 -->
<g id="node8" class="node">
<title>51</title>
<polygon fill="#c0c0c0" stroke="black" points="408.5,-36 354.5,-36 354.5,0 408.5,0 408.5,-36"/>
<text text-anchor="middle" x="381.5" y="-14.3" font-family="Times,serif" font-size="14.00">(...)</text>
</g>
<!-- 50&#45;&gt;51 -->
<g id="edge7" class="edge">
<title>50&#45;&gt;51</title>
<path fill="none" stroke="black" d="M401.81,-71.76C398.46,-63.04 394.99,-54.04 391.89,-45.99"/>
<polygon fill="black" stroke="black" points="395.06,-44.48 388.2,-36.41 388.53,-46.99 395.06,-44.48"/>
</g>
<!-- 122 -->
<g id="node9" class="node">
<title>122</title>
<polygon fill="#c0c0c0" stroke="black" points="480.5,-36 426.5,-36 426.5,0 480.5,0 480.5,-36"/>
<text text-anchor="middle" x="453.5" y="-14.3" font-family="Times,serif" font-size="14.00">(...)</text>
</g>
<!-- 50&#45;&gt;122 -->
<g id="edge8" class="edge">
<title>50&#45;&gt;122</title>
<path fill="none" stroke="black" d="M433.19,-71.76C436.54,-63.04 440.01,-54.04 443.11,-45.99"/>
<polygon fill="black" stroke="black" points="446.47,-46.99 446.8,-36.41 439.94,-44.48 446.47,-46.99"/>
</g>
<!-- 238 -->
<g id="node11" class="node">
<title>238</title>
<polygon fill="#f3a6d3" stroke="black" points="861.5,-155 595.5,-155 595.5,-72 861.5,-72 861.5,-155"/>
<text text-anchor="middle" x="728.5" y="-139.8" font-family="Times,serif" font-size="14.00">nbproc &lt;= 4.5</text>
<text text-anchor="middle" x="728.5" y="-124.8" font-family="Times,serif" font-size="14.00">gini = 0.567</text>
<text text-anchor="middle" x="728.5" y="-109.8" font-family="Times,serif" font-size="14.00">samples = 2012</text>
<text text-anchor="middle" x="728.5" y="-94.8" font-family="Times,serif" font-size="14.00">value = [144, 84, 52, 0, 532, 1200]</text>
<text text-anchor="middle" x="728.5" y="-79.8" font-family="Times,serif" font-size="14.00">class = GDL</text>
</g>
<!-- 237&#45;&gt;238 -->
<g id="edge10" class="edge">
<title>237&#45;&gt;238</title>
<path fill="none" stroke="black" d="M803.6,-190.91C794.5,-181.65 784.75,-171.73 775.39,-162.21"/>
<polygon fill="black" stroke="black" points="777.83,-159.7 768.33,-155.02 772.84,-164.61 777.83,-159.7"/>
</g>
<!-- 317 -->
<g id="node14" class="node">
<title>317</title>
<polygon fill="#fadbed" stroke="black" points="1137,-155 880,-155 880,-72 1137,-72 1137,-155"/>
<text text-anchor="middle" x="1008.5" y="-139.8" font-family="Times,serif" font-size="14.00">sdComm &lt;= 0.65</text>
<text text-anchor="middle" x="1008.5" y="-124.8" font-family="Times,serif" font-size="14.00">gini = 0.68</text>
<text text-anchor="middle" x="1008.5" y="-109.8" font-family="Times,serif" font-size="14.00">samples = 1500</text>
<text text-anchor="middle" x="1008.5" y="-94.8" font-family="Times,serif" font-size="14.00">value = [356, 44, 0, 32, 436, 632]</text>
<text text-anchor="middle" x="1008.5" y="-79.8" font-family="Times,serif" font-size="14.00">class = GDL</text>
</g>
<!-- 237&#45;&gt;317 -->
<g id="edge13" class="edge">
<title>237&#45;&gt;317</title>
<path fill="none" stroke="black" d="M900.75,-190.91C914.44,-181.2 929.16,-170.76 943.19,-160.81"/>
<polygon fill="black" stroke="black" points="945.22,-163.66 951.36,-155.02 941.17,-157.95 945.22,-163.66"/>
</g>
<!-- 239 -->
<g id="node12" class="node">
<title>239</title>
<polygon fill="#c0c0c0" stroke="black" points="719.5,-36 665.5,-36 665.5,0 719.5,0 719.5,-36"/>
<text text-anchor="middle" x="692.5" y="-14.3" font-family="Times,serif" font-size="14.00">(...)</text>
</g>
<!-- 238&#45;&gt;239 -->
<g id="edge11" class="edge">
<title>238&#45;&gt;239</title>
<path fill="none" stroke="black" d="M712.81,-71.76C709.46,-63.04 705.99,-54.04 702.89,-45.99"/>
<polygon fill="black" stroke="black" points="706.06,-44.48 699.2,-36.41 699.53,-46.99 706.06,-44.48"/>
</g>
<!-- 272 -->
<g id="node13" class="node">
<title>272</title>
<polygon fill="#c0c0c0" stroke="black" points="791.5,-36 737.5,-36 737.5,0 791.5,0 791.5,-36"/>
<text text-anchor="middle" x="764.5" y="-14.3" font-family="Times,serif" font-size="14.00">(...)</text>
</g>
<!-- 238&#45;&gt;272 -->
<g id="edge12" class="edge">
<title>238&#45;&gt;272</title>
<path fill="none" stroke="black" d="M744.19,-71.76C747.54,-63.04 751.01,-54.04 754.11,-45.99"/>
<polygon fill="black" stroke="black" points="757.47,-46.99 757.8,-36.41 750.94,-44.48 757.47,-46.99"/>
</g>
<!-- 318 -->
<g id="node15" class="node">
<title>318</title>
<polygon fill="#c0c0c0" stroke="black" points="999.5,-36 945.5,-36 945.5,0 999.5,0 999.5,-36"/>
<text text-anchor="middle" x="972.5" y="-14.3" font-family="Times,serif" font-size="14.00">(...)</text>
</g>
<!-- 317&#45;&gt;318 -->
<g id="edge14" class="edge">
<title>317&#45;&gt;318</title>
<path fill="none" stroke="black" d="M992.81,-71.76C989.46,-63.04 985.99,-54.04 982.89,-45.99"/>
<polygon fill="black" stroke="black" points="986.06,-44.48 979.2,-36.41 979.53,-46.99 986.06,-44.48"/>
</g>
<!-- 339 -->
<g id="node16" class="node">
<title>339</title>
<polygon fill="#c0c0c0" stroke="black" points="1071.5,-36 1017.5,-36 1017.5,0 1071.5,0 1071.5,-36"/>
<text text-anchor="middle" x="1044.5" y="-14.3" font-family="Times,serif" font-size="14.00">(...)</text>
</g>
<!-- 317&#45;&gt;339 -->
<g id="edge15" class="edge">
<title>317&#45;&gt;339</title>
<path fill="none" stroke="black" d="M1024.19,-71.76C1027.54,-63.04 1031.01,-54.04 1034.11,-45.99"/>
<polygon fill="black" stroke="black" points="1037.47,-46.99 1037.8,-36.41 1030.94,-44.48 1037.47,-46.99"/>
</g>
<!-- 363 -->
<g id="node18" class="node">
<title>363</title>
<polygon fill="#cef9e0" stroke="black" points="1569.5,-274 1267.5,-274 1267.5,-191 1569.5,-191 1569.5,-274"/>
<text text-anchor="middle" x="1418.5" y="-258.8" font-family="Times,serif" font-size="14.00">graphSize &lt;= 22.5</text>
<text text-anchor="middle" x="1418.5" y="-243.8" font-family="Times,serif" font-size="14.00">gini = 0.744</text>
<text text-anchor="middle" x="1418.5" y="-228.8" font-family="Times,serif" font-size="14.00">samples = 2756</text>
<text text-anchor="middle" x="1418.5" y="-213.8" font-family="Times,serif" font-size="14.00">value = [288, 288, 1144, 616, 240, 180]</text>
<text text-anchor="middle" x="1418.5" y="-198.8" font-family="Times,serif" font-size="14.00">class = OLB</text>
</g>
<!-- 362&#45;&gt;363 -->
<g id="edge17" class="edge">
<title>362&#45;&gt;363</title>
<path fill="none" stroke="black" d="M1418.5,-309.91C1418.5,-301.65 1418.5,-292.86 1418.5,-284.3"/>
<polygon fill="black" stroke="black" points="1422,-284.02 1418.5,-274.02 1415,-284.02 1422,-284.02"/>
</g>
<!-- 434 -->
<g id="node25" class="node">
<title>434</title>
<polygon fill="#ecfcf3" stroke="black" points="2030,-274 1719,-274 1719,-191 2030,-191 2030,-274"/>
<text text-anchor="middle" x="1874.5" y="-258.8" font-family="Times,serif" font-size="14.00">sdComm &lt;= 2.0</text>
<text text-anchor="middle" x="1874.5" y="-243.8" font-family="Times,serif" font-size="14.00">gini = 0.791</text>
<text text-anchor="middle" x="1874.5" y="-228.8" font-family="Times,serif" font-size="14.00">samples = 4982</text>
<text text-anchor="middle" x="1874.5" y="-213.8" font-family="Times,serif" font-size="14.00">value = [1110, 536, 1488, 168, 920, 760]</text>
<text text-anchor="middle" x="1874.5" y="-198.8" font-family="Times,serif" font-size="14.00">class = OLB</text>
</g>
<!-- 362&#45;&gt;434 -->
<g id="edge24" class="edge">
<title>362&#45;&gt;434</title>
<path fill="none" stroke="black" d="M1576.39,-309.99C1619.21,-299 1665.69,-287.08 1708.93,-275.98"/>
<polygon fill="black" stroke="black" points="1709.86,-279.36 1718.68,-273.48 1708.12,-272.58 1709.86,-279.36"/>
</g>
<!-- 364 -->
<g id="node19" class="node">
<title>364</title>
<polygon fill="#ecfcf3" stroke="black" points="1421.5,-155 1155.5,-155 1155.5,-72 1421.5,-72 1421.5,-155"/>
<text text-anchor="middle" x="1288.5" y="-139.8" font-family="Times,serif" font-size="14.00">sdComm &lt;= 6.5</text>
<text text-anchor="middle" x="1288.5" y="-124.8" font-family="Times,serif" font-size="14.00">gini = 0.79</text>
<text text-anchor="middle" x="1288.5" y="-109.8" font-family="Times,serif" font-size="14.00">samples = 634</text>
<text text-anchor="middle" x="1288.5" y="-94.8" font-family="Times,serif" font-size="14.00">value = [72, 24, 192, 144, 118, 84]</text>
<text text-anchor="middle" x="1288.5" y="-79.8" font-family="Times,serif" font-size="14.00">class = OLB</text>
</g>
<!-- 363&#45;&gt;364 -->
<g id="edge18" class="edge">
<title>363&#45;&gt;364</title>
<path fill="none" stroke="black" d="M1373.4,-190.91C1363.01,-181.56 1351.88,-171.54 1341.2,-161.93"/>
<polygon fill="black" stroke="black" points="1343.3,-159.11 1333.52,-155.02 1338.61,-164.31 1343.3,-159.11"/>
</g>
<!-- 385 -->
<g id="node22" class="node">
<title>385</title>
<polygon fill="#c5f7da" stroke="black" points="1723.5,-155 1439.5,-155 1439.5,-72 1723.5,-72 1723.5,-155"/>
<text text-anchor="middle" x="1581.5" y="-139.8" font-family="Times,serif" font-size="14.00">graphSize &lt;= 40.0</text>
<text text-anchor="middle" x="1581.5" y="-124.8" font-family="Times,serif" font-size="14.00">gini = 0.718</text>
<text text-anchor="middle" x="1581.5" y="-109.8" font-family="Times,serif" font-size="14.00">samples = 2122</text>
<text text-anchor="middle" x="1581.5" y="-94.8" font-family="Times,serif" font-size="14.00">value = [216, 264, 952, 472, 122, 96]</text>
<text text-anchor="middle" x="1581.5" y="-79.8" font-family="Times,serif" font-size="14.00">class = OLB</text>
</g>
<!-- 363&#45;&gt;385 -->
<g id="edge21" class="edge">
<title>363&#45;&gt;385</title>
<path fill="none" stroke="black" d="M1475.05,-190.91C1488.45,-181.29 1502.85,-170.95 1516.59,-161.09"/>
<polygon fill="black" stroke="black" points="1518.97,-163.7 1525.05,-155.02 1514.88,-158.01 1518.97,-163.7"/>
</g>
<!-- 365 -->
<g id="node20" class="node">
<title>365</title>
<polygon fill="#c0c0c0" stroke="black" points="1279.5,-36 1225.5,-36 1225.5,0 1279.5,0 1279.5,-36"/>
<text text-anchor="middle" x="1252.5" y="-14.3" font-family="Times,serif" font-size="14.00">(...)</text>
</g>
<!-- 364&#45;&gt;365 -->
<g id="edge19" class="edge">
<title>364&#45;&gt;365</title>
<path fill="none" stroke="black" d="M1272.81,-71.76C1269.46,-63.04 1265.99,-54.04 1262.89,-45.99"/>
<polygon fill="black" stroke="black" points="1266.06,-44.48 1259.2,-36.41 1259.53,-46.99 1266.06,-44.48"/>
</g>
<!-- 378 -->
<g id="node21" class="node">
<title>378</title>
<polygon fill="#c0c0c0" stroke="black" points="1351.5,-36 1297.5,-36 1297.5,0 1351.5,0 1351.5,-36"/>
<text text-anchor="middle" x="1324.5" y="-14.3" font-family="Times,serif" font-size="14.00">(...)</text>
</g>
<!-- 364&#45;&gt;378 -->
<g id="edge20" class="edge">
<title>364&#45;&gt;378</title>
<path fill="none" stroke="black" d="M1304.19,-71.76C1307.54,-63.04 1311.01,-54.04 1314.11,-45.99"/>
<polygon fill="black" stroke="black" points="1317.47,-46.99 1317.8,-36.41 1310.94,-44.48 1317.47,-46.99"/>
</g>
<!-- 386 -->
<g id="node23" class="node">
<title>386</title>
<polygon fill="#c0c0c0" stroke="black" points="1572.5,-36 1518.5,-36 1518.5,0 1572.5,0 1572.5,-36"/>
<text text-anchor="middle" x="1545.5" y="-14.3" font-family="Times,serif" font-size="14.00">(...)</text>
</g>
<!-- 385&#45;&gt;386 -->
<g id="edge22" class="edge">
<title>385&#45;&gt;386</title>
<path fill="none" stroke="black" d="M1565.81,-71.76C1562.46,-63.04 1558.99,-54.04 1555.89,-45.99"/>
<polygon fill="black" stroke="black" points="1559.06,-44.48 1552.2,-36.41 1552.53,-46.99 1559.06,-44.48"/>
</g>
<!-- 401 -->
<g id="node24" class="node">
<title>401</title>
<polygon fill="#c0c0c0" stroke="black" points="1644.5,-36 1590.5,-36 1590.5,0 1644.5,0 1644.5,-36"/>
<text text-anchor="middle" x="1617.5" y="-14.3" font-family="Times,serif" font-size="14.00">(...)</text>
</g>
<!-- 385&#45;&gt;401 -->
<g id="edge23" class="edge">
<title>385&#45;&gt;401</title>
<path fill="none" stroke="black" d="M1597.19,-71.76C1600.54,-63.04 1604.01,-54.04 1607.11,-45.99"/>
<polygon fill="black" stroke="black" points="1610.47,-46.99 1610.8,-36.41 1603.94,-44.48 1610.47,-46.99"/>
</g>
<!-- 435 -->
<g id="node26" class="node">
<title>435</title>
<polygon fill="#fefaf7" stroke="black" points="2007.5,-155 1741.5,-155 1741.5,-72 2007.5,-72 2007.5,-155"/>
<text text-anchor="middle" x="1874.5" y="-139.8" font-family="Times,serif" font-size="14.00">sdComp &lt;= 6.5</text>
<text text-anchor="middle" x="1874.5" y="-124.8" font-family="Times,serif" font-size="14.00">gini = 0.762</text>
<text text-anchor="middle" x="1874.5" y="-109.8" font-family="Times,serif" font-size="14.00">samples = 1732</text>
<text text-anchor="middle" x="1874.5" y="-94.8" font-family="Times,serif" font-size="14.00">value = [486, 56, 392, 0, 434, 364]</text>
<text text-anchor="middle" x="1874.5" y="-79.8" font-family="Times,serif" font-size="14.00">class = eft</text>
</g>
<!-- 434&#45;&gt;435 -->
<g id="edge25" class="edge">
<title>434&#45;&gt;435</title>
<path fill="none" stroke="black" d="M1874.5,-190.91C1874.5,-182.65 1874.5,-173.86 1874.5,-165.3"/>
<polygon fill="black" stroke="black" points="1878,-165.02 1874.5,-155.02 1871,-165.02 1878,-165.02"/>
</g>
<!-- 476 -->
<g id="node29" class="node">
<title>476</title>
<polygon fill="#dbfae8" stroke="black" points="2327.5,-155 2025.5,-155 2025.5,-72 2327.5,-72 2327.5,-155"/>
<text text-anchor="middle" x="2176.5" y="-139.8" font-family="Times,serif" font-size="14.00">graphSize &lt;= 40.0</text>
<text text-anchor="middle" x="2176.5" y="-124.8" font-family="Times,serif" font-size="14.00">gini = 0.788</text>
<text text-anchor="middle" x="2176.5" y="-109.8" font-family="Times,serif" font-size="14.00">samples = 3250</text>
<text text-anchor="middle" x="2176.5" y="-94.8" font-family="Times,serif" font-size="14.00">value = [624, 480, 1096, 168, 486, 396]</text>
<text text-anchor="middle" x="2176.5" y="-79.8" font-family="Times,serif" font-size="14.00">class = OLB</text>
</g>
<!-- 434&#45;&gt;476 -->
<g id="edge28" class="edge">
<title>434&#45;&gt;476</title>
<path fill="none" stroke="black" d="M1979.28,-190.91C2006.1,-180.52 2035.07,-169.29 2062.34,-158.73"/>
<polygon fill="black" stroke="black" points="2063.85,-161.9 2071.91,-155.02 2061.32,-155.37 2063.85,-161.9"/>
</g>
<!-- 436 -->
<g id="node27" class="node">
<title>436</title>
<polygon fill="#c0c0c0" stroke="black" points="1865.5,-36 1811.5,-36 1811.5,0 1865.5,0 1865.5,-36"/>
<text text-anchor="middle" x="1838.5" y="-14.3" font-family="Times,serif" font-size="14.00">(...)</text>
</g>
<!-- 435&#45;&gt;436 -->
<g id="edge26" class="edge">
<title>435&#45;&gt;436</title>
<path fill="none" stroke="black" d="M1858.81,-71.76C1855.46,-63.04 1851.99,-54.04 1848.89,-45.99"/>
<polygon fill="black" stroke="black" points="1852.06,-44.48 1845.2,-36.41 1845.53,-46.99 1852.06,-44.48"/>
</g>
<!-- 455 -->
<g id="node28" class="node">
<title>455</title>
<polygon fill="#c0c0c0" stroke="black" points="1937.5,-36 1883.5,-36 1883.5,0 1937.5,0 1937.5,-36"/>
<text text-anchor="middle" x="1910.5" y="-14.3" font-family="Times,serif" font-size="14.00">(...)</text>
</g>
<!-- 435&#45;&gt;455 -->
<g id="edge27" class="edge">
<title>435&#45;&gt;455</title>
<path fill="none" stroke="black" d="M1890.19,-71.76C1893.54,-63.04 1897.01,-54.04 1900.11,-45.99"/>
<polygon fill="black" stroke="black" points="1903.47,-46.99 1903.8,-36.41 1896.94,-44.48 1903.47,-46.99"/>
</g>
<!-- 477 -->
<g id="node30" class="node">
<title>477</title>
<polygon fill="#c0c0c0" stroke="black" points="2167.5,-36 2113.5,-36 2113.5,0 2167.5,0 2167.5,-36"/>
<text text-anchor="middle" x="2140.5" y="-14.3" font-family="Times,serif" font-size="14.00">(...)</text>
</g>
<!-- 476&#45;&gt;477 -->
<g id="edge29" class="edge">
<title>476&#45;&gt;477</title>
<path fill="none" stroke="black" d="M2160.81,-71.76C2157.46,-63.04 2153.99,-54.04 2150.89,-45.99"/>
<polygon fill="black" stroke="black" points="2154.06,-44.48 2147.2,-36.41 2147.53,-46.99 2154.06,-44.48"/>
</g>
<!-- 518 -->
<g id="node31" class="node">
<title>518</title>
<polygon fill="#c0c0c0" stroke="black" points="2239.5,-36 2185.5,-36 2185.5,0 2239.5,0 2239.5,-36"/>
<text text-anchor="middle" x="2212.5" y="-14.3" font-family="Times,serif" font-size="14.00">(...)</text>
</g>
<!-- 476&#45;&gt;518 -->
<g id="edge30" class="edge">
<title>476&#45;&gt;518</title>
<path fill="none" stroke="black" d="M2192.19,-71.76C2195.54,-63.04 2199.01,-54.04 2202.11,-45.99"/>
<polygon fill="black" stroke="black" points="2205.47,-46.99 2205.8,-36.41 2198.94,-44.48 2205.47,-46.99"/>
</g>
</g>
</svg>
