<?xml version="1.0" encoding="UTF-8" standalone="no"?>
<!DOCTYPE svg PUBLIC "-//W3C//DTD SVG 1.1//EN"
 "http://www.w3.org/Graphics/SVG/1.1/DTD/svg11.dtd">
<!-- Generated by graphviz version 2.43.0 (0)
 -->
<!-- Title: Tree Pages: 1 -->
<svg width="2327pt" height="520pt"
 viewBox="0.00 0.00 2327.00 520.00" xmlns="http://www.w3.org/2000/svg" xmlns:xlink="http://www.w3.org/1999/xlink">
<g id="graph0" class="graph" transform="scale(1 1) rotate(0) translate(4 516)">
<title>Tree</title>
<polygon fill="white" stroke="transparent" points="-4,4 -4,-516 2323,-516 2323,4 -4,4"/>
<!-- 0 -->
<g id="node1" class="node">
<title>0</title>
<polygon fill="#fcebf5" stroke="black" points="1263,-512 916,-512 916,-429 1263,-429 1263,-512"/>
<text text-anchor="middle" x="1089.5" y="-496.8" font-family="Times,serif" font-size="14.00">CCR &lt;= 5.5</text>
<text text-anchor="middle" x="1089.5" y="-481.8" font-family="Times,serif" font-size="14.00">gini = 0.782</text>
<text text-anchor="middle" x="1089.5" y="-466.8" font-family="Times,serif" font-size="14.00">samples = 26325</text>
<text text-anchor="middle" x="1089.5" y="-451.8" font-family="Times,serif" font-size="14.00">value = [5409, 1316, 4176, 1376, 5992, 8056]</text>
<text text-anchor="middle" x="1089.5" y="-436.8" font-family="Times,serif" font-size="14.00">class = GDL</text>
</g>
<!-- 1 -->
<g id="node2" class="node">
<title>1</title>
<polygon fill="#f9d1e8" stroke="black" points="1001,-393 690,-393 690,-310 1001,-310 1001,-393"/>
<text text-anchor="middle" x="845.5" y="-377.8" font-family="Times,serif" font-size="14.00">graphSize &lt;= 75.0</text>
<text text-anchor="middle" x="845.5" y="-362.8" font-family="Times,serif" font-size="14.00">gini = 0.679</text>
<text text-anchor="middle" x="845.5" y="-347.8" font-family="Times,serif" font-size="14.00">samples = 16341</text>
<text text-anchor="middle" x="845.5" y="-332.8" font-family="Times,serif" font-size="14.00">value = [3889, 356, 80, 494, 4382, 7140]</text>
<text text-anchor="middle" x="845.5" y="-317.8" font-family="Times,serif" font-size="14.00">class = GDL</text>
</g>
<!-- 0&#45;&gt;1 -->
<g id="edge1" class="edge">
<title>0&#45;&gt;1</title>
<path fill="none" stroke="black" d="M1004.85,-428.91C983.65,-418.74 960.79,-407.78 939.18,-397.42"/>
<polygon fill="black" stroke="black" points="940.54,-394.19 930,-393.02 937.51,-400.5 940.54,-394.19"/>
<text text-anchor="middle" x="938.3" y="-412.9" font-family="Times,serif" font-size="14.00">True</text>
</g>
<!-- 502 -->
<g id="node17" class="node">
<title>502</title>
<polygon fill="#c4f7da" stroke="black" points="1560.5,-393 1240.5,-393 1240.5,-310 1560.5,-310 1560.5,-393"/>
<text text-anchor="middle" x="1400.5" y="-377.8" font-family="Times,serif" font-size="14.00">sdComp &lt;= 2.0</text>
<text text-anchor="middle" x="1400.5" y="-362.8" font-family="Times,serif" font-size="14.00">gini = 0.757</text>
<text text-anchor="middle" x="1400.5" y="-347.8" font-family="Times,serif" font-size="14.00">samples = 9984</text>
<text text-anchor="middle" x="1400.5" y="-332.8" font-family="Times,serif" font-size="14.00">value = [1520, 960, 4096, 882, 1610, 916]</text>
<text text-anchor="middle" x="1400.5" y="-317.8" font-family="Times,serif" font-size="14.00">class = OLB</text>
</g>
<!-- 0&#45;&gt;502 -->
<g id="edge16" class="edge">
<title>0&#45;&gt;502</title>
<path fill="none" stroke="black" d="M1197.4,-428.91C1225.14,-418.47 1255.12,-407.19 1283.31,-396.59"/>
<polygon fill="black" stroke="black" points="1284.66,-399.82 1292.79,-393.02 1282.2,-393.27 1284.66,-399.82"/>
<text text-anchor="middle" x="1282.47" y="-412.09" font-family="Times,serif" font-size="14.00">False</text>
</g>
<!-- 2 -->
<g id="node3" class="node">
<title>2</title>
<polygon fill="#fad7eb" stroke="black" points="631,-274 320,-274 320,-191 631,-191 631,-274"/>
<text text-anchor="middle" x="475.5" y="-258.8" font-family="Times,serif" font-size="14.00">CCR &lt;= 0.55</text>
<text text-anchor="middle" x="475.5" y="-243.8" font-family="Times,serif" font-size="14.00">gini = 0.686</text>
<text text-anchor="middle" x="475.5" y="-228.8" font-family="Times,serif" font-size="14.00">samples = 15531</text>
<text text-anchor="middle" x="475.5" y="-213.8" font-family="Times,serif" font-size="14.00">value = [3775, 356, 80, 494, 4266, 6560]</text>
<text text-anchor="middle" x="475.5" y="-198.8" font-family="Times,serif" font-size="14.00">class = GDL</text>
</g>
<!-- 1&#45;&gt;2 -->
<g id="edge2" class="edge">
<title>1&#45;&gt;2</title>
<path fill="none" stroke="black" d="M717.39,-309.99C683.8,-299.37 647.44,-287.87 613.36,-277.09"/>
<polygon fill="black" stroke="black" points="614.4,-273.75 603.81,-274.07 612.29,-280.43 614.4,-273.75"/>
</g>
<!-- 409 -->
<g id="node10" class="node">
<title>409</title>
<polygon fill="#ee7bbd" stroke="black" points="965,-274 726,-274 726,-191 965,-191 965,-274"/>
<text text-anchor="middle" x="845.5" y="-258.8" font-family="Times,serif" font-size="14.00">sdComp &lt;= 0.02</text>
<text text-anchor="middle" x="845.5" y="-243.8" font-family="Times,serif" font-size="14.00">gini = 0.447</text>
<text text-anchor="middle" x="845.5" y="-228.8" font-family="Times,serif" font-size="14.00">samples = 810</text>
<text text-anchor="middle" x="845.5" y="-213.8" font-family="Times,serif" font-size="14.00">value = [114, 0, 0, 0, 116, 580]</text>
<text text-anchor="middle" x="845.5" y="-198.8" font-family="Times,serif" font-size="14.00">class = GDL</text>
</g>
<!-- 1&#45;&gt;409 -->
<g id="edge9" class="edge">
<title>1&#45;&gt;409</title>
<path fill="none" stroke="black" d="M845.5,-309.91C845.5,-301.65 845.5,-292.86 845.5,-284.3"/>
<polygon fill="black" stroke="black" points="849,-284.02 845.5,-274.02 842,-284.02 849,-284.02"/>
</g>
<!-- 3 -->
<g id="node4" class="node">
<title>3</title>
<polygon fill="#fbe0f0" stroke="black" points="311,-155 0,-155 0,-72 311,-72 311,-155"/>
<text text-anchor="middle" x="155.5" y="-139.8" font-family="Times,serif" font-size="14.00">sdComp &lt;= 0.02</text>
<text text-anchor="middle" x="155.5" y="-124.8" font-family="Times,serif" font-size="14.00">gini = 0.692</text>
<text text-anchor="middle" x="155.5" y="-109.8" font-family="Times,serif" font-size="14.00">samples = 10306</text>
<text text-anchor="middle" x="155.5" y="-94.8" font-family="Times,serif" font-size="14.00">value = [2890, 120, 32, 418, 2812, 4034]</text>
<text text-anchor="middle" x="155.5" y="-79.8" font-family="Times,serif" font-size="14.00">class = GDL</text>
</g>
<!-- 2&#45;&gt;3 -->
<g id="edge3" class="edge">
<title>2&#45;&gt;3</title>
<path fill="none" stroke="black" d="M364.48,-190.91C335.93,-180.47 305.09,-169.19 276.09,-158.59"/>
<polygon fill="black" stroke="black" points="276.92,-155.17 266.33,-155.02 274.52,-161.74 276.92,-155.17"/>
</g>
<!-- 208 -->
<g id="node7" class="node">
<title>208</title>
<polygon fill="#f8c7e3" stroke="black" points="622,-155 329,-155 329,-72 622,-72 622,-155"/>
<text text-anchor="middle" x="475.5" y="-139.8" font-family="Times,serif" font-size="14.00">graphSize &lt;= 22.5</text>
<text text-anchor="middle" x="475.5" y="-124.8" font-family="Times,serif" font-size="14.00">gini = 0.658</text>
<text text-anchor="middle" x="475.5" y="-109.8" font-family="Times,serif" font-size="14.00">samples = 5225</text>
<text text-anchor="middle" x="475.5" y="-94.8" font-family="Times,serif" font-size="14.00">value = [885, 236, 48, 76, 1454, 2526]</text>
<text text-anchor="middle" x="475.5" y="-79.8" font-family="Times,serif" font-size="14.00">class = GDL</text>
</g>
<!-- 2&#45;&gt;208 -->
<g id="edge6" class="edge">
<title>2&#45;&gt;208</title>
<path fill="none" stroke="black" d="M475.5,-190.91C475.5,-182.65 475.5,-173.86 475.5,-165.3"/>
<polygon fill="black" stroke="black" points="479,-165.02 475.5,-155.02 472,-165.02 479,-165.02"/>
</g>
<!-- 4 -->
<g id="node5" class="node">
<title>4</title>
<polygon fill="#c0c0c0" stroke="black" points="146.5,-36 92.5,-36 92.5,0 146.5,0 146.5,-36"/>
<text text-anchor="middle" x="119.5" y="-14.3" font-family="Times,serif" font-size="14.00">(...)</text>
</g>
<!-- 3&#45;&gt;4 -->
<g id="edge4" class="edge">
<title>3&#45;&gt;4</title>
<path fill="none" stroke="black" d="M139.81,-71.76C136.46,-63.04 132.99,-54.04 129.89,-45.99"/>
<polygon fill="black" stroke="black" points="133.06,-44.48 126.2,-36.41 126.53,-46.99 133.06,-44.48"/>
</g>
<!-- 69 -->
<g id="node6" class="node">
<title>69</title>
<polygon fill="#c0c0c0" stroke="black" points="218.5,-36 164.5,-36 164.5,0 218.5,0 218.5,-36"/>
<text text-anchor="middle" x="191.5" y="-14.3" font-family="Times,serif" font-size="14.00">(...)</text>
</g>
<!-- 3&#45;&gt;69 -->
<g id="edge5" class="edge">
<title>3&#45;&gt;69</title>
<path fill="none" stroke="black" d="M171.19,-71.76C174.54,-63.04 178.01,-54.04 181.11,-45.99"/>
<polygon fill="black" stroke="black" points="184.47,-46.99 184.8,-36.41 177.94,-44.48 184.47,-46.99"/>
</g>
<!-- 209 -->
<g id="node8" class="node">
<title>209</title>
<polygon fill="#c0c0c0" stroke="black" points="466.5,-36 412.5,-36 412.5,0 466.5,0 466.5,-36"/>
<text text-anchor="middle" x="439.5" y="-14.3" font-family="Times,serif" font-size="14.00">(...)</text>
</g>
<!-- 208&#45;&gt;209 -->
<g id="edge7" class="edge">
<title>208&#45;&gt;209</title>
<path fill="none" stroke="black" d="M459.81,-71.76C456.46,-63.04 452.99,-54.04 449.89,-45.99"/>
<polygon fill="black" stroke="black" points="453.06,-44.48 446.2,-36.41 446.53,-46.99 453.06,-44.48"/>
</g>
<!-- 280 -->
<g id="node9" class="node">
<title>280</title>
<polygon fill="#c0c0c0" stroke="black" points="538.5,-36 484.5,-36 484.5,0 538.5,0 538.5,-36"/>
<text text-anchor="middle" x="511.5" y="-14.3" font-family="Times,serif" font-size="14.00">(...)</text>
</g>
<!-- 208&#45;&gt;280 -->
<g id="edge8" class="edge">
<title>208&#45;&gt;280</title>
<path fill="none" stroke="black" d="M491.19,-71.76C494.54,-63.04 498.01,-54.04 501.11,-45.99"/>
<polygon fill="black" stroke="black" points="504.47,-46.99 504.8,-36.41 497.94,-44.48 504.47,-46.99"/>
</g>
<!-- 410 -->
<g id="node11" class="node">
<title>410</title>
<polygon fill="#ea5cae" stroke="black" points="852.5,-155 640.5,-155 640.5,-72 852.5,-72 852.5,-155"/>
<text text-anchor="middle" x="746.5" y="-139.8" font-family="Times,serif" font-size="14.00">nbproc &lt;= 4.5</text>
<text text-anchor="middle" x="746.5" y="-124.8" font-family="Times,serif" font-size="14.00">gini = 0.267</text>
<text text-anchor="middle" x="746.5" y="-109.8" font-family="Times,serif" font-size="14.00">samples = 156</text>
<text text-anchor="middle" x="746.5" y="-94.8" font-family="Times,serif" font-size="14.00">value = [4, 0, 0, 0, 20, 132]</text>
<text text-anchor="middle" x="746.5" y="-79.8" font-family="Times,serif" font-size="14.00">class = GDL</text>
</g>
<!-- 409&#45;&gt;410 -->
<g id="edge10" class="edge">
<title>409&#45;&gt;410</title>
<path fill="none" stroke="black" d="M811.15,-190.91C803.47,-181.83 795.26,-172.12 787.34,-162.77"/>
<polygon fill="black" stroke="black" points="789.92,-160.39 780.79,-155.02 784.57,-164.92 789.92,-160.39"/>
</g>
<!-- 425 -->
<g id="node14" class="node">
<title>425</title>
<polygon fill="#ef84c2" stroke="black" points="1100.5,-155 870.5,-155 870.5,-72 1100.5,-72 1100.5,-155"/>
<text text-anchor="middle" x="985.5" y="-139.8" font-family="Times,serif" font-size="14.00">sdComm &lt;= 0.065</text>
<text text-anchor="middle" x="985.5" y="-124.8" font-family="Times,serif" font-size="14.00">gini = 0.481</text>
<text text-anchor="middle" x="985.5" y="-109.8" font-family="Times,serif" font-size="14.00">samples = 654</text>
<text text-anchor="middle" x="985.5" y="-94.8" font-family="Times,serif" font-size="14.00">value = [110, 0, 0, 0, 96, 448]</text>
<text text-anchor="middle" x="985.5" y="-79.8" font-family="Times,serif" font-size="14.00">class = GDL</text>
</g>
<!-- 409&#45;&gt;425 -->
<g id="edge13" class="edge">
<title>409&#45;&gt;425</title>
<path fill="none" stroke="black" d="M894.07,-190.91C905.37,-181.47 917.48,-171.34 929.08,-161.65"/>
<polygon fill="black" stroke="black" points="931.58,-164.12 937.01,-155.02 927.1,-158.75 931.58,-164.12"/>
</g>
<!-- 411 -->
<g id="node12" class="node">
<title>411</title>
<polygon fill="#c0c0c0" stroke="black" points="737.5,-36 683.5,-36 683.5,0 737.5,0 737.5,-36"/>
<text text-anchor="middle" x="710.5" y="-14.3" font-family="Times,serif" font-size="14.00">(...)</text>
</g>
<!-- 410&#45;&gt;411 -->
<g id="edge11" class="edge">
<title>410&#45;&gt;411</title>
<path fill="none" stroke="black" d="M730.81,-71.76C727.46,-63.04 723.99,-54.04 720.89,-45.99"/>
<polygon fill="black" stroke="black" points="724.06,-44.48 717.2,-36.41 717.53,-46.99 724.06,-44.48"/>
</g>
<!-- 418 -->
<g id="node13" class="node">
<title>418</title>
<polygon fill="#c0c0c0" stroke="black" points="809.5,-36 755.5,-36 755.5,0 809.5,0 809.5,-36"/>
<text text-anchor="middle" x="782.5" y="-14.3" font-family="Times,serif" font-size="14.00">(...)</text>
</g>
<!-- 410&#45;&gt;418 -->
<g id="edge12" class="edge">
<title>410&#45;&gt;418</title>
<path fill="none" stroke="black" d="M762.19,-71.76C765.54,-63.04 769.01,-54.04 772.11,-45.99"/>
<polygon fill="black" stroke="black" points="775.47,-46.99 775.8,-36.41 768.94,-44.48 775.47,-46.99"/>
</g>
<!-- 426 -->
<g id="node15" class="node">
<title>426</title>
<polygon fill="#c0c0c0" stroke="black" points="976.5,-36 922.5,-36 922.5,0 976.5,0 976.5,-36"/>
<text text-anchor="middle" x="949.5" y="-14.3" font-family="Times,serif" font-size="14.00">(...)</text>
</g>
<!-- 425&#45;&gt;426 -->
<g id="edge14" class="edge">
<title>425&#45;&gt;426</title>
<path fill="none" stroke="black" d="M969.81,-71.76C966.46,-63.04 962.99,-54.04 959.89,-45.99"/>
<polygon fill="black" stroke="black" points="963.06,-44.48 956.2,-36.41 956.53,-46.99 963.06,-44.48"/>
</g>
<!-- 445 -->
<g id="node16" class="node">
<title>445</title>
<polygon fill="#c0c0c0" stroke="black" points="1048.5,-36 994.5,-36 994.5,0 1048.5,0 1048.5,-36"/>
<text text-anchor="middle" x="1021.5" y="-14.3" font-family="Times,serif" font-size="14.00">(...)</text>
</g>
<!-- 425&#45;&gt;445 -->
<g id="edge15" class="edge">
<title>425&#45;&gt;445</title>
<path fill="none" stroke="black" d="M1001.19,-71.76C1004.54,-63.04 1008.01,-54.04 1011.11,-45.99"/>
<polygon fill="black" stroke="black" points="1014.47,-46.99 1014.8,-36.41 1007.94,-44.48 1014.47,-46.99"/>
</g>
<!-- 503 -->
<g id="node18" class="node">
<title>503</title>
<polygon fill="#bbf6d4" stroke="black" points="1551.5,-274 1249.5,-274 1249.5,-191 1551.5,-191 1551.5,-274"/>
<text text-anchor="middle" x="1400.5" y="-258.8" font-family="Times,serif" font-size="14.00">graphSize &lt;= 22.5</text>
<text text-anchor="middle" x="1400.5" y="-243.8" font-family="Times,serif" font-size="14.00">gini = 0.705</text>
<text text-anchor="middle" x="1400.5" y="-228.8" font-family="Times,serif" font-size="14.00">samples = 3508</text>
<text text-anchor="middle" x="1400.5" y="-213.8" font-family="Times,serif" font-size="14.00">value = [330, 300, 1668, 716, 326, 168]</text>
<text text-anchor="middle" x="1400.5" y="-198.8" font-family="Times,serif" font-size="14.00">class = OLB</text>
</g>
<!-- 502&#45;&gt;503 -->
<g id="edge17" class="edge">
<title>502&#45;&gt;503</title>
<path fill="none" stroke="black" d="M1400.5,-309.91C1400.5,-301.65 1400.5,-292.86 1400.5,-284.3"/>
<polygon fill="black" stroke="black" points="1404,-284.02 1400.5,-274.02 1397,-284.02 1404,-284.02"/>
</g>
<!-- 598 -->
<g id="node25" class="node">
<title>598</title>
<polygon fill="#d3f9e3" stroke="black" points="2034.5,-274 1714.5,-274 1714.5,-191 2034.5,-191 2034.5,-274"/>
<text text-anchor="middle" x="1874.5" y="-258.8" font-family="Times,serif" font-size="14.00">sdComp &lt;= 6.5</text>
<text text-anchor="middle" x="1874.5" y="-243.8" font-family="Times,serif" font-size="14.00">gini = 0.762</text>
<text text-anchor="middle" x="1874.5" y="-228.8" font-family="Times,serif" font-size="14.00">samples = 6476</text>
<text text-anchor="middle" x="1874.5" y="-213.8" font-family="Times,serif" font-size="14.00">value = [1190, 660, 2428, 166, 1284, 748]</text>
<text text-anchor="middle" x="1874.5" y="-198.8" font-family="Times,serif" font-size="14.00">class = OLB</text>
</g>
<!-- 502&#45;&gt;598 -->
<g id="edge24" class="edge">
<title>502&#45;&gt;598</title>
<path fill="none" stroke="black" d="M1560.64,-310.97C1606.92,-299.55 1657.58,-287.04 1704.44,-275.48"/>
<polygon fill="black" stroke="black" points="1705.51,-278.82 1714.38,-273.02 1703.83,-272.02 1705.51,-278.82"/>
</g>
<!-- 504 -->
<g id="node19" class="node">
<title>504</title>
<polygon fill="#dafae8" stroke="black" points="1394,-155 1119,-155 1119,-72 1394,-72 1394,-155"/>
<text text-anchor="middle" x="1256.5" y="-139.8" font-family="Times,serif" font-size="14.00">sdComm &lt;= 2.0</text>
<text text-anchor="middle" x="1256.5" y="-124.8" font-family="Times,serif" font-size="14.00">gini = 0.79</text>
<text text-anchor="middle" x="1256.5" y="-109.8" font-family="Times,serif" font-size="14.00">samples = 932</text>
<text text-anchor="middle" x="1256.5" y="-94.8" font-family="Times,serif" font-size="14.00">value = [116, 94, 320, 180, 134, 88]</text>
<text text-anchor="middle" x="1256.5" y="-79.8" font-family="Times,serif" font-size="14.00">class = OLB</text>
</g>
<!-- 503&#45;&gt;504 -->
<g id="edge18" class="edge">
<title>503&#45;&gt;504</title>
<path fill="none" stroke="black" d="M1350.54,-190.91C1338.81,-181.38 1326.22,-171.15 1314.19,-161.37"/>
<polygon fill="black" stroke="black" points="1316.34,-158.61 1306.37,-155.02 1311.93,-164.04 1316.34,-158.61"/>
</g>
<!-- 527 -->
<g id="node22" class="node">
<title>527</title>
<polygon fill="#b0f5cd" stroke="black" points="1705,-155 1412,-155 1412,-72 1705,-72 1705,-155"/>
<text text-anchor="middle" x="1558.5" y="-139.8" font-family="Times,serif" font-size="14.00">graphDepth &lt;= 25.5</text>
<text text-anchor="middle" x="1558.5" y="-124.8" font-family="Times,serif" font-size="14.00">gini = 0.663</text>
<text text-anchor="middle" x="1558.5" y="-109.8" font-family="Times,serif" font-size="14.00">samples = 2576</text>
<text text-anchor="middle" x="1558.5" y="-94.8" font-family="Times,serif" font-size="14.00">value = [214, 206, 1348, 536, 192, 80]</text>
<text text-anchor="middle" x="1558.5" y="-79.8" font-family="Times,serif" font-size="14.00">class = OLB</text>
</g>
<!-- 503&#45;&gt;527 -->
<g id="edge21" class="edge">
<title>503&#45;&gt;527</title>
<path fill="none" stroke="black" d="M1455.32,-190.91C1468.31,-181.29 1482.26,-170.95 1495.58,-161.09"/>
<polygon fill="black" stroke="black" points="1497.83,-163.78 1503.78,-155.02 1493.66,-158.16 1497.83,-163.78"/>
</g>
<!-- 505 -->
<g id="node20" class="node">
<title>505</title>
<polygon fill="#c0c0c0" stroke="black" points="1247.5,-36 1193.5,-36 1193.5,0 1247.5,0 1247.5,-36"/>
<text text-anchor="middle" x="1220.5" y="-14.3" font-family="Times,serif" font-size="14.00">(...)</text>
</g>
<!-- 504&#45;&gt;505 -->
<g id="edge19" class="edge">
<title>504&#45;&gt;505</title>
<path fill="none" stroke="black" d="M1240.81,-71.76C1237.46,-63.04 1233.99,-54.04 1230.89,-45.99"/>
<polygon fill="black" stroke="black" points="1234.06,-44.48 1227.2,-36.41 1227.53,-46.99 1234.06,-44.48"/>
</g>
<!-- 512 -->
<g id="node21" class="node">
<title>512</title>
<polygon fill="#c0c0c0" stroke="black" points="1319.5,-36 1265.5,-36 1265.5,0 1319.5,0 1319.5,-36"/>
<text text-anchor="middle" x="1292.5" y="-14.3" font-family="Times,serif" font-size="14.00">(...)</text>
</g>
<!-- 504&#45;&gt;512 -->
<g id="edge20" class="edge">
<title>504&#45;&gt;512</title>
<path fill="none" stroke="black" d="M1272.19,-71.76C1275.54,-63.04 1279.01,-54.04 1282.11,-45.99"/>
<polygon fill="black" stroke="black" points="1285.47,-46.99 1285.8,-36.41 1278.94,-44.48 1285.47,-46.99"/>
</g>
<!-- 528 -->
<g id="node23" class="node">
<title>528</title>
<polygon fill="#c0c0c0" stroke="black" points="1549.5,-36 1495.5,-36 1495.5,0 1549.5,0 1549.5,-36"/>
<text text-anchor="middle" x="1522.5" y="-14.3" font-family="Times,serif" font-size="14.00">(...)</text>
</g>
<!-- 527&#45;&gt;528 -->
<g id="edge22" class="edge">
<title>527&#45;&gt;528</title>
<path fill="none" stroke="black" d="M1542.81,-71.76C1539.46,-63.04 1535.99,-54.04 1532.89,-45.99"/>
<polygon fill="black" stroke="black" points="1536.06,-44.48 1529.2,-36.41 1529.53,-46.99 1536.06,-44.48"/>
</g>
<!-- 587 -->
<g id="node24" class="node">
<title>587</title>
<polygon fill="#c0c0c0" stroke="black" points="1621.5,-36 1567.5,-36 1567.5,0 1621.5,0 1621.5,-36"/>
<text text-anchor="middle" x="1594.5" y="-14.3" font-family="Times,serif" font-size="14.00">(...)</text>
</g>
<!-- 527&#45;&gt;587 -->
<g id="edge23" class="edge">
<title>527&#45;&gt;587</title>
<path fill="none" stroke="black" d="M1574.19,-71.76C1577.54,-63.04 1581.01,-54.04 1584.11,-45.99"/>
<polygon fill="black" stroke="black" points="1587.47,-46.99 1587.8,-36.41 1580.94,-44.48 1587.47,-46.99"/>
</g>
<!-- 599 -->
<g id="node26" class="node">
<title>599</title>
<polygon fill="#c5f7da" stroke="black" points="2025.5,-155 1723.5,-155 1723.5,-72 2025.5,-72 2025.5,-155"/>
<text text-anchor="middle" x="1874.5" y="-139.8" font-family="Times,serif" font-size="14.00">graphSize &lt;= 22.5</text>
<text text-anchor="middle" x="1874.5" y="-124.8" font-family="Times,serif" font-size="14.00">gini = 0.739</text>
<text text-anchor="middle" x="1874.5" y="-109.8" font-family="Times,serif" font-size="14.00">samples = 3700</text>
<text text-anchor="middle" x="1874.5" y="-94.8" font-family="Times,serif" font-size="14.00">value = [688, 340, 1572, 162, 630, 308]</text>
<text text-anchor="middle" x="1874.5" y="-79.8" font-family="Times,serif" font-size="14.00">class = OLB</text>
</g>
<!-- 598&#45;&gt;599 -->
<g id="edge25" class="edge">
<title>598&#45;&gt;599</title>
<path fill="none" stroke="black" d="M1874.5,-190.91C1874.5,-182.65 1874.5,-173.86 1874.5,-165.3"/>
<polygon fill="black" stroke="black" points="1878,-165.02 1874.5,-155.02 1871,-165.02 1878,-165.02"/>
</g>
<!-- 692 -->
<g id="node29" class="node">
<title>692</title>
<polygon fill="#ecfdf3" stroke="black" points="2319,-155 2044,-155 2044,-72 2319,-72 2319,-155"/>
<text text-anchor="middle" x="2181.5" y="-139.8" font-family="Times,serif" font-size="14.00">sdComm &lt;= 2.0</text>
<text text-anchor="middle" x="2181.5" y="-124.8" font-family="Times,serif" font-size="14.00">gini = 0.778</text>
<text text-anchor="middle" x="2181.5" y="-109.8" font-family="Times,serif" font-size="14.00">samples = 2776</text>
<text text-anchor="middle" x="2181.5" y="-94.8" font-family="Times,serif" font-size="14.00">value = [502, 320, 856, 4, 654, 440]</text>
<text text-anchor="middle" x="2181.5" y="-79.8" font-family="Times,serif" font-size="14.00">class = OLB</text>
</g>
<!-- 598&#45;&gt;692 -->
<g id="edge28" class="edge">
<title>598&#45;&gt;692</title>
<path fill="none" stroke="black" d="M1981.01,-190.91C2008.4,-180.47 2037.99,-169.19 2065.81,-158.59"/>
<polygon fill="black" stroke="black" points="2067.08,-161.85 2075.18,-155.02 2064.59,-155.31 2067.08,-161.85"/>
</g>
<!-- 600 -->
<g id="node27" class="node">
<title>600</title>
<polygon fill="#c0c0c0" stroke="black" points="1865.5,-36 1811.5,-36 1811.5,0 1865.5,0 1865.5,-36"/>
<text text-anchor="middle" x="1838.5" y="-14.3" font-family="Times,serif" font-size="14.00">(...)</text>
</g>
<!-- 599&#45;&gt;600 -->
<g id="edge26" class="edge">
<title>599&#45;&gt;600</title>
<path fill="none" stroke="black" d="M1858.81,-71.76C1855.46,-63.04 1851.99,-54.04 1848.89,-45.99"/>
<polygon fill="black" stroke="black" points="1852.06,-44.48 1845.2,-36.41 1845.53,-46.99 1852.06,-44.48"/>
</g>
<!-- 623 -->
<g id="node28" class="node">
<title>623</title>
<polygon fill="#c0c0c0" stroke="black" points="1937.5,-36 1883.5,-36 1883.5,0 1937.5,0 1937.5,-36"/>
<text text-anchor="middle" x="1910.5" y="-14.3" font-family="Times,serif" font-size="14.00">(...)</text>
</g>
<!-- 599&#45;&gt;623 -->
<g id="edge27" class="edge">
<title>599&#45;&gt;623</title>
<path fill="none" stroke="black" d="M1890.19,-71.76C1893.54,-63.04 1897.01,-54.04 1900.11,-45.99"/>
<polygon fill="black" stroke="black" points="1903.47,-46.99 1903.8,-36.41 1896.94,-44.48 1903.47,-46.99"/>
</g>
<!-- 693 -->
<g id="node30" class="node">
<title>693</title>
<polygon fill="#c0c0c0" stroke="black" points="2172.5,-36 2118.5,-36 2118.5,0 2172.5,0 2172.5,-36"/>
<text text-anchor="middle" x="2145.5" y="-14.3" font-family="Times,serif" font-size="14.00">(...)</text>
</g>
<!-- 692&#45;&gt;693 -->
<g id="edge29" class="edge">
<title>692&#45;&gt;693</title>
<path fill="none" stroke="black" d="M2165.81,-71.76C2162.46,-63.04 2158.99,-54.04 2155.89,-45.99"/>
<polygon fill="black" stroke="black" points="2159.06,-44.48 2152.2,-36.41 2152.53,-46.99 2159.06,-44.48"/>
</g>
<!-- 724 -->
<g id="node31" class="node">
<title>724</title>
<polygon fill="#c0c0c0" stroke="black" points="2244.5,-36 2190.5,-36 2190.5,0 2244.5,0 2244.5,-36"/>
<text text-anchor="middle" x="2217.5" y="-14.3" font-family="Times,serif" font-size="14.00">(...)</text>
</g>
<!-- 692&#45;&gt;724 -->
<g id="edge30" class="edge">
<title>692&#45;&gt;724</title>
<path fill="none" stroke="black" d="M2197.19,-71.76C2200.54,-63.04 2204.01,-54.04 2207.11,-45.99"/>
<polygon fill="black" stroke="black" points="2210.47,-46.99 2210.8,-36.41 2203.94,-44.48 2210.47,-46.99"/>
</g>
</g>
</svg>
