<?xml version="1.0" encoding="UTF-8" standalone="no"?>
<!DOCTYPE svg PUBLIC "-//W3C//DTD SVG 1.1//EN"
 "http://www.w3.org/Graphics/SVG/1.1/DTD/svg11.dtd">
<!-- Generated by graphviz version 2.43.0 (0)
 -->
<!-- Title: Tree Pages: 1 -->
<svg width="1427pt" height="520pt"
 viewBox="0.00 0.00 1427.00 520.00" xmlns="http://www.w3.org/2000/svg" xmlns:xlink="http://www.w3.org/1999/xlink">
<g id="graph0" class="graph" transform="scale(1 1) rotate(0) translate(4 516)">
<title>Tree</title>
<polygon fill="white" stroke="transparent" points="-4,4 -4,-516 1423,-516 1423,4 -4,4"/>
<!-- 0 -->
<g id="node1" class="node">
<title>0</title>
<polygon fill="#a5d2f3" stroke="black" points="799,-512 623,-512 623,-429 799,-429 799,-512"/>
<text text-anchor="middle" x="711" y="-496.8" font-family="Times,serif" font-size="14.00">sdComp &lt;= 0.65</text>
<text text-anchor="middle" x="711" y="-481.8" font-family="Times,serif" font-size="14.00">gini = 0.456</text>
<text text-anchor="middle" x="711" y="-466.8" font-family="Times,serif" font-size="14.00">samples = 26325</text>
<text text-anchor="middle" x="711" y="-451.8" font-family="Times,serif" font-size="14.00">value = [9278, 17047]</text>
<text text-anchor="middle" x="711" y="-436.8" font-family="Times,serif" font-size="14.00">class = True</text>
</g>
<!-- 1 -->
<g id="node2" class="node">
<title>1</title>
<polygon fill="#cfe7f9" stroke="black" points="612.5,-393 445.5,-393 445.5,-310 612.5,-310 612.5,-393"/>
<text text-anchor="middle" x="529" y="-377.8" font-family="Times,serif" font-size="14.00">nbproc &lt;= 4.5</text>
<text text-anchor="middle" x="529" y="-362.8" font-family="Times,serif" font-size="14.00">gini = 0.49</text>
<text text-anchor="middle" x="529" y="-347.8" font-family="Times,serif" font-size="14.00">samples = 14544</text>
<text text-anchor="middle" x="529" y="-332.8" font-family="Times,serif" font-size="14.00">value = [6260, 8284]</text>
<text text-anchor="middle" x="529" y="-317.8" font-family="Times,serif" font-size="14.00">class = True</text>
</g>
<!-- 0&#45;&gt;1 -->
<g id="edge1" class="edge">
<title>0&#45;&gt;1</title>
<path fill="none" stroke="black" d="M647.86,-428.91C632.61,-419.11 616.21,-408.56 600.61,-398.53"/>
<polygon fill="black" stroke="black" points="602.34,-395.48 592.03,-393.02 598.55,-401.37 602.34,-395.48"/>
<text text-anchor="middle" x="597.34" y="-413.75" font-family="Times,serif" font-size="14.00">True</text>
</g>
<!-- 416 -->
<g id="node17" class="node">
<title>416</title>
<polygon fill="#7dbfee" stroke="black" points="977.5,-393 810.5,-393 810.5,-310 977.5,-310 977.5,-393"/>
<text text-anchor="middle" x="894" y="-377.8" font-family="Times,serif" font-size="14.00">sdComp &lt;= 6.5</text>
<text text-anchor="middle" x="894" y="-362.8" font-family="Times,serif" font-size="14.00">gini = 0.381</text>
<text text-anchor="middle" x="894" y="-347.8" font-family="Times,serif" font-size="14.00">samples = 11781</text>
<text text-anchor="middle" x="894" y="-332.8" font-family="Times,serif" font-size="14.00">value = [3018, 8763]</text>
<text text-anchor="middle" x="894" y="-317.8" font-family="Times,serif" font-size="14.00">class = True</text>
</g>
<!-- 0&#45;&gt;416 -->
<g id="edge16" class="edge">
<title>0&#45;&gt;416</title>
<path fill="none" stroke="black" d="M774.49,-428.91C789.82,-419.11 806.31,-408.56 822,-398.53"/>
<polygon fill="black" stroke="black" points="824.08,-401.36 830.62,-393.02 820.31,-395.46 824.08,-401.36"/>
<text text-anchor="middle" x="825.25" y="-413.74" font-family="Times,serif" font-size="14.00">False</text>
</g>
<!-- 2 -->
<g id="node3" class="node">
<title>2</title>
<polygon fill="#b2d9f5" stroke="black" points="337.5,-274 170.5,-274 170.5,-191 337.5,-191 337.5,-274"/>
<text text-anchor="middle" x="254" y="-258.8" font-family="Times,serif" font-size="14.00">graphDepth &lt;= 3.5</text>
<text text-anchor="middle" x="254" y="-243.8" font-family="Times,serif" font-size="14.00">gini = 0.471</text>
<text text-anchor="middle" x="254" y="-228.8" font-family="Times,serif" font-size="14.00">samples = 4460</text>
<text text-anchor="middle" x="254" y="-213.8" font-family="Times,serif" font-size="14.00">value = [1696, 2764]</text>
<text text-anchor="middle" x="254" y="-198.8" font-family="Times,serif" font-size="14.00">class = True</text>
</g>
<!-- 1&#45;&gt;2 -->
<g id="edge2" class="edge">
<title>1&#45;&gt;2</title>
<path fill="none" stroke="black" d="M445.37,-314.92C414.31,-301.7 378.88,-286.63 347.03,-273.08"/>
<polygon fill="black" stroke="black" points="348.28,-269.81 337.71,-269.11 345.54,-276.25 348.28,-269.81"/>
</g>
<!-- 199 -->
<g id="node10" class="node">
<title>199</title>
<polygon fill="#ddeefa" stroke="black" points="612.5,-274 445.5,-274 445.5,-191 612.5,-191 612.5,-274"/>
<text text-anchor="middle" x="529" y="-258.8" font-family="Times,serif" font-size="14.00">graphSize &lt;= 22.5</text>
<text text-anchor="middle" x="529" y="-243.8" font-family="Times,serif" font-size="14.00">gini = 0.496</text>
<text text-anchor="middle" x="529" y="-228.8" font-family="Times,serif" font-size="14.00">samples = 10084</text>
<text text-anchor="middle" x="529" y="-213.8" font-family="Times,serif" font-size="14.00">value = [4564, 5520]</text>
<text text-anchor="middle" x="529" y="-198.8" font-family="Times,serif" font-size="14.00">class = True</text>
</g>
<!-- 1&#45;&gt;199 -->
<g id="edge9" class="edge">
<title>1&#45;&gt;199</title>
<path fill="none" stroke="black" d="M529,-309.91C529,-301.65 529,-292.86 529,-284.3"/>
<polygon fill="black" stroke="black" points="532.5,-284.02 529,-274.02 525.5,-284.02 532.5,-284.02"/>
</g>
<!-- 3 -->
<g id="node4" class="node">
<title>3</title>
<polygon fill="#6fb8ec" stroke="black" points="152,-155 0,-155 0,-72 152,-72 152,-155"/>
<text text-anchor="middle" x="76" y="-139.8" font-family="Times,serif" font-size="14.00">sdComm &lt;= 0.065</text>
<text text-anchor="middle" x="76" y="-124.8" font-family="Times,serif" font-size="14.00">gini = 0.336</text>
<text text-anchor="middle" x="76" y="-109.8" font-family="Times,serif" font-size="14.00">samples = 664</text>
<text text-anchor="middle" x="76" y="-94.8" font-family="Times,serif" font-size="14.00">value = [142, 522]</text>
<text text-anchor="middle" x="76" y="-79.8" font-family="Times,serif" font-size="14.00">class = True</text>
</g>
<!-- 2&#45;&gt;3 -->
<g id="edge3" class="edge">
<title>2&#45;&gt;3</title>
<path fill="none" stroke="black" d="M192.24,-190.91C177.33,-181.11 161.29,-170.56 146.03,-160.53"/>
<polygon fill="black" stroke="black" points="147.93,-157.59 137.65,-155.02 144.08,-163.44 147.93,-157.59"/>
</g>
<!-- 14 -->
<g id="node7" class="node">
<title>14</title>
<polygon fill="#c2e1f7" stroke="black" points="337.5,-155 170.5,-155 170.5,-72 337.5,-72 337.5,-155"/>
<text text-anchor="middle" x="254" y="-139.8" font-family="Times,serif" font-size="14.00">sdComp &lt;= 0.065</text>
<text text-anchor="middle" x="254" y="-124.8" font-family="Times,serif" font-size="14.00">gini = 0.484</text>
<text text-anchor="middle" x="254" y="-109.8" font-family="Times,serif" font-size="14.00">samples = 3796</text>
<text text-anchor="middle" x="254" y="-94.8" font-family="Times,serif" font-size="14.00">value = [1554, 2242]</text>
<text text-anchor="middle" x="254" y="-79.8" font-family="Times,serif" font-size="14.00">class = True</text>
</g>
<!-- 2&#45;&gt;14 -->
<g id="edge6" class="edge">
<title>2&#45;&gt;14</title>
<path fill="none" stroke="black" d="M254,-190.91C254,-182.65 254,-173.86 254,-165.3"/>
<polygon fill="black" stroke="black" points="257.5,-165.02 254,-155.02 250.5,-165.02 257.5,-165.02"/>
</g>
<!-- 4 -->
<g id="node5" class="node">
<title>4</title>
<polygon fill="#c0c0c0" stroke="black" points="67,-36 13,-36 13,0 67,0 67,-36"/>
<text text-anchor="middle" x="40" y="-14.3" font-family="Times,serif" font-size="14.00">(...)</text>
</g>
<!-- 3&#45;&gt;4 -->
<g id="edge4" class="edge">
<title>3&#45;&gt;4</title>
<path fill="none" stroke="black" d="M60.31,-71.76C56.96,-63.04 53.49,-54.04 50.39,-45.99"/>
<polygon fill="black" stroke="black" points="53.56,-44.48 46.7,-36.41 47.03,-46.99 53.56,-44.48"/>
</g>
<!-- 9 -->
<g id="node6" class="node">
<title>9</title>
<polygon fill="#c0c0c0" stroke="black" points="139,-36 85,-36 85,0 139,0 139,-36"/>
<text text-anchor="middle" x="112" y="-14.3" font-family="Times,serif" font-size="14.00">(...)</text>
</g>
<!-- 3&#45;&gt;9 -->
<g id="edge5" class="edge">
<title>3&#45;&gt;9</title>
<path fill="none" stroke="black" d="M91.69,-71.76C95.04,-63.04 98.51,-54.04 101.61,-45.99"/>
<polygon fill="black" stroke="black" points="104.97,-46.99 105.3,-36.41 98.44,-44.48 104.97,-46.99"/>
</g>
<!-- 15 -->
<g id="node8" class="node">
<title>15</title>
<polygon fill="#c0c0c0" stroke="black" points="251,-36 197,-36 197,0 251,0 251,-36"/>
<text text-anchor="middle" x="224" y="-14.3" font-family="Times,serif" font-size="14.00">(...)</text>
</g>
<!-- 14&#45;&gt;15 -->
<g id="edge7" class="edge">
<title>14&#45;&gt;15</title>
<path fill="none" stroke="black" d="M240.93,-71.76C238.13,-63.04 235.24,-54.04 232.66,-45.99"/>
<polygon fill="black" stroke="black" points="235.97,-44.86 229.58,-36.41 229.31,-47 235.97,-44.86"/>
</g>
<!-- 90 -->
<g id="node9" class="node">
<title>90</title>
<polygon fill="#c0c0c0" stroke="black" points="323,-36 269,-36 269,0 323,0 323,-36"/>
<text text-anchor="middle" x="296" y="-14.3" font-family="Times,serif" font-size="14.00">(...)</text>
</g>
<!-- 14&#45;&gt;90 -->
<g id="edge8" class="edge">
<title>14&#45;&gt;90</title>
<path fill="none" stroke="black" d="M272.3,-71.76C276.26,-62.94 280.35,-53.84 284,-45.72"/>
<polygon fill="black" stroke="black" points="287.28,-46.96 288.18,-36.41 280.89,-44.09 287.28,-46.96"/>
</g>
<!-- 200 -->
<g id="node11" class="node">
<title>200</title>
<polygon fill="#e6f3fc" stroke="black" points="522.5,-155 355.5,-155 355.5,-72 522.5,-72 522.5,-155"/>
<text text-anchor="middle" x="439" y="-139.8" font-family="Times,serif" font-size="14.00">graphDepth &lt;= 3.5</text>
<text text-anchor="middle" x="439" y="-124.8" font-family="Times,serif" font-size="14.00">gini = 0.498</text>
<text text-anchor="middle" x="439" y="-109.8" font-family="Times,serif" font-size="14.00">samples = 6852</text>
<text text-anchor="middle" x="439" y="-94.8" font-family="Times,serif" font-size="14.00">value = [3196, 3656]</text>
<text text-anchor="middle" x="439" y="-79.8" font-family="Times,serif" font-size="14.00">class = True</text>
</g>
<!-- 199&#45;&gt;200 -->
<g id="edge10" class="edge">
<title>199&#45;&gt;200</title>
<path fill="none" stroke="black" d="M497.77,-190.91C490.86,-181.92 483.47,-172.32 476.35,-163.05"/>
<polygon fill="black" stroke="black" points="479.04,-160.81 470.17,-155.02 473.49,-165.08 479.04,-160.81"/>
</g>
<!-- 259 -->
<g id="node14" class="node">
<title>259</title>
<polygon fill="#cae5f8" stroke="black" points="707.5,-155 540.5,-155 540.5,-72 707.5,-72 707.5,-155"/>
<text text-anchor="middle" x="624" y="-139.8" font-family="Times,serif" font-size="14.00">sdComp &lt;= 0.065</text>
<text text-anchor="middle" x="624" y="-124.8" font-family="Times,serif" font-size="14.00">gini = 0.488</text>
<text text-anchor="middle" x="624" y="-109.8" font-family="Times,serif" font-size="14.00">samples = 3232</text>
<text text-anchor="middle" x="624" y="-94.8" font-family="Times,serif" font-size="14.00">value = [1368, 1864]</text>
<text text-anchor="middle" x="624" y="-79.8" font-family="Times,serif" font-size="14.00">class = True</text>
</g>
<!-- 199&#45;&gt;259 -->
<g id="edge13" class="edge">
<title>199&#45;&gt;259</title>
<path fill="none" stroke="black" d="M561.96,-190.91C569.25,-181.92 577.06,-172.32 584.58,-163.05"/>
<polygon fill="black" stroke="black" points="587.51,-164.99 591.1,-155.02 582.08,-160.58 587.51,-164.99"/>
</g>
<!-- 201 -->
<g id="node12" class="node">
<title>201</title>
<polygon fill="#c0c0c0" stroke="black" points="414,-36 360,-36 360,0 414,0 414,-36"/>
<text text-anchor="middle" x="387" y="-14.3" font-family="Times,serif" font-size="14.00">(...)</text>
</g>
<!-- 200&#45;&gt;201 -->
<g id="edge11" class="edge">
<title>200&#45;&gt;201</title>
<path fill="none" stroke="black" d="M416.34,-71.76C411.33,-62.75 406.15,-53.44 401.57,-45.19"/>
<polygon fill="black" stroke="black" points="404.6,-43.44 396.68,-36.41 398.48,-46.85 404.6,-43.44"/>
</g>
<!-- 230 -->
<g id="node13" class="node">
<title>230</title>
<polygon fill="#c0c0c0" stroke="black" points="486,-36 432,-36 432,0 486,0 486,-36"/>
<text text-anchor="middle" x="459" y="-14.3" font-family="Times,serif" font-size="14.00">(...)</text>
</g>
<!-- 200&#45;&gt;230 -->
<g id="edge12" class="edge">
<title>200&#45;&gt;230</title>
<path fill="none" stroke="black" d="M447.71,-71.76C449.56,-63.14 451.46,-54.24 453.17,-46.26"/>
<polygon fill="black" stroke="black" points="456.61,-46.92 455.28,-36.41 449.76,-45.45 456.61,-46.92"/>
</g>
<!-- 260 -->
<g id="node15" class="node">
<title>260</title>
<polygon fill="#c0c0c0" stroke="black" points="597,-36 543,-36 543,0 597,0 597,-36"/>
<text text-anchor="middle" x="570" y="-14.3" font-family="Times,serif" font-size="14.00">(...)</text>
</g>
<!-- 259&#45;&gt;260 -->
<g id="edge14" class="edge">
<title>259&#45;&gt;260</title>
<path fill="none" stroke="black" d="M600.47,-71.76C595.27,-62.75 589.89,-53.44 585.13,-45.19"/>
<polygon fill="black" stroke="black" points="588.08,-43.31 580.05,-36.41 582.02,-46.82 588.08,-43.31"/>
</g>
<!-- 321 -->
<g id="node16" class="node">
<title>321</title>
<polygon fill="#c0c0c0" stroke="black" points="669,-36 615,-36 615,0 669,0 669,-36"/>
<text text-anchor="middle" x="642" y="-14.3" font-family="Times,serif" font-size="14.00">(...)</text>
</g>
<!-- 259&#45;&gt;321 -->
<g id="edge15" class="edge">
<title>259&#45;&gt;321</title>
<path fill="none" stroke="black" d="M631.84,-71.76C633.5,-63.14 635.22,-54.24 636.75,-46.26"/>
<polygon fill="black" stroke="black" points="640.2,-46.89 638.65,-36.41 633.32,-45.56 640.2,-46.89"/>
</g>
<!-- 417 -->
<g id="node18" class="node">
<title>417</title>
<polygon fill="#75bbed" stroke="black" points="977.5,-274 810.5,-274 810.5,-191 977.5,-191 977.5,-274"/>
<text text-anchor="middle" x="894" y="-258.8" font-family="Times,serif" font-size="14.00">nbproc &lt;= 4.5</text>
<text text-anchor="middle" x="894" y="-243.8" font-family="Times,serif" font-size="14.00">gini = 0.356</text>
<text text-anchor="middle" x="894" y="-228.8" font-family="Times,serif" font-size="14.00">samples = 9005</text>
<text text-anchor="middle" x="894" y="-213.8" font-family="Times,serif" font-size="14.00">value = [2090, 6915]</text>
<text text-anchor="middle" x="894" y="-198.8" font-family="Times,serif" font-size="14.00">class = True</text>
</g>
<!-- 416&#45;&gt;417 -->
<g id="edge17" class="edge">
<title>416&#45;&gt;417</title>
<path fill="none" stroke="black" d="M894,-309.91C894,-301.65 894,-292.86 894,-284.3"/>
<polygon fill="black" stroke="black" points="897.5,-284.02 894,-274.02 890.5,-284.02 897.5,-284.02"/>
</g>
<!-- 654 -->
<g id="node25" class="node">
<title>654</title>
<polygon fill="#9ccef2" stroke="black" points="1243,-274 1085,-274 1085,-191 1243,-191 1243,-274"/>
<text text-anchor="middle" x="1164" y="-258.8" font-family="Times,serif" font-size="14.00">graphSize &lt;= 22.5</text>
<text text-anchor="middle" x="1164" y="-243.8" font-family="Times,serif" font-size="14.00">gini = 0.445</text>
<text text-anchor="middle" x="1164" y="-228.8" font-family="Times,serif" font-size="14.00">samples = 2776</text>
<text text-anchor="middle" x="1164" y="-213.8" font-family="Times,serif" font-size="14.00">value = [928, 1848]</text>
<text text-anchor="middle" x="1164" y="-198.8" font-family="Times,serif" font-size="14.00">class = True</text>
</g>
<!-- 416&#45;&gt;654 -->
<g id="edge24" class="edge">
<title>416&#45;&gt;654</title>
<path fill="none" stroke="black" d="M977.58,-314.28C1008.73,-300.78 1044.18,-285.42 1075.74,-271.75"/>
<polygon fill="black" stroke="black" points="1077.18,-274.94 1084.96,-267.75 1074.4,-268.51 1077.18,-274.94"/>
</g>
<!-- 418 -->
<g id="node19" class="node">
<title>418</title>
<polygon fill="#67b4eb" stroke="black" points="883,-155 725,-155 725,-72 883,-72 883,-155"/>
<text text-anchor="middle" x="804" y="-139.8" font-family="Times,serif" font-size="14.00">graphSize &lt;= 22.5</text>
<text text-anchor="middle" x="804" y="-124.8" font-family="Times,serif" font-size="14.00">gini = 0.305</text>
<text text-anchor="middle" x="804" y="-109.8" font-family="Times,serif" font-size="14.00">samples = 4334</text>
<text text-anchor="middle" x="804" y="-94.8" font-family="Times,serif" font-size="14.00">value = [812, 3522]</text>
<text text-anchor="middle" x="804" y="-79.8" font-family="Times,serif" font-size="14.00">class = True</text>
</g>
<!-- 417&#45;&gt;418 -->
<g id="edge18" class="edge">
<title>417&#45;&gt;418</title>
<path fill="none" stroke="black" d="M862.77,-190.91C855.86,-181.92 848.47,-172.32 841.35,-163.05"/>
<polygon fill="black" stroke="black" points="844.04,-160.81 835.17,-155.02 838.49,-165.08 844.04,-160.81"/>
</g>
<!-- 533 -->
<g id="node22" class="node">
<title>533</title>
<polygon fill="#84c2ef" stroke="black" points="1067.5,-155 900.5,-155 900.5,-72 1067.5,-72 1067.5,-155"/>
<text text-anchor="middle" x="984" y="-139.8" font-family="Times,serif" font-size="14.00">graphDepth &lt;= 25.5</text>
<text text-anchor="middle" x="984" y="-124.8" font-family="Times,serif" font-size="14.00">gini = 0.397</text>
<text text-anchor="middle" x="984" y="-109.8" font-family="Times,serif" font-size="14.00">samples = 4671</text>
<text text-anchor="middle" x="984" y="-94.8" font-family="Times,serif" font-size="14.00">value = [1278, 3393]</text>
<text text-anchor="middle" x="984" y="-79.8" font-family="Times,serif" font-size="14.00">class = True</text>
</g>
<!-- 417&#45;&gt;533 -->
<g id="edge21" class="edge">
<title>417&#45;&gt;533</title>
<path fill="none" stroke="black" d="M925.23,-190.91C932.14,-181.92 939.53,-172.32 946.65,-163.05"/>
<polygon fill="black" stroke="black" points="949.51,-165.08 952.83,-155.02 943.96,-160.81 949.51,-165.08"/>
</g>
<!-- 419 -->
<g id="node20" class="node">
<title>419</title>
<polygon fill="#c0c0c0" stroke="black" points="777,-36 723,-36 723,0 777,0 777,-36"/>
<text text-anchor="middle" x="750" y="-14.3" font-family="Times,serif" font-size="14.00">(...)</text>
</g>
<!-- 418&#45;&gt;419 -->
<g id="edge19" class="edge">
<title>418&#45;&gt;419</title>
<path fill="none" stroke="black" d="M780.47,-71.76C775.27,-62.75 769.89,-53.44 765.13,-45.19"/>
<polygon fill="black" stroke="black" points="768.08,-43.31 760.05,-36.41 762.02,-46.82 768.08,-43.31"/>
</g>
<!-- 448 -->
<g id="node21" class="node">
<title>448</title>
<polygon fill="#c0c0c0" stroke="black" points="849,-36 795,-36 795,0 849,0 849,-36"/>
<text text-anchor="middle" x="822" y="-14.3" font-family="Times,serif" font-size="14.00">(...)</text>
</g>
<!-- 418&#45;&gt;448 -->
<g id="edge20" class="edge">
<title>418&#45;&gt;448</title>
<path fill="none" stroke="black" d="M811.84,-71.76C813.5,-63.14 815.22,-54.24 816.75,-46.26"/>
<polygon fill="black" stroke="black" points="820.2,-46.89 818.65,-36.41 813.32,-45.56 820.2,-46.89"/>
</g>
<!-- 534 -->
<g id="node23" class="node">
<title>534</title>
<polygon fill="#c0c0c0" stroke="black" points="957,-36 903,-36 903,0 957,0 957,-36"/>
<text text-anchor="middle" x="930" y="-14.3" font-family="Times,serif" font-size="14.00">(...)</text>
</g>
<!-- 533&#45;&gt;534 -->
<g id="edge22" class="edge">
<title>533&#45;&gt;534</title>
<path fill="none" stroke="black" d="M960.47,-71.76C955.27,-62.75 949.89,-53.44 945.13,-45.19"/>
<polygon fill="black" stroke="black" points="948.08,-43.31 940.05,-36.41 942.02,-46.82 948.08,-43.31"/>
</g>
<!-- 641 -->
<g id="node24" class="node">
<title>641</title>
<polygon fill="#c0c0c0" stroke="black" points="1029,-36 975,-36 975,0 1029,0 1029,-36"/>
<text text-anchor="middle" x="1002" y="-14.3" font-family="Times,serif" font-size="14.00">(...)</text>
</g>
<!-- 533&#45;&gt;641 -->
<g id="edge23" class="edge">
<title>533&#45;&gt;641</title>
<path fill="none" stroke="black" d="M991.84,-71.76C993.5,-63.14 995.22,-54.24 996.75,-46.26"/>
<polygon fill="black" stroke="black" points="1000.2,-46.89 998.65,-36.41 993.32,-45.56 1000.2,-46.89"/>
</g>
<!-- 655 -->
<g id="node26" class="node">
<title>655</title>
<polygon fill="#b2d9f5" stroke="black" points="1243,-155 1085,-155 1085,-72 1243,-72 1243,-155"/>
<text text-anchor="middle" x="1164" y="-139.8" font-family="Times,serif" font-size="14.00">graphDepth &lt;= 3.5</text>
<text text-anchor="middle" x="1164" y="-124.8" font-family="Times,serif" font-size="14.00">gini = 0.471</text>
<text text-anchor="middle" x="1164" y="-109.8" font-family="Times,serif" font-size="14.00">samples = 1116</text>
<text text-anchor="middle" x="1164" y="-94.8" font-family="Times,serif" font-size="14.00">value = [424, 692]</text>
<text text-anchor="middle" x="1164" y="-79.8" font-family="Times,serif" font-size="14.00">class = True</text>
</g>
<!-- 654&#45;&gt;655 -->
<g id="edge25" class="edge">
<title>654&#45;&gt;655</title>
<path fill="none" stroke="black" d="M1164,-190.91C1164,-182.65 1164,-173.86 1164,-165.3"/>
<polygon fill="black" stroke="black" points="1167.5,-165.02 1164,-155.02 1160.5,-165.02 1167.5,-165.02"/>
</g>
<!-- 678 -->
<g id="node29" class="node">
<title>678</title>
<polygon fill="#8fc8f0" stroke="black" points="1419,-155 1261,-155 1261,-72 1419,-72 1419,-155"/>
<text text-anchor="middle" x="1340" y="-139.8" font-family="Times,serif" font-size="14.00">graphDepth &lt;= 9.0</text>
<text text-anchor="middle" x="1340" y="-124.8" font-family="Times,serif" font-size="14.00">gini = 0.423</text>
<text text-anchor="middle" x="1340" y="-109.8" font-family="Times,serif" font-size="14.00">samples = 1660</text>
<text text-anchor="middle" x="1340" y="-94.8" font-family="Times,serif" font-size="14.00">value = [504, 1156]</text>
<text text-anchor="middle" x="1340" y="-79.8" font-family="Times,serif" font-size="14.00">class = True</text>
</g>
<!-- 654&#45;&gt;678 -->
<g id="edge28" class="edge">
<title>654&#45;&gt;678</title>
<path fill="none" stroke="black" d="M1225.06,-190.91C1239.67,-181.2 1255.37,-170.76 1270.34,-160.81"/>
<polygon fill="black" stroke="black" points="1272.66,-163.47 1279.05,-155.02 1268.78,-157.64 1272.66,-163.47"/>
</g>
<!-- 656 -->
<g id="node27" class="node">
<title>656</title>
<polygon fill="#c0c0c0" stroke="black" points="1153,-36 1099,-36 1099,0 1153,0 1153,-36"/>
<text text-anchor="middle" x="1126" y="-14.3" font-family="Times,serif" font-size="14.00">(...)</text>
</g>
<!-- 655&#45;&gt;656 -->
<g id="edge26" class="edge">
<title>655&#45;&gt;656</title>
<path fill="none" stroke="black" d="M1147.44,-71.76C1143.86,-62.94 1140.16,-53.84 1136.86,-45.72"/>
<polygon fill="black" stroke="black" points="1140.08,-44.35 1133.07,-36.41 1133.6,-46.99 1140.08,-44.35"/>
</g>
<!-- 667 -->
<g id="node28" class="node">
<title>667</title>
<polygon fill="#c0c0c0" stroke="black" points="1225,-36 1171,-36 1171,0 1225,0 1225,-36"/>
<text text-anchor="middle" x="1198" y="-14.3" font-family="Times,serif" font-size="14.00">(...)</text>
</g>
<!-- 655&#45;&gt;667 -->
<g id="edge27" class="edge">
<title>655&#45;&gt;667</title>
<path fill="none" stroke="black" d="M1178.81,-71.76C1181.98,-63.04 1185.26,-54.04 1188.18,-45.99"/>
<polygon fill="black" stroke="black" points="1191.54,-47 1191.67,-36.41 1184.96,-44.61 1191.54,-47"/>
</g>
<!-- 679 -->
<g id="node30" class="node">
<title>679</title>
<polygon fill="#c0c0c0" stroke="black" points="1331,-36 1277,-36 1277,0 1331,0 1331,-36"/>
<text text-anchor="middle" x="1304" y="-14.3" font-family="Times,serif" font-size="14.00">(...)</text>
</g>
<!-- 678&#45;&gt;679 -->
<g id="edge29" class="edge">
<title>678&#45;&gt;679</title>
<path fill="none" stroke="black" d="M1324.31,-71.76C1320.96,-63.04 1317.49,-54.04 1314.39,-45.99"/>
<polygon fill="black" stroke="black" points="1317.56,-44.48 1310.7,-36.41 1311.03,-46.99 1317.56,-44.48"/>
</g>
<!-- 696 -->
<g id="node31" class="node">
<title>696</title>
<polygon fill="#c0c0c0" stroke="black" points="1403,-36 1349,-36 1349,0 1403,0 1403,-36"/>
<text text-anchor="middle" x="1376" y="-14.3" font-family="Times,serif" font-size="14.00">(...)</text>
</g>
<!-- 678&#45;&gt;696 -->
<g id="edge30" class="edge">
<title>678&#45;&gt;696</title>
<path fill="none" stroke="black" d="M1355.69,-71.76C1359.04,-63.04 1362.51,-54.04 1365.61,-45.99"/>
<polygon fill="black" stroke="black" points="1368.97,-46.99 1369.3,-36.41 1362.44,-44.48 1368.97,-46.99"/>
</g>
</g>
</svg>
