<?xml version="1.0" encoding="UTF-8" standalone="no"?>
<!DOCTYPE svg PUBLIC "-//W3C//DTD SVG 1.1//EN"
 "http://www.w3.org/Graphics/SVG/1.1/DTD/svg11.dtd">
<!-- Generated by graphviz version 2.43.0 (0)
 -->
<!-- Title: Tree Pages: 1 -->
<svg width="1442pt" height="520pt"
 viewBox="0.00 0.00 1442.00 520.00" xmlns="http://www.w3.org/2000/svg" xmlns:xlink="http://www.w3.org/1999/xlink">
<g id="graph0" class="graph" transform="scale(1 1) rotate(0) translate(4 516)">
<title>Tree</title>
<polygon fill="white" stroke="transparent" points="-4,4 -4,-516 1438,-516 1438,4 -4,4"/>
<!-- 0 -->
<g id="node1" class="node">
<title>0</title>
<polygon fill="#fbfdfe" stroke="black" points="805,-512 620,-512 620,-429 805,-429 805,-512"/>
<text text-anchor="middle" x="712.5" y="-496.8" font-family="Times,serif" font-size="14.00">CCR &lt;= 5.5</text>
<text text-anchor="middle" x="712.5" y="-481.8" font-family="Times,serif" font-size="14.00">gini = 0.5</text>
<text text-anchor="middle" x="712.5" y="-466.8" font-family="Times,serif" font-size="14.00">samples = 81152</text>
<text text-anchor="middle" x="712.5" y="-451.8" font-family="Times,serif" font-size="14.00">value = [40116, 41036]</text>
<text text-anchor="middle" x="712.5" y="-436.8" font-family="Times,serif" font-size="14.00">class = True</text>
</g>
<!-- 1 -->
<g id="node2" class="node">
<title>1</title>
<polygon fill="#d9ecfa" stroke="black" points="636,-393 451,-393 451,-310 636,-310 636,-393"/>
<text text-anchor="middle" x="543.5" y="-377.8" font-family="Times,serif" font-size="14.00">graphSize &lt;= 75.0</text>
<text text-anchor="middle" x="543.5" y="-362.8" font-family="Times,serif" font-size="14.00">gini = 0.494</text>
<text text-anchor="middle" x="543.5" y="-347.8" font-family="Times,serif" font-size="14.00">samples = 50000</text>
<text text-anchor="middle" x="543.5" y="-332.8" font-family="Times,serif" font-size="14.00">value = [22337, 27663]</text>
<text text-anchor="middle" x="543.5" y="-317.8" font-family="Times,serif" font-size="14.00">class = True</text>
</g>
<!-- 0&#45;&gt;1 -->
<g id="edge1" class="edge">
<title>0&#45;&gt;1</title>
<path fill="none" stroke="black" d="M653.87,-428.91C639.84,-419.2 624.76,-408.76 610.39,-398.81"/>
<polygon fill="black" stroke="black" points="612.24,-395.84 602.03,-393.02 608.26,-401.59 612.24,-395.84"/>
<text text-anchor="middle" x="606.5" y="-413.92" font-family="Times,serif" font-size="14.00">True</text>
</g>
<!-- 570 -->
<g id="node17" class="node">
<title>570</title>
<polygon fill="#f9e0ce" stroke="black" points="983,-393 798,-393 798,-310 983,-310 983,-393"/>
<text text-anchor="middle" x="890.5" y="-377.8" font-family="Times,serif" font-size="14.00">graphDepth &lt;= 3.5</text>
<text text-anchor="middle" x="890.5" y="-362.8" font-family="Times,serif" font-size="14.00">gini = 0.49</text>
<text text-anchor="middle" x="890.5" y="-347.8" font-family="Times,serif" font-size="14.00">samples = 31152</text>
<text text-anchor="middle" x="890.5" y="-332.8" font-family="Times,serif" font-size="14.00">value = [17779, 13373]</text>
<text text-anchor="middle" x="890.5" y="-317.8" font-family="Times,serif" font-size="14.00">class = False</text>
</g>
<!-- 0&#45;&gt;570 -->
<g id="edge16" class="edge">
<title>0&#45;&gt;570</title>
<path fill="none" stroke="black" d="M774.26,-428.91C789.17,-419.11 805.21,-408.56 820.47,-398.53"/>
<polygon fill="black" stroke="black" points="822.42,-401.44 828.85,-393.02 818.57,-395.59 822.42,-401.44"/>
<text text-anchor="middle" x="823.79" y="-413.8" font-family="Times,serif" font-size="14.00">False</text>
</g>
<!-- 2 -->
<g id="node3" class="node">
<title>2</title>
<polygon fill="#deeefb" stroke="black" points="379,-274 194,-274 194,-191 379,-191 379,-274"/>
<text text-anchor="middle" x="286.5" y="-258.8" font-family="Times,serif" font-size="14.00">graphSize &lt;= 22.5</text>
<text text-anchor="middle" x="286.5" y="-243.8" font-family="Times,serif" font-size="14.00">gini = 0.496</text>
<text text-anchor="middle" x="286.5" y="-228.8" font-family="Times,serif" font-size="14.00">samples = 47244</text>
<text text-anchor="middle" x="286.5" y="-213.8" font-family="Times,serif" font-size="14.00">value = [21445, 25799]</text>
<text text-anchor="middle" x="286.5" y="-198.8" font-family="Times,serif" font-size="14.00">class = True</text>
</g>
<!-- 1&#45;&gt;2 -->
<g id="edge2" class="edge">
<title>1&#45;&gt;2</title>
<path fill="none" stroke="black" d="M454.34,-309.91C431.91,-299.7 407.71,-288.68 384.87,-278.28"/>
<polygon fill="black" stroke="black" points="386.06,-274.98 375.51,-274.02 383.16,-281.35 386.06,-274.98"/>
</g>
<!-- 433 -->
<g id="node10" class="node">
<title>433</title>
<polygon fill="#98ccf1" stroke="black" points="622.5,-274 464.5,-274 464.5,-191 622.5,-191 622.5,-274"/>
<text text-anchor="middle" x="543.5" y="-258.8" font-family="Times,serif" font-size="14.00">nbproc &lt;= 4.5</text>
<text text-anchor="middle" x="543.5" y="-243.8" font-family="Times,serif" font-size="14.00">gini = 0.438</text>
<text text-anchor="middle" x="543.5" y="-228.8" font-family="Times,serif" font-size="14.00">samples = 2756</text>
<text text-anchor="middle" x="543.5" y="-213.8" font-family="Times,serif" font-size="14.00">value = [892, 1864]</text>
<text text-anchor="middle" x="543.5" y="-198.8" font-family="Times,serif" font-size="14.00">class = True</text>
</g>
<!-- 1&#45;&gt;433 -->
<g id="edge9" class="edge">
<title>1&#45;&gt;433</title>
<path fill="none" stroke="black" d="M543.5,-309.91C543.5,-301.65 543.5,-292.86 543.5,-284.3"/>
<polygon fill="black" stroke="black" points="547,-284.02 543.5,-274.02 540,-284.02 547,-284.02"/>
</g>
<!-- 3 -->
<g id="node4" class="node">
<title>3</title>
<polygon fill="#e4f2fc" stroke="black" points="185,-155 0,-155 0,-72 185,-72 185,-155"/>
<text text-anchor="middle" x="92.5" y="-139.8" font-family="Times,serif" font-size="14.00">sdComm &lt;= 0.65</text>
<text text-anchor="middle" x="92.5" y="-124.8" font-family="Times,serif" font-size="14.00">gini = 0.497</text>
<text text-anchor="middle" x="92.5" y="-109.8" font-family="Times,serif" font-size="14.00">samples = 33817</text>
<text text-anchor="middle" x="92.5" y="-94.8" font-family="Times,serif" font-size="14.00">value = [15693, 18124]</text>
<text text-anchor="middle" x="92.5" y="-79.8" font-family="Times,serif" font-size="14.00">class = True</text>
</g>
<!-- 2&#45;&gt;3 -->
<g id="edge3" class="edge">
<title>2&#45;&gt;3</title>
<path fill="none" stroke="black" d="M219.19,-190.91C202.79,-181.02 185.14,-170.37 168.37,-160.25"/>
<polygon fill="black" stroke="black" points="170.06,-157.19 159.69,-155.02 166.44,-163.18 170.06,-157.19"/>
</g>
<!-- 146 -->
<g id="node7" class="node">
<title>146</title>
<polygon fill="#cde6f8" stroke="black" points="370,-155 203,-155 203,-72 370,-72 370,-155"/>
<text text-anchor="middle" x="286.5" y="-139.8" font-family="Times,serif" font-size="14.00">nbproc &lt;= 4.5</text>
<text text-anchor="middle" x="286.5" y="-124.8" font-family="Times,serif" font-size="14.00">gini = 0.49</text>
<text text-anchor="middle" x="286.5" y="-109.8" font-family="Times,serif" font-size="14.00">samples = 13427</text>
<text text-anchor="middle" x="286.5" y="-94.8" font-family="Times,serif" font-size="14.00">value = [5752, 7675]</text>
<text text-anchor="middle" x="286.5" y="-79.8" font-family="Times,serif" font-size="14.00">class = True</text>
</g>
<!-- 2&#45;&gt;146 -->
<g id="edge6" class="edge">
<title>2&#45;&gt;146</title>
<path fill="none" stroke="black" d="M286.5,-190.91C286.5,-182.65 286.5,-173.86 286.5,-165.3"/>
<polygon fill="black" stroke="black" points="290,-165.02 286.5,-155.02 283,-165.02 290,-165.02"/>
</g>
<!-- 4 -->
<g id="node5" class="node">
<title>4</title>
<polygon fill="#c0c0c0" stroke="black" points="83.5,-36 29.5,-36 29.5,0 83.5,0 83.5,-36"/>
<text text-anchor="middle" x="56.5" y="-14.3" font-family="Times,serif" font-size="14.00">(...)</text>
</g>
<!-- 3&#45;&gt;4 -->
<g id="edge4" class="edge">
<title>3&#45;&gt;4</title>
<path fill="none" stroke="black" d="M76.81,-71.76C73.46,-63.04 69.99,-54.04 66.89,-45.99"/>
<polygon fill="black" stroke="black" points="70.06,-44.48 63.2,-36.41 63.53,-46.99 70.06,-44.48"/>
</g>
<!-- 123 -->
<g id="node6" class="node">
<title>123</title>
<polygon fill="#c0c0c0" stroke="black" points="155.5,-36 101.5,-36 101.5,0 155.5,0 155.5,-36"/>
<text text-anchor="middle" x="128.5" y="-14.3" font-family="Times,serif" font-size="14.00">(...)</text>
</g>
<!-- 3&#45;&gt;123 -->
<g id="edge5" class="edge">
<title>3&#45;&gt;123</title>
<path fill="none" stroke="black" d="M108.19,-71.76C111.54,-63.04 115.01,-54.04 118.11,-45.99"/>
<polygon fill="black" stroke="black" points="121.47,-46.99 121.8,-36.41 114.94,-44.48 121.47,-46.99"/>
</g>
<!-- 147 -->
<g id="node8" class="node">
<title>147</title>
<polygon fill="#c0c0c0" stroke="black" points="278.5,-36 224.5,-36 224.5,0 278.5,0 278.5,-36"/>
<text text-anchor="middle" x="251.5" y="-14.3" font-family="Times,serif" font-size="14.00">(...)</text>
</g>
<!-- 146&#45;&gt;147 -->
<g id="edge7" class="edge">
<title>146&#45;&gt;147</title>
<path fill="none" stroke="black" d="M271.25,-71.76C267.99,-63.04 264.62,-54.04 261.6,-45.99"/>
<polygon fill="black" stroke="black" points="264.8,-44.54 258.02,-36.41 258.24,-47 264.8,-44.54"/>
</g>
<!-- 290 -->
<g id="node9" class="node">
<title>290</title>
<polygon fill="#c0c0c0" stroke="black" points="350.5,-36 296.5,-36 296.5,0 350.5,0 350.5,-36"/>
<text text-anchor="middle" x="323.5" y="-14.3" font-family="Times,serif" font-size="14.00">(...)</text>
</g>
<!-- 146&#45;&gt;290 -->
<g id="edge8" class="edge">
<title>146&#45;&gt;290</title>
<path fill="none" stroke="black" d="M302.62,-71.76C306.11,-62.94 309.71,-53.84 312.92,-45.72"/>
<polygon fill="black" stroke="black" points="316.19,-46.99 316.61,-36.41 309.68,-44.42 316.19,-46.99"/>
</g>
<!-- 434 -->
<g id="node11" class="node">
<title>434</title>
<polygon fill="#7fc0ee" stroke="black" points="555,-155 388,-155 388,-72 555,-72 555,-155"/>
<text text-anchor="middle" x="471.5" y="-139.8" font-family="Times,serif" font-size="14.00">graphDepth &lt;= 25.5</text>
<text text-anchor="middle" x="471.5" y="-124.8" font-family="Times,serif" font-size="14.00">gini = 0.386</text>
<text text-anchor="middle" x="471.5" y="-109.8" font-family="Times,serif" font-size="14.00">samples = 1396</text>
<text text-anchor="middle" x="471.5" y="-94.8" font-family="Times,serif" font-size="14.00">value = [365, 1031]</text>
<text text-anchor="middle" x="471.5" y="-79.8" font-family="Times,serif" font-size="14.00">class = True</text>
</g>
<!-- 433&#45;&gt;434 -->
<g id="edge10" class="edge">
<title>433&#45;&gt;434</title>
<path fill="none" stroke="black" d="M518.52,-190.91C513.1,-182.1 507.32,-172.7 501.72,-163.61"/>
<polygon fill="black" stroke="black" points="504.66,-161.7 496.44,-155.02 498.7,-165.37 504.66,-161.7"/>
</g>
<!-- 499 -->
<g id="node14" class="node">
<title>499</title>
<polygon fill="#b6dbf5" stroke="black" points="722,-155 573,-155 573,-72 722,-72 722,-155"/>
<text text-anchor="middle" x="647.5" y="-139.8" font-family="Times,serif" font-size="14.00">CCR &lt;= 0.55</text>
<text text-anchor="middle" x="647.5" y="-124.8" font-family="Times,serif" font-size="14.00">gini = 0.475</text>
<text text-anchor="middle" x="647.5" y="-109.8" font-family="Times,serif" font-size="14.00">samples = 1360</text>
<text text-anchor="middle" x="647.5" y="-94.8" font-family="Times,serif" font-size="14.00">value = [527, 833]</text>
<text text-anchor="middle" x="647.5" y="-79.8" font-family="Times,serif" font-size="14.00">class = True</text>
</g>
<!-- 433&#45;&gt;499 -->
<g id="edge13" class="edge">
<title>433&#45;&gt;499</title>
<path fill="none" stroke="black" d="M579.58,-190.91C587.65,-181.83 596.28,-172.12 604.59,-162.77"/>
<polygon fill="black" stroke="black" points="607.45,-164.82 611.48,-155.02 602.22,-160.17 607.45,-164.82"/>
</g>
<!-- 435 -->
<g id="node12" class="node">
<title>435</title>
<polygon fill="#c0c0c0" stroke="black" points="442.5,-36 388.5,-36 388.5,0 442.5,0 442.5,-36"/>
<text text-anchor="middle" x="415.5" y="-14.3" font-family="Times,serif" font-size="14.00">(...)</text>
</g>
<!-- 434&#45;&gt;435 -->
<g id="edge11" class="edge">
<title>434&#45;&gt;435</title>
<path fill="none" stroke="black" d="M447.1,-71.76C441.7,-62.75 436.13,-53.44 431.19,-45.19"/>
<polygon fill="black" stroke="black" points="434.07,-43.19 425.92,-36.41 428.06,-46.78 434.07,-43.19"/>
</g>
<!-- 464 -->
<g id="node13" class="node">
<title>464</title>
<polygon fill="#c0c0c0" stroke="black" points="514.5,-36 460.5,-36 460.5,0 514.5,0 514.5,-36"/>
<text text-anchor="middle" x="487.5" y="-14.3" font-family="Times,serif" font-size="14.00">(...)</text>
</g>
<!-- 434&#45;&gt;464 -->
<g id="edge12" class="edge">
<title>434&#45;&gt;464</title>
<path fill="none" stroke="black" d="M478.47,-71.76C479.93,-63.24 481.44,-54.44 482.79,-46.53"/>
<polygon fill="black" stroke="black" points="486.28,-46.85 484.52,-36.41 479.38,-45.67 486.28,-46.85"/>
</g>
<!-- 500 -->
<g id="node15" class="node">
<title>500</title>
<polygon fill="#c0c0c0" stroke="black" points="613.5,-36 559.5,-36 559.5,0 613.5,0 613.5,-36"/>
<text text-anchor="middle" x="586.5" y="-14.3" font-family="Times,serif" font-size="14.00">(...)</text>
</g>
<!-- 499&#45;&gt;500 -->
<g id="edge14" class="edge">
<title>499&#45;&gt;500</title>
<path fill="none" stroke="black" d="M620.92,-71.76C614.98,-62.65 608.84,-53.24 603.41,-44.92"/>
<polygon fill="black" stroke="black" points="606.25,-42.87 597.86,-36.41 600.39,-46.69 606.25,-42.87"/>
</g>
<!-- 535 -->
<g id="node16" class="node">
<title>535</title>
<polygon fill="#c0c0c0" stroke="black" points="685.5,-36 631.5,-36 631.5,0 685.5,0 685.5,-36"/>
<text text-anchor="middle" x="658.5" y="-14.3" font-family="Times,serif" font-size="14.00">(...)</text>
</g>
<!-- 499&#45;&gt;535 -->
<g id="edge15" class="edge">
<title>499&#45;&gt;535</title>
<path fill="none" stroke="black" d="M652.29,-71.76C653.3,-63.24 654.33,-54.44 655.26,-46.53"/>
<polygon fill="black" stroke="black" points="658.76,-46.75 656.45,-36.41 651.81,-45.93 658.76,-46.75"/>
</g>
<!-- 571 -->
<g id="node18" class="node">
<title>571</title>
<polygon fill="#fdf8f3" stroke="black" points="974,-274 807,-274 807,-191 974,-191 974,-274"/>
<text text-anchor="middle" x="890.5" y="-258.8" font-family="Times,serif" font-size="14.00">sdComm &lt;= 2.0</text>
<text text-anchor="middle" x="890.5" y="-243.8" font-family="Times,serif" font-size="14.00">gini = 0.5</text>
<text text-anchor="middle" x="890.5" y="-228.8" font-family="Times,serif" font-size="14.00">samples = 2198</text>
<text text-anchor="middle" x="890.5" y="-213.8" font-family="Times,serif" font-size="14.00">value = [1132, 1066]</text>
<text text-anchor="middle" x="890.5" y="-198.8" font-family="Times,serif" font-size="14.00">class = False</text>
</g>
<!-- 570&#45;&gt;571 -->
<g id="edge17" class="edge">
<title>570&#45;&gt;571</title>
<path fill="none" stroke="black" d="M890.5,-309.91C890.5,-301.65 890.5,-292.86 890.5,-284.3"/>
<polygon fill="black" stroke="black" points="894,-284.02 890.5,-274.02 887,-284.02 894,-284.02"/>
</g>
<!-- 606 -->
<g id="node25" class="node">
<title>606</title>
<polygon fill="#f8decb" stroke="black" points="1254,-274 1069,-274 1069,-191 1254,-191 1254,-274"/>
<text text-anchor="middle" x="1161.5" y="-258.8" font-family="Times,serif" font-size="14.00">sdComp &lt;= 6.5</text>
<text text-anchor="middle" x="1161.5" y="-243.8" font-family="Times,serif" font-size="14.00">gini = 0.489</text>
<text text-anchor="middle" x="1161.5" y="-228.8" font-family="Times,serif" font-size="14.00">samples = 28954</text>
<text text-anchor="middle" x="1161.5" y="-213.8" font-family="Times,serif" font-size="14.00">value = [16647, 12307]</text>
<text text-anchor="middle" x="1161.5" y="-198.8" font-family="Times,serif" font-size="14.00">class = False</text>
</g>
<!-- 570&#45;&gt;606 -->
<g id="edge24" class="edge">
<title>570&#45;&gt;606</title>
<path fill="none" stroke="black" d="M983,-310.56C1007.72,-299.89 1034.57,-288.3 1059.76,-277.43"/>
<polygon fill="black" stroke="black" points="1061.16,-280.63 1068.95,-273.46 1058.38,-274.21 1061.16,-280.63"/>
</g>
<!-- 572 -->
<g id="node19" class="node">
<title>572</title>
<polygon fill="#e9f4fc" stroke="black" points="889,-155 740,-155 740,-72 889,-72 889,-155"/>
<text text-anchor="middle" x="814.5" y="-139.8" font-family="Times,serif" font-size="14.00">nbproc &lt;= 4.5</text>
<text text-anchor="middle" x="814.5" y="-124.8" font-family="Times,serif" font-size="14.00">gini = 0.498</text>
<text text-anchor="middle" x="814.5" y="-109.8" font-family="Times,serif" font-size="14.00">samples = 839</text>
<text text-anchor="middle" x="814.5" y="-94.8" font-family="Times,serif" font-size="14.00">value = [395, 444]</text>
<text text-anchor="middle" x="814.5" y="-79.8" font-family="Times,serif" font-size="14.00">class = True</text>
</g>
<!-- 571&#45;&gt;572 -->
<g id="edge18" class="edge">
<title>571&#45;&gt;572</title>
<path fill="none" stroke="black" d="M864.13,-190.91C858.41,-182.1 852.31,-172.7 846.4,-163.61"/>
<polygon fill="black" stroke="black" points="849.2,-161.5 840.82,-155.02 843.33,-165.31 849.2,-161.5"/>
</g>
<!-- 583 -->
<g id="node22" class="node">
<title>583</title>
<polygon fill="#fbebe0" stroke="black" points="1056,-155 907,-155 907,-72 1056,-72 1056,-155"/>
<text text-anchor="middle" x="981.5" y="-139.8" font-family="Times,serif" font-size="14.00">sdComp &lt;= 6.5</text>
<text text-anchor="middle" x="981.5" y="-124.8" font-family="Times,serif" font-size="14.00">gini = 0.496</text>
<text text-anchor="middle" x="981.5" y="-109.8" font-family="Times,serif" font-size="14.00">samples = 1359</text>
<text text-anchor="middle" x="981.5" y="-94.8" font-family="Times,serif" font-size="14.00">value = [737, 622]</text>
<text text-anchor="middle" x="981.5" y="-79.8" font-family="Times,serif" font-size="14.00">class = False</text>
</g>
<!-- 571&#45;&gt;583 -->
<g id="edge21" class="edge">
<title>571&#45;&gt;583</title>
<path fill="none" stroke="black" d="M922.07,-190.91C929.06,-181.92 936.53,-172.32 943.74,-163.05"/>
<polygon fill="black" stroke="black" points="946.61,-165.06 949.98,-155.02 941.08,-160.77 946.61,-165.06"/>
</g>
<!-- 573 -->
<g id="node20" class="node">
<title>573</title>
<polygon fill="#c0c0c0" stroke="black" points="780.5,-36 726.5,-36 726.5,0 780.5,0 780.5,-36"/>
<text text-anchor="middle" x="753.5" y="-14.3" font-family="Times,serif" font-size="14.00">(...)</text>
</g>
<!-- 572&#45;&gt;573 -->
<g id="edge19" class="edge">
<title>572&#45;&gt;573</title>
<path fill="none" stroke="black" d="M787.92,-71.76C781.98,-62.65 775.84,-53.24 770.41,-44.92"/>
<polygon fill="black" stroke="black" points="773.25,-42.87 764.86,-36.41 767.39,-46.69 773.25,-42.87"/>
</g>
<!-- 578 -->
<g id="node21" class="node">
<title>578</title>
<polygon fill="#c0c0c0" stroke="black" points="852.5,-36 798.5,-36 798.5,0 852.5,0 852.5,-36"/>
<text text-anchor="middle" x="825.5" y="-14.3" font-family="Times,serif" font-size="14.00">(...)</text>
</g>
<!-- 572&#45;&gt;578 -->
<g id="edge20" class="edge">
<title>572&#45;&gt;578</title>
<path fill="none" stroke="black" d="M819.29,-71.76C820.3,-63.24 821.33,-54.44 822.26,-46.53"/>
<polygon fill="black" stroke="black" points="825.76,-46.75 823.45,-36.41 818.81,-45.93 825.76,-46.75"/>
</g>
<!-- 584 -->
<g id="node23" class="node">
<title>584</title>
<polygon fill="#c0c0c0" stroke="black" points="954.5,-36 900.5,-36 900.5,0 954.5,0 954.5,-36"/>
<text text-anchor="middle" x="927.5" y="-14.3" font-family="Times,serif" font-size="14.00">(...)</text>
</g>
<!-- 583&#45;&gt;584 -->
<g id="edge22" class="edge">
<title>583&#45;&gt;584</title>
<path fill="none" stroke="black" d="M957.97,-71.76C952.77,-62.75 947.39,-53.44 942.63,-45.19"/>
<polygon fill="black" stroke="black" points="945.58,-43.31 937.55,-36.41 939.52,-46.82 945.58,-43.31"/>
</g>
<!-- 599 -->
<g id="node24" class="node">
<title>599</title>
<polygon fill="#c0c0c0" stroke="black" points="1026.5,-36 972.5,-36 972.5,0 1026.5,0 1026.5,-36"/>
<text text-anchor="middle" x="999.5" y="-14.3" font-family="Times,serif" font-size="14.00">(...)</text>
</g>
<!-- 583&#45;&gt;599 -->
<g id="edge23" class="edge">
<title>583&#45;&gt;599</title>
<path fill="none" stroke="black" d="M989.34,-71.76C991,-63.14 992.72,-54.24 994.25,-46.26"/>
<polygon fill="black" stroke="black" points="997.7,-46.89 996.15,-36.41 990.82,-45.56 997.7,-46.89"/>
</g>
<!-- 607 -->
<g id="node26" class="node">
<title>607</title>
<polygon fill="#f8dbc6" stroke="black" points="1249.5,-155 1073.5,-155 1073.5,-72 1249.5,-72 1249.5,-155"/>
<text text-anchor="middle" x="1161.5" y="-139.8" font-family="Times,serif" font-size="14.00">graphDepth &lt;= 25.5</text>
<text text-anchor="middle" x="1161.5" y="-124.8" font-family="Times,serif" font-size="14.00">gini = 0.486</text>
<text text-anchor="middle" x="1161.5" y="-109.8" font-family="Times,serif" font-size="14.00">samples = 20684</text>
<text text-anchor="middle" x="1161.5" y="-94.8" font-family="Times,serif" font-size="14.00">value = [12084, 8600]</text>
<text text-anchor="middle" x="1161.5" y="-79.8" font-family="Times,serif" font-size="14.00">class = False</text>
</g>
<!-- 606&#45;&gt;607 -->
<g id="edge25" class="edge">
<title>606&#45;&gt;607</title>
<path fill="none" stroke="black" d="M1161.5,-190.91C1161.5,-182.65 1161.5,-173.86 1161.5,-165.3"/>
<polygon fill="black" stroke="black" points="1165,-165.02 1161.5,-155.02 1158,-165.02 1165,-165.02"/>
</g>
<!-- 774 -->
<g id="node29" class="node">
<title>774</title>
<polygon fill="#fae7da" stroke="black" points="1434,-155 1267,-155 1267,-72 1434,-72 1434,-155"/>
<text text-anchor="middle" x="1350.5" y="-139.8" font-family="Times,serif" font-size="14.00">sdComm &lt;= 2.0</text>
<text text-anchor="middle" x="1350.5" y="-124.8" font-family="Times,serif" font-size="14.00">gini = 0.495</text>
<text text-anchor="middle" x="1350.5" y="-109.8" font-family="Times,serif" font-size="14.00">samples = 8270</text>
<text text-anchor="middle" x="1350.5" y="-94.8" font-family="Times,serif" font-size="14.00">value = [4563, 3707]</text>
<text text-anchor="middle" x="1350.5" y="-79.8" font-family="Times,serif" font-size="14.00">class = False</text>
</g>
<!-- 606&#45;&gt;774 -->
<g id="edge28" class="edge">
<title>606&#45;&gt;774</title>
<path fill="none" stroke="black" d="M1227.07,-190.91C1242.91,-181.11 1259.94,-170.56 1276.14,-160.53"/>
<polygon fill="black" stroke="black" points="1278.38,-163.26 1285.04,-155.02 1274.7,-157.31 1278.38,-163.26"/>
</g>
<!-- 608 -->
<g id="node27" class="node">
<title>608</title>
<polygon fill="#c0c0c0" stroke="black" points="1152.5,-36 1098.5,-36 1098.5,0 1152.5,0 1152.5,-36"/>
<text text-anchor="middle" x="1125.5" y="-14.3" font-family="Times,serif" font-size="14.00">(...)</text>
</g>
<!-- 607&#45;&gt;608 -->
<g id="edge26" class="edge">
<title>607&#45;&gt;608</title>
<path fill="none" stroke="black" d="M1145.81,-71.76C1142.46,-63.04 1138.99,-54.04 1135.89,-45.99"/>
<polygon fill="black" stroke="black" points="1139.06,-44.48 1132.2,-36.41 1132.53,-46.99 1139.06,-44.48"/>
</g>
<!-- 751 -->
<g id="node28" class="node">
<title>751</title>
<polygon fill="#c0c0c0" stroke="black" points="1224.5,-36 1170.5,-36 1170.5,0 1224.5,0 1224.5,-36"/>
<text text-anchor="middle" x="1197.5" y="-14.3" font-family="Times,serif" font-size="14.00">(...)</text>
</g>
<!-- 607&#45;&gt;751 -->
<g id="edge27" class="edge">
<title>607&#45;&gt;751</title>
<path fill="none" stroke="black" d="M1177.19,-71.76C1180.54,-63.04 1184.01,-54.04 1187.11,-45.99"/>
<polygon fill="black" stroke="black" points="1190.47,-46.99 1190.8,-36.41 1183.94,-44.48 1190.47,-46.99"/>
</g>
<!-- 775 -->
<g id="node30" class="node">
<title>775</title>
<polygon fill="#c0c0c0" stroke="black" points="1341.5,-36 1287.5,-36 1287.5,0 1341.5,0 1341.5,-36"/>
<text text-anchor="middle" x="1314.5" y="-14.3" font-family="Times,serif" font-size="14.00">(...)</text>
</g>
<!-- 774&#45;&gt;775 -->
<g id="edge29" class="edge">
<title>774&#45;&gt;775</title>
<path fill="none" stroke="black" d="M1334.81,-71.76C1331.46,-63.04 1327.99,-54.04 1324.89,-45.99"/>
<polygon fill="black" stroke="black" points="1328.06,-44.48 1321.2,-36.41 1321.53,-46.99 1328.06,-44.48"/>
</g>
<!-- 802 -->
<g id="node31" class="node">
<title>802</title>
<polygon fill="#c0c0c0" stroke="black" points="1413.5,-36 1359.5,-36 1359.5,0 1413.5,0 1413.5,-36"/>
<text text-anchor="middle" x="1386.5" y="-14.3" font-family="Times,serif" font-size="14.00">(...)</text>
</g>
<!-- 774&#45;&gt;802 -->
<g id="edge30" class="edge">
<title>774&#45;&gt;802</title>
<path fill="none" stroke="black" d="M1366.19,-71.76C1369.54,-63.04 1373.01,-54.04 1376.11,-45.99"/>
<polygon fill="black" stroke="black" points="1379.47,-46.99 1379.8,-36.41 1372.94,-44.48 1379.47,-46.99"/>
</g>
</g>
</svg>
