<?xml version="1.0" encoding="UTF-8" standalone="no"?>
<!DOCTYPE svg PUBLIC "-//W3C//DTD SVG 1.1//EN"
 "http://www.w3.org/Graphics/SVG/1.1/DTD/svg11.dtd">
<!-- Generated by graphviz version 2.43.0 (0)
 -->
<!-- Title: Tree Pages: 1 -->
<svg width="2694pt" height="520pt"
 viewBox="0.00 0.00 2694.00 520.00" xmlns="http://www.w3.org/2000/svg" xmlns:xlink="http://www.w3.org/1999/xlink">
<g id="graph0" class="graph" transform="scale(1 1) rotate(0) translate(4 516)">
<title>Tree</title>
<polygon fill="white" stroke="transparent" points="-4,4 -4,-516 2690,-516 2690,4 -4,4"/>
<!-- 0 -->
<g id="node1" class="node">
<title>0</title>
<polygon fill="#fef9f6" stroke="black" points="1568,-512 1167,-512 1167,-429 1568,-429 1568,-512"/>
<text text-anchor="middle" x="1367.5" y="-496.8" font-family="Times,serif" font-size="14.00">graphSize &lt;= 40.0</text>
<text text-anchor="middle" x="1367.5" y="-481.8" font-family="Times,serif" font-size="14.00">gini = 0.832</text>
<text text-anchor="middle" x="1367.5" y="-466.8" font-family="Times,serif" font-size="14.00">samples = 81152</text>
<text text-anchor="middle" x="1367.5" y="-451.8" font-family="Times,serif" font-size="14.00">value = [16144, 12946, 13150, 12881, 12881, 13150]</text>
<text text-anchor="middle" x="1367.5" y="-436.8" font-family="Times,serif" font-size="14.00">class = mean</text>
</g>
<!-- 1 -->
<g id="node2" class="node">
<title>1</title>
<polygon fill="#fefbf9" stroke="black" points="1194.5,-393 838.5,-393 838.5,-310 1194.5,-310 1194.5,-393"/>
<text text-anchor="middle" x="1016.5" y="-377.8" font-family="Times,serif" font-size="14.00">graphDepth &lt;= 3.5</text>
<text text-anchor="middle" x="1016.5" y="-362.8" font-family="Times,serif" font-size="14.00">gini = 0.833</text>
<text text-anchor="middle" x="1016.5" y="-347.8" font-family="Times,serif" font-size="14.00">samples = 60554</text>
<text text-anchor="middle" x="1016.5" y="-332.8" font-family="Times,serif" font-size="14.00">value = [11517, 9695, 9991, 9680, 9680, 9991]</text>
<text text-anchor="middle" x="1016.5" y="-317.8" font-family="Times,serif" font-size="14.00">class = mean</text>
</g>
<!-- 0&#45;&gt;1 -->
<g id="edge1" class="edge">
<title>0&#45;&gt;1</title>
<path fill="none" stroke="black" d="M1245.72,-428.91C1214.14,-418.38 1179.99,-407 1147.94,-396.31"/>
<polygon fill="black" stroke="black" points="1148.66,-392.86 1138.06,-393.02 1146.44,-399.5 1148.66,-392.86"/>
<text text-anchor="middle" x="1149.24" y="-411.68" font-family="Times,serif" font-size="14.00">True</text>
</g>
<!-- 432 -->
<g id="node17" class="node">
<title>432</title>
<polygon fill="#fdf5ef" stroke="black" points="1879,-393 1532,-393 1532,-310 1879,-310 1879,-393"/>
<text text-anchor="middle" x="1705.5" y="-377.8" font-family="Times,serif" font-size="14.00">sdComm &lt;= 0.2</text>
<text text-anchor="middle" x="1705.5" y="-362.8" font-family="Times,serif" font-size="14.00">gini = 0.829</text>
<text text-anchor="middle" x="1705.5" y="-347.8" font-family="Times,serif" font-size="14.00">samples = 20598</text>
<text text-anchor="middle" x="1705.5" y="-332.8" font-family="Times,serif" font-size="14.00">value = [4627, 3251, 3159, 3201, 3201, 3159]</text>
<text text-anchor="middle" x="1705.5" y="-317.8" font-family="Times,serif" font-size="14.00">class = mean</text>
</g>
<!-- 0&#45;&gt;432 -->
<g id="edge16" class="edge">
<title>0&#45;&gt;432</title>
<path fill="none" stroke="black" d="M1484.77,-428.91C1515.18,-418.38 1548.06,-407 1578.93,-396.31"/>
<polygon fill="black" stroke="black" points="1580.13,-399.6 1588.44,-393.02 1577.85,-392.98 1580.13,-399.6"/>
<text text-anchor="middle" x="1577.52" y="-411.81" font-family="Times,serif" font-size="14.00">False</text>
</g>
<!-- 2 -->
<g id="node3" class="node">
<title>2</title>
<polygon fill="#fffefe" stroke="black" points="658,-274 311,-274 311,-191 658,-191 658,-274"/>
<text text-anchor="middle" x="484.5" y="-258.8" font-family="Times,serif" font-size="14.00">sdComp &lt;= 0.065</text>
<text text-anchor="middle" x="484.5" y="-243.8" font-family="Times,serif" font-size="14.00">gini = 0.833</text>
<text text-anchor="middle" x="484.5" y="-228.8" font-family="Times,serif" font-size="14.00">samples = 11134</text>
<text text-anchor="middle" x="484.5" y="-213.8" font-family="Times,serif" font-size="14.00">value = [1950, 1750, 1814, 1903, 1903, 1814]</text>
<text text-anchor="middle" x="484.5" y="-198.8" font-family="Times,serif" font-size="14.00">class = mean</text>
</g>
<!-- 1&#45;&gt;2 -->
<g id="edge2" class="edge">
<title>1&#45;&gt;2</title>
<path fill="none" stroke="black" d="M838.24,-311.3C783.55,-299.27 723.28,-286.01 668.23,-273.91"/>
<polygon fill="black" stroke="black" points="668.89,-270.47 658.37,-271.74 667.39,-277.31 668.89,-270.47"/>
</g>
<!-- 109 -->
<g id="node10" class="node">
<title>109</title>
<polygon fill="#fefbf8" stroke="black" points="1190,-274 843,-274 843,-191 1190,-191 1190,-274"/>
<text text-anchor="middle" x="1016.5" y="-258.8" font-family="Times,serif" font-size="14.00">graphSize &lt;= 22.5</text>
<text text-anchor="middle" x="1016.5" y="-243.8" font-family="Times,serif" font-size="14.00">gini = 0.832</text>
<text text-anchor="middle" x="1016.5" y="-228.8" font-family="Times,serif" font-size="14.00">samples = 49420</text>
<text text-anchor="middle" x="1016.5" y="-213.8" font-family="Times,serif" font-size="14.00">value = [9567, 7945, 8177, 7777, 7777, 8177]</text>
<text text-anchor="middle" x="1016.5" y="-198.8" font-family="Times,serif" font-size="14.00">class = mean</text>
</g>
<!-- 1&#45;&gt;109 -->
<g id="edge9" class="edge">
<title>1&#45;&gt;109</title>
<path fill="none" stroke="black" d="M1016.5,-309.91C1016.5,-301.65 1016.5,-292.86 1016.5,-284.3"/>
<polygon fill="black" stroke="black" points="1020,-284.02 1016.5,-274.02 1013,-284.02 1020,-284.02"/>
</g>
<!-- 3 -->
<g id="node4" class="node">
<title>3</title>
<polygon fill="#ffffff" stroke="black" points="293,-155 0,-155 0,-72 293,-72 293,-155"/>
<text text-anchor="middle" x="146.5" y="-139.8" font-family="Times,serif" font-size="14.00">sdComp &lt;= 0.02</text>
<text text-anchor="middle" x="146.5" y="-124.8" font-family="Times,serif" font-size="14.00">gini = 0.826</text>
<text text-anchor="middle" x="146.5" y="-109.8" font-family="Times,serif" font-size="14.00">samples = 914</text>
<text text-anchor="middle" x="146.5" y="-94.8" font-family="Times,serif" font-size="14.00">value = [113, 111, 154, 191, 191, 154]</text>
<text text-anchor="middle" x="146.5" y="-79.8" font-family="Times,serif" font-size="14.00">class = minmax</text>
</g>
<!-- 2&#45;&gt;3 -->
<g id="edge3" class="edge">
<title>2&#45;&gt;3</title>
<path fill="none" stroke="black" d="M367.23,-190.91C336.82,-180.38 303.94,-169 273.07,-158.31"/>
<polygon fill="black" stroke="black" points="274.15,-154.98 263.56,-155.02 271.87,-161.6 274.15,-154.98"/>
</g>
<!-- 26 -->
<g id="node7" class="node">
<title>26</title>
<polygon fill="#fffdfc" stroke="black" points="658,-155 311,-155 311,-72 658,-72 658,-155"/>
<text text-anchor="middle" x="484.5" y="-139.8" font-family="Times,serif" font-size="14.00">sdComm &lt;= 0.2</text>
<text text-anchor="middle" x="484.5" y="-124.8" font-family="Times,serif" font-size="14.00">gini = 0.833</text>
<text text-anchor="middle" x="484.5" y="-109.8" font-family="Times,serif" font-size="14.00">samples = 10220</text>
<text text-anchor="middle" x="484.5" y="-94.8" font-family="Times,serif" font-size="14.00">value = [1837, 1639, 1660, 1712, 1712, 1660]</text>
<text text-anchor="middle" x="484.5" y="-79.8" font-family="Times,serif" font-size="14.00">class = mean</text>
</g>
<!-- 2&#45;&gt;26 -->
<g id="edge6" class="edge">
<title>2&#45;&gt;26</title>
<path fill="none" stroke="black" d="M484.5,-190.91C484.5,-182.65 484.5,-173.86 484.5,-165.3"/>
<polygon fill="black" stroke="black" points="488,-165.02 484.5,-155.02 481,-165.02 488,-165.02"/>
</g>
<!-- 4 -->
<g id="node5" class="node">
<title>4</title>
<polygon fill="#c0c0c0" stroke="black" points="137.5,-36 83.5,-36 83.5,0 137.5,0 137.5,-36"/>
<text text-anchor="middle" x="110.5" y="-14.3" font-family="Times,serif" font-size="14.00">(...)</text>
</g>
<!-- 3&#45;&gt;4 -->
<g id="edge4" class="edge">
<title>3&#45;&gt;4</title>
<path fill="none" stroke="black" d="M130.81,-71.76C127.46,-63.04 123.99,-54.04 120.89,-45.99"/>
<polygon fill="black" stroke="black" points="124.06,-44.48 117.2,-36.41 117.53,-46.99 124.06,-44.48"/>
</g>
<!-- 15 -->
<g id="node6" class="node">
<title>15</title>
<polygon fill="#c0c0c0" stroke="black" points="209.5,-36 155.5,-36 155.5,0 209.5,0 209.5,-36"/>
<text text-anchor="middle" x="182.5" y="-14.3" font-family="Times,serif" font-size="14.00">(...)</text>
</g>
<!-- 3&#45;&gt;15 -->
<g id="edge5" class="edge">
<title>3&#45;&gt;15</title>
<path fill="none" stroke="black" d="M162.19,-71.76C165.54,-63.04 169.01,-54.04 172.11,-45.99"/>
<polygon fill="black" stroke="black" points="175.47,-46.99 175.8,-36.41 168.94,-44.48 175.47,-46.99"/>
</g>
<!-- 27 -->
<g id="node8" class="node">
<title>27</title>
<polygon fill="#c0c0c0" stroke="black" points="475.5,-36 421.5,-36 421.5,0 475.5,0 475.5,-36"/>
<text text-anchor="middle" x="448.5" y="-14.3" font-family="Times,serif" font-size="14.00">(...)</text>
</g>
<!-- 26&#45;&gt;27 -->
<g id="edge7" class="edge">
<title>26&#45;&gt;27</title>
<path fill="none" stroke="black" d="M468.81,-71.76C465.46,-63.04 461.99,-54.04 458.89,-45.99"/>
<polygon fill="black" stroke="black" points="462.06,-44.48 455.2,-36.41 455.53,-46.99 462.06,-44.48"/>
</g>
<!-- 50 -->
<g id="node9" class="node">
<title>50</title>
<polygon fill="#c0c0c0" stroke="black" points="547.5,-36 493.5,-36 493.5,0 547.5,0 547.5,-36"/>
<text text-anchor="middle" x="520.5" y="-14.3" font-family="Times,serif" font-size="14.00">(...)</text>
</g>
<!-- 26&#45;&gt;50 -->
<g id="edge8" class="edge">
<title>26&#45;&gt;50</title>
<path fill="none" stroke="black" d="M500.19,-71.76C503.54,-63.04 507.01,-54.04 510.11,-45.99"/>
<polygon fill="black" stroke="black" points="513.47,-46.99 513.8,-36.41 506.94,-44.48 513.47,-46.99"/>
</g>
<!-- 110 -->
<g id="node11" class="node">
<title>110</title>
<polygon fill="#fefbf9" stroke="black" points="1023,-155 676,-155 676,-72 1023,-72 1023,-155"/>
<text text-anchor="middle" x="849.5" y="-139.8" font-family="Times,serif" font-size="14.00">sdComm &lt;= 0.065</text>
<text text-anchor="middle" x="849.5" y="-124.8" font-family="Times,serif" font-size="14.00">gini = 0.833</text>
<text text-anchor="middle" x="849.5" y="-109.8" font-family="Times,serif" font-size="14.00">samples = 32360</text>
<text text-anchor="middle" x="849.5" y="-94.8" font-family="Times,serif" font-size="14.00">value = [6134, 5262, 5309, 5173, 5173, 5309]</text>
<text text-anchor="middle" x="849.5" y="-79.8" font-family="Times,serif" font-size="14.00">class = mean</text>
</g>
<!-- 109&#45;&gt;110 -->
<g id="edge10" class="edge">
<title>109&#45;&gt;110</title>
<path fill="none" stroke="black" d="M958.56,-190.91C944.7,-181.2 929.8,-170.76 915.6,-160.81"/>
<polygon fill="black" stroke="black" points="917.54,-157.89 907.34,-155.02 913.52,-163.63 917.54,-157.89"/>
</g>
<!-- 217 -->
<g id="node14" class="node">
<title>217</title>
<polygon fill="#fefaf7" stroke="black" points="1388,-155 1041,-155 1041,-72 1388,-72 1388,-155"/>
<text text-anchor="middle" x="1214.5" y="-139.8" font-family="Times,serif" font-size="14.00">sdComm &lt;= 0.02</text>
<text text-anchor="middle" x="1214.5" y="-124.8" font-family="Times,serif" font-size="14.00">gini = 0.832</text>
<text text-anchor="middle" x="1214.5" y="-109.8" font-family="Times,serif" font-size="14.00">samples = 17060</text>
<text text-anchor="middle" x="1214.5" y="-94.8" font-family="Times,serif" font-size="14.00">value = [3433, 2683, 2868, 2604, 2604, 2868]</text>
<text text-anchor="middle" x="1214.5" y="-79.8" font-family="Times,serif" font-size="14.00">class = mean</text>
</g>
<!-- 109&#45;&gt;217 -->
<g id="edge13" class="edge">
<title>109&#45;&gt;217</title>
<path fill="none" stroke="black" d="M1085.2,-190.91C1101.94,-181.02 1119.95,-170.37 1137.07,-160.25"/>
<polygon fill="black" stroke="black" points="1139.1,-163.12 1145.93,-155.02 1135.54,-157.09 1139.1,-163.12"/>
</g>
<!-- 111 -->
<g id="node12" class="node">
<title>111</title>
<polygon fill="#c0c0c0" stroke="black" points="840.5,-36 786.5,-36 786.5,0 840.5,0 840.5,-36"/>
<text text-anchor="middle" x="813.5" y="-14.3" font-family="Times,serif" font-size="14.00">(...)</text>
</g>
<!-- 110&#45;&gt;111 -->
<g id="edge11" class="edge">
<title>110&#45;&gt;111</title>
<path fill="none" stroke="black" d="M833.81,-71.76C830.46,-63.04 826.99,-54.04 823.89,-45.99"/>
<polygon fill="black" stroke="black" points="827.06,-44.48 820.2,-36.41 820.53,-46.99 827.06,-44.48"/>
</g>
<!-- 134 -->
<g id="node13" class="node">
<title>134</title>
<polygon fill="#c0c0c0" stroke="black" points="912.5,-36 858.5,-36 858.5,0 912.5,0 912.5,-36"/>
<text text-anchor="middle" x="885.5" y="-14.3" font-family="Times,serif" font-size="14.00">(...)</text>
</g>
<!-- 110&#45;&gt;134 -->
<g id="edge12" class="edge">
<title>110&#45;&gt;134</title>
<path fill="none" stroke="black" d="M865.19,-71.76C868.54,-63.04 872.01,-54.04 875.11,-45.99"/>
<polygon fill="black" stroke="black" points="878.47,-46.99 878.8,-36.41 871.94,-44.48 878.47,-46.99"/>
</g>
<!-- 218 -->
<g id="node15" class="node">
<title>218</title>
<polygon fill="#c0c0c0" stroke="black" points="1205.5,-36 1151.5,-36 1151.5,0 1205.5,0 1205.5,-36"/>
<text text-anchor="middle" x="1178.5" y="-14.3" font-family="Times,serif" font-size="14.00">(...)</text>
</g>
<!-- 217&#45;&gt;218 -->
<g id="edge14" class="edge">
<title>217&#45;&gt;218</title>
<path fill="none" stroke="black" d="M1198.81,-71.76C1195.46,-63.04 1191.99,-54.04 1188.89,-45.99"/>
<polygon fill="black" stroke="black" points="1192.06,-44.48 1185.2,-36.41 1185.53,-46.99 1192.06,-44.48"/>
</g>
<!-- 241 -->
<g id="node16" class="node">
<title>241</title>
<polygon fill="#c0c0c0" stroke="black" points="1277.5,-36 1223.5,-36 1223.5,0 1277.5,0 1277.5,-36"/>
<text text-anchor="middle" x="1250.5" y="-14.3" font-family="Times,serif" font-size="14.00">(...)</text>
</g>
<!-- 217&#45;&gt;241 -->
<g id="edge15" class="edge">
<title>217&#45;&gt;241</title>
<path fill="none" stroke="black" d="M1230.19,-71.76C1233.54,-63.04 1237.01,-54.04 1240.11,-45.99"/>
<polygon fill="black" stroke="black" points="1243.47,-46.99 1243.8,-36.41 1236.94,-44.48 1243.47,-46.99"/>
</g>
<!-- 433 -->
<g id="node18" class="node">
<title>433</title>
<polygon fill="#fcf1ea" stroke="black" points="1856.5,-274 1554.5,-274 1554.5,-191 1856.5,-191 1856.5,-274"/>
<text text-anchor="middle" x="1705.5" y="-258.8" font-family="Times,serif" font-size="14.00">nbproc &lt;= 4.5</text>
<text text-anchor="middle" x="1705.5" y="-243.8" font-family="Times,serif" font-size="14.00">gini = 0.824</text>
<text text-anchor="middle" x="1705.5" y="-228.8" font-family="Times,serif" font-size="14.00">samples = 4653</text>
<text text-anchor="middle" x="1705.5" y="-213.8" font-family="Times,serif" font-size="14.00">value = [1180, 643, 655, 760, 760, 655]</text>
<text text-anchor="middle" x="1705.5" y="-198.8" font-family="Times,serif" font-size="14.00">class = mean</text>
</g>
<!-- 432&#45;&gt;433 -->
<g id="edge17" class="edge">
<title>432&#45;&gt;433</title>
<path fill="none" stroke="black" d="M1705.5,-309.91C1705.5,-301.65 1705.5,-292.86 1705.5,-284.3"/>
<polygon fill="black" stroke="black" points="1709,-284.02 1705.5,-274.02 1702,-284.02 1709,-284.02"/>
</g>
<!-- 624 -->
<g id="node25" class="node">
<title>624</title>
<polygon fill="#fdf7f3" stroke="black" points="2375,-274 2028,-274 2028,-191 2375,-191 2375,-274"/>
<text text-anchor="middle" x="2201.5" y="-258.8" font-family="Times,serif" font-size="14.00">sdComp &lt;= 6.5</text>
<text text-anchor="middle" x="2201.5" y="-243.8" font-family="Times,serif" font-size="14.00">gini = 0.83</text>
<text text-anchor="middle" x="2201.5" y="-228.8" font-family="Times,serif" font-size="14.00">samples = 15945</text>
<text text-anchor="middle" x="2201.5" y="-213.8" font-family="Times,serif" font-size="14.00">value = [3447, 2608, 2504, 2441, 2441, 2504]</text>
<text text-anchor="middle" x="2201.5" y="-198.8" font-family="Times,serif" font-size="14.00">class = mean</text>
</g>
<!-- 432&#45;&gt;624 -->
<g id="edge24" class="edge">
<title>432&#45;&gt;624</title>
<path fill="none" stroke="black" d="M1877.24,-309.99C1923.23,-299.14 1973.1,-287.38 2019.62,-276.4"/>
<polygon fill="black" stroke="black" points="2020.56,-279.78 2029.49,-274.07 2018.95,-272.96 2020.56,-279.78"/>
</g>
<!-- 434 -->
<g id="node19" class="node">
<title>434</title>
<polygon fill="#fdf7f2" stroke="black" points="1699,-155 1406,-155 1406,-72 1699,-72 1699,-155"/>
<text text-anchor="middle" x="1552.5" y="-139.8" font-family="Times,serif" font-size="14.00">sdComp &lt;= 0.02</text>
<text text-anchor="middle" x="1552.5" y="-124.8" font-family="Times,serif" font-size="14.00">gini = 0.826</text>
<text text-anchor="middle" x="1552.5" y="-109.8" font-family="Times,serif" font-size="14.00">samples = 2041</text>
<text text-anchor="middle" x="1552.5" y="-94.8" font-family="Times,serif" font-size="14.00">value = [475, 302, 265, 367, 367, 265]</text>
<text text-anchor="middle" x="1552.5" y="-79.8" font-family="Times,serif" font-size="14.00">class = mean</text>
</g>
<!-- 433&#45;&gt;434 -->
<g id="edge18" class="edge">
<title>433&#45;&gt;434</title>
<path fill="none" stroke="black" d="M1652.42,-190.91C1639.96,-181.38 1626.58,-171.15 1613.79,-161.37"/>
<polygon fill="black" stroke="black" points="1615.56,-158.32 1605.49,-155.02 1611.31,-163.88 1615.56,-158.32"/>
</g>
<!-- 529 -->
<g id="node22" class="node">
<title>529</title>
<polygon fill="#fbede3" stroke="black" points="2010,-155 1717,-155 1717,-72 2010,-72 2010,-155"/>
<text text-anchor="middle" x="1863.5" y="-139.8" font-family="Times,serif" font-size="14.00">CCR &lt;= 0.55</text>
<text text-anchor="middle" x="1863.5" y="-124.8" font-family="Times,serif" font-size="14.00">gini = 0.82</text>
<text text-anchor="middle" x="1863.5" y="-109.8" font-family="Times,serif" font-size="14.00">samples = 2612</text>
<text text-anchor="middle" x="1863.5" y="-94.8" font-family="Times,serif" font-size="14.00">value = [705, 341, 390, 393, 393, 390]</text>
<text text-anchor="middle" x="1863.5" y="-79.8" font-family="Times,serif" font-size="14.00">class = mean</text>
</g>
<!-- 433&#45;&gt;529 -->
<g id="edge21" class="edge">
<title>433&#45;&gt;529</title>
<path fill="none" stroke="black" d="M1760.32,-190.91C1773.31,-181.29 1787.26,-170.95 1800.58,-161.09"/>
<polygon fill="black" stroke="black" points="1802.83,-163.78 1808.78,-155.02 1798.66,-158.16 1802.83,-163.78"/>
</g>
<!-- 435 -->
<g id="node20" class="node">
<title>435</title>
<polygon fill="#c0c0c0" stroke="black" points="1543.5,-36 1489.5,-36 1489.5,0 1543.5,0 1543.5,-36"/>
<text text-anchor="middle" x="1516.5" y="-14.3" font-family="Times,serif" font-size="14.00">(...)</text>
</g>
<!-- 434&#45;&gt;435 -->
<g id="edge19" class="edge">
<title>434&#45;&gt;435</title>
<path fill="none" stroke="black" d="M1536.81,-71.76C1533.46,-63.04 1529.99,-54.04 1526.89,-45.99"/>
<polygon fill="black" stroke="black" points="1530.06,-44.48 1523.2,-36.41 1523.53,-46.99 1530.06,-44.48"/>
</g>
<!-- 458 -->
<g id="node21" class="node">
<title>458</title>
<polygon fill="#c0c0c0" stroke="black" points="1615.5,-36 1561.5,-36 1561.5,0 1615.5,0 1615.5,-36"/>
<text text-anchor="middle" x="1588.5" y="-14.3" font-family="Times,serif" font-size="14.00">(...)</text>
</g>
<!-- 434&#45;&gt;458 -->
<g id="edge20" class="edge">
<title>434&#45;&gt;458</title>
<path fill="none" stroke="black" d="M1568.19,-71.76C1571.54,-63.04 1575.01,-54.04 1578.11,-45.99"/>
<polygon fill="black" stroke="black" points="1581.47,-46.99 1581.8,-36.41 1574.94,-44.48 1581.47,-46.99"/>
</g>
<!-- 530 -->
<g id="node23" class="node">
<title>530</title>
<polygon fill="#c0c0c0" stroke="black" points="1854.5,-36 1800.5,-36 1800.5,0 1854.5,0 1854.5,-36"/>
<text text-anchor="middle" x="1827.5" y="-14.3" font-family="Times,serif" font-size="14.00">(...)</text>
</g>
<!-- 529&#45;&gt;530 -->
<g id="edge22" class="edge">
<title>529&#45;&gt;530</title>
<path fill="none" stroke="black" d="M1847.81,-71.76C1844.46,-63.04 1840.99,-54.04 1837.89,-45.99"/>
<polygon fill="black" stroke="black" points="1841.06,-44.48 1834.2,-36.41 1834.53,-46.99 1841.06,-44.48"/>
</g>
<!-- 601 -->
<g id="node24" class="node">
<title>601</title>
<polygon fill="#c0c0c0" stroke="black" points="1926.5,-36 1872.5,-36 1872.5,0 1926.5,0 1926.5,-36"/>
<text text-anchor="middle" x="1899.5" y="-14.3" font-family="Times,serif" font-size="14.00">(...)</text>
</g>
<!-- 529&#45;&gt;601 -->
<g id="edge23" class="edge">
<title>529&#45;&gt;601</title>
<path fill="none" stroke="black" d="M1879.19,-71.76C1882.54,-63.04 1886.01,-54.04 1889.11,-45.99"/>
<polygon fill="black" stroke="black" points="1892.47,-46.99 1892.8,-36.41 1885.94,-44.48 1892.47,-46.99"/>
</g>
<!-- 625 -->
<g id="node26" class="node">
<title>625</title>
<polygon fill="#fef9f5" stroke="black" points="2375,-155 2028,-155 2028,-72 2375,-72 2375,-155"/>
<text text-anchor="middle" x="2201.5" y="-139.8" font-family="Times,serif" font-size="14.00">sdComp &lt;= 0.65</text>
<text text-anchor="middle" x="2201.5" y="-124.8" font-family="Times,serif" font-size="14.00">gini = 0.831</text>
<text text-anchor="middle" x="2201.5" y="-109.8" font-family="Times,serif" font-size="14.00">samples = 12511</text>
<text text-anchor="middle" x="2201.5" y="-94.8" font-family="Times,serif" font-size="14.00">value = [2600, 2067, 1989, 1933, 1933, 1989]</text>
<text text-anchor="middle" x="2201.5" y="-79.8" font-family="Times,serif" font-size="14.00">class = mean</text>
</g>
<!-- 624&#45;&gt;625 -->
<g id="edge25" class="edge">
<title>624&#45;&gt;625</title>
<path fill="none" stroke="black" d="M2201.5,-190.91C2201.5,-182.65 2201.5,-173.86 2201.5,-165.3"/>
<polygon fill="black" stroke="black" points="2205,-165.02 2201.5,-155.02 2198,-165.02 2205,-165.02"/>
</g>
<!-- 816 -->
<g id="node29" class="node">
<title>816</title>
<polygon fill="#fcf2ea" stroke="black" points="2686,-155 2393,-155 2393,-72 2686,-72 2686,-155"/>
<text text-anchor="middle" x="2539.5" y="-139.8" font-family="Times,serif" font-size="14.00">graphSize &lt;= 75.0</text>
<text text-anchor="middle" x="2539.5" y="-124.8" font-family="Times,serif" font-size="14.00">gini = 0.826</text>
<text text-anchor="middle" x="2539.5" y="-109.8" font-family="Times,serif" font-size="14.00">samples = 3434</text>
<text text-anchor="middle" x="2539.5" y="-94.8" font-family="Times,serif" font-size="14.00">value = [847, 541, 515, 508, 508, 515]</text>
<text text-anchor="middle" x="2539.5" y="-79.8" font-family="Times,serif" font-size="14.00">class = mean</text>
</g>
<!-- 624&#45;&gt;816 -->
<g id="edge28" class="edge">
<title>624&#45;&gt;816</title>
<path fill="none" stroke="black" d="M2318.77,-190.91C2349.18,-180.38 2382.06,-169 2412.93,-158.31"/>
<polygon fill="black" stroke="black" points="2414.13,-161.6 2422.44,-155.02 2411.85,-154.98 2414.13,-161.6"/>
</g>
<!-- 626 -->
<g id="node27" class="node">
<title>626</title>
<polygon fill="#c0c0c0" stroke="black" points="2192.5,-36 2138.5,-36 2138.5,0 2192.5,0 2192.5,-36"/>
<text text-anchor="middle" x="2165.5" y="-14.3" font-family="Times,serif" font-size="14.00">(...)</text>
</g>
<!-- 625&#45;&gt;626 -->
<g id="edge26" class="edge">
<title>625&#45;&gt;626</title>
<path fill="none" stroke="black" d="M2185.81,-71.76C2182.46,-63.04 2178.99,-54.04 2175.89,-45.99"/>
<polygon fill="black" stroke="black" points="2179.06,-44.48 2172.2,-36.41 2172.53,-46.99 2179.06,-44.48"/>
</g>
<!-- 689 -->
<g id="node28" class="node">
<title>689</title>
<polygon fill="#c0c0c0" stroke="black" points="2264.5,-36 2210.5,-36 2210.5,0 2264.5,0 2264.5,-36"/>
<text text-anchor="middle" x="2237.5" y="-14.3" font-family="Times,serif" font-size="14.00">(...)</text>
</g>
<!-- 625&#45;&gt;689 -->
<g id="edge27" class="edge">
<title>625&#45;&gt;689</title>
<path fill="none" stroke="black" d="M2217.19,-71.76C2220.54,-63.04 2224.01,-54.04 2227.11,-45.99"/>
<polygon fill="black" stroke="black" points="2230.47,-46.99 2230.8,-36.41 2223.94,-44.48 2230.47,-46.99"/>
</g>
<!-- 817 -->
<g id="node30" class="node">
<title>817</title>
<polygon fill="#c0c0c0" stroke="black" points="2530.5,-36 2476.5,-36 2476.5,0 2530.5,0 2530.5,-36"/>
<text text-anchor="middle" x="2503.5" y="-14.3" font-family="Times,serif" font-size="14.00">(...)</text>
</g>
<!-- 816&#45;&gt;817 -->
<g id="edge29" class="edge">
<title>816&#45;&gt;817</title>
<path fill="none" stroke="black" d="M2523.81,-71.76C2520.46,-63.04 2516.99,-54.04 2513.89,-45.99"/>
<polygon fill="black" stroke="black" points="2517.06,-44.48 2510.2,-36.41 2510.53,-46.99 2517.06,-44.48"/>
</g>
<!-- 840 -->
<g id="node31" class="node">
<title>840</title>
<polygon fill="#c0c0c0" stroke="black" points="2602.5,-36 2548.5,-36 2548.5,0 2602.5,0 2602.5,-36"/>
<text text-anchor="middle" x="2575.5" y="-14.3" font-family="Times,serif" font-size="14.00">(...)</text>
</g>
<!-- 816&#45;&gt;840 -->
<g id="edge30" class="edge">
<title>816&#45;&gt;840</title>
<path fill="none" stroke="black" d="M2555.19,-71.76C2558.54,-63.04 2562.01,-54.04 2565.11,-45.99"/>
<polygon fill="black" stroke="black" points="2568.47,-46.99 2568.8,-36.41 2561.94,-44.48 2568.47,-46.99"/>
</g>
</g>
</svg>
