<?xml version="1.0" encoding="UTF-8" standalone="no"?>
<!DOCTYPE svg PUBLIC "-//W3C//DTD SVG 1.1//EN"
 "http://www.w3.org/Graphics/SVG/1.1/DTD/svg11.dtd">
<!-- Generated by graphviz version 2.43.0 (0)
 -->
<!-- Title: Tree Pages: 1 -->
<svg width="3047pt" height="520pt"
 viewBox="0.00 0.00 3046.50 520.00" xmlns="http://www.w3.org/2000/svg" xmlns:xlink="http://www.w3.org/1999/xlink">
<g id="graph0" class="graph" transform="scale(1 1) rotate(0) translate(4 516)">
<title>Tree</title>
<polygon fill="white" stroke="transparent" points="-4,4 -4,-516 3042.5,-516 3042.5,4 -4,4"/>
<!-- 0 -->
<g id="node1" class="node">
<title>0</title>
<polygon fill="#fffdfc" stroke="black" points="1714.5,-512 1268.5,-512 1268.5,-429 1714.5,-429 1714.5,-512"/>
<text text-anchor="middle" x="1491.5" y="-496.8" font-family="Times,serif" font-size="14.00">CCR &lt;= 0.55</text>
<text text-anchor="middle" x="1491.5" y="-481.8" font-family="Times,serif" font-size="14.00">gini = 0.845</text>
<text text-anchor="middle" x="1491.5" y="-466.8" font-family="Times,serif" font-size="14.00">samples = 81152</text>
<text text-anchor="middle" x="1491.5" y="-451.8" font-family="Times,serif" font-size="14.00">value = [15272, 11445, 3918, 11250, 11974, 13161, 14132]</text>
<text text-anchor="middle" x="1491.5" y="-436.8" font-family="Times,serif" font-size="14.00">class = rku</text>
</g>
<!-- 1 -->
<g id="node2" class="node">
<title>1</title>
<polygon fill="#fefeff" stroke="black" points="1320.5,-393 928.5,-393 928.5,-310 1320.5,-310 1320.5,-393"/>
<text text-anchor="middle" x="1124.5" y="-377.8" font-family="Times,serif" font-size="14.00">sdComp &lt;= 0.065</text>
<text text-anchor="middle" x="1124.5" y="-362.8" font-family="Times,serif" font-size="14.00">gini = 0.843</text>
<text text-anchor="middle" x="1124.5" y="-347.8" font-family="Times,serif" font-size="14.00">samples = 32119</text>
<text text-anchor="middle" x="1124.5" y="-332.8" font-family="Times,serif" font-size="14.00">value = [5563, 3996, 1299, 4839, 5821, 5677, 4924]</text>
<text text-anchor="middle" x="1124.5" y="-317.8" font-family="Times,serif" font-size="14.00">class = cluHPS</text>
</g>
<!-- 0&#45;&gt;1 -->
<g id="edge1" class="edge">
<title>0&#45;&gt;1</title>
<path fill="none" stroke="black" d="M1364.43,-428.99C1331.25,-418.41 1295.35,-406.97 1261.68,-396.23"/>
<polygon fill="black" stroke="black" points="1262.36,-392.78 1251.77,-393.07 1260.24,-399.45 1262.36,-392.78"/>
<text text-anchor="middle" x="1263.25" y="-411.59" font-family="Times,serif" font-size="14.00">True</text>
</g>
<!-- 288 -->
<g id="node17" class="node">
<title>288</title>
<polygon fill="#fffdfd" stroke="black" points="2058.5,-393 1666.5,-393 1666.5,-310 2058.5,-310 2058.5,-393"/>
<text text-anchor="middle" x="1862.5" y="-377.8" font-family="Times,serif" font-size="14.00">sdComp &lt;= 0.65</text>
<text text-anchor="middle" x="1862.5" y="-362.8" font-family="Times,serif" font-size="14.00">gini = 0.843</text>
<text text-anchor="middle" x="1862.5" y="-347.8" font-family="Times,serif" font-size="14.00">samples = 49033</text>
<text text-anchor="middle" x="1862.5" y="-332.8" font-family="Times,serif" font-size="14.00">value = [9709, 7449, 2619, 6411, 6153, 7484, 9208]</text>
<text text-anchor="middle" x="1862.5" y="-317.8" font-family="Times,serif" font-size="14.00">class = rku</text>
</g>
<!-- 0&#45;&gt;288 -->
<g id="edge16" class="edge">
<title>0&#45;&gt;288</title>
<path fill="none" stroke="black" d="M1619.96,-428.99C1653.64,-418.37 1690.1,-406.87 1724.27,-396.09"/>
<polygon fill="black" stroke="black" points="1725.36,-399.42 1733.84,-393.07 1723.25,-392.74 1725.36,-399.42"/>
<text text-anchor="middle" x="1722.3" y="-411.55" font-family="Times,serif" font-size="14.00">False</text>
</g>
<!-- 2 -->
<g id="node3" class="node">
<title>2</title>
<polygon fill="#fefcfb" stroke="black" points="753,-274 370,-274 370,-191 753,-191 753,-274"/>
<text text-anchor="middle" x="561.5" y="-258.8" font-family="Times,serif" font-size="14.00">graphSize &lt;= 40.0</text>
<text text-anchor="middle" x="561.5" y="-243.8" font-family="Times,serif" font-size="14.00">gini = 0.838</text>
<text text-anchor="middle" x="561.5" y="-228.8" font-family="Times,serif" font-size="14.00">samples = 12219</text>
<text text-anchor="middle" x="561.5" y="-213.8" font-family="Times,serif" font-size="14.00">value = [2596, 1386, 556, 1577, 1628, 2375, 2101]</text>
<text text-anchor="middle" x="561.5" y="-198.8" font-family="Times,serif" font-size="14.00">class = rku</text>
</g>
<!-- 1&#45;&gt;2 -->
<g id="edge2" class="edge">
<title>1&#45;&gt;2</title>
<path fill="none" stroke="black" d="M929.56,-309.99C875.88,-298.83 817.53,-286.71 763.46,-275.47"/>
<polygon fill="black" stroke="black" points="763.92,-271.99 753.41,-273.38 762.49,-278.84 763.92,-271.99"/>
</g>
<!-- 193 -->
<g id="node10" class="node">
<title>193</title>
<polygon fill="#f4f6fe" stroke="black" points="1316,-274 933,-274 933,-191 1316,-191 1316,-274"/>
<text text-anchor="middle" x="1124.5" y="-258.8" font-family="Times,serif" font-size="14.00">nbproc &lt;= 4.5</text>
<text text-anchor="middle" x="1124.5" y="-243.8" font-family="Times,serif" font-size="14.00">gini = 0.84</text>
<text text-anchor="middle" x="1124.5" y="-228.8" font-family="Times,serif" font-size="14.00">samples = 19900</text>
<text text-anchor="middle" x="1124.5" y="-213.8" font-family="Times,serif" font-size="14.00">value = [2967, 2610, 743, 3262, 4193, 3302, 2823]</text>
<text text-anchor="middle" x="1124.5" y="-198.8" font-family="Times,serif" font-size="14.00">class = cluHPS</text>
</g>
<!-- 1&#45;&gt;193 -->
<g id="edge9" class="edge">
<title>1&#45;&gt;193</title>
<path fill="none" stroke="black" d="M1124.5,-309.91C1124.5,-301.65 1124.5,-292.86 1124.5,-284.3"/>
<polygon fill="black" stroke="black" points="1128,-284.02 1124.5,-274.02 1121,-284.02 1128,-284.02"/>
</g>
<!-- 3 -->
<g id="node4" class="node">
<title>3</title>
<polygon fill="#fffefd" stroke="black" points="383,-155 0,-155 0,-72 383,-72 383,-155"/>
<text text-anchor="middle" x="191.5" y="-139.8" font-family="Times,serif" font-size="14.00">nbproc &lt;= 4.5</text>
<text text-anchor="middle" x="191.5" y="-124.8" font-family="Times,serif" font-size="14.00">gini = 0.841</text>
<text text-anchor="middle" x="191.5" y="-109.8" font-family="Times,serif" font-size="14.00">samples = 9814</text>
<text text-anchor="middle" x="191.5" y="-94.8" font-family="Times,serif" font-size="14.00">value = [1837, 1338, 331, 1465, 1400, 1701, 1742]</text>
<text text-anchor="middle" x="191.5" y="-79.8" font-family="Times,serif" font-size="14.00">class = rku</text>
</g>
<!-- 2&#45;&gt;3 -->
<g id="edge3" class="edge">
<title>2&#45;&gt;3</title>
<path fill="none" stroke="black" d="M433.39,-190.99C399.8,-180.37 363.44,-168.87 329.36,-158.09"/>
<polygon fill="black" stroke="black" points="330.4,-154.75 319.81,-155.07 328.29,-161.43 330.4,-154.75"/>
</g>
<!-- 98 -->
<g id="node7" class="node">
<title>98</title>
<polygon fill="#fef9f5" stroke="black" points="721.5,-155 401.5,-155 401.5,-72 721.5,-72 721.5,-155"/>
<text text-anchor="middle" x="561.5" y="-139.8" font-family="Times,serif" font-size="14.00">nbproc &lt;= 4.5</text>
<text text-anchor="middle" x="561.5" y="-124.8" font-family="Times,serif" font-size="14.00">gini = 0.779</text>
<text text-anchor="middle" x="561.5" y="-109.8" font-family="Times,serif" font-size="14.00">samples = 2405</text>
<text text-anchor="middle" x="561.5" y="-94.8" font-family="Times,serif" font-size="14.00">value = [759, 48, 225, 112, 228, 674, 359]</text>
<text text-anchor="middle" x="561.5" y="-79.8" font-family="Times,serif" font-size="14.00">class = rku</text>
</g>
<!-- 2&#45;&gt;98 -->
<g id="edge6" class="edge">
<title>2&#45;&gt;98</title>
<path fill="none" stroke="black" d="M561.5,-190.91C561.5,-182.65 561.5,-173.86 561.5,-165.3"/>
<polygon fill="black" stroke="black" points="565,-165.02 561.5,-155.02 558,-165.02 565,-165.02"/>
</g>
<!-- 4 -->
<g id="node5" class="node">
<title>4</title>
<polygon fill="#c0c0c0" stroke="black" points="182.5,-36 128.5,-36 128.5,0 182.5,0 182.5,-36"/>
<text text-anchor="middle" x="155.5" y="-14.3" font-family="Times,serif" font-size="14.00">(...)</text>
</g>
<!-- 3&#45;&gt;4 -->
<g id="edge4" class="edge">
<title>3&#45;&gt;4</title>
<path fill="none" stroke="black" d="M175.81,-71.76C172.46,-63.04 168.99,-54.04 165.89,-45.99"/>
<polygon fill="black" stroke="black" points="169.06,-44.48 162.2,-36.41 162.53,-46.99 169.06,-44.48"/>
</g>
<!-- 51 -->
<g id="node6" class="node">
<title>51</title>
<polygon fill="#c0c0c0" stroke="black" points="254.5,-36 200.5,-36 200.5,0 254.5,0 254.5,-36"/>
<text text-anchor="middle" x="227.5" y="-14.3" font-family="Times,serif" font-size="14.00">(...)</text>
</g>
<!-- 3&#45;&gt;51 -->
<g id="edge5" class="edge">
<title>3&#45;&gt;51</title>
<path fill="none" stroke="black" d="M207.19,-71.76C210.54,-63.04 214.01,-54.04 217.11,-45.99"/>
<polygon fill="black" stroke="black" points="220.47,-46.99 220.8,-36.41 213.94,-44.48 220.47,-46.99"/>
</g>
<!-- 99 -->
<g id="node8" class="node">
<title>99</title>
<polygon fill="#c0c0c0" stroke="black" points="552.5,-36 498.5,-36 498.5,0 552.5,0 552.5,-36"/>
<text text-anchor="middle" x="525.5" y="-14.3" font-family="Times,serif" font-size="14.00">(...)</text>
</g>
<!-- 98&#45;&gt;99 -->
<g id="edge7" class="edge">
<title>98&#45;&gt;99</title>
<path fill="none" stroke="black" d="M545.81,-71.76C542.46,-63.04 538.99,-54.04 535.89,-45.99"/>
<polygon fill="black" stroke="black" points="539.06,-44.48 532.2,-36.41 532.53,-46.99 539.06,-44.48"/>
</g>
<!-- 146 -->
<g id="node9" class="node">
<title>146</title>
<polygon fill="#c0c0c0" stroke="black" points="624.5,-36 570.5,-36 570.5,0 624.5,0 624.5,-36"/>
<text text-anchor="middle" x="597.5" y="-14.3" font-family="Times,serif" font-size="14.00">(...)</text>
</g>
<!-- 98&#45;&gt;146 -->
<g id="edge8" class="edge">
<title>98&#45;&gt;146</title>
<path fill="none" stroke="black" d="M577.19,-71.76C580.54,-63.04 584.01,-54.04 587.11,-45.99"/>
<polygon fill="black" stroke="black" points="590.47,-46.99 590.8,-36.41 583.94,-44.48 590.47,-46.99"/>
</g>
<!-- 194 -->
<g id="node11" class="node">
<title>194</title>
<polygon fill="#e7ebfc" stroke="black" points="1087,-155 740,-155 740,-72 1087,-72 1087,-155"/>
<text text-anchor="middle" x="913.5" y="-139.8" font-family="Times,serif" font-size="14.00">graphDepth &lt;= 9.0</text>
<text text-anchor="middle" x="913.5" y="-124.8" font-family="Times,serif" font-size="14.00">gini = 0.813</text>
<text text-anchor="middle" x="913.5" y="-109.8" font-family="Times,serif" font-size="14.00">samples = 6276</text>
<text text-anchor="middle" x="913.5" y="-94.8" font-family="Times,serif" font-size="14.00">value = [684, 774, 221, 1276, 1876, 862, 583]</text>
<text text-anchor="middle" x="913.5" y="-79.8" font-family="Times,serif" font-size="14.00">class = cluHPS</text>
</g>
<!-- 193&#45;&gt;194 -->
<g id="edge10" class="edge">
<title>193&#45;&gt;194</title>
<path fill="none" stroke="black" d="M1051.29,-190.91C1033.29,-180.92 1013.9,-170.17 995.51,-159.98"/>
<polygon fill="black" stroke="black" points="997.02,-156.81 986.58,-155.02 993.62,-162.93 997.02,-156.81"/>
</g>
<!-- 241 -->
<g id="node14" class="node">
<title>241</title>
<polygon fill="#fefdff" stroke="black" points="1488,-155 1105,-155 1105,-72 1488,-72 1488,-155"/>
<text text-anchor="middle" x="1296.5" y="-139.8" font-family="Times,serif" font-size="14.00">graphSize &lt;= 40.0</text>
<text text-anchor="middle" x="1296.5" y="-124.8" font-family="Times,serif" font-size="14.00">gini = 0.843</text>
<text text-anchor="middle" x="1296.5" y="-109.8" font-family="Times,serif" font-size="14.00">samples = 13624</text>
<text text-anchor="middle" x="1296.5" y="-94.8" font-family="Times,serif" font-size="14.00">value = [2283, 1836, 522, 1986, 2317, 2440, 2240]</text>
<text text-anchor="middle" x="1296.5" y="-79.8" font-family="Times,serif" font-size="14.00">class = rkusd</text>
</g>
<!-- 193&#45;&gt;241 -->
<g id="edge13" class="edge">
<title>193&#45;&gt;241</title>
<path fill="none" stroke="black" d="M1184.17,-190.91C1198.45,-181.2 1213.8,-170.76 1228.42,-160.81"/>
<polygon fill="black" stroke="black" points="1230.63,-163.54 1236.93,-155.02 1226.69,-157.75 1230.63,-163.54"/>
</g>
<!-- 195 -->
<g id="node12" class="node">
<title>195</title>
<polygon fill="#c0c0c0" stroke="black" points="904.5,-36 850.5,-36 850.5,0 904.5,0 904.5,-36"/>
<text text-anchor="middle" x="877.5" y="-14.3" font-family="Times,serif" font-size="14.00">(...)</text>
</g>
<!-- 194&#45;&gt;195 -->
<g id="edge11" class="edge">
<title>194&#45;&gt;195</title>
<path fill="none" stroke="black" d="M897.81,-71.76C894.46,-63.04 890.99,-54.04 887.89,-45.99"/>
<polygon fill="black" stroke="black" points="891.06,-44.48 884.2,-36.41 884.53,-46.99 891.06,-44.48"/>
</g>
<!-- 218 -->
<g id="node13" class="node">
<title>218</title>
<polygon fill="#c0c0c0" stroke="black" points="976.5,-36 922.5,-36 922.5,0 976.5,0 976.5,-36"/>
<text text-anchor="middle" x="949.5" y="-14.3" font-family="Times,serif" font-size="14.00">(...)</text>
</g>
<!-- 194&#45;&gt;218 -->
<g id="edge12" class="edge">
<title>194&#45;&gt;218</title>
<path fill="none" stroke="black" d="M929.19,-71.76C932.54,-63.04 936.01,-54.04 939.11,-45.99"/>
<polygon fill="black" stroke="black" points="942.47,-46.99 942.8,-36.41 935.94,-44.48 942.47,-46.99"/>
</g>
<!-- 242 -->
<g id="node15" class="node">
<title>242</title>
<polygon fill="#c0c0c0" stroke="black" points="1287.5,-36 1233.5,-36 1233.5,0 1287.5,0 1287.5,-36"/>
<text text-anchor="middle" x="1260.5" y="-14.3" font-family="Times,serif" font-size="14.00">(...)</text>
</g>
<!-- 241&#45;&gt;242 -->
<g id="edge14" class="edge">
<title>241&#45;&gt;242</title>
<path fill="none" stroke="black" d="M1280.81,-71.76C1277.46,-63.04 1273.99,-54.04 1270.89,-45.99"/>
<polygon fill="black" stroke="black" points="1274.06,-44.48 1267.2,-36.41 1267.53,-46.99 1274.06,-44.48"/>
</g>
<!-- 265 -->
<g id="node16" class="node">
<title>265</title>
<polygon fill="#c0c0c0" stroke="black" points="1359.5,-36 1305.5,-36 1305.5,0 1359.5,0 1359.5,-36"/>
<text text-anchor="middle" x="1332.5" y="-14.3" font-family="Times,serif" font-size="14.00">(...)</text>
</g>
<!-- 241&#45;&gt;265 -->
<g id="edge15" class="edge">
<title>241&#45;&gt;265</title>
<path fill="none" stroke="black" d="M1312.19,-71.76C1315.54,-63.04 1319.01,-54.04 1322.11,-45.99"/>
<polygon fill="black" stroke="black" points="1325.47,-46.99 1325.8,-36.41 1318.94,-44.48 1325.47,-46.99"/>
</g>
<!-- 289 -->
<g id="node18" class="node">
<title>289</title>
<polygon fill="#fef9f6" stroke="black" points="2054,-274 1671,-274 1671,-191 2054,-191 2054,-274"/>
<text text-anchor="middle" x="1862.5" y="-258.8" font-family="Times,serif" font-size="14.00">graphSize &lt;= 40.0</text>
<text text-anchor="middle" x="1862.5" y="-243.8" font-family="Times,serif" font-size="14.00">gini = 0.828</text>
<text text-anchor="middle" x="1862.5" y="-228.8" font-family="Times,serif" font-size="14.00">samples = 11900</text>
<text text-anchor="middle" x="1862.5" y="-213.8" font-family="Times,serif" font-size="14.00">value = [2893, 1283, 350, 1641, 1339, 1935, 2459]</text>
<text text-anchor="middle" x="1862.5" y="-198.8" font-family="Times,serif" font-size="14.00">class = rku</text>
</g>
<!-- 288&#45;&gt;289 -->
<g id="edge17" class="edge">
<title>288&#45;&gt;289</title>
<path fill="none" stroke="black" d="M1862.5,-309.91C1862.5,-301.65 1862.5,-292.86 1862.5,-284.3"/>
<polygon fill="black" stroke="black" points="1866,-284.02 1862.5,-274.02 1859,-284.02 1866,-284.02"/>
</g>
<!-- 480 -->
<g id="node25" class="node">
<title>480</title>
<polygon fill="#ffffff" stroke="black" points="2628.5,-274 2236.5,-274 2236.5,-191 2628.5,-191 2628.5,-274"/>
<text text-anchor="middle" x="2432.5" y="-258.8" font-family="Times,serif" font-size="14.00">nbproc &lt;= 4.5</text>
<text text-anchor="middle" x="2432.5" y="-243.8" font-family="Times,serif" font-size="14.00">gini = 0.846</text>
<text text-anchor="middle" x="2432.5" y="-228.8" font-family="Times,serif" font-size="14.00">samples = 37133</text>
<text text-anchor="middle" x="2432.5" y="-213.8" font-family="Times,serif" font-size="14.00">value = [6816, 6166, 2269, 4770, 4814, 5549, 6749]</text>
<text text-anchor="middle" x="2432.5" y="-198.8" font-family="Times,serif" font-size="14.00">class = rku</text>
</g>
<!-- 288&#45;&gt;480 -->
<g id="edge24" class="edge">
<title>288&#45;&gt;480</title>
<path fill="none" stroke="black" d="M2058.66,-310.24C2112.89,-299.1 2171.88,-287 2226.64,-275.75"/>
<polygon fill="black" stroke="black" points="2227.37,-279.18 2236.46,-273.74 2225.96,-272.32 2227.37,-279.18"/>
</g>
<!-- 290 -->
<g id="node19" class="node">
<title>290</title>
<polygon fill="#fffefd" stroke="black" points="1889,-155 1506,-155 1506,-72 1889,-72 1889,-155"/>
<text text-anchor="middle" x="1697.5" y="-139.8" font-family="Times,serif" font-size="14.00">graphDepth &lt;= 3.5</text>
<text text-anchor="middle" x="1697.5" y="-124.8" font-family="Times,serif" font-size="14.00">gini = 0.836</text>
<text text-anchor="middle" x="1697.5" y="-109.8" font-family="Times,serif" font-size="14.00">samples = 9576</text>
<text text-anchor="middle" x="1697.5" y="-94.8" font-family="Times,serif" font-size="14.00">value = [1942, 1217, 229, 1475, 1274, 1564, 1875]</text>
<text text-anchor="middle" x="1697.5" y="-79.8" font-family="Times,serif" font-size="14.00">class = rku</text>
</g>
<!-- 289&#45;&gt;290 -->
<g id="edge18" class="edge">
<title>289&#45;&gt;290</title>
<path fill="none" stroke="black" d="M1805.25,-190.91C1791.56,-181.2 1776.84,-170.76 1762.81,-160.81"/>
<polygon fill="black" stroke="black" points="1764.83,-157.95 1754.64,-155.02 1760.78,-163.66 1764.83,-157.95"/>
</g>
<!-- 385 -->
<g id="node22" class="node">
<title>385</title>
<polygon fill="#fae4d5" stroke="black" points="2218,-155 1907,-155 1907,-72 2218,-72 2218,-155"/>
<text text-anchor="middle" x="2062.5" y="-139.8" font-family="Times,serif" font-size="14.00">nbproc &lt;= 4.5</text>
<text text-anchor="middle" x="2062.5" y="-124.8" font-family="Times,serif" font-size="14.00">gini = 0.735</text>
<text text-anchor="middle" x="2062.5" y="-109.8" font-family="Times,serif" font-size="14.00">samples = 2324</text>
<text text-anchor="middle" x="2062.5" y="-94.8" font-family="Times,serif" font-size="14.00">value = [951, 66, 121, 166, 65, 371, 584]</text>
<text text-anchor="middle" x="2062.5" y="-79.8" font-family="Times,serif" font-size="14.00">class = rku</text>
</g>
<!-- 289&#45;&gt;385 -->
<g id="edge21" class="edge">
<title>289&#45;&gt;385</title>
<path fill="none" stroke="black" d="M1931.89,-190.91C1948.8,-181.02 1967,-170.37 1984.29,-160.25"/>
<polygon fill="black" stroke="black" points="1986.37,-163.09 1993.23,-155.02 1982.83,-157.05 1986.37,-163.09"/>
</g>
<!-- 291 -->
<g id="node20" class="node">
<title>291</title>
<polygon fill="#c0c0c0" stroke="black" points="1688.5,-36 1634.5,-36 1634.5,0 1688.5,0 1688.5,-36"/>
<text text-anchor="middle" x="1661.5" y="-14.3" font-family="Times,serif" font-size="14.00">(...)</text>
</g>
<!-- 290&#45;&gt;291 -->
<g id="edge19" class="edge">
<title>290&#45;&gt;291</title>
<path fill="none" stroke="black" d="M1681.81,-71.76C1678.46,-63.04 1674.99,-54.04 1671.89,-45.99"/>
<polygon fill="black" stroke="black" points="1675.06,-44.48 1668.2,-36.41 1668.53,-46.99 1675.06,-44.48"/>
</g>
<!-- 314 -->
<g id="node21" class="node">
<title>314</title>
<polygon fill="#c0c0c0" stroke="black" points="1760.5,-36 1706.5,-36 1706.5,0 1760.5,0 1760.5,-36"/>
<text text-anchor="middle" x="1733.5" y="-14.3" font-family="Times,serif" font-size="14.00">(...)</text>
</g>
<!-- 290&#45;&gt;314 -->
<g id="edge20" class="edge">
<title>290&#45;&gt;314</title>
<path fill="none" stroke="black" d="M1713.19,-71.76C1716.54,-63.04 1720.01,-54.04 1723.11,-45.99"/>
<polygon fill="black" stroke="black" points="1726.47,-46.99 1726.8,-36.41 1719.94,-44.48 1726.47,-46.99"/>
</g>
<!-- 386 -->
<g id="node23" class="node">
<title>386</title>
<polygon fill="#c0c0c0" stroke="black" points="2053.5,-36 1999.5,-36 1999.5,0 2053.5,0 2053.5,-36"/>
<text text-anchor="middle" x="2026.5" y="-14.3" font-family="Times,serif" font-size="14.00">(...)</text>
</g>
<!-- 385&#45;&gt;386 -->
<g id="edge22" class="edge">
<title>385&#45;&gt;386</title>
<path fill="none" stroke="black" d="M2046.81,-71.76C2043.46,-63.04 2039.99,-54.04 2036.89,-45.99"/>
<polygon fill="black" stroke="black" points="2040.06,-44.48 2033.2,-36.41 2033.53,-46.99 2040.06,-44.48"/>
</g>
<!-- 433 -->
<g id="node24" class="node">
<title>433</title>
<polygon fill="#c0c0c0" stroke="black" points="2125.5,-36 2071.5,-36 2071.5,0 2125.5,0 2125.5,-36"/>
<text text-anchor="middle" x="2098.5" y="-14.3" font-family="Times,serif" font-size="14.00">(...)</text>
</g>
<!-- 385&#45;&gt;433 -->
<g id="edge23" class="edge">
<title>385&#45;&gt;433</title>
<path fill="none" stroke="black" d="M2078.19,-71.76C2081.54,-63.04 2085.01,-54.04 2088.11,-45.99"/>
<polygon fill="black" stroke="black" points="2091.47,-46.99 2091.8,-36.41 2084.94,-44.48 2091.47,-46.99"/>
</g>
<!-- 481 -->
<g id="node26" class="node">
<title>481</title>
<polygon fill="#fffeff" stroke="black" points="2628.5,-155 2236.5,-155 2236.5,-72 2628.5,-72 2628.5,-155"/>
<text text-anchor="middle" x="2432.5" y="-139.8" font-family="Times,serif" font-size="14.00">graphDepth &lt;= 9.0</text>
<text text-anchor="middle" x="2432.5" y="-124.8" font-family="Times,serif" font-size="14.00">gini = 0.848</text>
<text text-anchor="middle" x="2432.5" y="-109.8" font-family="Times,serif" font-size="14.00">samples = 19007</text>
<text text-anchor="middle" x="2432.5" y="-94.8" font-family="Times,serif" font-size="14.00">value = [3335, 3001, 1257, 2225, 2993, 2804, 3392]</text>
<text text-anchor="middle" x="2432.5" y="-79.8" font-family="Times,serif" font-size="14.00">class = rkuad</text>
</g>
<!-- 480&#45;&gt;481 -->
<g id="edge25" class="edge">
<title>480&#45;&gt;481</title>
<path fill="none" stroke="black" d="M2432.5,-190.91C2432.5,-182.65 2432.5,-173.86 2432.5,-165.3"/>
<polygon fill="black" stroke="black" points="2436,-165.02 2432.5,-155.02 2429,-165.02 2436,-165.02"/>
</g>
<!-- 672 -->
<g id="node29" class="node">
<title>672</title>
<polygon fill="#fffefd" stroke="black" points="3038.5,-155 2646.5,-155 2646.5,-72 3038.5,-72 3038.5,-155"/>
<text text-anchor="middle" x="2842.5" y="-139.8" font-family="Times,serif" font-size="14.00">sdComp &lt;= 6.5</text>
<text text-anchor="middle" x="2842.5" y="-124.8" font-family="Times,serif" font-size="14.00">gini = 0.842</text>
<text text-anchor="middle" x="2842.5" y="-109.8" font-family="Times,serif" font-size="14.00">samples = 18126</text>
<text text-anchor="middle" x="2842.5" y="-94.8" font-family="Times,serif" font-size="14.00">value = [3481, 3165, 1012, 2545, 1821, 2745, 3357]</text>
<text text-anchor="middle" x="2842.5" y="-79.8" font-family="Times,serif" font-size="14.00">class = rku</text>
</g>
<!-- 480&#45;&gt;672 -->
<g id="edge28" class="edge">
<title>480&#45;&gt;672</title>
<path fill="none" stroke="black" d="M2574.46,-190.99C2611.84,-180.32 2652.32,-168.77 2690.22,-157.96"/>
<polygon fill="black" stroke="black" points="2691.66,-161.18 2700.32,-155.07 2689.74,-154.45 2691.66,-161.18"/>
</g>
<!-- 482 -->
<g id="node27" class="node">
<title>482</title>
<polygon fill="#c0c0c0" stroke="black" points="2423.5,-36 2369.5,-36 2369.5,0 2423.5,0 2423.5,-36"/>
<text text-anchor="middle" x="2396.5" y="-14.3" font-family="Times,serif" font-size="14.00">(...)</text>
</g>
<!-- 481&#45;&gt;482 -->
<g id="edge26" class="edge">
<title>481&#45;&gt;482</title>
<path fill="none" stroke="black" d="M2416.81,-71.76C2413.46,-63.04 2409.99,-54.04 2406.89,-45.99"/>
<polygon fill="black" stroke="black" points="2410.06,-44.48 2403.2,-36.41 2403.53,-46.99 2410.06,-44.48"/>
</g>
<!-- 577 -->
<g id="node28" class="node">
<title>577</title>
<polygon fill="#c0c0c0" stroke="black" points="2495.5,-36 2441.5,-36 2441.5,0 2495.5,0 2495.5,-36"/>
<text text-anchor="middle" x="2468.5" y="-14.3" font-family="Times,serif" font-size="14.00">(...)</text>
</g>
<!-- 481&#45;&gt;577 -->
<g id="edge27" class="edge">
<title>481&#45;&gt;577</title>
<path fill="none" stroke="black" d="M2448.19,-71.76C2451.54,-63.04 2455.01,-54.04 2458.11,-45.99"/>
<polygon fill="black" stroke="black" points="2461.47,-46.99 2461.8,-36.41 2454.94,-44.48 2461.47,-46.99"/>
</g>
<!-- 673 -->
<g id="node30" class="node">
<title>673</title>
<polygon fill="#c0c0c0" stroke="black" points="2833.5,-36 2779.5,-36 2779.5,0 2833.5,0 2833.5,-36"/>
<text text-anchor="middle" x="2806.5" y="-14.3" font-family="Times,serif" font-size="14.00">(...)</text>
</g>
<!-- 672&#45;&gt;673 -->
<g id="edge29" class="edge">
<title>672&#45;&gt;673</title>
<path fill="none" stroke="black" d="M2826.81,-71.76C2823.46,-63.04 2819.99,-54.04 2816.89,-45.99"/>
<polygon fill="black" stroke="black" points="2820.06,-44.48 2813.2,-36.41 2813.53,-46.99 2820.06,-44.48"/>
</g>
<!-- 816 -->
<g id="node31" class="node">
<title>816</title>
<polygon fill="#c0c0c0" stroke="black" points="2905.5,-36 2851.5,-36 2851.5,0 2905.5,0 2905.5,-36"/>
<text text-anchor="middle" x="2878.5" y="-14.3" font-family="Times,serif" font-size="14.00">(...)</text>
</g>
<!-- 672&#45;&gt;816 -->
<g id="edge30" class="edge">
<title>672&#45;&gt;816</title>
<path fill="none" stroke="black" d="M2858.19,-71.76C2861.54,-63.04 2865.01,-54.04 2868.11,-45.99"/>
<polygon fill="black" stroke="black" points="2871.47,-46.99 2871.8,-36.41 2864.94,-44.48 2871.47,-46.99"/>
</g>
</g>
</svg>
