<?xml version="1.0" encoding="UTF-8" standalone="no"?>
<!DOCTYPE svg PUBLIC "-//W3C//DTD SVG 1.1//EN"
 "http://www.w3.org/Graphics/SVG/1.1/DTD/svg11.dtd">
<!-- Generated by graphviz version 2.43.0 (0)
 -->
<!-- Title: Tree Pages: 1 -->
<svg width="1477pt" height="520pt"
 viewBox="0.00 0.00 1476.50 520.00" xmlns="http://www.w3.org/2000/svg" xmlns:xlink="http://www.w3.org/1999/xlink">
<g id="graph0" class="graph" transform="scale(1 1) rotate(0) translate(4 516)">
<title>Tree</title>
<polygon fill="white" stroke="transparent" points="-4,4 -4,-516 1472.5,-516 1472.5,4 -4,4"/>
<!-- 0 -->
<g id="node1" class="node">
<title>0</title>
<polygon fill="#a6d3f3" stroke="black" points="814.5,-512 629.5,-512 629.5,-429 814.5,-429 814.5,-512"/>
<text text-anchor="middle" x="722" y="-496.8" font-family="Times,serif" font-size="14.00">sdComp &lt;= 0.65</text>
<text text-anchor="middle" x="722" y="-481.8" font-family="Times,serif" font-size="14.00">gini = 0.458</text>
<text text-anchor="middle" x="722" y="-466.8" font-family="Times,serif" font-size="14.00">samples = 81152</text>
<text text-anchor="middle" x="722" y="-451.8" font-family="Times,serif" font-size="14.00">value = [28756, 52396]</text>
<text text-anchor="middle" x="722" y="-436.8" font-family="Times,serif" font-size="14.00">class = True</text>
</g>
<!-- 1 -->
<g id="node2" class="node">
<title>1</title>
<polygon fill="#d1e8f9" stroke="black" points="630.5,-393 445.5,-393 445.5,-310 630.5,-310 630.5,-393"/>
<text text-anchor="middle" x="538" y="-377.8" font-family="Times,serif" font-size="14.00">nbproc &lt;= 4.5</text>
<text text-anchor="middle" x="538" y="-362.8" font-family="Times,serif" font-size="14.00">gini = 0.491</text>
<text text-anchor="middle" x="538" y="-347.8" font-family="Times,serif" font-size="14.00">samples = 44019</text>
<text text-anchor="middle" x="538" y="-332.8" font-family="Times,serif" font-size="14.00">value = [19086, 24933]</text>
<text text-anchor="middle" x="538" y="-317.8" font-family="Times,serif" font-size="14.00">class = True</text>
</g>
<!-- 0&#45;&gt;1 -->
<g id="edge1" class="edge">
<title>0&#45;&gt;1</title>
<path fill="none" stroke="black" d="M658.16,-428.91C642.75,-419.11 626.17,-408.56 610.39,-398.53"/>
<polygon fill="black" stroke="black" points="612.04,-395.43 601.73,-393.02 608.29,-401.34 612.04,-395.43"/>
<text text-anchor="middle" x="607.16" y="-413.72" font-family="Times,serif" font-size="14.00">True</text>
</g>
<!-- 468 -->
<g id="node17" class="node">
<title>468</title>
<polygon fill="#7fc0ee" stroke="black" points="1004,-393 828,-393 828,-310 1004,-310 1004,-393"/>
<text text-anchor="middle" x="916" y="-377.8" font-family="Times,serif" font-size="14.00">sdComp &lt;= 6.5</text>
<text text-anchor="middle" x="916" y="-362.8" font-family="Times,serif" font-size="14.00">gini = 0.385</text>
<text text-anchor="middle" x="916" y="-347.8" font-family="Times,serif" font-size="14.00">samples = 37133</text>
<text text-anchor="middle" x="916" y="-332.8" font-family="Times,serif" font-size="14.00">value = [9670, 27463]</text>
<text text-anchor="middle" x="916" y="-317.8" font-family="Times,serif" font-size="14.00">class = True</text>
</g>
<!-- 0&#45;&gt;468 -->
<g id="edge16" class="edge">
<title>0&#45;&gt;468</title>
<path fill="none" stroke="black" d="M789.31,-428.91C805.71,-419.02 823.36,-408.37 840.13,-398.25"/>
<polygon fill="black" stroke="black" points="842.06,-401.18 848.81,-393.02 838.44,-395.19 842.06,-401.18"/>
<text text-anchor="middle" x="842.8" y="-413.59" font-family="Times,serif" font-size="14.00">False</text>
</g>
<!-- 2 -->
<g id="node3" class="node">
<title>2</title>
<polygon fill="#b4daf5" stroke="black" points="342.5,-274 175.5,-274 175.5,-191 342.5,-191 342.5,-274"/>
<text text-anchor="middle" x="259" y="-258.8" font-family="Times,serif" font-size="14.00">graphDepth &lt;= 3.5</text>
<text text-anchor="middle" x="259" y="-243.8" font-family="Times,serif" font-size="14.00">gini = 0.473</text>
<text text-anchor="middle" x="259" y="-228.8" font-family="Times,serif" font-size="14.00">samples = 14003</text>
<text text-anchor="middle" x="259" y="-213.8" font-family="Times,serif" font-size="14.00">value = [5376, 8627]</text>
<text text-anchor="middle" x="259" y="-198.8" font-family="Times,serif" font-size="14.00">class = True</text>
</g>
<!-- 1&#45;&gt;2 -->
<g id="edge2" class="edge">
<title>1&#45;&gt;2</title>
<path fill="none" stroke="black" d="M445.48,-311.7C415.44,-299.1 382.1,-285.12 352.02,-272.51"/>
<polygon fill="black" stroke="black" points="353.38,-269.28 342.8,-268.64 350.67,-275.74 353.38,-269.28"/>
</g>
<!-- 229 -->
<g id="node10" class="node">
<title>229</title>
<polygon fill="#dfeffb" stroke="black" points="630.5,-274 445.5,-274 445.5,-191 630.5,-191 630.5,-274"/>
<text text-anchor="middle" x="538" y="-258.8" font-family="Times,serif" font-size="14.00">graphSize &lt;= 22.5</text>
<text text-anchor="middle" x="538" y="-243.8" font-family="Times,serif" font-size="14.00">gini = 0.496</text>
<text text-anchor="middle" x="538" y="-228.8" font-family="Times,serif" font-size="14.00">samples = 30016</text>
<text text-anchor="middle" x="538" y="-213.8" font-family="Times,serif" font-size="14.00">value = [13710, 16306]</text>
<text text-anchor="middle" x="538" y="-198.8" font-family="Times,serif" font-size="14.00">class = True</text>
</g>
<!-- 1&#45;&gt;229 -->
<g id="edge9" class="edge">
<title>1&#45;&gt;229</title>
<path fill="none" stroke="black" d="M538,-309.91C538,-301.65 538,-292.86 538,-284.3"/>
<polygon fill="black" stroke="black" points="541.5,-284.02 538,-274.02 534.5,-284.02 541.5,-284.02"/>
</g>
<!-- 3 -->
<g id="node4" class="node">
<title>3</title>
<polygon fill="#6bb6ec" stroke="black" points="158,-155 0,-155 0,-72 158,-72 158,-155"/>
<text text-anchor="middle" x="79" y="-139.8" font-family="Times,serif" font-size="14.00">sdComm &lt;= 0.065</text>
<text text-anchor="middle" x="79" y="-124.8" font-family="Times,serif" font-size="14.00">gini = 0.323</text>
<text text-anchor="middle" x="79" y="-109.8" font-family="Times,serif" font-size="14.00">samples = 1878</text>
<text text-anchor="middle" x="79" y="-94.8" font-family="Times,serif" font-size="14.00">value = [381, 1497]</text>
<text text-anchor="middle" x="79" y="-79.8" font-family="Times,serif" font-size="14.00">class = True</text>
</g>
<!-- 2&#45;&gt;3 -->
<g id="edge3" class="edge">
<title>2&#45;&gt;3</title>
<path fill="none" stroke="black" d="M196.55,-190.91C181.47,-181.11 165.25,-170.56 149.82,-160.53"/>
<polygon fill="black" stroke="black" points="151.63,-157.54 141.34,-155.02 147.82,-163.41 151.63,-157.54"/>
</g>
<!-- 20 -->
<g id="node7" class="node">
<title>20</title>
<polygon fill="#c4e2f7" stroke="black" points="342.5,-155 175.5,-155 175.5,-72 342.5,-72 342.5,-155"/>
<text text-anchor="middle" x="259" y="-139.8" font-family="Times,serif" font-size="14.00">sdComp &lt;= 0.065</text>
<text text-anchor="middle" x="259" y="-124.8" font-family="Times,serif" font-size="14.00">gini = 0.484</text>
<text text-anchor="middle" x="259" y="-109.8" font-family="Times,serif" font-size="14.00">samples = 12125</text>
<text text-anchor="middle" x="259" y="-94.8" font-family="Times,serif" font-size="14.00">value = [4995, 7130]</text>
<text text-anchor="middle" x="259" y="-79.8" font-family="Times,serif" font-size="14.00">class = True</text>
</g>
<!-- 2&#45;&gt;20 -->
<g id="edge6" class="edge">
<title>2&#45;&gt;20</title>
<path fill="none" stroke="black" d="M259,-190.91C259,-182.65 259,-173.86 259,-165.3"/>
<polygon fill="black" stroke="black" points="262.5,-165.02 259,-155.02 255.5,-165.02 262.5,-165.02"/>
</g>
<!-- 4 -->
<g id="node5" class="node">
<title>4</title>
<polygon fill="#c0c0c0" stroke="black" points="70,-36 16,-36 16,0 70,0 70,-36"/>
<text text-anchor="middle" x="43" y="-14.3" font-family="Times,serif" font-size="14.00">(...)</text>
</g>
<!-- 3&#45;&gt;4 -->
<g id="edge4" class="edge">
<title>3&#45;&gt;4</title>
<path fill="none" stroke="black" d="M63.31,-71.76C59.96,-63.04 56.49,-54.04 53.39,-45.99"/>
<polygon fill="black" stroke="black" points="56.56,-44.48 49.7,-36.41 50.03,-46.99 56.56,-44.48"/>
</g>
<!-- 9 -->
<g id="node6" class="node">
<title>9</title>
<polygon fill="#c0c0c0" stroke="black" points="142,-36 88,-36 88,0 142,0 142,-36"/>
<text text-anchor="middle" x="115" y="-14.3" font-family="Times,serif" font-size="14.00">(...)</text>
</g>
<!-- 3&#45;&gt;9 -->
<g id="edge5" class="edge">
<title>3&#45;&gt;9</title>
<path fill="none" stroke="black" d="M94.69,-71.76C98.04,-63.04 101.51,-54.04 104.61,-45.99"/>
<polygon fill="black" stroke="black" points="107.97,-46.99 108.3,-36.41 101.44,-44.48 107.97,-46.99"/>
</g>
<!-- 21 -->
<g id="node8" class="node">
<title>21</title>
<polygon fill="#c0c0c0" stroke="black" points="259,-36 205,-36 205,0 259,0 259,-36"/>
<text text-anchor="middle" x="232" y="-14.3" font-family="Times,serif" font-size="14.00">(...)</text>
</g>
<!-- 20&#45;&gt;21 -->
<g id="edge7" class="edge">
<title>20&#45;&gt;21</title>
<path fill="none" stroke="black" d="M247.24,-71.76C244.75,-63.14 242.18,-54.24 239.87,-46.26"/>
<polygon fill="black" stroke="black" points="243.16,-45.04 237.03,-36.41 236.44,-46.98 243.16,-45.04"/>
</g>
<!-- 104 -->
<g id="node9" class="node">
<title>104</title>
<polygon fill="#c0c0c0" stroke="black" points="331,-36 277,-36 277,0 331,0 331,-36"/>
<text text-anchor="middle" x="304" y="-14.3" font-family="Times,serif" font-size="14.00">(...)</text>
</g>
<!-- 20&#45;&gt;104 -->
<g id="edge8" class="edge">
<title>20&#45;&gt;104</title>
<path fill="none" stroke="black" d="M278.61,-71.76C282.9,-62.85 287.33,-53.64 291.27,-45.46"/>
<polygon fill="black" stroke="black" points="294.44,-46.93 295.62,-36.41 288.13,-43.9 294.44,-46.93"/>
</g>
<!-- 230 -->
<g id="node11" class="node">
<title>230</title>
<polygon fill="#e9f4fc" stroke="black" points="536,-155 360,-155 360,-72 536,-72 536,-155"/>
<text text-anchor="middle" x="448" y="-139.8" font-family="Times,serif" font-size="14.00">graphDepth &lt;= 3.5</text>
<text text-anchor="middle" x="448" y="-124.8" font-family="Times,serif" font-size="14.00">gini = 0.498</text>
<text text-anchor="middle" x="448" y="-109.8" font-family="Times,serif" font-size="14.00">samples = 20539</text>
<text text-anchor="middle" x="448" y="-94.8" font-family="Times,serif" font-size="14.00">value = [9653, 10886]</text>
<text text-anchor="middle" x="448" y="-79.8" font-family="Times,serif" font-size="14.00">class = True</text>
</g>
<!-- 229&#45;&gt;230 -->
<g id="edge10" class="edge">
<title>229&#45;&gt;230</title>
<path fill="none" stroke="black" d="M506.77,-190.91C499.86,-181.92 492.47,-172.32 485.35,-163.05"/>
<polygon fill="black" stroke="black" points="488.04,-160.81 479.17,-155.02 482.49,-165.08 488.04,-160.81"/>
</g>
<!-- 289 -->
<g id="node14" class="node">
<title>289</title>
<polygon fill="#cde6f8" stroke="black" points="720.5,-155 553.5,-155 553.5,-72 720.5,-72 720.5,-155"/>
<text text-anchor="middle" x="637" y="-139.8" font-family="Times,serif" font-size="14.00">sdComp &lt;= 0.065</text>
<text text-anchor="middle" x="637" y="-124.8" font-family="Times,serif" font-size="14.00">gini = 0.49</text>
<text text-anchor="middle" x="637" y="-109.8" font-family="Times,serif" font-size="14.00">samples = 9477</text>
<text text-anchor="middle" x="637" y="-94.8" font-family="Times,serif" font-size="14.00">value = [4057, 5420]</text>
<text text-anchor="middle" x="637" y="-79.8" font-family="Times,serif" font-size="14.00">class = True</text>
</g>
<!-- 229&#45;&gt;289 -->
<g id="edge13" class="edge">
<title>229&#45;&gt;289</title>
<path fill="none" stroke="black" d="M572.35,-190.91C580.03,-181.83 588.24,-172.12 596.16,-162.77"/>
<polygon fill="black" stroke="black" points="598.93,-164.92 602.71,-155.02 593.58,-160.39 598.93,-164.92"/>
</g>
<!-- 231 -->
<g id="node12" class="node">
<title>231</title>
<polygon fill="#c0c0c0" stroke="black" points="425,-36 371,-36 371,0 425,0 425,-36"/>
<text text-anchor="middle" x="398" y="-14.3" font-family="Times,serif" font-size="14.00">(...)</text>
</g>
<!-- 230&#45;&gt;231 -->
<g id="edge11" class="edge">
<title>230&#45;&gt;231</title>
<path fill="none" stroke="black" d="M426.21,-71.76C421.45,-62.85 416.52,-53.64 412.15,-45.46"/>
<polygon fill="black" stroke="black" points="415.11,-43.57 407.31,-36.41 408.94,-46.87 415.11,-43.57"/>
</g>
<!-- 260 -->
<g id="node13" class="node">
<title>260</title>
<polygon fill="#c0c0c0" stroke="black" points="497,-36 443,-36 443,0 497,0 497,-36"/>
<text text-anchor="middle" x="470" y="-14.3" font-family="Times,serif" font-size="14.00">(...)</text>
</g>
<!-- 230&#45;&gt;260 -->
<g id="edge12" class="edge">
<title>230&#45;&gt;260</title>
<path fill="none" stroke="black" d="M457.59,-71.76C459.61,-63.14 461.71,-54.24 463.59,-46.26"/>
<polygon fill="black" stroke="black" points="467.02,-46.94 465.9,-36.41 460.21,-45.34 467.02,-46.94"/>
</g>
<!-- 290 -->
<g id="node15" class="node">
<title>290</title>
<polygon fill="#c0c0c0" stroke="black" points="612,-36 558,-36 558,0 612,0 612,-36"/>
<text text-anchor="middle" x="585" y="-14.3" font-family="Times,serif" font-size="14.00">(...)</text>
</g>
<!-- 289&#45;&gt;290 -->
<g id="edge14" class="edge">
<title>289&#45;&gt;290</title>
<path fill="none" stroke="black" d="M614.34,-71.76C609.33,-62.75 604.15,-53.44 599.57,-45.19"/>
<polygon fill="black" stroke="black" points="602.6,-43.44 594.68,-36.41 596.48,-46.85 602.6,-43.44"/>
</g>
<!-- 361 -->
<g id="node16" class="node">
<title>361</title>
<polygon fill="#c0c0c0" stroke="black" points="684,-36 630,-36 630,0 684,0 684,-36"/>
<text text-anchor="middle" x="657" y="-14.3" font-family="Times,serif" font-size="14.00">(...)</text>
</g>
<!-- 289&#45;&gt;361 -->
<g id="edge15" class="edge">
<title>289&#45;&gt;361</title>
<path fill="none" stroke="black" d="M645.71,-71.76C647.56,-63.14 649.46,-54.24 651.17,-46.26"/>
<polygon fill="black" stroke="black" points="654.61,-46.92 653.28,-36.41 647.76,-45.45 654.61,-46.92"/>
</g>
<!-- 469 -->
<g id="node18" class="node">
<title>469</title>
<polygon fill="#76bbed" stroke="black" points="1004,-274 828,-274 828,-191 1004,-191 1004,-274"/>
<text text-anchor="middle" x="916" y="-258.8" font-family="Times,serif" font-size="14.00">CCR &lt;= 5.5</text>
<text text-anchor="middle" x="916" y="-243.8" font-family="Times,serif" font-size="14.00">gini = 0.361</text>
<text text-anchor="middle" x="916" y="-228.8" font-family="Times,serif" font-size="14.00">samples = 28171</text>
<text text-anchor="middle" x="916" y="-213.8" font-family="Times,serif" font-size="14.00">value = [6653, 21518]</text>
<text text-anchor="middle" x="916" y="-198.8" font-family="Times,serif" font-size="14.00">class = True</text>
</g>
<!-- 468&#45;&gt;469 -->
<g id="edge17" class="edge">
<title>468&#45;&gt;469</title>
<path fill="none" stroke="black" d="M916,-309.91C916,-301.65 916,-292.86 916,-284.3"/>
<polygon fill="black" stroke="black" points="919.5,-284.02 916,-274.02 912.5,-284.02 919.5,-284.02"/>
</g>
<!-- 738 -->
<g id="node25" class="node">
<title>738</title>
<polygon fill="#9dcff2" stroke="black" points="1283.5,-274 1116.5,-274 1116.5,-191 1283.5,-191 1283.5,-274"/>
<text text-anchor="middle" x="1200" y="-258.8" font-family="Times,serif" font-size="14.00">sdComm &lt;= 2.0</text>
<text text-anchor="middle" x="1200" y="-243.8" font-family="Times,serif" font-size="14.00">gini = 0.447</text>
<text text-anchor="middle" x="1200" y="-228.8" font-family="Times,serif" font-size="14.00">samples = 8962</text>
<text text-anchor="middle" x="1200" y="-213.8" font-family="Times,serif" font-size="14.00">value = [3017, 5945]</text>
<text text-anchor="middle" x="1200" y="-198.8" font-family="Times,serif" font-size="14.00">class = True</text>
</g>
<!-- 468&#45;&gt;738 -->
<g id="edge24" class="edge">
<title>468&#45;&gt;738</title>
<path fill="none" stroke="black" d="M1004.3,-314.12C1036.76,-300.75 1073.6,-285.57 1106.5,-272.02"/>
<polygon fill="black" stroke="black" points="1108.21,-275.1 1116.12,-268.06 1105.54,-268.63 1108.21,-275.1"/>
</g>
<!-- 470 -->
<g id="node19" class="node">
<title>470</title>
<polygon fill="#9dcef2" stroke="black" points="905.5,-155 738.5,-155 738.5,-72 905.5,-72 905.5,-155"/>
<text text-anchor="middle" x="822" y="-139.8" font-family="Times,serif" font-size="14.00">nbproc &lt;= 4.5</text>
<text text-anchor="middle" x="822" y="-124.8" font-family="Times,serif" font-size="14.00">gini = 0.446</text>
<text text-anchor="middle" x="822" y="-109.8" font-family="Times,serif" font-size="14.00">samples = 5981</text>
<text text-anchor="middle" x="822" y="-94.8" font-family="Times,serif" font-size="14.00">value = [2004, 3977]</text>
<text text-anchor="middle" x="822" y="-79.8" font-family="Times,serif" font-size="14.00">class = True</text>
</g>
<!-- 469&#45;&gt;470 -->
<g id="edge18" class="edge">
<title>469&#45;&gt;470</title>
<path fill="none" stroke="black" d="M883.39,-190.91C876.17,-181.92 868.45,-172.32 861.01,-163.05"/>
<polygon fill="black" stroke="black" points="863.55,-160.62 854.56,-155.02 858.09,-165.01 863.55,-160.62"/>
</g>
<!-- 565 -->
<g id="node22" class="node">
<title>565</title>
<polygon fill="#6db7ec" stroke="black" points="1099,-155 923,-155 923,-72 1099,-72 1099,-155"/>
<text text-anchor="middle" x="1011" y="-139.8" font-family="Times,serif" font-size="14.00">graphDepth &lt;= 25.5</text>
<text text-anchor="middle" x="1011" y="-124.8" font-family="Times,serif" font-size="14.00">gini = 0.331</text>
<text text-anchor="middle" x="1011" y="-109.8" font-family="Times,serif" font-size="14.00">samples = 22190</text>
<text text-anchor="middle" x="1011" y="-94.8" font-family="Times,serif" font-size="14.00">value = [4649, 17541]</text>
<text text-anchor="middle" x="1011" y="-79.8" font-family="Times,serif" font-size="14.00">class = True</text>
</g>
<!-- 469&#45;&gt;565 -->
<g id="edge21" class="edge">
<title>469&#45;&gt;565</title>
<path fill="none" stroke="black" d="M948.96,-190.91C956.25,-181.92 964.06,-172.32 971.58,-163.05"/>
<polygon fill="black" stroke="black" points="974.51,-164.99 978.1,-155.02 969.08,-160.58 974.51,-164.99"/>
</g>
<!-- 471 -->
<g id="node20" class="node">
<title>471</title>
<polygon fill="#c0c0c0" stroke="black" points="799,-36 745,-36 745,0 799,0 799,-36"/>
<text text-anchor="middle" x="772" y="-14.3" font-family="Times,serif" font-size="14.00">(...)</text>
</g>
<!-- 470&#45;&gt;471 -->
<g id="edge19" class="edge">
<title>470&#45;&gt;471</title>
<path fill="none" stroke="black" d="M800.21,-71.76C795.45,-62.85 790.52,-53.64 786.15,-45.46"/>
<polygon fill="black" stroke="black" points="789.11,-43.57 781.31,-36.41 782.94,-46.87 789.11,-43.57"/>
</g>
<!-- 518 -->
<g id="node21" class="node">
<title>518</title>
<polygon fill="#c0c0c0" stroke="black" points="871,-36 817,-36 817,0 871,0 871,-36"/>
<text text-anchor="middle" x="844" y="-14.3" font-family="Times,serif" font-size="14.00">(...)</text>
</g>
<!-- 470&#45;&gt;518 -->
<g id="edge20" class="edge">
<title>470&#45;&gt;518</title>
<path fill="none" stroke="black" d="M831.59,-71.76C833.61,-63.14 835.71,-54.24 837.59,-46.26"/>
<polygon fill="black" stroke="black" points="841.02,-46.94 839.9,-36.41 834.21,-45.34 841.02,-46.94"/>
</g>
<!-- 566 -->
<g id="node23" class="node">
<title>566</title>
<polygon fill="#c0c0c0" stroke="black" points="988,-36 934,-36 934,0 988,0 988,-36"/>
<text text-anchor="middle" x="961" y="-14.3" font-family="Times,serif" font-size="14.00">(...)</text>
</g>
<!-- 565&#45;&gt;566 -->
<g id="edge22" class="edge">
<title>565&#45;&gt;566</title>
<path fill="none" stroke="black" d="M989.21,-71.76C984.45,-62.85 979.52,-53.64 975.15,-45.46"/>
<polygon fill="black" stroke="black" points="978.11,-43.57 970.31,-36.41 971.94,-46.87 978.11,-43.57"/>
</g>
<!-- 715 -->
<g id="node24" class="node">
<title>715</title>
<polygon fill="#c0c0c0" stroke="black" points="1060,-36 1006,-36 1006,0 1060,0 1060,-36"/>
<text text-anchor="middle" x="1033" y="-14.3" font-family="Times,serif" font-size="14.00">(...)</text>
</g>
<!-- 565&#45;&gt;715 -->
<g id="edge23" class="edge">
<title>565&#45;&gt;715</title>
<path fill="none" stroke="black" d="M1020.59,-71.76C1022.61,-63.14 1024.71,-54.24 1026.59,-46.26"/>
<polygon fill="black" stroke="black" points="1030.02,-46.94 1028.9,-36.41 1023.21,-45.34 1030.02,-46.94"/>
</g>
<!-- 739 -->
<g id="node26" class="node">
<title>739</title>
<polygon fill="#b4daf5" stroke="black" points="1283.5,-155 1116.5,-155 1116.5,-72 1283.5,-72 1283.5,-155"/>
<text text-anchor="middle" x="1200" y="-139.8" font-family="Times,serif" font-size="14.00">nbproc &lt;= 4.5</text>
<text text-anchor="middle" x="1200" y="-124.8" font-family="Times,serif" font-size="14.00">gini = 0.473</text>
<text text-anchor="middle" x="1200" y="-109.8" font-family="Times,serif" font-size="14.00">samples = 3578</text>
<text text-anchor="middle" x="1200" y="-94.8" font-family="Times,serif" font-size="14.00">value = [1373, 2205]</text>
<text text-anchor="middle" x="1200" y="-79.8" font-family="Times,serif" font-size="14.00">class = True</text>
</g>
<!-- 738&#45;&gt;739 -->
<g id="edge25" class="edge">
<title>738&#45;&gt;739</title>
<path fill="none" stroke="black" d="M1200,-190.91C1200,-182.65 1200,-173.86 1200,-165.3"/>
<polygon fill="black" stroke="black" points="1203.5,-165.02 1200,-155.02 1196.5,-165.02 1203.5,-165.02"/>
</g>
<!-- 770 -->
<g id="node29" class="node">
<title>770</title>
<polygon fill="#90c8f0" stroke="black" points="1468.5,-155 1301.5,-155 1301.5,-72 1468.5,-72 1468.5,-155"/>
<text text-anchor="middle" x="1385" y="-139.8" font-family="Times,serif" font-size="14.00">graphSize &lt;= 22.5</text>
<text text-anchor="middle" x="1385" y="-124.8" font-family="Times,serif" font-size="14.00">gini = 0.424</text>
<text text-anchor="middle" x="1385" y="-109.8" font-family="Times,serif" font-size="14.00">samples = 5384</text>
<text text-anchor="middle" x="1385" y="-94.8" font-family="Times,serif" font-size="14.00">value = [1644, 3740]</text>
<text text-anchor="middle" x="1385" y="-79.8" font-family="Times,serif" font-size="14.00">class = True</text>
</g>
<!-- 738&#45;&gt;770 -->
<g id="edge28" class="edge">
<title>738&#45;&gt;770</title>
<path fill="none" stroke="black" d="M1264.18,-190.91C1279.68,-181.11 1296.35,-170.56 1312.21,-160.53"/>
<polygon fill="black" stroke="black" points="1314.35,-163.32 1320.93,-155.02 1310.61,-157.41 1314.35,-163.32"/>
</g>
<!-- 740 -->
<g id="node27" class="node">
<title>740</title>
<polygon fill="#c0c0c0" stroke="black" points="1191,-36 1137,-36 1137,0 1191,0 1191,-36"/>
<text text-anchor="middle" x="1164" y="-14.3" font-family="Times,serif" font-size="14.00">(...)</text>
</g>
<!-- 739&#45;&gt;740 -->
<g id="edge26" class="edge">
<title>739&#45;&gt;740</title>
<path fill="none" stroke="black" d="M1184.31,-71.76C1180.96,-63.04 1177.49,-54.04 1174.39,-45.99"/>
<polygon fill="black" stroke="black" points="1177.56,-44.48 1170.7,-36.41 1171.03,-46.99 1177.56,-44.48"/>
</g>
<!-- 755 -->
<g id="node28" class="node">
<title>755</title>
<polygon fill="#c0c0c0" stroke="black" points="1263,-36 1209,-36 1209,0 1263,0 1263,-36"/>
<text text-anchor="middle" x="1236" y="-14.3" font-family="Times,serif" font-size="14.00">(...)</text>
</g>
<!-- 739&#45;&gt;755 -->
<g id="edge27" class="edge">
<title>739&#45;&gt;755</title>
<path fill="none" stroke="black" d="M1215.69,-71.76C1219.04,-63.04 1222.51,-54.04 1225.61,-45.99"/>
<polygon fill="black" stroke="black" points="1228.97,-46.99 1229.3,-36.41 1222.44,-44.48 1228.97,-46.99"/>
</g>
<!-- 771 -->
<g id="node30" class="node">
<title>771</title>
<polygon fill="#c0c0c0" stroke="black" points="1376,-36 1322,-36 1322,0 1376,0 1376,-36"/>
<text text-anchor="middle" x="1349" y="-14.3" font-family="Times,serif" font-size="14.00">(...)</text>
</g>
<!-- 770&#45;&gt;771 -->
<g id="edge29" class="edge">
<title>770&#45;&gt;771</title>
<path fill="none" stroke="black" d="M1369.31,-71.76C1365.96,-63.04 1362.49,-54.04 1359.39,-45.99"/>
<polygon fill="black" stroke="black" points="1362.56,-44.48 1355.7,-36.41 1356.03,-46.99 1362.56,-44.48"/>
</g>
<!-- 786 -->
<g id="node31" class="node">
<title>786</title>
<polygon fill="#c0c0c0" stroke="black" points="1448,-36 1394,-36 1394,0 1448,0 1448,-36"/>
<text text-anchor="middle" x="1421" y="-14.3" font-family="Times,serif" font-size="14.00">(...)</text>
</g>
<!-- 770&#45;&gt;786 -->
<g id="edge30" class="edge">
<title>770&#45;&gt;786</title>
<path fill="none" stroke="black" d="M1400.69,-71.76C1404.04,-63.04 1407.51,-54.04 1410.61,-45.99"/>
<polygon fill="black" stroke="black" points="1413.97,-46.99 1414.3,-36.41 1407.44,-44.48 1413.97,-46.99"/>
</g>
</g>
</svg>
