<?xml version="1.0" encoding="UTF-8" standalone="no"?>
<!DOCTYPE svg PUBLIC "-//W3C//DTD SVG 1.1//EN"
 "http://www.w3.org/Graphics/SVG/1.1/DTD/svg11.dtd">
<!-- Generated by graphviz version 2.43.0 (0)
 -->
<!-- Title: Tree Pages: 1 -->
<svg width="1410pt" height="520pt"
 viewBox="0.00 0.00 1410.00 520.00" xmlns="http://www.w3.org/2000/svg" xmlns:xlink="http://www.w3.org/1999/xlink">
<g id="graph0" class="graph" transform="scale(1 1) rotate(0) translate(4 516)">
<title>Tree</title>
<polygon fill="white" stroke="transparent" points="-4,4 -4,-516 1406,-516 1406,4 -4,4"/>
<!-- 0 -->
<g id="node1" class="node">
<title>0</title>
<polygon fill="#eff7fd" stroke="black" points="803,-512 618,-512 618,-429 803,-429 803,-512"/>
<text text-anchor="middle" x="710.5" y="-496.8" font-family="Times,serif" font-size="14.00">CCR &lt;= 5.5</text>
<text text-anchor="middle" x="710.5" y="-481.8" font-family="Times,serif" font-size="14.00">gini = 0.499</text>
<text text-anchor="middle" x="710.5" y="-466.8" font-family="Times,serif" font-size="14.00">samples = 26338</text>
<text text-anchor="middle" x="710.5" y="-451.8" font-family="Times,serif" font-size="14.00">value = [12603, 13735]</text>
<text text-anchor="middle" x="710.5" y="-436.8" font-family="Times,serif" font-size="14.00">class = True</text>
</g>
<!-- 1 -->
<g id="node2" class="node">
<title>1</title>
<polygon fill="#cbe5f8" stroke="black" points="622.5,-393 446.5,-393 446.5,-310 622.5,-310 622.5,-393"/>
<text text-anchor="middle" x="534.5" y="-377.8" font-family="Times,serif" font-size="14.00">graphSize &lt;= 40.0</text>
<text text-anchor="middle" x="534.5" y="-362.8" font-family="Times,serif" font-size="14.00">gini = 0.489</text>
<text text-anchor="middle" x="534.5" y="-347.8" font-family="Times,serif" font-size="14.00">samples = 17452</text>
<text text-anchor="middle" x="534.5" y="-332.8" font-family="Times,serif" font-size="14.00">value = [7405, 10047]</text>
<text text-anchor="middle" x="534.5" y="-317.8" font-family="Times,serif" font-size="14.00">class = True</text>
</g>
<!-- 0&#45;&gt;1 -->
<g id="edge1" class="edge">
<title>0&#45;&gt;1</title>
<path fill="none" stroke="black" d="M649.44,-428.91C634.83,-419.2 619.13,-408.76 604.16,-398.81"/>
<polygon fill="black" stroke="black" points="605.72,-395.64 595.45,-393.02 601.84,-401.47 605.72,-395.64"/>
<text text-anchor="middle" x="600.39" y="-413.83" font-family="Times,serif" font-size="14.00">True</text>
</g>
<!-- 470 -->
<g id="node17" class="node">
<title>470</title>
<polygon fill="#f7dac5" stroke="black" points="968,-393 801,-393 801,-310 968,-310 968,-393"/>
<text text-anchor="middle" x="884.5" y="-377.8" font-family="Times,serif" font-size="14.00">sdComp &lt;= 6.5</text>
<text text-anchor="middle" x="884.5" y="-362.8" font-family="Times,serif" font-size="14.00">gini = 0.486</text>
<text text-anchor="middle" x="884.5" y="-347.8" font-family="Times,serif" font-size="14.00">samples = 8886</text>
<text text-anchor="middle" x="884.5" y="-332.8" font-family="Times,serif" font-size="14.00">value = [5198, 3688]</text>
<text text-anchor="middle" x="884.5" y="-317.8" font-family="Times,serif" font-size="14.00">class = False</text>
</g>
<!-- 0&#45;&gt;470 -->
<g id="edge16" class="edge">
<title>0&#45;&gt;470</title>
<path fill="none" stroke="black" d="M770.87,-428.91C785.31,-419.2 800.83,-408.76 815.63,-398.81"/>
<polygon fill="black" stroke="black" points="817.89,-401.51 824.24,-393.02 813.99,-395.7 817.89,-401.51"/>
<text text-anchor="middle" x="819.43" y="-413.85" font-family="Times,serif" font-size="14.00">False</text>
</g>
<!-- 2 -->
<g id="node3" class="node">
<title>2</title>
<polygon fill="#ddeefa" stroke="black" points="352,-274 185,-274 185,-191 352,-191 352,-274"/>
<text text-anchor="middle" x="268.5" y="-258.8" font-family="Times,serif" font-size="14.00">graphSize &lt;= 22.5</text>
<text text-anchor="middle" x="268.5" y="-243.8" font-family="Times,serif" font-size="14.00">gini = 0.495</text>
<text text-anchor="middle" x="268.5" y="-228.8" font-family="Times,serif" font-size="14.00">samples = 14700</text>
<text text-anchor="middle" x="268.5" y="-213.8" font-family="Times,serif" font-size="14.00">value = [6649, 8051]</text>
<text text-anchor="middle" x="268.5" y="-198.8" font-family="Times,serif" font-size="14.00">class = True</text>
</g>
<!-- 1&#45;&gt;2 -->
<g id="edge2" class="edge">
<title>1&#45;&gt;2</title>
<path fill="none" stroke="black" d="M446.3,-311.7C419.12,-299.75 389.12,-286.56 361.63,-274.46"/>
<polygon fill="black" stroke="black" points="362.97,-271.23 352.41,-270.41 360.15,-277.64 362.97,-271.23"/>
</g>
<!-- 263 -->
<g id="node10" class="node">
<title>263</title>
<polygon fill="#84c2ef" stroke="black" points="613.5,-274 455.5,-274 455.5,-191 613.5,-191 613.5,-274"/>
<text text-anchor="middle" x="534.5" y="-258.8" font-family="Times,serif" font-size="14.00">graphSize &lt;= 75.0</text>
<text text-anchor="middle" x="534.5" y="-243.8" font-family="Times,serif" font-size="14.00">gini = 0.398</text>
<text text-anchor="middle" x="534.5" y="-228.8" font-family="Times,serif" font-size="14.00">samples = 2752</text>
<text text-anchor="middle" x="534.5" y="-213.8" font-family="Times,serif" font-size="14.00">value = [756, 1996]</text>
<text text-anchor="middle" x="534.5" y="-198.8" font-family="Times,serif" font-size="14.00">class = True</text>
</g>
<!-- 1&#45;&gt;263 -->
<g id="edge9" class="edge">
<title>1&#45;&gt;263</title>
<path fill="none" stroke="black" d="M534.5,-309.91C534.5,-301.65 534.5,-292.86 534.5,-284.3"/>
<polygon fill="black" stroke="black" points="538,-284.02 534.5,-274.02 531,-284.02 538,-284.02"/>
</g>
<!-- 3 -->
<g id="node4" class="node">
<title>3</title>
<polygon fill="#e6f3fc" stroke="black" points="167,-155 0,-155 0,-72 167,-72 167,-155"/>
<text text-anchor="middle" x="83.5" y="-139.8" font-family="Times,serif" font-size="14.00">sdComm &lt;= 0.65</text>
<text text-anchor="middle" x="83.5" y="-124.8" font-family="Times,serif" font-size="14.00">gini = 0.498</text>
<text text-anchor="middle" x="83.5" y="-109.8" font-family="Times,serif" font-size="14.00">samples = 11359</text>
<text text-anchor="middle" x="83.5" y="-94.8" font-family="Times,serif" font-size="14.00">value = [5294, 6065]</text>
<text text-anchor="middle" x="83.5" y="-79.8" font-family="Times,serif" font-size="14.00">class = True</text>
</g>
<!-- 2&#45;&gt;3 -->
<g id="edge3" class="edge">
<title>2&#45;&gt;3</title>
<path fill="none" stroke="black" d="M204.32,-190.91C188.82,-181.11 172.15,-170.56 156.29,-160.53"/>
<polygon fill="black" stroke="black" points="157.89,-157.41 147.57,-155.02 154.15,-163.32 157.89,-157.41"/>
</g>
<!-- 134 -->
<g id="node7" class="node">
<title>134</title>
<polygon fill="#c0e0f7" stroke="black" points="352,-155 185,-155 185,-72 352,-72 352,-155"/>
<text text-anchor="middle" x="268.5" y="-139.8" font-family="Times,serif" font-size="14.00">nbproc &lt;= 4.5</text>
<text text-anchor="middle" x="268.5" y="-124.8" font-family="Times,serif" font-size="14.00">gini = 0.482</text>
<text text-anchor="middle" x="268.5" y="-109.8" font-family="Times,serif" font-size="14.00">samples = 3341</text>
<text text-anchor="middle" x="268.5" y="-94.8" font-family="Times,serif" font-size="14.00">value = [1355, 1986]</text>
<text text-anchor="middle" x="268.5" y="-79.8" font-family="Times,serif" font-size="14.00">class = True</text>
</g>
<!-- 2&#45;&gt;134 -->
<g id="edge6" class="edge">
<title>2&#45;&gt;134</title>
<path fill="none" stroke="black" d="M268.5,-190.91C268.5,-182.65 268.5,-173.86 268.5,-165.3"/>
<polygon fill="black" stroke="black" points="272,-165.02 268.5,-155.02 265,-165.02 272,-165.02"/>
</g>
<!-- 4 -->
<g id="node5" class="node">
<title>4</title>
<polygon fill="#c0c0c0" stroke="black" points="74.5,-36 20.5,-36 20.5,0 74.5,0 74.5,-36"/>
<text text-anchor="middle" x="47.5" y="-14.3" font-family="Times,serif" font-size="14.00">(...)</text>
</g>
<!-- 3&#45;&gt;4 -->
<g id="edge4" class="edge">
<title>3&#45;&gt;4</title>
<path fill="none" stroke="black" d="M67.81,-71.76C64.46,-63.04 60.99,-54.04 57.89,-45.99"/>
<polygon fill="black" stroke="black" points="61.06,-44.48 54.2,-36.41 54.53,-46.99 61.06,-44.48"/>
</g>
<!-- 115 -->
<g id="node6" class="node">
<title>115</title>
<polygon fill="#c0c0c0" stroke="black" points="146.5,-36 92.5,-36 92.5,0 146.5,0 146.5,-36"/>
<text text-anchor="middle" x="119.5" y="-14.3" font-family="Times,serif" font-size="14.00">(...)</text>
</g>
<!-- 3&#45;&gt;115 -->
<g id="edge5" class="edge">
<title>3&#45;&gt;115</title>
<path fill="none" stroke="black" d="M99.19,-71.76C102.54,-63.04 106.01,-54.04 109.11,-45.99"/>
<polygon fill="black" stroke="black" points="112.47,-46.99 112.8,-36.41 105.94,-44.48 112.47,-46.99"/>
</g>
<!-- 135 -->
<g id="node8" class="node">
<title>135</title>
<polygon fill="#c0c0c0" stroke="black" points="260.5,-36 206.5,-36 206.5,0 260.5,0 260.5,-36"/>
<text text-anchor="middle" x="233.5" y="-14.3" font-family="Times,serif" font-size="14.00">(...)</text>
</g>
<!-- 134&#45;&gt;135 -->
<g id="edge7" class="edge">
<title>134&#45;&gt;135</title>
<path fill="none" stroke="black" d="M253.25,-71.76C249.99,-63.04 246.62,-54.04 243.6,-45.99"/>
<polygon fill="black" stroke="black" points="246.8,-44.54 240.02,-36.41 240.24,-47 246.8,-44.54"/>
</g>
<!-- 196 -->
<g id="node9" class="node">
<title>196</title>
<polygon fill="#c0c0c0" stroke="black" points="332.5,-36 278.5,-36 278.5,0 332.5,0 332.5,-36"/>
<text text-anchor="middle" x="305.5" y="-14.3" font-family="Times,serif" font-size="14.00">(...)</text>
</g>
<!-- 134&#45;&gt;196 -->
<g id="edge8" class="edge">
<title>134&#45;&gt;196</title>
<path fill="none" stroke="black" d="M284.62,-71.76C288.11,-62.94 291.71,-53.84 294.92,-45.72"/>
<polygon fill="black" stroke="black" points="298.19,-46.99 298.61,-36.41 291.68,-44.42 298.19,-46.99"/>
</g>
<!-- 264 -->
<g id="node11" class="node">
<title>264</title>
<polygon fill="#9bcef2" stroke="black" points="537,-155 370,-155 370,-72 537,-72 537,-155"/>
<text text-anchor="middle" x="453.5" y="-139.8" font-family="Times,serif" font-size="14.00">graphDepth &lt;= 12.5</text>
<text text-anchor="middle" x="453.5" y="-124.8" font-family="Times,serif" font-size="14.00">gini = 0.443</text>
<text text-anchor="middle" x="453.5" y="-109.8" font-family="Times,serif" font-size="14.00">samples = 1672</text>
<text text-anchor="middle" x="453.5" y="-94.8" font-family="Times,serif" font-size="14.00">value = [554, 1118]</text>
<text text-anchor="middle" x="453.5" y="-79.8" font-family="Times,serif" font-size="14.00">class = True</text>
</g>
<!-- 263&#45;&gt;264 -->
<g id="edge10" class="edge">
<title>263&#45;&gt;264</title>
<path fill="none" stroke="black" d="M506.4,-190.91C500.24,-182.01 493.66,-172.51 487.31,-163.33"/>
<polygon fill="black" stroke="black" points="490.12,-161.25 481.55,-155.02 484.37,-165.24 490.12,-161.25"/>
</g>
<!-- 391 -->
<g id="node14" class="node">
<title>391</title>
<polygon fill="#67b4eb" stroke="black" points="704,-155 555,-155 555,-72 704,-72 704,-155"/>
<text text-anchor="middle" x="629.5" y="-139.8" font-family="Times,serif" font-size="14.00">nbproc &lt;= 4.5</text>
<text text-anchor="middle" x="629.5" y="-124.8" font-family="Times,serif" font-size="14.00">gini = 0.304</text>
<text text-anchor="middle" x="629.5" y="-109.8" font-family="Times,serif" font-size="14.00">samples = 1080</text>
<text text-anchor="middle" x="629.5" y="-94.8" font-family="Times,serif" font-size="14.00">value = [202, 878]</text>
<text text-anchor="middle" x="629.5" y="-79.8" font-family="Times,serif" font-size="14.00">class = True</text>
</g>
<!-- 263&#45;&gt;391 -->
<g id="edge13" class="edge">
<title>263&#45;&gt;391</title>
<path fill="none" stroke="black" d="M567.46,-190.91C574.75,-181.92 582.56,-172.32 590.08,-163.05"/>
<polygon fill="black" stroke="black" points="593.01,-164.99 596.6,-155.02 587.58,-160.58 593.01,-164.99"/>
</g>
<!-- 265 -->
<g id="node12" class="node">
<title>265</title>
<polygon fill="#c0c0c0" stroke="black" points="424.5,-36 370.5,-36 370.5,0 424.5,0 424.5,-36"/>
<text text-anchor="middle" x="397.5" y="-14.3" font-family="Times,serif" font-size="14.00">(...)</text>
</g>
<!-- 264&#45;&gt;265 -->
<g id="edge11" class="edge">
<title>264&#45;&gt;265</title>
<path fill="none" stroke="black" d="M429.1,-71.76C423.7,-62.75 418.13,-53.44 413.19,-45.19"/>
<polygon fill="black" stroke="black" points="416.07,-43.19 407.92,-36.41 410.06,-46.78 416.07,-43.19"/>
</g>
<!-- 330 -->
<g id="node13" class="node">
<title>330</title>
<polygon fill="#c0c0c0" stroke="black" points="496.5,-36 442.5,-36 442.5,0 496.5,0 496.5,-36"/>
<text text-anchor="middle" x="469.5" y="-14.3" font-family="Times,serif" font-size="14.00">(...)</text>
</g>
<!-- 264&#45;&gt;330 -->
<g id="edge12" class="edge">
<title>264&#45;&gt;330</title>
<path fill="none" stroke="black" d="M460.47,-71.76C461.93,-63.24 463.44,-54.44 464.79,-46.53"/>
<polygon fill="black" stroke="black" points="468.28,-46.85 466.52,-36.41 461.38,-45.67 468.28,-46.85"/>
</g>
<!-- 392 -->
<g id="node15" class="node">
<title>392</title>
<polygon fill="#c0c0c0" stroke="black" points="600.5,-36 546.5,-36 546.5,0 600.5,0 600.5,-36"/>
<text text-anchor="middle" x="573.5" y="-14.3" font-family="Times,serif" font-size="14.00">(...)</text>
</g>
<!-- 391&#45;&gt;392 -->
<g id="edge14" class="edge">
<title>391&#45;&gt;392</title>
<path fill="none" stroke="black" d="M605.1,-71.76C599.7,-62.75 594.13,-53.44 589.19,-45.19"/>
<polygon fill="black" stroke="black" points="592.07,-43.19 583.92,-36.41 586.06,-46.78 592.07,-43.19"/>
</g>
<!-- 431 -->
<g id="node16" class="node">
<title>431</title>
<polygon fill="#c0c0c0" stroke="black" points="672.5,-36 618.5,-36 618.5,0 672.5,0 672.5,-36"/>
<text text-anchor="middle" x="645.5" y="-14.3" font-family="Times,serif" font-size="14.00">(...)</text>
</g>
<!-- 391&#45;&gt;431 -->
<g id="edge15" class="edge">
<title>391&#45;&gt;431</title>
<path fill="none" stroke="black" d="M636.47,-71.76C637.93,-63.24 639.44,-54.44 640.79,-46.53"/>
<polygon fill="black" stroke="black" points="644.28,-46.85 642.52,-36.41 637.38,-45.67 644.28,-46.85"/>
</g>
<!-- 471 -->
<g id="node18" class="node">
<title>471</title>
<polygon fill="#f6d2b9" stroke="black" points="968,-274 801,-274 801,-191 968,-191 968,-274"/>
<text text-anchor="middle" x="884.5" y="-258.8" font-family="Times,serif" font-size="14.00">graphDepth &lt;= 13.5</text>
<text text-anchor="middle" x="884.5" y="-243.8" font-family="Times,serif" font-size="14.00">gini = 0.477</text>
<text text-anchor="middle" x="884.5" y="-228.8" font-family="Times,serif" font-size="14.00">samples = 6486</text>
<text text-anchor="middle" x="884.5" y="-213.8" font-family="Times,serif" font-size="14.00">value = [3944, 2542]</text>
<text text-anchor="middle" x="884.5" y="-198.8" font-family="Times,serif" font-size="14.00">class = False</text>
</g>
<!-- 470&#45;&gt;471 -->
<g id="edge17" class="edge">
<title>470&#45;&gt;471</title>
<path fill="none" stroke="black" d="M884.5,-309.91C884.5,-301.65 884.5,-292.86 884.5,-284.3"/>
<polygon fill="black" stroke="black" points="888,-284.02 884.5,-274.02 881,-284.02 888,-284.02"/>
</g>
<!-- 636 -->
<g id="node25" class="node">
<title>636</title>
<polygon fill="#fdf4ee" stroke="black" points="1233,-274 1066,-274 1066,-191 1233,-191 1233,-274"/>
<text text-anchor="middle" x="1149.5" y="-258.8" font-family="Times,serif" font-size="14.00">graphDepth &lt;= 3.5</text>
<text text-anchor="middle" x="1149.5" y="-243.8" font-family="Times,serif" font-size="14.00">gini = 0.499</text>
<text text-anchor="middle" x="1149.5" y="-228.8" font-family="Times,serif" font-size="14.00">samples = 2400</text>
<text text-anchor="middle" x="1149.5" y="-213.8" font-family="Times,serif" font-size="14.00">value = [1254, 1146]</text>
<text text-anchor="middle" x="1149.5" y="-198.8" font-family="Times,serif" font-size="14.00">class = False</text>
</g>
<!-- 470&#45;&gt;636 -->
<g id="edge24" class="edge">
<title>470&#45;&gt;636</title>
<path fill="none" stroke="black" d="M968.35,-313.48C996.4,-301.1 1027.82,-287.22 1056.53,-274.55"/>
<polygon fill="black" stroke="black" points="1058.01,-277.72 1065.74,-270.48 1055.18,-271.32 1058.01,-277.72"/>
</g>
<!-- 472 -->
<g id="node19" class="node">
<title>472</title>
<polygon fill="#f7dac6" stroke="black" points="889,-155 722,-155 722,-72 889,-72 889,-155"/>
<text text-anchor="middle" x="805.5" y="-139.8" font-family="Times,serif" font-size="14.00">graphDepth &lt;= 6.5</text>
<text text-anchor="middle" x="805.5" y="-124.8" font-family="Times,serif" font-size="14.00">gini = 0.486</text>
<text text-anchor="middle" x="805.5" y="-109.8" font-family="Times,serif" font-size="14.00">samples = 4128</text>
<text text-anchor="middle" x="805.5" y="-94.8" font-family="Times,serif" font-size="14.00">value = [2414, 1714]</text>
<text text-anchor="middle" x="805.5" y="-79.8" font-family="Times,serif" font-size="14.00">class = False</text>
</g>
<!-- 471&#45;&gt;472 -->
<g id="edge18" class="edge">
<title>471&#45;&gt;472</title>
<path fill="none" stroke="black" d="M857.09,-190.91C851.09,-182.01 844.67,-172.51 838.47,-163.33"/>
<polygon fill="black" stroke="black" points="841.36,-161.35 832.86,-155.02 835.56,-165.27 841.36,-161.35"/>
</g>
<!-- 579 -->
<g id="node22" class="node">
<title>579</title>
<polygon fill="#f3c5a4" stroke="black" points="1064.5,-155 906.5,-155 906.5,-72 1064.5,-72 1064.5,-155"/>
<text text-anchor="middle" x="985.5" y="-139.8" font-family="Times,serif" font-size="14.00">sdComp &lt;= 2.0</text>
<text text-anchor="middle" x="985.5" y="-124.8" font-family="Times,serif" font-size="14.00">gini = 0.456</text>
<text text-anchor="middle" x="985.5" y="-109.8" font-family="Times,serif" font-size="14.00">samples = 2358</text>
<text text-anchor="middle" x="985.5" y="-94.8" font-family="Times,serif" font-size="14.00">value = [1530, 828]</text>
<text text-anchor="middle" x="985.5" y="-79.8" font-family="Times,serif" font-size="14.00">class = False</text>
</g>
<!-- 471&#45;&gt;579 -->
<g id="edge21" class="edge">
<title>471&#45;&gt;579</title>
<path fill="none" stroke="black" d="M919.54,-190.91C927.38,-181.83 935.76,-172.12 943.83,-162.77"/>
<polygon fill="black" stroke="black" points="946.64,-164.88 950.52,-155.02 941.34,-160.3 946.64,-164.88"/>
</g>
<!-- 473 -->
<g id="node20" class="node">
<title>473</title>
<polygon fill="#c0c0c0" stroke="black" points="778.5,-36 724.5,-36 724.5,0 778.5,0 778.5,-36"/>
<text text-anchor="middle" x="751.5" y="-14.3" font-family="Times,serif" font-size="14.00">(...)</text>
</g>
<!-- 472&#45;&gt;473 -->
<g id="edge19" class="edge">
<title>472&#45;&gt;473</title>
<path fill="none" stroke="black" d="M781.97,-71.76C776.77,-62.75 771.39,-53.44 766.63,-45.19"/>
<polygon fill="black" stroke="black" points="769.58,-43.31 761.55,-36.41 763.52,-46.82 769.58,-43.31"/>
</g>
<!-- 534 -->
<g id="node21" class="node">
<title>534</title>
<polygon fill="#c0c0c0" stroke="black" points="850.5,-36 796.5,-36 796.5,0 850.5,0 850.5,-36"/>
<text text-anchor="middle" x="823.5" y="-14.3" font-family="Times,serif" font-size="14.00">(...)</text>
</g>
<!-- 472&#45;&gt;534 -->
<g id="edge20" class="edge">
<title>472&#45;&gt;534</title>
<path fill="none" stroke="black" d="M813.34,-71.76C815,-63.14 816.72,-54.24 818.25,-46.26"/>
<polygon fill="black" stroke="black" points="821.7,-46.89 820.15,-36.41 814.82,-45.56 821.7,-46.89"/>
</g>
<!-- 580 -->
<g id="node23" class="node">
<title>580</title>
<polygon fill="#c0c0c0" stroke="black" points="950.5,-36 896.5,-36 896.5,0 950.5,0 950.5,-36"/>
<text text-anchor="middle" x="923.5" y="-14.3" font-family="Times,serif" font-size="14.00">(...)</text>
</g>
<!-- 579&#45;&gt;580 -->
<g id="edge22" class="edge">
<title>579&#45;&gt;580</title>
<path fill="none" stroke="black" d="M958.49,-71.76C952.45,-62.65 946.2,-53.24 940.69,-44.92"/>
<polygon fill="black" stroke="black" points="943.48,-42.81 935.04,-36.41 937.65,-46.67 943.48,-42.81"/>
</g>
<!-- 607 -->
<g id="node24" class="node">
<title>607</title>
<polygon fill="#c0c0c0" stroke="black" points="1022.5,-36 968.5,-36 968.5,0 1022.5,0 1022.5,-36"/>
<text text-anchor="middle" x="995.5" y="-14.3" font-family="Times,serif" font-size="14.00">(...)</text>
</g>
<!-- 579&#45;&gt;607 -->
<g id="edge23" class="edge">
<title>579&#45;&gt;607</title>
<path fill="none" stroke="black" d="M989.86,-71.76C990.77,-63.24 991.71,-54.44 992.56,-46.53"/>
<polygon fill="black" stroke="black" points="996.06,-46.72 993.64,-36.41 989.09,-45.98 996.06,-46.72"/>
</g>
<!-- 637 -->
<g id="node26" class="node">
<title>637</title>
<polygon fill="#99cdf2" stroke="black" points="1216.5,-155 1082.5,-155 1082.5,-72 1216.5,-72 1216.5,-155"/>
<text text-anchor="middle" x="1149.5" y="-139.8" font-family="Times,serif" font-size="14.00">sdComm &lt;= 6.5</text>
<text text-anchor="middle" x="1149.5" y="-124.8" font-family="Times,serif" font-size="14.00">gini = 0.44</text>
<text text-anchor="middle" x="1149.5" y="-109.8" font-family="Times,serif" font-size="14.00">samples = 104</text>
<text text-anchor="middle" x="1149.5" y="-94.8" font-family="Times,serif" font-size="14.00">value = [34, 70]</text>
<text text-anchor="middle" x="1149.5" y="-79.8" font-family="Times,serif" font-size="14.00">class = True</text>
</g>
<!-- 636&#45;&gt;637 -->
<g id="edge25" class="edge">
<title>636&#45;&gt;637</title>
<path fill="none" stroke="black" d="M1149.5,-190.91C1149.5,-182.65 1149.5,-173.86 1149.5,-165.3"/>
<polygon fill="black" stroke="black" points="1153,-165.02 1149.5,-155.02 1146,-165.02 1153,-165.02"/>
</g>
<!-- 644 -->
<g id="node29" class="node">
<title>644</title>
<polygon fill="#fcf0e8" stroke="black" points="1402,-155 1235,-155 1235,-72 1402,-72 1402,-155"/>
<text text-anchor="middle" x="1318.5" y="-139.8" font-family="Times,serif" font-size="14.00">nbproc &lt;= 4.5</text>
<text text-anchor="middle" x="1318.5" y="-124.8" font-family="Times,serif" font-size="14.00">gini = 0.498</text>
<text text-anchor="middle" x="1318.5" y="-109.8" font-family="Times,serif" font-size="14.00">samples = 2296</text>
<text text-anchor="middle" x="1318.5" y="-94.8" font-family="Times,serif" font-size="14.00">value = [1220, 1076]</text>
<text text-anchor="middle" x="1318.5" y="-79.8" font-family="Times,serif" font-size="14.00">class = False</text>
</g>
<!-- 636&#45;&gt;644 -->
<g id="edge28" class="edge">
<title>636&#45;&gt;644</title>
<path fill="none" stroke="black" d="M1208.13,-190.91C1222.16,-181.2 1237.24,-170.76 1251.61,-160.81"/>
<polygon fill="black" stroke="black" points="1253.74,-163.59 1259.97,-155.02 1249.76,-157.84 1253.74,-163.59"/>
</g>
<!-- 638 -->
<g id="node27" class="node">
<title>638</title>
<polygon fill="#c0c0c0" stroke="black" points="1134.5,-36 1080.5,-36 1080.5,0 1134.5,0 1134.5,-36"/>
<text text-anchor="middle" x="1107.5" y="-14.3" font-family="Times,serif" font-size="14.00">(...)</text>
</g>
<!-- 637&#45;&gt;638 -->
<g id="edge26" class="edge">
<title>637&#45;&gt;638</title>
<path fill="none" stroke="black" d="M1131.2,-71.76C1127.24,-62.94 1123.15,-53.84 1119.5,-45.72"/>
<polygon fill="black" stroke="black" points="1122.61,-44.09 1115.32,-36.41 1116.22,-46.96 1122.61,-44.09"/>
</g>
<!-- 643 -->
<g id="node28" class="node">
<title>643</title>
<polygon fill="#c0c0c0" stroke="black" points="1206.5,-36 1152.5,-36 1152.5,0 1206.5,0 1206.5,-36"/>
<text text-anchor="middle" x="1179.5" y="-14.3" font-family="Times,serif" font-size="14.00">(...)</text>
</g>
<!-- 637&#45;&gt;643 -->
<g id="edge27" class="edge">
<title>637&#45;&gt;643</title>
<path fill="none" stroke="black" d="M1162.57,-71.76C1165.37,-63.04 1168.26,-54.04 1170.84,-45.99"/>
<polygon fill="black" stroke="black" points="1174.19,-47 1173.92,-36.41 1167.53,-44.86 1174.19,-47"/>
</g>
<!-- 645 -->
<g id="node30" class="node">
<title>645</title>
<polygon fill="#c0c0c0" stroke="black" points="1309.5,-36 1255.5,-36 1255.5,0 1309.5,0 1309.5,-36"/>
<text text-anchor="middle" x="1282.5" y="-14.3" font-family="Times,serif" font-size="14.00">(...)</text>
</g>
<!-- 644&#45;&gt;645 -->
<g id="edge29" class="edge">
<title>644&#45;&gt;645</title>
<path fill="none" stroke="black" d="M1302.81,-71.76C1299.46,-63.04 1295.99,-54.04 1292.89,-45.99"/>
<polygon fill="black" stroke="black" points="1296.06,-44.48 1289.2,-36.41 1289.53,-46.99 1296.06,-44.48"/>
</g>
<!-- 680 -->
<g id="node31" class="node">
<title>680</title>
<polygon fill="#c0c0c0" stroke="black" points="1381.5,-36 1327.5,-36 1327.5,0 1381.5,0 1381.5,-36"/>
<text text-anchor="middle" x="1354.5" y="-14.3" font-family="Times,serif" font-size="14.00">(...)</text>
</g>
<!-- 644&#45;&gt;680 -->
<g id="edge30" class="edge">
<title>644&#45;&gt;680</title>
<path fill="none" stroke="black" d="M1334.19,-71.76C1337.54,-63.04 1341.01,-54.04 1344.11,-45.99"/>
<polygon fill="black" stroke="black" points="1347.47,-46.99 1347.8,-36.41 1340.94,-44.48 1347.47,-46.99"/>
</g>
</g>
</svg>
