<?xml version="1.0" encoding="UTF-8" standalone="no"?>
<!DOCTYPE svg PUBLIC "-//W3C//DTD SVG 1.1//EN"
 "http://www.w3.org/Graphics/SVG/1.1/DTD/svg11.dtd">
<!-- Generated by graphviz version 2.43.0 (0)
 -->
<!-- Title: Tree Pages: 1 -->
<svg width="2407pt" height="520pt"
 viewBox="0.00 0.00 2406.50 520.00" xmlns="http://www.w3.org/2000/svg" xmlns:xlink="http://www.w3.org/1999/xlink">
<g id="graph0" class="graph" transform="scale(1 1) rotate(0) translate(4 516)">
<title>Tree</title>
<polygon fill="white" stroke="transparent" points="-4,4 -4,-516 2402.5,-516 2402.5,4 -4,4"/>
<!-- 0 -->
<g id="node1" class="node">
<title>0</title>
<polygon fill="#ffffff" stroke="black" points="1340.5,-512 993.5,-512 993.5,-429 1340.5,-429 1340.5,-512"/>
<text text-anchor="middle" x="1167" y="-496.8" font-family="Times,serif" font-size="14.00">graphDepth &lt;= 3.5</text>
<text text-anchor="middle" x="1167" y="-481.8" font-family="Times,serif" font-size="14.00">gini = 0.833</text>
<text text-anchor="middle" x="1167" y="-466.8" font-family="Times,serif" font-size="14.00">samples = 26338</text>
<text text-anchor="middle" x="1167" y="-451.8" font-family="Times,serif" font-size="14.00">value = [4337, 4401, 4496, 4304, 4304, 4496]</text>
<text text-anchor="middle" x="1167" y="-436.8" font-family="Times,serif" font-size="14.00">class = maxmax</text>
</g>
<!-- 1 -->
<g id="node2" class="node">
<title>1</title>
<polygon fill="#ffffff" stroke="black" points="1018.5,-393 725.5,-393 725.5,-310 1018.5,-310 1018.5,-393"/>
<text text-anchor="middle" x="872" y="-377.8" font-family="Times,serif" font-size="14.00">CCR &lt;= 0.55</text>
<text text-anchor="middle" x="872" y="-362.8" font-family="Times,serif" font-size="14.00">gini = 0.832</text>
<text text-anchor="middle" x="872" y="-347.8" font-family="Times,serif" font-size="14.00">samples = 3413</text>
<text text-anchor="middle" x="872" y="-332.8" font-family="Times,serif" font-size="14.00">value = [467, 570, 576, 612, 612, 576]</text>
<text text-anchor="middle" x="872" y="-317.8" font-family="Times,serif" font-size="14.00">class = minmax</text>
</g>
<!-- 0&#45;&gt;1 -->
<g id="edge1" class="edge">
<title>0&#45;&gt;1</title>
<path fill="none" stroke="black" d="M1064.65,-428.91C1038.45,-418.52 1010.15,-407.29 983.51,-396.73"/>
<polygon fill="black" stroke="black" points="984.75,-393.45 974.17,-393.02 982.17,-399.96 984.75,-393.45"/>
<text text-anchor="middle" x="984.08" y="-412.27" font-family="Times,serif" font-size="14.00">True</text>
</g>
<!-- 88 -->
<g id="node17" class="node">
<title>88</title>
<polygon fill="#ffffff" stroke="black" points="1661.5,-393 1314.5,-393 1314.5,-310 1661.5,-310 1661.5,-393"/>
<text text-anchor="middle" x="1488" y="-377.8" font-family="Times,serif" font-size="14.00">graphDepth &lt;= 25.5</text>
<text text-anchor="middle" x="1488" y="-362.8" font-family="Times,serif" font-size="14.00">gini = 0.833</text>
<text text-anchor="middle" x="1488" y="-347.8" font-family="Times,serif" font-size="14.00">samples = 22925</text>
<text text-anchor="middle" x="1488" y="-332.8" font-family="Times,serif" font-size="14.00">value = [3870, 3831, 3920, 3692, 3692, 3920]</text>
<text text-anchor="middle" x="1488" y="-317.8" font-family="Times,serif" font-size="14.00">class = maxmax</text>
</g>
<!-- 0&#45;&gt;88 -->
<g id="edge16" class="edge">
<title>0&#45;&gt;88</title>
<path fill="none" stroke="black" d="M1278.37,-428.91C1307.13,-418.43 1338.21,-407.1 1367.42,-396.45"/>
<polygon fill="black" stroke="black" points="1368.63,-399.73 1376.83,-393.02 1366.23,-393.16 1368.63,-399.73"/>
<text text-anchor="middle" x="1366.27" y="-411.98" font-family="Times,serif" font-size="14.00">False</text>
</g>
<!-- 2 -->
<g id="node3" class="node">
<title>2</title>
<polygon fill="#ffffff" stroke="black" points="581.5,-274 288.5,-274 288.5,-191 581.5,-191 581.5,-274"/>
<text text-anchor="middle" x="435" y="-258.8" font-family="Times,serif" font-size="14.00">sdComm &lt;= 0.065</text>
<text text-anchor="middle" x="435" y="-243.8" font-family="Times,serif" font-size="14.00">gini = 0.829</text>
<text text-anchor="middle" x="435" y="-228.8" font-family="Times,serif" font-size="14.00">samples = 1657</text>
<text text-anchor="middle" x="435" y="-213.8" font-family="Times,serif" font-size="14.00">value = [195, 274, 332, 262, 262, 332]</text>
<text text-anchor="middle" x="435" y="-198.8" font-family="Times,serif" font-size="14.00">class = maxmax</text>
</g>
<!-- 1&#45;&gt;2 -->
<g id="edge2" class="edge">
<title>1&#45;&gt;2</title>
<path fill="none" stroke="black" d="M725.27,-311.22C682.28,-299.7 635.12,-287.08 591.54,-275.41"/>
<polygon fill="black" stroke="black" points="592.28,-271.99 581.71,-272.78 590.47,-278.75 592.28,-271.99"/>
</g>
<!-- 33 -->
<g id="node10" class="node">
<title>33</title>
<polygon fill="#ffffff" stroke="black" points="1018.5,-274 725.5,-274 725.5,-191 1018.5,-191 1018.5,-274"/>
<text text-anchor="middle" x="872" y="-258.8" font-family="Times,serif" font-size="14.00">sdComm &lt;= 0.65</text>
<text text-anchor="middle" x="872" y="-243.8" font-family="Times,serif" font-size="14.00">gini = 0.83</text>
<text text-anchor="middle" x="872" y="-228.8" font-family="Times,serif" font-size="14.00">samples = 1756</text>
<text text-anchor="middle" x="872" y="-213.8" font-family="Times,serif" font-size="14.00">value = [272, 296, 244, 350, 350, 244]</text>
<text text-anchor="middle" x="872" y="-198.8" font-family="Times,serif" font-size="14.00">class = minmax</text>
</g>
<!-- 1&#45;&gt;33 -->
<g id="edge9" class="edge">
<title>1&#45;&gt;33</title>
<path fill="none" stroke="black" d="M872,-309.91C872,-301.65 872,-292.86 872,-284.3"/>
<polygon fill="black" stroke="black" points="875.5,-284.02 872,-274.02 868.5,-284.02 875.5,-284.02"/>
</g>
<!-- 3 -->
<g id="node4" class="node">
<title>3</title>
<polygon fill="#ffffff" stroke="black" points="284,-155 0,-155 0,-72 284,-72 284,-155"/>
<text text-anchor="middle" x="142" y="-139.8" font-family="Times,serif" font-size="14.00">sdComp &lt;= 0.02</text>
<text text-anchor="middle" x="142" y="-124.8" font-family="Times,serif" font-size="14.00">gini = 0.825</text>
<text text-anchor="middle" x="142" y="-109.8" font-family="Times,serif" font-size="14.00">samples = 952</text>
<text text-anchor="middle" x="142" y="-94.8" font-family="Times,serif" font-size="14.00">value = [82, 178, 158, 188, 188, 158]</text>
<text text-anchor="middle" x="142" y="-79.8" font-family="Times,serif" font-size="14.00">class = minmax</text>
</g>
<!-- 2&#45;&gt;3 -->
<g id="edge3" class="edge">
<title>2&#45;&gt;3</title>
<path fill="none" stroke="black" d="M333.35,-190.91C307.44,-180.56 279.46,-169.39 253.1,-158.87"/>
<polygon fill="black" stroke="black" points="254.06,-155.48 243.48,-155.02 251.46,-161.98 254.06,-155.48"/>
</g>
<!-- 22 -->
<g id="node7" class="node">
<title>22</title>
<polygon fill="#ffffff" stroke="black" points="568,-155 302,-155 302,-72 568,-72 568,-155"/>
<text text-anchor="middle" x="435" y="-139.8" font-family="Times,serif" font-size="14.00">nbproc &lt;= 4.5</text>
<text text-anchor="middle" x="435" y="-124.8" font-family="Times,serif" font-size="14.00">gini = 0.812</text>
<text text-anchor="middle" x="435" y="-109.8" font-family="Times,serif" font-size="14.00">samples = 705</text>
<text text-anchor="middle" x="435" y="-94.8" font-family="Times,serif" font-size="14.00">value = [113, 96, 174, 74, 74, 174]</text>
<text text-anchor="middle" x="435" y="-79.8" font-family="Times,serif" font-size="14.00">class = maxmax</text>
</g>
<!-- 2&#45;&gt;22 -->
<g id="edge6" class="edge">
<title>2&#45;&gt;22</title>
<path fill="none" stroke="black" d="M435,-190.91C435,-182.65 435,-173.86 435,-165.3"/>
<polygon fill="black" stroke="black" points="438.5,-165.02 435,-155.02 431.5,-165.02 438.5,-165.02"/>
</g>
<!-- 4 -->
<g id="node5" class="node">
<title>4</title>
<polygon fill="#c0c0c0" stroke="black" points="133,-36 79,-36 79,0 133,0 133,-36"/>
<text text-anchor="middle" x="106" y="-14.3" font-family="Times,serif" font-size="14.00">(...)</text>
</g>
<!-- 3&#45;&gt;4 -->
<g id="edge4" class="edge">
<title>3&#45;&gt;4</title>
<path fill="none" stroke="black" d="M126.31,-71.76C122.96,-63.04 119.49,-54.04 116.39,-45.99"/>
<polygon fill="black" stroke="black" points="119.56,-44.48 112.7,-36.41 113.03,-46.99 119.56,-44.48"/>
</g>
<!-- 11 -->
<g id="node6" class="node">
<title>11</title>
<polygon fill="#c0c0c0" stroke="black" points="205,-36 151,-36 151,0 205,0 205,-36"/>
<text text-anchor="middle" x="178" y="-14.3" font-family="Times,serif" font-size="14.00">(...)</text>
</g>
<!-- 3&#45;&gt;11 -->
<g id="edge5" class="edge">
<title>3&#45;&gt;11</title>
<path fill="none" stroke="black" d="M157.69,-71.76C161.04,-63.04 164.51,-54.04 167.61,-45.99"/>
<polygon fill="black" stroke="black" points="170.97,-46.99 171.3,-36.41 164.44,-44.48 170.97,-46.99"/>
</g>
<!-- 23 -->
<g id="node8" class="node">
<title>23</title>
<polygon fill="#c0c0c0" stroke="black" points="426,-36 372,-36 372,0 426,0 426,-36"/>
<text text-anchor="middle" x="399" y="-14.3" font-family="Times,serif" font-size="14.00">(...)</text>
</g>
<!-- 22&#45;&gt;23 -->
<g id="edge7" class="edge">
<title>22&#45;&gt;23</title>
<path fill="none" stroke="black" d="M419.31,-71.76C415.96,-63.04 412.49,-54.04 409.39,-45.99"/>
<polygon fill="black" stroke="black" points="412.56,-44.48 405.7,-36.41 406.03,-46.99 412.56,-44.48"/>
</g>
<!-- 28 -->
<g id="node9" class="node">
<title>28</title>
<polygon fill="#c0c0c0" stroke="black" points="498,-36 444,-36 444,0 498,0 498,-36"/>
<text text-anchor="middle" x="471" y="-14.3" font-family="Times,serif" font-size="14.00">(...)</text>
</g>
<!-- 22&#45;&gt;28 -->
<g id="edge8" class="edge">
<title>22&#45;&gt;28</title>
<path fill="none" stroke="black" d="M450.69,-71.76C454.04,-63.04 457.51,-54.04 460.61,-45.99"/>
<polygon fill="black" stroke="black" points="463.97,-46.99 464.3,-36.41 457.44,-44.48 463.97,-46.99"/>
</g>
<!-- 34 -->
<g id="node11" class="node">
<title>34</title>
<polygon fill="#ffffff" stroke="black" points="861.5,-155 586.5,-155 586.5,-72 861.5,-72 861.5,-155"/>
<text text-anchor="middle" x="724" y="-139.8" font-family="Times,serif" font-size="14.00">nbproc &lt;= 4.5</text>
<text text-anchor="middle" x="724" y="-124.8" font-family="Times,serif" font-size="14.00">gini = 0.822</text>
<text text-anchor="middle" x="724" y="-109.8" font-family="Times,serif" font-size="14.00">samples = 782</text>
<text text-anchor="middle" x="724" y="-94.8" font-family="Times,serif" font-size="14.00">value = [118, 140, 90, 172, 172, 90]</text>
<text text-anchor="middle" x="724" y="-79.8" font-family="Times,serif" font-size="14.00">class = minmax</text>
</g>
<!-- 33&#45;&gt;34 -->
<g id="edge10" class="edge">
<title>33&#45;&gt;34</title>
<path fill="none" stroke="black" d="M820.65,-190.91C808.6,-181.38 795.66,-171.15 783.29,-161.37"/>
<polygon fill="black" stroke="black" points="785.27,-158.48 775.26,-155.02 780.93,-163.97 785.27,-158.48"/>
</g>
<!-- 57 -->
<g id="node14" class="node">
<title>57</title>
<polygon fill="#ffffff" stroke="black" points="1172.5,-155 879.5,-155 879.5,-72 1172.5,-72 1172.5,-155"/>
<text text-anchor="middle" x="1026" y="-139.8" font-family="Times,serif" font-size="14.00">nbproc &lt;= 4.5</text>
<text text-anchor="middle" x="1026" y="-124.8" font-family="Times,serif" font-size="14.00">gini = 0.833</text>
<text text-anchor="middle" x="1026" y="-109.8" font-family="Times,serif" font-size="14.00">samples = 974</text>
<text text-anchor="middle" x="1026" y="-94.8" font-family="Times,serif" font-size="14.00">value = [154, 156, 154, 178, 178, 154]</text>
<text text-anchor="middle" x="1026" y="-79.8" font-family="Times,serif" font-size="14.00">class = minmax</text>
</g>
<!-- 33&#45;&gt;57 -->
<g id="edge13" class="edge">
<title>33&#45;&gt;57</title>
<path fill="none" stroke="black" d="M925.43,-190.91C938.09,-181.29 951.69,-170.95 964.68,-161.09"/>
<polygon fill="black" stroke="black" points="966.82,-163.86 972.66,-155.02 962.58,-158.28 966.82,-163.86"/>
</g>
<!-- 35 -->
<g id="node12" class="node">
<title>35</title>
<polygon fill="#c0c0c0" stroke="black" points="715,-36 661,-36 661,0 715,0 715,-36"/>
<text text-anchor="middle" x="688" y="-14.3" font-family="Times,serif" font-size="14.00">(...)</text>
</g>
<!-- 34&#45;&gt;35 -->
<g id="edge11" class="edge">
<title>34&#45;&gt;35</title>
<path fill="none" stroke="black" d="M708.31,-71.76C704.96,-63.04 701.49,-54.04 698.39,-45.99"/>
<polygon fill="black" stroke="black" points="701.56,-44.48 694.7,-36.41 695.03,-46.99 701.56,-44.48"/>
</g>
<!-- 46 -->
<g id="node13" class="node">
<title>46</title>
<polygon fill="#c0c0c0" stroke="black" points="787,-36 733,-36 733,0 787,0 787,-36"/>
<text text-anchor="middle" x="760" y="-14.3" font-family="Times,serif" font-size="14.00">(...)</text>
</g>
<!-- 34&#45;&gt;46 -->
<g id="edge12" class="edge">
<title>34&#45;&gt;46</title>
<path fill="none" stroke="black" d="M739.69,-71.76C743.04,-63.04 746.51,-54.04 749.61,-45.99"/>
<polygon fill="black" stroke="black" points="752.97,-46.99 753.3,-36.41 746.44,-44.48 752.97,-46.99"/>
</g>
<!-- 58 -->
<g id="node15" class="node">
<title>58</title>
<polygon fill="#c0c0c0" stroke="black" points="1017,-36 963,-36 963,0 1017,0 1017,-36"/>
<text text-anchor="middle" x="990" y="-14.3" font-family="Times,serif" font-size="14.00">(...)</text>
</g>
<!-- 57&#45;&gt;58 -->
<g id="edge14" class="edge">
<title>57&#45;&gt;58</title>
<path fill="none" stroke="black" d="M1010.31,-71.76C1006.96,-63.04 1003.49,-54.04 1000.39,-45.99"/>
<polygon fill="black" stroke="black" points="1003.56,-44.48 996.7,-36.41 997.03,-46.99 1003.56,-44.48"/>
</g>
<!-- 73 -->
<g id="node16" class="node">
<title>73</title>
<polygon fill="#c0c0c0" stroke="black" points="1089,-36 1035,-36 1035,0 1089,0 1089,-36"/>
<text text-anchor="middle" x="1062" y="-14.3" font-family="Times,serif" font-size="14.00">(...)</text>
</g>
<!-- 57&#45;&gt;73 -->
<g id="edge15" class="edge">
<title>57&#45;&gt;73</title>
<path fill="none" stroke="black" d="M1041.69,-71.76C1045.04,-63.04 1048.51,-54.04 1051.61,-45.99"/>
<polygon fill="black" stroke="black" points="1054.97,-46.99 1055.3,-36.41 1048.44,-44.48 1054.97,-46.99"/>
</g>
<!-- 89 -->
<g id="node18" class="node">
<title>89</title>
<polygon fill="#ffffff" stroke="black" points="1661.5,-274 1314.5,-274 1314.5,-191 1661.5,-191 1661.5,-274"/>
<text text-anchor="middle" x="1488" y="-258.8" font-family="Times,serif" font-size="14.00">sdComp &lt;= 0.02</text>
<text text-anchor="middle" x="1488" y="-243.8" font-family="Times,serif" font-size="14.00">gini = 0.833</text>
<text text-anchor="middle" x="1488" y="-228.8" font-family="Times,serif" font-size="14.00">samples = 21297</text>
<text text-anchor="middle" x="1488" y="-213.8" font-family="Times,serif" font-size="14.00">value = [3606, 3579, 3678, 3378, 3378, 3678]</text>
<text text-anchor="middle" x="1488" y="-198.8" font-family="Times,serif" font-size="14.00">class = maxmax</text>
</g>
<!-- 88&#45;&gt;89 -->
<g id="edge17" class="edge">
<title>88&#45;&gt;89</title>
<path fill="none" stroke="black" d="M1488,-309.91C1488,-301.65 1488,-292.86 1488,-284.3"/>
<polygon fill="black" stroke="black" points="1491.5,-284.02 1488,-274.02 1484.5,-284.02 1491.5,-284.02"/>
</g>
<!-- 678 -->
<g id="node25" class="node">
<title>678</title>
<polygon fill="#ffffff" stroke="black" points="2123.5,-274 1830.5,-274 1830.5,-191 2123.5,-191 2123.5,-274"/>
<text text-anchor="middle" x="1977" y="-258.8" font-family="Times,serif" font-size="14.00">sdComm &lt;= 0.065</text>
<text text-anchor="middle" x="1977" y="-243.8" font-family="Times,serif" font-size="14.00">gini = 0.831</text>
<text text-anchor="middle" x="1977" y="-228.8" font-family="Times,serif" font-size="14.00">samples = 1628</text>
<text text-anchor="middle" x="1977" y="-213.8" font-family="Times,serif" font-size="14.00">value = [264, 252, 242, 314, 314, 242]</text>
<text text-anchor="middle" x="1977" y="-198.8" font-family="Times,serif" font-size="14.00">class = minmax</text>
</g>
<!-- 88&#45;&gt;678 -->
<g id="edge24" class="edge">
<title>88&#45;&gt;678</title>
<path fill="none" stroke="black" d="M1657.31,-309.99C1710.2,-297.34 1768.29,-283.44 1820.27,-271"/>
<polygon fill="black" stroke="black" points="1821.33,-274.35 1830.24,-268.61 1819.7,-267.54 1821.33,-274.35"/>
</g>
<!-- 90 -->
<g id="node19" class="node">
<title>90</title>
<polygon fill="#ffffff" stroke="black" points="1483.5,-155 1190.5,-155 1190.5,-72 1483.5,-72 1483.5,-155"/>
<text text-anchor="middle" x="1337" y="-139.8" font-family="Times,serif" font-size="14.00">graphSize &lt;= 75.0</text>
<text text-anchor="middle" x="1337" y="-124.8" font-family="Times,serif" font-size="14.00">gini = 0.83</text>
<text text-anchor="middle" x="1337" y="-109.8" font-family="Times,serif" font-size="14.00">samples = 1738</text>
<text text-anchor="middle" x="1337" y="-94.8" font-family="Times,serif" font-size="14.00">value = [254, 296, 342, 252, 252, 342]</text>
<text text-anchor="middle" x="1337" y="-79.8" font-family="Times,serif" font-size="14.00">class = maxmax</text>
</g>
<!-- 89&#45;&gt;90 -->
<g id="edge18" class="edge">
<title>89&#45;&gt;90</title>
<path fill="none" stroke="black" d="M1435.61,-190.91C1423.31,-181.38 1410.11,-171.15 1397.49,-161.37"/>
<polygon fill="black" stroke="black" points="1399.34,-158.38 1389.3,-155.02 1395.06,-163.91 1399.34,-158.38"/>
</g>
<!-- 161 -->
<g id="node22" class="node">
<title>161</title>
<polygon fill="#ffffff" stroke="black" points="1848.5,-155 1501.5,-155 1501.5,-72 1848.5,-72 1848.5,-155"/>
<text text-anchor="middle" x="1675" y="-139.8" font-family="Times,serif" font-size="14.00">graphSize &lt;= 75.0</text>
<text text-anchor="middle" x="1675" y="-124.8" font-family="Times,serif" font-size="14.00">gini = 0.833</text>
<text text-anchor="middle" x="1675" y="-109.8" font-family="Times,serif" font-size="14.00">samples = 19559</text>
<text text-anchor="middle" x="1675" y="-94.8" font-family="Times,serif" font-size="14.00">value = [3352, 3283, 3336, 3126, 3126, 3336]</text>
<text text-anchor="middle" x="1675" y="-79.8" font-family="Times,serif" font-size="14.00">class = mean</text>
</g>
<!-- 89&#45;&gt;161 -->
<g id="edge21" class="edge">
<title>89&#45;&gt;161</title>
<path fill="none" stroke="black" d="M1552.88,-190.91C1568.54,-181.11 1585.4,-170.56 1601.43,-160.53"/>
<polygon fill="black" stroke="black" points="1603.61,-163.29 1610.24,-155.02 1599.9,-157.36 1603.61,-163.29"/>
</g>
<!-- 91 -->
<g id="node20" class="node">
<title>91</title>
<polygon fill="#c0c0c0" stroke="black" points="1328,-36 1274,-36 1274,0 1328,0 1328,-36"/>
<text text-anchor="middle" x="1301" y="-14.3" font-family="Times,serif" font-size="14.00">(...)</text>
</g>
<!-- 90&#45;&gt;91 -->
<g id="edge19" class="edge">
<title>90&#45;&gt;91</title>
<path fill="none" stroke="black" d="M1321.31,-71.76C1317.96,-63.04 1314.49,-54.04 1311.39,-45.99"/>
<polygon fill="black" stroke="black" points="1314.56,-44.48 1307.7,-36.41 1308.03,-46.99 1314.56,-44.48"/>
</g>
<!-- 150 -->
<g id="node21" class="node">
<title>150</title>
<polygon fill="#c0c0c0" stroke="black" points="1400,-36 1346,-36 1346,0 1400,0 1400,-36"/>
<text text-anchor="middle" x="1373" y="-14.3" font-family="Times,serif" font-size="14.00">(...)</text>
</g>
<!-- 90&#45;&gt;150 -->
<g id="edge20" class="edge">
<title>90&#45;&gt;150</title>
<path fill="none" stroke="black" d="M1352.69,-71.76C1356.04,-63.04 1359.51,-54.04 1362.61,-45.99"/>
<polygon fill="black" stroke="black" points="1365.97,-46.99 1366.3,-36.41 1359.44,-44.48 1365.97,-46.99"/>
</g>
<!-- 162 -->
<g id="node23" class="node">
<title>162</title>
<polygon fill="#c0c0c0" stroke="black" points="1666,-36 1612,-36 1612,0 1666,0 1666,-36"/>
<text text-anchor="middle" x="1639" y="-14.3" font-family="Times,serif" font-size="14.00">(...)</text>
</g>
<!-- 161&#45;&gt;162 -->
<g id="edge22" class="edge">
<title>161&#45;&gt;162</title>
<path fill="none" stroke="black" d="M1659.31,-71.76C1655.96,-63.04 1652.49,-54.04 1649.39,-45.99"/>
<polygon fill="black" stroke="black" points="1652.56,-44.48 1645.7,-36.41 1646.03,-46.99 1652.56,-44.48"/>
</g>
<!-- 603 -->
<g id="node24" class="node">
<title>603</title>
<polygon fill="#c0c0c0" stroke="black" points="1738,-36 1684,-36 1684,0 1738,0 1738,-36"/>
<text text-anchor="middle" x="1711" y="-14.3" font-family="Times,serif" font-size="14.00">(...)</text>
</g>
<!-- 161&#45;&gt;603 -->
<g id="edge23" class="edge">
<title>161&#45;&gt;603</title>
<path fill="none" stroke="black" d="M1690.69,-71.76C1694.04,-63.04 1697.51,-54.04 1700.61,-45.99"/>
<polygon fill="black" stroke="black" points="1703.97,-46.99 1704.3,-36.41 1697.44,-44.48 1703.97,-46.99"/>
</g>
<!-- 679 -->
<g id="node26" class="node">
<title>679</title>
<polygon fill="#ffffff" stroke="black" points="2087.5,-155 1866.5,-155 1866.5,-72 2087.5,-72 2087.5,-155"/>
<text text-anchor="middle" x="1977" y="-139.8" font-family="Times,serif" font-size="14.00">sdComm &lt;= 0.02</text>
<text text-anchor="middle" x="1977" y="-124.8" font-family="Times,serif" font-size="14.00">gini = 0.72</text>
<text text-anchor="middle" x="1977" y="-109.8" font-family="Times,serif" font-size="14.00">samples = 188</text>
<text text-anchor="middle" x="1977" y="-94.8" font-family="Times,serif" font-size="14.00">value = [36, 20, 2, 64, 64, 2]</text>
<text text-anchor="middle" x="1977" y="-79.8" font-family="Times,serif" font-size="14.00">class = minmax</text>
</g>
<!-- 678&#45;&gt;679 -->
<g id="edge25" class="edge">
<title>678&#45;&gt;679</title>
<path fill="none" stroke="black" d="M1977,-190.91C1977,-182.65 1977,-173.86 1977,-165.3"/>
<polygon fill="black" stroke="black" points="1980.5,-165.02 1977,-155.02 1973.5,-165.02 1980.5,-165.02"/>
</g>
<!-- 700 -->
<g id="node29" class="node">
<title>700</title>
<polygon fill="#ffffff" stroke="black" points="2398.5,-155 2105.5,-155 2105.5,-72 2398.5,-72 2398.5,-155"/>
<text text-anchor="middle" x="2252" y="-139.8" font-family="Times,serif" font-size="14.00">CCR &lt;= 0.55</text>
<text text-anchor="middle" x="2252" y="-124.8" font-family="Times,serif" font-size="14.00">gini = 0.833</text>
<text text-anchor="middle" x="2252" y="-109.8" font-family="Times,serif" font-size="14.00">samples = 1440</text>
<text text-anchor="middle" x="2252" y="-94.8" font-family="Times,serif" font-size="14.00">value = [228, 232, 240, 250, 250, 240]</text>
<text text-anchor="middle" x="2252" y="-79.8" font-family="Times,serif" font-size="14.00">class = minmax</text>
</g>
<!-- 678&#45;&gt;700 -->
<g id="edge28" class="edge">
<title>678&#45;&gt;700</title>
<path fill="none" stroke="black" d="M2072.41,-190.91C2096.62,-180.61 2122.76,-169.49 2147.4,-159"/>
<polygon fill="black" stroke="black" points="2148.93,-162.16 2156.76,-155.02 2146.19,-155.72 2148.93,-162.16"/>
</g>
<!-- 680 -->
<g id="node27" class="node">
<title>680</title>
<polygon fill="#c0c0c0" stroke="black" points="1968,-36 1914,-36 1914,0 1968,0 1968,-36"/>
<text text-anchor="middle" x="1941" y="-14.3" font-family="Times,serif" font-size="14.00">(...)</text>
</g>
<!-- 679&#45;&gt;680 -->
<g id="edge26" class="edge">
<title>679&#45;&gt;680</title>
<path fill="none" stroke="black" d="M1961.31,-71.76C1957.96,-63.04 1954.49,-54.04 1951.39,-45.99"/>
<polygon fill="black" stroke="black" points="1954.56,-44.48 1947.7,-36.41 1948.03,-46.99 1954.56,-44.48"/>
</g>
<!-- 691 -->
<g id="node28" class="node">
<title>691</title>
<polygon fill="#c0c0c0" stroke="black" points="2040,-36 1986,-36 1986,0 2040,0 2040,-36"/>
<text text-anchor="middle" x="2013" y="-14.3" font-family="Times,serif" font-size="14.00">(...)</text>
</g>
<!-- 679&#45;&gt;691 -->
<g id="edge27" class="edge">
<title>679&#45;&gt;691</title>
<path fill="none" stroke="black" d="M1992.69,-71.76C1996.04,-63.04 1999.51,-54.04 2002.61,-45.99"/>
<polygon fill="black" stroke="black" points="2005.97,-46.99 2006.3,-36.41 1999.44,-44.48 2005.97,-46.99"/>
</g>
<!-- 701 -->
<g id="node30" class="node">
<title>701</title>
<polygon fill="#c0c0c0" stroke="black" points="2243,-36 2189,-36 2189,0 2243,0 2243,-36"/>
<text text-anchor="middle" x="2216" y="-14.3" font-family="Times,serif" font-size="14.00">(...)</text>
</g>
<!-- 700&#45;&gt;701 -->
<g id="edge29" class="edge">
<title>700&#45;&gt;701</title>
<path fill="none" stroke="black" d="M2236.31,-71.76C2232.96,-63.04 2229.49,-54.04 2226.39,-45.99"/>
<polygon fill="black" stroke="black" points="2229.56,-44.48 2222.7,-36.41 2223.03,-46.99 2229.56,-44.48"/>
</g>
<!-- 710 -->
<g id="node31" class="node">
<title>710</title>
<polygon fill="#c0c0c0" stroke="black" points="2315,-36 2261,-36 2261,0 2315,0 2315,-36"/>
<text text-anchor="middle" x="2288" y="-14.3" font-family="Times,serif" font-size="14.00">(...)</text>
</g>
<!-- 700&#45;&gt;710 -->
<g id="edge30" class="edge">
<title>700&#45;&gt;710</title>
<path fill="none" stroke="black" d="M2267.69,-71.76C2271.04,-63.04 2274.51,-54.04 2277.61,-45.99"/>
<polygon fill="black" stroke="black" points="2280.97,-46.99 2281.3,-36.41 2274.44,-44.48 2280.97,-46.99"/>
</g>
</g>
</svg>
