<?xml version="1.0" encoding="UTF-8" standalone="no"?>
<!DOCTYPE svg PUBLIC "-//W3C//DTD SVG 1.1//EN"
 "http://www.w3.org/Graphics/SVG/1.1/DTD/svg11.dtd">
<!-- Generated by graphviz version 2.43.0 (0)
 -->
<!-- Title: Tree Pages: 1 -->
<svg width="2364pt" height="520pt"
 viewBox="0.00 0.00 2363.50 520.00" xmlns="http://www.w3.org/2000/svg" xmlns:xlink="http://www.w3.org/1999/xlink">
<g id="graph0" class="graph" transform="scale(1 1) rotate(0) translate(4 516)">
<title>Tree</title>
<polygon fill="white" stroke="transparent" points="-4,4 -4,-516 2359.5,-516 2359.5,4 -4,4"/>
<!-- 0 -->
<g id="node1" class="node">
<title>0</title>
<polygon fill="#fbe1f0" stroke="black" points="1292,-512 945,-512 945,-429 1292,-429 1292,-512"/>
<text text-anchor="middle" x="1118.5" y="-496.8" font-family="Times,serif" font-size="14.00">CCR &lt;= 5.5</text>
<text text-anchor="middle" x="1118.5" y="-481.8" font-family="Times,serif" font-size="14.00">gini = 0.771</text>
<text text-anchor="middle" x="1118.5" y="-466.8" font-family="Times,serif" font-size="14.00">samples = 26338</text>
<text text-anchor="middle" x="1118.5" y="-451.8" font-family="Times,serif" font-size="14.00">value = [5097, 1279, 3672, 1372, 5919, 8999]</text>
<text text-anchor="middle" x="1118.5" y="-436.8" font-family="Times,serif" font-size="14.00">class = GDL</text>
</g>
<!-- 1 -->
<g id="node2" class="node">
<title>1</title>
<polygon fill="#f7c3e1" stroke="black" points="1021.5,-393 701.5,-393 701.5,-310 1021.5,-310 1021.5,-393"/>
<text text-anchor="middle" x="861.5" y="-377.8" font-family="Times,serif" font-size="14.00">graphSize &lt;= 40.0</text>
<text text-anchor="middle" x="861.5" y="-362.8" font-family="Times,serif" font-size="14.00">gini = 0.666</text>
<text text-anchor="middle" x="861.5" y="-347.8" font-family="Times,serif" font-size="14.00">samples = 17452</text>
<text text-anchor="middle" x="861.5" y="-332.8" font-family="Times,serif" font-size="14.00">value = [3787, 383, 104, 636, 4263, 8279]</text>
<text text-anchor="middle" x="861.5" y="-317.8" font-family="Times,serif" font-size="14.00">class = GDL</text>
</g>
<!-- 0&#45;&gt;1 -->
<g id="edge1" class="edge">
<title>0&#45;&gt;1</title>
<path fill="none" stroke="black" d="M1029.34,-428.91C1006.91,-418.7 982.71,-407.68 959.87,-397.28"/>
<polygon fill="black" stroke="black" points="961.06,-393.98 950.51,-393.02 958.16,-400.35 961.06,-393.98"/>
<text text-anchor="middle" x="959.27" y="-412.73" font-family="Times,serif" font-size="14.00">True</text>
</g>
<!-- 480 -->
<g id="node17" class="node">
<title>480</title>
<polygon fill="#cbf8de" stroke="black" points="1590.5,-393 1270.5,-393 1270.5,-310 1590.5,-310 1590.5,-393"/>
<text text-anchor="middle" x="1430.5" y="-377.8" font-family="Times,serif" font-size="14.00">graphSize &lt;= 22.5</text>
<text text-anchor="middle" x="1430.5" y="-362.8" font-family="Times,serif" font-size="14.00">gini = 0.759</text>
<text text-anchor="middle" x="1430.5" y="-347.8" font-family="Times,serif" font-size="14.00">samples = 8886</text>
<text text-anchor="middle" x="1430.5" y="-332.8" font-family="Times,serif" font-size="14.00">value = [1310, 896, 3568, 736, 1656, 720]</text>
<text text-anchor="middle" x="1430.5" y="-317.8" font-family="Times,serif" font-size="14.00">class = OLB</text>
</g>
<!-- 0&#45;&gt;480 -->
<g id="edge16" class="edge">
<title>0&#45;&gt;480</title>
<path fill="none" stroke="black" d="M1226.75,-428.91C1254.58,-418.47 1284.65,-407.19 1312.93,-396.59"/>
<polygon fill="black" stroke="black" points="1314.31,-399.81 1322.44,-393.02 1311.85,-393.25 1314.31,-399.81"/>
<text text-anchor="middle" x="1312.1" y="-412.08" font-family="Times,serif" font-size="14.00">False</text>
</g>
<!-- 2 -->
<g id="node3" class="node">
<title>2</title>
<polygon fill="#f9d2e9" stroke="black" points="626.5,-274 306.5,-274 306.5,-191 626.5,-191 626.5,-274"/>
<text text-anchor="middle" x="466.5" y="-258.8" font-family="Times,serif" font-size="14.00">graphSize &lt;= 22.5</text>
<text text-anchor="middle" x="466.5" y="-243.8" font-family="Times,serif" font-size="14.00">gini = 0.69</text>
<text text-anchor="middle" x="466.5" y="-228.8" font-family="Times,serif" font-size="14.00">samples = 14700</text>
<text text-anchor="middle" x="466.5" y="-213.8" font-family="Times,serif" font-size="14.00">value = [3403, 373, 104, 636, 3861, 6323]</text>
<text text-anchor="middle" x="466.5" y="-198.8" font-family="Times,serif" font-size="14.00">class = GDL</text>
</g>
<!-- 1&#45;&gt;2 -->
<g id="edge2" class="edge">
<title>1&#45;&gt;2</title>
<path fill="none" stroke="black" d="M724.73,-309.99C688.72,-299.32 649.72,-287.77 613.21,-276.96"/>
<polygon fill="black" stroke="black" points="614.06,-273.56 603.48,-274.07 612.08,-280.27 614.06,-273.56"/>
</g>
<!-- 265 -->
<g id="node10" class="node">
<title>265</title>
<polygon fill="#ee7cbe" stroke="black" points="990,-274 733,-274 733,-191 990,-191 990,-274"/>
<text text-anchor="middle" x="861.5" y="-258.8" font-family="Times,serif" font-size="14.00">nbproc &lt;= 4.5</text>
<text text-anchor="middle" x="861.5" y="-243.8" font-family="Times,serif" font-size="14.00">gini = 0.454</text>
<text text-anchor="middle" x="861.5" y="-228.8" font-family="Times,serif" font-size="14.00">samples = 2752</text>
<text text-anchor="middle" x="861.5" y="-213.8" font-family="Times,serif" font-size="14.00">value = [384, 10, 0, 0, 402, 1956]</text>
<text text-anchor="middle" x="861.5" y="-198.8" font-family="Times,serif" font-size="14.00">class = GDL</text>
</g>
<!-- 1&#45;&gt;265 -->
<g id="edge9" class="edge">
<title>1&#45;&gt;265</title>
<path fill="none" stroke="black" d="M861.5,-309.91C861.5,-301.65 861.5,-292.86 861.5,-284.3"/>
<polygon fill="black" stroke="black" points="865,-284.02 861.5,-274.02 858,-284.02 865,-284.02"/>
</g>
<!-- 3 -->
<g id="node4" class="node">
<title>3</title>
<polygon fill="#fadcee" stroke="black" points="311,-155 0,-155 0,-72 311,-72 311,-155"/>
<text text-anchor="middle" x="155.5" y="-139.8" font-family="Times,serif" font-size="14.00">sdComm &lt;= 0.065</text>
<text text-anchor="middle" x="155.5" y="-124.8" font-family="Times,serif" font-size="14.00">gini = 0.704</text>
<text text-anchor="middle" x="155.5" y="-109.8" font-family="Times,serif" font-size="14.00">samples = 11359</text>
<text text-anchor="middle" x="155.5" y="-94.8" font-family="Times,serif" font-size="14.00">value = [2664, 317, 84, 612, 3104, 4578]</text>
<text text-anchor="middle" x="155.5" y="-79.8" font-family="Times,serif" font-size="14.00">class = GDL</text>
</g>
<!-- 2&#45;&gt;3 -->
<g id="edge3" class="edge">
<title>2&#45;&gt;3</title>
<path fill="none" stroke="black" d="M358.6,-190.91C330.86,-180.47 300.88,-169.19 272.69,-158.59"/>
<polygon fill="black" stroke="black" points="273.8,-155.27 263.21,-155.02 271.34,-161.82 273.8,-155.27"/>
</g>
<!-- 134 -->
<g id="node7" class="node">
<title>134</title>
<polygon fill="#f5b3da" stroke="black" points="604,-155 329,-155 329,-72 604,-72 604,-155"/>
<text text-anchor="middle" x="466.5" y="-139.8" font-family="Times,serif" font-size="14.00">nbproc &lt;= 4.5</text>
<text text-anchor="middle" x="466.5" y="-124.8" font-family="Times,serif" font-size="14.00">gini = 0.627</text>
<text text-anchor="middle" x="466.5" y="-109.8" font-family="Times,serif" font-size="14.00">samples = 3341</text>
<text text-anchor="middle" x="466.5" y="-94.8" font-family="Times,serif" font-size="14.00">value = [739, 56, 20, 24, 757, 1745]</text>
<text text-anchor="middle" x="466.5" y="-79.8" font-family="Times,serif" font-size="14.00">class = GDL</text>
</g>
<!-- 2&#45;&gt;134 -->
<g id="edge6" class="edge">
<title>2&#45;&gt;134</title>
<path fill="none" stroke="black" d="M466.5,-190.91C466.5,-182.65 466.5,-173.86 466.5,-165.3"/>
<polygon fill="black" stroke="black" points="470,-165.02 466.5,-155.02 463,-165.02 470,-165.02"/>
</g>
<!-- 4 -->
<g id="node5" class="node">
<title>4</title>
<polygon fill="#c0c0c0" stroke="black" points="146.5,-36 92.5,-36 92.5,0 146.5,0 146.5,-36"/>
<text text-anchor="middle" x="119.5" y="-14.3" font-family="Times,serif" font-size="14.00">(...)</text>
</g>
<!-- 3&#45;&gt;4 -->
<g id="edge4" class="edge">
<title>3&#45;&gt;4</title>
<path fill="none" stroke="black" d="M139.81,-71.76C136.46,-63.04 132.99,-54.04 129.89,-45.99"/>
<polygon fill="black" stroke="black" points="133.06,-44.48 126.2,-36.41 126.53,-46.99 133.06,-44.48"/>
</g>
<!-- 47 -->
<g id="node6" class="node">
<title>47</title>
<polygon fill="#c0c0c0" stroke="black" points="218.5,-36 164.5,-36 164.5,0 218.5,0 218.5,-36"/>
<text text-anchor="middle" x="191.5" y="-14.3" font-family="Times,serif" font-size="14.00">(...)</text>
</g>
<!-- 3&#45;&gt;47 -->
<g id="edge5" class="edge">
<title>3&#45;&gt;47</title>
<path fill="none" stroke="black" d="M171.19,-71.76C174.54,-63.04 178.01,-54.04 181.11,-45.99"/>
<polygon fill="black" stroke="black" points="184.47,-46.99 184.8,-36.41 177.94,-44.48 184.47,-46.99"/>
</g>
<!-- 135 -->
<g id="node8" class="node">
<title>135</title>
<polygon fill="#c0c0c0" stroke="black" points="457.5,-36 403.5,-36 403.5,0 457.5,0 457.5,-36"/>
<text text-anchor="middle" x="430.5" y="-14.3" font-family="Times,serif" font-size="14.00">(...)</text>
</g>
<!-- 134&#45;&gt;135 -->
<g id="edge7" class="edge">
<title>134&#45;&gt;135</title>
<path fill="none" stroke="black" d="M450.81,-71.76C447.46,-63.04 443.99,-54.04 440.89,-45.99"/>
<polygon fill="black" stroke="black" points="444.06,-44.48 437.2,-36.41 437.53,-46.99 444.06,-44.48"/>
</g>
<!-- 198 -->
<g id="node9" class="node">
<title>198</title>
<polygon fill="#c0c0c0" stroke="black" points="529.5,-36 475.5,-36 475.5,0 529.5,0 529.5,-36"/>
<text text-anchor="middle" x="502.5" y="-14.3" font-family="Times,serif" font-size="14.00">(...)</text>
</g>
<!-- 134&#45;&gt;198 -->
<g id="edge8" class="edge">
<title>134&#45;&gt;198</title>
<path fill="none" stroke="black" d="M482.19,-71.76C485.54,-63.04 489.01,-54.04 492.11,-45.99"/>
<polygon fill="black" stroke="black" points="495.47,-46.99 495.8,-36.41 488.94,-44.48 495.47,-46.99"/>
</g>
<!-- 266 -->
<g id="node11" class="node">
<title>266</title>
<polygon fill="#ec6bb6" stroke="black" points="870.5,-155 622.5,-155 622.5,-72 870.5,-72 870.5,-155"/>
<text text-anchor="middle" x="746.5" y="-139.8" font-family="Times,serif" font-size="14.00">graphSize &lt;= 75.0</text>
<text text-anchor="middle" x="746.5" y="-124.8" font-family="Times,serif" font-size="14.00">gini = 0.37</text>
<text text-anchor="middle" x="746.5" y="-109.8" font-family="Times,serif" font-size="14.00">samples = 1508</text>
<text text-anchor="middle" x="746.5" y="-94.8" font-family="Times,serif" font-size="14.00">value = [140, 8, 0, 0, 186, 1174]</text>
<text text-anchor="middle" x="746.5" y="-79.8" font-family="Times,serif" font-size="14.00">class = GDL</text>
</g>
<!-- 265&#45;&gt;266 -->
<g id="edge10" class="edge">
<title>265&#45;&gt;266</title>
<path fill="none" stroke="black" d="M821.6,-190.91C812.5,-181.65 802.75,-171.73 793.39,-162.21"/>
<polygon fill="black" stroke="black" points="795.83,-159.7 786.33,-155.02 790.84,-164.61 795.83,-159.7"/>
</g>
<!-- 379 -->
<g id="node14" class="node">
<title>379</title>
<polygon fill="#f194ca" stroke="black" points="1128,-155 889,-155 889,-72 1128,-72 1128,-155"/>
<text text-anchor="middle" x="1008.5" y="-139.8" font-family="Times,serif" font-size="14.00">sdComm &lt;= 0.65</text>
<text text-anchor="middle" x="1008.5" y="-124.8" font-family="Times,serif" font-size="14.00">gini = 0.536</text>
<text text-anchor="middle" x="1008.5" y="-109.8" font-family="Times,serif" font-size="14.00">samples = 1244</text>
<text text-anchor="middle" x="1008.5" y="-94.8" font-family="Times,serif" font-size="14.00">value = [244, 2, 0, 0, 216, 782]</text>
<text text-anchor="middle" x="1008.5" y="-79.8" font-family="Times,serif" font-size="14.00">class = GDL</text>
</g>
<!-- 265&#45;&gt;379 -->
<g id="edge13" class="edge">
<title>265&#45;&gt;379</title>
<path fill="none" stroke="black" d="M912.5,-190.91C924.47,-181.38 937.33,-171.15 949.61,-161.37"/>
<polygon fill="black" stroke="black" points="951.94,-163.99 957.59,-155.02 947.59,-158.51 951.94,-163.99"/>
</g>
<!-- 267 -->
<g id="node12" class="node">
<title>267</title>
<polygon fill="#c0c0c0" stroke="black" points="737.5,-36 683.5,-36 683.5,0 737.5,0 737.5,-36"/>
<text text-anchor="middle" x="710.5" y="-14.3" font-family="Times,serif" font-size="14.00">(...)</text>
</g>
<!-- 266&#45;&gt;267 -->
<g id="edge11" class="edge">
<title>266&#45;&gt;267</title>
<path fill="none" stroke="black" d="M730.81,-71.76C727.46,-63.04 723.99,-54.04 720.89,-45.99"/>
<polygon fill="black" stroke="black" points="724.06,-44.48 717.2,-36.41 717.53,-46.99 724.06,-44.48"/>
</g>
<!-- 334 -->
<g id="node13" class="node">
<title>334</title>
<polygon fill="#c0c0c0" stroke="black" points="809.5,-36 755.5,-36 755.5,0 809.5,0 809.5,-36"/>
<text text-anchor="middle" x="782.5" y="-14.3" font-family="Times,serif" font-size="14.00">(...)</text>
</g>
<!-- 266&#45;&gt;334 -->
<g id="edge12" class="edge">
<title>266&#45;&gt;334</title>
<path fill="none" stroke="black" d="M762.19,-71.76C765.54,-63.04 769.01,-54.04 772.11,-45.99"/>
<polygon fill="black" stroke="black" points="775.47,-46.99 775.8,-36.41 768.94,-44.48 775.47,-46.99"/>
</g>
<!-- 380 -->
<g id="node15" class="node">
<title>380</title>
<polygon fill="#c0c0c0" stroke="black" points="999.5,-36 945.5,-36 945.5,0 999.5,0 999.5,-36"/>
<text text-anchor="middle" x="972.5" y="-14.3" font-family="Times,serif" font-size="14.00">(...)</text>
</g>
<!-- 379&#45;&gt;380 -->
<g id="edge14" class="edge">
<title>379&#45;&gt;380</title>
<path fill="none" stroke="black" d="M992.81,-71.76C989.46,-63.04 985.99,-54.04 982.89,-45.99"/>
<polygon fill="black" stroke="black" points="986.06,-44.48 979.2,-36.41 979.53,-46.99 986.06,-44.48"/>
</g>
<!-- 475 -->
<g id="node16" class="node">
<title>475</title>
<polygon fill="#c0c0c0" stroke="black" points="1071.5,-36 1017.5,-36 1017.5,0 1071.5,0 1071.5,-36"/>
<text text-anchor="middle" x="1044.5" y="-14.3" font-family="Times,serif" font-size="14.00">(...)</text>
</g>
<!-- 379&#45;&gt;475 -->
<g id="edge15" class="edge">
<title>379&#45;&gt;475</title>
<path fill="none" stroke="black" d="M1024.19,-71.76C1027.54,-63.04 1031.01,-54.04 1034.11,-45.99"/>
<polygon fill="black" stroke="black" points="1037.47,-46.99 1037.8,-36.41 1030.94,-44.48 1037.47,-46.99"/>
</g>
<!-- 481 -->
<g id="node18" class="node">
<title>481</title>
<polygon fill="#ffffff" stroke="black" points="1577,-274 1284,-274 1284,-191 1577,-191 1577,-274"/>
<text text-anchor="middle" x="1430.5" y="-258.8" font-family="Times,serif" font-size="14.00">sdComp &lt;= 2.0</text>
<text text-anchor="middle" x="1430.5" y="-243.8" font-family="Times,serif" font-size="14.00">gini = 0.806</text>
<text text-anchor="middle" x="1430.5" y="-228.8" font-family="Times,serif" font-size="14.00">samples = 2872</text>
<text text-anchor="middle" x="1430.5" y="-213.8" font-family="Times,serif" font-size="14.00">value = [572, 360, 688, 152, 692, 408]</text>
<text text-anchor="middle" x="1430.5" y="-198.8" font-family="Times,serif" font-size="14.00">class = DL</text>
</g>
<!-- 480&#45;&gt;481 -->
<g id="edge17" class="edge">
<title>480&#45;&gt;481</title>
<path fill="none" stroke="black" d="M1430.5,-309.91C1430.5,-301.65 1430.5,-292.86 1430.5,-284.3"/>
<polygon fill="black" stroke="black" points="1434,-284.02 1430.5,-274.02 1427,-284.02 1434,-284.02"/>
</g>
<!-- 538 -->
<g id="node25" class="node">
<title>538</title>
<polygon fill="#b4f5cf" stroke="black" points="2039.5,-274 1737.5,-274 1737.5,-191 2039.5,-191 2039.5,-274"/>
<text text-anchor="middle" x="1888.5" y="-258.8" font-family="Times,serif" font-size="14.00">sdComp &lt;= 2.0</text>
<text text-anchor="middle" x="1888.5" y="-243.8" font-family="Times,serif" font-size="14.00">gini = 0.71</text>
<text text-anchor="middle" x="1888.5" y="-228.8" font-family="Times,serif" font-size="14.00">samples = 6014</text>
<text text-anchor="middle" x="1888.5" y="-213.8" font-family="Times,serif" font-size="14.00">value = [738, 536, 2880, 584, 964, 312]</text>
<text text-anchor="middle" x="1888.5" y="-198.8" font-family="Times,serif" font-size="14.00">class = OLB</text>
</g>
<!-- 480&#45;&gt;538 -->
<g id="edge24" class="edge">
<title>480&#45;&gt;538</title>
<path fill="none" stroke="black" d="M1589.08,-309.99C1633.87,-298.55 1682.64,-286.09 1727.56,-274.61"/>
<polygon fill="black" stroke="black" points="1728.56,-277.97 1737.38,-272.1 1726.83,-271.19 1728.56,-277.97"/>
</g>
<!-- 482 -->
<g id="node19" class="node">
<title>482</title>
<polygon fill="#f1fdf6" stroke="black" points="1430.5,-155 1146.5,-155 1146.5,-72 1430.5,-72 1430.5,-155"/>
<text text-anchor="middle" x="1288.5" y="-139.8" font-family="Times,serif" font-size="14.00">sdComm &lt;= 2.0</text>
<text text-anchor="middle" x="1288.5" y="-124.8" font-family="Times,serif" font-size="14.00">gini = 0.816</text>
<text text-anchor="middle" x="1288.5" y="-109.8" font-family="Times,serif" font-size="14.00">samples = 756</text>
<text text-anchor="middle" x="1288.5" y="-94.8" font-family="Times,serif" font-size="14.00">value = [134, 114, 188, 144, 126, 50]</text>
<text text-anchor="middle" x="1288.5" y="-79.8" font-family="Times,serif" font-size="14.00">class = OLB</text>
</g>
<!-- 481&#45;&gt;482 -->
<g id="edge18" class="edge">
<title>481&#45;&gt;482</title>
<path fill="none" stroke="black" d="M1381.23,-190.91C1369.78,-181.47 1357.49,-171.34 1345.72,-161.65"/>
<polygon fill="black" stroke="black" points="1347.62,-158.68 1337.68,-155.02 1343.17,-164.08 1347.62,-158.68"/>
</g>
<!-- 501 -->
<g id="node22" class="node">
<title>501</title>
<polygon fill="#faf7fe" stroke="black" points="1724,-155 1449,-155 1449,-72 1724,-72 1724,-155"/>
<text text-anchor="middle" x="1586.5" y="-139.8" font-family="Times,serif" font-size="14.00">sdComm &lt;= 6.5</text>
<text text-anchor="middle" x="1586.5" y="-124.8" font-family="Times,serif" font-size="14.00">gini = 0.788</text>
<text text-anchor="middle" x="1586.5" y="-109.8" font-family="Times,serif" font-size="14.00">samples = 2116</text>
<text text-anchor="middle" x="1586.5" y="-94.8" font-family="Times,serif" font-size="14.00">value = [438, 246, 500, 8, 566, 358]</text>
<text text-anchor="middle" x="1586.5" y="-79.8" font-family="Times,serif" font-size="14.00">class = DL</text>
</g>
<!-- 481&#45;&gt;501 -->
<g id="edge21" class="edge">
<title>481&#45;&gt;501</title>
<path fill="none" stroke="black" d="M1484.62,-190.91C1497.45,-181.29 1511.23,-170.95 1524.38,-161.09"/>
<polygon fill="black" stroke="black" points="1526.57,-163.82 1532.47,-155.02 1522.37,-158.22 1526.57,-163.82"/>
</g>
<!-- 483 -->
<g id="node20" class="node">
<title>483</title>
<polygon fill="#c0c0c0" stroke="black" points="1279.5,-36 1225.5,-36 1225.5,0 1279.5,0 1279.5,-36"/>
<text text-anchor="middle" x="1252.5" y="-14.3" font-family="Times,serif" font-size="14.00">(...)</text>
</g>
<!-- 482&#45;&gt;483 -->
<g id="edge19" class="edge">
<title>482&#45;&gt;483</title>
<path fill="none" stroke="black" d="M1272.81,-71.76C1269.46,-63.04 1265.99,-54.04 1262.89,-45.99"/>
<polygon fill="black" stroke="black" points="1266.06,-44.48 1259.2,-36.41 1259.53,-46.99 1266.06,-44.48"/>
</g>
<!-- 490 -->
<g id="node21" class="node">
<title>490</title>
<polygon fill="#c0c0c0" stroke="black" points="1351.5,-36 1297.5,-36 1297.5,0 1351.5,0 1351.5,-36"/>
<text text-anchor="middle" x="1324.5" y="-14.3" font-family="Times,serif" font-size="14.00">(...)</text>
</g>
<!-- 482&#45;&gt;490 -->
<g id="edge20" class="edge">
<title>482&#45;&gt;490</title>
<path fill="none" stroke="black" d="M1304.19,-71.76C1307.54,-63.04 1311.01,-54.04 1314.11,-45.99"/>
<polygon fill="black" stroke="black" points="1317.47,-46.99 1317.8,-36.41 1310.94,-44.48 1317.47,-46.99"/>
</g>
<!-- 502 -->
<g id="node23" class="node">
<title>502</title>
<polygon fill="#c0c0c0" stroke="black" points="1577.5,-36 1523.5,-36 1523.5,0 1577.5,0 1577.5,-36"/>
<text text-anchor="middle" x="1550.5" y="-14.3" font-family="Times,serif" font-size="14.00">(...)</text>
</g>
<!-- 501&#45;&gt;502 -->
<g id="edge22" class="edge">
<title>501&#45;&gt;502</title>
<path fill="none" stroke="black" d="M1570.81,-71.76C1567.46,-63.04 1563.99,-54.04 1560.89,-45.99"/>
<polygon fill="black" stroke="black" points="1564.06,-44.48 1557.2,-36.41 1557.53,-46.99 1564.06,-44.48"/>
</g>
<!-- 527 -->
<g id="node24" class="node">
<title>527</title>
<polygon fill="#c0c0c0" stroke="black" points="1649.5,-36 1595.5,-36 1595.5,0 1649.5,0 1649.5,-36"/>
<text text-anchor="middle" x="1622.5" y="-14.3" font-family="Times,serif" font-size="14.00">(...)</text>
</g>
<!-- 501&#45;&gt;527 -->
<g id="edge23" class="edge">
<title>501&#45;&gt;527</title>
<path fill="none" stroke="black" d="M1602.19,-71.76C1605.54,-63.04 1609.01,-54.04 1612.11,-45.99"/>
<polygon fill="black" stroke="black" points="1615.47,-46.99 1615.8,-36.41 1608.94,-44.48 1615.47,-46.99"/>
</g>
<!-- 539 -->
<g id="node26" class="node">
<title>539</title>
<polygon fill="#b1f5ce" stroke="black" points="2035,-155 1742,-155 1742,-72 2035,-72 2035,-155"/>
<text text-anchor="middle" x="1888.5" y="-139.8" font-family="Times,serif" font-size="14.00">graphDepth &lt;= 25.5</text>
<text text-anchor="middle" x="1888.5" y="-124.8" font-family="Times,serif" font-size="14.00">gini = 0.66</text>
<text text-anchor="middle" x="1888.5" y="-109.8" font-family="Times,serif" font-size="14.00">samples = 2126</text>
<text text-anchor="middle" x="1888.5" y="-94.8" font-family="Times,serif" font-size="14.00">value = [148, 184, 1112, 456, 190, 36]</text>
<text text-anchor="middle" x="1888.5" y="-79.8" font-family="Times,serif" font-size="14.00">class = OLB</text>
</g>
<!-- 538&#45;&gt;539 -->
<g id="edge25" class="edge">
<title>538&#45;&gt;539</title>
<path fill="none" stroke="black" d="M1888.5,-190.91C1888.5,-182.65 1888.5,-173.86 1888.5,-165.3"/>
<polygon fill="black" stroke="black" points="1892,-165.02 1888.5,-155.02 1885,-165.02 1892,-165.02"/>
</g>
<!-- 594 -->
<g id="node29" class="node">
<title>594</title>
<polygon fill="#c0f7d7" stroke="black" points="2355.5,-155 2053.5,-155 2053.5,-72 2355.5,-72 2355.5,-155"/>
<text text-anchor="middle" x="2204.5" y="-139.8" font-family="Times,serif" font-size="14.00">graphDepth &lt;= 9.0</text>
<text text-anchor="middle" x="2204.5" y="-124.8" font-family="Times,serif" font-size="14.00">gini = 0.716</text>
<text text-anchor="middle" x="2204.5" y="-109.8" font-family="Times,serif" font-size="14.00">samples = 3888</text>
<text text-anchor="middle" x="2204.5" y="-94.8" font-family="Times,serif" font-size="14.00">value = [590, 352, 1768, 128, 774, 276]</text>
<text text-anchor="middle" x="2204.5" y="-79.8" font-family="Times,serif" font-size="14.00">class = OLB</text>
</g>
<!-- 538&#45;&gt;594 -->
<g id="edge28" class="edge">
<title>538&#45;&gt;594</title>
<path fill="none" stroke="black" d="M1998.13,-190.91C2026.32,-180.47 2056.78,-169.19 2085.42,-158.59"/>
<polygon fill="black" stroke="black" points="2086.9,-161.78 2095.06,-155.02 2084.47,-155.21 2086.9,-161.78"/>
</g>
<!-- 540 -->
<g id="node27" class="node">
<title>540</title>
<polygon fill="#c0c0c0" stroke="black" points="1879.5,-36 1825.5,-36 1825.5,0 1879.5,0 1879.5,-36"/>
<text text-anchor="middle" x="1852.5" y="-14.3" font-family="Times,serif" font-size="14.00">(...)</text>
</g>
<!-- 539&#45;&gt;540 -->
<g id="edge26" class="edge">
<title>539&#45;&gt;540</title>
<path fill="none" stroke="black" d="M1872.81,-71.76C1869.46,-63.04 1865.99,-54.04 1862.89,-45.99"/>
<polygon fill="black" stroke="black" points="1866.06,-44.48 1859.2,-36.41 1859.53,-46.99 1866.06,-44.48"/>
</g>
<!-- 587 -->
<g id="node28" class="node">
<title>587</title>
<polygon fill="#c0c0c0" stroke="black" points="1951.5,-36 1897.5,-36 1897.5,0 1951.5,0 1951.5,-36"/>
<text text-anchor="middle" x="1924.5" y="-14.3" font-family="Times,serif" font-size="14.00">(...)</text>
</g>
<!-- 539&#45;&gt;587 -->
<g id="edge27" class="edge">
<title>539&#45;&gt;587</title>
<path fill="none" stroke="black" d="M1904.19,-71.76C1907.54,-63.04 1911.01,-54.04 1914.11,-45.99"/>
<polygon fill="black" stroke="black" points="1917.47,-46.99 1917.8,-36.41 1910.94,-44.48 1917.47,-46.99"/>
</g>
<!-- 595 -->
<g id="node30" class="node">
<title>595</title>
<polygon fill="#c0c0c0" stroke="black" points="2195.5,-36 2141.5,-36 2141.5,0 2195.5,0 2195.5,-36"/>
<text text-anchor="middle" x="2168.5" y="-14.3" font-family="Times,serif" font-size="14.00">(...)</text>
</g>
<!-- 594&#45;&gt;595 -->
<g id="edge29" class="edge">
<title>594&#45;&gt;595</title>
<path fill="none" stroke="black" d="M2188.81,-71.76C2185.46,-63.04 2181.99,-54.04 2178.89,-45.99"/>
<polygon fill="black" stroke="black" points="2182.06,-44.48 2175.2,-36.41 2175.53,-46.99 2182.06,-44.48"/>
</g>
<!-- 632 -->
<g id="node31" class="node">
<title>632</title>
<polygon fill="#c0c0c0" stroke="black" points="2267.5,-36 2213.5,-36 2213.5,0 2267.5,0 2267.5,-36"/>
<text text-anchor="middle" x="2240.5" y="-14.3" font-family="Times,serif" font-size="14.00">(...)</text>
</g>
<!-- 594&#45;&gt;632 -->
<g id="edge30" class="edge">
<title>594&#45;&gt;632</title>
<path fill="none" stroke="black" d="M2220.19,-71.76C2223.54,-63.04 2227.01,-54.04 2230.11,-45.99"/>
<polygon fill="black" stroke="black" points="2233.47,-46.99 2233.8,-36.41 2226.94,-44.48 2233.47,-46.99"/>
</g>
</g>
</svg>
