<?xml version="1.0" encoding="UTF-8" standalone="no"?>
<!DOCTYPE svg PUBLIC "-//W3C//DTD SVG 1.1//EN"
 "http://www.w3.org/Graphics/SVG/1.1/DTD/svg11.dtd">
<!-- Generated by graphviz version 2.43.0 (0)
 -->
<!-- Title: Tree Pages: 1 -->
<svg width="1402pt" height="520pt"
 viewBox="0.00 0.00 1401.50 520.00" xmlns="http://www.w3.org/2000/svg" xmlns:xlink="http://www.w3.org/1999/xlink">
<g id="graph0" class="graph" transform="scale(1 1) rotate(0) translate(4 516)">
<title>Tree</title>
<polygon fill="white" stroke="transparent" points="-4,4 -4,-516 1397.5,-516 1397.5,4 -4,4"/>
<!-- 0 -->
<g id="node1" class="node">
<title>0</title>
<polygon fill="#ffffff" stroke="black" points="749.5,-512 564.5,-512 564.5,-429 749.5,-429 749.5,-512"/>
<text text-anchor="middle" x="657" y="-496.8" font-family="Times,serif" font-size="14.00">graphDepth &lt;= 3.5</text>
<text text-anchor="middle" x="657" y="-481.8" font-family="Times,serif" font-size="14.00">gini = 0.5</text>
<text text-anchor="middle" x="657" y="-466.8" font-family="Times,serif" font-size="14.00">samples = 26338</text>
<text text-anchor="middle" x="657" y="-451.8" font-family="Times,serif" font-size="14.00">value = [13161, 13177]</text>
<text text-anchor="middle" x="657" y="-436.8" font-family="Times,serif" font-size="14.00">class = True</text>
</g>
<!-- 1 -->
<g id="node2" class="node">
<title>1</title>
<polygon fill="#fdfeff" stroke="black" points="569.5,-393 402.5,-393 402.5,-310 569.5,-310 569.5,-393"/>
<text text-anchor="middle" x="486" y="-377.8" font-family="Times,serif" font-size="14.00">sdComp &lt;= 0.65</text>
<text text-anchor="middle" x="486" y="-362.8" font-family="Times,serif" font-size="14.00">gini = 0.5</text>
<text text-anchor="middle" x="486" y="-347.8" font-family="Times,serif" font-size="14.00">samples = 3413</text>
<text text-anchor="middle" x="486" y="-332.8" font-family="Times,serif" font-size="14.00">value = [1700, 1713]</text>
<text text-anchor="middle" x="486" y="-317.8" font-family="Times,serif" font-size="14.00">class = True</text>
</g>
<!-- 0&#45;&gt;1 -->
<g id="edge1" class="edge">
<title>0&#45;&gt;1</title>
<path fill="none" stroke="black" d="M597.67,-428.91C583.48,-419.2 568.22,-408.76 553.69,-398.81"/>
<polygon fill="black" stroke="black" points="555.45,-395.78 545.22,-393.02 551.5,-401.56 555.45,-395.78"/>
<text text-anchor="middle" x="549.83" y="-413.89" font-family="Times,serif" font-size="14.00">True</text>
</g>
<!-- 90 -->
<g id="node17" class="node">
<title>90</title>
<polygon fill="#ffffff" stroke="black" points="939.5,-393 754.5,-393 754.5,-310 939.5,-310 939.5,-393"/>
<text text-anchor="middle" x="847" y="-377.8" font-family="Times,serif" font-size="14.00">nbproc &lt;= 4.5</text>
<text text-anchor="middle" x="847" y="-362.8" font-family="Times,serif" font-size="14.00">gini = 0.5</text>
<text text-anchor="middle" x="847" y="-347.8" font-family="Times,serif" font-size="14.00">samples = 22925</text>
<text text-anchor="middle" x="847" y="-332.8" font-family="Times,serif" font-size="14.00">value = [11461, 11464]</text>
<text text-anchor="middle" x="847" y="-317.8" font-family="Times,serif" font-size="14.00">class = True</text>
</g>
<!-- 0&#45;&gt;90 -->
<g id="edge16" class="edge">
<title>0&#45;&gt;90</title>
<path fill="none" stroke="black" d="M722.92,-428.91C738.84,-419.11 755.96,-408.56 772.25,-398.53"/>
<polygon fill="black" stroke="black" points="774.52,-401.24 781.2,-393.02 770.85,-395.28 774.52,-401.24"/>
<text text-anchor="middle" x="775.41" y="-413.64" font-family="Times,serif" font-size="14.00">False</text>
</g>
<!-- 2 -->
<g id="node3" class="node">
<title>2</title>
<polygon fill="#ffffff" stroke="black" points="319.5,-274 170.5,-274 170.5,-191 319.5,-191 319.5,-274"/>
<text text-anchor="middle" x="245" y="-258.8" font-family="Times,serif" font-size="14.00">nbproc &lt;= 4.5</text>
<text text-anchor="middle" x="245" y="-243.8" font-family="Times,serif" font-size="14.00">gini = 0.5</text>
<text text-anchor="middle" x="245" y="-228.8" font-family="Times,serif" font-size="14.00">samples = 1953</text>
<text text-anchor="middle" x="245" y="-213.8" font-family="Times,serif" font-size="14.00">value = [976, 977]</text>
<text text-anchor="middle" x="245" y="-198.8" font-family="Times,serif" font-size="14.00">class = True</text>
</g>
<!-- 1&#45;&gt;2 -->
<g id="edge2" class="edge">
<title>1&#45;&gt;2</title>
<path fill="none" stroke="black" d="M402.39,-309.91C378.52,-298.32 352.51,-285.69 328.64,-274.11"/>
<polygon fill="black" stroke="black" points="330.13,-270.94 319.61,-269.72 327.07,-277.24 330.13,-270.94"/>
</g>
<!-- 55 -->
<g id="node10" class="node">
<title>55</title>
<polygon fill="#fcfdff" stroke="black" points="560.5,-274 411.5,-274 411.5,-191 560.5,-191 560.5,-274"/>
<text text-anchor="middle" x="486" y="-258.8" font-family="Times,serif" font-size="14.00">sdComm &lt;= 0.2</text>
<text text-anchor="middle" x="486" y="-243.8" font-family="Times,serif" font-size="14.00">gini = 0.5</text>
<text text-anchor="middle" x="486" y="-228.8" font-family="Times,serif" font-size="14.00">samples = 1460</text>
<text text-anchor="middle" x="486" y="-213.8" font-family="Times,serif" font-size="14.00">value = [724, 736]</text>
<text text-anchor="middle" x="486" y="-198.8" font-family="Times,serif" font-size="14.00">class = True</text>
</g>
<!-- 1&#45;&gt;55 -->
<g id="edge9" class="edge">
<title>1&#45;&gt;55</title>
<path fill="none" stroke="black" d="M486,-309.91C486,-301.65 486,-292.86 486,-284.3"/>
<polygon fill="black" stroke="black" points="489.5,-284.02 486,-274.02 482.5,-284.02 489.5,-284.02"/>
</g>
<!-- 3 -->
<g id="node4" class="node">
<title>3</title>
<polygon fill="#feffff" stroke="black" points="152,-155 0,-155 0,-72 152,-72 152,-155"/>
<text text-anchor="middle" x="76" y="-139.8" font-family="Times,serif" font-size="14.00">sdComm &lt;= 0.065</text>
<text text-anchor="middle" x="76" y="-124.8" font-family="Times,serif" font-size="14.00">gini = 0.5</text>
<text text-anchor="middle" x="76" y="-109.8" font-family="Times,serif" font-size="14.00">samples = 445</text>
<text text-anchor="middle" x="76" y="-94.8" font-family="Times,serif" font-size="14.00">value = [222, 223]</text>
<text text-anchor="middle" x="76" y="-79.8" font-family="Times,serif" font-size="14.00">class = True</text>
</g>
<!-- 2&#45;&gt;3 -->
<g id="edge3" class="edge">
<title>2&#45;&gt;3</title>
<path fill="none" stroke="black" d="M186.37,-190.91C172.34,-181.2 157.26,-170.76 142.89,-160.81"/>
<polygon fill="black" stroke="black" points="144.74,-157.84 134.53,-155.02 140.76,-163.59 144.74,-157.84"/>
</g>
<!-- 28 -->
<g id="node7" class="node">
<title>28</title>
<polygon fill="#ffffff" stroke="black" points="319.5,-155 170.5,-155 170.5,-72 319.5,-72 319.5,-155"/>
<text text-anchor="middle" x="245" y="-139.8" font-family="Times,serif" font-size="14.00">CCR &lt;= 0.55</text>
<text text-anchor="middle" x="245" y="-124.8" font-family="Times,serif" font-size="14.00">gini = 0.5</text>
<text text-anchor="middle" x="245" y="-109.8" font-family="Times,serif" font-size="14.00">samples = 1508</text>
<text text-anchor="middle" x="245" y="-94.8" font-family="Times,serif" font-size="14.00">value = [754, 754]</text>
<text text-anchor="middle" x="245" y="-79.8" font-family="Times,serif" font-size="14.00">class = False</text>
</g>
<!-- 2&#45;&gt;28 -->
<g id="edge6" class="edge">
<title>2&#45;&gt;28</title>
<path fill="none" stroke="black" d="M245,-190.91C245,-182.65 245,-173.86 245,-165.3"/>
<polygon fill="black" stroke="black" points="248.5,-165.02 245,-155.02 241.5,-165.02 248.5,-165.02"/>
</g>
<!-- 4 -->
<g id="node5" class="node">
<title>4</title>
<polygon fill="#c0c0c0" stroke="black" points="67,-36 13,-36 13,0 67,0 67,-36"/>
<text text-anchor="middle" x="40" y="-14.3" font-family="Times,serif" font-size="14.00">(...)</text>
</g>
<!-- 3&#45;&gt;4 -->
<g id="edge4" class="edge">
<title>3&#45;&gt;4</title>
<path fill="none" stroke="black" d="M60.31,-71.76C56.96,-63.04 53.49,-54.04 50.39,-45.99"/>
<polygon fill="black" stroke="black" points="53.56,-44.48 46.7,-36.41 47.03,-46.99 53.56,-44.48"/>
</g>
<!-- 11 -->
<g id="node6" class="node">
<title>11</title>
<polygon fill="#c0c0c0" stroke="black" points="139,-36 85,-36 85,0 139,0 139,-36"/>
<text text-anchor="middle" x="112" y="-14.3" font-family="Times,serif" font-size="14.00">(...)</text>
</g>
<!-- 3&#45;&gt;11 -->
<g id="edge5" class="edge">
<title>3&#45;&gt;11</title>
<path fill="none" stroke="black" d="M91.69,-71.76C95.04,-63.04 98.51,-54.04 101.61,-45.99"/>
<polygon fill="black" stroke="black" points="104.97,-46.99 105.3,-36.41 98.44,-44.48 104.97,-46.99"/>
</g>
<!-- 29 -->
<g id="node8" class="node">
<title>29</title>
<polygon fill="#c0c0c0" stroke="black" points="242,-36 188,-36 188,0 242,0 242,-36"/>
<text text-anchor="middle" x="215" y="-14.3" font-family="Times,serif" font-size="14.00">(...)</text>
</g>
<!-- 28&#45;&gt;29 -->
<g id="edge7" class="edge">
<title>28&#45;&gt;29</title>
<path fill="none" stroke="black" d="M231.93,-71.76C229.13,-63.04 226.24,-54.04 223.66,-45.99"/>
<polygon fill="black" stroke="black" points="226.97,-44.86 220.58,-36.41 220.31,-47 226.97,-44.86"/>
</g>
<!-- 46 -->
<g id="node9" class="node">
<title>46</title>
<polygon fill="#c0c0c0" stroke="black" points="314,-36 260,-36 260,0 314,0 314,-36"/>
<text text-anchor="middle" x="287" y="-14.3" font-family="Times,serif" font-size="14.00">(...)</text>
</g>
<!-- 28&#45;&gt;46 -->
<g id="edge8" class="edge">
<title>28&#45;&gt;46</title>
<path fill="none" stroke="black" d="M263.3,-71.76C267.26,-62.94 271.35,-53.84 275,-45.72"/>
<polygon fill="black" stroke="black" points="278.28,-46.96 279.18,-36.41 271.89,-44.09 278.28,-46.96"/>
</g>
<!-- 56 -->
<g id="node11" class="node">
<title>56</title>
<polygon fill="#eef6fd" stroke="black" points="486.5,-155 337.5,-155 337.5,-72 486.5,-72 486.5,-155"/>
<text text-anchor="middle" x="412" y="-139.8" font-family="Times,serif" font-size="14.00">nbproc &lt;= 4.5</text>
<text text-anchor="middle" x="412" y="-124.8" font-family="Times,serif" font-size="14.00">gini = 0.499</text>
<text text-anchor="middle" x="412" y="-109.8" font-family="Times,serif" font-size="14.00">samples = 260</text>
<text text-anchor="middle" x="412" y="-94.8" font-family="Times,serif" font-size="14.00">value = [124, 136]</text>
<text text-anchor="middle" x="412" y="-79.8" font-family="Times,serif" font-size="14.00">class = True</text>
</g>
<!-- 55&#45;&gt;56 -->
<g id="edge10" class="edge">
<title>55&#45;&gt;56</title>
<path fill="none" stroke="black" d="M460.33,-190.91C454.76,-182.1 448.81,-172.7 443.06,-163.61"/>
<polygon fill="black" stroke="black" points="445.93,-161.6 437.63,-155.02 440.02,-165.34 445.93,-161.6"/>
</g>
<!-- 59 -->
<g id="node14" class="node">
<title>59</title>
<polygon fill="#ffffff" stroke="black" points="653.5,-155 504.5,-155 504.5,-72 653.5,-72 653.5,-155"/>
<text text-anchor="middle" x="579" y="-139.8" font-family="Times,serif" font-size="14.00">sdComm &lt;= 0.65</text>
<text text-anchor="middle" x="579" y="-124.8" font-family="Times,serif" font-size="14.00">gini = 0.5</text>
<text text-anchor="middle" x="579" y="-109.8" font-family="Times,serif" font-size="14.00">samples = 1200</text>
<text text-anchor="middle" x="579" y="-94.8" font-family="Times,serif" font-size="14.00">value = [600, 600]</text>
<text text-anchor="middle" x="579" y="-79.8" font-family="Times,serif" font-size="14.00">class = False</text>
</g>
<!-- 55&#45;&gt;59 -->
<g id="edge13" class="edge">
<title>55&#45;&gt;59</title>
<path fill="none" stroke="black" d="M518.27,-190.91C525.41,-181.92 533.04,-172.32 540.41,-163.05"/>
<polygon fill="black" stroke="black" points="543.31,-165.03 546.79,-155.02 537.83,-160.67 543.31,-165.03"/>
</g>
<!-- 57 -->
<g id="node12" class="node">
<title>57</title>
<polygon fill="#c0c0c0" stroke="black" points="415,-36 361,-36 361,0 415,0 415,-36"/>
<text text-anchor="middle" x="388" y="-14.3" font-family="Times,serif" font-size="14.00">(...)</text>
</g>
<!-- 56&#45;&gt;57 -->
<g id="edge11" class="edge">
<title>56&#45;&gt;57</title>
<path fill="none" stroke="black" d="M401.54,-71.76C399.33,-63.14 397.05,-54.24 395,-46.26"/>
<polygon fill="black" stroke="black" points="398.34,-45.22 392.47,-36.41 391.56,-46.96 398.34,-45.22"/>
</g>
<!-- 58 -->
<g id="node13" class="node">
<title>58</title>
<polygon fill="#c0c0c0" stroke="black" points="487,-36 433,-36 433,0 487,0 487,-36"/>
<text text-anchor="middle" x="460" y="-14.3" font-family="Times,serif" font-size="14.00">(...)</text>
</g>
<!-- 56&#45;&gt;58 -->
<g id="edge12" class="edge">
<title>56&#45;&gt;58</title>
<path fill="none" stroke="black" d="M432.91,-71.76C437.49,-62.85 442.22,-53.64 446.42,-45.46"/>
<polygon fill="black" stroke="black" points="449.61,-46.9 451.06,-36.41 443.38,-43.7 449.61,-46.9"/>
</g>
<!-- 60 -->
<g id="node15" class="node">
<title>60</title>
<polygon fill="#c0c0c0" stroke="black" points="577,-36 523,-36 523,0 577,0 577,-36"/>
<text text-anchor="middle" x="550" y="-14.3" font-family="Times,serif" font-size="14.00">(...)</text>
</g>
<!-- 59&#45;&gt;60 -->
<g id="edge14" class="edge">
<title>59&#45;&gt;60</title>
<path fill="none" stroke="black" d="M566.36,-71.76C563.66,-63.04 560.87,-54.04 558.37,-45.99"/>
<polygon fill="black" stroke="black" points="561.7,-44.92 555.4,-36.41 555.02,-46.99 561.7,-44.92"/>
</g>
<!-- 63 -->
<g id="node16" class="node">
<title>63</title>
<polygon fill="#c0c0c0" stroke="black" points="649,-36 595,-36 595,0 649,0 649,-36"/>
<text text-anchor="middle" x="622" y="-14.3" font-family="Times,serif" font-size="14.00">(...)</text>
</g>
<!-- 59&#45;&gt;63 -->
<g id="edge15" class="edge">
<title>59&#45;&gt;63</title>
<path fill="none" stroke="black" d="M597.74,-71.76C601.79,-62.94 605.98,-53.84 609.71,-45.72"/>
<polygon fill="black" stroke="black" points="613,-46.95 614,-36.41 606.64,-44.03 613,-46.95"/>
</g>
<!-- 91 -->
<g id="node18" class="node">
<title>91</title>
<polygon fill="#ffffff" stroke="black" points="930.5,-274 763.5,-274 763.5,-191 930.5,-191 930.5,-274"/>
<text text-anchor="middle" x="847" y="-258.8" font-family="Times,serif" font-size="14.00">sdComm &lt;= 0.65</text>
<text text-anchor="middle" x="847" y="-243.8" font-family="Times,serif" font-size="14.00">gini = 0.5</text>
<text text-anchor="middle" x="847" y="-228.8" font-family="Times,serif" font-size="14.00">samples = 9611</text>
<text text-anchor="middle" x="847" y="-213.8" font-family="Times,serif" font-size="14.00">value = [4804, 4807]</text>
<text text-anchor="middle" x="847" y="-198.8" font-family="Times,serif" font-size="14.00">class = True</text>
</g>
<!-- 90&#45;&gt;91 -->
<g id="edge17" class="edge">
<title>90&#45;&gt;91</title>
<path fill="none" stroke="black" d="M847,-309.91C847,-301.65 847,-292.86 847,-284.3"/>
<polygon fill="black" stroke="black" points="850.5,-284.02 847,-274.02 843.5,-284.02 850.5,-284.02"/>
</g>
<!-- 438 -->
<g id="node25" class="node">
<title>438</title>
<polygon fill="#ffffff" stroke="black" points="1208.5,-274 1041.5,-274 1041.5,-191 1208.5,-191 1208.5,-274"/>
<text text-anchor="middle" x="1125" y="-258.8" font-family="Times,serif" font-size="14.00">graphSize &lt;= 22.5</text>
<text text-anchor="middle" x="1125" y="-243.8" font-family="Times,serif" font-size="14.00">gini = 0.5</text>
<text text-anchor="middle" x="1125" y="-228.8" font-family="Times,serif" font-size="14.00">samples = 13314</text>
<text text-anchor="middle" x="1125" y="-213.8" font-family="Times,serif" font-size="14.00">value = [6657, 6657]</text>
<text text-anchor="middle" x="1125" y="-198.8" font-family="Times,serif" font-size="14.00">class = False</text>
</g>
<!-- 90&#45;&gt;438 -->
<g id="edge24" class="edge">
<title>90&#45;&gt;438</title>
<path fill="none" stroke="black" d="M939.57,-311.54C969.22,-299.06 1002.04,-285.25 1031.74,-272.75"/>
<polygon fill="black" stroke="black" points="1033.4,-275.85 1041.26,-268.74 1030.69,-269.4 1033.4,-275.85"/>
</g>
<!-- 92 -->
<g id="node19" class="node">
<title>92</title>
<polygon fill="#ffffff" stroke="black" points="838.5,-155 671.5,-155 671.5,-72 838.5,-72 838.5,-155"/>
<text text-anchor="middle" x="755" y="-139.8" font-family="Times,serif" font-size="14.00">graphDepth &lt;= 6.5</text>
<text text-anchor="middle" x="755" y="-124.8" font-family="Times,serif" font-size="14.00">gini = 0.5</text>
<text text-anchor="middle" x="755" y="-109.8" font-family="Times,serif" font-size="14.00">samples = 4714</text>
<text text-anchor="middle" x="755" y="-94.8" font-family="Times,serif" font-size="14.00">value = [2357, 2357]</text>
<text text-anchor="middle" x="755" y="-79.8" font-family="Times,serif" font-size="14.00">class = False</text>
</g>
<!-- 91&#45;&gt;92 -->
<g id="edge18" class="edge">
<title>91&#45;&gt;92</title>
<path fill="none" stroke="black" d="M815.08,-190.91C808.02,-181.92 800.46,-172.32 793.18,-163.05"/>
<polygon fill="black" stroke="black" points="795.8,-160.72 786.86,-155.02 790.29,-165.05 795.8,-160.72"/>
</g>
<!-- 291 -->
<g id="node22" class="node">
<title>291</title>
<polygon fill="#ffffff" stroke="black" points="1023.5,-155 856.5,-155 856.5,-72 1023.5,-72 1023.5,-155"/>
<text text-anchor="middle" x="940" y="-139.8" font-family="Times,serif" font-size="14.00">CCR &lt;= 5.5</text>
<text text-anchor="middle" x="940" y="-124.8" font-family="Times,serif" font-size="14.00">gini = 0.5</text>
<text text-anchor="middle" x="940" y="-109.8" font-family="Times,serif" font-size="14.00">samples = 4897</text>
<text text-anchor="middle" x="940" y="-94.8" font-family="Times,serif" font-size="14.00">value = [2447, 2450]</text>
<text text-anchor="middle" x="940" y="-79.8" font-family="Times,serif" font-size="14.00">class = True</text>
</g>
<!-- 91&#45;&gt;291 -->
<g id="edge21" class="edge">
<title>91&#45;&gt;291</title>
<path fill="none" stroke="black" d="M879.27,-190.91C886.41,-181.92 894.04,-172.32 901.41,-163.05"/>
<polygon fill="black" stroke="black" points="904.31,-165.03 907.79,-155.02 898.83,-160.67 904.31,-165.03"/>
</g>
<!-- 93 -->
<g id="node20" class="node">
<title>93</title>
<polygon fill="#c0c0c0" stroke="black" points="730,-36 676,-36 676,0 730,0 730,-36"/>
<text text-anchor="middle" x="703" y="-14.3" font-family="Times,serif" font-size="14.00">(...)</text>
</g>
<!-- 92&#45;&gt;93 -->
<g id="edge19" class="edge">
<title>92&#45;&gt;93</title>
<path fill="none" stroke="black" d="M732.34,-71.76C727.33,-62.75 722.15,-53.44 717.57,-45.19"/>
<polygon fill="black" stroke="black" points="720.6,-43.44 712.68,-36.41 714.48,-46.85 720.6,-43.44"/>
</g>
<!-- 146 -->
<g id="node21" class="node">
<title>146</title>
<polygon fill="#c0c0c0" stroke="black" points="802,-36 748,-36 748,0 802,0 802,-36"/>
<text text-anchor="middle" x="775" y="-14.3" font-family="Times,serif" font-size="14.00">(...)</text>
</g>
<!-- 92&#45;&gt;146 -->
<g id="edge20" class="edge">
<title>92&#45;&gt;146</title>
<path fill="none" stroke="black" d="M763.71,-71.76C765.56,-63.14 767.46,-54.24 769.17,-46.26"/>
<polygon fill="black" stroke="black" points="772.61,-46.92 771.28,-36.41 765.76,-45.45 772.61,-46.92"/>
</g>
<!-- 292 -->
<g id="node23" class="node">
<title>292</title>
<polygon fill="#c0c0c0" stroke="black" points="915,-36 861,-36 861,0 915,0 915,-36"/>
<text text-anchor="middle" x="888" y="-14.3" font-family="Times,serif" font-size="14.00">(...)</text>
</g>
<!-- 291&#45;&gt;292 -->
<g id="edge22" class="edge">
<title>291&#45;&gt;292</title>
<path fill="none" stroke="black" d="M917.34,-71.76C912.33,-62.75 907.15,-53.44 902.57,-45.19"/>
<polygon fill="black" stroke="black" points="905.6,-43.44 897.68,-36.41 899.48,-46.85 905.6,-43.44"/>
</g>
<!-- 325 -->
<g id="node24" class="node">
<title>325</title>
<polygon fill="#c0c0c0" stroke="black" points="987,-36 933,-36 933,0 987,0 987,-36"/>
<text text-anchor="middle" x="960" y="-14.3" font-family="Times,serif" font-size="14.00">(...)</text>
</g>
<!-- 291&#45;&gt;325 -->
<g id="edge23" class="edge">
<title>291&#45;&gt;325</title>
<path fill="none" stroke="black" d="M948.71,-71.76C950.56,-63.14 952.46,-54.24 954.17,-46.26"/>
<polygon fill="black" stroke="black" points="957.61,-46.92 956.28,-36.41 950.76,-45.45 957.61,-46.92"/>
</g>
<!-- 439 -->
<g id="node26" class="node">
<title>439</title>
<polygon fill="#ffffff" stroke="black" points="1208.5,-155 1041.5,-155 1041.5,-72 1208.5,-72 1208.5,-155"/>
<text text-anchor="middle" x="1125" y="-139.8" font-family="Times,serif" font-size="14.00">CCR &lt;= 0.55</text>
<text text-anchor="middle" x="1125" y="-124.8" font-family="Times,serif" font-size="14.00">gini = 0.5</text>
<text text-anchor="middle" x="1125" y="-109.8" font-family="Times,serif" font-size="14.00">samples = 6444</text>
<text text-anchor="middle" x="1125" y="-94.8" font-family="Times,serif" font-size="14.00">value = [3222, 3222]</text>
<text text-anchor="middle" x="1125" y="-79.8" font-family="Times,serif" font-size="14.00">class = False</text>
</g>
<!-- 438&#45;&gt;439 -->
<g id="edge25" class="edge">
<title>438&#45;&gt;439</title>
<path fill="none" stroke="black" d="M1125,-190.91C1125,-182.65 1125,-173.86 1125,-165.3"/>
<polygon fill="black" stroke="black" points="1128.5,-165.02 1125,-155.02 1121.5,-165.02 1128.5,-165.02"/>
</g>
<!-- 490 -->
<g id="node29" class="node">
<title>490</title>
<polygon fill="#ffffff" stroke="black" points="1393.5,-155 1226.5,-155 1226.5,-72 1393.5,-72 1393.5,-155"/>
<text text-anchor="middle" x="1310" y="-139.8" font-family="Times,serif" font-size="14.00">sdComm &lt;= 0.02</text>
<text text-anchor="middle" x="1310" y="-124.8" font-family="Times,serif" font-size="14.00">gini = 0.5</text>
<text text-anchor="middle" x="1310" y="-109.8" font-family="Times,serif" font-size="14.00">samples = 6870</text>
<text text-anchor="middle" x="1310" y="-94.8" font-family="Times,serif" font-size="14.00">value = [3435, 3435]</text>
<text text-anchor="middle" x="1310" y="-79.8" font-family="Times,serif" font-size="14.00">class = False</text>
</g>
<!-- 438&#45;&gt;490 -->
<g id="edge28" class="edge">
<title>438&#45;&gt;490</title>
<path fill="none" stroke="black" d="M1189.18,-190.91C1204.68,-181.11 1221.35,-170.56 1237.21,-160.53"/>
<polygon fill="black" stroke="black" points="1239.35,-163.32 1245.93,-155.02 1235.61,-157.41 1239.35,-163.32"/>
</g>
<!-- 440 -->
<g id="node27" class="node">
<title>440</title>
<polygon fill="#c0c0c0" stroke="black" points="1116,-36 1062,-36 1062,0 1116,0 1116,-36"/>
<text text-anchor="middle" x="1089" y="-14.3" font-family="Times,serif" font-size="14.00">(...)</text>
</g>
<!-- 439&#45;&gt;440 -->
<g id="edge26" class="edge">
<title>439&#45;&gt;440</title>
<path fill="none" stroke="black" d="M1109.31,-71.76C1105.96,-63.04 1102.49,-54.04 1099.39,-45.99"/>
<polygon fill="black" stroke="black" points="1102.56,-44.48 1095.7,-36.41 1096.03,-46.99 1102.56,-44.48"/>
</g>
<!-- 457 -->
<g id="node28" class="node">
<title>457</title>
<polygon fill="#c0c0c0" stroke="black" points="1188,-36 1134,-36 1134,0 1188,0 1188,-36"/>
<text text-anchor="middle" x="1161" y="-14.3" font-family="Times,serif" font-size="14.00">(...)</text>
</g>
<!-- 439&#45;&gt;457 -->
<g id="edge27" class="edge">
<title>439&#45;&gt;457</title>
<path fill="none" stroke="black" d="M1140.69,-71.76C1144.04,-63.04 1147.51,-54.04 1150.61,-45.99"/>
<polygon fill="black" stroke="black" points="1153.97,-46.99 1154.3,-36.41 1147.44,-44.48 1153.97,-46.99"/>
</g>
<!-- 491 -->
<g id="node30" class="node">
<title>491</title>
<polygon fill="#c0c0c0" stroke="black" points="1301,-36 1247,-36 1247,0 1301,0 1301,-36"/>
<text text-anchor="middle" x="1274" y="-14.3" font-family="Times,serif" font-size="14.00">(...)</text>
</g>
<!-- 490&#45;&gt;491 -->
<g id="edge29" class="edge">
<title>490&#45;&gt;491</title>
<path fill="none" stroke="black" d="M1294.31,-71.76C1290.96,-63.04 1287.49,-54.04 1284.39,-45.99"/>
<polygon fill="black" stroke="black" points="1287.56,-44.48 1280.7,-36.41 1281.03,-46.99 1287.56,-44.48"/>
</g>
<!-- 524 -->
<g id="node31" class="node">
<title>524</title>
<polygon fill="#c0c0c0" stroke="black" points="1373,-36 1319,-36 1319,0 1373,0 1373,-36"/>
<text text-anchor="middle" x="1346" y="-14.3" font-family="Times,serif" font-size="14.00">(...)</text>
</g>
<!-- 490&#45;&gt;524 -->
<g id="edge30" class="edge">
<title>490&#45;&gt;524</title>
<path fill="none" stroke="black" d="M1325.69,-71.76C1329.04,-63.04 1332.51,-54.04 1335.61,-45.99"/>
<polygon fill="black" stroke="black" points="1338.97,-46.99 1339.3,-36.41 1332.44,-44.48 1338.97,-46.99"/>
</g>
</g>
</svg>
