<?xml version="1.0" encoding="UTF-8" standalone="no"?>
<!DOCTYPE svg PUBLIC "-//W3C//DTD SVG 1.1//EN"
 "http://www.w3.org/Graphics/SVG/1.1/DTD/svg11.dtd">
<!-- Generated by graphviz version 2.43.0 (0)
 -->
<!-- Title: Tree Pages: 1 -->
<svg width="1667pt" height="520pt"
 viewBox="0.00 0.00 1666.50 520.00" xmlns="http://www.w3.org/2000/svg" xmlns:xlink="http://www.w3.org/1999/xlink">
<g id="graph0" class="graph" transform="scale(1 1) rotate(0) translate(4 516)">
<title>Tree</title>
<polygon fill="white" stroke="transparent" points="-4,4 -4,-516 1662.5,-516 1662.5,4 -4,4"/>
<!-- 0 -->
<g id="node1" class="node">
<title>0</title>
<polygon fill="#f9f6fe" stroke="black" points="970.5,-512 740.5,-512 740.5,-429 970.5,-429 970.5,-512"/>
<text text-anchor="middle" x="855.5" y="-496.8" font-family="Times,serif" font-size="14.00">CCR &lt;= 5.5</text>
<text text-anchor="middle" x="855.5" y="-481.8" font-family="Times,serif" font-size="14.00">gini = 0.64</text>
<text text-anchor="middle" x="855.5" y="-466.8" font-family="Times,serif" font-size="14.00">samples = 26338</text>
<text text-anchor="middle" x="855.5" y="-451.8" font-family="Times,serif" font-size="14.00">value = [5327, 10135, 10876]</text>
<text text-anchor="middle" x="855.5" y="-436.8" font-family="Times,serif" font-size="14.00">class = None</text>
</g>
<!-- 1 -->
<g id="node2" class="node">
<title>1</title>
<polygon fill="#b6f5d1" stroke="black" points="756.5,-393 544.5,-393 544.5,-310 756.5,-310 756.5,-393"/>
<text text-anchor="middle" x="650.5" y="-377.8" font-family="Times,serif" font-size="14.00">graphSize &lt;= 22.5</text>
<text text-anchor="middle" x="650.5" y="-362.8" font-family="Times,serif" font-size="14.00">gini = 0.597</text>
<text text-anchor="middle" x="650.5" y="-347.8" font-family="Times,serif" font-size="14.00">samples = 17452</text>
<text text-anchor="middle" x="650.5" y="-332.8" font-family="Times,serif" font-size="14.00">value = [4799, 9451, 3202]</text>
<text text-anchor="middle" x="650.5" y="-317.8" font-family="Times,serif" font-size="14.00">class = DCP</text>
</g>
<!-- 0&#45;&gt;1 -->
<g id="edge1" class="edge">
<title>0&#45;&gt;1</title>
<path fill="none" stroke="black" d="M784.38,-428.91C767.04,-419.02 748.39,-408.37 730.67,-398.25"/>
<polygon fill="black" stroke="black" points="731.92,-394.94 721.5,-393.02 728.45,-401.02 731.92,-394.94"/>
<text text-anchor="middle" x="728.09" y="-413.44" font-family="Times,serif" font-size="14.00">True</text>
</g>
<!-- 498 -->
<g id="node17" class="node">
<title>498</title>
<polygon fill="#9456e9" stroke="black" points="1166.5,-393 972.5,-393 972.5,-310 1166.5,-310 1166.5,-393"/>
<text text-anchor="middle" x="1069.5" y="-377.8" font-family="Times,serif" font-size="14.00">sdComp &lt;= 6.5</text>
<text text-anchor="middle" x="1069.5" y="-362.8" font-family="Times,serif" font-size="14.00">gini = 0.245</text>
<text text-anchor="middle" x="1069.5" y="-347.8" font-family="Times,serif" font-size="14.00">samples = 8886</text>
<text text-anchor="middle" x="1069.5" y="-332.8" font-family="Times,serif" font-size="14.00">value = [528, 684, 7674]</text>
<text text-anchor="middle" x="1069.5" y="-317.8" font-family="Times,serif" font-size="14.00">class = None</text>
</g>
<!-- 0&#45;&gt;498 -->
<g id="edge16" class="edge">
<title>0&#45;&gt;498</title>
<path fill="none" stroke="black" d="M929.75,-428.91C948.09,-418.88 967.85,-408.07 986.58,-397.84"/>
<polygon fill="black" stroke="black" points="988.29,-400.89 995.39,-393.02 984.93,-394.75 988.29,-400.89"/>
<text text-anchor="middle" x="988.35" y="-413.31" font-family="Times,serif" font-size="14.00">False</text>
</g>
<!-- 2 -->
<g id="node3" class="node">
<title>2</title>
<polygon fill="#c6f7da" stroke="black" points="432.5,-274 220.5,-274 220.5,-191 432.5,-191 432.5,-274"/>
<text text-anchor="middle" x="326.5" y="-258.8" font-family="Times,serif" font-size="14.00">sdComm &lt;= 0.02</text>
<text text-anchor="middle" x="326.5" y="-243.8" font-family="Times,serif" font-size="14.00">gini = 0.598</text>
<text text-anchor="middle" x="326.5" y="-228.8" font-family="Times,serif" font-size="14.00">samples = 11359</text>
<text text-anchor="middle" x="326.5" y="-213.8" font-family="Times,serif" font-size="14.00">value = [3705, 5924, 1730]</text>
<text text-anchor="middle" x="326.5" y="-198.8" font-family="Times,serif" font-size="14.00">class = DCP</text>
</g>
<!-- 1&#45;&gt;2 -->
<g id="edge2" class="edge">
<title>1&#45;&gt;2</title>
<path fill="none" stroke="black" d="M544.41,-312.19C511.74,-300.39 475.61,-287.35 442.32,-275.32"/>
<polygon fill="black" stroke="black" points="443.15,-271.9 432.55,-271.8 440.77,-278.48 443.15,-271.9"/>
</g>
<!-- 133 -->
<g id="node10" class="node">
<title>133</title>
<polygon fill="#a7f3c7" stroke="black" points="756.5,-274 544.5,-274 544.5,-191 756.5,-191 756.5,-274"/>
<text text-anchor="middle" x="650.5" y="-258.8" font-family="Times,serif" font-size="14.00">nbproc &lt;= 4.5</text>
<text text-anchor="middle" x="650.5" y="-243.8" font-family="Times,serif" font-size="14.00">gini = 0.574</text>
<text text-anchor="middle" x="650.5" y="-228.8" font-family="Times,serif" font-size="14.00">samples = 6093</text>
<text text-anchor="middle" x="650.5" y="-213.8" font-family="Times,serif" font-size="14.00">value = [1094, 3527, 1472]</text>
<text text-anchor="middle" x="650.5" y="-198.8" font-family="Times,serif" font-size="14.00">class = DCP</text>
</g>
<!-- 1&#45;&gt;133 -->
<g id="edge9" class="edge">
<title>1&#45;&gt;133</title>
<path fill="none" stroke="black" d="M650.5,-309.91C650.5,-301.65 650.5,-292.86 650.5,-284.3"/>
<polygon fill="black" stroke="black" points="654,-284.02 650.5,-274.02 647,-284.02 654,-284.02"/>
</g>
<!-- 3 -->
<g id="node4" class="node">
<title>3</title>
<polygon fill="#fef9f5" stroke="black" points="203,-155 0,-155 0,-72 203,-72 203,-155"/>
<text text-anchor="middle" x="101.5" y="-139.8" font-family="Times,serif" font-size="14.00">graphDepth &lt;= 3.5</text>
<text text-anchor="middle" x="101.5" y="-124.8" font-family="Times,serif" font-size="14.00">gini = 0.574</text>
<text text-anchor="middle" x="101.5" y="-109.8" font-family="Times,serif" font-size="14.00">samples = 2466</text>
<text text-anchor="middle" x="101.5" y="-94.8" font-family="Times,serif" font-size="14.00">value = [1162, 1092, 212]</text>
<text text-anchor="middle" x="101.5" y="-79.8" font-family="Times,serif" font-size="14.00">class = DLS/DC</text>
</g>
<!-- 2&#45;&gt;3 -->
<g id="edge3" class="edge">
<title>2&#45;&gt;3</title>
<path fill="none" stroke="black" d="M248.44,-190.91C229.07,-180.83 208.19,-169.98 188.42,-159.7"/>
<polygon fill="black" stroke="black" points="189.91,-156.53 179.42,-155.02 186.68,-162.74 189.91,-156.53"/>
</g>
<!-- 24 -->
<g id="node7" class="node">
<title>24</title>
<polygon fill="#b8f6d2" stroke="black" points="432.5,-155 220.5,-155 220.5,-72 432.5,-72 432.5,-155"/>
<text text-anchor="middle" x="326.5" y="-139.8" font-family="Times,serif" font-size="14.00">sdComm &lt;= 0.2</text>
<text text-anchor="middle" x="326.5" y="-124.8" font-family="Times,serif" font-size="14.00">gini = 0.594</text>
<text text-anchor="middle" x="326.5" y="-109.8" font-family="Times,serif" font-size="14.00">samples = 8893</text>
<text text-anchor="middle" x="326.5" y="-94.8" font-family="Times,serif" font-size="14.00">value = [2543, 4832, 1518]</text>
<text text-anchor="middle" x="326.5" y="-79.8" font-family="Times,serif" font-size="14.00">class = DCP</text>
</g>
<!-- 2&#45;&gt;24 -->
<g id="edge6" class="edge">
<title>2&#45;&gt;24</title>
<path fill="none" stroke="black" d="M326.5,-190.91C326.5,-182.65 326.5,-173.86 326.5,-165.3"/>
<polygon fill="black" stroke="black" points="330,-165.02 326.5,-155.02 323,-165.02 330,-165.02"/>
</g>
<!-- 4 -->
<g id="node5" class="node">
<title>4</title>
<polygon fill="#c0c0c0" stroke="black" points="92.5,-36 38.5,-36 38.5,0 92.5,0 92.5,-36"/>
<text text-anchor="middle" x="65.5" y="-14.3" font-family="Times,serif" font-size="14.00">(...)</text>
</g>
<!-- 3&#45;&gt;4 -->
<g id="edge4" class="edge">
<title>3&#45;&gt;4</title>
<path fill="none" stroke="black" d="M85.81,-71.76C82.46,-63.04 78.99,-54.04 75.89,-45.99"/>
<polygon fill="black" stroke="black" points="79.06,-44.48 72.2,-36.41 72.53,-46.99 79.06,-44.48"/>
</g>
<!-- 13 -->
<g id="node6" class="node">
<title>13</title>
<polygon fill="#c0c0c0" stroke="black" points="164.5,-36 110.5,-36 110.5,0 164.5,0 164.5,-36"/>
<text text-anchor="middle" x="137.5" y="-14.3" font-family="Times,serif" font-size="14.00">(...)</text>
</g>
<!-- 3&#45;&gt;13 -->
<g id="edge5" class="edge">
<title>3&#45;&gt;13</title>
<path fill="none" stroke="black" d="M117.19,-71.76C120.54,-63.04 124.01,-54.04 127.11,-45.99"/>
<polygon fill="black" stroke="black" points="130.47,-46.99 130.8,-36.41 123.94,-44.48 130.47,-46.99"/>
</g>
<!-- 25 -->
<g id="node8" class="node">
<title>25</title>
<polygon fill="#c0c0c0" stroke="black" points="317.5,-36 263.5,-36 263.5,0 317.5,0 317.5,-36"/>
<text text-anchor="middle" x="290.5" y="-14.3" font-family="Times,serif" font-size="14.00">(...)</text>
</g>
<!-- 24&#45;&gt;25 -->
<g id="edge7" class="edge">
<title>24&#45;&gt;25</title>
<path fill="none" stroke="black" d="M310.81,-71.76C307.46,-63.04 303.99,-54.04 300.89,-45.99"/>
<polygon fill="black" stroke="black" points="304.06,-44.48 297.2,-36.41 297.53,-46.99 304.06,-44.48"/>
</g>
<!-- 94 -->
<g id="node9" class="node">
<title>94</title>
<polygon fill="#c0c0c0" stroke="black" points="389.5,-36 335.5,-36 335.5,0 389.5,0 389.5,-36"/>
<text text-anchor="middle" x="362.5" y="-14.3" font-family="Times,serif" font-size="14.00">(...)</text>
</g>
<!-- 24&#45;&gt;94 -->
<g id="edge8" class="edge">
<title>24&#45;&gt;94</title>
<path fill="none" stroke="black" d="M342.19,-71.76C345.54,-63.04 349.01,-54.04 352.11,-45.99"/>
<polygon fill="black" stroke="black" points="355.47,-46.99 355.8,-36.41 348.94,-44.48 355.47,-46.99"/>
</g>
<!-- 134 -->
<g id="node11" class="node">
<title>134</title>
<polygon fill="#c9f8dc" stroke="black" points="644.5,-155 450.5,-155 450.5,-72 644.5,-72 644.5,-155"/>
<text text-anchor="middle" x="547.5" y="-139.8" font-family="Times,serif" font-size="14.00">sdComp &lt;= 0.65</text>
<text text-anchor="middle" x="547.5" y="-124.8" font-family="Times,serif" font-size="14.00">gini = 0.629</text>
<text text-anchor="middle" x="547.5" y="-109.8" font-family="Times,serif" font-size="14.00">samples = 2453</text>
<text text-anchor="middle" x="547.5" y="-94.8" font-family="Times,serif" font-size="14.00">value = [540, 1195, 718]</text>
<text text-anchor="middle" x="547.5" y="-79.8" font-family="Times,serif" font-size="14.00">class = DCP</text>
</g>
<!-- 133&#45;&gt;134 -->
<g id="edge10" class="edge">
<title>133&#45;&gt;134</title>
<path fill="none" stroke="black" d="M614.76,-190.91C606.78,-181.83 598.23,-172.12 589.99,-162.77"/>
<polygon fill="black" stroke="black" points="592.41,-160.21 583.17,-155.02 587.15,-164.84 592.41,-160.21"/>
</g>
<!-- 325 -->
<g id="node14" class="node">
<title>325</title>
<polygon fill="#93f1ba" stroke="black" points="856.5,-155 662.5,-155 662.5,-72 856.5,-72 856.5,-155"/>
<text text-anchor="middle" x="759.5" y="-139.8" font-family="Times,serif" font-size="14.00">sdComp &lt;= 0.2</text>
<text text-anchor="middle" x="759.5" y="-124.8" font-family="Times,serif" font-size="14.00">gini = 0.523</text>
<text text-anchor="middle" x="759.5" y="-109.8" font-family="Times,serif" font-size="14.00">samples = 3640</text>
<text text-anchor="middle" x="759.5" y="-94.8" font-family="Times,serif" font-size="14.00">value = [554, 2332, 754]</text>
<text text-anchor="middle" x="759.5" y="-79.8" font-family="Times,serif" font-size="14.00">class = DCP</text>
</g>
<!-- 133&#45;&gt;325 -->
<g id="edge13" class="edge">
<title>133&#45;&gt;325</title>
<path fill="none" stroke="black" d="M688.32,-190.91C696.86,-181.74 706,-171.93 714.79,-162.49"/>
<polygon fill="black" stroke="black" points="717.49,-164.72 721.75,-155.02 712.37,-159.95 717.49,-164.72"/>
</g>
<!-- 135 -->
<g id="node12" class="node">
<title>135</title>
<polygon fill="#c0c0c0" stroke="black" points="536.5,-36 482.5,-36 482.5,0 536.5,0 536.5,-36"/>
<text text-anchor="middle" x="509.5" y="-14.3" font-family="Times,serif" font-size="14.00">(...)</text>
</g>
<!-- 134&#45;&gt;135 -->
<g id="edge11" class="edge">
<title>134&#45;&gt;135</title>
<path fill="none" stroke="black" d="M530.94,-71.76C527.36,-62.94 523.66,-53.84 520.36,-45.72"/>
<polygon fill="black" stroke="black" points="523.58,-44.35 516.57,-36.41 517.1,-46.99 523.58,-44.35"/>
</g>
<!-- 298 -->
<g id="node13" class="node">
<title>298</title>
<polygon fill="#c0c0c0" stroke="black" points="608.5,-36 554.5,-36 554.5,0 608.5,0 608.5,-36"/>
<text text-anchor="middle" x="581.5" y="-14.3" font-family="Times,serif" font-size="14.00">(...)</text>
</g>
<!-- 134&#45;&gt;298 -->
<g id="edge12" class="edge">
<title>134&#45;&gt;298</title>
<path fill="none" stroke="black" d="M562.31,-71.76C565.48,-63.04 568.76,-54.04 571.68,-45.99"/>
<polygon fill="black" stroke="black" points="575.04,-47 575.17,-36.41 568.46,-44.61 575.04,-47"/>
</g>
<!-- 326 -->
<g id="node15" class="node">
<title>326</title>
<polygon fill="#c0c0c0" stroke="black" points="745.5,-36 691.5,-36 691.5,0 745.5,0 745.5,-36"/>
<text text-anchor="middle" x="718.5" y="-14.3" font-family="Times,serif" font-size="14.00">(...)</text>
</g>
<!-- 325&#45;&gt;326 -->
<g id="edge14" class="edge">
<title>325&#45;&gt;326</title>
<path fill="none" stroke="black" d="M741.64,-71.76C737.77,-62.94 733.78,-53.84 730.22,-45.72"/>
<polygon fill="black" stroke="black" points="733.35,-44.16 726.13,-36.41 726.94,-46.97 733.35,-44.16"/>
</g>
<!-- 449 -->
<g id="node16" class="node">
<title>449</title>
<polygon fill="#c0c0c0" stroke="black" points="817.5,-36 763.5,-36 763.5,0 817.5,0 817.5,-36"/>
<text text-anchor="middle" x="790.5" y="-14.3" font-family="Times,serif" font-size="14.00">(...)</text>
</g>
<!-- 325&#45;&gt;449 -->
<g id="edge15" class="edge">
<title>325&#45;&gt;449</title>
<path fill="none" stroke="black" d="M773.01,-71.76C775.9,-63.04 778.88,-54.04 781.55,-45.99"/>
<polygon fill="black" stroke="black" points="784.9,-47 784.73,-36.41 778.26,-44.8 784.9,-47"/>
</g>
<!-- 499 -->
<g id="node18" class="node">
<title>499</title>
<polygon fill="#8f50e8" stroke="black" points="1166.5,-274 972.5,-274 972.5,-191 1166.5,-191 1166.5,-274"/>
<text text-anchor="middle" x="1069.5" y="-258.8" font-family="Times,serif" font-size="14.00">graphDepth &lt;= 9.0</text>
<text text-anchor="middle" x="1069.5" y="-243.8" font-family="Times,serif" font-size="14.00">gini = 0.193</text>
<text text-anchor="middle" x="1069.5" y="-228.8" font-family="Times,serif" font-size="14.00">samples = 6486</text>
<text text-anchor="middle" x="1069.5" y="-213.8" font-family="Times,serif" font-size="14.00">value = [196, 488, 5802]</text>
<text text-anchor="middle" x="1069.5" y="-198.8" font-family="Times,serif" font-size="14.00">class = None</text>
</g>
<!-- 498&#45;&gt;499 -->
<g id="edge17" class="edge">
<title>498&#45;&gt;499</title>
<path fill="none" stroke="black" d="M1069.5,-309.91C1069.5,-301.65 1069.5,-292.86 1069.5,-284.3"/>
<polygon fill="black" stroke="black" points="1073,-284.02 1069.5,-274.02 1066,-284.02 1073,-284.02"/>
</g>
<!-- 580 -->
<g id="node25" class="node">
<title>580</title>
<polygon fill="#a16cec" stroke="black" points="1482.5,-274 1288.5,-274 1288.5,-191 1482.5,-191 1482.5,-274"/>
<text text-anchor="middle" x="1385.5" y="-258.8" font-family="Times,serif" font-size="14.00">nbproc &lt;= 4.5</text>
<text text-anchor="middle" x="1385.5" y="-243.8" font-family="Times,serif" font-size="14.00">gini = 0.366</text>
<text text-anchor="middle" x="1385.5" y="-228.8" font-family="Times,serif" font-size="14.00">samples = 2400</text>
<text text-anchor="middle" x="1385.5" y="-213.8" font-family="Times,serif" font-size="14.00">value = [332, 196, 1872]</text>
<text text-anchor="middle" x="1385.5" y="-198.8" font-family="Times,serif" font-size="14.00">class = None</text>
</g>
<!-- 498&#45;&gt;580 -->
<g id="edge24" class="edge">
<title>498&#45;&gt;580</title>
<path fill="none" stroke="black" d="M1166.89,-314.44C1202.35,-301.31 1242.6,-286.41 1278.83,-273"/>
<polygon fill="black" stroke="black" points="1280.27,-276.19 1288.43,-269.44 1277.84,-269.63 1280.27,-276.19"/>
</g>
<!-- 500 -->
<g id="node19" class="node">
<title>500</title>
<polygon fill="#8945e7" stroke="black" points="1059,-155 874,-155 874,-72 1059,-72 1059,-155"/>
<text text-anchor="middle" x="966.5" y="-139.8" font-family="Times,serif" font-size="14.00">graphSize &lt;= 22.5</text>
<text text-anchor="middle" x="966.5" y="-124.8" font-family="Times,serif" font-size="14.00">gini = 0.11</text>
<text text-anchor="middle" x="966.5" y="-109.8" font-family="Times,serif" font-size="14.00">samples = 2924</text>
<text text-anchor="middle" x="966.5" y="-94.8" font-family="Times,serif" font-size="14.00">value = [40, 128, 2756]</text>
<text text-anchor="middle" x="966.5" y="-79.8" font-family="Times,serif" font-size="14.00">class = None</text>
</g>
<!-- 499&#45;&gt;500 -->
<g id="edge18" class="edge">
<title>499&#45;&gt;500</title>
<path fill="none" stroke="black" d="M1033.76,-190.91C1025.78,-181.83 1017.23,-172.12 1008.99,-162.77"/>
<polygon fill="black" stroke="black" points="1011.41,-160.21 1002.17,-155.02 1006.15,-164.84 1011.41,-160.21"/>
</g>
<!-- 527 -->
<g id="node22" class="node">
<title>527</title>
<polygon fill="#9559e9" stroke="black" points="1270.5,-155 1076.5,-155 1076.5,-72 1270.5,-72 1270.5,-155"/>
<text text-anchor="middle" x="1173.5" y="-139.8" font-family="Times,serif" font-size="14.00">graphSize &lt;= 75.0</text>
<text text-anchor="middle" x="1173.5" y="-124.8" font-family="Times,serif" font-size="14.00">gini = 0.257</text>
<text text-anchor="middle" x="1173.5" y="-109.8" font-family="Times,serif" font-size="14.00">samples = 3562</text>
<text text-anchor="middle" x="1173.5" y="-94.8" font-family="Times,serif" font-size="14.00">value = [156, 360, 3046]</text>
<text text-anchor="middle" x="1173.5" y="-79.8" font-family="Times,serif" font-size="14.00">class = None</text>
</g>
<!-- 499&#45;&gt;527 -->
<g id="edge21" class="edge">
<title>499&#45;&gt;527</title>
<path fill="none" stroke="black" d="M1105.58,-190.91C1113.65,-181.83 1122.28,-172.12 1130.59,-162.77"/>
<polygon fill="black" stroke="black" points="1133.45,-164.82 1137.48,-155.02 1128.22,-160.17 1133.45,-164.82"/>
</g>
<!-- 501 -->
<g id="node20" class="node">
<title>501</title>
<polygon fill="#c0c0c0" stroke="black" points="952.5,-36 898.5,-36 898.5,0 952.5,0 952.5,-36"/>
<text text-anchor="middle" x="925.5" y="-14.3" font-family="Times,serif" font-size="14.00">(...)</text>
</g>
<!-- 500&#45;&gt;501 -->
<g id="edge19" class="edge">
<title>500&#45;&gt;501</title>
<path fill="none" stroke="black" d="M948.64,-71.76C944.77,-62.94 940.78,-53.84 937.22,-45.72"/>
<polygon fill="black" stroke="black" points="940.35,-44.16 933.13,-36.41 933.94,-46.97 940.35,-44.16"/>
</g>
<!-- 526 -->
<g id="node21" class="node">
<title>526</title>
<polygon fill="#c0c0c0" stroke="black" points="1024.5,-36 970.5,-36 970.5,0 1024.5,0 1024.5,-36"/>
<text text-anchor="middle" x="997.5" y="-14.3" font-family="Times,serif" font-size="14.00">(...)</text>
</g>
<!-- 500&#45;&gt;526 -->
<g id="edge20" class="edge">
<title>500&#45;&gt;526</title>
<path fill="none" stroke="black" d="M980.01,-71.76C982.9,-63.04 985.88,-54.04 988.55,-45.99"/>
<polygon fill="black" stroke="black" points="991.9,-47 991.73,-36.41 985.26,-44.8 991.9,-47"/>
</g>
<!-- 528 -->
<g id="node23" class="node">
<title>528</title>
<polygon fill="#c0c0c0" stroke="black" points="1162.5,-36 1108.5,-36 1108.5,0 1162.5,0 1162.5,-36"/>
<text text-anchor="middle" x="1135.5" y="-14.3" font-family="Times,serif" font-size="14.00">(...)</text>
</g>
<!-- 527&#45;&gt;528 -->
<g id="edge22" class="edge">
<title>527&#45;&gt;528</title>
<path fill="none" stroke="black" d="M1156.94,-71.76C1153.36,-62.94 1149.66,-53.84 1146.36,-45.72"/>
<polygon fill="black" stroke="black" points="1149.58,-44.35 1142.57,-36.41 1143.1,-46.99 1149.58,-44.35"/>
</g>
<!-- 565 -->
<g id="node24" class="node">
<title>565</title>
<polygon fill="#c0c0c0" stroke="black" points="1234.5,-36 1180.5,-36 1180.5,0 1234.5,0 1234.5,-36"/>
<text text-anchor="middle" x="1207.5" y="-14.3" font-family="Times,serif" font-size="14.00">(...)</text>
</g>
<!-- 527&#45;&gt;565 -->
<g id="edge23" class="edge">
<title>527&#45;&gt;565</title>
<path fill="none" stroke="black" d="M1188.31,-71.76C1191.48,-63.04 1194.76,-54.04 1197.68,-45.99"/>
<polygon fill="black" stroke="black" points="1201.04,-47 1201.17,-36.41 1194.46,-44.61 1201.04,-47"/>
</g>
<!-- 581 -->
<g id="node26" class="node">
<title>581</title>
<polygon fill="#af81ee" stroke="black" points="1482.5,-155 1288.5,-155 1288.5,-72 1482.5,-72 1482.5,-155"/>
<text text-anchor="middle" x="1385.5" y="-139.8" font-family="Times,serif" font-size="14.00">graphSize &lt;= 75.0</text>
<text text-anchor="middle" x="1385.5" y="-124.8" font-family="Times,serif" font-size="14.00">gini = 0.457</text>
<text text-anchor="middle" x="1385.5" y="-109.8" font-family="Times,serif" font-size="14.00">samples = 1758</text>
<text text-anchor="middle" x="1385.5" y="-94.8" font-family="Times,serif" font-size="14.00">value = [332, 188, 1238]</text>
<text text-anchor="middle" x="1385.5" y="-79.8" font-family="Times,serif" font-size="14.00">class = None</text>
</g>
<!-- 580&#45;&gt;581 -->
<g id="edge25" class="edge">
<title>580&#45;&gt;581</title>
<path fill="none" stroke="black" d="M1385.5,-190.91C1385.5,-182.65 1385.5,-173.86 1385.5,-165.3"/>
<polygon fill="black" stroke="black" points="1389,-165.02 1385.5,-155.02 1382,-165.02 1389,-165.02"/>
</g>
<!-- 612 -->
<g id="node29" class="node">
<title>612</title>
<polygon fill="#833be5" stroke="black" points="1658.5,-155 1500.5,-155 1500.5,-72 1658.5,-72 1658.5,-155"/>
<text text-anchor="middle" x="1579.5" y="-139.8" font-family="Times,serif" font-size="14.00">graphDepth &lt;= 3.5</text>
<text text-anchor="middle" x="1579.5" y="-124.8" font-family="Times,serif" font-size="14.00">gini = 0.025</text>
<text text-anchor="middle" x="1579.5" y="-109.8" font-family="Times,serif" font-size="14.00">samples = 642</text>
<text text-anchor="middle" x="1579.5" y="-94.8" font-family="Times,serif" font-size="14.00">value = [0, 8, 634]</text>
<text text-anchor="middle" x="1579.5" y="-79.8" font-family="Times,serif" font-size="14.00">class = None</text>
</g>
<!-- 580&#45;&gt;612 -->
<g id="edge28" class="edge">
<title>580&#45;&gt;612</title>
<path fill="none" stroke="black" d="M1452.81,-190.91C1469.21,-181.02 1486.86,-170.37 1503.63,-160.25"/>
<polygon fill="black" stroke="black" points="1505.56,-163.18 1512.31,-155.02 1501.94,-157.19 1505.56,-163.18"/>
</g>
<!-- 582 -->
<g id="node27" class="node">
<title>582</title>
<polygon fill="#c0c0c0" stroke="black" points="1376.5,-36 1322.5,-36 1322.5,0 1376.5,0 1376.5,-36"/>
<text text-anchor="middle" x="1349.5" y="-14.3" font-family="Times,serif" font-size="14.00">(...)</text>
</g>
<!-- 581&#45;&gt;582 -->
<g id="edge26" class="edge">
<title>581&#45;&gt;582</title>
<path fill="none" stroke="black" d="M1369.81,-71.76C1366.46,-63.04 1362.99,-54.04 1359.89,-45.99"/>
<polygon fill="black" stroke="black" points="1363.06,-44.48 1356.2,-36.41 1356.53,-46.99 1363.06,-44.48"/>
</g>
<!-- 607 -->
<g id="node28" class="node">
<title>607</title>
<polygon fill="#c0c0c0" stroke="black" points="1448.5,-36 1394.5,-36 1394.5,0 1448.5,0 1448.5,-36"/>
<text text-anchor="middle" x="1421.5" y="-14.3" font-family="Times,serif" font-size="14.00">(...)</text>
</g>
<!-- 581&#45;&gt;607 -->
<g id="edge27" class="edge">
<title>581&#45;&gt;607</title>
<path fill="none" stroke="black" d="M1401.19,-71.76C1404.54,-63.04 1408.01,-54.04 1411.11,-45.99"/>
<polygon fill="black" stroke="black" points="1414.47,-46.99 1414.8,-36.41 1407.94,-44.48 1414.47,-46.99"/>
</g>
<!-- 613 -->
<g id="node30" class="node">
<title>613</title>
<polygon fill="#c0c0c0" stroke="black" points="1570.5,-36 1516.5,-36 1516.5,0 1570.5,0 1570.5,-36"/>
<text text-anchor="middle" x="1543.5" y="-14.3" font-family="Times,serif" font-size="14.00">(...)</text>
</g>
<!-- 612&#45;&gt;613 -->
<g id="edge29" class="edge">
<title>612&#45;&gt;613</title>
<path fill="none" stroke="black" d="M1563.81,-71.76C1560.46,-63.04 1556.99,-54.04 1553.89,-45.99"/>
<polygon fill="black" stroke="black" points="1557.06,-44.48 1550.2,-36.41 1550.53,-46.99 1557.06,-44.48"/>
</g>
<!-- 616 -->
<g id="node31" class="node">
<title>616</title>
<polygon fill="#c0c0c0" stroke="black" points="1642.5,-36 1588.5,-36 1588.5,0 1642.5,0 1642.5,-36"/>
<text text-anchor="middle" x="1615.5" y="-14.3" font-family="Times,serif" font-size="14.00">(...)</text>
</g>
<!-- 612&#45;&gt;616 -->
<g id="edge30" class="edge">
<title>612&#45;&gt;616</title>
<path fill="none" stroke="black" d="M1595.19,-71.76C1598.54,-63.04 1602.01,-54.04 1605.11,-45.99"/>
<polygon fill="black" stroke="black" points="1608.47,-46.99 1608.8,-36.41 1601.94,-44.48 1608.47,-46.99"/>
</g>
</g>
</svg>
