<?xml version="1.0" encoding="UTF-8" standalone="no"?>
<!DOCTYPE svg PUBLIC "-//W3C//DTD SVG 1.1//EN"
 "http://www.w3.org/Graphics/SVG/1.1/DTD/svg11.dtd">
<!-- Generated by graphviz version 2.43.0 (0)
 -->
<!-- Title: Tree Pages: 1 -->
<svg width="1387pt" height="520pt"
 viewBox="0.00 0.00 1386.50 520.00" xmlns="http://www.w3.org/2000/svg" xmlns:xlink="http://www.w3.org/1999/xlink">
<g id="graph0" class="graph" transform="scale(1 1) rotate(0) translate(4 516)">
<title>Tree</title>
<polygon fill="white" stroke="transparent" points="-4,4 -4,-516 1382.5,-516 1382.5,4 -4,4"/>
<!-- 0 -->
<g id="node1" class="node">
<title>0</title>
<polygon fill="#b1d8f5" stroke="black" points="768,-512 592,-512 592,-429 768,-429 768,-512"/>
<text text-anchor="middle" x="680" y="-496.8" font-family="Times,serif" font-size="14.00">CCR &lt;= 5.5</text>
<text text-anchor="middle" x="680" y="-481.8" font-family="Times,serif" font-size="14.00">gini = 0.47</text>
<text text-anchor="middle" x="680" y="-466.8" font-family="Times,serif" font-size="14.00">samples = 26338</text>
<text text-anchor="middle" x="680" y="-451.8" font-family="Times,serif" font-size="14.00">value = [9935, 16403]</text>
<text text-anchor="middle" x="680" y="-436.8" font-family="Times,serif" font-size="14.00">class = True</text>
</g>
<!-- 1 -->
<g id="node2" class="node">
<title>1</title>
<polygon fill="#d0e8f9" stroke="black" points="596.5,-393 429.5,-393 429.5,-310 596.5,-310 596.5,-393"/>
<text text-anchor="middle" x="513" y="-377.8" font-family="Times,serif" font-size="14.00">sdComp &lt;= 0.65</text>
<text text-anchor="middle" x="513" y="-362.8" font-family="Times,serif" font-size="14.00">gini = 0.491</text>
<text text-anchor="middle" x="513" y="-347.8" font-family="Times,serif" font-size="14.00">samples = 17452</text>
<text text-anchor="middle" x="513" y="-332.8" font-family="Times,serif" font-size="14.00">value = [7565, 9887]</text>
<text text-anchor="middle" x="513" y="-317.8" font-family="Times,serif" font-size="14.00">class = True</text>
</g>
<!-- 0&#45;&gt;1 -->
<g id="edge1" class="edge">
<title>0&#45;&gt;1</title>
<path fill="none" stroke="black" d="M622.06,-428.91C608.2,-419.2 593.3,-408.76 579.1,-398.81"/>
<polygon fill="black" stroke="black" points="581.04,-395.89 570.84,-393.02 577.02,-401.63 581.04,-395.89"/>
<text text-anchor="middle" x="575.17" y="-413.94" font-family="Times,serif" font-size="14.00">True</text>
</g>
<!-- 492 -->
<g id="node17" class="node">
<title>492</title>
<polygon fill="#81c1ee" stroke="black" points="934.5,-393 767.5,-393 767.5,-310 934.5,-310 934.5,-393"/>
<text text-anchor="middle" x="851" y="-377.8" font-family="Times,serif" font-size="14.00">sdComp &lt;= 2.0</text>
<text text-anchor="middle" x="851" y="-362.8" font-family="Times,serif" font-size="14.00">gini = 0.391</text>
<text text-anchor="middle" x="851" y="-347.8" font-family="Times,serif" font-size="14.00">samples = 8886</text>
<text text-anchor="middle" x="851" y="-332.8" font-family="Times,serif" font-size="14.00">value = [2370, 6516]</text>
<text text-anchor="middle" x="851" y="-317.8" font-family="Times,serif" font-size="14.00">class = True</text>
</g>
<!-- 0&#45;&gt;492 -->
<g id="edge16" class="edge">
<title>0&#45;&gt;492</title>
<path fill="none" stroke="black" d="M739.33,-428.91C753.52,-419.2 768.78,-408.76 783.31,-398.81"/>
<polygon fill="black" stroke="black" points="785.5,-401.56 791.78,-393.02 781.55,-395.78 785.5,-401.56"/>
<text text-anchor="middle" x="787.17" y="-413.89" font-family="Times,serif" font-size="14.00">False</text>
</g>
<!-- 2 -->
<g id="node3" class="node">
<title>2</title>
<polygon fill="#d7ebfa" stroke="black" points="342.5,-274 175.5,-274 175.5,-191 342.5,-191 342.5,-274"/>
<text text-anchor="middle" x="259" y="-258.8" font-family="Times,serif" font-size="14.00">graphDepth &lt;= 3.5</text>
<text text-anchor="middle" x="259" y="-243.8" font-family="Times,serif" font-size="14.00">gini = 0.494</text>
<text text-anchor="middle" x="259" y="-228.8" font-family="Times,serif" font-size="14.00">samples = 15225</text>
<text text-anchor="middle" x="259" y="-213.8" font-family="Times,serif" font-size="14.00">value = [6756, 8469]</text>
<text text-anchor="middle" x="259" y="-198.8" font-family="Times,serif" font-size="14.00">class = True</text>
</g>
<!-- 1&#45;&gt;2 -->
<g id="edge2" class="edge">
<title>1&#45;&gt;2</title>
<path fill="none" stroke="black" d="M429.48,-312.03C404.63,-300.58 377.24,-287.97 351.83,-276.26"/>
<polygon fill="black" stroke="black" points="353.12,-273 342.57,-272 350.19,-279.36 353.12,-273"/>
</g>
<!-- 419 -->
<g id="node10" class="node">
<title>419</title>
<polygon fill="#aad5f4" stroke="black" points="592,-274 434,-274 434,-191 592,-191 592,-274"/>
<text text-anchor="middle" x="513" y="-258.8" font-family="Times,serif" font-size="14.00">graphSize &lt;= 22.5</text>
<text text-anchor="middle" x="513" y="-243.8" font-family="Times,serif" font-size="14.00">gini = 0.463</text>
<text text-anchor="middle" x="513" y="-228.8" font-family="Times,serif" font-size="14.00">samples = 2227</text>
<text text-anchor="middle" x="513" y="-213.8" font-family="Times,serif" font-size="14.00">value = [809, 1418]</text>
<text text-anchor="middle" x="513" y="-198.8" font-family="Times,serif" font-size="14.00">class = True</text>
</g>
<!-- 1&#45;&gt;419 -->
<g id="edge9" class="edge">
<title>1&#45;&gt;419</title>
<path fill="none" stroke="black" d="M513,-309.91C513,-301.65 513,-292.86 513,-284.3"/>
<polygon fill="black" stroke="black" points="516.5,-284.02 513,-274.02 509.5,-284.02 516.5,-284.02"/>
</g>
<!-- 3 -->
<g id="node4" class="node">
<title>3</title>
<polygon fill="#aed7f4" stroke="black" points="158,-155 0,-155 0,-72 158,-72 158,-155"/>
<text text-anchor="middle" x="79" y="-139.8" font-family="Times,serif" font-size="14.00">nbproc &lt;= 4.5</text>
<text text-anchor="middle" x="79" y="-124.8" font-family="Times,serif" font-size="14.00">gini = 0.467</text>
<text text-anchor="middle" x="79" y="-109.8" font-family="Times,serif" font-size="14.00">samples = 1953</text>
<text text-anchor="middle" x="79" y="-94.8" font-family="Times,serif" font-size="14.00">value = [724, 1229]</text>
<text text-anchor="middle" x="79" y="-79.8" font-family="Times,serif" font-size="14.00">class = True</text>
</g>
<!-- 2&#45;&gt;3 -->
<g id="edge3" class="edge">
<title>2&#45;&gt;3</title>
<path fill="none" stroke="black" d="M196.55,-190.91C181.47,-181.11 165.25,-170.56 149.82,-160.53"/>
<polygon fill="black" stroke="black" points="151.63,-157.54 141.34,-155.02 147.82,-163.41 151.63,-157.54"/>
</g>
<!-- 44 -->
<g id="node7" class="node">
<title>44</title>
<polygon fill="#deeffb" stroke="black" points="342.5,-155 175.5,-155 175.5,-72 342.5,-72 342.5,-155"/>
<text text-anchor="middle" x="259" y="-139.8" font-family="Times,serif" font-size="14.00">sdComp &lt;= 0.065</text>
<text text-anchor="middle" x="259" y="-124.8" font-family="Times,serif" font-size="14.00">gini = 0.496</text>
<text text-anchor="middle" x="259" y="-109.8" font-family="Times,serif" font-size="14.00">samples = 13272</text>
<text text-anchor="middle" x="259" y="-94.8" font-family="Times,serif" font-size="14.00">value = [6032, 7240]</text>
<text text-anchor="middle" x="259" y="-79.8" font-family="Times,serif" font-size="14.00">class = True</text>
</g>
<!-- 2&#45;&gt;44 -->
<g id="edge6" class="edge">
<title>2&#45;&gt;44</title>
<path fill="none" stroke="black" d="M259,-190.91C259,-182.65 259,-173.86 259,-165.3"/>
<polygon fill="black" stroke="black" points="262.5,-165.02 259,-155.02 255.5,-165.02 262.5,-165.02"/>
</g>
<!-- 4 -->
<g id="node5" class="node">
<title>4</title>
<polygon fill="#c0c0c0" stroke="black" points="70,-36 16,-36 16,0 70,0 70,-36"/>
<text text-anchor="middle" x="43" y="-14.3" font-family="Times,serif" font-size="14.00">(...)</text>
</g>
<!-- 3&#45;&gt;4 -->
<g id="edge4" class="edge">
<title>3&#45;&gt;4</title>
<path fill="none" stroke="black" d="M63.31,-71.76C59.96,-63.04 56.49,-54.04 53.39,-45.99"/>
<polygon fill="black" stroke="black" points="56.56,-44.48 49.7,-36.41 50.03,-46.99 56.56,-44.48"/>
</g>
<!-- 19 -->
<g id="node6" class="node">
<title>19</title>
<polygon fill="#c0c0c0" stroke="black" points="142,-36 88,-36 88,0 142,0 142,-36"/>
<text text-anchor="middle" x="115" y="-14.3" font-family="Times,serif" font-size="14.00">(...)</text>
</g>
<!-- 3&#45;&gt;19 -->
<g id="edge5" class="edge">
<title>3&#45;&gt;19</title>
<path fill="none" stroke="black" d="M94.69,-71.76C98.04,-63.04 101.51,-54.04 104.61,-45.99"/>
<polygon fill="black" stroke="black" points="107.97,-46.99 108.3,-36.41 101.44,-44.48 107.97,-46.99"/>
</g>
<!-- 45 -->
<g id="node8" class="node">
<title>45</title>
<polygon fill="#c0c0c0" stroke="black" points="244,-36 190,-36 190,0 244,0 244,-36"/>
<text text-anchor="middle" x="217" y="-14.3" font-family="Times,serif" font-size="14.00">(...)</text>
</g>
<!-- 44&#45;&gt;45 -->
<g id="edge7" class="edge">
<title>44&#45;&gt;45</title>
<path fill="none" stroke="black" d="M240.7,-71.76C236.74,-62.94 232.65,-53.84 229,-45.72"/>
<polygon fill="black" stroke="black" points="232.11,-44.09 224.82,-36.41 225.72,-46.96 232.11,-44.09"/>
</g>
<!-- 208 -->
<g id="node9" class="node">
<title>208</title>
<polygon fill="#c0c0c0" stroke="black" points="316,-36 262,-36 262,0 316,0 316,-36"/>
<text text-anchor="middle" x="289" y="-14.3" font-family="Times,serif" font-size="14.00">(...)</text>
</g>
<!-- 44&#45;&gt;208 -->
<g id="edge8" class="edge">
<title>44&#45;&gt;208</title>
<path fill="none" stroke="black" d="M272.07,-71.76C274.87,-63.04 277.76,-54.04 280.34,-45.99"/>
<polygon fill="black" stroke="black" points="283.69,-47 283.42,-36.41 277.03,-44.86 283.69,-47"/>
</g>
<!-- 420 -->
<g id="node11" class="node">
<title>420</title>
<polygon fill="#bfdff7" stroke="black" points="509.5,-155 360.5,-155 360.5,-72 509.5,-72 509.5,-155"/>
<text text-anchor="middle" x="435" y="-139.8" font-family="Times,serif" font-size="14.00">sdComm &lt;= 0.65</text>
<text text-anchor="middle" x="435" y="-124.8" font-family="Times,serif" font-size="14.00">gini = 0.482</text>
<text text-anchor="middle" x="435" y="-109.8" font-family="Times,serif" font-size="14.00">samples = 1550</text>
<text text-anchor="middle" x="435" y="-94.8" font-family="Times,serif" font-size="14.00">value = [626, 924]</text>
<text text-anchor="middle" x="435" y="-79.8" font-family="Times,serif" font-size="14.00">class = True</text>
</g>
<!-- 419&#45;&gt;420 -->
<g id="edge10" class="edge">
<title>419&#45;&gt;420</title>
<path fill="none" stroke="black" d="M485.94,-190.91C480.07,-182.1 473.8,-172.7 467.74,-163.61"/>
<polygon fill="black" stroke="black" points="470.47,-161.4 462.01,-155.02 464.65,-165.28 470.47,-161.4"/>
</g>
<!-- 443 -->
<g id="node14" class="node">
<title>443</title>
<polygon fill="#82c1ef" stroke="black" points="676.5,-155 527.5,-155 527.5,-72 676.5,-72 676.5,-155"/>
<text text-anchor="middle" x="602" y="-139.8" font-family="Times,serif" font-size="14.00">nbproc &lt;= 4.5</text>
<text text-anchor="middle" x="602" y="-124.8" font-family="Times,serif" font-size="14.00">gini = 0.394</text>
<text text-anchor="middle" x="602" y="-109.8" font-family="Times,serif" font-size="14.00">samples = 677</text>
<text text-anchor="middle" x="602" y="-94.8" font-family="Times,serif" font-size="14.00">value = [183, 494]</text>
<text text-anchor="middle" x="602" y="-79.8" font-family="Times,serif" font-size="14.00">class = True</text>
</g>
<!-- 419&#45;&gt;443 -->
<g id="edge13" class="edge">
<title>419&#45;&gt;443</title>
<path fill="none" stroke="black" d="M543.88,-190.91C550.71,-181.92 558.02,-172.32 565.07,-163.05"/>
<polygon fill="black" stroke="black" points="567.91,-165.1 571.18,-155.02 562.34,-160.86 567.91,-165.1"/>
</g>
<!-- 421 -->
<g id="node12" class="node">
<title>421</title>
<polygon fill="#c0c0c0" stroke="black" points="415,-36 361,-36 361,0 415,0 415,-36"/>
<text text-anchor="middle" x="388" y="-14.3" font-family="Times,serif" font-size="14.00">(...)</text>
</g>
<!-- 420&#45;&gt;421 -->
<g id="edge11" class="edge">
<title>420&#45;&gt;421</title>
<path fill="none" stroke="black" d="M414.52,-71.76C410.04,-62.85 405.41,-53.64 401.3,-45.46"/>
<polygon fill="black" stroke="black" points="404.37,-43.77 396.75,-36.41 398.11,-46.91 404.37,-43.77"/>
</g>
<!-- 436 -->
<g id="node13" class="node">
<title>436</title>
<polygon fill="#c0c0c0" stroke="black" points="487,-36 433,-36 433,0 487,0 487,-36"/>
<text text-anchor="middle" x="460" y="-14.3" font-family="Times,serif" font-size="14.00">(...)</text>
</g>
<!-- 420&#45;&gt;436 -->
<g id="edge12" class="edge">
<title>420&#45;&gt;436</title>
<path fill="none" stroke="black" d="M445.89,-71.76C448.2,-63.14 450.58,-54.24 452.71,-46.26"/>
<polygon fill="black" stroke="black" points="456.14,-46.97 455.35,-36.41 449.38,-45.16 456.14,-46.97"/>
</g>
<!-- 444 -->
<g id="node15" class="node">
<title>444</title>
<polygon fill="#c0c0c0" stroke="black" points="570,-36 516,-36 516,0 570,0 570,-36"/>
<text text-anchor="middle" x="543" y="-14.3" font-family="Times,serif" font-size="14.00">(...)</text>
</g>
<!-- 443&#45;&gt;444 -->
<g id="edge14" class="edge">
<title>443&#45;&gt;444</title>
<path fill="none" stroke="black" d="M576.29,-71.76C570.55,-62.65 564.6,-53.24 559.36,-44.92"/>
<polygon fill="black" stroke="black" points="562.28,-42.99 553.98,-36.41 556.36,-46.73 562.28,-42.99"/>
</g>
<!-- 471 -->
<g id="node16" class="node">
<title>471</title>
<polygon fill="#c0c0c0" stroke="black" points="642,-36 588,-36 588,0 642,0 642,-36"/>
<text text-anchor="middle" x="615" y="-14.3" font-family="Times,serif" font-size="14.00">(...)</text>
</g>
<!-- 443&#45;&gt;471 -->
<g id="edge15" class="edge">
<title>443&#45;&gt;471</title>
<path fill="none" stroke="black" d="M607.66,-71.76C608.85,-63.24 610.07,-54.44 611.17,-46.53"/>
<polygon fill="black" stroke="black" points="614.67,-46.79 612.58,-36.41 607.74,-45.83 614.67,-46.79"/>
</g>
<!-- 493 -->
<g id="node18" class="node">
<title>493</title>
<polygon fill="#67b4eb" stroke="black" points="934.5,-274 767.5,-274 767.5,-191 934.5,-191 934.5,-274"/>
<text text-anchor="middle" x="851" y="-258.8" font-family="Times,serif" font-size="14.00">graphDepth &lt;= 25.5</text>
<text text-anchor="middle" x="851" y="-243.8" font-family="Times,serif" font-size="14.00">gini = 0.305</text>
<text text-anchor="middle" x="851" y="-228.8" font-family="Times,serif" font-size="14.00">samples = 2882</text>
<text text-anchor="middle" x="851" y="-213.8" font-family="Times,serif" font-size="14.00">value = [540, 2342]</text>
<text text-anchor="middle" x="851" y="-198.8" font-family="Times,serif" font-size="14.00">class = True</text>
</g>
<!-- 492&#45;&gt;493 -->
<g id="edge17" class="edge">
<title>492&#45;&gt;493</title>
<path fill="none" stroke="black" d="M851,-309.91C851,-301.65 851,-292.86 851,-284.3"/>
<polygon fill="black" stroke="black" points="854.5,-284.02 851,-274.02 847.5,-284.02 854.5,-284.02"/>
</g>
<!-- 546 -->
<g id="node25" class="node">
<title>546</title>
<polygon fill="#90c8f0" stroke="black" points="1198.5,-274 1031.5,-274 1031.5,-191 1198.5,-191 1198.5,-274"/>
<text text-anchor="middle" x="1115" y="-258.8" font-family="Times,serif" font-size="14.00">graphSize &lt;= 22.5</text>
<text text-anchor="middle" x="1115" y="-243.8" font-family="Times,serif" font-size="14.00">gini = 0.424</text>
<text text-anchor="middle" x="1115" y="-228.8" font-family="Times,serif" font-size="14.00">samples = 6004</text>
<text text-anchor="middle" x="1115" y="-213.8" font-family="Times,serif" font-size="14.00">value = [1830, 4174]</text>
<text text-anchor="middle" x="1115" y="-198.8" font-family="Times,serif" font-size="14.00">class = True</text>
</g>
<!-- 492&#45;&gt;546 -->
<g id="edge24" class="edge">
<title>492&#45;&gt;546</title>
<path fill="none" stroke="black" d="M934.53,-313.48C962.34,-301.16 993.48,-287.36 1021.96,-274.73"/>
<polygon fill="black" stroke="black" points="1023.38,-277.93 1031.11,-270.68 1020.55,-271.53 1023.38,-277.93"/>
</g>
<!-- 494 -->
<g id="node19" class="node">
<title>494</title>
<polygon fill="#5cafea" stroke="black" points="852,-155 694,-155 694,-72 852,-72 852,-155"/>
<text text-anchor="middle" x="773" y="-139.8" font-family="Times,serif" font-size="14.00">graphSize &lt;= 40.0</text>
<text text-anchor="middle" x="773" y="-124.8" font-family="Times,serif" font-size="14.00">gini = 0.258</text>
<text text-anchor="middle" x="773" y="-109.8" font-family="Times,serif" font-size="14.00">samples = 2424</text>
<text text-anchor="middle" x="773" y="-94.8" font-family="Times,serif" font-size="14.00">value = [368, 2056]</text>
<text text-anchor="middle" x="773" y="-79.8" font-family="Times,serif" font-size="14.00">class = True</text>
</g>
<!-- 493&#45;&gt;494 -->
<g id="edge18" class="edge">
<title>493&#45;&gt;494</title>
<path fill="none" stroke="black" d="M823.94,-190.91C818.07,-182.1 811.8,-172.7 805.74,-163.61"/>
<polygon fill="black" stroke="black" points="808.47,-161.4 800.01,-155.02 802.65,-165.28 808.47,-161.4"/>
</g>
<!-- 539 -->
<g id="node22" class="node">
<title>539</title>
<polygon fill="#b0d8f5" stroke="black" points="1018.5,-155 869.5,-155 869.5,-72 1018.5,-72 1018.5,-155"/>
<text text-anchor="middle" x="944" y="-139.8" font-family="Times,serif" font-size="14.00">nbproc &lt;= 4.5</text>
<text text-anchor="middle" x="944" y="-124.8" font-family="Times,serif" font-size="14.00">gini = 0.469</text>
<text text-anchor="middle" x="944" y="-109.8" font-family="Times,serif" font-size="14.00">samples = 458</text>
<text text-anchor="middle" x="944" y="-94.8" font-family="Times,serif" font-size="14.00">value = [172, 286]</text>
<text text-anchor="middle" x="944" y="-79.8" font-family="Times,serif" font-size="14.00">class = True</text>
</g>
<!-- 493&#45;&gt;539 -->
<g id="edge21" class="edge">
<title>493&#45;&gt;539</title>
<path fill="none" stroke="black" d="M883.27,-190.91C890.41,-181.92 898.04,-172.32 905.41,-163.05"/>
<polygon fill="black" stroke="black" points="908.31,-165.03 911.79,-155.02 902.83,-160.67 908.31,-165.03"/>
</g>
<!-- 495 -->
<g id="node20" class="node">
<title>495</title>
<polygon fill="#c0c0c0" stroke="black" points="741,-36 687,-36 687,0 741,0 741,-36"/>
<text text-anchor="middle" x="714" y="-14.3" font-family="Times,serif" font-size="14.00">(...)</text>
</g>
<!-- 494&#45;&gt;495 -->
<g id="edge19" class="edge">
<title>494&#45;&gt;495</title>
<path fill="none" stroke="black" d="M747.29,-71.76C741.55,-62.65 735.6,-53.24 730.36,-44.92"/>
<polygon fill="black" stroke="black" points="733.28,-42.99 724.98,-36.41 727.36,-46.73 733.28,-42.99"/>
</g>
<!-- 524 -->
<g id="node21" class="node">
<title>524</title>
<polygon fill="#c0c0c0" stroke="black" points="813,-36 759,-36 759,0 813,0 813,-36"/>
<text text-anchor="middle" x="786" y="-14.3" font-family="Times,serif" font-size="14.00">(...)</text>
</g>
<!-- 494&#45;&gt;524 -->
<g id="edge20" class="edge">
<title>494&#45;&gt;524</title>
<path fill="none" stroke="black" d="M778.66,-71.76C779.85,-63.24 781.07,-54.44 782.17,-46.53"/>
<polygon fill="black" stroke="black" points="785.67,-46.79 783.58,-36.41 778.74,-45.83 785.67,-46.79"/>
</g>
<!-- 540 -->
<g id="node23" class="node">
<title>540</title>
<polygon fill="#c0c0c0" stroke="black" points="912,-36 858,-36 858,0 912,0 912,-36"/>
<text text-anchor="middle" x="885" y="-14.3" font-family="Times,serif" font-size="14.00">(...)</text>
</g>
<!-- 539&#45;&gt;540 -->
<g id="edge22" class="edge">
<title>539&#45;&gt;540</title>
<path fill="none" stroke="black" d="M918.29,-71.76C912.55,-62.65 906.6,-53.24 901.36,-44.92"/>
<polygon fill="black" stroke="black" points="904.28,-42.99 895.98,-36.41 898.36,-46.73 904.28,-42.99"/>
</g>
<!-- 543 -->
<g id="node24" class="node">
<title>543</title>
<polygon fill="#c0c0c0" stroke="black" points="984,-36 930,-36 930,0 984,0 984,-36"/>
<text text-anchor="middle" x="957" y="-14.3" font-family="Times,serif" font-size="14.00">(...)</text>
</g>
<!-- 539&#45;&gt;543 -->
<g id="edge23" class="edge">
<title>539&#45;&gt;543</title>
<path fill="none" stroke="black" d="M949.66,-71.76C950.85,-63.24 952.07,-54.44 953.17,-46.53"/>
<polygon fill="black" stroke="black" points="956.67,-46.79 954.58,-36.41 949.74,-45.83 956.67,-46.79"/>
</g>
<!-- 547 -->
<g id="node26" class="node">
<title>547</title>
<polygon fill="#b5daf5" stroke="black" points="1194,-155 1036,-155 1036,-72 1194,-72 1194,-155"/>
<text text-anchor="middle" x="1115" y="-139.8" font-family="Times,serif" font-size="14.00">graphDepth &lt;= 3.5</text>
<text text-anchor="middle" x="1115" y="-124.8" font-family="Times,serif" font-size="14.00">gini = 0.473</text>
<text text-anchor="middle" x="1115" y="-109.8" font-family="Times,serif" font-size="14.00">samples = 2116</text>
<text text-anchor="middle" x="1115" y="-94.8" font-family="Times,serif" font-size="14.00">value = [814, 1302]</text>
<text text-anchor="middle" x="1115" y="-79.8" font-family="Times,serif" font-size="14.00">class = True</text>
</g>
<!-- 546&#45;&gt;547 -->
<g id="edge25" class="edge">
<title>546&#45;&gt;547</title>
<path fill="none" stroke="black" d="M1115,-190.91C1115,-182.65 1115,-173.86 1115,-165.3"/>
<polygon fill="black" stroke="black" points="1118.5,-165.02 1115,-155.02 1111.5,-165.02 1118.5,-165.02"/>
</g>
<!-- 578 -->
<g id="node29" class="node">
<title>578</title>
<polygon fill="#7fc0ee" stroke="black" points="1378.5,-155 1211.5,-155 1211.5,-72 1378.5,-72 1378.5,-155"/>
<text text-anchor="middle" x="1295" y="-139.8" font-family="Times,serif" font-size="14.00">graphDepth &lt;= 9.0</text>
<text text-anchor="middle" x="1295" y="-124.8" font-family="Times,serif" font-size="14.00">gini = 0.386</text>
<text text-anchor="middle" x="1295" y="-109.8" font-family="Times,serif" font-size="14.00">samples = 3888</text>
<text text-anchor="middle" x="1295" y="-94.8" font-family="Times,serif" font-size="14.00">value = [1016, 2872]</text>
<text text-anchor="middle" x="1295" y="-79.8" font-family="Times,serif" font-size="14.00">class = True</text>
</g>
<!-- 546&#45;&gt;578 -->
<g id="edge28" class="edge">
<title>546&#45;&gt;578</title>
<path fill="none" stroke="black" d="M1177.45,-190.91C1192.53,-181.11 1208.75,-170.56 1224.18,-160.53"/>
<polygon fill="black" stroke="black" points="1226.18,-163.41 1232.66,-155.02 1222.37,-157.54 1226.18,-163.41"/>
</g>
<!-- 548 -->
<g id="node27" class="node">
<title>548</title>
<polygon fill="#c0c0c0" stroke="black" points="1106,-36 1052,-36 1052,0 1106,0 1106,-36"/>
<text text-anchor="middle" x="1079" y="-14.3" font-family="Times,serif" font-size="14.00">(...)</text>
</g>
<!-- 547&#45;&gt;548 -->
<g id="edge26" class="edge">
<title>547&#45;&gt;548</title>
<path fill="none" stroke="black" d="M1099.31,-71.76C1095.96,-63.04 1092.49,-54.04 1089.39,-45.99"/>
<polygon fill="black" stroke="black" points="1092.56,-44.48 1085.7,-36.41 1086.03,-46.99 1092.56,-44.48"/>
</g>
<!-- 557 -->
<g id="node28" class="node">
<title>557</title>
<polygon fill="#c0c0c0" stroke="black" points="1178,-36 1124,-36 1124,0 1178,0 1178,-36"/>
<text text-anchor="middle" x="1151" y="-14.3" font-family="Times,serif" font-size="14.00">(...)</text>
</g>
<!-- 547&#45;&gt;557 -->
<g id="edge27" class="edge">
<title>547&#45;&gt;557</title>
<path fill="none" stroke="black" d="M1130.69,-71.76C1134.04,-63.04 1137.51,-54.04 1140.61,-45.99"/>
<polygon fill="black" stroke="black" points="1143.97,-46.99 1144.3,-36.41 1137.44,-44.48 1143.97,-46.99"/>
</g>
<!-- 579 -->
<g id="node30" class="node">
<title>579</title>
<polygon fill="#c0c0c0" stroke="black" points="1286,-36 1232,-36 1232,0 1286,0 1286,-36"/>
<text text-anchor="middle" x="1259" y="-14.3" font-family="Times,serif" font-size="14.00">(...)</text>
</g>
<!-- 578&#45;&gt;579 -->
<g id="edge29" class="edge">
<title>578&#45;&gt;579</title>
<path fill="none" stroke="black" d="M1279.31,-71.76C1275.96,-63.04 1272.49,-54.04 1269.39,-45.99"/>
<polygon fill="black" stroke="black" points="1272.56,-44.48 1265.7,-36.41 1266.03,-46.99 1272.56,-44.48"/>
</g>
<!-- 602 -->
<g id="node31" class="node">
<title>602</title>
<polygon fill="#c0c0c0" stroke="black" points="1358,-36 1304,-36 1304,0 1358,0 1358,-36"/>
<text text-anchor="middle" x="1331" y="-14.3" font-family="Times,serif" font-size="14.00">(...)</text>
</g>
<!-- 578&#45;&gt;602 -->
<g id="edge30" class="edge">
<title>578&#45;&gt;602</title>
<path fill="none" stroke="black" d="M1310.69,-71.76C1314.04,-63.04 1317.51,-54.04 1320.61,-45.99"/>
<polygon fill="black" stroke="black" points="1323.97,-46.99 1324.3,-36.41 1317.44,-44.48 1323.97,-46.99"/>
</g>
</g>
</svg>
