<?xml version="1.0" encoding="UTF-8" standalone="no"?>
<!DOCTYPE svg PUBLIC "-//W3C//DTD SVG 1.1//EN"
 "http://www.w3.org/Graphics/SVG/1.1/DTD/svg11.dtd">
<!-- Generated by graphviz version 2.43.0 (0)
 -->
<!-- Title: Tree Pages: 1 -->
<svg width="1675pt" height="520pt"
 viewBox="0.00 0.00 1675.00 520.00" xmlns="http://www.w3.org/2000/svg" xmlns:xlink="http://www.w3.org/1999/xlink">
<g id="graph0" class="graph" transform="scale(1 1) rotate(0) translate(4 516)">
<title>Tree</title>
<polygon fill="white" stroke="transparent" points="-4,4 -4,-516 1671,-516 1671,4 -4,4"/>
<!-- 0 -->
<g id="node1" class="node">
<title>0</title>
<polygon fill="#f6f0fd" stroke="black" points="961,-512 740,-512 740,-429 961,-429 961,-512"/>
<text text-anchor="middle" x="850.5" y="-496.8" font-family="Times,serif" font-size="14.00">CCR &lt;= 5.5</text>
<text text-anchor="middle" x="850.5" y="-481.8" font-family="Times,serif" font-size="14.00">gini = 0.642</text>
<text text-anchor="middle" x="850.5" y="-466.8" font-family="Times,serif" font-size="14.00">samples = 26325</text>
<text text-anchor="middle" x="850.5" y="-451.8" font-family="Times,serif" font-size="14.00">value = [5506, 9798, 11021]</text>
<text text-anchor="middle" x="850.5" y="-436.8" font-family="Times,serif" font-size="14.00">class = None</text>
</g>
<!-- 1 -->
<g id="node2" class="node">
<title>1</title>
<polygon fill="#b9f6d2" stroke="black" points="751.5,-393 539.5,-393 539.5,-310 751.5,-310 751.5,-393"/>
<text text-anchor="middle" x="645.5" y="-377.8" font-family="Times,serif" font-size="14.00">graphSize &lt;= 22.5</text>
<text text-anchor="middle" x="645.5" y="-362.8" font-family="Times,serif" font-size="14.00">gini = 0.588</text>
<text text-anchor="middle" x="645.5" y="-347.8" font-family="Times,serif" font-size="14.00">samples = 16341</text>
<text text-anchor="middle" x="645.5" y="-332.8" font-family="Times,serif" font-size="14.00">value = [4862, 8944, 2535]</text>
<text text-anchor="middle" x="645.5" y="-317.8" font-family="Times,serif" font-size="14.00">class = DCP</text>
</g>
<!-- 0&#45;&gt;1 -->
<g id="edge1" class="edge">
<title>0&#45;&gt;1</title>
<path fill="none" stroke="black" d="M779.38,-428.91C762.04,-419.02 743.39,-408.37 725.67,-398.25"/>
<polygon fill="black" stroke="black" points="726.92,-394.94 716.5,-393.02 723.45,-401.02 726.92,-394.94"/>
<text text-anchor="middle" x="723.09" y="-413.44" font-family="Times,serif" font-size="14.00">True</text>
</g>
<!-- 528 -->
<g id="node17" class="node">
<title>528</title>
<polygon fill="#9659e9" stroke="black" points="1164.5,-393 970.5,-393 970.5,-310 1164.5,-310 1164.5,-393"/>
<text text-anchor="middle" x="1067.5" y="-377.8" font-family="Times,serif" font-size="14.00">sdComp &lt;= 6.5</text>
<text text-anchor="middle" x="1067.5" y="-362.8" font-family="Times,serif" font-size="14.00">gini = 0.266</text>
<text text-anchor="middle" x="1067.5" y="-347.8" font-family="Times,serif" font-size="14.00">samples = 9984</text>
<text text-anchor="middle" x="1067.5" y="-332.8" font-family="Times,serif" font-size="14.00">value = [644, 854, 8486]</text>
<text text-anchor="middle" x="1067.5" y="-317.8" font-family="Times,serif" font-size="14.00">class = None</text>
</g>
<!-- 0&#45;&gt;528 -->
<g id="edge16" class="edge">
<title>0&#45;&gt;528</title>
<path fill="none" stroke="black" d="M925.79,-428.91C944.39,-418.88 964.43,-408.07 983.41,-397.84"/>
<polygon fill="black" stroke="black" points="985.2,-400.85 992.35,-393.02 981.88,-394.69 985.2,-400.85"/>
<text text-anchor="middle" x="985.18" y="-413.27" font-family="Times,serif" font-size="14.00">False</text>
</g>
<!-- 2 -->
<g id="node3" class="node">
<title>2</title>
<polygon fill="#c9f8dd" stroke="black" points="432.5,-274 220.5,-274 220.5,-191 432.5,-191 432.5,-274"/>
<text text-anchor="middle" x="326.5" y="-258.8" font-family="Times,serif" font-size="14.00">sdComm &lt;= 0.02</text>
<text text-anchor="middle" x="326.5" y="-243.8" font-family="Times,serif" font-size="14.00">gini = 0.595</text>
<text text-anchor="middle" x="326.5" y="-228.8" font-family="Times,serif" font-size="14.00">samples = 11117</text>
<text text-anchor="middle" x="326.5" y="-213.8" font-family="Times,serif" font-size="14.00">value = [3788, 5772, 1557]</text>
<text text-anchor="middle" x="326.5" y="-198.8" font-family="Times,serif" font-size="14.00">class = DCP</text>
</g>
<!-- 1&#45;&gt;2 -->
<g id="edge2" class="edge">
<title>1&#45;&gt;2</title>
<path fill="none" stroke="black" d="M539.28,-311.54C508.15,-300.12 473.97,-287.59 442.28,-275.96"/>
<polygon fill="black" stroke="black" points="443.12,-272.55 432.53,-272.39 440.71,-279.12 443.12,-272.55"/>
</g>
<!-- 143 -->
<g id="node10" class="node">
<title>143</title>
<polygon fill="#9bf2bf" stroke="black" points="747,-274 544,-274 544,-191 747,-191 747,-274"/>
<text text-anchor="middle" x="645.5" y="-258.8" font-family="Times,serif" font-size="14.00">sdComm &lt;= 0.65</text>
<text text-anchor="middle" x="645.5" y="-243.8" font-family="Times,serif" font-size="14.00">gini = 0.554</text>
<text text-anchor="middle" x="645.5" y="-228.8" font-family="Times,serif" font-size="14.00">samples = 5224</text>
<text text-anchor="middle" x="645.5" y="-213.8" font-family="Times,serif" font-size="14.00">value = [1074, 3172, 978]</text>
<text text-anchor="middle" x="645.5" y="-198.8" font-family="Times,serif" font-size="14.00">class = DCP</text>
</g>
<!-- 1&#45;&gt;143 -->
<g id="edge9" class="edge">
<title>1&#45;&gt;143</title>
<path fill="none" stroke="black" d="M645.5,-309.91C645.5,-301.65 645.5,-292.86 645.5,-284.3"/>
<polygon fill="black" stroke="black" points="649,-284.02 645.5,-274.02 642,-284.02 649,-284.02"/>
</g>
<!-- 3 -->
<g id="node4" class="node">
<title>3</title>
<polygon fill="#f2fdf7" stroke="black" points="203,-155 0,-155 0,-72 203,-72 203,-155"/>
<text text-anchor="middle" x="101.5" y="-139.8" font-family="Times,serif" font-size="14.00">sdComp &lt;= 0.02</text>
<text text-anchor="middle" x="101.5" y="-124.8" font-family="Times,serif" font-size="14.00">gini = 0.583</text>
<text text-anchor="middle" x="101.5" y="-109.8" font-family="Times,serif" font-size="14.00">samples = 2542</text>
<text text-anchor="middle" x="101.5" y="-94.8" font-family="Times,serif" font-size="14.00">value = [1098, 1194, 250]</text>
<text text-anchor="middle" x="101.5" y="-79.8" font-family="Times,serif" font-size="14.00">class = DCP</text>
</g>
<!-- 2&#45;&gt;3 -->
<g id="edge3" class="edge">
<title>2&#45;&gt;3</title>
<path fill="none" stroke="black" d="M248.44,-190.91C229.07,-180.83 208.19,-169.98 188.42,-159.7"/>
<polygon fill="black" stroke="black" points="189.91,-156.53 179.42,-155.02 186.68,-162.74 189.91,-156.53"/>
</g>
<!-- 24 -->
<g id="node7" class="node">
<title>24</title>
<polygon fill="#bff7d7" stroke="black" points="432.5,-155 220.5,-155 220.5,-72 432.5,-72 432.5,-155"/>
<text text-anchor="middle" x="326.5" y="-139.8" font-family="Times,serif" font-size="14.00">graphDepth &lt;= 3.5</text>
<text text-anchor="middle" x="326.5" y="-124.8" font-family="Times,serif" font-size="14.00">gini = 0.593</text>
<text text-anchor="middle" x="326.5" y="-109.8" font-family="Times,serif" font-size="14.00">samples = 8575</text>
<text text-anchor="middle" x="326.5" y="-94.8" font-family="Times,serif" font-size="14.00">value = [2690, 4578, 1307]</text>
<text text-anchor="middle" x="326.5" y="-79.8" font-family="Times,serif" font-size="14.00">class = DCP</text>
</g>
<!-- 2&#45;&gt;24 -->
<g id="edge6" class="edge">
<title>2&#45;&gt;24</title>
<path fill="none" stroke="black" d="M326.5,-190.91C326.5,-182.65 326.5,-173.86 326.5,-165.3"/>
<polygon fill="black" stroke="black" points="330,-165.02 326.5,-155.02 323,-165.02 330,-165.02"/>
</g>
<!-- 4 -->
<g id="node5" class="node">
<title>4</title>
<polygon fill="#c0c0c0" stroke="black" points="92.5,-36 38.5,-36 38.5,0 92.5,0 92.5,-36"/>
<text text-anchor="middle" x="65.5" y="-14.3" font-family="Times,serif" font-size="14.00">(...)</text>
</g>
<!-- 3&#45;&gt;4 -->
<g id="edge4" class="edge">
<title>3&#45;&gt;4</title>
<path fill="none" stroke="black" d="M85.81,-71.76C82.46,-63.04 78.99,-54.04 75.89,-45.99"/>
<polygon fill="black" stroke="black" points="79.06,-44.48 72.2,-36.41 72.53,-46.99 79.06,-44.48"/>
</g>
<!-- 9 -->
<g id="node6" class="node">
<title>9</title>
<polygon fill="#c0c0c0" stroke="black" points="164.5,-36 110.5,-36 110.5,0 164.5,0 164.5,-36"/>
<text text-anchor="middle" x="137.5" y="-14.3" font-family="Times,serif" font-size="14.00">(...)</text>
</g>
<!-- 3&#45;&gt;9 -->
<g id="edge5" class="edge">
<title>3&#45;&gt;9</title>
<path fill="none" stroke="black" d="M117.19,-71.76C120.54,-63.04 124.01,-54.04 127.11,-45.99"/>
<polygon fill="black" stroke="black" points="130.47,-46.99 130.8,-36.41 123.94,-44.48 130.47,-46.99"/>
</g>
<!-- 25 -->
<g id="node8" class="node">
<title>25</title>
<polygon fill="#c0c0c0" stroke="black" points="317.5,-36 263.5,-36 263.5,0 317.5,0 317.5,-36"/>
<text text-anchor="middle" x="290.5" y="-14.3" font-family="Times,serif" font-size="14.00">(...)</text>
</g>
<!-- 24&#45;&gt;25 -->
<g id="edge7" class="edge">
<title>24&#45;&gt;25</title>
<path fill="none" stroke="black" d="M310.81,-71.76C307.46,-63.04 303.99,-54.04 300.89,-45.99"/>
<polygon fill="black" stroke="black" points="304.06,-44.48 297.2,-36.41 297.53,-46.99 304.06,-44.48"/>
</g>
<!-- 84 -->
<g id="node9" class="node">
<title>84</title>
<polygon fill="#c0c0c0" stroke="black" points="389.5,-36 335.5,-36 335.5,0 389.5,0 389.5,-36"/>
<text text-anchor="middle" x="362.5" y="-14.3" font-family="Times,serif" font-size="14.00">(...)</text>
</g>
<!-- 24&#45;&gt;84 -->
<g id="edge8" class="edge">
<title>24&#45;&gt;84</title>
<path fill="none" stroke="black" d="M342.19,-71.76C345.54,-63.04 349.01,-54.04 352.11,-45.99"/>
<polygon fill="black" stroke="black" points="355.47,-46.99 355.8,-36.41 348.94,-44.48 355.47,-46.99"/>
</g>
<!-- 144 -->
<g id="node11" class="node">
<title>144</title>
<polygon fill="#93f1ba" stroke="black" points="644.5,-155 450.5,-155 450.5,-72 644.5,-72 644.5,-155"/>
<text text-anchor="middle" x="547.5" y="-139.8" font-family="Times,serif" font-size="14.00">sdComp &lt;= 0.2</text>
<text text-anchor="middle" x="547.5" y="-124.8" font-family="Times,serif" font-size="14.00">gini = 0.535</text>
<text text-anchor="middle" x="547.5" y="-109.8" font-family="Times,serif" font-size="14.00">samples = 4554</text>
<text text-anchor="middle" x="547.5" y="-94.8" font-family="Times,serif" font-size="14.00">value = [848, 2868, 838]</text>
<text text-anchor="middle" x="547.5" y="-79.8" font-family="Times,serif" font-size="14.00">class = DCP</text>
</g>
<!-- 143&#45;&gt;144 -->
<g id="edge10" class="edge">
<title>143&#45;&gt;144</title>
<path fill="none" stroke="black" d="M611.5,-190.91C603.9,-181.83 595.76,-172.12 587.93,-162.77"/>
<polygon fill="black" stroke="black" points="590.54,-160.44 581.44,-155.02 585.18,-164.93 590.54,-160.44"/>
</g>
<!-- 463 -->
<g id="node14" class="node">
<title>463</title>
<polygon fill="#dcfae9" stroke="black" points="847,-155 662,-155 662,-72 847,-72 847,-155"/>
<text text-anchor="middle" x="754.5" y="-139.8" font-family="Times,serif" font-size="14.00">graphSize &lt;= 40.0</text>
<text text-anchor="middle" x="754.5" y="-124.8" font-family="Times,serif" font-size="14.00">gini = 0.637</text>
<text text-anchor="middle" x="754.5" y="-109.8" font-family="Times,serif" font-size="14.00">samples = 670</text>
<text text-anchor="middle" x="754.5" y="-94.8" font-family="Times,serif" font-size="14.00">value = [226, 304, 140]</text>
<text text-anchor="middle" x="754.5" y="-79.8" font-family="Times,serif" font-size="14.00">class = DCP</text>
</g>
<!-- 143&#45;&gt;463 -->
<g id="edge13" class="edge">
<title>143&#45;&gt;463</title>
<path fill="none" stroke="black" d="M683.32,-190.91C691.86,-181.74 701,-171.93 709.79,-162.49"/>
<polygon fill="black" stroke="black" points="712.49,-164.72 716.75,-155.02 707.37,-159.95 712.49,-164.72"/>
</g>
<!-- 145 -->
<g id="node12" class="node">
<title>145</title>
<polygon fill="#c0c0c0" stroke="black" points="533.5,-36 479.5,-36 479.5,0 533.5,0 533.5,-36"/>
<text text-anchor="middle" x="506.5" y="-14.3" font-family="Times,serif" font-size="14.00">(...)</text>
</g>
<!-- 144&#45;&gt;145 -->
<g id="edge11" class="edge">
<title>144&#45;&gt;145</title>
<path fill="none" stroke="black" d="M529.64,-71.76C525.77,-62.94 521.78,-53.84 518.22,-45.72"/>
<polygon fill="black" stroke="black" points="521.35,-44.16 514.13,-36.41 514.94,-46.97 521.35,-44.16"/>
</g>
<!-- 378 -->
<g id="node13" class="node">
<title>378</title>
<polygon fill="#c0c0c0" stroke="black" points="605.5,-36 551.5,-36 551.5,0 605.5,0 605.5,-36"/>
<text text-anchor="middle" x="578.5" y="-14.3" font-family="Times,serif" font-size="14.00">(...)</text>
</g>
<!-- 144&#45;&gt;378 -->
<g id="edge12" class="edge">
<title>144&#45;&gt;378</title>
<path fill="none" stroke="black" d="M561.01,-71.76C563.9,-63.04 566.88,-54.04 569.55,-45.99"/>
<polygon fill="black" stroke="black" points="572.9,-47 572.73,-36.41 566.26,-44.8 572.9,-47"/>
</g>
<!-- 464 -->
<g id="node15" class="node">
<title>464</title>
<polygon fill="#c0c0c0" stroke="black" points="740.5,-36 686.5,-36 686.5,0 740.5,0 740.5,-36"/>
<text text-anchor="middle" x="713.5" y="-14.3" font-family="Times,serif" font-size="14.00">(...)</text>
</g>
<!-- 463&#45;&gt;464 -->
<g id="edge14" class="edge">
<title>463&#45;&gt;464</title>
<path fill="none" stroke="black" d="M736.64,-71.76C732.77,-62.94 728.78,-53.84 725.22,-45.72"/>
<polygon fill="black" stroke="black" points="728.35,-44.16 721.13,-36.41 721.94,-46.97 728.35,-44.16"/>
</g>
<!-- 487 -->
<g id="node16" class="node">
<title>487</title>
<polygon fill="#c0c0c0" stroke="black" points="812.5,-36 758.5,-36 758.5,0 812.5,0 812.5,-36"/>
<text text-anchor="middle" x="785.5" y="-14.3" font-family="Times,serif" font-size="14.00">(...)</text>
</g>
<!-- 463&#45;&gt;487 -->
<g id="edge15" class="edge">
<title>463&#45;&gt;487</title>
<path fill="none" stroke="black" d="M768.01,-71.76C770.9,-63.04 773.88,-54.04 776.55,-45.99"/>
<polygon fill="black" stroke="black" points="779.9,-47 779.73,-36.41 773.26,-44.8 779.9,-47"/>
</g>
<!-- 529 -->
<g id="node18" class="node">
<title>529</title>
<polygon fill="#9152e8" stroke="black" points="1164.5,-274 970.5,-274 970.5,-191 1164.5,-191 1164.5,-274"/>
<text text-anchor="middle" x="1067.5" y="-258.8" font-family="Times,serif" font-size="14.00">sdComm &lt;= 2.0</text>
<text text-anchor="middle" x="1067.5" y="-243.8" font-family="Times,serif" font-size="14.00">gini = 0.212</text>
<text text-anchor="middle" x="1067.5" y="-228.8" font-family="Times,serif" font-size="14.00">samples = 7208</text>
<text text-anchor="middle" x="1067.5" y="-213.8" font-family="Times,serif" font-size="14.00">value = [262, 580, 6366]</text>
<text text-anchor="middle" x="1067.5" y="-198.8" font-family="Times,serif" font-size="14.00">class = None</text>
</g>
<!-- 528&#45;&gt;529 -->
<g id="edge17" class="edge">
<title>528&#45;&gt;529</title>
<path fill="none" stroke="black" d="M1067.5,-309.91C1067.5,-301.65 1067.5,-292.86 1067.5,-284.3"/>
<polygon fill="black" stroke="black" points="1071,-284.02 1067.5,-274.02 1064,-284.02 1071,-284.02"/>
</g>
<!-- 664 -->
<g id="node25" class="node">
<title>664</title>
<polygon fill="#a46fec" stroke="black" points="1482.5,-274 1288.5,-274 1288.5,-191 1482.5,-191 1482.5,-274"/>
<text text-anchor="middle" x="1385.5" y="-258.8" font-family="Times,serif" font-size="14.00">nbproc &lt;= 4.5</text>
<text text-anchor="middle" x="1385.5" y="-243.8" font-family="Times,serif" font-size="14.00">gini = 0.388</text>
<text text-anchor="middle" x="1385.5" y="-228.8" font-family="Times,serif" font-size="14.00">samples = 2776</text>
<text text-anchor="middle" x="1385.5" y="-213.8" font-family="Times,serif" font-size="14.00">value = [382, 274, 2120]</text>
<text text-anchor="middle" x="1385.5" y="-198.8" font-family="Times,serif" font-size="14.00">class = None</text>
</g>
<!-- 528&#45;&gt;664 -->
<g id="edge24" class="edge">
<title>528&#45;&gt;664</title>
<path fill="none" stroke="black" d="M1164.64,-314.76C1200.69,-301.5 1241.76,-286.38 1278.63,-272.82"/>
<polygon fill="black" stroke="black" points="1280.23,-275.96 1288.41,-269.22 1277.82,-269.39 1280.23,-275.96"/>
</g>
<!-- 530 -->
<g id="node19" class="node">
<title>530</title>
<polygon fill="#9b61ea" stroke="black" points="1058.5,-155 864.5,-155 864.5,-72 1058.5,-72 1058.5,-155"/>
<text text-anchor="middle" x="961.5" y="-139.8" font-family="Times,serif" font-size="14.00">graphDepth &lt;= 9.0</text>
<text text-anchor="middle" x="961.5" y="-124.8" font-family="Times,serif" font-size="14.00">gini = 0.304</text>
<text text-anchor="middle" x="961.5" y="-109.8" font-family="Times,serif" font-size="14.00">samples = 2212</text>
<text text-anchor="middle" x="961.5" y="-94.8" font-family="Times,serif" font-size="14.00">value = [104, 288, 1820]</text>
<text text-anchor="middle" x="961.5" y="-79.8" font-family="Times,serif" font-size="14.00">class = None</text>
</g>
<!-- 529&#45;&gt;530 -->
<g id="edge18" class="edge">
<title>529&#45;&gt;530</title>
<path fill="none" stroke="black" d="M1030.72,-190.91C1022.42,-181.74 1013.53,-171.93 1004.98,-162.49"/>
<polygon fill="black" stroke="black" points="1007.52,-160.08 998.21,-155.02 1002.33,-164.78 1007.52,-160.08"/>
</g>
<!-- 573 -->
<g id="node22" class="node">
<title>573</title>
<polygon fill="#8d4ce7" stroke="black" points="1270.5,-155 1076.5,-155 1076.5,-72 1270.5,-72 1270.5,-155"/>
<text text-anchor="middle" x="1173.5" y="-139.8" font-family="Times,serif" font-size="14.00">sdComp &lt;= 2.0</text>
<text text-anchor="middle" x="1173.5" y="-124.8" font-family="Times,serif" font-size="14.00">gini = 0.168</text>
<text text-anchor="middle" x="1173.5" y="-109.8" font-family="Times,serif" font-size="14.00">samples = 4996</text>
<text text-anchor="middle" x="1173.5" y="-94.8" font-family="Times,serif" font-size="14.00">value = [158, 292, 4546]</text>
<text text-anchor="middle" x="1173.5" y="-79.8" font-family="Times,serif" font-size="14.00">class = None</text>
</g>
<!-- 529&#45;&gt;573 -->
<g id="edge21" class="edge">
<title>529&#45;&gt;573</title>
<path fill="none" stroke="black" d="M1104.28,-190.91C1112.58,-181.74 1121.47,-171.93 1130.02,-162.49"/>
<polygon fill="black" stroke="black" points="1132.67,-164.78 1136.79,-155.02 1127.48,-160.08 1132.67,-164.78"/>
</g>
<!-- 531 -->
<g id="node20" class="node">
<title>531</title>
<polygon fill="#c0c0c0" stroke="black" points="950.5,-36 896.5,-36 896.5,0 950.5,0 950.5,-36"/>
<text text-anchor="middle" x="923.5" y="-14.3" font-family="Times,serif" font-size="14.00">(...)</text>
</g>
<!-- 530&#45;&gt;531 -->
<g id="edge19" class="edge">
<title>530&#45;&gt;531</title>
<path fill="none" stroke="black" d="M944.94,-71.76C941.36,-62.94 937.66,-53.84 934.36,-45.72"/>
<polygon fill="black" stroke="black" points="937.58,-44.35 930.57,-36.41 931.1,-46.99 937.58,-44.35"/>
</g>
<!-- 548 -->
<g id="node21" class="node">
<title>548</title>
<polygon fill="#c0c0c0" stroke="black" points="1022.5,-36 968.5,-36 968.5,0 1022.5,0 1022.5,-36"/>
<text text-anchor="middle" x="995.5" y="-14.3" font-family="Times,serif" font-size="14.00">(...)</text>
</g>
<!-- 530&#45;&gt;548 -->
<g id="edge20" class="edge">
<title>530&#45;&gt;548</title>
<path fill="none" stroke="black" d="M976.31,-71.76C979.48,-63.04 982.76,-54.04 985.68,-45.99"/>
<polygon fill="black" stroke="black" points="989.04,-47 989.17,-36.41 982.46,-44.61 989.04,-47"/>
</g>
<!-- 574 -->
<g id="node23" class="node">
<title>574</title>
<polygon fill="#c0c0c0" stroke="black" points="1162.5,-36 1108.5,-36 1108.5,0 1162.5,0 1162.5,-36"/>
<text text-anchor="middle" x="1135.5" y="-14.3" font-family="Times,serif" font-size="14.00">(...)</text>
</g>
<!-- 573&#45;&gt;574 -->
<g id="edge22" class="edge">
<title>573&#45;&gt;574</title>
<path fill="none" stroke="black" d="M1156.94,-71.76C1153.36,-62.94 1149.66,-53.84 1146.36,-45.72"/>
<polygon fill="black" stroke="black" points="1149.58,-44.35 1142.57,-36.41 1143.1,-46.99 1149.58,-44.35"/>
</g>
<!-- 627 -->
<g id="node24" class="node">
<title>627</title>
<polygon fill="#c0c0c0" stroke="black" points="1234.5,-36 1180.5,-36 1180.5,0 1234.5,0 1234.5,-36"/>
<text text-anchor="middle" x="1207.5" y="-14.3" font-family="Times,serif" font-size="14.00">(...)</text>
</g>
<!-- 573&#45;&gt;627 -->
<g id="edge23" class="edge">
<title>573&#45;&gt;627</title>
<path fill="none" stroke="black" d="M1188.31,-71.76C1191.48,-63.04 1194.76,-54.04 1197.68,-45.99"/>
<polygon fill="black" stroke="black" points="1201.04,-47 1201.17,-36.41 1194.46,-44.61 1201.04,-47"/>
</g>
<!-- 665 -->
<g id="node26" class="node">
<title>665</title>
<polygon fill="#b184ef" stroke="black" points="1482.5,-155 1288.5,-155 1288.5,-72 1482.5,-72 1482.5,-155"/>
<text text-anchor="middle" x="1385.5" y="-139.8" font-family="Times,serif" font-size="14.00">graphSize &lt;= 75.0</text>
<text text-anchor="middle" x="1385.5" y="-124.8" font-family="Times,serif" font-size="14.00">gini = 0.467</text>
<text text-anchor="middle" x="1385.5" y="-109.8" font-family="Times,serif" font-size="14.00">samples = 1740</text>
<text text-anchor="middle" x="1385.5" y="-94.8" font-family="Times,serif" font-size="14.00">value = [342, 190, 1208]</text>
<text text-anchor="middle" x="1385.5" y="-79.8" font-family="Times,serif" font-size="14.00">class = None</text>
</g>
<!-- 664&#45;&gt;665 -->
<g id="edge25" class="edge">
<title>664&#45;&gt;665</title>
<path fill="none" stroke="black" d="M1385.5,-190.91C1385.5,-182.65 1385.5,-173.86 1385.5,-165.3"/>
<polygon fill="black" stroke="black" points="1389,-165.02 1385.5,-155.02 1382,-165.02 1389,-165.02"/>
</g>
<!-- 708 -->
<g id="node29" class="node">
<title>708</title>
<polygon fill="#9153e8" stroke="black" points="1667,-155 1500,-155 1500,-72 1667,-72 1667,-155"/>
<text text-anchor="middle" x="1583.5" y="-139.8" font-family="Times,serif" font-size="14.00">graphSize &lt;= 22.5</text>
<text text-anchor="middle" x="1583.5" y="-124.8" font-family="Times,serif" font-size="14.00">gini = 0.217</text>
<text text-anchor="middle" x="1583.5" y="-109.8" font-family="Times,serif" font-size="14.00">samples = 1036</text>
<text text-anchor="middle" x="1583.5" y="-94.8" font-family="Times,serif" font-size="14.00">value = [40, 84, 912]</text>
<text text-anchor="middle" x="1583.5" y="-79.8" font-family="Times,serif" font-size="14.00">class = None</text>
</g>
<!-- 664&#45;&gt;708 -->
<g id="edge28" class="edge">
<title>664&#45;&gt;708</title>
<path fill="none" stroke="black" d="M1454.2,-190.91C1470.94,-181.02 1488.95,-170.37 1506.07,-160.25"/>
<polygon fill="black" stroke="black" points="1508.1,-163.12 1514.93,-155.02 1504.54,-157.09 1508.1,-163.12"/>
</g>
<!-- 666 -->
<g id="node27" class="node">
<title>666</title>
<polygon fill="#c0c0c0" stroke="black" points="1376.5,-36 1322.5,-36 1322.5,0 1376.5,0 1376.5,-36"/>
<text text-anchor="middle" x="1349.5" y="-14.3" font-family="Times,serif" font-size="14.00">(...)</text>
</g>
<!-- 665&#45;&gt;666 -->
<g id="edge26" class="edge">
<title>665&#45;&gt;666</title>
<path fill="none" stroke="black" d="M1369.81,-71.76C1366.46,-63.04 1362.99,-54.04 1359.89,-45.99"/>
<polygon fill="black" stroke="black" points="1363.06,-44.48 1356.2,-36.41 1356.53,-46.99 1363.06,-44.48"/>
</g>
<!-- 697 -->
<g id="node28" class="node">
<title>697</title>
<polygon fill="#c0c0c0" stroke="black" points="1448.5,-36 1394.5,-36 1394.5,0 1448.5,0 1448.5,-36"/>
<text text-anchor="middle" x="1421.5" y="-14.3" font-family="Times,serif" font-size="14.00">(...)</text>
</g>
<!-- 665&#45;&gt;697 -->
<g id="edge27" class="edge">
<title>665&#45;&gt;697</title>
<path fill="none" stroke="black" d="M1401.19,-71.76C1404.54,-63.04 1408.01,-54.04 1411.11,-45.99"/>
<polygon fill="black" stroke="black" points="1414.47,-46.99 1414.8,-36.41 1407.94,-44.48 1414.47,-46.99"/>
</g>
<!-- 709 -->
<g id="node30" class="node">
<title>709</title>
<polygon fill="#c0c0c0" stroke="black" points="1574.5,-36 1520.5,-36 1520.5,0 1574.5,0 1574.5,-36"/>
<text text-anchor="middle" x="1547.5" y="-14.3" font-family="Times,serif" font-size="14.00">(...)</text>
</g>
<!-- 708&#45;&gt;709 -->
<g id="edge29" class="edge">
<title>708&#45;&gt;709</title>
<path fill="none" stroke="black" d="M1567.81,-71.76C1564.46,-63.04 1560.99,-54.04 1557.89,-45.99"/>
<polygon fill="black" stroke="black" points="1561.06,-44.48 1554.2,-36.41 1554.53,-46.99 1561.06,-44.48"/>
</g>
<!-- 720 -->
<g id="node31" class="node">
<title>720</title>
<polygon fill="#c0c0c0" stroke="black" points="1646.5,-36 1592.5,-36 1592.5,0 1646.5,0 1646.5,-36"/>
<text text-anchor="middle" x="1619.5" y="-14.3" font-family="Times,serif" font-size="14.00">(...)</text>
</g>
<!-- 708&#45;&gt;720 -->
<g id="edge30" class="edge">
<title>708&#45;&gt;720</title>
<path fill="none" stroke="black" d="M1599.19,-71.76C1602.54,-63.04 1606.01,-54.04 1609.11,-45.99"/>
<polygon fill="black" stroke="black" points="1612.47,-46.99 1612.8,-36.41 1605.94,-44.48 1612.47,-46.99"/>
</g>
</g>
</svg>
