<?xml version="1.0" encoding="UTF-8" standalone="no"?>
<!DOCTYPE svg PUBLIC "-//W3C//DTD SVG 1.1//EN"
 "http://www.w3.org/Graphics/SVG/1.1/DTD/svg11.dtd">
<!-- Generated by graphviz version 2.43.0 (0)
 -->
<!-- Title: Tree Pages: 1 -->
<svg width="1390pt" height="520pt"
 viewBox="0.00 0.00 1390.00 520.00" xmlns="http://www.w3.org/2000/svg" xmlns:xlink="http://www.w3.org/1999/xlink">
<g id="graph0" class="graph" transform="scale(1 1) rotate(0) translate(4 516)">
<title>Tree</title>
<polygon fill="white" stroke="transparent" points="-4,4 -4,-516 1386,-516 1386,4 -4,4"/>
<!-- 0 -->
<g id="node1" class="node">
<title>0</title>
<polygon fill="#f5fafe" stroke="black" points="770,-512 585,-512 585,-429 770,-429 770,-512"/>
<text text-anchor="middle" x="677.5" y="-496.8" font-family="Times,serif" font-size="14.00">CCR &lt;= 5.5</text>
<text text-anchor="middle" x="677.5" y="-481.8" font-family="Times,serif" font-size="14.00">gini = 0.5</text>
<text text-anchor="middle" x="677.5" y="-466.8" font-family="Times,serif" font-size="14.00">samples = 26325</text>
<text text-anchor="middle" x="677.5" y="-451.8" font-family="Times,serif" font-size="14.00">value = [12833, 13492]</text>
<text text-anchor="middle" x="677.5" y="-436.8" font-family="Times,serif" font-size="14.00">class = True</text>
</g>
<!-- 1 -->
<g id="node2" class="node">
<title>1</title>
<polygon fill="#d2e9f9" stroke="black" points="603,-393 436,-393 436,-310 603,-310 603,-393"/>
<text text-anchor="middle" x="519.5" y="-377.8" font-family="Times,serif" font-size="14.00">graphSize &lt;= 75.0</text>
<text text-anchor="middle" x="519.5" y="-362.8" font-family="Times,serif" font-size="14.00">gini = 0.492</text>
<text text-anchor="middle" x="519.5" y="-347.8" font-family="Times,serif" font-size="14.00">samples = 16341</text>
<text text-anchor="middle" x="519.5" y="-332.8" font-family="Times,serif" font-size="14.00">value = [7134, 9207]</text>
<text text-anchor="middle" x="519.5" y="-317.8" font-family="Times,serif" font-size="14.00">class = True</text>
</g>
<!-- 0&#45;&gt;1 -->
<g id="edge1" class="edge">
<title>0&#45;&gt;1</title>
<path fill="none" stroke="black" d="M622.68,-428.91C609.69,-419.29 595.74,-408.95 582.42,-399.09"/>
<polygon fill="black" stroke="black" points="584.34,-396.16 574.22,-393.02 580.17,-401.78 584.34,-396.16"/>
<text text-anchor="middle" x="577.91" y="-414.05" font-family="Times,serif" font-size="14.00">True</text>
</g>
<!-- 498 -->
<g id="node17" class="node">
<title>498</title>
<polygon fill="#f9e0ce" stroke="black" points="937,-393 770,-393 770,-310 937,-310 937,-393"/>
<text text-anchor="middle" x="853.5" y="-377.8" font-family="Times,serif" font-size="14.00">graphDepth &lt;= 3.5</text>
<text text-anchor="middle" x="853.5" y="-362.8" font-family="Times,serif" font-size="14.00">gini = 0.49</text>
<text text-anchor="middle" x="853.5" y="-347.8" font-family="Times,serif" font-size="14.00">samples = 9984</text>
<text text-anchor="middle" x="853.5" y="-332.8" font-family="Times,serif" font-size="14.00">value = [5699, 4285]</text>
<text text-anchor="middle" x="853.5" y="-317.8" font-family="Times,serif" font-size="14.00">class = False</text>
</g>
<!-- 0&#45;&gt;498 -->
<g id="edge16" class="edge">
<title>0&#45;&gt;498</title>
<path fill="none" stroke="black" d="M738.56,-428.91C753.17,-419.2 768.87,-408.76 783.84,-398.81"/>
<polygon fill="black" stroke="black" points="786.16,-401.47 792.55,-393.02 782.28,-395.64 786.16,-401.47"/>
<text text-anchor="middle" x="787.61" y="-413.83" font-family="Times,serif" font-size="14.00">False</text>
</g>
<!-- 2 -->
<g id="node3" class="node">
<title>2</title>
<polygon fill="#d9ecfa" stroke="black" points="352,-274 185,-274 185,-191 352,-191 352,-274"/>
<text text-anchor="middle" x="268.5" y="-258.8" font-family="Times,serif" font-size="14.00">graphSize &lt;= 22.5</text>
<text text-anchor="middle" x="268.5" y="-243.8" font-family="Times,serif" font-size="14.00">gini = 0.494</text>
<text text-anchor="middle" x="268.5" y="-228.8" font-family="Times,serif" font-size="14.00">samples = 15531</text>
<text text-anchor="middle" x="268.5" y="-213.8" font-family="Times,serif" font-size="14.00">value = [6940, 8591]</text>
<text text-anchor="middle" x="268.5" y="-198.8" font-family="Times,serif" font-size="14.00">class = True</text>
</g>
<!-- 1&#45;&gt;2 -->
<g id="edge2" class="edge">
<title>1&#45;&gt;2</title>
<path fill="none" stroke="black" d="M435.92,-311.54C412.02,-300.4 385.83,-288.19 361.41,-276.81"/>
<polygon fill="black" stroke="black" points="362.68,-273.54 352.14,-272.49 359.73,-279.89 362.68,-273.54"/>
</g>
<!-- 409 -->
<g id="node10" class="node">
<title>409</title>
<polygon fill="#77bced" stroke="black" points="603,-274 436,-274 436,-191 603,-191 603,-274"/>
<text text-anchor="middle" x="519.5" y="-258.8" font-family="Times,serif" font-size="14.00">graphDepth &lt;= 25.5</text>
<text text-anchor="middle" x="519.5" y="-243.8" font-family="Times,serif" font-size="14.00">gini = 0.364</text>
<text text-anchor="middle" x="519.5" y="-228.8" font-family="Times,serif" font-size="14.00">samples = 810</text>
<text text-anchor="middle" x="519.5" y="-213.8" font-family="Times,serif" font-size="14.00">value = [194, 616]</text>
<text text-anchor="middle" x="519.5" y="-198.8" font-family="Times,serif" font-size="14.00">class = True</text>
</g>
<!-- 1&#45;&gt;409 -->
<g id="edge9" class="edge">
<title>1&#45;&gt;409</title>
<path fill="none" stroke="black" d="M519.5,-309.91C519.5,-301.65 519.5,-292.86 519.5,-284.3"/>
<polygon fill="black" stroke="black" points="523,-284.02 519.5,-274.02 516,-284.02 523,-284.02"/>
</g>
<!-- 3 -->
<g id="node4" class="node">
<title>3</title>
<polygon fill="#e3f1fb" stroke="black" points="167,-155 0,-155 0,-72 167,-72 167,-155"/>
<text text-anchor="middle" x="83.5" y="-139.8" font-family="Times,serif" font-size="14.00">sdComm &lt;= 0.65</text>
<text text-anchor="middle" x="83.5" y="-124.8" font-family="Times,serif" font-size="14.00">gini = 0.497</text>
<text text-anchor="middle" x="83.5" y="-109.8" font-family="Times,serif" font-size="14.00">samples = 11117</text>
<text text-anchor="middle" x="83.5" y="-94.8" font-family="Times,serif" font-size="14.00">value = [5140, 5977]</text>
<text text-anchor="middle" x="83.5" y="-79.8" font-family="Times,serif" font-size="14.00">class = True</text>
</g>
<!-- 2&#45;&gt;3 -->
<g id="edge3" class="edge">
<title>2&#45;&gt;3</title>
<path fill="none" stroke="black" d="M204.32,-190.91C188.82,-181.11 172.15,-170.56 156.29,-160.53"/>
<polygon fill="black" stroke="black" points="157.89,-157.41 147.57,-155.02 154.15,-163.32 157.89,-157.41"/>
</g>
<!-- 144 -->
<g id="node7" class="node">
<title>144</title>
<polygon fill="#c1e0f7" stroke="black" points="352,-155 185,-155 185,-72 352,-72 352,-155"/>
<text text-anchor="middle" x="268.5" y="-139.8" font-family="Times,serif" font-size="14.00">nbproc &lt;= 4.5</text>
<text text-anchor="middle" x="268.5" y="-124.8" font-family="Times,serif" font-size="14.00">gini = 0.483</text>
<text text-anchor="middle" x="268.5" y="-109.8" font-family="Times,serif" font-size="14.00">samples = 4414</text>
<text text-anchor="middle" x="268.5" y="-94.8" font-family="Times,serif" font-size="14.00">value = [1800, 2614]</text>
<text text-anchor="middle" x="268.5" y="-79.8" font-family="Times,serif" font-size="14.00">class = True</text>
</g>
<!-- 2&#45;&gt;144 -->
<g id="edge6" class="edge">
<title>2&#45;&gt;144</title>
<path fill="none" stroke="black" d="M268.5,-190.91C268.5,-182.65 268.5,-173.86 268.5,-165.3"/>
<polygon fill="black" stroke="black" points="272,-165.02 268.5,-155.02 265,-165.02 272,-165.02"/>
</g>
<!-- 4 -->
<g id="node5" class="node">
<title>4</title>
<polygon fill="#c0c0c0" stroke="black" points="74.5,-36 20.5,-36 20.5,0 74.5,0 74.5,-36"/>
<text text-anchor="middle" x="47.5" y="-14.3" font-family="Times,serif" font-size="14.00">(...)</text>
</g>
<!-- 3&#45;&gt;4 -->
<g id="edge4" class="edge">
<title>3&#45;&gt;4</title>
<path fill="none" stroke="black" d="M67.81,-71.76C64.46,-63.04 60.99,-54.04 57.89,-45.99"/>
<polygon fill="black" stroke="black" points="61.06,-44.48 54.2,-36.41 54.53,-46.99 61.06,-44.48"/>
</g>
<!-- 121 -->
<g id="node6" class="node">
<title>121</title>
<polygon fill="#c0c0c0" stroke="black" points="146.5,-36 92.5,-36 92.5,0 146.5,0 146.5,-36"/>
<text text-anchor="middle" x="119.5" y="-14.3" font-family="Times,serif" font-size="14.00">(...)</text>
</g>
<!-- 3&#45;&gt;121 -->
<g id="edge5" class="edge">
<title>3&#45;&gt;121</title>
<path fill="none" stroke="black" d="M99.19,-71.76C102.54,-63.04 106.01,-54.04 109.11,-45.99"/>
<polygon fill="black" stroke="black" points="112.47,-46.99 112.8,-36.41 105.94,-44.48 112.47,-46.99"/>
</g>
<!-- 145 -->
<g id="node8" class="node">
<title>145</title>
<polygon fill="#c0c0c0" stroke="black" points="249.5,-36 195.5,-36 195.5,0 249.5,0 249.5,-36"/>
<text text-anchor="middle" x="222.5" y="-14.3" font-family="Times,serif" font-size="14.00">(...)</text>
</g>
<!-- 144&#45;&gt;145 -->
<g id="edge7" class="edge">
<title>144&#45;&gt;145</title>
<path fill="none" stroke="black" d="M248.46,-71.76C244.07,-62.85 239.54,-53.64 235.52,-45.46"/>
<polygon fill="black" stroke="black" points="238.62,-43.83 231.06,-36.41 232.34,-46.92 238.62,-43.83"/>
</g>
<!-- 272 -->
<g id="node9" class="node">
<title>272</title>
<polygon fill="#c0c0c0" stroke="black" points="321.5,-36 267.5,-36 267.5,0 321.5,0 321.5,-36"/>
<text text-anchor="middle" x="294.5" y="-14.3" font-family="Times,serif" font-size="14.00">(...)</text>
</g>
<!-- 144&#45;&gt;272 -->
<g id="edge8" class="edge">
<title>144&#45;&gt;272</title>
<path fill="none" stroke="black" d="M279.83,-71.76C282.23,-63.14 284.7,-54.24 286.92,-46.26"/>
<polygon fill="black" stroke="black" points="290.35,-46.98 289.66,-36.41 283.61,-45.1 290.35,-46.98"/>
</g>
<!-- 410 -->
<g id="node11" class="node">
<title>410</title>
<polygon fill="#66b3eb" stroke="black" points="510.5,-155 370.5,-155 370.5,-72 510.5,-72 510.5,-155"/>
<text text-anchor="middle" x="440.5" y="-139.8" font-family="Times,serif" font-size="14.00">nbproc &lt;= 4.5</text>
<text text-anchor="middle" x="440.5" y="-124.8" font-family="Times,serif" font-size="14.00">gini = 0.302</text>
<text text-anchor="middle" x="440.5" y="-109.8" font-family="Times,serif" font-size="14.00">samples = 410</text>
<text text-anchor="middle" x="440.5" y="-94.8" font-family="Times,serif" font-size="14.00">value = [76, 334]</text>
<text text-anchor="middle" x="440.5" y="-79.8" font-family="Times,serif" font-size="14.00">class = True</text>
</g>
<!-- 409&#45;&gt;410 -->
<g id="edge10" class="edge">
<title>409&#45;&gt;410</title>
<path fill="none" stroke="black" d="M492.09,-190.91C486.09,-182.01 479.67,-172.51 473.47,-163.33"/>
<polygon fill="black" stroke="black" points="476.36,-161.35 467.86,-155.02 470.56,-165.27 476.36,-161.35"/>
</g>
<!-- 449 -->
<g id="node14" class="node">
<title>449</title>
<polygon fill="#8cc6f0" stroke="black" points="678,-155 529,-155 529,-72 678,-72 678,-155"/>
<text text-anchor="middle" x="603.5" y="-139.8" font-family="Times,serif" font-size="14.00">sdComp &lt;= 0.065</text>
<text text-anchor="middle" x="603.5" y="-124.8" font-family="Times,serif" font-size="14.00">gini = 0.416</text>
<text text-anchor="middle" x="603.5" y="-109.8" font-family="Times,serif" font-size="14.00">samples = 400</text>
<text text-anchor="middle" x="603.5" y="-94.8" font-family="Times,serif" font-size="14.00">value = [118, 282]</text>
<text text-anchor="middle" x="603.5" y="-79.8" font-family="Times,serif" font-size="14.00">class = True</text>
</g>
<!-- 409&#45;&gt;449 -->
<g id="edge13" class="edge">
<title>409&#45;&gt;449</title>
<path fill="none" stroke="black" d="M548.64,-190.91C555.03,-182.01 561.85,-172.51 568.44,-163.33"/>
<polygon fill="black" stroke="black" points="571.42,-165.19 574.41,-155.02 565.73,-161.1 571.42,-165.19"/>
</g>
<!-- 411 -->
<g id="node12" class="node">
<title>411</title>
<polygon fill="#c0c0c0" stroke="black" points="416.5,-36 362.5,-36 362.5,0 416.5,0 416.5,-36"/>
<text text-anchor="middle" x="389.5" y="-14.3" font-family="Times,serif" font-size="14.00">(...)</text>
</g>
<!-- 410&#45;&gt;411 -->
<g id="edge11" class="edge">
<title>410&#45;&gt;411</title>
<path fill="none" stroke="black" d="M418.28,-71.76C413.36,-62.75 408.28,-53.44 403.79,-45.19"/>
<polygon fill="black" stroke="black" points="406.85,-43.51 398.99,-36.41 400.71,-46.86 406.85,-43.51"/>
</g>
<!-- 420 -->
<g id="node13" class="node">
<title>420</title>
<polygon fill="#c0c0c0" stroke="black" points="488.5,-36 434.5,-36 434.5,0 488.5,0 488.5,-36"/>
<text text-anchor="middle" x="461.5" y="-14.3" font-family="Times,serif" font-size="14.00">(...)</text>
</g>
<!-- 410&#45;&gt;420 -->
<g id="edge12" class="edge">
<title>410&#45;&gt;420</title>
<path fill="none" stroke="black" d="M449.65,-71.76C451.59,-63.14 453.59,-54.24 455.38,-46.26"/>
<polygon fill="black" stroke="black" points="458.81,-46.93 457.59,-36.41 451.98,-45.4 458.81,-46.93"/>
</g>
<!-- 450 -->
<g id="node15" class="node">
<title>450</title>
<polygon fill="#c0c0c0" stroke="black" points="569.5,-36 515.5,-36 515.5,0 569.5,0 569.5,-36"/>
<text text-anchor="middle" x="542.5" y="-14.3" font-family="Times,serif" font-size="14.00">(...)</text>
</g>
<!-- 449&#45;&gt;450 -->
<g id="edge14" class="edge">
<title>449&#45;&gt;450</title>
<path fill="none" stroke="black" d="M576.92,-71.76C570.98,-62.65 564.84,-53.24 559.41,-44.92"/>
<polygon fill="black" stroke="black" points="562.25,-42.87 553.86,-36.41 556.39,-46.69 562.25,-42.87"/>
</g>
<!-- 461 -->
<g id="node16" class="node">
<title>461</title>
<polygon fill="#c0c0c0" stroke="black" points="641.5,-36 587.5,-36 587.5,0 641.5,0 641.5,-36"/>
<text text-anchor="middle" x="614.5" y="-14.3" font-family="Times,serif" font-size="14.00">(...)</text>
</g>
<!-- 449&#45;&gt;461 -->
<g id="edge15" class="edge">
<title>449&#45;&gt;461</title>
<path fill="none" stroke="black" d="M608.29,-71.76C609.3,-63.24 610.33,-54.44 611.26,-46.53"/>
<polygon fill="black" stroke="black" points="614.76,-46.75 612.45,-36.41 607.81,-45.93 614.76,-46.75"/>
</g>
<!-- 499 -->
<g id="node18" class="node">
<title>499</title>
<polygon fill="#fef8f5" stroke="black" points="928,-274 779,-274 779,-191 928,-191 928,-274"/>
<text text-anchor="middle" x="853.5" y="-258.8" font-family="Times,serif" font-size="14.00">sdComm &lt;= 2.0</text>
<text text-anchor="middle" x="853.5" y="-243.8" font-family="Times,serif" font-size="14.00">gini = 0.5</text>
<text text-anchor="middle" x="853.5" y="-228.8" font-family="Times,serif" font-size="14.00">samples = 740</text>
<text text-anchor="middle" x="853.5" y="-213.8" font-family="Times,serif" font-size="14.00">value = [380, 360]</text>
<text text-anchor="middle" x="853.5" y="-198.8" font-family="Times,serif" font-size="14.00">class = False</text>
</g>
<!-- 498&#45;&gt;499 -->
<g id="edge17" class="edge">
<title>498&#45;&gt;499</title>
<path fill="none" stroke="black" d="M853.5,-309.91C853.5,-301.65 853.5,-292.86 853.5,-284.3"/>
<polygon fill="black" stroke="black" points="857,-284.02 853.5,-274.02 850,-284.02 857,-284.02"/>
</g>
<!-- 534 -->
<g id="node25" class="node">
<title>534</title>
<polygon fill="#f8decb" stroke="black" points="1197,-274 1030,-274 1030,-191 1197,-191 1197,-274"/>
<text text-anchor="middle" x="1113.5" y="-258.8" font-family="Times,serif" font-size="14.00">nbproc &lt;= 4.5</text>
<text text-anchor="middle" x="1113.5" y="-243.8" font-family="Times,serif" font-size="14.00">gini = 0.489</text>
<text text-anchor="middle" x="1113.5" y="-228.8" font-family="Times,serif" font-size="14.00">samples = 9244</text>
<text text-anchor="middle" x="1113.5" y="-213.8" font-family="Times,serif" font-size="14.00">value = [5319, 3925]</text>
<text text-anchor="middle" x="1113.5" y="-198.8" font-family="Times,serif" font-size="14.00">class = False</text>
</g>
<!-- 498&#45;&gt;534 -->
<g id="edge24" class="edge">
<title>498&#45;&gt;534</title>
<path fill="none" stroke="black" d="M937.2,-312.84C963.87,-300.83 993.54,-287.48 1020.81,-275.21"/>
<polygon fill="black" stroke="black" points="1022.28,-278.39 1029.96,-271.09 1019.4,-272 1022.28,-278.39"/>
</g>
<!-- 500 -->
<g id="node19" class="node">
<title>500</title>
<polygon fill="#e6f3fc" stroke="black" points="845,-155 696,-155 696,-72 845,-72 845,-155"/>
<text text-anchor="middle" x="770.5" y="-139.8" font-family="Times,serif" font-size="14.00">nbproc &lt;= 4.5</text>
<text text-anchor="middle" x="770.5" y="-124.8" font-family="Times,serif" font-size="14.00">gini = 0.498</text>
<text text-anchor="middle" x="770.5" y="-109.8" font-family="Times,serif" font-size="14.00">samples = 270</text>
<text text-anchor="middle" x="770.5" y="-94.8" font-family="Times,serif" font-size="14.00">value = [126, 144]</text>
<text text-anchor="middle" x="770.5" y="-79.8" font-family="Times,serif" font-size="14.00">class = True</text>
</g>
<!-- 499&#45;&gt;500 -->
<g id="edge18" class="edge">
<title>499&#45;&gt;500</title>
<path fill="none" stroke="black" d="M824.7,-190.91C818.39,-182.01 811.65,-172.51 805.14,-163.33"/>
<polygon fill="black" stroke="black" points="807.89,-161.15 799.25,-155.02 802.18,-165.2 807.89,-161.15"/>
</g>
<!-- 511 -->
<g id="node22" class="node">
<title>511</title>
<polygon fill="#fbece1" stroke="black" points="1012,-155 863,-155 863,-72 1012,-72 1012,-155"/>
<text text-anchor="middle" x="937.5" y="-139.8" font-family="Times,serif" font-size="14.00">sdComp &lt;= 6.5</text>
<text text-anchor="middle" x="937.5" y="-124.8" font-family="Times,serif" font-size="14.00">gini = 0.497</text>
<text text-anchor="middle" x="937.5" y="-109.8" font-family="Times,serif" font-size="14.00">samples = 470</text>
<text text-anchor="middle" x="937.5" y="-94.8" font-family="Times,serif" font-size="14.00">value = [254, 216]</text>
<text text-anchor="middle" x="937.5" y="-79.8" font-family="Times,serif" font-size="14.00">class = False</text>
</g>
<!-- 499&#45;&gt;511 -->
<g id="edge21" class="edge">
<title>499&#45;&gt;511</title>
<path fill="none" stroke="black" d="M882.64,-190.91C889.03,-182.01 895.85,-172.51 902.44,-163.33"/>
<polygon fill="black" stroke="black" points="905.42,-165.19 908.41,-155.02 899.73,-161.1 905.42,-165.19"/>
</g>
<!-- 501 -->
<g id="node20" class="node">
<title>501</title>
<polygon fill="#c0c0c0" stroke="black" points="736.5,-36 682.5,-36 682.5,0 736.5,0 736.5,-36"/>
<text text-anchor="middle" x="709.5" y="-14.3" font-family="Times,serif" font-size="14.00">(...)</text>
</g>
<!-- 500&#45;&gt;501 -->
<g id="edge19" class="edge">
<title>500&#45;&gt;501</title>
<path fill="none" stroke="black" d="M743.92,-71.76C737.98,-62.65 731.84,-53.24 726.41,-44.92"/>
<polygon fill="black" stroke="black" points="729.25,-42.87 720.86,-36.41 723.39,-46.69 729.25,-42.87"/>
</g>
<!-- 506 -->
<g id="node21" class="node">
<title>506</title>
<polygon fill="#c0c0c0" stroke="black" points="808.5,-36 754.5,-36 754.5,0 808.5,0 808.5,-36"/>
<text text-anchor="middle" x="781.5" y="-14.3" font-family="Times,serif" font-size="14.00">(...)</text>
</g>
<!-- 500&#45;&gt;506 -->
<g id="edge20" class="edge">
<title>500&#45;&gt;506</title>
<path fill="none" stroke="black" d="M775.29,-71.76C776.3,-63.24 777.33,-54.44 778.26,-46.53"/>
<polygon fill="black" stroke="black" points="781.76,-46.75 779.45,-36.41 774.81,-45.93 781.76,-46.75"/>
</g>
<!-- 512 -->
<g id="node23" class="node">
<title>512</title>
<polygon fill="#c0c0c0" stroke="black" points="908.5,-36 854.5,-36 854.5,0 908.5,0 908.5,-36"/>
<text text-anchor="middle" x="881.5" y="-14.3" font-family="Times,serif" font-size="14.00">(...)</text>
</g>
<!-- 511&#45;&gt;512 -->
<g id="edge22" class="edge">
<title>511&#45;&gt;512</title>
<path fill="none" stroke="black" d="M913.1,-71.76C907.7,-62.75 902.13,-53.44 897.19,-45.19"/>
<polygon fill="black" stroke="black" points="900.07,-43.19 891.92,-36.41 894.06,-46.78 900.07,-43.19"/>
</g>
<!-- 527 -->
<g id="node24" class="node">
<title>527</title>
<polygon fill="#c0c0c0" stroke="black" points="980.5,-36 926.5,-36 926.5,0 980.5,0 980.5,-36"/>
<text text-anchor="middle" x="953.5" y="-14.3" font-family="Times,serif" font-size="14.00">(...)</text>
</g>
<!-- 511&#45;&gt;527 -->
<g id="edge23" class="edge">
<title>511&#45;&gt;527</title>
<path fill="none" stroke="black" d="M944.47,-71.76C945.93,-63.24 947.44,-54.44 948.79,-46.53"/>
<polygon fill="black" stroke="black" points="952.28,-46.85 950.52,-36.41 945.38,-45.67 952.28,-46.85"/>
</g>
<!-- 535 -->
<g id="node26" class="node">
<title>535</title>
<polygon fill="#f9e2d2" stroke="black" points="1197,-155 1030,-155 1030,-72 1197,-72 1197,-155"/>
<text text-anchor="middle" x="1113.5" y="-139.8" font-family="Times,serif" font-size="14.00">sdComm &lt;= 6.5</text>
<text text-anchor="middle" x="1113.5" y="-124.8" font-family="Times,serif" font-size="14.00">gini = 0.492</text>
<text text-anchor="middle" x="1113.5" y="-109.8" font-family="Times,serif" font-size="14.00">samples = 4998</text>
<text text-anchor="middle" x="1113.5" y="-94.8" font-family="Times,serif" font-size="14.00">value = [2820, 2178]</text>
<text text-anchor="middle" x="1113.5" y="-79.8" font-family="Times,serif" font-size="14.00">class = False</text>
</g>
<!-- 534&#45;&gt;535 -->
<g id="edge25" class="edge">
<title>534&#45;&gt;535</title>
<path fill="none" stroke="black" d="M1113.5,-190.91C1113.5,-182.65 1113.5,-173.86 1113.5,-165.3"/>
<polygon fill="black" stroke="black" points="1117,-165.02 1113.5,-155.02 1110,-165.02 1117,-165.02"/>
</g>
<!-- 660 -->
<g id="node29" class="node">
<title>660</title>
<polygon fill="#f7d9c3" stroke="black" points="1382,-155 1215,-155 1215,-72 1382,-72 1382,-155"/>
<text text-anchor="middle" x="1298.5" y="-139.8" font-family="Times,serif" font-size="14.00">graphSize &lt;= 75.0</text>
<text text-anchor="middle" x="1298.5" y="-124.8" font-family="Times,serif" font-size="14.00">gini = 0.484</text>
<text text-anchor="middle" x="1298.5" y="-109.8" font-family="Times,serif" font-size="14.00">samples = 4246</text>
<text text-anchor="middle" x="1298.5" y="-94.8" font-family="Times,serif" font-size="14.00">value = [2499, 1747]</text>
<text text-anchor="middle" x="1298.5" y="-79.8" font-family="Times,serif" font-size="14.00">class = False</text>
</g>
<!-- 534&#45;&gt;660 -->
<g id="edge28" class="edge">
<title>534&#45;&gt;660</title>
<path fill="none" stroke="black" d="M1177.68,-190.91C1193.18,-181.11 1209.85,-170.56 1225.71,-160.53"/>
<polygon fill="black" stroke="black" points="1227.85,-163.32 1234.43,-155.02 1224.11,-157.41 1227.85,-163.32"/>
</g>
<!-- 536 -->
<g id="node27" class="node">
<title>536</title>
<polygon fill="#c0c0c0" stroke="black" points="1104.5,-36 1050.5,-36 1050.5,0 1104.5,0 1104.5,-36"/>
<text text-anchor="middle" x="1077.5" y="-14.3" font-family="Times,serif" font-size="14.00">(...)</text>
</g>
<!-- 535&#45;&gt;536 -->
<g id="edge26" class="edge">
<title>535&#45;&gt;536</title>
<path fill="none" stroke="black" d="M1097.81,-71.76C1094.46,-63.04 1090.99,-54.04 1087.89,-45.99"/>
<polygon fill="black" stroke="black" points="1091.06,-44.48 1084.2,-36.41 1084.53,-46.99 1091.06,-44.48"/>
</g>
<!-- 619 -->
<g id="node28" class="node">
<title>619</title>
<polygon fill="#c0c0c0" stroke="black" points="1176.5,-36 1122.5,-36 1122.5,0 1176.5,0 1176.5,-36"/>
<text text-anchor="middle" x="1149.5" y="-14.3" font-family="Times,serif" font-size="14.00">(...)</text>
</g>
<!-- 535&#45;&gt;619 -->
<g id="edge27" class="edge">
<title>535&#45;&gt;619</title>
<path fill="none" stroke="black" d="M1129.19,-71.76C1132.54,-63.04 1136.01,-54.04 1139.11,-45.99"/>
<polygon fill="black" stroke="black" points="1142.47,-46.99 1142.8,-36.41 1135.94,-44.48 1142.47,-46.99"/>
</g>
<!-- 661 -->
<g id="node30" class="node">
<title>661</title>
<polygon fill="#c0c0c0" stroke="black" points="1289.5,-36 1235.5,-36 1235.5,0 1289.5,0 1289.5,-36"/>
<text text-anchor="middle" x="1262.5" y="-14.3" font-family="Times,serif" font-size="14.00">(...)</text>
</g>
<!-- 660&#45;&gt;661 -->
<g id="edge29" class="edge">
<title>660&#45;&gt;661</title>
<path fill="none" stroke="black" d="M1282.81,-71.76C1279.46,-63.04 1275.99,-54.04 1272.89,-45.99"/>
<polygon fill="black" stroke="black" points="1276.06,-44.48 1269.2,-36.41 1269.53,-46.99 1276.06,-44.48"/>
</g>
<!-- 750 -->
<g id="node31" class="node">
<title>750</title>
<polygon fill="#c0c0c0" stroke="black" points="1361.5,-36 1307.5,-36 1307.5,0 1361.5,0 1361.5,-36"/>
<text text-anchor="middle" x="1334.5" y="-14.3" font-family="Times,serif" font-size="14.00">(...)</text>
</g>
<!-- 660&#45;&gt;750 -->
<g id="edge30" class="edge">
<title>660&#45;&gt;750</title>
<path fill="none" stroke="black" d="M1314.19,-71.76C1317.54,-63.04 1321.01,-54.04 1324.11,-45.99"/>
<polygon fill="black" stroke="black" points="1327.47,-46.99 1327.8,-36.41 1320.94,-44.48 1327.47,-46.99"/>
</g>
</g>
</svg>
