<?xml version="1.0" encoding="UTF-8" standalone="no"?>
<!DOCTYPE svg PUBLIC "-//W3C//DTD SVG 1.1//EN"
 "http://www.w3.org/Graphics/SVG/1.1/DTD/svg11.dtd">
<!-- Generated by graphviz version 2.43.0 (0)
 -->
<!-- Title: Tree Pages: 1 -->
<svg width="2685pt" height="520pt"
 viewBox="0.00 0.00 2685.00 520.00" xmlns="http://www.w3.org/2000/svg" xmlns:xlink="http://www.w3.org/1999/xlink">
<g id="graph0" class="graph" transform="scale(1 1) rotate(0) translate(4 516)">
<title>Tree</title>
<polygon fill="white" stroke="transparent" points="-4,4 -4,-516 2681,-516 2681,4 -4,4"/>
<!-- 0 -->
<g id="node1" class="node">
<title>0</title>
<polygon fill="#fefdfb" stroke="black" points="1469,-512 1086,-512 1086,-429 1469,-429 1469,-512"/>
<text text-anchor="middle" x="1277.5" y="-496.8" font-family="Times,serif" font-size="14.00">CCR &lt;= 0.55</text>
<text text-anchor="middle" x="1277.5" y="-481.8" font-family="Times,serif" font-size="14.00">gini = 0.834</text>
<text text-anchor="middle" x="1277.5" y="-466.8" font-family="Times,serif" font-size="14.00">samples = 26325</text>
<text text-anchor="middle" x="1277.5" y="-451.8" font-family="Times,serif" font-size="14.00">value = [5212, 3817, 218, 3740, 4044, 4496, 4798]</text>
<text text-anchor="middle" x="1277.5" y="-436.8" font-family="Times,serif" font-size="14.00">class = rku</text>
</g>
<!-- 1 -->
<g id="node2" class="node">
<title>1</title>
<polygon fill="#fffeff" stroke="black" points="1149.5,-393 775.5,-393 775.5,-310 1149.5,-310 1149.5,-393"/>
<text text-anchor="middle" x="962.5" y="-377.8" font-family="Times,serif" font-size="14.00">nbproc &lt;= 4.5</text>
<text text-anchor="middle" x="962.5" y="-362.8" font-family="Times,serif" font-size="14.00">gini = 0.83</text>
<text text-anchor="middle" x="962.5" y="-347.8" font-family="Times,serif" font-size="14.00">samples = 10690</text>
<text text-anchor="middle" x="962.5" y="-332.8" font-family="Times,serif" font-size="14.00">value = [1992, 1350, 10, 1594, 1980, 2034, 1730]</text>
<text text-anchor="middle" x="962.5" y="-317.8" font-family="Times,serif" font-size="14.00">class = rkusd</text>
</g>
<!-- 0&#45;&gt;1 -->
<g id="edge1" class="edge">
<title>0&#45;&gt;1</title>
<path fill="none" stroke="black" d="M1168.21,-428.91C1140.11,-418.47 1109.75,-407.19 1081.2,-396.59"/>
<polygon fill="black" stroke="black" points="1082.19,-393.22 1071.59,-393.02 1079.75,-399.78 1082.19,-393.22"/>
<text text-anchor="middle" x="1082.01" y="-412.05" font-family="Times,serif" font-size="14.00">True</text>
</g>
<!-- 260 -->
<g id="node17" class="node">
<title>260</title>
<polygon fill="#fffdfd" stroke="black" points="1812,-393 1429,-393 1429,-310 1812,-310 1812,-393"/>
<text text-anchor="middle" x="1620.5" y="-377.8" font-family="Times,serif" font-size="14.00">sdComp &lt;= 0.65</text>
<text text-anchor="middle" x="1620.5" y="-362.8" font-family="Times,serif" font-size="14.00">gini = 0.833</text>
<text text-anchor="middle" x="1620.5" y="-347.8" font-family="Times,serif" font-size="14.00">samples = 15635</text>
<text text-anchor="middle" x="1620.5" y="-332.8" font-family="Times,serif" font-size="14.00">value = [3220, 2467, 208, 2146, 2064, 2462, 3068]</text>
<text text-anchor="middle" x="1620.5" y="-317.8" font-family="Times,serif" font-size="14.00">class = rku</text>
</g>
<!-- 0&#45;&gt;260 -->
<g id="edge16" class="edge">
<title>0&#45;&gt;260</title>
<path fill="none" stroke="black" d="M1396.5,-428.91C1427.36,-418.38 1460.74,-407 1492.06,-396.31"/>
<polygon fill="black" stroke="black" points="1493.37,-399.56 1501.71,-393.02 1491.11,-392.94 1493.37,-399.56"/>
<text text-anchor="middle" x="1490.68" y="-411.76" font-family="Times,serif" font-size="14.00">False</text>
</g>
<!-- 2 -->
<g id="node3" class="node">
<title>2</title>
<polygon fill="#f5f6fe" stroke="black" points="644.5,-274 324.5,-274 324.5,-191 644.5,-191 644.5,-274"/>
<text text-anchor="middle" x="484.5" y="-258.8" font-family="Times,serif" font-size="14.00">sdComp &lt;= 0.065</text>
<text text-anchor="middle" x="484.5" y="-243.8" font-family="Times,serif" font-size="14.00">gini = 0.82</text>
<text text-anchor="middle" x="484.5" y="-228.8" font-family="Times,serif" font-size="14.00">samples = 3340</text>
<text text-anchor="middle" x="484.5" y="-213.8" font-family="Times,serif" font-size="14.00">value = [610, 338, 10, 590, 792, 652, 348]</text>
<text text-anchor="middle" x="484.5" y="-198.8" font-family="Times,serif" font-size="14.00">class = cluHPS</text>
</g>
<!-- 1&#45;&gt;2 -->
<g id="edge2" class="edge">
<title>1&#45;&gt;2</title>
<path fill="none" stroke="black" d="M797,-309.99C750.91,-298.71 700.78,-286.44 654.45,-275.1"/>
<polygon fill="black" stroke="black" points="655.17,-271.67 644.62,-272.69 653.5,-278.47 655.17,-271.67"/>
</g>
<!-- 133 -->
<g id="node10" class="node">
<title>133</title>
<polygon fill="#ffffff" stroke="black" points="1145,-274 780,-274 780,-191 1145,-191 1145,-274"/>
<text text-anchor="middle" x="962.5" y="-258.8" font-family="Times,serif" font-size="14.00">sdComm &lt;= 0.02</text>
<text text-anchor="middle" x="962.5" y="-243.8" font-family="Times,serif" font-size="14.00">gini = 0.83</text>
<text text-anchor="middle" x="962.5" y="-228.8" font-family="Times,serif" font-size="14.00">samples = 7350</text>
<text text-anchor="middle" x="962.5" y="-213.8" font-family="Times,serif" font-size="14.00">value = [1382, 1012, 0, 1004, 1188, 1382, 1382]</text>
<text text-anchor="middle" x="962.5" y="-198.8" font-family="Times,serif" font-size="14.00">class = rku</text>
</g>
<!-- 1&#45;&gt;133 -->
<g id="edge9" class="edge">
<title>1&#45;&gt;133</title>
<path fill="none" stroke="black" d="M962.5,-309.91C962.5,-301.65 962.5,-292.86 962.5,-284.3"/>
<polygon fill="black" stroke="black" points="966,-284.02 962.5,-274.02 959,-284.02 966,-284.02"/>
</g>
<!-- 3 -->
<g id="node4" class="node">
<title>3</title>
<polygon fill="#fffefd" stroke="black" points="311,-155 0,-155 0,-72 311,-72 311,-155"/>
<text text-anchor="middle" x="155.5" y="-139.8" font-family="Times,serif" font-size="14.00">graphSize &lt;= 22.5</text>
<text text-anchor="middle" x="155.5" y="-124.8" font-family="Times,serif" font-size="14.00">gini = 0.795</text>
<text text-anchor="middle" x="155.5" y="-109.8" font-family="Times,serif" font-size="14.00">samples = 1266</text>
<text text-anchor="middle" x="155.5" y="-94.8" font-family="Times,serif" font-size="14.00">value = [356, 80, 10, 146, 182, 346, 146]</text>
<text text-anchor="middle" x="155.5" y="-79.8" font-family="Times,serif" font-size="14.00">class = rku</text>
</g>
<!-- 2&#45;&gt;3 -->
<g id="edge3" class="edge">
<title>2&#45;&gt;3</title>
<path fill="none" stroke="black" d="M370.36,-190.91C340.88,-180.43 309.02,-169.1 279.09,-158.45"/>
<polygon fill="black" stroke="black" points="280.04,-155.07 269.44,-155.02 277.69,-161.67 280.04,-155.07"/>
</g>
<!-- 88 -->
<g id="node7" class="node">
<title>88</title>
<polygon fill="#ebeefc" stroke="black" points="640,-155 329,-155 329,-72 640,-72 640,-155"/>
<text text-anchor="middle" x="484.5" y="-139.8" font-family="Times,serif" font-size="14.00">graphDepth &lt;= 9.0</text>
<text text-anchor="middle" x="484.5" y="-124.8" font-family="Times,serif" font-size="14.00">gini = 0.806</text>
<text text-anchor="middle" x="484.5" y="-109.8" font-family="Times,serif" font-size="14.00">samples = 2074</text>
<text text-anchor="middle" x="484.5" y="-94.8" font-family="Times,serif" font-size="14.00">value = [254, 258, 0, 444, 610, 306, 202]</text>
<text text-anchor="middle" x="484.5" y="-79.8" font-family="Times,serif" font-size="14.00">class = cluHPS</text>
</g>
<!-- 2&#45;&gt;88 -->
<g id="edge6" class="edge">
<title>2&#45;&gt;88</title>
<path fill="none" stroke="black" d="M484.5,-190.91C484.5,-182.65 484.5,-173.86 484.5,-165.3"/>
<polygon fill="black" stroke="black" points="488,-165.02 484.5,-155.02 481,-165.02 488,-165.02"/>
</g>
<!-- 4 -->
<g id="node5" class="node">
<title>4</title>
<polygon fill="#c0c0c0" stroke="black" points="146.5,-36 92.5,-36 92.5,0 146.5,0 146.5,-36"/>
<text text-anchor="middle" x="119.5" y="-14.3" font-family="Times,serif" font-size="14.00">(...)</text>
</g>
<!-- 3&#45;&gt;4 -->
<g id="edge4" class="edge">
<title>3&#45;&gt;4</title>
<path fill="none" stroke="black" d="M139.81,-71.76C136.46,-63.04 132.99,-54.04 129.89,-45.99"/>
<polygon fill="black" stroke="black" points="133.06,-44.48 126.2,-36.41 126.53,-46.99 133.06,-44.48"/>
</g>
<!-- 25 -->
<g id="node6" class="node">
<title>25</title>
<polygon fill="#c0c0c0" stroke="black" points="218.5,-36 164.5,-36 164.5,0 218.5,0 218.5,-36"/>
<text text-anchor="middle" x="191.5" y="-14.3" font-family="Times,serif" font-size="14.00">(...)</text>
</g>
<!-- 3&#45;&gt;25 -->
<g id="edge5" class="edge">
<title>3&#45;&gt;25</title>
<path fill="none" stroke="black" d="M171.19,-71.76C174.54,-63.04 178.01,-54.04 181.11,-45.99"/>
<polygon fill="black" stroke="black" points="184.47,-46.99 184.8,-36.41 177.94,-44.48 184.47,-46.99"/>
</g>
<!-- 89 -->
<g id="node8" class="node">
<title>89</title>
<polygon fill="#c0c0c0" stroke="black" points="475.5,-36 421.5,-36 421.5,0 475.5,0 475.5,-36"/>
<text text-anchor="middle" x="448.5" y="-14.3" font-family="Times,serif" font-size="14.00">(...)</text>
</g>
<!-- 88&#45;&gt;89 -->
<g id="edge7" class="edge">
<title>88&#45;&gt;89</title>
<path fill="none" stroke="black" d="M468.81,-71.76C465.46,-63.04 461.99,-54.04 458.89,-45.99"/>
<polygon fill="black" stroke="black" points="462.06,-44.48 455.2,-36.41 455.53,-46.99 462.06,-44.48"/>
</g>
<!-- 112 -->
<g id="node9" class="node">
<title>112</title>
<polygon fill="#c0c0c0" stroke="black" points="547.5,-36 493.5,-36 493.5,0 547.5,0 547.5,-36"/>
<text text-anchor="middle" x="520.5" y="-14.3" font-family="Times,serif" font-size="14.00">(...)</text>
</g>
<!-- 88&#45;&gt;112 -->
<g id="edge8" class="edge">
<title>88&#45;&gt;112</title>
<path fill="none" stroke="black" d="M500.19,-71.76C503.54,-63.04 507.01,-54.04 510.11,-45.99"/>
<polygon fill="black" stroke="black" points="513.47,-46.99 513.8,-36.41 506.94,-44.48 513.47,-46.99"/>
</g>
<!-- 134 -->
<g id="node11" class="node">
<title>134</title>
<polygon fill="#fefdff" stroke="black" points="969,-155 658,-155 658,-72 969,-72 969,-155"/>
<text text-anchor="middle" x="813.5" y="-139.8" font-family="Times,serif" font-size="14.00">graphSize &lt;= 40.0</text>
<text text-anchor="middle" x="813.5" y="-124.8" font-family="Times,serif" font-size="14.00">gini = 0.827</text>
<text text-anchor="middle" x="813.5" y="-109.8" font-family="Times,serif" font-size="14.00">samples = 2620</text>
<text text-anchor="middle" x="813.5" y="-94.8" font-family="Times,serif" font-size="14.00">value = [482, 272, 0, 388, 494, 514, 470]</text>
<text text-anchor="middle" x="813.5" y="-79.8" font-family="Times,serif" font-size="14.00">class = rkusd</text>
</g>
<!-- 133&#45;&gt;134 -->
<g id="edge10" class="edge">
<title>133&#45;&gt;134</title>
<path fill="none" stroke="black" d="M910.81,-190.91C898.67,-181.38 885.64,-171.15 873.19,-161.37"/>
<polygon fill="black" stroke="black" points="875.13,-158.44 865.1,-155.02 870.81,-163.95 875.13,-158.44"/>
</g>
<!-- 177 -->
<g id="node14" class="node">
<title>177</title>
<polygon fill="#fffeff" stroke="black" points="1298,-155 987,-155 987,-72 1298,-72 1298,-155"/>
<text text-anchor="middle" x="1142.5" y="-139.8" font-family="Times,serif" font-size="14.00">graphDepth &lt;= 3.5</text>
<text text-anchor="middle" x="1142.5" y="-124.8" font-family="Times,serif" font-size="14.00">gini = 0.83</text>
<text text-anchor="middle" x="1142.5" y="-109.8" font-family="Times,serif" font-size="14.00">samples = 4730</text>
<text text-anchor="middle" x="1142.5" y="-94.8" font-family="Times,serif" font-size="14.00">value = [900, 740, 0, 616, 694, 868, 912]</text>
<text text-anchor="middle" x="1142.5" y="-79.8" font-family="Times,serif" font-size="14.00">class = rkuad</text>
</g>
<!-- 133&#45;&gt;177 -->
<g id="edge13" class="edge">
<title>133&#45;&gt;177</title>
<path fill="none" stroke="black" d="M1024.95,-190.91C1040.03,-181.11 1056.25,-170.56 1071.68,-160.53"/>
<polygon fill="black" stroke="black" points="1073.68,-163.41 1080.16,-155.02 1069.87,-157.54 1073.68,-163.41"/>
</g>
<!-- 135 -->
<g id="node12" class="node">
<title>135</title>
<polygon fill="#c0c0c0" stroke="black" points="804.5,-36 750.5,-36 750.5,0 804.5,0 804.5,-36"/>
<text text-anchor="middle" x="777.5" y="-14.3" font-family="Times,serif" font-size="14.00">(...)</text>
</g>
<!-- 134&#45;&gt;135 -->
<g id="edge11" class="edge">
<title>134&#45;&gt;135</title>
<path fill="none" stroke="black" d="M797.81,-71.76C794.46,-63.04 790.99,-54.04 787.89,-45.99"/>
<polygon fill="black" stroke="black" points="791.06,-44.48 784.2,-36.41 784.53,-46.99 791.06,-44.48"/>
</g>
<!-- 158 -->
<g id="node13" class="node">
<title>158</title>
<polygon fill="#c0c0c0" stroke="black" points="876.5,-36 822.5,-36 822.5,0 876.5,0 876.5,-36"/>
<text text-anchor="middle" x="849.5" y="-14.3" font-family="Times,serif" font-size="14.00">(...)</text>
</g>
<!-- 134&#45;&gt;158 -->
<g id="edge12" class="edge">
<title>134&#45;&gt;158</title>
<path fill="none" stroke="black" d="M829.19,-71.76C832.54,-63.04 836.01,-54.04 839.11,-45.99"/>
<polygon fill="black" stroke="black" points="842.47,-46.99 842.8,-36.41 835.94,-44.48 842.47,-46.99"/>
</g>
<!-- 178 -->
<g id="node15" class="node">
<title>178</title>
<polygon fill="#c0c0c0" stroke="black" points="1133.5,-36 1079.5,-36 1079.5,0 1133.5,0 1133.5,-36"/>
<text text-anchor="middle" x="1106.5" y="-14.3" font-family="Times,serif" font-size="14.00">(...)</text>
</g>
<!-- 177&#45;&gt;178 -->
<g id="edge14" class="edge">
<title>177&#45;&gt;178</title>
<path fill="none" stroke="black" d="M1126.81,-71.76C1123.46,-63.04 1119.99,-54.04 1116.89,-45.99"/>
<polygon fill="black" stroke="black" points="1120.06,-44.48 1113.2,-36.41 1113.53,-46.99 1120.06,-44.48"/>
</g>
<!-- 189 -->
<g id="node16" class="node">
<title>189</title>
<polygon fill="#c0c0c0" stroke="black" points="1205.5,-36 1151.5,-36 1151.5,0 1205.5,0 1205.5,-36"/>
<text text-anchor="middle" x="1178.5" y="-14.3" font-family="Times,serif" font-size="14.00">(...)</text>
</g>
<!-- 177&#45;&gt;189 -->
<g id="edge15" class="edge">
<title>177&#45;&gt;189</title>
<path fill="none" stroke="black" d="M1158.19,-71.76C1161.54,-63.04 1165.01,-54.04 1168.11,-45.99"/>
<polygon fill="black" stroke="black" points="1171.47,-46.99 1171.8,-36.41 1164.94,-44.48 1171.47,-46.99"/>
</g>
<!-- 261 -->
<g id="node18" class="node">
<title>261</title>
<polygon fill="#fefaf7" stroke="black" points="1780.5,-274 1460.5,-274 1460.5,-191 1780.5,-191 1780.5,-274"/>
<text text-anchor="middle" x="1620.5" y="-258.8" font-family="Times,serif" font-size="14.00">graphSize &lt;= 40.0</text>
<text text-anchor="middle" x="1620.5" y="-243.8" font-family="Times,serif" font-size="14.00">gini = 0.824</text>
<text text-anchor="middle" x="1620.5" y="-228.8" font-family="Times,serif" font-size="14.00">samples = 3854</text>
<text text-anchor="middle" x="1620.5" y="-213.8" font-family="Times,serif" font-size="14.00">value = [938, 434, 50, 552, 448, 624, 808]</text>
<text text-anchor="middle" x="1620.5" y="-198.8" font-family="Times,serif" font-size="14.00">class = rku</text>
</g>
<!-- 260&#45;&gt;261 -->
<g id="edge17" class="edge">
<title>260&#45;&gt;261</title>
<path fill="none" stroke="black" d="M1620.5,-309.91C1620.5,-301.65 1620.5,-292.86 1620.5,-284.3"/>
<polygon fill="black" stroke="black" points="1624,-284.02 1620.5,-274.02 1617,-284.02 1624,-284.02"/>
</g>
<!-- 444 -->
<g id="node25" class="node">
<title>444</title>
<polygon fill="#ffffff" stroke="black" points="2326,-274 1943,-274 1943,-191 2326,-191 2326,-274"/>
<text text-anchor="middle" x="2134.5" y="-258.8" font-family="Times,serif" font-size="14.00">nbproc &lt;= 4.5</text>
<text text-anchor="middle" x="2134.5" y="-243.8" font-family="Times,serif" font-size="14.00">gini = 0.834</text>
<text text-anchor="middle" x="2134.5" y="-228.8" font-family="Times,serif" font-size="14.00">samples = 11781</text>
<text text-anchor="middle" x="2134.5" y="-213.8" font-family="Times,serif" font-size="14.00">value = [2282, 2033, 158, 1594, 1616, 1838, 2260]</text>
<text text-anchor="middle" x="2134.5" y="-198.8" font-family="Times,serif" font-size="14.00">class = rku</text>
</g>
<!-- 260&#45;&gt;444 -->
<g id="edge24" class="edge">
<title>260&#45;&gt;444</title>
<path fill="none" stroke="black" d="M1798.47,-309.99C1846.23,-299.12 1898.03,-287.33 1946.32,-276.33"/>
<polygon fill="black" stroke="black" points="1947.28,-279.71 1956.25,-274.07 1945.72,-272.88 1947.28,-279.71"/>
</g>
<!-- 262 -->
<g id="node19" class="node">
<title>262</title>
<polygon fill="#fffefd" stroke="black" points="1636.5,-155 1316.5,-155 1316.5,-72 1636.5,-72 1636.5,-155"/>
<text text-anchor="middle" x="1476.5" y="-139.8" font-family="Times,serif" font-size="14.00">nbproc &lt;= 4.5</text>
<text text-anchor="middle" x="1476.5" y="-124.8" font-family="Times,serif" font-size="14.00">gini = 0.833</text>
<text text-anchor="middle" x="1476.5" y="-109.8" font-family="Times,serif" font-size="14.00">samples = 3114</text>
<text text-anchor="middle" x="1476.5" y="-94.8" font-family="Times,serif" font-size="14.00">value = [610, 412, 32, 500, 434, 538, 588]</text>
<text text-anchor="middle" x="1476.5" y="-79.8" font-family="Times,serif" font-size="14.00">class = rku</text>
</g>
<!-- 261&#45;&gt;262 -->
<g id="edge18" class="edge">
<title>261&#45;&gt;262</title>
<path fill="none" stroke="black" d="M1570.54,-190.91C1558.81,-181.38 1546.22,-171.15 1534.19,-161.37"/>
<polygon fill="black" stroke="black" points="1536.34,-158.61 1526.37,-155.02 1531.93,-164.04 1536.34,-158.61"/>
</g>
<!-- 355 -->
<g id="node22" class="node">
<title>355</title>
<polygon fill="#fae5d6" stroke="black" points="1938.5,-155 1654.5,-155 1654.5,-72 1938.5,-72 1938.5,-155"/>
<text text-anchor="middle" x="1796.5" y="-139.8" font-family="Times,serif" font-size="14.00">nbproc &lt;= 4.5</text>
<text text-anchor="middle" x="1796.5" y="-124.8" font-family="Times,serif" font-size="14.00">gini = 0.695</text>
<text text-anchor="middle" x="1796.5" y="-109.8" font-family="Times,serif" font-size="14.00">samples = 740</text>
<text text-anchor="middle" x="1796.5" y="-94.8" font-family="Times,serif" font-size="14.00">value = [328, 22, 18, 52, 14, 86, 220]</text>
<text text-anchor="middle" x="1796.5" y="-79.8" font-family="Times,serif" font-size="14.00">class = rku</text>
</g>
<!-- 261&#45;&gt;355 -->
<g id="edge21" class="edge">
<title>261&#45;&gt;355</title>
<path fill="none" stroke="black" d="M1681.56,-190.91C1696.17,-181.2 1711.87,-170.76 1726.84,-160.81"/>
<polygon fill="black" stroke="black" points="1729.16,-163.47 1735.55,-155.02 1725.28,-157.64 1729.16,-163.47"/>
</g>
<!-- 263 -->
<g id="node20" class="node">
<title>263</title>
<polygon fill="#c0c0c0" stroke="black" points="1467.5,-36 1413.5,-36 1413.5,0 1467.5,0 1467.5,-36"/>
<text text-anchor="middle" x="1440.5" y="-14.3" font-family="Times,serif" font-size="14.00">(...)</text>
</g>
<!-- 262&#45;&gt;263 -->
<g id="edge19" class="edge">
<title>262&#45;&gt;263</title>
<path fill="none" stroke="black" d="M1460.81,-71.76C1457.46,-63.04 1453.99,-54.04 1450.89,-45.99"/>
<polygon fill="black" stroke="black" points="1454.06,-44.48 1447.2,-36.41 1447.53,-46.99 1454.06,-44.48"/>
</g>
<!-- 310 -->
<g id="node21" class="node">
<title>310</title>
<polygon fill="#c0c0c0" stroke="black" points="1539.5,-36 1485.5,-36 1485.5,0 1539.5,0 1539.5,-36"/>
<text text-anchor="middle" x="1512.5" y="-14.3" font-family="Times,serif" font-size="14.00">(...)</text>
</g>
<!-- 262&#45;&gt;310 -->
<g id="edge20" class="edge">
<title>262&#45;&gt;310</title>
<path fill="none" stroke="black" d="M1492.19,-71.76C1495.54,-63.04 1499.01,-54.04 1502.11,-45.99"/>
<polygon fill="black" stroke="black" points="1505.47,-46.99 1505.8,-36.41 1498.94,-44.48 1505.47,-46.99"/>
</g>
<!-- 356 -->
<g id="node23" class="node">
<title>356</title>
<polygon fill="#c0c0c0" stroke="black" points="1787.5,-36 1733.5,-36 1733.5,0 1787.5,0 1787.5,-36"/>
<text text-anchor="middle" x="1760.5" y="-14.3" font-family="Times,serif" font-size="14.00">(...)</text>
</g>
<!-- 355&#45;&gt;356 -->
<g id="edge22" class="edge">
<title>355&#45;&gt;356</title>
<path fill="none" stroke="black" d="M1780.81,-71.76C1777.46,-63.04 1773.99,-54.04 1770.89,-45.99"/>
<polygon fill="black" stroke="black" points="1774.06,-44.48 1767.2,-36.41 1767.53,-46.99 1774.06,-44.48"/>
</g>
<!-- 399 -->
<g id="node24" class="node">
<title>399</title>
<polygon fill="#c0c0c0" stroke="black" points="1859.5,-36 1805.5,-36 1805.5,0 1859.5,0 1859.5,-36"/>
<text text-anchor="middle" x="1832.5" y="-14.3" font-family="Times,serif" font-size="14.00">(...)</text>
</g>
<!-- 355&#45;&gt;399 -->
<g id="edge23" class="edge">
<title>355&#45;&gt;399</title>
<path fill="none" stroke="black" d="M1812.19,-71.76C1815.54,-63.04 1819.01,-54.04 1822.11,-45.99"/>
<polygon fill="black" stroke="black" points="1825.47,-46.99 1825.8,-36.41 1818.94,-44.48 1825.47,-46.99"/>
</g>
<!-- 445 -->
<g id="node26" class="node">
<title>445</title>
<polygon fill="#ffffff" stroke="black" points="2312.5,-155 1956.5,-155 1956.5,-72 2312.5,-72 2312.5,-155"/>
<text text-anchor="middle" x="2134.5" y="-139.8" font-family="Times,serif" font-size="14.00">graphDepth &lt;= 9.0</text>
<text text-anchor="middle" x="2134.5" y="-124.8" font-family="Times,serif" font-size="14.00">gini = 0.836</text>
<text text-anchor="middle" x="2134.5" y="-109.8" font-family="Times,serif" font-size="14.00">samples = 6074</text>
<text text-anchor="middle" x="2134.5" y="-94.8" font-family="Times,serif" font-size="14.00">value = [1128, 994, 108, 754, 1010, 942, 1138]</text>
<text text-anchor="middle" x="2134.5" y="-79.8" font-family="Times,serif" font-size="14.00">class = rkuad</text>
</g>
<!-- 444&#45;&gt;445 -->
<g id="edge25" class="edge">
<title>444&#45;&gt;445</title>
<path fill="none" stroke="black" d="M2134.5,-190.91C2134.5,-182.65 2134.5,-173.86 2134.5,-165.3"/>
<polygon fill="black" stroke="black" points="2138,-165.02 2134.5,-155.02 2131,-165.02 2138,-165.02"/>
</g>
<!-- 630 -->
<g id="node29" class="node">
<title>630</title>
<polygon fill="#fffefe" stroke="black" points="2677,-155 2330,-155 2330,-72 2677,-72 2677,-155"/>
<text text-anchor="middle" x="2503.5" y="-139.8" font-family="Times,serif" font-size="14.00">sdComp &lt;= 6.5</text>
<text text-anchor="middle" x="2503.5" y="-124.8" font-family="Times,serif" font-size="14.00">gini = 0.83</text>
<text text-anchor="middle" x="2503.5" y="-109.8" font-family="Times,serif" font-size="14.00">samples = 5707</text>
<text text-anchor="middle" x="2503.5" y="-94.8" font-family="Times,serif" font-size="14.00">value = [1154, 1039, 50, 840, 606, 896, 1122]</text>
<text text-anchor="middle" x="2503.5" y="-79.8" font-family="Times,serif" font-size="14.00">class = rku</text>
</g>
<!-- 444&#45;&gt;630 -->
<g id="edge28" class="edge">
<title>444&#45;&gt;630</title>
<path fill="none" stroke="black" d="M2262.26,-190.99C2295.62,-180.41 2331.72,-168.97 2365.58,-158.23"/>
<polygon fill="black" stroke="black" points="2367.06,-161.43 2375.53,-155.07 2364.94,-154.76 2367.06,-161.43"/>
</g>
<!-- 446 -->
<g id="node27" class="node">
<title>446</title>
<polygon fill="#c0c0c0" stroke="black" points="2125.5,-36 2071.5,-36 2071.5,0 2125.5,0 2125.5,-36"/>
<text text-anchor="middle" x="2098.5" y="-14.3" font-family="Times,serif" font-size="14.00">(...)</text>
</g>
<!-- 445&#45;&gt;446 -->
<g id="edge26" class="edge">
<title>445&#45;&gt;446</title>
<path fill="none" stroke="black" d="M2118.81,-71.76C2115.46,-63.04 2111.99,-54.04 2108.89,-45.99"/>
<polygon fill="black" stroke="black" points="2112.06,-44.48 2105.2,-36.41 2105.53,-46.99 2112.06,-44.48"/>
</g>
<!-- 541 -->
<g id="node28" class="node">
<title>541</title>
<polygon fill="#c0c0c0" stroke="black" points="2197.5,-36 2143.5,-36 2143.5,0 2197.5,0 2197.5,-36"/>
<text text-anchor="middle" x="2170.5" y="-14.3" font-family="Times,serif" font-size="14.00">(...)</text>
</g>
<!-- 445&#45;&gt;541 -->
<g id="edge27" class="edge">
<title>445&#45;&gt;541</title>
<path fill="none" stroke="black" d="M2150.19,-71.76C2153.54,-63.04 2157.01,-54.04 2160.11,-45.99"/>
<polygon fill="black" stroke="black" points="2163.47,-46.99 2163.8,-36.41 2156.94,-44.48 2163.47,-46.99"/>
</g>
<!-- 631 -->
<g id="node30" class="node">
<title>631</title>
<polygon fill="#c0c0c0" stroke="black" points="2494.5,-36 2440.5,-36 2440.5,0 2494.5,0 2494.5,-36"/>
<text text-anchor="middle" x="2467.5" y="-14.3" font-family="Times,serif" font-size="14.00">(...)</text>
</g>
<!-- 630&#45;&gt;631 -->
<g id="edge29" class="edge">
<title>630&#45;&gt;631</title>
<path fill="none" stroke="black" d="M2487.81,-71.76C2484.46,-63.04 2480.99,-54.04 2477.89,-45.99"/>
<polygon fill="black" stroke="black" points="2481.06,-44.48 2474.2,-36.41 2474.53,-46.99 2481.06,-44.48"/>
</g>
<!-- 766 -->
<g id="node31" class="node">
<title>766</title>
<polygon fill="#c0c0c0" stroke="black" points="2566.5,-36 2512.5,-36 2512.5,0 2566.5,0 2566.5,-36"/>
<text text-anchor="middle" x="2539.5" y="-14.3" font-family="Times,serif" font-size="14.00">(...)</text>
</g>
<!-- 630&#45;&gt;766 -->
<g id="edge30" class="edge">
<title>630&#45;&gt;766</title>
<path fill="none" stroke="black" d="M2519.19,-71.76C2522.54,-63.04 2526.01,-54.04 2529.11,-45.99"/>
<polygon fill="black" stroke="black" points="2532.47,-46.99 2532.8,-36.41 2525.94,-44.48 2532.47,-46.99"/>
</g>
</g>
</svg>
