<?xml version="1.0" encoding="UTF-8" standalone="no"?>
<!DOCTYPE svg PUBLIC "-//W3C//DTD SVG 1.1//EN"
 "http://www.w3.org/Graphics/SVG/1.1/DTD/svg11.dtd">
<!-- Generated by graphviz version 2.43.0 (0)
 -->
<!-- Title: Tree Pages: 1 -->
<svg width="2929pt" height="520pt"
 viewBox="0.00 0.00 2928.50 520.00" xmlns="http://www.w3.org/2000/svg" xmlns:xlink="http://www.w3.org/1999/xlink">
<g id="graph0" class="graph" transform="scale(1 1) rotate(0) translate(4 516)">
<title>Tree</title>
<polygon fill="white" stroke="transparent" points="-4,4 -4,-516 2924.5,-516 2924.5,4 -4,4"/>
<!-- 0 -->
<g id="node1" class="node">
<title>0</title>
<polygon fill="#fffdfc" stroke="black" points="1522.5,-512 1103.5,-512 1103.5,-429 1522.5,-429 1522.5,-512"/>
<text text-anchor="middle" x="1313" y="-496.8" font-family="Times,serif" font-size="14.00">sdComm &lt;= 0.65</text>
<text text-anchor="middle" x="1313" y="-481.8" font-family="Times,serif" font-size="14.00">gini = 0.842</text>
<text text-anchor="middle" x="1313" y="-466.8" font-family="Times,serif" font-size="14.00">samples = 68335</text>
<text text-anchor="middle" x="1313" y="-451.8" font-family="Times,serif" font-size="14.00">value = [13783, 9326, 3309, 8564, 9670, 10876, 12807]</text>
<text text-anchor="middle" x="1313" y="-436.8" font-family="Times,serif" font-size="14.00">class = rku</text>
</g>
<!-- 1 -->
<g id="node2" class="node">
<title>1</title>
<polygon fill="#fefcfa" stroke="black" points="1175,-393 801,-393 801,-310 1175,-310 1175,-393"/>
<text text-anchor="middle" x="988" y="-377.8" font-family="Times,serif" font-size="14.00">graphSize &lt;= 40.0</text>
<text text-anchor="middle" x="988" y="-362.8" font-family="Times,serif" font-size="14.00">gini = 0.816</text>
<text text-anchor="middle" x="988" y="-347.8" font-family="Times,serif" font-size="14.00">samples = 12675</text>
<text text-anchor="middle" x="988" y="-332.8" font-family="Times,serif" font-size="14.00">value = [3046, 888, 139, 1484, 1932, 2822, 2364]</text>
<text text-anchor="middle" x="988" y="-317.8" font-family="Times,serif" font-size="14.00">class = rku</text>
</g>
<!-- 0&#45;&gt;1 -->
<g id="edge1" class="edge">
<title>0&#45;&gt;1</title>
<path fill="none" stroke="black" d="M1200.24,-428.91C1171.13,-418.43 1139.65,-407.1 1110.09,-396.45"/>
<polygon fill="black" stroke="black" points="1111.15,-393.11 1100.56,-393.02 1108.78,-399.7 1111.15,-393.11"/>
<text text-anchor="middle" x="1111.2" y="-411.94" font-family="Times,serif" font-size="14.00">True</text>
</g>
<!-- 454 -->
<g id="node17" class="node">
<title>454</title>
<polygon fill="#fffefe" stroke="black" points="1923,-393 1513,-393 1513,-310 1923,-310 1923,-393"/>
<text text-anchor="middle" x="1718" y="-377.8" font-family="Times,serif" font-size="14.00">nbproc &lt;= 4.5</text>
<text text-anchor="middle" x="1718" y="-362.8" font-family="Times,serif" font-size="14.00">gini = 0.845</text>
<text text-anchor="middle" x="1718" y="-347.8" font-family="Times,serif" font-size="14.00">samples = 55660</text>
<text text-anchor="middle" x="1718" y="-332.8" font-family="Times,serif" font-size="14.00">value = [10737, 8438, 3170, 7080, 7738, 8054, 10443]</text>
<text text-anchor="middle" x="1718" y="-317.8" font-family="Times,serif" font-size="14.00">class = rku</text>
</g>
<!-- 0&#45;&gt;454 -->
<g id="edge16" class="edge">
<title>0&#45;&gt;454</title>
<path fill="none" stroke="black" d="M1453.23,-428.99C1490.15,-418.32 1530.14,-406.77 1567.58,-395.96"/>
<polygon fill="black" stroke="black" points="1568.91,-399.21 1577.55,-393.07 1566.97,-392.49 1568.91,-399.21"/>
<text text-anchor="middle" x="1565.47" y="-411.26" font-family="Times,serif" font-size="14.00">False</text>
</g>
<!-- 2 -->
<g id="node3" class="node">
<title>2</title>
<polygon fill="#fffefe" stroke="black" points="703,-274 329,-274 329,-191 703,-191 703,-274"/>
<text text-anchor="middle" x="516" y="-258.8" font-family="Times,serif" font-size="14.00">graphDepth &lt;= 3.5</text>
<text text-anchor="middle" x="516" y="-243.8" font-family="Times,serif" font-size="14.00">gini = 0.827</text>
<text text-anchor="middle" x="516" y="-228.8" font-family="Times,serif" font-size="14.00">samples = 10127</text>
<text text-anchor="middle" x="516" y="-213.8" font-family="Times,serif" font-size="14.00">value = [2094, 846, 137, 1388, 1750, 2050, 1862]</text>
<text text-anchor="middle" x="516" y="-198.8" font-family="Times,serif" font-size="14.00">class = rku</text>
</g>
<!-- 1&#45;&gt;2 -->
<g id="edge2" class="edge">
<title>1&#45;&gt;2</title>
<path fill="none" stroke="black" d="M824.57,-309.99C780.99,-299.19 733.75,-287.48 689.64,-276.54"/>
<polygon fill="black" stroke="black" points="690.23,-273.08 679.69,-274.07 688.55,-279.88 690.23,-273.08"/>
</g>
<!-- 237 -->
<g id="node10" class="node">
<title>237</title>
<polygon fill="#fcf2eb" stroke="black" points="1134.5,-274 841.5,-274 841.5,-191 1134.5,-191 1134.5,-274"/>
<text text-anchor="middle" x="988" y="-258.8" font-family="Times,serif" font-size="14.00">nbproc &lt;= 4.5</text>
<text text-anchor="middle" x="988" y="-243.8" font-family="Times,serif" font-size="14.00">gini = 0.723</text>
<text text-anchor="middle" x="988" y="-228.8" font-family="Times,serif" font-size="14.00">samples = 2548</text>
<text text-anchor="middle" x="988" y="-213.8" font-family="Times,serif" font-size="14.00">value = [952, 42, 2, 96, 182, 772, 502]</text>
<text text-anchor="middle" x="988" y="-198.8" font-family="Times,serif" font-size="14.00">class = rku</text>
</g>
<!-- 1&#45;&gt;237 -->
<g id="edge9" class="edge">
<title>1&#45;&gt;237</title>
<path fill="none" stroke="black" d="M988,-309.91C988,-301.65 988,-292.86 988,-284.3"/>
<polygon fill="black" stroke="black" points="991.5,-284.02 988,-274.02 984.5,-284.02 991.5,-284.02"/>
</g>
<!-- 3 -->
<g id="node4" class="node">
<title>3</title>
<polygon fill="#fafbfe" stroke="black" points="320,-155 0,-155 0,-72 320,-72 320,-155"/>
<text text-anchor="middle" x="160" y="-139.8" font-family="Times,serif" font-size="14.00">sdComm &lt;= 0.065</text>
<text text-anchor="middle" x="160" y="-124.8" font-family="Times,serif" font-size="14.00">gini = 0.826</text>
<text text-anchor="middle" x="160" y="-109.8" font-family="Times,serif" font-size="14.00">samples = 2661</text>
<text text-anchor="middle" x="160" y="-94.8" font-family="Times,serif" font-size="14.00">value = [522, 172, 61, 486, 576, 404, 440]</text>
<text text-anchor="middle" x="160" y="-79.8" font-family="Times,serif" font-size="14.00">class = cluHPS</text>
</g>
<!-- 2&#45;&gt;3 -->
<g id="edge3" class="edge">
<title>2&#45;&gt;3</title>
<path fill="none" stroke="black" d="M392.49,-190.91C360.32,-180.33 325.52,-168.9 292.89,-158.17"/>
<polygon fill="black" stroke="black" points="293.89,-154.82 283.29,-155.02 291.7,-161.47 293.89,-154.82"/>
</g>
<!-- 62 -->
<g id="node7" class="node">
<title>62</title>
<polygon fill="#fefdff" stroke="black" points="694,-155 338,-155 338,-72 694,-72 694,-155"/>
<text text-anchor="middle" x="516" y="-139.8" font-family="Times,serif" font-size="14.00">sdComp &lt;= 0.02</text>
<text text-anchor="middle" x="516" y="-124.8" font-family="Times,serif" font-size="14.00">gini = 0.823</text>
<text text-anchor="middle" x="516" y="-109.8" font-family="Times,serif" font-size="14.00">samples = 7466</text>
<text text-anchor="middle" x="516" y="-94.8" font-family="Times,serif" font-size="14.00">value = [1572, 674, 76, 902, 1174, 1646, 1422]</text>
<text text-anchor="middle" x="516" y="-79.8" font-family="Times,serif" font-size="14.00">class = rkusd</text>
</g>
<!-- 2&#45;&gt;62 -->
<g id="edge6" class="edge">
<title>2&#45;&gt;62</title>
<path fill="none" stroke="black" d="M516,-190.91C516,-182.65 516,-173.86 516,-165.3"/>
<polygon fill="black" stroke="black" points="519.5,-165.02 516,-155.02 512.5,-165.02 519.5,-165.02"/>
</g>
<!-- 4 -->
<g id="node5" class="node">
<title>4</title>
<polygon fill="#c0c0c0" stroke="black" points="151,-36 97,-36 97,0 151,0 151,-36"/>
<text text-anchor="middle" x="124" y="-14.3" font-family="Times,serif" font-size="14.00">(...)</text>
</g>
<!-- 3&#45;&gt;4 -->
<g id="edge4" class="edge">
<title>3&#45;&gt;4</title>
<path fill="none" stroke="black" d="M144.31,-71.76C140.96,-63.04 137.49,-54.04 134.39,-45.99"/>
<polygon fill="black" stroke="black" points="137.56,-44.48 130.7,-36.41 131.03,-46.99 137.56,-44.48"/>
</g>
<!-- 27 -->
<g id="node6" class="node">
<title>27</title>
<polygon fill="#c0c0c0" stroke="black" points="223,-36 169,-36 169,0 223,0 223,-36"/>
<text text-anchor="middle" x="196" y="-14.3" font-family="Times,serif" font-size="14.00">(...)</text>
</g>
<!-- 3&#45;&gt;27 -->
<g id="edge5" class="edge">
<title>3&#45;&gt;27</title>
<path fill="none" stroke="black" d="M175.69,-71.76C179.04,-63.04 182.51,-54.04 185.61,-45.99"/>
<polygon fill="black" stroke="black" points="188.97,-46.99 189.3,-36.41 182.44,-44.48 188.97,-46.99"/>
</g>
<!-- 63 -->
<g id="node8" class="node">
<title>63</title>
<polygon fill="#c0c0c0" stroke="black" points="507,-36 453,-36 453,0 507,0 507,-36"/>
<text text-anchor="middle" x="480" y="-14.3" font-family="Times,serif" font-size="14.00">(...)</text>
</g>
<!-- 62&#45;&gt;63 -->
<g id="edge7" class="edge">
<title>62&#45;&gt;63</title>
<path fill="none" stroke="black" d="M500.31,-71.76C496.96,-63.04 493.49,-54.04 490.39,-45.99"/>
<polygon fill="black" stroke="black" points="493.56,-44.48 486.7,-36.41 487.03,-46.99 493.56,-44.48"/>
</g>
<!-- 98 -->
<g id="node9" class="node">
<title>98</title>
<polygon fill="#c0c0c0" stroke="black" points="579,-36 525,-36 525,0 579,0 579,-36"/>
<text text-anchor="middle" x="552" y="-14.3" font-family="Times,serif" font-size="14.00">(...)</text>
</g>
<!-- 62&#45;&gt;98 -->
<g id="edge8" class="edge">
<title>62&#45;&gt;98</title>
<path fill="none" stroke="black" d="M531.69,-71.76C535.04,-63.04 538.51,-54.04 541.61,-45.99"/>
<polygon fill="black" stroke="black" points="544.97,-46.99 545.3,-36.41 538.44,-44.48 544.97,-46.99"/>
</g>
<!-- 238 -->
<g id="node11" class="node">
<title>238</title>
<polygon fill="#fceee5" stroke="black" points="1005.5,-155 712.5,-155 712.5,-72 1005.5,-72 1005.5,-155"/>
<text text-anchor="middle" x="859" y="-139.8" font-family="Times,serif" font-size="14.00">graphSize &lt;= 75.0</text>
<text text-anchor="middle" x="859" y="-124.8" font-family="Times,serif" font-size="14.00">gini = 0.66</text>
<text text-anchor="middle" x="859" y="-109.8" font-family="Times,serif" font-size="14.00">samples = 1302</text>
<text text-anchor="middle" x="859" y="-94.8" font-family="Times,serif" font-size="14.00">value = [576, 12, 2, 14, 116, 466, 116]</text>
<text text-anchor="middle" x="859" y="-79.8" font-family="Times,serif" font-size="14.00">class = rku</text>
</g>
<!-- 237&#45;&gt;238 -->
<g id="edge10" class="edge">
<title>237&#45;&gt;238</title>
<path fill="none" stroke="black" d="M943.24,-190.91C932.94,-181.56 921.89,-171.54 911.29,-161.93"/>
<polygon fill="black" stroke="black" points="913.44,-159.15 903.68,-155.02 908.73,-164.33 913.44,-159.15"/>
</g>
<!-- 345 -->
<g id="node14" class="node">
<title>345</title>
<polygon fill="#fffdfe" stroke="black" points="1308,-155 1024,-155 1024,-72 1308,-72 1308,-155"/>
<text text-anchor="middle" x="1166" y="-139.8" font-family="Times,serif" font-size="14.00">sdComm &lt;= 0.2</text>
<text text-anchor="middle" x="1166" y="-124.8" font-family="Times,serif" font-size="14.00">gini = 0.745</text>
<text text-anchor="middle" x="1166" y="-109.8" font-family="Times,serif" font-size="14.00">samples = 1246</text>
<text text-anchor="middle" x="1166" y="-94.8" font-family="Times,serif" font-size="14.00">value = [376, 30, 0, 82, 66, 306, 386]</text>
<text text-anchor="middle" x="1166" y="-79.8" font-family="Times,serif" font-size="14.00">class = rkuad</text>
</g>
<!-- 237&#45;&gt;345 -->
<g id="edge13" class="edge">
<title>237&#45;&gt;345</title>
<path fill="none" stroke="black" d="M1049.76,-190.91C1064.67,-181.11 1080.71,-170.56 1095.97,-160.53"/>
<polygon fill="black" stroke="black" points="1097.92,-163.44 1104.35,-155.02 1094.07,-157.59 1097.92,-163.44"/>
</g>
<!-- 239 -->
<g id="node12" class="node">
<title>239</title>
<polygon fill="#c0c0c0" stroke="black" points="850,-36 796,-36 796,0 850,0 850,-36"/>
<text text-anchor="middle" x="823" y="-14.3" font-family="Times,serif" font-size="14.00">(...)</text>
</g>
<!-- 238&#45;&gt;239 -->
<g id="edge11" class="edge">
<title>238&#45;&gt;239</title>
<path fill="none" stroke="black" d="M843.31,-71.76C839.96,-63.04 836.49,-54.04 833.39,-45.99"/>
<polygon fill="black" stroke="black" points="836.56,-44.48 829.7,-36.41 830.03,-46.99 836.56,-44.48"/>
</g>
<!-- 294 -->
<g id="node13" class="node">
<title>294</title>
<polygon fill="#c0c0c0" stroke="black" points="922,-36 868,-36 868,0 922,0 922,-36"/>
<text text-anchor="middle" x="895" y="-14.3" font-family="Times,serif" font-size="14.00">(...)</text>
</g>
<!-- 238&#45;&gt;294 -->
<g id="edge12" class="edge">
<title>238&#45;&gt;294</title>
<path fill="none" stroke="black" d="M874.69,-71.76C878.04,-63.04 881.51,-54.04 884.61,-45.99"/>
<polygon fill="black" stroke="black" points="887.97,-46.99 888.3,-36.41 881.44,-44.48 887.97,-46.99"/>
</g>
<!-- 346 -->
<g id="node15" class="node">
<title>346</title>
<polygon fill="#c0c0c0" stroke="black" points="1157,-36 1103,-36 1103,0 1157,0 1157,-36"/>
<text text-anchor="middle" x="1130" y="-14.3" font-family="Times,serif" font-size="14.00">(...)</text>
</g>
<!-- 345&#45;&gt;346 -->
<g id="edge14" class="edge">
<title>345&#45;&gt;346</title>
<path fill="none" stroke="black" d="M1150.31,-71.76C1146.96,-63.04 1143.49,-54.04 1140.39,-45.99"/>
<polygon fill="black" stroke="black" points="1143.56,-44.48 1136.7,-36.41 1137.03,-46.99 1143.56,-44.48"/>
</g>
<!-- 435 -->
<g id="node16" class="node">
<title>435</title>
<polygon fill="#c0c0c0" stroke="black" points="1229,-36 1175,-36 1175,0 1229,0 1229,-36"/>
<text text-anchor="middle" x="1202" y="-14.3" font-family="Times,serif" font-size="14.00">(...)</text>
</g>
<!-- 345&#45;&gt;435 -->
<g id="edge15" class="edge">
<title>345&#45;&gt;435</title>
<path fill="none" stroke="black" d="M1181.69,-71.76C1185.04,-63.04 1188.51,-54.04 1191.61,-45.99"/>
<polygon fill="black" stroke="black" points="1194.97,-46.99 1195.3,-36.41 1188.44,-44.48 1194.97,-46.99"/>
</g>
<!-- 455 -->
<g id="node18" class="node">
<title>455</title>
<polygon fill="#fffffe" stroke="black" points="1914,-274 1522,-274 1522,-191 1914,-191 1914,-274"/>
<text text-anchor="middle" x="1718" y="-258.8" font-family="Times,serif" font-size="14.00">graphDepth &lt;= 6.5</text>
<text text-anchor="middle" x="1718" y="-243.8" font-family="Times,serif" font-size="14.00">gini = 0.846</text>
<text text-anchor="middle" x="1718" y="-228.8" font-family="Times,serif" font-size="14.00">samples = 28516</text>
<text text-anchor="middle" x="1718" y="-213.8" font-family="Times,serif" font-size="14.00">value = [5325, 4096, 1832, 3204, 4726, 4072, 5261]</text>
<text text-anchor="middle" x="1718" y="-198.8" font-family="Times,serif" font-size="14.00">class = rku</text>
</g>
<!-- 454&#45;&gt;455 -->
<g id="edge17" class="edge">
<title>454&#45;&gt;455</title>
<path fill="none" stroke="black" d="M1718,-309.91C1718,-301.65 1718,-292.86 1718,-284.3"/>
<polygon fill="black" stroke="black" points="1721.5,-284.02 1718,-274.02 1714.5,-284.02 1721.5,-284.02"/>
</g>
<!-- 644 -->
<g id="node25" class="node">
<title>644</title>
<polygon fill="#fffefd" stroke="black" points="2524,-274 2132,-274 2132,-191 2524,-191 2524,-274"/>
<text text-anchor="middle" x="2328" y="-258.8" font-family="Times,serif" font-size="14.00">graphSize &lt;= 40.0</text>
<text text-anchor="middle" x="2328" y="-243.8" font-family="Times,serif" font-size="14.00">gini = 0.842</text>
<text text-anchor="middle" x="2328" y="-228.8" font-family="Times,serif" font-size="14.00">samples = 27144</text>
<text text-anchor="middle" x="2328" y="-213.8" font-family="Times,serif" font-size="14.00">value = [5412, 4342, 1338, 3876, 3012, 3982, 5182]</text>
<text text-anchor="middle" x="2328" y="-198.8" font-family="Times,serif" font-size="14.00">class = rku</text>
</g>
<!-- 454&#45;&gt;644 -->
<g id="edge24" class="edge">
<title>454&#45;&gt;644</title>
<path fill="none" stroke="black" d="M1923.24,-311.13C1987.34,-298.84 2058.03,-285.28 2122.17,-272.98"/>
<polygon fill="black" stroke="black" points="2122.83,-276.42 2131.99,-271.1 2121.51,-269.54 2122.83,-276.42"/>
</g>
<!-- 456 -->
<g id="node19" class="node">
<title>456</title>
<polygon fill="#fffefd" stroke="black" points="1709.5,-155 1326.5,-155 1326.5,-72 1709.5,-72 1709.5,-155"/>
<text text-anchor="middle" x="1518" y="-139.8" font-family="Times,serif" font-size="14.00">sdComp &lt;= 2.0</text>
<text text-anchor="middle" x="1518" y="-124.8" font-family="Times,serif" font-size="14.00">gini = 0.836</text>
<text text-anchor="middle" x="1518" y="-109.8" font-family="Times,serif" font-size="14.00">samples = 12166</text>
<text text-anchor="middle" x="1518" y="-94.8" font-family="Times,serif" font-size="14.00">value = [2629, 1792, 714, 1104, 1362, 2034, 2531]</text>
<text text-anchor="middle" x="1518" y="-79.8" font-family="Times,serif" font-size="14.00">class = rku</text>
</g>
<!-- 455&#45;&gt;456 -->
<g id="edge18" class="edge">
<title>455&#45;&gt;456</title>
<path fill="none" stroke="black" d="M1648.61,-190.91C1631.7,-181.02 1613.5,-170.37 1596.21,-160.25"/>
<polygon fill="black" stroke="black" points="1597.67,-157.05 1587.27,-155.02 1594.13,-163.09 1597.67,-157.05"/>
</g>
<!-- 527 -->
<g id="node22" class="node">
<title>527</title>
<polygon fill="#f6f7fe" stroke="black" points="2119,-155 1727,-155 1727,-72 2119,-72 2119,-155"/>
<text text-anchor="middle" x="1923" y="-139.8" font-family="Times,serif" font-size="14.00">sdComp &lt;= 0.65</text>
<text text-anchor="middle" x="1923" y="-124.8" font-family="Times,serif" font-size="14.00">gini = 0.846</text>
<text text-anchor="middle" x="1923" y="-109.8" font-family="Times,serif" font-size="14.00">samples = 16350</text>
<text text-anchor="middle" x="1923" y="-94.8" font-family="Times,serif" font-size="14.00">value = [2696, 2304, 1118, 2100, 3364, 2038, 2730]</text>
<text text-anchor="middle" x="1923" y="-79.8" font-family="Times,serif" font-size="14.00">class = cluHPS</text>
</g>
<!-- 455&#45;&gt;527 -->
<g id="edge21" class="edge">
<title>455&#45;&gt;527</title>
<path fill="none" stroke="black" d="M1789.12,-190.91C1806.46,-181.02 1825.11,-170.37 1842.83,-160.25"/>
<polygon fill="black" stroke="black" points="1845.05,-163.02 1852,-155.02 1841.58,-156.94 1845.05,-163.02"/>
</g>
<!-- 457 -->
<g id="node20" class="node">
<title>457</title>
<polygon fill="#c0c0c0" stroke="black" points="1509,-36 1455,-36 1455,0 1509,0 1509,-36"/>
<text text-anchor="middle" x="1482" y="-14.3" font-family="Times,serif" font-size="14.00">(...)</text>
</g>
<!-- 456&#45;&gt;457 -->
<g id="edge19" class="edge">
<title>456&#45;&gt;457</title>
<path fill="none" stroke="black" d="M1502.31,-71.76C1498.96,-63.04 1495.49,-54.04 1492.39,-45.99"/>
<polygon fill="black" stroke="black" points="1495.56,-44.48 1488.7,-36.41 1489.03,-46.99 1495.56,-44.48"/>
</g>
<!-- 492 -->
<g id="node21" class="node">
<title>492</title>
<polygon fill="#c0c0c0" stroke="black" points="1581,-36 1527,-36 1527,0 1581,0 1581,-36"/>
<text text-anchor="middle" x="1554" y="-14.3" font-family="Times,serif" font-size="14.00">(...)</text>
</g>
<!-- 456&#45;&gt;492 -->
<g id="edge20" class="edge">
<title>456&#45;&gt;492</title>
<path fill="none" stroke="black" d="M1533.69,-71.76C1537.04,-63.04 1540.51,-54.04 1543.61,-45.99"/>
<polygon fill="black" stroke="black" points="1546.97,-46.99 1547.3,-36.41 1540.44,-44.48 1546.97,-46.99"/>
</g>
<!-- 528 -->
<g id="node23" class="node">
<title>528</title>
<polygon fill="#c0c0c0" stroke="black" points="1914,-36 1860,-36 1860,0 1914,0 1914,-36"/>
<text text-anchor="middle" x="1887" y="-14.3" font-family="Times,serif" font-size="14.00">(...)</text>
</g>
<!-- 527&#45;&gt;528 -->
<g id="edge22" class="edge">
<title>527&#45;&gt;528</title>
<path fill="none" stroke="black" d="M1907.31,-71.76C1903.96,-63.04 1900.49,-54.04 1897.39,-45.99"/>
<polygon fill="black" stroke="black" points="1900.56,-44.48 1893.7,-36.41 1894.03,-46.99 1900.56,-44.48"/>
</g>
<!-- 547 -->
<g id="node24" class="node">
<title>547</title>
<polygon fill="#c0c0c0" stroke="black" points="1986,-36 1932,-36 1932,0 1986,0 1986,-36"/>
<text text-anchor="middle" x="1959" y="-14.3" font-family="Times,serif" font-size="14.00">(...)</text>
</g>
<!-- 527&#45;&gt;547 -->
<g id="edge23" class="edge">
<title>527&#45;&gt;547</title>
<path fill="none" stroke="black" d="M1938.69,-71.76C1942.04,-63.04 1945.51,-54.04 1948.61,-45.99"/>
<polygon fill="black" stroke="black" points="1951.97,-46.99 1952.3,-36.41 1945.44,-44.48 1951.97,-46.99"/>
</g>
<!-- 645 -->
<g id="node26" class="node">
<title>645</title>
<polygon fill="#ffffff" stroke="black" points="2519.5,-155 2136.5,-155 2136.5,-72 2519.5,-72 2519.5,-155"/>
<text text-anchor="middle" x="2328" y="-139.8" font-family="Times,serif" font-size="14.00">sdComp &lt;= 6.5</text>
<text text-anchor="middle" x="2328" y="-124.8" font-family="Times,serif" font-size="14.00">gini = 0.842</text>
<text text-anchor="middle" x="2328" y="-109.8" font-family="Times,serif" font-size="14.00">samples = 14378</text>
<text text-anchor="middle" x="2328" y="-94.8" font-family="Times,serif" font-size="14.00">value = [2686, 2696, 622, 1892, 1928, 1942, 2612]</text>
<text text-anchor="middle" x="2328" y="-79.8" font-family="Times,serif" font-size="14.00">class = random</text>
</g>
<!-- 644&#45;&gt;645 -->
<g id="edge25" class="edge">
<title>644&#45;&gt;645</title>
<path fill="none" stroke="black" d="M2328,-190.91C2328,-182.65 2328,-173.86 2328,-165.3"/>
<polygon fill="black" stroke="black" points="2331.5,-165.02 2328,-155.02 2324.5,-165.02 2331.5,-165.02"/>
</g>
<!-- 740 -->
<g id="node29" class="node">
<title>740</title>
<polygon fill="#fffdfc" stroke="black" points="2920.5,-155 2537.5,-155 2537.5,-72 2920.5,-72 2920.5,-155"/>
<text text-anchor="middle" x="2729" y="-139.8" font-family="Times,serif" font-size="14.00">sdComm &lt;= 2.0</text>
<text text-anchor="middle" x="2729" y="-124.8" font-family="Times,serif" font-size="14.00">gini = 0.837</text>
<text text-anchor="middle" x="2729" y="-109.8" font-family="Times,serif" font-size="14.00">samples = 12766</text>
<text text-anchor="middle" x="2729" y="-94.8" font-family="Times,serif" font-size="14.00">value = [2726, 1646, 716, 1984, 1084, 2040, 2570]</text>
<text text-anchor="middle" x="2729" y="-79.8" font-family="Times,serif" font-size="14.00">class = rku</text>
</g>
<!-- 644&#45;&gt;740 -->
<g id="edge28" class="edge">
<title>644&#45;&gt;740</title>
<path fill="none" stroke="black" d="M2466.84,-190.99C2503.4,-180.32 2543,-168.77 2580.06,-157.96"/>
<polygon fill="black" stroke="black" points="2581.32,-161.24 2589.94,-155.07 2579.36,-154.52 2581.32,-161.24"/>
</g>
<!-- 646 -->
<g id="node27" class="node">
<title>646</title>
<polygon fill="#c0c0c0" stroke="black" points="2319,-36 2265,-36 2265,0 2319,0 2319,-36"/>
<text text-anchor="middle" x="2292" y="-14.3" font-family="Times,serif" font-size="14.00">(...)</text>
</g>
<!-- 645&#45;&gt;646 -->
<g id="edge26" class="edge">
<title>645&#45;&gt;646</title>
<path fill="none" stroke="black" d="M2312.31,-71.76C2308.96,-63.04 2305.49,-54.04 2302.39,-45.99"/>
<polygon fill="black" stroke="black" points="2305.56,-44.48 2298.7,-36.41 2299.03,-46.99 2305.56,-44.48"/>
</g>
<!-- 717 -->
<g id="node28" class="node">
<title>717</title>
<polygon fill="#c0c0c0" stroke="black" points="2391,-36 2337,-36 2337,0 2391,0 2391,-36"/>
<text text-anchor="middle" x="2364" y="-14.3" font-family="Times,serif" font-size="14.00">(...)</text>
</g>
<!-- 645&#45;&gt;717 -->
<g id="edge27" class="edge">
<title>645&#45;&gt;717</title>
<path fill="none" stroke="black" d="M2343.69,-71.76C2347.04,-63.04 2350.51,-54.04 2353.61,-45.99"/>
<polygon fill="black" stroke="black" points="2356.97,-46.99 2357.3,-36.41 2350.44,-44.48 2356.97,-46.99"/>
</g>
<!-- 741 -->
<g id="node30" class="node">
<title>741</title>
<polygon fill="#c0c0c0" stroke="black" points="2720,-36 2666,-36 2666,0 2720,0 2720,-36"/>
<text text-anchor="middle" x="2693" y="-14.3" font-family="Times,serif" font-size="14.00">(...)</text>
</g>
<!-- 740&#45;&gt;741 -->
<g id="edge29" class="edge">
<title>740&#45;&gt;741</title>
<path fill="none" stroke="black" d="M2713.31,-71.76C2709.96,-63.04 2706.49,-54.04 2703.39,-45.99"/>
<polygon fill="black" stroke="black" points="2706.56,-44.48 2699.7,-36.41 2700.03,-46.99 2706.56,-44.48"/>
</g>
<!-- 788 -->
<g id="node31" class="node">
<title>788</title>
<polygon fill="#c0c0c0" stroke="black" points="2792,-36 2738,-36 2738,0 2792,0 2792,-36"/>
<text text-anchor="middle" x="2765" y="-14.3" font-family="Times,serif" font-size="14.00">(...)</text>
</g>
<!-- 740&#45;&gt;788 -->
<g id="edge30" class="edge">
<title>740&#45;&gt;788</title>
<path fill="none" stroke="black" d="M2744.69,-71.76C2748.04,-63.04 2751.51,-54.04 2754.61,-45.99"/>
<polygon fill="black" stroke="black" points="2757.97,-46.99 2758.3,-36.41 2751.44,-44.48 2757.97,-46.99"/>
</g>
</g>
</svg>
