<?xml version="1.0" encoding="UTF-8" standalone="no"?>
<!DOCTYPE svg PUBLIC "-//W3C//DTD SVG 1.1//EN"
 "http://www.w3.org/Graphics/SVG/1.1/DTD/svg11.dtd">
<!-- Generated by graphviz version 2.43.0 (0)
 -->
<!-- Title: Tree Pages: 1 -->
<svg width="2640pt" height="520pt"
 viewBox="0.00 0.00 2640.00 520.00" xmlns="http://www.w3.org/2000/svg" xmlns:xlink="http://www.w3.org/1999/xlink">
<g id="graph0" class="graph" transform="scale(1 1) rotate(0) translate(4 516)">
<title>Tree</title>
<polygon fill="white" stroke="transparent" points="-4,4 -4,-516 2636,-516 2636,4 -4,4"/>
<!-- 0 -->
<g id="node1" class="node">
<title>0</title>
<polygon fill="#fef9f6" stroke="black" points="1460,-512 1059,-512 1059,-429 1460,-429 1460,-512"/>
<text text-anchor="middle" x="1259.5" y="-496.8" font-family="Times,serif" font-size="14.00">sdComp &lt;= 0.65</text>
<text text-anchor="middle" x="1259.5" y="-481.8" font-family="Times,serif" font-size="14.00">gini = 0.832</text>
<text text-anchor="middle" x="1259.5" y="-466.8" font-family="Times,serif" font-size="14.00">samples = 68335</text>
<text text-anchor="middle" x="1259.5" y="-451.8" font-family="Times,serif" font-size="14.00">value = [13581, 11078, 11021, 10817, 10817, 11021]</text>
<text text-anchor="middle" x="1259.5" y="-436.8" font-family="Times,serif" font-size="14.00">class = mean</text>
</g>
<!-- 1 -->
<g id="node2" class="node">
<title>1</title>
<polygon fill="#ffffff" stroke="black" points="1109,-393 762,-393 762,-310 1109,-310 1109,-393"/>
<text text-anchor="middle" x="935.5" y="-377.8" font-family="Times,serif" font-size="14.00">nbproc &lt;= 4.5</text>
<text text-anchor="middle" x="935.5" y="-362.8" font-family="Times,serif" font-size="14.00">gini = 0.833</text>
<text text-anchor="middle" x="935.5" y="-347.8" font-family="Times,serif" font-size="14.00">samples = 13231</text>
<text text-anchor="middle" x="935.5" y="-332.8" font-family="Times,serif" font-size="14.00">value = [2206, 2165, 2272, 2158, 2158, 2272]</text>
<text text-anchor="middle" x="935.5" y="-317.8" font-family="Times,serif" font-size="14.00">class = maxmax</text>
</g>
<!-- 0&#45;&gt;1 -->
<g id="edge1" class="edge">
<title>0&#45;&gt;1</title>
<path fill="none" stroke="black" d="M1147.09,-428.91C1118.06,-418.43 1086.69,-407.1 1057.21,-396.45"/>
<polygon fill="black" stroke="black" points="1058.31,-393.13 1047.71,-393.02 1055.93,-399.71 1058.31,-393.13"/>
<text text-anchor="middle" x="1058.33" y="-411.95" font-family="Times,serif" font-size="14.00">True</text>
</g>
<!-- 462 -->
<g id="node17" class="node">
<title>462</title>
<polygon fill="#fef8f4" stroke="black" points="1775.5,-393 1419.5,-393 1419.5,-310 1775.5,-310 1775.5,-393"/>
<text text-anchor="middle" x="1597.5" y="-377.8" font-family="Times,serif" font-size="14.00">CCR &lt;= 5.5</text>
<text text-anchor="middle" x="1597.5" y="-362.8" font-family="Times,serif" font-size="14.00">gini = 0.831</text>
<text text-anchor="middle" x="1597.5" y="-347.8" font-family="Times,serif" font-size="14.00">samples = 55104</text>
<text text-anchor="middle" x="1597.5" y="-332.8" font-family="Times,serif" font-size="14.00">value = [11375, 8913, 8749, 8659, 8659, 8749]</text>
<text text-anchor="middle" x="1597.5" y="-317.8" font-family="Times,serif" font-size="14.00">class = mean</text>
</g>
<!-- 0&#45;&gt;462 -->
<g id="edge16" class="edge">
<title>0&#45;&gt;462</title>
<path fill="none" stroke="black" d="M1376.77,-428.91C1407.18,-418.38 1440.06,-407 1470.93,-396.31"/>
<polygon fill="black" stroke="black" points="1472.13,-399.6 1480.44,-393.02 1469.85,-392.98 1472.13,-399.6"/>
<text text-anchor="middle" x="1469.52" y="-411.81" font-family="Times,serif" font-size="14.00">False</text>
</g>
<!-- 2 -->
<g id="node3" class="node">
<title>2</title>
<polygon fill="#fefffe" stroke="black" points="604,-274 311,-274 311,-191 604,-191 604,-274"/>
<text text-anchor="middle" x="457.5" y="-258.8" font-family="Times,serif" font-size="14.00">sdComm &lt;= 0.02</text>
<text text-anchor="middle" x="457.5" y="-243.8" font-family="Times,serif" font-size="14.00">gini = 0.833</text>
<text text-anchor="middle" x="457.5" y="-228.8" font-family="Times,serif" font-size="14.00">samples = 5266</text>
<text text-anchor="middle" x="457.5" y="-213.8" font-family="Times,serif" font-size="14.00">value = [912, 938, 842, 866, 866, 842]</text>
<text text-anchor="middle" x="457.5" y="-198.8" font-family="Times,serif" font-size="14.00">class = median</text>
</g>
<!-- 1&#45;&gt;2 -->
<g id="edge2" class="edge">
<title>1&#45;&gt;2</title>
<path fill="none" stroke="black" d="M770,-309.99C719.42,-297.61 663.98,-284.04 614.01,-271.81"/>
<polygon fill="black" stroke="black" points="614.64,-268.36 604.1,-269.38 612.98,-275.16 614.64,-268.36"/>
</g>
<!-- 233 -->
<g id="node10" class="node">
<title>233</title>
<polygon fill="#ffffff" stroke="black" points="1109,-274 762,-274 762,-191 1109,-191 1109,-274"/>
<text text-anchor="middle" x="935.5" y="-258.8" font-family="Times,serif" font-size="14.00">sdComp &lt;= 0.02</text>
<text text-anchor="middle" x="935.5" y="-243.8" font-family="Times,serif" font-size="14.00">gini = 0.833</text>
<text text-anchor="middle" x="935.5" y="-228.8" font-family="Times,serif" font-size="14.00">samples = 7965</text>
<text text-anchor="middle" x="935.5" y="-213.8" font-family="Times,serif" font-size="14.00">value = [1294, 1227, 1430, 1292, 1292, 1430]</text>
<text text-anchor="middle" x="935.5" y="-198.8" font-family="Times,serif" font-size="14.00">class = maxmax</text>
</g>
<!-- 1&#45;&gt;233 -->
<g id="edge9" class="edge">
<title>1&#45;&gt;233</title>
<path fill="none" stroke="black" d="M935.5,-309.91C935.5,-301.65 935.5,-292.86 935.5,-284.3"/>
<polygon fill="black" stroke="black" points="939,-284.02 935.5,-274.02 932,-284.02 939,-284.02"/>
</g>
<!-- 3 -->
<g id="node4" class="node">
<title>3</title>
<polygon fill="#fafef6" stroke="black" points="293,-155 0,-155 0,-72 293,-72 293,-155"/>
<text text-anchor="middle" x="146.5" y="-139.8" font-family="Times,serif" font-size="14.00">graphDepth &lt;= 6.5</text>
<text text-anchor="middle" x="146.5" y="-124.8" font-family="Times,serif" font-size="14.00">gini = 0.829</text>
<text text-anchor="middle" x="146.5" y="-109.8" font-family="Times,serif" font-size="14.00">samples = 1032</text>
<text text-anchor="middle" x="146.5" y="-94.8" font-family="Times,serif" font-size="14.00">value = [184, 224, 166, 146, 146, 166]</text>
<text text-anchor="middle" x="146.5" y="-79.8" font-family="Times,serif" font-size="14.00">class = median</text>
</g>
<!-- 2&#45;&gt;3 -->
<g id="edge3" class="edge">
<title>2&#45;&gt;3</title>
<path fill="none" stroke="black" d="M349.6,-190.91C321.86,-180.47 291.88,-169.19 263.69,-158.59"/>
<polygon fill="black" stroke="black" points="264.8,-155.27 254.21,-155.02 262.34,-161.82 264.8,-155.27"/>
</g>
<!-- 44 -->
<g id="node7" class="node">
<title>44</title>
<polygon fill="#ffffff" stroke="black" points="604,-155 311,-155 311,-72 604,-72 604,-155"/>
<text text-anchor="middle" x="457.5" y="-139.8" font-family="Times,serif" font-size="14.00">graphSize &lt;= 40.0</text>
<text text-anchor="middle" x="457.5" y="-124.8" font-family="Times,serif" font-size="14.00">gini = 0.833</text>
<text text-anchor="middle" x="457.5" y="-109.8" font-family="Times,serif" font-size="14.00">samples = 4234</text>
<text text-anchor="middle" x="457.5" y="-94.8" font-family="Times,serif" font-size="14.00">value = [728, 714, 676, 720, 720, 676]</text>
<text text-anchor="middle" x="457.5" y="-79.8" font-family="Times,serif" font-size="14.00">class = mean</text>
</g>
<!-- 2&#45;&gt;44 -->
<g id="edge6" class="edge">
<title>2&#45;&gt;44</title>
<path fill="none" stroke="black" d="M457.5,-190.91C457.5,-182.65 457.5,-173.86 457.5,-165.3"/>
<polygon fill="black" stroke="black" points="461,-165.02 457.5,-155.02 454,-165.02 461,-165.02"/>
</g>
<!-- 4 -->
<g id="node5" class="node">
<title>4</title>
<polygon fill="#c0c0c0" stroke="black" points="137.5,-36 83.5,-36 83.5,0 137.5,0 137.5,-36"/>
<text text-anchor="middle" x="110.5" y="-14.3" font-family="Times,serif" font-size="14.00">(...)</text>
</g>
<!-- 3&#45;&gt;4 -->
<g id="edge4" class="edge">
<title>3&#45;&gt;4</title>
<path fill="none" stroke="black" d="M130.81,-71.76C127.46,-63.04 123.99,-54.04 120.89,-45.99"/>
<polygon fill="black" stroke="black" points="124.06,-44.48 117.2,-36.41 117.53,-46.99 124.06,-44.48"/>
</g>
<!-- 21 -->
<g id="node6" class="node">
<title>21</title>
<polygon fill="#c0c0c0" stroke="black" points="209.5,-36 155.5,-36 155.5,0 209.5,0 209.5,-36"/>
<text text-anchor="middle" x="182.5" y="-14.3" font-family="Times,serif" font-size="14.00">(...)</text>
</g>
<!-- 3&#45;&gt;21 -->
<g id="edge5" class="edge">
<title>3&#45;&gt;21</title>
<path fill="none" stroke="black" d="M162.19,-71.76C165.54,-63.04 169.01,-54.04 172.11,-45.99"/>
<polygon fill="black" stroke="black" points="175.47,-46.99 175.8,-36.41 168.94,-44.48 175.47,-46.99"/>
</g>
<!-- 45 -->
<g id="node8" class="node">
<title>45</title>
<polygon fill="#c0c0c0" stroke="black" points="448.5,-36 394.5,-36 394.5,0 448.5,0 448.5,-36"/>
<text text-anchor="middle" x="421.5" y="-14.3" font-family="Times,serif" font-size="14.00">(...)</text>
</g>
<!-- 44&#45;&gt;45 -->
<g id="edge7" class="edge">
<title>44&#45;&gt;45</title>
<path fill="none" stroke="black" d="M441.81,-71.76C438.46,-63.04 434.99,-54.04 431.89,-45.99"/>
<polygon fill="black" stroke="black" points="435.06,-44.48 428.2,-36.41 428.53,-46.99 435.06,-44.48"/>
</g>
<!-- 140 -->
<g id="node9" class="node">
<title>140</title>
<polygon fill="#c0c0c0" stroke="black" points="520.5,-36 466.5,-36 466.5,0 520.5,0 520.5,-36"/>
<text text-anchor="middle" x="493.5" y="-14.3" font-family="Times,serif" font-size="14.00">(...)</text>
</g>
<!-- 44&#45;&gt;140 -->
<g id="edge8" class="edge">
<title>44&#45;&gt;140</title>
<path fill="none" stroke="black" d="M473.19,-71.76C476.54,-63.04 480.01,-54.04 483.11,-45.99"/>
<polygon fill="black" stroke="black" points="486.47,-46.99 486.8,-36.41 479.94,-44.48 486.47,-46.99"/>
</g>
<!-- 234 -->
<g id="node11" class="node">
<title>234</title>
<polygon fill="#fffdfd" stroke="black" points="915,-155 622,-155 622,-72 915,-72 915,-155"/>
<text text-anchor="middle" x="768.5" y="-139.8" font-family="Times,serif" font-size="14.00">graphDepth &lt;= 25.5</text>
<text text-anchor="middle" x="768.5" y="-124.8" font-family="Times,serif" font-size="14.00">gini = 0.832</text>
<text text-anchor="middle" x="768.5" y="-109.8" font-family="Times,serif" font-size="14.00">samples = 1204</text>
<text text-anchor="middle" x="768.5" y="-94.8" font-family="Times,serif" font-size="14.00">value = [232, 220, 196, 180, 180, 196]</text>
<text text-anchor="middle" x="768.5" y="-79.8" font-family="Times,serif" font-size="14.00">class = mean</text>
</g>
<!-- 233&#45;&gt;234 -->
<g id="edge10" class="edge">
<title>233&#45;&gt;234</title>
<path fill="none" stroke="black" d="M877.56,-190.91C863.7,-181.2 848.8,-170.76 834.6,-160.81"/>
<polygon fill="black" stroke="black" points="836.54,-157.89 826.34,-155.02 832.52,-163.63 836.54,-157.89"/>
</g>
<!-- 279 -->
<g id="node14" class="node">
<title>279</title>
<polygon fill="#ffffff" stroke="black" points="1280,-155 933,-155 933,-72 1280,-72 1280,-155"/>
<text text-anchor="middle" x="1106.5" y="-139.8" font-family="Times,serif" font-size="14.00">sdComp &lt;= 0.065</text>
<text text-anchor="middle" x="1106.5" y="-124.8" font-family="Times,serif" font-size="14.00">gini = 0.832</text>
<text text-anchor="middle" x="1106.5" y="-109.8" font-family="Times,serif" font-size="14.00">samples = 6761</text>
<text text-anchor="middle" x="1106.5" y="-94.8" font-family="Times,serif" font-size="14.00">value = [1062, 1007, 1234, 1112, 1112, 1234]</text>
<text text-anchor="middle" x="1106.5" y="-79.8" font-family="Times,serif" font-size="14.00">class = maxmax</text>
</g>
<!-- 233&#45;&gt;279 -->
<g id="edge13" class="edge">
<title>233&#45;&gt;279</title>
<path fill="none" stroke="black" d="M994.83,-190.91C1009.02,-181.2 1024.28,-170.76 1038.81,-160.81"/>
<polygon fill="black" stroke="black" points="1041,-163.56 1047.28,-155.02 1037.05,-157.78 1041,-163.56"/>
</g>
<!-- 235 -->
<g id="node12" class="node">
<title>235</title>
<polygon fill="#c0c0c0" stroke="black" points="759.5,-36 705.5,-36 705.5,0 759.5,0 759.5,-36"/>
<text text-anchor="middle" x="732.5" y="-14.3" font-family="Times,serif" font-size="14.00">(...)</text>
</g>
<!-- 234&#45;&gt;235 -->
<g id="edge11" class="edge">
<title>234&#45;&gt;235</title>
<path fill="none" stroke="black" d="M752.81,-71.76C749.46,-63.04 745.99,-54.04 742.89,-45.99"/>
<polygon fill="black" stroke="black" points="746.06,-44.48 739.2,-36.41 739.53,-46.99 746.06,-44.48"/>
</g>
<!-- 274 -->
<g id="node13" class="node">
<title>274</title>
<polygon fill="#c0c0c0" stroke="black" points="831.5,-36 777.5,-36 777.5,0 831.5,0 831.5,-36"/>
<text text-anchor="middle" x="804.5" y="-14.3" font-family="Times,serif" font-size="14.00">(...)</text>
</g>
<!-- 234&#45;&gt;274 -->
<g id="edge12" class="edge">
<title>234&#45;&gt;274</title>
<path fill="none" stroke="black" d="M784.19,-71.76C787.54,-63.04 791.01,-54.04 794.11,-45.99"/>
<polygon fill="black" stroke="black" points="797.47,-46.99 797.8,-36.41 790.94,-44.48 797.47,-46.99"/>
</g>
<!-- 280 -->
<g id="node15" class="node">
<title>280</title>
<polygon fill="#c0c0c0" stroke="black" points="1097.5,-36 1043.5,-36 1043.5,0 1097.5,0 1097.5,-36"/>
<text text-anchor="middle" x="1070.5" y="-14.3" font-family="Times,serif" font-size="14.00">(...)</text>
</g>
<!-- 279&#45;&gt;280 -->
<g id="edge14" class="edge">
<title>279&#45;&gt;280</title>
<path fill="none" stroke="black" d="M1090.81,-71.76C1087.46,-63.04 1083.99,-54.04 1080.89,-45.99"/>
<polygon fill="black" stroke="black" points="1084.06,-44.48 1077.2,-36.41 1077.53,-46.99 1084.06,-44.48"/>
</g>
<!-- 323 -->
<g id="node16" class="node">
<title>323</title>
<polygon fill="#c0c0c0" stroke="black" points="1169.5,-36 1115.5,-36 1115.5,0 1169.5,0 1169.5,-36"/>
<text text-anchor="middle" x="1142.5" y="-14.3" font-family="Times,serif" font-size="14.00">(...)</text>
</g>
<!-- 279&#45;&gt;323 -->
<g id="edge15" class="edge">
<title>279&#45;&gt;323</title>
<path fill="none" stroke="black" d="M1122.19,-71.76C1125.54,-63.04 1129.01,-54.04 1132.11,-45.99"/>
<polygon fill="black" stroke="black" points="1135.47,-46.99 1135.8,-36.41 1128.94,-44.48 1135.47,-46.99"/>
</g>
<!-- 463 -->
<g id="node18" class="node">
<title>463</title>
<polygon fill="#ffffff" stroke="black" points="1744,-274 1451,-274 1451,-191 1744,-191 1744,-274"/>
<text text-anchor="middle" x="1597.5" y="-258.8" font-family="Times,serif" font-size="14.00">graphDepth &lt;= 3.5</text>
<text text-anchor="middle" x="1597.5" y="-243.8" font-family="Times,serif" font-size="14.00">gini = 0.828</text>
<text text-anchor="middle" x="1597.5" y="-228.8" font-family="Times,serif" font-size="14.00">samples = 2086</text>
<text text-anchor="middle" x="1597.5" y="-213.8" font-family="Times,serif" font-size="14.00">value = [403, 403, 263, 377, 377, 263]</text>
<text text-anchor="middle" x="1597.5" y="-198.8" font-family="Times,serif" font-size="14.00">class = mean</text>
</g>
<!-- 462&#45;&gt;463 -->
<g id="edge17" class="edge">
<title>462&#45;&gt;463</title>
<path fill="none" stroke="black" d="M1597.5,-309.91C1597.5,-301.65 1597.5,-292.86 1597.5,-284.3"/>
<polygon fill="black" stroke="black" points="1601,-284.02 1597.5,-274.02 1594,-284.02 1601,-284.02"/>
</g>
<!-- 550 -->
<g id="node25" class="node">
<title>550</title>
<polygon fill="#fef8f4" stroke="black" points="2271.5,-274 1915.5,-274 1915.5,-191 2271.5,-191 2271.5,-274"/>
<text text-anchor="middle" x="2093.5" y="-258.8" font-family="Times,serif" font-size="14.00">sdComp &lt;= 6.5</text>
<text text-anchor="middle" x="2093.5" y="-243.8" font-family="Times,serif" font-size="14.00">gini = 0.831</text>
<text text-anchor="middle" x="2093.5" y="-228.8" font-family="Times,serif" font-size="14.00">samples = 53018</text>
<text text-anchor="middle" x="2093.5" y="-213.8" font-family="Times,serif" font-size="14.00">value = [10972, 8510, 8486, 8282, 8282, 8486]</text>
<text text-anchor="middle" x="2093.5" y="-198.8" font-family="Times,serif" font-size="14.00">class = mean</text>
</g>
<!-- 462&#45;&gt;550 -->
<g id="edge24" class="edge">
<title>462&#45;&gt;550</title>
<path fill="none" stroke="black" d="M1769.24,-309.99C1815.23,-299.14 1865.1,-287.38 1911.62,-276.4"/>
<polygon fill="black" stroke="black" points="1912.56,-279.78 1921.49,-274.07 1910.95,-272.96 1912.56,-279.78"/>
</g>
<!-- 464 -->
<g id="node19" class="node">
<title>464</title>
<polygon fill="#ffffff" stroke="black" points="1591,-155 1298,-155 1298,-72 1591,-72 1591,-155"/>
<text text-anchor="middle" x="1444.5" y="-139.8" font-family="Times,serif" font-size="14.00">sdComm &lt;= 0.2</text>
<text text-anchor="middle" x="1444.5" y="-124.8" font-family="Times,serif" font-size="14.00">gini = 0.822</text>
<text text-anchor="middle" x="1444.5" y="-109.8" font-family="Times,serif" font-size="14.00">samples = 988</text>
<text text-anchor="middle" x="1444.5" y="-94.8" font-family="Times,serif" font-size="14.00">value = [193, 191, 103, 199, 199, 103]</text>
<text text-anchor="middle" x="1444.5" y="-79.8" font-family="Times,serif" font-size="14.00">class = minmax</text>
</g>
<!-- 463&#45;&gt;464 -->
<g id="edge18" class="edge">
<title>463&#45;&gt;464</title>
<path fill="none" stroke="black" d="M1544.42,-190.91C1531.96,-181.38 1518.58,-171.15 1505.79,-161.37"/>
<polygon fill="black" stroke="black" points="1507.56,-158.32 1497.49,-155.02 1503.31,-163.88 1507.56,-158.32"/>
</g>
<!-- 475 -->
<g id="node22" class="node">
<title>475</title>
<polygon fill="#ffffff" stroke="black" points="1902,-155 1609,-155 1609,-72 1902,-72 1902,-155"/>
<text text-anchor="middle" x="1755.5" y="-139.8" font-family="Times,serif" font-size="14.00">graphSize &lt;= 22.5</text>
<text text-anchor="middle" x="1755.5" y="-124.8" font-family="Times,serif" font-size="14.00">gini = 0.831</text>
<text text-anchor="middle" x="1755.5" y="-109.8" font-family="Times,serif" font-size="14.00">samples = 1098</text>
<text text-anchor="middle" x="1755.5" y="-94.8" font-family="Times,serif" font-size="14.00">value = [210, 212, 160, 178, 178, 160]</text>
<text text-anchor="middle" x="1755.5" y="-79.8" font-family="Times,serif" font-size="14.00">class = median</text>
</g>
<!-- 463&#45;&gt;475 -->
<g id="edge21" class="edge">
<title>463&#45;&gt;475</title>
<path fill="none" stroke="black" d="M1652.32,-190.91C1665.31,-181.29 1679.26,-170.95 1692.58,-161.09"/>
<polygon fill="black" stroke="black" points="1694.83,-163.78 1700.78,-155.02 1690.66,-158.16 1694.83,-163.78"/>
</g>
<!-- 465 -->
<g id="node20" class="node">
<title>465</title>
<polygon fill="#c0c0c0" stroke="black" points="1435.5,-36 1381.5,-36 1381.5,0 1435.5,0 1435.5,-36"/>
<text text-anchor="middle" x="1408.5" y="-14.3" font-family="Times,serif" font-size="14.00">(...)</text>
</g>
<!-- 464&#45;&gt;465 -->
<g id="edge19" class="edge">
<title>464&#45;&gt;465</title>
<path fill="none" stroke="black" d="M1428.81,-71.76C1425.46,-63.04 1421.99,-54.04 1418.89,-45.99"/>
<polygon fill="black" stroke="black" points="1422.06,-44.48 1415.2,-36.41 1415.53,-46.99 1422.06,-44.48"/>
</g>
<!-- 468 -->
<g id="node21" class="node">
<title>468</title>
<polygon fill="#c0c0c0" stroke="black" points="1507.5,-36 1453.5,-36 1453.5,0 1507.5,0 1507.5,-36"/>
<text text-anchor="middle" x="1480.5" y="-14.3" font-family="Times,serif" font-size="14.00">(...)</text>
</g>
<!-- 464&#45;&gt;468 -->
<g id="edge20" class="edge">
<title>464&#45;&gt;468</title>
<path fill="none" stroke="black" d="M1460.19,-71.76C1463.54,-63.04 1467.01,-54.04 1470.11,-45.99"/>
<polygon fill="black" stroke="black" points="1473.47,-46.99 1473.8,-36.41 1466.94,-44.48 1473.47,-46.99"/>
</g>
<!-- 476 -->
<g id="node23" class="node">
<title>476</title>
<polygon fill="#c0c0c0" stroke="black" points="1746.5,-36 1692.5,-36 1692.5,0 1746.5,0 1746.5,-36"/>
<text text-anchor="middle" x="1719.5" y="-14.3" font-family="Times,serif" font-size="14.00">(...)</text>
</g>
<!-- 475&#45;&gt;476 -->
<g id="edge22" class="edge">
<title>475&#45;&gt;476</title>
<path fill="none" stroke="black" d="M1739.81,-71.76C1736.46,-63.04 1732.99,-54.04 1729.89,-45.99"/>
<polygon fill="black" stroke="black" points="1733.06,-44.48 1726.2,-36.41 1726.53,-46.99 1733.06,-44.48"/>
</g>
<!-- 487 -->
<g id="node24" class="node">
<title>487</title>
<polygon fill="#c0c0c0" stroke="black" points="1818.5,-36 1764.5,-36 1764.5,0 1818.5,0 1818.5,-36"/>
<text text-anchor="middle" x="1791.5" y="-14.3" font-family="Times,serif" font-size="14.00">(...)</text>
</g>
<!-- 475&#45;&gt;487 -->
<g id="edge23" class="edge">
<title>475&#45;&gt;487</title>
<path fill="none" stroke="black" d="M1771.19,-71.76C1774.54,-63.04 1778.01,-54.04 1781.11,-45.99"/>
<polygon fill="black" stroke="black" points="1784.47,-46.99 1784.8,-36.41 1777.94,-44.48 1784.47,-46.99"/>
</g>
<!-- 551 -->
<g id="node26" class="node">
<title>551</title>
<polygon fill="#fef9f6" stroke="black" points="2267,-155 1920,-155 1920,-72 2267,-72 2267,-155"/>
<text text-anchor="middle" x="2093.5" y="-139.8" font-family="Times,serif" font-size="14.00">graphDepth &lt;= 3.5</text>
<text text-anchor="middle" x="2093.5" y="-124.8" font-family="Times,serif" font-size="14.00">gini = 0.832</text>
<text text-anchor="middle" x="2093.5" y="-109.8" font-family="Times,serif" font-size="14.00">samples = 39214</text>
<text text-anchor="middle" x="2093.5" y="-94.8" font-family="Times,serif" font-size="14.00">value = [7906, 6332, 6366, 6122, 6122, 6366]</text>
<text text-anchor="middle" x="2093.5" y="-79.8" font-family="Times,serif" font-size="14.00">class = mean</text>
</g>
<!-- 550&#45;&gt;551 -->
<g id="edge25" class="edge">
<title>550&#45;&gt;551</title>
<path fill="none" stroke="black" d="M2093.5,-190.91C2093.5,-182.65 2093.5,-173.86 2093.5,-165.3"/>
<polygon fill="black" stroke="black" points="2097,-165.02 2093.5,-155.02 2090,-165.02 2097,-165.02"/>
</g>
<!-- 742 -->
<g id="node29" class="node">
<title>742</title>
<polygon fill="#fdf5f0" stroke="black" points="2632,-155 2285,-155 2285,-72 2632,-72 2632,-155"/>
<text text-anchor="middle" x="2458.5" y="-139.8" font-family="Times,serif" font-size="14.00">graphSize &lt;= 75.0</text>
<text text-anchor="middle" x="2458.5" y="-124.8" font-family="Times,serif" font-size="14.00">gini = 0.83</text>
<text text-anchor="middle" x="2458.5" y="-109.8" font-family="Times,serif" font-size="14.00">samples = 13804</text>
<text text-anchor="middle" x="2458.5" y="-94.8" font-family="Times,serif" font-size="14.00">value = [3066, 2178, 2120, 2160, 2160, 2120]</text>
<text text-anchor="middle" x="2458.5" y="-79.8" font-family="Times,serif" font-size="14.00">class = mean</text>
</g>
<!-- 550&#45;&gt;742 -->
<g id="edge28" class="edge">
<title>550&#45;&gt;742</title>
<path fill="none" stroke="black" d="M2219.88,-190.99C2252.87,-180.41 2288.58,-168.97 2322.07,-158.23"/>
<polygon fill="black" stroke="black" points="2323.47,-161.46 2331.92,-155.07 2321.33,-154.79 2323.47,-161.46"/>
</g>
<!-- 552 -->
<g id="node27" class="node">
<title>552</title>
<polygon fill="#c0c0c0" stroke="black" points="2084.5,-36 2030.5,-36 2030.5,0 2084.5,0 2084.5,-36"/>
<text text-anchor="middle" x="2057.5" y="-14.3" font-family="Times,serif" font-size="14.00">(...)</text>
</g>
<!-- 551&#45;&gt;552 -->
<g id="edge26" class="edge">
<title>551&#45;&gt;552</title>
<path fill="none" stroke="black" d="M2077.81,-71.76C2074.46,-63.04 2070.99,-54.04 2067.89,-45.99"/>
<polygon fill="black" stroke="black" points="2071.06,-44.48 2064.2,-36.41 2064.53,-46.99 2071.06,-44.48"/>
</g>
<!-- 575 -->
<g id="node28" class="node">
<title>575</title>
<polygon fill="#c0c0c0" stroke="black" points="2156.5,-36 2102.5,-36 2102.5,0 2156.5,0 2156.5,-36"/>
<text text-anchor="middle" x="2129.5" y="-14.3" font-family="Times,serif" font-size="14.00">(...)</text>
</g>
<!-- 551&#45;&gt;575 -->
<g id="edge27" class="edge">
<title>551&#45;&gt;575</title>
<path fill="none" stroke="black" d="M2109.19,-71.76C2112.54,-63.04 2116.01,-54.04 2119.11,-45.99"/>
<polygon fill="black" stroke="black" points="2122.47,-46.99 2122.8,-36.41 2115.94,-44.48 2122.47,-46.99"/>
</g>
<!-- 743 -->
<g id="node30" class="node">
<title>743</title>
<polygon fill="#c0c0c0" stroke="black" points="2449.5,-36 2395.5,-36 2395.5,0 2449.5,0 2449.5,-36"/>
<text text-anchor="middle" x="2422.5" y="-14.3" font-family="Times,serif" font-size="14.00">(...)</text>
</g>
<!-- 742&#45;&gt;743 -->
<g id="edge29" class="edge">
<title>742&#45;&gt;743</title>
<path fill="none" stroke="black" d="M2442.81,-71.76C2439.46,-63.04 2435.99,-54.04 2432.89,-45.99"/>
<polygon fill="black" stroke="black" points="2436.06,-44.48 2429.2,-36.41 2429.53,-46.99 2436.06,-44.48"/>
</g>
<!-- 814 -->
<g id="node31" class="node">
<title>814</title>
<polygon fill="#c0c0c0" stroke="black" points="2521.5,-36 2467.5,-36 2467.5,0 2521.5,0 2521.5,-36"/>
<text text-anchor="middle" x="2494.5" y="-14.3" font-family="Times,serif" font-size="14.00">(...)</text>
</g>
<!-- 742&#45;&gt;814 -->
<g id="edge30" class="edge">
<title>742&#45;&gt;814</title>
<path fill="none" stroke="black" d="M2474.19,-71.76C2477.54,-63.04 2481.01,-54.04 2484.11,-45.99"/>
<polygon fill="black" stroke="black" points="2487.47,-46.99 2487.8,-36.41 2480.94,-44.48 2487.47,-46.99"/>
</g>
</g>
</svg>
