<?xml version="1.0" encoding="UTF-8" standalone="no"?>
<!DOCTYPE svg PUBLIC "-//W3C//DTD SVG 1.1//EN"
 "http://www.w3.org/Graphics/SVG/1.1/DTD/svg11.dtd">
<!-- Generated by graphviz version 2.43.0 (0)
 -->
<!-- Title: Tree Pages: 1 -->
<svg width="2514pt" height="520pt"
 viewBox="0.00 0.00 2514.00 520.00" xmlns="http://www.w3.org/2000/svg" xmlns:xlink="http://www.w3.org/1999/xlink">
<g id="graph0" class="graph" transform="scale(1 1) rotate(0) translate(4 516)">
<title>Tree</title>
<polygon fill="white" stroke="transparent" points="-4,4 -4,-516 2510,-516 2510,4 -4,4"/>
<!-- 0 -->
<g id="node1" class="node">
<title>0</title>
<polygon fill="#e5fcee" stroke="black" points="1491,-512 1126,-512 1126,-429 1491,-429 1491,-512"/>
<text text-anchor="middle" x="1308.5" y="-496.8" font-family="Times,serif" font-size="14.00">CCR &lt;= 5.5</text>
<text text-anchor="middle" x="1308.5" y="-481.8" font-family="Times,serif" font-size="14.00">gini = 0.789</text>
<text text-anchor="middle" x="1308.5" y="-466.8" font-family="Times,serif" font-size="14.00">samples = 68335</text>
<text text-anchor="middle" x="1308.5" y="-451.8" font-family="Times,serif" font-size="14.00">value = [9439, 6803, 22428, 5498, 8679, 15488]</text>
<text text-anchor="middle" x="1308.5" y="-436.8" font-family="Times,serif" font-size="14.00">class = OLB</text>
</g>
<!-- 1 -->
<g id="node2" class="node">
<title>1</title>
<polygon fill="#eb64b2" stroke="black" points="1020.5,-393 700.5,-393 700.5,-310 1020.5,-310 1020.5,-393"/>
<text text-anchor="middle" x="860.5" y="-377.8" font-family="Times,serif" font-size="14.00">graphDepth &lt;= 3.5</text>
<text text-anchor="middle" x="860.5" y="-362.8" font-family="Times,serif" font-size="14.00">gini = 0.344</text>
<text text-anchor="middle" x="860.5" y="-347.8" font-family="Times,serif" font-size="14.00">samples = 15317</text>
<text text-anchor="middle" x="860.5" y="-332.8" font-family="Times,serif" font-size="14.00">value = [1113, 483, 104, 72, 1261, 12284]</text>
<text text-anchor="middle" x="860.5" y="-317.8" font-family="Times,serif" font-size="14.00">class = GDL</text>
</g>
<!-- 0&#45;&gt;1 -->
<g id="edge1" class="edge">
<title>0&#45;&gt;1</title>
<path fill="none" stroke="black" d="M1153.38,-428.99C1112.1,-418.21 1067.36,-406.52 1025.57,-395.61"/>
<polygon fill="black" stroke="black" points="1026.42,-392.22 1015.86,-393.07 1024.65,-398.99 1026.42,-392.22"/>
<text text-anchor="middle" x="1028.5" y="-410.95" font-family="Times,serif" font-size="14.00">True</text>
</g>
<!-- 252 -->
<g id="node17" class="node">
<title>252</title>
<polygon fill="#c1f7d8" stroke="black" points="1643.5,-393 1287.5,-393 1287.5,-310 1643.5,-310 1643.5,-393"/>
<text text-anchor="middle" x="1465.5" y="-377.8" font-family="Times,serif" font-size="14.00">sdComp &lt;= 2.0</text>
<text text-anchor="middle" x="1465.5" y="-362.8" font-family="Times,serif" font-size="14.00">gini = 0.75</text>
<text text-anchor="middle" x="1465.5" y="-347.8" font-family="Times,serif" font-size="14.00">samples = 53018</text>
<text text-anchor="middle" x="1465.5" y="-332.8" font-family="Times,serif" font-size="14.00">value = [8326, 6320, 22324, 5426, 7418, 3204]</text>
<text text-anchor="middle" x="1465.5" y="-317.8" font-family="Times,serif" font-size="14.00">class = OLB</text>
</g>
<!-- 0&#45;&gt;252 -->
<g id="edge16" class="edge">
<title>0&#45;&gt;252</title>
<path fill="none" stroke="black" d="M1362.97,-428.91C1375.88,-419.29 1389.75,-408.95 1402.98,-399.09"/>
<polygon fill="black" stroke="black" points="1405.2,-401.8 1411.13,-393.02 1401.02,-396.19 1405.2,-401.8"/>
<text text-anchor="middle" x="1407.51" y="-414.06" font-family="Times,serif" font-size="14.00">False</text>
</g>
<!-- 2 -->
<g id="node3" class="node">
<title>2</title>
<polygon fill="#f5b2d9" stroke="black" points="563.5,-274 279.5,-274 279.5,-191 563.5,-191 563.5,-274"/>
<text text-anchor="middle" x="421.5" y="-258.8" font-family="Times,serif" font-size="14.00">nbproc &lt;= 4.5</text>
<text text-anchor="middle" x="421.5" y="-243.8" font-family="Times,serif" font-size="14.00">gini = 0.661</text>
<text text-anchor="middle" x="421.5" y="-228.8" font-family="Times,serif" font-size="14.00">samples = 3337</text>
<text text-anchor="middle" x="421.5" y="-213.8" font-family="Times,serif" font-size="14.00">value = [621, 261, 32, 72, 653, 1698]</text>
<text text-anchor="middle" x="421.5" y="-198.8" font-family="Times,serif" font-size="14.00">class = GDL</text>
</g>
<!-- 1&#45;&gt;2 -->
<g id="edge2" class="edge">
<title>1&#45;&gt;2</title>
<path fill="none" stroke="black" d="M708.5,-309.99C664.85,-298.36 617.26,-285.67 573.61,-274.04"/>
<polygon fill="black" stroke="black" points="574.34,-270.61 563.78,-271.42 572.54,-277.38 574.34,-270.61"/>
</g>
<!-- 73 -->
<g id="node10" class="node">
<title>73</title>
<polygon fill="#e851a9" stroke="black" points="1002.5,-274 718.5,-274 718.5,-191 1002.5,-191 1002.5,-274"/>
<text text-anchor="middle" x="860.5" y="-258.8" font-family="Times,serif" font-size="14.00">sdComp &lt;= 0.02</text>
<text text-anchor="middle" x="860.5" y="-243.8" font-family="Times,serif" font-size="14.00">gini = 0.215</text>
<text text-anchor="middle" x="860.5" y="-228.8" font-family="Times,serif" font-size="14.00">samples = 11980</text>
<text text-anchor="middle" x="860.5" y="-213.8" font-family="Times,serif" font-size="14.00">value = [492, 222, 72, 0, 608, 10586]</text>
<text text-anchor="middle" x="860.5" y="-198.8" font-family="Times,serif" font-size="14.00">class = GDL</text>
</g>
<!-- 1&#45;&gt;73 -->
<g id="edge9" class="edge">
<title>1&#45;&gt;73</title>
<path fill="none" stroke="black" d="M860.5,-309.91C860.5,-301.65 860.5,-292.86 860.5,-284.3"/>
<polygon fill="black" stroke="black" points="864,-284.02 860.5,-274.02 857,-284.02 864,-284.02"/>
</g>
<!-- 3 -->
<g id="node4" class="node">
<title>3</title>
<polygon fill="#fadbed" stroke="black" points="275,-155 0,-155 0,-72 275,-72 275,-155"/>
<text text-anchor="middle" x="137.5" y="-139.8" font-family="Times,serif" font-size="14.00">sdComm &lt;= 0.2</text>
<text text-anchor="middle" x="137.5" y="-124.8" font-family="Times,serif" font-size="14.00">gini = 0.756</text>
<text text-anchor="middle" x="137.5" y="-109.8" font-family="Times,serif" font-size="14.00">samples = 1516</text>
<text text-anchor="middle" x="137.5" y="-94.8" font-family="Times,serif" font-size="14.00">value = [331, 219, 32, 72, 316, 546]</text>
<text text-anchor="middle" x="137.5" y="-79.8" font-family="Times,serif" font-size="14.00">class = GDL</text>
</g>
<!-- 2&#45;&gt;3 -->
<g id="edge3" class="edge">
<title>2&#45;&gt;3</title>
<path fill="none" stroke="black" d="M322.97,-190.91C297.86,-180.56 270.74,-169.39 245.19,-158.87"/>
<polygon fill="black" stroke="black" points="246.44,-155.59 235.86,-155.02 243.77,-162.07 246.44,-155.59"/>
</g>
<!-- 38 -->
<g id="node7" class="node">
<title>38</title>
<polygon fill="#f192c9" stroke="black" points="550,-155 293,-155 293,-72 550,-72 550,-155"/>
<text text-anchor="middle" x="421.5" y="-139.8" font-family="Times,serif" font-size="14.00">sdComp &lt;= 0.065</text>
<text text-anchor="middle" x="421.5" y="-124.8" font-family="Times,serif" font-size="14.00">gini = 0.54</text>
<text text-anchor="middle" x="421.5" y="-109.8" font-family="Times,serif" font-size="14.00">samples = 1821</text>
<text text-anchor="middle" x="421.5" y="-94.8" font-family="Times,serif" font-size="14.00">value = [290, 42, 0, 0, 337, 1152]</text>
<text text-anchor="middle" x="421.5" y="-79.8" font-family="Times,serif" font-size="14.00">class = GDL</text>
</g>
<!-- 2&#45;&gt;38 -->
<g id="edge6" class="edge">
<title>2&#45;&gt;38</title>
<path fill="none" stroke="black" d="M421.5,-190.91C421.5,-182.65 421.5,-173.86 421.5,-165.3"/>
<polygon fill="black" stroke="black" points="425,-165.02 421.5,-155.02 418,-165.02 425,-165.02"/>
</g>
<!-- 4 -->
<g id="node5" class="node">
<title>4</title>
<polygon fill="#c0c0c0" stroke="black" points="128.5,-36 74.5,-36 74.5,0 128.5,0 128.5,-36"/>
<text text-anchor="middle" x="101.5" y="-14.3" font-family="Times,serif" font-size="14.00">(...)</text>
</g>
<!-- 3&#45;&gt;4 -->
<g id="edge4" class="edge">
<title>3&#45;&gt;4</title>
<path fill="none" stroke="black" d="M121.81,-71.76C118.46,-63.04 114.99,-54.04 111.89,-45.99"/>
<polygon fill="black" stroke="black" points="115.06,-44.48 108.2,-36.41 108.53,-46.99 115.06,-44.48"/>
</g>
<!-- 27 -->
<g id="node6" class="node">
<title>27</title>
<polygon fill="#c0c0c0" stroke="black" points="200.5,-36 146.5,-36 146.5,0 200.5,0 200.5,-36"/>
<text text-anchor="middle" x="173.5" y="-14.3" font-family="Times,serif" font-size="14.00">(...)</text>
</g>
<!-- 3&#45;&gt;27 -->
<g id="edge5" class="edge">
<title>3&#45;&gt;27</title>
<path fill="none" stroke="black" d="M153.19,-71.76C156.54,-63.04 160.01,-54.04 163.11,-45.99"/>
<polygon fill="black" stroke="black" points="166.47,-46.99 166.8,-36.41 159.94,-44.48 166.47,-46.99"/>
</g>
<!-- 39 -->
<g id="node8" class="node">
<title>39</title>
<polygon fill="#c0c0c0" stroke="black" points="412.5,-36 358.5,-36 358.5,0 412.5,0 412.5,-36"/>
<text text-anchor="middle" x="385.5" y="-14.3" font-family="Times,serif" font-size="14.00">(...)</text>
</g>
<!-- 38&#45;&gt;39 -->
<g id="edge7" class="edge">
<title>38&#45;&gt;39</title>
<path fill="none" stroke="black" d="M405.81,-71.76C402.46,-63.04 398.99,-54.04 395.89,-45.99"/>
<polygon fill="black" stroke="black" points="399.06,-44.48 392.2,-36.41 392.53,-46.99 399.06,-44.48"/>
</g>
<!-- 50 -->
<g id="node9" class="node">
<title>50</title>
<polygon fill="#c0c0c0" stroke="black" points="484.5,-36 430.5,-36 430.5,0 484.5,0 484.5,-36"/>
<text text-anchor="middle" x="457.5" y="-14.3" font-family="Times,serif" font-size="14.00">(...)</text>
</g>
<!-- 38&#45;&gt;50 -->
<g id="edge8" class="edge">
<title>38&#45;&gt;50</title>
<path fill="none" stroke="black" d="M437.19,-71.76C440.54,-63.04 444.01,-54.04 447.11,-45.99"/>
<polygon fill="black" stroke="black" points="450.47,-46.99 450.8,-36.41 443.94,-44.48 450.47,-46.99"/>
</g>
<!-- 74 -->
<g id="node11" class="node">
<title>74</title>
<polygon fill="#ed75bb" stroke="black" points="843,-155 568,-155 568,-72 843,-72 843,-155"/>
<text text-anchor="middle" x="705.5" y="-139.8" font-family="Times,serif" font-size="14.00">graphDepth &lt;= 6.5</text>
<text text-anchor="middle" x="705.5" y="-124.8" font-family="Times,serif" font-size="14.00">gini = 0.442</text>
<text text-anchor="middle" x="705.5" y="-109.8" font-family="Times,serif" font-size="14.00">samples = 2328</text>
<text text-anchor="middle" x="705.5" y="-94.8" font-family="Times,serif" font-size="14.00">value = [220, 100, 48, 0, 258, 1702]</text>
<text text-anchor="middle" x="705.5" y="-79.8" font-family="Times,serif" font-size="14.00">class = GDL</text>
</g>
<!-- 73&#45;&gt;74 -->
<g id="edge10" class="edge">
<title>73&#45;&gt;74</title>
<path fill="none" stroke="black" d="M806.72,-190.91C793.98,-181.29 780.29,-170.95 767.22,-161.09"/>
<polygon fill="black" stroke="black" points="769.27,-158.25 759.18,-155.02 765.05,-163.84 769.27,-158.25"/>
</g>
<!-- 119 -->
<g id="node14" class="node">
<title>119</title>
<polygon fill="#e749a5" stroke="black" points="1136,-155 861,-155 861,-72 1136,-72 1136,-155"/>
<text text-anchor="middle" x="998.5" y="-139.8" font-family="Times,serif" font-size="14.00">graphSize &lt;= 22.5</text>
<text text-anchor="middle" x="998.5" y="-124.8" font-family="Times,serif" font-size="14.00">gini = 0.151</text>
<text text-anchor="middle" x="998.5" y="-109.8" font-family="Times,serif" font-size="14.00">samples = 9652</text>
<text text-anchor="middle" x="998.5" y="-94.8" font-family="Times,serif" font-size="14.00">value = [272, 122, 24, 0, 350, 8884]</text>
<text text-anchor="middle" x="998.5" y="-79.8" font-family="Times,serif" font-size="14.00">class = GDL</text>
</g>
<!-- 73&#45;&gt;119 -->
<g id="edge13" class="edge">
<title>73&#45;&gt;119</title>
<path fill="none" stroke="black" d="M908.38,-190.91C919.51,-181.47 931.45,-171.34 942.89,-161.65"/>
<polygon fill="black" stroke="black" points="945.34,-164.16 950.71,-155.02 940.82,-158.82 945.34,-164.16"/>
</g>
<!-- 75 -->
<g id="node12" class="node">
<title>75</title>
<polygon fill="#c0c0c0" stroke="black" points="696.5,-36 642.5,-36 642.5,0 696.5,0 696.5,-36"/>
<text text-anchor="middle" x="669.5" y="-14.3" font-family="Times,serif" font-size="14.00">(...)</text>
</g>
<!-- 74&#45;&gt;75 -->
<g id="edge11" class="edge">
<title>74&#45;&gt;75</title>
<path fill="none" stroke="black" d="M689.81,-71.76C686.46,-63.04 682.99,-54.04 679.89,-45.99"/>
<polygon fill="black" stroke="black" points="683.06,-44.48 676.2,-36.41 676.53,-46.99 683.06,-44.48"/>
</g>
<!-- 98 -->
<g id="node13" class="node">
<title>98</title>
<polygon fill="#c0c0c0" stroke="black" points="768.5,-36 714.5,-36 714.5,0 768.5,0 768.5,-36"/>
<text text-anchor="middle" x="741.5" y="-14.3" font-family="Times,serif" font-size="14.00">(...)</text>
</g>
<!-- 74&#45;&gt;98 -->
<g id="edge12" class="edge">
<title>74&#45;&gt;98</title>
<path fill="none" stroke="black" d="M721.19,-71.76C724.54,-63.04 728.01,-54.04 731.11,-45.99"/>
<polygon fill="black" stroke="black" points="734.47,-46.99 734.8,-36.41 727.94,-44.48 734.47,-46.99"/>
</g>
<!-- 120 -->
<g id="node15" class="node">
<title>120</title>
<polygon fill="#c0c0c0" stroke="black" points="989.5,-36 935.5,-36 935.5,0 989.5,0 989.5,-36"/>
<text text-anchor="middle" x="962.5" y="-14.3" font-family="Times,serif" font-size="14.00">(...)</text>
</g>
<!-- 119&#45;&gt;120 -->
<g id="edge14" class="edge">
<title>119&#45;&gt;120</title>
<path fill="none" stroke="black" d="M982.81,-71.76C979.46,-63.04 975.99,-54.04 972.89,-45.99"/>
<polygon fill="black" stroke="black" points="976.06,-44.48 969.2,-36.41 969.53,-46.99 976.06,-44.48"/>
</g>
<!-- 175 -->
<g id="node16" class="node">
<title>175</title>
<polygon fill="#c0c0c0" stroke="black" points="1061.5,-36 1007.5,-36 1007.5,0 1061.5,0 1061.5,-36"/>
<text text-anchor="middle" x="1034.5" y="-14.3" font-family="Times,serif" font-size="14.00">(...)</text>
</g>
<!-- 119&#45;&gt;175 -->
<g id="edge15" class="edge">
<title>119&#45;&gt;175</title>
<path fill="none" stroke="black" d="M1014.19,-71.76C1017.54,-63.04 1021.01,-54.04 1024.11,-45.99"/>
<polygon fill="black" stroke="black" points="1027.47,-46.99 1027.8,-36.41 1020.94,-44.48 1027.47,-46.99"/>
</g>
<!-- 253 -->
<g id="node18" class="node">
<title>253</title>
<polygon fill="#c4f7d9" stroke="black" points="1634.5,-274 1296.5,-274 1296.5,-191 1634.5,-191 1634.5,-274"/>
<text text-anchor="middle" x="1465.5" y="-258.8" font-family="Times,serif" font-size="14.00">nbproc &lt;= 4.5</text>
<text text-anchor="middle" x="1465.5" y="-243.8" font-family="Times,serif" font-size="14.00">gini = 0.704</text>
<text text-anchor="middle" x="1465.5" y="-228.8" font-family="Times,serif" font-size="14.00">samples = 18706</text>
<text text-anchor="middle" x="1465.5" y="-213.8" font-family="Times,serif" font-size="14.00">value = [1796, 1812, 8668, 4390, 1542, 498]</text>
<text text-anchor="middle" x="1465.5" y="-198.8" font-family="Times,serif" font-size="14.00">class = OLB</text>
</g>
<!-- 252&#45;&gt;253 -->
<g id="edge17" class="edge">
<title>252&#45;&gt;253</title>
<path fill="none" stroke="black" d="M1465.5,-309.91C1465.5,-301.65 1465.5,-292.86 1465.5,-284.3"/>
<polygon fill="black" stroke="black" points="1469,-284.02 1465.5,-274.02 1462,-284.02 1469,-284.02"/>
</g>
<!-- 348 -->
<g id="node25" class="node">
<title>348</title>
<polygon fill="#ccf8df" stroke="black" points="2163.5,-274 1807.5,-274 1807.5,-191 2163.5,-191 2163.5,-274"/>
<text text-anchor="middle" x="1985.5" y="-258.8" font-family="Times,serif" font-size="14.00">sdComp &lt;= 6.5</text>
<text text-anchor="middle" x="1985.5" y="-243.8" font-family="Times,serif" font-size="14.00">gini = 0.752</text>
<text text-anchor="middle" x="1985.5" y="-228.8" font-family="Times,serif" font-size="14.00">samples = 34312</text>
<text text-anchor="middle" x="1985.5" y="-213.8" font-family="Times,serif" font-size="14.00">value = [6530, 4508, 13656, 1036, 5876, 2706]</text>
<text text-anchor="middle" x="1985.5" y="-198.8" font-family="Times,serif" font-size="14.00">class = OLB</text>
</g>
<!-- 252&#45;&gt;348 -->
<g id="edge24" class="edge">
<title>252&#45;&gt;348</title>
<path fill="none" stroke="black" d="M1643.73,-310.4C1693.2,-299.27 1747.08,-287.15 1797.11,-275.89"/>
<polygon fill="black" stroke="black" points="1798.08,-279.26 1807.06,-273.65 1796.54,-272.43 1798.08,-279.26"/>
</g>
<!-- 254 -->
<g id="node19" class="node">
<title>254</title>
<polygon fill="#ddfbea" stroke="black" points="1465,-155 1154,-155 1154,-72 1465,-72 1465,-155"/>
<text text-anchor="middle" x="1309.5" y="-139.8" font-family="Times,serif" font-size="14.00">graphDepth &lt;= 3.5</text>
<text text-anchor="middle" x="1309.5" y="-124.8" font-family="Times,serif" font-size="14.00">gini = 0.74</text>
<text text-anchor="middle" x="1309.5" y="-109.8" font-family="Times,serif" font-size="14.00">samples = 8830</text>
<text text-anchor="middle" x="1309.5" y="-94.8" font-family="Times,serif" font-size="14.00">value = [960, 820, 3480, 2382, 888, 300]</text>
<text text-anchor="middle" x="1309.5" y="-79.8" font-family="Times,serif" font-size="14.00">class = OLB</text>
</g>
<!-- 253&#45;&gt;254 -->
<g id="edge18" class="edge">
<title>253&#45;&gt;254</title>
<path fill="none" stroke="black" d="M1411.38,-190.91C1398.55,-181.29 1384.77,-170.95 1371.62,-161.09"/>
<polygon fill="black" stroke="black" points="1373.63,-158.22 1363.53,-155.02 1369.43,-163.82 1373.63,-158.22"/>
</g>
<!-- 301 -->
<g id="node22" class="node">
<title>301</title>
<polygon fill="#aff4cc" stroke="black" points="1794,-155 1483,-155 1483,-72 1794,-72 1794,-155"/>
<text text-anchor="middle" x="1638.5" y="-139.8" font-family="Times,serif" font-size="14.00">graphDepth &lt;= 25.5</text>
<text text-anchor="middle" x="1638.5" y="-124.8" font-family="Times,serif" font-size="14.00">gini = 0.661</text>
<text text-anchor="middle" x="1638.5" y="-109.8" font-family="Times,serif" font-size="14.00">samples = 9876</text>
<text text-anchor="middle" x="1638.5" y="-94.8" font-family="Times,serif" font-size="14.00">value = [836, 992, 5188, 2008, 654, 198]</text>
<text text-anchor="middle" x="1638.5" y="-79.8" font-family="Times,serif" font-size="14.00">class = OLB</text>
</g>
<!-- 253&#45;&gt;301 -->
<g id="edge21" class="edge">
<title>253&#45;&gt;301</title>
<path fill="none" stroke="black" d="M1525.52,-190.91C1539.88,-181.2 1555.31,-170.76 1570.02,-160.81"/>
<polygon fill="black" stroke="black" points="1572.26,-163.52 1578.58,-155.02 1568.34,-157.72 1572.26,-163.52"/>
</g>
<!-- 255 -->
<g id="node20" class="node">
<title>255</title>
<polygon fill="#c0c0c0" stroke="black" points="1300.5,-36 1246.5,-36 1246.5,0 1300.5,0 1300.5,-36"/>
<text text-anchor="middle" x="1273.5" y="-14.3" font-family="Times,serif" font-size="14.00">(...)</text>
</g>
<!-- 254&#45;&gt;255 -->
<g id="edge19" class="edge">
<title>254&#45;&gt;255</title>
<path fill="none" stroke="black" d="M1293.81,-71.76C1290.46,-63.04 1286.99,-54.04 1283.89,-45.99"/>
<polygon fill="black" stroke="black" points="1287.06,-44.48 1280.2,-36.41 1280.53,-46.99 1287.06,-44.48"/>
</g>
<!-- 260 -->
<g id="node21" class="node">
<title>260</title>
<polygon fill="#c0c0c0" stroke="black" points="1372.5,-36 1318.5,-36 1318.5,0 1372.5,0 1372.5,-36"/>
<text text-anchor="middle" x="1345.5" y="-14.3" font-family="Times,serif" font-size="14.00">(...)</text>
</g>
<!-- 254&#45;&gt;260 -->
<g id="edge20" class="edge">
<title>254&#45;&gt;260</title>
<path fill="none" stroke="black" d="M1325.19,-71.76C1328.54,-63.04 1332.01,-54.04 1335.11,-45.99"/>
<polygon fill="black" stroke="black" points="1338.47,-46.99 1338.8,-36.41 1331.94,-44.48 1338.47,-46.99"/>
</g>
<!-- 302 -->
<g id="node23" class="node">
<title>302</title>
<polygon fill="#c0c0c0" stroke="black" points="1629.5,-36 1575.5,-36 1575.5,0 1629.5,0 1629.5,-36"/>
<text text-anchor="middle" x="1602.5" y="-14.3" font-family="Times,serif" font-size="14.00">(...)</text>
</g>
<!-- 301&#45;&gt;302 -->
<g id="edge22" class="edge">
<title>301&#45;&gt;302</title>
<path fill="none" stroke="black" d="M1622.81,-71.76C1619.46,-63.04 1615.99,-54.04 1612.89,-45.99"/>
<polygon fill="black" stroke="black" points="1616.06,-44.48 1609.2,-36.41 1609.53,-46.99 1616.06,-44.48"/>
</g>
<!-- 343 -->
<g id="node24" class="node">
<title>343</title>
<polygon fill="#c0c0c0" stroke="black" points="1701.5,-36 1647.5,-36 1647.5,0 1701.5,0 1701.5,-36"/>
<text text-anchor="middle" x="1674.5" y="-14.3" font-family="Times,serif" font-size="14.00">(...)</text>
</g>
<!-- 301&#45;&gt;343 -->
<g id="edge23" class="edge">
<title>301&#45;&gt;343</title>
<path fill="none" stroke="black" d="M1654.19,-71.76C1657.54,-63.04 1661.01,-54.04 1664.11,-45.99"/>
<polygon fill="black" stroke="black" points="1667.47,-46.99 1667.8,-36.41 1660.94,-44.48 1667.47,-46.99"/>
</g>
<!-- 349 -->
<g id="node26" class="node">
<title>349</title>
<polygon fill="#c1f7d8" stroke="black" points="2159,-155 1812,-155 1812,-72 2159,-72 2159,-155"/>
<text text-anchor="middle" x="1985.5" y="-139.8" font-family="Times,serif" font-size="14.00">graphSize &lt;= 22.5</text>
<text text-anchor="middle" x="1985.5" y="-124.8" font-family="Times,serif" font-size="14.00">gini = 0.732</text>
<text text-anchor="middle" x="1985.5" y="-109.8" font-family="Times,serif" font-size="14.00">samples = 20508</text>
<text text-anchor="middle" x="1985.5" y="-94.8" font-family="Times,serif" font-size="14.00">value = [3784, 2282, 8980, 1012, 3174, 1276]</text>
<text text-anchor="middle" x="1985.5" y="-79.8" font-family="Times,serif" font-size="14.00">class = OLB</text>
</g>
<!-- 348&#45;&gt;349 -->
<g id="edge25" class="edge">
<title>348&#45;&gt;349</title>
<path fill="none" stroke="black" d="M1985.5,-190.91C1985.5,-182.65 1985.5,-173.86 1985.5,-165.3"/>
<polygon fill="black" stroke="black" points="1989,-165.02 1985.5,-155.02 1982,-165.02 1989,-165.02"/>
</g>
<!-- 444 -->
<g id="node29" class="node">
<title>444</title>
<polygon fill="#dcfae9" stroke="black" points="2506,-155 2177,-155 2177,-72 2506,-72 2506,-155"/>
<text text-anchor="middle" x="2341.5" y="-139.8" font-family="Times,serif" font-size="14.00">sdComm &lt;= 2.0</text>
<text text-anchor="middle" x="2341.5" y="-124.8" font-family="Times,serif" font-size="14.00">gini = 0.771</text>
<text text-anchor="middle" x="2341.5" y="-109.8" font-family="Times,serif" font-size="14.00">samples = 13804</text>
<text text-anchor="middle" x="2341.5" y="-94.8" font-family="Times,serif" font-size="14.00">value = [2746, 2226, 4676, 24, 2702, 1430]</text>
<text text-anchor="middle" x="2341.5" y="-79.8" font-family="Times,serif" font-size="14.00">class = OLB</text>
</g>
<!-- 348&#45;&gt;444 -->
<g id="edge28" class="edge">
<title>348&#45;&gt;444</title>
<path fill="none" stroke="black" d="M2109.01,-190.91C2141.18,-180.33 2175.98,-168.9 2208.61,-158.17"/>
<polygon fill="black" stroke="black" points="2209.8,-161.47 2218.21,-155.02 2207.61,-154.82 2209.8,-161.47"/>
</g>
<!-- 350 -->
<g id="node27" class="node">
<title>350</title>
<polygon fill="#c0c0c0" stroke="black" points="1976.5,-36 1922.5,-36 1922.5,0 1976.5,0 1976.5,-36"/>
<text text-anchor="middle" x="1949.5" y="-14.3" font-family="Times,serif" font-size="14.00">(...)</text>
</g>
<!-- 349&#45;&gt;350 -->
<g id="edge26" class="edge">
<title>349&#45;&gt;350</title>
<path fill="none" stroke="black" d="M1969.81,-71.76C1966.46,-63.04 1962.99,-54.04 1959.89,-45.99"/>
<polygon fill="black" stroke="black" points="1963.06,-44.48 1956.2,-36.41 1956.53,-46.99 1963.06,-44.48"/>
</g>
<!-- 373 -->
<g id="node28" class="node">
<title>373</title>
<polygon fill="#c0c0c0" stroke="black" points="2048.5,-36 1994.5,-36 1994.5,0 2048.5,0 2048.5,-36"/>
<text text-anchor="middle" x="2021.5" y="-14.3" font-family="Times,serif" font-size="14.00">(...)</text>
</g>
<!-- 349&#45;&gt;373 -->
<g id="edge27" class="edge">
<title>349&#45;&gt;373</title>
<path fill="none" stroke="black" d="M2001.19,-71.76C2004.54,-63.04 2008.01,-54.04 2011.11,-45.99"/>
<polygon fill="black" stroke="black" points="2014.47,-46.99 2014.8,-36.41 2007.94,-44.48 2014.47,-46.99"/>
</g>
<!-- 445 -->
<g id="node30" class="node">
<title>445</title>
<polygon fill="#c0c0c0" stroke="black" points="2332.5,-36 2278.5,-36 2278.5,0 2332.5,0 2332.5,-36"/>
<text text-anchor="middle" x="2305.5" y="-14.3" font-family="Times,serif" font-size="14.00">(...)</text>
</g>
<!-- 444&#45;&gt;445 -->
<g id="edge29" class="edge">
<title>444&#45;&gt;445</title>
<path fill="none" stroke="black" d="M2325.81,-71.76C2322.46,-63.04 2318.99,-54.04 2315.89,-45.99"/>
<polygon fill="black" stroke="black" points="2319.06,-44.48 2312.2,-36.41 2312.53,-46.99 2319.06,-44.48"/>
</g>
<!-- 476 -->
<g id="node31" class="node">
<title>476</title>
<polygon fill="#c0c0c0" stroke="black" points="2404.5,-36 2350.5,-36 2350.5,0 2404.5,0 2404.5,-36"/>
<text text-anchor="middle" x="2377.5" y="-14.3" font-family="Times,serif" font-size="14.00">(...)</text>
</g>
<!-- 444&#45;&gt;476 -->
<g id="edge30" class="edge">
<title>444&#45;&gt;476</title>
<path fill="none" stroke="black" d="M2357.19,-71.76C2360.54,-63.04 2364.01,-54.04 2367.11,-45.99"/>
<polygon fill="black" stroke="black" points="2370.47,-46.99 2370.8,-36.41 2363.94,-44.48 2370.47,-46.99"/>
</g>
</g>
</svg>
