<?xml version="1.0" encoding="UTF-8" standalone="no"?>
<!DOCTYPE svg PUBLIC "-//W3C//DTD SVG 1.1//EN"
 "http://www.w3.org/Graphics/SVG/1.1/DTD/svg11.dtd">
<!-- Generated by graphviz version 2.43.0 (0)
 -->
<!-- Title: Tree Pages: 1 -->
<svg width="1424pt" height="520pt"
 viewBox="0.00 0.00 1424.00 520.00" xmlns="http://www.w3.org/2000/svg" xmlns:xlink="http://www.w3.org/1999/xlink">
<g id="graph0" class="graph" transform="scale(1 1) rotate(0) translate(4 516)">
<title>Tree</title>
<polygon fill="white" stroke="transparent" points="-4,4 -4,-516 1420,-516 1420,4 -4,4"/>
<!-- 0 -->
<g id="node1" class="node">
<title>0</title>
<polygon fill="#f5fafe" stroke="black" points="863,-512 678,-512 678,-429 863,-429 863,-512"/>
<text text-anchor="middle" x="770.5" y="-496.8" font-family="Times,serif" font-size="14.00">CCR &lt;= 5.5</text>
<text text-anchor="middle" x="770.5" y="-481.8" font-family="Times,serif" font-size="14.00">gini = 0.5</text>
<text text-anchor="middle" x="770.5" y="-466.8" font-family="Times,serif" font-size="14.00">samples = 68335</text>
<text text-anchor="middle" x="770.5" y="-451.8" font-family="Times,serif" font-size="14.00">value = [33302, 35033]</text>
<text text-anchor="middle" x="770.5" y="-436.8" font-family="Times,serif" font-size="14.00">class = True</text>
</g>
<!-- 1 -->
<g id="node2" class="node">
<title>1</title>
<polygon fill="#59ade9" stroke="black" points="603.5,-393 427.5,-393 427.5,-310 603.5,-310 603.5,-393"/>
<text text-anchor="middle" x="515.5" y="-377.8" font-family="Times,serif" font-size="14.00">graphDepth &lt;= 3.5</text>
<text text-anchor="middle" x="515.5" y="-362.8" font-family="Times,serif" font-size="14.00">gini = 0.238</text>
<text text-anchor="middle" x="515.5" y="-347.8" font-family="Times,serif" font-size="14.00">samples = 15317</text>
<text text-anchor="middle" x="515.5" y="-332.8" font-family="Times,serif" font-size="14.00">value = [2119, 13198]</text>
<text text-anchor="middle" x="515.5" y="-317.8" font-family="Times,serif" font-size="14.00">class = True</text>
</g>
<!-- 0&#45;&gt;1 -->
<g id="edge1" class="edge">
<title>0&#45;&gt;1</title>
<path fill="none" stroke="black" d="M682.03,-428.91C659.78,-418.7 635.77,-407.68 613.1,-397.28"/>
<polygon fill="black" stroke="black" points="614.36,-394.01 603.81,-393.02 611.44,-400.37 614.36,-394.01"/>
<text text-anchor="middle" x="612.51" y="-412.76" font-family="Times,serif" font-size="14.00">True</text>
</g>
<!-- 246 -->
<g id="node17" class="node">
<title>246</title>
<polygon fill="#f7d9c4" stroke="black" points="954,-393 769,-393 769,-310 954,-310 954,-393"/>
<text text-anchor="middle" x="861.5" y="-377.8" font-family="Times,serif" font-size="14.00">graphDepth &lt;= 3.5</text>
<text text-anchor="middle" x="861.5" y="-362.8" font-family="Times,serif" font-size="14.00">gini = 0.484</text>
<text text-anchor="middle" x="861.5" y="-347.8" font-family="Times,serif" font-size="14.00">samples = 53018</text>
<text text-anchor="middle" x="861.5" y="-332.8" font-family="Times,serif" font-size="14.00">value = [31183, 21835]</text>
<text text-anchor="middle" x="861.5" y="-317.8" font-family="Times,serif" font-size="14.00">class = False</text>
</g>
<!-- 0&#45;&gt;246 -->
<g id="edge16" class="edge">
<title>0&#45;&gt;246</title>
<path fill="none" stroke="black" d="M802.07,-428.91C809.06,-419.92 816.53,-410.32 823.74,-401.05"/>
<polygon fill="black" stroke="black" points="826.61,-403.06 829.98,-393.02 821.08,-398.77 826.61,-403.06"/>
<text text-anchor="middle" x="833.08" y="-414.13" font-family="Times,serif" font-size="14.00">False</text>
</g>
<!-- 2 -->
<g id="node3" class="node">
<title>2</title>
<polygon fill="#98ccf1" stroke="black" points="329,-274 162,-274 162,-191 329,-191 329,-274"/>
<text text-anchor="middle" x="245.5" y="-258.8" font-family="Times,serif" font-size="14.00">nbproc &lt;= 4.5</text>
<text text-anchor="middle" x="245.5" y="-243.8" font-family="Times,serif" font-size="14.00">gini = 0.438</text>
<text text-anchor="middle" x="245.5" y="-228.8" font-family="Times,serif" font-size="14.00">samples = 3337</text>
<text text-anchor="middle" x="245.5" y="-213.8" font-family="Times,serif" font-size="14.00">value = [1081, 2256]</text>
<text text-anchor="middle" x="245.5" y="-198.8" font-family="Times,serif" font-size="14.00">class = True</text>
</g>
<!-- 1&#45;&gt;2 -->
<g id="edge2" class="edge">
<title>1&#45;&gt;2</title>
<path fill="none" stroke="black" d="M427.47,-312.35C399,-300.02 367.35,-286.3 338.53,-273.81"/>
<polygon fill="black" stroke="black" points="339.85,-270.57 329.28,-269.81 337.07,-276.99 339.85,-270.57"/>
</g>
<!-- 73 -->
<g id="node10" class="node">
<title>73</title>
<polygon fill="#4ca6e7" stroke="black" points="603.5,-274 427.5,-274 427.5,-191 603.5,-191 603.5,-274"/>
<text text-anchor="middle" x="515.5" y="-258.8" font-family="Times,serif" font-size="14.00">sdComp &lt;= 0.02</text>
<text text-anchor="middle" x="515.5" y="-243.8" font-family="Times,serif" font-size="14.00">gini = 0.158</text>
<text text-anchor="middle" x="515.5" y="-228.8" font-family="Times,serif" font-size="14.00">samples = 11980</text>
<text text-anchor="middle" x="515.5" y="-213.8" font-family="Times,serif" font-size="14.00">value = [1038, 10942]</text>
<text text-anchor="middle" x="515.5" y="-198.8" font-family="Times,serif" font-size="14.00">class = True</text>
</g>
<!-- 1&#45;&gt;73 -->
<g id="edge9" class="edge">
<title>1&#45;&gt;73</title>
<path fill="none" stroke="black" d="M515.5,-309.91C515.5,-301.65 515.5,-292.86 515.5,-284.3"/>
<polygon fill="black" stroke="black" points="519,-284.02 515.5,-274.02 512,-284.02 519,-284.02"/>
</g>
<!-- 3 -->
<g id="node4" class="node">
<title>3</title>
<polygon fill="#bedff7" stroke="black" points="149,-155 0,-155 0,-72 149,-72 149,-155"/>
<text text-anchor="middle" x="74.5" y="-139.8" font-family="Times,serif" font-size="14.00">sdComm &lt;= 0.2</text>
<text text-anchor="middle" x="74.5" y="-124.8" font-family="Times,serif" font-size="14.00">gini = 0.481</text>
<text text-anchor="middle" x="74.5" y="-109.8" font-family="Times,serif" font-size="14.00">samples = 1516</text>
<text text-anchor="middle" x="74.5" y="-94.8" font-family="Times,serif" font-size="14.00">value = [610, 906]</text>
<text text-anchor="middle" x="74.5" y="-79.8" font-family="Times,serif" font-size="14.00">class = True</text>
</g>
<!-- 2&#45;&gt;3 -->
<g id="edge3" class="edge">
<title>2&#45;&gt;3</title>
<path fill="none" stroke="black" d="M186.17,-190.91C171.98,-181.2 156.72,-170.76 142.19,-160.81"/>
<polygon fill="black" stroke="black" points="143.95,-157.78 133.72,-155.02 140,-163.56 143.95,-157.78"/>
</g>
<!-- 38 -->
<g id="node7" class="node">
<title>38</title>
<polygon fill="#7ebfee" stroke="black" points="324.5,-155 166.5,-155 166.5,-72 324.5,-72 324.5,-155"/>
<text text-anchor="middle" x="245.5" y="-139.8" font-family="Times,serif" font-size="14.00">CCR &lt;= 0.55</text>
<text text-anchor="middle" x="245.5" y="-124.8" font-family="Times,serif" font-size="14.00">gini = 0.383</text>
<text text-anchor="middle" x="245.5" y="-109.8" font-family="Times,serif" font-size="14.00">samples = 1821</text>
<text text-anchor="middle" x="245.5" y="-94.8" font-family="Times,serif" font-size="14.00">value = [471, 1350]</text>
<text text-anchor="middle" x="245.5" y="-79.8" font-family="Times,serif" font-size="14.00">class = True</text>
</g>
<!-- 2&#45;&gt;38 -->
<g id="edge6" class="edge">
<title>2&#45;&gt;38</title>
<path fill="none" stroke="black" d="M245.5,-190.91C245.5,-182.65 245.5,-173.86 245.5,-165.3"/>
<polygon fill="black" stroke="black" points="249,-165.02 245.5,-155.02 242,-165.02 249,-165.02"/>
</g>
<!-- 4 -->
<g id="node5" class="node">
<title>4</title>
<polygon fill="#c0c0c0" stroke="black" points="88.5,-36 34.5,-36 34.5,0 88.5,0 88.5,-36"/>
<text text-anchor="middle" x="61.5" y="-14.3" font-family="Times,serif" font-size="14.00">(...)</text>
</g>
<!-- 3&#45;&gt;4 -->
<g id="edge4" class="edge">
<title>3&#45;&gt;4</title>
<path fill="none" stroke="black" d="M68.84,-71.76C67.65,-63.24 66.43,-54.44 65.33,-46.53"/>
<polygon fill="black" stroke="black" points="68.76,-45.83 63.92,-36.41 61.83,-46.79 68.76,-45.83"/>
</g>
<!-- 27 -->
<g id="node6" class="node">
<title>27</title>
<polygon fill="#c0c0c0" stroke="black" points="160.5,-36 106.5,-36 106.5,0 160.5,0 160.5,-36"/>
<text text-anchor="middle" x="133.5" y="-14.3" font-family="Times,serif" font-size="14.00">(...)</text>
</g>
<!-- 3&#45;&gt;27 -->
<g id="edge5" class="edge">
<title>3&#45;&gt;27</title>
<path fill="none" stroke="black" d="M100.21,-71.76C105.95,-62.65 111.9,-53.24 117.14,-44.92"/>
<polygon fill="black" stroke="black" points="120.14,-46.73 122.52,-36.41 114.22,-42.99 120.14,-46.73"/>
</g>
<!-- 39 -->
<g id="node8" class="node">
<title>39</title>
<polygon fill="#c0c0c0" stroke="black" points="237.5,-36 183.5,-36 183.5,0 237.5,0 237.5,-36"/>
<text text-anchor="middle" x="210.5" y="-14.3" font-family="Times,serif" font-size="14.00">(...)</text>
</g>
<!-- 38&#45;&gt;39 -->
<g id="edge7" class="edge">
<title>38&#45;&gt;39</title>
<path fill="none" stroke="black" d="M230.25,-71.76C226.99,-63.04 223.62,-54.04 220.6,-45.99"/>
<polygon fill="black" stroke="black" points="223.8,-44.54 217.02,-36.41 217.24,-47 223.8,-44.54"/>
</g>
<!-- 56 -->
<g id="node9" class="node">
<title>56</title>
<polygon fill="#c0c0c0" stroke="black" points="309.5,-36 255.5,-36 255.5,0 309.5,0 309.5,-36"/>
<text text-anchor="middle" x="282.5" y="-14.3" font-family="Times,serif" font-size="14.00">(...)</text>
</g>
<!-- 38&#45;&gt;56 -->
<g id="edge8" class="edge">
<title>38&#45;&gt;56</title>
<path fill="none" stroke="black" d="M261.62,-71.76C265.11,-62.94 268.71,-53.84 271.92,-45.72"/>
<polygon fill="black" stroke="black" points="275.19,-46.99 275.61,-36.41 268.68,-44.42 275.19,-46.99"/>
</g>
<!-- 74 -->
<g id="node11" class="node">
<title>74</title>
<polygon fill="#66b3eb" stroke="black" points="500.5,-155 342.5,-155 342.5,-72 500.5,-72 500.5,-155"/>
<text text-anchor="middle" x="421.5" y="-139.8" font-family="Times,serif" font-size="14.00">graphSize &lt;= 22.5</text>
<text text-anchor="middle" x="421.5" y="-124.8" font-family="Times,serif" font-size="14.00">gini = 0.302</text>
<text text-anchor="middle" x="421.5" y="-109.8" font-family="Times,serif" font-size="14.00">samples = 2328</text>
<text text-anchor="middle" x="421.5" y="-94.8" font-family="Times,serif" font-size="14.00">value = [432, 1896]</text>
<text text-anchor="middle" x="421.5" y="-79.8" font-family="Times,serif" font-size="14.00">class = True</text>
</g>
<!-- 73&#45;&gt;74 -->
<g id="edge10" class="edge">
<title>73&#45;&gt;74</title>
<path fill="none" stroke="black" d="M482.89,-190.91C475.67,-181.92 467.95,-172.32 460.51,-163.05"/>
<polygon fill="black" stroke="black" points="463.05,-160.62 454.06,-155.02 457.59,-165.01 463.05,-160.62"/>
</g>
<!-- 117 -->
<g id="node14" class="node">
<title>117</title>
<polygon fill="#46a4e7" stroke="black" points="676.5,-155 518.5,-155 518.5,-72 676.5,-72 676.5,-155"/>
<text text-anchor="middle" x="597.5" y="-139.8" font-family="Times,serif" font-size="14.00">sdComm &lt;= 0.65</text>
<text text-anchor="middle" x="597.5" y="-124.8" font-family="Times,serif" font-size="14.00">gini = 0.118</text>
<text text-anchor="middle" x="597.5" y="-109.8" font-family="Times,serif" font-size="14.00">samples = 9652</text>
<text text-anchor="middle" x="597.5" y="-94.8" font-family="Times,serif" font-size="14.00">value = [606, 9046]</text>
<text text-anchor="middle" x="597.5" y="-79.8" font-family="Times,serif" font-size="14.00">class = True</text>
</g>
<!-- 73&#45;&gt;117 -->
<g id="edge13" class="edge">
<title>73&#45;&gt;117</title>
<path fill="none" stroke="black" d="M543.95,-190.91C550.18,-182.01 556.84,-172.51 563.28,-163.33"/>
<polygon fill="black" stroke="black" points="566.23,-165.22 569.1,-155.02 560.5,-161.2 566.23,-165.22"/>
</g>
<!-- 75 -->
<g id="node12" class="node">
<title>75</title>
<polygon fill="#c0c0c0" stroke="black" points="390.5,-36 336.5,-36 336.5,0 390.5,0 390.5,-36"/>
<text text-anchor="middle" x="363.5" y="-14.3" font-family="Times,serif" font-size="14.00">(...)</text>
</g>
<!-- 74&#45;&gt;75 -->
<g id="edge11" class="edge">
<title>74&#45;&gt;75</title>
<path fill="none" stroke="black" d="M396.23,-71.76C390.58,-62.65 384.74,-53.24 379.58,-44.92"/>
<polygon fill="black" stroke="black" points="382.54,-43.06 374.3,-36.41 376.59,-46.75 382.54,-43.06"/>
</g>
<!-- 86 -->
<g id="node13" class="node">
<title>86</title>
<polygon fill="#c0c0c0" stroke="black" points="462.5,-36 408.5,-36 408.5,0 462.5,0 462.5,-36"/>
<text text-anchor="middle" x="435.5" y="-14.3" font-family="Times,serif" font-size="14.00">(...)</text>
</g>
<!-- 74&#45;&gt;86 -->
<g id="edge12" class="edge">
<title>74&#45;&gt;86</title>
<path fill="none" stroke="black" d="M427.6,-71.76C428.88,-63.24 430.19,-54.44 431.38,-46.53"/>
<polygon fill="black" stroke="black" points="434.87,-46.81 432.89,-36.41 427.95,-45.78 434.87,-46.81"/>
</g>
<!-- 118 -->
<g id="node15" class="node">
<title>118</title>
<polygon fill="#c0c0c0" stroke="black" points="570.5,-36 516.5,-36 516.5,0 570.5,0 570.5,-36"/>
<text text-anchor="middle" x="543.5" y="-14.3" font-family="Times,serif" font-size="14.00">(...)</text>
</g>
<!-- 117&#45;&gt;118 -->
<g id="edge14" class="edge">
<title>117&#45;&gt;118</title>
<path fill="none" stroke="black" d="M573.97,-71.76C568.77,-62.75 563.39,-53.44 558.63,-45.19"/>
<polygon fill="black" stroke="black" points="561.58,-43.31 553.55,-36.41 555.52,-46.82 561.58,-43.31"/>
</g>
<!-- 211 -->
<g id="node16" class="node">
<title>211</title>
<polygon fill="#c0c0c0" stroke="black" points="642.5,-36 588.5,-36 588.5,0 642.5,0 642.5,-36"/>
<text text-anchor="middle" x="615.5" y="-14.3" font-family="Times,serif" font-size="14.00">(...)</text>
</g>
<!-- 117&#45;&gt;211 -->
<g id="edge15" class="edge">
<title>117&#45;&gt;211</title>
<path fill="none" stroke="black" d="M605.34,-71.76C607,-63.14 608.72,-54.24 610.25,-46.26"/>
<polygon fill="black" stroke="black" points="613.7,-46.89 612.15,-36.41 606.82,-45.56 613.7,-46.89"/>
</g>
<!-- 247 -->
<g id="node18" class="node">
<title>247</title>
<polygon fill="#fbeee4" stroke="black" points="945,-274 778,-274 778,-191 945,-191 945,-274"/>
<text text-anchor="middle" x="861.5" y="-258.8" font-family="Times,serif" font-size="14.00">sdComp &lt;= 6.5</text>
<text text-anchor="middle" x="861.5" y="-243.8" font-family="Times,serif" font-size="14.00">gini = 0.497</text>
<text text-anchor="middle" x="861.5" y="-228.8" font-family="Times,serif" font-size="14.00">samples = 3748</text>
<text text-anchor="middle" x="861.5" y="-213.8" font-family="Times,serif" font-size="14.00">value = [2011, 1737]</text>
<text text-anchor="middle" x="861.5" y="-198.8" font-family="Times,serif" font-size="14.00">class = False</text>
</g>
<!-- 246&#45;&gt;247 -->
<g id="edge17" class="edge">
<title>246&#45;&gt;247</title>
<path fill="none" stroke="black" d="M861.5,-309.91C861.5,-301.65 861.5,-292.86 861.5,-284.3"/>
<polygon fill="black" stroke="black" points="865,-284.02 861.5,-274.02 858,-284.02 865,-284.02"/>
</g>
<!-- 282 -->
<g id="node25" class="node">
<title>282</title>
<polygon fill="#f7d8c1" stroke="black" points="1231,-274 1046,-274 1046,-191 1231,-191 1231,-274"/>
<text text-anchor="middle" x="1138.5" y="-258.8" font-family="Times,serif" font-size="14.00">sdComp &lt;= 6.5</text>
<text text-anchor="middle" x="1138.5" y="-243.8" font-family="Times,serif" font-size="14.00">gini = 0.483</text>
<text text-anchor="middle" x="1138.5" y="-228.8" font-family="Times,serif" font-size="14.00">samples = 49270</text>
<text text-anchor="middle" x="1138.5" y="-213.8" font-family="Times,serif" font-size="14.00">value = [29172, 20098]</text>
<text text-anchor="middle" x="1138.5" y="-198.8" font-family="Times,serif" font-size="14.00">class = False</text>
</g>
<!-- 246&#45;&gt;282 -->
<g id="edge24" class="edge">
<title>246&#45;&gt;282</title>
<path fill="none" stroke="black" d="M954.12,-311.38C980.57,-300.21 1009.54,-287.97 1036.51,-276.58"/>
<polygon fill="black" stroke="black" points="1038.12,-279.7 1045.97,-272.59 1035.39,-273.25 1038.12,-279.7"/>
</g>
<!-- 248 -->
<g id="node19" class="node">
<title>248</title>
<polygon fill="#fdf6f1" stroke="black" points="861,-155 694,-155 694,-72 861,-72 861,-155"/>
<text text-anchor="middle" x="777.5" y="-139.8" font-family="Times,serif" font-size="14.00">nbproc &lt;= 4.5</text>
<text text-anchor="middle" x="777.5" y="-124.8" font-family="Times,serif" font-size="14.00">gini = 0.499</text>
<text text-anchor="middle" x="777.5" y="-109.8" font-family="Times,serif" font-size="14.00">samples = 2616</text>
<text text-anchor="middle" x="777.5" y="-94.8" font-family="Times,serif" font-size="14.00">value = [1355, 1261]</text>
<text text-anchor="middle" x="777.5" y="-79.8" font-family="Times,serif" font-size="14.00">class = False</text>
</g>
<!-- 247&#45;&gt;248 -->
<g id="edge18" class="edge">
<title>247&#45;&gt;248</title>
<path fill="none" stroke="black" d="M832.36,-190.91C825.97,-182.01 819.15,-172.51 812.56,-163.33"/>
<polygon fill="black" stroke="black" points="815.27,-161.1 806.59,-155.02 809.58,-165.19 815.27,-161.1"/>
</g>
<!-- 271 -->
<g id="node22" class="node">
<title>271</title>
<polygon fill="#f8dcc9" stroke="black" points="1028,-155 879,-155 879,-72 1028,-72 1028,-155"/>
<text text-anchor="middle" x="953.5" y="-139.8" font-family="Times,serif" font-size="14.00">sdComm &lt;= 2.0</text>
<text text-anchor="middle" x="953.5" y="-124.8" font-family="Times,serif" font-size="14.00">gini = 0.487</text>
<text text-anchor="middle" x="953.5" y="-109.8" font-family="Times,serif" font-size="14.00">samples = 1132</text>
<text text-anchor="middle" x="953.5" y="-94.8" font-family="Times,serif" font-size="14.00">value = [656, 476]</text>
<text text-anchor="middle" x="953.5" y="-79.8" font-family="Times,serif" font-size="14.00">class = False</text>
</g>
<!-- 247&#45;&gt;271 -->
<g id="edge21" class="edge">
<title>247&#45;&gt;271</title>
<path fill="none" stroke="black" d="M893.42,-190.91C900.48,-181.92 908.04,-172.32 915.32,-163.05"/>
<polygon fill="black" stroke="black" points="918.21,-165.05 921.64,-155.02 912.7,-160.72 918.21,-165.05"/>
</g>
<!-- 249 -->
<g id="node20" class="node">
<title>249</title>
<polygon fill="#c0c0c0" stroke="black" points="748.5,-36 694.5,-36 694.5,0 748.5,0 748.5,-36"/>
<text text-anchor="middle" x="721.5" y="-14.3" font-family="Times,serif" font-size="14.00">(...)</text>
</g>
<!-- 248&#45;&gt;249 -->
<g id="edge19" class="edge">
<title>248&#45;&gt;249</title>
<path fill="none" stroke="black" d="M753.1,-71.76C747.7,-62.75 742.13,-53.44 737.19,-45.19"/>
<polygon fill="black" stroke="black" points="740.07,-43.19 731.92,-36.41 734.06,-46.78 740.07,-43.19"/>
</g>
<!-- 260 -->
<g id="node21" class="node">
<title>260</title>
<polygon fill="#c0c0c0" stroke="black" points="820.5,-36 766.5,-36 766.5,0 820.5,0 820.5,-36"/>
<text text-anchor="middle" x="793.5" y="-14.3" font-family="Times,serif" font-size="14.00">(...)</text>
</g>
<!-- 248&#45;&gt;260 -->
<g id="edge20" class="edge">
<title>248&#45;&gt;260</title>
<path fill="none" stroke="black" d="M784.47,-71.76C785.93,-63.24 787.44,-54.44 788.79,-46.53"/>
<polygon fill="black" stroke="black" points="792.28,-46.85 790.52,-36.41 785.38,-45.67 792.28,-46.85"/>
</g>
<!-- 272 -->
<g id="node23" class="node">
<title>272</title>
<polygon fill="#c0c0c0" stroke="black" points="928.5,-36 874.5,-36 874.5,0 928.5,0 928.5,-36"/>
<text text-anchor="middle" x="901.5" y="-14.3" font-family="Times,serif" font-size="14.00">(...)</text>
</g>
<!-- 271&#45;&gt;272 -->
<g id="edge22" class="edge">
<title>271&#45;&gt;272</title>
<path fill="none" stroke="black" d="M930.84,-71.76C925.83,-62.75 920.65,-53.44 916.07,-45.19"/>
<polygon fill="black" stroke="black" points="919.1,-43.44 911.18,-36.41 912.98,-46.85 919.1,-43.44"/>
</g>
<!-- 275 -->
<g id="node24" class="node">
<title>275</title>
<polygon fill="#c0c0c0" stroke="black" points="1000.5,-36 946.5,-36 946.5,0 1000.5,0 1000.5,-36"/>
<text text-anchor="middle" x="973.5" y="-14.3" font-family="Times,serif" font-size="14.00">(...)</text>
</g>
<!-- 271&#45;&gt;275 -->
<g id="edge23" class="edge">
<title>271&#45;&gt;275</title>
<path fill="none" stroke="black" d="M962.21,-71.76C964.06,-63.14 965.96,-54.24 967.67,-46.26"/>
<polygon fill="black" stroke="black" points="971.11,-46.92 969.78,-36.41 964.26,-45.45 971.11,-46.92"/>
</g>
<!-- 283 -->
<g id="node26" class="node">
<title>283</title>
<polygon fill="#f6d5bd" stroke="black" points="1231,-155 1046,-155 1046,-72 1231,-72 1231,-155"/>
<text text-anchor="middle" x="1138.5" y="-139.8" font-family="Times,serif" font-size="14.00">graphDepth &lt;= 25.5</text>
<text text-anchor="middle" x="1138.5" y="-124.8" font-family="Times,serif" font-size="14.00">gini = 0.48</text>
<text text-anchor="middle" x="1138.5" y="-109.8" font-family="Times,serif" font-size="14.00">samples = 36598</text>
<text text-anchor="middle" x="1138.5" y="-94.8" font-family="Times,serif" font-size="14.00">value = [21928, 14670]</text>
<text text-anchor="middle" x="1138.5" y="-79.8" font-family="Times,serif" font-size="14.00">class = False</text>
</g>
<!-- 282&#45;&gt;283 -->
<g id="edge25" class="edge">
<title>282&#45;&gt;283</title>
<path fill="none" stroke="black" d="M1138.5,-190.91C1138.5,-182.65 1138.5,-173.86 1138.5,-165.3"/>
<polygon fill="black" stroke="black" points="1142,-165.02 1138.5,-155.02 1135,-165.02 1142,-165.02"/>
</g>
<!-- 450 -->
<g id="node29" class="node">
<title>450</title>
<polygon fill="#f8dfcd" stroke="black" points="1416,-155 1249,-155 1249,-72 1416,-72 1416,-155"/>
<text text-anchor="middle" x="1332.5" y="-139.8" font-family="Times,serif" font-size="14.00">graphDepth &lt;= 25.5</text>
<text text-anchor="middle" x="1332.5" y="-124.8" font-family="Times,serif" font-size="14.00">gini = 0.49</text>
<text text-anchor="middle" x="1332.5" y="-109.8" font-family="Times,serif" font-size="14.00">samples = 12672</text>
<text text-anchor="middle" x="1332.5" y="-94.8" font-family="Times,serif" font-size="14.00">value = [7244, 5428]</text>
<text text-anchor="middle" x="1332.5" y="-79.8" font-family="Times,serif" font-size="14.00">class = False</text>
</g>
<!-- 282&#45;&gt;450 -->
<g id="edge28" class="edge">
<title>282&#45;&gt;450</title>
<path fill="none" stroke="black" d="M1205.81,-190.91C1222.21,-181.02 1239.86,-170.37 1256.63,-160.25"/>
<polygon fill="black" stroke="black" points="1258.56,-163.18 1265.31,-155.02 1254.94,-157.19 1258.56,-163.18"/>
</g>
<!-- 284 -->
<g id="node27" class="node">
<title>284</title>
<polygon fill="#c0c0c0" stroke="black" points="1129.5,-36 1075.5,-36 1075.5,0 1129.5,0 1129.5,-36"/>
<text text-anchor="middle" x="1102.5" y="-14.3" font-family="Times,serif" font-size="14.00">(...)</text>
</g>
<!-- 283&#45;&gt;284 -->
<g id="edge26" class="edge">
<title>283&#45;&gt;284</title>
<path fill="none" stroke="black" d="M1122.81,-71.76C1119.46,-63.04 1115.99,-54.04 1112.89,-45.99"/>
<polygon fill="black" stroke="black" points="1116.06,-44.48 1109.2,-36.41 1109.53,-46.99 1116.06,-44.48"/>
</g>
<!-- 427 -->
<g id="node28" class="node">
<title>427</title>
<polygon fill="#c0c0c0" stroke="black" points="1201.5,-36 1147.5,-36 1147.5,0 1201.5,0 1201.5,-36"/>
<text text-anchor="middle" x="1174.5" y="-14.3" font-family="Times,serif" font-size="14.00">(...)</text>
</g>
<!-- 283&#45;&gt;427 -->
<g id="edge27" class="edge">
<title>283&#45;&gt;427</title>
<path fill="none" stroke="black" d="M1154.19,-71.76C1157.54,-63.04 1161.01,-54.04 1164.11,-45.99"/>
<polygon fill="black" stroke="black" points="1167.47,-46.99 1167.8,-36.41 1160.94,-44.48 1167.47,-46.99"/>
</g>
<!-- 451 -->
<g id="node30" class="node">
<title>451</title>
<polygon fill="#c0c0c0" stroke="black" points="1323.5,-36 1269.5,-36 1269.5,0 1323.5,0 1323.5,-36"/>
<text text-anchor="middle" x="1296.5" y="-14.3" font-family="Times,serif" font-size="14.00">(...)</text>
</g>
<!-- 450&#45;&gt;451 -->
<g id="edge29" class="edge">
<title>450&#45;&gt;451</title>
<path fill="none" stroke="black" d="M1316.81,-71.76C1313.46,-63.04 1309.99,-54.04 1306.89,-45.99"/>
<polygon fill="black" stroke="black" points="1310.06,-44.48 1303.2,-36.41 1303.53,-46.99 1310.06,-44.48"/>
</g>
<!-- 522 -->
<g id="node31" class="node">
<title>522</title>
<polygon fill="#c0c0c0" stroke="black" points="1395.5,-36 1341.5,-36 1341.5,0 1395.5,0 1395.5,-36"/>
<text text-anchor="middle" x="1368.5" y="-14.3" font-family="Times,serif" font-size="14.00">(...)</text>
</g>
<!-- 450&#45;&gt;522 -->
<g id="edge30" class="edge">
<title>450&#45;&gt;522</title>
<path fill="none" stroke="black" d="M1348.19,-71.76C1351.54,-63.04 1355.01,-54.04 1358.11,-45.99"/>
<polygon fill="black" stroke="black" points="1361.47,-46.99 1361.8,-36.41 1354.94,-44.48 1361.47,-46.99"/>
</g>
</g>
</svg>
