<?xml version="1.0" encoding="UTF-8" standalone="no"?>
<!DOCTYPE svg PUBLIC "-//W3C//DTD SVG 1.1//EN"
 "http://www.w3.org/Graphics/SVG/1.1/DTD/svg11.dtd">
<!-- Generated by graphviz version 2.43.0 (0)
 -->
<!-- Title: Tree Pages: 1 -->
<svg width="1456pt" height="520pt"
 viewBox="0.00 0.00 1455.50 520.00" xmlns="http://www.w3.org/2000/svg" xmlns:xlink="http://www.w3.org/1999/xlink">
<g id="graph0" class="graph" transform="scale(1 1) rotate(0) translate(4 516)">
<title>Tree</title>
<polygon fill="white" stroke="transparent" points="-4,4 -4,-516 1451.5,-516 1451.5,4 -4,4"/>
<!-- 0 -->
<g id="node1" class="node">
<title>0</title>
<polygon fill="#88c4ef" stroke="black" points="791.5,-512 606.5,-512 606.5,-429 791.5,-429 791.5,-512"/>
<text text-anchor="middle" x="699" y="-496.8" font-family="Times,serif" font-size="14.00">CCR &lt;= 5.5</text>
<text text-anchor="middle" x="699" y="-481.8" font-family="Times,serif" font-size="14.00">gini = 0.408</text>
<text text-anchor="middle" x="699" y="-466.8" font-family="Times,serif" font-size="14.00">samples = 68335</text>
<text text-anchor="middle" x="699" y="-451.8" font-family="Times,serif" font-size="14.00">value = [19505, 48830]</text>
<text text-anchor="middle" x="699" y="-436.8" font-family="Times,serif" font-size="14.00">class = True</text>
</g>
<!-- 1 -->
<g id="node2" class="node">
<title>1</title>
<polygon fill="#c8e4f8" stroke="black" points="604.5,-393 437.5,-393 437.5,-310 604.5,-310 604.5,-393"/>
<text text-anchor="middle" x="521" y="-377.8" font-family="Times,serif" font-size="14.00">graphDepth &lt;= 3.5</text>
<text text-anchor="middle" x="521" y="-362.8" font-family="Times,serif" font-size="14.00">gini = 0.487</text>
<text text-anchor="middle" x="521" y="-347.8" font-family="Times,serif" font-size="14.00">samples = 15317</text>
<text text-anchor="middle" x="521" y="-332.8" font-family="Times,serif" font-size="14.00">value = [6422, 8895]</text>
<text text-anchor="middle" x="521" y="-317.8" font-family="Times,serif" font-size="14.00">class = True</text>
</g>
<!-- 0&#45;&gt;1 -->
<g id="edge1" class="edge">
<title>0&#45;&gt;1</title>
<path fill="none" stroke="black" d="M637.24,-428.91C622.33,-419.11 606.29,-408.56 591.03,-398.53"/>
<polygon fill="black" stroke="black" points="592.93,-395.59 582.65,-393.02 589.08,-401.44 592.93,-395.59"/>
<text text-anchor="middle" x="587.71" y="-413.8" font-family="Times,serif" font-size="14.00">True</text>
</g>
<!-- 518 -->
<g id="node17" class="node">
<title>518</title>
<polygon fill="#7abdee" stroke="black" points="982.5,-393 797.5,-393 797.5,-310 982.5,-310 982.5,-393"/>
<text text-anchor="middle" x="890" y="-377.8" font-family="Times,serif" font-size="14.00">graphDepth &lt;= 25.5</text>
<text text-anchor="middle" x="890" y="-362.8" font-family="Times,serif" font-size="14.00">gini = 0.372</text>
<text text-anchor="middle" x="890" y="-347.8" font-family="Times,serif" font-size="14.00">samples = 53018</text>
<text text-anchor="middle" x="890" y="-332.8" font-family="Times,serif" font-size="14.00">value = [13083, 39935]</text>
<text text-anchor="middle" x="890" y="-317.8" font-family="Times,serif" font-size="14.00">class = True</text>
</g>
<!-- 0&#45;&gt;518 -->
<g id="edge16" class="edge">
<title>0&#45;&gt;518</title>
<path fill="none" stroke="black" d="M765.27,-428.91C781.41,-419.02 798.8,-408.37 815.31,-398.25"/>
<polygon fill="black" stroke="black" points="817.15,-401.23 823.85,-393.02 813.5,-395.26 817.15,-401.23"/>
<text text-anchor="middle" x="818.01" y="-413.63" font-family="Times,serif" font-size="14.00">False</text>
</g>
<!-- 2 -->
<g id="node3" class="node">
<title>2</title>
<polygon fill="#99ccf2" stroke="black" points="338.5,-274 171.5,-274 171.5,-191 338.5,-191 338.5,-274"/>
<text text-anchor="middle" x="255" y="-258.8" font-family="Times,serif" font-size="14.00">nbproc &lt;= 4.5</text>
<text text-anchor="middle" x="255" y="-243.8" font-family="Times,serif" font-size="14.00">gini = 0.439</text>
<text text-anchor="middle" x="255" y="-228.8" font-family="Times,serif" font-size="14.00">samples = 3337</text>
<text text-anchor="middle" x="255" y="-213.8" font-family="Times,serif" font-size="14.00">value = [1088, 2249]</text>
<text text-anchor="middle" x="255" y="-198.8" font-family="Times,serif" font-size="14.00">class = True</text>
</g>
<!-- 1&#45;&gt;2 -->
<g id="edge2" class="edge">
<title>1&#45;&gt;2</title>
<path fill="none" stroke="black" d="M437.2,-313.64C408.89,-301.19 377.13,-287.22 348.14,-274.47"/>
<polygon fill="black" stroke="black" points="349.4,-271.2 338.83,-270.37 346.58,-277.6 349.4,-271.2"/>
</g>
<!-- 59 -->
<g id="node10" class="node">
<title>59</title>
<polygon fill="#d8ecfa" stroke="black" points="604.5,-274 437.5,-274 437.5,-191 604.5,-191 604.5,-274"/>
<text text-anchor="middle" x="521" y="-258.8" font-family="Times,serif" font-size="14.00">sdComp &lt;= 0.65</text>
<text text-anchor="middle" x="521" y="-243.8" font-family="Times,serif" font-size="14.00">gini = 0.494</text>
<text text-anchor="middle" x="521" y="-228.8" font-family="Times,serif" font-size="14.00">samples = 11980</text>
<text text-anchor="middle" x="521" y="-213.8" font-family="Times,serif" font-size="14.00">value = [5334, 6646]</text>
<text text-anchor="middle" x="521" y="-198.8" font-family="Times,serif" font-size="14.00">class = True</text>
</g>
<!-- 1&#45;&gt;59 -->
<g id="edge9" class="edge">
<title>1&#45;&gt;59</title>
<path fill="none" stroke="black" d="M521,-309.91C521,-301.65 521,-292.86 521,-284.3"/>
<polygon fill="black" stroke="black" points="524.5,-284.02 521,-274.02 517.5,-284.02 524.5,-284.02"/>
</g>
<!-- 3 -->
<g id="node4" class="node">
<title>3</title>
<polygon fill="#6fb8ec" stroke="black" points="158,-155 0,-155 0,-72 158,-72 158,-155"/>
<text text-anchor="middle" x="79" y="-139.8" font-family="Times,serif" font-size="14.00">sdComp &lt;= 0.065</text>
<text text-anchor="middle" x="79" y="-124.8" font-family="Times,serif" font-size="14.00">gini = 0.336</text>
<text text-anchor="middle" x="79" y="-109.8" font-family="Times,serif" font-size="14.00">samples = 1516</text>
<text text-anchor="middle" x="79" y="-94.8" font-family="Times,serif" font-size="14.00">value = [324, 1192]</text>
<text text-anchor="middle" x="79" y="-79.8" font-family="Times,serif" font-size="14.00">class = True</text>
</g>
<!-- 2&#45;&gt;3 -->
<g id="edge3" class="edge">
<title>2&#45;&gt;3</title>
<path fill="none" stroke="black" d="M193.94,-190.91C179.33,-181.2 163.63,-170.76 148.66,-160.81"/>
<polygon fill="black" stroke="black" points="150.22,-157.64 139.95,-155.02 146.34,-163.47 150.22,-157.64"/>
</g>
<!-- 24 -->
<g id="node7" class="node">
<title>24</title>
<polygon fill="#c8e4f8" stroke="black" points="334,-155 176,-155 176,-72 334,-72 334,-155"/>
<text text-anchor="middle" x="255" y="-139.8" font-family="Times,serif" font-size="14.00">sdComp &lt;= 0.02</text>
<text text-anchor="middle" x="255" y="-124.8" font-family="Times,serif" font-size="14.00">gini = 0.487</text>
<text text-anchor="middle" x="255" y="-109.8" font-family="Times,serif" font-size="14.00">samples = 1821</text>
<text text-anchor="middle" x="255" y="-94.8" font-family="Times,serif" font-size="14.00">value = [764, 1057]</text>
<text text-anchor="middle" x="255" y="-79.8" font-family="Times,serif" font-size="14.00">class = True</text>
</g>
<!-- 2&#45;&gt;24 -->
<g id="edge6" class="edge">
<title>2&#45;&gt;24</title>
<path fill="none" stroke="black" d="M255,-190.91C255,-182.65 255,-173.86 255,-165.3"/>
<polygon fill="black" stroke="black" points="258.5,-165.02 255,-155.02 251.5,-165.02 258.5,-165.02"/>
</g>
<!-- 4 -->
<g id="node5" class="node">
<title>4</title>
<polygon fill="#c0c0c0" stroke="black" points="70,-36 16,-36 16,0 70,0 70,-36"/>
<text text-anchor="middle" x="43" y="-14.3" font-family="Times,serif" font-size="14.00">(...)</text>
</g>
<!-- 3&#45;&gt;4 -->
<g id="edge4" class="edge">
<title>3&#45;&gt;4</title>
<path fill="none" stroke="black" d="M63.31,-71.76C59.96,-63.04 56.49,-54.04 53.39,-45.99"/>
<polygon fill="black" stroke="black" points="56.56,-44.48 49.7,-36.41 50.03,-46.99 56.56,-44.48"/>
</g>
<!-- 5 -->
<g id="node6" class="node">
<title>5</title>
<polygon fill="#c0c0c0" stroke="black" points="142,-36 88,-36 88,0 142,0 142,-36"/>
<text text-anchor="middle" x="115" y="-14.3" font-family="Times,serif" font-size="14.00">(...)</text>
</g>
<!-- 3&#45;&gt;5 -->
<g id="edge5" class="edge">
<title>3&#45;&gt;5</title>
<path fill="none" stroke="black" d="M94.69,-71.76C98.04,-63.04 101.51,-54.04 104.61,-45.99"/>
<polygon fill="black" stroke="black" points="107.97,-46.99 108.3,-36.41 101.44,-44.48 107.97,-46.99"/>
</g>
<!-- 25 -->
<g id="node8" class="node">
<title>25</title>
<polygon fill="#c0c0c0" stroke="black" points="250,-36 196,-36 196,0 250,0 250,-36"/>
<text text-anchor="middle" x="223" y="-14.3" font-family="Times,serif" font-size="14.00">(...)</text>
</g>
<!-- 24&#45;&gt;25 -->
<g id="edge7" class="edge">
<title>24&#45;&gt;25</title>
<path fill="none" stroke="black" d="M241.06,-71.76C238.07,-63.04 234.99,-54.04 232.24,-45.99"/>
<polygon fill="black" stroke="black" points="235.51,-44.73 228.96,-36.41 228.88,-47 235.51,-44.73"/>
</g>
<!-- 30 -->
<g id="node9" class="node">
<title>30</title>
<polygon fill="#c0c0c0" stroke="black" points="322,-36 268,-36 268,0 322,0 322,-36"/>
<text text-anchor="middle" x="295" y="-14.3" font-family="Times,serif" font-size="14.00">(...)</text>
</g>
<!-- 24&#45;&gt;30 -->
<g id="edge8" class="edge">
<title>24&#45;&gt;30</title>
<path fill="none" stroke="black" d="M272.43,-71.76C276.2,-62.94 280.1,-53.84 283.57,-45.72"/>
<polygon fill="black" stroke="black" points="286.84,-46.98 287.55,-36.41 280.4,-44.22 286.84,-46.98"/>
</g>
<!-- 60 -->
<g id="node11" class="node">
<title>60</title>
<polygon fill="#deeffb" stroke="black" points="518.5,-155 351.5,-155 351.5,-72 518.5,-72 518.5,-155"/>
<text text-anchor="middle" x="435" y="-139.8" font-family="Times,serif" font-size="14.00">nbproc &lt;= 4.5</text>
<text text-anchor="middle" x="435" y="-124.8" font-family="Times,serif" font-size="14.00">gini = 0.496</text>
<text text-anchor="middle" x="435" y="-109.8" font-family="Times,serif" font-size="14.00">samples = 10882</text>
<text text-anchor="middle" x="435" y="-94.8" font-family="Times,serif" font-size="14.00">value = [4952, 5930]</text>
<text text-anchor="middle" x="435" y="-79.8" font-family="Times,serif" font-size="14.00">class = True</text>
</g>
<!-- 59&#45;&gt;60 -->
<g id="edge10" class="edge">
<title>59&#45;&gt;60</title>
<path fill="none" stroke="black" d="M491.16,-190.91C484.63,-182.01 477.64,-172.51 470.89,-163.33"/>
<polygon fill="black" stroke="black" points="473.53,-161.01 464.78,-155.02 467.89,-165.15 473.53,-161.01"/>
</g>
<!-- 451 -->
<g id="node14" class="node">
<title>451</title>
<polygon fill="#a3d1f3" stroke="black" points="689.5,-155 536.5,-155 536.5,-72 689.5,-72 689.5,-155"/>
<text text-anchor="middle" x="613" y="-139.8" font-family="Times,serif" font-size="14.00">graphSize &lt;= 40.0</text>
<text text-anchor="middle" x="613" y="-124.8" font-family="Times,serif" font-size="14.00">gini = 0.454</text>
<text text-anchor="middle" x="613" y="-109.8" font-family="Times,serif" font-size="14.00">samples = 1098</text>
<text text-anchor="middle" x="613" y="-94.8" font-family="Times,serif" font-size="14.00">value = [382, 716]</text>
<text text-anchor="middle" x="613" y="-79.8" font-family="Times,serif" font-size="14.00">class = True</text>
</g>
<!-- 59&#45;&gt;451 -->
<g id="edge13" class="edge">
<title>59&#45;&gt;451</title>
<path fill="none" stroke="black" d="M552.92,-190.91C559.98,-181.92 567.54,-172.32 574.82,-163.05"/>
<polygon fill="black" stroke="black" points="577.71,-165.05 581.14,-155.02 572.2,-160.72 577.71,-165.05"/>
</g>
<!-- 61 -->
<g id="node12" class="node">
<title>61</title>
<polygon fill="#c0c0c0" stroke="black" points="427,-36 373,-36 373,0 427,0 427,-36"/>
<text text-anchor="middle" x="400" y="-14.3" font-family="Times,serif" font-size="14.00">(...)</text>
</g>
<!-- 60&#45;&gt;61 -->
<g id="edge11" class="edge">
<title>60&#45;&gt;61</title>
<path fill="none" stroke="black" d="M419.75,-71.76C416.49,-63.04 413.12,-54.04 410.1,-45.99"/>
<polygon fill="black" stroke="black" points="413.3,-44.54 406.52,-36.41 406.74,-47 413.3,-44.54"/>
</g>
<!-- 256 -->
<g id="node13" class="node">
<title>256</title>
<polygon fill="#c0c0c0" stroke="black" points="499,-36 445,-36 445,0 499,0 499,-36"/>
<text text-anchor="middle" x="472" y="-14.3" font-family="Times,serif" font-size="14.00">(...)</text>
</g>
<!-- 60&#45;&gt;256 -->
<g id="edge12" class="edge">
<title>60&#45;&gt;256</title>
<path fill="none" stroke="black" d="M451.12,-71.76C454.61,-62.94 458.21,-53.84 461.42,-45.72"/>
<polygon fill="black" stroke="black" points="464.69,-46.99 465.11,-36.41 458.18,-44.42 464.69,-46.99"/>
</g>
<!-- 452 -->
<g id="node15" class="node">
<title>452</title>
<polygon fill="#c0c0c0" stroke="black" points="587,-36 533,-36 533,0 587,0 587,-36"/>
<text text-anchor="middle" x="560" y="-14.3" font-family="Times,serif" font-size="14.00">(...)</text>
</g>
<!-- 451&#45;&gt;452 -->
<g id="edge14" class="edge">
<title>451&#45;&gt;452</title>
<path fill="none" stroke="black" d="M589.91,-71.76C584.8,-62.75 579.52,-53.44 574.85,-45.19"/>
<polygon fill="black" stroke="black" points="577.84,-43.38 569.87,-36.41 571.75,-46.83 577.84,-43.38"/>
</g>
<!-- 485 -->
<g id="node16" class="node">
<title>485</title>
<polygon fill="#c0c0c0" stroke="black" points="659,-36 605,-36 605,0 659,0 659,-36"/>
<text text-anchor="middle" x="632" y="-14.3" font-family="Times,serif" font-size="14.00">(...)</text>
</g>
<!-- 451&#45;&gt;485 -->
<g id="edge15" class="edge">
<title>451&#45;&gt;485</title>
<path fill="none" stroke="black" d="M621.28,-71.76C623.03,-63.14 624.84,-54.24 626.46,-46.26"/>
<polygon fill="black" stroke="black" points="629.9,-46.9 628.46,-36.41 623.04,-45.51 629.9,-46.9"/>
</g>
<!-- 519 -->
<g id="node18" class="node">
<title>519</title>
<polygon fill="#72b9ed" stroke="black" points="982.5,-274 797.5,-274 797.5,-191 982.5,-191 982.5,-274"/>
<text text-anchor="middle" x="890" y="-258.8" font-family="Times,serif" font-size="14.00">sdComp &lt;= 2.0</text>
<text text-anchor="middle" x="890" y="-243.8" font-family="Times,serif" font-size="14.00">gini = 0.348</text>
<text text-anchor="middle" x="890" y="-228.8" font-family="Times,serif" font-size="14.00">samples = 44978</text>
<text text-anchor="middle" x="890" y="-213.8" font-family="Times,serif" font-size="14.00">value = [10099, 34879]</text>
<text text-anchor="middle" x="890" y="-198.8" font-family="Times,serif" font-size="14.00">class = True</text>
</g>
<!-- 518&#45;&gt;519 -->
<g id="edge17" class="edge">
<title>518&#45;&gt;519</title>
<path fill="none" stroke="black" d="M890,-309.91C890,-301.65 890,-292.86 890,-284.3"/>
<polygon fill="black" stroke="black" points="893.5,-284.02 890,-274.02 886.5,-284.02 893.5,-284.02"/>
</g>
<!-- 756 -->
<g id="node25" class="node">
<title>756</title>
<polygon fill="#aed7f4" stroke="black" points="1262.5,-274 1095.5,-274 1095.5,-191 1262.5,-191 1262.5,-274"/>
<text text-anchor="middle" x="1179" y="-258.8" font-family="Times,serif" font-size="14.00">nbproc &lt;= 4.5</text>
<text text-anchor="middle" x="1179" y="-243.8" font-family="Times,serif" font-size="14.00">gini = 0.467</text>
<text text-anchor="middle" x="1179" y="-228.8" font-family="Times,serif" font-size="14.00">samples = 8040</text>
<text text-anchor="middle" x="1179" y="-213.8" font-family="Times,serif" font-size="14.00">value = [2984, 5056]</text>
<text text-anchor="middle" x="1179" y="-198.8" font-family="Times,serif" font-size="14.00">class = True</text>
</g>
<!-- 518&#45;&gt;756 -->
<g id="edge24" class="edge">
<title>518&#45;&gt;756</title>
<path fill="none" stroke="black" d="M982.63,-313C1015.54,-299.67 1052.59,-284.68 1085.56,-271.33"/>
<polygon fill="black" stroke="black" points="1087.25,-274.42 1095.2,-267.43 1084.62,-267.93 1087.25,-274.42"/>
</g>
<!-- 520 -->
<g id="node19" class="node">
<title>520</title>
<polygon fill="#5caeea" stroke="black" points="884,-155 708,-155 708,-72 884,-72 884,-155"/>
<text text-anchor="middle" x="796" y="-139.8" font-family="Times,serif" font-size="14.00">sdComm &lt;= 6.5</text>
<text text-anchor="middle" x="796" y="-124.8" font-family="Times,serif" font-size="14.00">gini = 0.255</text>
<text text-anchor="middle" x="796" y="-109.8" font-family="Times,serif" font-size="14.00">samples = 15478</text>
<text text-anchor="middle" x="796" y="-94.8" font-family="Times,serif" font-size="14.00">value = [2318, 13160]</text>
<text text-anchor="middle" x="796" y="-79.8" font-family="Times,serif" font-size="14.00">class = True</text>
</g>
<!-- 519&#45;&gt;520 -->
<g id="edge18" class="edge">
<title>519&#45;&gt;520</title>
<path fill="none" stroke="black" d="M857.39,-190.91C850.17,-181.92 842.45,-172.32 835.01,-163.05"/>
<polygon fill="black" stroke="black" points="837.55,-160.62 828.56,-155.02 832.09,-165.01 837.55,-160.62"/>
</g>
<!-- 591 -->
<g id="node22" class="node">
<title>591</title>
<polygon fill="#80c0ee" stroke="black" points="1078,-155 902,-155 902,-72 1078,-72 1078,-155"/>
<text text-anchor="middle" x="990" y="-139.8" font-family="Times,serif" font-size="14.00">graphSize &lt;= 22.5</text>
<text text-anchor="middle" x="990" y="-124.8" font-family="Times,serif" font-size="14.00">gini = 0.388</text>
<text text-anchor="middle" x="990" y="-109.8" font-family="Times,serif" font-size="14.00">samples = 29500</text>
<text text-anchor="middle" x="990" y="-94.8" font-family="Times,serif" font-size="14.00">value = [7781, 21719]</text>
<text text-anchor="middle" x="990" y="-79.8" font-family="Times,serif" font-size="14.00">class = True</text>
</g>
<!-- 519&#45;&gt;591 -->
<g id="edge21" class="edge">
<title>519&#45;&gt;591</title>
<path fill="none" stroke="black" d="M924.69,-190.91C932.45,-181.83 940.75,-172.12 948.74,-162.77"/>
<polygon fill="black" stroke="black" points="951.53,-164.9 955.37,-155.02 946.21,-160.35 951.53,-164.9"/>
</g>
<!-- 521 -->
<g id="node20" class="node">
<title>521</title>
<polygon fill="#c0c0c0" stroke="black" points="776,-36 722,-36 722,0 776,0 776,-36"/>
<text text-anchor="middle" x="749" y="-14.3" font-family="Times,serif" font-size="14.00">(...)</text>
</g>
<!-- 520&#45;&gt;521 -->
<g id="edge19" class="edge">
<title>520&#45;&gt;521</title>
<path fill="none" stroke="black" d="M775.52,-71.76C771.04,-62.85 766.41,-53.64 762.3,-45.46"/>
<polygon fill="black" stroke="black" points="765.37,-43.77 757.75,-36.41 759.11,-46.91 765.37,-43.77"/>
</g>
<!-- 568 -->
<g id="node21" class="node">
<title>568</title>
<polygon fill="#c0c0c0" stroke="black" points="848,-36 794,-36 794,0 848,0 848,-36"/>
<text text-anchor="middle" x="821" y="-14.3" font-family="Times,serif" font-size="14.00">(...)</text>
</g>
<!-- 520&#45;&gt;568 -->
<g id="edge20" class="edge">
<title>520&#45;&gt;568</title>
<path fill="none" stroke="black" d="M806.89,-71.76C809.2,-63.14 811.58,-54.24 813.71,-46.26"/>
<polygon fill="black" stroke="black" points="817.14,-46.97 816.35,-36.41 810.38,-45.16 817.14,-46.97"/>
</g>
<!-- 592 -->
<g id="node23" class="node">
<title>592</title>
<polygon fill="#c0c0c0" stroke="black" points="967,-36 913,-36 913,0 967,0 967,-36"/>
<text text-anchor="middle" x="940" y="-14.3" font-family="Times,serif" font-size="14.00">(...)</text>
</g>
<!-- 591&#45;&gt;592 -->
<g id="edge22" class="edge">
<title>591&#45;&gt;592</title>
<path fill="none" stroke="black" d="M968.21,-71.76C963.45,-62.85 958.52,-53.64 954.15,-45.46"/>
<polygon fill="black" stroke="black" points="957.11,-43.57 949.31,-36.41 950.94,-46.87 957.11,-43.57"/>
</g>
<!-- 639 -->
<g id="node24" class="node">
<title>639</title>
<polygon fill="#c0c0c0" stroke="black" points="1039,-36 985,-36 985,0 1039,0 1039,-36"/>
<text text-anchor="middle" x="1012" y="-14.3" font-family="Times,serif" font-size="14.00">(...)</text>
</g>
<!-- 591&#45;&gt;639 -->
<g id="edge23" class="edge">
<title>591&#45;&gt;639</title>
<path fill="none" stroke="black" d="M999.59,-71.76C1001.61,-63.14 1003.71,-54.24 1005.59,-46.26"/>
<polygon fill="black" stroke="black" points="1009.02,-46.94 1007.9,-36.41 1002.21,-45.34 1009.02,-46.94"/>
</g>
<!-- 757 -->
<g id="node26" class="node">
<title>757</title>
<polygon fill="#8fc8f0" stroke="black" points="1262.5,-155 1095.5,-155 1095.5,-72 1262.5,-72 1262.5,-155"/>
<text text-anchor="middle" x="1179" y="-139.8" font-family="Times,serif" font-size="14.00">sdComm &lt;= 2.0</text>
<text text-anchor="middle" x="1179" y="-124.8" font-family="Times,serif" font-size="14.00">gini = 0.422</text>
<text text-anchor="middle" x="1179" y="-109.8" font-family="Times,serif" font-size="14.00">samples = 3338</text>
<text text-anchor="middle" x="1179" y="-94.8" font-family="Times,serif" font-size="14.00">value = [1010, 2328]</text>
<text text-anchor="middle" x="1179" y="-79.8" font-family="Times,serif" font-size="14.00">class = True</text>
</g>
<!-- 756&#45;&gt;757 -->
<g id="edge25" class="edge">
<title>756&#45;&gt;757</title>
<path fill="none" stroke="black" d="M1179,-190.91C1179,-182.65 1179,-173.86 1179,-165.3"/>
<polygon fill="black" stroke="black" points="1182.5,-165.02 1179,-155.02 1175.5,-165.02 1182.5,-165.02"/>
</g>
<!-- 774 -->
<g id="node29" class="node">
<title>774</title>
<polygon fill="#c8e4f8" stroke="black" points="1447.5,-155 1280.5,-155 1280.5,-72 1447.5,-72 1447.5,-155"/>
<text text-anchor="middle" x="1364" y="-139.8" font-family="Times,serif" font-size="14.00">sdComp &lt;= 6.5</text>
<text text-anchor="middle" x="1364" y="-124.8" font-family="Times,serif" font-size="14.00">gini = 0.487</text>
<text text-anchor="middle" x="1364" y="-109.8" font-family="Times,serif" font-size="14.00">samples = 4702</text>
<text text-anchor="middle" x="1364" y="-94.8" font-family="Times,serif" font-size="14.00">value = [1974, 2728]</text>
<text text-anchor="middle" x="1364" y="-79.8" font-family="Times,serif" font-size="14.00">class = True</text>
</g>
<!-- 756&#45;&gt;774 -->
<g id="edge28" class="edge">
<title>756&#45;&gt;774</title>
<path fill="none" stroke="black" d="M1243.18,-190.91C1258.68,-181.11 1275.35,-170.56 1291.21,-160.53"/>
<polygon fill="black" stroke="black" points="1293.35,-163.32 1299.93,-155.02 1289.61,-157.41 1293.35,-163.32"/>
</g>
<!-- 758 -->
<g id="node27" class="node">
<title>758</title>
<polygon fill="#c0c0c0" stroke="black" points="1170,-36 1116,-36 1116,0 1170,0 1170,-36"/>
<text text-anchor="middle" x="1143" y="-14.3" font-family="Times,serif" font-size="14.00">(...)</text>
</g>
<!-- 757&#45;&gt;758 -->
<g id="edge26" class="edge">
<title>757&#45;&gt;758</title>
<path fill="none" stroke="black" d="M1163.31,-71.76C1159.96,-63.04 1156.49,-54.04 1153.39,-45.99"/>
<polygon fill="black" stroke="black" points="1156.56,-44.48 1149.7,-36.41 1150.03,-46.99 1156.56,-44.48"/>
</g>
<!-- 763 -->
<g id="node28" class="node">
<title>763</title>
<polygon fill="#c0c0c0" stroke="black" points="1242,-36 1188,-36 1188,0 1242,0 1242,-36"/>
<text text-anchor="middle" x="1215" y="-14.3" font-family="Times,serif" font-size="14.00">(...)</text>
</g>
<!-- 757&#45;&gt;763 -->
<g id="edge27" class="edge">
<title>757&#45;&gt;763</title>
<path fill="none" stroke="black" d="M1194.69,-71.76C1198.04,-63.04 1201.51,-54.04 1204.61,-45.99"/>
<polygon fill="black" stroke="black" points="1207.97,-46.99 1208.3,-36.41 1201.44,-44.48 1207.97,-46.99"/>
</g>
<!-- 775 -->
<g id="node30" class="node">
<title>775</title>
<polygon fill="#c0c0c0" stroke="black" points="1355,-36 1301,-36 1301,0 1355,0 1355,-36"/>
<text text-anchor="middle" x="1328" y="-14.3" font-family="Times,serif" font-size="14.00">(...)</text>
</g>
<!-- 774&#45;&gt;775 -->
<g id="edge29" class="edge">
<title>774&#45;&gt;775</title>
<path fill="none" stroke="black" d="M1348.31,-71.76C1344.96,-63.04 1341.49,-54.04 1338.39,-45.99"/>
<polygon fill="black" stroke="black" points="1341.56,-44.48 1334.7,-36.41 1335.03,-46.99 1341.56,-44.48"/>
</g>
<!-- 786 -->
<g id="node31" class="node">
<title>786</title>
<polygon fill="#c0c0c0" stroke="black" points="1427,-36 1373,-36 1373,0 1427,0 1427,-36"/>
<text text-anchor="middle" x="1400" y="-14.3" font-family="Times,serif" font-size="14.00">(...)</text>
</g>
<!-- 774&#45;&gt;786 -->
<g id="edge30" class="edge">
<title>774&#45;&gt;786</title>
<path fill="none" stroke="black" d="M1379.69,-71.76C1383.04,-63.04 1386.51,-54.04 1389.61,-45.99"/>
<polygon fill="black" stroke="black" points="1392.97,-46.99 1393.3,-36.41 1386.44,-44.48 1392.97,-46.99"/>
</g>
</g>
</svg>
