<?xml version="1.0" encoding="UTF-8" standalone="no"?>
<!DOCTYPE svg PUBLIC "-//W3C//DTD SVG 1.1//EN"
 "http://www.w3.org/Graphics/SVG/1.1/DTD/svg11.dtd">
<!-- Generated by graphviz version 2.43.0 (0)
 -->
<!-- Title: Tree Pages: 1 -->
<svg width="1452pt" height="520pt"
 viewBox="0.00 0.00 1452.00 520.00" xmlns="http://www.w3.org/2000/svg" xmlns:xlink="http://www.w3.org/1999/xlink">
<g id="graph0" class="graph" transform="scale(1 1) rotate(0) translate(4 516)">
<title>Tree</title>
<polygon fill="white" stroke="transparent" points="-4,4 -4,-516 1448,-516 1448,4 -4,4"/>
<!-- 0 -->
<g id="node1" class="node">
<title>0</title>
<polygon fill="#feffff" stroke="black" points="783,-512 598,-512 598,-429 783,-429 783,-512"/>
<text text-anchor="middle" x="690.5" y="-496.8" font-family="Times,serif" font-size="14.00">graphDepth &lt;= 3.5</text>
<text text-anchor="middle" x="690.5" y="-481.8" font-family="Times,serif" font-size="14.00">gini = 0.5</text>
<text text-anchor="middle" x="690.5" y="-466.8" font-family="Times,serif" font-size="14.00">samples = 68335</text>
<text text-anchor="middle" x="690.5" y="-451.8" font-family="Times,serif" font-size="14.00">value = [34108, 34227]</text>
<text text-anchor="middle" x="690.5" y="-436.8" font-family="Times,serif" font-size="14.00">class = True</text>
</g>
<!-- 1 -->
<g id="node2" class="node">
<title>1</title>
<polygon fill="#fbfdfe" stroke="black" points="598,-393 431,-393 431,-310 598,-310 598,-393"/>
<text text-anchor="middle" x="514.5" y="-377.8" font-family="Times,serif" font-size="14.00">nbproc &lt;= 4.5</text>
<text text-anchor="middle" x="514.5" y="-362.8" font-family="Times,serif" font-size="14.00">gini = 0.5</text>
<text text-anchor="middle" x="514.5" y="-347.8" font-family="Times,serif" font-size="14.00">samples = 7085</text>
<text text-anchor="middle" x="514.5" y="-332.8" font-family="Times,serif" font-size="14.00">value = [3502, 3583]</text>
<text text-anchor="middle" x="514.5" y="-317.8" font-family="Times,serif" font-size="14.00">class = True</text>
</g>
<!-- 0&#45;&gt;1 -->
<g id="edge1" class="edge">
<title>0&#45;&gt;1</title>
<path fill="none" stroke="black" d="M629.44,-428.91C614.83,-419.2 599.13,-408.76 584.16,-398.81"/>
<polygon fill="black" stroke="black" points="585.72,-395.64 575.45,-393.02 581.84,-401.47 585.72,-395.64"/>
<text text-anchor="middle" x="580.39" y="-413.83" font-family="Times,serif" font-size="14.00">True</text>
</g>
<!-- 108 -->
<g id="node17" class="node">
<title>108</title>
<polygon fill="#ffffff" stroke="black" points="977,-393 792,-393 792,-310 977,-310 977,-393"/>
<text text-anchor="middle" x="884.5" y="-377.8" font-family="Times,serif" font-size="14.00">sdComm &lt;= 6.5</text>
<text text-anchor="middle" x="884.5" y="-362.8" font-family="Times,serif" font-size="14.00">gini = 0.5</text>
<text text-anchor="middle" x="884.5" y="-347.8" font-family="Times,serif" font-size="14.00">samples = 61250</text>
<text text-anchor="middle" x="884.5" y="-332.8" font-family="Times,serif" font-size="14.00">value = [30606, 30644]</text>
<text text-anchor="middle" x="884.5" y="-317.8" font-family="Times,serif" font-size="14.00">class = True</text>
</g>
<!-- 0&#45;&gt;108 -->
<g id="edge16" class="edge">
<title>0&#45;&gt;108</title>
<path fill="none" stroke="black" d="M757.81,-428.91C774.21,-419.02 791.86,-408.37 808.63,-398.25"/>
<polygon fill="black" stroke="black" points="810.56,-401.18 817.31,-393.02 806.94,-395.19 810.56,-401.18"/>
<text text-anchor="middle" x="811.3" y="-413.59" font-family="Times,serif" font-size="14.00">False</text>
</g>
<!-- 2 -->
<g id="node3" class="node">
<title>2</title>
<polygon fill="#f7fbfe" stroke="black" points="334,-274 167,-274 167,-191 334,-191 334,-274"/>
<text text-anchor="middle" x="250.5" y="-258.8" font-family="Times,serif" font-size="14.00">sdComm &lt;= 0.65</text>
<text text-anchor="middle" x="250.5" y="-243.8" font-family="Times,serif" font-size="14.00">gini = 0.5</text>
<text text-anchor="middle" x="250.5" y="-228.8" font-family="Times,serif" font-size="14.00">samples = 3250</text>
<text text-anchor="middle" x="250.5" y="-213.8" font-family="Times,serif" font-size="14.00">value = [1590, 1660]</text>
<text text-anchor="middle" x="250.5" y="-198.8" font-family="Times,serif" font-size="14.00">class = True</text>
</g>
<!-- 1&#45;&gt;2 -->
<g id="edge2" class="edge">
<title>1&#45;&gt;2</title>
<path fill="none" stroke="black" d="M430.97,-313.48C403.16,-301.16 372.02,-287.36 343.54,-274.73"/>
<polygon fill="black" stroke="black" points="344.95,-271.53 334.39,-270.68 342.12,-277.93 344.95,-271.53"/>
</g>
<!-- 55 -->
<g id="node10" class="node">
<title>55</title>
<polygon fill="#fefeff" stroke="black" points="598,-274 431,-274 431,-191 598,-191 598,-274"/>
<text text-anchor="middle" x="514.5" y="-258.8" font-family="Times,serif" font-size="14.00">sdComm &lt;= 0.2</text>
<text text-anchor="middle" x="514.5" y="-243.8" font-family="Times,serif" font-size="14.00">gini = 0.5</text>
<text text-anchor="middle" x="514.5" y="-228.8" font-family="Times,serif" font-size="14.00">samples = 3835</text>
<text text-anchor="middle" x="514.5" y="-213.8" font-family="Times,serif" font-size="14.00">value = [1912, 1923]</text>
<text text-anchor="middle" x="514.5" y="-198.8" font-family="Times,serif" font-size="14.00">class = True</text>
</g>
<!-- 1&#45;&gt;55 -->
<g id="edge9" class="edge">
<title>1&#45;&gt;55</title>
<path fill="none" stroke="black" d="M514.5,-309.91C514.5,-301.65 514.5,-292.86 514.5,-284.3"/>
<polygon fill="black" stroke="black" points="518,-284.02 514.5,-274.02 511,-284.02 518,-284.02"/>
</g>
<!-- 3 -->
<g id="node4" class="node">
<title>3</title>
<polygon fill="#eef7fd" stroke="black" points="149,-155 0,-155 0,-72 149,-72 149,-155"/>
<text text-anchor="middle" x="74.5" y="-139.8" font-family="Times,serif" font-size="14.00">sdComp &lt;= 0.2</text>
<text text-anchor="middle" x="74.5" y="-124.8" font-family="Times,serif" font-size="14.00">gini = 0.499</text>
<text text-anchor="middle" x="74.5" y="-109.8" font-family="Times,serif" font-size="14.00">samples = 1124</text>
<text text-anchor="middle" x="74.5" y="-94.8" font-family="Times,serif" font-size="14.00">value = [537, 587]</text>
<text text-anchor="middle" x="74.5" y="-79.8" font-family="Times,serif" font-size="14.00">class = True</text>
</g>
<!-- 2&#45;&gt;3 -->
<g id="edge3" class="edge">
<title>2&#45;&gt;3</title>
<path fill="none" stroke="black" d="M189.44,-190.91C174.83,-181.2 159.13,-170.76 144.16,-160.81"/>
<polygon fill="black" stroke="black" points="145.72,-157.64 135.45,-155.02 141.84,-163.47 145.72,-157.64"/>
</g>
<!-- 32 -->
<g id="node7" class="node">
<title>32</title>
<polygon fill="#fbfdff" stroke="black" points="334,-155 167,-155 167,-72 334,-72 334,-155"/>
<text text-anchor="middle" x="250.5" y="-139.8" font-family="Times,serif" font-size="14.00">sdComp &lt;= 6.5</text>
<text text-anchor="middle" x="250.5" y="-124.8" font-family="Times,serif" font-size="14.00">gini = 0.5</text>
<text text-anchor="middle" x="250.5" y="-109.8" font-family="Times,serif" font-size="14.00">samples = 2126</text>
<text text-anchor="middle" x="250.5" y="-94.8" font-family="Times,serif" font-size="14.00">value = [1053, 1073]</text>
<text text-anchor="middle" x="250.5" y="-79.8" font-family="Times,serif" font-size="14.00">class = True</text>
</g>
<!-- 2&#45;&gt;32 -->
<g id="edge6" class="edge">
<title>2&#45;&gt;32</title>
<path fill="none" stroke="black" d="M250.5,-190.91C250.5,-182.65 250.5,-173.86 250.5,-165.3"/>
<polygon fill="black" stroke="black" points="254,-165.02 250.5,-155.02 247,-165.02 254,-165.02"/>
</g>
<!-- 4 -->
<g id="node5" class="node">
<title>4</title>
<polygon fill="#c0c0c0" stroke="black" points="65.5,-36 11.5,-36 11.5,0 65.5,0 65.5,-36"/>
<text text-anchor="middle" x="38.5" y="-14.3" font-family="Times,serif" font-size="14.00">(...)</text>
</g>
<!-- 3&#45;&gt;4 -->
<g id="edge4" class="edge">
<title>3&#45;&gt;4</title>
<path fill="none" stroke="black" d="M58.81,-71.76C55.46,-63.04 51.99,-54.04 48.89,-45.99"/>
<polygon fill="black" stroke="black" points="52.06,-44.48 45.2,-36.41 45.53,-46.99 52.06,-44.48"/>
</g>
<!-- 25 -->
<g id="node6" class="node">
<title>25</title>
<polygon fill="#c0c0c0" stroke="black" points="137.5,-36 83.5,-36 83.5,0 137.5,0 137.5,-36"/>
<text text-anchor="middle" x="110.5" y="-14.3" font-family="Times,serif" font-size="14.00">(...)</text>
</g>
<!-- 3&#45;&gt;25 -->
<g id="edge5" class="edge">
<title>3&#45;&gt;25</title>
<path fill="none" stroke="black" d="M90.19,-71.76C93.54,-63.04 97.01,-54.04 100.11,-45.99"/>
<polygon fill="black" stroke="black" points="103.47,-46.99 103.8,-36.41 96.94,-44.48 103.47,-46.99"/>
</g>
<!-- 33 -->
<g id="node8" class="node">
<title>33</title>
<polygon fill="#c0c0c0" stroke="black" points="244.5,-36 190.5,-36 190.5,0 244.5,0 244.5,-36"/>
<text text-anchor="middle" x="217.5" y="-14.3" font-family="Times,serif" font-size="14.00">(...)</text>
</g>
<!-- 32&#45;&gt;33 -->
<g id="edge7" class="edge">
<title>32&#45;&gt;33</title>
<path fill="none" stroke="black" d="M236.12,-71.76C233.04,-63.04 229.87,-54.04 227.03,-45.99"/>
<polygon fill="black" stroke="black" points="230.27,-44.67 223.64,-36.41 223.67,-47 230.27,-44.67"/>
</g>
<!-- 50 -->
<g id="node9" class="node">
<title>50</title>
<polygon fill="#c0c0c0" stroke="black" points="316.5,-36 262.5,-36 262.5,0 316.5,0 316.5,-36"/>
<text text-anchor="middle" x="289.5" y="-14.3" font-family="Times,serif" font-size="14.00">(...)</text>
</g>
<!-- 32&#45;&gt;50 -->
<g id="edge8" class="edge">
<title>32&#45;&gt;50</title>
<path fill="none" stroke="black" d="M267.49,-71.76C271.17,-62.94 274.97,-53.84 278.35,-45.72"/>
<polygon fill="black" stroke="black" points="281.62,-46.98 282.24,-36.41 275.16,-44.29 281.62,-46.98"/>
</g>
<!-- 56 -->
<g id="node11" class="node">
<title>56</title>
<polygon fill="#fcfdff" stroke="black" points="501,-155 352,-155 352,-72 501,-72 501,-155"/>
<text text-anchor="middle" x="426.5" y="-139.8" font-family="Times,serif" font-size="14.00">CCR &lt;= 0.55</text>
<text text-anchor="middle" x="426.5" y="-124.8" font-family="Times,serif" font-size="14.00">gini = 0.5</text>
<text text-anchor="middle" x="426.5" y="-109.8" font-family="Times,serif" font-size="14.00">samples = 1204</text>
<text text-anchor="middle" x="426.5" y="-94.8" font-family="Times,serif" font-size="14.00">value = [597, 607]</text>
<text text-anchor="middle" x="426.5" y="-79.8" font-family="Times,serif" font-size="14.00">class = True</text>
</g>
<!-- 55&#45;&gt;56 -->
<g id="edge10" class="edge">
<title>55&#45;&gt;56</title>
<path fill="none" stroke="black" d="M483.97,-190.91C477.21,-181.92 469.98,-172.32 463.02,-163.05"/>
<polygon fill="black" stroke="black" points="465.79,-160.91 456.98,-155.02 460.19,-165.12 465.79,-160.91"/>
</g>
<!-- 79 -->
<g id="node14" class="node">
<title>79</title>
<polygon fill="#ffffff" stroke="black" points="686,-155 519,-155 519,-72 686,-72 686,-155"/>
<text text-anchor="middle" x="602.5" y="-139.8" font-family="Times,serif" font-size="14.00">sdComp &lt;= 0.2</text>
<text text-anchor="middle" x="602.5" y="-124.8" font-family="Times,serif" font-size="14.00">gini = 0.5</text>
<text text-anchor="middle" x="602.5" y="-109.8" font-family="Times,serif" font-size="14.00">samples = 2631</text>
<text text-anchor="middle" x="602.5" y="-94.8" font-family="Times,serif" font-size="14.00">value = [1315, 1316]</text>
<text text-anchor="middle" x="602.5" y="-79.8" font-family="Times,serif" font-size="14.00">class = True</text>
</g>
<!-- 55&#45;&gt;79 -->
<g id="edge13" class="edge">
<title>55&#45;&gt;79</title>
<path fill="none" stroke="black" d="M545.03,-190.91C551.79,-181.92 559.02,-172.32 565.98,-163.05"/>
<polygon fill="black" stroke="black" points="568.81,-165.12 572.02,-155.02 563.21,-160.91 568.81,-165.12"/>
</g>
<!-- 57 -->
<g id="node12" class="node">
<title>57</title>
<polygon fill="#c0c0c0" stroke="black" points="418.5,-36 364.5,-36 364.5,0 418.5,0 418.5,-36"/>
<text text-anchor="middle" x="391.5" y="-14.3" font-family="Times,serif" font-size="14.00">(...)</text>
</g>
<!-- 56&#45;&gt;57 -->
<g id="edge11" class="edge">
<title>56&#45;&gt;57</title>
<path fill="none" stroke="black" d="M411.25,-71.76C407.99,-63.04 404.62,-54.04 401.6,-45.99"/>
<polygon fill="black" stroke="black" points="404.8,-44.54 398.02,-36.41 398.24,-47 404.8,-44.54"/>
</g>
<!-- 74 -->
<g id="node13" class="node">
<title>74</title>
<polygon fill="#c0c0c0" stroke="black" points="490.5,-36 436.5,-36 436.5,0 490.5,0 490.5,-36"/>
<text text-anchor="middle" x="463.5" y="-14.3" font-family="Times,serif" font-size="14.00">(...)</text>
</g>
<!-- 56&#45;&gt;74 -->
<g id="edge12" class="edge">
<title>56&#45;&gt;74</title>
<path fill="none" stroke="black" d="M442.62,-71.76C446.11,-62.94 449.71,-53.84 452.92,-45.72"/>
<polygon fill="black" stroke="black" points="456.19,-46.99 456.61,-36.41 449.68,-44.42 456.19,-46.99"/>
</g>
<!-- 80 -->
<g id="node15" class="node">
<title>80</title>
<polygon fill="#c0c0c0" stroke="black" points="577.5,-36 523.5,-36 523.5,0 577.5,0 577.5,-36"/>
<text text-anchor="middle" x="550.5" y="-14.3" font-family="Times,serif" font-size="14.00">(...)</text>
</g>
<!-- 79&#45;&gt;80 -->
<g id="edge14" class="edge">
<title>79&#45;&gt;80</title>
<path fill="none" stroke="black" d="M579.84,-71.76C574.83,-62.75 569.65,-53.44 565.07,-45.19"/>
<polygon fill="black" stroke="black" points="568.1,-43.44 560.18,-36.41 561.98,-46.85 568.1,-43.44"/>
</g>
<!-- 83 -->
<g id="node16" class="node">
<title>83</title>
<polygon fill="#c0c0c0" stroke="black" points="649.5,-36 595.5,-36 595.5,0 649.5,0 649.5,-36"/>
<text text-anchor="middle" x="622.5" y="-14.3" font-family="Times,serif" font-size="14.00">(...)</text>
</g>
<!-- 79&#45;&gt;83 -->
<g id="edge15" class="edge">
<title>79&#45;&gt;83</title>
<path fill="none" stroke="black" d="M611.21,-71.76C613.06,-63.14 614.96,-54.24 616.67,-46.26"/>
<polygon fill="black" stroke="black" points="620.11,-46.92 618.78,-36.41 613.26,-45.45 620.11,-46.92"/>
</g>
<!-- 109 -->
<g id="node18" class="node">
<title>109</title>
<polygon fill="#ffffff" stroke="black" points="977,-274 792,-274 792,-191 977,-191 977,-274"/>
<text text-anchor="middle" x="884.5" y="-258.8" font-family="Times,serif" font-size="14.00">CCR &lt;= 0.55</text>
<text text-anchor="middle" x="884.5" y="-243.8" font-family="Times,serif" font-size="14.00">gini = 0.5</text>
<text text-anchor="middle" x="884.5" y="-228.8" font-family="Times,serif" font-size="14.00">samples = 45232</text>
<text text-anchor="middle" x="884.5" y="-213.8" font-family="Times,serif" font-size="14.00">value = [22616, 22616]</text>
<text text-anchor="middle" x="884.5" y="-198.8" font-family="Times,serif" font-size="14.00">class = False</text>
</g>
<!-- 108&#45;&gt;109 -->
<g id="edge17" class="edge">
<title>108&#45;&gt;109</title>
<path fill="none" stroke="black" d="M884.5,-309.91C884.5,-301.65 884.5,-292.86 884.5,-284.3"/>
<polygon fill="black" stroke="black" points="888,-284.02 884.5,-274.02 881,-284.02 888,-284.02"/>
</g>
<!-- 754 -->
<g id="node25" class="node">
<title>754</title>
<polygon fill="#feffff" stroke="black" points="1259,-274 1092,-274 1092,-191 1259,-191 1259,-274"/>
<text text-anchor="middle" x="1175.5" y="-258.8" font-family="Times,serif" font-size="14.00">graphDepth &lt;= 9.0</text>
<text text-anchor="middle" x="1175.5" y="-243.8" font-family="Times,serif" font-size="14.00">gini = 0.5</text>
<text text-anchor="middle" x="1175.5" y="-228.8" font-family="Times,serif" font-size="14.00">samples = 16018</text>
<text text-anchor="middle" x="1175.5" y="-213.8" font-family="Times,serif" font-size="14.00">value = [7990, 8028]</text>
<text text-anchor="middle" x="1175.5" y="-198.8" font-family="Times,serif" font-size="14.00">class = True</text>
</g>
<!-- 108&#45;&gt;754 -->
<g id="edge24" class="edge">
<title>108&#45;&gt;754</title>
<path fill="none" stroke="black" d="M977.37,-313.16C1010.98,-299.65 1048.9,-284.4 1082.51,-270.89"/>
<polygon fill="black" stroke="black" points="1083.9,-274.1 1091.87,-267.12 1081.29,-267.61 1083.9,-274.1"/>
</g>
<!-- 110 -->
<g id="node19" class="node">
<title>110</title>
<polygon fill="#ffffff" stroke="black" points="871,-155 704,-155 704,-72 871,-72 871,-155"/>
<text text-anchor="middle" x="787.5" y="-139.8" font-family="Times,serif" font-size="14.00">graphSize &lt;= 22.5</text>
<text text-anchor="middle" x="787.5" y="-124.8" font-family="Times,serif" font-size="14.00">gini = 0.5</text>
<text text-anchor="middle" x="787.5" y="-109.8" font-family="Times,serif" font-size="14.00">samples = 6472</text>
<text text-anchor="middle" x="787.5" y="-94.8" font-family="Times,serif" font-size="14.00">value = [3236, 3236]</text>
<text text-anchor="middle" x="787.5" y="-79.8" font-family="Times,serif" font-size="14.00">class = False</text>
</g>
<!-- 109&#45;&gt;110 -->
<g id="edge18" class="edge">
<title>109&#45;&gt;110</title>
<path fill="none" stroke="black" d="M850.85,-190.91C843.32,-181.83 835.27,-172.12 827.52,-162.77"/>
<polygon fill="black" stroke="black" points="830.17,-160.49 821.09,-155.02 824.78,-164.95 830.17,-160.49"/>
</g>
<!-- 343 -->
<g id="node22" class="node">
<title>343</title>
<polygon fill="#ffffff" stroke="black" points="1074,-155 889,-155 889,-72 1074,-72 1074,-155"/>
<text text-anchor="middle" x="981.5" y="-139.8" font-family="Times,serif" font-size="14.00">CCR &lt;= 5.5</text>
<text text-anchor="middle" x="981.5" y="-124.8" font-family="Times,serif" font-size="14.00">gini = 0.5</text>
<text text-anchor="middle" x="981.5" y="-109.8" font-family="Times,serif" font-size="14.00">samples = 38760</text>
<text text-anchor="middle" x="981.5" y="-94.8" font-family="Times,serif" font-size="14.00">value = [19380, 19380]</text>
<text text-anchor="middle" x="981.5" y="-79.8" font-family="Times,serif" font-size="14.00">class = False</text>
</g>
<!-- 109&#45;&gt;343 -->
<g id="edge21" class="edge">
<title>109&#45;&gt;343</title>
<path fill="none" stroke="black" d="M918.15,-190.91C925.68,-181.83 933.73,-172.12 941.48,-162.77"/>
<polygon fill="black" stroke="black" points="944.22,-164.95 947.91,-155.02 938.83,-160.49 944.22,-164.95"/>
</g>
<!-- 111 -->
<g id="node20" class="node">
<title>111</title>
<polygon fill="#c0c0c0" stroke="black" points="767.5,-36 713.5,-36 713.5,0 767.5,0 767.5,-36"/>
<text text-anchor="middle" x="740.5" y="-14.3" font-family="Times,serif" font-size="14.00">(...)</text>
</g>
<!-- 110&#45;&gt;111 -->
<g id="edge19" class="edge">
<title>110&#45;&gt;111</title>
<path fill="none" stroke="black" d="M767.02,-71.76C762.54,-62.85 757.91,-53.64 753.8,-45.46"/>
<polygon fill="black" stroke="black" points="756.87,-43.77 749.25,-36.41 750.61,-46.91 756.87,-43.77"/>
</g>
<!-- 146 -->
<g id="node21" class="node">
<title>146</title>
<polygon fill="#c0c0c0" stroke="black" points="839.5,-36 785.5,-36 785.5,0 839.5,0 839.5,-36"/>
<text text-anchor="middle" x="812.5" y="-14.3" font-family="Times,serif" font-size="14.00">(...)</text>
</g>
<!-- 110&#45;&gt;146 -->
<g id="edge20" class="edge">
<title>110&#45;&gt;146</title>
<path fill="none" stroke="black" d="M798.39,-71.76C800.7,-63.14 803.08,-54.24 805.21,-46.26"/>
<polygon fill="black" stroke="black" points="808.64,-46.97 807.85,-36.41 801.88,-45.16 808.64,-46.97"/>
</g>
<!-- 344 -->
<g id="node23" class="node">
<title>344</title>
<polygon fill="#c0c0c0" stroke="black" points="961.5,-36 907.5,-36 907.5,0 961.5,0 961.5,-36"/>
<text text-anchor="middle" x="934.5" y="-14.3" font-family="Times,serif" font-size="14.00">(...)</text>
</g>
<!-- 343&#45;&gt;344 -->
<g id="edge22" class="edge">
<title>343&#45;&gt;344</title>
<path fill="none" stroke="black" d="M961.02,-71.76C956.54,-62.85 951.91,-53.64 947.8,-45.46"/>
<polygon fill="black" stroke="black" points="950.87,-43.77 943.25,-36.41 944.61,-46.91 950.87,-43.77"/>
</g>
<!-- 587 -->
<g id="node24" class="node">
<title>587</title>
<polygon fill="#c0c0c0" stroke="black" points="1033.5,-36 979.5,-36 979.5,0 1033.5,0 1033.5,-36"/>
<text text-anchor="middle" x="1006.5" y="-14.3" font-family="Times,serif" font-size="14.00">(...)</text>
</g>
<!-- 343&#45;&gt;587 -->
<g id="edge23" class="edge">
<title>343&#45;&gt;587</title>
<path fill="none" stroke="black" d="M992.39,-71.76C994.7,-63.14 997.08,-54.24 999.21,-46.26"/>
<polygon fill="black" stroke="black" points="1002.64,-46.97 1001.85,-36.41 995.88,-45.16 1002.64,-46.97"/>
</g>
<!-- 755 -->
<g id="node26" class="node">
<title>755</title>
<polygon fill="#fdfeff" stroke="black" points="1259,-155 1092,-155 1092,-72 1259,-72 1259,-155"/>
<text text-anchor="middle" x="1175.5" y="-139.8" font-family="Times,serif" font-size="14.00">graphSize &lt;= 22.5</text>
<text text-anchor="middle" x="1175.5" y="-124.8" font-family="Times,serif" font-size="14.00">gini = 0.5</text>
<text text-anchor="middle" x="1175.5" y="-109.8" font-family="Times,serif" font-size="14.00">samples = 6782</text>
<text text-anchor="middle" x="1175.5" y="-94.8" font-family="Times,serif" font-size="14.00">value = [3372, 3410]</text>
<text text-anchor="middle" x="1175.5" y="-79.8" font-family="Times,serif" font-size="14.00">class = True</text>
</g>
<!-- 754&#45;&gt;755 -->
<g id="edge25" class="edge">
<title>754&#45;&gt;755</title>
<path fill="none" stroke="black" d="M1175.5,-190.91C1175.5,-182.65 1175.5,-173.86 1175.5,-165.3"/>
<polygon fill="black" stroke="black" points="1179,-165.02 1175.5,-155.02 1172,-165.02 1179,-165.02"/>
</g>
<!-- 790 -->
<g id="node29" class="node">
<title>790</title>
<polygon fill="#ffffff" stroke="black" points="1444,-155 1277,-155 1277,-72 1444,-72 1444,-155"/>
<text text-anchor="middle" x="1360.5" y="-139.8" font-family="Times,serif" font-size="14.00">graphSize &lt;= 40.0</text>
<text text-anchor="middle" x="1360.5" y="-124.8" font-family="Times,serif" font-size="14.00">gini = 0.5</text>
<text text-anchor="middle" x="1360.5" y="-109.8" font-family="Times,serif" font-size="14.00">samples = 9236</text>
<text text-anchor="middle" x="1360.5" y="-94.8" font-family="Times,serif" font-size="14.00">value = [4618, 4618]</text>
<text text-anchor="middle" x="1360.5" y="-79.8" font-family="Times,serif" font-size="14.00">class = False</text>
</g>
<!-- 754&#45;&gt;790 -->
<g id="edge28" class="edge">
<title>754&#45;&gt;790</title>
<path fill="none" stroke="black" d="M1239.68,-190.91C1255.18,-181.11 1271.85,-170.56 1287.71,-160.53"/>
<polygon fill="black" stroke="black" points="1289.85,-163.32 1296.43,-155.02 1286.11,-157.41 1289.85,-163.32"/>
</g>
<!-- 756 -->
<g id="node27" class="node">
<title>756</title>
<polygon fill="#c0c0c0" stroke="black" points="1166.5,-36 1112.5,-36 1112.5,0 1166.5,0 1166.5,-36"/>
<text text-anchor="middle" x="1139.5" y="-14.3" font-family="Times,serif" font-size="14.00">(...)</text>
</g>
<!-- 755&#45;&gt;756 -->
<g id="edge26" class="edge">
<title>755&#45;&gt;756</title>
<path fill="none" stroke="black" d="M1159.81,-71.76C1156.46,-63.04 1152.99,-54.04 1149.89,-45.99"/>
<polygon fill="black" stroke="black" points="1153.06,-44.48 1146.2,-36.41 1146.53,-46.99 1153.06,-44.48"/>
</g>
<!-- 767 -->
<g id="node28" class="node">
<title>767</title>
<polygon fill="#c0c0c0" stroke="black" points="1238.5,-36 1184.5,-36 1184.5,0 1238.5,0 1238.5,-36"/>
<text text-anchor="middle" x="1211.5" y="-14.3" font-family="Times,serif" font-size="14.00">(...)</text>
</g>
<!-- 755&#45;&gt;767 -->
<g id="edge27" class="edge">
<title>755&#45;&gt;767</title>
<path fill="none" stroke="black" d="M1191.19,-71.76C1194.54,-63.04 1198.01,-54.04 1201.11,-45.99"/>
<polygon fill="black" stroke="black" points="1204.47,-46.99 1204.8,-36.41 1197.94,-44.48 1204.47,-46.99"/>
</g>
<!-- 791 -->
<g id="node30" class="node">
<title>791</title>
<polygon fill="#c0c0c0" stroke="black" points="1351.5,-36 1297.5,-36 1297.5,0 1351.5,0 1351.5,-36"/>
<text text-anchor="middle" x="1324.5" y="-14.3" font-family="Times,serif" font-size="14.00">(...)</text>
</g>
<!-- 790&#45;&gt;791 -->
<g id="edge29" class="edge">
<title>790&#45;&gt;791</title>
<path fill="none" stroke="black" d="M1344.81,-71.76C1341.46,-63.04 1337.99,-54.04 1334.89,-45.99"/>
<polygon fill="black" stroke="black" points="1338.06,-44.48 1331.2,-36.41 1331.53,-46.99 1338.06,-44.48"/>
</g>
<!-- 802 -->
<g id="node31" class="node">
<title>802</title>
<polygon fill="#c0c0c0" stroke="black" points="1423.5,-36 1369.5,-36 1369.5,0 1423.5,0 1423.5,-36"/>
<text text-anchor="middle" x="1396.5" y="-14.3" font-family="Times,serif" font-size="14.00">(...)</text>
</g>
<!-- 790&#45;&gt;802 -->
<g id="edge30" class="edge">
<title>790&#45;&gt;802</title>
<path fill="none" stroke="black" d="M1376.19,-71.76C1379.54,-63.04 1383.01,-54.04 1386.11,-45.99"/>
<polygon fill="black" stroke="black" points="1389.47,-46.99 1389.8,-36.41 1382.94,-44.48 1389.47,-46.99"/>
</g>
</g>
</svg>
