<?xml version="1.0" encoding="UTF-8" standalone="no"?>
<!DOCTYPE svg PUBLIC "-//W3C//DTD SVG 1.1//EN"
 "http://www.w3.org/Graphics/SVG/1.1/DTD/svg11.dtd">
<!-- Generated by graphviz version 2.43.0 (0)
 -->
<!-- Title: Tree Pages: 1 -->
<svg width="1648pt" height="520pt"
 viewBox="0.00 0.00 1648.00 520.00" xmlns="http://www.w3.org/2000/svg" xmlns:xlink="http://www.w3.org/1999/xlink">
<g id="graph0" class="graph" transform="scale(1 1) rotate(0) translate(4 516)">
<title>Tree</title>
<polygon fill="white" stroke="transparent" points="-4,4 -4,-516 1644,-516 1644,4 -4,4"/>
<!-- 0 -->
<g id="node1" class="node">
<title>0</title>
<polygon fill="#eafcf1" stroke="black" points="979,-512 740,-512 740,-429 979,-429 979,-512"/>
<text text-anchor="middle" x="859.5" y="-496.8" font-family="Times,serif" font-size="14.00">CCR &lt;= 5.5</text>
<text text-anchor="middle" x="859.5" y="-481.8" font-family="Times,serif" font-size="14.00">gini = 0.66</text>
<text text-anchor="middle" x="859.5" y="-466.8" font-family="Times,serif" font-size="14.00">samples = 48239</text>
<text text-anchor="middle" x="859.5" y="-451.8" font-family="Times,serif" font-size="14.00">value = [13710, 19041, 15488]</text>
<text text-anchor="middle" x="859.5" y="-436.8" font-family="Times,serif" font-size="14.00">class = DCP</text>
</g>
<!-- 1 -->
<g id="node2" class="node">
<title>1</title>
<polygon fill="#d9fae7" stroke="black" points="770,-393 531,-393 531,-310 770,-310 770,-393"/>
<text text-anchor="middle" x="650.5" y="-377.8" font-family="Times,serif" font-size="14.00">graphSize &lt;= 22.5</text>
<text text-anchor="middle" x="650.5" y="-362.8" font-family="Times,serif" font-size="14.00">gini = 0.654</text>
<text text-anchor="middle" x="650.5" y="-347.8" font-family="Times,serif" font-size="14.00">samples = 42785</text>
<text text-anchor="middle" x="650.5" y="-332.8" font-family="Times,serif" font-size="14.00">value = [12310, 18191, 12284]</text>
<text text-anchor="middle" x="650.5" y="-317.8" font-family="Times,serif" font-size="14.00">class = DCP</text>
</g>
<!-- 0&#45;&gt;1 -->
<g id="edge1" class="edge">
<title>0&#45;&gt;1</title>
<path fill="none" stroke="black" d="M786.99,-428.91C769.16,-418.92 749.95,-408.17 731.73,-397.98"/>
<polygon fill="black" stroke="black" points="733.32,-394.85 722.88,-393.02 729.9,-400.96 733.32,-394.85"/>
<text text-anchor="middle" x="729.67" y="-413.38" font-family="Times,serif" font-size="14.00">True</text>
</g>
<!-- 574 -->
<g id="node17" class="node">
<title>574</title>
<polygon fill="#c7a7f3" stroke="black" points="1175,-393 972,-393 972,-310 1175,-310 1175,-393"/>
<text text-anchor="middle" x="1073.5" y="-377.8" font-family="Times,serif" font-size="14.00">graphSize &lt;= 75.0</text>
<text text-anchor="middle" x="1073.5" y="-362.8" font-family="Times,serif" font-size="14.00">gini = 0.565</text>
<text text-anchor="middle" x="1073.5" y="-347.8" font-family="Times,serif" font-size="14.00">samples = 5454</text>
<text text-anchor="middle" x="1073.5" y="-332.8" font-family="Times,serif" font-size="14.00">value = [1400, 850, 3204]</text>
<text text-anchor="middle" x="1073.5" y="-317.8" font-family="Times,serif" font-size="14.00">class = None</text>
</g>
<!-- 0&#45;&gt;574 -->
<g id="edge16" class="edge">
<title>0&#45;&gt;574</title>
<path fill="none" stroke="black" d="M933.75,-428.91C952.09,-418.88 971.85,-408.07 990.58,-397.84"/>
<polygon fill="black" stroke="black" points="992.29,-400.89 999.39,-393.02 988.93,-394.75 992.29,-400.89"/>
<text text-anchor="middle" x="992.35" y="-413.31" font-family="Times,serif" font-size="14.00">False</text>
</g>
<!-- 2 -->
<g id="node3" class="node">
<title>2</title>
<polygon fill="#f0fdf5" stroke="black" points="437,-274 216,-274 216,-191 437,-191 437,-274"/>
<text text-anchor="middle" x="326.5" y="-258.8" font-family="Times,serif" font-size="14.00">sdComm &lt;= 0.02</text>
<text text-anchor="middle" x="326.5" y="-243.8" font-family="Times,serif" font-size="14.00">gini = 0.655</text>
<text text-anchor="middle" x="326.5" y="-228.8" font-family="Times,serif" font-size="14.00">samples = 26610</text>
<text text-anchor="middle" x="326.5" y="-213.8" font-family="Times,serif" font-size="14.00">value = [9308, 10616, 6686]</text>
<text text-anchor="middle" x="326.5" y="-198.8" font-family="Times,serif" font-size="14.00">class = DCP</text>
</g>
<!-- 1&#45;&gt;2 -->
<g id="edge2" class="edge">
<title>1&#45;&gt;2</title>
<path fill="none" stroke="black" d="M538.09,-309.91C508.57,-299.25 476.62,-287.71 446.7,-276.91"/>
<polygon fill="black" stroke="black" points="447.66,-273.53 437.07,-273.43 445.29,-280.12 447.66,-273.53"/>
</g>
<!-- 145 -->
<g id="node10" class="node">
<title>145</title>
<polygon fill="#dafae7" stroke="black" points="756.5,-274 544.5,-274 544.5,-191 756.5,-191 756.5,-274"/>
<text text-anchor="middle" x="650.5" y="-258.8" font-family="Times,serif" font-size="14.00">sdComm &lt;= 0.65</text>
<text text-anchor="middle" x="650.5" y="-243.8" font-family="Times,serif" font-size="14.00">gini = 0.626</text>
<text text-anchor="middle" x="650.5" y="-228.8" font-family="Times,serif" font-size="14.00">samples = 16175</text>
<text text-anchor="middle" x="650.5" y="-213.8" font-family="Times,serif" font-size="14.00">value = [3002, 7575, 5598]</text>
<text text-anchor="middle" x="650.5" y="-198.8" font-family="Times,serif" font-size="14.00">class = DCP</text>
</g>
<!-- 1&#45;&gt;145 -->
<g id="edge9" class="edge">
<title>1&#45;&gt;145</title>
<path fill="none" stroke="black" d="M650.5,-309.91C650.5,-301.65 650.5,-292.86 650.5,-284.3"/>
<polygon fill="black" stroke="black" points="654,-284.02 650.5,-274.02 647,-284.02 654,-284.02"/>
</g>
<!-- 3 -->
<g id="node4" class="node">
<title>3</title>
<polygon fill="#fdf3ec" stroke="black" points="203,-155 0,-155 0,-72 203,-72 203,-155"/>
<text text-anchor="middle" x="101.5" y="-139.8" font-family="Times,serif" font-size="14.00">graphDepth &lt;= 3.5</text>
<text text-anchor="middle" x="101.5" y="-124.8" font-family="Times,serif" font-size="14.00">gini = 0.626</text>
<text text-anchor="middle" x="101.5" y="-109.8" font-family="Times,serif" font-size="14.00">samples = 5312</text>
<text text-anchor="middle" x="101.5" y="-94.8" font-family="Times,serif" font-size="14.00">value = [2354, 2042, 916]</text>
<text text-anchor="middle" x="101.5" y="-79.8" font-family="Times,serif" font-size="14.00">class = DLS/DC</text>
</g>
<!-- 2&#45;&gt;3 -->
<g id="edge3" class="edge">
<title>2&#45;&gt;3</title>
<path fill="none" stroke="black" d="M248.44,-190.91C229.07,-180.83 208.19,-169.98 188.42,-159.7"/>
<polygon fill="black" stroke="black" points="189.91,-156.53 179.42,-155.02 186.68,-162.74 189.91,-156.53"/>
</g>
<!-- 26 -->
<g id="node7" class="node">
<title>26</title>
<polygon fill="#e9fcf1" stroke="black" points="432.5,-155 220.5,-155 220.5,-72 432.5,-72 432.5,-155"/>
<text text-anchor="middle" x="326.5" y="-139.8" font-family="Times,serif" font-size="14.00">sdComm &lt;= 0.065</text>
<text text-anchor="middle" x="326.5" y="-124.8" font-family="Times,serif" font-size="14.00">gini = 0.658</text>
<text text-anchor="middle" x="326.5" y="-109.8" font-family="Times,serif" font-size="14.00">samples = 21298</text>
<text text-anchor="middle" x="326.5" y="-94.8" font-family="Times,serif" font-size="14.00">value = [6954, 8574, 5770]</text>
<text text-anchor="middle" x="326.5" y="-79.8" font-family="Times,serif" font-size="14.00">class = DCP</text>
</g>
<!-- 2&#45;&gt;26 -->
<g id="edge6" class="edge">
<title>2&#45;&gt;26</title>
<path fill="none" stroke="black" d="M326.5,-190.91C326.5,-182.65 326.5,-173.86 326.5,-165.3"/>
<polygon fill="black" stroke="black" points="330,-165.02 326.5,-155.02 323,-165.02 330,-165.02"/>
</g>
<!-- 4 -->
<g id="node5" class="node">
<title>4</title>
<polygon fill="#c0c0c0" stroke="black" points="92.5,-36 38.5,-36 38.5,0 92.5,0 92.5,-36"/>
<text text-anchor="middle" x="65.5" y="-14.3" font-family="Times,serif" font-size="14.00">(...)</text>
</g>
<!-- 3&#45;&gt;4 -->
<g id="edge4" class="edge">
<title>3&#45;&gt;4</title>
<path fill="none" stroke="black" d="M85.81,-71.76C82.46,-63.04 78.99,-54.04 75.89,-45.99"/>
<polygon fill="black" stroke="black" points="79.06,-44.48 72.2,-36.41 72.53,-46.99 79.06,-44.48"/>
</g>
<!-- 15 -->
<g id="node6" class="node">
<title>15</title>
<polygon fill="#c0c0c0" stroke="black" points="164.5,-36 110.5,-36 110.5,0 164.5,0 164.5,-36"/>
<text text-anchor="middle" x="137.5" y="-14.3" font-family="Times,serif" font-size="14.00">(...)</text>
</g>
<!-- 3&#45;&gt;15 -->
<g id="edge5" class="edge">
<title>3&#45;&gt;15</title>
<path fill="none" stroke="black" d="M117.19,-71.76C120.54,-63.04 124.01,-54.04 127.11,-45.99"/>
<polygon fill="black" stroke="black" points="130.47,-46.99 130.8,-36.41 123.94,-44.48 130.47,-46.99"/>
</g>
<!-- 27 -->
<g id="node8" class="node">
<title>27</title>
<polygon fill="#c0c0c0" stroke="black" points="317.5,-36 263.5,-36 263.5,0 317.5,0 317.5,-36"/>
<text text-anchor="middle" x="290.5" y="-14.3" font-family="Times,serif" font-size="14.00">(...)</text>
</g>
<!-- 26&#45;&gt;27 -->
<g id="edge7" class="edge">
<title>26&#45;&gt;27</title>
<path fill="none" stroke="black" d="M310.81,-71.76C307.46,-63.04 303.99,-54.04 300.89,-45.99"/>
<polygon fill="black" stroke="black" points="304.06,-44.48 297.2,-36.41 297.53,-46.99 304.06,-44.48"/>
</g>
<!-- 50 -->
<g id="node9" class="node">
<title>50</title>
<polygon fill="#c0c0c0" stroke="black" points="389.5,-36 335.5,-36 335.5,0 389.5,0 389.5,-36"/>
<text text-anchor="middle" x="362.5" y="-14.3" font-family="Times,serif" font-size="14.00">(...)</text>
</g>
<!-- 26&#45;&gt;50 -->
<g id="edge8" class="edge">
<title>26&#45;&gt;50</title>
<path fill="none" stroke="black" d="M342.19,-71.76C345.54,-63.04 349.01,-54.04 352.11,-45.99"/>
<polygon fill="black" stroke="black" points="355.47,-46.99 355.8,-36.41 348.94,-44.48 355.47,-46.99"/>
</g>
<!-- 146 -->
<g id="node11" class="node">
<title>146</title>
<polygon fill="#d5f9e4" stroke="black" points="662.5,-155 450.5,-155 450.5,-72 662.5,-72 662.5,-155"/>
<text text-anchor="middle" x="556.5" y="-139.8" font-family="Times,serif" font-size="14.00">sdComp &lt;= 0.2</text>
<text text-anchor="middle" x="556.5" y="-124.8" font-family="Times,serif" font-size="14.00">gini = 0.613</text>
<text text-anchor="middle" x="556.5" y="-109.8" font-family="Times,serif" font-size="14.00">samples = 13540</text>
<text text-anchor="middle" x="556.5" y="-94.8" font-family="Times,serif" font-size="14.00">value = [2186, 6622, 4732]</text>
<text text-anchor="middle" x="556.5" y="-79.8" font-family="Times,serif" font-size="14.00">class = DCP</text>
</g>
<!-- 145&#45;&gt;146 -->
<g id="edge10" class="edge">
<title>145&#45;&gt;146</title>
<path fill="none" stroke="black" d="M617.89,-190.91C610.67,-181.92 602.95,-172.32 595.51,-163.05"/>
<polygon fill="black" stroke="black" points="598.05,-160.62 589.06,-155.02 592.59,-165.01 598.05,-160.62"/>
</g>
<!-- 503 -->
<g id="node14" class="node">
<title>503</title>
<polygon fill="#f5fef9" stroke="black" points="865,-155 680,-155 680,-72 865,-72 865,-155"/>
<text text-anchor="middle" x="772.5" y="-139.8" font-family="Times,serif" font-size="14.00">sdComp &lt;= 0.2</text>
<text text-anchor="middle" x="772.5" y="-124.8" font-family="Times,serif" font-size="14.00">gini = 0.665</text>
<text text-anchor="middle" x="772.5" y="-109.8" font-family="Times,serif" font-size="14.00">samples = 2635</text>
<text text-anchor="middle" x="772.5" y="-94.8" font-family="Times,serif" font-size="14.00">value = [816, 953, 866]</text>
<text text-anchor="middle" x="772.5" y="-79.8" font-family="Times,serif" font-size="14.00">class = DCP</text>
</g>
<!-- 145&#45;&gt;503 -->
<g id="edge13" class="edge">
<title>145&#45;&gt;503</title>
<path fill="none" stroke="black" d="M692.83,-190.91C702.48,-181.65 712.82,-171.73 722.75,-162.21"/>
<polygon fill="black" stroke="black" points="725.45,-164.47 730.25,-155.02 720.61,-159.42 725.45,-164.47"/>
</g>
<!-- 147 -->
<g id="node12" class="node">
<title>147</title>
<polygon fill="#c0c0c0" stroke="black" points="547.5,-36 493.5,-36 493.5,0 547.5,0 547.5,-36"/>
<text text-anchor="middle" x="520.5" y="-14.3" font-family="Times,serif" font-size="14.00">(...)</text>
</g>
<!-- 146&#45;&gt;147 -->
<g id="edge11" class="edge">
<title>146&#45;&gt;147</title>
<path fill="none" stroke="black" d="M540.81,-71.76C537.46,-63.04 533.99,-54.04 530.89,-45.99"/>
<polygon fill="black" stroke="black" points="534.06,-44.48 527.2,-36.41 527.53,-46.99 534.06,-44.48"/>
</g>
<!-- 410 -->
<g id="node13" class="node">
<title>410</title>
<polygon fill="#c0c0c0" stroke="black" points="619.5,-36 565.5,-36 565.5,0 619.5,0 619.5,-36"/>
<text text-anchor="middle" x="592.5" y="-14.3" font-family="Times,serif" font-size="14.00">(...)</text>
</g>
<!-- 146&#45;&gt;410 -->
<g id="edge12" class="edge">
<title>146&#45;&gt;410</title>
<path fill="none" stroke="black" d="M572.19,-71.76C575.54,-63.04 579.01,-54.04 582.11,-45.99"/>
<polygon fill="black" stroke="black" points="585.47,-46.99 585.8,-36.41 578.94,-44.48 585.47,-46.99"/>
</g>
<!-- 504 -->
<g id="node15" class="node">
<title>504</title>
<polygon fill="#c0c0c0" stroke="black" points="758.5,-36 704.5,-36 704.5,0 758.5,0 758.5,-36"/>
<text text-anchor="middle" x="731.5" y="-14.3" font-family="Times,serif" font-size="14.00">(...)</text>
</g>
<!-- 503&#45;&gt;504 -->
<g id="edge14" class="edge">
<title>503&#45;&gt;504</title>
<path fill="none" stroke="black" d="M754.64,-71.76C750.77,-62.94 746.78,-53.84 743.22,-45.72"/>
<polygon fill="black" stroke="black" points="746.35,-44.16 739.13,-36.41 739.94,-46.97 746.35,-44.16"/>
</g>
<!-- 527 -->
<g id="node16" class="node">
<title>527</title>
<polygon fill="#c0c0c0" stroke="black" points="830.5,-36 776.5,-36 776.5,0 830.5,0 830.5,-36"/>
<text text-anchor="middle" x="803.5" y="-14.3" font-family="Times,serif" font-size="14.00">(...)</text>
</g>
<!-- 503&#45;&gt;527 -->
<g id="edge15" class="edge">
<title>503&#45;&gt;527</title>
<path fill="none" stroke="black" d="M786.01,-71.76C788.9,-63.04 791.88,-54.04 794.55,-45.99"/>
<polygon fill="black" stroke="black" points="797.9,-47 797.73,-36.41 791.26,-44.8 797.9,-47"/>
</g>
<!-- 575 -->
<g id="node18" class="node">
<title>575</title>
<polygon fill="#ceb2f5" stroke="black" points="1175,-274 972,-274 972,-191 1175,-191 1175,-274"/>
<text text-anchor="middle" x="1073.5" y="-258.8" font-family="Times,serif" font-size="14.00">graphDepth &lt;= 13.5</text>
<text text-anchor="middle" x="1073.5" y="-243.8" font-family="Times,serif" font-size="14.00">gini = 0.584</text>
<text text-anchor="middle" x="1073.5" y="-228.8" font-family="Times,serif" font-size="14.00">samples = 4774</text>
<text text-anchor="middle" x="1073.5" y="-213.8" font-family="Times,serif" font-size="14.00">value = [1332, 776, 2666]</text>
<text text-anchor="middle" x="1073.5" y="-198.8" font-family="Times,serif" font-size="14.00">class = None</text>
</g>
<!-- 574&#45;&gt;575 -->
<g id="edge17" class="edge">
<title>574&#45;&gt;575</title>
<path fill="none" stroke="black" d="M1073.5,-309.91C1073.5,-301.65 1073.5,-292.86 1073.5,-284.3"/>
<polygon fill="black" stroke="black" points="1077,-284.02 1073.5,-274.02 1070,-284.02 1077,-284.02"/>
</g>
<!-- 694 -->
<g id="node25" class="node">
<title>694</title>
<polygon fill="#9f67eb" stroke="black" points="1455,-274 1288,-274 1288,-191 1455,-191 1455,-274"/>
<text text-anchor="middle" x="1371.5" y="-258.8" font-family="Times,serif" font-size="14.00">nbproc &lt;= 4.5</text>
<text text-anchor="middle" x="1371.5" y="-243.8" font-family="Times,serif" font-size="14.00">gini = 0.352</text>
<text text-anchor="middle" x="1371.5" y="-228.8" font-family="Times,serif" font-size="14.00">samples = 680</text>
<text text-anchor="middle" x="1371.5" y="-213.8" font-family="Times,serif" font-size="14.00">value = [68, 74, 538]</text>
<text text-anchor="middle" x="1371.5" y="-198.8" font-family="Times,serif" font-size="14.00">class = None</text>
</g>
<!-- 574&#45;&gt;694 -->
<g id="edge24" class="edge">
<title>574&#45;&gt;694</title>
<path fill="none" stroke="black" d="M1175.22,-310.56C1208.52,-297.49 1245.34,-283.03 1278,-270.21"/>
<polygon fill="black" stroke="black" points="1279.52,-273.37 1287.55,-266.46 1276.96,-266.86 1279.52,-273.37"/>
</g>
<!-- 576 -->
<g id="node19" class="node">
<title>576</title>
<polygon fill="#c4a2f3" stroke="black" points="1076.5,-155 882.5,-155 882.5,-72 1076.5,-72 1076.5,-155"/>
<text text-anchor="middle" x="979.5" y="-139.8" font-family="Times,serif" font-size="14.00">sdComm &lt;= 2.0</text>
<text text-anchor="middle" x="979.5" y="-124.8" font-family="Times,serif" font-size="14.00">gini = 0.57</text>
<text text-anchor="middle" x="979.5" y="-109.8" font-family="Times,serif" font-size="14.00">samples = 3666</text>
<text text-anchor="middle" x="979.5" y="-94.8" font-family="Times,serif" font-size="14.00">value = [808, 708, 2150]</text>
<text text-anchor="middle" x="979.5" y="-79.8" font-family="Times,serif" font-size="14.00">class = None</text>
</g>
<!-- 575&#45;&gt;576 -->
<g id="edge18" class="edge">
<title>575&#45;&gt;576</title>
<path fill="none" stroke="black" d="M1040.89,-190.91C1033.67,-181.92 1025.95,-172.32 1018.51,-163.05"/>
<polygon fill="black" stroke="black" points="1021.05,-160.62 1012.06,-155.02 1015.59,-165.01 1021.05,-160.62"/>
</g>
<!-- 667 -->
<g id="node22" class="node">
<title>667</title>
<polygon fill="#fffdfc" stroke="black" points="1270.5,-155 1094.5,-155 1094.5,-72 1270.5,-72 1270.5,-155"/>
<text text-anchor="middle" x="1182.5" y="-139.8" font-family="Times,serif" font-size="14.00">nbproc &lt;= 4.5</text>
<text text-anchor="middle" x="1182.5" y="-124.8" font-family="Times,serif" font-size="14.00">gini = 0.556</text>
<text text-anchor="middle" x="1182.5" y="-109.8" font-family="Times,serif" font-size="14.00">samples = 1108</text>
<text text-anchor="middle" x="1182.5" y="-94.8" font-family="Times,serif" font-size="14.00">value = [524, 68, 516]</text>
<text text-anchor="middle" x="1182.5" y="-79.8" font-family="Times,serif" font-size="14.00">class = DLS/DC</text>
</g>
<!-- 575&#45;&gt;667 -->
<g id="edge21" class="edge">
<title>575&#45;&gt;667</title>
<path fill="none" stroke="black" d="M1111.32,-190.91C1119.86,-181.74 1129,-171.93 1137.79,-162.49"/>
<polygon fill="black" stroke="black" points="1140.49,-164.72 1144.75,-155.02 1135.37,-159.95 1140.49,-164.72"/>
</g>
<!-- 577 -->
<g id="node20" class="node">
<title>577</title>
<polygon fill="#c0c0c0" stroke="black" points="963.5,-36 909.5,-36 909.5,0 963.5,0 963.5,-36"/>
<text text-anchor="middle" x="936.5" y="-14.3" font-family="Times,serif" font-size="14.00">(...)</text>
</g>
<!-- 576&#45;&gt;577 -->
<g id="edge19" class="edge">
<title>576&#45;&gt;577</title>
<path fill="none" stroke="black" d="M960.76,-71.76C956.71,-62.94 952.52,-53.84 948.79,-45.72"/>
<polygon fill="black" stroke="black" points="951.86,-44.03 944.5,-36.41 945.5,-46.95 951.86,-44.03"/>
</g>
<!-- 608 -->
<g id="node21" class="node">
<title>608</title>
<polygon fill="#c0c0c0" stroke="black" points="1035.5,-36 981.5,-36 981.5,0 1035.5,0 1035.5,-36"/>
<text text-anchor="middle" x="1008.5" y="-14.3" font-family="Times,serif" font-size="14.00">(...)</text>
</g>
<!-- 576&#45;&gt;608 -->
<g id="edge20" class="edge">
<title>576&#45;&gt;608</title>
<path fill="none" stroke="black" d="M992.14,-71.76C994.84,-63.04 997.63,-54.04 1000.13,-45.99"/>
<polygon fill="black" stroke="black" points="1003.48,-46.99 1003.1,-36.41 996.8,-44.92 1003.48,-46.99"/>
</g>
<!-- 668 -->
<g id="node23" class="node">
<title>668</title>
<polygon fill="#c0c0c0" stroke="black" points="1159.5,-36 1105.5,-36 1105.5,0 1159.5,0 1159.5,-36"/>
<text text-anchor="middle" x="1132.5" y="-14.3" font-family="Times,serif" font-size="14.00">(...)</text>
</g>
<!-- 667&#45;&gt;668 -->
<g id="edge22" class="edge">
<title>667&#45;&gt;668</title>
<path fill="none" stroke="black" d="M1160.71,-71.76C1155.95,-62.85 1151.02,-53.64 1146.65,-45.46"/>
<polygon fill="black" stroke="black" points="1149.61,-43.57 1141.81,-36.41 1143.44,-46.87 1149.61,-43.57"/>
</g>
<!-- 685 -->
<g id="node24" class="node">
<title>685</title>
<polygon fill="#c0c0c0" stroke="black" points="1231.5,-36 1177.5,-36 1177.5,0 1231.5,0 1231.5,-36"/>
<text text-anchor="middle" x="1204.5" y="-14.3" font-family="Times,serif" font-size="14.00">(...)</text>
</g>
<!-- 667&#45;&gt;685 -->
<g id="edge23" class="edge">
<title>667&#45;&gt;685</title>
<path fill="none" stroke="black" d="M1192.09,-71.76C1194.11,-63.14 1196.21,-54.24 1198.09,-46.26"/>
<polygon fill="black" stroke="black" points="1201.52,-46.94 1200.4,-36.41 1194.71,-45.34 1201.52,-46.94"/>
</g>
<!-- 695 -->
<g id="node26" class="node">
<title>695</title>
<polygon fill="#985dea" stroke="black" points="1455,-155 1288,-155 1288,-72 1455,-72 1455,-155"/>
<text text-anchor="middle" x="1371.5" y="-139.8" font-family="Times,serif" font-size="14.00">sdComp &lt;= 2.0</text>
<text text-anchor="middle" x="1371.5" y="-124.8" font-family="Times,serif" font-size="14.00">gini = 0.285</text>
<text text-anchor="middle" x="1371.5" y="-109.8" font-family="Times,serif" font-size="14.00">samples = 430</text>
<text text-anchor="middle" x="1371.5" y="-94.8" font-family="Times,serif" font-size="14.00">value = [44, 26, 360]</text>
<text text-anchor="middle" x="1371.5" y="-79.8" font-family="Times,serif" font-size="14.00">class = None</text>
</g>
<!-- 694&#45;&gt;695 -->
<g id="edge25" class="edge">
<title>694&#45;&gt;695</title>
<path fill="none" stroke="black" d="M1371.5,-190.91C1371.5,-182.65 1371.5,-173.86 1371.5,-165.3"/>
<polygon fill="black" stroke="black" points="1375,-165.02 1371.5,-155.02 1368,-165.02 1375,-165.02"/>
</g>
<!-- 710 -->
<g id="node29" class="node">
<title>710</title>
<polygon fill="#ae80ee" stroke="black" points="1640,-155 1473,-155 1473,-72 1640,-72 1640,-155"/>
<text text-anchor="middle" x="1556.5" y="-139.8" font-family="Times,serif" font-size="14.00">sdComp &lt;= 2.0</text>
<text text-anchor="middle" x="1556.5" y="-124.8" font-family="Times,serif" font-size="14.00">gini = 0.447</text>
<text text-anchor="middle" x="1556.5" y="-109.8" font-family="Times,serif" font-size="14.00">samples = 250</text>
<text text-anchor="middle" x="1556.5" y="-94.8" font-family="Times,serif" font-size="14.00">value = [24, 48, 178]</text>
<text text-anchor="middle" x="1556.5" y="-79.8" font-family="Times,serif" font-size="14.00">class = None</text>
</g>
<!-- 694&#45;&gt;710 -->
<g id="edge28" class="edge">
<title>694&#45;&gt;710</title>
<path fill="none" stroke="black" d="M1435.68,-190.91C1451.18,-181.11 1467.85,-170.56 1483.71,-160.53"/>
<polygon fill="black" stroke="black" points="1485.85,-163.32 1492.43,-155.02 1482.11,-157.41 1485.85,-163.32"/>
</g>
<!-- 696 -->
<g id="node27" class="node">
<title>696</title>
<polygon fill="#c0c0c0" stroke="black" points="1362.5,-36 1308.5,-36 1308.5,0 1362.5,0 1362.5,-36"/>
<text text-anchor="middle" x="1335.5" y="-14.3" font-family="Times,serif" font-size="14.00">(...)</text>
</g>
<!-- 695&#45;&gt;696 -->
<g id="edge26" class="edge">
<title>695&#45;&gt;696</title>
<path fill="none" stroke="black" d="M1355.81,-71.76C1352.46,-63.04 1348.99,-54.04 1345.89,-45.99"/>
<polygon fill="black" stroke="black" points="1349.06,-44.48 1342.2,-36.41 1342.53,-46.99 1349.06,-44.48"/>
</g>
<!-- 699 -->
<g id="node28" class="node">
<title>699</title>
<polygon fill="#c0c0c0" stroke="black" points="1434.5,-36 1380.5,-36 1380.5,0 1434.5,0 1434.5,-36"/>
<text text-anchor="middle" x="1407.5" y="-14.3" font-family="Times,serif" font-size="14.00">(...)</text>
</g>
<!-- 695&#45;&gt;699 -->
<g id="edge27" class="edge">
<title>695&#45;&gt;699</title>
<path fill="none" stroke="black" d="M1387.19,-71.76C1390.54,-63.04 1394.01,-54.04 1397.11,-45.99"/>
<polygon fill="black" stroke="black" points="1400.47,-46.99 1400.8,-36.41 1393.94,-44.48 1400.47,-46.99"/>
</g>
<!-- 711 -->
<g id="node30" class="node">
<title>711</title>
<polygon fill="#c0c0c0" stroke="black" points="1547.5,-36 1493.5,-36 1493.5,0 1547.5,0 1547.5,-36"/>
<text text-anchor="middle" x="1520.5" y="-14.3" font-family="Times,serif" font-size="14.00">(...)</text>
</g>
<!-- 710&#45;&gt;711 -->
<g id="edge29" class="edge">
<title>710&#45;&gt;711</title>
<path fill="none" stroke="black" d="M1540.81,-71.76C1537.46,-63.04 1533.99,-54.04 1530.89,-45.99"/>
<polygon fill="black" stroke="black" points="1534.06,-44.48 1527.2,-36.41 1527.53,-46.99 1534.06,-44.48"/>
</g>
<!-- 714 -->
<g id="node31" class="node">
<title>714</title>
<polygon fill="#c0c0c0" stroke="black" points="1619.5,-36 1565.5,-36 1565.5,0 1619.5,0 1619.5,-36"/>
<text text-anchor="middle" x="1592.5" y="-14.3" font-family="Times,serif" font-size="14.00">(...)</text>
</g>
<!-- 710&#45;&gt;714 -->
<g id="edge30" class="edge">
<title>710&#45;&gt;714</title>
<path fill="none" stroke="black" d="M1572.19,-71.76C1575.54,-63.04 1579.01,-54.04 1582.11,-45.99"/>
<polygon fill="black" stroke="black" points="1585.47,-46.99 1585.8,-36.41 1578.94,-44.48 1585.47,-46.99"/>
</g>
</g>
</svg>
