<?xml version="1.0" encoding="UTF-8" standalone="no"?>
<!DOCTYPE svg PUBLIC "-//W3C//DTD SVG 1.1//EN"
 "http://www.w3.org/Graphics/SVG/1.1/DTD/svg11.dtd">
<!-- Generated by graphviz version 2.43.0 (0)
 -->
<!-- Title: Tree Pages: 1 -->
<svg width="2813pt" height="520pt"
 viewBox="0.00 0.00 2812.50 520.00" xmlns="http://www.w3.org/2000/svg" xmlns:xlink="http://www.w3.org/1999/xlink">
<g id="graph0" class="graph" transform="scale(1 1) rotate(0) translate(4 516)">
<title>Tree</title>
<polygon fill="white" stroke="transparent" points="-4,4 -4,-516 2808.5,-516 2808.5,4 -4,4"/>
<!-- 0 -->
<g id="node1" class="node">
<title>0</title>
<polygon fill="#fefbf9" stroke="black" points="1660,-512 1268,-512 1268,-429 1660,-429 1660,-512"/>
<text text-anchor="middle" x="1464" y="-496.8" font-family="Times,serif" font-size="14.00">graphSize &lt;= 40.0</text>
<text text-anchor="middle" x="1464" y="-481.8" font-family="Times,serif" font-size="14.00">gini = 0.831</text>
<text text-anchor="middle" x="1464" y="-466.8" font-family="Times,serif" font-size="14.00">samples = 48239</text>
<text text-anchor="middle" x="1464" y="-451.8" font-family="Times,serif" font-size="14.00">value = [10272, 5480, 578, 6950, 7560, 8999, 8400]</text>
<text text-anchor="middle" x="1464" y="-436.8" font-family="Times,serif" font-size="14.00">class = rku</text>
</g>
<!-- 1 -->
<g id="node2" class="node">
<title>1</title>
<polygon fill="#fffdfc" stroke="black" points="1301.5,-393 918.5,-393 918.5,-310 1301.5,-310 1301.5,-393"/>
<text text-anchor="middle" x="1110" y="-377.8" font-family="Times,serif" font-size="14.00">CCR &lt;= 0.55</text>
<text text-anchor="middle" x="1110" y="-362.8" font-family="Times,serif" font-size="14.00">gini = 0.834</text>
<text text-anchor="middle" x="1110" y="-347.8" font-family="Times,serif" font-size="14.00">samples = 38855</text>
<text text-anchor="middle" x="1110" y="-332.8" font-family="Times,serif" font-size="14.00">value = [7286, 5008, 342, 5916, 6580, 6851, 6872]</text>
<text text-anchor="middle" x="1110" y="-317.8" font-family="Times,serif" font-size="14.00">class = rku</text>
</g>
<!-- 0&#45;&gt;1 -->
<g id="edge1" class="edge">
<title>0&#45;&gt;1</title>
<path fill="none" stroke="black" d="M1341.18,-428.91C1309.19,-418.33 1274.59,-406.9 1242.14,-396.17"/>
<polygon fill="black" stroke="black" points="1243.19,-392.84 1232.6,-393.02 1241,-399.48 1243.19,-392.84"/>
<text text-anchor="middle" x="1243.84" y="-411.65" font-family="Times,serif" font-size="14.00">True</text>
</g>
<!-- 392 -->
<g id="node17" class="node">
<title>392</title>
<polygon fill="#fcf0e8" stroke="black" points="1994.5,-393 1629.5,-393 1629.5,-310 1994.5,-310 1994.5,-393"/>
<text text-anchor="middle" x="1812" y="-377.8" font-family="Times,serif" font-size="14.00">sdComp &lt;= 0.65</text>
<text text-anchor="middle" x="1812" y="-362.8" font-family="Times,serif" font-size="14.00">gini = 0.794</text>
<text text-anchor="middle" x="1812" y="-347.8" font-family="Times,serif" font-size="14.00">samples = 9384</text>
<text text-anchor="middle" x="1812" y="-332.8" font-family="Times,serif" font-size="14.00">value = [2986, 472, 236, 1034, 980, 2148, 1528]</text>
<text text-anchor="middle" x="1812" y="-317.8" font-family="Times,serif" font-size="14.00">class = rku</text>
</g>
<!-- 0&#45;&gt;392 -->
<g id="edge16" class="edge">
<title>0&#45;&gt;392</title>
<path fill="none" stroke="black" d="M1584.74,-428.91C1616.05,-418.38 1649.91,-407 1681.69,-396.31"/>
<polygon fill="black" stroke="black" points="1683.11,-399.53 1691.48,-393.02 1680.88,-392.89 1683.11,-399.53"/>
<text text-anchor="middle" x="1680.35" y="-411.71" font-family="Times,serif" font-size="14.00">False</text>
</g>
<!-- 2 -->
<g id="node3" class="node">
<title>2</title>
<polygon fill="#ffffff" stroke="black" points="743,-274 369,-274 369,-191 743,-191 743,-274"/>
<text text-anchor="middle" x="556" y="-258.8" font-family="Times,serif" font-size="14.00">nbproc &lt;= 4.5</text>
<text text-anchor="middle" x="556" y="-243.8" font-family="Times,serif" font-size="14.00">gini = 0.831</text>
<text text-anchor="middle" x="556" y="-228.8" font-family="Times,serif" font-size="14.00">samples = 21870</text>
<text text-anchor="middle" x="556" y="-213.8" font-family="Times,serif" font-size="14.00">value = [3926, 2772, 28, 3356, 4126, 4090, 3572]</text>
<text text-anchor="middle" x="556" y="-198.8" font-family="Times,serif" font-size="14.00">class = cluHPS</text>
</g>
<!-- 1&#45;&gt;2 -->
<g id="edge2" class="edge">
<title>1&#45;&gt;2</title>
<path fill="none" stroke="black" d="M918.18,-309.99C864.91,-298.74 806.98,-286.51 753.4,-275.19"/>
<polygon fill="black" stroke="black" points="753.95,-271.73 743.44,-273.09 752.5,-278.58 753.95,-271.73"/>
</g>
<!-- 145 -->
<g id="node10" class="node">
<title>145</title>
<polygon fill="#fffefe" stroke="black" points="1301.5,-274 918.5,-274 918.5,-191 1301.5,-191 1301.5,-274"/>
<text text-anchor="middle" x="1110" y="-258.8" font-family="Times,serif" font-size="14.00">graphDepth &lt;= 7.5</text>
<text text-anchor="middle" x="1110" y="-243.8" font-family="Times,serif" font-size="14.00">gini = 0.835</text>
<text text-anchor="middle" x="1110" y="-228.8" font-family="Times,serif" font-size="14.00">samples = 16985</text>
<text text-anchor="middle" x="1110" y="-213.8" font-family="Times,serif" font-size="14.00">value = [3360, 2236, 314, 2560, 2454, 2761, 3300]</text>
<text text-anchor="middle" x="1110" y="-198.8" font-family="Times,serif" font-size="14.00">class = rku</text>
</g>
<!-- 1&#45;&gt;145 -->
<g id="edge9" class="edge">
<title>1&#45;&gt;145</title>
<path fill="none" stroke="black" d="M1110,-309.91C1110,-301.65 1110,-292.86 1110,-284.3"/>
<polygon fill="black" stroke="black" points="1113.5,-284.02 1110,-274.02 1106.5,-284.02 1113.5,-284.02"/>
</g>
<!-- 3 -->
<g id="node4" class="node">
<title>3</title>
<polygon fill="#f5f7fe" stroke="black" points="356,-155 0,-155 0,-72 356,-72 356,-155"/>
<text text-anchor="middle" x="178" y="-139.8" font-family="Times,serif" font-size="14.00">sdComp &lt;= 0.065</text>
<text text-anchor="middle" x="178" y="-124.8" font-family="Times,serif" font-size="14.00">gini = 0.822</text>
<text text-anchor="middle" x="178" y="-109.8" font-family="Times,serif" font-size="14.00">samples = 6602</text>
<text text-anchor="middle" x="178" y="-94.8" font-family="Times,serif" font-size="14.00">value = [1122, 634, 24, 1260, 1522, 1260, 780]</text>
<text text-anchor="middle" x="178" y="-79.8" font-family="Times,serif" font-size="14.00">class = cluHPS</text>
</g>
<!-- 2&#45;&gt;3 -->
<g id="edge3" class="edge">
<title>2&#45;&gt;3</title>
<path fill="none" stroke="black" d="M425.12,-190.99C390.8,-180.37 353.65,-168.87 318.84,-158.09"/>
<polygon fill="black" stroke="black" points="319.68,-154.69 309.09,-155.07 317.61,-161.38 319.68,-154.69"/>
</g>
<!-- 74 -->
<g id="node7" class="node">
<title>74</title>
<polygon fill="#ffffff" stroke="black" points="738.5,-155 373.5,-155 373.5,-72 738.5,-72 738.5,-155"/>
<text text-anchor="middle" x="556" y="-139.8" font-family="Times,serif" font-size="14.00">graphDepth &lt;= 3.5</text>
<text text-anchor="middle" x="556" y="-124.8" font-family="Times,serif" font-size="14.00">gini = 0.831</text>
<text text-anchor="middle" x="556" y="-109.8" font-family="Times,serif" font-size="14.00">samples = 15268</text>
<text text-anchor="middle" x="556" y="-94.8" font-family="Times,serif" font-size="14.00">value = [2804, 2138, 4, 2096, 2604, 2830, 2792]</text>
<text text-anchor="middle" x="556" y="-79.8" font-family="Times,serif" font-size="14.00">class = rkusd</text>
</g>
<!-- 2&#45;&gt;74 -->
<g id="edge6" class="edge">
<title>2&#45;&gt;74</title>
<path fill="none" stroke="black" d="M556,-190.91C556,-182.65 556,-173.86 556,-165.3"/>
<polygon fill="black" stroke="black" points="559.5,-165.02 556,-155.02 552.5,-165.02 559.5,-165.02"/>
</g>
<!-- 4 -->
<g id="node5" class="node">
<title>4</title>
<polygon fill="#c0c0c0" stroke="black" points="169,-36 115,-36 115,0 169,0 169,-36"/>
<text text-anchor="middle" x="142" y="-14.3" font-family="Times,serif" font-size="14.00">(...)</text>
</g>
<!-- 3&#45;&gt;4 -->
<g id="edge4" class="edge">
<title>3&#45;&gt;4</title>
<path fill="none" stroke="black" d="M162.31,-71.76C158.96,-63.04 155.49,-54.04 152.39,-45.99"/>
<polygon fill="black" stroke="black" points="155.56,-44.48 148.7,-36.41 149.03,-46.99 155.56,-44.48"/>
</g>
<!-- 51 -->
<g id="node6" class="node">
<title>51</title>
<polygon fill="#c0c0c0" stroke="black" points="241,-36 187,-36 187,0 241,0 241,-36"/>
<text text-anchor="middle" x="214" y="-14.3" font-family="Times,serif" font-size="14.00">(...)</text>
</g>
<!-- 3&#45;&gt;51 -->
<g id="edge5" class="edge">
<title>3&#45;&gt;51</title>
<path fill="none" stroke="black" d="M193.69,-71.76C197.04,-63.04 200.51,-54.04 203.61,-45.99"/>
<polygon fill="black" stroke="black" points="206.97,-46.99 207.3,-36.41 200.44,-44.48 206.97,-46.99"/>
</g>
<!-- 75 -->
<g id="node8" class="node">
<title>75</title>
<polygon fill="#c0c0c0" stroke="black" points="547,-36 493,-36 493,0 547,0 547,-36"/>
<text text-anchor="middle" x="520" y="-14.3" font-family="Times,serif" font-size="14.00">(...)</text>
</g>
<!-- 74&#45;&gt;75 -->
<g id="edge7" class="edge">
<title>74&#45;&gt;75</title>
<path fill="none" stroke="black" d="M540.31,-71.76C536.96,-63.04 533.49,-54.04 530.39,-45.99"/>
<polygon fill="black" stroke="black" points="533.56,-44.48 526.7,-36.41 527.03,-46.99 533.56,-44.48"/>
</g>
<!-- 92 -->
<g id="node9" class="node">
<title>92</title>
<polygon fill="#c0c0c0" stroke="black" points="619,-36 565,-36 565,0 619,0 619,-36"/>
<text text-anchor="middle" x="592" y="-14.3" font-family="Times,serif" font-size="14.00">(...)</text>
</g>
<!-- 74&#45;&gt;92 -->
<g id="edge8" class="edge">
<title>74&#45;&gt;92</title>
<path fill="none" stroke="black" d="M571.69,-71.76C575.04,-63.04 578.51,-54.04 581.61,-45.99"/>
<polygon fill="black" stroke="black" points="584.97,-46.99 585.3,-36.41 578.44,-44.48 584.97,-46.99"/>
</g>
<!-- 146 -->
<g id="node11" class="node">
<title>146</title>
<polygon fill="#fefcfa" stroke="black" points="1139.5,-155 756.5,-155 756.5,-72 1139.5,-72 1139.5,-155"/>
<text text-anchor="middle" x="948" y="-139.8" font-family="Times,serif" font-size="14.00">graphSize &lt;= 22.5</text>
<text text-anchor="middle" x="948" y="-124.8" font-family="Times,serif" font-size="14.00">gini = 0.833</text>
<text text-anchor="middle" x="948" y="-109.8" font-family="Times,serif" font-size="14.00">samples = 13491</text>
<text text-anchor="middle" x="948" y="-94.8" font-family="Times,serif" font-size="14.00">value = [2906, 1732, 266, 2030, 1692, 2237, 2628]</text>
<text text-anchor="middle" x="948" y="-79.8" font-family="Times,serif" font-size="14.00">class = rku</text>
</g>
<!-- 145&#45;&gt;146 -->
<g id="edge10" class="edge">
<title>145&#45;&gt;146</title>
<path fill="none" stroke="black" d="M1053.79,-190.91C1040.48,-181.29 1026.17,-170.95 1012.51,-161.09"/>
<polygon fill="black" stroke="black" points="1014.26,-158.04 1004.11,-155.02 1010.16,-163.71 1014.26,-158.04"/>
</g>
<!-- 329 -->
<g id="node14" class="node">
<title>329</title>
<polygon fill="#f9fafe" stroke="black" points="1478,-155 1158,-155 1158,-72 1478,-72 1478,-155"/>
<text text-anchor="middle" x="1318" y="-139.8" font-family="Times,serif" font-size="14.00">nbproc &lt;= 4.5</text>
<text text-anchor="middle" x="1318" y="-124.8" font-family="Times,serif" font-size="14.00">gini = 0.832</text>
<text text-anchor="middle" x="1318" y="-109.8" font-family="Times,serif" font-size="14.00">samples = 3494</text>
<text text-anchor="middle" x="1318" y="-94.8" font-family="Times,serif" font-size="14.00">value = [454, 504, 48, 530, 762, 524, 672]</text>
<text text-anchor="middle" x="1318" y="-79.8" font-family="Times,serif" font-size="14.00">class = cluHPS</text>
</g>
<!-- 145&#45;&gt;329 -->
<g id="edge13" class="edge">
<title>145&#45;&gt;329</title>
<path fill="none" stroke="black" d="M1182.16,-190.91C1199.91,-180.92 1219.03,-170.17 1237.15,-159.98"/>
<polygon fill="black" stroke="black" points="1238.96,-162.97 1245.96,-155.02 1235.53,-156.87 1238.96,-162.97"/>
</g>
<!-- 147 -->
<g id="node12" class="node">
<title>147</title>
<polygon fill="#c0c0c0" stroke="black" points="939,-36 885,-36 885,0 939,0 939,-36"/>
<text text-anchor="middle" x="912" y="-14.3" font-family="Times,serif" font-size="14.00">(...)</text>
</g>
<!-- 146&#45;&gt;147 -->
<g id="edge11" class="edge">
<title>146&#45;&gt;147</title>
<path fill="none" stroke="black" d="M932.31,-71.76C928.96,-63.04 925.49,-54.04 922.39,-45.99"/>
<polygon fill="black" stroke="black" points="925.56,-44.48 918.7,-36.41 919.03,-46.99 925.56,-44.48"/>
</g>
<!-- 280 -->
<g id="node13" class="node">
<title>280</title>
<polygon fill="#c0c0c0" stroke="black" points="1011,-36 957,-36 957,0 1011,0 1011,-36"/>
<text text-anchor="middle" x="984" y="-14.3" font-family="Times,serif" font-size="14.00">(...)</text>
</g>
<!-- 146&#45;&gt;280 -->
<g id="edge12" class="edge">
<title>146&#45;&gt;280</title>
<path fill="none" stroke="black" d="M963.69,-71.76C967.04,-63.04 970.51,-54.04 973.61,-45.99"/>
<polygon fill="black" stroke="black" points="976.97,-46.99 977.3,-36.41 970.44,-44.48 976.97,-46.99"/>
</g>
<!-- 330 -->
<g id="node15" class="node">
<title>330</title>
<polygon fill="#c0c0c0" stroke="black" points="1309,-36 1255,-36 1255,0 1309,0 1309,-36"/>
<text text-anchor="middle" x="1282" y="-14.3" font-family="Times,serif" font-size="14.00">(...)</text>
</g>
<!-- 329&#45;&gt;330 -->
<g id="edge14" class="edge">
<title>329&#45;&gt;330</title>
<path fill="none" stroke="black" d="M1302.31,-71.76C1298.96,-63.04 1295.49,-54.04 1292.39,-45.99"/>
<polygon fill="black" stroke="black" points="1295.56,-44.48 1288.7,-36.41 1289.03,-46.99 1295.56,-44.48"/>
</g>
<!-- 363 -->
<g id="node16" class="node">
<title>363</title>
<polygon fill="#c0c0c0" stroke="black" points="1381,-36 1327,-36 1327,0 1381,0 1381,-36"/>
<text text-anchor="middle" x="1354" y="-14.3" font-family="Times,serif" font-size="14.00">(...)</text>
</g>
<!-- 329&#45;&gt;363 -->
<g id="edge15" class="edge">
<title>329&#45;&gt;363</title>
<path fill="none" stroke="black" d="M1333.69,-71.76C1337.04,-63.04 1340.51,-54.04 1343.61,-45.99"/>
<polygon fill="black" stroke="black" points="1346.97,-46.99 1347.3,-36.41 1340.44,-44.48 1346.97,-46.99"/>
</g>
<!-- 393 -->
<g id="node18" class="node">
<title>393</title>
<polygon fill="#fbe9dd" stroke="black" points="1990,-274 1634,-274 1634,-191 1990,-191 1990,-274"/>
<text text-anchor="middle" x="1812" y="-258.8" font-family="Times,serif" font-size="14.00">nbproc &lt;= 4.5</text>
<text text-anchor="middle" x="1812" y="-243.8" font-family="Times,serif" font-size="14.00">gini = 0.741</text>
<text text-anchor="middle" x="1812" y="-228.8" font-family="Times,serif" font-size="14.00">samples = 6788</text>
<text text-anchor="middle" x="1812" y="-213.8" font-family="Times,serif" font-size="14.00">value = [2624, 168, 128, 444, 424, 1766, 1234]</text>
<text text-anchor="middle" x="1812" y="-198.8" font-family="Times,serif" font-size="14.00">class = rku</text>
</g>
<!-- 392&#45;&gt;393 -->
<g id="edge17" class="edge">
<title>392&#45;&gt;393</title>
<path fill="none" stroke="black" d="M1812,-309.91C1812,-301.65 1812,-292.86 1812,-284.3"/>
<polygon fill="black" stroke="black" points="1815.5,-284.02 1812,-274.02 1808.5,-284.02 1815.5,-284.02"/>
</g>
<!-- 632 -->
<g id="node25" class="node">
<title>632</title>
<polygon fill="#fcffff" stroke="black" points="2488.5,-274 2159.5,-274 2159.5,-191 2488.5,-191 2488.5,-274"/>
<text text-anchor="middle" x="2324" y="-258.8" font-family="Times,serif" font-size="14.00">sdComm &lt;= 0.65</text>
<text text-anchor="middle" x="2324" y="-243.8" font-family="Times,serif" font-size="14.00">gini = 0.833</text>
<text text-anchor="middle" x="2324" y="-228.8" font-family="Times,serif" font-size="14.00">samples = 2596</text>
<text text-anchor="middle" x="2324" y="-213.8" font-family="Times,serif" font-size="14.00">value = [362, 304, 108, 590, 556, 382, 294]</text>
<text text-anchor="middle" x="2324" y="-198.8" font-family="Times,serif" font-size="14.00">class = rkd</text>
</g>
<!-- 392&#45;&gt;632 -->
<g id="edge24" class="edge">
<title>392&#45;&gt;632</title>
<path fill="none" stroke="black" d="M1989.28,-309.99C2041.12,-298.14 2097.74,-285.2 2149.42,-273.4"/>
<polygon fill="black" stroke="black" points="2150.37,-276.77 2159.34,-271.13 2148.82,-269.94 2150.37,-276.77"/>
</g>
<!-- 394 -->
<g id="node19" class="node">
<title>394</title>
<polygon fill="#f9e3d3" stroke="black" points="1825.5,-155 1496.5,-155 1496.5,-72 1825.5,-72 1825.5,-155"/>
<text text-anchor="middle" x="1661" y="-139.8" font-family="Times,serif" font-size="14.00">sdComm &lt;= 0.2</text>
<text text-anchor="middle" x="1661" y="-124.8" font-family="Times,serif" font-size="14.00">gini = 0.677</text>
<text text-anchor="middle" x="1661" y="-109.8" font-family="Times,serif" font-size="14.00">samples = 3376</text>
<text text-anchor="middle" x="1661" y="-94.8" font-family="Times,serif" font-size="14.00">value = [1560, 48, 116, 82, 258, 1042, 270]</text>
<text text-anchor="middle" x="1661" y="-79.8" font-family="Times,serif" font-size="14.00">class = rku</text>
</g>
<!-- 393&#45;&gt;394 -->
<g id="edge18" class="edge">
<title>393&#45;&gt;394</title>
<path fill="none" stroke="black" d="M1759.61,-190.91C1747.31,-181.38 1734.11,-171.15 1721.49,-161.37"/>
<polygon fill="black" stroke="black" points="1723.34,-158.38 1713.3,-155.02 1719.06,-163.91 1723.34,-158.38"/>
</g>
<!-- 513 -->
<g id="node22" class="node">
<title>513</title>
<polygon fill="#fefaf7" stroke="black" points="2172.5,-155 1843.5,-155 1843.5,-72 2172.5,-72 2172.5,-155"/>
<text text-anchor="middle" x="2008" y="-139.8" font-family="Times,serif" font-size="14.00">CCR &lt;= 0.55</text>
<text text-anchor="middle" x="2008" y="-124.8" font-family="Times,serif" font-size="14.00">gini = 0.763</text>
<text text-anchor="middle" x="2008" y="-109.8" font-family="Times,serif" font-size="14.00">samples = 3412</text>
<text text-anchor="middle" x="2008" y="-94.8" font-family="Times,serif" font-size="14.00">value = [1064, 120, 12, 362, 166, 724, 964]</text>
<text text-anchor="middle" x="2008" y="-79.8" font-family="Times,serif" font-size="14.00">class = rku</text>
</g>
<!-- 393&#45;&gt;513 -->
<g id="edge21" class="edge">
<title>393&#45;&gt;513</title>
<path fill="none" stroke="black" d="M1880,-190.91C1896.57,-181.02 1914.41,-170.37 1931.35,-160.25"/>
<polygon fill="black" stroke="black" points="1933.33,-163.15 1940.12,-155.02 1929.74,-157.14 1933.33,-163.15"/>
</g>
<!-- 395 -->
<g id="node20" class="node">
<title>395</title>
<polygon fill="#c0c0c0" stroke="black" points="1652,-36 1598,-36 1598,0 1652,0 1652,-36"/>
<text text-anchor="middle" x="1625" y="-14.3" font-family="Times,serif" font-size="14.00">(...)</text>
</g>
<!-- 394&#45;&gt;395 -->
<g id="edge19" class="edge">
<title>394&#45;&gt;395</title>
<path fill="none" stroke="black" d="M1645.31,-71.76C1641.96,-63.04 1638.49,-54.04 1635.39,-45.99"/>
<polygon fill="black" stroke="black" points="1638.56,-44.48 1631.7,-36.41 1632.03,-46.99 1638.56,-44.48"/>
</g>
<!-- 482 -->
<g id="node21" class="node">
<title>482</title>
<polygon fill="#c0c0c0" stroke="black" points="1724,-36 1670,-36 1670,0 1724,0 1724,-36"/>
<text text-anchor="middle" x="1697" y="-14.3" font-family="Times,serif" font-size="14.00">(...)</text>
</g>
<!-- 394&#45;&gt;482 -->
<g id="edge20" class="edge">
<title>394&#45;&gt;482</title>
<path fill="none" stroke="black" d="M1676.69,-71.76C1680.04,-63.04 1683.51,-54.04 1686.61,-45.99"/>
<polygon fill="black" stroke="black" points="1689.97,-46.99 1690.3,-36.41 1683.44,-44.48 1689.97,-46.99"/>
</g>
<!-- 514 -->
<g id="node23" class="node">
<title>514</title>
<polygon fill="#c0c0c0" stroke="black" points="1999,-36 1945,-36 1945,0 1999,0 1999,-36"/>
<text text-anchor="middle" x="1972" y="-14.3" font-family="Times,serif" font-size="14.00">(...)</text>
</g>
<!-- 513&#45;&gt;514 -->
<g id="edge22" class="edge">
<title>513&#45;&gt;514</title>
<path fill="none" stroke="black" d="M1992.31,-71.76C1988.96,-63.04 1985.49,-54.04 1982.39,-45.99"/>
<polygon fill="black" stroke="black" points="1985.56,-44.48 1978.7,-36.41 1979.03,-46.99 1985.56,-44.48"/>
</g>
<!-- 585 -->
<g id="node24" class="node">
<title>585</title>
<polygon fill="#c0c0c0" stroke="black" points="2071,-36 2017,-36 2017,0 2071,0 2071,-36"/>
<text text-anchor="middle" x="2044" y="-14.3" font-family="Times,serif" font-size="14.00">(...)</text>
</g>
<!-- 513&#45;&gt;585 -->
<g id="edge23" class="edge">
<title>513&#45;&gt;585</title>
<path fill="none" stroke="black" d="M2023.69,-71.76C2027.04,-63.04 2030.51,-54.04 2033.61,-45.99"/>
<polygon fill="black" stroke="black" points="2036.97,-46.99 2037.3,-36.41 2030.44,-44.48 2036.97,-46.99"/>
</g>
<!-- 633 -->
<g id="node26" class="node">
<title>633</title>
<polygon fill="#eed3f9" stroke="black" points="2457,-155 2191,-155 2191,-72 2457,-72 2457,-155"/>
<text text-anchor="middle" x="2324" y="-139.8" font-family="Times,serif" font-size="14.00">graphDepth &lt;= 12.5</text>
<text text-anchor="middle" x="2324" y="-124.8" font-family="Times,serif" font-size="14.00">gini = 0.788</text>
<text text-anchor="middle" x="2324" y="-109.8" font-family="Times,serif" font-size="14.00">samples = 470</text>
<text text-anchor="middle" x="2324" y="-94.8" font-family="Times,serif" font-size="14.00">value = [76, 68, 0, 76, 48, 164, 38]</text>
<text text-anchor="middle" x="2324" y="-79.8" font-family="Times,serif" font-size="14.00">class = rkusd</text>
</g>
<!-- 632&#45;&gt;633 -->
<g id="edge25" class="edge">
<title>632&#45;&gt;633</title>
<path fill="none" stroke="black" d="M2324,-190.91C2324,-182.65 2324,-173.86 2324,-165.3"/>
<polygon fill="black" stroke="black" points="2327.5,-165.02 2324,-155.02 2320.5,-165.02 2327.5,-165.02"/>
</g>
<!-- 662 -->
<g id="node29" class="node">
<title>662</title>
<polygon fill="#feffff" stroke="black" points="2804.5,-155 2475.5,-155 2475.5,-72 2804.5,-72 2804.5,-155"/>
<text text-anchor="middle" x="2640" y="-139.8" font-family="Times,serif" font-size="14.00">nbproc &lt;= 4.5</text>
<text text-anchor="middle" x="2640" y="-124.8" font-family="Times,serif" font-size="14.00">gini = 0.826</text>
<text text-anchor="middle" x="2640" y="-109.8" font-family="Times,serif" font-size="14.00">samples = 2126</text>
<text text-anchor="middle" x="2640" y="-94.8" font-family="Times,serif" font-size="14.00">value = [286, 236, 108, 514, 508, 218, 256]</text>
<text text-anchor="middle" x="2640" y="-79.8" font-family="Times,serif" font-size="14.00">class = rkd</text>
</g>
<!-- 632&#45;&gt;662 -->
<g id="edge28" class="edge">
<title>632&#45;&gt;662</title>
<path fill="none" stroke="black" d="M2433.63,-190.91C2461.82,-180.47 2492.28,-169.19 2520.92,-158.59"/>
<polygon fill="black" stroke="black" points="2522.4,-161.78 2530.56,-155.02 2519.97,-155.21 2522.4,-161.78"/>
</g>
<!-- 634 -->
<g id="node27" class="node">
<title>634</title>
<polygon fill="#c0c0c0" stroke="black" points="2315,-36 2261,-36 2261,0 2315,0 2315,-36"/>
<text text-anchor="middle" x="2288" y="-14.3" font-family="Times,serif" font-size="14.00">(...)</text>
</g>
<!-- 633&#45;&gt;634 -->
<g id="edge26" class="edge">
<title>633&#45;&gt;634</title>
<path fill="none" stroke="black" d="M2308.31,-71.76C2304.96,-63.04 2301.49,-54.04 2298.39,-45.99"/>
<polygon fill="black" stroke="black" points="2301.56,-44.48 2294.7,-36.41 2295.03,-46.99 2301.56,-44.48"/>
</g>
<!-- 641 -->
<g id="node28" class="node">
<title>641</title>
<polygon fill="#c0c0c0" stroke="black" points="2387,-36 2333,-36 2333,0 2387,0 2387,-36"/>
<text text-anchor="middle" x="2360" y="-14.3" font-family="Times,serif" font-size="14.00">(...)</text>
</g>
<!-- 633&#45;&gt;641 -->
<g id="edge27" class="edge">
<title>633&#45;&gt;641</title>
<path fill="none" stroke="black" d="M2339.69,-71.76C2343.04,-63.04 2346.51,-54.04 2349.61,-45.99"/>
<polygon fill="black" stroke="black" points="2352.97,-46.99 2353.3,-36.41 2346.44,-44.48 2352.97,-46.99"/>
</g>
<!-- 663 -->
<g id="node30" class="node">
<title>663</title>
<polygon fill="#c0c0c0" stroke="black" points="2631,-36 2577,-36 2577,0 2631,0 2631,-36"/>
<text text-anchor="middle" x="2604" y="-14.3" font-family="Times,serif" font-size="14.00">(...)</text>
</g>
<!-- 662&#45;&gt;663 -->
<g id="edge29" class="edge">
<title>662&#45;&gt;663</title>
<path fill="none" stroke="black" d="M2624.31,-71.76C2620.96,-63.04 2617.49,-54.04 2614.39,-45.99"/>
<polygon fill="black" stroke="black" points="2617.56,-44.48 2610.7,-36.41 2611.03,-46.99 2617.56,-44.48"/>
</g>
<!-- 718 -->
<g id="node31" class="node">
<title>718</title>
<polygon fill="#c0c0c0" stroke="black" points="2703,-36 2649,-36 2649,0 2703,0 2703,-36"/>
<text text-anchor="middle" x="2676" y="-14.3" font-family="Times,serif" font-size="14.00">(...)</text>
</g>
<!-- 662&#45;&gt;718 -->
<g id="edge30" class="edge">
<title>662&#45;&gt;718</title>
<path fill="none" stroke="black" d="M2655.69,-71.76C2659.04,-63.04 2662.51,-54.04 2665.61,-45.99"/>
<polygon fill="black" stroke="black" points="2668.97,-46.99 2669.3,-36.41 2662.44,-44.48 2668.97,-46.99"/>
</g>
</g>
</svg>
