<?xml version="1.0" encoding="UTF-8" standalone="no"?>
<!DOCTYPE svg PUBLIC "-//W3C//DTD SVG 1.1//EN"
 "http://www.w3.org/Graphics/SVG/1.1/DTD/svg11.dtd">
<!-- Generated by graphviz version 2.43.0 (0)
 -->
<!-- Title: Tree Pages: 1 -->
<svg width="2586pt" height="520pt"
 viewBox="0.00 0.00 2586.00 520.00" xmlns="http://www.w3.org/2000/svg" xmlns:xlink="http://www.w3.org/1999/xlink">
<g id="graph0" class="graph" transform="scale(1 1) rotate(0) translate(4 516)">
<title>Tree</title>
<polygon fill="white" stroke="transparent" points="-4,4 -4,-516 2582,-516 2582,4 -4,4"/>
<!-- 0 -->
<g id="node1" class="node">
<title>0</title>
<polygon fill="#ffffff" stroke="black" points="1523,-512 1176,-512 1176,-429 1523,-429 1523,-512"/>
<text text-anchor="middle" x="1349.5" y="-496.8" font-family="Times,serif" font-size="14.00">graphDepth &lt;= 3.5</text>
<text text-anchor="middle" x="1349.5" y="-481.8" font-family="Times,serif" font-size="14.00">gini = 0.833</text>
<text text-anchor="middle" x="1349.5" y="-466.8" font-family="Times,serif" font-size="14.00">samples = 48239</text>
<text text-anchor="middle" x="1349.5" y="-451.8" font-family="Times,serif" font-size="14.00">value = [7962, 8005, 8056, 8080, 8080, 8056]</text>
<text text-anchor="middle" x="1349.5" y="-436.8" font-family="Times,serif" font-size="14.00">class = minmax</text>
</g>
<!-- 1 -->
<g id="node2" class="node">
<title>1</title>
<polygon fill="#ffffff" stroke="black" points="1043.5,-393 705.5,-393 705.5,-310 1043.5,-310 1043.5,-393"/>
<text text-anchor="middle" x="874.5" y="-377.8" font-family="Times,serif" font-size="14.00">sdComm &lt;= 0.02</text>
<text text-anchor="middle" x="874.5" y="-362.8" font-family="Times,serif" font-size="14.00">gini = 0.83</text>
<text text-anchor="middle" x="874.5" y="-347.8" font-family="Times,serif" font-size="14.00">samples = 7186</text>
<text text-anchor="middle" x="874.5" y="-332.8" font-family="Times,serif" font-size="14.00">value = [996, 1098, 1118, 1428, 1428, 1118]</text>
<text text-anchor="middle" x="874.5" y="-317.8" font-family="Times,serif" font-size="14.00">class = minmax</text>
</g>
<!-- 0&#45;&gt;1 -->
<g id="edge1" class="edge">
<title>0&#45;&gt;1</title>
<path fill="none" stroke="black" d="M1185.03,-428.99C1141.08,-418.16 1093.43,-406.43 1048.96,-395.47"/>
<polygon fill="black" stroke="black" points="1049.77,-392.07 1039.23,-393.07 1048.1,-398.86 1049.77,-392.07"/>
<text text-anchor="middle" x="1052.16" y="-410.77" font-family="Times,serif" font-size="14.00">True</text>
</g>
<!-- 104 -->
<g id="node17" class="node">
<title>104</title>
<polygon fill="#ffffff" stroke="black" points="1686,-393 1339,-393 1339,-310 1686,-310 1686,-393"/>
<text text-anchor="middle" x="1512.5" y="-377.8" font-family="Times,serif" font-size="14.00">nbproc &lt;= 4.5</text>
<text text-anchor="middle" x="1512.5" y="-362.8" font-family="Times,serif" font-size="14.00">gini = 0.833</text>
<text text-anchor="middle" x="1512.5" y="-347.8" font-family="Times,serif" font-size="14.00">samples = 41053</text>
<text text-anchor="middle" x="1512.5" y="-332.8" font-family="Times,serif" font-size="14.00">value = [6966, 6907, 6938, 6652, 6652, 6938]</text>
<text text-anchor="middle" x="1512.5" y="-317.8" font-family="Times,serif" font-size="14.00">class = mean</text>
</g>
<!-- 0&#45;&gt;104 -->
<g id="edge16" class="edge">
<title>0&#45;&gt;104</title>
<path fill="none" stroke="black" d="M1406.05,-428.91C1419.45,-419.29 1433.85,-408.95 1447.59,-399.09"/>
<polygon fill="black" stroke="black" points="1449.97,-401.7 1456.05,-393.02 1445.88,-396.01 1449.97,-401.7"/>
<text text-anchor="middle" x="1452" y="-413.99" font-family="Times,serif" font-size="14.00">False</text>
</g>
<!-- 2 -->
<g id="node3" class="node">
<title>2</title>
<polygon fill="#ffffff" stroke="black" points="550,-274 257,-274 257,-191 550,-191 550,-274"/>
<text text-anchor="middle" x="403.5" y="-258.8" font-family="Times,serif" font-size="14.00">nbproc &lt;= 4.5</text>
<text text-anchor="middle" x="403.5" y="-243.8" font-family="Times,serif" font-size="14.00">gini = 0.83</text>
<text text-anchor="middle" x="403.5" y="-228.8" font-family="Times,serif" font-size="14.00">samples = 1156</text>
<text text-anchor="middle" x="403.5" y="-213.8" font-family="Times,serif" font-size="14.00">value = [168, 152, 226, 192, 192, 226]</text>
<text text-anchor="middle" x="403.5" y="-198.8" font-family="Times,serif" font-size="14.00">class = maxmax</text>
</g>
<!-- 1&#45;&gt;2 -->
<g id="edge2" class="edge">
<title>1&#45;&gt;2</title>
<path fill="none" stroke="black" d="M711.42,-309.99C662.43,-297.82 608.81,-284.5 560.25,-272.44"/>
<polygon fill="black" stroke="black" points="560.83,-268.98 550.28,-269.96 559.14,-275.77 560.83,-268.98"/>
</g>
<!-- 13 -->
<g id="node10" class="node">
<title>13</title>
<polygon fill="#ffffff" stroke="black" points="1030,-274 719,-274 719,-191 1030,-191 1030,-274"/>
<text text-anchor="middle" x="874.5" y="-258.8" font-family="Times,serif" font-size="14.00">sdComm &lt;= 0.65</text>
<text text-anchor="middle" x="874.5" y="-243.8" font-family="Times,serif" font-size="14.00">gini = 0.829</text>
<text text-anchor="middle" x="874.5" y="-228.8" font-family="Times,serif" font-size="14.00">samples = 6030</text>
<text text-anchor="middle" x="874.5" y="-213.8" font-family="Times,serif" font-size="14.00">value = [828, 946, 892, 1236, 1236, 892]</text>
<text text-anchor="middle" x="874.5" y="-198.8" font-family="Times,serif" font-size="14.00">class = minmax</text>
</g>
<!-- 1&#45;&gt;13 -->
<g id="edge9" class="edge">
<title>1&#45;&gt;13</title>
<path fill="none" stroke="black" d="M874.5,-309.91C874.5,-301.65 874.5,-292.86 874.5,-284.3"/>
<polygon fill="black" stroke="black" points="878,-284.02 874.5,-274.02 871,-284.02 878,-284.02"/>
</g>
<!-- 3 -->
<g id="node4" class="node">
<title>3</title>
<polygon fill="#fefffd" stroke="black" points="239,-155 0,-155 0,-72 239,-72 239,-155"/>
<text text-anchor="middle" x="119.5" y="-139.8" font-family="Times,serif" font-size="14.00">sdComp &lt;= 0.02</text>
<text text-anchor="middle" x="119.5" y="-124.8" font-family="Times,serif" font-size="14.00">gini = 0.831</text>
<text text-anchor="middle" x="119.5" y="-109.8" font-family="Times,serif" font-size="14.00">samples = 230</text>
<text text-anchor="middle" x="119.5" y="-94.8" font-family="Times,serif" font-size="14.00">value = [42, 44, 32, 40, 40, 32]</text>
<text text-anchor="middle" x="119.5" y="-79.8" font-family="Times,serif" font-size="14.00">class = median</text>
</g>
<!-- 2&#45;&gt;3 -->
<g id="edge3" class="edge">
<title>2&#45;&gt;3</title>
<path fill="none" stroke="black" d="M304.97,-190.91C279.86,-180.56 252.74,-169.39 227.19,-158.87"/>
<polygon fill="black" stroke="black" points="228.44,-155.59 217.86,-155.02 225.77,-162.07 228.44,-155.59"/>
</g>
<!-- 8 -->
<g id="node7" class="node">
<title>8</title>
<polygon fill="#ffffff" stroke="black" points="550,-155 257,-155 257,-72 550,-72 550,-155"/>
<text text-anchor="middle" x="403.5" y="-139.8" font-family="Times,serif" font-size="14.00">sdComp &lt;= 0.02</text>
<text text-anchor="middle" x="403.5" y="-124.8" font-family="Times,serif" font-size="14.00">gini = 0.826</text>
<text text-anchor="middle" x="403.5" y="-109.8" font-family="Times,serif" font-size="14.00">samples = 926</text>
<text text-anchor="middle" x="403.5" y="-94.8" font-family="Times,serif" font-size="14.00">value = [126, 108, 194, 152, 152, 194]</text>
<text text-anchor="middle" x="403.5" y="-79.8" font-family="Times,serif" font-size="14.00">class = maxmax</text>
</g>
<!-- 2&#45;&gt;8 -->
<g id="edge6" class="edge">
<title>2&#45;&gt;8</title>
<path fill="none" stroke="black" d="M403.5,-190.91C403.5,-182.65 403.5,-173.86 403.5,-165.3"/>
<polygon fill="black" stroke="black" points="407,-165.02 403.5,-155.02 400,-165.02 407,-165.02"/>
</g>
<!-- 4 -->
<g id="node5" class="node">
<title>4</title>
<polygon fill="#c0c0c0" stroke="black" points="110.5,-36 56.5,-36 56.5,0 110.5,0 110.5,-36"/>
<text text-anchor="middle" x="83.5" y="-14.3" font-family="Times,serif" font-size="14.00">(...)</text>
</g>
<!-- 3&#45;&gt;4 -->
<g id="edge4" class="edge">
<title>3&#45;&gt;4</title>
<path fill="none" stroke="black" d="M103.81,-71.76C100.46,-63.04 96.99,-54.04 93.89,-45.99"/>
<polygon fill="black" stroke="black" points="97.06,-44.48 90.2,-36.41 90.53,-46.99 97.06,-44.48"/>
</g>
<!-- 5 -->
<g id="node6" class="node">
<title>5</title>
<polygon fill="#c0c0c0" stroke="black" points="182.5,-36 128.5,-36 128.5,0 182.5,0 182.5,-36"/>
<text text-anchor="middle" x="155.5" y="-14.3" font-family="Times,serif" font-size="14.00">(...)</text>
</g>
<!-- 3&#45;&gt;5 -->
<g id="edge5" class="edge">
<title>3&#45;&gt;5</title>
<path fill="none" stroke="black" d="M135.19,-71.76C138.54,-63.04 142.01,-54.04 145.11,-45.99"/>
<polygon fill="black" stroke="black" points="148.47,-46.99 148.8,-36.41 141.94,-44.48 148.47,-46.99"/>
</g>
<!-- 9 -->
<g id="node8" class="node">
<title>9</title>
<polygon fill="#c0c0c0" stroke="black" points="394.5,-36 340.5,-36 340.5,0 394.5,0 394.5,-36"/>
<text text-anchor="middle" x="367.5" y="-14.3" font-family="Times,serif" font-size="14.00">(...)</text>
</g>
<!-- 8&#45;&gt;9 -->
<g id="edge7" class="edge">
<title>8&#45;&gt;9</title>
<path fill="none" stroke="black" d="M387.81,-71.76C384.46,-63.04 380.99,-54.04 377.89,-45.99"/>
<polygon fill="black" stroke="black" points="381.06,-44.48 374.2,-36.41 374.53,-46.99 381.06,-44.48"/>
</g>
<!-- 10 -->
<g id="node9" class="node">
<title>10</title>
<polygon fill="#c0c0c0" stroke="black" points="466.5,-36 412.5,-36 412.5,0 466.5,0 466.5,-36"/>
<text text-anchor="middle" x="439.5" y="-14.3" font-family="Times,serif" font-size="14.00">(...)</text>
</g>
<!-- 8&#45;&gt;10 -->
<g id="edge8" class="edge">
<title>8&#45;&gt;10</title>
<path fill="none" stroke="black" d="M419.19,-71.76C422.54,-63.04 426.01,-54.04 429.11,-45.99"/>
<polygon fill="black" stroke="black" points="432.47,-46.99 432.8,-36.41 425.94,-44.48 432.47,-46.99"/>
</g>
<!-- 14 -->
<g id="node11" class="node">
<title>14</title>
<polygon fill="#ffffff" stroke="black" points="861,-155 568,-155 568,-72 861,-72 861,-155"/>
<text text-anchor="middle" x="714.5" y="-139.8" font-family="Times,serif" font-size="14.00">sdComm &lt;= 0.2</text>
<text text-anchor="middle" x="714.5" y="-124.8" font-family="Times,serif" font-size="14.00">gini = 0.825</text>
<text text-anchor="middle" x="714.5" y="-109.8" font-family="Times,serif" font-size="14.00">samples = 4104</text>
<text text-anchor="middle" x="714.5" y="-94.8" font-family="Times,serif" font-size="14.00">value = [544, 656, 558, 894, 894, 558]</text>
<text text-anchor="middle" x="714.5" y="-79.8" font-family="Times,serif" font-size="14.00">class = minmax</text>
</g>
<!-- 13&#45;&gt;14 -->
<g id="edge10" class="edge">
<title>13&#45;&gt;14</title>
<path fill="none" stroke="black" d="M818.99,-190.91C805.83,-181.29 791.7,-170.95 778.21,-161.09"/>
<polygon fill="black" stroke="black" points="780.05,-158.1 769.91,-155.02 775.92,-163.75 780.05,-158.1"/>
</g>
<!-- 61 -->
<g id="node14" class="node">
<title>61</title>
<polygon fill="#ffffff" stroke="black" points="1172,-155 879,-155 879,-72 1172,-72 1172,-155"/>
<text text-anchor="middle" x="1025.5" y="-139.8" font-family="Times,serif" font-size="14.00">sdComp &lt;= 6.5</text>
<text text-anchor="middle" x="1025.5" y="-124.8" font-family="Times,serif" font-size="14.00">gini = 0.832</text>
<text text-anchor="middle" x="1025.5" y="-109.8" font-family="Times,serif" font-size="14.00">samples = 1926</text>
<text text-anchor="middle" x="1025.5" y="-94.8" font-family="Times,serif" font-size="14.00">value = [284, 290, 334, 342, 342, 334]</text>
<text text-anchor="middle" x="1025.5" y="-79.8" font-family="Times,serif" font-size="14.00">class = minmax</text>
</g>
<!-- 13&#45;&gt;61 -->
<g id="edge13" class="edge">
<title>13&#45;&gt;61</title>
<path fill="none" stroke="black" d="M926.89,-190.91C939.19,-181.38 952.39,-171.15 965.01,-161.37"/>
<polygon fill="black" stroke="black" points="967.44,-163.91 973.2,-155.02 963.16,-158.38 967.44,-163.91"/>
</g>
<!-- 15 -->
<g id="node12" class="node">
<title>15</title>
<polygon fill="#c0c0c0" stroke="black" points="705.5,-36 651.5,-36 651.5,0 705.5,0 705.5,-36"/>
<text text-anchor="middle" x="678.5" y="-14.3" font-family="Times,serif" font-size="14.00">(...)</text>
</g>
<!-- 14&#45;&gt;15 -->
<g id="edge11" class="edge">
<title>14&#45;&gt;15</title>
<path fill="none" stroke="black" d="M698.81,-71.76C695.46,-63.04 691.99,-54.04 688.89,-45.99"/>
<polygon fill="black" stroke="black" points="692.06,-44.48 685.2,-36.41 685.53,-46.99 692.06,-44.48"/>
</g>
<!-- 50 -->
<g id="node13" class="node">
<title>50</title>
<polygon fill="#c0c0c0" stroke="black" points="777.5,-36 723.5,-36 723.5,0 777.5,0 777.5,-36"/>
<text text-anchor="middle" x="750.5" y="-14.3" font-family="Times,serif" font-size="14.00">(...)</text>
</g>
<!-- 14&#45;&gt;50 -->
<g id="edge12" class="edge">
<title>14&#45;&gt;50</title>
<path fill="none" stroke="black" d="M730.19,-71.76C733.54,-63.04 737.01,-54.04 740.11,-45.99"/>
<polygon fill="black" stroke="black" points="743.47,-46.99 743.8,-36.41 736.94,-44.48 743.47,-46.99"/>
</g>
<!-- 62 -->
<g id="node15" class="node">
<title>62</title>
<polygon fill="#c0c0c0" stroke="black" points="1016.5,-36 962.5,-36 962.5,0 1016.5,0 1016.5,-36"/>
<text text-anchor="middle" x="989.5" y="-14.3" font-family="Times,serif" font-size="14.00">(...)</text>
</g>
<!-- 61&#45;&gt;62 -->
<g id="edge14" class="edge">
<title>61&#45;&gt;62</title>
<path fill="none" stroke="black" d="M1009.81,-71.76C1006.46,-63.04 1002.99,-54.04 999.89,-45.99"/>
<polygon fill="black" stroke="black" points="1003.06,-44.48 996.2,-36.41 996.53,-46.99 1003.06,-44.48"/>
</g>
<!-- 93 -->
<g id="node16" class="node">
<title>93</title>
<polygon fill="#c0c0c0" stroke="black" points="1088.5,-36 1034.5,-36 1034.5,0 1088.5,0 1088.5,-36"/>
<text text-anchor="middle" x="1061.5" y="-14.3" font-family="Times,serif" font-size="14.00">(...)</text>
</g>
<!-- 61&#45;&gt;93 -->
<g id="edge15" class="edge">
<title>61&#45;&gt;93</title>
<path fill="none" stroke="black" d="M1041.19,-71.76C1044.54,-63.04 1048.01,-54.04 1051.11,-45.99"/>
<polygon fill="black" stroke="black" points="1054.47,-46.99 1054.8,-36.41 1047.94,-44.48 1054.47,-46.99"/>
</g>
<!-- 105 -->
<g id="node18" class="node">
<title>105</title>
<polygon fill="#fefffe" stroke="black" points="1686,-274 1339,-274 1339,-191 1686,-191 1686,-274"/>
<text text-anchor="middle" x="1512.5" y="-258.8" font-family="Times,serif" font-size="14.00">sdComp &lt;= 0.02</text>
<text text-anchor="middle" x="1512.5" y="-243.8" font-family="Times,serif" font-size="14.00">gini = 0.833</text>
<text text-anchor="middle" x="1512.5" y="-228.8" font-family="Times,serif" font-size="14.00">samples = 15853</text>
<text text-anchor="middle" x="1512.5" y="-213.8" font-family="Times,serif" font-size="14.00">value = [2662, 2759, 2578, 2638, 2638, 2578]</text>
<text text-anchor="middle" x="1512.5" y="-198.8" font-family="Times,serif" font-size="14.00">class = median</text>
</g>
<!-- 104&#45;&gt;105 -->
<g id="edge17" class="edge">
<title>104&#45;&gt;105</title>
<path fill="none" stroke="black" d="M1512.5,-309.91C1512.5,-301.65 1512.5,-292.86 1512.5,-284.3"/>
<polygon fill="black" stroke="black" points="1516,-284.02 1512.5,-274.02 1509,-284.02 1516,-284.02"/>
</g>
<!-- 442 -->
<g id="node25" class="node">
<title>442</title>
<polygon fill="#ffffff" stroke="black" points="2213,-274 1866,-274 1866,-191 2213,-191 2213,-274"/>
<text text-anchor="middle" x="2039.5" y="-258.8" font-family="Times,serif" font-size="14.00">sdComm &lt;= 0.2</text>
<text text-anchor="middle" x="2039.5" y="-243.8" font-family="Times,serif" font-size="14.00">gini = 0.833</text>
<text text-anchor="middle" x="2039.5" y="-228.8" font-family="Times,serif" font-size="14.00">samples = 25200</text>
<text text-anchor="middle" x="2039.5" y="-213.8" font-family="Times,serif" font-size="14.00">value = [4304, 4148, 4360, 4014, 4014, 4360]</text>
<text text-anchor="middle" x="2039.5" y="-198.8" font-family="Times,serif" font-size="14.00">class = maxmax</text>
</g>
<!-- 104&#45;&gt;442 -->
<g id="edge24" class="edge">
<title>104&#45;&gt;442</title>
<path fill="none" stroke="black" d="M1686.15,-311.95C1740.62,-299.86 1800.9,-286.47 1856.01,-274.24"/>
<polygon fill="black" stroke="black" points="1856.88,-277.63 1865.88,-272.04 1855.36,-270.8 1856.88,-277.63"/>
</g>
<!-- 106 -->
<g id="node19" class="node">
<title>106</title>
<polygon fill="#ffffff" stroke="black" points="1483,-155 1190,-155 1190,-72 1483,-72 1483,-155"/>
<text text-anchor="middle" x="1336.5" y="-139.8" font-family="Times,serif" font-size="14.00">graphSize &lt;= 22.5</text>
<text text-anchor="middle" x="1336.5" y="-124.8" font-family="Times,serif" font-size="14.00">gini = 0.832</text>
<text text-anchor="middle" x="1336.5" y="-109.8" font-family="Times,serif" font-size="14.00">samples = 1886</text>
<text text-anchor="middle" x="1336.5" y="-94.8" font-family="Times,serif" font-size="14.00">value = [254, 312, 338, 322, 322, 338]</text>
<text text-anchor="middle" x="1336.5" y="-79.8" font-family="Times,serif" font-size="14.00">class = maxmax</text>
</g>
<!-- 105&#45;&gt;106 -->
<g id="edge18" class="edge">
<title>105&#45;&gt;106</title>
<path fill="none" stroke="black" d="M1451.44,-190.91C1436.83,-181.2 1421.13,-170.76 1406.16,-160.81"/>
<polygon fill="black" stroke="black" points="1407.72,-157.64 1397.45,-155.02 1403.84,-163.47 1407.72,-157.64"/>
</g>
<!-- 147 -->
<g id="node22" class="node">
<title>147</title>
<polygon fill="#fffffe" stroke="black" points="1848,-155 1501,-155 1501,-72 1848,-72 1848,-155"/>
<text text-anchor="middle" x="1674.5" y="-139.8" font-family="Times,serif" font-size="14.00">graphSize &lt;= 40.0</text>
<text text-anchor="middle" x="1674.5" y="-124.8" font-family="Times,serif" font-size="14.00">gini = 0.833</text>
<text text-anchor="middle" x="1674.5" y="-109.8" font-family="Times,serif" font-size="14.00">samples = 13967</text>
<text text-anchor="middle" x="1674.5" y="-94.8" font-family="Times,serif" font-size="14.00">value = [2408, 2447, 2240, 2316, 2316, 2240]</text>
<text text-anchor="middle" x="1674.5" y="-79.8" font-family="Times,serif" font-size="14.00">class = median</text>
</g>
<!-- 105&#45;&gt;147 -->
<g id="edge21" class="edge">
<title>105&#45;&gt;147</title>
<path fill="none" stroke="black" d="M1568.71,-190.91C1582.02,-181.29 1596.33,-170.95 1609.99,-161.09"/>
<polygon fill="black" stroke="black" points="1612.34,-163.71 1618.39,-155.02 1608.24,-158.04 1612.34,-163.71"/>
</g>
<!-- 107 -->
<g id="node20" class="node">
<title>107</title>
<polygon fill="#c0c0c0" stroke="black" points="1327.5,-36 1273.5,-36 1273.5,0 1327.5,0 1327.5,-36"/>
<text text-anchor="middle" x="1300.5" y="-14.3" font-family="Times,serif" font-size="14.00">(...)</text>
</g>
<!-- 106&#45;&gt;107 -->
<g id="edge19" class="edge">
<title>106&#45;&gt;107</title>
<path fill="none" stroke="black" d="M1320.81,-71.76C1317.46,-63.04 1313.99,-54.04 1310.89,-45.99"/>
<polygon fill="black" stroke="black" points="1314.06,-44.48 1307.2,-36.41 1307.53,-46.99 1314.06,-44.48"/>
</g>
<!-- 112 -->
<g id="node21" class="node">
<title>112</title>
<polygon fill="#c0c0c0" stroke="black" points="1399.5,-36 1345.5,-36 1345.5,0 1399.5,0 1399.5,-36"/>
<text text-anchor="middle" x="1372.5" y="-14.3" font-family="Times,serif" font-size="14.00">(...)</text>
</g>
<!-- 106&#45;&gt;112 -->
<g id="edge20" class="edge">
<title>106&#45;&gt;112</title>
<path fill="none" stroke="black" d="M1352.19,-71.76C1355.54,-63.04 1359.01,-54.04 1362.11,-45.99"/>
<polygon fill="black" stroke="black" points="1365.47,-46.99 1365.8,-36.41 1358.94,-44.48 1365.47,-46.99"/>
</g>
<!-- 148 -->
<g id="node23" class="node">
<title>148</title>
<polygon fill="#c0c0c0" stroke="black" points="1665.5,-36 1611.5,-36 1611.5,0 1665.5,0 1665.5,-36"/>
<text text-anchor="middle" x="1638.5" y="-14.3" font-family="Times,serif" font-size="14.00">(...)</text>
</g>
<!-- 147&#45;&gt;148 -->
<g id="edge22" class="edge">
<title>147&#45;&gt;148</title>
<path fill="none" stroke="black" d="M1658.81,-71.76C1655.46,-63.04 1651.99,-54.04 1648.89,-45.99"/>
<polygon fill="black" stroke="black" points="1652.06,-44.48 1645.2,-36.41 1645.53,-46.99 1652.06,-44.48"/>
</g>
<!-- 277 -->
<g id="node24" class="node">
<title>277</title>
<polygon fill="#c0c0c0" stroke="black" points="1737.5,-36 1683.5,-36 1683.5,0 1737.5,0 1737.5,-36"/>
<text text-anchor="middle" x="1710.5" y="-14.3" font-family="Times,serif" font-size="14.00">(...)</text>
</g>
<!-- 147&#45;&gt;277 -->
<g id="edge23" class="edge">
<title>147&#45;&gt;277</title>
<path fill="none" stroke="black" d="M1690.19,-71.76C1693.54,-63.04 1697.01,-54.04 1700.11,-45.99"/>
<polygon fill="black" stroke="black" points="1703.47,-46.99 1703.8,-36.41 1696.94,-44.48 1703.47,-46.99"/>
</g>
<!-- 443 -->
<g id="node26" class="node">
<title>443</title>
<polygon fill="#ffffff" stroke="black" points="2213,-155 1866,-155 1866,-72 2213,-72 2213,-155"/>
<text text-anchor="middle" x="2039.5" y="-139.8" font-family="Times,serif" font-size="14.00">sdComp &lt;= 0.65</text>
<text text-anchor="middle" x="2039.5" y="-124.8" font-family="Times,serif" font-size="14.00">gini = 0.833</text>
<text text-anchor="middle" x="2039.5" y="-109.8" font-family="Times,serif" font-size="14.00">samples = 16838</text>
<text text-anchor="middle" x="2039.5" y="-94.8" font-family="Times,serif" font-size="14.00">value = [2940, 2766, 2942, 2624, 2624, 2942]</text>
<text text-anchor="middle" x="2039.5" y="-79.8" font-family="Times,serif" font-size="14.00">class = maxmax</text>
</g>
<!-- 442&#45;&gt;443 -->
<g id="edge25" class="edge">
<title>442&#45;&gt;443</title>
<path fill="none" stroke="black" d="M2039.5,-190.91C2039.5,-182.65 2039.5,-173.86 2039.5,-165.3"/>
<polygon fill="black" stroke="black" points="2043,-165.02 2039.5,-155.02 2036,-165.02 2043,-165.02"/>
</g>
<!-- 610 -->
<g id="node29" class="node">
<title>610</title>
<polygon fill="#ffffff" stroke="black" points="2578,-155 2231,-155 2231,-72 2578,-72 2578,-155"/>
<text text-anchor="middle" x="2404.5" y="-139.8" font-family="Times,serif" font-size="14.00">graphSize &lt;= 40.0</text>
<text text-anchor="middle" x="2404.5" y="-124.8" font-family="Times,serif" font-size="14.00">gini = 0.833</text>
<text text-anchor="middle" x="2404.5" y="-109.8" font-family="Times,serif" font-size="14.00">samples = 8362</text>
<text text-anchor="middle" x="2404.5" y="-94.8" font-family="Times,serif" font-size="14.00">value = [1364, 1382, 1418, 1390, 1390, 1418]</text>
<text text-anchor="middle" x="2404.5" y="-79.8" font-family="Times,serif" font-size="14.00">class = maxmax</text>
</g>
<!-- 442&#45;&gt;610 -->
<g id="edge28" class="edge">
<title>442&#45;&gt;610</title>
<path fill="none" stroke="black" d="M2165.88,-190.99C2198.87,-180.41 2234.58,-168.97 2268.07,-158.23"/>
<polygon fill="black" stroke="black" points="2269.47,-161.46 2277.92,-155.07 2267.33,-154.79 2269.47,-161.46"/>
</g>
<!-- 444 -->
<g id="node27" class="node">
<title>444</title>
<polygon fill="#c0c0c0" stroke="black" points="2030.5,-36 1976.5,-36 1976.5,0 2030.5,0 2030.5,-36"/>
<text text-anchor="middle" x="2003.5" y="-14.3" font-family="Times,serif" font-size="14.00">(...)</text>
</g>
<!-- 443&#45;&gt;444 -->
<g id="edge26" class="edge">
<title>443&#45;&gt;444</title>
<path fill="none" stroke="black" d="M2023.81,-71.76C2020.46,-63.04 2016.99,-54.04 2013.89,-45.99"/>
<polygon fill="black" stroke="black" points="2017.06,-44.48 2010.2,-36.41 2010.53,-46.99 2017.06,-44.48"/>
</g>
<!-- 597 -->
<g id="node28" class="node">
<title>597</title>
<polygon fill="#c0c0c0" stroke="black" points="2102.5,-36 2048.5,-36 2048.5,0 2102.5,0 2102.5,-36"/>
<text text-anchor="middle" x="2075.5" y="-14.3" font-family="Times,serif" font-size="14.00">(...)</text>
</g>
<!-- 443&#45;&gt;597 -->
<g id="edge27" class="edge">
<title>443&#45;&gt;597</title>
<path fill="none" stroke="black" d="M2055.19,-71.76C2058.54,-63.04 2062.01,-54.04 2065.11,-45.99"/>
<polygon fill="black" stroke="black" points="2068.47,-46.99 2068.8,-36.41 2061.94,-44.48 2068.47,-46.99"/>
</g>
<!-- 611 -->
<g id="node30" class="node">
<title>611</title>
<polygon fill="#c0c0c0" stroke="black" points="2395.5,-36 2341.5,-36 2341.5,0 2395.5,0 2395.5,-36"/>
<text text-anchor="middle" x="2368.5" y="-14.3" font-family="Times,serif" font-size="14.00">(...)</text>
</g>
<!-- 610&#45;&gt;611 -->
<g id="edge29" class="edge">
<title>610&#45;&gt;611</title>
<path fill="none" stroke="black" d="M2388.81,-71.76C2385.46,-63.04 2381.99,-54.04 2378.89,-45.99"/>
<polygon fill="black" stroke="black" points="2382.06,-44.48 2375.2,-36.41 2375.53,-46.99 2382.06,-44.48"/>
</g>
<!-- 678 -->
<g id="node31" class="node">
<title>678</title>
<polygon fill="#c0c0c0" stroke="black" points="2467.5,-36 2413.5,-36 2413.5,0 2467.5,0 2467.5,-36"/>
<text text-anchor="middle" x="2440.5" y="-14.3" font-family="Times,serif" font-size="14.00">(...)</text>
</g>
<!-- 610&#45;&gt;678 -->
<g id="edge30" class="edge">
<title>610&#45;&gt;678</title>
<path fill="none" stroke="black" d="M2420.19,-71.76C2423.54,-63.04 2427.01,-54.04 2430.11,-45.99"/>
<polygon fill="black" stroke="black" points="2433.47,-46.99 2433.8,-36.41 2426.94,-44.48 2433.47,-46.99"/>
</g>
</g>
</svg>
