<?xml version="1.0" encoding="UTF-8" standalone="no"?>
<!DOCTYPE svg PUBLIC "-//W3C//DTD SVG 1.1//EN"
 "http://www.w3.org/Graphics/SVG/1.1/DTD/svg11.dtd">
<!-- Generated by graphviz version 2.43.0 (0)
 -->
<!-- Title: Tree Pages: 1 -->
<svg width="1470pt" height="520pt"
 viewBox="0.00 0.00 1470.00 520.00" xmlns="http://www.w3.org/2000/svg" xmlns:xlink="http://www.w3.org/1999/xlink">
<g id="graph0" class="graph" transform="scale(1 1) rotate(0) translate(4 516)">
<title>Tree</title>
<polygon fill="white" stroke="transparent" points="-4,4 -4,-516 1466,-516 1466,4 -4,4"/>
<!-- 0 -->
<g id="node1" class="node">
<title>0</title>
<polygon fill="#ffffff" stroke="black" points="836,-512 651,-512 651,-429 836,-429 836,-512"/>
<text text-anchor="middle" x="743.5" y="-496.8" font-family="Times,serif" font-size="14.00">sdComp &lt;= 0.65</text>
<text text-anchor="middle" x="743.5" y="-481.8" font-family="Times,serif" font-size="14.00">gini = 0.5</text>
<text text-anchor="middle" x="743.5" y="-466.8" font-family="Times,serif" font-size="14.00">samples = 48239</text>
<text text-anchor="middle" x="743.5" y="-451.8" font-family="Times,serif" font-size="14.00">value = [24119, 24120]</text>
<text text-anchor="middle" x="743.5" y="-436.8" font-family="Times,serif" font-size="14.00">class = True</text>
</g>
<!-- 1 -->
<g id="node2" class="node">
<title>1</title>
<polygon fill="#ffffff" stroke="black" points="647,-393 462,-393 462,-310 647,-310 647,-393"/>
<text text-anchor="middle" x="554.5" y="-377.8" font-family="Times,serif" font-size="14.00">sdComp &lt;= 0.02</text>
<text text-anchor="middle" x="554.5" y="-362.8" font-family="Times,serif" font-size="14.00">gini = 0.5</text>
<text text-anchor="middle" x="554.5" y="-347.8" font-family="Times,serif" font-size="14.00">samples = 37696</text>
<text text-anchor="middle" x="554.5" y="-332.8" font-family="Times,serif" font-size="14.00">value = [18848, 18848]</text>
<text text-anchor="middle" x="554.5" y="-317.8" font-family="Times,serif" font-size="14.00">class = False</text>
</g>
<!-- 0&#45;&gt;1 -->
<g id="edge1" class="edge">
<title>0&#45;&gt;1</title>
<path fill="none" stroke="black" d="M677.93,-428.91C662.09,-419.11 645.06,-408.56 628.86,-398.53"/>
<polygon fill="black" stroke="black" points="630.3,-395.31 619.96,-393.02 626.62,-401.26 630.3,-395.31"/>
<text text-anchor="middle" x="625.68" y="-413.66" font-family="Times,serif" font-size="14.00">True</text>
</g>
<!-- 480 -->
<g id="node17" class="node">
<title>480</title>
<polygon fill="#ffffff" stroke="black" points="1013,-393 846,-393 846,-310 1013,-310 1013,-393"/>
<text text-anchor="middle" x="929.5" y="-377.8" font-family="Times,serif" font-size="14.00">graphSize &lt;= 22.5</text>
<text text-anchor="middle" x="929.5" y="-362.8" font-family="Times,serif" font-size="14.00">gini = 0.5</text>
<text text-anchor="middle" x="929.5" y="-347.8" font-family="Times,serif" font-size="14.00">samples = 10543</text>
<text text-anchor="middle" x="929.5" y="-332.8" font-family="Times,serif" font-size="14.00">value = [5271, 5272]</text>
<text text-anchor="middle" x="929.5" y="-317.8" font-family="Times,serif" font-size="14.00">class = True</text>
</g>
<!-- 0&#45;&gt;480 -->
<g id="edge16" class="edge">
<title>0&#45;&gt;480</title>
<path fill="none" stroke="black" d="M808.03,-428.91C823.61,-419.11 840.37,-408.56 856.32,-398.53"/>
<polygon fill="black" stroke="black" points="858.48,-401.31 865.08,-393.02 854.75,-395.38 858.48,-401.31"/>
<text text-anchor="middle" x="859.53" y="-413.7" font-family="Times,serif" font-size="14.00">False</text>
</g>
<!-- 2 -->
<g id="node3" class="node">
<title>2</title>
<polygon fill="#ffffff" stroke="black" points="352,-274 185,-274 185,-191 352,-191 352,-274"/>
<text text-anchor="middle" x="268.5" y="-258.8" font-family="Times,serif" font-size="14.00">graphSize &lt;= 22.5</text>
<text text-anchor="middle" x="268.5" y="-243.8" font-family="Times,serif" font-size="14.00">gini = 0.5</text>
<text text-anchor="middle" x="268.5" y="-228.8" font-family="Times,serif" font-size="14.00">samples = 5164</text>
<text text-anchor="middle" x="268.5" y="-213.8" font-family="Times,serif" font-size="14.00">value = [2582, 2582]</text>
<text text-anchor="middle" x="268.5" y="-198.8" font-family="Times,serif" font-size="14.00">class = False</text>
</g>
<!-- 1&#45;&gt;2 -->
<g id="edge2" class="edge">
<title>1&#45;&gt;2</title>
<path fill="none" stroke="black" d="M461.64,-312.51C429.58,-299.4 393.66,-284.7 361.58,-271.58"/>
<polygon fill="black" stroke="black" points="362.78,-268.29 352.2,-267.74 360.13,-274.77 362.78,-268.29"/>
</g>
<!-- 97 -->
<g id="node10" class="node">
<title>97</title>
<polygon fill="#ffffff" stroke="black" points="647,-274 462,-274 462,-191 647,-191 647,-274"/>
<text text-anchor="middle" x="554.5" y="-258.8" font-family="Times,serif" font-size="14.00">graphDepth &lt;= 3.5</text>
<text text-anchor="middle" x="554.5" y="-243.8" font-family="Times,serif" font-size="14.00">gini = 0.5</text>
<text text-anchor="middle" x="554.5" y="-228.8" font-family="Times,serif" font-size="14.00">samples = 32532</text>
<text text-anchor="middle" x="554.5" y="-213.8" font-family="Times,serif" font-size="14.00">value = [16266, 16266]</text>
<text text-anchor="middle" x="554.5" y="-198.8" font-family="Times,serif" font-size="14.00">class = False</text>
</g>
<!-- 1&#45;&gt;97 -->
<g id="edge9" class="edge">
<title>1&#45;&gt;97</title>
<path fill="none" stroke="black" d="M554.5,-309.91C554.5,-301.65 554.5,-292.86 554.5,-284.3"/>
<polygon fill="black" stroke="black" points="558,-284.02 554.5,-274.02 551,-284.02 558,-284.02"/>
</g>
<!-- 3 -->
<g id="node4" class="node">
<title>3</title>
<polygon fill="#ffffff" stroke="black" points="167,-155 0,-155 0,-72 167,-72 167,-155"/>
<text text-anchor="middle" x="83.5" y="-139.8" font-family="Times,serif" font-size="14.00">sdComm &lt;= 0.02</text>
<text text-anchor="middle" x="83.5" y="-124.8" font-family="Times,serif" font-size="14.00">gini = 0.5</text>
<text text-anchor="middle" x="83.5" y="-109.8" font-family="Times,serif" font-size="14.00">samples = 2534</text>
<text text-anchor="middle" x="83.5" y="-94.8" font-family="Times,serif" font-size="14.00">value = [1267, 1267]</text>
<text text-anchor="middle" x="83.5" y="-79.8" font-family="Times,serif" font-size="14.00">class = False</text>
</g>
<!-- 2&#45;&gt;3 -->
<g id="edge3" class="edge">
<title>2&#45;&gt;3</title>
<path fill="none" stroke="black" d="M204.32,-190.91C188.82,-181.11 172.15,-170.56 156.29,-160.53"/>
<polygon fill="black" stroke="black" points="157.89,-157.41 147.57,-155.02 154.15,-163.32 157.89,-157.41"/>
</g>
<!-- 26 -->
<g id="node7" class="node">
<title>26</title>
<polygon fill="#ffffff" stroke="black" points="352,-155 185,-155 185,-72 352,-72 352,-155"/>
<text text-anchor="middle" x="268.5" y="-139.8" font-family="Times,serif" font-size="14.00">nbproc &lt;= 4.5</text>
<text text-anchor="middle" x="268.5" y="-124.8" font-family="Times,serif" font-size="14.00">gini = 0.5</text>
<text text-anchor="middle" x="268.5" y="-109.8" font-family="Times,serif" font-size="14.00">samples = 2630</text>
<text text-anchor="middle" x="268.5" y="-94.8" font-family="Times,serif" font-size="14.00">value = [1315, 1315]</text>
<text text-anchor="middle" x="268.5" y="-79.8" font-family="Times,serif" font-size="14.00">class = False</text>
</g>
<!-- 2&#45;&gt;26 -->
<g id="edge6" class="edge">
<title>2&#45;&gt;26</title>
<path fill="none" stroke="black" d="M268.5,-190.91C268.5,-182.65 268.5,-173.86 268.5,-165.3"/>
<polygon fill="black" stroke="black" points="272,-165.02 268.5,-155.02 265,-165.02 272,-165.02"/>
</g>
<!-- 4 -->
<g id="node5" class="node">
<title>4</title>
<polygon fill="#c0c0c0" stroke="black" points="74.5,-36 20.5,-36 20.5,0 74.5,0 74.5,-36"/>
<text text-anchor="middle" x="47.5" y="-14.3" font-family="Times,serif" font-size="14.00">(...)</text>
</g>
<!-- 3&#45;&gt;4 -->
<g id="edge4" class="edge">
<title>3&#45;&gt;4</title>
<path fill="none" stroke="black" d="M67.81,-71.76C64.46,-63.04 60.99,-54.04 57.89,-45.99"/>
<polygon fill="black" stroke="black" points="61.06,-44.48 54.2,-36.41 54.53,-46.99 61.06,-44.48"/>
</g>
<!-- 11 -->
<g id="node6" class="node">
<title>11</title>
<polygon fill="#c0c0c0" stroke="black" points="146.5,-36 92.5,-36 92.5,0 146.5,0 146.5,-36"/>
<text text-anchor="middle" x="119.5" y="-14.3" font-family="Times,serif" font-size="14.00">(...)</text>
</g>
<!-- 3&#45;&gt;11 -->
<g id="edge5" class="edge">
<title>3&#45;&gt;11</title>
<path fill="none" stroke="black" d="M99.19,-71.76C102.54,-63.04 106.01,-54.04 109.11,-45.99"/>
<polygon fill="black" stroke="black" points="112.47,-46.99 112.8,-36.41 105.94,-44.48 112.47,-46.99"/>
</g>
<!-- 27 -->
<g id="node8" class="node">
<title>27</title>
<polygon fill="#c0c0c0" stroke="black" points="269.5,-36 215.5,-36 215.5,0 269.5,0 269.5,-36"/>
<text text-anchor="middle" x="242.5" y="-14.3" font-family="Times,serif" font-size="14.00">(...)</text>
</g>
<!-- 26&#45;&gt;27 -->
<g id="edge7" class="edge">
<title>26&#45;&gt;27</title>
<path fill="none" stroke="black" d="M257.17,-71.76C254.77,-63.14 252.3,-54.24 250.08,-46.26"/>
<polygon fill="black" stroke="black" points="253.39,-45.1 247.34,-36.41 246.65,-46.98 253.39,-45.1"/>
</g>
<!-- 62 -->
<g id="node9" class="node">
<title>62</title>
<polygon fill="#c0c0c0" stroke="black" points="341.5,-36 287.5,-36 287.5,0 341.5,0 341.5,-36"/>
<text text-anchor="middle" x="314.5" y="-14.3" font-family="Times,serif" font-size="14.00">(...)</text>
</g>
<!-- 26&#45;&gt;62 -->
<g id="edge8" class="edge">
<title>26&#45;&gt;62</title>
<path fill="none" stroke="black" d="M288.54,-71.76C292.93,-62.85 297.46,-53.64 301.48,-45.46"/>
<polygon fill="black" stroke="black" points="304.66,-46.92 305.94,-36.41 298.38,-43.83 304.66,-46.92"/>
</g>
<!-- 98 -->
<g id="node11" class="node">
<title>98</title>
<polygon fill="#ffffff" stroke="black" points="537,-155 370,-155 370,-72 537,-72 537,-155"/>
<text text-anchor="middle" x="453.5" y="-139.8" font-family="Times,serif" font-size="14.00">nbproc &lt;= 4.5</text>
<text text-anchor="middle" x="453.5" y="-124.8" font-family="Times,serif" font-size="14.00">gini = 0.5</text>
<text text-anchor="middle" x="453.5" y="-109.8" font-family="Times,serif" font-size="14.00">samples = 4340</text>
<text text-anchor="middle" x="453.5" y="-94.8" font-family="Times,serif" font-size="14.00">value = [2170, 2170]</text>
<text text-anchor="middle" x="453.5" y="-79.8" font-family="Times,serif" font-size="14.00">class = False</text>
</g>
<!-- 97&#45;&gt;98 -->
<g id="edge10" class="edge">
<title>97&#45;&gt;98</title>
<path fill="none" stroke="black" d="M519.46,-190.91C511.62,-181.83 503.24,-172.12 495.17,-162.77"/>
<polygon fill="black" stroke="black" points="497.66,-160.3 488.48,-155.02 492.36,-164.88 497.66,-160.3"/>
</g>
<!-- 145 -->
<g id="node14" class="node">
<title>145</title>
<polygon fill="#ffffff" stroke="black" points="740,-155 555,-155 555,-72 740,-72 740,-155"/>
<text text-anchor="middle" x="647.5" y="-139.8" font-family="Times,serif" font-size="14.00">graphDepth &lt;= 6.5</text>
<text text-anchor="middle" x="647.5" y="-124.8" font-family="Times,serif" font-size="14.00">gini = 0.5</text>
<text text-anchor="middle" x="647.5" y="-109.8" font-family="Times,serif" font-size="14.00">samples = 28192</text>
<text text-anchor="middle" x="647.5" y="-94.8" font-family="Times,serif" font-size="14.00">value = [14096, 14096]</text>
<text text-anchor="middle" x="647.5" y="-79.8" font-family="Times,serif" font-size="14.00">class = False</text>
</g>
<!-- 97&#45;&gt;145 -->
<g id="edge13" class="edge">
<title>97&#45;&gt;145</title>
<path fill="none" stroke="black" d="M586.77,-190.91C593.91,-181.92 601.54,-172.32 608.91,-163.05"/>
<polygon fill="black" stroke="black" points="611.81,-165.03 615.29,-155.02 606.33,-160.67 611.81,-165.03"/>
</g>
<!-- 99 -->
<g id="node12" class="node">
<title>99</title>
<polygon fill="#c0c0c0" stroke="black" points="433.5,-36 379.5,-36 379.5,0 433.5,0 433.5,-36"/>
<text text-anchor="middle" x="406.5" y="-14.3" font-family="Times,serif" font-size="14.00">(...)</text>
</g>
<!-- 98&#45;&gt;99 -->
<g id="edge11" class="edge">
<title>98&#45;&gt;99</title>
<path fill="none" stroke="black" d="M433.02,-71.76C428.54,-62.85 423.91,-53.64 419.8,-45.46"/>
<polygon fill="black" stroke="black" points="422.87,-43.77 415.25,-36.41 416.61,-46.91 422.87,-43.77"/>
</g>
<!-- 122 -->
<g id="node13" class="node">
<title>122</title>
<polygon fill="#c0c0c0" stroke="black" points="505.5,-36 451.5,-36 451.5,0 505.5,0 505.5,-36"/>
<text text-anchor="middle" x="478.5" y="-14.3" font-family="Times,serif" font-size="14.00">(...)</text>
</g>
<!-- 98&#45;&gt;122 -->
<g id="edge12" class="edge">
<title>98&#45;&gt;122</title>
<path fill="none" stroke="black" d="M464.39,-71.76C466.7,-63.14 469.08,-54.24 471.21,-46.26"/>
<polygon fill="black" stroke="black" points="474.64,-46.97 473.85,-36.41 467.88,-45.16 474.64,-46.97"/>
</g>
<!-- 146 -->
<g id="node15" class="node">
<title>146</title>
<polygon fill="#c0c0c0" stroke="black" points="627.5,-36 573.5,-36 573.5,0 627.5,0 627.5,-36"/>
<text text-anchor="middle" x="600.5" y="-14.3" font-family="Times,serif" font-size="14.00">(...)</text>
</g>
<!-- 145&#45;&gt;146 -->
<g id="edge14" class="edge">
<title>145&#45;&gt;146</title>
<path fill="none" stroke="black" d="M627.02,-71.76C622.54,-62.85 617.91,-53.64 613.8,-45.46"/>
<polygon fill="black" stroke="black" points="616.87,-43.77 609.25,-36.41 610.61,-46.91 616.87,-43.77"/>
</g>
<!-- 241 -->
<g id="node16" class="node">
<title>241</title>
<polygon fill="#c0c0c0" stroke="black" points="699.5,-36 645.5,-36 645.5,0 699.5,0 699.5,-36"/>
<text text-anchor="middle" x="672.5" y="-14.3" font-family="Times,serif" font-size="14.00">(...)</text>
</g>
<!-- 145&#45;&gt;241 -->
<g id="edge15" class="edge">
<title>145&#45;&gt;241</title>
<path fill="none" stroke="black" d="M658.39,-71.76C660.7,-63.14 663.08,-54.24 665.21,-46.26"/>
<polygon fill="black" stroke="black" points="668.64,-46.97 667.85,-36.41 661.88,-45.16 668.64,-46.97"/>
</g>
<!-- 481 -->
<g id="node18" class="node">
<title>481</title>
<polygon fill="#ffffff" stroke="black" points="1013,-274 846,-274 846,-191 1013,-191 1013,-274"/>
<text text-anchor="middle" x="929.5" y="-258.8" font-family="Times,serif" font-size="14.00">nbproc &lt;= 4.5</text>
<text text-anchor="middle" x="929.5" y="-243.8" font-family="Times,serif" font-size="14.00">gini = 0.5</text>
<text text-anchor="middle" x="929.5" y="-228.8" font-family="Times,serif" font-size="14.00">samples = 5902</text>
<text text-anchor="middle" x="929.5" y="-213.8" font-family="Times,serif" font-size="14.00">value = [2951, 2951]</text>
<text text-anchor="middle" x="929.5" y="-198.8" font-family="Times,serif" font-size="14.00">class = False</text>
</g>
<!-- 480&#45;&gt;481 -->
<g id="edge17" class="edge">
<title>480&#45;&gt;481</title>
<path fill="none" stroke="black" d="M929.5,-309.91C929.5,-301.65 929.5,-292.86 929.5,-284.3"/>
<polygon fill="black" stroke="black" points="933,-284.02 929.5,-274.02 926,-284.02 933,-284.02"/>
</g>
<!-- 566 -->
<g id="node25" class="node">
<title>566</title>
<polygon fill="#ffffff" stroke="black" points="1286,-274 1119,-274 1119,-191 1286,-191 1286,-274"/>
<text text-anchor="middle" x="1202.5" y="-258.8" font-family="Times,serif" font-size="14.00">graphDepth &lt;= 6.5</text>
<text text-anchor="middle" x="1202.5" y="-243.8" font-family="Times,serif" font-size="14.00">gini = 0.5</text>
<text text-anchor="middle" x="1202.5" y="-228.8" font-family="Times,serif" font-size="14.00">samples = 4641</text>
<text text-anchor="middle" x="1202.5" y="-213.8" font-family="Times,serif" font-size="14.00">value = [2320, 2321]</text>
<text text-anchor="middle" x="1202.5" y="-198.8" font-family="Times,serif" font-size="14.00">class = True</text>
</g>
<!-- 480&#45;&gt;566 -->
<g id="edge24" class="edge">
<title>480&#45;&gt;566</title>
<path fill="none" stroke="black" d="M1013.26,-314.6C1043.66,-301.57 1078.18,-286.78 1109.34,-273.43"/>
<polygon fill="black" stroke="black" points="1111.08,-276.49 1118.89,-269.33 1108.32,-270.05 1111.08,-276.49"/>
</g>
<!-- 482 -->
<g id="node19" class="node">
<title>482</title>
<polygon fill="#ffffff" stroke="black" points="925,-155 758,-155 758,-72 925,-72 925,-155"/>
<text text-anchor="middle" x="841.5" y="-139.8" font-family="Times,serif" font-size="14.00">sdComp &lt;= 2.0</text>
<text text-anchor="middle" x="841.5" y="-124.8" font-family="Times,serif" font-size="14.00">gini = 0.5</text>
<text text-anchor="middle" x="841.5" y="-109.8" font-family="Times,serif" font-size="14.00">samples = 2756</text>
<text text-anchor="middle" x="841.5" y="-94.8" font-family="Times,serif" font-size="14.00">value = [1378, 1378]</text>
<text text-anchor="middle" x="841.5" y="-79.8" font-family="Times,serif" font-size="14.00">class = False</text>
</g>
<!-- 481&#45;&gt;482 -->
<g id="edge18" class="edge">
<title>481&#45;&gt;482</title>
<path fill="none" stroke="black" d="M898.97,-190.91C892.21,-181.92 884.98,-172.32 878.02,-163.05"/>
<polygon fill="black" stroke="black" points="880.79,-160.91 871.98,-155.02 875.19,-165.12 880.79,-160.91"/>
</g>
<!-- 525 -->
<g id="node22" class="node">
<title>525</title>
<polygon fill="#ffffff" stroke="black" points="1110,-155 943,-155 943,-72 1110,-72 1110,-155"/>
<text text-anchor="middle" x="1026.5" y="-139.8" font-family="Times,serif" font-size="14.00">graphDepth &lt;= 3.5</text>
<text text-anchor="middle" x="1026.5" y="-124.8" font-family="Times,serif" font-size="14.00">gini = 0.5</text>
<text text-anchor="middle" x="1026.5" y="-109.8" font-family="Times,serif" font-size="14.00">samples = 3146</text>
<text text-anchor="middle" x="1026.5" y="-94.8" font-family="Times,serif" font-size="14.00">value = [1573, 1573]</text>
<text text-anchor="middle" x="1026.5" y="-79.8" font-family="Times,serif" font-size="14.00">class = False</text>
</g>
<!-- 481&#45;&gt;525 -->
<g id="edge21" class="edge">
<title>481&#45;&gt;525</title>
<path fill="none" stroke="black" d="M963.15,-190.91C970.68,-181.83 978.73,-172.12 986.48,-162.77"/>
<polygon fill="black" stroke="black" points="989.22,-164.95 992.91,-155.02 983.83,-160.49 989.22,-164.95"/>
</g>
<!-- 483 -->
<g id="node20" class="node">
<title>483</title>
<polygon fill="#c0c0c0" stroke="black" points="816.5,-36 762.5,-36 762.5,0 816.5,0 816.5,-36"/>
<text text-anchor="middle" x="789.5" y="-14.3" font-family="Times,serif" font-size="14.00">(...)</text>
</g>
<!-- 482&#45;&gt;483 -->
<g id="edge19" class="edge">
<title>482&#45;&gt;483</title>
<path fill="none" stroke="black" d="M818.84,-71.76C813.83,-62.75 808.65,-53.44 804.07,-45.19"/>
<polygon fill="black" stroke="black" points="807.1,-43.44 799.18,-36.41 800.98,-46.85 807.1,-43.44"/>
</g>
<!-- 502 -->
<g id="node21" class="node">
<title>502</title>
<polygon fill="#c0c0c0" stroke="black" points="888.5,-36 834.5,-36 834.5,0 888.5,0 888.5,-36"/>
<text text-anchor="middle" x="861.5" y="-14.3" font-family="Times,serif" font-size="14.00">(...)</text>
</g>
<!-- 482&#45;&gt;502 -->
<g id="edge20" class="edge">
<title>482&#45;&gt;502</title>
<path fill="none" stroke="black" d="M850.21,-71.76C852.06,-63.14 853.96,-54.24 855.67,-46.26"/>
<polygon fill="black" stroke="black" points="859.11,-46.92 857.78,-36.41 852.26,-45.45 859.11,-46.92"/>
</g>
<!-- 526 -->
<g id="node23" class="node">
<title>526</title>
<polygon fill="#c0c0c0" stroke="black" points="997.5,-36 943.5,-36 943.5,0 997.5,0 997.5,-36"/>
<text text-anchor="middle" x="970.5" y="-14.3" font-family="Times,serif" font-size="14.00">(...)</text>
</g>
<!-- 525&#45;&gt;526 -->
<g id="edge22" class="edge">
<title>525&#45;&gt;526</title>
<path fill="none" stroke="black" d="M1002.1,-71.76C996.7,-62.75 991.13,-53.44 986.19,-45.19"/>
<polygon fill="black" stroke="black" points="989.07,-43.19 980.92,-36.41 983.06,-46.78 989.07,-43.19"/>
</g>
<!-- 547 -->
<g id="node24" class="node">
<title>547</title>
<polygon fill="#c0c0c0" stroke="black" points="1069.5,-36 1015.5,-36 1015.5,0 1069.5,0 1069.5,-36"/>
<text text-anchor="middle" x="1042.5" y="-14.3" font-family="Times,serif" font-size="14.00">(...)</text>
</g>
<!-- 525&#45;&gt;547 -->
<g id="edge23" class="edge">
<title>525&#45;&gt;547</title>
<path fill="none" stroke="black" d="M1033.47,-71.76C1034.93,-63.24 1036.44,-54.44 1037.79,-46.53"/>
<polygon fill="black" stroke="black" points="1041.28,-46.85 1039.52,-36.41 1034.38,-45.67 1041.28,-46.85"/>
</g>
<!-- 567 -->
<g id="node26" class="node">
<title>567</title>
<polygon fill="#feffff" stroke="black" points="1277,-155 1128,-155 1128,-72 1277,-72 1277,-155"/>
<text text-anchor="middle" x="1202.5" y="-139.8" font-family="Times,serif" font-size="14.00">nbproc &lt;= 4.5</text>
<text text-anchor="middle" x="1202.5" y="-124.8" font-family="Times,serif" font-size="14.00">gini = 0.5</text>
<text text-anchor="middle" x="1202.5" y="-109.8" font-family="Times,serif" font-size="14.00">samples = 723</text>
<text text-anchor="middle" x="1202.5" y="-94.8" font-family="Times,serif" font-size="14.00">value = [361, 362]</text>
<text text-anchor="middle" x="1202.5" y="-79.8" font-family="Times,serif" font-size="14.00">class = True</text>
</g>
<!-- 566&#45;&gt;567 -->
<g id="edge25" class="edge">
<title>566&#45;&gt;567</title>
<path fill="none" stroke="black" d="M1202.5,-190.91C1202.5,-182.65 1202.5,-173.86 1202.5,-165.3"/>
<polygon fill="black" stroke="black" points="1206,-165.02 1202.5,-155.02 1199,-165.02 1206,-165.02"/>
</g>
<!-- 592 -->
<g id="node29" class="node">
<title>592</title>
<polygon fill="#ffffff" stroke="black" points="1462,-155 1295,-155 1295,-72 1462,-72 1462,-155"/>
<text text-anchor="middle" x="1378.5" y="-139.8" font-family="Times,serif" font-size="14.00">graphDepth &lt;= 9.0</text>
<text text-anchor="middle" x="1378.5" y="-124.8" font-family="Times,serif" font-size="14.00">gini = 0.5</text>
<text text-anchor="middle" x="1378.5" y="-109.8" font-family="Times,serif" font-size="14.00">samples = 3918</text>
<text text-anchor="middle" x="1378.5" y="-94.8" font-family="Times,serif" font-size="14.00">value = [1959, 1959]</text>
<text text-anchor="middle" x="1378.5" y="-79.8" font-family="Times,serif" font-size="14.00">class = False</text>
</g>
<!-- 566&#45;&gt;592 -->
<g id="edge28" class="edge">
<title>566&#45;&gt;592</title>
<path fill="none" stroke="black" d="M1263.56,-190.91C1278.17,-181.2 1293.87,-170.76 1308.84,-160.81"/>
<polygon fill="black" stroke="black" points="1311.16,-163.47 1317.55,-155.02 1307.28,-157.64 1311.16,-163.47"/>
</g>
<!-- 568 -->
<g id="node27" class="node">
<title>568</title>
<polygon fill="#c0c0c0" stroke="black" points="1191.5,-36 1137.5,-36 1137.5,0 1191.5,0 1191.5,-36"/>
<text text-anchor="middle" x="1164.5" y="-14.3" font-family="Times,serif" font-size="14.00">(...)</text>
</g>
<!-- 567&#45;&gt;568 -->
<g id="edge26" class="edge">
<title>567&#45;&gt;568</title>
<path fill="none" stroke="black" d="M1185.94,-71.76C1182.36,-62.94 1178.66,-53.84 1175.36,-45.72"/>
<polygon fill="black" stroke="black" points="1178.58,-44.35 1171.57,-36.41 1172.1,-46.99 1178.58,-44.35"/>
</g>
<!-- 581 -->
<g id="node28" class="node">
<title>581</title>
<polygon fill="#c0c0c0" stroke="black" points="1263.5,-36 1209.5,-36 1209.5,0 1263.5,0 1263.5,-36"/>
<text text-anchor="middle" x="1236.5" y="-14.3" font-family="Times,serif" font-size="14.00">(...)</text>
</g>
<!-- 567&#45;&gt;581 -->
<g id="edge27" class="edge">
<title>567&#45;&gt;581</title>
<path fill="none" stroke="black" d="M1217.31,-71.76C1220.48,-63.04 1223.76,-54.04 1226.68,-45.99"/>
<polygon fill="black" stroke="black" points="1230.04,-47 1230.17,-36.41 1223.46,-44.61 1230.04,-47"/>
</g>
<!-- 593 -->
<g id="node30" class="node">
<title>593</title>
<polygon fill="#c0c0c0" stroke="black" points="1369.5,-36 1315.5,-36 1315.5,0 1369.5,0 1369.5,-36"/>
<text text-anchor="middle" x="1342.5" y="-14.3" font-family="Times,serif" font-size="14.00">(...)</text>
</g>
<!-- 592&#45;&gt;593 -->
<g id="edge29" class="edge">
<title>592&#45;&gt;593</title>
<path fill="none" stroke="black" d="M1362.81,-71.76C1359.46,-63.04 1355.99,-54.04 1352.89,-45.99"/>
<polygon fill="black" stroke="black" points="1356.06,-44.48 1349.2,-36.41 1349.53,-46.99 1356.06,-44.48"/>
</g>
<!-- 616 -->
<g id="node31" class="node">
<title>616</title>
<polygon fill="#c0c0c0" stroke="black" points="1441.5,-36 1387.5,-36 1387.5,0 1441.5,0 1441.5,-36"/>
<text text-anchor="middle" x="1414.5" y="-14.3" font-family="Times,serif" font-size="14.00">(...)</text>
</g>
<!-- 592&#45;&gt;616 -->
<g id="edge30" class="edge">
<title>592&#45;&gt;616</title>
<path fill="none" stroke="black" d="M1394.19,-71.76C1397.54,-63.04 1401.01,-54.04 1404.11,-45.99"/>
<polygon fill="black" stroke="black" points="1407.47,-46.99 1407.8,-36.41 1400.94,-44.48 1407.47,-46.99"/>
</g>
</g>
</svg>
