<?xml version="1.0" encoding="UTF-8" standalone="no"?>
<!DOCTYPE svg PUBLIC "-//W3C//DTD SVG 1.1//EN"
 "http://www.w3.org/Graphics/SVG/1.1/DTD/svg11.dtd">
<!-- Generated by graphviz version 2.43.0 (0)
 -->
<!-- Title: Tree Pages: 1 -->
<svg width="1442pt" height="520pt"
 viewBox="0.00 0.00 1441.50 520.00" xmlns="http://www.w3.org/2000/svg" xmlns:xlink="http://www.w3.org/1999/xlink">
<g id="graph0" class="graph" transform="scale(1 1) rotate(0) translate(4 516)">
<title>Tree</title>
<polygon fill="white" stroke="transparent" points="-4,4 -4,-516 1437.5,-516 1437.5,4 -4,4"/>
<!-- 0 -->
<g id="node1" class="node">
<title>0</title>
<polygon fill="#c8e4f8" stroke="black" points="814,-512 629,-512 629,-429 814,-429 814,-512"/>
<text text-anchor="middle" x="721.5" y="-496.8" font-family="Times,serif" font-size="14.00">sdComp &lt;= 0.65</text>
<text text-anchor="middle" x="721.5" y="-481.8" font-family="Times,serif" font-size="14.00">gini = 0.487</text>
<text text-anchor="middle" x="721.5" y="-466.8" font-family="Times,serif" font-size="14.00">samples = 48239</text>
<text text-anchor="middle" x="721.5" y="-451.8" font-family="Times,serif" font-size="14.00">value = [20215, 28024]</text>
<text text-anchor="middle" x="721.5" y="-436.8" font-family="Times,serif" font-size="14.00">class = True</text>
</g>
<!-- 1 -->
<g id="node2" class="node">
<title>1</title>
<polygon fill="#d5eafa" stroke="black" points="627,-393 442,-393 442,-310 627,-310 627,-393"/>
<text text-anchor="middle" x="534.5" y="-377.8" font-family="Times,serif" font-size="14.00">graphDepth &lt;= 3.5</text>
<text text-anchor="middle" x="534.5" y="-362.8" font-family="Times,serif" font-size="14.00">gini = 0.493</text>
<text text-anchor="middle" x="534.5" y="-347.8" font-family="Times,serif" font-size="14.00">samples = 37696</text>
<text text-anchor="middle" x="534.5" y="-332.8" font-family="Times,serif" font-size="14.00">value = [16636, 21060]</text>
<text text-anchor="middle" x="534.5" y="-317.8" font-family="Times,serif" font-size="14.00">class = True</text>
</g>
<!-- 0&#45;&gt;1 -->
<g id="edge1" class="edge">
<title>0&#45;&gt;1</title>
<path fill="none" stroke="black" d="M656.62,-428.91C640.96,-419.11 624.1,-408.56 608.07,-398.53"/>
<polygon fill="black" stroke="black" points="609.6,-395.36 599.26,-393.02 605.89,-401.29 609.6,-395.36"/>
<text text-anchor="middle" x="604.87" y="-413.68" font-family="Times,serif" font-size="14.00">True</text>
</g>
<!-- 460 -->
<g id="node17" class="node">
<title>460</title>
<polygon fill="#9fcff2" stroke="black" points="987,-393 820,-393 820,-310 987,-310 987,-393"/>
<text text-anchor="middle" x="903.5" y="-377.8" font-family="Times,serif" font-size="14.00">nbproc &lt;= 4.5</text>
<text text-anchor="middle" x="903.5" y="-362.8" font-family="Times,serif" font-size="14.00">gini = 0.448</text>
<text text-anchor="middle" x="903.5" y="-347.8" font-family="Times,serif" font-size="14.00">samples = 10543</text>
<text text-anchor="middle" x="903.5" y="-332.8" font-family="Times,serif" font-size="14.00">value = [3579, 6964]</text>
<text text-anchor="middle" x="903.5" y="-317.8" font-family="Times,serif" font-size="14.00">class = True</text>
</g>
<!-- 0&#45;&gt;460 -->
<g id="edge16" class="edge">
<title>0&#45;&gt;460</title>
<path fill="none" stroke="black" d="M784.64,-428.91C799.89,-419.11 816.29,-408.56 831.89,-398.53"/>
<polygon fill="black" stroke="black" points="833.95,-401.37 840.47,-393.02 830.16,-395.48 833.95,-401.37"/>
<text text-anchor="middle" x="835.16" y="-413.75" font-family="Times,serif" font-size="14.00">False</text>
</g>
<!-- 2 -->
<g id="node3" class="node">
<title>2</title>
<polygon fill="#a9d4f4" stroke="black" points="334,-274 167,-274 167,-191 334,-191 334,-274"/>
<text text-anchor="middle" x="250.5" y="-258.8" font-family="Times,serif" font-size="14.00">nbproc &lt;= 4.5</text>
<text text-anchor="middle" x="250.5" y="-243.8" font-family="Times,serif" font-size="14.00">gini = 0.461</text>
<text text-anchor="middle" x="250.5" y="-228.8" font-family="Times,serif" font-size="14.00">samples = 4630</text>
<text text-anchor="middle" x="250.5" y="-213.8" font-family="Times,serif" font-size="14.00">value = [1670, 2960]</text>
<text text-anchor="middle" x="250.5" y="-198.8" font-family="Times,serif" font-size="14.00">class = True</text>
</g>
<!-- 1&#45;&gt;2 -->
<g id="edge2" class="edge">
<title>1&#45;&gt;2</title>
<path fill="none" stroke="black" d="M441.9,-312.35C410.51,-299.42 375.44,-284.97 343.98,-272.01"/>
<polygon fill="black" stroke="black" points="344.92,-268.61 334.34,-268.04 342.25,-275.08 344.92,-268.61"/>
</g>
<!-- 47 -->
<g id="node10" class="node">
<title>47</title>
<polygon fill="#ddeefa" stroke="black" points="627,-274 442,-274 442,-191 627,-191 627,-274"/>
<text text-anchor="middle" x="534.5" y="-258.8" font-family="Times,serif" font-size="14.00">sdComp &lt;= 0.065</text>
<text text-anchor="middle" x="534.5" y="-243.8" font-family="Times,serif" font-size="14.00">gini = 0.496</text>
<text text-anchor="middle" x="534.5" y="-228.8" font-family="Times,serif" font-size="14.00">samples = 33066</text>
<text text-anchor="middle" x="534.5" y="-213.8" font-family="Times,serif" font-size="14.00">value = [14966, 18100]</text>
<text text-anchor="middle" x="534.5" y="-198.8" font-family="Times,serif" font-size="14.00">class = True</text>
</g>
<!-- 1&#45;&gt;47 -->
<g id="edge9" class="edge">
<title>1&#45;&gt;47</title>
<path fill="none" stroke="black" d="M534.5,-309.91C534.5,-301.65 534.5,-292.86 534.5,-284.3"/>
<polygon fill="black" stroke="black" points="538,-284.02 534.5,-274.02 531,-284.02 538,-284.02"/>
</g>
<!-- 3 -->
<g id="node4" class="node">
<title>3</title>
<polygon fill="#6db7ec" stroke="black" points="149,-155 0,-155 0,-72 149,-72 149,-155"/>
<text text-anchor="middle" x="74.5" y="-139.8" font-family="Times,serif" font-size="14.00">sdComp &lt;= 0.065</text>
<text text-anchor="middle" x="74.5" y="-124.8" font-family="Times,serif" font-size="14.00">gini = 0.331</text>
<text text-anchor="middle" x="74.5" y="-109.8" font-family="Times,serif" font-size="14.00">samples = 1252</text>
<text text-anchor="middle" x="74.5" y="-94.8" font-family="Times,serif" font-size="14.00">value = [262, 990]</text>
<text text-anchor="middle" x="74.5" y="-79.8" font-family="Times,serif" font-size="14.00">class = True</text>
</g>
<!-- 2&#45;&gt;3 -->
<g id="edge3" class="edge">
<title>2&#45;&gt;3</title>
<path fill="none" stroke="black" d="M189.44,-190.91C174.83,-181.2 159.13,-170.76 144.16,-160.81"/>
<polygon fill="black" stroke="black" points="145.72,-157.64 135.45,-155.02 141.84,-163.47 145.72,-157.64"/>
</g>
<!-- 18 -->
<g id="node7" class="node">
<title>18</title>
<polygon fill="#c7e3f8" stroke="black" points="334,-155 167,-155 167,-72 334,-72 334,-155"/>
<text text-anchor="middle" x="250.5" y="-139.8" font-family="Times,serif" font-size="14.00">sdComp &lt;= 0.065</text>
<text text-anchor="middle" x="250.5" y="-124.8" font-family="Times,serif" font-size="14.00">gini = 0.486</text>
<text text-anchor="middle" x="250.5" y="-109.8" font-family="Times,serif" font-size="14.00">samples = 3378</text>
<text text-anchor="middle" x="250.5" y="-94.8" font-family="Times,serif" font-size="14.00">value = [1408, 1970]</text>
<text text-anchor="middle" x="250.5" y="-79.8" font-family="Times,serif" font-size="14.00">class = True</text>
</g>
<!-- 2&#45;&gt;18 -->
<g id="edge6" class="edge">
<title>2&#45;&gt;18</title>
<path fill="none" stroke="black" d="M250.5,-190.91C250.5,-182.65 250.5,-173.86 250.5,-165.3"/>
<polygon fill="black" stroke="black" points="254,-165.02 250.5,-155.02 247,-165.02 254,-165.02"/>
</g>
<!-- 4 -->
<g id="node5" class="node">
<title>4</title>
<polygon fill="#c0c0c0" stroke="black" points="65.5,-36 11.5,-36 11.5,0 65.5,0 65.5,-36"/>
<text text-anchor="middle" x="38.5" y="-14.3" font-family="Times,serif" font-size="14.00">(...)</text>
</g>
<!-- 3&#45;&gt;4 -->
<g id="edge4" class="edge">
<title>3&#45;&gt;4</title>
<path fill="none" stroke="black" d="M58.81,-71.76C55.46,-63.04 51.99,-54.04 48.89,-45.99"/>
<polygon fill="black" stroke="black" points="52.06,-44.48 45.2,-36.41 45.53,-46.99 52.06,-44.48"/>
</g>
<!-- 5 -->
<g id="node6" class="node">
<title>5</title>
<polygon fill="#c0c0c0" stroke="black" points="137.5,-36 83.5,-36 83.5,0 137.5,0 137.5,-36"/>
<text text-anchor="middle" x="110.5" y="-14.3" font-family="Times,serif" font-size="14.00">(...)</text>
</g>
<!-- 3&#45;&gt;5 -->
<g id="edge5" class="edge">
<title>3&#45;&gt;5</title>
<path fill="none" stroke="black" d="M90.19,-71.76C93.54,-63.04 97.01,-54.04 100.11,-45.99"/>
<polygon fill="black" stroke="black" points="103.47,-46.99 103.8,-36.41 96.94,-44.48 103.47,-46.99"/>
</g>
<!-- 19 -->
<g id="node8" class="node">
<title>19</title>
<polygon fill="#c0c0c0" stroke="black" points="252.5,-36 198.5,-36 198.5,0 252.5,0 252.5,-36"/>
<text text-anchor="middle" x="225.5" y="-14.3" font-family="Times,serif" font-size="14.00">(...)</text>
</g>
<!-- 18&#45;&gt;19 -->
<g id="edge7" class="edge">
<title>18&#45;&gt;19</title>
<path fill="none" stroke="black" d="M239.61,-71.76C237.3,-63.14 234.92,-54.24 232.79,-46.26"/>
<polygon fill="black" stroke="black" points="236.12,-45.16 230.15,-36.41 229.36,-46.97 236.12,-45.16"/>
</g>
<!-- 30 -->
<g id="node9" class="node">
<title>30</title>
<polygon fill="#c0c0c0" stroke="black" points="324.5,-36 270.5,-36 270.5,0 324.5,0 324.5,-36"/>
<text text-anchor="middle" x="297.5" y="-14.3" font-family="Times,serif" font-size="14.00">(...)</text>
</g>
<!-- 18&#45;&gt;30 -->
<g id="edge8" class="edge">
<title>18&#45;&gt;30</title>
<path fill="none" stroke="black" d="M270.98,-71.76C275.46,-62.85 280.09,-53.64 284.2,-45.46"/>
<polygon fill="black" stroke="black" points="287.39,-46.91 288.75,-36.41 281.13,-43.77 287.39,-46.91"/>
</g>
<!-- 48 -->
<g id="node11" class="node">
<title>48</title>
<polygon fill="#f1f8fd" stroke="black" points="519,-155 352,-155 352,-72 519,-72 519,-155"/>
<text text-anchor="middle" x="435.5" y="-139.8" font-family="Times,serif" font-size="14.00">nbproc &lt;= 4.5</text>
<text text-anchor="middle" x="435.5" y="-124.8" font-family="Times,serif" font-size="14.00">gini = 0.499</text>
<text text-anchor="middle" x="435.5" y="-109.8" font-family="Times,serif" font-size="14.00">samples = 10296</text>
<text text-anchor="middle" x="435.5" y="-94.8" font-family="Times,serif" font-size="14.00">value = [4960, 5336]</text>
<text text-anchor="middle" x="435.5" y="-79.8" font-family="Times,serif" font-size="14.00">class = True</text>
</g>
<!-- 47&#45;&gt;48 -->
<g id="edge10" class="edge">
<title>47&#45;&gt;48</title>
<path fill="none" stroke="black" d="M500.15,-190.91C492.47,-181.83 484.26,-172.12 476.34,-162.77"/>
<polygon fill="black" stroke="black" points="478.92,-160.39 469.79,-155.02 473.57,-164.92 478.92,-160.39"/>
</g>
<!-- 215 -->
<g id="node14" class="node">
<title>215</title>
<polygon fill="#d4eaf9" stroke="black" points="722,-155 537,-155 537,-72 722,-72 722,-155"/>
<text text-anchor="middle" x="629.5" y="-139.8" font-family="Times,serif" font-size="14.00">sdComm &lt;= 0.065</text>
<text text-anchor="middle" x="629.5" y="-124.8" font-family="Times,serif" font-size="14.00">gini = 0.493</text>
<text text-anchor="middle" x="629.5" y="-109.8" font-family="Times,serif" font-size="14.00">samples = 22770</text>
<text text-anchor="middle" x="629.5" y="-94.8" font-family="Times,serif" font-size="14.00">value = [10006, 12764]</text>
<text text-anchor="middle" x="629.5" y="-79.8" font-family="Times,serif" font-size="14.00">class = True</text>
</g>
<!-- 47&#45;&gt;215 -->
<g id="edge13" class="edge">
<title>47&#45;&gt;215</title>
<path fill="none" stroke="black" d="M567.46,-190.91C574.75,-181.92 582.56,-172.32 590.08,-163.05"/>
<polygon fill="black" stroke="black" points="593.01,-164.99 596.6,-155.02 587.58,-160.58 593.01,-164.99"/>
</g>
<!-- 49 -->
<g id="node12" class="node">
<title>49</title>
<polygon fill="#c0c0c0" stroke="black" points="414.5,-36 360.5,-36 360.5,0 414.5,0 414.5,-36"/>
<text text-anchor="middle" x="387.5" y="-14.3" font-family="Times,serif" font-size="14.00">(...)</text>
</g>
<!-- 48&#45;&gt;49 -->
<g id="edge11" class="edge">
<title>48&#45;&gt;49</title>
<path fill="none" stroke="black" d="M414.59,-71.76C410.01,-62.85 405.28,-53.64 401.08,-45.46"/>
<polygon fill="black" stroke="black" points="404.12,-43.7 396.44,-36.41 397.89,-46.9 404.12,-43.7"/>
</g>
<!-- 132 -->
<g id="node13" class="node">
<title>132</title>
<polygon fill="#c0c0c0" stroke="black" points="486.5,-36 432.5,-36 432.5,0 486.5,0 486.5,-36"/>
<text text-anchor="middle" x="459.5" y="-14.3" font-family="Times,serif" font-size="14.00">(...)</text>
</g>
<!-- 48&#45;&gt;132 -->
<g id="edge12" class="edge">
<title>48&#45;&gt;132</title>
<path fill="none" stroke="black" d="M445.96,-71.76C448.17,-63.14 450.45,-54.24 452.5,-46.26"/>
<polygon fill="black" stroke="black" points="455.94,-46.96 455.03,-36.41 449.16,-45.22 455.94,-46.96"/>
</g>
<!-- 216 -->
<g id="node15" class="node">
<title>216</title>
<polygon fill="#c0c0c0" stroke="black" points="606.5,-36 552.5,-36 552.5,0 606.5,0 606.5,-36"/>
<text text-anchor="middle" x="579.5" y="-14.3" font-family="Times,serif" font-size="14.00">(...)</text>
</g>
<!-- 215&#45;&gt;216 -->
<g id="edge14" class="edge">
<title>215&#45;&gt;216</title>
<path fill="none" stroke="black" d="M607.71,-71.76C602.95,-62.85 598.02,-53.64 593.65,-45.46"/>
<polygon fill="black" stroke="black" points="596.61,-43.57 588.81,-36.41 590.44,-46.87 596.61,-43.57"/>
</g>
<!-- 269 -->
<g id="node16" class="node">
<title>269</title>
<polygon fill="#c0c0c0" stroke="black" points="678.5,-36 624.5,-36 624.5,0 678.5,0 678.5,-36"/>
<text text-anchor="middle" x="651.5" y="-14.3" font-family="Times,serif" font-size="14.00">(...)</text>
</g>
<!-- 215&#45;&gt;269 -->
<g id="edge15" class="edge">
<title>215&#45;&gt;269</title>
<path fill="none" stroke="black" d="M639.09,-71.76C641.11,-63.14 643.21,-54.24 645.09,-46.26"/>
<polygon fill="black" stroke="black" points="648.52,-46.94 647.4,-36.41 641.71,-45.34 648.52,-46.94"/>
</g>
<!-- 461 -->
<g id="node18" class="node">
<title>461</title>
<polygon fill="#8fc8f0" stroke="black" points="987,-274 820,-274 820,-191 987,-191 987,-274"/>
<text text-anchor="middle" x="903.5" y="-258.8" font-family="Times,serif" font-size="14.00">sdComp &lt;= 6.5</text>
<text text-anchor="middle" x="903.5" y="-243.8" font-family="Times,serif" font-size="14.00">gini = 0.422</text>
<text text-anchor="middle" x="903.5" y="-228.8" font-family="Times,serif" font-size="14.00">samples = 5277</text>
<text text-anchor="middle" x="903.5" y="-213.8" font-family="Times,serif" font-size="14.00">value = [1597, 3680]</text>
<text text-anchor="middle" x="903.5" y="-198.8" font-family="Times,serif" font-size="14.00">class = True</text>
</g>
<!-- 460&#45;&gt;461 -->
<g id="edge17" class="edge">
<title>460&#45;&gt;461</title>
<path fill="none" stroke="black" d="M903.5,-309.91C903.5,-301.65 903.5,-292.86 903.5,-284.3"/>
<polygon fill="black" stroke="black" points="907,-284.02 903.5,-274.02 900,-284.02 907,-284.02"/>
</g>
<!-- 584 -->
<g id="node25" class="node">
<title>584</title>
<polygon fill="#b0d8f5" stroke="black" points="1258,-274 1091,-274 1091,-191 1258,-191 1258,-274"/>
<text text-anchor="middle" x="1174.5" y="-258.8" font-family="Times,serif" font-size="14.00">CCR &lt;= 5.5</text>
<text text-anchor="middle" x="1174.5" y="-243.8" font-family="Times,serif" font-size="14.00">gini = 0.469</text>
<text text-anchor="middle" x="1174.5" y="-228.8" font-family="Times,serif" font-size="14.00">samples = 5266</text>
<text text-anchor="middle" x="1174.5" y="-213.8" font-family="Times,serif" font-size="14.00">value = [1982, 3284]</text>
<text text-anchor="middle" x="1174.5" y="-198.8" font-family="Times,serif" font-size="14.00">class = True</text>
</g>
<!-- 460&#45;&gt;584 -->
<g id="edge24" class="edge">
<title>460&#45;&gt;584</title>
<path fill="none" stroke="black" d="M987.02,-314.44C1016.9,-301.54 1050.75,-286.93 1081.39,-273.7"/>
<polygon fill="black" stroke="black" points="1083,-276.82 1090.79,-269.64 1080.22,-270.39 1083,-276.82"/>
</g>
<!-- 462 -->
<g id="node19" class="node">
<title>462</title>
<polygon fill="#7dbeee" stroke="black" points="897.5,-155 739.5,-155 739.5,-72 897.5,-72 897.5,-155"/>
<text text-anchor="middle" x="818.5" y="-139.8" font-family="Times,serif" font-size="14.00">graphSize &lt;= 22.5</text>
<text text-anchor="middle" x="818.5" y="-124.8" font-family="Times,serif" font-size="14.00">gini = 0.379</text>
<text text-anchor="middle" x="818.5" y="-109.8" font-family="Times,serif" font-size="14.00">samples = 3447</text>
<text text-anchor="middle" x="818.5" y="-94.8" font-family="Times,serif" font-size="14.00">value = [877, 2570]</text>
<text text-anchor="middle" x="818.5" y="-79.8" font-family="Times,serif" font-size="14.00">class = True</text>
</g>
<!-- 461&#45;&gt;462 -->
<g id="edge18" class="edge">
<title>461&#45;&gt;462</title>
<path fill="none" stroke="black" d="M874.01,-190.91C867.55,-182.01 860.64,-172.51 853.98,-163.33"/>
<polygon fill="black" stroke="black" points="856.65,-161.05 847.94,-155.02 850.98,-165.17 856.65,-161.05"/>
</g>
<!-- 555 -->
<g id="node22" class="node">
<title>555</title>
<polygon fill="#b9ddf6" stroke="black" points="1073.5,-155 915.5,-155 915.5,-72 1073.5,-72 1073.5,-155"/>
<text text-anchor="middle" x="994.5" y="-139.8" font-family="Times,serif" font-size="14.00">graphDepth &lt;= 3.5</text>
<text text-anchor="middle" x="994.5" y="-124.8" font-family="Times,serif" font-size="14.00">gini = 0.477</text>
<text text-anchor="middle" x="994.5" y="-109.8" font-family="Times,serif" font-size="14.00">samples = 1830</text>
<text text-anchor="middle" x="994.5" y="-94.8" font-family="Times,serif" font-size="14.00">value = [720, 1110]</text>
<text text-anchor="middle" x="994.5" y="-79.8" font-family="Times,serif" font-size="14.00">class = True</text>
</g>
<!-- 461&#45;&gt;555 -->
<g id="edge21" class="edge">
<title>461&#45;&gt;555</title>
<path fill="none" stroke="black" d="M935.07,-190.91C942.06,-181.92 949.53,-172.32 956.74,-163.05"/>
<polygon fill="black" stroke="black" points="959.61,-165.06 962.98,-155.02 954.08,-160.77 959.61,-165.06"/>
</g>
<!-- 463 -->
<g id="node20" class="node">
<title>463</title>
<polygon fill="#c0c0c0" stroke="black" points="789.5,-36 735.5,-36 735.5,0 789.5,0 789.5,-36"/>
<text text-anchor="middle" x="762.5" y="-14.3" font-family="Times,serif" font-size="14.00">(...)</text>
</g>
<!-- 462&#45;&gt;463 -->
<g id="edge19" class="edge">
<title>462&#45;&gt;463</title>
<path fill="none" stroke="black" d="M794.1,-71.76C788.7,-62.75 783.13,-53.44 778.19,-45.19"/>
<polygon fill="black" stroke="black" points="781.07,-43.19 772.92,-36.41 775.06,-46.78 781.07,-43.19"/>
</g>
<!-- 488 -->
<g id="node21" class="node">
<title>488</title>
<polygon fill="#c0c0c0" stroke="black" points="861.5,-36 807.5,-36 807.5,0 861.5,0 861.5,-36"/>
<text text-anchor="middle" x="834.5" y="-14.3" font-family="Times,serif" font-size="14.00">(...)</text>
</g>
<!-- 462&#45;&gt;488 -->
<g id="edge20" class="edge">
<title>462&#45;&gt;488</title>
<path fill="none" stroke="black" d="M825.47,-71.76C826.93,-63.24 828.44,-54.44 829.79,-46.53"/>
<polygon fill="black" stroke="black" points="833.28,-46.85 831.52,-36.41 826.38,-45.67 833.28,-46.85"/>
</g>
<!-- 556 -->
<g id="node23" class="node">
<title>556</title>
<polygon fill="#c0c0c0" stroke="black" points="967.5,-36 913.5,-36 913.5,0 967.5,0 967.5,-36"/>
<text text-anchor="middle" x="940.5" y="-14.3" font-family="Times,serif" font-size="14.00">(...)</text>
</g>
<!-- 555&#45;&gt;556 -->
<g id="edge22" class="edge">
<title>555&#45;&gt;556</title>
<path fill="none" stroke="black" d="M970.97,-71.76C965.77,-62.75 960.39,-53.44 955.63,-45.19"/>
<polygon fill="black" stroke="black" points="958.58,-43.31 950.55,-36.41 952.52,-46.82 958.58,-43.31"/>
</g>
<!-- 557 -->
<g id="node24" class="node">
<title>557</title>
<polygon fill="#c0c0c0" stroke="black" points="1039.5,-36 985.5,-36 985.5,0 1039.5,0 1039.5,-36"/>
<text text-anchor="middle" x="1012.5" y="-14.3" font-family="Times,serif" font-size="14.00">(...)</text>
</g>
<!-- 555&#45;&gt;557 -->
<g id="edge23" class="edge">
<title>555&#45;&gt;557</title>
<path fill="none" stroke="black" d="M1002.34,-71.76C1004,-63.14 1005.72,-54.24 1007.25,-46.26"/>
<polygon fill="black" stroke="black" points="1010.7,-46.89 1009.15,-36.41 1003.82,-45.56 1010.7,-46.89"/>
</g>
<!-- 585 -->
<g id="node26" class="node">
<title>585</title>
<polygon fill="#bedff7" stroke="black" points="1258,-155 1091,-155 1091,-72 1258,-72 1258,-155"/>
<text text-anchor="middle" x="1174.5" y="-139.8" font-family="Times,serif" font-size="14.00">graphSize &lt;= 40.0</text>
<text text-anchor="middle" x="1174.5" y="-124.8" font-family="Times,serif" font-size="14.00">gini = 0.481</text>
<text text-anchor="middle" x="1174.5" y="-109.8" font-family="Times,serif" font-size="14.00">samples = 3264</text>
<text text-anchor="middle" x="1174.5" y="-94.8" font-family="Times,serif" font-size="14.00">value = [1314, 1950]</text>
<text text-anchor="middle" x="1174.5" y="-79.8" font-family="Times,serif" font-size="14.00">class = True</text>
</g>
<!-- 584&#45;&gt;585 -->
<g id="edge25" class="edge">
<title>584&#45;&gt;585</title>
<path fill="none" stroke="black" d="M1174.5,-190.91C1174.5,-182.65 1174.5,-173.86 1174.5,-165.3"/>
<polygon fill="black" stroke="black" points="1178,-165.02 1174.5,-155.02 1171,-165.02 1178,-165.02"/>
</g>
<!-- 632 -->
<g id="node29" class="node">
<title>632</title>
<polygon fill="#9ccef2" stroke="black" points="1433.5,-155 1275.5,-155 1275.5,-72 1433.5,-72 1433.5,-155"/>
<text text-anchor="middle" x="1354.5" y="-139.8" font-family="Times,serif" font-size="14.00">sdComp &lt;= 6.5</text>
<text text-anchor="middle" x="1354.5" y="-124.8" font-family="Times,serif" font-size="14.00">gini = 0.445</text>
<text text-anchor="middle" x="1354.5" y="-109.8" font-family="Times,serif" font-size="14.00">samples = 2002</text>
<text text-anchor="middle" x="1354.5" y="-94.8" font-family="Times,serif" font-size="14.00">value = [668, 1334]</text>
<text text-anchor="middle" x="1354.5" y="-79.8" font-family="Times,serif" font-size="14.00">class = True</text>
</g>
<!-- 584&#45;&gt;632 -->
<g id="edge28" class="edge">
<title>584&#45;&gt;632</title>
<path fill="none" stroke="black" d="M1236.95,-190.91C1252.03,-181.11 1268.25,-170.56 1283.68,-160.53"/>
<polygon fill="black" stroke="black" points="1285.68,-163.41 1292.16,-155.02 1281.87,-157.54 1285.68,-163.41"/>
</g>
<!-- 586 -->
<g id="node27" class="node">
<title>586</title>
<polygon fill="#c0c0c0" stroke="black" points="1165.5,-36 1111.5,-36 1111.5,0 1165.5,0 1165.5,-36"/>
<text text-anchor="middle" x="1138.5" y="-14.3" font-family="Times,serif" font-size="14.00">(...)</text>
</g>
<!-- 585&#45;&gt;586 -->
<g id="edge26" class="edge">
<title>585&#45;&gt;586</title>
<path fill="none" stroke="black" d="M1158.81,-71.76C1155.46,-63.04 1151.99,-54.04 1148.89,-45.99"/>
<polygon fill="black" stroke="black" points="1152.06,-44.48 1145.2,-36.41 1145.53,-46.99 1152.06,-44.48"/>
</g>
<!-- 609 -->
<g id="node28" class="node">
<title>609</title>
<polygon fill="#c0c0c0" stroke="black" points="1237.5,-36 1183.5,-36 1183.5,0 1237.5,0 1237.5,-36"/>
<text text-anchor="middle" x="1210.5" y="-14.3" font-family="Times,serif" font-size="14.00">(...)</text>
</g>
<!-- 585&#45;&gt;609 -->
<g id="edge27" class="edge">
<title>585&#45;&gt;609</title>
<path fill="none" stroke="black" d="M1190.19,-71.76C1193.54,-63.04 1197.01,-54.04 1200.11,-45.99"/>
<polygon fill="black" stroke="black" points="1203.47,-46.99 1203.8,-36.41 1196.94,-44.48 1203.47,-46.99"/>
</g>
<!-- 633 -->
<g id="node30" class="node">
<title>633</title>
<polygon fill="#c0c0c0" stroke="black" points="1345.5,-36 1291.5,-36 1291.5,0 1345.5,0 1345.5,-36"/>
<text text-anchor="middle" x="1318.5" y="-14.3" font-family="Times,serif" font-size="14.00">(...)</text>
</g>
<!-- 632&#45;&gt;633 -->
<g id="edge29" class="edge">
<title>632&#45;&gt;633</title>
<path fill="none" stroke="black" d="M1338.81,-71.76C1335.46,-63.04 1331.99,-54.04 1328.89,-45.99"/>
<polygon fill="black" stroke="black" points="1332.06,-44.48 1325.2,-36.41 1325.53,-46.99 1332.06,-44.48"/>
</g>
<!-- 668 -->
<g id="node31" class="node">
<title>668</title>
<polygon fill="#c0c0c0" stroke="black" points="1417.5,-36 1363.5,-36 1363.5,0 1417.5,0 1417.5,-36"/>
<text text-anchor="middle" x="1390.5" y="-14.3" font-family="Times,serif" font-size="14.00">(...)</text>
</g>
<!-- 632&#45;&gt;668 -->
<g id="edge30" class="edge">
<title>632&#45;&gt;668</title>
<path fill="none" stroke="black" d="M1370.19,-71.76C1373.54,-63.04 1377.01,-54.04 1380.11,-45.99"/>
<polygon fill="black" stroke="black" points="1383.47,-46.99 1383.8,-36.41 1376.94,-44.48 1383.47,-46.99"/>
</g>
</g>
</svg>
