<?xml version="1.0" encoding="UTF-8" standalone="no"?>
<!DOCTYPE svg PUBLIC "-//W3C//DTD SVG 1.1//EN"
 "http://www.w3.org/Graphics/SVG/1.1/DTD/svg11.dtd">
<!-- Generated by graphviz version 2.43.0 (0)
 -->
<!-- Title: Tree Pages: 1 -->
<svg width="1442pt" height="520pt"
 viewBox="0.00 0.00 1441.50 520.00" xmlns="http://www.w3.org/2000/svg" xmlns:xlink="http://www.w3.org/1999/xlink">
<g id="graph0" class="graph" transform="scale(1 1) rotate(0) translate(4 516)">
<title>Tree</title>
<polygon fill="white" stroke="transparent" points="-4,4 -4,-516 1437.5,-516 1437.5,4 -4,4"/>
<!-- 0 -->
<g id="node1" class="node">
<title>0</title>
<polygon fill="#98ccf1" stroke="black" points="822,-512 637,-512 637,-429 822,-429 822,-512"/>
<text text-anchor="middle" x="729.5" y="-496.8" font-family="Times,serif" font-size="14.00">CCR &lt;= 5.5</text>
<text text-anchor="middle" x="729.5" y="-481.8" font-family="Times,serif" font-size="14.00">gini = 0.438</text>
<text text-anchor="middle" x="729.5" y="-466.8" font-family="Times,serif" font-size="14.00">samples = 48239</text>
<text text-anchor="middle" x="729.5" y="-451.8" font-family="Times,serif" font-size="14.00">value = [15597, 32642]</text>
<text text-anchor="middle" x="729.5" y="-436.8" font-family="Times,serif" font-size="14.00">class = True</text>
</g>
<!-- 1 -->
<g id="node2" class="node">
<title>1</title>
<polygon fill="#83c2ef" stroke="black" points="640,-393 455,-393 455,-310 640,-310 640,-393"/>
<text text-anchor="middle" x="547.5" y="-377.8" font-family="Times,serif" font-size="14.00">CCR &lt;= 0.55</text>
<text text-anchor="middle" x="547.5" y="-362.8" font-family="Times,serif" font-size="14.00">gini = 0.396</text>
<text text-anchor="middle" x="547.5" y="-347.8" font-family="Times,serif" font-size="14.00">samples = 42785</text>
<text text-anchor="middle" x="547.5" y="-332.8" font-family="Times,serif" font-size="14.00">value = [11651, 31134]</text>
<text text-anchor="middle" x="547.5" y="-317.8" font-family="Times,serif" font-size="14.00">class = True</text>
</g>
<!-- 0&#45;&gt;1 -->
<g id="edge1" class="edge">
<title>0&#45;&gt;1</title>
<path fill="none" stroke="black" d="M666.36,-428.91C651.11,-419.11 634.71,-408.56 619.11,-398.53"/>
<polygon fill="black" stroke="black" points="620.84,-395.48 610.53,-393.02 617.05,-401.37 620.84,-395.48"/>
<text text-anchor="middle" x="615.84" y="-413.75" font-family="Times,serif" font-size="14.00">True</text>
</g>
<!-- 436 -->
<g id="node17" class="node">
<title>436</title>
<polygon fill="#efb185" stroke="black" points="998,-393 831,-393 831,-310 998,-310 998,-393"/>
<text text-anchor="middle" x="914.5" y="-377.8" font-family="Times,serif" font-size="14.00">graphSize &lt;= 22.5</text>
<text text-anchor="middle" x="914.5" y="-362.8" font-family="Times,serif" font-size="14.00">gini = 0.4</text>
<text text-anchor="middle" x="914.5" y="-347.8" font-family="Times,serif" font-size="14.00">samples = 5454</text>
<text text-anchor="middle" x="914.5" y="-332.8" font-family="Times,serif" font-size="14.00">value = [3946, 1508]</text>
<text text-anchor="middle" x="914.5" y="-317.8" font-family="Times,serif" font-size="14.00">class = False</text>
</g>
<!-- 0&#45;&gt;436 -->
<g id="edge16" class="edge">
<title>0&#45;&gt;436</title>
<path fill="none" stroke="black" d="M793.68,-428.91C809.18,-419.11 825.85,-408.56 841.71,-398.53"/>
<polygon fill="black" stroke="black" points="843.85,-401.32 850.43,-393.02 840.11,-395.41 843.85,-401.32"/>
<text text-anchor="middle" x="844.94" y="-413.71" font-family="Times,serif" font-size="14.00">False</text>
</g>
<!-- 2 -->
<g id="node3" class="node">
<title>2</title>
<polygon fill="#a5d2f3" stroke="black" points="356.5,-274 180.5,-274 180.5,-191 356.5,-191 356.5,-274"/>
<text text-anchor="middle" x="268.5" y="-258.8" font-family="Times,serif" font-size="14.00">sdComp &lt;= 0.065</text>
<text text-anchor="middle" x="268.5" y="-243.8" font-family="Times,serif" font-size="14.00">gini = 0.456</text>
<text text-anchor="middle" x="268.5" y="-228.8" font-family="Times,serif" font-size="14.00">samples = 25328</text>
<text text-anchor="middle" x="268.5" y="-213.8" font-family="Times,serif" font-size="14.00">value = [8926, 16402]</text>
<text text-anchor="middle" x="268.5" y="-198.8" font-family="Times,serif" font-size="14.00">class = True</text>
</g>
<!-- 1&#45;&gt;2 -->
<g id="edge2" class="edge">
<title>1&#45;&gt;2</title>
<path fill="none" stroke="black" d="M454.98,-311.7C426.36,-299.7 394.74,-286.44 365.8,-274.3"/>
<polygon fill="black" stroke="black" points="367.08,-271.05 356.51,-270.41 364.38,-277.5 367.08,-271.05"/>
</g>
<!-- 235 -->
<g id="node10" class="node">
<title>235</title>
<polygon fill="#5eafea" stroke="black" points="635.5,-274 459.5,-274 459.5,-191 635.5,-191 635.5,-274"/>
<text text-anchor="middle" x="547.5" y="-258.8" font-family="Times,serif" font-size="14.00">sdComp &lt;= 0.65</text>
<text text-anchor="middle" x="547.5" y="-243.8" font-family="Times,serif" font-size="14.00">gini = 0.263</text>
<text text-anchor="middle" x="547.5" y="-228.8" font-family="Times,serif" font-size="14.00">samples = 17457</text>
<text text-anchor="middle" x="547.5" y="-213.8" font-family="Times,serif" font-size="14.00">value = [2725, 14732]</text>
<text text-anchor="middle" x="547.5" y="-198.8" font-family="Times,serif" font-size="14.00">class = True</text>
</g>
<!-- 1&#45;&gt;235 -->
<g id="edge9" class="edge">
<title>1&#45;&gt;235</title>
<path fill="none" stroke="black" d="M547.5,-309.91C547.5,-301.65 547.5,-292.86 547.5,-284.3"/>
<polygon fill="black" stroke="black" points="551,-284.02 547.5,-274.02 544,-284.02 551,-284.02"/>
</g>
<!-- 3 -->
<g id="node4" class="node">
<title>3</title>
<polygon fill="#78bced" stroke="black" points="167,-155 0,-155 0,-72 167,-72 167,-155"/>
<text text-anchor="middle" x="83.5" y="-139.8" font-family="Times,serif" font-size="14.00">graphSize &lt;= 40.0</text>
<text text-anchor="middle" x="83.5" y="-124.8" font-family="Times,serif" font-size="14.00">gini = 0.365</text>
<text text-anchor="middle" x="83.5" y="-109.8" font-family="Times,serif" font-size="14.00">samples = 10976</text>
<text text-anchor="middle" x="83.5" y="-94.8" font-family="Times,serif" font-size="14.00">value = [2634, 8342]</text>
<text text-anchor="middle" x="83.5" y="-79.8" font-family="Times,serif" font-size="14.00">class = True</text>
</g>
<!-- 2&#45;&gt;3 -->
<g id="edge3" class="edge">
<title>2&#45;&gt;3</title>
<path fill="none" stroke="black" d="M204.32,-190.91C188.82,-181.11 172.15,-170.56 156.29,-160.53"/>
<polygon fill="black" stroke="black" points="157.89,-157.41 147.57,-155.02 154.15,-163.32 157.89,-157.41"/>
</g>
<!-- 142 -->
<g id="node7" class="node">
<title>142</title>
<polygon fill="#d4eaf9" stroke="black" points="352,-155 185,-155 185,-72 352,-72 352,-155"/>
<text text-anchor="middle" x="268.5" y="-139.8" font-family="Times,serif" font-size="14.00">sdComm &lt;= 0.02</text>
<text text-anchor="middle" x="268.5" y="-124.8" font-family="Times,serif" font-size="14.00">gini = 0.492</text>
<text text-anchor="middle" x="268.5" y="-109.8" font-family="Times,serif" font-size="14.00">samples = 14352</text>
<text text-anchor="middle" x="268.5" y="-94.8" font-family="Times,serif" font-size="14.00">value = [6292, 8060]</text>
<text text-anchor="middle" x="268.5" y="-79.8" font-family="Times,serif" font-size="14.00">class = True</text>
</g>
<!-- 2&#45;&gt;142 -->
<g id="edge6" class="edge">
<title>2&#45;&gt;142</title>
<path fill="none" stroke="black" d="M268.5,-190.91C268.5,-182.65 268.5,-173.86 268.5,-165.3"/>
<polygon fill="black" stroke="black" points="272,-165.02 268.5,-155.02 265,-165.02 272,-165.02"/>
</g>
<!-- 4 -->
<g id="node5" class="node">
<title>4</title>
<polygon fill="#c0c0c0" stroke="black" points="74.5,-36 20.5,-36 20.5,0 74.5,0 74.5,-36"/>
<text text-anchor="middle" x="47.5" y="-14.3" font-family="Times,serif" font-size="14.00">(...)</text>
</g>
<!-- 3&#45;&gt;4 -->
<g id="edge4" class="edge">
<title>3&#45;&gt;4</title>
<path fill="none" stroke="black" d="M67.81,-71.76C64.46,-63.04 60.99,-54.04 57.89,-45.99"/>
<polygon fill="black" stroke="black" points="61.06,-44.48 54.2,-36.41 54.53,-46.99 61.06,-44.48"/>
</g>
<!-- 97 -->
<g id="node6" class="node">
<title>97</title>
<polygon fill="#c0c0c0" stroke="black" points="146.5,-36 92.5,-36 92.5,0 146.5,0 146.5,-36"/>
<text text-anchor="middle" x="119.5" y="-14.3" font-family="Times,serif" font-size="14.00">(...)</text>
</g>
<!-- 3&#45;&gt;97 -->
<g id="edge5" class="edge">
<title>3&#45;&gt;97</title>
<path fill="none" stroke="black" d="M99.19,-71.76C102.54,-63.04 106.01,-54.04 109.11,-45.99"/>
<polygon fill="black" stroke="black" points="112.47,-46.99 112.8,-36.41 105.94,-44.48 112.47,-46.99"/>
</g>
<!-- 143 -->
<g id="node8" class="node">
<title>143</title>
<polygon fill="#c0c0c0" stroke="black" points="268.5,-36 214.5,-36 214.5,0 268.5,0 268.5,-36"/>
<text text-anchor="middle" x="241.5" y="-14.3" font-family="Times,serif" font-size="14.00">(...)</text>
</g>
<!-- 142&#45;&gt;143 -->
<g id="edge7" class="edge">
<title>142&#45;&gt;143</title>
<path fill="none" stroke="black" d="M256.74,-71.76C254.25,-63.14 251.68,-54.24 249.37,-46.26"/>
<polygon fill="black" stroke="black" points="252.66,-45.04 246.53,-36.41 245.94,-46.98 252.66,-45.04"/>
</g>
<!-- 172 -->
<g id="node9" class="node">
<title>172</title>
<polygon fill="#c0c0c0" stroke="black" points="340.5,-36 286.5,-36 286.5,0 340.5,0 340.5,-36"/>
<text text-anchor="middle" x="313.5" y="-14.3" font-family="Times,serif" font-size="14.00">(...)</text>
</g>
<!-- 142&#45;&gt;172 -->
<g id="edge8" class="edge">
<title>142&#45;&gt;172</title>
<path fill="none" stroke="black" d="M288.11,-71.76C292.4,-62.85 296.83,-53.64 300.77,-45.46"/>
<polygon fill="black" stroke="black" points="303.94,-46.93 305.12,-36.41 297.63,-43.9 303.94,-46.93"/>
</g>
<!-- 236 -->
<g id="node11" class="node">
<title>236</title>
<polygon fill="#51a9e8" stroke="black" points="545.5,-155 369.5,-155 369.5,-72 545.5,-72 545.5,-155"/>
<text text-anchor="middle" x="457.5" y="-139.8" font-family="Times,serif" font-size="14.00">graphSize &lt;= 22.5</text>
<text text-anchor="middle" x="457.5" y="-124.8" font-family="Times,serif" font-size="14.00">gini = 0.195</text>
<text text-anchor="middle" x="457.5" y="-109.8" font-family="Times,serif" font-size="14.00">samples = 12368</text>
<text text-anchor="middle" x="457.5" y="-94.8" font-family="Times,serif" font-size="14.00">value = [1354, 11014]</text>
<text text-anchor="middle" x="457.5" y="-79.8" font-family="Times,serif" font-size="14.00">class = True</text>
</g>
<!-- 235&#45;&gt;236 -->
<g id="edge10" class="edge">
<title>235&#45;&gt;236</title>
<path fill="none" stroke="black" d="M516.27,-190.91C509.36,-181.92 501.97,-172.32 494.85,-163.05"/>
<polygon fill="black" stroke="black" points="497.54,-160.81 488.67,-155.02 491.99,-165.08 497.54,-160.81"/>
</g>
<!-- 349 -->
<g id="node14" class="node">
<title>349</title>
<polygon fill="#82c1ef" stroke="black" points="730,-155 563,-155 563,-72 730,-72 730,-155"/>
<text text-anchor="middle" x="646.5" y="-139.8" font-family="Times,serif" font-size="14.00">sdComm &lt;= 0.65</text>
<text text-anchor="middle" x="646.5" y="-124.8" font-family="Times,serif" font-size="14.00">gini = 0.394</text>
<text text-anchor="middle" x="646.5" y="-109.8" font-family="Times,serif" font-size="14.00">samples = 5089</text>
<text text-anchor="middle" x="646.5" y="-94.8" font-family="Times,serif" font-size="14.00">value = [1371, 3718]</text>
<text text-anchor="middle" x="646.5" y="-79.8" font-family="Times,serif" font-size="14.00">class = True</text>
</g>
<!-- 235&#45;&gt;349 -->
<g id="edge13" class="edge">
<title>235&#45;&gt;349</title>
<path fill="none" stroke="black" d="M581.85,-190.91C589.53,-181.83 597.74,-172.12 605.66,-162.77"/>
<polygon fill="black" stroke="black" points="608.43,-164.92 612.21,-155.02 603.08,-160.39 608.43,-164.92"/>
</g>
<!-- 237 -->
<g id="node12" class="node">
<title>237</title>
<polygon fill="#c0c0c0" stroke="black" points="434.5,-36 380.5,-36 380.5,0 434.5,0 434.5,-36"/>
<text text-anchor="middle" x="407.5" y="-14.3" font-family="Times,serif" font-size="14.00">(...)</text>
</g>
<!-- 236&#45;&gt;237 -->
<g id="edge11" class="edge">
<title>236&#45;&gt;237</title>
<path fill="none" stroke="black" d="M435.71,-71.76C430.95,-62.85 426.02,-53.64 421.65,-45.46"/>
<polygon fill="black" stroke="black" points="424.61,-43.57 416.81,-36.41 418.44,-46.87 424.61,-43.57"/>
</g>
<!-- 284 -->
<g id="node13" class="node">
<title>284</title>
<polygon fill="#c0c0c0" stroke="black" points="506.5,-36 452.5,-36 452.5,0 506.5,0 506.5,-36"/>
<text text-anchor="middle" x="479.5" y="-14.3" font-family="Times,serif" font-size="14.00">(...)</text>
</g>
<!-- 236&#45;&gt;284 -->
<g id="edge12" class="edge">
<title>236&#45;&gt;284</title>
<path fill="none" stroke="black" d="M467.09,-71.76C469.11,-63.14 471.21,-54.24 473.09,-46.26"/>
<polygon fill="black" stroke="black" points="476.52,-46.94 475.4,-36.41 469.71,-45.34 476.52,-46.94"/>
</g>
<!-- 350 -->
<g id="node15" class="node">
<title>350</title>
<polygon fill="#c0c0c0" stroke="black" points="619.5,-36 565.5,-36 565.5,0 619.5,0 619.5,-36"/>
<text text-anchor="middle" x="592.5" y="-14.3" font-family="Times,serif" font-size="14.00">(...)</text>
</g>
<!-- 349&#45;&gt;350 -->
<g id="edge14" class="edge">
<title>349&#45;&gt;350</title>
<path fill="none" stroke="black" d="M622.97,-71.76C617.77,-62.75 612.39,-53.44 607.63,-45.19"/>
<polygon fill="black" stroke="black" points="610.58,-43.31 602.55,-36.41 604.52,-46.82 610.58,-43.31"/>
</g>
<!-- 407 -->
<g id="node16" class="node">
<title>407</title>
<polygon fill="#c0c0c0" stroke="black" points="691.5,-36 637.5,-36 637.5,0 691.5,0 691.5,-36"/>
<text text-anchor="middle" x="664.5" y="-14.3" font-family="Times,serif" font-size="14.00">(...)</text>
</g>
<!-- 349&#45;&gt;407 -->
<g id="edge15" class="edge">
<title>349&#45;&gt;407</title>
<path fill="none" stroke="black" d="M654.34,-71.76C656,-63.14 657.72,-54.24 659.25,-46.26"/>
<polygon fill="black" stroke="black" points="662.7,-46.89 661.15,-36.41 655.82,-45.56 662.7,-46.89"/>
</g>
<!-- 437 -->
<g id="node18" class="node">
<title>437</title>
<polygon fill="#f4cbad" stroke="black" points="993.5,-274 835.5,-274 835.5,-191 993.5,-191 993.5,-274"/>
<text text-anchor="middle" x="914.5" y="-258.8" font-family="Times,serif" font-size="14.00">sdComm &lt;= 6.5</text>
<text text-anchor="middle" x="914.5" y="-243.8" font-family="Times,serif" font-size="14.00">gini = 0.466</text>
<text text-anchor="middle" x="914.5" y="-228.8" font-family="Times,serif" font-size="14.00">samples = 2454</text>
<text text-anchor="middle" x="914.5" y="-213.8" font-family="Times,serif" font-size="14.00">value = [1546, 908]</text>
<text text-anchor="middle" x="914.5" y="-198.8" font-family="Times,serif" font-size="14.00">class = False</text>
</g>
<!-- 436&#45;&gt;437 -->
<g id="edge17" class="edge">
<title>436&#45;&gt;437</title>
<path fill="none" stroke="black" d="M914.5,-309.91C914.5,-301.65 914.5,-292.86 914.5,-284.3"/>
<polygon fill="black" stroke="black" points="918,-284.02 914.5,-274.02 911,-284.02 918,-284.02"/>
</g>
<!-- 478 -->
<g id="node25" class="node">
<title>478</title>
<polygon fill="#eca06a" stroke="black" points="1257.5,-274 1099.5,-274 1099.5,-191 1257.5,-191 1257.5,-274"/>
<text text-anchor="middle" x="1178.5" y="-258.8" font-family="Times,serif" font-size="14.00">sdComp &lt;= 6.5</text>
<text text-anchor="middle" x="1178.5" y="-243.8" font-family="Times,serif" font-size="14.00">gini = 0.32</text>
<text text-anchor="middle" x="1178.5" y="-228.8" font-family="Times,serif" font-size="14.00">samples = 3000</text>
<text text-anchor="middle" x="1178.5" y="-213.8" font-family="Times,serif" font-size="14.00">value = [2400, 600]</text>
<text text-anchor="middle" x="1178.5" y="-198.8" font-family="Times,serif" font-size="14.00">class = False</text>
</g>
<!-- 436&#45;&gt;478 -->
<g id="edge24" class="edge">
<title>436&#45;&gt;478</title>
<path fill="none" stroke="black" d="M998.03,-313.48C1027.2,-300.55 1060.04,-286 1089.63,-272.89"/>
<polygon fill="black" stroke="black" points="1091.39,-275.93 1099.11,-268.68 1088.55,-269.54 1091.39,-275.93"/>
</g>
<!-- 438 -->
<g id="node19" class="node">
<title>438</title>
<polygon fill="#fbece1" stroke="black" points="905.5,-155 747.5,-155 747.5,-72 905.5,-72 905.5,-155"/>
<text text-anchor="middle" x="826.5" y="-139.8" font-family="Times,serif" font-size="14.00">sdComp &lt;= 2.0</text>
<text text-anchor="middle" x="826.5" y="-124.8" font-family="Times,serif" font-size="14.00">gini = 0.497</text>
<text text-anchor="middle" x="826.5" y="-109.8" font-family="Times,serif" font-size="14.00">samples = 1930</text>
<text text-anchor="middle" x="826.5" y="-94.8" font-family="Times,serif" font-size="14.00">value = [1044, 886]</text>
<text text-anchor="middle" x="826.5" y="-79.8" font-family="Times,serif" font-size="14.00">class = False</text>
</g>
<!-- 437&#45;&gt;438 -->
<g id="edge18" class="edge">
<title>437&#45;&gt;438</title>
<path fill="none" stroke="black" d="M883.97,-190.91C877.21,-181.92 869.98,-172.32 863.02,-163.05"/>
<polygon fill="black" stroke="black" points="865.79,-160.91 856.98,-155.02 860.19,-165.12 865.79,-160.91"/>
</g>
<!-- 471 -->
<g id="node22" class="node">
<title>471</title>
<polygon fill="#e68742" stroke="black" points="1081.5,-155 923.5,-155 923.5,-72 1081.5,-72 1081.5,-155"/>
<text text-anchor="middle" x="1002.5" y="-139.8" font-family="Times,serif" font-size="14.00">graphDepth &lt;= 3.5</text>
<text text-anchor="middle" x="1002.5" y="-124.8" font-family="Times,serif" font-size="14.00">gini = 0.08</text>
<text text-anchor="middle" x="1002.5" y="-109.8" font-family="Times,serif" font-size="14.00">samples = 524</text>
<text text-anchor="middle" x="1002.5" y="-94.8" font-family="Times,serif" font-size="14.00">value = [502, 22]</text>
<text text-anchor="middle" x="1002.5" y="-79.8" font-family="Times,serif" font-size="14.00">class = False</text>
</g>
<!-- 437&#45;&gt;471 -->
<g id="edge21" class="edge">
<title>437&#45;&gt;471</title>
<path fill="none" stroke="black" d="M945.03,-190.91C951.79,-181.92 959.02,-172.32 965.98,-163.05"/>
<polygon fill="black" stroke="black" points="968.81,-165.12 972.02,-155.02 963.21,-160.91 968.81,-165.12"/>
</g>
<!-- 439 -->
<g id="node20" class="node">
<title>439</title>
<polygon fill="#c0c0c0" stroke="black" points="797.5,-36 743.5,-36 743.5,0 797.5,0 797.5,-36"/>
<text text-anchor="middle" x="770.5" y="-14.3" font-family="Times,serif" font-size="14.00">(...)</text>
</g>
<!-- 438&#45;&gt;439 -->
<g id="edge19" class="edge">
<title>438&#45;&gt;439</title>
<path fill="none" stroke="black" d="M802.1,-71.76C796.7,-62.75 791.13,-53.44 786.19,-45.19"/>
<polygon fill="black" stroke="black" points="789.07,-43.19 780.92,-36.41 783.06,-46.78 789.07,-43.19"/>
</g>
<!-- 448 -->
<g id="node21" class="node">
<title>448</title>
<polygon fill="#c0c0c0" stroke="black" points="869.5,-36 815.5,-36 815.5,0 869.5,0 869.5,-36"/>
<text text-anchor="middle" x="842.5" y="-14.3" font-family="Times,serif" font-size="14.00">(...)</text>
</g>
<!-- 438&#45;&gt;448 -->
<g id="edge20" class="edge">
<title>438&#45;&gt;448</title>
<path fill="none" stroke="black" d="M833.47,-71.76C834.93,-63.24 836.44,-54.44 837.79,-46.53"/>
<polygon fill="black" stroke="black" points="841.28,-46.85 839.52,-36.41 834.38,-45.67 841.28,-46.85"/>
</g>
<!-- 472 -->
<g id="node23" class="node">
<title>472</title>
<polygon fill="#c0c0c0" stroke="black" points="973.5,-36 919.5,-36 919.5,0 973.5,0 973.5,-36"/>
<text text-anchor="middle" x="946.5" y="-14.3" font-family="Times,serif" font-size="14.00">(...)</text>
</g>
<!-- 471&#45;&gt;472 -->
<g id="edge22" class="edge">
<title>471&#45;&gt;472</title>
<path fill="none" stroke="black" d="M978.1,-71.76C972.7,-62.75 967.13,-53.44 962.19,-45.19"/>
<polygon fill="black" stroke="black" points="965.07,-43.19 956.92,-36.41 959.06,-46.78 965.07,-43.19"/>
</g>
<!-- 477 -->
<g id="node24" class="node">
<title>477</title>
<polygon fill="#c0c0c0" stroke="black" points="1045.5,-36 991.5,-36 991.5,0 1045.5,0 1045.5,-36"/>
<text text-anchor="middle" x="1018.5" y="-14.3" font-family="Times,serif" font-size="14.00">(...)</text>
</g>
<!-- 471&#45;&gt;477 -->
<g id="edge23" class="edge">
<title>471&#45;&gt;477</title>
<path fill="none" stroke="black" d="M1009.47,-71.76C1010.93,-63.24 1012.44,-54.44 1013.79,-46.53"/>
<polygon fill="black" stroke="black" points="1017.28,-46.85 1015.52,-36.41 1010.38,-45.67 1017.28,-46.85"/>
</g>
<!-- 479 -->
<g id="node26" class="node">
<title>479</title>
<polygon fill="#efb286" stroke="black" points="1257.5,-155 1099.5,-155 1099.5,-72 1257.5,-72 1257.5,-155"/>
<text text-anchor="middle" x="1178.5" y="-139.8" font-family="Times,serif" font-size="14.00">graphSize &lt;= 75.0</text>
<text text-anchor="middle" x="1178.5" y="-124.8" font-family="Times,serif" font-size="14.00">gini = 0.403</text>
<text text-anchor="middle" x="1178.5" y="-109.8" font-family="Times,serif" font-size="14.00">samples = 1610</text>
<text text-anchor="middle" x="1178.5" y="-94.8" font-family="Times,serif" font-size="14.00">value = [1160, 450]</text>
<text text-anchor="middle" x="1178.5" y="-79.8" font-family="Times,serif" font-size="14.00">class = False</text>
</g>
<!-- 478&#45;&gt;479 -->
<g id="edge25" class="edge">
<title>478&#45;&gt;479</title>
<path fill="none" stroke="black" d="M1178.5,-190.91C1178.5,-182.65 1178.5,-173.86 1178.5,-165.3"/>
<polygon fill="black" stroke="black" points="1182,-165.02 1178.5,-155.02 1175,-165.02 1182,-165.02"/>
</g>
<!-- 530 -->
<g id="node29" class="node">
<title>530</title>
<polygon fill="#e89051" stroke="black" points="1433.5,-155 1275.5,-155 1275.5,-72 1433.5,-72 1433.5,-155"/>
<text text-anchor="middle" x="1354.5" y="-139.8" font-family="Times,serif" font-size="14.00">sdComm &lt;= 6.5</text>
<text text-anchor="middle" x="1354.5" y="-124.8" font-family="Times,serif" font-size="14.00">gini = 0.193</text>
<text text-anchor="middle" x="1354.5" y="-109.8" font-family="Times,serif" font-size="14.00">samples = 1390</text>
<text text-anchor="middle" x="1354.5" y="-94.8" font-family="Times,serif" font-size="14.00">value = [1240, 150]</text>
<text text-anchor="middle" x="1354.5" y="-79.8" font-family="Times,serif" font-size="14.00">class = False</text>
</g>
<!-- 478&#45;&gt;530 -->
<g id="edge28" class="edge">
<title>478&#45;&gt;530</title>
<path fill="none" stroke="black" d="M1239.56,-190.91C1254.17,-181.2 1269.87,-170.76 1284.84,-160.81"/>
<polygon fill="black" stroke="black" points="1287.16,-163.47 1293.55,-155.02 1283.28,-157.64 1287.16,-163.47"/>
</g>
<!-- 480 -->
<g id="node27" class="node">
<title>480</title>
<polygon fill="#c0c0c0" stroke="black" points="1167.5,-36 1113.5,-36 1113.5,0 1167.5,0 1167.5,-36"/>
<text text-anchor="middle" x="1140.5" y="-14.3" font-family="Times,serif" font-size="14.00">(...)</text>
</g>
<!-- 479&#45;&gt;480 -->
<g id="edge26" class="edge">
<title>479&#45;&gt;480</title>
<path fill="none" stroke="black" d="M1161.94,-71.76C1158.36,-62.94 1154.66,-53.84 1151.36,-45.72"/>
<polygon fill="black" stroke="black" points="1154.58,-44.35 1147.57,-36.41 1148.1,-46.99 1154.58,-44.35"/>
</g>
<!-- 523 -->
<g id="node28" class="node">
<title>523</title>
<polygon fill="#c0c0c0" stroke="black" points="1239.5,-36 1185.5,-36 1185.5,0 1239.5,0 1239.5,-36"/>
<text text-anchor="middle" x="1212.5" y="-14.3" font-family="Times,serif" font-size="14.00">(...)</text>
</g>
<!-- 479&#45;&gt;523 -->
<g id="edge27" class="edge">
<title>479&#45;&gt;523</title>
<path fill="none" stroke="black" d="M1193.31,-71.76C1196.48,-63.04 1199.76,-54.04 1202.68,-45.99"/>
<polygon fill="black" stroke="black" points="1206.04,-47 1206.17,-36.41 1199.46,-44.61 1206.04,-47"/>
</g>
<!-- 531 -->
<g id="node30" class="node">
<title>531</title>
<polygon fill="#c0c0c0" stroke="black" points="1345.5,-36 1291.5,-36 1291.5,0 1345.5,0 1345.5,-36"/>
<text text-anchor="middle" x="1318.5" y="-14.3" font-family="Times,serif" font-size="14.00">(...)</text>
</g>
<!-- 530&#45;&gt;531 -->
<g id="edge29" class="edge">
<title>530&#45;&gt;531</title>
<path fill="none" stroke="black" d="M1338.81,-71.76C1335.46,-63.04 1331.99,-54.04 1328.89,-45.99"/>
<polygon fill="black" stroke="black" points="1332.06,-44.48 1325.2,-36.41 1325.53,-46.99 1332.06,-44.48"/>
</g>
<!-- 544 -->
<g id="node31" class="node">
<title>544</title>
<polygon fill="#c0c0c0" stroke="black" points="1417.5,-36 1363.5,-36 1363.5,0 1417.5,0 1417.5,-36"/>
<text text-anchor="middle" x="1390.5" y="-14.3" font-family="Times,serif" font-size="14.00">(...)</text>
</g>
<!-- 530&#45;&gt;544 -->
<g id="edge30" class="edge">
<title>530&#45;&gt;544</title>
<path fill="none" stroke="black" d="M1370.19,-71.76C1373.54,-63.04 1377.01,-54.04 1380.11,-45.99"/>
<polygon fill="black" stroke="black" points="1383.47,-46.99 1383.8,-36.41 1376.94,-44.48 1383.47,-46.99"/>
</g>
</g>
</svg>
