<?xml version="1.0" encoding="UTF-8" standalone="no"?>
<!DOCTYPE svg PUBLIC "-//W3C//DTD SVG 1.1//EN"
 "http://www.w3.org/Graphics/SVG/1.1/DTD/svg11.dtd">
<!-- Generated by graphviz version 2.43.0 (0)
 -->
<!-- Title: Tree Pages: 1 -->
<svg width="1474pt" height="520pt"
 viewBox="0.00 0.00 1473.50 520.00" xmlns="http://www.w3.org/2000/svg" xmlns:xlink="http://www.w3.org/1999/xlink">
<g id="graph0" class="graph" transform="scale(1 1) rotate(0) translate(4 516)">
<title>Tree</title>
<polygon fill="white" stroke="transparent" points="-4,4 -4,-516 1469.5,-516 1469.5,4 -4,4"/>
<!-- 0 -->
<g id="node1" class="node">
<title>0</title>
<polygon fill="#ffffff" stroke="black" points="794.5,-512 609.5,-512 609.5,-429 794.5,-429 794.5,-512"/>
<text text-anchor="middle" x="702" y="-496.8" font-family="Times,serif" font-size="14.00">graphDepth &lt;= 3.5</text>
<text text-anchor="middle" x="702" y="-481.8" font-family="Times,serif" font-size="14.00">gini = 0.5</text>
<text text-anchor="middle" x="702" y="-466.8" font-family="Times,serif" font-size="14.00">samples = 82155</text>
<text text-anchor="middle" x="702" y="-451.8" font-family="Times,serif" font-size="14.00">value = [41036, 41119]</text>
<text text-anchor="middle" x="702" y="-436.8" font-family="Times,serif" font-size="14.00">class = True</text>
</g>
<!-- 1 -->
<g id="node2" class="node">
<title>1</title>
<polygon fill="#fdfeff" stroke="black" points="605.5,-393 438.5,-393 438.5,-310 605.5,-310 605.5,-393"/>
<text text-anchor="middle" x="522" y="-377.8" font-family="Times,serif" font-size="14.00">sdComp &lt;= 0.2</text>
<text text-anchor="middle" x="522" y="-362.8" font-family="Times,serif" font-size="14.00">gini = 0.5</text>
<text text-anchor="middle" x="522" y="-347.8" font-family="Times,serif" font-size="14.00">samples = 12109</text>
<text text-anchor="middle" x="522" y="-332.8" font-family="Times,serif" font-size="14.00">value = [6024, 6085]</text>
<text text-anchor="middle" x="522" y="-317.8" font-family="Times,serif" font-size="14.00">class = True</text>
</g>
<!-- 0&#45;&gt;1 -->
<g id="edge1" class="edge">
<title>0&#45;&gt;1</title>
<path fill="none" stroke="black" d="M639.55,-428.91C624.47,-419.11 608.25,-408.56 592.82,-398.53"/>
<polygon fill="black" stroke="black" points="594.63,-395.54 584.34,-393.02 590.82,-401.41 594.63,-395.54"/>
<text text-anchor="middle" x="589.53" y="-413.78" font-family="Times,serif" font-size="14.00">True</text>
</g>
<!-- 108 -->
<g id="node17" class="node">
<title>108</title>
<polygon fill="#ffffff" stroke="black" points="993.5,-393 808.5,-393 808.5,-310 993.5,-310 993.5,-393"/>
<text text-anchor="middle" x="901" y="-377.8" font-family="Times,serif" font-size="14.00">sdComm &lt;= 6.5</text>
<text text-anchor="middle" x="901" y="-362.8" font-family="Times,serif" font-size="14.00">gini = 0.5</text>
<text text-anchor="middle" x="901" y="-347.8" font-family="Times,serif" font-size="14.00">samples = 70046</text>
<text text-anchor="middle" x="901" y="-332.8" font-family="Times,serif" font-size="14.00">value = [35012, 35034]</text>
<text text-anchor="middle" x="901" y="-317.8" font-family="Times,serif" font-size="14.00">class = True</text>
</g>
<!-- 0&#45;&gt;108 -->
<g id="edge16" class="edge">
<title>0&#45;&gt;108</title>
<path fill="none" stroke="black" d="M771.04,-428.91C787.87,-419.02 805.98,-408.37 823.18,-398.25"/>
<polygon fill="black" stroke="black" points="825.23,-401.11 832.08,-393.02 821.69,-395.07 825.23,-401.11"/>
<text text-anchor="middle" x="825.8" y="-413.52" font-family="Times,serif" font-size="14.00">False</text>
</g>
<!-- 2 -->
<g id="node3" class="node">
<title>2</title>
<polygon fill="#feffff" stroke="black" points="337.5,-274 170.5,-274 170.5,-191 337.5,-191 337.5,-274"/>
<text text-anchor="middle" x="254" y="-258.8" font-family="Times,serif" font-size="14.00">nbproc &lt;= 4.5</text>
<text text-anchor="middle" x="254" y="-243.8" font-family="Times,serif" font-size="14.00">gini = 0.5</text>
<text text-anchor="middle" x="254" y="-228.8" font-family="Times,serif" font-size="14.00">samples = 6680</text>
<text text-anchor="middle" x="254" y="-213.8" font-family="Times,serif" font-size="14.00">value = [3335, 3345]</text>
<text text-anchor="middle" x="254" y="-198.8" font-family="Times,serif" font-size="14.00">class = True</text>
</g>
<!-- 1&#45;&gt;2 -->
<g id="edge2" class="edge">
<title>1&#45;&gt;2</title>
<path fill="none" stroke="black" d="M438.31,-313.96C409.34,-301.32 376.71,-287.07 347.04,-274.12"/>
<polygon fill="black" stroke="black" points="348.09,-270.76 337.52,-269.96 345.28,-277.17 348.09,-270.76"/>
</g>
<!-- 49 -->
<g id="node10" class="node">
<title>49</title>
<polygon fill="#fbfdff" stroke="black" points="605.5,-274 438.5,-274 438.5,-191 605.5,-191 605.5,-274"/>
<text text-anchor="middle" x="522" y="-258.8" font-family="Times,serif" font-size="14.00">sdComm &lt;= 0.2</text>
<text text-anchor="middle" x="522" y="-243.8" font-family="Times,serif" font-size="14.00">gini = 0.5</text>
<text text-anchor="middle" x="522" y="-228.8" font-family="Times,serif" font-size="14.00">samples = 5429</text>
<text text-anchor="middle" x="522" y="-213.8" font-family="Times,serif" font-size="14.00">value = [2689, 2740]</text>
<text text-anchor="middle" x="522" y="-198.8" font-family="Times,serif" font-size="14.00">class = True</text>
</g>
<!-- 1&#45;&gt;49 -->
<g id="edge9" class="edge">
<title>1&#45;&gt;49</title>
<path fill="none" stroke="black" d="M522,-309.91C522,-301.65 522,-292.86 522,-284.3"/>
<polygon fill="black" stroke="black" points="525.5,-284.02 522,-274.02 518.5,-284.02 525.5,-284.02"/>
</g>
<!-- 3 -->
<g id="node4" class="node">
<title>3</title>
<polygon fill="#fdfeff" stroke="black" points="152,-155 0,-155 0,-72 152,-72 152,-155"/>
<text text-anchor="middle" x="76" y="-139.8" font-family="Times,serif" font-size="14.00">sdComm &lt;= 0.065</text>
<text text-anchor="middle" x="76" y="-124.8" font-family="Times,serif" font-size="14.00">gini = 0.5</text>
<text text-anchor="middle" x="76" y="-109.8" font-family="Times,serif" font-size="14.00">samples = 1884</text>
<text text-anchor="middle" x="76" y="-94.8" font-family="Times,serif" font-size="14.00">value = [937, 947]</text>
<text text-anchor="middle" x="76" y="-79.8" font-family="Times,serif" font-size="14.00">class = True</text>
</g>
<!-- 2&#45;&gt;3 -->
<g id="edge3" class="edge">
<title>2&#45;&gt;3</title>
<path fill="none" stroke="black" d="M192.24,-190.91C177.33,-181.11 161.29,-170.56 146.03,-160.53"/>
<polygon fill="black" stroke="black" points="147.93,-157.59 137.65,-155.02 144.08,-163.44 147.93,-157.59"/>
</g>
<!-- 26 -->
<g id="node7" class="node">
<title>26</title>
<polygon fill="#ffffff" stroke="black" points="337.5,-155 170.5,-155 170.5,-72 337.5,-72 337.5,-155"/>
<text text-anchor="middle" x="254" y="-139.8" font-family="Times,serif" font-size="14.00">CCR &lt;= 0.55</text>
<text text-anchor="middle" x="254" y="-124.8" font-family="Times,serif" font-size="14.00">gini = 0.5</text>
<text text-anchor="middle" x="254" y="-109.8" font-family="Times,serif" font-size="14.00">samples = 4796</text>
<text text-anchor="middle" x="254" y="-94.8" font-family="Times,serif" font-size="14.00">value = [2398, 2398]</text>
<text text-anchor="middle" x="254" y="-79.8" font-family="Times,serif" font-size="14.00">class = False</text>
</g>
<!-- 2&#45;&gt;26 -->
<g id="edge6" class="edge">
<title>2&#45;&gt;26</title>
<path fill="none" stroke="black" d="M254,-190.91C254,-182.65 254,-173.86 254,-165.3"/>
<polygon fill="black" stroke="black" points="257.5,-165.02 254,-155.02 250.5,-165.02 257.5,-165.02"/>
</g>
<!-- 4 -->
<g id="node5" class="node">
<title>4</title>
<polygon fill="#c0c0c0" stroke="black" points="67,-36 13,-36 13,0 67,0 67,-36"/>
<text text-anchor="middle" x="40" y="-14.3" font-family="Times,serif" font-size="14.00">(...)</text>
</g>
<!-- 3&#45;&gt;4 -->
<g id="edge4" class="edge">
<title>3&#45;&gt;4</title>
<path fill="none" stroke="black" d="M60.31,-71.76C56.96,-63.04 53.49,-54.04 50.39,-45.99"/>
<polygon fill="black" stroke="black" points="53.56,-44.48 46.7,-36.41 47.03,-46.99 53.56,-44.48"/>
</g>
<!-- 15 -->
<g id="node6" class="node">
<title>15</title>
<polygon fill="#c0c0c0" stroke="black" points="139,-36 85,-36 85,0 139,0 139,-36"/>
<text text-anchor="middle" x="112" y="-14.3" font-family="Times,serif" font-size="14.00">(...)</text>
</g>
<!-- 3&#45;&gt;15 -->
<g id="edge5" class="edge">
<title>3&#45;&gt;15</title>
<path fill="none" stroke="black" d="M91.69,-71.76C95.04,-63.04 98.51,-54.04 101.61,-45.99"/>
<polygon fill="black" stroke="black" points="104.97,-46.99 105.3,-36.41 98.44,-44.48 104.97,-46.99"/>
</g>
<!-- 27 -->
<g id="node8" class="node">
<title>27</title>
<polygon fill="#c0c0c0" stroke="black" points="252,-36 198,-36 198,0 252,0 252,-36"/>
<text text-anchor="middle" x="225" y="-14.3" font-family="Times,serif" font-size="14.00">(...)</text>
</g>
<!-- 26&#45;&gt;27 -->
<g id="edge7" class="edge">
<title>26&#45;&gt;27</title>
<path fill="none" stroke="black" d="M241.36,-71.76C238.66,-63.04 235.87,-54.04 233.37,-45.99"/>
<polygon fill="black" stroke="black" points="236.7,-44.92 230.4,-36.41 230.02,-46.99 236.7,-44.92"/>
</g>
<!-- 44 -->
<g id="node9" class="node">
<title>44</title>
<polygon fill="#c0c0c0" stroke="black" points="324,-36 270,-36 270,0 324,0 324,-36"/>
<text text-anchor="middle" x="297" y="-14.3" font-family="Times,serif" font-size="14.00">(...)</text>
</g>
<!-- 26&#45;&gt;44 -->
<g id="edge8" class="edge">
<title>26&#45;&gt;44</title>
<path fill="none" stroke="black" d="M272.74,-71.76C276.79,-62.94 280.98,-53.84 284.71,-45.72"/>
<polygon fill="black" stroke="black" points="288,-46.95 289,-36.41 281.64,-44.03 288,-46.95"/>
</g>
<!-- 50 -->
<g id="node11" class="node">
<title>50</title>
<polygon fill="#eff7fd" stroke="black" points="504.5,-155 355.5,-155 355.5,-72 504.5,-72 504.5,-155"/>
<text text-anchor="middle" x="430" y="-139.8" font-family="Times,serif" font-size="14.00">sdComp &lt;= 0.65</text>
<text text-anchor="middle" x="430" y="-124.8" font-family="Times,serif" font-size="14.00">gini = 0.499</text>
<text text-anchor="middle" x="430" y="-109.8" font-family="Times,serif" font-size="14.00">samples = 860</text>
<text text-anchor="middle" x="430" y="-94.8" font-family="Times,serif" font-size="14.00">value = [412, 448]</text>
<text text-anchor="middle" x="430" y="-79.8" font-family="Times,serif" font-size="14.00">class = True</text>
</g>
<!-- 49&#45;&gt;50 -->
<g id="edge10" class="edge">
<title>49&#45;&gt;50</title>
<path fill="none" stroke="black" d="M490.08,-190.91C483.02,-181.92 475.46,-172.32 468.18,-163.05"/>
<polygon fill="black" stroke="black" points="470.8,-160.72 461.86,-155.02 465.29,-165.05 470.8,-160.72"/>
</g>
<!-- 57 -->
<g id="node14" class="node">
<title>57</title>
<polygon fill="#fefeff" stroke="black" points="689.5,-155 522.5,-155 522.5,-72 689.5,-72 689.5,-155"/>
<text text-anchor="middle" x="606" y="-139.8" font-family="Times,serif" font-size="14.00">nbproc &lt;= 4.5</text>
<text text-anchor="middle" x="606" y="-124.8" font-family="Times,serif" font-size="14.00">gini = 0.5</text>
<text text-anchor="middle" x="606" y="-109.8" font-family="Times,serif" font-size="14.00">samples = 4569</text>
<text text-anchor="middle" x="606" y="-94.8" font-family="Times,serif" font-size="14.00">value = [2277, 2292]</text>
<text text-anchor="middle" x="606" y="-79.8" font-family="Times,serif" font-size="14.00">class = True</text>
</g>
<!-- 49&#45;&gt;57 -->
<g id="edge13" class="edge">
<title>49&#45;&gt;57</title>
<path fill="none" stroke="black" d="M551.14,-190.91C557.53,-182.01 564.35,-172.51 570.94,-163.33"/>
<polygon fill="black" stroke="black" points="573.92,-165.19 576.91,-155.02 568.23,-161.1 573.92,-165.19"/>
</g>
<!-- 51 -->
<g id="node12" class="node">
<title>51</title>
<polygon fill="#c0c0c0" stroke="black" points="427,-36 373,-36 373,0 427,0 427,-36"/>
<text text-anchor="middle" x="400" y="-14.3" font-family="Times,serif" font-size="14.00">(...)</text>
</g>
<!-- 50&#45;&gt;51 -->
<g id="edge11" class="edge">
<title>50&#45;&gt;51</title>
<path fill="none" stroke="black" d="M416.93,-71.76C414.13,-63.04 411.24,-54.04 408.66,-45.99"/>
<polygon fill="black" stroke="black" points="411.97,-44.86 405.58,-36.41 405.31,-47 411.97,-44.86"/>
</g>
<!-- 54 -->
<g id="node13" class="node">
<title>54</title>
<polygon fill="#c0c0c0" stroke="black" points="499,-36 445,-36 445,0 499,0 499,-36"/>
<text text-anchor="middle" x="472" y="-14.3" font-family="Times,serif" font-size="14.00">(...)</text>
</g>
<!-- 50&#45;&gt;54 -->
<g id="edge12" class="edge">
<title>50&#45;&gt;54</title>
<path fill="none" stroke="black" d="M448.3,-71.76C452.26,-62.94 456.35,-53.84 460,-45.72"/>
<polygon fill="black" stroke="black" points="463.28,-46.96 464.18,-36.41 456.89,-44.09 463.28,-46.96"/>
</g>
<!-- 58 -->
<g id="node15" class="node">
<title>58</title>
<polygon fill="#c0c0c0" stroke="black" points="586,-36 532,-36 532,0 586,0 586,-36"/>
<text text-anchor="middle" x="559" y="-14.3" font-family="Times,serif" font-size="14.00">(...)</text>
</g>
<!-- 57&#45;&gt;58 -->
<g id="edge14" class="edge">
<title>57&#45;&gt;58</title>
<path fill="none" stroke="black" d="M585.52,-71.76C581.04,-62.85 576.41,-53.64 572.3,-45.46"/>
<polygon fill="black" stroke="black" points="575.37,-43.77 567.75,-36.41 569.11,-46.91 575.37,-43.77"/>
</g>
<!-- 83 -->
<g id="node16" class="node">
<title>83</title>
<polygon fill="#c0c0c0" stroke="black" points="658,-36 604,-36 604,0 658,0 658,-36"/>
<text text-anchor="middle" x="631" y="-14.3" font-family="Times,serif" font-size="14.00">(...)</text>
</g>
<!-- 57&#45;&gt;83 -->
<g id="edge15" class="edge">
<title>57&#45;&gt;83</title>
<path fill="none" stroke="black" d="M616.89,-71.76C619.2,-63.14 621.58,-54.24 623.71,-46.26"/>
<polygon fill="black" stroke="black" points="627.14,-46.97 626.35,-36.41 620.38,-45.16 627.14,-46.97"/>
</g>
<!-- 109 -->
<g id="node18" class="node">
<title>109</title>
<polygon fill="#ffffff" stroke="black" points="993.5,-274 808.5,-274 808.5,-191 993.5,-191 993.5,-274"/>
<text text-anchor="middle" x="901" y="-258.8" font-family="Times,serif" font-size="14.00">nbproc &lt;= 4.5</text>
<text text-anchor="middle" x="901" y="-243.8" font-family="Times,serif" font-size="14.00">gini = 0.5</text>
<text text-anchor="middle" x="901" y="-228.8" font-family="Times,serif" font-size="14.00">samples = 62478</text>
<text text-anchor="middle" x="901" y="-213.8" font-family="Times,serif" font-size="14.00">value = [31237, 31241]</text>
<text text-anchor="middle" x="901" y="-198.8" font-family="Times,serif" font-size="14.00">class = True</text>
</g>
<!-- 108&#45;&gt;109 -->
<g id="edge17" class="edge">
<title>108&#45;&gt;109</title>
<path fill="none" stroke="black" d="M901,-309.91C901,-301.65 901,-292.86 901,-284.3"/>
<polygon fill="black" stroke="black" points="904.5,-284.02 901,-274.02 897.5,-284.02 904.5,-284.02"/>
</g>
<!-- 778 -->
<g id="node25" class="node">
<title>778</title>
<polygon fill="#feffff" stroke="black" points="1280.5,-274 1113.5,-274 1113.5,-191 1280.5,-191 1280.5,-274"/>
<text text-anchor="middle" x="1197" y="-258.8" font-family="Times,serif" font-size="14.00">graphDepth &lt;= 9.0</text>
<text text-anchor="middle" x="1197" y="-243.8" font-family="Times,serif" font-size="14.00">gini = 0.5</text>
<text text-anchor="middle" x="1197" y="-228.8" font-family="Times,serif" font-size="14.00">samples = 7568</text>
<text text-anchor="middle" x="1197" y="-213.8" font-family="Times,serif" font-size="14.00">value = [3775, 3793]</text>
<text text-anchor="middle" x="1197" y="-198.8" font-family="Times,serif" font-size="14.00">class = True</text>
</g>
<!-- 108&#45;&gt;778 -->
<g id="edge24" class="edge">
<title>108&#45;&gt;778</title>
<path fill="none" stroke="black" d="M993.84,-313.8C1028.71,-300.02 1068.35,-284.35 1103.3,-270.54"/>
<polygon fill="black" stroke="black" points="1105.01,-273.63 1113.02,-266.69 1102.43,-267.12 1105.01,-273.63"/>
</g>
<!-- 110 -->
<g id="node19" class="node">
<title>110</title>
<polygon fill="#ffffff" stroke="black" points="892.5,-155 707.5,-155 707.5,-72 892.5,-72 892.5,-155"/>
<text text-anchor="middle" x="800" y="-139.8" font-family="Times,serif" font-size="14.00">graphDepth &lt;= 6.5</text>
<text text-anchor="middle" x="800" y="-124.8" font-family="Times,serif" font-size="14.00">gini = 0.5</text>
<text text-anchor="middle" x="800" y="-109.8" font-family="Times,serif" font-size="14.00">samples = 25402</text>
<text text-anchor="middle" x="800" y="-94.8" font-family="Times,serif" font-size="14.00">value = [12699, 12703]</text>
<text text-anchor="middle" x="800" y="-79.8" font-family="Times,serif" font-size="14.00">class = True</text>
</g>
<!-- 109&#45;&gt;110 -->
<g id="edge18" class="edge">
<title>109&#45;&gt;110</title>
<path fill="none" stroke="black" d="M865.96,-190.91C858.12,-181.83 849.74,-172.12 841.67,-162.77"/>
<polygon fill="black" stroke="black" points="844.16,-160.3 834.98,-155.02 838.86,-164.88 844.16,-160.3"/>
</g>
<!-- 443 -->
<g id="node22" class="node">
<title>443</title>
<polygon fill="#ffffff" stroke="black" points="1095.5,-155 910.5,-155 910.5,-72 1095.5,-72 1095.5,-155"/>
<text text-anchor="middle" x="1003" y="-139.8" font-family="Times,serif" font-size="14.00">graphDepth &lt;= 6.5</text>
<text text-anchor="middle" x="1003" y="-124.8" font-family="Times,serif" font-size="14.00">gini = 0.5</text>
<text text-anchor="middle" x="1003" y="-109.8" font-family="Times,serif" font-size="14.00">samples = 37076</text>
<text text-anchor="middle" x="1003" y="-94.8" font-family="Times,serif" font-size="14.00">value = [18538, 18538]</text>
<text text-anchor="middle" x="1003" y="-79.8" font-family="Times,serif" font-size="14.00">class = False</text>
</g>
<!-- 109&#45;&gt;443 -->
<g id="edge21" class="edge">
<title>109&#45;&gt;443</title>
<path fill="none" stroke="black" d="M936.39,-190.91C944.3,-181.83 952.77,-172.12 960.92,-162.77"/>
<polygon fill="black" stroke="black" points="963.74,-164.86 967.67,-155.02 958.46,-160.26 963.74,-164.86"/>
</g>
<!-- 111 -->
<g id="node20" class="node">
<title>111</title>
<polygon fill="#c0c0c0" stroke="black" points="784,-36 730,-36 730,0 784,0 784,-36"/>
<text text-anchor="middle" x="757" y="-14.3" font-family="Times,serif" font-size="14.00">(...)</text>
</g>
<!-- 110&#45;&gt;111 -->
<g id="edge19" class="edge">
<title>110&#45;&gt;111</title>
<path fill="none" stroke="black" d="M781.26,-71.76C777.21,-62.94 773.02,-53.84 769.29,-45.72"/>
<polygon fill="black" stroke="black" points="772.36,-44.03 765,-36.41 766,-46.95 772.36,-44.03"/>
</g>
<!-- 206 -->
<g id="node21" class="node">
<title>206</title>
<polygon fill="#c0c0c0" stroke="black" points="856,-36 802,-36 802,0 856,0 856,-36"/>
<text text-anchor="middle" x="829" y="-14.3" font-family="Times,serif" font-size="14.00">(...)</text>
</g>
<!-- 110&#45;&gt;206 -->
<g id="edge20" class="edge">
<title>110&#45;&gt;206</title>
<path fill="none" stroke="black" d="M812.64,-71.76C815.34,-63.04 818.13,-54.04 820.63,-45.99"/>
<polygon fill="black" stroke="black" points="823.98,-46.99 823.6,-36.41 817.3,-44.92 823.98,-46.99"/>
</g>
<!-- 444 -->
<g id="node23" class="node">
<title>444</title>
<polygon fill="#c0c0c0" stroke="black" points="983,-36 929,-36 929,0 983,0 983,-36"/>
<text text-anchor="middle" x="956" y="-14.3" font-family="Times,serif" font-size="14.00">(...)</text>
</g>
<!-- 443&#45;&gt;444 -->
<g id="edge22" class="edge">
<title>443&#45;&gt;444</title>
<path fill="none" stroke="black" d="M982.52,-71.76C978.04,-62.85 973.41,-53.64 969.3,-45.46"/>
<polygon fill="black" stroke="black" points="972.37,-43.77 964.75,-36.41 966.11,-46.91 972.37,-43.77"/>
</g>
<!-- 539 -->
<g id="node24" class="node">
<title>539</title>
<polygon fill="#c0c0c0" stroke="black" points="1055,-36 1001,-36 1001,0 1055,0 1055,-36"/>
<text text-anchor="middle" x="1028" y="-14.3" font-family="Times,serif" font-size="14.00">(...)</text>
</g>
<!-- 443&#45;&gt;539 -->
<g id="edge23" class="edge">
<title>443&#45;&gt;539</title>
<path fill="none" stroke="black" d="M1013.89,-71.76C1016.2,-63.14 1018.58,-54.24 1020.71,-46.26"/>
<polygon fill="black" stroke="black" points="1024.14,-46.97 1023.35,-36.41 1017.38,-45.16 1024.14,-46.97"/>
</g>
<!-- 779 -->
<g id="node26" class="node">
<title>779</title>
<polygon fill="#fdfeff" stroke="black" points="1280.5,-155 1113.5,-155 1113.5,-72 1280.5,-72 1280.5,-155"/>
<text text-anchor="middle" x="1197" y="-139.8" font-family="Times,serif" font-size="14.00">graphSize &lt;= 22.5</text>
<text text-anchor="middle" x="1197" y="-124.8" font-family="Times,serif" font-size="14.00">gini = 0.5</text>
<text text-anchor="middle" x="1197" y="-109.8" font-family="Times,serif" font-size="14.00">samples = 2928</text>
<text text-anchor="middle" x="1197" y="-94.8" font-family="Times,serif" font-size="14.00">value = [1455, 1473]</text>
<text text-anchor="middle" x="1197" y="-79.8" font-family="Times,serif" font-size="14.00">class = True</text>
</g>
<!-- 778&#45;&gt;779 -->
<g id="edge25" class="edge">
<title>778&#45;&gt;779</title>
<path fill="none" stroke="black" d="M1197,-190.91C1197,-182.65 1197,-173.86 1197,-165.3"/>
<polygon fill="black" stroke="black" points="1200.5,-165.02 1197,-155.02 1193.5,-165.02 1200.5,-165.02"/>
</g>
<!-- 814 -->
<g id="node29" class="node">
<title>814</title>
<polygon fill="#ffffff" stroke="black" points="1465.5,-155 1298.5,-155 1298.5,-72 1465.5,-72 1465.5,-155"/>
<text text-anchor="middle" x="1382" y="-139.8" font-family="Times,serif" font-size="14.00">nbproc &lt;= 4.5</text>
<text text-anchor="middle" x="1382" y="-124.8" font-family="Times,serif" font-size="14.00">gini = 0.5</text>
<text text-anchor="middle" x="1382" y="-109.8" font-family="Times,serif" font-size="14.00">samples = 4640</text>
<text text-anchor="middle" x="1382" y="-94.8" font-family="Times,serif" font-size="14.00">value = [2320, 2320]</text>
<text text-anchor="middle" x="1382" y="-79.8" font-family="Times,serif" font-size="14.00">class = False</text>
</g>
<!-- 778&#45;&gt;814 -->
<g id="edge28" class="edge">
<title>778&#45;&gt;814</title>
<path fill="none" stroke="black" d="M1261.18,-190.91C1276.68,-181.11 1293.35,-170.56 1309.21,-160.53"/>
<polygon fill="black" stroke="black" points="1311.35,-163.32 1317.93,-155.02 1307.61,-157.41 1311.35,-163.32"/>
</g>
<!-- 780 -->
<g id="node27" class="node">
<title>780</title>
<polygon fill="#c0c0c0" stroke="black" points="1188,-36 1134,-36 1134,0 1188,0 1188,-36"/>
<text text-anchor="middle" x="1161" y="-14.3" font-family="Times,serif" font-size="14.00">(...)</text>
</g>
<!-- 779&#45;&gt;780 -->
<g id="edge26" class="edge">
<title>779&#45;&gt;780</title>
<path fill="none" stroke="black" d="M1181.31,-71.76C1177.96,-63.04 1174.49,-54.04 1171.39,-45.99"/>
<polygon fill="black" stroke="black" points="1174.56,-44.48 1167.7,-36.41 1168.03,-46.99 1174.56,-44.48"/>
</g>
<!-- 791 -->
<g id="node28" class="node">
<title>791</title>
<polygon fill="#c0c0c0" stroke="black" points="1260,-36 1206,-36 1206,0 1260,0 1260,-36"/>
<text text-anchor="middle" x="1233" y="-14.3" font-family="Times,serif" font-size="14.00">(...)</text>
</g>
<!-- 779&#45;&gt;791 -->
<g id="edge27" class="edge">
<title>779&#45;&gt;791</title>
<path fill="none" stroke="black" d="M1212.69,-71.76C1216.04,-63.04 1219.51,-54.04 1222.61,-45.99"/>
<polygon fill="black" stroke="black" points="1225.97,-46.99 1226.3,-36.41 1219.44,-44.48 1225.97,-46.99"/>
</g>
<!-- 815 -->
<g id="node30" class="node">
<title>815</title>
<polygon fill="#c0c0c0" stroke="black" points="1373,-36 1319,-36 1319,0 1373,0 1373,-36"/>
<text text-anchor="middle" x="1346" y="-14.3" font-family="Times,serif" font-size="14.00">(...)</text>
</g>
<!-- 814&#45;&gt;815 -->
<g id="edge29" class="edge">
<title>814&#45;&gt;815</title>
<path fill="none" stroke="black" d="M1366.31,-71.76C1362.96,-63.04 1359.49,-54.04 1356.39,-45.99"/>
<polygon fill="black" stroke="black" points="1359.56,-44.48 1352.7,-36.41 1353.03,-46.99 1359.56,-44.48"/>
</g>
<!-- 838 -->
<g id="node31" class="node">
<title>838</title>
<polygon fill="#c0c0c0" stroke="black" points="1445,-36 1391,-36 1391,0 1445,0 1445,-36"/>
<text text-anchor="middle" x="1418" y="-14.3" font-family="Times,serif" font-size="14.00">(...)</text>
</g>
<!-- 814&#45;&gt;838 -->
<g id="edge30" class="edge">
<title>814&#45;&gt;838</title>
<path fill="none" stroke="black" d="M1397.69,-71.76C1401.04,-63.04 1404.51,-54.04 1407.61,-45.99"/>
<polygon fill="black" stroke="black" points="1410.97,-46.99 1411.3,-36.41 1404.44,-44.48 1410.97,-46.99"/>
</g>
</g>
</svg>
