<?xml version="1.0" encoding="UTF-8" standalone="no"?>
<!DOCTYPE svg PUBLIC "-//W3C//DTD SVG 1.1//EN"
 "http://www.w3.org/Graphics/SVG/1.1/DTD/svg11.dtd">
<!-- Generated by graphviz version 2.43.0 (0)
 -->
<!-- Title: Tree Pages: 1 -->
<svg width="2535pt" height="520pt"
 viewBox="0.00 0.00 2534.50 520.00" xmlns="http://www.w3.org/2000/svg" xmlns:xlink="http://www.w3.org/1999/xlink">
<g id="graph0" class="graph" transform="scale(1 1) rotate(0) translate(4 516)">
<title>Tree</title>
<polygon fill="white" stroke="transparent" points="-4,4 -4,-516 2530.5,-516 2530.5,4 -4,4"/>
<!-- 0 -->
<g id="node1" class="node">
<title>0</title>
<polygon fill="#f8cce6" stroke="black" points="1425,-512 1042,-512 1042,-429 1425,-429 1425,-512"/>
<text text-anchor="middle" x="1233.5" y="-496.8" font-family="Times,serif" font-size="14.00">CCR &lt;= 5.5</text>
<text text-anchor="middle" x="1233.5" y="-481.8" font-family="Times,serif" font-size="14.00">gini = 0.751</text>
<text text-anchor="middle" x="1233.5" y="-466.8" font-family="Times,serif" font-size="14.00">samples = 82155</text>
<text text-anchor="middle" x="1233.5" y="-451.8" font-family="Times,serif" font-size="14.00">value = [13255, 3613, 12840, 4208, 15597, 32642]</text>
<text text-anchor="middle" x="1233.5" y="-436.8" font-family="Times,serif" font-size="14.00">class = GDL</text>
</g>
<!-- 1 -->
<g id="node2" class="node">
<title>1</title>
<polygon fill="#f3a7d3" stroke="black" points="1105,-393 758,-393 758,-310 1105,-310 1105,-393"/>
<text text-anchor="middle" x="931.5" y="-377.8" font-family="Times,serif" font-size="14.00">CCR &lt;= 0.55</text>
<text text-anchor="middle" x="931.5" y="-362.8" font-family="Times,serif" font-size="14.00">gini = 0.607</text>
<text text-anchor="middle" x="931.5" y="-347.8" font-family="Times,serif" font-size="14.00">samples = 55382</text>
<text text-anchor="middle" x="931.5" y="-332.8" font-family="Times,serif" font-size="14.00">value = [9865, 921, 316, 1495, 11651, 31134]</text>
<text text-anchor="middle" x="931.5" y="-317.8" font-family="Times,serif" font-size="14.00">class = GDL</text>
</g>
<!-- 0&#45;&gt;1 -->
<g id="edge1" class="edge">
<title>0&#45;&gt;1</title>
<path fill="none" stroke="black" d="M1128.72,-428.91C1101.9,-418.52 1072.93,-407.29 1045.66,-396.73"/>
<polygon fill="black" stroke="black" points="1046.68,-393.37 1036.09,-393.02 1044.15,-399.9 1046.68,-393.37"/>
<text text-anchor="middle" x="1046.19" y="-412.19" font-family="Times,serif" font-size="14.00">True</text>
</g>
<!-- 454 -->
<g id="node17" class="node">
<title>454</title>
<polygon fill="#b5f5d0" stroke="black" points="1747.5,-393 1391.5,-393 1391.5,-310 1747.5,-310 1747.5,-393"/>
<text text-anchor="middle" x="1569.5" y="-377.8" font-family="Times,serif" font-size="14.00">sdComp &lt;= 6.5</text>
<text text-anchor="middle" x="1569.5" y="-362.8" font-family="Times,serif" font-size="14.00">gini = 0.72</text>
<text text-anchor="middle" x="1569.5" y="-347.8" font-family="Times,serif" font-size="14.00">samples = 26773</text>
<text text-anchor="middle" x="1569.5" y="-332.8" font-family="Times,serif" font-size="14.00">value = [3390, 2692, 12524, 2713, 3946, 1508]</text>
<text text-anchor="middle" x="1569.5" y="-317.8" font-family="Times,serif" font-size="14.00">class = OLB</text>
</g>
<!-- 0&#45;&gt;454 -->
<g id="edge16" class="edge">
<title>0&#45;&gt;454</title>
<path fill="none" stroke="black" d="M1350.07,-428.91C1380.31,-418.38 1413,-407 1443.68,-396.31"/>
<polygon fill="black" stroke="black" points="1444.84,-399.61 1453.13,-393.02 1442.54,-393 1444.84,-399.61"/>
<text text-anchor="middle" x="1442.25" y="-411.83" font-family="Times,serif" font-size="14.00">False</text>
</g>
<!-- 2 -->
<g id="node3" class="node">
<title>2</title>
<polygon fill="#f7c6e3" stroke="black" points="631,-274 302,-274 302,-191 631,-191 631,-274"/>
<text text-anchor="middle" x="466.5" y="-258.8" font-family="Times,serif" font-size="14.00">sdComp &lt;= 0.065</text>
<text text-anchor="middle" x="466.5" y="-243.8" font-family="Times,serif" font-size="14.00">gini = 0.661</text>
<text text-anchor="middle" x="466.5" y="-228.8" font-family="Times,serif" font-size="14.00">samples = 34796</text>
<text text-anchor="middle" x="466.5" y="-213.8" font-family="Times,serif" font-size="14.00">value = [7734, 413, 98, 1223, 8926, 16402]</text>
<text text-anchor="middle" x="466.5" y="-198.8" font-family="Times,serif" font-size="14.00">class = GDL</text>
</g>
<!-- 1&#45;&gt;2 -->
<g id="edge2" class="edge">
<title>1&#45;&gt;2</title>
<path fill="none" stroke="black" d="M770.5,-309.99C727.56,-299.19 681.02,-287.48 637.56,-276.54"/>
<polygon fill="black" stroke="black" points="638.31,-273.12 627.76,-274.07 636.6,-279.91 638.31,-273.12"/>
</g>
<!-- 241 -->
<g id="node10" class="node">
<title>241</title>
<polygon fill="#ee7abd" stroke="black" points="1096,-274 767,-274 767,-191 1096,-191 1096,-274"/>
<text text-anchor="middle" x="931.5" y="-258.8" font-family="Times,serif" font-size="14.00">graphSize &lt;= 22.5</text>
<text text-anchor="middle" x="931.5" y="-243.8" font-family="Times,serif" font-size="14.00">gini = 0.459</text>
<text text-anchor="middle" x="931.5" y="-228.8" font-family="Times,serif" font-size="14.00">samples = 20586</text>
<text text-anchor="middle" x="931.5" y="-213.8" font-family="Times,serif" font-size="14.00">value = [2131, 508, 218, 272, 2725, 14732]</text>
<text text-anchor="middle" x="931.5" y="-198.8" font-family="Times,serif" font-size="14.00">class = GDL</text>
</g>
<!-- 1&#45;&gt;241 -->
<g id="edge9" class="edge">
<title>1&#45;&gt;241</title>
<path fill="none" stroke="black" d="M931.5,-309.91C931.5,-301.65 931.5,-292.86 931.5,-284.3"/>
<polygon fill="black" stroke="black" points="935,-284.02 931.5,-274.02 928,-284.02 935,-284.02"/>
</g>
<!-- 3 -->
<g id="node4" class="node">
<title>3</title>
<polygon fill="#f299cd" stroke="black" points="293,-155 0,-155 0,-72 293,-72 293,-155"/>
<text text-anchor="middle" x="146.5" y="-139.8" font-family="Times,serif" font-size="14.00">graphSize &lt;= 40.0</text>
<text text-anchor="middle" x="146.5" y="-124.8" font-family="Times,serif" font-size="14.00">gini = 0.561</text>
<text text-anchor="middle" x="146.5" y="-109.8" font-family="Times,serif" font-size="14.00">samples = 13723</text>
<text text-anchor="middle" x="146.5" y="-94.8" font-family="Times,serif" font-size="14.00">value = [2454, 194, 98, 1, 2634, 8342]</text>
<text text-anchor="middle" x="146.5" y="-79.8" font-family="Times,serif" font-size="14.00">class = GDL</text>
</g>
<!-- 2&#45;&gt;3 -->
<g id="edge3" class="edge">
<title>2&#45;&gt;3</title>
<path fill="none" stroke="black" d="M355.48,-190.91C326.93,-180.47 296.09,-169.19 267.09,-158.59"/>
<polygon fill="black" stroke="black" points="267.92,-155.17 257.33,-155.02 265.52,-161.74 267.92,-155.17"/>
</g>
<!-- 146 -->
<g id="node7" class="node">
<title>146</title>
<polygon fill="#fce7f3" stroke="black" points="622,-155 311,-155 311,-72 622,-72 622,-155"/>
<text text-anchor="middle" x="466.5" y="-139.8" font-family="Times,serif" font-size="14.00">sdComm &lt;= 0.02</text>
<text text-anchor="middle" x="466.5" y="-124.8" font-family="Times,serif" font-size="14.00">gini = 0.698</text>
<text text-anchor="middle" x="466.5" y="-109.8" font-family="Times,serif" font-size="14.00">samples = 21073</text>
<text text-anchor="middle" x="466.5" y="-94.8" font-family="Times,serif" font-size="14.00">value = [5280, 219, 0, 1222, 6292, 8060]</text>
<text text-anchor="middle" x="466.5" y="-79.8" font-family="Times,serif" font-size="14.00">class = GDL</text>
</g>
<!-- 2&#45;&gt;146 -->
<g id="edge6" class="edge">
<title>2&#45;&gt;146</title>
<path fill="none" stroke="black" d="M466.5,-190.91C466.5,-182.65 466.5,-173.86 466.5,-165.3"/>
<polygon fill="black" stroke="black" points="470,-165.02 466.5,-155.02 463,-165.02 470,-165.02"/>
</g>
<!-- 4 -->
<g id="node5" class="node">
<title>4</title>
<polygon fill="#c0c0c0" stroke="black" points="137.5,-36 83.5,-36 83.5,0 137.5,0 137.5,-36"/>
<text text-anchor="middle" x="110.5" y="-14.3" font-family="Times,serif" font-size="14.00">(...)</text>
</g>
<!-- 3&#45;&gt;4 -->
<g id="edge4" class="edge">
<title>3&#45;&gt;4</title>
<path fill="none" stroke="black" d="M130.81,-71.76C127.46,-63.04 123.99,-54.04 120.89,-45.99"/>
<polygon fill="black" stroke="black" points="124.06,-44.48 117.2,-36.41 117.53,-46.99 124.06,-44.48"/>
</g>
<!-- 97 -->
<g id="node6" class="node">
<title>97</title>
<polygon fill="#c0c0c0" stroke="black" points="209.5,-36 155.5,-36 155.5,0 209.5,0 209.5,-36"/>
<text text-anchor="middle" x="182.5" y="-14.3" font-family="Times,serif" font-size="14.00">(...)</text>
</g>
<!-- 3&#45;&gt;97 -->
<g id="edge5" class="edge">
<title>3&#45;&gt;97</title>
<path fill="none" stroke="black" d="M162.19,-71.76C165.54,-63.04 169.01,-54.04 172.11,-45.99"/>
<polygon fill="black" stroke="black" points="175.47,-46.99 175.8,-36.41 168.94,-44.48 175.47,-46.99"/>
</g>
<!-- 147 -->
<g id="node8" class="node">
<title>147</title>
<polygon fill="#c0c0c0" stroke="black" points="457.5,-36 403.5,-36 403.5,0 457.5,0 457.5,-36"/>
<text text-anchor="middle" x="430.5" y="-14.3" font-family="Times,serif" font-size="14.00">(...)</text>
</g>
<!-- 146&#45;&gt;147 -->
<g id="edge7" class="edge">
<title>146&#45;&gt;147</title>
<path fill="none" stroke="black" d="M450.81,-71.76C447.46,-63.04 443.99,-54.04 440.89,-45.99"/>
<polygon fill="black" stroke="black" points="444.06,-44.48 437.2,-36.41 437.53,-46.99 444.06,-44.48"/>
</g>
<!-- 178 -->
<g id="node9" class="node">
<title>178</title>
<polygon fill="#c0c0c0" stroke="black" points="529.5,-36 475.5,-36 475.5,0 529.5,0 529.5,-36"/>
<text text-anchor="middle" x="502.5" y="-14.3" font-family="Times,serif" font-size="14.00">(...)</text>
</g>
<!-- 146&#45;&gt;178 -->
<g id="edge8" class="edge">
<title>146&#45;&gt;178</title>
<path fill="none" stroke="black" d="M482.19,-71.76C485.54,-63.04 489.01,-54.04 492.11,-45.99"/>
<polygon fill="black" stroke="black" points="495.47,-46.99 495.8,-36.41 488.94,-44.48 495.47,-46.99"/>
</g>
<!-- 242 -->
<g id="node11" class="node">
<title>242</title>
<polygon fill="#f195ca" stroke="black" points="960.5,-155 640.5,-155 640.5,-72 960.5,-72 960.5,-155"/>
<text text-anchor="middle" x="800.5" y="-139.8" font-family="Times,serif" font-size="14.00">sdComp &lt;= 0.2</text>
<text text-anchor="middle" x="800.5" y="-124.8" font-family="Times,serif" font-size="14.00">gini = 0.569</text>
<text text-anchor="middle" x="800.5" y="-109.8" font-family="Times,serif" font-size="14.00">samples = 11630</text>
<text text-anchor="middle" x="800.5" y="-94.8" font-family="Times,serif" font-size="14.00">value = [1480, 462, 194, 272, 2034, 7188]</text>
<text text-anchor="middle" x="800.5" y="-79.8" font-family="Times,serif" font-size="14.00">class = GDL</text>
</g>
<!-- 241&#45;&gt;242 -->
<g id="edge10" class="edge">
<title>241&#45;&gt;242</title>
<path fill="none" stroke="black" d="M886.05,-190.91C875.58,-181.56 864.36,-171.54 853.6,-161.93"/>
<polygon fill="black" stroke="black" points="855.66,-159.07 845.87,-155.02 851,-164.29 855.66,-159.07"/>
</g>
<!-- 313 -->
<g id="node14" class="node">
<title>313</title>
<polygon fill="#e95bae" stroke="black" points="1244.5,-155 978.5,-155 978.5,-72 1244.5,-72 1244.5,-155"/>
<text text-anchor="middle" x="1111.5" y="-139.8" font-family="Times,serif" font-size="14.00">sdComp &lt;= 0.65</text>
<text text-anchor="middle" x="1111.5" y="-124.8" font-family="Times,serif" font-size="14.00">gini = 0.279</text>
<text text-anchor="middle" x="1111.5" y="-109.8" font-family="Times,serif" font-size="14.00">samples = 8956</text>
<text text-anchor="middle" x="1111.5" y="-94.8" font-family="Times,serif" font-size="14.00">value = [651, 46, 24, 0, 691, 7544]</text>
<text text-anchor="middle" x="1111.5" y="-79.8" font-family="Times,serif" font-size="14.00">class = GDL</text>
</g>
<!-- 241&#45;&gt;313 -->
<g id="edge13" class="edge">
<title>241&#45;&gt;313</title>
<path fill="none" stroke="black" d="M993.95,-190.91C1009.03,-181.11 1025.25,-170.56 1040.68,-160.53"/>
<polygon fill="black" stroke="black" points="1042.68,-163.41 1049.16,-155.02 1038.87,-157.54 1042.68,-163.41"/>
</g>
<!-- 243 -->
<g id="node12" class="node">
<title>243</title>
<polygon fill="#c0c0c0" stroke="black" points="791.5,-36 737.5,-36 737.5,0 791.5,0 791.5,-36"/>
<text text-anchor="middle" x="764.5" y="-14.3" font-family="Times,serif" font-size="14.00">(...)</text>
</g>
<!-- 242&#45;&gt;243 -->
<g id="edge11" class="edge">
<title>242&#45;&gt;243</title>
<path fill="none" stroke="black" d="M784.81,-71.76C781.46,-63.04 777.99,-54.04 774.89,-45.99"/>
<polygon fill="black" stroke="black" points="778.06,-44.48 771.2,-36.41 771.53,-46.99 778.06,-44.48"/>
</g>
<!-- 266 -->
<g id="node13" class="node">
<title>266</title>
<polygon fill="#c0c0c0" stroke="black" points="863.5,-36 809.5,-36 809.5,0 863.5,0 863.5,-36"/>
<text text-anchor="middle" x="836.5" y="-14.3" font-family="Times,serif" font-size="14.00">(...)</text>
</g>
<!-- 242&#45;&gt;266 -->
<g id="edge12" class="edge">
<title>242&#45;&gt;266</title>
<path fill="none" stroke="black" d="M816.19,-71.76C819.54,-63.04 823.01,-54.04 826.11,-45.99"/>
<polygon fill="black" stroke="black" points="829.47,-46.99 829.8,-36.41 822.94,-44.48 829.47,-46.99"/>
</g>
<!-- 314 -->
<g id="node15" class="node">
<title>314</title>
<polygon fill="#c0c0c0" stroke="black" points="1102.5,-36 1048.5,-36 1048.5,0 1102.5,0 1102.5,-36"/>
<text text-anchor="middle" x="1075.5" y="-14.3" font-family="Times,serif" font-size="14.00">(...)</text>
</g>
<!-- 313&#45;&gt;314 -->
<g id="edge14" class="edge">
<title>313&#45;&gt;314</title>
<path fill="none" stroke="black" d="M1095.81,-71.76C1092.46,-63.04 1088.99,-54.04 1085.89,-45.99"/>
<polygon fill="black" stroke="black" points="1089.06,-44.48 1082.2,-36.41 1082.53,-46.99 1089.06,-44.48"/>
</g>
<!-- 387 -->
<g id="node16" class="node">
<title>387</title>
<polygon fill="#c0c0c0" stroke="black" points="1174.5,-36 1120.5,-36 1120.5,0 1174.5,0 1174.5,-36"/>
<text text-anchor="middle" x="1147.5" y="-14.3" font-family="Times,serif" font-size="14.00">(...)</text>
</g>
<!-- 313&#45;&gt;387 -->
<g id="edge15" class="edge">
<title>313&#45;&gt;387</title>
<path fill="none" stroke="black" d="M1127.19,-71.76C1130.54,-63.04 1134.01,-54.04 1137.11,-45.99"/>
<polygon fill="black" stroke="black" points="1140.47,-46.99 1140.8,-36.41 1133.94,-44.48 1140.47,-46.99"/>
</g>
<!-- 455 -->
<g id="node18" class="node">
<title>455</title>
<polygon fill="#a6f3c6" stroke="black" points="1738.5,-274 1400.5,-274 1400.5,-191 1738.5,-191 1738.5,-274"/>
<text text-anchor="middle" x="1569.5" y="-258.8" font-family="Times,serif" font-size="14.00">sdComp &lt;= 2.0</text>
<text text-anchor="middle" x="1569.5" y="-243.8" font-family="Times,serif" font-size="14.00">gini = 0.669</text>
<text text-anchor="middle" x="1569.5" y="-228.8" font-family="Times,serif" font-size="14.00">samples = 18717</text>
<text text-anchor="middle" x="1569.5" y="-213.8" font-family="Times,serif" font-size="14.00">value = [1910, 1454, 9920, 2701, 1930, 802]</text>
<text text-anchor="middle" x="1569.5" y="-198.8" font-family="Times,serif" font-size="14.00">class = OLB</text>
</g>
<!-- 454&#45;&gt;455 -->
<g id="edge17" class="edge">
<title>454&#45;&gt;455</title>
<path fill="none" stroke="black" d="M1569.5,-309.91C1569.5,-301.65 1569.5,-292.86 1569.5,-284.3"/>
<polygon fill="black" stroke="black" points="1573,-284.02 1569.5,-274.02 1566,-284.02 1573,-284.02"/>
</g>
<!-- 646 -->
<g id="node25" class="node">
<title>646</title>
<polygon fill="#ecfcf3" stroke="black" points="2228.5,-274 1908.5,-274 1908.5,-191 2228.5,-191 2228.5,-274"/>
<text text-anchor="middle" x="2068.5" y="-258.8" font-family="Times,serif" font-size="14.00">sdComm &lt;= 2.0</text>
<text text-anchor="middle" x="2068.5" y="-243.8" font-family="Times,serif" font-size="14.00">gini = 0.768</text>
<text text-anchor="middle" x="2068.5" y="-228.8" font-family="Times,serif" font-size="14.00">samples = 8056</text>
<text text-anchor="middle" x="2068.5" y="-213.8" font-family="Times,serif" font-size="14.00">value = [1480, 1238, 2604, 12, 2016, 706]</text>
<text text-anchor="middle" x="2068.5" y="-198.8" font-family="Times,serif" font-size="14.00">class = OLB</text>
</g>
<!-- 454&#45;&gt;646 -->
<g id="edge24" class="edge">
<title>454&#45;&gt;646</title>
<path fill="none" stroke="black" d="M1742.28,-309.99C1792.83,-298.14 1848.04,-285.19 1898.43,-273.38"/>
<polygon fill="black" stroke="black" points="1899.5,-276.72 1908.44,-271.03 1897.9,-269.9 1899.5,-276.72"/>
</g>
<!-- 456 -->
<g id="node19" class="node">
<title>456</title>
<polygon fill="#aff5cc" stroke="black" points="1574,-155 1263,-155 1263,-72 1574,-72 1574,-155"/>
<text text-anchor="middle" x="1418.5" y="-139.8" font-family="Times,serif" font-size="14.00">graphSize &lt;= 22.5</text>
<text text-anchor="middle" x="1418.5" y="-124.8" font-family="Times,serif" font-size="14.00">gini = 0.64</text>
<text text-anchor="middle" x="1418.5" y="-109.8" font-family="Times,serif" font-size="14.00">samples = 9445</text>
<text text-anchor="middle" x="1418.5" y="-94.8" font-family="Times,serif" font-size="14.00">value = [552, 672, 5112, 2195, 538, 376]</text>
<text text-anchor="middle" x="1418.5" y="-79.8" font-family="Times,serif" font-size="14.00">class = OLB</text>
</g>
<!-- 455&#45;&gt;456 -->
<g id="edge18" class="edge">
<title>455&#45;&gt;456</title>
<path fill="none" stroke="black" d="M1517.11,-190.91C1504.81,-181.38 1491.61,-171.15 1478.99,-161.37"/>
<polygon fill="black" stroke="black" points="1480.84,-158.38 1470.8,-155.02 1476.56,-163.91 1480.84,-158.38"/>
</g>
<!-- 551 -->
<g id="node22" class="node">
<title>551</title>
<polygon fill="#a9f4c8" stroke="black" points="1912.5,-155 1592.5,-155 1592.5,-72 1912.5,-72 1912.5,-155"/>
<text text-anchor="middle" x="1752.5" y="-139.8" font-family="Times,serif" font-size="14.00">graphSize &lt;= 22.5</text>
<text text-anchor="middle" x="1752.5" y="-124.8" font-family="Times,serif" font-size="14.00">gini = 0.675</text>
<text text-anchor="middle" x="1752.5" y="-109.8" font-family="Times,serif" font-size="14.00">samples = 9272</text>
<text text-anchor="middle" x="1752.5" y="-94.8" font-family="Times,serif" font-size="14.00">value = [1358, 782, 4808, 506, 1392, 426]</text>
<text text-anchor="middle" x="1752.5" y="-79.8" font-family="Times,serif" font-size="14.00">class = OLB</text>
</g>
<!-- 455&#45;&gt;551 -->
<g id="edge21" class="edge">
<title>455&#45;&gt;551</title>
<path fill="none" stroke="black" d="M1632.99,-190.91C1648.32,-181.11 1664.81,-170.56 1680.5,-160.53"/>
<polygon fill="black" stroke="black" points="1682.58,-163.36 1689.12,-155.02 1678.81,-157.46 1682.58,-163.36"/>
</g>
<!-- 457 -->
<g id="node20" class="node">
<title>457</title>
<polygon fill="#c0c0c0" stroke="black" points="1409.5,-36 1355.5,-36 1355.5,0 1409.5,0 1409.5,-36"/>
<text text-anchor="middle" x="1382.5" y="-14.3" font-family="Times,serif" font-size="14.00">(...)</text>
</g>
<!-- 456&#45;&gt;457 -->
<g id="edge19" class="edge">
<title>456&#45;&gt;457</title>
<path fill="none" stroke="black" d="M1402.81,-71.76C1399.46,-63.04 1395.99,-54.04 1392.89,-45.99"/>
<polygon fill="black" stroke="black" points="1396.06,-44.48 1389.2,-36.41 1389.53,-46.99 1396.06,-44.48"/>
</g>
<!-- 480 -->
<g id="node21" class="node">
<title>480</title>
<polygon fill="#c0c0c0" stroke="black" points="1481.5,-36 1427.5,-36 1427.5,0 1481.5,0 1481.5,-36"/>
<text text-anchor="middle" x="1454.5" y="-14.3" font-family="Times,serif" font-size="14.00">(...)</text>
</g>
<!-- 456&#45;&gt;480 -->
<g id="edge20" class="edge">
<title>456&#45;&gt;480</title>
<path fill="none" stroke="black" d="M1434.19,-71.76C1437.54,-63.04 1441.01,-54.04 1444.11,-45.99"/>
<polygon fill="black" stroke="black" points="1447.47,-46.99 1447.8,-36.41 1440.94,-44.48 1447.47,-46.99"/>
</g>
<!-- 552 -->
<g id="node23" class="node">
<title>552</title>
<polygon fill="#c0c0c0" stroke="black" points="1743.5,-36 1689.5,-36 1689.5,0 1743.5,0 1743.5,-36"/>
<text text-anchor="middle" x="1716.5" y="-14.3" font-family="Times,serif" font-size="14.00">(...)</text>
</g>
<!-- 551&#45;&gt;552 -->
<g id="edge22" class="edge">
<title>551&#45;&gt;552</title>
<path fill="none" stroke="black" d="M1736.81,-71.76C1733.46,-63.04 1729.99,-54.04 1726.89,-45.99"/>
<polygon fill="black" stroke="black" points="1730.06,-44.48 1723.2,-36.41 1723.53,-46.99 1730.06,-44.48"/>
</g>
<!-- 575 -->
<g id="node24" class="node">
<title>575</title>
<polygon fill="#c0c0c0" stroke="black" points="1815.5,-36 1761.5,-36 1761.5,0 1815.5,0 1815.5,-36"/>
<text text-anchor="middle" x="1788.5" y="-14.3" font-family="Times,serif" font-size="14.00">(...)</text>
</g>
<!-- 551&#45;&gt;575 -->
<g id="edge23" class="edge">
<title>551&#45;&gt;575</title>
<path fill="none" stroke="black" d="M1768.19,-71.76C1771.54,-63.04 1775.01,-54.04 1778.11,-45.99"/>
<polygon fill="black" stroke="black" points="1781.47,-46.99 1781.8,-36.41 1774.94,-44.48 1781.47,-46.99"/>
</g>
<!-- 647 -->
<g id="node26" class="node">
<title>647</title>
<polygon fill="#fefdff" stroke="black" points="2206,-155 1931,-155 1931,-72 2206,-72 2206,-155"/>
<text text-anchor="middle" x="2068.5" y="-139.8" font-family="Times,serif" font-size="14.00">graphSize &lt;= 22.5</text>
<text text-anchor="middle" x="2068.5" y="-124.8" font-family="Times,serif" font-size="14.00">gini = 0.786</text>
<text text-anchor="middle" x="2068.5" y="-109.8" font-family="Times,serif" font-size="14.00">samples = 3438</text>
<text text-anchor="middle" x="2068.5" y="-94.8" font-family="Times,serif" font-size="14.00">value = [750, 516, 858, 0, 882, 432]</text>
<text text-anchor="middle" x="2068.5" y="-79.8" font-family="Times,serif" font-size="14.00">class = DL</text>
</g>
<!-- 646&#45;&gt;647 -->
<g id="edge25" class="edge">
<title>646&#45;&gt;647</title>
<path fill="none" stroke="black" d="M2068.5,-190.91C2068.5,-182.65 2068.5,-173.86 2068.5,-165.3"/>
<polygon fill="black" stroke="black" points="2072,-165.02 2068.5,-155.02 2065,-165.02 2072,-165.02"/>
</g>
<!-- 678 -->
<g id="node29" class="node">
<title>678</title>
<polygon fill="#dcfae9" stroke="black" points="2526.5,-155 2224.5,-155 2224.5,-72 2526.5,-72 2526.5,-155"/>
<text text-anchor="middle" x="2375.5" y="-139.8" font-family="Times,serif" font-size="14.00">graphSize &lt;= 75.0</text>
<text text-anchor="middle" x="2375.5" y="-124.8" font-family="Times,serif" font-size="14.00">gini = 0.744</text>
<text text-anchor="middle" x="2375.5" y="-109.8" font-family="Times,serif" font-size="14.00">samples = 4618</text>
<text text-anchor="middle" x="2375.5" y="-94.8" font-family="Times,serif" font-size="14.00">value = [730, 722, 1746, 12, 1134, 274]</text>
<text text-anchor="middle" x="2375.5" y="-79.8" font-family="Times,serif" font-size="14.00">class = OLB</text>
</g>
<!-- 646&#45;&gt;678 -->
<g id="edge28" class="edge">
<title>646&#45;&gt;678</title>
<path fill="none" stroke="black" d="M2175.01,-190.91C2202.4,-180.47 2231.99,-169.19 2259.81,-158.59"/>
<polygon fill="black" stroke="black" points="2261.08,-161.85 2269.18,-155.02 2258.59,-155.31 2261.08,-161.85"/>
</g>
<!-- 648 -->
<g id="node27" class="node">
<title>648</title>
<polygon fill="#c0c0c0" stroke="black" points="2059.5,-36 2005.5,-36 2005.5,0 2059.5,0 2059.5,-36"/>
<text text-anchor="middle" x="2032.5" y="-14.3" font-family="Times,serif" font-size="14.00">(...)</text>
</g>
<!-- 647&#45;&gt;648 -->
<g id="edge26" class="edge">
<title>647&#45;&gt;648</title>
<path fill="none" stroke="black" d="M2052.81,-71.76C2049.46,-63.04 2045.99,-54.04 2042.89,-45.99"/>
<polygon fill="black" stroke="black" points="2046.06,-44.48 2039.2,-36.41 2039.53,-46.99 2046.06,-44.48"/>
</g>
<!-- 655 -->
<g id="node28" class="node">
<title>655</title>
<polygon fill="#c0c0c0" stroke="black" points="2131.5,-36 2077.5,-36 2077.5,0 2131.5,0 2131.5,-36"/>
<text text-anchor="middle" x="2104.5" y="-14.3" font-family="Times,serif" font-size="14.00">(...)</text>
</g>
<!-- 647&#45;&gt;655 -->
<g id="edge27" class="edge">
<title>647&#45;&gt;655</title>
<path fill="none" stroke="black" d="M2084.19,-71.76C2087.54,-63.04 2091.01,-54.04 2094.11,-45.99"/>
<polygon fill="black" stroke="black" points="2097.47,-46.99 2097.8,-36.41 2090.94,-44.48 2097.47,-46.99"/>
</g>
<!-- 679 -->
<g id="node30" class="node">
<title>679</title>
<polygon fill="#c0c0c0" stroke="black" points="2366.5,-36 2312.5,-36 2312.5,0 2366.5,0 2366.5,-36"/>
<text text-anchor="middle" x="2339.5" y="-14.3" font-family="Times,serif" font-size="14.00">(...)</text>
</g>
<!-- 678&#45;&gt;679 -->
<g id="edge29" class="edge">
<title>678&#45;&gt;679</title>
<path fill="none" stroke="black" d="M2359.81,-71.76C2356.46,-63.04 2352.99,-54.04 2349.89,-45.99"/>
<polygon fill="black" stroke="black" points="2353.06,-44.48 2346.2,-36.41 2346.53,-46.99 2353.06,-44.48"/>
</g>
<!-- 726 -->
<g id="node31" class="node">
<title>726</title>
<polygon fill="#c0c0c0" stroke="black" points="2438.5,-36 2384.5,-36 2384.5,0 2438.5,0 2438.5,-36"/>
<text text-anchor="middle" x="2411.5" y="-14.3" font-family="Times,serif" font-size="14.00">(...)</text>
</g>
<!-- 678&#45;&gt;726 -->
<g id="edge30" class="edge">
<title>678&#45;&gt;726</title>
<path fill="none" stroke="black" d="M2391.19,-71.76C2394.54,-63.04 2398.01,-54.04 2401.11,-45.99"/>
<polygon fill="black" stroke="black" points="2404.47,-46.99 2404.8,-36.41 2397.94,-44.48 2404.47,-46.99"/>
</g>
</g>
</svg>
