<?xml version="1.0" encoding="UTF-8" standalone="no"?>
<!DOCTYPE svg PUBLIC "-//W3C//DTD SVG 1.1//EN"
 "http://www.w3.org/Graphics/SVG/1.1/DTD/svg11.dtd">
<!-- Generated by graphviz version 2.43.0 (0)
 -->
<!-- Title: Tree Pages: 1 -->
<svg width="2972pt" height="520pt"
 viewBox="0.00 0.00 2972.00 520.00" xmlns="http://www.w3.org/2000/svg" xmlns:xlink="http://www.w3.org/1999/xlink">
<g id="graph0" class="graph" transform="scale(1 1) rotate(0) translate(4 516)">
<title>Tree</title>
<polygon fill="white" stroke="transparent" points="-4,4 -4,-516 2968,-516 2968,4 -4,4"/>
<!-- 0 -->
<g id="node1" class="node">
<title>0</title>
<polygon fill="#fefbf9" stroke="black" points="1635.5,-512 1189.5,-512 1189.5,-429 1635.5,-429 1635.5,-512"/>
<text text-anchor="middle" x="1412.5" y="-496.8" font-family="Times,serif" font-size="14.00">CCR &lt;= 0.55</text>
<text text-anchor="middle" x="1412.5" y="-481.8" font-family="Times,serif" font-size="14.00">gini = 0.84</text>
<text text-anchor="middle" x="1412.5" y="-466.8" font-family="Times,serif" font-size="14.00">samples = 82155</text>
<text text-anchor="middle" x="1412.5" y="-451.8" font-family="Times,serif" font-size="14.00">value = [15733, 11576, 2100, 12164, 13038, 13735, 13809]</text>
<text text-anchor="middle" x="1412.5" y="-436.8" font-family="Times,serif" font-size="14.00">class = rku</text>
</g>
<!-- 1 -->
<g id="node2" class="node">
<title>1</title>
<polygon fill="#fefeff" stroke="black" points="1271,-393 888,-393 888,-310 1271,-310 1271,-393"/>
<text text-anchor="middle" x="1079.5" y="-377.8" font-family="Times,serif" font-size="14.00">graphSize &lt;= 40.0</text>
<text text-anchor="middle" x="1079.5" y="-362.8" font-family="Times,serif" font-size="14.00">gini = 0.832</text>
<text text-anchor="middle" x="1079.5" y="-347.8" font-family="Times,serif" font-size="14.00">samples = 34796</text>
<text text-anchor="middle" x="1079.5" y="-332.8" font-family="Times,serif" font-size="14.00">value = [6225, 4644, 173, 5378, 6664, 6479, 5233]</text>
<text text-anchor="middle" x="1079.5" y="-317.8" font-family="Times,serif" font-size="14.00">class = cluHPS</text>
</g>
<!-- 0&#45;&gt;1 -->
<g id="edge1" class="edge">
<title>0&#45;&gt;1</title>
<path fill="none" stroke="black" d="M1296.97,-428.91C1267.13,-418.43 1234.89,-407.1 1204.59,-396.45"/>
<polygon fill="black" stroke="black" points="1205.42,-393.03 1194.83,-393.02 1203.1,-399.64 1205.42,-393.03"/>
<text text-anchor="middle" x="1205.65" y="-411.86" font-family="Times,serif" font-size="14.00">True</text>
</g>
<!-- 288 -->
<g id="node17" class="node">
<title>288</title>
<polygon fill="#fefcfa" stroke="black" points="1986.5,-393 1594.5,-393 1594.5,-310 1986.5,-310 1986.5,-393"/>
<text text-anchor="middle" x="1790.5" y="-377.8" font-family="Times,serif" font-size="14.00">CCR &lt;= 5.5</text>
<text text-anchor="middle" x="1790.5" y="-362.8" font-family="Times,serif" font-size="14.00">gini = 0.842</text>
<text text-anchor="middle" x="1790.5" y="-347.8" font-family="Times,serif" font-size="14.00">samples = 47359</text>
<text text-anchor="middle" x="1790.5" y="-332.8" font-family="Times,serif" font-size="14.00">value = [9508, 6932, 1927, 6786, 6374, 7256, 8576]</text>
<text text-anchor="middle" x="1790.5" y="-317.8" font-family="Times,serif" font-size="14.00">class = rku</text>
</g>
<!-- 0&#45;&gt;288 -->
<g id="edge16" class="edge">
<title>0&#45;&gt;288</title>
<path fill="none" stroke="black" d="M1543.38,-428.99C1577.7,-418.37 1614.85,-406.87 1649.66,-396.09"/>
<polygon fill="black" stroke="black" points="1650.89,-399.38 1659.41,-393.07 1648.82,-392.69 1650.89,-399.38"/>
<text text-anchor="middle" x="1647.75" y="-411.49" font-family="Times,serif" font-size="14.00">False</text>
</g>
<!-- 2 -->
<g id="node3" class="node">
<title>2</title>
<polygon fill="#f9fafe" stroke="black" points="766,-274 383,-274 383,-191 766,-191 766,-274"/>
<text text-anchor="middle" x="574.5" y="-258.8" font-family="Times,serif" font-size="14.00">nbproc &lt;= 4.5</text>
<text text-anchor="middle" x="574.5" y="-243.8" font-family="Times,serif" font-size="14.00">gini = 0.833</text>
<text text-anchor="middle" x="574.5" y="-228.8" font-family="Times,serif" font-size="14.00">samples = 30754</text>
<text text-anchor="middle" x="574.5" y="-213.8" font-family="Times,serif" font-size="14.00">value = [5073, 4380, 171, 5010, 6076, 5273, 4771]</text>
<text text-anchor="middle" x="574.5" y="-198.8" font-family="Times,serif" font-size="14.00">class = cluHPS</text>
</g>
<!-- 1&#45;&gt;2 -->
<g id="edge2" class="edge">
<title>1&#45;&gt;2</title>
<path fill="none" stroke="black" d="M904.65,-309.99C857.72,-299.12 806.83,-287.33 759.39,-276.33"/>
<polygon fill="black" stroke="black" points="760.16,-272.92 749.63,-274.07 758.58,-279.74 760.16,-272.92"/>
</g>
<!-- 145 -->
<g id="node10" class="node">
<title>145</title>
<polygon fill="#fefbff" stroke="black" points="1244,-274 915,-274 915,-191 1244,-191 1244,-274"/>
<text text-anchor="middle" x="1079.5" y="-258.8" font-family="Times,serif" font-size="14.00">sdComp &lt;= 0.065</text>
<text text-anchor="middle" x="1079.5" y="-243.8" font-family="Times,serif" font-size="14.00">gini = 0.783</text>
<text text-anchor="middle" x="1079.5" y="-228.8" font-family="Times,serif" font-size="14.00">samples = 4042</text>
<text text-anchor="middle" x="1079.5" y="-213.8" font-family="Times,serif" font-size="14.00">value = [1152, 264, 2, 368, 588, 1206, 462]</text>
<text text-anchor="middle" x="1079.5" y="-198.8" font-family="Times,serif" font-size="14.00">class = rkusd</text>
</g>
<!-- 1&#45;&gt;145 -->
<g id="edge9" class="edge">
<title>1&#45;&gt;145</title>
<path fill="none" stroke="black" d="M1079.5,-309.91C1079.5,-301.65 1079.5,-292.86 1079.5,-284.3"/>
<polygon fill="black" stroke="black" points="1083,-284.02 1079.5,-274.02 1076,-284.02 1083,-284.02"/>
</g>
<!-- 3 -->
<g id="node4" class="node">
<title>3</title>
<polygon fill="#f3f4fd" stroke="black" points="365,-155 0,-155 0,-72 365,-72 365,-155"/>
<text text-anchor="middle" x="182.5" y="-139.8" font-family="Times,serif" font-size="14.00">sdComp &lt;= 0.065</text>
<text text-anchor="middle" x="182.5" y="-124.8" font-family="Times,serif" font-size="14.00">gini = 0.818</text>
<text text-anchor="middle" x="182.5" y="-109.8" font-family="Times,serif" font-size="14.00">samples = 9244</text>
<text text-anchor="middle" x="182.5" y="-94.8" font-family="Times,serif" font-size="14.00">value = [1327, 1066, 51, 1936, 2392, 1525, 947]</text>
<text text-anchor="middle" x="182.5" y="-79.8" font-family="Times,serif" font-size="14.00">class = cluHPS</text>
</g>
<!-- 2&#45;&gt;3 -->
<g id="edge3" class="edge">
<title>2&#45;&gt;3</title>
<path fill="none" stroke="black" d="M438.77,-190.99C403.03,-180.32 364.33,-168.77 328.09,-157.96"/>
<polygon fill="black" stroke="black" points="329.03,-154.58 318.44,-155.07 327.02,-161.29 329.03,-154.58"/>
</g>
<!-- 74 -->
<g id="node7" class="node">
<title>74</title>
<polygon fill="#fffefe" stroke="black" points="766,-155 383,-155 383,-72 766,-72 766,-155"/>
<text text-anchor="middle" x="574.5" y="-139.8" font-family="Times,serif" font-size="14.00">sdComm &lt;= 0.02</text>
<text text-anchor="middle" x="574.5" y="-124.8" font-family="Times,serif" font-size="14.00">gini = 0.834</text>
<text text-anchor="middle" x="574.5" y="-109.8" font-family="Times,serif" font-size="14.00">samples = 21510</text>
<text text-anchor="middle" x="574.5" y="-94.8" font-family="Times,serif" font-size="14.00">value = [3746, 3314, 120, 3074, 3684, 3748, 3824]</text>
<text text-anchor="middle" x="574.5" y="-79.8" font-family="Times,serif" font-size="14.00">class = rkuad</text>
</g>
<!-- 2&#45;&gt;74 -->
<g id="edge6" class="edge">
<title>2&#45;&gt;74</title>
<path fill="none" stroke="black" d="M574.5,-190.91C574.5,-182.65 574.5,-173.86 574.5,-165.3"/>
<polygon fill="black" stroke="black" points="578,-165.02 574.5,-155.02 571,-165.02 578,-165.02"/>
</g>
<!-- 4 -->
<g id="node5" class="node">
<title>4</title>
<polygon fill="#c0c0c0" stroke="black" points="173.5,-36 119.5,-36 119.5,0 173.5,0 173.5,-36"/>
<text text-anchor="middle" x="146.5" y="-14.3" font-family="Times,serif" font-size="14.00">(...)</text>
</g>
<!-- 3&#45;&gt;4 -->
<g id="edge4" class="edge">
<title>3&#45;&gt;4</title>
<path fill="none" stroke="black" d="M166.81,-71.76C163.46,-63.04 159.99,-54.04 156.89,-45.99"/>
<polygon fill="black" stroke="black" points="160.06,-44.48 153.2,-36.41 153.53,-46.99 160.06,-44.48"/>
</g>
<!-- 51 -->
<g id="node6" class="node">
<title>51</title>
<polygon fill="#c0c0c0" stroke="black" points="245.5,-36 191.5,-36 191.5,0 245.5,0 245.5,-36"/>
<text text-anchor="middle" x="218.5" y="-14.3" font-family="Times,serif" font-size="14.00">(...)</text>
</g>
<!-- 3&#45;&gt;51 -->
<g id="edge5" class="edge">
<title>3&#45;&gt;51</title>
<path fill="none" stroke="black" d="M198.19,-71.76C201.54,-63.04 205.01,-54.04 208.11,-45.99"/>
<polygon fill="black" stroke="black" points="211.47,-46.99 211.8,-36.41 204.94,-44.48 211.47,-46.99"/>
</g>
<!-- 75 -->
<g id="node8" class="node">
<title>75</title>
<polygon fill="#c0c0c0" stroke="black" points="565.5,-36 511.5,-36 511.5,0 565.5,0 565.5,-36"/>
<text text-anchor="middle" x="538.5" y="-14.3" font-family="Times,serif" font-size="14.00">(...)</text>
</g>
<!-- 74&#45;&gt;75 -->
<g id="edge7" class="edge">
<title>74&#45;&gt;75</title>
<path fill="none" stroke="black" d="M558.81,-71.76C555.46,-63.04 551.99,-54.04 548.89,-45.99"/>
<polygon fill="black" stroke="black" points="552.06,-44.48 545.2,-36.41 545.53,-46.99 552.06,-44.48"/>
</g>
<!-- 98 -->
<g id="node9" class="node">
<title>98</title>
<polygon fill="#c0c0c0" stroke="black" points="637.5,-36 583.5,-36 583.5,0 637.5,0 637.5,-36"/>
<text text-anchor="middle" x="610.5" y="-14.3" font-family="Times,serif" font-size="14.00">(...)</text>
</g>
<!-- 74&#45;&gt;98 -->
<g id="edge8" class="edge">
<title>74&#45;&gt;98</title>
<path fill="none" stroke="black" d="M590.19,-71.76C593.54,-63.04 597.01,-54.04 600.11,-45.99"/>
<polygon fill="black" stroke="black" points="603.47,-46.99 603.8,-36.41 596.94,-44.48 603.47,-46.99"/>
</g>
<!-- 146 -->
<g id="node11" class="node">
<title>146</title>
<polygon fill="#fefbf9" stroke="black" points="1095,-155 784,-155 784,-72 1095,-72 1095,-155"/>
<text text-anchor="middle" x="939.5" y="-139.8" font-family="Times,serif" font-size="14.00">graphSize &lt;= 75.0</text>
<text text-anchor="middle" x="939.5" y="-124.8" font-family="Times,serif" font-size="14.00">gini = 0.725</text>
<text text-anchor="middle" x="939.5" y="-109.8" font-family="Times,serif" font-size="14.00">samples = 2930</text>
<text text-anchor="middle" x="939.5" y="-94.8" font-family="Times,serif" font-size="14.00">value = [1054, 72, 2, 132, 276, 998, 396]</text>
<text text-anchor="middle" x="939.5" y="-79.8" font-family="Times,serif" font-size="14.00">class = rku</text>
</g>
<!-- 145&#45;&gt;146 -->
<g id="edge10" class="edge">
<title>145&#45;&gt;146</title>
<path fill="none" stroke="black" d="M1030.93,-190.91C1019.63,-181.47 1007.52,-171.34 995.92,-161.65"/>
<polygon fill="black" stroke="black" points="997.9,-158.75 987.99,-155.02 993.42,-164.12 997.9,-158.75"/>
</g>
<!-- 241 -->
<g id="node14" class="node">
<title>241</title>
<polygon fill="#eef0fd" stroke="black" points="1406,-155 1113,-155 1113,-72 1406,-72 1406,-155"/>
<text text-anchor="middle" x="1259.5" y="-139.8" font-family="Times,serif" font-size="14.00">nbproc &lt;= 4.5</text>
<text text-anchor="middle" x="1259.5" y="-124.8" font-family="Times,serif" font-size="14.00">gini = 0.8</text>
<text text-anchor="middle" x="1259.5" y="-109.8" font-family="Times,serif" font-size="14.00">samples = 1112</text>
<text text-anchor="middle" x="1259.5" y="-94.8" font-family="Times,serif" font-size="14.00">value = [98, 192, 0, 236, 312, 208, 66]</text>
<text text-anchor="middle" x="1259.5" y="-79.8" font-family="Times,serif" font-size="14.00">class = cluHPS</text>
</g>
<!-- 145&#45;&gt;241 -->
<g id="edge13" class="edge">
<title>145&#45;&gt;241</title>
<path fill="none" stroke="black" d="M1141.95,-190.91C1157.03,-181.11 1173.25,-170.56 1188.68,-160.53"/>
<polygon fill="black" stroke="black" points="1190.68,-163.41 1197.16,-155.02 1186.87,-157.54 1190.68,-163.41"/>
</g>
<!-- 147 -->
<g id="node12" class="node">
<title>147</title>
<polygon fill="#c0c0c0" stroke="black" points="930.5,-36 876.5,-36 876.5,0 930.5,0 930.5,-36"/>
<text text-anchor="middle" x="903.5" y="-14.3" font-family="Times,serif" font-size="14.00">(...)</text>
</g>
<!-- 146&#45;&gt;147 -->
<g id="edge11" class="edge">
<title>146&#45;&gt;147</title>
<path fill="none" stroke="black" d="M923.81,-71.76C920.46,-63.04 916.99,-54.04 913.89,-45.99"/>
<polygon fill="black" stroke="black" points="917.06,-44.48 910.2,-36.41 910.53,-46.99 917.06,-44.48"/>
</g>
<!-- 194 -->
<g id="node13" class="node">
<title>194</title>
<polygon fill="#c0c0c0" stroke="black" points="1002.5,-36 948.5,-36 948.5,0 1002.5,0 1002.5,-36"/>
<text text-anchor="middle" x="975.5" y="-14.3" font-family="Times,serif" font-size="14.00">(...)</text>
</g>
<!-- 146&#45;&gt;194 -->
<g id="edge12" class="edge">
<title>146&#45;&gt;194</title>
<path fill="none" stroke="black" d="M955.19,-71.76C958.54,-63.04 962.01,-54.04 965.11,-45.99"/>
<polygon fill="black" stroke="black" points="968.47,-46.99 968.8,-36.41 961.94,-44.48 968.47,-46.99"/>
</g>
<!-- 242 -->
<g id="node15" class="node">
<title>242</title>
<polygon fill="#c0c0c0" stroke="black" points="1250.5,-36 1196.5,-36 1196.5,0 1250.5,0 1250.5,-36"/>
<text text-anchor="middle" x="1223.5" y="-14.3" font-family="Times,serif" font-size="14.00">(...)</text>
</g>
<!-- 241&#45;&gt;242 -->
<g id="edge14" class="edge">
<title>241&#45;&gt;242</title>
<path fill="none" stroke="black" d="M1243.81,-71.76C1240.46,-63.04 1236.99,-54.04 1233.89,-45.99"/>
<polygon fill="black" stroke="black" points="1237.06,-44.48 1230.2,-36.41 1230.53,-46.99 1237.06,-44.48"/>
</g>
<!-- 265 -->
<g id="node16" class="node">
<title>265</title>
<polygon fill="#c0c0c0" stroke="black" points="1322.5,-36 1268.5,-36 1268.5,0 1322.5,0 1322.5,-36"/>
<text text-anchor="middle" x="1295.5" y="-14.3" font-family="Times,serif" font-size="14.00">(...)</text>
</g>
<!-- 241&#45;&gt;265 -->
<g id="edge15" class="edge">
<title>241&#45;&gt;265</title>
<path fill="none" stroke="black" d="M1275.19,-71.76C1278.54,-63.04 1282.01,-54.04 1285.11,-45.99"/>
<polygon fill="black" stroke="black" points="1288.47,-46.99 1288.8,-36.41 1281.94,-44.48 1288.47,-46.99"/>
</g>
<!-- 289 -->
<g id="node18" class="node">
<title>289</title>
<polygon fill="#fef9f6" stroke="black" points="1982,-274 1599,-274 1599,-191 1982,-191 1982,-274"/>
<text text-anchor="middle" x="1790.5" y="-258.8" font-family="Times,serif" font-size="14.00">graphSize &lt;= 40.0</text>
<text text-anchor="middle" x="1790.5" y="-243.8" font-family="Times,serif" font-size="14.00">gini = 0.829</text>
<text text-anchor="middle" x="1790.5" y="-228.8" font-family="Times,serif" font-size="14.00">samples = 20586</text>
<text text-anchor="middle" x="1790.5" y="-213.8" font-family="Times,serif" font-size="14.00">value = [4746, 2488, 366, 3038, 2402, 3568, 3978]</text>
<text text-anchor="middle" x="1790.5" y="-198.8" font-family="Times,serif" font-size="14.00">class = rku</text>
</g>
<!-- 288&#45;&gt;289 -->
<g id="edge17" class="edge">
<title>288&#45;&gt;289</title>
<path fill="none" stroke="black" d="M1790.5,-309.91C1790.5,-301.65 1790.5,-292.86 1790.5,-284.3"/>
<polygon fill="black" stroke="black" points="1794,-284.02 1790.5,-274.02 1787,-284.02 1794,-284.02"/>
</g>
<!-- 574 -->
<g id="node25" class="node">
<title>574</title>
<polygon fill="#fffefe" stroke="black" points="2567.5,-274 2175.5,-274 2175.5,-191 2567.5,-191 2567.5,-274"/>
<text text-anchor="middle" x="2371.5" y="-258.8" font-family="Times,serif" font-size="14.00">nbproc &lt;= 4.5</text>
<text text-anchor="middle" x="2371.5" y="-243.8" font-family="Times,serif" font-size="14.00">gini = 0.847</text>
<text text-anchor="middle" x="2371.5" y="-228.8" font-family="Times,serif" font-size="14.00">samples = 26773</text>
<text text-anchor="middle" x="2371.5" y="-213.8" font-family="Times,serif" font-size="14.00">value = [4762, 4444, 1561, 3748, 3972, 3688, 4598]</text>
<text text-anchor="middle" x="2371.5" y="-198.8" font-family="Times,serif" font-size="14.00">class = rku</text>
</g>
<!-- 288&#45;&gt;574 -->
<g id="edge24" class="edge">
<title>288&#45;&gt;574</title>
<path fill="none" stroke="black" d="M1986.8,-310.97C2044.23,-299.4 2107.18,-286.73 2165.22,-275.04"/>
<polygon fill="black" stroke="black" points="2166.12,-278.43 2175.24,-273.02 2164.74,-271.57 2166.12,-278.43"/>
</g>
<!-- 290 -->
<g id="node19" class="node">
<title>290</title>
<polygon fill="#ffffff" stroke="black" points="1807,-155 1424,-155 1424,-72 1807,-72 1807,-155"/>
<text text-anchor="middle" x="1615.5" y="-139.8" font-family="Times,serif" font-size="14.00">graphDepth &lt;= 7.5</text>
<text text-anchor="middle" x="1615.5" y="-124.8" font-family="Times,serif" font-size="14.00">gini = 0.835</text>
<text text-anchor="middle" x="1615.5" y="-109.8" font-family="Times,serif" font-size="14.00">samples = 16350</text>
<text text-anchor="middle" x="1615.5" y="-94.8" font-family="Times,serif" font-size="14.00">value = [3096, 2292, 224, 2654, 2214, 2778, 3092]</text>
<text text-anchor="middle" x="1615.5" y="-79.8" font-family="Times,serif" font-size="14.00">class = rku</text>
</g>
<!-- 289&#45;&gt;290 -->
<g id="edge18" class="edge">
<title>289&#45;&gt;290</title>
<path fill="none" stroke="black" d="M1729.78,-190.91C1715.26,-181.2 1699.65,-170.76 1684.77,-160.81"/>
<polygon fill="black" stroke="black" points="1686.37,-157.67 1676.11,-155.02 1682.48,-163.49 1686.37,-157.67"/>
</g>
<!-- 433 -->
<g id="node22" class="node">
<title>433</title>
<polygon fill="#f9e2d2" stroke="black" points="2162.5,-155 1824.5,-155 1824.5,-72 2162.5,-72 2162.5,-155"/>
<text text-anchor="middle" x="1993.5" y="-139.8" font-family="Times,serif" font-size="14.00">nbproc &lt;= 4.5</text>
<text text-anchor="middle" x="1993.5" y="-124.8" font-family="Times,serif" font-size="14.00">gini = 0.756</text>
<text text-anchor="middle" x="1993.5" y="-109.8" font-family="Times,serif" font-size="14.00">samples = 4236</text>
<text text-anchor="middle" x="1993.5" y="-94.8" font-family="Times,serif" font-size="14.00">value = [1650, 196, 142, 384, 188, 790, 886]</text>
<text text-anchor="middle" x="1993.5" y="-79.8" font-family="Times,serif" font-size="14.00">class = rku</text>
</g>
<!-- 289&#45;&gt;433 -->
<g id="edge21" class="edge">
<title>289&#45;&gt;433</title>
<path fill="none" stroke="black" d="M1860.93,-190.91C1878.09,-181.02 1896.57,-170.37 1914.11,-160.25"/>
<polygon fill="black" stroke="black" points="1916.28,-163.05 1923.19,-155.02 1912.78,-156.98 1916.28,-163.05"/>
</g>
<!-- 291 -->
<g id="node20" class="node">
<title>291</title>
<polygon fill="#c0c0c0" stroke="black" points="1606.5,-36 1552.5,-36 1552.5,0 1606.5,0 1606.5,-36"/>
<text text-anchor="middle" x="1579.5" y="-14.3" font-family="Times,serif" font-size="14.00">(...)</text>
</g>
<!-- 290&#45;&gt;291 -->
<g id="edge19" class="edge">
<title>290&#45;&gt;291</title>
<path fill="none" stroke="black" d="M1599.81,-71.76C1596.46,-63.04 1592.99,-54.04 1589.89,-45.99"/>
<polygon fill="black" stroke="black" points="1593.06,-44.48 1586.2,-36.41 1586.53,-46.99 1593.06,-44.48"/>
</g>
<!-- 398 -->
<g id="node21" class="node">
<title>398</title>
<polygon fill="#c0c0c0" stroke="black" points="1678.5,-36 1624.5,-36 1624.5,0 1678.5,0 1678.5,-36"/>
<text text-anchor="middle" x="1651.5" y="-14.3" font-family="Times,serif" font-size="14.00">(...)</text>
</g>
<!-- 290&#45;&gt;398 -->
<g id="edge20" class="edge">
<title>290&#45;&gt;398</title>
<path fill="none" stroke="black" d="M1631.19,-71.76C1634.54,-63.04 1638.01,-54.04 1641.11,-45.99"/>
<polygon fill="black" stroke="black" points="1644.47,-46.99 1644.8,-36.41 1637.94,-44.48 1644.47,-46.99"/>
</g>
<!-- 434 -->
<g id="node23" class="node">
<title>434</title>
<polygon fill="#c0c0c0" stroke="black" points="1984.5,-36 1930.5,-36 1930.5,0 1984.5,0 1984.5,-36"/>
<text text-anchor="middle" x="1957.5" y="-14.3" font-family="Times,serif" font-size="14.00">(...)</text>
</g>
<!-- 433&#45;&gt;434 -->
<g id="edge22" class="edge">
<title>433&#45;&gt;434</title>
<path fill="none" stroke="black" d="M1977.81,-71.76C1974.46,-63.04 1970.99,-54.04 1967.89,-45.99"/>
<polygon fill="black" stroke="black" points="1971.06,-44.48 1964.2,-36.41 1964.53,-46.99 1971.06,-44.48"/>
</g>
<!-- 503 -->
<g id="node24" class="node">
<title>503</title>
<polygon fill="#c0c0c0" stroke="black" points="2056.5,-36 2002.5,-36 2002.5,0 2056.5,0 2056.5,-36"/>
<text text-anchor="middle" x="2029.5" y="-14.3" font-family="Times,serif" font-size="14.00">(...)</text>
</g>
<!-- 433&#45;&gt;503 -->
<g id="edge23" class="edge">
<title>433&#45;&gt;503</title>
<path fill="none" stroke="black" d="M2009.19,-71.76C2012.54,-63.04 2016.01,-54.04 2019.11,-45.99"/>
<polygon fill="black" stroke="black" points="2022.47,-46.99 2022.8,-36.41 2015.94,-44.48 2022.47,-46.99"/>
</g>
<!-- 575 -->
<g id="node26" class="node">
<title>575</title>
<polygon fill="#ffffff" stroke="black" points="2563,-155 2180,-155 2180,-72 2563,-72 2563,-155"/>
<text text-anchor="middle" x="2371.5" y="-139.8" font-family="Times,serif" font-size="14.00">graphDepth &lt;= 6.5</text>
<text text-anchor="middle" x="2371.5" y="-124.8" font-family="Times,serif" font-size="14.00">gini = 0.848</text>
<text text-anchor="middle" x="2371.5" y="-109.8" font-family="Times,serif" font-size="14.00">samples = 14699</text>
<text text-anchor="middle" x="2371.5" y="-94.8" font-family="Times,serif" font-size="14.00">value = [2584, 2276, 919, 1840, 2556, 2084, 2440]</text>
<text text-anchor="middle" x="2371.5" y="-79.8" font-family="Times,serif" font-size="14.00">class = rku</text>
</g>
<!-- 574&#45;&gt;575 -->
<g id="edge25" class="edge">
<title>574&#45;&gt;575</title>
<path fill="none" stroke="black" d="M2371.5,-190.91C2371.5,-182.65 2371.5,-173.86 2371.5,-165.3"/>
<polygon fill="black" stroke="black" points="2375,-165.02 2371.5,-155.02 2368,-165.02 2375,-165.02"/>
</g>
<!-- 718 -->
<g id="node29" class="node">
<title>718</title>
<polygon fill="#ffffff" stroke="black" points="2964,-155 2581,-155 2581,-72 2964,-72 2964,-155"/>
<text text-anchor="middle" x="2772.5" y="-139.8" font-family="Times,serif" font-size="14.00">sdComp &lt;= 6.5</text>
<text text-anchor="middle" x="2772.5" y="-124.8" font-family="Times,serif" font-size="14.00">gini = 0.844</text>
<text text-anchor="middle" x="2772.5" y="-109.8" font-family="Times,serif" font-size="14.00">samples = 12074</text>
<text text-anchor="middle" x="2772.5" y="-94.8" font-family="Times,serif" font-size="14.00">value = [2178, 2168, 642, 1908, 1416, 1604, 2158]</text>
<text text-anchor="middle" x="2772.5" y="-79.8" font-family="Times,serif" font-size="14.00">class = rku</text>
</g>
<!-- 574&#45;&gt;718 -->
<g id="edge28" class="edge">
<title>574&#45;&gt;718</title>
<path fill="none" stroke="black" d="M2510.34,-190.99C2546.9,-180.32 2586.5,-168.77 2623.56,-157.96"/>
<polygon fill="black" stroke="black" points="2624.82,-161.24 2633.44,-155.07 2622.86,-154.52 2624.82,-161.24"/>
</g>
<!-- 576 -->
<g id="node27" class="node">
<title>576</title>
<polygon fill="#c0c0c0" stroke="black" points="2362.5,-36 2308.5,-36 2308.5,0 2362.5,0 2362.5,-36"/>
<text text-anchor="middle" x="2335.5" y="-14.3" font-family="Times,serif" font-size="14.00">(...)</text>
</g>
<!-- 575&#45;&gt;576 -->
<g id="edge26" class="edge">
<title>575&#45;&gt;576</title>
<path fill="none" stroke="black" d="M2355.81,-71.76C2352.46,-63.04 2348.99,-54.04 2345.89,-45.99"/>
<polygon fill="black" stroke="black" points="2349.06,-44.48 2342.2,-36.41 2342.53,-46.99 2349.06,-44.48"/>
</g>
<!-- 629 -->
<g id="node28" class="node">
<title>629</title>
<polygon fill="#c0c0c0" stroke="black" points="2434.5,-36 2380.5,-36 2380.5,0 2434.5,0 2434.5,-36"/>
<text text-anchor="middle" x="2407.5" y="-14.3" font-family="Times,serif" font-size="14.00">(...)</text>
</g>
<!-- 575&#45;&gt;629 -->
<g id="edge27" class="edge">
<title>575&#45;&gt;629</title>
<path fill="none" stroke="black" d="M2387.19,-71.76C2390.54,-63.04 2394.01,-54.04 2397.11,-45.99"/>
<polygon fill="black" stroke="black" points="2400.47,-46.99 2400.8,-36.41 2393.94,-44.48 2400.47,-46.99"/>
</g>
<!-- 719 -->
<g id="node30" class="node">
<title>719</title>
<polygon fill="#c0c0c0" stroke="black" points="2763.5,-36 2709.5,-36 2709.5,0 2763.5,0 2763.5,-36"/>
<text text-anchor="middle" x="2736.5" y="-14.3" font-family="Times,serif" font-size="14.00">(...)</text>
</g>
<!-- 718&#45;&gt;719 -->
<g id="edge29" class="edge">
<title>718&#45;&gt;719</title>
<path fill="none" stroke="black" d="M2756.81,-71.76C2753.46,-63.04 2749.99,-54.04 2746.89,-45.99"/>
<polygon fill="black" stroke="black" points="2750.06,-44.48 2743.2,-36.41 2743.53,-46.99 2750.06,-44.48"/>
</g>
<!-- 814 -->
<g id="node31" class="node">
<title>814</title>
<polygon fill="#c0c0c0" stroke="black" points="2835.5,-36 2781.5,-36 2781.5,0 2835.5,0 2835.5,-36"/>
<text text-anchor="middle" x="2808.5" y="-14.3" font-family="Times,serif" font-size="14.00">(...)</text>
</g>
<!-- 718&#45;&gt;814 -->
<g id="edge30" class="edge">
<title>718&#45;&gt;814</title>
<path fill="none" stroke="black" d="M2788.19,-71.76C2791.54,-63.04 2795.01,-54.04 2798.11,-45.99"/>
<polygon fill="black" stroke="black" points="2801.47,-46.99 2801.8,-36.41 2794.94,-44.48 2801.47,-46.99"/>
</g>
</g>
</svg>
