<?xml version="1.0" encoding="UTF-8" standalone="no"?>
<!DOCTYPE svg PUBLIC "-//W3C//DTD SVG 1.1//EN"
 "http://www.w3.org/Graphics/SVG/1.1/DTD/svg11.dtd">
<!-- Generated by graphviz version 2.43.0 (0)
 -->
<!-- Title: Tree Pages: 1 -->
<svg width="1757pt" height="520pt"
 viewBox="0.00 0.00 1757.00 520.00" xmlns="http://www.w3.org/2000/svg" xmlns:xlink="http://www.w3.org/1999/xlink">
<g id="graph0" class="graph" transform="scale(1 1) rotate(0) translate(4 516)">
<title>Tree</title>
<polygon fill="white" stroke="transparent" points="-4,4 -4,-516 1753,-516 1753,4 -4,4"/>
<!-- 0 -->
<g id="node1" class="node">
<title>0</title>
<polygon fill="#f2ebfc" stroke="black" points="1002.5,-512 763.5,-512 763.5,-429 1002.5,-429 1002.5,-512"/>
<text text-anchor="middle" x="883" y="-496.8" font-family="Times,serif" font-size="14.00">CCR &lt;= 5.5</text>
<text text-anchor="middle" x="883" y="-481.8" font-family="Times,serif" font-size="14.00">gini = 0.643</text>
<text text-anchor="middle" x="883" y="-466.8" font-family="Times,serif" font-size="14.00">samples = 82155</text>
<text text-anchor="middle" x="883" y="-451.8" font-family="Times,serif" font-size="14.00">value = [17499, 29623, 35033]</text>
<text text-anchor="middle" x="883" y="-436.8" font-family="Times,serif" font-size="14.00">class = None</text>
</g>
<!-- 1 -->
<g id="node2" class="node">
<title>1</title>
<polygon fill="#c7f8db" stroke="black" points="788.5,-393 549.5,-393 549.5,-310 788.5,-310 788.5,-393"/>
<text text-anchor="middle" x="669" y="-377.8" font-family="Times,serif" font-size="14.00">graphSize &lt;= 22.5</text>
<text text-anchor="middle" x="669" y="-362.8" font-family="Times,serif" font-size="14.00">gini = 0.632</text>
<text text-anchor="middle" x="669" y="-347.8" font-family="Times,serif" font-size="14.00">samples = 55382</text>
<text text-anchor="middle" x="669" y="-332.8" font-family="Times,serif" font-size="14.00">value = [15389, 26795, 13198]</text>
<text text-anchor="middle" x="669" y="-317.8" font-family="Times,serif" font-size="14.00">class = DCP</text>
</g>
<!-- 0&#45;&gt;1 -->
<g id="edge1" class="edge">
<title>0&#45;&gt;1</title>
<path fill="none" stroke="black" d="M808.75,-428.91C790.41,-418.88 770.65,-408.07 751.92,-397.84"/>
<polygon fill="black" stroke="black" points="753.57,-394.75 743.11,-393.02 750.21,-400.89 753.57,-394.75"/>
<text text-anchor="middle" x="750.15" y="-413.31" font-family="Times,serif" font-size="14.00">True</text>
</g>
<!-- 574 -->
<g id="node17" class="node">
<title>574</title>
<polygon fill="#9b62ea" stroke="black" points="1219.5,-393 998.5,-393 998.5,-310 1219.5,-310 1219.5,-393"/>
<text text-anchor="middle" x="1109" y="-377.8" font-family="Times,serif" font-size="14.00">sdComp &lt;= 6.5</text>
<text text-anchor="middle" x="1109" y="-362.8" font-family="Times,serif" font-size="14.00">gini = 0.317</text>
<text text-anchor="middle" x="1109" y="-347.8" font-family="Times,serif" font-size="14.00">samples = 26773</text>
<text text-anchor="middle" x="1109" y="-332.8" font-family="Times,serif" font-size="14.00">value = [2110, 2828, 21835]</text>
<text text-anchor="middle" x="1109" y="-317.8" font-family="Times,serif" font-size="14.00">class = None</text>
</g>
<!-- 0&#45;&gt;574 -->
<g id="edge16" class="edge">
<title>0&#45;&gt;574</title>
<path fill="none" stroke="black" d="M961.41,-428.91C980.87,-418.83 1001.84,-407.98 1021.69,-397.7"/>
<polygon fill="black" stroke="black" points="1023.46,-400.73 1030.73,-393.02 1020.24,-394.51 1023.46,-400.73"/>
<text text-anchor="middle" x="1023.16" y="-413.15" font-family="Times,serif" font-size="14.00">False</text>
</g>
<!-- 2 -->
<g id="node3" class="node">
<title>2</title>
<polygon fill="#d5f9e4" stroke="black" points="455,-274 225,-274 225,-191 455,-191 455,-274"/>
<text text-anchor="middle" x="340" y="-258.8" font-family="Times,serif" font-size="14.00">sdComm &lt;= 0.02</text>
<text text-anchor="middle" x="340" y="-243.8" font-family="Times,serif" font-size="14.00">gini = 0.632</text>
<text text-anchor="middle" x="340" y="-228.8" font-family="Times,serif" font-size="14.00">samples = 36302</text>
<text text-anchor="middle" x="340" y="-213.8" font-family="Times,serif" font-size="14.00">value = [11807, 16997, 7498]</text>
<text text-anchor="middle" x="340" y="-198.8" font-family="Times,serif" font-size="14.00">class = DCP</text>
</g>
<!-- 1&#45;&gt;2 -->
<g id="edge2" class="edge">
<title>1&#45;&gt;2</title>
<path fill="none" stroke="black" d="M554.86,-309.91C525.38,-299.43 493.52,-288.1 463.59,-277.45"/>
<polygon fill="black" stroke="black" points="464.54,-274.07 453.94,-274.02 462.19,-280.67 464.54,-274.07"/>
</g>
<!-- 145 -->
<g id="node10" class="node">
<title>145</title>
<polygon fill="#c2f7d8" stroke="black" points="775,-274 563,-274 563,-191 775,-191 775,-274"/>
<text text-anchor="middle" x="669" y="-258.8" font-family="Times,serif" font-size="14.00">sdComm &lt;= 0.65</text>
<text text-anchor="middle" x="669" y="-243.8" font-family="Times,serif" font-size="14.00">gini = 0.612</text>
<text text-anchor="middle" x="669" y="-228.8" font-family="Times,serif" font-size="14.00">samples = 19080</text>
<text text-anchor="middle" x="669" y="-213.8" font-family="Times,serif" font-size="14.00">value = [3582, 9798, 5700]</text>
<text text-anchor="middle" x="669" y="-198.8" font-family="Times,serif" font-size="14.00">class = DCP</text>
</g>
<!-- 1&#45;&gt;145 -->
<g id="edge9" class="edge">
<title>1&#45;&gt;145</title>
<path fill="none" stroke="black" d="M669,-309.91C669,-301.65 669,-292.86 669,-284.3"/>
<polygon fill="black" stroke="black" points="672.5,-284.02 669,-274.02 665.5,-284.02 672.5,-284.02"/>
</g>
<!-- 3 -->
<g id="node4" class="node">
<title>3</title>
<polygon fill="#ffffff" stroke="black" points="212,-155 0,-155 0,-72 212,-72 212,-155"/>
<text text-anchor="middle" x="106" y="-139.8" font-family="Times,serif" font-size="14.00">sdComp &lt;= 0.02</text>
<text text-anchor="middle" x="106" y="-124.8" font-family="Times,serif" font-size="14.00">gini = 0.608</text>
<text text-anchor="middle" x="106" y="-109.8" font-family="Times,serif" font-size="14.00">samples = 7933</text>
<text text-anchor="middle" x="106" y="-94.8" font-family="Times,serif" font-size="14.00">value = [3423, 3434, 1076]</text>
<text text-anchor="middle" x="106" y="-79.8" font-family="Times,serif" font-size="14.00">class = DCP</text>
</g>
<!-- 2&#45;&gt;3 -->
<g id="edge3" class="edge">
<title>2&#45;&gt;3</title>
<path fill="none" stroke="black" d="M258.81,-190.91C238.58,-180.79 216.76,-169.88 196.12,-159.56"/>
<polygon fill="black" stroke="black" points="197.55,-156.36 187.04,-155.02 194.42,-162.62 197.55,-156.36"/>
</g>
<!-- 26 -->
<g id="node7" class="node">
<title>26</title>
<polygon fill="#ccf8de" stroke="black" points="450.5,-155 229.5,-155 229.5,-72 450.5,-72 450.5,-155"/>
<text text-anchor="middle" x="340" y="-139.8" font-family="Times,serif" font-size="14.00">sdComm &lt;= 0.2</text>
<text text-anchor="middle" x="340" y="-124.8" font-family="Times,serif" font-size="14.00">gini = 0.633</text>
<text text-anchor="middle" x="340" y="-109.8" font-family="Times,serif" font-size="14.00">samples = 28369</text>
<text text-anchor="middle" x="340" y="-94.8" font-family="Times,serif" font-size="14.00">value = [8384, 13563, 6422]</text>
<text text-anchor="middle" x="340" y="-79.8" font-family="Times,serif" font-size="14.00">class = DCP</text>
</g>
<!-- 2&#45;&gt;26 -->
<g id="edge6" class="edge">
<title>2&#45;&gt;26</title>
<path fill="none" stroke="black" d="M340,-190.91C340,-182.65 340,-173.86 340,-165.3"/>
<polygon fill="black" stroke="black" points="343.5,-165.02 340,-155.02 336.5,-165.02 343.5,-165.02"/>
</g>
<!-- 4 -->
<g id="node5" class="node">
<title>4</title>
<polygon fill="#c0c0c0" stroke="black" points="97,-36 43,-36 43,0 97,0 97,-36"/>
<text text-anchor="middle" x="70" y="-14.3" font-family="Times,serif" font-size="14.00">(...)</text>
</g>
<!-- 3&#45;&gt;4 -->
<g id="edge4" class="edge">
<title>3&#45;&gt;4</title>
<path fill="none" stroke="black" d="M90.31,-71.76C86.96,-63.04 83.49,-54.04 80.39,-45.99"/>
<polygon fill="black" stroke="black" points="83.56,-44.48 76.7,-36.41 77.03,-46.99 83.56,-44.48"/>
</g>
<!-- 11 -->
<g id="node6" class="node">
<title>11</title>
<polygon fill="#c0c0c0" stroke="black" points="169,-36 115,-36 115,0 169,0 169,-36"/>
<text text-anchor="middle" x="142" y="-14.3" font-family="Times,serif" font-size="14.00">(...)</text>
</g>
<!-- 3&#45;&gt;11 -->
<g id="edge5" class="edge">
<title>3&#45;&gt;11</title>
<path fill="none" stroke="black" d="M121.69,-71.76C125.04,-63.04 128.51,-54.04 131.61,-45.99"/>
<polygon fill="black" stroke="black" points="134.97,-46.99 135.3,-36.41 128.44,-44.48 134.97,-46.99"/>
</g>
<!-- 27 -->
<g id="node8" class="node">
<title>27</title>
<polygon fill="#c0c0c0" stroke="black" points="331,-36 277,-36 277,0 331,0 331,-36"/>
<text text-anchor="middle" x="304" y="-14.3" font-family="Times,serif" font-size="14.00">(...)</text>
</g>
<!-- 26&#45;&gt;27 -->
<g id="edge7" class="edge">
<title>26&#45;&gt;27</title>
<path fill="none" stroke="black" d="M324.31,-71.76C320.96,-63.04 317.49,-54.04 314.39,-45.99"/>
<polygon fill="black" stroke="black" points="317.56,-44.48 310.7,-36.41 311.03,-46.99 317.56,-44.48"/>
</g>
<!-- 98 -->
<g id="node9" class="node">
<title>98</title>
<polygon fill="#c0c0c0" stroke="black" points="403,-36 349,-36 349,0 403,0 403,-36"/>
<text text-anchor="middle" x="376" y="-14.3" font-family="Times,serif" font-size="14.00">(...)</text>
</g>
<!-- 26&#45;&gt;98 -->
<g id="edge8" class="edge">
<title>26&#45;&gt;98</title>
<path fill="none" stroke="black" d="M355.69,-71.76C359.04,-63.04 362.51,-54.04 365.61,-45.99"/>
<polygon fill="black" stroke="black" points="368.97,-46.99 369.3,-36.41 362.44,-44.48 368.97,-46.99"/>
</g>
<!-- 146 -->
<g id="node11" class="node">
<title>146</title>
<polygon fill="#bcf6d4" stroke="black" points="681,-155 469,-155 469,-72 681,-72 681,-155"/>
<text text-anchor="middle" x="575" y="-139.8" font-family="Times,serif" font-size="14.00">sdComp &lt;= 0.2</text>
<text text-anchor="middle" x="575" y="-124.8" font-family="Times,serif" font-size="14.00">gini = 0.597</text>
<text text-anchor="middle" x="575" y="-109.8" font-family="Times,serif" font-size="14.00">samples = 16316</text>
<text text-anchor="middle" x="575" y="-94.8" font-family="Times,serif" font-size="14.00">value = [2734, 8748, 4834]</text>
<text text-anchor="middle" x="575" y="-79.8" font-family="Times,serif" font-size="14.00">class = DCP</text>
</g>
<!-- 145&#45;&gt;146 -->
<g id="edge10" class="edge">
<title>145&#45;&gt;146</title>
<path fill="none" stroke="black" d="M636.39,-190.91C629.17,-181.92 621.45,-172.32 614.01,-163.05"/>
<polygon fill="black" stroke="black" points="616.55,-160.62 607.56,-155.02 611.09,-165.01 616.55,-160.62"/>
</g>
<!-- 503 -->
<g id="node14" class="node">
<title>503</title>
<polygon fill="#ecfcf3" stroke="black" points="893,-155 699,-155 699,-72 893,-72 893,-155"/>
<text text-anchor="middle" x="796" y="-139.8" font-family="Times,serif" font-size="14.00">graphDepth &lt;= 13.5</text>
<text text-anchor="middle" x="796" y="-124.8" font-family="Times,serif" font-size="14.00">gini = 0.663</text>
<text text-anchor="middle" x="796" y="-109.8" font-family="Times,serif" font-size="14.00">samples = 2764</text>
<text text-anchor="middle" x="796" y="-94.8" font-family="Times,serif" font-size="14.00">value = [848, 1050, 866]</text>
<text text-anchor="middle" x="796" y="-79.8" font-family="Times,serif" font-size="14.00">class = DCP</text>
</g>
<!-- 145&#45;&gt;503 -->
<g id="edge13" class="edge">
<title>145&#45;&gt;503</title>
<path fill="none" stroke="black" d="M713.06,-190.91C723.21,-181.56 734.09,-171.54 744.52,-161.93"/>
<polygon fill="black" stroke="black" points="747.03,-164.37 752.02,-155.02 742.29,-159.22 747.03,-164.37"/>
</g>
<!-- 147 -->
<g id="node12" class="node">
<title>147</title>
<polygon fill="#c0c0c0" stroke="black" points="566,-36 512,-36 512,0 566,0 566,-36"/>
<text text-anchor="middle" x="539" y="-14.3" font-family="Times,serif" font-size="14.00">(...)</text>
</g>
<!-- 146&#45;&gt;147 -->
<g id="edge11" class="edge">
<title>146&#45;&gt;147</title>
<path fill="none" stroke="black" d="M559.31,-71.76C555.96,-63.04 552.49,-54.04 549.39,-45.99"/>
<polygon fill="black" stroke="black" points="552.56,-44.48 545.7,-36.41 546.03,-46.99 552.56,-44.48"/>
</g>
<!-- 410 -->
<g id="node13" class="node">
<title>410</title>
<polygon fill="#c0c0c0" stroke="black" points="638,-36 584,-36 584,0 638,0 638,-36"/>
<text text-anchor="middle" x="611" y="-14.3" font-family="Times,serif" font-size="14.00">(...)</text>
</g>
<!-- 146&#45;&gt;410 -->
<g id="edge12" class="edge">
<title>146&#45;&gt;410</title>
<path fill="none" stroke="black" d="M590.69,-71.76C594.04,-63.04 597.51,-54.04 600.61,-45.99"/>
<polygon fill="black" stroke="black" points="603.97,-46.99 604.3,-36.41 597.44,-44.48 603.97,-46.99"/>
</g>
<!-- 504 -->
<g id="node15" class="node">
<title>504</title>
<polygon fill="#c0c0c0" stroke="black" points="785,-36 731,-36 731,0 785,0 785,-36"/>
<text text-anchor="middle" x="758" y="-14.3" font-family="Times,serif" font-size="14.00">(...)</text>
</g>
<!-- 503&#45;&gt;504 -->
<g id="edge14" class="edge">
<title>503&#45;&gt;504</title>
<path fill="none" stroke="black" d="M779.44,-71.76C775.86,-62.94 772.16,-53.84 768.86,-45.72"/>
<polygon fill="black" stroke="black" points="772.08,-44.35 765.07,-36.41 765.6,-46.99 772.08,-44.35"/>
</g>
<!-- 539 -->
<g id="node16" class="node">
<title>539</title>
<polygon fill="#c0c0c0" stroke="black" points="857,-36 803,-36 803,0 857,0 857,-36"/>
<text text-anchor="middle" x="830" y="-14.3" font-family="Times,serif" font-size="14.00">(...)</text>
</g>
<!-- 503&#45;&gt;539 -->
<g id="edge15" class="edge">
<title>503&#45;&gt;539</title>
<path fill="none" stroke="black" d="M810.81,-71.76C813.98,-63.04 817.26,-54.04 820.18,-45.99"/>
<polygon fill="black" stroke="black" points="823.54,-47 823.67,-36.41 816.96,-44.61 823.54,-47"/>
</g>
<!-- 575 -->
<g id="node18" class="node">
<title>575</title>
<polygon fill="#965ae9" stroke="black" points="1215,-274 1003,-274 1003,-191 1215,-191 1215,-274"/>
<text text-anchor="middle" x="1109" y="-258.8" font-family="Times,serif" font-size="14.00">sdComm &lt;= 2.0</text>
<text text-anchor="middle" x="1109" y="-243.8" font-family="Times,serif" font-size="14.00">gini = 0.263</text>
<text text-anchor="middle" x="1109" y="-228.8" font-family="Times,serif" font-size="14.00">samples = 18717</text>
<text text-anchor="middle" x="1109" y="-213.8" font-family="Times,serif" font-size="14.00">value = [970, 1816, 15931]</text>
<text text-anchor="middle" x="1109" y="-198.8" font-family="Times,serif" font-size="14.00">class = None</text>
</g>
<!-- 574&#45;&gt;575 -->
<g id="edge17" class="edge">
<title>574&#45;&gt;575</title>
<path fill="none" stroke="black" d="M1109,-309.91C1109,-301.65 1109,-292.86 1109,-284.3"/>
<polygon fill="black" stroke="black" points="1112.5,-284.02 1109,-274.02 1105.5,-284.02 1112.5,-284.02"/>
</g>
<!-- 714 -->
<g id="node25" class="node">
<title>714</title>
<polygon fill="#a877ed" stroke="black" points="1546,-274 1334,-274 1334,-191 1546,-191 1546,-274"/>
<text text-anchor="middle" x="1440" y="-258.8" font-family="Times,serif" font-size="14.00">nbproc &lt;= 4.5</text>
<text text-anchor="middle" x="1440" y="-243.8" font-family="Times,serif" font-size="14.00">gini = 0.427</text>
<text text-anchor="middle" x="1440" y="-228.8" font-family="Times,serif" font-size="14.00">samples = 8056</text>
<text text-anchor="middle" x="1440" y="-213.8" font-family="Times,serif" font-size="14.00">value = [1140, 1012, 5904]</text>
<text text-anchor="middle" x="1440" y="-198.8" font-family="Times,serif" font-size="14.00">class = None</text>
</g>
<!-- 574&#45;&gt;714 -->
<g id="edge24" class="edge">
<title>574&#45;&gt;714</title>
<path fill="none" stroke="black" d="M1219.68,-311.38C1253.35,-299.48 1290.43,-286.37 1324.42,-274.36"/>
<polygon fill="black" stroke="black" points="1325.65,-277.63 1333.91,-271 1323.32,-271.03 1325.65,-277.63"/>
</g>
<!-- 576 -->
<g id="node19" class="node">
<title>576</title>
<polygon fill="#a26dec" stroke="black" points="1105,-155 911,-155 911,-72 1105,-72 1105,-155"/>
<text text-anchor="middle" x="1008" y="-139.8" font-family="Times,serif" font-size="14.00">graphDepth &lt;= 9.0</text>
<text text-anchor="middle" x="1008" y="-124.8" font-family="Times,serif" font-size="14.00">gini = 0.366</text>
<text text-anchor="middle" x="1008" y="-109.8" font-family="Times,serif" font-size="14.00">samples = 5538</text>
<text text-anchor="middle" x="1008" y="-94.8" font-family="Times,serif" font-size="14.00">value = [358, 874, 4306]</text>
<text text-anchor="middle" x="1008" y="-79.8" font-family="Times,serif" font-size="14.00">class = None</text>
</g>
<!-- 575&#45;&gt;576 -->
<g id="edge18" class="edge">
<title>575&#45;&gt;576</title>
<path fill="none" stroke="black" d="M1073.96,-190.91C1066.12,-181.83 1057.74,-172.12 1049.67,-162.77"/>
<polygon fill="black" stroke="black" points="1052.16,-160.3 1042.98,-155.02 1046.86,-164.88 1052.16,-160.3"/>
</g>
<!-- 619 -->
<g id="node22" class="node">
<title>619</title>
<polygon fill="#9152e8" stroke="black" points="1325.5,-155 1122.5,-155 1122.5,-72 1325.5,-72 1325.5,-155"/>
<text text-anchor="middle" x="1224" y="-139.8" font-family="Times,serif" font-size="14.00">graphSize &lt;= 22.5</text>
<text text-anchor="middle" x="1224" y="-124.8" font-family="Times,serif" font-size="14.00">gini = 0.215</text>
<text text-anchor="middle" x="1224" y="-109.8" font-family="Times,serif" font-size="14.00">samples = 13179</text>
<text text-anchor="middle" x="1224" y="-94.8" font-family="Times,serif" font-size="14.00">value = [612, 942, 11625]</text>
<text text-anchor="middle" x="1224" y="-79.8" font-family="Times,serif" font-size="14.00">class = None</text>
</g>
<!-- 575&#45;&gt;619 -->
<g id="edge21" class="edge">
<title>575&#45;&gt;619</title>
<path fill="none" stroke="black" d="M1148.9,-190.91C1158,-181.65 1167.75,-171.73 1177.11,-162.21"/>
<polygon fill="black" stroke="black" points="1179.66,-164.61 1184.17,-155.02 1174.67,-159.7 1179.66,-164.61"/>
</g>
<!-- 577 -->
<g id="node20" class="node">
<title>577</title>
<polygon fill="#c0c0c0" stroke="black" points="999,-36 945,-36 945,0 999,0 999,-36"/>
<text text-anchor="middle" x="972" y="-14.3" font-family="Times,serif" font-size="14.00">(...)</text>
</g>
<!-- 576&#45;&gt;577 -->
<g id="edge19" class="edge">
<title>576&#45;&gt;577</title>
<path fill="none" stroke="black" d="M992.31,-71.76C988.96,-63.04 985.49,-54.04 982.39,-45.99"/>
<polygon fill="black" stroke="black" points="985.56,-44.48 978.7,-36.41 979.03,-46.99 985.56,-44.48"/>
</g>
<!-- 594 -->
<g id="node21" class="node">
<title>594</title>
<polygon fill="#c0c0c0" stroke="black" points="1071,-36 1017,-36 1017,0 1071,0 1071,-36"/>
<text text-anchor="middle" x="1044" y="-14.3" font-family="Times,serif" font-size="14.00">(...)</text>
</g>
<!-- 576&#45;&gt;594 -->
<g id="edge20" class="edge">
<title>576&#45;&gt;594</title>
<path fill="none" stroke="black" d="M1023.69,-71.76C1027.04,-63.04 1030.51,-54.04 1033.61,-45.99"/>
<polygon fill="black" stroke="black" points="1036.97,-46.99 1037.3,-36.41 1030.44,-44.48 1036.97,-46.99"/>
</g>
<!-- 620 -->
<g id="node23" class="node">
<title>620</title>
<polygon fill="#c0c0c0" stroke="black" points="1215,-36 1161,-36 1161,0 1215,0 1215,-36"/>
<text text-anchor="middle" x="1188" y="-14.3" font-family="Times,serif" font-size="14.00">(...)</text>
</g>
<!-- 619&#45;&gt;620 -->
<g id="edge22" class="edge">
<title>619&#45;&gt;620</title>
<path fill="none" stroke="black" d="M1208.31,-71.76C1204.96,-63.04 1201.49,-54.04 1198.39,-45.99"/>
<polygon fill="black" stroke="black" points="1201.56,-44.48 1194.7,-36.41 1195.03,-46.99 1201.56,-44.48"/>
</g>
<!-- 651 -->
<g id="node24" class="node">
<title>651</title>
<polygon fill="#c0c0c0" stroke="black" points="1287,-36 1233,-36 1233,0 1287,0 1287,-36"/>
<text text-anchor="middle" x="1260" y="-14.3" font-family="Times,serif" font-size="14.00">(...)</text>
</g>
<!-- 619&#45;&gt;651 -->
<g id="edge23" class="edge">
<title>619&#45;&gt;651</title>
<path fill="none" stroke="black" d="M1239.69,-71.76C1243.04,-63.04 1246.51,-54.04 1249.61,-45.99"/>
<polygon fill="black" stroke="black" points="1252.97,-46.99 1253.3,-36.41 1246.44,-44.48 1252.97,-46.99"/>
</g>
<!-- 715 -->
<g id="node26" class="node">
<title>715</title>
<polygon fill="#b48af0" stroke="black" points="1537,-155 1343,-155 1343,-72 1537,-72 1537,-155"/>
<text text-anchor="middle" x="1440" y="-139.8" font-family="Times,serif" font-size="14.00">graphSize &lt;= 75.0</text>
<text text-anchor="middle" x="1440" y="-124.8" font-family="Times,serif" font-size="14.00">gini = 0.493</text>
<text text-anchor="middle" x="1440" y="-109.8" font-family="Times,serif" font-size="14.00">samples = 5052</text>
<text text-anchor="middle" x="1440" y="-94.8" font-family="Times,serif" font-size="14.00">value = [992, 666, 3394]</text>
<text text-anchor="middle" x="1440" y="-79.8" font-family="Times,serif" font-size="14.00">class = None</text>
</g>
<!-- 714&#45;&gt;715 -->
<g id="edge25" class="edge">
<title>714&#45;&gt;715</title>
<path fill="none" stroke="black" d="M1440,-190.91C1440,-182.65 1440,-173.86 1440,-165.3"/>
<polygon fill="black" stroke="black" points="1443.5,-165.02 1440,-155.02 1436.5,-165.02 1443.5,-165.02"/>
</g>
<!-- 762 -->
<g id="node29" class="node">
<title>762</title>
<polygon fill="#985eea" stroke="black" points="1749,-155 1555,-155 1555,-72 1749,-72 1749,-155"/>
<text text-anchor="middle" x="1652" y="-139.8" font-family="Times,serif" font-size="14.00">graphSize &lt;= 40.0</text>
<text text-anchor="middle" x="1652" y="-124.8" font-family="Times,serif" font-size="14.00">gini = 0.286</text>
<text text-anchor="middle" x="1652" y="-109.8" font-family="Times,serif" font-size="14.00">samples = 3004</text>
<text text-anchor="middle" x="1652" y="-94.8" font-family="Times,serif" font-size="14.00">value = [148, 346, 2510]</text>
<text text-anchor="middle" x="1652" y="-79.8" font-family="Times,serif" font-size="14.00">class = None</text>
</g>
<!-- 714&#45;&gt;762 -->
<g id="edge28" class="edge">
<title>714&#45;&gt;762</title>
<path fill="none" stroke="black" d="M1513.55,-190.91C1531.64,-180.92 1551.12,-170.17 1569.6,-159.98"/>
<polygon fill="black" stroke="black" points="1571.51,-162.92 1578.58,-155.02 1568.13,-156.79 1571.51,-162.92"/>
</g>
<!-- 716 -->
<g id="node27" class="node">
<title>716</title>
<polygon fill="#c0c0c0" stroke="black" points="1431,-36 1377,-36 1377,0 1431,0 1431,-36"/>
<text text-anchor="middle" x="1404" y="-14.3" font-family="Times,serif" font-size="14.00">(...)</text>
</g>
<!-- 715&#45;&gt;716 -->
<g id="edge26" class="edge">
<title>715&#45;&gt;716</title>
<path fill="none" stroke="black" d="M1424.31,-71.76C1420.96,-63.04 1417.49,-54.04 1414.39,-45.99"/>
<polygon fill="black" stroke="black" points="1417.56,-44.48 1410.7,-36.41 1411.03,-46.99 1417.56,-44.48"/>
</g>
<!-- 751 -->
<g id="node28" class="node">
<title>751</title>
<polygon fill="#c0c0c0" stroke="black" points="1503,-36 1449,-36 1449,0 1503,0 1503,-36"/>
<text text-anchor="middle" x="1476" y="-14.3" font-family="Times,serif" font-size="14.00">(...)</text>
</g>
<!-- 715&#45;&gt;751 -->
<g id="edge27" class="edge">
<title>715&#45;&gt;751</title>
<path fill="none" stroke="black" d="M1455.69,-71.76C1459.04,-63.04 1462.51,-54.04 1465.61,-45.99"/>
<polygon fill="black" stroke="black" points="1468.97,-46.99 1469.3,-36.41 1462.44,-44.48 1468.97,-46.99"/>
</g>
<!-- 763 -->
<g id="node30" class="node">
<title>763</title>
<polygon fill="#c0c0c0" stroke="black" points="1643,-36 1589,-36 1589,0 1643,0 1643,-36"/>
<text text-anchor="middle" x="1616" y="-14.3" font-family="Times,serif" font-size="14.00">(...)</text>
</g>
<!-- 762&#45;&gt;763 -->
<g id="edge29" class="edge">
<title>762&#45;&gt;763</title>
<path fill="none" stroke="black" d="M1636.31,-71.76C1632.96,-63.04 1629.49,-54.04 1626.39,-45.99"/>
<polygon fill="black" stroke="black" points="1629.56,-44.48 1622.7,-36.41 1623.03,-46.99 1629.56,-44.48"/>
</g>
<!-- 786 -->
<g id="node31" class="node">
<title>786</title>
<polygon fill="#c0c0c0" stroke="black" points="1715,-36 1661,-36 1661,0 1715,0 1715,-36"/>
<text text-anchor="middle" x="1688" y="-14.3" font-family="Times,serif" font-size="14.00">(...)</text>
</g>
<!-- 762&#45;&gt;786 -->
<g id="edge30" class="edge">
<title>762&#45;&gt;786</title>
<path fill="none" stroke="black" d="M1667.69,-71.76C1671.04,-63.04 1674.51,-54.04 1677.61,-45.99"/>
<polygon fill="black" stroke="black" points="1680.97,-46.99 1681.3,-36.41 1674.44,-44.48 1680.97,-46.99"/>
</g>
</g>
</svg>
