<?xml version="1.0" encoding="UTF-8" standalone="no"?>
<!DOCTYPE svg PUBLIC "-//W3C//DTD SVG 1.1//EN"
 "http://www.w3.org/Graphics/SVG/1.1/DTD/svg11.dtd">
<!-- Generated by graphviz version 2.43.0 (0)
 -->
<!-- Title: Tree Pages: 1 -->
<svg width="1478pt" height="520pt"
 viewBox="0.00 0.00 1477.50 520.00" xmlns="http://www.w3.org/2000/svg" xmlns:xlink="http://www.w3.org/1999/xlink">
<g id="graph0" class="graph" transform="scale(1 1) rotate(0) translate(4 516)">
<title>Tree</title>
<polygon fill="white" stroke="transparent" points="-4,4 -4,-516 1473.5,-516 1473.5,4 -4,4"/>
<!-- 0 -->
<g id="node1" class="node">
<title>0</title>
<polygon fill="#a9d4f4" stroke="black" points="921.5,-512 736.5,-512 736.5,-429 921.5,-429 921.5,-512"/>
<text text-anchor="middle" x="829" y="-496.8" font-family="Times,serif" font-size="14.00">CCR &lt;= 5.5</text>
<text text-anchor="middle" x="829" y="-481.8" font-family="Times,serif" font-size="14.00">gini = 0.462</text>
<text text-anchor="middle" x="829" y="-466.8" font-family="Times,serif" font-size="14.00">samples = 82155</text>
<text text-anchor="middle" x="829" y="-451.8" font-family="Times,serif" font-size="14.00">value = [29691, 52464]</text>
<text text-anchor="middle" x="829" y="-436.8" font-family="Times,serif" font-size="14.00">class = True</text>
</g>
<!-- 1 -->
<g id="node2" class="node">
<title>1</title>
<polygon fill="#cde6f8" stroke="black" points="644.5,-393 459.5,-393 459.5,-310 644.5,-310 644.5,-393"/>
<text text-anchor="middle" x="552" y="-377.8" font-family="Times,serif" font-size="14.00">nbproc &lt;= 4.5</text>
<text text-anchor="middle" x="552" y="-362.8" font-family="Times,serif" font-size="14.00">gini = 0.489</text>
<text text-anchor="middle" x="552" y="-347.8" font-family="Times,serif" font-size="14.00">samples = 55382</text>
<text text-anchor="middle" x="552" y="-332.8" font-family="Times,serif" font-size="14.00">value = [23673, 31709]</text>
<text text-anchor="middle" x="552" y="-317.8" font-family="Times,serif" font-size="14.00">class = True</text>
</g>
<!-- 0&#45;&gt;1 -->
<g id="edge1" class="edge">
<title>0&#45;&gt;1</title>
<path fill="none" stroke="black" d="M736.38,-430.38C709.93,-419.21 680.96,-406.97 653.99,-395.58"/>
<polygon fill="black" stroke="black" points="655.11,-392.25 644.53,-391.59 652.38,-398.7 655.11,-392.25"/>
<text text-anchor="middle" x="653.94" y="-411.05" font-family="Times,serif" font-size="14.00">True</text>
</g>
<!-- 554 -->
<g id="node17" class="node">
<title>554</title>
<polygon fill="#72b9ed" stroke="black" points="1012,-393 836,-393 836,-310 1012,-310 1012,-393"/>
<text text-anchor="middle" x="924" y="-377.8" font-family="Times,serif" font-size="14.00">sdComp &lt;= 6.5</text>
<text text-anchor="middle" x="924" y="-362.8" font-family="Times,serif" font-size="14.00">gini = 0.349</text>
<text text-anchor="middle" x="924" y="-347.8" font-family="Times,serif" font-size="14.00">samples = 26773</text>
<text text-anchor="middle" x="924" y="-332.8" font-family="Times,serif" font-size="14.00">value = [6018, 20755]</text>
<text text-anchor="middle" x="924" y="-317.8" font-family="Times,serif" font-size="14.00">class = True</text>
</g>
<!-- 0&#45;&gt;554 -->
<g id="edge16" class="edge">
<title>0&#45;&gt;554</title>
<path fill="none" stroke="black" d="M861.96,-428.91C869.25,-419.92 877.06,-410.32 884.58,-401.05"/>
<polygon fill="black" stroke="black" points="887.51,-402.99 891.1,-393.02 882.08,-398.58 887.51,-402.99"/>
<text text-anchor="middle" x="893.68" y="-414.19" font-family="Times,serif" font-size="14.00">False</text>
</g>
<!-- 2 -->
<g id="node3" class="node">
<title>2</title>
<polygon fill="#b2d9f5" stroke="black" points="347,-274 171,-274 171,-191 347,-191 347,-274"/>
<text text-anchor="middle" x="259" y="-258.8" font-family="Times,serif" font-size="14.00">graphDepth &lt;= 3.5</text>
<text text-anchor="middle" x="259" y="-243.8" font-family="Times,serif" font-size="14.00">gini = 0.471</text>
<text text-anchor="middle" x="259" y="-228.8" font-family="Times,serif" font-size="14.00">samples = 18536</text>
<text text-anchor="middle" x="259" y="-213.8" font-family="Times,serif" font-size="14.00">value = [7048, 11488]</text>
<text text-anchor="middle" x="259" y="-198.8" font-family="Times,serif" font-size="14.00">class = True</text>
</g>
<!-- 1&#45;&gt;2 -->
<g id="edge2" class="edge">
<title>1&#45;&gt;2</title>
<path fill="none" stroke="black" d="M459.29,-313.48C426.64,-300.44 389.84,-285.75 356.78,-272.55"/>
<polygon fill="black" stroke="black" points="357.69,-269.14 347.11,-268.68 355.1,-275.64 357.69,-269.14"/>
</g>
<!-- 267 -->
<g id="node10" class="node">
<title>267</title>
<polygon fill="#dceefa" stroke="black" points="644.5,-274 459.5,-274 459.5,-191 644.5,-191 644.5,-274"/>
<text text-anchor="middle" x="552" y="-258.8" font-family="Times,serif" font-size="14.00">sdComp &lt;= 0.65</text>
<text text-anchor="middle" x="552" y="-243.8" font-family="Times,serif" font-size="14.00">gini = 0.495</text>
<text text-anchor="middle" x="552" y="-228.8" font-family="Times,serif" font-size="14.00">samples = 36846</text>
<text text-anchor="middle" x="552" y="-213.8" font-family="Times,serif" font-size="14.00">value = [16625, 20221]</text>
<text text-anchor="middle" x="552" y="-198.8" font-family="Times,serif" font-size="14.00">class = True</text>
</g>
<!-- 1&#45;&gt;267 -->
<g id="edge9" class="edge">
<title>1&#45;&gt;267</title>
<path fill="none" stroke="black" d="M552,-309.91C552,-301.65 552,-292.86 552,-284.3"/>
<polygon fill="black" stroke="black" points="555.5,-284.02 552,-274.02 548.5,-284.02 555.5,-284.02"/>
</g>
<!-- 3 -->
<g id="node4" class="node">
<title>3</title>
<polygon fill="#77bbed" stroke="black" points="158,-155 0,-155 0,-72 158,-72 158,-155"/>
<text text-anchor="middle" x="79" y="-139.8" font-family="Times,serif" font-size="14.00">sdComp &lt;= 0.065</text>
<text text-anchor="middle" x="79" y="-124.8" font-family="Times,serif" font-size="14.00">gini = 0.362</text>
<text text-anchor="middle" x="79" y="-109.8" font-family="Times,serif" font-size="14.00">samples = 2994</text>
<text text-anchor="middle" x="79" y="-94.8" font-family="Times,serif" font-size="14.00">value = [710, 2284]</text>
<text text-anchor="middle" x="79" y="-79.8" font-family="Times,serif" font-size="14.00">class = True</text>
</g>
<!-- 2&#45;&gt;3 -->
<g id="edge3" class="edge">
<title>2&#45;&gt;3</title>
<path fill="none" stroke="black" d="M196.55,-190.91C181.47,-181.11 165.25,-170.56 149.82,-160.53"/>
<polygon fill="black" stroke="black" points="151.63,-157.54 141.34,-155.02 147.82,-163.41 151.63,-157.54"/>
</g>
<!-- 24 -->
<g id="node7" class="node">
<title>24</title>
<polygon fill="#c1e0f7" stroke="black" points="342.5,-155 175.5,-155 175.5,-72 342.5,-72 342.5,-155"/>
<text text-anchor="middle" x="259" y="-139.8" font-family="Times,serif" font-size="14.00">sdComp &lt;= 0.65</text>
<text text-anchor="middle" x="259" y="-124.8" font-family="Times,serif" font-size="14.00">gini = 0.483</text>
<text text-anchor="middle" x="259" y="-109.8" font-family="Times,serif" font-size="14.00">samples = 15542</text>
<text text-anchor="middle" x="259" y="-94.8" font-family="Times,serif" font-size="14.00">value = [6338, 9204]</text>
<text text-anchor="middle" x="259" y="-79.8" font-family="Times,serif" font-size="14.00">class = True</text>
</g>
<!-- 2&#45;&gt;24 -->
<g id="edge6" class="edge">
<title>2&#45;&gt;24</title>
<path fill="none" stroke="black" d="M259,-190.91C259,-182.65 259,-173.86 259,-165.3"/>
<polygon fill="black" stroke="black" points="262.5,-165.02 259,-155.02 255.5,-165.02 262.5,-165.02"/>
</g>
<!-- 4 -->
<g id="node5" class="node">
<title>4</title>
<polygon fill="#c0c0c0" stroke="black" points="85,-36 31,-36 31,0 85,0 85,-36"/>
<text text-anchor="middle" x="58" y="-14.3" font-family="Times,serif" font-size="14.00">(...)</text>
</g>
<!-- 3&#45;&gt;4 -->
<g id="edge4" class="edge">
<title>3&#45;&gt;4</title>
<path fill="none" stroke="black" d="M69.85,-71.76C67.91,-63.14 65.91,-54.24 64.12,-46.26"/>
<polygon fill="black" stroke="black" points="67.52,-45.4 61.91,-36.41 60.69,-46.93 67.52,-45.4"/>
</g>
<!-- 5 -->
<g id="node6" class="node">
<title>5</title>
<polygon fill="#c0c0c0" stroke="black" points="157,-36 103,-36 103,0 157,0 157,-36"/>
<text text-anchor="middle" x="130" y="-14.3" font-family="Times,serif" font-size="14.00">(...)</text>
</g>
<!-- 3&#45;&gt;5 -->
<g id="edge5" class="edge">
<title>3&#45;&gt;5</title>
<path fill="none" stroke="black" d="M101.22,-71.76C106.14,-62.75 111.22,-53.44 115.71,-45.19"/>
<polygon fill="black" stroke="black" points="118.79,-46.86 120.51,-36.41 112.65,-43.51 118.79,-46.86"/>
</g>
<!-- 25 -->
<g id="node8" class="node">
<title>25</title>
<polygon fill="#c0c0c0" stroke="black" points="236,-36 182,-36 182,0 236,0 236,-36"/>
<text text-anchor="middle" x="209" y="-14.3" font-family="Times,serif" font-size="14.00">(...)</text>
</g>
<!-- 24&#45;&gt;25 -->
<g id="edge7" class="edge">
<title>24&#45;&gt;25</title>
<path fill="none" stroke="black" d="M237.21,-71.76C232.45,-62.85 227.52,-53.64 223.15,-45.46"/>
<polygon fill="black" stroke="black" points="226.11,-43.57 218.31,-36.41 219.94,-46.87 226.11,-43.57"/>
</g>
<!-- 230 -->
<g id="node9" class="node">
<title>230</title>
<polygon fill="#c0c0c0" stroke="black" points="308,-36 254,-36 254,0 308,0 308,-36"/>
<text text-anchor="middle" x="281" y="-14.3" font-family="Times,serif" font-size="14.00">(...)</text>
</g>
<!-- 24&#45;&gt;230 -->
<g id="edge8" class="edge">
<title>24&#45;&gt;230</title>
<path fill="none" stroke="black" d="M268.59,-71.76C270.61,-63.14 272.71,-54.24 274.59,-46.26"/>
<polygon fill="black" stroke="black" points="278.02,-46.94 276.9,-36.41 271.21,-45.34 278.02,-46.94"/>
</g>
<!-- 268 -->
<g id="node11" class="node">
<title>268</title>
<polygon fill="#e1f0fb" stroke="black" points="545.5,-155 360.5,-155 360.5,-72 545.5,-72 545.5,-155"/>
<text text-anchor="middle" x="453" y="-139.8" font-family="Times,serif" font-size="14.00">graphSize &lt;= 22.5</text>
<text text-anchor="middle" x="453" y="-124.8" font-family="Times,serif" font-size="14.00">gini = 0.497</text>
<text text-anchor="middle" x="453" y="-109.8" font-family="Times,serif" font-size="14.00">samples = 32794</text>
<text text-anchor="middle" x="453" y="-94.8" font-family="Times,serif" font-size="14.00">value = [15038, 17756]</text>
<text text-anchor="middle" x="453" y="-79.8" font-family="Times,serif" font-size="14.00">class = True</text>
</g>
<!-- 267&#45;&gt;268 -->
<g id="edge10" class="edge">
<title>267&#45;&gt;268</title>
<path fill="none" stroke="black" d="M517.65,-190.91C509.97,-181.83 501.76,-172.12 493.84,-162.77"/>
<polygon fill="black" stroke="black" points="496.42,-160.39 487.29,-155.02 491.07,-164.92 496.42,-160.39"/>
</g>
<!-- 507 -->
<g id="node14" class="node">
<title>507</title>
<polygon fill="#b8dcf6" stroke="black" points="730.5,-155 563.5,-155 563.5,-72 730.5,-72 730.5,-155"/>
<text text-anchor="middle" x="647" y="-139.8" font-family="Times,serif" font-size="14.00">graphDepth &lt;= 13.5</text>
<text text-anchor="middle" x="647" y="-124.8" font-family="Times,serif" font-size="14.00">gini = 0.477</text>
<text text-anchor="middle" x="647" y="-109.8" font-family="Times,serif" font-size="14.00">samples = 4052</text>
<text text-anchor="middle" x="647" y="-94.8" font-family="Times,serif" font-size="14.00">value = [1587, 2465]</text>
<text text-anchor="middle" x="647" y="-79.8" font-family="Times,serif" font-size="14.00">class = True</text>
</g>
<!-- 267&#45;&gt;507 -->
<g id="edge13" class="edge">
<title>267&#45;&gt;507</title>
<path fill="none" stroke="black" d="M584.96,-190.91C592.25,-181.92 600.06,-172.32 607.58,-163.05"/>
<polygon fill="black" stroke="black" points="610.51,-164.99 614.1,-155.02 605.08,-160.58 610.51,-164.99"/>
</g>
<!-- 269 -->
<g id="node12" class="node">
<title>269</title>
<polygon fill="#c0c0c0" stroke="black" points="433,-36 379,-36 379,0 433,0 433,-36"/>
<text text-anchor="middle" x="406" y="-14.3" font-family="Times,serif" font-size="14.00">(...)</text>
</g>
<!-- 268&#45;&gt;269 -->
<g id="edge11" class="edge">
<title>268&#45;&gt;269</title>
<path fill="none" stroke="black" d="M432.52,-71.76C428.04,-62.85 423.41,-53.64 419.3,-45.46"/>
<polygon fill="black" stroke="black" points="422.37,-43.77 414.75,-36.41 416.11,-46.91 422.37,-43.77"/>
</g>
<!-- 328 -->
<g id="node13" class="node">
<title>328</title>
<polygon fill="#c0c0c0" stroke="black" points="505,-36 451,-36 451,0 505,0 505,-36"/>
<text text-anchor="middle" x="478" y="-14.3" font-family="Times,serif" font-size="14.00">(...)</text>
</g>
<!-- 268&#45;&gt;328 -->
<g id="edge12" class="edge">
<title>268&#45;&gt;328</title>
<path fill="none" stroke="black" d="M463.89,-71.76C466.2,-63.14 468.58,-54.24 470.71,-46.26"/>
<polygon fill="black" stroke="black" points="474.14,-46.97 473.35,-36.41 467.38,-45.16 474.14,-46.97"/>
</g>
<!-- 508 -->
<g id="node15" class="node">
<title>508</title>
<polygon fill="#c0c0c0" stroke="black" points="624,-36 570,-36 570,0 624,0 624,-36"/>
<text text-anchor="middle" x="597" y="-14.3" font-family="Times,serif" font-size="14.00">(...)</text>
</g>
<!-- 507&#45;&gt;508 -->
<g id="edge14" class="edge">
<title>507&#45;&gt;508</title>
<path fill="none" stroke="black" d="M625.21,-71.76C620.45,-62.85 615.52,-53.64 611.15,-45.46"/>
<polygon fill="black" stroke="black" points="614.11,-43.57 606.31,-36.41 607.94,-46.87 614.11,-43.57"/>
</g>
<!-- 537 -->
<g id="node16" class="node">
<title>537</title>
<polygon fill="#c0c0c0" stroke="black" points="696,-36 642,-36 642,0 696,0 696,-36"/>
<text text-anchor="middle" x="669" y="-14.3" font-family="Times,serif" font-size="14.00">(...)</text>
</g>
<!-- 507&#45;&gt;537 -->
<g id="edge15" class="edge">
<title>507&#45;&gt;537</title>
<path fill="none" stroke="black" d="M656.59,-71.76C658.61,-63.14 660.71,-54.24 662.59,-46.26"/>
<polygon fill="black" stroke="black" points="666.02,-46.94 664.9,-36.41 659.21,-45.34 666.02,-46.94"/>
</g>
<!-- 555 -->
<g id="node18" class="node">
<title>555</title>
<polygon fill="#63b2eb" stroke="black" points="1012,-274 836,-274 836,-191 1012,-191 1012,-274"/>
<text text-anchor="middle" x="924" y="-258.8" font-family="Times,serif" font-size="14.00">graphDepth &lt;= 25.5</text>
<text text-anchor="middle" x="924" y="-243.8" font-family="Times,serif" font-size="14.00">gini = 0.29</text>
<text text-anchor="middle" x="924" y="-228.8" font-family="Times,serif" font-size="14.00">samples = 18717</text>
<text text-anchor="middle" x="924" y="-213.8" font-family="Times,serif" font-size="14.00">value = [3298, 15419]</text>
<text text-anchor="middle" x="924" y="-198.8" font-family="Times,serif" font-size="14.00">class = True</text>
</g>
<!-- 554&#45;&gt;555 -->
<g id="edge17" class="edge">
<title>554&#45;&gt;555</title>
<path fill="none" stroke="black" d="M924,-309.91C924,-301.65 924,-292.86 924,-284.3"/>
<polygon fill="black" stroke="black" points="927.5,-284.02 924,-274.02 920.5,-284.02 927.5,-284.02"/>
</g>
<!-- 694 -->
<g id="node25" class="node">
<title>694</title>
<polygon fill="#9ecff2" stroke="black" points="1284.5,-274 1117.5,-274 1117.5,-191 1284.5,-191 1284.5,-274"/>
<text text-anchor="middle" x="1201" y="-258.8" font-family="Times,serif" font-size="14.00">sdComm &lt;= 2.0</text>
<text text-anchor="middle" x="1201" y="-243.8" font-family="Times,serif" font-size="14.00">gini = 0.447</text>
<text text-anchor="middle" x="1201" y="-228.8" font-family="Times,serif" font-size="14.00">samples = 8056</text>
<text text-anchor="middle" x="1201" y="-213.8" font-family="Times,serif" font-size="14.00">value = [2720, 5336]</text>
<text text-anchor="middle" x="1201" y="-198.8" font-family="Times,serif" font-size="14.00">class = True</text>
</g>
<!-- 554&#45;&gt;694 -->
<g id="edge24" class="edge">
<title>554&#45;&gt;694</title>
<path fill="none" stroke="black" d="M1012.03,-313.32C1042.6,-300.4 1076.99,-285.88 1107.96,-272.8"/>
<polygon fill="black" stroke="black" points="1109.6,-275.9 1117.45,-268.79 1106.88,-269.46 1109.6,-275.9"/>
</g>
<!-- 556 -->
<g id="node19" class="node">
<title>556</title>
<polygon fill="#5eafea" stroke="black" points="924,-155 748,-155 748,-72 924,-72 924,-155"/>
<text text-anchor="middle" x="836" y="-139.8" font-family="Times,serif" font-size="14.00">graphSize &lt;= 75.0</text>
<text text-anchor="middle" x="836" y="-124.8" font-family="Times,serif" font-size="14.00">gini = 0.266</text>
<text text-anchor="middle" x="836" y="-109.8" font-family="Times,serif" font-size="14.00">samples = 16165</text>
<text text-anchor="middle" x="836" y="-94.8" font-family="Times,serif" font-size="14.00">value = [2556, 13609]</text>
<text text-anchor="middle" x="836" y="-79.8" font-family="Times,serif" font-size="14.00">class = True</text>
</g>
<!-- 555&#45;&gt;556 -->
<g id="edge18" class="edge">
<title>555&#45;&gt;556</title>
<path fill="none" stroke="black" d="M893.47,-190.91C886.71,-181.92 879.48,-172.32 872.52,-163.05"/>
<polygon fill="black" stroke="black" points="875.29,-160.91 866.48,-155.02 869.69,-165.12 875.29,-160.91"/>
</g>
<!-- 671 -->
<g id="node22" class="node">
<title>671</title>
<polygon fill="#8ac5f0" stroke="black" points="1100,-155 942,-155 942,-72 1100,-72 1100,-155"/>
<text text-anchor="middle" x="1021" y="-139.8" font-family="Times,serif" font-size="14.00">nbproc &lt;= 4.5</text>
<text text-anchor="middle" x="1021" y="-124.8" font-family="Times,serif" font-size="14.00">gini = 0.412</text>
<text text-anchor="middle" x="1021" y="-109.8" font-family="Times,serif" font-size="14.00">samples = 2552</text>
<text text-anchor="middle" x="1021" y="-94.8" font-family="Times,serif" font-size="14.00">value = [742, 1810]</text>
<text text-anchor="middle" x="1021" y="-79.8" font-family="Times,serif" font-size="14.00">class = True</text>
</g>
<!-- 555&#45;&gt;671 -->
<g id="edge21" class="edge">
<title>555&#45;&gt;671</title>
<path fill="none" stroke="black" d="M957.65,-190.91C965.18,-181.83 973.23,-172.12 980.98,-162.77"/>
<polygon fill="black" stroke="black" points="983.72,-164.95 987.41,-155.02 978.33,-160.49 983.72,-164.95"/>
</g>
<!-- 557 -->
<g id="node20" class="node">
<title>557</title>
<polygon fill="#c0c0c0" stroke="black" points="811,-36 757,-36 757,0 811,0 811,-36"/>
<text text-anchor="middle" x="784" y="-14.3" font-family="Times,serif" font-size="14.00">(...)</text>
</g>
<!-- 556&#45;&gt;557 -->
<g id="edge19" class="edge">
<title>556&#45;&gt;557</title>
<path fill="none" stroke="black" d="M813.34,-71.76C808.33,-62.75 803.15,-53.44 798.57,-45.19"/>
<polygon fill="black" stroke="black" points="801.6,-43.44 793.68,-36.41 795.48,-46.85 801.6,-43.44"/>
</g>
<!-- 660 -->
<g id="node21" class="node">
<title>660</title>
<polygon fill="#c0c0c0" stroke="black" points="883,-36 829,-36 829,0 883,0 883,-36"/>
<text text-anchor="middle" x="856" y="-14.3" font-family="Times,serif" font-size="14.00">(...)</text>
</g>
<!-- 556&#45;&gt;660 -->
<g id="edge20" class="edge">
<title>556&#45;&gt;660</title>
<path fill="none" stroke="black" d="M844.71,-71.76C846.56,-63.14 848.46,-54.24 850.17,-46.26"/>
<polygon fill="black" stroke="black" points="853.61,-46.92 852.28,-36.41 846.76,-45.45 853.61,-46.92"/>
</g>
<!-- 672 -->
<g id="node23" class="node">
<title>672</title>
<polygon fill="#c0c0c0" stroke="black" points="994,-36 940,-36 940,0 994,0 994,-36"/>
<text text-anchor="middle" x="967" y="-14.3" font-family="Times,serif" font-size="14.00">(...)</text>
</g>
<!-- 671&#45;&gt;672 -->
<g id="edge22" class="edge">
<title>671&#45;&gt;672</title>
<path fill="none" stroke="black" d="M997.47,-71.76C992.27,-62.75 986.89,-53.44 982.13,-45.19"/>
<polygon fill="black" stroke="black" points="985.08,-43.31 977.05,-36.41 979.02,-46.82 985.08,-43.31"/>
</g>
<!-- 683 -->
<g id="node24" class="node">
<title>683</title>
<polygon fill="#c0c0c0" stroke="black" points="1066,-36 1012,-36 1012,0 1066,0 1066,-36"/>
<text text-anchor="middle" x="1039" y="-14.3" font-family="Times,serif" font-size="14.00">(...)</text>
</g>
<!-- 671&#45;&gt;683 -->
<g id="edge23" class="edge">
<title>671&#45;&gt;683</title>
<path fill="none" stroke="black" d="M1028.84,-71.76C1030.5,-63.14 1032.22,-54.24 1033.75,-46.26"/>
<polygon fill="black" stroke="black" points="1037.2,-46.89 1035.65,-36.41 1030.32,-45.56 1037.2,-46.89"/>
</g>
<!-- 695 -->
<g id="node26" class="node">
<title>695</title>
<polygon fill="#b5dbf5" stroke="black" points="1284.5,-155 1117.5,-155 1117.5,-72 1284.5,-72 1284.5,-155"/>
<text text-anchor="middle" x="1201" y="-139.8" font-family="Times,serif" font-size="14.00">nbproc &lt;= 4.5</text>
<text text-anchor="middle" x="1201" y="-124.8" font-family="Times,serif" font-size="14.00">gini = 0.474</text>
<text text-anchor="middle" x="1201" y="-109.8" font-family="Times,serif" font-size="14.00">samples = 3438</text>
<text text-anchor="middle" x="1201" y="-94.8" font-family="Times,serif" font-size="14.00">value = [1326, 2112]</text>
<text text-anchor="middle" x="1201" y="-79.8" font-family="Times,serif" font-size="14.00">class = True</text>
</g>
<!-- 694&#45;&gt;695 -->
<g id="edge25" class="edge">
<title>694&#45;&gt;695</title>
<path fill="none" stroke="black" d="M1201,-190.91C1201,-182.65 1201,-173.86 1201,-165.3"/>
<polygon fill="black" stroke="black" points="1204.5,-165.02 1201,-155.02 1197.5,-165.02 1204.5,-165.02"/>
</g>
<!-- 724 -->
<g id="node29" class="node">
<title>724</title>
<polygon fill="#8fc7f0" stroke="black" points="1469.5,-155 1302.5,-155 1302.5,-72 1469.5,-72 1469.5,-155"/>
<text text-anchor="middle" x="1386" y="-139.8" font-family="Times,serif" font-size="14.00">graphSize &lt;= 22.5</text>
<text text-anchor="middle" x="1386" y="-124.8" font-family="Times,serif" font-size="14.00">gini = 0.421</text>
<text text-anchor="middle" x="1386" y="-109.8" font-family="Times,serif" font-size="14.00">samples = 4618</text>
<text text-anchor="middle" x="1386" y="-94.8" font-family="Times,serif" font-size="14.00">value = [1394, 3224]</text>
<text text-anchor="middle" x="1386" y="-79.8" font-family="Times,serif" font-size="14.00">class = True</text>
</g>
<!-- 694&#45;&gt;724 -->
<g id="edge28" class="edge">
<title>694&#45;&gt;724</title>
<path fill="none" stroke="black" d="M1265.18,-190.91C1280.68,-181.11 1297.35,-170.56 1313.21,-160.53"/>
<polygon fill="black" stroke="black" points="1315.35,-163.32 1321.93,-155.02 1311.61,-157.41 1315.35,-163.32"/>
</g>
<!-- 696 -->
<g id="node27" class="node">
<title>696</title>
<polygon fill="#c0c0c0" stroke="black" points="1192,-36 1138,-36 1138,0 1192,0 1192,-36"/>
<text text-anchor="middle" x="1165" y="-14.3" font-family="Times,serif" font-size="14.00">(...)</text>
</g>
<!-- 695&#45;&gt;696 -->
<g id="edge26" class="edge">
<title>695&#45;&gt;696</title>
<path fill="none" stroke="black" d="M1185.31,-71.76C1181.96,-63.04 1178.49,-54.04 1175.39,-45.99"/>
<polygon fill="black" stroke="black" points="1178.56,-44.48 1171.7,-36.41 1172.03,-46.99 1178.56,-44.48"/>
</g>
<!-- 711 -->
<g id="node28" class="node">
<title>711</title>
<polygon fill="#c0c0c0" stroke="black" points="1264,-36 1210,-36 1210,0 1264,0 1264,-36"/>
<text text-anchor="middle" x="1237" y="-14.3" font-family="Times,serif" font-size="14.00">(...)</text>
</g>
<!-- 695&#45;&gt;711 -->
<g id="edge27" class="edge">
<title>695&#45;&gt;711</title>
<path fill="none" stroke="black" d="M1216.69,-71.76C1220.04,-63.04 1223.51,-54.04 1226.61,-45.99"/>
<polygon fill="black" stroke="black" points="1229.97,-46.99 1230.3,-36.41 1223.44,-44.48 1229.97,-46.99"/>
</g>
<!-- 725 -->
<g id="node30" class="node">
<title>725</title>
<polygon fill="#c0c0c0" stroke="black" points="1377,-36 1323,-36 1323,0 1377,0 1377,-36"/>
<text text-anchor="middle" x="1350" y="-14.3" font-family="Times,serif" font-size="14.00">(...)</text>
</g>
<!-- 724&#45;&gt;725 -->
<g id="edge29" class="edge">
<title>724&#45;&gt;725</title>
<path fill="none" stroke="black" d="M1370.31,-71.76C1366.96,-63.04 1363.49,-54.04 1360.39,-45.99"/>
<polygon fill="black" stroke="black" points="1363.56,-44.48 1356.7,-36.41 1357.03,-46.99 1363.56,-44.48"/>
</g>
<!-- 738 -->
<g id="node31" class="node">
<title>738</title>
<polygon fill="#c0c0c0" stroke="black" points="1449,-36 1395,-36 1395,0 1449,0 1449,-36"/>
<text text-anchor="middle" x="1422" y="-14.3" font-family="Times,serif" font-size="14.00">(...)</text>
</g>
<!-- 724&#45;&gt;738 -->
<g id="edge30" class="edge">
<title>724&#45;&gt;738</title>
<path fill="none" stroke="black" d="M1401.69,-71.76C1405.04,-63.04 1408.51,-54.04 1411.61,-45.99"/>
<polygon fill="black" stroke="black" points="1414.97,-46.99 1415.3,-36.41 1408.44,-44.48 1414.97,-46.99"/>
</g>
</g>
</svg>
