<?xml version="1.0" encoding="UTF-8" standalone="no"?>
<!DOCTYPE svg PUBLIC "-//W3C//DTD SVG 1.1//EN"
 "http://www.w3.org/Graphics/SVG/1.1/DTD/svg11.dtd">
<!-- Generated by graphviz version 2.43.0 (0)
 -->
<!-- Title: Tree Pages: 1 -->
<svg width="2714pt" height="520pt"
 viewBox="0.00 0.00 2713.50 520.00" xmlns="http://www.w3.org/2000/svg" xmlns:xlink="http://www.w3.org/1999/xlink">
<g id="graph0" class="graph" transform="scale(1 1) rotate(0) translate(4 516)">
<title>Tree</title>
<polygon fill="white" stroke="transparent" points="-4,4 -4,-516 2709.5,-516 2709.5,4 -4,4"/>
<!-- 0 -->
<g id="node1" class="node">
<title>0</title>
<polygon fill="#fefcfb" stroke="black" points="1561.5,-512 1160.5,-512 1160.5,-429 1561.5,-429 1561.5,-512"/>
<text text-anchor="middle" x="1361" y="-496.8" font-family="Times,serif" font-size="14.00">CCR &lt;= 5.5</text>
<text text-anchor="middle" x="1361" y="-481.8" font-family="Times,serif" font-size="14.00">gini = 0.833</text>
<text text-anchor="middle" x="1361" y="-466.8" font-family="Times,serif" font-size="14.00">samples = 82155</text>
<text text-anchor="middle" x="1361" y="-451.8" font-family="Times,serif" font-size="14.00">value = [14859, 13432, 13492, 13440, 13440, 13492]</text>
<text text-anchor="middle" x="1361" y="-436.8" font-family="Times,serif" font-size="14.00">class = mean</text>
</g>
<!-- 1 -->
<g id="node2" class="node">
<title>1</title>
<polygon fill="#fffffe" stroke="black" points="1183.5,-393 836.5,-393 836.5,-310 1183.5,-310 1183.5,-393"/>
<text text-anchor="middle" x="1010" y="-377.8" font-family="Times,serif" font-size="14.00">graphDepth &lt;= 3.5</text>
<text text-anchor="middle" x="1010" y="-362.8" font-family="Times,serif" font-size="14.00">gini = 0.833</text>
<text text-anchor="middle" x="1010" y="-347.8" font-family="Times,serif" font-size="14.00">samples = 55382</text>
<text text-anchor="middle" x="1010" y="-332.8" font-family="Times,serif" font-size="14.00">value = [9365, 9141, 9207, 9231, 9231, 9207]</text>
<text text-anchor="middle" x="1010" y="-317.8" font-family="Times,serif" font-size="14.00">class = mean</text>
</g>
<!-- 0&#45;&gt;1 -->
<g id="edge1" class="edge">
<title>0&#45;&gt;1</title>
<path fill="none" stroke="black" d="M1239.22,-428.91C1207.64,-418.38 1173.49,-407 1141.44,-396.31"/>
<polygon fill="black" stroke="black" points="1142.16,-392.86 1131.56,-393.02 1139.94,-399.5 1142.16,-392.86"/>
<text text-anchor="middle" x="1142.74" y="-411.68" font-family="Times,serif" font-size="14.00">True</text>
</g>
<!-- 574 -->
<g id="node17" class="node">
<title>574</title>
<polygon fill="#fef8f4" stroke="black" points="1866.5,-393 1519.5,-393 1519.5,-310 1866.5,-310 1866.5,-393"/>
<text text-anchor="middle" x="1693" y="-377.8" font-family="Times,serif" font-size="14.00">sdComp &lt;= 6.5</text>
<text text-anchor="middle" x="1693" y="-362.8" font-family="Times,serif" font-size="14.00">gini = 0.832</text>
<text text-anchor="middle" x="1693" y="-347.8" font-family="Times,serif" font-size="14.00">samples = 26773</text>
<text text-anchor="middle" x="1693" y="-332.8" font-family="Times,serif" font-size="14.00">value = [5494, 4291, 4285, 4209, 4209, 4285]</text>
<text text-anchor="middle" x="1693" y="-317.8" font-family="Times,serif" font-size="14.00">class = mean</text>
</g>
<!-- 0&#45;&gt;574 -->
<g id="edge16" class="edge">
<title>0&#45;&gt;574</title>
<path fill="none" stroke="black" d="M1476.19,-428.91C1505.93,-418.43 1538.08,-407.1 1568.29,-396.45"/>
<polygon fill="black" stroke="black" points="1569.75,-399.65 1578.02,-393.02 1567.42,-393.04 1569.75,-399.65"/>
<text text-anchor="middle" x="1567.22" y="-411.87" font-family="Times,serif" font-size="14.00">False</text>
</g>
<!-- 2 -->
<g id="node3" class="node">
<title>2</title>
<polygon fill="#ffffff" stroke="black" points="649.5,-274 302.5,-274 302.5,-191 649.5,-191 649.5,-274"/>
<text text-anchor="middle" x="476" y="-258.8" font-family="Times,serif" font-size="14.00">sdComp &lt;= 0.065</text>
<text text-anchor="middle" x="476" y="-243.8" font-family="Times,serif" font-size="14.00">gini = 0.832</text>
<text text-anchor="middle" x="476" y="-228.8" font-family="Times,serif" font-size="14.00">samples = 9968</text>
<text text-anchor="middle" x="476" y="-213.8" font-family="Times,serif" font-size="14.00">value = [1517, 1547, 1587, 1865, 1865, 1587]</text>
<text text-anchor="middle" x="476" y="-198.8" font-family="Times,serif" font-size="14.00">class = minmax</text>
</g>
<!-- 1&#45;&gt;2 -->
<g id="edge2" class="edge">
<title>1&#45;&gt;2</title>
<path fill="none" stroke="black" d="M836.26,-312.43C779.7,-300.04 716.77,-286.25 659.52,-273.71"/>
<polygon fill="black" stroke="black" points="660.16,-270.27 649.65,-271.55 658.67,-277.11 660.16,-270.27"/>
</g>
<!-- 73 -->
<g id="node10" class="node">
<title>73</title>
<polygon fill="#fffefe" stroke="black" points="1183.5,-274 836.5,-274 836.5,-191 1183.5,-191 1183.5,-274"/>
<text text-anchor="middle" x="1010" y="-258.8" font-family="Times,serif" font-size="14.00">nbproc &lt;= 4.5</text>
<text text-anchor="middle" x="1010" y="-243.8" font-family="Times,serif" font-size="14.00">gini = 0.833</text>
<text text-anchor="middle" x="1010" y="-228.8" font-family="Times,serif" font-size="14.00">samples = 45414</text>
<text text-anchor="middle" x="1010" y="-213.8" font-family="Times,serif" font-size="14.00">value = [7848, 7594, 7620, 7366, 7366, 7620]</text>
<text text-anchor="middle" x="1010" y="-198.8" font-family="Times,serif" font-size="14.00">class = mean</text>
</g>
<!-- 1&#45;&gt;73 -->
<g id="edge9" class="edge">
<title>1&#45;&gt;73</title>
<path fill="none" stroke="black" d="M1010,-309.91C1010,-301.65 1010,-292.86 1010,-284.3"/>
<polygon fill="black" stroke="black" points="1013.5,-284.02 1010,-274.02 1006.5,-284.02 1013.5,-284.02"/>
</g>
<!-- 3 -->
<g id="node4" class="node">
<title>3</title>
<polygon fill="#ffffff" stroke="black" points="284,-155 0,-155 0,-72 284,-72 284,-155"/>
<text text-anchor="middle" x="142" y="-139.8" font-family="Times,serif" font-size="14.00">sdComp &lt;= 0.02</text>
<text text-anchor="middle" x="142" y="-124.8" font-family="Times,serif" font-size="14.00">gini = 0.816</text>
<text text-anchor="middle" x="142" y="-109.8" font-family="Times,serif" font-size="14.00">samples = 1013</text>
<text text-anchor="middle" x="142" y="-94.8" font-family="Times,serif" font-size="14.00">value = [91, 118, 164, 238, 238, 164]</text>
<text text-anchor="middle" x="142" y="-79.8" font-family="Times,serif" font-size="14.00">class = minmax</text>
</g>
<!-- 2&#45;&gt;3 -->
<g id="edge3" class="edge">
<title>2&#45;&gt;3</title>
<path fill="none" stroke="black" d="M360.12,-190.91C330.2,-180.43 297.85,-169.1 267.47,-158.45"/>
<polygon fill="black" stroke="black" points="268.27,-155.02 257.67,-155.02 265.96,-161.63 268.27,-155.02"/>
</g>
<!-- 26 -->
<g id="node7" class="node">
<title>26</title>
<polygon fill="#ffffff" stroke="black" points="649.5,-155 302.5,-155 302.5,-72 649.5,-72 649.5,-155"/>
<text text-anchor="middle" x="476" y="-139.8" font-family="Times,serif" font-size="14.00">sdComm &lt;= 0.02</text>
<text text-anchor="middle" x="476" y="-124.8" font-family="Times,serif" font-size="14.00">gini = 0.833</text>
<text text-anchor="middle" x="476" y="-109.8" font-family="Times,serif" font-size="14.00">samples = 8955</text>
<text text-anchor="middle" x="476" y="-94.8" font-family="Times,serif" font-size="14.00">value = [1426, 1429, 1423, 1627, 1627, 1423]</text>
<text text-anchor="middle" x="476" y="-79.8" font-family="Times,serif" font-size="14.00">class = minmax</text>
</g>
<!-- 2&#45;&gt;26 -->
<g id="edge6" class="edge">
<title>2&#45;&gt;26</title>
<path fill="none" stroke="black" d="M476,-190.91C476,-182.65 476,-173.86 476,-165.3"/>
<polygon fill="black" stroke="black" points="479.5,-165.02 476,-155.02 472.5,-165.02 479.5,-165.02"/>
</g>
<!-- 4 -->
<g id="node5" class="node">
<title>4</title>
<polygon fill="#c0c0c0" stroke="black" points="133,-36 79,-36 79,0 133,0 133,-36"/>
<text text-anchor="middle" x="106" y="-14.3" font-family="Times,serif" font-size="14.00">(...)</text>
</g>
<!-- 3&#45;&gt;4 -->
<g id="edge4" class="edge">
<title>3&#45;&gt;4</title>
<path fill="none" stroke="black" d="M126.31,-71.76C122.96,-63.04 119.49,-54.04 116.39,-45.99"/>
<polygon fill="black" stroke="black" points="119.56,-44.48 112.7,-36.41 113.03,-46.99 119.56,-44.48"/>
</g>
<!-- 15 -->
<g id="node6" class="node">
<title>15</title>
<polygon fill="#c0c0c0" stroke="black" points="205,-36 151,-36 151,0 205,0 205,-36"/>
<text text-anchor="middle" x="178" y="-14.3" font-family="Times,serif" font-size="14.00">(...)</text>
</g>
<!-- 3&#45;&gt;15 -->
<g id="edge5" class="edge">
<title>3&#45;&gt;15</title>
<path fill="none" stroke="black" d="M157.69,-71.76C161.04,-63.04 164.51,-54.04 167.61,-45.99"/>
<polygon fill="black" stroke="black" points="170.97,-46.99 171.3,-36.41 164.44,-44.48 170.97,-46.99"/>
</g>
<!-- 27 -->
<g id="node8" class="node">
<title>27</title>
<polygon fill="#c0c0c0" stroke="black" points="467,-36 413,-36 413,0 467,0 467,-36"/>
<text text-anchor="middle" x="440" y="-14.3" font-family="Times,serif" font-size="14.00">(...)</text>
</g>
<!-- 26&#45;&gt;27 -->
<g id="edge7" class="edge">
<title>26&#45;&gt;27</title>
<path fill="none" stroke="black" d="M460.31,-71.76C456.96,-63.04 453.49,-54.04 450.39,-45.99"/>
<polygon fill="black" stroke="black" points="453.56,-44.48 446.7,-36.41 447.03,-46.99 453.56,-44.48"/>
</g>
<!-- 30 -->
<g id="node9" class="node">
<title>30</title>
<polygon fill="#c0c0c0" stroke="black" points="539,-36 485,-36 485,0 539,0 539,-36"/>
<text text-anchor="middle" x="512" y="-14.3" font-family="Times,serif" font-size="14.00">(...)</text>
</g>
<!-- 26&#45;&gt;30 -->
<g id="edge8" class="edge">
<title>26&#45;&gt;30</title>
<path fill="none" stroke="black" d="M491.69,-71.76C495.04,-63.04 498.51,-54.04 501.61,-45.99"/>
<polygon fill="black" stroke="black" points="504.97,-46.99 505.3,-36.41 498.44,-44.48 504.97,-46.99"/>
</g>
<!-- 74 -->
<g id="node11" class="node">
<title>74</title>
<polygon fill="#ffffff" stroke="black" points="1014.5,-155 667.5,-155 667.5,-72 1014.5,-72 1014.5,-155"/>
<text text-anchor="middle" x="841" y="-139.8" font-family="Times,serif" font-size="14.00">sdComp &lt;= 0.02</text>
<text text-anchor="middle" x="841" y="-124.8" font-family="Times,serif" font-size="14.00">gini = 0.833</text>
<text text-anchor="middle" x="841" y="-109.8" font-family="Times,serif" font-size="14.00">samples = 15542</text>
<text text-anchor="middle" x="841" y="-94.8" font-family="Times,serif" font-size="14.00">value = [2660, 2690, 2500, 2596, 2596, 2500]</text>
<text text-anchor="middle" x="841" y="-79.8" font-family="Times,serif" font-size="14.00">class = median</text>
</g>
<!-- 73&#45;&gt;74 -->
<g id="edge10" class="edge">
<title>73&#45;&gt;74</title>
<path fill="none" stroke="black" d="M951.37,-190.91C937.34,-181.2 922.26,-170.76 907.89,-160.81"/>
<polygon fill="black" stroke="black" points="909.74,-157.84 899.53,-155.02 905.76,-163.59 909.74,-157.84"/>
</g>
<!-- 323 -->
<g id="node14" class="node">
<title>323</title>
<polygon fill="#fffffe" stroke="black" points="1379.5,-155 1032.5,-155 1032.5,-72 1379.5,-72 1379.5,-155"/>
<text text-anchor="middle" x="1206" y="-139.8" font-family="Times,serif" font-size="14.00">sdComp &lt;= 0.65</text>
<text text-anchor="middle" x="1206" y="-124.8" font-family="Times,serif" font-size="14.00">gini = 0.833</text>
<text text-anchor="middle" x="1206" y="-109.8" font-family="Times,serif" font-size="14.00">samples = 29872</text>
<text text-anchor="middle" x="1206" y="-94.8" font-family="Times,serif" font-size="14.00">value = [5188, 4904, 5120, 4770, 4770, 5120]</text>
<text text-anchor="middle" x="1206" y="-79.8" font-family="Times,serif" font-size="14.00">class = mean</text>
</g>
<!-- 73&#45;&gt;323 -->
<g id="edge13" class="edge">
<title>73&#45;&gt;323</title>
<path fill="none" stroke="black" d="M1078,-190.91C1094.57,-181.02 1112.41,-170.37 1129.35,-160.25"/>
<polygon fill="black" stroke="black" points="1131.33,-163.15 1138.12,-155.02 1127.74,-157.14 1131.33,-163.15"/>
</g>
<!-- 75 -->
<g id="node12" class="node">
<title>75</title>
<polygon fill="#c0c0c0" stroke="black" points="832,-36 778,-36 778,0 832,0 832,-36"/>
<text text-anchor="middle" x="805" y="-14.3" font-family="Times,serif" font-size="14.00">(...)</text>
</g>
<!-- 74&#45;&gt;75 -->
<g id="edge11" class="edge">
<title>74&#45;&gt;75</title>
<path fill="none" stroke="black" d="M825.31,-71.76C821.96,-63.04 818.49,-54.04 815.39,-45.99"/>
<polygon fill="black" stroke="black" points="818.56,-44.48 811.7,-36.41 812.03,-46.99 818.56,-44.48"/>
</g>
<!-- 116 -->
<g id="node13" class="node">
<title>116</title>
<polygon fill="#c0c0c0" stroke="black" points="904,-36 850,-36 850,0 904,0 904,-36"/>
<text text-anchor="middle" x="877" y="-14.3" font-family="Times,serif" font-size="14.00">(...)</text>
</g>
<!-- 74&#45;&gt;116 -->
<g id="edge12" class="edge">
<title>74&#45;&gt;116</title>
<path fill="none" stroke="black" d="M856.69,-71.76C860.04,-63.04 863.51,-54.04 866.61,-45.99"/>
<polygon fill="black" stroke="black" points="869.97,-46.99 870.3,-36.41 863.44,-44.48 869.97,-46.99"/>
</g>
<!-- 324 -->
<g id="node15" class="node">
<title>324</title>
<polygon fill="#c0c0c0" stroke="black" points="1197,-36 1143,-36 1143,0 1197,0 1197,-36"/>
<text text-anchor="middle" x="1170" y="-14.3" font-family="Times,serif" font-size="14.00">(...)</text>
</g>
<!-- 323&#45;&gt;324 -->
<g id="edge14" class="edge">
<title>323&#45;&gt;324</title>
<path fill="none" stroke="black" d="M1190.31,-71.76C1186.96,-63.04 1183.49,-54.04 1180.39,-45.99"/>
<polygon fill="black" stroke="black" points="1183.56,-44.48 1176.7,-36.41 1177.03,-46.99 1183.56,-44.48"/>
</g>
<!-- 533 -->
<g id="node16" class="node">
<title>533</title>
<polygon fill="#c0c0c0" stroke="black" points="1269,-36 1215,-36 1215,0 1269,0 1269,-36"/>
<text text-anchor="middle" x="1242" y="-14.3" font-family="Times,serif" font-size="14.00">(...)</text>
</g>
<!-- 323&#45;&gt;533 -->
<g id="edge15" class="edge">
<title>323&#45;&gt;533</title>
<path fill="none" stroke="black" d="M1221.69,-71.76C1225.04,-63.04 1228.51,-54.04 1231.61,-45.99"/>
<polygon fill="black" stroke="black" points="1234.97,-46.99 1235.3,-36.41 1228.44,-44.48 1234.97,-46.99"/>
</g>
<!-- 575 -->
<g id="node18" class="node">
<title>575</title>
<polygon fill="#fefaf7" stroke="black" points="1866.5,-274 1519.5,-274 1519.5,-191 1866.5,-191 1866.5,-274"/>
<text text-anchor="middle" x="1693" y="-258.8" font-family="Times,serif" font-size="14.00">graphDepth &lt;= 3.5</text>
<text text-anchor="middle" x="1693" y="-243.8" font-family="Times,serif" font-size="14.00">gini = 0.832</text>
<text text-anchor="middle" x="1693" y="-228.8" font-family="Times,serif" font-size="14.00">samples = 18717</text>
<text text-anchor="middle" x="1693" y="-213.8" font-family="Times,serif" font-size="14.00">value = [3702, 3035, 3053, 2937, 2937, 3053]</text>
<text text-anchor="middle" x="1693" y="-198.8" font-family="Times,serif" font-size="14.00">class = mean</text>
</g>
<!-- 574&#45;&gt;575 -->
<g id="edge17" class="edge">
<title>574&#45;&gt;575</title>
<path fill="none" stroke="black" d="M1693,-309.91C1693,-301.65 1693,-292.86 1693,-284.3"/>
<polygon fill="black" stroke="black" points="1696.5,-284.02 1693,-274.02 1689.5,-284.02 1696.5,-284.02"/>
</g>
<!-- 766 -->
<g id="node25" class="node">
<title>766</title>
<polygon fill="#fdf5f0" stroke="black" points="2380.5,-274 2033.5,-274 2033.5,-191 2380.5,-191 2380.5,-274"/>
<text text-anchor="middle" x="2207" y="-258.8" font-family="Times,serif" font-size="14.00">graphDepth &lt;= 3.5</text>
<text text-anchor="middle" x="2207" y="-243.8" font-family="Times,serif" font-size="14.00">gini = 0.83</text>
<text text-anchor="middle" x="2207" y="-228.8" font-family="Times,serif" font-size="14.00">samples = 8056</text>
<text text-anchor="middle" x="2207" y="-213.8" font-family="Times,serif" font-size="14.00">value = [1792, 1256, 1232, 1272, 1272, 1232]</text>
<text text-anchor="middle" x="2207" y="-198.8" font-family="Times,serif" font-size="14.00">class = mean</text>
</g>
<!-- 574&#45;&gt;766 -->
<g id="edge24" class="edge">
<title>574&#45;&gt;766</title>
<path fill="none" stroke="black" d="M1866.66,-310.97C1917.16,-299.48 1972.47,-286.89 2023.55,-275.26"/>
<polygon fill="black" stroke="black" points="2024.4,-278.66 2033.37,-273.02 2022.84,-271.83 2024.4,-278.66"/>
</g>
<!-- 576 -->
<g id="node19" class="node">
<title>576</title>
<polygon fill="#fffefe" stroke="black" points="1690.5,-155 1397.5,-155 1397.5,-72 1690.5,-72 1690.5,-155"/>
<text text-anchor="middle" x="1544" y="-139.8" font-family="Times,serif" font-size="14.00">sdComm &lt;= 6.5</text>
<text text-anchor="middle" x="1544" y="-124.8" font-family="Times,serif" font-size="14.00">gini = 0.831</text>
<text text-anchor="middle" x="1544" y="-109.8" font-family="Times,serif" font-size="14.00">samples = 1499</text>
<text text-anchor="middle" x="1544" y="-94.8" font-family="Times,serif" font-size="14.00">value = [279, 264, 270, 208, 208, 270]</text>
<text text-anchor="middle" x="1544" y="-79.8" font-family="Times,serif" font-size="14.00">class = mean</text>
</g>
<!-- 575&#45;&gt;576 -->
<g id="edge18" class="edge">
<title>575&#45;&gt;576</title>
<path fill="none" stroke="black" d="M1641.31,-190.91C1629.17,-181.38 1616.14,-171.15 1603.69,-161.37"/>
<polygon fill="black" stroke="black" points="1605.63,-158.44 1595.6,-155.02 1601.31,-163.95 1605.63,-158.44"/>
</g>
<!-- 599 -->
<g id="node22" class="node">
<title>599</title>
<polygon fill="#fef9f6" stroke="black" points="2055.5,-155 1708.5,-155 1708.5,-72 2055.5,-72 2055.5,-155"/>
<text text-anchor="middle" x="1882" y="-139.8" font-family="Times,serif" font-size="14.00">graphDepth &lt;= 13.5</text>
<text text-anchor="middle" x="1882" y="-124.8" font-family="Times,serif" font-size="14.00">gini = 0.832</text>
<text text-anchor="middle" x="1882" y="-109.8" font-family="Times,serif" font-size="14.00">samples = 17218</text>
<text text-anchor="middle" x="1882" y="-94.8" font-family="Times,serif" font-size="14.00">value = [3423, 2771, 2783, 2729, 2729, 2783]</text>
<text text-anchor="middle" x="1882" y="-79.8" font-family="Times,serif" font-size="14.00">class = mean</text>
</g>
<!-- 575&#45;&gt;599 -->
<g id="edge21" class="edge">
<title>575&#45;&gt;599</title>
<path fill="none" stroke="black" d="M1758.57,-190.91C1774.41,-181.11 1791.44,-170.56 1807.64,-160.53"/>
<polygon fill="black" stroke="black" points="1809.88,-163.26 1816.54,-155.02 1806.2,-157.31 1809.88,-163.26"/>
</g>
<!-- 577 -->
<g id="node20" class="node">
<title>577</title>
<polygon fill="#c0c0c0" stroke="black" points="1535,-36 1481,-36 1481,0 1535,0 1535,-36"/>
<text text-anchor="middle" x="1508" y="-14.3" font-family="Times,serif" font-size="14.00">(...)</text>
</g>
<!-- 576&#45;&gt;577 -->
<g id="edge19" class="edge">
<title>576&#45;&gt;577</title>
<path fill="none" stroke="black" d="M1528.31,-71.76C1524.96,-63.04 1521.49,-54.04 1518.39,-45.99"/>
<polygon fill="black" stroke="black" points="1521.56,-44.48 1514.7,-36.41 1515.03,-46.99 1521.56,-44.48"/>
</g>
<!-- 592 -->
<g id="node21" class="node">
<title>592</title>
<polygon fill="#c0c0c0" stroke="black" points="1607,-36 1553,-36 1553,0 1607,0 1607,-36"/>
<text text-anchor="middle" x="1580" y="-14.3" font-family="Times,serif" font-size="14.00">(...)</text>
</g>
<!-- 576&#45;&gt;592 -->
<g id="edge20" class="edge">
<title>576&#45;&gt;592</title>
<path fill="none" stroke="black" d="M1559.69,-71.76C1563.04,-63.04 1566.51,-54.04 1569.61,-45.99"/>
<polygon fill="black" stroke="black" points="1572.97,-46.99 1573.3,-36.41 1566.44,-44.48 1572.97,-46.99"/>
</g>
<!-- 600 -->
<g id="node23" class="node">
<title>600</title>
<polygon fill="#c0c0c0" stroke="black" points="1873,-36 1819,-36 1819,0 1873,0 1873,-36"/>
<text text-anchor="middle" x="1846" y="-14.3" font-family="Times,serif" font-size="14.00">(...)</text>
</g>
<!-- 599&#45;&gt;600 -->
<g id="edge22" class="edge">
<title>599&#45;&gt;600</title>
<path fill="none" stroke="black" d="M1866.31,-71.76C1862.96,-63.04 1859.49,-54.04 1856.39,-45.99"/>
<polygon fill="black" stroke="black" points="1859.56,-44.48 1852.7,-36.41 1853.03,-46.99 1859.56,-44.48"/>
</g>
<!-- 695 -->
<g id="node24" class="node">
<title>695</title>
<polygon fill="#c0c0c0" stroke="black" points="1945,-36 1891,-36 1891,0 1945,0 1945,-36"/>
<text text-anchor="middle" x="1918" y="-14.3" font-family="Times,serif" font-size="14.00">(...)</text>
</g>
<!-- 599&#45;&gt;695 -->
<g id="edge23" class="edge">
<title>599&#45;&gt;695</title>
<path fill="none" stroke="black" d="M1897.69,-71.76C1901.04,-63.04 1904.51,-54.04 1907.61,-45.99"/>
<polygon fill="black" stroke="black" points="1910.97,-46.99 1911.3,-36.41 1904.44,-44.48 1910.97,-46.99"/>
</g>
<!-- 767 -->
<g id="node26" class="node">
<title>767</title>
<polygon fill="#ffffff" stroke="black" points="2340,-155 2074,-155 2074,-72 2340,-72 2340,-155"/>
<text text-anchor="middle" x="2207" y="-139.8" font-family="Times,serif" font-size="14.00">sdComm &lt;= 2.0</text>
<text text-anchor="middle" x="2207" y="-124.8" font-family="Times,serif" font-size="14.00">gini = 0.824</text>
<text text-anchor="middle" x="2207" y="-109.8" font-family="Times,serif" font-size="14.00">samples = 642</text>
<text text-anchor="middle" x="2207" y="-94.8" font-family="Times,serif" font-size="14.00">value = [100, 78, 90, 142, 142, 90]</text>
<text text-anchor="middle" x="2207" y="-79.8" font-family="Times,serif" font-size="14.00">class = minmax</text>
</g>
<!-- 766&#45;&gt;767 -->
<g id="edge25" class="edge">
<title>766&#45;&gt;767</title>
<path fill="none" stroke="black" d="M2207,-190.91C2207,-182.65 2207,-173.86 2207,-165.3"/>
<polygon fill="black" stroke="black" points="2210.5,-165.02 2207,-155.02 2203.5,-165.02 2210.5,-165.02"/>
</g>
<!-- 778 -->
<g id="node29" class="node">
<title>778</title>
<polygon fill="#fdf5ef" stroke="black" points="2705.5,-155 2358.5,-155 2358.5,-72 2705.5,-72 2705.5,-155"/>
<text text-anchor="middle" x="2532" y="-139.8" font-family="Times,serif" font-size="14.00">graphSize &lt;= 75.0</text>
<text text-anchor="middle" x="2532" y="-124.8" font-family="Times,serif" font-size="14.00">gini = 0.829</text>
<text text-anchor="middle" x="2532" y="-109.8" font-family="Times,serif" font-size="14.00">samples = 7414</text>
<text text-anchor="middle" x="2532" y="-94.8" font-family="Times,serif" font-size="14.00">value = [1692, 1178, 1142, 1130, 1130, 1142]</text>
<text text-anchor="middle" x="2532" y="-79.8" font-family="Times,serif" font-size="14.00">class = mean</text>
</g>
<!-- 766&#45;&gt;778 -->
<g id="edge28" class="edge">
<title>766&#45;&gt;778</title>
<path fill="none" stroke="black" d="M2319.76,-190.91C2348.87,-180.43 2380.35,-169.1 2409.91,-158.45"/>
<polygon fill="black" stroke="black" points="2411.22,-161.7 2419.44,-155.02 2408.85,-155.11 2411.22,-161.7"/>
</g>
<!-- 768 -->
<g id="node27" class="node">
<title>768</title>
<polygon fill="#c0c0c0" stroke="black" points="2198,-36 2144,-36 2144,0 2198,0 2198,-36"/>
<text text-anchor="middle" x="2171" y="-14.3" font-family="Times,serif" font-size="14.00">(...)</text>
</g>
<!-- 767&#45;&gt;768 -->
<g id="edge26" class="edge">
<title>767&#45;&gt;768</title>
<path fill="none" stroke="black" d="M2191.31,-71.76C2187.96,-63.04 2184.49,-54.04 2181.39,-45.99"/>
<polygon fill="black" stroke="black" points="2184.56,-44.48 2177.7,-36.41 2178.03,-46.99 2184.56,-44.48"/>
</g>
<!-- 771 -->
<g id="node28" class="node">
<title>771</title>
<polygon fill="#c0c0c0" stroke="black" points="2270,-36 2216,-36 2216,0 2270,0 2270,-36"/>
<text text-anchor="middle" x="2243" y="-14.3" font-family="Times,serif" font-size="14.00">(...)</text>
</g>
<!-- 767&#45;&gt;771 -->
<g id="edge27" class="edge">
<title>767&#45;&gt;771</title>
<path fill="none" stroke="black" d="M2222.69,-71.76C2226.04,-63.04 2229.51,-54.04 2232.61,-45.99"/>
<polygon fill="black" stroke="black" points="2235.97,-46.99 2236.3,-36.41 2229.44,-44.48 2235.97,-46.99"/>
</g>
<!-- 779 -->
<g id="node30" class="node">
<title>779</title>
<polygon fill="#c0c0c0" stroke="black" points="2523,-36 2469,-36 2469,0 2523,0 2523,-36"/>
<text text-anchor="middle" x="2496" y="-14.3" font-family="Times,serif" font-size="14.00">(...)</text>
</g>
<!-- 778&#45;&gt;779 -->
<g id="edge29" class="edge">
<title>778&#45;&gt;779</title>
<path fill="none" stroke="black" d="M2516.31,-71.76C2512.96,-63.04 2509.49,-54.04 2506.39,-45.99"/>
<polygon fill="black" stroke="black" points="2509.56,-44.48 2502.7,-36.41 2503.03,-46.99 2509.56,-44.48"/>
</g>
<!-- 838 -->
<g id="node31" class="node">
<title>838</title>
<polygon fill="#c0c0c0" stroke="black" points="2595,-36 2541,-36 2541,0 2595,0 2595,-36"/>
<text text-anchor="middle" x="2568" y="-14.3" font-family="Times,serif" font-size="14.00">(...)</text>
</g>
<!-- 778&#45;&gt;838 -->
<g id="edge30" class="edge">
<title>778&#45;&gt;838</title>
<path fill="none" stroke="black" d="M2547.69,-71.76C2551.04,-63.04 2554.51,-54.04 2557.61,-45.99"/>
<polygon fill="black" stroke="black" points="2560.97,-46.99 2561.3,-36.41 2554.44,-44.48 2560.97,-46.99"/>
</g>
</g>
</svg>
