<?xml version="1.0" encoding="UTF-8" standalone="no"?>
<!DOCTYPE svg PUBLIC "-//W3C//DTD SVG 1.1//EN"
 "http://www.w3.org/Graphics/SVG/1.1/DTD/svg11.dtd">
<!-- Generated by graphviz version 2.43.0 (0)
 -->
<!-- Title: Tree Pages: 1 -->
<svg width="1384pt" height="520pt"
 viewBox="0.00 0.00 1384.00 520.00" xmlns="http://www.w3.org/2000/svg" xmlns:xlink="http://www.w3.org/1999/xlink">
<g id="graph0" class="graph" transform="scale(1 1) rotate(0) translate(4 516)">
<title>Tree</title>
<polygon fill="white" stroke="transparent" points="-4,4 -4,-516 1380,-516 1380,4 -4,4"/>
<!-- 0 -->
<g id="node1" class="node">
<title>0</title>
<polygon fill="#feffff" stroke="black" points="747,-512 562,-512 562,-429 747,-429 747,-512"/>
<text text-anchor="middle" x="654.5" y="-496.8" font-family="Times,serif" font-size="14.00">graphDepth &lt;= 3.5</text>
<text text-anchor="middle" x="654.5" y="-481.8" font-family="Times,serif" font-size="14.00">gini = 0.5</text>
<text text-anchor="middle" x="654.5" y="-466.8" font-family="Times,serif" font-size="14.00">samples = 32332</text>
<text text-anchor="middle" x="654.5" y="-451.8" font-family="Times,serif" font-size="14.00">value = [16144, 16188]</text>
<text text-anchor="middle" x="654.5" y="-436.8" font-family="Times,serif" font-size="14.00">class = True</text>
</g>
<!-- 1 -->
<g id="node2" class="node">
<title>1</title>
<polygon fill="#fcfdff" stroke="black" points="572,-393 405,-393 405,-310 572,-310 572,-393"/>
<text text-anchor="middle" x="488.5" y="-377.8" font-family="Times,serif" font-size="14.00">nbproc &lt;= 4.5</text>
<text text-anchor="middle" x="488.5" y="-362.8" font-family="Times,serif" font-size="14.00">gini = 0.5</text>
<text text-anchor="middle" x="488.5" y="-347.8" font-family="Times,serif" font-size="14.00">samples = 3932</text>
<text text-anchor="middle" x="488.5" y="-332.8" font-family="Times,serif" font-size="14.00">value = [1950, 1982]</text>
<text text-anchor="middle" x="488.5" y="-317.8" font-family="Times,serif" font-size="14.00">class = True</text>
</g>
<!-- 0&#45;&gt;1 -->
<g id="edge1" class="edge">
<title>0&#45;&gt;1</title>
<path fill="none" stroke="black" d="M596.91,-428.91C583.13,-419.2 568.32,-408.76 554.21,-398.81"/>
<polygon fill="black" stroke="black" points="556.18,-395.92 545.99,-393.02 552.15,-401.64 556.18,-395.92"/>
<text text-anchor="middle" x="550.26" y="-413.95" font-family="Times,serif" font-size="14.00">True</text>
</g>
<!-- 108 -->
<g id="node17" class="node">
<title>108</title>
<polygon fill="#ffffff" stroke="black" points="928,-393 743,-393 743,-310 928,-310 928,-393"/>
<text text-anchor="middle" x="835.5" y="-377.8" font-family="Times,serif" font-size="14.00">sdComm &lt;= 6.5</text>
<text text-anchor="middle" x="835.5" y="-362.8" font-family="Times,serif" font-size="14.00">gini = 0.5</text>
<text text-anchor="middle" x="835.5" y="-347.8" font-family="Times,serif" font-size="14.00">samples = 28400</text>
<text text-anchor="middle" x="835.5" y="-332.8" font-family="Times,serif" font-size="14.00">value = [14194, 14206]</text>
<text text-anchor="middle" x="835.5" y="-317.8" font-family="Times,serif" font-size="14.00">class = True</text>
</g>
<!-- 0&#45;&gt;108 -->
<g id="edge16" class="edge">
<title>0&#45;&gt;108</title>
<path fill="none" stroke="black" d="M717.3,-428.91C732.46,-419.11 748.77,-408.56 764.29,-398.53"/>
<polygon fill="black" stroke="black" points="766.32,-401.39 772.81,-393.02 762.52,-395.51 766.32,-401.39"/>
<text text-anchor="middle" x="767.56" y="-413.76" font-family="Times,serif" font-size="14.00">False</text>
</g>
<!-- 2 -->
<g id="node3" class="node">
<title>2</title>
<polygon fill="#f9fcfe" stroke="black" points="317.5,-274 165.5,-274 165.5,-191 317.5,-191 317.5,-274"/>
<text text-anchor="middle" x="241.5" y="-258.8" font-family="Times,serif" font-size="14.00">sdComm &lt;= 0.065</text>
<text text-anchor="middle" x="241.5" y="-243.8" font-family="Times,serif" font-size="14.00">gini = 0.5</text>
<text text-anchor="middle" x="241.5" y="-228.8" font-family="Times,serif" font-size="14.00">samples = 1317</text>
<text text-anchor="middle" x="241.5" y="-213.8" font-family="Times,serif" font-size="14.00">value = [648, 669]</text>
<text text-anchor="middle" x="241.5" y="-198.8" font-family="Times,serif" font-size="14.00">class = True</text>
</g>
<!-- 1&#45;&gt;2 -->
<g id="edge2" class="edge">
<title>1&#45;&gt;2</title>
<path fill="none" stroke="black" d="M404.88,-310.89C379.7,-298.96 352.04,-285.86 326.76,-273.89"/>
<polygon fill="black" stroke="black" points="328.1,-270.65 317.56,-269.53 325.1,-276.97 328.1,-270.65"/>
</g>
<!-- 55 -->
<g id="node10" class="node">
<title>55</title>
<polygon fill="#fdfeff" stroke="black" points="572,-274 405,-274 405,-191 572,-191 572,-274"/>
<text text-anchor="middle" x="488.5" y="-258.8" font-family="Times,serif" font-size="14.00">sdComp &lt;= 0.65</text>
<text text-anchor="middle" x="488.5" y="-243.8" font-family="Times,serif" font-size="14.00">gini = 0.5</text>
<text text-anchor="middle" x="488.5" y="-228.8" font-family="Times,serif" font-size="14.00">samples = 2615</text>
<text text-anchor="middle" x="488.5" y="-213.8" font-family="Times,serif" font-size="14.00">value = [1302, 1313]</text>
<text text-anchor="middle" x="488.5" y="-198.8" font-family="Times,serif" font-size="14.00">class = True</text>
</g>
<!-- 1&#45;&gt;55 -->
<g id="edge9" class="edge">
<title>1&#45;&gt;55</title>
<path fill="none" stroke="black" d="M488.5,-309.91C488.5,-301.65 488.5,-292.86 488.5,-284.3"/>
<polygon fill="black" stroke="black" points="492,-284.02 488.5,-274.02 485,-284.02 492,-284.02"/>
</g>
<!-- 3 -->
<g id="node4" class="node">
<title>3</title>
<polygon fill="#fdfeff" stroke="black" points="149,-155 0,-155 0,-72 149,-72 149,-155"/>
<text text-anchor="middle" x="74.5" y="-139.8" font-family="Times,serif" font-size="14.00">sdComp &lt;= 0.065</text>
<text text-anchor="middle" x="74.5" y="-124.8" font-family="Times,serif" font-size="14.00">gini = 0.5</text>
<text text-anchor="middle" x="74.5" y="-109.8" font-family="Times,serif" font-size="14.00">samples = 406</text>
<text text-anchor="middle" x="74.5" y="-94.8" font-family="Times,serif" font-size="14.00">value = [202, 204]</text>
<text text-anchor="middle" x="74.5" y="-79.8" font-family="Times,serif" font-size="14.00">class = True</text>
</g>
<!-- 2&#45;&gt;3 -->
<g id="edge3" class="edge">
<title>2&#45;&gt;3</title>
<path fill="none" stroke="black" d="M183.56,-190.91C169.7,-181.2 154.8,-170.76 140.6,-160.81"/>
<polygon fill="black" stroke="black" points="142.54,-157.89 132.34,-155.02 138.52,-163.63 142.54,-157.89"/>
</g>
<!-- 14 -->
<g id="node7" class="node">
<title>14</title>
<polygon fill="#f7fbfe" stroke="black" points="316,-155 167,-155 167,-72 316,-72 316,-155"/>
<text text-anchor="middle" x="241.5" y="-139.8" font-family="Times,serif" font-size="14.00">sdComm &lt;= 0.2</text>
<text text-anchor="middle" x="241.5" y="-124.8" font-family="Times,serif" font-size="14.00">gini = 0.5</text>
<text text-anchor="middle" x="241.5" y="-109.8" font-family="Times,serif" font-size="14.00">samples = 911</text>
<text text-anchor="middle" x="241.5" y="-94.8" font-family="Times,serif" font-size="14.00">value = [446, 465]</text>
<text text-anchor="middle" x="241.5" y="-79.8" font-family="Times,serif" font-size="14.00">class = True</text>
</g>
<!-- 2&#45;&gt;14 -->
<g id="edge6" class="edge">
<title>2&#45;&gt;14</title>
<path fill="none" stroke="black" d="M241.5,-190.91C241.5,-182.65 241.5,-173.86 241.5,-165.3"/>
<polygon fill="black" stroke="black" points="245,-165.02 241.5,-155.02 238,-165.02 245,-165.02"/>
</g>
<!-- 4 -->
<g id="node5" class="node">
<title>4</title>
<polygon fill="#c0c0c0" stroke="black" points="65.5,-36 11.5,-36 11.5,0 65.5,0 65.5,-36"/>
<text text-anchor="middle" x="38.5" y="-14.3" font-family="Times,serif" font-size="14.00">(...)</text>
</g>
<!-- 3&#45;&gt;4 -->
<g id="edge4" class="edge">
<title>3&#45;&gt;4</title>
<path fill="none" stroke="black" d="M58.81,-71.76C55.46,-63.04 51.99,-54.04 48.89,-45.99"/>
<polygon fill="black" stroke="black" points="52.06,-44.48 45.2,-36.41 45.53,-46.99 52.06,-44.48"/>
</g>
<!-- 11 -->
<g id="node6" class="node">
<title>11</title>
<polygon fill="#c0c0c0" stroke="black" points="137.5,-36 83.5,-36 83.5,0 137.5,0 137.5,-36"/>
<text text-anchor="middle" x="110.5" y="-14.3" font-family="Times,serif" font-size="14.00">(...)</text>
</g>
<!-- 3&#45;&gt;11 -->
<g id="edge5" class="edge">
<title>3&#45;&gt;11</title>
<path fill="none" stroke="black" d="M90.19,-71.76C93.54,-63.04 97.01,-54.04 100.11,-45.99"/>
<polygon fill="black" stroke="black" points="103.47,-46.99 103.8,-36.41 96.94,-44.48 103.47,-46.99"/>
</g>
<!-- 15 -->
<g id="node8" class="node">
<title>15</title>
<polygon fill="#c0c0c0" stroke="black" points="239.5,-36 185.5,-36 185.5,0 239.5,0 239.5,-36"/>
<text text-anchor="middle" x="212.5" y="-14.3" font-family="Times,serif" font-size="14.00">(...)</text>
</g>
<!-- 14&#45;&gt;15 -->
<g id="edge7" class="edge">
<title>14&#45;&gt;15</title>
<path fill="none" stroke="black" d="M228.86,-71.76C226.16,-63.04 223.37,-54.04 220.87,-45.99"/>
<polygon fill="black" stroke="black" points="224.2,-44.92 217.9,-36.41 217.52,-46.99 224.2,-44.92"/>
</g>
<!-- 26 -->
<g id="node9" class="node">
<title>26</title>
<polygon fill="#c0c0c0" stroke="black" points="311.5,-36 257.5,-36 257.5,0 311.5,0 311.5,-36"/>
<text text-anchor="middle" x="284.5" y="-14.3" font-family="Times,serif" font-size="14.00">(...)</text>
</g>
<!-- 14&#45;&gt;26 -->
<g id="edge8" class="edge">
<title>14&#45;&gt;26</title>
<path fill="none" stroke="black" d="M260.24,-71.76C264.29,-62.94 268.48,-53.84 272.21,-45.72"/>
<polygon fill="black" stroke="black" points="275.5,-46.95 276.5,-36.41 269.14,-44.03 275.5,-46.95"/>
</g>
<!-- 56 -->
<g id="node11" class="node">
<title>56</title>
<polygon fill="#ffffff" stroke="black" points="483,-155 334,-155 334,-72 483,-72 483,-155"/>
<text text-anchor="middle" x="408.5" y="-139.8" font-family="Times,serif" font-size="14.00">CCR &lt;= 0.55</text>
<text text-anchor="middle" x="408.5" y="-124.8" font-family="Times,serif" font-size="14.00">gini = 0.5</text>
<text text-anchor="middle" x="408.5" y="-109.8" font-family="Times,serif" font-size="14.00">samples = 1548</text>
<text text-anchor="middle" x="408.5" y="-94.8" font-family="Times,serif" font-size="14.00">value = [774, 774]</text>
<text text-anchor="middle" x="408.5" y="-79.8" font-family="Times,serif" font-size="14.00">class = False</text>
</g>
<!-- 55&#45;&gt;56 -->
<g id="edge10" class="edge">
<title>55&#45;&gt;56</title>
<path fill="none" stroke="black" d="M460.74,-190.91C454.66,-182.01 448.16,-172.51 441.89,-163.33"/>
<polygon fill="black" stroke="black" points="444.74,-161.3 436.21,-155.02 438.96,-165.25 444.74,-161.3"/>
</g>
<!-- 85 -->
<g id="node14" class="node">
<title>85</title>
<polygon fill="#fbfdfe" stroke="black" points="650,-155 501,-155 501,-72 650,-72 650,-155"/>
<text text-anchor="middle" x="575.5" y="-139.8" font-family="Times,serif" font-size="14.00">sdComm &lt;= 0.2</text>
<text text-anchor="middle" x="575.5" y="-124.8" font-family="Times,serif" font-size="14.00">gini = 0.5</text>
<text text-anchor="middle" x="575.5" y="-109.8" font-family="Times,serif" font-size="14.00">samples = 1067</text>
<text text-anchor="middle" x="575.5" y="-94.8" font-family="Times,serif" font-size="14.00">value = [528, 539]</text>
<text text-anchor="middle" x="575.5" y="-79.8" font-family="Times,serif" font-size="14.00">class = True</text>
</g>
<!-- 55&#45;&gt;85 -->
<g id="edge13" class="edge">
<title>55&#45;&gt;85</title>
<path fill="none" stroke="black" d="M518.68,-190.91C525.36,-181.92 532.51,-172.32 539.4,-163.05"/>
<polygon fill="black" stroke="black" points="542.21,-165.13 545.37,-155.02 536.59,-160.96 542.21,-165.13"/>
</g>
<!-- 57 -->
<g id="node12" class="node">
<title>57</title>
<polygon fill="#c0c0c0" stroke="black" points="412.5,-36 358.5,-36 358.5,0 412.5,0 412.5,-36"/>
<text text-anchor="middle" x="385.5" y="-14.3" font-family="Times,serif" font-size="14.00">(...)</text>
</g>
<!-- 56&#45;&gt;57 -->
<g id="edge11" class="edge">
<title>56&#45;&gt;57</title>
<path fill="none" stroke="black" d="M398.48,-71.76C396.36,-63.14 394.17,-54.24 392.21,-46.26"/>
<polygon fill="black" stroke="black" points="395.57,-45.28 389.78,-36.41 388.77,-46.95 395.57,-45.28"/>
</g>
<!-- 74 -->
<g id="node13" class="node">
<title>74</title>
<polygon fill="#c0c0c0" stroke="black" points="484.5,-36 430.5,-36 430.5,0 484.5,0 484.5,-36"/>
<text text-anchor="middle" x="457.5" y="-14.3" font-family="Times,serif" font-size="14.00">(...)</text>
</g>
<!-- 56&#45;&gt;74 -->
<g id="edge12" class="edge">
<title>56&#45;&gt;74</title>
<path fill="none" stroke="black" d="M429.85,-71.76C434.52,-62.85 439.35,-53.64 443.63,-45.46"/>
<polygon fill="black" stroke="black" points="446.84,-46.89 448.38,-36.41 440.64,-43.64 446.84,-46.89"/>
</g>
<!-- 86 -->
<g id="node15" class="node">
<title>86</title>
<polygon fill="#c0c0c0" stroke="black" points="573.5,-36 519.5,-36 519.5,0 573.5,0 573.5,-36"/>
<text text-anchor="middle" x="546.5" y="-14.3" font-family="Times,serif" font-size="14.00">(...)</text>
</g>
<!-- 85&#45;&gt;86 -->
<g id="edge14" class="edge">
<title>85&#45;&gt;86</title>
<path fill="none" stroke="black" d="M562.86,-71.76C560.16,-63.04 557.37,-54.04 554.87,-45.99"/>
<polygon fill="black" stroke="black" points="558.2,-44.92 551.9,-36.41 551.52,-46.99 558.2,-44.92"/>
</g>
<!-- 87 -->
<g id="node16" class="node">
<title>87</title>
<polygon fill="#c0c0c0" stroke="black" points="645.5,-36 591.5,-36 591.5,0 645.5,0 645.5,-36"/>
<text text-anchor="middle" x="618.5" y="-14.3" font-family="Times,serif" font-size="14.00">(...)</text>
</g>
<!-- 85&#45;&gt;87 -->
<g id="edge15" class="edge">
<title>85&#45;&gt;87</title>
<path fill="none" stroke="black" d="M594.24,-71.76C598.29,-62.94 602.48,-53.84 606.21,-45.72"/>
<polygon fill="black" stroke="black" points="609.5,-46.95 610.5,-36.41 603.14,-44.03 609.5,-46.95"/>
</g>
<!-- 109 -->
<g id="node18" class="node">
<title>109</title>
<polygon fill="#ffffff" stroke="black" points="928,-274 743,-274 743,-191 928,-191 928,-274"/>
<text text-anchor="middle" x="835.5" y="-258.8" font-family="Times,serif" font-size="14.00">nbproc &lt;= 4.5</text>
<text text-anchor="middle" x="835.5" y="-243.8" font-family="Times,serif" font-size="14.00">gini = 0.5</text>
<text text-anchor="middle" x="835.5" y="-228.8" font-family="Times,serif" font-size="14.00">samples = 24654</text>
<text text-anchor="middle" x="835.5" y="-213.8" font-family="Times,serif" font-size="14.00">value = [12325, 12329]</text>
<text text-anchor="middle" x="835.5" y="-198.8" font-family="Times,serif" font-size="14.00">class = True</text>
</g>
<!-- 108&#45;&gt;109 -->
<g id="edge17" class="edge">
<title>108&#45;&gt;109</title>
<path fill="none" stroke="black" d="M835.5,-309.91C835.5,-301.65 835.5,-292.86 835.5,-284.3"/>
<polygon fill="black" stroke="black" points="839,-284.02 835.5,-274.02 832,-284.02 839,-284.02"/>
</g>
<!-- 780 -->
<g id="node25" class="node">
<title>780</title>
<polygon fill="#feffff" stroke="black" points="1198,-274 1031,-274 1031,-191 1198,-191 1198,-274"/>
<text text-anchor="middle" x="1114.5" y="-258.8" font-family="Times,serif" font-size="14.00">graphDepth &lt;= 9.0</text>
<text text-anchor="middle" x="1114.5" y="-243.8" font-family="Times,serif" font-size="14.00">gini = 0.5</text>
<text text-anchor="middle" x="1114.5" y="-228.8" font-family="Times,serif" font-size="14.00">samples = 3746</text>
<text text-anchor="middle" x="1114.5" y="-213.8" font-family="Times,serif" font-size="14.00">value = [1869, 1877]</text>
<text text-anchor="middle" x="1114.5" y="-198.8" font-family="Times,serif" font-size="14.00">class = True</text>
</g>
<!-- 108&#45;&gt;780 -->
<g id="edge24" class="edge">
<title>108&#45;&gt;780</title>
<path fill="none" stroke="black" d="M928.02,-311.7C958.06,-299.1 991.4,-285.12 1021.48,-272.51"/>
<polygon fill="black" stroke="black" points="1022.83,-275.74 1030.7,-268.64 1020.12,-269.28 1022.83,-275.74"/>
</g>
<!-- 110 -->
<g id="node19" class="node">
<title>110</title>
<polygon fill="#ffffff" stroke="black" points="835,-155 668,-155 668,-72 835,-72 835,-155"/>
<text text-anchor="middle" x="751.5" y="-139.8" font-family="Times,serif" font-size="14.00">graphSize &lt;= 22.5</text>
<text text-anchor="middle" x="751.5" y="-124.8" font-family="Times,serif" font-size="14.00">gini = 0.5</text>
<text text-anchor="middle" x="751.5" y="-109.8" font-family="Times,serif" font-size="14.00">samples = 10066</text>
<text text-anchor="middle" x="751.5" y="-94.8" font-family="Times,serif" font-size="14.00">value = [5031, 5035]</text>
<text text-anchor="middle" x="751.5" y="-79.8" font-family="Times,serif" font-size="14.00">class = True</text>
</g>
<!-- 109&#45;&gt;110 -->
<g id="edge18" class="edge">
<title>109&#45;&gt;110</title>
<path fill="none" stroke="black" d="M806.36,-190.91C799.97,-182.01 793.15,-172.51 786.56,-163.33"/>
<polygon fill="black" stroke="black" points="789.27,-161.1 780.59,-155.02 783.58,-165.19 789.27,-161.1"/>
</g>
<!-- 445 -->
<g id="node22" class="node">
<title>445</title>
<polygon fill="#ffffff" stroke="black" points="1020,-155 853,-155 853,-72 1020,-72 1020,-155"/>
<text text-anchor="middle" x="936.5" y="-139.8" font-family="Times,serif" font-size="14.00">CCR &lt;= 0.55</text>
<text text-anchor="middle" x="936.5" y="-124.8" font-family="Times,serif" font-size="14.00">gini = 0.5</text>
<text text-anchor="middle" x="936.5" y="-109.8" font-family="Times,serif" font-size="14.00">samples = 14588</text>
<text text-anchor="middle" x="936.5" y="-94.8" font-family="Times,serif" font-size="14.00">value = [7294, 7294]</text>
<text text-anchor="middle" x="936.5" y="-79.8" font-family="Times,serif" font-size="14.00">class = False</text>
</g>
<!-- 109&#45;&gt;445 -->
<g id="edge21" class="edge">
<title>109&#45;&gt;445</title>
<path fill="none" stroke="black" d="M870.54,-190.91C878.38,-181.83 886.76,-172.12 894.83,-162.77"/>
<polygon fill="black" stroke="black" points="897.64,-164.88 901.52,-155.02 892.34,-160.3 897.64,-164.88"/>
</g>
<!-- 111 -->
<g id="node20" class="node">
<title>111</title>
<polygon fill="#c0c0c0" stroke="black" points="726.5,-36 672.5,-36 672.5,0 726.5,0 726.5,-36"/>
<text text-anchor="middle" x="699.5" y="-14.3" font-family="Times,serif" font-size="14.00">(...)</text>
</g>
<!-- 110&#45;&gt;111 -->
<g id="edge19" class="edge">
<title>110&#45;&gt;111</title>
<path fill="none" stroke="black" d="M728.84,-71.76C723.83,-62.75 718.65,-53.44 714.07,-45.19"/>
<polygon fill="black" stroke="black" points="717.1,-43.44 709.18,-36.41 710.98,-46.85 717.1,-43.44"/>
</g>
<!-- 158 -->
<g id="node21" class="node">
<title>158</title>
<polygon fill="#c0c0c0" stroke="black" points="798.5,-36 744.5,-36 744.5,0 798.5,0 798.5,-36"/>
<text text-anchor="middle" x="771.5" y="-14.3" font-family="Times,serif" font-size="14.00">(...)</text>
</g>
<!-- 110&#45;&gt;158 -->
<g id="edge20" class="edge">
<title>110&#45;&gt;158</title>
<path fill="none" stroke="black" d="M760.21,-71.76C762.06,-63.14 763.96,-54.24 765.67,-46.26"/>
<polygon fill="black" stroke="black" points="769.11,-46.92 767.78,-36.41 762.26,-45.45 769.11,-46.92"/>
</g>
<!-- 446 -->
<g id="node23" class="node">
<title>446</title>
<polygon fill="#c0c0c0" stroke="black" points="908.5,-36 854.5,-36 854.5,0 908.5,0 908.5,-36"/>
<text text-anchor="middle" x="881.5" y="-14.3" font-family="Times,serif" font-size="14.00">(...)</text>
</g>
<!-- 445&#45;&gt;446 -->
<g id="edge22" class="edge">
<title>445&#45;&gt;446</title>
<path fill="none" stroke="black" d="M912.54,-71.76C907.24,-62.75 901.76,-53.44 896.91,-45.19"/>
<polygon fill="black" stroke="black" points="899.83,-43.25 891.74,-36.41 893.79,-46.8 899.83,-43.25"/>
</g>
<!-- 571 -->
<g id="node24" class="node">
<title>571</title>
<polygon fill="#c0c0c0" stroke="black" points="980.5,-36 926.5,-36 926.5,0 980.5,0 980.5,-36"/>
<text text-anchor="middle" x="953.5" y="-14.3" font-family="Times,serif" font-size="14.00">(...)</text>
</g>
<!-- 445&#45;&gt;571 -->
<g id="edge23" class="edge">
<title>445&#45;&gt;571</title>
<path fill="none" stroke="black" d="M943.91,-71.76C945.47,-63.14 947.09,-54.24 948.54,-46.26"/>
<polygon fill="black" stroke="black" points="951.99,-46.87 950.34,-36.41 945.1,-45.62 951.99,-46.87"/>
</g>
<!-- 781 -->
<g id="node26" class="node">
<title>781</title>
<polygon fill="#fdfeff" stroke="black" points="1191,-155 1038,-155 1038,-72 1191,-72 1191,-155"/>
<text text-anchor="middle" x="1114.5" y="-139.8" font-family="Times,serif" font-size="14.00">graphSize &lt;= 22.5</text>
<text text-anchor="middle" x="1114.5" y="-124.8" font-family="Times,serif" font-size="14.00">gini = 0.5</text>
<text text-anchor="middle" x="1114.5" y="-109.8" font-family="Times,serif" font-size="14.00">samples = 1462</text>
<text text-anchor="middle" x="1114.5" y="-94.8" font-family="Times,serif" font-size="14.00">value = [727, 735]</text>
<text text-anchor="middle" x="1114.5" y="-79.8" font-family="Times,serif" font-size="14.00">class = True</text>
</g>
<!-- 780&#45;&gt;781 -->
<g id="edge25" class="edge">
<title>780&#45;&gt;781</title>
<path fill="none" stroke="black" d="M1114.5,-190.91C1114.5,-182.65 1114.5,-173.86 1114.5,-165.3"/>
<polygon fill="black" stroke="black" points="1118,-165.02 1114.5,-155.02 1111,-165.02 1118,-165.02"/>
</g>
<!-- 816 -->
<g id="node29" class="node">
<title>816</title>
<polygon fill="#ffffff" stroke="black" points="1376,-155 1209,-155 1209,-72 1376,-72 1376,-155"/>
<text text-anchor="middle" x="1292.5" y="-139.8" font-family="Times,serif" font-size="14.00">graphDepth &lt;= 13.5</text>
<text text-anchor="middle" x="1292.5" y="-124.8" font-family="Times,serif" font-size="14.00">gini = 0.5</text>
<text text-anchor="middle" x="1292.5" y="-109.8" font-family="Times,serif" font-size="14.00">samples = 2284</text>
<text text-anchor="middle" x="1292.5" y="-94.8" font-family="Times,serif" font-size="14.00">value = [1142, 1142]</text>
<text text-anchor="middle" x="1292.5" y="-79.8" font-family="Times,serif" font-size="14.00">class = False</text>
</g>
<!-- 780&#45;&gt;816 -->
<g id="edge28" class="edge">
<title>780&#45;&gt;816</title>
<path fill="none" stroke="black" d="M1176.26,-190.91C1191.17,-181.11 1207.21,-170.56 1222.47,-160.53"/>
<polygon fill="black" stroke="black" points="1224.42,-163.44 1230.85,-155.02 1220.57,-157.59 1224.42,-163.44"/>
</g>
<!-- 782 -->
<g id="node27" class="node">
<title>782</title>
<polygon fill="#c0c0c0" stroke="black" points="1104.5,-36 1050.5,-36 1050.5,0 1104.5,0 1104.5,-36"/>
<text text-anchor="middle" x="1077.5" y="-14.3" font-family="Times,serif" font-size="14.00">(...)</text>
</g>
<!-- 781&#45;&gt;782 -->
<g id="edge26" class="edge">
<title>781&#45;&gt;782</title>
<path fill="none" stroke="black" d="M1098.38,-71.76C1094.89,-62.94 1091.29,-53.84 1088.08,-45.72"/>
<polygon fill="black" stroke="black" points="1091.32,-44.42 1084.39,-36.41 1084.81,-46.99 1091.32,-44.42"/>
</g>
<!-- 793 -->
<g id="node28" class="node">
<title>793</title>
<polygon fill="#c0c0c0" stroke="black" points="1176.5,-36 1122.5,-36 1122.5,0 1176.5,0 1176.5,-36"/>
<text text-anchor="middle" x="1149.5" y="-14.3" font-family="Times,serif" font-size="14.00">(...)</text>
</g>
<!-- 781&#45;&gt;793 -->
<g id="edge27" class="edge">
<title>781&#45;&gt;793</title>
<path fill="none" stroke="black" d="M1129.75,-71.76C1133.01,-63.04 1136.38,-54.04 1139.4,-45.99"/>
<polygon fill="black" stroke="black" points="1142.76,-47 1142.98,-36.41 1136.2,-44.54 1142.76,-47"/>
</g>
<!-- 817 -->
<g id="node30" class="node">
<title>817</title>
<polygon fill="#c0c0c0" stroke="black" points="1283.5,-36 1229.5,-36 1229.5,0 1283.5,0 1283.5,-36"/>
<text text-anchor="middle" x="1256.5" y="-14.3" font-family="Times,serif" font-size="14.00">(...)</text>
</g>
<!-- 816&#45;&gt;817 -->
<g id="edge29" class="edge">
<title>816&#45;&gt;817</title>
<path fill="none" stroke="black" d="M1276.81,-71.76C1273.46,-63.04 1269.99,-54.04 1266.89,-45.99"/>
<polygon fill="black" stroke="black" points="1270.06,-44.48 1263.2,-36.41 1263.53,-46.99 1270.06,-44.48"/>
</g>
<!-- 828 -->
<g id="node31" class="node">
<title>828</title>
<polygon fill="#c0c0c0" stroke="black" points="1355.5,-36 1301.5,-36 1301.5,0 1355.5,0 1355.5,-36"/>
<text text-anchor="middle" x="1328.5" y="-14.3" font-family="Times,serif" font-size="14.00">(...)</text>
</g>
<!-- 816&#45;&gt;828 -->
<g id="edge30" class="edge">
<title>816&#45;&gt;828</title>
<path fill="none" stroke="black" d="M1308.19,-71.76C1311.54,-63.04 1315.01,-54.04 1318.11,-45.99"/>
<polygon fill="black" stroke="black" points="1321.47,-46.99 1321.8,-36.41 1314.94,-44.48 1321.47,-46.99"/>
</g>
</g>
</svg>
