<?xml version="1.0" encoding="UTF-8" standalone="no"?>
<!DOCTYPE svg PUBLIC "-//W3C//DTD SVG 1.1//EN"
 "http://www.w3.org/Graphics/SVG/1.1/DTD/svg11.dtd">
<!-- Generated by graphviz version 2.43.0 (0)
 -->
<!-- Title: Tree Pages: 1 -->
<svg width="2865pt" height="520pt"
 viewBox="0.00 0.00 2864.50 520.00" xmlns="http://www.w3.org/2000/svg" xmlns:xlink="http://www.w3.org/1999/xlink">
<g id="graph0" class="graph" transform="scale(1 1) rotate(0) translate(4 516)">
<title>Tree</title>
<polygon fill="white" stroke="transparent" points="-4,4 -4,-516 2860.5,-516 2860.5,4 -4,4"/>
<!-- 0 -->
<g id="node1" class="node">
<title>0</title>
<polygon fill="#f4fef5" stroke="black" points="1605.5,-512 1213.5,-512 1213.5,-429 1605.5,-429 1605.5,-512"/>
<text text-anchor="middle" x="1409.5" y="-496.8" font-family="Times,serif" font-size="14.00">graphSize &lt;= 22.5</text>
<text text-anchor="middle" x="1409.5" y="-481.8" font-family="Times,serif" font-size="14.00">gini = 0.851</text>
<text text-anchor="middle" x="1409.5" y="-466.8" font-family="Times,serif" font-size="14.00">samples = 32332</text>
<text text-anchor="middle" x="1409.5" y="-451.8" font-family="Times,serif" font-size="14.00">value = [5145, 3831, 6710, 3734, 4028, 4337, 4547]</text>
<text text-anchor="middle" x="1409.5" y="-436.8" font-family="Times,serif" font-size="14.00">class = BIL</text>
</g>
<!-- 1 -->
<g id="node2" class="node">
<title>1</title>
<polygon fill="#fffdfc" stroke="black" points="1258.5,-393 866.5,-393 866.5,-310 1258.5,-310 1258.5,-393"/>
<text text-anchor="middle" x="1062.5" y="-377.8" font-family="Times,serif" font-size="14.00">CCR &lt;= 5.5</text>
<text text-anchor="middle" x="1062.5" y="-362.8" font-family="Times,serif" font-size="14.00">gini = 0.857</text>
<text text-anchor="middle" x="1062.5" y="-347.8" font-family="Times,serif" font-size="14.00">samples = 16204</text>
<text text-anchor="middle" x="1062.5" y="-332.8" font-family="Times,serif" font-size="14.00">value = [2551, 2165, 2232, 2244, 2328, 2319, 2365]</text>
<text text-anchor="middle" x="1062.5" y="-317.8" font-family="Times,serif" font-size="14.00">class = rku</text>
</g>
<!-- 0&#45;&gt;1 -->
<g id="edge1" class="edge">
<title>0&#45;&gt;1</title>
<path fill="none" stroke="black" d="M1289.11,-428.91C1257.89,-418.38 1224.13,-407 1192.44,-396.31"/>
<polygon fill="black" stroke="black" points="1193.27,-392.9 1182.68,-393.02 1191.03,-399.53 1193.27,-392.9"/>
<text text-anchor="middle" x="1193.78" y="-411.72" font-family="Times,serif" font-size="14.00">True</text>
</g>
<!-- 216 -->
<g id="node17" class="node">
<title>216</title>
<polygon fill="#e3fbe6" stroke="black" points="1952.5,-393 1560.5,-393 1560.5,-310 1952.5,-310 1952.5,-393"/>
<text text-anchor="middle" x="1756.5" y="-377.8" font-family="Times,serif" font-size="14.00">CCR &lt;= 0.55</text>
<text text-anchor="middle" x="1756.5" y="-362.8" font-family="Times,serif" font-size="14.00">gini = 0.833</text>
<text text-anchor="middle" x="1756.5" y="-347.8" font-family="Times,serif" font-size="14.00">samples = 16128</text>
<text text-anchor="middle" x="1756.5" y="-332.8" font-family="Times,serif" font-size="14.00">value = [2594, 1666, 4478, 1490, 1700, 2018, 2182]</text>
<text text-anchor="middle" x="1756.5" y="-317.8" font-family="Times,serif" font-size="14.00">class = BIL</text>
</g>
<!-- 0&#45;&gt;216 -->
<g id="edge16" class="edge">
<title>0&#45;&gt;216</title>
<path fill="none" stroke="black" d="M1529.89,-428.91C1561.11,-418.38 1594.87,-407 1626.56,-396.31"/>
<polygon fill="black" stroke="black" points="1627.97,-399.53 1636.32,-393.02 1625.73,-392.9 1627.97,-399.53"/>
<text text-anchor="middle" x="1625.22" y="-411.72" font-family="Times,serif" font-size="14.00">False</text>
</g>
<!-- 2 -->
<g id="node3" class="node">
<title>2</title>
<polygon fill="#ffffff" stroke="black" points="738.5,-274 346.5,-274 346.5,-191 738.5,-191 738.5,-274"/>
<text text-anchor="middle" x="542.5" y="-258.8" font-family="Times,serif" font-size="14.00">nbproc &lt;= 4.5</text>
<text text-anchor="middle" x="542.5" y="-243.8" font-family="Times,serif" font-size="14.00">gini = 0.856</text>
<text text-anchor="middle" x="542.5" y="-228.8" font-family="Times,serif" font-size="14.00">samples = 12432</text>
<text text-anchor="middle" x="542.5" y="-213.8" font-family="Times,serif" font-size="14.00">value = [1947, 1535, 1514, 1864, 1946, 1833, 1793]</text>
<text text-anchor="middle" x="542.5" y="-198.8" font-family="Times,serif" font-size="14.00">class = rku</text>
</g>
<!-- 1&#45;&gt;2 -->
<g id="edge2" class="edge">
<title>1&#45;&gt;2</title>
<path fill="none" stroke="black" d="M882.45,-309.99C834.13,-299.12 781.74,-287.33 732.88,-276.33"/>
<polygon fill="black" stroke="black" points="733.36,-272.86 722.83,-274.07 731.82,-279.68 733.36,-272.86"/>
</g>
<!-- 145 -->
<g id="node10" class="node">
<title>145</title>
<polygon fill="#f9fefa" stroke="black" points="1227,-274 898,-274 898,-191 1227,-191 1227,-274"/>
<text text-anchor="middle" x="1062.5" y="-258.8" font-family="Times,serif" font-size="14.00">nbproc &lt;= 4.5</text>
<text text-anchor="middle" x="1062.5" y="-243.8" font-family="Times,serif" font-size="14.00">gini = 0.85</text>
<text text-anchor="middle" x="1062.5" y="-228.8" font-family="Times,serif" font-size="14.00">samples = 3772</text>
<text text-anchor="middle" x="1062.5" y="-213.8" font-family="Times,serif" font-size="14.00">value = [604, 630, 718, 380, 382, 486, 572]</text>
<text text-anchor="middle" x="1062.5" y="-198.8" font-family="Times,serif" font-size="14.00">class = BIL</text>
</g>
<!-- 1&#45;&gt;145 -->
<g id="edge9" class="edge">
<title>1&#45;&gt;145</title>
<path fill="none" stroke="black" d="M1062.5,-309.91C1062.5,-301.65 1062.5,-292.86 1062.5,-284.3"/>
<polygon fill="black" stroke="black" points="1066,-284.02 1062.5,-274.02 1059,-284.02 1066,-284.02"/>
</g>
<!-- 3 -->
<g id="node4" class="node">
<title>3</title>
<polygon fill="#fafbfe" stroke="black" points="329,-155 0,-155 0,-72 329,-72 329,-155"/>
<text text-anchor="middle" x="164.5" y="-139.8" font-family="Times,serif" font-size="14.00">graphDepth &lt;= 3.5</text>
<text text-anchor="middle" x="164.5" y="-124.8" font-family="Times,serif" font-size="14.00">gini = 0.85</text>
<text text-anchor="middle" x="164.5" y="-109.8" font-family="Times,serif" font-size="14.00">samples = 3871</text>
<text text-anchor="middle" x="164.5" y="-94.8" font-family="Times,serif" font-size="14.00">value = [581, 416, 464, 690, 770, 491, 459]</text>
<text text-anchor="middle" x="164.5" y="-79.8" font-family="Times,serif" font-size="14.00">class = cluHPS</text>
</g>
<!-- 2&#45;&gt;3 -->
<g id="edge3" class="edge">
<title>2&#45;&gt;3</title>
<path fill="none" stroke="black" d="M411.62,-190.99C377.3,-180.37 340.15,-168.87 305.34,-158.09"/>
<polygon fill="black" stroke="black" points="306.18,-154.69 295.59,-155.07 304.11,-161.38 306.18,-154.69"/>
</g>
<!-- 74 -->
<g id="node7" class="node">
<title>74</title>
<polygon fill="#fffffe" stroke="black" points="738.5,-155 346.5,-155 346.5,-72 738.5,-72 738.5,-155"/>
<text text-anchor="middle" x="542.5" y="-139.8" font-family="Times,serif" font-size="14.00">sdComm &lt;= 0.02</text>
<text text-anchor="middle" x="542.5" y="-124.8" font-family="Times,serif" font-size="14.00">gini = 0.856</text>
<text text-anchor="middle" x="542.5" y="-109.8" font-family="Times,serif" font-size="14.00">samples = 8561</text>
<text text-anchor="middle" x="542.5" y="-94.8" font-family="Times,serif" font-size="14.00">value = [1366, 1119, 1050, 1174, 1176, 1342, 1334]</text>
<text text-anchor="middle" x="542.5" y="-79.8" font-family="Times,serif" font-size="14.00">class = rku</text>
</g>
<!-- 2&#45;&gt;74 -->
<g id="edge6" class="edge">
<title>2&#45;&gt;74</title>
<path fill="none" stroke="black" d="M542.5,-190.91C542.5,-182.65 542.5,-173.86 542.5,-165.3"/>
<polygon fill="black" stroke="black" points="546,-165.02 542.5,-155.02 539,-165.02 546,-165.02"/>
</g>
<!-- 4 -->
<g id="node5" class="node">
<title>4</title>
<polygon fill="#c0c0c0" stroke="black" points="155.5,-36 101.5,-36 101.5,0 155.5,0 155.5,-36"/>
<text text-anchor="middle" x="128.5" y="-14.3" font-family="Times,serif" font-size="14.00">(...)</text>
</g>
<!-- 3&#45;&gt;4 -->
<g id="edge4" class="edge">
<title>3&#45;&gt;4</title>
<path fill="none" stroke="black" d="M148.81,-71.76C145.46,-63.04 141.99,-54.04 138.89,-45.99"/>
<polygon fill="black" stroke="black" points="142.06,-44.48 135.2,-36.41 135.53,-46.99 142.06,-44.48"/>
</g>
<!-- 39 -->
<g id="node6" class="node">
<title>39</title>
<polygon fill="#c0c0c0" stroke="black" points="227.5,-36 173.5,-36 173.5,0 227.5,0 227.5,-36"/>
<text text-anchor="middle" x="200.5" y="-14.3" font-family="Times,serif" font-size="14.00">(...)</text>
</g>
<!-- 3&#45;&gt;39 -->
<g id="edge5" class="edge">
<title>3&#45;&gt;39</title>
<path fill="none" stroke="black" d="M180.19,-71.76C183.54,-63.04 187.01,-54.04 190.11,-45.99"/>
<polygon fill="black" stroke="black" points="193.47,-46.99 193.8,-36.41 186.94,-44.48 193.47,-46.99"/>
</g>
<!-- 75 -->
<g id="node8" class="node">
<title>75</title>
<polygon fill="#c0c0c0" stroke="black" points="533.5,-36 479.5,-36 479.5,0 533.5,0 533.5,-36"/>
<text text-anchor="middle" x="506.5" y="-14.3" font-family="Times,serif" font-size="14.00">(...)</text>
</g>
<!-- 74&#45;&gt;75 -->
<g id="edge7" class="edge">
<title>74&#45;&gt;75</title>
<path fill="none" stroke="black" d="M526.81,-71.76C523.46,-63.04 519.99,-54.04 516.89,-45.99"/>
<polygon fill="black" stroke="black" points="520.06,-44.48 513.2,-36.41 513.53,-46.99 520.06,-44.48"/>
</g>
<!-- 86 -->
<g id="node9" class="node">
<title>86</title>
<polygon fill="#c0c0c0" stroke="black" points="605.5,-36 551.5,-36 551.5,0 605.5,0 605.5,-36"/>
<text text-anchor="middle" x="578.5" y="-14.3" font-family="Times,serif" font-size="14.00">(...)</text>
</g>
<!-- 74&#45;&gt;86 -->
<g id="edge8" class="edge">
<title>74&#45;&gt;86</title>
<path fill="none" stroke="black" d="M558.19,-71.76C561.54,-63.04 565.01,-54.04 568.11,-45.99"/>
<polygon fill="black" stroke="black" points="571.47,-46.99 571.8,-36.41 564.94,-44.48 571.47,-46.99"/>
</g>
<!-- 146 -->
<g id="node11" class="node">
<title>146</title>
<polygon fill="#f9fefa" stroke="black" points="1085,-155 756,-155 756,-72 1085,-72 1085,-155"/>
<text text-anchor="middle" x="920.5" y="-139.8" font-family="Times,serif" font-size="14.00">sdComp &lt;= 2.0</text>
<text text-anchor="middle" x="920.5" y="-124.8" font-family="Times,serif" font-size="14.00">gini = 0.848</text>
<text text-anchor="middle" x="920.5" y="-109.8" font-family="Times,serif" font-size="14.00">samples = 2414</text>
<text text-anchor="middle" x="920.5" y="-94.8" font-family="Times,serif" font-size="14.00">value = [414, 350, 474, 210, 230, 344, 392]</text>
<text text-anchor="middle" x="920.5" y="-79.8" font-family="Times,serif" font-size="14.00">class = BIL</text>
</g>
<!-- 145&#45;&gt;146 -->
<g id="edge10" class="edge">
<title>145&#45;&gt;146</title>
<path fill="none" stroke="black" d="M1013.23,-190.91C1001.78,-181.47 989.49,-171.34 977.72,-161.65"/>
<polygon fill="black" stroke="black" points="979.62,-158.68 969.68,-155.02 975.17,-164.08 979.62,-158.68"/>
</g>
<!-- 181 -->
<g id="node14" class="node">
<title>181</title>
<polygon fill="#fdfef9" stroke="black" points="1432,-155 1103,-155 1103,-72 1432,-72 1432,-155"/>
<text text-anchor="middle" x="1267.5" y="-139.8" font-family="Times,serif" font-size="14.00">sdComp &lt;= 6.5</text>
<text text-anchor="middle" x="1267.5" y="-124.8" font-family="Times,serif" font-size="14.00">gini = 0.849</text>
<text text-anchor="middle" x="1267.5" y="-109.8" font-family="Times,serif" font-size="14.00">samples = 1358</text>
<text text-anchor="middle" x="1267.5" y="-94.8" font-family="Times,serif" font-size="14.00">value = [190, 280, 244, 170, 152, 142, 180]</text>
<text text-anchor="middle" x="1267.5" y="-79.8" font-family="Times,serif" font-size="14.00">class = random</text>
</g>
<!-- 145&#45;&gt;181 -->
<g id="edge13" class="edge">
<title>145&#45;&gt;181</title>
<path fill="none" stroke="black" d="M1133.62,-190.91C1150.96,-181.02 1169.61,-170.37 1187.33,-160.25"/>
<polygon fill="black" stroke="black" points="1189.55,-163.02 1196.5,-155.02 1186.08,-156.94 1189.55,-163.02"/>
</g>
<!-- 147 -->
<g id="node12" class="node">
<title>147</title>
<polygon fill="#c0c0c0" stroke="black" points="911.5,-36 857.5,-36 857.5,0 911.5,0 911.5,-36"/>
<text text-anchor="middle" x="884.5" y="-14.3" font-family="Times,serif" font-size="14.00">(...)</text>
</g>
<!-- 146&#45;&gt;147 -->
<g id="edge11" class="edge">
<title>146&#45;&gt;147</title>
<path fill="none" stroke="black" d="M904.81,-71.76C901.46,-63.04 897.99,-54.04 894.89,-45.99"/>
<polygon fill="black" stroke="black" points="898.06,-44.48 891.2,-36.41 891.53,-46.99 898.06,-44.48"/>
</g>
<!-- 158 -->
<g id="node13" class="node">
<title>158</title>
<polygon fill="#c0c0c0" stroke="black" points="983.5,-36 929.5,-36 929.5,0 983.5,0 983.5,-36"/>
<text text-anchor="middle" x="956.5" y="-14.3" font-family="Times,serif" font-size="14.00">(...)</text>
</g>
<!-- 146&#45;&gt;158 -->
<g id="edge12" class="edge">
<title>146&#45;&gt;158</title>
<path fill="none" stroke="black" d="M936.19,-71.76C939.54,-63.04 943.01,-54.04 946.11,-45.99"/>
<polygon fill="black" stroke="black" points="949.47,-46.99 949.8,-36.41 942.94,-44.48 949.47,-46.99"/>
</g>
<!-- 182 -->
<g id="node15" class="node">
<title>182</title>
<polygon fill="#c0c0c0" stroke="black" points="1258.5,-36 1204.5,-36 1204.5,0 1258.5,0 1258.5,-36"/>
<text text-anchor="middle" x="1231.5" y="-14.3" font-family="Times,serif" font-size="14.00">(...)</text>
</g>
<!-- 181&#45;&gt;182 -->
<g id="edge14" class="edge">
<title>181&#45;&gt;182</title>
<path fill="none" stroke="black" d="M1251.81,-71.76C1248.46,-63.04 1244.99,-54.04 1241.89,-45.99"/>
<polygon fill="black" stroke="black" points="1245.06,-44.48 1238.2,-36.41 1238.53,-46.99 1245.06,-44.48"/>
</g>
<!-- 205 -->
<g id="node16" class="node">
<title>205</title>
<polygon fill="#c0c0c0" stroke="black" points="1330.5,-36 1276.5,-36 1276.5,0 1330.5,0 1330.5,-36"/>
<text text-anchor="middle" x="1303.5" y="-14.3" font-family="Times,serif" font-size="14.00">(...)</text>
</g>
<!-- 181&#45;&gt;205 -->
<g id="edge15" class="edge">
<title>181&#45;&gt;205</title>
<path fill="none" stroke="black" d="M1283.19,-71.76C1286.54,-63.04 1290.01,-54.04 1293.11,-45.99"/>
<polygon fill="black" stroke="black" points="1296.47,-46.99 1296.8,-36.41 1289.94,-44.48 1296.47,-46.99"/>
</g>
<!-- 217 -->
<g id="node18" class="node">
<title>217</title>
<polygon fill="#d3f9d7" stroke="black" points="1925.5,-274 1587.5,-274 1587.5,-191 1925.5,-191 1925.5,-274"/>
<text text-anchor="middle" x="1756.5" y="-258.8" font-family="Times,serif" font-size="14.00">graphDepth &lt;= 13.5</text>
<text text-anchor="middle" x="1756.5" y="-243.8" font-family="Times,serif" font-size="14.00">gini = 0.804</text>
<text text-anchor="middle" x="1756.5" y="-228.8" font-family="Times,serif" font-size="14.00">samples = 4172</text>
<text text-anchor="middle" x="1756.5" y="-213.8" font-family="Times,serif" font-size="14.00">value = [648, 312, 1432, 316, 494, 594, 376]</text>
<text text-anchor="middle" x="1756.5" y="-198.8" font-family="Times,serif" font-size="14.00">class = BIL</text>
</g>
<!-- 216&#45;&gt;217 -->
<g id="edge17" class="edge">
<title>216&#45;&gt;217</title>
<path fill="none" stroke="black" d="M1756.5,-309.91C1756.5,-301.65 1756.5,-292.86 1756.5,-284.3"/>
<polygon fill="black" stroke="black" points="1760,-284.02 1756.5,-274.02 1753,-284.02 1760,-284.02"/>
</g>
<!-- 428 -->
<g id="node25" class="node">
<title>428</title>
<polygon fill="#e9fceb" stroke="black" points="2478.5,-274 2086.5,-274 2086.5,-191 2478.5,-191 2478.5,-274"/>
<text text-anchor="middle" x="2282.5" y="-258.8" font-family="Times,serif" font-size="14.00">sdComp &lt;= 0.65</text>
<text text-anchor="middle" x="2282.5" y="-243.8" font-family="Times,serif" font-size="14.00">gini = 0.839</text>
<text text-anchor="middle" x="2282.5" y="-228.8" font-family="Times,serif" font-size="14.00">samples = 11956</text>
<text text-anchor="middle" x="2282.5" y="-213.8" font-family="Times,serif" font-size="14.00">value = [1946, 1354, 3046, 1174, 1206, 1424, 1806]</text>
<text text-anchor="middle" x="2282.5" y="-198.8" font-family="Times,serif" font-size="14.00">class = BIL</text>
</g>
<!-- 216&#45;&gt;428 -->
<g id="edge24" class="edge">
<title>216&#45;&gt;428</title>
<path fill="none" stroke="black" d="M1938.62,-309.99C1987.6,-299.1 2040.73,-287.28 2090.24,-276.27"/>
<polygon fill="black" stroke="black" points="2091.09,-279.66 2100.09,-274.07 2089.57,-272.83 2091.09,-279.66"/>
</g>
<!-- 218 -->
<g id="node19" class="node">
<title>218</title>
<polygon fill="#e4fbe7" stroke="black" points="1779,-155 1450,-155 1450,-72 1779,-72 1779,-155"/>
<text text-anchor="middle" x="1614.5" y="-139.8" font-family="Times,serif" font-size="14.00">graphDepth &lt;= 9.0</text>
<text text-anchor="middle" x="1614.5" y="-124.8" font-family="Times,serif" font-size="14.00">gini = 0.835</text>
<text text-anchor="middle" x="1614.5" y="-109.8" font-family="Times,serif" font-size="14.00">samples = 2816</text>
<text text-anchor="middle" x="1614.5" y="-94.8" font-family="Times,serif" font-size="14.00">value = [422, 268, 758, 266, 378, 434, 290]</text>
<text text-anchor="middle" x="1614.5" y="-79.8" font-family="Times,serif" font-size="14.00">class = BIL</text>
</g>
<!-- 217&#45;&gt;218 -->
<g id="edge18" class="edge">
<title>217&#45;&gt;218</title>
<path fill="none" stroke="black" d="M1707.23,-190.91C1695.78,-181.47 1683.49,-171.34 1671.72,-161.65"/>
<polygon fill="black" stroke="black" points="1673.62,-158.68 1663.68,-155.02 1669.17,-164.08 1673.62,-158.68"/>
</g>
<!-- 325 -->
<g id="node22" class="node">
<title>325</title>
<polygon fill="#b1f5b8" stroke="black" points="2099.5,-155 1797.5,-155 1797.5,-72 2099.5,-72 2099.5,-155"/>
<text text-anchor="middle" x="1948.5" y="-139.8" font-family="Times,serif" font-size="14.00">nbproc &lt;= 4.5</text>
<text text-anchor="middle" x="1948.5" y="-124.8" font-family="Times,serif" font-size="14.00">gini = 0.697</text>
<text text-anchor="middle" x="1948.5" y="-109.8" font-family="Times,serif" font-size="14.00">samples = 1356</text>
<text text-anchor="middle" x="1948.5" y="-94.8" font-family="Times,serif" font-size="14.00">value = [226, 44, 674, 50, 116, 160, 86]</text>
<text text-anchor="middle" x="1948.5" y="-79.8" font-family="Times,serif" font-size="14.00">class = BIL</text>
</g>
<!-- 217&#45;&gt;325 -->
<g id="edge21" class="edge">
<title>217&#45;&gt;325</title>
<path fill="none" stroke="black" d="M1823.11,-190.91C1839.35,-181.02 1856.82,-170.37 1873.42,-160.25"/>
<polygon fill="black" stroke="black" points="1875.29,-163.21 1882,-155.02 1871.64,-157.24 1875.29,-163.21"/>
</g>
<!-- 219 -->
<g id="node20" class="node">
<title>219</title>
<polygon fill="#c0c0c0" stroke="black" points="1605.5,-36 1551.5,-36 1551.5,0 1605.5,0 1605.5,-36"/>
<text text-anchor="middle" x="1578.5" y="-14.3" font-family="Times,serif" font-size="14.00">(...)</text>
</g>
<!-- 218&#45;&gt;219 -->
<g id="edge19" class="edge">
<title>218&#45;&gt;219</title>
<path fill="none" stroke="black" d="M1598.81,-71.76C1595.46,-63.04 1591.99,-54.04 1588.89,-45.99"/>
<polygon fill="black" stroke="black" points="1592.06,-44.48 1585.2,-36.41 1585.53,-46.99 1592.06,-44.48"/>
</g>
<!-- 290 -->
<g id="node21" class="node">
<title>290</title>
<polygon fill="#c0c0c0" stroke="black" points="1677.5,-36 1623.5,-36 1623.5,0 1677.5,0 1677.5,-36"/>
<text text-anchor="middle" x="1650.5" y="-14.3" font-family="Times,serif" font-size="14.00">(...)</text>
</g>
<!-- 218&#45;&gt;290 -->
<g id="edge20" class="edge">
<title>218&#45;&gt;290</title>
<path fill="none" stroke="black" d="M1630.19,-71.76C1633.54,-63.04 1637.01,-54.04 1640.11,-45.99"/>
<polygon fill="black" stroke="black" points="1643.47,-46.99 1643.8,-36.41 1636.94,-44.48 1643.47,-46.99"/>
</g>
<!-- 326 -->
<g id="node23" class="node">
<title>326</title>
<polygon fill="#c0c0c0" stroke="black" points="1939.5,-36 1885.5,-36 1885.5,0 1939.5,0 1939.5,-36"/>
<text text-anchor="middle" x="1912.5" y="-14.3" font-family="Times,serif" font-size="14.00">(...)</text>
</g>
<!-- 325&#45;&gt;326 -->
<g id="edge22" class="edge">
<title>325&#45;&gt;326</title>
<path fill="none" stroke="black" d="M1932.81,-71.76C1929.46,-63.04 1925.99,-54.04 1922.89,-45.99"/>
<polygon fill="black" stroke="black" points="1926.06,-44.48 1919.2,-36.41 1919.53,-46.99 1926.06,-44.48"/>
</g>
<!-- 377 -->
<g id="node24" class="node">
<title>377</title>
<polygon fill="#c0c0c0" stroke="black" points="2011.5,-36 1957.5,-36 1957.5,0 2011.5,0 2011.5,-36"/>
<text text-anchor="middle" x="1984.5" y="-14.3" font-family="Times,serif" font-size="14.00">(...)</text>
</g>
<!-- 325&#45;&gt;377 -->
<g id="edge23" class="edge">
<title>325&#45;&gt;377</title>
<path fill="none" stroke="black" d="M1964.19,-71.76C1967.54,-63.04 1971.01,-54.04 1974.11,-45.99"/>
<polygon fill="black" stroke="black" points="1977.47,-46.99 1977.8,-36.41 1970.94,-44.48 1977.47,-46.99"/>
</g>
<!-- 429 -->
<g id="node26" class="node">
<title>429</title>
<polygon fill="#fcf1e9" stroke="black" points="2447,-155 2118,-155 2118,-72 2447,-72 2447,-155"/>
<text text-anchor="middle" x="2282.5" y="-139.8" font-family="Times,serif" font-size="14.00">graphSize &lt;= 40.0</text>
<text text-anchor="middle" x="2282.5" y="-124.8" font-family="Times,serif" font-size="14.00">gini = 0.822</text>
<text text-anchor="middle" x="2282.5" y="-109.8" font-family="Times,serif" font-size="14.00">samples = 1844</text>
<text text-anchor="middle" x="2282.5" y="-94.8" font-family="Times,serif" font-size="14.00">value = [516, 120, 206, 164, 166, 322, 350]</text>
<text text-anchor="middle" x="2282.5" y="-79.8" font-family="Times,serif" font-size="14.00">class = rku</text>
</g>
<!-- 428&#45;&gt;429 -->
<g id="edge25" class="edge">
<title>428&#45;&gt;429</title>
<path fill="none" stroke="black" d="M2282.5,-190.91C2282.5,-182.65 2282.5,-173.86 2282.5,-165.3"/>
<polygon fill="black" stroke="black" points="2286,-165.02 2282.5,-155.02 2279,-165.02 2286,-165.02"/>
</g>
<!-- 566 -->
<g id="node29" class="node">
<title>566</title>
<polygon fill="#dffbe3" stroke="black" points="2856.5,-155 2464.5,-155 2464.5,-72 2856.5,-72 2856.5,-155"/>
<text text-anchor="middle" x="2660.5" y="-139.8" font-family="Times,serif" font-size="14.00">sdComp &lt;= 6.5</text>
<text text-anchor="middle" x="2660.5" y="-124.8" font-family="Times,serif" font-size="14.00">gini = 0.833</text>
<text text-anchor="middle" x="2660.5" y="-109.8" font-family="Times,serif" font-size="14.00">samples = 10112</text>
<text text-anchor="middle" x="2660.5" y="-94.8" font-family="Times,serif" font-size="14.00">value = [1430, 1234, 2840, 1010, 1040, 1102, 1456]</text>
<text text-anchor="middle" x="2660.5" y="-79.8" font-family="Times,serif" font-size="14.00">class = BIL</text>
</g>
<!-- 428&#45;&gt;566 -->
<g id="edge28" class="edge">
<title>428&#45;&gt;566</title>
<path fill="none" stroke="black" d="M2413.38,-190.99C2447.7,-180.37 2484.85,-168.87 2519.66,-158.09"/>
<polygon fill="black" stroke="black" points="2520.89,-161.38 2529.41,-155.07 2518.82,-154.69 2520.89,-161.38"/>
</g>
<!-- 430 -->
<g id="node27" class="node">
<title>430</title>
<polygon fill="#c0c0c0" stroke="black" points="2273.5,-36 2219.5,-36 2219.5,0 2273.5,0 2273.5,-36"/>
<text text-anchor="middle" x="2246.5" y="-14.3" font-family="Times,serif" font-size="14.00">(...)</text>
</g>
<!-- 429&#45;&gt;430 -->
<g id="edge26" class="edge">
<title>429&#45;&gt;430</title>
<path fill="none" stroke="black" d="M2266.81,-71.76C2263.46,-63.04 2259.99,-54.04 2256.89,-45.99"/>
<polygon fill="black" stroke="black" points="2260.06,-44.48 2253.2,-36.41 2253.53,-46.99 2260.06,-44.48"/>
</g>
<!-- 477 -->
<g id="node28" class="node">
<title>477</title>
<polygon fill="#c0c0c0" stroke="black" points="2345.5,-36 2291.5,-36 2291.5,0 2345.5,0 2345.5,-36"/>
<text text-anchor="middle" x="2318.5" y="-14.3" font-family="Times,serif" font-size="14.00">(...)</text>
</g>
<!-- 429&#45;&gt;477 -->
<g id="edge27" class="edge">
<title>429&#45;&gt;477</title>
<path fill="none" stroke="black" d="M2298.19,-71.76C2301.54,-63.04 2305.01,-54.04 2308.11,-45.99"/>
<polygon fill="black" stroke="black" points="2311.47,-46.99 2311.8,-36.41 2304.94,-44.48 2311.47,-46.99"/>
</g>
<!-- 567 -->
<g id="node30" class="node">
<title>567</title>
<polygon fill="#c0c0c0" stroke="black" points="2651.5,-36 2597.5,-36 2597.5,0 2651.5,0 2651.5,-36"/>
<text text-anchor="middle" x="2624.5" y="-14.3" font-family="Times,serif" font-size="14.00">(...)</text>
</g>
<!-- 566&#45;&gt;567 -->
<g id="edge29" class="edge">
<title>566&#45;&gt;567</title>
<path fill="none" stroke="black" d="M2644.81,-71.76C2641.46,-63.04 2637.99,-54.04 2634.89,-45.99"/>
<polygon fill="black" stroke="black" points="2638.06,-44.48 2631.2,-36.41 2631.53,-46.99 2638.06,-44.48"/>
</g>
<!-- 780 -->
<g id="node31" class="node">
<title>780</title>
<polygon fill="#c0c0c0" stroke="black" points="2723.5,-36 2669.5,-36 2669.5,0 2723.5,0 2723.5,-36"/>
<text text-anchor="middle" x="2696.5" y="-14.3" font-family="Times,serif" font-size="14.00">(...)</text>
</g>
<!-- 566&#45;&gt;780 -->
<g id="edge30" class="edge">
<title>566&#45;&gt;780</title>
<path fill="none" stroke="black" d="M2676.19,-71.76C2679.54,-63.04 2683.01,-54.04 2686.11,-45.99"/>
<polygon fill="black" stroke="black" points="2689.47,-46.99 2689.8,-36.41 2682.94,-44.48 2689.47,-46.99"/>
</g>
</g>
</svg>
