<?xml version="1.0" encoding="UTF-8" standalone="no"?>
<!DOCTYPE svg PUBLIC "-//W3C//DTD SVG 1.1//EN"
 "http://www.w3.org/Graphics/SVG/1.1/DTD/svg11.dtd">
<!-- Generated by graphviz version 2.43.0 (0)
 -->
<!-- Title: Tree Pages: 1 -->
<svg width="2462pt" height="520pt"
 viewBox="0.00 0.00 2461.50 520.00" xmlns="http://www.w3.org/2000/svg" xmlns:xlink="http://www.w3.org/1999/xlink">
<g id="graph0" class="graph" transform="scale(1 1) rotate(0) translate(4 516)">
<title>Tree</title>
<polygon fill="white" stroke="transparent" points="-4,4 -4,-516 2457.5,-516 2457.5,4 -4,4"/>
<!-- 0 -->
<g id="node1" class="node">
<title>0</title>
<polygon fill="#fef5fa" stroke="black" points="1365.5,-512 1018.5,-512 1018.5,-429 1365.5,-429 1365.5,-512"/>
<text text-anchor="middle" x="1192" y="-496.8" font-family="Times,serif" font-size="14.00">CCR &lt;= 5.5</text>
<text text-anchor="middle" x="1192" y="-481.8" font-family="Times,serif" font-size="14.00">gini = 0.811</text>
<text text-anchor="middle" x="1192" y="-466.8" font-family="Times,serif" font-size="14.00">samples = 32332</text>
<text text-anchor="middle" x="1192" y="-451.8" font-family="Times,serif" font-size="14.00">value = [6698, 5152, 5080, 1624, 5816, 7962]</text>
<text text-anchor="middle" x="1192" y="-436.8" font-family="Times,serif" font-size="14.00">class = GDL</text>
</g>
<!-- 1 -->
<g id="node2" class="node">
<title>1</title>
<polygon fill="#fbe1f0" stroke="black" points="1075.5,-393 746.5,-393 746.5,-310 1075.5,-310 1075.5,-393"/>
<text text-anchor="middle" x="911" y="-377.8" font-family="Times,serif" font-size="14.00">graphDepth &lt;= 6.5</text>
<text text-anchor="middle" x="911" y="-362.8" font-family="Times,serif" font-size="14.00">gini = 0.738</text>
<text text-anchor="middle" x="911" y="-347.8" font-family="Times,serif" font-size="14.00">samples = 19344</text>
<text text-anchor="middle" x="911" y="-332.8" font-family="Times,serif" font-size="14.00">value = [4888, 2506, 140, 544, 4204, 7062]</text>
<text text-anchor="middle" x="911" y="-317.8" font-family="Times,serif" font-size="14.00">class = GDL</text>
</g>
<!-- 0&#45;&gt;1 -->
<g id="edge1" class="edge">
<title>0&#45;&gt;1</title>
<path fill="none" stroke="black" d="M1094.51,-428.91C1069.66,-418.56 1042.83,-407.39 1017.55,-396.87"/>
<polygon fill="black" stroke="black" points="1018.9,-393.63 1008.32,-393.02 1016.21,-400.1 1018.9,-393.63"/>
<text text-anchor="middle" x="1017.84" y="-412.44" font-family="Times,serif" font-size="14.00">True</text>
</g>
<!-- 562 -->
<g id="node17" class="node">
<title>562</title>
<polygon fill="#d3f9e3" stroke="black" points="1681,-393 1343,-393 1343,-310 1681,-310 1681,-393"/>
<text text-anchor="middle" x="1512" y="-377.8" font-family="Times,serif" font-size="14.00">sdComp &lt;= 2.0</text>
<text text-anchor="middle" x="1512" y="-362.8" font-family="Times,serif" font-size="14.00">gini = 0.767</text>
<text text-anchor="middle" x="1512" y="-347.8" font-family="Times,serif" font-size="14.00">samples = 12988</text>
<text text-anchor="middle" x="1512" y="-332.8" font-family="Times,serif" font-size="14.00">value = [1810, 2646, 4940, 1080, 1612, 900]</text>
<text text-anchor="middle" x="1512" y="-317.8" font-family="Times,serif" font-size="14.00">class = OLB</text>
</g>
<!-- 0&#45;&gt;562 -->
<g id="edge16" class="edge">
<title>0&#45;&gt;562</title>
<path fill="none" stroke="black" d="M1303.02,-428.91C1331.57,-418.47 1362.41,-407.19 1391.41,-396.59"/>
<polygon fill="black" stroke="black" points="1392.98,-399.74 1401.17,-393.02 1390.58,-393.17 1392.98,-399.74"/>
<text text-anchor="middle" x="1390.64" y="-411.99" font-family="Times,serif" font-size="14.00">False</text>
</g>
<!-- 2 -->
<g id="node3" class="node">
<title>2</title>
<polygon fill="#fbe4f2" stroke="black" points="644.5,-274 315.5,-274 315.5,-191 644.5,-191 644.5,-274"/>
<text text-anchor="middle" x="480" y="-258.8" font-family="Times,serif" font-size="14.00">sdComm &lt;= 0.065</text>
<text text-anchor="middle" x="480" y="-243.8" font-family="Times,serif" font-size="14.00">gini = 0.736</text>
<text text-anchor="middle" x="480" y="-228.8" font-family="Times,serif" font-size="14.00">samples = 13752</text>
<text text-anchor="middle" x="480" y="-213.8" font-family="Times,serif" font-size="14.00">value = [3546, 1254, 132, 544, 3352, 4924]</text>
<text text-anchor="middle" x="480" y="-198.8" font-family="Times,serif" font-size="14.00">class = GDL</text>
</g>
<!-- 1&#45;&gt;2 -->
<g id="edge2" class="edge">
<title>1&#45;&gt;2</title>
<path fill="none" stroke="black" d="M761.77,-309.99C722.22,-299.25 679.38,-287.62 639.32,-276.75"/>
<polygon fill="black" stroke="black" points="640.03,-273.32 629.47,-274.07 638.2,-280.07 640.03,-273.32"/>
</g>
<!-- 215 -->
<g id="node10" class="node">
<title>215</title>
<polygon fill="#fadaed" stroke="black" points="1053,-274 769,-274 769,-191 1053,-191 1053,-274"/>
<text text-anchor="middle" x="911" y="-258.8" font-family="Times,serif" font-size="14.00">CCR &lt;= 0.55</text>
<text text-anchor="middle" x="911" y="-243.8" font-family="Times,serif" font-size="14.00">gini = 0.723</text>
<text text-anchor="middle" x="911" y="-228.8" font-family="Times,serif" font-size="14.00">samples = 5592</text>
<text text-anchor="middle" x="911" y="-213.8" font-family="Times,serif" font-size="14.00">value = [1342, 1252, 8, 0, 852, 2138]</text>
<text text-anchor="middle" x="911" y="-198.8" font-family="Times,serif" font-size="14.00">class = GDL</text>
</g>
<!-- 1&#45;&gt;215 -->
<g id="edge9" class="edge">
<title>1&#45;&gt;215</title>
<path fill="none" stroke="black" d="M911,-309.91C911,-301.65 911,-292.86 911,-284.3"/>
<polygon fill="black" stroke="black" points="914.5,-284.02 911,-274.02 907.5,-284.02 914.5,-284.02"/>
</g>
<!-- 3 -->
<g id="node4" class="node">
<title>3</title>
<polygon fill="#fef9fc" stroke="black" points="302,-155 0,-155 0,-72 302,-72 302,-155"/>
<text text-anchor="middle" x="151" y="-139.8" font-family="Times,serif" font-size="14.00">graphDepth &lt;= 3.5</text>
<text text-anchor="middle" x="151" y="-124.8" font-family="Times,serif" font-size="14.00">gini = 0.733</text>
<text text-anchor="middle" x="151" y="-109.8" font-family="Times,serif" font-size="14.00">samples = 5972</text>
<text text-anchor="middle" x="151" y="-94.8" font-family="Times,serif" font-size="14.00">value = [1838, 544, 4, 230, 1392, 1964]</text>
<text text-anchor="middle" x="151" y="-79.8" font-family="Times,serif" font-size="14.00">class = GDL</text>
</g>
<!-- 2&#45;&gt;3 -->
<g id="edge3" class="edge">
<title>2&#45;&gt;3</title>
<path fill="none" stroke="black" d="M365.86,-190.91C336.38,-180.43 304.52,-169.1 274.59,-158.45"/>
<polygon fill="black" stroke="black" points="275.54,-155.07 264.94,-155.02 273.19,-161.67 275.54,-155.07"/>
</g>
<!-- 74 -->
<g id="node7" class="node">
<title>74</title>
<polygon fill="#fbddee" stroke="black" points="640,-155 320,-155 320,-72 640,-72 640,-155"/>
<text text-anchor="middle" x="480" y="-139.8" font-family="Times,serif" font-size="14.00">graphSize &lt;= 22.5</text>
<text text-anchor="middle" x="480" y="-124.8" font-family="Times,serif" font-size="14.00">gini = 0.733</text>
<text text-anchor="middle" x="480" y="-109.8" font-family="Times,serif" font-size="14.00">samples = 7780</text>
<text text-anchor="middle" x="480" y="-94.8" font-family="Times,serif" font-size="14.00">value = [1708, 710, 128, 314, 1960, 2960]</text>
<text text-anchor="middle" x="480" y="-79.8" font-family="Times,serif" font-size="14.00">class = GDL</text>
</g>
<!-- 2&#45;&gt;74 -->
<g id="edge6" class="edge">
<title>2&#45;&gt;74</title>
<path fill="none" stroke="black" d="M480,-190.91C480,-182.65 480,-173.86 480,-165.3"/>
<polygon fill="black" stroke="black" points="483.5,-165.02 480,-155.02 476.5,-165.02 483.5,-165.02"/>
</g>
<!-- 4 -->
<g id="node5" class="node">
<title>4</title>
<polygon fill="#c0c0c0" stroke="black" points="142,-36 88,-36 88,0 142,0 142,-36"/>
<text text-anchor="middle" x="115" y="-14.3" font-family="Times,serif" font-size="14.00">(...)</text>
</g>
<!-- 3&#45;&gt;4 -->
<g id="edge4" class="edge">
<title>3&#45;&gt;4</title>
<path fill="none" stroke="black" d="M135.31,-71.76C131.96,-63.04 128.49,-54.04 125.39,-45.99"/>
<polygon fill="black" stroke="black" points="128.56,-44.48 121.7,-36.41 122.03,-46.99 128.56,-44.48"/>
</g>
<!-- 27 -->
<g id="node6" class="node">
<title>27</title>
<polygon fill="#c0c0c0" stroke="black" points="214,-36 160,-36 160,0 214,0 214,-36"/>
<text text-anchor="middle" x="187" y="-14.3" font-family="Times,serif" font-size="14.00">(...)</text>
</g>
<!-- 3&#45;&gt;27 -->
<g id="edge5" class="edge">
<title>3&#45;&gt;27</title>
<path fill="none" stroke="black" d="M166.69,-71.76C170.04,-63.04 173.51,-54.04 176.61,-45.99"/>
<polygon fill="black" stroke="black" points="179.97,-46.99 180.3,-36.41 173.44,-44.48 179.97,-46.99"/>
</g>
<!-- 75 -->
<g id="node8" class="node">
<title>75</title>
<polygon fill="#c0c0c0" stroke="black" points="471,-36 417,-36 417,0 471,0 471,-36"/>
<text text-anchor="middle" x="444" y="-14.3" font-family="Times,serif" font-size="14.00">(...)</text>
</g>
<!-- 74&#45;&gt;75 -->
<g id="edge7" class="edge">
<title>74&#45;&gt;75</title>
<path fill="none" stroke="black" d="M464.31,-71.76C460.96,-63.04 457.49,-54.04 454.39,-45.99"/>
<polygon fill="black" stroke="black" points="457.56,-44.48 450.7,-36.41 451.03,-46.99 457.56,-44.48"/>
</g>
<!-- 170 -->
<g id="node9" class="node">
<title>170</title>
<polygon fill="#c0c0c0" stroke="black" points="543,-36 489,-36 489,0 543,0 543,-36"/>
<text text-anchor="middle" x="516" y="-14.3" font-family="Times,serif" font-size="14.00">(...)</text>
</g>
<!-- 74&#45;&gt;170 -->
<g id="edge8" class="edge">
<title>74&#45;&gt;170</title>
<path fill="none" stroke="black" d="M495.69,-71.76C499.04,-63.04 502.51,-54.04 505.61,-45.99"/>
<polygon fill="black" stroke="black" points="508.97,-46.99 509.3,-36.41 502.44,-44.48 508.97,-46.99"/>
</g>
<!-- 216 -->
<g id="node11" class="node">
<title>216</title>
<polygon fill="#fef5fa" stroke="black" points="924,-155 658,-155 658,-72 924,-72 924,-155"/>
<text text-anchor="middle" x="791" y="-139.8" font-family="Times,serif" font-size="14.00">graphDepth &lt;= 25.5</text>
<text text-anchor="middle" x="791" y="-124.8" font-family="Times,serif" font-size="14.00">gini = 0.735</text>
<text text-anchor="middle" x="791" y="-109.8" font-family="Times,serif" font-size="14.00">samples = 3350</text>
<text text-anchor="middle" x="791" y="-94.8" font-family="Times,serif" font-size="14.00">value = [918, 912, 8, 0, 474, 1038]</text>
<text text-anchor="middle" x="791" y="-79.8" font-family="Times,serif" font-size="14.00">class = GDL</text>
</g>
<!-- 215&#45;&gt;216 -->
<g id="edge10" class="edge">
<title>215&#45;&gt;216</title>
<path fill="none" stroke="black" d="M869.37,-190.91C859.87,-181.65 849.7,-171.73 839.93,-162.21"/>
<polygon fill="black" stroke="black" points="842.16,-159.5 832.56,-155.02 837.28,-164.51 842.16,-159.5"/>
</g>
<!-- 389 -->
<g id="node14" class="node">
<title>389</title>
<polygon fill="#f5b5db" stroke="black" points="1208,-155 942,-155 942,-72 1208,-72 1208,-155"/>
<text text-anchor="middle" x="1075" y="-139.8" font-family="Times,serif" font-size="14.00">sdComp &lt;= 0.65</text>
<text text-anchor="middle" x="1075" y="-124.8" font-family="Times,serif" font-size="14.00">gini = 0.672</text>
<text text-anchor="middle" x="1075" y="-109.8" font-family="Times,serif" font-size="14.00">samples = 2242</text>
<text text-anchor="middle" x="1075" y="-94.8" font-family="Times,serif" font-size="14.00">value = [424, 340, 0, 0, 378, 1100]</text>
<text text-anchor="middle" x="1075" y="-79.8" font-family="Times,serif" font-size="14.00">class = GDL</text>
</g>
<!-- 215&#45;&gt;389 -->
<g id="edge13" class="edge">
<title>215&#45;&gt;389</title>
<path fill="none" stroke="black" d="M967.9,-190.91C981.38,-181.29 995.87,-170.95 1009.69,-161.09"/>
<polygon fill="black" stroke="black" points="1012.09,-163.68 1018.2,-155.02 1008.03,-157.98 1012.09,-163.68"/>
</g>
<!-- 217 -->
<g id="node12" class="node">
<title>217</title>
<polygon fill="#c0c0c0" stroke="black" points="782,-36 728,-36 728,0 782,0 782,-36"/>
<text text-anchor="middle" x="755" y="-14.3" font-family="Times,serif" font-size="14.00">(...)</text>
</g>
<!-- 216&#45;&gt;217 -->
<g id="edge11" class="edge">
<title>216&#45;&gt;217</title>
<path fill="none" stroke="black" d="M775.31,-71.76C771.96,-63.04 768.49,-54.04 765.39,-45.99"/>
<polygon fill="black" stroke="black" points="768.56,-44.48 761.7,-36.41 762.03,-46.99 768.56,-44.48"/>
</g>
<!-- 356 -->
<g id="node13" class="node">
<title>356</title>
<polygon fill="#c0c0c0" stroke="black" points="854,-36 800,-36 800,0 854,0 854,-36"/>
<text text-anchor="middle" x="827" y="-14.3" font-family="Times,serif" font-size="14.00">(...)</text>
</g>
<!-- 216&#45;&gt;356 -->
<g id="edge12" class="edge">
<title>216&#45;&gt;356</title>
<path fill="none" stroke="black" d="M806.69,-71.76C810.04,-63.04 813.51,-54.04 816.61,-45.99"/>
<polygon fill="black" stroke="black" points="819.97,-46.99 820.3,-36.41 813.44,-44.48 819.97,-46.99"/>
</g>
<!-- 390 -->
<g id="node15" class="node">
<title>390</title>
<polygon fill="#c0c0c0" stroke="black" points="1066,-36 1012,-36 1012,0 1066,0 1066,-36"/>
<text text-anchor="middle" x="1039" y="-14.3" font-family="Times,serif" font-size="14.00">(...)</text>
</g>
<!-- 389&#45;&gt;390 -->
<g id="edge14" class="edge">
<title>389&#45;&gt;390</title>
<path fill="none" stroke="black" d="M1059.31,-71.76C1055.96,-63.04 1052.49,-54.04 1049.39,-45.99"/>
<polygon fill="black" stroke="black" points="1052.56,-44.48 1045.7,-36.41 1046.03,-46.99 1052.56,-44.48"/>
</g>
<!-- 503 -->
<g id="node16" class="node">
<title>503</title>
<polygon fill="#c0c0c0" stroke="black" points="1138,-36 1084,-36 1084,0 1138,0 1138,-36"/>
<text text-anchor="middle" x="1111" y="-14.3" font-family="Times,serif" font-size="14.00">(...)</text>
</g>
<!-- 389&#45;&gt;503 -->
<g id="edge15" class="edge">
<title>389&#45;&gt;503</title>
<path fill="none" stroke="black" d="M1090.69,-71.76C1094.04,-63.04 1097.51,-54.04 1100.61,-45.99"/>
<polygon fill="black" stroke="black" points="1103.97,-46.99 1104.3,-36.41 1097.44,-44.48 1103.97,-46.99"/>
</g>
<!-- 563 -->
<g id="node18" class="node">
<title>563</title>
<polygon fill="#bff7d6" stroke="black" points="1663,-274 1361,-274 1361,-191 1663,-191 1663,-274"/>
<text text-anchor="middle" x="1512" y="-258.8" font-family="Times,serif" font-size="14.00">graphSize &lt;= 22.5</text>
<text text-anchor="middle" x="1512" y="-243.8" font-family="Times,serif" font-size="14.00">gini = 0.713</text>
<text text-anchor="middle" x="1512" y="-228.8" font-family="Times,serif" font-size="14.00">samples = 4374</text>
<text text-anchor="middle" x="1512" y="-213.8" font-family="Times,serif" font-size="14.00">value = [394, 630, 2012, 874, 322, 142]</text>
<text text-anchor="middle" x="1512" y="-198.8" font-family="Times,serif" font-size="14.00">class = OLB</text>
</g>
<!-- 562&#45;&gt;563 -->
<g id="edge17" class="edge">
<title>562&#45;&gt;563</title>
<path fill="none" stroke="black" d="M1512,-309.91C1512,-301.65 1512,-292.86 1512,-284.3"/>
<polygon fill="black" stroke="black" points="1515.5,-284.02 1512,-274.02 1508.5,-284.02 1515.5,-284.02"/>
</g>
<!-- 658 -->
<g id="node25" class="node">
<title>658</title>
<polygon fill="#e4fbee" stroke="black" points="2155.5,-274 1826.5,-274 1826.5,-191 2155.5,-191 2155.5,-274"/>
<text text-anchor="middle" x="1991" y="-258.8" font-family="Times,serif" font-size="14.00">sdComp &lt;= 6.5</text>
<text text-anchor="middle" x="1991" y="-243.8" font-family="Times,serif" font-size="14.00">gini = 0.772</text>
<text text-anchor="middle" x="1991" y="-228.8" font-family="Times,serif" font-size="14.00">samples = 8614</text>
<text text-anchor="middle" x="1991" y="-213.8" font-family="Times,serif" font-size="14.00">value = [1416, 2016, 2928, 206, 1290, 758]</text>
<text text-anchor="middle" x="1991" y="-198.8" font-family="Times,serif" font-size="14.00">class = OLB</text>
</g>
<!-- 562&#45;&gt;658 -->
<g id="edge24" class="edge">
<title>562&#45;&gt;658</title>
<path fill="none" stroke="black" d="M1677.85,-309.99C1722.55,-299.07 1771.04,-287.23 1816.22,-276.19"/>
<polygon fill="black" stroke="black" points="1817.22,-279.55 1826.1,-273.78 1815.56,-272.75 1817.22,-279.55"/>
</g>
<!-- 564 -->
<g id="node19" class="node">
<title>564</title>
<polygon fill="#dbfae8" stroke="black" points="1510,-155 1226,-155 1226,-72 1510,-72 1510,-155"/>
<text text-anchor="middle" x="1368" y="-139.8" font-family="Times,serif" font-size="14.00">graphDepth &lt;= 3.5</text>
<text text-anchor="middle" x="1368" y="-124.8" font-family="Times,serif" font-size="14.00">gini = 0.786</text>
<text text-anchor="middle" x="1368" y="-109.8" font-family="Times,serif" font-size="14.00">samples = 1034</text>
<text text-anchor="middle" x="1368" y="-94.8" font-family="Times,serif" font-size="14.00">value = [132, 146, 356, 206, 128, 66]</text>
<text text-anchor="middle" x="1368" y="-79.8" font-family="Times,serif" font-size="14.00">class = OLB</text>
</g>
<!-- 563&#45;&gt;564 -->
<g id="edge18" class="edge">
<title>563&#45;&gt;564</title>
<path fill="none" stroke="black" d="M1462.04,-190.91C1450.31,-181.38 1437.72,-171.15 1425.69,-161.37"/>
<polygon fill="black" stroke="black" points="1427.84,-158.61 1417.87,-155.02 1423.43,-164.04 1427.84,-158.61"/>
</g>
<!-- 587 -->
<g id="node22" class="node">
<title>587</title>
<polygon fill="#b6f5d0" stroke="black" points="1821.5,-155 1528.5,-155 1528.5,-72 1821.5,-72 1821.5,-155"/>
<text text-anchor="middle" x="1675" y="-139.8" font-family="Times,serif" font-size="14.00">graphDepth &lt;= 25.5</text>
<text text-anchor="middle" x="1675" y="-124.8" font-family="Times,serif" font-size="14.00">gini = 0.683</text>
<text text-anchor="middle" x="1675" y="-109.8" font-family="Times,serif" font-size="14.00">samples = 3340</text>
<text text-anchor="middle" x="1675" y="-94.8" font-family="Times,serif" font-size="14.00">value = [262, 484, 1656, 668, 194, 76]</text>
<text text-anchor="middle" x="1675" y="-79.8" font-family="Times,serif" font-size="14.00">class = OLB</text>
</g>
<!-- 563&#45;&gt;587 -->
<g id="edge21" class="edge">
<title>563&#45;&gt;587</title>
<path fill="none" stroke="black" d="M1568.55,-190.91C1581.95,-181.29 1596.35,-170.95 1610.09,-161.09"/>
<polygon fill="black" stroke="black" points="1612.47,-163.7 1618.55,-155.02 1608.38,-158.01 1612.47,-163.7"/>
</g>
<!-- 565 -->
<g id="node20" class="node">
<title>565</title>
<polygon fill="#c0c0c0" stroke="black" points="1359,-36 1305,-36 1305,0 1359,0 1359,-36"/>
<text text-anchor="middle" x="1332" y="-14.3" font-family="Times,serif" font-size="14.00">(...)</text>
</g>
<!-- 564&#45;&gt;565 -->
<g id="edge19" class="edge">
<title>564&#45;&gt;565</title>
<path fill="none" stroke="black" d="M1352.31,-71.76C1348.96,-63.04 1345.49,-54.04 1342.39,-45.99"/>
<polygon fill="black" stroke="black" points="1345.56,-44.48 1338.7,-36.41 1339.03,-46.99 1345.56,-44.48"/>
</g>
<!-- 576 -->
<g id="node21" class="node">
<title>576</title>
<polygon fill="#c0c0c0" stroke="black" points="1431,-36 1377,-36 1377,0 1431,0 1431,-36"/>
<text text-anchor="middle" x="1404" y="-14.3" font-family="Times,serif" font-size="14.00">(...)</text>
</g>
<!-- 564&#45;&gt;576 -->
<g id="edge20" class="edge">
<title>564&#45;&gt;576</title>
<path fill="none" stroke="black" d="M1383.69,-71.76C1387.04,-63.04 1390.51,-54.04 1393.61,-45.99"/>
<polygon fill="black" stroke="black" points="1396.97,-46.99 1397.3,-36.41 1390.44,-44.48 1396.97,-46.99"/>
</g>
<!-- 588 -->
<g id="node23" class="node">
<title>588</title>
<polygon fill="#c0c0c0" stroke="black" points="1666,-36 1612,-36 1612,0 1666,0 1666,-36"/>
<text text-anchor="middle" x="1639" y="-14.3" font-family="Times,serif" font-size="14.00">(...)</text>
</g>
<!-- 587&#45;&gt;588 -->
<g id="edge22" class="edge">
<title>587&#45;&gt;588</title>
<path fill="none" stroke="black" d="M1659.31,-71.76C1655.96,-63.04 1652.49,-54.04 1649.39,-45.99"/>
<polygon fill="black" stroke="black" points="1652.56,-44.48 1645.7,-36.41 1646.03,-46.99 1652.56,-44.48"/>
</g>
<!-- 647 -->
<g id="node24" class="node">
<title>647</title>
<polygon fill="#c0c0c0" stroke="black" points="1738,-36 1684,-36 1684,0 1738,0 1738,-36"/>
<text text-anchor="middle" x="1711" y="-14.3" font-family="Times,serif" font-size="14.00">(...)</text>
</g>
<!-- 587&#45;&gt;647 -->
<g id="edge23" class="edge">
<title>587&#45;&gt;647</title>
<path fill="none" stroke="black" d="M1690.69,-71.76C1694.04,-63.04 1697.51,-54.04 1700.61,-45.99"/>
<polygon fill="black" stroke="black" points="1703.97,-46.99 1704.3,-36.41 1697.44,-44.48 1703.97,-46.99"/>
</g>
<!-- 659 -->
<g id="node26" class="node">
<title>659</title>
<polygon fill="#cbf8de" stroke="black" points="2142,-155 1840,-155 1840,-72 2142,-72 2142,-155"/>
<text text-anchor="middle" x="1991" y="-139.8" font-family="Times,serif" font-size="14.00">graphDepth &lt;= 3.5</text>
<text text-anchor="middle" x="1991" y="-124.8" font-family="Times,serif" font-size="14.00">gini = 0.75</text>
<text text-anchor="middle" x="1991" y="-109.8" font-family="Times,serif" font-size="14.00">samples = 4590</text>
<text text-anchor="middle" x="1991" y="-94.8" font-family="Times,serif" font-size="14.00">value = [748, 882, 1852, 202, 596, 310]</text>
<text text-anchor="middle" x="1991" y="-79.8" font-family="Times,serif" font-size="14.00">class = OLB</text>
</g>
<!-- 658&#45;&gt;659 -->
<g id="edge25" class="edge">
<title>658&#45;&gt;659</title>
<path fill="none" stroke="black" d="M1991,-190.91C1991,-182.65 1991,-173.86 1991,-165.3"/>
<polygon fill="black" stroke="black" points="1994.5,-165.02 1991,-155.02 1987.5,-165.02 1994.5,-165.02"/>
</g>
<!-- 754 -->
<g id="node29" class="node">
<title>754</title>
<polygon fill="#fdfefb" stroke="black" points="2453.5,-155 2160.5,-155 2160.5,-72 2453.5,-72 2453.5,-155"/>
<text text-anchor="middle" x="2307" y="-139.8" font-family="Times,serif" font-size="14.00">graphDepth &lt;= 25.5</text>
<text text-anchor="middle" x="2307" y="-124.8" font-family="Times,serif" font-size="14.00">gini = 0.779</text>
<text text-anchor="middle" x="2307" y="-109.8" font-family="Times,serif" font-size="14.00">samples = 4024</text>
<text text-anchor="middle" x="2307" y="-94.8" font-family="Times,serif" font-size="14.00">value = [668, 1134, 1076, 4, 694, 448]</text>
<text text-anchor="middle" x="2307" y="-79.8" font-family="Times,serif" font-size="14.00">class = BIM*</text>
</g>
<!-- 658&#45;&gt;754 -->
<g id="edge28" class="edge">
<title>658&#45;&gt;754</title>
<path fill="none" stroke="black" d="M2100.63,-190.91C2128.82,-180.47 2159.28,-169.19 2187.92,-158.59"/>
<polygon fill="black" stroke="black" points="2189.4,-161.78 2197.56,-155.02 2186.97,-155.21 2189.4,-161.78"/>
</g>
<!-- 660 -->
<g id="node27" class="node">
<title>660</title>
<polygon fill="#c0c0c0" stroke="black" points="1982,-36 1928,-36 1928,0 1982,0 1982,-36"/>
<text text-anchor="middle" x="1955" y="-14.3" font-family="Times,serif" font-size="14.00">(...)</text>
</g>
<!-- 659&#45;&gt;660 -->
<g id="edge26" class="edge">
<title>659&#45;&gt;660</title>
<path fill="none" stroke="black" d="M1975.31,-71.76C1971.96,-63.04 1968.49,-54.04 1965.39,-45.99"/>
<polygon fill="black" stroke="black" points="1968.56,-44.48 1961.7,-36.41 1962.03,-46.99 1968.56,-44.48"/>
</g>
<!-- 671 -->
<g id="node28" class="node">
<title>671</title>
<polygon fill="#c0c0c0" stroke="black" points="2054,-36 2000,-36 2000,0 2054,0 2054,-36"/>
<text text-anchor="middle" x="2027" y="-14.3" font-family="Times,serif" font-size="14.00">(...)</text>
</g>
<!-- 659&#45;&gt;671 -->
<g id="edge27" class="edge">
<title>659&#45;&gt;671</title>
<path fill="none" stroke="black" d="M2006.69,-71.76C2010.04,-63.04 2013.51,-54.04 2016.61,-45.99"/>
<polygon fill="black" stroke="black" points="2019.97,-46.99 2020.3,-36.41 2013.44,-44.48 2019.97,-46.99"/>
</g>
<!-- 755 -->
<g id="node30" class="node">
<title>755</title>
<polygon fill="#c0c0c0" stroke="black" points="2298,-36 2244,-36 2244,0 2298,0 2298,-36"/>
<text text-anchor="middle" x="2271" y="-14.3" font-family="Times,serif" font-size="14.00">(...)</text>
</g>
<!-- 754&#45;&gt;755 -->
<g id="edge29" class="edge">
<title>754&#45;&gt;755</title>
<path fill="none" stroke="black" d="M2291.31,-71.76C2287.96,-63.04 2284.49,-54.04 2281.39,-45.99"/>
<polygon fill="black" stroke="black" points="2284.56,-44.48 2277.7,-36.41 2278.03,-46.99 2284.56,-44.48"/>
</g>
<!-- 838 -->
<g id="node31" class="node">
<title>838</title>
<polygon fill="#c0c0c0" stroke="black" points="2370,-36 2316,-36 2316,0 2370,0 2370,-36"/>
<text text-anchor="middle" x="2343" y="-14.3" font-family="Times,serif" font-size="14.00">(...)</text>
</g>
<!-- 754&#45;&gt;838 -->
<g id="edge30" class="edge">
<title>754&#45;&gt;838</title>
<path fill="none" stroke="black" d="M2322.69,-71.76C2326.04,-63.04 2329.51,-54.04 2332.61,-45.99"/>
<polygon fill="black" stroke="black" points="2335.97,-46.99 2336.3,-36.41 2329.44,-44.48 2335.97,-46.99"/>
</g>
</g>
</svg>
