<?xml version="1.0" encoding="UTF-8" standalone="no"?>
<!DOCTYPE svg PUBLIC "-//W3C//DTD SVG 1.1//EN"
 "http://www.w3.org/Graphics/SVG/1.1/DTD/svg11.dtd">
<!-- Generated by graphviz version 2.43.0 (0)
 -->
<!-- Title: Tree Pages: 1 -->
<svg width="1703pt" height="520pt"
 viewBox="0.00 0.00 1702.50 520.00" xmlns="http://www.w3.org/2000/svg" xmlns:xlink="http://www.w3.org/1999/xlink">
<g id="graph0" class="graph" transform="scale(1 1) rotate(0) translate(4 516)">
<title>Tree</title>
<polygon fill="white" stroke="transparent" points="-4,4 -4,-516 1698.5,-516 1698.5,4 -4,4"/>
<!-- 0 -->
<g id="node1" class="node">
<title>0</title>
<polygon fill="#f7f3fd" stroke="black" points="968.5,-512 738.5,-512 738.5,-429 968.5,-429 968.5,-512"/>
<text text-anchor="middle" x="853.5" y="-496.8" font-family="Times,serif" font-size="14.00">CCR &lt;= 5.5</text>
<text text-anchor="middle" x="853.5" y="-481.8" font-family="Times,serif" font-size="14.00">gini = 0.639</text>
<text text-anchor="middle" x="853.5" y="-466.8" font-family="Times,serif" font-size="14.00">samples = 32332</text>
<text text-anchor="middle" x="853.5" y="-451.8" font-family="Times,serif" font-size="14.00">value = [6425, 12326, 13581]</text>
<text text-anchor="middle" x="853.5" y="-436.8" font-family="Times,serif" font-size="14.00">class = None</text>
</g>
<!-- 1 -->
<g id="node2" class="node">
<title>1</title>
<polygon fill="#aff4cc" stroke="black" points="752,-393 531,-393 531,-310 752,-310 752,-393"/>
<text text-anchor="middle" x="641.5" y="-377.8" font-family="Times,serif" font-size="14.00">graphDepth &lt;= 6.5</text>
<text text-anchor="middle" x="641.5" y="-362.8" font-family="Times,serif" font-size="14.00">gini = 0.566</text>
<text text-anchor="middle" x="641.5" y="-347.8" font-family="Times,serif" font-size="14.00">samples = 19344</text>
<text text-anchor="middle" x="641.5" y="-332.8" font-family="Times,serif" font-size="14.00">value = [5577, 11158, 2609]</text>
<text text-anchor="middle" x="641.5" y="-317.8" font-family="Times,serif" font-size="14.00">class = DCP</text>
</g>
<!-- 0&#45;&gt;1 -->
<g id="edge1" class="edge">
<title>0&#45;&gt;1</title>
<path fill="none" stroke="black" d="M779.95,-428.91C761.86,-418.92 742.38,-408.17 723.9,-397.98"/>
<polygon fill="black" stroke="black" points="725.37,-394.79 714.92,-393.02 721.99,-400.92 725.37,-394.79"/>
<text text-anchor="middle" x="721.86" y="-413.34" font-family="Times,serif" font-size="14.00">True</text>
</g>
<!-- 556 -->
<g id="node17" class="node">
<title>556</title>
<polygon fill="#965be9" stroke="black" points="1180.5,-393 968.5,-393 968.5,-310 1180.5,-310 1180.5,-393"/>
<text text-anchor="middle" x="1074.5" y="-377.8" font-family="Times,serif" font-size="14.00">sdComp &lt;= 6.5</text>
<text text-anchor="middle" x="1074.5" y="-362.8" font-family="Times,serif" font-size="14.00">gini = 0.274</text>
<text text-anchor="middle" x="1074.5" y="-347.8" font-family="Times,serif" font-size="14.00">samples = 12988</text>
<text text-anchor="middle" x="1074.5" y="-332.8" font-family="Times,serif" font-size="14.00">value = [848, 1168, 10972]</text>
<text text-anchor="middle" x="1074.5" y="-317.8" font-family="Times,serif" font-size="14.00">class = None</text>
</g>
<!-- 0&#45;&gt;556 -->
<g id="edge16" class="edge">
<title>0&#45;&gt;556</title>
<path fill="none" stroke="black" d="M930.17,-428.91C949.12,-418.88 969.53,-408.07 988.86,-397.84"/>
<polygon fill="black" stroke="black" points="990.76,-400.79 997.96,-393.02 987.49,-394.61 990.76,-400.79"/>
<text text-anchor="middle" x="990.61" y="-413.22" font-family="Times,serif" font-size="14.00">False</text>
</g>
<!-- 2 -->
<g id="node3" class="node">
<title>2</title>
<polygon fill="#c3f7d9" stroke="black" points="432.5,-274 220.5,-274 220.5,-191 432.5,-191 432.5,-274"/>
<text text-anchor="middle" x="326.5" y="-258.8" font-family="Times,serif" font-size="14.00">sdComm &lt;= 0.02</text>
<text text-anchor="middle" x="326.5" y="-243.8" font-family="Times,serif" font-size="14.00">gini = 0.586</text>
<text text-anchor="middle" x="326.5" y="-228.8" font-family="Times,serif" font-size="14.00">samples = 13752</text>
<text text-anchor="middle" x="326.5" y="-213.8" font-family="Times,serif" font-size="14.00">value = [4581, 7350, 1821]</text>
<text text-anchor="middle" x="326.5" y="-198.8" font-family="Times,serif" font-size="14.00">class = DCP</text>
</g>
<!-- 1&#45;&gt;2 -->
<g id="edge2" class="edge">
<title>1&#45;&gt;2</title>
<path fill="none" stroke="black" d="M532.21,-309.91C503.11,-299.1 471.58,-287.39 442.15,-276.45"/>
<polygon fill="black" stroke="black" points="443.26,-273.14 432.67,-272.94 440.83,-279.7 443.26,-273.14"/>
</g>
<!-- 217 -->
<g id="node10" class="node">
<title>217</title>
<polygon fill="#86efb2" stroke="black" points="738.5,-274 544.5,-274 544.5,-191 738.5,-191 738.5,-274"/>
<text text-anchor="middle" x="641.5" y="-258.8" font-family="Times,serif" font-size="14.00">sdComp &lt;= 0.2</text>
<text text-anchor="middle" x="641.5" y="-243.8" font-family="Times,serif" font-size="14.00">gini = 0.485</text>
<text text-anchor="middle" x="641.5" y="-228.8" font-family="Times,serif" font-size="14.00">samples = 5592</text>
<text text-anchor="middle" x="641.5" y="-213.8" font-family="Times,serif" font-size="14.00">value = [996, 3808, 788]</text>
<text text-anchor="middle" x="641.5" y="-198.8" font-family="Times,serif" font-size="14.00">class = DCP</text>
</g>
<!-- 1&#45;&gt;217 -->
<g id="edge9" class="edge">
<title>1&#45;&gt;217</title>
<path fill="none" stroke="black" d="M641.5,-309.91C641.5,-301.65 641.5,-292.86 641.5,-284.3"/>
<polygon fill="black" stroke="black" points="645,-284.02 641.5,-274.02 638,-284.02 645,-284.02"/>
</g>
<!-- 3 -->
<g id="node4" class="node">
<title>3</title>
<polygon fill="#f4fef8" stroke="black" points="203,-155 0,-155 0,-72 203,-72 203,-155"/>
<text text-anchor="middle" x="101.5" y="-139.8" font-family="Times,serif" font-size="14.00">sdComp &lt;= 0.02</text>
<text text-anchor="middle" x="101.5" y="-124.8" font-family="Times,serif" font-size="14.00">gini = 0.574</text>
<text text-anchor="middle" x="101.5" y="-109.8" font-family="Times,serif" font-size="14.00">samples = 3092</text>
<text text-anchor="middle" x="101.5" y="-94.8" font-family="Times,serif" font-size="14.00">value = [1364, 1462, 266]</text>
<text text-anchor="middle" x="101.5" y="-79.8" font-family="Times,serif" font-size="14.00">class = DCP</text>
</g>
<!-- 2&#45;&gt;3 -->
<g id="edge3" class="edge">
<title>2&#45;&gt;3</title>
<path fill="none" stroke="black" d="M248.44,-190.91C229.07,-180.83 208.19,-169.98 188.42,-159.7"/>
<polygon fill="black" stroke="black" points="189.91,-156.53 179.42,-155.02 186.68,-162.74 189.91,-156.53"/>
</g>
<!-- 38 -->
<g id="node7" class="node">
<title>38</title>
<polygon fill="#b8f6d2" stroke="black" points="432.5,-155 220.5,-155 220.5,-72 432.5,-72 432.5,-155"/>
<text text-anchor="middle" x="326.5" y="-139.8" font-family="Times,serif" font-size="14.00">graphDepth &lt;= 3.5</text>
<text text-anchor="middle" x="326.5" y="-124.8" font-family="Times,serif" font-size="14.00">gini = 0.583</text>
<text text-anchor="middle" x="326.5" y="-109.8" font-family="Times,serif" font-size="14.00">samples = 10660</text>
<text text-anchor="middle" x="326.5" y="-94.8" font-family="Times,serif" font-size="14.00">value = [3217, 5888, 1555]</text>
<text text-anchor="middle" x="326.5" y="-79.8" font-family="Times,serif" font-size="14.00">class = DCP</text>
</g>
<!-- 2&#45;&gt;38 -->
<g id="edge6" class="edge">
<title>2&#45;&gt;38</title>
<path fill="none" stroke="black" d="M326.5,-190.91C326.5,-182.65 326.5,-173.86 326.5,-165.3"/>
<polygon fill="black" stroke="black" points="330,-165.02 326.5,-155.02 323,-165.02 330,-165.02"/>
</g>
<!-- 4 -->
<g id="node5" class="node">
<title>4</title>
<polygon fill="#c0c0c0" stroke="black" points="92.5,-36 38.5,-36 38.5,0 92.5,0 92.5,-36"/>
<text text-anchor="middle" x="65.5" y="-14.3" font-family="Times,serif" font-size="14.00">(...)</text>
</g>
<!-- 3&#45;&gt;4 -->
<g id="edge4" class="edge">
<title>3&#45;&gt;4</title>
<path fill="none" stroke="black" d="M85.81,-71.76C82.46,-63.04 78.99,-54.04 75.89,-45.99"/>
<polygon fill="black" stroke="black" points="79.06,-44.48 72.2,-36.41 72.53,-46.99 79.06,-44.48"/>
</g>
<!-- 15 -->
<g id="node6" class="node">
<title>15</title>
<polygon fill="#c0c0c0" stroke="black" points="164.5,-36 110.5,-36 110.5,0 164.5,0 164.5,-36"/>
<text text-anchor="middle" x="137.5" y="-14.3" font-family="Times,serif" font-size="14.00">(...)</text>
</g>
<!-- 3&#45;&gt;15 -->
<g id="edge5" class="edge">
<title>3&#45;&gt;15</title>
<path fill="none" stroke="black" d="M117.19,-71.76C120.54,-63.04 124.01,-54.04 127.11,-45.99"/>
<polygon fill="black" stroke="black" points="130.47,-46.99 130.8,-36.41 123.94,-44.48 130.47,-46.99"/>
</g>
<!-- 39 -->
<g id="node8" class="node">
<title>39</title>
<polygon fill="#c0c0c0" stroke="black" points="317.5,-36 263.5,-36 263.5,0 317.5,0 317.5,-36"/>
<text text-anchor="middle" x="290.5" y="-14.3" font-family="Times,serif" font-size="14.00">(...)</text>
</g>
<!-- 38&#45;&gt;39 -->
<g id="edge7" class="edge">
<title>38&#45;&gt;39</title>
<path fill="none" stroke="black" d="M310.81,-71.76C307.46,-63.04 303.99,-54.04 300.89,-45.99"/>
<polygon fill="black" stroke="black" points="304.06,-44.48 297.2,-36.41 297.53,-46.99 304.06,-44.48"/>
</g>
<!-- 98 -->
<g id="node9" class="node">
<title>98</title>
<polygon fill="#c0c0c0" stroke="black" points="389.5,-36 335.5,-36 335.5,0 389.5,0 389.5,-36"/>
<text text-anchor="middle" x="362.5" y="-14.3" font-family="Times,serif" font-size="14.00">(...)</text>
</g>
<!-- 38&#45;&gt;98 -->
<g id="edge8" class="edge">
<title>38&#45;&gt;98</title>
<path fill="none" stroke="black" d="M342.19,-71.76C345.54,-63.04 349.01,-54.04 352.11,-45.99"/>
<polygon fill="black" stroke="black" points="355.47,-46.99 355.8,-36.41 348.94,-44.48 355.47,-46.99"/>
</g>
<!-- 218 -->
<g id="node11" class="node">
<title>218</title>
<polygon fill="#8ff0b8" stroke="black" points="644.5,-155 450.5,-155 450.5,-72 644.5,-72 644.5,-155"/>
<text text-anchor="middle" x="547.5" y="-139.8" font-family="Times,serif" font-size="14.00">CCR &lt;= 0.55</text>
<text text-anchor="middle" x="547.5" y="-124.8" font-family="Times,serif" font-size="14.00">gini = 0.503</text>
<text text-anchor="middle" x="547.5" y="-109.8" font-family="Times,serif" font-size="14.00">samples = 4082</text>
<text text-anchor="middle" x="547.5" y="-94.8" font-family="Times,serif" font-size="14.00">value = [872, 2692, 518]</text>
<text text-anchor="middle" x="547.5" y="-79.8" font-family="Times,serif" font-size="14.00">class = DCP</text>
</g>
<!-- 217&#45;&gt;218 -->
<g id="edge10" class="edge">
<title>217&#45;&gt;218</title>
<path fill="none" stroke="black" d="M608.89,-190.91C601.67,-181.92 593.95,-172.32 586.51,-163.05"/>
<polygon fill="black" stroke="black" points="589.05,-160.62 580.06,-155.02 583.59,-165.01 589.05,-160.62"/>
</g>
<!-- 449 -->
<g id="node14" class="node">
<title>449</title>
<polygon fill="#78eda9" stroke="black" points="856.5,-155 662.5,-155 662.5,-72 856.5,-72 856.5,-155"/>
<text text-anchor="middle" x="759.5" y="-139.8" font-family="Times,serif" font-size="14.00">sdComm &lt;= 0.65</text>
<text text-anchor="middle" x="759.5" y="-124.8" font-family="Times,serif" font-size="14.00">gini = 0.415</text>
<text text-anchor="middle" x="759.5" y="-109.8" font-family="Times,serif" font-size="14.00">samples = 1510</text>
<text text-anchor="middle" x="759.5" y="-94.8" font-family="Times,serif" font-size="14.00">value = [124, 1116, 270]</text>
<text text-anchor="middle" x="759.5" y="-79.8" font-family="Times,serif" font-size="14.00">class = DCP</text>
</g>
<!-- 217&#45;&gt;449 -->
<g id="edge13" class="edge">
<title>217&#45;&gt;449</title>
<path fill="none" stroke="black" d="M682.44,-190.91C691.78,-181.65 701.78,-171.73 711.38,-162.21"/>
<polygon fill="black" stroke="black" points="714,-164.55 718.63,-155.02 709.07,-159.58 714,-164.55"/>
</g>
<!-- 219 -->
<g id="node12" class="node">
<title>219</title>
<polygon fill="#c0c0c0" stroke="black" points="536.5,-36 482.5,-36 482.5,0 536.5,0 536.5,-36"/>
<text text-anchor="middle" x="509.5" y="-14.3" font-family="Times,serif" font-size="14.00">(...)</text>
</g>
<!-- 218&#45;&gt;219 -->
<g id="edge11" class="edge">
<title>218&#45;&gt;219</title>
<path fill="none" stroke="black" d="M530.94,-71.76C527.36,-62.94 523.66,-53.84 520.36,-45.72"/>
<polygon fill="black" stroke="black" points="523.58,-44.35 516.57,-36.41 517.1,-46.99 523.58,-44.35"/>
</g>
<!-- 390 -->
<g id="node13" class="node">
<title>390</title>
<polygon fill="#c0c0c0" stroke="black" points="608.5,-36 554.5,-36 554.5,0 608.5,0 608.5,-36"/>
<text text-anchor="middle" x="581.5" y="-14.3" font-family="Times,serif" font-size="14.00">(...)</text>
</g>
<!-- 218&#45;&gt;390 -->
<g id="edge12" class="edge">
<title>218&#45;&gt;390</title>
<path fill="none" stroke="black" d="M562.31,-71.76C565.48,-63.04 568.76,-54.04 571.68,-45.99"/>
<polygon fill="black" stroke="black" points="575.04,-47 575.17,-36.41 568.46,-44.61 575.04,-47"/>
</g>
<!-- 450 -->
<g id="node15" class="node">
<title>450</title>
<polygon fill="#c0c0c0" stroke="black" points="748.5,-36 694.5,-36 694.5,0 748.5,0 748.5,-36"/>
<text text-anchor="middle" x="721.5" y="-14.3" font-family="Times,serif" font-size="14.00">(...)</text>
</g>
<!-- 449&#45;&gt;450 -->
<g id="edge14" class="edge">
<title>449&#45;&gt;450</title>
<path fill="none" stroke="black" d="M742.94,-71.76C739.36,-62.94 735.66,-53.84 732.36,-45.72"/>
<polygon fill="black" stroke="black" points="735.58,-44.35 728.57,-36.41 729.1,-46.99 735.58,-44.35"/>
</g>
<!-- 519 -->
<g id="node16" class="node">
<title>519</title>
<polygon fill="#c0c0c0" stroke="black" points="820.5,-36 766.5,-36 766.5,0 820.5,0 820.5,-36"/>
<text text-anchor="middle" x="793.5" y="-14.3" font-family="Times,serif" font-size="14.00">(...)</text>
</g>
<!-- 449&#45;&gt;519 -->
<g id="edge15" class="edge">
<title>449&#45;&gt;519</title>
<path fill="none" stroke="black" d="M774.31,-71.76C777.48,-63.04 780.76,-54.04 783.68,-45.99"/>
<polygon fill="black" stroke="black" points="787.04,-47 787.17,-36.41 780.46,-44.61 787.04,-47"/>
</g>
<!-- 557 -->
<g id="node18" class="node">
<title>557</title>
<polygon fill="#9152e8" stroke="black" points="1171.5,-274 977.5,-274 977.5,-191 1171.5,-191 1171.5,-274"/>
<text text-anchor="middle" x="1074.5" y="-258.8" font-family="Times,serif" font-size="14.00">sdComm &lt;= 2.0</text>
<text text-anchor="middle" x="1074.5" y="-243.8" font-family="Times,serif" font-size="14.00">gini = 0.214</text>
<text text-anchor="middle" x="1074.5" y="-228.8" font-family="Times,serif" font-size="14.00">samples = 8964</text>
<text text-anchor="middle" x="1074.5" y="-213.8" font-family="Times,serif" font-size="14.00">value = [354, 704, 7906]</text>
<text text-anchor="middle" x="1074.5" y="-198.8" font-family="Times,serif" font-size="14.00">class = None</text>
</g>
<!-- 556&#45;&gt;557 -->
<g id="edge17" class="edge">
<title>556&#45;&gt;557</title>
<path fill="none" stroke="black" d="M1074.5,-309.91C1074.5,-301.65 1074.5,-292.86 1074.5,-284.3"/>
<polygon fill="black" stroke="black" points="1078,-284.02 1074.5,-274.02 1071,-284.02 1078,-284.02"/>
</g>
<!-- 688 -->
<g id="node25" class="node">
<title>688</title>
<polygon fill="#a36fec" stroke="black" points="1487.5,-274 1293.5,-274 1293.5,-191 1487.5,-191 1487.5,-274"/>
<text text-anchor="middle" x="1390.5" y="-258.8" font-family="Times,serif" font-size="14.00">graphSize &lt;= 22.5</text>
<text text-anchor="middle" x="1390.5" y="-243.8" font-family="Times,serif" font-size="14.00">gini = 0.391</text>
<text text-anchor="middle" x="1390.5" y="-228.8" font-family="Times,serif" font-size="14.00">samples = 4024</text>
<text text-anchor="middle" x="1390.5" y="-213.8" font-family="Times,serif" font-size="14.00">value = [494, 464, 3066]</text>
<text text-anchor="middle" x="1390.5" y="-198.8" font-family="Times,serif" font-size="14.00">class = None</text>
</g>
<!-- 556&#45;&gt;688 -->
<g id="edge24" class="edge">
<title>556&#45;&gt;688</title>
<path fill="none" stroke="black" d="M1180.6,-311.22C1213.81,-298.92 1250.46,-285.35 1283.72,-273.04"/>
<polygon fill="black" stroke="black" points="1285.3,-276.18 1293.46,-269.43 1282.87,-269.62 1285.3,-276.18"/>
</g>
<!-- 558 -->
<g id="node19" class="node">
<title>558</title>
<polygon fill="#9b61ea" stroke="black" points="1068.5,-155 874.5,-155 874.5,-72 1068.5,-72 1068.5,-155"/>
<text text-anchor="middle" x="971.5" y="-139.8" font-family="Times,serif" font-size="14.00">graphDepth &lt;= 9.0</text>
<text text-anchor="middle" x="971.5" y="-124.8" font-family="Times,serif" font-size="14.00">gini = 0.306</text>
<text text-anchor="middle" x="971.5" y="-109.8" font-family="Times,serif" font-size="14.00">samples = 2850</text>
<text text-anchor="middle" x="971.5" y="-94.8" font-family="Times,serif" font-size="14.00">value = [152, 356, 2342]</text>
<text text-anchor="middle" x="971.5" y="-79.8" font-family="Times,serif" font-size="14.00">class = None</text>
</g>
<!-- 557&#45;&gt;558 -->
<g id="edge18" class="edge">
<title>557&#45;&gt;558</title>
<path fill="none" stroke="black" d="M1038.76,-190.91C1030.78,-181.83 1022.23,-172.12 1013.99,-162.77"/>
<polygon fill="black" stroke="black" points="1016.41,-160.21 1007.17,-155.02 1011.15,-164.84 1016.41,-160.21"/>
</g>
<!-- 599 -->
<g id="node22" class="node">
<title>599</title>
<polygon fill="#8d4ce7" stroke="black" points="1280.5,-155 1086.5,-155 1086.5,-72 1280.5,-72 1280.5,-155"/>
<text text-anchor="middle" x="1183.5" y="-139.8" font-family="Times,serif" font-size="14.00">graphDepth &lt;= 9.0</text>
<text text-anchor="middle" x="1183.5" y="-124.8" font-family="Times,serif" font-size="14.00">gini = 0.167</text>
<text text-anchor="middle" x="1183.5" y="-109.8" font-family="Times,serif" font-size="14.00">samples = 6114</text>
<text text-anchor="middle" x="1183.5" y="-94.8" font-family="Times,serif" font-size="14.00">value = [202, 348, 5564]</text>
<text text-anchor="middle" x="1183.5" y="-79.8" font-family="Times,serif" font-size="14.00">class = None</text>
</g>
<!-- 557&#45;&gt;599 -->
<g id="edge21" class="edge">
<title>557&#45;&gt;599</title>
<path fill="none" stroke="black" d="M1112.32,-190.91C1120.86,-181.74 1130,-171.93 1138.79,-162.49"/>
<polygon fill="black" stroke="black" points="1141.49,-164.72 1145.75,-155.02 1136.37,-159.95 1141.49,-164.72"/>
</g>
<!-- 559 -->
<g id="node20" class="node">
<title>559</title>
<polygon fill="#c0c0c0" stroke="black" points="960.5,-36 906.5,-36 906.5,0 960.5,0 960.5,-36"/>
<text text-anchor="middle" x="933.5" y="-14.3" font-family="Times,serif" font-size="14.00">(...)</text>
</g>
<!-- 558&#45;&gt;559 -->
<g id="edge19" class="edge">
<title>558&#45;&gt;559</title>
<path fill="none" stroke="black" d="M954.94,-71.76C951.36,-62.94 947.66,-53.84 944.36,-45.72"/>
<polygon fill="black" stroke="black" points="947.58,-44.35 940.57,-36.41 941.1,-46.99 947.58,-44.35"/>
</g>
<!-- 574 -->
<g id="node21" class="node">
<title>574</title>
<polygon fill="#c0c0c0" stroke="black" points="1032.5,-36 978.5,-36 978.5,0 1032.5,0 1032.5,-36"/>
<text text-anchor="middle" x="1005.5" y="-14.3" font-family="Times,serif" font-size="14.00">(...)</text>
</g>
<!-- 558&#45;&gt;574 -->
<g id="edge20" class="edge">
<title>558&#45;&gt;574</title>
<path fill="none" stroke="black" d="M986.31,-71.76C989.48,-63.04 992.76,-54.04 995.68,-45.99"/>
<polygon fill="black" stroke="black" points="999.04,-47 999.17,-36.41 992.46,-44.61 999.04,-47"/>
</g>
<!-- 600 -->
<g id="node23" class="node">
<title>600</title>
<polygon fill="#c0c0c0" stroke="black" points="1169.5,-36 1115.5,-36 1115.5,0 1169.5,0 1169.5,-36"/>
<text text-anchor="middle" x="1142.5" y="-14.3" font-family="Times,serif" font-size="14.00">(...)</text>
</g>
<!-- 599&#45;&gt;600 -->
<g id="edge22" class="edge">
<title>599&#45;&gt;600</title>
<path fill="none" stroke="black" d="M1165.64,-71.76C1161.77,-62.94 1157.78,-53.84 1154.22,-45.72"/>
<polygon fill="black" stroke="black" points="1157.35,-44.16 1150.13,-36.41 1150.94,-46.97 1157.35,-44.16"/>
</g>
<!-- 641 -->
<g id="node24" class="node">
<title>641</title>
<polygon fill="#c0c0c0" stroke="black" points="1241.5,-36 1187.5,-36 1187.5,0 1241.5,0 1241.5,-36"/>
<text text-anchor="middle" x="1214.5" y="-14.3" font-family="Times,serif" font-size="14.00">(...)</text>
</g>
<!-- 599&#45;&gt;641 -->
<g id="edge23" class="edge">
<title>599&#45;&gt;641</title>
<path fill="none" stroke="black" d="M1197.01,-71.76C1199.9,-63.04 1202.88,-54.04 1205.55,-45.99"/>
<polygon fill="black" stroke="black" points="1208.9,-47 1208.73,-36.41 1202.26,-44.8 1208.9,-47"/>
</g>
<!-- 689 -->
<g id="node26" class="node">
<title>689</title>
<polygon fill="#b488ef" stroke="black" points="1483,-155 1298,-155 1298,-72 1483,-72 1483,-155"/>
<text text-anchor="middle" x="1390.5" y="-139.8" font-family="Times,serif" font-size="14.00">sdComm &lt;= 2.0</text>
<text text-anchor="middle" x="1390.5" y="-124.8" font-family="Times,serif" font-size="14.00">gini = 0.5</text>
<text text-anchor="middle" x="1390.5" y="-109.8" font-family="Times,serif" font-size="14.00">samples = 1456</text>
<text text-anchor="middle" x="1390.5" y="-94.8" font-family="Times,serif" font-size="14.00">value = [242, 244, 970]</text>
<text text-anchor="middle" x="1390.5" y="-79.8" font-family="Times,serif" font-size="14.00">class = None</text>
</g>
<!-- 688&#45;&gt;689 -->
<g id="edge25" class="edge">
<title>688&#45;&gt;689</title>
<path fill="none" stroke="black" d="M1390.5,-190.91C1390.5,-182.65 1390.5,-173.86 1390.5,-165.3"/>
<polygon fill="black" stroke="black" points="1394,-165.02 1390.5,-155.02 1387,-165.02 1394,-165.02"/>
</g>
<!-- 712 -->
<g id="node29" class="node">
<title>712</title>
<polygon fill="#9b61ea" stroke="black" points="1694.5,-155 1500.5,-155 1500.5,-72 1694.5,-72 1694.5,-155"/>
<text text-anchor="middle" x="1597.5" y="-139.8" font-family="Times,serif" font-size="14.00">graphDepth &lt;= 9.0</text>
<text text-anchor="middle" x="1597.5" y="-124.8" font-family="Times,serif" font-size="14.00">gini = 0.317</text>
<text text-anchor="middle" x="1597.5" y="-109.8" font-family="Times,serif" font-size="14.00">samples = 2568</text>
<text text-anchor="middle" x="1597.5" y="-94.8" font-family="Times,serif" font-size="14.00">value = [252, 220, 2096]</text>
<text text-anchor="middle" x="1597.5" y="-79.8" font-family="Times,serif" font-size="14.00">class = None</text>
</g>
<!-- 688&#45;&gt;712 -->
<g id="edge28" class="edge">
<title>688&#45;&gt;712</title>
<path fill="none" stroke="black" d="M1462.32,-190.91C1479.98,-180.92 1499,-170.17 1517.04,-159.98"/>
<polygon fill="black" stroke="black" points="1518.83,-162.99 1525.81,-155.02 1515.38,-156.89 1518.83,-162.99"/>
</g>
<!-- 690 -->
<g id="node27" class="node">
<title>690</title>
<polygon fill="#c0c0c0" stroke="black" points="1381.5,-36 1327.5,-36 1327.5,0 1381.5,0 1381.5,-36"/>
<text text-anchor="middle" x="1354.5" y="-14.3" font-family="Times,serif" font-size="14.00">(...)</text>
</g>
<!-- 689&#45;&gt;690 -->
<g id="edge26" class="edge">
<title>689&#45;&gt;690</title>
<path fill="none" stroke="black" d="M1374.81,-71.76C1371.46,-63.04 1367.99,-54.04 1364.89,-45.99"/>
<polygon fill="black" stroke="black" points="1368.06,-44.48 1361.2,-36.41 1361.53,-46.99 1368.06,-44.48"/>
</g>
<!-- 697 -->
<g id="node28" class="node">
<title>697</title>
<polygon fill="#c0c0c0" stroke="black" points="1453.5,-36 1399.5,-36 1399.5,0 1453.5,0 1453.5,-36"/>
<text text-anchor="middle" x="1426.5" y="-14.3" font-family="Times,serif" font-size="14.00">(...)</text>
</g>
<!-- 689&#45;&gt;697 -->
<g id="edge27" class="edge">
<title>689&#45;&gt;697</title>
<path fill="none" stroke="black" d="M1406.19,-71.76C1409.54,-63.04 1413.01,-54.04 1416.11,-45.99"/>
<polygon fill="black" stroke="black" points="1419.47,-46.99 1419.8,-36.41 1412.94,-44.48 1419.47,-46.99"/>
</g>
<!-- 713 -->
<g id="node30" class="node">
<title>713</title>
<polygon fill="#c0c0c0" stroke="black" points="1588.5,-36 1534.5,-36 1534.5,0 1588.5,0 1588.5,-36"/>
<text text-anchor="middle" x="1561.5" y="-14.3" font-family="Times,serif" font-size="14.00">(...)</text>
</g>
<!-- 712&#45;&gt;713 -->
<g id="edge29" class="edge">
<title>712&#45;&gt;713</title>
<path fill="none" stroke="black" d="M1581.81,-71.76C1578.46,-63.04 1574.99,-54.04 1571.89,-45.99"/>
<polygon fill="black" stroke="black" points="1575.06,-44.48 1568.2,-36.41 1568.53,-46.99 1575.06,-44.48"/>
</g>
<!-- 734 -->
<g id="node31" class="node">
<title>734</title>
<polygon fill="#c0c0c0" stroke="black" points="1660.5,-36 1606.5,-36 1606.5,0 1660.5,0 1660.5,-36"/>
<text text-anchor="middle" x="1633.5" y="-14.3" font-family="Times,serif" font-size="14.00">(...)</text>
</g>
<!-- 712&#45;&gt;734 -->
<g id="edge30" class="edge">
<title>712&#45;&gt;734</title>
<path fill="none" stroke="black" d="M1613.19,-71.76C1616.54,-63.04 1620.01,-54.04 1623.11,-45.99"/>
<polygon fill="black" stroke="black" points="1626.47,-46.99 1626.8,-36.41 1619.94,-44.48 1626.47,-46.99"/>
</g>
</g>
</svg>
