<?xml version="1.0" encoding="UTF-8" standalone="no"?>
<!DOCTYPE svg PUBLIC "-//W3C//DTD SVG 1.1//EN"
 "http://www.w3.org/Graphics/SVG/1.1/DTD/svg11.dtd">
<!-- Generated by graphviz version 2.43.0 (0)
 -->
<!-- Title: Tree Pages: 1 -->
<svg width="1418pt" height="520pt"
 viewBox="0.00 0.00 1418.00 520.00" xmlns="http://www.w3.org/2000/svg" xmlns:xlink="http://www.w3.org/1999/xlink">
<g id="graph0" class="graph" transform="scale(1 1) rotate(0) translate(4 516)">
<title>Tree</title>
<polygon fill="white" stroke="transparent" points="-4,4 -4,-516 1414,-516 1414,4 -4,4"/>
<!-- 0 -->
<g id="node1" class="node">
<title>0</title>
<polygon fill="#a1d0f3" stroke="black" points="801.5,-512 616.5,-512 616.5,-429 801.5,-429 801.5,-512"/>
<text text-anchor="middle" x="709" y="-496.8" font-family="Times,serif" font-size="14.00">sdComp &lt;= 0.65</text>
<text text-anchor="middle" x="709" y="-481.8" font-family="Times,serif" font-size="14.00">gini = 0.451</text>
<text text-anchor="middle" x="709" y="-466.8" font-family="Times,serif" font-size="14.00">samples = 32332</text>
<text text-anchor="middle" x="709" y="-451.8" font-family="Times,serif" font-size="14.00">value = [11123, 21209]</text>
<text text-anchor="middle" x="709" y="-436.8" font-family="Times,serif" font-size="14.00">class = True</text>
</g>
<!-- 1 -->
<g id="node2" class="node">
<title>1</title>
<polygon fill="#cee7f9" stroke="black" points="610.5,-393 443.5,-393 443.5,-310 610.5,-310 610.5,-393"/>
<text text-anchor="middle" x="527" y="-377.8" font-family="Times,serif" font-size="14.00">nbproc &lt;= 4.5</text>
<text text-anchor="middle" x="527" y="-362.8" font-family="Times,serif" font-size="14.00">gini = 0.49</text>
<text text-anchor="middle" x="527" y="-347.8" font-family="Times,serif" font-size="14.00">samples = 16893</text>
<text text-anchor="middle" x="527" y="-332.8" font-family="Times,serif" font-size="14.00">value = [7240, 9653]</text>
<text text-anchor="middle" x="527" y="-317.8" font-family="Times,serif" font-size="14.00">class = True</text>
</g>
<!-- 0&#45;&gt;1 -->
<g id="edge1" class="edge">
<title>0&#45;&gt;1</title>
<path fill="none" stroke="black" d="M645.86,-428.91C630.61,-419.11 614.21,-408.56 598.61,-398.53"/>
<polygon fill="black" stroke="black" points="600.34,-395.48 590.03,-393.02 596.55,-401.37 600.34,-395.48"/>
<text text-anchor="middle" x="595.34" y="-413.75" font-family="Times,serif" font-size="14.00">True</text>
</g>
<!-- 460 -->
<g id="node17" class="node">
<title>460</title>
<polygon fill="#7cbeee" stroke="black" points="977,-393 801,-393 801,-310 977,-310 977,-393"/>
<text text-anchor="middle" x="889" y="-377.8" font-family="Times,serif" font-size="14.00">sdComp &lt;= 6.5</text>
<text text-anchor="middle" x="889" y="-362.8" font-family="Times,serif" font-size="14.00">gini = 0.377</text>
<text text-anchor="middle" x="889" y="-347.8" font-family="Times,serif" font-size="14.00">samples = 15439</text>
<text text-anchor="middle" x="889" y="-332.8" font-family="Times,serif" font-size="14.00">value = [3883, 11556]</text>
<text text-anchor="middle" x="889" y="-317.8" font-family="Times,serif" font-size="14.00">class = True</text>
</g>
<!-- 0&#45;&gt;460 -->
<g id="edge16" class="edge">
<title>0&#45;&gt;460</title>
<path fill="none" stroke="black" d="M771.45,-428.91C786.53,-419.11 802.75,-408.56 818.18,-398.53"/>
<polygon fill="black" stroke="black" points="820.18,-401.41 826.66,-393.02 816.37,-395.54 820.18,-401.41"/>
<text text-anchor="middle" x="821.47" y="-413.78" font-family="Times,serif" font-size="14.00">False</text>
</g>
<!-- 2 -->
<g id="node3" class="node">
<title>2</title>
<polygon fill="#b1d8f5" stroke="black" points="337.5,-274 170.5,-274 170.5,-191 337.5,-191 337.5,-274"/>
<text text-anchor="middle" x="254" y="-258.8" font-family="Times,serif" font-size="14.00">graphDepth &lt;= 3.5</text>
<text text-anchor="middle" x="254" y="-243.8" font-family="Times,serif" font-size="14.00">gini = 0.469</text>
<text text-anchor="middle" x="254" y="-228.8" font-family="Times,serif" font-size="14.00">samples = 5419</text>
<text text-anchor="middle" x="254" y="-213.8" font-family="Times,serif" font-size="14.00">value = [2040, 3379]</text>
<text text-anchor="middle" x="254" y="-198.8" font-family="Times,serif" font-size="14.00">class = True</text>
</g>
<!-- 1&#45;&gt;2 -->
<g id="edge2" class="edge">
<title>1&#45;&gt;2</title>
<path fill="none" stroke="black" d="M443.24,-314.6C412.84,-301.57 378.32,-286.78 347.16,-273.43"/>
<polygon fill="black" stroke="black" points="348.18,-270.05 337.61,-269.33 345.42,-276.49 348.18,-270.05"/>
</g>
<!-- 225 -->
<g id="node10" class="node">
<title>225</title>
<polygon fill="#ddeefb" stroke="black" points="610.5,-274 443.5,-274 443.5,-191 610.5,-191 610.5,-274"/>
<text text-anchor="middle" x="527" y="-258.8" font-family="Times,serif" font-size="14.00">graphSize &lt;= 22.5</text>
<text text-anchor="middle" x="527" y="-243.8" font-family="Times,serif" font-size="14.00">gini = 0.496</text>
<text text-anchor="middle" x="527" y="-228.8" font-family="Times,serif" font-size="14.00">samples = 11474</text>
<text text-anchor="middle" x="527" y="-213.8" font-family="Times,serif" font-size="14.00">value = [5200, 6274]</text>
<text text-anchor="middle" x="527" y="-198.8" font-family="Times,serif" font-size="14.00">class = True</text>
</g>
<!-- 1&#45;&gt;225 -->
<g id="edge9" class="edge">
<title>1&#45;&gt;225</title>
<path fill="none" stroke="black" d="M527,-309.91C527,-301.65 527,-292.86 527,-284.3"/>
<polygon fill="black" stroke="black" points="530.5,-284.02 527,-274.02 523.5,-284.02 530.5,-284.02"/>
</g>
<!-- 3 -->
<g id="node4" class="node">
<title>3</title>
<polygon fill="#65b3eb" stroke="black" points="152,-155 0,-155 0,-72 152,-72 152,-155"/>
<text text-anchor="middle" x="76" y="-139.8" font-family="Times,serif" font-size="14.00">sdComm &lt;= 0.065</text>
<text text-anchor="middle" x="76" y="-124.8" font-family="Times,serif" font-size="14.00">gini = 0.299</text>
<text text-anchor="middle" x="76" y="-109.8" font-family="Times,serif" font-size="14.00">samples = 655</text>
<text text-anchor="middle" x="76" y="-94.8" font-family="Times,serif" font-size="14.00">value = [120, 535]</text>
<text text-anchor="middle" x="76" y="-79.8" font-family="Times,serif" font-size="14.00">class = True</text>
</g>
<!-- 2&#45;&gt;3 -->
<g id="edge3" class="edge">
<title>2&#45;&gt;3</title>
<path fill="none" stroke="black" d="M192.24,-190.91C177.33,-181.11 161.29,-170.56 146.03,-160.53"/>
<polygon fill="black" stroke="black" points="147.93,-157.59 137.65,-155.02 144.08,-163.44 147.93,-157.59"/>
</g>
<!-- 18 -->
<g id="node7" class="node">
<title>18</title>
<polygon fill="#bfdff7" stroke="black" points="337.5,-155 170.5,-155 170.5,-72 337.5,-72 337.5,-155"/>
<text text-anchor="middle" x="254" y="-139.8" font-family="Times,serif" font-size="14.00">graphSize &lt;= 22.5</text>
<text text-anchor="middle" x="254" y="-124.8" font-family="Times,serif" font-size="14.00">gini = 0.481</text>
<text text-anchor="middle" x="254" y="-109.8" font-family="Times,serif" font-size="14.00">samples = 4764</text>
<text text-anchor="middle" x="254" y="-94.8" font-family="Times,serif" font-size="14.00">value = [1920, 2844]</text>
<text text-anchor="middle" x="254" y="-79.8" font-family="Times,serif" font-size="14.00">class = True</text>
</g>
<!-- 2&#45;&gt;18 -->
<g id="edge6" class="edge">
<title>2&#45;&gt;18</title>
<path fill="none" stroke="black" d="M254,-190.91C254,-182.65 254,-173.86 254,-165.3"/>
<polygon fill="black" stroke="black" points="257.5,-165.02 254,-155.02 250.5,-165.02 257.5,-165.02"/>
</g>
<!-- 4 -->
<g id="node5" class="node">
<title>4</title>
<polygon fill="#c0c0c0" stroke="black" points="67,-36 13,-36 13,0 67,0 67,-36"/>
<text text-anchor="middle" x="40" y="-14.3" font-family="Times,serif" font-size="14.00">(...)</text>
</g>
<!-- 3&#45;&gt;4 -->
<g id="edge4" class="edge">
<title>3&#45;&gt;4</title>
<path fill="none" stroke="black" d="M60.31,-71.76C56.96,-63.04 53.49,-54.04 50.39,-45.99"/>
<polygon fill="black" stroke="black" points="53.56,-44.48 46.7,-36.41 47.03,-46.99 53.56,-44.48"/>
</g>
<!-- 9 -->
<g id="node6" class="node">
<title>9</title>
<polygon fill="#c0c0c0" stroke="black" points="139,-36 85,-36 85,0 139,0 139,-36"/>
<text text-anchor="middle" x="112" y="-14.3" font-family="Times,serif" font-size="14.00">(...)</text>
</g>
<!-- 3&#45;&gt;9 -->
<g id="edge5" class="edge">
<title>3&#45;&gt;9</title>
<path fill="none" stroke="black" d="M91.69,-71.76C95.04,-63.04 98.51,-54.04 101.61,-45.99"/>
<polygon fill="black" stroke="black" points="104.97,-46.99 105.3,-36.41 98.44,-44.48 104.97,-46.99"/>
</g>
<!-- 19 -->
<g id="node8" class="node">
<title>19</title>
<polygon fill="#c0c0c0" stroke="black" points="251,-36 197,-36 197,0 251,0 251,-36"/>
<text text-anchor="middle" x="224" y="-14.3" font-family="Times,serif" font-size="14.00">(...)</text>
</g>
<!-- 18&#45;&gt;19 -->
<g id="edge7" class="edge">
<title>18&#45;&gt;19</title>
<path fill="none" stroke="black" d="M240.93,-71.76C238.13,-63.04 235.24,-54.04 232.66,-45.99"/>
<polygon fill="black" stroke="black" points="235.97,-44.86 229.58,-36.41 229.31,-47 235.97,-44.86"/>
</g>
<!-- 48 -->
<g id="node9" class="node">
<title>48</title>
<polygon fill="#c0c0c0" stroke="black" points="323,-36 269,-36 269,0 323,0 323,-36"/>
<text text-anchor="middle" x="296" y="-14.3" font-family="Times,serif" font-size="14.00">(...)</text>
</g>
<!-- 18&#45;&gt;48 -->
<g id="edge8" class="edge">
<title>18&#45;&gt;48</title>
<path fill="none" stroke="black" d="M272.3,-71.76C276.26,-62.94 280.35,-53.84 284,-45.72"/>
<polygon fill="black" stroke="black" points="287.28,-46.96 288.18,-36.41 280.89,-44.09 287.28,-46.96"/>
</g>
<!-- 226 -->
<g id="node11" class="node">
<title>226</title>
<polygon fill="#ecf5fc" stroke="black" points="522.5,-155 355.5,-155 355.5,-72 522.5,-72 522.5,-155"/>
<text text-anchor="middle" x="439" y="-139.8" font-family="Times,serif" font-size="14.00">graphDepth &lt;= 3.5</text>
<text text-anchor="middle" x="439" y="-124.8" font-family="Times,serif" font-size="14.00">gini = 0.499</text>
<text text-anchor="middle" x="439" y="-109.8" font-family="Times,serif" font-size="14.00">samples = 7486</text>
<text text-anchor="middle" x="439" y="-94.8" font-family="Times,serif" font-size="14.00">value = [3552, 3934]</text>
<text text-anchor="middle" x="439" y="-79.8" font-family="Times,serif" font-size="14.00">class = True</text>
</g>
<!-- 225&#45;&gt;226 -->
<g id="edge10" class="edge">
<title>225&#45;&gt;226</title>
<path fill="none" stroke="black" d="M496.47,-190.91C489.71,-181.92 482.48,-172.32 475.52,-163.05"/>
<polygon fill="black" stroke="black" points="478.29,-160.91 469.48,-155.02 472.69,-165.12 478.29,-160.91"/>
</g>
<!-- 283 -->
<g id="node14" class="node">
<title>283</title>
<polygon fill="#c4e2f7" stroke="black" points="707.5,-155 540.5,-155 540.5,-72 707.5,-72 707.5,-155"/>
<text text-anchor="middle" x="624" y="-139.8" font-family="Times,serif" font-size="14.00">sdComp &lt;= 0.065</text>
<text text-anchor="middle" x="624" y="-124.8" font-family="Times,serif" font-size="14.00">gini = 0.485</text>
<text text-anchor="middle" x="624" y="-109.8" font-family="Times,serif" font-size="14.00">samples = 3988</text>
<text text-anchor="middle" x="624" y="-94.8" font-family="Times,serif" font-size="14.00">value = [1648, 2340]</text>
<text text-anchor="middle" x="624" y="-79.8" font-family="Times,serif" font-size="14.00">class = True</text>
</g>
<!-- 225&#45;&gt;283 -->
<g id="edge13" class="edge">
<title>225&#45;&gt;283</title>
<path fill="none" stroke="black" d="M560.65,-190.91C568.18,-181.83 576.23,-172.12 583.98,-162.77"/>
<polygon fill="black" stroke="black" points="586.72,-164.95 590.41,-155.02 581.33,-160.49 586.72,-164.95"/>
</g>
<!-- 227 -->
<g id="node12" class="node">
<title>227</title>
<polygon fill="#c0c0c0" stroke="black" points="414,-36 360,-36 360,0 414,0 414,-36"/>
<text text-anchor="middle" x="387" y="-14.3" font-family="Times,serif" font-size="14.00">(...)</text>
</g>
<!-- 226&#45;&gt;227 -->
<g id="edge11" class="edge">
<title>226&#45;&gt;227</title>
<path fill="none" stroke="black" d="M416.34,-71.76C411.33,-62.75 406.15,-53.44 401.57,-45.19"/>
<polygon fill="black" stroke="black" points="404.6,-43.44 396.68,-36.41 398.48,-46.85 404.6,-43.44"/>
</g>
<!-- 254 -->
<g id="node13" class="node">
<title>254</title>
<polygon fill="#c0c0c0" stroke="black" points="486,-36 432,-36 432,0 486,0 486,-36"/>
<text text-anchor="middle" x="459" y="-14.3" font-family="Times,serif" font-size="14.00">(...)</text>
</g>
<!-- 226&#45;&gt;254 -->
<g id="edge12" class="edge">
<title>226&#45;&gt;254</title>
<path fill="none" stroke="black" d="M447.71,-71.76C449.56,-63.14 451.46,-54.24 453.17,-46.26"/>
<polygon fill="black" stroke="black" points="456.61,-46.92 455.28,-36.41 449.76,-45.45 456.61,-46.92"/>
</g>
<!-- 284 -->
<g id="node15" class="node">
<title>284</title>
<polygon fill="#c0c0c0" stroke="black" points="597,-36 543,-36 543,0 597,0 597,-36"/>
<text text-anchor="middle" x="570" y="-14.3" font-family="Times,serif" font-size="14.00">(...)</text>
</g>
<!-- 283&#45;&gt;284 -->
<g id="edge14" class="edge">
<title>283&#45;&gt;284</title>
<path fill="none" stroke="black" d="M600.47,-71.76C595.27,-62.75 589.89,-53.44 585.13,-45.19"/>
<polygon fill="black" stroke="black" points="588.08,-43.31 580.05,-36.41 582.02,-46.82 588.08,-43.31"/>
</g>
<!-- 355 -->
<g id="node16" class="node">
<title>355</title>
<polygon fill="#c0c0c0" stroke="black" points="669,-36 615,-36 615,0 669,0 669,-36"/>
<text text-anchor="middle" x="642" y="-14.3" font-family="Times,serif" font-size="14.00">(...)</text>
</g>
<!-- 283&#45;&gt;355 -->
<g id="edge15" class="edge">
<title>283&#45;&gt;355</title>
<path fill="none" stroke="black" d="M631.84,-71.76C633.5,-63.14 635.22,-54.24 636.75,-46.26"/>
<polygon fill="black" stroke="black" points="640.2,-46.89 638.65,-36.41 633.32,-45.56 640.2,-46.89"/>
</g>
<!-- 461 -->
<g id="node18" class="node">
<title>461</title>
<polygon fill="#74baed" stroke="black" points="972.5,-274 805.5,-274 805.5,-191 972.5,-191 972.5,-274"/>
<text text-anchor="middle" x="889" y="-258.8" font-family="Times,serif" font-size="14.00">CCR &lt;= 5.5</text>
<text text-anchor="middle" x="889" y="-243.8" font-family="Times,serif" font-size="14.00">gini = 0.353</text>
<text text-anchor="middle" x="889" y="-228.8" font-family="Times,serif" font-size="14.00">samples = 11415</text>
<text text-anchor="middle" x="889" y="-213.8" font-family="Times,serif" font-size="14.00">value = [2614, 8801]</text>
<text text-anchor="middle" x="889" y="-198.8" font-family="Times,serif" font-size="14.00">class = True</text>
</g>
<!-- 460&#45;&gt;461 -->
<g id="edge17" class="edge">
<title>460&#45;&gt;461</title>
<path fill="none" stroke="black" d="M889,-309.91C889,-301.65 889,-292.86 889,-284.3"/>
<polygon fill="black" stroke="black" points="892.5,-284.02 889,-274.02 885.5,-284.02 892.5,-284.02"/>
</g>
<!-- 718 -->
<g id="node25" class="node">
<title>718</title>
<polygon fill="#94caf1" stroke="black" points="1243.5,-274 1076.5,-274 1076.5,-191 1243.5,-191 1243.5,-274"/>
<text text-anchor="middle" x="1160" y="-258.8" font-family="Times,serif" font-size="14.00">sdComm &lt;= 2.0</text>
<text text-anchor="middle" x="1160" y="-243.8" font-family="Times,serif" font-size="14.00">gini = 0.432</text>
<text text-anchor="middle" x="1160" y="-228.8" font-family="Times,serif" font-size="14.00">samples = 4024</text>
<text text-anchor="middle" x="1160" y="-213.8" font-family="Times,serif" font-size="14.00">value = [1269, 2755]</text>
<text text-anchor="middle" x="1160" y="-198.8" font-family="Times,serif" font-size="14.00">class = True</text>
</g>
<!-- 460&#45;&gt;718 -->
<g id="edge24" class="edge">
<title>460&#45;&gt;718</title>
<path fill="none" stroke="black" d="M977.36,-312.35C1006.07,-299.96 1038.01,-286.17 1067.05,-273.63"/>
<polygon fill="black" stroke="black" points="1068.57,-276.79 1076.36,-269.61 1065.79,-270.36 1068.57,-276.79"/>
</g>
<!-- 462 -->
<g id="node19" class="node">
<title>462</title>
<polygon fill="#9acdf2" stroke="black" points="883,-155 725,-155 725,-72 883,-72 883,-155"/>
<text text-anchor="middle" x="804" y="-139.8" font-family="Times,serif" font-size="14.00">graphSize &lt;= 40.0</text>
<text text-anchor="middle" x="804" y="-124.8" font-family="Times,serif" font-size="14.00">gini = 0.441</text>
<text text-anchor="middle" x="804" y="-109.8" font-family="Times,serif" font-size="14.00">samples = 2451</text>
<text text-anchor="middle" x="804" y="-94.8" font-family="Times,serif" font-size="14.00">value = [806, 1645]</text>
<text text-anchor="middle" x="804" y="-79.8" font-family="Times,serif" font-size="14.00">class = True</text>
</g>
<!-- 461&#45;&gt;462 -->
<g id="edge18" class="edge">
<title>461&#45;&gt;462</title>
<path fill="none" stroke="black" d="M859.51,-190.91C853.05,-182.01 846.14,-172.51 839.48,-163.33"/>
<polygon fill="black" stroke="black" points="842.15,-161.05 833.44,-155.02 836.48,-165.17 842.15,-161.05"/>
</g>
<!-- 551 -->
<g id="node22" class="node">
<title>551</title>
<polygon fill="#6bb6ec" stroke="black" points="1067.5,-155 900.5,-155 900.5,-72 1067.5,-72 1067.5,-155"/>
<text text-anchor="middle" x="984" y="-139.8" font-family="Times,serif" font-size="14.00">graphDepth &lt;= 25.5</text>
<text text-anchor="middle" x="984" y="-124.8" font-family="Times,serif" font-size="14.00">gini = 0.322</text>
<text text-anchor="middle" x="984" y="-109.8" font-family="Times,serif" font-size="14.00">samples = 8964</text>
<text text-anchor="middle" x="984" y="-94.8" font-family="Times,serif" font-size="14.00">value = [1808, 7156]</text>
<text text-anchor="middle" x="984" y="-79.8" font-family="Times,serif" font-size="14.00">class = True</text>
</g>
<!-- 461&#45;&gt;551 -->
<g id="edge21" class="edge">
<title>461&#45;&gt;551</title>
<path fill="none" stroke="black" d="M921.96,-190.91C929.25,-181.92 937.06,-172.32 944.58,-163.05"/>
<polygon fill="black" stroke="black" points="947.51,-164.99 951.1,-155.02 942.08,-160.58 947.51,-164.99"/>
</g>
<!-- 463 -->
<g id="node20" class="node">
<title>463</title>
<polygon fill="#c0c0c0" stroke="black" points="777,-36 723,-36 723,0 777,0 777,-36"/>
<text text-anchor="middle" x="750" y="-14.3" font-family="Times,serif" font-size="14.00">(...)</text>
</g>
<!-- 462&#45;&gt;463 -->
<g id="edge19" class="edge">
<title>462&#45;&gt;463</title>
<path fill="none" stroke="black" d="M780.47,-71.76C775.27,-62.75 769.89,-53.44 765.13,-45.19"/>
<polygon fill="black" stroke="black" points="768.08,-43.31 760.05,-36.41 762.02,-46.82 768.08,-43.31"/>
</g>
<!-- 508 -->
<g id="node21" class="node">
<title>508</title>
<polygon fill="#c0c0c0" stroke="black" points="849,-36 795,-36 795,0 849,0 849,-36"/>
<text text-anchor="middle" x="822" y="-14.3" font-family="Times,serif" font-size="14.00">(...)</text>
</g>
<!-- 462&#45;&gt;508 -->
<g id="edge20" class="edge">
<title>462&#45;&gt;508</title>
<path fill="none" stroke="black" d="M811.84,-71.76C813.5,-63.14 815.22,-54.24 816.75,-46.26"/>
<polygon fill="black" stroke="black" points="820.2,-46.89 818.65,-36.41 813.32,-45.56 820.2,-46.89"/>
</g>
<!-- 552 -->
<g id="node23" class="node">
<title>552</title>
<polygon fill="#c0c0c0" stroke="black" points="955,-36 901,-36 901,0 955,0 955,-36"/>
<text text-anchor="middle" x="928" y="-14.3" font-family="Times,serif" font-size="14.00">(...)</text>
</g>
<!-- 551&#45;&gt;552 -->
<g id="edge22" class="edge">
<title>551&#45;&gt;552</title>
<path fill="none" stroke="black" d="M959.6,-71.76C954.2,-62.75 948.63,-53.44 943.69,-45.19"/>
<polygon fill="black" stroke="black" points="946.57,-43.19 938.42,-36.41 940.56,-46.78 946.57,-43.19"/>
</g>
<!-- 695 -->
<g id="node24" class="node">
<title>695</title>
<polygon fill="#c0c0c0" stroke="black" points="1027,-36 973,-36 973,0 1027,0 1027,-36"/>
<text text-anchor="middle" x="1000" y="-14.3" font-family="Times,serif" font-size="14.00">(...)</text>
</g>
<!-- 551&#45;&gt;695 -->
<g id="edge23" class="edge">
<title>551&#45;&gt;695</title>
<path fill="none" stroke="black" d="M990.97,-71.76C992.43,-63.24 993.94,-54.44 995.29,-46.53"/>
<polygon fill="black" stroke="black" points="998.78,-46.85 997.02,-36.41 991.88,-45.67 998.78,-46.85"/>
</g>
<!-- 719 -->
<g id="node26" class="node">
<title>719</title>
<polygon fill="#add6f4" stroke="black" points="1234.5,-155 1085.5,-155 1085.5,-72 1234.5,-72 1234.5,-155"/>
<text text-anchor="middle" x="1160" y="-139.8" font-family="Times,serif" font-size="14.00">nbproc &lt;= 4.5</text>
<text text-anchor="middle" x="1160" y="-124.8" font-family="Times,serif" font-size="14.00">gini = 0.466</text>
<text text-anchor="middle" x="1160" y="-109.8" font-family="Times,serif" font-size="14.00">samples = 1550</text>
<text text-anchor="middle" x="1160" y="-94.8" font-family="Times,serif" font-size="14.00">value = [572, 978]</text>
<text text-anchor="middle" x="1160" y="-79.8" font-family="Times,serif" font-size="14.00">class = True</text>
</g>
<!-- 718&#45;&gt;719 -->
<g id="edge25" class="edge">
<title>718&#45;&gt;719</title>
<path fill="none" stroke="black" d="M1160,-190.91C1160,-182.65 1160,-173.86 1160,-165.3"/>
<polygon fill="black" stroke="black" points="1163.5,-165.02 1160,-155.02 1156.5,-165.02 1163.5,-165.02"/>
</g>
<!-- 750 -->
<g id="node29" class="node">
<title>750</title>
<polygon fill="#87c3ef" stroke="black" points="1410,-155 1252,-155 1252,-72 1410,-72 1410,-155"/>
<text text-anchor="middle" x="1331" y="-139.8" font-family="Times,serif" font-size="14.00">graphSize &lt;= 22.5</text>
<text text-anchor="middle" x="1331" y="-124.8" font-family="Times,serif" font-size="14.00">gini = 0.405</text>
<text text-anchor="middle" x="1331" y="-109.8" font-family="Times,serif" font-size="14.00">samples = 2474</text>
<text text-anchor="middle" x="1331" y="-94.8" font-family="Times,serif" font-size="14.00">value = [697, 1777]</text>
<text text-anchor="middle" x="1331" y="-79.8" font-family="Times,serif" font-size="14.00">class = True</text>
</g>
<!-- 718&#45;&gt;750 -->
<g id="edge28" class="edge">
<title>718&#45;&gt;750</title>
<path fill="none" stroke="black" d="M1219.33,-190.91C1233.52,-181.2 1248.78,-170.76 1263.31,-160.81"/>
<polygon fill="black" stroke="black" points="1265.5,-163.56 1271.78,-155.02 1261.55,-157.78 1265.5,-163.56"/>
</g>
<!-- 720 -->
<g id="node27" class="node">
<title>720</title>
<polygon fill="#c0c0c0" stroke="black" points="1146,-36 1092,-36 1092,0 1146,0 1146,-36"/>
<text text-anchor="middle" x="1119" y="-14.3" font-family="Times,serif" font-size="14.00">(...)</text>
</g>
<!-- 719&#45;&gt;720 -->
<g id="edge26" class="edge">
<title>719&#45;&gt;720</title>
<path fill="none" stroke="black" d="M1142.14,-71.76C1138.27,-62.94 1134.28,-53.84 1130.72,-45.72"/>
<polygon fill="black" stroke="black" points="1133.85,-44.16 1126.63,-36.41 1127.44,-46.97 1133.85,-44.16"/>
</g>
<!-- 735 -->
<g id="node28" class="node">
<title>735</title>
<polygon fill="#c0c0c0" stroke="black" points="1218,-36 1164,-36 1164,0 1218,0 1218,-36"/>
<text text-anchor="middle" x="1191" y="-14.3" font-family="Times,serif" font-size="14.00">(...)</text>
</g>
<!-- 719&#45;&gt;735 -->
<g id="edge27" class="edge">
<title>719&#45;&gt;735</title>
<path fill="none" stroke="black" d="M1173.51,-71.76C1176.4,-63.04 1179.38,-54.04 1182.05,-45.99"/>
<polygon fill="black" stroke="black" points="1185.4,-47 1185.23,-36.41 1178.76,-44.8 1185.4,-47"/>
</g>
<!-- 751 -->
<g id="node30" class="node">
<title>751</title>
<polygon fill="#c0c0c0" stroke="black" points="1322,-36 1268,-36 1268,0 1322,0 1322,-36"/>
<text text-anchor="middle" x="1295" y="-14.3" font-family="Times,serif" font-size="14.00">(...)</text>
</g>
<!-- 750&#45;&gt;751 -->
<g id="edge29" class="edge">
<title>750&#45;&gt;751</title>
<path fill="none" stroke="black" d="M1315.31,-71.76C1311.96,-63.04 1308.49,-54.04 1305.39,-45.99"/>
<polygon fill="black" stroke="black" points="1308.56,-44.48 1301.7,-36.41 1302.03,-46.99 1308.56,-44.48"/>
</g>
<!-- 766 -->
<g id="node31" class="node">
<title>766</title>
<polygon fill="#c0c0c0" stroke="black" points="1394,-36 1340,-36 1340,0 1394,0 1394,-36"/>
<text text-anchor="middle" x="1367" y="-14.3" font-family="Times,serif" font-size="14.00">(...)</text>
</g>
<!-- 750&#45;&gt;766 -->
<g id="edge30" class="edge">
<title>750&#45;&gt;766</title>
<path fill="none" stroke="black" d="M1346.69,-71.76C1350.04,-63.04 1353.51,-54.04 1356.61,-45.99"/>
<polygon fill="black" stroke="black" points="1359.97,-46.99 1360.3,-36.41 1353.44,-44.48 1359.97,-46.99"/>
</g>
</g>
</svg>
