<?xml version="1.0" encoding="UTF-8" standalone="no"?>
<!DOCTYPE svg PUBLIC "-//W3C//DTD SVG 1.1//EN"
 "http://www.w3.org/Graphics/SVG/1.1/DTD/svg11.dtd">
<!-- Generated by graphviz version 2.43.0 (0)
 -->
<!-- Title: Tree Pages: 1 -->
<svg width="1416pt" height="520pt"
 viewBox="0.00 0.00 1415.50 520.00" xmlns="http://www.w3.org/2000/svg" xmlns:xlink="http://www.w3.org/1999/xlink">
<g id="graph0" class="graph" transform="scale(1 1) rotate(0) translate(4 516)">
<title>Tree</title>
<polygon fill="white" stroke="transparent" points="-4,4 -4,-516 1411.5,-516 1411.5,4 -4,4"/>
<!-- 0 -->
<g id="node1" class="node">
<title>0</title>
<polygon fill="#fbece1" stroke="black" points="796,-512 611,-512 611,-429 796,-429 796,-512"/>
<text text-anchor="middle" x="703.5" y="-496.8" font-family="Times,serif" font-size="14.00">CCR &lt;= 5.5</text>
<text text-anchor="middle" x="703.5" y="-481.8" font-family="Times,serif" font-size="14.00">gini = 0.497</text>
<text text-anchor="middle" x="703.5" y="-466.8" font-family="Times,serif" font-size="14.00">samples = 32332</text>
<text text-anchor="middle" x="703.5" y="-451.8" font-family="Times,serif" font-size="14.00">value = [17473, 14859]</text>
<text text-anchor="middle" x="703.5" y="-436.8" font-family="Times,serif" font-size="14.00">class = False</text>
</g>
<!-- 1 -->
<g id="node2" class="node">
<title>1</title>
<polygon fill="#fdf7f3" stroke="black" points="611,-393 444,-393 444,-310 611,-310 611,-393"/>
<text text-anchor="middle" x="527.5" y="-377.8" font-family="Times,serif" font-size="14.00">CCR &lt;= 0.55</text>
<text text-anchor="middle" x="527.5" y="-362.8" font-family="Times,serif" font-size="14.00">gini = 0.499</text>
<text text-anchor="middle" x="527.5" y="-347.8" font-family="Times,serif" font-size="14.00">samples = 19344</text>
<text text-anchor="middle" x="527.5" y="-332.8" font-family="Times,serif" font-size="14.00">value = [9979, 9365]</text>
<text text-anchor="middle" x="527.5" y="-317.8" font-family="Times,serif" font-size="14.00">class = False</text>
</g>
<!-- 0&#45;&gt;1 -->
<g id="edge1" class="edge">
<title>0&#45;&gt;1</title>
<path fill="none" stroke="black" d="M642.44,-428.91C627.83,-419.2 612.13,-408.76 597.16,-398.81"/>
<polygon fill="black" stroke="black" points="598.72,-395.64 588.45,-393.02 594.84,-401.47 598.72,-395.64"/>
<text text-anchor="middle" x="593.39" y="-413.83" font-family="Times,serif" font-size="14.00">True</text>
</g>
<!-- 552 -->
<g id="node17" class="node">
<title>552</title>
<polygon fill="#f8ddca" stroke="black" points="965,-393 798,-393 798,-310 965,-310 965,-393"/>
<text text-anchor="middle" x="881.5" y="-377.8" font-family="Times,serif" font-size="14.00">sdComp &lt;= 6.5</text>
<text text-anchor="middle" x="881.5" y="-362.8" font-family="Times,serif" font-size="14.00">gini = 0.488</text>
<text text-anchor="middle" x="881.5" y="-347.8" font-family="Times,serif" font-size="14.00">samples = 12988</text>
<text text-anchor="middle" x="881.5" y="-332.8" font-family="Times,serif" font-size="14.00">value = [7494, 5494]</text>
<text text-anchor="middle" x="881.5" y="-317.8" font-family="Times,serif" font-size="14.00">class = False</text>
</g>
<!-- 0&#45;&gt;552 -->
<g id="edge16" class="edge">
<title>0&#45;&gt;552</title>
<path fill="none" stroke="black" d="M765.26,-428.91C780.17,-419.11 796.21,-408.56 811.47,-398.53"/>
<polygon fill="black" stroke="black" points="813.42,-401.44 819.85,-393.02 809.57,-395.59 813.42,-401.44"/>
<text text-anchor="middle" x="814.79" y="-413.8" font-family="Times,serif" font-size="14.00">False</text>
</g>
<!-- 2 -->
<g id="node3" class="node">
<title>2</title>
<polygon fill="#fbede2" stroke="black" points="343,-274 176,-274 176,-191 343,-191 343,-274"/>
<text text-anchor="middle" x="259.5" y="-258.8" font-family="Times,serif" font-size="14.00">graphDepth &lt;= 13.5</text>
<text text-anchor="middle" x="259.5" y="-243.8" font-family="Times,serif" font-size="14.00">gini = 0.497</text>
<text text-anchor="middle" x="259.5" y="-228.8" font-family="Times,serif" font-size="14.00">samples = 12687</text>
<text text-anchor="middle" x="259.5" y="-213.8" font-family="Times,serif" font-size="14.00">value = [6844, 5843]</text>
<text text-anchor="middle" x="259.5" y="-198.8" font-family="Times,serif" font-size="14.00">class = False</text>
</g>
<!-- 1&#45;&gt;2 -->
<g id="edge2" class="edge">
<title>1&#45;&gt;2</title>
<path fill="none" stroke="black" d="M443.81,-313.96C414.84,-301.32 382.21,-287.07 352.54,-274.12"/>
<polygon fill="black" stroke="black" points="353.59,-270.76 343.02,-269.96 350.78,-277.17 353.59,-270.76"/>
</g>
<!-- 275 -->
<g id="node10" class="node">
<title>275</title>
<polygon fill="#e9f4fc" stroke="black" points="611,-274 444,-274 444,-191 611,-191 611,-274"/>
<text text-anchor="middle" x="527.5" y="-258.8" font-family="Times,serif" font-size="14.00">sdComp &lt;= 0.65</text>
<text text-anchor="middle" x="527.5" y="-243.8" font-family="Times,serif" font-size="14.00">gini = 0.498</text>
<text text-anchor="middle" x="527.5" y="-228.8" font-family="Times,serif" font-size="14.00">samples = 6657</text>
<text text-anchor="middle" x="527.5" y="-213.8" font-family="Times,serif" font-size="14.00">value = [3135, 3522]</text>
<text text-anchor="middle" x="527.5" y="-198.8" font-family="Times,serif" font-size="14.00">class = True</text>
</g>
<!-- 1&#45;&gt;275 -->
<g id="edge9" class="edge">
<title>1&#45;&gt;275</title>
<path fill="none" stroke="black" d="M527.5,-309.91C527.5,-301.65 527.5,-292.86 527.5,-284.3"/>
<polygon fill="black" stroke="black" points="531,-284.02 527.5,-274.02 524,-284.02 531,-284.02"/>
</g>
<!-- 3 -->
<g id="node4" class="node">
<title>3</title>
<polygon fill="#fdf3ed" stroke="black" points="167,-155 0,-155 0,-72 167,-72 167,-155"/>
<text text-anchor="middle" x="83.5" y="-139.8" font-family="Times,serif" font-size="14.00">graphSize &lt;= 22.5</text>
<text text-anchor="middle" x="83.5" y="-124.8" font-family="Times,serif" font-size="14.00">gini = 0.499</text>
<text text-anchor="middle" x="83.5" y="-109.8" font-family="Times,serif" font-size="14.00">samples = 11331</text>
<text text-anchor="middle" x="83.5" y="-94.8" font-family="Times,serif" font-size="14.00">value = [5938, 5393]</text>
<text text-anchor="middle" x="83.5" y="-79.8" font-family="Times,serif" font-size="14.00">class = False</text>
</g>
<!-- 2&#45;&gt;3 -->
<g id="edge3" class="edge">
<title>2&#45;&gt;3</title>
<path fill="none" stroke="black" d="M198.44,-190.91C183.83,-181.2 168.13,-170.76 153.16,-160.81"/>
<polygon fill="black" stroke="black" points="154.72,-157.64 144.45,-155.02 150.84,-163.47 154.72,-157.64"/>
</g>
<!-- 182 -->
<g id="node7" class="node">
<title>182</title>
<polygon fill="#f2c09b" stroke="black" points="334,-155 185,-155 185,-72 334,-72 334,-155"/>
<text text-anchor="middle" x="259.5" y="-139.8" font-family="Times,serif" font-size="14.00">sdComp &lt;= 0.065</text>
<text text-anchor="middle" x="259.5" y="-124.8" font-family="Times,serif" font-size="14.00">gini = 0.443</text>
<text text-anchor="middle" x="259.5" y="-109.8" font-family="Times,serif" font-size="14.00">samples = 1356</text>
<text text-anchor="middle" x="259.5" y="-94.8" font-family="Times,serif" font-size="14.00">value = [906, 450]</text>
<text text-anchor="middle" x="259.5" y="-79.8" font-family="Times,serif" font-size="14.00">class = False</text>
</g>
<!-- 2&#45;&gt;182 -->
<g id="edge6" class="edge">
<title>2&#45;&gt;182</title>
<path fill="none" stroke="black" d="M259.5,-190.91C259.5,-182.65 259.5,-173.86 259.5,-165.3"/>
<polygon fill="black" stroke="black" points="263,-165.02 259.5,-155.02 256,-165.02 263,-165.02"/>
</g>
<!-- 4 -->
<g id="node5" class="node">
<title>4</title>
<polygon fill="#c0c0c0" stroke="black" points="74.5,-36 20.5,-36 20.5,0 74.5,0 74.5,-36"/>
<text text-anchor="middle" x="47.5" y="-14.3" font-family="Times,serif" font-size="14.00">(...)</text>
</g>
<!-- 3&#45;&gt;4 -->
<g id="edge4" class="edge">
<title>3&#45;&gt;4</title>
<path fill="none" stroke="black" d="M67.81,-71.76C64.46,-63.04 60.99,-54.04 57.89,-45.99"/>
<polygon fill="black" stroke="black" points="61.06,-44.48 54.2,-36.41 54.53,-46.99 61.06,-44.48"/>
</g>
<!-- 75 -->
<g id="node6" class="node">
<title>75</title>
<polygon fill="#c0c0c0" stroke="black" points="146.5,-36 92.5,-36 92.5,0 146.5,0 146.5,-36"/>
<text text-anchor="middle" x="119.5" y="-14.3" font-family="Times,serif" font-size="14.00">(...)</text>
</g>
<!-- 3&#45;&gt;75 -->
<g id="edge5" class="edge">
<title>3&#45;&gt;75</title>
<path fill="none" stroke="black" d="M99.19,-71.76C102.54,-63.04 106.01,-54.04 109.11,-45.99"/>
<polygon fill="black" stroke="black" points="112.47,-46.99 112.8,-36.41 105.94,-44.48 112.47,-46.99"/>
</g>
<!-- 183 -->
<g id="node8" class="node">
<title>183</title>
<polygon fill="#c0c0c0" stroke="black" points="252.5,-36 198.5,-36 198.5,0 252.5,0 252.5,-36"/>
<text text-anchor="middle" x="225.5" y="-14.3" font-family="Times,serif" font-size="14.00">(...)</text>
</g>
<!-- 182&#45;&gt;183 -->
<g id="edge7" class="edge">
<title>182&#45;&gt;183</title>
<path fill="none" stroke="black" d="M244.69,-71.76C241.52,-63.04 238.24,-54.04 235.32,-45.99"/>
<polygon fill="black" stroke="black" points="238.54,-44.61 231.83,-36.41 231.96,-47 238.54,-44.61"/>
</g>
<!-- 242 -->
<g id="node9" class="node">
<title>242</title>
<polygon fill="#c0c0c0" stroke="black" points="324.5,-36 270.5,-36 270.5,0 324.5,0 324.5,-36"/>
<text text-anchor="middle" x="297.5" y="-14.3" font-family="Times,serif" font-size="14.00">(...)</text>
</g>
<!-- 182&#45;&gt;242 -->
<g id="edge8" class="edge">
<title>182&#45;&gt;242</title>
<path fill="none" stroke="black" d="M276.06,-71.76C279.64,-62.94 283.34,-53.84 286.64,-45.72"/>
<polygon fill="black" stroke="black" points="289.9,-46.99 290.43,-36.41 283.42,-44.35 289.9,-46.99"/>
</g>
<!-- 276 -->
<g id="node11" class="node">
<title>276</title>
<polygon fill="#d2e9f9" stroke="black" points="519,-155 352,-155 352,-72 519,-72 519,-155"/>
<text text-anchor="middle" x="435.5" y="-139.8" font-family="Times,serif" font-size="14.00">graphSize &lt;= 22.5</text>
<text text-anchor="middle" x="435.5" y="-124.8" font-family="Times,serif" font-size="14.00">gini = 0.492</text>
<text text-anchor="middle" x="435.5" y="-109.8" font-family="Times,serif" font-size="14.00">samples = 4206</text>
<text text-anchor="middle" x="435.5" y="-94.8" font-family="Times,serif" font-size="14.00">value = [1835, 2371]</text>
<text text-anchor="middle" x="435.5" y="-79.8" font-family="Times,serif" font-size="14.00">class = True</text>
</g>
<!-- 275&#45;&gt;276 -->
<g id="edge10" class="edge">
<title>275&#45;&gt;276</title>
<path fill="none" stroke="black" d="M495.58,-190.91C488.52,-181.92 480.96,-172.32 473.68,-163.05"/>
<polygon fill="black" stroke="black" points="476.3,-160.72 467.36,-155.02 470.79,-165.05 476.3,-160.72"/>
</g>
<!-- 459 -->
<g id="node14" class="node">
<title>459</title>
<polygon fill="#fcf1e8" stroke="black" points="704,-155 537,-155 537,-72 704,-72 704,-155"/>
<text text-anchor="middle" x="620.5" y="-139.8" font-family="Times,serif" font-size="14.00">graphDepth &lt;= 13.5</text>
<text text-anchor="middle" x="620.5" y="-124.8" font-family="Times,serif" font-size="14.00">gini = 0.498</text>
<text text-anchor="middle" x="620.5" y="-109.8" font-family="Times,serif" font-size="14.00">samples = 2451</text>
<text text-anchor="middle" x="620.5" y="-94.8" font-family="Times,serif" font-size="14.00">value = [1300, 1151]</text>
<text text-anchor="middle" x="620.5" y="-79.8" font-family="Times,serif" font-size="14.00">class = False</text>
</g>
<!-- 275&#45;&gt;459 -->
<g id="edge13" class="edge">
<title>275&#45;&gt;459</title>
<path fill="none" stroke="black" d="M559.77,-190.91C566.91,-181.92 574.54,-172.32 581.91,-163.05"/>
<polygon fill="black" stroke="black" points="584.81,-165.03 588.29,-155.02 579.33,-160.67 584.81,-165.03"/>
</g>
<!-- 277 -->
<g id="node12" class="node">
<title>277</title>
<polygon fill="#c0c0c0" stroke="black" points="430.5,-36 376.5,-36 376.5,0 430.5,0 430.5,-36"/>
<text text-anchor="middle" x="403.5" y="-14.3" font-family="Times,serif" font-size="14.00">(...)</text>
</g>
<!-- 276&#45;&gt;277 -->
<g id="edge11" class="edge">
<title>276&#45;&gt;277</title>
<path fill="none" stroke="black" d="M421.56,-71.76C418.57,-63.04 415.49,-54.04 412.74,-45.99"/>
<polygon fill="black" stroke="black" points="416.01,-44.73 409.46,-36.41 409.38,-47 416.01,-44.73"/>
</g>
<!-- 324 -->
<g id="node13" class="node">
<title>324</title>
<polygon fill="#c0c0c0" stroke="black" points="502.5,-36 448.5,-36 448.5,0 502.5,0 502.5,-36"/>
<text text-anchor="middle" x="475.5" y="-14.3" font-family="Times,serif" font-size="14.00">(...)</text>
</g>
<!-- 276&#45;&gt;324 -->
<g id="edge12" class="edge">
<title>276&#45;&gt;324</title>
<path fill="none" stroke="black" d="M452.93,-71.76C456.7,-62.94 460.6,-53.84 464.07,-45.72"/>
<polygon fill="black" stroke="black" points="467.34,-46.98 468.05,-36.41 460.9,-44.22 467.34,-46.98"/>
</g>
<!-- 460 -->
<g id="node15" class="node">
<title>460</title>
<polygon fill="#c0c0c0" stroke="black" points="591.5,-36 537.5,-36 537.5,0 591.5,0 591.5,-36"/>
<text text-anchor="middle" x="564.5" y="-14.3" font-family="Times,serif" font-size="14.00">(...)</text>
</g>
<!-- 459&#45;&gt;460 -->
<g id="edge14" class="edge">
<title>459&#45;&gt;460</title>
<path fill="none" stroke="black" d="M596.1,-71.76C590.7,-62.75 585.13,-53.44 580.19,-45.19"/>
<polygon fill="black" stroke="black" points="583.07,-43.19 574.92,-36.41 577.06,-46.78 583.07,-43.19"/>
</g>
<!-- 519 -->
<g id="node16" class="node">
<title>519</title>
<polygon fill="#c0c0c0" stroke="black" points="663.5,-36 609.5,-36 609.5,0 663.5,0 663.5,-36"/>
<text text-anchor="middle" x="636.5" y="-14.3" font-family="Times,serif" font-size="14.00">(...)</text>
</g>
<!-- 459&#45;&gt;519 -->
<g id="edge15" class="edge">
<title>459&#45;&gt;519</title>
<path fill="none" stroke="black" d="M627.47,-71.76C628.93,-63.24 630.44,-54.44 631.79,-46.53"/>
<polygon fill="black" stroke="black" points="635.28,-46.85 633.52,-36.41 628.38,-45.67 635.28,-46.85"/>
</g>
<!-- 553 -->
<g id="node18" class="node">
<title>553</title>
<polygon fill="#f7dac4" stroke="black" points="965,-274 798,-274 798,-191 965,-191 965,-274"/>
<text text-anchor="middle" x="881.5" y="-258.8" font-family="Times,serif" font-size="14.00">graphDepth &lt;= 3.5</text>
<text text-anchor="middle" x="881.5" y="-243.8" font-family="Times,serif" font-size="14.00">gini = 0.485</text>
<text text-anchor="middle" x="881.5" y="-228.8" font-family="Times,serif" font-size="14.00">samples = 8964</text>
<text text-anchor="middle" x="881.5" y="-213.8" font-family="Times,serif" font-size="14.00">value = [5262, 3702]</text>
<text text-anchor="middle" x="881.5" y="-198.8" font-family="Times,serif" font-size="14.00">class = False</text>
</g>
<!-- 552&#45;&gt;553 -->
<g id="edge17" class="edge">
<title>552&#45;&gt;553</title>
<path fill="none" stroke="black" d="M881.5,-309.91C881.5,-301.65 881.5,-292.86 881.5,-284.3"/>
<polygon fill="black" stroke="black" points="885,-284.02 881.5,-274.02 878,-284.02 885,-284.02"/>
</g>
<!-- 744 -->
<g id="node25" class="node">
<title>744</title>
<polygon fill="#fae6d8" stroke="black" points="1236,-274 1069,-274 1069,-191 1236,-191 1236,-274"/>
<text text-anchor="middle" x="1152.5" y="-258.8" font-family="Times,serif" font-size="14.00">graphDepth &lt;= 9.0</text>
<text text-anchor="middle" x="1152.5" y="-243.8" font-family="Times,serif" font-size="14.00">gini = 0.494</text>
<text text-anchor="middle" x="1152.5" y="-228.8" font-family="Times,serif" font-size="14.00">samples = 4024</text>
<text text-anchor="middle" x="1152.5" y="-213.8" font-family="Times,serif" font-size="14.00">value = [2232, 1792]</text>
<text text-anchor="middle" x="1152.5" y="-198.8" font-family="Times,serif" font-size="14.00">class = False</text>
</g>
<!-- 552&#45;&gt;744 -->
<g id="edge24" class="edge">
<title>552&#45;&gt;744</title>
<path fill="none" stroke="black" d="M965.02,-314.44C994.9,-301.54 1028.75,-286.93 1059.39,-273.7"/>
<polygon fill="black" stroke="black" points="1061,-276.82 1068.79,-269.64 1058.22,-270.39 1061,-276.82"/>
</g>
<!-- 554 -->
<g id="node19" class="node">
<title>554</title>
<polygon fill="#fef9f6" stroke="black" points="871,-155 722,-155 722,-72 871,-72 871,-155"/>
<text text-anchor="middle" x="796.5" y="-139.8" font-family="Times,serif" font-size="14.00">nbproc &lt;= 4.5</text>
<text text-anchor="middle" x="796.5" y="-124.8" font-family="Times,serif" font-size="14.00">gini = 0.5</text>
<text text-anchor="middle" x="796.5" y="-109.8" font-family="Times,serif" font-size="14.00">samples = 572</text>
<text text-anchor="middle" x="796.5" y="-94.8" font-family="Times,serif" font-size="14.00">value = [293, 279]</text>
<text text-anchor="middle" x="796.5" y="-79.8" font-family="Times,serif" font-size="14.00">class = False</text>
</g>
<!-- 553&#45;&gt;554 -->
<g id="edge18" class="edge">
<title>553&#45;&gt;554</title>
<path fill="none" stroke="black" d="M852.01,-190.91C845.55,-182.01 838.64,-172.51 831.98,-163.33"/>
<polygon fill="black" stroke="black" points="834.65,-161.05 825.94,-155.02 828.98,-165.17 834.65,-161.05"/>
</g>
<!-- 577 -->
<g id="node22" class="node">
<title>577</title>
<polygon fill="#f7d8c1" stroke="black" points="1056,-155 889,-155 889,-72 1056,-72 1056,-155"/>
<text text-anchor="middle" x="972.5" y="-139.8" font-family="Times,serif" font-size="14.00">graphDepth &lt;= 25.5</text>
<text text-anchor="middle" x="972.5" y="-124.8" font-family="Times,serif" font-size="14.00">gini = 0.483</text>
<text text-anchor="middle" x="972.5" y="-109.8" font-family="Times,serif" font-size="14.00">samples = 8392</text>
<text text-anchor="middle" x="972.5" y="-94.8" font-family="Times,serif" font-size="14.00">value = [4969, 3423]</text>
<text text-anchor="middle" x="972.5" y="-79.8" font-family="Times,serif" font-size="14.00">class = False</text>
</g>
<!-- 553&#45;&gt;577 -->
<g id="edge21" class="edge">
<title>553&#45;&gt;577</title>
<path fill="none" stroke="black" d="M913.07,-190.91C920.06,-181.92 927.53,-172.32 934.74,-163.05"/>
<polygon fill="black" stroke="black" points="937.61,-165.06 940.98,-155.02 932.08,-160.77 937.61,-165.06"/>
</g>
<!-- 555 -->
<g id="node20" class="node">
<title>555</title>
<polygon fill="#c0c0c0" stroke="black" points="767.5,-36 713.5,-36 713.5,0 767.5,0 767.5,-36"/>
<text text-anchor="middle" x="740.5" y="-14.3" font-family="Times,serif" font-size="14.00">(...)</text>
</g>
<!-- 554&#45;&gt;555 -->
<g id="edge19" class="edge">
<title>554&#45;&gt;555</title>
<path fill="none" stroke="black" d="M772.1,-71.76C766.7,-62.75 761.13,-53.44 756.19,-45.19"/>
<polygon fill="black" stroke="black" points="759.07,-43.19 750.92,-36.41 753.06,-46.78 759.07,-43.19"/>
</g>
<!-- 566 -->
<g id="node21" class="node">
<title>566</title>
<polygon fill="#c0c0c0" stroke="black" points="839.5,-36 785.5,-36 785.5,0 839.5,0 839.5,-36"/>
<text text-anchor="middle" x="812.5" y="-14.3" font-family="Times,serif" font-size="14.00">(...)</text>
</g>
<!-- 554&#45;&gt;566 -->
<g id="edge20" class="edge">
<title>554&#45;&gt;566</title>
<path fill="none" stroke="black" d="M803.47,-71.76C804.93,-63.24 806.44,-54.44 807.79,-46.53"/>
<polygon fill="black" stroke="black" points="811.28,-46.85 809.52,-36.41 804.38,-45.67 811.28,-46.85"/>
</g>
<!-- 578 -->
<g id="node23" class="node">
<title>578</title>
<polygon fill="#c0c0c0" stroke="black" points="945.5,-36 891.5,-36 891.5,0 945.5,0 945.5,-36"/>
<text text-anchor="middle" x="918.5" y="-14.3" font-family="Times,serif" font-size="14.00">(...)</text>
</g>
<!-- 577&#45;&gt;578 -->
<g id="edge22" class="edge">
<title>577&#45;&gt;578</title>
<path fill="none" stroke="black" d="M948.97,-71.76C943.77,-62.75 938.39,-53.44 933.63,-45.19"/>
<polygon fill="black" stroke="black" points="936.58,-43.31 928.55,-36.41 930.52,-46.82 936.58,-43.31"/>
</g>
<!-- 721 -->
<g id="node24" class="node">
<title>721</title>
<polygon fill="#c0c0c0" stroke="black" points="1017.5,-36 963.5,-36 963.5,0 1017.5,0 1017.5,-36"/>
<text text-anchor="middle" x="990.5" y="-14.3" font-family="Times,serif" font-size="14.00">(...)</text>
</g>
<!-- 577&#45;&gt;721 -->
<g id="edge23" class="edge">
<title>577&#45;&gt;721</title>
<path fill="none" stroke="black" d="M980.34,-71.76C982,-63.14 983.72,-54.24 985.25,-46.26"/>
<polygon fill="black" stroke="black" points="988.7,-46.89 987.15,-36.41 981.82,-45.56 988.7,-46.89"/>
</g>
<!-- 745 -->
<g id="node26" class="node">
<title>745</title>
<polygon fill="#f8decb" stroke="black" points="1231.5,-155 1073.5,-155 1073.5,-72 1231.5,-72 1231.5,-155"/>
<text text-anchor="middle" x="1152.5" y="-139.8" font-family="Times,serif" font-size="14.00">graphSize &lt;= 22.5</text>
<text text-anchor="middle" x="1152.5" y="-124.8" font-family="Times,serif" font-size="14.00">gini = 0.489</text>
<text text-anchor="middle" x="1152.5" y="-109.8" font-family="Times,serif" font-size="14.00">samples = 1884</text>
<text text-anchor="middle" x="1152.5" y="-94.8" font-family="Times,serif" font-size="14.00">value = [1084, 800]</text>
<text text-anchor="middle" x="1152.5" y="-79.8" font-family="Times,serif" font-size="14.00">class = False</text>
</g>
<!-- 744&#45;&gt;745 -->
<g id="edge25" class="edge">
<title>744&#45;&gt;745</title>
<path fill="none" stroke="black" d="M1152.5,-190.91C1152.5,-182.65 1152.5,-173.86 1152.5,-165.3"/>
<polygon fill="black" stroke="black" points="1156,-165.02 1152.5,-155.02 1149,-165.02 1156,-165.02"/>
</g>
<!-- 792 -->
<g id="node29" class="node">
<title>792</title>
<polygon fill="#fbeee4" stroke="black" points="1407.5,-155 1249.5,-155 1249.5,-72 1407.5,-72 1407.5,-155"/>
<text text-anchor="middle" x="1328.5" y="-139.8" font-family="Times,serif" font-size="14.00">graphSize &lt;= 40.0</text>
<text text-anchor="middle" x="1328.5" y="-124.8" font-family="Times,serif" font-size="14.00">gini = 0.497</text>
<text text-anchor="middle" x="1328.5" y="-109.8" font-family="Times,serif" font-size="14.00">samples = 2140</text>
<text text-anchor="middle" x="1328.5" y="-94.8" font-family="Times,serif" font-size="14.00">value = [1148, 992]</text>
<text text-anchor="middle" x="1328.5" y="-79.8" font-family="Times,serif" font-size="14.00">class = False</text>
</g>
<!-- 744&#45;&gt;792 -->
<g id="edge28" class="edge">
<title>744&#45;&gt;792</title>
<path fill="none" stroke="black" d="M1213.56,-190.91C1228.17,-181.2 1243.87,-170.76 1258.84,-160.81"/>
<polygon fill="black" stroke="black" points="1261.16,-163.47 1267.55,-155.02 1257.28,-157.64 1261.16,-163.47"/>
</g>
<!-- 746 -->
<g id="node27" class="node">
<title>746</title>
<polygon fill="#c0c0c0" stroke="black" points="1141.5,-36 1087.5,-36 1087.5,0 1141.5,0 1141.5,-36"/>
<text text-anchor="middle" x="1114.5" y="-14.3" font-family="Times,serif" font-size="14.00">(...)</text>
</g>
<!-- 745&#45;&gt;746 -->
<g id="edge26" class="edge">
<title>745&#45;&gt;746</title>
<path fill="none" stroke="black" d="M1135.94,-71.76C1132.36,-62.94 1128.66,-53.84 1125.36,-45.72"/>
<polygon fill="black" stroke="black" points="1128.58,-44.35 1121.57,-36.41 1122.1,-46.99 1128.58,-44.35"/>
</g>
<!-- 769 -->
<g id="node28" class="node">
<title>769</title>
<polygon fill="#c0c0c0" stroke="black" points="1213.5,-36 1159.5,-36 1159.5,0 1213.5,0 1213.5,-36"/>
<text text-anchor="middle" x="1186.5" y="-14.3" font-family="Times,serif" font-size="14.00">(...)</text>
</g>
<!-- 745&#45;&gt;769 -->
<g id="edge27" class="edge">
<title>745&#45;&gt;769</title>
<path fill="none" stroke="black" d="M1167.31,-71.76C1170.48,-63.04 1173.76,-54.04 1176.68,-45.99"/>
<polygon fill="black" stroke="black" points="1180.04,-47 1180.17,-36.41 1173.46,-44.61 1180.04,-47"/>
</g>
<!-- 793 -->
<g id="node30" class="node">
<title>793</title>
<polygon fill="#c0c0c0" stroke="black" points="1319.5,-36 1265.5,-36 1265.5,0 1319.5,0 1319.5,-36"/>
<text text-anchor="middle" x="1292.5" y="-14.3" font-family="Times,serif" font-size="14.00">(...)</text>
</g>
<!-- 792&#45;&gt;793 -->
<g id="edge29" class="edge">
<title>792&#45;&gt;793</title>
<path fill="none" stroke="black" d="M1312.81,-71.76C1309.46,-63.04 1305.99,-54.04 1302.89,-45.99"/>
<polygon fill="black" stroke="black" points="1306.06,-44.48 1299.2,-36.41 1299.53,-46.99 1306.06,-44.48"/>
</g>
<!-- 804 -->
<g id="node31" class="node">
<title>804</title>
<polygon fill="#c0c0c0" stroke="black" points="1391.5,-36 1337.5,-36 1337.5,0 1391.5,0 1391.5,-36"/>
<text text-anchor="middle" x="1364.5" y="-14.3" font-family="Times,serif" font-size="14.00">(...)</text>
</g>
<!-- 792&#45;&gt;804 -->
<g id="edge30" class="edge">
<title>792&#45;&gt;804</title>
<path fill="none" stroke="black" d="M1344.19,-71.76C1347.54,-63.04 1351.01,-54.04 1354.11,-45.99"/>
<polygon fill="black" stroke="black" points="1357.47,-46.99 1357.8,-36.41 1350.94,-44.48 1357.47,-46.99"/>
</g>
</g>
</svg>
