<?xml version="1.0" encoding="UTF-8" standalone="no"?>
<!DOCTYPE svg PUBLIC "-//W3C//DTD SVG 1.1//EN"
 "http://www.w3.org/Graphics/SVG/1.1/DTD/svg11.dtd">
<!-- Generated by graphviz version 2.43.0 (0)
 -->
<!-- Title: Tree Pages: 1 -->
<svg width="1374pt" height="520pt"
 viewBox="0.00 0.00 1373.50 520.00" xmlns="http://www.w3.org/2000/svg" xmlns:xlink="http://www.w3.org/1999/xlink">
<g id="graph0" class="graph" transform="scale(1 1) rotate(0) translate(4 516)">
<title>Tree</title>
<polygon fill="white" stroke="transparent" points="-4,4 -4,-516 1369.5,-516 1369.5,4 -4,4"/>
<!-- 0 -->
<g id="node1" class="node">
<title>0</title>
<polygon fill="#ffffff" stroke="black" points="750.5,-512 565.5,-512 565.5,-429 750.5,-429 750.5,-512"/>
<text text-anchor="middle" x="658" y="-496.8" font-family="Times,serif" font-size="14.00">graphDepth &lt;= 3.5</text>
<text text-anchor="middle" x="658" y="-481.8" font-family="Times,serif" font-size="14.00">gini = 0.5</text>
<text text-anchor="middle" x="658" y="-466.8" font-family="Times,serif" font-size="14.00">samples = 25791</text>
<text text-anchor="middle" x="658" y="-451.8" font-family="Times,serif" font-size="14.00">value = [12881, 12910]</text>
<text text-anchor="middle" x="658" y="-436.8" font-family="Times,serif" font-size="14.00">class = True</text>
</g>
<!-- 1 -->
<g id="node2" class="node">
<title>1</title>
<polygon fill="#fdfeff" stroke="black" points="574.5,-393 407.5,-393 407.5,-310 574.5,-310 574.5,-393"/>
<text text-anchor="middle" x="491" y="-377.8" font-family="Times,serif" font-size="14.00">CCR &lt;= 0.55</text>
<text text-anchor="middle" x="491" y="-362.8" font-family="Times,serif" font-size="14.00">gini = 0.5</text>
<text text-anchor="middle" x="491" y="-347.8" font-family="Times,serif" font-size="14.00">samples = 3829</text>
<text text-anchor="middle" x="491" y="-332.8" font-family="Times,serif" font-size="14.00">value = [1903, 1926]</text>
<text text-anchor="middle" x="491" y="-317.8" font-family="Times,serif" font-size="14.00">class = True</text>
</g>
<!-- 0&#45;&gt;1 -->
<g id="edge1" class="edge">
<title>0&#45;&gt;1</title>
<path fill="none" stroke="black" d="M600.06,-428.91C586.2,-419.2 571.3,-408.76 557.1,-398.81"/>
<polygon fill="black" stroke="black" points="559.04,-395.89 548.84,-393.02 555.02,-401.63 559.04,-395.89"/>
<text text-anchor="middle" x="553.17" y="-413.94" font-family="Times,serif" font-size="14.00">True</text>
</g>
<!-- 108 -->
<g id="node17" class="node">
<title>108</title>
<polygon fill="#ffffff" stroke="black" points="936.5,-393 751.5,-393 751.5,-310 936.5,-310 936.5,-393"/>
<text text-anchor="middle" x="844" y="-377.8" font-family="Times,serif" font-size="14.00">sdComm &lt;= 6.5</text>
<text text-anchor="middle" x="844" y="-362.8" font-family="Times,serif" font-size="14.00">gini = 0.5</text>
<text text-anchor="middle" x="844" y="-347.8" font-family="Times,serif" font-size="14.00">samples = 21962</text>
<text text-anchor="middle" x="844" y="-332.8" font-family="Times,serif" font-size="14.00">value = [10978, 10984]</text>
<text text-anchor="middle" x="844" y="-317.8" font-family="Times,serif" font-size="14.00">class = True</text>
</g>
<!-- 0&#45;&gt;108 -->
<g id="edge16" class="edge">
<title>0&#45;&gt;108</title>
<path fill="none" stroke="black" d="M722.53,-428.91C738.11,-419.11 754.87,-408.56 770.82,-398.53"/>
<polygon fill="black" stroke="black" points="772.98,-401.31 779.58,-393.02 769.25,-395.38 772.98,-401.31"/>
<text text-anchor="middle" x="774.03" y="-413.7" font-family="Times,serif" font-size="14.00">False</text>
</g>
<!-- 2 -->
<g id="node3" class="node">
<title>2</title>
<polygon fill="#ffffff" stroke="black" points="319.5,-274 170.5,-274 170.5,-191 319.5,-191 319.5,-274"/>
<text text-anchor="middle" x="245" y="-258.8" font-family="Times,serif" font-size="14.00">nbproc &lt;= 4.5</text>
<text text-anchor="middle" x="245" y="-243.8" font-family="Times,serif" font-size="14.00">gini = 0.5</text>
<text text-anchor="middle" x="245" y="-228.8" font-family="Times,serif" font-size="14.00">samples = 1770</text>
<text text-anchor="middle" x="245" y="-213.8" font-family="Times,serif" font-size="14.00">value = [884, 886]</text>
<text text-anchor="middle" x="245" y="-198.8" font-family="Times,serif" font-size="14.00">class = True</text>
</g>
<!-- 1&#45;&gt;2 -->
<g id="edge2" class="edge">
<title>1&#45;&gt;2</title>
<path fill="none" stroke="black" d="M407.37,-310.73C382.07,-298.69 354.27,-285.47 328.94,-273.42"/>
<polygon fill="black" stroke="black" points="330.27,-270.18 319.73,-269.04 327.26,-276.5 330.27,-270.18"/>
</g>
<!-- 37 -->
<g id="node10" class="node">
<title>37</title>
<polygon fill="#fbfdfe" stroke="black" points="574.5,-274 407.5,-274 407.5,-191 574.5,-191 574.5,-274"/>
<text text-anchor="middle" x="491" y="-258.8" font-family="Times,serif" font-size="14.00">sdComm &lt;= 0.2</text>
<text text-anchor="middle" x="491" y="-243.8" font-family="Times,serif" font-size="14.00">gini = 0.5</text>
<text text-anchor="middle" x="491" y="-228.8" font-family="Times,serif" font-size="14.00">samples = 2059</text>
<text text-anchor="middle" x="491" y="-213.8" font-family="Times,serif" font-size="14.00">value = [1019, 1040]</text>
<text text-anchor="middle" x="491" y="-198.8" font-family="Times,serif" font-size="14.00">class = True</text>
</g>
<!-- 1&#45;&gt;37 -->
<g id="edge9" class="edge">
<title>1&#45;&gt;37</title>
<path fill="none" stroke="black" d="M491,-309.91C491,-301.65 491,-292.86 491,-284.3"/>
<polygon fill="black" stroke="black" points="494.5,-284.02 491,-274.02 487.5,-284.02 494.5,-284.02"/>
</g>
<!-- 3 -->
<g id="node4" class="node">
<title>3</title>
<polygon fill="#fdfeff" stroke="black" points="152,-155 0,-155 0,-72 152,-72 152,-155"/>
<text text-anchor="middle" x="76" y="-139.8" font-family="Times,serif" font-size="14.00">sdComm &lt;= 0.065</text>
<text text-anchor="middle" x="76" y="-124.8" font-family="Times,serif" font-size="14.00">gini = 0.5</text>
<text text-anchor="middle" x="76" y="-109.8" font-family="Times,serif" font-size="14.00">samples = 474</text>
<text text-anchor="middle" x="76" y="-94.8" font-family="Times,serif" font-size="14.00">value = [236, 238]</text>
<text text-anchor="middle" x="76" y="-79.8" font-family="Times,serif" font-size="14.00">class = True</text>
</g>
<!-- 2&#45;&gt;3 -->
<g id="edge3" class="edge">
<title>2&#45;&gt;3</title>
<path fill="none" stroke="black" d="M186.37,-190.91C172.34,-181.2 157.26,-170.76 142.89,-160.81"/>
<polygon fill="black" stroke="black" points="144.74,-157.84 134.53,-155.02 140.76,-163.59 144.74,-157.84"/>
</g>
<!-- 20 -->
<g id="node7" class="node">
<title>20</title>
<polygon fill="#ffffff" stroke="black" points="319.5,-155 170.5,-155 170.5,-72 319.5,-72 319.5,-155"/>
<text text-anchor="middle" x="245" y="-139.8" font-family="Times,serif" font-size="14.00">sdComp &lt;= 0.02</text>
<text text-anchor="middle" x="245" y="-124.8" font-family="Times,serif" font-size="14.00">gini = 0.5</text>
<text text-anchor="middle" x="245" y="-109.8" font-family="Times,serif" font-size="14.00">samples = 1296</text>
<text text-anchor="middle" x="245" y="-94.8" font-family="Times,serif" font-size="14.00">value = [648, 648]</text>
<text text-anchor="middle" x="245" y="-79.8" font-family="Times,serif" font-size="14.00">class = False</text>
</g>
<!-- 2&#45;&gt;20 -->
<g id="edge6" class="edge">
<title>2&#45;&gt;20</title>
<path fill="none" stroke="black" d="M245,-190.91C245,-182.65 245,-173.86 245,-165.3"/>
<polygon fill="black" stroke="black" points="248.5,-165.02 245,-155.02 241.5,-165.02 248.5,-165.02"/>
</g>
<!-- 4 -->
<g id="node5" class="node">
<title>4</title>
<polygon fill="#c0c0c0" stroke="black" points="67,-36 13,-36 13,0 67,0 67,-36"/>
<text text-anchor="middle" x="40" y="-14.3" font-family="Times,serif" font-size="14.00">(...)</text>
</g>
<!-- 3&#45;&gt;4 -->
<g id="edge4" class="edge">
<title>3&#45;&gt;4</title>
<path fill="none" stroke="black" d="M60.31,-71.76C56.96,-63.04 53.49,-54.04 50.39,-45.99"/>
<polygon fill="black" stroke="black" points="53.56,-44.48 46.7,-36.41 47.03,-46.99 53.56,-44.48"/>
</g>
<!-- 15 -->
<g id="node6" class="node">
<title>15</title>
<polygon fill="#c0c0c0" stroke="black" points="139,-36 85,-36 85,0 139,0 139,-36"/>
<text text-anchor="middle" x="112" y="-14.3" font-family="Times,serif" font-size="14.00">(...)</text>
</g>
<!-- 3&#45;&gt;15 -->
<g id="edge5" class="edge">
<title>3&#45;&gt;15</title>
<path fill="none" stroke="black" d="M91.69,-71.76C95.04,-63.04 98.51,-54.04 101.61,-45.99"/>
<polygon fill="black" stroke="black" points="104.97,-46.99 105.3,-36.41 98.44,-44.48 104.97,-46.99"/>
</g>
<!-- 21 -->
<g id="node8" class="node">
<title>21</title>
<polygon fill="#c0c0c0" stroke="black" points="242,-36 188,-36 188,0 242,0 242,-36"/>
<text text-anchor="middle" x="215" y="-14.3" font-family="Times,serif" font-size="14.00">(...)</text>
</g>
<!-- 20&#45;&gt;21 -->
<g id="edge7" class="edge">
<title>20&#45;&gt;21</title>
<path fill="none" stroke="black" d="M231.93,-71.76C229.13,-63.04 226.24,-54.04 223.66,-45.99"/>
<polygon fill="black" stroke="black" points="226.97,-44.86 220.58,-36.41 220.31,-47 226.97,-44.86"/>
</g>
<!-- 26 -->
<g id="node9" class="node">
<title>26</title>
<polygon fill="#c0c0c0" stroke="black" points="314,-36 260,-36 260,0 314,0 314,-36"/>
<text text-anchor="middle" x="287" y="-14.3" font-family="Times,serif" font-size="14.00">(...)</text>
</g>
<!-- 20&#45;&gt;26 -->
<g id="edge8" class="edge">
<title>20&#45;&gt;26</title>
<path fill="none" stroke="black" d="M263.3,-71.76C267.26,-62.94 271.35,-53.84 275,-45.72"/>
<polygon fill="black" stroke="black" points="278.28,-46.96 279.18,-36.41 271.89,-44.09 278.28,-46.96"/>
</g>
<!-- 38 -->
<g id="node11" class="node">
<title>38</title>
<polygon fill="#ebf5fc" stroke="black" points="486.5,-155 337.5,-155 337.5,-72 486.5,-72 486.5,-155"/>
<text text-anchor="middle" x="412" y="-139.8" font-family="Times,serif" font-size="14.00">sdComp &lt;= 0.65</text>
<text text-anchor="middle" x="412" y="-124.8" font-family="Times,serif" font-size="14.00">gini = 0.499</text>
<text text-anchor="middle" x="412" y="-109.8" font-family="Times,serif" font-size="14.00">samples = 319</text>
<text text-anchor="middle" x="412" y="-94.8" font-family="Times,serif" font-size="14.00">value = [151, 168]</text>
<text text-anchor="middle" x="412" y="-79.8" font-family="Times,serif" font-size="14.00">class = True</text>
</g>
<!-- 37&#45;&gt;38 -->
<g id="edge10" class="edge">
<title>37&#45;&gt;38</title>
<path fill="none" stroke="black" d="M463.59,-190.91C457.59,-182.01 451.17,-172.51 444.97,-163.33"/>
<polygon fill="black" stroke="black" points="447.86,-161.35 439.36,-155.02 442.06,-165.27 447.86,-161.35"/>
</g>
<!-- 49 -->
<g id="node14" class="node">
<title>49</title>
<polygon fill="#feffff" stroke="black" points="653.5,-155 504.5,-155 504.5,-72 653.5,-72 653.5,-155"/>
<text text-anchor="middle" x="579" y="-139.8" font-family="Times,serif" font-size="14.00">nbproc &lt;= 4.5</text>
<text text-anchor="middle" x="579" y="-124.8" font-family="Times,serif" font-size="14.00">gini = 0.5</text>
<text text-anchor="middle" x="579" y="-109.8" font-family="Times,serif" font-size="14.00">samples = 1740</text>
<text text-anchor="middle" x="579" y="-94.8" font-family="Times,serif" font-size="14.00">value = [868, 872]</text>
<text text-anchor="middle" x="579" y="-79.8" font-family="Times,serif" font-size="14.00">class = True</text>
</g>
<!-- 37&#45;&gt;49 -->
<g id="edge13" class="edge">
<title>37&#45;&gt;49</title>
<path fill="none" stroke="black" d="M521.53,-190.91C528.29,-181.92 535.52,-172.32 542.48,-163.05"/>
<polygon fill="black" stroke="black" points="545.31,-165.12 548.52,-155.02 539.71,-160.91 545.31,-165.12"/>
</g>
<!-- 39 -->
<g id="node12" class="node">
<title>39</title>
<polygon fill="#c0c0c0" stroke="black" points="415,-36 361,-36 361,0 415,0 415,-36"/>
<text text-anchor="middle" x="388" y="-14.3" font-family="Times,serif" font-size="14.00">(...)</text>
</g>
<!-- 38&#45;&gt;39 -->
<g id="edge11" class="edge">
<title>38&#45;&gt;39</title>
<path fill="none" stroke="black" d="M401.54,-71.76C399.33,-63.14 397.05,-54.24 395,-46.26"/>
<polygon fill="black" stroke="black" points="398.34,-45.22 392.47,-36.41 391.56,-46.96 398.34,-45.22"/>
</g>
<!-- 46 -->
<g id="node13" class="node">
<title>46</title>
<polygon fill="#c0c0c0" stroke="black" points="487,-36 433,-36 433,0 487,0 487,-36"/>
<text text-anchor="middle" x="460" y="-14.3" font-family="Times,serif" font-size="14.00">(...)</text>
</g>
<!-- 38&#45;&gt;46 -->
<g id="edge12" class="edge">
<title>38&#45;&gt;46</title>
<path fill="none" stroke="black" d="M432.91,-71.76C437.49,-62.85 442.22,-53.64 446.42,-45.46"/>
<polygon fill="black" stroke="black" points="449.61,-46.9 451.06,-36.41 443.38,-43.7 449.61,-46.9"/>
</g>
<!-- 50 -->
<g id="node15" class="node">
<title>50</title>
<polygon fill="#c0c0c0" stroke="black" points="577,-36 523,-36 523,0 577,0 577,-36"/>
<text text-anchor="middle" x="550" y="-14.3" font-family="Times,serif" font-size="14.00">(...)</text>
</g>
<!-- 49&#45;&gt;50 -->
<g id="edge14" class="edge">
<title>49&#45;&gt;50</title>
<path fill="none" stroke="black" d="M566.36,-71.76C563.66,-63.04 560.87,-54.04 558.37,-45.99"/>
<polygon fill="black" stroke="black" points="561.7,-44.92 555.4,-36.41 555.02,-46.99 561.7,-44.92"/>
</g>
<!-- 79 -->
<g id="node16" class="node">
<title>79</title>
<polygon fill="#c0c0c0" stroke="black" points="649,-36 595,-36 595,0 649,0 649,-36"/>
<text text-anchor="middle" x="622" y="-14.3" font-family="Times,serif" font-size="14.00">(...)</text>
</g>
<!-- 49&#45;&gt;79 -->
<g id="edge15" class="edge">
<title>49&#45;&gt;79</title>
<path fill="none" stroke="black" d="M597.74,-71.76C601.79,-62.94 605.98,-53.84 609.71,-45.72"/>
<polygon fill="black" stroke="black" points="613,-46.95 614,-36.41 606.64,-44.03 613,-46.95"/>
</g>
<!-- 109 -->
<g id="node18" class="node">
<title>109</title>
<polygon fill="#ffffff" stroke="black" points="927.5,-274 760.5,-274 760.5,-191 927.5,-191 927.5,-274"/>
<text text-anchor="middle" x="844" y="-258.8" font-family="Times,serif" font-size="14.00">graphDepth &lt;= 6.5</text>
<text text-anchor="middle" x="844" y="-243.8" font-family="Times,serif" font-size="14.00">gini = 0.5</text>
<text text-anchor="middle" x="844" y="-228.8" font-family="Times,serif" font-size="14.00">samples = 19082</text>
<text text-anchor="middle" x="844" y="-213.8" font-family="Times,serif" font-size="14.00">value = [9541, 9541]</text>
<text text-anchor="middle" x="844" y="-198.8" font-family="Times,serif" font-size="14.00">class = False</text>
</g>
<!-- 108&#45;&gt;109 -->
<g id="edge17" class="edge">
<title>108&#45;&gt;109</title>
<path fill="none" stroke="black" d="M844,-309.91C844,-301.65 844,-292.86 844,-284.3"/>
<polygon fill="black" stroke="black" points="847.5,-284.02 844,-274.02 840.5,-284.02 847.5,-284.02"/>
</g>
<!-- 748 -->
<g id="node25" class="node">
<title>748</title>
<polygon fill="#feffff" stroke="black" points="1201.5,-274 1034.5,-274 1034.5,-191 1201.5,-191 1201.5,-274"/>
<text text-anchor="middle" x="1118" y="-258.8" font-family="Times,serif" font-size="14.00">graphDepth &lt;= 9.0</text>
<text text-anchor="middle" x="1118" y="-243.8" font-family="Times,serif" font-size="14.00">gini = 0.5</text>
<text text-anchor="middle" x="1118" y="-228.8" font-family="Times,serif" font-size="14.00">samples = 2880</text>
<text text-anchor="middle" x="1118" y="-213.8" font-family="Times,serif" font-size="14.00">value = [1437, 1443]</text>
<text text-anchor="middle" x="1118" y="-198.8" font-family="Times,serif" font-size="14.00">class = True</text>
</g>
<!-- 108&#45;&gt;748 -->
<g id="edge24" class="edge">
<title>108&#45;&gt;748</title>
<path fill="none" stroke="black" d="M936.76,-310.89C965.08,-298.8 996.22,-285.5 1024.58,-273.39"/>
<polygon fill="black" stroke="black" points="1026.26,-276.48 1034.08,-269.33 1023.51,-270.04 1026.26,-276.48"/>
</g>
<!-- 110 -->
<g id="node19" class="node">
<title>110</title>
<polygon fill="#ffffff" stroke="black" points="838.5,-155 671.5,-155 671.5,-72 838.5,-72 838.5,-155"/>
<text text-anchor="middle" x="755" y="-139.8" font-family="Times,serif" font-size="14.00">nbproc &lt;= 4.5</text>
<text text-anchor="middle" x="755" y="-124.8" font-family="Times,serif" font-size="14.00">gini = 0.5</text>
<text text-anchor="middle" x="755" y="-109.8" font-family="Times,serif" font-size="14.00">samples = 11090</text>
<text text-anchor="middle" x="755" y="-94.8" font-family="Times,serif" font-size="14.00">value = [5545, 5545]</text>
<text text-anchor="middle" x="755" y="-79.8" font-family="Times,serif" font-size="14.00">class = False</text>
</g>
<!-- 109&#45;&gt;110 -->
<g id="edge18" class="edge">
<title>109&#45;&gt;110</title>
<path fill="none" stroke="black" d="M813.12,-190.91C806.29,-181.92 798.98,-172.32 791.93,-163.05"/>
<polygon fill="black" stroke="black" points="794.66,-160.86 785.82,-155.02 789.09,-165.1 794.66,-160.86"/>
</g>
<!-- 299 -->
<g id="node22" class="node">
<title>299</title>
<polygon fill="#ffffff" stroke="black" points="1023.5,-155 856.5,-155 856.5,-72 1023.5,-72 1023.5,-155"/>
<text text-anchor="middle" x="940" y="-139.8" font-family="Times,serif" font-size="14.00">graphSize &lt;= 40.0</text>
<text text-anchor="middle" x="940" y="-124.8" font-family="Times,serif" font-size="14.00">gini = 0.5</text>
<text text-anchor="middle" x="940" y="-109.8" font-family="Times,serif" font-size="14.00">samples = 7992</text>
<text text-anchor="middle" x="940" y="-94.8" font-family="Times,serif" font-size="14.00">value = [3996, 3996]</text>
<text text-anchor="middle" x="940" y="-79.8" font-family="Times,serif" font-size="14.00">class = False</text>
</g>
<!-- 109&#45;&gt;299 -->
<g id="edge21" class="edge">
<title>109&#45;&gt;299</title>
<path fill="none" stroke="black" d="M877.31,-190.91C884.75,-181.83 892.72,-172.12 900.39,-162.77"/>
<polygon fill="black" stroke="black" points="903.11,-164.97 906.75,-155.02 897.7,-160.53 903.11,-164.97"/>
</g>
<!-- 111 -->
<g id="node20" class="node">
<title>111</title>
<polygon fill="#c0c0c0" stroke="black" points="730,-36 676,-36 676,0 730,0 730,-36"/>
<text text-anchor="middle" x="703" y="-14.3" font-family="Times,serif" font-size="14.00">(...)</text>
</g>
<!-- 110&#45;&gt;111 -->
<g id="edge19" class="edge">
<title>110&#45;&gt;111</title>
<path fill="none" stroke="black" d="M732.34,-71.76C727.33,-62.75 722.15,-53.44 717.57,-45.19"/>
<polygon fill="black" stroke="black" points="720.6,-43.44 712.68,-36.41 714.48,-46.85 720.6,-43.44"/>
</g>
<!-- 206 -->
<g id="node21" class="node">
<title>206</title>
<polygon fill="#c0c0c0" stroke="black" points="802,-36 748,-36 748,0 802,0 802,-36"/>
<text text-anchor="middle" x="775" y="-14.3" font-family="Times,serif" font-size="14.00">(...)</text>
</g>
<!-- 110&#45;&gt;206 -->
<g id="edge20" class="edge">
<title>110&#45;&gt;206</title>
<path fill="none" stroke="black" d="M763.71,-71.76C765.56,-63.14 767.46,-54.24 769.17,-46.26"/>
<polygon fill="black" stroke="black" points="772.61,-46.92 771.28,-36.41 765.76,-45.45 772.61,-46.92"/>
</g>
<!-- 300 -->
<g id="node23" class="node">
<title>300</title>
<polygon fill="#c0c0c0" stroke="black" points="912,-36 858,-36 858,0 912,0 912,-36"/>
<text text-anchor="middle" x="885" y="-14.3" font-family="Times,serif" font-size="14.00">(...)</text>
</g>
<!-- 299&#45;&gt;300 -->
<g id="edge22" class="edge">
<title>299&#45;&gt;300</title>
<path fill="none" stroke="black" d="M916.04,-71.76C910.74,-62.75 905.26,-53.44 900.41,-45.19"/>
<polygon fill="black" stroke="black" points="903.33,-43.25 895.24,-36.41 897.29,-46.8 903.33,-43.25"/>
</g>
<!-- 393 -->
<g id="node24" class="node">
<title>393</title>
<polygon fill="#c0c0c0" stroke="black" points="984,-36 930,-36 930,0 984,0 984,-36"/>
<text text-anchor="middle" x="957" y="-14.3" font-family="Times,serif" font-size="14.00">(...)</text>
</g>
<!-- 299&#45;&gt;393 -->
<g id="edge23" class="edge">
<title>299&#45;&gt;393</title>
<path fill="none" stroke="black" d="M947.41,-71.76C948.97,-63.14 950.59,-54.24 952.04,-46.26"/>
<polygon fill="black" stroke="black" points="955.49,-46.87 953.84,-36.41 948.6,-45.62 955.49,-46.87"/>
</g>
<!-- 749 -->
<g id="node26" class="node">
<title>749</title>
<polygon fill="#fdfeff" stroke="black" points="1194.5,-155 1041.5,-155 1041.5,-72 1194.5,-72 1194.5,-155"/>
<text text-anchor="middle" x="1118" y="-139.8" font-family="Times,serif" font-size="14.00">graphSize &lt;= 22.5</text>
<text text-anchor="middle" x="1118" y="-124.8" font-family="Times,serif" font-size="14.00">gini = 0.5</text>
<text text-anchor="middle" x="1118" y="-109.8" font-family="Times,serif" font-size="14.00">samples = 1180</text>
<text text-anchor="middle" x="1118" y="-94.8" font-family="Times,serif" font-size="14.00">value = [587, 593]</text>
<text text-anchor="middle" x="1118" y="-79.8" font-family="Times,serif" font-size="14.00">class = True</text>
</g>
<!-- 748&#45;&gt;749 -->
<g id="edge25" class="edge">
<title>748&#45;&gt;749</title>
<path fill="none" stroke="black" d="M1118,-190.91C1118,-182.65 1118,-173.86 1118,-165.3"/>
<polygon fill="black" stroke="black" points="1121.5,-165.02 1118,-155.02 1114.5,-165.02 1121.5,-165.02"/>
</g>
<!-- 784 -->
<g id="node29" class="node">
<title>784</title>
<polygon fill="#ffffff" stroke="black" points="1365.5,-155 1212.5,-155 1212.5,-72 1365.5,-72 1365.5,-155"/>
<text text-anchor="middle" x="1289" y="-139.8" font-family="Times,serif" font-size="14.00">graphSize &lt;= 40.0</text>
<text text-anchor="middle" x="1289" y="-124.8" font-family="Times,serif" font-size="14.00">gini = 0.5</text>
<text text-anchor="middle" x="1289" y="-109.8" font-family="Times,serif" font-size="14.00">samples = 1700</text>
<text text-anchor="middle" x="1289" y="-94.8" font-family="Times,serif" font-size="14.00">value = [850, 850]</text>
<text text-anchor="middle" x="1289" y="-79.8" font-family="Times,serif" font-size="14.00">class = False</text>
</g>
<!-- 748&#45;&gt;784 -->
<g id="edge28" class="edge">
<title>748&#45;&gt;784</title>
<path fill="none" stroke="black" d="M1177.33,-190.91C1191.52,-181.2 1206.78,-170.76 1221.31,-160.81"/>
<polygon fill="black" stroke="black" points="1223.5,-163.56 1229.78,-155.02 1219.55,-157.78 1223.5,-163.56"/>
</g>
<!-- 750 -->
<g id="node27" class="node">
<title>750</title>
<polygon fill="#c0c0c0" stroke="black" points="1104,-36 1050,-36 1050,0 1104,0 1104,-36"/>
<text text-anchor="middle" x="1077" y="-14.3" font-family="Times,serif" font-size="14.00">(...)</text>
</g>
<!-- 749&#45;&gt;750 -->
<g id="edge26" class="edge">
<title>749&#45;&gt;750</title>
<path fill="none" stroke="black" d="M1100.14,-71.76C1096.27,-62.94 1092.28,-53.84 1088.72,-45.72"/>
<polygon fill="black" stroke="black" points="1091.85,-44.16 1084.63,-36.41 1085.44,-46.97 1091.85,-44.16"/>
</g>
<!-- 761 -->
<g id="node28" class="node">
<title>761</title>
<polygon fill="#c0c0c0" stroke="black" points="1176,-36 1122,-36 1122,0 1176,0 1176,-36"/>
<text text-anchor="middle" x="1149" y="-14.3" font-family="Times,serif" font-size="14.00">(...)</text>
</g>
<!-- 749&#45;&gt;761 -->
<g id="edge27" class="edge">
<title>749&#45;&gt;761</title>
<path fill="none" stroke="black" d="M1131.51,-71.76C1134.4,-63.04 1137.38,-54.04 1140.05,-45.99"/>
<polygon fill="black" stroke="black" points="1143.4,-47 1143.23,-36.41 1136.76,-44.8 1143.4,-47"/>
</g>
<!-- 785 -->
<g id="node30" class="node">
<title>785</title>
<polygon fill="#c0c0c0" stroke="black" points="1280,-36 1226,-36 1226,0 1280,0 1280,-36"/>
<text text-anchor="middle" x="1253" y="-14.3" font-family="Times,serif" font-size="14.00">(...)</text>
</g>
<!-- 784&#45;&gt;785 -->
<g id="edge29" class="edge">
<title>784&#45;&gt;785</title>
<path fill="none" stroke="black" d="M1273.31,-71.76C1269.96,-63.04 1266.49,-54.04 1263.39,-45.99"/>
<polygon fill="black" stroke="black" points="1266.56,-44.48 1259.7,-36.41 1260.03,-46.99 1266.56,-44.48"/>
</g>
<!-- 796 -->
<g id="node31" class="node">
<title>796</title>
<polygon fill="#c0c0c0" stroke="black" points="1352,-36 1298,-36 1298,0 1352,0 1352,-36"/>
<text text-anchor="middle" x="1325" y="-14.3" font-family="Times,serif" font-size="14.00">(...)</text>
</g>
<!-- 784&#45;&gt;796 -->
<g id="edge30" class="edge">
<title>784&#45;&gt;796</title>
<path fill="none" stroke="black" d="M1304.69,-71.76C1308.04,-63.04 1311.51,-54.04 1314.61,-45.99"/>
<polygon fill="black" stroke="black" points="1317.97,-46.99 1318.3,-36.41 1311.44,-44.48 1317.97,-46.99"/>
</g>
</g>
</svg>
