<?xml version="1.0" encoding="UTF-8" standalone="no"?>
<!DOCTYPE svg PUBLIC "-//W3C//DTD SVG 1.1//EN"
 "http://www.w3.org/Graphics/SVG/1.1/DTD/svg11.dtd">
<!-- Generated by graphviz version 2.43.0 (0)
 -->
<!-- Title: Tree Pages: 1 -->
<svg width="1407pt" height="520pt"
 viewBox="0.00 0.00 1406.50 520.00" xmlns="http://www.w3.org/2000/svg" xmlns:xlink="http://www.w3.org/1999/xlink">
<g id="graph0" class="graph" transform="scale(1 1) rotate(0) translate(4 516)">
<title>Tree</title>
<polygon fill="white" stroke="transparent" points="-4,4 -4,-516 1402.5,-516 1402.5,4 -4,4"/>
<!-- 0 -->
<g id="node1" class="node">
<title>0</title>
<polygon fill="#a9d5f4" stroke="black" points="800.5,-512 624.5,-512 624.5,-429 800.5,-429 800.5,-512"/>
<text text-anchor="middle" x="712.5" y="-496.8" font-family="Times,serif" font-size="14.00">CCR &lt;= 5.5</text>
<text text-anchor="middle" x="712.5" y="-481.8" font-family="Times,serif" font-size="14.00">gini = 0.462</text>
<text text-anchor="middle" x="712.5" y="-466.8" font-family="Times,serif" font-size="14.00">samples = 25791</text>
<text text-anchor="middle" x="712.5" y="-451.8" font-family="Times,serif" font-size="14.00">value = [9327, 16464]</text>
<text text-anchor="middle" x="712.5" y="-436.8" font-family="Times,serif" font-size="14.00">class = True</text>
</g>
<!-- 1 -->
<g id="node2" class="node">
<title>1</title>
<polygon fill="#cde6f8" stroke="black" points="611,-393 444,-393 444,-310 611,-310 611,-393"/>
<text text-anchor="middle" x="527.5" y="-377.8" font-family="Times,serif" font-size="14.00">nbproc &lt;= 4.5</text>
<text text-anchor="middle" x="527.5" y="-362.8" font-family="Times,serif" font-size="14.00">gini = 0.489</text>
<text text-anchor="middle" x="527.5" y="-347.8" font-family="Times,serif" font-size="14.00">samples = 16087</text>
<text text-anchor="middle" x="527.5" y="-332.8" font-family="Times,serif" font-size="14.00">value = [6877, 9210]</text>
<text text-anchor="middle" x="527.5" y="-317.8" font-family="Times,serif" font-size="14.00">class = True</text>
</g>
<!-- 0&#45;&gt;1 -->
<g id="edge1" class="edge">
<title>0&#45;&gt;1</title>
<path fill="none" stroke="black" d="M648.32,-428.91C632.82,-419.11 616.15,-408.56 600.29,-398.53"/>
<polygon fill="black" stroke="black" points="601.89,-395.41 591.57,-393.02 598.15,-401.32 601.89,-395.41"/>
<text text-anchor="middle" x="597.06" y="-413.71" font-family="Times,serif" font-size="14.00">True</text>
</g>
<!-- 522 -->
<g id="node17" class="node">
<title>522</title>
<polygon fill="#7cbeee" stroke="black" points="970,-393 803,-393 803,-310 970,-310 970,-393"/>
<text text-anchor="middle" x="886.5" y="-377.8" font-family="Times,serif" font-size="14.00">sdComp &lt;= 6.5</text>
<text text-anchor="middle" x="886.5" y="-362.8" font-family="Times,serif" font-size="14.00">gini = 0.377</text>
<text text-anchor="middle" x="886.5" y="-347.8" font-family="Times,serif" font-size="14.00">samples = 9704</text>
<text text-anchor="middle" x="886.5" y="-332.8" font-family="Times,serif" font-size="14.00">value = [2450, 7254]</text>
<text text-anchor="middle" x="886.5" y="-317.8" font-family="Times,serif" font-size="14.00">class = True</text>
</g>
<!-- 0&#45;&gt;522 -->
<g id="edge16" class="edge">
<title>0&#45;&gt;522</title>
<path fill="none" stroke="black" d="M772.87,-428.91C787.31,-419.2 802.83,-408.76 817.63,-398.81"/>
<polygon fill="black" stroke="black" points="819.89,-401.51 826.24,-393.02 815.99,-395.7 819.89,-401.51"/>
<text text-anchor="middle" x="821.43" y="-413.85" font-family="Times,serif" font-size="14.00">False</text>
</g>
<!-- 2 -->
<g id="node3" class="node">
<title>2</title>
<polygon fill="#abd5f4" stroke="black" points="334,-274 167,-274 167,-191 334,-191 334,-274"/>
<text text-anchor="middle" x="250.5" y="-258.8" font-family="Times,serif" font-size="14.00">graphDepth &lt;= 3.5</text>
<text text-anchor="middle" x="250.5" y="-243.8" font-family="Times,serif" font-size="14.00">gini = 0.463</text>
<text text-anchor="middle" x="250.5" y="-228.8" font-family="Times,serif" font-size="14.00">samples = 5348</text>
<text text-anchor="middle" x="250.5" y="-213.8" font-family="Times,serif" font-size="14.00">value = [1950, 3398]</text>
<text text-anchor="middle" x="250.5" y="-198.8" font-family="Times,serif" font-size="14.00">class = True</text>
</g>
<!-- 1&#45;&gt;2 -->
<g id="edge2" class="edge">
<title>1&#45;&gt;2</title>
<path fill="none" stroke="black" d="M443.64,-315.08C412.04,-301.73 375.93,-286.48 343.55,-272.8"/>
<polygon fill="black" stroke="black" points="344.65,-269.47 334.08,-268.8 341.93,-275.92 344.65,-269.47"/>
</g>
<!-- 255 -->
<g id="node10" class="node">
<title>255</title>
<polygon fill="#e1f0fb" stroke="black" points="611,-274 444,-274 444,-191 611,-191 611,-274"/>
<text text-anchor="middle" x="527.5" y="-258.8" font-family="Times,serif" font-size="14.00">sdComm &lt;= 0.02</text>
<text text-anchor="middle" x="527.5" y="-243.8" font-family="Times,serif" font-size="14.00">gini = 0.497</text>
<text text-anchor="middle" x="527.5" y="-228.8" font-family="Times,serif" font-size="14.00">samples = 10739</text>
<text text-anchor="middle" x="527.5" y="-213.8" font-family="Times,serif" font-size="14.00">value = [4927, 5812]</text>
<text text-anchor="middle" x="527.5" y="-198.8" font-family="Times,serif" font-size="14.00">class = True</text>
</g>
<!-- 1&#45;&gt;255 -->
<g id="edge9" class="edge">
<title>1&#45;&gt;255</title>
<path fill="none" stroke="black" d="M527.5,-309.91C527.5,-301.65 527.5,-292.86 527.5,-284.3"/>
<polygon fill="black" stroke="black" points="531,-284.02 527.5,-274.02 524,-284.02 531,-284.02"/>
</g>
<!-- 3 -->
<g id="node4" class="node">
<title>3</title>
<polygon fill="#77bced" stroke="black" points="149,-155 0,-155 0,-72 149,-72 149,-155"/>
<text text-anchor="middle" x="74.5" y="-139.8" font-family="Times,serif" font-size="14.00">sdComp &lt;= 0.065</text>
<text text-anchor="middle" x="74.5" y="-124.8" font-family="Times,serif" font-size="14.00">gini = 0.363</text>
<text text-anchor="middle" x="74.5" y="-109.8" font-family="Times,serif" font-size="14.00">samples = 972</text>
<text text-anchor="middle" x="74.5" y="-94.8" font-family="Times,serif" font-size="14.00">value = [232, 740]</text>
<text text-anchor="middle" x="74.5" y="-79.8" font-family="Times,serif" font-size="14.00">class = True</text>
</g>
<!-- 2&#45;&gt;3 -->
<g id="edge3" class="edge">
<title>2&#45;&gt;3</title>
<path fill="none" stroke="black" d="M189.44,-190.91C174.83,-181.2 159.13,-170.76 144.16,-160.81"/>
<polygon fill="black" stroke="black" points="145.72,-157.64 135.45,-155.02 141.84,-163.47 145.72,-157.64"/>
</g>
<!-- 24 -->
<g id="node7" class="node">
<title>24</title>
<polygon fill="#b9dcf6" stroke="black" points="334,-155 167,-155 167,-72 334,-72 334,-155"/>
<text text-anchor="middle" x="250.5" y="-139.8" font-family="Times,serif" font-size="14.00">sdComp &lt;= 0.65</text>
<text text-anchor="middle" x="250.5" y="-124.8" font-family="Times,serif" font-size="14.00">gini = 0.477</text>
<text text-anchor="middle" x="250.5" y="-109.8" font-family="Times,serif" font-size="14.00">samples = 4376</text>
<text text-anchor="middle" x="250.5" y="-94.8" font-family="Times,serif" font-size="14.00">value = [1718, 2658]</text>
<text text-anchor="middle" x="250.5" y="-79.8" font-family="Times,serif" font-size="14.00">class = True</text>
</g>
<!-- 2&#45;&gt;24 -->
<g id="edge6" class="edge">
<title>2&#45;&gt;24</title>
<path fill="none" stroke="black" d="M250.5,-190.91C250.5,-182.65 250.5,-173.86 250.5,-165.3"/>
<polygon fill="black" stroke="black" points="254,-165.02 250.5,-155.02 247,-165.02 254,-165.02"/>
</g>
<!-- 4 -->
<g id="node5" class="node">
<title>4</title>
<polygon fill="#c0c0c0" stroke="black" points="65.5,-36 11.5,-36 11.5,0 65.5,0 65.5,-36"/>
<text text-anchor="middle" x="38.5" y="-14.3" font-family="Times,serif" font-size="14.00">(...)</text>
</g>
<!-- 3&#45;&gt;4 -->
<g id="edge4" class="edge">
<title>3&#45;&gt;4</title>
<path fill="none" stroke="black" d="M58.81,-71.76C55.46,-63.04 51.99,-54.04 48.89,-45.99"/>
<polygon fill="black" stroke="black" points="52.06,-44.48 45.2,-36.41 45.53,-46.99 52.06,-44.48"/>
</g>
<!-- 5 -->
<g id="node6" class="node">
<title>5</title>
<polygon fill="#c0c0c0" stroke="black" points="137.5,-36 83.5,-36 83.5,0 137.5,0 137.5,-36"/>
<text text-anchor="middle" x="110.5" y="-14.3" font-family="Times,serif" font-size="14.00">(...)</text>
</g>
<!-- 3&#45;&gt;5 -->
<g id="edge5" class="edge">
<title>3&#45;&gt;5</title>
<path fill="none" stroke="black" d="M90.19,-71.76C93.54,-63.04 97.01,-54.04 100.11,-45.99"/>
<polygon fill="black" stroke="black" points="103.47,-46.99 103.8,-36.41 96.94,-44.48 103.47,-46.99"/>
</g>
<!-- 25 -->
<g id="node8" class="node">
<title>25</title>
<polygon fill="#c0c0c0" stroke="black" points="248.5,-36 194.5,-36 194.5,0 248.5,0 248.5,-36"/>
<text text-anchor="middle" x="221.5" y="-14.3" font-family="Times,serif" font-size="14.00">(...)</text>
</g>
<!-- 24&#45;&gt;25 -->
<g id="edge7" class="edge">
<title>24&#45;&gt;25</title>
<path fill="none" stroke="black" d="M237.86,-71.76C235.16,-63.04 232.37,-54.04 229.87,-45.99"/>
<polygon fill="black" stroke="black" points="233.2,-44.92 226.9,-36.41 226.52,-46.99 233.2,-44.92"/>
</g>
<!-- 222 -->
<g id="node9" class="node">
<title>222</title>
<polygon fill="#c0c0c0" stroke="black" points="320.5,-36 266.5,-36 266.5,0 320.5,0 320.5,-36"/>
<text text-anchor="middle" x="293.5" y="-14.3" font-family="Times,serif" font-size="14.00">(...)</text>
</g>
<!-- 24&#45;&gt;222 -->
<g id="edge8" class="edge">
<title>24&#45;&gt;222</title>
<path fill="none" stroke="black" d="M269.24,-71.76C273.29,-62.94 277.48,-53.84 281.21,-45.72"/>
<polygon fill="black" stroke="black" points="284.5,-46.95 285.5,-36.41 278.14,-44.03 284.5,-46.95"/>
</g>
<!-- 256 -->
<g id="node11" class="node">
<title>256</title>
<polygon fill="#f5fafe" stroke="black" points="519,-155 352,-155 352,-72 519,-72 519,-155"/>
<text text-anchor="middle" x="435.5" y="-139.8" font-family="Times,serif" font-size="14.00">graphDepth &lt;= 25.5</text>
<text text-anchor="middle" x="435.5" y="-124.8" font-family="Times,serif" font-size="14.00">gini = 0.5</text>
<text text-anchor="middle" x="435.5" y="-109.8" font-family="Times,serif" font-size="14.00">samples = 2268</text>
<text text-anchor="middle" x="435.5" y="-94.8" font-family="Times,serif" font-size="14.00">value = [1104, 1164]</text>
<text text-anchor="middle" x="435.5" y="-79.8" font-family="Times,serif" font-size="14.00">class = True</text>
</g>
<!-- 255&#45;&gt;256 -->
<g id="edge10" class="edge">
<title>255&#45;&gt;256</title>
<path fill="none" stroke="black" d="M495.58,-190.91C488.52,-181.92 480.96,-172.32 473.68,-163.05"/>
<polygon fill="black" stroke="black" points="476.3,-160.72 467.36,-155.02 470.79,-165.05 476.3,-160.72"/>
</g>
<!-- 303 -->
<g id="node14" class="node">
<title>303</title>
<polygon fill="#dceefa" stroke="black" points="704,-155 537,-155 537,-72 704,-72 704,-155"/>
<text text-anchor="middle" x="620.5" y="-139.8" font-family="Times,serif" font-size="14.00">sdComp &lt;= 0.2</text>
<text text-anchor="middle" x="620.5" y="-124.8" font-family="Times,serif" font-size="14.00">gini = 0.495</text>
<text text-anchor="middle" x="620.5" y="-109.8" font-family="Times,serif" font-size="14.00">samples = 8471</text>
<text text-anchor="middle" x="620.5" y="-94.8" font-family="Times,serif" font-size="14.00">value = [3823, 4648]</text>
<text text-anchor="middle" x="620.5" y="-79.8" font-family="Times,serif" font-size="14.00">class = True</text>
</g>
<!-- 255&#45;&gt;303 -->
<g id="edge13" class="edge">
<title>255&#45;&gt;303</title>
<path fill="none" stroke="black" d="M559.77,-190.91C566.91,-181.92 574.54,-172.32 581.91,-163.05"/>
<polygon fill="black" stroke="black" points="584.81,-165.03 588.29,-155.02 579.33,-160.67 584.81,-165.03"/>
</g>
<!-- 257 -->
<g id="node12" class="node">
<title>257</title>
<polygon fill="#c0c0c0" stroke="black" points="410.5,-36 356.5,-36 356.5,0 410.5,0 410.5,-36"/>
<text text-anchor="middle" x="383.5" y="-14.3" font-family="Times,serif" font-size="14.00">(...)</text>
</g>
<!-- 256&#45;&gt;257 -->
<g id="edge11" class="edge">
<title>256&#45;&gt;257</title>
<path fill="none" stroke="black" d="M412.84,-71.76C407.83,-62.75 402.65,-53.44 398.07,-45.19"/>
<polygon fill="black" stroke="black" points="401.1,-43.44 393.18,-36.41 394.98,-46.85 401.1,-43.44"/>
</g>
<!-- 298 -->
<g id="node13" class="node">
<title>298</title>
<polygon fill="#c0c0c0" stroke="black" points="482.5,-36 428.5,-36 428.5,0 482.5,0 482.5,-36"/>
<text text-anchor="middle" x="455.5" y="-14.3" font-family="Times,serif" font-size="14.00">(...)</text>
</g>
<!-- 256&#45;&gt;298 -->
<g id="edge12" class="edge">
<title>256&#45;&gt;298</title>
<path fill="none" stroke="black" d="M444.21,-71.76C446.06,-63.14 447.96,-54.24 449.67,-46.26"/>
<polygon fill="black" stroke="black" points="453.11,-46.92 451.78,-36.41 446.26,-45.45 453.11,-46.92"/>
</g>
<!-- 304 -->
<g id="node15" class="node">
<title>304</title>
<polygon fill="#c0c0c0" stroke="black" points="595.5,-36 541.5,-36 541.5,0 595.5,0 595.5,-36"/>
<text text-anchor="middle" x="568.5" y="-14.3" font-family="Times,serif" font-size="14.00">(...)</text>
</g>
<!-- 303&#45;&gt;304 -->
<g id="edge14" class="edge">
<title>303&#45;&gt;304</title>
<path fill="none" stroke="black" d="M597.84,-71.76C592.83,-62.75 587.65,-53.44 583.07,-45.19"/>
<polygon fill="black" stroke="black" points="586.1,-43.44 578.18,-36.41 579.98,-46.85 586.1,-43.44"/>
</g>
<!-- 435 -->
<g id="node16" class="node">
<title>435</title>
<polygon fill="#c0c0c0" stroke="black" points="667.5,-36 613.5,-36 613.5,0 667.5,0 667.5,-36"/>
<text text-anchor="middle" x="640.5" y="-14.3" font-family="Times,serif" font-size="14.00">(...)</text>
</g>
<!-- 303&#45;&gt;435 -->
<g id="edge15" class="edge">
<title>303&#45;&gt;435</title>
<path fill="none" stroke="black" d="M629.21,-71.76C631.06,-63.14 632.96,-54.24 634.67,-46.26"/>
<polygon fill="black" stroke="black" points="638.11,-46.92 636.78,-36.41 631.26,-45.45 638.11,-46.92"/>
</g>
<!-- 523 -->
<g id="node18" class="node">
<title>523</title>
<polygon fill="#6fb8ec" stroke="black" points="970,-274 803,-274 803,-191 970,-191 970,-274"/>
<text text-anchor="middle" x="886.5" y="-258.8" font-family="Times,serif" font-size="14.00">graphDepth &lt;= 25.5</text>
<text text-anchor="middle" x="886.5" y="-243.8" font-family="Times,serif" font-size="14.00">gini = 0.336</text>
<text text-anchor="middle" x="886.5" y="-228.8" font-family="Times,serif" font-size="14.00">samples = 6930</text>
<text text-anchor="middle" x="886.5" y="-213.8" font-family="Times,serif" font-size="14.00">value = [1478, 5452]</text>
<text text-anchor="middle" x="886.5" y="-198.8" font-family="Times,serif" font-size="14.00">class = True</text>
</g>
<!-- 522&#45;&gt;523 -->
<g id="edge17" class="edge">
<title>522&#45;&gt;523</title>
<path fill="none" stroke="black" d="M886.5,-309.91C886.5,-301.65 886.5,-292.86 886.5,-284.3"/>
<polygon fill="black" stroke="black" points="890,-284.02 886.5,-274.02 883,-284.02 890,-284.02"/>
</g>
<!-- 686 -->
<g id="node25" class="node">
<title>686</title>
<polygon fill="#a4d2f3" stroke="black" points="1227.5,-274 1069.5,-274 1069.5,-191 1227.5,-191 1227.5,-274"/>
<text text-anchor="middle" x="1148.5" y="-258.8" font-family="Times,serif" font-size="14.00">sdComm &lt;= 2.0</text>
<text text-anchor="middle" x="1148.5" y="-243.8" font-family="Times,serif" font-size="14.00">gini = 0.455</text>
<text text-anchor="middle" x="1148.5" y="-228.8" font-family="Times,serif" font-size="14.00">samples = 2774</text>
<text text-anchor="middle" x="1148.5" y="-213.8" font-family="Times,serif" font-size="14.00">value = [972, 1802]</text>
<text text-anchor="middle" x="1148.5" y="-198.8" font-family="Times,serif" font-size="14.00">class = True</text>
</g>
<!-- 522&#45;&gt;686 -->
<g id="edge24" class="edge">
<title>522&#45;&gt;686</title>
<path fill="none" stroke="black" d="M970.12,-313.16C998.77,-300.37 1030.91,-286.01 1059.94,-273.05"/>
<polygon fill="black" stroke="black" points="1061.54,-276.17 1069.24,-268.89 1058.68,-269.78 1061.54,-276.17"/>
</g>
<!-- 524 -->
<g id="node19" class="node">
<title>524</title>
<polygon fill="#68b4eb" stroke="black" points="889,-155 722,-155 722,-72 889,-72 889,-155"/>
<text text-anchor="middle" x="805.5" y="-139.8" font-family="Times,serif" font-size="14.00">graphSize &lt;= 75.0</text>
<text text-anchor="middle" x="805.5" y="-124.8" font-family="Times,serif" font-size="14.00">gini = 0.309</text>
<text text-anchor="middle" x="805.5" y="-109.8" font-family="Times,serif" font-size="14.00">samples = 5854</text>
<text text-anchor="middle" x="805.5" y="-94.8" font-family="Times,serif" font-size="14.00">value = [1116, 4738]</text>
<text text-anchor="middle" x="805.5" y="-79.8" font-family="Times,serif" font-size="14.00">class = True</text>
</g>
<!-- 523&#45;&gt;524 -->
<g id="edge18" class="edge">
<title>523&#45;&gt;524</title>
<path fill="none" stroke="black" d="M858.4,-190.91C852.24,-182.01 845.66,-172.51 839.31,-163.33"/>
<polygon fill="black" stroke="black" points="842.12,-161.25 833.55,-155.02 836.37,-165.24 842.12,-161.25"/>
</g>
<!-- 663 -->
<g id="node22" class="node">
<title>663</title>
<polygon fill="#9dcff2" stroke="black" points="1056,-155 907,-155 907,-72 1056,-72 1056,-155"/>
<text text-anchor="middle" x="981.5" y="-139.8" font-family="Times,serif" font-size="14.00">nbproc &lt;= 4.5</text>
<text text-anchor="middle" x="981.5" y="-124.8" font-family="Times,serif" font-size="14.00">gini = 0.446</text>
<text text-anchor="middle" x="981.5" y="-109.8" font-family="Times,serif" font-size="14.00">samples = 1076</text>
<text text-anchor="middle" x="981.5" y="-94.8" font-family="Times,serif" font-size="14.00">value = [362, 714]</text>
<text text-anchor="middle" x="981.5" y="-79.8" font-family="Times,serif" font-size="14.00">class = True</text>
</g>
<!-- 523&#45;&gt;663 -->
<g id="edge21" class="edge">
<title>523&#45;&gt;663</title>
<path fill="none" stroke="black" d="M919.46,-190.91C926.75,-181.92 934.56,-172.32 942.08,-163.05"/>
<polygon fill="black" stroke="black" points="945.01,-164.99 948.6,-155.02 939.58,-160.58 945.01,-164.99"/>
</g>
<!-- 525 -->
<g id="node20" class="node">
<title>525</title>
<polygon fill="#c0c0c0" stroke="black" points="776.5,-36 722.5,-36 722.5,0 776.5,0 776.5,-36"/>
<text text-anchor="middle" x="749.5" y="-14.3" font-family="Times,serif" font-size="14.00">(...)</text>
</g>
<!-- 524&#45;&gt;525 -->
<g id="edge19" class="edge">
<title>524&#45;&gt;525</title>
<path fill="none" stroke="black" d="M781.1,-71.76C775.7,-62.75 770.13,-53.44 765.19,-45.19"/>
<polygon fill="black" stroke="black" points="768.07,-43.19 759.92,-36.41 762.06,-46.78 768.07,-43.19"/>
</g>
<!-- 646 -->
<g id="node21" class="node">
<title>646</title>
<polygon fill="#c0c0c0" stroke="black" points="848.5,-36 794.5,-36 794.5,0 848.5,0 848.5,-36"/>
<text text-anchor="middle" x="821.5" y="-14.3" font-family="Times,serif" font-size="14.00">(...)</text>
</g>
<!-- 524&#45;&gt;646 -->
<g id="edge20" class="edge">
<title>524&#45;&gt;646</title>
<path fill="none" stroke="black" d="M812.47,-71.76C813.93,-63.24 815.44,-54.44 816.79,-46.53"/>
<polygon fill="black" stroke="black" points="820.28,-46.85 818.52,-36.41 813.38,-45.67 820.28,-46.85"/>
</g>
<!-- 664 -->
<g id="node23" class="node">
<title>664</title>
<polygon fill="#c0c0c0" stroke="black" points="947.5,-36 893.5,-36 893.5,0 947.5,0 947.5,-36"/>
<text text-anchor="middle" x="920.5" y="-14.3" font-family="Times,serif" font-size="14.00">(...)</text>
</g>
<!-- 663&#45;&gt;664 -->
<g id="edge22" class="edge">
<title>663&#45;&gt;664</title>
<path fill="none" stroke="black" d="M954.92,-71.76C948.98,-62.65 942.84,-53.24 937.41,-44.92"/>
<polygon fill="black" stroke="black" points="940.25,-42.87 931.86,-36.41 934.39,-46.69 940.25,-42.87"/>
</g>
<!-- 675 -->
<g id="node24" class="node">
<title>675</title>
<polygon fill="#c0c0c0" stroke="black" points="1019.5,-36 965.5,-36 965.5,0 1019.5,0 1019.5,-36"/>
<text text-anchor="middle" x="992.5" y="-14.3" font-family="Times,serif" font-size="14.00">(...)</text>
</g>
<!-- 663&#45;&gt;675 -->
<g id="edge23" class="edge">
<title>663&#45;&gt;675</title>
<path fill="none" stroke="black" d="M986.29,-71.76C987.3,-63.24 988.33,-54.44 989.26,-46.53"/>
<polygon fill="black" stroke="black" points="992.76,-46.75 990.45,-36.41 985.81,-45.93 992.76,-46.75"/>
</g>
<!-- 687 -->
<g id="node26" class="node">
<title>687</title>
<polygon fill="#bbddf6" stroke="black" points="1223,-155 1074,-155 1074,-72 1223,-72 1223,-155"/>
<text text-anchor="middle" x="1148.5" y="-139.8" font-family="Times,serif" font-size="14.00">nbproc &lt;= 4.5</text>
<text text-anchor="middle" x="1148.5" y="-124.8" font-family="Times,serif" font-size="14.00">gini = 0.479</text>
<text text-anchor="middle" x="1148.5" y="-109.8" font-family="Times,serif" font-size="14.00">samples = 1124</text>
<text text-anchor="middle" x="1148.5" y="-94.8" font-family="Times,serif" font-size="14.00">value = [446, 678]</text>
<text text-anchor="middle" x="1148.5" y="-79.8" font-family="Times,serif" font-size="14.00">class = True</text>
</g>
<!-- 686&#45;&gt;687 -->
<g id="edge25" class="edge">
<title>686&#45;&gt;687</title>
<path fill="none" stroke="black" d="M1148.5,-190.91C1148.5,-182.65 1148.5,-173.86 1148.5,-165.3"/>
<polygon fill="black" stroke="black" points="1152,-165.02 1148.5,-155.02 1145,-165.02 1152,-165.02"/>
</g>
<!-- 712 -->
<g id="node29" class="node">
<title>712</title>
<polygon fill="#96cbf1" stroke="black" points="1398.5,-155 1240.5,-155 1240.5,-72 1398.5,-72 1398.5,-155"/>
<text text-anchor="middle" x="1319.5" y="-139.8" font-family="Times,serif" font-size="14.00">graphDepth &lt;= 3.5</text>
<text text-anchor="middle" x="1319.5" y="-124.8" font-family="Times,serif" font-size="14.00">gini = 0.434</text>
<text text-anchor="middle" x="1319.5" y="-109.8" font-family="Times,serif" font-size="14.00">samples = 1650</text>
<text text-anchor="middle" x="1319.5" y="-94.8" font-family="Times,serif" font-size="14.00">value = [526, 1124]</text>
<text text-anchor="middle" x="1319.5" y="-79.8" font-family="Times,serif" font-size="14.00">class = True</text>
</g>
<!-- 686&#45;&gt;712 -->
<g id="edge28" class="edge">
<title>686&#45;&gt;712</title>
<path fill="none" stroke="black" d="M1207.83,-190.91C1222.02,-181.2 1237.28,-170.76 1251.81,-160.81"/>
<polygon fill="black" stroke="black" points="1254,-163.56 1260.28,-155.02 1250.05,-157.78 1254,-163.56"/>
</g>
<!-- 688 -->
<g id="node27" class="node">
<title>688</title>
<polygon fill="#c0c0c0" stroke="black" points="1134.5,-36 1080.5,-36 1080.5,0 1134.5,0 1134.5,-36"/>
<text text-anchor="middle" x="1107.5" y="-14.3" font-family="Times,serif" font-size="14.00">(...)</text>
</g>
<!-- 687&#45;&gt;688 -->
<g id="edge26" class="edge">
<title>687&#45;&gt;688</title>
<path fill="none" stroke="black" d="M1130.64,-71.76C1126.77,-62.94 1122.78,-53.84 1119.22,-45.72"/>
<polygon fill="black" stroke="black" points="1122.35,-44.16 1115.13,-36.41 1115.94,-46.97 1122.35,-44.16"/>
</g>
<!-- 701 -->
<g id="node28" class="node">
<title>701</title>
<polygon fill="#c0c0c0" stroke="black" points="1206.5,-36 1152.5,-36 1152.5,0 1206.5,0 1206.5,-36"/>
<text text-anchor="middle" x="1179.5" y="-14.3" font-family="Times,serif" font-size="14.00">(...)</text>
</g>
<!-- 687&#45;&gt;701 -->
<g id="edge27" class="edge">
<title>687&#45;&gt;701</title>
<path fill="none" stroke="black" d="M1162.01,-71.76C1164.9,-63.04 1167.88,-54.04 1170.55,-45.99"/>
<polygon fill="black" stroke="black" points="1173.9,-47 1173.73,-36.41 1167.26,-44.8 1173.9,-47"/>
</g>
<!-- 713 -->
<g id="node30" class="node">
<title>713</title>
<polygon fill="#c0c0c0" stroke="black" points="1310.5,-36 1256.5,-36 1256.5,0 1310.5,0 1310.5,-36"/>
<text text-anchor="middle" x="1283.5" y="-14.3" font-family="Times,serif" font-size="14.00">(...)</text>
</g>
<!-- 712&#45;&gt;713 -->
<g id="edge29" class="edge">
<title>712&#45;&gt;713</title>
<path fill="none" stroke="black" d="M1303.81,-71.76C1300.46,-63.04 1296.99,-54.04 1293.89,-45.99"/>
<polygon fill="black" stroke="black" points="1297.06,-44.48 1290.2,-36.41 1290.53,-46.99 1297.06,-44.48"/>
</g>
<!-- 720 -->
<g id="node31" class="node">
<title>720</title>
<polygon fill="#c0c0c0" stroke="black" points="1382.5,-36 1328.5,-36 1328.5,0 1382.5,0 1382.5,-36"/>
<text text-anchor="middle" x="1355.5" y="-14.3" font-family="Times,serif" font-size="14.00">(...)</text>
</g>
<!-- 712&#45;&gt;720 -->
<g id="edge30" class="edge">
<title>712&#45;&gt;720</title>
<path fill="none" stroke="black" d="M1335.19,-71.76C1338.54,-63.04 1342.01,-54.04 1345.11,-45.99"/>
<polygon fill="black" stroke="black" points="1348.47,-46.99 1348.8,-36.41 1341.94,-44.48 1348.47,-46.99"/>
</g>
</g>
</svg>
