<?xml version="1.0" encoding="UTF-8" standalone="no"?>
<!DOCTYPE svg PUBLIC "-//W3C//DTD SVG 1.1//EN"
 "http://www.w3.org/Graphics/SVG/1.1/DTD/svg11.dtd">
<!-- Generated by graphviz version 2.43.0 (0)
 -->
<!-- Title: Tree Pages: 1 -->
<svg width="2641pt" height="520pt"
 viewBox="0.00 0.00 2641.00 520.00" xmlns="http://www.w3.org/2000/svg" xmlns:xlink="http://www.w3.org/1999/xlink">
<g id="graph0" class="graph" transform="scale(1 1) rotate(0) translate(4 516)">
<title>Tree</title>
<polygon fill="white" stroke="transparent" points="-4,4 -4,-516 2637,-516 2637,4 -4,4"/>
<!-- 0 -->
<g id="node1" class="node">
<title>0</title>
<polygon fill="#fffefd" stroke="black" points="1460.5,-512 1077.5,-512 1077.5,-429 1460.5,-429 1460.5,-512"/>
<text text-anchor="middle" x="1269" y="-496.8" font-family="Times,serif" font-size="14.00">CCR &lt;= 0.55</text>
<text text-anchor="middle" x="1269" y="-481.8" font-family="Times,serif" font-size="14.00">gini = 0.834</text>
<text text-anchor="middle" x="1269" y="-466.8" font-family="Times,serif" font-size="14.00">samples = 25791</text>
<text text-anchor="middle" x="1269" y="-451.8" font-family="Times,serif" font-size="14.00">value = [4955, 3791, 232, 3850, 3944, 4304, 4715]</text>
<text text-anchor="middle" x="1269" y="-436.8" font-family="Times,serif" font-size="14.00">class = rku</text>
</g>
<!-- 1 -->
<g id="node2" class="node">
<title>1</title>
<polygon fill="#fdfdff" stroke="black" points="1134,-393 760,-393 760,-310 1134,-310 1134,-393"/>
<text text-anchor="middle" x="947" y="-377.8" font-family="Times,serif" font-size="14.00">sdComp &lt;= 0.065</text>
<text text-anchor="middle" x="947" y="-362.8" font-family="Times,serif" font-size="14.00">gini = 0.832</text>
<text text-anchor="middle" x="947" y="-347.8" font-family="Times,serif" font-size="14.00">samples = 10064</text>
<text text-anchor="middle" x="947" y="-332.8" font-family="Times,serif" font-size="14.00">value = [1736, 1316, 30, 1700, 1874, 1784, 1624]</text>
<text text-anchor="middle" x="947" y="-317.8" font-family="Times,serif" font-size="14.00">class = cluHPS</text>
</g>
<!-- 0&#45;&gt;1 -->
<g id="edge1" class="edge">
<title>0&#45;&gt;1</title>
<path fill="none" stroke="black" d="M1157.28,-428.91C1128.44,-418.43 1097.25,-407.1 1067.96,-396.45"/>
<polygon fill="black" stroke="black" points="1069.11,-393.15 1058.52,-393.02 1066.72,-399.73 1069.11,-393.15"/>
<text text-anchor="middle" x="1069.1" y="-411.97" font-family="Times,serif" font-size="14.00">True</text>
</g>
<!-- 272 -->
<g id="node17" class="node">
<title>272</title>
<polygon fill="#fffefd" stroke="black" points="1801.5,-393 1418.5,-393 1418.5,-310 1801.5,-310 1801.5,-393"/>
<text text-anchor="middle" x="1610" y="-377.8" font-family="Times,serif" font-size="14.00">CCR &lt;= 5.5</text>
<text text-anchor="middle" x="1610" y="-362.8" font-family="Times,serif" font-size="14.00">gini = 0.833</text>
<text text-anchor="middle" x="1610" y="-347.8" font-family="Times,serif" font-size="14.00">samples = 15727</text>
<text text-anchor="middle" x="1610" y="-332.8" font-family="Times,serif" font-size="14.00">value = [3219, 2475, 202, 2150, 2070, 2520, 3091]</text>
<text text-anchor="middle" x="1610" y="-317.8" font-family="Times,serif" font-size="14.00">class = rku</text>
</g>
<!-- 0&#45;&gt;272 -->
<g id="edge16" class="edge">
<title>0&#45;&gt;272</title>
<path fill="none" stroke="black" d="M1387.31,-428.91C1417.99,-418.38 1451.17,-407 1482.31,-396.31"/>
<polygon fill="black" stroke="black" points="1483.58,-399.58 1491.9,-393.02 1481.31,-392.96 1483.58,-399.58"/>
<text text-anchor="middle" x="1480.92" y="-411.78" font-family="Times,serif" font-size="14.00">False</text>
</g>
<!-- 2 -->
<g id="node3" class="node">
<title>2</title>
<polygon fill="#fffdfc" stroke="black" points="640,-274 320,-274 320,-191 640,-191 640,-274"/>
<text text-anchor="middle" x="480" y="-258.8" font-family="Times,serif" font-size="14.00">graphSize &lt;= 40.0</text>
<text text-anchor="middle" x="480" y="-243.8" font-family="Times,serif" font-size="14.00">gini = 0.827</text>
<text text-anchor="middle" x="480" y="-228.8" font-family="Times,serif" font-size="14.00">samples = 3946</text>
<text text-anchor="middle" x="480" y="-213.8" font-family="Times,serif" font-size="14.00">value = [840, 454, 30, 552, 524, 796, 750]</text>
<text text-anchor="middle" x="480" y="-198.8" font-family="Times,serif" font-size="14.00">class = rku</text>
</g>
<!-- 1&#45;&gt;2 -->
<g id="edge2" class="edge">
<title>1&#45;&gt;2</title>
<path fill="none" stroke="black" d="M785.3,-309.99C741.69,-299.06 694.38,-287.21 650.31,-276.17"/>
<polygon fill="black" stroke="black" points="650.92,-272.71 640.37,-273.68 649.22,-279.5 650.92,-272.71"/>
</g>
<!-- 181 -->
<g id="node10" class="node">
<title>181</title>
<polygon fill="#f7f8fe" stroke="black" points="1111.5,-274 782.5,-274 782.5,-191 1111.5,-191 1111.5,-274"/>
<text text-anchor="middle" x="947" y="-258.8" font-family="Times,serif" font-size="14.00">nbproc &lt;= 4.5</text>
<text text-anchor="middle" x="947" y="-243.8" font-family="Times,serif" font-size="14.00">gini = 0.828</text>
<text text-anchor="middle" x="947" y="-228.8" font-family="Times,serif" font-size="14.00">samples = 6118</text>
<text text-anchor="middle" x="947" y="-213.8" font-family="Times,serif" font-size="14.00">value = [896, 862, 0, 1148, 1350, 988, 874]</text>
<text text-anchor="middle" x="947" y="-198.8" font-family="Times,serif" font-size="14.00">class = cluHPS</text>
</g>
<!-- 1&#45;&gt;181 -->
<g id="edge9" class="edge">
<title>1&#45;&gt;181</title>
<path fill="none" stroke="black" d="M947,-309.91C947,-301.65 947,-292.86 947,-284.3"/>
<polygon fill="black" stroke="black" points="950.5,-284.02 947,-274.02 943.5,-284.02 950.5,-284.02"/>
</g>
<!-- 3 -->
<g id="node4" class="node">
<title>3</title>
<polygon fill="#fffdfe" stroke="black" points="320,-155 0,-155 0,-72 320,-72 320,-155"/>
<text text-anchor="middle" x="160" y="-139.8" font-family="Times,serif" font-size="14.00">nbproc &lt;= 4.5</text>
<text text-anchor="middle" x="160" y="-124.8" font-family="Times,serif" font-size="14.00">gini = 0.834</text>
<text text-anchor="middle" x="160" y="-109.8" font-family="Times,serif" font-size="14.00">samples = 3174</text>
<text text-anchor="middle" x="160" y="-94.8" font-family="Times,serif" font-size="14.00">value = [578, 438, 28, 532, 456, 544, 598]</text>
<text text-anchor="middle" x="160" y="-79.8" font-family="Times,serif" font-size="14.00">class = rkuad</text>
</g>
<!-- 2&#45;&gt;3 -->
<g id="edge3" class="edge">
<title>2&#45;&gt;3</title>
<path fill="none" stroke="black" d="M368.98,-190.91C340.43,-180.47 309.59,-169.19 280.59,-158.59"/>
<polygon fill="black" stroke="black" points="281.42,-155.17 270.83,-155.02 279.02,-161.74 281.42,-155.17"/>
</g>
<!-- 96 -->
<g id="node7" class="node">
<title>96</title>
<polygon fill="#fffdfb" stroke="black" points="622,-155 338,-155 338,-72 622,-72 622,-155"/>
<text text-anchor="middle" x="480" y="-139.8" font-family="Times,serif" font-size="14.00">graphSize &lt;= 75.0</text>
<text text-anchor="middle" x="480" y="-124.8" font-family="Times,serif" font-size="14.00">gini = 0.731</text>
<text text-anchor="middle" x="480" y="-109.8" font-family="Times,serif" font-size="14.00">samples = 772</text>
<text text-anchor="middle" x="480" y="-94.8" font-family="Times,serif" font-size="14.00">value = [262, 16, 2, 20, 68, 252, 152]</text>
<text text-anchor="middle" x="480" y="-79.8" font-family="Times,serif" font-size="14.00">class = rku</text>
</g>
<!-- 2&#45;&gt;96 -->
<g id="edge6" class="edge">
<title>2&#45;&gt;96</title>
<path fill="none" stroke="black" d="M480,-190.91C480,-182.65 480,-173.86 480,-165.3"/>
<polygon fill="black" stroke="black" points="483.5,-165.02 480,-155.02 476.5,-165.02 483.5,-165.02"/>
</g>
<!-- 4 -->
<g id="node5" class="node">
<title>4</title>
<polygon fill="#c0c0c0" stroke="black" points="151,-36 97,-36 97,0 151,0 151,-36"/>
<text text-anchor="middle" x="124" y="-14.3" font-family="Times,serif" font-size="14.00">(...)</text>
</g>
<!-- 3&#45;&gt;4 -->
<g id="edge4" class="edge">
<title>3&#45;&gt;4</title>
<path fill="none" stroke="black" d="M144.31,-71.76C140.96,-63.04 137.49,-54.04 134.39,-45.99"/>
<polygon fill="black" stroke="black" points="137.56,-44.48 130.7,-36.41 131.03,-46.99 137.56,-44.48"/>
</g>
<!-- 51 -->
<g id="node6" class="node">
<title>51</title>
<polygon fill="#c0c0c0" stroke="black" points="223,-36 169,-36 169,0 223,0 223,-36"/>
<text text-anchor="middle" x="196" y="-14.3" font-family="Times,serif" font-size="14.00">(...)</text>
</g>
<!-- 3&#45;&gt;51 -->
<g id="edge5" class="edge">
<title>3&#45;&gt;51</title>
<path fill="none" stroke="black" d="M175.69,-71.76C179.04,-63.04 182.51,-54.04 185.61,-45.99"/>
<polygon fill="black" stroke="black" points="188.97,-46.99 189.3,-36.41 182.44,-44.48 188.97,-46.99"/>
</g>
<!-- 97 -->
<g id="node8" class="node">
<title>97</title>
<polygon fill="#c0c0c0" stroke="black" points="471,-36 417,-36 417,0 471,0 471,-36"/>
<text text-anchor="middle" x="444" y="-14.3" font-family="Times,serif" font-size="14.00">(...)</text>
</g>
<!-- 96&#45;&gt;97 -->
<g id="edge7" class="edge">
<title>96&#45;&gt;97</title>
<path fill="none" stroke="black" d="M464.31,-71.76C460.96,-63.04 457.49,-54.04 454.39,-45.99"/>
<polygon fill="black" stroke="black" points="457.56,-44.48 450.7,-36.41 451.03,-46.99 457.56,-44.48"/>
</g>
<!-- 138 -->
<g id="node9" class="node">
<title>138</title>
<polygon fill="#c0c0c0" stroke="black" points="543,-36 489,-36 489,0 543,0 543,-36"/>
<text text-anchor="middle" x="516" y="-14.3" font-family="Times,serif" font-size="14.00">(...)</text>
</g>
<!-- 96&#45;&gt;138 -->
<g id="edge8" class="edge">
<title>96&#45;&gt;138</title>
<path fill="none" stroke="black" d="M495.69,-71.76C499.04,-63.04 502.51,-54.04 505.61,-45.99"/>
<polygon fill="black" stroke="black" points="508.97,-46.99 509.3,-36.41 502.44,-44.48 508.97,-46.99"/>
</g>
<!-- 182 -->
<g id="node11" class="node">
<title>182</title>
<polygon fill="#e9ecfc" stroke="black" points="951.5,-155 640.5,-155 640.5,-72 951.5,-72 951.5,-155"/>
<text text-anchor="middle" x="796" y="-139.8" font-family="Times,serif" font-size="14.00">graphDepth &lt;= 13.5</text>
<text text-anchor="middle" x="796" y="-124.8" font-family="Times,serif" font-size="14.00">gini = 0.795</text>
<text text-anchor="middle" x="796" y="-109.8" font-family="Times,serif" font-size="14.00">samples = 1966</text>
<text text-anchor="middle" x="796" y="-94.8" font-family="Times,serif" font-size="14.00">value = [184, 256, 0, 446, 618, 278, 184]</text>
<text text-anchor="middle" x="796" y="-79.8" font-family="Times,serif" font-size="14.00">class = cluHPS</text>
</g>
<!-- 181&#45;&gt;182 -->
<g id="edge10" class="edge">
<title>181&#45;&gt;182</title>
<path fill="none" stroke="black" d="M894.61,-190.91C882.31,-181.38 869.11,-171.15 856.49,-161.37"/>
<polygon fill="black" stroke="black" points="858.34,-158.38 848.3,-155.02 854.06,-163.91 858.34,-158.38"/>
</g>
<!-- 227 -->
<g id="node14" class="node">
<title>227</title>
<polygon fill="#fefeff" stroke="black" points="1280.5,-155 969.5,-155 969.5,-72 1280.5,-72 1280.5,-155"/>
<text text-anchor="middle" x="1125" y="-139.8" font-family="Times,serif" font-size="14.00">sdComm &lt;= 0.02</text>
<text text-anchor="middle" x="1125" y="-124.8" font-family="Times,serif" font-size="14.00">gini = 0.833</text>
<text text-anchor="middle" x="1125" y="-109.8" font-family="Times,serif" font-size="14.00">samples = 4152</text>
<text text-anchor="middle" x="1125" y="-94.8" font-family="Times,serif" font-size="14.00">value = [712, 606, 0, 702, 732, 710, 690]</text>
<text text-anchor="middle" x="1125" y="-79.8" font-family="Times,serif" font-size="14.00">class = cluHPS</text>
</g>
<!-- 181&#45;&gt;227 -->
<g id="edge13" class="edge">
<title>181&#45;&gt;227</title>
<path fill="none" stroke="black" d="M1008.76,-190.91C1023.67,-181.11 1039.71,-170.56 1054.97,-160.53"/>
<polygon fill="black" stroke="black" points="1056.92,-163.44 1063.35,-155.02 1053.07,-157.59 1056.92,-163.44"/>
</g>
<!-- 183 -->
<g id="node12" class="node">
<title>183</title>
<polygon fill="#c0c0c0" stroke="black" points="787,-36 733,-36 733,0 787,0 787,-36"/>
<text text-anchor="middle" x="760" y="-14.3" font-family="Times,serif" font-size="14.00">(...)</text>
</g>
<!-- 182&#45;&gt;183 -->
<g id="edge11" class="edge">
<title>182&#45;&gt;183</title>
<path fill="none" stroke="black" d="M780.31,-71.76C776.96,-63.04 773.49,-54.04 770.39,-45.99"/>
<polygon fill="black" stroke="black" points="773.56,-44.48 766.7,-36.41 767.03,-46.99 773.56,-44.48"/>
</g>
<!-- 212 -->
<g id="node13" class="node">
<title>212</title>
<polygon fill="#c0c0c0" stroke="black" points="859,-36 805,-36 805,0 859,0 859,-36"/>
<text text-anchor="middle" x="832" y="-14.3" font-family="Times,serif" font-size="14.00">(...)</text>
</g>
<!-- 182&#45;&gt;212 -->
<g id="edge12" class="edge">
<title>182&#45;&gt;212</title>
<path fill="none" stroke="black" d="M811.69,-71.76C815.04,-63.04 818.51,-54.04 821.61,-45.99"/>
<polygon fill="black" stroke="black" points="824.97,-46.99 825.3,-36.41 818.44,-44.48 824.97,-46.99"/>
</g>
<!-- 228 -->
<g id="node15" class="node">
<title>228</title>
<polygon fill="#c0c0c0" stroke="black" points="1116,-36 1062,-36 1062,0 1116,0 1116,-36"/>
<text text-anchor="middle" x="1089" y="-14.3" font-family="Times,serif" font-size="14.00">(...)</text>
</g>
<!-- 227&#45;&gt;228 -->
<g id="edge14" class="edge">
<title>227&#45;&gt;228</title>
<path fill="none" stroke="black" d="M1109.31,-71.76C1105.96,-63.04 1102.49,-54.04 1099.39,-45.99"/>
<polygon fill="black" stroke="black" points="1102.56,-44.48 1095.7,-36.41 1096.03,-46.99 1102.56,-44.48"/>
</g>
<!-- 243 -->
<g id="node16" class="node">
<title>243</title>
<polygon fill="#c0c0c0" stroke="black" points="1188,-36 1134,-36 1134,0 1188,0 1188,-36"/>
<text text-anchor="middle" x="1161" y="-14.3" font-family="Times,serif" font-size="14.00">(...)</text>
</g>
<!-- 227&#45;&gt;243 -->
<g id="edge15" class="edge">
<title>227&#45;&gt;243</title>
<path fill="none" stroke="black" d="M1140.69,-71.76C1144.04,-63.04 1147.51,-54.04 1150.61,-45.99"/>
<polygon fill="black" stroke="black" points="1153.97,-46.99 1154.3,-36.41 1147.44,-44.48 1153.97,-46.99"/>
</g>
<!-- 273 -->
<g id="node18" class="node">
<title>273</title>
<polygon fill="#fefcfa" stroke="black" points="1783.5,-274 1436.5,-274 1436.5,-191 1783.5,-191 1783.5,-274"/>
<text text-anchor="middle" x="1610" y="-258.8" font-family="Times,serif" font-size="14.00">graphSize &lt;= 40.0</text>
<text text-anchor="middle" x="1610" y="-243.8" font-family="Times,serif" font-size="14.00">gini = 0.825</text>
<text text-anchor="middle" x="1610" y="-228.8" font-family="Times,serif" font-size="14.00">samples = 6023</text>
<text text-anchor="middle" x="1610" y="-213.8" font-family="Times,serif" font-size="14.00">value = [1371, 687, 52, 868, 712, 1082, 1251]</text>
<text text-anchor="middle" x="1610" y="-198.8" font-family="Times,serif" font-size="14.00">class = rku</text>
</g>
<!-- 272&#45;&gt;273 -->
<g id="edge17" class="edge">
<title>272&#45;&gt;273</title>
<path fill="none" stroke="black" d="M1610,-309.91C1610,-301.65 1610,-292.86 1610,-284.3"/>
<polygon fill="black" stroke="black" points="1613.5,-284.02 1610,-274.02 1606.5,-284.02 1613.5,-284.02"/>
</g>
<!-- 548 -->
<g id="node25" class="node">
<title>548</title>
<polygon fill="#ffffff" stroke="black" points="2326.5,-274 1943.5,-274 1943.5,-191 2326.5,-191 2326.5,-274"/>
<text text-anchor="middle" x="2135" y="-258.8" font-family="Times,serif" font-size="14.00">nbproc &lt;= 4.5</text>
<text text-anchor="middle" x="2135" y="-243.8" font-family="Times,serif" font-size="14.00">gini = 0.835</text>
<text text-anchor="middle" x="2135" y="-228.8" font-family="Times,serif" font-size="14.00">samples = 9704</text>
<text text-anchor="middle" x="2135" y="-213.8" font-family="Times,serif" font-size="14.00">value = [1848, 1788, 150, 1282, 1358, 1438, 1840]</text>
<text text-anchor="middle" x="2135" y="-198.8" font-family="Times,serif" font-size="14.00">class = rku</text>
</g>
<!-- 272&#45;&gt;548 -->
<g id="edge24" class="edge">
<title>272&#45;&gt;548</title>
<path fill="none" stroke="black" d="M1791.78,-309.99C1840.66,-299.1 1893.69,-287.28 1943.1,-276.27"/>
<polygon fill="black" stroke="black" points="1943.94,-279.67 1952.93,-274.07 1942.41,-272.83 1943.94,-279.67"/>
</g>
<!-- 274 -->
<g id="node19" class="node">
<title>274</title>
<polygon fill="#fffefe" stroke="black" points="1637,-155 1299,-155 1299,-72 1637,-72 1637,-155"/>
<text text-anchor="middle" x="1468" y="-139.8" font-family="Times,serif" font-size="14.00">graphDepth &lt;= 3.5</text>
<text text-anchor="middle" x="1468" y="-124.8" font-family="Times,serif" font-size="14.00">gini = 0.828</text>
<text text-anchor="middle" x="1468" y="-109.8" font-family="Times,serif" font-size="14.00">samples = 5049</text>
<text text-anchor="middle" x="1468" y="-94.8" font-family="Times,serif" font-size="14.00">value = [1073, 637, 28, 762, 646, 858, 1045]</text>
<text text-anchor="middle" x="1468" y="-79.8" font-family="Times,serif" font-size="14.00">class = rku</text>
</g>
<!-- 273&#45;&gt;274 -->
<g id="edge18" class="edge">
<title>273&#45;&gt;274</title>
<path fill="none" stroke="black" d="M1560.73,-190.91C1549.28,-181.47 1536.99,-171.34 1525.22,-161.65"/>
<polygon fill="black" stroke="black" points="1527.12,-158.68 1517.18,-155.02 1522.67,-164.08 1527.12,-158.68"/>
</g>
<!-- 417 -->
<g id="node22" class="node">
<title>417</title>
<polygon fill="#fcf3eb" stroke="black" points="1957,-155 1655,-155 1655,-72 1957,-72 1957,-155"/>
<text text-anchor="middle" x="1806" y="-139.8" font-family="Times,serif" font-size="14.00">sdComp &lt;= 0.65</text>
<text text-anchor="middle" x="1806" y="-124.8" font-family="Times,serif" font-size="14.00">gini = 0.789</text>
<text text-anchor="middle" x="1806" y="-109.8" font-family="Times,serif" font-size="14.00">samples = 974</text>
<text text-anchor="middle" x="1806" y="-94.8" font-family="Times,serif" font-size="14.00">value = [298, 50, 24, 106, 66, 224, 206]</text>
<text text-anchor="middle" x="1806" y="-79.8" font-family="Times,serif" font-size="14.00">class = rku</text>
</g>
<!-- 273&#45;&gt;417 -->
<g id="edge21" class="edge">
<title>273&#45;&gt;417</title>
<path fill="none" stroke="black" d="M1678,-190.91C1694.57,-181.02 1712.41,-170.37 1729.35,-160.25"/>
<polygon fill="black" stroke="black" points="1731.33,-163.15 1738.12,-155.02 1727.74,-157.14 1731.33,-163.15"/>
</g>
<!-- 275 -->
<g id="node20" class="node">
<title>275</title>
<polygon fill="#c0c0c0" stroke="black" points="1459,-36 1405,-36 1405,0 1459,0 1459,-36"/>
<text text-anchor="middle" x="1432" y="-14.3" font-family="Times,serif" font-size="14.00">(...)</text>
</g>
<!-- 274&#45;&gt;275 -->
<g id="edge19" class="edge">
<title>274&#45;&gt;275</title>
<path fill="none" stroke="black" d="M1452.31,-71.76C1448.96,-63.04 1445.49,-54.04 1442.39,-45.99"/>
<polygon fill="black" stroke="black" points="1445.56,-44.48 1438.7,-36.41 1439.03,-46.99 1445.56,-44.48"/>
</g>
<!-- 310 -->
<g id="node21" class="node">
<title>310</title>
<polygon fill="#c0c0c0" stroke="black" points="1531,-36 1477,-36 1477,0 1531,0 1531,-36"/>
<text text-anchor="middle" x="1504" y="-14.3" font-family="Times,serif" font-size="14.00">(...)</text>
</g>
<!-- 274&#45;&gt;310 -->
<g id="edge20" class="edge">
<title>274&#45;&gt;310</title>
<path fill="none" stroke="black" d="M1483.69,-71.76C1487.04,-63.04 1490.51,-54.04 1493.61,-45.99"/>
<polygon fill="black" stroke="black" points="1496.97,-46.99 1497.3,-36.41 1490.44,-44.48 1496.97,-46.99"/>
</g>
<!-- 418 -->
<g id="node23" class="node">
<title>418</title>
<polygon fill="#c0c0c0" stroke="black" points="1797,-36 1743,-36 1743,0 1797,0 1797,-36"/>
<text text-anchor="middle" x="1770" y="-14.3" font-family="Times,serif" font-size="14.00">(...)</text>
</g>
<!-- 417&#45;&gt;418 -->
<g id="edge22" class="edge">
<title>417&#45;&gt;418</title>
<path fill="none" stroke="black" d="M1790.31,-71.76C1786.96,-63.04 1783.49,-54.04 1780.39,-45.99"/>
<polygon fill="black" stroke="black" points="1783.56,-44.48 1776.7,-36.41 1777.03,-46.99 1783.56,-44.48"/>
</g>
<!-- 507 -->
<g id="node24" class="node">
<title>507</title>
<polygon fill="#c0c0c0" stroke="black" points="1869,-36 1815,-36 1815,0 1869,0 1869,-36"/>
<text text-anchor="middle" x="1842" y="-14.3" font-family="Times,serif" font-size="14.00">(...)</text>
</g>
<!-- 417&#45;&gt;507 -->
<g id="edge23" class="edge">
<title>417&#45;&gt;507</title>
<path fill="none" stroke="black" d="M1821.69,-71.76C1825.04,-63.04 1828.51,-54.04 1831.61,-45.99"/>
<polygon fill="black" stroke="black" points="1834.97,-46.99 1835.3,-36.41 1828.44,-44.48 1834.97,-46.99"/>
</g>
<!-- 549 -->
<g id="node26" class="node">
<title>549</title>
<polygon fill="#fffefe" stroke="black" points="2295,-155 1975,-155 1975,-72 2295,-72 2295,-155"/>
<text text-anchor="middle" x="2135" y="-139.8" font-family="Times,serif" font-size="14.00">sdComp &lt;= 2.0</text>
<text text-anchor="middle" x="2135" y="-124.8" font-family="Times,serif" font-size="14.00">gini = 0.836</text>
<text text-anchor="middle" x="2135" y="-109.8" font-family="Times,serif" font-size="14.00">samples = 5164</text>
<text text-anchor="middle" x="2135" y="-94.8" font-family="Times,serif" font-size="14.00">value = [942, 910, 92, 636, 864, 760, 960]</text>
<text text-anchor="middle" x="2135" y="-79.8" font-family="Times,serif" font-size="14.00">class = rkuad</text>
</g>
<!-- 548&#45;&gt;549 -->
<g id="edge25" class="edge">
<title>548&#45;&gt;549</title>
<path fill="none" stroke="black" d="M2135,-190.91C2135,-182.65 2135,-173.86 2135,-165.3"/>
<polygon fill="black" stroke="black" points="2138.5,-165.02 2135,-155.02 2131.5,-165.02 2138.5,-165.02"/>
</g>
<!-- 692 -->
<g id="node29" class="node">
<title>692</title>
<polygon fill="#fffefe" stroke="black" points="2633,-155 2313,-155 2313,-72 2633,-72 2633,-155"/>
<text text-anchor="middle" x="2473" y="-139.8" font-family="Times,serif" font-size="14.00">sdComp &lt;= 6.5</text>
<text text-anchor="middle" x="2473" y="-124.8" font-family="Times,serif" font-size="14.00">gini = 0.831</text>
<text text-anchor="middle" x="2473" y="-109.8" font-family="Times,serif" font-size="14.00">samples = 4540</text>
<text text-anchor="middle" x="2473" y="-94.8" font-family="Times,serif" font-size="14.00">value = [906, 878, 58, 646, 494, 678, 880]</text>
<text text-anchor="middle" x="2473" y="-79.8" font-family="Times,serif" font-size="14.00">class = rku</text>
</g>
<!-- 548&#45;&gt;692 -->
<g id="edge28" class="edge">
<title>548&#45;&gt;692</title>
<path fill="none" stroke="black" d="M2252.27,-190.91C2282.68,-180.38 2315.56,-169 2346.43,-158.31"/>
<polygon fill="black" stroke="black" points="2347.63,-161.6 2355.94,-155.02 2345.35,-154.98 2347.63,-161.6"/>
</g>
<!-- 550 -->
<g id="node27" class="node">
<title>550</title>
<polygon fill="#c0c0c0" stroke="black" points="2126,-36 2072,-36 2072,0 2126,0 2126,-36"/>
<text text-anchor="middle" x="2099" y="-14.3" font-family="Times,serif" font-size="14.00">(...)</text>
</g>
<!-- 549&#45;&gt;550 -->
<g id="edge26" class="edge">
<title>549&#45;&gt;550</title>
<path fill="none" stroke="black" d="M2119.31,-71.76C2115.96,-63.04 2112.49,-54.04 2109.39,-45.99"/>
<polygon fill="black" stroke="black" points="2112.56,-44.48 2105.7,-36.41 2106.03,-46.99 2112.56,-44.48"/>
</g>
<!-- 597 -->
<g id="node28" class="node">
<title>597</title>
<polygon fill="#c0c0c0" stroke="black" points="2198,-36 2144,-36 2144,0 2198,0 2198,-36"/>
<text text-anchor="middle" x="2171" y="-14.3" font-family="Times,serif" font-size="14.00">(...)</text>
</g>
<!-- 549&#45;&gt;597 -->
<g id="edge27" class="edge">
<title>549&#45;&gt;597</title>
<path fill="none" stroke="black" d="M2150.69,-71.76C2154.04,-63.04 2157.51,-54.04 2160.61,-45.99"/>
<polygon fill="black" stroke="black" points="2163.97,-46.99 2164.3,-36.41 2157.44,-44.48 2163.97,-46.99"/>
</g>
<!-- 693 -->
<g id="node30" class="node">
<title>693</title>
<polygon fill="#c0c0c0" stroke="black" points="2464,-36 2410,-36 2410,0 2464,0 2464,-36"/>
<text text-anchor="middle" x="2437" y="-14.3" font-family="Times,serif" font-size="14.00">(...)</text>
</g>
<!-- 692&#45;&gt;693 -->
<g id="edge29" class="edge">
<title>692&#45;&gt;693</title>
<path fill="none" stroke="black" d="M2457.31,-71.76C2453.96,-63.04 2450.49,-54.04 2447.39,-45.99"/>
<polygon fill="black" stroke="black" points="2450.56,-44.48 2443.7,-36.41 2444.03,-46.99 2450.56,-44.48"/>
</g>
<!-- 786 -->
<g id="node31" class="node">
<title>786</title>
<polygon fill="#c0c0c0" stroke="black" points="2536,-36 2482,-36 2482,0 2536,0 2536,-36"/>
<text text-anchor="middle" x="2509" y="-14.3" font-family="Times,serif" font-size="14.00">(...)</text>
</g>
<!-- 692&#45;&gt;786 -->
<g id="edge30" class="edge">
<title>692&#45;&gt;786</title>
<path fill="none" stroke="black" d="M2488.69,-71.76C2492.04,-63.04 2495.51,-54.04 2498.61,-45.99"/>
<polygon fill="black" stroke="black" points="2501.97,-46.99 2502.3,-36.41 2495.44,-44.48 2501.97,-46.99"/>
</g>
</g>
</svg>
