<?xml version="1.0" encoding="UTF-8" standalone="no"?>
<!DOCTYPE svg PUBLIC "-//W3C//DTD SVG 1.1//EN"
 "http://www.w3.org/Graphics/SVG/1.1/DTD/svg11.dtd">
<!-- Generated by graphviz version 2.43.0 (0)
 -->
<!-- Title: Tree Pages: 1 -->
<svg width="2390pt" height="520pt"
 viewBox="0.00 0.00 2390.00 520.00" xmlns="http://www.w3.org/2000/svg" xmlns:xlink="http://www.w3.org/1999/xlink">
<g id="graph0" class="graph" transform="scale(1 1) rotate(0) translate(4 516)">
<title>Tree</title>
<polygon fill="white" stroke="transparent" points="-4,4 -4,-516 2386,-516 2386,4 -4,4"/>
<!-- 0 -->
<g id="node1" class="node">
<title>0</title>
<polygon fill="#fce8f4" stroke="black" points="1325,-512 978,-512 978,-429 1325,-429 1325,-512"/>
<text text-anchor="middle" x="1151.5" y="-496.8" font-family="Times,serif" font-size="14.00">CCR &lt;= 5.5</text>
<text text-anchor="middle" x="1151.5" y="-481.8" font-family="Times,serif" font-size="14.00">gini = 0.78</text>
<text text-anchor="middle" x="1151.5" y="-466.8" font-family="Times,serif" font-size="14.00">samples = 25791</text>
<text text-anchor="middle" x="1151.5" y="-451.8" font-family="Times,serif" font-size="14.00">value = [5313, 1276, 4016, 1320, 5786, 8080]</text>
<text text-anchor="middle" x="1151.5" y="-436.8" font-family="Times,serif" font-size="14.00">class = GDL</text>
</g>
<!-- 1 -->
<g id="node2" class="node">
<title>1</title>
<polygon fill="#f9cee7" stroke="black" points="1021,-393 710,-393 710,-310 1021,-310 1021,-393"/>
<text text-anchor="middle" x="865.5" y="-377.8" font-family="Times,serif" font-size="14.00">CCR &lt;= 0.55</text>
<text text-anchor="middle" x="865.5" y="-362.8" font-family="Times,serif" font-size="14.00">gini = 0.676</text>
<text text-anchor="middle" x="865.5" y="-347.8" font-family="Times,serif" font-size="14.00">samples = 16087</text>
<text text-anchor="middle" x="865.5" y="-332.8" font-family="Times,serif" font-size="14.00">value = [3799, 346, 88, 466, 4222, 7166]</text>
<text text-anchor="middle" x="865.5" y="-317.8" font-family="Times,serif" font-size="14.00">class = GDL</text>
</g>
<!-- 0&#45;&gt;1 -->
<g id="edge1" class="edge">
<title>0&#45;&gt;1</title>
<path fill="none" stroke="black" d="M1052.27,-428.91C1026.98,-418.56 999.67,-407.39 973.95,-396.87"/>
<polygon fill="black" stroke="black" points="975.13,-393.57 964.55,-393.02 972.48,-400.05 975.13,-393.57"/>
<text text-anchor="middle" x="974.22" y="-412.38" font-family="Times,serif" font-size="14.00">True</text>
</g>
<!-- 536 -->
<g id="node17" class="node">
<title>536</title>
<polygon fill="#c5f7da" stroke="black" points="1623.5,-393 1303.5,-393 1303.5,-310 1623.5,-310 1623.5,-393"/>
<text text-anchor="middle" x="1463.5" y="-377.8" font-family="Times,serif" font-size="14.00">sdComp &lt;= 2.0</text>
<text text-anchor="middle" x="1463.5" y="-362.8" font-family="Times,serif" font-size="14.00">gini = 0.76</text>
<text text-anchor="middle" x="1463.5" y="-347.8" font-family="Times,serif" font-size="14.00">samples = 9704</text>
<text text-anchor="middle" x="1463.5" y="-332.8" font-family="Times,serif" font-size="14.00">value = [1514, 930, 3928, 854, 1564, 914]</text>
<text text-anchor="middle" x="1463.5" y="-317.8" font-family="Times,serif" font-size="14.00">class = OLB</text>
</g>
<!-- 0&#45;&gt;536 -->
<g id="edge16" class="edge">
<title>0&#45;&gt;536</title>
<path fill="none" stroke="black" d="M1259.75,-428.91C1287.58,-418.47 1317.65,-407.19 1345.93,-396.59"/>
<polygon fill="black" stroke="black" points="1347.31,-399.81 1355.44,-393.02 1344.85,-393.25 1347.31,-399.81"/>
<text text-anchor="middle" x="1345.1" y="-412.08" font-family="Times,serif" font-size="14.00">False</text>
</g>
<!-- 2 -->
<g id="node3" class="node">
<title>2</title>
<polygon fill="#fad9ec" stroke="black" points="577.5,-274 275.5,-274 275.5,-191 577.5,-191 577.5,-274"/>
<text text-anchor="middle" x="426.5" y="-258.8" font-family="Times,serif" font-size="14.00">sdComp &lt;= 0.02</text>
<text text-anchor="middle" x="426.5" y="-243.8" font-family="Times,serif" font-size="14.00">gini = 0.684</text>
<text text-anchor="middle" x="426.5" y="-228.8" font-family="Times,serif" font-size="14.00">samples = 10064</text>
<text text-anchor="middle" x="426.5" y="-213.8" font-family="Times,serif" font-size="14.00">value = [2726, 88, 44, 370, 2684, 4152]</text>
<text text-anchor="middle" x="426.5" y="-198.8" font-family="Times,serif" font-size="14.00">class = GDL</text>
</g>
<!-- 1&#45;&gt;2 -->
<g id="edge2" class="edge">
<title>1&#45;&gt;2</title>
<path fill="none" stroke="black" d="M713.5,-309.99C672.79,-299.14 628.65,-287.38 587.47,-276.4"/>
<polygon fill="black" stroke="black" points="588.19,-272.97 577.63,-273.78 586.39,-279.73 588.19,-272.97"/>
</g>
<!-- 269 -->
<g id="node10" class="node">
<title>269</title>
<polygon fill="#f6bedf" stroke="black" points="1016.5,-274 714.5,-274 714.5,-191 1016.5,-191 1016.5,-274"/>
<text text-anchor="middle" x="865.5" y="-258.8" font-family="Times,serif" font-size="14.00">graphSize &lt;= 22.5</text>
<text text-anchor="middle" x="865.5" y="-243.8" font-family="Times,serif" font-size="14.00">gini = 0.65</text>
<text text-anchor="middle" x="865.5" y="-228.8" font-family="Times,serif" font-size="14.00">samples = 6023</text>
<text text-anchor="middle" x="865.5" y="-213.8" font-family="Times,serif" font-size="14.00">value = [1073, 258, 44, 96, 1538, 3014]</text>
<text text-anchor="middle" x="865.5" y="-198.8" font-family="Times,serif" font-size="14.00">class = GDL</text>
</g>
<!-- 1&#45;&gt;269 -->
<g id="edge9" class="edge">
<title>1&#45;&gt;269</title>
<path fill="none" stroke="black" d="M865.5,-309.91C865.5,-301.65 865.5,-292.86 865.5,-284.3"/>
<polygon fill="black" stroke="black" points="869,-284.02 865.5,-274.02 862,-284.02 869,-284.02"/>
</g>
<!-- 3 -->
<g id="node4" class="node">
<title>3</title>
<polygon fill="#f7c6e3" stroke="black" points="257,-155 0,-155 0,-72 257,-72 257,-155"/>
<text text-anchor="middle" x="128.5" y="-139.8" font-family="Times,serif" font-size="14.00">graphSize &lt;= 75.0</text>
<text text-anchor="middle" x="128.5" y="-124.8" font-family="Times,serif" font-size="14.00">gini = 0.648</text>
<text text-anchor="middle" x="128.5" y="-109.8" font-family="Times,serif" font-size="14.00">samples = 1750</text>
<text text-anchor="middle" x="128.5" y="-94.8" font-family="Times,serif" font-size="14.00">value = [324, 50, 32, 0, 490, 854]</text>
<text text-anchor="middle" x="128.5" y="-79.8" font-family="Times,serif" font-size="14.00">class = GDL</text>
</g>
<!-- 2&#45;&gt;3 -->
<g id="edge3" class="edge">
<title>2&#45;&gt;3</title>
<path fill="none" stroke="black" d="M323.11,-190.91C296.64,-180.52 268.05,-169.29 241.15,-158.73"/>
<polygon fill="black" stroke="black" points="242.29,-155.42 231.71,-155.02 239.74,-161.93 242.29,-155.42"/>
</g>
<!-- 88 -->
<g id="node7" class="node">
<title>88</title>
<polygon fill="#fbe1f0" stroke="black" points="577.5,-155 275.5,-155 275.5,-72 577.5,-72 577.5,-155"/>
<text text-anchor="middle" x="426.5" y="-139.8" font-family="Times,serif" font-size="14.00">graphSize &lt;= 22.5</text>
<text text-anchor="middle" x="426.5" y="-124.8" font-family="Times,serif" font-size="14.00">gini = 0.688</text>
<text text-anchor="middle" x="426.5" y="-109.8" font-family="Times,serif" font-size="14.00">samples = 8314</text>
<text text-anchor="middle" x="426.5" y="-94.8" font-family="Times,serif" font-size="14.00">value = [2402, 38, 12, 370, 2194, 3298]</text>
<text text-anchor="middle" x="426.5" y="-79.8" font-family="Times,serif" font-size="14.00">class = GDL</text>
</g>
<!-- 2&#45;&gt;88 -->
<g id="edge6" class="edge">
<title>2&#45;&gt;88</title>
<path fill="none" stroke="black" d="M426.5,-190.91C426.5,-182.65 426.5,-173.86 426.5,-165.3"/>
<polygon fill="black" stroke="black" points="430,-165.02 426.5,-155.02 423,-165.02 430,-165.02"/>
</g>
<!-- 4 -->
<g id="node5" class="node">
<title>4</title>
<polygon fill="#c0c0c0" stroke="black" points="119.5,-36 65.5,-36 65.5,0 119.5,0 119.5,-36"/>
<text text-anchor="middle" x="92.5" y="-14.3" font-family="Times,serif" font-size="14.00">(...)</text>
</g>
<!-- 3&#45;&gt;4 -->
<g id="edge4" class="edge">
<title>3&#45;&gt;4</title>
<path fill="none" stroke="black" d="M112.81,-71.76C109.46,-63.04 105.99,-54.04 102.89,-45.99"/>
<polygon fill="black" stroke="black" points="106.06,-44.48 99.2,-36.41 99.53,-46.99 106.06,-44.48"/>
</g>
<!-- 71 -->
<g id="node6" class="node">
<title>71</title>
<polygon fill="#c0c0c0" stroke="black" points="191.5,-36 137.5,-36 137.5,0 191.5,0 191.5,-36"/>
<text text-anchor="middle" x="164.5" y="-14.3" font-family="Times,serif" font-size="14.00">(...)</text>
</g>
<!-- 3&#45;&gt;71 -->
<g id="edge5" class="edge">
<title>3&#45;&gt;71</title>
<path fill="none" stroke="black" d="M144.19,-71.76C147.54,-63.04 151.01,-54.04 154.11,-45.99"/>
<polygon fill="black" stroke="black" points="157.47,-46.99 157.8,-36.41 150.94,-44.48 157.47,-46.99"/>
</g>
<!-- 89 -->
<g id="node8" class="node">
<title>89</title>
<polygon fill="#c0c0c0" stroke="black" points="417.5,-36 363.5,-36 363.5,0 417.5,0 417.5,-36"/>
<text text-anchor="middle" x="390.5" y="-14.3" font-family="Times,serif" font-size="14.00">(...)</text>
</g>
<!-- 88&#45;&gt;89 -->
<g id="edge7" class="edge">
<title>88&#45;&gt;89</title>
<path fill="none" stroke="black" d="M410.81,-71.76C407.46,-63.04 403.99,-54.04 400.89,-45.99"/>
<polygon fill="black" stroke="black" points="404.06,-44.48 397.2,-36.41 397.53,-46.99 404.06,-44.48"/>
</g>
<!-- 136 -->
<g id="node9" class="node">
<title>136</title>
<polygon fill="#c0c0c0" stroke="black" points="489.5,-36 435.5,-36 435.5,0 489.5,0 489.5,-36"/>
<text text-anchor="middle" x="462.5" y="-14.3" font-family="Times,serif" font-size="14.00">(...)</text>
</g>
<!-- 88&#45;&gt;136 -->
<g id="edge8" class="edge">
<title>88&#45;&gt;136</title>
<path fill="none" stroke="black" d="M442.19,-71.76C445.54,-63.04 449.01,-54.04 452.11,-45.99"/>
<polygon fill="black" stroke="black" points="455.47,-46.99 455.8,-36.41 448.94,-44.48 455.47,-46.99"/>
</g>
<!-- 270 -->
<g id="node11" class="node">
<title>270</title>
<polygon fill="#f9d3e9" stroke="black" points="889,-155 596,-155 596,-72 889,-72 889,-155"/>
<text text-anchor="middle" x="742.5" y="-139.8" font-family="Times,serif" font-size="14.00">nbproc &lt;= 4.5</text>
<text text-anchor="middle" x="742.5" y="-124.8" font-family="Times,serif" font-size="14.00">gini = 0.69</text>
<text text-anchor="middle" x="742.5" y="-109.8" font-family="Times,serif" font-size="14.00">samples = 3733</text>
<text text-anchor="middle" x="742.5" y="-94.8" font-family="Times,serif" font-size="14.00">value = [675, 228, 44, 96, 1046, 1644]</text>
<text text-anchor="middle" x="742.5" y="-79.8" font-family="Times,serif" font-size="14.00">class = GDL</text>
</g>
<!-- 269&#45;&gt;270 -->
<g id="edge10" class="edge">
<title>269&#45;&gt;270</title>
<path fill="none" stroke="black" d="M822.83,-190.91C813,-181.56 802.46,-171.54 792.36,-161.93"/>
<polygon fill="black" stroke="black" points="794.76,-159.38 785.1,-155.02 789.93,-164.45 794.76,-159.38"/>
</g>
<!-- 341 -->
<g id="node14" class="node">
<title>341</title>
<polygon fill="#f29ecf" stroke="black" points="1164,-155 907,-155 907,-72 1164,-72 1164,-155"/>
<text text-anchor="middle" x="1035.5" y="-139.8" font-family="Times,serif" font-size="14.00">sdComp &lt;= 0.65</text>
<text text-anchor="middle" x="1035.5" y="-124.8" font-family="Times,serif" font-size="14.00">gini = 0.566</text>
<text text-anchor="middle" x="1035.5" y="-109.8" font-family="Times,serif" font-size="14.00">samples = 2290</text>
<text text-anchor="middle" x="1035.5" y="-94.8" font-family="Times,serif" font-size="14.00">value = [398, 30, 0, 0, 492, 1370]</text>
<text text-anchor="middle" x="1035.5" y="-79.8" font-family="Times,serif" font-size="14.00">class = GDL</text>
</g>
<!-- 269&#45;&gt;341 -->
<g id="edge13" class="edge">
<title>269&#45;&gt;341</title>
<path fill="none" stroke="black" d="M924.48,-190.91C938.59,-181.2 953.76,-170.76 968.21,-160.81"/>
<polygon fill="black" stroke="black" points="970.37,-163.57 976.62,-155.02 966.4,-157.81 970.37,-163.57"/>
</g>
<!-- 271 -->
<g id="node12" class="node">
<title>271</title>
<polygon fill="#c0c0c0" stroke="black" points="733.5,-36 679.5,-36 679.5,0 733.5,0 733.5,-36"/>
<text text-anchor="middle" x="706.5" y="-14.3" font-family="Times,serif" font-size="14.00">(...)</text>
</g>
<!-- 270&#45;&gt;271 -->
<g id="edge11" class="edge">
<title>270&#45;&gt;271</title>
<path fill="none" stroke="black" d="M726.81,-71.76C723.46,-63.04 719.99,-54.04 716.89,-45.99"/>
<polygon fill="black" stroke="black" points="720.06,-44.48 713.2,-36.41 713.53,-46.99 720.06,-44.48"/>
</g>
<!-- 306 -->
<g id="node13" class="node">
<title>306</title>
<polygon fill="#c0c0c0" stroke="black" points="805.5,-36 751.5,-36 751.5,0 805.5,0 805.5,-36"/>
<text text-anchor="middle" x="778.5" y="-14.3" font-family="Times,serif" font-size="14.00">(...)</text>
</g>
<!-- 270&#45;&gt;306 -->
<g id="edge12" class="edge">
<title>270&#45;&gt;306</title>
<path fill="none" stroke="black" d="M758.19,-71.76C761.54,-63.04 765.01,-54.04 768.11,-45.99"/>
<polygon fill="black" stroke="black" points="771.47,-46.99 771.8,-36.41 764.94,-44.48 771.47,-46.99"/>
</g>
<!-- 342 -->
<g id="node15" class="node">
<title>342</title>
<polygon fill="#c0c0c0" stroke="black" points="1026.5,-36 972.5,-36 972.5,0 1026.5,0 1026.5,-36"/>
<text text-anchor="middle" x="999.5" y="-14.3" font-family="Times,serif" font-size="14.00">(...)</text>
</g>
<!-- 341&#45;&gt;342 -->
<g id="edge14" class="edge">
<title>341&#45;&gt;342</title>
<path fill="none" stroke="black" d="M1019.81,-71.76C1016.46,-63.04 1012.99,-54.04 1009.89,-45.99"/>
<polygon fill="black" stroke="black" points="1013.06,-44.48 1006.2,-36.41 1006.53,-46.99 1013.06,-44.48"/>
</g>
<!-- 471 -->
<g id="node16" class="node">
<title>471</title>
<polygon fill="#c0c0c0" stroke="black" points="1098.5,-36 1044.5,-36 1044.5,0 1098.5,0 1098.5,-36"/>
<text text-anchor="middle" x="1071.5" y="-14.3" font-family="Times,serif" font-size="14.00">(...)</text>
</g>
<!-- 341&#45;&gt;471 -->
<g id="edge15" class="edge">
<title>341&#45;&gt;471</title>
<path fill="none" stroke="black" d="M1051.19,-71.76C1054.54,-63.04 1058.01,-54.04 1061.11,-45.99"/>
<polygon fill="black" stroke="black" points="1064.47,-46.99 1064.8,-36.41 1057.94,-44.48 1064.47,-46.99"/>
</g>
<!-- 537 -->
<g id="node18" class="node">
<title>537</title>
<polygon fill="#bcf6d4" stroke="black" points="1614.5,-274 1312.5,-274 1312.5,-191 1614.5,-191 1614.5,-274"/>
<text text-anchor="middle" x="1463.5" y="-258.8" font-family="Times,serif" font-size="14.00">graphSize &lt;= 22.5</text>
<text text-anchor="middle" x="1463.5" y="-243.8" font-family="Times,serif" font-size="14.00">gini = 0.704</text>
<text text-anchor="middle" x="1463.5" y="-228.8" font-family="Times,serif" font-size="14.00">samples = 3380</text>
<text text-anchor="middle" x="1463.5" y="-213.8" font-family="Times,serif" font-size="14.00">value = [328, 280, 1608, 692, 330, 142]</text>
<text text-anchor="middle" x="1463.5" y="-198.8" font-family="Times,serif" font-size="14.00">class = OLB</text>
</g>
<!-- 536&#45;&gt;537 -->
<g id="edge17" class="edge">
<title>536&#45;&gt;537</title>
<path fill="none" stroke="black" d="M1463.5,-309.91C1463.5,-301.65 1463.5,-292.86 1463.5,-284.3"/>
<polygon fill="black" stroke="black" points="1467,-284.02 1463.5,-274.02 1460,-284.02 1467,-284.02"/>
</g>
<!-- 632 -->
<g id="node25" class="node">
<title>632</title>
<polygon fill="#d5f9e4" stroke="black" points="2097.5,-274 1777.5,-274 1777.5,-191 2097.5,-191 2097.5,-274"/>
<text text-anchor="middle" x="1937.5" y="-258.8" font-family="Times,serif" font-size="14.00">sdComp &lt;= 6.5</text>
<text text-anchor="middle" x="1937.5" y="-243.8" font-family="Times,serif" font-size="14.00">gini = 0.766</text>
<text text-anchor="middle" x="1937.5" y="-228.8" font-family="Times,serif" font-size="14.00">samples = 6324</text>
<text text-anchor="middle" x="1937.5" y="-213.8" font-family="Times,serif" font-size="14.00">value = [1186, 650, 2320, 162, 1234, 772]</text>
<text text-anchor="middle" x="1937.5" y="-198.8" font-family="Times,serif" font-size="14.00">class = OLB</text>
</g>
<!-- 536&#45;&gt;632 -->
<g id="edge24" class="edge">
<title>536&#45;&gt;632</title>
<path fill="none" stroke="black" d="M1623.64,-310.97C1669.92,-299.55 1720.58,-287.04 1767.44,-275.48"/>
<polygon fill="black" stroke="black" points="1768.51,-278.82 1777.38,-273.02 1766.83,-272.02 1768.51,-278.82"/>
</g>
<!-- 538 -->
<g id="node19" class="node">
<title>538</title>
<polygon fill="#d6fae5" stroke="black" points="1457,-155 1182,-155 1182,-72 1457,-72 1457,-155"/>
<text text-anchor="middle" x="1319.5" y="-139.8" font-family="Times,serif" font-size="14.00">sdComm &lt;= 2.0</text>
<text text-anchor="middle" x="1319.5" y="-124.8" font-family="Times,serif" font-size="14.00">gini = 0.784</text>
<text text-anchor="middle" x="1319.5" y="-109.8" font-family="Times,serif" font-size="14.00">samples = 848</text>
<text text-anchor="middle" x="1319.5" y="-94.8" font-family="Times,serif" font-size="14.00">value = [110, 84, 300, 156, 130, 68]</text>
<text text-anchor="middle" x="1319.5" y="-79.8" font-family="Times,serif" font-size="14.00">class = OLB</text>
</g>
<!-- 537&#45;&gt;538 -->
<g id="edge18" class="edge">
<title>537&#45;&gt;538</title>
<path fill="none" stroke="black" d="M1413.54,-190.91C1401.81,-181.38 1389.22,-171.15 1377.19,-161.37"/>
<polygon fill="black" stroke="black" points="1379.34,-158.61 1369.37,-155.02 1374.93,-164.04 1379.34,-158.61"/>
</g>
<!-- 561 -->
<g id="node22" class="node">
<title>561</title>
<polygon fill="#b2f5ce" stroke="black" points="1768,-155 1475,-155 1475,-72 1768,-72 1768,-155"/>
<text text-anchor="middle" x="1621.5" y="-139.8" font-family="Times,serif" font-size="14.00">graphDepth &lt;= 25.5</text>
<text text-anchor="middle" x="1621.5" y="-124.8" font-family="Times,serif" font-size="14.00">gini = 0.668</text>
<text text-anchor="middle" x="1621.5" y="-109.8" font-family="Times,serif" font-size="14.00">samples = 2532</text>
<text text-anchor="middle" x="1621.5" y="-94.8" font-family="Times,serif" font-size="14.00">value = [218, 196, 1308, 536, 200, 74]</text>
<text text-anchor="middle" x="1621.5" y="-79.8" font-family="Times,serif" font-size="14.00">class = OLB</text>
</g>
<!-- 537&#45;&gt;561 -->
<g id="edge21" class="edge">
<title>537&#45;&gt;561</title>
<path fill="none" stroke="black" d="M1518.32,-190.91C1531.31,-181.29 1545.26,-170.95 1558.58,-161.09"/>
<polygon fill="black" stroke="black" points="1560.83,-163.78 1566.78,-155.02 1556.66,-158.16 1560.83,-163.78"/>
</g>
<!-- 539 -->
<g id="node20" class="node">
<title>539</title>
<polygon fill="#c0c0c0" stroke="black" points="1310.5,-36 1256.5,-36 1256.5,0 1310.5,0 1310.5,-36"/>
<text text-anchor="middle" x="1283.5" y="-14.3" font-family="Times,serif" font-size="14.00">(...)</text>
</g>
<!-- 538&#45;&gt;539 -->
<g id="edge19" class="edge">
<title>538&#45;&gt;539</title>
<path fill="none" stroke="black" d="M1303.81,-71.76C1300.46,-63.04 1296.99,-54.04 1293.89,-45.99"/>
<polygon fill="black" stroke="black" points="1297.06,-44.48 1290.2,-36.41 1290.53,-46.99 1297.06,-44.48"/>
</g>
<!-- 546 -->
<g id="node21" class="node">
<title>546</title>
<polygon fill="#c0c0c0" stroke="black" points="1382.5,-36 1328.5,-36 1328.5,0 1382.5,0 1382.5,-36"/>
<text text-anchor="middle" x="1355.5" y="-14.3" font-family="Times,serif" font-size="14.00">(...)</text>
</g>
<!-- 538&#45;&gt;546 -->
<g id="edge20" class="edge">
<title>538&#45;&gt;546</title>
<path fill="none" stroke="black" d="M1335.19,-71.76C1338.54,-63.04 1342.01,-54.04 1345.11,-45.99"/>
<polygon fill="black" stroke="black" points="1348.47,-46.99 1348.8,-36.41 1341.94,-44.48 1348.47,-46.99"/>
</g>
<!-- 562 -->
<g id="node23" class="node">
<title>562</title>
<polygon fill="#c0c0c0" stroke="black" points="1612.5,-36 1558.5,-36 1558.5,0 1612.5,0 1612.5,-36"/>
<text text-anchor="middle" x="1585.5" y="-14.3" font-family="Times,serif" font-size="14.00">(...)</text>
</g>
<!-- 561&#45;&gt;562 -->
<g id="edge22" class="edge">
<title>561&#45;&gt;562</title>
<path fill="none" stroke="black" d="M1605.81,-71.76C1602.46,-63.04 1598.99,-54.04 1595.89,-45.99"/>
<polygon fill="black" stroke="black" points="1599.06,-44.48 1592.2,-36.41 1592.53,-46.99 1599.06,-44.48"/>
</g>
<!-- 621 -->
<g id="node24" class="node">
<title>621</title>
<polygon fill="#c0c0c0" stroke="black" points="1684.5,-36 1630.5,-36 1630.5,0 1684.5,0 1684.5,-36"/>
<text text-anchor="middle" x="1657.5" y="-14.3" font-family="Times,serif" font-size="14.00">(...)</text>
</g>
<!-- 561&#45;&gt;621 -->
<g id="edge23" class="edge">
<title>561&#45;&gt;621</title>
<path fill="none" stroke="black" d="M1637.19,-71.76C1640.54,-63.04 1644.01,-54.04 1647.11,-45.99"/>
<polygon fill="black" stroke="black" points="1650.47,-46.99 1650.8,-36.41 1643.94,-44.48 1650.47,-46.99"/>
</g>
<!-- 633 -->
<g id="node26" class="node">
<title>633</title>
<polygon fill="#c3f7d9" stroke="black" points="2088.5,-155 1786.5,-155 1786.5,-72 2088.5,-72 2088.5,-155"/>
<text text-anchor="middle" x="1937.5" y="-139.8" font-family="Times,serif" font-size="14.00">graphSize &lt;= 22.5</text>
<text text-anchor="middle" x="1937.5" y="-124.8" font-family="Times,serif" font-size="14.00">gini = 0.736</text>
<text text-anchor="middle" x="1937.5" y="-109.8" font-family="Times,serif" font-size="14.00">samples = 3550</text>
<text text-anchor="middle" x="1937.5" y="-94.8" font-family="Times,serif" font-size="14.00">value = [650, 334, 1528, 158, 588, 292]</text>
<text text-anchor="middle" x="1937.5" y="-79.8" font-family="Times,serif" font-size="14.00">class = OLB</text>
</g>
<!-- 632&#45;&gt;633 -->
<g id="edge25" class="edge">
<title>632&#45;&gt;633</title>
<path fill="none" stroke="black" d="M1937.5,-190.91C1937.5,-182.65 1937.5,-173.86 1937.5,-165.3"/>
<polygon fill="black" stroke="black" points="1941,-165.02 1937.5,-155.02 1934,-165.02 1941,-165.02"/>
</g>
<!-- 726 -->
<g id="node29" class="node">
<title>726</title>
<polygon fill="#f1fdf6" stroke="black" points="2382,-155 2107,-155 2107,-72 2382,-72 2382,-155"/>
<text text-anchor="middle" x="2244.5" y="-139.8" font-family="Times,serif" font-size="14.00">sdComm &lt;= 2.0</text>
<text text-anchor="middle" x="2244.5" y="-124.8" font-family="Times,serif" font-size="14.00">gini = 0.784</text>
<text text-anchor="middle" x="2244.5" y="-109.8" font-family="Times,serif" font-size="14.00">samples = 2774</text>
<text text-anchor="middle" x="2244.5" y="-94.8" font-family="Times,serif" font-size="14.00">value = [536, 316, 792, 4, 646, 480]</text>
<text text-anchor="middle" x="2244.5" y="-79.8" font-family="Times,serif" font-size="14.00">class = OLB</text>
</g>
<!-- 632&#45;&gt;726 -->
<g id="edge28" class="edge">
<title>632&#45;&gt;726</title>
<path fill="none" stroke="black" d="M2044.01,-190.91C2071.4,-180.47 2100.99,-169.19 2128.81,-158.59"/>
<polygon fill="black" stroke="black" points="2130.08,-161.85 2138.18,-155.02 2127.59,-155.31 2130.08,-161.85"/>
</g>
<!-- 634 -->
<g id="node27" class="node">
<title>634</title>
<polygon fill="#c0c0c0" stroke="black" points="1928.5,-36 1874.5,-36 1874.5,0 1928.5,0 1928.5,-36"/>
<text text-anchor="middle" x="1901.5" y="-14.3" font-family="Times,serif" font-size="14.00">(...)</text>
</g>
<!-- 633&#45;&gt;634 -->
<g id="edge26" class="edge">
<title>633&#45;&gt;634</title>
<path fill="none" stroke="black" d="M1921.81,-71.76C1918.46,-63.04 1914.99,-54.04 1911.89,-45.99"/>
<polygon fill="black" stroke="black" points="1915.06,-44.48 1908.2,-36.41 1908.53,-46.99 1915.06,-44.48"/>
</g>
<!-- 657 -->
<g id="node28" class="node">
<title>657</title>
<polygon fill="#c0c0c0" stroke="black" points="2000.5,-36 1946.5,-36 1946.5,0 2000.5,0 2000.5,-36"/>
<text text-anchor="middle" x="1973.5" y="-14.3" font-family="Times,serif" font-size="14.00">(...)</text>
</g>
<!-- 633&#45;&gt;657 -->
<g id="edge27" class="edge">
<title>633&#45;&gt;657</title>
<path fill="none" stroke="black" d="M1953.19,-71.76C1956.54,-63.04 1960.01,-54.04 1963.11,-45.99"/>
<polygon fill="black" stroke="black" points="1966.47,-46.99 1966.8,-36.41 1959.94,-44.48 1966.47,-46.99"/>
</g>
<!-- 727 -->
<g id="node30" class="node">
<title>727</title>
<polygon fill="#c0c0c0" stroke="black" points="2235.5,-36 2181.5,-36 2181.5,0 2235.5,0 2235.5,-36"/>
<text text-anchor="middle" x="2208.5" y="-14.3" font-family="Times,serif" font-size="14.00">(...)</text>
</g>
<!-- 726&#45;&gt;727 -->
<g id="edge29" class="edge">
<title>726&#45;&gt;727</title>
<path fill="none" stroke="black" d="M2228.81,-71.76C2225.46,-63.04 2221.99,-54.04 2218.89,-45.99"/>
<polygon fill="black" stroke="black" points="2222.06,-44.48 2215.2,-36.41 2215.53,-46.99 2222.06,-44.48"/>
</g>
<!-- 754 -->
<g id="node31" class="node">
<title>754</title>
<polygon fill="#c0c0c0" stroke="black" points="2307.5,-36 2253.5,-36 2253.5,0 2307.5,0 2307.5,-36"/>
<text text-anchor="middle" x="2280.5" y="-14.3" font-family="Times,serif" font-size="14.00">(...)</text>
</g>
<!-- 726&#45;&gt;754 -->
<g id="edge30" class="edge">
<title>726&#45;&gt;754</title>
<path fill="none" stroke="black" d="M2260.19,-71.76C2263.54,-63.04 2267.01,-54.04 2270.11,-45.99"/>
<polygon fill="black" stroke="black" points="2273.47,-46.99 2273.8,-36.41 2266.94,-44.48 2273.47,-46.99"/>
</g>
</g>
</svg>
