<?xml version="1.0" encoding="UTF-8" standalone="no"?>
<!DOCTYPE svg PUBLIC "-//W3C//DTD SVG 1.1//EN"
 "http://www.w3.org/Graphics/SVG/1.1/DTD/svg11.dtd">
<!-- Generated by graphviz version 2.43.0 (0)
 -->
<!-- Title: Tree Pages: 1 -->
<svg width="1416pt" height="520pt"
 viewBox="0.00 0.00 1416.00 520.00" xmlns="http://www.w3.org/2000/svg" xmlns:xlink="http://www.w3.org/1999/xlink">
<g id="graph0" class="graph" transform="scale(1 1) rotate(0) translate(4 516)">
<title>Tree</title>
<polygon fill="white" stroke="transparent" points="-4,4 -4,-516 1412,-516 1412,4 -4,4"/>
<!-- 0 -->
<g id="node1" class="node">
<title>0</title>
<polygon fill="#eff7fd" stroke="black" points="796,-512 611,-512 611,-429 796,-429 796,-512"/>
<text text-anchor="middle" x="703.5" y="-496.8" font-family="Times,serif" font-size="14.00">CCR &lt;= 5.5</text>
<text text-anchor="middle" x="703.5" y="-481.8" font-family="Times,serif" font-size="14.00">gini = 0.499</text>
<text text-anchor="middle" x="703.5" y="-466.8" font-family="Times,serif" font-size="14.00">samples = 25791</text>
<text text-anchor="middle" x="703.5" y="-451.8" font-family="Times,serif" font-size="14.00">value = [12351, 13440]</text>
<text text-anchor="middle" x="703.5" y="-436.8" font-family="Times,serif" font-size="14.00">class = True</text>
</g>
<!-- 1 -->
<g id="node2" class="node">
<title>1</title>
<polygon fill="#cce6f8" stroke="black" points="616,-393 449,-393 449,-310 616,-310 616,-393"/>
<text text-anchor="middle" x="532.5" y="-377.8" font-family="Times,serif" font-size="14.00">graphSize &lt;= 75.0</text>
<text text-anchor="middle" x="532.5" y="-362.8" font-family="Times,serif" font-size="14.00">gini = 0.489</text>
<text text-anchor="middle" x="532.5" y="-347.8" font-family="Times,serif" font-size="14.00">samples = 16087</text>
<text text-anchor="middle" x="532.5" y="-332.8" font-family="Times,serif" font-size="14.00">value = [6856, 9231]</text>
<text text-anchor="middle" x="532.5" y="-317.8" font-family="Times,serif" font-size="14.00">class = True</text>
</g>
<!-- 0&#45;&gt;1 -->
<g id="edge1" class="edge">
<title>0&#45;&gt;1</title>
<path fill="none" stroke="black" d="M644.17,-428.91C629.98,-419.2 614.72,-408.76 600.19,-398.81"/>
<polygon fill="black" stroke="black" points="601.95,-395.78 591.72,-393.02 598,-401.56 601.95,-395.78"/>
<text text-anchor="middle" x="596.33" y="-413.89" font-family="Times,serif" font-size="14.00">True</text>
</g>
<!-- 536 -->
<g id="node17" class="node">
<title>536</title>
<polygon fill="#f9e2d1" stroke="black" points="963,-393 796,-393 796,-310 963,-310 963,-393"/>
<text text-anchor="middle" x="879.5" y="-377.8" font-family="Times,serif" font-size="14.00">graphDepth &lt;= 3.5</text>
<text text-anchor="middle" x="879.5" y="-362.8" font-family="Times,serif" font-size="14.00">gini = 0.491</text>
<text text-anchor="middle" x="879.5" y="-347.8" font-family="Times,serif" font-size="14.00">samples = 9704</text>
<text text-anchor="middle" x="879.5" y="-332.8" font-family="Times,serif" font-size="14.00">value = [5495, 4209]</text>
<text text-anchor="middle" x="879.5" y="-317.8" font-family="Times,serif" font-size="14.00">class = False</text>
</g>
<!-- 0&#45;&gt;536 -->
<g id="edge16" class="edge">
<title>0&#45;&gt;536</title>
<path fill="none" stroke="black" d="M764.56,-428.91C779.17,-419.2 794.87,-408.76 809.84,-398.81"/>
<polygon fill="black" stroke="black" points="812.16,-401.47 818.55,-393.02 808.28,-395.64 812.16,-401.47"/>
<text text-anchor="middle" x="813.61" y="-413.83" font-family="Times,serif" font-size="14.00">False</text>
</g>
<!-- 2 -->
<g id="node3" class="node">
<title>2</title>
<polygon fill="#d1e8f9" stroke="black" points="352,-274 185,-274 185,-191 352,-191 352,-274"/>
<text text-anchor="middle" x="268.5" y="-258.8" font-family="Times,serif" font-size="14.00">graphDepth &lt;= 6.5</text>
<text text-anchor="middle" x="268.5" y="-243.8" font-family="Times,serif" font-size="14.00">gini = 0.491</text>
<text text-anchor="middle" x="268.5" y="-228.8" font-family="Times,serif" font-size="14.00">samples = 15229</text>
<text text-anchor="middle" x="268.5" y="-213.8" font-family="Times,serif" font-size="14.00">value = [6604, 8625]</text>
<text text-anchor="middle" x="268.5" y="-198.8" font-family="Times,serif" font-size="14.00">class = True</text>
</g>
<!-- 1&#45;&gt;2 -->
<g id="edge2" class="edge">
<title>1&#45;&gt;2</title>
<path fill="none" stroke="black" d="M448.97,-313.48C421.16,-301.16 390.02,-287.36 361.54,-274.73"/>
<polygon fill="black" stroke="black" points="362.95,-271.53 352.39,-270.68 360.12,-277.93 362.95,-271.53"/>
</g>
<!-- 417 -->
<g id="node10" class="node">
<title>417</title>
<polygon fill="#8bc6f0" stroke="black" points="607,-274 458,-274 458,-191 607,-191 607,-274"/>
<text text-anchor="middle" x="532.5" y="-258.8" font-family="Times,serif" font-size="14.00">nbproc &lt;= 4.5</text>
<text text-anchor="middle" x="532.5" y="-243.8" font-family="Times,serif" font-size="14.00">gini = 0.415</text>
<text text-anchor="middle" x="532.5" y="-228.8" font-family="Times,serif" font-size="14.00">samples = 858</text>
<text text-anchor="middle" x="532.5" y="-213.8" font-family="Times,serif" font-size="14.00">value = [252, 606]</text>
<text text-anchor="middle" x="532.5" y="-198.8" font-family="Times,serif" font-size="14.00">class = True</text>
</g>
<!-- 1&#45;&gt;417 -->
<g id="edge9" class="edge">
<title>1&#45;&gt;417</title>
<path fill="none" stroke="black" d="M532.5,-309.91C532.5,-301.65 532.5,-292.86 532.5,-284.3"/>
<polygon fill="black" stroke="black" points="536,-284.02 532.5,-274.02 529,-284.02 536,-284.02"/>
</g>
<!-- 3 -->
<g id="node4" class="node">
<title>3</title>
<polygon fill="#d6ebfa" stroke="black" points="167,-155 0,-155 0,-72 167,-72 167,-155"/>
<text text-anchor="middle" x="83.5" y="-139.8" font-family="Times,serif" font-size="14.00">graphDepth &lt;= 3.5</text>
<text text-anchor="middle" x="83.5" y="-124.8" font-family="Times,serif" font-size="14.00">gini = 0.493</text>
<text text-anchor="middle" x="83.5" y="-109.8" font-family="Times,serif" font-size="14.00">samples = 12163</text>
<text text-anchor="middle" x="83.5" y="-94.8" font-family="Times,serif" font-size="14.00">value = [5386, 6777]</text>
<text text-anchor="middle" x="83.5" y="-79.8" font-family="Times,serif" font-size="14.00">class = True</text>
</g>
<!-- 2&#45;&gt;3 -->
<g id="edge3" class="edge">
<title>2&#45;&gt;3</title>
<path fill="none" stroke="black" d="M204.32,-190.91C188.82,-181.11 172.15,-170.56 156.29,-160.53"/>
<polygon fill="black" stroke="black" points="157.89,-157.41 147.57,-155.02 154.15,-163.32 157.89,-157.41"/>
</g>
<!-- 216 -->
<g id="node7" class="node">
<title>216</title>
<polygon fill="#bcdef6" stroke="black" points="352,-155 185,-155 185,-72 352,-72 352,-155"/>
<text text-anchor="middle" x="268.5" y="-139.8" font-family="Times,serif" font-size="14.00">CCR &lt;= 0.55</text>
<text text-anchor="middle" x="268.5" y="-124.8" font-family="Times,serif" font-size="14.00">gini = 0.479</text>
<text text-anchor="middle" x="268.5" y="-109.8" font-family="Times,serif" font-size="14.00">samples = 3066</text>
<text text-anchor="middle" x="268.5" y="-94.8" font-family="Times,serif" font-size="14.00">value = [1218, 1848]</text>
<text text-anchor="middle" x="268.5" y="-79.8" font-family="Times,serif" font-size="14.00">class = True</text>
</g>
<!-- 2&#45;&gt;216 -->
<g id="edge6" class="edge">
<title>2&#45;&gt;216</title>
<path fill="none" stroke="black" d="M268.5,-190.91C268.5,-182.65 268.5,-173.86 268.5,-165.3"/>
<polygon fill="black" stroke="black" points="272,-165.02 268.5,-155.02 265,-165.02 272,-165.02"/>
</g>
<!-- 4 -->
<g id="node5" class="node">
<title>4</title>
<polygon fill="#c0c0c0" stroke="black" points="74.5,-36 20.5,-36 20.5,0 74.5,0 74.5,-36"/>
<text text-anchor="middle" x="47.5" y="-14.3" font-family="Times,serif" font-size="14.00">(...)</text>
</g>
<!-- 3&#45;&gt;4 -->
<g id="edge4" class="edge">
<title>3&#45;&gt;4</title>
<path fill="none" stroke="black" d="M67.81,-71.76C64.46,-63.04 60.99,-54.04 57.89,-45.99"/>
<polygon fill="black" stroke="black" points="61.06,-44.48 54.2,-36.41 54.53,-46.99 61.06,-44.48"/>
</g>
<!-- 75 -->
<g id="node6" class="node">
<title>75</title>
<polygon fill="#c0c0c0" stroke="black" points="146.5,-36 92.5,-36 92.5,0 146.5,0 146.5,-36"/>
<text text-anchor="middle" x="119.5" y="-14.3" font-family="Times,serif" font-size="14.00">(...)</text>
</g>
<!-- 3&#45;&gt;75 -->
<g id="edge5" class="edge">
<title>3&#45;&gt;75</title>
<path fill="none" stroke="black" d="M99.19,-71.76C102.54,-63.04 106.01,-54.04 109.11,-45.99"/>
<polygon fill="black" stroke="black" points="112.47,-46.99 112.8,-36.41 105.94,-44.48 112.47,-46.99"/>
</g>
<!-- 217 -->
<g id="node8" class="node">
<title>217</title>
<polygon fill="#c0c0c0" stroke="black" points="260.5,-36 206.5,-36 206.5,0 260.5,0 260.5,-36"/>
<text text-anchor="middle" x="233.5" y="-14.3" font-family="Times,serif" font-size="14.00">(...)</text>
</g>
<!-- 216&#45;&gt;217 -->
<g id="edge7" class="edge">
<title>216&#45;&gt;217</title>
<path fill="none" stroke="black" d="M253.25,-71.76C249.99,-63.04 246.62,-54.04 243.6,-45.99"/>
<polygon fill="black" stroke="black" points="246.8,-44.54 240.02,-36.41 240.24,-47 246.8,-44.54"/>
</g>
<!-- 312 -->
<g id="node9" class="node">
<title>312</title>
<polygon fill="#c0c0c0" stroke="black" points="332.5,-36 278.5,-36 278.5,0 332.5,0 332.5,-36"/>
<text text-anchor="middle" x="305.5" y="-14.3" font-family="Times,serif" font-size="14.00">(...)</text>
</g>
<!-- 216&#45;&gt;312 -->
<g id="edge8" class="edge">
<title>216&#45;&gt;312</title>
<path fill="none" stroke="black" d="M284.62,-71.76C288.11,-62.94 291.71,-53.84 294.92,-45.72"/>
<polygon fill="black" stroke="black" points="298.19,-46.99 298.61,-36.41 291.68,-44.42 298.19,-46.99"/>
</g>
<!-- 418 -->
<g id="node11" class="node">
<title>418</title>
<polygon fill="#77bced" stroke="black" points="537,-155 370,-155 370,-72 537,-72 537,-155"/>
<text text-anchor="middle" x="453.5" y="-139.8" font-family="Times,serif" font-size="14.00">graphDepth &lt;= 25.5</text>
<text text-anchor="middle" x="453.5" y="-124.8" font-family="Times,serif" font-size="14.00">gini = 0.363</text>
<text text-anchor="middle" x="453.5" y="-109.8" font-family="Times,serif" font-size="14.00">samples = 470</text>
<text text-anchor="middle" x="453.5" y="-94.8" font-family="Times,serif" font-size="14.00">value = [112, 358]</text>
<text text-anchor="middle" x="453.5" y="-79.8" font-family="Times,serif" font-size="14.00">class = True</text>
</g>
<!-- 417&#45;&gt;418 -->
<g id="edge10" class="edge">
<title>417&#45;&gt;418</title>
<path fill="none" stroke="black" d="M505.09,-190.91C499.09,-182.01 492.67,-172.51 486.47,-163.33"/>
<polygon fill="black" stroke="black" points="489.36,-161.35 480.86,-155.02 483.56,-165.27 489.36,-161.35"/>
</g>
<!-- 477 -->
<g id="node14" class="node">
<title>477</title>
<polygon fill="#a9d4f4" stroke="black" points="704,-155 555,-155 555,-72 704,-72 704,-155"/>
<text text-anchor="middle" x="629.5" y="-139.8" font-family="Times,serif" font-size="14.00">sdComp &lt;= 0.065</text>
<text text-anchor="middle" x="629.5" y="-124.8" font-family="Times,serif" font-size="14.00">gini = 0.461</text>
<text text-anchor="middle" x="629.5" y="-109.8" font-family="Times,serif" font-size="14.00">samples = 388</text>
<text text-anchor="middle" x="629.5" y="-94.8" font-family="Times,serif" font-size="14.00">value = [140, 248]</text>
<text text-anchor="middle" x="629.5" y="-79.8" font-family="Times,serif" font-size="14.00">class = True</text>
</g>
<!-- 417&#45;&gt;477 -->
<g id="edge13" class="edge">
<title>417&#45;&gt;477</title>
<path fill="none" stroke="black" d="M566.15,-190.91C573.68,-181.83 581.73,-172.12 589.48,-162.77"/>
<polygon fill="black" stroke="black" points="592.22,-164.95 595.91,-155.02 586.83,-160.49 592.22,-164.95"/>
</g>
<!-- 419 -->
<g id="node12" class="node">
<title>419</title>
<polygon fill="#c0c0c0" stroke="black" points="424.5,-36 370.5,-36 370.5,0 424.5,0 424.5,-36"/>
<text text-anchor="middle" x="397.5" y="-14.3" font-family="Times,serif" font-size="14.00">(...)</text>
</g>
<!-- 418&#45;&gt;419 -->
<g id="edge11" class="edge">
<title>418&#45;&gt;419</title>
<path fill="none" stroke="black" d="M429.1,-71.76C423.7,-62.75 418.13,-53.44 413.19,-45.19"/>
<polygon fill="black" stroke="black" points="416.07,-43.19 407.92,-36.41 410.06,-46.78 416.07,-43.19"/>
</g>
<!-- 444 -->
<g id="node13" class="node">
<title>444</title>
<polygon fill="#c0c0c0" stroke="black" points="496.5,-36 442.5,-36 442.5,0 496.5,0 496.5,-36"/>
<text text-anchor="middle" x="469.5" y="-14.3" font-family="Times,serif" font-size="14.00">(...)</text>
</g>
<!-- 418&#45;&gt;444 -->
<g id="edge12" class="edge">
<title>418&#45;&gt;444</title>
<path fill="none" stroke="black" d="M460.47,-71.76C461.93,-63.24 463.44,-54.44 464.79,-46.53"/>
<polygon fill="black" stroke="black" points="468.28,-46.85 466.52,-36.41 461.38,-45.67 468.28,-46.85"/>
</g>
<!-- 478 -->
<g id="node15" class="node">
<title>478</title>
<polygon fill="#c0c0c0" stroke="black" points="595.5,-36 541.5,-36 541.5,0 595.5,0 595.5,-36"/>
<text text-anchor="middle" x="568.5" y="-14.3" font-family="Times,serif" font-size="14.00">(...)</text>
</g>
<!-- 477&#45;&gt;478 -->
<g id="edge14" class="edge">
<title>477&#45;&gt;478</title>
<path fill="none" stroke="black" d="M602.92,-71.76C596.98,-62.65 590.84,-53.24 585.41,-44.92"/>
<polygon fill="black" stroke="black" points="588.25,-42.87 579.86,-36.41 582.39,-46.69 588.25,-42.87"/>
</g>
<!-- 499 -->
<g id="node16" class="node">
<title>499</title>
<polygon fill="#c0c0c0" stroke="black" points="667.5,-36 613.5,-36 613.5,0 667.5,0 667.5,-36"/>
<text text-anchor="middle" x="640.5" y="-14.3" font-family="Times,serif" font-size="14.00">(...)</text>
</g>
<!-- 477&#45;&gt;499 -->
<g id="edge15" class="edge">
<title>477&#45;&gt;499</title>
<path fill="none" stroke="black" d="M634.29,-71.76C635.3,-63.24 636.33,-54.44 637.26,-46.53"/>
<polygon fill="black" stroke="black" points="640.76,-46.75 638.45,-36.41 633.81,-45.93 640.76,-46.75"/>
</g>
<!-- 537 -->
<g id="node18" class="node">
<title>537</title>
<polygon fill="#f6fbfe" stroke="black" points="954,-274 805,-274 805,-191 954,-191 954,-274"/>
<text text-anchor="middle" x="879.5" y="-258.8" font-family="Times,serif" font-size="14.00">sdComm &lt;= 2.0</text>
<text text-anchor="middle" x="879.5" y="-243.8" font-family="Times,serif" font-size="14.00">gini = 0.5</text>
<text text-anchor="middle" x="879.5" y="-228.8" font-family="Times,serif" font-size="14.00">samples = 684</text>
<text text-anchor="middle" x="879.5" y="-213.8" font-family="Times,serif" font-size="14.00">value = [334, 350]</text>
<text text-anchor="middle" x="879.5" y="-198.8" font-family="Times,serif" font-size="14.00">class = True</text>
</g>
<!-- 536&#45;&gt;537 -->
<g id="edge17" class="edge">
<title>536&#45;&gt;537</title>
<path fill="none" stroke="black" d="M879.5,-309.91C879.5,-301.65 879.5,-292.86 879.5,-284.3"/>
<polygon fill="black" stroke="black" points="883,-284.02 879.5,-274.02 876,-284.02 883,-284.02"/>
</g>
<!-- 572 -->
<g id="node25" class="node">
<title>572</title>
<polygon fill="#f8dfcd" stroke="black" points="1223,-274 1056,-274 1056,-191 1223,-191 1223,-274"/>
<text text-anchor="middle" x="1139.5" y="-258.8" font-family="Times,serif" font-size="14.00">sdComp &lt;= 6.5</text>
<text text-anchor="middle" x="1139.5" y="-243.8" font-family="Times,serif" font-size="14.00">gini = 0.49</text>
<text text-anchor="middle" x="1139.5" y="-228.8" font-family="Times,serif" font-size="14.00">samples = 9020</text>
<text text-anchor="middle" x="1139.5" y="-213.8" font-family="Times,serif" font-size="14.00">value = [5161, 3859]</text>
<text text-anchor="middle" x="1139.5" y="-198.8" font-family="Times,serif" font-size="14.00">class = False</text>
</g>
<!-- 536&#45;&gt;572 -->
<g id="edge24" class="edge">
<title>536&#45;&gt;572</title>
<path fill="none" stroke="black" d="M963.2,-312.84C989.87,-300.83 1019.54,-287.48 1046.81,-275.21"/>
<polygon fill="black" stroke="black" points="1048.28,-278.39 1055.96,-271.09 1045.4,-272 1048.28,-278.39"/>
</g>
<!-- 538 -->
<g id="node19" class="node">
<title>538</title>
<polygon fill="#d2e9f9" stroke="black" points="871,-155 722,-155 722,-72 871,-72 871,-155"/>
<text text-anchor="middle" x="796.5" y="-139.8" font-family="Times,serif" font-size="14.00">sdComp &lt;= 6.5</text>
<text text-anchor="middle" x="796.5" y="-124.8" font-family="Times,serif" font-size="14.00">gini = 0.492</text>
<text text-anchor="middle" x="796.5" y="-109.8" font-family="Times,serif" font-size="14.00">samples = 294</text>
<text text-anchor="middle" x="796.5" y="-94.8" font-family="Times,serif" font-size="14.00">value = [128, 166]</text>
<text text-anchor="middle" x="796.5" y="-79.8" font-family="Times,serif" font-size="14.00">class = True</text>
</g>
<!-- 537&#45;&gt;538 -->
<g id="edge18" class="edge">
<title>537&#45;&gt;538</title>
<path fill="none" stroke="black" d="M850.7,-190.91C844.39,-182.01 837.65,-172.51 831.14,-163.33"/>
<polygon fill="black" stroke="black" points="833.89,-161.15 825.25,-155.02 828.18,-165.2 833.89,-161.15"/>
</g>
<!-- 549 -->
<g id="node22" class="node">
<title>549</title>
<polygon fill="#fcf2ea" stroke="black" points="1038,-155 889,-155 889,-72 1038,-72 1038,-155"/>
<text text-anchor="middle" x="963.5" y="-139.8" font-family="Times,serif" font-size="14.00">sdComp &lt;= 2.0</text>
<text text-anchor="middle" x="963.5" y="-124.8" font-family="Times,serif" font-size="14.00">gini = 0.498</text>
<text text-anchor="middle" x="963.5" y="-109.8" font-family="Times,serif" font-size="14.00">samples = 390</text>
<text text-anchor="middle" x="963.5" y="-94.8" font-family="Times,serif" font-size="14.00">value = [206, 184]</text>
<text text-anchor="middle" x="963.5" y="-79.8" font-family="Times,serif" font-size="14.00">class = False</text>
</g>
<!-- 537&#45;&gt;549 -->
<g id="edge21" class="edge">
<title>537&#45;&gt;549</title>
<path fill="none" stroke="black" d="M908.64,-190.91C915.03,-182.01 921.85,-172.51 928.44,-163.33"/>
<polygon fill="black" stroke="black" points="931.42,-165.19 934.41,-155.02 925.73,-161.1 931.42,-165.19"/>
</g>
<!-- 539 -->
<g id="node20" class="node">
<title>539</title>
<polygon fill="#c0c0c0" stroke="black" points="762.5,-36 708.5,-36 708.5,0 762.5,0 762.5,-36"/>
<text text-anchor="middle" x="735.5" y="-14.3" font-family="Times,serif" font-size="14.00">(...)</text>
</g>
<!-- 538&#45;&gt;539 -->
<g id="edge19" class="edge">
<title>538&#45;&gt;539</title>
<path fill="none" stroke="black" d="M769.92,-71.76C763.98,-62.65 757.84,-53.24 752.41,-44.92"/>
<polygon fill="black" stroke="black" points="755.25,-42.87 746.86,-36.41 749.39,-46.69 755.25,-42.87"/>
</g>
<!-- 546 -->
<g id="node21" class="node">
<title>546</title>
<polygon fill="#c0c0c0" stroke="black" points="834.5,-36 780.5,-36 780.5,0 834.5,0 834.5,-36"/>
<text text-anchor="middle" x="807.5" y="-14.3" font-family="Times,serif" font-size="14.00">(...)</text>
</g>
<!-- 538&#45;&gt;546 -->
<g id="edge20" class="edge">
<title>538&#45;&gt;546</title>
<path fill="none" stroke="black" d="M801.29,-71.76C802.3,-63.24 803.33,-54.44 804.26,-46.53"/>
<polygon fill="black" stroke="black" points="807.76,-46.75 805.45,-36.41 800.81,-45.93 807.76,-46.75"/>
</g>
<!-- 550 -->
<g id="node23" class="node">
<title>550</title>
<polygon fill="#c0c0c0" stroke="black" points="934.5,-36 880.5,-36 880.5,0 934.5,0 934.5,-36"/>
<text text-anchor="middle" x="907.5" y="-14.3" font-family="Times,serif" font-size="14.00">(...)</text>
</g>
<!-- 549&#45;&gt;550 -->
<g id="edge22" class="edge">
<title>549&#45;&gt;550</title>
<path fill="none" stroke="black" d="M939.1,-71.76C933.7,-62.75 928.13,-53.44 923.19,-45.19"/>
<polygon fill="black" stroke="black" points="926.07,-43.19 917.92,-36.41 920.06,-46.78 926.07,-43.19"/>
</g>
<!-- 557 -->
<g id="node24" class="node">
<title>557</title>
<polygon fill="#c0c0c0" stroke="black" points="1006.5,-36 952.5,-36 952.5,0 1006.5,0 1006.5,-36"/>
<text text-anchor="middle" x="979.5" y="-14.3" font-family="Times,serif" font-size="14.00">(...)</text>
</g>
<!-- 549&#45;&gt;557 -->
<g id="edge23" class="edge">
<title>549&#45;&gt;557</title>
<path fill="none" stroke="black" d="M970.47,-71.76C971.93,-63.24 973.44,-54.44 974.79,-46.53"/>
<polygon fill="black" stroke="black" points="978.28,-46.85 976.52,-36.41 971.38,-45.67 978.28,-46.85"/>
</g>
<!-- 573 -->
<g id="node26" class="node">
<title>573</title>
<polygon fill="#f8dcc8" stroke="black" points="1223,-155 1056,-155 1056,-72 1223,-72 1223,-155"/>
<text text-anchor="middle" x="1139.5" y="-139.8" font-family="Times,serif" font-size="14.00">graphDepth &lt;= 25.5</text>
<text text-anchor="middle" x="1139.5" y="-124.8" font-family="Times,serif" font-size="14.00">gini = 0.487</text>
<text text-anchor="middle" x="1139.5" y="-109.8" font-family="Times,serif" font-size="14.00">samples = 6512</text>
<text text-anchor="middle" x="1139.5" y="-94.8" font-family="Times,serif" font-size="14.00">value = [3783, 2729]</text>
<text text-anchor="middle" x="1139.5" y="-79.8" font-family="Times,serif" font-size="14.00">class = False</text>
</g>
<!-- 572&#45;&gt;573 -->
<g id="edge25" class="edge">
<title>572&#45;&gt;573</title>
<path fill="none" stroke="black" d="M1139.5,-190.91C1139.5,-182.65 1139.5,-173.86 1139.5,-165.3"/>
<polygon fill="black" stroke="black" points="1143,-165.02 1139.5,-155.02 1136,-165.02 1143,-165.02"/>
</g>
<!-- 738 -->
<g id="node29" class="node">
<title>738</title>
<polygon fill="#fae8db" stroke="black" points="1408,-155 1241,-155 1241,-72 1408,-72 1408,-155"/>
<text text-anchor="middle" x="1324.5" y="-139.8" font-family="Times,serif" font-size="14.00">graphDepth &lt;= 25.5</text>
<text text-anchor="middle" x="1324.5" y="-124.8" font-family="Times,serif" font-size="14.00">gini = 0.495</text>
<text text-anchor="middle" x="1324.5" y="-109.8" font-family="Times,serif" font-size="14.00">samples = 2508</text>
<text text-anchor="middle" x="1324.5" y="-94.8" font-family="Times,serif" font-size="14.00">value = [1378, 1130]</text>
<text text-anchor="middle" x="1324.5" y="-79.8" font-family="Times,serif" font-size="14.00">class = False</text>
</g>
<!-- 572&#45;&gt;738 -->
<g id="edge28" class="edge">
<title>572&#45;&gt;738</title>
<path fill="none" stroke="black" d="M1203.68,-190.91C1219.18,-181.11 1235.85,-170.56 1251.71,-160.53"/>
<polygon fill="black" stroke="black" points="1253.85,-163.32 1260.43,-155.02 1250.11,-157.41 1253.85,-163.32"/>
</g>
<!-- 574 -->
<g id="node27" class="node">
<title>574</title>
<polygon fill="#c0c0c0" stroke="black" points="1130.5,-36 1076.5,-36 1076.5,0 1130.5,0 1130.5,-36"/>
<text text-anchor="middle" x="1103.5" y="-14.3" font-family="Times,serif" font-size="14.00">(...)</text>
</g>
<!-- 573&#45;&gt;574 -->
<g id="edge26" class="edge">
<title>573&#45;&gt;574</title>
<path fill="none" stroke="black" d="M1123.81,-71.76C1120.46,-63.04 1116.99,-54.04 1113.89,-45.99"/>
<polygon fill="black" stroke="black" points="1117.06,-44.48 1110.2,-36.41 1110.53,-46.99 1117.06,-44.48"/>
</g>
<!-- 715 -->
<g id="node28" class="node">
<title>715</title>
<polygon fill="#c0c0c0" stroke="black" points="1202.5,-36 1148.5,-36 1148.5,0 1202.5,0 1202.5,-36"/>
<text text-anchor="middle" x="1175.5" y="-14.3" font-family="Times,serif" font-size="14.00">(...)</text>
</g>
<!-- 573&#45;&gt;715 -->
<g id="edge27" class="edge">
<title>573&#45;&gt;715</title>
<path fill="none" stroke="black" d="M1155.19,-71.76C1158.54,-63.04 1162.01,-54.04 1165.11,-45.99"/>
<polygon fill="black" stroke="black" points="1168.47,-46.99 1168.8,-36.41 1161.94,-44.48 1168.47,-46.99"/>
</g>
<!-- 739 -->
<g id="node30" class="node">
<title>739</title>
<polygon fill="#c0c0c0" stroke="black" points="1315.5,-36 1261.5,-36 1261.5,0 1315.5,0 1315.5,-36"/>
<text text-anchor="middle" x="1288.5" y="-14.3" font-family="Times,serif" font-size="14.00">(...)</text>
</g>
<!-- 738&#45;&gt;739 -->
<g id="edge29" class="edge">
<title>738&#45;&gt;739</title>
<path fill="none" stroke="black" d="M1308.81,-71.76C1305.46,-63.04 1301.99,-54.04 1298.89,-45.99"/>
<polygon fill="black" stroke="black" points="1302.06,-44.48 1295.2,-36.41 1295.53,-46.99 1302.06,-44.48"/>
</g>
<!-- 806 -->
<g id="node31" class="node">
<title>806</title>
<polygon fill="#c0c0c0" stroke="black" points="1387.5,-36 1333.5,-36 1333.5,0 1387.5,0 1387.5,-36"/>
<text text-anchor="middle" x="1360.5" y="-14.3" font-family="Times,serif" font-size="14.00">(...)</text>
</g>
<!-- 738&#45;&gt;806 -->
<g id="edge30" class="edge">
<title>738&#45;&gt;806</title>
<path fill="none" stroke="black" d="M1340.19,-71.76C1343.54,-63.04 1347.01,-54.04 1350.11,-45.99"/>
<polygon fill="black" stroke="black" points="1353.47,-46.99 1353.8,-36.41 1346.94,-44.48 1353.47,-46.99"/>
</g>
</g>
</svg>
