<?xml version="1.0" encoding="UTF-8" standalone="no"?>
<!DOCTYPE svg PUBLIC "-//W3C//DTD SVG 1.1//EN"
 "http://www.w3.org/Graphics/SVG/1.1/DTD/svg11.dtd">
<!-- Generated by graphviz version 2.43.0 (0)
 -->
<!-- Title: Tree Pages: 1 -->
<svg width="1420pt" height="520pt"
 viewBox="0.00 0.00 1420.00 520.00" xmlns="http://www.w3.org/2000/svg" xmlns:xlink="http://www.w3.org/1999/xlink">
<g id="graph0" class="graph" transform="scale(1 1) rotate(0) translate(4 516)">
<title>Tree</title>
<polygon fill="white" stroke="transparent" points="-4,4 -4,-516 1416,-516 1416,4 -4,4"/>
<!-- 0 -->
<g id="node1" class="node">
<title>0</title>
<polygon fill="#f1f8fd" stroke="black" points="809,-512 624,-512 624,-429 809,-429 809,-512"/>
<text text-anchor="middle" x="716.5" y="-496.8" font-family="Times,serif" font-size="14.00">CCR &lt;= 5.5</text>
<text text-anchor="middle" x="716.5" y="-481.8" font-family="Times,serif" font-size="14.00">gini = 0.499</text>
<text text-anchor="middle" x="716.5" y="-466.8" font-family="Times,serif" font-size="14.00">samples = 25925</text>
<text text-anchor="middle" x="716.5" y="-451.8" font-family="Times,serif" font-size="14.00">value = [12493, 13432]</text>
<text text-anchor="middle" x="716.5" y="-436.8" font-family="Times,serif" font-size="14.00">class = True</text>
</g>
<!-- 1 -->
<g id="node2" class="node">
<title>1</title>
<polygon fill="#cce6f8" stroke="black" points="622,-393 455,-393 455,-310 622,-310 622,-393"/>
<text text-anchor="middle" x="538.5" y="-377.8" font-family="Times,serif" font-size="14.00">graphSize &lt;= 40.0</text>
<text text-anchor="middle" x="538.5" y="-362.8" font-family="Times,serif" font-size="14.00">gini = 0.489</text>
<text text-anchor="middle" x="538.5" y="-347.8" font-family="Times,serif" font-size="14.00">samples = 15929</text>
<text text-anchor="middle" x="538.5" y="-332.8" font-family="Times,serif" font-size="14.00">value = [6788, 9141]</text>
<text text-anchor="middle" x="538.5" y="-317.8" font-family="Times,serif" font-size="14.00">class = True</text>
</g>
<!-- 0&#45;&gt;1 -->
<g id="edge1" class="edge">
<title>0&#45;&gt;1</title>
<path fill="none" stroke="black" d="M654.74,-428.91C639.83,-419.11 623.79,-408.56 608.53,-398.53"/>
<polygon fill="black" stroke="black" points="610.43,-395.59 600.15,-393.02 606.58,-401.44 610.43,-395.59"/>
<text text-anchor="middle" x="605.21" y="-413.8" font-family="Times,serif" font-size="14.00">True</text>
</g>
<!-- 520 -->
<g id="node17" class="node">
<title>520</title>
<polygon fill="#f9e0ce" stroke="black" points="976,-393 809,-393 809,-310 976,-310 976,-393"/>
<text text-anchor="middle" x="892.5" y="-377.8" font-family="Times,serif" font-size="14.00">graphDepth &lt;= 13.5</text>
<text text-anchor="middle" x="892.5" y="-362.8" font-family="Times,serif" font-size="14.00">gini = 0.49</text>
<text text-anchor="middle" x="892.5" y="-347.8" font-family="Times,serif" font-size="14.00">samples = 9996</text>
<text text-anchor="middle" x="892.5" y="-332.8" font-family="Times,serif" font-size="14.00">value = [5705, 4291]</text>
<text text-anchor="middle" x="892.5" y="-317.8" font-family="Times,serif" font-size="14.00">class = False</text>
</g>
<!-- 0&#45;&gt;520 -->
<g id="edge16" class="edge">
<title>0&#45;&gt;520</title>
<path fill="none" stroke="black" d="M777.56,-428.91C792.17,-419.2 807.87,-408.76 822.84,-398.81"/>
<polygon fill="black" stroke="black" points="825.16,-401.47 831.55,-393.02 821.28,-395.64 825.16,-401.47"/>
<text text-anchor="middle" x="826.61" y="-413.83" font-family="Times,serif" font-size="14.00">False</text>
</g>
<!-- 2 -->
<g id="node3" class="node">
<title>2</title>
<polygon fill="#daedfa" stroke="black" points="352,-274 185,-274 185,-191 352,-191 352,-274"/>
<text text-anchor="middle" x="268.5" y="-258.8" font-family="Times,serif" font-size="14.00">graphSize &lt;= 22.5</text>
<text text-anchor="middle" x="268.5" y="-243.8" font-family="Times,serif" font-size="14.00">gini = 0.495</text>
<text text-anchor="middle" x="268.5" y="-228.8" font-family="Times,serif" font-size="14.00">samples = 13865</text>
<text text-anchor="middle" x="268.5" y="-213.8" font-family="Times,serif" font-size="14.00">value = [6214, 7651]</text>
<text text-anchor="middle" x="268.5" y="-198.8" font-family="Times,serif" font-size="14.00">class = True</text>
</g>
<!-- 1&#45;&gt;2 -->
<g id="edge2" class="edge">
<title>1&#45;&gt;2</title>
<path fill="none" stroke="black" d="M454.92,-314.28C425.3,-301.45 391.81,-286.93 361.46,-273.78"/>
<polygon fill="black" stroke="black" points="362.72,-270.51 352.15,-269.75 359.93,-276.94 362.72,-270.51"/>
</g>
<!-- 283 -->
<g id="node10" class="node">
<title>283</title>
<polygon fill="#85c3ef" stroke="black" points="617.5,-274 459.5,-274 459.5,-191 617.5,-191 617.5,-274"/>
<text text-anchor="middle" x="538.5" y="-258.8" font-family="Times,serif" font-size="14.00">nbproc &lt;= 4.5</text>
<text text-anchor="middle" x="538.5" y="-243.8" font-family="Times,serif" font-size="14.00">gini = 0.402</text>
<text text-anchor="middle" x="538.5" y="-228.8" font-family="Times,serif" font-size="14.00">samples = 2064</text>
<text text-anchor="middle" x="538.5" y="-213.8" font-family="Times,serif" font-size="14.00">value = [574, 1490]</text>
<text text-anchor="middle" x="538.5" y="-198.8" font-family="Times,serif" font-size="14.00">class = True</text>
</g>
<!-- 1&#45;&gt;283 -->
<g id="edge9" class="edge">
<title>1&#45;&gt;283</title>
<path fill="none" stroke="black" d="M538.5,-309.91C538.5,-301.65 538.5,-292.86 538.5,-284.3"/>
<polygon fill="black" stroke="black" points="542,-284.02 538.5,-274.02 535,-284.02 542,-284.02"/>
</g>
<!-- 3 -->
<g id="node4" class="node">
<title>3</title>
<polygon fill="#e3f1fb" stroke="black" points="167,-155 0,-155 0,-72 167,-72 167,-155"/>
<text text-anchor="middle" x="83.5" y="-139.8" font-family="Times,serif" font-size="14.00">sdComp &lt;= 0.065</text>
<text text-anchor="middle" x="83.5" y="-124.8" font-family="Times,serif" font-size="14.00">gini = 0.497</text>
<text text-anchor="middle" x="83.5" y="-109.8" font-family="Times,serif" font-size="14.00">samples = 10876</text>
<text text-anchor="middle" x="83.5" y="-94.8" font-family="Times,serif" font-size="14.00">value = [5021, 5855]</text>
<text text-anchor="middle" x="83.5" y="-79.8" font-family="Times,serif" font-size="14.00">class = True</text>
</g>
<!-- 2&#45;&gt;3 -->
<g id="edge3" class="edge">
<title>2&#45;&gt;3</title>
<path fill="none" stroke="black" d="M204.32,-190.91C188.82,-181.11 172.15,-170.56 156.29,-160.53"/>
<polygon fill="black" stroke="black" points="157.89,-157.41 147.57,-155.02 154.15,-163.32 157.89,-157.41"/>
</g>
<!-- 146 -->
<g id="node7" class="node">
<title>146</title>
<polygon fill="#bddef6" stroke="black" points="352,-155 185,-155 185,-72 352,-72 352,-155"/>
<text text-anchor="middle" x="268.5" y="-139.8" font-family="Times,serif" font-size="14.00">nbproc &lt;= 4.5</text>
<text text-anchor="middle" x="268.5" y="-124.8" font-family="Times,serif" font-size="14.00">gini = 0.48</text>
<text text-anchor="middle" x="268.5" y="-109.8" font-family="Times,serif" font-size="14.00">samples = 2989</text>
<text text-anchor="middle" x="268.5" y="-94.8" font-family="Times,serif" font-size="14.00">value = [1193, 1796]</text>
<text text-anchor="middle" x="268.5" y="-79.8" font-family="Times,serif" font-size="14.00">class = True</text>
</g>
<!-- 2&#45;&gt;146 -->
<g id="edge6" class="edge">
<title>2&#45;&gt;146</title>
<path fill="none" stroke="black" d="M268.5,-190.91C268.5,-182.65 268.5,-173.86 268.5,-165.3"/>
<polygon fill="black" stroke="black" points="272,-165.02 268.5,-155.02 265,-165.02 272,-165.02"/>
</g>
<!-- 4 -->
<g id="node5" class="node">
<title>4</title>
<polygon fill="#c0c0c0" stroke="black" points="74.5,-36 20.5,-36 20.5,0 74.5,0 74.5,-36"/>
<text text-anchor="middle" x="47.5" y="-14.3" font-family="Times,serif" font-size="14.00">(...)</text>
</g>
<!-- 3&#45;&gt;4 -->
<g id="edge4" class="edge">
<title>3&#45;&gt;4</title>
<path fill="none" stroke="black" d="M67.81,-71.76C64.46,-63.04 60.99,-54.04 57.89,-45.99"/>
<polygon fill="black" stroke="black" points="61.06,-44.48 54.2,-36.41 54.53,-46.99 61.06,-44.48"/>
</g>
<!-- 51 -->
<g id="node6" class="node">
<title>51</title>
<polygon fill="#c0c0c0" stroke="black" points="146.5,-36 92.5,-36 92.5,0 146.5,0 146.5,-36"/>
<text text-anchor="middle" x="119.5" y="-14.3" font-family="Times,serif" font-size="14.00">(...)</text>
</g>
<!-- 3&#45;&gt;51 -->
<g id="edge5" class="edge">
<title>3&#45;&gt;51</title>
<path fill="none" stroke="black" d="M99.19,-71.76C102.54,-63.04 106.01,-54.04 109.11,-45.99"/>
<polygon fill="black" stroke="black" points="112.47,-46.99 112.8,-36.41 105.94,-44.48 112.47,-46.99"/>
</g>
<!-- 147 -->
<g id="node8" class="node">
<title>147</title>
<polygon fill="#c0c0c0" stroke="black" points="261.5,-36 207.5,-36 207.5,0 261.5,0 261.5,-36"/>
<text text-anchor="middle" x="234.5" y="-14.3" font-family="Times,serif" font-size="14.00">(...)</text>
</g>
<!-- 146&#45;&gt;147 -->
<g id="edge7" class="edge">
<title>146&#45;&gt;147</title>
<path fill="none" stroke="black" d="M253.69,-71.76C250.52,-63.04 247.24,-54.04 244.32,-45.99"/>
<polygon fill="black" stroke="black" points="247.54,-44.61 240.83,-36.41 240.96,-47 247.54,-44.61"/>
</g>
<!-- 212 -->
<g id="node9" class="node">
<title>212</title>
<polygon fill="#c0c0c0" stroke="black" points="333.5,-36 279.5,-36 279.5,0 333.5,0 333.5,-36"/>
<text text-anchor="middle" x="306.5" y="-14.3" font-family="Times,serif" font-size="14.00">(...)</text>
</g>
<!-- 146&#45;&gt;212 -->
<g id="edge8" class="edge">
<title>146&#45;&gt;212</title>
<path fill="none" stroke="black" d="M285.06,-71.76C288.64,-62.94 292.34,-53.84 295.64,-45.72"/>
<polygon fill="black" stroke="black" points="298.9,-46.99 299.43,-36.41 292.42,-44.35 298.9,-46.99"/>
</g>
<!-- 284 -->
<g id="node11" class="node">
<title>284</title>
<polygon fill="#72b9ec" stroke="black" points="537,-155 370,-155 370,-72 537,-72 537,-155"/>
<text text-anchor="middle" x="453.5" y="-139.8" font-family="Times,serif" font-size="14.00">graphDepth &lt;= 25.5</text>
<text text-anchor="middle" x="453.5" y="-124.8" font-family="Times,serif" font-size="14.00">gini = 0.346</text>
<text text-anchor="middle" x="453.5" y="-109.8" font-family="Times,serif" font-size="14.00">samples = 954</text>
<text text-anchor="middle" x="453.5" y="-94.8" font-family="Times,serif" font-size="14.00">value = [212, 742]</text>
<text text-anchor="middle" x="453.5" y="-79.8" font-family="Times,serif" font-size="14.00">class = True</text>
</g>
<!-- 283&#45;&gt;284 -->
<g id="edge10" class="edge">
<title>283&#45;&gt;284</title>
<path fill="none" stroke="black" d="M509.01,-190.91C502.55,-182.01 495.64,-172.51 488.98,-163.33"/>
<polygon fill="black" stroke="black" points="491.65,-161.05 482.94,-155.02 485.98,-165.17 491.65,-161.05"/>
</g>
<!-- 399 -->
<g id="node14" class="node">
<title>399</title>
<polygon fill="#99ccf2" stroke="black" points="708,-155 555,-155 555,-72 708,-72 708,-155"/>
<text text-anchor="middle" x="631.5" y="-139.8" font-family="Times,serif" font-size="14.00">graphSize &lt;= 75.0</text>
<text text-anchor="middle" x="631.5" y="-124.8" font-family="Times,serif" font-size="14.00">gini = 0.44</text>
<text text-anchor="middle" x="631.5" y="-109.8" font-family="Times,serif" font-size="14.00">samples = 1110</text>
<text text-anchor="middle" x="631.5" y="-94.8" font-family="Times,serif" font-size="14.00">value = [362, 748]</text>
<text text-anchor="middle" x="631.5" y="-79.8" font-family="Times,serif" font-size="14.00">class = True</text>
</g>
<!-- 283&#45;&gt;399 -->
<g id="edge13" class="edge">
<title>283&#45;&gt;399</title>
<path fill="none" stroke="black" d="M570.77,-190.91C577.91,-181.92 585.54,-172.32 592.91,-163.05"/>
<polygon fill="black" stroke="black" points="595.81,-165.03 599.29,-155.02 590.33,-160.67 595.81,-165.03"/>
</g>
<!-- 285 -->
<g id="node12" class="node">
<title>285</title>
<polygon fill="#c0c0c0" stroke="black" points="425.5,-36 371.5,-36 371.5,0 425.5,0 425.5,-36"/>
<text text-anchor="middle" x="398.5" y="-14.3" font-family="Times,serif" font-size="14.00">(...)</text>
</g>
<!-- 284&#45;&gt;285 -->
<g id="edge11" class="edge">
<title>284&#45;&gt;285</title>
<path fill="none" stroke="black" d="M429.54,-71.76C424.24,-62.75 418.76,-53.44 413.91,-45.19"/>
<polygon fill="black" stroke="black" points="416.83,-43.25 408.74,-36.41 410.79,-46.8 416.83,-43.25"/>
</g>
<!-- 366 -->
<g id="node13" class="node">
<title>366</title>
<polygon fill="#c0c0c0" stroke="black" points="497.5,-36 443.5,-36 443.5,0 497.5,0 497.5,-36"/>
<text text-anchor="middle" x="470.5" y="-14.3" font-family="Times,serif" font-size="14.00">(...)</text>
</g>
<!-- 284&#45;&gt;366 -->
<g id="edge12" class="edge">
<title>284&#45;&gt;366</title>
<path fill="none" stroke="black" d="M460.91,-71.76C462.47,-63.14 464.09,-54.24 465.54,-46.26"/>
<polygon fill="black" stroke="black" points="468.99,-46.87 467.34,-36.41 462.1,-45.62 468.99,-46.87"/>
</g>
<!-- 400 -->
<g id="node15" class="node">
<title>400</title>
<polygon fill="#c0c0c0" stroke="black" points="603.5,-36 549.5,-36 549.5,0 603.5,0 603.5,-36"/>
<text text-anchor="middle" x="576.5" y="-14.3" font-family="Times,serif" font-size="14.00">(...)</text>
</g>
<!-- 399&#45;&gt;400 -->
<g id="edge14" class="edge">
<title>399&#45;&gt;400</title>
<path fill="none" stroke="black" d="M607.54,-71.76C602.24,-62.75 596.76,-53.44 591.91,-45.19"/>
<polygon fill="black" stroke="black" points="594.83,-43.25 586.74,-36.41 588.79,-46.8 594.83,-43.25"/>
</g>
<!-- 465 -->
<g id="node16" class="node">
<title>465</title>
<polygon fill="#c0c0c0" stroke="black" points="675.5,-36 621.5,-36 621.5,0 675.5,0 675.5,-36"/>
<text text-anchor="middle" x="648.5" y="-14.3" font-family="Times,serif" font-size="14.00">(...)</text>
</g>
<!-- 399&#45;&gt;465 -->
<g id="edge15" class="edge">
<title>399&#45;&gt;465</title>
<path fill="none" stroke="black" d="M638.91,-71.76C640.47,-63.14 642.09,-54.24 643.54,-46.26"/>
<polygon fill="black" stroke="black" points="646.99,-46.87 645.34,-36.41 640.1,-45.62 646.99,-46.87"/>
</g>
<!-- 521 -->
<g id="node18" class="node">
<title>521</title>
<polygon fill="#f9e4d4" stroke="black" points="976,-274 809,-274 809,-191 976,-191 976,-274"/>
<text text-anchor="middle" x="892.5" y="-258.8" font-family="Times,serif" font-size="14.00">graphDepth &lt;= 9.0</text>
<text text-anchor="middle" x="892.5" y="-243.8" font-family="Times,serif" font-size="14.00">gini = 0.493</text>
<text text-anchor="middle" x="892.5" y="-228.8" font-family="Times,serif" font-size="14.00">samples = 6192</text>
<text text-anchor="middle" x="892.5" y="-213.8" font-family="Times,serif" font-size="14.00">value = [3471, 2721]</text>
<text text-anchor="middle" x="892.5" y="-198.8" font-family="Times,serif" font-size="14.00">class = False</text>
</g>
<!-- 520&#45;&gt;521 -->
<g id="edge17" class="edge">
<title>520&#45;&gt;521</title>
<path fill="none" stroke="black" d="M892.5,-309.91C892.5,-301.65 892.5,-292.86 892.5,-284.3"/>
<polygon fill="black" stroke="black" points="896,-284.02 892.5,-274.02 889,-284.02 896,-284.02"/>
</g>
<!-- 698 -->
<g id="node25" class="node">
<title>698</title>
<polygon fill="#f7dac4" stroke="black" points="1245,-274 1078,-274 1078,-191 1245,-191 1245,-274"/>
<text text-anchor="middle" x="1161.5" y="-258.8" font-family="Times,serif" font-size="14.00">sdComp &lt;= 6.5</text>
<text text-anchor="middle" x="1161.5" y="-243.8" font-family="Times,serif" font-size="14.00">gini = 0.485</text>
<text text-anchor="middle" x="1161.5" y="-228.8" font-family="Times,serif" font-size="14.00">samples = 3804</text>
<text text-anchor="middle" x="1161.5" y="-213.8" font-family="Times,serif" font-size="14.00">value = [2234, 1570]</text>
<text text-anchor="middle" x="1161.5" y="-198.8" font-family="Times,serif" font-size="14.00">class = False</text>
</g>
<!-- 520&#45;&gt;698 -->
<g id="edge24" class="edge">
<title>520&#45;&gt;698</title>
<path fill="none" stroke="black" d="M976.14,-314.12C1005.49,-301.36 1038.63,-286.94 1068.69,-273.87"/>
<polygon fill="black" stroke="black" points="1070.14,-277.05 1077.91,-269.86 1067.35,-270.63 1070.14,-277.05"/>
</g>
<!-- 522 -->
<g id="node19" class="node">
<title>522</title>
<polygon fill="#f9e0ce" stroke="black" points="893,-155 726,-155 726,-72 893,-72 893,-155"/>
<text text-anchor="middle" x="809.5" y="-139.8" font-family="Times,serif" font-size="14.00">graphDepth &lt;= 3.5</text>
<text text-anchor="middle" x="809.5" y="-124.8" font-family="Times,serif" font-size="14.00">gini = 0.49</text>
<text text-anchor="middle" x="809.5" y="-109.8" font-family="Times,serif" font-size="14.00">samples = 4422</text>
<text text-anchor="middle" x="809.5" y="-94.8" font-family="Times,serif" font-size="14.00">value = [2525, 1897]</text>
<text text-anchor="middle" x="809.5" y="-79.8" font-family="Times,serif" font-size="14.00">class = False</text>
</g>
<!-- 521&#45;&gt;522 -->
<g id="edge18" class="edge">
<title>521&#45;&gt;522</title>
<path fill="none" stroke="black" d="M863.7,-190.91C857.39,-182.01 850.65,-172.51 844.14,-163.33"/>
<polygon fill="black" stroke="black" points="846.89,-161.15 838.25,-155.02 841.18,-165.2 846.89,-161.15"/>
</g>
<!-- 663 -->
<g id="node22" class="node">
<title>663</title>
<polygon fill="#fcefe5" stroke="black" points="1060,-155 911,-155 911,-72 1060,-72 1060,-155"/>
<text text-anchor="middle" x="985.5" y="-139.8" font-family="Times,serif" font-size="14.00">sdComm &lt;= 6.5</text>
<text text-anchor="middle" x="985.5" y="-124.8" font-family="Times,serif" font-size="14.00">gini = 0.498</text>
<text text-anchor="middle" x="985.5" y="-109.8" font-family="Times,serif" font-size="14.00">samples = 1770</text>
<text text-anchor="middle" x="985.5" y="-94.8" font-family="Times,serif" font-size="14.00">value = [946, 824]</text>
<text text-anchor="middle" x="985.5" y="-79.8" font-family="Times,serif" font-size="14.00">class = False</text>
</g>
<!-- 521&#45;&gt;663 -->
<g id="edge21" class="edge">
<title>521&#45;&gt;663</title>
<path fill="none" stroke="black" d="M924.77,-190.91C931.91,-181.92 939.54,-172.32 946.91,-163.05"/>
<polygon fill="black" stroke="black" points="949.81,-165.03 953.29,-155.02 944.33,-160.67 949.81,-165.03"/>
</g>
<!-- 523 -->
<g id="node20" class="node">
<title>523</title>
<polygon fill="#c0c0c0" stroke="black" points="780.5,-36 726.5,-36 726.5,0 780.5,0 780.5,-36"/>
<text text-anchor="middle" x="753.5" y="-14.3" font-family="Times,serif" font-size="14.00">(...)</text>
</g>
<!-- 522&#45;&gt;523 -->
<g id="edge19" class="edge">
<title>522&#45;&gt;523</title>
<path fill="none" stroke="black" d="M785.1,-71.76C779.7,-62.75 774.13,-53.44 769.19,-45.19"/>
<polygon fill="black" stroke="black" points="772.07,-43.19 763.92,-36.41 766.06,-46.78 772.07,-43.19"/>
</g>
<!-- 558 -->
<g id="node21" class="node">
<title>558</title>
<polygon fill="#c0c0c0" stroke="black" points="852.5,-36 798.5,-36 798.5,0 852.5,0 852.5,-36"/>
<text text-anchor="middle" x="825.5" y="-14.3" font-family="Times,serif" font-size="14.00">(...)</text>
</g>
<!-- 522&#45;&gt;558 -->
<g id="edge20" class="edge">
<title>522&#45;&gt;558</title>
<path fill="none" stroke="black" d="M816.47,-71.76C817.93,-63.24 819.44,-54.44 820.79,-46.53"/>
<polygon fill="black" stroke="black" points="824.28,-46.85 822.52,-36.41 817.38,-45.67 824.28,-46.85"/>
</g>
<!-- 664 -->
<g id="node23" class="node">
<title>664</title>
<polygon fill="#c0c0c0" stroke="black" points="956.5,-36 902.5,-36 902.5,0 956.5,0 956.5,-36"/>
<text text-anchor="middle" x="929.5" y="-14.3" font-family="Times,serif" font-size="14.00">(...)</text>
</g>
<!-- 663&#45;&gt;664 -->
<g id="edge22" class="edge">
<title>663&#45;&gt;664</title>
<path fill="none" stroke="black" d="M961.1,-71.76C955.7,-62.75 950.13,-53.44 945.19,-45.19"/>
<polygon fill="black" stroke="black" points="948.07,-43.19 939.92,-36.41 942.06,-46.78 948.07,-43.19"/>
</g>
<!-- 687 -->
<g id="node24" class="node">
<title>687</title>
<polygon fill="#c0c0c0" stroke="black" points="1028.5,-36 974.5,-36 974.5,0 1028.5,0 1028.5,-36"/>
<text text-anchor="middle" x="1001.5" y="-14.3" font-family="Times,serif" font-size="14.00">(...)</text>
</g>
<!-- 663&#45;&gt;687 -->
<g id="edge23" class="edge">
<title>663&#45;&gt;687</title>
<path fill="none" stroke="black" d="M992.47,-71.76C993.93,-63.24 995.44,-54.44 996.79,-46.53"/>
<polygon fill="black" stroke="black" points="1000.28,-46.85 998.52,-36.41 993.38,-45.67 1000.28,-46.85"/>
</g>
<!-- 699 -->
<g id="node26" class="node">
<title>699</title>
<polygon fill="#f6d4bc" stroke="black" points="1245,-155 1078,-155 1078,-72 1245,-72 1245,-155"/>
<text text-anchor="middle" x="1161.5" y="-139.8" font-family="Times,serif" font-size="14.00">sdComp &lt;= 2.0</text>
<text text-anchor="middle" x="1161.5" y="-124.8" font-family="Times,serif" font-size="14.00">gini = 0.479</text>
<text text-anchor="middle" x="1161.5" y="-109.8" font-family="Times,serif" font-size="14.00">samples = 2808</text>
<text text-anchor="middle" x="1161.5" y="-94.8" font-family="Times,serif" font-size="14.00">value = [1692, 1116]</text>
<text text-anchor="middle" x="1161.5" y="-79.8" font-family="Times,serif" font-size="14.00">class = False</text>
</g>
<!-- 698&#45;&gt;699 -->
<g id="edge25" class="edge">
<title>698&#45;&gt;699</title>
<path fill="none" stroke="black" d="M1161.5,-190.91C1161.5,-182.65 1161.5,-173.86 1161.5,-165.3"/>
<polygon fill="black" stroke="black" points="1165,-165.02 1161.5,-155.02 1158,-165.02 1165,-165.02"/>
</g>
<!-- 770 -->
<g id="node29" class="node">
<title>770</title>
<polygon fill="#fbebdf" stroke="black" points="1412,-155 1263,-155 1263,-72 1412,-72 1412,-155"/>
<text text-anchor="middle" x="1337.5" y="-139.8" font-family="Times,serif" font-size="14.00">nbproc &lt;= 4.5</text>
<text text-anchor="middle" x="1337.5" y="-124.8" font-family="Times,serif" font-size="14.00">gini = 0.496</text>
<text text-anchor="middle" x="1337.5" y="-109.8" font-family="Times,serif" font-size="14.00">samples = 996</text>
<text text-anchor="middle" x="1337.5" y="-94.8" font-family="Times,serif" font-size="14.00">value = [542, 454]</text>
<text text-anchor="middle" x="1337.5" y="-79.8" font-family="Times,serif" font-size="14.00">class = False</text>
</g>
<!-- 698&#45;&gt;770 -->
<g id="edge28" class="edge">
<title>698&#45;&gt;770</title>
<path fill="none" stroke="black" d="M1222.56,-190.91C1237.17,-181.2 1252.87,-170.76 1267.84,-160.81"/>
<polygon fill="black" stroke="black" points="1270.16,-163.47 1276.55,-155.02 1266.28,-157.64 1270.16,-163.47"/>
</g>
<!-- 700 -->
<g id="node27" class="node">
<title>700</title>
<polygon fill="#c0c0c0" stroke="black" points="1150.5,-36 1096.5,-36 1096.5,0 1150.5,0 1150.5,-36"/>
<text text-anchor="middle" x="1123.5" y="-14.3" font-family="Times,serif" font-size="14.00">(...)</text>
</g>
<!-- 699&#45;&gt;700 -->
<g id="edge26" class="edge">
<title>699&#45;&gt;700</title>
<path fill="none" stroke="black" d="M1144.94,-71.76C1141.36,-62.94 1137.66,-53.84 1134.36,-45.72"/>
<polygon fill="black" stroke="black" points="1137.58,-44.35 1130.57,-36.41 1131.1,-46.99 1137.58,-44.35"/>
</g>
<!-- 735 -->
<g id="node28" class="node">
<title>735</title>
<polygon fill="#c0c0c0" stroke="black" points="1222.5,-36 1168.5,-36 1168.5,0 1222.5,0 1222.5,-36"/>
<text text-anchor="middle" x="1195.5" y="-14.3" font-family="Times,serif" font-size="14.00">(...)</text>
</g>
<!-- 699&#45;&gt;735 -->
<g id="edge27" class="edge">
<title>699&#45;&gt;735</title>
<path fill="none" stroke="black" d="M1176.31,-71.76C1179.48,-63.04 1182.76,-54.04 1185.68,-45.99"/>
<polygon fill="black" stroke="black" points="1189.04,-47 1189.17,-36.41 1182.46,-44.61 1189.04,-47"/>
</g>
<!-- 771 -->
<g id="node30" class="node">
<title>771</title>
<polygon fill="#c0c0c0" stroke="black" points="1328.5,-36 1274.5,-36 1274.5,0 1328.5,0 1328.5,-36"/>
<text text-anchor="middle" x="1301.5" y="-14.3" font-family="Times,serif" font-size="14.00">(...)</text>
</g>
<!-- 770&#45;&gt;771 -->
<g id="edge29" class="edge">
<title>770&#45;&gt;771</title>
<path fill="none" stroke="black" d="M1321.81,-71.76C1318.46,-63.04 1314.99,-54.04 1311.89,-45.99"/>
<polygon fill="black" stroke="black" points="1315.06,-44.48 1308.2,-36.41 1308.53,-46.99 1315.06,-44.48"/>
</g>
<!-- 788 -->
<g id="node31" class="node">
<title>788</title>
<polygon fill="#c0c0c0" stroke="black" points="1400.5,-36 1346.5,-36 1346.5,0 1400.5,0 1400.5,-36"/>
<text text-anchor="middle" x="1373.5" y="-14.3" font-family="Times,serif" font-size="14.00">(...)</text>
</g>
<!-- 770&#45;&gt;788 -->
<g id="edge30" class="edge">
<title>770&#45;&gt;788</title>
<path fill="none" stroke="black" d="M1353.19,-71.76C1356.54,-63.04 1360.01,-54.04 1363.11,-45.99"/>
<polygon fill="black" stroke="black" points="1366.47,-46.99 1366.8,-36.41 1359.94,-44.48 1366.47,-46.99"/>
</g>
</g>
</svg>
