<?xml version="1.0" encoding="UTF-8" standalone="no"?>
<!DOCTYPE svg PUBLIC "-//W3C//DTD SVG 1.1//EN"
 "http://www.w3.org/Graphics/SVG/1.1/DTD/svg11.dtd">
<!-- Generated by graphviz version 2.43.0 (0)
 -->
<!-- Title: Tree Pages: 1 -->
<svg width="2363pt" height="520pt"
 viewBox="0.00 0.00 2362.50 520.00" xmlns="http://www.w3.org/2000/svg" xmlns:xlink="http://www.w3.org/1999/xlink">
<g id="graph0" class="graph" transform="scale(1 1) rotate(0) translate(4 516)">
<title>Tree</title>
<polygon fill="white" stroke="transparent" points="-4,4 -4,-516 2358.5,-516 2358.5,4 -4,4"/>
<!-- 0 -->
<g id="node1" class="node">
<title>0</title>
<polygon fill="#fce9f4" stroke="black" points="1295.5,-512 948.5,-512 948.5,-429 1295.5,-429 1295.5,-512"/>
<text text-anchor="middle" x="1122" y="-496.8" font-family="Times,serif" font-size="14.00">CCR &lt;= 5.5</text>
<text text-anchor="middle" x="1122" y="-481.8" font-family="Times,serif" font-size="14.00">gini = 0.783</text>
<text text-anchor="middle" x="1122" y="-466.8" font-family="Times,serif" font-size="14.00">samples = 25925</text>
<text text-anchor="middle" x="1122" y="-451.8" font-family="Times,serif" font-size="14.00">value = [5236, 1334, 4216, 1400, 5734, 8005]</text>
<text text-anchor="middle" x="1122" y="-436.8" font-family="Times,serif" font-size="14.00">class = GDL</text>
</g>
<!-- 1 -->
<g id="node2" class="node">
<title>1</title>
<polygon fill="#f8cde6" stroke="black" points="1023,-393 703,-393 703,-310 1023,-310 1023,-393"/>
<text text-anchor="middle" x="863" y="-377.8" font-family="Times,serif" font-size="14.00">graphSize &lt;= 40.0</text>
<text text-anchor="middle" x="863" y="-362.8" font-family="Times,serif" font-size="14.00">gini = 0.679</text>
<text text-anchor="middle" x="863" y="-347.8" font-family="Times,serif" font-size="14.00">samples = 15929</text>
<text text-anchor="middle" x="863" y="-332.8" font-family="Times,serif" font-size="14.00">value = [3662, 342, 156, 526, 4132, 7111]</text>
<text text-anchor="middle" x="863" y="-317.8" font-family="Times,serif" font-size="14.00">class = GDL</text>
</g>
<!-- 0&#45;&gt;1 -->
<g id="edge1" class="edge">
<title>0&#45;&gt;1</title>
<path fill="none" stroke="black" d="M1032.14,-428.91C1009.44,-418.65 984.94,-407.59 961.82,-397.14"/>
<polygon fill="black" stroke="black" points="963.25,-393.95 952.7,-393.02 960.37,-400.33 963.25,-393.95"/>
<text text-anchor="middle" x="961.53" y="-412.71" font-family="Times,serif" font-size="14.00">True</text>
</g>
<!-- 514 -->
<g id="node17" class="node">
<title>514</title>
<polygon fill="#c5f7da" stroke="black" points="1596,-393 1276,-393 1276,-310 1596,-310 1596,-393"/>
<text text-anchor="middle" x="1436" y="-377.8" font-family="Times,serif" font-size="14.00">sdComp &lt;= 2.0</text>
<text text-anchor="middle" x="1436" y="-362.8" font-family="Times,serif" font-size="14.00">gini = 0.759</text>
<text text-anchor="middle" x="1436" y="-347.8" font-family="Times,serif" font-size="14.00">samples = 9996</text>
<text text-anchor="middle" x="1436" y="-332.8" font-family="Times,serif" font-size="14.00">value = [1574, 992, 4060, 874, 1602, 894]</text>
<text text-anchor="middle" x="1436" y="-317.8" font-family="Times,serif" font-size="14.00">class = OLB</text>
</g>
<!-- 0&#45;&gt;514 -->
<g id="edge16" class="edge">
<title>0&#45;&gt;514</title>
<path fill="none" stroke="black" d="M1230.94,-428.91C1258.95,-418.47 1289.22,-407.19 1317.68,-396.59"/>
<polygon fill="black" stroke="black" points="1319.1,-399.79 1327.25,-393.02 1316.66,-393.23 1319.1,-399.79"/>
<text text-anchor="middle" x="1316.86" y="-412.06" font-family="Times,serif" font-size="14.00">False</text>
</g>
<!-- 2 -->
<g id="node3" class="node">
<title>2</title>
<polygon fill="#fad8ec" stroke="black" points="631,-274 311,-274 311,-191 631,-191 631,-274"/>
<text text-anchor="middle" x="471" y="-258.8" font-family="Times,serif" font-size="14.00">CCR &lt;= 0.55</text>
<text text-anchor="middle" x="471" y="-243.8" font-family="Times,serif" font-size="14.00">gini = 0.694</text>
<text text-anchor="middle" x="471" y="-228.8" font-family="Times,serif" font-size="14.00">samples = 13865</text>
<text text-anchor="middle" x="471" y="-213.8" font-family="Times,serif" font-size="14.00">value = [3304, 336, 156, 526, 3790, 5753]</text>
<text text-anchor="middle" x="471" y="-198.8" font-family="Times,serif" font-size="14.00">class = GDL</text>
</g>
<!-- 1&#45;&gt;2 -->
<g id="edge2" class="edge">
<title>1&#45;&gt;2</title>
<path fill="none" stroke="black" d="M727.27,-309.99C691.53,-299.32 652.83,-287.77 616.59,-276.96"/>
<polygon fill="black" stroke="black" points="617.53,-273.58 606.94,-274.07 615.52,-280.29 617.53,-273.58"/>
</g>
<!-- 283 -->
<g id="node10" class="node">
<title>283</title>
<polygon fill="#f08bc6" stroke="black" points="987,-274 739,-274 739,-191 987,-191 987,-274"/>
<text text-anchor="middle" x="863" y="-258.8" font-family="Times,serif" font-size="14.00">nbproc &lt;= 4.5</text>
<text text-anchor="middle" x="863" y="-243.8" font-family="Times,serif" font-size="14.00">gini = 0.51</text>
<text text-anchor="middle" x="863" y="-228.8" font-family="Times,serif" font-size="14.00">samples = 2064</text>
<text text-anchor="middle" x="863" y="-213.8" font-family="Times,serif" font-size="14.00">value = [358, 6, 0, 0, 342, 1358]</text>
<text text-anchor="middle" x="863" y="-198.8" font-family="Times,serif" font-size="14.00">class = GDL</text>
</g>
<!-- 1&#45;&gt;283 -->
<g id="edge9" class="edge">
<title>1&#45;&gt;283</title>
<path fill="none" stroke="black" d="M863,-309.91C863,-301.65 863,-292.86 863,-284.3"/>
<polygon fill="black" stroke="black" points="866.5,-284.02 863,-274.02 859.5,-284.02 866.5,-284.02"/>
</g>
<!-- 3 -->
<g id="node4" class="node">
<title>3</title>
<polygon fill="#fbddee" stroke="black" points="302,-155 0,-155 0,-72 302,-72 302,-155"/>
<text text-anchor="middle" x="151" y="-139.8" font-family="Times,serif" font-size="14.00">sdComp &lt;= 0.065</text>
<text text-anchor="middle" x="151" y="-124.8" font-family="Times,serif" font-size="14.00">gini = 0.692</text>
<text text-anchor="middle" x="151" y="-109.8" font-family="Times,serif" font-size="14.00">samples = 9064</text>
<text text-anchor="middle" x="151" y="-94.8" font-family="Times,serif" font-size="14.00">value = [2412, 88, 20, 438, 2492, 3614]</text>
<text text-anchor="middle" x="151" y="-79.8" font-family="Times,serif" font-size="14.00">class = GDL</text>
</g>
<!-- 2&#45;&gt;3 -->
<g id="edge3" class="edge">
<title>2&#45;&gt;3</title>
<path fill="none" stroke="black" d="M359.98,-190.91C331.43,-180.47 300.59,-169.19 271.59,-158.59"/>
<polygon fill="black" stroke="black" points="272.42,-155.17 261.83,-155.02 270.02,-161.74 272.42,-155.17"/>
</g>
<!-- 144 -->
<g id="node7" class="node">
<title>144</title>
<polygon fill="#f9cfe7" stroke="black" points="622,-155 320,-155 320,-72 622,-72 622,-155"/>
<text text-anchor="middle" x="471" y="-139.8" font-family="Times,serif" font-size="14.00">graphSize &lt;= 22.5</text>
<text text-anchor="middle" x="471" y="-124.8" font-family="Times,serif" font-size="14.00">gini = 0.69</text>
<text text-anchor="middle" x="471" y="-109.8" font-family="Times,serif" font-size="14.00">samples = 4801</text>
<text text-anchor="middle" x="471" y="-94.8" font-family="Times,serif" font-size="14.00">value = [892, 248, 136, 88, 1298, 2139]</text>
<text text-anchor="middle" x="471" y="-79.8" font-family="Times,serif" font-size="14.00">class = GDL</text>
</g>
<!-- 2&#45;&gt;144 -->
<g id="edge6" class="edge">
<title>2&#45;&gt;144</title>
<path fill="none" stroke="black" d="M471,-190.91C471,-182.65 471,-173.86 471,-165.3"/>
<polygon fill="black" stroke="black" points="474.5,-165.02 471,-155.02 467.5,-165.02 474.5,-165.02"/>
</g>
<!-- 4 -->
<g id="node5" class="node">
<title>4</title>
<polygon fill="#c0c0c0" stroke="black" points="142,-36 88,-36 88,0 142,0 142,-36"/>
<text text-anchor="middle" x="115" y="-14.3" font-family="Times,serif" font-size="14.00">(...)</text>
</g>
<!-- 3&#45;&gt;4 -->
<g id="edge4" class="edge">
<title>3&#45;&gt;4</title>
<path fill="none" stroke="black" d="M135.31,-71.76C131.96,-63.04 128.49,-54.04 125.39,-45.99"/>
<polygon fill="black" stroke="black" points="128.56,-44.48 121.7,-36.41 122.03,-46.99 128.56,-44.48"/>
</g>
<!-- 97 -->
<g id="node6" class="node">
<title>97</title>
<polygon fill="#c0c0c0" stroke="black" points="214,-36 160,-36 160,0 214,0 214,-36"/>
<text text-anchor="middle" x="187" y="-14.3" font-family="Times,serif" font-size="14.00">(...)</text>
</g>
<!-- 3&#45;&gt;97 -->
<g id="edge5" class="edge">
<title>3&#45;&gt;97</title>
<path fill="none" stroke="black" d="M166.69,-71.76C170.04,-63.04 173.51,-54.04 176.61,-45.99"/>
<polygon fill="black" stroke="black" points="179.97,-46.99 180.3,-36.41 173.44,-44.48 179.97,-46.99"/>
</g>
<!-- 145 -->
<g id="node8" class="node">
<title>145</title>
<polygon fill="#c0c0c0" stroke="black" points="462,-36 408,-36 408,0 462,0 462,-36"/>
<text text-anchor="middle" x="435" y="-14.3" font-family="Times,serif" font-size="14.00">(...)</text>
</g>
<!-- 144&#45;&gt;145 -->
<g id="edge7" class="edge">
<title>144&#45;&gt;145</title>
<path fill="none" stroke="black" d="M455.31,-71.76C451.96,-63.04 448.49,-54.04 445.39,-45.99"/>
<polygon fill="black" stroke="black" points="448.56,-44.48 441.7,-36.41 442.03,-46.99 448.56,-44.48"/>
</g>
<!-- 216 -->
<g id="node9" class="node">
<title>216</title>
<polygon fill="#c0c0c0" stroke="black" points="534,-36 480,-36 480,0 534,0 534,-36"/>
<text text-anchor="middle" x="507" y="-14.3" font-family="Times,serif" font-size="14.00">(...)</text>
</g>
<!-- 144&#45;&gt;216 -->
<g id="edge8" class="edge">
<title>144&#45;&gt;216</title>
<path fill="none" stroke="black" d="M486.69,-71.76C490.04,-63.04 493.51,-54.04 496.61,-45.99"/>
<polygon fill="black" stroke="black" points="499.97,-46.99 500.3,-36.41 493.44,-44.48 499.97,-46.99"/>
</g>
<!-- 284 -->
<g id="node11" class="node">
<title>284</title>
<polygon fill="#ed78bc" stroke="black" points="879.5,-155 640.5,-155 640.5,-72 879.5,-72 879.5,-155"/>
<text text-anchor="middle" x="760" y="-139.8" font-family="Times,serif" font-size="14.00">sdComm &lt;= 0.2</text>
<text text-anchor="middle" x="760" y="-124.8" font-family="Times,serif" font-size="14.00">gini = 0.435</text>
<text text-anchor="middle" x="760" y="-109.8" font-family="Times,serif" font-size="14.00">samples = 954</text>
<text text-anchor="middle" x="760" y="-94.8" font-family="Times,serif" font-size="14.00">value = [114, 6, 0, 0, 140, 694]</text>
<text text-anchor="middle" x="760" y="-79.8" font-family="Times,serif" font-size="14.00">class = GDL</text>
</g>
<!-- 283&#45;&gt;284 -->
<g id="edge10" class="edge">
<title>283&#45;&gt;284</title>
<path fill="none" stroke="black" d="M827.26,-190.91C819.28,-181.83 810.73,-172.12 802.49,-162.77"/>
<polygon fill="black" stroke="black" points="804.91,-160.21 795.67,-155.02 799.65,-164.84 804.91,-160.21"/>
</g>
<!-- 395 -->
<g id="node14" class="node">
<title>395</title>
<polygon fill="#f29fcf" stroke="black" points="1136.5,-155 897.5,-155 897.5,-72 1136.5,-72 1136.5,-155"/>
<text text-anchor="middle" x="1017" y="-139.8" font-family="Times,serif" font-size="14.00">graphSize &lt;= 75.0</text>
<text text-anchor="middle" x="1017" y="-124.8" font-family="Times,serif" font-size="14.00">gini = 0.561</text>
<text text-anchor="middle" x="1017" y="-109.8" font-family="Times,serif" font-size="14.00">samples = 1110</text>
<text text-anchor="middle" x="1017" y="-94.8" font-family="Times,serif" font-size="14.00">value = [244, 0, 0, 0, 202, 664]</text>
<text text-anchor="middle" x="1017" y="-79.8" font-family="Times,serif" font-size="14.00">class = GDL</text>
</g>
<!-- 283&#45;&gt;395 -->
<g id="edge13" class="edge">
<title>283&#45;&gt;395</title>
<path fill="none" stroke="black" d="M916.43,-190.91C929.09,-181.29 942.69,-170.95 955.68,-161.09"/>
<polygon fill="black" stroke="black" points="957.82,-163.86 963.66,-155.02 953.58,-158.28 957.82,-163.86"/>
</g>
<!-- 285 -->
<g id="node12" class="node">
<title>285</title>
<polygon fill="#c0c0c0" stroke="black" points="751,-36 697,-36 697,0 751,0 751,-36"/>
<text text-anchor="middle" x="724" y="-14.3" font-family="Times,serif" font-size="14.00">(...)</text>
</g>
<!-- 284&#45;&gt;285 -->
<g id="edge11" class="edge">
<title>284&#45;&gt;285</title>
<path fill="none" stroke="black" d="M744.31,-71.76C740.96,-63.04 737.49,-54.04 734.39,-45.99"/>
<polygon fill="black" stroke="black" points="737.56,-44.48 730.7,-36.41 731.03,-46.99 737.56,-44.48"/>
</g>
<!-- 358 -->
<g id="node13" class="node">
<title>358</title>
<polygon fill="#c0c0c0" stroke="black" points="823,-36 769,-36 769,0 823,0 823,-36"/>
<text text-anchor="middle" x="796" y="-14.3" font-family="Times,serif" font-size="14.00">(...)</text>
</g>
<!-- 284&#45;&gt;358 -->
<g id="edge12" class="edge">
<title>284&#45;&gt;358</title>
<path fill="none" stroke="black" d="M775.69,-71.76C779.04,-63.04 782.51,-54.04 785.61,-45.99"/>
<polygon fill="black" stroke="black" points="788.97,-46.99 789.3,-36.41 782.44,-44.48 788.97,-46.99"/>
</g>
<!-- 396 -->
<g id="node15" class="node">
<title>396</title>
<polygon fill="#c0c0c0" stroke="black" points="1008,-36 954,-36 954,0 1008,0 1008,-36"/>
<text text-anchor="middle" x="981" y="-14.3" font-family="Times,serif" font-size="14.00">(...)</text>
</g>
<!-- 395&#45;&gt;396 -->
<g id="edge14" class="edge">
<title>395&#45;&gt;396</title>
<path fill="none" stroke="black" d="M1001.31,-71.76C997.96,-63.04 994.49,-54.04 991.39,-45.99"/>
<polygon fill="black" stroke="black" points="994.56,-44.48 987.7,-36.41 988.03,-46.99 994.56,-44.48"/>
</g>
<!-- 461 -->
<g id="node16" class="node">
<title>461</title>
<polygon fill="#c0c0c0" stroke="black" points="1080,-36 1026,-36 1026,0 1080,0 1080,-36"/>
<text text-anchor="middle" x="1053" y="-14.3" font-family="Times,serif" font-size="14.00">(...)</text>
</g>
<!-- 395&#45;&gt;461 -->
<g id="edge15" class="edge">
<title>395&#45;&gt;461</title>
<path fill="none" stroke="black" d="M1032.69,-71.76C1036.04,-63.04 1039.51,-54.04 1042.61,-45.99"/>
<polygon fill="black" stroke="black" points="1045.97,-46.99 1046.3,-36.41 1039.44,-44.48 1045.97,-46.99"/>
</g>
<!-- 515 -->
<g id="node18" class="node">
<title>515</title>
<polygon fill="#baf6d3" stroke="black" points="1587,-274 1285,-274 1285,-191 1587,-191 1587,-274"/>
<text text-anchor="middle" x="1436" y="-258.8" font-family="Times,serif" font-size="14.00">graphSize &lt;= 22.5</text>
<text text-anchor="middle" x="1436" y="-243.8" font-family="Times,serif" font-size="14.00">gini = 0.701</text>
<text text-anchor="middle" x="1436" y="-228.8" font-family="Times,serif" font-size="14.00">samples = 3456</text>
<text text-anchor="middle" x="1436" y="-213.8" font-family="Times,serif" font-size="14.00">value = [336, 296, 1660, 700, 312, 152]</text>
<text text-anchor="middle" x="1436" y="-198.8" font-family="Times,serif" font-size="14.00">class = OLB</text>
</g>
<!-- 514&#45;&gt;515 -->
<g id="edge17" class="edge">
<title>514&#45;&gt;515</title>
<path fill="none" stroke="black" d="M1436,-309.91C1436,-301.65 1436,-292.86 1436,-284.3"/>
<polygon fill="black" stroke="black" points="1439.5,-284.02 1436,-274.02 1432.5,-284.02 1439.5,-284.02"/>
</g>
<!-- 610 -->
<g id="node25" class="node">
<title>610</title>
<polygon fill="#d5fae4" stroke="black" points="2070,-274 1750,-274 1750,-191 2070,-191 2070,-274"/>
<text text-anchor="middle" x="1910" y="-258.8" font-family="Times,serif" font-size="14.00">sdComp &lt;= 6.5</text>
<text text-anchor="middle" x="1910" y="-243.8" font-family="Times,serif" font-size="14.00">gini = 0.766</text>
<text text-anchor="middle" x="1910" y="-228.8" font-family="Times,serif" font-size="14.00">samples = 6540</text>
<text text-anchor="middle" x="1910" y="-213.8" font-family="Times,serif" font-size="14.00">value = [1238, 696, 2400, 174, 1290, 742]</text>
<text text-anchor="middle" x="1910" y="-198.8" font-family="Times,serif" font-size="14.00">class = OLB</text>
</g>
<!-- 514&#45;&gt;610 -->
<g id="edge24" class="edge">
<title>514&#45;&gt;610</title>
<path fill="none" stroke="black" d="M1596.14,-310.97C1642.42,-299.55 1693.08,-287.04 1739.94,-275.48"/>
<polygon fill="black" stroke="black" points="1741.01,-278.82 1749.88,-273.02 1739.33,-272.02 1741.01,-278.82"/>
</g>
<!-- 516 -->
<g id="node19" class="node">
<title>516</title>
<polygon fill="#d5fae4" stroke="black" points="1429.5,-155 1154.5,-155 1154.5,-72 1429.5,-72 1429.5,-155"/>
<text text-anchor="middle" x="1292" y="-139.8" font-family="Times,serif" font-size="14.00">sdComm &lt;= 2.0</text>
<text text-anchor="middle" x="1292" y="-124.8" font-family="Times,serif" font-size="14.00">gini = 0.782</text>
<text text-anchor="middle" x="1292" y="-109.8" font-family="Times,serif" font-size="14.00">samples = 890</text>
<text text-anchor="middle" x="1292" y="-94.8" font-family="Times,serif" font-size="14.00">value = [120, 82, 320, 168, 124, 76]</text>
<text text-anchor="middle" x="1292" y="-79.8" font-family="Times,serif" font-size="14.00">class = OLB</text>
</g>
<!-- 515&#45;&gt;516 -->
<g id="edge18" class="edge">
<title>515&#45;&gt;516</title>
<path fill="none" stroke="black" d="M1386.04,-190.91C1374.31,-181.38 1361.72,-171.15 1349.69,-161.37"/>
<polygon fill="black" stroke="black" points="1351.84,-158.61 1341.87,-155.02 1347.43,-164.04 1351.84,-158.61"/>
</g>
<!-- 539 -->
<g id="node22" class="node">
<title>539</title>
<polygon fill="#b0f5cd" stroke="black" points="1740.5,-155 1447.5,-155 1447.5,-72 1740.5,-72 1740.5,-155"/>
<text text-anchor="middle" x="1594" y="-139.8" font-family="Times,serif" font-size="14.00">graphDepth &lt;= 25.5</text>
<text text-anchor="middle" x="1594" y="-124.8" font-family="Times,serif" font-size="14.00">gini = 0.664</text>
<text text-anchor="middle" x="1594" y="-109.8" font-family="Times,serif" font-size="14.00">samples = 2566</text>
<text text-anchor="middle" x="1594" y="-94.8" font-family="Times,serif" font-size="14.00">value = [216, 214, 1340, 532, 188, 76]</text>
<text text-anchor="middle" x="1594" y="-79.8" font-family="Times,serif" font-size="14.00">class = OLB</text>
</g>
<!-- 515&#45;&gt;539 -->
<g id="edge21" class="edge">
<title>515&#45;&gt;539</title>
<path fill="none" stroke="black" d="M1490.82,-190.91C1503.81,-181.29 1517.76,-170.95 1531.08,-161.09"/>
<polygon fill="black" stroke="black" points="1533.33,-163.78 1539.28,-155.02 1529.16,-158.16 1533.33,-163.78"/>
</g>
<!-- 517 -->
<g id="node20" class="node">
<title>517</title>
<polygon fill="#c0c0c0" stroke="black" points="1283,-36 1229,-36 1229,0 1283,0 1283,-36"/>
<text text-anchor="middle" x="1256" y="-14.3" font-family="Times,serif" font-size="14.00">(...)</text>
</g>
<!-- 516&#45;&gt;517 -->
<g id="edge19" class="edge">
<title>516&#45;&gt;517</title>
<path fill="none" stroke="black" d="M1276.31,-71.76C1272.96,-63.04 1269.49,-54.04 1266.39,-45.99"/>
<polygon fill="black" stroke="black" points="1269.56,-44.48 1262.7,-36.41 1263.03,-46.99 1269.56,-44.48"/>
</g>
<!-- 524 -->
<g id="node21" class="node">
<title>524</title>
<polygon fill="#c0c0c0" stroke="black" points="1355,-36 1301,-36 1301,0 1355,0 1355,-36"/>
<text text-anchor="middle" x="1328" y="-14.3" font-family="Times,serif" font-size="14.00">(...)</text>
</g>
<!-- 516&#45;&gt;524 -->
<g id="edge20" class="edge">
<title>516&#45;&gt;524</title>
<path fill="none" stroke="black" d="M1307.69,-71.76C1311.04,-63.04 1314.51,-54.04 1317.61,-45.99"/>
<polygon fill="black" stroke="black" points="1320.97,-46.99 1321.3,-36.41 1314.44,-44.48 1320.97,-46.99"/>
</g>
<!-- 540 -->
<g id="node23" class="node">
<title>540</title>
<polygon fill="#c0c0c0" stroke="black" points="1585,-36 1531,-36 1531,0 1585,0 1585,-36"/>
<text text-anchor="middle" x="1558" y="-14.3" font-family="Times,serif" font-size="14.00">(...)</text>
</g>
<!-- 539&#45;&gt;540 -->
<g id="edge22" class="edge">
<title>539&#45;&gt;540</title>
<path fill="none" stroke="black" d="M1578.31,-71.76C1574.96,-63.04 1571.49,-54.04 1568.39,-45.99"/>
<polygon fill="black" stroke="black" points="1571.56,-44.48 1564.7,-36.41 1565.03,-46.99 1571.56,-44.48"/>
</g>
<!-- 599 -->
<g id="node24" class="node">
<title>599</title>
<polygon fill="#c0c0c0" stroke="black" points="1657,-36 1603,-36 1603,0 1657,0 1657,-36"/>
<text text-anchor="middle" x="1630" y="-14.3" font-family="Times,serif" font-size="14.00">(...)</text>
</g>
<!-- 539&#45;&gt;599 -->
<g id="edge23" class="edge">
<title>539&#45;&gt;599</title>
<path fill="none" stroke="black" d="M1609.69,-71.76C1613.04,-63.04 1616.51,-54.04 1619.61,-45.99"/>
<polygon fill="black" stroke="black" points="1622.97,-46.99 1623.3,-36.41 1616.44,-44.48 1622.97,-46.99"/>
</g>
<!-- 611 -->
<g id="node26" class="node">
<title>611</title>
<polygon fill="#c6f8db" stroke="black" points="2061,-155 1759,-155 1759,-72 2061,-72 2061,-155"/>
<text text-anchor="middle" x="1910" y="-139.8" font-family="Times,serif" font-size="14.00">graphSize &lt;= 22.5</text>
<text text-anchor="middle" x="1910" y="-124.8" font-family="Times,serif" font-size="14.00">gini = 0.742</text>
<text text-anchor="middle" x="1910" y="-109.8" font-family="Times,serif" font-size="14.00">samples = 3722</text>
<text text-anchor="middle" x="1910" y="-94.8" font-family="Times,serif" font-size="14.00">value = [692, 358, 1564, 170, 630, 308]</text>
<text text-anchor="middle" x="1910" y="-79.8" font-family="Times,serif" font-size="14.00">class = OLB</text>
</g>
<!-- 610&#45;&gt;611 -->
<g id="edge25" class="edge">
<title>610&#45;&gt;611</title>
<path fill="none" stroke="black" d="M1910,-190.91C1910,-182.65 1910,-173.86 1910,-165.3"/>
<polygon fill="black" stroke="black" points="1913.5,-165.02 1910,-155.02 1906.5,-165.02 1913.5,-165.02"/>
</g>
<!-- 704 -->
<g id="node29" class="node">
<title>704</title>
<polygon fill="#effdf5" stroke="black" points="2354.5,-155 2079.5,-155 2079.5,-72 2354.5,-72 2354.5,-155"/>
<text text-anchor="middle" x="2217" y="-139.8" font-family="Times,serif" font-size="14.00">sdComm &lt;= 2.0</text>
<text text-anchor="middle" x="2217" y="-124.8" font-family="Times,serif" font-size="14.00">gini = 0.781</text>
<text text-anchor="middle" x="2217" y="-109.8" font-family="Times,serif" font-size="14.00">samples = 2818</text>
<text text-anchor="middle" x="2217" y="-94.8" font-family="Times,serif" font-size="14.00">value = [546, 338, 836, 4, 660, 434]</text>
<text text-anchor="middle" x="2217" y="-79.8" font-family="Times,serif" font-size="14.00">class = OLB</text>
</g>
<!-- 610&#45;&gt;704 -->
<g id="edge28" class="edge">
<title>610&#45;&gt;704</title>
<path fill="none" stroke="black" d="M2016.51,-190.91C2043.9,-180.47 2073.49,-169.19 2101.31,-158.59"/>
<polygon fill="black" stroke="black" points="2102.58,-161.85 2110.68,-155.02 2100.09,-155.31 2102.58,-161.85"/>
</g>
<!-- 612 -->
<g id="node27" class="node">
<title>612</title>
<polygon fill="#c0c0c0" stroke="black" points="1901,-36 1847,-36 1847,0 1901,0 1901,-36"/>
<text text-anchor="middle" x="1874" y="-14.3" font-family="Times,serif" font-size="14.00">(...)</text>
</g>
<!-- 611&#45;&gt;612 -->
<g id="edge26" class="edge">
<title>611&#45;&gt;612</title>
<path fill="none" stroke="black" d="M1894.31,-71.76C1890.96,-63.04 1887.49,-54.04 1884.39,-45.99"/>
<polygon fill="black" stroke="black" points="1887.56,-44.48 1880.7,-36.41 1881.03,-46.99 1887.56,-44.48"/>
</g>
<!-- 635 -->
<g id="node28" class="node">
<title>635</title>
<polygon fill="#c0c0c0" stroke="black" points="1973,-36 1919,-36 1919,0 1973,0 1973,-36"/>
<text text-anchor="middle" x="1946" y="-14.3" font-family="Times,serif" font-size="14.00">(...)</text>
</g>
<!-- 611&#45;&gt;635 -->
<g id="edge27" class="edge">
<title>611&#45;&gt;635</title>
<path fill="none" stroke="black" d="M1925.69,-71.76C1929.04,-63.04 1932.51,-54.04 1935.61,-45.99"/>
<polygon fill="black" stroke="black" points="1938.97,-46.99 1939.3,-36.41 1932.44,-44.48 1938.97,-46.99"/>
</g>
<!-- 705 -->
<g id="node30" class="node">
<title>705</title>
<polygon fill="#c0c0c0" stroke="black" points="2208,-36 2154,-36 2154,0 2208,0 2208,-36"/>
<text text-anchor="middle" x="2181" y="-14.3" font-family="Times,serif" font-size="14.00">(...)</text>
</g>
<!-- 704&#45;&gt;705 -->
<g id="edge29" class="edge">
<title>704&#45;&gt;705</title>
<path fill="none" stroke="black" d="M2201.31,-71.76C2197.96,-63.04 2194.49,-54.04 2191.39,-45.99"/>
<polygon fill="black" stroke="black" points="2194.56,-44.48 2187.7,-36.41 2188.03,-46.99 2194.56,-44.48"/>
</g>
<!-- 732 -->
<g id="node31" class="node">
<title>732</title>
<polygon fill="#c0c0c0" stroke="black" points="2280,-36 2226,-36 2226,0 2280,0 2280,-36"/>
<text text-anchor="middle" x="2253" y="-14.3" font-family="Times,serif" font-size="14.00">(...)</text>
</g>
<!-- 704&#45;&gt;732 -->
<g id="edge30" class="edge">
<title>704&#45;&gt;732</title>
<path fill="none" stroke="black" d="M2232.69,-71.76C2236.04,-63.04 2239.51,-54.04 2242.61,-45.99"/>
<polygon fill="black" stroke="black" points="2245.97,-46.99 2246.3,-36.41 2239.44,-44.48 2245.97,-46.99"/>
</g>
</g>
</svg>
