<?xml version="1.0" encoding="UTF-8" standalone="no"?>
<!DOCTYPE svg PUBLIC "-//W3C//DTD SVG 1.1//EN"
 "http://www.w3.org/Graphics/SVG/1.1/DTD/svg11.dtd">
<!-- Generated by graphviz version 2.43.0 (0)
 -->
<!-- Title: Tree Pages: 1 -->
<svg width="2678pt" height="520pt"
 viewBox="0.00 0.00 2677.50 520.00" xmlns="http://www.w3.org/2000/svg" xmlns:xlink="http://www.w3.org/1999/xlink">
<g id="graph0" class="graph" transform="scale(1 1) rotate(0) translate(4 516)">
<title>Tree</title>
<polygon fill="white" stroke="transparent" points="-4,4 -4,-516 2673.5,-516 2673.5,4 -4,4"/>
<!-- 0 -->
<g id="node1" class="node">
<title>0</title>
<polygon fill="#fffdfb" stroke="black" points="1442.5,-512 1059.5,-512 1059.5,-429 1442.5,-429 1442.5,-512"/>
<text text-anchor="middle" x="1251" y="-496.8" font-family="Times,serif" font-size="14.00">CCR &lt;= 0.55</text>
<text text-anchor="middle" x="1251" y="-481.8" font-family="Times,serif" font-size="14.00">gini = 0.834</text>
<text text-anchor="middle" x="1251" y="-466.8" font-family="Times,serif" font-size="14.00">samples = 25925</text>
<text text-anchor="middle" x="1251" y="-451.8" font-family="Times,serif" font-size="14.00">value = [5098, 3849, 239, 3590, 4028, 4401, 4720]</text>
<text text-anchor="middle" x="1251" y="-436.8" font-family="Times,serif" font-size="14.00">class = rku</text>
</g>
<!-- 1 -->
<g id="node2" class="node">
<title>1</title>
<polygon fill="#fdfdff" stroke="black" points="1123,-393 749,-393 749,-310 1123,-310 1123,-393"/>
<text text-anchor="middle" x="936" y="-377.8" font-family="Times,serif" font-size="14.00">sdComp &lt;= 0.065</text>
<text text-anchor="middle" x="936" y="-362.8" font-family="Times,serif" font-size="14.00">gini = 0.831</text>
<text text-anchor="middle" x="936" y="-347.8" font-family="Times,serif" font-size="14.00">samples = 10060</text>
<text text-anchor="middle" x="936" y="-332.8" font-family="Times,serif" font-size="14.00">value = [1746, 1330, 10, 1496, 1980, 1898, 1600]</text>
<text text-anchor="middle" x="936" y="-317.8" font-family="Times,serif" font-size="14.00">class = cluHPS</text>
</g>
<!-- 0&#45;&gt;1 -->
<g id="edge1" class="edge">
<title>0&#45;&gt;1</title>
<path fill="none" stroke="black" d="M1141.71,-428.91C1113.61,-418.47 1083.25,-407.19 1054.7,-396.59"/>
<polygon fill="black" stroke="black" points="1055.69,-393.22 1045.09,-393.02 1053.25,-399.78 1055.69,-393.22"/>
<text text-anchor="middle" x="1055.51" y="-412.05" font-family="Times,serif" font-size="14.00">True</text>
</g>
<!-- 270 -->
<g id="node17" class="node">
<title>270</title>
<polygon fill="#fffdfb" stroke="black" points="1790.5,-393 1407.5,-393 1407.5,-310 1790.5,-310 1790.5,-393"/>
<text text-anchor="middle" x="1599" y="-377.8" font-family="Times,serif" font-size="14.00">sdComp &lt;= 0.65</text>
<text text-anchor="middle" x="1599" y="-362.8" font-family="Times,serif" font-size="14.00">gini = 0.832</text>
<text text-anchor="middle" x="1599" y="-347.8" font-family="Times,serif" font-size="14.00">samples = 15865</text>
<text text-anchor="middle" x="1599" y="-332.8" font-family="Times,serif" font-size="14.00">value = [3352, 2519, 229, 2094, 2048, 2503, 3120]</text>
<text text-anchor="middle" x="1599" y="-317.8" font-family="Times,serif" font-size="14.00">class = rku</text>
</g>
<!-- 0&#45;&gt;270 -->
<g id="edge16" class="edge">
<title>0&#45;&gt;270</title>
<path fill="none" stroke="black" d="M1371.74,-428.91C1403.05,-418.38 1436.91,-407 1468.69,-396.31"/>
<polygon fill="black" stroke="black" points="1470.11,-399.53 1478.48,-393.02 1467.88,-392.89 1470.11,-399.53"/>
<text text-anchor="middle" x="1467.35" y="-411.71" font-family="Times,serif" font-size="14.00">False</text>
</g>
<!-- 2 -->
<g id="node3" class="node">
<title>2</title>
<polygon fill="#fffdfc" stroke="black" points="636,-274 316,-274 316,-191 636,-191 636,-274"/>
<text text-anchor="middle" x="476" y="-258.8" font-family="Times,serif" font-size="14.00">graphSize &lt;= 40.0</text>
<text text-anchor="middle" x="476" y="-243.8" font-family="Times,serif" font-size="14.00">gini = 0.827</text>
<text text-anchor="middle" x="476" y="-228.8" font-family="Times,serif" font-size="14.00">samples = 3790</text>
<text text-anchor="middle" x="476" y="-213.8" font-family="Times,serif" font-size="14.00">value = [818, 458, 10, 530, 538, 778, 658]</text>
<text text-anchor="middle" x="476" y="-198.8" font-family="Times,serif" font-size="14.00">class = rku</text>
</g>
<!-- 1&#45;&gt;2 -->
<g id="edge2" class="edge">
<title>1&#45;&gt;2</title>
<path fill="none" stroke="black" d="M776.73,-309.99C734.25,-299.19 688.21,-287.48 645.22,-276.54"/>
<polygon fill="black" stroke="black" points="646.08,-273.15 635.52,-274.07 644.35,-279.93 646.08,-273.15"/>
</g>
<!-- 183 -->
<g id="node10" class="node">
<title>183</title>
<polygon fill="#f3f4fd" stroke="black" points="1100.5,-274 771.5,-274 771.5,-191 1100.5,-191 1100.5,-274"/>
<text text-anchor="middle" x="936" y="-258.8" font-family="Times,serif" font-size="14.00">nbproc &lt;= 4.5</text>
<text text-anchor="middle" x="936" y="-243.8" font-family="Times,serif" font-size="14.00">gini = 0.828</text>
<text text-anchor="middle" x="936" y="-228.8" font-family="Times,serif" font-size="14.00">samples = 6270</text>
<text text-anchor="middle" x="936" y="-213.8" font-family="Times,serif" font-size="14.00">value = [928, 872, 0, 966, 1442, 1120, 942]</text>
<text text-anchor="middle" x="936" y="-198.8" font-family="Times,serif" font-size="14.00">class = cluHPS</text>
</g>
<!-- 1&#45;&gt;183 -->
<g id="edge9" class="edge">
<title>1&#45;&gt;183</title>
<path fill="none" stroke="black" d="M936,-309.91C936,-301.65 936,-292.86 936,-284.3"/>
<polygon fill="black" stroke="black" points="939.5,-284.02 936,-274.02 932.5,-284.02 939.5,-284.02"/>
</g>
<!-- 3 -->
<g id="node4" class="node">
<title>3</title>
<polygon fill="#fefdff" stroke="black" points="320,-155 0,-155 0,-72 320,-72 320,-155"/>
<text text-anchor="middle" x="160" y="-139.8" font-family="Times,serif" font-size="14.00">nbproc &lt;= 4.5</text>
<text text-anchor="middle" x="160" y="-124.8" font-family="Times,serif" font-size="14.00">gini = 0.833</text>
<text text-anchor="middle" x="160" y="-109.8" font-family="Times,serif" font-size="14.00">samples = 3104</text>
<text text-anchor="middle" x="160" y="-94.8" font-family="Times,serif" font-size="14.00">value = [554, 442, 10, 488, 466, 584, 560]</text>
<text text-anchor="middle" x="160" y="-79.8" font-family="Times,serif" font-size="14.00">class = rkusd</text>
</g>
<!-- 2&#45;&gt;3 -->
<g id="edge3" class="edge">
<title>2&#45;&gt;3</title>
<path fill="none" stroke="black" d="M366.37,-190.91C338.18,-180.47 307.72,-169.19 279.08,-158.59"/>
<polygon fill="black" stroke="black" points="280.03,-155.21 269.44,-155.02 277.6,-161.78 280.03,-155.21"/>
</g>
<!-- 98 -->
<g id="node7" class="node">
<title>98</title>
<polygon fill="#fbede3" stroke="black" points="613.5,-155 338.5,-155 338.5,-72 613.5,-72 613.5,-155"/>
<text text-anchor="middle" x="476" y="-139.8" font-family="Times,serif" font-size="14.00">graphDepth &lt;= 25.5</text>
<text text-anchor="middle" x="476" y="-124.8" font-family="Times,serif" font-size="14.00">gini = 0.736</text>
<text text-anchor="middle" x="476" y="-109.8" font-family="Times,serif" font-size="14.00">samples = 686</text>
<text text-anchor="middle" x="476" y="-94.8" font-family="Times,serif" font-size="14.00">value = [264, 16, 0, 42, 72, 194, 98]</text>
<text text-anchor="middle" x="476" y="-79.8" font-family="Times,serif" font-size="14.00">class = rku</text>
</g>
<!-- 2&#45;&gt;98 -->
<g id="edge6" class="edge">
<title>2&#45;&gt;98</title>
<path fill="none" stroke="black" d="M476,-190.91C476,-182.65 476,-173.86 476,-165.3"/>
<polygon fill="black" stroke="black" points="479.5,-165.02 476,-155.02 472.5,-165.02 479.5,-165.02"/>
</g>
<!-- 4 -->
<g id="node5" class="node">
<title>4</title>
<polygon fill="#c0c0c0" stroke="black" points="151,-36 97,-36 97,0 151,0 151,-36"/>
<text text-anchor="middle" x="124" y="-14.3" font-family="Times,serif" font-size="14.00">(...)</text>
</g>
<!-- 3&#45;&gt;4 -->
<g id="edge4" class="edge">
<title>3&#45;&gt;4</title>
<path fill="none" stroke="black" d="M144.31,-71.76C140.96,-63.04 137.49,-54.04 134.39,-45.99"/>
<polygon fill="black" stroke="black" points="137.56,-44.48 130.7,-36.41 131.03,-46.99 137.56,-44.48"/>
</g>
<!-- 51 -->
<g id="node6" class="node">
<title>51</title>
<polygon fill="#c0c0c0" stroke="black" points="223,-36 169,-36 169,0 223,0 223,-36"/>
<text text-anchor="middle" x="196" y="-14.3" font-family="Times,serif" font-size="14.00">(...)</text>
</g>
<!-- 3&#45;&gt;51 -->
<g id="edge5" class="edge">
<title>3&#45;&gt;51</title>
<path fill="none" stroke="black" d="M175.69,-71.76C179.04,-63.04 182.51,-54.04 185.61,-45.99"/>
<polygon fill="black" stroke="black" points="188.97,-46.99 189.3,-36.41 182.44,-44.48 188.97,-46.99"/>
</g>
<!-- 99 -->
<g id="node8" class="node">
<title>99</title>
<polygon fill="#c0c0c0" stroke="black" points="467,-36 413,-36 413,0 467,0 467,-36"/>
<text text-anchor="middle" x="440" y="-14.3" font-family="Times,serif" font-size="14.00">(...)</text>
</g>
<!-- 98&#45;&gt;99 -->
<g id="edge7" class="edge">
<title>98&#45;&gt;99</title>
<path fill="none" stroke="black" d="M460.31,-71.76C456.96,-63.04 453.49,-54.04 450.39,-45.99"/>
<polygon fill="black" stroke="black" points="453.56,-44.48 446.7,-36.41 447.03,-46.99 453.56,-44.48"/>
</g>
<!-- 160 -->
<g id="node9" class="node">
<title>160</title>
<polygon fill="#c0c0c0" stroke="black" points="539,-36 485,-36 485,0 539,0 539,-36"/>
<text text-anchor="middle" x="512" y="-14.3" font-family="Times,serif" font-size="14.00">(...)</text>
</g>
<!-- 98&#45;&gt;160 -->
<g id="edge8" class="edge">
<title>98&#45;&gt;160</title>
<path fill="none" stroke="black" d="M491.69,-71.76C495.04,-63.04 498.51,-54.04 501.61,-45.99"/>
<polygon fill="black" stroke="black" points="504.97,-46.99 505.3,-36.41 498.44,-44.48 504.97,-46.99"/>
</g>
<!-- 184 -->
<g id="node11" class="node">
<title>184</title>
<polygon fill="#dce1fa" stroke="black" points="942.5,-155 631.5,-155 631.5,-72 942.5,-72 942.5,-155"/>
<text text-anchor="middle" x="787" y="-139.8" font-family="Times,serif" font-size="14.00">graphDepth &lt;= 6.5</text>
<text text-anchor="middle" x="787" y="-124.8" font-family="Times,serif" font-size="14.00">gini = 0.8</text>
<text text-anchor="middle" x="787" y="-109.8" font-family="Times,serif" font-size="14.00">samples = 2036</text>
<text text-anchor="middle" x="787" y="-94.8" font-family="Times,serif" font-size="14.00">value = [236, 268, 0, 360, 660, 316, 196]</text>
<text text-anchor="middle" x="787" y="-79.8" font-family="Times,serif" font-size="14.00">class = cluHPS</text>
</g>
<!-- 183&#45;&gt;184 -->
<g id="edge10" class="edge">
<title>183&#45;&gt;184</title>
<path fill="none" stroke="black" d="M884.31,-190.91C872.17,-181.38 859.14,-171.15 846.69,-161.37"/>
<polygon fill="black" stroke="black" points="848.63,-158.44 838.6,-155.02 844.31,-163.95 848.63,-158.44"/>
</g>
<!-- 227 -->
<g id="node14" class="node">
<title>227</title>
<polygon fill="#fffeff" stroke="black" points="1271.5,-155 960.5,-155 960.5,-72 1271.5,-72 1271.5,-155"/>
<text text-anchor="middle" x="1116" y="-139.8" font-family="Times,serif" font-size="14.00">sdComm &lt;= 0.02</text>
<text text-anchor="middle" x="1116" y="-124.8" font-family="Times,serif" font-size="14.00">gini = 0.831</text>
<text text-anchor="middle" x="1116" y="-109.8" font-family="Times,serif" font-size="14.00">samples = 4234</text>
<text text-anchor="middle" x="1116" y="-94.8" font-family="Times,serif" font-size="14.00">value = [692, 604, 0, 606, 782, 804, 746]</text>
<text text-anchor="middle" x="1116" y="-79.8" font-family="Times,serif" font-size="14.00">class = rkusd</text>
</g>
<!-- 183&#45;&gt;227 -->
<g id="edge13" class="edge">
<title>183&#45;&gt;227</title>
<path fill="none" stroke="black" d="M998.45,-190.91C1013.53,-181.11 1029.75,-170.56 1045.18,-160.53"/>
<polygon fill="black" stroke="black" points="1047.18,-163.41 1053.66,-155.02 1043.37,-157.54 1047.18,-163.41"/>
</g>
<!-- 185 -->
<g id="node12" class="node">
<title>185</title>
<polygon fill="#c0c0c0" stroke="black" points="778,-36 724,-36 724,0 778,0 778,-36"/>
<text text-anchor="middle" x="751" y="-14.3" font-family="Times,serif" font-size="14.00">(...)</text>
</g>
<!-- 184&#45;&gt;185 -->
<g id="edge11" class="edge">
<title>184&#45;&gt;185</title>
<path fill="none" stroke="black" d="M771.31,-71.76C767.96,-63.04 764.49,-54.04 761.39,-45.99"/>
<polygon fill="black" stroke="black" points="764.56,-44.48 757.7,-36.41 758.03,-46.99 764.56,-44.48"/>
</g>
<!-- 202 -->
<g id="node13" class="node">
<title>202</title>
<polygon fill="#c0c0c0" stroke="black" points="850,-36 796,-36 796,0 850,0 850,-36"/>
<text text-anchor="middle" x="823" y="-14.3" font-family="Times,serif" font-size="14.00">(...)</text>
</g>
<!-- 184&#45;&gt;202 -->
<g id="edge12" class="edge">
<title>184&#45;&gt;202</title>
<path fill="none" stroke="black" d="M802.69,-71.76C806.04,-63.04 809.51,-54.04 812.61,-45.99"/>
<polygon fill="black" stroke="black" points="815.97,-46.99 816.3,-36.41 809.44,-44.48 815.97,-46.99"/>
</g>
<!-- 228 -->
<g id="node15" class="node">
<title>228</title>
<polygon fill="#c0c0c0" stroke="black" points="1107,-36 1053,-36 1053,0 1107,0 1107,-36"/>
<text text-anchor="middle" x="1080" y="-14.3" font-family="Times,serif" font-size="14.00">(...)</text>
</g>
<!-- 227&#45;&gt;228 -->
<g id="edge14" class="edge">
<title>227&#45;&gt;228</title>
<path fill="none" stroke="black" d="M1100.31,-71.76C1096.96,-63.04 1093.49,-54.04 1090.39,-45.99"/>
<polygon fill="black" stroke="black" points="1093.56,-44.48 1086.7,-36.41 1087.03,-46.99 1093.56,-44.48"/>
</g>
<!-- 243 -->
<g id="node16" class="node">
<title>243</title>
<polygon fill="#c0c0c0" stroke="black" points="1179,-36 1125,-36 1125,0 1179,0 1179,-36"/>
<text text-anchor="middle" x="1152" y="-14.3" font-family="Times,serif" font-size="14.00">(...)</text>
</g>
<!-- 227&#45;&gt;243 -->
<g id="edge15" class="edge">
<title>227&#45;&gt;243</title>
<path fill="none" stroke="black" d="M1131.69,-71.76C1135.04,-63.04 1138.51,-54.04 1141.61,-45.99"/>
<polygon fill="black" stroke="black" points="1144.97,-46.99 1145.3,-36.41 1138.44,-44.48 1144.97,-46.99"/>
</g>
<!-- 271 -->
<g id="node18" class="node">
<title>271</title>
<polygon fill="#fdf7f2" stroke="black" points="1763.5,-274 1434.5,-274 1434.5,-191 1763.5,-191 1763.5,-274"/>
<text text-anchor="middle" x="1599" y="-258.8" font-family="Times,serif" font-size="14.00">graphSize &lt;= 40.0</text>
<text text-anchor="middle" x="1599" y="-243.8" font-family="Times,serif" font-size="14.00">gini = 0.822</text>
<text text-anchor="middle" x="1599" y="-228.8" font-family="Times,serif" font-size="14.00">samples = 3903</text>
<text text-anchor="middle" x="1599" y="-213.8" font-family="Times,serif" font-size="14.00">value = [1010, 432, 77, 530, 436, 604, 814]</text>
<text text-anchor="middle" x="1599" y="-198.8" font-family="Times,serif" font-size="14.00">class = rku</text>
</g>
<!-- 270&#45;&gt;271 -->
<g id="edge17" class="edge">
<title>270&#45;&gt;271</title>
<path fill="none" stroke="black" d="M1599,-309.91C1599,-301.65 1599,-292.86 1599,-284.3"/>
<polygon fill="black" stroke="black" points="1602.5,-284.02 1599,-274.02 1595.5,-284.02 1602.5,-284.02"/>
</g>
<!-- 456 -->
<g id="node25" class="node">
<title>456</title>
<polygon fill="#fffffe" stroke="black" points="2313.5,-274 1930.5,-274 1930.5,-191 2313.5,-191 2313.5,-274"/>
<text text-anchor="middle" x="2122" y="-258.8" font-family="Times,serif" font-size="14.00">nbproc &lt;= 4.5</text>
<text text-anchor="middle" x="2122" y="-243.8" font-family="Times,serif" font-size="14.00">gini = 0.833</text>
<text text-anchor="middle" x="2122" y="-228.8" font-family="Times,serif" font-size="14.00">samples = 11962</text>
<text text-anchor="middle" x="2122" y="-213.8" font-family="Times,serif" font-size="14.00">value = [2342, 2087, 152, 1564, 1612, 1899, 2306]</text>
<text text-anchor="middle" x="2122" y="-198.8" font-family="Times,serif" font-size="14.00">class = rku</text>
</g>
<!-- 270&#45;&gt;456 -->
<g id="edge24" class="edge">
<title>270&#45;&gt;456</title>
<path fill="none" stroke="black" d="M1780.09,-309.99C1828.78,-299.1 1881.6,-287.28 1930.83,-276.27"/>
<polygon fill="black" stroke="black" points="1931.63,-279.67 1940.63,-274.07 1930.11,-272.84 1931.63,-279.67"/>
</g>
<!-- 272 -->
<g id="node19" class="node">
<title>272</title>
<polygon fill="#fffdfc" stroke="black" points="1610,-155 1290,-155 1290,-72 1610,-72 1610,-155"/>
<text text-anchor="middle" x="1450" y="-139.8" font-family="Times,serif" font-size="14.00">graphDepth &lt;= 3.5</text>
<text text-anchor="middle" x="1450" y="-124.8" font-family="Times,serif" font-size="14.00">gini = 0.831</text>
<text text-anchor="middle" x="1450" y="-109.8" font-family="Times,serif" font-size="14.00">samples = 3105</text>
<text text-anchor="middle" x="1450" y="-94.8" font-family="Times,serif" font-size="14.00">value = [658, 410, 37, 486, 410, 480, 624]</text>
<text text-anchor="middle" x="1450" y="-79.8" font-family="Times,serif" font-size="14.00">class = rku</text>
</g>
<!-- 271&#45;&gt;272 -->
<g id="edge18" class="edge">
<title>271&#45;&gt;272</title>
<path fill="none" stroke="black" d="M1547.31,-190.91C1535.17,-181.38 1522.14,-171.15 1509.69,-161.37"/>
<polygon fill="black" stroke="black" points="1511.63,-158.44 1501.6,-155.02 1507.31,-163.95 1511.63,-158.44"/>
</g>
<!-- 367 -->
<g id="node22" class="node">
<title>367</title>
<polygon fill="#f8ddca" stroke="black" points="1921.5,-155 1628.5,-155 1628.5,-72 1921.5,-72 1921.5,-155"/>
<text text-anchor="middle" x="1775" y="-139.8" font-family="Times,serif" font-size="14.00">nbproc &lt;= 4.5</text>
<text text-anchor="middle" x="1775" y="-124.8" font-family="Times,serif" font-size="14.00">gini = 0.717</text>
<text text-anchor="middle" x="1775" y="-109.8" font-family="Times,serif" font-size="14.00">samples = 798</text>
<text text-anchor="middle" x="1775" y="-94.8" font-family="Times,serif" font-size="14.00">value = [352, 22, 40, 44, 26, 124, 190]</text>
<text text-anchor="middle" x="1775" y="-79.8" font-family="Times,serif" font-size="14.00">class = rku</text>
</g>
<!-- 271&#45;&gt;367 -->
<g id="edge21" class="edge">
<title>271&#45;&gt;367</title>
<path fill="none" stroke="black" d="M1660.06,-190.91C1674.67,-181.2 1690.37,-170.76 1705.34,-160.81"/>
<polygon fill="black" stroke="black" points="1707.66,-163.47 1714.05,-155.02 1703.78,-157.64 1707.66,-163.47"/>
</g>
<!-- 273 -->
<g id="node20" class="node">
<title>273</title>
<polygon fill="#c0c0c0" stroke="black" points="1441,-36 1387,-36 1387,0 1441,0 1441,-36"/>
<text text-anchor="middle" x="1414" y="-14.3" font-family="Times,serif" font-size="14.00">(...)</text>
</g>
<!-- 272&#45;&gt;273 -->
<g id="edge19" class="edge">
<title>272&#45;&gt;273</title>
<path fill="none" stroke="black" d="M1434.31,-71.76C1430.96,-63.04 1427.49,-54.04 1424.39,-45.99"/>
<polygon fill="black" stroke="black" points="1427.56,-44.48 1420.7,-36.41 1421.03,-46.99 1427.56,-44.48"/>
</g>
<!-- 296 -->
<g id="node21" class="node">
<title>296</title>
<polygon fill="#c0c0c0" stroke="black" points="1513,-36 1459,-36 1459,0 1513,0 1513,-36"/>
<text text-anchor="middle" x="1486" y="-14.3" font-family="Times,serif" font-size="14.00">(...)</text>
</g>
<!-- 272&#45;&gt;296 -->
<g id="edge20" class="edge">
<title>272&#45;&gt;296</title>
<path fill="none" stroke="black" d="M1465.69,-71.76C1469.04,-63.04 1472.51,-54.04 1475.61,-45.99"/>
<polygon fill="black" stroke="black" points="1478.97,-46.99 1479.3,-36.41 1472.44,-44.48 1478.97,-46.99"/>
</g>
<!-- 368 -->
<g id="node23" class="node">
<title>368</title>
<polygon fill="#c0c0c0" stroke="black" points="1766,-36 1712,-36 1712,0 1766,0 1766,-36"/>
<text text-anchor="middle" x="1739" y="-14.3" font-family="Times,serif" font-size="14.00">(...)</text>
</g>
<!-- 367&#45;&gt;368 -->
<g id="edge22" class="edge">
<title>367&#45;&gt;368</title>
<path fill="none" stroke="black" d="M1759.31,-71.76C1755.96,-63.04 1752.49,-54.04 1749.39,-45.99"/>
<polygon fill="black" stroke="black" points="1752.56,-44.48 1745.7,-36.41 1746.03,-46.99 1752.56,-44.48"/>
</g>
<!-- 411 -->
<g id="node24" class="node">
<title>411</title>
<polygon fill="#c0c0c0" stroke="black" points="1838,-36 1784,-36 1784,0 1838,0 1838,-36"/>
<text text-anchor="middle" x="1811" y="-14.3" font-family="Times,serif" font-size="14.00">(...)</text>
</g>
<!-- 367&#45;&gt;411 -->
<g id="edge23" class="edge">
<title>367&#45;&gt;411</title>
<path fill="none" stroke="black" d="M1790.69,-71.76C1794.04,-63.04 1797.51,-54.04 1800.61,-45.99"/>
<polygon fill="black" stroke="black" points="1803.97,-46.99 1804.3,-36.41 1797.44,-44.48 1803.97,-46.99"/>
</g>
<!-- 457 -->
<g id="node26" class="node">
<title>457</title>
<polygon fill="#fffdfe" stroke="black" points="2304.5,-155 1939.5,-155 1939.5,-72 2304.5,-72 2304.5,-155"/>
<text text-anchor="middle" x="2122" y="-139.8" font-family="Times,serif" font-size="14.00">sdComp &lt;= 2.0</text>
<text text-anchor="middle" x="2122" y="-124.8" font-family="Times,serif" font-size="14.00">gini = 0.835</text>
<text text-anchor="middle" x="2122" y="-109.8" font-family="Times,serif" font-size="14.00">samples = 6063</text>
<text text-anchor="middle" x="2122" y="-94.8" font-family="Times,serif" font-size="14.00">value = [1136, 1014, 100, 704, 1004, 929, 1176]</text>
<text text-anchor="middle" x="2122" y="-79.8" font-family="Times,serif" font-size="14.00">class = rkuad</text>
</g>
<!-- 456&#45;&gt;457 -->
<g id="edge25" class="edge">
<title>456&#45;&gt;457</title>
<path fill="none" stroke="black" d="M2122,-190.91C2122,-182.65 2122,-173.86 2122,-165.3"/>
<polygon fill="black" stroke="black" points="2125.5,-165.02 2122,-155.02 2118.5,-165.02 2125.5,-165.02"/>
</g>
<!-- 646 -->
<g id="node29" class="node">
<title>646</title>
<polygon fill="#fffdfc" stroke="black" points="2669.5,-155 2322.5,-155 2322.5,-72 2669.5,-72 2669.5,-155"/>
<text text-anchor="middle" x="2496" y="-139.8" font-family="Times,serif" font-size="14.00">sdComp &lt;= 6.5</text>
<text text-anchor="middle" x="2496" y="-124.8" font-family="Times,serif" font-size="14.00">gini = 0.829</text>
<text text-anchor="middle" x="2496" y="-109.8" font-family="Times,serif" font-size="14.00">samples = 5899</text>
<text text-anchor="middle" x="2496" y="-94.8" font-family="Times,serif" font-size="14.00">value = [1206, 1073, 52, 860, 608, 970, 1130]</text>
<text text-anchor="middle" x="2496" y="-79.8" font-family="Times,serif" font-size="14.00">class = rku</text>
</g>
<!-- 456&#45;&gt;646 -->
<g id="edge28" class="edge">
<title>456&#45;&gt;646</title>
<path fill="none" stroke="black" d="M2251.5,-190.99C2285.45,-180.37 2322.21,-168.87 2356.65,-158.09"/>
<polygon fill="black" stroke="black" points="2357.8,-161.4 2366.3,-155.07 2355.71,-154.72 2357.8,-161.4"/>
</g>
<!-- 458 -->
<g id="node27" class="node">
<title>458</title>
<polygon fill="#c0c0c0" stroke="black" points="2113,-36 2059,-36 2059,0 2113,0 2113,-36"/>
<text text-anchor="middle" x="2086" y="-14.3" font-family="Times,serif" font-size="14.00">(...)</text>
</g>
<!-- 457&#45;&gt;458 -->
<g id="edge26" class="edge">
<title>457&#45;&gt;458</title>
<path fill="none" stroke="black" d="M2106.31,-71.76C2102.96,-63.04 2099.49,-54.04 2096.39,-45.99"/>
<polygon fill="black" stroke="black" points="2099.56,-44.48 2092.7,-36.41 2093.03,-46.99 2099.56,-44.48"/>
</g>
<!-- 551 -->
<g id="node28" class="node">
<title>551</title>
<polygon fill="#c0c0c0" stroke="black" points="2185,-36 2131,-36 2131,0 2185,0 2185,-36"/>
<text text-anchor="middle" x="2158" y="-14.3" font-family="Times,serif" font-size="14.00">(...)</text>
</g>
<!-- 457&#45;&gt;551 -->
<g id="edge27" class="edge">
<title>457&#45;&gt;551</title>
<path fill="none" stroke="black" d="M2137.69,-71.76C2141.04,-63.04 2144.51,-54.04 2147.61,-45.99"/>
<polygon fill="black" stroke="black" points="2150.97,-46.99 2151.3,-36.41 2144.44,-44.48 2150.97,-46.99"/>
</g>
<!-- 647 -->
<g id="node30" class="node">
<title>647</title>
<polygon fill="#c0c0c0" stroke="black" points="2487,-36 2433,-36 2433,0 2487,0 2487,-36"/>
<text text-anchor="middle" x="2460" y="-14.3" font-family="Times,serif" font-size="14.00">(...)</text>
</g>
<!-- 646&#45;&gt;647 -->
<g id="edge29" class="edge">
<title>646&#45;&gt;647</title>
<path fill="none" stroke="black" d="M2480.31,-71.76C2476.96,-63.04 2473.49,-54.04 2470.39,-45.99"/>
<polygon fill="black" stroke="black" points="2473.56,-44.48 2466.7,-36.41 2467.03,-46.99 2473.56,-44.48"/>
</g>
<!-- 786 -->
<g id="node31" class="node">
<title>786</title>
<polygon fill="#c0c0c0" stroke="black" points="2559,-36 2505,-36 2505,0 2559,0 2559,-36"/>
<text text-anchor="middle" x="2532" y="-14.3" font-family="Times,serif" font-size="14.00">(...)</text>
</g>
<!-- 646&#45;&gt;786 -->
<g id="edge30" class="edge">
<title>646&#45;&gt;786</title>
<path fill="none" stroke="black" d="M2511.69,-71.76C2515.04,-63.04 2518.51,-54.04 2521.61,-45.99"/>
<polygon fill="black" stroke="black" points="2524.97,-46.99 2525.3,-36.41 2518.44,-44.48 2524.97,-46.99"/>
</g>
</g>
</svg>
