<?xml version="1.0" encoding="UTF-8" standalone="no"?>
<!DOCTYPE svg PUBLIC "-//W3C//DTD SVG 1.1//EN"
 "http://www.w3.org/Graphics/SVG/1.1/DTD/svg11.dtd">
<!-- Generated by graphviz version 2.43.0 (0)
 -->
<!-- Title: Tree Pages: 1 -->
<svg width="1366pt" height="520pt"
 viewBox="0.00 0.00 1366.00 520.00" xmlns="http://www.w3.org/2000/svg" xmlns:xlink="http://www.w3.org/1999/xlink">
<g id="graph0" class="graph" transform="scale(1 1) rotate(0) translate(4 516)">
<title>Tree</title>
<polygon fill="white" stroke="transparent" points="-4,4 -4,-516 1362,-516 1362,4 -4,4"/>
<!-- 0 -->
<g id="node1" class="node">
<title>0</title>
<polygon fill="#feffff" stroke="black" points="746,-512 561,-512 561,-429 746,-429 746,-512"/>
<text text-anchor="middle" x="653.5" y="-496.8" font-family="Times,serif" font-size="14.00">graphDepth &lt;= 3.5</text>
<text text-anchor="middle" x="653.5" y="-481.8" font-family="Times,serif" font-size="14.00">gini = 0.5</text>
<text text-anchor="middle" x="653.5" y="-466.8" font-family="Times,serif" font-size="14.00">samples = 25925</text>
<text text-anchor="middle" x="653.5" y="-451.8" font-family="Times,serif" font-size="14.00">value = [12946, 12979]</text>
<text text-anchor="middle" x="653.5" y="-436.8" font-family="Times,serif" font-size="14.00">class = True</text>
</g>
<!-- 1 -->
<g id="node2" class="node">
<title>1</title>
<polygon fill="#fcfeff" stroke="black" points="567,-393 400,-393 400,-310 567,-310 567,-393"/>
<text text-anchor="middle" x="483.5" y="-377.8" font-family="Times,serif" font-size="14.00">sdComp &lt;= 0.2</text>
<text text-anchor="middle" x="483.5" y="-362.8" font-family="Times,serif" font-size="14.00">gini = 0.5</text>
<text text-anchor="middle" x="483.5" y="-347.8" font-family="Times,serif" font-size="14.00">samples = 3524</text>
<text text-anchor="middle" x="483.5" y="-332.8" font-family="Times,serif" font-size="14.00">value = [1750, 1774]</text>
<text text-anchor="middle" x="483.5" y="-317.8" font-family="Times,serif" font-size="14.00">class = True</text>
</g>
<!-- 0&#45;&gt;1 -->
<g id="edge1" class="edge">
<title>0&#45;&gt;1</title>
<path fill="none" stroke="black" d="M594.52,-428.91C580.41,-419.2 565.24,-408.76 550.79,-398.81"/>
<polygon fill="black" stroke="black" points="552.6,-395.81 542.38,-393.02 548.63,-401.57 552.6,-395.81"/>
<text text-anchor="middle" x="546.92" y="-413.91" font-family="Times,serif" font-size="14.00">True</text>
</g>
<!-- 108 -->
<g id="node17" class="node">
<title>108</title>
<polygon fill="#ffffff" stroke="black" points="933,-393 748,-393 748,-310 933,-310 933,-393"/>
<text text-anchor="middle" x="840.5" y="-377.8" font-family="Times,serif" font-size="14.00">sdComm &lt;= 6.5</text>
<text text-anchor="middle" x="840.5" y="-362.8" font-family="Times,serif" font-size="14.00">gini = 0.5</text>
<text text-anchor="middle" x="840.5" y="-347.8" font-family="Times,serif" font-size="14.00">samples = 22401</text>
<text text-anchor="middle" x="840.5" y="-332.8" font-family="Times,serif" font-size="14.00">value = [11196, 11205]</text>
<text text-anchor="middle" x="840.5" y="-317.8" font-family="Times,serif" font-size="14.00">class = True</text>
</g>
<!-- 0&#45;&gt;108 -->
<g id="edge16" class="edge">
<title>0&#45;&gt;108</title>
<path fill="none" stroke="black" d="M718.38,-428.91C734.04,-419.11 750.9,-408.56 766.93,-398.53"/>
<polygon fill="black" stroke="black" points="769.11,-401.29 775.74,-393.02 765.4,-395.36 769.11,-401.29"/>
<text text-anchor="middle" x="770.13" y="-413.68" font-family="Times,serif" font-size="14.00">False</text>
</g>
<!-- 2 -->
<g id="node3" class="node">
<title>2</title>
<polygon fill="#feffff" stroke="black" points="317.5,-274 165.5,-274 165.5,-191 317.5,-191 317.5,-274"/>
<text text-anchor="middle" x="241.5" y="-258.8" font-family="Times,serif" font-size="14.00">sdComm &lt;= 0.065</text>
<text text-anchor="middle" x="241.5" y="-243.8" font-family="Times,serif" font-size="14.00">gini = 0.5</text>
<text text-anchor="middle" x="241.5" y="-228.8" font-family="Times,serif" font-size="14.00">samples = 1767</text>
<text text-anchor="middle" x="241.5" y="-213.8" font-family="Times,serif" font-size="14.00">value = [882, 885]</text>
<text text-anchor="middle" x="241.5" y="-198.8" font-family="Times,serif" font-size="14.00">class = True</text>
</g>
<!-- 1&#45;&gt;2 -->
<g id="edge2" class="edge">
<title>1&#45;&gt;2</title>
<path fill="none" stroke="black" d="M399.88,-310.07C376.36,-298.7 350.75,-286.32 327.12,-274.89"/>
<polygon fill="black" stroke="black" points="328.35,-271.6 317.82,-270.4 325.3,-277.9 328.35,-271.6"/>
</g>
<!-- 49 -->
<g id="node10" class="node">
<title>49</title>
<polygon fill="#fafdfe" stroke="black" points="558,-274 409,-274 409,-191 558,-191 558,-274"/>
<text text-anchor="middle" x="483.5" y="-258.8" font-family="Times,serif" font-size="14.00">sdComm &lt;= 0.2</text>
<text text-anchor="middle" x="483.5" y="-243.8" font-family="Times,serif" font-size="14.00">gini = 0.5</text>
<text text-anchor="middle" x="483.5" y="-228.8" font-family="Times,serif" font-size="14.00">samples = 1757</text>
<text text-anchor="middle" x="483.5" y="-213.8" font-family="Times,serif" font-size="14.00">value = [868, 889]</text>
<text text-anchor="middle" x="483.5" y="-198.8" font-family="Times,serif" font-size="14.00">class = True</text>
</g>
<!-- 1&#45;&gt;49 -->
<g id="edge9" class="edge">
<title>1&#45;&gt;49</title>
<path fill="none" stroke="black" d="M483.5,-309.91C483.5,-301.65 483.5,-292.86 483.5,-284.3"/>
<polygon fill="black" stroke="black" points="487,-284.02 483.5,-274.02 480,-284.02 487,-284.02"/>
</g>
<!-- 3 -->
<g id="node4" class="node">
<title>3</title>
<polygon fill="#ffffff" stroke="black" points="149,-155 0,-155 0,-72 149,-72 149,-155"/>
<text text-anchor="middle" x="74.5" y="-139.8" font-family="Times,serif" font-size="14.00">nbproc &lt;= 4.5</text>
<text text-anchor="middle" x="74.5" y="-124.8" font-family="Times,serif" font-size="14.00">gini = 0.5</text>
<text text-anchor="middle" x="74.5" y="-109.8" font-family="Times,serif" font-size="14.00">samples = 1020</text>
<text text-anchor="middle" x="74.5" y="-94.8" font-family="Times,serif" font-size="14.00">value = [510, 510]</text>
<text text-anchor="middle" x="74.5" y="-79.8" font-family="Times,serif" font-size="14.00">class = False</text>
</g>
<!-- 2&#45;&gt;3 -->
<g id="edge3" class="edge">
<title>2&#45;&gt;3</title>
<path fill="none" stroke="black" d="M183.56,-190.91C169.7,-181.2 154.8,-170.76 140.6,-160.81"/>
<polygon fill="black" stroke="black" points="142.54,-157.89 132.34,-155.02 138.52,-163.63 142.54,-157.89"/>
</g>
<!-- 26 -->
<g id="node7" class="node">
<title>26</title>
<polygon fill="#fdfeff" stroke="black" points="316,-155 167,-155 167,-72 316,-72 316,-155"/>
<text text-anchor="middle" x="241.5" y="-139.8" font-family="Times,serif" font-size="14.00">nbproc &lt;= 4.5</text>
<text text-anchor="middle" x="241.5" y="-124.8" font-family="Times,serif" font-size="14.00">gini = 0.5</text>
<text text-anchor="middle" x="241.5" y="-109.8" font-family="Times,serif" font-size="14.00">samples = 747</text>
<text text-anchor="middle" x="241.5" y="-94.8" font-family="Times,serif" font-size="14.00">value = [372, 375]</text>
<text text-anchor="middle" x="241.5" y="-79.8" font-family="Times,serif" font-size="14.00">class = True</text>
</g>
<!-- 2&#45;&gt;26 -->
<g id="edge6" class="edge">
<title>2&#45;&gt;26</title>
<path fill="none" stroke="black" d="M241.5,-190.91C241.5,-182.65 241.5,-173.86 241.5,-165.3"/>
<polygon fill="black" stroke="black" points="245,-165.02 241.5,-155.02 238,-165.02 245,-165.02"/>
</g>
<!-- 4 -->
<g id="node5" class="node">
<title>4</title>
<polygon fill="#c0c0c0" stroke="black" points="65.5,-36 11.5,-36 11.5,0 65.5,0 65.5,-36"/>
<text text-anchor="middle" x="38.5" y="-14.3" font-family="Times,serif" font-size="14.00">(...)</text>
</g>
<!-- 3&#45;&gt;4 -->
<g id="edge4" class="edge">
<title>3&#45;&gt;4</title>
<path fill="none" stroke="black" d="M58.81,-71.76C55.46,-63.04 51.99,-54.04 48.89,-45.99"/>
<polygon fill="black" stroke="black" points="52.06,-44.48 45.2,-36.41 45.53,-46.99 52.06,-44.48"/>
</g>
<!-- 15 -->
<g id="node6" class="node">
<title>15</title>
<polygon fill="#c0c0c0" stroke="black" points="137.5,-36 83.5,-36 83.5,0 137.5,0 137.5,-36"/>
<text text-anchor="middle" x="110.5" y="-14.3" font-family="Times,serif" font-size="14.00">(...)</text>
</g>
<!-- 3&#45;&gt;15 -->
<g id="edge5" class="edge">
<title>3&#45;&gt;15</title>
<path fill="none" stroke="black" d="M90.19,-71.76C93.54,-63.04 97.01,-54.04 100.11,-45.99"/>
<polygon fill="black" stroke="black" points="103.47,-46.99 103.8,-36.41 96.94,-44.48 103.47,-46.99"/>
</g>
<!-- 27 -->
<g id="node8" class="node">
<title>27</title>
<polygon fill="#c0c0c0" stroke="black" points="239.5,-36 185.5,-36 185.5,0 239.5,0 239.5,-36"/>
<text text-anchor="middle" x="212.5" y="-14.3" font-family="Times,serif" font-size="14.00">(...)</text>
</g>
<!-- 26&#45;&gt;27 -->
<g id="edge7" class="edge">
<title>26&#45;&gt;27</title>
<path fill="none" stroke="black" d="M228.86,-71.76C226.16,-63.04 223.37,-54.04 220.87,-45.99"/>
<polygon fill="black" stroke="black" points="224.2,-44.92 217.9,-36.41 217.52,-46.99 224.2,-44.92"/>
</g>
<!-- 38 -->
<g id="node9" class="node">
<title>38</title>
<polygon fill="#c0c0c0" stroke="black" points="311.5,-36 257.5,-36 257.5,0 311.5,0 311.5,-36"/>
<text text-anchor="middle" x="284.5" y="-14.3" font-family="Times,serif" font-size="14.00">(...)</text>
</g>
<!-- 26&#45;&gt;38 -->
<g id="edge8" class="edge">
<title>26&#45;&gt;38</title>
<path fill="none" stroke="black" d="M260.24,-71.76C264.29,-62.94 268.48,-53.84 272.21,-45.72"/>
<polygon fill="black" stroke="black" points="275.5,-46.95 276.5,-36.41 269.14,-44.03 275.5,-46.95"/>
</g>
<!-- 50 -->
<g id="node11" class="node">
<title>50</title>
<polygon fill="#eff7fd" stroke="black" points="483,-155 334,-155 334,-72 483,-72 483,-155"/>
<text text-anchor="middle" x="408.5" y="-139.8" font-family="Times,serif" font-size="14.00">nbproc &lt;= 4.5</text>
<text text-anchor="middle" x="408.5" y="-124.8" font-family="Times,serif" font-size="14.00">gini = 0.499</text>
<text text-anchor="middle" x="408.5" y="-109.8" font-family="Times,serif" font-size="14.00">samples = 267</text>
<text text-anchor="middle" x="408.5" y="-94.8" font-family="Times,serif" font-size="14.00">value = [128, 139]</text>
<text text-anchor="middle" x="408.5" y="-79.8" font-family="Times,serif" font-size="14.00">class = True</text>
</g>
<!-- 49&#45;&gt;50 -->
<g id="edge10" class="edge">
<title>49&#45;&gt;50</title>
<path fill="none" stroke="black" d="M457.48,-190.91C451.84,-182.1 445.81,-172.7 439.98,-163.61"/>
<polygon fill="black" stroke="black" points="442.82,-161.55 434.47,-155.02 436.93,-165.33 442.82,-161.55"/>
</g>
<!-- 57 -->
<g id="node14" class="node">
<title>57</title>
<polygon fill="#fcfeff" stroke="black" points="650,-155 501,-155 501,-72 650,-72 650,-155"/>
<text text-anchor="middle" x="575.5" y="-139.8" font-family="Times,serif" font-size="14.00">nbproc &lt;= 4.5</text>
<text text-anchor="middle" x="575.5" y="-124.8" font-family="Times,serif" font-size="14.00">gini = 0.5</text>
<text text-anchor="middle" x="575.5" y="-109.8" font-family="Times,serif" font-size="14.00">samples = 1490</text>
<text text-anchor="middle" x="575.5" y="-94.8" font-family="Times,serif" font-size="14.00">value = [740, 750]</text>
<text text-anchor="middle" x="575.5" y="-79.8" font-family="Times,serif" font-size="14.00">class = True</text>
</g>
<!-- 49&#45;&gt;57 -->
<g id="edge13" class="edge">
<title>49&#45;&gt;57</title>
<path fill="none" stroke="black" d="M515.42,-190.91C522.48,-181.92 530.04,-172.32 537.32,-163.05"/>
<polygon fill="black" stroke="black" points="540.21,-165.05 543.64,-155.02 534.7,-160.72 540.21,-165.05"/>
</g>
<!-- 51 -->
<g id="node12" class="node">
<title>51</title>
<polygon fill="#c0c0c0" stroke="black" points="412.5,-36 358.5,-36 358.5,0 412.5,0 412.5,-36"/>
<text text-anchor="middle" x="385.5" y="-14.3" font-family="Times,serif" font-size="14.00">(...)</text>
</g>
<!-- 50&#45;&gt;51 -->
<g id="edge11" class="edge">
<title>50&#45;&gt;51</title>
<path fill="none" stroke="black" d="M398.48,-71.76C396.36,-63.14 394.17,-54.24 392.21,-46.26"/>
<polygon fill="black" stroke="black" points="395.57,-45.28 389.78,-36.41 388.77,-46.95 395.57,-45.28"/>
</g>
<!-- 54 -->
<g id="node13" class="node">
<title>54</title>
<polygon fill="#c0c0c0" stroke="black" points="484.5,-36 430.5,-36 430.5,0 484.5,0 484.5,-36"/>
<text text-anchor="middle" x="457.5" y="-14.3" font-family="Times,serif" font-size="14.00">(...)</text>
</g>
<!-- 50&#45;&gt;54 -->
<g id="edge12" class="edge">
<title>50&#45;&gt;54</title>
<path fill="none" stroke="black" d="M429.85,-71.76C434.52,-62.85 439.35,-53.64 443.63,-45.46"/>
<polygon fill="black" stroke="black" points="446.84,-46.89 448.38,-36.41 440.64,-43.64 446.84,-46.89"/>
</g>
<!-- 58 -->
<g id="node15" class="node">
<title>58</title>
<polygon fill="#c0c0c0" stroke="black" points="573.5,-36 519.5,-36 519.5,0 573.5,0 573.5,-36"/>
<text text-anchor="middle" x="546.5" y="-14.3" font-family="Times,serif" font-size="14.00">(...)</text>
</g>
<!-- 57&#45;&gt;58 -->
<g id="edge14" class="edge">
<title>57&#45;&gt;58</title>
<path fill="none" stroke="black" d="M562.86,-71.76C560.16,-63.04 557.37,-54.04 554.87,-45.99"/>
<polygon fill="black" stroke="black" points="558.2,-44.92 551.9,-36.41 551.52,-46.99 558.2,-44.92"/>
</g>
<!-- 83 -->
<g id="node16" class="node">
<title>83</title>
<polygon fill="#c0c0c0" stroke="black" points="645.5,-36 591.5,-36 591.5,0 645.5,0 645.5,-36"/>
<text text-anchor="middle" x="618.5" y="-14.3" font-family="Times,serif" font-size="14.00">(...)</text>
</g>
<!-- 57&#45;&gt;83 -->
<g id="edge15" class="edge">
<title>57&#45;&gt;83</title>
<path fill="none" stroke="black" d="M594.24,-71.76C598.29,-62.94 602.48,-53.84 606.21,-45.72"/>
<polygon fill="black" stroke="black" points="609.5,-46.95 610.5,-36.41 603.14,-44.03 609.5,-46.95"/>
</g>
<!-- 109 -->
<g id="node18" class="node">
<title>109</title>
<polygon fill="#ffffff" stroke="black" points="924,-274 757,-274 757,-191 924,-191 924,-274"/>
<text text-anchor="middle" x="840.5" y="-258.8" font-family="Times,serif" font-size="14.00">sdComp &lt;= 0.65</text>
<text text-anchor="middle" x="840.5" y="-243.8" font-family="Times,serif" font-size="14.00">gini = 0.5</text>
<text text-anchor="middle" x="840.5" y="-228.8" font-family="Times,serif" font-size="14.00">samples = 19515</text>
<text text-anchor="middle" x="840.5" y="-213.8" font-family="Times,serif" font-size="14.00">value = [9756, 9759]</text>
<text text-anchor="middle" x="840.5" y="-198.8" font-family="Times,serif" font-size="14.00">class = True</text>
</g>
<!-- 108&#45;&gt;109 -->
<g id="edge17" class="edge">
<title>108&#45;&gt;109</title>
<path fill="none" stroke="black" d="M840.5,-309.91C840.5,-301.65 840.5,-292.86 840.5,-284.3"/>
<polygon fill="black" stroke="black" points="844,-284.02 840.5,-274.02 837,-284.02 844,-284.02"/>
</g>
<!-- 750 -->
<g id="node25" class="node">
<title>750</title>
<polygon fill="#feffff" stroke="black" points="1198,-274 1031,-274 1031,-191 1198,-191 1198,-274"/>
<text text-anchor="middle" x="1114.5" y="-258.8" font-family="Times,serif" font-size="14.00">graphDepth &lt;= 9.0</text>
<text text-anchor="middle" x="1114.5" y="-243.8" font-family="Times,serif" font-size="14.00">gini = 0.5</text>
<text text-anchor="middle" x="1114.5" y="-228.8" font-family="Times,serif" font-size="14.00">samples = 2886</text>
<text text-anchor="middle" x="1114.5" y="-213.8" font-family="Times,serif" font-size="14.00">value = [1440, 1446]</text>
<text text-anchor="middle" x="1114.5" y="-198.8" font-family="Times,serif" font-size="14.00">class = True</text>
</g>
<!-- 108&#45;&gt;750 -->
<g id="edge24" class="edge">
<title>108&#45;&gt;750</title>
<path fill="none" stroke="black" d="M933.26,-310.89C961.58,-298.8 992.72,-285.5 1021.08,-273.39"/>
<polygon fill="black" stroke="black" points="1022.76,-276.48 1030.58,-269.33 1020.01,-270.04 1022.76,-276.48"/>
</g>
<!-- 110 -->
<g id="node19" class="node">
<title>110</title>
<polygon fill="#ffffff" stroke="black" points="835,-155 668,-155 668,-72 835,-72 835,-155"/>
<text text-anchor="middle" x="751.5" y="-139.8" font-family="Times,serif" font-size="14.00">sdComp &lt;= 0.02</text>
<text text-anchor="middle" x="751.5" y="-124.8" font-family="Times,serif" font-size="14.00">gini = 0.5</text>
<text text-anchor="middle" x="751.5" y="-109.8" font-family="Times,serif" font-size="14.00">samples = 12034</text>
<text text-anchor="middle" x="751.5" y="-94.8" font-family="Times,serif" font-size="14.00">value = [6017, 6017]</text>
<text text-anchor="middle" x="751.5" y="-79.8" font-family="Times,serif" font-size="14.00">class = False</text>
</g>
<!-- 109&#45;&gt;110 -->
<g id="edge18" class="edge">
<title>109&#45;&gt;110</title>
<path fill="none" stroke="black" d="M809.62,-190.91C802.79,-181.92 795.48,-172.32 788.43,-163.05"/>
<polygon fill="black" stroke="black" points="791.16,-160.86 782.32,-155.02 785.59,-165.1 791.16,-160.86"/>
</g>
<!-- 509 -->
<g id="node22" class="node">
<title>509</title>
<polygon fill="#ffffff" stroke="black" points="1020,-155 853,-155 853,-72 1020,-72 1020,-155"/>
<text text-anchor="middle" x="936.5" y="-139.8" font-family="Times,serif" font-size="14.00">CCR &lt;= 5.5</text>
<text text-anchor="middle" x="936.5" y="-124.8" font-family="Times,serif" font-size="14.00">gini = 0.5</text>
<text text-anchor="middle" x="936.5" y="-109.8" font-family="Times,serif" font-size="14.00">samples = 7481</text>
<text text-anchor="middle" x="936.5" y="-94.8" font-family="Times,serif" font-size="14.00">value = [3739, 3742]</text>
<text text-anchor="middle" x="936.5" y="-79.8" font-family="Times,serif" font-size="14.00">class = True</text>
</g>
<!-- 109&#45;&gt;509 -->
<g id="edge21" class="edge">
<title>109&#45;&gt;509</title>
<path fill="none" stroke="black" d="M873.81,-190.91C881.25,-181.83 889.22,-172.12 896.89,-162.77"/>
<polygon fill="black" stroke="black" points="899.61,-164.97 903.25,-155.02 894.2,-160.53 899.61,-164.97"/>
</g>
<!-- 111 -->
<g id="node20" class="node">
<title>111</title>
<polygon fill="#c0c0c0" stroke="black" points="726.5,-36 672.5,-36 672.5,0 726.5,0 726.5,-36"/>
<text text-anchor="middle" x="699.5" y="-14.3" font-family="Times,serif" font-size="14.00">(...)</text>
</g>
<!-- 110&#45;&gt;111 -->
<g id="edge19" class="edge">
<title>110&#45;&gt;111</title>
<path fill="none" stroke="black" d="M728.84,-71.76C723.83,-62.75 718.65,-53.44 714.07,-45.19"/>
<polygon fill="black" stroke="black" points="717.1,-43.44 709.18,-36.41 710.98,-46.85 717.1,-43.44"/>
</g>
<!-- 190 -->
<g id="node21" class="node">
<title>190</title>
<polygon fill="#c0c0c0" stroke="black" points="798.5,-36 744.5,-36 744.5,0 798.5,0 798.5,-36"/>
<text text-anchor="middle" x="771.5" y="-14.3" font-family="Times,serif" font-size="14.00">(...)</text>
</g>
<!-- 110&#45;&gt;190 -->
<g id="edge20" class="edge">
<title>110&#45;&gt;190</title>
<path fill="none" stroke="black" d="M760.21,-71.76C762.06,-63.14 763.96,-54.24 765.67,-46.26"/>
<polygon fill="black" stroke="black" points="769.11,-46.92 767.78,-36.41 762.26,-45.45 769.11,-46.92"/>
</g>
<!-- 510 -->
<g id="node23" class="node">
<title>510</title>
<polygon fill="#c0c0c0" stroke="black" points="908.5,-36 854.5,-36 854.5,0 908.5,0 908.5,-36"/>
<text text-anchor="middle" x="881.5" y="-14.3" font-family="Times,serif" font-size="14.00">(...)</text>
</g>
<!-- 509&#45;&gt;510 -->
<g id="edge22" class="edge">
<title>509&#45;&gt;510</title>
<path fill="none" stroke="black" d="M912.54,-71.76C907.24,-62.75 901.76,-53.44 896.91,-45.19"/>
<polygon fill="black" stroke="black" points="899.83,-43.25 891.74,-36.41 893.79,-46.8 899.83,-43.25"/>
</g>
<!-- 587 -->
<g id="node24" class="node">
<title>587</title>
<polygon fill="#c0c0c0" stroke="black" points="980.5,-36 926.5,-36 926.5,0 980.5,0 980.5,-36"/>
<text text-anchor="middle" x="953.5" y="-14.3" font-family="Times,serif" font-size="14.00">(...)</text>
</g>
<!-- 509&#45;&gt;587 -->
<g id="edge23" class="edge">
<title>509&#45;&gt;587</title>
<path fill="none" stroke="black" d="M943.91,-71.76C945.47,-63.14 947.09,-54.24 948.54,-46.26"/>
<polygon fill="black" stroke="black" points="951.99,-46.87 950.34,-36.41 945.1,-45.62 951.99,-46.87"/>
</g>
<!-- 751 -->
<g id="node26" class="node">
<title>751</title>
<polygon fill="#fdfeff" stroke="black" points="1191,-155 1038,-155 1038,-72 1191,-72 1191,-155"/>
<text text-anchor="middle" x="1114.5" y="-139.8" font-family="Times,serif" font-size="14.00">graphSize &lt;= 22.5</text>
<text text-anchor="middle" x="1114.5" y="-124.8" font-family="Times,serif" font-size="14.00">gini = 0.5</text>
<text text-anchor="middle" x="1114.5" y="-109.8" font-family="Times,serif" font-size="14.00">samples = 1160</text>
<text text-anchor="middle" x="1114.5" y="-94.8" font-family="Times,serif" font-size="14.00">value = [577, 583]</text>
<text text-anchor="middle" x="1114.5" y="-79.8" font-family="Times,serif" font-size="14.00">class = True</text>
</g>
<!-- 750&#45;&gt;751 -->
<g id="edge25" class="edge">
<title>750&#45;&gt;751</title>
<path fill="none" stroke="black" d="M1114.5,-190.91C1114.5,-182.65 1114.5,-173.86 1114.5,-165.3"/>
<polygon fill="black" stroke="black" points="1118,-165.02 1114.5,-155.02 1111,-165.02 1118,-165.02"/>
</g>
<!-- 786 -->
<g id="node29" class="node">
<title>786</title>
<polygon fill="#ffffff" stroke="black" points="1358,-155 1209,-155 1209,-72 1358,-72 1358,-155"/>
<text text-anchor="middle" x="1283.5" y="-139.8" font-family="Times,serif" font-size="14.00">sdComp &lt;= 2.0</text>
<text text-anchor="middle" x="1283.5" y="-124.8" font-family="Times,serif" font-size="14.00">gini = 0.5</text>
<text text-anchor="middle" x="1283.5" y="-109.8" font-family="Times,serif" font-size="14.00">samples = 1726</text>
<text text-anchor="middle" x="1283.5" y="-94.8" font-family="Times,serif" font-size="14.00">value = [863, 863]</text>
<text text-anchor="middle" x="1283.5" y="-79.8" font-family="Times,serif" font-size="14.00">class = False</text>
</g>
<!-- 750&#45;&gt;786 -->
<g id="edge28" class="edge">
<title>750&#45;&gt;786</title>
<path fill="none" stroke="black" d="M1173.13,-190.91C1187.16,-181.2 1202.24,-170.76 1216.61,-160.81"/>
<polygon fill="black" stroke="black" points="1218.74,-163.59 1224.97,-155.02 1214.76,-157.84 1218.74,-163.59"/>
</g>
<!-- 752 -->
<g id="node27" class="node">
<title>752</title>
<polygon fill="#c0c0c0" stroke="black" points="1099.5,-36 1045.5,-36 1045.5,0 1099.5,0 1099.5,-36"/>
<text text-anchor="middle" x="1072.5" y="-14.3" font-family="Times,serif" font-size="14.00">(...)</text>
</g>
<!-- 751&#45;&gt;752 -->
<g id="edge26" class="edge">
<title>751&#45;&gt;752</title>
<path fill="none" stroke="black" d="M1096.2,-71.76C1092.24,-62.94 1088.15,-53.84 1084.5,-45.72"/>
<polygon fill="black" stroke="black" points="1087.61,-44.09 1080.32,-36.41 1081.22,-46.96 1087.61,-44.09"/>
</g>
<!-- 763 -->
<g id="node28" class="node">
<title>763</title>
<polygon fill="#c0c0c0" stroke="black" points="1171.5,-36 1117.5,-36 1117.5,0 1171.5,0 1171.5,-36"/>
<text text-anchor="middle" x="1144.5" y="-14.3" font-family="Times,serif" font-size="14.00">(...)</text>
</g>
<!-- 751&#45;&gt;763 -->
<g id="edge27" class="edge">
<title>751&#45;&gt;763</title>
<path fill="none" stroke="black" d="M1127.57,-71.76C1130.37,-63.04 1133.26,-54.04 1135.84,-45.99"/>
<polygon fill="black" stroke="black" points="1139.19,-47 1138.92,-36.41 1132.53,-44.86 1139.19,-47"/>
</g>
<!-- 787 -->
<g id="node30" class="node">
<title>787</title>
<polygon fill="#c0c0c0" stroke="black" points="1274.5,-36 1220.5,-36 1220.5,0 1274.5,0 1274.5,-36"/>
<text text-anchor="middle" x="1247.5" y="-14.3" font-family="Times,serif" font-size="14.00">(...)</text>
</g>
<!-- 786&#45;&gt;787 -->
<g id="edge29" class="edge">
<title>786&#45;&gt;787</title>
<path fill="none" stroke="black" d="M1267.81,-71.76C1264.46,-63.04 1260.99,-54.04 1257.89,-45.99"/>
<polygon fill="black" stroke="black" points="1261.06,-44.48 1254.2,-36.41 1254.53,-46.99 1261.06,-44.48"/>
</g>
<!-- 802 -->
<g id="node31" class="node">
<title>802</title>
<polygon fill="#c0c0c0" stroke="black" points="1346.5,-36 1292.5,-36 1292.5,0 1346.5,0 1346.5,-36"/>
<text text-anchor="middle" x="1319.5" y="-14.3" font-family="Times,serif" font-size="14.00">(...)</text>
</g>
<!-- 786&#45;&gt;802 -->
<g id="edge30" class="edge">
<title>786&#45;&gt;802</title>
<path fill="none" stroke="black" d="M1299.19,-71.76C1302.54,-63.04 1306.01,-54.04 1309.11,-45.99"/>
<polygon fill="black" stroke="black" points="1312.47,-46.99 1312.8,-36.41 1305.94,-44.48 1312.47,-46.99"/>
</g>
</g>
</svg>
