<?xml version="1.0" encoding="UTF-8" standalone="no"?>
<!DOCTYPE svg PUBLIC "-//W3C//DTD SVG 1.1//EN"
 "http://www.w3.org/Graphics/SVG/1.1/DTD/svg11.dtd">
<!-- Generated by graphviz version 2.43.0 (0)
 -->
<!-- Title: Tree Pages: 1 -->
<svg width="1418pt" height="520pt"
 viewBox="0.00 0.00 1418.00 520.00" xmlns="http://www.w3.org/2000/svg" xmlns:xlink="http://www.w3.org/1999/xlink">
<g id="graph0" class="graph" transform="scale(1 1) rotate(0) translate(4 516)">
<title>Tree</title>
<polygon fill="white" stroke="transparent" points="-4,4 -4,-516 1414,-516 1414,4 -4,4"/>
<!-- 0 -->
<g id="node1" class="node">
<title>0</title>
<polygon fill="#a7d3f3" stroke="black" points="799,-512 623,-512 623,-429 799,-429 799,-512"/>
<text text-anchor="middle" x="711" y="-496.8" font-family="Times,serif" font-size="14.00">sdComp &lt;= 0.65</text>
<text text-anchor="middle" x="711" y="-481.8" font-family="Times,serif" font-size="14.00">gini = 0.459</text>
<text text-anchor="middle" x="711" y="-466.8" font-family="Times,serif" font-size="14.00">samples = 25925</text>
<text text-anchor="middle" x="711" y="-451.8" font-family="Times,serif" font-size="14.00">value = [9241, 16684]</text>
<text text-anchor="middle" x="711" y="-436.8" font-family="Times,serif" font-size="14.00">class = True</text>
</g>
<!-- 1 -->
<g id="node2" class="node">
<title>1</title>
<polygon fill="#d3e9f9" stroke="black" points="612.5,-393 445.5,-393 445.5,-310 612.5,-310 612.5,-393"/>
<text text-anchor="middle" x="529" y="-377.8" font-family="Times,serif" font-size="14.00">nbproc &lt;= 4.5</text>
<text text-anchor="middle" x="529" y="-362.8" font-family="Times,serif" font-size="14.00">gini = 0.492</text>
<text text-anchor="middle" x="529" y="-347.8" font-family="Times,serif" font-size="14.00">samples = 13963</text>
<text text-anchor="middle" x="529" y="-332.8" font-family="Times,serif" font-size="14.00">value = [6108, 7855]</text>
<text text-anchor="middle" x="529" y="-317.8" font-family="Times,serif" font-size="14.00">class = True</text>
</g>
<!-- 0&#45;&gt;1 -->
<g id="edge1" class="edge">
<title>0&#45;&gt;1</title>
<path fill="none" stroke="black" d="M647.86,-428.91C632.61,-419.11 616.21,-408.56 600.61,-398.53"/>
<polygon fill="black" stroke="black" points="602.34,-395.48 592.03,-393.02 598.55,-401.37 602.34,-395.48"/>
<text text-anchor="middle" x="597.34" y="-413.75" font-family="Times,serif" font-size="14.00">True</text>
</g>
<!-- 430 -->
<g id="node17" class="node">
<title>430</title>
<polygon fill="#7fc0ee" stroke="black" points="975.5,-393 808.5,-393 808.5,-310 975.5,-310 975.5,-393"/>
<text text-anchor="middle" x="892" y="-377.8" font-family="Times,serif" font-size="14.00">sdComp &lt;= 6.5</text>
<text text-anchor="middle" x="892" y="-362.8" font-family="Times,serif" font-size="14.00">gini = 0.387</text>
<text text-anchor="middle" x="892" y="-347.8" font-family="Times,serif" font-size="14.00">samples = 11962</text>
<text text-anchor="middle" x="892" y="-332.8" font-family="Times,serif" font-size="14.00">value = [3133, 8829]</text>
<text text-anchor="middle" x="892" y="-317.8" font-family="Times,serif" font-size="14.00">class = True</text>
</g>
<!-- 0&#45;&gt;430 -->
<g id="edge16" class="edge">
<title>0&#45;&gt;430</title>
<path fill="none" stroke="black" d="M773.8,-428.91C788.96,-419.11 805.27,-408.56 820.79,-398.53"/>
<polygon fill="black" stroke="black" points="822.82,-401.39 829.31,-393.02 819.02,-395.51 822.82,-401.39"/>
<text text-anchor="middle" x="824.06" y="-413.76" font-family="Times,serif" font-size="14.00">False</text>
</g>
<!-- 2 -->
<g id="node3" class="node">
<title>2</title>
<polygon fill="#baddf6" stroke="black" points="337.5,-274 170.5,-274 170.5,-191 337.5,-191 337.5,-274"/>
<text text-anchor="middle" x="254" y="-258.8" font-family="Times,serif" font-size="14.00">graphDepth &lt;= 3.5</text>
<text text-anchor="middle" x="254" y="-243.8" font-family="Times,serif" font-size="14.00">gini = 0.478</text>
<text text-anchor="middle" x="254" y="-228.8" font-family="Times,serif" font-size="14.00">samples = 4644</text>
<text text-anchor="middle" x="254" y="-213.8" font-family="Times,serif" font-size="14.00">value = [1836, 2808]</text>
<text text-anchor="middle" x="254" y="-198.8" font-family="Times,serif" font-size="14.00">class = True</text>
</g>
<!-- 1&#45;&gt;2 -->
<g id="edge2" class="edge">
<title>1&#45;&gt;2</title>
<path fill="none" stroke="black" d="M445.37,-314.92C414.31,-301.7 378.88,-286.63 347.03,-273.08"/>
<polygon fill="black" stroke="black" points="348.28,-269.81 337.71,-269.11 345.54,-276.25 348.28,-269.81"/>
</g>
<!-- 209 -->
<g id="node10" class="node">
<title>209</title>
<polygon fill="#e1f0fb" stroke="black" points="612.5,-274 445.5,-274 445.5,-191 612.5,-191 612.5,-274"/>
<text text-anchor="middle" x="529" y="-258.8" font-family="Times,serif" font-size="14.00">graphSize &lt;= 22.5</text>
<text text-anchor="middle" x="529" y="-243.8" font-family="Times,serif" font-size="14.00">gini = 0.497</text>
<text text-anchor="middle" x="529" y="-228.8" font-family="Times,serif" font-size="14.00">samples = 9319</text>
<text text-anchor="middle" x="529" y="-213.8" font-family="Times,serif" font-size="14.00">value = [4272, 5047]</text>
<text text-anchor="middle" x="529" y="-198.8" font-family="Times,serif" font-size="14.00">class = True</text>
</g>
<!-- 1&#45;&gt;209 -->
<g id="edge9" class="edge">
<title>1&#45;&gt;209</title>
<path fill="none" stroke="black" d="M529,-309.91C529,-301.65 529,-292.86 529,-284.3"/>
<polygon fill="black" stroke="black" points="532.5,-284.02 529,-274.02 525.5,-284.02 532.5,-284.02"/>
</g>
<!-- 3 -->
<g id="node4" class="node">
<title>3</title>
<polygon fill="#6bb6ec" stroke="black" points="152,-155 0,-155 0,-72 152,-72 152,-155"/>
<text text-anchor="middle" x="76" y="-139.8" font-family="Times,serif" font-size="14.00">sdComm &lt;= 0.065</text>
<text text-anchor="middle" x="76" y="-124.8" font-family="Times,serif" font-size="14.00">gini = 0.323</text>
<text text-anchor="middle" x="76" y="-109.8" font-family="Times,serif" font-size="14.00">samples = 582</text>
<text text-anchor="middle" x="76" y="-94.8" font-family="Times,serif" font-size="14.00">value = [118, 464]</text>
<text text-anchor="middle" x="76" y="-79.8" font-family="Times,serif" font-size="14.00">class = True</text>
</g>
<!-- 2&#45;&gt;3 -->
<g id="edge3" class="edge">
<title>2&#45;&gt;3</title>
<path fill="none" stroke="black" d="M192.24,-190.91C177.33,-181.11 161.29,-170.56 146.03,-160.53"/>
<polygon fill="black" stroke="black" points="147.93,-157.59 137.65,-155.02 144.08,-163.44 147.93,-157.59"/>
</g>
<!-- 14 -->
<g id="node7" class="node">
<title>14</title>
<polygon fill="#cae5f8" stroke="black" points="337.5,-155 170.5,-155 170.5,-72 337.5,-72 337.5,-155"/>
<text text-anchor="middle" x="254" y="-139.8" font-family="Times,serif" font-size="14.00">graphSize &lt;= 22.5</text>
<text text-anchor="middle" x="254" y="-124.8" font-family="Times,serif" font-size="14.00">gini = 0.488</text>
<text text-anchor="middle" x="254" y="-109.8" font-family="Times,serif" font-size="14.00">samples = 4062</text>
<text text-anchor="middle" x="254" y="-94.8" font-family="Times,serif" font-size="14.00">value = [1718, 2344]</text>
<text text-anchor="middle" x="254" y="-79.8" font-family="Times,serif" font-size="14.00">class = True</text>
</g>
<!-- 2&#45;&gt;14 -->
<g id="edge6" class="edge">
<title>2&#45;&gt;14</title>
<path fill="none" stroke="black" d="M254,-190.91C254,-182.65 254,-173.86 254,-165.3"/>
<polygon fill="black" stroke="black" points="257.5,-165.02 254,-155.02 250.5,-165.02 257.5,-165.02"/>
</g>
<!-- 4 -->
<g id="node5" class="node">
<title>4</title>
<polygon fill="#c0c0c0" stroke="black" points="67,-36 13,-36 13,0 67,0 67,-36"/>
<text text-anchor="middle" x="40" y="-14.3" font-family="Times,serif" font-size="14.00">(...)</text>
</g>
<!-- 3&#45;&gt;4 -->
<g id="edge4" class="edge">
<title>3&#45;&gt;4</title>
<path fill="none" stroke="black" d="M60.31,-71.76C56.96,-63.04 53.49,-54.04 50.39,-45.99"/>
<polygon fill="black" stroke="black" points="53.56,-44.48 46.7,-36.41 47.03,-46.99 53.56,-44.48"/>
</g>
<!-- 9 -->
<g id="node6" class="node">
<title>9</title>
<polygon fill="#c0c0c0" stroke="black" points="139,-36 85,-36 85,0 139,0 139,-36"/>
<text text-anchor="middle" x="112" y="-14.3" font-family="Times,serif" font-size="14.00">(...)</text>
</g>
<!-- 3&#45;&gt;9 -->
<g id="edge5" class="edge">
<title>3&#45;&gt;9</title>
<path fill="none" stroke="black" d="M91.69,-71.76C95.04,-63.04 98.51,-54.04 101.61,-45.99"/>
<polygon fill="black" stroke="black" points="104.97,-46.99 105.3,-36.41 98.44,-44.48 104.97,-46.99"/>
</g>
<!-- 15 -->
<g id="node8" class="node">
<title>15</title>
<polygon fill="#c0c0c0" stroke="black" points="251,-36 197,-36 197,0 251,0 251,-36"/>
<text text-anchor="middle" x="224" y="-14.3" font-family="Times,serif" font-size="14.00">(...)</text>
</g>
<!-- 14&#45;&gt;15 -->
<g id="edge7" class="edge">
<title>14&#45;&gt;15</title>
<path fill="none" stroke="black" d="M240.93,-71.76C238.13,-63.04 235.24,-54.04 232.66,-45.99"/>
<polygon fill="black" stroke="black" points="235.97,-44.86 229.58,-36.41 229.31,-47 235.97,-44.86"/>
</g>
<!-- 44 -->
<g id="node9" class="node">
<title>44</title>
<polygon fill="#c0c0c0" stroke="black" points="323,-36 269,-36 269,0 323,0 323,-36"/>
<text text-anchor="middle" x="296" y="-14.3" font-family="Times,serif" font-size="14.00">(...)</text>
</g>
<!-- 14&#45;&gt;44 -->
<g id="edge8" class="edge">
<title>14&#45;&gt;44</title>
<path fill="none" stroke="black" d="M272.3,-71.76C276.26,-62.94 280.35,-53.84 284,-45.72"/>
<polygon fill="black" stroke="black" points="287.28,-46.96 288.18,-36.41 280.89,-44.09 287.28,-46.96"/>
</g>
<!-- 210 -->
<g id="node11" class="node">
<title>210</title>
<polygon fill="#ecf5fc" stroke="black" points="522.5,-155 355.5,-155 355.5,-72 522.5,-72 522.5,-155"/>
<text text-anchor="middle" x="439" y="-139.8" font-family="Times,serif" font-size="14.00">graphDepth &lt;= 3.5</text>
<text text-anchor="middle" x="439" y="-124.8" font-family="Times,serif" font-size="14.00">gini = 0.499</text>
<text text-anchor="middle" x="439" y="-109.8" font-family="Times,serif" font-size="14.00">samples = 6429</text>
<text text-anchor="middle" x="439" y="-94.8" font-family="Times,serif" font-size="14.00">value = [3050, 3379]</text>
<text text-anchor="middle" x="439" y="-79.8" font-family="Times,serif" font-size="14.00">class = True</text>
</g>
<!-- 209&#45;&gt;210 -->
<g id="edge10" class="edge">
<title>209&#45;&gt;210</title>
<path fill="none" stroke="black" d="M497.77,-190.91C490.86,-181.92 483.47,-172.32 476.35,-163.05"/>
<polygon fill="black" stroke="black" points="479.04,-160.81 470.17,-155.02 473.49,-165.08 479.04,-160.81"/>
</g>
<!-- 269 -->
<g id="node14" class="node">
<title>269</title>
<polygon fill="#cae5f8" stroke="black" points="707.5,-155 540.5,-155 540.5,-72 707.5,-72 707.5,-155"/>
<text text-anchor="middle" x="624" y="-139.8" font-family="Times,serif" font-size="14.00">sdComp &lt;= 0.065</text>
<text text-anchor="middle" x="624" y="-124.8" font-family="Times,serif" font-size="14.00">gini = 0.488</text>
<text text-anchor="middle" x="624" y="-109.8" font-family="Times,serif" font-size="14.00">samples = 2890</text>
<text text-anchor="middle" x="624" y="-94.8" font-family="Times,serif" font-size="14.00">value = [1222, 1668]</text>
<text text-anchor="middle" x="624" y="-79.8" font-family="Times,serif" font-size="14.00">class = True</text>
</g>
<!-- 209&#45;&gt;269 -->
<g id="edge13" class="edge">
<title>209&#45;&gt;269</title>
<path fill="none" stroke="black" d="M561.96,-190.91C569.25,-181.92 577.06,-172.32 584.58,-163.05"/>
<polygon fill="black" stroke="black" points="587.51,-164.99 591.1,-155.02 582.08,-160.58 587.51,-164.99"/>
</g>
<!-- 211 -->
<g id="node12" class="node">
<title>211</title>
<polygon fill="#c0c0c0" stroke="black" points="414,-36 360,-36 360,0 414,0 414,-36"/>
<text text-anchor="middle" x="387" y="-14.3" font-family="Times,serif" font-size="14.00">(...)</text>
</g>
<!-- 210&#45;&gt;211 -->
<g id="edge11" class="edge">
<title>210&#45;&gt;211</title>
<path fill="none" stroke="black" d="M416.34,-71.76C411.33,-62.75 406.15,-53.44 401.57,-45.19"/>
<polygon fill="black" stroke="black" points="404.6,-43.44 396.68,-36.41 398.48,-46.85 404.6,-43.44"/>
</g>
<!-- 240 -->
<g id="node13" class="node">
<title>240</title>
<polygon fill="#c0c0c0" stroke="black" points="486,-36 432,-36 432,0 486,0 486,-36"/>
<text text-anchor="middle" x="459" y="-14.3" font-family="Times,serif" font-size="14.00">(...)</text>
</g>
<!-- 210&#45;&gt;240 -->
<g id="edge12" class="edge">
<title>210&#45;&gt;240</title>
<path fill="none" stroke="black" d="M447.71,-71.76C449.56,-63.14 451.46,-54.24 453.17,-46.26"/>
<polygon fill="black" stroke="black" points="456.61,-46.92 455.28,-36.41 449.76,-45.45 456.61,-46.92"/>
</g>
<!-- 270 -->
<g id="node15" class="node">
<title>270</title>
<polygon fill="#c0c0c0" stroke="black" points="597,-36 543,-36 543,0 597,0 597,-36"/>
<text text-anchor="middle" x="570" y="-14.3" font-family="Times,serif" font-size="14.00">(...)</text>
</g>
<!-- 269&#45;&gt;270 -->
<g id="edge14" class="edge">
<title>269&#45;&gt;270</title>
<path fill="none" stroke="black" d="M600.47,-71.76C595.27,-62.75 589.89,-53.44 585.13,-45.19"/>
<polygon fill="black" stroke="black" points="588.08,-43.31 580.05,-36.41 582.02,-46.82 588.08,-43.31"/>
</g>
<!-- 335 -->
<g id="node16" class="node">
<title>335</title>
<polygon fill="#c0c0c0" stroke="black" points="669,-36 615,-36 615,0 669,0 669,-36"/>
<text text-anchor="middle" x="642" y="-14.3" font-family="Times,serif" font-size="14.00">(...)</text>
</g>
<!-- 269&#45;&gt;335 -->
<g id="edge15" class="edge">
<title>269&#45;&gt;335</title>
<path fill="none" stroke="black" d="M631.84,-71.76C633.5,-63.14 635.22,-54.24 636.75,-46.26"/>
<polygon fill="black" stroke="black" points="640.2,-46.89 638.65,-36.41 633.32,-45.56 640.2,-46.89"/>
</g>
<!-- 431 -->
<g id="node18" class="node">
<title>431</title>
<polygon fill="#76bbed" stroke="black" points="975.5,-274 808.5,-274 808.5,-191 975.5,-191 975.5,-274"/>
<text text-anchor="middle" x="892" y="-258.8" font-family="Times,serif" font-size="14.00">nbproc &lt;= 4.5</text>
<text text-anchor="middle" x="892" y="-243.8" font-family="Times,serif" font-size="14.00">gini = 0.362</text>
<text text-anchor="middle" x="892" y="-228.8" font-family="Times,serif" font-size="14.00">samples = 9144</text>
<text text-anchor="middle" x="892" y="-213.8" font-family="Times,serif" font-size="14.00">value = [2167, 6977]</text>
<text text-anchor="middle" x="892" y="-198.8" font-family="Times,serif" font-size="14.00">class = True</text>
</g>
<!-- 430&#45;&gt;431 -->
<g id="edge17" class="edge">
<title>430&#45;&gt;431</title>
<path fill="none" stroke="black" d="M892,-309.91C892,-301.65 892,-292.86 892,-284.3"/>
<polygon fill="black" stroke="black" points="895.5,-284.02 892,-274.02 888.5,-284.02 895.5,-284.02"/>
</g>
<!-- 678 -->
<g id="node25" class="node">
<title>678</title>
<polygon fill="#a0d0f3" stroke="black" points="1239,-274 1081,-274 1081,-191 1239,-191 1239,-274"/>
<text text-anchor="middle" x="1160" y="-258.8" font-family="Times,serif" font-size="14.00">sdComm &lt;= 2.0</text>
<text text-anchor="middle" x="1160" y="-243.8" font-family="Times,serif" font-size="14.00">gini = 0.451</text>
<text text-anchor="middle" x="1160" y="-228.8" font-family="Times,serif" font-size="14.00">samples = 2818</text>
<text text-anchor="middle" x="1160" y="-213.8" font-family="Times,serif" font-size="14.00">value = [966, 1852]</text>
<text text-anchor="middle" x="1160" y="-198.8" font-family="Times,serif" font-size="14.00">class = True</text>
</g>
<!-- 430&#45;&gt;678 -->
<g id="edge24" class="edge">
<title>430&#45;&gt;678</title>
<path fill="none" stroke="black" d="M975.69,-313.96C1006.04,-300.72 1040.4,-285.71 1071.17,-272.28"/>
<polygon fill="black" stroke="black" points="1072.83,-275.37 1080.6,-268.16 1070.03,-268.96 1072.83,-275.37"/>
</g>
<!-- 432 -->
<g id="node19" class="node">
<title>432</title>
<polygon fill="#63b2eb" stroke="black" points="883,-155 725,-155 725,-72 883,-72 883,-155"/>
<text text-anchor="middle" x="804" y="-139.8" font-family="Times,serif" font-size="14.00">graphSize &lt;= 22.5</text>
<text text-anchor="middle" x="804" y="-124.8" font-family="Times,serif" font-size="14.00">gini = 0.29</text>
<text text-anchor="middle" x="804" y="-109.8" font-family="Times,serif" font-size="14.00">samples = 4285</text>
<text text-anchor="middle" x="804" y="-94.8" font-family="Times,serif" font-size="14.00">value = [753, 3532]</text>
<text text-anchor="middle" x="804" y="-79.8" font-family="Times,serif" font-size="14.00">class = True</text>
</g>
<!-- 431&#45;&gt;432 -->
<g id="edge18" class="edge">
<title>431&#45;&gt;432</title>
<path fill="none" stroke="black" d="M861.47,-190.91C854.71,-181.92 847.48,-172.32 840.52,-163.05"/>
<polygon fill="black" stroke="black" points="843.29,-160.91 834.48,-155.02 837.69,-165.12 843.29,-160.91"/>
</g>
<!-- 547 -->
<g id="node22" class="node">
<title>547</title>
<polygon fill="#8ac5f0" stroke="black" points="1067.5,-155 900.5,-155 900.5,-72 1067.5,-72 1067.5,-155"/>
<text text-anchor="middle" x="984" y="-139.8" font-family="Times,serif" font-size="14.00">CCR &lt;= 5.5</text>
<text text-anchor="middle" x="984" y="-124.8" font-family="Times,serif" font-size="14.00">gini = 0.413</text>
<text text-anchor="middle" x="984" y="-109.8" font-family="Times,serif" font-size="14.00">samples = 4859</text>
<text text-anchor="middle" x="984" y="-94.8" font-family="Times,serif" font-size="14.00">value = [1414, 3445]</text>
<text text-anchor="middle" x="984" y="-79.8" font-family="Times,serif" font-size="14.00">class = True</text>
</g>
<!-- 431&#45;&gt;547 -->
<g id="edge21" class="edge">
<title>431&#45;&gt;547</title>
<path fill="none" stroke="black" d="M923.92,-190.91C930.98,-181.92 938.54,-172.32 945.82,-163.05"/>
<polygon fill="black" stroke="black" points="948.71,-165.05 952.14,-155.02 943.2,-160.72 948.71,-165.05"/>
</g>
<!-- 433 -->
<g id="node20" class="node">
<title>433</title>
<polygon fill="#c0c0c0" stroke="black" points="777,-36 723,-36 723,0 777,0 777,-36"/>
<text text-anchor="middle" x="750" y="-14.3" font-family="Times,serif" font-size="14.00">(...)</text>
</g>
<!-- 432&#45;&gt;433 -->
<g id="edge19" class="edge">
<title>432&#45;&gt;433</title>
<path fill="none" stroke="black" d="M780.47,-71.76C775.27,-62.75 769.89,-53.44 765.13,-45.19"/>
<polygon fill="black" stroke="black" points="768.08,-43.31 760.05,-36.41 762.02,-46.82 768.08,-43.31"/>
</g>
<!-- 464 -->
<g id="node21" class="node">
<title>464</title>
<polygon fill="#c0c0c0" stroke="black" points="849,-36 795,-36 795,0 849,0 849,-36"/>
<text text-anchor="middle" x="822" y="-14.3" font-family="Times,serif" font-size="14.00">(...)</text>
</g>
<!-- 432&#45;&gt;464 -->
<g id="edge20" class="edge">
<title>432&#45;&gt;464</title>
<path fill="none" stroke="black" d="M811.84,-71.76C813.5,-63.14 815.22,-54.24 816.75,-46.26"/>
<polygon fill="black" stroke="black" points="820.2,-46.89 818.65,-36.41 813.32,-45.56 820.2,-46.89"/>
</g>
<!-- 548 -->
<g id="node23" class="node">
<title>548</title>
<polygon fill="#c0c0c0" stroke="black" points="955,-36 901,-36 901,0 955,0 955,-36"/>
<text text-anchor="middle" x="928" y="-14.3" font-family="Times,serif" font-size="14.00">(...)</text>
</g>
<!-- 547&#45;&gt;548 -->
<g id="edge22" class="edge">
<title>547&#45;&gt;548</title>
<path fill="none" stroke="black" d="M959.6,-71.76C954.2,-62.75 948.63,-53.44 943.69,-45.19"/>
<polygon fill="black" stroke="black" points="946.57,-43.19 938.42,-36.41 940.56,-46.78 946.57,-43.19"/>
</g>
<!-- 591 -->
<g id="node24" class="node">
<title>591</title>
<polygon fill="#c0c0c0" stroke="black" points="1027,-36 973,-36 973,0 1027,0 1027,-36"/>
<text text-anchor="middle" x="1000" y="-14.3" font-family="Times,serif" font-size="14.00">(...)</text>
</g>
<!-- 547&#45;&gt;591 -->
<g id="edge23" class="edge">
<title>547&#45;&gt;591</title>
<path fill="none" stroke="black" d="M990.97,-71.76C992.43,-63.24 993.94,-54.44 995.29,-46.53"/>
<polygon fill="black" stroke="black" points="998.78,-46.85 997.02,-36.41 991.88,-45.67 998.78,-46.85"/>
</g>
<!-- 679 -->
<g id="node26" class="node">
<title>679</title>
<polygon fill="#baddf6" stroke="black" points="1234.5,-155 1085.5,-155 1085.5,-72 1234.5,-72 1234.5,-155"/>
<text text-anchor="middle" x="1160" y="-139.8" font-family="Times,serif" font-size="14.00">nbproc &lt;= 4.5</text>
<text text-anchor="middle" x="1160" y="-124.8" font-family="Times,serif" font-size="14.00">gini = 0.477</text>
<text text-anchor="middle" x="1160" y="-109.8" font-family="Times,serif" font-size="14.00">samples = 1082</text>
<text text-anchor="middle" x="1160" y="-94.8" font-family="Times,serif" font-size="14.00">value = [426, 656]</text>
<text text-anchor="middle" x="1160" y="-79.8" font-family="Times,serif" font-size="14.00">class = True</text>
</g>
<!-- 678&#45;&gt;679 -->
<g id="edge25" class="edge">
<title>678&#45;&gt;679</title>
<path fill="none" stroke="black" d="M1160,-190.91C1160,-182.65 1160,-173.86 1160,-165.3"/>
<polygon fill="black" stroke="black" points="1163.5,-165.02 1160,-155.02 1156.5,-165.02 1163.5,-165.02"/>
</g>
<!-- 704 -->
<g id="node29" class="node">
<title>704</title>
<polygon fill="#92c9f1" stroke="black" points="1410,-155 1252,-155 1252,-72 1410,-72 1410,-155"/>
<text text-anchor="middle" x="1331" y="-139.8" font-family="Times,serif" font-size="14.00">graphSize &lt;= 22.5</text>
<text text-anchor="middle" x="1331" y="-124.8" font-family="Times,serif" font-size="14.00">gini = 0.429</text>
<text text-anchor="middle" x="1331" y="-109.8" font-family="Times,serif" font-size="14.00">samples = 1736</text>
<text text-anchor="middle" x="1331" y="-94.8" font-family="Times,serif" font-size="14.00">value = [540, 1196]</text>
<text text-anchor="middle" x="1331" y="-79.8" font-family="Times,serif" font-size="14.00">class = True</text>
</g>
<!-- 678&#45;&gt;704 -->
<g id="edge28" class="edge">
<title>678&#45;&gt;704</title>
<path fill="none" stroke="black" d="M1219.33,-190.91C1233.52,-181.2 1248.78,-170.76 1263.31,-160.81"/>
<polygon fill="black" stroke="black" points="1265.5,-163.56 1271.78,-155.02 1261.55,-157.78 1265.5,-163.56"/>
</g>
<!-- 680 -->
<g id="node27" class="node">
<title>680</title>
<polygon fill="#c0c0c0" stroke="black" points="1146,-36 1092,-36 1092,0 1146,0 1146,-36"/>
<text text-anchor="middle" x="1119" y="-14.3" font-family="Times,serif" font-size="14.00">(...)</text>
</g>
<!-- 679&#45;&gt;680 -->
<g id="edge26" class="edge">
<title>679&#45;&gt;680</title>
<path fill="none" stroke="black" d="M1142.14,-71.76C1138.27,-62.94 1134.28,-53.84 1130.72,-45.72"/>
<polygon fill="black" stroke="black" points="1133.85,-44.16 1126.63,-36.41 1127.44,-46.97 1133.85,-44.16"/>
</g>
<!-- 693 -->
<g id="node28" class="node">
<title>693</title>
<polygon fill="#c0c0c0" stroke="black" points="1218,-36 1164,-36 1164,0 1218,0 1218,-36"/>
<text text-anchor="middle" x="1191" y="-14.3" font-family="Times,serif" font-size="14.00">(...)</text>
</g>
<!-- 679&#45;&gt;693 -->
<g id="edge27" class="edge">
<title>679&#45;&gt;693</title>
<path fill="none" stroke="black" d="M1173.51,-71.76C1176.4,-63.04 1179.38,-54.04 1182.05,-45.99"/>
<polygon fill="black" stroke="black" points="1185.4,-47 1185.23,-36.41 1178.76,-44.8 1185.4,-47"/>
</g>
<!-- 705 -->
<g id="node30" class="node">
<title>705</title>
<polygon fill="#c0c0c0" stroke="black" points="1322,-36 1268,-36 1268,0 1322,0 1322,-36"/>
<text text-anchor="middle" x="1295" y="-14.3" font-family="Times,serif" font-size="14.00">(...)</text>
</g>
<!-- 704&#45;&gt;705 -->
<g id="edge29" class="edge">
<title>704&#45;&gt;705</title>
<path fill="none" stroke="black" d="M1315.31,-71.76C1311.96,-63.04 1308.49,-54.04 1305.39,-45.99"/>
<polygon fill="black" stroke="black" points="1308.56,-44.48 1301.7,-36.41 1302.03,-46.99 1308.56,-44.48"/>
</g>
<!-- 718 -->
<g id="node31" class="node">
<title>718</title>
<polygon fill="#c0c0c0" stroke="black" points="1394,-36 1340,-36 1340,0 1394,0 1394,-36"/>
<text text-anchor="middle" x="1367" y="-14.3" font-family="Times,serif" font-size="14.00">(...)</text>
</g>
<!-- 704&#45;&gt;718 -->
<g id="edge30" class="edge">
<title>704&#45;&gt;718</title>
<path fill="none" stroke="black" d="M1346.69,-71.76C1350.04,-63.04 1353.51,-54.04 1356.61,-45.99"/>
<polygon fill="black" stroke="black" points="1359.97,-46.99 1360.3,-36.41 1353.44,-44.48 1359.97,-46.99"/>
</g>
</g>
</svg>
