<?xml version="1.0" encoding="UTF-8" standalone="no"?>
<!DOCTYPE svg PUBLIC "-//W3C//DTD SVG 1.1//EN"
 "http://www.w3.org/Graphics/SVG/1.1/DTD/svg11.dtd">
<!-- Generated by graphviz version 2.43.0 (0)
 -->
<!-- Title: Tree Pages: 1 -->
<svg width="1667pt" height="520pt"
 viewBox="0.00 0.00 1666.50 520.00" xmlns="http://www.w3.org/2000/svg" xmlns:xlink="http://www.w3.org/1999/xlink">
<g id="graph0" class="graph" transform="scale(1 1) rotate(0) translate(4 516)">
<title>Tree</title>
<polygon fill="white" stroke="transparent" points="-4,4 -4,-516 1662.5,-516 1662.5,4 -4,4"/>
<!-- 0 -->
<g id="node1" class="node">
<title>0</title>
<polygon fill="#f3ecfd" stroke="black" points="952.5,-512 731.5,-512 731.5,-429 952.5,-429 952.5,-512"/>
<text text-anchor="middle" x="842" y="-496.8" font-family="Times,serif" font-size="14.00">CCR &lt;= 5.5</text>
<text text-anchor="middle" x="842" y="-481.8" font-family="Times,serif" font-size="14.00">gini = 0.64</text>
<text text-anchor="middle" x="842" y="-466.8" font-family="Times,serif" font-size="14.00">samples = 25925</text>
<text text-anchor="middle" x="842" y="-451.8" font-family="Times,serif" font-size="14.00">value = [5332, 9515, 11078]</text>
<text text-anchor="middle" x="842" y="-436.8" font-family="Times,serif" font-size="14.00">class = None</text>
</g>
<!-- 1 -->
<g id="node2" class="node">
<title>1</title>
<polygon fill="#b9f6d3" stroke="black" points="743,-393 531,-393 531,-310 743,-310 743,-393"/>
<text text-anchor="middle" x="637" y="-377.8" font-family="Times,serif" font-size="14.00">graphSize &lt;= 22.5</text>
<text text-anchor="middle" x="637" y="-362.8" font-family="Times,serif" font-size="14.00">gini = 0.591</text>
<text text-anchor="middle" x="637" y="-347.8" font-family="Times,serif" font-size="14.00">samples = 15929</text>
<text text-anchor="middle" x="637" y="-332.8" font-family="Times,serif" font-size="14.00">value = [4706, 8655, 2568]</text>
<text text-anchor="middle" x="637" y="-317.8" font-family="Times,serif" font-size="14.00">class = DCP</text>
</g>
<!-- 0&#45;&gt;1 -->
<g id="edge1" class="edge">
<title>0&#45;&gt;1</title>
<path fill="none" stroke="black" d="M770.88,-428.91C753.54,-419.02 734.89,-408.37 717.17,-398.25"/>
<polygon fill="black" stroke="black" points="718.42,-394.94 708,-393.02 714.95,-401.02 718.42,-394.94"/>
<text text-anchor="middle" x="714.59" y="-413.44" font-family="Times,serif" font-size="14.00">True</text>
</g>
<!-- 536 -->
<g id="node17" class="node">
<title>536</title>
<polygon fill="#9559e9" stroke="black" points="1156,-393 962,-393 962,-310 1156,-310 1156,-393"/>
<text text-anchor="middle" x="1059" y="-377.8" font-family="Times,serif" font-size="14.00">sdComp &lt;= 6.5</text>
<text text-anchor="middle" x="1059" y="-362.8" font-family="Times,serif" font-size="14.00">gini = 0.264</text>
<text text-anchor="middle" x="1059" y="-347.8" font-family="Times,serif" font-size="14.00">samples = 9996</text>
<text text-anchor="middle" x="1059" y="-332.8" font-family="Times,serif" font-size="14.00">value = [626, 860, 8510]</text>
<text text-anchor="middle" x="1059" y="-317.8" font-family="Times,serif" font-size="14.00">class = None</text>
</g>
<!-- 0&#45;&gt;536 -->
<g id="edge16" class="edge">
<title>0&#45;&gt;536</title>
<path fill="none" stroke="black" d="M917.29,-428.91C935.89,-418.88 955.93,-408.07 974.91,-397.84"/>
<polygon fill="black" stroke="black" points="976.7,-400.85 983.85,-393.02 973.38,-394.69 976.7,-400.85"/>
<text text-anchor="middle" x="976.68" y="-413.27" font-family="Times,serif" font-size="14.00">False</text>
</g>
<!-- 2 -->
<g id="node3" class="node">
<title>2</title>
<polygon fill="#cbf8de" stroke="black" points="424,-274 212,-274 212,-191 424,-191 424,-274"/>
<text text-anchor="middle" x="318" y="-258.8" font-family="Times,serif" font-size="14.00">sdComm &lt;= 0.02</text>
<text text-anchor="middle" x="318" y="-243.8" font-family="Times,serif" font-size="14.00">gini = 0.597</text>
<text text-anchor="middle" x="318" y="-228.8" font-family="Times,serif" font-size="14.00">samples = 10876</text>
<text text-anchor="middle" x="318" y="-213.8" font-family="Times,serif" font-size="14.00">value = [3722, 5608, 1546]</text>
<text text-anchor="middle" x="318" y="-198.8" font-family="Times,serif" font-size="14.00">class = DCP</text>
</g>
<!-- 1&#45;&gt;2 -->
<g id="edge2" class="edge">
<title>1&#45;&gt;2</title>
<path fill="none" stroke="black" d="M530.78,-311.54C499.65,-300.12 465.47,-287.59 433.78,-275.96"/>
<polygon fill="black" stroke="black" points="434.62,-272.55 424.03,-272.39 432.21,-279.12 434.62,-272.55"/>
</g>
<!-- 143 -->
<g id="node10" class="node">
<title>143</title>
<polygon fill="#9cf2c0" stroke="black" points="738.5,-274 535.5,-274 535.5,-191 738.5,-191 738.5,-274"/>
<text text-anchor="middle" x="637" y="-258.8" font-family="Times,serif" font-size="14.00">sdComm &lt;= 0.65</text>
<text text-anchor="middle" x="637" y="-243.8" font-family="Times,serif" font-size="14.00">gini = 0.558</text>
<text text-anchor="middle" x="637" y="-228.8" font-family="Times,serif" font-size="14.00">samples = 5053</text>
<text text-anchor="middle" x="637" y="-213.8" font-family="Times,serif" font-size="14.00">value = [984, 3047, 1022]</text>
<text text-anchor="middle" x="637" y="-198.8" font-family="Times,serif" font-size="14.00">class = DCP</text>
</g>
<!-- 1&#45;&gt;143 -->
<g id="edge9" class="edge">
<title>1&#45;&gt;143</title>
<path fill="none" stroke="black" d="M637,-309.91C637,-301.65 637,-292.86 637,-284.3"/>
<polygon fill="black" stroke="black" points="640.5,-284.02 637,-274.02 633.5,-284.02 640.5,-284.02"/>
</g>
<!-- 3 -->
<g id="node4" class="node">
<title>3</title>
<polygon fill="#fdf4ee" stroke="black" points="194,-155 0,-155 0,-72 194,-72 194,-155"/>
<text text-anchor="middle" x="97" y="-139.8" font-family="Times,serif" font-size="14.00">sdComp &lt;= 0.02</text>
<text text-anchor="middle" x="97" y="-124.8" font-family="Times,serif" font-size="14.00">gini = 0.593</text>
<text text-anchor="middle" x="97" y="-109.8" font-family="Times,serif" font-size="14.00">samples = 2196</text>
<text text-anchor="middle" x="97" y="-94.8" font-family="Times,serif" font-size="14.00">value = [1028, 920, 248]</text>
<text text-anchor="middle" x="97" y="-79.8" font-family="Times,serif" font-size="14.00">class = DLS/DC</text>
</g>
<!-- 2&#45;&gt;3 -->
<g id="edge3" class="edge">
<title>2&#45;&gt;3</title>
<path fill="none" stroke="black" d="M241.33,-190.91C222.38,-180.88 201.97,-170.07 182.64,-159.84"/>
<polygon fill="black" stroke="black" points="184.01,-156.61 173.54,-155.02 180.74,-162.79 184.01,-156.61"/>
</g>
<!-- 26 -->
<g id="node7" class="node">
<title>26</title>
<polygon fill="#bdf6d5" stroke="black" points="424,-155 212,-155 212,-72 424,-72 424,-155"/>
<text text-anchor="middle" x="318" y="-139.8" font-family="Times,serif" font-size="14.00">graphDepth &lt;= 3.5</text>
<text text-anchor="middle" x="318" y="-124.8" font-family="Times,serif" font-size="14.00">gini = 0.59</text>
<text text-anchor="middle" x="318" y="-109.8" font-family="Times,serif" font-size="14.00">samples = 8680</text>
<text text-anchor="middle" x="318" y="-94.8" font-family="Times,serif" font-size="14.00">value = [2694, 4688, 1298]</text>
<text text-anchor="middle" x="318" y="-79.8" font-family="Times,serif" font-size="14.00">class = DCP</text>
</g>
<!-- 2&#45;&gt;26 -->
<g id="edge6" class="edge">
<title>2&#45;&gt;26</title>
<path fill="none" stroke="black" d="M318,-190.91C318,-182.65 318,-173.86 318,-165.3"/>
<polygon fill="black" stroke="black" points="321.5,-165.02 318,-155.02 314.5,-165.02 321.5,-165.02"/>
</g>
<!-- 4 -->
<g id="node5" class="node">
<title>4</title>
<polygon fill="#c0c0c0" stroke="black" points="88,-36 34,-36 34,0 88,0 88,-36"/>
<text text-anchor="middle" x="61" y="-14.3" font-family="Times,serif" font-size="14.00">(...)</text>
</g>
<!-- 3&#45;&gt;4 -->
<g id="edge4" class="edge">
<title>3&#45;&gt;4</title>
<path fill="none" stroke="black" d="M81.31,-71.76C77.96,-63.04 74.49,-54.04 71.39,-45.99"/>
<polygon fill="black" stroke="black" points="74.56,-44.48 67.7,-36.41 68.03,-46.99 74.56,-44.48"/>
</g>
<!-- 11 -->
<g id="node6" class="node">
<title>11</title>
<polygon fill="#c0c0c0" stroke="black" points="160,-36 106,-36 106,0 160,0 160,-36"/>
<text text-anchor="middle" x="133" y="-14.3" font-family="Times,serif" font-size="14.00">(...)</text>
</g>
<!-- 3&#45;&gt;11 -->
<g id="edge5" class="edge">
<title>3&#45;&gt;11</title>
<path fill="none" stroke="black" d="M112.69,-71.76C116.04,-63.04 119.51,-54.04 122.61,-45.99"/>
<polygon fill="black" stroke="black" points="125.97,-46.99 126.3,-36.41 119.44,-44.48 125.97,-46.99"/>
</g>
<!-- 27 -->
<g id="node8" class="node">
<title>27</title>
<polygon fill="#c0c0c0" stroke="black" points="309,-36 255,-36 255,0 309,0 309,-36"/>
<text text-anchor="middle" x="282" y="-14.3" font-family="Times,serif" font-size="14.00">(...)</text>
</g>
<!-- 26&#45;&gt;27 -->
<g id="edge7" class="edge">
<title>26&#45;&gt;27</title>
<path fill="none" stroke="black" d="M302.31,-71.76C298.96,-63.04 295.49,-54.04 292.39,-45.99"/>
<polygon fill="black" stroke="black" points="295.56,-44.48 288.7,-36.41 289.03,-46.99 295.56,-44.48"/>
</g>
<!-- 84 -->
<g id="node9" class="node">
<title>84</title>
<polygon fill="#c0c0c0" stroke="black" points="381,-36 327,-36 327,0 381,0 381,-36"/>
<text text-anchor="middle" x="354" y="-14.3" font-family="Times,serif" font-size="14.00">(...)</text>
</g>
<!-- 26&#45;&gt;84 -->
<g id="edge8" class="edge">
<title>26&#45;&gt;84</title>
<path fill="none" stroke="black" d="M333.69,-71.76C337.04,-63.04 340.51,-54.04 343.61,-45.99"/>
<polygon fill="black" stroke="black" points="346.97,-46.99 347.3,-36.41 340.44,-44.48 346.97,-46.99"/>
</g>
<!-- 144 -->
<g id="node11" class="node">
<title>144</title>
<polygon fill="#95f1bb" stroke="black" points="636,-155 442,-155 442,-72 636,-72 636,-155"/>
<text text-anchor="middle" x="539" y="-139.8" font-family="Times,serif" font-size="14.00">sdComp &lt;= 0.2</text>
<text text-anchor="middle" x="539" y="-124.8" font-family="Times,serif" font-size="14.00">gini = 0.537</text>
<text text-anchor="middle" x="539" y="-109.8" font-family="Times,serif" font-size="14.00">samples = 4306</text>
<text text-anchor="middle" x="539" y="-94.8" font-family="Times,serif" font-size="14.00">value = [772, 2700, 834]</text>
<text text-anchor="middle" x="539" y="-79.8" font-family="Times,serif" font-size="14.00">class = DCP</text>
</g>
<!-- 143&#45;&gt;144 -->
<g id="edge10" class="edge">
<title>143&#45;&gt;144</title>
<path fill="none" stroke="black" d="M603,-190.91C595.4,-181.83 587.26,-172.12 579.43,-162.77"/>
<polygon fill="black" stroke="black" points="582.04,-160.44 572.94,-155.02 576.68,-164.93 582.04,-160.44"/>
</g>
<!-- 467 -->
<g id="node14" class="node">
<title>467</title>
<polygon fill="#cdf8df" stroke="black" points="838.5,-155 653.5,-155 653.5,-72 838.5,-72 838.5,-155"/>
<text text-anchor="middle" x="746" y="-139.8" font-family="Times,serif" font-size="14.00">sdComp &lt;= 0.2</text>
<text text-anchor="middle" x="746" y="-124.8" font-family="Times,serif" font-size="14.00">gini = 0.64</text>
<text text-anchor="middle" x="746" y="-109.8" font-family="Times,serif" font-size="14.00">samples = 747</text>
<text text-anchor="middle" x="746" y="-94.8" font-family="Times,serif" font-size="14.00">value = [212, 347, 188]</text>
<text text-anchor="middle" x="746" y="-79.8" font-family="Times,serif" font-size="14.00">class = DCP</text>
</g>
<!-- 143&#45;&gt;467 -->
<g id="edge13" class="edge">
<title>143&#45;&gt;467</title>
<path fill="none" stroke="black" d="M674.82,-190.91C683.36,-181.74 692.5,-171.93 701.29,-162.49"/>
<polygon fill="black" stroke="black" points="703.99,-164.72 708.25,-155.02 698.87,-159.95 703.99,-164.72"/>
</g>
<!-- 145 -->
<g id="node12" class="node">
<title>145</title>
<polygon fill="#c0c0c0" stroke="black" points="525,-36 471,-36 471,0 525,0 525,-36"/>
<text text-anchor="middle" x="498" y="-14.3" font-family="Times,serif" font-size="14.00">(...)</text>
</g>
<!-- 144&#45;&gt;145 -->
<g id="edge11" class="edge">
<title>144&#45;&gt;145</title>
<path fill="none" stroke="black" d="M521.14,-71.76C517.27,-62.94 513.28,-53.84 509.72,-45.72"/>
<polygon fill="black" stroke="black" points="512.85,-44.16 505.63,-36.41 506.44,-46.97 512.85,-44.16"/>
</g>
<!-- 384 -->
<g id="node13" class="node">
<title>384</title>
<polygon fill="#c0c0c0" stroke="black" points="597,-36 543,-36 543,0 597,0 597,-36"/>
<text text-anchor="middle" x="570" y="-14.3" font-family="Times,serif" font-size="14.00">(...)</text>
</g>
<!-- 144&#45;&gt;384 -->
<g id="edge12" class="edge">
<title>144&#45;&gt;384</title>
<path fill="none" stroke="black" d="M552.51,-71.76C555.4,-63.04 558.38,-54.04 561.05,-45.99"/>
<polygon fill="black" stroke="black" points="564.4,-47 564.23,-36.41 557.76,-44.8 564.4,-47"/>
</g>
<!-- 468 -->
<g id="node15" class="node">
<title>468</title>
<polygon fill="#c0c0c0" stroke="black" points="732,-36 678,-36 678,0 732,0 732,-36"/>
<text text-anchor="middle" x="705" y="-14.3" font-family="Times,serif" font-size="14.00">(...)</text>
</g>
<!-- 467&#45;&gt;468 -->
<g id="edge14" class="edge">
<title>467&#45;&gt;468</title>
<path fill="none" stroke="black" d="M728.14,-71.76C724.27,-62.94 720.28,-53.84 716.72,-45.72"/>
<polygon fill="black" stroke="black" points="719.85,-44.16 712.63,-36.41 713.44,-46.97 719.85,-44.16"/>
</g>
<!-- 491 -->
<g id="node16" class="node">
<title>491</title>
<polygon fill="#c0c0c0" stroke="black" points="804,-36 750,-36 750,0 804,0 804,-36"/>
<text text-anchor="middle" x="777" y="-14.3" font-family="Times,serif" font-size="14.00">(...)</text>
</g>
<!-- 467&#45;&gt;491 -->
<g id="edge15" class="edge">
<title>467&#45;&gt;491</title>
<path fill="none" stroke="black" d="M759.51,-71.76C762.4,-63.04 765.38,-54.04 768.05,-45.99"/>
<polygon fill="black" stroke="black" points="771.4,-47 771.23,-36.41 764.76,-44.8 771.4,-47"/>
</g>
<!-- 537 -->
<g id="node18" class="node">
<title>537</title>
<polygon fill="#9152e8" stroke="black" points="1156,-274 962,-274 962,-191 1156,-191 1156,-274"/>
<text text-anchor="middle" x="1059" y="-258.8" font-family="Times,serif" font-size="14.00">sdComm &lt;= 2.0</text>
<text text-anchor="middle" x="1059" y="-243.8" font-family="Times,serif" font-size="14.00">gini = 0.214</text>
<text text-anchor="middle" x="1059" y="-228.8" font-family="Times,serif" font-size="14.00">samples = 7178</text>
<text text-anchor="middle" x="1059" y="-213.8" font-family="Times,serif" font-size="14.00">value = [270, 576, 6332]</text>
<text text-anchor="middle" x="1059" y="-198.8" font-family="Times,serif" font-size="14.00">class = None</text>
</g>
<!-- 536&#45;&gt;537 -->
<g id="edge17" class="edge">
<title>536&#45;&gt;537</title>
<path fill="none" stroke="black" d="M1059,-309.91C1059,-301.65 1059,-292.86 1059,-284.3"/>
<polygon fill="black" stroke="black" points="1062.5,-284.02 1059,-274.02 1055.5,-284.02 1062.5,-284.02"/>
</g>
<!-- 672 -->
<g id="node25" class="node">
<title>672</title>
<polygon fill="#a26cec" stroke="black" points="1474,-274 1280,-274 1280,-191 1474,-191 1474,-274"/>
<text text-anchor="middle" x="1377" y="-258.8" font-family="Times,serif" font-size="14.00">nbproc &lt;= 4.5</text>
<text text-anchor="middle" x="1377" y="-243.8" font-family="Times,serif" font-size="14.00">gini = 0.377</text>
<text text-anchor="middle" x="1377" y="-228.8" font-family="Times,serif" font-size="14.00">samples = 2818</text>
<text text-anchor="middle" x="1377" y="-213.8" font-family="Times,serif" font-size="14.00">value = [356, 284, 2178]</text>
<text text-anchor="middle" x="1377" y="-198.8" font-family="Times,serif" font-size="14.00">class = None</text>
</g>
<!-- 536&#45;&gt;672 -->
<g id="edge24" class="edge">
<title>536&#45;&gt;672</title>
<path fill="none" stroke="black" d="M1156.14,-314.76C1192.19,-301.5 1233.26,-286.38 1270.13,-272.82"/>
<polygon fill="black" stroke="black" points="1271.73,-275.96 1279.91,-269.22 1269.32,-269.39 1271.73,-275.96"/>
</g>
<!-- 538 -->
<g id="node19" class="node">
<title>538</title>
<polygon fill="#9a61ea" stroke="black" points="1050,-155 856,-155 856,-72 1050,-72 1050,-155"/>
<text text-anchor="middle" x="953" y="-139.8" font-family="Times,serif" font-size="14.00">graphDepth &lt;= 9.0</text>
<text text-anchor="middle" x="953" y="-124.8" font-family="Times,serif" font-size="14.00">gini = 0.302</text>
<text text-anchor="middle" x="953" y="-109.8" font-family="Times,serif" font-size="14.00">samples = 2236</text>
<text text-anchor="middle" x="953" y="-94.8" font-family="Times,serif" font-size="14.00">value = [112, 280, 1844]</text>
<text text-anchor="middle" x="953" y="-79.8" font-family="Times,serif" font-size="14.00">class = None</text>
</g>
<!-- 537&#45;&gt;538 -->
<g id="edge18" class="edge">
<title>537&#45;&gt;538</title>
<path fill="none" stroke="black" d="M1022.22,-190.91C1013.92,-181.74 1005.03,-171.93 996.48,-162.49"/>
<polygon fill="black" stroke="black" points="999.02,-160.08 989.71,-155.02 993.83,-164.78 999.02,-160.08"/>
</g>
<!-- 581 -->
<g id="node22" class="node">
<title>581</title>
<polygon fill="#8d4ce8" stroke="black" points="1262,-155 1068,-155 1068,-72 1262,-72 1262,-155"/>
<text text-anchor="middle" x="1165" y="-139.8" font-family="Times,serif" font-size="14.00">sdComp &lt;= 2.0</text>
<text text-anchor="middle" x="1165" y="-124.8" font-family="Times,serif" font-size="14.00">gini = 0.171</text>
<text text-anchor="middle" x="1165" y="-109.8" font-family="Times,serif" font-size="14.00">samples = 4942</text>
<text text-anchor="middle" x="1165" y="-94.8" font-family="Times,serif" font-size="14.00">value = [158, 296, 4488]</text>
<text text-anchor="middle" x="1165" y="-79.8" font-family="Times,serif" font-size="14.00">class = None</text>
</g>
<!-- 537&#45;&gt;581 -->
<g id="edge21" class="edge">
<title>537&#45;&gt;581</title>
<path fill="none" stroke="black" d="M1095.78,-190.91C1104.08,-181.74 1112.97,-171.93 1121.52,-162.49"/>
<polygon fill="black" stroke="black" points="1124.17,-164.78 1128.29,-155.02 1118.98,-160.08 1124.17,-164.78"/>
</g>
<!-- 539 -->
<g id="node20" class="node">
<title>539</title>
<polygon fill="#c0c0c0" stroke="black" points="942,-36 888,-36 888,0 942,0 942,-36"/>
<text text-anchor="middle" x="915" y="-14.3" font-family="Times,serif" font-size="14.00">(...)</text>
</g>
<!-- 538&#45;&gt;539 -->
<g id="edge19" class="edge">
<title>538&#45;&gt;539</title>
<path fill="none" stroke="black" d="M936.44,-71.76C932.86,-62.94 929.16,-53.84 925.86,-45.72"/>
<polygon fill="black" stroke="black" points="929.08,-44.35 922.07,-36.41 922.6,-46.99 929.08,-44.35"/>
</g>
<!-- 556 -->
<g id="node21" class="node">
<title>556</title>
<polygon fill="#c0c0c0" stroke="black" points="1014,-36 960,-36 960,0 1014,0 1014,-36"/>
<text text-anchor="middle" x="987" y="-14.3" font-family="Times,serif" font-size="14.00">(...)</text>
</g>
<!-- 538&#45;&gt;556 -->
<g id="edge20" class="edge">
<title>538&#45;&gt;556</title>
<path fill="none" stroke="black" d="M967.81,-71.76C970.98,-63.04 974.26,-54.04 977.18,-45.99"/>
<polygon fill="black" stroke="black" points="980.54,-47 980.67,-36.41 973.96,-44.61 980.54,-47"/>
</g>
<!-- 582 -->
<g id="node23" class="node">
<title>582</title>
<polygon fill="#c0c0c0" stroke="black" points="1154,-36 1100,-36 1100,0 1154,0 1154,-36"/>
<text text-anchor="middle" x="1127" y="-14.3" font-family="Times,serif" font-size="14.00">(...)</text>
</g>
<!-- 581&#45;&gt;582 -->
<g id="edge22" class="edge">
<title>581&#45;&gt;582</title>
<path fill="none" stroke="black" d="M1148.44,-71.76C1144.86,-62.94 1141.16,-53.84 1137.86,-45.72"/>
<polygon fill="black" stroke="black" points="1141.08,-44.35 1134.07,-36.41 1134.6,-46.99 1141.08,-44.35"/>
</g>
<!-- 633 -->
<g id="node24" class="node">
<title>633</title>
<polygon fill="#c0c0c0" stroke="black" points="1226,-36 1172,-36 1172,0 1226,0 1226,-36"/>
<text text-anchor="middle" x="1199" y="-14.3" font-family="Times,serif" font-size="14.00">(...)</text>
</g>
<!-- 581&#45;&gt;633 -->
<g id="edge23" class="edge">
<title>581&#45;&gt;633</title>
<path fill="none" stroke="black" d="M1179.81,-71.76C1182.98,-63.04 1186.26,-54.04 1189.18,-45.99"/>
<polygon fill="black" stroke="black" points="1192.54,-47 1192.67,-36.41 1185.96,-44.61 1192.54,-47"/>
</g>
<!-- 673 -->
<g id="node26" class="node">
<title>673</title>
<polygon fill="#ae80ee" stroke="black" points="1474,-155 1280,-155 1280,-72 1474,-72 1474,-155"/>
<text text-anchor="middle" x="1377" y="-139.8" font-family="Times,serif" font-size="14.00">graphSize &lt;= 75.0</text>
<text text-anchor="middle" x="1377" y="-124.8" font-family="Times,serif" font-size="14.00">gini = 0.458</text>
<text text-anchor="middle" x="1377" y="-109.8" font-family="Times,serif" font-size="14.00">samples = 1778</text>
<text text-anchor="middle" x="1377" y="-94.8" font-family="Times,serif" font-size="14.00">value = [320, 206, 1252]</text>
<text text-anchor="middle" x="1377" y="-79.8" font-family="Times,serif" font-size="14.00">class = None</text>
</g>
<!-- 672&#45;&gt;673 -->
<g id="edge25" class="edge">
<title>672&#45;&gt;673</title>
<path fill="none" stroke="black" d="M1377,-190.91C1377,-182.65 1377,-173.86 1377,-165.3"/>
<polygon fill="black" stroke="black" points="1380.5,-165.02 1377,-155.02 1373.5,-165.02 1380.5,-165.02"/>
</g>
<!-- 714 -->
<g id="node29" class="node">
<title>714</title>
<polygon fill="#9050e8" stroke="black" points="1658.5,-155 1491.5,-155 1491.5,-72 1658.5,-72 1658.5,-155"/>
<text text-anchor="middle" x="1575" y="-139.8" font-family="Times,serif" font-size="14.00">graphSize &lt;= 40.0</text>
<text text-anchor="middle" x="1575" y="-124.8" font-family="Times,serif" font-size="14.00">gini = 0.2</text>
<text text-anchor="middle" x="1575" y="-109.8" font-family="Times,serif" font-size="14.00">samples = 1040</text>
<text text-anchor="middle" x="1575" y="-94.8" font-family="Times,serif" font-size="14.00">value = [36, 78, 926]</text>
<text text-anchor="middle" x="1575" y="-79.8" font-family="Times,serif" font-size="14.00">class = None</text>
</g>
<!-- 672&#45;&gt;714 -->
<g id="edge28" class="edge">
<title>672&#45;&gt;714</title>
<path fill="none" stroke="black" d="M1445.7,-190.91C1462.44,-181.02 1480.45,-170.37 1497.57,-160.25"/>
<polygon fill="black" stroke="black" points="1499.6,-163.12 1506.43,-155.02 1496.04,-157.09 1499.6,-163.12"/>
</g>
<!-- 674 -->
<g id="node27" class="node">
<title>674</title>
<polygon fill="#c0c0c0" stroke="black" points="1368,-36 1314,-36 1314,0 1368,0 1368,-36"/>
<text text-anchor="middle" x="1341" y="-14.3" font-family="Times,serif" font-size="14.00">(...)</text>
</g>
<!-- 673&#45;&gt;674 -->
<g id="edge26" class="edge">
<title>673&#45;&gt;674</title>
<path fill="none" stroke="black" d="M1361.31,-71.76C1357.96,-63.04 1354.49,-54.04 1351.39,-45.99"/>
<polygon fill="black" stroke="black" points="1354.56,-44.48 1347.7,-36.41 1348.03,-46.99 1354.56,-44.48"/>
</g>
<!-- 705 -->
<g id="node28" class="node">
<title>705</title>
<polygon fill="#c0c0c0" stroke="black" points="1440,-36 1386,-36 1386,0 1440,0 1440,-36"/>
<text text-anchor="middle" x="1413" y="-14.3" font-family="Times,serif" font-size="14.00">(...)</text>
</g>
<!-- 673&#45;&gt;705 -->
<g id="edge27" class="edge">
<title>673&#45;&gt;705</title>
<path fill="none" stroke="black" d="M1392.69,-71.76C1396.04,-63.04 1399.51,-54.04 1402.61,-45.99"/>
<polygon fill="black" stroke="black" points="1405.97,-46.99 1406.3,-36.41 1399.44,-44.48 1405.97,-46.99"/>
</g>
<!-- 715 -->
<g id="node30" class="node">
<title>715</title>
<polygon fill="#c0c0c0" stroke="black" points="1566,-36 1512,-36 1512,0 1566,0 1566,-36"/>
<text text-anchor="middle" x="1539" y="-14.3" font-family="Times,serif" font-size="14.00">(...)</text>
</g>
<!-- 714&#45;&gt;715 -->
<g id="edge29" class="edge">
<title>714&#45;&gt;715</title>
<path fill="none" stroke="black" d="M1559.31,-71.76C1555.96,-63.04 1552.49,-54.04 1549.39,-45.99"/>
<polygon fill="black" stroke="black" points="1552.56,-44.48 1545.7,-36.41 1546.03,-46.99 1552.56,-44.48"/>
</g>
<!-- 736 -->
<g id="node31" class="node">
<title>736</title>
<polygon fill="#c0c0c0" stroke="black" points="1638,-36 1584,-36 1584,0 1638,0 1638,-36"/>
<text text-anchor="middle" x="1611" y="-14.3" font-family="Times,serif" font-size="14.00">(...)</text>
</g>
<!-- 714&#45;&gt;736 -->
<g id="edge30" class="edge">
<title>714&#45;&gt;736</title>
<path fill="none" stroke="black" d="M1590.69,-71.76C1594.04,-63.04 1597.51,-54.04 1600.61,-45.99"/>
<polygon fill="black" stroke="black" points="1603.97,-46.99 1604.3,-36.41 1597.44,-44.48 1603.97,-46.99"/>
</g>
</g>
</svg>
