<?xml version="1.0" encoding="UTF-8" standalone="no"?>
<!DOCTYPE svg PUBLIC "-//W3C//DTD SVG 1.1//EN"
 "http://www.w3.org/Graphics/SVG/1.1/DTD/svg11.dtd">
<!-- Generated by graphviz version 2.43.0 (0)
 -->
<!-- Title: Tree Pages: 1 -->
<svg width="2452pt" height="520pt"
 viewBox="0.00 0.00 2452.00 520.00" xmlns="http://www.w3.org/2000/svg" xmlns:xlink="http://www.w3.org/1999/xlink">
<g id="graph0" class="graph" transform="scale(1 1) rotate(0) translate(4 516)">
<title>Tree</title>
<polygon fill="white" stroke="transparent" points="-4,4 -4,-516 2448,-516 2448,4 -4,4"/>
<!-- 0 -->
<g id="node1" class="node">
<title>0</title>
<polygon fill="#ffffff" stroke="black" points="1381,-512 1034,-512 1034,-429 1381,-429 1381,-512"/>
<text text-anchor="middle" x="1207.5" y="-496.8" font-family="Times,serif" font-size="14.00">sdComp &lt;= 0.2</text>
<text text-anchor="middle" x="1207.5" y="-481.8" font-family="Times,serif" font-size="14.00">gini = 0.833</text>
<text text-anchor="middle" x="1207.5" y="-466.8" font-family="Times,serif" font-size="14.00">samples = 28293</text>
<text text-anchor="middle" x="1207.5" y="-451.8" font-family="Times,serif" font-size="14.00">value = [4547, 4720, 4798, 4715, 4715, 4798]</text>
<text text-anchor="middle" x="1207.5" y="-436.8" font-family="Times,serif" font-size="14.00">class = maxmax</text>
</g>
<!-- 1 -->
<g id="node2" class="node">
<title>1</title>
<polygon fill="#ffffff" stroke="black" points="1057,-393 710,-393 710,-310 1057,-310 1057,-393"/>
<text text-anchor="middle" x="883.5" y="-377.8" font-family="Times,serif" font-size="14.00">graphDepth &lt;= 3.5</text>
<text text-anchor="middle" x="883.5" y="-362.8" font-family="Times,serif" font-size="14.00">gini = 0.833</text>
<text text-anchor="middle" x="883.5" y="-347.8" font-family="Times,serif" font-size="14.00">samples = 12487</text>
<text text-anchor="middle" x="883.5" y="-332.8" font-family="Times,serif" font-size="14.00">value = [1937, 2030, 2220, 2040, 2040, 2220]</text>
<text text-anchor="middle" x="883.5" y="-317.8" font-family="Times,serif" font-size="14.00">class = maxmax</text>
</g>
<!-- 0&#45;&gt;1 -->
<g id="edge1" class="edge">
<title>0&#45;&gt;1</title>
<path fill="none" stroke="black" d="M1095.09,-428.91C1066.06,-418.43 1034.69,-407.1 1005.21,-396.45"/>
<polygon fill="black" stroke="black" points="1006.31,-393.13 995.71,-393.02 1003.93,-399.71 1006.31,-393.13"/>
<text text-anchor="middle" x="1006.33" y="-411.95" font-family="Times,serif" font-size="14.00">True</text>
</g>
<!-- 312 -->
<g id="node17" class="node">
<title>312</title>
<polygon fill="#ffffff" stroke="black" points="1672,-393 1325,-393 1325,-310 1672,-310 1672,-393"/>
<text text-anchor="middle" x="1498.5" y="-377.8" font-family="Times,serif" font-size="14.00">sdComp &lt;= 0.65</text>
<text text-anchor="middle" x="1498.5" y="-362.8" font-family="Times,serif" font-size="14.00">gini = 0.833</text>
<text text-anchor="middle" x="1498.5" y="-347.8" font-family="Times,serif" font-size="14.00">samples = 15806</text>
<text text-anchor="middle" x="1498.5" y="-332.8" font-family="Times,serif" font-size="14.00">value = [2610, 2690, 2578, 2675, 2675, 2578]</text>
<text text-anchor="middle" x="1498.5" y="-317.8" font-family="Times,serif" font-size="14.00">class = median</text>
</g>
<!-- 0&#45;&gt;312 -->
<g id="edge16" class="edge">
<title>0&#45;&gt;312</title>
<path fill="none" stroke="black" d="M1308.46,-428.91C1334.19,-418.56 1361.98,-407.39 1388.15,-396.87"/>
<polygon fill="black" stroke="black" points="1389.74,-400 1397.72,-393.02 1387.13,-393.5 1389.74,-400"/>
<text text-anchor="middle" x="1387.91" y="-412.32" font-family="Times,serif" font-size="14.00">False</text>
</g>
<!-- 2 -->
<g id="node3" class="node">
<title>2</title>
<polygon fill="#ffffff" stroke="black" points="550,-274 257,-274 257,-191 550,-191 550,-274"/>
<text text-anchor="middle" x="403.5" y="-258.8" font-family="Times,serif" font-size="14.00">sdComp &lt;= 0.065</text>
<text text-anchor="middle" x="403.5" y="-243.8" font-family="Times,serif" font-size="14.00">gini = 0.829</text>
<text text-anchor="middle" x="403.5" y="-228.8" font-family="Times,serif" font-size="14.00">samples = 1711</text>
<text text-anchor="middle" x="403.5" y="-213.8" font-family="Times,serif" font-size="14.00">value = [213, 226, 306, 330, 330, 306]</text>
<text text-anchor="middle" x="403.5" y="-198.8" font-family="Times,serif" font-size="14.00">class = minmax</text>
</g>
<!-- 1&#45;&gt;2 -->
<g id="edge2" class="edge">
<title>1&#45;&gt;2</title>
<path fill="none" stroke="black" d="M717.3,-309.99C666.39,-297.58 610.56,-283.97 560.29,-271.72"/>
<polygon fill="black" stroke="black" points="560.86,-268.25 550.32,-269.29 559.2,-275.06 560.86,-268.25"/>
</g>
<!-- 45 -->
<g id="node10" class="node">
<title>45</title>
<polygon fill="#ffffff" stroke="black" points="1057,-274 710,-274 710,-191 1057,-191 1057,-274"/>
<text text-anchor="middle" x="883.5" y="-258.8" font-family="Times,serif" font-size="14.00">graphSize &lt;= 22.5</text>
<text text-anchor="middle" x="883.5" y="-243.8" font-family="Times,serif" font-size="14.00">gini = 0.833</text>
<text text-anchor="middle" x="883.5" y="-228.8" font-family="Times,serif" font-size="14.00">samples = 10776</text>
<text text-anchor="middle" x="883.5" y="-213.8" font-family="Times,serif" font-size="14.00">value = [1724, 1804, 1914, 1710, 1710, 1914]</text>
<text text-anchor="middle" x="883.5" y="-198.8" font-family="Times,serif" font-size="14.00">class = maxmax</text>
</g>
<!-- 1&#45;&gt;45 -->
<g id="edge9" class="edge">
<title>1&#45;&gt;45</title>
<path fill="none" stroke="black" d="M883.5,-309.91C883.5,-301.65 883.5,-292.86 883.5,-284.3"/>
<polygon fill="black" stroke="black" points="887,-284.02 883.5,-274.02 880,-284.02 887,-284.02"/>
</g>
<!-- 3 -->
<g id="node4" class="node">
<title>3</title>
<polygon fill="#ffffff" stroke="black" points="239,-155 0,-155 0,-72 239,-72 239,-155"/>
<text text-anchor="middle" x="119.5" y="-139.8" font-family="Times,serif" font-size="14.00">sdComp &lt;= 0.02</text>
<text text-anchor="middle" x="119.5" y="-124.8" font-family="Times,serif" font-size="14.00">gini = 0.773</text>
<text text-anchor="middle" x="119.5" y="-109.8" font-family="Times,serif" font-size="14.00">samples = 292</text>
<text text-anchor="middle" x="119.5" y="-94.8" font-family="Times,serif" font-size="14.00">value = [16, 20, 40, 88, 88, 40]</text>
<text text-anchor="middle" x="119.5" y="-79.8" font-family="Times,serif" font-size="14.00">class = minmax</text>
</g>
<!-- 2&#45;&gt;3 -->
<g id="edge3" class="edge">
<title>2&#45;&gt;3</title>
<path fill="none" stroke="black" d="M304.97,-190.91C279.86,-180.56 252.74,-169.39 227.19,-158.87"/>
<polygon fill="black" stroke="black" points="228.44,-155.59 217.86,-155.02 225.77,-162.07 228.44,-155.59"/>
</g>
<!-- 26 -->
<g id="node7" class="node">
<title>26</title>
<polygon fill="#ffffff" stroke="black" points="550,-155 257,-155 257,-72 550,-72 550,-155"/>
<text text-anchor="middle" x="403.5" y="-139.8" font-family="Times,serif" font-size="14.00">sdComm &lt;= 0.065</text>
<text text-anchor="middle" x="403.5" y="-124.8" font-family="Times,serif" font-size="14.00">gini = 0.831</text>
<text text-anchor="middle" x="403.5" y="-109.8" font-family="Times,serif" font-size="14.00">samples = 1419</text>
<text text-anchor="middle" x="403.5" y="-94.8" font-family="Times,serif" font-size="14.00">value = [197, 206, 266, 242, 242, 266]</text>
<text text-anchor="middle" x="403.5" y="-79.8" font-family="Times,serif" font-size="14.00">class = maxmax</text>
</g>
<!-- 2&#45;&gt;26 -->
<g id="edge6" class="edge">
<title>2&#45;&gt;26</title>
<path fill="none" stroke="black" d="M403.5,-190.91C403.5,-182.65 403.5,-173.86 403.5,-165.3"/>
<polygon fill="black" stroke="black" points="407,-165.02 403.5,-155.02 400,-165.02 407,-165.02"/>
</g>
<!-- 4 -->
<g id="node5" class="node">
<title>4</title>
<polygon fill="#c0c0c0" stroke="black" points="110.5,-36 56.5,-36 56.5,0 110.5,0 110.5,-36"/>
<text text-anchor="middle" x="83.5" y="-14.3" font-family="Times,serif" font-size="14.00">(...)</text>
</g>
<!-- 3&#45;&gt;4 -->
<g id="edge4" class="edge">
<title>3&#45;&gt;4</title>
<path fill="none" stroke="black" d="M103.81,-71.76C100.46,-63.04 96.99,-54.04 93.89,-45.99"/>
<polygon fill="black" stroke="black" points="97.06,-44.48 90.2,-36.41 90.53,-46.99 97.06,-44.48"/>
</g>
<!-- 15 -->
<g id="node6" class="node">
<title>15</title>
<polygon fill="#c0c0c0" stroke="black" points="182.5,-36 128.5,-36 128.5,0 182.5,0 182.5,-36"/>
<text text-anchor="middle" x="155.5" y="-14.3" font-family="Times,serif" font-size="14.00">(...)</text>
</g>
<!-- 3&#45;&gt;15 -->
<g id="edge5" class="edge">
<title>3&#45;&gt;15</title>
<path fill="none" stroke="black" d="M135.19,-71.76C138.54,-63.04 142.01,-54.04 145.11,-45.99"/>
<polygon fill="black" stroke="black" points="148.47,-46.99 148.8,-36.41 141.94,-44.48 148.47,-46.99"/>
</g>
<!-- 27 -->
<g id="node8" class="node">
<title>27</title>
<polygon fill="#c0c0c0" stroke="black" points="394.5,-36 340.5,-36 340.5,0 394.5,0 394.5,-36"/>
<text text-anchor="middle" x="367.5" y="-14.3" font-family="Times,serif" font-size="14.00">(...)</text>
</g>
<!-- 26&#45;&gt;27 -->
<g id="edge7" class="edge">
<title>26&#45;&gt;27</title>
<path fill="none" stroke="black" d="M387.81,-71.76C384.46,-63.04 380.99,-54.04 377.89,-45.99"/>
<polygon fill="black" stroke="black" points="381.06,-44.48 374.2,-36.41 374.53,-46.99 381.06,-44.48"/>
</g>
<!-- 34 -->
<g id="node9" class="node">
<title>34</title>
<polygon fill="#c0c0c0" stroke="black" points="466.5,-36 412.5,-36 412.5,0 466.5,0 466.5,-36"/>
<text text-anchor="middle" x="439.5" y="-14.3" font-family="Times,serif" font-size="14.00">(...)</text>
</g>
<!-- 26&#45;&gt;34 -->
<g id="edge8" class="edge">
<title>26&#45;&gt;34</title>
<path fill="none" stroke="black" d="M419.19,-71.76C422.54,-63.04 426.01,-54.04 429.11,-45.99"/>
<polygon fill="black" stroke="black" points="432.47,-46.99 432.8,-36.41 425.94,-44.48 432.47,-46.99"/>
</g>
<!-- 46 -->
<g id="node11" class="node">
<title>46</title>
<polygon fill="#fffffe" stroke="black" points="915,-155 568,-155 568,-72 915,-72 915,-155"/>
<text text-anchor="middle" x="741.5" y="-139.8" font-family="Times,serif" font-size="14.00">sdComm &lt;= 0.065</text>
<text text-anchor="middle" x="741.5" y="-124.8" font-family="Times,serif" font-size="14.00">gini = 0.833</text>
<text text-anchor="middle" x="741.5" y="-109.8" font-family="Times,serif" font-size="14.00">samples = 6896</text>
<text text-anchor="middle" x="741.5" y="-94.8" font-family="Times,serif" font-size="14.00">value = [1168, 1184, 1164, 1108, 1108, 1164]</text>
<text text-anchor="middle" x="741.5" y="-79.8" font-family="Times,serif" font-size="14.00">class = median</text>
</g>
<!-- 45&#45;&gt;46 -->
<g id="edge10" class="edge">
<title>45&#45;&gt;46</title>
<path fill="none" stroke="black" d="M834.23,-190.91C822.78,-181.47 810.49,-171.34 798.72,-161.65"/>
<polygon fill="black" stroke="black" points="800.62,-158.68 790.68,-155.02 796.17,-164.08 800.62,-158.68"/>
</g>
<!-- 93 -->
<g id="node14" class="node">
<title>93</title>
<polygon fill="#ffffff" stroke="black" points="1226,-155 933,-155 933,-72 1226,-72 1226,-155"/>
<text text-anchor="middle" x="1079.5" y="-139.8" font-family="Times,serif" font-size="14.00">sdComm &lt;= 0.02</text>
<text text-anchor="middle" x="1079.5" y="-124.8" font-family="Times,serif" font-size="14.00">gini = 0.831</text>
<text text-anchor="middle" x="1079.5" y="-109.8" font-family="Times,serif" font-size="14.00">samples = 3880</text>
<text text-anchor="middle" x="1079.5" y="-94.8" font-family="Times,serif" font-size="14.00">value = [556, 620, 750, 602, 602, 750]</text>
<text text-anchor="middle" x="1079.5" y="-79.8" font-family="Times,serif" font-size="14.00">class = maxmax</text>
</g>
<!-- 45&#45;&gt;93 -->
<g id="edge13" class="edge">
<title>45&#45;&gt;93</title>
<path fill="none" stroke="black" d="M951.5,-190.91C968.07,-181.02 985.91,-170.37 1002.85,-160.25"/>
<polygon fill="black" stroke="black" points="1004.83,-163.15 1011.62,-155.02 1001.24,-157.14 1004.83,-163.15"/>
</g>
<!-- 47 -->
<g id="node12" class="node">
<title>47</title>
<polygon fill="#c0c0c0" stroke="black" points="732.5,-36 678.5,-36 678.5,0 732.5,0 732.5,-36"/>
<text text-anchor="middle" x="705.5" y="-14.3" font-family="Times,serif" font-size="14.00">(...)</text>
</g>
<!-- 46&#45;&gt;47 -->
<g id="edge11" class="edge">
<title>46&#45;&gt;47</title>
<path fill="none" stroke="black" d="M725.81,-71.76C722.46,-63.04 718.99,-54.04 715.89,-45.99"/>
<polygon fill="black" stroke="black" points="719.06,-44.48 712.2,-36.41 712.53,-46.99 719.06,-44.48"/>
</g>
<!-- 70 -->
<g id="node13" class="node">
<title>70</title>
<polygon fill="#c0c0c0" stroke="black" points="804.5,-36 750.5,-36 750.5,0 804.5,0 804.5,-36"/>
<text text-anchor="middle" x="777.5" y="-14.3" font-family="Times,serif" font-size="14.00">(...)</text>
</g>
<!-- 46&#45;&gt;70 -->
<g id="edge12" class="edge">
<title>46&#45;&gt;70</title>
<path fill="none" stroke="black" d="M757.19,-71.76C760.54,-63.04 764.01,-54.04 767.11,-45.99"/>
<polygon fill="black" stroke="black" points="770.47,-46.99 770.8,-36.41 763.94,-44.48 770.47,-46.99"/>
</g>
<!-- 94 -->
<g id="node15" class="node">
<title>94</title>
<polygon fill="#c0c0c0" stroke="black" points="1070.5,-36 1016.5,-36 1016.5,0 1070.5,0 1070.5,-36"/>
<text text-anchor="middle" x="1043.5" y="-14.3" font-family="Times,serif" font-size="14.00">(...)</text>
</g>
<!-- 93&#45;&gt;94 -->
<g id="edge14" class="edge">
<title>93&#45;&gt;94</title>
<path fill="none" stroke="black" d="M1063.81,-71.76C1060.46,-63.04 1056.99,-54.04 1053.89,-45.99"/>
<polygon fill="black" stroke="black" points="1057.06,-44.48 1050.2,-36.41 1050.53,-46.99 1057.06,-44.48"/>
</g>
<!-- 139 -->
<g id="node16" class="node">
<title>139</title>
<polygon fill="#c0c0c0" stroke="black" points="1142.5,-36 1088.5,-36 1088.5,0 1142.5,0 1142.5,-36"/>
<text text-anchor="middle" x="1115.5" y="-14.3" font-family="Times,serif" font-size="14.00">(...)</text>
</g>
<!-- 93&#45;&gt;139 -->
<g id="edge15" class="edge">
<title>93&#45;&gt;139</title>
<path fill="none" stroke="black" d="M1095.19,-71.76C1098.54,-63.04 1102.01,-54.04 1105.11,-45.99"/>
<polygon fill="black" stroke="black" points="1108.47,-46.99 1108.8,-36.41 1101.94,-44.48 1108.47,-46.99"/>
</g>
<!-- 313 -->
<g id="node18" class="node">
<title>313</title>
<polygon fill="#ffffff" stroke="black" points="1645,-274 1352,-274 1352,-191 1645,-191 1645,-274"/>
<text text-anchor="middle" x="1498.5" y="-258.8" font-family="Times,serif" font-size="14.00">graphDepth &lt;= 25.5</text>
<text text-anchor="middle" x="1498.5" y="-243.8" font-family="Times,serif" font-size="14.00">gini = 0.829</text>
<text text-anchor="middle" x="1498.5" y="-228.8" font-family="Times,serif" font-size="14.00">samples = 2280</text>
<text text-anchor="middle" x="1498.5" y="-213.8" font-family="Times,serif" font-size="14.00">value = [348, 384, 318, 456, 456, 318]</text>
<text text-anchor="middle" x="1498.5" y="-198.8" font-family="Times,serif" font-size="14.00">class = minmax</text>
</g>
<!-- 312&#45;&gt;313 -->
<g id="edge17" class="edge">
<title>312&#45;&gt;313</title>
<path fill="none" stroke="black" d="M1498.5,-309.91C1498.5,-301.65 1498.5,-292.86 1498.5,-284.3"/>
<polygon fill="black" stroke="black" points="1502,-284.02 1498.5,-274.02 1495,-284.02 1502,-284.02"/>
</g>
<!-- 400 -->
<g id="node25" class="node">
<title>400</title>
<polygon fill="#fffffe" stroke="black" points="2119,-274 1772,-274 1772,-191 2119,-191 2119,-274"/>
<text text-anchor="middle" x="1945.5" y="-258.8" font-family="Times,serif" font-size="14.00">sdComm &lt;= 0.2</text>
<text text-anchor="middle" x="1945.5" y="-243.8" font-family="Times,serif" font-size="14.00">gini = 0.833</text>
<text text-anchor="middle" x="1945.5" y="-228.8" font-family="Times,serif" font-size="14.00">samples = 13526</text>
<text text-anchor="middle" x="1945.5" y="-213.8" font-family="Times,serif" font-size="14.00">value = [2262, 2306, 2260, 2219, 2219, 2260]</text>
<text text-anchor="middle" x="1945.5" y="-198.8" font-family="Times,serif" font-size="14.00">class = median</text>
</g>
<!-- 312&#45;&gt;400 -->
<g id="edge24" class="edge">
<title>312&#45;&gt;400</title>
<path fill="none" stroke="black" d="M1653.27,-309.99C1694.46,-299.21 1739.1,-287.52 1780.8,-276.61"/>
<polygon fill="black" stroke="black" points="1781.7,-279.99 1790.48,-274.07 1779.92,-273.22 1781.7,-279.99"/>
</g>
<!-- 314 -->
<g id="node19" class="node">
<title>314</title>
<polygon fill="#ffffff" stroke="black" points="1537,-155 1244,-155 1244,-72 1537,-72 1537,-155"/>
<text text-anchor="middle" x="1390.5" y="-139.8" font-family="Times,serif" font-size="14.00">graphDepth &lt;= 3.5</text>
<text text-anchor="middle" x="1390.5" y="-124.8" font-family="Times,serif" font-size="14.00">gini = 0.829</text>
<text text-anchor="middle" x="1390.5" y="-109.8" font-family="Times,serif" font-size="14.00">samples = 2148</text>
<text text-anchor="middle" x="1390.5" y="-94.8" font-family="Times,serif" font-size="14.00">value = [336, 344, 296, 438, 438, 296]</text>
<text text-anchor="middle" x="1390.5" y="-79.8" font-family="Times,serif" font-size="14.00">class = minmax</text>
</g>
<!-- 313&#45;&gt;314 -->
<g id="edge18" class="edge">
<title>313&#45;&gt;314</title>
<path fill="none" stroke="black" d="M1461.03,-190.91C1452.57,-181.74 1443.51,-171.93 1434.8,-162.49"/>
<polygon fill="black" stroke="black" points="1437.26,-159.99 1427.9,-155.02 1432.11,-164.74 1437.26,-159.99"/>
</g>
<!-- 389 -->
<g id="node22" class="node">
<title>389</title>
<polygon fill="#effbdf" stroke="black" points="1794,-155 1555,-155 1555,-72 1794,-72 1794,-155"/>
<text text-anchor="middle" x="1674.5" y="-139.8" font-family="Times,serif" font-size="14.00">nbproc &lt;= 4.5</text>
<text text-anchor="middle" x="1674.5" y="-124.8" font-family="Times,serif" font-size="14.00">gini = 0.807</text>
<text text-anchor="middle" x="1674.5" y="-109.8" font-family="Times,serif" font-size="14.00">samples = 132</text>
<text text-anchor="middle" x="1674.5" y="-94.8" font-family="Times,serif" font-size="14.00">value = [12, 40, 22, 18, 18, 22]</text>
<text text-anchor="middle" x="1674.5" y="-79.8" font-family="Times,serif" font-size="14.00">class = median</text>
</g>
<!-- 313&#45;&gt;389 -->
<g id="edge21" class="edge">
<title>313&#45;&gt;389</title>
<path fill="none" stroke="black" d="M1559.56,-190.91C1574.17,-181.2 1589.87,-170.76 1604.84,-160.81"/>
<polygon fill="black" stroke="black" points="1607.16,-163.47 1613.55,-155.02 1603.28,-157.64 1607.16,-163.47"/>
</g>
<!-- 315 -->
<g id="node20" class="node">
<title>315</title>
<polygon fill="#c0c0c0" stroke="black" points="1381.5,-36 1327.5,-36 1327.5,0 1381.5,0 1381.5,-36"/>
<text text-anchor="middle" x="1354.5" y="-14.3" font-family="Times,serif" font-size="14.00">(...)</text>
</g>
<!-- 314&#45;&gt;315 -->
<g id="edge19" class="edge">
<title>314&#45;&gt;315</title>
<path fill="none" stroke="black" d="M1374.81,-71.76C1371.46,-63.04 1367.99,-54.04 1364.89,-45.99"/>
<polygon fill="black" stroke="black" points="1368.06,-44.48 1361.2,-36.41 1361.53,-46.99 1368.06,-44.48"/>
</g>
<!-- 326 -->
<g id="node21" class="node">
<title>326</title>
<polygon fill="#c0c0c0" stroke="black" points="1453.5,-36 1399.5,-36 1399.5,0 1453.5,0 1453.5,-36"/>
<text text-anchor="middle" x="1426.5" y="-14.3" font-family="Times,serif" font-size="14.00">(...)</text>
</g>
<!-- 314&#45;&gt;326 -->
<g id="edge20" class="edge">
<title>314&#45;&gt;326</title>
<path fill="none" stroke="black" d="M1406.19,-71.76C1409.54,-63.04 1413.01,-54.04 1416.11,-45.99"/>
<polygon fill="black" stroke="black" points="1419.47,-46.99 1419.8,-36.41 1412.94,-44.48 1419.47,-46.99"/>
</g>
<!-- 390 -->
<g id="node23" class="node">
<title>390</title>
<polygon fill="#c0c0c0" stroke="black" points="1665.5,-36 1611.5,-36 1611.5,0 1665.5,0 1665.5,-36"/>
<text text-anchor="middle" x="1638.5" y="-14.3" font-family="Times,serif" font-size="14.00">(...)</text>
</g>
<!-- 389&#45;&gt;390 -->
<g id="edge22" class="edge">
<title>389&#45;&gt;390</title>
<path fill="none" stroke="black" d="M1658.81,-71.76C1655.46,-63.04 1651.99,-54.04 1648.89,-45.99"/>
<polygon fill="black" stroke="black" points="1652.06,-44.48 1645.2,-36.41 1645.53,-46.99 1652.06,-44.48"/>
</g>
<!-- 395 -->
<g id="node24" class="node">
<title>395</title>
<polygon fill="#c0c0c0" stroke="black" points="1737.5,-36 1683.5,-36 1683.5,0 1737.5,0 1737.5,-36"/>
<text text-anchor="middle" x="1710.5" y="-14.3" font-family="Times,serif" font-size="14.00">(...)</text>
</g>
<!-- 389&#45;&gt;395 -->
<g id="edge23" class="edge">
<title>389&#45;&gt;395</title>
<path fill="none" stroke="black" d="M1690.19,-71.76C1693.54,-63.04 1697.01,-54.04 1700.11,-45.99"/>
<polygon fill="black" stroke="black" points="1703.47,-46.99 1703.8,-36.41 1696.94,-44.48 1703.47,-46.99"/>
</g>
<!-- 401 -->
<g id="node26" class="node">
<title>401</title>
<polygon fill="#ffffff" stroke="black" points="2078.5,-155 1812.5,-155 1812.5,-72 2078.5,-72 2078.5,-155"/>
<text text-anchor="middle" x="1945.5" y="-139.8" font-family="Times,serif" font-size="14.00">graphDepth &lt;= 9.0</text>
<text text-anchor="middle" x="1945.5" y="-124.8" font-family="Times,serif" font-size="14.00">gini = 0.828</text>
<text text-anchor="middle" x="1945.5" y="-109.8" font-family="Times,serif" font-size="14.00">samples = 644</text>
<text text-anchor="middle" x="1945.5" y="-94.8" font-family="Times,serif" font-size="14.00">value = [124, 96, 84, 128, 128, 84]</text>
<text text-anchor="middle" x="1945.5" y="-79.8" font-family="Times,serif" font-size="14.00">class = minmax</text>
</g>
<!-- 400&#45;&gt;401 -->
<g id="edge25" class="edge">
<title>400&#45;&gt;401</title>
<path fill="none" stroke="black" d="M1945.5,-190.91C1945.5,-182.65 1945.5,-173.86 1945.5,-165.3"/>
<polygon fill="black" stroke="black" points="1949,-165.02 1945.5,-155.02 1942,-165.02 1949,-165.02"/>
</g>
<!-- 426 -->
<g id="node29" class="node">
<title>426</title>
<polygon fill="#fffffe" stroke="black" points="2444,-155 2097,-155 2097,-72 2444,-72 2444,-155"/>
<text text-anchor="middle" x="2270.5" y="-139.8" font-family="Times,serif" font-size="14.00">graphDepth &lt;= 3.5</text>
<text text-anchor="middle" x="2270.5" y="-124.8" font-family="Times,serif" font-size="14.00">gini = 0.833</text>
<text text-anchor="middle" x="2270.5" y="-109.8" font-family="Times,serif" font-size="14.00">samples = 12882</text>
<text text-anchor="middle" x="2270.5" y="-94.8" font-family="Times,serif" font-size="14.00">value = [2138, 2210, 2176, 2091, 2091, 2176]</text>
<text text-anchor="middle" x="2270.5" y="-79.8" font-family="Times,serif" font-size="14.00">class = median</text>
</g>
<!-- 400&#45;&gt;426 -->
<g id="edge28" class="edge">
<title>400&#45;&gt;426</title>
<path fill="none" stroke="black" d="M2058.26,-190.91C2087.37,-180.43 2118.85,-169.1 2148.41,-158.45"/>
<polygon fill="black" stroke="black" points="2149.72,-161.7 2157.94,-155.02 2147.35,-155.11 2149.72,-161.7"/>
</g>
<!-- 402 -->
<g id="node27" class="node">
<title>402</title>
<polygon fill="#c0c0c0" stroke="black" points="1936.5,-36 1882.5,-36 1882.5,0 1936.5,0 1936.5,-36"/>
<text text-anchor="middle" x="1909.5" y="-14.3" font-family="Times,serif" font-size="14.00">(...)</text>
</g>
<!-- 401&#45;&gt;402 -->
<g id="edge26" class="edge">
<title>401&#45;&gt;402</title>
<path fill="none" stroke="black" d="M1929.81,-71.76C1926.46,-63.04 1922.99,-54.04 1919.89,-45.99"/>
<polygon fill="black" stroke="black" points="1923.06,-44.48 1916.2,-36.41 1916.53,-46.99 1923.06,-44.48"/>
</g>
<!-- 417 -->
<g id="node28" class="node">
<title>417</title>
<polygon fill="#c0c0c0" stroke="black" points="2008.5,-36 1954.5,-36 1954.5,0 2008.5,0 2008.5,-36"/>
<text text-anchor="middle" x="1981.5" y="-14.3" font-family="Times,serif" font-size="14.00">(...)</text>
</g>
<!-- 401&#45;&gt;417 -->
<g id="edge27" class="edge">
<title>401&#45;&gt;417</title>
<path fill="none" stroke="black" d="M1961.19,-71.76C1964.54,-63.04 1968.01,-54.04 1971.11,-45.99"/>
<polygon fill="black" stroke="black" points="1974.47,-46.99 1974.8,-36.41 1967.94,-44.48 1974.47,-46.99"/>
</g>
<!-- 427 -->
<g id="node30" class="node">
<title>427</title>
<polygon fill="#c0c0c0" stroke="black" points="2261.5,-36 2207.5,-36 2207.5,0 2261.5,0 2261.5,-36"/>
<text text-anchor="middle" x="2234.5" y="-14.3" font-family="Times,serif" font-size="14.00">(...)</text>
</g>
<!-- 426&#45;&gt;427 -->
<g id="edge29" class="edge">
<title>426&#45;&gt;427</title>
<path fill="none" stroke="black" d="M2254.81,-71.76C2251.46,-63.04 2247.99,-54.04 2244.89,-45.99"/>
<polygon fill="black" stroke="black" points="2248.06,-44.48 2241.2,-36.41 2241.53,-46.99 2248.06,-44.48"/>
</g>
<!-- 468 -->
<g id="node31" class="node">
<title>468</title>
<polygon fill="#c0c0c0" stroke="black" points="2333.5,-36 2279.5,-36 2279.5,0 2333.5,0 2333.5,-36"/>
<text text-anchor="middle" x="2306.5" y="-14.3" font-family="Times,serif" font-size="14.00">(...)</text>
</g>
<!-- 426&#45;&gt;468 -->
<g id="edge30" class="edge">
<title>426&#45;&gt;468</title>
<path fill="none" stroke="black" d="M2286.19,-71.76C2289.54,-63.04 2293.01,-54.04 2296.11,-45.99"/>
<polygon fill="black" stroke="black" points="2299.47,-46.99 2299.8,-36.41 2292.94,-44.48 2299.47,-46.99"/>
</g>
</g>
</svg>
