<?xml version="1.0" encoding="UTF-8" standalone="no"?>
<!DOCTYPE svg PUBLIC "-//W3C//DTD SVG 1.1//EN"
 "http://www.w3.org/Graphics/SVG/1.1/DTD/svg11.dtd">
<!-- Generated by graphviz version 2.43.0 (0)
 -->
<!-- Title: Tree Pages: 1 -->
<svg width="1427pt" height="520pt"
 viewBox="0.00 0.00 1427.00 520.00" xmlns="http://www.w3.org/2000/svg" xmlns:xlink="http://www.w3.org/1999/xlink">
<g id="graph0" class="graph" transform="scale(1 1) rotate(0) translate(4 516)">
<title>Tree</title>
<polygon fill="white" stroke="transparent" points="-4,4 -4,-516 1423,-516 1423,4 -4,4"/>
<!-- 0 -->
<g id="node1" class="node">
<title>0</title>
<polygon fill="#a1d0f3" stroke="black" points="792.5,-512 616.5,-512 616.5,-429 792.5,-429 792.5,-512"/>
<text text-anchor="middle" x="704.5" y="-496.8" font-family="Times,serif" font-size="14.00">sdComp &lt;= 0.65</text>
<text text-anchor="middle" x="704.5" y="-481.8" font-family="Times,serif" font-size="14.00">gini = 0.451</text>
<text text-anchor="middle" x="704.5" y="-466.8" font-family="Times,serif" font-size="14.00">samples = 28293</text>
<text text-anchor="middle" x="704.5" y="-451.8" font-family="Times,serif" font-size="14.00">value = [9724, 18569]</text>
<text text-anchor="middle" x="704.5" y="-436.8" font-family="Times,serif" font-size="14.00">class = True</text>
</g>
<!-- 1 -->
<g id="node2" class="node">
<title>1</title>
<polygon fill="#c9e4f8" stroke="black" points="603,-393 436,-393 436,-310 603,-310 603,-393"/>
<text text-anchor="middle" x="519.5" y="-377.8" font-family="Times,serif" font-size="14.00">nbproc &lt;= 4.5</text>
<text text-anchor="middle" x="519.5" y="-362.8" font-family="Times,serif" font-size="14.00">gini = 0.488</text>
<text text-anchor="middle" x="519.5" y="-347.8" font-family="Times,serif" font-size="14.00">samples = 14767</text>
<text text-anchor="middle" x="519.5" y="-332.8" font-family="Times,serif" font-size="14.00">value = [6218, 8549]</text>
<text text-anchor="middle" x="519.5" y="-317.8" font-family="Times,serif" font-size="14.00">class = True</text>
</g>
<!-- 0&#45;&gt;1 -->
<g id="edge1" class="edge">
<title>0&#45;&gt;1</title>
<path fill="none" stroke="black" d="M640.32,-428.91C624.82,-419.11 608.15,-408.56 592.29,-398.53"/>
<polygon fill="black" stroke="black" points="593.89,-395.41 583.57,-393.02 590.15,-401.32 593.89,-395.41"/>
<text text-anchor="middle" x="589.06" y="-413.71" font-family="Times,serif" font-size="14.00">True</text>
</g>
<!-- 354 -->
<g id="node17" class="node">
<title>354</title>
<polygon fill="#7ebfee" stroke="black" points="972.5,-393 796.5,-393 796.5,-310 972.5,-310 972.5,-393"/>
<text text-anchor="middle" x="884.5" y="-377.8" font-family="Times,serif" font-size="14.00">graphSize &lt;= 22.5</text>
<text text-anchor="middle" x="884.5" y="-362.8" font-family="Times,serif" font-size="14.00">gini = 0.384</text>
<text text-anchor="middle" x="884.5" y="-347.8" font-family="Times,serif" font-size="14.00">samples = 13526</text>
<text text-anchor="middle" x="884.5" y="-332.8" font-family="Times,serif" font-size="14.00">value = [3506, 10020]</text>
<text text-anchor="middle" x="884.5" y="-317.8" font-family="Times,serif" font-size="14.00">class = True</text>
</g>
<!-- 0&#45;&gt;354 -->
<g id="edge16" class="edge">
<title>0&#45;&gt;354</title>
<path fill="none" stroke="black" d="M766.95,-428.91C782.03,-419.11 798.25,-408.56 813.68,-398.53"/>
<polygon fill="black" stroke="black" points="815.68,-401.41 822.16,-393.02 811.87,-395.54 815.68,-401.41"/>
<text text-anchor="middle" x="816.97" y="-413.78" font-family="Times,serif" font-size="14.00">False</text>
</g>
<!-- 2 -->
<g id="node3" class="node">
<title>2</title>
<polygon fill="#a0d0f3" stroke="black" points="328,-274 161,-274 161,-191 328,-191 328,-274"/>
<text text-anchor="middle" x="244.5" y="-258.8" font-family="Times,serif" font-size="14.00">graphDepth &lt;= 3.5</text>
<text text-anchor="middle" x="244.5" y="-243.8" font-family="Times,serif" font-size="14.00">gini = 0.45</text>
<text text-anchor="middle" x="244.5" y="-228.8" font-family="Times,serif" font-size="14.00">samples = 3607</text>
<text text-anchor="middle" x="244.5" y="-213.8" font-family="Times,serif" font-size="14.00">value = [1234, 2373]</text>
<text text-anchor="middle" x="244.5" y="-198.8" font-family="Times,serif" font-size="14.00">class = True</text>
</g>
<!-- 1&#45;&gt;2 -->
<g id="edge2" class="edge">
<title>1&#45;&gt;2</title>
<path fill="none" stroke="black" d="M435.87,-314.92C404.81,-301.7 369.38,-286.63 337.53,-273.08"/>
<polygon fill="black" stroke="black" points="338.78,-269.81 328.21,-269.11 336.04,-276.25 338.78,-269.81"/>
</g>
<!-- 135 -->
<g id="node10" class="node">
<title>135</title>
<polygon fill="#d9ecfa" stroke="black" points="603,-274 436,-274 436,-191 603,-191 603,-274"/>
<text text-anchor="middle" x="519.5" y="-258.8" font-family="Times,serif" font-size="14.00">graphSize &lt;= 22.5</text>
<text text-anchor="middle" x="519.5" y="-243.8" font-family="Times,serif" font-size="14.00">gini = 0.494</text>
<text text-anchor="middle" x="519.5" y="-228.8" font-family="Times,serif" font-size="14.00">samples = 11160</text>
<text text-anchor="middle" x="519.5" y="-213.8" font-family="Times,serif" font-size="14.00">value = [4984, 6176]</text>
<text text-anchor="middle" x="519.5" y="-198.8" font-family="Times,serif" font-size="14.00">class = True</text>
</g>
<!-- 1&#45;&gt;135 -->
<g id="edge9" class="edge">
<title>1&#45;&gt;135</title>
<path fill="none" stroke="black" d="M519.5,-309.91C519.5,-301.65 519.5,-292.86 519.5,-284.3"/>
<polygon fill="black" stroke="black" points="523,-284.02 519.5,-274.02 516,-284.02 523,-284.02"/>
</g>
<!-- 3 -->
<g id="node4" class="node">
<title>3</title>
<polygon fill="#55abe9" stroke="black" points="143,-155 0,-155 0,-72 143,-72 143,-155"/>
<text text-anchor="middle" x="71.5" y="-139.8" font-family="Times,serif" font-size="14.00">sdComm &lt;= 0.02</text>
<text text-anchor="middle" x="71.5" y="-124.8" font-family="Times,serif" font-size="14.00">gini = 0.216</text>
<text text-anchor="middle" x="71.5" y="-109.8" font-family="Times,serif" font-size="14.00">samples = 357</text>
<text text-anchor="middle" x="71.5" y="-94.8" font-family="Times,serif" font-size="14.00">value = [44, 313]</text>
<text text-anchor="middle" x="71.5" y="-79.8" font-family="Times,serif" font-size="14.00">class = True</text>
</g>
<!-- 2&#45;&gt;3 -->
<g id="edge3" class="edge">
<title>2&#45;&gt;3</title>
<path fill="none" stroke="black" d="M184.48,-190.91C170.12,-181.2 154.69,-170.76 139.98,-160.81"/>
<polygon fill="black" stroke="black" points="141.66,-157.72 131.42,-155.02 137.74,-163.52 141.66,-157.72"/>
</g>
<!-- 18 -->
<g id="node7" class="node">
<title>18</title>
<polygon fill="#abd6f4" stroke="black" points="328,-155 161,-155 161,-72 328,-72 328,-155"/>
<text text-anchor="middle" x="244.5" y="-139.8" font-family="Times,serif" font-size="14.00">sdComm &lt;= 0.02</text>
<text text-anchor="middle" x="244.5" y="-124.8" font-family="Times,serif" font-size="14.00">gini = 0.464</text>
<text text-anchor="middle" x="244.5" y="-109.8" font-family="Times,serif" font-size="14.00">samples = 3250</text>
<text text-anchor="middle" x="244.5" y="-94.8" font-family="Times,serif" font-size="14.00">value = [1190, 2060]</text>
<text text-anchor="middle" x="244.5" y="-79.8" font-family="Times,serif" font-size="14.00">class = True</text>
</g>
<!-- 2&#45;&gt;18 -->
<g id="edge6" class="edge">
<title>2&#45;&gt;18</title>
<path fill="none" stroke="black" d="M244.5,-190.91C244.5,-182.65 244.5,-173.86 244.5,-165.3"/>
<polygon fill="black" stroke="black" points="248,-165.02 244.5,-155.02 241,-165.02 248,-165.02"/>
</g>
<!-- 4 -->
<g id="node5" class="node">
<title>4</title>
<polygon fill="#c0c0c0" stroke="black" points="62.5,-36 8.5,-36 8.5,0 62.5,0 62.5,-36"/>
<text text-anchor="middle" x="35.5" y="-14.3" font-family="Times,serif" font-size="14.00">(...)</text>
</g>
<!-- 3&#45;&gt;4 -->
<g id="edge4" class="edge">
<title>3&#45;&gt;4</title>
<path fill="none" stroke="black" d="M55.81,-71.76C52.46,-63.04 48.99,-54.04 45.89,-45.99"/>
<polygon fill="black" stroke="black" points="49.06,-44.48 42.2,-36.41 42.53,-46.99 49.06,-44.48"/>
</g>
<!-- 5 -->
<g id="node6" class="node">
<title>5</title>
<polygon fill="#c0c0c0" stroke="black" points="134.5,-36 80.5,-36 80.5,0 134.5,0 134.5,-36"/>
<text text-anchor="middle" x="107.5" y="-14.3" font-family="Times,serif" font-size="14.00">(...)</text>
</g>
<!-- 3&#45;&gt;5 -->
<g id="edge5" class="edge">
<title>3&#45;&gt;5</title>
<path fill="none" stroke="black" d="M87.19,-71.76C90.54,-63.04 94.01,-54.04 97.11,-45.99"/>
<polygon fill="black" stroke="black" points="100.47,-46.99 100.8,-36.41 93.94,-44.48 100.47,-46.99"/>
</g>
<!-- 19 -->
<g id="node8" class="node">
<title>19</title>
<polygon fill="#c0c0c0" stroke="black" points="239.5,-36 185.5,-36 185.5,0 239.5,0 239.5,-36"/>
<text text-anchor="middle" x="212.5" y="-14.3" font-family="Times,serif" font-size="14.00">(...)</text>
</g>
<!-- 18&#45;&gt;19 -->
<g id="edge7" class="edge">
<title>18&#45;&gt;19</title>
<path fill="none" stroke="black" d="M230.56,-71.76C227.57,-63.04 224.49,-54.04 221.74,-45.99"/>
<polygon fill="black" stroke="black" points="225.01,-44.73 218.46,-36.41 218.38,-47 225.01,-44.73"/>
</g>
<!-- 36 -->
<g id="node9" class="node">
<title>36</title>
<polygon fill="#c0c0c0" stroke="black" points="311.5,-36 257.5,-36 257.5,0 311.5,0 311.5,-36"/>
<text text-anchor="middle" x="284.5" y="-14.3" font-family="Times,serif" font-size="14.00">(...)</text>
</g>
<!-- 18&#45;&gt;36 -->
<g id="edge8" class="edge">
<title>18&#45;&gt;36</title>
<path fill="none" stroke="black" d="M261.93,-71.76C265.7,-62.94 269.6,-53.84 273.07,-45.72"/>
<polygon fill="black" stroke="black" points="276.34,-46.98 277.05,-36.41 269.9,-44.22 276.34,-46.98"/>
</g>
<!-- 136 -->
<g id="node11" class="node">
<title>136</title>
<polygon fill="#e8f4fc" stroke="black" points="513,-155 346,-155 346,-72 513,-72 513,-155"/>
<text text-anchor="middle" x="429.5" y="-139.8" font-family="Times,serif" font-size="14.00">graphDepth &lt;= 3.5</text>
<text text-anchor="middle" x="429.5" y="-124.8" font-family="Times,serif" font-size="14.00">gini = 0.498</text>
<text text-anchor="middle" x="429.5" y="-109.8" font-family="Times,serif" font-size="14.00">samples = 7290</text>
<text text-anchor="middle" x="429.5" y="-94.8" font-family="Times,serif" font-size="14.00">value = [3418, 3872]</text>
<text text-anchor="middle" x="429.5" y="-79.8" font-family="Times,serif" font-size="14.00">class = True</text>
</g>
<!-- 135&#45;&gt;136 -->
<g id="edge10" class="edge">
<title>135&#45;&gt;136</title>
<path fill="none" stroke="black" d="M488.27,-190.91C481.36,-181.92 473.97,-172.32 466.85,-163.05"/>
<polygon fill="black" stroke="black" points="469.54,-160.81 460.67,-155.02 463.99,-165.08 469.54,-160.81"/>
</g>
<!-- 191 -->
<g id="node14" class="node">
<title>191</title>
<polygon fill="#c0e0f7" stroke="black" points="698,-155 531,-155 531,-72 698,-72 698,-155"/>
<text text-anchor="middle" x="614.5" y="-139.8" font-family="Times,serif" font-size="14.00">sdComp &lt;= 0.065</text>
<text text-anchor="middle" x="614.5" y="-124.8" font-family="Times,serif" font-size="14.00">gini = 0.482</text>
<text text-anchor="middle" x="614.5" y="-109.8" font-family="Times,serif" font-size="14.00">samples = 3870</text>
<text text-anchor="middle" x="614.5" y="-94.8" font-family="Times,serif" font-size="14.00">value = [1566, 2304]</text>
<text text-anchor="middle" x="614.5" y="-79.8" font-family="Times,serif" font-size="14.00">class = True</text>
</g>
<!-- 135&#45;&gt;191 -->
<g id="edge13" class="edge">
<title>135&#45;&gt;191</title>
<path fill="none" stroke="black" d="M552.46,-190.91C559.75,-181.92 567.56,-172.32 575.08,-163.05"/>
<polygon fill="black" stroke="black" points="578.01,-164.99 581.6,-155.02 572.58,-160.58 578.01,-164.99"/>
</g>
<!-- 137 -->
<g id="node12" class="node">
<title>137</title>
<polygon fill="#c0c0c0" stroke="black" points="425.5,-36 371.5,-36 371.5,0 425.5,0 425.5,-36"/>
<text text-anchor="middle" x="398.5" y="-14.3" font-family="Times,serif" font-size="14.00">(...)</text>
</g>
<!-- 136&#45;&gt;137 -->
<g id="edge11" class="edge">
<title>136&#45;&gt;137</title>
<path fill="none" stroke="black" d="M415.99,-71.76C413.1,-63.04 410.12,-54.04 407.45,-45.99"/>
<polygon fill="black" stroke="black" points="410.74,-44.8 404.27,-36.41 404.1,-47 410.74,-44.8"/>
</g>
<!-- 162 -->
<g id="node13" class="node">
<title>162</title>
<polygon fill="#c0c0c0" stroke="black" points="497.5,-36 443.5,-36 443.5,0 497.5,0 497.5,-36"/>
<text text-anchor="middle" x="470.5" y="-14.3" font-family="Times,serif" font-size="14.00">(...)</text>
</g>
<!-- 136&#45;&gt;162 -->
<g id="edge12" class="edge">
<title>136&#45;&gt;162</title>
<path fill="none" stroke="black" d="M447.36,-71.76C451.23,-62.94 455.22,-53.84 458.78,-45.72"/>
<polygon fill="black" stroke="black" points="462.06,-46.97 462.87,-36.41 455.65,-44.16 462.06,-46.97"/>
</g>
<!-- 192 -->
<g id="node15" class="node">
<title>192</title>
<polygon fill="#c0c0c0" stroke="black" points="589.5,-36 535.5,-36 535.5,0 589.5,0 589.5,-36"/>
<text text-anchor="middle" x="562.5" y="-14.3" font-family="Times,serif" font-size="14.00">(...)</text>
</g>
<!-- 191&#45;&gt;192 -->
<g id="edge14" class="edge">
<title>191&#45;&gt;192</title>
<path fill="none" stroke="black" d="M591.84,-71.76C586.83,-62.75 581.65,-53.44 577.07,-45.19"/>
<polygon fill="black" stroke="black" points="580.1,-43.44 572.18,-36.41 573.98,-46.85 580.1,-43.44"/>
</g>
<!-- 257 -->
<g id="node16" class="node">
<title>257</title>
<polygon fill="#c0c0c0" stroke="black" points="661.5,-36 607.5,-36 607.5,0 661.5,0 661.5,-36"/>
<text text-anchor="middle" x="634.5" y="-14.3" font-family="Times,serif" font-size="14.00">(...)</text>
</g>
<!-- 191&#45;&gt;257 -->
<g id="edge15" class="edge">
<title>191&#45;&gt;257</title>
<path fill="none" stroke="black" d="M623.21,-71.76C625.06,-63.14 626.96,-54.24 628.67,-46.26"/>
<polygon fill="black" stroke="black" points="632.11,-46.92 630.78,-36.41 625.26,-45.45 632.11,-46.92"/>
</g>
<!-- 355 -->
<g id="node18" class="node">
<title>355</title>
<polygon fill="#91c9f1" stroke="black" points="968,-274 801,-274 801,-191 968,-191 968,-274"/>
<text text-anchor="middle" x="884.5" y="-258.8" font-family="Times,serif" font-size="14.00">sdComp &lt;= 6.5</text>
<text text-anchor="middle" x="884.5" y="-243.8" font-family="Times,serif" font-size="14.00">gini = 0.427</text>
<text text-anchor="middle" x="884.5" y="-228.8" font-family="Times,serif" font-size="14.00">samples = 4960</text>
<text text-anchor="middle" x="884.5" y="-213.8" font-family="Times,serif" font-size="14.00">value = [1532, 3428]</text>
<text text-anchor="middle" x="884.5" y="-198.8" font-family="Times,serif" font-size="14.00">class = True</text>
</g>
<!-- 354&#45;&gt;355 -->
<g id="edge17" class="edge">
<title>354&#45;&gt;355</title>
<path fill="none" stroke="black" d="M884.5,-309.91C884.5,-301.65 884.5,-292.86 884.5,-284.3"/>
<polygon fill="black" stroke="black" points="888,-284.02 884.5,-274.02 881,-284.02 888,-284.02"/>
</g>
<!-- 440 -->
<g id="node25" class="node">
<title>440</title>
<polygon fill="#74baed" stroke="black" points="1239,-274 1072,-274 1072,-191 1239,-191 1239,-274"/>
<text text-anchor="middle" x="1155.5" y="-258.8" font-family="Times,serif" font-size="14.00">graphDepth &lt;= 9.0</text>
<text text-anchor="middle" x="1155.5" y="-243.8" font-family="Times,serif" font-size="14.00">gini = 0.355</text>
<text text-anchor="middle" x="1155.5" y="-228.8" font-family="Times,serif" font-size="14.00">samples = 8566</text>
<text text-anchor="middle" x="1155.5" y="-213.8" font-family="Times,serif" font-size="14.00">value = [1974, 6592]</text>
<text text-anchor="middle" x="1155.5" y="-198.8" font-family="Times,serif" font-size="14.00">class = True</text>
</g>
<!-- 354&#45;&gt;440 -->
<g id="edge24" class="edge">
<title>354&#45;&gt;440</title>
<path fill="none" stroke="black" d="M972.86,-312.35C1001.57,-299.96 1033.51,-286.17 1062.55,-273.63"/>
<polygon fill="black" stroke="black" points="1064.07,-276.79 1071.86,-269.61 1061.29,-270.36 1064.07,-276.79"/>
</g>
<!-- 356 -->
<g id="node19" class="node">
<title>356</title>
<polygon fill="#89c4ef" stroke="black" points="883,-155 716,-155 716,-72 883,-72 883,-155"/>
<text text-anchor="middle" x="799.5" y="-139.8" font-family="Times,serif" font-size="14.00">nbproc &lt;= 4.5</text>
<text text-anchor="middle" x="799.5" y="-124.8" font-family="Times,serif" font-size="14.00">gini = 0.409</text>
<text text-anchor="middle" x="799.5" y="-109.8" font-family="Times,serif" font-size="14.00">samples = 3762</text>
<text text-anchor="middle" x="799.5" y="-94.8" font-family="Times,serif" font-size="14.00">value = [1078, 2684]</text>
<text text-anchor="middle" x="799.5" y="-79.8" font-family="Times,serif" font-size="14.00">class = True</text>
</g>
<!-- 355&#45;&gt;356 -->
<g id="edge18" class="edge">
<title>355&#45;&gt;356</title>
<path fill="none" stroke="black" d="M855.01,-190.91C848.55,-182.01 841.64,-172.51 834.98,-163.33"/>
<polygon fill="black" stroke="black" points="837.65,-161.05 828.94,-155.02 831.98,-165.17 837.65,-161.05"/>
</g>
<!-- 417 -->
<g id="node22" class="node">
<title>417</title>
<polygon fill="#b2d9f5" stroke="black" points="1058.5,-155 900.5,-155 900.5,-72 1058.5,-72 1058.5,-155"/>
<text text-anchor="middle" x="979.5" y="-139.8" font-family="Times,serif" font-size="14.00">graphDepth &lt;= 3.5</text>
<text text-anchor="middle" x="979.5" y="-124.8" font-family="Times,serif" font-size="14.00">gini = 0.471</text>
<text text-anchor="middle" x="979.5" y="-109.8" font-family="Times,serif" font-size="14.00">samples = 1198</text>
<text text-anchor="middle" x="979.5" y="-94.8" font-family="Times,serif" font-size="14.00">value = [454, 744]</text>
<text text-anchor="middle" x="979.5" y="-79.8" font-family="Times,serif" font-size="14.00">class = True</text>
</g>
<!-- 355&#45;&gt;417 -->
<g id="edge21" class="edge">
<title>355&#45;&gt;417</title>
<path fill="none" stroke="black" d="M917.46,-190.91C924.75,-181.92 932.56,-172.32 940.08,-163.05"/>
<polygon fill="black" stroke="black" points="943.01,-164.99 946.6,-155.02 937.58,-160.58 943.01,-164.99"/>
</g>
<!-- 357 -->
<g id="node20" class="node">
<title>357</title>
<polygon fill="#c0c0c0" stroke="black" points="772.5,-36 718.5,-36 718.5,0 772.5,0 772.5,-36"/>
<text text-anchor="middle" x="745.5" y="-14.3" font-family="Times,serif" font-size="14.00">(...)</text>
</g>
<!-- 356&#45;&gt;357 -->
<g id="edge19" class="edge">
<title>356&#45;&gt;357</title>
<path fill="none" stroke="black" d="M775.97,-71.76C770.77,-62.75 765.39,-53.44 760.63,-45.19"/>
<polygon fill="black" stroke="black" points="763.58,-43.31 755.55,-36.41 757.52,-46.82 763.58,-43.31"/>
</g>
<!-- 384 -->
<g id="node21" class="node">
<title>384</title>
<polygon fill="#c0c0c0" stroke="black" points="844.5,-36 790.5,-36 790.5,0 844.5,0 844.5,-36"/>
<text text-anchor="middle" x="817.5" y="-14.3" font-family="Times,serif" font-size="14.00">(...)</text>
</g>
<!-- 356&#45;&gt;384 -->
<g id="edge20" class="edge">
<title>356&#45;&gt;384</title>
<path fill="none" stroke="black" d="M807.34,-71.76C809,-63.14 810.72,-54.24 812.25,-46.26"/>
<polygon fill="black" stroke="black" points="815.7,-46.89 814.15,-36.41 808.82,-45.56 815.7,-46.89"/>
</g>
<!-- 418 -->
<g id="node23" class="node">
<title>418</title>
<polygon fill="#c0c0c0" stroke="black" points="950.5,-36 896.5,-36 896.5,0 950.5,0 950.5,-36"/>
<text text-anchor="middle" x="923.5" y="-14.3" font-family="Times,serif" font-size="14.00">(...)</text>
</g>
<!-- 417&#45;&gt;418 -->
<g id="edge22" class="edge">
<title>417&#45;&gt;418</title>
<path fill="none" stroke="black" d="M955.1,-71.76C949.7,-62.75 944.13,-53.44 939.19,-45.19"/>
<polygon fill="black" stroke="black" points="942.07,-43.19 933.92,-36.41 936.06,-46.78 942.07,-43.19"/>
</g>
<!-- 429 -->
<g id="node24" class="node">
<title>429</title>
<polygon fill="#c0c0c0" stroke="black" points="1022.5,-36 968.5,-36 968.5,0 1022.5,0 1022.5,-36"/>
<text text-anchor="middle" x="995.5" y="-14.3" font-family="Times,serif" font-size="14.00">(...)</text>
</g>
<!-- 417&#45;&gt;429 -->
<g id="edge23" class="edge">
<title>417&#45;&gt;429</title>
<path fill="none" stroke="black" d="M986.47,-71.76C987.93,-63.24 989.44,-54.44 990.79,-46.53"/>
<polygon fill="black" stroke="black" points="994.28,-46.85 992.52,-36.41 987.38,-45.67 994.28,-46.85"/>
</g>
<!-- 441 -->
<g id="node26" class="node">
<title>441</title>
<polygon fill="#4fa8e8" stroke="black" points="1234.5,-155 1076.5,-155 1076.5,-72 1234.5,-72 1234.5,-155"/>
<text text-anchor="middle" x="1155.5" y="-139.8" font-family="Times,serif" font-size="14.00">sdComm &lt;= 0.65</text>
<text text-anchor="middle" x="1155.5" y="-124.8" font-family="Times,serif" font-size="14.00">gini = 0.181</text>
<text text-anchor="middle" x="1155.5" y="-109.8" font-family="Times,serif" font-size="14.00">samples = 2026</text>
<text text-anchor="middle" x="1155.5" y="-94.8" font-family="Times,serif" font-size="14.00">value = [204, 1822]</text>
<text text-anchor="middle" x="1155.5" y="-79.8" font-family="Times,serif" font-size="14.00">class = True</text>
</g>
<!-- 440&#45;&gt;441 -->
<g id="edge25" class="edge">
<title>440&#45;&gt;441</title>
<path fill="none" stroke="black" d="M1155.5,-190.91C1155.5,-182.65 1155.5,-173.86 1155.5,-165.3"/>
<polygon fill="black" stroke="black" points="1159,-165.02 1155.5,-155.02 1152,-165.02 1159,-165.02"/>
</g>
<!-- 496 -->
<g id="node29" class="node">
<title>496</title>
<polygon fill="#82c1ef" stroke="black" points="1419,-155 1252,-155 1252,-72 1419,-72 1419,-155"/>
<text text-anchor="middle" x="1335.5" y="-139.8" font-family="Times,serif" font-size="14.00">graphDepth &lt;= 25.5</text>
<text text-anchor="middle" x="1335.5" y="-124.8" font-family="Times,serif" font-size="14.00">gini = 0.395</text>
<text text-anchor="middle" x="1335.5" y="-109.8" font-family="Times,serif" font-size="14.00">samples = 6540</text>
<text text-anchor="middle" x="1335.5" y="-94.8" font-family="Times,serif" font-size="14.00">value = [1770, 4770]</text>
<text text-anchor="middle" x="1335.5" y="-79.8" font-family="Times,serif" font-size="14.00">class = True</text>
</g>
<!-- 440&#45;&gt;496 -->
<g id="edge28" class="edge">
<title>440&#45;&gt;496</title>
<path fill="none" stroke="black" d="M1217.95,-190.91C1233.03,-181.11 1249.25,-170.56 1264.68,-160.53"/>
<polygon fill="black" stroke="black" points="1266.68,-163.41 1273.16,-155.02 1262.87,-157.54 1266.68,-163.41"/>
</g>
<!-- 442 -->
<g id="node27" class="node">
<title>442</title>
<polygon fill="#c0c0c0" stroke="black" points="1146.5,-36 1092.5,-36 1092.5,0 1146.5,0 1146.5,-36"/>
<text text-anchor="middle" x="1119.5" y="-14.3" font-family="Times,serif" font-size="14.00">(...)</text>
</g>
<!-- 441&#45;&gt;442 -->
<g id="edge26" class="edge">
<title>441&#45;&gt;442</title>
<path fill="none" stroke="black" d="M1139.81,-71.76C1136.46,-63.04 1132.99,-54.04 1129.89,-45.99"/>
<polygon fill="black" stroke="black" points="1133.06,-44.48 1126.2,-36.41 1126.53,-46.99 1133.06,-44.48"/>
</g>
<!-- 451 -->
<g id="node28" class="node">
<title>451</title>
<polygon fill="#c0c0c0" stroke="black" points="1218.5,-36 1164.5,-36 1164.5,0 1218.5,0 1218.5,-36"/>
<text text-anchor="middle" x="1191.5" y="-14.3" font-family="Times,serif" font-size="14.00">(...)</text>
</g>
<!-- 441&#45;&gt;451 -->
<g id="edge27" class="edge">
<title>441&#45;&gt;451</title>
<path fill="none" stroke="black" d="M1171.19,-71.76C1174.54,-63.04 1178.01,-54.04 1181.11,-45.99"/>
<polygon fill="black" stroke="black" points="1184.47,-46.99 1184.8,-36.41 1177.94,-44.48 1184.47,-46.99"/>
</g>
<!-- 497 -->
<g id="node30" class="node">
<title>497</title>
<polygon fill="#c0c0c0" stroke="black" points="1326.5,-36 1272.5,-36 1272.5,0 1326.5,0 1326.5,-36"/>
<text text-anchor="middle" x="1299.5" y="-14.3" font-family="Times,serif" font-size="14.00">(...)</text>
</g>
<!-- 496&#45;&gt;497 -->
<g id="edge29" class="edge">
<title>496&#45;&gt;497</title>
<path fill="none" stroke="black" d="M1319.81,-71.76C1316.46,-63.04 1312.99,-54.04 1309.89,-45.99"/>
<polygon fill="black" stroke="black" points="1313.06,-44.48 1306.2,-36.41 1306.53,-46.99 1313.06,-44.48"/>
</g>
<!-- 606 -->
<g id="node31" class="node">
<title>606</title>
<polygon fill="#c0c0c0" stroke="black" points="1398.5,-36 1344.5,-36 1344.5,0 1398.5,0 1398.5,-36"/>
<text text-anchor="middle" x="1371.5" y="-14.3" font-family="Times,serif" font-size="14.00">(...)</text>
</g>
<!-- 496&#45;&gt;606 -->
<g id="edge30" class="edge">
<title>496&#45;&gt;606</title>
<path fill="none" stroke="black" d="M1351.19,-71.76C1354.54,-63.04 1358.01,-54.04 1361.11,-45.99"/>
<polygon fill="black" stroke="black" points="1364.47,-46.99 1364.8,-36.41 1357.94,-44.48 1364.47,-46.99"/>
</g>
</g>
</svg>
