<?xml version="1.0" encoding="UTF-8" standalone="no"?>
<!DOCTYPE svg PUBLIC "-//W3C//DTD SVG 1.1//EN"
 "http://www.w3.org/Graphics/SVG/1.1/DTD/svg11.dtd">
<!-- Generated by graphviz version 2.43.0 (0)
 -->
<!-- Title: Tree Pages: 1 -->
<svg width="1676pt" height="520pt"
 viewBox="0.00 0.00 1675.50 520.00" xmlns="http://www.w3.org/2000/svg" xmlns:xlink="http://www.w3.org/1999/xlink">
<g id="graph0" class="graph" transform="scale(1 1) rotate(0) translate(4 516)">
<title>Tree</title>
<polygon fill="white" stroke="transparent" points="-4,4 -4,-516 1671.5,-516 1671.5,4 -4,4"/>
<!-- 0 -->
<g id="node1" class="node">
<title>0</title>
<polygon fill="#ebe0fb" stroke="black" points="968,-512 747,-512 747,-429 968,-429 968,-512"/>
<text text-anchor="middle" x="857.5" y="-496.8" font-family="Times,serif" font-size="14.00">CCR &lt;= 5.5</text>
<text text-anchor="middle" x="857.5" y="-481.8" font-family="Times,serif" font-size="14.00">gini = 0.634</text>
<text text-anchor="middle" x="857.5" y="-466.8" font-family="Times,serif" font-size="14.00">samples = 28293</text>
<text text-anchor="middle" x="857.5" y="-451.8" font-family="Times,serif" font-size="14.00">value = [5579, 9907, 12807]</text>
<text text-anchor="middle" x="857.5" y="-436.8" font-family="Times,serif" font-size="14.00">class = None</text>
</g>
<!-- 1 -->
<g id="node2" class="node">
<title>1</title>
<polygon fill="#b9f6d2" stroke="black" points="756.5,-393 544.5,-393 544.5,-310 756.5,-310 756.5,-393"/>
<text text-anchor="middle" x="650.5" y="-377.8" font-family="Times,serif" font-size="14.00">graphSize &lt;= 22.5</text>
<text text-anchor="middle" x="650.5" y="-362.8" font-family="Times,serif" font-size="14.00">gini = 0.592</text>
<text text-anchor="middle" x="650.5" y="-347.8" font-family="Times,serif" font-size="14.00">samples = 16895</text>
<text text-anchor="middle" x="650.5" y="-332.8" font-family="Times,serif" font-size="14.00">value = [4939, 9187, 2769]</text>
<text text-anchor="middle" x="650.5" y="-317.8" font-family="Times,serif" font-size="14.00">class = DCP</text>
</g>
<!-- 0&#45;&gt;1 -->
<g id="edge1" class="edge">
<title>0&#45;&gt;1</title>
<path fill="none" stroke="black" d="M785.68,-428.91C768.02,-418.92 749,-408.17 730.96,-397.98"/>
<polygon fill="black" stroke="black" points="732.62,-394.89 722.19,-393.02 729.17,-400.99 732.62,-394.89"/>
<text text-anchor="middle" x="728.88" y="-413.41" font-family="Times,serif" font-size="14.00">True</text>
</g>
<!-- 454 -->
<g id="node17" class="node">
<title>454</title>
<polygon fill="#9152e8" stroke="black" points="1178,-393 975,-393 975,-310 1178,-310 1178,-393"/>
<text text-anchor="middle" x="1076.5" y="-377.8" font-family="Times,serif" font-size="14.00">sdComp &lt;= 6.5</text>
<text text-anchor="middle" x="1076.5" y="-362.8" font-family="Times,serif" font-size="14.00">gini = 0.217</text>
<text text-anchor="middle" x="1076.5" y="-347.8" font-family="Times,serif" font-size="14.00">samples = 11398</text>
<text text-anchor="middle" x="1076.5" y="-332.8" font-family="Times,serif" font-size="14.00">value = [640, 720, 10038]</text>
<text text-anchor="middle" x="1076.5" y="-317.8" font-family="Times,serif" font-size="14.00">class = None</text>
</g>
<!-- 0&#45;&gt;454 -->
<g id="edge16" class="edge">
<title>0&#45;&gt;454</title>
<path fill="none" stroke="black" d="M933.48,-428.91C952.25,-418.88 972.48,-408.07 991.64,-397.84"/>
<polygon fill="black" stroke="black" points="993.48,-400.82 1000.65,-393.02 990.18,-394.65 993.48,-400.82"/>
<text text-anchor="middle" x="993.39" y="-413.24" font-family="Times,serif" font-size="14.00">False</text>
</g>
<!-- 2 -->
<g id="node3" class="node">
<title>2</title>
<polygon fill="#ccf8df" stroke="black" points="432.5,-274 220.5,-274 220.5,-191 432.5,-191 432.5,-274"/>
<text text-anchor="middle" x="326.5" y="-258.8" font-family="Times,serif" font-size="14.00">sdComm &lt;= 0.02</text>
<text text-anchor="middle" x="326.5" y="-243.8" font-family="Times,serif" font-size="14.00">gini = 0.597</text>
<text text-anchor="middle" x="326.5" y="-228.8" font-family="Times,serif" font-size="14.00">samples = 11277</text>
<text text-anchor="middle" x="326.5" y="-213.8" font-family="Times,serif" font-size="14.00">value = [3905, 5787, 1585]</text>
<text text-anchor="middle" x="326.5" y="-198.8" font-family="Times,serif" font-size="14.00">class = DCP</text>
</g>
<!-- 1&#45;&gt;2 -->
<g id="edge2" class="edge">
<title>1&#45;&gt;2</title>
<path fill="none" stroke="black" d="M544.41,-312.19C511.74,-300.39 475.61,-287.35 442.32,-275.32"/>
<polygon fill="black" stroke="black" points="443.15,-271.9 432.55,-271.8 440.77,-278.48 443.15,-271.9"/>
</g>
<!-- 137 -->
<g id="node10" class="node">
<title>137</title>
<polygon fill="#9cf2c0" stroke="black" points="756.5,-274 544.5,-274 544.5,-191 756.5,-191 756.5,-274"/>
<text text-anchor="middle" x="650.5" y="-258.8" font-family="Times,serif" font-size="14.00">sdComm &lt;= 0.65</text>
<text text-anchor="middle" x="650.5" y="-243.8" font-family="Times,serif" font-size="14.00">gini = 0.555</text>
<text text-anchor="middle" x="650.5" y="-228.8" font-family="Times,serif" font-size="14.00">samples = 5618</text>
<text text-anchor="middle" x="650.5" y="-213.8" font-family="Times,serif" font-size="14.00">value = [1034, 3400, 1184]</text>
<text text-anchor="middle" x="650.5" y="-198.8" font-family="Times,serif" font-size="14.00">class = DCP</text>
</g>
<!-- 1&#45;&gt;137 -->
<g id="edge9" class="edge">
<title>1&#45;&gt;137</title>
<path fill="none" stroke="black" d="M650.5,-309.91C650.5,-301.65 650.5,-292.86 650.5,-284.3"/>
<polygon fill="black" stroke="black" points="654,-284.02 650.5,-274.02 647,-284.02 654,-284.02"/>
</g>
<!-- 3 -->
<g id="node4" class="node">
<title>3</title>
<polygon fill="#fefbf8" stroke="black" points="203,-155 0,-155 0,-72 203,-72 203,-155"/>
<text text-anchor="middle" x="101.5" y="-139.8" font-family="Times,serif" font-size="14.00">sdComp &lt;= 0.02</text>
<text text-anchor="middle" x="101.5" y="-124.8" font-family="Times,serif" font-size="14.00">gini = 0.575</text>
<text text-anchor="middle" x="101.5" y="-109.8" font-family="Times,serif" font-size="14.00">samples = 2392</text>
<text text-anchor="middle" x="101.5" y="-94.8" font-family="Times,serif" font-size="14.00">value = [1114, 1070, 208]</text>
<text text-anchor="middle" x="101.5" y="-79.8" font-family="Times,serif" font-size="14.00">class = DLS/DC</text>
</g>
<!-- 2&#45;&gt;3 -->
<g id="edge3" class="edge">
<title>2&#45;&gt;3</title>
<path fill="none" stroke="black" d="M248.44,-190.91C229.07,-180.83 208.19,-169.98 188.42,-159.7"/>
<polygon fill="black" stroke="black" points="189.91,-156.53 179.42,-155.02 186.68,-162.74 189.91,-156.53"/>
</g>
<!-- 26 -->
<g id="node7" class="node">
<title>26</title>
<polygon fill="#c0f7d7" stroke="black" points="432.5,-155 220.5,-155 220.5,-72 432.5,-72 432.5,-155"/>
<text text-anchor="middle" x="326.5" y="-139.8" font-family="Times,serif" font-size="14.00">graphDepth &lt;= 3.5</text>
<text text-anchor="middle" x="326.5" y="-124.8" font-family="Times,serif" font-size="14.00">gini = 0.595</text>
<text text-anchor="middle" x="326.5" y="-109.8" font-family="Times,serif" font-size="14.00">samples = 8885</text>
<text text-anchor="middle" x="326.5" y="-94.8" font-family="Times,serif" font-size="14.00">value = [2791, 4717, 1377]</text>
<text text-anchor="middle" x="326.5" y="-79.8" font-family="Times,serif" font-size="14.00">class = DCP</text>
</g>
<!-- 2&#45;&gt;26 -->
<g id="edge6" class="edge">
<title>2&#45;&gt;26</title>
<path fill="none" stroke="black" d="M326.5,-190.91C326.5,-182.65 326.5,-173.86 326.5,-165.3"/>
<polygon fill="black" stroke="black" points="330,-165.02 326.5,-155.02 323,-165.02 330,-165.02"/>
</g>
<!-- 4 -->
<g id="node5" class="node">
<title>4</title>
<polygon fill="#c0c0c0" stroke="black" points="92.5,-36 38.5,-36 38.5,0 92.5,0 92.5,-36"/>
<text text-anchor="middle" x="65.5" y="-14.3" font-family="Times,serif" font-size="14.00">(...)</text>
</g>
<!-- 3&#45;&gt;4 -->
<g id="edge4" class="edge">
<title>3&#45;&gt;4</title>
<path fill="none" stroke="black" d="M85.81,-71.76C82.46,-63.04 78.99,-54.04 75.89,-45.99"/>
<polygon fill="black" stroke="black" points="79.06,-44.48 72.2,-36.41 72.53,-46.99 79.06,-44.48"/>
</g>
<!-- 11 -->
<g id="node6" class="node">
<title>11</title>
<polygon fill="#c0c0c0" stroke="black" points="164.5,-36 110.5,-36 110.5,0 164.5,0 164.5,-36"/>
<text text-anchor="middle" x="137.5" y="-14.3" font-family="Times,serif" font-size="14.00">(...)</text>
</g>
<!-- 3&#45;&gt;11 -->
<g id="edge5" class="edge">
<title>3&#45;&gt;11</title>
<path fill="none" stroke="black" d="M117.19,-71.76C120.54,-63.04 124.01,-54.04 127.11,-45.99"/>
<polygon fill="black" stroke="black" points="130.47,-46.99 130.8,-36.41 123.94,-44.48 130.47,-46.99"/>
</g>
<!-- 27 -->
<g id="node8" class="node">
<title>27</title>
<polygon fill="#c0c0c0" stroke="black" points="317.5,-36 263.5,-36 263.5,0 317.5,0 317.5,-36"/>
<text text-anchor="middle" x="290.5" y="-14.3" font-family="Times,serif" font-size="14.00">(...)</text>
</g>
<!-- 26&#45;&gt;27 -->
<g id="edge7" class="edge">
<title>26&#45;&gt;27</title>
<path fill="none" stroke="black" d="M310.81,-71.76C307.46,-63.04 303.99,-54.04 300.89,-45.99"/>
<polygon fill="black" stroke="black" points="304.06,-44.48 297.2,-36.41 297.53,-46.99 304.06,-44.48"/>
</g>
<!-- 78 -->
<g id="node9" class="node">
<title>78</title>
<polygon fill="#c0c0c0" stroke="black" points="389.5,-36 335.5,-36 335.5,0 389.5,0 389.5,-36"/>
<text text-anchor="middle" x="362.5" y="-14.3" font-family="Times,serif" font-size="14.00">(...)</text>
</g>
<!-- 26&#45;&gt;78 -->
<g id="edge8" class="edge">
<title>26&#45;&gt;78</title>
<path fill="none" stroke="black" d="M342.19,-71.76C345.54,-63.04 349.01,-54.04 352.11,-45.99"/>
<polygon fill="black" stroke="black" points="355.47,-46.99 355.8,-36.41 348.94,-44.48 355.47,-46.99"/>
</g>
<!-- 138 -->
<g id="node11" class="node">
<title>138</title>
<polygon fill="#98f1bd" stroke="black" points="653,-155 450,-155 450,-72 653,-72 653,-155"/>
<text text-anchor="middle" x="551.5" y="-139.8" font-family="Times,serif" font-size="14.00">graphSize &lt;= 75.0</text>
<text text-anchor="middle" x="551.5" y="-124.8" font-family="Times,serif" font-size="14.00">gini = 0.536</text>
<text text-anchor="middle" x="551.5" y="-109.8" font-family="Times,serif" font-size="14.00">samples = 4750</text>
<text text-anchor="middle" x="551.5" y="-94.8" font-family="Times,serif" font-size="14.00">value = [732, 2976, 1042]</text>
<text text-anchor="middle" x="551.5" y="-79.8" font-family="Times,serif" font-size="14.00">class = DCP</text>
</g>
<!-- 137&#45;&gt;138 -->
<g id="edge10" class="edge">
<title>137&#45;&gt;138</title>
<path fill="none" stroke="black" d="M616.15,-190.91C608.47,-181.83 600.26,-172.12 592.34,-162.77"/>
<polygon fill="black" stroke="black" points="594.92,-160.39 585.79,-155.02 589.57,-164.92 594.92,-160.39"/>
</g>
<!-- 399 -->
<g id="node14" class="node">
<title>399</title>
<polygon fill="#d4f9e4" stroke="black" points="856,-155 671,-155 671,-72 856,-72 856,-155"/>
<text text-anchor="middle" x="763.5" y="-139.8" font-family="Times,serif" font-size="14.00">sdComp &lt;= 0.2</text>
<text text-anchor="middle" x="763.5" y="-124.8" font-family="Times,serif" font-size="14.00">gini = 0.614</text>
<text text-anchor="middle" x="763.5" y="-109.8" font-family="Times,serif" font-size="14.00">samples = 868</text>
<text text-anchor="middle" x="763.5" y="-94.8" font-family="Times,serif" font-size="14.00">value = [302, 424, 142]</text>
<text text-anchor="middle" x="763.5" y="-79.8" font-family="Times,serif" font-size="14.00">class = DCP</text>
</g>
<!-- 137&#45;&gt;399 -->
<g id="edge13" class="edge">
<title>137&#45;&gt;399</title>
<path fill="none" stroke="black" d="M689.7,-190.91C698.56,-181.74 708.04,-171.93 717.15,-162.49"/>
<polygon fill="black" stroke="black" points="719.93,-164.65 724.36,-155.02 714.9,-159.78 719.93,-164.65"/>
</g>
<!-- 139 -->
<g id="node12" class="node">
<title>139</title>
<polygon fill="#c0c0c0" stroke="black" points="540.5,-36 486.5,-36 486.5,0 540.5,0 540.5,-36"/>
<text text-anchor="middle" x="513.5" y="-14.3" font-family="Times,serif" font-size="14.00">(...)</text>
</g>
<!-- 138&#45;&gt;139 -->
<g id="edge11" class="edge">
<title>138&#45;&gt;139</title>
<path fill="none" stroke="black" d="M534.94,-71.76C531.36,-62.94 527.66,-53.84 524.36,-45.72"/>
<polygon fill="black" stroke="black" points="527.58,-44.35 520.57,-36.41 521.1,-46.99 527.58,-44.35"/>
</g>
<!-- 330 -->
<g id="node13" class="node">
<title>330</title>
<polygon fill="#c0c0c0" stroke="black" points="612.5,-36 558.5,-36 558.5,0 612.5,0 612.5,-36"/>
<text text-anchor="middle" x="585.5" y="-14.3" font-family="Times,serif" font-size="14.00">(...)</text>
</g>
<!-- 138&#45;&gt;330 -->
<g id="edge12" class="edge">
<title>138&#45;&gt;330</title>
<path fill="none" stroke="black" d="M566.31,-71.76C569.48,-63.04 572.76,-54.04 575.68,-45.99"/>
<polygon fill="black" stroke="black" points="579.04,-47 579.17,-36.41 572.46,-44.61 579.04,-47"/>
</g>
<!-- 400 -->
<g id="node15" class="node">
<title>400</title>
<polygon fill="#c0c0c0" stroke="black" points="749.5,-36 695.5,-36 695.5,0 749.5,0 749.5,-36"/>
<text text-anchor="middle" x="722.5" y="-14.3" font-family="Times,serif" font-size="14.00">(...)</text>
</g>
<!-- 399&#45;&gt;400 -->
<g id="edge14" class="edge">
<title>399&#45;&gt;400</title>
<path fill="none" stroke="black" d="M745.64,-71.76C741.77,-62.94 737.78,-53.84 734.22,-45.72"/>
<polygon fill="black" stroke="black" points="737.35,-44.16 730.13,-36.41 730.94,-46.97 737.35,-44.16"/>
</g>
<!-- 413 -->
<g id="node16" class="node">
<title>413</title>
<polygon fill="#c0c0c0" stroke="black" points="821.5,-36 767.5,-36 767.5,0 821.5,0 821.5,-36"/>
<text text-anchor="middle" x="794.5" y="-14.3" font-family="Times,serif" font-size="14.00">(...)</text>
</g>
<!-- 399&#45;&gt;413 -->
<g id="edge15" class="edge">
<title>399&#45;&gt;413</title>
<path fill="none" stroke="black" d="M777.01,-71.76C779.9,-63.04 782.88,-54.04 785.55,-45.99"/>
<polygon fill="black" stroke="black" points="788.9,-47 788.73,-36.41 782.26,-44.8 788.9,-47"/>
</g>
<!-- 455 -->
<g id="node18" class="node">
<title>455</title>
<polygon fill="#8d4ce7" stroke="black" points="1173.5,-274 979.5,-274 979.5,-191 1173.5,-191 1173.5,-274"/>
<text text-anchor="middle" x="1076.5" y="-258.8" font-family="Times,serif" font-size="14.00">sdComm &lt;= 2.0</text>
<text text-anchor="middle" x="1076.5" y="-243.8" font-family="Times,serif" font-size="14.00">gini = 0.166</text>
<text text-anchor="middle" x="1076.5" y="-228.8" font-family="Times,serif" font-size="14.00">samples = 8422</text>
<text text-anchor="middle" x="1076.5" y="-213.8" font-family="Times,serif" font-size="14.00">value = [248, 504, 7670]</text>
<text text-anchor="middle" x="1076.5" y="-198.8" font-family="Times,serif" font-size="14.00">class = None</text>
</g>
<!-- 454&#45;&gt;455 -->
<g id="edge17" class="edge">
<title>454&#45;&gt;455</title>
<path fill="none" stroke="black" d="M1076.5,-309.91C1076.5,-301.65 1076.5,-292.86 1076.5,-284.3"/>
<polygon fill="black" stroke="black" points="1080,-284.02 1076.5,-274.02 1073,-284.02 1080,-284.02"/>
</g>
<!-- 550 -->
<g id="node25" class="node">
<title>550</title>
<polygon fill="#9f68eb" stroke="black" points="1491.5,-274 1297.5,-274 1297.5,-191 1491.5,-191 1491.5,-274"/>
<text text-anchor="middle" x="1394.5" y="-258.8" font-family="Times,serif" font-size="14.00">nbproc &lt;= 4.5</text>
<text text-anchor="middle" x="1394.5" y="-243.8" font-family="Times,serif" font-size="14.00">gini = 0.344</text>
<text text-anchor="middle" x="1394.5" y="-228.8" font-family="Times,serif" font-size="14.00">samples = 2976</text>
<text text-anchor="middle" x="1394.5" y="-213.8" font-family="Times,serif" font-size="14.00">value = [392, 216, 2368]</text>
<text text-anchor="middle" x="1394.5" y="-198.8" font-family="Times,serif" font-size="14.00">class = None</text>
</g>
<!-- 454&#45;&gt;550 -->
<g id="edge24" class="edge">
<title>454&#45;&gt;550</title>
<path fill="none" stroke="black" d="M1178.43,-313C1213.3,-300.17 1252.4,-285.78 1287.64,-272.81"/>
<polygon fill="black" stroke="black" points="1289.3,-275.93 1297.48,-269.2 1286.88,-269.36 1289.3,-275.93"/>
</g>
<!-- 456 -->
<g id="node19" class="node">
<title>456</title>
<polygon fill="#975be9" stroke="black" points="1067.5,-155 873.5,-155 873.5,-72 1067.5,-72 1067.5,-155"/>
<text text-anchor="middle" x="970.5" y="-139.8" font-family="Times,serif" font-size="14.00">graphDepth &lt;= 9.0</text>
<text text-anchor="middle" x="970.5" y="-124.8" font-family="Times,serif" font-size="14.00">gini = 0.273</text>
<text text-anchor="middle" x="970.5" y="-109.8" font-family="Times,serif" font-size="14.00">samples = 2634</text>
<text text-anchor="middle" x="970.5" y="-94.8" font-family="Times,serif" font-size="14.00">value = [140, 268, 2226]</text>
<text text-anchor="middle" x="970.5" y="-79.8" font-family="Times,serif" font-size="14.00">class = None</text>
</g>
<!-- 455&#45;&gt;456 -->
<g id="edge18" class="edge">
<title>455&#45;&gt;456</title>
<path fill="none" stroke="black" d="M1039.72,-190.91C1031.42,-181.74 1022.53,-171.93 1013.98,-162.49"/>
<polygon fill="black" stroke="black" points="1016.52,-160.08 1007.21,-155.02 1011.33,-164.78 1016.52,-160.08"/>
</g>
<!-- 495 -->
<g id="node22" class="node">
<title>495</title>
<polygon fill="#8945e7" stroke="black" points="1279.5,-155 1085.5,-155 1085.5,-72 1279.5,-72 1279.5,-155"/>
<text text-anchor="middle" x="1182.5" y="-139.8" font-family="Times,serif" font-size="14.00">graphSize &lt;= 75.0</text>
<text text-anchor="middle" x="1182.5" y="-124.8" font-family="Times,serif" font-size="14.00">gini = 0.113</text>
<text text-anchor="middle" x="1182.5" y="-109.8" font-family="Times,serif" font-size="14.00">samples = 5788</text>
<text text-anchor="middle" x="1182.5" y="-94.8" font-family="Times,serif" font-size="14.00">value = [108, 236, 5444]</text>
<text text-anchor="middle" x="1182.5" y="-79.8" font-family="Times,serif" font-size="14.00">class = None</text>
</g>
<!-- 455&#45;&gt;495 -->
<g id="edge21" class="edge">
<title>455&#45;&gt;495</title>
<path fill="none" stroke="black" d="M1113.28,-190.91C1121.58,-181.74 1130.47,-171.93 1139.02,-162.49"/>
<polygon fill="black" stroke="black" points="1141.67,-164.78 1145.79,-155.02 1136.48,-160.08 1141.67,-164.78"/>
</g>
<!-- 457 -->
<g id="node20" class="node">
<title>457</title>
<polygon fill="#c0c0c0" stroke="black" points="959.5,-36 905.5,-36 905.5,0 959.5,0 959.5,-36"/>
<text text-anchor="middle" x="932.5" y="-14.3" font-family="Times,serif" font-size="14.00">(...)</text>
</g>
<!-- 456&#45;&gt;457 -->
<g id="edge19" class="edge">
<title>456&#45;&gt;457</title>
<path fill="none" stroke="black" d="M953.94,-71.76C950.36,-62.94 946.66,-53.84 943.36,-45.72"/>
<polygon fill="black" stroke="black" points="946.58,-44.35 939.57,-36.41 940.1,-46.99 946.58,-44.35"/>
</g>
<!-- 470 -->
<g id="node21" class="node">
<title>470</title>
<polygon fill="#c0c0c0" stroke="black" points="1031.5,-36 977.5,-36 977.5,0 1031.5,0 1031.5,-36"/>
<text text-anchor="middle" x="1004.5" y="-14.3" font-family="Times,serif" font-size="14.00">(...)</text>
</g>
<!-- 456&#45;&gt;470 -->
<g id="edge20" class="edge">
<title>456&#45;&gt;470</title>
<path fill="none" stroke="black" d="M985.31,-71.76C988.48,-63.04 991.76,-54.04 994.68,-45.99"/>
<polygon fill="black" stroke="black" points="998.04,-47 998.17,-36.41 991.46,-44.61 998.04,-47"/>
</g>
<!-- 496 -->
<g id="node23" class="node">
<title>496</title>
<polygon fill="#c0c0c0" stroke="black" points="1171.5,-36 1117.5,-36 1117.5,0 1171.5,0 1171.5,-36"/>
<text text-anchor="middle" x="1144.5" y="-14.3" font-family="Times,serif" font-size="14.00">(...)</text>
</g>
<!-- 495&#45;&gt;496 -->
<g id="edge22" class="edge">
<title>495&#45;&gt;496</title>
<path fill="none" stroke="black" d="M1165.94,-71.76C1162.36,-62.94 1158.66,-53.84 1155.36,-45.72"/>
<polygon fill="black" stroke="black" points="1158.58,-44.35 1151.57,-36.41 1152.1,-46.99 1158.58,-44.35"/>
</g>
<!-- 539 -->
<g id="node24" class="node">
<title>539</title>
<polygon fill="#c0c0c0" stroke="black" points="1243.5,-36 1189.5,-36 1189.5,0 1243.5,0 1243.5,-36"/>
<text text-anchor="middle" x="1216.5" y="-14.3" font-family="Times,serif" font-size="14.00">(...)</text>
</g>
<!-- 495&#45;&gt;539 -->
<g id="edge23" class="edge">
<title>495&#45;&gt;539</title>
<path fill="none" stroke="black" d="M1197.31,-71.76C1200.48,-63.04 1203.76,-54.04 1206.68,-45.99"/>
<polygon fill="black" stroke="black" points="1210.04,-47 1210.17,-36.41 1203.46,-44.61 1210.04,-47"/>
</g>
<!-- 551 -->
<g id="node26" class="node">
<title>551</title>
<polygon fill="#ae80ee" stroke="black" points="1491.5,-155 1297.5,-155 1297.5,-72 1491.5,-72 1491.5,-155"/>
<text text-anchor="middle" x="1394.5" y="-139.8" font-family="Times,serif" font-size="14.00">sdComm &lt;= 6.5</text>
<text text-anchor="middle" x="1394.5" y="-124.8" font-family="Times,serif" font-size="14.00">gini = 0.452</text>
<text text-anchor="middle" x="1394.5" y="-109.8" font-family="Times,serif" font-size="14.00">samples = 1954</text>
<text text-anchor="middle" x="1394.5" y="-94.8" font-family="Times,serif" font-size="14.00">value = [360, 208, 1386]</text>
<text text-anchor="middle" x="1394.5" y="-79.8" font-family="Times,serif" font-size="14.00">class = None</text>
</g>
<!-- 550&#45;&gt;551 -->
<g id="edge25" class="edge">
<title>550&#45;&gt;551</title>
<path fill="none" stroke="black" d="M1394.5,-190.91C1394.5,-182.65 1394.5,-173.86 1394.5,-165.3"/>
<polygon fill="black" stroke="black" points="1398,-165.02 1394.5,-155.02 1391,-165.02 1398,-165.02"/>
</g>
<!-- 588 -->
<g id="node29" class="node">
<title>588</title>
<polygon fill="#8641e6" stroke="black" points="1667.5,-155 1509.5,-155 1509.5,-72 1667.5,-72 1667.5,-155"/>
<text text-anchor="middle" x="1588.5" y="-139.8" font-family="Times,serif" font-size="14.00">graphSize &lt;= 40.0</text>
<text text-anchor="middle" x="1588.5" y="-124.8" font-family="Times,serif" font-size="14.00">gini = 0.076</text>
<text text-anchor="middle" x="1588.5" y="-109.8" font-family="Times,serif" font-size="14.00">samples = 1022</text>
<text text-anchor="middle" x="1588.5" y="-94.8" font-family="Times,serif" font-size="14.00">value = [32, 8, 982]</text>
<text text-anchor="middle" x="1588.5" y="-79.8" font-family="Times,serif" font-size="14.00">class = None</text>
</g>
<!-- 550&#45;&gt;588 -->
<g id="edge28" class="edge">
<title>550&#45;&gt;588</title>
<path fill="none" stroke="black" d="M1461.81,-190.91C1478.21,-181.02 1495.86,-170.37 1512.63,-160.25"/>
<polygon fill="black" stroke="black" points="1514.56,-163.18 1521.31,-155.02 1510.94,-157.19 1514.56,-163.18"/>
</g>
<!-- 552 -->
<g id="node27" class="node">
<title>552</title>
<polygon fill="#c0c0c0" stroke="black" points="1385.5,-36 1331.5,-36 1331.5,0 1385.5,0 1385.5,-36"/>
<text text-anchor="middle" x="1358.5" y="-14.3" font-family="Times,serif" font-size="14.00">(...)</text>
</g>
<!-- 551&#45;&gt;552 -->
<g id="edge26" class="edge">
<title>551&#45;&gt;552</title>
<path fill="none" stroke="black" d="M1378.81,-71.76C1375.46,-63.04 1371.99,-54.04 1368.89,-45.99"/>
<polygon fill="black" stroke="black" points="1372.06,-44.48 1365.2,-36.41 1365.53,-46.99 1372.06,-44.48"/>
</g>
<!-- 577 -->
<g id="node28" class="node">
<title>577</title>
<polygon fill="#c0c0c0" stroke="black" points="1457.5,-36 1403.5,-36 1403.5,0 1457.5,0 1457.5,-36"/>
<text text-anchor="middle" x="1430.5" y="-14.3" font-family="Times,serif" font-size="14.00">(...)</text>
</g>
<!-- 551&#45;&gt;577 -->
<g id="edge27" class="edge">
<title>551&#45;&gt;577</title>
<path fill="none" stroke="black" d="M1410.19,-71.76C1413.54,-63.04 1417.01,-54.04 1420.11,-45.99"/>
<polygon fill="black" stroke="black" points="1423.47,-46.99 1423.8,-36.41 1416.94,-44.48 1423.47,-46.99"/>
</g>
<!-- 589 -->
<g id="node30" class="node">
<title>589</title>
<polygon fill="#c0c0c0" stroke="black" points="1579.5,-36 1525.5,-36 1525.5,0 1579.5,0 1579.5,-36"/>
<text text-anchor="middle" x="1552.5" y="-14.3" font-family="Times,serif" font-size="14.00">(...)</text>
</g>
<!-- 588&#45;&gt;589 -->
<g id="edge29" class="edge">
<title>588&#45;&gt;589</title>
<path fill="none" stroke="black" d="M1572.81,-71.76C1569.46,-63.04 1565.99,-54.04 1562.89,-45.99"/>
<polygon fill="black" stroke="black" points="1566.06,-44.48 1559.2,-36.41 1559.53,-46.99 1566.06,-44.48"/>
</g>
<!-- 600 -->
<g id="node31" class="node">
<title>600</title>
<polygon fill="#c0c0c0" stroke="black" points="1651.5,-36 1597.5,-36 1597.5,0 1651.5,0 1651.5,-36"/>
<text text-anchor="middle" x="1624.5" y="-14.3" font-family="Times,serif" font-size="14.00">(...)</text>
</g>
<!-- 588&#45;&gt;600 -->
<g id="edge30" class="edge">
<title>588&#45;&gt;600</title>
<path fill="none" stroke="black" d="M1604.19,-71.76C1607.54,-63.04 1611.01,-54.04 1614.11,-45.99"/>
<polygon fill="black" stroke="black" points="1617.47,-46.99 1617.8,-36.41 1610.94,-44.48 1617.47,-46.99"/>
</g>
</g>
</svg>
