<?xml version="1.0" encoding="UTF-8" standalone="no"?>
<!DOCTYPE svg PUBLIC "-//W3C//DTD SVG 1.1//EN"
 "http://www.w3.org/Graphics/SVG/1.1/DTD/svg11.dtd">
<!-- Generated by graphviz version 2.43.0 (0)
 -->
<!-- Title: Tree Pages: 1 -->
<svg width="1398pt" height="520pt"
 viewBox="0.00 0.00 1398.00 520.00" xmlns="http://www.w3.org/2000/svg" xmlns:xlink="http://www.w3.org/1999/xlink">
<g id="graph0" class="graph" transform="scale(1 1) rotate(0) translate(4 516)">
<title>Tree</title>
<polygon fill="white" stroke="transparent" points="-4,4 -4,-516 1394,-516 1394,4 -4,4"/>
<!-- 0 -->
<g id="node1" class="node">
<title>0</title>
<polygon fill="#fef9f6" stroke="black" points="796,-512 611,-512 611,-429 796,-429 796,-512"/>
<text text-anchor="middle" x="703.5" y="-496.8" font-family="Times,serif" font-size="14.00">CCR &lt;= 5.5</text>
<text text-anchor="middle" x="703.5" y="-481.8" font-family="Times,serif" font-size="14.00">gini = 0.5</text>
<text text-anchor="middle" x="703.5" y="-466.8" font-family="Times,serif" font-size="14.00">samples = 28293</text>
<text text-anchor="middle" x="703.5" y="-451.8" font-family="Times,serif" font-size="14.00">value = [14484, 13809]</text>
<text text-anchor="middle" x="703.5" y="-436.8" font-family="Times,serif" font-size="14.00">class = False</text>
</g>
<!-- 1 -->
<g id="node2" class="node">
<title>1</title>
<polygon fill="#deeffb" stroke="black" points="616,-393 449,-393 449,-310 616,-310 616,-393"/>
<text text-anchor="middle" x="532.5" y="-377.8" font-family="Times,serif" font-size="14.00">graphDepth &lt;= 9.0</text>
<text text-anchor="middle" x="532.5" y="-362.8" font-family="Times,serif" font-size="14.00">gini = 0.496</text>
<text text-anchor="middle" x="532.5" y="-347.8" font-family="Times,serif" font-size="14.00">samples = 16895</text>
<text text-anchor="middle" x="532.5" y="-332.8" font-family="Times,serif" font-size="14.00">value = [7684, 9211]</text>
<text text-anchor="middle" x="532.5" y="-317.8" font-family="Times,serif" font-size="14.00">class = True</text>
</g>
<!-- 0&#45;&gt;1 -->
<g id="edge1" class="edge">
<title>0&#45;&gt;1</title>
<path fill="none" stroke="black" d="M644.17,-428.91C629.98,-419.2 614.72,-408.76 600.19,-398.81"/>
<polygon fill="black" stroke="black" points="601.95,-395.78 591.72,-393.02 598,-401.56 601.95,-395.78"/>
<text text-anchor="middle" x="596.33" y="-413.89" font-family="Times,serif" font-size="14.00">True</text>
</g>
<!-- 454 -->
<g id="node17" class="node">
<title>454</title>
<polygon fill="#f7d6bf" stroke="black" points="966,-393 799,-393 799,-310 966,-310 966,-393"/>
<text text-anchor="middle" x="882.5" y="-377.8" font-family="Times,serif" font-size="14.00">graphDepth &lt;= 25.5</text>
<text text-anchor="middle" x="882.5" y="-362.8" font-family="Times,serif" font-size="14.00">gini = 0.481</text>
<text text-anchor="middle" x="882.5" y="-347.8" font-family="Times,serif" font-size="14.00">samples = 11398</text>
<text text-anchor="middle" x="882.5" y="-332.8" font-family="Times,serif" font-size="14.00">value = [6800, 4598]</text>
<text text-anchor="middle" x="882.5" y="-317.8" font-family="Times,serif" font-size="14.00">class = False</text>
</g>
<!-- 0&#45;&gt;454 -->
<g id="edge16" class="edge">
<title>0&#45;&gt;454</title>
<path fill="none" stroke="black" d="M765.6,-428.91C780.6,-419.11 796.73,-408.56 812.07,-398.53"/>
<polygon fill="black" stroke="black" points="814.05,-401.42 820.51,-393.02 810.22,-395.56 814.05,-401.42"/>
<text text-anchor="middle" x="815.38" y="-413.79" font-family="Times,serif" font-size="14.00">False</text>
</g>
<!-- 2 -->
<g id="node3" class="node">
<title>2</title>
<polygon fill="#edf6fd" stroke="black" points="352,-274 185,-274 185,-191 352,-191 352,-274"/>
<text text-anchor="middle" x="268.5" y="-258.8" font-family="Times,serif" font-size="14.00">graphDepth &lt;= 3.5</text>
<text text-anchor="middle" x="268.5" y="-243.8" font-family="Times,serif" font-size="14.00">gini = 0.499</text>
<text text-anchor="middle" x="268.5" y="-228.8" font-family="Times,serif" font-size="14.00">samples = 13101</text>
<text text-anchor="middle" x="268.5" y="-213.8" font-family="Times,serif" font-size="14.00">value = [6240, 6861]</text>
<text text-anchor="middle" x="268.5" y="-198.8" font-family="Times,serif" font-size="14.00">class = True</text>
</g>
<!-- 1&#45;&gt;2 -->
<g id="edge2" class="edge">
<title>1&#45;&gt;2</title>
<path fill="none" stroke="black" d="M448.97,-313.48C421.16,-301.16 390.02,-287.36 361.54,-274.73"/>
<polygon fill="black" stroke="black" points="362.95,-271.53 352.39,-270.68 360.12,-277.93 362.95,-271.53"/>
</g>
<!-- 247 -->
<g id="node10" class="node">
<title>247</title>
<polygon fill="#b3d9f5" stroke="black" points="616,-274 449,-274 449,-191 616,-191 616,-274"/>
<text text-anchor="middle" x="532.5" y="-258.8" font-family="Times,serif" font-size="14.00">graphSize &lt;= 75.0</text>
<text text-anchor="middle" x="532.5" y="-243.8" font-family="Times,serif" font-size="14.00">gini = 0.471</text>
<text text-anchor="middle" x="532.5" y="-228.8" font-family="Times,serif" font-size="14.00">samples = 3794</text>
<text text-anchor="middle" x="532.5" y="-213.8" font-family="Times,serif" font-size="14.00">value = [1444, 2350]</text>
<text text-anchor="middle" x="532.5" y="-198.8" font-family="Times,serif" font-size="14.00">class = True</text>
</g>
<!-- 1&#45;&gt;247 -->
<g id="edge9" class="edge">
<title>1&#45;&gt;247</title>
<path fill="none" stroke="black" d="M532.5,-309.91C532.5,-301.65 532.5,-292.86 532.5,-284.3"/>
<polygon fill="black" stroke="black" points="536,-284.02 532.5,-274.02 529,-284.02 536,-284.02"/>
</g>
<!-- 3 -->
<g id="node4" class="node">
<title>3</title>
<polygon fill="#cce6f8" stroke="black" points="167,-155 0,-155 0,-72 167,-72 167,-155"/>
<text text-anchor="middle" x="83.5" y="-139.8" font-family="Times,serif" font-size="14.00">sdComm &lt;= 0.02</text>
<text text-anchor="middle" x="83.5" y="-124.8" font-family="Times,serif" font-size="14.00">gini = 0.489</text>
<text text-anchor="middle" x="83.5" y="-109.8" font-family="Times,serif" font-size="14.00">samples = 2709</text>
<text text-anchor="middle" x="83.5" y="-94.8" font-family="Times,serif" font-size="14.00">value = [1156, 1553]</text>
<text text-anchor="middle" x="83.5" y="-79.8" font-family="Times,serif" font-size="14.00">class = True</text>
</g>
<!-- 2&#45;&gt;3 -->
<g id="edge3" class="edge">
<title>2&#45;&gt;3</title>
<path fill="none" stroke="black" d="M204.32,-190.91C188.82,-181.11 172.15,-170.56 156.29,-160.53"/>
<polygon fill="black" stroke="black" points="157.89,-157.41 147.57,-155.02 154.15,-163.32 157.89,-157.41"/>
</g>
<!-- 68 -->
<g id="node7" class="node">
<title>68</title>
<polygon fill="#f7fbfe" stroke="black" points="352,-155 185,-155 185,-72 352,-72 352,-155"/>
<text text-anchor="middle" x="268.5" y="-139.8" font-family="Times,serif" font-size="14.00">sdComp &lt;= 0.02</text>
<text text-anchor="middle" x="268.5" y="-124.8" font-family="Times,serif" font-size="14.00">gini = 0.5</text>
<text text-anchor="middle" x="268.5" y="-109.8" font-family="Times,serif" font-size="14.00">samples = 10392</text>
<text text-anchor="middle" x="268.5" y="-94.8" font-family="Times,serif" font-size="14.00">value = [5084, 5308]</text>
<text text-anchor="middle" x="268.5" y="-79.8" font-family="Times,serif" font-size="14.00">class = True</text>
</g>
<!-- 2&#45;&gt;68 -->
<g id="edge6" class="edge">
<title>2&#45;&gt;68</title>
<path fill="none" stroke="black" d="M268.5,-190.91C268.5,-182.65 268.5,-173.86 268.5,-165.3"/>
<polygon fill="black" stroke="black" points="272,-165.02 268.5,-155.02 265,-165.02 272,-165.02"/>
</g>
<!-- 4 -->
<g id="node5" class="node">
<title>4</title>
<polygon fill="#c0c0c0" stroke="black" points="74.5,-36 20.5,-36 20.5,0 74.5,0 74.5,-36"/>
<text text-anchor="middle" x="47.5" y="-14.3" font-family="Times,serif" font-size="14.00">(...)</text>
</g>
<!-- 3&#45;&gt;4 -->
<g id="edge4" class="edge">
<title>3&#45;&gt;4</title>
<path fill="none" stroke="black" d="M67.81,-71.76C64.46,-63.04 60.99,-54.04 57.89,-45.99"/>
<polygon fill="black" stroke="black" points="61.06,-44.48 54.2,-36.41 54.53,-46.99 61.06,-44.48"/>
</g>
<!-- 15 -->
<g id="node6" class="node">
<title>15</title>
<polygon fill="#c0c0c0" stroke="black" points="146.5,-36 92.5,-36 92.5,0 146.5,0 146.5,-36"/>
<text text-anchor="middle" x="119.5" y="-14.3" font-family="Times,serif" font-size="14.00">(...)</text>
</g>
<!-- 3&#45;&gt;15 -->
<g id="edge5" class="edge">
<title>3&#45;&gt;15</title>
<path fill="none" stroke="black" d="M99.19,-71.76C102.54,-63.04 106.01,-54.04 109.11,-45.99"/>
<polygon fill="black" stroke="black" points="112.47,-46.99 112.8,-36.41 105.94,-44.48 112.47,-46.99"/>
</g>
<!-- 69 -->
<g id="node8" class="node">
<title>69</title>
<polygon fill="#c0c0c0" stroke="black" points="260.5,-36 206.5,-36 206.5,0 260.5,0 260.5,-36"/>
<text text-anchor="middle" x="233.5" y="-14.3" font-family="Times,serif" font-size="14.00">(...)</text>
</g>
<!-- 68&#45;&gt;69 -->
<g id="edge7" class="edge">
<title>68&#45;&gt;69</title>
<path fill="none" stroke="black" d="M253.25,-71.76C249.99,-63.04 246.62,-54.04 243.6,-45.99"/>
<polygon fill="black" stroke="black" points="246.8,-44.54 240.02,-36.41 240.24,-47 246.8,-44.54"/>
</g>
<!-- 102 -->
<g id="node9" class="node">
<title>102</title>
<polygon fill="#c0c0c0" stroke="black" points="332.5,-36 278.5,-36 278.5,0 332.5,0 332.5,-36"/>
<text text-anchor="middle" x="305.5" y="-14.3" font-family="Times,serif" font-size="14.00">(...)</text>
</g>
<!-- 68&#45;&gt;102 -->
<g id="edge8" class="edge">
<title>68&#45;&gt;102</title>
<path fill="none" stroke="black" d="M284.62,-71.76C288.11,-62.94 291.71,-53.84 294.92,-45.72"/>
<polygon fill="black" stroke="black" points="298.19,-46.99 298.61,-36.41 291.68,-44.42 298.19,-46.99"/>
</g>
<!-- 248 -->
<g id="node11" class="node">
<title>248</title>
<polygon fill="#c2e1f7" stroke="black" points="537,-155 370,-155 370,-72 537,-72 537,-155"/>
<text text-anchor="middle" x="453.5" y="-139.8" font-family="Times,serif" font-size="14.00">CCR &lt;= 0.55</text>
<text text-anchor="middle" x="453.5" y="-124.8" font-family="Times,serif" font-size="14.00">gini = 0.483</text>
<text text-anchor="middle" x="453.5" y="-109.8" font-family="Times,serif" font-size="14.00">samples = 2910</text>
<text text-anchor="middle" x="453.5" y="-94.8" font-family="Times,serif" font-size="14.00">value = [1190, 1720]</text>
<text text-anchor="middle" x="453.5" y="-79.8" font-family="Times,serif" font-size="14.00">class = True</text>
</g>
<!-- 247&#45;&gt;248 -->
<g id="edge10" class="edge">
<title>247&#45;&gt;248</title>
<path fill="none" stroke="black" d="M505.09,-190.91C499.09,-182.01 492.67,-172.51 486.47,-163.33"/>
<polygon fill="black" stroke="black" points="489.36,-161.35 480.86,-155.02 483.56,-165.27 489.36,-161.35"/>
</g>
<!-- 369 -->
<g id="node14" class="node">
<title>369</title>
<polygon fill="#89c5ef" stroke="black" points="704,-155 555,-155 555,-72 704,-72 704,-155"/>
<text text-anchor="middle" x="629.5" y="-139.8" font-family="Times,serif" font-size="14.00">sdComm &lt;= 0.2</text>
<text text-anchor="middle" x="629.5" y="-124.8" font-family="Times,serif" font-size="14.00">gini = 0.41</text>
<text text-anchor="middle" x="629.5" y="-109.8" font-family="Times,serif" font-size="14.00">samples = 884</text>
<text text-anchor="middle" x="629.5" y="-94.8" font-family="Times,serif" font-size="14.00">value = [254, 630]</text>
<text text-anchor="middle" x="629.5" y="-79.8" font-family="Times,serif" font-size="14.00">class = True</text>
</g>
<!-- 247&#45;&gt;369 -->
<g id="edge13" class="edge">
<title>247&#45;&gt;369</title>
<path fill="none" stroke="black" d="M566.15,-190.91C573.68,-181.83 581.73,-172.12 589.48,-162.77"/>
<polygon fill="black" stroke="black" points="592.22,-164.95 595.91,-155.02 586.83,-160.49 592.22,-164.95"/>
</g>
<!-- 249 -->
<g id="node12" class="node">
<title>249</title>
<polygon fill="#c0c0c0" stroke="black" points="424.5,-36 370.5,-36 370.5,0 424.5,0 424.5,-36"/>
<text text-anchor="middle" x="397.5" y="-14.3" font-family="Times,serif" font-size="14.00">(...)</text>
</g>
<!-- 248&#45;&gt;249 -->
<g id="edge11" class="edge">
<title>248&#45;&gt;249</title>
<path fill="none" stroke="black" d="M429.1,-71.76C423.7,-62.75 418.13,-53.44 413.19,-45.19"/>
<polygon fill="black" stroke="black" points="416.07,-43.19 407.92,-36.41 410.06,-46.78 416.07,-43.19"/>
</g>
<!-- 308 -->
<g id="node13" class="node">
<title>308</title>
<polygon fill="#c0c0c0" stroke="black" points="496.5,-36 442.5,-36 442.5,0 496.5,0 496.5,-36"/>
<text text-anchor="middle" x="469.5" y="-14.3" font-family="Times,serif" font-size="14.00">(...)</text>
</g>
<!-- 248&#45;&gt;308 -->
<g id="edge12" class="edge">
<title>248&#45;&gt;308</title>
<path fill="none" stroke="black" d="M460.47,-71.76C461.93,-63.24 463.44,-54.44 464.79,-46.53"/>
<polygon fill="black" stroke="black" points="468.28,-46.85 466.52,-36.41 461.38,-45.67 468.28,-46.85"/>
</g>
<!-- 370 -->
<g id="node15" class="node">
<title>370</title>
<polygon fill="#c0c0c0" stroke="black" points="595.5,-36 541.5,-36 541.5,0 595.5,0 595.5,-36"/>
<text text-anchor="middle" x="568.5" y="-14.3" font-family="Times,serif" font-size="14.00">(...)</text>
</g>
<!-- 369&#45;&gt;370 -->
<g id="edge14" class="edge">
<title>369&#45;&gt;370</title>
<path fill="none" stroke="black" d="M602.92,-71.76C596.98,-62.65 590.84,-53.24 585.41,-44.92"/>
<polygon fill="black" stroke="black" points="588.25,-42.87 579.86,-36.41 582.39,-46.69 588.25,-42.87"/>
</g>
<!-- 417 -->
<g id="node16" class="node">
<title>417</title>
<polygon fill="#c0c0c0" stroke="black" points="667.5,-36 613.5,-36 613.5,0 667.5,0 667.5,-36"/>
<text text-anchor="middle" x="640.5" y="-14.3" font-family="Times,serif" font-size="14.00">(...)</text>
</g>
<!-- 369&#45;&gt;417 -->
<g id="edge15" class="edge">
<title>369&#45;&gt;417</title>
<path fill="none" stroke="black" d="M634.29,-71.76C635.3,-63.24 636.33,-54.44 637.26,-46.53"/>
<polygon fill="black" stroke="black" points="640.76,-46.75 638.45,-36.41 633.81,-45.93 640.76,-46.75"/>
</g>
<!-- 455 -->
<g id="node18" class="node">
<title>455</title>
<polygon fill="#f7dac5" stroke="black" points="966,-274 799,-274 799,-191 966,-191 966,-274"/>
<text text-anchor="middle" x="882.5" y="-258.8" font-family="Times,serif" font-size="14.00">graphDepth &lt;= 3.5</text>
<text text-anchor="middle" x="882.5" y="-243.8" font-family="Times,serif" font-size="14.00">gini = 0.485</text>
<text text-anchor="middle" x="882.5" y="-228.8" font-family="Times,serif" font-size="14.00">samples = 9846</text>
<text text-anchor="middle" x="882.5" y="-213.8" font-family="Times,serif" font-size="14.00">value = [5770, 4076]</text>
<text text-anchor="middle" x="882.5" y="-198.8" font-family="Times,serif" font-size="14.00">class = False</text>
</g>
<!-- 454&#45;&gt;455 -->
<g id="edge17" class="edge">
<title>454&#45;&gt;455</title>
<path fill="none" stroke="black" d="M882.5,-309.91C882.5,-301.65 882.5,-292.86 882.5,-284.3"/>
<polygon fill="black" stroke="black" points="886,-284.02 882.5,-274.02 879,-284.02 886,-284.02"/>
</g>
<!-- 696 -->
<g id="node25" class="node">
<title>696</title>
<polygon fill="#f2c19d" stroke="black" points="1227.5,-274 1069.5,-274 1069.5,-191 1227.5,-191 1227.5,-274"/>
<text text-anchor="middle" x="1148.5" y="-258.8" font-family="Times,serif" font-size="14.00">sdComm &lt;= 6.5</text>
<text text-anchor="middle" x="1148.5" y="-243.8" font-family="Times,serif" font-size="14.00">gini = 0.446</text>
<text text-anchor="middle" x="1148.5" y="-228.8" font-family="Times,serif" font-size="14.00">samples = 1552</text>
<text text-anchor="middle" x="1148.5" y="-213.8" font-family="Times,serif" font-size="14.00">value = [1030, 522]</text>
<text text-anchor="middle" x="1148.5" y="-198.8" font-family="Times,serif" font-size="14.00">class = False</text>
</g>
<!-- 454&#45;&gt;696 -->
<g id="edge24" class="edge">
<title>454&#45;&gt;696</title>
<path fill="none" stroke="black" d="M966.3,-313.64C996.11,-300.53 1029.76,-285.73 1059.95,-272.45"/>
<polygon fill="black" stroke="black" points="1061.46,-275.61 1069.2,-268.38 1058.64,-269.2 1061.46,-275.61"/>
</g>
<!-- 456 -->
<g id="node19" class="node">
<title>456</title>
<polygon fill="#fefdfb" stroke="black" points="871,-155 722,-155 722,-72 871,-72 871,-155"/>
<text text-anchor="middle" x="796.5" y="-139.8" font-family="Times,serif" font-size="14.00">sdComm &lt;= 6.5</text>
<text text-anchor="middle" x="796.5" y="-124.8" font-family="Times,serif" font-size="14.00">gini = 0.5</text>
<text text-anchor="middle" x="796.5" y="-109.8" font-family="Times,serif" font-size="14.00">samples = 820</text>
<text text-anchor="middle" x="796.5" y="-94.8" font-family="Times,serif" font-size="14.00">value = [414, 406]</text>
<text text-anchor="middle" x="796.5" y="-79.8" font-family="Times,serif" font-size="14.00">class = False</text>
</g>
<!-- 455&#45;&gt;456 -->
<g id="edge18" class="edge">
<title>455&#45;&gt;456</title>
<path fill="none" stroke="black" d="M852.66,-190.91C846.13,-182.01 839.14,-172.51 832.39,-163.33"/>
<polygon fill="black" stroke="black" points="835.03,-161.01 826.28,-155.02 829.39,-165.15 835.03,-161.01"/>
</g>
<!-- 489 -->
<g id="node22" class="node">
<title>489</title>
<polygon fill="#f7d7c1" stroke="black" points="1056,-155 889,-155 889,-72 1056,-72 1056,-155"/>
<text text-anchor="middle" x="972.5" y="-139.8" font-family="Times,serif" font-size="14.00">sdComp &lt;= 2.0</text>
<text text-anchor="middle" x="972.5" y="-124.8" font-family="Times,serif" font-size="14.00">gini = 0.483</text>
<text text-anchor="middle" x="972.5" y="-109.8" font-family="Times,serif" font-size="14.00">samples = 9026</text>
<text text-anchor="middle" x="972.5" y="-94.8" font-family="Times,serif" font-size="14.00">value = [5356, 3670]</text>
<text text-anchor="middle" x="972.5" y="-79.8" font-family="Times,serif" font-size="14.00">class = False</text>
</g>
<!-- 455&#45;&gt;489 -->
<g id="edge21" class="edge">
<title>455&#45;&gt;489</title>
<path fill="none" stroke="black" d="M913.73,-190.91C920.64,-181.92 928.03,-172.32 935.15,-163.05"/>
<polygon fill="black" stroke="black" points="938.01,-165.08 941.33,-155.02 932.46,-160.81 938.01,-165.08"/>
</g>
<!-- 457 -->
<g id="node20" class="node">
<title>457</title>
<polygon fill="#c0c0c0" stroke="black" points="767.5,-36 713.5,-36 713.5,0 767.5,0 767.5,-36"/>
<text text-anchor="middle" x="740.5" y="-14.3" font-family="Times,serif" font-size="14.00">(...)</text>
</g>
<!-- 456&#45;&gt;457 -->
<g id="edge19" class="edge">
<title>456&#45;&gt;457</title>
<path fill="none" stroke="black" d="M772.1,-71.76C766.7,-62.75 761.13,-53.44 756.19,-45.19"/>
<polygon fill="black" stroke="black" points="759.07,-43.19 750.92,-36.41 753.06,-46.78 759.07,-43.19"/>
</g>
<!-- 478 -->
<g id="node21" class="node">
<title>478</title>
<polygon fill="#c0c0c0" stroke="black" points="839.5,-36 785.5,-36 785.5,0 839.5,0 839.5,-36"/>
<text text-anchor="middle" x="812.5" y="-14.3" font-family="Times,serif" font-size="14.00">(...)</text>
</g>
<!-- 456&#45;&gt;478 -->
<g id="edge20" class="edge">
<title>456&#45;&gt;478</title>
<path fill="none" stroke="black" d="M803.47,-71.76C804.93,-63.24 806.44,-54.44 807.79,-46.53"/>
<polygon fill="black" stroke="black" points="811.28,-46.85 809.52,-36.41 804.38,-45.67 811.28,-46.85"/>
</g>
<!-- 490 -->
<g id="node23" class="node">
<title>490</title>
<polygon fill="#c0c0c0" stroke="black" points="943.5,-36 889.5,-36 889.5,0 943.5,0 943.5,-36"/>
<text text-anchor="middle" x="916.5" y="-14.3" font-family="Times,serif" font-size="14.00">(...)</text>
</g>
<!-- 489&#45;&gt;490 -->
<g id="edge22" class="edge">
<title>489&#45;&gt;490</title>
<path fill="none" stroke="black" d="M948.1,-71.76C942.7,-62.75 937.13,-53.44 932.19,-45.19"/>
<polygon fill="black" stroke="black" points="935.07,-43.19 926.92,-36.41 929.06,-46.78 935.07,-43.19"/>
</g>
<!-- 559 -->
<g id="node24" class="node">
<title>559</title>
<polygon fill="#c0c0c0" stroke="black" points="1015.5,-36 961.5,-36 961.5,0 1015.5,0 1015.5,-36"/>
<text text-anchor="middle" x="988.5" y="-14.3" font-family="Times,serif" font-size="14.00">(...)</text>
</g>
<!-- 489&#45;&gt;559 -->
<g id="edge23" class="edge">
<title>489&#45;&gt;559</title>
<path fill="none" stroke="black" d="M979.47,-71.76C980.93,-63.24 982.44,-54.44 983.79,-46.53"/>
<polygon fill="black" stroke="black" points="987.28,-46.85 985.52,-36.41 980.38,-45.67 987.28,-46.85"/>
</g>
<!-- 697 -->
<g id="node26" class="node">
<title>697</title>
<polygon fill="#f5d0b5" stroke="black" points="1223,-155 1074,-155 1074,-72 1223,-72 1223,-155"/>
<text text-anchor="middle" x="1148.5" y="-139.8" font-family="Times,serif" font-size="14.00">sdComp &lt;= 6.5</text>
<text text-anchor="middle" x="1148.5" y="-124.8" font-family="Times,serif" font-size="14.00">gini = 0.473</text>
<text text-anchor="middle" x="1148.5" y="-109.8" font-family="Times,serif" font-size="14.00">samples = 1072</text>
<text text-anchor="middle" x="1148.5" y="-94.8" font-family="Times,serif" font-size="14.00">value = [660, 412]</text>
<text text-anchor="middle" x="1148.5" y="-79.8" font-family="Times,serif" font-size="14.00">class = False</text>
</g>
<!-- 696&#45;&gt;697 -->
<g id="edge25" class="edge">
<title>696&#45;&gt;697</title>
<path fill="none" stroke="black" d="M1148.5,-190.91C1148.5,-182.65 1148.5,-173.86 1148.5,-165.3"/>
<polygon fill="black" stroke="black" points="1152,-165.02 1148.5,-155.02 1145,-165.02 1152,-165.02"/>
</g>
<!-- 720 -->
<g id="node29" class="node">
<title>720</title>
<polygon fill="#eda674" stroke="black" points="1390,-155 1241,-155 1241,-72 1390,-72 1390,-155"/>
<text text-anchor="middle" x="1315.5" y="-139.8" font-family="Times,serif" font-size="14.00">sdComp &lt;= 2.0</text>
<text text-anchor="middle" x="1315.5" y="-124.8" font-family="Times,serif" font-size="14.00">gini = 0.353</text>
<text text-anchor="middle" x="1315.5" y="-109.8" font-family="Times,serif" font-size="14.00">samples = 480</text>
<text text-anchor="middle" x="1315.5" y="-94.8" font-family="Times,serif" font-size="14.00">value = [370, 110]</text>
<text text-anchor="middle" x="1315.5" y="-79.8" font-family="Times,serif" font-size="14.00">class = False</text>
</g>
<!-- 696&#45;&gt;720 -->
<g id="edge28" class="edge">
<title>696&#45;&gt;720</title>
<path fill="none" stroke="black" d="M1206.44,-190.91C1220.3,-181.2 1235.2,-170.76 1249.4,-160.81"/>
<polygon fill="black" stroke="black" points="1251.48,-163.63 1257.66,-155.02 1247.46,-157.89 1251.48,-163.63"/>
</g>
<!-- 698 -->
<g id="node27" class="node">
<title>698</title>
<polygon fill="#c0c0c0" stroke="black" points="1132.5,-36 1078.5,-36 1078.5,0 1132.5,0 1132.5,-36"/>
<text text-anchor="middle" x="1105.5" y="-14.3" font-family="Times,serif" font-size="14.00">(...)</text>
</g>
<!-- 697&#45;&gt;698 -->
<g id="edge26" class="edge">
<title>697&#45;&gt;698</title>
<path fill="none" stroke="black" d="M1129.76,-71.76C1125.71,-62.94 1121.52,-53.84 1117.79,-45.72"/>
<polygon fill="black" stroke="black" points="1120.86,-44.03 1113.5,-36.41 1114.5,-46.95 1120.86,-44.03"/>
</g>
<!-- 713 -->
<g id="node28" class="node">
<title>713</title>
<polygon fill="#c0c0c0" stroke="black" points="1204.5,-36 1150.5,-36 1150.5,0 1204.5,0 1204.5,-36"/>
<text text-anchor="middle" x="1177.5" y="-14.3" font-family="Times,serif" font-size="14.00">(...)</text>
</g>
<!-- 697&#45;&gt;713 -->
<g id="edge27" class="edge">
<title>697&#45;&gt;713</title>
<path fill="none" stroke="black" d="M1161.14,-71.76C1163.84,-63.04 1166.63,-54.04 1169.13,-45.99"/>
<polygon fill="black" stroke="black" points="1172.48,-46.99 1172.1,-36.41 1165.8,-44.92 1172.48,-46.99"/>
</g>
<!-- 721 -->
<g id="node30" class="node">
<title>721</title>
<polygon fill="#c0c0c0" stroke="black" points="1306.5,-36 1252.5,-36 1252.5,0 1306.5,0 1306.5,-36"/>
<text text-anchor="middle" x="1279.5" y="-14.3" font-family="Times,serif" font-size="14.00">(...)</text>
</g>
<!-- 720&#45;&gt;721 -->
<g id="edge29" class="edge">
<title>720&#45;&gt;721</title>
<path fill="none" stroke="black" d="M1299.81,-71.76C1296.46,-63.04 1292.99,-54.04 1289.89,-45.99"/>
<polygon fill="black" stroke="black" points="1293.06,-44.48 1286.2,-36.41 1286.53,-46.99 1293.06,-44.48"/>
</g>
<!-- 724 -->
<g id="node31" class="node">
<title>724</title>
<polygon fill="#c0c0c0" stroke="black" points="1378.5,-36 1324.5,-36 1324.5,0 1378.5,0 1378.5,-36"/>
<text text-anchor="middle" x="1351.5" y="-14.3" font-family="Times,serif" font-size="14.00">(...)</text>
</g>
<!-- 720&#45;&gt;724 -->
<g id="edge30" class="edge">
<title>720&#45;&gt;724</title>
<path fill="none" stroke="black" d="M1331.19,-71.76C1334.54,-63.04 1338.01,-54.04 1341.11,-45.99"/>
<polygon fill="black" stroke="black" points="1344.47,-46.99 1344.8,-36.41 1337.94,-44.48 1344.47,-46.99"/>
</g>
</g>
</svg>
