<?xml version="1.0" encoding="UTF-8" standalone="no"?>
<!DOCTYPE svg PUBLIC "-//W3C//DTD SVG 1.1//EN"
 "http://www.w3.org/Graphics/SVG/1.1/DTD/svg11.dtd">
<!-- Generated by graphviz version 2.43.0 (0)
 -->
<!-- Title: Tree Pages: 1 -->
<svg width="1352pt" height="520pt"
 viewBox="0.00 0.00 1352.00 520.00" xmlns="http://www.w3.org/2000/svg" xmlns:xlink="http://www.w3.org/1999/xlink">
<g id="graph0" class="graph" transform="scale(1 1) rotate(0) translate(4 516)">
<title>Tree</title>
<polygon fill="white" stroke="transparent" points="-4,4 -4,-516 1348,-516 1348,4 -4,4"/>
<!-- 0 -->
<g id="node1" class="node">
<title>0</title>
<polygon fill="#ffffff" stroke="black" points="711,-512 526,-512 526,-429 711,-429 711,-512"/>
<text text-anchor="middle" x="618.5" y="-496.8" font-family="Times,serif" font-size="14.00">graphDepth &lt;= 3.5</text>
<text text-anchor="middle" x="618.5" y="-481.8" font-family="Times,serif" font-size="14.00">gini = 0.5</text>
<text text-anchor="middle" x="618.5" y="-466.8" font-family="Times,serif" font-size="14.00">samples = 28293</text>
<text text-anchor="middle" x="618.5" y="-451.8" font-family="Times,serif" font-size="14.00">value = [14132, 14161]</text>
<text text-anchor="middle" x="618.5" y="-436.8" font-family="Times,serif" font-size="14.00">class = True</text>
</g>
<!-- 1 -->
<g id="node2" class="node">
<title>1</title>
<polygon fill="#fdfeff" stroke="black" points="553,-393 386,-393 386,-310 553,-310 553,-393"/>
<text text-anchor="middle" x="469.5" y="-377.8" font-family="Times,serif" font-size="14.00">sdComp &lt;= 6.5</text>
<text text-anchor="middle" x="469.5" y="-362.8" font-family="Times,serif" font-size="14.00">gini = 0.5</text>
<text text-anchor="middle" x="469.5" y="-347.8" font-family="Times,serif" font-size="14.00">samples = 3529</text>
<text text-anchor="middle" x="469.5" y="-332.8" font-family="Times,serif" font-size="14.00">value = [1756, 1773]</text>
<text text-anchor="middle" x="469.5" y="-317.8" font-family="Times,serif" font-size="14.00">class = True</text>
</g>
<!-- 0&#45;&gt;1 -->
<g id="edge1" class="edge">
<title>0&#45;&gt;1</title>
<path fill="none" stroke="black" d="M566.81,-428.91C554.67,-419.38 541.64,-409.15 529.19,-399.37"/>
<polygon fill="black" stroke="black" points="531.13,-396.44 521.1,-393.02 526.81,-401.95 531.13,-396.44"/>
<text text-anchor="middle" x="524.09" y="-414.14" font-family="Times,serif" font-size="14.00">True</text>
</g>
<!-- 102 -->
<g id="node17" class="node">
<title>102</title>
<polygon fill="#ffffff" stroke="black" points="893,-393 708,-393 708,-310 893,-310 893,-393"/>
<text text-anchor="middle" x="800.5" y="-377.8" font-family="Times,serif" font-size="14.00">sdComm &lt;= 6.5</text>
<text text-anchor="middle" x="800.5" y="-362.8" font-family="Times,serif" font-size="14.00">gini = 0.5</text>
<text text-anchor="middle" x="800.5" y="-347.8" font-family="Times,serif" font-size="14.00">samples = 24764</text>
<text text-anchor="middle" x="800.5" y="-332.8" font-family="Times,serif" font-size="14.00">value = [12376, 12388]</text>
<text text-anchor="middle" x="800.5" y="-317.8" font-family="Times,serif" font-size="14.00">class = True</text>
</g>
<!-- 0&#45;&gt;102 -->
<g id="edge16" class="edge">
<title>0&#45;&gt;102</title>
<path fill="none" stroke="black" d="M681.64,-428.91C696.89,-419.11 713.29,-408.56 728.89,-398.53"/>
<polygon fill="black" stroke="black" points="730.95,-401.37 737.47,-393.02 727.16,-395.48 730.95,-401.37"/>
<text text-anchor="middle" x="732.16" y="-413.75" font-family="Times,serif" font-size="14.00">False</text>
</g>
<!-- 2 -->
<g id="node3" class="node">
<title>2</title>
<polygon fill="#fefeff" stroke="black" points="325,-274 158,-274 158,-191 325,-191 325,-274"/>
<text text-anchor="middle" x="241.5" y="-258.8" font-family="Times,serif" font-size="14.00">sdComp &lt;= 0.65</text>
<text text-anchor="middle" x="241.5" y="-243.8" font-family="Times,serif" font-size="14.00">gini = 0.5</text>
<text text-anchor="middle" x="241.5" y="-228.8" font-family="Times,serif" font-size="14.00">samples = 3277</text>
<text text-anchor="middle" x="241.5" y="-213.8" font-family="Times,serif" font-size="14.00">value = [1634, 1643]</text>
<text text-anchor="middle" x="241.5" y="-198.8" font-family="Times,serif" font-size="14.00">class = True</text>
</g>
<!-- 1&#45;&gt;2 -->
<g id="edge2" class="edge">
<title>1&#45;&gt;2</title>
<path fill="none" stroke="black" d="M390.4,-309.91C370.77,-299.83 349.61,-288.98 329.58,-278.7"/>
<polygon fill="black" stroke="black" points="330.96,-275.47 320.46,-274.02 327.76,-281.7 330.96,-275.47"/>
</g>
<!-- 91 -->
<g id="node10" class="node">
<title>91</title>
<polygon fill="#f3f9fd" stroke="black" points="544,-274 395,-274 395,-191 544,-191 544,-274"/>
<text text-anchor="middle" x="469.5" y="-258.8" font-family="Times,serif" font-size="14.00">sdComm &lt;= 2.0</text>
<text text-anchor="middle" x="469.5" y="-243.8" font-family="Times,serif" font-size="14.00">gini = 0.499</text>
<text text-anchor="middle" x="469.5" y="-228.8" font-family="Times,serif" font-size="14.00">samples = 252</text>
<text text-anchor="middle" x="469.5" y="-213.8" font-family="Times,serif" font-size="14.00">value = [122, 130]</text>
<text text-anchor="middle" x="469.5" y="-198.8" font-family="Times,serif" font-size="14.00">class = True</text>
</g>
<!-- 1&#45;&gt;91 -->
<g id="edge9" class="edge">
<title>1&#45;&gt;91</title>
<path fill="none" stroke="black" d="M469.5,-309.91C469.5,-301.65 469.5,-292.86 469.5,-284.3"/>
<polygon fill="black" stroke="black" points="473,-284.02 469.5,-274.02 466,-284.02 473,-284.02"/>
</g>
<!-- 3 -->
<g id="node4" class="node">
<title>3</title>
<polygon fill="#ffffff" stroke="black" points="149,-155 0,-155 0,-72 149,-72 149,-155"/>
<text text-anchor="middle" x="74.5" y="-139.8" font-family="Times,serif" font-size="14.00">nbproc &lt;= 4.5</text>
<text text-anchor="middle" x="74.5" y="-124.8" font-family="Times,serif" font-size="14.00">gini = 0.5</text>
<text text-anchor="middle" x="74.5" y="-109.8" font-family="Times,serif" font-size="14.00">samples = 1859</text>
<text text-anchor="middle" x="74.5" y="-94.8" font-family="Times,serif" font-size="14.00">value = [929, 930]</text>
<text text-anchor="middle" x="74.5" y="-79.8" font-family="Times,serif" font-size="14.00">class = True</text>
</g>
<!-- 2&#45;&gt;3 -->
<g id="edge3" class="edge">
<title>2&#45;&gt;3</title>
<path fill="none" stroke="black" d="M183.56,-190.91C169.7,-181.2 154.8,-170.76 140.6,-160.81"/>
<polygon fill="black" stroke="black" points="142.54,-157.89 132.34,-155.02 138.52,-163.63 142.54,-157.89"/>
</g>
<!-- 58 -->
<g id="node7" class="node">
<title>58</title>
<polygon fill="#fdfeff" stroke="black" points="316,-155 167,-155 167,-72 316,-72 316,-155"/>
<text text-anchor="middle" x="241.5" y="-139.8" font-family="Times,serif" font-size="14.00">CCR &lt;= 5.5</text>
<text text-anchor="middle" x="241.5" y="-124.8" font-family="Times,serif" font-size="14.00">gini = 0.5</text>
<text text-anchor="middle" x="241.5" y="-109.8" font-family="Times,serif" font-size="14.00">samples = 1418</text>
<text text-anchor="middle" x="241.5" y="-94.8" font-family="Times,serif" font-size="14.00">value = [705, 713]</text>
<text text-anchor="middle" x="241.5" y="-79.8" font-family="Times,serif" font-size="14.00">class = True</text>
</g>
<!-- 2&#45;&gt;58 -->
<g id="edge6" class="edge">
<title>2&#45;&gt;58</title>
<path fill="none" stroke="black" d="M241.5,-190.91C241.5,-182.65 241.5,-173.86 241.5,-165.3"/>
<polygon fill="black" stroke="black" points="245,-165.02 241.5,-155.02 238,-165.02 245,-165.02"/>
</g>
<!-- 4 -->
<g id="node5" class="node">
<title>4</title>
<polygon fill="#c0c0c0" stroke="black" points="65.5,-36 11.5,-36 11.5,0 65.5,0 65.5,-36"/>
<text text-anchor="middle" x="38.5" y="-14.3" font-family="Times,serif" font-size="14.00">(...)</text>
</g>
<!-- 3&#45;&gt;4 -->
<g id="edge4" class="edge">
<title>3&#45;&gt;4</title>
<path fill="none" stroke="black" d="M58.81,-71.76C55.46,-63.04 51.99,-54.04 48.89,-45.99"/>
<polygon fill="black" stroke="black" points="52.06,-44.48 45.2,-36.41 45.53,-46.99 52.06,-44.48"/>
</g>
<!-- 33 -->
<g id="node6" class="node">
<title>33</title>
<polygon fill="#c0c0c0" stroke="black" points="137.5,-36 83.5,-36 83.5,0 137.5,0 137.5,-36"/>
<text text-anchor="middle" x="110.5" y="-14.3" font-family="Times,serif" font-size="14.00">(...)</text>
</g>
<!-- 3&#45;&gt;33 -->
<g id="edge5" class="edge">
<title>3&#45;&gt;33</title>
<path fill="none" stroke="black" d="M90.19,-71.76C93.54,-63.04 97.01,-54.04 100.11,-45.99"/>
<polygon fill="black" stroke="black" points="103.47,-46.99 103.8,-36.41 96.94,-44.48 103.47,-46.99"/>
</g>
<!-- 59 -->
<g id="node8" class="node">
<title>59</title>
<polygon fill="#c0c0c0" stroke="black" points="239.5,-36 185.5,-36 185.5,0 239.5,0 239.5,-36"/>
<text text-anchor="middle" x="212.5" y="-14.3" font-family="Times,serif" font-size="14.00">(...)</text>
</g>
<!-- 58&#45;&gt;59 -->
<g id="edge7" class="edge">
<title>58&#45;&gt;59</title>
<path fill="none" stroke="black" d="M228.86,-71.76C226.16,-63.04 223.37,-54.04 220.87,-45.99"/>
<polygon fill="black" stroke="black" points="224.2,-44.92 217.9,-36.41 217.52,-46.99 224.2,-44.92"/>
</g>
<!-- 70 -->
<g id="node9" class="node">
<title>70</title>
<polygon fill="#c0c0c0" stroke="black" points="311.5,-36 257.5,-36 257.5,0 311.5,0 311.5,-36"/>
<text text-anchor="middle" x="284.5" y="-14.3" font-family="Times,serif" font-size="14.00">(...)</text>
</g>
<!-- 58&#45;&gt;70 -->
<g id="edge8" class="edge">
<title>58&#45;&gt;70</title>
<path fill="none" stroke="black" d="M260.24,-71.76C264.29,-62.94 268.48,-53.84 272.21,-45.72"/>
<polygon fill="black" stroke="black" points="275.5,-46.95 276.5,-36.41 269.14,-44.03 275.5,-46.95"/>
</g>
<!-- 92 -->
<g id="node11" class="node">
<title>92</title>
<polygon fill="#d6ebfa" stroke="black" points="465,-155 334,-155 334,-72 465,-72 465,-155"/>
<text text-anchor="middle" x="399.5" y="-139.8" font-family="Times,serif" font-size="14.00">nbproc &lt;= 4.5</text>
<text text-anchor="middle" x="399.5" y="-124.8" font-family="Times,serif" font-size="14.00">gini = 0.493</text>
<text text-anchor="middle" x="399.5" y="-109.8" font-family="Times,serif" font-size="14.00">samples = 70</text>
<text text-anchor="middle" x="399.5" y="-94.8" font-family="Times,serif" font-size="14.00">value = [31, 39]</text>
<text text-anchor="middle" x="399.5" y="-79.8" font-family="Times,serif" font-size="14.00">class = True</text>
</g>
<!-- 91&#45;&gt;92 -->
<g id="edge10" class="edge">
<title>91&#45;&gt;92</title>
<path fill="none" stroke="black" d="M445.21,-190.91C439.95,-182.1 434.32,-172.7 428.88,-163.61"/>
<polygon fill="black" stroke="black" points="431.88,-161.81 423.74,-155.02 425.87,-165.4 431.88,-161.81"/>
</g>
<!-- 95 -->
<g id="node14" class="node">
<title>95</title>
<polygon fill="#ffffff" stroke="black" points="614,-155 483,-155 483,-72 614,-72 614,-155"/>
<text text-anchor="middle" x="548.5" y="-139.8" font-family="Times,serif" font-size="14.00">nbproc &lt;= 4.5</text>
<text text-anchor="middle" x="548.5" y="-124.8" font-family="Times,serif" font-size="14.00">gini = 0.5</text>
<text text-anchor="middle" x="548.5" y="-109.8" font-family="Times,serif" font-size="14.00">samples = 182</text>
<text text-anchor="middle" x="548.5" y="-94.8" font-family="Times,serif" font-size="14.00">value = [91, 91]</text>
<text text-anchor="middle" x="548.5" y="-79.8" font-family="Times,serif" font-size="14.00">class = False</text>
</g>
<!-- 91&#45;&gt;95 -->
<g id="edge13" class="edge">
<title>91&#45;&gt;95</title>
<path fill="none" stroke="black" d="M496.91,-190.91C502.91,-182.01 509.33,-172.51 515.53,-163.33"/>
<polygon fill="black" stroke="black" points="518.44,-165.27 521.14,-155.02 512.64,-161.35 518.44,-165.27"/>
</g>
<!-- 93 -->
<g id="node12" class="node">
<title>93</title>
<polygon fill="#c0c0c0" stroke="black" points="399.5,-36 345.5,-36 345.5,0 399.5,0 399.5,-36"/>
<text text-anchor="middle" x="372.5" y="-14.3" font-family="Times,serif" font-size="14.00">(...)</text>
</g>
<!-- 92&#45;&gt;93 -->
<g id="edge11" class="edge">
<title>92&#45;&gt;93</title>
<path fill="none" stroke="black" d="M387.74,-71.76C385.25,-63.14 382.68,-54.24 380.37,-46.26"/>
<polygon fill="black" stroke="black" points="383.66,-45.04 377.53,-36.41 376.94,-46.98 383.66,-45.04"/>
</g>
<!-- 94 -->
<g id="node13" class="node">
<title>94</title>
<polygon fill="#c0c0c0" stroke="black" points="471.5,-36 417.5,-36 417.5,0 471.5,0 471.5,-36"/>
<text text-anchor="middle" x="444.5" y="-14.3" font-family="Times,serif" font-size="14.00">(...)</text>
</g>
<!-- 92&#45;&gt;94 -->
<g id="edge12" class="edge">
<title>92&#45;&gt;94</title>
<path fill="none" stroke="black" d="M419.11,-71.76C423.4,-62.85 427.83,-53.64 431.77,-45.46"/>
<polygon fill="black" stroke="black" points="434.94,-46.93 436.12,-36.41 428.63,-43.9 434.94,-46.93"/>
</g>
<!-- 96 -->
<g id="node15" class="node">
<title>96</title>
<polygon fill="#c0c0c0" stroke="black" points="563.5,-36 509.5,-36 509.5,0 563.5,0 563.5,-36"/>
<text text-anchor="middle" x="536.5" y="-14.3" font-family="Times,serif" font-size="14.00">(...)</text>
</g>
<!-- 95&#45;&gt;96 -->
<g id="edge14" class="edge">
<title>95&#45;&gt;96</title>
<path fill="none" stroke="black" d="M543.27,-71.76C542.18,-63.24 541.05,-54.44 540.03,-46.53"/>
<polygon fill="black" stroke="black" points="543.48,-45.88 538.73,-36.41 536.54,-46.77 543.48,-45.88"/>
</g>
<!-- 99 -->
<g id="node16" class="node">
<title>99</title>
<polygon fill="#c0c0c0" stroke="black" points="635.5,-36 581.5,-36 581.5,0 635.5,0 635.5,-36"/>
<text text-anchor="middle" x="608.5" y="-14.3" font-family="Times,serif" font-size="14.00">(...)</text>
</g>
<!-- 95&#45;&gt;99 -->
<g id="edge15" class="edge">
<title>95&#45;&gt;99</title>
<path fill="none" stroke="black" d="M574.64,-71.76C580.49,-62.65 586.53,-53.24 591.86,-44.92"/>
<polygon fill="black" stroke="black" points="594.88,-46.71 597.33,-36.41 588.98,-42.93 594.88,-46.71"/>
</g>
<!-- 103 -->
<g id="node18" class="node">
<title>103</title>
<polygon fill="#ffffff" stroke="black" points="893,-274 708,-274 708,-191 893,-191 893,-274"/>
<text text-anchor="middle" x="800.5" y="-258.8" font-family="Times,serif" font-size="14.00">sdComm &lt;= 0.02</text>
<text text-anchor="middle" x="800.5" y="-243.8" font-family="Times,serif" font-size="14.00">gini = 0.5</text>
<text text-anchor="middle" x="800.5" y="-228.8" font-family="Times,serif" font-size="14.00">samples = 21248</text>
<text text-anchor="middle" x="800.5" y="-213.8" font-family="Times,serif" font-size="14.00">value = [10624, 10624]</text>
<text text-anchor="middle" x="800.5" y="-198.8" font-family="Times,serif" font-size="14.00">class = False</text>
</g>
<!-- 102&#45;&gt;103 -->
<g id="edge17" class="edge">
<title>102&#45;&gt;103</title>
<path fill="none" stroke="black" d="M800.5,-309.91C800.5,-301.65 800.5,-292.86 800.5,-284.3"/>
<polygon fill="black" stroke="black" points="804,-284.02 800.5,-274.02 797,-284.02 804,-284.02"/>
</g>
<!-- 680 -->
<g id="node25" class="node">
<title>680</title>
<polygon fill="#fefeff" stroke="black" points="1164,-274 997,-274 997,-191 1164,-191 1164,-274"/>
<text text-anchor="middle" x="1080.5" y="-258.8" font-family="Times,serif" font-size="14.00">sdComp &lt;= 2.0</text>
<text text-anchor="middle" x="1080.5" y="-243.8" font-family="Times,serif" font-size="14.00">gini = 0.5</text>
<text text-anchor="middle" x="1080.5" y="-228.8" font-family="Times,serif" font-size="14.00">samples = 3516</text>
<text text-anchor="middle" x="1080.5" y="-213.8" font-family="Times,serif" font-size="14.00">value = [1752, 1764]</text>
<text text-anchor="middle" x="1080.5" y="-198.8" font-family="Times,serif" font-size="14.00">class = True</text>
</g>
<!-- 102&#45;&gt;680 -->
<g id="edge24" class="edge">
<title>102&#45;&gt;680</title>
<path fill="none" stroke="black" d="M893.35,-311.7C923.64,-299.04 957.27,-284.99 987.58,-272.33"/>
<polygon fill="black" stroke="black" points="988.99,-275.53 996.87,-268.45 986.29,-269.07 988.99,-275.53"/>
</g>
<!-- 104 -->
<g id="node19" class="node">
<title>104</title>
<polygon fill="#ffffff" stroke="black" points="799,-155 632,-155 632,-72 799,-72 799,-155"/>
<text text-anchor="middle" x="715.5" y="-139.8" font-family="Times,serif" font-size="14.00">nbproc &lt;= 4.5</text>
<text text-anchor="middle" x="715.5" y="-124.8" font-family="Times,serif" font-size="14.00">gini = 0.5</text>
<text text-anchor="middle" x="715.5" y="-109.8" font-family="Times,serif" font-size="14.00">samples = 2680</text>
<text text-anchor="middle" x="715.5" y="-94.8" font-family="Times,serif" font-size="14.00">value = [1340, 1340]</text>
<text text-anchor="middle" x="715.5" y="-79.8" font-family="Times,serif" font-size="14.00">class = False</text>
</g>
<!-- 103&#45;&gt;104 -->
<g id="edge18" class="edge">
<title>103&#45;&gt;104</title>
<path fill="none" stroke="black" d="M771.01,-190.91C764.55,-182.01 757.64,-172.51 750.98,-163.33"/>
<polygon fill="black" stroke="black" points="753.65,-161.05 744.94,-155.02 747.98,-165.17 753.65,-161.05"/>
</g>
<!-- 161 -->
<g id="node22" class="node">
<title>161</title>
<polygon fill="#ffffff" stroke="black" points="984,-155 817,-155 817,-72 984,-72 984,-155"/>
<text text-anchor="middle" x="900.5" y="-139.8" font-family="Times,serif" font-size="14.00">nbproc &lt;= 4.5</text>
<text text-anchor="middle" x="900.5" y="-124.8" font-family="Times,serif" font-size="14.00">gini = 0.5</text>
<text text-anchor="middle" x="900.5" y="-109.8" font-family="Times,serif" font-size="14.00">samples = 18568</text>
<text text-anchor="middle" x="900.5" y="-94.8" font-family="Times,serif" font-size="14.00">value = [9284, 9284]</text>
<text text-anchor="middle" x="900.5" y="-79.8" font-family="Times,serif" font-size="14.00">class = False</text>
</g>
<!-- 103&#45;&gt;161 -->
<g id="edge21" class="edge">
<title>103&#45;&gt;161</title>
<path fill="none" stroke="black" d="M835.19,-190.91C842.95,-181.83 851.25,-172.12 859.24,-162.77"/>
<polygon fill="black" stroke="black" points="862.03,-164.9 865.87,-155.02 856.71,-160.35 862.03,-164.9"/>
</g>
<!-- 105 -->
<g id="node20" class="node">
<title>105</title>
<polygon fill="#c0c0c0" stroke="black" points="717.5,-36 663.5,-36 663.5,0 717.5,0 717.5,-36"/>
<text text-anchor="middle" x="690.5" y="-14.3" font-family="Times,serif" font-size="14.00">(...)</text>
</g>
<!-- 104&#45;&gt;105 -->
<g id="edge19" class="edge">
<title>104&#45;&gt;105</title>
<path fill="none" stroke="black" d="M704.61,-71.76C702.3,-63.14 699.92,-54.24 697.79,-46.26"/>
<polygon fill="black" stroke="black" points="701.12,-45.16 695.15,-36.41 694.36,-46.97 701.12,-45.16"/>
</g>
<!-- 126 -->
<g id="node21" class="node">
<title>126</title>
<polygon fill="#c0c0c0" stroke="black" points="789.5,-36 735.5,-36 735.5,0 789.5,0 789.5,-36"/>
<text text-anchor="middle" x="762.5" y="-14.3" font-family="Times,serif" font-size="14.00">(...)</text>
</g>
<!-- 104&#45;&gt;126 -->
<g id="edge20" class="edge">
<title>104&#45;&gt;126</title>
<path fill="none" stroke="black" d="M735.98,-71.76C740.46,-62.85 745.09,-53.64 749.2,-45.46"/>
<polygon fill="black" stroke="black" points="752.39,-46.91 753.75,-36.41 746.13,-43.77 752.39,-46.91"/>
</g>
<!-- 162 -->
<g id="node23" class="node">
<title>162</title>
<polygon fill="#c0c0c0" stroke="black" points="866.5,-36 812.5,-36 812.5,0 866.5,0 866.5,-36"/>
<text text-anchor="middle" x="839.5" y="-14.3" font-family="Times,serif" font-size="14.00">(...)</text>
</g>
<!-- 161&#45;&gt;162 -->
<g id="edge22" class="edge">
<title>161&#45;&gt;162</title>
<path fill="none" stroke="black" d="M873.92,-71.76C867.98,-62.65 861.84,-53.24 856.41,-44.92"/>
<polygon fill="black" stroke="black" points="859.25,-42.87 850.86,-36.41 853.39,-46.69 859.25,-42.87"/>
</g>
<!-- 407 -->
<g id="node24" class="node">
<title>407</title>
<polygon fill="#c0c0c0" stroke="black" points="938.5,-36 884.5,-36 884.5,0 938.5,0 938.5,-36"/>
<text text-anchor="middle" x="911.5" y="-14.3" font-family="Times,serif" font-size="14.00">(...)</text>
</g>
<!-- 161&#45;&gt;407 -->
<g id="edge23" class="edge">
<title>161&#45;&gt;407</title>
<path fill="none" stroke="black" d="M905.29,-71.76C906.3,-63.24 907.33,-54.44 908.26,-46.53"/>
<polygon fill="black" stroke="black" points="911.76,-46.75 909.45,-36.41 904.81,-45.93 911.76,-46.75"/>
</g>
<!-- 681 -->
<g id="node26" class="node">
<title>681</title>
<polygon fill="#fbfdfe" stroke="black" points="1159.5,-155 1001.5,-155 1001.5,-72 1159.5,-72 1159.5,-155"/>
<text text-anchor="middle" x="1080.5" y="-139.8" font-family="Times,serif" font-size="14.00">graphDepth &lt;= 6.5</text>
<text text-anchor="middle" x="1080.5" y="-124.8" font-family="Times,serif" font-size="14.00">gini = 0.5</text>
<text text-anchor="middle" x="1080.5" y="-109.8" font-family="Times,serif" font-size="14.00">samples = 1156</text>
<text text-anchor="middle" x="1080.5" y="-94.8" font-family="Times,serif" font-size="14.00">value = [572, 584]</text>
<text text-anchor="middle" x="1080.5" y="-79.8" font-family="Times,serif" font-size="14.00">class = True</text>
</g>
<!-- 680&#45;&gt;681 -->
<g id="edge25" class="edge">
<title>680&#45;&gt;681</title>
<path fill="none" stroke="black" d="M1080.5,-190.91C1080.5,-182.65 1080.5,-173.86 1080.5,-165.3"/>
<polygon fill="black" stroke="black" points="1084,-165.02 1080.5,-155.02 1077,-165.02 1084,-165.02"/>
</g>
<!-- 708 -->
<g id="node29" class="node">
<title>708</title>
<polygon fill="#ffffff" stroke="black" points="1344,-155 1177,-155 1177,-72 1344,-72 1344,-155"/>
<text text-anchor="middle" x="1260.5" y="-139.8" font-family="Times,serif" font-size="14.00">nbproc &lt;= 4.5</text>
<text text-anchor="middle" x="1260.5" y="-124.8" font-family="Times,serif" font-size="14.00">gini = 0.5</text>
<text text-anchor="middle" x="1260.5" y="-109.8" font-family="Times,serif" font-size="14.00">samples = 2360</text>
<text text-anchor="middle" x="1260.5" y="-94.8" font-family="Times,serif" font-size="14.00">value = [1180, 1180]</text>
<text text-anchor="middle" x="1260.5" y="-79.8" font-family="Times,serif" font-size="14.00">class = False</text>
</g>
<!-- 680&#45;&gt;708 -->
<g id="edge28" class="edge">
<title>680&#45;&gt;708</title>
<path fill="none" stroke="black" d="M1142.95,-190.91C1158.03,-181.11 1174.25,-170.56 1189.68,-160.53"/>
<polygon fill="black" stroke="black" points="1191.68,-163.41 1198.16,-155.02 1187.87,-157.54 1191.68,-163.41"/>
</g>
<!-- 682 -->
<g id="node27" class="node">
<title>682</title>
<polygon fill="#c0c0c0" stroke="black" points="1071.5,-36 1017.5,-36 1017.5,0 1071.5,0 1071.5,-36"/>
<text text-anchor="middle" x="1044.5" y="-14.3" font-family="Times,serif" font-size="14.00">(...)</text>
</g>
<!-- 681&#45;&gt;682 -->
<g id="edge26" class="edge">
<title>681&#45;&gt;682</title>
<path fill="none" stroke="black" d="M1064.81,-71.76C1061.46,-63.04 1057.99,-54.04 1054.89,-45.99"/>
<polygon fill="black" stroke="black" points="1058.06,-44.48 1051.2,-36.41 1051.53,-46.99 1058.06,-44.48"/>
</g>
<!-- 689 -->
<g id="node28" class="node">
<title>689</title>
<polygon fill="#c0c0c0" stroke="black" points="1143.5,-36 1089.5,-36 1089.5,0 1143.5,0 1143.5,-36"/>
<text text-anchor="middle" x="1116.5" y="-14.3" font-family="Times,serif" font-size="14.00">(...)</text>
</g>
<!-- 681&#45;&gt;689 -->
<g id="edge27" class="edge">
<title>681&#45;&gt;689</title>
<path fill="none" stroke="black" d="M1096.19,-71.76C1099.54,-63.04 1103.01,-54.04 1106.11,-45.99"/>
<polygon fill="black" stroke="black" points="1109.47,-46.99 1109.8,-36.41 1102.94,-44.48 1109.47,-46.99"/>
</g>
<!-- 709 -->
<g id="node30" class="node">
<title>709</title>
<polygon fill="#c0c0c0" stroke="black" points="1251.5,-36 1197.5,-36 1197.5,0 1251.5,0 1251.5,-36"/>
<text text-anchor="middle" x="1224.5" y="-14.3" font-family="Times,serif" font-size="14.00">(...)</text>
</g>
<!-- 708&#45;&gt;709 -->
<g id="edge29" class="edge">
<title>708&#45;&gt;709</title>
<path fill="none" stroke="black" d="M1244.81,-71.76C1241.46,-63.04 1237.99,-54.04 1234.89,-45.99"/>
<polygon fill="black" stroke="black" points="1238.06,-44.48 1231.2,-36.41 1231.53,-46.99 1238.06,-44.48"/>
</g>
<!-- 734 -->
<g id="node31" class="node">
<title>734</title>
<polygon fill="#c0c0c0" stroke="black" points="1323.5,-36 1269.5,-36 1269.5,0 1323.5,0 1323.5,-36"/>
<text text-anchor="middle" x="1296.5" y="-14.3" font-family="Times,serif" font-size="14.00">(...)</text>
</g>
<!-- 708&#45;&gt;734 -->
<g id="edge30" class="edge">
<title>708&#45;&gt;734</title>
<path fill="none" stroke="black" d="M1276.19,-71.76C1279.54,-63.04 1283.01,-54.04 1286.11,-45.99"/>
<polygon fill="black" stroke="black" points="1289.47,-46.99 1289.8,-36.41 1282.94,-44.48 1289.47,-46.99"/>
</g>
</g>
</svg>
