<?xml version="1.0" encoding="UTF-8" standalone="no"?>
<!DOCTYPE svg PUBLIC "-//W3C//DTD SVG 1.1//EN"
 "http://www.w3.org/Graphics/SVG/1.1/DTD/svg11.dtd">
<!-- Generated by graphviz version 2.43.0 (0)
 -->
<!-- Title: Tree Pages: 1 -->
<svg width="2426pt" height="520pt"
 viewBox="0.00 0.00 2426.00 520.00" xmlns="http://www.w3.org/2000/svg" xmlns:xlink="http://www.w3.org/1999/xlink">
<g id="graph0" class="graph" transform="scale(1 1) rotate(0) translate(4 516)">
<title>Tree</title>
<polygon fill="white" stroke="transparent" points="-4,4 -4,-516 2422,-516 2422,4 -4,4"/>
<!-- 0 -->
<g id="node1" class="node">
<title>0</title>
<polygon fill="#fcebf5" stroke="black" points="1350.5,-512 1003.5,-512 1003.5,-429 1350.5,-429 1350.5,-512"/>
<text text-anchor="middle" x="1177" y="-496.8" font-family="Times,serif" font-size="14.00">CCR &lt;= 5.5</text>
<text text-anchor="middle" x="1177" y="-481.8" font-family="Times,serif" font-size="14.00">gini = 0.783</text>
<text text-anchor="middle" x="1177" y="-466.8" font-family="Times,serif" font-size="14.00">samples = 28293</text>
<text text-anchor="middle" x="1177" y="-451.8" font-family="Times,serif" font-size="14.00">value = [5892, 1371, 5088, 1324, 6218, 8400]</text>
<text text-anchor="middle" x="1177" y="-436.8" font-family="Times,serif" font-size="14.00">class = GDL</text>
</g>
<!-- 1 -->
<g id="node2" class="node">
<title>1</title>
<polygon fill="#f8cce6" stroke="black" points="1037.5,-393 726.5,-393 726.5,-310 1037.5,-310 1037.5,-393"/>
<text text-anchor="middle" x="882" y="-377.8" font-family="Times,serif" font-size="14.00">CCR &lt;= 0.55</text>
<text text-anchor="middle" x="882" y="-362.8" font-family="Times,serif" font-size="14.00">gini = 0.674</text>
<text text-anchor="middle" x="882" y="-347.8" font-family="Times,serif" font-size="14.00">samples = 16895</text>
<text text-anchor="middle" x="882" y="-332.8" font-family="Times,serif" font-size="14.00">value = [4068, 333, 84, 488, 4346, 7576]</text>
<text text-anchor="middle" x="882" y="-317.8" font-family="Times,serif" font-size="14.00">class = GDL</text>
</g>
<!-- 0&#45;&gt;1 -->
<g id="edge1" class="edge">
<title>0&#45;&gt;1</title>
<path fill="none" stroke="black" d="M1074.65,-428.91C1048.45,-418.52 1020.15,-407.29 993.51,-396.73"/>
<polygon fill="black" stroke="black" points="994.75,-393.45 984.17,-393.02 992.17,-399.96 994.75,-393.45"/>
<text text-anchor="middle" x="994.08" y="-412.27" font-family="Times,serif" font-size="14.00">True</text>
</g>
<!-- 468 -->
<g id="node17" class="node">
<title>468</title>
<polygon fill="#bef6d6" stroke="black" points="1653.5,-393 1324.5,-393 1324.5,-310 1653.5,-310 1653.5,-393"/>
<text text-anchor="middle" x="1489" y="-377.8" font-family="Times,serif" font-size="14.00">sdComp &lt;= 2.0</text>
<text text-anchor="middle" x="1489" y="-362.8" font-family="Times,serif" font-size="14.00">gini = 0.736</text>
<text text-anchor="middle" x="1489" y="-347.8" font-family="Times,serif" font-size="14.00">samples = 11398</text>
<text text-anchor="middle" x="1489" y="-332.8" font-family="Times,serif" font-size="14.00">value = [1824, 1038, 5004, 836, 1872, 824]</text>
<text text-anchor="middle" x="1489" y="-317.8" font-family="Times,serif" font-size="14.00">class = OLB</text>
</g>
<!-- 0&#45;&gt;468 -->
<g id="edge16" class="edge">
<title>0&#45;&gt;468</title>
<path fill="none" stroke="black" d="M1285.25,-428.91C1313.08,-418.47 1343.15,-407.19 1371.43,-396.59"/>
<polygon fill="black" stroke="black" points="1372.81,-399.81 1380.94,-393.02 1370.35,-393.25 1372.81,-399.81"/>
<text text-anchor="middle" x="1370.6" y="-412.08" font-family="Times,serif" font-size="14.00">False</text>
</g>
<!-- 2 -->
<g id="node3" class="node">
<title>2</title>
<polygon fill="#fbddee" stroke="black" points="582,-274 280,-274 280,-191 582,-191 582,-274"/>
<text text-anchor="middle" x="431" y="-258.8" font-family="Times,serif" font-size="14.00">sdComp &lt;= 0.02</text>
<text text-anchor="middle" x="431" y="-243.8" font-family="Times,serif" font-size="14.00">gini = 0.683</text>
<text text-anchor="middle" x="431" y="-228.8" font-family="Times,serif" font-size="14.00">samples = 9849</text>
<text text-anchor="middle" x="431" y="-213.8" font-family="Times,serif" font-size="14.00">value = [2812, 37, 32, 384, 2574, 4010]</text>
<text text-anchor="middle" x="431" y="-198.8" font-family="Times,serif" font-size="14.00">class = GDL</text>
</g>
<!-- 1&#45;&gt;2 -->
<g id="edge2" class="edge">
<title>1&#45;&gt;2</title>
<path fill="none" stroke="black" d="M726.48,-310.15C683.02,-298.88 635.72,-286.61 591.96,-275.26"/>
<polygon fill="black" stroke="black" points="592.66,-271.82 582.1,-272.7 590.9,-278.6 592.66,-271.82"/>
</g>
<!-- 223 -->
<g id="node10" class="node">
<title>223</title>
<polygon fill="#f6bcde" stroke="black" points="1037.5,-274 726.5,-274 726.5,-191 1037.5,-191 1037.5,-274"/>
<text text-anchor="middle" x="882" y="-258.8" font-family="Times,serif" font-size="14.00">graphSize &lt;= 22.5</text>
<text text-anchor="middle" x="882" y="-243.8" font-family="Times,serif" font-size="14.00">gini = 0.647</text>
<text text-anchor="middle" x="882" y="-228.8" font-family="Times,serif" font-size="14.00">samples = 7046</text>
<text text-anchor="middle" x="882" y="-213.8" font-family="Times,serif" font-size="14.00">value = [1256, 296, 52, 104, 1772, 3566]</text>
<text text-anchor="middle" x="882" y="-198.8" font-family="Times,serif" font-size="14.00">class = GDL</text>
</g>
<!-- 1&#45;&gt;223 -->
<g id="edge9" class="edge">
<title>1&#45;&gt;223</title>
<path fill="none" stroke="black" d="M882,-309.91C882,-301.65 882,-292.86 882,-284.3"/>
<polygon fill="black" stroke="black" points="885.5,-284.02 882,-274.02 878.5,-284.02 885.5,-284.02"/>
</g>
<!-- 3 -->
<g id="node4" class="node">
<title>3</title>
<polygon fill="#f6bdde" stroke="black" points="266,-155 0,-155 0,-72 266,-72 266,-155"/>
<text text-anchor="middle" x="133" y="-139.8" font-family="Times,serif" font-size="14.00">graphDepth &lt;= 9.0</text>
<text text-anchor="middle" x="133" y="-124.8" font-family="Times,serif" font-size="14.00">gini = 0.632</text>
<text text-anchor="middle" x="133" y="-109.8" font-family="Times,serif" font-size="14.00">samples = 2010</text>
<text text-anchor="middle" x="133" y="-94.8" font-family="Times,serif" font-size="14.00">value = [420, 18, 32, 0, 520, 1020]</text>
<text text-anchor="middle" x="133" y="-79.8" font-family="Times,serif" font-size="14.00">class = GDL</text>
</g>
<!-- 2&#45;&gt;3 -->
<g id="edge3" class="edge">
<title>2&#45;&gt;3</title>
<path fill="none" stroke="black" d="M327.61,-190.91C301.14,-180.52 272.55,-169.29 245.65,-158.73"/>
<polygon fill="black" stroke="black" points="246.79,-155.42 236.21,-155.02 244.24,-161.93 246.79,-155.42"/>
</g>
<!-- 84 -->
<g id="node7" class="node">
<title>84</title>
<polygon fill="#fce9f4" stroke="black" points="577.5,-155 284.5,-155 284.5,-72 577.5,-72 577.5,-155"/>
<text text-anchor="middle" x="431" y="-139.8" font-family="Times,serif" font-size="14.00">sdComm &lt;= 0.02</text>
<text text-anchor="middle" x="431" y="-124.8" font-family="Times,serif" font-size="14.00">gini = 0.69</text>
<text text-anchor="middle" x="431" y="-109.8" font-family="Times,serif" font-size="14.00">samples = 7839</text>
<text text-anchor="middle" x="431" y="-94.8" font-family="Times,serif" font-size="14.00">value = [2392, 19, 0, 384, 2054, 2990]</text>
<text text-anchor="middle" x="431" y="-79.8" font-family="Times,serif" font-size="14.00">class = GDL</text>
</g>
<!-- 2&#45;&gt;84 -->
<g id="edge6" class="edge">
<title>2&#45;&gt;84</title>
<path fill="none" stroke="black" d="M431,-190.91C431,-182.65 431,-173.86 431,-165.3"/>
<polygon fill="black" stroke="black" points="434.5,-165.02 431,-155.02 427.5,-165.02 434.5,-165.02"/>
</g>
<!-- 4 -->
<g id="node5" class="node">
<title>4</title>
<polygon fill="#c0c0c0" stroke="black" points="124,-36 70,-36 70,0 124,0 124,-36"/>
<text text-anchor="middle" x="97" y="-14.3" font-family="Times,serif" font-size="14.00">(...)</text>
</g>
<!-- 3&#45;&gt;4 -->
<g id="edge4" class="edge">
<title>3&#45;&gt;4</title>
<path fill="none" stroke="black" d="M117.31,-71.76C113.96,-63.04 110.49,-54.04 107.39,-45.99"/>
<polygon fill="black" stroke="black" points="110.56,-44.48 103.7,-36.41 104.03,-46.99 110.56,-44.48"/>
</g>
<!-- 47 -->
<g id="node6" class="node">
<title>47</title>
<polygon fill="#c0c0c0" stroke="black" points="196,-36 142,-36 142,0 196,0 196,-36"/>
<text text-anchor="middle" x="169" y="-14.3" font-family="Times,serif" font-size="14.00">(...)</text>
</g>
<!-- 3&#45;&gt;47 -->
<g id="edge5" class="edge">
<title>3&#45;&gt;47</title>
<path fill="none" stroke="black" d="M148.69,-71.76C152.04,-63.04 155.51,-54.04 158.61,-45.99"/>
<polygon fill="black" stroke="black" points="161.97,-46.99 162.3,-36.41 155.44,-44.48 161.97,-46.99"/>
</g>
<!-- 85 -->
<g id="node8" class="node">
<title>85</title>
<polygon fill="#c0c0c0" stroke="black" points="422,-36 368,-36 368,0 422,0 422,-36"/>
<text text-anchor="middle" x="395" y="-14.3" font-family="Times,serif" font-size="14.00">(...)</text>
</g>
<!-- 84&#45;&gt;85 -->
<g id="edge7" class="edge">
<title>84&#45;&gt;85</title>
<path fill="none" stroke="black" d="M415.31,-71.76C411.96,-63.04 408.49,-54.04 405.39,-45.99"/>
<polygon fill="black" stroke="black" points="408.56,-44.48 401.7,-36.41 402.03,-46.99 408.56,-44.48"/>
</g>
<!-- 128 -->
<g id="node9" class="node">
<title>128</title>
<polygon fill="#c0c0c0" stroke="black" points="494,-36 440,-36 440,0 494,0 494,-36"/>
<text text-anchor="middle" x="467" y="-14.3" font-family="Times,serif" font-size="14.00">(...)</text>
</g>
<!-- 84&#45;&gt;128 -->
<g id="edge8" class="edge">
<title>84&#45;&gt;128</title>
<path fill="none" stroke="black" d="M446.69,-71.76C450.04,-63.04 453.51,-54.04 456.61,-45.99"/>
<polygon fill="black" stroke="black" points="459.97,-46.99 460.3,-36.41 453.44,-44.48 459.97,-46.99"/>
</g>
<!-- 224 -->
<g id="node11" class="node">
<title>224</title>
<polygon fill="#fad6eb" stroke="black" points="898,-155 596,-155 596,-72 898,-72 898,-155"/>
<text text-anchor="middle" x="747" y="-139.8" font-family="Times,serif" font-size="14.00">sdComm &lt;= 0.65</text>
<text text-anchor="middle" x="747" y="-124.8" font-family="Times,serif" font-size="14.00">gini = 0.691</text>
<text text-anchor="middle" x="747" y="-109.8" font-family="Times,serif" font-size="14.00">samples = 4006</text>
<text text-anchor="middle" x="747" y="-94.8" font-family="Times,serif" font-size="14.00">value = [728, 244, 36, 104, 1152, 1742]</text>
<text text-anchor="middle" x="747" y="-79.8" font-family="Times,serif" font-size="14.00">class = GDL</text>
</g>
<!-- 223&#45;&gt;224 -->
<g id="edge10" class="edge">
<title>223&#45;&gt;224</title>
<path fill="none" stroke="black" d="M835.16,-190.91C824.27,-181.47 812.59,-171.34 801.4,-161.65"/>
<polygon fill="black" stroke="black" points="803.6,-158.93 793.75,-155.02 799.02,-164.22 803.6,-158.93"/>
</g>
<!-- 291 -->
<g id="node14" class="node">
<title>291</title>
<polygon fill="#f29cce" stroke="black" points="1182,-155 916,-155 916,-72 1182,-72 1182,-155"/>
<text text-anchor="middle" x="1049" y="-139.8" font-family="Times,serif" font-size="14.00">sdComp &lt;= 0.65</text>
<text text-anchor="middle" x="1049" y="-124.8" font-family="Times,serif" font-size="14.00">gini = 0.568</text>
<text text-anchor="middle" x="1049" y="-109.8" font-family="Times,serif" font-size="14.00">samples = 3040</text>
<text text-anchor="middle" x="1049" y="-94.8" font-family="Times,serif" font-size="14.00">value = [528, 52, 16, 0, 620, 1824]</text>
<text text-anchor="middle" x="1049" y="-79.8" font-family="Times,serif" font-size="14.00">class = GDL</text>
</g>
<!-- 223&#45;&gt;291 -->
<g id="edge13" class="edge">
<title>223&#45;&gt;291</title>
<path fill="none" stroke="black" d="M939.94,-190.91C953.8,-181.2 968.7,-170.76 982.9,-160.81"/>
<polygon fill="black" stroke="black" points="984.98,-163.63 991.16,-155.02 980.96,-157.89 984.98,-163.63"/>
</g>
<!-- 225 -->
<g id="node12" class="node">
<title>225</title>
<polygon fill="#c0c0c0" stroke="black" points="738,-36 684,-36 684,0 738,0 738,-36"/>
<text text-anchor="middle" x="711" y="-14.3" font-family="Times,serif" font-size="14.00">(...)</text>
</g>
<!-- 224&#45;&gt;225 -->
<g id="edge11" class="edge">
<title>224&#45;&gt;225</title>
<path fill="none" stroke="black" d="M731.31,-71.76C727.96,-63.04 724.49,-54.04 721.39,-45.99"/>
<polygon fill="black" stroke="black" points="724.56,-44.48 717.7,-36.41 718.03,-46.99 724.56,-44.48"/>
</g>
<!-- 268 -->
<g id="node13" class="node">
<title>268</title>
<polygon fill="#c0c0c0" stroke="black" points="810,-36 756,-36 756,0 810,0 810,-36"/>
<text text-anchor="middle" x="783" y="-14.3" font-family="Times,serif" font-size="14.00">(...)</text>
</g>
<!-- 224&#45;&gt;268 -->
<g id="edge12" class="edge">
<title>224&#45;&gt;268</title>
<path fill="none" stroke="black" d="M762.69,-71.76C766.04,-63.04 769.51,-54.04 772.61,-45.99"/>
<polygon fill="black" stroke="black" points="775.97,-46.99 776.3,-36.41 769.44,-44.48 775.97,-46.99"/>
</g>
<!-- 292 -->
<g id="node15" class="node">
<title>292</title>
<polygon fill="#c0c0c0" stroke="black" points="1040,-36 986,-36 986,0 1040,0 1040,-36"/>
<text text-anchor="middle" x="1013" y="-14.3" font-family="Times,serif" font-size="14.00">(...)</text>
</g>
<!-- 291&#45;&gt;292 -->
<g id="edge14" class="edge">
<title>291&#45;&gt;292</title>
<path fill="none" stroke="black" d="M1033.31,-71.76C1029.96,-63.04 1026.49,-54.04 1023.39,-45.99"/>
<polygon fill="black" stroke="black" points="1026.56,-44.48 1019.7,-36.41 1020.03,-46.99 1026.56,-44.48"/>
</g>
<!-- 413 -->
<g id="node16" class="node">
<title>413</title>
<polygon fill="#c0c0c0" stroke="black" points="1112,-36 1058,-36 1058,0 1112,0 1112,-36"/>
<text text-anchor="middle" x="1085" y="-14.3" font-family="Times,serif" font-size="14.00">(...)</text>
</g>
<!-- 291&#45;&gt;413 -->
<g id="edge15" class="edge">
<title>291&#45;&gt;413</title>
<path fill="none" stroke="black" d="M1064.69,-71.76C1068.04,-63.04 1071.51,-54.04 1074.61,-45.99"/>
<polygon fill="black" stroke="black" points="1077.97,-46.99 1078.3,-36.41 1071.44,-44.48 1077.97,-46.99"/>
</g>
<!-- 469 -->
<g id="node18" class="node">
<title>469</title>
<polygon fill="#b3f5cf" stroke="black" points="1640,-274 1338,-274 1338,-191 1640,-191 1640,-274"/>
<text text-anchor="middle" x="1489" y="-258.8" font-family="Times,serif" font-size="14.00">nbproc &lt;= 4.5</text>
<text text-anchor="middle" x="1489" y="-243.8" font-family="Times,serif" font-size="14.00">gini = 0.699</text>
<text text-anchor="middle" x="1489" y="-228.8" font-family="Times,serif" font-size="14.00">samples = 3962</text>
<text text-anchor="middle" x="1489" y="-213.8" font-family="Times,serif" font-size="14.00">value = [432, 318, 1936, 684, 438, 154]</text>
<text text-anchor="middle" x="1489" y="-198.8" font-family="Times,serif" font-size="14.00">class = OLB</text>
</g>
<!-- 468&#45;&gt;469 -->
<g id="edge17" class="edge">
<title>468&#45;&gt;469</title>
<path fill="none" stroke="black" d="M1489,-309.91C1489,-301.65 1489,-292.86 1489,-284.3"/>
<polygon fill="black" stroke="black" points="1492.5,-284.02 1489,-274.02 1485.5,-284.02 1492.5,-284.02"/>
</g>
<!-- 562 -->
<g id="node25" class="node">
<title>562</title>
<polygon fill="#c9f8dd" stroke="black" points="2120,-274 1800,-274 1800,-191 2120,-191 2120,-274"/>
<text text-anchor="middle" x="1960" y="-258.8" font-family="Times,serif" font-size="14.00">graphSize &lt;= 22.5</text>
<text text-anchor="middle" x="1960" y="-243.8" font-family="Times,serif" font-size="14.00">gini = 0.74</text>
<text text-anchor="middle" x="1960" y="-228.8" font-family="Times,serif" font-size="14.00">samples = 7436</text>
<text text-anchor="middle" x="1960" y="-213.8" font-family="Times,serif" font-size="14.00">value = [1392, 720, 3068, 152, 1434, 670]</text>
<text text-anchor="middle" x="1960" y="-198.8" font-family="Times,serif" font-size="14.00">class = OLB</text>
</g>
<!-- 468&#45;&gt;562 -->
<g id="edge24" class="edge">
<title>468&#45;&gt;562</title>
<path fill="none" stroke="black" d="M1652.08,-309.99C1696.65,-298.92 1745.06,-286.89 1790.01,-275.73"/>
<polygon fill="black" stroke="black" points="1790.98,-279.09 1799.85,-273.28 1789.3,-272.3 1790.98,-279.09"/>
</g>
<!-- 470 -->
<g id="node19" class="node">
<title>470</title>
<polygon fill="#cbf8de" stroke="black" points="1493.5,-155 1200.5,-155 1200.5,-72 1493.5,-72 1493.5,-155"/>
<text text-anchor="middle" x="1347" y="-139.8" font-family="Times,serif" font-size="14.00">graphDepth &lt;= 3.5</text>
<text text-anchor="middle" x="1347" y="-124.8" font-family="Times,serif" font-size="14.00">gini = 0.769</text>
<text text-anchor="middle" x="1347" y="-109.8" font-family="Times,serif" font-size="14.00">samples = 1794</text>
<text text-anchor="middle" x="1347" y="-94.8" font-family="Times,serif" font-size="14.00">value = [244, 166, 692, 300, 274, 118]</text>
<text text-anchor="middle" x="1347" y="-79.8" font-family="Times,serif" font-size="14.00">class = OLB</text>
</g>
<!-- 469&#45;&gt;470 -->
<g id="edge18" class="edge">
<title>469&#45;&gt;470</title>
<path fill="none" stroke="black" d="M1439.73,-190.91C1428.28,-181.47 1415.99,-171.34 1404.22,-161.65"/>
<polygon fill="black" stroke="black" points="1406.12,-158.68 1396.18,-155.02 1401.67,-164.08 1406.12,-158.68"/>
</g>
<!-- 517 -->
<g id="node22" class="node">
<title>517</title>
<polygon fill="#a0f2c2" stroke="black" points="1804.5,-155 1511.5,-155 1511.5,-72 1804.5,-72 1804.5,-155"/>
<text text-anchor="middle" x="1658" y="-139.8" font-family="Times,serif" font-size="14.00">graphDepth &lt;= 25.5</text>
<text text-anchor="middle" x="1658" y="-124.8" font-family="Times,serif" font-size="14.00">gini = 0.621</text>
<text text-anchor="middle" x="1658" y="-109.8" font-family="Times,serif" font-size="14.00">samples = 2168</text>
<text text-anchor="middle" x="1658" y="-94.8" font-family="Times,serif" font-size="14.00">value = [188, 152, 1244, 384, 164, 36]</text>
<text text-anchor="middle" x="1658" y="-79.8" font-family="Times,serif" font-size="14.00">class = OLB</text>
</g>
<!-- 469&#45;&gt;517 -->
<g id="edge21" class="edge">
<title>469&#45;&gt;517</title>
<path fill="none" stroke="black" d="M1547.63,-190.91C1561.66,-181.2 1576.74,-170.76 1591.11,-160.81"/>
<polygon fill="black" stroke="black" points="1593.24,-163.59 1599.47,-155.02 1589.26,-157.84 1593.24,-163.59"/>
</g>
<!-- 471 -->
<g id="node20" class="node">
<title>471</title>
<polygon fill="#c0c0c0" stroke="black" points="1338,-36 1284,-36 1284,0 1338,0 1338,-36"/>
<text text-anchor="middle" x="1311" y="-14.3" font-family="Times,serif" font-size="14.00">(...)</text>
</g>
<!-- 470&#45;&gt;471 -->
<g id="edge19" class="edge">
<title>470&#45;&gt;471</title>
<path fill="none" stroke="black" d="M1331.31,-71.76C1327.96,-63.04 1324.49,-54.04 1321.39,-45.99"/>
<polygon fill="black" stroke="black" points="1324.56,-44.48 1317.7,-36.41 1318.03,-46.99 1324.56,-44.48"/>
</g>
<!-- 476 -->
<g id="node21" class="node">
<title>476</title>
<polygon fill="#c0c0c0" stroke="black" points="1410,-36 1356,-36 1356,0 1410,0 1410,-36"/>
<text text-anchor="middle" x="1383" y="-14.3" font-family="Times,serif" font-size="14.00">(...)</text>
</g>
<!-- 470&#45;&gt;476 -->
<g id="edge20" class="edge">
<title>470&#45;&gt;476</title>
<path fill="none" stroke="black" d="M1362.69,-71.76C1366.04,-63.04 1369.51,-54.04 1372.61,-45.99"/>
<polygon fill="black" stroke="black" points="1375.97,-46.99 1376.3,-36.41 1369.44,-44.48 1375.97,-46.99"/>
</g>
<!-- 518 -->
<g id="node23" class="node">
<title>518</title>
<polygon fill="#c0c0c0" stroke="black" points="1649,-36 1595,-36 1595,0 1649,0 1649,-36"/>
<text text-anchor="middle" x="1622" y="-14.3" font-family="Times,serif" font-size="14.00">(...)</text>
</g>
<!-- 517&#45;&gt;518 -->
<g id="edge22" class="edge">
<title>517&#45;&gt;518</title>
<path fill="none" stroke="black" d="M1642.31,-71.76C1638.96,-63.04 1635.49,-54.04 1632.39,-45.99"/>
<polygon fill="black" stroke="black" points="1635.56,-44.48 1628.7,-36.41 1629.03,-46.99 1635.56,-44.48"/>
</g>
<!-- 557 -->
<g id="node24" class="node">
<title>557</title>
<polygon fill="#c0c0c0" stroke="black" points="1721,-36 1667,-36 1667,0 1721,0 1721,-36"/>
<text text-anchor="middle" x="1694" y="-14.3" font-family="Times,serif" font-size="14.00">(...)</text>
</g>
<!-- 517&#45;&gt;557 -->
<g id="edge23" class="edge">
<title>517&#45;&gt;557</title>
<path fill="none" stroke="black" d="M1673.69,-71.76C1677.04,-63.04 1680.51,-54.04 1683.61,-45.99"/>
<polygon fill="black" stroke="black" points="1686.97,-46.99 1687.3,-36.41 1680.44,-44.48 1686.97,-46.99"/>
</g>
<!-- 563 -->
<g id="node26" class="node">
<title>563</title>
<polygon fill="#e5fcef" stroke="black" points="2097.5,-155 1822.5,-155 1822.5,-72 2097.5,-72 2097.5,-155"/>
<text text-anchor="middle" x="1960" y="-139.8" font-family="Times,serif" font-size="14.00">graphDepth &lt;= 3.5</text>
<text text-anchor="middle" x="1960" y="-124.8" font-family="Times,serif" font-size="14.00">gini = 0.779</text>
<text text-anchor="middle" x="1960" y="-109.8" font-family="Times,serif" font-size="14.00">samples = 2516</text>
<text text-anchor="middle" x="1960" y="-94.8" font-family="Times,serif" font-size="14.00">value = [530, 324, 788, 8, 522, 344]</text>
<text text-anchor="middle" x="1960" y="-79.8" font-family="Times,serif" font-size="14.00">class = OLB</text>
</g>
<!-- 562&#45;&gt;563 -->
<g id="edge25" class="edge">
<title>562&#45;&gt;563</title>
<path fill="none" stroke="black" d="M1960,-190.91C1960,-182.65 1960,-173.86 1960,-165.3"/>
<polygon fill="black" stroke="black" points="1963.5,-165.02 1960,-155.02 1956.5,-165.02 1963.5,-165.02"/>
</g>
<!-- 608 -->
<g id="node29" class="node">
<title>608</title>
<polygon fill="#bbf6d4" stroke="black" points="2418,-155 2116,-155 2116,-72 2418,-72 2418,-155"/>
<text text-anchor="middle" x="2267" y="-139.8" font-family="Times,serif" font-size="14.00">sdComp &lt;= 6.5</text>
<text text-anchor="middle" x="2267" y="-124.8" font-family="Times,serif" font-size="14.00">gini = 0.708</text>
<text text-anchor="middle" x="2267" y="-109.8" font-family="Times,serif" font-size="14.00">samples = 4920</text>
<text text-anchor="middle" x="2267" y="-94.8" font-family="Times,serif" font-size="14.00">value = [862, 396, 2280, 144, 912, 326]</text>
<text text-anchor="middle" x="2267" y="-79.8" font-family="Times,serif" font-size="14.00">class = OLB</text>
</g>
<!-- 562&#45;&gt;608 -->
<g id="edge28" class="edge">
<title>562&#45;&gt;608</title>
<path fill="none" stroke="black" d="M2066.51,-190.91C2093.9,-180.47 2123.49,-169.19 2151.31,-158.59"/>
<polygon fill="black" stroke="black" points="2152.58,-161.85 2160.68,-155.02 2150.09,-155.31 2152.58,-161.85"/>
</g>
<!-- 564 -->
<g id="node27" class="node">
<title>564</title>
<polygon fill="#c0c0c0" stroke="black" points="1951,-36 1897,-36 1897,0 1951,0 1951,-36"/>
<text text-anchor="middle" x="1924" y="-14.3" font-family="Times,serif" font-size="14.00">(...)</text>
</g>
<!-- 563&#45;&gt;564 -->
<g id="edge26" class="edge">
<title>563&#45;&gt;564</title>
<path fill="none" stroke="black" d="M1944.31,-71.76C1940.96,-63.04 1937.49,-54.04 1934.39,-45.99"/>
<polygon fill="black" stroke="black" points="1937.56,-44.48 1930.7,-36.41 1931.03,-46.99 1937.56,-44.48"/>
</g>
<!-- 585 -->
<g id="node28" class="node">
<title>585</title>
<polygon fill="#c0c0c0" stroke="black" points="2023,-36 1969,-36 1969,0 2023,0 2023,-36"/>
<text text-anchor="middle" x="1996" y="-14.3" font-family="Times,serif" font-size="14.00">(...)</text>
</g>
<!-- 563&#45;&gt;585 -->
<g id="edge27" class="edge">
<title>563&#45;&gt;585</title>
<path fill="none" stroke="black" d="M1975.69,-71.76C1979.04,-63.04 1982.51,-54.04 1985.61,-45.99"/>
<polygon fill="black" stroke="black" points="1988.97,-46.99 1989.3,-36.41 1982.44,-44.48 1988.97,-46.99"/>
</g>
<!-- 609 -->
<g id="node30" class="node">
<title>609</title>
<polygon fill="#c0c0c0" stroke="black" points="2258,-36 2204,-36 2204,0 2258,0 2258,-36"/>
<text text-anchor="middle" x="2231" y="-14.3" font-family="Times,serif" font-size="14.00">(...)</text>
</g>
<!-- 608&#45;&gt;609 -->
<g id="edge29" class="edge">
<title>608&#45;&gt;609</title>
<path fill="none" stroke="black" d="M2251.31,-71.76C2247.96,-63.04 2244.49,-54.04 2241.39,-45.99"/>
<polygon fill="black" stroke="black" points="2244.56,-44.48 2237.7,-36.41 2238.03,-46.99 2244.56,-44.48"/>
</g>
<!-- 672 -->
<g id="node31" class="node">
<title>672</title>
<polygon fill="#c0c0c0" stroke="black" points="2330,-36 2276,-36 2276,0 2330,0 2330,-36"/>
<text text-anchor="middle" x="2303" y="-14.3" font-family="Times,serif" font-size="14.00">(...)</text>
</g>
<!-- 608&#45;&gt;672 -->
<g id="edge30" class="edge">
<title>608&#45;&gt;672</title>
<path fill="none" stroke="black" d="M2282.69,-71.76C2286.04,-63.04 2289.51,-54.04 2292.61,-45.99"/>
<polygon fill="black" stroke="black" points="2295.97,-46.99 2296.3,-36.41 2289.44,-44.48 2295.97,-46.99"/>
</g>
</g>
</svg>
