<?xml version="1.0" encoding="UTF-8" standalone="no"?>
<!DOCTYPE svg PUBLIC "-//W3C//DTD SVG 1.1//EN"
 "http://www.w3.org/Graphics/SVG/1.1/DTD/svg11.dtd">
<!-- Generated by graphviz version 2.43.0 (0)
 -->
<!-- Title: Tree Pages: 1 -->
<svg width="2532pt" height="520pt"
 viewBox="0.00 0.00 2532.00 520.00" xmlns="http://www.w3.org/2000/svg" xmlns:xlink="http://www.w3.org/1999/xlink">
<g id="graph0" class="graph" transform="scale(1 1) rotate(0) translate(4 516)">
<title>Tree</title>
<polygon fill="white" stroke="transparent" points="-4,4 -4,-516 2528,-516 2528,4 -4,4"/>
<!-- 0 -->
<g id="node1" class="node">
<title>0</title>
<polygon fill="#fef9f6" stroke="black" points="1381,-512 1034,-512 1034,-429 1381,-429 1381,-512"/>
<text text-anchor="middle" x="1207.5" y="-496.8" font-family="Times,serif" font-size="14.00">sdComm &lt;= 0.065</text>
<text text-anchor="middle" x="1207.5" y="-481.8" font-family="Times,serif" font-size="14.00">gini = 0.832</text>
<text text-anchor="middle" x="1207.5" y="-466.8" font-family="Times,serif" font-size="14.00">samples = 33378</text>
<text text-anchor="middle" x="1207.5" y="-451.8" font-family="Times,serif" font-size="14.00">value = [6698, 5236, 5409, 5313, 5313, 5409]</text>
<text text-anchor="middle" x="1207.5" y="-436.8" font-family="Times,serif" font-size="14.00">class = mean</text>
</g>
<!-- 1 -->
<g id="node2" class="node">
<title>1</title>
<polygon fill="#fefbf8" stroke="black" points="1111,-393 764,-393 764,-310 1111,-310 1111,-393"/>
<text text-anchor="middle" x="937.5" y="-377.8" font-family="Times,serif" font-size="14.00">graphSize &lt;= 40.0</text>
<text text-anchor="middle" x="937.5" y="-362.8" font-family="Times,serif" font-size="14.00">gini = 0.831</text>
<text text-anchor="middle" x="937.5" y="-347.8" font-family="Times,serif" font-size="14.00">samples = 12680</text>
<text text-anchor="middle" x="937.5" y="-332.8" font-family="Times,serif" font-size="14.00">value = [2536, 1820, 2172, 1990, 1990, 2172]</text>
<text text-anchor="middle" x="937.5" y="-317.8" font-family="Times,serif" font-size="14.00">class = mean</text>
</g>
<!-- 0&#45;&gt;1 -->
<g id="edge1" class="edge">
<title>0&#45;&gt;1</title>
<path fill="none" stroke="black" d="M1113.82,-428.91C1090.06,-418.61 1064.39,-407.49 1040.2,-397"/>
<polygon fill="black" stroke="black" points="1041.58,-393.79 1031.01,-393.02 1038.79,-400.21 1041.58,-393.79"/>
<text text-anchor="middle" x="1040.2" y="-412.57" font-family="Times,serif" font-size="14.00">True</text>
</g>
<!-- 170 -->
<g id="node17" class="node">
<title>170</title>
<polygon fill="#fefaf6" stroke="black" points="1703,-393 1356,-393 1356,-310 1703,-310 1703,-393"/>
<text text-anchor="middle" x="1529.5" y="-377.8" font-family="Times,serif" font-size="14.00">CCR &lt;= 0.55</text>
<text text-anchor="middle" x="1529.5" y="-362.8" font-family="Times,serif" font-size="14.00">gini = 0.832</text>
<text text-anchor="middle" x="1529.5" y="-347.8" font-family="Times,serif" font-size="14.00">samples = 20698</text>
<text text-anchor="middle" x="1529.5" y="-332.8" font-family="Times,serif" font-size="14.00">value = [4162, 3416, 3237, 3323, 3323, 3237]</text>
<text text-anchor="middle" x="1529.5" y="-317.8" font-family="Times,serif" font-size="14.00">class = mean</text>
</g>
<!-- 0&#45;&gt;170 -->
<g id="edge16" class="edge">
<title>0&#45;&gt;170</title>
<path fill="none" stroke="black" d="M1319.22,-428.91C1348.06,-418.43 1379.25,-407.1 1408.54,-396.45"/>
<polygon fill="black" stroke="black" points="1409.78,-399.73 1417.98,-393.02 1407.39,-393.15 1409.78,-399.73"/>
<text text-anchor="middle" x="1407.4" y="-411.97" font-family="Times,serif" font-size="14.00">False</text>
</g>
<!-- 2 -->
<g id="node3" class="node">
<title>2</title>
<polygon fill="#fefcfb" stroke="black" points="685,-274 338,-274 338,-191 685,-191 685,-274"/>
<text text-anchor="middle" x="511.5" y="-258.8" font-family="Times,serif" font-size="14.00">graphSize &lt;= 22.5</text>
<text text-anchor="middle" x="511.5" y="-243.8" font-family="Times,serif" font-size="14.00">gini = 0.832</text>
<text text-anchor="middle" x="511.5" y="-228.8" font-family="Times,serif" font-size="14.00">samples = 11350</text>
<text text-anchor="middle" x="511.5" y="-213.8" font-family="Times,serif" font-size="14.00">value = [2178, 1676, 1986, 1762, 1762, 1986]</text>
<text text-anchor="middle" x="511.5" y="-198.8" font-family="Times,serif" font-size="14.00">class = mean</text>
</g>
<!-- 1&#45;&gt;2 -->
<g id="edge2" class="edge">
<title>1&#45;&gt;2</title>
<path fill="none" stroke="black" d="M790,-309.99C750.91,-299.25 708.56,-287.62 668.97,-276.75"/>
<polygon fill="black" stroke="black" points="669.8,-273.35 659.23,-274.07 667.95,-280.1 669.8,-273.35"/>
</g>
<!-- 91 -->
<g id="node10" class="node">
<title>91</title>
<polygon fill="#fcf0e8" stroke="black" points="1084,-274 791,-274 791,-191 1084,-191 1084,-274"/>
<text text-anchor="middle" x="937.5" y="-258.8" font-family="Times,serif" font-size="14.00">graphDepth &lt;= 25.5</text>
<text text-anchor="middle" x="937.5" y="-243.8" font-family="Times,serif" font-size="14.00">gini = 0.818</text>
<text text-anchor="middle" x="937.5" y="-228.8" font-family="Times,serif" font-size="14.00">samples = 1330</text>
<text text-anchor="middle" x="937.5" y="-213.8" font-family="Times,serif" font-size="14.00">value = [358, 144, 186, 228, 228, 186]</text>
<text text-anchor="middle" x="937.5" y="-198.8" font-family="Times,serif" font-size="14.00">class = mean</text>
</g>
<!-- 1&#45;&gt;91 -->
<g id="edge9" class="edge">
<title>1&#45;&gt;91</title>
<path fill="none" stroke="black" d="M937.5,-309.91C937.5,-301.65 937.5,-292.86 937.5,-284.3"/>
<polygon fill="black" stroke="black" points="941,-284.02 937.5,-274.02 934,-284.02 941,-284.02"/>
</g>
<!-- 3 -->
<g id="node4" class="node">
<title>3</title>
<polygon fill="#fffdfc" stroke="black" points="347,-155 0,-155 0,-72 347,-72 347,-155"/>
<text text-anchor="middle" x="173.5" y="-139.8" font-family="Times,serif" font-size="14.00">sdComm &lt;= 0.02</text>
<text text-anchor="middle" x="173.5" y="-124.8" font-family="Times,serif" font-size="14.00">gini = 0.832</text>
<text text-anchor="middle" x="173.5" y="-109.8" font-family="Times,serif" font-size="14.00">samples = 8952</text>
<text text-anchor="middle" x="173.5" y="-94.8" font-family="Times,serif" font-size="14.00">value = [1674, 1290, 1564, 1430, 1430, 1564]</text>
<text text-anchor="middle" x="173.5" y="-79.8" font-family="Times,serif" font-size="14.00">class = mean</text>
</g>
<!-- 2&#45;&gt;3 -->
<g id="edge3" class="edge">
<title>2&#45;&gt;3</title>
<path fill="none" stroke="black" d="M394.23,-190.91C363.82,-180.38 330.94,-169 300.07,-158.31"/>
<polygon fill="black" stroke="black" points="301.15,-154.98 290.56,-155.02 298.87,-161.6 301.15,-154.98"/>
</g>
<!-- 50 -->
<g id="node7" class="node">
<title>50</title>
<polygon fill="#fefaf7" stroke="black" points="658,-155 365,-155 365,-72 658,-72 658,-155"/>
<text text-anchor="middle" x="511.5" y="-139.8" font-family="Times,serif" font-size="14.00">graphDepth &lt;= 7.5</text>
<text text-anchor="middle" x="511.5" y="-124.8" font-family="Times,serif" font-size="14.00">gini = 0.83</text>
<text text-anchor="middle" x="511.5" y="-109.8" font-family="Times,serif" font-size="14.00">samples = 2398</text>
<text text-anchor="middle" x="511.5" y="-94.8" font-family="Times,serif" font-size="14.00">value = [504, 386, 422, 332, 332, 422]</text>
<text text-anchor="middle" x="511.5" y="-79.8" font-family="Times,serif" font-size="14.00">class = mean</text>
</g>
<!-- 2&#45;&gt;50 -->
<g id="edge6" class="edge">
<title>2&#45;&gt;50</title>
<path fill="none" stroke="black" d="M511.5,-190.91C511.5,-182.65 511.5,-173.86 511.5,-165.3"/>
<polygon fill="black" stroke="black" points="515,-165.02 511.5,-155.02 508,-165.02 515,-165.02"/>
</g>
<!-- 4 -->
<g id="node5" class="node">
<title>4</title>
<polygon fill="#c0c0c0" stroke="black" points="164.5,-36 110.5,-36 110.5,0 164.5,0 164.5,-36"/>
<text text-anchor="middle" x="137.5" y="-14.3" font-family="Times,serif" font-size="14.00">(...)</text>
</g>
<!-- 3&#45;&gt;4 -->
<g id="edge4" class="edge">
<title>3&#45;&gt;4</title>
<path fill="none" stroke="black" d="M157.81,-71.76C154.46,-63.04 150.99,-54.04 147.89,-45.99"/>
<polygon fill="black" stroke="black" points="151.06,-44.48 144.2,-36.41 144.53,-46.99 151.06,-44.48"/>
</g>
<!-- 27 -->
<g id="node6" class="node">
<title>27</title>
<polygon fill="#c0c0c0" stroke="black" points="236.5,-36 182.5,-36 182.5,0 236.5,0 236.5,-36"/>
<text text-anchor="middle" x="209.5" y="-14.3" font-family="Times,serif" font-size="14.00">(...)</text>
</g>
<!-- 3&#45;&gt;27 -->
<g id="edge5" class="edge">
<title>3&#45;&gt;27</title>
<path fill="none" stroke="black" d="M189.19,-71.76C192.54,-63.04 196.01,-54.04 199.11,-45.99"/>
<polygon fill="black" stroke="black" points="202.47,-46.99 202.8,-36.41 195.94,-44.48 202.47,-46.99"/>
</g>
<!-- 51 -->
<g id="node8" class="node">
<title>51</title>
<polygon fill="#c0c0c0" stroke="black" points="502.5,-36 448.5,-36 448.5,0 502.5,0 502.5,-36"/>
<text text-anchor="middle" x="475.5" y="-14.3" font-family="Times,serif" font-size="14.00">(...)</text>
</g>
<!-- 50&#45;&gt;51 -->
<g id="edge7" class="edge">
<title>50&#45;&gt;51</title>
<path fill="none" stroke="black" d="M495.81,-71.76C492.46,-63.04 488.99,-54.04 485.89,-45.99"/>
<polygon fill="black" stroke="black" points="489.06,-44.48 482.2,-36.41 482.53,-46.99 489.06,-44.48"/>
</g>
<!-- 68 -->
<g id="node9" class="node">
<title>68</title>
<polygon fill="#c0c0c0" stroke="black" points="574.5,-36 520.5,-36 520.5,0 574.5,0 574.5,-36"/>
<text text-anchor="middle" x="547.5" y="-14.3" font-family="Times,serif" font-size="14.00">(...)</text>
</g>
<!-- 50&#45;&gt;68 -->
<g id="edge8" class="edge">
<title>50&#45;&gt;68</title>
<path fill="none" stroke="black" d="M527.19,-71.76C530.54,-63.04 534.01,-54.04 537.11,-45.99"/>
<polygon fill="black" stroke="black" points="540.47,-46.99 540.8,-36.41 533.94,-44.48 540.47,-46.99"/>
</g>
<!-- 92 -->
<g id="node11" class="node">
<title>92</title>
<polygon fill="#fceee5" stroke="black" points="969,-155 676,-155 676,-72 969,-72 969,-155"/>
<text text-anchor="middle" x="822.5" y="-139.8" font-family="Times,serif" font-size="14.00">sdComp &lt;= 0.02</text>
<text text-anchor="middle" x="822.5" y="-124.8" font-family="Times,serif" font-size="14.00">gini = 0.82</text>
<text text-anchor="middle" x="822.5" y="-109.8" font-family="Times,serif" font-size="14.00">samples = 1156</text>
<text text-anchor="middle" x="822.5" y="-94.8" font-family="Times,serif" font-size="14.00">value = [310, 130, 176, 182, 182, 176]</text>
<text text-anchor="middle" x="822.5" y="-79.8" font-family="Times,serif" font-size="14.00">class = mean</text>
</g>
<!-- 91&#45;&gt;92 -->
<g id="edge10" class="edge">
<title>91&#45;&gt;92</title>
<path fill="none" stroke="black" d="M897.6,-190.91C888.5,-181.65 878.75,-171.73 869.39,-162.21"/>
<polygon fill="black" stroke="black" points="871.83,-159.7 862.33,-155.02 866.84,-164.61 871.83,-159.7"/>
</g>
<!-- 151 -->
<g id="node14" class="node">
<title>151</title>
<polygon fill="#fffdfc" stroke="black" points="1226,-155 987,-155 987,-72 1226,-72 1226,-155"/>
<text text-anchor="middle" x="1106.5" y="-139.8" font-family="Times,serif" font-size="14.00">nbproc &lt;= 4.5</text>
<text text-anchor="middle" x="1106.5" y="-124.8" font-family="Times,serif" font-size="14.00">gini = 0.771</text>
<text text-anchor="middle" x="1106.5" y="-109.8" font-family="Times,serif" font-size="14.00">samples = 174</text>
<text text-anchor="middle" x="1106.5" y="-94.8" font-family="Times,serif" font-size="14.00">value = [48, 14, 10, 46, 46, 10]</text>
<text text-anchor="middle" x="1106.5" y="-79.8" font-family="Times,serif" font-size="14.00">class = mean</text>
</g>
<!-- 91&#45;&gt;151 -->
<g id="edge13" class="edge">
<title>91&#45;&gt;151</title>
<path fill="none" stroke="black" d="M996.13,-190.91C1010.16,-181.2 1025.24,-170.76 1039.61,-160.81"/>
<polygon fill="black" stroke="black" points="1041.74,-163.59 1047.97,-155.02 1037.76,-157.84 1041.74,-163.59"/>
</g>
<!-- 93 -->
<g id="node12" class="node">
<title>93</title>
<polygon fill="#c0c0c0" stroke="black" points="813.5,-36 759.5,-36 759.5,0 813.5,0 813.5,-36"/>
<text text-anchor="middle" x="786.5" y="-14.3" font-family="Times,serif" font-size="14.00">(...)</text>
</g>
<!-- 92&#45;&gt;93 -->
<g id="edge11" class="edge">
<title>92&#45;&gt;93</title>
<path fill="none" stroke="black" d="M806.81,-71.76C803.46,-63.04 799.99,-54.04 796.89,-45.99"/>
<polygon fill="black" stroke="black" points="800.06,-44.48 793.2,-36.41 793.53,-46.99 800.06,-44.48"/>
</g>
<!-- 110 -->
<g id="node13" class="node">
<title>110</title>
<polygon fill="#c0c0c0" stroke="black" points="885.5,-36 831.5,-36 831.5,0 885.5,0 885.5,-36"/>
<text text-anchor="middle" x="858.5" y="-14.3" font-family="Times,serif" font-size="14.00">(...)</text>
</g>
<!-- 92&#45;&gt;110 -->
<g id="edge12" class="edge">
<title>92&#45;&gt;110</title>
<path fill="none" stroke="black" d="M838.19,-71.76C841.54,-63.04 845.01,-54.04 848.11,-45.99"/>
<polygon fill="black" stroke="black" points="851.47,-46.99 851.8,-36.41 844.94,-44.48 851.47,-46.99"/>
</g>
<!-- 152 -->
<g id="node15" class="node">
<title>152</title>
<polygon fill="#c0c0c0" stroke="black" points="1097.5,-36 1043.5,-36 1043.5,0 1097.5,0 1097.5,-36"/>
<text text-anchor="middle" x="1070.5" y="-14.3" font-family="Times,serif" font-size="14.00">(...)</text>
</g>
<!-- 151&#45;&gt;152 -->
<g id="edge14" class="edge">
<title>151&#45;&gt;152</title>
<path fill="none" stroke="black" d="M1090.81,-71.76C1087.46,-63.04 1083.99,-54.04 1080.89,-45.99"/>
<polygon fill="black" stroke="black" points="1084.06,-44.48 1077.2,-36.41 1077.53,-46.99 1084.06,-44.48"/>
</g>
<!-- 161 -->
<g id="node16" class="node">
<title>161</title>
<polygon fill="#c0c0c0" stroke="black" points="1169.5,-36 1115.5,-36 1115.5,0 1169.5,0 1169.5,-36"/>
<text text-anchor="middle" x="1142.5" y="-14.3" font-family="Times,serif" font-size="14.00">(...)</text>
</g>
<!-- 151&#45;&gt;161 -->
<g id="edge15" class="edge">
<title>151&#45;&gt;161</title>
<path fill="none" stroke="black" d="M1122.19,-71.76C1125.54,-63.04 1129.01,-54.04 1132.11,-45.99"/>
<polygon fill="black" stroke="black" points="1135.47,-46.99 1135.8,-36.41 1128.94,-44.48 1135.47,-46.99"/>
</g>
<!-- 171 -->
<g id="node18" class="node">
<title>171</title>
<polygon fill="#fef8f4" stroke="black" points="1680.5,-274 1378.5,-274 1378.5,-191 1680.5,-191 1680.5,-274"/>
<text text-anchor="middle" x="1529.5" y="-258.8" font-family="Times,serif" font-size="14.00">graphDepth &lt;= 9.0</text>
<text text-anchor="middle" x="1529.5" y="-243.8" font-family="Times,serif" font-size="14.00">gini = 0.831</text>
<text text-anchor="middle" x="1529.5" y="-228.8" font-family="Times,serif" font-size="14.00">samples = 4898</text>
<text text-anchor="middle" x="1529.5" y="-213.8" font-family="Times,serif" font-size="14.00">value = [1044, 822, 780, 736, 736, 780]</text>
<text text-anchor="middle" x="1529.5" y="-198.8" font-family="Times,serif" font-size="14.00">class = mean</text>
</g>
<!-- 170&#45;&gt;171 -->
<g id="edge17" class="edge">
<title>170&#45;&gt;171</title>
<path fill="none" stroke="black" d="M1529.5,-309.91C1529.5,-301.65 1529.5,-292.86 1529.5,-284.3"/>
<polygon fill="black" stroke="black" points="1533,-284.02 1529.5,-274.02 1526,-284.02 1533,-284.02"/>
</g>
<!-- 258 -->
<g id="node25" class="node">
<title>258</title>
<polygon fill="#fefaf7" stroke="black" points="2186,-274 1839,-274 1839,-191 2186,-191 2186,-274"/>
<text text-anchor="middle" x="2012.5" y="-258.8" font-family="Times,serif" font-size="14.00">graphDepth &lt;= 3.5</text>
<text text-anchor="middle" x="2012.5" y="-243.8" font-family="Times,serif" font-size="14.00">gini = 0.832</text>
<text text-anchor="middle" x="2012.5" y="-228.8" font-family="Times,serif" font-size="14.00">samples = 15800</text>
<text text-anchor="middle" x="2012.5" y="-213.8" font-family="Times,serif" font-size="14.00">value = [3118, 2594, 2457, 2587, 2587, 2457]</text>
<text text-anchor="middle" x="2012.5" y="-198.8" font-family="Times,serif" font-size="14.00">class = mean</text>
</g>
<!-- 170&#45;&gt;258 -->
<g id="edge24" class="edge">
<title>170&#45;&gt;258</title>
<path fill="none" stroke="black" d="M1696.74,-309.99C1741.43,-299.16 1789.88,-287.43 1835.1,-276.47"/>
<polygon fill="black" stroke="black" points="1836.1,-279.83 1845,-274.07 1834.46,-273.03 1836.1,-279.83"/>
</g>
<!-- 172 -->
<g id="node19" class="node">
<title>172</title>
<polygon fill="#fef8f4" stroke="black" points="1537,-155 1244,-155 1244,-72 1537,-72 1537,-155"/>
<text text-anchor="middle" x="1390.5" y="-139.8" font-family="Times,serif" font-size="14.00">graphDepth &lt;= 3.5</text>
<text text-anchor="middle" x="1390.5" y="-124.8" font-family="Times,serif" font-size="14.00">gini = 0.829</text>
<text text-anchor="middle" x="1390.5" y="-109.8" font-family="Times,serif" font-size="14.00">samples = 3966</text>
<text text-anchor="middle" x="1390.5" y="-94.8" font-family="Times,serif" font-size="14.00">value = [862, 680, 666, 546, 546, 666]</text>
<text text-anchor="middle" x="1390.5" y="-79.8" font-family="Times,serif" font-size="14.00">class = mean</text>
</g>
<!-- 171&#45;&gt;172 -->
<g id="edge18" class="edge">
<title>171&#45;&gt;172</title>
<path fill="none" stroke="black" d="M1481.27,-190.91C1470.06,-181.47 1458.03,-171.34 1446.51,-161.65"/>
<polygon fill="black" stroke="black" points="1448.54,-158.78 1438.64,-155.02 1444.04,-164.14 1448.54,-158.78"/>
</g>
<!-- 215 -->
<g id="node22" class="node">
<title>215</title>
<polygon fill="#ffffff" stroke="black" points="1848,-155 1555,-155 1555,-72 1848,-72 1848,-155"/>
<text text-anchor="middle" x="1701.5" y="-139.8" font-family="Times,serif" font-size="14.00">graphSize &lt;= 75.0</text>
<text text-anchor="middle" x="1701.5" y="-124.8" font-family="Times,serif" font-size="14.00">gini = 0.826</text>
<text text-anchor="middle" x="1701.5" y="-109.8" font-family="Times,serif" font-size="14.00">samples = 932</text>
<text text-anchor="middle" x="1701.5" y="-94.8" font-family="Times,serif" font-size="14.00">value = [182, 142, 114, 190, 190, 114]</text>
<text text-anchor="middle" x="1701.5" y="-79.8" font-family="Times,serif" font-size="14.00">class = minmax</text>
</g>
<!-- 171&#45;&gt;215 -->
<g id="edge21" class="edge">
<title>171&#45;&gt;215</title>
<path fill="none" stroke="black" d="M1589.17,-190.91C1603.45,-181.2 1618.8,-170.76 1633.42,-160.81"/>
<polygon fill="black" stroke="black" points="1635.63,-163.54 1641.93,-155.02 1631.69,-157.75 1635.63,-163.54"/>
</g>
<!-- 173 -->
<g id="node20" class="node">
<title>173</title>
<polygon fill="#c0c0c0" stroke="black" points="1381.5,-36 1327.5,-36 1327.5,0 1381.5,0 1381.5,-36"/>
<text text-anchor="middle" x="1354.5" y="-14.3" font-family="Times,serif" font-size="14.00">(...)</text>
</g>
<!-- 172&#45;&gt;173 -->
<g id="edge19" class="edge">
<title>172&#45;&gt;173</title>
<path fill="none" stroke="black" d="M1374.81,-71.76C1371.46,-63.04 1367.99,-54.04 1364.89,-45.99"/>
<polygon fill="black" stroke="black" points="1368.06,-44.48 1361.2,-36.41 1361.53,-46.99 1368.06,-44.48"/>
</g>
<!-- 184 -->
<g id="node21" class="node">
<title>184</title>
<polygon fill="#c0c0c0" stroke="black" points="1453.5,-36 1399.5,-36 1399.5,0 1453.5,0 1453.5,-36"/>
<text text-anchor="middle" x="1426.5" y="-14.3" font-family="Times,serif" font-size="14.00">(...)</text>
</g>
<!-- 172&#45;&gt;184 -->
<g id="edge20" class="edge">
<title>172&#45;&gt;184</title>
<path fill="none" stroke="black" d="M1406.19,-71.76C1409.54,-63.04 1413.01,-54.04 1416.11,-45.99"/>
<polygon fill="black" stroke="black" points="1419.47,-46.99 1419.8,-36.41 1412.94,-44.48 1419.47,-46.99"/>
</g>
<!-- 216 -->
<g id="node23" class="node">
<title>216</title>
<polygon fill="#c0c0c0" stroke="black" points="1692.5,-36 1638.5,-36 1638.5,0 1692.5,0 1692.5,-36"/>
<text text-anchor="middle" x="1665.5" y="-14.3" font-family="Times,serif" font-size="14.00">(...)</text>
</g>
<!-- 215&#45;&gt;216 -->
<g id="edge22" class="edge">
<title>215&#45;&gt;216</title>
<path fill="none" stroke="black" d="M1685.81,-71.76C1682.46,-63.04 1678.99,-54.04 1675.89,-45.99"/>
<polygon fill="black" stroke="black" points="1679.06,-44.48 1672.2,-36.41 1672.53,-46.99 1679.06,-44.48"/>
</g>
<!-- 239 -->
<g id="node24" class="node">
<title>239</title>
<polygon fill="#c0c0c0" stroke="black" points="1764.5,-36 1710.5,-36 1710.5,0 1764.5,0 1764.5,-36"/>
<text text-anchor="middle" x="1737.5" y="-14.3" font-family="Times,serif" font-size="14.00">(...)</text>
</g>
<!-- 215&#45;&gt;239 -->
<g id="edge23" class="edge">
<title>215&#45;&gt;239</title>
<path fill="none" stroke="black" d="M1717.19,-71.76C1720.54,-63.04 1724.01,-54.04 1727.11,-45.99"/>
<polygon fill="black" stroke="black" points="1730.47,-46.99 1730.8,-36.41 1723.94,-44.48 1730.47,-46.99"/>
</g>
<!-- 259 -->
<g id="node26" class="node">
<title>259</title>
<polygon fill="#fefbf9" stroke="black" points="2159,-155 1866,-155 1866,-72 2159,-72 2159,-155"/>
<text text-anchor="middle" x="2012.5" y="-139.8" font-family="Times,serif" font-size="14.00">sdComm &lt;= 6.5</text>
<text text-anchor="middle" x="2012.5" y="-124.8" font-family="Times,serif" font-size="14.00">gini = 0.83</text>
<text text-anchor="middle" x="2012.5" y="-109.8" font-family="Times,serif" font-size="14.00">samples = 1959</text>
<text text-anchor="middle" x="2012.5" y="-94.8" font-family="Times,serif" font-size="14.00">value = [392, 347, 265, 345, 345, 265]</text>
<text text-anchor="middle" x="2012.5" y="-79.8" font-family="Times,serif" font-size="14.00">class = mean</text>
</g>
<!-- 258&#45;&gt;259 -->
<g id="edge25" class="edge">
<title>258&#45;&gt;259</title>
<path fill="none" stroke="black" d="M2012.5,-190.91C2012.5,-182.65 2012.5,-173.86 2012.5,-165.3"/>
<polygon fill="black" stroke="black" points="2016,-165.02 2012.5,-155.02 2009,-165.02 2016,-165.02"/>
</g>
<!-- 322 -->
<g id="node29" class="node">
<title>322</title>
<polygon fill="#fefaf7" stroke="black" points="2524,-155 2177,-155 2177,-72 2524,-72 2524,-155"/>
<text text-anchor="middle" x="2350.5" y="-139.8" font-family="Times,serif" font-size="14.00">CCR &lt;= 5.5</text>
<text text-anchor="middle" x="2350.5" y="-124.8" font-family="Times,serif" font-size="14.00">gini = 0.832</text>
<text text-anchor="middle" x="2350.5" y="-109.8" font-family="Times,serif" font-size="14.00">samples = 13841</text>
<text text-anchor="middle" x="2350.5" y="-94.8" font-family="Times,serif" font-size="14.00">value = [2726, 2247, 2192, 2242, 2242, 2192]</text>
<text text-anchor="middle" x="2350.5" y="-79.8" font-family="Times,serif" font-size="14.00">class = mean</text>
</g>
<!-- 258&#45;&gt;322 -->
<g id="edge28" class="edge">
<title>258&#45;&gt;322</title>
<path fill="none" stroke="black" d="M2129.77,-190.91C2160.18,-180.38 2193.06,-169 2223.93,-158.31"/>
<polygon fill="black" stroke="black" points="2225.13,-161.6 2233.44,-155.02 2222.85,-154.98 2225.13,-161.6"/>
</g>
<!-- 260 -->
<g id="node27" class="node">
<title>260</title>
<polygon fill="#c0c0c0" stroke="black" points="2003.5,-36 1949.5,-36 1949.5,0 2003.5,0 2003.5,-36"/>
<text text-anchor="middle" x="1976.5" y="-14.3" font-family="Times,serif" font-size="14.00">(...)</text>
</g>
<!-- 259&#45;&gt;260 -->
<g id="edge26" class="edge">
<title>259&#45;&gt;260</title>
<path fill="none" stroke="black" d="M1996.81,-71.76C1993.46,-63.04 1989.99,-54.04 1986.89,-45.99"/>
<polygon fill="black" stroke="black" points="1990.06,-44.48 1983.2,-36.41 1983.53,-46.99 1990.06,-44.48"/>
</g>
<!-- 313 -->
<g id="node28" class="node">
<title>313</title>
<polygon fill="#c0c0c0" stroke="black" points="2075.5,-36 2021.5,-36 2021.5,0 2075.5,0 2075.5,-36"/>
<text text-anchor="middle" x="2048.5" y="-14.3" font-family="Times,serif" font-size="14.00">(...)</text>
</g>
<!-- 259&#45;&gt;313 -->
<g id="edge27" class="edge">
<title>259&#45;&gt;313</title>
<path fill="none" stroke="black" d="M2028.19,-71.76C2031.54,-63.04 2035.01,-54.04 2038.11,-45.99"/>
<polygon fill="black" stroke="black" points="2041.47,-46.99 2041.8,-36.41 2034.94,-44.48 2041.47,-46.99"/>
</g>
<!-- 323 -->
<g id="node30" class="node">
<title>323</title>
<polygon fill="#c0c0c0" stroke="black" points="2341.5,-36 2287.5,-36 2287.5,0 2341.5,0 2341.5,-36"/>
<text text-anchor="middle" x="2314.5" y="-14.3" font-family="Times,serif" font-size="14.00">(...)</text>
</g>
<!-- 322&#45;&gt;323 -->
<g id="edge29" class="edge">
<title>322&#45;&gt;323</title>
<path fill="none" stroke="black" d="M2334.81,-71.76C2331.46,-63.04 2327.99,-54.04 2324.89,-45.99"/>
<polygon fill="black" stroke="black" points="2328.06,-44.48 2321.2,-36.41 2321.53,-46.99 2328.06,-44.48"/>
</g>
<!-- 524 -->
<g id="node31" class="node">
<title>524</title>
<polygon fill="#c0c0c0" stroke="black" points="2413.5,-36 2359.5,-36 2359.5,0 2413.5,0 2413.5,-36"/>
<text text-anchor="middle" x="2386.5" y="-14.3" font-family="Times,serif" font-size="14.00">(...)</text>
</g>
<!-- 322&#45;&gt;524 -->
<g id="edge30" class="edge">
<title>322&#45;&gt;524</title>
<path fill="none" stroke="black" d="M2366.19,-71.76C2369.54,-63.04 2373.01,-54.04 2376.11,-45.99"/>
<polygon fill="black" stroke="black" points="2379.47,-46.99 2379.8,-36.41 2372.94,-44.48 2379.47,-46.99"/>
</g>
</g>
</svg>
