<?xml version="1.0" encoding="UTF-8" standalone="no"?>
<!DOCTYPE svg PUBLIC "-//W3C//DTD SVG 1.1//EN"
 "http://www.w3.org/Graphics/SVG/1.1/DTD/svg11.dtd">
<!-- Generated by graphviz version 2.43.0 (0)
 -->
<!-- Title: Tree Pages: 1 -->
<svg width="1433pt" height="520pt"
 viewBox="0.00 0.00 1432.50 520.00" xmlns="http://www.w3.org/2000/svg" xmlns:xlink="http://www.w3.org/1999/xlink">
<g id="graph0" class="graph" transform="scale(1 1) rotate(0) translate(4 516)">
<title>Tree</title>
<polygon fill="white" stroke="transparent" points="-4,4 -4,-516 1428.5,-516 1428.5,4 -4,4"/>
<!-- 0 -->
<g id="node1" class="node">
<title>0</title>
<polygon fill="#f6d4bb" stroke="black" points="813.5,-512 628.5,-512 628.5,-429 813.5,-429 813.5,-512"/>
<text text-anchor="middle" x="721" y="-496.8" font-family="Times,serif" font-size="14.00">graphSize &lt;= 40.0</text>
<text text-anchor="middle" x="721" y="-481.8" font-family="Times,serif" font-size="14.00">gini = 0.479</text>
<text text-anchor="middle" x="721" y="-466.8" font-family="Times,serif" font-size="14.00">samples = 33378</text>
<text text-anchor="middle" x="721" y="-451.8" font-family="Times,serif" font-size="14.00">value = [20123, 13255]</text>
<text text-anchor="middle" x="721" y="-436.8" font-family="Times,serif" font-size="14.00">class = False</text>
</g>
<!-- 1 -->
<g id="node2" class="node">
<title>1</title>
<polygon fill="#f8dfcd" stroke="black" points="628.5,-393 443.5,-393 443.5,-310 628.5,-310 628.5,-393"/>
<text text-anchor="middle" x="536" y="-377.8" font-family="Times,serif" font-size="14.00">sdComm &lt;= 0.02</text>
<text text-anchor="middle" x="536" y="-362.8" font-family="Times,serif" font-size="14.00">gini = 0.489</text>
<text text-anchor="middle" x="536" y="-347.8" font-family="Times,serif" font-size="14.00">samples = 26350</text>
<text text-anchor="middle" x="536" y="-332.8" font-family="Times,serif" font-size="14.00">value = [15089, 11261]</text>
<text text-anchor="middle" x="536" y="-317.8" font-family="Times,serif" font-size="14.00">class = False</text>
</g>
<!-- 0&#45;&gt;1 -->
<g id="edge1" class="edge">
<title>0&#45;&gt;1</title>
<path fill="none" stroke="black" d="M656.82,-428.91C641.32,-419.11 624.65,-408.56 608.79,-398.53"/>
<polygon fill="black" stroke="black" points="610.39,-395.41 600.07,-393.02 606.65,-401.32 610.39,-395.41"/>
<text text-anchor="middle" x="605.56" y="-413.71" font-family="Times,serif" font-size="14.00">True</text>
</g>
<!-- 372 -->
<g id="node17" class="node">
<title>372</title>
<polygon fill="#efb387" stroke="black" points="986.5,-393 819.5,-393 819.5,-310 986.5,-310 986.5,-393"/>
<text text-anchor="middle" x="903" y="-377.8" font-family="Times,serif" font-size="14.00">sdComp &lt;= 6.5</text>
<text text-anchor="middle" x="903" y="-362.8" font-family="Times,serif" font-size="14.00">gini = 0.406</text>
<text text-anchor="middle" x="903" y="-347.8" font-family="Times,serif" font-size="14.00">samples = 7028</text>
<text text-anchor="middle" x="903" y="-332.8" font-family="Times,serif" font-size="14.00">value = [5034, 1994]</text>
<text text-anchor="middle" x="903" y="-317.8" font-family="Times,serif" font-size="14.00">class = False</text>
</g>
<!-- 0&#45;&gt;372 -->
<g id="edge16" class="edge">
<title>0&#45;&gt;372</title>
<path fill="none" stroke="black" d="M784.14,-428.91C799.39,-419.11 815.79,-408.56 831.39,-398.53"/>
<polygon fill="black" stroke="black" points="833.45,-401.37 839.97,-393.02 829.66,-395.48 833.45,-401.37"/>
<text text-anchor="middle" x="834.66" y="-413.75" font-family="Times,serif" font-size="14.00">False</text>
</g>
<!-- 2 -->
<g id="node3" class="node">
<title>2</title>
<polygon fill="#e8f4fc" stroke="black" points="342.5,-274 175.5,-274 175.5,-191 342.5,-191 342.5,-274"/>
<text text-anchor="middle" x="259" y="-258.8" font-family="Times,serif" font-size="14.00">graphDepth &lt;= 3.5</text>
<text text-anchor="middle" x="259" y="-243.8" font-family="Times,serif" font-size="14.00">gini = 0.498</text>
<text text-anchor="middle" x="259" y="-228.8" font-family="Times,serif" font-size="14.00">samples = 5908</text>
<text text-anchor="middle" x="259" y="-213.8" font-family="Times,serif" font-size="14.00">value = [2776, 3132]</text>
<text text-anchor="middle" x="259" y="-198.8" font-family="Times,serif" font-size="14.00">class = True</text>
</g>
<!-- 1&#45;&gt;2 -->
<g id="edge2" class="edge">
<title>1&#45;&gt;2</title>
<path fill="none" stroke="black" d="M443.38,-311.38C414,-298.97 381.52,-285.25 352.11,-272.83"/>
<polygon fill="black" stroke="black" points="353.25,-269.51 342.67,-268.84 350.53,-275.96 353.25,-269.51"/>
</g>
<!-- 45 -->
<g id="node10" class="node">
<title>45</title>
<polygon fill="#f6d4bc" stroke="black" points="624,-274 448,-274 448,-191 624,-191 624,-274"/>
<text text-anchor="middle" x="536" y="-258.8" font-family="Times,serif" font-size="14.00">graphDepth &lt;= 3.5</text>
<text text-anchor="middle" x="536" y="-243.8" font-family="Times,serif" font-size="14.00">gini = 0.479</text>
<text text-anchor="middle" x="536" y="-228.8" font-family="Times,serif" font-size="14.00">samples = 20442</text>
<text text-anchor="middle" x="536" y="-213.8" font-family="Times,serif" font-size="14.00">value = [12313, 8129]</text>
<text text-anchor="middle" x="536" y="-198.8" font-family="Times,serif" font-size="14.00">class = False</text>
</g>
<!-- 1&#45;&gt;45 -->
<g id="edge9" class="edge">
<title>1&#45;&gt;45</title>
<path fill="none" stroke="black" d="M536,-309.91C536,-301.65 536,-292.86 536,-284.3"/>
<polygon fill="black" stroke="black" points="539.5,-284.02 536,-274.02 532.5,-284.02 539.5,-284.02"/>
</g>
<!-- 3 -->
<g id="node4" class="node">
<title>3</title>
<polygon fill="#9ccef2" stroke="black" points="158,-155 0,-155 0,-72 158,-72 158,-155"/>
<text text-anchor="middle" x="79" y="-139.8" font-family="Times,serif" font-size="14.00">nbproc &lt;= 4.5</text>
<text text-anchor="middle" x="79" y="-124.8" font-family="Times,serif" font-size="14.00">gini = 0.444</text>
<text text-anchor="middle" x="79" y="-109.8" font-family="Times,serif" font-size="14.00">samples = 1590</text>
<text text-anchor="middle" x="79" y="-94.8" font-family="Times,serif" font-size="14.00">value = [530, 1060]</text>
<text text-anchor="middle" x="79" y="-79.8" font-family="Times,serif" font-size="14.00">class = True</text>
</g>
<!-- 2&#45;&gt;3 -->
<g id="edge3" class="edge">
<title>2&#45;&gt;3</title>
<path fill="none" stroke="black" d="M196.55,-190.91C181.47,-181.11 165.25,-170.56 149.82,-160.53"/>
<polygon fill="black" stroke="black" points="151.63,-157.54 141.34,-155.02 147.82,-163.41 151.63,-157.54"/>
</g>
<!-- 12 -->
<g id="node7" class="node">
<title>12</title>
<polygon fill="#fdf5f0" stroke="black" points="342.5,-155 175.5,-155 175.5,-72 342.5,-72 342.5,-155"/>
<text text-anchor="middle" x="259" y="-139.8" font-family="Times,serif" font-size="14.00">nbproc &lt;= 4.5</text>
<text text-anchor="middle" x="259" y="-124.8" font-family="Times,serif" font-size="14.00">gini = 0.499</text>
<text text-anchor="middle" x="259" y="-109.8" font-family="Times,serif" font-size="14.00">samples = 4318</text>
<text text-anchor="middle" x="259" y="-94.8" font-family="Times,serif" font-size="14.00">value = [2246, 2072]</text>
<text text-anchor="middle" x="259" y="-79.8" font-family="Times,serif" font-size="14.00">class = False</text>
</g>
<!-- 2&#45;&gt;12 -->
<g id="edge6" class="edge">
<title>2&#45;&gt;12</title>
<path fill="none" stroke="black" d="M259,-190.91C259,-182.65 259,-173.86 259,-165.3"/>
<polygon fill="black" stroke="black" points="262.5,-165.02 259,-155.02 255.5,-165.02 262.5,-165.02"/>
</g>
<!-- 4 -->
<g id="node5" class="node">
<title>4</title>
<polygon fill="#c0c0c0" stroke="black" points="70,-36 16,-36 16,0 70,0 70,-36"/>
<text text-anchor="middle" x="43" y="-14.3" font-family="Times,serif" font-size="14.00">(...)</text>
</g>
<!-- 3&#45;&gt;4 -->
<g id="edge4" class="edge">
<title>3&#45;&gt;4</title>
<path fill="none" stroke="black" d="M63.31,-71.76C59.96,-63.04 56.49,-54.04 53.39,-45.99"/>
<polygon fill="black" stroke="black" points="56.56,-44.48 49.7,-36.41 50.03,-46.99 56.56,-44.48"/>
</g>
<!-- 9 -->
<g id="node6" class="node">
<title>9</title>
<polygon fill="#c0c0c0" stroke="black" points="142,-36 88,-36 88,0 142,0 142,-36"/>
<text text-anchor="middle" x="115" y="-14.3" font-family="Times,serif" font-size="14.00">(...)</text>
</g>
<!-- 3&#45;&gt;9 -->
<g id="edge5" class="edge">
<title>3&#45;&gt;9</title>
<path fill="none" stroke="black" d="M94.69,-71.76C98.04,-63.04 101.51,-54.04 104.61,-45.99"/>
<polygon fill="black" stroke="black" points="107.97,-46.99 108.3,-36.41 101.44,-44.48 107.97,-46.99"/>
</g>
<!-- 13 -->
<g id="node8" class="node">
<title>13</title>
<polygon fill="#c0c0c0" stroke="black" points="257,-36 203,-36 203,0 257,0 257,-36"/>
<text text-anchor="middle" x="230" y="-14.3" font-family="Times,serif" font-size="14.00">(...)</text>
</g>
<!-- 12&#45;&gt;13 -->
<g id="edge7" class="edge">
<title>12&#45;&gt;13</title>
<path fill="none" stroke="black" d="M246.36,-71.76C243.66,-63.04 240.87,-54.04 238.37,-45.99"/>
<polygon fill="black" stroke="black" points="241.7,-44.92 235.4,-36.41 235.02,-46.99 241.7,-44.92"/>
</g>
<!-- 28 -->
<g id="node9" class="node">
<title>28</title>
<polygon fill="#c0c0c0" stroke="black" points="329,-36 275,-36 275,0 329,0 329,-36"/>
<text text-anchor="middle" x="302" y="-14.3" font-family="Times,serif" font-size="14.00">(...)</text>
</g>
<!-- 12&#45;&gt;28 -->
<g id="edge8" class="edge">
<title>12&#45;&gt;28</title>
<path fill="none" stroke="black" d="M277.74,-71.76C281.79,-62.94 285.98,-53.84 289.71,-45.72"/>
<polygon fill="black" stroke="black" points="293,-46.95 294,-36.41 286.64,-44.03 293,-46.95"/>
</g>
<!-- 46 -->
<g id="node11" class="node">
<title>46</title>
<polygon fill="#fcefe5" stroke="black" points="527.5,-155 360.5,-155 360.5,-72 527.5,-72 527.5,-155"/>
<text text-anchor="middle" x="444" y="-139.8" font-family="Times,serif" font-size="14.00">sdComp &lt;= 0.065</text>
<text text-anchor="middle" x="444" y="-124.8" font-family="Times,serif" font-size="14.00">gini = 0.498</text>
<text text-anchor="middle" x="444" y="-109.8" font-family="Times,serif" font-size="14.00">samples = 3665</text>
<text text-anchor="middle" x="444" y="-94.8" font-family="Times,serif" font-size="14.00">value = [1959, 1706]</text>
<text text-anchor="middle" x="444" y="-79.8" font-family="Times,serif" font-size="14.00">class = False</text>
</g>
<!-- 45&#45;&gt;46 -->
<g id="edge10" class="edge">
<title>45&#45;&gt;46</title>
<path fill="none" stroke="black" d="M504.08,-190.91C497.02,-181.92 489.46,-172.32 482.18,-163.05"/>
<polygon fill="black" stroke="black" points="484.8,-160.72 475.86,-155.02 479.29,-165.05 484.8,-160.72"/>
</g>
<!-- 129 -->
<g id="node14" class="node">
<title>129</title>
<polygon fill="#f5cfb4" stroke="black" points="721,-155 545,-155 545,-72 721,-72 721,-155"/>
<text text-anchor="middle" x="633" y="-139.8" font-family="Times,serif" font-size="14.00">graphSize &lt;= 22.5</text>
<text text-anchor="middle" x="633" y="-124.8" font-family="Times,serif" font-size="14.00">gini = 0.473</text>
<text text-anchor="middle" x="633" y="-109.8" font-family="Times,serif" font-size="14.00">samples = 16777</text>
<text text-anchor="middle" x="633" y="-94.8" font-family="Times,serif" font-size="14.00">value = [10354, 6423]</text>
<text text-anchor="middle" x="633" y="-79.8" font-family="Times,serif" font-size="14.00">class = False</text>
</g>
<!-- 45&#45;&gt;129 -->
<g id="edge13" class="edge">
<title>45&#45;&gt;129</title>
<path fill="none" stroke="black" d="M569.65,-190.91C577.18,-181.83 585.23,-172.12 592.98,-162.77"/>
<polygon fill="black" stroke="black" points="595.72,-164.95 599.41,-155.02 590.33,-160.49 595.72,-164.95"/>
</g>
<!-- 47 -->
<g id="node12" class="node">
<title>47</title>
<polygon fill="#c0c0c0" stroke="black" points="421,-36 367,-36 367,0 421,0 421,-36"/>
<text text-anchor="middle" x="394" y="-14.3" font-family="Times,serif" font-size="14.00">(...)</text>
</g>
<!-- 46&#45;&gt;47 -->
<g id="edge11" class="edge">
<title>46&#45;&gt;47</title>
<path fill="none" stroke="black" d="M422.21,-71.76C417.45,-62.85 412.52,-53.64 408.15,-45.46"/>
<polygon fill="black" stroke="black" points="411.11,-43.57 403.31,-36.41 404.94,-46.87 411.11,-43.57"/>
</g>
<!-- 58 -->
<g id="node13" class="node">
<title>58</title>
<polygon fill="#c0c0c0" stroke="black" points="493,-36 439,-36 439,0 493,0 493,-36"/>
<text text-anchor="middle" x="466" y="-14.3" font-family="Times,serif" font-size="14.00">(...)</text>
</g>
<!-- 46&#45;&gt;58 -->
<g id="edge12" class="edge">
<title>46&#45;&gt;58</title>
<path fill="none" stroke="black" d="M453.59,-71.76C455.61,-63.14 457.71,-54.24 459.59,-46.26"/>
<polygon fill="black" stroke="black" points="463.02,-46.94 461.9,-36.41 456.21,-45.34 463.02,-46.94"/>
</g>
<!-- 130 -->
<g id="node15" class="node">
<title>130</title>
<polygon fill="#c0c0c0" stroke="black" points="608,-36 554,-36 554,0 608,0 608,-36"/>
<text text-anchor="middle" x="581" y="-14.3" font-family="Times,serif" font-size="14.00">(...)</text>
</g>
<!-- 129&#45;&gt;130 -->
<g id="edge14" class="edge">
<title>129&#45;&gt;130</title>
<path fill="none" stroke="black" d="M610.34,-71.76C605.33,-62.75 600.15,-53.44 595.57,-45.19"/>
<polygon fill="black" stroke="black" points="598.6,-43.44 590.68,-36.41 592.48,-46.85 598.6,-43.44"/>
</g>
<!-- 217 -->
<g id="node16" class="node">
<title>217</title>
<polygon fill="#c0c0c0" stroke="black" points="680,-36 626,-36 626,0 680,0 680,-36"/>
<text text-anchor="middle" x="653" y="-14.3" font-family="Times,serif" font-size="14.00">(...)</text>
</g>
<!-- 129&#45;&gt;217 -->
<g id="edge15" class="edge">
<title>129&#45;&gt;217</title>
<path fill="none" stroke="black" d="M641.71,-71.76C643.56,-63.14 645.46,-54.24 647.17,-46.26"/>
<polygon fill="black" stroke="black" points="650.61,-46.92 649.28,-36.41 643.76,-45.45 650.61,-46.92"/>
</g>
<!-- 373 -->
<g id="node18" class="node">
<title>373</title>
<polygon fill="#edaa79" stroke="black" points="986.5,-274 819.5,-274 819.5,-191 986.5,-191 986.5,-274"/>
<text text-anchor="middle" x="903" y="-258.8" font-family="Times,serif" font-size="14.00">nbproc &lt;= 4.5</text>
<text text-anchor="middle" x="903" y="-243.8" font-family="Times,serif" font-size="14.00">gini = 0.37</text>
<text text-anchor="middle" x="903" y="-228.8" font-family="Times,serif" font-size="14.00">samples = 5810</text>
<text text-anchor="middle" x="903" y="-213.8" font-family="Times,serif" font-size="14.00">value = [4384, 1426]</text>
<text text-anchor="middle" x="903" y="-198.8" font-family="Times,serif" font-size="14.00">class = False</text>
</g>
<!-- 372&#45;&gt;373 -->
<g id="edge17" class="edge">
<title>372&#45;&gt;373</title>
<path fill="none" stroke="black" d="M903,-309.91C903,-301.65 903,-292.86 903,-284.3"/>
<polygon fill="black" stroke="black" points="906.5,-284.02 903,-274.02 899.5,-284.02 906.5,-284.02"/>
</g>
<!-- 602 -->
<g id="node25" class="node">
<title>602</title>
<polygon fill="#fcefe6" stroke="black" points="1239.5,-274 1090.5,-274 1090.5,-191 1239.5,-191 1239.5,-274"/>
<text text-anchor="middle" x="1165" y="-258.8" font-family="Times,serif" font-size="14.00">sdComm &lt;= 6.5</text>
<text text-anchor="middle" x="1165" y="-243.8" font-family="Times,serif" font-size="14.00">gini = 0.498</text>
<text text-anchor="middle" x="1165" y="-228.8" font-family="Times,serif" font-size="14.00">samples = 1218</text>
<text text-anchor="middle" x="1165" y="-213.8" font-family="Times,serif" font-size="14.00">value = [650, 568]</text>
<text text-anchor="middle" x="1165" y="-198.8" font-family="Times,serif" font-size="14.00">class = False</text>
</g>
<!-- 372&#45;&gt;602 -->
<g id="edge24" class="edge">
<title>372&#45;&gt;602</title>
<path fill="none" stroke="black" d="M986.62,-313.16C1016.75,-299.7 1050.74,-284.52 1080.91,-271.05"/>
<polygon fill="black" stroke="black" points="1082.44,-274.2 1090.14,-266.93 1079.59,-267.81 1082.44,-274.2"/>
</g>
<!-- 374 -->
<g id="node19" class="node">
<title>374</title>
<polygon fill="#f0b88f" stroke="black" points="897,-155 739,-155 739,-72 897,-72 897,-155"/>
<text text-anchor="middle" x="818" y="-139.8" font-family="Times,serif" font-size="14.00">sdComm &lt;= 0.065</text>
<text text-anchor="middle" x="818" y="-124.8" font-family="Times,serif" font-size="14.00">gini = 0.423</text>
<text text-anchor="middle" x="818" y="-109.8" font-family="Times,serif" font-size="14.00">samples = 2314</text>
<text text-anchor="middle" x="818" y="-94.8" font-family="Times,serif" font-size="14.00">value = [1612, 702]</text>
<text text-anchor="middle" x="818" y="-79.8" font-family="Times,serif" font-size="14.00">class = False</text>
</g>
<!-- 373&#45;&gt;374 -->
<g id="edge18" class="edge">
<title>373&#45;&gt;374</title>
<path fill="none" stroke="black" d="M873.51,-190.91C867.05,-182.01 860.14,-172.51 853.48,-163.33"/>
<polygon fill="black" stroke="black" points="856.15,-161.05 847.44,-155.02 850.48,-165.17 856.15,-161.05"/>
</g>
<!-- 477 -->
<g id="node22" class="node">
<title>477</title>
<polygon fill="#eca26d" stroke="black" points="1073,-155 915,-155 915,-72 1073,-72 1073,-155"/>
<text text-anchor="middle" x="994" y="-139.8" font-family="Times,serif" font-size="14.00">sdComm &lt;= 6.5</text>
<text text-anchor="middle" x="994" y="-124.8" font-family="Times,serif" font-size="14.00">gini = 0.328</text>
<text text-anchor="middle" x="994" y="-109.8" font-family="Times,serif" font-size="14.00">samples = 3496</text>
<text text-anchor="middle" x="994" y="-94.8" font-family="Times,serif" font-size="14.00">value = [2772, 724]</text>
<text text-anchor="middle" x="994" y="-79.8" font-family="Times,serif" font-size="14.00">class = False</text>
</g>
<!-- 373&#45;&gt;477 -->
<g id="edge21" class="edge">
<title>373&#45;&gt;477</title>
<path fill="none" stroke="black" d="M934.57,-190.91C941.56,-181.92 949.03,-172.32 956.24,-163.05"/>
<polygon fill="black" stroke="black" points="959.11,-165.06 962.48,-155.02 953.58,-160.77 959.11,-165.06"/>
</g>
<!-- 375 -->
<g id="node20" class="node">
<title>375</title>
<polygon fill="#c0c0c0" stroke="black" points="789,-36 735,-36 735,0 789,0 789,-36"/>
<text text-anchor="middle" x="762" y="-14.3" font-family="Times,serif" font-size="14.00">(...)</text>
</g>
<!-- 374&#45;&gt;375 -->
<g id="edge19" class="edge">
<title>374&#45;&gt;375</title>
<path fill="none" stroke="black" d="M793.6,-71.76C788.2,-62.75 782.63,-53.44 777.69,-45.19"/>
<polygon fill="black" stroke="black" points="780.57,-43.19 772.42,-36.41 774.56,-46.78 780.57,-43.19"/>
</g>
<!-- 404 -->
<g id="node21" class="node">
<title>404</title>
<polygon fill="#c0c0c0" stroke="black" points="861,-36 807,-36 807,0 861,0 861,-36"/>
<text text-anchor="middle" x="834" y="-14.3" font-family="Times,serif" font-size="14.00">(...)</text>
</g>
<!-- 374&#45;&gt;404 -->
<g id="edge20" class="edge">
<title>374&#45;&gt;404</title>
<path fill="none" stroke="black" d="M824.97,-71.76C826.43,-63.24 827.94,-54.44 829.29,-46.53"/>
<polygon fill="black" stroke="black" points="832.78,-46.85 831.02,-36.41 825.88,-45.67 832.78,-46.85"/>
</g>
<!-- 478 -->
<g id="node23" class="node">
<title>478</title>
<polygon fill="#c0c0c0" stroke="black" points="962,-36 908,-36 908,0 962,0 962,-36"/>
<text text-anchor="middle" x="935" y="-14.3" font-family="Times,serif" font-size="14.00">(...)</text>
</g>
<!-- 477&#45;&gt;478 -->
<g id="edge22" class="edge">
<title>477&#45;&gt;478</title>
<path fill="none" stroke="black" d="M968.29,-71.76C962.55,-62.65 956.6,-53.24 951.36,-44.92"/>
<polygon fill="black" stroke="black" points="954.28,-42.99 945.98,-36.41 948.36,-46.73 954.28,-42.99"/>
</g>
<!-- 601 -->
<g id="node24" class="node">
<title>601</title>
<polygon fill="#c0c0c0" stroke="black" points="1034,-36 980,-36 980,0 1034,0 1034,-36"/>
<text text-anchor="middle" x="1007" y="-14.3" font-family="Times,serif" font-size="14.00">(...)</text>
</g>
<!-- 477&#45;&gt;601 -->
<g id="edge23" class="edge">
<title>477&#45;&gt;601</title>
<path fill="none" stroke="black" d="M999.66,-71.76C1000.85,-63.24 1002.07,-54.44 1003.17,-46.53"/>
<polygon fill="black" stroke="black" points="1006.67,-46.79 1004.58,-36.41 999.74,-45.83 1006.67,-46.79"/>
</g>
<!-- 603 -->
<g id="node26" class="node">
<title>603</title>
<polygon fill="#f4f9fd" stroke="black" points="1239.5,-155 1090.5,-155 1090.5,-72 1239.5,-72 1239.5,-155"/>
<text text-anchor="middle" x="1165" y="-139.8" font-family="Times,serif" font-size="14.00">nbproc &lt;= 4.5</text>
<text text-anchor="middle" x="1165" y="-124.8" font-family="Times,serif" font-size="14.00">gini = 0.5</text>
<text text-anchor="middle" x="1165" y="-109.8" font-family="Times,serif" font-size="14.00">samples = 940</text>
<text text-anchor="middle" x="1165" y="-94.8" font-family="Times,serif" font-size="14.00">value = [456, 484]</text>
<text text-anchor="middle" x="1165" y="-79.8" font-family="Times,serif" font-size="14.00">class = True</text>
</g>
<!-- 602&#45;&gt;603 -->
<g id="edge25" class="edge">
<title>602&#45;&gt;603</title>
<path fill="none" stroke="black" d="M1165,-190.91C1165,-182.65 1165,-173.86 1165,-165.3"/>
<polygon fill="black" stroke="black" points="1168.5,-165.02 1165,-155.02 1161.5,-165.02 1168.5,-165.02"/>
</g>
<!-- 628 -->
<g id="node29" class="node">
<title>628</title>
<polygon fill="#f0b88f" stroke="black" points="1424.5,-155 1257.5,-155 1257.5,-72 1424.5,-72 1424.5,-155"/>
<text text-anchor="middle" x="1341" y="-139.8" font-family="Times,serif" font-size="14.00">graphDepth &lt;= 25.5</text>
<text text-anchor="middle" x="1341" y="-124.8" font-family="Times,serif" font-size="14.00">gini = 0.422</text>
<text text-anchor="middle" x="1341" y="-109.8" font-family="Times,serif" font-size="14.00">samples = 278</text>
<text text-anchor="middle" x="1341" y="-94.8" font-family="Times,serif" font-size="14.00">value = [194, 84]</text>
<text text-anchor="middle" x="1341" y="-79.8" font-family="Times,serif" font-size="14.00">class = False</text>
</g>
<!-- 602&#45;&gt;628 -->
<g id="edge28" class="edge">
<title>602&#45;&gt;628</title>
<path fill="none" stroke="black" d="M1226.06,-190.91C1240.67,-181.2 1256.37,-170.76 1271.34,-160.81"/>
<polygon fill="black" stroke="black" points="1273.66,-163.47 1280.05,-155.02 1269.78,-157.64 1273.66,-163.47"/>
</g>
<!-- 604 -->
<g id="node27" class="node">
<title>604</title>
<polygon fill="#c0c0c0" stroke="black" points="1154,-36 1100,-36 1100,0 1154,0 1154,-36"/>
<text text-anchor="middle" x="1127" y="-14.3" font-family="Times,serif" font-size="14.00">(...)</text>
</g>
<!-- 603&#45;&gt;604 -->
<g id="edge26" class="edge">
<title>603&#45;&gt;604</title>
<path fill="none" stroke="black" d="M1148.44,-71.76C1144.86,-62.94 1141.16,-53.84 1137.86,-45.72"/>
<polygon fill="black" stroke="black" points="1141.08,-44.35 1134.07,-36.41 1134.6,-46.99 1141.08,-44.35"/>
</g>
<!-- 617 -->
<g id="node28" class="node">
<title>617</title>
<polygon fill="#c0c0c0" stroke="black" points="1226,-36 1172,-36 1172,0 1226,0 1226,-36"/>
<text text-anchor="middle" x="1199" y="-14.3" font-family="Times,serif" font-size="14.00">(...)</text>
</g>
<!-- 603&#45;&gt;617 -->
<g id="edge27" class="edge">
<title>603&#45;&gt;617</title>
<path fill="none" stroke="black" d="M1179.81,-71.76C1182.98,-63.04 1186.26,-54.04 1189.18,-45.99"/>
<polygon fill="black" stroke="black" points="1192.54,-47 1192.67,-36.41 1185.96,-44.61 1192.54,-47"/>
</g>
<!-- 629 -->
<g id="node30" class="node">
<title>629</title>
<polygon fill="#c0c0c0" stroke="black" points="1332,-36 1278,-36 1278,0 1332,0 1332,-36"/>
<text text-anchor="middle" x="1305" y="-14.3" font-family="Times,serif" font-size="14.00">(...)</text>
</g>
<!-- 628&#45;&gt;629 -->
<g id="edge29" class="edge">
<title>628&#45;&gt;629</title>
<path fill="none" stroke="black" d="M1325.31,-71.76C1321.96,-63.04 1318.49,-54.04 1315.39,-45.99"/>
<polygon fill="black" stroke="black" points="1318.56,-44.48 1311.7,-36.41 1312.03,-46.99 1318.56,-44.48"/>
</g>
<!-- 634 -->
<g id="node31" class="node">
<title>634</title>
<polygon fill="#c0c0c0" stroke="black" points="1404,-36 1350,-36 1350,0 1404,0 1404,-36"/>
<text text-anchor="middle" x="1377" y="-14.3" font-family="Times,serif" font-size="14.00">(...)</text>
</g>
<!-- 628&#45;&gt;634 -->
<g id="edge30" class="edge">
<title>628&#45;&gt;634</title>
<path fill="none" stroke="black" d="M1356.69,-71.76C1360.04,-63.04 1363.51,-54.04 1366.61,-45.99"/>
<polygon fill="black" stroke="black" points="1369.97,-46.99 1370.3,-36.41 1363.44,-44.48 1369.97,-46.99"/>
</g>
</g>
</svg>
