<?xml version="1.0" encoding="UTF-8" standalone="no"?>
<!DOCTYPE svg PUBLIC "-//W3C//DTD SVG 1.1//EN"
 "http://www.w3.org/Graphics/SVG/1.1/DTD/svg11.dtd">
<!-- Generated by graphviz version 2.43.0 (0)
 -->
<!-- Title: Tree Pages: 1 -->
<svg width="1433pt" height="520pt"
 viewBox="0.00 0.00 1432.50 520.00" xmlns="http://www.w3.org/2000/svg" xmlns:xlink="http://www.w3.org/1999/xlink">
<g id="graph0" class="graph" transform="scale(1 1) rotate(0) translate(4 516)">
<title>Tree</title>
<polygon fill="white" stroke="transparent" points="-4,4 -4,-516 1428.5,-516 1428.5,4 -4,4"/>
<!-- 0 -->
<g id="node1" class="node">
<title>0</title>
<polygon fill="#bedff7" stroke="black" points="793.5,-512 608.5,-512 608.5,-429 793.5,-429 793.5,-512"/>
<text text-anchor="middle" x="701" y="-496.8" font-family="Times,serif" font-size="14.00">nbproc &lt;= 4.5</text>
<text text-anchor="middle" x="701" y="-481.8" font-family="Times,serif" font-size="14.00">gini = 0.481</text>
<text text-anchor="middle" x="701" y="-466.8" font-family="Times,serif" font-size="14.00">samples = 33378</text>
<text text-anchor="middle" x="701" y="-451.8" font-family="Times,serif" font-size="14.00">value = [13436, 19942]</text>
<text text-anchor="middle" x="701" y="-436.8" font-family="Times,serif" font-size="14.00">class = True</text>
</g>
<!-- 1 -->
<g id="node2" class="node">
<title>1</title>
<polygon fill="#9dcff2" stroke="black" points="608.5,-393 441.5,-393 441.5,-310 608.5,-310 608.5,-393"/>
<text text-anchor="middle" x="525" y="-377.8" font-family="Times,serif" font-size="14.00">graphSize &lt;= 22.5</text>
<text text-anchor="middle" x="525" y="-362.8" font-family="Times,serif" font-size="14.00">gini = 0.446</text>
<text text-anchor="middle" x="525" y="-347.8" font-family="Times,serif" font-size="14.00">samples = 12586</text>
<text text-anchor="middle" x="525" y="-332.8" font-family="Times,serif" font-size="14.00">value = [4228, 8358]</text>
<text text-anchor="middle" x="525" y="-317.8" font-family="Times,serif" font-size="14.00">class = True</text>
</g>
<!-- 0&#45;&gt;1 -->
<g id="edge1" class="edge">
<title>0&#45;&gt;1</title>
<path fill="none" stroke="black" d="M639.94,-428.91C625.33,-419.2 609.63,-408.76 594.66,-398.81"/>
<polygon fill="black" stroke="black" points="596.22,-395.64 585.95,-393.02 592.34,-401.47 596.22,-395.64"/>
<text text-anchor="middle" x="590.89" y="-413.83" font-family="Times,serif" font-size="14.00">True</text>
</g>
<!-- 280 -->
<g id="node17" class="node">
<title>280</title>
<polygon fill="#d6ebfa" stroke="black" points="974,-393 798,-393 798,-310 974,-310 974,-393"/>
<text text-anchor="middle" x="886" y="-377.8" font-family="Times,serif" font-size="14.00">sdComp &lt;= 0.65</text>
<text text-anchor="middle" x="886" y="-362.8" font-family="Times,serif" font-size="14.00">gini = 0.493</text>
<text text-anchor="middle" x="886" y="-347.8" font-family="Times,serif" font-size="14.00">samples = 20792</text>
<text text-anchor="middle" x="886" y="-332.8" font-family="Times,serif" font-size="14.00">value = [9208, 11584]</text>
<text text-anchor="middle" x="886" y="-317.8" font-family="Times,serif" font-size="14.00">class = True</text>
</g>
<!-- 0&#45;&gt;280 -->
<g id="edge16" class="edge">
<title>0&#45;&gt;280</title>
<path fill="none" stroke="black" d="M765.18,-428.91C780.68,-419.11 797.35,-408.56 813.21,-398.53"/>
<polygon fill="black" stroke="black" points="815.35,-401.32 821.93,-393.02 811.61,-395.41 815.35,-401.32"/>
<text text-anchor="middle" x="816.44" y="-413.71" font-family="Times,serif" font-size="14.00">False</text>
</g>
<!-- 2 -->
<g id="node3" class="node">
<title>2</title>
<polygon fill="#afd7f4" stroke="black" points="342.5,-274 175.5,-274 175.5,-191 342.5,-191 342.5,-274"/>
<text text-anchor="middle" x="259" y="-258.8" font-family="Times,serif" font-size="14.00">graphDepth &lt;= 3.5</text>
<text text-anchor="middle" x="259" y="-243.8" font-family="Times,serif" font-size="14.00">gini = 0.468</text>
<text text-anchor="middle" x="259" y="-228.8" font-family="Times,serif" font-size="14.00">samples = 7463</text>
<text text-anchor="middle" x="259" y="-213.8" font-family="Times,serif" font-size="14.00">value = [2783, 4680]</text>
<text text-anchor="middle" x="259" y="-198.8" font-family="Times,serif" font-size="14.00">class = True</text>
</g>
<!-- 1&#45;&gt;2 -->
<g id="edge2" class="edge">
<title>1&#45;&gt;2</title>
<path fill="none" stroke="black" d="M441.2,-313.64C412.89,-301.19 381.13,-287.22 352.14,-274.47"/>
<polygon fill="black" stroke="black" points="353.4,-271.2 342.83,-270.37 350.58,-277.6 353.4,-271.2"/>
</g>
<!-- 75 -->
<g id="node10" class="node">
<title>75</title>
<polygon fill="#87c4ef" stroke="black" points="608.5,-274 441.5,-274 441.5,-191 608.5,-191 608.5,-274"/>
<text text-anchor="middle" x="525" y="-258.8" font-family="Times,serif" font-size="14.00">graphDepth &lt;= 9.0</text>
<text text-anchor="middle" x="525" y="-243.8" font-family="Times,serif" font-size="14.00">gini = 0.405</text>
<text text-anchor="middle" x="525" y="-228.8" font-family="Times,serif" font-size="14.00">samples = 5123</text>
<text text-anchor="middle" x="525" y="-213.8" font-family="Times,serif" font-size="14.00">value = [1445, 3678]</text>
<text text-anchor="middle" x="525" y="-198.8" font-family="Times,serif" font-size="14.00">class = True</text>
</g>
<!-- 1&#45;&gt;75 -->
<g id="edge9" class="edge">
<title>1&#45;&gt;75</title>
<path fill="none" stroke="black" d="M525,-309.91C525,-301.65 525,-292.86 525,-284.3"/>
<polygon fill="black" stroke="black" points="528.5,-284.02 525,-274.02 521.5,-284.02 528.5,-284.02"/>
</g>
<!-- 3 -->
<g id="node4" class="node">
<title>3</title>
<polygon fill="#72b9ec" stroke="black" points="158,-155 0,-155 0,-72 158,-72 158,-155"/>
<text text-anchor="middle" x="79" y="-139.8" font-family="Times,serif" font-size="14.00">CCR &lt;= 5.5</text>
<text text-anchor="middle" x="79" y="-124.8" font-family="Times,serif" font-size="14.00">gini = 0.346</text>
<text text-anchor="middle" x="79" y="-109.8" font-family="Times,serif" font-size="14.00">samples = 1549</text>
<text text-anchor="middle" x="79" y="-94.8" font-family="Times,serif" font-size="14.00">value = [345, 1204]</text>
<text text-anchor="middle" x="79" y="-79.8" font-family="Times,serif" font-size="14.00">class = True</text>
</g>
<!-- 2&#45;&gt;3 -->
<g id="edge3" class="edge">
<title>2&#45;&gt;3</title>
<path fill="none" stroke="black" d="M196.55,-190.91C181.47,-181.11 165.25,-170.56 149.82,-160.53"/>
<polygon fill="black" stroke="black" points="151.63,-157.54 141.34,-155.02 147.82,-163.41 151.63,-157.54"/>
</g>
<!-- 24 -->
<g id="node7" class="node">
<title>24</title>
<polygon fill="#c4e2f7" stroke="black" points="342.5,-155 175.5,-155 175.5,-72 342.5,-72 342.5,-155"/>
<text text-anchor="middle" x="259" y="-139.8" font-family="Times,serif" font-size="14.00">sdComm &lt;= 6.5</text>
<text text-anchor="middle" x="259" y="-124.8" font-family="Times,serif" font-size="14.00">gini = 0.485</text>
<text text-anchor="middle" x="259" y="-109.8" font-family="Times,serif" font-size="14.00">samples = 5914</text>
<text text-anchor="middle" x="259" y="-94.8" font-family="Times,serif" font-size="14.00">value = [2438, 3476]</text>
<text text-anchor="middle" x="259" y="-79.8" font-family="Times,serif" font-size="14.00">class = True</text>
</g>
<!-- 2&#45;&gt;24 -->
<g id="edge6" class="edge">
<title>2&#45;&gt;24</title>
<path fill="none" stroke="black" d="M259,-190.91C259,-182.65 259,-173.86 259,-165.3"/>
<polygon fill="black" stroke="black" points="262.5,-165.02 259,-155.02 255.5,-165.02 262.5,-165.02"/>
</g>
<!-- 4 -->
<g id="node5" class="node">
<title>4</title>
<polygon fill="#c0c0c0" stroke="black" points="70,-36 16,-36 16,0 70,0 70,-36"/>
<text text-anchor="middle" x="43" y="-14.3" font-family="Times,serif" font-size="14.00">(...)</text>
</g>
<!-- 3&#45;&gt;4 -->
<g id="edge4" class="edge">
<title>3&#45;&gt;4</title>
<path fill="none" stroke="black" d="M63.31,-71.76C59.96,-63.04 56.49,-54.04 53.39,-45.99"/>
<polygon fill="black" stroke="black" points="56.56,-44.48 49.7,-36.41 50.03,-46.99 56.56,-44.48"/>
</g>
<!-- 19 -->
<g id="node6" class="node">
<title>19</title>
<polygon fill="#c0c0c0" stroke="black" points="142,-36 88,-36 88,0 142,0 142,-36"/>
<text text-anchor="middle" x="115" y="-14.3" font-family="Times,serif" font-size="14.00">(...)</text>
</g>
<!-- 3&#45;&gt;19 -->
<g id="edge5" class="edge">
<title>3&#45;&gt;19</title>
<path fill="none" stroke="black" d="M94.69,-71.76C98.04,-63.04 101.51,-54.04 104.61,-45.99"/>
<polygon fill="black" stroke="black" points="107.97,-46.99 108.3,-36.41 101.44,-44.48 107.97,-46.99"/>
</g>
<!-- 25 -->
<g id="node8" class="node">
<title>25</title>
<polygon fill="#c0c0c0" stroke="black" points="250,-36 196,-36 196,0 250,0 250,-36"/>
<text text-anchor="middle" x="223" y="-14.3" font-family="Times,serif" font-size="14.00">(...)</text>
</g>
<!-- 24&#45;&gt;25 -->
<g id="edge7" class="edge">
<title>24&#45;&gt;25</title>
<path fill="none" stroke="black" d="M243.31,-71.76C239.96,-63.04 236.49,-54.04 233.39,-45.99"/>
<polygon fill="black" stroke="black" points="236.56,-44.48 229.7,-36.41 230.03,-46.99 236.56,-44.48"/>
</g>
<!-- 70 -->
<g id="node9" class="node">
<title>70</title>
<polygon fill="#c0c0c0" stroke="black" points="322,-36 268,-36 268,0 322,0 322,-36"/>
<text text-anchor="middle" x="295" y="-14.3" font-family="Times,serif" font-size="14.00">(...)</text>
</g>
<!-- 24&#45;&gt;70 -->
<g id="edge8" class="edge">
<title>24&#45;&gt;70</title>
<path fill="none" stroke="black" d="M274.69,-71.76C278.04,-63.04 281.51,-54.04 284.61,-45.99"/>
<polygon fill="black" stroke="black" points="287.97,-46.99 288.3,-36.41 281.44,-44.48 287.97,-46.99"/>
</g>
<!-- 76 -->
<g id="node11" class="node">
<title>76</title>
<polygon fill="#53aae8" stroke="black" points="509.5,-155 360.5,-155 360.5,-72 509.5,-72 509.5,-155"/>
<text text-anchor="middle" x="435" y="-139.8" font-family="Times,serif" font-size="14.00">sdComm &lt;= 6.5</text>
<text text-anchor="middle" x="435" y="-124.8" font-family="Times,serif" font-size="14.00">gini = 0.205</text>
<text text-anchor="middle" x="435" y="-109.8" font-family="Times,serif" font-size="14.00">samples = 1115</text>
<text text-anchor="middle" x="435" y="-94.8" font-family="Times,serif" font-size="14.00">value = [129, 986]</text>
<text text-anchor="middle" x="435" y="-79.8" font-family="Times,serif" font-size="14.00">class = True</text>
</g>
<!-- 75&#45;&gt;76 -->
<g id="edge10" class="edge">
<title>75&#45;&gt;76</title>
<path fill="none" stroke="black" d="M493.77,-190.91C486.86,-181.92 479.47,-172.32 472.35,-163.05"/>
<polygon fill="black" stroke="black" points="475.04,-160.81 466.17,-155.02 469.49,-165.08 475.04,-160.81"/>
</g>
<!-- 121 -->
<g id="node14" class="node">
<title>121</title>
<polygon fill="#9acdf2" stroke="black" points="694.5,-155 527.5,-155 527.5,-72 694.5,-72 694.5,-155"/>
<text text-anchor="middle" x="611" y="-139.8" font-family="Times,serif" font-size="14.00">sdComm &lt;= 2.0</text>
<text text-anchor="middle" x="611" y="-124.8" font-family="Times,serif" font-size="14.00">gini = 0.441</text>
<text text-anchor="middle" x="611" y="-109.8" font-family="Times,serif" font-size="14.00">samples = 4008</text>
<text text-anchor="middle" x="611" y="-94.8" font-family="Times,serif" font-size="14.00">value = [1316, 2692]</text>
<text text-anchor="middle" x="611" y="-79.8" font-family="Times,serif" font-size="14.00">class = True</text>
</g>
<!-- 75&#45;&gt;121 -->
<g id="edge13" class="edge">
<title>75&#45;&gt;121</title>
<path fill="none" stroke="black" d="M554.84,-190.91C561.37,-182.01 568.36,-172.51 575.11,-163.33"/>
<polygon fill="black" stroke="black" points="578.11,-165.15 581.22,-155.02 572.47,-161.01 578.11,-165.15"/>
</g>
<!-- 77 -->
<g id="node12" class="node">
<title>77</title>
<polygon fill="#c0c0c0" stroke="black" points="426,-36 372,-36 372,0 426,0 426,-36"/>
<text text-anchor="middle" x="399" y="-14.3" font-family="Times,serif" font-size="14.00">(...)</text>
</g>
<!-- 76&#45;&gt;77 -->
<g id="edge11" class="edge">
<title>76&#45;&gt;77</title>
<path fill="none" stroke="black" d="M419.31,-71.76C415.96,-63.04 412.49,-54.04 409.39,-45.99"/>
<polygon fill="black" stroke="black" points="412.56,-44.48 405.7,-36.41 406.03,-46.99 412.56,-44.48"/>
</g>
<!-- 112 -->
<g id="node13" class="node">
<title>112</title>
<polygon fill="#c0c0c0" stroke="black" points="498,-36 444,-36 444,0 498,0 498,-36"/>
<text text-anchor="middle" x="471" y="-14.3" font-family="Times,serif" font-size="14.00">(...)</text>
</g>
<!-- 76&#45;&gt;112 -->
<g id="edge12" class="edge">
<title>76&#45;&gt;112</title>
<path fill="none" stroke="black" d="M450.69,-71.76C454.04,-63.04 457.51,-54.04 460.61,-45.99"/>
<polygon fill="black" stroke="black" points="463.97,-46.99 464.3,-36.41 457.44,-44.48 463.97,-46.99"/>
</g>
<!-- 122 -->
<g id="node15" class="node">
<title>122</title>
<polygon fill="#c0c0c0" stroke="black" points="586,-36 532,-36 532,0 586,0 586,-36"/>
<text text-anchor="middle" x="559" y="-14.3" font-family="Times,serif" font-size="14.00">(...)</text>
</g>
<!-- 121&#45;&gt;122 -->
<g id="edge14" class="edge">
<title>121&#45;&gt;122</title>
<path fill="none" stroke="black" d="M588.34,-71.76C583.33,-62.75 578.15,-53.44 573.57,-45.19"/>
<polygon fill="black" stroke="black" points="576.6,-43.44 568.68,-36.41 570.48,-46.85 576.6,-43.44"/>
</g>
<!-- 245 -->
<g id="node16" class="node">
<title>245</title>
<polygon fill="#c0c0c0" stroke="black" points="658,-36 604,-36 604,0 658,0 658,-36"/>
<text text-anchor="middle" x="631" y="-14.3" font-family="Times,serif" font-size="14.00">(...)</text>
</g>
<!-- 121&#45;&gt;245 -->
<g id="edge15" class="edge">
<title>121&#45;&gt;245</title>
<path fill="none" stroke="black" d="M619.71,-71.76C621.56,-63.14 623.46,-54.24 625.17,-46.26"/>
<polygon fill="black" stroke="black" points="628.61,-46.92 627.28,-36.41 621.76,-45.45 628.61,-46.92"/>
</g>
<!-- 281 -->
<g id="node18" class="node">
<title>281</title>
<polygon fill="#e1f0fb" stroke="black" points="969.5,-274 802.5,-274 802.5,-191 969.5,-191 969.5,-274"/>
<text text-anchor="middle" x="886" y="-258.8" font-family="Times,serif" font-size="14.00">graphSize &lt;= 22.5</text>
<text text-anchor="middle" x="886" y="-243.8" font-family="Times,serif" font-size="14.00">gini = 0.497</text>
<text text-anchor="middle" x="886" y="-228.8" font-family="Times,serif" font-size="14.00">samples = 15002</text>
<text text-anchor="middle" x="886" y="-213.8" font-family="Times,serif" font-size="14.00">value = [6890, 8112]</text>
<text text-anchor="middle" x="886" y="-198.8" font-family="Times,serif" font-size="14.00">class = True</text>
</g>
<!-- 280&#45;&gt;281 -->
<g id="edge17" class="edge">
<title>280&#45;&gt;281</title>
<path fill="none" stroke="black" d="M886,-309.91C886,-301.65 886,-292.86 886,-284.3"/>
<polygon fill="black" stroke="black" points="889.5,-284.02 886,-274.02 882.5,-284.02 889.5,-284.02"/>
</g>
<!-- 490 -->
<g id="node25" class="node">
<title>490</title>
<polygon fill="#bddef6" stroke="black" points="1244.5,-274 1077.5,-274 1077.5,-191 1244.5,-191 1244.5,-274"/>
<text text-anchor="middle" x="1161" y="-258.8" font-family="Times,serif" font-size="14.00">sdComm &lt;= 0.65</text>
<text text-anchor="middle" x="1161" y="-243.8" font-family="Times,serif" font-size="14.00">gini = 0.48</text>
<text text-anchor="middle" x="1161" y="-228.8" font-family="Times,serif" font-size="14.00">samples = 5790</text>
<text text-anchor="middle" x="1161" y="-213.8" font-family="Times,serif" font-size="14.00">value = [2318, 3472]</text>
<text text-anchor="middle" x="1161" y="-198.8" font-family="Times,serif" font-size="14.00">class = True</text>
</g>
<!-- 280&#45;&gt;490 -->
<g id="edge24" class="edge">
<title>280&#45;&gt;490</title>
<path fill="none" stroke="black" d="M974.15,-313C1004.04,-300.28 1037.53,-286.03 1067.81,-273.15"/>
<polygon fill="black" stroke="black" points="1069.27,-276.33 1077.1,-269.2 1066.53,-269.89 1069.27,-276.33"/>
</g>
<!-- 282 -->
<g id="node19" class="node">
<title>282</title>
<polygon fill="#edf6fd" stroke="black" points="879.5,-155 712.5,-155 712.5,-72 879.5,-72 879.5,-155"/>
<text text-anchor="middle" x="796" y="-139.8" font-family="Times,serif" font-size="14.00">sdComm &lt;= 0.02</text>
<text text-anchor="middle" x="796" y="-124.8" font-family="Times,serif" font-size="14.00">gini = 0.499</text>
<text text-anchor="middle" x="796" y="-109.8" font-family="Times,serif" font-size="14.00">samples = 10022</text>
<text text-anchor="middle" x="796" y="-94.8" font-family="Times,serif" font-size="14.00">value = [4770, 5252]</text>
<text text-anchor="middle" x="796" y="-79.8" font-family="Times,serif" font-size="14.00">class = True</text>
</g>
<!-- 281&#45;&gt;282 -->
<g id="edge18" class="edge">
<title>281&#45;&gt;282</title>
<path fill="none" stroke="black" d="M854.77,-190.91C847.86,-181.92 840.47,-172.32 833.35,-163.05"/>
<polygon fill="black" stroke="black" points="836.04,-160.81 827.17,-155.02 830.49,-165.08 836.04,-160.81"/>
</g>
<!-- 339 -->
<g id="node22" class="node">
<title>339</title>
<polygon fill="#cce6f8" stroke="black" points="1064.5,-155 897.5,-155 897.5,-72 1064.5,-72 1064.5,-155"/>
<text text-anchor="middle" x="981" y="-139.8" font-family="Times,serif" font-size="14.00">sdComp &lt;= 0.065</text>
<text text-anchor="middle" x="981" y="-124.8" font-family="Times,serif" font-size="14.00">gini = 0.489</text>
<text text-anchor="middle" x="981" y="-109.8" font-family="Times,serif" font-size="14.00">samples = 4980</text>
<text text-anchor="middle" x="981" y="-94.8" font-family="Times,serif" font-size="14.00">value = [2120, 2860]</text>
<text text-anchor="middle" x="981" y="-79.8" font-family="Times,serif" font-size="14.00">class = True</text>
</g>
<!-- 281&#45;&gt;339 -->
<g id="edge21" class="edge">
<title>281&#45;&gt;339</title>
<path fill="none" stroke="black" d="M918.96,-190.91C926.25,-181.92 934.06,-172.32 941.58,-163.05"/>
<polygon fill="black" stroke="black" points="944.51,-164.99 948.1,-155.02 939.08,-160.58 944.51,-164.99"/>
</g>
<!-- 283 -->
<g id="node20" class="node">
<title>283</title>
<polygon fill="#c0c0c0" stroke="black" points="771,-36 717,-36 717,0 771,0 771,-36"/>
<text text-anchor="middle" x="744" y="-14.3" font-family="Times,serif" font-size="14.00">(...)</text>
</g>
<!-- 282&#45;&gt;283 -->
<g id="edge19" class="edge">
<title>282&#45;&gt;283</title>
<path fill="none" stroke="black" d="M773.34,-71.76C768.33,-62.75 763.15,-53.44 758.57,-45.19"/>
<polygon fill="black" stroke="black" points="761.6,-43.44 753.68,-36.41 755.48,-46.85 761.6,-43.44"/>
</g>
<!-- 294 -->
<g id="node21" class="node">
<title>294</title>
<polygon fill="#c0c0c0" stroke="black" points="843,-36 789,-36 789,0 843,0 843,-36"/>
<text text-anchor="middle" x="816" y="-14.3" font-family="Times,serif" font-size="14.00">(...)</text>
</g>
<!-- 282&#45;&gt;294 -->
<g id="edge20" class="edge">
<title>282&#45;&gt;294</title>
<path fill="none" stroke="black" d="M804.71,-71.76C806.56,-63.14 808.46,-54.24 810.17,-46.26"/>
<polygon fill="black" stroke="black" points="813.61,-46.92 812.28,-36.41 806.76,-45.45 813.61,-46.92"/>
</g>
<!-- 340 -->
<g id="node23" class="node">
<title>340</title>
<polygon fill="#c0c0c0" stroke="black" points="954,-36 900,-36 900,0 954,0 954,-36"/>
<text text-anchor="middle" x="927" y="-14.3" font-family="Times,serif" font-size="14.00">(...)</text>
</g>
<!-- 339&#45;&gt;340 -->
<g id="edge22" class="edge">
<title>339&#45;&gt;340</title>
<path fill="none" stroke="black" d="M957.47,-71.76C952.27,-62.75 946.89,-53.44 942.13,-45.19"/>
<polygon fill="black" stroke="black" points="945.08,-43.31 937.05,-36.41 939.02,-46.82 945.08,-43.31"/>
</g>
<!-- 409 -->
<g id="node24" class="node">
<title>409</title>
<polygon fill="#c0c0c0" stroke="black" points="1026,-36 972,-36 972,0 1026,0 1026,-36"/>
<text text-anchor="middle" x="999" y="-14.3" font-family="Times,serif" font-size="14.00">(...)</text>
</g>
<!-- 339&#45;&gt;409 -->
<g id="edge23" class="edge">
<title>339&#45;&gt;409</title>
<path fill="none" stroke="black" d="M988.84,-71.76C990.5,-63.14 992.22,-54.24 993.75,-46.26"/>
<polygon fill="black" stroke="black" points="997.2,-46.89 995.65,-36.41 990.32,-45.56 997.2,-46.89"/>
</g>
<!-- 491 -->
<g id="node26" class="node">
<title>491</title>
<polygon fill="#a1d0f3" stroke="black" points="1240,-155 1082,-155 1082,-72 1240,-72 1240,-155"/>
<text text-anchor="middle" x="1161" y="-139.8" font-family="Times,serif" font-size="14.00">graphDepth &lt;= 3.5</text>
<text text-anchor="middle" x="1161" y="-124.8" font-family="Times,serif" font-size="14.00">gini = 0.451</text>
<text text-anchor="middle" x="1161" y="-109.8" font-family="Times,serif" font-size="14.00">samples = 1302</text>
<text text-anchor="middle" x="1161" y="-94.8" font-family="Times,serif" font-size="14.00">value = [448, 854]</text>
<text text-anchor="middle" x="1161" y="-79.8" font-family="Times,serif" font-size="14.00">class = True</text>
</g>
<!-- 490&#45;&gt;491 -->
<g id="edge25" class="edge">
<title>490&#45;&gt;491</title>
<path fill="none" stroke="black" d="M1161,-190.91C1161,-182.65 1161,-173.86 1161,-165.3"/>
<polygon fill="black" stroke="black" points="1164.5,-165.02 1161,-155.02 1157.5,-165.02 1164.5,-165.02"/>
</g>
<!-- 520 -->
<g id="node29" class="node">
<title>520</title>
<polygon fill="#c6e3f8" stroke="black" points="1424.5,-155 1257.5,-155 1257.5,-72 1424.5,-72 1424.5,-155"/>
<text text-anchor="middle" x="1341" y="-139.8" font-family="Times,serif" font-size="14.00">sdComp &lt;= 6.5</text>
<text text-anchor="middle" x="1341" y="-124.8" font-family="Times,serif" font-size="14.00">gini = 0.486</text>
<text text-anchor="middle" x="1341" y="-109.8" font-family="Times,serif" font-size="14.00">samples = 4488</text>
<text text-anchor="middle" x="1341" y="-94.8" font-family="Times,serif" font-size="14.00">value = [1870, 2618]</text>
<text text-anchor="middle" x="1341" y="-79.8" font-family="Times,serif" font-size="14.00">class = True</text>
</g>
<!-- 490&#45;&gt;520 -->
<g id="edge28" class="edge">
<title>490&#45;&gt;520</title>
<path fill="none" stroke="black" d="M1223.45,-190.91C1238.53,-181.11 1254.75,-170.56 1270.18,-160.53"/>
<polygon fill="black" stroke="black" points="1272.18,-163.41 1278.66,-155.02 1268.37,-157.54 1272.18,-163.41"/>
</g>
<!-- 492 -->
<g id="node27" class="node">
<title>492</title>
<polygon fill="#c0c0c0" stroke="black" points="1152,-36 1098,-36 1098,0 1152,0 1152,-36"/>
<text text-anchor="middle" x="1125" y="-14.3" font-family="Times,serif" font-size="14.00">(...)</text>
</g>
<!-- 491&#45;&gt;492 -->
<g id="edge26" class="edge">
<title>491&#45;&gt;492</title>
<path fill="none" stroke="black" d="M1145.31,-71.76C1141.96,-63.04 1138.49,-54.04 1135.39,-45.99"/>
<polygon fill="black" stroke="black" points="1138.56,-44.48 1131.7,-36.41 1132.03,-46.99 1138.56,-44.48"/>
</g>
<!-- 495 -->
<g id="node28" class="node">
<title>495</title>
<polygon fill="#c0c0c0" stroke="black" points="1224,-36 1170,-36 1170,0 1224,0 1224,-36"/>
<text text-anchor="middle" x="1197" y="-14.3" font-family="Times,serif" font-size="14.00">(...)</text>
</g>
<!-- 491&#45;&gt;495 -->
<g id="edge27" class="edge">
<title>491&#45;&gt;495</title>
<path fill="none" stroke="black" d="M1176.69,-71.76C1180.04,-63.04 1183.51,-54.04 1186.61,-45.99"/>
<polygon fill="black" stroke="black" points="1189.97,-46.99 1190.3,-36.41 1183.44,-44.48 1189.97,-46.99"/>
</g>
<!-- 521 -->
<g id="node30" class="node">
<title>521</title>
<polygon fill="#c0c0c0" stroke="black" points="1332,-36 1278,-36 1278,0 1332,0 1332,-36"/>
<text text-anchor="middle" x="1305" y="-14.3" font-family="Times,serif" font-size="14.00">(...)</text>
</g>
<!-- 520&#45;&gt;521 -->
<g id="edge29" class="edge">
<title>520&#45;&gt;521</title>
<path fill="none" stroke="black" d="M1325.31,-71.76C1321.96,-63.04 1318.49,-54.04 1315.39,-45.99"/>
<polygon fill="black" stroke="black" points="1318.56,-44.48 1311.7,-36.41 1312.03,-46.99 1318.56,-44.48"/>
</g>
<!-- 594 -->
<g id="node31" class="node">
<title>594</title>
<polygon fill="#c0c0c0" stroke="black" points="1404,-36 1350,-36 1350,0 1404,0 1404,-36"/>
<text text-anchor="middle" x="1377" y="-14.3" font-family="Times,serif" font-size="14.00">(...)</text>
</g>
<!-- 520&#45;&gt;594 -->
<g id="edge30" class="edge">
<title>520&#45;&gt;594</title>
<path fill="none" stroke="black" d="M1356.69,-71.76C1360.04,-63.04 1363.51,-54.04 1366.61,-45.99"/>
<polygon fill="black" stroke="black" points="1369.97,-46.99 1370.3,-36.41 1363.44,-44.48 1369.97,-46.99"/>
</g>
</g>
</svg>
