<?xml version="1.0" encoding="UTF-8" standalone="no"?>
<!DOCTYPE svg PUBLIC "-//W3C//DTD SVG 1.1//EN"
 "http://www.w3.org/Graphics/SVG/1.1/DTD/svg11.dtd">
<!-- Generated by graphviz version 2.43.0 (0)
 -->
<!-- Title: Tree Pages: 1 -->
<svg width="1398pt" height="520pt"
 viewBox="0.00 0.00 1398.00 520.00" xmlns="http://www.w3.org/2000/svg" xmlns:xlink="http://www.w3.org/1999/xlink">
<g id="graph0" class="graph" transform="scale(1 1) rotate(0) translate(4 516)">
<title>Tree</title>
<polygon fill="white" stroke="transparent" points="-4,4 -4,-516 1394,-516 1394,4 -4,4"/>
<!-- 0 -->
<g id="node1" class="node">
<title>0</title>
<polygon fill="#ffffff" stroke="black" points="764,-512 579,-512 579,-429 764,-429 764,-512"/>
<text text-anchor="middle" x="671.5" y="-496.8" font-family="Times,serif" font-size="14.00">graphDepth &lt;= 3.5</text>
<text text-anchor="middle" x="671.5" y="-481.8" font-family="Times,serif" font-size="14.00">gini = 0.5</text>
<text text-anchor="middle" x="671.5" y="-466.8" font-family="Times,serif" font-size="14.00">samples = 33378</text>
<text text-anchor="middle" x="671.5" y="-451.8" font-family="Times,serif" font-size="14.00">value = [16685, 16693]</text>
<text text-anchor="middle" x="671.5" y="-436.8" font-family="Times,serif" font-size="14.00">class = True</text>
</g>
<!-- 1 -->
<g id="node2" class="node">
<title>1</title>
<polygon fill="#feffff" stroke="black" points="584,-393 417,-393 417,-310 584,-310 584,-393"/>
<text text-anchor="middle" x="500.5" y="-377.8" font-family="Times,serif" font-size="14.00">sdComp &lt;= 0.65</text>
<text text-anchor="middle" x="500.5" y="-362.8" font-family="Times,serif" font-size="14.00">gini = 0.5</text>
<text text-anchor="middle" x="500.5" y="-347.8" font-family="Times,serif" font-size="14.00">samples = 5255</text>
<text text-anchor="middle" x="500.5" y="-332.8" font-family="Times,serif" font-size="14.00">value = [2624, 2631]</text>
<text text-anchor="middle" x="500.5" y="-317.8" font-family="Times,serif" font-size="14.00">class = True</text>
</g>
<!-- 0&#45;&gt;1 -->
<g id="edge1" class="edge">
<title>0&#45;&gt;1</title>
<path fill="none" stroke="black" d="M612.17,-428.91C597.98,-419.2 582.72,-408.76 568.19,-398.81"/>
<polygon fill="black" stroke="black" points="569.95,-395.78 559.72,-393.02 566,-401.56 569.95,-395.78"/>
<text text-anchor="middle" x="564.33" y="-413.89" font-family="Times,serif" font-size="14.00">True</text>
</g>
<!-- 100 -->
<g id="node17" class="node">
<title>100</title>
<polygon fill="#ffffff" stroke="black" points="950,-393 765,-393 765,-310 950,-310 950,-393"/>
<text text-anchor="middle" x="857.5" y="-377.8" font-family="Times,serif" font-size="14.00">sdComm &lt;= 0.65</text>
<text text-anchor="middle" x="857.5" y="-362.8" font-family="Times,serif" font-size="14.00">gini = 0.5</text>
<text text-anchor="middle" x="857.5" y="-347.8" font-family="Times,serif" font-size="14.00">samples = 28123</text>
<text text-anchor="middle" x="857.5" y="-332.8" font-family="Times,serif" font-size="14.00">value = [14061, 14062]</text>
<text text-anchor="middle" x="857.5" y="-317.8" font-family="Times,serif" font-size="14.00">class = True</text>
</g>
<!-- 0&#45;&gt;100 -->
<g id="edge16" class="edge">
<title>0&#45;&gt;100</title>
<path fill="none" stroke="black" d="M736.03,-428.91C751.61,-419.11 768.37,-408.56 784.32,-398.53"/>
<polygon fill="black" stroke="black" points="786.48,-401.31 793.08,-393.02 782.75,-395.38 786.48,-401.31"/>
<text text-anchor="middle" x="787.53" y="-413.7" font-family="Times,serif" font-size="14.00">False</text>
</g>
<!-- 2 -->
<g id="node3" class="node">
<title>2</title>
<polygon fill="#ffffff" stroke="black" points="334,-274 167,-274 167,-191 334,-191 334,-274"/>
<text text-anchor="middle" x="250.5" y="-258.8" font-family="Times,serif" font-size="14.00">sdComm &lt;= 0.02</text>
<text text-anchor="middle" x="250.5" y="-243.8" font-family="Times,serif" font-size="14.00">gini = 0.5</text>
<text text-anchor="middle" x="250.5" y="-228.8" font-family="Times,serif" font-size="14.00">samples = 3710</text>
<text text-anchor="middle" x="250.5" y="-213.8" font-family="Times,serif" font-size="14.00">value = [1855, 1855]</text>
<text text-anchor="middle" x="250.5" y="-198.8" font-family="Times,serif" font-size="14.00">class = False</text>
</g>
<!-- 1&#45;&gt;2 -->
<g id="edge2" class="edge">
<title>1&#45;&gt;2</title>
<path fill="none" stroke="black" d="M416.91,-311.38C393.24,-300.3 367.35,-288.19 343.18,-276.88"/>
<polygon fill="black" stroke="black" points="344.56,-273.65 334.02,-272.59 341.59,-279.99 344.56,-273.65"/>
</g>
<!-- 59 -->
<g id="node10" class="node">
<title>59</title>
<polygon fill="#fdfeff" stroke="black" points="575,-274 426,-274 426,-191 575,-191 575,-274"/>
<text text-anchor="middle" x="500.5" y="-258.8" font-family="Times,serif" font-size="14.00">sdComm &lt;= 0.2</text>
<text text-anchor="middle" x="500.5" y="-243.8" font-family="Times,serif" font-size="14.00">gini = 0.5</text>
<text text-anchor="middle" x="500.5" y="-228.8" font-family="Times,serif" font-size="14.00">samples = 1545</text>
<text text-anchor="middle" x="500.5" y="-213.8" font-family="Times,serif" font-size="14.00">value = [769, 776]</text>
<text text-anchor="middle" x="500.5" y="-198.8" font-family="Times,serif" font-size="14.00">class = True</text>
</g>
<!-- 1&#45;&gt;59 -->
<g id="edge9" class="edge">
<title>1&#45;&gt;59</title>
<path fill="none" stroke="black" d="M500.5,-309.91C500.5,-301.65 500.5,-292.86 500.5,-284.3"/>
<polygon fill="black" stroke="black" points="504,-284.02 500.5,-274.02 497,-284.02 504,-284.02"/>
</g>
<!-- 3 -->
<g id="node4" class="node">
<title>3</title>
<polygon fill="#ffffff" stroke="black" points="149,-155 0,-155 0,-72 149,-72 149,-155"/>
<text text-anchor="middle" x="74.5" y="-139.8" font-family="Times,serif" font-size="14.00">nbproc &lt;= 4.5</text>
<text text-anchor="middle" x="74.5" y="-124.8" font-family="Times,serif" font-size="14.00">gini = 0.5</text>
<text text-anchor="middle" x="74.5" y="-109.8" font-family="Times,serif" font-size="14.00">samples = 1590</text>
<text text-anchor="middle" x="74.5" y="-94.8" font-family="Times,serif" font-size="14.00">value = [795, 795]</text>
<text text-anchor="middle" x="74.5" y="-79.8" font-family="Times,serif" font-size="14.00">class = False</text>
</g>
<!-- 2&#45;&gt;3 -->
<g id="edge3" class="edge">
<title>2&#45;&gt;3</title>
<path fill="none" stroke="black" d="M189.44,-190.91C174.83,-181.2 159.13,-170.76 144.16,-160.81"/>
<polygon fill="black" stroke="black" points="145.72,-157.64 135.45,-155.02 141.84,-163.47 145.72,-157.64"/>
</g>
<!-- 14 -->
<g id="node7" class="node">
<title>14</title>
<polygon fill="#ffffff" stroke="black" points="334,-155 167,-155 167,-72 334,-72 334,-155"/>
<text text-anchor="middle" x="250.5" y="-139.8" font-family="Times,serif" font-size="14.00">sdComp &lt;= 0.02</text>
<text text-anchor="middle" x="250.5" y="-124.8" font-family="Times,serif" font-size="14.00">gini = 0.5</text>
<text text-anchor="middle" x="250.5" y="-109.8" font-family="Times,serif" font-size="14.00">samples = 2120</text>
<text text-anchor="middle" x="250.5" y="-94.8" font-family="Times,serif" font-size="14.00">value = [1060, 1060]</text>
<text text-anchor="middle" x="250.5" y="-79.8" font-family="Times,serif" font-size="14.00">class = False</text>
</g>
<!-- 2&#45;&gt;14 -->
<g id="edge6" class="edge">
<title>2&#45;&gt;14</title>
<path fill="none" stroke="black" d="M250.5,-190.91C250.5,-182.65 250.5,-173.86 250.5,-165.3"/>
<polygon fill="black" stroke="black" points="254,-165.02 250.5,-155.02 247,-165.02 254,-165.02"/>
</g>
<!-- 4 -->
<g id="node5" class="node">
<title>4</title>
<polygon fill="#c0c0c0" stroke="black" points="65.5,-36 11.5,-36 11.5,0 65.5,0 65.5,-36"/>
<text text-anchor="middle" x="38.5" y="-14.3" font-family="Times,serif" font-size="14.00">(...)</text>
</g>
<!-- 3&#45;&gt;4 -->
<g id="edge4" class="edge">
<title>3&#45;&gt;4</title>
<path fill="none" stroke="black" d="M58.81,-71.76C55.46,-63.04 51.99,-54.04 48.89,-45.99"/>
<polygon fill="black" stroke="black" points="52.06,-44.48 45.2,-36.41 45.53,-46.99 52.06,-44.48"/>
</g>
<!-- 9 -->
<g id="node6" class="node">
<title>9</title>
<polygon fill="#c0c0c0" stroke="black" points="137.5,-36 83.5,-36 83.5,0 137.5,0 137.5,-36"/>
<text text-anchor="middle" x="110.5" y="-14.3" font-family="Times,serif" font-size="14.00">(...)</text>
</g>
<!-- 3&#45;&gt;9 -->
<g id="edge5" class="edge">
<title>3&#45;&gt;9</title>
<path fill="none" stroke="black" d="M90.19,-71.76C93.54,-63.04 97.01,-54.04 100.11,-45.99"/>
<polygon fill="black" stroke="black" points="103.47,-46.99 103.8,-36.41 96.94,-44.48 103.47,-46.99"/>
</g>
<!-- 15 -->
<g id="node8" class="node">
<title>15</title>
<polygon fill="#c0c0c0" stroke="black" points="240.5,-36 186.5,-36 186.5,0 240.5,0 240.5,-36"/>
<text text-anchor="middle" x="213.5" y="-14.3" font-family="Times,serif" font-size="14.00">(...)</text>
</g>
<!-- 14&#45;&gt;15 -->
<g id="edge7" class="edge">
<title>14&#45;&gt;15</title>
<path fill="none" stroke="black" d="M234.38,-71.76C230.89,-62.94 227.29,-53.84 224.08,-45.72"/>
<polygon fill="black" stroke="black" points="227.32,-44.42 220.39,-36.41 220.81,-46.99 227.32,-44.42"/>
</g>
<!-- 22 -->
<g id="node9" class="node">
<title>22</title>
<polygon fill="#c0c0c0" stroke="black" points="312.5,-36 258.5,-36 258.5,0 312.5,0 312.5,-36"/>
<text text-anchor="middle" x="285.5" y="-14.3" font-family="Times,serif" font-size="14.00">(...)</text>
</g>
<!-- 14&#45;&gt;22 -->
<g id="edge8" class="edge">
<title>14&#45;&gt;22</title>
<path fill="none" stroke="black" d="M265.75,-71.76C269.01,-63.04 272.38,-54.04 275.4,-45.99"/>
<polygon fill="black" stroke="black" points="278.76,-47 278.98,-36.41 272.2,-44.54 278.76,-47"/>
</g>
<!-- 60 -->
<g id="node11" class="node">
<title>60</title>
<polygon fill="#f7fbfe" stroke="black" points="501,-155 352,-155 352,-72 501,-72 501,-155"/>
<text text-anchor="middle" x="426.5" y="-139.8" font-family="Times,serif" font-size="14.00">nbproc &lt;= 4.5</text>
<text text-anchor="middle" x="426.5" y="-124.8" font-family="Times,serif" font-size="14.00">gini = 0.5</text>
<text text-anchor="middle" x="426.5" y="-109.8" font-family="Times,serif" font-size="14.00">samples = 335</text>
<text text-anchor="middle" x="426.5" y="-94.8" font-family="Times,serif" font-size="14.00">value = [164, 171]</text>
<text text-anchor="middle" x="426.5" y="-79.8" font-family="Times,serif" font-size="14.00">class = True</text>
</g>
<!-- 59&#45;&gt;60 -->
<g id="edge10" class="edge">
<title>59&#45;&gt;60</title>
<path fill="none" stroke="black" d="M474.83,-190.91C469.26,-182.1 463.31,-172.7 457.56,-163.61"/>
<polygon fill="black" stroke="black" points="460.43,-161.6 452.13,-155.02 454.52,-165.34 460.43,-161.6"/>
</g>
<!-- 63 -->
<g id="node14" class="node">
<title>63</title>
<polygon fill="#ffffff" stroke="black" points="668,-155 519,-155 519,-72 668,-72 668,-155"/>
<text text-anchor="middle" x="593.5" y="-139.8" font-family="Times,serif" font-size="14.00">sdComm &lt;= 0.65</text>
<text text-anchor="middle" x="593.5" y="-124.8" font-family="Times,serif" font-size="14.00">gini = 0.5</text>
<text text-anchor="middle" x="593.5" y="-109.8" font-family="Times,serif" font-size="14.00">samples = 1210</text>
<text text-anchor="middle" x="593.5" y="-94.8" font-family="Times,serif" font-size="14.00">value = [605, 605]</text>
<text text-anchor="middle" x="593.5" y="-79.8" font-family="Times,serif" font-size="14.00">class = False</text>
</g>
<!-- 59&#45;&gt;63 -->
<g id="edge13" class="edge">
<title>59&#45;&gt;63</title>
<path fill="none" stroke="black" d="M532.77,-190.91C539.91,-181.92 547.54,-172.32 554.91,-163.05"/>
<polygon fill="black" stroke="black" points="557.81,-165.03 561.29,-155.02 552.33,-160.67 557.81,-165.03"/>
</g>
<!-- 61 -->
<g id="node12" class="node">
<title>61</title>
<polygon fill="#c0c0c0" stroke="black" points="409.5,-36 355.5,-36 355.5,0 409.5,0 409.5,-36"/>
<text text-anchor="middle" x="382.5" y="-14.3" font-family="Times,serif" font-size="14.00">(...)</text>
</g>
<!-- 60&#45;&gt;61 -->
<g id="edge11" class="edge">
<title>60&#45;&gt;61</title>
<path fill="none" stroke="black" d="M407.33,-71.76C403.13,-62.85 398.8,-53.64 394.95,-45.46"/>
<polygon fill="black" stroke="black" points="398.12,-43.96 390.69,-36.41 391.78,-46.94 398.12,-43.96"/>
</g>
<!-- 62 -->
<g id="node13" class="node">
<title>62</title>
<polygon fill="#c0c0c0" stroke="black" points="481.5,-36 427.5,-36 427.5,0 481.5,0 481.5,-36"/>
<text text-anchor="middle" x="454.5" y="-14.3" font-family="Times,serif" font-size="14.00">(...)</text>
</g>
<!-- 60&#45;&gt;62 -->
<g id="edge12" class="edge">
<title>60&#45;&gt;62</title>
<path fill="none" stroke="black" d="M438.7,-71.76C441.31,-63.04 444.01,-54.04 446.42,-45.99"/>
<polygon fill="black" stroke="black" points="449.77,-46.99 449.29,-36.41 443.07,-44.98 449.77,-46.99"/>
</g>
<!-- 64 -->
<g id="node15" class="node">
<title>64</title>
<polygon fill="#c0c0c0" stroke="black" points="564.5,-36 510.5,-36 510.5,0 564.5,0 564.5,-36"/>
<text text-anchor="middle" x="537.5" y="-14.3" font-family="Times,serif" font-size="14.00">(...)</text>
</g>
<!-- 63&#45;&gt;64 -->
<g id="edge14" class="edge">
<title>63&#45;&gt;64</title>
<path fill="none" stroke="black" d="M569.1,-71.76C563.7,-62.75 558.13,-53.44 553.19,-45.19"/>
<polygon fill="black" stroke="black" points="556.07,-43.19 547.92,-36.41 550.06,-46.78 556.07,-43.19"/>
</g>
<!-- 67 -->
<g id="node16" class="node">
<title>67</title>
<polygon fill="#c0c0c0" stroke="black" points="636.5,-36 582.5,-36 582.5,0 636.5,0 636.5,-36"/>
<text text-anchor="middle" x="609.5" y="-14.3" font-family="Times,serif" font-size="14.00">(...)</text>
</g>
<!-- 63&#45;&gt;67 -->
<g id="edge15" class="edge">
<title>63&#45;&gt;67</title>
<path fill="none" stroke="black" d="M600.47,-71.76C601.93,-63.24 603.44,-54.44 604.79,-46.53"/>
<polygon fill="black" stroke="black" points="608.28,-46.85 606.52,-36.41 601.38,-45.67 608.28,-46.85"/>
</g>
<!-- 101 -->
<g id="node18" class="node">
<title>101</title>
<polygon fill="#ffffff" stroke="black" points="941,-274 774,-274 774,-191 941,-191 941,-274"/>
<text text-anchor="middle" x="857.5" y="-258.8" font-family="Times,serif" font-size="14.00">CCR &lt;= 0.55</text>
<text text-anchor="middle" x="857.5" y="-243.8" font-family="Times,serif" font-size="14.00">gini = 0.5</text>
<text text-anchor="middle" x="857.5" y="-228.8" font-family="Times,serif" font-size="14.00">samples = 17704</text>
<text text-anchor="middle" x="857.5" y="-213.8" font-family="Times,serif" font-size="14.00">value = [8852, 8852]</text>
<text text-anchor="middle" x="857.5" y="-198.8" font-family="Times,serif" font-size="14.00">class = False</text>
</g>
<!-- 100&#45;&gt;101 -->
<g id="edge17" class="edge">
<title>100&#45;&gt;101</title>
<path fill="none" stroke="black" d="M857.5,-309.91C857.5,-301.65 857.5,-292.86 857.5,-284.3"/>
<polygon fill="black" stroke="black" points="861,-284.02 857.5,-274.02 854,-284.02 861,-284.02"/>
</g>
<!-- 466 -->
<g id="node25" class="node">
<title>466</title>
<polygon fill="#ffffff" stroke="black" points="1214,-274 1047,-274 1047,-191 1214,-191 1214,-274"/>
<text text-anchor="middle" x="1130.5" y="-258.8" font-family="Times,serif" font-size="14.00">CCR &lt;= 5.5</text>
<text text-anchor="middle" x="1130.5" y="-243.8" font-family="Times,serif" font-size="14.00">gini = 0.5</text>
<text text-anchor="middle" x="1130.5" y="-228.8" font-family="Times,serif" font-size="14.00">samples = 10419</text>
<text text-anchor="middle" x="1130.5" y="-213.8" font-family="Times,serif" font-size="14.00">value = [5209, 5210]</text>
<text text-anchor="middle" x="1130.5" y="-198.8" font-family="Times,serif" font-size="14.00">class = True</text>
</g>
<!-- 100&#45;&gt;466 -->
<g id="edge24" class="edge">
<title>100&#45;&gt;466</title>
<path fill="none" stroke="black" d="M950.31,-310.73C978.36,-298.7 1009.17,-285.5 1037.25,-273.47"/>
<polygon fill="black" stroke="black" points="1038.85,-276.59 1046.66,-269.43 1036.09,-270.15 1038.85,-276.59"/>
</g>
<!-- 102 -->
<g id="node19" class="node">
<title>102</title>
<polygon fill="#ffffff" stroke="black" points="853,-155 686,-155 686,-72 853,-72 853,-155"/>
<text text-anchor="middle" x="769.5" y="-139.8" font-family="Times,serif" font-size="14.00">sdComp &lt;= 0.02</text>
<text text-anchor="middle" x="769.5" y="-124.8" font-family="Times,serif" font-size="14.00">gini = 0.5</text>
<text text-anchor="middle" x="769.5" y="-109.8" font-family="Times,serif" font-size="14.00">samples = 14282</text>
<text text-anchor="middle" x="769.5" y="-94.8" font-family="Times,serif" font-size="14.00">value = [7141, 7141]</text>
<text text-anchor="middle" x="769.5" y="-79.8" font-family="Times,serif" font-size="14.00">class = False</text>
</g>
<!-- 101&#45;&gt;102 -->
<g id="edge18" class="edge">
<title>101&#45;&gt;102</title>
<path fill="none" stroke="black" d="M826.97,-190.91C820.21,-181.92 812.98,-172.32 806.02,-163.05"/>
<polygon fill="black" stroke="black" points="808.79,-160.91 799.98,-155.02 803.19,-165.12 808.79,-160.91"/>
</g>
<!-- 323 -->
<g id="node22" class="node">
<title>323</title>
<polygon fill="#ffffff" stroke="black" points="1038,-155 871,-155 871,-72 1038,-72 1038,-155"/>
<text text-anchor="middle" x="954.5" y="-139.8" font-family="Times,serif" font-size="14.00">graphDepth &lt;= 6.5</text>
<text text-anchor="middle" x="954.5" y="-124.8" font-family="Times,serif" font-size="14.00">gini = 0.5</text>
<text text-anchor="middle" x="954.5" y="-109.8" font-family="Times,serif" font-size="14.00">samples = 3422</text>
<text text-anchor="middle" x="954.5" y="-94.8" font-family="Times,serif" font-size="14.00">value = [1711, 1711]</text>
<text text-anchor="middle" x="954.5" y="-79.8" font-family="Times,serif" font-size="14.00">class = False</text>
</g>
<!-- 101&#45;&gt;323 -->
<g id="edge21" class="edge">
<title>101&#45;&gt;323</title>
<path fill="none" stroke="black" d="M891.15,-190.91C898.68,-181.83 906.73,-172.12 914.48,-162.77"/>
<polygon fill="black" stroke="black" points="917.22,-164.95 920.91,-155.02 911.83,-160.49 917.22,-164.95"/>
</g>
<!-- 103 -->
<g id="node20" class="node">
<title>103</title>
<polygon fill="#c0c0c0" stroke="black" points="744.5,-36 690.5,-36 690.5,0 744.5,0 744.5,-36"/>
<text text-anchor="middle" x="717.5" y="-14.3" font-family="Times,serif" font-size="14.00">(...)</text>
</g>
<!-- 102&#45;&gt;103 -->
<g id="edge19" class="edge">
<title>102&#45;&gt;103</title>
<path fill="none" stroke="black" d="M746.84,-71.76C741.83,-62.75 736.65,-53.44 732.07,-45.19"/>
<polygon fill="black" stroke="black" points="735.1,-43.44 727.18,-36.41 728.98,-46.85 735.1,-43.44"/>
</g>
<!-- 170 -->
<g id="node21" class="node">
<title>170</title>
<polygon fill="#c0c0c0" stroke="black" points="816.5,-36 762.5,-36 762.5,0 816.5,0 816.5,-36"/>
<text text-anchor="middle" x="789.5" y="-14.3" font-family="Times,serif" font-size="14.00">(...)</text>
</g>
<!-- 102&#45;&gt;170 -->
<g id="edge20" class="edge">
<title>102&#45;&gt;170</title>
<path fill="none" stroke="black" d="M778.21,-71.76C780.06,-63.14 781.96,-54.24 783.67,-46.26"/>
<polygon fill="black" stroke="black" points="787.11,-46.92 785.78,-36.41 780.26,-45.45 787.11,-46.92"/>
</g>
<!-- 324 -->
<g id="node23" class="node">
<title>324</title>
<polygon fill="#c0c0c0" stroke="black" points="925.5,-36 871.5,-36 871.5,0 925.5,0 925.5,-36"/>
<text text-anchor="middle" x="898.5" y="-14.3" font-family="Times,serif" font-size="14.00">(...)</text>
</g>
<!-- 323&#45;&gt;324 -->
<g id="edge22" class="edge">
<title>323&#45;&gt;324</title>
<path fill="none" stroke="black" d="M930.1,-71.76C924.7,-62.75 919.13,-53.44 914.19,-45.19"/>
<polygon fill="black" stroke="black" points="917.07,-43.19 908.92,-36.41 911.06,-46.78 917.07,-43.19"/>
</g>
<!-- 367 -->
<g id="node24" class="node">
<title>367</title>
<polygon fill="#c0c0c0" stroke="black" points="997.5,-36 943.5,-36 943.5,0 997.5,0 997.5,-36"/>
<text text-anchor="middle" x="970.5" y="-14.3" font-family="Times,serif" font-size="14.00">(...)</text>
</g>
<!-- 323&#45;&gt;367 -->
<g id="edge23" class="edge">
<title>323&#45;&gt;367</title>
<path fill="none" stroke="black" d="M961.47,-71.76C962.93,-63.24 964.44,-54.44 965.79,-46.53"/>
<polygon fill="black" stroke="black" points="969.28,-46.85 967.52,-36.41 962.38,-45.67 969.28,-46.85"/>
</g>
<!-- 467 -->
<g id="node26" class="node">
<title>467</title>
<polygon fill="#ffffff" stroke="black" points="1205,-155 1056,-155 1056,-72 1205,-72 1205,-155"/>
<text text-anchor="middle" x="1130.5" y="-139.8" font-family="Times,serif" font-size="14.00">nbproc &lt;= 4.5</text>
<text text-anchor="middle" x="1130.5" y="-124.8" font-family="Times,serif" font-size="14.00">gini = 0.5</text>
<text text-anchor="middle" x="1130.5" y="-109.8" font-family="Times,serif" font-size="14.00">samples = 1483</text>
<text text-anchor="middle" x="1130.5" y="-94.8" font-family="Times,serif" font-size="14.00">value = [741, 742]</text>
<text text-anchor="middle" x="1130.5" y="-79.8" font-family="Times,serif" font-size="14.00">class = True</text>
</g>
<!-- 466&#45;&gt;467 -->
<g id="edge25" class="edge">
<title>466&#45;&gt;467</title>
<path fill="none" stroke="black" d="M1130.5,-190.91C1130.5,-182.65 1130.5,-173.86 1130.5,-165.3"/>
<polygon fill="black" stroke="black" points="1134,-165.02 1130.5,-155.02 1127,-165.02 1134,-165.02"/>
</g>
<!-- 530 -->
<g id="node29" class="node">
<title>530</title>
<polygon fill="#ffffff" stroke="black" points="1390,-155 1223,-155 1223,-72 1390,-72 1390,-155"/>
<text text-anchor="middle" x="1306.5" y="-139.8" font-family="Times,serif" font-size="14.00">graphSize &lt;= 22.5</text>
<text text-anchor="middle" x="1306.5" y="-124.8" font-family="Times,serif" font-size="14.00">gini = 0.5</text>
<text text-anchor="middle" x="1306.5" y="-109.8" font-family="Times,serif" font-size="14.00">samples = 8936</text>
<text text-anchor="middle" x="1306.5" y="-94.8" font-family="Times,serif" font-size="14.00">value = [4468, 4468]</text>
<text text-anchor="middle" x="1306.5" y="-79.8" font-family="Times,serif" font-size="14.00">class = False</text>
</g>
<!-- 466&#45;&gt;530 -->
<g id="edge28" class="edge">
<title>466&#45;&gt;530</title>
<path fill="none" stroke="black" d="M1191.56,-190.91C1206.17,-181.2 1221.87,-170.76 1236.84,-160.81"/>
<polygon fill="black" stroke="black" points="1239.16,-163.47 1245.55,-155.02 1235.28,-157.64 1239.16,-163.47"/>
</g>
<!-- 468 -->
<g id="node27" class="node">
<title>468</title>
<polygon fill="#c0c0c0" stroke="black" points="1119.5,-36 1065.5,-36 1065.5,0 1119.5,0 1119.5,-36"/>
<text text-anchor="middle" x="1092.5" y="-14.3" font-family="Times,serif" font-size="14.00">(...)</text>
</g>
<!-- 467&#45;&gt;468 -->
<g id="edge26" class="edge">
<title>467&#45;&gt;468</title>
<path fill="none" stroke="black" d="M1113.94,-71.76C1110.36,-62.94 1106.66,-53.84 1103.36,-45.72"/>
<polygon fill="black" stroke="black" points="1106.58,-44.35 1099.57,-36.41 1100.1,-46.99 1106.58,-44.35"/>
</g>
<!-- 495 -->
<g id="node28" class="node">
<title>495</title>
<polygon fill="#c0c0c0" stroke="black" points="1191.5,-36 1137.5,-36 1137.5,0 1191.5,0 1191.5,-36"/>
<text text-anchor="middle" x="1164.5" y="-14.3" font-family="Times,serif" font-size="14.00">(...)</text>
</g>
<!-- 467&#45;&gt;495 -->
<g id="edge27" class="edge">
<title>467&#45;&gt;495</title>
<path fill="none" stroke="black" d="M1145.31,-71.76C1148.48,-63.04 1151.76,-54.04 1154.68,-45.99"/>
<polygon fill="black" stroke="black" points="1158.04,-47 1158.17,-36.41 1151.46,-44.61 1158.04,-47"/>
</g>
<!-- 531 -->
<g id="node30" class="node">
<title>531</title>
<polygon fill="#c0c0c0" stroke="black" points="1297.5,-36 1243.5,-36 1243.5,0 1297.5,0 1297.5,-36"/>
<text text-anchor="middle" x="1270.5" y="-14.3" font-family="Times,serif" font-size="14.00">(...)</text>
</g>
<!-- 530&#45;&gt;531 -->
<g id="edge29" class="edge">
<title>530&#45;&gt;531</title>
<path fill="none" stroke="black" d="M1290.81,-71.76C1287.46,-63.04 1283.99,-54.04 1280.89,-45.99"/>
<polygon fill="black" stroke="black" points="1284.06,-44.48 1277.2,-36.41 1277.53,-46.99 1284.06,-44.48"/>
</g>
<!-- 562 -->
<g id="node31" class="node">
<title>562</title>
<polygon fill="#c0c0c0" stroke="black" points="1369.5,-36 1315.5,-36 1315.5,0 1369.5,0 1369.5,-36"/>
<text text-anchor="middle" x="1342.5" y="-14.3" font-family="Times,serif" font-size="14.00">(...)</text>
</g>
<!-- 530&#45;&gt;562 -->
<g id="edge30" class="edge">
<title>530&#45;&gt;562</title>
<path fill="none" stroke="black" d="M1322.19,-71.76C1325.54,-63.04 1329.01,-54.04 1332.11,-45.99"/>
<polygon fill="black" stroke="black" points="1335.47,-46.99 1335.8,-36.41 1328.94,-44.48 1335.47,-46.99"/>
</g>
</g>
</svg>
