<?xml version="1.0" encoding="UTF-8" standalone="no"?>
<!DOCTYPE svg PUBLIC "-//W3C//DTD SVG 1.1//EN"
 "http://www.w3.org/Graphics/SVG/1.1/DTD/svg11.dtd">
<!-- Generated by graphviz version 2.43.0 (0)
 -->
<!-- Title: Tree Pages: 1 -->
<svg width="2784pt" height="520pt"
 viewBox="0.00 0.00 2784.00 520.00" xmlns="http://www.w3.org/2000/svg" xmlns:xlink="http://www.w3.org/1999/xlink">
<g id="graph0" class="graph" transform="scale(1 1) rotate(0) translate(4 516)">
<title>Tree</title>
<polygon fill="white" stroke="transparent" points="-4,4 -4,-516 2780,-516 2780,4 -4,4"/>
<!-- 0 -->
<g id="node1" class="node">
<title>0</title>
<polygon fill="#ffffff" stroke="black" points="1493,-512 1101,-512 1101,-429 1493,-429 1493,-512"/>
<text text-anchor="middle" x="1297" y="-496.8" font-family="Times,serif" font-size="14.00">sdComm &lt;= 0.02</text>
<text text-anchor="middle" x="1297" y="-481.8" font-family="Times,serif" font-size="14.00">gini = 0.844</text>
<text text-anchor="middle" x="1297" y="-466.8" font-family="Times,serif" font-size="14.00">samples = 33378</text>
<text text-anchor="middle" x="1297" y="-451.8" font-family="Times,serif" font-size="14.00">value = [5864, 4338, 1413, 5146, 5628, 5097, 5892]</text>
<text text-anchor="middle" x="1297" y="-436.8" font-family="Times,serif" font-size="14.00">class = rkuad</text>
</g>
<!-- 1 -->
<g id="node2" class="node">
<title>1</title>
<polygon fill="#eef0fd" stroke="black" points="1133,-393 777,-393 777,-310 1133,-310 1133,-393"/>
<text text-anchor="middle" x="955" y="-377.8" font-family="Times,serif" font-size="14.00">nbproc &lt;= 4.5</text>
<text text-anchor="middle" x="955" y="-362.8" font-family="Times,serif" font-size="14.00">gini = 0.837</text>
<text text-anchor="middle" x="955" y="-347.8" font-family="Times,serif" font-size="14.00">samples = 6500</text>
<text text-anchor="middle" x="955" y="-332.8" font-family="Times,serif" font-size="14.00">value = [896, 636, 348, 1084, 1560, 1030, 946]</text>
<text text-anchor="middle" x="955" y="-317.8" font-family="Times,serif" font-size="14.00">class = cluHPS</text>
</g>
<!-- 0&#45;&gt;1 -->
<g id="edge1" class="edge">
<title>0&#45;&gt;1</title>
<path fill="none" stroke="black" d="M1178.34,-428.91C1147.57,-418.38 1114.3,-407 1083.07,-396.31"/>
<polygon fill="black" stroke="black" points="1084.04,-392.95 1073.45,-393.02 1081.77,-399.57 1084.04,-392.95"/>
<text text-anchor="middle" x="1084.45" y="-411.77" font-family="Times,serif" font-size="14.00">True</text>
</g>
<!-- 86 -->
<g id="node17" class="node">
<title>86</title>
<polygon fill="#ffffff" stroke="black" points="1865,-393 1473,-393 1473,-310 1865,-310 1865,-393"/>
<text text-anchor="middle" x="1669" y="-377.8" font-family="Times,serif" font-size="14.00">nbproc &lt;= 4.5</text>
<text text-anchor="middle" x="1669" y="-362.8" font-family="Times,serif" font-size="14.00">gini = 0.843</text>
<text text-anchor="middle" x="1669" y="-347.8" font-family="Times,serif" font-size="14.00">samples = 26878</text>
<text text-anchor="middle" x="1669" y="-332.8" font-family="Times,serif" font-size="14.00">value = [4968, 3702, 1065, 4062, 4068, 4067, 4946]</text>
<text text-anchor="middle" x="1669" y="-317.8" font-family="Times,serif" font-size="14.00">class = rku</text>
</g>
<!-- 0&#45;&gt;86 -->
<g id="edge16" class="edge">
<title>0&#45;&gt;86</title>
<path fill="none" stroke="black" d="M1425.8,-428.99C1459.58,-418.37 1496.13,-406.87 1530.4,-396.09"/>
<polygon fill="black" stroke="black" points="1531.5,-399.41 1539.99,-393.07 1529.4,-392.74 1531.5,-399.41"/>
<text text-anchor="middle" x="1528.43" y="-411.54" font-family="Times,serif" font-size="14.00">False</text>
</g>
<!-- 2 -->
<g id="node3" class="node">
<title>2</title>
<polygon fill="#fcfcff" stroke="black" points="622.5,-274 293.5,-274 293.5,-191 622.5,-191 622.5,-274"/>
<text text-anchor="middle" x="458" y="-258.8" font-family="Times,serif" font-size="14.00">sdComp &lt;= 0.065</text>
<text text-anchor="middle" x="458" y="-243.8" font-family="Times,serif" font-size="14.00">gini = 0.817</text>
<text text-anchor="middle" x="458" y="-228.8" font-family="Times,serif" font-size="14.00">samples = 1908</text>
<text text-anchor="middle" x="458" y="-213.8" font-family="Times,serif" font-size="14.00">value = [198, 120, 120, 470, 492, 310, 198]</text>
<text text-anchor="middle" x="458" y="-198.8" font-family="Times,serif" font-size="14.00">class = cluHPS</text>
</g>
<!-- 1&#45;&gt;2 -->
<g id="edge2" class="edge">
<title>1&#45;&gt;2</title>
<path fill="none" stroke="black" d="M782.92,-309.99C734.37,-298.56 681.52,-286.12 632.82,-274.65"/>
<polygon fill="black" stroke="black" points="633.35,-271.18 622.82,-272.3 631.75,-278 633.35,-271.18"/>
</g>
<!-- 41 -->
<g id="node10" class="node">
<title>41</title>
<polygon fill="#eff1fd" stroke="black" points="1124,-274 786,-274 786,-191 1124,-191 1124,-274"/>
<text text-anchor="middle" x="955" y="-258.8" font-family="Times,serif" font-size="14.00">graphDepth &lt;= 3.5</text>
<text text-anchor="middle" x="955" y="-243.8" font-family="Times,serif" font-size="14.00">gini = 0.839</text>
<text text-anchor="middle" x="955" y="-228.8" font-family="Times,serif" font-size="14.00">samples = 4592</text>
<text text-anchor="middle" x="955" y="-213.8" font-family="Times,serif" font-size="14.00">value = [698, 516, 228, 614, 1068, 720, 748]</text>
<text text-anchor="middle" x="955" y="-198.8" font-family="Times,serif" font-size="14.00">class = cluHPS</text>
</g>
<!-- 1&#45;&gt;41 -->
<g id="edge9" class="edge">
<title>1&#45;&gt;41</title>
<path fill="none" stroke="black" d="M955,-309.91C955,-301.65 955,-292.86 955,-284.3"/>
<polygon fill="black" stroke="black" points="958.5,-284.02 955,-274.02 951.5,-284.02 958.5,-284.02"/>
</g>
<!-- 3 -->
<g id="node4" class="node">
<title>3</title>
<polygon fill="#f6fefe" stroke="black" points="284,-155 0,-155 0,-72 284,-72 284,-155"/>
<text text-anchor="middle" x="142" y="-139.8" font-family="Times,serif" font-size="14.00">sdComp &lt;= 0.02</text>
<text text-anchor="middle" x="142" y="-124.8" font-family="Times,serif" font-size="14.00">gini = 0.813</text>
<text text-anchor="middle" x="142" y="-109.8" font-family="Times,serif" font-size="14.00">samples = 608</text>
<text text-anchor="middle" x="142" y="-94.8" font-family="Times,serif" font-size="14.00">value = [84, 24, 22, 160, 96, 138, 84]</text>
<text text-anchor="middle" x="142" y="-79.8" font-family="Times,serif" font-size="14.00">class = rkd</text>
</g>
<!-- 2&#45;&gt;3 -->
<g id="edge3" class="edge">
<title>2&#45;&gt;3</title>
<path fill="none" stroke="black" d="M348.37,-190.91C320.18,-180.47 289.72,-169.19 261.08,-158.59"/>
<polygon fill="black" stroke="black" points="262.03,-155.21 251.44,-155.02 259.6,-161.78 262.03,-155.21"/>
</g>
<!-- 26 -->
<g id="node7" class="node">
<title>26</title>
<polygon fill="#eef0fd" stroke="black" points="613.5,-155 302.5,-155 302.5,-72 613.5,-72 613.5,-155"/>
<text text-anchor="middle" x="458" y="-139.8" font-family="Times,serif" font-size="14.00">graphDepth &lt;= 3.5</text>
<text text-anchor="middle" x="458" y="-124.8" font-family="Times,serif" font-size="14.00">gini = 0.806</text>
<text text-anchor="middle" x="458" y="-109.8" font-family="Times,serif" font-size="14.00">samples = 1300</text>
<text text-anchor="middle" x="458" y="-94.8" font-family="Times,serif" font-size="14.00">value = [114, 96, 98, 310, 396, 172, 114]</text>
<text text-anchor="middle" x="458" y="-79.8" font-family="Times,serif" font-size="14.00">class = cluHPS</text>
</g>
<!-- 2&#45;&gt;26 -->
<g id="edge6" class="edge">
<title>2&#45;&gt;26</title>
<path fill="none" stroke="black" d="M458,-190.91C458,-182.65 458,-173.86 458,-165.3"/>
<polygon fill="black" stroke="black" points="461.5,-165.02 458,-155.02 454.5,-165.02 461.5,-165.02"/>
</g>
<!-- 4 -->
<g id="node5" class="node">
<title>4</title>
<polygon fill="#c0c0c0" stroke="black" points="133,-36 79,-36 79,0 133,0 133,-36"/>
<text text-anchor="middle" x="106" y="-14.3" font-family="Times,serif" font-size="14.00">(...)</text>
</g>
<!-- 3&#45;&gt;4 -->
<g id="edge4" class="edge">
<title>3&#45;&gt;4</title>
<path fill="none" stroke="black" d="M126.31,-71.76C122.96,-63.04 119.49,-54.04 116.39,-45.99"/>
<polygon fill="black" stroke="black" points="119.56,-44.48 112.7,-36.41 113.03,-46.99 119.56,-44.48"/>
</g>
<!-- 13 -->
<g id="node6" class="node">
<title>13</title>
<polygon fill="#c0c0c0" stroke="black" points="205,-36 151,-36 151,0 205,0 205,-36"/>
<text text-anchor="middle" x="178" y="-14.3" font-family="Times,serif" font-size="14.00">(...)</text>
</g>
<!-- 3&#45;&gt;13 -->
<g id="edge5" class="edge">
<title>3&#45;&gt;13</title>
<path fill="none" stroke="black" d="M157.69,-71.76C161.04,-63.04 164.51,-54.04 167.61,-45.99"/>
<polygon fill="black" stroke="black" points="170.97,-46.99 171.3,-36.41 164.44,-44.48 170.97,-46.99"/>
</g>
<!-- 27 -->
<g id="node8" class="node">
<title>27</title>
<polygon fill="#c0c0c0" stroke="black" points="449,-36 395,-36 395,0 449,0 449,-36"/>
<text text-anchor="middle" x="422" y="-14.3" font-family="Times,serif" font-size="14.00">(...)</text>
</g>
<!-- 26&#45;&gt;27 -->
<g id="edge7" class="edge">
<title>26&#45;&gt;27</title>
<path fill="none" stroke="black" d="M442.31,-71.76C438.96,-63.04 435.49,-54.04 432.39,-45.99"/>
<polygon fill="black" stroke="black" points="435.56,-44.48 428.7,-36.41 429.03,-46.99 435.56,-44.48"/>
</g>
<!-- 28 -->
<g id="node9" class="node">
<title>28</title>
<polygon fill="#c0c0c0" stroke="black" points="521,-36 467,-36 467,0 521,0 521,-36"/>
<text text-anchor="middle" x="494" y="-14.3" font-family="Times,serif" font-size="14.00">(...)</text>
</g>
<!-- 26&#45;&gt;28 -->
<g id="edge8" class="edge">
<title>26&#45;&gt;28</title>
<path fill="none" stroke="black" d="M473.69,-71.76C477.04,-63.04 480.51,-54.04 483.61,-45.99"/>
<polygon fill="black" stroke="black" points="486.97,-46.99 487.3,-36.41 480.44,-44.48 486.97,-46.99"/>
</g>
<!-- 42 -->
<g id="node11" class="node">
<title>42</title>
<polygon fill="#d1d8f9" stroke="black" points="942.5,-155 631.5,-155 631.5,-72 942.5,-72 942.5,-155"/>
<text text-anchor="middle" x="787" y="-139.8" font-family="Times,serif" font-size="14.00">sdComp &lt;= 0.065</text>
<text text-anchor="middle" x="787" y="-124.8" font-family="Times,serif" font-size="14.00">gini = 0.797</text>
<text text-anchor="middle" x="787" y="-109.8" font-family="Times,serif" font-size="14.00">samples = 1232</text>
<text text-anchor="middle" x="787" y="-94.8" font-family="Times,serif" font-size="14.00">value = [162, 96, 40, 148, 432, 190, 164]</text>
<text text-anchor="middle" x="787" y="-79.8" font-family="Times,serif" font-size="14.00">class = cluHPS</text>
</g>
<!-- 41&#45;&gt;42 -->
<g id="edge10" class="edge">
<title>41&#45;&gt;42</title>
<path fill="none" stroke="black" d="M896.71,-190.91C882.77,-181.2 867.78,-170.76 853.5,-160.81"/>
<polygon fill="black" stroke="black" points="855.39,-157.86 845.18,-155.02 851.39,-163.61 855.39,-157.86"/>
</g>
<!-- 47 -->
<g id="node14" class="node">
<title>47</title>
<polygon fill="#fbfcff" stroke="black" points="1289.5,-155 960.5,-155 960.5,-72 1289.5,-72 1289.5,-155"/>
<text text-anchor="middle" x="1125" y="-139.8" font-family="Times,serif" font-size="14.00">graphSize &lt;= 40.0</text>
<text text-anchor="middle" x="1125" y="-124.8" font-family="Times,serif" font-size="14.00">gini = 0.846</text>
<text text-anchor="middle" x="1125" y="-109.8" font-family="Times,serif" font-size="14.00">samples = 3360</text>
<text text-anchor="middle" x="1125" y="-94.8" font-family="Times,serif" font-size="14.00">value = [536, 420, 188, 466, 636, 530, 584]</text>
<text text-anchor="middle" x="1125" y="-79.8" font-family="Times,serif" font-size="14.00">class = cluHPS</text>
</g>
<!-- 41&#45;&gt;47 -->
<g id="edge13" class="edge">
<title>41&#45;&gt;47</title>
<path fill="none" stroke="black" d="M1013.98,-190.91C1028.09,-181.2 1043.26,-170.76 1057.71,-160.81"/>
<polygon fill="black" stroke="black" points="1059.87,-163.57 1066.12,-155.02 1055.9,-157.81 1059.87,-163.57"/>
</g>
<!-- 43 -->
<g id="node12" class="node">
<title>43</title>
<polygon fill="#c0c0c0" stroke="black" points="778,-36 724,-36 724,0 778,0 778,-36"/>
<text text-anchor="middle" x="751" y="-14.3" font-family="Times,serif" font-size="14.00">(...)</text>
</g>
<!-- 42&#45;&gt;43 -->
<g id="edge11" class="edge">
<title>42&#45;&gt;43</title>
<path fill="none" stroke="black" d="M771.31,-71.76C767.96,-63.04 764.49,-54.04 761.39,-45.99"/>
<polygon fill="black" stroke="black" points="764.56,-44.48 757.7,-36.41 758.03,-46.99 764.56,-44.48"/>
</g>
<!-- 46 -->
<g id="node13" class="node">
<title>46</title>
<polygon fill="#c0c0c0" stroke="black" points="850,-36 796,-36 796,0 850,0 850,-36"/>
<text text-anchor="middle" x="823" y="-14.3" font-family="Times,serif" font-size="14.00">(...)</text>
</g>
<!-- 42&#45;&gt;46 -->
<g id="edge12" class="edge">
<title>42&#45;&gt;46</title>
<path fill="none" stroke="black" d="M802.69,-71.76C806.04,-63.04 809.51,-54.04 812.61,-45.99"/>
<polygon fill="black" stroke="black" points="815.97,-46.99 816.3,-36.41 809.44,-44.48 815.97,-46.99"/>
</g>
<!-- 48 -->
<g id="node15" class="node">
<title>48</title>
<polygon fill="#c0c0c0" stroke="black" points="1116,-36 1062,-36 1062,0 1116,0 1116,-36"/>
<text text-anchor="middle" x="1089" y="-14.3" font-family="Times,serif" font-size="14.00">(...)</text>
</g>
<!-- 47&#45;&gt;48 -->
<g id="edge14" class="edge">
<title>47&#45;&gt;48</title>
<path fill="none" stroke="black" d="M1109.31,-71.76C1105.96,-63.04 1102.49,-54.04 1099.39,-45.99"/>
<polygon fill="black" stroke="black" points="1102.56,-44.48 1095.7,-36.41 1096.03,-46.99 1102.56,-44.48"/>
</g>
<!-- 65 -->
<g id="node16" class="node">
<title>65</title>
<polygon fill="#c0c0c0" stroke="black" points="1188,-36 1134,-36 1134,0 1188,0 1188,-36"/>
<text text-anchor="middle" x="1161" y="-14.3" font-family="Times,serif" font-size="14.00">(...)</text>
</g>
<!-- 47&#45;&gt;65 -->
<g id="edge15" class="edge">
<title>47&#45;&gt;65</title>
<path fill="none" stroke="black" d="M1140.69,-71.76C1144.04,-63.04 1147.51,-54.04 1150.61,-45.99"/>
<polygon fill="black" stroke="black" points="1153.97,-46.99 1154.3,-36.41 1147.44,-44.48 1153.97,-46.99"/>
</g>
<!-- 87 -->
<g id="node18" class="node">
<title>87</title>
<polygon fill="#f6f7fe" stroke="black" points="1860.5,-274 1477.5,-274 1477.5,-191 1860.5,-191 1860.5,-274"/>
<text text-anchor="middle" x="1669" y="-258.8" font-family="Times,serif" font-size="14.00">graphDepth &lt;= 6.5</text>
<text text-anchor="middle" x="1669" y="-243.8" font-family="Times,serif" font-size="14.00">gini = 0.841</text>
<text text-anchor="middle" x="1669" y="-228.8" font-family="Times,serif" font-size="14.00">samples = 10678</text>
<text text-anchor="middle" x="1669" y="-213.8" font-family="Times,serif" font-size="14.00">value = [1784, 1404, 407, 1690, 2184, 1477, 1732]</text>
<text text-anchor="middle" x="1669" y="-198.8" font-family="Times,serif" font-size="14.00">class = cluHPS</text>
</g>
<!-- 86&#45;&gt;87 -->
<g id="edge17" class="edge">
<title>86&#45;&gt;87</title>
<path fill="none" stroke="black" d="M1669,-309.91C1669,-301.65 1669,-292.86 1669,-284.3"/>
<polygon fill="black" stroke="black" points="1672.5,-284.02 1669,-274.02 1665.5,-284.02 1672.5,-284.02"/>
</g>
<!-- 402 -->
<g id="node25" class="node">
<title>402</title>
<polygon fill="#ffffff" stroke="black" points="2437.5,-274 2054.5,-274 2054.5,-191 2437.5,-191 2437.5,-274"/>
<text text-anchor="middle" x="2246" y="-258.8" font-family="Times,serif" font-size="14.00">graphSize &lt;= 75.0</text>
<text text-anchor="middle" x="2246" y="-243.8" font-family="Times,serif" font-size="14.00">gini = 0.84</text>
<text text-anchor="middle" x="2246" y="-228.8" font-family="Times,serif" font-size="14.00">samples = 16200</text>
<text text-anchor="middle" x="2246" y="-213.8" font-family="Times,serif" font-size="14.00">value = [3184, 2298, 658, 2372, 1884, 2590, 3214]</text>
<text text-anchor="middle" x="2246" y="-198.8" font-family="Times,serif" font-size="14.00">class = rkuad</text>
</g>
<!-- 86&#45;&gt;402 -->
<g id="edge24" class="edge">
<title>86&#45;&gt;402</title>
<path fill="none" stroke="black" d="M1865.15,-310.73C1922.9,-299.02 1986.18,-286.19 2044.27,-274.4"/>
<polygon fill="black" stroke="black" points="2045.2,-277.79 2054.3,-272.37 2043.8,-270.93 2045.2,-277.79"/>
</g>
<!-- 88 -->
<g id="node19" class="node">
<title>88</title>
<polygon fill="#fffefd" stroke="black" points="1681,-155 1307,-155 1307,-72 1681,-72 1681,-155"/>
<text text-anchor="middle" x="1494" y="-139.8" font-family="Times,serif" font-size="14.00">CCR &lt;= 5.5</text>
<text text-anchor="middle" x="1494" y="-124.8" font-family="Times,serif" font-size="14.00">gini = 0.84</text>
<text text-anchor="middle" x="1494" y="-109.8" font-family="Times,serif" font-size="14.00">samples = 6708</text>
<text text-anchor="middle" x="1494" y="-94.8" font-family="Times,serif" font-size="14.00">value = [1258, 936, 191, 1046, 1032, 1037, 1208]</text>
<text text-anchor="middle" x="1494" y="-79.8" font-family="Times,serif" font-size="14.00">class = rku</text>
</g>
<!-- 87&#45;&gt;88 -->
<g id="edge18" class="edge">
<title>87&#45;&gt;88</title>
<path fill="none" stroke="black" d="M1608.28,-190.91C1593.76,-181.2 1578.15,-170.76 1563.27,-160.81"/>
<polygon fill="black" stroke="black" points="1564.87,-157.67 1554.61,-155.02 1560.98,-163.49 1564.87,-157.67"/>
</g>
<!-- 217 -->
<g id="node22" class="node">
<title>217</title>
<polygon fill="#e1e5fb" stroke="black" points="2037,-155 1699,-155 1699,-72 2037,-72 2037,-155"/>
<text text-anchor="middle" x="1868" y="-139.8" font-family="Times,serif" font-size="14.00">sdComm &lt;= 0.065</text>
<text text-anchor="middle" x="1868" y="-124.8" font-family="Times,serif" font-size="14.00">gini = 0.825</text>
<text text-anchor="middle" x="1868" y="-109.8" font-family="Times,serif" font-size="14.00">samples = 3970</text>
<text text-anchor="middle" x="1868" y="-94.8" font-family="Times,serif" font-size="14.00">value = [526, 468, 216, 644, 1152, 440, 524]</text>
<text text-anchor="middle" x="1868" y="-79.8" font-family="Times,serif" font-size="14.00">class = cluHPS</text>
</g>
<!-- 87&#45;&gt;217 -->
<g id="edge21" class="edge">
<title>87&#45;&gt;217</title>
<path fill="none" stroke="black" d="M1738.04,-190.91C1754.87,-181.02 1772.98,-170.37 1790.18,-160.25"/>
<polygon fill="black" stroke="black" points="1792.23,-163.11 1799.08,-155.02 1788.69,-157.07 1792.23,-163.11"/>
</g>
<!-- 89 -->
<g id="node20" class="node">
<title>89</title>
<polygon fill="#c0c0c0" stroke="black" points="1485,-36 1431,-36 1431,0 1485,0 1485,-36"/>
<text text-anchor="middle" x="1458" y="-14.3" font-family="Times,serif" font-size="14.00">(...)</text>
</g>
<!-- 88&#45;&gt;89 -->
<g id="edge19" class="edge">
<title>88&#45;&gt;89</title>
<path fill="none" stroke="black" d="M1478.31,-71.76C1474.96,-63.04 1471.49,-54.04 1468.39,-45.99"/>
<polygon fill="black" stroke="black" points="1471.56,-44.48 1464.7,-36.41 1465.03,-46.99 1471.56,-44.48"/>
</g>
<!-- 168 -->
<g id="node21" class="node">
<title>168</title>
<polygon fill="#c0c0c0" stroke="black" points="1557,-36 1503,-36 1503,0 1557,0 1557,-36"/>
<text text-anchor="middle" x="1530" y="-14.3" font-family="Times,serif" font-size="14.00">(...)</text>
</g>
<!-- 88&#45;&gt;168 -->
<g id="edge20" class="edge">
<title>88&#45;&gt;168</title>
<path fill="none" stroke="black" d="M1509.69,-71.76C1513.04,-63.04 1516.51,-54.04 1519.61,-45.99"/>
<polygon fill="black" stroke="black" points="1522.97,-46.99 1523.3,-36.41 1516.44,-44.48 1522.97,-46.99"/>
</g>
<!-- 218 -->
<g id="node23" class="node">
<title>218</title>
<polygon fill="#c0c0c0" stroke="black" points="1859,-36 1805,-36 1805,0 1859,0 1859,-36"/>
<text text-anchor="middle" x="1832" y="-14.3" font-family="Times,serif" font-size="14.00">(...)</text>
</g>
<!-- 217&#45;&gt;218 -->
<g id="edge22" class="edge">
<title>217&#45;&gt;218</title>
<path fill="none" stroke="black" d="M1852.31,-71.76C1848.96,-63.04 1845.49,-54.04 1842.39,-45.99"/>
<polygon fill="black" stroke="black" points="1845.56,-44.48 1838.7,-36.41 1839.03,-46.99 1845.56,-44.48"/>
</g>
<!-- 239 -->
<g id="node24" class="node">
<title>239</title>
<polygon fill="#c0c0c0" stroke="black" points="1931,-36 1877,-36 1877,0 1931,0 1931,-36"/>
<text text-anchor="middle" x="1904" y="-14.3" font-family="Times,serif" font-size="14.00">(...)</text>
</g>
<!-- 217&#45;&gt;239 -->
<g id="edge23" class="edge">
<title>217&#45;&gt;239</title>
<path fill="none" stroke="black" d="M1883.69,-71.76C1887.04,-63.04 1890.51,-54.04 1893.61,-45.99"/>
<polygon fill="black" stroke="black" points="1896.97,-46.99 1897.3,-36.41 1890.44,-44.48 1896.97,-46.99"/>
</g>
<!-- 403 -->
<g id="node26" class="node">
<title>403</title>
<polygon fill="#fffeff" stroke="black" points="2437.5,-155 2054.5,-155 2054.5,-72 2437.5,-72 2437.5,-155"/>
<text text-anchor="middle" x="2246" y="-139.8" font-family="Times,serif" font-size="14.00">sdComp &lt;= 6.5</text>
<text text-anchor="middle" x="2246" y="-124.8" font-family="Times,serif" font-size="14.00">gini = 0.841</text>
<text text-anchor="middle" x="2246" y="-109.8" font-family="Times,serif" font-size="14.00">samples = 14492</text>
<text text-anchor="middle" x="2246" y="-94.8" font-family="Times,serif" font-size="14.00">value = [2740, 2082, 568, 2212, 1752, 2362, 2776]</text>
<text text-anchor="middle" x="2246" y="-79.8" font-family="Times,serif" font-size="14.00">class = rkuad</text>
</g>
<!-- 402&#45;&gt;403 -->
<g id="edge25" class="edge">
<title>402&#45;&gt;403</title>
<path fill="none" stroke="black" d="M2246,-190.91C2246,-182.65 2246,-173.86 2246,-165.3"/>
<polygon fill="black" stroke="black" points="2249.5,-165.02 2246,-155.02 2242.5,-165.02 2249.5,-165.02"/>
</g>
<!-- 648 -->
<g id="node29" class="node">
<title>648</title>
<polygon fill="#fffefe" stroke="black" points="2776,-155 2456,-155 2456,-72 2776,-72 2776,-155"/>
<text text-anchor="middle" x="2616" y="-139.8" font-family="Times,serif" font-size="14.00">sdComm &lt;= 0.065</text>
<text text-anchor="middle" x="2616" y="-124.8" font-family="Times,serif" font-size="14.00">gini = 0.815</text>
<text text-anchor="middle" x="2616" y="-109.8" font-family="Times,serif" font-size="14.00">samples = 1708</text>
<text text-anchor="middle" x="2616" y="-94.8" font-family="Times,serif" font-size="14.00">value = [444, 216, 90, 160, 132, 228, 438]</text>
<text text-anchor="middle" x="2616" y="-79.8" font-family="Times,serif" font-size="14.00">class = rku</text>
</g>
<!-- 402&#45;&gt;648 -->
<g id="edge28" class="edge">
<title>402&#45;&gt;648</title>
<path fill="none" stroke="black" d="M2374.11,-190.99C2407.7,-180.37 2444.06,-168.87 2478.14,-158.09"/>
<polygon fill="black" stroke="black" points="2479.21,-161.43 2487.69,-155.07 2477.1,-154.75 2479.21,-161.43"/>
</g>
<!-- 404 -->
<g id="node27" class="node">
<title>404</title>
<polygon fill="#c0c0c0" stroke="black" points="2237,-36 2183,-36 2183,0 2237,0 2237,-36"/>
<text text-anchor="middle" x="2210" y="-14.3" font-family="Times,serif" font-size="14.00">(...)</text>
</g>
<!-- 403&#45;&gt;404 -->
<g id="edge26" class="edge">
<title>403&#45;&gt;404</title>
<path fill="none" stroke="black" d="M2230.31,-71.76C2226.96,-63.04 2223.49,-54.04 2220.39,-45.99"/>
<polygon fill="black" stroke="black" points="2223.56,-44.48 2216.7,-36.41 2217.03,-46.99 2223.56,-44.48"/>
</g>
<!-- 621 -->
<g id="node28" class="node">
<title>621</title>
<polygon fill="#c0c0c0" stroke="black" points="2309,-36 2255,-36 2255,0 2309,0 2309,-36"/>
<text text-anchor="middle" x="2282" y="-14.3" font-family="Times,serif" font-size="14.00">(...)</text>
</g>
<!-- 403&#45;&gt;621 -->
<g id="edge27" class="edge">
<title>403&#45;&gt;621</title>
<path fill="none" stroke="black" d="M2261.69,-71.76C2265.04,-63.04 2268.51,-54.04 2271.61,-45.99"/>
<polygon fill="black" stroke="black" points="2274.97,-46.99 2275.3,-36.41 2268.44,-44.48 2274.97,-46.99"/>
</g>
<!-- 649 -->
<g id="node30" class="node">
<title>649</title>
<polygon fill="#c0c0c0" stroke="black" points="2607,-36 2553,-36 2553,0 2607,0 2607,-36"/>
<text text-anchor="middle" x="2580" y="-14.3" font-family="Times,serif" font-size="14.00">(...)</text>
</g>
<!-- 648&#45;&gt;649 -->
<g id="edge29" class="edge">
<title>648&#45;&gt;649</title>
<path fill="none" stroke="black" d="M2600.31,-71.76C2596.96,-63.04 2593.49,-54.04 2590.39,-45.99"/>
<polygon fill="black" stroke="black" points="2593.56,-44.48 2586.7,-36.41 2587.03,-46.99 2593.56,-44.48"/>
</g>
<!-- 658 -->
<g id="node31" class="node">
<title>658</title>
<polygon fill="#c0c0c0" stroke="black" points="2679,-36 2625,-36 2625,0 2679,0 2679,-36"/>
<text text-anchor="middle" x="2652" y="-14.3" font-family="Times,serif" font-size="14.00">(...)</text>
</g>
<!-- 648&#45;&gt;658 -->
<g id="edge30" class="edge">
<title>648&#45;&gt;658</title>
<path fill="none" stroke="black" d="M2631.69,-71.76C2635.04,-63.04 2638.51,-54.04 2641.61,-45.99"/>
<polygon fill="black" stroke="black" points="2644.97,-46.99 2645.3,-36.41 2638.44,-44.48 2644.97,-46.99"/>
</g>
</g>
</svg>
