<?xml version="1.0" encoding="UTF-8" standalone="no"?>
<!DOCTYPE svg PUBLIC "-//W3C//DTD SVG 1.1//EN"
 "http://www.w3.org/Graphics/SVG/1.1/DTD/svg11.dtd">
<!-- Generated by graphviz version 2.43.0 (0)
 -->
<!-- Title: Tree Pages: 1 -->
<svg width="1595pt" height="520pt"
 viewBox="0.00 0.00 1595.00 520.00" xmlns="http://www.w3.org/2000/svg" xmlns:xlink="http://www.w3.org/1999/xlink">
<g id="graph0" class="graph" transform="scale(1 1) rotate(0) translate(4 516)">
<title>Tree</title>
<polygon fill="white" stroke="transparent" points="-4,4 -4,-516 1591,-516 1591,4 -4,4"/>
<!-- 0 -->
<g id="node1" class="node">
<title>0</title>
<polygon fill="#bef6d6" stroke="black" points="919.5,-512 698.5,-512 698.5,-429 919.5,-429 919.5,-512"/>
<text text-anchor="middle" x="809" y="-496.8" font-family="Times,serif" font-size="14.00">CCR &lt;= 5.5</text>
<text text-anchor="middle" x="809" y="-481.8" font-family="Times,serif" font-size="14.00">gini = 0.612</text>
<text text-anchor="middle" x="809" y="-466.8" font-family="Times,serif" font-size="14.00">samples = 33378</text>
<text text-anchor="middle" x="809" y="-451.8" font-family="Times,serif" font-size="14.00">value = [6650, 17289, 9439]</text>
<text text-anchor="middle" x="809" y="-436.8" font-family="Times,serif" font-size="14.00">class = DCP</text>
</g>
<!-- 1 -->
<g id="node2" class="node">
<title>1</title>
<polygon fill="#8af0b5" stroke="black" points="725.5,-393 504.5,-393 504.5,-310 725.5,-310 725.5,-393"/>
<text text-anchor="middle" x="615" y="-377.8" font-family="Times,serif" font-size="14.00">sdComp &lt;= 0.2</text>
<text text-anchor="middle" x="615" y="-362.8" font-family="Times,serif" font-size="14.00">gini = 0.448</text>
<text text-anchor="middle" x="615" y="-347.8" font-family="Times,serif" font-size="14.00">samples = 23926</text>
<text text-anchor="middle" x="615" y="-332.8" font-family="Times,serif" font-size="14.00">value = [6174, 16639, 1113]</text>
<text text-anchor="middle" x="615" y="-317.8" font-family="Times,serif" font-size="14.00">class = DCP</text>
</g>
<!-- 0&#45;&gt;1 -->
<g id="edge1" class="edge">
<title>0&#45;&gt;1</title>
<path fill="none" stroke="black" d="M741.69,-428.91C725.29,-419.02 707.64,-408.37 690.87,-398.25"/>
<polygon fill="black" stroke="black" points="692.56,-395.19 682.19,-393.02 688.94,-401.18 692.56,-395.19"/>
<text text-anchor="middle" x="688.2" y="-413.59" font-family="Times,serif" font-size="14.00">True</text>
</g>
<!-- 378 -->
<g id="node17" class="node">
<title>378</title>
<polygon fill="#9152e8" stroke="black" points="1102,-393 908,-393 908,-310 1102,-310 1102,-393"/>
<text text-anchor="middle" x="1005" y="-377.8" font-family="Times,serif" font-size="14.00">graphSize &lt;= 22.5</text>
<text text-anchor="middle" x="1005" y="-362.8" font-family="Times,serif" font-size="14.00">gini = 0.217</text>
<text text-anchor="middle" x="1005" y="-347.8" font-family="Times,serif" font-size="14.00">samples = 9452</text>
<text text-anchor="middle" x="1005" y="-332.8" font-family="Times,serif" font-size="14.00">value = [476, 650, 8326]</text>
<text text-anchor="middle" x="1005" y="-317.8" font-family="Times,serif" font-size="14.00">class = None</text>
</g>
<!-- 0&#45;&gt;378 -->
<g id="edge16" class="edge">
<title>0&#45;&gt;378</title>
<path fill="none" stroke="black" d="M877,-428.91C893.57,-419.02 911.41,-408.37 928.35,-398.25"/>
<polygon fill="black" stroke="black" points="930.33,-401.15 937.12,-393.02 926.74,-395.14 930.33,-401.15"/>
<text text-anchor="middle" x="931" y="-413.56" font-family="Times,serif" font-size="14.00">False</text>
</g>
<!-- 2 -->
<g id="node3" class="node">
<title>2</title>
<polygon fill="#9ef2c1" stroke="black" points="424,-274 212,-274 212,-191 424,-191 424,-274"/>
<text text-anchor="middle" x="318" y="-258.8" font-family="Times,serif" font-size="14.00">sdComp &lt;= 0.02</text>
<text text-anchor="middle" x="318" y="-243.8" font-family="Times,serif" font-size="14.00">gini = 0.478</text>
<text text-anchor="middle" x="318" y="-228.8" font-family="Times,serif" font-size="14.00">samples = 19442</text>
<text text-anchor="middle" x="318" y="-213.8" font-family="Times,serif" font-size="14.00">value = [6082, 12640, 720]</text>
<text text-anchor="middle" x="318" y="-198.8" font-family="Times,serif" font-size="14.00">class = DCP</text>
</g>
<!-- 1&#45;&gt;2 -->
<g id="edge2" class="edge">
<title>1&#45;&gt;2</title>
<path fill="none" stroke="black" d="M511.96,-309.91C485.58,-299.52 457.09,-288.29 430.27,-277.73"/>
<polygon fill="black" stroke="black" points="431.45,-274.43 420.86,-274.02 428.88,-280.94 431.45,-274.43"/>
</g>
<!-- 281 -->
<g id="node10" class="node">
<title>281</title>
<polygon fill="#50e890" stroke="black" points="707.5,-274 522.5,-274 522.5,-191 707.5,-191 707.5,-274"/>
<text text-anchor="middle" x="615" y="-258.8" font-family="Times,serif" font-size="14.00">graphDepth &lt;= 3.5</text>
<text text-anchor="middle" x="615" y="-243.8" font-family="Times,serif" font-size="14.00">gini = 0.197</text>
<text text-anchor="middle" x="615" y="-228.8" font-family="Times,serif" font-size="14.00">samples = 4484</text>
<text text-anchor="middle" x="615" y="-213.8" font-family="Times,serif" font-size="14.00">value = [92, 3999, 393]</text>
<text text-anchor="middle" x="615" y="-198.8" font-family="Times,serif" font-size="14.00">class = DCP</text>
</g>
<!-- 1&#45;&gt;281 -->
<g id="edge9" class="edge">
<title>1&#45;&gt;281</title>
<path fill="none" stroke="black" d="M615,-309.91C615,-301.65 615,-292.86 615,-284.3"/>
<polygon fill="black" stroke="black" points="618.5,-284.02 615,-274.02 611.5,-284.02 618.5,-284.02"/>
</g>
<!-- 3 -->
<g id="node4" class="node">
<title>3</title>
<polygon fill="#69eb9f" stroke="black" points="194,-155 0,-155 0,-72 194,-72 194,-155"/>
<text text-anchor="middle" x="97" y="-139.8" font-family="Times,serif" font-size="14.00">nbproc &lt;= 4.5</text>
<text text-anchor="middle" x="97" y="-124.8" font-family="Times,serif" font-size="14.00">gini = 0.352</text>
<text text-anchor="middle" x="97" y="-109.8" font-family="Times,serif" font-size="14.00">samples = 2054</text>
<text text-anchor="middle" x="97" y="-94.8" font-family="Times,serif" font-size="14.00">value = [164, 1624, 266]</text>
<text text-anchor="middle" x="97" y="-79.8" font-family="Times,serif" font-size="14.00">class = DCP</text>
</g>
<!-- 2&#45;&gt;3 -->
<g id="edge3" class="edge">
<title>2&#45;&gt;3</title>
<path fill="none" stroke="black" d="M241.33,-190.91C222.38,-180.88 201.97,-170.07 182.64,-159.84"/>
<polygon fill="black" stroke="black" points="184.01,-156.61 173.54,-155.02 180.74,-162.79 184.01,-156.61"/>
</g>
<!-- 68 -->
<g id="node7" class="node">
<title>68</title>
<polygon fill="#a7f3c7" stroke="black" points="424,-155 212,-155 212,-72 424,-72 424,-155"/>
<text text-anchor="middle" x="318" y="-139.8" font-family="Times,serif" font-size="14.00">sdComm &lt;= 0.065</text>
<text text-anchor="middle" x="318" y="-124.8" font-family="Times,serif" font-size="14.00">gini = 0.482</text>
<text text-anchor="middle" x="318" y="-109.8" font-family="Times,serif" font-size="14.00">samples = 17388</text>
<text text-anchor="middle" x="318" y="-94.8" font-family="Times,serif" font-size="14.00">value = [5918, 11016, 454]</text>
<text text-anchor="middle" x="318" y="-79.8" font-family="Times,serif" font-size="14.00">class = DCP</text>
</g>
<!-- 2&#45;&gt;68 -->
<g id="edge6" class="edge">
<title>2&#45;&gt;68</title>
<path fill="none" stroke="black" d="M318,-190.91C318,-182.65 318,-173.86 318,-165.3"/>
<polygon fill="black" stroke="black" points="321.5,-165.02 318,-155.02 314.5,-165.02 321.5,-165.02"/>
</g>
<!-- 4 -->
<g id="node5" class="node">
<title>4</title>
<polygon fill="#c0c0c0" stroke="black" points="88,-36 34,-36 34,0 88,0 88,-36"/>
<text text-anchor="middle" x="61" y="-14.3" font-family="Times,serif" font-size="14.00">(...)</text>
</g>
<!-- 3&#45;&gt;4 -->
<g id="edge4" class="edge">
<title>3&#45;&gt;4</title>
<path fill="none" stroke="black" d="M81.31,-71.76C77.96,-63.04 74.49,-54.04 71.39,-45.99"/>
<polygon fill="black" stroke="black" points="74.56,-44.48 67.7,-36.41 68.03,-46.99 74.56,-44.48"/>
</g>
<!-- 33 -->
<g id="node6" class="node">
<title>33</title>
<polygon fill="#c0c0c0" stroke="black" points="160,-36 106,-36 106,0 160,0 160,-36"/>
<text text-anchor="middle" x="133" y="-14.3" font-family="Times,serif" font-size="14.00">(...)</text>
</g>
<!-- 3&#45;&gt;33 -->
<g id="edge5" class="edge">
<title>3&#45;&gt;33</title>
<path fill="none" stroke="black" d="M112.69,-71.76C116.04,-63.04 119.51,-54.04 122.61,-45.99"/>
<polygon fill="black" stroke="black" points="125.97,-46.99 126.3,-36.41 119.44,-44.48 125.97,-46.99"/>
</g>
<!-- 69 -->
<g id="node8" class="node">
<title>69</title>
<polygon fill="#c0c0c0" stroke="black" points="307,-36 253,-36 253,0 307,0 307,-36"/>
<text text-anchor="middle" x="280" y="-14.3" font-family="Times,serif" font-size="14.00">(...)</text>
</g>
<!-- 68&#45;&gt;69 -->
<g id="edge7" class="edge">
<title>68&#45;&gt;69</title>
<path fill="none" stroke="black" d="M301.44,-71.76C297.86,-62.94 294.16,-53.84 290.86,-45.72"/>
<polygon fill="black" stroke="black" points="294.08,-44.35 287.07,-36.41 287.6,-46.99 294.08,-44.35"/>
</g>
<!-- 182 -->
<g id="node9" class="node">
<title>182</title>
<polygon fill="#c0c0c0" stroke="black" points="379,-36 325,-36 325,0 379,0 379,-36"/>
<text text-anchor="middle" x="352" y="-14.3" font-family="Times,serif" font-size="14.00">(...)</text>
</g>
<!-- 68&#45;&gt;182 -->
<g id="edge8" class="edge">
<title>68&#45;&gt;182</title>
<path fill="none" stroke="black" d="M332.81,-71.76C335.98,-63.04 339.26,-54.04 342.18,-45.99"/>
<polygon fill="black" stroke="black" points="345.54,-47 345.67,-36.41 338.96,-44.61 345.54,-47"/>
</g>
<!-- 282 -->
<g id="node11" class="node">
<title>282</title>
<polygon fill="#7ceeac" stroke="black" points="618,-155 442,-155 442,-72 618,-72 618,-155"/>
<text text-anchor="middle" x="530" y="-139.8" font-family="Times,serif" font-size="14.00">sdComp &lt;= 0.65</text>
<text text-anchor="middle" x="530" y="-124.8" font-family="Times,serif" font-size="14.00">gini = 0.423</text>
<text text-anchor="middle" x="530" y="-109.8" font-family="Times,serif" font-size="14.00">samples = 1143</text>
<text text-anchor="middle" x="530" y="-94.8" font-family="Times,serif" font-size="14.00">value = [82, 834, 227]</text>
<text text-anchor="middle" x="530" y="-79.8" font-family="Times,serif" font-size="14.00">class = DCP</text>
</g>
<!-- 281&#45;&gt;282 -->
<g id="edge10" class="edge">
<title>281&#45;&gt;282</title>
<path fill="none" stroke="black" d="M585.51,-190.91C579.05,-182.01 572.14,-172.51 565.48,-163.33"/>
<polygon fill="black" stroke="black" points="568.15,-161.05 559.44,-155.02 562.48,-165.17 568.15,-161.05"/>
</g>
<!-- 303 -->
<g id="node14" class="node">
<title>303</title>
<polygon fill="#44e688" stroke="black" points="820.5,-155 635.5,-155 635.5,-72 820.5,-72 820.5,-155"/>
<text text-anchor="middle" x="728" y="-139.8" font-family="Times,serif" font-size="14.00">graphSize &lt;= 40.0</text>
<text text-anchor="middle" x="728" y="-124.8" font-family="Times,serif" font-size="14.00">gini = 0.1</text>
<text text-anchor="middle" x="728" y="-109.8" font-family="Times,serif" font-size="14.00">samples = 3341</text>
<text text-anchor="middle" x="728" y="-94.8" font-family="Times,serif" font-size="14.00">value = [10, 3165, 166]</text>
<text text-anchor="middle" x="728" y="-79.8" font-family="Times,serif" font-size="14.00">class = DCP</text>
</g>
<!-- 281&#45;&gt;303 -->
<g id="edge13" class="edge">
<title>281&#45;&gt;303</title>
<path fill="none" stroke="black" d="M654.2,-190.91C663.06,-181.74 672.54,-171.93 681.65,-162.49"/>
<polygon fill="black" stroke="black" points="684.43,-164.65 688.86,-155.02 679.4,-159.78 684.43,-164.65"/>
</g>
<!-- 283 -->
<g id="node12" class="node">
<title>283</title>
<polygon fill="#c0c0c0" stroke="black" points="512,-36 458,-36 458,0 512,0 512,-36"/>
<text text-anchor="middle" x="485" y="-14.3" font-family="Times,serif" font-size="14.00">(...)</text>
</g>
<!-- 282&#45;&gt;283 -->
<g id="edge11" class="edge">
<title>282&#45;&gt;283</title>
<path fill="none" stroke="black" d="M510.39,-71.76C506.1,-62.85 501.67,-53.64 497.73,-45.46"/>
<polygon fill="black" stroke="black" points="500.87,-43.9 493.38,-36.41 494.56,-46.93 500.87,-43.9"/>
</g>
<!-- 292 -->
<g id="node13" class="node">
<title>292</title>
<polygon fill="#c0c0c0" stroke="black" points="584,-36 530,-36 530,0 584,0 584,-36"/>
<text text-anchor="middle" x="557" y="-14.3" font-family="Times,serif" font-size="14.00">(...)</text>
</g>
<!-- 282&#45;&gt;292 -->
<g id="edge12" class="edge">
<title>282&#45;&gt;292</title>
<path fill="none" stroke="black" d="M541.76,-71.76C544.25,-63.14 546.82,-54.24 549.13,-46.26"/>
<polygon fill="black" stroke="black" points="552.56,-46.98 551.97,-36.41 545.84,-45.04 552.56,-46.98"/>
</g>
<!-- 304 -->
<g id="node15" class="node">
<title>304</title>
<polygon fill="#c0c0c0" stroke="black" points="708,-36 654,-36 654,0 708,0 708,-36"/>
<text text-anchor="middle" x="681" y="-14.3" font-family="Times,serif" font-size="14.00">(...)</text>
</g>
<!-- 303&#45;&gt;304 -->
<g id="edge14" class="edge">
<title>303&#45;&gt;304</title>
<path fill="none" stroke="black" d="M707.52,-71.76C703.04,-62.85 698.41,-53.64 694.3,-45.46"/>
<polygon fill="black" stroke="black" points="697.37,-43.77 689.75,-36.41 691.11,-46.91 697.37,-43.77"/>
</g>
<!-- 359 -->
<g id="node16" class="node">
<title>359</title>
<polygon fill="#c0c0c0" stroke="black" points="780,-36 726,-36 726,0 780,0 780,-36"/>
<text text-anchor="middle" x="753" y="-14.3" font-family="Times,serif" font-size="14.00">(...)</text>
</g>
<!-- 303&#45;&gt;359 -->
<g id="edge15" class="edge">
<title>303&#45;&gt;359</title>
<path fill="none" stroke="black" d="M738.89,-71.76C741.2,-63.14 743.58,-54.24 745.71,-46.26"/>
<polygon fill="black" stroke="black" points="749.14,-46.97 748.35,-36.41 742.38,-45.16 749.14,-46.97"/>
</g>
<!-- 379 -->
<g id="node18" class="node">
<title>379</title>
<polygon fill="#a16bec" stroke="black" points="1102,-274 908,-274 908,-191 1102,-191 1102,-274"/>
<text text-anchor="middle" x="1005" y="-258.8" font-family="Times,serif" font-size="14.00">sdComm &lt;= 2.0</text>
<text text-anchor="middle" x="1005" y="-243.8" font-family="Times,serif" font-size="14.00">gini = 0.369</text>
<text text-anchor="middle" x="1005" y="-228.8" font-family="Times,serif" font-size="14.00">samples = 3404</text>
<text text-anchor="middle" x="1005" y="-213.8" font-family="Times,serif" font-size="14.00">value = [348, 406, 2650]</text>
<text text-anchor="middle" x="1005" y="-198.8" font-family="Times,serif" font-size="14.00">class = None</text>
</g>
<!-- 378&#45;&gt;379 -->
<g id="edge17" class="edge">
<title>378&#45;&gt;379</title>
<path fill="none" stroke="black" d="M1005,-309.91C1005,-301.65 1005,-292.86 1005,-284.3"/>
<polygon fill="black" stroke="black" points="1008.5,-284.02 1005,-274.02 1001.5,-284.02 1008.5,-284.02"/>
</g>
<!-- 414 -->
<g id="node25" class="node">
<title>414</title>
<polygon fill="#8946e7" stroke="black" points="1398,-274 1204,-274 1204,-191 1398,-191 1398,-274"/>
<text text-anchor="middle" x="1301" y="-258.8" font-family="Times,serif" font-size="14.00">graphDepth &lt;= 9.0</text>
<text text-anchor="middle" x="1301" y="-243.8" font-family="Times,serif" font-size="14.00">gini = 0.117</text>
<text text-anchor="middle" x="1301" y="-228.8" font-family="Times,serif" font-size="14.00">samples = 6048</text>
<text text-anchor="middle" x="1301" y="-213.8" font-family="Times,serif" font-size="14.00">value = [128, 244, 5676]</text>
<text text-anchor="middle" x="1301" y="-198.8" font-family="Times,serif" font-size="14.00">class = None</text>
</g>
<!-- 378&#45;&gt;414 -->
<g id="edge24" class="edge">
<title>378&#45;&gt;414</title>
<path fill="none" stroke="black" d="M1102.33,-312.03C1131.75,-300.4 1164.21,-287.57 1194.21,-275.71"/>
<polygon fill="black" stroke="black" points="1195.85,-278.83 1203.86,-271.9 1193.28,-272.32 1195.85,-278.83"/>
</g>
<!-- 380 -->
<g id="node19" class="node">
<title>380</title>
<polygon fill="#ba92f1" stroke="black" points="1005.5,-155 838.5,-155 838.5,-72 1005.5,-72 1005.5,-155"/>
<text text-anchor="middle" x="922" y="-139.8" font-family="Times,serif" font-size="14.00">sdComp &lt;= 6.5</text>
<text text-anchor="middle" x="922" y="-124.8" font-family="Times,serif" font-size="14.00">gini = 0.428</text>
<text text-anchor="middle" x="922" y="-109.8" font-family="Times,serif" font-size="14.00">samples = 1154</text>
<text text-anchor="middle" x="922" y="-94.8" font-family="Times,serif" font-size="14.00">value = [0, 358, 796]</text>
<text text-anchor="middle" x="922" y="-79.8" font-family="Times,serif" font-size="14.00">class = None</text>
</g>
<!-- 379&#45;&gt;380 -->
<g id="edge18" class="edge">
<title>379&#45;&gt;380</title>
<path fill="none" stroke="black" d="M976.2,-190.91C969.89,-182.01 963.15,-172.51 956.64,-163.33"/>
<polygon fill="black" stroke="black" points="959.39,-161.15 950.75,-155.02 953.68,-165.2 959.39,-161.15"/>
</g>
<!-- 397 -->
<g id="node22" class="node">
<title>397</title>
<polygon fill="#9b62ea" stroke="black" points="1208.5,-155 1023.5,-155 1023.5,-72 1208.5,-72 1208.5,-155"/>
<text text-anchor="middle" x="1116" y="-139.8" font-family="Times,serif" font-size="14.00">nbproc &lt;= 4.5</text>
<text text-anchor="middle" x="1116" y="-124.8" font-family="Times,serif" font-size="14.00">gini = 0.297</text>
<text text-anchor="middle" x="1116" y="-109.8" font-family="Times,serif" font-size="14.00">samples = 2250</text>
<text text-anchor="middle" x="1116" y="-94.8" font-family="Times,serif" font-size="14.00">value = [348, 48, 1854]</text>
<text text-anchor="middle" x="1116" y="-79.8" font-family="Times,serif" font-size="14.00">class = None</text>
</g>
<!-- 379&#45;&gt;397 -->
<g id="edge21" class="edge">
<title>379&#45;&gt;397</title>
<path fill="none" stroke="black" d="M1043.51,-190.91C1052.21,-181.74 1061.52,-171.93 1070.47,-162.49"/>
<polygon fill="black" stroke="black" points="1073.21,-164.68 1077.56,-155.02 1068.14,-159.87 1073.21,-164.68"/>
</g>
<!-- 381 -->
<g id="node20" class="node">
<title>381</title>
<polygon fill="#c0c0c0" stroke="black" points="902,-36 848,-36 848,0 902,0 902,-36"/>
<text text-anchor="middle" x="875" y="-14.3" font-family="Times,serif" font-size="14.00">(...)</text>
</g>
<!-- 380&#45;&gt;381 -->
<g id="edge19" class="edge">
<title>380&#45;&gt;381</title>
<path fill="none" stroke="black" d="M901.52,-71.76C897.04,-62.85 892.41,-53.64 888.3,-45.46"/>
<polygon fill="black" stroke="black" points="891.37,-43.77 883.75,-36.41 885.11,-46.91 891.37,-43.77"/>
</g>
<!-- 392 -->
<g id="node21" class="node">
<title>392</title>
<polygon fill="#c0c0c0" stroke="black" points="974,-36 920,-36 920,0 974,0 974,-36"/>
<text text-anchor="middle" x="947" y="-14.3" font-family="Times,serif" font-size="14.00">(...)</text>
</g>
<!-- 380&#45;&gt;392 -->
<g id="edge20" class="edge">
<title>380&#45;&gt;392</title>
<path fill="none" stroke="black" d="M932.89,-71.76C935.2,-63.14 937.58,-54.24 939.71,-46.26"/>
<polygon fill="black" stroke="black" points="943.14,-46.97 942.35,-36.41 936.38,-45.16 943.14,-46.97"/>
</g>
<!-- 398 -->
<g id="node23" class="node">
<title>398</title>
<polygon fill="#c0c0c0" stroke="black" points="1107,-36 1053,-36 1053,0 1107,0 1107,-36"/>
<text text-anchor="middle" x="1080" y="-14.3" font-family="Times,serif" font-size="14.00">(...)</text>
</g>
<!-- 397&#45;&gt;398 -->
<g id="edge22" class="edge">
<title>397&#45;&gt;398</title>
<path fill="none" stroke="black" d="M1100.31,-71.76C1096.96,-63.04 1093.49,-54.04 1090.39,-45.99"/>
<polygon fill="black" stroke="black" points="1093.56,-44.48 1086.7,-36.41 1087.03,-46.99 1093.56,-44.48"/>
</g>
<!-- 413 -->
<g id="node24" class="node">
<title>413</title>
<polygon fill="#c0c0c0" stroke="black" points="1179,-36 1125,-36 1125,0 1179,0 1179,-36"/>
<text text-anchor="middle" x="1152" y="-14.3" font-family="Times,serif" font-size="14.00">(...)</text>
</g>
<!-- 397&#45;&gt;413 -->
<g id="edge23" class="edge">
<title>397&#45;&gt;413</title>
<path fill="none" stroke="black" d="M1131.69,-71.76C1135.04,-63.04 1138.51,-54.04 1141.61,-45.99"/>
<polygon fill="black" stroke="black" points="1144.97,-46.99 1145.3,-36.41 1138.44,-44.48 1144.97,-46.99"/>
</g>
<!-- 415 -->
<g id="node26" class="node">
<title>415</title>
<polygon fill="#8139e5" stroke="black" points="1375.5,-147.5 1226.5,-147.5 1226.5,-79.5 1375.5,-79.5 1375.5,-147.5"/>
<text text-anchor="middle" x="1301" y="-132.3" font-family="Times,serif" font-size="14.00">gini = 0.0</text>
<text text-anchor="middle" x="1301" y="-117.3" font-family="Times,serif" font-size="14.00">samples = 992</text>
<text text-anchor="middle" x="1301" y="-102.3" font-family="Times,serif" font-size="14.00">value = [0, 0, 992]</text>
<text text-anchor="middle" x="1301" y="-87.3" font-family="Times,serif" font-size="14.00">class = None</text>
</g>
<!-- 414&#45;&gt;415 -->
<g id="edge25" class="edge">
<title>414&#45;&gt;415</title>
<path fill="none" stroke="black" d="M1301,-190.91C1301,-180.2 1301,-168.62 1301,-157.78"/>
<polygon fill="black" stroke="black" points="1304.5,-157.67 1301,-147.67 1297.5,-157.67 1304.5,-157.67"/>
</g>
<!-- 416 -->
<g id="node27" class="node">
<title>416</title>
<polygon fill="#8b48e7" stroke="black" points="1587,-155 1393,-155 1393,-72 1587,-72 1587,-155"/>
<text text-anchor="middle" x="1490" y="-139.8" font-family="Times,serif" font-size="14.00">graphSize &lt;= 40.0</text>
<text text-anchor="middle" x="1490" y="-124.8" font-family="Times,serif" font-size="14.00">gini = 0.139</text>
<text text-anchor="middle" x="1490" y="-109.8" font-family="Times,serif" font-size="14.00">samples = 5056</text>
<text text-anchor="middle" x="1490" y="-94.8" font-family="Times,serif" font-size="14.00">value = [128, 244, 4684]</text>
<text text-anchor="middle" x="1490" y="-79.8" font-family="Times,serif" font-size="14.00">class = None</text>
</g>
<!-- 414&#45;&gt;416 -->
<g id="edge26" class="edge">
<title>414&#45;&gt;416</title>
<path fill="none" stroke="black" d="M1366.57,-190.91C1382.41,-181.11 1399.44,-170.56 1415.64,-160.53"/>
<polygon fill="black" stroke="black" points="1417.88,-163.26 1424.54,-155.02 1414.2,-157.31 1417.88,-163.26"/>
</g>
<!-- 417 -->
<g id="node28" class="node">
<title>417</title>
<polygon fill="#c0c0c0" stroke="black" points="1481,-36 1427,-36 1427,0 1481,0 1481,-36"/>
<text text-anchor="middle" x="1454" y="-14.3" font-family="Times,serif" font-size="14.00">(...)</text>
</g>
<!-- 416&#45;&gt;417 -->
<g id="edge27" class="edge">
<title>416&#45;&gt;417</title>
<path fill="none" stroke="black" d="M1474.31,-71.76C1470.96,-63.04 1467.49,-54.04 1464.39,-45.99"/>
<polygon fill="black" stroke="black" points="1467.56,-44.48 1460.7,-36.41 1461.03,-46.99 1467.56,-44.48"/>
</g>
<!-- 438 -->
<g id="node29" class="node">
<title>438</title>
<polygon fill="#c0c0c0" stroke="black" points="1553,-36 1499,-36 1499,0 1553,0 1553,-36"/>
<text text-anchor="middle" x="1526" y="-14.3" font-family="Times,serif" font-size="14.00">(...)</text>
</g>
<!-- 416&#45;&gt;438 -->
<g id="edge28" class="edge">
<title>416&#45;&gt;438</title>
<path fill="none" stroke="black" d="M1505.69,-71.76C1509.04,-63.04 1512.51,-54.04 1515.61,-45.99"/>
<polygon fill="black" stroke="black" points="1518.97,-46.99 1519.3,-36.41 1512.44,-44.48 1518.97,-46.99"/>
</g>
</g>
</svg>
