<?xml version="1.0" encoding="UTF-8" standalone="no"?>
<!DOCTYPE svg PUBLIC "-//W3C//DTD SVG 1.1//EN"
 "http://www.w3.org/Graphics/SVG/1.1/DTD/svg11.dtd">
<!-- Generated by graphviz version 2.43.0 (0)
 -->
<!-- Title: Tree Pages: 1 -->
<svg width="1452pt" height="520pt"
 viewBox="0.00 0.00 1452.00 520.00" xmlns="http://www.w3.org/2000/svg" xmlns:xlink="http://www.w3.org/1999/xlink">
<g id="graph0" class="graph" transform="scale(1 1) rotate(0) translate(4 516)">
<title>Tree</title>
<polygon fill="white" stroke="transparent" points="-4,4 -4,-516 1448,-516 1448,4 -4,4"/>
<!-- 0 -->
<g id="node1" class="node">
<title>0</title>
<polygon fill="#fefaf6" stroke="black" points="790,-512 605,-512 605,-429 790,-429 790,-512"/>
<text text-anchor="middle" x="697.5" y="-496.8" font-family="Times,serif" font-size="14.00">nbproc &lt;= 4.5</text>
<text text-anchor="middle" x="697.5" y="-481.8" font-family="Times,serif" font-size="14.00">gini = 0.5</text>
<text text-anchor="middle" x="697.5" y="-466.8" font-family="Times,serif" font-size="14.00">samples = 60577</text>
<text text-anchor="middle" x="697.5" y="-451.8" font-family="Times,serif" font-size="14.00">value = [30954, 29623]</text>
<text text-anchor="middle" x="697.5" y="-436.8" font-family="Times,serif" font-size="14.00">class = False</text>
</g>
<!-- 1 -->
<g id="node2" class="node">
<title>1</title>
<polygon fill="#f5fafe" stroke="black" points="607.5,-393 431.5,-393 431.5,-310 607.5,-310 607.5,-393"/>
<text text-anchor="middle" x="519.5" y="-377.8" font-family="Times,serif" font-size="14.00">graphSize &lt;= 22.5</text>
<text text-anchor="middle" x="519.5" y="-362.8" font-family="Times,serif" font-size="14.00">gini = 0.5</text>
<text text-anchor="middle" x="519.5" y="-347.8" font-family="Times,serif" font-size="14.00">samples = 19531</text>
<text text-anchor="middle" x="519.5" y="-332.8" font-family="Times,serif" font-size="14.00">value = [9524, 10007]</text>
<text text-anchor="middle" x="519.5" y="-317.8" font-family="Times,serif" font-size="14.00">class = True</text>
</g>
<!-- 0&#45;&gt;1 -->
<g id="edge1" class="edge">
<title>0&#45;&gt;1</title>
<path fill="none" stroke="black" d="M635.74,-428.91C620.83,-419.11 604.79,-408.56 589.53,-398.53"/>
<polygon fill="black" stroke="black" points="591.43,-395.59 581.15,-393.02 587.58,-401.44 591.43,-395.59"/>
<text text-anchor="middle" x="586.21" y="-413.8" font-family="Times,serif" font-size="14.00">True</text>
</g>
<!-- 348 -->
<g id="node17" class="node">
<title>348</title>
<polygon fill="#fdf4ee" stroke="black" points="984,-393 799,-393 799,-310 984,-310 984,-393"/>
<text text-anchor="middle" x="891.5" y="-377.8" font-family="Times,serif" font-size="14.00">graphDepth &lt;= 13.5</text>
<text text-anchor="middle" x="891.5" y="-362.8" font-family="Times,serif" font-size="14.00">gini = 0.499</text>
<text text-anchor="middle" x="891.5" y="-347.8" font-family="Times,serif" font-size="14.00">samples = 41046</text>
<text text-anchor="middle" x="891.5" y="-332.8" font-family="Times,serif" font-size="14.00">value = [21430, 19616]</text>
<text text-anchor="middle" x="891.5" y="-317.8" font-family="Times,serif" font-size="14.00">class = False</text>
</g>
<!-- 0&#45;&gt;348 -->
<g id="edge16" class="edge">
<title>0&#45;&gt;348</title>
<path fill="none" stroke="black" d="M764.81,-428.91C781.21,-419.02 798.86,-408.37 815.63,-398.25"/>
<polygon fill="black" stroke="black" points="817.56,-401.18 824.31,-393.02 813.94,-395.19 817.56,-401.18"/>
<text text-anchor="middle" x="818.3" y="-413.59" font-family="Times,serif" font-size="14.00">False</text>
</g>
<!-- 2 -->
<g id="node3" class="node">
<title>2</title>
<polygon fill="#fdf6f1" stroke="black" points="339,-274 172,-274 172,-191 339,-191 339,-274"/>
<text text-anchor="middle" x="255.5" y="-258.8" font-family="Times,serif" font-size="14.00">sdComm &lt;= 6.5</text>
<text text-anchor="middle" x="255.5" y="-243.8" font-family="Times,serif" font-size="14.00">gini = 0.499</text>
<text text-anchor="middle" x="255.5" y="-228.8" font-family="Times,serif" font-size="14.00">samples = 11780</text>
<text text-anchor="middle" x="255.5" y="-213.8" font-family="Times,serif" font-size="14.00">value = [6109, 5671]</text>
<text text-anchor="middle" x="255.5" y="-198.8" font-family="Times,serif" font-size="14.00">class = False</text>
</g>
<!-- 1&#45;&gt;2 -->
<g id="edge2" class="edge">
<title>1&#45;&gt;2</title>
<path fill="none" stroke="black" d="M431.22,-311.38C404.68,-299.61 375.47,-286.67 348.61,-274.77"/>
<polygon fill="black" stroke="black" points="349.78,-271.46 339.22,-270.6 346.95,-277.86 349.78,-271.46"/>
</g>
<!-- 95 -->
<g id="node10" class="node">
<title>95</title>
<polygon fill="#d5eaf9" stroke="black" points="603,-274 436,-274 436,-191 603,-191 603,-274"/>
<text text-anchor="middle" x="519.5" y="-258.8" font-family="Times,serif" font-size="14.00">sdComp &lt;= 0.65</text>
<text text-anchor="middle" x="519.5" y="-243.8" font-family="Times,serif" font-size="14.00">gini = 0.493</text>
<text text-anchor="middle" x="519.5" y="-228.8" font-family="Times,serif" font-size="14.00">samples = 7751</text>
<text text-anchor="middle" x="519.5" y="-213.8" font-family="Times,serif" font-size="14.00">value = [3415, 4336]</text>
<text text-anchor="middle" x="519.5" y="-198.8" font-family="Times,serif" font-size="14.00">class = True</text>
</g>
<!-- 1&#45;&gt;95 -->
<g id="edge9" class="edge">
<title>1&#45;&gt;95</title>
<path fill="none" stroke="black" d="M519.5,-309.91C519.5,-301.65 519.5,-292.86 519.5,-284.3"/>
<polygon fill="black" stroke="black" points="523,-284.02 519.5,-274.02 516,-284.02 523,-284.02"/>
</g>
<!-- 3 -->
<g id="node4" class="node">
<title>3</title>
<polygon fill="#fdf4ee" stroke="black" points="167,-155 0,-155 0,-72 167,-72 167,-155"/>
<text text-anchor="middle" x="83.5" y="-139.8" font-family="Times,serif" font-size="14.00">graphDepth &lt;= 3.5</text>
<text text-anchor="middle" x="83.5" y="-124.8" font-family="Times,serif" font-size="14.00">gini = 0.499</text>
<text text-anchor="middle" x="83.5" y="-109.8" font-family="Times,serif" font-size="14.00">samples = 11606</text>
<text text-anchor="middle" x="83.5" y="-94.8" font-family="Times,serif" font-size="14.00">value = [6057, 5549]</text>
<text text-anchor="middle" x="83.5" y="-79.8" font-family="Times,serif" font-size="14.00">class = False</text>
</g>
<!-- 2&#45;&gt;3 -->
<g id="edge3" class="edge">
<title>2&#45;&gt;3</title>
<path fill="none" stroke="black" d="M195.83,-190.91C181.55,-181.2 166.2,-170.76 151.58,-160.81"/>
<polygon fill="black" stroke="black" points="153.31,-157.75 143.07,-155.02 149.37,-163.54 153.31,-157.75"/>
</g>
<!-- 88 -->
<g id="node7" class="node">
<title>88</title>
<polygon fill="#8dc7f0" stroke="black" points="325.5,-155 185.5,-155 185.5,-72 325.5,-72 325.5,-155"/>
<text text-anchor="middle" x="255.5" y="-139.8" font-family="Times,serif" font-size="14.00">sdComp &lt;= 2.0</text>
<text text-anchor="middle" x="255.5" y="-124.8" font-family="Times,serif" font-size="14.00">gini = 0.419</text>
<text text-anchor="middle" x="255.5" y="-109.8" font-family="Times,serif" font-size="14.00">samples = 174</text>
<text text-anchor="middle" x="255.5" y="-94.8" font-family="Times,serif" font-size="14.00">value = [52, 122]</text>
<text text-anchor="middle" x="255.5" y="-79.8" font-family="Times,serif" font-size="14.00">class = True</text>
</g>
<!-- 2&#45;&gt;88 -->
<g id="edge6" class="edge">
<title>2&#45;&gt;88</title>
<path fill="none" stroke="black" d="M255.5,-190.91C255.5,-182.65 255.5,-173.86 255.5,-165.3"/>
<polygon fill="black" stroke="black" points="259,-165.02 255.5,-155.02 252,-165.02 259,-165.02"/>
</g>
<!-- 4 -->
<g id="node5" class="node">
<title>4</title>
<polygon fill="#c0c0c0" stroke="black" points="74.5,-36 20.5,-36 20.5,0 74.5,0 74.5,-36"/>
<text text-anchor="middle" x="47.5" y="-14.3" font-family="Times,serif" font-size="14.00">(...)</text>
</g>
<!-- 3&#45;&gt;4 -->
<g id="edge4" class="edge">
<title>3&#45;&gt;4</title>
<path fill="none" stroke="black" d="M67.81,-71.76C64.46,-63.04 60.99,-54.04 57.89,-45.99"/>
<polygon fill="black" stroke="black" points="61.06,-44.48 54.2,-36.41 54.53,-46.99 61.06,-44.48"/>
</g>
<!-- 43 -->
<g id="node6" class="node">
<title>43</title>
<polygon fill="#c0c0c0" stroke="black" points="146.5,-36 92.5,-36 92.5,0 146.5,0 146.5,-36"/>
<text text-anchor="middle" x="119.5" y="-14.3" font-family="Times,serif" font-size="14.00">(...)</text>
</g>
<!-- 3&#45;&gt;43 -->
<g id="edge5" class="edge">
<title>3&#45;&gt;43</title>
<path fill="none" stroke="black" d="M99.19,-71.76C102.54,-63.04 106.01,-54.04 109.11,-45.99"/>
<polygon fill="black" stroke="black" points="112.47,-46.99 112.8,-36.41 105.94,-44.48 112.47,-46.99"/>
</g>
<!-- 89 -->
<g id="node8" class="node">
<title>89</title>
<polygon fill="#c0c0c0" stroke="black" points="254.5,-36 200.5,-36 200.5,0 254.5,0 254.5,-36"/>
<text text-anchor="middle" x="227.5" y="-14.3" font-family="Times,serif" font-size="14.00">(...)</text>
</g>
<!-- 88&#45;&gt;89 -->
<g id="edge7" class="edge">
<title>88&#45;&gt;89</title>
<path fill="none" stroke="black" d="M243.3,-71.76C240.69,-63.04 237.99,-54.04 235.58,-45.99"/>
<polygon fill="black" stroke="black" points="238.93,-44.98 232.71,-36.41 232.23,-46.99 238.93,-44.98"/>
</g>
<!-- 90 -->
<g id="node9" class="node">
<title>90</title>
<polygon fill="#c0c0c0" stroke="black" points="326.5,-36 272.5,-36 272.5,0 326.5,0 326.5,-36"/>
<text text-anchor="middle" x="299.5" y="-14.3" font-family="Times,serif" font-size="14.00">(...)</text>
</g>
<!-- 88&#45;&gt;90 -->
<g id="edge8" class="edge">
<title>88&#45;&gt;90</title>
<path fill="none" stroke="black" d="M274.67,-71.76C278.87,-62.85 283.2,-53.64 287.05,-45.46"/>
<polygon fill="black" stroke="black" points="290.22,-46.94 291.31,-36.41 283.88,-43.96 290.22,-46.94"/>
</g>
<!-- 96 -->
<g id="node11" class="node">
<title>96</title>
<polygon fill="#c1e0f7" stroke="black" points="511,-155 344,-155 344,-72 511,-72 511,-155"/>
<text text-anchor="middle" x="427.5" y="-139.8" font-family="Times,serif" font-size="14.00">CCR &lt;= 0.55</text>
<text text-anchor="middle" x="427.5" y="-124.8" font-family="Times,serif" font-size="14.00">gini = 0.483</text>
<text text-anchor="middle" x="427.5" y="-109.8" font-family="Times,serif" font-size="14.00">samples = 5044</text>
<text text-anchor="middle" x="427.5" y="-94.8" font-family="Times,serif" font-size="14.00">value = [2054, 2990]</text>
<text text-anchor="middle" x="427.5" y="-79.8" font-family="Times,serif" font-size="14.00">class = True</text>
</g>
<!-- 95&#45;&gt;96 -->
<g id="edge10" class="edge">
<title>95&#45;&gt;96</title>
<path fill="none" stroke="black" d="M487.58,-190.91C480.52,-181.92 472.96,-172.32 465.68,-163.05"/>
<polygon fill="black" stroke="black" points="468.3,-160.72 459.36,-155.02 462.79,-165.05 468.3,-160.72"/>
</g>
<!-- 263 -->
<g id="node14" class="node">
<title>263</title>
<polygon fill="#fffefd" stroke="black" points="696,-155 529,-155 529,-72 696,-72 696,-155"/>
<text text-anchor="middle" x="612.5" y="-139.8" font-family="Times,serif" font-size="14.00">CCR &lt;= 5.5</text>
<text text-anchor="middle" x="612.5" y="-124.8" font-family="Times,serif" font-size="14.00">gini = 0.5</text>
<text text-anchor="middle" x="612.5" y="-109.8" font-family="Times,serif" font-size="14.00">samples = 2707</text>
<text text-anchor="middle" x="612.5" y="-94.8" font-family="Times,serif" font-size="14.00">value = [1361, 1346]</text>
<text text-anchor="middle" x="612.5" y="-79.8" font-family="Times,serif" font-size="14.00">class = False</text>
</g>
<!-- 95&#45;&gt;263 -->
<g id="edge13" class="edge">
<title>95&#45;&gt;263</title>
<path fill="none" stroke="black" d="M551.77,-190.91C558.91,-181.92 566.54,-172.32 573.91,-163.05"/>
<polygon fill="black" stroke="black" points="576.81,-165.03 580.29,-155.02 571.33,-160.67 576.81,-165.03"/>
</g>
<!-- 97 -->
<g id="node12" class="node">
<title>97</title>
<polygon fill="#c0c0c0" stroke="black" points="428.5,-36 374.5,-36 374.5,0 428.5,0 428.5,-36"/>
<text text-anchor="middle" x="401.5" y="-14.3" font-family="Times,serif" font-size="14.00">(...)</text>
</g>
<!-- 96&#45;&gt;97 -->
<g id="edge11" class="edge">
<title>96&#45;&gt;97</title>
<path fill="none" stroke="black" d="M416.17,-71.76C413.77,-63.14 411.3,-54.24 409.08,-46.26"/>
<polygon fill="black" stroke="black" points="412.39,-45.1 406.34,-36.41 405.65,-46.98 412.39,-45.1"/>
</g>
<!-- 200 -->
<g id="node13" class="node">
<title>200</title>
<polygon fill="#c0c0c0" stroke="black" points="500.5,-36 446.5,-36 446.5,0 500.5,0 500.5,-36"/>
<text text-anchor="middle" x="473.5" y="-14.3" font-family="Times,serif" font-size="14.00">(...)</text>
</g>
<!-- 96&#45;&gt;200 -->
<g id="edge12" class="edge">
<title>96&#45;&gt;200</title>
<path fill="none" stroke="black" d="M447.54,-71.76C451.93,-62.85 456.46,-53.64 460.48,-45.46"/>
<polygon fill="black" stroke="black" points="463.66,-46.92 464.94,-36.41 457.38,-43.83 463.66,-46.92"/>
</g>
<!-- 264 -->
<g id="node15" class="node">
<title>264</title>
<polygon fill="#c0c0c0" stroke="black" points="587.5,-36 533.5,-36 533.5,0 587.5,0 587.5,-36"/>
<text text-anchor="middle" x="560.5" y="-14.3" font-family="Times,serif" font-size="14.00">(...)</text>
</g>
<!-- 263&#45;&gt;264 -->
<g id="edge14" class="edge">
<title>263&#45;&gt;264</title>
<path fill="none" stroke="black" d="M589.84,-71.76C584.83,-62.75 579.65,-53.44 575.07,-45.19"/>
<polygon fill="black" stroke="black" points="578.1,-43.44 570.18,-36.41 571.98,-46.85 578.1,-43.44"/>
</g>
<!-- 299 -->
<g id="node16" class="node">
<title>299</title>
<polygon fill="#c0c0c0" stroke="black" points="659.5,-36 605.5,-36 605.5,0 659.5,0 659.5,-36"/>
<text text-anchor="middle" x="632.5" y="-14.3" font-family="Times,serif" font-size="14.00">(...)</text>
</g>
<!-- 263&#45;&gt;299 -->
<g id="edge15" class="edge">
<title>263&#45;&gt;299</title>
<path fill="none" stroke="black" d="M621.21,-71.76C623.06,-63.14 624.96,-54.24 626.67,-46.26"/>
<polygon fill="black" stroke="black" points="630.11,-46.92 628.78,-36.41 623.26,-45.45 630.11,-46.92"/>
</g>
<!-- 349 -->
<g id="node18" class="node">
<title>349</title>
<polygon fill="#fdf8f3" stroke="black" points="984,-274 799,-274 799,-191 984,-191 984,-274"/>
<text text-anchor="middle" x="891.5" y="-258.8" font-family="Times,serif" font-size="14.00">graphDepth &lt;= 3.5</text>
<text text-anchor="middle" x="891.5" y="-243.8" font-family="Times,serif" font-size="14.00">gini = 0.5</text>
<text text-anchor="middle" x="891.5" y="-228.8" font-family="Times,serif" font-size="14.00">samples = 36564</text>
<text text-anchor="middle" x="891.5" y="-213.8" font-family="Times,serif" font-size="14.00">value = [18836, 17728]</text>
<text text-anchor="middle" x="891.5" y="-198.8" font-family="Times,serif" font-size="14.00">class = False</text>
</g>
<!-- 348&#45;&gt;349 -->
<g id="edge17" class="edge">
<title>348&#45;&gt;349</title>
<path fill="none" stroke="black" d="M891.5,-309.91C891.5,-301.65 891.5,-292.86 891.5,-284.3"/>
<polygon fill="black" stroke="black" points="895,-284.02 891.5,-274.02 888,-284.02 895,-284.02"/>
</g>
<!-- 574 -->
<g id="node25" class="node">
<title>574</title>
<polygon fill="#f8ddc9" stroke="black" points="1264,-274 1097,-274 1097,-191 1264,-191 1264,-274"/>
<text text-anchor="middle" x="1180.5" y="-258.8" font-family="Times,serif" font-size="14.00">CCR &lt;= 0.55</text>
<text text-anchor="middle" x="1180.5" y="-243.8" font-family="Times,serif" font-size="14.00">gini = 0.488</text>
<text text-anchor="middle" x="1180.5" y="-228.8" font-family="Times,serif" font-size="14.00">samples = 4482</text>
<text text-anchor="middle" x="1180.5" y="-213.8" font-family="Times,serif" font-size="14.00">value = [2594, 1888]</text>
<text text-anchor="middle" x="1180.5" y="-198.8" font-family="Times,serif" font-size="14.00">class = False</text>
</g>
<!-- 348&#45;&gt;574 -->
<g id="edge24" class="edge">
<title>348&#45;&gt;574</title>
<path fill="none" stroke="black" d="M984.13,-313C1017.04,-299.67 1054.09,-284.68 1087.06,-271.33"/>
<polygon fill="black" stroke="black" points="1088.75,-274.42 1096.7,-267.43 1086.12,-267.93 1088.75,-274.42"/>
</g>
<!-- 350 -->
<g id="node19" class="node">
<title>350</title>
<polygon fill="#f2f9fd" stroke="black" points="881,-155 714,-155 714,-72 881,-72 881,-155"/>
<text text-anchor="middle" x="797.5" y="-139.8" font-family="Times,serif" font-size="14.00">sdComm &lt;= 0.2</text>
<text text-anchor="middle" x="797.5" y="-124.8" font-family="Times,serif" font-size="14.00">gini = 0.499</text>
<text text-anchor="middle" x="797.5" y="-109.8" font-family="Times,serif" font-size="14.00">samples = 6552</text>
<text text-anchor="middle" x="797.5" y="-94.8" font-family="Times,serif" font-size="14.00">value = [3164, 3388]</text>
<text text-anchor="middle" x="797.5" y="-79.8" font-family="Times,serif" font-size="14.00">class = True</text>
</g>
<!-- 349&#45;&gt;350 -->
<g id="edge18" class="edge">
<title>349&#45;&gt;350</title>
<path fill="none" stroke="black" d="M858.89,-190.91C851.67,-181.92 843.95,-172.32 836.51,-163.05"/>
<polygon fill="black" stroke="black" points="839.05,-160.62 830.06,-155.02 833.59,-165.01 839.05,-160.62"/>
</g>
<!-- 395 -->
<g id="node22" class="node">
<title>395</title>
<polygon fill="#fdf4ee" stroke="black" points="1084,-155 899,-155 899,-72 1084,-72 1084,-155"/>
<text text-anchor="middle" x="991.5" y="-139.8" font-family="Times,serif" font-size="14.00">sdComm &lt;= 6.5</text>
<text text-anchor="middle" x="991.5" y="-124.8" font-family="Times,serif" font-size="14.00">gini = 0.499</text>
<text text-anchor="middle" x="991.5" y="-109.8" font-family="Times,serif" font-size="14.00">samples = 30012</text>
<text text-anchor="middle" x="991.5" y="-94.8" font-family="Times,serif" font-size="14.00">value = [15672, 14340]</text>
<text text-anchor="middle" x="991.5" y="-79.8" font-family="Times,serif" font-size="14.00">class = False</text>
</g>
<!-- 349&#45;&gt;395 -->
<g id="edge21" class="edge">
<title>349&#45;&gt;395</title>
<path fill="none" stroke="black" d="M926.19,-190.91C933.95,-181.83 942.25,-172.12 950.24,-162.77"/>
<polygon fill="black" stroke="black" points="953.03,-164.9 956.87,-155.02 947.71,-160.35 953.03,-164.9"/>
</g>
<!-- 351 -->
<g id="node20" class="node">
<title>351</title>
<polygon fill="#c0c0c0" stroke="black" points="777.5,-36 723.5,-36 723.5,0 777.5,0 777.5,-36"/>
<text text-anchor="middle" x="750.5" y="-14.3" font-family="Times,serif" font-size="14.00">(...)</text>
</g>
<!-- 350&#45;&gt;351 -->
<g id="edge19" class="edge">
<title>350&#45;&gt;351</title>
<path fill="none" stroke="black" d="M777.02,-71.76C772.54,-62.85 767.91,-53.64 763.8,-45.46"/>
<polygon fill="black" stroke="black" points="766.87,-43.77 759.25,-36.41 760.61,-46.91 766.87,-43.77"/>
</g>
<!-- 374 -->
<g id="node21" class="node">
<title>374</title>
<polygon fill="#c0c0c0" stroke="black" points="849.5,-36 795.5,-36 795.5,0 849.5,0 849.5,-36"/>
<text text-anchor="middle" x="822.5" y="-14.3" font-family="Times,serif" font-size="14.00">(...)</text>
</g>
<!-- 350&#45;&gt;374 -->
<g id="edge20" class="edge">
<title>350&#45;&gt;374</title>
<path fill="none" stroke="black" d="M808.39,-71.76C810.7,-63.14 813.08,-54.24 815.21,-46.26"/>
<polygon fill="black" stroke="black" points="818.64,-46.97 817.85,-36.41 811.88,-45.16 818.64,-46.97"/>
</g>
<!-- 396 -->
<g id="node23" class="node">
<title>396</title>
<polygon fill="#c0c0c0" stroke="black" points="968.5,-36 914.5,-36 914.5,0 968.5,0 968.5,-36"/>
<text text-anchor="middle" x="941.5" y="-14.3" font-family="Times,serif" font-size="14.00">(...)</text>
</g>
<!-- 395&#45;&gt;396 -->
<g id="edge22" class="edge">
<title>395&#45;&gt;396</title>
<path fill="none" stroke="black" d="M969.71,-71.76C964.95,-62.85 960.02,-53.64 955.65,-45.46"/>
<polygon fill="black" stroke="black" points="958.61,-43.57 950.81,-36.41 952.44,-46.87 958.61,-43.57"/>
</g>
<!-- 561 -->
<g id="node24" class="node">
<title>561</title>
<polygon fill="#c0c0c0" stroke="black" points="1040.5,-36 986.5,-36 986.5,0 1040.5,0 1040.5,-36"/>
<text text-anchor="middle" x="1013.5" y="-14.3" font-family="Times,serif" font-size="14.00">(...)</text>
</g>
<!-- 395&#45;&gt;561 -->
<g id="edge23" class="edge">
<title>395&#45;&gt;561</title>
<path fill="none" stroke="black" d="M1001.09,-71.76C1003.11,-63.14 1005.21,-54.24 1007.09,-46.26"/>
<polygon fill="black" stroke="black" points="1010.52,-46.94 1009.4,-36.41 1003.71,-45.34 1010.52,-46.94"/>
</g>
<!-- 575 -->
<g id="node26" class="node">
<title>575</title>
<polygon fill="#f3c5a4" stroke="black" points="1259.5,-155 1101.5,-155 1101.5,-72 1259.5,-72 1259.5,-155"/>
<text text-anchor="middle" x="1180.5" y="-139.8" font-family="Times,serif" font-size="14.00">sdComm &lt;= 0.02</text>
<text text-anchor="middle" x="1180.5" y="-124.8" font-family="Times,serif" font-size="14.00">gini = 0.455</text>
<text text-anchor="middle" x="1180.5" y="-109.8" font-family="Times,serif" font-size="14.00">samples = 2174</text>
<text text-anchor="middle" x="1180.5" y="-94.8" font-family="Times,serif" font-size="14.00">value = [1412, 762]</text>
<text text-anchor="middle" x="1180.5" y="-79.8" font-family="Times,serif" font-size="14.00">class = False</text>
</g>
<!-- 574&#45;&gt;575 -->
<g id="edge25" class="edge">
<title>574&#45;&gt;575</title>
<path fill="none" stroke="black" d="M1180.5,-190.91C1180.5,-182.65 1180.5,-173.86 1180.5,-165.3"/>
<polygon fill="black" stroke="black" points="1184,-165.02 1180.5,-155.02 1177,-165.02 1184,-165.02"/>
</g>
<!-- 628 -->
<g id="node29" class="node">
<title>628</title>
<polygon fill="#fef9f6" stroke="black" points="1444,-155 1277,-155 1277,-72 1444,-72 1444,-155"/>
<text text-anchor="middle" x="1360.5" y="-139.8" font-family="Times,serif" font-size="14.00">graphSize &lt;= 75.0</text>
<text text-anchor="middle" x="1360.5" y="-124.8" font-family="Times,serif" font-size="14.00">gini = 0.5</text>
<text text-anchor="middle" x="1360.5" y="-109.8" font-family="Times,serif" font-size="14.00">samples = 2308</text>
<text text-anchor="middle" x="1360.5" y="-94.8" font-family="Times,serif" font-size="14.00">value = [1182, 1126]</text>
<text text-anchor="middle" x="1360.5" y="-79.8" font-family="Times,serif" font-size="14.00">class = False</text>
</g>
<!-- 574&#45;&gt;628 -->
<g id="edge28" class="edge">
<title>574&#45;&gt;628</title>
<path fill="none" stroke="black" d="M1242.95,-190.91C1258.03,-181.11 1274.25,-170.56 1289.68,-160.53"/>
<polygon fill="black" stroke="black" points="1291.68,-163.41 1298.16,-155.02 1287.87,-157.54 1291.68,-163.41"/>
</g>
<!-- 576 -->
<g id="node27" class="node">
<title>576</title>
<polygon fill="#c0c0c0" stroke="black" points="1171.5,-36 1117.5,-36 1117.5,0 1171.5,0 1171.5,-36"/>
<text text-anchor="middle" x="1144.5" y="-14.3" font-family="Times,serif" font-size="14.00">(...)</text>
</g>
<!-- 575&#45;&gt;576 -->
<g id="edge26" class="edge">
<title>575&#45;&gt;576</title>
<path fill="none" stroke="black" d="M1164.81,-71.76C1161.46,-63.04 1157.99,-54.04 1154.89,-45.99"/>
<polygon fill="black" stroke="black" points="1158.06,-44.48 1151.2,-36.41 1151.53,-46.99 1158.06,-44.48"/>
</g>
<!-- 593 -->
<g id="node28" class="node">
<title>593</title>
<polygon fill="#c0c0c0" stroke="black" points="1243.5,-36 1189.5,-36 1189.5,0 1243.5,0 1243.5,-36"/>
<text text-anchor="middle" x="1216.5" y="-14.3" font-family="Times,serif" font-size="14.00">(...)</text>
</g>
<!-- 575&#45;&gt;593 -->
<g id="edge27" class="edge">
<title>575&#45;&gt;593</title>
<path fill="none" stroke="black" d="M1196.19,-71.76C1199.54,-63.04 1203.01,-54.04 1206.11,-45.99"/>
<polygon fill="black" stroke="black" points="1209.47,-46.99 1209.8,-36.41 1202.94,-44.48 1209.47,-46.99"/>
</g>
<!-- 629 -->
<g id="node30" class="node">
<title>629</title>
<polygon fill="#c0c0c0" stroke="black" points="1351.5,-36 1297.5,-36 1297.5,0 1351.5,0 1351.5,-36"/>
<text text-anchor="middle" x="1324.5" y="-14.3" font-family="Times,serif" font-size="14.00">(...)</text>
</g>
<!-- 628&#45;&gt;629 -->
<g id="edge29" class="edge">
<title>628&#45;&gt;629</title>
<path fill="none" stroke="black" d="M1344.81,-71.76C1341.46,-63.04 1337.99,-54.04 1334.89,-45.99"/>
<polygon fill="black" stroke="black" points="1338.06,-44.48 1331.2,-36.41 1331.53,-46.99 1338.06,-44.48"/>
</g>
<!-- 660 -->
<g id="node31" class="node">
<title>660</title>
<polygon fill="#c0c0c0" stroke="black" points="1423.5,-36 1369.5,-36 1369.5,0 1423.5,0 1423.5,-36"/>
<text text-anchor="middle" x="1396.5" y="-14.3" font-family="Times,serif" font-size="14.00">(...)</text>
</g>
<!-- 628&#45;&gt;660 -->
<g id="edge30" class="edge">
<title>628&#45;&gt;660</title>
<path fill="none" stroke="black" d="M1376.19,-71.76C1379.54,-63.04 1383.01,-54.04 1386.11,-45.99"/>
<polygon fill="black" stroke="black" points="1389.47,-46.99 1389.8,-36.41 1382.94,-44.48 1389.47,-46.99"/>
</g>
</g>
</svg>
