<?xml version="1.0" encoding="UTF-8" standalone="no"?>
<!DOCTYPE svg PUBLIC "-//W3C//DTD SVG 1.1//EN"
 "http://www.w3.org/Graphics/SVG/1.1/DTD/svg11.dtd">
<!-- Generated by graphviz version 2.43.0 (0)
 -->
<!-- Title: Tree Pages: 1 -->
<svg width="1442pt" height="520pt"
 viewBox="0.00 0.00 1441.50 520.00" xmlns="http://www.w3.org/2000/svg" xmlns:xlink="http://www.w3.org/1999/xlink">
<g id="graph0" class="graph" transform="scale(1 1) rotate(0) translate(4 516)">
<title>Tree</title>
<polygon fill="white" stroke="transparent" points="-4,4 -4,-516 1437.5,-516 1437.5,4 -4,4"/>
<!-- 0 -->
<g id="node1" class="node">
<title>0</title>
<polygon fill="#bedff7" stroke="black" points="826.5,-512 641.5,-512 641.5,-429 826.5,-429 826.5,-512"/>
<text text-anchor="middle" x="734" y="-496.8" font-family="Times,serif" font-size="14.00">sdComp &lt;= 0.65</text>
<text text-anchor="middle" x="734" y="-481.8" font-family="Times,serif" font-size="14.00">gini = 0.481</text>
<text text-anchor="middle" x="734" y="-466.8" font-family="Times,serif" font-size="14.00">samples = 60577</text>
<text text-anchor="middle" x="734" y="-451.8" font-family="Times,serif" font-size="14.00">value = [24377, 36200]</text>
<text text-anchor="middle" x="734" y="-436.8" font-family="Times,serif" font-size="14.00">class = True</text>
</g>
<!-- 1 -->
<g id="node2" class="node">
<title>1</title>
<polygon fill="#d4eaf9" stroke="black" points="637.5,-393 452.5,-393 452.5,-310 637.5,-310 637.5,-393"/>
<text text-anchor="middle" x="545" y="-377.8" font-family="Times,serif" font-size="14.00">nbproc &lt;= 4.5</text>
<text text-anchor="middle" x="545" y="-362.8" font-family="Times,serif" font-size="14.00">gini = 0.492</text>
<text text-anchor="middle" x="545" y="-347.8" font-family="Times,serif" font-size="14.00">samples = 47758</text>
<text text-anchor="middle" x="545" y="-332.8" font-family="Times,serif" font-size="14.00">value = [20952, 26806]</text>
<text text-anchor="middle" x="545" y="-317.8" font-family="Times,serif" font-size="14.00">class = True</text>
</g>
<!-- 0&#45;&gt;1 -->
<g id="edge1" class="edge">
<title>0&#45;&gt;1</title>
<path fill="none" stroke="black" d="M668.43,-428.91C652.59,-419.11 635.56,-408.56 619.36,-398.53"/>
<polygon fill="black" stroke="black" points="620.8,-395.31 610.46,-393.02 617.12,-401.26 620.8,-395.31"/>
<text text-anchor="middle" x="616.18" y="-413.66" font-family="Times,serif" font-size="14.00">True</text>
</g>
<!-- 468 -->
<g id="node17" class="node">
<title>468</title>
<polygon fill="#81c1ee" stroke="black" points="1003.5,-393 836.5,-393 836.5,-310 1003.5,-310 1003.5,-393"/>
<text text-anchor="middle" x="920" y="-377.8" font-family="Times,serif" font-size="14.00">sdComm &lt;= 2.0</text>
<text text-anchor="middle" x="920" y="-362.8" font-family="Times,serif" font-size="14.00">gini = 0.392</text>
<text text-anchor="middle" x="920" y="-347.8" font-family="Times,serif" font-size="14.00">samples = 12819</text>
<text text-anchor="middle" x="920" y="-332.8" font-family="Times,serif" font-size="14.00">value = [3425, 9394]</text>
<text text-anchor="middle" x="920" y="-317.8" font-family="Times,serif" font-size="14.00">class = True</text>
</g>
<!-- 0&#45;&gt;468 -->
<g id="edge16" class="edge">
<title>0&#45;&gt;468</title>
<path fill="none" stroke="black" d="M798.53,-428.91C814.11,-419.11 830.87,-408.56 846.82,-398.53"/>
<polygon fill="black" stroke="black" points="848.98,-401.31 855.58,-393.02 845.25,-395.38 848.98,-401.31"/>
<text text-anchor="middle" x="850.03" y="-413.7" font-family="Times,serif" font-size="14.00">False</text>
</g>
<!-- 2 -->
<g id="node3" class="node">
<title>2</title>
<polygon fill="#b9dcf6" stroke="black" points="342.5,-274 175.5,-274 175.5,-191 342.5,-191 342.5,-274"/>
<text text-anchor="middle" x="259" y="-258.8" font-family="Times,serif" font-size="14.00">graphDepth &lt;= 3.5</text>
<text text-anchor="middle" x="259" y="-243.8" font-family="Times,serif" font-size="14.00">gini = 0.477</text>
<text text-anchor="middle" x="259" y="-228.8" font-family="Times,serif" font-size="14.00">samples = 13740</text>
<text text-anchor="middle" x="259" y="-213.8" font-family="Times,serif" font-size="14.00">value = [5392, 8348]</text>
<text text-anchor="middle" x="259" y="-198.8" font-family="Times,serif" font-size="14.00">class = True</text>
</g>
<!-- 1&#45;&gt;2 -->
<g id="edge2" class="edge">
<title>1&#45;&gt;2</title>
<path fill="none" stroke="black" d="M452.14,-312.51C420.08,-299.4 384.16,-284.7 352.08,-271.58"/>
<polygon fill="black" stroke="black" points="353.28,-268.29 342.7,-267.74 350.63,-274.77 353.28,-268.29"/>
</g>
<!-- 229 -->
<g id="node10" class="node">
<title>229</title>
<polygon fill="#e0f0fb" stroke="black" points="637.5,-274 452.5,-274 452.5,-191 637.5,-191 637.5,-274"/>
<text text-anchor="middle" x="545" y="-258.8" font-family="Times,serif" font-size="14.00">graphSize &lt;= 22.5</text>
<text text-anchor="middle" x="545" y="-243.8" font-family="Times,serif" font-size="14.00">gini = 0.496</text>
<text text-anchor="middle" x="545" y="-228.8" font-family="Times,serif" font-size="14.00">samples = 34018</text>
<text text-anchor="middle" x="545" y="-213.8" font-family="Times,serif" font-size="14.00">value = [15560, 18458]</text>
<text text-anchor="middle" x="545" y="-198.8" font-family="Times,serif" font-size="14.00">class = True</text>
</g>
<!-- 1&#45;&gt;229 -->
<g id="edge9" class="edge">
<title>1&#45;&gt;229</title>
<path fill="none" stroke="black" d="M545,-309.91C545,-301.65 545,-292.86 545,-284.3"/>
<polygon fill="black" stroke="black" points="548.5,-284.02 545,-274.02 541.5,-284.02 548.5,-284.02"/>
</g>
<!-- 3 -->
<g id="node4" class="node">
<title>3</title>
<polygon fill="#6fb7ec" stroke="black" points="158,-155 0,-155 0,-72 158,-72 158,-155"/>
<text text-anchor="middle" x="79" y="-139.8" font-family="Times,serif" font-size="14.00">sdComm &lt;= 0.065</text>
<text text-anchor="middle" x="79" y="-124.8" font-family="Times,serif" font-size="14.00">gini = 0.335</text>
<text text-anchor="middle" x="79" y="-109.8" font-family="Times,serif" font-size="14.00">samples = 1288</text>
<text text-anchor="middle" x="79" y="-94.8" font-family="Times,serif" font-size="14.00">value = [274, 1014]</text>
<text text-anchor="middle" x="79" y="-79.8" font-family="Times,serif" font-size="14.00">class = True</text>
</g>
<!-- 2&#45;&gt;3 -->
<g id="edge3" class="edge">
<title>2&#45;&gt;3</title>
<path fill="none" stroke="black" d="M196.55,-190.91C181.47,-181.11 165.25,-170.56 149.82,-160.53"/>
<polygon fill="black" stroke="black" points="151.63,-157.54 141.34,-155.02 147.82,-163.41 151.63,-157.54"/>
</g>
<!-- 20 -->
<g id="node7" class="node">
<title>20</title>
<polygon fill="#c3e1f7" stroke="black" points="342.5,-155 175.5,-155 175.5,-72 342.5,-72 342.5,-155"/>
<text text-anchor="middle" x="259" y="-139.8" font-family="Times,serif" font-size="14.00">graphSize &lt;= 22.5</text>
<text text-anchor="middle" x="259" y="-124.8" font-family="Times,serif" font-size="14.00">gini = 0.484</text>
<text text-anchor="middle" x="259" y="-109.8" font-family="Times,serif" font-size="14.00">samples = 12452</text>
<text text-anchor="middle" x="259" y="-94.8" font-family="Times,serif" font-size="14.00">value = [5118, 7334]</text>
<text text-anchor="middle" x="259" y="-79.8" font-family="Times,serif" font-size="14.00">class = True</text>
</g>
<!-- 2&#45;&gt;20 -->
<g id="edge6" class="edge">
<title>2&#45;&gt;20</title>
<path fill="none" stroke="black" d="M259,-190.91C259,-182.65 259,-173.86 259,-165.3"/>
<polygon fill="black" stroke="black" points="262.5,-165.02 259,-155.02 255.5,-165.02 262.5,-165.02"/>
</g>
<!-- 4 -->
<g id="node5" class="node">
<title>4</title>
<polygon fill="#c0c0c0" stroke="black" points="70,-36 16,-36 16,0 70,0 70,-36"/>
<text text-anchor="middle" x="43" y="-14.3" font-family="Times,serif" font-size="14.00">(...)</text>
</g>
<!-- 3&#45;&gt;4 -->
<g id="edge4" class="edge">
<title>3&#45;&gt;4</title>
<path fill="none" stroke="black" d="M63.31,-71.76C59.96,-63.04 56.49,-54.04 53.39,-45.99"/>
<polygon fill="black" stroke="black" points="56.56,-44.48 49.7,-36.41 50.03,-46.99 56.56,-44.48"/>
</g>
<!-- 9 -->
<g id="node6" class="node">
<title>9</title>
<polygon fill="#c0c0c0" stroke="black" points="142,-36 88,-36 88,0 142,0 142,-36"/>
<text text-anchor="middle" x="115" y="-14.3" font-family="Times,serif" font-size="14.00">(...)</text>
</g>
<!-- 3&#45;&gt;9 -->
<g id="edge5" class="edge">
<title>3&#45;&gt;9</title>
<path fill="none" stroke="black" d="M94.69,-71.76C98.04,-63.04 101.51,-54.04 104.61,-45.99"/>
<polygon fill="black" stroke="black" points="107.97,-46.99 108.3,-36.41 101.44,-44.48 107.97,-46.99"/>
</g>
<!-- 21 -->
<g id="node8" class="node">
<title>21</title>
<polygon fill="#c0c0c0" stroke="black" points="262,-36 208,-36 208,0 262,0 262,-36"/>
<text text-anchor="middle" x="235" y="-14.3" font-family="Times,serif" font-size="14.00">(...)</text>
</g>
<!-- 20&#45;&gt;21 -->
<g id="edge7" class="edge">
<title>20&#45;&gt;21</title>
<path fill="none" stroke="black" d="M248.54,-71.76C246.33,-63.14 244.05,-54.24 242,-46.26"/>
<polygon fill="black" stroke="black" points="245.34,-45.22 239.47,-36.41 238.56,-46.96 245.34,-45.22"/>
</g>
<!-- 50 -->
<g id="node9" class="node">
<title>50</title>
<polygon fill="#c0c0c0" stroke="black" points="334,-36 280,-36 280,0 334,0 334,-36"/>
<text text-anchor="middle" x="307" y="-14.3" font-family="Times,serif" font-size="14.00">(...)</text>
</g>
<!-- 20&#45;&gt;50 -->
<g id="edge8" class="edge">
<title>20&#45;&gt;50</title>
<path fill="none" stroke="black" d="M279.91,-71.76C284.49,-62.85 289.22,-53.64 293.42,-45.46"/>
<polygon fill="black" stroke="black" points="296.61,-46.9 298.06,-36.41 290.38,-43.7 296.61,-46.9"/>
</g>
<!-- 230 -->
<g id="node11" class="node">
<title>230</title>
<polygon fill="#eaf5fc" stroke="black" points="545.5,-155 360.5,-155 360.5,-72 545.5,-72 545.5,-155"/>
<text text-anchor="middle" x="453" y="-139.8" font-family="Times,serif" font-size="14.00">graphDepth &lt;= 3.5</text>
<text text-anchor="middle" x="453" y="-124.8" font-family="Times,serif" font-size="14.00">gini = 0.498</text>
<text text-anchor="middle" x="453" y="-109.8" font-family="Times,serif" font-size="14.00">samples = 21742</text>
<text text-anchor="middle" x="453" y="-94.8" font-family="Times,serif" font-size="14.00">value = [10268, 11474]</text>
<text text-anchor="middle" x="453" y="-79.8" font-family="Times,serif" font-size="14.00">class = True</text>
</g>
<!-- 229&#45;&gt;230 -->
<g id="edge10" class="edge">
<title>229&#45;&gt;230</title>
<path fill="none" stroke="black" d="M513.08,-190.91C506.02,-181.92 498.46,-172.32 491.18,-163.05"/>
<polygon fill="black" stroke="black" points="493.8,-160.72 484.86,-155.02 488.29,-165.05 493.8,-160.72"/>
</g>
<!-- 289 -->
<g id="node14" class="node">
<title>289</title>
<polygon fill="#cfe7f9" stroke="black" points="730.5,-155 563.5,-155 563.5,-72 730.5,-72 730.5,-155"/>
<text text-anchor="middle" x="647" y="-139.8" font-family="Times,serif" font-size="14.00">sdComp &lt;= 0.065</text>
<text text-anchor="middle" x="647" y="-124.8" font-family="Times,serif" font-size="14.00">gini = 0.491</text>
<text text-anchor="middle" x="647" y="-109.8" font-family="Times,serif" font-size="14.00">samples = 12276</text>
<text text-anchor="middle" x="647" y="-94.8" font-family="Times,serif" font-size="14.00">value = [5292, 6984]</text>
<text text-anchor="middle" x="647" y="-79.8" font-family="Times,serif" font-size="14.00">class = True</text>
</g>
<!-- 229&#45;&gt;289 -->
<g id="edge13" class="edge">
<title>229&#45;&gt;289</title>
<path fill="none" stroke="black" d="M580.39,-190.91C588.3,-181.83 596.77,-172.12 604.92,-162.77"/>
<polygon fill="black" stroke="black" points="607.74,-164.86 611.67,-155.02 602.46,-160.26 607.74,-164.86"/>
</g>
<!-- 231 -->
<g id="node12" class="node">
<title>231</title>
<polygon fill="#c0c0c0" stroke="black" points="431,-36 377,-36 377,0 431,0 431,-36"/>
<text text-anchor="middle" x="404" y="-14.3" font-family="Times,serif" font-size="14.00">(...)</text>
</g>
<!-- 230&#45;&gt;231 -->
<g id="edge11" class="edge">
<title>230&#45;&gt;231</title>
<path fill="none" stroke="black" d="M431.65,-71.76C426.98,-62.85 422.15,-53.64 417.87,-45.46"/>
<polygon fill="black" stroke="black" points="420.86,-43.64 413.12,-36.41 414.66,-46.89 420.86,-43.64"/>
</g>
<!-- 260 -->
<g id="node13" class="node">
<title>260</title>
<polygon fill="#c0c0c0" stroke="black" points="503,-36 449,-36 449,0 503,0 503,-36"/>
<text text-anchor="middle" x="476" y="-14.3" font-family="Times,serif" font-size="14.00">(...)</text>
</g>
<!-- 230&#45;&gt;260 -->
<g id="edge12" class="edge">
<title>230&#45;&gt;260</title>
<path fill="none" stroke="black" d="M463.02,-71.76C465.14,-63.14 467.33,-54.24 469.29,-46.26"/>
<polygon fill="black" stroke="black" points="472.73,-46.95 471.72,-36.41 465.93,-45.28 472.73,-46.95"/>
</g>
<!-- 290 -->
<g id="node15" class="node">
<title>290</title>
<polygon fill="#c0c0c0" stroke="black" points="622,-36 568,-36 568,0 622,0 622,-36"/>
<text text-anchor="middle" x="595" y="-14.3" font-family="Times,serif" font-size="14.00">(...)</text>
</g>
<!-- 289&#45;&gt;290 -->
<g id="edge14" class="edge">
<title>289&#45;&gt;290</title>
<path fill="none" stroke="black" d="M624.34,-71.76C619.33,-62.75 614.15,-53.44 609.57,-45.19"/>
<polygon fill="black" stroke="black" points="612.6,-43.44 604.68,-36.41 606.48,-46.85 612.6,-43.44"/>
</g>
<!-- 361 -->
<g id="node16" class="node">
<title>361</title>
<polygon fill="#c0c0c0" stroke="black" points="694,-36 640,-36 640,0 694,0 694,-36"/>
<text text-anchor="middle" x="667" y="-14.3" font-family="Times,serif" font-size="14.00">(...)</text>
</g>
<!-- 289&#45;&gt;361 -->
<g id="edge15" class="edge">
<title>289&#45;&gt;361</title>
<path fill="none" stroke="black" d="M655.71,-71.76C657.56,-63.14 659.46,-54.24 661.17,-46.26"/>
<polygon fill="black" stroke="black" points="664.61,-46.92 663.28,-36.41 657.76,-45.45 664.61,-46.92"/>
</g>
<!-- 469 -->
<g id="node18" class="node">
<title>469</title>
<polygon fill="#94caf1" stroke="black" points="1003.5,-274 836.5,-274 836.5,-191 1003.5,-191 1003.5,-274"/>
<text text-anchor="middle" x="920" y="-258.8" font-family="Times,serif" font-size="14.00">graphSize &lt;= 40.0</text>
<text text-anchor="middle" x="920" y="-243.8" font-family="Times,serif" font-size="14.00">gini = 0.432</text>
<text text-anchor="middle" x="920" y="-228.8" font-family="Times,serif" font-size="14.00">samples = 10341</text>
<text text-anchor="middle" x="920" y="-213.8" font-family="Times,serif" font-size="14.00">value = [3259, 7082]</text>
<text text-anchor="middle" x="920" y="-198.8" font-family="Times,serif" font-size="14.00">class = True</text>
</g>
<!-- 468&#45;&gt;469 -->
<g id="edge17" class="edge">
<title>468&#45;&gt;469</title>
<path fill="none" stroke="black" d="M920,-309.91C920,-301.65 920,-292.86 920,-284.3"/>
<polygon fill="black" stroke="black" points="923.5,-284.02 920,-274.02 916.5,-284.02 923.5,-284.02"/>
</g>
<!-- 614 -->
<g id="node25" class="node">
<title>614</title>
<polygon fill="#47a4e7" stroke="black" points="1267,-274 1109,-274 1109,-191 1267,-191 1267,-274"/>
<text text-anchor="middle" x="1188" y="-258.8" font-family="Times,serif" font-size="14.00">sdComp &lt;= 6.5</text>
<text text-anchor="middle" x="1188" y="-243.8" font-family="Times,serif" font-size="14.00">gini = 0.125</text>
<text text-anchor="middle" x="1188" y="-228.8" font-family="Times,serif" font-size="14.00">samples = 2478</text>
<text text-anchor="middle" x="1188" y="-213.8" font-family="Times,serif" font-size="14.00">value = [166, 2312]</text>
<text text-anchor="middle" x="1188" y="-198.8" font-family="Times,serif" font-size="14.00">class = True</text>
</g>
<!-- 468&#45;&gt;614 -->
<g id="edge24" class="edge">
<title>468&#45;&gt;614</title>
<path fill="none" stroke="black" d="M1003.69,-313.96C1034.04,-300.72 1068.4,-285.71 1099.17,-272.28"/>
<polygon fill="black" stroke="black" points="1100.83,-275.37 1108.6,-268.16 1098.03,-268.96 1100.83,-275.37"/>
</g>
<!-- 470 -->
<g id="node19" class="node">
<title>470</title>
<polygon fill="#9ecff2" stroke="black" points="915.5,-155 748.5,-155 748.5,-72 915.5,-72 915.5,-155"/>
<text text-anchor="middle" x="832" y="-139.8" font-family="Times,serif" font-size="14.00">nbproc &lt;= 4.5</text>
<text text-anchor="middle" x="832" y="-124.8" font-family="Times,serif" font-size="14.00">gini = 0.447</text>
<text text-anchor="middle" x="832" y="-109.8" font-family="Times,serif" font-size="14.00">samples = 8243</text>
<text text-anchor="middle" x="832" y="-94.8" font-family="Times,serif" font-size="14.00">value = [2781, 5462]</text>
<text text-anchor="middle" x="832" y="-79.8" font-family="Times,serif" font-size="14.00">class = True</text>
</g>
<!-- 469&#45;&gt;470 -->
<g id="edge18" class="edge">
<title>469&#45;&gt;470</title>
<path fill="none" stroke="black" d="M889.47,-190.91C882.71,-181.92 875.48,-172.32 868.52,-163.05"/>
<polygon fill="black" stroke="black" points="871.29,-160.91 862.48,-155.02 865.69,-165.12 871.29,-160.91"/>
</g>
<!-- 543 -->
<g id="node22" class="node">
<title>543</title>
<polygon fill="#73baed" stroke="black" points="1091,-155 933,-155 933,-72 1091,-72 1091,-155"/>
<text text-anchor="middle" x="1012" y="-139.8" font-family="Times,serif" font-size="14.00">sdComp &lt;= 2.0</text>
<text text-anchor="middle" x="1012" y="-124.8" font-family="Times,serif" font-size="14.00">gini = 0.352</text>
<text text-anchor="middle" x="1012" y="-109.8" font-family="Times,serif" font-size="14.00">samples = 2098</text>
<text text-anchor="middle" x="1012" y="-94.8" font-family="Times,serif" font-size="14.00">value = [478, 1620]</text>
<text text-anchor="middle" x="1012" y="-79.8" font-family="Times,serif" font-size="14.00">class = True</text>
</g>
<!-- 469&#45;&gt;543 -->
<g id="edge21" class="edge">
<title>469&#45;&gt;543</title>
<path fill="none" stroke="black" d="M951.92,-190.91C958.98,-181.92 966.54,-172.32 973.82,-163.05"/>
<polygon fill="black" stroke="black" points="976.71,-165.05 980.14,-155.02 971.2,-160.72 976.71,-165.05"/>
</g>
<!-- 471 -->
<g id="node20" class="node">
<title>471</title>
<polygon fill="#c0c0c0" stroke="black" points="805,-36 751,-36 751,0 805,0 805,-36"/>
<text text-anchor="middle" x="778" y="-14.3" font-family="Times,serif" font-size="14.00">(...)</text>
</g>
<!-- 470&#45;&gt;471 -->
<g id="edge19" class="edge">
<title>470&#45;&gt;471</title>
<path fill="none" stroke="black" d="M808.47,-71.76C803.27,-62.75 797.89,-53.44 793.13,-45.19"/>
<polygon fill="black" stroke="black" points="796.08,-43.31 788.05,-36.41 790.02,-46.82 796.08,-43.31"/>
</g>
<!-- 508 -->
<g id="node21" class="node">
<title>508</title>
<polygon fill="#c0c0c0" stroke="black" points="877,-36 823,-36 823,0 877,0 877,-36"/>
<text text-anchor="middle" x="850" y="-14.3" font-family="Times,serif" font-size="14.00">(...)</text>
</g>
<!-- 470&#45;&gt;508 -->
<g id="edge20" class="edge">
<title>470&#45;&gt;508</title>
<path fill="none" stroke="black" d="M839.84,-71.76C841.5,-63.14 843.22,-54.24 844.75,-46.26"/>
<polygon fill="black" stroke="black" points="848.2,-46.89 846.65,-36.41 841.32,-45.56 848.2,-46.89"/>
</g>
<!-- 544 -->
<g id="node23" class="node">
<title>544</title>
<polygon fill="#c0c0c0" stroke="black" points="983,-36 929,-36 929,0 983,0 983,-36"/>
<text text-anchor="middle" x="956" y="-14.3" font-family="Times,serif" font-size="14.00">(...)</text>
</g>
<!-- 543&#45;&gt;544 -->
<g id="edge22" class="edge">
<title>543&#45;&gt;544</title>
<path fill="none" stroke="black" d="M987.6,-71.76C982.2,-62.75 976.63,-53.44 971.69,-45.19"/>
<polygon fill="black" stroke="black" points="974.57,-43.19 966.42,-36.41 968.56,-46.78 974.57,-43.19"/>
</g>
<!-- 595 -->
<g id="node24" class="node">
<title>595</title>
<polygon fill="#c0c0c0" stroke="black" points="1055,-36 1001,-36 1001,0 1055,0 1055,-36"/>
<text text-anchor="middle" x="1028" y="-14.3" font-family="Times,serif" font-size="14.00">(...)</text>
</g>
<!-- 543&#45;&gt;595 -->
<g id="edge23" class="edge">
<title>543&#45;&gt;595</title>
<path fill="none" stroke="black" d="M1018.97,-71.76C1020.43,-63.24 1021.94,-54.44 1023.29,-46.53"/>
<polygon fill="black" stroke="black" points="1026.78,-46.85 1025.02,-36.41 1019.88,-45.67 1026.78,-46.85"/>
</g>
<!-- 615 -->
<g id="node26" class="node">
<title>615</title>
<polygon fill="#3d9fe6" stroke="black" points="1267,-155 1109,-155 1109,-72 1267,-72 1267,-155"/>
<text text-anchor="middle" x="1188" y="-139.8" font-family="Times,serif" font-size="14.00">graphDepth &lt;= 3.5</text>
<text text-anchor="middle" x="1188" y="-124.8" font-family="Times,serif" font-size="14.00">gini = 0.039</text>
<text text-anchor="middle" x="1188" y="-109.8" font-family="Times,serif" font-size="14.00">samples = 1792</text>
<text text-anchor="middle" x="1188" y="-94.8" font-family="Times,serif" font-size="14.00">value = [36, 1756]</text>
<text text-anchor="middle" x="1188" y="-79.8" font-family="Times,serif" font-size="14.00">class = True</text>
</g>
<!-- 614&#45;&gt;615 -->
<g id="edge25" class="edge">
<title>614&#45;&gt;615</title>
<path fill="none" stroke="black" d="M1188,-190.91C1188,-182.65 1188,-173.86 1188,-165.3"/>
<polygon fill="black" stroke="black" points="1191.5,-165.02 1188,-155.02 1184.5,-165.02 1191.5,-165.02"/>
</g>
<!-- 648 -->
<g id="node29" class="node">
<title>648</title>
<polygon fill="#67b4eb" stroke="black" points="1433.5,-155 1284.5,-155 1284.5,-72 1433.5,-72 1433.5,-155"/>
<text text-anchor="middle" x="1359" y="-139.8" font-family="Times,serif" font-size="14.00">nbproc &lt;= 4.5</text>
<text text-anchor="middle" x="1359" y="-124.8" font-family="Times,serif" font-size="14.00">gini = 0.307</text>
<text text-anchor="middle" x="1359" y="-109.8" font-family="Times,serif" font-size="14.00">samples = 686</text>
<text text-anchor="middle" x="1359" y="-94.8" font-family="Times,serif" font-size="14.00">value = [130, 556]</text>
<text text-anchor="middle" x="1359" y="-79.8" font-family="Times,serif" font-size="14.00">class = True</text>
</g>
<!-- 614&#45;&gt;648 -->
<g id="edge28" class="edge">
<title>614&#45;&gt;648</title>
<path fill="none" stroke="black" d="M1247.33,-190.91C1261.52,-181.2 1276.78,-170.76 1291.31,-160.81"/>
<polygon fill="black" stroke="black" points="1293.5,-163.56 1299.78,-155.02 1289.55,-157.78 1293.5,-163.56"/>
</g>
<!-- 616 -->
<g id="node27" class="node">
<title>616</title>
<polygon fill="#c0c0c0" stroke="black" points="1174,-36 1120,-36 1120,0 1174,0 1174,-36"/>
<text text-anchor="middle" x="1147" y="-14.3" font-family="Times,serif" font-size="14.00">(...)</text>
</g>
<!-- 615&#45;&gt;616 -->
<g id="edge26" class="edge">
<title>615&#45;&gt;616</title>
<path fill="none" stroke="black" d="M1170.14,-71.76C1166.27,-62.94 1162.28,-53.84 1158.72,-45.72"/>
<polygon fill="black" stroke="black" points="1161.85,-44.16 1154.63,-36.41 1155.44,-46.97 1161.85,-44.16"/>
</g>
<!-- 621 -->
<g id="node28" class="node">
<title>621</title>
<polygon fill="#c0c0c0" stroke="black" points="1246,-36 1192,-36 1192,0 1246,0 1246,-36"/>
<text text-anchor="middle" x="1219" y="-14.3" font-family="Times,serif" font-size="14.00">(...)</text>
</g>
<!-- 615&#45;&gt;621 -->
<g id="edge27" class="edge">
<title>615&#45;&gt;621</title>
<path fill="none" stroke="black" d="M1201.51,-71.76C1204.4,-63.04 1207.38,-54.04 1210.05,-45.99"/>
<polygon fill="black" stroke="black" points="1213.4,-47 1213.23,-36.41 1206.76,-44.8 1213.4,-47"/>
</g>
<!-- 649 -->
<g id="node30" class="node">
<title>649</title>
<polygon fill="#c0c0c0" stroke="black" points="1350,-36 1296,-36 1296,0 1350,0 1350,-36"/>
<text text-anchor="middle" x="1323" y="-14.3" font-family="Times,serif" font-size="14.00">(...)</text>
</g>
<!-- 648&#45;&gt;649 -->
<g id="edge29" class="edge">
<title>648&#45;&gt;649</title>
<path fill="none" stroke="black" d="M1343.31,-71.76C1339.96,-63.04 1336.49,-54.04 1333.39,-45.99"/>
<polygon fill="black" stroke="black" points="1336.56,-44.48 1329.7,-36.41 1330.03,-46.99 1336.56,-44.48"/>
</g>
<!-- 666 -->
<g id="node31" class="node">
<title>666</title>
<polygon fill="#c0c0c0" stroke="black" points="1422,-36 1368,-36 1368,0 1422,0 1422,-36"/>
<text text-anchor="middle" x="1395" y="-14.3" font-family="Times,serif" font-size="14.00">(...)</text>
</g>
<!-- 648&#45;&gt;666 -->
<g id="edge30" class="edge">
<title>648&#45;&gt;666</title>
<path fill="none" stroke="black" d="M1374.69,-71.76C1378.04,-63.04 1381.51,-54.04 1384.61,-45.99"/>
<polygon fill="black" stroke="black" points="1387.97,-46.99 1388.3,-36.41 1381.44,-44.48 1387.97,-46.99"/>
</g>
</g>
</svg>
