<?xml version="1.0" encoding="UTF-8" standalone="no"?>
<!DOCTYPE svg PUBLIC "-//W3C//DTD SVG 1.1//EN"
 "http://www.w3.org/Graphics/SVG/1.1/DTD/svg11.dtd">
<!-- Generated by graphviz version 2.43.0 (0)
 -->
<!-- Title: Tree Pages: 1 -->
<svg width="2783pt" height="520pt"
 viewBox="0.00 0.00 2783.00 520.00" xmlns="http://www.w3.org/2000/svg" xmlns:xlink="http://www.w3.org/1999/xlink">
<g id="graph0" class="graph" transform="scale(1 1) rotate(0) translate(4 516)">
<title>Tree</title>
<polygon fill="white" stroke="transparent" points="-4,4 -4,-516 2779,-516 2779,4 -4,4"/>
<!-- 0 -->
<g id="node1" class="node">
<title>0</title>
<polygon fill="#fffdfc" stroke="black" points="1710.5,-512 1300.5,-512 1300.5,-429 1710.5,-429 1710.5,-512"/>
<text text-anchor="middle" x="1505.5" y="-496.8" font-family="Times,serif" font-size="14.00">CCR &lt;= 5.5</text>
<text text-anchor="middle" x="1505.5" y="-481.8" font-family="Times,serif" font-size="14.00">gini = 0.846</text>
<text text-anchor="middle" x="1505.5" y="-466.8" font-family="Times,serif" font-size="14.00">samples = 60577</text>
<text text-anchor="middle" x="1505.5" y="-451.8" font-family="Times,serif" font-size="14.00">value = [10993, 8992, 3182, 8410, 8958, 10135, 9907]</text>
<text text-anchor="middle" x="1505.5" y="-436.8" font-family="Times,serif" font-size="14.00">class = rku</text>
</g>
<!-- 1 -->
<g id="node2" class="node">
<title>1</title>
<polygon fill="#fffdfc" stroke="black" points="1353,-393 952,-393 952,-310 1353,-310 1353,-393"/>
<text text-anchor="middle" x="1152.5" y="-377.8" font-family="Times,serif" font-size="14.00">graphSize &lt;= 40.0</text>
<text text-anchor="middle" x="1152.5" y="-362.8" font-family="Times,serif" font-size="14.00">gini = 0.845</text>
<text text-anchor="middle" x="1152.5" y="-347.8" font-family="Times,serif" font-size="14.00">samples = 55185</text>
<text text-anchor="middle" x="1152.5" y="-332.8" font-family="Times,serif" font-size="14.00">value = [10171, 6956, 2726, 8104, 8590, 9451, 9187]</text>
<text text-anchor="middle" x="1152.5" y="-317.8" font-family="Times,serif" font-size="14.00">class = rku</text>
</g>
<!-- 0&#45;&gt;1 -->
<g id="edge1" class="edge">
<title>0&#45;&gt;1</title>
<path fill="none" stroke="black" d="M1383.03,-428.91C1351.13,-418.33 1316.63,-406.9 1284.27,-396.17"/>
<polygon fill="black" stroke="black" points="1285.35,-392.84 1274.76,-393.02 1283.15,-399.49 1285.35,-392.84"/>
<text text-anchor="middle" x="1285.97" y="-411.66" font-family="Times,serif" font-size="14.00">True</text>
</g>
<!-- 576 -->
<g id="node17" class="node">
<title>576</title>
<polygon fill="#ecf8ca" stroke="black" points="2010.5,-393 1672.5,-393 1672.5,-310 2010.5,-310 2010.5,-393"/>
<text text-anchor="middle" x="1841.5" y="-377.8" font-family="Times,serif" font-size="14.00">sdComp &lt;= 6.5</text>
<text text-anchor="middle" x="1841.5" y="-362.8" font-family="Times,serif" font-size="14.00">gini = 0.785</text>
<text text-anchor="middle" x="1841.5" y="-347.8" font-family="Times,serif" font-size="14.00">samples = 5392</text>
<text text-anchor="middle" x="1841.5" y="-332.8" font-family="Times,serif" font-size="14.00">value = [822, 2036, 456, 306, 368, 684, 720]</text>
<text text-anchor="middle" x="1841.5" y="-317.8" font-family="Times,serif" font-size="14.00">class = random</text>
</g>
<!-- 0&#45;&gt;576 -->
<g id="edge16" class="edge">
<title>0&#45;&gt;576</title>
<path fill="none" stroke="black" d="M1622.07,-428.91C1652.31,-418.38 1685,-407 1715.68,-396.31"/>
<polygon fill="black" stroke="black" points="1716.84,-399.61 1725.13,-393.02 1714.54,-393 1716.84,-399.61"/>
<text text-anchor="middle" x="1714.25" y="-411.83" font-family="Times,serif" font-size="14.00">False</text>
</g>
<!-- 2 -->
<g id="node3" class="node">
<title>2</title>
<polygon fill="#fffefe" stroke="black" points="792.5,-274 400.5,-274 400.5,-191 792.5,-191 792.5,-274"/>
<text text-anchor="middle" x="596.5" y="-258.8" font-family="Times,serif" font-size="14.00">nbproc &lt;= 4.5</text>
<text text-anchor="middle" x="596.5" y="-243.8" font-family="Times,serif" font-size="14.00">gini = 0.843</text>
<text text-anchor="middle" x="596.5" y="-228.8" font-family="Times,serif" font-size="14.00">samples = 46965</text>
<text text-anchor="middle" x="596.5" y="-213.8" font-family="Times,serif" font-size="14.00">value = [8135, 6402, 1686, 7228, 7716, 7931, 7867]</text>
<text text-anchor="middle" x="596.5" y="-198.8" font-family="Times,serif" font-size="14.00">class = rku</text>
</g>
<!-- 1&#45;&gt;2 -->
<g id="edge2" class="edge">
<title>1&#45;&gt;2</title>
<path fill="none" stroke="black" d="M959.99,-309.99C908.11,-299.07 851.83,-287.23 799.4,-276.2"/>
<polygon fill="black" stroke="black" points="799.82,-272.71 789.32,-274.07 798.38,-279.56 799.82,-272.71"/>
</g>
<!-- 289 -->
<g id="node10" class="node">
<title>289</title>
<polygon fill="#fdf5f0" stroke="black" points="1335,-274 970,-274 970,-191 1335,-191 1335,-274"/>
<text text-anchor="middle" x="1152.5" y="-258.8" font-family="Times,serif" font-size="14.00">nbproc &lt;= 4.5</text>
<text text-anchor="middle" x="1152.5" y="-243.8" font-family="Times,serif" font-size="14.00">gini = 0.835</text>
<text text-anchor="middle" x="1152.5" y="-228.8" font-family="Times,serif" font-size="14.00">samples = 8220</text>
<text text-anchor="middle" x="1152.5" y="-213.8" font-family="Times,serif" font-size="14.00">value = [2036, 554, 1040, 876, 874, 1520, 1320]</text>
<text text-anchor="middle" x="1152.5" y="-198.8" font-family="Times,serif" font-size="14.00">class = rku</text>
</g>
<!-- 1&#45;&gt;289 -->
<g id="edge9" class="edge">
<title>1&#45;&gt;289</title>
<path fill="none" stroke="black" d="M1152.5,-309.91C1152.5,-301.65 1152.5,-292.86 1152.5,-284.3"/>
<polygon fill="black" stroke="black" points="1156,-284.02 1152.5,-274.02 1149,-284.02 1156,-284.02"/>
</g>
<!-- 3 -->
<g id="node4" class="node">
<title>3</title>
<polygon fill="#fdfdff" stroke="black" points="383,-155 0,-155 0,-72 383,-72 383,-155"/>
<text text-anchor="middle" x="191.5" y="-139.8" font-family="Times,serif" font-size="14.00">sdComp &lt;= 0.2</text>
<text text-anchor="middle" x="191.5" y="-124.8" font-family="Times,serif" font-size="14.00">gini = 0.838</text>
<text text-anchor="middle" x="191.5" y="-109.8" font-family="Times,serif" font-size="14.00">samples = 13221</text>
<text text-anchor="middle" x="191.5" y="-94.8" font-family="Times,serif" font-size="14.00">value = [2041, 1372, 528, 2610, 2708, 2087, 1875]</text>
<text text-anchor="middle" x="191.5" y="-79.8" font-family="Times,serif" font-size="14.00">class = cluHPS</text>
</g>
<!-- 2&#45;&gt;3 -->
<g id="edge3" class="edge">
<title>2&#45;&gt;3</title>
<path fill="none" stroke="black" d="M456.27,-190.99C419.35,-180.32 379.36,-168.77 341.92,-157.96"/>
<polygon fill="black" stroke="black" points="342.53,-154.49 331.95,-155.07 340.59,-161.21 342.53,-154.49"/>
</g>
<!-- 146 -->
<g id="node7" class="node">
<title>146</title>
<polygon fill="#fffffe" stroke="black" points="792.5,-155 400.5,-155 400.5,-72 792.5,-72 792.5,-155"/>
<text text-anchor="middle" x="596.5" y="-139.8" font-family="Times,serif" font-size="14.00">sdComm &lt;= 0.02</text>
<text text-anchor="middle" x="596.5" y="-124.8" font-family="Times,serif" font-size="14.00">gini = 0.842</text>
<text text-anchor="middle" x="596.5" y="-109.8" font-family="Times,serif" font-size="14.00">samples = 33744</text>
<text text-anchor="middle" x="596.5" y="-94.8" font-family="Times,serif" font-size="14.00">value = [6094, 5030, 1158, 4618, 5008, 5844, 5992]</text>
<text text-anchor="middle" x="596.5" y="-79.8" font-family="Times,serif" font-size="14.00">class = rku</text>
</g>
<!-- 2&#45;&gt;146 -->
<g id="edge6" class="edge">
<title>2&#45;&gt;146</title>
<path fill="none" stroke="black" d="M596.5,-190.91C596.5,-182.65 596.5,-173.86 596.5,-165.3"/>
<polygon fill="black" stroke="black" points="600,-165.02 596.5,-155.02 593,-165.02 600,-165.02"/>
</g>
<!-- 4 -->
<g id="node5" class="node">
<title>4</title>
<polygon fill="#c0c0c0" stroke="black" points="182.5,-36 128.5,-36 128.5,0 182.5,0 182.5,-36"/>
<text text-anchor="middle" x="155.5" y="-14.3" font-family="Times,serif" font-size="14.00">(...)</text>
</g>
<!-- 3&#45;&gt;4 -->
<g id="edge4" class="edge">
<title>3&#45;&gt;4</title>
<path fill="none" stroke="black" d="M175.81,-71.76C172.46,-63.04 168.99,-54.04 165.89,-45.99"/>
<polygon fill="black" stroke="black" points="169.06,-44.48 162.2,-36.41 162.53,-46.99 169.06,-44.48"/>
</g>
<!-- 99 -->
<g id="node6" class="node">
<title>99</title>
<polygon fill="#c0c0c0" stroke="black" points="254.5,-36 200.5,-36 200.5,0 254.5,0 254.5,-36"/>
<text text-anchor="middle" x="227.5" y="-14.3" font-family="Times,serif" font-size="14.00">(...)</text>
</g>
<!-- 3&#45;&gt;99 -->
<g id="edge5" class="edge">
<title>3&#45;&gt;99</title>
<path fill="none" stroke="black" d="M207.19,-71.76C210.54,-63.04 214.01,-54.04 217.11,-45.99"/>
<polygon fill="black" stroke="black" points="220.47,-46.99 220.8,-36.41 213.94,-44.48 220.47,-46.99"/>
</g>
<!-- 147 -->
<g id="node8" class="node">
<title>147</title>
<polygon fill="#c0c0c0" stroke="black" points="587.5,-36 533.5,-36 533.5,0 587.5,0 587.5,-36"/>
<text text-anchor="middle" x="560.5" y="-14.3" font-family="Times,serif" font-size="14.00">(...)</text>
</g>
<!-- 146&#45;&gt;147 -->
<g id="edge7" class="edge">
<title>146&#45;&gt;147</title>
<path fill="none" stroke="black" d="M580.81,-71.76C577.46,-63.04 573.99,-54.04 570.89,-45.99"/>
<polygon fill="black" stroke="black" points="574.06,-44.48 567.2,-36.41 567.53,-46.99 574.06,-44.48"/>
</g>
<!-- 170 -->
<g id="node9" class="node">
<title>170</title>
<polygon fill="#c0c0c0" stroke="black" points="659.5,-36 605.5,-36 605.5,0 659.5,0 659.5,-36"/>
<text text-anchor="middle" x="632.5" y="-14.3" font-family="Times,serif" font-size="14.00">(...)</text>
</g>
<!-- 146&#45;&gt;170 -->
<g id="edge8" class="edge">
<title>146&#45;&gt;170</title>
<path fill="none" stroke="black" d="M612.19,-71.76C615.54,-63.04 619.01,-54.04 622.11,-45.99"/>
<polygon fill="black" stroke="black" points="625.47,-46.99 625.8,-36.41 618.94,-44.48 625.47,-46.99"/>
</g>
<!-- 290 -->
<g id="node11" class="node">
<title>290</title>
<polygon fill="#fdf3ec" stroke="black" points="1148.5,-155 810.5,-155 810.5,-72 1148.5,-72 1148.5,-155"/>
<text text-anchor="middle" x="979.5" y="-139.8" font-family="Times,serif" font-size="14.00">sdComp &lt;= 0.065</text>
<text text-anchor="middle" x="979.5" y="-124.8" font-family="Times,serif" font-size="14.00">gini = 0.806</text>
<text text-anchor="middle" x="979.5" y="-109.8" font-family="Times,serif" font-size="14.00">samples = 3314</text>
<text text-anchor="middle" x="979.5" y="-94.8" font-family="Times,serif" font-size="14.00">value = [1004, 170, 330, 244, 516, 760, 290]</text>
<text text-anchor="middle" x="979.5" y="-79.8" font-family="Times,serif" font-size="14.00">class = rku</text>
</g>
<!-- 289&#45;&gt;290 -->
<g id="edge10" class="edge">
<title>289&#45;&gt;290</title>
<path fill="none" stroke="black" d="M1092.48,-190.91C1078.12,-181.2 1062.69,-170.76 1047.98,-160.81"/>
<polygon fill="black" stroke="black" points="1049.66,-157.72 1039.42,-155.02 1045.74,-163.52 1049.66,-157.72"/>
</g>
<!-- 433 -->
<g id="node14" class="node">
<title>433</title>
<polygon fill="#ffffff" stroke="black" points="1513,-155 1166,-155 1166,-72 1513,-72 1513,-155"/>
<text text-anchor="middle" x="1339.5" y="-139.8" font-family="Times,serif" font-size="14.00">CCR &lt;= 0.55</text>
<text text-anchor="middle" x="1339.5" y="-124.8" font-family="Times,serif" font-size="14.00">gini = 0.839</text>
<text text-anchor="middle" x="1339.5" y="-109.8" font-family="Times,serif" font-size="14.00">samples = 4906</text>
<text text-anchor="middle" x="1339.5" y="-94.8" font-family="Times,serif" font-size="14.00">value = [1032, 384, 710, 632, 358, 760, 1030]</text>
<text text-anchor="middle" x="1339.5" y="-79.8" font-family="Times,serif" font-size="14.00">class = rku</text>
</g>
<!-- 289&#45;&gt;433 -->
<g id="edge13" class="edge">
<title>289&#45;&gt;433</title>
<path fill="none" stroke="black" d="M1217.38,-190.91C1233.04,-181.11 1249.9,-170.56 1265.93,-160.53"/>
<polygon fill="black" stroke="black" points="1268.11,-163.29 1274.74,-155.02 1264.4,-157.36 1268.11,-163.29"/>
</g>
<!-- 291 -->
<g id="node12" class="node">
<title>291</title>
<polygon fill="#c0c0c0" stroke="black" points="970.5,-36 916.5,-36 916.5,0 970.5,0 970.5,-36"/>
<text text-anchor="middle" x="943.5" y="-14.3" font-family="Times,serif" font-size="14.00">(...)</text>
</g>
<!-- 290&#45;&gt;291 -->
<g id="edge11" class="edge">
<title>290&#45;&gt;291</title>
<path fill="none" stroke="black" d="M963.81,-71.76C960.46,-63.04 956.99,-54.04 953.89,-45.99"/>
<polygon fill="black" stroke="black" points="957.06,-44.48 950.2,-36.41 950.53,-46.99 957.06,-44.48"/>
</g>
<!-- 338 -->
<g id="node13" class="node">
<title>338</title>
<polygon fill="#c0c0c0" stroke="black" points="1042.5,-36 988.5,-36 988.5,0 1042.5,0 1042.5,-36"/>
<text text-anchor="middle" x="1015.5" y="-14.3" font-family="Times,serif" font-size="14.00">(...)</text>
</g>
<!-- 290&#45;&gt;338 -->
<g id="edge12" class="edge">
<title>290&#45;&gt;338</title>
<path fill="none" stroke="black" d="M995.19,-71.76C998.54,-63.04 1002.01,-54.04 1005.11,-45.99"/>
<polygon fill="black" stroke="black" points="1008.47,-46.99 1008.8,-36.41 1001.94,-44.48 1008.47,-46.99"/>
</g>
<!-- 434 -->
<g id="node15" class="node">
<title>434</title>
<polygon fill="#c0c0c0" stroke="black" points="1330.5,-36 1276.5,-36 1276.5,0 1330.5,0 1330.5,-36"/>
<text text-anchor="middle" x="1303.5" y="-14.3" font-family="Times,serif" font-size="14.00">(...)</text>
</g>
<!-- 433&#45;&gt;434 -->
<g id="edge14" class="edge">
<title>433&#45;&gt;434</title>
<path fill="none" stroke="black" d="M1323.81,-71.76C1320.46,-63.04 1316.99,-54.04 1313.89,-45.99"/>
<polygon fill="black" stroke="black" points="1317.06,-44.48 1310.2,-36.41 1310.53,-46.99 1317.06,-44.48"/>
</g>
<!-- 505 -->
<g id="node16" class="node">
<title>505</title>
<polygon fill="#c0c0c0" stroke="black" points="1402.5,-36 1348.5,-36 1348.5,0 1402.5,0 1402.5,-36"/>
<text text-anchor="middle" x="1375.5" y="-14.3" font-family="Times,serif" font-size="14.00">(...)</text>
</g>
<!-- 433&#45;&gt;505 -->
<g id="edge15" class="edge">
<title>433&#45;&gt;505</title>
<path fill="none" stroke="black" d="M1355.19,-71.76C1358.54,-63.04 1362.01,-54.04 1365.11,-45.99"/>
<polygon fill="black" stroke="black" points="1368.47,-46.99 1368.8,-36.41 1361.94,-44.48 1368.47,-46.99"/>
</g>
<!-- 577 -->
<g id="node18" class="node">
<title>577</title>
<polygon fill="#e8f7bf" stroke="black" points="2010.5,-274 1672.5,-274 1672.5,-191 2010.5,-191 2010.5,-274"/>
<text text-anchor="middle" x="1841.5" y="-258.8" font-family="Times,serif" font-size="14.00">graphDepth &lt;= 25.5</text>
<text text-anchor="middle" x="1841.5" y="-243.8" font-family="Times,serif" font-size="14.00">gini = 0.746</text>
<text text-anchor="middle" x="1841.5" y="-228.8" font-family="Times,serif" font-size="14.00">samples = 3540</text>
<text text-anchor="middle" x="1841.5" y="-213.8" font-family="Times,serif" font-size="14.00">value = [548, 1520, 158, 162, 160, 488, 504]</text>
<text text-anchor="middle" x="1841.5" y="-198.8" font-family="Times,serif" font-size="14.00">class = random</text>
</g>
<!-- 576&#45;&gt;577 -->
<g id="edge17" class="edge">
<title>576&#45;&gt;577</title>
<path fill="none" stroke="black" d="M1841.5,-309.91C1841.5,-301.65 1841.5,-292.86 1841.5,-284.3"/>
<polygon fill="black" stroke="black" points="1845,-284.02 1841.5,-274.02 1838,-284.02 1845,-284.02"/>
</g>
<!-- 660 -->
<g id="node25" class="node">
<title>660</title>
<polygon fill="#f5fbe3" stroke="black" points="2500,-274 2171,-274 2171,-191 2500,-191 2500,-274"/>
<text text-anchor="middle" x="2335.5" y="-258.8" font-family="Times,serif" font-size="14.00">nbproc &lt;= 4.5</text>
<text text-anchor="middle" x="2335.5" y="-243.8" font-family="Times,serif" font-size="14.00">gini = 0.831</text>
<text text-anchor="middle" x="2335.5" y="-228.8" font-family="Times,serif" font-size="14.00">samples = 1852</text>
<text text-anchor="middle" x="2335.5" y="-213.8" font-family="Times,serif" font-size="14.00">value = [274, 516, 298, 144, 208, 196, 216]</text>
<text text-anchor="middle" x="2335.5" y="-198.8" font-family="Times,serif" font-size="14.00">class = random</text>
</g>
<!-- 576&#45;&gt;660 -->
<g id="edge24" class="edge">
<title>576&#45;&gt;660</title>
<path fill="none" stroke="black" d="M2010.82,-310.4C2059.29,-298.92 2112.2,-286.39 2160.98,-274.83"/>
<polygon fill="black" stroke="black" points="2162.07,-278.17 2171,-272.46 2160.46,-271.36 2162.07,-278.17"/>
</g>
<!-- 578 -->
<g id="node19" class="node">
<title>578</title>
<polygon fill="#eaf7c6" stroke="black" points="1868.5,-155 1530.5,-155 1530.5,-72 1868.5,-72 1868.5,-155"/>
<text text-anchor="middle" x="1699.5" y="-139.8" font-family="Times,serif" font-size="14.00">graphDepth &lt;= 9.0</text>
<text text-anchor="middle" x="1699.5" y="-124.8" font-family="Times,serif" font-size="14.00">gini = 0.763</text>
<text text-anchor="middle" x="1699.5" y="-109.8" font-family="Times,serif" font-size="14.00">samples = 3046</text>
<text text-anchor="middle" x="1699.5" y="-94.8" font-family="Times,serif" font-size="14.00">value = [476, 1220, 134, 152, 152, 440, 472]</text>
<text text-anchor="middle" x="1699.5" y="-79.8" font-family="Times,serif" font-size="14.00">class = random</text>
</g>
<!-- 577&#45;&gt;578 -->
<g id="edge18" class="edge">
<title>577&#45;&gt;578</title>
<path fill="none" stroke="black" d="M1792.23,-190.91C1780.78,-181.47 1768.49,-171.34 1756.72,-161.65"/>
<polygon fill="black" stroke="black" points="1758.62,-158.68 1748.68,-155.02 1754.17,-164.08 1758.62,-158.68"/>
</g>
<!-- 641 -->
<g id="node22" class="node">
<title>641</title>
<polygon fill="#d8f194" stroke="black" points="2152.5,-155 1886.5,-155 1886.5,-72 2152.5,-72 2152.5,-155"/>
<text text-anchor="middle" x="2019.5" y="-139.8" font-family="Times,serif" font-size="14.00">nbproc &lt;= 4.5</text>
<text text-anchor="middle" x="2019.5" y="-124.8" font-family="Times,serif" font-size="14.00">gini = 0.593</text>
<text text-anchor="middle" x="2019.5" y="-109.8" font-family="Times,serif" font-size="14.00">samples = 494</text>
<text text-anchor="middle" x="2019.5" y="-94.8" font-family="Times,serif" font-size="14.00">value = [72, 300, 24, 10, 8, 48, 32]</text>
<text text-anchor="middle" x="2019.5" y="-79.8" font-family="Times,serif" font-size="14.00">class = random</text>
</g>
<!-- 577&#45;&gt;641 -->
<g id="edge21" class="edge">
<title>577&#45;&gt;641</title>
<path fill="none" stroke="black" d="M1903.26,-190.91C1918.17,-181.11 1934.21,-170.56 1949.47,-160.53"/>
<polygon fill="black" stroke="black" points="1951.42,-163.44 1957.85,-155.02 1947.57,-157.59 1951.42,-163.44"/>
</g>
<!-- 579 -->
<g id="node20" class="node">
<title>579</title>
<polygon fill="#c0c0c0" stroke="black" points="1690.5,-36 1636.5,-36 1636.5,0 1690.5,0 1690.5,-36"/>
<text text-anchor="middle" x="1663.5" y="-14.3" font-family="Times,serif" font-size="14.00">(...)</text>
</g>
<!-- 578&#45;&gt;579 -->
<g id="edge19" class="edge">
<title>578&#45;&gt;579</title>
<path fill="none" stroke="black" d="M1683.81,-71.76C1680.46,-63.04 1676.99,-54.04 1673.89,-45.99"/>
<polygon fill="black" stroke="black" points="1677.06,-44.48 1670.2,-36.41 1670.53,-46.99 1677.06,-44.48"/>
</g>
<!-- 604 -->
<g id="node21" class="node">
<title>604</title>
<polygon fill="#c0c0c0" stroke="black" points="1762.5,-36 1708.5,-36 1708.5,0 1762.5,0 1762.5,-36"/>
<text text-anchor="middle" x="1735.5" y="-14.3" font-family="Times,serif" font-size="14.00">(...)</text>
</g>
<!-- 578&#45;&gt;604 -->
<g id="edge20" class="edge">
<title>578&#45;&gt;604</title>
<path fill="none" stroke="black" d="M1715.19,-71.76C1718.54,-63.04 1722.01,-54.04 1725.11,-45.99"/>
<polygon fill="black" stroke="black" points="1728.47,-46.99 1728.8,-36.41 1721.94,-44.48 1728.47,-46.99"/>
</g>
<!-- 642 -->
<g id="node23" class="node">
<title>642</title>
<polygon fill="#c0c0c0" stroke="black" points="2010.5,-36 1956.5,-36 1956.5,0 2010.5,0 2010.5,-36"/>
<text text-anchor="middle" x="1983.5" y="-14.3" font-family="Times,serif" font-size="14.00">(...)</text>
</g>
<!-- 641&#45;&gt;642 -->
<g id="edge22" class="edge">
<title>641&#45;&gt;642</title>
<path fill="none" stroke="black" d="M2003.81,-71.76C2000.46,-63.04 1996.99,-54.04 1993.89,-45.99"/>
<polygon fill="black" stroke="black" points="1997.06,-44.48 1990.2,-36.41 1990.53,-46.99 1997.06,-44.48"/>
</g>
<!-- 649 -->
<g id="node24" class="node">
<title>649</title>
<polygon fill="#c0c0c0" stroke="black" points="2082.5,-36 2028.5,-36 2028.5,0 2082.5,0 2082.5,-36"/>
<text text-anchor="middle" x="2055.5" y="-14.3" font-family="Times,serif" font-size="14.00">(...)</text>
</g>
<!-- 641&#45;&gt;649 -->
<g id="edge23" class="edge">
<title>641&#45;&gt;649</title>
<path fill="none" stroke="black" d="M2035.19,-71.76C2038.54,-63.04 2042.01,-54.04 2045.11,-45.99"/>
<polygon fill="black" stroke="black" points="2048.47,-46.99 2048.8,-36.41 2041.94,-44.48 2048.47,-46.99"/>
</g>
<!-- 661 -->
<g id="node26" class="node">
<title>661</title>
<polygon fill="#fef8f4" stroke="black" points="2500,-155 2171,-155 2171,-72 2500,-72 2500,-155"/>
<text text-anchor="middle" x="2335.5" y="-139.8" font-family="Times,serif" font-size="14.00">graphDepth &lt;= 6.5</text>
<text text-anchor="middle" x="2335.5" y="-124.8" font-family="Times,serif" font-size="14.00">gini = 0.847</text>
<text text-anchor="middle" x="2335.5" y="-109.8" font-family="Times,serif" font-size="14.00">samples = 1262</text>
<text text-anchor="middle" x="2335.5" y="-94.8" font-family="Times,serif" font-size="14.00">value = [266, 168, 128, 112, 192, 188, 208]</text>
<text text-anchor="middle" x="2335.5" y="-79.8" font-family="Times,serif" font-size="14.00">class = rku</text>
</g>
<!-- 660&#45;&gt;661 -->
<g id="edge25" class="edge">
<title>660&#45;&gt;661</title>
<path fill="none" stroke="black" d="M2335.5,-190.91C2335.5,-182.65 2335.5,-173.86 2335.5,-165.3"/>
<polygon fill="black" stroke="black" points="2339,-165.02 2335.5,-155.02 2332,-165.02 2339,-165.02"/>
</g>
<!-- 692 -->
<g id="node29" class="node">
<title>692</title>
<polygon fill="#e0f4ab" stroke="black" points="2775,-155 2518,-155 2518,-72 2775,-72 2775,-155"/>
<text text-anchor="middle" x="2646.5" y="-139.8" font-family="Times,serif" font-size="14.00">graphSize &lt;= 75.0</text>
<text text-anchor="middle" x="2646.5" y="-124.8" font-family="Times,serif" font-size="14.00">gini = 0.565</text>
<text text-anchor="middle" x="2646.5" y="-109.8" font-family="Times,serif" font-size="14.00">samples = 590</text>
<text text-anchor="middle" x="2646.5" y="-94.8" font-family="Times,serif" font-size="14.00">value = [8, 348, 170, 32, 16, 8, 8]</text>
<text text-anchor="middle" x="2646.5" y="-79.8" font-family="Times,serif" font-size="14.00">class = random</text>
</g>
<!-- 660&#45;&gt;692 -->
<g id="edge28" class="edge">
<title>660&#45;&gt;692</title>
<path fill="none" stroke="black" d="M2443.4,-190.91C2471.14,-180.47 2501.12,-169.19 2529.31,-158.59"/>
<polygon fill="black" stroke="black" points="2530.66,-161.82 2538.79,-155.02 2528.2,-155.27 2530.66,-161.82"/>
</g>
<!-- 662 -->
<g id="node27" class="node">
<title>662</title>
<polygon fill="#c0c0c0" stroke="black" points="2326.5,-36 2272.5,-36 2272.5,0 2326.5,0 2326.5,-36"/>
<text text-anchor="middle" x="2299.5" y="-14.3" font-family="Times,serif" font-size="14.00">(...)</text>
</g>
<!-- 661&#45;&gt;662 -->
<g id="edge26" class="edge">
<title>661&#45;&gt;662</title>
<path fill="none" stroke="black" d="M2319.81,-71.76C2316.46,-63.04 2312.99,-54.04 2309.89,-45.99"/>
<polygon fill="black" stroke="black" points="2313.06,-44.48 2306.2,-36.41 2306.53,-46.99 2313.06,-44.48"/>
</g>
<!-- 673 -->
<g id="node28" class="node">
<title>673</title>
<polygon fill="#c0c0c0" stroke="black" points="2398.5,-36 2344.5,-36 2344.5,0 2398.5,0 2398.5,-36"/>
<text text-anchor="middle" x="2371.5" y="-14.3" font-family="Times,serif" font-size="14.00">(...)</text>
</g>
<!-- 661&#45;&gt;673 -->
<g id="edge27" class="edge">
<title>661&#45;&gt;673</title>
<path fill="none" stroke="black" d="M2351.19,-71.76C2354.54,-63.04 2358.01,-54.04 2361.11,-45.99"/>
<polygon fill="black" stroke="black" points="2364.47,-46.99 2364.8,-36.41 2357.94,-44.48 2364.47,-46.99"/>
</g>
<!-- 693 -->
<g id="node30" class="node">
<title>693</title>
<polygon fill="#c0c0c0" stroke="black" points="2637.5,-36 2583.5,-36 2583.5,0 2637.5,0 2637.5,-36"/>
<text text-anchor="middle" x="2610.5" y="-14.3" font-family="Times,serif" font-size="14.00">(...)</text>
</g>
<!-- 692&#45;&gt;693 -->
<g id="edge29" class="edge">
<title>692&#45;&gt;693</title>
<path fill="none" stroke="black" d="M2630.81,-71.76C2627.46,-63.04 2623.99,-54.04 2620.89,-45.99"/>
<polygon fill="black" stroke="black" points="2624.06,-44.48 2617.2,-36.41 2617.53,-46.99 2624.06,-44.48"/>
</g>
<!-- 714 -->
<g id="node31" class="node">
<title>714</title>
<polygon fill="#c0c0c0" stroke="black" points="2709.5,-36 2655.5,-36 2655.5,0 2709.5,0 2709.5,-36"/>
<text text-anchor="middle" x="2682.5" y="-14.3" font-family="Times,serif" font-size="14.00">(...)</text>
</g>
<!-- 692&#45;&gt;714 -->
<g id="edge30" class="edge">
<title>692&#45;&gt;714</title>
<path fill="none" stroke="black" d="M2662.19,-71.76C2665.54,-63.04 2669.01,-54.04 2672.11,-45.99"/>
<polygon fill="black" stroke="black" points="2675.47,-46.99 2675.8,-36.41 2668.94,-44.48 2675.47,-46.99"/>
</g>
</g>
</svg>
