<?xml version="1.0" encoding="UTF-8" standalone="no"?>
<!DOCTYPE svg PUBLIC "-//W3C//DTD SVG 1.1//EN"
 "http://www.w3.org/Graphics/SVG/1.1/DTD/svg11.dtd">
<!-- Generated by graphviz version 2.43.0 (0)
 -->
<!-- Title: Tree Pages: 1 -->
<svg width="2462pt" height="520pt"
 viewBox="0.00 0.00 2461.50 520.00" xmlns="http://www.w3.org/2000/svg" xmlns:xlink="http://www.w3.org/1999/xlink">
<g id="graph0" class="graph" transform="scale(1 1) rotate(0) translate(4 516)">
<title>Tree</title>
<polygon fill="white" stroke="transparent" points="-4,4 -4,-516 2457.5,-516 2457.5,4 -4,4"/>
<!-- 0 -->
<g id="node1" class="node">
<title>0</title>
<polygon fill="#fef7fb" stroke="black" points="1474,-512 1100,-512 1100,-429 1474,-429 1474,-512"/>
<text text-anchor="middle" x="1287" y="-496.8" font-family="Times,serif" font-size="14.00">CCR &lt;= 5.5</text>
<text text-anchor="middle" x="1287" y="-481.8" font-family="Times,serif" font-size="14.00">gini = 0.75</text>
<text text-anchor="middle" x="1287" y="-466.8" font-family="Times,serif" font-size="14.00">samples = 60577</text>
<text text-anchor="middle" x="1287" y="-451.8" font-family="Times,serif" font-size="14.00">value = [17289, 3534, 2830, 2724, 15159, 19041]</text>
<text text-anchor="middle" x="1287" y="-436.8" font-family="Times,serif" font-size="14.00">class = GDL</text>
</g>
<!-- 1 -->
<g id="node2" class="node">
<title>1</title>
<polygon fill="#fef7fb" stroke="black" points="1167.5,-393 802.5,-393 802.5,-310 1167.5,-310 1167.5,-393"/>
<text text-anchor="middle" x="985" y="-377.8" font-family="Times,serif" font-size="14.00">graphSize &lt;= 22.5</text>
<text text-anchor="middle" x="985" y="-362.8" font-family="Times,serif" font-size="14.00">gini = 0.728</text>
<text text-anchor="middle" x="985" y="-347.8" font-family="Times,serif" font-size="14.00">samples = 55185</text>
<text text-anchor="middle" x="985" y="-332.8" font-family="Times,serif" font-size="14.00">value = [16639, 2944, 346, 2724, 14341, 18191]</text>
<text text-anchor="middle" x="985" y="-317.8" font-family="Times,serif" font-size="14.00">class = GDL</text>
</g>
<!-- 0&#45;&gt;1 -->
<g id="edge1" class="edge">
<title>0&#45;&gt;1</title>
<path fill="none" stroke="black" d="M1182.22,-428.91C1155.4,-418.52 1126.43,-407.29 1099.16,-396.73"/>
<polygon fill="black" stroke="black" points="1100.18,-393.37 1089.59,-393.02 1097.65,-399.9 1100.18,-393.37"/>
<text text-anchor="middle" x="1099.69" y="-412.19" font-family="Times,serif" font-size="14.00">True</text>
</g>
<!-- 566 -->
<g id="node17" class="node">
<title>566</title>
<polygon fill="#b8f6d2" stroke="black" points="1745,-393 1461,-393 1461,-310 1745,-310 1745,-393"/>
<text text-anchor="middle" x="1603" y="-377.8" font-family="Times,serif" font-size="14.00">sdComp &lt;= 6.5</text>
<text text-anchor="middle" x="1603" y="-362.8" font-family="Times,serif" font-size="14.00">gini = 0.713</text>
<text text-anchor="middle" x="1603" y="-347.8" font-family="Times,serif" font-size="14.00">samples = 5392</text>
<text text-anchor="middle" x="1603" y="-332.8" font-family="Times,serif" font-size="14.00">value = [650, 590, 2484, 0, 818, 850]</text>
<text text-anchor="middle" x="1603" y="-317.8" font-family="Times,serif" font-size="14.00">class = OLB</text>
</g>
<!-- 0&#45;&gt;566 -->
<g id="edge16" class="edge">
<title>0&#45;&gt;566</title>
<path fill="none" stroke="black" d="M1396.63,-428.91C1424.82,-418.47 1455.28,-407.19 1483.92,-396.59"/>
<polygon fill="black" stroke="black" points="1485.4,-399.78 1493.56,-393.02 1482.97,-393.21 1485.4,-399.78"/>
<text text-anchor="middle" x="1483.12" y="-412.04" font-family="Times,serif" font-size="14.00">False</text>
</g>
<!-- 2 -->
<g id="node3" class="node">
<title>2</title>
<polygon fill="#fffeff" stroke="black" points="681,-274 325,-274 325,-191 681,-191 681,-274"/>
<text text-anchor="middle" x="503" y="-258.8" font-family="Times,serif" font-size="14.00">CCR &lt;= 0.55</text>
<text text-anchor="middle" x="503" y="-243.8" font-family="Times,serif" font-size="14.00">gini = 0.738</text>
<text text-anchor="middle" x="503" y="-228.8" font-family="Times,serif" font-size="14.00">samples = 35096</text>
<text text-anchor="middle" x="503" y="-213.8" font-family="Times,serif" font-size="14.00">value = [10540, 1562, 258, 2640, 9480, 10616]</text>
<text text-anchor="middle" x="503" y="-198.8" font-family="Times,serif" font-size="14.00">class = GDL</text>
</g>
<!-- 1&#45;&gt;2 -->
<g id="edge2" class="edge">
<title>1&#45;&gt;2</title>
<path fill="none" stroke="black" d="M818.11,-309.99C773.51,-299.16 725.16,-287.43 680.03,-276.47"/>
<polygon fill="black" stroke="black" points="680.7,-273.03 670.15,-274.07 679.05,-279.83 680.7,-273.03"/>
</g>
<!-- 145 -->
<g id="node10" class="node">
<title>145</title>
<polygon fill="#fceaf5" stroke="black" points="1140.5,-274 829.5,-274 829.5,-191 1140.5,-191 1140.5,-274"/>
<text text-anchor="middle" x="985" y="-258.8" font-family="Times,serif" font-size="14.00">nbproc &lt;= 4.5</text>
<text text-anchor="middle" x="985" y="-243.8" font-family="Times,serif" font-size="14.00">gini = 0.702</text>
<text text-anchor="middle" x="985" y="-228.8" font-family="Times,serif" font-size="14.00">samples = 20089</text>
<text text-anchor="middle" x="985" y="-213.8" font-family="Times,serif" font-size="14.00">value = [6099, 1382, 88, 84, 4861, 7575]</text>
<text text-anchor="middle" x="985" y="-198.8" font-family="Times,serif" font-size="14.00">class = GDL</text>
</g>
<!-- 1&#45;&gt;145 -->
<g id="edge9" class="edge">
<title>1&#45;&gt;145</title>
<path fill="none" stroke="black" d="M985,-309.91C985,-301.65 985,-292.86 985,-284.3"/>
<polygon fill="black" stroke="black" points="988.5,-284.02 985,-274.02 981.5,-284.02 988.5,-284.02"/>
</g>
<!-- 3 -->
<g id="node4" class="node">
<title>3</title>
<polygon fill="#fefcfa" stroke="black" points="320,-155 0,-155 0,-72 320,-72 320,-155"/>
<text text-anchor="middle" x="160" y="-139.8" font-family="Times,serif" font-size="14.00">sdComp &lt;= 0.065</text>
<text text-anchor="middle" x="160" y="-124.8" font-family="Times,serif" font-size="14.00">gini = 0.729</text>
<text text-anchor="middle" x="160" y="-109.8" font-family="Times,serif" font-size="14.00">samples = 23344</text>
<text text-anchor="middle" x="160" y="-94.8" font-family="Times,serif" font-size="14.00">value = [7408, 504, 40, 2188, 6200, 7004]</text>
<text text-anchor="middle" x="160" y="-79.8" font-family="Times,serif" font-size="14.00">class = eft</text>
</g>
<!-- 2&#45;&gt;3 -->
<g id="edge3" class="edge">
<title>2&#45;&gt;3</title>
<path fill="none" stroke="black" d="M384,-190.91C353.14,-180.38 319.76,-169 288.44,-158.31"/>
<polygon fill="black" stroke="black" points="289.39,-154.94 278.79,-155.02 287.13,-161.56 289.39,-154.94"/>
</g>
<!-- 74 -->
<g id="node7" class="node">
<title>74</title>
<polygon fill="#fef7fb" stroke="black" points="667.5,-155 338.5,-155 338.5,-72 667.5,-72 667.5,-155"/>
<text text-anchor="middle" x="503" y="-139.8" font-family="Times,serif" font-size="14.00">sdComp &lt;= 0.65</text>
<text text-anchor="middle" x="503" y="-124.8" font-family="Times,serif" font-size="14.00">gini = 0.747</text>
<text text-anchor="middle" x="503" y="-109.8" font-family="Times,serif" font-size="14.00">samples = 11752</text>
<text text-anchor="middle" x="503" y="-94.8" font-family="Times,serif" font-size="14.00">value = [3132, 1058, 218, 452, 3280, 3612]</text>
<text text-anchor="middle" x="503" y="-79.8" font-family="Times,serif" font-size="14.00">class = GDL</text>
</g>
<!-- 2&#45;&gt;74 -->
<g id="edge6" class="edge">
<title>2&#45;&gt;74</title>
<path fill="none" stroke="black" d="M503,-190.91C503,-182.65 503,-173.86 503,-165.3"/>
<polygon fill="black" stroke="black" points="506.5,-165.02 503,-155.02 499.5,-165.02 506.5,-165.02"/>
</g>
<!-- 4 -->
<g id="node5" class="node">
<title>4</title>
<polygon fill="#c0c0c0" stroke="black" points="151,-36 97,-36 97,0 151,0 151,-36"/>
<text text-anchor="middle" x="124" y="-14.3" font-family="Times,serif" font-size="14.00">(...)</text>
</g>
<!-- 3&#45;&gt;4 -->
<g id="edge4" class="edge">
<title>3&#45;&gt;4</title>
<path fill="none" stroke="black" d="M144.31,-71.76C140.96,-63.04 137.49,-54.04 134.39,-45.99"/>
<polygon fill="black" stroke="black" points="137.56,-44.48 130.7,-36.41 131.03,-46.99 137.56,-44.48"/>
</g>
<!-- 51 -->
<g id="node6" class="node">
<title>51</title>
<polygon fill="#c0c0c0" stroke="black" points="223,-36 169,-36 169,0 223,0 223,-36"/>
<text text-anchor="middle" x="196" y="-14.3" font-family="Times,serif" font-size="14.00">(...)</text>
</g>
<!-- 3&#45;&gt;51 -->
<g id="edge5" class="edge">
<title>3&#45;&gt;51</title>
<path fill="none" stroke="black" d="M175.69,-71.76C179.04,-63.04 182.51,-54.04 185.61,-45.99"/>
<polygon fill="black" stroke="black" points="188.97,-46.99 189.3,-36.41 182.44,-44.48 188.97,-46.99"/>
</g>
<!-- 75 -->
<g id="node8" class="node">
<title>75</title>
<polygon fill="#c0c0c0" stroke="black" points="494,-36 440,-36 440,0 494,0 494,-36"/>
<text text-anchor="middle" x="467" y="-14.3" font-family="Times,serif" font-size="14.00">(...)</text>
</g>
<!-- 74&#45;&gt;75 -->
<g id="edge7" class="edge">
<title>74&#45;&gt;75</title>
<path fill="none" stroke="black" d="M487.31,-71.76C483.96,-63.04 480.49,-54.04 477.39,-45.99"/>
<polygon fill="black" stroke="black" points="480.56,-44.48 473.7,-36.41 474.03,-46.99 480.56,-44.48"/>
</g>
<!-- 122 -->
<g id="node9" class="node">
<title>122</title>
<polygon fill="#c0c0c0" stroke="black" points="566,-36 512,-36 512,0 566,0 566,-36"/>
<text text-anchor="middle" x="539" y="-14.3" font-family="Times,serif" font-size="14.00">(...)</text>
</g>
<!-- 74&#45;&gt;122 -->
<g id="edge8" class="edge">
<title>74&#45;&gt;122</title>
<path fill="none" stroke="black" d="M518.69,-71.76C522.04,-63.04 525.51,-54.04 528.61,-45.99"/>
<polygon fill="black" stroke="black" points="531.97,-46.99 532.3,-36.41 525.44,-44.48 531.97,-46.99"/>
</g>
<!-- 146 -->
<g id="node11" class="node">
<title>146</title>
<polygon fill="#f8cae5" stroke="black" points="978.5,-155 685.5,-155 685.5,-72 978.5,-72 978.5,-155"/>
<text text-anchor="middle" x="832" y="-139.8" font-family="Times,serif" font-size="14.00">sdComp &lt;= 0.65</text>
<text text-anchor="middle" x="832" y="-124.8" font-family="Times,serif" font-size="14.00">gini = 0.673</text>
<text text-anchor="middle" x="832" y="-109.8" font-family="Times,serif" font-size="14.00">samples = 6177</text>
<text text-anchor="middle" x="832" y="-94.8" font-family="Times,serif" font-size="14.00">value = [1623, 380, 72, 0, 1251, 2851]</text>
<text text-anchor="middle" x="832" y="-79.8" font-family="Times,serif" font-size="14.00">class = GDL</text>
</g>
<!-- 145&#45;&gt;146 -->
<g id="edge10" class="edge">
<title>145&#45;&gt;146</title>
<path fill="none" stroke="black" d="M931.92,-190.91C919.46,-181.38 906.08,-171.15 893.29,-161.37"/>
<polygon fill="black" stroke="black" points="895.06,-158.32 884.99,-155.02 890.81,-163.88 895.06,-158.32"/>
</g>
<!-- 351 -->
<g id="node14" class="node">
<title>351</title>
<polygon fill="#fefafc" stroke="black" points="1307.5,-155 996.5,-155 996.5,-72 1307.5,-72 1307.5,-155"/>
<text text-anchor="middle" x="1152" y="-139.8" font-family="Times,serif" font-size="14.00">CCR &lt;= 0.55</text>
<text text-anchor="middle" x="1152" y="-124.8" font-family="Times,serif" font-size="14.00">gini = 0.709</text>
<text text-anchor="middle" x="1152" y="-109.8" font-family="Times,serif" font-size="14.00">samples = 13912</text>
<text text-anchor="middle" x="1152" y="-94.8" font-family="Times,serif" font-size="14.00">value = [4476, 1002, 16, 84, 3610, 4724]</text>
<text text-anchor="middle" x="1152" y="-79.8" font-family="Times,serif" font-size="14.00">class = GDL</text>
</g>
<!-- 145&#45;&gt;351 -->
<g id="edge13" class="edge">
<title>145&#45;&gt;351</title>
<path fill="none" stroke="black" d="M1042.94,-190.91C1056.8,-181.2 1071.7,-170.76 1085.9,-160.81"/>
<polygon fill="black" stroke="black" points="1087.98,-163.63 1094.16,-155.02 1083.96,-157.89 1087.98,-163.63"/>
</g>
<!-- 147 -->
<g id="node12" class="node">
<title>147</title>
<polygon fill="#c0c0c0" stroke="black" points="823,-36 769,-36 769,0 823,0 823,-36"/>
<text text-anchor="middle" x="796" y="-14.3" font-family="Times,serif" font-size="14.00">(...)</text>
</g>
<!-- 146&#45;&gt;147 -->
<g id="edge11" class="edge">
<title>146&#45;&gt;147</title>
<path fill="none" stroke="black" d="M816.31,-71.76C812.96,-63.04 809.49,-54.04 806.39,-45.99"/>
<polygon fill="black" stroke="black" points="809.56,-44.48 802.7,-36.41 803.03,-46.99 809.56,-44.48"/>
</g>
<!-- 316 -->
<g id="node13" class="node">
<title>316</title>
<polygon fill="#c0c0c0" stroke="black" points="895,-36 841,-36 841,0 895,0 895,-36"/>
<text text-anchor="middle" x="868" y="-14.3" font-family="Times,serif" font-size="14.00">(...)</text>
</g>
<!-- 146&#45;&gt;316 -->
<g id="edge12" class="edge">
<title>146&#45;&gt;316</title>
<path fill="none" stroke="black" d="M847.69,-71.76C851.04,-63.04 854.51,-54.04 857.61,-45.99"/>
<polygon fill="black" stroke="black" points="860.97,-46.99 861.3,-36.41 854.44,-44.48 860.97,-46.99"/>
</g>
<!-- 352 -->
<g id="node15" class="node">
<title>352</title>
<polygon fill="#c0c0c0" stroke="black" points="1143,-36 1089,-36 1089,0 1143,0 1143,-36"/>
<text text-anchor="middle" x="1116" y="-14.3" font-family="Times,serif" font-size="14.00">(...)</text>
</g>
<!-- 351&#45;&gt;352 -->
<g id="edge14" class="edge">
<title>351&#45;&gt;352</title>
<path fill="none" stroke="black" d="M1136.31,-71.76C1132.96,-63.04 1129.49,-54.04 1126.39,-45.99"/>
<polygon fill="black" stroke="black" points="1129.56,-44.48 1122.7,-36.41 1123.03,-46.99 1129.56,-44.48"/>
</g>
<!-- 459 -->
<g id="node16" class="node">
<title>459</title>
<polygon fill="#c0c0c0" stroke="black" points="1215,-36 1161,-36 1161,0 1215,0 1215,-36"/>
<text text-anchor="middle" x="1188" y="-14.3" font-family="Times,serif" font-size="14.00">(...)</text>
</g>
<!-- 351&#45;&gt;459 -->
<g id="edge15" class="edge">
<title>351&#45;&gt;459</title>
<path fill="none" stroke="black" d="M1167.69,-71.76C1171.04,-63.04 1174.51,-54.04 1177.61,-45.99"/>
<polygon fill="black" stroke="black" points="1180.97,-46.99 1181.3,-36.41 1174.44,-44.48 1180.97,-46.99"/>
</g>
<!-- 567 -->
<g id="node18" class="node">
<title>567</title>
<polygon fill="#91f1b9" stroke="black" points="1745,-274 1461,-274 1461,-191 1745,-191 1745,-274"/>
<text text-anchor="middle" x="1603" y="-258.8" font-family="Times,serif" font-size="14.00">graphDepth &lt;= 6.5</text>
<text text-anchor="middle" x="1603" y="-243.8" font-family="Times,serif" font-size="14.00">gini = 0.594</text>
<text text-anchor="middle" x="1603" y="-228.8" font-family="Times,serif" font-size="14.00">samples = 3540</text>
<text text-anchor="middle" x="1603" y="-213.8" font-family="Times,serif" font-size="14.00">value = [274, 368, 2144, 0, 370, 384]</text>
<text text-anchor="middle" x="1603" y="-198.8" font-family="Times,serif" font-size="14.00">class = OLB</text>
</g>
<!-- 566&#45;&gt;567 -->
<g id="edge17" class="edge">
<title>566&#45;&gt;567</title>
<path fill="none" stroke="black" d="M1603,-309.91C1603,-301.65 1603,-292.86 1603,-284.3"/>
<polygon fill="black" stroke="black" points="1606.5,-284.02 1603,-274.02 1599.5,-284.02 1606.5,-284.02"/>
</g>
<!-- 638 -->
<g id="node25" class="node">
<title>638</title>
<polygon fill="#fffcfe" stroke="black" points="2182.5,-274 1907.5,-274 1907.5,-191 2182.5,-191 2182.5,-274"/>
<text text-anchor="middle" x="2045" y="-258.8" font-family="Times,serif" font-size="14.00">graphSize &lt;= 22.5</text>
<text text-anchor="middle" x="2045" y="-243.8" font-family="Times,serif" font-size="14.00">gini = 0.789</text>
<text text-anchor="middle" x="2045" y="-228.8" font-family="Times,serif" font-size="14.00">samples = 1852</text>
<text text-anchor="middle" x="2045" y="-213.8" font-family="Times,serif" font-size="14.00">value = [376, 222, 340, 0, 448, 466]</text>
<text text-anchor="middle" x="2045" y="-198.8" font-family="Times,serif" font-size="14.00">class = GDL</text>
</g>
<!-- 566&#45;&gt;638 -->
<g id="edge24" class="edge">
<title>566&#45;&gt;638</title>
<path fill="none" stroke="black" d="M1745.28,-312.84C1793.9,-299.97 1848.37,-285.55 1897.4,-272.57"/>
<polygon fill="black" stroke="black" points="1898.36,-275.94 1907.13,-270 1896.57,-269.17 1898.36,-275.94"/>
</g>
<!-- 568 -->
<g id="node19" class="node">
<title>568</title>
<polygon fill="#caf8dd" stroke="black" points="1592,-155 1326,-155 1326,-72 1592,-72 1592,-155"/>
<text text-anchor="middle" x="1459" y="-139.8" font-family="Times,serif" font-size="14.00">nbproc &lt;= 4.5</text>
<text text-anchor="middle" x="1459" y="-124.8" font-family="Times,serif" font-size="14.00">gini = 0.741</text>
<text text-anchor="middle" x="1459" y="-109.8" font-family="Times,serif" font-size="14.00">samples = 884</text>
<text text-anchor="middle" x="1459" y="-94.8" font-family="Times,serif" font-size="14.00">value = [90, 112, 360, 0, 152, 170]</text>
<text text-anchor="middle" x="1459" y="-79.8" font-family="Times,serif" font-size="14.00">class = OLB</text>
</g>
<!-- 567&#45;&gt;568 -->
<g id="edge18" class="edge">
<title>567&#45;&gt;568</title>
<path fill="none" stroke="black" d="M1553.04,-190.91C1541.31,-181.38 1528.72,-171.15 1516.69,-161.37"/>
<polygon fill="black" stroke="black" points="1518.84,-158.61 1508.87,-155.02 1514.43,-164.04 1518.84,-158.61"/>
</g>
<!-- 591 -->
<g id="node22" class="node">
<title>591</title>
<polygon fill="#81eeaf" stroke="black" points="1894,-155 1610,-155 1610,-72 1894,-72 1894,-155"/>
<text text-anchor="middle" x="1752" y="-139.8" font-family="Times,serif" font-size="14.00">sdComp &lt;= 2.0</text>
<text text-anchor="middle" x="1752" y="-124.8" font-family="Times,serif" font-size="14.00">gini = 0.522</text>
<text text-anchor="middle" x="1752" y="-109.8" font-family="Times,serif" font-size="14.00">samples = 2656</text>
<text text-anchor="middle" x="1752" y="-94.8" font-family="Times,serif" font-size="14.00">value = [184, 256, 1784, 0, 218, 214]</text>
<text text-anchor="middle" x="1752" y="-79.8" font-family="Times,serif" font-size="14.00">class = OLB</text>
</g>
<!-- 567&#45;&gt;591 -->
<g id="edge21" class="edge">
<title>567&#45;&gt;591</title>
<path fill="none" stroke="black" d="M1654.69,-190.91C1666.83,-181.38 1679.86,-171.15 1692.31,-161.37"/>
<polygon fill="black" stroke="black" points="1694.69,-163.95 1700.4,-155.02 1690.37,-158.44 1694.69,-163.95"/>
</g>
<!-- 569 -->
<g id="node20" class="node">
<title>569</title>
<polygon fill="#c0c0c0" stroke="black" points="1450,-36 1396,-36 1396,0 1450,0 1450,-36"/>
<text text-anchor="middle" x="1423" y="-14.3" font-family="Times,serif" font-size="14.00">(...)</text>
</g>
<!-- 568&#45;&gt;569 -->
<g id="edge19" class="edge">
<title>568&#45;&gt;569</title>
<path fill="none" stroke="black" d="M1443.31,-71.76C1439.96,-63.04 1436.49,-54.04 1433.39,-45.99"/>
<polygon fill="black" stroke="black" points="1436.56,-44.48 1429.7,-36.41 1430.03,-46.99 1436.56,-44.48"/>
</g>
<!-- 582 -->
<g id="node21" class="node">
<title>582</title>
<polygon fill="#c0c0c0" stroke="black" points="1522,-36 1468,-36 1468,0 1522,0 1522,-36"/>
<text text-anchor="middle" x="1495" y="-14.3" font-family="Times,serif" font-size="14.00">(...)</text>
</g>
<!-- 568&#45;&gt;582 -->
<g id="edge20" class="edge">
<title>568&#45;&gt;582</title>
<path fill="none" stroke="black" d="M1474.69,-71.76C1478.04,-63.04 1481.51,-54.04 1484.61,-45.99"/>
<polygon fill="black" stroke="black" points="1487.97,-46.99 1488.3,-36.41 1481.44,-44.48 1487.97,-46.99"/>
</g>
<!-- 592 -->
<g id="node23" class="node">
<title>592</title>
<polygon fill="#c0c0c0" stroke="black" points="1743,-36 1689,-36 1689,0 1743,0 1743,-36"/>
<text text-anchor="middle" x="1716" y="-14.3" font-family="Times,serif" font-size="14.00">(...)</text>
</g>
<!-- 591&#45;&gt;592 -->
<g id="edge22" class="edge">
<title>591&#45;&gt;592</title>
<path fill="none" stroke="black" d="M1736.31,-71.76C1732.96,-63.04 1729.49,-54.04 1726.39,-45.99"/>
<polygon fill="black" stroke="black" points="1729.56,-44.48 1722.7,-36.41 1723.03,-46.99 1729.56,-44.48"/>
</g>
<!-- 613 -->
<g id="node24" class="node">
<title>613</title>
<polygon fill="#c0c0c0" stroke="black" points="1815,-36 1761,-36 1761,0 1815,0 1815,-36"/>
<text text-anchor="middle" x="1788" y="-14.3" font-family="Times,serif" font-size="14.00">(...)</text>
</g>
<!-- 591&#45;&gt;613 -->
<g id="edge23" class="edge">
<title>591&#45;&gt;613</title>
<path fill="none" stroke="black" d="M1767.69,-71.76C1771.04,-63.04 1774.51,-54.04 1777.61,-45.99"/>
<polygon fill="black" stroke="black" points="1780.97,-46.99 1781.3,-36.41 1774.44,-44.48 1780.97,-46.99"/>
</g>
<!-- 639 -->
<g id="node26" class="node">
<title>639</title>
<polygon fill="#fdf4f9" stroke="black" points="2178,-155 1912,-155 1912,-72 2178,-72 2178,-155"/>
<text text-anchor="middle" x="2045" y="-139.8" font-family="Times,serif" font-size="14.00">nbproc &lt;= 4.5</text>
<text text-anchor="middle" x="2045" y="-124.8" font-family="Times,serif" font-size="14.00">gini = 0.744</text>
<text text-anchor="middle" x="2045" y="-109.8" font-family="Times,serif" font-size="14.00">samples = 1188</text>
<text text-anchor="middle" x="2045" y="-94.8" font-family="Times,serif" font-size="14.00">value = [316, 46, 132, 0, 322, 372]</text>
<text text-anchor="middle" x="2045" y="-79.8" font-family="Times,serif" font-size="14.00">class = GDL</text>
</g>
<!-- 638&#45;&gt;639 -->
<g id="edge25" class="edge">
<title>638&#45;&gt;639</title>
<path fill="none" stroke="black" d="M2045,-190.91C2045,-182.65 2045,-173.86 2045,-165.3"/>
<polygon fill="black" stroke="black" points="2048.5,-165.02 2045,-155.02 2041.5,-165.02 2048.5,-165.02"/>
</g>
<!-- 654 -->
<g id="node29" class="node">
<title>654</title>
<polygon fill="#f2fdf7" stroke="black" points="2453.5,-155 2196.5,-155 2196.5,-72 2453.5,-72 2453.5,-155"/>
<text text-anchor="middle" x="2325" y="-139.8" font-family="Times,serif" font-size="14.00">graphDepth &lt;= 6.5</text>
<text text-anchor="middle" x="2325" y="-124.8" font-family="Times,serif" font-size="14.00">gini = 0.767</text>
<text text-anchor="middle" x="2325" y="-109.8" font-family="Times,serif" font-size="14.00">samples = 664</text>
<text text-anchor="middle" x="2325" y="-94.8" font-family="Times,serif" font-size="14.00">value = [60, 176, 208, 0, 126, 94]</text>
<text text-anchor="middle" x="2325" y="-79.8" font-family="Times,serif" font-size="14.00">class = OLB</text>
</g>
<!-- 638&#45;&gt;654 -->
<g id="edge28" class="edge">
<title>638&#45;&gt;654</title>
<path fill="none" stroke="black" d="M2142.14,-190.91C2166.79,-180.61 2193.41,-169.49 2218.49,-159"/>
<polygon fill="black" stroke="black" points="2220.15,-162.11 2228.03,-155.02 2217.45,-155.65 2220.15,-162.11"/>
</g>
<!-- 640 -->
<g id="node27" class="node">
<title>640</title>
<polygon fill="#c0c0c0" stroke="black" points="2036,-36 1982,-36 1982,0 2036,0 2036,-36"/>
<text text-anchor="middle" x="2009" y="-14.3" font-family="Times,serif" font-size="14.00">(...)</text>
</g>
<!-- 639&#45;&gt;640 -->
<g id="edge26" class="edge">
<title>639&#45;&gt;640</title>
<path fill="none" stroke="black" d="M2029.31,-71.76C2025.96,-63.04 2022.49,-54.04 2019.39,-45.99"/>
<polygon fill="black" stroke="black" points="2022.56,-44.48 2015.7,-36.41 2016.03,-46.99 2022.56,-44.48"/>
</g>
<!-- 647 -->
<g id="node28" class="node">
<title>647</title>
<polygon fill="#c0c0c0" stroke="black" points="2108,-36 2054,-36 2054,0 2108,0 2108,-36"/>
<text text-anchor="middle" x="2081" y="-14.3" font-family="Times,serif" font-size="14.00">(...)</text>
</g>
<!-- 639&#45;&gt;647 -->
<g id="edge27" class="edge">
<title>639&#45;&gt;647</title>
<path fill="none" stroke="black" d="M2060.69,-71.76C2064.04,-63.04 2067.51,-54.04 2070.61,-45.99"/>
<polygon fill="black" stroke="black" points="2073.97,-46.99 2074.3,-36.41 2067.44,-44.48 2073.97,-46.99"/>
</g>
<!-- 655 -->
<g id="node30" class="node">
<title>655</title>
<polygon fill="#c0c0c0" stroke="black" points="2316,-36 2262,-36 2262,0 2316,0 2316,-36"/>
<text text-anchor="middle" x="2289" y="-14.3" font-family="Times,serif" font-size="14.00">(...)</text>
</g>
<!-- 654&#45;&gt;655 -->
<g id="edge29" class="edge">
<title>654&#45;&gt;655</title>
<path fill="none" stroke="black" d="M2309.31,-71.76C2305.96,-63.04 2302.49,-54.04 2299.39,-45.99"/>
<polygon fill="black" stroke="black" points="2302.56,-44.48 2295.7,-36.41 2296.03,-46.99 2302.56,-44.48"/>
</g>
<!-- 656 -->
<g id="node31" class="node">
<title>656</title>
<polygon fill="#c0c0c0" stroke="black" points="2388,-36 2334,-36 2334,0 2388,0 2388,-36"/>
<text text-anchor="middle" x="2361" y="-14.3" font-family="Times,serif" font-size="14.00">(...)</text>
</g>
<!-- 654&#45;&gt;656 -->
<g id="edge30" class="edge">
<title>654&#45;&gt;656</title>
<path fill="none" stroke="black" d="M2340.69,-71.76C2344.04,-63.04 2347.51,-54.04 2350.61,-45.99"/>
<polygon fill="black" stroke="black" points="2353.97,-46.99 2354.3,-36.41 2347.44,-44.48 2353.97,-46.99"/>
</g>
</g>
</svg>
