<?xml version="1.0" encoding="UTF-8" standalone="no"?>
<!DOCTYPE svg PUBLIC "-//W3C//DTD SVG 1.1//EN"
 "http://www.w3.org/Graphics/SVG/1.1/DTD/svg11.dtd">
<!-- Generated by graphviz version 2.43.0 (0)
 -->
<!-- Title: Tree Pages: 1 -->
<svg width="1452pt" height="520pt"
 viewBox="0.00 0.00 1452.00 520.00" xmlns="http://www.w3.org/2000/svg" xmlns:xlink="http://www.w3.org/1999/xlink">
<g id="graph0" class="graph" transform="scale(1 1) rotate(0) translate(4 516)">
<title>Tree</title>
<polygon fill="white" stroke="transparent" points="-4,4 -4,-516 1448,-516 1448,4 -4,4"/>
<!-- 0 -->
<g id="node1" class="node">
<title>0</title>
<polygon fill="#ffffff" stroke="black" points="782,-512 597,-512 597,-429 782,-429 782,-512"/>
<text text-anchor="middle" x="689.5" y="-496.8" font-family="Times,serif" font-size="14.00">graphDepth &lt;= 3.5</text>
<text text-anchor="middle" x="689.5" y="-481.8" font-family="Times,serif" font-size="14.00">gini = 0.5</text>
<text text-anchor="middle" x="689.5" y="-466.8" font-family="Times,serif" font-size="14.00">samples = 60577</text>
<text text-anchor="middle" x="689.5" y="-451.8" font-family="Times,serif" font-size="14.00">value = [30259, 30318]</text>
<text text-anchor="middle" x="689.5" y="-436.8" font-family="Times,serif" font-size="14.00">class = True</text>
</g>
<!-- 1 -->
<g id="node2" class="node">
<title>1</title>
<polygon fill="#fdfeff" stroke="black" points="602,-393 435,-393 435,-310 602,-310 602,-393"/>
<text text-anchor="middle" x="518.5" y="-377.8" font-family="Times,serif" font-size="14.00">sdComp &lt;= 0.65</text>
<text text-anchor="middle" x="518.5" y="-362.8" font-family="Times,serif" font-size="14.00">gini = 0.5</text>
<text text-anchor="middle" x="518.5" y="-347.8" font-family="Times,serif" font-size="14.00">samples = 8844</text>
<text text-anchor="middle" x="518.5" y="-332.8" font-family="Times,serif" font-size="14.00">value = [4395, 4449]</text>
<text text-anchor="middle" x="518.5" y="-317.8" font-family="Times,serif" font-size="14.00">class = True</text>
</g>
<!-- 0&#45;&gt;1 -->
<g id="edge1" class="edge">
<title>0&#45;&gt;1</title>
<path fill="none" stroke="black" d="M630.17,-428.91C615.98,-419.2 600.72,-408.76 586.19,-398.81"/>
<polygon fill="black" stroke="black" points="587.95,-395.78 577.72,-393.02 584,-401.56 587.95,-395.78"/>
<text text-anchor="middle" x="582.33" y="-413.89" font-family="Times,serif" font-size="14.00">True</text>
</g>
<!-- 88 -->
<g id="node17" class="node">
<title>88</title>
<polygon fill="#ffffff" stroke="black" points="977,-393 792,-393 792,-310 977,-310 977,-393"/>
<text text-anchor="middle" x="884.5" y="-377.8" font-family="Times,serif" font-size="14.00">sdComp &lt;= 0.2</text>
<text text-anchor="middle" x="884.5" y="-362.8" font-family="Times,serif" font-size="14.00">gini = 0.5</text>
<text text-anchor="middle" x="884.5" y="-347.8" font-family="Times,serif" font-size="14.00">samples = 51733</text>
<text text-anchor="middle" x="884.5" y="-332.8" font-family="Times,serif" font-size="14.00">value = [25864, 25869]</text>
<text text-anchor="middle" x="884.5" y="-317.8" font-family="Times,serif" font-size="14.00">class = True</text>
</g>
<!-- 0&#45;&gt;88 -->
<g id="edge16" class="edge">
<title>0&#45;&gt;88</title>
<path fill="none" stroke="black" d="M757.15,-428.91C773.64,-419.02 791.39,-408.37 808.24,-398.25"/>
<polygon fill="black" stroke="black" points="810.19,-401.17 816.97,-393.02 806.59,-395.16 810.19,-401.17"/>
<text text-anchor="middle" x="810.9" y="-413.57" font-family="Times,serif" font-size="14.00">False</text>
</g>
<!-- 2 -->
<g id="node3" class="node">
<title>2</title>
<polygon fill="#ffffff" stroke="black" points="343,-274 176,-274 176,-191 343,-191 343,-274"/>
<text text-anchor="middle" x="259.5" y="-258.8" font-family="Times,serif" font-size="14.00">CCR &lt;= 0.55</text>
<text text-anchor="middle" x="259.5" y="-243.8" font-family="Times,serif" font-size="14.00">gini = 0.5</text>
<text text-anchor="middle" x="259.5" y="-228.8" font-family="Times,serif" font-size="14.00">samples = 5824</text>
<text text-anchor="middle" x="259.5" y="-213.8" font-family="Times,serif" font-size="14.00">value = [2912, 2912]</text>
<text text-anchor="middle" x="259.5" y="-198.8" font-family="Times,serif" font-size="14.00">class = False</text>
</g>
<!-- 1&#45;&gt;2 -->
<g id="edge2" class="edge">
<title>1&#45;&gt;2</title>
<path fill="none" stroke="black" d="M434.77,-312.68C408.59,-300.85 379.55,-287.73 352.76,-275.63"/>
<polygon fill="black" stroke="black" points="353.94,-272.32 343.39,-271.4 351.06,-278.7 353.94,-272.32"/>
</g>
<!-- 61 -->
<g id="node10" class="node">
<title>61</title>
<polygon fill="#f8fcfe" stroke="black" points="602,-274 435,-274 435,-191 602,-191 602,-274"/>
<text text-anchor="middle" x="518.5" y="-258.8" font-family="Times,serif" font-size="14.00">sdComm &lt;= 0.2</text>
<text text-anchor="middle" x="518.5" y="-243.8" font-family="Times,serif" font-size="14.00">gini = 0.5</text>
<text text-anchor="middle" x="518.5" y="-228.8" font-family="Times,serif" font-size="14.00">samples = 3020</text>
<text text-anchor="middle" x="518.5" y="-213.8" font-family="Times,serif" font-size="14.00">value = [1483, 1537]</text>
<text text-anchor="middle" x="518.5" y="-198.8" font-family="Times,serif" font-size="14.00">class = True</text>
</g>
<!-- 1&#45;&gt;61 -->
<g id="edge9" class="edge">
<title>1&#45;&gt;61</title>
<path fill="none" stroke="black" d="M518.5,-309.91C518.5,-301.65 518.5,-292.86 518.5,-284.3"/>
<polygon fill="black" stroke="black" points="522,-284.02 518.5,-274.02 515,-284.02 522,-284.02"/>
</g>
<!-- 3 -->
<g id="node4" class="node">
<title>3</title>
<polygon fill="#ffffff" stroke="black" points="167,-155 0,-155 0,-72 167,-72 167,-155"/>
<text text-anchor="middle" x="83.5" y="-139.8" font-family="Times,serif" font-size="14.00">sdComp &lt;= 0.02</text>
<text text-anchor="middle" x="83.5" y="-124.8" font-family="Times,serif" font-size="14.00">gini = 0.5</text>
<text text-anchor="middle" x="83.5" y="-109.8" font-family="Times,serif" font-size="14.00">samples = 4830</text>
<text text-anchor="middle" x="83.5" y="-94.8" font-family="Times,serif" font-size="14.00">value = [2415, 2415]</text>
<text text-anchor="middle" x="83.5" y="-79.8" font-family="Times,serif" font-size="14.00">class = False</text>
</g>
<!-- 2&#45;&gt;3 -->
<g id="edge3" class="edge">
<title>2&#45;&gt;3</title>
<path fill="none" stroke="black" d="M198.44,-190.91C183.83,-181.2 168.13,-170.76 153.16,-160.81"/>
<polygon fill="black" stroke="black" points="154.72,-157.64 144.45,-155.02 150.84,-163.47 154.72,-157.64"/>
</g>
<!-- 38 -->
<g id="node7" class="node">
<title>38</title>
<polygon fill="#ffffff" stroke="black" points="334,-155 185,-155 185,-72 334,-72 334,-155"/>
<text text-anchor="middle" x="259.5" y="-139.8" font-family="Times,serif" font-size="14.00">nbproc &lt;= 4.5</text>
<text text-anchor="middle" x="259.5" y="-124.8" font-family="Times,serif" font-size="14.00">gini = 0.5</text>
<text text-anchor="middle" x="259.5" y="-109.8" font-family="Times,serif" font-size="14.00">samples = 994</text>
<text text-anchor="middle" x="259.5" y="-94.8" font-family="Times,serif" font-size="14.00">value = [497, 497]</text>
<text text-anchor="middle" x="259.5" y="-79.8" font-family="Times,serif" font-size="14.00">class = False</text>
</g>
<!-- 2&#45;&gt;38 -->
<g id="edge6" class="edge">
<title>2&#45;&gt;38</title>
<path fill="none" stroke="black" d="M259.5,-190.91C259.5,-182.65 259.5,-173.86 259.5,-165.3"/>
<polygon fill="black" stroke="black" points="263,-165.02 259.5,-155.02 256,-165.02 263,-165.02"/>
</g>
<!-- 4 -->
<g id="node5" class="node">
<title>4</title>
<polygon fill="#c0c0c0" stroke="black" points="74.5,-36 20.5,-36 20.5,0 74.5,0 74.5,-36"/>
<text text-anchor="middle" x="47.5" y="-14.3" font-family="Times,serif" font-size="14.00">(...)</text>
</g>
<!-- 3&#45;&gt;4 -->
<g id="edge4" class="edge">
<title>3&#45;&gt;4</title>
<path fill="none" stroke="black" d="M67.81,-71.76C64.46,-63.04 60.99,-54.04 57.89,-45.99"/>
<polygon fill="black" stroke="black" points="61.06,-44.48 54.2,-36.41 54.53,-46.99 61.06,-44.48"/>
</g>
<!-- 15 -->
<g id="node6" class="node">
<title>15</title>
<polygon fill="#c0c0c0" stroke="black" points="146.5,-36 92.5,-36 92.5,0 146.5,0 146.5,-36"/>
<text text-anchor="middle" x="119.5" y="-14.3" font-family="Times,serif" font-size="14.00">(...)</text>
</g>
<!-- 3&#45;&gt;15 -->
<g id="edge5" class="edge">
<title>3&#45;&gt;15</title>
<path fill="none" stroke="black" d="M99.19,-71.76C102.54,-63.04 106.01,-54.04 109.11,-45.99"/>
<polygon fill="black" stroke="black" points="112.47,-46.99 112.8,-36.41 105.94,-44.48 112.47,-46.99"/>
</g>
<!-- 39 -->
<g id="node8" class="node">
<title>39</title>
<polygon fill="#c0c0c0" stroke="black" points="251.5,-36 197.5,-36 197.5,0 251.5,0 251.5,-36"/>
<text text-anchor="middle" x="224.5" y="-14.3" font-family="Times,serif" font-size="14.00">(...)</text>
</g>
<!-- 38&#45;&gt;39 -->
<g id="edge7" class="edge">
<title>38&#45;&gt;39</title>
<path fill="none" stroke="black" d="M244.25,-71.76C240.99,-63.04 237.62,-54.04 234.6,-45.99"/>
<polygon fill="black" stroke="black" points="237.8,-44.54 231.02,-36.41 231.24,-47 237.8,-44.54"/>
</g>
<!-- 50 -->
<g id="node9" class="node">
<title>50</title>
<polygon fill="#c0c0c0" stroke="black" points="323.5,-36 269.5,-36 269.5,0 323.5,0 323.5,-36"/>
<text text-anchor="middle" x="296.5" y="-14.3" font-family="Times,serif" font-size="14.00">(...)</text>
</g>
<!-- 38&#45;&gt;50 -->
<g id="edge8" class="edge">
<title>38&#45;&gt;50</title>
<path fill="none" stroke="black" d="M275.62,-71.76C279.11,-62.94 282.71,-53.84 285.92,-45.72"/>
<polygon fill="black" stroke="black" points="289.19,-46.99 289.61,-36.41 282.68,-44.42 289.19,-46.99"/>
</g>
<!-- 62 -->
<g id="node11" class="node">
<title>62</title>
<polygon fill="#e9f4fc" stroke="black" points="501,-155 352,-155 352,-72 501,-72 501,-155"/>
<text text-anchor="middle" x="426.5" y="-139.8" font-family="Times,serif" font-size="14.00">nbproc &lt;= 4.5</text>
<text text-anchor="middle" x="426.5" y="-124.8" font-family="Times,serif" font-size="14.00">gini = 0.498</text>
<text text-anchor="middle" x="426.5" y="-109.8" font-family="Times,serif" font-size="14.00">samples = 834</text>
<text text-anchor="middle" x="426.5" y="-94.8" font-family="Times,serif" font-size="14.00">value = [393, 441]</text>
<text text-anchor="middle" x="426.5" y="-79.8" font-family="Times,serif" font-size="14.00">class = True</text>
</g>
<!-- 61&#45;&gt;62 -->
<g id="edge10" class="edge">
<title>61&#45;&gt;62</title>
<path fill="none" stroke="black" d="M486.58,-190.91C479.52,-181.92 471.96,-172.32 464.68,-163.05"/>
<polygon fill="black" stroke="black" points="467.3,-160.72 458.36,-155.02 461.79,-165.05 467.3,-160.72"/>
</g>
<!-- 65 -->
<g id="node14" class="node">
<title>65</title>
<polygon fill="#fefeff" stroke="black" points="686,-155 519,-155 519,-72 686,-72 686,-155"/>
<text text-anchor="middle" x="602.5" y="-139.8" font-family="Times,serif" font-size="14.00">nbproc &lt;= 4.5</text>
<text text-anchor="middle" x="602.5" y="-124.8" font-family="Times,serif" font-size="14.00">gini = 0.5</text>
<text text-anchor="middle" x="602.5" y="-109.8" font-family="Times,serif" font-size="14.00">samples = 2186</text>
<text text-anchor="middle" x="602.5" y="-94.8" font-family="Times,serif" font-size="14.00">value = [1090, 1096]</text>
<text text-anchor="middle" x="602.5" y="-79.8" font-family="Times,serif" font-size="14.00">class = True</text>
</g>
<!-- 61&#45;&gt;65 -->
<g id="edge13" class="edge">
<title>61&#45;&gt;65</title>
<path fill="none" stroke="black" d="M547.64,-190.91C554.03,-182.01 560.85,-172.51 567.44,-163.33"/>
<polygon fill="black" stroke="black" points="570.42,-165.19 573.41,-155.02 564.73,-161.1 570.42,-165.19"/>
</g>
<!-- 63 -->
<g id="node12" class="node">
<title>63</title>
<polygon fill="#c0c0c0" stroke="black" points="420.5,-36 366.5,-36 366.5,0 420.5,0 420.5,-36"/>
<text text-anchor="middle" x="393.5" y="-14.3" font-family="Times,serif" font-size="14.00">(...)</text>
</g>
<!-- 62&#45;&gt;63 -->
<g id="edge11" class="edge">
<title>62&#45;&gt;63</title>
<path fill="none" stroke="black" d="M412.12,-71.76C409.04,-63.04 405.87,-54.04 403.03,-45.99"/>
<polygon fill="black" stroke="black" points="406.27,-44.67 399.64,-36.41 399.67,-47 406.27,-44.67"/>
</g>
<!-- 64 -->
<g id="node13" class="node">
<title>64</title>
<polygon fill="#c0c0c0" stroke="black" points="492.5,-36 438.5,-36 438.5,0 492.5,0 492.5,-36"/>
<text text-anchor="middle" x="465.5" y="-14.3" font-family="Times,serif" font-size="14.00">(...)</text>
</g>
<!-- 62&#45;&gt;64 -->
<g id="edge12" class="edge">
<title>62&#45;&gt;64</title>
<path fill="none" stroke="black" d="M443.49,-71.76C447.17,-62.94 450.97,-53.84 454.35,-45.72"/>
<polygon fill="black" stroke="black" points="457.62,-46.98 458.24,-36.41 451.16,-44.29 457.62,-46.98"/>
</g>
<!-- 66 -->
<g id="node15" class="node">
<title>66</title>
<polygon fill="#c0c0c0" stroke="black" points="577.5,-36 523.5,-36 523.5,0 577.5,0 577.5,-36"/>
<text text-anchor="middle" x="550.5" y="-14.3" font-family="Times,serif" font-size="14.00">(...)</text>
</g>
<!-- 65&#45;&gt;66 -->
<g id="edge14" class="edge">
<title>65&#45;&gt;66</title>
<path fill="none" stroke="black" d="M579.84,-71.76C574.83,-62.75 569.65,-53.44 565.07,-45.19"/>
<polygon fill="black" stroke="black" points="568.1,-43.44 560.18,-36.41 561.98,-46.85 568.1,-43.44"/>
</g>
<!-- 75 -->
<g id="node16" class="node">
<title>75</title>
<polygon fill="#c0c0c0" stroke="black" points="649.5,-36 595.5,-36 595.5,0 649.5,0 649.5,-36"/>
<text text-anchor="middle" x="622.5" y="-14.3" font-family="Times,serif" font-size="14.00">(...)</text>
</g>
<!-- 65&#45;&gt;75 -->
<g id="edge15" class="edge">
<title>65&#45;&gt;75</title>
<path fill="none" stroke="black" d="M611.21,-71.76C613.06,-63.14 614.96,-54.24 616.67,-46.26"/>
<polygon fill="black" stroke="black" points="620.11,-46.92 618.78,-36.41 613.26,-45.45 620.11,-46.92"/>
</g>
<!-- 89 -->
<g id="node18" class="node">
<title>89</title>
<polygon fill="#ffffff" stroke="black" points="977,-274 792,-274 792,-191 977,-191 977,-274"/>
<text text-anchor="middle" x="884.5" y="-258.8" font-family="Times,serif" font-size="14.00">sdComp &lt;= 0.02</text>
<text text-anchor="middle" x="884.5" y="-243.8" font-family="Times,serif" font-size="14.00">gini = 0.5</text>
<text text-anchor="middle" x="884.5" y="-228.8" font-family="Times,serif" font-size="14.00">samples = 35538</text>
<text text-anchor="middle" x="884.5" y="-213.8" font-family="Times,serif" font-size="14.00">value = [17769, 17769]</text>
<text text-anchor="middle" x="884.5" y="-198.8" font-family="Times,serif" font-size="14.00">class = False</text>
</g>
<!-- 88&#45;&gt;89 -->
<g id="edge17" class="edge">
<title>88&#45;&gt;89</title>
<path fill="none" stroke="black" d="M884.5,-309.91C884.5,-301.65 884.5,-292.86 884.5,-284.3"/>
<polygon fill="black" stroke="black" points="888,-284.02 884.5,-274.02 881,-284.02 888,-284.02"/>
</g>
<!-- 424 -->
<g id="node25" class="node">
<title>424</title>
<polygon fill="#ffffff" stroke="black" points="1259,-274 1092,-274 1092,-191 1259,-191 1259,-274"/>
<text text-anchor="middle" x="1175.5" y="-258.8" font-family="Times,serif" font-size="14.00">nbproc &lt;= 4.5</text>
<text text-anchor="middle" x="1175.5" y="-243.8" font-family="Times,serif" font-size="14.00">gini = 0.5</text>
<text text-anchor="middle" x="1175.5" y="-228.8" font-family="Times,serif" font-size="14.00">samples = 16195</text>
<text text-anchor="middle" x="1175.5" y="-213.8" font-family="Times,serif" font-size="14.00">value = [8095, 8100]</text>
<text text-anchor="middle" x="1175.5" y="-198.8" font-family="Times,serif" font-size="14.00">class = True</text>
</g>
<!-- 88&#45;&gt;424 -->
<g id="edge24" class="edge">
<title>88&#45;&gt;424</title>
<path fill="none" stroke="black" d="M977.37,-313.16C1010.98,-299.65 1048.9,-284.4 1082.51,-270.89"/>
<polygon fill="black" stroke="black" points="1083.9,-274.1 1091.87,-267.12 1081.29,-267.61 1083.9,-274.1"/>
</g>
<!-- 90 -->
<g id="node19" class="node">
<title>90</title>
<polygon fill="#ffffff" stroke="black" points="871,-155 704,-155 704,-72 871,-72 871,-155"/>
<text text-anchor="middle" x="787.5" y="-139.8" font-family="Times,serif" font-size="14.00">sdComm &lt;= 0.02</text>
<text text-anchor="middle" x="787.5" y="-124.8" font-family="Times,serif" font-size="14.00">gini = 0.5</text>
<text text-anchor="middle" x="787.5" y="-109.8" font-family="Times,serif" font-size="14.00">samples = 5482</text>
<text text-anchor="middle" x="787.5" y="-94.8" font-family="Times,serif" font-size="14.00">value = [2741, 2741]</text>
<text text-anchor="middle" x="787.5" y="-79.8" font-family="Times,serif" font-size="14.00">class = False</text>
</g>
<!-- 89&#45;&gt;90 -->
<g id="edge18" class="edge">
<title>89&#45;&gt;90</title>
<path fill="none" stroke="black" d="M850.85,-190.91C843.32,-181.83 835.27,-172.12 827.52,-162.77"/>
<polygon fill="black" stroke="black" points="830.17,-160.49 821.09,-155.02 824.78,-164.95 830.17,-160.49"/>
</g>
<!-- 173 -->
<g id="node22" class="node">
<title>173</title>
<polygon fill="#ffffff" stroke="black" points="1074,-155 889,-155 889,-72 1074,-72 1074,-155"/>
<text text-anchor="middle" x="981.5" y="-139.8" font-family="Times,serif" font-size="14.00">sdComp &lt;= 0.065</text>
<text text-anchor="middle" x="981.5" y="-124.8" font-family="Times,serif" font-size="14.00">gini = 0.5</text>
<text text-anchor="middle" x="981.5" y="-109.8" font-family="Times,serif" font-size="14.00">samples = 30056</text>
<text text-anchor="middle" x="981.5" y="-94.8" font-family="Times,serif" font-size="14.00">value = [15028, 15028]</text>
<text text-anchor="middle" x="981.5" y="-79.8" font-family="Times,serif" font-size="14.00">class = False</text>
</g>
<!-- 89&#45;&gt;173 -->
<g id="edge21" class="edge">
<title>89&#45;&gt;173</title>
<path fill="none" stroke="black" d="M918.15,-190.91C925.68,-181.83 933.73,-172.12 941.48,-162.77"/>
<polygon fill="black" stroke="black" points="944.22,-164.95 947.91,-155.02 938.83,-160.49 944.22,-164.95"/>
</g>
<!-- 91 -->
<g id="node20" class="node">
<title>91</title>
<polygon fill="#c0c0c0" stroke="black" points="767.5,-36 713.5,-36 713.5,0 767.5,0 767.5,-36"/>
<text text-anchor="middle" x="740.5" y="-14.3" font-family="Times,serif" font-size="14.00">(...)</text>
</g>
<!-- 90&#45;&gt;91 -->
<g id="edge19" class="edge">
<title>90&#45;&gt;91</title>
<path fill="none" stroke="black" d="M767.02,-71.76C762.54,-62.85 757.91,-53.64 753.8,-45.46"/>
<polygon fill="black" stroke="black" points="756.87,-43.77 749.25,-36.41 750.61,-46.91 756.87,-43.77"/>
</g>
<!-- 118 -->
<g id="node21" class="node">
<title>118</title>
<polygon fill="#c0c0c0" stroke="black" points="839.5,-36 785.5,-36 785.5,0 839.5,0 839.5,-36"/>
<text text-anchor="middle" x="812.5" y="-14.3" font-family="Times,serif" font-size="14.00">(...)</text>
</g>
<!-- 90&#45;&gt;118 -->
<g id="edge20" class="edge">
<title>90&#45;&gt;118</title>
<path fill="none" stroke="black" d="M798.39,-71.76C800.7,-63.14 803.08,-54.24 805.21,-46.26"/>
<polygon fill="black" stroke="black" points="808.64,-46.97 807.85,-36.41 801.88,-45.16 808.64,-46.97"/>
</g>
<!-- 174 -->
<g id="node23" class="node">
<title>174</title>
<polygon fill="#c0c0c0" stroke="black" points="961.5,-36 907.5,-36 907.5,0 961.5,0 961.5,-36"/>
<text text-anchor="middle" x="934.5" y="-14.3" font-family="Times,serif" font-size="14.00">(...)</text>
</g>
<!-- 173&#45;&gt;174 -->
<g id="edge22" class="edge">
<title>173&#45;&gt;174</title>
<path fill="none" stroke="black" d="M961.02,-71.76C956.54,-62.85 951.91,-53.64 947.8,-45.46"/>
<polygon fill="black" stroke="black" points="950.87,-43.77 943.25,-36.41 944.61,-46.91 950.87,-43.77"/>
</g>
<!-- 257 -->
<g id="node24" class="node">
<title>257</title>
<polygon fill="#c0c0c0" stroke="black" points="1033.5,-36 979.5,-36 979.5,0 1033.5,0 1033.5,-36"/>
<text text-anchor="middle" x="1006.5" y="-14.3" font-family="Times,serif" font-size="14.00">(...)</text>
</g>
<!-- 173&#45;&gt;257 -->
<g id="edge23" class="edge">
<title>173&#45;&gt;257</title>
<path fill="none" stroke="black" d="M992.39,-71.76C994.7,-63.14 997.08,-54.24 999.21,-46.26"/>
<polygon fill="black" stroke="black" points="1002.64,-46.97 1001.85,-36.41 995.88,-45.16 1002.64,-46.97"/>
</g>
<!-- 425 -->
<g id="node26" class="node">
<title>425</title>
<polygon fill="#ffffff" stroke="black" points="1259,-155 1092,-155 1092,-72 1259,-72 1259,-155"/>
<text text-anchor="middle" x="1175.5" y="-139.8" font-family="Times,serif" font-size="14.00">graphDepth &lt;= 6.5</text>
<text text-anchor="middle" x="1175.5" y="-124.8" font-family="Times,serif" font-size="14.00">gini = 0.5</text>
<text text-anchor="middle" x="1175.5" y="-109.8" font-family="Times,serif" font-size="14.00">samples = 6427</text>
<text text-anchor="middle" x="1175.5" y="-94.8" font-family="Times,serif" font-size="14.00">value = [3211, 3216]</text>
<text text-anchor="middle" x="1175.5" y="-79.8" font-family="Times,serif" font-size="14.00">class = True</text>
</g>
<!-- 424&#45;&gt;425 -->
<g id="edge25" class="edge">
<title>424&#45;&gt;425</title>
<path fill="none" stroke="black" d="M1175.5,-190.91C1175.5,-182.65 1175.5,-173.86 1175.5,-165.3"/>
<polygon fill="black" stroke="black" points="1179,-165.02 1175.5,-155.02 1172,-165.02 1179,-165.02"/>
</g>
<!-- 578 -->
<g id="node29" class="node">
<title>578</title>
<polygon fill="#ffffff" stroke="black" points="1444,-155 1277,-155 1277,-72 1444,-72 1444,-155"/>
<text text-anchor="middle" x="1360.5" y="-139.8" font-family="Times,serif" font-size="14.00">graphDepth &lt;= 6.5</text>
<text text-anchor="middle" x="1360.5" y="-124.8" font-family="Times,serif" font-size="14.00">gini = 0.5</text>
<text text-anchor="middle" x="1360.5" y="-109.8" font-family="Times,serif" font-size="14.00">samples = 9768</text>
<text text-anchor="middle" x="1360.5" y="-94.8" font-family="Times,serif" font-size="14.00">value = [4884, 4884]</text>
<text text-anchor="middle" x="1360.5" y="-79.8" font-family="Times,serif" font-size="14.00">class = False</text>
</g>
<!-- 424&#45;&gt;578 -->
<g id="edge28" class="edge">
<title>424&#45;&gt;578</title>
<path fill="none" stroke="black" d="M1239.68,-190.91C1255.18,-181.11 1271.85,-170.56 1287.71,-160.53"/>
<polygon fill="black" stroke="black" points="1289.85,-163.32 1296.43,-155.02 1286.11,-157.41 1289.85,-163.32"/>
</g>
<!-- 426 -->
<g id="node27" class="node">
<title>426</title>
<polygon fill="#c0c0c0" stroke="black" points="1166.5,-36 1112.5,-36 1112.5,0 1166.5,0 1166.5,-36"/>
<text text-anchor="middle" x="1139.5" y="-14.3" font-family="Times,serif" font-size="14.00">(...)</text>
</g>
<!-- 425&#45;&gt;426 -->
<g id="edge26" class="edge">
<title>425&#45;&gt;426</title>
<path fill="none" stroke="black" d="M1159.81,-71.76C1156.46,-63.04 1152.99,-54.04 1149.89,-45.99"/>
<polygon fill="black" stroke="black" points="1153.06,-44.48 1146.2,-36.41 1146.53,-46.99 1153.06,-44.48"/>
</g>
<!-- 469 -->
<g id="node28" class="node">
<title>469</title>
<polygon fill="#c0c0c0" stroke="black" points="1238.5,-36 1184.5,-36 1184.5,0 1238.5,0 1238.5,-36"/>
<text text-anchor="middle" x="1211.5" y="-14.3" font-family="Times,serif" font-size="14.00">(...)</text>
</g>
<!-- 425&#45;&gt;469 -->
<g id="edge27" class="edge">
<title>425&#45;&gt;469</title>
<path fill="none" stroke="black" d="M1191.19,-71.76C1194.54,-63.04 1198.01,-54.04 1201.11,-45.99"/>
<polygon fill="black" stroke="black" points="1204.47,-46.99 1204.8,-36.41 1197.94,-44.48 1204.47,-46.99"/>
</g>
<!-- 579 -->
<g id="node30" class="node">
<title>579</title>
<polygon fill="#c0c0c0" stroke="black" points="1351.5,-36 1297.5,-36 1297.5,0 1351.5,0 1351.5,-36"/>
<text text-anchor="middle" x="1324.5" y="-14.3" font-family="Times,serif" font-size="14.00">(...)</text>
</g>
<!-- 578&#45;&gt;579 -->
<g id="edge29" class="edge">
<title>578&#45;&gt;579</title>
<path fill="none" stroke="black" d="M1344.81,-71.76C1341.46,-63.04 1337.99,-54.04 1334.89,-45.99"/>
<polygon fill="black" stroke="black" points="1338.06,-44.48 1331.2,-36.41 1331.53,-46.99 1338.06,-44.48"/>
</g>
<!-- 618 -->
<g id="node31" class="node">
<title>618</title>
<polygon fill="#c0c0c0" stroke="black" points="1423.5,-36 1369.5,-36 1369.5,0 1423.5,0 1423.5,-36"/>
<text text-anchor="middle" x="1396.5" y="-14.3" font-family="Times,serif" font-size="14.00">(...)</text>
</g>
<!-- 578&#45;&gt;618 -->
<g id="edge30" class="edge">
<title>578&#45;&gt;618</title>
<path fill="none" stroke="black" d="M1376.19,-71.76C1379.54,-63.04 1383.01,-54.04 1386.11,-45.99"/>
<polygon fill="black" stroke="black" points="1389.47,-46.99 1389.8,-36.41 1382.94,-44.48 1389.47,-46.99"/>
</g>
</g>
</svg>
