<?xml version="1.0" encoding="UTF-8" standalone="no"?>
<!DOCTYPE svg PUBLIC "-//W3C//DTD SVG 1.1//EN"
 "http://www.w3.org/Graphics/SVG/1.1/DTD/svg11.dtd">
<!-- Generated by graphviz version 2.43.0 (0)
 -->
<!-- Title: Tree Pages: 1 -->
<svg width="2578pt" height="520pt"
 viewBox="0.00 0.00 2578.00 520.00" xmlns="http://www.w3.org/2000/svg" xmlns:xlink="http://www.w3.org/1999/xlink">
<g id="graph0" class="graph" transform="scale(1 1) rotate(0) translate(4 516)">
<title>Tree</title>
<polygon fill="white" stroke="transparent" points="-4,4 -4,-516 2574,-516 2574,4 -4,4"/>
<!-- 0 -->
<g id="node1" class="node">
<title>0</title>
<polygon fill="#fef9f5" stroke="black" points="1493.5,-512 1137.5,-512 1137.5,-429 1493.5,-429 1493.5,-512"/>
<text text-anchor="middle" x="1315.5" y="-496.8" font-family="Times,serif" font-size="14.00">graphSize &lt;= 40.0</text>
<text text-anchor="middle" x="1315.5" y="-481.8" font-family="Times,serif" font-size="14.00">gini = 0.832</text>
<text text-anchor="middle" x="1315.5" y="-466.8" font-family="Times,serif" font-size="14.00">samples = 60577</text>
<text text-anchor="middle" x="1315.5" y="-451.8" font-family="Times,serif" font-size="14.00">value = [12326, 9515, 9798, 9570, 9570, 9798]</text>
<text text-anchor="middle" x="1315.5" y="-436.8" font-family="Times,serif" font-size="14.00">class = mean</text>
</g>
<!-- 1 -->
<g id="node2" class="node">
<title>1</title>
<polygon fill="#fefbf9" stroke="black" points="1138,-393 791,-393 791,-310 1138,-310 1138,-393"/>
<text text-anchor="middle" x="964.5" y="-377.8" font-family="Times,serif" font-size="14.00">graphDepth &lt;= 3.5</text>
<text text-anchor="middle" x="964.5" y="-362.8" font-family="Times,serif" font-size="14.00">gini = 0.833</text>
<text text-anchor="middle" x="964.5" y="-347.8" font-family="Times,serif" font-size="14.00">samples = 50443</text>
<text text-anchor="middle" x="964.5" y="-332.8" font-family="Times,serif" font-size="14.00">value = [9652, 8047, 8338, 8034, 8034, 8338]</text>
<text text-anchor="middle" x="964.5" y="-317.8" font-family="Times,serif" font-size="14.00">class = mean</text>
</g>
<!-- 0&#45;&gt;1 -->
<g id="edge1" class="edge">
<title>0&#45;&gt;1</title>
<path fill="none" stroke="black" d="M1193.72,-428.91C1162.14,-418.38 1127.99,-407 1095.94,-396.31"/>
<polygon fill="black" stroke="black" points="1096.66,-392.86 1086.06,-393.02 1094.44,-399.5 1096.66,-392.86"/>
<text text-anchor="middle" x="1097.24" y="-411.68" font-family="Times,serif" font-size="14.00">True</text>
</g>
<!-- 370 -->
<g id="node17" class="node">
<title>370</title>
<polygon fill="#fceee5" stroke="black" points="1828,-393 1481,-393 1481,-310 1828,-310 1828,-393"/>
<text text-anchor="middle" x="1654.5" y="-377.8" font-family="Times,serif" font-size="14.00">sdComm &lt;= 0.2</text>
<text text-anchor="middle" x="1654.5" y="-362.8" font-family="Times,serif" font-size="14.00">gini = 0.822</text>
<text text-anchor="middle" x="1654.5" y="-347.8" font-family="Times,serif" font-size="14.00">samples = 10134</text>
<text text-anchor="middle" x="1654.5" y="-332.8" font-family="Times,serif" font-size="14.00">value = [2674, 1468, 1460, 1536, 1536, 1460]</text>
<text text-anchor="middle" x="1654.5" y="-317.8" font-family="Times,serif" font-size="14.00">class = mean</text>
</g>
<!-- 0&#45;&gt;370 -->
<g id="edge16" class="edge">
<title>0&#45;&gt;370</title>
<path fill="none" stroke="black" d="M1433.11,-428.91C1463.62,-418.38 1496.6,-407 1527.56,-396.31"/>
<polygon fill="black" stroke="black" points="1528.78,-399.59 1537.09,-393.02 1526.5,-392.97 1528.78,-399.59"/>
<text text-anchor="middle" x="1526.15" y="-411.8" font-family="Times,serif" font-size="14.00">False</text>
</g>
<!-- 2 -->
<g id="node3" class="node">
<title>2</title>
<polygon fill="#ffffff" stroke="black" points="604,-274 257,-274 257,-191 604,-191 604,-274"/>
<text text-anchor="middle" x="430.5" y="-258.8" font-family="Times,serif" font-size="14.00">sdComp &lt;= 0.02</text>
<text text-anchor="middle" x="430.5" y="-243.8" font-family="Times,serif" font-size="14.00">gini = 0.833</text>
<text text-anchor="middle" x="430.5" y="-228.8" font-family="Times,serif" font-size="14.00">samples = 8844</text>
<text text-anchor="middle" x="430.5" y="-213.8" font-family="Times,serif" font-size="14.00">value = [1520, 1396, 1374, 1590, 1590, 1374]</text>
<text text-anchor="middle" x="430.5" y="-198.8" font-family="Times,serif" font-size="14.00">class = minmax</text>
</g>
<!-- 1&#45;&gt;2 -->
<g id="edge2" class="edge">
<title>1&#45;&gt;2</title>
<path fill="none" stroke="black" d="M790.76,-312.43C734.2,-300.04 671.27,-286.25 614.02,-273.71"/>
<polygon fill="black" stroke="black" points="614.66,-270.27 604.15,-271.55 613.17,-277.11 614.66,-270.27"/>
</g>
<!-- 89 -->
<g id="node10" class="node">
<title>89</title>
<polygon fill="#fefbf8" stroke="black" points="1138,-274 791,-274 791,-191 1138,-191 1138,-274"/>
<text text-anchor="middle" x="964.5" y="-258.8" font-family="Times,serif" font-size="14.00">CCR &lt;= 0.55</text>
<text text-anchor="middle" x="964.5" y="-243.8" font-family="Times,serif" font-size="14.00">gini = 0.832</text>
<text text-anchor="middle" x="964.5" y="-228.8" font-family="Times,serif" font-size="14.00">samples = 41599</text>
<text text-anchor="middle" x="964.5" y="-213.8" font-family="Times,serif" font-size="14.00">value = [8132, 6651, 6964, 6444, 6444, 6964]</text>
<text text-anchor="middle" x="964.5" y="-198.8" font-family="Times,serif" font-size="14.00">class = mean</text>
</g>
<!-- 1&#45;&gt;89 -->
<g id="edge9" class="edge">
<title>1&#45;&gt;89</title>
<path fill="none" stroke="black" d="M964.5,-309.91C964.5,-301.65 964.5,-292.86 964.5,-284.3"/>
<polygon fill="black" stroke="black" points="968,-284.02 964.5,-274.02 961,-284.02 968,-284.02"/>
</g>
<!-- 3 -->
<g id="node4" class="node">
<title>3</title>
<polygon fill="#ffffff" stroke="black" points="239,-155 0,-155 0,-72 239,-72 239,-155"/>
<text text-anchor="middle" x="119.5" y="-139.8" font-family="Times,serif" font-size="14.00">sdComm &lt;= 0.02</text>
<text text-anchor="middle" x="119.5" y="-124.8" font-family="Times,serif" font-size="14.00">gini = 0.807</text>
<text text-anchor="middle" x="119.5" y="-109.8" font-family="Times,serif" font-size="14.00">samples = 374</text>
<text text-anchor="middle" x="119.5" y="-94.8" font-family="Times,serif" font-size="14.00">value = [60, 38, 42, 96, 96, 42]</text>
<text text-anchor="middle" x="119.5" y="-79.8" font-family="Times,serif" font-size="14.00">class = minmax</text>
</g>
<!-- 2&#45;&gt;3 -->
<g id="edge3" class="edge">
<title>2&#45;&gt;3</title>
<path fill="none" stroke="black" d="M322.6,-190.91C294.86,-180.47 264.88,-169.19 236.69,-158.59"/>
<polygon fill="black" stroke="black" points="237.8,-155.27 227.21,-155.02 235.34,-161.82 237.8,-155.27"/>
</g>
<!-- 14 -->
<g id="node7" class="node">
<title>14</title>
<polygon fill="#ffffff" stroke="black" points="604,-155 257,-155 257,-72 604,-72 604,-155"/>
<text text-anchor="middle" x="430.5" y="-139.8" font-family="Times,serif" font-size="14.00">sdComm &lt;= 0.2</text>
<text text-anchor="middle" x="430.5" y="-124.8" font-family="Times,serif" font-size="14.00">gini = 0.833</text>
<text text-anchor="middle" x="430.5" y="-109.8" font-family="Times,serif" font-size="14.00">samples = 8470</text>
<text text-anchor="middle" x="430.5" y="-94.8" font-family="Times,serif" font-size="14.00">value = [1460, 1358, 1332, 1494, 1494, 1332]</text>
<text text-anchor="middle" x="430.5" y="-79.8" font-family="Times,serif" font-size="14.00">class = minmax</text>
</g>
<!-- 2&#45;&gt;14 -->
<g id="edge6" class="edge">
<title>2&#45;&gt;14</title>
<path fill="none" stroke="black" d="M430.5,-190.91C430.5,-182.65 430.5,-173.86 430.5,-165.3"/>
<polygon fill="black" stroke="black" points="434,-165.02 430.5,-155.02 427,-165.02 434,-165.02"/>
</g>
<!-- 4 -->
<g id="node5" class="node">
<title>4</title>
<polygon fill="#c0c0c0" stroke="black" points="110.5,-36 56.5,-36 56.5,0 110.5,0 110.5,-36"/>
<text text-anchor="middle" x="83.5" y="-14.3" font-family="Times,serif" font-size="14.00">(...)</text>
</g>
<!-- 3&#45;&gt;4 -->
<g id="edge4" class="edge">
<title>3&#45;&gt;4</title>
<path fill="none" stroke="black" d="M103.81,-71.76C100.46,-63.04 96.99,-54.04 93.89,-45.99"/>
<polygon fill="black" stroke="black" points="97.06,-44.48 90.2,-36.41 90.53,-46.99 97.06,-44.48"/>
</g>
<!-- 7 -->
<g id="node6" class="node">
<title>7</title>
<polygon fill="#c0c0c0" stroke="black" points="182.5,-36 128.5,-36 128.5,0 182.5,0 182.5,-36"/>
<text text-anchor="middle" x="155.5" y="-14.3" font-family="Times,serif" font-size="14.00">(...)</text>
</g>
<!-- 3&#45;&gt;7 -->
<g id="edge5" class="edge">
<title>3&#45;&gt;7</title>
<path fill="none" stroke="black" d="M135.19,-71.76C138.54,-63.04 142.01,-54.04 145.11,-45.99"/>
<polygon fill="black" stroke="black" points="148.47,-46.99 148.8,-36.41 141.94,-44.48 148.47,-46.99"/>
</g>
<!-- 15 -->
<g id="node8" class="node">
<title>15</title>
<polygon fill="#c0c0c0" stroke="black" points="421.5,-36 367.5,-36 367.5,0 421.5,0 421.5,-36"/>
<text text-anchor="middle" x="394.5" y="-14.3" font-family="Times,serif" font-size="14.00">(...)</text>
</g>
<!-- 14&#45;&gt;15 -->
<g id="edge7" class="edge">
<title>14&#45;&gt;15</title>
<path fill="none" stroke="black" d="M414.81,-71.76C411.46,-63.04 407.99,-54.04 404.89,-45.99"/>
<polygon fill="black" stroke="black" points="408.06,-44.48 401.2,-36.41 401.53,-46.99 408.06,-44.48"/>
</g>
<!-- 50 -->
<g id="node9" class="node">
<title>50</title>
<polygon fill="#c0c0c0" stroke="black" points="493.5,-36 439.5,-36 439.5,0 493.5,0 493.5,-36"/>
<text text-anchor="middle" x="466.5" y="-14.3" font-family="Times,serif" font-size="14.00">(...)</text>
</g>
<!-- 14&#45;&gt;50 -->
<g id="edge8" class="edge">
<title>14&#45;&gt;50</title>
<path fill="none" stroke="black" d="M446.19,-71.76C449.54,-63.04 453.01,-54.04 456.11,-45.99"/>
<polygon fill="black" stroke="black" points="459.47,-46.99 459.8,-36.41 452.94,-44.48 459.47,-46.99"/>
</g>
<!-- 90 -->
<g id="node11" class="node">
<title>90</title>
<polygon fill="#fefbf8" stroke="black" points="969,-155 622,-155 622,-72 969,-72 969,-155"/>
<text text-anchor="middle" x="795.5" y="-139.8" font-family="Times,serif" font-size="14.00">sdComm &lt;= 0.065</text>
<text text-anchor="middle" x="795.5" y="-124.8" font-family="Times,serif" font-size="14.00">gini = 0.832</text>
<text text-anchor="middle" x="795.5" y="-109.8" font-family="Times,serif" font-size="14.00">samples = 25584</text>
<text text-anchor="middle" x="795.5" y="-94.8" font-family="Times,serif" font-size="14.00">value = [5096, 4124, 4368, 3814, 3814, 4368]</text>
<text text-anchor="middle" x="795.5" y="-79.8" font-family="Times,serif" font-size="14.00">class = mean</text>
</g>
<!-- 89&#45;&gt;90 -->
<g id="edge10" class="edge">
<title>89&#45;&gt;90</title>
<path fill="none" stroke="black" d="M905.87,-190.91C891.84,-181.2 876.76,-170.76 862.39,-160.81"/>
<polygon fill="black" stroke="black" points="864.24,-157.84 854.03,-155.02 860.26,-163.59 864.24,-157.84"/>
</g>
<!-- 197 -->
<g id="node14" class="node">
<title>197</title>
<polygon fill="#fefbf9" stroke="black" points="1334,-155 987,-155 987,-72 1334,-72 1334,-155"/>
<text text-anchor="middle" x="1160.5" y="-139.8" font-family="Times,serif" font-size="14.00">sdComp &lt;= 0.65</text>
<text text-anchor="middle" x="1160.5" y="-124.8" font-family="Times,serif" font-size="14.00">gini = 0.833</text>
<text text-anchor="middle" x="1160.5" y="-109.8" font-family="Times,serif" font-size="14.00">samples = 16015</text>
<text text-anchor="middle" x="1160.5" y="-94.8" font-family="Times,serif" font-size="14.00">value = [3036, 2527, 2596, 2630, 2630, 2596]</text>
<text text-anchor="middle" x="1160.5" y="-79.8" font-family="Times,serif" font-size="14.00">class = mean</text>
</g>
<!-- 89&#45;&gt;197 -->
<g id="edge13" class="edge">
<title>89&#45;&gt;197</title>
<path fill="none" stroke="black" d="M1032.5,-190.91C1049.07,-181.02 1066.91,-170.37 1083.85,-160.25"/>
<polygon fill="black" stroke="black" points="1085.83,-163.15 1092.62,-155.02 1082.24,-157.14 1085.83,-163.15"/>
</g>
<!-- 91 -->
<g id="node12" class="node">
<title>91</title>
<polygon fill="#c0c0c0" stroke="black" points="786.5,-36 732.5,-36 732.5,0 786.5,0 786.5,-36"/>
<text text-anchor="middle" x="759.5" y="-14.3" font-family="Times,serif" font-size="14.00">(...)</text>
</g>
<!-- 90&#45;&gt;91 -->
<g id="edge11" class="edge">
<title>90&#45;&gt;91</title>
<path fill="none" stroke="black" d="M779.81,-71.76C776.46,-63.04 772.99,-54.04 769.89,-45.99"/>
<polygon fill="black" stroke="black" points="773.06,-44.48 766.2,-36.41 766.53,-46.99 773.06,-44.48"/>
</g>
<!-- 162 -->
<g id="node13" class="node">
<title>162</title>
<polygon fill="#c0c0c0" stroke="black" points="858.5,-36 804.5,-36 804.5,0 858.5,0 858.5,-36"/>
<text text-anchor="middle" x="831.5" y="-14.3" font-family="Times,serif" font-size="14.00">(...)</text>
</g>
<!-- 90&#45;&gt;162 -->
<g id="edge12" class="edge">
<title>90&#45;&gt;162</title>
<path fill="none" stroke="black" d="M811.19,-71.76C814.54,-63.04 818.01,-54.04 821.11,-45.99"/>
<polygon fill="black" stroke="black" points="824.47,-46.99 824.8,-36.41 817.94,-44.48 824.47,-46.99"/>
</g>
<!-- 198 -->
<g id="node15" class="node">
<title>198</title>
<polygon fill="#c0c0c0" stroke="black" points="1151.5,-36 1097.5,-36 1097.5,0 1151.5,0 1151.5,-36"/>
<text text-anchor="middle" x="1124.5" y="-14.3" font-family="Times,serif" font-size="14.00">(...)</text>
</g>
<!-- 197&#45;&gt;198 -->
<g id="edge14" class="edge">
<title>197&#45;&gt;198</title>
<path fill="none" stroke="black" d="M1144.81,-71.76C1141.46,-63.04 1137.99,-54.04 1134.89,-45.99"/>
<polygon fill="black" stroke="black" points="1138.06,-44.48 1131.2,-36.41 1131.53,-46.99 1138.06,-44.48"/>
</g>
<!-- 269 -->
<g id="node16" class="node">
<title>269</title>
<polygon fill="#c0c0c0" stroke="black" points="1223.5,-36 1169.5,-36 1169.5,0 1223.5,0 1223.5,-36"/>
<text text-anchor="middle" x="1196.5" y="-14.3" font-family="Times,serif" font-size="14.00">(...)</text>
</g>
<!-- 197&#45;&gt;269 -->
<g id="edge15" class="edge">
<title>197&#45;&gt;269</title>
<path fill="none" stroke="black" d="M1176.19,-71.76C1179.54,-63.04 1183.01,-54.04 1186.11,-45.99"/>
<polygon fill="black" stroke="black" points="1189.47,-46.99 1189.8,-36.41 1182.94,-44.48 1189.47,-46.99"/>
</g>
<!-- 371 -->
<g id="node18" class="node">
<title>371</title>
<polygon fill="#fbede3" stroke="black" points="1805.5,-274 1503.5,-274 1503.5,-191 1805.5,-191 1805.5,-274"/>
<text text-anchor="middle" x="1654.5" y="-258.8" font-family="Times,serif" font-size="14.00">nbproc &lt;= 4.5</text>
<text text-anchor="middle" x="1654.5" y="-243.8" font-family="Times,serif" font-size="14.00">gini = 0.817</text>
<text text-anchor="middle" x="1654.5" y="-228.8" font-family="Times,serif" font-size="14.00">samples = 5994</text>
<text text-anchor="middle" x="1654.5" y="-213.8" font-family="Times,serif" font-size="14.00">value = [1670, 772, 810, 966, 966, 810]</text>
<text text-anchor="middle" x="1654.5" y="-198.8" font-family="Times,serif" font-size="14.00">class = mean</text>
</g>
<!-- 370&#45;&gt;371 -->
<g id="edge17" class="edge">
<title>370&#45;&gt;371</title>
<path fill="none" stroke="black" d="M1654.5,-309.91C1654.5,-301.65 1654.5,-292.86 1654.5,-284.3"/>
<polygon fill="black" stroke="black" points="1658,-284.02 1654.5,-274.02 1651,-284.02 1658,-284.02"/>
</g>
<!-- 562 -->
<g id="node25" class="node">
<title>562</title>
<polygon fill="#fdf4ed" stroke="black" points="2281.5,-274 1979.5,-274 1979.5,-191 2281.5,-191 2281.5,-274"/>
<text text-anchor="middle" x="2130.5" y="-258.8" font-family="Times,serif" font-size="14.00">sdComp &lt;= 2.0</text>
<text text-anchor="middle" x="2130.5" y="-243.8" font-family="Times,serif" font-size="14.00">gini = 0.826</text>
<text text-anchor="middle" x="2130.5" y="-228.8" font-family="Times,serif" font-size="14.00">samples = 4140</text>
<text text-anchor="middle" x="2130.5" y="-213.8" font-family="Times,serif" font-size="14.00">value = [1004, 696, 650, 570, 570, 650]</text>
<text text-anchor="middle" x="2130.5" y="-198.8" font-family="Times,serif" font-size="14.00">class = mean</text>
</g>
<!-- 370&#45;&gt;562 -->
<g id="edge24" class="edge">
<title>370&#45;&gt;562</title>
<path fill="none" stroke="black" d="M1819.31,-309.99C1867.94,-298.04 1921.08,-284.97 1969.47,-273.08"/>
<polygon fill="black" stroke="black" points="1970.52,-276.43 1979.4,-270.64 1968.85,-269.63 1970.52,-276.43"/>
</g>
<!-- 372 -->
<g id="node19" class="node">
<title>372</title>
<polygon fill="#fdf4ee" stroke="black" points="1645,-155 1352,-155 1352,-72 1645,-72 1645,-155"/>
<text text-anchor="middle" x="1498.5" y="-139.8" font-family="Times,serif" font-size="14.00">sdComp &lt;= 0.02</text>
<text text-anchor="middle" x="1498.5" y="-124.8" font-family="Times,serif" font-size="14.00">gini = 0.821</text>
<text text-anchor="middle" x="1498.5" y="-109.8" font-family="Times,serif" font-size="14.00">samples = 2398</text>
<text text-anchor="middle" x="1498.5" y="-94.8" font-family="Times,serif" font-size="14.00">value = [604, 334, 290, 440, 440, 290]</text>
<text text-anchor="middle" x="1498.5" y="-79.8" font-family="Times,serif" font-size="14.00">class = mean</text>
</g>
<!-- 371&#45;&gt;372 -->
<g id="edge18" class="edge">
<title>371&#45;&gt;372</title>
<path fill="none" stroke="black" d="M1600.38,-190.91C1587.55,-181.29 1573.77,-170.95 1560.62,-161.09"/>
<polygon fill="black" stroke="black" points="1562.63,-158.22 1552.53,-155.02 1558.43,-163.82 1562.63,-158.22"/>
</g>
<!-- 467 -->
<g id="node22" class="node">
<title>467</title>
<polygon fill="#fae9dc" stroke="black" points="1965.5,-155 1663.5,-155 1663.5,-72 1965.5,-72 1965.5,-155"/>
<text text-anchor="middle" x="1814.5" y="-139.8" font-family="Times,serif" font-size="14.00">graphDepth &lt;= 25.5</text>
<text text-anchor="middle" x="1814.5" y="-124.8" font-family="Times,serif" font-size="14.00">gini = 0.813</text>
<text text-anchor="middle" x="1814.5" y="-109.8" font-family="Times,serif" font-size="14.00">samples = 3596</text>
<text text-anchor="middle" x="1814.5" y="-94.8" font-family="Times,serif" font-size="14.00">value = [1066, 438, 520, 526, 526, 520]</text>
<text text-anchor="middle" x="1814.5" y="-79.8" font-family="Times,serif" font-size="14.00">class = mean</text>
</g>
<!-- 371&#45;&gt;467 -->
<g id="edge21" class="edge">
<title>371&#45;&gt;467</title>
<path fill="none" stroke="black" d="M1710.01,-190.91C1723.17,-181.29 1737.3,-170.95 1750.79,-161.09"/>
<polygon fill="black" stroke="black" points="1753.08,-163.75 1759.09,-155.02 1748.95,-158.1 1753.08,-163.75"/>
</g>
<!-- 373 -->
<g id="node20" class="node">
<title>373</title>
<polygon fill="#c0c0c0" stroke="black" points="1489.5,-36 1435.5,-36 1435.5,0 1489.5,0 1489.5,-36"/>
<text text-anchor="middle" x="1462.5" y="-14.3" font-family="Times,serif" font-size="14.00">(...)</text>
</g>
<!-- 372&#45;&gt;373 -->
<g id="edge19" class="edge">
<title>372&#45;&gt;373</title>
<path fill="none" stroke="black" d="M1482.81,-71.76C1479.46,-63.04 1475.99,-54.04 1472.89,-45.99"/>
<polygon fill="black" stroke="black" points="1476.06,-44.48 1469.2,-36.41 1469.53,-46.99 1476.06,-44.48"/>
</g>
<!-- 396 -->
<g id="node21" class="node">
<title>396</title>
<polygon fill="#c0c0c0" stroke="black" points="1561.5,-36 1507.5,-36 1507.5,0 1561.5,0 1561.5,-36"/>
<text text-anchor="middle" x="1534.5" y="-14.3" font-family="Times,serif" font-size="14.00">(...)</text>
</g>
<!-- 372&#45;&gt;396 -->
<g id="edge20" class="edge">
<title>372&#45;&gt;396</title>
<path fill="none" stroke="black" d="M1514.19,-71.76C1517.54,-63.04 1521.01,-54.04 1524.11,-45.99"/>
<polygon fill="black" stroke="black" points="1527.47,-46.99 1527.8,-36.41 1520.94,-44.48 1527.47,-46.99"/>
</g>
<!-- 468 -->
<g id="node23" class="node">
<title>468</title>
<polygon fill="#c0c0c0" stroke="black" points="1805.5,-36 1751.5,-36 1751.5,0 1805.5,0 1805.5,-36"/>
<text text-anchor="middle" x="1778.5" y="-14.3" font-family="Times,serif" font-size="14.00">(...)</text>
</g>
<!-- 467&#45;&gt;468 -->
<g id="edge22" class="edge">
<title>467&#45;&gt;468</title>
<path fill="none" stroke="black" d="M1798.81,-71.76C1795.46,-63.04 1791.99,-54.04 1788.89,-45.99"/>
<polygon fill="black" stroke="black" points="1792.06,-44.48 1785.2,-36.41 1785.53,-46.99 1792.06,-44.48"/>
</g>
<!-- 539 -->
<g id="node24" class="node">
<title>539</title>
<polygon fill="#c0c0c0" stroke="black" points="1877.5,-36 1823.5,-36 1823.5,0 1877.5,0 1877.5,-36"/>
<text text-anchor="middle" x="1850.5" y="-14.3" font-family="Times,serif" font-size="14.00">(...)</text>
</g>
<!-- 467&#45;&gt;539 -->
<g id="edge23" class="edge">
<title>467&#45;&gt;539</title>
<path fill="none" stroke="black" d="M1830.19,-71.76C1833.54,-63.04 1837.01,-54.04 1840.11,-45.99"/>
<polygon fill="black" stroke="black" points="1843.47,-46.99 1843.8,-36.41 1836.94,-44.48 1843.47,-46.99"/>
</g>
<!-- 563 -->
<g id="node26" class="node">
<title>563</title>
<polygon fill="#fef8f4" stroke="black" points="2277,-155 1984,-155 1984,-72 2277,-72 2277,-155"/>
<text text-anchor="middle" x="2130.5" y="-139.8" font-family="Times,serif" font-size="14.00">CCR &lt;= 5.5</text>
<text text-anchor="middle" x="2130.5" y="-124.8" font-family="Times,serif" font-size="14.00">gini = 0.829</text>
<text text-anchor="middle" x="2130.5" y="-109.8" font-family="Times,serif" font-size="14.00">samples = 3384</text>
<text text-anchor="middle" x="2130.5" y="-94.8" font-family="Times,serif" font-size="14.00">value = [746, 590, 542, 482, 482, 542]</text>
<text text-anchor="middle" x="2130.5" y="-79.8" font-family="Times,serif" font-size="14.00">class = mean</text>
</g>
<!-- 562&#45;&gt;563 -->
<g id="edge25" class="edge">
<title>562&#45;&gt;563</title>
<path fill="none" stroke="black" d="M2130.5,-190.91C2130.5,-182.65 2130.5,-173.86 2130.5,-165.3"/>
<polygon fill="black" stroke="black" points="2134,-165.02 2130.5,-155.02 2127,-165.02 2134,-165.02"/>
</g>
<!-- 680 -->
<g id="node29" class="node">
<title>680</title>
<polygon fill="#f9e2d1" stroke="black" points="2570,-155 2295,-155 2295,-72 2570,-72 2570,-155"/>
<text text-anchor="middle" x="2432.5" y="-139.8" font-family="Times,serif" font-size="14.00">graphDepth &lt;= 12.5</text>
<text text-anchor="middle" x="2432.5" y="-124.8" font-family="Times,serif" font-size="14.00">gini = 0.796</text>
<text text-anchor="middle" x="2432.5" y="-109.8" font-family="Times,serif" font-size="14.00">samples = 756</text>
<text text-anchor="middle" x="2432.5" y="-94.8" font-family="Times,serif" font-size="14.00">value = [258, 106, 108, 88, 88, 108]</text>
<text text-anchor="middle" x="2432.5" y="-79.8" font-family="Times,serif" font-size="14.00">class = mean</text>
</g>
<!-- 562&#45;&gt;680 -->
<g id="edge28" class="edge">
<title>562&#45;&gt;680</title>
<path fill="none" stroke="black" d="M2235.28,-190.91C2262.1,-180.52 2291.07,-169.29 2318.34,-158.73"/>
<polygon fill="black" stroke="black" points="2319.85,-161.9 2327.91,-155.02 2317.32,-155.37 2319.85,-161.9"/>
</g>
<!-- 564 -->
<g id="node27" class="node">
<title>564</title>
<polygon fill="#c0c0c0" stroke="black" points="2121.5,-36 2067.5,-36 2067.5,0 2121.5,0 2121.5,-36"/>
<text text-anchor="middle" x="2094.5" y="-14.3" font-family="Times,serif" font-size="14.00">(...)</text>
</g>
<!-- 563&#45;&gt;564 -->
<g id="edge26" class="edge">
<title>563&#45;&gt;564</title>
<path fill="none" stroke="black" d="M2114.81,-71.76C2111.46,-63.04 2107.99,-54.04 2104.89,-45.99"/>
<polygon fill="black" stroke="black" points="2108.06,-44.48 2101.2,-36.41 2101.53,-46.99 2108.06,-44.48"/>
</g>
<!-- 659 -->
<g id="node28" class="node">
<title>659</title>
<polygon fill="#c0c0c0" stroke="black" points="2193.5,-36 2139.5,-36 2139.5,0 2193.5,0 2193.5,-36"/>
<text text-anchor="middle" x="2166.5" y="-14.3" font-family="Times,serif" font-size="14.00">(...)</text>
</g>
<!-- 563&#45;&gt;659 -->
<g id="edge27" class="edge">
<title>563&#45;&gt;659</title>
<path fill="none" stroke="black" d="M2146.19,-71.76C2149.54,-63.04 2153.01,-54.04 2156.11,-45.99"/>
<polygon fill="black" stroke="black" points="2159.47,-46.99 2159.8,-36.41 2152.94,-44.48 2159.47,-46.99"/>
</g>
<!-- 681 -->
<g id="node30" class="node">
<title>681</title>
<polygon fill="#c0c0c0" stroke="black" points="2423.5,-36 2369.5,-36 2369.5,0 2423.5,0 2423.5,-36"/>
<text text-anchor="middle" x="2396.5" y="-14.3" font-family="Times,serif" font-size="14.00">(...)</text>
</g>
<!-- 680&#45;&gt;681 -->
<g id="edge29" class="edge">
<title>680&#45;&gt;681</title>
<path fill="none" stroke="black" d="M2416.81,-71.76C2413.46,-63.04 2409.99,-54.04 2406.89,-45.99"/>
<polygon fill="black" stroke="black" points="2410.06,-44.48 2403.2,-36.41 2403.53,-46.99 2410.06,-44.48"/>
</g>
<!-- 682 -->
<g id="node31" class="node">
<title>682</title>
<polygon fill="#c0c0c0" stroke="black" points="2495.5,-36 2441.5,-36 2441.5,0 2495.5,0 2495.5,-36"/>
<text text-anchor="middle" x="2468.5" y="-14.3" font-family="Times,serif" font-size="14.00">(...)</text>
</g>
<!-- 680&#45;&gt;682 -->
<g id="edge30" class="edge">
<title>680&#45;&gt;682</title>
<path fill="none" stroke="black" d="M2448.19,-71.76C2451.54,-63.04 2455.01,-54.04 2458.11,-45.99"/>
<polygon fill="black" stroke="black" points="2461.47,-46.99 2461.8,-36.41 2454.94,-44.48 2461.47,-46.99"/>
</g>
</g>
</svg>
