<?xml version="1.0" encoding="UTF-8" standalone="no"?>
<!DOCTYPE svg PUBLIC "-//W3C//DTD SVG 1.1//EN"
 "http://www.w3.org/Graphics/SVG/1.1/DTD/svg11.dtd">
<!-- Generated by graphviz version 2.43.0 (0)
 -->
<!-- Title: Tree Pages: 1 -->
<svg width="1379pt" height="520pt"
 viewBox="0.00 0.00 1379.00 520.00" xmlns="http://www.w3.org/2000/svg" xmlns:xlink="http://www.w3.org/1999/xlink">
<g id="graph0" class="graph" transform="scale(1 1) rotate(0) translate(4 516)">
<title>Tree</title>
<polygon fill="white" stroke="transparent" points="-4,4 -4,-516 1375,-516 1375,4 -4,4"/>
<!-- 0 -->
<g id="node1" class="node">
<title>0</title>
<polygon fill="#eeaf81" stroke="black" points="771,-512 604,-512 604,-429 771,-429 771,-512"/>
<text text-anchor="middle" x="687.5" y="-496.8" font-family="Times,serif" font-size="14.00">sdComm &lt;= 0.2</text>
<text text-anchor="middle" x="687.5" y="-481.8" font-family="Times,serif" font-size="14.00">gini = 0.392</text>
<text text-anchor="middle" x="687.5" y="-466.8" font-family="Times,serif" font-size="14.00">samples = 7849</text>
<text text-anchor="middle" x="687.5" y="-451.8" font-family="Times,serif" font-size="14.00">value = [5749, 2100]</text>
<text text-anchor="middle" x="687.5" y="-436.8" font-family="Times,serif" font-size="14.00">class = False</text>
</g>
<!-- 1 -->
<g id="node2" class="node">
<title>1</title>
<polygon fill="#e78c4a" stroke="black" points="590.5,-393 432.5,-393 432.5,-310 590.5,-310 590.5,-393"/>
<text text-anchor="middle" x="511.5" y="-377.8" font-family="Times,serif" font-size="14.00">graphSize &lt;= 22.5</text>
<text text-anchor="middle" x="511.5" y="-362.8" font-family="Times,serif" font-size="14.00">gini = 0.148</text>
<text text-anchor="middle" x="511.5" y="-347.8" font-family="Times,serif" font-size="14.00">samples = 2984</text>
<text text-anchor="middle" x="511.5" y="-332.8" font-family="Times,serif" font-size="14.00">value = [2743, 241]</text>
<text text-anchor="middle" x="511.5" y="-317.8" font-family="Times,serif" font-size="14.00">class = False</text>
</g>
<!-- 0&#45;&gt;1 -->
<g id="edge1" class="edge">
<title>0&#45;&gt;1</title>
<path fill="none" stroke="black" d="M626.44,-428.91C611.83,-419.2 596.13,-408.76 581.16,-398.81"/>
<polygon fill="black" stroke="black" points="582.72,-395.64 572.45,-393.02 578.84,-401.47 582.72,-395.64"/>
<text text-anchor="middle" x="577.39" y="-413.83" font-family="Times,serif" font-size="14.00">True</text>
</g>
<!-- 130 -->
<g id="node17" class="node">
<title>130</title>
<polygon fill="#f5cfb3" stroke="black" points="938,-393 771,-393 771,-310 938,-310 938,-393"/>
<text text-anchor="middle" x="854.5" y="-377.8" font-family="Times,serif" font-size="14.00">sdComp &lt;= 0.2</text>
<text text-anchor="middle" x="854.5" y="-362.8" font-family="Times,serif" font-size="14.00">gini = 0.472</text>
<text text-anchor="middle" x="854.5" y="-347.8" font-family="Times,serif" font-size="14.00">samples = 4865</text>
<text text-anchor="middle" x="854.5" y="-332.8" font-family="Times,serif" font-size="14.00">value = [3006, 1859]</text>
<text text-anchor="middle" x="854.5" y="-317.8" font-family="Times,serif" font-size="14.00">class = False</text>
</g>
<!-- 0&#45;&gt;130 -->
<g id="edge16" class="edge">
<title>0&#45;&gt;130</title>
<path fill="none" stroke="black" d="M745.44,-428.91C759.3,-419.2 774.2,-408.76 788.4,-398.81"/>
<polygon fill="black" stroke="black" points="790.48,-401.63 796.66,-393.02 786.46,-395.89 790.48,-401.63"/>
<text text-anchor="middle" x="792.33" y="-413.94" font-family="Times,serif" font-size="14.00">False</text>
</g>
<!-- 2 -->
<g id="node3" class="node">
<title>2</title>
<polygon fill="#ea985e" stroke="black" points="324.5,-274 166.5,-274 166.5,-191 324.5,-191 324.5,-274"/>
<text text-anchor="middle" x="245.5" y="-258.8" font-family="Times,serif" font-size="14.00">CCR &lt;= 0.55</text>
<text text-anchor="middle" x="245.5" y="-243.8" font-family="Times,serif" font-size="14.00">gini = 0.264</text>
<text text-anchor="middle" x="245.5" y="-228.8" font-family="Times,serif" font-size="14.00">samples = 1336</text>
<text text-anchor="middle" x="245.5" y="-213.8" font-family="Times,serif" font-size="14.00">value = [1127, 209]</text>
<text text-anchor="middle" x="245.5" y="-198.8" font-family="Times,serif" font-size="14.00">class = False</text>
</g>
<!-- 1&#45;&gt;2 -->
<g id="edge2" class="edge">
<title>1&#45;&gt;2</title>
<path fill="none" stroke="black" d="M432.41,-315.71C401.47,-302.1 365.84,-286.43 334.04,-272.44"/>
<polygon fill="black" stroke="black" points="335.31,-269.18 324.74,-268.36 332.49,-275.59 335.31,-269.18"/>
</g>
<!-- 77 -->
<g id="node10" class="node">
<title>77</title>
<polygon fill="#e6833d" stroke="black" points="586,-274 437,-274 437,-191 586,-191 586,-274"/>
<text text-anchor="middle" x="511.5" y="-258.8" font-family="Times,serif" font-size="14.00">sdComp &lt;= 0.65</text>
<text text-anchor="middle" x="511.5" y="-243.8" font-family="Times,serif" font-size="14.00">gini = 0.038</text>
<text text-anchor="middle" x="511.5" y="-228.8" font-family="Times,serif" font-size="14.00">samples = 1648</text>
<text text-anchor="middle" x="511.5" y="-213.8" font-family="Times,serif" font-size="14.00">value = [1616, 32]</text>
<text text-anchor="middle" x="511.5" y="-198.8" font-family="Times,serif" font-size="14.00">class = False</text>
</g>
<!-- 1&#45;&gt;77 -->
<g id="edge9" class="edge">
<title>1&#45;&gt;77</title>
<path fill="none" stroke="black" d="M511.5,-309.91C511.5,-301.65 511.5,-292.86 511.5,-284.3"/>
<polygon fill="black" stroke="black" points="515,-284.02 511.5,-274.02 508,-284.02 515,-284.02"/>
</g>
<!-- 3 -->
<g id="node4" class="node">
<title>3</title>
<polygon fill="#e99558" stroke="black" points="149,-155 0,-155 0,-72 149,-72 149,-155"/>
<text text-anchor="middle" x="74.5" y="-139.8" font-family="Times,serif" font-size="14.00">sdComp &lt;= 0.02</text>
<text text-anchor="middle" x="74.5" y="-124.8" font-family="Times,serif" font-size="14.00">gini = 0.235</text>
<text text-anchor="middle" x="74.5" y="-109.8" font-family="Times,serif" font-size="14.00">samples = 1156</text>
<text text-anchor="middle" x="74.5" y="-94.8" font-family="Times,serif" font-size="14.00">value = [999, 157]</text>
<text text-anchor="middle" x="74.5" y="-79.8" font-family="Times,serif" font-size="14.00">class = False</text>
</g>
<!-- 2&#45;&gt;3 -->
<g id="edge3" class="edge">
<title>2&#45;&gt;3</title>
<path fill="none" stroke="black" d="M186.17,-190.91C171.98,-181.2 156.72,-170.76 142.19,-160.81"/>
<polygon fill="black" stroke="black" points="143.95,-157.78 133.72,-155.02 140,-163.56 143.95,-157.78"/>
</g>
<!-- 58 -->
<g id="node7" class="node">
<title>58</title>
<polygon fill="#f0b489" stroke="black" points="324.5,-155 166.5,-155 166.5,-72 324.5,-72 324.5,-155"/>
<text text-anchor="middle" x="245.5" y="-139.8" font-family="Times,serif" font-size="14.00">graphDepth &lt;= 3.5</text>
<text text-anchor="middle" x="245.5" y="-124.8" font-family="Times,serif" font-size="14.00">gini = 0.411</text>
<text text-anchor="middle" x="245.5" y="-109.8" font-family="Times,serif" font-size="14.00">samples = 180</text>
<text text-anchor="middle" x="245.5" y="-94.8" font-family="Times,serif" font-size="14.00">value = [128, 52]</text>
<text text-anchor="middle" x="245.5" y="-79.8" font-family="Times,serif" font-size="14.00">class = False</text>
</g>
<!-- 2&#45;&gt;58 -->
<g id="edge6" class="edge">
<title>2&#45;&gt;58</title>
<path fill="none" stroke="black" d="M245.5,-190.91C245.5,-182.65 245.5,-173.86 245.5,-165.3"/>
<polygon fill="black" stroke="black" points="249,-165.02 245.5,-155.02 242,-165.02 249,-165.02"/>
</g>
<!-- 4 -->
<g id="node5" class="node">
<title>4</title>
<polygon fill="#c0c0c0" stroke="black" points="65.5,-36 11.5,-36 11.5,0 65.5,0 65.5,-36"/>
<text text-anchor="middle" x="38.5" y="-14.3" font-family="Times,serif" font-size="14.00">(...)</text>
</g>
<!-- 3&#45;&gt;4 -->
<g id="edge4" class="edge">
<title>3&#45;&gt;4</title>
<path fill="none" stroke="black" d="M58.81,-71.76C55.46,-63.04 51.99,-54.04 48.89,-45.99"/>
<polygon fill="black" stroke="black" points="52.06,-44.48 45.2,-36.41 45.53,-46.99 52.06,-44.48"/>
</g>
<!-- 19 -->
<g id="node6" class="node">
<title>19</title>
<polygon fill="#c0c0c0" stroke="black" points="137.5,-36 83.5,-36 83.5,0 137.5,0 137.5,-36"/>
<text text-anchor="middle" x="110.5" y="-14.3" font-family="Times,serif" font-size="14.00">(...)</text>
</g>
<!-- 3&#45;&gt;19 -->
<g id="edge5" class="edge">
<title>3&#45;&gt;19</title>
<path fill="none" stroke="black" d="M90.19,-71.76C93.54,-63.04 97.01,-54.04 100.11,-45.99"/>
<polygon fill="black" stroke="black" points="103.47,-46.99 103.8,-36.41 96.94,-44.48 103.47,-46.99"/>
</g>
<!-- 59 -->
<g id="node8" class="node">
<title>59</title>
<polygon fill="#c0c0c0" stroke="black" points="240.5,-36 186.5,-36 186.5,0 240.5,0 240.5,-36"/>
<text text-anchor="middle" x="213.5" y="-14.3" font-family="Times,serif" font-size="14.00">(...)</text>
</g>
<!-- 58&#45;&gt;59 -->
<g id="edge7" class="edge">
<title>58&#45;&gt;59</title>
<path fill="none" stroke="black" d="M231.56,-71.76C228.57,-63.04 225.49,-54.04 222.74,-45.99"/>
<polygon fill="black" stroke="black" points="226.01,-44.73 219.46,-36.41 219.38,-47 226.01,-44.73"/>
</g>
<!-- 68 -->
<g id="node9" class="node">
<title>68</title>
<polygon fill="#c0c0c0" stroke="black" points="312.5,-36 258.5,-36 258.5,0 312.5,0 312.5,-36"/>
<text text-anchor="middle" x="285.5" y="-14.3" font-family="Times,serif" font-size="14.00">(...)</text>
</g>
<!-- 58&#45;&gt;68 -->
<g id="edge8" class="edge">
<title>58&#45;&gt;68</title>
<path fill="none" stroke="black" d="M262.93,-71.76C266.7,-62.94 270.6,-53.84 274.07,-45.72"/>
<polygon fill="black" stroke="black" points="277.34,-46.98 278.05,-36.41 270.9,-44.22 277.34,-46.98"/>
</g>
<!-- 78 -->
<g id="node11" class="node">
<title>78</title>
<polygon fill="#e5823b" stroke="black" points="509,-155 342,-155 342,-72 509,-72 509,-155"/>
<text text-anchor="middle" x="425.5" y="-139.8" font-family="Times,serif" font-size="14.00">graphDepth &lt;= 13.5</text>
<text text-anchor="middle" x="425.5" y="-124.8" font-family="Times,serif" font-size="14.00">gini = 0.021</text>
<text text-anchor="middle" x="425.5" y="-109.8" font-family="Times,serif" font-size="14.00">samples = 1526</text>
<text text-anchor="middle" x="425.5" y="-94.8" font-family="Times,serif" font-size="14.00">value = [1510, 16]</text>
<text text-anchor="middle" x="425.5" y="-79.8" font-family="Times,serif" font-size="14.00">class = False</text>
</g>
<!-- 77&#45;&gt;78 -->
<g id="edge10" class="edge">
<title>77&#45;&gt;78</title>
<path fill="none" stroke="black" d="M481.66,-190.91C475.13,-182.01 468.14,-172.51 461.39,-163.33"/>
<polygon fill="black" stroke="black" points="464.03,-161.01 455.28,-155.02 458.39,-165.15 464.03,-161.01"/>
</g>
<!-- 111 -->
<g id="node14" class="node">
<title>111</title>
<polygon fill="#e99457" stroke="black" points="680,-155 527,-155 527,-72 680,-72 680,-155"/>
<text text-anchor="middle" x="603.5" y="-139.8" font-family="Times,serif" font-size="14.00">graphSize &lt;= 40.0</text>
<text text-anchor="middle" x="603.5" y="-124.8" font-family="Times,serif" font-size="14.00">gini = 0.228</text>
<text text-anchor="middle" x="603.5" y="-109.8" font-family="Times,serif" font-size="14.00">samples = 122</text>
<text text-anchor="middle" x="603.5" y="-94.8" font-family="Times,serif" font-size="14.00">value = [106, 16]</text>
<text text-anchor="middle" x="603.5" y="-79.8" font-family="Times,serif" font-size="14.00">class = False</text>
</g>
<!-- 77&#45;&gt;111 -->
<g id="edge13" class="edge">
<title>77&#45;&gt;111</title>
<path fill="none" stroke="black" d="M543.42,-190.91C550.48,-181.92 558.04,-172.32 565.32,-163.05"/>
<polygon fill="black" stroke="black" points="568.21,-165.05 571.64,-155.02 562.7,-160.72 568.21,-165.05"/>
</g>
<!-- 79 -->
<g id="node12" class="node">
<title>79</title>
<polygon fill="#c0c0c0" stroke="black" points="414.5,-36 360.5,-36 360.5,0 414.5,0 414.5,-36"/>
<text text-anchor="middle" x="387.5" y="-14.3" font-family="Times,serif" font-size="14.00">(...)</text>
</g>
<!-- 78&#45;&gt;79 -->
<g id="edge11" class="edge">
<title>78&#45;&gt;79</title>
<path fill="none" stroke="black" d="M408.94,-71.76C405.36,-62.94 401.66,-53.84 398.36,-45.72"/>
<polygon fill="black" stroke="black" points="401.58,-44.35 394.57,-36.41 395.1,-46.99 401.58,-44.35"/>
</g>
<!-- 110 -->
<g id="node13" class="node">
<title>110</title>
<polygon fill="#c0c0c0" stroke="black" points="486.5,-36 432.5,-36 432.5,0 486.5,0 486.5,-36"/>
<text text-anchor="middle" x="459.5" y="-14.3" font-family="Times,serif" font-size="14.00">(...)</text>
</g>
<!-- 78&#45;&gt;110 -->
<g id="edge12" class="edge">
<title>78&#45;&gt;110</title>
<path fill="none" stroke="black" d="M440.31,-71.76C443.48,-63.04 446.76,-54.04 449.68,-45.99"/>
<polygon fill="black" stroke="black" points="453.04,-47 453.17,-36.41 446.46,-44.61 453.04,-47"/>
</g>
<!-- 112 -->
<g id="node15" class="node">
<title>112</title>
<polygon fill="#c0c0c0" stroke="black" points="573.5,-36 519.5,-36 519.5,0 573.5,0 573.5,-36"/>
<text text-anchor="middle" x="546.5" y="-14.3" font-family="Times,serif" font-size="14.00">(...)</text>
</g>
<!-- 111&#45;&gt;112 -->
<g id="edge14" class="edge">
<title>111&#45;&gt;112</title>
<path fill="none" stroke="black" d="M578.66,-71.76C573.17,-62.75 567.49,-53.44 562.47,-45.19"/>
<polygon fill="black" stroke="black" points="565.3,-43.12 557.11,-36.41 559.33,-46.77 565.3,-43.12"/>
</g>
<!-- 119 -->
<g id="node16" class="node">
<title>119</title>
<polygon fill="#c0c0c0" stroke="black" points="645.5,-36 591.5,-36 591.5,0 645.5,0 645.5,-36"/>
<text text-anchor="middle" x="618.5" y="-14.3" font-family="Times,serif" font-size="14.00">(...)</text>
</g>
<!-- 111&#45;&gt;119 -->
<g id="edge15" class="edge">
<title>111&#45;&gt;119</title>
<path fill="none" stroke="black" d="M610.04,-71.76C611.4,-63.24 612.81,-54.44 614.08,-46.53"/>
<polygon fill="black" stroke="black" points="617.58,-46.83 615.71,-36.41 610.67,-45.72 617.58,-46.83"/>
</g>
<!-- 131 -->
<g id="node18" class="node">
<title>131</title>
<polygon fill="#acd6f4" stroke="black" points="931,-274 778,-274 778,-191 931,-191 931,-274"/>
<text text-anchor="middle" x="854.5" y="-258.8" font-family="Times,serif" font-size="14.00">graphSize &lt;= 75.0</text>
<text text-anchor="middle" x="854.5" y="-243.8" font-family="Times,serif" font-size="14.00">gini = 0.465</text>
<text text-anchor="middle" x="854.5" y="-228.8" font-family="Times,serif" font-size="14.00">samples = 319</text>
<text text-anchor="middle" x="854.5" y="-213.8" font-family="Times,serif" font-size="14.00">value = [117, 202]</text>
<text text-anchor="middle" x="854.5" y="-198.8" font-family="Times,serif" font-size="14.00">class = True</text>
</g>
<!-- 130&#45;&gt;131 -->
<g id="edge17" class="edge">
<title>130&#45;&gt;131</title>
<path fill="none" stroke="black" d="M854.5,-309.91C854.5,-301.65 854.5,-292.86 854.5,-284.3"/>
<polygon fill="black" stroke="black" points="858,-284.02 854.5,-274.02 851,-284.02 858,-284.02"/>
</g>
<!-- 172 -->
<g id="node25" class="node">
<title>172</title>
<polygon fill="#f4c9ab" stroke="black" points="1193,-274 1026,-274 1026,-191 1193,-191 1193,-274"/>
<text text-anchor="middle" x="1109.5" y="-258.8" font-family="Times,serif" font-size="14.00">CCR &lt;= 5.5</text>
<text text-anchor="middle" x="1109.5" y="-243.8" font-family="Times,serif" font-size="14.00">gini = 0.463</text>
<text text-anchor="middle" x="1109.5" y="-228.8" font-family="Times,serif" font-size="14.00">samples = 4546</text>
<text text-anchor="middle" x="1109.5" y="-213.8" font-family="Times,serif" font-size="14.00">value = [2889, 1657]</text>
<text text-anchor="middle" x="1109.5" y="-198.8" font-family="Times,serif" font-size="14.00">class = False</text>
</g>
<!-- 130&#45;&gt;172 -->
<g id="edge24" class="edge">
<title>130&#45;&gt;172</title>
<path fill="none" stroke="black" d="M938.35,-312.03C963.3,-300.58 990.79,-287.97 1016.3,-276.26"/>
<polygon fill="black" stroke="black" points="1017.97,-279.35 1025.6,-272 1015.05,-272.98 1017.97,-279.35"/>
</g>
<!-- 132 -->
<g id="node19" class="node">
<title>132</title>
<polygon fill="#fef9f6" stroke="black" points="856.5,-155 698.5,-155 698.5,-72 856.5,-72 856.5,-155"/>
<text text-anchor="middle" x="777.5" y="-139.8" font-family="Times,serif" font-size="14.00">graphDepth &lt;= 6.5</text>
<text text-anchor="middle" x="777.5" y="-124.8" font-family="Times,serif" font-size="14.00">gini = 0.5</text>
<text text-anchor="middle" x="777.5" y="-109.8" font-family="Times,serif" font-size="14.00">samples = 205</text>
<text text-anchor="middle" x="777.5" y="-94.8" font-family="Times,serif" font-size="14.00">value = [105, 100]</text>
<text text-anchor="middle" x="777.5" y="-79.8" font-family="Times,serif" font-size="14.00">class = False</text>
</g>
<!-- 131&#45;&gt;132 -->
<g id="edge18" class="edge">
<title>131&#45;&gt;132</title>
<path fill="none" stroke="black" d="M827.79,-190.91C821.99,-182.1 815.8,-172.7 809.82,-163.61"/>
<polygon fill="black" stroke="black" points="812.59,-161.45 804.17,-155.02 806.74,-165.3 812.59,-161.45"/>
</g>
<!-- 165 -->
<g id="node22" class="node">
<title>165</title>
<polygon fill="#50a9e8" stroke="black" points="1014.5,-155 874.5,-155 874.5,-72 1014.5,-72 1014.5,-155"/>
<text text-anchor="middle" x="944.5" y="-139.8" font-family="Times,serif" font-size="14.00">nbproc &lt;= 4.5</text>
<text text-anchor="middle" x="944.5" y="-124.8" font-family="Times,serif" font-size="14.00">gini = 0.188</text>
<text text-anchor="middle" x="944.5" y="-109.8" font-family="Times,serif" font-size="14.00">samples = 114</text>
<text text-anchor="middle" x="944.5" y="-94.8" font-family="Times,serif" font-size="14.00">value = [12, 102]</text>
<text text-anchor="middle" x="944.5" y="-79.8" font-family="Times,serif" font-size="14.00">class = True</text>
</g>
<!-- 131&#45;&gt;165 -->
<g id="edge21" class="edge">
<title>131&#45;&gt;165</title>
<path fill="none" stroke="black" d="M885.73,-190.91C892.64,-181.92 900.03,-172.32 907.15,-163.05"/>
<polygon fill="black" stroke="black" points="910.01,-165.08 913.33,-155.02 904.46,-160.81 910.01,-165.08"/>
</g>
<!-- 133 -->
<g id="node20" class="node">
<title>133</title>
<polygon fill="#c0c0c0" stroke="black" points="743.5,-36 689.5,-36 689.5,0 743.5,0 743.5,-36"/>
<text text-anchor="middle" x="716.5" y="-14.3" font-family="Times,serif" font-size="14.00">(...)</text>
</g>
<!-- 132&#45;&gt;133 -->
<g id="edge19" class="edge">
<title>132&#45;&gt;133</title>
<path fill="none" stroke="black" d="M750.92,-71.76C744.98,-62.65 738.84,-53.24 733.41,-44.92"/>
<polygon fill="black" stroke="black" points="736.25,-42.87 727.86,-36.41 730.39,-46.69 736.25,-42.87"/>
</g>
<!-- 154 -->
<g id="node21" class="node">
<title>154</title>
<polygon fill="#c0c0c0" stroke="black" points="815.5,-36 761.5,-36 761.5,0 815.5,0 815.5,-36"/>
<text text-anchor="middle" x="788.5" y="-14.3" font-family="Times,serif" font-size="14.00">(...)</text>
</g>
<!-- 132&#45;&gt;154 -->
<g id="edge20" class="edge">
<title>132&#45;&gt;154</title>
<path fill="none" stroke="black" d="M782.29,-71.76C783.3,-63.24 784.33,-54.44 785.26,-46.53"/>
<polygon fill="black" stroke="black" points="788.76,-46.75 786.45,-36.41 781.81,-45.93 788.76,-46.75"/>
</g>
<!-- 166 -->
<g id="node23" class="node">
<title>166</title>
<polygon fill="#c0c0c0" stroke="black" points="909.5,-36 855.5,-36 855.5,0 909.5,0 909.5,-36"/>
<text text-anchor="middle" x="882.5" y="-14.3" font-family="Times,serif" font-size="14.00">(...)</text>
</g>
<!-- 165&#45;&gt;166 -->
<g id="edge22" class="edge">
<title>165&#45;&gt;166</title>
<path fill="none" stroke="black" d="M917.49,-71.76C911.45,-62.65 905.2,-53.24 899.69,-44.92"/>
<polygon fill="black" stroke="black" points="902.48,-42.81 894.04,-36.41 896.65,-46.67 902.48,-42.81"/>
</g>
<!-- 169 -->
<g id="node24" class="node">
<title>169</title>
<polygon fill="#c0c0c0" stroke="black" points="981.5,-36 927.5,-36 927.5,0 981.5,0 981.5,-36"/>
<text text-anchor="middle" x="954.5" y="-14.3" font-family="Times,serif" font-size="14.00">(...)</text>
</g>
<!-- 165&#45;&gt;169 -->
<g id="edge23" class="edge">
<title>165&#45;&gt;169</title>
<path fill="none" stroke="black" d="M948.86,-71.76C949.77,-63.24 950.71,-54.44 951.56,-46.53"/>
<polygon fill="black" stroke="black" points="955.06,-46.72 952.64,-36.41 948.09,-45.98 955.06,-46.72"/>
</g>
<!-- 173 -->
<g id="node26" class="node">
<title>173</title>
<polygon fill="#ea9b62" stroke="black" points="1186,-155 1033,-155 1033,-72 1186,-72 1186,-155"/>
<text text-anchor="middle" x="1109.5" y="-139.8" font-family="Times,serif" font-size="14.00">graphSize &lt;= 22.5</text>
<text text-anchor="middle" x="1109.5" y="-124.8" font-family="Times,serif" font-size="14.00">gini = 0.282</text>
<text text-anchor="middle" x="1109.5" y="-109.8" font-family="Times,serif" font-size="14.00">samples = 564</text>
<text text-anchor="middle" x="1109.5" y="-94.8" font-family="Times,serif" font-size="14.00">value = [468, 96]</text>
<text text-anchor="middle" x="1109.5" y="-79.8" font-family="Times,serif" font-size="14.00">class = False</text>
</g>
<!-- 172&#45;&gt;173 -->
<g id="edge25" class="edge">
<title>172&#45;&gt;173</title>
<path fill="none" stroke="black" d="M1109.5,-190.91C1109.5,-182.65 1109.5,-173.86 1109.5,-165.3"/>
<polygon fill="black" stroke="black" points="1113,-165.02 1109.5,-155.02 1106,-165.02 1113,-165.02"/>
</g>
<!-- 234 -->
<g id="node29" class="node">
<title>234</title>
<polygon fill="#f6d2b9" stroke="black" points="1371,-155 1204,-155 1204,-72 1371,-72 1371,-155"/>
<text text-anchor="middle" x="1287.5" y="-139.8" font-family="Times,serif" font-size="14.00">sdComp &lt;= 6.5</text>
<text text-anchor="middle" x="1287.5" y="-124.8" font-family="Times,serif" font-size="14.00">gini = 0.477</text>
<text text-anchor="middle" x="1287.5" y="-109.8" font-family="Times,serif" font-size="14.00">samples = 3982</text>
<text text-anchor="middle" x="1287.5" y="-94.8" font-family="Times,serif" font-size="14.00">value = [2421, 1561]</text>
<text text-anchor="middle" x="1287.5" y="-79.8" font-family="Times,serif" font-size="14.00">class = False</text>
</g>
<!-- 172&#45;&gt;234 -->
<g id="edge28" class="edge">
<title>172&#45;&gt;234</title>
<path fill="none" stroke="black" d="M1171.26,-190.91C1186.17,-181.11 1202.21,-170.56 1217.47,-160.53"/>
<polygon fill="black" stroke="black" points="1219.42,-163.44 1225.85,-155.02 1215.57,-157.59 1219.42,-163.44"/>
</g>
<!-- 174 -->
<g id="node27" class="node">
<title>174</title>
<polygon fill="#c0c0c0" stroke="black" points="1099.5,-36 1045.5,-36 1045.5,0 1099.5,0 1099.5,-36"/>
<text text-anchor="middle" x="1072.5" y="-14.3" font-family="Times,serif" font-size="14.00">(...)</text>
</g>
<!-- 173&#45;&gt;174 -->
<g id="edge26" class="edge">
<title>173&#45;&gt;174</title>
<path fill="none" stroke="black" d="M1093.38,-71.76C1089.89,-62.94 1086.29,-53.84 1083.08,-45.72"/>
<polygon fill="black" stroke="black" points="1086.32,-44.42 1079.39,-36.41 1079.81,-46.99 1086.32,-44.42"/>
</g>
<!-- 201 -->
<g id="node28" class="node">
<title>201</title>
<polygon fill="#c0c0c0" stroke="black" points="1171.5,-36 1117.5,-36 1117.5,0 1171.5,0 1171.5,-36"/>
<text text-anchor="middle" x="1144.5" y="-14.3" font-family="Times,serif" font-size="14.00">(...)</text>
</g>
<!-- 173&#45;&gt;201 -->
<g id="edge27" class="edge">
<title>173&#45;&gt;201</title>
<path fill="none" stroke="black" d="M1124.75,-71.76C1128.01,-63.04 1131.38,-54.04 1134.4,-45.99"/>
<polygon fill="black" stroke="black" points="1137.76,-47 1137.98,-36.41 1131.2,-44.54 1137.76,-47"/>
</g>
<!-- 235 -->
<g id="node30" class="node">
<title>235</title>
<polygon fill="#c0c0c0" stroke="black" points="1278.5,-36 1224.5,-36 1224.5,0 1278.5,0 1278.5,-36"/>
<text text-anchor="middle" x="1251.5" y="-14.3" font-family="Times,serif" font-size="14.00">(...)</text>
</g>
<!-- 234&#45;&gt;235 -->
<g id="edge29" class="edge">
<title>234&#45;&gt;235</title>
<path fill="none" stroke="black" d="M1271.81,-71.76C1268.46,-63.04 1264.99,-54.04 1261.89,-45.99"/>
<polygon fill="black" stroke="black" points="1265.06,-44.48 1258.2,-36.41 1258.53,-46.99 1265.06,-44.48"/>
</g>
<!-- 424 -->
<g id="node31" class="node">
<title>424</title>
<polygon fill="#c0c0c0" stroke="black" points="1350.5,-36 1296.5,-36 1296.5,0 1350.5,0 1350.5,-36"/>
<text text-anchor="middle" x="1323.5" y="-14.3" font-family="Times,serif" font-size="14.00">(...)</text>
</g>
<!-- 234&#45;&gt;424 -->
<g id="edge30" class="edge">
<title>234&#45;&gt;424</title>
<path fill="none" stroke="black" d="M1303.19,-71.76C1306.54,-63.04 1310.01,-54.04 1313.11,-45.99"/>
<polygon fill="black" stroke="black" points="1316.47,-46.99 1316.8,-36.41 1309.94,-44.48 1316.47,-46.99"/>
</g>
</g>
</svg>
