<?xml version="1.0" encoding="UTF-8" standalone="no"?>
<!DOCTYPE svg PUBLIC "-//W3C//DTD SVG 1.1//EN"
 "http://www.w3.org/Graphics/SVG/1.1/DTD/svg11.dtd">
<!-- Generated by graphviz version 2.43.0 (0)
 -->
<!-- Title: Tree Pages: 1 -->
<svg width="1317pt" height="520pt"
 viewBox="0.00 0.00 1316.50 520.00" xmlns="http://www.w3.org/2000/svg" xmlns:xlink="http://www.w3.org/1999/xlink">
<g id="graph0" class="graph" transform="scale(1 1) rotate(0) translate(4 516)">
<title>Tree</title>
<polygon fill="white" stroke="transparent" points="-4,4 -4,-516 1312.5,-516 1312.5,4 -4,4"/>
<!-- 0 -->
<g id="node1" class="node">
<title>0</title>
<polygon fill="#8dc7f0" stroke="black" points="727,-512 560,-512 560,-429 727,-429 727,-512"/>
<text text-anchor="middle" x="643.5" y="-496.8" font-family="Times,serif" font-size="14.00">sdComp &lt;= 0.65</text>
<text text-anchor="middle" x="643.5" y="-481.8" font-family="Times,serif" font-size="14.00">gini = 0.418</text>
<text text-anchor="middle" x="643.5" y="-466.8" font-family="Times,serif" font-size="14.00">samples = 7849</text>
<text text-anchor="middle" x="643.5" y="-451.8" font-family="Times,serif" font-size="14.00">value = [2339, 5510]</text>
<text text-anchor="middle" x="643.5" y="-436.8" font-family="Times,serif" font-size="14.00">class = True</text>
</g>
<!-- 1 -->
<g id="node2" class="node">
<title>1</title>
<polygon fill="#bfdff7" stroke="black" points="566,-393 399,-393 399,-310 566,-310 566,-393"/>
<text text-anchor="middle" x="482.5" y="-377.8" font-family="Times,serif" font-size="14.00">nbproc &lt;= 4.5</text>
<text text-anchor="middle" x="482.5" y="-362.8" font-family="Times,serif" font-size="14.00">gini = 0.482</text>
<text text-anchor="middle" x="482.5" y="-347.8" font-family="Times,serif" font-size="14.00">samples = 3305</text>
<text text-anchor="middle" x="482.5" y="-332.8" font-family="Times,serif" font-size="14.00">value = [1336, 1969]</text>
<text text-anchor="middle" x="482.5" y="-317.8" font-family="Times,serif" font-size="14.00">class = True</text>
</g>
<!-- 0&#45;&gt;1 -->
<g id="edge1" class="edge">
<title>0&#45;&gt;1</title>
<path fill="none" stroke="black" d="M587.64,-428.91C574.4,-419.29 560.18,-408.95 546.61,-399.09"/>
<polygon fill="black" stroke="black" points="548.41,-396.07 538.26,-393.02 544.29,-401.73 548.41,-396.07"/>
<text text-anchor="middle" x="542.17" y="-414.01" font-family="Times,serif" font-size="14.00">True</text>
</g>
<!-- 318 -->
<g id="node17" class="node">
<title>318</title>
<polygon fill="#71b9ec" stroke="black" points="895,-393 728,-393 728,-310 895,-310 895,-393"/>
<text text-anchor="middle" x="811.5" y="-377.8" font-family="Times,serif" font-size="14.00">graphSize &lt;= 22.5</text>
<text text-anchor="middle" x="811.5" y="-362.8" font-family="Times,serif" font-size="14.00">gini = 0.344</text>
<text text-anchor="middle" x="811.5" y="-347.8" font-family="Times,serif" font-size="14.00">samples = 4544</text>
<text text-anchor="middle" x="811.5" y="-332.8" font-family="Times,serif" font-size="14.00">value = [1003, 3541]</text>
<text text-anchor="middle" x="811.5" y="-317.8" font-family="Times,serif" font-size="14.00">class = True</text>
</g>
<!-- 0&#45;&gt;318 -->
<g id="edge16" class="edge">
<title>0&#45;&gt;318</title>
<path fill="none" stroke="black" d="M701.79,-428.91C715.73,-419.2 730.72,-408.76 745,-398.81"/>
<polygon fill="black" stroke="black" points="747.11,-401.61 753.32,-393.02 743.11,-395.86 747.11,-401.61"/>
<text text-anchor="middle" x="748.91" y="-413.93" font-family="Times,serif" font-size="14.00">False</text>
</g>
<!-- 2 -->
<g id="node3" class="node">
<title>2</title>
<polygon fill="#9bcef2" stroke="black" points="316.5,-274 158.5,-274 158.5,-191 316.5,-191 316.5,-274"/>
<text text-anchor="middle" x="237.5" y="-258.8" font-family="Times,serif" font-size="14.00">graphDepth &lt;= 3.5</text>
<text text-anchor="middle" x="237.5" y="-243.8" font-family="Times,serif" font-size="14.00">gini = 0.443</text>
<text text-anchor="middle" x="237.5" y="-228.8" font-family="Times,serif" font-size="14.00">samples = 1202</text>
<text text-anchor="middle" x="237.5" y="-213.8" font-family="Times,serif" font-size="14.00">value = [398, 804]</text>
<text text-anchor="middle" x="237.5" y="-198.8" font-family="Times,serif" font-size="14.00">class = True</text>
</g>
<!-- 1&#45;&gt;2 -->
<g id="edge2" class="edge">
<title>1&#45;&gt;2</title>
<path fill="none" stroke="black" d="M398.87,-310.56C375.27,-299.29 349.52,-287 325.66,-275.6"/>
<polygon fill="black" stroke="black" points="327.15,-272.44 316.62,-271.28 324.14,-278.75 327.15,-272.44"/>
</g>
<!-- 123 -->
<g id="node10" class="node">
<title>123</title>
<polygon fill="#d8ecfa" stroke="black" points="561.5,-274 403.5,-274 403.5,-191 561.5,-191 561.5,-274"/>
<text text-anchor="middle" x="482.5" y="-258.8" font-family="Times,serif" font-size="14.00">graphSize &lt;= 75.0</text>
<text text-anchor="middle" x="482.5" y="-243.8" font-family="Times,serif" font-size="14.00">gini = 0.494</text>
<text text-anchor="middle" x="482.5" y="-228.8" font-family="Times,serif" font-size="14.00">samples = 2103</text>
<text text-anchor="middle" x="482.5" y="-213.8" font-family="Times,serif" font-size="14.00">value = [938, 1165]</text>
<text text-anchor="middle" x="482.5" y="-198.8" font-family="Times,serif" font-size="14.00">class = True</text>
</g>
<!-- 1&#45;&gt;123 -->
<g id="edge9" class="edge">
<title>1&#45;&gt;123</title>
<path fill="none" stroke="black" d="M482.5,-309.91C482.5,-301.65 482.5,-292.86 482.5,-284.3"/>
<polygon fill="black" stroke="black" points="486,-284.02 482.5,-274.02 479,-284.02 486,-284.02"/>
</g>
<!-- 3 -->
<g id="node4" class="node">
<title>3</title>
<polygon fill="#42a2e6" stroke="black" points="143,-155 0,-155 0,-72 143,-72 143,-155"/>
<text text-anchor="middle" x="71.5" y="-139.8" font-family="Times,serif" font-size="14.00">sdComm &lt;= 0.02</text>
<text text-anchor="middle" x="71.5" y="-124.8" font-family="Times,serif" font-size="14.00">gini = 0.087</text>
<text text-anchor="middle" x="71.5" y="-109.8" font-family="Times,serif" font-size="14.00">samples = 132</text>
<text text-anchor="middle" x="71.5" y="-94.8" font-family="Times,serif" font-size="14.00">value = [6, 126]</text>
<text text-anchor="middle" x="71.5" y="-79.8" font-family="Times,serif" font-size="14.00">class = True</text>
</g>
<!-- 2&#45;&gt;3 -->
<g id="edge3" class="edge">
<title>2&#45;&gt;3</title>
<path fill="none" stroke="black" d="M179.91,-190.91C166.13,-181.2 151.32,-170.76 137.21,-160.81"/>
<polygon fill="black" stroke="black" points="139.18,-157.92 128.99,-155.02 135.15,-163.64 139.18,-157.92"/>
</g>
<!-- 8 -->
<g id="node7" class="node">
<title>8</title>
<polygon fill="#abd6f4" stroke="black" points="314,-155 161,-155 161,-72 314,-72 314,-155"/>
<text text-anchor="middle" x="237.5" y="-139.8" font-family="Times,serif" font-size="14.00">graphSize &lt;= 40.0</text>
<text text-anchor="middle" x="237.5" y="-124.8" font-family="Times,serif" font-size="14.00">gini = 0.464</text>
<text text-anchor="middle" x="237.5" y="-109.8" font-family="Times,serif" font-size="14.00">samples = 1070</text>
<text text-anchor="middle" x="237.5" y="-94.8" font-family="Times,serif" font-size="14.00">value = [392, 678]</text>
<text text-anchor="middle" x="237.5" y="-79.8" font-family="Times,serif" font-size="14.00">class = True</text>
</g>
<!-- 2&#45;&gt;8 -->
<g id="edge6" class="edge">
<title>2&#45;&gt;8</title>
<path fill="none" stroke="black" d="M237.5,-190.91C237.5,-182.65 237.5,-173.86 237.5,-165.3"/>
<polygon fill="black" stroke="black" points="241,-165.02 237.5,-155.02 234,-165.02 241,-165.02"/>
</g>
<!-- 4 -->
<g id="node5" class="node">
<title>4</title>
<polygon fill="#c0c0c0" stroke="black" points="62.5,-36 8.5,-36 8.5,0 62.5,0 62.5,-36"/>
<text text-anchor="middle" x="35.5" y="-14.3" font-family="Times,serif" font-size="14.00">(...)</text>
</g>
<!-- 3&#45;&gt;4 -->
<g id="edge4" class="edge">
<title>3&#45;&gt;4</title>
<path fill="none" stroke="black" d="M55.81,-71.76C52.46,-63.04 48.99,-54.04 45.89,-45.99"/>
<polygon fill="black" stroke="black" points="49.06,-44.48 42.2,-36.41 42.53,-46.99 49.06,-44.48"/>
</g>
<!-- 7 -->
<g id="node6" class="node">
<title>7</title>
<polygon fill="#c0c0c0" stroke="black" points="134.5,-36 80.5,-36 80.5,0 134.5,0 134.5,-36"/>
<text text-anchor="middle" x="107.5" y="-14.3" font-family="Times,serif" font-size="14.00">(...)</text>
</g>
<!-- 3&#45;&gt;7 -->
<g id="edge5" class="edge">
<title>3&#45;&gt;7</title>
<path fill="none" stroke="black" d="M87.19,-71.76C90.54,-63.04 94.01,-54.04 97.11,-45.99"/>
<polygon fill="black" stroke="black" points="100.47,-46.99 100.8,-36.41 93.94,-44.48 100.47,-46.99"/>
</g>
<!-- 9 -->
<g id="node8" class="node">
<title>9</title>
<polygon fill="#c0c0c0" stroke="black" points="222.5,-36 168.5,-36 168.5,0 222.5,0 222.5,-36"/>
<text text-anchor="middle" x="195.5" y="-14.3" font-family="Times,serif" font-size="14.00">(...)</text>
</g>
<!-- 8&#45;&gt;9 -->
<g id="edge7" class="edge">
<title>8&#45;&gt;9</title>
<path fill="none" stroke="black" d="M219.2,-71.76C215.24,-62.94 211.15,-53.84 207.5,-45.72"/>
<polygon fill="black" stroke="black" points="210.61,-44.09 203.32,-36.41 204.22,-46.96 210.61,-44.09"/>
</g>
<!-- 74 -->
<g id="node9" class="node">
<title>74</title>
<polygon fill="#c0c0c0" stroke="black" points="294.5,-36 240.5,-36 240.5,0 294.5,0 294.5,-36"/>
<text text-anchor="middle" x="267.5" y="-14.3" font-family="Times,serif" font-size="14.00">(...)</text>
</g>
<!-- 8&#45;&gt;74 -->
<g id="edge8" class="edge">
<title>8&#45;&gt;74</title>
<path fill="none" stroke="black" d="M250.57,-71.76C253.37,-63.04 256.26,-54.04 258.84,-45.99"/>
<polygon fill="black" stroke="black" points="262.19,-47 261.92,-36.41 255.53,-44.86 262.19,-47"/>
</g>
<!-- 124 -->
<g id="node11" class="node">
<title>124</title>
<polygon fill="#e3f1fb" stroke="black" points="481,-155 332,-155 332,-72 481,-72 481,-155"/>
<text text-anchor="middle" x="406.5" y="-139.8" font-family="Times,serif" font-size="14.00">CCR &lt;= 0.55</text>
<text text-anchor="middle" x="406.5" y="-124.8" font-family="Times,serif" font-size="14.00">gini = 0.497</text>
<text text-anchor="middle" x="406.5" y="-109.8" font-family="Times,serif" font-size="14.00">samples = 1787</text>
<text text-anchor="middle" x="406.5" y="-94.8" font-family="Times,serif" font-size="14.00">value = [826, 961]</text>
<text text-anchor="middle" x="406.5" y="-79.8" font-family="Times,serif" font-size="14.00">class = True</text>
</g>
<!-- 123&#45;&gt;124 -->
<g id="edge10" class="edge">
<title>123&#45;&gt;124</title>
<path fill="none" stroke="black" d="M456.13,-190.91C450.41,-182.1 444.31,-172.7 438.4,-163.61"/>
<polygon fill="black" stroke="black" points="441.2,-161.5 432.82,-155.02 435.33,-165.31 441.2,-161.5"/>
</g>
<!-- 271 -->
<g id="node14" class="node">
<title>271</title>
<polygon fill="#a6d3f3" stroke="black" points="648,-155 499,-155 499,-72 648,-72 648,-155"/>
<text text-anchor="middle" x="573.5" y="-139.8" font-family="Times,serif" font-size="14.00">sdComp &lt;= 0.065</text>
<text text-anchor="middle" x="573.5" y="-124.8" font-family="Times,serif" font-size="14.00">gini = 0.458</text>
<text text-anchor="middle" x="573.5" y="-109.8" font-family="Times,serif" font-size="14.00">samples = 316</text>
<text text-anchor="middle" x="573.5" y="-94.8" font-family="Times,serif" font-size="14.00">value = [112, 204]</text>
<text text-anchor="middle" x="573.5" y="-79.8" font-family="Times,serif" font-size="14.00">class = True</text>
</g>
<!-- 123&#45;&gt;271 -->
<g id="edge13" class="edge">
<title>123&#45;&gt;271</title>
<path fill="none" stroke="black" d="M514.07,-190.91C521.06,-181.92 528.53,-172.32 535.74,-163.05"/>
<polygon fill="black" stroke="black" points="538.61,-165.06 541.98,-155.02 533.08,-160.77 538.61,-165.06"/>
</g>
<!-- 125 -->
<g id="node12" class="node">
<title>125</title>
<polygon fill="#c0c0c0" stroke="black" points="392.5,-36 338.5,-36 338.5,0 392.5,0 392.5,-36"/>
<text text-anchor="middle" x="365.5" y="-14.3" font-family="Times,serif" font-size="14.00">(...)</text>
</g>
<!-- 124&#45;&gt;125 -->
<g id="edge11" class="edge">
<title>124&#45;&gt;125</title>
<path fill="none" stroke="black" d="M388.64,-71.76C384.77,-62.94 380.78,-53.84 377.22,-45.72"/>
<polygon fill="black" stroke="black" points="380.35,-44.16 373.13,-36.41 373.94,-46.97 380.35,-44.16"/>
</g>
<!-- 220 -->
<g id="node13" class="node">
<title>220</title>
<polygon fill="#c0c0c0" stroke="black" points="464.5,-36 410.5,-36 410.5,0 464.5,0 464.5,-36"/>
<text text-anchor="middle" x="437.5" y="-14.3" font-family="Times,serif" font-size="14.00">(...)</text>
</g>
<!-- 124&#45;&gt;220 -->
<g id="edge12" class="edge">
<title>124&#45;&gt;220</title>
<path fill="none" stroke="black" d="M420.01,-71.76C422.9,-63.04 425.88,-54.04 428.55,-45.99"/>
<polygon fill="black" stroke="black" points="431.9,-47 431.73,-36.41 425.26,-44.8 431.9,-47"/>
</g>
<!-- 272 -->
<g id="node15" class="node">
<title>272</title>
<polygon fill="#c0c0c0" stroke="black" points="549.5,-36 495.5,-36 495.5,0 549.5,0 549.5,-36"/>
<text text-anchor="middle" x="522.5" y="-14.3" font-family="Times,serif" font-size="14.00">(...)</text>
</g>
<!-- 271&#45;&gt;272 -->
<g id="edge14" class="edge">
<title>271&#45;&gt;272</title>
<path fill="none" stroke="black" d="M551.28,-71.76C546.36,-62.75 541.28,-53.44 536.79,-45.19"/>
<polygon fill="black" stroke="black" points="539.85,-43.51 531.99,-36.41 533.71,-46.86 539.85,-43.51"/>
</g>
<!-- 295 -->
<g id="node16" class="node">
<title>295</title>
<polygon fill="#c0c0c0" stroke="black" points="621.5,-36 567.5,-36 567.5,0 621.5,0 621.5,-36"/>
<text text-anchor="middle" x="594.5" y="-14.3" font-family="Times,serif" font-size="14.00">(...)</text>
</g>
<!-- 271&#45;&gt;295 -->
<g id="edge15" class="edge">
<title>271&#45;&gt;295</title>
<path fill="none" stroke="black" d="M582.65,-71.76C584.59,-63.14 586.59,-54.24 588.38,-46.26"/>
<polygon fill="black" stroke="black" points="591.81,-46.93 590.59,-36.41 584.98,-45.4 591.81,-46.93"/>
</g>
<!-- 319 -->
<g id="node18" class="node">
<title>319</title>
<polygon fill="#89c5f0" stroke="black" points="890.5,-274 732.5,-274 732.5,-191 890.5,-191 890.5,-274"/>
<text text-anchor="middle" x="811.5" y="-258.8" font-family="Times,serif" font-size="14.00">graphDepth &lt;= 3.5</text>
<text text-anchor="middle" x="811.5" y="-243.8" font-family="Times,serif" font-size="14.00">gini = 0.41</text>
<text text-anchor="middle" x="811.5" y="-228.8" font-family="Times,serif" font-size="14.00">samples = 1272</text>
<text text-anchor="middle" x="811.5" y="-213.8" font-family="Times,serif" font-size="14.00">value = [366, 906]</text>
<text text-anchor="middle" x="811.5" y="-198.8" font-family="Times,serif" font-size="14.00">class = True</text>
</g>
<!-- 318&#45;&gt;319 -->
<g id="edge17" class="edge">
<title>318&#45;&gt;319</title>
<path fill="none" stroke="black" d="M811.5,-309.91C811.5,-301.65 811.5,-292.86 811.5,-284.3"/>
<polygon fill="black" stroke="black" points="815,-284.02 811.5,-274.02 808,-284.02 815,-284.02"/>
</g>
<!-- 398 -->
<g id="node25" class="node">
<title>398</title>
<polygon fill="#69b5eb" stroke="black" points="1141.5,-274 983.5,-274 983.5,-191 1141.5,-191 1141.5,-274"/>
<text text-anchor="middle" x="1062.5" y="-258.8" font-family="Times,serif" font-size="14.00">graphDepth &lt;= 9.0</text>
<text text-anchor="middle" x="1062.5" y="-243.8" font-family="Times,serif" font-size="14.00">gini = 0.314</text>
<text text-anchor="middle" x="1062.5" y="-228.8" font-family="Times,serif" font-size="14.00">samples = 3272</text>
<text text-anchor="middle" x="1062.5" y="-213.8" font-family="Times,serif" font-size="14.00">value = [637, 2635]</text>
<text text-anchor="middle" x="1062.5" y="-198.8" font-family="Times,serif" font-size="14.00">class = True</text>
</g>
<!-- 318&#45;&gt;398 -->
<g id="edge24" class="edge">
<title>318&#45;&gt;398</title>
<path fill="none" stroke="black" d="M895.08,-311.54C920.35,-299.76 948.19,-286.78 973.79,-274.85"/>
<polygon fill="black" stroke="black" points="975.53,-277.9 983.11,-270.51 972.57,-271.56 975.53,-277.9"/>
</g>
<!-- 320 -->
<g id="node19" class="node">
<title>320</title>
<polygon fill="#6cb6ec" stroke="black" points="806.5,-155 666.5,-155 666.5,-72 806.5,-72 806.5,-155"/>
<text text-anchor="middle" x="736.5" y="-139.8" font-family="Times,serif" font-size="14.00">CCR &lt;= 5.5</text>
<text text-anchor="middle" x="736.5" y="-124.8" font-family="Times,serif" font-size="14.00">gini = 0.324</text>
<text text-anchor="middle" x="736.5" y="-109.8" font-family="Times,serif" font-size="14.00">samples = 354</text>
<text text-anchor="middle" x="736.5" y="-94.8" font-family="Times,serif" font-size="14.00">value = [72, 282]</text>
<text text-anchor="middle" x="736.5" y="-79.8" font-family="Times,serif" font-size="14.00">class = True</text>
</g>
<!-- 319&#45;&gt;320 -->
<g id="edge18" class="edge">
<title>319&#45;&gt;320</title>
<path fill="none" stroke="black" d="M785.48,-190.91C779.84,-182.1 773.81,-172.7 767.98,-163.61"/>
<polygon fill="black" stroke="black" points="770.82,-161.55 762.47,-155.02 764.93,-165.33 770.82,-161.55"/>
</g>
<!-- 351 -->
<g id="node22" class="node">
<title>351</title>
<polygon fill="#96cbf1" stroke="black" points="974,-155 825,-155 825,-72 974,-72 974,-155"/>
<text text-anchor="middle" x="899.5" y="-139.8" font-family="Times,serif" font-size="14.00">sdComm &lt;= 2.0</text>
<text text-anchor="middle" x="899.5" y="-124.8" font-family="Times,serif" font-size="14.00">gini = 0.435</text>
<text text-anchor="middle" x="899.5" y="-109.8" font-family="Times,serif" font-size="14.00">samples = 918</text>
<text text-anchor="middle" x="899.5" y="-94.8" font-family="Times,serif" font-size="14.00">value = [294, 624]</text>
<text text-anchor="middle" x="899.5" y="-79.8" font-family="Times,serif" font-size="14.00">class = True</text>
</g>
<!-- 319&#45;&gt;351 -->
<g id="edge21" class="edge">
<title>319&#45;&gt;351</title>
<path fill="none" stroke="black" d="M842.03,-190.91C848.79,-181.92 856.02,-172.32 862.98,-163.05"/>
<polygon fill="black" stroke="black" points="865.81,-165.12 869.02,-155.02 860.21,-160.91 865.81,-165.12"/>
</g>
<!-- 321 -->
<g id="node20" class="node">
<title>321</title>
<polygon fill="#c0c0c0" stroke="black" points="700.5,-36 646.5,-36 646.5,0 700.5,0 700.5,-36"/>
<text text-anchor="middle" x="673.5" y="-14.3" font-family="Times,serif" font-size="14.00">(...)</text>
</g>
<!-- 320&#45;&gt;321 -->
<g id="edge19" class="edge">
<title>320&#45;&gt;321</title>
<path fill="none" stroke="black" d="M709.05,-71.76C702.91,-62.65 696.57,-53.24 690.97,-44.92"/>
<polygon fill="black" stroke="black" points="693.72,-42.74 685.23,-36.41 687.91,-46.65 693.72,-42.74"/>
</g>
<!-- 332 -->
<g id="node21" class="node">
<title>332</title>
<polygon fill="#c0c0c0" stroke="black" points="772.5,-36 718.5,-36 718.5,0 772.5,0 772.5,-36"/>
<text text-anchor="middle" x="745.5" y="-14.3" font-family="Times,serif" font-size="14.00">(...)</text>
</g>
<!-- 320&#45;&gt;332 -->
<g id="edge20" class="edge">
<title>320&#45;&gt;332</title>
<path fill="none" stroke="black" d="M740.42,-71.76C741.24,-63.24 742.09,-54.44 742.85,-46.53"/>
<polygon fill="black" stroke="black" points="746.35,-46.69 743.82,-36.41 739.38,-46.02 746.35,-46.69"/>
</g>
<!-- 352 -->
<g id="node23" class="node">
<title>352</title>
<polygon fill="#c0c0c0" stroke="black" points="863.5,-36 809.5,-36 809.5,0 863.5,0 863.5,-36"/>
<text text-anchor="middle" x="836.5" y="-14.3" font-family="Times,serif" font-size="14.00">(...)</text>
</g>
<!-- 351&#45;&gt;352 -->
<g id="edge22" class="edge">
<title>351&#45;&gt;352</title>
<path fill="none" stroke="black" d="M872.05,-71.76C865.91,-62.65 859.57,-53.24 853.97,-44.92"/>
<polygon fill="black" stroke="black" points="856.72,-42.74 848.23,-36.41 850.91,-46.65 856.72,-42.74"/>
</g>
<!-- 375 -->
<g id="node24" class="node">
<title>375</title>
<polygon fill="#c0c0c0" stroke="black" points="935.5,-36 881.5,-36 881.5,0 935.5,0 935.5,-36"/>
<text text-anchor="middle" x="908.5" y="-14.3" font-family="Times,serif" font-size="14.00">(...)</text>
</g>
<!-- 351&#45;&gt;375 -->
<g id="edge23" class="edge">
<title>351&#45;&gt;375</title>
<path fill="none" stroke="black" d="M903.42,-71.76C904.24,-63.24 905.09,-54.44 905.85,-46.53"/>
<polygon fill="black" stroke="black" points="909.35,-46.69 906.82,-36.41 902.38,-46.02 909.35,-46.69"/>
</g>
<!-- 399 -->
<g id="node26" class="node">
<title>399</title>
<polygon fill="#42a1e6" stroke="black" points="1132.5,-155 992.5,-155 992.5,-72 1132.5,-72 1132.5,-155"/>
<text text-anchor="middle" x="1062.5" y="-139.8" font-family="Times,serif" font-size="14.00">sdComm &lt;= 0.2</text>
<text text-anchor="middle" x="1062.5" y="-124.8" font-family="Times,serif" font-size="14.00">gini = 0.083</text>
<text text-anchor="middle" x="1062.5" y="-109.8" font-family="Times,serif" font-size="14.00">samples = 666</text>
<text text-anchor="middle" x="1062.5" y="-94.8" font-family="Times,serif" font-size="14.00">value = [29, 637]</text>
<text text-anchor="middle" x="1062.5" y="-79.8" font-family="Times,serif" font-size="14.00">class = True</text>
</g>
<!-- 398&#45;&gt;399 -->
<g id="edge25" class="edge">
<title>398&#45;&gt;399</title>
<path fill="none" stroke="black" d="M1062.5,-190.91C1062.5,-182.65 1062.5,-173.86 1062.5,-165.3"/>
<polygon fill="black" stroke="black" points="1066,-165.02 1062.5,-155.02 1059,-165.02 1066,-165.02"/>
</g>
<!-- 442 -->
<g id="node29" class="node">
<title>442</title>
<polygon fill="#75bbed" stroke="black" points="1308.5,-155 1150.5,-155 1150.5,-72 1308.5,-72 1308.5,-155"/>
<text text-anchor="middle" x="1229.5" y="-139.8" font-family="Times,serif" font-size="14.00">sdComp &lt;= 2.0</text>
<text text-anchor="middle" x="1229.5" y="-124.8" font-family="Times,serif" font-size="14.00">gini = 0.358</text>
<text text-anchor="middle" x="1229.5" y="-109.8" font-family="Times,serif" font-size="14.00">samples = 2606</text>
<text text-anchor="middle" x="1229.5" y="-94.8" font-family="Times,serif" font-size="14.00">value = [608, 1998]</text>
<text text-anchor="middle" x="1229.5" y="-79.8" font-family="Times,serif" font-size="14.00">class = True</text>
</g>
<!-- 398&#45;&gt;442 -->
<g id="edge28" class="edge">
<title>398&#45;&gt;442</title>
<path fill="none" stroke="black" d="M1120.44,-190.91C1134.3,-181.2 1149.2,-170.76 1163.4,-160.81"/>
<polygon fill="black" stroke="black" points="1165.48,-163.63 1171.66,-155.02 1161.46,-157.89 1165.48,-163.63"/>
</g>
<!-- 400 -->
<g id="node27" class="node">
<title>400</title>
<polygon fill="#c0c0c0" stroke="black" points="1046.5,-36 992.5,-36 992.5,0 1046.5,0 1046.5,-36"/>
<text text-anchor="middle" x="1019.5" y="-14.3" font-family="Times,serif" font-size="14.00">(...)</text>
</g>
<!-- 399&#45;&gt;400 -->
<g id="edge26" class="edge">
<title>399&#45;&gt;400</title>
<path fill="none" stroke="black" d="M1043.76,-71.76C1039.71,-62.94 1035.52,-53.84 1031.79,-45.72"/>
<polygon fill="black" stroke="black" points="1034.86,-44.03 1027.5,-36.41 1028.5,-46.95 1034.86,-44.03"/>
</g>
<!-- 407 -->
<g id="node28" class="node">
<title>407</title>
<polygon fill="#c0c0c0" stroke="black" points="1118.5,-36 1064.5,-36 1064.5,0 1118.5,0 1118.5,-36"/>
<text text-anchor="middle" x="1091.5" y="-14.3" font-family="Times,serif" font-size="14.00">(...)</text>
</g>
<!-- 399&#45;&gt;407 -->
<g id="edge27" class="edge">
<title>399&#45;&gt;407</title>
<path fill="none" stroke="black" d="M1075.14,-71.76C1077.84,-63.04 1080.63,-54.04 1083.13,-45.99"/>
<polygon fill="black" stroke="black" points="1086.48,-46.99 1086.1,-36.41 1079.8,-44.92 1086.48,-46.99"/>
</g>
<!-- 443 -->
<g id="node30" class="node">
<title>443</title>
<polygon fill="#c0c0c0" stroke="black" points="1220.5,-36 1166.5,-36 1166.5,0 1220.5,0 1220.5,-36"/>
<text text-anchor="middle" x="1193.5" y="-14.3" font-family="Times,serif" font-size="14.00">(...)</text>
</g>
<!-- 442&#45;&gt;443 -->
<g id="edge29" class="edge">
<title>442&#45;&gt;443</title>
<path fill="none" stroke="black" d="M1213.81,-71.76C1210.46,-63.04 1206.99,-54.04 1203.89,-45.99"/>
<polygon fill="black" stroke="black" points="1207.06,-44.48 1200.2,-36.41 1200.53,-46.99 1207.06,-44.48"/>
</g>
<!-- 518 -->
<g id="node31" class="node">
<title>518</title>
<polygon fill="#c0c0c0" stroke="black" points="1292.5,-36 1238.5,-36 1238.5,0 1292.5,0 1292.5,-36"/>
<text text-anchor="middle" x="1265.5" y="-14.3" font-family="Times,serif" font-size="14.00">(...)</text>
</g>
<!-- 442&#45;&gt;518 -->
<g id="edge30" class="edge">
<title>442&#45;&gt;518</title>
<path fill="none" stroke="black" d="M1245.19,-71.76C1248.54,-63.04 1252.01,-54.04 1255.11,-45.99"/>
<polygon fill="black" stroke="black" points="1258.47,-46.99 1258.8,-36.41 1251.94,-44.48 1258.47,-46.99"/>
</g>
</g>
</svg>
