<?xml version="1.0" encoding="UTF-8" standalone="no"?>
<!DOCTYPE svg PUBLIC "-//W3C//DTD SVG 1.1//EN"
 "http://www.w3.org/Graphics/SVG/1.1/DTD/svg11.dtd">
<!-- Generated by graphviz version 2.43.0 (0)
 -->
<!-- Title: Tree Pages: 1 -->
<svg width="1320pt" height="520pt"
 viewBox="0.00 0.00 1320.00 520.00" xmlns="http://www.w3.org/2000/svg" xmlns:xlink="http://www.w3.org/1999/xlink">
<g id="graph0" class="graph" transform="scale(1 1) rotate(0) translate(4 516)">
<title>Tree</title>
<polygon fill="white" stroke="transparent" points="-4,4 -4,-516 1316,-516 1316,4 -4,4"/>
<!-- 0 -->
<g id="node1" class="node">
<title>0</title>
<polygon fill="#feffff" stroke="black" points="712,-512 545,-512 545,-429 712,-429 712,-512"/>
<text text-anchor="middle" x="628.5" y="-496.8" font-family="Times,serif" font-size="14.00">graphDepth &lt;= 3.5</text>
<text text-anchor="middle" x="628.5" y="-481.8" font-family="Times,serif" font-size="14.00">gini = 0.5</text>
<text text-anchor="middle" x="628.5" y="-466.8" font-family="Times,serif" font-size="14.00">samples = 7849</text>
<text text-anchor="middle" x="628.5" y="-451.8" font-family="Times,serif" font-size="14.00">value = [3918, 3931]</text>
<text text-anchor="middle" x="628.5" y="-436.8" font-family="Times,serif" font-size="14.00">class = True</text>
</g>
<!-- 1 -->
<g id="node2" class="node">
<title>1</title>
<polygon fill="#fcfdff" stroke="black" points="544,-393 395,-393 395,-310 544,-310 544,-393"/>
<text text-anchor="middle" x="469.5" y="-377.8" font-family="Times,serif" font-size="14.00">nbproc &lt;= 4.5</text>
<text text-anchor="middle" x="469.5" y="-362.8" font-family="Times,serif" font-size="14.00">gini = 0.5</text>
<text text-anchor="middle" x="469.5" y="-347.8" font-family="Times,serif" font-size="14.00">samples = 803</text>
<text text-anchor="middle" x="469.5" y="-332.8" font-family="Times,serif" font-size="14.00">value = [398, 405]</text>
<text text-anchor="middle" x="469.5" y="-317.8" font-family="Times,serif" font-size="14.00">class = True</text>
</g>
<!-- 0&#45;&gt;1 -->
<g id="edge1" class="edge">
<title>0&#45;&gt;1</title>
<path fill="none" stroke="black" d="M573.34,-428.91C560.26,-419.29 546.22,-408.95 532.82,-399.09"/>
<polygon fill="black" stroke="black" points="534.7,-396.13 524.57,-393.02 530.55,-401.77 534.7,-396.13"/>
<text text-anchor="middle" x="528.33" y="-414.04" font-family="Times,serif" font-size="14.00">True</text>
</g>
<!-- 98 -->
<g id="node17" class="node">
<title>98</title>
<polygon fill="#ffffff" stroke="black" points="875,-393 708,-393 708,-310 875,-310 875,-393"/>
<text text-anchor="middle" x="791.5" y="-377.8" font-family="Times,serif" font-size="14.00">graphDepth &lt;= 9.0</text>
<text text-anchor="middle" x="791.5" y="-362.8" font-family="Times,serif" font-size="14.00">gini = 0.5</text>
<text text-anchor="middle" x="791.5" y="-347.8" font-family="Times,serif" font-size="14.00">samples = 7046</text>
<text text-anchor="middle" x="791.5" y="-332.8" font-family="Times,serif" font-size="14.00">value = [3520, 3526]</text>
<text text-anchor="middle" x="791.5" y="-317.8" font-family="Times,serif" font-size="14.00">class = True</text>
</g>
<!-- 0&#45;&gt;98 -->
<g id="edge16" class="edge">
<title>0&#45;&gt;98</title>
<path fill="none" stroke="black" d="M685.05,-428.91C698.45,-419.29 712.85,-408.95 726.59,-399.09"/>
<polygon fill="black" stroke="black" points="728.97,-401.7 735.05,-393.02 724.88,-396.01 728.97,-401.7"/>
<text text-anchor="middle" x="731" y="-413.99" font-family="Times,serif" font-size="14.00">False</text>
</g>
<!-- 2 -->
<g id="node3" class="node">
<title>2</title>
<polygon fill="#f7fbfe" stroke="black" points="306,-274 157,-274 157,-191 306,-191 306,-274"/>
<text text-anchor="middle" x="231.5" y="-258.8" font-family="Times,serif" font-size="14.00">sdComp &lt;= 0.065</text>
<text text-anchor="middle" x="231.5" y="-243.8" font-family="Times,serif" font-size="14.00">gini = 0.5</text>
<text text-anchor="middle" x="231.5" y="-228.8" font-family="Times,serif" font-size="14.00">samples = 284</text>
<text text-anchor="middle" x="231.5" y="-213.8" font-family="Times,serif" font-size="14.00">value = [139, 145]</text>
<text text-anchor="middle" x="231.5" y="-198.8" font-family="Times,serif" font-size="14.00">class = True</text>
</g>
<!-- 1&#45;&gt;2 -->
<g id="edge2" class="edge">
<title>1&#45;&gt;2</title>
<path fill="none" stroke="black" d="M394.85,-313.8C369.61,-301.39 341.26,-287.46 315.35,-274.72"/>
<polygon fill="black" stroke="black" points="316.81,-271.54 306.3,-270.27 313.73,-277.82 316.81,-271.54"/>
</g>
<!-- 51 -->
<g id="node10" class="node">
<title>51</title>
<polygon fill="#feffff" stroke="black" points="544,-274 395,-274 395,-191 544,-191 544,-274"/>
<text text-anchor="middle" x="469.5" y="-258.8" font-family="Times,serif" font-size="14.00">sdComm &lt;= 0.2</text>
<text text-anchor="middle" x="469.5" y="-243.8" font-family="Times,serif" font-size="14.00">gini = 0.5</text>
<text text-anchor="middle" x="469.5" y="-228.8" font-family="Times,serif" font-size="14.00">samples = 519</text>
<text text-anchor="middle" x="469.5" y="-213.8" font-family="Times,serif" font-size="14.00">value = [259, 260]</text>
<text text-anchor="middle" x="469.5" y="-198.8" font-family="Times,serif" font-size="14.00">class = True</text>
</g>
<!-- 1&#45;&gt;51 -->
<g id="edge9" class="edge">
<title>1&#45;&gt;51</title>
<path fill="none" stroke="black" d="M469.5,-309.91C469.5,-301.65 469.5,-292.86 469.5,-284.3"/>
<polygon fill="black" stroke="black" points="473,-284.02 469.5,-274.02 466,-284.02 473,-284.02"/>
</g>
<!-- 3 -->
<g id="node4" class="node">
<title>3</title>
<polygon fill="#e5f2fc" stroke="black" points="139,-155 0,-155 0,-72 139,-72 139,-155"/>
<text text-anchor="middle" x="69.5" y="-139.8" font-family="Times,serif" font-size="14.00">sdComp &lt;= 0.02</text>
<text text-anchor="middle" x="69.5" y="-124.8" font-family="Times,serif" font-size="14.00">gini = 0.497</text>
<text text-anchor="middle" x="69.5" y="-109.8" font-family="Times,serif" font-size="14.00">samples = 28</text>
<text text-anchor="middle" x="69.5" y="-94.8" font-family="Times,serif" font-size="14.00">value = [13, 15]</text>
<text text-anchor="middle" x="69.5" y="-79.8" font-family="Times,serif" font-size="14.00">class = True</text>
</g>
<!-- 2&#45;&gt;3 -->
<g id="edge3" class="edge">
<title>2&#45;&gt;3</title>
<path fill="none" stroke="black" d="M175.29,-190.91C161.98,-181.29 147.67,-170.95 134.01,-161.09"/>
<polygon fill="black" stroke="black" points="135.76,-158.04 125.61,-155.02 131.66,-163.71 135.76,-158.04"/>
</g>
<!-- 12 -->
<g id="node7" class="node">
<title>12</title>
<polygon fill="#f9fcfe" stroke="black" points="306,-155 157,-155 157,-72 306,-72 306,-155"/>
<text text-anchor="middle" x="231.5" y="-139.8" font-family="Times,serif" font-size="14.00">sdComp &lt;= 0.65</text>
<text text-anchor="middle" x="231.5" y="-124.8" font-family="Times,serif" font-size="14.00">gini = 0.5</text>
<text text-anchor="middle" x="231.5" y="-109.8" font-family="Times,serif" font-size="14.00">samples = 256</text>
<text text-anchor="middle" x="231.5" y="-94.8" font-family="Times,serif" font-size="14.00">value = [126, 130]</text>
<text text-anchor="middle" x="231.5" y="-79.8" font-family="Times,serif" font-size="14.00">class = True</text>
</g>
<!-- 2&#45;&gt;12 -->
<g id="edge6" class="edge">
<title>2&#45;&gt;12</title>
<path fill="none" stroke="black" d="M231.5,-190.91C231.5,-182.65 231.5,-173.86 231.5,-165.3"/>
<polygon fill="black" stroke="black" points="235,-165.02 231.5,-155.02 228,-165.02 235,-165.02"/>
</g>
<!-- 4 -->
<g id="node5" class="node">
<title>4</title>
<polygon fill="#c0c0c0" stroke="black" points="60.5,-36 6.5,-36 6.5,0 60.5,0 60.5,-36"/>
<text text-anchor="middle" x="33.5" y="-14.3" font-family="Times,serif" font-size="14.00">(...)</text>
</g>
<!-- 3&#45;&gt;4 -->
<g id="edge4" class="edge">
<title>3&#45;&gt;4</title>
<path fill="none" stroke="black" d="M53.81,-71.76C50.46,-63.04 46.99,-54.04 43.89,-45.99"/>
<polygon fill="black" stroke="black" points="47.06,-44.48 40.2,-36.41 40.53,-46.99 47.06,-44.48"/>
</g>
<!-- 9 -->
<g id="node6" class="node">
<title>9</title>
<polygon fill="#c0c0c0" stroke="black" points="132.5,-36 78.5,-36 78.5,0 132.5,0 132.5,-36"/>
<text text-anchor="middle" x="105.5" y="-14.3" font-family="Times,serif" font-size="14.00">(...)</text>
</g>
<!-- 3&#45;&gt;9 -->
<g id="edge5" class="edge">
<title>3&#45;&gt;9</title>
<path fill="none" stroke="black" d="M85.19,-71.76C88.54,-63.04 92.01,-54.04 95.11,-45.99"/>
<polygon fill="black" stroke="black" points="98.47,-46.99 98.8,-36.41 91.94,-44.48 98.47,-46.99"/>
</g>
<!-- 13 -->
<g id="node8" class="node">
<title>13</title>
<polygon fill="#c0c0c0" stroke="black" points="231.5,-36 177.5,-36 177.5,0 231.5,0 231.5,-36"/>
<text text-anchor="middle" x="204.5" y="-14.3" font-family="Times,serif" font-size="14.00">(...)</text>
</g>
<!-- 12&#45;&gt;13 -->
<g id="edge7" class="edge">
<title>12&#45;&gt;13</title>
<path fill="none" stroke="black" d="M219.74,-71.76C217.25,-63.14 214.68,-54.24 212.37,-46.26"/>
<polygon fill="black" stroke="black" points="215.66,-45.04 209.53,-36.41 208.94,-46.98 215.66,-45.04"/>
</g>
<!-- 28 -->
<g id="node9" class="node">
<title>28</title>
<polygon fill="#c0c0c0" stroke="black" points="303.5,-36 249.5,-36 249.5,0 303.5,0 303.5,-36"/>
<text text-anchor="middle" x="276.5" y="-14.3" font-family="Times,serif" font-size="14.00">(...)</text>
</g>
<!-- 12&#45;&gt;28 -->
<g id="edge8" class="edge">
<title>12&#45;&gt;28</title>
<path fill="none" stroke="black" d="M251.11,-71.76C255.4,-62.85 259.83,-53.64 263.77,-45.46"/>
<polygon fill="black" stroke="black" points="266.94,-46.93 268.12,-36.41 260.63,-43.9 266.94,-46.93"/>
</g>
<!-- 52 -->
<g id="node11" class="node">
<title>52</title>
<polygon fill="#ffffff" stroke="black" points="473,-155 324,-155 324,-72 473,-72 473,-155"/>
<text text-anchor="middle" x="398.5" y="-139.8" font-family="Times,serif" font-size="14.00">CCR &lt;= 0.55</text>
<text text-anchor="middle" x="398.5" y="-124.8" font-family="Times,serif" font-size="14.00">gini = 0.5</text>
<text text-anchor="middle" x="398.5" y="-109.8" font-family="Times,serif" font-size="14.00">samples = 322</text>
<text text-anchor="middle" x="398.5" y="-94.8" font-family="Times,serif" font-size="14.00">value = [161, 161]</text>
<text text-anchor="middle" x="398.5" y="-79.8" font-family="Times,serif" font-size="14.00">class = False</text>
</g>
<!-- 51&#45;&gt;52 -->
<g id="edge10" class="edge">
<title>51&#45;&gt;52</title>
<path fill="none" stroke="black" d="M444.87,-190.91C439.53,-182.1 433.82,-172.7 428.3,-163.61"/>
<polygon fill="black" stroke="black" points="431.27,-161.75 423.09,-155.02 425.29,-165.39 431.27,-161.75"/>
</g>
<!-- 71 -->
<g id="node14" class="node">
<title>71</title>
<polygon fill="#fdfeff" stroke="black" points="622,-155 491,-155 491,-72 622,-72 622,-155"/>
<text text-anchor="middle" x="556.5" y="-139.8" font-family="Times,serif" font-size="14.00">sdComp &lt;= 0.2</text>
<text text-anchor="middle" x="556.5" y="-124.8" font-family="Times,serif" font-size="14.00">gini = 0.5</text>
<text text-anchor="middle" x="556.5" y="-109.8" font-family="Times,serif" font-size="14.00">samples = 197</text>
<text text-anchor="middle" x="556.5" y="-94.8" font-family="Times,serif" font-size="14.00">value = [98, 99]</text>
<text text-anchor="middle" x="556.5" y="-79.8" font-family="Times,serif" font-size="14.00">class = True</text>
</g>
<!-- 51&#45;&gt;71 -->
<g id="edge13" class="edge">
<title>51&#45;&gt;71</title>
<path fill="none" stroke="black" d="M499.68,-190.91C506.36,-181.92 513.51,-172.32 520.4,-163.05"/>
<polygon fill="black" stroke="black" points="523.21,-165.13 526.37,-155.02 517.59,-160.96 523.21,-165.13"/>
</g>
<!-- 53 -->
<g id="node12" class="node">
<title>53</title>
<polygon fill="#c0c0c0" stroke="black" points="391.5,-36 337.5,-36 337.5,0 391.5,0 391.5,-36"/>
<text text-anchor="middle" x="364.5" y="-14.3" font-family="Times,serif" font-size="14.00">(...)</text>
</g>
<!-- 52&#45;&gt;53 -->
<g id="edge11" class="edge">
<title>52&#45;&gt;53</title>
<path fill="none" stroke="black" d="M383.69,-71.76C380.52,-63.04 377.24,-54.04 374.32,-45.99"/>
<polygon fill="black" stroke="black" points="377.54,-44.61 370.83,-36.41 370.96,-47 377.54,-44.61"/>
</g>
<!-- 66 -->
<g id="node13" class="node">
<title>66</title>
<polygon fill="#c0c0c0" stroke="black" points="463.5,-36 409.5,-36 409.5,0 463.5,0 463.5,-36"/>
<text text-anchor="middle" x="436.5" y="-14.3" font-family="Times,serif" font-size="14.00">(...)</text>
</g>
<!-- 52&#45;&gt;66 -->
<g id="edge12" class="edge">
<title>52&#45;&gt;66</title>
<path fill="none" stroke="black" d="M415.06,-71.76C418.64,-62.94 422.34,-53.84 425.64,-45.72"/>
<polygon fill="black" stroke="black" points="428.9,-46.99 429.43,-36.41 422.42,-44.35 428.9,-46.99"/>
</g>
<!-- 72 -->
<g id="node15" class="node">
<title>72</title>
<polygon fill="#c0c0c0" stroke="black" points="551.5,-36 497.5,-36 497.5,0 551.5,0 551.5,-36"/>
<text text-anchor="middle" x="524.5" y="-14.3" font-family="Times,serif" font-size="14.00">(...)</text>
</g>
<!-- 71&#45;&gt;72 -->
<g id="edge14" class="edge">
<title>71&#45;&gt;72</title>
<path fill="none" stroke="black" d="M542.56,-71.76C539.57,-63.04 536.49,-54.04 533.74,-45.99"/>
<polygon fill="black" stroke="black" points="537.01,-44.73 530.46,-36.41 530.38,-47 537.01,-44.73"/>
</g>
<!-- 75 -->
<g id="node16" class="node">
<title>75</title>
<polygon fill="#c0c0c0" stroke="black" points="623.5,-36 569.5,-36 569.5,0 623.5,0 623.5,-36"/>
<text text-anchor="middle" x="596.5" y="-14.3" font-family="Times,serif" font-size="14.00">(...)</text>
</g>
<!-- 71&#45;&gt;75 -->
<g id="edge15" class="edge">
<title>71&#45;&gt;75</title>
<path fill="none" stroke="black" d="M573.93,-71.76C577.7,-62.94 581.6,-53.84 585.07,-45.72"/>
<polygon fill="black" stroke="black" points="588.34,-46.98 589.05,-36.41 581.9,-44.22 588.34,-46.98"/>
</g>
<!-- 99 -->
<g id="node18" class="node">
<title>99</title>
<polygon fill="#feffff" stroke="black" points="875,-274 708,-274 708,-191 875,-191 875,-274"/>
<text text-anchor="middle" x="791.5" y="-258.8" font-family="Times,serif" font-size="14.00">sdComp &lt;= 0.2</text>
<text text-anchor="middle" x="791.5" y="-243.8" font-family="Times,serif" font-size="14.00">gini = 0.5</text>
<text text-anchor="middle" x="791.5" y="-228.8" font-family="Times,serif" font-size="14.00">samples = 3082</text>
<text text-anchor="middle" x="791.5" y="-213.8" font-family="Times,serif" font-size="14.00">value = [1538, 1544]</text>
<text text-anchor="middle" x="791.5" y="-198.8" font-family="Times,serif" font-size="14.00">class = True</text>
</g>
<!-- 98&#45;&gt;99 -->
<g id="edge17" class="edge">
<title>98&#45;&gt;99</title>
<path fill="none" stroke="black" d="M791.5,-309.91C791.5,-301.65 791.5,-292.86 791.5,-284.3"/>
<polygon fill="black" stroke="black" points="795,-284.02 791.5,-274.02 788,-284.02 795,-284.02"/>
</g>
<!-- 374 -->
<g id="node25" class="node">
<title>374</title>
<polygon fill="#ffffff" stroke="black" points="1136,-274 969,-274 969,-191 1136,-191 1136,-274"/>
<text text-anchor="middle" x="1052.5" y="-258.8" font-family="Times,serif" font-size="14.00">graphSize &lt;= 40.0</text>
<text text-anchor="middle" x="1052.5" y="-243.8" font-family="Times,serif" font-size="14.00">gini = 0.5</text>
<text text-anchor="middle" x="1052.5" y="-228.8" font-family="Times,serif" font-size="14.00">samples = 3964</text>
<text text-anchor="middle" x="1052.5" y="-213.8" font-family="Times,serif" font-size="14.00">value = [1982, 1982]</text>
<text text-anchor="middle" x="1052.5" y="-198.8" font-family="Times,serif" font-size="14.00">class = False</text>
</g>
<!-- 98&#45;&gt;374 -->
<g id="edge24" class="edge">
<title>98&#45;&gt;374</title>
<path fill="none" stroke="black" d="M875.16,-313C902.09,-300.93 932.08,-287.48 959.63,-275.13"/>
<polygon fill="black" stroke="black" points="961.17,-278.28 968.87,-270.99 958.31,-271.89 961.17,-278.28"/>
</g>
<!-- 100 -->
<g id="node19" class="node">
<title>100</title>
<polygon fill="#ffffff" stroke="black" points="793,-155 640,-155 640,-72 793,-72 793,-155"/>
<text text-anchor="middle" x="716.5" y="-139.8" font-family="Times,serif" font-size="14.00">graphSize &lt;= 22.5</text>
<text text-anchor="middle" x="716.5" y="-124.8" font-family="Times,serif" font-size="14.00">gini = 0.5</text>
<text text-anchor="middle" x="716.5" y="-109.8" font-family="Times,serif" font-size="14.00">samples = 1360</text>
<text text-anchor="middle" x="716.5" y="-94.8" font-family="Times,serif" font-size="14.00">value = [680, 680]</text>
<text text-anchor="middle" x="716.5" y="-79.8" font-family="Times,serif" font-size="14.00">class = False</text>
</g>
<!-- 99&#45;&gt;100 -->
<g id="edge18" class="edge">
<title>99&#45;&gt;100</title>
<path fill="none" stroke="black" d="M765.48,-190.91C759.84,-182.1 753.81,-172.7 747.98,-163.61"/>
<polygon fill="black" stroke="black" points="750.82,-161.55 742.47,-155.02 744.93,-165.33 750.82,-161.55"/>
</g>
<!-- 213 -->
<g id="node22" class="node">
<title>213</title>
<polygon fill="#fefeff" stroke="black" points="960,-155 811,-155 811,-72 960,-72 960,-155"/>
<text text-anchor="middle" x="885.5" y="-139.8" font-family="Times,serif" font-size="14.00">sdComp &lt;= 0.65</text>
<text text-anchor="middle" x="885.5" y="-124.8" font-family="Times,serif" font-size="14.00">gini = 0.5</text>
<text text-anchor="middle" x="885.5" y="-109.8" font-family="Times,serif" font-size="14.00">samples = 1722</text>
<text text-anchor="middle" x="885.5" y="-94.8" font-family="Times,serif" font-size="14.00">value = [858, 864]</text>
<text text-anchor="middle" x="885.5" y="-79.8" font-family="Times,serif" font-size="14.00">class = True</text>
</g>
<!-- 99&#45;&gt;213 -->
<g id="edge21" class="edge">
<title>99&#45;&gt;213</title>
<path fill="none" stroke="black" d="M824.11,-190.91C831.33,-181.92 839.05,-172.32 846.49,-163.05"/>
<polygon fill="black" stroke="black" points="849.41,-165.01 852.94,-155.02 843.95,-160.62 849.41,-165.01"/>
</g>
<!-- 101 -->
<g id="node20" class="node">
<title>101</title>
<polygon fill="#c0c0c0" stroke="black" points="703.5,-36 649.5,-36 649.5,0 703.5,0 703.5,-36"/>
<text text-anchor="middle" x="676.5" y="-14.3" font-family="Times,serif" font-size="14.00">(...)</text>
</g>
<!-- 100&#45;&gt;101 -->
<g id="edge19" class="edge">
<title>100&#45;&gt;101</title>
<path fill="none" stroke="black" d="M699.07,-71.76C695.3,-62.94 691.4,-53.84 687.93,-45.72"/>
<polygon fill="black" stroke="black" points="691.1,-44.22 683.95,-36.41 684.66,-46.98 691.1,-44.22"/>
</g>
<!-- 146 -->
<g id="node21" class="node">
<title>146</title>
<polygon fill="#c0c0c0" stroke="black" points="775.5,-36 721.5,-36 721.5,0 775.5,0 775.5,-36"/>
<text text-anchor="middle" x="748.5" y="-14.3" font-family="Times,serif" font-size="14.00">(...)</text>
</g>
<!-- 100&#45;&gt;146 -->
<g id="edge20" class="edge">
<title>100&#45;&gt;146</title>
<path fill="none" stroke="black" d="M730.44,-71.76C733.43,-63.04 736.51,-54.04 739.26,-45.99"/>
<polygon fill="black" stroke="black" points="742.62,-47 742.54,-36.41 735.99,-44.73 742.62,-47"/>
</g>
<!-- 214 -->
<g id="node23" class="node">
<title>214</title>
<polygon fill="#c0c0c0" stroke="black" points="851.5,-36 797.5,-36 797.5,0 851.5,0 851.5,-36"/>
<text text-anchor="middle" x="824.5" y="-14.3" font-family="Times,serif" font-size="14.00">(...)</text>
</g>
<!-- 213&#45;&gt;214 -->
<g id="edge22" class="edge">
<title>213&#45;&gt;214</title>
<path fill="none" stroke="black" d="M858.92,-71.76C852.98,-62.65 846.84,-53.24 841.41,-44.92"/>
<polygon fill="black" stroke="black" points="844.25,-42.87 835.86,-36.41 838.39,-46.69 844.25,-42.87"/>
</g>
<!-- 235 -->
<g id="node24" class="node">
<title>235</title>
<polygon fill="#c0c0c0" stroke="black" points="923.5,-36 869.5,-36 869.5,0 923.5,0 923.5,-36"/>
<text text-anchor="middle" x="896.5" y="-14.3" font-family="Times,serif" font-size="14.00">(...)</text>
</g>
<!-- 213&#45;&gt;235 -->
<g id="edge23" class="edge">
<title>213&#45;&gt;235</title>
<path fill="none" stroke="black" d="M890.29,-71.76C891.3,-63.24 892.33,-54.44 893.26,-46.53"/>
<polygon fill="black" stroke="black" points="896.76,-46.75 894.45,-36.41 889.81,-45.93 896.76,-46.75"/>
</g>
<!-- 375 -->
<g id="node26" class="node">
<title>375</title>
<polygon fill="#ffffff" stroke="black" points="1127,-155 978,-155 978,-72 1127,-72 1127,-155"/>
<text text-anchor="middle" x="1052.5" y="-139.8" font-family="Times,serif" font-size="14.00">sdComp &lt;= 0.02</text>
<text text-anchor="middle" x="1052.5" y="-124.8" font-family="Times,serif" font-size="14.00">gini = 0.5</text>
<text text-anchor="middle" x="1052.5" y="-109.8" font-family="Times,serif" font-size="14.00">samples = 1166</text>
<text text-anchor="middle" x="1052.5" y="-94.8" font-family="Times,serif" font-size="14.00">value = [583, 583]</text>
<text text-anchor="middle" x="1052.5" y="-79.8" font-family="Times,serif" font-size="14.00">class = False</text>
</g>
<!-- 374&#45;&gt;375 -->
<g id="edge25" class="edge">
<title>374&#45;&gt;375</title>
<path fill="none" stroke="black" d="M1052.5,-190.91C1052.5,-182.65 1052.5,-173.86 1052.5,-165.3"/>
<polygon fill="black" stroke="black" points="1056,-165.02 1052.5,-155.02 1049,-165.02 1056,-165.02"/>
</g>
<!-- 478 -->
<g id="node29" class="node">
<title>478</title>
<polygon fill="#ffffff" stroke="black" points="1312,-155 1145,-155 1145,-72 1312,-72 1312,-155"/>
<text text-anchor="middle" x="1228.5" y="-139.8" font-family="Times,serif" font-size="14.00">sdComm &lt;= 0.02</text>
<text text-anchor="middle" x="1228.5" y="-124.8" font-family="Times,serif" font-size="14.00">gini = 0.5</text>
<text text-anchor="middle" x="1228.5" y="-109.8" font-family="Times,serif" font-size="14.00">samples = 2798</text>
<text text-anchor="middle" x="1228.5" y="-94.8" font-family="Times,serif" font-size="14.00">value = [1399, 1399]</text>
<text text-anchor="middle" x="1228.5" y="-79.8" font-family="Times,serif" font-size="14.00">class = False</text>
</g>
<!-- 374&#45;&gt;478 -->
<g id="edge28" class="edge">
<title>374&#45;&gt;478</title>
<path fill="none" stroke="black" d="M1113.56,-190.91C1128.17,-181.2 1143.87,-170.76 1158.84,-160.81"/>
<polygon fill="black" stroke="black" points="1161.16,-163.47 1167.55,-155.02 1157.28,-157.64 1161.16,-163.47"/>
</g>
<!-- 376 -->
<g id="node27" class="node">
<title>376</title>
<polygon fill="#c0c0c0" stroke="black" points="1041.5,-36 987.5,-36 987.5,0 1041.5,0 1041.5,-36"/>
<text text-anchor="middle" x="1014.5" y="-14.3" font-family="Times,serif" font-size="14.00">(...)</text>
</g>
<!-- 375&#45;&gt;376 -->
<g id="edge26" class="edge">
<title>375&#45;&gt;376</title>
<path fill="none" stroke="black" d="M1035.94,-71.76C1032.36,-62.94 1028.66,-53.84 1025.36,-45.72"/>
<polygon fill="black" stroke="black" points="1028.58,-44.35 1021.57,-36.41 1022.1,-46.99 1028.58,-44.35"/>
</g>
<!-- 387 -->
<g id="node28" class="node">
<title>387</title>
<polygon fill="#c0c0c0" stroke="black" points="1113.5,-36 1059.5,-36 1059.5,0 1113.5,0 1113.5,-36"/>
<text text-anchor="middle" x="1086.5" y="-14.3" font-family="Times,serif" font-size="14.00">(...)</text>
</g>
<!-- 375&#45;&gt;387 -->
<g id="edge27" class="edge">
<title>375&#45;&gt;387</title>
<path fill="none" stroke="black" d="M1067.31,-71.76C1070.48,-63.04 1073.76,-54.04 1076.68,-45.99"/>
<polygon fill="black" stroke="black" points="1080.04,-47 1080.17,-36.41 1073.46,-44.61 1080.04,-47"/>
</g>
<!-- 479 -->
<g id="node30" class="node">
<title>479</title>
<polygon fill="#c0c0c0" stroke="black" points="1219.5,-36 1165.5,-36 1165.5,0 1219.5,0 1219.5,-36"/>
<text text-anchor="middle" x="1192.5" y="-14.3" font-family="Times,serif" font-size="14.00">(...)</text>
</g>
<!-- 478&#45;&gt;479 -->
<g id="edge29" class="edge">
<title>478&#45;&gt;479</title>
<path fill="none" stroke="black" d="M1212.81,-71.76C1209.46,-63.04 1205.99,-54.04 1202.89,-45.99"/>
<polygon fill="black" stroke="black" points="1206.06,-44.48 1199.2,-36.41 1199.53,-46.99 1206.06,-44.48"/>
</g>
<!-- 510 -->
<g id="node31" class="node">
<title>510</title>
<polygon fill="#c0c0c0" stroke="black" points="1291.5,-36 1237.5,-36 1237.5,0 1291.5,0 1291.5,-36"/>
<text text-anchor="middle" x="1264.5" y="-14.3" font-family="Times,serif" font-size="14.00">(...)</text>
</g>
<!-- 478&#45;&gt;510 -->
<g id="edge30" class="edge">
<title>478&#45;&gt;510</title>
<path fill="none" stroke="black" d="M1244.19,-71.76C1247.54,-63.04 1251.01,-54.04 1254.11,-45.99"/>
<polygon fill="black" stroke="black" points="1257.47,-46.99 1257.8,-36.41 1250.94,-44.48 1257.47,-46.99"/>
</g>
</g>
</svg>
