<?xml version="1.0" encoding="UTF-8" standalone="no"?>
<!DOCTYPE svg PUBLIC "-//W3C//DTD SVG 1.1//EN"
 "http://www.w3.org/Graphics/SVG/1.1/DTD/svg11.dtd">
<!-- Generated by graphviz version 2.43.0 (0)
 -->
<!-- Title: Tree Pages: 1 -->
<svg width="2066pt" height="520pt"
 viewBox="0.00 0.00 2066.00 520.00" xmlns="http://www.w3.org/2000/svg" xmlns:xlink="http://www.w3.org/1999/xlink">
<g id="graph0" class="graph" transform="scale(1 1) rotate(0) translate(4 516)">
<title>Tree</title>
<polygon fill="white" stroke="transparent" points="-4,4 -4,-516 2062,-516 2062,4 -4,4"/>
<!-- 0 -->
<g id="node1" class="node">
<title>0</title>
<polygon fill="#e99457" stroke="black" points="1083,-512 781,-512 781,-429 1083,-429 1083,-512"/>
<text text-anchor="middle" x="932" y="-496.8" font-family="Times,serif" font-size="14.00">CCR &lt;= 0.55</text>
<text text-anchor="middle" x="932" y="-481.8" font-family="Times,serif" font-size="14.00">gini = 0.265</text>
<text text-anchor="middle" x="932" y="-466.8" font-family="Times,serif" font-size="14.00">samples = 7849</text>
<text text-anchor="middle" x="932" y="-451.8" font-family="Times,serif" font-size="14.00">value = [6710, 239, 218, 232, 232, 218]</text>
<text text-anchor="middle" x="932" y="-436.8" font-family="Times,serif" font-size="14.00">class = mean</text>
</g>
<!-- 1 -->
<g id="node2" class="node">
<title>1</title>
<polygon fill="#e68540" stroke="black" points="832.5,-393 575.5,-393 575.5,-310 832.5,-310 832.5,-393"/>
<text text-anchor="middle" x="704" y="-377.8" font-family="Times,serif" font-size="14.00">sdComp &lt;= 0.02</text>
<text text-anchor="middle" x="704" y="-362.8" font-family="Times,serif" font-size="14.00">gini = 0.068</text>
<text text-anchor="middle" x="704" y="-347.8" font-family="Times,serif" font-size="14.00">samples = 2600</text>
<text text-anchor="middle" x="704" y="-332.8" font-family="Times,serif" font-size="14.00">value = [2510, 10, 10, 30, 30, 10]</text>
<text text-anchor="middle" x="704" y="-317.8" font-family="Times,serif" font-size="14.00">class = mean</text>
</g>
<!-- 0&#45;&gt;1 -->
<g id="edge1" class="edge">
<title>0&#45;&gt;1</title>
<path fill="none" stroke="black" d="M852.9,-428.91C833.27,-418.83 812.11,-407.98 792.08,-397.7"/>
<polygon fill="black" stroke="black" points="793.46,-394.47 782.96,-393.02 790.26,-400.7 793.46,-394.47"/>
<text text-anchor="middle" x="790.62" y="-413.12" font-family="Times,serif" font-size="14.00">True</text>
</g>
<!-- 40 -->
<g id="node13" class="node">
<title>40</title>
<polygon fill="#ea9b62" stroke="black" points="1349,-393 1047,-393 1047,-310 1349,-310 1349,-393"/>
<text text-anchor="middle" x="1198" y="-377.8" font-family="Times,serif" font-size="14.00">sdComp &lt;= 0.2</text>
<text text-anchor="middle" x="1198" y="-362.8" font-family="Times,serif" font-size="14.00">gini = 0.352</text>
<text text-anchor="middle" x="1198" y="-347.8" font-family="Times,serif" font-size="14.00">samples = 5249</text>
<text text-anchor="middle" x="1198" y="-332.8" font-family="Times,serif" font-size="14.00">value = [4200, 229, 208, 202, 202, 208]</text>
<text text-anchor="middle" x="1198" y="-317.8" font-family="Times,serif" font-size="14.00">class = mean</text>
</g>
<!-- 0&#45;&gt;40 -->
<g id="edge12" class="edge">
<title>0&#45;&gt;40</title>
<path fill="none" stroke="black" d="M1024.29,-428.91C1047.6,-418.65 1072.76,-407.59 1096.5,-397.14"/>
<polygon fill="black" stroke="black" points="1098.13,-400.25 1105.88,-393.02 1095.31,-393.84 1098.13,-400.25"/>
<text text-anchor="middle" x="1096.81" y="-412.62" font-family="Times,serif" font-size="14.00">False</text>
</g>
<!-- 2 -->
<g id="node3" class="node">
<title>2</title>
<polygon fill="#e99355" stroke="black" points="492,-274 244,-274 244,-191 492,-191 492,-274"/>
<text text-anchor="middle" x="368" y="-258.8" font-family="Times,serif" font-size="14.00">graphDepth &lt;= 9.0</text>
<text text-anchor="middle" x="368" y="-243.8" font-family="Times,serif" font-size="14.00">gini = 0.248</text>
<text text-anchor="middle" x="368" y="-228.8" font-family="Times,serif" font-size="14.00">samples = 488</text>
<text text-anchor="middle" x="368" y="-213.8" font-family="Times,serif" font-size="14.00">value = [422, 10, 10, 18, 18, 10]</text>
<text text-anchor="middle" x="368" y="-198.8" font-family="Times,serif" font-size="14.00">class = mean</text>
</g>
<!-- 1&#45;&gt;2 -->
<g id="edge2" class="edge">
<title>1&#45;&gt;2</title>
<path fill="none" stroke="black" d="M587.43,-309.91C557.19,-299.38 524.5,-288 493.82,-277.31"/>
<polygon fill="black" stroke="black" points="494.96,-274 484.37,-274.02 492.66,-280.61 494.96,-274"/>
</g>
<!-- 29 -->
<g id="node8" class="node">
<title>29</title>
<polygon fill="#e5823b" stroke="black" points="819,-274 589,-274 589,-191 819,-191 819,-274"/>
<text text-anchor="middle" x="704" y="-258.8" font-family="Times,serif" font-size="14.00">nbproc &lt;= 4.5</text>
<text text-anchor="middle" x="704" y="-243.8" font-family="Times,serif" font-size="14.00">gini = 0.023</text>
<text text-anchor="middle" x="704" y="-228.8" font-family="Times,serif" font-size="14.00">samples = 2112</text>
<text text-anchor="middle" x="704" y="-213.8" font-family="Times,serif" font-size="14.00">value = [2088, 0, 0, 12, 12, 0]</text>
<text text-anchor="middle" x="704" y="-198.8" font-family="Times,serif" font-size="14.00">class = mean</text>
</g>
<!-- 1&#45;&gt;29 -->
<g id="edge7" class="edge">
<title>1&#45;&gt;29</title>
<path fill="none" stroke="black" d="M704,-309.91C704,-301.65 704,-292.86 704,-284.3"/>
<polygon fill="black" stroke="black" points="707.5,-284.02 704,-274.02 700.5,-284.02 707.5,-284.02"/>
</g>
<!-- 3 -->
<g id="node4" class="node">
<title>3</title>
<polygon fill="#edaa79" stroke="black" points="248,-155 0,-155 0,-72 248,-72 248,-155"/>
<text text-anchor="middle" x="124" y="-139.8" font-family="Times,serif" font-size="14.00">nbproc &lt;= 4.5</text>
<text text-anchor="middle" x="124" y="-124.8" font-family="Times,serif" font-size="14.00">gini = 0.487</text>
<text text-anchor="middle" x="124" y="-109.8" font-family="Times,serif" font-size="14.00">samples = 222</text>
<text text-anchor="middle" x="124" y="-94.8" font-family="Times,serif" font-size="14.00">value = [156, 10, 10, 18, 18, 10]</text>
<text text-anchor="middle" x="124" y="-79.8" font-family="Times,serif" font-size="14.00">class = mean</text>
</g>
<!-- 2&#45;&gt;3 -->
<g id="edge3" class="edge">
<title>2&#45;&gt;3</title>
<path fill="none" stroke="black" d="M283.35,-190.91C262.15,-180.74 239.29,-169.78 217.68,-159.42"/>
<polygon fill="black" stroke="black" points="219.04,-156.19 208.5,-155.02 216.01,-162.5 219.04,-156.19"/>
</g>
<!-- 28 -->
<g id="node7" class="node">
<title>28</title>
<polygon fill="#e58139" stroke="black" points="469.5,-147.5 266.5,-147.5 266.5,-79.5 469.5,-79.5 469.5,-147.5"/>
<text text-anchor="middle" x="368" y="-132.3" font-family="Times,serif" font-size="14.00">gini = 0.0</text>
<text text-anchor="middle" x="368" y="-117.3" font-family="Times,serif" font-size="14.00">samples = 266</text>
<text text-anchor="middle" x="368" y="-102.3" font-family="Times,serif" font-size="14.00">value = [266, 0, 0, 0, 0, 0]</text>
<text text-anchor="middle" x="368" y="-87.3" font-family="Times,serif" font-size="14.00">class = mean</text>
</g>
<!-- 2&#45;&gt;28 -->
<g id="edge6" class="edge">
<title>2&#45;&gt;28</title>
<path fill="none" stroke="black" d="M368,-190.91C368,-180.2 368,-168.62 368,-157.78"/>
<polygon fill="black" stroke="black" points="371.5,-157.67 368,-147.67 364.5,-157.67 371.5,-157.67"/>
</g>
<!-- 4 -->
<g id="node5" class="node">
<title>4</title>
<polygon fill="#c0c0c0" stroke="black" points="115,-36 61,-36 61,0 115,0 115,-36"/>
<text text-anchor="middle" x="88" y="-14.3" font-family="Times,serif" font-size="14.00">(...)</text>
</g>
<!-- 3&#45;&gt;4 -->
<g id="edge4" class="edge">
<title>3&#45;&gt;4</title>
<path fill="none" stroke="black" d="M108.31,-71.76C104.96,-63.04 101.49,-54.04 98.39,-45.99"/>
<polygon fill="black" stroke="black" points="101.56,-44.48 94.7,-36.41 95.03,-46.99 101.56,-44.48"/>
</g>
<!-- 19 -->
<g id="node6" class="node">
<title>19</title>
<polygon fill="#c0c0c0" stroke="black" points="187,-36 133,-36 133,0 187,0 187,-36"/>
<text text-anchor="middle" x="160" y="-14.3" font-family="Times,serif" font-size="14.00">(...)</text>
</g>
<!-- 3&#45;&gt;19 -->
<g id="edge5" class="edge">
<title>3&#45;&gt;19</title>
<path fill="none" stroke="black" d="M139.69,-71.76C143.04,-63.04 146.51,-54.04 149.61,-45.99"/>
<polygon fill="black" stroke="black" points="152.97,-46.99 153.3,-36.41 146.44,-44.48 152.97,-46.99"/>
</g>
<!-- 30 -->
<g id="node9" class="node">
<title>30</title>
<polygon fill="#e68641" stroke="black" points="708.5,-155 487.5,-155 487.5,-72 708.5,-72 708.5,-155"/>
<text text-anchor="middle" x="598" y="-139.8" font-family="Times,serif" font-size="14.00">sdComp &lt;= 0.065</text>
<text text-anchor="middle" x="598" y="-124.8" font-family="Times,serif" font-size="14.00">gini = 0.076</text>
<text text-anchor="middle" x="598" y="-109.8" font-family="Times,serif" font-size="14.00">samples = 614</text>
<text text-anchor="middle" x="598" y="-94.8" font-family="Times,serif" font-size="14.00">value = [590, 0, 0, 12, 12, 0]</text>
<text text-anchor="middle" x="598" y="-79.8" font-family="Times,serif" font-size="14.00">class = mean</text>
</g>
<!-- 29&#45;&gt;30 -->
<g id="edge8" class="edge">
<title>29&#45;&gt;30</title>
<path fill="none" stroke="black" d="M667.22,-190.91C658.92,-181.74 650.03,-171.93 641.48,-162.49"/>
<polygon fill="black" stroke="black" points="644.02,-160.08 634.71,-155.02 638.83,-164.78 644.02,-160.08"/>
</g>
<!-- 39 -->
<g id="node12" class="node">
<title>39</title>
<polygon fill="#e58139" stroke="black" points="939,-147.5 727,-147.5 727,-79.5 939,-79.5 939,-147.5"/>
<text text-anchor="middle" x="833" y="-132.3" font-family="Times,serif" font-size="14.00">gini = 0.0</text>
<text text-anchor="middle" x="833" y="-117.3" font-family="Times,serif" font-size="14.00">samples = 1498</text>
<text text-anchor="middle" x="833" y="-102.3" font-family="Times,serif" font-size="14.00">value = [1498, 0, 0, 0, 0, 0]</text>
<text text-anchor="middle" x="833" y="-87.3" font-family="Times,serif" font-size="14.00">class = mean</text>
</g>
<!-- 29&#45;&gt;39 -->
<g id="edge11" class="edge">
<title>29&#45;&gt;39</title>
<path fill="none" stroke="black" d="M748.76,-190.91C761.77,-179.1 775.98,-166.22 788.95,-154.45"/>
<polygon fill="black" stroke="black" points="791.38,-156.98 796.43,-147.67 786.67,-151.79 791.38,-156.98"/>
</g>
<!-- 31 -->
<g id="node10" class="node">
<title>31</title>
<polygon fill="#c0c0c0" stroke="black" points="589,-36 535,-36 535,0 589,0 589,-36"/>
<text text-anchor="middle" x="562" y="-14.3" font-family="Times,serif" font-size="14.00">(...)</text>
</g>
<!-- 30&#45;&gt;31 -->
<g id="edge9" class="edge">
<title>30&#45;&gt;31</title>
<path fill="none" stroke="black" d="M582.31,-71.76C578.96,-63.04 575.49,-54.04 572.39,-45.99"/>
<polygon fill="black" stroke="black" points="575.56,-44.48 568.7,-36.41 569.03,-46.99 575.56,-44.48"/>
</g>
<!-- 38 -->
<g id="node11" class="node">
<title>38</title>
<polygon fill="#c0c0c0" stroke="black" points="661,-36 607,-36 607,0 661,0 661,-36"/>
<text text-anchor="middle" x="634" y="-14.3" font-family="Times,serif" font-size="14.00">(...)</text>
</g>
<!-- 30&#45;&gt;38 -->
<g id="edge10" class="edge">
<title>30&#45;&gt;38</title>
<path fill="none" stroke="black" d="M613.69,-71.76C617.04,-63.04 620.51,-54.04 623.61,-45.99"/>
<polygon fill="black" stroke="black" points="626.97,-46.99 627.3,-36.41 620.44,-44.48 626.97,-46.99"/>
</g>
<!-- 41 -->
<g id="node14" class="node">
<title>41</title>
<polygon fill="#f5cdb1" stroke="black" points="1322,-274 1074,-274 1074,-191 1322,-191 1322,-274"/>
<text text-anchor="middle" x="1198" y="-258.8" font-family="Times,serif" font-size="14.00">graphSize &lt;= 75.0</text>
<text text-anchor="middle" x="1198" y="-243.8" font-family="Times,serif" font-size="14.00">gini = 0.702</text>
<text text-anchor="middle" x="1198" y="-228.8" font-family="Times,serif" font-size="14.00">samples = 435</text>
<text text-anchor="middle" x="1198" y="-213.8" font-family="Times,serif" font-size="14.00">value = [214, 69, 36, 40, 40, 36]</text>
<text text-anchor="middle" x="1198" y="-198.8" font-family="Times,serif" font-size="14.00">class = mean</text>
</g>
<!-- 40&#45;&gt;41 -->
<g id="edge13" class="edge">
<title>40&#45;&gt;41</title>
<path fill="none" stroke="black" d="M1198,-309.91C1198,-301.65 1198,-292.86 1198,-284.3"/>
<polygon fill="black" stroke="black" points="1201.5,-284.02 1198,-274.02 1194.5,-284.02 1201.5,-284.02"/>
</g>
<!-- 84 -->
<g id="node21" class="node">
<title>84</title>
<polygon fill="#ea975c" stroke="black" points="1760,-274 1458,-274 1458,-191 1760,-191 1760,-274"/>
<text text-anchor="middle" x="1609" y="-258.8" font-family="Times,serif" font-size="14.00">sdComm &lt;= 2.0</text>
<text text-anchor="middle" x="1609" y="-243.8" font-family="Times,serif" font-size="14.00">gini = 0.308</text>
<text text-anchor="middle" x="1609" y="-228.8" font-family="Times,serif" font-size="14.00">samples = 4814</text>
<text text-anchor="middle" x="1609" y="-213.8" font-family="Times,serif" font-size="14.00">value = [3986, 160, 172, 162, 162, 172]</text>
<text text-anchor="middle" x="1609" y="-198.8" font-family="Times,serif" font-size="14.00">class = mean</text>
</g>
<!-- 40&#45;&gt;84 -->
<g id="edge20" class="edge">
<title>40&#45;&gt;84</title>
<path fill="none" stroke="black" d="M1340.31,-309.99C1377.94,-299.28 1418.7,-287.67 1456.83,-276.82"/>
<polygon fill="black" stroke="black" points="1457.81,-280.18 1466.47,-274.07 1455.89,-273.45 1457.81,-280.18"/>
</g>
<!-- 42 -->
<g id="node15" class="node">
<title>42</title>
<polygon fill="#f1bb94" stroke="black" points="1205,-155 957,-155 957,-72 1205,-72 1205,-155"/>
<text text-anchor="middle" x="1081" y="-139.8" font-family="Times,serif" font-size="14.00">graphDepth &lt;= 3.5</text>
<text text-anchor="middle" x="1081" y="-124.8" font-family="Times,serif" font-size="14.00">gini = 0.607</text>
<text text-anchor="middle" x="1081" y="-109.8" font-family="Times,serif" font-size="14.00">samples = 321</text>
<text text-anchor="middle" x="1081" y="-94.8" font-family="Times,serif" font-size="14.00">value = [192, 41, 22, 22, 22, 22]</text>
<text text-anchor="middle" x="1081" y="-79.8" font-family="Times,serif" font-size="14.00">class = mean</text>
</g>
<!-- 41&#45;&gt;42 -->
<g id="edge14" class="edge">
<title>41&#45;&gt;42</title>
<path fill="none" stroke="black" d="M1157.41,-190.91C1148.15,-181.65 1138.23,-171.73 1128.71,-162.21"/>
<polygon fill="black" stroke="black" points="1131.07,-159.62 1121.52,-155.02 1126.12,-164.57 1131.07,-159.62"/>
</g>
<!-- 77 -->
<g id="node18" class="node">
<title>77</title>
<polygon fill="#f9fdf2" stroke="black" points="1462.5,-155 1223.5,-155 1223.5,-72 1462.5,-72 1462.5,-155"/>
<text text-anchor="middle" x="1343" y="-139.8" font-family="Times,serif" font-size="14.00">nbproc &lt;= 4.5</text>
<text text-anchor="middle" x="1343" y="-124.8" font-family="Times,serif" font-size="14.00">gini = 0.822</text>
<text text-anchor="middle" x="1343" y="-109.8" font-family="Times,serif" font-size="14.00">samples = 114</text>
<text text-anchor="middle" x="1343" y="-94.8" font-family="Times,serif" font-size="14.00">value = [22, 28, 14, 18, 18, 14]</text>
<text text-anchor="middle" x="1343" y="-79.8" font-family="Times,serif" font-size="14.00">class = median</text>
</g>
<!-- 41&#45;&gt;77 -->
<g id="edge17" class="edge">
<title>41&#45;&gt;77</title>
<path fill="none" stroke="black" d="M1248.31,-190.91C1260.12,-181.38 1272.79,-171.15 1284.91,-161.37"/>
<polygon fill="black" stroke="black" points="1287.2,-164.02 1292.78,-155.02 1282.8,-158.58 1287.2,-164.02"/>
</g>
<!-- 43 -->
<g id="node16" class="node">
<title>43</title>
<polygon fill="#c0c0c0" stroke="black" points="1072,-36 1018,-36 1018,0 1072,0 1072,-36"/>
<text text-anchor="middle" x="1045" y="-14.3" font-family="Times,serif" font-size="14.00">(...)</text>
</g>
<!-- 42&#45;&gt;43 -->
<g id="edge15" class="edge">
<title>42&#45;&gt;43</title>
<path fill="none" stroke="black" d="M1065.31,-71.76C1061.96,-63.04 1058.49,-54.04 1055.39,-45.99"/>
<polygon fill="black" stroke="black" points="1058.56,-44.48 1051.7,-36.41 1052.03,-46.99 1058.56,-44.48"/>
</g>
<!-- 52 -->
<g id="node17" class="node">
<title>52</title>
<polygon fill="#c0c0c0" stroke="black" points="1144,-36 1090,-36 1090,0 1144,0 1144,-36"/>
<text text-anchor="middle" x="1117" y="-14.3" font-family="Times,serif" font-size="14.00">(...)</text>
</g>
<!-- 42&#45;&gt;52 -->
<g id="edge16" class="edge">
<title>42&#45;&gt;52</title>
<path fill="none" stroke="black" d="M1096.69,-71.76C1100.04,-63.04 1103.51,-54.04 1106.61,-45.99"/>
<polygon fill="black" stroke="black" points="1109.97,-46.99 1110.3,-36.41 1103.44,-44.48 1109.97,-46.99"/>
</g>
<!-- 78 -->
<g id="node19" class="node">
<title>78</title>
<polygon fill="#c0c0c0" stroke="black" points="1334,-36 1280,-36 1280,0 1334,0 1334,-36"/>
<text text-anchor="middle" x="1307" y="-14.3" font-family="Times,serif" font-size="14.00">(...)</text>
</g>
<!-- 77&#45;&gt;78 -->
<g id="edge18" class="edge">
<title>77&#45;&gt;78</title>
<path fill="none" stroke="black" d="M1327.31,-71.76C1323.96,-63.04 1320.49,-54.04 1317.39,-45.99"/>
<polygon fill="black" stroke="black" points="1320.56,-44.48 1313.7,-36.41 1314.03,-46.99 1320.56,-44.48"/>
</g>
<!-- 81 -->
<g id="node20" class="node">
<title>81</title>
<polygon fill="#c0c0c0" stroke="black" points="1406,-36 1352,-36 1352,0 1406,0 1406,-36"/>
<text text-anchor="middle" x="1379" y="-14.3" font-family="Times,serif" font-size="14.00">(...)</text>
</g>
<!-- 77&#45;&gt;81 -->
<g id="edge19" class="edge">
<title>77&#45;&gt;81</title>
<path fill="none" stroke="black" d="M1358.69,-71.76C1362.04,-63.04 1365.51,-54.04 1368.61,-45.99"/>
<polygon fill="black" stroke="black" points="1371.97,-46.99 1372.3,-36.41 1365.44,-44.48 1371.97,-46.99"/>
</g>
<!-- 85 -->
<g id="node22" class="node">
<title>85</title>
<polygon fill="#e78b49" stroke="black" points="1737.5,-155 1480.5,-155 1480.5,-72 1737.5,-72 1737.5,-155"/>
<text text-anchor="middle" x="1609" y="-139.8" font-family="Times,serif" font-size="14.00">nbproc &lt;= 4.5</text>
<text text-anchor="middle" x="1609" y="-124.8" font-family="Times,serif" font-size="14.00">gini = 0.148</text>
<text text-anchor="middle" x="1609" y="-109.8" font-family="Times,serif" font-size="14.00">samples = 2058</text>
<text text-anchor="middle" x="1609" y="-94.8" font-family="Times,serif" font-size="14.00">value = [1898, 24, 38, 30, 30, 38]</text>
<text text-anchor="middle" x="1609" y="-79.8" font-family="Times,serif" font-size="14.00">class = mean</text>
</g>
<!-- 84&#45;&gt;85 -->
<g id="edge21" class="edge">
<title>84&#45;&gt;85</title>
<path fill="none" stroke="black" d="M1609,-190.91C1609,-182.65 1609,-173.86 1609,-165.3"/>
<polygon fill="black" stroke="black" points="1612.5,-165.02 1609,-155.02 1605.5,-165.02 1612.5,-165.02"/>
</g>
<!-- 144 -->
<g id="node25" class="node">
<title>144</title>
<polygon fill="#eca16b" stroke="black" points="2058,-155 1756,-155 1756,-72 2058,-72 2058,-155"/>
<text text-anchor="middle" x="1907" y="-139.8" font-family="Times,serif" font-size="14.00">graphSize &lt;= 22.5</text>
<text text-anchor="middle" x="1907" y="-124.8" font-family="Times,serif" font-size="14.00">gini = 0.414</text>
<text text-anchor="middle" x="1907" y="-109.8" font-family="Times,serif" font-size="14.00">samples = 2756</text>
<text text-anchor="middle" x="1907" y="-94.8" font-family="Times,serif" font-size="14.00">value = [2088, 136, 134, 132, 132, 134]</text>
<text text-anchor="middle" x="1907" y="-79.8" font-family="Times,serif" font-size="14.00">class = mean</text>
</g>
<!-- 84&#45;&gt;144 -->
<g id="edge24" class="edge">
<title>84&#45;&gt;144</title>
<path fill="none" stroke="black" d="M1712.39,-190.91C1738.86,-180.52 1767.45,-169.29 1794.35,-158.73"/>
<polygon fill="black" stroke="black" points="1795.76,-161.93 1803.79,-155.02 1793.21,-155.42 1795.76,-161.93"/>
</g>
<!-- 86 -->
<g id="node23" class="node">
<title>86</title>
<polygon fill="#c0c0c0" stroke="black" points="1600,-36 1546,-36 1546,0 1600,0 1600,-36"/>
<text text-anchor="middle" x="1573" y="-14.3" font-family="Times,serif" font-size="14.00">(...)</text>
</g>
<!-- 85&#45;&gt;86 -->
<g id="edge22" class="edge">
<title>85&#45;&gt;86</title>
<path fill="none" stroke="black" d="M1593.31,-71.76C1589.96,-63.04 1586.49,-54.04 1583.39,-45.99"/>
<polygon fill="black" stroke="black" points="1586.56,-44.48 1579.7,-36.41 1580.03,-46.99 1586.56,-44.48"/>
</g>
<!-- 135 -->
<g id="node24" class="node">
<title>135</title>
<polygon fill="#c0c0c0" stroke="black" points="1672,-36 1618,-36 1618,0 1672,0 1672,-36"/>
<text text-anchor="middle" x="1645" y="-14.3" font-family="Times,serif" font-size="14.00">(...)</text>
</g>
<!-- 85&#45;&gt;135 -->
<g id="edge23" class="edge">
<title>85&#45;&gt;135</title>
<path fill="none" stroke="black" d="M1624.69,-71.76C1628.04,-63.04 1631.51,-54.04 1634.61,-45.99"/>
<polygon fill="black" stroke="black" points="1637.97,-46.99 1638.3,-36.41 1631.44,-44.48 1637.97,-46.99"/>
</g>
<!-- 145 -->
<g id="node26" class="node">
<title>145</title>
<polygon fill="#c0c0c0" stroke="black" points="1898,-36 1844,-36 1844,0 1898,0 1898,-36"/>
<text text-anchor="middle" x="1871" y="-14.3" font-family="Times,serif" font-size="14.00">(...)</text>
</g>
<!-- 144&#45;&gt;145 -->
<g id="edge25" class="edge">
<title>144&#45;&gt;145</title>
<path fill="none" stroke="black" d="M1891.31,-71.76C1887.96,-63.04 1884.49,-54.04 1881.39,-45.99"/>
<polygon fill="black" stroke="black" points="1884.56,-44.48 1877.7,-36.41 1878.03,-46.99 1884.56,-44.48"/>
</g>
<!-- 180 -->
<g id="node27" class="node">
<title>180</title>
<polygon fill="#c0c0c0" stroke="black" points="1970,-36 1916,-36 1916,0 1970,0 1970,-36"/>
<text text-anchor="middle" x="1943" y="-14.3" font-family="Times,serif" font-size="14.00">(...)</text>
</g>
<!-- 144&#45;&gt;180 -->
<g id="edge26" class="edge">
<title>144&#45;&gt;180</title>
<path fill="none" stroke="black" d="M1922.69,-71.76C1926.04,-63.04 1929.51,-54.04 1932.61,-45.99"/>
<polygon fill="black" stroke="black" points="1935.97,-46.99 1936.3,-36.41 1929.44,-44.48 1935.97,-46.99"/>
</g>
</g>
</svg>
