<?xml version="1.0" encoding="UTF-8" standalone="no"?>
<!DOCTYPE svg PUBLIC "-//W3C//DTD SVG 1.1//EN"
 "http://www.w3.org/Graphics/SVG/1.1/DTD/svg11.dtd">
<!-- Generated by graphviz version 2.43.0 (0)
 -->
<!-- Title: Tree Pages: 1 -->
<svg width="2092pt" height="520pt"
 viewBox="0.00 0.00 2092.00 520.00" xmlns="http://www.w3.org/2000/svg" xmlns:xlink="http://www.w3.org/1999/xlink">
<g id="graph0" class="graph" transform="scale(1 1) rotate(0) translate(4 516)">
<title>Tree</title>
<polygon fill="white" stroke="transparent" points="-4,4 -4,-516 2088,-516 2088,4 -4,4"/>
<!-- 0 -->
<g id="node1" class="node">
<title>0</title>
<polygon fill="#daf5b5" stroke="black" points="1127.5,-512 816.5,-512 816.5,-429 1127.5,-429 1127.5,-512"/>
<text text-anchor="middle" x="972" y="-496.8" font-family="Times,serif" font-size="14.00">sdComm &lt;= 0.65</text>
<text text-anchor="middle" x="972" y="-481.8" font-family="Times,serif" font-size="14.00">gini = 0.697</text>
<text text-anchor="middle" x="972" y="-466.8" font-family="Times,serif" font-size="14.00">samples = 7849</text>
<text text-anchor="middle" x="972" y="-451.8" font-family="Times,serif" font-size="14.00">value = [1413, 3833, 964, 272, 789, 578]</text>
<text text-anchor="middle" x="972" y="-436.8" font-family="Times,serif" font-size="14.00">class = BIM*</text>
</g>
<!-- 1 -->
<g id="node2" class="node">
<title>1</title>
<polygon fill="#dbf5b6" stroke="black" points="886.5,-393 593.5,-393 593.5,-310 886.5,-310 886.5,-393"/>
<text text-anchor="middle" x="740" y="-377.8" font-family="Times,serif" font-size="14.00">graphDepth &lt;= 9.0</text>
<text text-anchor="middle" x="740" y="-362.8" font-family="Times,serif" font-size="14.00">gini = 0.562</text>
<text text-anchor="middle" x="740" y="-347.8" font-family="Times,serif" font-size="14.00">samples = 3399</text>
<text text-anchor="middle" x="740" y="-332.8" font-family="Times,serif" font-size="14.00">value = [1103, 1951, 36, 66, 123, 120]</text>
<text text-anchor="middle" x="740" y="-317.8" font-family="Times,serif" font-size="14.00">class = BIM*</text>
</g>
<!-- 0&#45;&gt;1 -->
<g id="edge1" class="edge">
<title>0&#45;&gt;1</title>
<path fill="none" stroke="black" d="M891.51,-428.91C871.44,-418.79 849.81,-407.88 829.35,-397.56"/>
<polygon fill="black" stroke="black" points="830.85,-394.4 820.35,-393.02 827.7,-400.65 830.85,-394.4"/>
<text text-anchor="middle" x="828.17" y="-413.06" font-family="Times,serif" font-size="14.00">True</text>
</g>
<!-- 358 -->
<g id="node17" class="node">
<title>358</title>
<polygon fill="#e4f8c9" stroke="black" points="1385,-393 1083,-393 1083,-310 1385,-310 1385,-393"/>
<text text-anchor="middle" x="1234" y="-377.8" font-family="Times,serif" font-size="14.00">sdComp &lt;= 0.2</text>
<text text-anchor="middle" x="1234" y="-362.8" font-family="Times,serif" font-size="14.00">gini = 0.738</text>
<text text-anchor="middle" x="1234" y="-347.8" font-family="Times,serif" font-size="14.00">samples = 4450</text>
<text text-anchor="middle" x="1234" y="-332.8" font-family="Times,serif" font-size="14.00">value = [310, 1882, 928, 206, 666, 458]</text>
<text text-anchor="middle" x="1234" y="-317.8" font-family="Times,serif" font-size="14.00">class = BIM*</text>
</g>
<!-- 0&#45;&gt;358 -->
<g id="edge16" class="edge">
<title>0&#45;&gt;358</title>
<path fill="none" stroke="black" d="M1062.9,-428.91C1085.86,-418.65 1110.65,-407.59 1134.03,-397.14"/>
<polygon fill="black" stroke="black" points="1135.56,-400.29 1143.26,-393.02 1132.7,-393.9 1135.56,-400.29"/>
<text text-anchor="middle" x="1134.33" y="-412.67" font-family="Times,serif" font-size="14.00">False</text>
</g>
<!-- 2 -->
<g id="node3" class="node">
<title>2</title>
<polygon fill="#ebfad7" stroke="black" points="532.5,-274 257.5,-274 257.5,-191 532.5,-191 532.5,-274"/>
<text text-anchor="middle" x="395" y="-258.8" font-family="Times,serif" font-size="14.00">CCR &lt;= 0.55</text>
<text text-anchor="middle" x="395" y="-243.8" font-family="Times,serif" font-size="14.00">gini = 0.633</text>
<text text-anchor="middle" x="395" y="-228.8" font-family="Times,serif" font-size="14.00">samples = 2003</text>
<text text-anchor="middle" x="395" y="-213.8" font-family="Times,serif" font-size="14.00">value = [709, 969, 28, 66, 123, 108]</text>
<text text-anchor="middle" x="395" y="-198.8" font-family="Times,serif" font-size="14.00">class = BIM*</text>
</g>
<!-- 1&#45;&gt;2 -->
<g id="edge2" class="edge">
<title>1&#45;&gt;2</title>
<path fill="none" stroke="black" d="M620.3,-309.91C589.26,-299.38 555.7,-288 524.19,-277.31"/>
<polygon fill="black" stroke="black" points="525.08,-273.92 514.48,-274.02 522.83,-280.55 525.08,-273.92"/>
</g>
<!-- 183 -->
<g id="node10" class="node">
<title>183</title>
<polygon fill="#c5f08b" stroke="black" points="855,-274 625,-274 625,-191 855,-191 855,-274"/>
<text text-anchor="middle" x="740" y="-258.8" font-family="Times,serif" font-size="14.00">sdComp &lt;= 0.65</text>
<text text-anchor="middle" x="740" y="-243.8" font-family="Times,serif" font-size="14.00">gini = 0.425</text>
<text text-anchor="middle" x="740" y="-228.8" font-family="Times,serif" font-size="14.00">samples = 1396</text>
<text text-anchor="middle" x="740" y="-213.8" font-family="Times,serif" font-size="14.00">value = [394, 982, 8, 0, 0, 12]</text>
<text text-anchor="middle" x="740" y="-198.8" font-family="Times,serif" font-size="14.00">class = BIM*</text>
</g>
<!-- 1&#45;&gt;183 -->
<g id="edge9" class="edge">
<title>1&#45;&gt;183</title>
<path fill="none" stroke="black" d="M740,-309.91C740,-301.65 740,-292.86 740,-284.3"/>
<polygon fill="black" stroke="black" points="743.5,-284.02 740,-274.02 736.5,-284.02 743.5,-284.02"/>
</g>
<!-- 3 -->
<g id="node4" class="node">
<title>3</title>
<polygon fill="#e6f8cc" stroke="black" points="248,-155 0,-155 0,-72 248,-72 248,-155"/>
<text text-anchor="middle" x="124" y="-139.8" font-family="Times,serif" font-size="14.00">sdComp &lt;= 0.02</text>
<text text-anchor="middle" x="124" y="-124.8" font-family="Times,serif" font-size="14.00">gini = 0.577</text>
<text text-anchor="middle" x="124" y="-109.8" font-family="Times,serif" font-size="14.00">samples = 1502</text>
<text text-anchor="middle" x="124" y="-94.8" font-family="Times,serif" font-size="14.00">value = [556, 798, 0, 46, 74, 28]</text>
<text text-anchor="middle" x="124" y="-79.8" font-family="Times,serif" font-size="14.00">class = BIM*</text>
</g>
<!-- 2&#45;&gt;3 -->
<g id="edge3" class="edge">
<title>2&#45;&gt;3</title>
<path fill="none" stroke="black" d="M300.98,-190.91C277.12,-180.61 251.36,-169.49 227.08,-159"/>
<polygon fill="black" stroke="black" points="228.42,-155.77 217.86,-155.02 225.65,-162.2 228.42,-155.77"/>
</g>
<!-- 120 -->
<g id="node7" class="node">
<title>120</title>
<polygon fill="#fafef5" stroke="black" points="523.5,-155 266.5,-155 266.5,-72 523.5,-72 523.5,-155"/>
<text text-anchor="middle" x="395" y="-139.8" font-family="Times,serif" font-size="14.00">sdComp &lt;= 0.65</text>
<text text-anchor="middle" x="395" y="-124.8" font-family="Times,serif" font-size="14.00">gini = 0.75</text>
<text text-anchor="middle" x="395" y="-109.8" font-family="Times,serif" font-size="14.00">samples = 501</text>
<text text-anchor="middle" x="395" y="-94.8" font-family="Times,serif" font-size="14.00">value = [153, 171, 28, 20, 49, 80]</text>
<text text-anchor="middle" x="395" y="-79.8" font-family="Times,serif" font-size="14.00">class = BIM*</text>
</g>
<!-- 2&#45;&gt;120 -->
<g id="edge6" class="edge">
<title>2&#45;&gt;120</title>
<path fill="none" stroke="black" d="M395,-190.91C395,-182.65 395,-173.86 395,-165.3"/>
<polygon fill="black" stroke="black" points="398.5,-165.02 395,-155.02 391.5,-165.02 398.5,-165.02"/>
</g>
<!-- 4 -->
<g id="node5" class="node">
<title>4</title>
<polygon fill="#c0c0c0" stroke="black" points="115,-36 61,-36 61,0 115,0 115,-36"/>
<text text-anchor="middle" x="88" y="-14.3" font-family="Times,serif" font-size="14.00">(...)</text>
</g>
<!-- 3&#45;&gt;4 -->
<g id="edge4" class="edge">
<title>3&#45;&gt;4</title>
<path fill="none" stroke="black" d="M108.31,-71.76C104.96,-63.04 101.49,-54.04 98.39,-45.99"/>
<polygon fill="black" stroke="black" points="101.56,-44.48 94.7,-36.41 95.03,-46.99 101.56,-44.48"/>
</g>
<!-- 39 -->
<g id="node6" class="node">
<title>39</title>
<polygon fill="#c0c0c0" stroke="black" points="187,-36 133,-36 133,0 187,0 187,-36"/>
<text text-anchor="middle" x="160" y="-14.3" font-family="Times,serif" font-size="14.00">(...)</text>
</g>
<!-- 3&#45;&gt;39 -->
<g id="edge5" class="edge">
<title>3&#45;&gt;39</title>
<path fill="none" stroke="black" d="M139.69,-71.76C143.04,-63.04 146.51,-54.04 149.61,-45.99"/>
<polygon fill="black" stroke="black" points="152.97,-46.99 153.3,-36.41 146.44,-44.48 152.97,-46.99"/>
</g>
<!-- 121 -->
<g id="node8" class="node">
<title>121</title>
<polygon fill="#c0c0c0" stroke="black" points="386,-36 332,-36 332,0 386,0 386,-36"/>
<text text-anchor="middle" x="359" y="-14.3" font-family="Times,serif" font-size="14.00">(...)</text>
</g>
<!-- 120&#45;&gt;121 -->
<g id="edge7" class="edge">
<title>120&#45;&gt;121</title>
<path fill="none" stroke="black" d="M379.31,-71.76C375.96,-63.04 372.49,-54.04 369.39,-45.99"/>
<polygon fill="black" stroke="black" points="372.56,-44.48 365.7,-36.41 366.03,-46.99 372.56,-44.48"/>
</g>
<!-- 154 -->
<g id="node9" class="node">
<title>154</title>
<polygon fill="#c0c0c0" stroke="black" points="458,-36 404,-36 404,0 458,0 458,-36"/>
<text text-anchor="middle" x="431" y="-14.3" font-family="Times,serif" font-size="14.00">(...)</text>
</g>
<!-- 120&#45;&gt;154 -->
<g id="edge8" class="edge">
<title>120&#45;&gt;154</title>
<path fill="none" stroke="black" d="M410.69,-71.76C414.04,-63.04 417.51,-54.04 420.61,-45.99"/>
<polygon fill="black" stroke="black" points="423.97,-46.99 424.3,-36.41 417.44,-44.48 423.97,-46.99"/>
</g>
<!-- 184 -->
<g id="node11" class="node">
<title>184</title>
<polygon fill="#caf193" stroke="black" points="772,-155 542,-155 542,-72 772,-72 772,-155"/>
<text text-anchor="middle" x="657" y="-139.8" font-family="Times,serif" font-size="14.00">CCR &lt;= 0.55</text>
<text text-anchor="middle" x="657" y="-124.8" font-family="Times,serif" font-size="14.00">gini = 0.444</text>
<text text-anchor="middle" x="657" y="-109.8" font-family="Times,serif" font-size="14.00">samples = 1200</text>
<text text-anchor="middle" x="657" y="-94.8" font-family="Times,serif" font-size="14.00">value = [362, 818, 8, 0, 0, 12]</text>
<text text-anchor="middle" x="657" y="-79.8" font-family="Times,serif" font-size="14.00">class = BIM*</text>
</g>
<!-- 183&#45;&gt;184 -->
<g id="edge10" class="edge">
<title>183&#45;&gt;184</title>
<path fill="none" stroke="black" d="M711.2,-190.91C704.89,-182.01 698.15,-172.51 691.64,-163.33"/>
<polygon fill="black" stroke="black" points="694.39,-161.15 685.75,-155.02 688.68,-165.2 694.39,-161.15"/>
</g>
<!-- 329 -->
<g id="node14" class="node">
<title>329</title>
<polygon fill="#b0ea60" stroke="black" points="1002,-155 790,-155 790,-72 1002,-72 1002,-155"/>
<text text-anchor="middle" x="896" y="-139.8" font-family="Times,serif" font-size="14.00">graphSize &lt;= 75.0</text>
<text text-anchor="middle" x="896" y="-124.8" font-family="Times,serif" font-size="14.00">gini = 0.273</text>
<text text-anchor="middle" x="896" y="-109.8" font-family="Times,serif" font-size="14.00">samples = 196</text>
<text text-anchor="middle" x="896" y="-94.8" font-family="Times,serif" font-size="14.00">value = [32, 164, 0, 0, 0, 0]</text>
<text text-anchor="middle" x="896" y="-79.8" font-family="Times,serif" font-size="14.00">class = BIM*</text>
</g>
<!-- 183&#45;&gt;329 -->
<g id="edge13" class="edge">
<title>183&#45;&gt;329</title>
<path fill="none" stroke="black" d="M794.12,-190.91C806.95,-181.29 820.73,-170.95 833.88,-161.09"/>
<polygon fill="black" stroke="black" points="836.07,-163.82 841.97,-155.02 831.87,-158.22 836.07,-163.82"/>
</g>
<!-- 185 -->
<g id="node12" class="node">
<title>185</title>
<polygon fill="#c0c0c0" stroke="black" points="648,-36 594,-36 594,0 648,0 648,-36"/>
<text text-anchor="middle" x="621" y="-14.3" font-family="Times,serif" font-size="14.00">(...)</text>
</g>
<!-- 184&#45;&gt;185 -->
<g id="edge11" class="edge">
<title>184&#45;&gt;185</title>
<path fill="none" stroke="black" d="M641.31,-71.76C637.96,-63.04 634.49,-54.04 631.39,-45.99"/>
<polygon fill="black" stroke="black" points="634.56,-44.48 627.7,-36.41 628.03,-46.99 634.56,-44.48"/>
</g>
<!-- 302 -->
<g id="node13" class="node">
<title>302</title>
<polygon fill="#c0c0c0" stroke="black" points="720,-36 666,-36 666,0 720,0 720,-36"/>
<text text-anchor="middle" x="693" y="-14.3" font-family="Times,serif" font-size="14.00">(...)</text>
</g>
<!-- 184&#45;&gt;302 -->
<g id="edge12" class="edge">
<title>184&#45;&gt;302</title>
<path fill="none" stroke="black" d="M672.69,-71.76C676.04,-63.04 679.51,-54.04 682.61,-45.99"/>
<polygon fill="black" stroke="black" points="685.97,-46.99 686.3,-36.41 679.44,-44.48 685.97,-46.99"/>
</g>
<!-- 330 -->
<g id="node15" class="node">
<title>330</title>
<polygon fill="#c0c0c0" stroke="black" points="887,-36 833,-36 833,0 887,0 887,-36"/>
<text text-anchor="middle" x="860" y="-14.3" font-family="Times,serif" font-size="14.00">(...)</text>
</g>
<!-- 329&#45;&gt;330 -->
<g id="edge14" class="edge">
<title>329&#45;&gt;330</title>
<path fill="none" stroke="black" d="M880.31,-71.76C876.96,-63.04 873.49,-54.04 870.39,-45.99"/>
<polygon fill="black" stroke="black" points="873.56,-44.48 866.7,-36.41 867.03,-46.99 873.56,-44.48"/>
</g>
<!-- 343 -->
<g id="node16" class="node">
<title>343</title>
<polygon fill="#c0c0c0" stroke="black" points="959,-36 905,-36 905,0 959,0 959,-36"/>
<text text-anchor="middle" x="932" y="-14.3" font-family="Times,serif" font-size="14.00">(...)</text>
</g>
<!-- 329&#45;&gt;343 -->
<g id="edge15" class="edge">
<title>329&#45;&gt;343</title>
<path fill="none" stroke="black" d="M911.69,-71.76C915.04,-63.04 918.51,-54.04 921.61,-45.99"/>
<polygon fill="black" stroke="black" points="924.97,-46.99 925.3,-36.41 918.44,-44.48 924.97,-46.99"/>
</g>
<!-- 359 -->
<g id="node18" class="node">
<title>359</title>
<polygon fill="#f197cb" stroke="black" points="1349,-274 1119,-274 1119,-191 1349,-191 1349,-274"/>
<text text-anchor="middle" x="1234" y="-258.8" font-family="Times,serif" font-size="14.00">graphSize &lt;= 75.0</text>
<text text-anchor="middle" x="1234" y="-243.8" font-family="Times,serif" font-size="14.00">gini = 0.581</text>
<text text-anchor="middle" x="1234" y="-228.8" font-family="Times,serif" font-size="14.00">samples = 230</text>
<text text-anchor="middle" x="1234" y="-213.8" font-family="Times,serif" font-size="14.00">value = [18, 40, 8, 0, 24, 140]</text>
<text text-anchor="middle" x="1234" y="-198.8" font-family="Times,serif" font-size="14.00">class = GDL</text>
</g>
<!-- 358&#45;&gt;359 -->
<g id="edge17" class="edge">
<title>358&#45;&gt;359</title>
<path fill="none" stroke="black" d="M1234,-309.91C1234,-301.65 1234,-292.86 1234,-284.3"/>
<polygon fill="black" stroke="black" points="1237.5,-284.02 1234,-274.02 1230.5,-284.02 1237.5,-284.02"/>
</g>
<!-- 390 -->
<g id="node25" class="node">
<title>390</title>
<polygon fill="#e4f8c8" stroke="black" points="1773,-274 1471,-274 1471,-191 1773,-191 1773,-274"/>
<text text-anchor="middle" x="1622" y="-258.8" font-family="Times,serif" font-size="14.00">graphDepth &lt;= 6.5</text>
<text text-anchor="middle" x="1622" y="-243.8" font-family="Times,serif" font-size="14.00">gini = 0.726</text>
<text text-anchor="middle" x="1622" y="-228.8" font-family="Times,serif" font-size="14.00">samples = 4220</text>
<text text-anchor="middle" x="1622" y="-213.8" font-family="Times,serif" font-size="14.00">value = [292, 1842, 920, 206, 642, 318]</text>
<text text-anchor="middle" x="1622" y="-198.8" font-family="Times,serif" font-size="14.00">class = BIM*</text>
</g>
<!-- 358&#45;&gt;390 -->
<g id="edge24" class="edge">
<title>358&#45;&gt;390</title>
<path fill="none" stroke="black" d="M1368.34,-309.99C1403.57,-299.37 1441.7,-287.87 1477.43,-277.09"/>
<polygon fill="black" stroke="black" points="1478.88,-280.31 1487.44,-274.07 1476.86,-273.61 1478.88,-280.31"/>
</g>
<!-- 360 -->
<g id="node19" class="node">
<title>360</title>
<polygon fill="#fefafd" stroke="black" points="1240.5,-155 1019.5,-155 1019.5,-72 1240.5,-72 1240.5,-155"/>
<text text-anchor="middle" x="1130" y="-139.8" font-family="Times,serif" font-size="14.00">nbproc &lt;= 4.5</text>
<text text-anchor="middle" x="1130" y="-124.8" font-family="Times,serif" font-size="14.00">gini = 0.747</text>
<text text-anchor="middle" x="1130" y="-109.8" font-family="Times,serif" font-size="14.00">samples = 116</text>
<text text-anchor="middle" x="1130" y="-94.8" font-family="Times,serif" font-size="14.00">value = [14, 36, 8, 0, 20, 38]</text>
<text text-anchor="middle" x="1130" y="-79.8" font-family="Times,serif" font-size="14.00">class = GDL</text>
</g>
<!-- 359&#45;&gt;360 -->
<g id="edge18" class="edge">
<title>359&#45;&gt;360</title>
<path fill="none" stroke="black" d="M1197.92,-190.91C1189.85,-181.83 1181.22,-172.12 1172.91,-162.77"/>
<polygon fill="black" stroke="black" points="1175.28,-160.17 1166.02,-155.02 1170.05,-164.82 1175.28,-160.17"/>
</g>
<!-- 383 -->
<g id="node22" class="node">
<title>383</title>
<polygon fill="#e84fa8" stroke="black" points="1461.5,-155 1258.5,-155 1258.5,-72 1461.5,-72 1461.5,-155"/>
<text text-anchor="middle" x="1360" y="-139.8" font-family="Times,serif" font-size="14.00">nbproc &lt;= 4.5</text>
<text text-anchor="middle" x="1360" y="-124.8" font-family="Times,serif" font-size="14.00">gini = 0.196</text>
<text text-anchor="middle" x="1360" y="-109.8" font-family="Times,serif" font-size="14.00">samples = 114</text>
<text text-anchor="middle" x="1360" y="-94.8" font-family="Times,serif" font-size="14.00">value = [4, 4, 0, 0, 4, 102]</text>
<text text-anchor="middle" x="1360" y="-79.8" font-family="Times,serif" font-size="14.00">class = GDL</text>
</g>
<!-- 359&#45;&gt;383 -->
<g id="edge21" class="edge">
<title>359&#45;&gt;383</title>
<path fill="none" stroke="black" d="M1277.72,-190.91C1287.78,-181.56 1298.57,-171.54 1308.92,-161.93"/>
<polygon fill="black" stroke="black" points="1311.42,-164.39 1316.36,-155.02 1306.65,-159.26 1311.42,-164.39"/>
</g>
<!-- 361 -->
<g id="node20" class="node">
<title>361</title>
<polygon fill="#c0c0c0" stroke="black" points="1121,-36 1067,-36 1067,0 1121,0 1121,-36"/>
<text text-anchor="middle" x="1094" y="-14.3" font-family="Times,serif" font-size="14.00">(...)</text>
</g>
<!-- 360&#45;&gt;361 -->
<g id="edge19" class="edge">
<title>360&#45;&gt;361</title>
<path fill="none" stroke="black" d="M1114.31,-71.76C1110.96,-63.04 1107.49,-54.04 1104.39,-45.99"/>
<polygon fill="black" stroke="black" points="1107.56,-44.48 1100.7,-36.41 1101.03,-46.99 1107.56,-44.48"/>
</g>
<!-- 372 -->
<g id="node21" class="node">
<title>372</title>
<polygon fill="#c0c0c0" stroke="black" points="1193,-36 1139,-36 1139,0 1193,0 1193,-36"/>
<text text-anchor="middle" x="1166" y="-14.3" font-family="Times,serif" font-size="14.00">(...)</text>
</g>
<!-- 360&#45;&gt;372 -->
<g id="edge20" class="edge">
<title>360&#45;&gt;372</title>
<path fill="none" stroke="black" d="M1145.69,-71.76C1149.04,-63.04 1152.51,-54.04 1155.61,-45.99"/>
<polygon fill="black" stroke="black" points="1158.97,-46.99 1159.3,-36.41 1152.44,-44.48 1158.97,-46.99"/>
</g>
<!-- 384 -->
<g id="node23" class="node">
<title>384</title>
<polygon fill="#c0c0c0" stroke="black" points="1351,-36 1297,-36 1297,0 1351,0 1351,-36"/>
<text text-anchor="middle" x="1324" y="-14.3" font-family="Times,serif" font-size="14.00">(...)</text>
</g>
<!-- 383&#45;&gt;384 -->
<g id="edge22" class="edge">
<title>383&#45;&gt;384</title>
<path fill="none" stroke="black" d="M1344.31,-71.76C1340.96,-63.04 1337.49,-54.04 1334.39,-45.99"/>
<polygon fill="black" stroke="black" points="1337.56,-44.48 1330.7,-36.41 1331.03,-46.99 1337.56,-44.48"/>
</g>
<!-- 387 -->
<g id="node24" class="node">
<title>387</title>
<polygon fill="#c0c0c0" stroke="black" points="1423,-36 1369,-36 1369,0 1423,0 1423,-36"/>
<text text-anchor="middle" x="1396" y="-14.3" font-family="Times,serif" font-size="14.00">(...)</text>
</g>
<!-- 383&#45;&gt;387 -->
<g id="edge23" class="edge">
<title>383&#45;&gt;387</title>
<path fill="none" stroke="black" d="M1375.69,-71.76C1379.04,-63.04 1382.51,-54.04 1385.61,-45.99"/>
<polygon fill="black" stroke="black" points="1388.97,-46.99 1389.3,-36.41 1382.44,-44.48 1388.97,-46.99"/>
</g>
<!-- 391 -->
<g id="node26" class="node">
<title>391</title>
<polygon fill="#f8fdf0" stroke="black" points="1764,-155 1480,-155 1480,-72 1764,-72 1764,-155"/>
<text text-anchor="middle" x="1622" y="-139.8" font-family="Times,serif" font-size="14.00">sdComm &lt;= 6.5</text>
<text text-anchor="middle" x="1622" y="-124.8" font-family="Times,serif" font-size="14.00">gini = 0.787</text>
<text text-anchor="middle" x="1622" y="-109.8" font-family="Times,serif" font-size="14.00">samples = 1516</text>
<text text-anchor="middle" x="1622" y="-94.8" font-family="Times,serif" font-size="14.00">value = [132, 440, 352, 82, 348, 162]</text>
<text text-anchor="middle" x="1622" y="-79.8" font-family="Times,serif" font-size="14.00">class = BIM*</text>
</g>
<!-- 390&#45;&gt;391 -->
<g id="edge25" class="edge">
<title>390&#45;&gt;391</title>
<path fill="none" stroke="black" d="M1622,-190.91C1622,-182.65 1622,-173.86 1622,-165.3"/>
<polygon fill="black" stroke="black" points="1625.5,-165.02 1622,-155.02 1618.5,-165.02 1625.5,-165.02"/>
</g>
<!-- 516 -->
<g id="node29" class="node">
<title>516</title>
<polygon fill="#d9f5b2" stroke="black" points="2084,-155 1782,-155 1782,-72 2084,-72 2084,-155"/>
<text text-anchor="middle" x="1933" y="-139.8" font-family="Times,serif" font-size="14.00">sdComp &lt;= 2.0</text>
<text text-anchor="middle" x="1933" y="-124.8" font-family="Times,serif" font-size="14.00">gini = 0.666</text>
<text text-anchor="middle" x="1933" y="-109.8" font-family="Times,serif" font-size="14.00">samples = 2704</text>
<text text-anchor="middle" x="1933" y="-94.8" font-family="Times,serif" font-size="14.00">value = [160, 1402, 568, 124, 294, 156]</text>
<text text-anchor="middle" x="1933" y="-79.8" font-family="Times,serif" font-size="14.00">class = BIM*</text>
</g>
<!-- 390&#45;&gt;516 -->
<g id="edge28" class="edge">
<title>390&#45;&gt;516</title>
<path fill="none" stroke="black" d="M1729.9,-190.91C1757.64,-180.47 1787.62,-169.19 1815.81,-158.59"/>
<polygon fill="black" stroke="black" points="1817.16,-161.82 1825.29,-155.02 1814.7,-155.27 1817.16,-161.82"/>
</g>
<!-- 392 -->
<g id="node27" class="node">
<title>392</title>
<polygon fill="#c0c0c0" stroke="black" points="1613,-36 1559,-36 1559,0 1613,0 1613,-36"/>
<text text-anchor="middle" x="1586" y="-14.3" font-family="Times,serif" font-size="14.00">(...)</text>
</g>
<!-- 391&#45;&gt;392 -->
<g id="edge26" class="edge">
<title>391&#45;&gt;392</title>
<path fill="none" stroke="black" d="M1606.31,-71.76C1602.96,-63.04 1599.49,-54.04 1596.39,-45.99"/>
<polygon fill="black" stroke="black" points="1599.56,-44.48 1592.7,-36.41 1593.03,-46.99 1599.56,-44.48"/>
</g>
<!-- 481 -->
<g id="node28" class="node">
<title>481</title>
<polygon fill="#c0c0c0" stroke="black" points="1685,-36 1631,-36 1631,0 1685,0 1685,-36"/>
<text text-anchor="middle" x="1658" y="-14.3" font-family="Times,serif" font-size="14.00">(...)</text>
</g>
<!-- 391&#45;&gt;481 -->
<g id="edge27" class="edge">
<title>391&#45;&gt;481</title>
<path fill="none" stroke="black" d="M1637.69,-71.76C1641.04,-63.04 1644.51,-54.04 1647.61,-45.99"/>
<polygon fill="black" stroke="black" points="1650.97,-46.99 1651.3,-36.41 1644.44,-44.48 1650.97,-46.99"/>
</g>
<!-- 517 -->
<g id="node30" class="node">
<title>517</title>
<polygon fill="#c0c0c0" stroke="black" points="1924,-36 1870,-36 1870,0 1924,0 1924,-36"/>
<text text-anchor="middle" x="1897" y="-14.3" font-family="Times,serif" font-size="14.00">(...)</text>
</g>
<!-- 516&#45;&gt;517 -->
<g id="edge29" class="edge">
<title>516&#45;&gt;517</title>
<path fill="none" stroke="black" d="M1917.31,-71.76C1913.96,-63.04 1910.49,-54.04 1907.39,-45.99"/>
<polygon fill="black" stroke="black" points="1910.56,-44.48 1903.7,-36.41 1904.03,-46.99 1910.56,-44.48"/>
</g>
<!-- 602 -->
<g id="node31" class="node">
<title>602</title>
<polygon fill="#c0c0c0" stroke="black" points="1996,-36 1942,-36 1942,0 1996,0 1996,-36"/>
<text text-anchor="middle" x="1969" y="-14.3" font-family="Times,serif" font-size="14.00">(...)</text>
</g>
<!-- 516&#45;&gt;602 -->
<g id="edge30" class="edge">
<title>516&#45;&gt;602</title>
<path fill="none" stroke="black" d="M1948.69,-71.76C1952.04,-63.04 1955.51,-54.04 1958.61,-45.99"/>
<polygon fill="black" stroke="black" points="1961.97,-46.99 1962.3,-36.41 1955.44,-44.48 1961.97,-46.99"/>
</g>
</g>
</svg>
