<?xml version="1.0" encoding="UTF-8" standalone="no"?>
<!DOCTYPE svg PUBLIC "-//W3C//DTD SVG 1.1//EN"
 "http://www.w3.org/Graphics/SVG/1.1/DTD/svg11.dtd">
<!-- Generated by graphviz version 2.43.0 (0)
 -->
<!-- Title: Tree Pages: 1 -->
<svg width="1521pt" height="520pt"
 viewBox="0.00 0.00 1520.50 520.00" xmlns="http://www.w3.org/2000/svg" xmlns:xlink="http://www.w3.org/1999/xlink">
<g id="graph0" class="graph" transform="scale(1 1) rotate(0) translate(4 516)">
<title>Tree</title>
<polygon fill="white" stroke="transparent" points="-4,4 -4,-516 1516.5,-516 1516.5,4 -4,4"/>
<!-- 0 -->
<g id="node1" class="node">
<title>0</title>
<polygon fill="#fcfafe" stroke="black" points="838.5,-512 626.5,-512 626.5,-429 838.5,-429 838.5,-512"/>
<text text-anchor="middle" x="732.5" y="-496.8" font-family="Times,serif" font-size="14.00">CCR &lt;= 5.5</text>
<text text-anchor="middle" x="732.5" y="-481.8" font-family="Times,serif" font-size="14.00">gini = 0.628</text>
<text text-anchor="middle" x="732.5" y="-466.8" font-family="Times,serif" font-size="14.00">samples = 7849</text>
<text text-anchor="middle" x="732.5" y="-451.8" font-family="Times,serif" font-size="14.00">value = [1358, 3182, 3309]</text>
<text text-anchor="middle" x="732.5" y="-436.8" font-family="Times,serif" font-size="14.00">class = None</text>
</g>
<!-- 1 -->
<g id="node2" class="node">
<title>1</title>
<polygon fill="#87efb2" stroke="black" points="654.5,-393 460.5,-393 460.5,-310 654.5,-310 654.5,-393"/>
<text text-anchor="middle" x="557.5" y="-377.8" font-family="Times,serif" font-size="14.00">sdComp &lt;= 0.2</text>
<text text-anchor="middle" x="557.5" y="-362.8" font-family="Times,serif" font-size="14.00">gini = 0.44</text>
<text text-anchor="middle" x="557.5" y="-347.8" font-family="Times,serif" font-size="14.00">samples = 3867</text>
<text text-anchor="middle" x="557.5" y="-332.8" font-family="Times,serif" font-size="14.00">value = [956, 2726, 185]</text>
<text text-anchor="middle" x="557.5" y="-317.8" font-family="Times,serif" font-size="14.00">class = DCP</text>
</g>
<!-- 0&#45;&gt;1 -->
<g id="edge1" class="edge">
<title>0&#45;&gt;1</title>
<path fill="none" stroke="black" d="M671.78,-428.91C657.26,-419.2 641.65,-408.76 626.77,-398.81"/>
<polygon fill="black" stroke="black" points="628.37,-395.67 618.11,-393.02 624.48,-401.49 628.37,-395.67"/>
<text text-anchor="middle" x="622.98" y="-413.84" font-family="Times,serif" font-size="14.00">True</text>
</g>
<!-- 338 -->
<g id="node17" class="node">
<title>338</title>
<polygon fill="#a069eb" stroke="black" points="1023.5,-393 829.5,-393 829.5,-310 1023.5,-310 1023.5,-393"/>
<text text-anchor="middle" x="926.5" y="-377.8" font-family="Times,serif" font-size="14.00">sdComp &lt;= 6.5</text>
<text text-anchor="middle" x="926.5" y="-362.8" font-family="Times,serif" font-size="14.00">gini = 0.361</text>
<text text-anchor="middle" x="926.5" y="-347.8" font-family="Times,serif" font-size="14.00">samples = 3982</text>
<text text-anchor="middle" x="926.5" y="-332.8" font-family="Times,serif" font-size="14.00">value = [402, 456, 3124]</text>
<text text-anchor="middle" x="926.5" y="-317.8" font-family="Times,serif" font-size="14.00">class = None</text>
</g>
<!-- 0&#45;&gt;338 -->
<g id="edge16" class="edge">
<title>0&#45;&gt;338</title>
<path fill="none" stroke="black" d="M799.81,-428.91C816.21,-419.02 833.86,-408.37 850.63,-398.25"/>
<polygon fill="black" stroke="black" points="852.56,-401.18 859.31,-393.02 848.94,-395.19 852.56,-401.18"/>
<text text-anchor="middle" x="853.3" y="-413.59" font-family="Times,serif" font-size="14.00">False</text>
</g>
<!-- 2 -->
<g id="node3" class="node">
<title>2</title>
<polygon fill="#98f1bd" stroke="black" points="387.5,-274 193.5,-274 193.5,-191 387.5,-191 387.5,-274"/>
<text text-anchor="middle" x="290.5" y="-258.8" font-family="Times,serif" font-size="14.00">sdComm &lt;= 0.2</text>
<text text-anchor="middle" x="290.5" y="-243.8" font-family="Times,serif" font-size="14.00">gini = 0.477</text>
<text text-anchor="middle" x="290.5" y="-228.8" font-family="Times,serif" font-size="14.00">samples = 3035</text>
<text text-anchor="middle" x="290.5" y="-213.8" font-family="Times,serif" font-size="14.00">value = [884, 2004, 147]</text>
<text text-anchor="middle" x="290.5" y="-198.8" font-family="Times,serif" font-size="14.00">class = DCP</text>
</g>
<!-- 1&#45;&gt;2 -->
<g id="edge2" class="edge">
<title>1&#45;&gt;2</title>
<path fill="none" stroke="black" d="M464.87,-309.91C441.46,-299.65 416.21,-288.59 392.38,-278.14"/>
<polygon fill="black" stroke="black" points="393.53,-274.83 382.97,-274.02 390.73,-281.24 393.53,-274.83"/>
</g>
<!-- 259 -->
<g id="node10" class="node">
<title>259</title>
<polygon fill="#56e993" stroke="black" points="641,-274 474,-274 474,-191 641,-191 641,-274"/>
<text text-anchor="middle" x="557.5" y="-258.8" font-family="Times,serif" font-size="14.00">graphSize &lt;= 22.5</text>
<text text-anchor="middle" x="557.5" y="-243.8" font-family="Times,serif" font-size="14.00">gini = 0.237</text>
<text text-anchor="middle" x="557.5" y="-228.8" font-family="Times,serif" font-size="14.00">samples = 832</text>
<text text-anchor="middle" x="557.5" y="-213.8" font-family="Times,serif" font-size="14.00">value = [72, 722, 38]</text>
<text text-anchor="middle" x="557.5" y="-198.8" font-family="Times,serif" font-size="14.00">class = DCP</text>
</g>
<!-- 1&#45;&gt;259 -->
<g id="edge9" class="edge">
<title>1&#45;&gt;259</title>
<path fill="none" stroke="black" d="M557.5,-309.91C557.5,-301.65 557.5,-292.86 557.5,-284.3"/>
<polygon fill="black" stroke="black" points="561,-284.02 557.5,-274.02 554,-284.02 561,-284.02"/>
</g>
<!-- 3 -->
<g id="node4" class="node">
<title>3</title>
<polygon fill="#8af0b5" stroke="black" points="185,-155 0,-155 0,-72 185,-72 185,-155"/>
<text text-anchor="middle" x="92.5" y="-139.8" font-family="Times,serif" font-size="14.00">graphDepth &lt;= 13.5</text>
<text text-anchor="middle" x="92.5" y="-124.8" font-family="Times,serif" font-size="14.00">gini = 0.437</text>
<text text-anchor="middle" x="92.5" y="-109.8" font-family="Times,serif" font-size="14.00">samples = 2716</text>
<text text-anchor="middle" x="92.5" y="-94.8" font-family="Times,serif" font-size="14.00">value = [730, 1900, 86]</text>
<text text-anchor="middle" x="92.5" y="-79.8" font-family="Times,serif" font-size="14.00">class = DCP</text>
</g>
<!-- 2&#45;&gt;3 -->
<g id="edge3" class="edge">
<title>2&#45;&gt;3</title>
<path fill="none" stroke="black" d="M221.8,-190.91C205.06,-181.02 187.05,-170.37 169.93,-160.25"/>
<polygon fill="black" stroke="black" points="171.46,-157.09 161.07,-155.02 167.9,-163.12 171.46,-157.09"/>
</g>
<!-- 220 -->
<g id="node7" class="node">
<title>220</title>
<polygon fill="#f9e2d1" stroke="black" points="378.5,-155 202.5,-155 202.5,-72 378.5,-72 378.5,-155"/>
<text text-anchor="middle" x="290.5" y="-139.8" font-family="Times,serif" font-size="14.00">graphSize &lt;= 75.0</text>
<text text-anchor="middle" x="290.5" y="-124.8" font-family="Times,serif" font-size="14.00">gini = 0.624</text>
<text text-anchor="middle" x="290.5" y="-109.8" font-family="Times,serif" font-size="14.00">samples = 319</text>
<text text-anchor="middle" x="290.5" y="-94.8" font-family="Times,serif" font-size="14.00">value = [154, 104, 61]</text>
<text text-anchor="middle" x="290.5" y="-79.8" font-family="Times,serif" font-size="14.00">class = DLS/DC</text>
</g>
<!-- 2&#45;&gt;220 -->
<g id="edge6" class="edge">
<title>2&#45;&gt;220</title>
<path fill="none" stroke="black" d="M290.5,-190.91C290.5,-182.65 290.5,-173.86 290.5,-165.3"/>
<polygon fill="black" stroke="black" points="294,-165.02 290.5,-155.02 287,-165.02 294,-165.02"/>
</g>
<!-- 4 -->
<g id="node5" class="node">
<title>4</title>
<polygon fill="#c0c0c0" stroke="black" points="83.5,-36 29.5,-36 29.5,0 83.5,0 83.5,-36"/>
<text text-anchor="middle" x="56.5" y="-14.3" font-family="Times,serif" font-size="14.00">(...)</text>
</g>
<!-- 3&#45;&gt;4 -->
<g id="edge4" class="edge">
<title>3&#45;&gt;4</title>
<path fill="none" stroke="black" d="M76.81,-71.76C73.46,-63.04 69.99,-54.04 66.89,-45.99"/>
<polygon fill="black" stroke="black" points="70.06,-44.48 63.2,-36.41 63.53,-46.99 70.06,-44.48"/>
</g>
<!-- 153 -->
<g id="node6" class="node">
<title>153</title>
<polygon fill="#c0c0c0" stroke="black" points="155.5,-36 101.5,-36 101.5,0 155.5,0 155.5,-36"/>
<text text-anchor="middle" x="128.5" y="-14.3" font-family="Times,serif" font-size="14.00">(...)</text>
</g>
<!-- 3&#45;&gt;153 -->
<g id="edge5" class="edge">
<title>3&#45;&gt;153</title>
<path fill="none" stroke="black" d="M108.19,-71.76C111.54,-63.04 115.01,-54.04 118.11,-45.99"/>
<polygon fill="black" stroke="black" points="121.47,-46.99 121.8,-36.41 114.94,-44.48 121.47,-46.99"/>
</g>
<!-- 221 -->
<g id="node8" class="node">
<title>221</title>
<polygon fill="#c0c0c0" stroke="black" points="286.5,-36 232.5,-36 232.5,0 286.5,0 286.5,-36"/>
<text text-anchor="middle" x="259.5" y="-14.3" font-family="Times,serif" font-size="14.00">(...)</text>
</g>
<!-- 220&#45;&gt;221 -->
<g id="edge7" class="edge">
<title>220&#45;&gt;221</title>
<path fill="none" stroke="black" d="M276.99,-71.76C274.1,-63.04 271.12,-54.04 268.45,-45.99"/>
<polygon fill="black" stroke="black" points="271.74,-44.8 265.27,-36.41 265.1,-47 271.74,-44.8"/>
</g>
<!-- 252 -->
<g id="node9" class="node">
<title>252</title>
<polygon fill="#c0c0c0" stroke="black" points="358.5,-36 304.5,-36 304.5,0 358.5,0 358.5,-36"/>
<text text-anchor="middle" x="331.5" y="-14.3" font-family="Times,serif" font-size="14.00">(...)</text>
</g>
<!-- 220&#45;&gt;252 -->
<g id="edge8" class="edge">
<title>220&#45;&gt;252</title>
<path fill="none" stroke="black" d="M308.36,-71.76C312.23,-62.94 316.22,-53.84 319.78,-45.72"/>
<polygon fill="black" stroke="black" points="323.06,-46.97 323.87,-36.41 316.65,-44.16 323.06,-46.97"/>
</g>
<!-- 260 -->
<g id="node11" class="node">
<title>260</title>
<polygon fill="#6deca2" stroke="black" points="563,-155 396,-155 396,-72 563,-72 563,-155"/>
<text text-anchor="middle" x="479.5" y="-139.8" font-family="Times,serif" font-size="14.00">nbproc &lt;= 4.5</text>
<text text-anchor="middle" x="479.5" y="-124.8" font-family="Times,serif" font-size="14.00">gini = 0.378</text>
<text text-anchor="middle" x="479.5" y="-109.8" font-family="Times,serif" font-size="14.00">samples = 386</text>
<text text-anchor="middle" x="479.5" y="-94.8" font-family="Times,serif" font-size="14.00">value = [50, 298, 38]</text>
<text text-anchor="middle" x="479.5" y="-79.8" font-family="Times,serif" font-size="14.00">class = DCP</text>
</g>
<!-- 259&#45;&gt;260 -->
<g id="edge10" class="edge">
<title>259&#45;&gt;260</title>
<path fill="none" stroke="black" d="M530.44,-190.91C524.57,-182.1 518.3,-172.7 512.24,-163.61"/>
<polygon fill="black" stroke="black" points="514.97,-161.4 506.51,-155.02 509.15,-165.28 514.97,-161.4"/>
</g>
<!-- 297 -->
<g id="node14" class="node">
<title>297</title>
<polygon fill="#43e688" stroke="black" points="738.5,-155 580.5,-155 580.5,-72 738.5,-72 738.5,-155"/>
<text text-anchor="middle" x="659.5" y="-139.8" font-family="Times,serif" font-size="14.00">graphSize &lt;= 40.0</text>
<text text-anchor="middle" x="659.5" y="-124.8" font-family="Times,serif" font-size="14.00">gini = 0.094</text>
<text text-anchor="middle" x="659.5" y="-109.8" font-family="Times,serif" font-size="14.00">samples = 446</text>
<text text-anchor="middle" x="659.5" y="-94.8" font-family="Times,serif" font-size="14.00">value = [22, 424, 0]</text>
<text text-anchor="middle" x="659.5" y="-79.8" font-family="Times,serif" font-size="14.00">class = DCP</text>
</g>
<!-- 259&#45;&gt;297 -->
<g id="edge13" class="edge">
<title>259&#45;&gt;297</title>
<path fill="none" stroke="black" d="M592.89,-190.91C600.8,-181.83 609.27,-172.12 617.42,-162.77"/>
<polygon fill="black" stroke="black" points="620.24,-164.86 624.17,-155.02 614.96,-160.26 620.24,-164.86"/>
</g>
<!-- 261 -->
<g id="node12" class="node">
<title>261</title>
<polygon fill="#c0c0c0" stroke="black" points="452.5,-36 398.5,-36 398.5,0 452.5,0 452.5,-36"/>
<text text-anchor="middle" x="425.5" y="-14.3" font-family="Times,serif" font-size="14.00">(...)</text>
</g>
<!-- 260&#45;&gt;261 -->
<g id="edge11" class="edge">
<title>260&#45;&gt;261</title>
<path fill="none" stroke="black" d="M455.97,-71.76C450.77,-62.75 445.39,-53.44 440.63,-45.19"/>
<polygon fill="black" stroke="black" points="443.58,-43.31 435.55,-36.41 437.52,-46.82 443.58,-43.31"/>
</g>
<!-- 284 -->
<g id="node13" class="node">
<title>284</title>
<polygon fill="#c0c0c0" stroke="black" points="524.5,-36 470.5,-36 470.5,0 524.5,0 524.5,-36"/>
<text text-anchor="middle" x="497.5" y="-14.3" font-family="Times,serif" font-size="14.00">(...)</text>
</g>
<!-- 260&#45;&gt;284 -->
<g id="edge12" class="edge">
<title>260&#45;&gt;284</title>
<path fill="none" stroke="black" d="M487.34,-71.76C489,-63.14 490.72,-54.24 492.25,-46.26"/>
<polygon fill="black" stroke="black" points="495.7,-46.89 494.15,-36.41 488.82,-45.56 495.7,-46.89"/>
</g>
<!-- 298 -->
<g id="node15" class="node">
<title>298</title>
<polygon fill="#c0c0c0" stroke="black" points="632.5,-36 578.5,-36 578.5,0 632.5,0 632.5,-36"/>
<text text-anchor="middle" x="605.5" y="-14.3" font-family="Times,serif" font-size="14.00">(...)</text>
</g>
<!-- 297&#45;&gt;298 -->
<g id="edge14" class="edge">
<title>297&#45;&gt;298</title>
<path fill="none" stroke="black" d="M635.97,-71.76C630.77,-62.75 625.39,-53.44 620.63,-45.19"/>
<polygon fill="black" stroke="black" points="623.58,-43.31 615.55,-36.41 617.52,-46.82 623.58,-43.31"/>
</g>
<!-- 319 -->
<g id="node16" class="node">
<title>319</title>
<polygon fill="#c0c0c0" stroke="black" points="704.5,-36 650.5,-36 650.5,0 704.5,0 704.5,-36"/>
<text text-anchor="middle" x="677.5" y="-14.3" font-family="Times,serif" font-size="14.00">(...)</text>
</g>
<!-- 297&#45;&gt;319 -->
<g id="edge15" class="edge">
<title>297&#45;&gt;319</title>
<path fill="none" stroke="black" d="M667.34,-71.76C669,-63.14 670.72,-54.24 672.25,-46.26"/>
<polygon fill="black" stroke="black" points="675.7,-46.89 674.15,-36.41 668.82,-45.56 675.7,-46.89"/>
</g>
<!-- 339 -->
<g id="node18" class="node">
<title>339</title>
<polygon fill="#975cea" stroke="black" points="1023.5,-274 829.5,-274 829.5,-191 1023.5,-191 1023.5,-274"/>
<text text-anchor="middle" x="926.5" y="-258.8" font-family="Times,serif" font-size="14.00">graphDepth &lt;= 9.0</text>
<text text-anchor="middle" x="926.5" y="-243.8" font-family="Times,serif" font-size="14.00">gini = 0.282</text>
<text text-anchor="middle" x="926.5" y="-228.8" font-family="Times,serif" font-size="14.00">samples = 2378</text>
<text text-anchor="middle" x="926.5" y="-213.8" font-family="Times,serif" font-size="14.00">value = [224, 158, 1996]</text>
<text text-anchor="middle" x="926.5" y="-198.8" font-family="Times,serif" font-size="14.00">class = None</text>
</g>
<!-- 338&#45;&gt;339 -->
<g id="edge17" class="edge">
<title>338&#45;&gt;339</title>
<path fill="none" stroke="black" d="M926.5,-309.91C926.5,-301.65 926.5,-292.86 926.5,-284.3"/>
<polygon fill="black" stroke="black" points="930,-284.02 926.5,-274.02 923,-284.02 930,-284.02"/>
</g>
<!-- 440 -->
<g id="node25" class="node">
<title>440</title>
<polygon fill="#af81ee" stroke="black" points="1323.5,-274 1129.5,-274 1129.5,-191 1323.5,-191 1323.5,-274"/>
<text text-anchor="middle" x="1226.5" y="-258.8" font-family="Times,serif" font-size="14.00">graphDepth &lt;= 3.5</text>
<text text-anchor="middle" x="1226.5" y="-243.8" font-family="Times,serif" font-size="14.00">gini = 0.459</text>
<text text-anchor="middle" x="1226.5" y="-228.8" font-family="Times,serif" font-size="14.00">samples = 1604</text>
<text text-anchor="middle" x="1226.5" y="-213.8" font-family="Times,serif" font-size="14.00">value = [178, 298, 1128]</text>
<text text-anchor="middle" x="1226.5" y="-198.8" font-family="Times,serif" font-size="14.00">class = None</text>
</g>
<!-- 338&#45;&gt;440 -->
<g id="edge24" class="edge">
<title>338&#45;&gt;440</title>
<path fill="none" stroke="black" d="M1023.9,-312.51C1054.52,-300.57 1088.49,-287.32 1119.73,-275.14"/>
<polygon fill="black" stroke="black" points="1121.29,-278.29 1129.33,-271.4 1118.74,-271.77 1121.29,-278.29"/>
</g>
<!-- 340 -->
<g id="node19" class="node">
<title>340</title>
<polygon fill="#8946e7" stroke="black" points="923,-155 756,-155 756,-72 923,-72 923,-155"/>
<text text-anchor="middle" x="839.5" y="-139.8" font-family="Times,serif" font-size="14.00">nbproc &lt;= 4.5</text>
<text text-anchor="middle" x="839.5" y="-124.8" font-family="Times,serif" font-size="14.00">gini = 0.116</text>
<text text-anchor="middle" x="839.5" y="-109.8" font-family="Times,serif" font-size="14.00">samples = 890</text>
<text text-anchor="middle" x="839.5" y="-94.8" font-family="Times,serif" font-size="14.00">value = [36, 18, 836]</text>
<text text-anchor="middle" x="839.5" y="-79.8" font-family="Times,serif" font-size="14.00">class = None</text>
</g>
<!-- 339&#45;&gt;340 -->
<g id="edge18" class="edge">
<title>339&#45;&gt;340</title>
<path fill="none" stroke="black" d="M896.32,-190.91C889.64,-181.92 882.49,-172.32 875.6,-163.05"/>
<polygon fill="black" stroke="black" points="878.41,-160.96 869.63,-155.02 872.79,-165.13 878.41,-160.96"/>
</g>
<!-- 371 -->
<g id="node22" class="node">
<title>371</title>
<polygon fill="#a16bec" stroke="black" points="1134.5,-155 940.5,-155 940.5,-72 1134.5,-72 1134.5,-155"/>
<text text-anchor="middle" x="1037.5" y="-139.8" font-family="Times,serif" font-size="14.00">sdComm &lt;= 6.5</text>
<text text-anchor="middle" x="1037.5" y="-124.8" font-family="Times,serif" font-size="14.00">gini = 0.367</text>
<text text-anchor="middle" x="1037.5" y="-109.8" font-family="Times,serif" font-size="14.00">samples = 1488</text>
<text text-anchor="middle" x="1037.5" y="-94.8" font-family="Times,serif" font-size="14.00">value = [188, 140, 1160]</text>
<text text-anchor="middle" x="1037.5" y="-79.8" font-family="Times,serif" font-size="14.00">class = None</text>
</g>
<!-- 339&#45;&gt;371 -->
<g id="edge21" class="edge">
<title>339&#45;&gt;371</title>
<path fill="none" stroke="black" d="M965.01,-190.91C973.71,-181.74 983.02,-171.93 991.97,-162.49"/>
<polygon fill="black" stroke="black" points="994.71,-164.68 999.06,-155.02 989.64,-159.87 994.71,-164.68"/>
</g>
<!-- 341 -->
<g id="node20" class="node">
<title>341</title>
<polygon fill="#c0c0c0" stroke="black" points="821.5,-36 767.5,-36 767.5,0 821.5,0 821.5,-36"/>
<text text-anchor="middle" x="794.5" y="-14.3" font-family="Times,serif" font-size="14.00">(...)</text>
</g>
<!-- 340&#45;&gt;341 -->
<g id="edge19" class="edge">
<title>340&#45;&gt;341</title>
<path fill="none" stroke="black" d="M819.89,-71.76C815.6,-62.85 811.17,-53.64 807.23,-45.46"/>
<polygon fill="black" stroke="black" points="810.37,-43.9 802.88,-36.41 804.06,-46.93 810.37,-43.9"/>
</g>
<!-- 364 -->
<g id="node21" class="node">
<title>364</title>
<polygon fill="#c0c0c0" stroke="black" points="893.5,-36 839.5,-36 839.5,0 893.5,0 893.5,-36"/>
<text text-anchor="middle" x="866.5" y="-14.3" font-family="Times,serif" font-size="14.00">(...)</text>
</g>
<!-- 340&#45;&gt;364 -->
<g id="edge20" class="edge">
<title>340&#45;&gt;364</title>
<path fill="none" stroke="black" d="M851.26,-71.76C853.75,-63.14 856.32,-54.24 858.63,-46.26"/>
<polygon fill="black" stroke="black" points="862.06,-46.98 861.47,-36.41 855.34,-45.04 862.06,-46.98"/>
</g>
<!-- 372 -->
<g id="node23" class="node">
<title>372</title>
<polygon fill="#c0c0c0" stroke="black" points="1028.5,-36 974.5,-36 974.5,0 1028.5,0 1028.5,-36"/>
<text text-anchor="middle" x="1001.5" y="-14.3" font-family="Times,serif" font-size="14.00">(...)</text>
</g>
<!-- 371&#45;&gt;372 -->
<g id="edge22" class="edge">
<title>371&#45;&gt;372</title>
<path fill="none" stroke="black" d="M1021.81,-71.76C1018.46,-63.04 1014.99,-54.04 1011.89,-45.99"/>
<polygon fill="black" stroke="black" points="1015.06,-44.48 1008.2,-36.41 1008.53,-46.99 1015.06,-44.48"/>
</g>
<!-- 419 -->
<g id="node24" class="node">
<title>419</title>
<polygon fill="#c0c0c0" stroke="black" points="1100.5,-36 1046.5,-36 1046.5,0 1100.5,0 1100.5,-36"/>
<text text-anchor="middle" x="1073.5" y="-14.3" font-family="Times,serif" font-size="14.00">(...)</text>
</g>
<!-- 371&#45;&gt;419 -->
<g id="edge23" class="edge">
<title>371&#45;&gt;419</title>
<path fill="none" stroke="black" d="M1053.19,-71.76C1056.54,-63.04 1060.01,-54.04 1063.11,-45.99"/>
<polygon fill="black" stroke="black" points="1066.47,-46.99 1066.8,-36.41 1059.94,-44.48 1066.47,-46.99"/>
</g>
<!-- 441 -->
<g id="node26" class="node">
<title>441</title>
<polygon fill="#8139e5" stroke="black" points="1301,-147.5 1152,-147.5 1152,-79.5 1301,-79.5 1301,-147.5"/>
<text text-anchor="middle" x="1226.5" y="-132.3" font-family="Times,serif" font-size="14.00">gini = 0.0</text>
<text text-anchor="middle" x="1226.5" y="-117.3" font-family="Times,serif" font-size="14.00">samples = 108</text>
<text text-anchor="middle" x="1226.5" y="-102.3" font-family="Times,serif" font-size="14.00">value = [0, 0, 108]</text>
<text text-anchor="middle" x="1226.5" y="-87.3" font-family="Times,serif" font-size="14.00">class = None</text>
</g>
<!-- 440&#45;&gt;441 -->
<g id="edge25" class="edge">
<title>440&#45;&gt;441</title>
<path fill="none" stroke="black" d="M1226.5,-190.91C1226.5,-180.2 1226.5,-168.62 1226.5,-157.78"/>
<polygon fill="black" stroke="black" points="1230,-157.67 1226.5,-147.67 1223,-157.67 1230,-157.67"/>
</g>
<!-- 442 -->
<g id="node27" class="node">
<title>442</title>
<polygon fill="#b388ef" stroke="black" points="1512.5,-155 1318.5,-155 1318.5,-72 1512.5,-72 1512.5,-155"/>
<text text-anchor="middle" x="1415.5" y="-139.8" font-family="Times,serif" font-size="14.00">graphSize &lt;= 22.5</text>
<text text-anchor="middle" x="1415.5" y="-124.8" font-family="Times,serif" font-size="14.00">gini = 0.481</text>
<text text-anchor="middle" x="1415.5" y="-109.8" font-family="Times,serif" font-size="14.00">samples = 1496</text>
<text text-anchor="middle" x="1415.5" y="-94.8" font-family="Times,serif" font-size="14.00">value = [178, 298, 1020]</text>
<text text-anchor="middle" x="1415.5" y="-79.8" font-family="Times,serif" font-size="14.00">class = None</text>
</g>
<!-- 440&#45;&gt;442 -->
<g id="edge26" class="edge">
<title>440&#45;&gt;442</title>
<path fill="none" stroke="black" d="M1292.07,-190.91C1307.91,-181.11 1324.94,-170.56 1341.14,-160.53"/>
<polygon fill="black" stroke="black" points="1343.38,-163.26 1350.04,-155.02 1339.7,-157.31 1343.38,-163.26"/>
</g>
<!-- 443 -->
<g id="node28" class="node">
<title>443</title>
<polygon fill="#c0c0c0" stroke="black" points="1406.5,-36 1352.5,-36 1352.5,0 1406.5,0 1406.5,-36"/>
<text text-anchor="middle" x="1379.5" y="-14.3" font-family="Times,serif" font-size="14.00">(...)</text>
</g>
<!-- 442&#45;&gt;443 -->
<g id="edge27" class="edge">
<title>442&#45;&gt;443</title>
<path fill="none" stroke="black" d="M1399.81,-71.76C1396.46,-63.04 1392.99,-54.04 1389.89,-45.99"/>
<polygon fill="black" stroke="black" points="1393.06,-44.48 1386.2,-36.41 1386.53,-46.99 1393.06,-44.48"/>
</g>
<!-- 454 -->
<g id="node29" class="node">
<title>454</title>
<polygon fill="#c0c0c0" stroke="black" points="1478.5,-36 1424.5,-36 1424.5,0 1478.5,0 1478.5,-36"/>
<text text-anchor="middle" x="1451.5" y="-14.3" font-family="Times,serif" font-size="14.00">(...)</text>
</g>
<!-- 442&#45;&gt;454 -->
<g id="edge28" class="edge">
<title>442&#45;&gt;454</title>
<path fill="none" stroke="black" d="M1431.19,-71.76C1434.54,-63.04 1438.01,-54.04 1441.11,-45.99"/>
<polygon fill="black" stroke="black" points="1444.47,-46.99 1444.8,-36.41 1437.94,-44.48 1444.47,-46.99"/>
</g>
</g>
</svg>
